<?xml version="1.0" encoding="UTF-8" standalone="no"?>
<!-- Created with Inkscape (http://www.inkscape.org/) -->

<svg
   width="1024"
   height="512"
   viewBox="0 0 270.93333 135.46667"
   version="1.1"
   id="svg1"
   xml:space="preserve"
   sodipodi:docname="atlanta.svg"
   inkscape:export-filename="../png/radnicki.png"
   inkscape:export-xdpi="95.821213"
   inkscape:export-ydpi="95.821213"
   inkscape:version="1.4.2 (ebf0e940d0, 2025-05-08)"
   xmlns:inkscape="http://www.inkscape.org/namespaces/inkscape"
   xmlns:sodipodi="http://sodipodi.sourceforge.net/DTD/sodipodi-0.dtd"
   xmlns="http://www.w3.org/2000/svg"
   xmlns:svg="http://www.w3.org/2000/svg"><sodipodi:namedview
     id="namedview1"
     pagecolor="#ffffff"
     bordercolor="#000000"
     borderopacity="0.25"
     inkscape:showpageshadow="2"
     inkscape:pageopacity="0.0"
     inkscape:pagecheckerboard="0"
     inkscape:deskcolor="#d1d1d1"
     inkscape:document-units="mm"
     inkscape:zoom="1.0078851"
     inkscape:cx="434.07725"
     inkscape:cy="82.350656"
     inkscape:window-width="1920"
     inkscape:window-height="1011"
     inkscape:window-x="0"
     inkscape:window-y="32"
     inkscape:window-maximized="1"
     inkscape:current-layer="layer1"
     showguides="true"><sodipodi:guide
       position="29.643296,138.00179"
       orientation="1,0"
       id="guide5"
       inkscape:locked="false" /><sodipodi:guide
       position="118.49384,119.6329"
       orientation="0,-1"
       id="guide6"
       inkscape:locked="false" /><sodipodi:guide
       position="241.77374,135.82915"
       orientation="1,0"
       id="guide7"
       inkscape:locked="false" /><sodipodi:guide
       position="113.78183,14.885825"
       orientation="0,-1"
       id="guide8"
       inkscape:locked="false" /></sodipodi:namedview><defs
     id="defs1" /><g
     inkscape:label="Capa 1"
     inkscape:groupmode="layer"
     id="layer1"><rect
       style="fill:none;fill-rule:evenodd;stroke-width:0.264583;stroke:none"
       id="rect8"
       width="271.43884"
       height="135.98195"
       x="0"
       y="0"
       ry="4.6820946" /><g
       id="g1"
       transform="translate(-0.16375402)"
       style="fill:#e7b900;fill-opacity:1"><text
         xml:space="preserve"
         style="font-style:normal;font-variant:normal;font-weight:normal;font-stretch:normal;font-size:8.75691px;line-height:1;font-family:'Gaming Sporty';-inkscape-font-specification:'Gaming Sporty';text-align:end;letter-spacing:-0.209508px;word-spacing:0.0417047px;writing-mode:lr-tb;direction:ltr;text-anchor:end;fill:#e7b900;fill-opacity:1;stroke:none;stroke-width:1.42482;stroke-dasharray:none"
         x="-7.7396388"
         y="47.471931"
         id="text70"
         transform="matrix(0,-1,1,0.45014375,0,0)"><tspan
           sodipodi:role="line"
           id="tspan70"
           style="fill:#e7b900;fill-opacity:1;stroke-width:1.42482"
           x="-7.9491444"
           y="47.471931">ATLANTA OWLS</tspan></text><text
         xml:space="preserve"
         style="font-style:normal;font-variant:normal;font-weight:normal;font-stretch:normal;font-size:8.75691px;line-height:1;font-family:'Gaming Sporty';-inkscape-font-specification:'Gaming Sporty';text-align:end;letter-spacing:-0.209508px;word-spacing:0.0417047px;writing-mode:lr-tb;direction:ltr;text-anchor:end;fill:#e7b900;fill-opacity:1;stroke:none;stroke-width:1.42482;stroke-dasharray:none"
         x="5.6206598"
         y="-223.78891"
         id="text70-7"
         transform="matrix(0,1,-1,-0.45014375,0,0)"><tspan
           sodipodi:role="line"
           id="tspan70-3"
           style="fill:#e7b900;fill-opacity:1;stroke-width:1.42482"
           x="5.4111543"
           y="-223.78891">ATLANTA OWLS</tspan></text></g><g
       id="g2"
       transform="translate(0.00763469,0.18863663)"><path
         style="fill:#ff0000;fill-opacity:1;stroke:#ffffff;stroke-width:1.16332;stroke-dasharray:none"
         d="m 135.92448,81.393654 c 0.36305,-0.07696 0.78393,-0.254691 1.09286,-0.461468 l 0.28309,-0.189481 0.44093,-0.01969 c 0.75421,-0.03367 1.26119,-0.234119 1.73921,-0.687643 0.20832,-0.197638 0.29795,-0.258469 0.40906,-0.277606 0.21297,-0.03667 0.47384,-0.125567 0.69924,-0.238259 0.38313,-0.191549 0.83024,-0.686036 0.95091,-1.051679 0.0414,-0.125596 0.072,-0.154287 0.23733,-0.222806 0.2765,-0.114607 0.66919,-0.403147 0.8362,-0.614438 0.27973,-0.353881 0.41081,-0.705619 0.44744,-1.200674 0.0218,-0.294045 0.027,-0.308434 0.17022,-0.463528 0.0812,-0.08804 0.18608,-0.239433 0.23291,-0.33644 0.11286,-0.233778 0.13806,-0.658903 0.0581,-0.980737 -0.11553,-0.465278 -0.52647,-1.143805 -1.01929,-1.683035 -0.0971,-0.106279 -0.17661,-0.201596 -0.17661,-0.211818 0,-0.01022 0.17545,-0.116357 0.38988,-0.235859 0.69904,-0.389565 1.11193,-0.771497 1.33951,-1.239069 0.101,-0.207514 0.13389,-0.33039 0.1666,-0.622466 0.052,-0.464691 0.0439,-0.749772 -0.0273,-0.949301 -0.0534,-0.149788 -0.0527,-0.1665 0.0137,-0.302339 0.0387,-0.07908 0.078,-0.170143 0.0874,-0.20235 0.0117,-0.0404 0.0758,-0.06614 0.20639,-0.08301 0.68065,-0.08794 1.10209,-0.32718 1.34973,-0.766218 0.0648,-0.114922 0.094,-0.130503 0.35313,-0.188751 0.39182,-0.08807 0.77835,-0.294176 1.12791,-0.601436 l 0.29392,-0.258344 -0.0766,-0.06313 c -0.0422,-0.03472 -0.0704,-0.06847 -0.0627,-0.075 0.007,-0.0065 0.13397,-0.04729 0.2807,-0.0906 0.38313,-0.113086 0.80669,-0.328065 1.02318,-0.519314 0.13971,-0.123428 0.22431,-0.241956 0.33305,-0.466584 0.13452,-0.277922 0.14104,-0.304564 0.0847,-0.345739 -0.0539,-0.03945 -0.0436,-0.04984 0.0898,-0.08979 0.2969,-0.08895 0.78276,-0.320417 1.09058,-0.519549 0.31232,-0.202059 1.04232,-0.904155 1.04232,-1.002496 0,-0.02502 -0.0411,-0.05583 -0.0916,-0.06847 -0.0838,-0.02105 -0.0696,-0.03488 0.16896,-0.164017 0.61671,-0.333809 1.14939,-0.812478 1.58552,-1.424726 0.12227,-0.171648 0.2223,-0.326594 0.2223,-0.344329 0,-0.01774 -0.0342,-0.03736 -0.076,-0.04361 -0.0624,-0.0093 -0.0388,-0.03692 0.13131,-0.153644 0.25558,-0.175367 0.76226,-0.671762 0.98741,-0.967354 0.24849,-0.326219 0.45202,-0.687729 0.65845,-1.169504 0.10122,-0.236235 0.18405,-0.440316 0.18405,-0.453512 0,-0.01318 -0.0653,-0.02399 -0.14504,-0.02399 h -0.14504 l 0.15817,-0.180825 c 0.18661,-0.213311 0.42019,-0.610821 0.55689,-0.947717 0.1142,-0.281427 0.27261,-0.869877 0.3077,-1.143036 0.0226,-0.176121 0.0193,-0.189242 -0.0428,-0.170981 -0.037,0.01088 -0.14504,0.03076 -0.23998,0.04418 l -0.17262,0.0244 0.19909,-0.244684 c 0.48166,-0.591913 0.79347,-1.584231 0.7619,-2.424686 l -0.0111,-0.29482 -0.33791,0.164833 c -1.15129,0.561599 -2.29597,1.01239 -3.48581,1.372749 -0.62863,0.190391 -1.56506,0.425258 -1.56506,0.392536 0,-0.01093 0.0896,-0.178083 0.19906,-0.371446 0.10949,-0.193362 0.19099,-0.359648 0.18111,-0.369521 -0.01,-0.0099 -0.30354,0.08557 -0.65257,0.212102 -0.77602,0.281314 -0.87938,0.313946 -1.41715,0.447382 -0.65397,0.162271 -1.55545,0.338147 -2.84556,0.55517 -1.47137,0.247513 -2.00581,0.382325 -2.52728,0.637506 -0.85551,0.418651 -1.37693,0.909868 -2.3814,2.243503 -0.2505,0.332575 -0.53659,0.700719 -0.63578,0.818099 -0.22389,0.26495 -0.70332,0.764744 -0.73359,0.764744 -0.0124,0 -0.0597,-0.09203 -0.10522,-0.204525 -0.0977,-0.241487 -0.41353,-0.731721 -0.56279,-0.873659 l -0.10518,-0.100021 0.0692,-0.255675 c 0.0917,-0.33913 0.0977,-0.888588 0.0129,-1.178622 -0.2573,-0.879786 -0.99211,-1.475861 -1.93375,-1.568648 -0.14092,-0.01389 -0.25622,-0.01589 -0.25622,-0.0045 0,0.01145 0.0403,0.08029 0.0897,0.152996 0.13248,0.195222 0.20726,0.487426 0.18353,0.717228 -0.0227,0.220703 -0.15828,0.522947 -0.28988,0.646577 l -0.0893,0.08391 -0.33109,-0.05914 c -0.18209,-0.03252 -0.58242,-0.07799 -0.88961,-0.101042 -0.62008,-0.04653 -1.40054,-0.0073 -2.00668,0.101042 l -0.33108,0.05914 -0.0893,-0.08391 c -0.12694,-0.11925 -0.26372,-0.416952 -0.28878,-0.628509 -0.0272,-0.230158 0.036,-0.494557 0.16846,-0.7033 0.057,-0.08993 0.10368,-0.173018 0.10368,-0.184646 0,-0.01163 -0.1153,-0.0098 -0.25622,0.0041 -0.94386,0.09301 -1.67648,0.687354 -1.9336,1.568648 -0.0825,0.282808 -0.0773,0.837079 0.011,1.171934 l 0.0656,0.248986 -0.20589,0.245276 c -0.11325,0.134901 -0.28204,0.399006 -0.3751,0.586897 -0.0931,0.187891 -0.17359,0.348657 -0.17892,0.35726 -0.0161,0.02594 -0.3524,-0.315416 -0.64619,-0.655891 -0.15192,-0.176068 -0.48077,-0.592231 -0.73077,-0.924808 -0.95073,-1.264696 -1.5022,-1.795297 -2.28261,-2.196241 -0.56947,-0.292569 -1.09219,-0.431011 -2.50923,-0.664552 -2.15858,-0.355757 -3.23287,-0.603697 -4.3142,-0.995696 -0.38653,-0.140122 -0.70963,-0.247914 -0.71802,-0.239536 -0.008,0.0084 0.0736,0.173006 0.18229,0.365839 0.10864,0.192834 0.19753,0.360863 0.19753,0.3734 0,0.03217 -0.62774,-0.118517 -1.29829,-0.311658 -1.1315,-0.3259 -2.17683,-0.71897 -3.27241,-1.23051 -0.33257,-0.155284 -0.6567,-0.305225 -0.72028,-0.333205 l -0.1156,-0.05087 1.5e-4,0.329494 c 4e-4,0.892373 0.29907,1.820279 0.76953,2.390641 l 0.20094,0.243612 -0.1834,-0.02433 c -0.10087,-0.01338 -0.20963,-0.03439 -0.24168,-0.04669 -0.0514,-0.01971 -0.0553,6.16e-4 -0.0335,0.170238 0.094,0.731512 0.43932,1.575553 0.8431,2.06075 l 0.17699,0.212669 h -0.14358 c -0.079,0 -0.14356,0.0078 -0.14356,0.01736 0,0.04822 0.27653,0.679717 0.41941,0.957755 0.30326,0.590145 0.90838,1.294157 1.40766,1.637681 0.18112,0.124626 0.19615,0.143826 0.13131,0.167809 -0.0403,0.0149 -0.0732,0.03553 -0.0732,0.04584 0,0.01032 0.11834,0.183056 0.26297,0.38386 0.42693,0.592722 0.92662,1.034538 1.55685,1.376503 0.24076,0.13064 0.25067,0.140694 0.16096,0.163209 -0.0526,0.01321 -0.0956,0.03787 -0.0956,0.05484 0,0.06175 0.5694,0.654836 0.82374,0.858029 0.27293,0.218032 0.80457,0.49827 1.21077,0.638217 0.21545,0.07423 0.23325,0.0876 0.1861,0.139703 -0.0822,0.09077 0.17778,0.582581 0.42189,0.798257 0.21464,0.18964 0.63917,0.404793 1.02116,0.517542 0.14672,0.04331 0.27361,0.08464 0.28196,0.09186 0.008,0.0073 -0.0139,0.03436 -0.0493,0.06031 -0.0356,0.02596 -0.0583,0.06395 -0.0507,0.08442 0.0361,0.09736 0.63742,0.564342 0.86482,0.671568 0.23749,0.111977 0.60881,0.227596 0.73097,0.227596 0.0304,0 0.10761,0.08737 0.1715,0.194166 0.23983,0.400985 0.6601,0.6287 1.3169,0.71356 0.13064,0.01688 0.19454,0.04259 0.20629,0.08301 0.009,0.03221 0.0492,0.119476 0.0886,0.193927 0.0689,0.130379 0.0694,0.141986 0.0118,0.315107 -0.0728,0.219362 -0.0798,0.467497 -0.0266,0.944957 0.0325,0.290652 0.0658,0.415966 0.16554,0.622467 0.22142,0.458339 0.66414,0.867264 1.33905,1.236844 0.18585,0.101772 0.35148,0.197759 0.36806,0.213309 0.0166,0.01555 -0.0926,0.169963 -0.24253,0.343142 -0.69914,0.807293 -1.00517,1.466297 -0.97223,2.093715 0.0177,0.338428 0.10872,0.556846 0.33313,0.799947 0.14316,0.155095 0.14845,0.169483 0.17021,0.463528 0.0241,0.325057 0.0944,0.60579 0.20906,0.834759 0.19646,0.392179 0.61892,0.781352 1.04565,0.963265 0.19476,0.08302 0.2228,0.10819 0.26579,0.238439 0.0684,0.207011 0.27444,0.510985 0.49107,0.724187 0.27248,0.268187 0.73148,0.494655 1.14371,0.5643 0.13067,0.02208 0.20618,0.07199 0.43611,0.288299 0.30176,0.283874 0.68696,0.500365 1.07368,0.603433 0.11737,0.03129 0.41219,0.06573 0.65515,0.07652 l 0.44175,0.01965 0.27295,0.185859 c 0.61928,0.421681 1.39418,0.59938 2.02789,0.465028 z"
         id="path4-5" /><path
         style="fill:#ff0000;fill-opacity:1;stroke-width:0.840223"
         d="m 135.92448,81.393654 c 0.36305,-0.07696 0.78393,-0.254691 1.09286,-0.461468 l 0.28309,-0.189481 0.44093,-0.01969 c 0.75421,-0.03367 1.26119,-0.234119 1.73921,-0.687643 0.20832,-0.197638 0.29795,-0.258469 0.40906,-0.277606 0.21297,-0.03667 0.47384,-0.125567 0.69924,-0.238259 0.38313,-0.191549 0.83024,-0.686036 0.95091,-1.051679 0.0414,-0.125596 0.072,-0.154287 0.23733,-0.222806 0.2765,-0.114607 0.66919,-0.403147 0.8362,-0.614438 0.27973,-0.353881 0.41081,-0.705619 0.44744,-1.200674 0.0218,-0.294045 0.027,-0.308434 0.17022,-0.463528 0.0812,-0.08804 0.18608,-0.239433 0.23291,-0.33644 0.11286,-0.233778 0.13806,-0.658903 0.0581,-0.980737 -0.11553,-0.465278 -0.52647,-1.143805 -1.01929,-1.683035 -0.0971,-0.106279 -0.17661,-0.201596 -0.17661,-0.211818 0,-0.01022 0.17545,-0.116357 0.38988,-0.235859 0.69904,-0.389565 1.11193,-0.771497 1.33951,-1.239069 0.101,-0.207514 0.13389,-0.33039 0.1666,-0.622466 0.052,-0.464691 0.0439,-0.749772 -0.0273,-0.949301 -0.0534,-0.149788 -0.0527,-0.1665 0.0137,-0.302339 0.0387,-0.07908 0.078,-0.170143 0.0874,-0.20235 0.0117,-0.0404 0.0758,-0.06614 0.20639,-0.08301 0.68065,-0.08794 1.10209,-0.32718 1.34973,-0.766218 0.0648,-0.114922 0.094,-0.130503 0.35313,-0.188751 0.39182,-0.08807 0.77835,-0.294176 1.12791,-0.601436 l 0.29392,-0.258344 -0.0766,-0.06313 c -0.0422,-0.03472 -0.0704,-0.06847 -0.0627,-0.075 0.007,-0.0065 0.13397,-0.04729 0.2807,-0.0906 0.38313,-0.113086 0.80669,-0.328065 1.02318,-0.519314 0.13971,-0.123428 0.22431,-0.241956 0.33305,-0.466584 0.13452,-0.277922 0.14104,-0.304564 0.0847,-0.345739 -0.0539,-0.03945 -0.0436,-0.04984 0.0898,-0.08979 0.2969,-0.08895 0.78276,-0.320417 1.09058,-0.519549 0.31232,-0.202059 1.04232,-0.904155 1.04232,-1.002496 0,-0.02502 -0.0411,-0.05583 -0.0916,-0.06847 -0.0838,-0.02105 -0.0696,-0.03488 0.16896,-0.164017 0.61671,-0.333809 1.14939,-0.812478 1.58552,-1.424726 0.12227,-0.171648 0.2223,-0.326594 0.2223,-0.344329 0,-0.01774 -0.0342,-0.03736 -0.076,-0.04361 -0.0624,-0.0093 -0.0388,-0.03692 0.13131,-0.153644 0.25558,-0.175367 0.76226,-0.671762 0.98741,-0.967354 0.24849,-0.326219 0.45202,-0.687729 0.65845,-1.169504 0.10122,-0.236235 0.18405,-0.440316 0.18405,-0.453512 0,-0.01318 -0.0653,-0.02399 -0.14504,-0.02399 h -0.14504 l 0.15817,-0.180825 c 0.18661,-0.213311 0.42019,-0.610821 0.55689,-0.947717 0.1142,-0.281427 0.27261,-0.869877 0.3077,-1.143036 0.0226,-0.176121 0.0193,-0.189242 -0.0428,-0.170981 -0.037,0.01088 -0.14504,0.03076 -0.23998,0.04418 l -0.17262,0.0244 0.19909,-0.244684 c 0.48166,-0.591913 0.79347,-1.584231 0.7619,-2.424686 l -0.0111,-0.29482 -0.33791,0.164833 c -1.15129,0.561599 -2.29597,1.01239 -3.48581,1.372749 -0.62863,0.190391 -1.56506,0.425258 -1.56506,0.392536 0,-0.01093 0.0896,-0.178083 0.19906,-0.371446 0.10949,-0.193362 0.19099,-0.359648 0.18111,-0.369521 -0.01,-0.0099 -0.30354,0.08557 -0.65257,0.212102 -0.77602,0.281314 -0.87938,0.313946 -1.41715,0.447382 -0.65397,0.162271 -1.55545,0.338147 -2.84556,0.55517 -1.47137,0.247513 -2.00581,0.382325 -2.52728,0.637506 -0.85551,0.418651 -1.37693,0.909868 -2.3814,2.243503 -0.2505,0.332575 -0.53659,0.700719 -0.63578,0.818099 -0.22389,0.26495 -0.70332,0.764744 -0.73359,0.764744 -0.0124,0 -0.0597,-0.09203 -0.10522,-0.204525 -0.0977,-0.241487 -0.41353,-0.731721 -0.56279,-0.873659 l -0.10518,-0.100021 0.0692,-0.255675 c 0.0917,-0.33913 0.0977,-0.888588 0.0129,-1.178622 -0.2573,-0.879786 -0.99211,-1.475861 -1.93375,-1.568648 -0.14092,-0.01389 -0.25622,-0.01589 -0.25622,-0.0045 0,0.01145 0.0403,0.08029 0.0897,0.152996 0.13248,0.195222 0.20726,0.487426 0.18353,0.717228 -0.0227,0.220703 -0.15828,0.522947 -0.28988,0.646577 l -0.0893,0.08391 -0.33109,-0.05914 c -0.18209,-0.03252 -0.58242,-0.07799 -0.88961,-0.101042 -0.62008,-0.04653 -1.40054,-0.0073 -2.00668,0.101042 l -0.33108,0.05914 -0.0893,-0.08391 c -0.12694,-0.11925 -0.26372,-0.416952 -0.28878,-0.628509 -0.0272,-0.230158 0.036,-0.494557 0.16846,-0.7033 0.057,-0.08993 0.10368,-0.173018 0.10368,-0.184646 0,-0.01163 -0.1153,-0.0098 -0.25622,0.0041 -0.94386,0.09301 -1.67648,0.687354 -1.9336,1.568648 -0.0825,0.282808 -0.0773,0.837079 0.011,1.171934 l 0.0656,0.248986 -0.20589,0.245276 c -0.11325,0.134901 -0.28204,0.399006 -0.3751,0.586897 -0.0931,0.187891 -0.17359,0.348657 -0.17892,0.35726 -0.0161,0.02594 -0.3524,-0.315416 -0.64619,-0.655891 -0.15192,-0.176068 -0.48077,-0.592231 -0.73077,-0.924808 -0.95073,-1.264696 -1.5022,-1.795297 -2.28261,-2.196241 -0.56947,-0.292569 -1.09219,-0.431011 -2.50923,-0.664552 -2.15858,-0.355757 -3.23287,-0.603697 -4.3142,-0.995696 -0.38653,-0.140122 -0.70963,-0.247914 -0.71802,-0.239536 -0.008,0.0084 0.0736,0.173006 0.18229,0.365839 0.10864,0.192834 0.19753,0.360863 0.19753,0.3734 0,0.03217 -0.62774,-0.118517 -1.29829,-0.311658 -1.1315,-0.3259 -2.17683,-0.71897 -3.27241,-1.23051 -0.33257,-0.155284 -0.6567,-0.305225 -0.72028,-0.333205 l -0.1156,-0.05087 1.5e-4,0.329494 c 4e-4,0.892373 0.29907,1.820279 0.76953,2.390641 l 0.20094,0.243612 -0.1834,-0.02433 c -0.10087,-0.01338 -0.20963,-0.03439 -0.24168,-0.04669 -0.0514,-0.01971 -0.0553,6.16e-4 -0.0335,0.170238 0.094,0.731512 0.43932,1.575553 0.8431,2.06075 l 0.17699,0.212669 h -0.14358 c -0.079,0 -0.14356,0.0078 -0.14356,0.01736 0,0.04822 0.27653,0.679717 0.41941,0.957755 0.30326,0.590145 0.90838,1.294157 1.40766,1.637681 0.18112,0.124626 0.19615,0.143826 0.13131,0.167809 -0.0403,0.0149 -0.0732,0.03553 -0.0732,0.04584 0,0.01032 0.11834,0.183056 0.26297,0.38386 0.42693,0.592722 0.92662,1.034538 1.55685,1.376503 0.24076,0.13064 0.25067,0.140694 0.16096,0.163209 -0.0526,0.01321 -0.0956,0.03787 -0.0956,0.05484 0,0.06175 0.5694,0.654836 0.82374,0.858029 0.27293,0.218032 0.80457,0.49827 1.21077,0.638217 0.21545,0.07423 0.23325,0.0876 0.1861,0.139703 -0.0822,0.09077 0.17778,0.582581 0.42189,0.798257 0.21464,0.18964 0.63917,0.404793 1.02116,0.517542 0.14672,0.04331 0.27361,0.08464 0.28196,0.09186 0.008,0.0073 -0.0139,0.03436 -0.0493,0.06031 -0.0356,0.02596 -0.0583,0.06395 -0.0507,0.08442 0.0361,0.09736 0.63742,0.564342 0.86482,0.671568 0.23749,0.111977 0.60881,0.227596 0.73097,0.227596 0.0304,0 0.10761,0.08737 0.1715,0.194166 0.23983,0.400985 0.6601,0.6287 1.3169,0.71356 0.13064,0.01688 0.19454,0.04259 0.20629,0.08301 0.009,0.03221 0.0492,0.119476 0.0886,0.193927 0.0689,0.130379 0.0694,0.141986 0.0118,0.315107 -0.0728,0.219362 -0.0798,0.467497 -0.0266,0.944957 0.0325,0.290652 0.0658,0.415966 0.16554,0.622467 0.22142,0.458339 0.66414,0.867264 1.33905,1.236844 0.18585,0.101772 0.35148,0.197759 0.36806,0.213309 0.0166,0.01555 -0.0926,0.169963 -0.24253,0.343142 -0.69914,0.807293 -1.00517,1.466297 -0.97223,2.093715 0.0177,0.338428 0.10872,0.556846 0.33313,0.799947 0.14316,0.155095 0.14845,0.169483 0.17021,0.463528 0.0241,0.325057 0.0944,0.60579 0.20906,0.834759 0.19646,0.392179 0.61892,0.781352 1.04565,0.963265 0.19476,0.08302 0.2228,0.10819 0.26579,0.238439 0.0684,0.207011 0.27444,0.510985 0.49107,0.724187 0.27248,0.268187 0.73148,0.494655 1.14371,0.5643 0.13067,0.02208 0.20618,0.07199 0.43611,0.288299 0.30176,0.283874 0.68696,0.500365 1.07368,0.603433 0.11737,0.03129 0.41219,0.06573 0.65515,0.07652 l 0.44175,0.01965 0.27295,0.185859 c 0.61928,0.421681 1.39418,0.59938 2.02789,0.465028 z"
         id="path4" /><path
         style="fill:#ffcc00;fill-opacity:1;stroke-width:0.527145"
         d="m 133.39801,60.189981 1.67105,1.381402 0.31193,-0.200526 0.49017,0.200526 1.7379,-1.537366 c 0,0 0.20053,0.401052 0.17825,0.579297 -0.0223,0.178246 -0.26737,0.779824 -0.26737,0.779824 l -1.3814,0.289649 0.37876,0.557017 -0.0891,0.913508 -0.93579,1.024912 -1.1586,-1.515087 0.4679,-0.891228 -0.20052,-0.289649 -1.04719,0.08912 -0.33421,-0.557017 -0.0668,-0.467894 z"
         id="path65" /><path
         style="fill:#ffcc00;fill-opacity:1;stroke-width:0.527145"
         d="m 128.11749,68.879448 2.20578,-0.557017 c 0,0 0.8021,0.401052 0.84667,0.490175 0.0446,0.08912 1.35913,1.893859 1.35913,1.893859 l 5.03543,1.069472 1.49281,-1.403683 1.02491,-1.982981 2.13894,-0.378771 1.18088,1.470525 0.2228,0.534736 -0.17824,1.114035 -0.37877,0.289648 -0.42334,-0.445614 -1.55964,1.336842 0.6907,1.31456 -0.22281,0.401053 -1.62649,0.133684 -2.20579,-1.693333 -4.87947,-0.557016 -1.69333,2.205788 -2.00526,0.02228 -0.13369,-0.757544 0.91351,-0.958069 -1.4928,-1.247718 -0.75755,0.08912 -0.44561,-0.623859 v -0.913508 z"
         id="path66" /><path
         style="fill:#ffffff;fill-opacity:1;stroke-width:0.527145"
         d="m 131.41502,64.022259 -1.15859,2.384033 0.8021,2.25035 3.14159,2.896488 3.98824,-0.467894 2.05121,-2.826096 -0.1128,-1.630041 -0.0668,-1.737893 -0.91351,-1.60421 -0.93868,4.478418 c 0,0 -5.01026,0.155965 -5.0771,0 -0.0668,-0.155965 -1.27,-3.074735 -1.27,-3.074735 z"
         id="path68"
         sodipodi:nodetypes="ccccccccccscc" /><path
         style="fill:#ffffff;fill-opacity:1;stroke-width:0.527145"
         d="m 131.98497,60.037441 c -0.12604,0.173303 -0.69321,0.91378 -0.69321,0.91378 l 0.0315,1.433689 1.22888,1.33916 2.94615,1.244631 2.63105,-1.024063 1.1501,-1.528218 0.36236,-0.929535 -0.78773,-1.685766 -0.28359,0.283587 0.063,1.685765 -2.78861,2.426243 -1.08707,-0.03151 -2.42625,-2.174165 0.0157,-1.654257 z"
         id="path69" /><g
         id="g65"
         transform="matrix(0.20189455,0,0,0.20189455,84.557851,68.70558)"
         style="fill:#000000"><path
           id="path5"
           style="fill:#000000;stroke-width:4.1617"
           d="m 249.35382,59.797935 c -1.61737,-0.42374 -3.38871,-1.34877 -4.58245,-2.393 l -0.92519,-0.80935 -2.50647,-0.0467 c -2.7044,-0.0504 -3.61851,-0.24633 -5.44146,-1.16636 -1.05462,-0.53225 -2.91394,-2.13509 -3.28841,-2.834796 -0.18728,-0.349624 -0.48288,-0.464458 -1.84014,-0.714447 -3.5893,-0.661128 -5.87657,-2.491535 -6.8961,-5.51864 l -0.39953,-1.186875 -1.113,-0.403019 c -1.59156,-0.576296 -3.40535,-1.874363 -4.23191,-3.028611 -1.16465,-1.626447 -1.45726,-2.62962 -1.46092,-5.008998 l -0.003,-2.060732 -0.50664,-0.209875 c -0.68165,-0.282329 -1.62257,-1.412506 -1.8736,-2.250447 -0.95515,-3.188021 1.36217,-7.489301 6.99732,-12.987868 l 1.51906,-1.482227 -0.52854,-0.444087 c -0.2909,-0.24425 -1.20244,-0.919157 -2.02608,-1.499802 -1.93486,-1.364027 -2.10902,-1.516815 -2.87865,-2.525045 -0.50602,-0.662951 -0.66937,-0.783032 -0.75643,-0.55612 -0.11944,0.311462 0.0125,1.746195 0.20476,2.245287 0.10862,0.280707 0.0375,0.27717 -0.89822,-0.04482 -1.96358,-0.675569 -3.66055,-2.090177 -4.44062,-3.701699 -0.38204,-0.788917 -0.78581,-3.3927275 -0.7938,-5.1171825 -0.004,-0.812934 0.66957,-2.576858 1.21272,-3.177067 0.24179,-0.267181 0.20517,-0.323572 -0.40452,-0.621404 -0.89431,-0.436841 -1.22346,-1.127271 -0.94425,-1.98066097 0.11445,-0.350457 0.2497,-0.736309 0.29964,-0.857435 0.0687,-0.166052 -0.27675,-0.220238 -1.4054,-0.220238 -1.81941,0 -3.87371,-0.37234703 -4.90373,-0.88884303 -0.84916,-0.425796 -1.73314,-1.185028 -1.73314,-1.488553 0,-0.108537 0.53427,-0.589197 1.18729,-1.068154 l 1.18725,-0.870828 -2.64073,-0.113281 c -1.71191,-0.07341 -2.98156,-0.219821 -3.60973,-0.416212 -1.06997,-0.334518 -2.68093,-1.127854 -3.31792,-1.633975 l -0.41076,-0.326527 1.37994,-1.038694 1.37998,-1.038694 -0.52854,-0.127431 c -0.2909,-0.07008 -1.361,-0.2540715 -2.37841,-0.4088455 -3.68377,-0.560377 -6.65015,-1.766808 -7.93595,-3.227531 -0.38329,-0.435406 -0.69683,-0.852675 -0.69683,-0.927265 0,-0.07458 0.73038,-0.596463 1.62302,-1.159712 1.86182,-1.174764 2.03145,-0.953037 -1.32667,-1.73423 -2.45981,-0.572234 -5.13404,-1.623346 -6.90605,-2.714465 -1.42962,-0.880308 -3.08011,-2.216131 -3.08011,-2.4929 0,-0.08382 0.91749,-0.441295 2.03881,-0.794423 1.12137,-0.35312 2.00769,-0.673188 1.96965,-0.711243 -0.0375,-0.03787 -0.82356,-0.260564 -1.7455,-0.494427 -4.23861,-1.075208 -7.55107,-2.93399 -10.29184,-5.775279 -0.68531,-0.710427 -1.30082,-1.384947 -1.36778,-1.498928 -0.0828,-0.141248 0.20142,-0.272716 0.89368,-0.412882 0.55846,-0.113115 1.40033,-0.285867 1.87081,-0.383917 l 0.85544,-0.178287 -1.58465,-0.679169 c -2.82243,-1.209702 -4.91572,-2.606394 -7.06233,-4.712123 -1.90244,-1.866227 -3.94487,-4.73043 -4.59734,-6.447057 l -0.19477,-0.511989 2.25235,0.106831 c 2.14915,0.101962 2.23371,0.09314 1.84505,-0.192728 -3.49845,-2.573105 -5.11927,-4.396096 -6.69797,-7.533489 -0.70973,-1.410496 -1.43936,-3.364856 -1.43936,-3.855379 0,-0.194018 0.13026,-0.241087 0.4845,-0.174999 2.70885,0.505605 5.15323,0.865051 5.15323,0.757787 0,-0.07279 -0.17854,-0.25686 -0.39619,-0.409054 -1.50205,-1.048581 -4.17011,-4.197561 -5.38021,-6.349947 -1.25284,-2.228486 -2.82238,-6.875407 -2.44845,-7.249303 0.0653,-0.0653 0.73358,0.164845 1.48514,0.511415 6.05811,2.7935 13.09633,5.258878 19.42478,6.804168 2.70307,0.660045 7.21626,1.496997 7.35023,1.363061 0.0541,-0.05414 -0.0953,-0.35824 -0.33169,-0.675786 -0.4145,-0.556381 -1.20448,-1.854578 -1.20448,-1.979633 0,-0.03329 0.37664,0.05976 0.83684,0.207128 3.88191,1.242704 9.76306,2.511561 18.19046,3.924583 2.95539,0.495534 6.22274,1.095589 7.26079,1.333459 6.8892,1.57867 10.33854,4.282277 16.99455,13.320429 1.76165,2.392112 4.29334,5.259045 5.97616,6.767503 1.37386,1.231501 3.07042,2.540232 3.29303,2.540232 0.0416,0 0.11736,-0.614421 0.16897,-1.365384 0.16022,-2.333811 1.26582,-4.514808 3.42554,-6.757657 l 1.12082,-1.163981 -0.33876,-0.789845 c -0.85523,-1.995228 -1.01412,-4.763637 -0.38121,-6.64247 0.52184,-1.549039 1.32758,-2.740916 2.69279,-3.983142 0.96485,-0.877894 2.95085,-2.210333 2.95085,-1.979733 0,0.03579 -0.17105,0.416994 -0.37996,0.84701 -0.28009,0.576137 -0.38038,1.11325 -0.38163,2.041388 -0.003,2.145582 1.10406,3.830355 3.22232,4.903774 l 0.88773,0.44985 1.77538,-0.361776 c 2.35382,-0.479678 3.92761,-0.613651 7.20874,-0.613651 3.28008,0 4.85491,0.133965 7.2056,0.613018 l 1.77227,0.361153 0.84045,-0.393364 c 1.09124,-0.510749 2.4388,-1.863731 2.90624,-2.917893 0.51318,-1.15729 0.50764,-3.012863 -0.0125,-4.082482 -0.20892,-0.430016 -0.37997,-0.811174 -0.37997,-0.84701 0,-0.03579 0.40743,0.157437 0.90526,0.429491 0.4979,0.272051 1.52422,1.091697 2.28069,1.821414 3.05594,2.947899 3.66879,6.557508 1.85358,10.917659 -0.0724,0.174084 0.22556,0.5932 0.87308,1.228163 2.06878,2.028401 3.39949,4.616745 3.55763,6.920101 0.0516,0.750963 0.13235,1.365383 0.17979,1.365383 0.17313,0 1.92104,-1.316213 3.01969,-2.274132 1.77092,-1.544137 4.14147,-4.266538 7.02041,-8.062516 4.01134,-5.28901 5.73112,-7.125556 8.49857,-9.075483 3.17392,-2.23631 5.60344,-2.975382 14.95765,-4.550224 8.43593,-1.420234 15.0773,-2.842216 18.04779,-3.864222 0.54839,-0.18865 0.99706,-0.312169 0.99706,-0.274506 0,0.155565 -0.80645,1.45665 -1.29258,2.085449 l -0.52221,0.67544 0.86335,-0.120647 c 7.37753,-1.030866 17.77633,-4.264578 26.19008,-8.144311 0.75156,-0.346545 1.41456,-0.582026 1.47328,-0.523275 0.18644,0.18661 -0.46952,2.798227 -1.11608,4.442307 -1.21435,3.087832 -2.96892,5.664499 -5.48275,8.051542 -0.8879,0.843114 -1.61433,1.561224 -1.61433,1.595795 0,0.05148 3.18129,-0.459202 5.15323,-0.827255 0.35,-0.0653 0.48446,-0.01831 0.48446,0.168716 0,0.48058 -0.74028,2.453118 -1.45326,3.872225 -1.61616,3.216869 -3.18179,4.977814 -6.68453,7.518415 -0.3862,0.280083 -0.29215,0.289904 1.84534,0.193187 l 2.25219,-0.101921 -0.17188,0.452003 c -0.8561,2.251675 -3.57594,5.792417 -5.92222,7.709625 -1.15629,0.944848 -3.62114,2.580021 -4.31231,2.860786 -0.14525,0.05905 -0.88666,0.382877 -1.64737,0.719612 l -1.38306,0.612261 1.03073,0.208835 c 2.80066,0.567402 2.71185,0.537516 2.54176,0.855325 -0.32753,0.611612 -3.31858,3.320042 -4.59419,4.159773 -0.72671,0.478421 -2.07448,1.206843 -2.99501,1.618723 -1.58943,0.711159 -4.46338,1.643151 -5.08485,1.648961 -0.15856,0.0015 -0.39785,0.07191 -0.53145,0.15648 -0.16646,0.105333 0.40286,0.357157 1.80585,0.798938 1.12674,0.354827 2.04864,0.711223 2.04864,0.791989 0,0.437245 -2.77232,2.449198 -4.74542,3.443882 -1.26258,0.636498 -4.71625,1.753087 -6.26573,2.025745 -2.10765,0.370891 -2.10229,0.345504 -0.3138,1.479351 1.83444,1.162921 1.86569,1.275586 0.66151,2.385549 -1.47091,1.355857 -4.18438,2.400015 -7.57113,2.913424 -1.06586,0.161598 -2.17491,0.3511215 -2.46448,0.4212425 l -0.52654,0.127473 1.39151,1.029076 1.3915,1.029072 -0.42453,0.336556 c -0.64065,0.507907 -1.90968,1.136665 -3.17084,1.571051 -0.88079,0.303388 -1.70934,0.412632 -3.76139,0.495962 l -2.63182,0.106872 1.17835,0.864144 c 0.64806,0.475275 1.1783,0.955947 1.1783,1.068155 0,0.356574 -0.93605,1.115918 -1.93798,1.57207 -1.17797,0.536305 -2.76899,0.80890503 -4.7316,0.81067803 -1.33449,0.0012 -1.46005,0.03038 -1.34119,0.309631 0.47514,1.116796 0.50972,1.62182197 0.14482,2.11217497 -0.19934,0.267556 -0.59192,0.562562 -0.87275,0.655568 -0.69421,0.229975 -0.69275,0.227645 -0.37081,0.583349 0.55938,0.618092 1.23495,2.372652 1.23112,3.197385 -0.008,1.563472 -0.40743,4.2921285 -0.73929,5.0426455 -0.68838,1.556288 -2.52348,3.097895 -4.49513,3.776235 -0.93551,0.321866 -1.00663,0.325445 -0.89439,0.04482 0.067,-0.167675 0.16438,-0.749839 0.21599,-1.293715 0.1082,-1.138254 -0.15065,-1.488719 -0.54277,-0.73464 -0.39037,0.750596 -1.43316,1.712032 -3.09556,2.853732 -0.83021,0.570182 -1.74425,1.239933 -2.03115,1.488332 l -0.52172,0.451641 2.23667,2.252741 c 2.51337,2.531495 3.8797,4.221758 5.00702,6.194187 2.13899,3.742447 1.92092,6.903604 -0.56736,8.224939 l -0.64461,0.3423 0.11029,1.145163 c 0.40202,4.172054 -1.71096,7.433729 -5.76779,8.902676 l -1.06094,0.384167 -0.39952,1.186875 c -1.01933,3.026542 -3.30747,4.857636 -6.89611,5.518639 -1.35721,0.249994 -1.65302,0.364857 -1.84013,0.714448 -0.37456,0.699708 -2.2338,2.302548 -3.28841,2.834798 -1.81613,0.91658 -2.73828,1.11464 -5.44579,1.16967 l -2.51088,0.051 -0.92082,0.80552 c -2.68513,2.34887 -6.69106,3.29277 -10.13982,2.38919 z m 4.99574,-3.10875 c 1.61757,-0.54622 3.11083,-1.68907 4.13998,-3.16848 l 0.50848,-0.730896 0.75256,0.182365 c 1.32129,0.320201 4.14767,0.224691 5.26384,-0.177829 1.848,-0.666455 3.70425,-2.176295 4.57042,-3.717431 l 0.38288,-0.681328 1.61012,-0.09023 c 1.05628,-0.05918 1.96807,-0.226521 2.65079,-0.486428 1.68857,-0.642866 3.1137,-2.329403 3.3714,-3.989743 0.0578,-0.372264 0.13317,-0.835399 0.1673,-1.029192 0.0333,-0.193811 0.0683,-0.411842 0.0757,-0.484493 0.008,-0.07266 0.51443,-0.132134 1.1267,-0.132134 2.41037,0 4.30686,-1.028689 5.20312,-2.822311 1.06802,-2.137225 1.16028,-1.842402 -2.20499,-7.044848 l -2.96617,-4.585461 -0.96897,0.126058 c -1.22071,0.15881 -1.50029,0.15931 -2.41295,0.0042 l -0.73925,-0.125558 3.5965,5.752361 c 1.97806,3.163795 3.56009,5.811227 3.5156,5.883179 -0.0445,0.07196 -0.64552,0.269179 -1.33566,0.438331 -1.22154,0.299351 -3.11703,0.293899 -3.90313,-0.01124 -0.38121,-0.147948 -0.87317,-0.851554 -7.44878,-10.652096 -7.07539,-10.545358 -6.84562,-10.20754 -6.90318,-10.149997 -0.0291,0.02788 2.8471,5.897917 6.38892,13.04438 4.79299,9.670905 6.39191,13.051209 6.25266,13.218988 -0.10279,0.123977 -0.68143,0.449443 -1.28563,0.723245 -1.28085,0.580437 -2.92975,0.754754 -4.08354,0.431706 l -0.76896,-0.215285 -2.45836,-5.39934 c -7.74734,-17.015595 -9.08819,-19.931757 -9.14072,-19.879273 -0.0333,0.03163 1.09724,3.22354 2.50901,7.092715 1.41177,3.86917 3.67582,10.078731 5.0312,13.799021 l 2.46431,6.764161 -0.83313,0.845853 c -1.26445,1.283727 -2.24861,1.655242 -4.38909,1.656798 -2.23921,0.0016 -3.53924,-0.390242 -3.68265,-1.110092 -0.052,-0.260813 -0.8132,-4.240052 -1.69169,-8.842718 -2.05359,-10.759527 -3.61689,-18.944993 -4.09657,-21.449754 -0.20892,-1.090103 -0.42478,-1.98201 -0.48001,-1.98201 -0.0554,0 -0.39911,1.56579 -0.76392,3.479531 -1.38023,7.237901 -5.41795,28.340602 -5.50955,28.794951 -0.14524,0.719916 -1.44536,1.111724 -3.68381,1.110092 -2.14103,-0.0016 -3.12465,-0.373055 -4.39056,-1.658304 l -0.83463,-0.84736 2.24191,-6.146028 c 2.15884,-5.918354 2.69708,-7.392824 6.22524,-17.054399 0.88166,-2.414364 1.57558,-4.417208 1.54199,-4.450759 -0.0333,-0.03371 -1.31372,2.695004 -2.84481,6.063456 -1.53109,3.368447 -3.23984,7.115459 -3.79713,8.326688 -1.31298,2.853483 -1.92279,4.18953 -3.59863,7.884246 l -1.37856,3.039331 -0.71873,0.193519 c -1.12124,0.301932 -2.87011,0.125975 -3.98578,-0.400938 -1.86136,-0.879134 -2.12222,0.100588 2.43255,-9.135348 2.22077,-4.503135 5.15885,-10.427187 6.529,-13.164562 1.3702,-2.737375 2.45736,-4.977048 2.41595,-4.977048 -0.0811,0 -0.24637,0.243709 -7.293,10.746901 -6.74678,10.056183 -6.84608,10.195163 -7.39547,10.349046 -1.20069,0.336348 -4.12682,0.06713 -4.93257,-0.453784 -0.16855,-0.10887 0.71019,-1.641017 3.38496,-5.903076 l 3.61236,-5.756065 -0.74228,0.126016 c -0.9172,0.155731 -1.19645,0.155149 -2.41595,-0.005 l -0.96901,-0.127306 -2.29031,3.532197 c -4.14035,6.385368 -3.69151,5.531554 -3.45713,6.576432 0.61381,2.736584 2.74856,4.346434 5.7635,4.346434 h 1.09727 l 0.20559,1.219857 c 0.5215,3.091906 2.92809,4.946397 6.41888,4.946397 h 1.27036 l 0.39578,0.70431 c 0.49695,0.884182 1.84838,2.281793 2.76096,2.855317 1.4394,0.904637 2.67639,1.241053 4.57187,1.243421 0.96897,0.0012 2.09825,-0.07945 2.50947,-0.179203 l 0.74769,-0.181409 0.61755,0.841313 c 1.64812,2.24518 3.62264,3.31083 6.18013,3.33539 0.8951,0.009 1.74383,-0.095 2.29031,-0.27955 z m -4.2446,-3.00883 c -1.61998,-0.579205 -2.90328,-1.632257 -2.90328,-2.38237 0,-0.486357 0.34542,-2.563637 2.8357,-17.042667 0.57489,-3.34299 1.25958,-7.366472 1.52147,-8.941068 0.26177,-1.574596 0.51847,-2.862542 0.57007,-2.862101 0.10862,9.24e-4 4.95234,28.256876 4.94418,28.842581 -0.008,0.556486 -1.12857,1.604531 -2.28048,2.132435 -1.30753,0.59919 -3.40336,0.7124 -4.68766,0.25319 z M 218.35035,29.630629 c 0.15357,-1.090108 0.3962,-2.318954 0.53865,-2.730771 0.14233,-0.4118 0.18978,-0.748761 0.10446,-0.748761 -0.21599,0 -1.19108,1.356195 -1.58369,2.202235 -0.44859,0.966696 -0.43515,2.203271 0.0291,2.795098 0.20101,0.25532 0.42487,0.464208 0.49782,0.464208 0.0728,0 0.25845,-0.891906 0.41243,-1.982009 z m 68.47875,1.517801 c 0.4408,-0.56039 0.48571,-1.725067 0.10196,-2.6436 -0.30131,-0.72143 -1.45897,-2.353733 -1.66914,-2.353733 -0.0774,0 -0.025,0.336932 0.11861,0.748761 0.14233,0.4118 0.38496,1.640663 0.53865,2.730771 0.15357,1.090103 0.33918,1.982009 0.41243,1.982009 0.0728,0 0.29714,-0.208875 0.49782,-0.464208 z m -57.3236,-7.860616 c 0.16148,-0.735697 -0.0749,-1.81046 -0.55338,-2.515635 -0.23389,-0.344756 -0.42537,-0.663987 -0.42537,-0.709433 0,-0.172419 1.33499,0.484439 1.73864,0.855446 0.23222,0.213412 0.60269,0.772695 0.82339,1.242888 0.34917,0.743591 0.42395,0.812405 0.57527,0.528536 0.41201,-0.773032 0.57939,-1.998919 0.63965,-4.685667 0.0762,-3.388398 0.46466,-5.020892 1.51249,-6.352823 0.2135,-0.271593 0.35333,-0.528928 0.31046,-0.571897 -0.17312,-0.173085 -1.7971,1.169837 -2.34274,1.937259 -0.32045,0.450799 -0.62035,0.756231 -0.66629,0.678736 -0.24845,-0.419096 -0.35541,-2.18625 -0.3758,-6.2190625 -0.0208,-4.199972 -0.0483,-4.556255 -0.41368,-5.470609 -0.38329,-0.958257 -1.15637,-1.86759297 -1.92187,-2.26011197 -0.51488,-0.264018 -2.67543,-0.246955 -3.22681,0.02539 -0.44809,0.22136 -1.40953,1.88096697 -1.40953,2.43289597 0,0.252907 0.0982,0.280124 0.60078,0.166718 l 0.60079,-0.135505 -0.67058,0.638546 c -0.7712,0.734382 -1.13581,1.802824 -0.95532,2.799339 0.15607,0.861842 0.76663,2.507936 0.93014,2.507936 0.0703,0 0.22765,-0.275088 0.34917,-0.611299 0.12152,-0.336224 0.49145,-0.934947 0.82193,-1.330512 0.67312,-0.805668 0.92174,-1.710322 0.62334,-2.267923 -0.10903,-0.204007 -0.13026,-0.370891 -0.047,-0.370891 0.27134,0 0.89406,0.780981 1.19237,1.494904 l 0.29131,0.697297 0.28134,-0.523521 c 0.42257,-0.786545 0.37538,-2.327906 -0.0953,-3.12602 -0.47185,-0.7997 -0.33501,-0.828133 0.53453,-0.111242 0.99111,0.816954 1.41011,1.763782 1.32163,2.98669 -0.0911,1.257524 -0.35874,1.666003 -1.89761,2.893784 -1.44094,1.149711 -1.63663,1.449404 -1.76194,2.6984475 l -0.0936,0.932187 -0.96896,-0.491742 c -0.70025,-0.355368 -1.11559,-0.721173 -1.49751,-1.3190265 -0.2909,-0.455003 -0.63374,-0.831587 -0.76234,-0.836847 -0.41958,-0.01706 -1.2344,0.976239 -1.363,1.6618175 -0.0687,0.36702 -0.0416,1.032904 0.0608,1.479721 0.10238,0.446817 0.15607,0.842258 0.11944,0.878756 -0.12277,0.122687 -1.57308,-0.531608 -2.15105,-0.970409 -0.31504,-0.23909 -0.57261,-0.349291 -0.57261,-0.244916 0,0.303388 1.42268,1.642344 2.5805,2.428589 1.53629,1.043297 2.93575,2.375366 3.60965,3.435838 0.32253,0.507528 0.62742,0.942916 0.67765,0.967524 0.0504,0.02456 0.36873,0.214869 0.70791,0.422808 l 0.6166,0.378049 -0.70167,0.198597 c -0.61589,0.174333 -0.76662,0.329357 -1.23323,1.268207 -0.72997,1.468768 -1.22138,2.0947 -1.84838,2.354407 -0.29299,0.121439 -0.53307,0.280707 -0.53307,0.353911 0,0.07321 0.3912,0.301432 0.8695,0.507162 2.33638,1.005084 4.39779,-0.239173 3.47173,-2.095483 -0.3088,-0.619311 -0.22348,-0.645205 0.55796,-0.16884 0.67108,0.409136 1.25688,1.549992 1.26433,2.462203 l 0.004,0.616623 0.34625,-0.52509 c 0.19019,-0.288822 0.39453,-0.746385 0.45413,-1.016854 z m 46.49148,-0.641131 c 0.25386,-0.491068 1.18808,-1.249837 1.54104,-1.251747 0.067,-3.63e-4 0.008,0.217365 -0.1311,0.48383 -0.97991,1.878451 1.06007,3.167283 3.41189,2.155574 0.50261,-0.216242 0.91387,-0.45303 0.91387,-0.526243 0,-0.0732 -0.23972,-0.232472 -0.53312,-0.353952 -0.61164,-0.253323 -1.09486,-0.873903 -1.84529,-2.369798 -0.46262,-0.922045 -0.61652,-1.07835 -1.23328,-1.252476 l -0.7047,-0.198971 0.61664,-0.378048 c 0.33917,-0.207919 0.65625,-0.398192 0.7047,-0.422804 0.0483,-0.02455 0.37663,-0.486237 0.72933,-1.025839 0.68502,-1.048028 2.16097,-2.410278 4.04056,-3.729312 1.02673,-0.720552 1.69893,-1.409526 2.1938,-2.24865 0.0857,-0.145326 -0.11736,-0.03537 -0.45159,0.244791 -0.55708,0.466822 -1.92757,1.164631 -2.28735,1.164631 -0.0828,0 -0.10571,-0.27617 -0.0508,-0.613713 0.1415,-0.871685 -0.22889,-1.612251 -1.10951,-2.218066 l -0.76159,-0.5239955 -0.57881,0.6301235 c -0.31837,0.346586 -0.91574,0.780618 -1.32754,0.964557 l -0.74877,0.334434 v -0.957266 c 0,-0.8954195 -0.0491,-1.0058585 -0.76184,-1.7091275 -0.419,-0.413506 -1.14251,-1.063372 -1.60779,-1.444122 -0.46528,-0.380754 -0.9549,-0.95298 -1.08804,-1.271637 -0.56907,-1.361933 -0.10695,-3.146632 1.0336,-3.989972 1.0011,-0.740379 1.09973,-0.744016 0.65485,-0.02414 -0.51152,0.827638 -0.57594,2.333295 -0.13484,3.154128 l 0.28133,0.523521 0.29132,-0.697293 c 0.47381,-1.134022 1.51785,-2.069484 1.11321,-0.997443 -0.25469,0.675153 -0.0749,1.266909 0.64815,2.132455 0.3346,0.400481 0.70782,1.003207 0.82938,1.339423 0.12152,0.336224 0.27883,0.6113 0.34917,0.6113 0.19477,0 0.82622,-1.799407 0.92094,-2.62374 0.12319,-1.073274 -0.19019,-1.961252 -0.94733,-2.683535 l -0.66941,-0.638547 0.60079,0.135505 c 0.76616,0.172794 0.78831,-0.09871 0.11652,-1.42545697 -0.58854,-1.161939 -1.00967,-1.391011 -2.56335,-1.394378 -1.37407,-0.003 -1.94364,0.232806 -2.73237,1.13108 -1.0202,1.16196297 -1.15949,1.96940397 -1.18725,6.88245297 -0.0208,3.9522215 -0.13151,5.7117635 -0.37996,6.1309765 -0.0462,0.07749 -0.34584,-0.227937 -0.66633,-0.67874 -0.54564,-0.767422 -2.16962,-2.110353 -2.34271,-1.937255 -0.0429,0.04295 0.0916,0.294149 0.29965,0.558188 1.05399,1.33993 1.61507,3.840038 1.57682,7.026086 -0.025,1.986176 0.15565,3.218285 0.58614,4.026108 0.15148,0.28387 0.22639,0.215035 0.57527,-0.528536 0.47006,-1.001438 0.99369,-1.525662 1.90377,-1.905921 0.59446,-0.24837 0.94029,-0.113032 0.46374,0.18145 -0.32795,0.202633 -0.85457,1.539471 -0.85869,2.179316 -0.002,0.33277 0.17271,0.967021 0.38829,1.409431 l 0.39203,0.804381 0.11819,-0.8099 c 0.0649,-0.445443 0.24929,-1.063373 0.40952,-1.373174 z M 215.05783,7.3602325 c -0.0558,-0.221568 -0.27343,-0.56361 -0.48455,-0.760088 -0.46103,-0.429534 -0.19768,-0.457475 0.82818,-0.0879 0.38745,0.139625 0.72451,0.25507 0.74873,0.256527 0.025,0.0015 0.0441,-0.22261 0.0441,-0.497885 0,-0.455099 0.29715,-1.600453 0.60973,-2.350458 0.14691,-0.351955 -0.67423,-0.848758 -1.40253,-0.848758 -1.09374,0 -2.29306,1.130422 -2.88889,2.722938 -0.4547,1.215283 -0.46016,1.381389 -0.0416,1.248323 0.30047,-0.09534 0.31712,-0.03787 0.1906,0.648797 -0.22848,1.237689 0.12527,2.3844635 1.03414,3.3558785 l 0.457,0.488338 0.50277,-1.8864365 c 0.27634,-1.037541 0.45729,-2.067724 0.40161,-2.289297 z m 75.5036,3.7716375 c 0.89606,-1.043009 1.26433,-2.2545935 1.04567,-3.4401205 -0.12651,-0.686759 -0.10987,-0.744141 0.19061,-0.648796 0.41975,0.133216 0.41409,-0.03288 -0.0441,-1.256929 -0.82609,-2.208011 -2.76224,-3.315132 -4.06702,-2.325579 -0.28216,0.214077 -0.28008,0.286533 0.0375,1.196859 0.18644,0.532939 0.34126,1.22664 0.34459,1.54156 0.003,0.314916 0.025,0.571389 0.0499,0.569928 0.025,-0.0015 0.36123,-0.116902 0.74877,-0.256527 1.08899,-0.392323 1.27469,-0.335766 0.73766,0.224774 -0.26052,0.271759 -0.47514,0.608715 -0.47726,0.74876 -0.004,0.312586 0.94728,4.0424685 1.03185,4.0424685 0.0333,0 0.21391,-0.17837 0.40119,-0.396402 z M 244.20646,9.0138345 c -0.85436,-2.829348 -2.4527,-5.027126 -4.78234,-6.575861 -0.67398,-0.448061 -2.33829,-1.317407 -3.69842,-1.93188197 -2.86129,-1.292637 -3.99889,-1.98019103 -4.75424,-2.87340503 -0.4776,-0.564759 -0.52666,-0.58789 -0.42145,-0.198721 0.0653,0.242253 0.32003,0.863208 0.56549,1.37992 0.44022,0.92640303 1.10663,1.65703103 4.38048,4.802457 0.97479,0.936553 1.83618,1.960893 2.25934,2.686727 0.37622,0.645193 0.72327,1.173079 0.77146,1.173079 0.18394,0 -0.17271,-1.884821 -0.4947,-2.613597 l -0.33752,-0.763722 1.00976,0.568609 c 2.21989,1.250079 4.22612,3.19105 5.30641,5.133773 0.60149,1.0817685 0.67312,0.7936955 0.1956,-0.787389 z m 17.57615,-1.336563 c 0.86921,-1.017444 2.56714,-2.352593 3.95524,-3.110168 l 0.83022,-0.453097 -0.32836,0.75614 c -0.31005,0.714256 -0.66654,2.606015 -0.49092,2.606015 0.045,0 0.38912,-0.530005 0.7653,-1.177795 0.41534,-0.715637 1.26436,-1.735312 2.16325,-2.598632 3.48813,-3.35019797 4.02686,-3.94363597 4.57413,-5.038845 0.7253,-1.451439 0.70832,-1.82268 -0.0437,-0.950312 -0.75136,0.871859 -1.95883,1.59873403 -4.52077,2.72143103 -5.0727,2.22298497 -7.37916,4.50505397 -8.60711,8.51618397 -0.52729,1.7224285 -0.45978,1.9160925 0.25428,0.729983 0.34334,-0.570107 0.99494,-1.470516 1.44806,-2.000904 z m 24.30816,0.591694 c 0.6322,-1.199756 0.65459,-2.548967 0.0583,-3.508322 -0.31462,-0.506225 -0.41916,-0.904221 -0.39328,-1.497517 0.0766,-1.754964 -1.32263,-3.01029097 -3.35574,-3.01029097 -0.56088,0 -1.01975,0.02705 -1.01975,0.06051 0,0.03329 0.15191,0.502413 0.33793,1.04252197 0.18562,0.540106 0.39204,1.414479 0.45796,1.943048 l 0.12027,0.961033 0.64319,-0.14824 c 0.35375,-0.08153 0.77325,-0.108454 0.93218,-0.05984 0.24096,0.07366 0.20434,0.173168 -0.22015,0.597632 -0.4381,0.438065 -0.50927,0.644652 -0.50927,1.478095 0,0.872621 0.0874,1.097082 0.87966,2.259828 0.48384,0.710036 0.88074,1.409897 0.88207,1.555244 0.003,0.3142095 0.53432,-0.43523 1.18692,-1.673698 z m -66.05826,-0.586713 c 0.51223,-1.033883 0.92848,-2.061773 0.92494,-2.284199 -0.003,-0.222443 -0.19768,-0.595822 -0.43173,-0.829768 -0.39911,-0.399024 -0.40494,-0.431864 -0.0941,-0.530479 0.18229,-0.05781 0.60337,-0.02996 0.93597,0.06184 l 0.60478,0.166968 0.11528,-0.923898 c 0.10695,-0.854363 0.40285,-2.000271 0.72521,-2.80733297 0.12527,-0.313709 0.0574,-0.328608 -1.11421,-0.24475 -0.76325,0.0546 -1.47561,0.220071 -1.83456,0.426163 -0.7762,0.44558497 -1.40761,1.68164697 -1.35251,2.64762397 0.025,0.403268 -0.0429,0.839302 -0.14691,0.968985 -0.77624,0.970242 -0.96568,2.310805 -0.48837,3.456708 0.29506,0.70853 0.99385,1.805783 1.1366,1.784837 0.0483,-0.0071 0.50719,-0.858829 1.01941,-1.892716 z m 13.99959,-13.26182 c -0.72077,-1.513182 -1.25983,-3.5125 -1.39642,-5.1787615 l -0.10113,-1.233253 0.91616,0.968985 c 0.5039,0.53294 0.85627,0.810421 0.78307,0.616623 -1.30732,-3.461648 -1.82528,-6.117467 -1.84231,-9.446581 -0.0125,-2.372349 -0.0787,-2.37274 -0.69891,-0.0041 -0.19061,0.728235 -0.43948,2.238054 -0.55272,3.355146 l -0.206,2.031076 -0.36665,-0.502762 c -0.97088,-1.330945 -0.93542,-1.33926 -0.77461,0.181658 0.29423,2.783495 1.3034,5.7777505 2.64883,7.8598285 0.80925,1.252351 1.88072,2.603909 2.06429,2.603909 0.0674,0 -0.14566,-0.56329 -0.4736,-1.251756 z m 36.63503,0.282538 c 2.21557,-2.828812 3.50819,-6.1594905 3.89669,-10.0403475 0.097,-0.96978 0.11777,-0.978561 -0.86164,0.364191 l -0.36665,0.502758 -0.20559,-2.019873 c -0.17604,-1.729374 -0.92564,-5.176722 -1.181,-5.432076 -0.045,-0.04511 -0.082,0.892934 -0.082,2.084525 0,3.343452 -0.42603,5.531029 -1.83681,9.431899 -0.0699,0.19381 0.28466,-0.08369 0.7881,-0.616627 l 0.91554,-0.968981 -0.11487,1.344595 c -0.14441,1.6854925 -0.65085,3.5340615 -1.39899,5.1047205 -0.31796,0.667949 -0.51839,1.214455 -0.44497,1.214455 0.0737,0 0.4751,-0.43615 0.8926,-0.969222 z m -17.71798,-1.170678 c 2.69433,-1.185643 5.19289,-3.8475535 6.68561,-7.1226705 l 0.47576,-1.043879 0.34043,1.057071 c 0.18728,0.58139 0.38704,1.647647 0.44459,2.369465 L 261,-9.8953335 l 0.70304,-0.7838515 c 1.72806,-1.92676 3.14425,-4.689454 3.65301,-7.126288 l 0.22057,-1.057072 0.3217,0.704713 c 0.17688,0.387579 0.32378,0.883096 0.32628,1.101119 0.008,0.589813 0.23264,0.486104 0.86805,-0.398441 0.81557,-1.13564 1.7152,-3.172543 1.93931,-4.390764 0.21807,-1.186089 0.26052,-3.976405 0.0603,-3.974349 -0.0728,7.45e-4 -0.31296,0.317912 -0.53386,0.704829 -0.89909,1.57438 -3.24101,2.90493 -8.67149,4.926667 -3.5138,1.308172 -5.6813,2.300372 -6.99506,3.202092 l -0.74075,0.50841 -0.93297,-0.595943 c -1.60799,-1.02715 -3.28666,-1.790888 -6.83492,-3.109694 -5.43102,-2.018587 -7.86932,-3.417001 -8.72351,-5.003129 -0.18811,-0.349001 -0.41409,-0.634589 -0.50203,-0.634589 -0.29797,0 0.002,4.060109 0.37789,5.117655 0.57294,1.611211 1.96678,4.043633 2.31715,4.043633 0.0574,0 0.20267,-0.412091 0.32211,-0.915798 0.31754,-1.337687 0.50644,-1.389139 0.74869,-0.204173 0.48905,2.391962 1.91834,5.177771 3.64332,7.101076 l 0.703,0.7838555 0.10446,-1.3123915 c 0.0574,-0.721814 0.25761,-1.788071 0.44463,-2.36946 l 0.34043,-1.057072 0.47577,1.043879 c 1.47082,3.227116 4.03481,5.9751155 6.66583,7.1443075 0.41035,0.182366 0.75589,0.337181 0.76779,0.344048 0.0125,0.0067 0.40827,-0.157687 0.88091,-0.365689 z m -45.29957,-7.2742605 c 3.37069,-0.910189 7.78272,-3.257384 11.91404,-6.33827 3.03317,-2.261934 3.01053,-2.217791 1.13722,-2.217791 -1.49209,0 -1.54732,0.0154 -2.44404,0.673983 -1.45772,1.070931 -6.27614,4.223872 -9.71037,6.354018 -1.73543,1.076411 -3.00392,1.956911 -2.81889,1.956665 0.1852,-2.41e-4 1.04996,-0.193103 1.92204,-0.428605 z m 89.49874,-0.649587 c -3.55709,-2.176865 -7.1093,-4.468127 -9.55888,-6.165764 l -2.5118,-1.74071 h -1.51785 c -1.82591,0 -1.83431,-0.02331 0.67182,1.874409 4.39006,3.324629 8.72551,5.675165 12.30012,6.668672 2.47438,0.687721 2.58837,0.570048 0.61659,-0.636607 z m -100.54651,-0.786216 c 3.55334,-0.730703 8.91257,-3.360586 16.42124,-8.058205 1.69568,-1.060893 3.34134,-2.104185 3.65696,-2.318429 l 0.57386,-0.389536 -2.20458,-0.117859 -2.20462,-0.117859 -1.36428,0.770892 c -2.80557,1.585271 -7.192,3.868355 -13.43256,6.991441 -5.04818,2.526372 -6.35475,3.247811 -6.07816,3.356095 0.6116,0.239422 3.22032,0.173792 4.63214,-0.116528 z m 25.14208,-0.194227 c 1.22608,-0.379256 3.74278,-1.717009 4.58353,-2.436384 l 0.70183,-0.600488 -0.48892,-0.0067 c -0.26884,-0.0036 -0.93334,0.149614 -1.47657,0.340511 -0.98333,0.345629 -4.15479,2.146147 -4.99358,2.835029 l -0.44044,0.361735 0.6166,-0.110659 c 0.33918,-0.06084 1.01304,-0.233264 1.49755,-0.383127 z m 62.54341,0.191272 c -0.88187,-0.678178 -3.61615,-2.289668 -4.4926,-2.647749 -1.19911,-0.489919 -2.46647,-0.786212 -2.46647,-0.576624 0,0.520961 4.04604,2.769141 5.81389,3.230495 1.30736,0.341176 1.59476,0.339636 1.14518,-0.0062 z m 28.01215,0.119982 c 0.27634,-0.107788 -0.99627,-0.812706 -5.90196,-3.26942 -6.35733,-3.183684 -11.04078,-5.617446 -13.74172,-7.140912 -1.43708,-0.810603 -1.53305,-0.838686 -2.37841,-0.696206 -0.48447,0.08165 -1.43583,0.154857 -2.11415,0.162681 l -1.23323,0.01415 2.11414,1.37781 c 7.69219,5.013085 14.52758,8.507519 18.31781,9.364542 1.44798,0.327401 4.3012,0.435634 4.93752,0.187277 z m -119.53698,-6.93572 c 3.17059,-0.832244 10.49327,-3.740136 16.29656,-6.471456 l 1.93793,-0.912108 -0.7047,-0.360569 c -0.38745,-0.198305 -1.00442,-0.616348 -1.3707,-0.928979 l -0.66599,-0.568422 -2.15285,0.840002 c -5.86134,2.286954 -14.31546,5.135625 -20.12311,6.780617 -1.93798,0.548915 -3.55555,1.029638 -3.59467,1.068267 -0.12069,0.119024 1.18621,0.606351 2.33101,0.869366 1.74608,0.401188 5.94058,0.236052 8.04652,-0.316747 z m 126.66065,0.317496 c 0.68447,-0.143994 1.54191,-0.392947 1.90543,-0.553219 l 0.66096,-0.291443 -1.14513,-0.340636 c -0.62987,-0.187359 -2.37404,-0.697609 -3.87596,-1.133892 -5.59208,-1.624412 -13.35111,-4.277346 -19.14827,-6.547104 l -1.79474,-0.702678 -0.67178,0.573395 c -0.36956,0.315373 -0.9889,0.736754 -1.37652,0.93642 l -0.7047,0.363025 1.14517,0.52268 c 0.62983,0.28749 1.77938,0.818727 2.55458,1.180566 4.31011,2.011862 10.47433,4.477807 13.43093,5.372939 2.90199,0.878585 6.58664,1.131832 9.02003,0.619947 z m -73.36125,-1.591721 c -0.36831,-0.534991 -1.06877,-1.306632 -1.55623,-1.714758 l -0.88631,-0.742052 0.13109,0.525506 c 0.22723,0.909149 0.80895,1.65642 1.83856,2.360875 0.5478,0.374761 1.02898,0.650303 1.0693,0.612277 0.0416,-0.03787 -0.22806,-0.506857 -0.59654,-1.041848 z m 13.96937,-0.827712 c 0.19602,-0.317954 0.41534,-0.814561 0.48759,-1.103592 l 0.13109,-0.525506 -0.9249,0.774359 c -0.83205,0.696632 -2.12891,2.343421 -2.12891,2.703325 0,0.293774 2.09454,-1.296341 2.43501,-1.848586 z m -30.62387,0.831333 1.14488,-0.384791 -0.61635,-0.114738 c -0.75805,-0.141123 -2.31519,0.105083 -3.25902,0.515239 -0.67828,0.294773 -0.68822,0.310671 -0.26427,0.424327 0.61318,0.164387 1.64957,0.01207 2.99476,-0.440037 z m 48.76402,0.350665 c 0.0291,-0.02206 -0.23139,-0.173918 -0.57569,-0.337306 -0.82985,-0.39378 -2.49486,-0.655705 -3.26128,-0.513038 l -0.61543,0.114572 0.96776,0.337638 c 1.53488,0.535516 3.09044,0.713245 3.48464,0.39815 z m -36.61032,-2.297355 c -0.11278,-0.342383 -0.62384,-1.075096 -1.13518,-1.628228 -0.51135,-0.553135 -1.10527,-1.283181 -1.3198,-1.622326 l -0.38995,-0.616627 0.11944,0.880895 c 0.18727,1.381127 0.54809,2.036669 1.72394,3.131908 1.15986,1.080311 1.39504,1.046123 1.00172,-0.145618 z m 11.47922,0.31708 c 0.34376,-0.363358 0.8144,-0.938151 1.04621,-1.277296 0.23181,-0.339137 0.85099,-1.124001 1.37586,-1.744123 l 0.95436,-1.127496 -0.74124,0.416607 c -0.40785,0.229143 -1.2945,0.914883 -1.97069,1.523898 -0.67615,0.609011 -1.38605,1.107291 -1.57745,1.107291 -0.19144,0 -0.82697,-0.440262 -1.41227,-0.978362 -1.0706,-0.984225 -2.54626,-2.016677 -2.88236,-2.016677 -0.0995,0 -0.0166,0.114114 0.18104,0.253573 0.19893,0.139458 0.87079,0.907517 1.49268,1.706796 1.65381,2.125656 2.28061,2.796472 2.61292,2.796472 0.16272,0 0.57723,-0.297312 0.92086,-0.66067 z m 10.6654,-0.131967 c 1.0217,-0.893763 1.56151,-1.877913 1.73951,-3.171366 l 0.1211,-0.880894 -0.4828,0.704713 c -0.26551,0.387579 -0.82555,1.073103 -1.24439,1.523357 -0.93938,1.009837 -1.66085,2.616844 -1.17484,2.616844 0.0745,0 0.54289,-0.3567 1.04129,-0.792654 z m -37.19686,-1.239958 c 2.01925,-0.524645 2.25751,-0.639953 1.6638,-0.805206 -0.78335,-0.218031 -2.76774,-0.163596 -3.93905,0.108038 -1.15845,0.268679 -2.75396,0.87687 -2.75396,1.049805 0,0.0519 0.74449,0.09435 1.6544,0.09435 1.20165,0 2.12522,-0.122312 3.37481,-0.447004 z m 56.28096,0.352662 c 0,-0.172918 -1.59555,-0.781142 -2.75396,-1.049805 -1.19587,-0.277336 -3.18707,-0.325736 -3.94084,-0.0958 -0.53907,0.164471 -0.44306,0.212039 1.58561,0.785746 1.10938,0.313751 1.96553,0.427486 3.30335,0.438851 0.99319,0.0083 1.80584,-0.02705 1.80584,-0.07903 z m -46.15883,-2.729609 c 0,-0.510574 -0.2239,-1.565578 -0.52854,-2.489829 -0.2909,-0.88211 -0.52854,-1.807397 -0.52854,-2.056192 0,-0.335891 -0.0512,-0.401146 -0.19892,-0.253531 -0.24097,0.241129 -0.41826,2.43132 -0.26261,3.247425 0.13193,0.691313 1.09611,2.438145 1.34594,2.438145 0.0949,0 0.17271,-0.398691 0.17271,-0.885993 z m 31.96069,-0.180535 c 0.5049,-0.890104 0.54427,-1.083211 0.54427,-2.668474 0,-1.13224 -0.0745,-1.783251 -0.22016,-1.929156 -0.17604,-0.176165 -0.22015,-0.137544 -0.22015,0.193186 0,0.227396 -0.23805,1.155909 -0.52854,2.063396 -0.54202,1.692081 -0.71585,3.499362 -0.32419,3.368751 0.11236,-0.03746 0.44942,-0.499957 0.74873,-1.027707 z m -14.64436,-0.769098 c 0.9485,-0.812934 1.99895,-1.60829 2.33438,-1.767458 0.33544,-0.159185 0.60986,-0.321991 0.60986,-0.361777 0,-0.03995 -0.34209,-0.272924 -0.76043,-0.518023 -0.41821,-0.245083 -1.36865,-1.080881 -2.11206,-1.8573 -1.79652,-1.876299 -2.06429,-1.868404 -3.88961,0.114655 -0.54972,0.597224 -1.39342,1.338635 -1.87484,1.647579 -0.79235,0.508448 -0.99694,0.878211 -0.48592,0.878211 0.24137,0 1.64745,1.055536 3.14062,2.357761 0.62409,0.5443 1.17493,0.988466 1.22408,0.987039 0.0491,-0.0014 0.86543,-0.667728 1.81392,-1.480662 z m -3.21932,-2.514412 c -0.002,-0.212289 -0.0832,-0.435801 -0.18187,-0.496666 -0.23389,-0.144494 -0.0479,-0.438672 0.27759,-0.438672 0.28965,0 0.33793,0.654548 0.0778,1.057076 -0.139,0.214827 -0.17146,0.192062 -0.17354,-0.12173 z m 2.59074,0.0633 c -0.20101,-0.510832 -0.14816,-0.998621 0.10779,-0.998621 0.34167,0 0.49033,0.202717 0.31088,0.42424 -0.0857,0.105832 -0.18645,0.350956 -0.2239,0.544746 -0.0641,0.330439 -0.0762,0.33227 -0.19519,0.02955 z m -8.28212,2.311587 c -0.44035,-0.706282 -1.00546,-1.47635 -1.25575,-1.711262 -0.25012,-0.234928 -0.45508,-0.482137 -0.45508,-0.549386 0,-0.06725 0.32212,-0.165469 0.71573,-0.218281 0.84416,-0.11324 2.24116,-0.769045 3.30048,-1.549405 0.76816,-0.565896 0.90371,-0.885281 0.22057,-0.519647 -0.38621,0.206629 -3.01237,0.75902 -3.11599,0.655397 -0.0333,-0.03205 0.30588,-0.31504 0.75118,-0.628862 0.44522,-0.313834 0.78091,-0.599168 0.74595,-0.634114 -0.0333,-0.03496 -0.44393,0.0075 -0.90888,0.09439 -1.74283,0.325611 -3.51489,-0.470901 -4.39109,-1.973691 -0.42171,-0.723296 -0.78469,-2.043142 -0.88952,-3.234416 l -0.0466,-0.528536 -0.39536,0.616627 c -0.21766,0.339137 -0.4811,0.930348 -0.58597,1.31379 -0.16564,0.606298 -0.21433,0.654827 -0.37247,0.372348 -0.0999,-0.178662 -0.2239,-0.848683 -0.27509,-1.488961 l -0.0932,-1.16414 -0.34917,0.967978 c -0.5141,1.425774 -0.49653,3.979681 0.0375,5.284349 0.21766,0.532943 0.56783,1.246467 0.7782,1.585608 l 0.38246,0.616627 0.0882,-1.409431 0.0882,-1.409426 0.56112,1.184507 c 0.71032,1.499377 1.87372,2.75068 3.66716,3.944197 0.7752,0.515872 1.64729,1.131633 1.93798,1.368359 0.29091,0.236718 0.5585,0.400938 0.59508,0.364981 0.0375,-0.03621 -0.29381,-0.643311 -0.73412,-1.349593 z m 16.43556,-0.699948 c 0.53294,-0.340302 1.3389,-1.01667 1.79103,-1.503019 0.81873,-0.880736 1.73255,-2.437349 1.73255,-2.951257 0,-0.148573 0.0757,-0.270136 0.16855,-0.270136 0.0928,0 0.19186,0.614421 0.22016,1.365383 l 0.0516,1.365388 0.56965,-0.968986 c 0.85931,-1.461722 1.21014,-3.273123 0.96336,-4.97441 -0.10863,-0.74951 -0.30755,-1.572861 -0.44227,-1.829671 -0.23805,-0.454062 -0.2472,-0.437619 -0.34126,0.597034 -0.0533,0.585172 -0.17645,1.206926 -0.27425,1.381672 -0.15232,0.272383 -0.20518,0.218239 -0.36831,-0.379464 -0.10488,-0.383459 -0.36665,-0.974645 -0.58214,-1.313791 l -0.39162,-0.616626 -0.11153,0.970321 c -0.38912,3.388382 -2.46161,5.282264 -5.21719,4.76747 -0.46832,-0.08748 -0.87675,-0.133758 -0.90771,-0.102836 -0.0291,0.0308 0.15107,0.202758 0.40452,0.381836 1.33153,0.941023 1.32138,0.917688 0.35457,0.816625 -0.48363,-0.05056 -1.3146,-0.235302 -1.84663,-0.410551 -0.53203,-0.17525 -0.99161,-0.294357 -1.02132,-0.264684 -0.0291,0.02955 0.3525,0.352412 0.84944,0.717135 1.03739,0.761517 2.67752,1.48286 3.38551,1.488969 0.58293,0.005 0.61314,0.188068 0.10529,0.637548 -0.42462,0.37576 -2.08722,2.844526 -2.08722,3.099289 0,0.09014 0.45583,-0.18453 1.013,-0.610334 0.55717,-0.425813 1.44906,-1.052644 1.98201,-1.392955 z m -74.84269,1.357214 c 2.6746,-0.463551 6.31001,-1.34358 9.21617,-2.230971 2.25576,-0.688799 7.97269,-2.653192 9.30435,-3.197076 l 1.02403,-0.418222 -1.11296,-0.547905 c -0.61215,-0.301348 -1.3744,-0.78133 -1.69398,-1.066619 -0.5764,-0.514623 -0.58751,-0.516721 -1.40853,-0.265641 -6.37464,1.949324 -17.24247,4.327353 -24.43551,5.34684 -2.13174,0.30214 -4.07413,0.590758 -4.31639,0.641373 -0.43419,0.09073 -0.43169,0.09672 0.17604,0.422995 3.25337,1.746212 8.02592,2.220071 13.24661,1.315234 z m 140.98601,-0.06804 c 1.72685,-0.466951 3.91204,-1.448588 3.59013,-1.612779 -0.12693,-0.0648 -1.02378,-0.216201 -1.99275,-0.336432 -2.88585,-0.358114 -8.74436,-1.356336 -12.5087,-2.131323 -3.36115,-0.691983 -11.85331,-2.790154 -14.09426,-3.482307 l -1.05707,-0.326486 -0.88894,0.667595 c -0.48892,0.367187 -1.26849,0.835491 -1.73239,1.040696 -0.46391,0.205213 -0.81707,0.395236 -0.78477,0.42225 0.10112,0.08486 5.26937,1.969221 6.92964,2.526668 3.69301,1.239958 7.2094,2.212676 10.57072,2.924094 3.44085,0.728256 4.07655,0.791618 7.3995,0.737553 2.57543,-0.04191 3.43382,-0.122603 4.56889,-0.429525 z m -105.91083,-0.745707 c 0.94737,-0.291027 1.67925,-0.599205 1.62631,-0.684853 -0.14691,-0.237467 -1.85079,-0.835158 -2.77693,-0.974042 -0.61427,-0.0921 -1.14996,-0.02664 -2.10724,0.258067 -1.97839,0.588115 -3.67274,1.258373 -3.57615,1.414662 0.10404,0.16859 2.21336,0.681395 3.0854,0.750171 0.78498,0.06193 1.60213,-0.104625 3.74861,-0.763988 z m 66.55874,0.441952 c 0.52629,-0.154149 1.02283,-0.342965 1.1034,-0.419557 0.15856,-0.150696 -1.48919,-0.812348 -3.54419,-1.423244 -0.95728,-0.284577 -1.49297,-0.350165 -2.10724,-0.258067 -0.92901,0.139334 -2.63032,0.736854 -2.77793,0.975682 -0.0533,0.08656 0.75764,0.43121 1.80247,0.765915 2.19713,0.70381 3.95636,0.818232 5.52349,0.359238 z m -57.2848,-0.842257 c -0.0416,-0.03621 -1.10406,-0.878889 -2.36372,-1.873119 -3.90185,-3.079604 -6.60433,-6.001168 -11.12993,-12.032084 -2.17765,-2.901966 -4.2508,-5.591602 -4.60704,-5.976968 -0.35625,-0.385373 -1.28189,-1.119938 -2.05709,-1.632381 -3.28446,-2.171205 -5.34121,-2.822007 -13.30741,-4.210804 -5.21495,-0.909152 -7.86774,-1.478327 -10.88884,-2.336274 -1.19566,-0.339553 -2.20171,-0.589538 -2.23575,-0.555529 -0.0333,0.03413 0.33626,0.515834 0.82314,1.070718 0.49703,0.56667 0.77612,1.008884 0.6367,1.008884 -0.82697,0 -4.46867,-0.442114 -6.62892,-0.804765 -4.85791,-0.815514 -9.96665,-2.067699 -14.82198,-3.632952 -2.59083,-0.835224 -7.54949,-2.681737 -8.51771,-3.171836 -0.37289,-0.188691 -0.71806,-0.302764 -0.76734,-0.253447 -0.15939,0.159268 1.45006,2.102466 2.81356,3.397204 1.86236,1.768448 4.36779,3.419519 6.64765,4.380814 4.35714,1.837161 10.35935,3.336996 16.27034,4.065644 1.92641,0.237466 9.04608,0.612797 9.24775,0.487518 0.0333,-0.02039 -0.30921,-0.566308 -0.76117,-1.212691 -0.4518,-0.646378 -0.78078,-1.215899 -0.73109,-1.265593 0.0495,-0.04969 0.31296,0.06451 0.58501,0.253738 2.35382,1.637513 7.53951,3.565113 9.60146,3.569025 0.35749,6.82e-4 0.69205,0.06883 0.74311,0.151486 0.10987,0.177912 -2.28082,0.730653 -3.16018,0.730653 -0.33627,0 -0.61161,0.06064 -0.61161,0.134797 0,0.238424 2.86879,1.92576 4.07943,2.39937 1.34656,0.526797 3.35928,0.982723 4.43271,1.004106 l 0.73724,0.01457 -0.91491,0.432867 c -0.98049,0.463888 -2.92351,0.934393 -3.93001,0.951648 l -0.6166,0.0104 0.7928,0.703743 c 0.43602,0.387038 1.38518,0.998101 2.10919,1.357871 l 1.31643,0.654132 3.8748,-0.05269 c 2.13116,-0.02913 3.9065,-0.08436 3.9452,-0.123103 0.0375,-0.0387 -0.46527,-0.746397 -1.11999,-1.572586 -1.32625,-1.673553 -3.5526,-3.488974 -5.72118,-4.665224 -1.46479,-0.794519 -1.33274,-0.868414 0.82136,-0.459573 2.15085,0.408222 4.72307,1.298276 5.83221,2.018071 0.96197,0.62428 1.56396,1.242514 5.58537,5.735972 5.40043,6.034379 8.86792,9.040109 12.31397,10.674126 1.24315,0.589471 1.93008,0.844138 1.68304,0.623976 z m 43.96624,-0.617035 c 2.81356,-1.318489 5.11448,-3.119818 8.72584,-6.831223 1.30814,-1.344367 3.01203,-3.15695 3.78639,-4.027964 4.01896,-4.520452 4.65058,-5.141382 5.89539,-5.795497 0.67057,-0.352371 1.70334,-0.795351 2.29505,-0.984375 1.03585,-0.330939 4.50005,-1.058138 5.04057,-1.058138 0.14441,0 -0.39495,0.338721 -1.19816,0.75269 -1.96898,1.014631 -4.40332,2.983439 -5.68642,4.598991 -0.57997,0.730266 -1.07821,1.398893 -1.10718,1.485843 -0.0861,0.258692 6.83859,0.443929 7.7366,0.206962 0.99411,-0.262312 2.69271,-1.210277 3.58639,-2.001449 l 0.70474,-0.623885 -0.61664,-0.0104 c -1.00592,-0.01706 -2.94919,-0.487431 -3.93001,-0.951469 l -0.91491,-0.432867 0.7928,-0.0179 c 1.12732,-0.02539 2.93462,-0.436021 4.34157,-0.986797 1.17206,-0.458845 4.11501,-2.167048 4.11501,-2.388521 0,-0.06034 -0.45588,-0.157396 -1.013,-0.215701 -2.269,-0.237425 -3.69772,-0.82313 -2.01568,-0.826326 1.92387,-0.0037 6.24967,-1.543417 8.9998,-3.203478 0.61939,-0.373887 1.15221,-0.653757 1.18405,-0.62192 0.0333,0.03163 -0.2984,0.588727 -0.7335,1.23754 l -0.79135,1.179663 0.92864,0.01248 c 7.49581,0.100464 15.52277,-1.209224 22.42245,-3.658438 3.6278,-1.287788 6.46346,-2.95822 8.81939,-5.195342 1.27469,-1.210435 3.00983,-3.26331 2.87104,-3.396742 -0.0333,-0.03329 -0.93472,0.293566 -2.00062,0.725962 -9.12282,3.700818 -19.22143,6.260838 -27.73731,7.031485 l -1.31048,0.118608 0.90355,-1.030096 c 0.49694,-0.566553 0.87574,-1.057925 0.84174,-1.091934 -0.0333,-0.03413 -1.06111,0.22469 -2.2824,0.574893 -2.72342,0.780906 -5.90683,1.460291 -10.75999,2.296322 -8.02842,1.383008 -10.63107,2.240397 -13.93671,4.591171 -1.37981,0.981229 -2.04626,1.774624 -6.48238,7.717108 -3.01104,4.033474 -4.10794,5.351439 -6.15824,7.399508 -2.1382,2.135818 -4.4886,4.183749 -6.54427,5.702045 -0.77312,0.571011 -0.41492,0.489087 1.22824,-0.280915 z m -60.0719,-2.669368 c 0.58139,-0.218906 1.681,-0.617551 2.44354,-0.885885 l 1.38652,-0.487872 -0.94525,-0.539843 c -1.25704,-0.717923 -2.16434,-0.836256 -3.63712,-0.474367 -2.06116,0.50647 -4.35056,1.193126 -4.52664,1.357675 -0.24596,0.229893 0.59142,1.00538 1.41768,1.312725 0.91504,0.340386 2.51871,0.223068 3.86127,-0.282413 z m 78.78952,0.08465 c 0.87292,-0.434994 1.26345,-0.890325 0.98112,-1.143885 -0.44318,-0.398025 -5.47854,-1.627358 -6.24821,-1.525451 -0.77104,0.102087 -2.61055,0.913027 -2.61055,1.150843 0,0.09177 0.21807,0.220987 0.48451,0.287158 0.26634,0.06617 1.07908,0.361818 1.80584,0.656991 2.8491,1.157169 4.14947,1.290839 5.58729,0.574344 z m -59.41589,-2.14949 c 0.5682,-1.407121 0.8353,-2.552895 0.5749,-2.466095 -0.10488,0.03496 -0.50981,0.514973 -0.89997,1.066748 -0.62937,0.890088 -0.71643,1.137277 -0.77204,2.191877 l -0.0628,1.188652 0.35791,-0.440445 c 0.19685,-0.242253 0.55767,-0.935575 0.802,-1.540737 z m 36.49374,-0.694017 c -0.24179,-0.466606 -0.63915,-1.086213 -0.88336,-1.376908 -0.42661,-0.507748 -0.4443,-0.512725 -0.45042,-0.126557 -0.008,0.593546 0.65622,2.477527 1.19616,3.385881 l 0.47123,0.792804 0.0529,-0.913414 c 0.0416,-0.701268 -0.0491,-1.110454 -0.38662,-1.76179 z m -24.93665,-0.253448 c 0.9529,-0.409928 1.05066,-0.573666 0.51409,-0.86084 -0.27176,-0.145493 -0.4468,-0.126224 -0.7439,0.0819 -0.68036,0.476528 -2.23367,0.284369 -2.64177,-0.32686 -0.22681,-0.339802 -0.14649,-0.45812 0.3113,-0.45812 1.013,0 0.57157,-1.151925 -0.72218,-1.884605 -0.82198,-0.465519 -0.95049,-0.341842 -0.95436,0.918375 -0.008,2.356709 1.93881,3.518785 4.23698,2.530144 z m 15.61736,0.02788 c 0.75281,-0.459003 1.28509,-1.537916 1.28172,-2.597872 -0.004,-1.236166 -0.17646,-1.420163 -0.90733,-0.968394 -1.38152,0.853823 -1.78633,1.828938 -0.80621,1.942062 0.49899,0.0576 0.5702,0.157936 0.34792,0.49046 -0.40535,0.607384 -1.80876,0.787286 -2.6694,0.342259 -0.43485,-0.224857 -0.53761,-0.224857 -0.82809,1.29e-4 -0.32378,0.250659 -0.32337,0.262187 0.0208,0.476939 1.15796,0.723304 2.67082,0.856907 3.56051,0.314417 z m -10.21406,-0.490744 0.92777,-0.484493 1.00034,0.522514 c 0.64598,0.337431 1.0242,0.450991 1.06765,0.320618 0.0375,-0.111035 0.45125,-0.709067 0.92048,-1.328927 0.98974,-1.307436 2.33476,-2.501128 5.87661,-5.215531 1.40171,-1.074239 2.98403,-2.434361 3.51627,-3.022497 0.94924,-1.048944 2.11322,-3.093225 2.3551,-4.13616 0.11487,-0.496329 0.0504,-0.461266 -1.09677,0.593521 -0.67049,0.616556 -2.44796,1.93122 -3.94987,2.921472 -1.50192,0.990252 -3.19773,2.227758 -3.76842,2.750014 -0.85353,0.781031 -1.01388,0.872072 -0.90359,0.512967 0.19976,-0.650178 1.26104,-2.510379 1.8684,-3.274617 0.51151,-0.643653 0.51863,-0.675794 0.1777,-0.801902 -0.57107,-0.211248 -3.83193,-0.646387 -5.74256,-0.766294 -1.96749,-0.123477 -5.01506,0.106831 -7.22705,0.546115 l -1.46271,0.290487 0.80346,1.168185 c 0.68955,1.002641 1.63193,2.809398 1.63193,3.128854 0,0.05539 -0.45588,-0.317871 -1.013,-0.829531 -0.55717,-0.511652 -1.84551,-1.466737 -2.86292,-2.122409 -2.5604,-1.650035 -3.76018,-2.532145 -4.99163,-3.669991 -1.01866,-0.941281 -1.05237,-0.957416 -0.93513,-0.447916 0.24512,1.065171 1.42259,3.115616 2.40509,4.187832 0.55475,0.605457 1.99033,1.846413 3.19011,2.757684 3.4066,2.587396 4.86889,3.87282 5.98977,5.265309 0.57011,0.708259 1.03659,1.36232 1.03659,1.453474 0,0.25453 0.1827,0.205505 1.18638,-0.318745 z m 80.82476,-0.132967 c 2.78838,-0.579812 5.45873,-2.016868 7.66377,-4.124257 l 1.14517,-1.09444 -0.96897,0.09356 c -6.9579,0.671694 -16.82167,0.712009 -24.31265,0.09938 -3.43927,-0.281289 -8.74178,-0.836806 -9.08295,-0.951598 -0.10238,-0.03454 -0.49862,0.254155 -0.88087,0.641243 -0.38246,0.38708 -1.18816,0.988824 -1.79094,1.337188 -0.60279,0.348376 -1.05787,0.671457 -1.01134,0.717989 0.18977,0.18994 2.79616,0.935654 5.27849,1.510289 3.70908,0.858617 6.96349,1.382863 12.15633,1.95823 1.89757,0.21025 7.18663,0.344548 8.80895,0.223651 0.87208,-0.06496 2.21985,-0.250036 2.99501,-0.411219 z m -148.25434,0.178207 c 4.54308,-0.435946 8.18715,-0.987555 11.7159,-1.773438 1.93556,-0.431064 5.6828,-1.445425 5.96101,-1.61362 0.0807,-0.04894 -0.355,-0.3912 -0.96897,-0.760617 -0.61385,-0.369434 -1.42334,-0.988512 -1.79885,-1.375758 -0.37539,-0.387247 -0.77192,-0.673842 -0.88091,-0.636878 -0.10904,0.03704 -1.66485,0.226064 -3.45746,0.420228 -10.53788,1.14135 -20.25487,1.32141 -28.60366,0.530042 -0.95502,-0.09052 -1.86248,-0.164595 -2.01655,-0.164595 -0.40535,0 0.63911,1.040438 2.34354,2.33493 2.21386,1.681369 4.66035,2.702937 7.45481,3.112869 1.67271,0.245374 7.35422,0.204839 10.25114,-0.07316 z m 29.50255,-1.407662 c 0.868,-0.154981 1.61411,-0.317662 1.65793,-0.361526 0.15773,-0.157937 -0.55496,-0.771093 -1.30823,-1.125166 -1.15116,-0.541117 -2.42219,-0.618678 -5.94124,-0.362567 l -3.1884,0.232056 0.7531,0.668319 c 1.26669,1.12408 2.24087,1.407458 4.51066,1.312093 1.06589,-0.04478 2.64817,-0.208252 3.51618,-0.363234 z m 84.02348,0.07791 c 0.52858,-0.197764 1.2997,-0.660074 1.71354,-1.027336 l 0.75247,-0.667753 -3.18932,-0.23214 c -1.75407,-0.127681 -3.62126,-0.187526 -4.14921,-0.133049 -1.35509,0.139874 -3.45284,1.267341 -3.07009,1.650089 0.20268,0.202508 4.11697,0.734236 5.53465,0.751819 1.05986,0.01332 1.70397,-0.07824 2.40796,-0.34163 z m -62.08662,-2.967829 c 0.67028,-0.600949 0.61589,-0.691404 -0.17105,-0.284452 -0.49424,0.25557 -1.40977,1.289045 -1.40977,1.591343 0,0.08165 0.21807,-0.05556 0.48446,-0.304928 0.26635,-0.249369 0.75984,-0.700252 1.09636,-1.001946 z m 34.9917,0.601237 c -0.42474,-0.556865 -1.26674,-1.149774 -1.6328,-1.149774 -0.0753,0 0.33418,0.431935 0.91066,0.959851 0.57636,0.52792 1.0813,0.926477 1.12208,0.885688 0.0416,-0.04078 -0.139,-0.353869 -0.39994,-0.695765 z m -76.38893,-4.567541 c 3.36245,-0.430599 3.23947,-0.345338 1.82803,-1.267575 -1.17139,-0.765428 -2.09458,-1.622048 -2.63194,-2.442127 -0.25761,-0.392948 -0.28966,-0.395528 -6.37818,-0.503853 -10.86037,-0.19327 -20.03056,-1.315293 -27.85339,-3.408088 -0.37538,-0.100421 -0.39744,-0.07595 -0.22348,0.248828 0.40285,0.752985 1.99774,2.315034 3.23202,3.165777 3.36294,2.3179 7.2769,3.566673 13.08788,4.175763 3.84125,0.402644 4.17868,0.413964 10.74688,0.361318 4.20049,-0.03371 6.64803,-0.1323 8.19231,-0.330064 z m 132.48636,0.2445 c 1.40504,-0.09518 2.83208,-0.208252 3.17122,-0.251325 0.33918,-0.04307 1.05266,-0.128805 1.58561,-0.190523 1.59068,-0.184238 4.88933,-0.960038 6.50474,-1.529799 3.45163,-1.217373 6.41114,-3.192674 7.79324,-5.201539 0.56062,-0.814799 0.54164,-0.843231 -0.38121,-0.571622 -1.17914,0.347086 -5.21075,1.209511 -7.31024,1.563746 -6.42321,1.083753 -12.26599,1.585113 -19.99626,1.715853 -5.34021,0.09031 -6.10559,0.137794 -6.30406,0.391116 -0.70117,0.895057 -2.01855,2.101613 -2.92235,2.676544 -0.82031,0.52181 -0.96597,0.677957 -0.7047,0.755353 0.44122,0.130677 4.81717,0.627855 6.14325,0.697942 2.56989,0.135838 10.09038,0.102086 12.4206,-0.05577 z" /></g></g><rect
       style="fill:#141020;fill-rule:evenodd;stroke-width:0.264583;fill-opacity:1"
       id="rect5"
       width="66.94091"
       height="10.172394"
       x="101.99621"
       y="14.438235"
       ry="0" /><g
       id="g5"
       transform="translate(-1.5576674,1.0583333)"><g
         id="g4"
         transform="matrix(0.17710738,0,0,0.17710738,103.27173,35.723409)"><g
           id="g3"
           transform="matrix(0.42128678,0,0,0.42128678,85.196057,-67.370021)"><rect
             style="fill:#b9975b;fill-opacity:1;fill-rule:evenodd;stroke-width:0.39761"
             id="rect1"
             width="89.815903"
             height="102.89173"
             x="57.400463"
             y="-116.41348"
             ry="13.973755" /><rect
             style="fill:#ffffff;fill-rule:evenodd;stroke-width:0.278055"
             id="rect2"
             width="76.162071"
             height="97.387573"
             x="64.530525"
             y="-113.04613"
             ry="14.426363" /><path
             style="fill:#ff0000;stroke-width:0.546073"
             d="m 71.850721,-16.236112 c -3.23406,-0.42291 -6.163427,-2.64522 -7.514855,-5.701039 -0.844394,-1.90932 -0.799322,0.683559 -0.755957,-43.488948 l 0.03971,-40.454931 0.39578,-1.16717 c 1.04786,-3.09023 3.486777,-5.41038 6.683832,-6.35837 0.79078,-0.23448 1.84682,-0.26179 12.02812,-0.31101 9.757937,-0.0472 11.161217,-0.0272 11.161217,0.15885 0,0.15603 -0.17422,0.21281 -0.65305,0.21281 -1.25076,0 -2.61858,1.14873 -3.03934,2.55252 -0.69083,2.30484 -0.26694,5.54254 1.16305,8.88351 l 0.49964,1.16734 -0.32161,0.12565 c -0.17688,0.0691 -1.0693,0.40115 -1.98315,0.737837 -0.913837,0.3367 -1.986617,0.755863 -2.383947,0.931465 -0.39732,0.175615 -0.89666,0.361718 -1.10963,0.413556 -0.48132,0.117176 -0.84087,0.464441 -0.84087,0.812154 0,0.197637 -0.18202,0.307898 -0.72225,0.437496 -1.45856,0.349895 -3.24856,1.877726 -4.8279,4.120764 -0.3905,0.554611 -1.23865,1.691056 -1.88477,2.525437 -0.64612,0.834391 -1.47349,1.939669 -1.8386,2.456193 -0.36511,0.516525 -1.06897,1.394257 -1.56413,1.950511 -1.94402,2.183866 -2.91732,4.361891 -4.11625,9.211215 -0.32565,1.317168 -1.64877,5.637626 -1.95776,6.392827 -0.208078,0.508541 -0.683295,2.00824 -0.778308,2.456183 -0.05056,0.2384 -0.283452,1.023222 -0.517526,1.744047 l -0.425589,1.310602 0.277118,1.651276 c 0.290842,1.733056 0.784302,2.985532 1.521385,3.861505 0.30257,0.359586 0.50291,0.462694 0.89902,0.462694 0.45313,0 0.50186,-0.03615 0.43918,-0.325081 -0.0388,-0.178802 -0.12069,-0.44501 -0.18202,-0.591589 -0.097,-0.231726 -0.0475,-0.261978 0.37874,-0.231842 1.32374,0.09359 1.55671,0.02441 1.78866,-0.530671 0.33818,-0.809373 0.28158,-1.028009 -0.34946,-1.349935 -0.67127,-0.342456 -0.83529,-0.552436 -0.52465,-0.671652 0.23841,-0.09147 0.31715,-0.489204 0.0969,-0.489204 -0.27885,0 -0.25841,-0.420388 0.0706,-1.45169 0.40345,-1.264595 0.45535,-2.769924 0.13223,-3.835058 -0.11834,-0.390083 -0.21586,-0.860518 -0.21672,-1.045395 -0.003,-0.611266 1.05083,-2.80027 2.86347,-5.948817 2.19025,-3.804476 4.21385,-7.458556 4.21665,-7.614176 0.001,-0.06364 0.32014,-0.29098 0.70886,-0.50532 0.38873,-0.214352 1.52937,-1.059572 2.53475,-1.878271 1.00538,-0.8187 2.02873,-1.650479 2.2741,-1.848402 l 0.44613,-0.359853 -0.10971,1.515711 c -0.17733,2.450053 -0.2094,5.356194 -0.0685,6.211369 0.072,0.437059 0.2288,1.737395 0.34848,2.889639 0.11967,1.152243 0.35256,3.102754 0.51751,4.334455 0.19677,1.469372 0.30038,3.034415 0.30129,4.55118 0.002,3.066982 0.12362,3.360552 2.02453,4.88042 1.8686,1.49403 2.053407,1.713242 2.026357,2.403504 -0.0197,0.502763 0.0353,0.60421 0.47566,0.876324 0.77921,0.481584 1.72878,1.631164 2.75704,3.337785 0.51975,0.862647 1.27821,1.933028 1.68545,2.378614 l 0.74045,0.810161 -0.18073,0.705156 c -0.0994,0.387843 -0.14122,0.829613 -0.093,0.981734 0.0775,0.244092 -0.0611,0.313292 -1.18024,0.589383 -0.69741,0.172054 -2.11049,0.546456 -3.14019,0.832002 -1.664297,0.461555 -1.993157,0.509159 -2.961877,0.428818 -0.95497,-0.0792 -1.32193,-0.204937 -2.96797,-1.016953 -1.03304,-0.509617 -2.16621,-1.003119 -2.51816,-1.096677 -0.84792,-0.225383 -1.78326,-0.07047 -2.32455,0.384987 -0.55197,0.464465 -0.69221,0.729716 -0.86358,1.633328 -0.18068,0.952741 0.006,1.918029 0.67182,3.471452 0.75035,1.750933 0.91294,2.481767 0.91612,4.117727 0.001,0.794651 0.0687,1.86743 0.14925,2.383955 0.39217,2.514906 2.56025,4.975726 4.15572,4.716818 1.02028,-0.165573 1.05316,-0.346868 0.59618,-3.287045 -0.65319,-4.202574 -0.0482,-6.085364 2.31107,-7.19173 0.68825,-0.322758 0.99869,-0.377644 2.107477,-0.37257 0.71519,0.0031 1.78797,0.05469 2.38395,0.114365 0.59599,0.05959 2.37752,0.198264 3.95895,0.308089 2.49406,0.173195 2.92914,0.239454 3.28111,0.499683 0.58536,0.432785 1.919772,0.402469 3.234882,-0.07345 0.55625,-0.201304 1.19161,-0.361024 1.4119,-0.354937 0.61073,0.01684 1.70296,0.892143 2.63999,2.115516 0.46417,0.606023 1.08818,1.263477 1.38668,1.461008 0.36245,0.239868 0.80353,0.798327 1.32792,1.681282 0.43185,0.727167 1.12304,1.892405 1.53596,2.589416 2.08831,3.525028 3.50542,4.873214 7.15115,6.803333 3.2084,1.698593 6.50018,4.802902 7.88484,7.435821 0.54716,1.040415 1.61092,2.286975 3.07518,3.603597 0.9603,0.863492 2.24738,2.399502 2.26805,2.706732 0.005,0.0794 0.20213,0.36958 0.4373,0.64469 0.23517,0.27514 0.42757,0.55146 0.42757,0.61406 0,0.14849 -58.751209,0.11243 -59.892099,-0.0367 z m 61.554229,-0.34816 c 0.38484,-0.19481 0.76971,-0.31444 0.85526,-0.26579 0.0856,0.0485 0.10625,0.0341 0.0461,-0.0322 -0.0602,-0.0664 0.0681,-0.23714 0.28511,-0.37952 0.65939,-0.43256 2.3396,-2.17108 2.71139,-2.805487 l 0.34981,-0.596898 -0.32011,-0.780923 c -0.17606,-0.4295 -0.37218,-0.862829 -0.43583,-0.962952 -0.0636,-0.100091 -1.27824,-0.954299 -2.69909,-1.898193 -1.42086,-0.943886 -2.53816,-1.766379 -2.48291,-1.827756 0.0553,-0.0614 0.0266,-0.0694 -0.0637,-0.0178 -0.0903,0.05159 -0.59607,-0.102 -1.12393,-0.341379 -0.52786,-0.239338 -1.26668,-0.476319 -1.64183,-0.52661 -0.49549,-0.06641 -0.89951,-0.259525 -1.47676,-0.705804 -1.18757,-0.918132 -2.2214,-2.025649 -2.08973,-2.238689 0.071,-0.114849 0.0527,-0.144222 -0.0501,-0.08069 -0.15113,0.09337 -1.29578,-1.330353 -1.9858,-2.469998 -0.15456,-0.255283 -0.93779,-1.490608 -1.74051,-2.745151 -0.80272,-1.254554 -1.74063,-2.768633 -2.08424,-3.364624 -0.34361,-0.595981 -0.77679,-1.250662 -0.96261,-1.454833 -0.18582,-0.204172 -0.28818,-0.425899 -0.22747,-0.492734 0.0607,-0.06682 0.0297,-0.07504 -0.069,-0.01833 -0.22956,0.13204 -1.36122,-0.764355 -1.23798,-0.980606 0.0501,-0.08795 0.0398,-0.113591 -0.0228,-0.05703 -0.0627,0.0566 -0.38999,-0.123363 -0.72736,-0.399816 -0.41153,-0.33721 -1.0541,-1.226965 -1.95243,-2.703503 -2.33618,-3.839854 -4.5105,-7.235167 -5.08072,-7.93382 -0.3035,-0.371844 -0.55181,-0.719013 -0.55181,-0.771488 0,-0.05244 -0.13773,-0.206933 -0.30607,-0.343246 -0.2131,-0.172555 -0.3235,-0.456971 -0.36343,-0.936283 -0.0315,-0.378634 -0.1836,-0.93591 -0.3379,-1.238362 -0.15431,-0.302462 -0.23458,-0.600916 -0.17838,-0.663221 0.0562,-0.06236 0.026,-0.06971 -0.0671,-0.01641 -0.16931,0.0969 -0.24239,-0.01652 -1.05582,-1.639893 -0.87173,-1.739675 -1.61761,-4.848463 -1.61192,-6.718409 0.003,-1.09416 0.37533,-2.769324 0.89838,-4.045497 0.0977,-0.238387 0.18595,-0.498457 0.19609,-0.577923 0.0101,-0.07941 0.1387,-0.657944 0.28568,-1.28552 0.33689,-1.438417 0.27069,-2.360471 -0.4123,-5.742886 -0.28314,-1.402208 -0.51417,-2.637532 -0.51339,-2.745162 7.6e-4,-0.107628 0.15323,0.129408 0.33879,0.526728 0.66451,1.422907 1.5938,2.190857 4.28322,3.539577 0.83438,0.418437 1.86397,0.982524 2.28796,1.25352 0.424,0.271006 1.01414,0.590054 1.31143,0.709014 0.2973,0.118943 1.44578,0.69391 2.55218,1.277673 1.89983,1.002394 3.84271,2.015447 3.92906,2.048672 0.0215,0.0084 -0.21129,0.280951 -0.51736,0.605947 -1.71489,1.820859 -2.35527,5.038927 -1.46761,7.375063 0.53035,1.39576 1.73996,3.050598 2.52376,3.452683 0.23839,0.122291 0.47155,0.281154 0.51813,0.353019 0.0466,0.07183 0.63172,0.320626 1.30033,0.552799 2.23584,0.776413 4.73646,0.517421 6.56148,-0.679583 1.26,-0.826416 2.341,-2.246682 2.95108,-3.877257 0.34251,-0.915455 0.40951,-2.827249 0.13699,-3.909514 -0.13804,-0.548217 -0.12707,-0.685894 0.0722,-0.90613 0.36078,-0.398652 0.28211,-0.797592 -0.24376,-1.236059 -0.38993,-0.325113 -0.46706,-0.478993 -0.41566,-0.829229 0.0537,-0.365567 -0.0424,-0.528326 -0.64096,-1.0857 -0.38724,-0.36063 -0.885,-0.749241 -1.10613,-0.863586 -0.22113,-0.114351 -0.36403,-0.269416 -0.31758,-0.344587 0.0481,-0.07782 -0.0223,-0.09573 -0.16345,-0.04157 -0.1372,0.05267 -0.21125,0.03581 -0.16579,-0.03774 0.0452,-0.07312 -0.0579,-0.137901 -0.22914,-0.143997 -0.70017,-0.02494 -2.48295,-0.495996 -2.62019,-0.69231 -0.081,-0.115896 -0.21305,-0.320062 -0.29342,-0.453721 -0.12111,-0.201399 -0.46745,-0.254953 -2.02275,-0.312747 -1.34461,-0.04999 -2.00973,-0.137283 -2.34618,-0.308038 -0.25826,-0.13108 -0.46956,-0.288551 -0.46956,-0.349939 0,-0.0614 -0.0756,-0.111631 -0.16796,-0.111631 -0.31075,0 -1.56574,-0.894627 -1.4707,-1.048399 0.0541,-0.08762 0.025,-0.109486 -0.0686,-0.0516 -0.15361,0.09498 -1.87169,-1.069088 -4.40249,-2.982748 -0.6188,-0.467908 -1.92501,-1.623948 -2.90269,-2.568983 l -1.77761,-1.718214 -0.17897,-1.269179 c -0.0984,-0.698045 -0.19008,-1.410044 -0.20367,-1.582225 -0.0136,-0.172171 -0.0533,-0.284437 -0.0883,-0.249484 -0.035,0.03496 -0.21375,-0.335965 -0.39733,-0.824275 -0.29593,-0.787221 -0.33376,-1.140592 -0.33376,-3.117985 0,-1.226574 -0.0734,-2.535257 -0.16315,-2.908166 -0.18335,-0.761863 -0.96491,-2.457356 -1.87176,-4.060495 -0.58712,-1.037911 -0.60146,-1.094054 -0.46778,-1.831549 l 0.1379,-0.76082 -1.02097,-0.580267 c -1.38297,-0.78603 -3.04422,-1.53723 -4.03897,-1.82641 -0.45233,-0.13149 -0.99859,-0.39068 -1.21391,-0.57596 -0.371592,-0.31975 -0.381562,-0.36137 -0.19613,-0.81882 0.10744,-0.26507 0.28839,-0.83954 0.40211,-1.27659 0.27837,-1.06988 0.27092,-4.42755 -0.0122,-5.4787 -0.11599,-0.43071 -0.17092,-0.85333 -0.12208,-0.93918 0.0488,-0.0859 0.0351,-0.10743 -0.0305,-0.048 -0.0656,0.0595 -0.29708,-0.20055 -0.514352,-0.57791 -0.21727,-0.37735 -0.58037,-0.85743 -0.80688,-1.06683 -0.61001,-0.56392 -2.39911,-1.43387 -3.17724,-1.54492 -0.61299,-0.0875 17.361142,-0.0814 33.829002,0.0115 l 6.3572,0.0359 0.97847,0.46196 c 1.13981,0.53814 2.45029,1.7927 2.97422,2.84731 0.77326,1.5565 0.73229,-0.95619 0.73783,45.247019 0.005,38.909924 -0.0164,42.984683 -0.2252,43.597514 -0.12669,0.371814 -0.28849,0.640091 -0.35955,0.596164 -0.0711,-0.04391 -0.0951,0.0084 -0.0535,0.117517 0.16486,0.429629 -2.22002,2.802699 -2.65111,2.637969 -0.10346,-0.0396 -0.14722,-0.005 -0.0973,0.0752 0.0512,0.0828 -0.43416,0.39224 -1.11223,0.70899 -1.77954,0.83129 -4.31169,1.43418 -2.79181,0.66471 z m -13.30318,-53.39301 c 0,-0.14934 0.0774,-0.226407 0.18576,-0.184845 0.10217,0.03923 0.18576,0.122383 0.18576,0.184845 0,0.06246 -0.0836,0.145652 -0.18576,0.184857 -0.10831,0.04157 -0.18576,-0.03551 -0.18576,-0.184857 z"
             id="path1"
             sodipodi:nodetypes="csscsssssssccsscsssssssssscsssssscscssscscssscsssscssssscssscssccscccsssccssscssssssscsscccccsscssssscssssssssscssssssssscsscscssssssssccssssssssscssscsssscsssscsscssssscsscssssssccsssscsscsscscsccscsss" /><text
             xml:space="preserve"
             style="font-size:13.8438px;line-height:1;font-family:Sportsball;-inkscape-font-specification:Sportsball;text-align:center;letter-spacing:0px;writing-mode:lr-tb;direction:ltr;text-anchor:middle;fill:#0000ff;stroke:#ffffff;stroke-width:0.739;stroke-dasharray:none"
             x="95.469383"
             y="-18.829678"
             id="text1"><tspan
               sodipodi:role="line"
               id="tspan1"
               x="95.469383"
               y="-18.829678"
               style="fill:#0000ff;stroke:#ffffff;stroke-width:0.739;stroke-dasharray:none">NBL</tspan></text></g><text
           xml:space="preserve"
           style="font-size:36.0775px;line-height:1;font-family:Sportsball;-inkscape-font-specification:Sportsball;text-align:center;letter-spacing:0px;writing-mode:lr-tb;direction:ltr;text-anchor:middle;fill:#0000ff;stroke:#ffffff;stroke-width:1.92586;stroke-dasharray:none"
           x="213.99278"
           y="-73.990654"
           id="text1-0"><tspan
             sodipodi:role="line"
             id="tspan1-6"
             x="213.99278"
             y="-73.990654"
             style="fill:#0000ff;stroke:#ffffff;stroke-width:1.92586;stroke-dasharray:none">NBL</tspan></text></g></g></g></svg>
