<?xml version="1.0" encoding="UTF-8" standalone="no"?>
<!-- Created with Inkscape (http://www.inkscape.org/) -->

<svg
   width="1024"
   height="512"
   viewBox="0 0 270.93333 135.46667"
   version="1.1"
   id="svg1"
   xml:space="preserve"
   sodipodi:docname="radnicki.svg"
   inkscape:export-filename="../png/radnicki.png"
   inkscape:export-xdpi="95.821213"
   inkscape:export-ydpi="95.821213"
   inkscape:version="1.4.2 (ebf0e940d0, 2025-05-08)"
   xmlns:inkscape="http://www.inkscape.org/namespaces/inkscape"
   xmlns:sodipodi="http://sodipodi.sourceforge.net/DTD/sodipodi-0.dtd"
   xmlns="http://www.w3.org/2000/svg"
   xmlns:svg="http://www.w3.org/2000/svg"><sodipodi:namedview
     id="namedview1"
     pagecolor="#ffffff"
     bordercolor="#000000"
     borderopacity="0.25"
     inkscape:showpageshadow="2"
     inkscape:pageopacity="0.0"
     inkscape:pagecheckerboard="0"
     inkscape:deskcolor="#d1d1d1"
     inkscape:document-units="mm"
     inkscape:zoom="1.4253648"
     inkscape:cx="464.44252"
     inkscape:cy="109.44567"
     inkscape:window-width="1920"
     inkscape:window-height="1011"
     inkscape:window-x="0"
     inkscape:window-y="32"
     inkscape:window-maximized="1"
     inkscape:current-layer="layer1"
     showguides="true"><sodipodi:guide
       position="29.643296,138.00179"
       orientation="1,0"
       id="guide5"
       inkscape:locked="false" /><sodipodi:guide
       position="118.49384,119.6329"
       orientation="0,-1"
       id="guide6"
       inkscape:locked="false" /><sodipodi:guide
       position="241.77374,135.82915"
       orientation="1,0"
       id="guide7"
       inkscape:locked="false" /><sodipodi:guide
       position="113.78183,14.885825"
       orientation="0,-1"
       id="guide8"
       inkscape:locked="false" /></sodipodi:namedview><defs
     id="defs1" /><g
     inkscape:label="Capa 1"
     inkscape:groupmode="layer"
     id="layer1"><rect
       style="fill:none;fill-rule:evenodd;stroke-width:0.264583;stroke:none"
       id="rect8"
       width="271.43884"
       height="135.98195"
       x="0"
       y="0"
       ry="4.6820946" /><path
       style="fill:#ffd42a;fill-opacity:1;stroke-width:0.483884"
       d="m 134.61315,82.596609 c -1.48544,-1.325565 -6.10323,-4.195385 -10.62627,-6.603884 l -2.00576,-1.06806 V 64.867374 c 0,-5.53151 0.0192,-10.05779 0.0426,-10.058399 0.0234,-6.05e-4 3.06103,-0.567883 6.75012,-1.260604 l 6.70745,-1.2595 6.26599,1.172631 c 3.4463,0.644944 6.47724,1.21832 6.73543,1.274167 l 0.46944,0.101543 v 10.043725 10.043728 l -2.00577,1.061981 c -4.24455,2.247349 -8.46551,4.843435 -10.28486,6.325676 -0.51638,0.420693 -1.01568,0.811003 -1.10957,0.867344 -0.0939,0.05634 -0.51637,-0.206034 -0.93887,-0.583057 z m 2.0246,-2.997585 c 1.95997,-1.412003 5.51689,-3.548449 9.0711,-5.448522 l 0.93888,-0.501915 v -8.522384 -8.522382 l -5.58561,-1.041055 -5.58559,-1.041049 -5.59546,1.046896 -5.59545,1.046899 -0.0443,8.476717 -0.0443,8.476717 1.15383,0.633981 c 2.95808,1.625333 6.27784,3.614217 8.06732,4.833165 1.0797,0.735465 1.99077,1.346717 2.0246,1.358336 0.0338,0.01162 0.57153,-0.346311 1.19492,-0.795404 z M 134.9349,78.73037 c -0.74628,-0.585814 -4.13378,-2.664434 -6.55241,-4.02067 -1.31443,-0.737052 -2.56268,-1.446487 -2.77393,-1.576523 l -0.38408,-0.236429 v -7.659443 c 0,-5.971867 0.047,-7.676747 0.21339,-7.73798 0.11734,-0.0432 2.42375,-0.487357 5.12533,-0.987022 l 4.91197,-0.908482 4.98882,0.932137 4.98881,0.932134 0.0444,7.799268 0.0444,7.79927 -0.72721,0.367421 c -1.4546,0.734941 -5.55288,3.148046 -7.41653,4.366927 -1.05029,0.686924 -1.94254,1.248954 -1.98274,1.248954 -0.0402,0 -0.2563,-0.143803 -0.48021,-0.319562 z"
       id="path1-2"
       sodipodi:nodetypes="sscssscsscccssssssscccccccccssssscsscssscccccssscc" /><rect
       style="fill:none;fill-rule:evenodd;stroke:none;stroke-width:0.239302"
       id="rect1"
       width="210.86792"
       height="106.1055"
       x="30.032705"
       y="14.680587"
       ry="0" /><path
       style="fill:#ffffff;fill-opacity:1;stroke-width:0.734601"
       d="m 128.11391,55.979417 -3.84606,1.085947 -0.13575,16.605927 11.17621,7.194394 11.40243,-6.877659 0.0905,-16.922662 -10.76897,-2.760113 -7.55637,1.583671 z"
       id="path3" /><path
       style="fill:#c42c36;fill-opacity:1;stroke-width:0.449704"
       d="m 134.67344,81.547057 c -1.38051,-1.231933 -5.67212,-3.899039 -9.87567,-6.13741 l -1.86408,-0.992616 V 65.07015 c 0,-5.140784 0.0178,-9.347345 0.0396,-9.34791 0.0218,-5.63e-4 2.84481,-0.52777 6.27332,-1.17156 l 6.23366,-1.170534 5.82339,1.089801 c 3.20286,0.599387 6.01971,1.132261 6.25966,1.184164 l 0.43628,0.09437 v 9.334274 9.334276 l -1.86408,0.986967 c -3.94474,2.088604 -7.86755,4.501312 -9.55839,5.878853 -0.4799,0.390976 -0.94394,0.753716 -1.03119,0.806077 -0.0873,0.05236 -0.4799,-0.19148 -0.87255,-0.541871 z m 1.88159,-2.785847 c 1.82152,-1.312264 5.12719,-3.2978 8.43035,-5.063658 l 0.87255,-0.466462 v -7.920394 -7.920392 l -5.19105,-0.967518 -5.19104,-0.967515 -5.20023,0.972948 -5.20021,0.97295 -0.0412,7.877953 -0.0412,7.877953 1.07234,0.589199 c 2.74913,1.510525 5.83439,3.358922 7.49747,4.491768 1.00343,0.683514 1.85014,1.251589 1.88158,1.262388 0.0315,0.0108 0.53116,-0.321849 1.11052,-0.73922 z m -1.58256,-0.807295 c -0.69358,-0.544434 -3.8418,-2.476229 -6.08958,-3.736665 -1.22158,-0.68499 -2.38166,-1.344313 -2.57799,-1.465162 l -0.35695,-0.219729 V 65.41395 c 0,-5.550036 0.0437,-7.134489 0.19831,-7.191397 0.10906,-0.04015 2.25255,-0.452932 4.7633,-0.917303 l 4.565,-0.84431 4.63643,0.866294 4.63642,0.866291 0.0412,7.248357 0.0412,7.248358 -0.67584,0.341468 c -1.35186,0.683028 -5.16065,2.92568 -6.89265,4.058464 -0.97611,0.638402 -1.80533,1.160732 -1.84269,1.160732 -0.0374,0 -0.2382,-0.133645 -0.44629,-0.296989 z"
       id="path1"
       sodipodi:nodetypes="sscssscsscccssssssscccccccccssssscsscssscccccssscc" /><text
       xml:space="preserve"
       style="font-size:1.81955px;line-height:1;font-family:'Tilt Warp';-inkscape-font-specification:'Tilt Warp';text-align:end;letter-spacing:0.0256556px;word-spacing:0.00866561px;writing-mode:lr-tb;direction:ltr;text-anchor:end;fill:#ffffff;fill-opacity:1;stroke-width:0.0673351"
       x="136.44562"
       y="61.312649"
       id="text1"><tspan
         sodipodi:role="line"
         id="tspan1"
         style="font-style:normal;font-variant:normal;font-weight:normal;font-stretch:normal;font-family:'Lifestyle Rounded M54';-inkscape-font-specification:'Lifestyle Rounded M54';fill:#ffffff;stroke-width:0.0673351"
         x="136.47128"
         y="61.312649">рч</tspan></text><path
       style="fill:#ffffff;stroke-width:0.101579"
       d="m 134.79587,74.378932 -0.43431,-0.10638 -0.0946,-0.08308 c -0.052,-0.04569 -0.14023,-0.12724 -0.19594,-0.181212 l -0.10132,-0.09813 0.18791,-2.811729 c 0.10334,-1.546449 0.19078,-2.814601 0.1943,-2.818114 0.004,-0.0035 0.0558,0.02697 0.11622,0.06773 l 0.10984,0.07412 0.0765,-0.01452 c 0.0937,-0.01776 0.10846,-0.02893 0.0384,-0.02893 -0.0289,0 -0.069,-0.0062 -0.089,-0.01384 -0.0272,-0.01035 -0.61186,-0.535574 -0.84499,-0.759096 -0.02,-0.01914 -0.0384,-0.153177 -0.0988,-0.717708 -0.0408,-0.381793 -0.0742,-0.713531 -0.0741,-0.737196 7e-5,-0.02366 0.0336,-0.129646 0.0746,-0.235512 l 0.0744,-0.192485 0.51375,-0.32127 c 0.28256,-0.176698 0.52136,-0.325566 0.53068,-0.33082 0.01,-0.0057 0.0523,0.03478 0.10385,0.09935 l 0.0869,0.108904 0.0241,0.17976 c 0.0132,0.09887 0.0241,0.190812 0.024,0.204322 -2e-5,0.01351 -0.0844,0.15292 -0.1874,0.309804 l -0.18736,0.285246 -0.17401,-0.115894 -0.17401,-0.115894 -0.0326,0.03991 c -0.018,0.02195 -0.0327,0.0432 -0.0329,0.04722 -1.1e-4,0.0041 0.0753,0.04962 0.16751,0.101332 l 0.16772,0.09403 0.0436,0.113173 0.0437,0.113175 -0.0972,0.205702 c -0.0534,0.113137 -0.0944,0.208356 -0.0911,0.2116 0.004,0.0033 0.0269,0.0081 0.0525,0.0109 0.045,0.0049 0.0504,-0.0011 0.1689,-0.184973 l 0.12245,-0.189985 0.15991,-0.01722 c 0.0879,-0.0095 0.18467,-0.02037 0.21494,-0.02421 l 0.055,-0.007 0.19342,0.22585 c 0.17299,0.20201 0.20724,0.251621 0.32438,0.469944 0.12654,0.235848 0.13182,0.249523 0.15622,0.404848 l 0.0252,0.160757 -0.0877,0.265883 c -0.085,0.257668 -0.0892,0.266336 -0.13429,0.280511 -0.0256,0.008 -0.14849,0.04515 -0.27308,0.08246 -0.12458,0.03731 -0.23068,0.0722 -0.23577,0.07754 -0.005,0.0053 0.003,0.348386 0.0172,0.762331 0.0223,0.632099 0.035,0.834955 0.0799,1.266717 l 0.0534,0.514088 -0.0544,0.362757 c -0.0853,0.568512 -0.0858,0.568183 0.0422,0.02664 l 0.0933,-0.39458 -0.0484,-0.526108 c -0.0466,-0.50685 -0.0484,-0.551848 -0.0491,-1.229245 l -7.4e-4,-0.70314 0.28132,-0.09691 0.28132,-0.0969 0.39754,-0.04836 0.39755,-0.04836 0.008,0.07386 c 0.005,0.04062 0.0541,0.583521 0.11001,1.206447 0.0559,0.622925 0.15766,1.752846 0.22614,2.510934 0.0685,0.758089 0.1245,1.392945 0.1245,1.410794 0,0.01997 -0.0977,0.155905 -0.254,0.353429 l -0.254,0.320975 -0.26114,0.111942 -0.26115,0.11194 -0.39458,0.03839 c -0.21702,0.02112 -0.42089,0.04097 -0.45304,0.04413 -0.0392,0.0038 -0.20206,-0.02945 -0.49276,-0.100652 z m 0.90196,-0.352425 c 0.37777,-0.02872 0.70022,-0.05491 0.71654,-0.05819 0.0173,-0.0035 0.14095,-0.144176 0.29695,-0.33792 l 0.26728,-0.331938 -0.008,-0.06682 c -0.0137,-0.107855 -0.40278,-4.438164 -0.40278,-4.481877 0,-0.0219 -0.004,-0.03582 -0.009,-0.03093 -0.005,0.0049 0.0189,0.997361 0.0528,2.205511 l 0.0617,2.196633 -0.17666,0.358046 -0.17666,0.358044 -0.24513,0.03779 c -0.13483,0.02078 -0.24624,0.03721 -0.2476,0.0365 -9.1e-4,-7.31e-4 -0.0264,-0.362854 -0.0558,-0.804779 -0.0293,-0.441928 -0.0562,-0.806351 -0.0596,-0.809836 -0.004,-0.0035 -0.006,0.01357 -0.006,0.03788 0,0.07315 -0.0874,1.602027 -0.0918,1.606461 -0.003,0.0023 -0.13788,0.02457 -0.30138,0.04958 l -0.29727,0.04548 -0.13191,-0.03037 c -0.0725,-0.01671 -0.13461,-0.02765 -0.13793,-0.02433 -0.005,0.0046 0.22282,0.08887 0.25885,0.09588 0.004,7.32e-4 0.31639,-0.02208 0.69417,-0.05079 z m 0.2267,-5.71883 c 9e-5,-0.02926 0.01,-0.158084 0.0217,-0.28627 0.016,-0.17332 0.018,-0.273098 0.008,-0.389231 -0.0128,-0.145135 -0.0214,-0.175343 -0.12248,-0.427617 -0.10841,-0.270539 -0.15839,-0.354678 -0.39519,-0.665136 -0.0127,-0.01662 0.0391,-0.01804 0.32043,-0.009 0.29479,0.0096 0.36338,0.01662 0.56474,0.05809 l 0.22919,0.04719 0.0286,-0.06751 c 0.0157,-0.03713 0.11571,-0.277946 0.22221,-0.535153 0.1065,-0.257208 0.19919,-0.47379 0.20598,-0.48129 0.006,-0.0075 0.0169,-0.009 0.0225,-0.0034 0.005,0.0056 0.0149,0.317547 0.0206,0.693193 l 0.0104,0.682997 -0.10882,0.472986 -0.10882,0.472982 -0.10901,0.143935 c -0.0906,0.119579 -0.11826,0.146448 -0.16367,0.158775 -0.03,0.0081 -0.18783,0.05371 -0.3506,0.101228 l -0.29593,0.08639 z m -5.37676,-0.488189 c -0.0194,-0.0099 -0.0469,-0.0345 -0.0611,-0.05459 -0.0247,-0.03467 -0.38069,-1.34587 -0.39858,-1.468162 -0.005,-0.03185 0.0175,-0.34751 0.0493,-0.701476 0.0318,-0.353967 0.0742,-0.831003 0.0943,-1.060077 0.0201,-0.229077 0.0401,-0.436723 0.0443,-0.461437 0.008,-0.04608 0.0664,-0.111279 0.11519,-0.12853 0.026,-0.0092 0.98407,0.06927 1.06135,0.08692 0.0444,0.01013 0.10088,0.06021 0.11804,0.104647 0.008,0.02049 -0.004,0.211196 -0.0307,0.510269 -0.0239,0.262657 -0.0434,0.492382 -0.0434,0.510502 0,0.04101 -0.0754,0.03358 1.10335,0.108705 0.50639,0.03227 0.92811,0.06132 0.93719,0.06455 0.009,0.0033 0.0381,0.09383 0.0645,0.201329 l 0.048,0.195458 -0.0765,0.196611 c -0.0735,0.189006 -0.0762,0.200425 -0.0667,0.295186 l 0.01,0.09857 -0.0417,-0.0075 c -0.0229,-0.0042 -0.47571,-0.05652 -1.0062,-0.116407 -0.53049,-0.05988 -0.98518,-0.111831 -1.01042,-0.115441 l -0.0459,-0.0066 -0.009,0.11208 c -0.005,0.06165 -0.0165,0.144962 -0.0251,0.185151 -0.008,0.04018 -0.1506,0.370783 -0.31557,0.734656 -0.22733,0.501404 -0.31038,0.67036 -0.34302,0.697824 -0.0475,0.03996 -0.11425,0.04689 -0.17095,0.01775 z m 6.87765,-1.069257 c -0.151,-0.01856 -0.27728,-0.03648 -0.28063,-0.03982 -0.004,-0.0033 -0.0108,-0.263966 -0.0164,-0.57916 l -0.0103,-0.573078 h 0.0423 c 0.10954,0 0.72096,0.04729 0.76751,0.05937 0.0903,0.02342 0.14902,0.07349 0.19564,0.166812 0.0409,0.08181 0.0435,0.09756 0.0423,0.248441 -0.003,0.311746 -0.0472,0.533792 -0.12911,0.641157 -0.087,0.114068 -0.19462,0.127495 -0.61136,0.07628 z m -1.04146,-0.287846 c -0.064,-0.04068 -0.12123,-0.07874 -0.12742,-0.08458 -0.009,-0.0086 0.15861,-1.134093 0.18715,-1.255832 0.008,-0.03328 0.0112,-0.034 0.11335,-0.02427 0.1822,0.01737 0.20435,0.02642 0.34145,0.139689 0.0711,0.05872 0.13073,0.107636 0.13257,0.108707 0.003,0.0018 -0.52058,1.179894 -0.52766,1.186976 -0.002,0.0018 -0.0555,-0.03002 -0.11944,-0.0707 z m -0.61306,-0.09872 -0.27766,-0.02364 0.004,-0.109605 c 0.002,-0.06028 0.0109,-0.398965 0.02,-0.752627 0.009,-0.353661 0.0207,-0.64744 0.0258,-0.652842 0.005,-0.0054 0.1043,-0.02665 0.22053,-0.04722 l 0.21133,-0.0374 0.19492,0.08995 c 0.10721,0.04947 0.19717,0.09374 0.19992,0.09837 0.005,0.0074 -0.21393,1.345796 -0.23323,1.429645 -0.009,0.03835 0.0175,0.03796 -0.36505,0.0053 z m -0.71601,-0.0051 c -0.14464,-0.0074 -0.26378,-0.01464 -0.26477,-0.01603 -9e-4,-0.0013 -0.005,-0.03393 -0.009,-0.07233 -0.007,-0.06751 -0.003,-0.07841 0.14511,-0.328818 l 0.15262,-0.258994 -0.0245,-0.219212 -0.0245,-0.219212 -0.081,-0.116911 c -0.0446,-0.0643 -0.0857,-0.122329 -0.0914,-0.12895 -0.005,-0.0066 -0.0703,0.01805 -0.14349,0.0548 -0.0732,0.03676 -0.13846,0.06684 -0.14505,0.06684 -0.006,0 -0.0269,-0.08133 -0.045,-0.180736 -0.0182,-0.09941 -0.0364,-0.193336 -0.0403,-0.208732 -0.006,-0.02542 0.0152,-0.03255 0.23834,-0.07761 l 0.24566,-0.04962 0.21723,0.05649 0.21724,0.05649 -0.0107,0.819299 c -0.005,0.450616 -0.0136,0.824232 -0.0172,0.830261 -0.004,0.0061 -0.0176,0.01 -0.0312,0.0088 -0.0136,-0.0013 -0.14305,-0.0083 -0.28769,-0.01576 z m -1.40461,-0.951774 -0.0593,-0.239064 0.14819,-0.158214 0.1482,-0.158215 0.20378,-0.01856 c 0.11207,-0.0102 0.22707,-0.01886 0.25556,-0.01923 l 0.0518,-7.31e-4 0.0332,0.170077 c 0.0183,0.09354 0.0278,0.174933 0.0212,0.180868 -0.0277,0.02513 -0.72124,0.482058 -0.73175,0.482058 -0.006,0 -0.0383,-0.107576 -0.0709,-0.23906 z"
       id="path2"
       sodipodi:nodetypes="ccsscssscsscsssscssscssscccscscccsscsccccssscssscsscsscsccccccssssscccssccssscsssscccscssssscsssssssssscscsscsscccscscsssssssscsssssscssccsscssssssssscssssssscssssssccsssscsssscccsscccssssssscccsssccccccsccssscc" /><path
       style="fill:#ffffff;stroke-width:0.103948"
       d="m 133.13105,75.483809 c -0.0412,-0.02558 -0.081,-0.06198 -0.0882,-0.08091 -0.0132,-0.03449 0.26798,-0.302171 0.51471,-0.489961 0.14324,-0.109018 0.81014,-0.510478 1.08539,-0.653376 0.0945,-0.04905 0.17184,-0.09923 0.1719,-0.111498 5e-5,-0.01227 -0.0587,-0.01371 -0.13054,-0.0031 -0.13296,0.01945 -0.30679,0.07832 -0.84469,0.286088 -0.34504,0.133276 -0.89264,0.280337 -1.29367,0.347418 -0.34365,0.05749 -1.08596,0.06513 -1.31822,0.01358 -0.22896,-0.05082 -0.62905,-0.209424 -0.8428,-0.334104 -0.16073,-0.09375 -0.36905,-0.269324 -0.34642,-0.291959 0.005,-0.0046 0.0936,0.0094 0.19777,0.03114 0.5711,0.119489 1.0409,0.08076 2.00714,-0.165478 0.89533,-0.228165 1.13608,-0.266855 1.66393,-0.267399 0.32437,-3.37e-4 0.54795,0.01756 0.9351,0.07493 0.55723,0.08254 0.76953,0.08316 1.33744,0.0039 0.91187,-0.127258 1.61644,-0.109469 2.07294,0.05234 0.19682,0.06976 0.83778,0.225708 1.18211,0.287604 0.48595,0.08736 0.78787,0.09849 1.1499,0.04241 0.17079,-0.02646 0.31847,-0.04018 0.32816,-0.03049 0.0356,0.03566 -0.17316,0.211359 -0.37544,0.315866 -0.5309,0.274283 -1.03257,0.366491 -1.69232,0.31105 -0.62508,-0.05253 -1.07565,-0.162835 -1.86442,-0.456451 -0.87267,-0.32484 -1.00846,-0.287243 -0.30942,0.08567 0.51044,0.272297 0.74891,0.431206 1.07154,0.714029 0.15648,0.137175 0.2272,0.217196 0.21653,0.245 -0.0241,0.06264 -0.15879,0.121766 -0.27753,0.121766 -0.10034,0 -0.12041,-0.01615 -0.37135,-0.299247 -0.38007,-0.42873 -0.77229,-0.73416 -1.18925,-0.926082 -0.46187,-0.212593 -0.8366,-0.199325 -1.31994,0.04674 -0.37931,0.193104 -0.61612,0.376335 -1.01579,0.786003 -0.35292,0.361741 -0.39073,0.392533 -0.4813,0.391859 -0.0541,-3.38e-4 -0.13204,-0.02165 -0.17327,-0.04723 z m -2.29027,-1.606268 c -0.59889,-0.0765 -1.2208,-0.365851 -1.71004,-0.795597 -0.25351,-0.222682 -0.52822,-0.601001 -0.49869,-0.686746 0.005,-0.01355 0.18176,0.05003 0.39352,0.141282 0.47174,0.203264 0.88293,0.356657 1.21014,0.451422 0.44723,0.12953 1.55885,0.398637 1.64668,0.39863 0.0795,-4e-6 0.0701,-0.01021 -0.12369,-0.13436 -0.40277,-0.258063 -0.72544,-0.632329 -0.89188,-1.034514 -0.18985,-0.458722 -0.4211,-1.20929 -0.38401,-1.246378 0.0297,-0.02963 0.10279,0.03307 0.24161,0.207066 0.0827,0.103598 0.19572,0.223012 0.25126,0.26537 0.13956,0.106452 0.64332,0.671485 0.83073,0.931769 0.0852,0.118265 0.24433,0.372476 0.35373,0.564909 0.19042,0.334939 0.20734,0.355519 0.39631,0.481845 0.10857,0.07258 0.19035,0.143362 0.18174,0.157293 -0.0267,0.04322 -0.44185,0.162042 -0.7645,0.218809 -0.28558,0.05024 -0.83657,0.115275 -0.90894,0.107273 -0.0173,-0.0021 -0.11809,-0.01454 -0.22397,-0.02808 z m 8.34716,-0.06389 c -0.35211,-0.05939 -0.9626,-0.225026 -0.9626,-0.261156 0,-0.0534 0.41836,-0.60677 0.86362,-1.142314 0.59546,-0.716218 1.13119,-1.274631 1.37099,-1.429037 l 0.0756,-0.0487 0.004,0.07879 c 0.0147,0.333503 -0.0484,0.60427 -0.22297,0.958892 -0.0744,0.151268 -0.20084,0.361665 -0.28078,0.467553 -0.18366,0.243252 -0.59251,0.650224 -0.81412,0.810374 -0.0935,0.06755 -0.15962,0.133098 -0.14704,0.145686 0.026,0.02595 0.40387,-0.01474 0.73263,-0.07887 0.84215,-0.164254 1.48979,-0.39255 2.23876,-0.789173 l 0.31355,-0.166045 -0.0195,0.08027 c -0.0572,0.235397 -0.4051,0.643171 -0.73475,0.861268 -0.55638,0.368106 -1.19807,0.555793 -1.88056,0.550039 -0.18152,-0.0014 -0.42286,-0.01846 -0.53631,-0.03758 z m -8.84222,-1.169221 c -0.18152,-0.04129 -0.47333,-0.106533 -0.64848,-0.144977 -0.76171,-0.167204 -1.19097,-0.444623 -1.67279,-1.081087 -0.18022,-0.238074 -0.28309,-0.452817 -0.37527,-0.783477 -0.0399,-0.142963 -0.10169,-0.358513 -0.13741,-0.479002 -0.0357,-0.12049 -0.061,-0.223016 -0.0562,-0.227836 0.005,-0.0048 0.0845,0.101771 0.17701,0.236872 0.21049,0.307317 0.43901,0.517779 0.90158,0.830318 0.35403,0.239216 0.48457,0.34387 1.24708,0.999828 0.20385,0.175367 0.38713,0.318849 0.40729,0.318849 0.0427,0 0.0556,0.02306 -0.19812,-0.352525 -0.30376,-0.449655 -0.39328,-0.73435 -0.52236,-1.661162 -0.0821,-0.589827 -0.1076,-0.904767 -0.0769,-0.950553 0.0163,-0.02423 0.069,0.04834 0.16978,0.233779 0.0804,0.147919 0.19223,0.34939 0.24853,0.447711 0.23744,0.414605 0.52102,1.174824 0.63097,1.691435 0.0322,0.151268 0.0904,0.380231 0.12945,0.508808 0.039,0.128575 0.0868,0.286391 0.10631,0.350697 0.0194,0.06431 0.0273,0.121531 0.0174,0.127161 -0.01,0.0056 -0.16646,-0.02354 -0.34798,-0.06484 z m 9.95112,0.03679 c 0.008,-0.02805 0.0646,-0.218097 0.12607,-0.422307 0.0615,-0.20421 0.13165,-0.470138 0.15594,-0.590947 0.11652,-0.579535 0.38123,-1.268347 0.67678,-1.761086 0.0996,-0.166103 0.21375,-0.366983 0.25358,-0.446399 0.0398,-0.07941 0.0837,-0.14439 0.0973,-0.14439 0.0482,0 -0.021,0.764679 -0.12317,1.3614 -0.10107,0.589885 -0.24313,0.949691 -0.55203,1.398115 -0.24428,0.354626 -0.14192,0.320193 0.31649,-0.106458 0.29154,-0.271352 0.6901,-0.583066 1.33672,-1.045446 0.39243,-0.280615 0.61216,-0.49226 0.80352,-0.773982 0.0852,-0.125464 0.15977,-0.223291 0.16567,-0.217397 0.0153,0.01529 -0.23726,0.884643 -0.29847,1.027431 -0.028,0.06555 -0.0905,0.177371 -0.13851,0.248496 -0.13779,0.203818 -0.59391,0.737922 -0.70597,0.826671 -0.21329,0.168932 -0.59564,0.321167 -1.07763,0.429058 -0.11344,0.02541 -0.34241,0.08758 -0.5088,0.138192 -0.1664,0.05061 -0.35638,0.100581 -0.42219,0.111044 -0.10788,0.01716 -0.11825,0.01399 -0.10534,-0.032 z m -11.22812,-1.781425 c -0.0178,-0.02145 -0.25136,-0.203735 -0.51904,-0.405113 -0.2677,-0.201377 -0.60258,-0.477779 -0.7442,-0.614224 -0.21313,-0.205355 -0.2777,-0.288347 -0.37488,-0.481859 -0.30887,-0.615085 -0.66615,-1.815197 -0.5404,-1.815197 0.013,0 0.0942,0.133042 0.18039,0.295657 0.1153,0.217416 0.24786,0.404825 0.50096,0.708202 0.49115,0.588707 0.72372,0.906477 0.94728,1.294341 0.19078,0.330983 0.27297,0.442584 0.27297,0.370664 0,-0.01825 -0.0239,-0.128048 -0.053,-0.244018 -0.15705,-0.624585 -0.18578,-1.219953 -0.0906,-1.876502 0.0667,-0.460431 0.13829,-0.795871 0.16968,-0.795871 0.0493,0 0.19054,0.630692 0.2796,1.248585 0.063,0.437122 0.063,0.437404 0.0157,0.962608 -0.05,0.556632 -0.0589,1.081269 -0.0214,1.274813 0.025,0.129282 0.0236,0.134156 -0.0231,0.07792 z m 12.83436,-0.07505 c 0.0229,-0.127807 0.0234,-0.295509 0.005,-1.48115 -0.0106,-0.697354 -0.006,-0.785289 0.0524,-1.127626 0.0958,-0.556886 0.19733,-0.946923 0.23187,-0.891042 0.009,0.01426 0.0553,0.2237 0.10329,0.465377 0.15065,0.758728 0.14411,1.210377 -0.0302,2.08661 -0.0449,0.225254 -0.0752,0.41576 -0.0676,0.423339 0.0295,0.02953 0.0902,-0.05628 0.24889,-0.352133 0.18058,-0.33659 0.52137,-0.80604 0.99011,-1.363872 0.18947,-0.22548 0.36821,-0.474909 0.47829,-0.667407 0.0967,-0.169056 0.18059,-0.30255 0.18647,-0.296655 0.0211,0.02111 -0.0509,0.422561 -0.12997,0.724052 -0.10904,0.416106 -0.19955,0.661396 -0.35973,0.974986 -0.11845,0.231888 -0.17136,0.299583 -0.43009,0.550331 -0.23788,0.230533 -0.75124,0.656687 -1.23349,1.023948 l -0.0669,0.05099 z m -13.8893,-2.084654 c -0.0573,-0.05039 -0.13312,-0.14252 -0.1685,-0.204732 -0.0354,-0.06222 -0.16695,-0.292574 -0.29237,-0.511909 -0.39934,-0.698358 -0.63813,-1.257046 -0.75822,-1.773945 -0.0652,-0.280719 -0.0688,-0.925144 -0.006,-1.113872 l 0.0411,-0.123766 0.0471,0.16502 c 0.0516,0.180672 0.0894,0.275831 0.27282,0.687576 0.0674,0.151267 0.26184,0.69273 0.43207,1.203257 0.17023,0.510524 0.31903,0.928228 0.33067,0.928228 0.0328,0 0.0545,-0.07657 0.0545,-0.191324 0,-0.180485 0.11184,-0.774718 0.19433,-1.032561 0.0886,-0.277055 0.21979,-0.543027 0.40226,-0.815796 0.21699,-0.324383 0.21731,-0.324294 0.23698,0.06593 0.009,0.185521 0.005,0.419936 -0.009,0.520918 -0.0368,0.258963 -0.25499,0.891514 -0.42522,1.232801 -0.189,0.378908 -0.21118,0.45378 -0.23116,0.780425 l -0.0168,0.275357 z m 14.83197,-0.159707 c -9e-5,-0.236531 -0.003,-0.247713 -0.18177,-0.653194 -0.43176,-0.980382 -0.48159,-1.160899 -0.4954,-1.794572 -0.005,-0.230681 0.002,-0.419424 0.0145,-0.419424 0.0795,0 0.40751,0.510246 0.52706,0.819893 0.11715,0.30344 0.27062,0.941235 0.29426,1.222854 0.0111,0.132709 0.0327,0.244097 0.0478,0.247524 0.0151,0.0034 0.18291,-0.45788 0.37285,-1.02513 0.21705,-0.648206 0.39373,-1.126529 0.47559,-1.287524 0.0716,-0.140887 0.14962,-0.342004 0.17332,-0.446926 0.0864,-0.38235 0.12726,-0.182771 0.11315,0.551821 -0.01,0.499509 -0.0117,0.514809 -0.11359,0.837474 -0.13518,0.428095 -0.31618,0.830046 -0.55792,1.239002 -0.1073,0.18152 -0.25972,0.447613 -0.33873,0.591315 -0.0791,0.143706 -0.17032,0.282664 -0.20291,0.308798 -0.11202,0.08981 -0.12803,0.06584 -0.12812,-0.191911 z m 0.30476,-1.66572 c -0.0163,-0.04258 -0.0297,-0.111771 -0.0297,-0.153752 0,-0.131493 -0.15239,-0.387515 -0.46812,-0.786437 -0.35033,-0.442645 -0.58361,-0.814946 -0.83791,-1.337263 -0.17738,-0.364339 -0.30765,-0.702362 -0.28097,-0.729053 0.007,-0.0076 0.11099,0.08424 0.22973,0.204086 0.11875,0.119851 0.28397,0.270146 0.36716,0.333991 0.41487,0.318362 0.71179,0.731415 0.86711,1.206307 0.0257,0.07843 0.0576,0.135813 0.0711,0.127512 0.0352,-0.02176 0.0306,-0.207947 -0.0189,-0.759821 -0.0392,-0.436813 -0.0394,-0.534059 -0.003,-0.948855 0.0438,-0.495802 0.0432,-0.508908 -0.0404,-0.93897 -0.0304,-0.156355 -0.0506,-0.288886 -0.045,-0.294512 0.0147,-0.01472 0.25899,0.327071 0.32067,0.448664 0.0774,0.152512 0.21291,0.593515 0.26852,0.873711 0.0701,0.353367 0.0641,0.96827 -0.0137,1.398837 -0.0697,0.385042 -0.27081,1.229274 -0.32157,1.349283 l -0.0354,0.08369 z m -15.4007,-0.03946 c -0.0498,-0.121414 -0.0796,-0.236724 -0.20783,-0.804465 -0.16592,-0.734739 -0.19147,-0.935051 -0.17176,-1.346358 0.0382,-0.795835 0.19892,-1.336411 0.53449,-1.797154 0.0528,-0.07256 0.10028,-0.127729 0.10542,-0.122597 0.005,0.0052 -0.0147,0.123745 -0.0439,0.263584 -0.0842,0.402352 -0.0909,0.563778 -0.0425,1.026907 0.0411,0.39301 0.0413,0.469829 0.003,0.873625 -0.0468,0.489823 -0.0543,0.799461 -0.0194,0.799461 0.0125,0 0.0616,-0.10222 0.10907,-0.227155 0.13447,-0.354003 0.34699,-0.687172 0.56308,-0.882744 0.1027,-0.09295 0.32994,-0.302038 0.50497,-0.464649 0.17503,-0.162614 0.32912,-0.295657 0.34242,-0.295657 0.0686,0 -0.35236,0.932253 -0.6271,1.388903 -0.0728,0.121012 -0.27768,0.403658 -0.45528,0.628101 -0.39272,0.496293 -0.44409,0.581924 -0.5017,0.836433 -0.0248,0.109669 -0.0488,0.199397 -0.0534,0.199397 -0.005,0 -0.0222,-0.03403 -0.0392,-0.07563 z m 0.45927,-2.688423 c -0.0136,-1.024522 0.0137,-1.230384 0.21395,-1.622677 0.18672,-0.365607 0.56535,-0.87743 0.70399,-0.951625 0.0515,-0.02757 0.0517,-0.02568 0.008,0.05904 -0.0801,0.154953 -0.11945,0.294258 -0.18009,0.638197 -0.0327,0.185291 -0.11407,0.510163 -0.18086,0.721938 -0.12142,0.384939 -0.17943,0.701325 -0.12858,0.701325 0.0146,0 0.0864,-0.09308 0.15961,-0.206851 0.16116,-0.250353 0.29642,-0.378673 0.61267,-0.581177 0.43909,-0.281184 0.56906,-0.374263 0.73177,-0.524056 0.0887,-0.08166 0.16651,-0.143243 0.1729,-0.136849 0.0202,0.02014 -0.1008,0.300714 -0.20372,0.472578 -0.14547,0.24296 -0.44769,0.640154 -0.63045,0.828596 -0.14194,0.146339 -0.33469,0.298253 -0.86141,0.678875 -0.18971,0.137099 -0.33003,0.26799 -0.33003,0.307864 0,0.01684 -0.0182,0.05463 -0.0403,0.084 -0.036,0.04764 -0.0411,-0.0027 -0.0473,-0.469172 z m 14.50358,0.494585 c -0.0122,-0.07858 -0.29634,-0.346012 -0.5793,-0.545179 -0.50988,-0.358864 -0.92629,-0.787739 -1.2432,-1.280402 -0.1326,-0.206149 -0.26565,-0.513528 -0.23538,-0.543797 0.009,-0.0091 0.11442,0.07484 0.23406,0.186542 0.13229,0.123511 0.34396,0.278529 0.54022,0.395613 0.40928,0.244176 0.52218,0.343889 0.7164,0.632792 0.0864,0.128455 0.16958,0.233552 0.18496,0.233552 0.0505,0 -0.003,-0.27713 -0.12958,-0.680401 -0.0679,-0.215267 -0.13752,-0.475121 -0.15456,-0.577452 -0.0728,-0.436809 -0.11059,-0.591713 -0.17608,-0.720965 -0.0382,-0.0754 -0.0695,-0.146394 -0.0695,-0.157768 0,-0.05196 0.3491,0.331495 0.49288,0.541412 0.34409,0.502304 0.47326,0.866977 0.4725,1.333894 -3.4e-4,0.264256 -0.0445,1.239731 -0.0534,1.182159 z m -9.33561,-2.020315 c 0.23469,-0.695445 0.42034,-1.281065 0.41254,-1.301376 -0.008,-0.02031 -0.40838,-0.314003 -0.89018,-0.652644 -0.48181,-0.338642 -0.98121,-0.690528 -1.10978,-0.781972 l -0.23378,-0.166262 1.41282,-0.01375 1.41282,-0.01375 0.10141,-0.302537 c 0.62719,-1.871259 0.75412,-2.241153 0.76521,-2.230049 0.0165,0.01646 0.0827,0.208103 0.51632,1.494346 l 0.35465,1.05199 h 1.41067 c 0.77587,0 1.41013,0.0093 1.40949,0.02062 -0.003,0.0429 -0.56042,0.438012 -1.77084,1.253979 -0.26578,0.179162 -0.48323,0.334709 -0.48323,0.34566 0,0.01096 0.19094,0.591477 0.42432,1.290055 0.23338,0.698574 0.41914,1.270138 0.41278,1.270138 -0.006,0 -0.5098,-0.348779 -1.11878,-0.775066 -0.60897,-0.426284 -1.12592,-0.775475 -1.14876,-0.775977 -0.0359,-6.75e-4 -1.73337,1.147291 -2.1369,1.445285 -0.0788,0.05817 -0.14868,0.105758 -0.15535,0.105758 -0.006,0 0.17988,-0.569003 0.41457,-1.264454 z m 0.99916,-0.08319 c 0.45182,-0.31766 0.83446,-0.577562 0.8503,-0.577562 0.0158,0 0.4093,0.259971 0.87436,0.577713 0.5157,0.352333 0.84867,0.563514 0.8535,0.541322 0.005,-0.02001 -0.1347,-0.455491 -0.30903,-0.967723 -0.17432,-0.512231 -0.31403,-0.933356 -0.31046,-0.935834 0.77177,-0.535079 1.61536,-1.131499 1.65591,-1.170729 0.0534,-0.05165 0.0377,-0.05247 -1.01132,-0.05247 h -1.06557 l -0.0271,-0.06188 c -0.0149,-0.03402 -0.16177,-0.457927 -0.32634,-0.941979 -0.19481,-0.573028 -0.31216,-0.8801 -0.33635,-0.8801 -0.0381,0 -0.17688,0.385866 -0.42531,1.182634 -0.0707,0.226897 -0.15725,0.477519 -0.19223,0.556935 l -0.0636,0.14439 h -1.04662 c -0.81982,0 -1.04628,0.0074 -1.04504,0.03438 6.8e-4,0.0189 0.20781,0.176708 0.45984,0.350661 0.51152,0.353055 1.19605,0.828675 1.21455,0.843875 0.009,0.0077 -0.56114,1.751664 -0.62143,1.899553 -0.008,0.0189 3.3e-4,0.03438 0.0182,0.03438 0.0177,0 0.40192,-0.259902 0.85374,-0.577562 z m 7.37653,0.387022 c -0.37105,-0.204574 -0.90981,-0.743675 -1.12592,-1.126642 -0.0393,-0.0697 -0.14401,-0.251343 -0.23263,-0.403648 -0.0886,-0.15231 -0.16114,-0.290333 -0.16114,-0.306719 0,-0.04488 0.22618,0.03066 0.42539,0.142062 0.21937,0.122679 0.46286,0.303453 0.62395,0.463232 0.18991,0.18836 0.5147,0.748151 0.63215,1.089526 0.0873,0.253783 0.0693,0.269612 -0.1618,0.142189 z m -12.73621,-0.04756 c 0.0815,-0.295165 0.37591,-0.852691 0.58467,-1.107186 0.14251,-0.173724 0.42421,-0.398823 0.68797,-0.549736 0.20539,-0.117517 0.45535,-0.211385 0.45535,-0.171002 0,0.0382 -0.46078,0.825554 -0.55353,0.94584 -0.31807,0.412494 -0.67322,0.745542 -0.95533,0.89591 -0.22053,0.11754 -0.25481,0.115378 -0.21913,-0.01382 z"
       id="path4"
       sodipodi:nodetypes="csssscssssccssccssscssssssscssscccsssssssssssssssscsscsssccssscsscssccccssssssssssscssssscccsssssssssssscssssssssssssssssssssscssssscssssssssssscsssssscsssssssscsscsscssssssssssssssscssssssscscssssssccsssssssssssssssssssssscssssssssssscsssssssssscsssscssssscccssscscssssscssscsssscsscssssscscssssccssssssssssssssss" /><text
       xml:space="preserve"
       style="font-size:2.87163px;line-height:1;font-family:'Lifestyle Rounded M54';-inkscape-font-specification:'Lifestyle Rounded M54';text-align:end;letter-spacing:0.0413436px;word-spacing:0.0139644px;writing-mode:lr-tb;direction:ltr;text-anchor:end;fill:#ffffff;stroke:#ffffff;stroke-width:0.199398"
       x="78.893539"
       y="82.775658"
       id="text3-7"
       transform="rotate(-10.533889)"><tspan
         sodipodi:role="line"
         id="tspan3-4"
         style="font-size:2.87163px;stroke-width:0.199397"
         x="78.934883"
         y="82.775658">раднички</tspan></text><text
       xml:space="preserve"
       style="font-size:2.87163px;line-height:1;font-family:'Lifestyle Rounded M54';-inkscape-font-specification:'Lifestyle Rounded M54';text-align:end;letter-spacing:0.0600616px;word-spacing:0.0202868px;writing-mode:lr-tb;direction:ltr;text-anchor:end;fill:#ffffff;stroke:#ffffff;stroke-width:0.289674"
       x="199.83047"
       y="33.715096"
       id="text3-7-3"
       transform="rotate(10.445453)"><tspan
         sodipodi:role="line"
         id="tspan3-4-0"
         style="font-size:2.87163px;stroke-width:0.289673"
         x="199.89053"
         y="33.715096">чекић</tspan></text><text
       xml:space="preserve"
       style="font-size:4.2597px;line-height:1;font-family:'Lifestyle Rounded M54';-inkscape-font-specification:'Lifestyle Rounded M54';text-align:end;letter-spacing:0.0600616px;word-spacing:0.0202868px;writing-mode:lr-tb;direction:ltr;text-anchor:end;fill:#ffffff;stroke:#ffffff;stroke-width:0.289674"
       x="94.83046"
       y="22.531937"
       id="text3"><tspan
         sodipodi:role="line"
         id="tspan3"
         style="stroke-width:0.289673"
         x="94.890518"
         y="22.531937">раднички чекић</tspan></text><text
       xml:space="preserve"
       style="font-size:4.2597px;line-height:1;font-family:'Lifestyle Rounded M54';-inkscape-font-specification:'Lifestyle Rounded M54';text-align:end;letter-spacing:0.0600616px;word-spacing:0.0202868px;writing-mode:lr-tb;direction:ltr;text-anchor:end;fill:#ffffff;stroke:#ffffff;stroke-width:0.289674"
       x="213.15921"
       y="22.531937"
       id="text3-4"><tspan
         sodipodi:role="line"
         id="tspan3-7"
         style="stroke-width:0.289673"
         x="213.21927"
         y="22.531937">раднички чекић</tspan></text><rect
       style="fill:#c42c36;fill-rule:evenodd;stroke-width:0.264583;fill-opacity:1"
       id="rect9"
       width="54.945"
       height="9.0956249"
       x="108.405"
       y="16.334999"
       ry="0" /><text
       xml:space="preserve"
       style="font-size:8.52444px;line-height:1;font-family:'Lifestyle Rounded M54';-inkscape-font-specification:'Lifestyle Rounded M54';text-align:end;letter-spacing:0.120194px;word-spacing:0.0405976px;writing-mode:lr-tb;direction:ltr;text-anchor:end;fill:none;stroke:#ffffff;stroke-width:0.579689"
       x="161.1006"
       y="24.73662"
       id="text2"><tspan
         sodipodi:role="line"
         id="tspan2"
         style="stroke:#ffffff;stroke-width:0.579688"
         x="161.22079"
         y="24.73662">BELGRADE</tspan></text></g></svg>
