<?xml version="1.0" encoding="UTF-8" standalone="no"?>
<!-- Created with Inkscape (http://www.inkscape.org/) -->

<svg
   width="105.83334mm"
   height="105.83334mm"
   viewBox="0 0 105.83333 105.83333"
   version="1.1"
   id="svg1"
   xml:space="preserve"
   inkscape:version="1.4 (e7c3feb100, 2024-10-09)"
   sodipodi:docname="atlanta.svg"
   inkscape:export-filename="../pngs/NBL.png"
   inkscape:export-xdpi="96"
   inkscape:export-ydpi="96"
   xmlns:inkscape="http://www.inkscape.org/namespaces/inkscape"
   xmlns:sodipodi="http://sodipodi.sourceforge.net/DTD/sodipodi-0.dtd"
   xmlns="http://www.w3.org/2000/svg"
   xmlns:svg="http://www.w3.org/2000/svg"><sodipodi:namedview
     id="namedview1"
     pagecolor="#ffffff"
     bordercolor="#000000"
     borderopacity="0.25"
     inkscape:showpageshadow="2"
     inkscape:pageopacity="0.0"
     inkscape:pagecheckerboard="0"
     inkscape:deskcolor="#d1d1d1"
     inkscape:document-units="mm"
     inkscape:zoom="1.6952882"
     inkscape:cx="221.49626"
     inkscape:cy="226.51016"
     inkscape:window-width="1920"
     inkscape:window-height="1011"
     inkscape:window-x="0"
     inkscape:window-y="32"
     inkscape:window-maximized="1"
     inkscape:current-layer="layer1"
     showgrid="false" /><defs
     id="defs1" /><g
     inkscape:label="Capa 1"
     inkscape:groupmode="layer"
     id="layer1"><ellipse
       style="fill:#ffffff;stroke-width:0.988631"
       id="path3"
       cx="53.392956"
       cy="55.170685"
       rx="50.488586"
       ry="49.240028" /><path
       style="fill:#ff0000;stroke-width:4.94863"
       d="M 48.798384,104.4512 C 40.064727,103.77819 31.785871,100.88723 24.230605,95.872163 9.3183458,85.973639 0.66919017,69.0876 1.3186529,51.14038 1.5743962,44.072685 3.085226,37.636554 5.9657679,31.343421 12.808865,16.393282 26.664658,5.4437753 42.79594,2.2384638 57.354688,-0.65438624 72.040954,2.6921535 83.992976,11.626032 95.24378,20.03575 102.78345,33.251759 104.32472,47.264783 c 0.34189,3.108611 0.28414,9.248785 -0.1153,12.25334 -1.73652,13.062451 -8.081854,24.608236 -18.203438,33.122424 -1.684781,1.417228 -2.142251,1.705436 -2.447607,1.542014 -1.559799,-0.834777 -6.017216,-4.748297 -5.706898,-5.010534 0.09401,-0.07947 1.019411,-0.791681 2.056394,-1.582701 C 83.777584,84.637462 88.16191,79.71541 90.622354,75.560722 96.617054,65.438124 98.400607,53.311588 95.540199,42.12388 92.816212,31.469751 86.18318,22.158213 77.079734,16.208825 62.259521,6.5233572 43.38664,6.5832249 28.582424,16.362678 c -4.853981,3.206465 -9.707611,8.166967 -12.813198,13.095328 -3.418932,5.42562 -5.720705,11.927162 -6.4896315,18.330521 -0.5570019,4.638465 -0.1505337,11.25785 0.9583545,15.607123 0.493429,1.935302 1.341185,4.608771 1.461046,4.607487 0.06824,-7.33e-4 0.53888,-1.061286 1.045837,-2.356779 1.86743,-4.772104 5.223017,-10.74352 7.960504,-14.166061 0.587733,-0.734811 1.068606,-1.37933 1.068606,-1.432266 0,-0.164046 -3.170216,1.603334 -4.703219,2.622008 -0.800861,0.532163 -2.002815,1.422545 -2.671018,1.978631 -0.668208,0.556087 -1.213341,0.936923 -1.211418,0.846309 0.0098,-0.463537 2.054415,-3.888879 3.327665,-5.575012 5.029061,-6.659845 13.104022,-12.129037 19.498676,-13.206499 0.857838,-0.144559 1.466481,-0.320423 1.352532,-0.390844 -0.185275,-0.11451 -1.721559,-0.308644 -5.951185,-0.751952 l -1.356284,-0.142173 2.508484,-1.285962 c 4.329341,-2.219418 8.183709,-3.566857 12.57373,-4.395627 1.661965,-0.313744 3.06338,-0.393367 6.903578,-0.392228 4.241459,0.0012 5.106733,0.06067 7.227461,0.496321 8.068999,1.657492 15.41204,5.62917 19.508681,10.551785 l 1.016794,1.221802 -0.552032,0.834172 c -0.3036,0.458789 -0.514668,0.868515 -0.468983,0.910478 0.04552,0.04206 0.977169,0.523465 2.070004,1.070001 2.820317,1.410466 4.894308,2.862026 6.706925,4.694095 1.847473,1.867293 2.785757,3.377224 3.264754,5.253782 0.737735,2.890236 -0.193838,5.873453 -2.5712,8.23405 l -1.21728,1.208685 -0.13515,-0.918294 c -0.176369,-1.19823 -0.581418,-1.943023 -1.626043,-2.989963 -2.626173,-2.632 -9.020464,-3.71486 -13.91955,-2.357249 -4.104644,1.137448 -7.294381,3.873161 -9.363796,8.030938 -1.176357,2.363494 -1.80495,4.586223 -2.005522,7.091624 -0.159588,1.993687 0.03662,2.01608 0.447899,0.05107 0.698999,-3.340852 3.007886,-7.499996 5.32392,-9.590304 1.649494,-1.488732 3.195306,-2.392845 5.406906,-3.162375 1.647164,-0.573135 2.136198,-0.645325 4.768284,-0.703873 l 2.932887,-0.06522 -1.361699,0.292712 c -2.542447,0.546536 -4.132356,1.28629 -5.851461,2.722558 -5.334536,4.456875 -6.856003,13.885816 -3.669651,22.741788 1.752361,4.870413 5.263005,9.558177 8.952753,11.954596 1.69181,1.098798 1.766421,0.97972 -1.631303,2.603515 -8.26107,3.948044 -17.310272,5.628004 -26.500688,4.919824 z M 71.659786,44.17781 c 0.972335,-0.330221 2.0458,-1.000527 1.85548,-1.158601 -0.420483,-0.349226 -6.536134,-3.924598 -6.713036,-3.924598 -0.549693,0 0.782743,2.85107 1.897767,4.060725 l 0.875414,0.949713 -0.56231,0.141141 c -0.833978,0.209327 -0.226202,0.47774 0.813508,0.35927 0.475018,-0.05407 1.299934,-0.24654 1.833177,-0.427658 z"
       id="path2" /></g></svg>
