<?xml version="1.0" encoding="UTF-8" standalone="no"?>
<!-- Created with Inkscape (http://www.inkscape.org/) -->

<svg
   width="105.83334mm"
   height="105.83334mm"
   viewBox="0 0 105.83333 105.83333"
   version="1.1"
   id="svg1"
   xml:space="preserve"
   inkscape:version="1.4 (e7c3feb100, 2024-10-09)"
   sodipodi:docname="boston.svg"
   xmlns:inkscape="http://www.inkscape.org/namespaces/inkscape"
   xmlns:sodipodi="http://sodipodi.sourceforge.net/DTD/sodipodi-0.dtd"
   xmlns="http://www.w3.org/2000/svg"
   xmlns:svg="http://www.w3.org/2000/svg"><sodipodi:namedview
     id="namedview1"
     pagecolor="#ffffff"
     bordercolor="#000000"
     borderopacity="0.25"
     inkscape:showpageshadow="2"
     inkscape:pageopacity="0.0"
     inkscape:pagecheckerboard="0"
     inkscape:deskcolor="#d1d1d1"
     inkscape:document-units="mm"
     inkscape:zoom="1.1157835"
     inkscape:cx="384.48319"
     inkscape:cy="251.84097"
     inkscape:window-width="1920"
     inkscape:window-height="1011"
     inkscape:window-x="0"
     inkscape:window-y="32"
     inkscape:window-maximized="1"
     inkscape:current-layer="layer2"
     showgrid="false" /><defs
     id="defs1"><inkscape:path-effect
       effect="bspline"
       id="path-effect18"
       is_visible="true"
       lpeversion="1.3"
       weight="33.333333"
       steps="2"
       helper_size="0"
       apply_no_weight="true"
       apply_with_weight="true"
       only_selected="false"
       uniform="false" /><inkscape:path-effect
       effect="bspline"
       id="path-effect17"
       is_visible="true"
       lpeversion="1.3"
       weight="33.333333"
       steps="2"
       helper_size="0"
       apply_no_weight="true"
       apply_with_weight="true"
       only_selected="false"
       uniform="false" /></defs><g
     inkscape:groupmode="layer"
     id="layer2"
     inkscape:label="Capa 2"><g
       id="g7"
       transform="matrix(0.93147752,0,0,0.93147752,-102.39607,-11.172929)"><circle
         style="fill:#000000;fill-opacity:1;stroke-width:4.18339"
         id="path1-5-3"
         cx="-166.73804"
         cy="68.804237"
         r="55.36935"
         transform="scale(-1,1)" /><circle
         style="fill:#ffffff;stroke-width:4.02215"
         id="path1-5"
         cx="-166.73804"
         cy="68.804237"
         r="53.235199"
         transform="scale(-1,1)" /><circle
         style="fill:#007a33;fill-opacity:1;stroke-width:3.84299"
         id="path1"
         cx="166.73804"
         cy="68.804237"
         r="50.863922" /><g
         id="g2"
         transform="matrix(0.86984167,0,0,0.86984167,122.86484,24.737234)"><text
           xml:space="preserve"
           style="font-size:25.9241px;line-height:1;font-family:Sport;-inkscape-font-specification:Sport;text-align:center;letter-spacing:0px;writing-mode:lr-tb;direction:ltr;text-anchor:middle;fill:#000000;fill-opacity:1;stroke:#ffffff;stroke-width:1.46972;stroke-dasharray:none;stroke-opacity:1"
           x="70.965233"
           y="92.385658"
           id="text27"
           transform="matrix(1.1044355,0,-0.34459184,0.90543993,0,0)"><tspan
             sodipodi:role="line"
             id="tspan27"
             style="font-style:normal;font-variant:normal;font-weight:normal;font-stretch:normal;font-family:'The Augusta';-inkscape-font-specification:'The Augusta';fill:#000000;stroke:#ffffff;stroke-width:1.46972"
             x="70.965233"
             y="92.385658">Gaelics</tspan></text><text
           xml:space="preserve"
           style="font-size:25.9241px;line-height:1;font-family:Sport;-inkscape-font-specification:Sport;text-align:center;letter-spacing:0px;writing-mode:lr-tb;direction:ltr;text-anchor:middle;fill:#000000;fill-opacity:1;stroke:none;stroke-width:1.46972;stroke-dasharray:none;stroke-opacity:1"
           x="70.965233"
           y="92.385658"
           id="text27-6"
           transform="matrix(1.1044355,0,-0.34459184,0.90543993,0,0)"><tspan
             sodipodi:role="line"
             id="tspan27-3"
             style="font-style:normal;font-variant:normal;font-weight:normal;font-stretch:normal;font-family:'The Augusta';-inkscape-font-specification:'The Augusta';fill:#000000;stroke:none;stroke-width:1.46972"
             x="70.965233"
             y="92.385658">Gaelics</tspan></text></g><g
         id="text28"
         transform="rotate(90,147.06968,58.84352)"><path
           style="-inkscape-font-specification:'Ranked Sports'"
           d="m 199.97025,50.791991 -0.61646,2.394592 -1.16558,-0.300064 0.11636,-0.45196 -3.36591,-0.866512 -0.11635,0.451959 -1.16558,-0.300064 0.5593,-2.172577 q 0.15207,-0.590719 0.45068,-0.978851 0.29464,-0.389152 0.72854,-0.531087 0.43096,-0.146919 0.9979,-9.69e-4 0.30527,0.07859 0.55829,0.245181 0.25404,0.162629 0.40634,0.392065 l 0.13472,-0.09636 q 0.25821,-0.149119 0.56317,-0.16784 0.30201,-0.0237 0.61125,0.0559 0.88806,0.22862 1.20848,0.839521 0.32143,0.606936 0.0948,1.487067 z m -3.59389,-0.637748 q 0.051,-0.198228 0.0459,-0.309471 -0.008,-0.116229 -0.0355,-0.17401 -0.0146,-0.0418 -0.059,-0.08283 -0.0473,-0.046 -0.16231,-0.0756 -0.14272,-0.03674 -0.21036,-0.02034 -0.0706,0.01142 -0.10253,0.03701 -0.0498,0.02944 -0.10708,0.120388 -0.0602,0.08596 -0.1061,0.264369 l -0.0725,0.281483 0.7493,0.192899 z m 2.42831,0.337684 q 0.0204,-0.07929 0.0232,-0.188494 -10e-4,-0.110222 -0.10869,-0.218209 -0.11144,-0.109007 -0.42464,-0.189637 -0.24581,-0.06328 -0.37224,-0.01551 -0.1304,0.04675 -0.18163,0.130789 -0.0552,0.08302 -0.0685,0.134559 l -0.14288,0.555038 1.14575,0.294961 z m 2.14081,-4.021051 q -0.0695,0.449076 -0.33401,0.847264 -0.26798,0.393517 -0.72044,0.66737 -0.45184,0.269807 -1.08343,0.362684 -0.58864,0.08295 -1.21823,0.0022 -0.59067,-0.09135 -1.13205,-0.340775 -0.54542,-0.25005 -0.9494,-0.664639 -0.37879,-0.389981 -0.5216,-0.859455 -0.14217,-0.47352 -0.0696,-0.942824 0.0726,-0.469305 0.35583,-0.881173 0.27983,-0.41654 0.75656,-0.686639 0.49822,-0.275061 1.08965,-0.349295 0.58738,-0.07486 1.17806,0.01649 0.62708,0.09698 1.18402,0.352954 0.5681,0.290842 0.91545,0.696672 0.34797,0.401783 0.48331,0.86596 0.13533,0.464177 0.0659,0.913253 z m -1.45863,-0.238009 q 0.0194,-0.125418 -0.007,-0.249626 -0.0257,-0.128254 -0.10035,-0.235071 -0.2052,-0.280285 -0.54808,-0.420305 -0.34631,-0.144692 -0.72256,-0.202881 -0.33175,-0.05131 -0.70525,-0.04693 -0.37288,3.29e-4 -0.65716,0.15106 -0.28429,0.150731 -0.37485,0.521978 -0.0386,0.383427 0.16791,0.601775 0.20713,0.214301 0.53821,0.323499 0.3317,0.105152 0.66283,0.160504 0.27106,0.04192 0.54183,0.05894 0.27078,0.01702 0.5139,-0.02823 0.24312,-0.04525 0.43806,-0.180801 0.2118,-0.190939 0.25247,-0.453911 z m 1.89627,-4.366657 q -0.0507,0.882811 -0.51854,1.389014 -0.4676,0.502115 -1.2667,0.493122 l -0.0916,0.166963 -0.67146,-0.01806 0.0303,-1.384252 0.62265,0.01116 q 0.12693,0.0032 0.25283,-0.04699 0.12182,-0.05041 0.21154,-0.184677 0.0897,-0.134266 0.10451,-0.391753 0.0148,-0.257486 -0.0431,-0.392029 -0.062,-0.134777 -0.15748,-0.185369 -0.0955,-0.05059 -0.17725,-0.05529 l -0.0245,-0.0014 q -0.0817,-0.0047 -0.16198,0.0358 -0.0841,0.03618 -0.18151,0.161798 -0.0972,0.121535 -0.21346,0.360891 -0.39312,0.990261 -0.87647,1.409461 -0.4831,0.415113 -1.25556,0.370745 -0.55585,-0.03193 -0.93295,-0.320123 -0.38095,-0.292518 -0.55948,-0.753836 -0.18262,-0.461551 -0.15117,-1.009221 0.0427,-0.74385 0.56323,-1.238827 0.51641,-0.495211 1.28736,-0.496036 l 0.10363,-0.162171 0.5325,0.01008 q -0.051,0.673665 -0.11402,1.342539 l -0.24569,-0.0059 q -0.2666,0.0011 -0.457,0.174679 -0.19448,0.173355 -0.20927,0.430842 -0.02,0.347402 0.14372,0.496223 0.0226,0.0341 0.12482,0.03997 0.0736,0.0042 0.13699,-0.02904 0.0423,-0.02217 0.15361,-0.175703 0.10748,-0.157849 0.2741,-0.488626 0.32501,-0.875257 0.84058,-1.284405 0.51172,-0.41347 1.30052,-0.368163 0.53541,0.03075 0.90598,0.28987 0.36649,0.258883 0.55075,0.691826 0.18426,0.432942 0.17277,0.98996 z m -0.0935,-5.606839 0.089,2.426007 -1.19868,0.04395 -0.0173,-0.470473 -3.44059,0.126162 0.0114,0.310921 0.83769,0.165919 0.0381,1.039132 -2.066,0.07576 -0.16816,-4.586094 2.06599,-0.07576 0.0384,1.047315 -0.82343,0.222733 0.0115,0.315013 3.44059,-0.126162 -0.0172,-0.470474 z m -0.27553,-3.461551 q 0.0608,0.450324 -0.0799,0.907217 -0.1453,0.453383 -0.50146,0.844366 -0.3567,0.386926 -0.93598,0.655201 -0.54091,0.246568 -1.16754,0.347738 -0.59232,0.08001 -1.18222,-0.0055 -0.59396,-0.08501 -1.09898,-0.367926 -0.47388,-0.266468 -0.74403,-0.676125 -0.27069,-0.413713 -0.33426,-0.884322 -0.0636,-0.47061 0.0912,-0.945922 0.15013,-0.478822 0.53063,-0.873093 0.39968,-0.405125 0.94574,-0.644126 0.542,-0.238454 1.13432,-0.318464 0.62883,-0.08494 1.2355,0.0025 0.62729,0.117685 1.07551,0.408275 0.44767,0.286532 0.70916,0.693228 0.26149,0.406695 0.32232,0.85702 z m -1.46622,0.185663 q -0.017,-0.125766 -0.0775,-0.23739 -0.0611,-0.115682 -0.16293,-0.196936 -0.2763,-0.210537 -0.64482,-0.247508 -0.37313,-0.04048 -0.75043,0.01049 -0.33267,0.04494 -0.68958,0.155114 -0.35745,0.106119 -0.58729,0.331322 -0.22983,0.225203 -0.21132,0.606886 0.0718,0.378616 0.33176,0.529395 0.25942,0.146722 0.60788,0.157486 0.34791,0.0067 0.68113,-0.03417 0.27182,-0.03672 0.53629,-0.09723 0.26447,-0.06051 0.48476,-0.172888 0.22029,-0.112376 0.36876,-0.297672 0.14891,-0.243189 0.11329,-0.506893 z m -0.0899,-6.926798 0.32221,1.307758 -2.39129,2.153411 1.59793,-0.393708 -0.13907,-0.564443 1.15671,-0.284997 0.56608,2.29752 -1.15671,0.284998 -0.10871,-0.44122 -3.34691,0.824632 0.10871,0.441219 -1.16068,0.285977 -0.43974,-1.784752 2.44285,-2.132384 -1.63768,0.403501 0.13907,0.564443 -1.16068,0.285977 -0.56608,-2.297521 1.16068,-0.285977 0.10969,0.445195 z"
           id="path6" /><path
           style="-inkscape-font-specification:'Ranked Sports';fill:#ffffff"
           d="m 199.63281,25.769531 -4.5039,1.109375 -0.10938,-0.445312 -1.62305,0.40039 0.67969,2.757813 0.98242,-0.242188 -0.85742,0.75 0.53125,2.15625 0.36524,-0.08984 c -0.0847,0.146993 -0.21339,0.275153 -0.26368,0.435546 -0.11282,0.347329 -0.14677,0.699849 -0.0996,1.048829 0.0471,0.348931 0.1727,0.679197 0.3711,0.982421 0.13673,0.20734 0.35508,0.353496 0.55859,0.509766 l -0.53515,0.01953 0.18554,5.060547 0.36133,-0.01367 c -0.33835,0.357272 -0.56254,0.78916 -0.5918,1.298828 -0.0227,0.395215 0.0327,0.769385 0.16797,1.111329 0.1335,0.344173 0.34758,0.634949 0.63477,0.855468 h 0.002 c 0.12436,0.09504 0.3035,0.09782 0.45117,0.15625 -0.13884,0.05278 -0.29573,0.06492 -0.42578,0.136719 h -0.002 c -0.34606,0.196065 -0.62781,0.451906 -0.83594,0.761719 -0.20672,0.301071 -0.34069,0.628527 -0.39453,0.976562 -0.0538,0.347963 -0.028,0.701771 0.0762,1.048828 h 0.002 c 0.1069,0.351426 0.30278,0.671608 0.57812,0.955079 v 0.002 c 0.12114,0.124315 0.28688,0.195109 0.42578,0.298828 -0.14448,0.0096 -0.30896,-0.04284 -0.4414,0.002 -0.33516,0.109636 -0.62378,0.320171 -0.84571,0.613281 -0.22195,0.289143 -0.38286,0.64541 -0.49023,1.0625 l -0.61914,2.402344 1.62695,0.417969 0.11523,-0.451172 2.90625,0.748047 -0.11718,0.451172 1.62695,0.419921 0.67578,-2.625 0.0781,-0.302734 -0.0996,0.002 c 0.0746,-0.492442 0.108,-0.973526 -0.0937,-1.355469 -0.18133,-0.345705 -0.59293,-0.51651 -0.98633,-0.697265 0.32919,-0.07328 0.65443,-0.153558 0.91406,-0.308594 0.327,-0.197917 0.59568,-0.445702 0.79492,-0.738281 v -0.002 c 0.0741,-0.111477 0.0888,-0.241044 0.14258,-0.359375 l 0.10156,0.240234 0.12696,-0.822266 c 0.0517,-0.334645 0.0268,-0.67787 -0.0723,-1.017578 -0.10023,-0.343769 -0.28022,-0.66292 -0.53125,-0.953125 -0.20746,-0.242384 -0.49759,-0.432436 -0.80273,-0.613281 l 0.006,-0.0098 c 0.49,-0.03802 0.9471,-0.160347 1.25976,-0.496093 v -0.002 c 0.35573,-0.384901 0.54598,-0.909389 0.58203,-1.53711 v -0.002 l 0.002,-0.132812 c 0.008,-0.398804 -0.0535,-0.763832 -0.19141,-1.087891 -0.13839,-0.325165 -0.35087,-0.595188 -0.63086,-0.792969 h -0.002 c -0.28748,-0.20102 -0.63734,-0.30952 -1.0293,-0.332031 -0.57012,-0.03275 -1.07201,0.10409 -1.46289,0.419922 -0.13985,0.111251 -0.21067,0.348363 -0.32812,0.5 0.023,-0.26593 0.0462,-0.531782 0.0664,-0.798828 l 0.0195,-0.25 -0.23633,-0.0039 -0.0273,-0.732421 -0.35351,-0.07031 2.48632,-0.08984 0.0176,0.46875 1.67383,-0.06055 -0.10742,-2.90039 -1.67188,0.06055 0.0156,0.470703 -2.48047,0.08984 0.34375,-0.0918 -0.0273,-0.759766 c 0.22145,0.003 0.44251,0.03383 0.66406,0.0039 h 0.002 0.004 c 0.43712,-0.07057 0.84755,-0.19353 1.22851,-0.367187 0.40885,-0.189343 0.74902,-0.42402 1.01172,-0.708985 l 0.002,-0.002 c 0.25741,-0.282569 0.44276,-0.594549 0.55079,-0.93164 v -0.002 h 0.002 c 0.1031,-0.334788 0.1331,-0.674898 0.0879,-1.009766 -8e-5,-6.03e-4 8e-5,-0.0014 0,-0.002 -0.0455,-0.334924 -0.16639,-0.654064 -0.35742,-0.951172 -0.19396,-0.30167 -0.4575,-0.558407 -0.78125,-0.765625 v 0.002 c -0.0537,-0.03482 -0.13257,-0.04101 -0.18946,-0.07227 l 0.93555,-0.230468 -0.67969,-2.759766 -1.00976,0.25 0.87695,-0.791016 z m -0.34961,0.574219 0.23242,0.939453 -2.28515,2.058594 0.21484,0.40625 1.83008,-0.449219 -0.14062,-0.564453 0.69531,-0.171875 0.45312,1.835937 -0.69531,0.171875 -0.10937,-0.441406 -3.8086,0.9375 0.084,0.339844 c -0.0779,0.06106 -0.17437,0.0999 -0.2461,0.167969 l -0.42773,0.105468 -0.34766,-1.412109 2.33399,-2.037109 -0.21485,-0.410157 -1.86719,0.460938 0.13868,0.564453 -0.69922,0.171875 -0.45313,-1.835937 0.69922,-0.173829 0.11133,0.445313 z m -3.26758,2.171875 -0.39843,0.347656 -0.0586,-0.234375 z m 2.625,0.195312 0.0586,0.240235 -0.44727,0.109375 z m -0.9375,2.361329 c 0.39713,-0.05364 0.78503,-0.05259 1.16602,0.002 0.39038,0.07399 0.7173,0.199899 0.98438,0.373047 h 0.002 c 0.27314,0.174825 0.48203,0.382455 0.63672,0.623046 0.15728,0.244617 0.25133,0.494914 0.28711,0.759766 8e-5,6.4e-4 -9e-5,0.0013 0,0.002 0.0355,0.264925 0.012,0.528992 -0.0723,0.802735 -0.0858,0.266845 -0.23216,0.515621 -0.44922,0.753906 -0.21289,0.230937 -0.4978,0.431252 -0.86133,0.599609 -0.33797,0.153876 -0.70431,0.263769 -1.09961,0.328125 -0.20663,0.02791 -0.41142,0.0021 -0.61718,-0.002 l -0.01,-0.246094 -1.0957,0.04102 c -0.13449,-0.05047 -0.28455,-0.06831 -0.41016,-0.138672 v 0.002 c -0.28738,-0.161599 -0.50413,-0.362003 -0.66211,-0.601562 -0.16188,-0.2479 -0.25933,-0.507214 -0.29687,-0.785157 -0.0376,-0.277856 -0.0111,-0.554042 0.082,-0.839843 v -0.002 c 0.0836,-0.266537 0.23701,-0.508296 0.44726,-0.736329 l 0.6211,-0.152343 -0.0625,-0.251953 c 0.1169,-0.07253 0.20825,-0.172873 0.33984,-0.230469 0.34109,-0.150064 0.69694,-0.250347 1.07031,-0.300781 z m 0.98243,0.992187 c -0.26729,-0.02884 -0.53524,-0.02468 -0.80469,0.01172 -0.23614,0.0319 -0.47939,0.08716 -0.72852,0.164062 -0.26821,0.07989 -0.5001,0.208881 -0.68359,0.388672 -0.20344,0.199343 -0.296,0.482861 -0.28125,0.78711 v 0.01758 l 0.004,0.01563 c 0.0566,0.298322 0.20553,0.552334 0.44531,0.691406 l 0.002,0.002 c 0.21047,0.119036 0.453,0.179351 0.7168,0.1875 h 0.002 0.002 c 0.24271,0.0047 0.48122,-0.0065 0.71485,-0.03516 v -0.002 h 0.002 c 0.18824,-0.02543 0.37521,-0.05765 0.5586,-0.09961 0.19351,-0.04427 0.37328,-0.108792 0.53906,-0.193359 0.17471,-0.08912 0.32513,-0.211332 0.44531,-0.361328 l 0.01,-0.01172 0.008,-0.01172 c 0.12366,-0.201949 0.17741,-0.435117 0.14648,-0.664062 -0.015,-0.111063 -0.0503,-0.217766 -0.10351,-0.316406 v -0.002 c -0.0554,-0.104461 -0.13225,-0.195836 -0.22461,-0.269531 l -0.002,-0.002 -0.002,-0.002 c -0.21889,-0.166794 -0.48001,-0.266141 -0.76367,-0.294922 z m -0.0488,0.472656 h 0.002 v 0.002 c 0.20629,0.0207 0.37478,0.08635 0.52344,0.199219 4.8e-4,3.68e-4 10e-4,-3.69e-4 0.002,0 0.0408,0.03343 0.0706,0.07162 0.0957,0.119141 h 0.002 v 0.002 c 0.027,0.04974 0.0432,0.100244 0.0508,0.15625 0.0159,0.11783 -0.008,0.221589 -0.0762,0.337891 -0.0756,0.09057 -0.166,0.164857 -0.2793,0.222656 -0.12795,0.06527 -0.27057,0.115938 -0.42969,0.152344 -0.16924,0.03872 -0.33948,0.07022 -0.51367,0.09375 -0.20943,0.02559 -0.42276,0.03735 -0.64258,0.0332 -0.20007,-0.0062 -0.36097,-0.05088 -0.49609,-0.126953 -0.10222,-0.05929 -0.16688,-0.162695 -0.20703,-0.351563 -0.005,-0.189587 0.0341,-0.311451 0.13281,-0.408203 0.12257,-0.120091 0.28258,-0.21179 0.49024,-0.273438 h 0.002 c 0.22676,-0.07 0.44297,-0.120417 0.65039,-0.148437 0.23296,-0.03147 0.46378,-0.03467 0.69336,-0.0098 z m -2.10742,3.048828 c 0.19507,0.06485 0.37478,0.165371 0.58398,0.195313 0.0357,0.0052 0.0717,-0.0043 0.10742,0 l 0.0137,0.400391 -0.82226,0.222656 0.0273,0.742187 3.91407,-0.144531 -0.0156,-0.470703 0.72266,-0.02734 0.0723,1.951172 -0.72461,0.02734 -0.0176,-0.470703 -3.91406,0.144531 0.0254,0.736328 0.83789,0.166016 0.0117,0.330078 -0.20508,-0.0039 -0.14453,0.230468 c -0.0752,0.0062 -0.12676,0.06294 -0.19922,0.07617 l -1.03125,0.03906 -0.15039,-4.111328 z m 3.21484,4.419922 c 0.32119,0.01845 0.57489,0.102221 0.78125,0.246094 0.20866,0.147397 0.36146,0.337751 0.46875,0.589844 0.10776,0.253197 0.16139,0.548691 0.1543,0.892578 l -0.002,0.119141 c -0.0316,0.549361 -0.18897,0.950197 -0.45703,1.240234 -0.26506,0.283911 -0.60815,0.421437 -1.08984,0.416016 h -0.14063 l -0.0918,0.164062 -0.15235,-0.0039 c -0.0446,-0.01615 -0.0916,-0.02622 -0.13672,-0.04102 l 0.0195,-0.875 0.38671,0.0078 c 0.11726,0.0027 0.23329,-0.02042 0.34375,-0.06445 h 0.002 0.002 c 0.13105,-0.05423 0.23857,-0.154036 0.31836,-0.273438 0.0954,-0.142839 0.13126,-0.31301 0.14258,-0.509766 0.011,-0.191751 0.003,-0.352984 -0.0606,-0.5 l -0.002,-0.002 -0.002,-0.002 c -0.056,-0.121675 -0.13972,-0.232232 -0.26172,-0.296875 -0.0858,-0.04543 -0.17545,-0.0764 -0.27344,-0.08203 l -0.0254,-0.002 c -0.0946,-0.0054 -0.18976,0.01815 -0.27344,0.05859 -0.11429,0.05062 -0.19421,0.130822 -0.27148,0.230468 -0.0829,0.104085 -0.15873,0.234539 -0.24024,0.402344 l -0.004,0.0078 -0.002,0.0098 c -0.254,0.639817 -0.53615,1.076735 -0.8125,1.316406 -0.2712,0.232405 -0.61693,0.339439 -1.08593,0.3125 -0.3318,-0.01906 -0.59111,-0.109907 -0.80079,-0.269531 l -0.002,-0.002 c -0.21916,-0.168895 -0.37623,-0.381049 -0.48047,-0.650391 h -0.002 v -0.002 c -0.1082,-0.273457 -0.154,-0.57319 -0.13477,-0.908203 0.0255,-0.443747 0.18395,-0.788824 0.49024,-1.080078 0.20148,-0.193211 0.48364,-0.224131 0.75,-0.287109 l 0.72851,-0.02734 c -0.0164,0.198105 -0.0328,0.396277 -0.0508,0.59375 h -0.0254 -0.004 c -0.22821,9.42e-4 -0.44597,0.08273 -0.61329,0.234375 -0.17104,0.152469 -0.27595,0.367553 -0.28906,0.595703 -0.0151,0.26141 0.0465,0.497737 0.21289,0.662109 0.0459,0.05066 0.0972,0.08634 0.13867,0.09961 0.0503,0.01609 0.0939,0.02271 0.14063,0.02539 0.0885,0.0051 0.18231,-0.015 0.26172,-0.05664 0.076,-0.03985 0.0936,-0.07127 0.12695,-0.109375 0.0333,-0.0381 0.0677,-0.08195 0.10742,-0.136719 l 0.002,-0.0039 0.002,-0.002 c 0.083,-0.121844 0.17753,-0.290336 0.29101,-0.515625 l 0.006,-0.01172 0.004,-0.01367 c 0.2066,-0.556389 0.4675,-0.943102 0.76563,-1.179687 h 0.002 v -0.002 c 0.29141,-0.235461 0.65706,-0.342115 1.13867,-0.314453 z m -2.29492,1.203125 h 0.0273 c -0.0222,0.05402 -0.063,0.07244 -0.084,0.128907 l 0.0117,-0.02539 c -0.10868,0.215747 -0.19943,0.374269 -0.25977,0.462891 -0.0281,0.03842 -0.0496,0.06604 -0.0664,0.08594 -0.0328,-0.04059 -0.0683,-0.100291 -0.0586,-0.269531 0.007,-0.115166 0.0426,-0.188908 0.13086,-0.267578 v -0.002 h 0.002 c 0.0863,-0.07868 0.17049,-0.11276 0.29688,-0.113282 z m 2.1914,0.294922 0.0254,0.002 c 0.011,6.33e-4 0.0366,0.0053 0.0781,0.02734 0.005,0.0027 0.0252,0.01851 0.0508,0.07227 0.0139,0.03308 0.034,0.130723 0.0254,0.28125 -0.008,0.146561 -0.0422,0.237255 -0.0664,0.273437 -0.0391,0.05846 -0.0707,0.08252 -0.10157,0.0957 -0.0568,0.02264 -0.10685,0.03254 -0.1582,0.03125 h -0.002 l -0.4043,-0.0078 c 0.0705,-0.144975 0.1644,-0.200751 0.23047,-0.367188 l -0.008,0.01758 c 0.073,-0.150376 0.13941,-0.25872 0.18554,-0.316406 l 0.002,-0.002 v -0.002 c 0.0514,-0.0663 0.0929,-0.09007 0.0879,-0.08789 l 0.008,-0.0039 0.006,-0.0039 c 0.0213,-0.01073 0.0301,-0.0104 0.041,-0.0098 z m -1.02539,1.529297 -0.01,0.455078 c -0.0821,-0.01768 -0.15452,-0.0587 -0.23828,-0.07227 0.002,-0.0017 0.006,-2.21e-4 0.008,-0.002 h 0.002 c 0.0933,-0.08092 0.15279,-0.276582 0.23828,-0.380859 z m -1.46679,0.828125 c 0.36965,-0.04711 0.73899,-0.04196 1.11133,0.01563 0.11901,0.01841 0.22124,0.07225 0.33593,0.09961 l -0.004,0.152344 0.5625,0.01367 c 0.0715,0.02802 0.15293,0.03445 0.22265,0.06641 0.35424,0.18193 0.63056,0.394474 0.83789,0.636719 l 0.002,0.002 c 0.21231,0.245145 0.35548,0.502749 0.43554,0.777344 0.0812,0.278526 0.099,0.54509 0.0586,0.808594 -1e-4,6.33e-4 10e-5,0.0013 0,0.002 -0.0411,0.264173 -0.13837,0.51334 -0.29688,0.751953 v -0.0039 c -0.15806,0.23211 -0.3702,0.430436 -0.64648,0.597656 -0.26942,0.16058 -0.59848,0.273849 -0.99414,0.332031 -0.36783,0.05165 -0.75103,0.05242 -1.14844,0.002 -0.37233,-0.05758 -0.72726,-0.165113 -1.06836,-0.322265 -0.33859,-0.155227 -0.63023,-0.358073 -0.87891,-0.613282 -0.22902,-0.235794 -0.37922,-0.488138 -0.46289,-0.761718 -0.0854,-0.284303 -0.10545,-0.562068 -0.0625,-0.839844 0.0429,-0.277106 0.1461,-0.533586 0.31641,-0.78125 v -0.002 h 0.002 c 0.16448,-0.244831 0.38553,-0.447524 0.67383,-0.611328 0.30523,-0.168515 0.63743,-0.276267 1.00391,-0.322266 z m 0.25195,0.978516 c -0.27901,7.99e-4 -0.53927,0.05967 -0.76562,0.179687 -0.25165,0.133422 -0.42196,0.379851 -0.49415,0.675781 l -0.004,0.01563 -0.002,0.01563 c -0.0304,0.302119 0.0419,0.58767 0.23242,0.789063 v 0.002 h 0.002 c 0.16804,0.173862 0.38413,0.302099 0.63477,0.384766 h 0.002 c 0.2314,0.07335 0.46315,0.12916 0.69531,0.167968 l 0.002,0.002 h 0.002 c 0.18772,0.02903 0.37475,0.04875 0.5625,0.06055 0.19812,0.01245 0.38931,0.0028 0.57226,-0.03125 0.19282,-0.03589 0.3715,-0.109021 0.5293,-0.21875 l 0.0137,-0.0098 0.01,-0.0098 c 0.1174,-0.105839 0.1606,-0.255476 0.21875,-0.396484 l 0.0801,-0.002 0.0312,-0.195313 c 0.017,-0.110125 0.0129,-0.222939 -0.01,-0.332031 -0.0233,-0.116506 -0.0707,-0.228849 -0.13867,-0.326172 l -0.002,-0.002 -0.002,-0.002 c -0.16238,-0.221801 -0.38304,-0.389943 -0.64648,-0.498047 -0.24867,-0.103895 -0.50995,-0.177093 -0.7793,-0.21875 -0.23426,-0.03623 -0.48102,-0.05362 -0.74023,-0.05078 z m 0.004,0.476562 h 0.002 c 0.23729,-0.0028 0.45917,0.01098 0.66602,0.04297 0.23231,0.03593 0.45488,0.09847 0.66796,0.1875 l 0.002,0.002 c 0.19256,0.07864 0.33464,0.188676 0.44531,0.339844 0.03,0.0439 0.048,0.08764 0.0586,0.140625 l 0.002,0.002 v 0.002 c 0.0118,0.05531 0.0125,0.108258 0.004,0.164063 -0.0183,0.118434 -0.0702,0.209771 -0.16992,0.302734 -0.0979,0.06503 -0.20545,0.11157 -0.33008,0.134766 -0.1412,0.02628 -0.29216,0.03368 -0.45508,0.02344 -0.17263,-0.01085 -0.34452,-0.02994 -0.51757,-0.05664 h -0.002 c -0.20873,-0.03498 -0.4167,-0.08569 -0.62695,-0.152343 -0.18832,-0.06253 -0.33014,-0.149303 -0.4375,-0.259766 -0.0813,-0.08596 -0.11681,-0.203591 -0.10156,-0.396484 0.049,-0.184644 0.12346,-0.288499 0.24609,-0.353516 0.15159,-0.08038 0.33026,-0.122856 0.54688,-0.123047 z m -1.93164,2.945313 c 0.23443,-0.07992 0.51609,-0.08302 0.86132,0.0059 0.17961,0.04624 0.33998,0.116532 0.48633,0.212891 h 0.002 l 0.002,0.002 c 0.14478,0.09269 0.25377,0.19848 0.33594,0.322265 l 0.13476,0.205079 0.32227,-0.228516 c 0.13918,-0.07932 0.28642,-0.124532 0.45312,-0.134766 h 0.002 0.002 c 0.17434,-0.01368 0.35064,0.0018 0.5332,0.04883 0.54923,0.141392 0.87932,0.382618 1.05664,0.720704 h 0.002 c 0.18123,0.34222 0.21525,0.768703 0.0742,1.316406 l -0.0781,0.302734 -0.47852,1.861328 -0.70703,-0.18164 0.11719,-0.451172 -3.82617,-0.984375 -0.11719,0.451172 -0.70508,-0.181641 0.5,-1.941406 c 0.0951,-0.369612 0.23473,-0.666507 0.41016,-0.894531 0.17093,-0.225759 0.36991,-0.369608 0.61328,-0.449219 h 0.002 z m 0.43359,1 c -0.0597,0.01013 -0.12187,0.02878 -0.18555,0.07422 -0.0791,0.05101 -0.12724,0.113059 -0.17187,0.183594 -0.0661,0.09613 -0.1047,0.203876 -0.13867,0.335938 l -0.13282,0.509765 1.20899,0.3125 0.12109,-0.464843 c 0.0371,-0.144393 0.0581,-0.262088 0.0527,-0.378907 v -0.002 -0.0039 c -0.006,-0.08843 -0.0188,-0.164981 -0.0547,-0.246094 -0.0266,-0.06908 -0.069,-0.122887 -0.11524,-0.166015 -0.0813,-0.07746 -0.1692,-0.10995 -0.26562,-0.134766 -0.10952,-0.02819 -0.20085,-0.04599 -0.31836,-0.01953 z m 1.93164,0.396484 c -0.11736,0.04276 -0.22692,0.114305 -0.29687,0.226563 -0.0428,0.06471 -0.0791,0.121843 -0.0996,0.201171 l -0.20118,0.785157 1.60547,0.414062 0.18946,-0.734375 c 0.0195,-0.07582 0.029,-0.156074 0.0312,-0.242187 v -0.0039 -0.0039 c -10e-4,-0.150168 -0.0796,-0.282454 -0.17969,-0.382812 v -0.002 h -0.002 c -0.13292,-0.130015 -0.304,-0.191497 -0.53125,-0.25 -0.18668,-0.04806 -0.34992,-0.06906 -0.51368,-0.0078 z m -1.83594,0.05664 c -0.0319,0.02561 -0.0348,0.01577 -0.01,0.01172 l 0.01,-0.002 0.01,-0.002 c -0.0316,0.0077 0.0156,-5.74e-4 0.0937,0.01953 0.0555,0.01429 0.0759,0.03432 0.0566,0.01563 l 0.002,0.002 0.002,0.002 0.006,0.01172 c -0.004,-0.0092 0.009,0.02632 0.0137,0.08789 9e-4,0.03336 -0.009,0.117313 -0.0391,0.234375 v 0.0039 l -0.29101,-0.07617 0.0137,-0.05078 c 0.0267,-0.103578 0.0582,-0.170228 0.0703,-0.1875 l 0.004,-0.0039 0.004,-0.0059 c 0.0278,-0.04414 0.0501,-0.05564 0.0254,-0.04102 l 0.0156,-0.0098 z m 2.00391,0.386718 c 0.004,-0.0016 0.0881,-0.0127 0.22851,0.02344 0.19035,0.049 0.30269,0.115531 0.31836,0.130859 0.0369,0.03822 0.0373,0.04917 0.0371,0.04687 0,-5.9e-5 0,0.002 0,0.002 -0.002,0.05469 -0.008,0.100691 -0.0156,0.128907 l -0.0703,0.271484 -0.68555,-0.175781 0.084,-0.324219 c -0.003,0.01277 0.008,-0.01871 0.0371,-0.0625 l 0.002,-0.0039 0.002,-0.0039 c -0.002,0.0038 0.005,-0.01201 0.0586,-0.03125 h 0.002 z"
           id="path7" /></g><g
         id="g1"
         transform="translate(116.6669,14.701926)"><path
           style="fill:#ffb380;stroke:#000000;stroke-width:1.08446;stroke-dasharray:none"
           d="m 69.288369,48.356785 c -1.25305,2.612521 -2.18977,2.868732 -1.43967,5.68158 1.06857,7.838549 -3.34684,11.338631 -10.44099,13.624481 -1.15431,0.799185 -2.82612,2.309923 -5.59761,0.456951 -11.75576,-2.264655 -19.69499,-7.957708 -22.84741,-19.472566 -8.02028,-13.12321 -0.97608,-12.745493 -0.97608,-12.745493 l 1.20455,-3.309669 z"
           id="path3"
           sodipodi:nodetypes="cccccccc" /><path
           style="fill:#ff6600;stroke:#000000;stroke-width:0.676384;stroke-dasharray:none"
           d="m 28.277979,33.571939 c -0.38812,0.603744 -0.61453,1.466234 -0.58218,2.39341 2.71469,0.505394 8.3907,8.517834 4.91619,13.002033 -1.82201,1.854349 -2.512,0.312654 -3.62246,-0.06469 0.99187,3.180431 1.85436,6.296175 5.11025,10.414564 0.0755,-3.482302 1.55249,-1.379983 2.06998,-1.16436 -1.48779,-3.827298 0.51749,-1.509357 0.77624,-2.264035 -0.53905,-2.134663 -2.21013,-3.816518 -1.61717,-6.403988 2.29205,-3.080667 2.99577,-5.571338 2.39341,-9.185517 z"
           id="path4"
           sodipodi:nodetypes="cccccccccc" /><path
           id="rect5"
           style="fill:#000000;fill-rule:evenodd;stroke-width:0.250846"
           d="m 63.176209,48.44976 c 0.93078,0 1.69621,0.790884 1.82463,1.826208 a 1.3584215,1.1643612 0 0 0 -1.14507,1.149288 1.3584215,1.1643612 0 0 0 1.06862,1.135054 c -0.24474,0.845996 -0.93309,1.452427 -1.74818,1.452427 -1.02134,0 -1.84308,-0.952016 -1.84308,-2.134619 v -1.29374 c 0,-1.182602 0.82174,-2.134618 1.84308,-2.134618 z" /><path
           style="fill:#ff6600;stroke:none;stroke-width:4.55309"
           id="path5"
           d="m 47.730849,44.169779 c 0.50939,0.479589 1.05572,0.917056 1.57267,1.388522 0.25606,0.238045 0.47709,0.508269 0.65767,0.807434 0.0912,0.151087 0.14727,0.254123 0.18806,0.423673 0.0144,0.06005 0.0168,0.122371 0.0252,0.183554 -0.0246,0.413336 -0.30732,0.703999 -0.60507,0.959558 -0.35955,0.292468 -0.79621,0.459541 -1.22555,0.620268 -0.29127,0.09946 -0.58793,0.179697 -0.88971,0.239401 0,0 8.1e-4,-5.4e-4 8.1e-4,-5.4e-4 v 0 c 0.30177,-0.0597 0.59843,-0.139945 0.88968,-0.239404 0.42874,-0.160502 0.86487,-0.327203 1.22389,-0.619304 0.29774,-0.255529 0.58044,-0.546162 0.60511,-0.959465 -0.008,-0.06118 -0.0108,-0.123499 -0.0252,-0.183541 -0.0408,-0.169542 -0.0968,-0.272581 -0.18803,-0.423663 -0.18056,-0.299166 -0.40159,-0.569387 -0.65763,-0.807425 -0.51697,-0.471481 -1.0633,-0.908955 -1.57274,-1.388492 z" /><path
           style="fill:#000000;stroke:none;stroke-width:4.043;stroke-dasharray:none"
           d="m 59.262919,51.312275 c -0.37422,0.572239 -0.79878,1.120686 -0.56601,1.665684 -0.0916,0.156326 -0.18327,0.312654 -0.27491,0.46898 -0.61452,-1.320688 0.84092,-2.134664 0.84092,-2.134664 z"
           id="path18"
           sodipodi:nodetypes="cccc" /><path
           style="fill:#000000;stroke:none;stroke-width:4.2431;stroke-dasharray:none"
           d="m 50.017919,51.497113 c -0.20892,-0.869997 -0.59858,-1.315906 -1.21522,-1.390426 -0.0939,-0.165554 -0.18773,-0.331102 -0.28159,-0.496652 2.13821,0.02033 1.49681,1.887078 1.49681,1.887078 z"
           id="path18-3"
           sodipodi:nodetypes="cccc" /><path
           style="fill:#000000;stroke:none;stroke-width:4.2431;stroke-dasharray:none"
           d="m 46.255819,56.649823 c -0.20893,-0.869997 -2.56542,-2.573767 -3.29641,-0.612837 -0.0253,0.383331 0.10958,1.04111 0.26729,1.150002 0.65165,-2.952796 3.02912,-0.537165 3.02912,-0.537165 z"
           id="path18-3-23"
           sodipodi:nodetypes="ccccc" /><path
           style="fill:#000000;stroke:none;stroke-width:4.2431;stroke-dasharray:none"
           d="m 31.720759,44.357248 c -0.7874,-0.424896 -3.62881,0.193434 -2.65601,2.046337 0.26867,0.274594 0.84857,0.61307 1.03491,0.568261 -1.76451,-2.455636 1.62111,-2.6146 1.62111,-2.6146 z"
           id="path18-3-23-2"
           sodipodi:nodetypes="ccccc" /><path
           style="fill:#000000;stroke:none;stroke-width:4.2431;stroke-dasharray:none"
           d="m 31.786789,46.671731 c 0.11107,-4.035399 -1.9692,-7.946307 -3.78204,-7.989366 -0.33477,0.188436 -0.76606,0.455145 -0.77101,0.646732 2.80578,-0.474195 4.55305,7.342636 4.55305,7.342636 z"
           id="path18-3-23-2-7"
           sodipodi:nodetypes="ccccc" /><path
           style="fill:#000000;stroke:none;stroke-width:2.96689;stroke-dasharray:none"
           d="m 49.077559,52.395852 c -0.86157,0.117986 -1.44081,0.0578 -1.80626,-0.187748 -0.19031,-6.49e-4 -0.38061,-0.0013 -0.57092,-0.0019 1.05931,0.908152 2.37718,0.189707 2.37718,0.189707 z"
           id="path18-3-7"
           sodipodi:nodetypes="cccc" /><path
           style="fill:#000000;stroke:none;stroke-width:4.2431;stroke-dasharray:none"
           d="m 49.343299,52.322834 c -3.07076,-2.908239 -5.24682,-2.66296 -7.77897,-3.014211 -0.0939,-0.165554 0.87751,-0.845171 0.78364,-1.010722 6.97857,0.918115 6.99533,4.024933 6.99533,4.024933 z"
           id="path18-3-2"
           sodipodi:nodetypes="cccc" /><path
           style="fill:#000000;stroke:none;stroke-width:4.043;stroke-dasharray:none"
           d="m 52.437969,55.306724 c -0.37422,0.572239 -2.99814,2.058644 0.19406,4.269324 -0.0916,0.156327 -0.40968,0.199453 -0.50132,0.35578 -4.25315,-2.856999 0.30726,-4.625104 0.30726,-4.625104 z"
           id="path18-2"
           sodipodi:nodetypes="cccc" /><path
           style="fill:#000000;stroke:none;stroke-width:4.04301;stroke-dasharray:none"
           d="m 56.772489,54.174664 c 5.44007,-2.028456 9.78659,6.659649 -0.7439,6.048211 -0.28761,-1.962403 -3.14608,-1.231915 -1.42311,-0.501322 -2.27209,0.303377 -0.45778,-3.138135 1.98911,-0.06469 6.40993,0.898591 6.31972,-5.953677 0.1779,-5.482201 z"
           id="path19"
           sodipodi:nodetypes="cccccc" /><path
           style="fill:#000000;stroke:none;stroke-width:4.04301;stroke-dasharray:none"
           d="m 61.637239,62.071707 c -2.9107,1.256531 -11.97681,0.318108 -17.1779,-5.821399 l -0.14014,0.436583 1.04675,1.472073 c -0.41585,10.869804 13.17806,11.378576 15.00783,5.041266 l 1.07601,-0.76088 z"
           id="path20"
           sodipodi:nodetypes="ccccccc" /><path
           style="fill:#ffffff;stroke:none;stroke-width:4.04301;stroke-dasharray:none"
           d="m 59.520689,63.214063 -0.65986,1.187751 c -3.52414,0.935254 -9.98419,-0.08781 -12.29982,-3.510464 v -2.005979 c 3.3169,3.316905 8.50782,4.575041 12.95968,4.328692 z"
           id="path21"
           sodipodi:nodetypes="ccccc" /><path
           style="fill:#ffffff;stroke:none;stroke-width:2.71678;stroke-dasharray:none"
           d="m 57.033779,65.565066 -0.24145,0.522174 c -3.02587,1.157618 -6.05619,0.364089 -8.752,-1.5426 -0.0455,-0.447013 0.16941,-0.71054 0.12393,-1.157552 2.44299,1.991835 5.9424,2.32255 8.86952,2.177978 z"
           id="path21-2"
           sodipodi:nodetypes="ccccc" /><ellipse
           style="opacity:0.227712;fill:#ff6600;fill-opacity:1;stroke:none;stroke-width:2.03989;stroke-dasharray:none;stroke-opacity:1"
           id="path26-1-0-2"
           cx="-26.153561"
           cy="50.126171"
           rx="18.316963"
           ry="7.8838062"
           transform="matrix(-0.99780207,-0.0662648,0.51069724,0.85976062,0,0)"
           inkscape:transform-center-x="-1.7452025"
           inkscape:transform-center-y="-5.9166419" /><path
           style="fill:#007a33;fill-opacity:1;stroke:#000000;stroke-width:1.08446;stroke-dasharray:none"
           d="m 78.726139,42.751108 c -14.48103,16.811979 -48.62945,0.844969 -54.98129,-15.646505 -3.43816,-10.605824 6.49752,-11.072014 9.61516,-8.216599 6.36467,-22.8067403 45.45713,-6.452075 38.72292,15.29686 3.72134,0.820979 10.8843,3.51874 6.64321,8.566244 z"
           id="path22"
           sodipodi:nodetypes="ccccc" /><path
           style="fill:#ffffff;fill-opacity:1;stroke:#000000;stroke-width:1.08446;stroke-dasharray:none"
           d="m 72.694799,31.737366 c 0,0.437055 -0.61187,5.244638 -0.61187,5.244638 -5.73997,5.681692 -29.21293,8.044353 -40.29631,-12.936772 l 1.66081,-4.807585 c 11.14377,12.850428 27.08679,18.226404 39.24737,12.499719 z"
           id="path23"
           sodipodi:nodetypes="ccccc" /><path
           style="fill:#000000;stroke:none;stroke-width:4.2431;stroke-dasharray:none"
           d="m 63.833859,35.365655 c 4.15118,0.06041 4.73721,-0.257154 8.15449,-1.761278 0.16946,0.08663 0.3783,1.994586 0.1201,1.22592 -6.1662,3.215111 -8.27459,0.535358 -8.27459,0.535358 z"
           id="path18-3-2-7"
           sodipodi:nodetypes="cccc" /><path
           style="fill:#ffffff;stroke:none;stroke-width:8.10255;stroke-dasharray:none"
           d="m 59.571469,47.694538 c 8.38981,1.101963 19.49119,-6.977123 17.60946,-8.312152 6.16636,0.774015 -8.87911,11.263802 -17.60946,8.312152 z"
           id="path18-3-2-7-0"
           sodipodi:nodetypes="ccc" /><path
           style="fill:#ffffff;stroke:none;stroke-width:5.24966;stroke-dasharray:none"
           d="m 71.466559,28.901733 c -0.16959,-5.479845 -6.49272,-11.736945 -7.15034,-10.39452 -0.14761,-4.023847 8.12808,4.504167 7.15034,10.39452 z"
           id="path18-3-2-7-0-8"
           sodipodi:nodetypes="ccc" /><path
           style="fill:#000000;stroke:none;stroke-width:4.2431;stroke-dasharray:none"
           d="m 38.754699,27.782154 c -3.45942,-2.295285 -3.76358,-2.888394 -5.73357,-6.060037 -0.18877,-0.02424 -1.43896,1.432093 -0.79166,0.943705 3.27163,6.136395 6.52523,5.116332 6.52523,5.116332 z"
           id="path18-3-2-7-5"
           sodipodi:nodetypes="cccc" /><path
           style="fill:#000000;stroke:none;stroke-width:5.69503;stroke-dasharray:none"
           d="m 42.968389,32.461797 c 6.44247,2.873595 8.09992,3.195596 14.25542,4.176285 0.19135,0.18305 -0.13753,0.679321 -0.20277,1.247251 -11.52703,-1.644078 -14.05265,-5.423536 -14.05265,-5.423536 z"
           id="path18-3-2-7-9"
           sodipodi:nodetypes="cccc" /><path
           d="m 46.074559,29.59277 c 0.25201,-3.088203 -0.3159,-2.22054 -1.95643,-6.615273 -0.38868,-1.041214 -0.3999,-1.073559 -0.36686,-1.05841 0.0574,0.0265 0.38738,0.629078 0.5258,0.960615 0.0745,0.17833 0.20203,0.578963 0.28348,0.890285 0.39442,1.50752 1.02311,2.58994 1.86904,3.217913 0.2931,0.21758 0.89409,0.464923 1.27408,0.524374 0.66185,0.103506 1.35533,-0.05528 1.75628,-0.402158 0.72604,-0.628127 0.83819,-1.622983 0.2889,-2.563241 -0.0686,-0.117481 -0.17647,-0.275816 -0.23964,-0.351855 l -0.11486,-0.13826 0.36537,-0.02771 c 0.58075,-0.04404 1.12642,-0.284131 1.5055,-0.662427 0.28815,-0.287547 0.49444,-0.778206 0.51463,-1.223842 0.0211,-0.467779 -0.2197,-1.049584 -0.595,-1.437473 -0.47546,-0.491415 -1.22527,-0.849676 -1.88596,-0.901105 -0.44764,-0.03485 -0.81776,-0.0125 -1.28018,0.07733 -0.5482,0.106483 -0.72949,0.16503 -1.81793,0.587102 -0.848,0.328833 -1.08695,0.403844 -1.56153,0.490173 -0.53724,0.09773 -1.06744,0.151371 -1.08408,0.109676 -0.012,-0.03024 0.58607,-0.435922 0.92049,-0.624289 0.42058,-0.236904 0.80035,-0.382792 1.36492,-0.524314 0.2694,-0.06754 0.782,-0.24062 1.1391,-0.384639 0.93872,-0.378582 1.56653,-0.80119 2.04142,-1.374189 0.18301,-0.22082 0.24483,-0.326569 0.39179,-0.670191 0.49738,-1.163007 0.31243,-2.194122 -0.50168,-2.796472 -0.48053,-0.355555 -1.13117,-0.43288 -1.77083,-0.210459 -0.24244,0.0843 -0.8423,0.441334 -0.87694,0.52195 -0.0427,0.09942 -0.0822,-0.01756 -0.10369,-0.307243 -0.0618,-0.833345 -0.43667,-1.452678 -1.09658,-1.811759 -0.65194,-0.354747 -1.49125,-0.242724 -2.10075,0.280404 -0.39908,0.342526 -0.52386,0.521994 -0.78093,1.12319 -0.21356,0.499203 -0.22353,0.535062 -0.24956,0.886083 -0.0284,0.383248 0.0239,1.029872 0.11662,1.440749 0.0958,0.424614 0.33476,1.12985 0.56451,1.665825 0.26783,0.624806 0.40419,1.066044 0.49814,1.611794 0.0779,0.452785 0.12906,0.971148 0.097,0.983924 -0.0763,0.03042 -0.64737,-0.878697 -0.85592,-1.362481 -0.0919,-0.213288 -0.22199,-0.601104 -0.289,-0.861817 -0.53977,-2.100058 -1.50237,-3.389693 -2.80237,-3.754432 -1.0957,-0.307418 -2.00676,-0.02992 -2.50347,0.762509 -0.26605,0.424452 -0.33183,0.979024 -0.18169,1.531801 0.0688,0.25316 0.28093,0.653643 0.47252,0.891913 0.0657,0.08176 0.11511,0.158875 0.10972,0.171389 -0.005,0.0125 -0.10855,0.02509 -0.22926,0.0279 -0.98347,0.02312 -1.82069,0.621654 -2.04769,1.463921 -0.20141,0.747285 0.0768,1.510886 0.75975,2.085321 0.23439,0.197151 0.31677,0.244333 0.76522,0.438387 0.46227,0.200058 0.52862,0.219754 0.82801,0.246 0.90364,0.07923 2.09293,-0.174613 3.21959,-0.687191 0.49832,-0.22671 0.97329,-0.377259 1.49032,-0.472378 0.47997,-0.0883 1.0493,-0.143874 1.06522,-0.103953 0.029,0.07272 -0.9025,0.660446 -1.3691,0.863808 -0.1363,0.05941 -0.53475,0.186497 -0.88544,0.282416 -2.35255,0.64346 -3.574,1.671437 -3.81525,3.210951 -0.0648,0.413378 -0.0327,0.775644 0.101,1.141976 0.19216,0.526332 0.46558,0.827867 0.94536,1.042578 0.66873,0.299264 1.41278,0.187959 2.1338,-0.319202 l 0.29061,-0.204419 0.0137,0.25713 c 0.0351,0.656542 0.28356,1.248468 0.67604,1.610476 0.84914,0.783199 2.09804,0.62524 2.90395,-0.367276 0.25493,-0.313967 0.51517,-0.857363 0.59605,-1.244638 0.19031,-0.911099 0.0294,-1.851627 -0.57633,-3.368487 -0.36243,-0.907588 -0.48037,-1.300975 -0.5741,-1.914835 -0.0856,-0.560496 0.0297,-0.454358 0.32644,0.596444 1.45801,5.161968 1.10403,2.847574 1.30188,6.193108 0.0352,0.594484 0.97813,0.784992 0.99673,0.556999 z"
           id="path25"
           style="fill:#007a33;fill-opacity:1;stroke:#000000;stroke-width:0.612112;stroke-dasharray:none" /><path
           style="fill:#ffffff;stroke:none;stroke-width:6.14889;stroke-dasharray:none"
           d="m 42.160809,22.984267 c -0.56915,0.870301 -1.21486,1.704421 -0.86083,2.533292 -0.13938,0.237752 -0.27875,0.475507 -0.41812,0.713259 -0.93461,-2.008598 1.27895,-3.246551 1.27895,-3.246551 z"
           id="path18-4"
           sodipodi:nodetypes="cccc" /><path
           style="fill:#ffffff;stroke:none;stroke-width:6.14889;stroke-dasharray:none"
           d="m 41.935579,20.712143 c -0.83855,-0.614961 -1.63688,-1.304437 -2.48353,-0.995332 -0.22994,-0.151917 -0.45988,-0.303822 -0.68983,-0.455733 2.0558,-0.825639 3.17336,1.451065 3.17336,1.451065 z"
           id="path18-4-6"
           sodipodi:nodetypes="cccc" /><path
           style="fill:#ffffff;stroke:none;stroke-width:6.14889;stroke-dasharray:none"
           d="m 44.151109,19.930759 c 0.0737,-1.037263 0.0646,-2.092069 0.84814,-2.537569 0.033,-0.273615 0.0659,-0.547227 0.0989,-0.820839 -1.95973,1.033153 -0.94705,3.358408 -0.94705,3.358408 z"
           id="path18-4-6-3"
           sodipodi:nodetypes="cccc" /><path
           style="fill:#ffffff;stroke:none;stroke-width:6.14889;stroke-dasharray:none"
           d="m 45.094919,22.196298 c 1.02228,0.190524 2.07135,0.300713 2.42543,1.129566 0.26813,0.06368 0.53626,0.127374 0.80439,0.191055 -0.80499,-2.063963 -3.22982,-1.320626 -3.22982,-1.320626 z"
           id="path18-4-6-3-1"
           sodipodi:nodetypes="cccc" /><ellipse
           style="opacity:0.227712;fill:#ff6600;fill-opacity:1;stroke:none;stroke-width:0.464934;stroke-dasharray:none;stroke-opacity:1"
           id="path26"
           cx="-52.908653"
           cy="46.276394"
           rx="3.2146871"
           ry="2.3335814"
           transform="matrix(-0.98856595,-0.15078914,-0.22362282,0.97467576,0,0)" /><ellipse
           style="opacity:0.227712;fill:#ff6600;fill-opacity:1;stroke:none;stroke-width:0.412058;stroke-dasharray:none;stroke-opacity:1"
           id="path26-1"
           cx="34.609566"
           cy="83.744781"
           rx="2.6034374"
           ry="2.263329"
           transform="matrix(-0.39954298,0.91671446,0.9481718,0.31775813,0,0)"
           inkscape:transform-center-x="1.6767463"
           inkscape:transform-center-y="-1.3813887" /><path
           id="path26-1-0"
           style="opacity:0.227712;fill:#ff6600;fill-opacity:1;stroke:none;stroke-width:0.66883;stroke-dasharray:none;stroke-opacity:1"
           inkscape:transform-center-x="-0.090168239"
           inkscape:transform-center-y="-2.8525503"
           d="m 57.252629,54.095507 a 2.9152004,5.3252582 84.731972 0 1 4.56289,1.765053 2.9152004,5.3252582 84.731972 0 1 -3.53433,3.875948 2.9152004,5.3252582 84.731972 0 1 -6.62475,-1.51938 2.9152004,5.3252582 84.731972 0 1 3.53433,-3.875948 2.9152004,5.3252582 84.731972 0 1 2.06186,-0.245673 z m 1.20992,1.168267 a 1.0691227,1.5395367 89.999998 0 0 -1.53942,1.068627 1.0691227,1.5395367 89.999998 0 0 1.53942,1.069155 1.0691227,1.5395367 89.999998 0 0 1.53941,-1.069155 1.0691227,1.5395367 89.999998 0 0 -1.53941,-1.068627 z" /></g></g></g></svg>
