<?xml version="1.0" encoding="UTF-8" standalone="no"?>
<!-- Created with Inkscape (http://www.inkscape.org/) -->

<svg
   width="105.83334mm"
   height="105.83334mm"
   viewBox="0 0 105.83333 105.83333"
   version="1.1"
   id="svg1"
   xml:space="preserve"
   inkscape:version="1.4 (e7c3feb100, 2024-10-09)"
   sodipodi:docname="boston.svg"
   xmlns:inkscape="http://www.inkscape.org/namespaces/inkscape"
   xmlns:sodipodi="http://sodipodi.sourceforge.net/DTD/sodipodi-0.dtd"
   xmlns="http://www.w3.org/2000/svg"
   xmlns:svg="http://www.w3.org/2000/svg"><sodipodi:namedview
     id="namedview1"
     pagecolor="#ffffff"
     bordercolor="#000000"
     borderopacity="0.25"
     inkscape:showpageshadow="2"
     inkscape:pageopacity="0.0"
     inkscape:pagecheckerboard="0"
     inkscape:deskcolor="#d1d1d1"
     inkscape:document-units="mm"
     inkscape:zoom="1.1157835"
     inkscape:cx="384.48319"
     inkscape:cy="251.84097"
     inkscape:window-width="1920"
     inkscape:window-height="1011"
     inkscape:window-x="0"
     inkscape:window-y="32"
     inkscape:window-maximized="1"
     inkscape:current-layer="layer2"
     showgrid="false" /><defs
     id="defs1"><inkscape:path-effect
       effect="bspline"
       id="path-effect18"
       is_visible="true"
       lpeversion="1.3"
       weight="33.333333"
       steps="2"
       helper_size="0"
       apply_no_weight="true"
       apply_with_weight="true"
       only_selected="false"
       uniform="false" /><inkscape:path-effect
       effect="bspline"
       id="path-effect17"
       is_visible="true"
       lpeversion="1.3"
       weight="33.333333"
       steps="2"
       helper_size="0"
       apply_no_weight="true"
       apply_with_weight="true"
       only_selected="false"
       uniform="false" /></defs><g
     inkscape:groupmode="layer"
     id="layer2"
     inkscape:label="Capa 2"><g
       id="g1"
       transform="translate(-116.27405,-12.412048)"><circle
         style="fill:#000000;stroke-width:3.84299"
         id="path1"
         cx="169.19072"
         cy="65.32872"
         r="50.863922" /><circle
         style="fill:#ffffff;stroke-width:3.57425"
         id="path1-5"
         cx="169.19072"
         cy="65.32872"
         r="47.307003" /><text
         xml:space="preserve"
         style="font-size:25.9241px;line-height:1;font-family:Sport;-inkscape-font-specification:Sport;text-align:center;letter-spacing:0px;writing-mode:lr-tb;direction:ltr;text-anchor:middle;fill:#000000;fill-opacity:1;stroke:#ffffff;stroke-width:1.46972;stroke-dasharray:none;stroke-opacity:1"
         x="183.74207"
         y="106.09396"
         id="text27"
         transform="matrix(1.1044355,0,-0.34459184,0.90543993,0,0)"><tspan
           sodipodi:role="line"
           id="tspan27"
           style="font-style:normal;font-variant:normal;font-weight:normal;font-stretch:normal;font-family:'The Augusta';-inkscape-font-specification:'The Augusta';fill:#000000;stroke:#ffffff;stroke-width:1.46972"
           x="183.74207"
           y="106.09396">Gaelics</tspan></text><text
         xml:space="preserve"
         style="font-size:25.9241px;line-height:1;font-family:Sport;-inkscape-font-specification:Sport;text-align:center;letter-spacing:0px;writing-mode:lr-tb;direction:ltr;text-anchor:middle;fill:#000000;fill-opacity:1;stroke:none;stroke-width:1.46972;stroke-dasharray:none;stroke-opacity:1"
         x="183.74207"
         y="106.09396"
         id="text27-6"
         transform="matrix(1.1044355,0,-0.34459184,0.90543993,0,0)"><tspan
           sodipodi:role="line"
           id="tspan27-3"
           style="font-style:normal;font-variant:normal;font-weight:normal;font-stretch:normal;font-family:'The Augusta';-inkscape-font-specification:'The Augusta';fill:#000000;stroke:none;stroke-width:1.46972"
           x="183.74207"
           y="106.09396">Gaelics</tspan></text><text
         xml:space="preserve"
         style="font-style:normal;font-variant:normal;font-weight:normal;font-stretch:normal;font-size:8.38415px;line-height:1;font-family:'The Augusta';-inkscape-font-specification:'The Augusta';text-align:center;letter-spacing:0px;writing-mode:lr-tb;direction:ltr;text-anchor:middle;fill:#000000;fill-opacity:1;stroke:#ffffff;stroke-width:0.475324;stroke-dasharray:none;stroke-opacity:1"
         x="172.42616"
         y="107.02902"
         id="text28"><tspan
           sodipodi:role="line"
           id="tspan28"
           style="font-style:normal;font-variant:normal;font-weight:normal;font-stretch:normal;font-family:'Ranked Sports';-inkscape-font-specification:'Ranked Sports';stroke:#ffffff;stroke-width:0.475323"
           x="172.42616"
           y="107.02902">BOSTON</tspan></text><path
         style="fill:#ffb380;stroke:#000000;stroke-width:1.08446;stroke-dasharray:none"
         d="m 155.29762,62.1916 c 1.25305,2.612521 2.18977,2.868732 1.43967,5.68158 -1.06857,7.838549 3.34684,11.338631 10.44099,13.624481 1.15431,0.799185 2.82612,2.309923 5.59761,0.456951 11.75576,-2.264655 19.69499,-7.957708 22.84741,-19.472566 8.02028,-13.12321 0.97608,-12.745493 0.97608,-12.745493 l -1.20455,-3.309669 z"
         id="path3"
         sodipodi:nodetypes="cccccccc" /><path
         style="fill:#ff6600;stroke:#000000;stroke-width:0.676384;stroke-dasharray:none"
         d="m 196.30801,47.406754 c 0.38812,0.603744 0.61453,1.466234 0.58218,2.39341 -2.71469,0.505394 -8.3907,8.517834 -4.91619,13.002033 1.82201,1.854349 2.512,0.312654 3.62246,-0.06469 -0.99187,3.180431 -1.85436,6.296175 -5.11025,10.414564 -0.0755,-3.482302 -1.55249,-1.379983 -2.06998,-1.16436 1.48779,-3.827298 -0.51749,-1.509357 -0.77624,-2.264035 0.53905,-2.134663 2.21013,-3.816518 1.61717,-6.403988 -2.29205,-3.080667 -2.99577,-5.571338 -2.39341,-9.185517 z"
         id="path4"
         sodipodi:nodetypes="cccccccccc" /><path
         id="rect5"
         style="fill:#000000;fill-rule:evenodd;stroke-width:0.250846"
         d="m 161.40978,62.284575 c -0.93078,0 -1.69621,0.790884 -1.82463,1.826208 a 1.3584215,1.1643612 0 0 1 1.14507,1.149288 1.3584215,1.1643612 0 0 1 -1.06862,1.135054 c 0.24474,0.845996 0.93309,1.452427 1.74818,1.452427 1.02134,0 1.84308,-0.952016 1.84308,-2.134619 v -1.29374 c 0,-1.182602 -0.82174,-2.134618 -1.84308,-2.134618 z" /><path
         style="fill:#ff6600;stroke:none;stroke-width:4.55309"
         id="path5"
         d="m 176.85514,58.004594 c -0.50939,0.479589 -1.05572,0.917056 -1.57267,1.388522 -0.25606,0.238045 -0.47709,0.508269 -0.65767,0.807434 -0.0912,0.151087 -0.14727,0.254123 -0.18806,0.423673 -0.0144,0.06005 -0.0168,0.122371 -0.0252,0.183554 0.0246,0.413336 0.30732,0.703999 0.60507,0.959558 0.35955,0.292468 0.79621,0.459541 1.22555,0.620268 0.29127,0.09946 0.58793,0.179697 0.88971,0.239401 0,0 -8.1e-4,-5.4e-4 -8.1e-4,-5.4e-4 v 0 c -0.30177,-0.0597 -0.59843,-0.139945 -0.88968,-0.239404 -0.42874,-0.160502 -0.86487,-0.327203 -1.22389,-0.619304 -0.29774,-0.255529 -0.58044,-0.546162 -0.60511,-0.959465 0.008,-0.06118 0.0108,-0.123499 0.0252,-0.183541 0.0408,-0.169542 0.0968,-0.272581 0.18803,-0.423663 0.18056,-0.299166 0.40159,-0.569387 0.65763,-0.807425 0.51697,-0.471481 1.0633,-0.908955 1.57274,-1.388492 z" /><path
         style="fill:#000000;stroke:none;stroke-width:4.043;stroke-dasharray:none"
         d="m 165.32307,65.14709 c 0.37422,0.572239 0.79878,1.120686 0.56601,1.665684 0.0916,0.156326 0.18327,0.312654 0.27491,0.46898 0.61452,-1.320688 -0.84092,-2.134664 -0.84092,-2.134664 z"
         id="path18"
         sodipodi:nodetypes="cccc" /><path
         style="fill:#000000;stroke:none;stroke-width:4.2431;stroke-dasharray:none"
         d="m 174.56807,65.331928 c 0.20892,-0.869997 0.59858,-1.315906 1.21522,-1.390426 0.0939,-0.165554 0.18773,-0.331102 0.28159,-0.496652 -2.13821,0.02033 -1.49681,1.887078 -1.49681,1.887078 z"
         id="path18-3"
         sodipodi:nodetypes="cccc" /><path
         style="fill:#000000;stroke:none;stroke-width:4.2431;stroke-dasharray:none"
         d="m 178.33017,70.484638 c 0.20893,-0.869997 2.56542,-2.573767 3.29641,-0.612837 0.0253,0.383331 -0.10958,1.04111 -0.26729,1.150002 -0.65165,-2.952796 -3.02912,-0.537165 -3.02912,-0.537165 z"
         id="path18-3-23"
         sodipodi:nodetypes="ccccc" /><path
         style="fill:#000000;stroke:none;stroke-width:4.2431;stroke-dasharray:none"
         d="m 192.86523,58.192063 c 0.7874,-0.424896 3.62881,0.193434 2.65601,2.046337 -0.26867,0.274594 -0.84857,0.61307 -1.03491,0.568261 1.76451,-2.455636 -1.62111,-2.6146 -1.62111,-2.6146 z"
         id="path18-3-23-2"
         sodipodi:nodetypes="ccccc" /><path
         style="fill:#000000;stroke:none;stroke-width:4.2431;stroke-dasharray:none"
         d="m 192.7992,60.506546 c -0.11107,-4.035399 1.9692,-7.946307 3.78204,-7.989366 0.33477,0.188436 0.76606,0.455145 0.77101,0.646732 -2.80578,-0.474195 -4.55305,7.342636 -4.55305,7.342636 z"
         id="path18-3-23-2-7"
         sodipodi:nodetypes="ccccc" /><path
         style="fill:#000000;stroke:none;stroke-width:2.96689;stroke-dasharray:none"
         d="m 175.50843,66.230667 c 0.86157,0.117986 1.44081,0.0578 1.80626,-0.187748 0.19031,-6.49e-4 0.38061,-0.0013 0.57092,-0.0019 -1.05931,0.908152 -2.37718,0.189707 -2.37718,0.189707 z"
         id="path18-3-7"
         sodipodi:nodetypes="cccc" /><path
         style="fill:#000000;stroke:none;stroke-width:4.2431;stroke-dasharray:none"
         d="m 175.24269,66.157649 c 3.07076,-2.908239 5.24682,-2.66296 7.77897,-3.014211 0.0939,-0.165554 -0.87751,-0.845171 -0.78364,-1.010722 -6.97857,0.918115 -6.99533,4.024933 -6.99533,4.024933 z"
         id="path18-3-2"
         sodipodi:nodetypes="cccc" /><path
         style="fill:#000000;stroke:none;stroke-width:4.043;stroke-dasharray:none"
         d="m 172.14802,69.141539 c 0.37422,0.572239 2.99814,2.058644 -0.19406,4.269324 0.0916,0.156327 0.40968,0.199453 0.50132,0.35578 4.25315,-2.856999 -0.30726,-4.625104 -0.30726,-4.625104 z"
         id="path18-2"
         sodipodi:nodetypes="cccc" /><path
         style="fill:#000000;stroke:none;stroke-width:4.04301;stroke-dasharray:none"
         d="m 167.8135,68.009479 c -5.44007,-2.028456 -9.78659,6.659649 0.7439,6.048211 0.28761,-1.962403 3.14608,-1.231915 1.42311,-0.501322 2.27209,0.303377 0.45778,-3.138135 -1.98911,-0.06469 -6.40993,0.898591 -6.31972,-5.953677 -0.1779,-5.482201 z"
         id="path19"
         sodipodi:nodetypes="cccccc" /><path
         style="fill:#000000;stroke:none;stroke-width:4.04301;stroke-dasharray:none"
         d="m 162.94875,75.906522 c 2.9107,1.256531 11.97681,0.318108 17.1779,-5.821399 l 0.14014,0.436583 -1.04675,1.472073 c 0.41585,10.869804 -13.17806,11.378576 -15.00783,5.041266 l -1.07601,-0.76088 z"
         id="path20"
         sodipodi:nodetypes="ccccccc" /><path
         style="fill:#ffffff;stroke:none;stroke-width:4.04301;stroke-dasharray:none"
         d="m 165.0653,77.048878 0.65986,1.187751 c 3.52414,0.935254 9.98419,-0.08781 12.29982,-3.510464 v -2.005979 c -3.3169,3.316905 -8.50782,4.575041 -12.95968,4.328692 z"
         id="path21"
         sodipodi:nodetypes="ccccc" /><path
         style="fill:#ffffff;stroke:none;stroke-width:2.71678;stroke-dasharray:none"
         d="m 167.55221,79.399881 0.24145,0.522174 c 3.02587,1.157618 6.05619,0.364089 8.752,-1.5426 0.0455,-0.447013 -0.16941,-0.71054 -0.12393,-1.157552 -2.44299,1.991835 -5.9424,2.32255 -8.86952,2.177978 z"
         id="path21-2"
         sodipodi:nodetypes="ccccc" /><ellipse
         style="opacity:0.227712;fill:#ff6600;fill-opacity:1;stroke:none;stroke-width:2.03989;stroke-dasharray:none;stroke-opacity:1"
         id="path26-1-0-2"
         cx="216.74496"
         cy="84.938698"
         rx="18.316963"
         ry="7.8838062"
         transform="matrix(0.99780207,-0.0662648,-0.51069724,0.85976062,0,0)"
         inkscape:transform-center-x="1.7452017"
         inkscape:transform-center-y="-5.9166417" /><path
         style="fill:#007a33;fill-opacity:1;stroke:#000000;stroke-width:1.08446;stroke-dasharray:none"
         d="m 145.85985,56.585923 c 14.48103,16.811979 48.62945,0.844969 54.98129,-15.646505 3.43816,-10.605824 -6.49752,-11.072014 -9.61516,-8.216599 -6.36467,-22.8067402 -45.45713,-6.452075 -38.72292,15.29686 -3.72134,0.820979 -10.8843,3.51874 -6.64321,8.566244 z"
         id="path22"
         sodipodi:nodetypes="ccccc" /><path
         style="fill:#ffffff;fill-opacity:1;stroke:#000000;stroke-width:1.08446;stroke-dasharray:none"
         d="m 151.89119,45.572181 c 0,0.437055 0.61187,5.244638 0.61187,5.244638 5.73997,5.681692 29.21293,8.044353 40.29631,-12.936772 l -1.66081,-4.807585 C 179.99479,45.92289 164.05177,51.298866 151.89119,45.572181 Z"
         id="path23"
         sodipodi:nodetypes="ccccc" /><path
         style="fill:#000000;stroke:none;stroke-width:4.2431;stroke-dasharray:none"
         d="m 160.75213,49.20047 c -4.15118,0.06041 -4.73721,-0.257154 -8.15449,-1.761278 -0.16946,0.08663 -0.3783,1.994586 -0.1201,1.22592 6.1662,3.215111 8.27459,0.535358 8.27459,0.535358 z"
         id="path18-3-2-7"
         sodipodi:nodetypes="cccc" /><path
         style="fill:#ffffff;stroke:none;stroke-width:8.10255;stroke-dasharray:none"
         d="m 165.01452,61.529353 c -8.38981,1.101963 -19.49119,-6.977123 -17.60946,-8.312152 -6.16636,0.774015 8.87911,11.263802 17.60946,8.312152 z"
         id="path18-3-2-7-0"
         sodipodi:nodetypes="ccc" /><path
         style="fill:#ffffff;stroke:none;stroke-width:5.24966;stroke-dasharray:none"
         d="m 153.11943,42.736548 c 0.16959,-5.479845 6.49272,-11.736945 7.15034,-10.39452 0.14761,-4.023847 -8.12808,4.504167 -7.15034,10.39452 z"
         id="path18-3-2-7-0-8"
         sodipodi:nodetypes="ccc" /><path
         style="fill:#000000;stroke:none;stroke-width:4.2431;stroke-dasharray:none"
         d="m 185.83129,41.616969 c 3.45942,-2.295285 3.76358,-2.888394 5.73357,-6.060037 0.18877,-0.02424 1.43896,1.432093 0.79166,0.943705 -3.27163,6.136395 -6.52523,5.116332 -6.52523,5.116332 z"
         id="path18-3-2-7-5"
         sodipodi:nodetypes="cccc" /><path
         style="fill:#000000;stroke:none;stroke-width:5.69503;stroke-dasharray:none"
         d="m 181.6176,46.296612 c -6.44247,2.873595 -8.09992,3.195596 -14.25542,4.176285 -0.19135,0.18305 0.13753,0.679321 0.20277,1.247251 11.52703,-1.644078 14.05265,-5.423536 14.05265,-5.423536 z"
         id="path18-3-2-7-9"
         sodipodi:nodetypes="cccc" /><path
         d="m 178.51143,43.427585 c -0.25201,-3.088203 0.3159,-2.22054 1.95643,-6.615273 0.38868,-1.041214 0.3999,-1.073559 0.36686,-1.05841 -0.0574,0.0265 -0.38738,0.629078 -0.5258,0.960615 -0.0745,0.17833 -0.20203,0.578963 -0.28348,0.890285 -0.39442,1.50752 -1.02311,2.58994 -1.86904,3.217913 -0.2931,0.21758 -0.89409,0.464923 -1.27408,0.524374 -0.66185,0.103506 -1.35533,-0.05528 -1.75628,-0.402158 -0.72604,-0.628127 -0.83819,-1.622983 -0.2889,-2.563241 0.0686,-0.117481 0.17647,-0.275816 0.23964,-0.351855 l 0.11486,-0.13826 -0.36537,-0.02771 c -0.58075,-0.04404 -1.12642,-0.284131 -1.5055,-0.662427 -0.28815,-0.287547 -0.49444,-0.778206 -0.51463,-1.223842 -0.0211,-0.467779 0.2197,-1.049584 0.595,-1.437473 0.47546,-0.491415 1.22527,-0.849676 1.88596,-0.901105 0.44764,-0.03485 0.81776,-0.0125 1.28018,0.07733 0.5482,0.106483 0.72949,0.16503 1.81793,0.587102 0.848,0.328833 1.08695,0.403844 1.56153,0.490173 0.53724,0.09773 1.06744,0.151371 1.08408,0.109676 0.012,-0.03024 -0.58607,-0.435922 -0.92049,-0.624289 -0.42058,-0.236904 -0.80035,-0.382792 -1.36492,-0.524314 -0.2694,-0.06754 -0.782,-0.24062 -1.1391,-0.384639 -0.93872,-0.378582 -1.56653,-0.80119 -2.04142,-1.374189 -0.18301,-0.22082 -0.24483,-0.326569 -0.39179,-0.670191 -0.49738,-1.163007 -0.31243,-2.194122 0.50168,-2.796472 0.48053,-0.355555 1.13117,-0.43288 1.77083,-0.210459 0.24244,0.0843 0.8423,0.441334 0.87694,0.52195 0.0427,0.09942 0.0822,-0.01756 0.10369,-0.307243 0.0618,-0.833345 0.43667,-1.452678 1.09658,-1.811759 0.65194,-0.354747 1.49125,-0.242724 2.10075,0.280404 0.39908,0.342526 0.52386,0.521994 0.78093,1.12319 0.21356,0.499203 0.22353,0.535062 0.24956,0.886083 0.0284,0.383248 -0.0239,1.029872 -0.11662,1.440749 -0.0958,0.424614 -0.33476,1.12985 -0.56451,1.665825 -0.26783,0.624806 -0.40419,1.066044 -0.49814,1.611794 -0.0779,0.452785 -0.12906,0.971148 -0.097,0.983924 0.0763,0.03042 0.64737,-0.878697 0.85592,-1.362481 0.0919,-0.213288 0.22199,-0.601104 0.289,-0.861817 0.53977,-2.100058 1.50237,-3.389693 2.80237,-3.754432 1.0957,-0.307418 2.00676,-0.02992 2.50347,0.762509 0.26605,0.424452 0.33183,0.979024 0.18169,1.531801 -0.0688,0.25316 -0.28093,0.653643 -0.47252,0.891913 -0.0657,0.08176 -0.11511,0.158875 -0.10972,0.171389 0.005,0.0125 0.10855,0.02509 0.22926,0.0279 0.98347,0.02312 1.82069,0.621654 2.04769,1.463921 0.20141,0.747285 -0.0768,1.510886 -0.75975,2.085321 -0.23439,0.197151 -0.31677,0.244333 -0.76522,0.438387 -0.46227,0.200058 -0.52862,0.219754 -0.82801,0.246 -0.90364,0.07923 -2.09293,-0.174613 -3.21959,-0.687191 -0.49832,-0.22671 -0.97329,-0.377259 -1.49032,-0.472378 -0.47997,-0.0883 -1.0493,-0.143874 -1.06522,-0.103953 -0.029,0.07272 0.9025,0.660446 1.3691,0.863808 0.1363,0.05941 0.53475,0.186497 0.88544,0.282416 2.35255,0.64346 3.574,1.671437 3.81525,3.210951 0.0648,0.413378 0.0327,0.775644 -0.101,1.141976 -0.19216,0.526332 -0.46558,0.827867 -0.94536,1.042578 -0.66873,0.299264 -1.41278,0.187959 -2.1338,-0.319202 l -0.29061,-0.204419 -0.0137,0.25713 c -0.0351,0.656542 -0.28356,1.248468 -0.67604,1.610476 -0.84914,0.783199 -2.09804,0.62524 -2.90395,-0.367276 -0.25493,-0.313967 -0.51517,-0.857363 -0.59605,-1.244638 -0.19031,-0.911099 -0.0294,-1.851627 0.57633,-3.368487 0.36243,-0.907588 0.48037,-1.300975 0.5741,-1.914835 0.0856,-0.560496 -0.0297,-0.454358 -0.32644,0.596444 -1.45801,5.161968 -1.10403,2.847574 -1.30188,6.193108 -0.0352,0.594484 -0.97813,0.784992 -0.99673,0.556999 z"
         id="path25"
         style="fill:#007a33;fill-opacity:1;stroke:#000000;stroke-width:0.612112;stroke-dasharray:none" /><path
         style="fill:#ffffff;stroke:none;stroke-width:6.14889;stroke-dasharray:none"
         d="m 182.42518,36.819082 c 0.56915,0.870301 1.21486,1.704421 0.86083,2.533292 0.13938,0.237752 0.27875,0.475507 0.41812,0.713259 0.93461,-2.008598 -1.27895,-3.246551 -1.27895,-3.246551 z"
         id="path18-4"
         sodipodi:nodetypes="cccc" /><path
         style="fill:#ffffff;stroke:none;stroke-width:6.14889;stroke-dasharray:none"
         d="m 182.65041,34.546958 c 0.83855,-0.614961 1.63688,-1.304437 2.48353,-0.995332 0.22994,-0.151917 0.45988,-0.303822 0.68983,-0.455733 -2.0558,-0.825639 -3.17336,1.451065 -3.17336,1.451065 z"
         id="path18-4-6"
         sodipodi:nodetypes="cccc" /><path
         style="fill:#ffffff;stroke:none;stroke-width:6.14889;stroke-dasharray:none"
         d="m 180.43488,33.765574 c -0.0737,-1.037263 -0.0646,-2.092069 -0.84814,-2.537569 -0.033,-0.273615 -0.0659,-0.547227 -0.0989,-0.820839 1.95973,1.033153 0.94705,3.358408 0.94705,3.358408 z"
         id="path18-4-6-3"
         sodipodi:nodetypes="cccc" /><path
         style="fill:#ffffff;stroke:none;stroke-width:6.14889;stroke-dasharray:none"
         d="m 179.49107,36.031113 c -1.02228,0.190524 -2.07135,0.300713 -2.42543,1.129566 -0.26813,0.06368 -0.53626,0.127374 -0.80439,0.191055 0.80499,-2.063963 3.22982,-1.320626 3.22982,-1.320626 z"
         id="path18-4-6-3-1"
         sodipodi:nodetypes="cccc" /><ellipse
         style="opacity:0.227712;fill:#ff6600;fill-opacity:1;stroke:none;stroke-width:0.464934;stroke-dasharray:none;stroke-opacity:1"
         id="path26"
         cx="163.49094"
         cy="93.949196"
         rx="3.2146871"
         ry="2.3335814"
         transform="matrix(0.98856595,-0.15078914,0.22362282,0.97467576,0,0)" /><ellipse
         style="opacity:0.227712;fill:#ff6600;fill-opacity:1;stroke:none;stroke-width:0.412058;stroke-dasharray:none;stroke-opacity:1"
         id="path26-1"
         cx="119.41696"
         cy="-117.381"
         rx="2.6034374"
         ry="2.263329"
         transform="matrix(0.39954298,0.91671446,-0.9481718,0.31775813,0,0)"
         inkscape:transform-center-x="-1.6767456"
         inkscape:transform-center-y="-1.3813881" /><path
         id="path26-1-0"
         style="opacity:0.227712;fill:#ff6600;fill-opacity:1;stroke:none;stroke-width:0.66883;stroke-dasharray:none;stroke-opacity:1"
         inkscape:transform-center-x="0.090168738"
         inkscape:transform-center-y="-2.8525503"
         d="m 167.33336,67.930322 a 5.3252582,2.9152004 5.2680278 0 0 -4.56289,1.765053 5.3252582,2.9152004 5.2680278 0 0 3.53433,3.875948 5.3252582,2.9152004 5.2680278 0 0 6.62475,-1.51938 5.3252582,2.9152004 5.2680278 0 0 -3.53433,-3.875948 5.3252582,2.9152004 5.2680278 0 0 -2.06186,-0.245673 z m -1.20992,1.168267 a 1.5395367,1.0691227 2.277121e-6 0 1 1.53942,1.068627 1.5395367,1.0691227 2.277121e-6 0 1 -1.53942,1.069155 1.5395367,1.0691227 2.277121e-6 0 1 -1.53941,-1.069155 1.5395367,1.0691227 2.277121e-6 0 1 1.53941,-1.068627 z" /></g></g></svg>
