<?xml version="1.0" encoding="UTF-8" standalone="no"?>
<!-- Created with Inkscape (http://www.inkscape.org/) -->

<svg
   width="105.83334mm"
   height="105.83334mm"
   viewBox="0 0 105.83333 105.83333"
   version="1.1"
   id="svg1"
   xml:space="preserve"
   inkscape:version="1.4 (e7c3feb100, 2024-10-09)"
   sodipodi:docname="boston.svg"
   xmlns:inkscape="http://www.inkscape.org/namespaces/inkscape"
   xmlns:sodipodi="http://sodipodi.sourceforge.net/DTD/sodipodi-0.dtd"
   xmlns:xlink="http://www.w3.org/1999/xlink"
   xmlns="http://www.w3.org/2000/svg"
   xmlns:svg="http://www.w3.org/2000/svg"><sodipodi:namedview
     id="namedview1"
     pagecolor="#ffffff"
     bordercolor="#000000"
     borderopacity="0.25"
     inkscape:showpageshadow="2"
     inkscape:pageopacity="0.0"
     inkscape:pagecheckerboard="0"
     inkscape:deskcolor="#d1d1d1"
     inkscape:document-units="mm"
     inkscape:zoom="1.1902837"
     inkscape:cx="198.27206"
     inkscape:cy="176.42852"
     inkscape:window-width="1920"
     inkscape:window-height="1011"
     inkscape:window-x="0"
     inkscape:window-y="32"
     inkscape:window-maximized="1"
     inkscape:current-layer="layer1" /><defs
     id="defs1" /><g
     inkscape:label="Capa 1"
     inkscape:groupmode="layer"
     id="layer1"><path
       id="path1"
       style="fill:#008000;stroke-width:1.11523"
       d="M 103.22105,52.91667 A 50.304375,50.304375 0 0 1 52.916669,103.22105 50.304375,50.304375 0 0 1 2.6122944,52.91667 50.304375,50.304375 0 0 1 52.916669,2.6122953 50.304375,50.304375 0 0 1 103.22105,52.91667 Z" /><circle
       style="fill:#ffffff;stroke-width:1.00919"
       id="path1-5"
       cx="52.916672"
       cy="52.916672"
       r="45.521286" /><path
       style="font-style:italic;font-size:30.161px;line-height:0.9;font-family:'The Augusta';-inkscape-font-specification:'The Augusta Italic';stroke-width:8.5496"
       d="m 34.921813,45.402695 c -0.685185,0.108378 -1.469335,0.385089 -2.314782,0.79364 -3.258181,1.828402 -5.365529,4.787819 -6.373747,8.855895 l -2.368907,1.473992 c -5.069953,2.786767 -7.956302,5.65565 -8.680959,8.57958 l -0.157534,0.635637 c -0.299315,1.20771 -0.346268,2.436575 -0.117228,3.59125 0.674491,2.244583 1.894498,3.211977 3.741517,2.919829 0.536232,-0.08482 1.133761,-0.301474 1.80834,-0.713534 1.374507,-1.041881 2.246004,-2.248487 2.576826,-3.583324 0.03938,-0.158909 0.07261,-0.408452 0.121585,-0.721559 0.011,-1.314786 -0.441314,-1.915033 -1.394615,-1.764247 -0.119162,0.01885 -0.255794,0.223675 -0.372229,0.577988 -0.766372,1.128906 -1.52588,1.768151 -2.330227,1.895377 -0.566022,0.08953 -0.739617,-0.249444 -0.56633,-0.948645 0.173288,-0.699201 0.796867,-1.713913 1.90053,-3.048849 1.511842,-1.827003 3.319875,-3.578711 5.416222,-5.223342 -0.441493,3.398252 -0.831588,5.780688 -1.170287,7.147307 l -0.04726,0.190691 c -0.661644,2.669675 -1.648564,4.688473 -2.976514,6.119957 -1.195763,1.013609 -2.169965,1.595204 -2.914731,1.713006 -1.310788,0.207331 -2.09221,0.819507 -2.344265,1.836526 l -0.01575,0.06356 c -0.05514,0.222473 -0.07432,0.530868 -0.07947,0.898113 0.323868,1.811467 1.0032,2.65063 2.016082,2.49042 0.365364,-0.08833 0.770112,-0.335563 1.176576,-0.705214 1.902554,-2.13309 3.211318,-3.25618 3.926293,-3.36927 l 0.148954,-0.02356 c 0.566022,-0.08953 1.073475,0.288244 1.522358,1.133322 1.263439,2.640003 2.956664,3.776835 5.0718,3.442278 l 0.417069,-0.06597 c 0.297906,-0.04712 0.760519,-0.181363 1.387839,-0.402734 2.702764,-1.435191 4.36356,-3.285754 4.922806,-5.542265 l 0.110274,-0.444946 c 0.275685,-1.112365 0.110671,-2.063415 -0.443338,-2.830793 -0.336586,-0.374264 -0.913213,-0.588417 -1.707967,-0.615388 -0.696186,1.423164 -1.644031,2.244878 -2.895238,2.442785 -0.468773,0.04361 -0.921793,0.02366 -1.388851,-0.05514 -1.493272,-0.55774 -2.5825,-0.782421 -3.327266,-0.664619 l -0.238325,0.0377 c -0.566022,0.08953 -1.387839,0.402735 -2.481204,1.003179 l -0.08937,0.01414 c 0.0079,-0.03178 0.158546,-0.177758 0.481799,-0.442639 3.493778,-2.201563 5.610014,-4.734884 6.318918,-7.59525 0.126028,-0.50851 0.244178,-0.985237 0.324663,-1.425471 0.436036,-4.069181 0.801489,-6.814151 1.171695,-8.307897 0.03767,-0.03649 0.36092,-0.301376 1.029339,-0.804069 2.422327,-1.574049 3.850959,-3.296282 4.299931,-5.107847 0.102397,-0.413163 0.153092,-0.848685 0.167831,-1.370128 -0.214298,-1.676118 -1.20729,-2.404597 -2.964937,-2.126584 z m -1.565748,6.202171 c 0.05342,-0.100054 0.1541,-0.390806 0.347587,-0.940522 0.755767,-1.432587 1.375914,-2.202469 1.912146,-2.287286 0.327697,-0.05183 0.467057,0.0788 0.38829,0.396623 l -0.06301,0.254254 c -0.165411,0.667418 -1.00197,1.502066 -2.55522,2.572219 z m 1.707186,3.852325 c -1.922443,3.021779 -5.626432,14.386845 -0.800348,13.623489 1.280997,-0.202619 2.467871,-1.642324 3.496903,-3.484567 0.09514,1.694966 0.733368,2.815453 2.342062,2.561001 2.621577,-0.414662 4.658123,-5.744686 6.233376,-9.444413 0.276697,-0.654485 -0.891298,-0.561348 -1.06903,-0.0752 -0.954402,2.34955 -2.093003,4.056444 -2.575814,4.041204 -1.120735,-0.09755 0.99185,-6.080861 2.720104,-7.97263 0.180857,-1.769157 -2.692378,-1.955944 -4.093946,-0.573887 -0.941684,0.912348 -1.870739,3.044137 -2.59742,5.052308 -0.805449,2.325989 -1.362979,4.460085 -1.867704,4.417775 -1.150525,-0.09284 0.999727,-6.112643 2.727981,-8.004412 0.303452,-2.032835 -3.324141,-1.947624 -4.516164,-0.140672 z m 11.892161,11.493735 c 4.734291,-0.04651 8.311459,-7.666128 9.333319,-10.056884 0.223273,-0.554427 -0.875545,-0.624912 -1.098821,-0.07048 -0.492096,1.177131 -2.823732,4.233097 -4.767296,3.990869 -1.824402,-0.261076 -1.017852,-4.785829 1.183619,-6.508161 0.428378,-0.342581 1.264232,-0.596935 1.170724,0.242327 -0.816669,-0.05404 -1.855601,0.904225 -2.288116,2.071932 -1.252,3.434844 2.508793,3.389636 4.1919,-0.05233 0.925622,-1.886958 1.005183,-5.441714 -2.729956,-4.576093 -3.407442,0.813789 -6.327719,4.512509 -7.424605,8.014427 -1.120517,3.597263 -0.387853,6.993012 2.429232,6.944393 z m 6.126967,-1.854663 c -0.369194,1.951626 4.885268,0.845689 5.121262,-1.145941 0.152078,-1.306565 0.362021,-2.500139 0.742831,-3.690203 0.02363,-0.09534 0.150669,-0.145976 0.148953,-0.02356 -0.02746,1.958645 -0.419975,5.04379 1.947523,4.730388 1.868934,-0.265079 3.451666,-2.378118 4.11089,-4.345083 0.629432,-1.962253 0.19529,-3.328773 -0.538167,-3.487584 -0.888967,1.392585 -2.366178,1.809455 -2.951694,1.169205 1.767241,-0.432209 4.870001,-3.365859 5.469643,-5.3234 0.676693,-2.152944 -1.252437,-3.954789 -3.429575,-2.908098 -1.264232,0.596935 -2.691147,2.196752 -4.051308,4.335659 -0.05342,0.100054 -0.105122,0.0777 -0.08937,0.01414 1.391053,-4.342382 3.273805,-8.243426 6.009088,-9.347864 1.171209,-4.032784 -4.467406,-4.148595 -7.199742,0.986124 -2.496739,4.761559 -4.520439,15.005842 -5.290332,19.036221 z m 9.937405,-11.801376 c 0.116742,0.683862 -1.640291,3.038222 -2.924721,3.485672 0.795855,-2.171793 2.84393,-4.083612 2.924721,-3.485672 z m 4.936309,10.456445 c 2.591785,-0.409951 4.697506,-5.903597 6.304266,-9.73045 0.276697,-0.654485 -0.883422,-0.59313 -1.098821,-0.07048 -0.970155,2.413113 -2.12451,4.183571 -2.57753,4.163619 -1.150526,-0.09284 1.078494,-6.430461 2.814624,-8.354012 0.206203,-1.986918 -3.353932,-1.942912 -4.531917,-0.07711 -1.938197,3.085343 -5.736706,14.831791 -0.910622,14.068436 z m 7.231247,-1.113253 c 4.123429,-0.468999 6.952706,-6.687811 8.099581,-10.044956 0.169853,-0.454369 -0.803643,-0.453068 -0.995412,-0.02577 -1.037613,2.454319 -2.408379,4.289544 -3.772588,4.596932 -0.939263,0.209636 -1.835006,-0.564759 -1.526098,-1.926666 0.0017,-0.122415 0.06746,-0.0412 0.103409,0.04471 0.61117,1.460664 3.26839,0.09375 4.590576,-3.046837 1.53587,-3.540817 0.04057,-5.014316 -2.14202,-4.638553 -3.255056,0.545396 -6.08596,4.229982 -7.1986,7.795463 -1.152024,3.724391 -0.463893,7.646295 2.841152,7.24567 z m 4.463187,-13.042483 c 1.214244,-0.741708 -1.391053,4.342382 -1.940617,3.788053 -0.24893,-0.265986 1.07154,-3.284157 1.940617,-3.788053 z m 10.923288,6.394798 c 1.106483,-3.656115 -1.939338,-3.723996 -2.514863,-6.136913 -0.377291,-1.711409 2.619953,-2.948891 0.967643,0.94624 0.84576,0.629623 3.558116,-0.959765 3.366432,-3.189107 -0.197834,-2.319978 -2.82043,-2.363194 -5.223569,-1.097539 -4.447077,2.352349 -7.269182,9.119674 -6.425233,12.528356 1.15449,4.581001 8.31867,1.890488 9.82959,-3.051037 z m -6.577391,-4.181285 c -0.106534,1.238289 0.11978,2.0575 0.56866,2.902578 0.991583,1.889068 -1.05407,3.098178 -1.52073,1.400905 -0.324572,-1.231172 0.193575,-3.206359 0.95207,-4.303483 z"
       id="text1"
       aria-label="Luckies"
       sodipodi:nodetypes="scccsscscscscssccsscssscccsscsscssccccsscccscccscssccssscccscsccccccccccccccccccccsccsccccccccccsscccscccccssccccccccsscccccccccccccc" /><text
       xml:space="preserve"
       style="font-style:italic;font-variant:normal;font-weight:normal;font-stretch:normal;font-size:14.0302px;line-height:0.9;font-family:'The Augusta';-inkscape-font-specification:'The Augusta Italic';text-align:start;writing-mode:lr-tb;direction:ltr;text-anchor:start;fill:#008000;stroke-width:3.97706"
       id="text2"
       transform="matrix(-0.64263657,-0.46392199,0.42005289,-0.66284854,67.636902,122.1758)"><textPath
         xlink:href="#path1"
         id="textPath2"><tspan
           id="tspan2"
           style="font-style:normal;font-variant:normal;font-weight:bold;font-stretch:normal;font-family:'DejaVu Serif';-inkscape-font-specification:'DejaVu Serif Bold';fill:#008000;stroke-width:3.97706">BOSTON</tspan></textPath></text><path
       style="fill:#008000;stroke-width:0.390027"
       d="m 75.755077,47.605223 c -1.008472,0.177789 -2.009218,-0.253542 -2.597631,-1.119607 l -0.330728,-0.486786 -0.570879,0.218547 c -2.139765,0.819162 -4.137449,-1.130782 -3.401341,-3.320055 0.499121,-1.484444 1.788786,-2.775599 4.17314,-4.177959 1.210427,-0.711921 1.41726,-0.863031 1.430345,-1.045048 0.01114,-0.154863 -0.03514,-0.241613 -0.170008,-0.318668 -0.158879,-0.09077 -0.3542,-0.01927 -1.369317,0.501304 -1.898771,0.973724 -3.139963,1.355638 -4.633571,1.425738 -1.870839,0.08781 -3.198695,-0.812275 -3.428142,-2.323746 -0.142621,-0.939529 0.330938,-1.935258 1.224571,-2.574844 0.440394,-0.315195 0.442865,-0.320942 0.274285,-0.637275 -0.425537,-0.798494 -0.322432,-2.016124 0.231845,-2.738048 0.403074,-0.524986 1.226079,-0.94004 1.93901,-0.977865 1.777581,-0.09433 3.89795,1.735579 5.517084,4.761309 0.476646,0.890995 0.542503,0.974937 0.763262,0.975328 0.430869,7.58e-4 0.433482,-0.269665 0.01027,-1.063805 -1.705372,-3.200031 -2.090673,-6.051305 -1.011438,-7.484739 0.434043,-0.576492 1.236377,-1.027149 1.89333,-1.063447 0.91085,-0.05033 1.94655,0.474252 2.324876,1.17755 0.253944,0.472472 0.34658,0.503008 0.84228,0.27899 0.785546,-0.35501 1.828694,-0.259495 2.550679,0.23354 0.441479,0.30148 0.913143,1.095396 1.018814,1.714895 0.306645,1.797633 -1.402348,3.936632 -4.438206,5.554917 -0.969462,0.516779 -1.212949,0.681876 -1.266943,0.859096 -0.03676,0.120658 -0.04001,0.269724 -0.0072,0.331261 0.144123,0.270438 0.406479,0.207689 1.446813,-0.346048 2.978533,-1.585291 5.691004,-1.896594 7.128748,-0.817955 1.122853,0.8424 1.353012,2.393837 0.531744,3.584273 -0.105459,0.152859 -0.410772,0.432081 -0.678479,0.620494 l -0.486742,0.342569 0.217671,0.527072 c 0.567222,1.37353 -0.08481,2.901475 -1.453307,3.405612 -1.891592,0.696837 -4.065701,-0.82597 -6.095323,-4.269347 -0.441049,-0.748229 -0.850836,-1.363566 -0.910675,-1.367397 -0.05985,-0.0038 -0.195529,0.07152 -0.301517,0.167485 -0.190039,0.171984 -0.185122,0.188729 0.351798,1.197499 1.202996,2.259903 1.720033,4.494531 1.409601,6.09061 -0.204036,1.049053 -1.12749,1.988084 -2.128678,2.16459 z M 73.97141,43.064949 c 0.550256,-1.495677 1.037398,-3.597558 0.847219,-3.655506 -0.101051,-0.03078 -0.617144,1.111561 -0.973207,2.154147 -0.29757,0.87132 -0.729793,2.892883 -0.650377,3.041902 0.07386,0.138588 0.387807,-0.484384 0.776365,-1.540543 z m 9.33448,-3.908396 c -0.970885,-0.449719 -2.166171,-0.900316 -2.998626,-1.130411 -1.04678,-0.289338 -2.188028,-0.469241 -2.224176,-0.350611 -0.06649,0.21823 3.0802,1.290844 4.494624,1.532081 0.672033,0.114621 1.031453,0.08942 0.728178,-0.05106 z M 72.591283,35.812462 c -1.047051,-0.549617 -4.920802,-1.573492 -4.751543,-1.255886 0.08001,0.150128 1.146688,0.604562 2.248385,0.957874 1.128646,0.361955 2.981204,0.75752 3.01581,0.643949 0.01108,-0.03643 -0.219593,-0.192105 -0.512652,-0.345937 z m 4.470839,-2.86468 c 0.535588,-1.359804 1.082288,-3.874046 0.810932,-3.729434 -0.123472,0.0658 -0.925281,2.065204 -1.142672,2.849381 -0.217084,0.783074 -0.484005,2.245776 -0.428742,2.349474 0.06543,0.122773 0.349724,-0.426549 0.760482,-1.469421 z"
       id="path2"
       sodipodi:nodetypes="sscsssssssssssscsssscsssssssssscsscsscsssssssssssssssscssssss" /></g></svg>
