<?xml version="1.0" encoding="UTF-8" standalone="no"?>
<!-- Created with Inkscape (http://www.inkscape.org/) -->

<svg
   width="105.83334mm"
   height="105.83334mm"
   viewBox="0 0 105.83333 105.83333"
   version="1.1"
   id="svg1"
   xml:space="preserve"
   inkscape:version="1.4 (e7c3feb100, 2024-10-09)"
   sodipodi:docname="boston.svg"
   xmlns:inkscape="http://www.inkscape.org/namespaces/inkscape"
   xmlns:sodipodi="http://sodipodi.sourceforge.net/DTD/sodipodi-0.dtd"
   xmlns="http://www.w3.org/2000/svg"
   xmlns:svg="http://www.w3.org/2000/svg"><sodipodi:namedview
     id="namedview1"
     pagecolor="#ffffff"
     bordercolor="#000000"
     borderopacity="0.25"
     inkscape:showpageshadow="2"
     inkscape:pageopacity="0.0"
     inkscape:pagecheckerboard="0"
     inkscape:deskcolor="#d1d1d1"
     inkscape:document-units="mm"
     inkscape:zoom="1.1157835"
     inkscape:cx="384.4832"
     inkscape:cy="251.84098"
     inkscape:window-width="1920"
     inkscape:window-height="1011"
     inkscape:window-x="0"
     inkscape:window-y="32"
     inkscape:window-maximized="1"
     inkscape:current-layer="layer2"
     showgrid="false" /><defs
     id="defs1"><inkscape:path-effect
       effect="bspline"
       id="path-effect18"
       is_visible="true"
       lpeversion="1.3"
       weight="33.333333"
       steps="2"
       helper_size="0"
       apply_no_weight="true"
       apply_with_weight="true"
       only_selected="false"
       uniform="false" /><inkscape:path-effect
       effect="bspline"
       id="path-effect17"
       is_visible="true"
       lpeversion="1.3"
       weight="33.333333"
       steps="2"
       helper_size="0"
       apply_no_weight="true"
       apply_with_weight="true"
       only_selected="false"
       uniform="false" /></defs><g
     inkscape:groupmode="layer"
     id="layer2"
     inkscape:label="Capa 2"><g
       id="g28"><text
         xml:space="preserve"
         style="font-size:32.724px;line-height:1;font-family:Sport;-inkscape-font-specification:Sport;text-align:center;letter-spacing:0px;writing-mode:lr-tb;direction:ltr;text-anchor:middle;fill:#000000;fill-opacity:1;stroke:#ffffff;stroke-width:1.85522;stroke-dasharray:none;stroke-opacity:1"
         x="77.863861"
         y="105.44593"
         id="text27"
         transform="matrix(1.1044355,0,-0.34459184,0.90543993,0,0)"><tspan
           sodipodi:role="line"
           id="tspan27"
           style="font-style:normal;font-variant:normal;font-weight:normal;font-stretch:normal;font-family:'The Augusta';-inkscape-font-specification:'The Augusta';fill:#000000;stroke:#ffffff;stroke-width:1.85522"
           x="77.863861"
           y="105.44593">Gaelics</tspan></text><text
         xml:space="preserve"
         style="font-size:32.724px;line-height:1;font-family:Sport;-inkscape-font-specification:Sport;text-align:center;letter-spacing:0px;writing-mode:lr-tb;direction:ltr;text-anchor:middle;fill:#000000;fill-opacity:1;stroke:none;stroke-width:1.85522;stroke-dasharray:none;stroke-opacity:1"
         x="77.863861"
         y="105.44593"
         id="text27-6"
         transform="matrix(1.1044355,0,-0.34459184,0.90543993,0,0)"><tspan
           sodipodi:role="line"
           id="tspan27-3"
           style="font-style:normal;font-variant:normal;font-weight:normal;font-stretch:normal;font-family:'The Augusta';-inkscape-font-specification:'The Augusta';fill:#000000;stroke:none;stroke-width:1.85522"
           x="77.863861"
           y="105.44593">Gaelics</tspan></text><text
         xml:space="preserve"
         style="font-style:normal;font-variant:normal;font-weight:normal;font-stretch:normal;font-size:10.5833px;line-height:1;font-family:'The Augusta';-inkscape-font-specification:'The Augusta';text-align:center;letter-spacing:0px;writing-mode:lr-tb;direction:ltr;text-anchor:middle;fill:#000000;fill-opacity:1;stroke:#ffffff;stroke-width:0.600001;stroke-dasharray:none;stroke-opacity:1"
         x="58.499088"
         y="103.93111"
         id="text28"><tspan
           sodipodi:role="line"
           id="tspan28"
           style="font-style:normal;font-variant:normal;font-weight:normal;font-stretch:normal;font-family:'Ranked Sports';-inkscape-font-specification:'Ranked Sports';stroke:#ffffff;stroke-width:0.6"
           x="58.499088"
           y="103.93111">BOSTON</tspan></text><g
         id="g27"
         transform="matrix(1.2877814,0,0,1.2877814,-11.761784,-35.674645)"><path
           style="opacity:1;fill:#ffb380;stroke:#000000;stroke-width:1.063;stroke-dasharray:none"
           d="m 36.840281,68.641621 c 1.228255,2.560824 2.146434,2.811965 1.411186,5.569153 -1.047433,7.68344 3.280609,11.114263 10.234375,13.354881 1.131476,0.78337 2.770206,2.264214 5.48685,0.447908 11.523133,-2.219842 19.30527,-7.800241 22.39531,-19.087244 7.861575,-12.863528 0.956759,-12.493286 0.956759,-12.493286 l -1.180713,-3.244177 z"
           id="path3"
           sodipodi:nodetypes="cccccccc" /><path
           style="opacity:1;fill:#ff6600;stroke:#000000;stroke-width:0.663;stroke-dasharray:none"
           d="m 77.039162,54.149336 c 0.38044,0.591797 0.602363,1.43722 0.570659,2.34605 -2.660969,0.495393 -8.224667,8.349283 -4.818909,12.744749 1.785955,1.817655 2.462293,0.306467 3.550774,-0.06341 -0.972236,3.117497 -1.817658,6.171587 -5.009129,10.208482 -0.07397,-3.413395 -1.521761,-1.352676 -2.029015,-1.14132 1.458354,-3.751564 -0.507254,-1.47949 -0.760881,-2.219235 0.528389,-2.092422 2.166395,-3.740997 1.585166,-6.277266 -2.246693,-3.019707 -2.936489,-5.461093 -2.346047,-9.003754 z"
           id="path4"
           sodipodi:nodetypes="cccccccccc" /><path
           id="rect5"
           style="opacity:1;fill:#000000;fill-rule:evenodd;stroke-width:0.245882"
           d="m 42.831494,68.732756 c -0.912365,0 -1.66265,0.775234 -1.788521,1.790071 a 1.3315411,1.1413209 0 0 1 1.122412,1.126546 1.3315411,1.1413209 0 0 1 -1.047481,1.112594 c 0.239901,0.829255 0.914631,1.423686 1.71359,1.423686 1.001129,0 1.806608,-0.933178 1.806608,-2.092379 v -1.26814 c 0,-1.159201 -0.805479,-2.092378 -1.806608,-2.092378 z" /><path
           style="opacity:1;fill:#ff6600;stroke:none;stroke-width:4.46299"
           id="path5"
           d="m 57.971218,64.537467 c -0.499303,0.470099 -1.034822,0.898909 -1.541549,1.361046 -0.250992,0.233334 -0.467649,0.498211 -0.644655,0.791456 -0.08939,0.148098 -0.144357,0.249095 -0.184341,0.41529 -0.01416,0.05886 -0.01648,0.119949 -0.02474,0.179922 0.02413,0.405157 0.301246,0.690068 0.593103,0.94057 0.352428,0.286681 0.780455,0.450448 1.201301,0.607994 0.285499,0.09749 0.576289,0.176141 0.872104,0.234664 0,0 -7.94e-4,-5.29e-4 -7.94e-4,-5.29e-4 v 0 c -0.295807,-0.05852 -0.586592,-0.137176 -0.87208,-0.234667 -0.420259,-0.157326 -0.847751,-0.320728 -1.199671,-0.607049 -0.291846,-0.250473 -0.568957,-0.535355 -0.593138,-0.94048 0.0082,-0.05997 0.01056,-0.121055 0.02471,-0.179909 0.03997,-0.166187 0.09493,-0.267187 0.184309,-0.415279 0.176991,-0.293246 0.393642,-0.55812 0.644623,-0.791448 0.506733,-0.462151 1.042255,-0.890969 1.541619,-1.361017 z" /><path
           style="opacity:1;fill:#000000;stroke:none;stroke-width:3.963;stroke-dasharray:none"
           d="m 46.667343,71.538628 c 0.366818,0.560915 0.782982,1.09851 0.55481,1.632723 0.08983,0.153233 0.179652,0.306467 0.269478,0.4597 0.60236,-1.294554 -0.824288,-2.092423 -0.824288,-2.092423 z"
           id="path18"
           sodipodi:nodetypes="cccc" /><path
           style="opacity:1;fill:#000000;stroke:none;stroke-width:4.15914;stroke-dasharray:none"
           d="m 55.729404,71.719808 c 0.204794,-0.852782 0.58674,-1.289867 1.191174,-1.362912 0.09201,-0.162278 0.184018,-0.32455 0.276025,-0.486825 -2.095899,0.01993 -1.467199,1.849737 -1.467199,1.849737 z"
           id="path18-3"
           sodipodi:nodetypes="cccc" /><path
           style="opacity:1;fill:#000000;stroke:none;stroke-width:4.15914;stroke-dasharray:none"
           d="m 59.417064,76.770557 c 0.204794,-0.852782 2.514659,-2.522838 3.23118,-0.600711 0.02476,0.375746 -0.107411,1.020509 -0.262001,1.127246 -0.63875,-2.894366 -2.969182,-0.526535 -2.969182,-0.526535 z"
           id="path18-3-23"
           sodipodi:nodetypes="ccccc" /><path
           style="opacity:1;fill:#000000;stroke:none;stroke-width:4.15914;stroke-dasharray:none"
           d="m 73.664501,64.721226 c 0.771826,-0.416488 3.557003,0.189607 2.603453,2.005844 -0.263345,0.269161 -0.831774,0.600939 -1.014426,0.557017 1.729594,-2.407044 -1.589029,-2.562863 -1.589029,-2.562863 z"
           id="path18-3-23-2"
           sodipodi:nodetypes="ccccc" /><path
           style="opacity:1;fill:#000000;stroke:none;stroke-width:4.15914;stroke-dasharray:none"
           d="m 73.599783,66.98991 c -0.108871,-3.955546 1.930228,-7.789066 3.707198,-7.831273 0.328149,0.184708 0.750907,0.446139 0.755755,0.633935 -2.750261,-0.464812 -4.462954,7.19734 -4.462954,7.19734 z"
           id="path18-3-23-2-7"
           sodipodi:nodetypes="ccccc" /><path
           style="opacity:1;fill:#000000;stroke:none;stroke-width:2.90818;stroke-dasharray:none"
           d="m 56.651159,72.600763 c 0.844526,0.115651 1.4123,0.05666 1.77052,-0.184033 0.186543,-6.36e-4 0.373079,-0.0013 0.559618,-0.0019 -1.038341,0.890182 -2.330138,0.185953 -2.330138,0.185953 z"
           id="path18-3-7"
           sodipodi:nodetypes="cccc" /><path
           style="opacity:1;fill:#000000;stroke:none;stroke-width:4.15914;stroke-dasharray:none"
           d="m 56.39068,72.52919 c 3.009992,-2.850691 5.142999,-2.610266 7.625042,-2.954566 0.09201,-0.162278 -0.860145,-0.828447 -0.768138,-0.990722 -6.840472,0.899947 -6.856904,3.945288 -6.856904,3.945288 z"
           id="path18-3-2"
           sodipodi:nodetypes="cccc" /><path
           style="opacity:1;fill:#000000;stroke:none;stroke-width:3.963;stroke-dasharray:none"
           d="m 53.357246,75.454035 c 0.366818,0.560915 2.938811,2.017907 -0.190219,4.184843 0.08983,0.153233 0.401576,0.195506 0.491402,0.348739 4.168988,-2.800464 -0.301183,-4.533582 -0.301183,-4.533582 z"
           id="path18-2"
           sodipodi:nodetypes="cccc" /><path
           style="opacity:1;fill:#000000;stroke:none;stroke-width:3.96301;stroke-dasharray:none"
           d="m 49.108502,74.344376 c -5.332432,-1.988317 -9.592935,6.527868 0.729179,5.928529 0.281914,-1.923571 3.083823,-1.207538 1.394947,-0.491402 2.227124,0.297374 0.44872,-3.076037 -1.949755,-0.06341 -6.28309,0.88081 -6.194661,-5.835866 -0.174371,-5.373719 z"
           id="path19"
           sodipodi:nodetypes="cccccc" /><path
           style="opacity:1;fill:#000000;stroke:none;stroke-width:3.96301;stroke-dasharray:none"
           d="m 44.340015,82.085153 c 2.853102,1.231667 11.739814,0.311813 16.83798,-5.706206 l 0.137366,0.427944 -1.026038,1.442944 c 0.407626,10.654713 -12.917289,11.153417 -14.710854,4.94151 l -1.054721,-0.745824 z"
           id="path20"
           sodipodi:nodetypes="ccccccc" /><path
           style="opacity:1;fill:#ffffff;stroke:none;stroke-width:3.96301;stroke-dasharray:none"
           d="m 46.414676,83.204904 0.646803,1.164248 c 3.454402,0.916747 9.786625,-0.08607 12.056433,-3.440999 v -1.966285 c -3.251269,3.25127 -8.339463,4.48451 -12.703236,4.243036 z"
           id="path21"
           sodipodi:nodetypes="ccccc" /><path
           style="opacity:1;fill:#ffffff;stroke:none;stroke-width:2.66302;stroke-dasharray:none"
           d="m 48.852381,85.509385 0.236665,0.511842 c 2.965998,1.134711 5.936357,0.356884 8.578818,-1.512076 0.04458,-0.438167 -0.166053,-0.696479 -0.121478,-1.134646 -2.394651,1.952421 -5.824812,2.276592 -8.694005,2.13488 z"
           id="path21-2"
           sodipodi:nodetypes="ccccc" /><ellipse
           style="opacity:0.227712;fill:#ff6600;fill-opacity:1;stroke:none;stroke-width:1.99952;stroke-dasharray:none;stroke-opacity:1"
           id="path26-1-0-2"
           cx="96.828636"
           cy="83.279617"
           rx="17.954508"
           ry="7.7278018"
           transform="matrix(0.99780207,-0.0662648,-0.51069724,0.85976062,0,0)"
           inkscape:transform-center-x="1.7452017"
           inkscape:transform-center-y="-5.9166417" /><path
           style="opacity:1;fill:#007a33;fill-opacity:1;stroke:#000000;stroke-width:1.063;stroke-dasharray:none"
           d="M 27.589268,63.146868 C 41.783747,79.626173 75.256443,63.975117 81.482593,47.809975 84.852711,37.414019 75.113642,36.957054 72.057688,39.755966 65.818963,17.400524 27.500065,33.431564 34.101021,54.750133 30.453312,55.554866 23.4321,58.199244 27.589268,63.146868 Z"
           id="path22"
           sodipodi:nodetypes="ccccc" /><path
           style="opacity:1;fill:#ffffff;fill-opacity:1;stroke:#000000;stroke-width:1.063;stroke-dasharray:none"
           d="m 33.501255,52.351066 c 0,0.428406 0.599767,5.140857 0.599767,5.140857 5.626384,5.569263 28.634867,7.885172 39.498923,-12.68078 L 71.972006,40.09869 C 61.048741,52.694835 45.421201,57.964431 33.501255,52.351066 Z"
           id="path23"
           sodipodi:nodetypes="ccccc" /><path
           style="fill:#000000;stroke:none;stroke-width:4.15914;stroke-dasharray:none"
           d="m 42.186856,55.907558 c -4.069034,0.05922 -4.643474,-0.252065 -7.993133,-1.726426 -0.166099,0.08492 -0.370814,1.955118 -0.117722,1.201662 6.044183,3.15149 8.110855,0.524764 8.110855,0.524764 z"
           id="path18-3-2-7"
           sodipodi:nodetypes="cccc" /><path
           style="fill:#ffffff;stroke:none;stroke-width:7.94222;stroke-dasharray:none"
           d="m 46.364906,67.992478 c -8.223795,1.080158 -19.105506,-6.83906 -17.261008,-8.147672 -6.044342,0.758699 8.703415,11.040915 17.261008,8.147672 z"
           id="path18-3-2-7-0"
           sodipodi:nodetypes="ccc" /><path
           style="fill:#ffffff;stroke:none;stroke-width:5.14578;stroke-dasharray:none"
           d="m 34.705196,49.571544 c 0.166231,-5.37141 6.36424,-11.504695 7.00885,-10.188834 0.144685,-3.944223 -7.967246,4.415039 -7.00885,10.188834 z"
           id="path18-3-2-7-0-8"
           sodipodi:nodetypes="ccc" /><path
           style="fill:#000000;stroke:none;stroke-width:4.15914;stroke-dasharray:none"
           d="m 66.769755,48.474119 c 3.390966,-2.249866 3.689103,-2.831239 5.620115,-5.940121 0.185029,-0.02376 1.410483,1.403755 0.775995,0.925031 -3.206899,6.014968 -6.39611,5.01509 -6.39611,5.01509 z"
           id="path18-3-2-7-5"
           sodipodi:nodetypes="cccc" /><path
           style="fill:#000000;stroke:none;stroke-width:5.58234;stroke-dasharray:none"
           d="m 62.639447,53.061162 c -6.314989,2.816732 -7.93964,3.132361 -13.973335,4.093645 -0.187565,0.179427 0.1348,0.665878 0.198751,1.22257 11.298935,-1.611545 13.774584,-5.316215 13.774584,-5.316215 z"
           id="path18-3-2-7-9"
           sodipodi:nodetypes="cccc" /><path
           d="m 59.594733,50.248907 c -0.247022,-3.027094 0.309649,-2.1766 1.917723,-6.484371 0.38099,-1.02061 0.391982,-1.052315 0.359594,-1.037466 -0.05626,0.02598 -0.37971,0.61663 -0.515395,0.941606 -0.07299,0.174802 -0.198024,0.567507 -0.277867,0.872669 -0.386619,1.477689 -1.002869,2.53869 -1.832051,3.154237 -0.287302,0.213274 -0.876405,0.455723 -1.248872,0.513997 -0.648758,0.101458 -1.328511,-0.05419 -1.721525,-0.3942 -0.711678,-0.615697 -0.821603,-1.590867 -0.283187,-2.512519 0.06727,-0.115157 0.172976,-0.270359 0.2349,-0.344893 l 0.112586,-0.135524 -0.358142,-0.02716 c -0.569255,-0.04317 -1.104124,-0.278508 -1.475712,-0.649319 -0.282441,-0.281857 -0.484656,-0.762807 -0.504438,-1.199624 -0.0207,-0.458523 0.215352,-1.028815 0.58322,-1.409029 0.466052,-0.481691 1.201024,-0.832862 1.848644,-0.883274 0.438783,-0.03416 0.801577,-0.01225 1.254846,0.0758 0.537358,0.104376 0.715053,0.161764 1.781961,0.575484 0.831212,0.322327 1.065443,0.395853 1.53063,0.480474 0.526602,0.0958 1.046319,0.148376 1.062625,0.107506 0.01179,-0.02964 -0.574473,-0.427296 -0.902274,-0.611936 -0.412259,-0.232216 -0.784517,-0.375217 -1.337915,-0.513939 -0.264068,-0.0662 -0.766519,-0.235858 -1.116553,-0.377028 -0.920148,-0.37109 -1.535533,-0.785336 -2.001023,-1.346996 -0.179389,-0.216451 -0.239992,-0.320107 -0.384045,-0.65693 -0.487538,-1.139993 -0.306247,-2.150704 0.491752,-2.741135 0.471025,-0.348519 1.108786,-0.424314 1.735796,-0.206295 0.237637,0.08263 0.825632,0.432601 0.859586,0.511622 0.04187,0.09745 0.08058,-0.01721 0.101639,-0.301163 0.06059,-0.816855 0.428026,-1.423933 1.074873,-1.775908 0.639048,-0.347728 1.461747,-0.237921 2.059185,0.274855 0.391183,0.335748 0.513497,0.511665 0.765475,1.100965 0.209336,0.489324 0.219106,0.524474 0.244624,0.868549 0.02784,0.375664 -0.02347,1.009493 -0.11431,1.412239 -0.09388,0.416212 -0.328142,1.107493 -0.553345,1.632862 -0.262525,0.612442 -0.396191,1.044949 -0.488276,1.5799 -0.0764,0.443825 -0.126512,0.951931 -0.09512,0.964454 0.07474,0.02982 0.634561,-0.861309 0.838981,-1.33552 0.09012,-0.209068 0.217597,-0.58921 0.283282,-0.844764 0.529089,-2.058502 1.472643,-3.322618 2.746911,-3.680139 1.074025,-0.301335 1.967054,-0.02933 2.45394,0.74742 0.260779,0.416053 0.32526,0.959652 0.178086,1.50149 -0.06741,0.248151 -0.27537,0.640709 -0.463165,0.874264 -0.06443,0.08014 -0.112829,0.155731 -0.107552,0.167998 0.0053,0.01225 0.106402,0.02459 0.22473,0.02735 0.964008,0.02266 1.78466,0.609352 2.00717,1.434953 0.197423,0.732497 -0.07529,1.480988 -0.744724,2.044056 -0.229749,0.19325 -0.310495,0.239499 -0.750071,0.429713 -0.45313,0.196099 -0.518159,0.215405 -0.811627,0.241132 -0.885761,0.07766 -2.051515,-0.171158 -3.155884,-0.673593 -0.488457,-0.222224 -0.954033,-0.369794 -1.460825,-0.463031 -0.470479,-0.08655 -1.028542,-0.141027 -1.044142,-0.101896 -0.02844,0.07128 0.884636,0.647377 1.342003,0.846715 0.133603,0.05823 0.524176,0.182807 0.867919,0.276828 2.306003,0.630727 3.50328,1.638363 3.739761,3.147413 0.06351,0.405198 0.0321,0.760295 -0.09901,1.119378 -0.188353,0.515917 -0.45636,0.811486 -0.926653,1.021948 -0.655497,0.293342 -1.384823,0.18424 -2.091572,-0.312886 l -0.284861,-0.200374 -0.01346,0.252042 c -0.03438,0.643551 -0.277943,1.223764 -0.662664,1.578608 -0.832335,0.767701 -2.056524,0.612868 -2.846479,-0.360008 -0.249889,-0.307754 -0.504976,-0.840398 -0.584258,-1.220009 -0.18654,-0.89307 -0.02881,-1.814987 0.56493,-3.301832 0.35525,-0.889629 0.470859,-1.275231 0.562736,-1.876944 0.08389,-0.549405 -0.02906,-0.445367 -0.319985,0.584641 -1.429158,5.059824 -1.082178,2.791227 -1.276111,6.07056 -0.03446,0.58272 -0.958778,0.769458 -0.977015,0.545977 z"
           id="path25"
           style="fill:#007a33;fill-opacity:1;stroke:#000000;stroke-width:0.6;stroke-dasharray:none" /><path
           style="fill:#ffffff;stroke:none;stroke-width:6.02722;stroke-dasharray:none"
           d="m 63.431046,43.771172 c 0.557883,0.85308 1.190816,1.670694 0.843795,2.483164 0.13662,0.233047 0.273228,0.466097 0.409842,0.699145 0.916113,-1.968852 -1.253637,-3.182309 -1.253637,-3.182309 z"
           id="path18-4"
           sodipodi:nodetypes="cccc" /><path
           style="fill:#ffffff;stroke:none;stroke-width:6.02722;stroke-dasharray:none"
           d="m 63.651812,41.544009 c 0.821962,-0.602792 1.604488,-1.278625 2.434385,-0.975636 0.225392,-0.148911 0.450787,-0.29781 0.67618,-0.446715 -2.015111,-0.809302 -3.110565,1.422351 -3.110565,1.422351 z"
           id="path18-4-6"
           sodipodi:nodetypes="cccc" /><path
           style="fill:#ffffff;stroke:none;stroke-width:6.02722;stroke-dasharray:none"
           d="m 61.480127,40.778087 c -0.07228,-1.016738 -0.06335,-2.050671 -0.83136,-2.487356 -0.03231,-0.268201 -0.06463,-0.536398 -0.09694,-0.804596 1.920953,1.012709 0.928305,3.291952 0.928305,3.291952 z"
           id="path18-4-6-3"
           sodipodi:nodetypes="cccc" /><path
           style="fill:#ffffff;stroke:none;stroke-width:6.02722;stroke-dasharray:none"
           d="m 60.554991,42.998796 c -1.00205,0.186754 -2.030365,0.294762 -2.377431,1.107214 -0.262829,0.06242 -0.525653,0.124853 -0.788479,0.187274 0.789063,-2.023121 3.165909,-1.294493 3.165909,-1.294493 z"
           id="path18-4-6-3-1"
           sodipodi:nodetypes="cccc" /><ellipse
           style="opacity:0.227712;fill:#ff6600;fill-opacity:1;stroke:none;stroke-width:0.455734;stroke-dasharray:none;stroke-opacity:1"
           id="path26"
           cx="45.761189"
           cy="82.257248"
           rx="3.1510751"
           ry="2.2874048"
           transform="matrix(0.98856595,-0.15078914,0.22362282,0.97467576,0,0)" /><ellipse
           style="opacity:0.227712;fill:#ff6600;fill-opacity:1;stroke:none;stroke-width:0.403904;stroke-dasharray:none;stroke-opacity:1"
           id="path26-1"
           cx="87.55899"
           cy="-5.7955661"
           rx="2.5519209"
           ry="2.2185423"
           transform="matrix(0.39954298,0.91671446,-0.9481718,0.31775813,0,0)"
           inkscape:transform-center-x="-1.6767456"
           inkscape:transform-center-y="-1.3813881" /><path
           id="path26-1-0"
           style="opacity:0.227712;fill:#ff6600;fill-opacity:1;stroke:none;stroke-width:0.669954;stroke-dasharray:none;stroke-opacity:1"
           inkscape:transform-center-x="0.090168738"
           inkscape:transform-center-y="-2.8525503"
           d="m 82.620736,64.075292 a 5.1113319,3.0474329 0 0 0 -3.154931,2.815254 5.1113319,3.0474329 0 0 0 5.111241,3.047564 5.1113319,3.0474329 0 0 0 5.111342,-3.047111 5.1113319,3.0474329 0 0 0 -5.111241,-3.047564 5.1113319,3.0474329 0 0 0 -1.956411,0.231857 z m -0.480324,1.444751 a 1.4748961,1.1197351 5.8223311 0 1 1.911037,0.709578 1.4748961,1.1197351 5.8223311 0 1 -0.82342,1.422121 1.4748961,1.1197351 5.8223311 0 1 -1.911305,-0.710105 1.4748961,1.1197351 5.8223311 0 1 0.823688,-1.421594 z"
           transform="matrix(0.97414456,0.22592559,-0.4970197,0.86773926,0,0)" /></g></g></g></svg>
