<?xml version="1.0" encoding="UTF-8" standalone="no"?>
<!-- Created with Inkscape (http://www.inkscape.org/) -->

<svg
   width="105.83334mm"
   height="105.83334mm"
   viewBox="0 0 105.83333 105.83333"
   version="1.1"
   id="svg1"
   xml:space="preserve"
   inkscape:version="1.4 (e7c3feb100, 2024-10-09)"
   sodipodi:docname="brooklyn.svg"
   xmlns:inkscape="http://www.inkscape.org/namespaces/inkscape"
   xmlns:sodipodi="http://sodipodi.sourceforge.net/DTD/sodipodi-0.dtd"
   xmlns:xlink="http://www.w3.org/1999/xlink"
   xmlns="http://www.w3.org/2000/svg"
   xmlns:svg="http://www.w3.org/2000/svg"><sodipodi:namedview
     id="namedview1"
     pagecolor="#ffffff"
     bordercolor="#000000"
     borderopacity="0.25"
     inkscape:showpageshadow="2"
     inkscape:pageopacity="0.0"
     inkscape:pagecheckerboard="0"
     inkscape:deskcolor="#d1d1d1"
     inkscape:document-units="mm"
     inkscape:zoom="1.1902837"
     inkscape:cx="198.69213"
     inkscape:cy="175.58839"
     inkscape:window-width="1920"
     inkscape:window-height="1011"
     inkscape:window-x="0"
     inkscape:window-y="32"
     inkscape:window-maximized="1"
     inkscape:current-layer="layer1" /><defs
     id="defs1" /><g
     inkscape:label="Capa 1"
     inkscape:groupmode="layer"
     id="layer1"><path
       id="path1"
       style="fill:#ffffff;stroke:#b3b3b3;stroke-width:1.11523"
       d="M 103.22105,52.916669 A 50.304375,50.304375 0 0 1 52.916669,103.22105 50.304375,50.304375 0 0 1 2.6122936,52.916669 50.304375,50.304375 0 0 1 52.916669,2.6122937 50.304375,50.304375 0 0 1 103.22105,52.916669 Z" /><circle
       style="fill:#000000;stroke:none;stroke-width:1.04861"
       id="path1-5"
       cx="52.916672"
       cy="52.916672"
       r="47.299576" /><path
       style="fill:#ffffff;stroke-width:9.33054"
       d="m 46.379798,84.985831 c -2.504662,-0.55414 -4.542423,-1.248361 -4.542423,-1.547525 0,-0.09863 0.973109,-0.462143 2.162464,-0.807932 3.847699,-1.118554 7.372692,-3.011896 14.119322,-7.583766 6.666523,-4.517594 11.340361,-7.248363 12.405893,-7.248363 0.447961,0 0.522221,0.332448 0.33095,1.481224 -0.531093,3.189625 -1.880659,8.184317 -2.883667,10.672434 -1.01442,2.51641 -1.132979,2.64407 -3.242736,3.49119 -5.055581,2.029941 -13.093111,2.705678 -18.349794,1.542701 z M 36.774617,81.326842 C 30.661986,77.617608 26.845741,73.570088 23.874424,67.644797 22.151979,64.209974 20.166607,57.737988 20.678369,57.226216 c 0.133145,-0.133144 1.171253,0.165711 2.306938,0.663962 3.590632,1.575526 9.456218,3.483434 12.729688,4.140612 10.195886,2.046904 22.700316,1.299062 32.162334,-1.92349 1.613084,-0.549381 3.079506,-0.99888 3.258699,-0.99888 0.381056,0 0.438718,4.866527 0.07928,6.665502 -0.135792,0.678889 -0.446846,1.235223 -0.691211,1.236277 -1.030492,0.0045 -6.261422,3.061003 -12.609294,7.367829 -3.737095,2.535499 -7.892067,5.109616 -9.233265,5.720253 -2.43891,1.110408 -7.655155,2.709701 -8.837959,2.709701 -0.345137,0 -1.726028,-0.666575 -3.068589,-1.481223 z m 31.792095,0.0065 c -0.101573,-0.166457 0.323116,-1.818709 0.943938,-3.671623 0.62076,-1.852914 1.386417,-4.854099 1.701419,-6.669307 0.315002,-1.815201 0.811103,-3.451468 1.102491,-3.636139 1.485561,-0.941572 9.022086,0.499743 9.022086,1.725468 0,0.711361 -3.862768,5.629739 -6.006605,7.648138 -1.77523,1.671342 -4.27521,3.567148 -6.112127,4.635 -0.256582,0.149109 -0.549566,0.134926 -0.651171,-0.03172 z M 79.559187,67.310861 c -1.152055,-0.452439 -3.127042,-0.812876 -4.739909,-0.865035 -2.558198,-0.08304 -2.762848,-0.153676 -2.736742,-0.948505 0.01579,-0.472498 0.05977,-2.281054 0.09863,-4.019024 0.04567,-2.043575 0.228138,-3.159946 0.516724,-3.159946 0.7025,0 7.999461,-3.764506 10.300148,-5.313888 1.144189,-0.770516 2.216022,-1.40098 2.381854,-1.40098 0.412875,0 0.365478,2.806943 -0.101884,6.039253 -0.464017,3.209313 -2.240719,8.762802 -3.116759,9.74235 -0.600136,0.671051 -0.712564,0.667786 -2.602204,-0.07465 z m -37.898776,-5.05513 c -6.264194,-0.716213 -12.931077,-2.515746 -18.176527,-4.906173 -2.664699,-1.21434 -2.950809,-1.45714 -3.184409,-2.702356 -0.624027,-3.32641 1.126596,-11.630801 3.403873,-16.146772 1.08697,-2.155523 1.211047,-2.258858 3.263915,-2.718275 4.474775,-1.001409 7.238807,0.142296 18.604191,7.698141 8.36257,5.559516 12.08383,7.628738 15.594163,8.671202 2.472331,0.73422 5.484173,0.817076 7.667045,0.210963 0.835086,-0.231864 1.583077,-0.356799 1.662276,-0.277582 0.07928,0.07931 0.297552,1.429718 0.485185,3.001147 0.235306,1.970077 0.207698,2.968006 -0.08857,3.214201 -0.715458,0.593795 -8.476717,2.731299 -12.262907,3.377272 -4.46747,0.762211 -12.858151,1.048164 -16.967851,0.578306 z m 29.971144,-7.71722 -0.381798,-2.989831 1.684201,-1.38007 c 3.484051,-2.85492 5.488162,-7.09354 5.911318,-12.502182 0.132232,-1.691086 0.377882,-3.15959 0.545741,-3.263327 1.219441,-0.753628 5.243658,8.951587 6.035545,14.556011 l 0.212375,1.503083 -3.039914,1.9869 c -3.170566,2.072303 -9.11903,5.079235 -10.047994,5.079235 -0.372741,0 -0.654902,-0.917659 -0.91952,-2.989819 z M 59.999197,51.072589 C 56.716705,49.91368 55.173995,49.011978 45.810699,42.779534 41.587262,39.968318 36.805147,37.03824 35.183769,36.268247 c -2.598171,-1.23386 -3.315679,-1.399982 -6.047027,-1.399982 -1.704492,0 -3.099071,-0.138379 -3.099071,-0.30744 0,-0.169071 0.765944,-1.24726 1.702019,-2.395942 5.059988,-6.209014 13.221949,-10.658132 21.291426,-11.606048 l 2.256318,-0.265081 4.68868,4.69379 c 6.698671,6.705997 10.250892,12.435787 12.929198,20.854981 0.754385,2.371272 1.371552,4.531282 1.371552,4.800019 0,1.541937 -6.372998,1.808566 -10.277667,0.429953 z M 70.882481,49.924765 C 70.794844,49.653248 70.273195,47.914474 69.723459,46.060898 68.462724,41.809783 65.070539,34.916057 62.343915,31.06387 61.190642,29.434525 58.474841,26.341489 56.308794,24.190457 l -3.93826,-3.91096 3.324515,0.229624 c 4.56782,0.315465 7.378919,1.122847 12.08597,3.471296 3.131857,1.562566 4.778046,2.714253 7.441162,5.205878 l 3.419623,3.199432 -0.250434,3.190269 c -0.504028,6.421239 -1.863597,10.109208 -4.814727,13.060344 -1.851193,1.851187 -2.42383,2.125048 -2.694192,1.288464 z"
       id="path2"
       sodipodi:nodetypes="cscssssscccsscsssccsssccccscssccccccsssssscccssssssssccsccccscsscsscccsssscccscsccccsscssscsscc" /><text
       xml:space="preserve"
       style="font-weight:bold;font-size:24.9922px;line-height:0.9;font-family:Sportsball;-inkscape-font-specification:'Sportsball Bold';text-align:start;writing-mode:lr-tb;direction:ltr;text-anchor:start;fill:#000000;stroke:none;stroke-width:1.7658"
       x="31.342325"
       y="54.959942"
       id="text2"><tspan
         sodipodi:role="line"
         id="tspan2"
         style="fill:#000000;stroke-width:1.7658"
         x="31.342325"
         y="54.959942">b</tspan></text><text
       xml:space="preserve"
       style="font-weight:bold;font-size:24.9922px;line-height:0.9;font-family:Sportsball;-inkscape-font-specification:'Sportsball Bold';text-align:start;writing-mode:lr-tb;direction:ltr;text-anchor:start;fill:#000000;stroke:none;stroke-width:1.7658"
       x="51.028931"
       y="74.870308"
       id="text4"><tspan
         sodipodi:role="line"
         id="tspan4"
         style="fill:#000000;stroke-width:1.7658"
         x="51.028931"
         y="74.870308">b</tspan></text><text
       xml:space="preserve"
       style="font-weight:bold;font-size:7.44252px;line-height:0.9;font-family:Sportsball;-inkscape-font-specification:'Sportsball Bold';text-align:start;writing-mode:lr-tb;direction:ltr;text-anchor:start;fill:#ffffff;stroke:none;stroke-width:0.525841"
       id="text5"
       transform="matrix(-0.59348533,-0.67175448,0.67175448,-0.59348533,49.171398,126.59863)"><textPath
         xlink:href="#path1-5"
         id="textPath5"><tspan
           id="tspan5"
           style="fill:#ffffff;stroke-width:0.525841">brooklyn</tspan></textPath></text><text
       xml:space="preserve"
       style="font-weight:bold;font-size:9.22081px;line-height:0.9;font-family:Sportsball;-inkscape-font-specification:'Sportsball Bold';text-align:start;writing-mode:lr-tb;direction:ltr;text-anchor:start;fill:#ffffff;stroke:none;stroke-width:0.651483"
       x="43.004753"
       y="97.583527"
       id="text6"><tspan
         sodipodi:role="line"
         id="tspan6"
         style="stroke-width:0.651483"
         x="43.004753"
         y="97.583527">ny</tspan></text></g></svg>
