<?xml version="1.0" encoding="UTF-8" standalone="no"?>
<!-- Created with Inkscape (http://www.inkscape.org/) -->

<svg
   width="105.83334mm"
   height="105.83334mm"
   viewBox="0 0 105.83333 105.83333"
   version="1.1"
   id="svg1"
   xml:space="preserve"
   inkscape:version="1.4 (e7c3feb100, 2024-10-09)"
   sodipodi:docname="charlotte.svg"
   inkscape:export-filename="../pngs/charlotte.png"
   inkscape:export-xdpi="96"
   inkscape:export-ydpi="96"
   xmlns:inkscape="http://www.inkscape.org/namespaces/inkscape"
   xmlns:sodipodi="http://sodipodi.sourceforge.net/DTD/sodipodi-0.dtd"
   xmlns="http://www.w3.org/2000/svg"
   xmlns:svg="http://www.w3.org/2000/svg"><sodipodi:namedview
     id="namedview1"
     pagecolor="#ffffff"
     bordercolor="#000000"
     borderopacity="0.25"
     inkscape:showpageshadow="2"
     inkscape:pageopacity="0.0"
     inkscape:pagecheckerboard="0"
     inkscape:deskcolor="#d1d1d1"
     inkscape:document-units="mm"
     inkscape:zoom="1.6952882"
     inkscape:cx="221.49626"
     inkscape:cy="225.92029"
     inkscape:window-width="1920"
     inkscape:window-height="1011"
     inkscape:window-x="0"
     inkscape:window-y="32"
     inkscape:window-maximized="1"
     inkscape:current-layer="layer1"
     showgrid="false" /><defs
     id="defs1" /><g
     inkscape:label="Capa 1"
     inkscape:groupmode="layer"
     id="layer1"><path
       sodipodi:type="star"
       style="fill:#ffffff;fill-opacity:1;stroke:#1d1160;stroke-width:1.236;stroke-dasharray:none;stroke-opacity:1"
       id="path5"
       inkscape:flatsided="true"
       sodipodi:sides="6"
       sodipodi:cx="-6.2427931"
       sodipodi:cy="11.237027"
       sodipodi:r1="31.252958"
       sodipodi:r2="27.065855"
       sodipodi:arg1="1.0471976"
       sodipodi:arg2="1.5707963"
       inkscape:rounded="0"
       inkscape:randomized="0"
       d="m 9.3836847,38.302884 -31.2529587,-2e-6 -15.626477,-27.065856 15.62648,-27.065855 31.2529584,1e-6 15.6264776,27.065857 z"
       transform="matrix(1.6397965,0,0,1.6397965,63.153582,34.356654)" /><text
       xml:space="preserve"
       style="font-style:normal;font-variant:normal;font-weight:normal;font-stretch:normal;font-size:135.477px;line-height:0.9;font-family:Sportsball;-inkscape-font-specification:Sportsball;text-align:start;writing-mode:lr-tb;direction:ltr;text-anchor:start;fill:#00788c;fill-opacity:1;stroke-width:9.5719"
       x="9.8254089"
       y="100.21455"
       id="text3"><tspan
         sodipodi:role="line"
         id="tspan3"
         style="font-style:normal;font-variant:normal;font-weight:normal;font-stretch:normal;font-family:'Ranked Sports';-inkscape-font-specification:'Ranked Sports';fill:#00788c;fill-opacity:1;stroke-width:9.5719"
         x="9.8254089"
         y="100.21455">C</tspan></text><text
       xml:space="preserve"
       style="font-style:normal;font-variant:normal;font-weight:normal;font-stretch:normal;font-size:108.996px;line-height:0.9;font-family:'Ranked Sports';-inkscape-font-specification:'Ranked Sports';text-align:start;writing-mode:lr-tb;direction:ltr;text-anchor:start;fill:#ffffff;stroke:#a1a1a4;stroke-width:1.78369;stroke-dasharray:none;stroke-opacity:1"
       x="19.309496"
       y="91.588654"
       id="text4"><tspan
         sodipodi:role="line"
         id="tspan4"
         style="fill:#ffffff;stroke:#a1a1a4;stroke-width:1.78369;stroke-dasharray:none;stroke-opacity:1"
         x="19.309496"
         y="91.588654">s</tspan></text><path
       style="fill:#1d1160;stroke-width:2.70715;fill-opacity:1"
       d="m 57.112435,66.260825 c 0.0875,-0.283641 0.296893,-0.78681 0.465327,-1.118152 0.294272,-0.57889 1.319771,-4.02701 1.142765,-3.842401 -0.04743,0.04946 -0.604103,0.863511 -1.237044,1.808983 -0.632939,0.94547 -1.519965,2.074538 -1.97117,2.509039 l -0.820373,0.790001 -2.177321,-0.524904 c -1.197528,-0.288698 -2.177322,-0.618412 -2.177322,-0.732699 0,-0.114296 0.09727,-0.207801 0.216138,-0.207801 0.414229,0 3.035342,-2.613572 4.006464,-3.994946 1.411674,-2.008023 1.471291,-2.174328 0.453023,-1.263742 -2.576564,2.304085 -6.830104,4.369466 -8.259729,4.010654 -0.777365,-0.195105 -2.833638,-2.2754 -2.833638,-2.866744 0,-0.375996 0.148135,-0.469999 0.744918,-0.472711 1.270825,-0.0057 3.645099,-0.668703 5.32554,-1.486951 1.5046,-0.732624 3.933505,-2.563607 3.704526,-2.792584 -0.05653,-0.05653 -0.610337,0.154388 -1.230671,0.468748 -0.620335,0.314347 -1.767379,0.737247 -2.548987,0.939786 -1.817753,0.471026 -4.887479,0.712022 -5.401977,0.424093 -0.351964,-0.196972 -0.295176,-0.346253 0.527747,-1.387328 1.063684,-1.345661 2.136735,-2.214486 3.653037,-2.957791 1.326022,-0.650024 0.990185,-0.680759 -0.914527,-0.0837 -2.165021,0.678662 -3.859606,0.534023 -3.859606,-0.329435 0,-0.463918 1.954408,-2.105786 3.606222,-3.029532 0.789959,-0.441771 1.43629,-0.837599 1.43629,-0.879619 0,-0.166192 -1.777548,0.418207 -2.764235,0.90878 -0.574857,0.285813 -1.89344,1.148593 -2.930181,1.917293 -1.064852,0.789538 -2.236551,1.463586 -2.693011,1.549219 -3.374178,0.632998 -17.430115,-3.821115 -19.976696,-6.330313 -1.790073,-1.763794 -0.363404,-2.655718 5.279768,-3.3008 8.434174,-0.964127 18.380453,-0.57745 26.572924,1.033059 2.454274,0.482473 2.457893,0.482506 3.096368,0.02787 0.866509,-0.617007 2.35524,-0.990664 3.297142,-0.827551 0.5874,0.101738 0.692409,0.07486 0.432145,-0.110613 -0.189096,-0.134734 -0.827017,-0.246567 -1.417608,-0.248517 -0.590595,-0.002 -1.361757,-0.112996 -1.7137,-0.246783 -0.822399,-0.312675 -3.260854,-0.810094 -4.947456,-1.009229 -1.235863,-0.145915 -1.30179,-0.184329 -1.06749,-0.622135 0.142856,-0.266952 0.163837,-0.55251 0.049,-0.667342 -0.364621,-0.364619 -6.764631,-0.624589 -10.397189,-0.422339 -1.936181,0.107795 -3.55474,0.16159 -3.596795,0.119549 -0.123609,-0.123636 3.196554,-0.57636 6.206684,-0.846339 2.677097,-0.240096 7.244373,-0.129455 9.206185,0.223042 0.749907,0.134735 0.907717,0.252062 0.866815,0.644469 -0.04485,0.430269 0.108747,0.496612 1.489832,0.643469 2.528959,0.268929 5.723208,1.190257 8.055823,2.323601 1.775318,0.862569 2.526633,1.398712 3.938563,2.810578 1.380131,1.380087 2.953956,3.6317 2.953956,4.226142 0,0.04953 -1.421331,0.162212 -3.158507,0.250383 -3.563977,0.180919 -5.565971,-0.107772 -7.781577,-1.12212 -0.702678,-0.321695 -1.28972,-0.55763 -1.304541,-0.524303 -0.275012,0.618485 -1.962543,2.833746 -2.354137,3.090326 -0.734178,0.481052 -0.67208,0.609769 0.454702,0.942466 1.729528,0.510668 3.65109,1.947239 7.596891,5.679473 2.117854,2.003225 4.353542,4.020726 4.968226,4.483339 l 1.117566,0.84111 -2.118667,0.690071 c -1.165264,0.379539 -2.608594,0.787889 -3.207392,0.907445 l -1.088724,0.217355 -0.01462,-1.633948 -0.01461,-1.633951 -0.524776,1.570069 c -0.288625,0.86354 -0.668876,1.661314 -0.844998,1.772829 -0.176126,0.111507 -1.074953,0.204337 -1.997402,0.206258 -1.634285,0.0036 -1.673113,-0.0098 -1.518097,-0.5122 z m 8.354784,-18.107924 c -1.414516,-1.303759 -2.737415,-1.992459 -3.841573,-1.999921 -2.091846,-0.01408 0.730163,2.277195 3.796309,3.082405 0.590862,0.155174 1.125875,0.236036 1.188898,0.179675 0.06308,-0.05634 -0.451606,-0.62432 -1.143634,-1.262167 z m 2.633457,15.27334 -1.146015,-1.041992 1.825049,0.147215 c 1.003782,0.08096 2.447773,0.355325 3.208858,0.609703 1.549172,0.517759 2.236671,0.975132 1.134429,0.754681 -0.624293,-0.124853 -2.649262,0.132624 -3.53247,0.449176 -0.20493,0.0735 -0.806295,-0.297275 -1.489851,-0.91877 z"
       id="path4"
       sodipodi:nodetypes="csssscssssssscssssssssssssssssssssssssssssssssssssssssscsscccsscccssssssccsssssc" /></g></svg>
