<?xml version="1.0" encoding="UTF-8" standalone="no"?>
<!-- Created with Inkscape (http://www.inkscape.org/) -->

<svg
   width="105.83334mm"
   height="105.83334mm"
   viewBox="0 0 105.83333 105.83333"
   version="1.1"
   id="svg1"
   xml:space="preserve"
   inkscape:version="1.4 (e7c3feb100, 2024-10-09)"
   sodipodi:docname="charlotte.svg"
   inkscape:export-filename="../pngs/charlotte.png"
   inkscape:export-xdpi="96"
   inkscape:export-ydpi="96"
   xmlns:inkscape="http://www.inkscape.org/namespaces/inkscape"
   xmlns:sodipodi="http://sodipodi.sourceforge.net/DTD/sodipodi-0.dtd"
   xmlns="http://www.w3.org/2000/svg"
   xmlns:svg="http://www.w3.org/2000/svg"><sodipodi:namedview
     id="namedview1"
     pagecolor="#ffffff"
     bordercolor="#000000"
     borderopacity="0.25"
     inkscape:showpageshadow="2"
     inkscape:pageopacity="0.0"
     inkscape:pagecheckerboard="0"
     inkscape:deskcolor="#d1d1d1"
     inkscape:document-units="mm"
     inkscape:zoom="0.41559108"
     inkscape:cx="358.5255"
     inkscape:cy="-320.02612"
     inkscape:window-width="1920"
     inkscape:window-height="1011"
     inkscape:window-x="0"
     inkscape:window-y="32"
     inkscape:window-maximized="1"
     inkscape:current-layer="layer1"
     showgrid="false"
     showguides="false" /><defs
     id="defs1" /><g
     inkscape:label="Capa 1"
     inkscape:groupmode="layer"
     id="layer1"><rect
       style="fill:#a1a1a4;fill-opacity:1;fill-rule:evenodd;stroke-width:0.264583"
       id="rect1"
       width="19.664799"
       height="18.104099"
       x="-69.607147"
       y="15.606983"
       ry="0.029487522"
       transform="scale(-1)" /><rect
       style="fill:#1d1160;fill-opacity:1;fill-rule:evenodd;stroke-width:0.264583"
       id="rect1-5"
       width="19.664799"
       height="18.104099"
       x="-19.976938"
       y="15.606983"
       ry="0.029487522"
       transform="scale(-1)" /><rect
       style="fill:#00788c;fill-opacity:1;fill-rule:evenodd;stroke-width:0.264583"
       id="rect1-2"
       width="19.664799"
       height="18.104099"
       x="-45.26025"
       y="15.606983"
       ry="0.029487522"
       transform="scale(-1)" /><g
       id="g4"
       transform="translate(-124.37014,130.76507)"><path
         sodipodi:type="star"
         style="fill:#00788c;fill-opacity:1;stroke:#1d1160;stroke-width:3;stroke-dasharray:none;stroke-opacity:1"
         id="path2-2-1"
         inkscape:flatsided="true"
         sodipodi:sides="6"
         sodipodi:cx="-78.69239"
         sodipodi:cy="-32.96172"
         sodipodi:r1="43.011997"
         sodipodi:r2="37.249481"
         sodipodi:arg1="1.0471976"
         sodipodi:arg2="1.5707963"
         inkscape:rounded="0"
         inkscape:randomized="0"
         d="m -57.186394,4.2877638 -43.011996,-2.1e-6 -21.506,-37.2494837 21.506,-37.249481 43.012,2e-6 21.505997,37.249484 z"
         transform="matrix(1.1453972,0,0,1.1453972,267.42086,-46.701588)" /><ellipse
         style="fill:#1d1160;fill-opacity:1;stroke:none;stroke-width:2.25715;stroke-dasharray:none;stroke-opacity:1"
         id="path1-6-5"
         cx="174.96036"
         cy="-96.500809"
         rx="8.4577188"
         ry="6.7555361" /><ellipse
         style="fill:#1d1160;fill-opacity:1;stroke:none;stroke-width:2.25715;stroke-dasharray:none;stroke-opacity:1"
         id="path1-0-1-9"
         cx="172.54593"
         cy="-74.668526"
         rx="8.4577188"
         ry="6.7555361" /><text
         xml:space="preserve"
         style="font-style:normal;font-variant:normal;font-weight:normal;font-stretch:normal;font-size:101.931px;line-height:0.9;font-family:Sportsball;-inkscape-font-specification:Sportsball;text-align:start;writing-mode:lr-tb;direction:ltr;text-anchor:start;fill:#1d1160;fill-opacity:1;stroke:#a1a1a4;stroke-width:2.25715;stroke-dasharray:none;stroke-opacity:1"
         x="144.96404"
         y="-48.601673"
         id="text3-0-7"><tspan
           sodipodi:role="line"
           id="tspan3-6-7"
           style="font-style:normal;font-variant:normal;font-weight:normal;font-stretch:normal;font-family:'Ranked Sports';-inkscape-font-specification:'Ranked Sports';fill:#1d1160;fill-opacity:1;stroke:#a1a1a4;stroke-width:2.25715;stroke-dasharray:none;stroke-opacity:1"
           x="144.96404"
           y="-48.601673">C</tspan></text><path
         d="m 174.84899,-57.595198 c -5.46347,0 -9.8393,-1.35322 -13.1275,-4.05966 -3.2629,-2.70644 -5.00818,-6.52581 -5.23583,-11.4581 l -1.5935,-0.75882 -0.18971,-6.22228 12.82397,-0.45529 0.22765,5.76699 c 0.0253,0.78411 0.215,1.55557 0.56912,2.31439 0.35411,0.73352 0.96116,1.35322 1.82115,1.85909 0.85999,0.50588 2.08674,0.75882 3.68025,0.75882 1.59351,0 2.79497,-0.20235 3.60437,-0.60705 0.80941,-0.43 1.35323,-0.94852 1.63146,-1.55557 0.27823,-0.60706 0.41735,-1.16352 0.41735,-1.6694 v -0.22764 c 0,-0.50588 -0.13912,-0.99911 -0.41735,-1.47969 -0.25295,-0.50588 -0.78411,-1.03705 -1.59352,-1.59351 -0.7841,-0.55647 -1.93497,-1.15087 -3.45261,-1.78322 -6.24757,-2.07409 -10.74988,-4.52759 -13.5069,-7.3605 -2.73174,-2.83291 -4.0976,-6.63964 -4.0976,-11.42017 0,-3.439962 0.82205,-6.374052 2.46614,-8.802262 1.6694,-2.45349 3.89526,-4.31259 6.67758,-5.57728 2.78232,-1.28999 5.86817,-1.93498 9.25754,-1.93498 4.60348,0 8.52403,1.51763 11.76164,4.55289 3.23761,3.00996 4.99553,6.89257 5.27376,11.647812 l 1.83177,0.87263 c 0,0 -0.0409,4.229848 -0.0165,4.571618 -4.17348,-0.0759 -8.40431,0.0576 -12.5525,-0.0941 l -0.0759,-2.163088 c -0.10117,-1.6441 -0.72087,-3.02261 -1.85909,-4.13554 -1.13823,-1.13822 -2.50409,-1.707332 -4.0976,-1.707332 -2.14998,0 -3.65496,0.531172 -4.51496,1.593512 -0.20234,0.15176 -0.30352,0.54382 -0.30352,1.17616 0,0.45529 0.11382,0.87264 0.34147,1.25205 0.15176,0.25293 0.72087,0.69558 1.70733,1.32792 1.01175,0.60705 2.56732,1.36587 4.66671,2.27645 5.51406,1.69468 9.62431,4.05966 12.33075,7.09492 2.73173,3.00997 4.0976,6.9558 4.0976,11.83751 0,3.3135 -0.73352,6.15905 -2.20056,8.53667 -1.46705,2.35233 -3.5032,4.17349 -6.10846,5.46347 -2.60527,1.28999 -5.62788,1.99822 -9.06784,2.12468 z"
         id="text4-1-6"
         style="font-size:103.275px;line-height:0.9;font-family:'Ranked Sports';-inkscape-font-specification:'Ranked Sports';fill:#ffffff;fill-opacity:1;stroke:#1d1160;stroke-width:2.1387;stroke-opacity:1"
         aria-label="s"
         sodipodi:nodetypes="ccccccccsscsssccccsccscccccccscsscccscscc" /><circle
         style="fill:#1d1160;fill-opacity:1;stroke:none;stroke-width:0.357728"
         id="path22-5-7"
         cx="-74.532051"
         cy="-176.03949"
         r="12.967469"
         transform="rotate(90)" /><path
         id="path62-9-3"
         style="fill:#00788c;fill-opacity:1;stroke-width:1.86144"
         d="m 165.28968,-77.371548 c 0.401,-1.45113 0.95724,-2.60225 1.81878,-3.76387 l 0.74599,-1.00581 1.25623,1.24222 c 0.69092,0.68322 1.50736,1.5812 1.8143,1.99552 0.63582,0.85824 1.30411,2.6058 1.30905,3.42316 0.003,0.52348 -0.0228,0.55023 -0.50888,0.52434 -0.28172,-0.0149 -1.91291,-0.0328 -3.62487,-0.0395 l -3.11265,-0.013 0.01,-0.66981 c 0.005,-0.3684 0.13688,-1.13081 0.29257,-1.69423 z m 3.32281,3.30965 h 3.62485 v 0.44419 c 0,0.72251 -0.46616,2.09403 -1.02765,3.02355 -0.40088,0.66362 -1.97796,2.38224 -3.30376,3.60028 -0.11544,0.1061 -1.48702,-1.88829 -1.91079,-2.77836 -0.52256,-1.09758 -1.00751,-2.87275 -1.00751,-3.68799 v -0.60167 z m 0.81931,-9.39247 c 1.60914,-1.19188 4.02094,-2.11252 5.53426,-2.11252 h 0.58094 l 7e-5,5.31909 8e-5,5.31908 -1.1427,-0.0316 c -0.62848,-0.0168 -1.18612,-0.0352 -1.23919,-0.0395 -0.0531,-0.004 -0.14218,-0.39625 -0.198,-0.87121 -0.23083,-1.96401 -1.06881,-3.42476 -3.1404,-5.4743 l -1.38817,-1.37339 z m 0.66203,15.42849 c 1.88571,-1.87171 2.72166,-3.4577 2.96073,-5.61725 0.0494,-0.44673 0.0531,-0.44809 1.23161,-0.46138 l 1.18202,-0.013 0.0415,5.32964 0.0415,5.32963 -1.03197,-0.10573 c -0.56758,-0.0581 -1.61462,-0.31779 -2.32676,-0.57697 -1.35789,-0.49418 -3.48001,-1.82172 -3.53025,-2.20842 -0.0162,-0.12435 0.62804,-0.87864 1.43157,-1.67619 z m 7.34529,-17.49412 c 0.56391,0.0473 1.61165,0.29992 2.32828,0.56146 1.30256,0.47537 3.45611,1.76764 3.60879,2.16549 0.047,0.12267 -0.538,0.82975 -1.39787,1.68961 -1.75845,1.75845 -2.57438,3.17803 -2.85652,4.9699 l -0.17731,1.12603 -1.06834,0.0236 c -0.58759,0.0131 -1.14293,0.0307 -1.23411,0.0395 -0.11247,0.0112 -0.17581,-1.70108 -0.19701,-5.32285 l -0.0312,-5.3386 z m 0.27491,11.45802 1.30022,8e-5 v 0.52301 c 0,0.28765 0.11314,0.90819 0.25144,1.37901 0.46294,1.57613 1.16991,2.65824 2.78551,4.26372 l 1.54001,1.53035 -0.68156,0.55849 c -1.41235,1.15732 -4.31588,2.30479 -5.83198,2.30479 h -0.57683 l -0.0435,-5.27978 -0.0436,-5.27975 z m 2.34088,-2.67535 c 0.34494,-1.28359 0.90516,-2.12115 2.55836,-3.82483 1.18147,-1.21758 1.53594,-1.49998 1.70584,-1.35897 0.50958,0.42292 1.68661,2.4389 2.12453,3.63882 0.26154,0.71664 0.51427,1.76438 0.56162,2.32828 l 0.0861,1.02531 -3.64454,-0.045 -3.64455,-0.045 0.0104,-0.42776 c 0.006,-0.23527 0.11472,-0.8161 0.24228,-1.29074 z m 3.05701,2.65573 c 1.8203,-0.0112 3.43376,-0.0287 3.58545,-0.0394 0.39634,-0.0283 0.44004,0.82803 0.11139,2.18298 -0.34242,1.41175 -1.0015,2.80635 -1.90855,4.03849 l -0.7154,0.97182 -1.41205,-1.40007 c -0.77662,-0.77003 -1.64936,-1.79011 -1.93941,-2.26685 -0.56365,-0.92648 -1.0311,-2.29697 -1.0311,-3.02307 v -0.4442 z" /><g
         id="text2-7-9-5"
         style="fill:#ffffff;fill-opacity:1"
         transform="translate(123.31147,-130.32805)"><path
           style="-inkscape-font-specification:'Lifestyle Rounded M54';fill:#ffffff;fill-opacity:1"
           d="m 19.970471,94.80772 q -1.21956,0 -2.129062,0.873329 -0.904335,0.868161 -0.904335,2.123895 0,1.266068 0.904335,2.134229 0.909502,0.868157 2.129062,0.868157 1.302242,0 2.216912,-0.956006 l 0.893999,1.508946 q -0.635618,0.51676 -1.431432,0.81132 -0.790647,0.28939 -1.679479,0.28939 -1.989536,0 -3.395131,-1.35909 -1.405594,-1.364254 -1.405594,-3.296946 0,-1.922358 1.405594,-3.286611 1.405595,-1.364254 3.395131,-1.364254 1.007687,0 1.72082,0.30489 0.7183,0.30489 0.93534,0.475422 v 1.565791 H 20.967823 V 94.967916 Q 20.507904,94.80772 19.970471,94.80772 Z m 4.041084,-1.508947 h 1.472774 q 0.30489,0 0.52193,0.21704 0.21704,0.217041 0.21704,0.521931 v 2.945547 h 3.725859 v -2.945547 q 0,-0.30489 0.211873,-0.521931 0.21704,-0.21704 0.527098,-0.21704 h 1.539953 v 1.669143 h -0.620116 v 7.369034 h -1.658808 v -3.684516 h -3.725859 v 3.684516 h -1.669143 l 0.01034,-7.369034 H 24.01156 Z m 12.195599,4.935084 h 1.410762 l -0.7183,-2.191074 z m 1.953363,1.674311 h -2.480461 l -0.604612,1.912022 q -0.165365,0.51676 -0.707965,0.51676 h -1.209225 v -1.67431 h 0.542601 l 2.325432,-7.363867 h 1.705317 l 2.449455,7.363867 h 0.542601 v 1.67431 h -1.229896 q -0.5426,0 -0.702797,-0.51159 z m 3.493316,-6.609395 h 3.834379 q 0.361734,0 0.764809,0.09302 0.583941,0.155029 1.033525,0.490925 0.449583,0.341063 0.69763,0.837155 0.263549,0.547769 0.263549,1.21956 v 0.05168 q -0.0155,0.568438 -0.19637,1.012854 -0.1757,0.428913 -0.485757,0.744139 -0.258382,0.268716 -0.60978,0.475421 l 1.291907,2.439123 h 0.537433 v 1.67431 h -1.555456 l -1.917189,-3.68452 h -1.457271 v 3.68452 h -1.663976 v -7.369038 h -0.537433 z m 2.201409,1.669143 v 2.015375 h 1.622635 q 0.387572,0 0.707964,-0.253214 0.320393,-0.258381 0.320393,-0.73897 0,-0.418578 -0.30489,-0.718301 -0.30489,-0.30489 -0.723467,-0.30489 z m 6.397523,6.624894 v -6.624894 h -0.537434 v -1.669143 h 1.472774 q 0.30489,0 0.52193,0.21704 0.217041,0.217041 0.217041,0.521931 v 6.640396 h 2.780183 v -0.5426 h 1.596797 v 1.45727 q 0,0.31006 -0.217041,0.5271 -0.21704,0.21704 -0.52193,0.21704 h -4.568182 q -0.310058,0 -0.527098,-0.21704 -0.21704,-0.21704 -0.21704,-0.5271 z m 11.78219,-6.774755 q -1.21956,0 -2.129063,0.873329 -0.909502,0.868161 -0.909502,2.123895 0,1.266068 0.909502,2.13423 0.909503,0.868161 2.129063,0.868161 1.21956,0 2.129062,-0.868161 0.909502,-0.868162 0.909502,-2.13423 0,-1.255734 -0.909502,-2.123895 -0.909502,-0.873329 -2.129062,-0.873329 z m 0,-1.658808 q 1.989536,0 3.39513,1.369421 1.410763,1.364254 1.410763,3.286611 0,1.932692 -1.410763,3.296941 -1.405594,1.35909 -3.39513,1.35909 -1.989537,0 -3.395131,-1.35909 -1.405595,-1.364249 -1.405595,-3.296941 0,-1.922357 1.405595,-3.286611 1.405594,-1.369421 3.395131,-1.369421 z m 8.516247,9.177703 v -7.369034 h -1.116208 v 0.532266 h -1.663976 v -1.462438 q 0,-0.30489 0.211873,-0.521931 0.21704,-0.21704 0.527098,-0.21704 h 5.741233 q 0.30489,0 0.521931,0.21704 0.21704,0.217041 0.21704,0.521931 v 1.462438 H 73.331385 V 94.967916 H 72.21001 v 7.369034 z m 8.149345,0 V 94.967916 H 77.58434 v 0.532266 h -1.663976 v -1.462438 q 0,-0.30489 0.211872,-0.521931 0.217041,-0.21704 0.527098,-0.21704 h 5.741234 q 0.30489,0 0.52193,0.21704 0.21704,0.217041 0.21704,0.521931 v 1.462438 H 81.48073 v -0.532266 h -1.121375 v 7.369034 z m 5.369162,-9.038177 h 5.849754 q 0.30489,0 0.52193,0.21704 0.222208,0.217041 0.222208,0.521931 v 1.462438 h -1.596797 v -0.542601 h -2.785351 v 2.02571 h 2.785351 v 1.669143 h -2.785351 v 2.010206 h 2.785351 v -0.5426 h 1.596797 v 1.47277 q 0,0.31006 -0.222208,0.5271 -0.21704,0.21704 -0.52193,0.21704 h -4.568182 q -0.310058,0 -0.527098,-0.21704 -0.211873,-0.21704 -0.211873,-0.5271 v -6.635229 h -0.542601 z"
           id="path3-0-6" /><path
           style="-inkscape-font-specification:'Lifestyle Rounded M54';fill:#ffffff;fill-opacity:1"
           d="m 19.970703,92.154297 c -1.554929,0 -2.985527,0.572752 -4.091797,1.646484 -1.10551,1.072996 -1.708984,2.478607 -1.708984,4.003906 0,1.530886 0.602568,2.941753 1.708984,4.015623 h 0.002 c 1.106561,1.06995 2.53578,1.64063 4.089844,1.64063 0.701083,0 1.382756,-0.11511 2.023438,-0.34961 l 0.002,-0.002 h 0.002 c 0.569859,-0.21093 1.082501,-0.52126 1.55664,-0.88282 l -0.002,1.11133 h 3.669922 v -3.685546 h 1.726563 v 3.685546 h 3.208984 0.449219 1.759765 c 0.339597,0 0.724538,-0.0927 1.039063,-0.32226 0.314525,-0.22958 0.51759,-0.56718 0.621094,-0.89063 l 0.002,-0.002 0.382812,-1.21485 h 1.02525 l 0.400391,1.22071 c 0.10192,0.32299 0.307213,0.66018 0.621093,0.88867 0.315131,0.22939 0.697148,0.32031 1.035157,0.32031 h 1.697265 0.533203 3.13086 v -3.396484 l 1.767578,3.396484 h 3.162109 v -0.50195 c 0.313291,0.30346 0.778678,0.50195 1.210938,0.50195 h 4.568359 c 0.440548,0 0.920223,-0.20147 1.230469,-0.51172 0.313055,-0.31305 0.509765,-0.79238 0.509765,-1.23242 v -0.6875 c 0.213013,0.30926 0.360323,0.65367 0.638672,0.92383 l 0.002,0.002 c 1.106561,1.06995 2.53578,1.63867 4.089844,1.63867 1.554064,0 2.983284,-0.56872 4.089844,-1.63867 1.110144,-1.07354 1.716797,-2.4858 1.716797,-4.017577 0,-0.461787 -0.159418,-0.880501 -0.267578,-1.314453 h 1.976562 v 6.83789 h 3.660156 V 96.5 h 1.708985 1.070312 1.710938 v 6.83789 h 3.658203 V 96.5 h 2.253906 v 5.09375 c 0,0.43448 0.188574,0.90959 0.496094,1.22461 l 0.0039,0.004 0.0039,0.004 c 0.313053,0.31305 0.794337,0.51172 1.234375,0.51172 h 4.56836 c 0.439105,0 0.914284,-0.20126 1.224609,-0.50976 0.314902,-0.31125 0.519531,-0.79167 0.519531,-1.23438 V 99.119141 H 90.066406 V 96.5 h 1.597656 v -2.462891 c 10e-7,-0.444151 -0.208336,-0.92205 -0.521484,-1.230468 -0.310354,-0.307788 -0.784149,-0.507813 -1.222656,-0.507813 h -6.84961 v 0.277344 c -0.229237,-0.104241 -0.429767,-0.277344 -0.669921,-0.277344 h -5.740235 c -0.430237,0 -0.893733,0.197068 -1.207031,0.498047 -0.310554,-0.298428 -0.770477,-0.498047 -1.201172,-0.498047 h -5.742187 c -0.440038,0 -0.921323,0.196713 -1.234375,0.509766 l -0.0039,0.0039 -0.0039,0.0039 c -0.304747,0.31218 -0.496094,0.785805 -0.496094,1.220703 v 0.703125 c -0.214511,-0.310963 -0.363877,-0.656079 -0.644531,-0.927734 -1.105977,-1.077514 -2.536002,-1.652344 -4.091797,-1.652344 -1.554858,0 -2.986094,0.574129 -4.091797,1.650391 -1.105511,1.072996 -1.708984,2.478607 -1.708984,4.003906 0,0.463617 0.157822,0.884878 0.265625,1.320313 h -2.792969 v 0.542968 h -0.779297 v -5.640625 c 0,-0.440548 -0.199519,-0.918269 -0.509765,-1.228515 -0.310247,-0.310247 -0.789921,-0.509766 -1.230469,-0.509766 h -2.472656 v 1.777344 c -0.222903,-0.370815 -0.478,-0.727586 -0.824219,-0.990235 l -0.002,-0.002 -0.0039,-0.002 c -0.40693,-0.304028 -0.874104,-0.523268 -1.375,-0.65625 l -0.01563,-0.0039 -0.01563,-0.0039 c -0.332583,-0.07675 -0.663362,-0.119141 -0.990235,-0.119141 h -4.833984 v 3.669922 h 0.537109 v 3.693359 H 40.902344 L 38.453125,92.298828 H 35.292969 L 32.96875,99.662109 H 32.607422 V 95.96875 h 0.621094 V 92.298828 H 30.6875 c -0.440038,0 -0.921322,0.196713 -1.234375,0.509766 l -0.0039,0.0039 -0.0039,0.0039 c -0.304746,0.31218 -0.496093,0.785805 -0.496093,1.220703 v 1.945313 h -1.726563 v -1.945313 c 0,-0.440547 -0.19952,-0.918269 -0.509765,-1.228515 -0.310247,-0.310247 -0.787968,-0.509766 -1.228516,-0.509766 h -2.472656 v 0.728516 c -0.270257,-0.17571 -0.52288,-0.316432 -0.927748,-0.48827 h -0.002 c -0.631542,-0.269671 -1.339373,-0.384765 -2.111328,-0.384765 z m -0.002,3.654297 V 96.5 h 3.59375 l -0.0059,3.70117 -1.181641,-1.994139 -0.910156,0.953125 c -0.4459,0.466051 -0.870687,0.646485 -1.494141,0.646485 -0.575753,0 -0.994603,-0.16717 -1.439453,-0.591797 -0.42502,-0.409345 -0.59375,-0.805928 -0.59375,-1.410157 0,-0.597101 0.166574,-0.99038 0.595703,-1.402343 0.44475,-0.427061 0.862239,-0.593363 1.435547,-0.59375 z m 42.066406,0.0098 c 0.57434,0 0.990281,0.166193 1.435547,0.59375 l 0.002,0.002 c 0.432143,0.4125 0.601563,0.804662 0.601563,1.400391 0,0.60459 -0.170853,1.000977 -0.601563,1.412109 -0.44485,0.42463 -0.861748,0.591797 -1.4375,0.591797 -0.575752,0 -0.994602,-0.167166 -1.439453,-0.591797 -0.430709,-0.411132 -0.599609,-0.807519 -0.599609,-1.412109 0,-0.595729 0.167466,-0.987891 0.599609,-1.400391 h 0.002 v -0.002 c 0.445267,-0.427557 0.863161,-0.59375 1.4375,-0.59375 z m 25.246094,0.138672 h 0.785156 v 0.02539 H 87.28125 Z m -42.425781,0.01172 h 0.623047 c 0.0261,0 0.01201,8.91e-4 0.01172,0.0078 -0.0039,-1.83e-4 -0.0062,0.0059 -0.01172,0.0059 h -0.623047 z m 4.392578,0 h 0.0039 v 3.693359 h -0.402344 l -0.621093,-1.173828 c 0.01505,-0.015 0.03601,-0.0238 0.05078,-0.03906 l 0.002,-0.0039 c 0.298036,-0.303849 0.533092,-0.666491 0.695312,-1.0625 l 0.002,-0.002 c 0.172935,-0.42492 0.256502,-0.885476 0.269531,-1.363281 v -0.01367 z m 38.033203,3.683594 h 0.785156 v 0.0098 H 87.28125 Z"
           id="path4-9-3" /></g><path
         style="font-size:10.5833px;line-height:1;font-family:'Lifestyle Rounded M54';-inkscape-font-specification:'Lifestyle Rounded M54';text-align:center;letter-spacing:0px;text-anchor:middle;fill:#1d1160;fill-opacity:1;stroke-width:3"
         d="m 143.28194,-35.52033 q -1.21956,0 -2.12906,0.873329 -0.90434,0.868161 -0.90434,2.123895 0,1.266068 0.90434,2.134229 0.9095,0.868157 2.12906,0.868157 1.30224,0 2.21691,-0.956006 l 0.894,1.508946 q -0.63562,0.51676 -1.43143,0.81132 -0.79065,0.28939 -1.67948,0.28939 -1.98954,0 -3.39513,-1.35909 -1.40559,-1.364254 -1.40559,-3.296946 0,-1.922358 1.40559,-3.286611 1.40559,-1.364254 3.39513,-1.364254 1.00769,0 1.72082,0.30489 0.7183,0.30489 0.93534,0.475422 v 1.565791 h -1.65881 v -0.532266 q -0.45992,-0.160196 -0.99735,-0.160196 z m 4.04108,-1.508947 h 1.47278 q 0.30489,0 0.52193,0.21704 0.21704,0.217041 0.21704,0.521931 v 2.945547 h 3.72586 v -2.945547 q 0,-0.30489 0.21187,-0.521931 0.21704,-0.21704 0.5271,-0.21704 h 1.53995 v 1.669143 h -0.62011 v 7.369034 h -1.65881 v -3.684516 h -3.72586 v 3.684516 h -1.66914 l 0.0103,-7.369034 h -0.55294 z m 12.1956,4.935084 h 1.41077 l -0.7183,-2.191074 z m 1.95337,1.674311 h -2.48046 l -0.60462,1.912022 q -0.16536,0.51676 -0.70796,0.51676 h -1.20923 v -1.67431 h 0.5426 l 2.32544,-7.363867 h 1.70531 l 2.44946,7.363867 h 0.5426 v 1.67431 h -1.2299 q -0.5426,0 -0.70279,-0.51159 z m 3.49331,-6.609395 h 3.83438 q 0.36174,0 0.76481,0.09302 0.58394,0.155029 1.03353,0.490925 0.44958,0.341063 0.69763,0.837155 0.26354,0.547769 0.26354,1.21956 v 0.05168 q -0.0155,0.568438 -0.19637,1.012854 -0.1757,0.428913 -0.48575,0.744139 -0.25838,0.268716 -0.60978,0.475421 l 1.2919,2.439123 h 0.53744 v 1.67431 h -1.55546 l -1.91719,-3.68452 h -1.45727 v 3.68452 h -1.66397 v -7.369038 h -0.53744 z m 2.20141,1.669143 v 2.015375 h 1.62264 q 0.38757,0 0.70796,-0.253214 0.32039,-0.258381 0.32039,-0.73897 0,-0.418578 -0.30489,-0.718301 -0.30489,-0.30489 -0.72346,-0.30489 z m 6.39752,6.624894 v -6.624894 h -0.53743 v -1.669143 h 1.47277 q 0.30489,0 0.52193,0.21704 0.21705,0.217041 0.21705,0.521931 v 6.640396 h 2.78018 v -0.5426 h 1.5968 v 1.45727 q 0,0.31006 -0.21705,0.5271 -0.21704,0.21704 -0.52193,0.21704 h -4.56818 q -0.31005,0 -0.5271,-0.21704 -0.21704,-0.21704 -0.21704,-0.5271 z m 11.78219,-6.774755 q -1.21956,0 -2.12906,0.873329 -0.9095,0.868161 -0.9095,2.123895 0,1.266068 0.9095,2.13423 0.9095,0.868161 2.12906,0.868161 1.21956,0 2.12907,-0.868161 0.9095,-0.868162 0.9095,-2.13423 0,-1.255734 -0.9095,-2.123895 -0.90951,-0.873329 -2.12907,-0.873329 z m 0,-1.658808 q 1.98954,0 3.39513,1.369421 1.41077,1.364254 1.41077,3.286611 0,1.932692 -1.41077,3.296941 -1.40559,1.35909 -3.39513,1.35909 -1.98953,0 -3.39513,-1.35909 -1.40559,-1.364249 -1.40559,-3.296941 0,-1.922357 1.40559,-3.286611 1.4056,-1.369421 3.39513,-1.369421 z m 8.51625,9.177703 v -7.369034 h -1.11621 v 0.532266 h -1.66397 v -1.462438 q 0,-0.30489 0.21187,-0.521931 0.21704,-0.21704 0.5271,-0.21704 h 5.74123 q 0.30489,0 0.52193,0.21704 0.21704,0.217041 0.21704,0.521931 v 1.462438 h -1.65881 v -0.532266 h -1.12137 v 7.369034 z m 8.14935,0 v -7.369034 h -1.11621 v 0.532266 h -1.66398 v -1.462438 q 0,-0.30489 0.21188,-0.521931 0.21704,-0.21704 0.52709,-0.21704 h 5.74124 q 0.30489,0 0.52193,0.21704 0.21704,0.217041 0.21704,0.521931 v 1.462438 h -1.65881 v -0.532266 h -1.12138 v 7.369034 z m 5.36916,-9.038177 h 5.84975 q 0.30489,0 0.52193,0.21704 0.22221,0.217041 0.22221,0.521931 v 1.462438 h -1.5968 v -0.542601 h -2.78535 v 2.02571 h 2.78535 v 1.669143 h -2.78535 v 2.010206 h 2.78535 v -0.5426 h 1.5968 v 1.47277 q 0,0.31006 -0.22221,0.5271 -0.21704,0.21704 -0.52193,0.21704 h -4.56818 q -0.31006,0 -0.5271,-0.21704 -0.21187,-0.21704 -0.21187,-0.5271 v -6.635229 h -0.5426 z"
         id="text2-1-9"
         aria-label="CHARLOTTE" /></g></g></svg>
