<?xml version="1.0" encoding="UTF-8" standalone="no"?>
<!-- Created with Inkscape (http://www.inkscape.org/) -->

<svg
   width="105.83334mm"
   height="105.83334mm"
   viewBox="0 0 105.83333 105.83333"
   version="1.1"
   id="svg1"
   xml:space="preserve"
   inkscape:version="1.4.2 (ebf0e940d0, 2025-05-08)"
   sodipodi:docname="charlotte.svg"
   inkscape:export-filename="../pngs/charlotte.png"
   inkscape:export-xdpi="96"
   inkscape:export-ydpi="96"
   xmlns:inkscape="http://www.inkscape.org/namespaces/inkscape"
   xmlns:sodipodi="http://sodipodi.sourceforge.net/DTD/sodipodi-0.dtd"
   xmlns="http://www.w3.org/2000/svg"
   xmlns:svg="http://www.w3.org/2000/svg"><sodipodi:namedview
     id="namedview1"
     pagecolor="#ffffff"
     bordercolor="#000000"
     borderopacity="0.25"
     inkscape:showpageshadow="2"
     inkscape:pageopacity="0.0"
     inkscape:pagecheckerboard="0"
     inkscape:deskcolor="#d1d1d1"
     inkscape:document-units="mm"
     inkscape:zoom="0.43290738"
     inkscape:cx="215.98154"
     inkscape:cy="-147.83763"
     inkscape:window-width="1920"
     inkscape:window-height="1011"
     inkscape:window-x="0"
     inkscape:window-y="32"
     inkscape:window-maximized="1"
     inkscape:current-layer="layer1"
     showgrid="false"
     showguides="false" /><defs
     id="defs1" /><g
     inkscape:label="Capa 1"
     inkscape:groupmode="layer"
     id="layer1"><g
       id="g15"
       transform="matrix(0.79289903,0,0,0.79289903,108.88913,169.4644)"><path
         style="fill:#ffffff;fill-opacity:1;stroke:none;stroke-width:8.06978;stroke-opacity:1"
         d="m -73.952501,-165.32357 -21.08563,16.80611 11.306786,52.638001 11.917966,6.341928 14.057087,-7.92741 7.94531,-39.637049 -5.806188,-20.61126 z"
         id="path11" /><path
         id="path3"
         style="fill:#00788c;fill-opacity:1"
         d="m -66.351831,-84.715369 c 9.22417,-6.61906 18.32301,-15.800321 26.73262,-26.974781 2.05159,-2.72611 6.73663,-9.57057 7.62271,-11.13618 0.0951,-0.16807 -0.24379,-0.80442 -0.75316,-1.41409 -0.50937,-0.60968 -0.92546,-1.18653 -0.92465,-1.2819 8.1e-4,-0.0954 0.66876,-1.00685 1.48432,-2.02549 10.848954,-13.55034 19.559484,-35.10277 22.5719943,-55.84977 1.16732,-8.03922 1.31899,-16.31536 0.4171,-22.75973 -0.44411,-3.17341 -1.1621203,-6.45405 -1.4125403,-6.45405 -0.0982,0 -0.46696,0.74415 -0.81943,1.65365 -2.5756,6.64603 -9.27004,18.15779 -16.886524,29.03802 -5.02212,7.17418 -17.68892,23.81333 -18.273,24.00349 -0.0992,0.0323 -0.39798,-0.41326 -0.66407,-0.99007 -2.44832,-5.30737 -9.05278,-11.66736 -14.84144,-14.29206 -2.01864,-0.91529 -5.23518,-1.84219 -6.39281,-1.84219 h -0.82659 l 0.59532,1.25677 c 0.58984,1.2452 1.2944,4.16409 1.5375,6.36966 0.10929,0.99154 0.0674,1.1191 -0.31437,0.95645 -1.45012,-0.61788 -2.38589,-0.88674 -3.08631,-0.88674 -0.70043,0 -1.6362,0.26886 -3.08632,0.88674 -0.38173,0.16265 -0.42366,0.0351 -0.31437,-0.95645 0.2431,-2.20557 0.94766,-5.12446 1.5375,-6.36966 l 0.59533,-1.25677 h -0.8266 c -1.15763,0 -4.37416,0.9269 -6.39281,1.84219 -5.78865,2.6247 -12.39312,8.98469 -14.84143,14.29206 -0.26609,0.57681 -0.5594,1.02235 -0.6518,0.99007 -0.6012,-0.21004 -13.329979,-16.91766 -18.287179,-24.00349 -7.6284,-10.90405 -14.31057,-22.39601 -16.88461,-29.03802 -0.35247,-0.9095 -0.72121,-1.65365 -0.81943,-1.65365 -0.25043,0 -0.96843,3.28064 -1.41255,6.45405 -2.4214,17.30198 2.67003,42.06491 12.81704,62.33762 3.25911,6.51138 6.47081,11.64903 10.17205,16.27188 0.81557,1.01864 1.48351,1.93011 1.48433,2.02549 8.1e-4,0.0954 -0.41529,0.67222 -0.92465,1.2819 -0.50937,0.60967 -0.8483,1.24602 -0.75317,1.41409 0.88608,1.56561 5.57112,8.41007 7.62272,11.13618 8.414349,11.18077 17.534919,20.382551 26.732609,26.970651 1.74625,1.2508 3.40669,2.51672 3.68987,2.81315 l 0.51487,0.53897 0.54346,-0.53484 c 0.29891,-0.29417 1.97222,-1.56008 3.71847,-2.81315 z m -7.32142,0.23647 c -12.4095,-11.30197 -14.20247,-23.404551 -4.96476,-33.512081 0.75671,-0.82796 1.32852,-1.53102 1.27069,-1.56235 -0.0578,-0.0313 -0.59948,-0.51802 -1.20369,-1.08152 l -1.09855,-1.02453 -1.54322,1.25694 c -0.84877,0.69131 -3.01232,2.52157 -4.80789,4.06724 l -3.26467,2.8103 0.16056,1.22385 c 0.13854,1.05599 1.73053,7.89271 2.17175,9.32648 0.71596,2.32654 -5.47586,-7.32863 -6.92685,-10.80133 l -0.38937,-0.93191 3.11079,-2.46489 c 1.71094,-1.35569 4.55994,-3.56916 6.33111,-4.91882 l 3.22032,-2.45394 -0.53447,-0.90586 c -0.29396,-0.49823 -0.65764,-0.90587 -0.80818,-0.90587 -0.63931,0 -7.72176,3.8985 -10.52194,5.79175 l -3.04271,2.05723 0.0657,1.05581 c 0.0589,0.94753 1.24617,5.54859 2.29598,8.89802 0.2183,0.69649 0.27823,1.19299 0.13316,1.10334 -0.93378,-0.57712 -7.792919,-11.81302 -7.568479,-12.39789 0.17891,-0.46624 5.112849,-3.79368 9.571569,-6.45505 2.21606,-1.32274 3.38529,-2.14998 2.91042,-2.05914 -2.35454,0.45044 -4.97231,0.69441 -9.13961,0.85182 l -4.641689,0.17533 -0.98001,-1.14492 c -2.54916,-2.97812 -6.81576,-10.42417 -7.22595,-12.61071 -0.13871,-0.73939 -0.43041,-1.08084 -1.46954,-1.72023 -1.05877,-0.65146 -1.56747,-1.25818 -2.77442,-3.30896 -7.02517,-11.93677 -12.01397,-30.36732 -13.02033,-48.10202 -0.20497,-3.61214 -0.19666,-4.40093 0.043,-4.079 0.0451,0.0606 0.92309,1.65806 1.95102,3.54983 7.55605,13.90601 17.98882,28.95496 28.247289,40.74583 2.30509,2.64943 9.91201,10.4102 11.58376,11.81805 l 1.25058,1.05316 -0.88015,-1.93768 c -1.73212,-3.81333 -1.72637,-3.60895 -0.17809,-6.33205 1.15922,-2.03885 1.43422,-2.80381 1.87479,-5.21518 0.28396,-1.55424 0.69105,-3.47519 0.90465,-4.26878 0.21359,-0.7936 0.34048,-1.49078 0.28197,-1.54929 -0.15249,-0.15249 -2.14806,3.0212 -4.12737,6.56407 l -1.69988,3.0427 -0.0736,-3.64151 -0.0736,-3.64151 1.11203,-1.65015 c 1.42731,-2.11799 4.6409,-5.44054 6.84044,-7.07236 1.93086,-1.43249 5.7699,-3.58047 5.99571,-3.35466 0.0811,0.0811 -0.11895,0.52154 -0.44453,0.97878 -1.28694,1.80734 -2.61535,5.61423 -3.82192,10.95264 l -0.17478,0.77331 1.09833,-0.99228 c 1.70642,-1.54164 5.47423,-3.87239 7.51313,-4.64758 0.47692,-0.18132 1.00402,-0.0566 2.24905,0.53221 2.07903,0.98323 4.956,2.84382 6.36345,4.11537 l 1.09834,0.99228 -0.17478,-0.77331 c -1.20657,-5.33841 -2.53498,-9.1453 -3.82192,-10.95264 -0.32558,-0.45724 -0.52562,-0.89769 -0.44453,-0.97878 0.22581,-0.22581 4.06484,1.92217 5.9957,3.35466 2.19954,1.63182 5.41314,4.95437 6.84045,7.07236 l 1.11203,1.65015 -0.0736,3.64151 -0.0736,3.64151 -1.69988,-3.0427 c -1.97932,-3.54287 -3.97488,-6.71656 -4.12737,-6.56407 -0.0585,0.0585 0.0684,0.75569 0.28197,1.54929 0.2136,0.79359 0.62069,2.71454 0.90465,4.26878 0.44057,2.41137 0.71556,3.17633 1.87479,5.21518 1.54828,2.7231 1.55403,2.51872 -0.17809,6.33205 l -0.88016,1.93768 1.25059,-1.05316 c 1.67175,-1.40785 9.27867,-9.16862 11.58376,-11.81805 10.25846,-11.79087 20.691244,-26.83982 28.247294,-40.74583 1.02792,-1.89177 1.90588,-3.48919 1.95102,-3.54983 0.23964,-0.32193 0.24795,0.46686 0.043,4.079 -1.00636,17.7347 -5.99516,36.16525 -13.020334,48.10202 -1.20695,2.05078 -1.71565,2.6575 -2.77442,3.30896 -1.03913,0.63939 -1.33083,0.98084 -1.46954,1.72023 -0.41019,2.18654 -4.67679,9.63259 -7.22595,12.61071 l -0.98001,1.14492 -4.64169,-0.17533 c -4.1673,-0.15741 -6.78507,-0.40138 -9.13961,-0.85182 -0.47487,-0.0908 0.69436,0.7364 2.91042,2.05914 4.45872,2.66137 9.39266,5.98881 9.57157,6.45505 0.22169,0.57769 -6.6311,11.81855 -7.55189,12.38763 -0.13593,0.084 0.10451,-1.0078 0.53432,-2.42626 1.11242,-3.67118 2.13639,-7.99366 1.98631,-8.38476 -0.33732,-0.87905 -12.46114,-8.08487 -13.60283,-8.08487 -0.15286,0 -0.51843,0.40764 -0.81239,0.90587 l -0.53447,0.90586 3.22031,2.45394 c 1.77118,1.34966 4.62018,3.56313 6.33111,4.91882 l 3.1108,2.46489 -0.38938,0.93191 c -1.45099,3.4727 -7.6428,13.12787 -6.92684,10.80133 0.44122,-1.43377 2.0332,-8.27049 2.17174,-9.32648 l 0.16056,-1.22385 -3.26467,-2.8103 c -1.79557,-1.54567 -3.95912,-3.37593 -4.80789,-4.06724 l -1.54321,-1.25694 -1.09856,1.02453 c -0.6042,0.5635 -1.14586,1.05018 -1.20369,1.08152 -0.0578,0.0313 0.51399,0.73439 1.27069,1.56235 5.86394,6.41608 7.33747,13.91436 4.2135,21.441141 -0.99794,2.40442 -3.41224,6.07691 -5.54933,8.44131 -1.87384,2.07316 -5.54008,5.48208 -5.71152,5.31065 -0.0621,-0.0621 0.36436,-1.06207 0.94765,-2.22219 2.17724,-4.3303 2.58827,-6.55283 1.54824,-8.37162 -0.89791,-1.57024 -1.83198,-2.14154 -3.50138,-2.14154 -1.6694,0 -2.60347,0.5713 -3.50138,2.14154 -1.04003,1.81879 -0.629,4.04132 1.54824,8.37162 0.58329,1.16012 1.00974,2.1601 0.94765,2.22219 -0.0621,0.0621 -0.99926,-0.69437 -2.0826,-1.68102 z m -0.18853,-14.56006 c 2.02564,-1.050941 4.52423,-1.033881 6.65431,0.0454 l 1.52562,0.77303 0.75792,-0.72614 c 1.6999,-1.628611 2.92296,-5.120771 2.93313,-8.374881 0.004,-1.16356 -0.15102,-1.71449 -0.74276,-2.64584 -0.93296,-1.46838 -2.30588,-2.6838 -4.09106,-3.62173 -1.2067,-0.63399 -1.67726,-0.72467 -3.76054,-0.72467 -2.08328,0 -2.55385,0.0907 -3.76055,0.72467 -1.78518,0.93793 -3.1581,2.15335 -4.09105,3.62173 -0.59174,0.93135 -0.74641,1.48228 -0.74277,2.64584 0.006,1.90811 0.60483,4.7012 1.30026,6.06435 0.58814,1.15285 2.0503,2.945831 2.40231,2.945831 0.11701,0 0.84384,-0.32743 1.61518,-0.72761 z m 2.81899,-2.626031 c -0.23295,-0.55659 -0.48944,-1.22035 -0.56997,-1.47501 -0.17606,-0.55674 -0.6652,-0.57737 -2.48662,-0.1049 -0.75932,0.19696 -1.38058,0.2975 -1.38058,0.22341 0,-0.38503 1.49702,-2.01215 2.40266,-2.61148 0.80552,-0.53306 1.03693,-0.8555 1.03693,-1.44479 0,-0.84026 -0.32246,-0.9327 -1.78769,-0.51248 -0.5267,0.15106 -0.85815,0.15135 -0.85815,7.6e-4 0,-0.39766 1.84891,-2.32687 2.39661,-2.5007 0.27684,-0.0879 0.73714,-0.68827 1.02287,-1.33422 0.28574,-0.64595 0.59244,-1.17445 0.68157,-1.17445 0.0891,0 0.39583,0.5285 0.68156,1.17445 0.28573,0.64595 0.74603,1.24635 1.02287,1.33422 0.54771,0.17383 2.39661,2.10304 2.39661,2.5007 0,0.15059 -0.33144,0.1503 -0.85815,-7.6e-4 -1.46523,-0.42022 -1.78769,-0.32778 -1.78769,0.51248 0,0.58929 0.23142,0.91173 1.03693,1.44479 0.89778,0.59413 2.40266,2.22546 2.40266,2.60456 0,0.0703 -0.70842,-0.0453 -1.57426,-0.2568 -1.73319,-0.42342 -2.38875,-0.31401 -2.40558,0.40149 -0.006,0.25923 -0.22213,0.86719 -0.48006,1.35102 l -0.46896,0.8797 z m 2.97117,-15.45734 c 0,-0.46555 -1.95394,-2.09111 -2.51354,-2.09111 -0.55961,0 -2.51355,1.62556 -2.51355,2.09111 0,0.0868 1.1311,0.15785 2.51355,0.15785 1.38244,0 2.51354,-0.071 2.51354,-0.15785 z m -0.52322,-5.95282 1.65165,-1.21588 -0.16899,-1.61681 c -0.0929,-0.88924 -0.26275,-1.71057 -0.37735,-1.82517 -0.1146,-0.1146 -0.794,0.3862 -1.50976,1.11289 -0.71577,0.7267 -1.42941,1.32127 -1.58587,1.32127 -0.15647,0 -0.87011,-0.59457 -1.58587,-1.32127 -0.71577,-0.72669 -1.39517,-1.22749 -1.50977,-1.11289 -0.1146,0.1146 -0.28441,0.93593 -0.37735,1.82517 l -0.16899,1.61681 1.65166,1.21588 c 0.90841,0.66873 1.80405,1.21588 1.99032,1.21588 0.18626,0 1.0819,-0.54715 1.99032,-1.21588 z m -10.04997,-6.17258 -0.52978,-1.03845 1.16109,-1.54123 c 0.6386,-0.84768 1.46318,-1.82357 1.8324,-2.16865 l 0.6713,-0.62741 0.61023,0.6694 c 0.33563,0.36817 1.42564,1.3944 2.42225,2.28051 l 1.81201,1.61111 0.70153,-0.51875 c 0.38584,-0.28531 1.52763,-1.29679 2.5373,-2.24772 l 1.83576,-1.72897 0.6364,0.59462 c 0.35002,0.32704 1.15889,1.28818 1.79749,2.13586 l 1.1611,1.54123 -0.54389,1.06611 c -0.57525,1.12759 -0.50036,1.12634 1.08258,-0.0181 0.50933,-0.36822 0.97323,-0.70166 1.03091,-0.74097 0.21212,-0.14457 -1.4292,-2.37461 -2.82989,-3.84493 l -1.44206,-1.51376 1.90716,-2.19041 c 2.32711,-2.67273 4.12874,-5.33957 4.9447,-7.31932 l 0.61233,-1.48568 -0.59022,-0.5015 c -0.73953,-0.62837 -3.87539,-2.12235 -4.06236,-1.93538 -0.0763,0.0763 0.0643,0.53138 0.31245,1.01127 0.24816,0.47989 0.51056,1.61199 0.58311,2.51577 0.10676,1.33013 0.0221,1.86995 -0.44407,2.83304 -0.79887,1.65024 -2.25676,3.23326 -4.76383,5.17271 -2.13735,1.65343 -2.1374,1.65345 -2.1374,0.90123 0,-0.41373 -0.50801,-2.27112 -1.12891,-4.12754 l -1.12892,-3.37529 -1.12004,3.3937 c -0.61602,1.86654 -1.12004,3.72393 -1.12004,4.12754 0,0.72616 -0.0223,0.71654 -2.1374,-0.91964 -2.50707,-1.93945 -3.96495,-3.52247 -4.76382,-5.17271 -0.46623,-0.96309 -0.55084,-1.50291 -0.44407,-2.83304 0.0725,-0.90378 0.33494,-2.03588 0.5831,-2.51577 0.24817,-0.47989 0.38877,-0.93496 0.31246,-1.01127 -0.18697,-0.18697 -3.32284,1.30701 -4.06236,1.93538 l -0.59022,0.5015 0.61233,1.48568 c 0.81596,1.97975 2.61759,4.64659 4.94469,7.31932 l 1.90717,2.19041 -1.44207,1.51376 c -0.79313,0.83256 -1.78413,2.03157 -2.20221,2.66446 -0.6284,0.95128 -0.69372,1.18892 -0.37689,1.37117 0.21078,0.12124 0.79333,0.52616 1.29454,0.8998 0.50122,0.37365 0.95012,0.67936 0.99757,0.67936 0.0474,0 -0.15214,-0.46731 -0.44351,-1.03846 z m -14.91314,-2.40278 c 3.43184,-0.3038 6.01718,-0.80829 8.06091,-1.57295 2.75704,-1.03154 2.79722,-0.86811 -1.01106,-4.11255 -6.46106,-5.50446 -15.215629,-14.67375 -21.978939,-23.02014 -3.41271,-4.21151 -9.08163,-11.67362 -11.65813,-15.34583 -1.22521,-1.74625 -2.16209,-2.93688 -2.08197,-2.64583 0.0801,0.29104 0.34209,1.54119 0.58215,2.77812 1.93274,9.95846 5.39066,20.01904 9.07035,26.38957 l 0.95365,1.65102 10.06687,5.47589 c 10.039929,5.46124 12.921019,7.11964 11.918959,6.86072 -4.62839,-1.19589 -15.802689,-3.62833 -15.957389,-3.47363 -0.23125,0.23125 1.74865,4.00173 2.95541,5.6282 l 1.22692,1.65365 2.447949,-0.002 c 1.34636,-0.001 3.77831,-0.12003 5.40432,-0.26398 z m 55.02476,-1.38741 c 1.20676,-1.62647 3.18667,-5.39695 2.95541,-5.6282 -0.1547,-0.1547 -11.32899,2.27774 -15.95738,3.47363 -1.00207,0.25892 1.87902,-1.39948 11.91896,-6.86072 l 10.06687,-5.47589 0.95365,-1.65102 c 3.67969,-6.37053 7.137604,-16.43111 9.070344,-26.38957 0.24007,-1.23693 0.50204,-2.48708 0.58216,-2.77812 0.0801,-0.29105 -0.85677,0.89958 -2.08198,2.64583 -2.576504,3.67221 -8.245424,11.13432 -11.658124,15.34583 -6.76332,8.34639 -15.51789,17.51568 -21.97895,23.02014 -3.81005,3.24596 -3.76988,3.08035 -0.99878,4.11715 3.02749,1.13273 7.30769,1.7281 12.92379,1.7977 l 2.97711,0.0369 z" /><path
         style="fill:#ffffff;fill-opacity:1;stroke:none;stroke-width:7.922;stroke-opacity:1"
         d="m -124.37466,-180.60301 12.83473,36.05949 10.08443,15.58503 17.724155,-2.13912 c 0,0 7.028545,-1.83354 1.833533,-5.80619 -5.195009,-3.97266 -42.476848,-43.69921 -42.476848,-43.69921 z"
         id="path12" /><path
         style="fill:#ffffff;fill-opacity:1;stroke:none;stroke-width:7.922;stroke-opacity:1"
         d="m -57.756292,-136.29263 39.420961,-45.22714 -9.167664,35.4483 -10.390021,15.89062 -14.973855,1.22236 z"
         id="path13" /><path
         style="fill:#ffffff;fill-opacity:1;stroke:none;stroke-width:7.922;stroke-opacity:1"
         d="m -74.869267,-129.87526 -1.833533,4.88942 8.250899,4.88942 7.639722,-5.80618 -5.806189,-6.72296 z"
         id="path14" /><path
         style="fill:#ffffff;fill-opacity:1;stroke:none;stroke-width:7.922;stroke-opacity:1"
         d="m -76.7028,-94.732543 4.278244,-4.88942 7.94531,4.278243 -6.003735,13.85795 -6.219819,-8.968529 z"
         id="path15"
         sodipodi:nodetypes="cccccc" /><path
         style="fill:#1d1160;fill-opacity:1;stroke:#1d1160;stroke-opacity:1"
         d="m -75.14439,-86.275965 c -3.69453,-3.70035 -5.64454,-6.31756 -7.22011,-9.690499 -1.50817,-3.228652 -1.94909,-5.145536 -1.96133,-8.526816 -0.0183,-5.05076 1.59557,-8.94632 5.6227,-13.57215 l 1.45028,-1.6659 -1.14223,-1.16385 -1.14224,-1.16385 -1.48052,1.16337 c -0.81428,0.63985 -3.04469,2.52856 -4.95645,4.19714 l -3.47594,3.03378 0.48481,2.36367 c 0.26665,1.30001 0.79449,3.58532 1.17298,5.07846 0.37849,1.49313 0.64724,2.83757 0.59722,2.98763 -0.13531,0.40592 -3.64731,-5.09505 -5.47762,-8.5798 l -1.59746,-3.04144 2.84326,-2.25038 c 2.11214,-1.67171 8.74442,-6.75701 9.81528,-7.52586 0.0511,-0.0367 -0.17417,-0.54177 -0.50054,-1.12246 l -0.59339,-1.0558 -1.48383,0.65089 c -4.40949,1.93421 -12.46403,7.04485 -12.46362,7.90821 3.6e-4,0.74199 1.15029,5.39316 1.98491,8.02841 0.38454,1.21417 0.64727,2.25947 0.58385,2.32289 -0.23879,0.23879 -7.6026,-11.45516 -7.59431,-12.05999 0.004,-0.30538 4.82581,-3.55071 8.92181,-6.00506 2.36145,-1.41501 4.25154,-2.61476 4.20019,-2.66611 -0.0513,-0.0514 -0.85236,0.0309 -1.78002,0.18284 -2.49641,0.40882 -10.46758,0.84913 -11.78785,0.65114 -1.07125,-0.16064 -1.25342,-0.32003 -2.80789,-2.4567 -2.99656,-4.11888 -5.37411,-8.43485 -6.06074,-11.00206 -0.29372,-1.0982 -0.48904,-1.33606 -1.53133,-1.86481 -0.97415,-0.49418 -1.42133,-0.98979 -2.42255,-2.68496 -5.70531,-9.65966 -10.02974,-22.81044 -12.12309,-36.86689 -0.72344,-4.85768 -1.37807,-12.00514 -1.28097,-13.98587 l 0.0799,-1.62882 1.45521,2.70045 c 7.41658,13.76302 18.66314,29.99739 28.83054,41.61679 3.01612,3.44684 10.83824,11.34779 12.18157,12.30433 l 0.83235,0.59269 -0.7698,-1.55372 c -0.42338,-0.85454 -1.03605,-2.22468 -1.36148,-3.04475 l -0.59169,-1.49103 1.35292,-2.37952 c 1.20305,-2.11592 1.43877,-2.80073 2.12783,-6.18188 0.4262,-2.0913 0.89676,-4.21909 1.04568,-4.72841 l 0.27076,-0.92604 -0.64403,0.79375 c -0.35421,0.43656 -1.51459,2.30034 -2.57861,4.14173 -1.06402,1.84139 -2.1727,3.74639 -2.46375,4.23333 l -0.52916,0.88536 -0.0744,-3.41941 -0.0744,-3.41942 1.1839,-1.78042 c 2.50821,-3.77199 6.68842,-7.46819 10.76315,-9.51693 l 2.06666,-1.0391 -1.04892,1.94463 c -1.23524,2.29006 -2.18673,4.96496 -2.90466,8.16587 -0.28525,1.27176 -0.51864,2.38542 -0.51864,2.4748 0,0.0894 0.41271,-0.19986 0.91712,-0.64274 1.88653,-1.65639 7.11657,-4.79783 7.44346,-4.47094 0.0577,0.0577 -0.19588,0.98825 -0.56357,2.06784 -1.40999,4.14 -1.81758,6.85888 -1.83124,12.2155 -0.007,2.72852 -0.0409,4.96094 -0.0755,4.96094 -0.0345,0 -0.46429,-0.80367 -0.95499,-1.78594 -1.12054,-2.24307 -1.98545,-4.8527 -2.41887,-7.2983 l -0.33602,-1.89597 -1.64446,1.71979 c -2.29987,2.40522 -4.83726,6.24042 -4.6148,6.97515 0.43617,1.44061 2.38796,4.75583 3.94741,6.7049 0.94541,1.18162 1.71893,2.21661 1.71893,2.29999 0,0.0834 -0.34732,0.71893 -0.77183,1.41234 -0.80847,1.32061 -1.87401,4.19408 -1.87401,5.0537 0,0.43094 0.78293,1.11155 2.57872,2.24173 0.19358,0.12183 0.0906,-0.29903 -0.23924,-0.97798 l -0.57904,-1.19184 0.70348,-1.01513 c 0.38692,-0.55832 1.17386,-1.47443 1.74875,-2.0358 l 1.04526,-1.02067 2.32343,2.15389 c 1.27788,1.18464 2.45018,2.15389 2.6051,2.15389 0.15493,0 1.32723,-0.96925 2.60511,-2.15389 l 2.32342,-2.15389 1.04526,1.02067 c 0.5749,0.56137 1.36183,1.47748 1.74875,2.0358 l 0.70348,1.01513 -0.57904,1.19184 c -0.32986,0.67895 -0.43282,1.09981 -0.23924,0.97798 1.79579,-1.13018 2.57872,-1.81079 2.57872,-2.24173 0,-0.85962 -1.06554,-3.73309 -1.87401,-5.0537 -0.42451,-0.69341 -0.77183,-1.32896 -0.77183,-1.41234 0,-0.0834 0.77352,-1.11837 1.71893,-2.29999 1.55945,-1.94907 3.51124,-5.26429 3.94742,-6.7049 0.22245,-0.73473 -2.31493,-4.56993 -4.6148,-6.97515 l -1.64447,-1.71979 -0.33602,1.89597 c -0.43342,2.4456 -1.29833,5.05523 -2.41886,7.2983 -0.4907,0.98227 -0.92045,1.78594 -0.955,1.78594 -0.0345,0 -0.0685,-2.23242 -0.0755,-4.96094 -0.0137,-5.35662 -0.42124,-8.0755 -1.83123,-12.2155 -0.36769,-1.07959 -0.6213,-2.01012 -0.56358,-2.06784 0.3269,-0.32689 5.55694,2.81455 7.44347,4.47094 0.50441,0.44288 0.91711,0.73212 0.91711,0.64274 0,-0.0894 -0.23338,-1.20304 -0.51863,-2.4748 -0.71794,-3.20091 -1.66942,-5.87581 -2.90466,-8.16587 l -1.04892,-1.94463 2.06665,1.0391 c 4.07474,2.04874 8.25495,5.74494 10.76316,9.51693 l 1.1839,1.78042 -0.0744,3.41942 -0.0744,3.41941 -0.52916,-0.88536 c -0.29105,-0.48694 -1.39973,-2.39194 -2.46375,-4.23333 -1.06402,-1.84139 -2.2244,-3.70517 -2.57861,-4.14173 l -0.64403,-0.79375 0.27076,0.92604 c 0.14892,0.50932 0.61948,2.63711 1.04568,4.72841 0.68906,3.38115 0.92478,4.06596 2.12783,6.18188 l 1.35292,2.37952 -0.59169,1.49103 c -0.32543,0.82007 -0.9381,2.19021 -1.36148,3.04475 l -0.7698,1.55372 0.83235,-0.59269 c 1.34333,-0.95654 9.16546,-8.85749 12.18157,-12.30433 10.1674,-11.6194 21.413963,-27.85377 28.830543,-41.61679 l 1.45521,-2.70045 0.0798,1.62882 c 0.0971,1.98073 -0.55754,9.12819 -1.28097,13.98587 -2.09335,14.05645 -6.41778,27.20723 -12.123093,36.86689 -1.00122,1.69517 -1.4484,2.19078 -2.42255,2.68496 -1.04229,0.52875 -1.23761,0.76661 -1.53133,1.86481 -0.68663,2.56721 -3.06418,6.88318 -6.06074,11.00206 -1.55447,2.13667 -1.73664,2.29606 -2.80789,2.4567 -1.32027,0.19799 -9.29144,-0.24232 -11.78785,-0.65114 -0.92766,-0.15191 -1.72867,-0.23419 -1.78002,-0.18284 -0.0513,0.0513 1.83874,1.2511 4.20019,2.66611 4.096,2.45435 8.91762,5.69968 8.92181,6.00506 0.008,0.60483 -7.35552,12.29878 -7.59431,12.05999 -0.0634,-0.0634 0.19931,-1.10872 0.58385,-2.32289 0.83462,-2.63525 1.98455,-7.28642 1.98491,-8.02841 4.1e-4,-0.86336 -8.05413,-5.974 -12.46362,-7.90821 l -1.48383,-0.65089 -0.59339,1.0558 c -0.32637,0.58069 -0.55161,1.0858 -0.50054,1.12246 1.07086,0.76885 7.70314,5.85415 9.81528,7.52586 l 2.84326,2.25038 -1.59746,3.04144 c -1.83031,3.48475 -5.34231,8.98572 -5.47762,8.5798 -0.05,-0.15006 0.21873,-1.4945 0.59722,-2.98763 0.37849,-1.49314 0.90633,-3.77845 1.17298,-5.07846 l 0.48481,-2.36367 -3.47594,-3.03378 c -1.91176,-1.66858 -4.14217,-3.55729 -4.95645,-4.19714 l -1.48052,-1.16337 -1.14224,1.16385 -1.14223,1.16385 1.45028,1.6659 c 4.02712,4.62583 5.64098,8.52139 5.6227,13.57215 -0.0162,4.47653 -1.32127,8.276666 -4.38214,12.760145 -1.32055,1.93432 -8.05073,9.00178 -8.31783,8.73468 -0.0678,-0.0677 0.55064,-1.50306 1.37419,-3.18959 1.25629,-2.57274 1.51725,-3.35599 1.62089,-4.86502 0.10818,-1.57497 0.0455,-1.91294 -0.50374,-2.718331 -0.91814,-1.346234 -2.20786,-2.122958 -3.52509,-2.122958 -1.31724,0 -2.60696,0.776724 -3.5251,2.122958 -0.54929,0.805391 -0.61192,1.143361 -0.50374,2.718331 0.10365,1.50903 0.3646,2.29228 1.62089,4.86502 0.82355,1.68653 1.44194,3.12185 1.37419,3.18959 -0.0678,0.0677 -1.65108,-1.40713 -3.51852,-3.27751 z m 0.0855,-12.137714 c 1.20974,-0.922697 3.27188,-1.713981 4.4668,-1.713981 1.19492,0 3.25706,0.791284 4.4668,1.713981 0.57039,0.435057 1.26691,1.375141 1.72313,2.325695 l 0.76575,1.595461 0.82555,-1.428511 c 1.34547,-2.328168 1.74321,-3.981909 1.7435,-7.249336 2.1e-4,-2.31259 -0.12671,-3.31475 -0.61792,-4.87889 -0.54464,-1.73428 -0.82795,-2.17786 -2.38125,-3.72836 -2.09709,-2.09332 -4.00311,-2.95702 -6.52556,-2.95702 -2.52245,0 -4.42847,0.8637 -6.52556,2.95702 -1.5533,1.5505 -1.83661,1.99408 -2.38125,3.72836 -0.49121,1.56414 -0.61814,2.5663 -0.61793,4.87889 3e-4,3.267427 0.39804,4.921168 1.7435,7.249336 l 0.82556,1.428511 0.76575,-1.595461 c 0.45622,-0.950554 1.15274,-1.890638 1.72313,-2.325695 z m 3.94564,-3.720001 c -0.22268,-0.53296 -0.40488,-1.13307 -0.40488,-1.33358 0,-0.44115 -1.04785,-0.47473 -2.47221,-0.0792 -0.55935,0.15531 -1.08197,0.21742 -1.16137,0.13802 -0.26611,-0.26611 1.17964,-1.88839 2.14729,-2.40951 0.79979,-0.43072 0.95712,-0.65777 0.95712,-1.38132 0,-0.74103 -0.0929,-0.86587 -0.64423,-0.86587 -0.35433,0 -0.94964,0.11611 -1.32292,0.25803 -0.37327,0.14192 -0.67868,0.16905 -0.67868,0.0603 0,-0.43893 1.61397,-2.11716 2.31558,-2.40778 0.52707,-0.21832 0.86449,-0.642 1.13541,-1.42569 0.21201,-0.61328 0.50453,-1.11505 0.65005,-1.11505 0.14552,0 0.43804,0.50177 0.65005,1.11505 0.27092,0.78369 0.60834,1.20737 1.13541,1.42569 0.70161,0.29062 2.31558,1.96885 2.31558,2.40778 0,0.10877 -0.30541,0.0816 -0.67868,-0.0603 -0.37328,-0.14192 -0.96859,-0.25803 -1.32292,-0.25803 -0.55135,0 -0.64423,0.12484 -0.64423,0.86587 0,0.72355 0.15733,0.9506 0.95712,1.38132 0.96765,0.52112 2.4134,2.1434 2.14729,2.40951 -0.0794,0.0794 -0.60202,0.0173 -1.16137,-0.13802 -1.95172,-0.54194 -2.31709,-0.41945 -2.70911,0.90825 -0.46327,1.569 -0.7207,1.67632 -1.2103,0.50455 z m 2.41453,-14.87845 1.94221,0.37605 -0.72717,-0.77719 c -0.39994,-0.42745 -1.2519,-1.11546 -1.89325,-1.52891 l -1.1661,-0.75173 -1.00315,0.56381 c -0.55173,0.31009 -1.42996,1.00089 -1.95162,1.53512 l -0.94847,0.97132 1.90267,-0.38225 c 1.65038,-0.33157 2.16022,-0.33239 3.84488,-0.006 z m 1.30885,-7.2822 c 0.93092,-0.84963 1.69257,-1.70965 1.69257,-1.91115 0,-0.44771 -1.10361,-2.76176 -1.31713,-2.76176 -0.0844,0 -0.92061,0.77413 -1.85837,1.72029 l -1.705,1.7203 -1.78558,-1.7719 c -0.98206,-0.97454 -1.83385,-1.71891 -1.89285,-1.65415 -0.2831,0.31075 -1.23065,2.3872 -1.23065,2.69684 0,0.42916 2.0939,2.4836 3.67126,3.60209 1.14329,0.81069 1.16754,0.81521 1.94545,0.36258 0.43325,-0.25209 1.54939,-1.1535 2.4803,-2.00314 z m -25.15174,-7.60869 c 1.58451,-0.15947 3.76741,-0.51667 4.85088,-0.79378 1.9137,-0.48944 4.98439,-1.7339 4.76966,-1.933 -0.0585,-0.0543 -0.93987,-0.77699 -1.95852,-1.60603 -10.67734,-8.68989 -24.79786,-24.64182 -35.31428,-39.89449 -1.07538,-1.55969 -1.9985,-2.79254 -2.05137,-2.73967 -0.15951,0.15951 0.94089,5.32356 2.06399,9.68608 2.01806,7.83885 5.11281,15.95688 7.60481,19.9486 l 0.97393,1.56006 10.91696,5.95563 c 6.00432,3.27559 10.86588,6.00669 10.80347,6.06911 -0.0624,0.0624 -3.57756,-0.68885 -7.81143,-1.66948 -4.23387,-0.98063 -7.77316,-1.70774 -7.8651,-1.6158 -0.43991,0.43991 1.96801,4.90352 3.55776,6.59511 0.66658,0.70928 0.75803,0.7276 3.63106,0.7276 1.62099,0 4.24367,-0.13047 5.82818,-0.28994 z m 53.35828,-0.43766 c 1.58975,-1.69159 3.99767,-6.1552 3.55776,-6.59511 -0.0919,-0.0919 -3.63124,0.63517 -7.8651,1.6158 -4.23387,0.98063 -7.74901,1.73189 -7.81143,1.66948 -0.0624,-0.0624 4.79915,-2.79352 10.80347,-6.06911 l 10.91696,-5.95563 0.97393,-1.56006 c 2.49199,-3.99172 5.586753,-12.10975 7.604813,-19.9486 1.1231,-4.36252 2.2235,-9.52657 2.06399,-9.68608 -0.0529,-0.0529 -0.97599,1.17998 -2.05137,2.73967 -10.516423,15.25267 -24.636943,31.2046 -35.314283,39.89449 -1.01865,0.82904 -1.89998,1.55176 -1.95852,1.60603 -0.22358,0.20731 2.91061,1.46113 4.9026,1.96127 2.66161,0.66827 5.68966,0.97607 10.03715,1.0203 3.44789,0.0351 3.45788,0.0334 4.14003,-0.69245 z m -35.90668,-5.31919 c -4.92764,-4.09964 -6.0722,-6.66554 -4.48968,-10.0651 0.36548,-0.78513 0.73503,-1.357 0.82121,-1.27082 0.0862,0.0862 0.42157,0.90716 0.74532,1.82439 0.75285,2.13299 2.53371,5.66376 4.01477,7.9598 1.03412,1.60317 1.49996,3.10752 0.95891,3.09661 -0.10915,-0.002 -1.03188,-0.6974 -2.05053,-1.54488 z m 6.74688,0.89567 c 0,-0.35926 0.5208,-1.46059 1.15734,-2.4474 1.48106,-2.29604 3.26192,-5.82681 4.01477,-7.9598 0.32375,-0.91723 0.65914,-1.73821 0.74532,-1.82439 0.0862,-0.0862 0.45573,0.48569 0.82121,1.27082 1.24989,2.68502 0.72986,4.90654 -1.76661,7.54668 -1.34091,1.41808 -4.4746,4.0673 -4.81111,4.0673 -0.0885,0 -0.16092,-0.29395 -0.16092,-0.65321 z"
         id="path1" /></g></g></svg>
