<?xml version="1.0" encoding="UTF-8" standalone="no"?>
<!-- Created with Inkscape (http://www.inkscape.org/) -->

<svg
   width="105.83334mm"
   height="105.83334mm"
   viewBox="0 0 105.83333 105.83333"
   version="1.1"
   id="svg1"
   xml:space="preserve"
   inkscape:version="1.4 (e7c3feb100, 2024-10-09)"
   sodipodi:docname="charlotte.svg"
   inkscape:export-filename="../pngs/atlanta.png"
   inkscape:export-xdpi="96"
   inkscape:export-ydpi="96"
   xmlns:inkscape="http://www.inkscape.org/namespaces/inkscape"
   xmlns:sodipodi="http://sodipodi.sourceforge.net/DTD/sodipodi-0.dtd"
   xmlns="http://www.w3.org/2000/svg"
   xmlns:svg="http://www.w3.org/2000/svg"><sodipodi:namedview
     id="namedview1"
     pagecolor="#ffffff"
     bordercolor="#000000"
     borderopacity="0.25"
     inkscape:showpageshadow="2"
     inkscape:pageopacity="0.0"
     inkscape:pagecheckerboard="0"
     inkscape:deskcolor="#d1d1d1"
     inkscape:document-units="mm"
     inkscape:zoom="1.6952882"
     inkscape:cx="221.49626"
     inkscape:cy="225.92029"
     inkscape:window-width="1920"
     inkscape:window-height="1011"
     inkscape:window-x="0"
     inkscape:window-y="32"
     inkscape:window-maximized="1"
     inkscape:current-layer="layer1"
     showgrid="false" /><defs
     id="defs1" /><g
     inkscape:label="Capa 1"
     inkscape:groupmode="layer"
     id="layer1"><g
       id="g6"
       transform="translate(1.163578,-1.2290363)"><path
         sodipodi:type="star"
         style="fill:#ffffff;fill-opacity:1;stroke:#00bfbf;stroke-width:1.236;stroke-dasharray:none;stroke-opacity:1"
         id="path5"
         inkscape:flatsided="true"
         sodipodi:sides="6"
         sodipodi:cx="-6.2427931"
         sodipodi:cy="11.237027"
         sodipodi:r1="31.252958"
         sodipodi:r2="27.065855"
         sodipodi:arg1="1.0471976"
         sodipodi:arg2="1.5707963"
         inkscape:rounded="0"
         inkscape:randomized="0"
         d="m 9.3836847,38.302884 -31.2529587,-2e-6 -15.626477,-27.065856 15.62648,-27.065855 31.2529584,1e-6 15.6264776,27.065857 z"
         transform="matrix(1.6397965,0,0,1.6397965,61.990004,35.58569)" /><text
         xml:space="preserve"
         style="font-style:normal;font-variant:normal;font-weight:normal;font-stretch:normal;font-size:135.477px;line-height:0.9;font-family:Sportsball;-inkscape-font-specification:Sportsball;text-align:start;writing-mode:lr-tb;direction:ltr;text-anchor:start;fill:#00e5e5;fill-opacity:1;stroke-width:9.5719"
         x="8.6618309"
         y="101.44359"
         id="text3"><tspan
           sodipodi:role="line"
           id="tspan3"
           style="font-style:normal;font-variant:normal;font-weight:normal;font-stretch:normal;font-family:'Ranked Sports';-inkscape-font-specification:'Ranked Sports';fill:#00e5e5;fill-opacity:1;stroke-width:9.5719"
           x="8.6618309"
           y="101.44359">C</tspan></text><g
         id="g5"
         transform="matrix(0.97828427,0,0,0.97828427,-3.7197914,2.2445802)"><text
           xml:space="preserve"
           style="font-style:normal;font-variant:normal;font-weight:normal;font-stretch:normal;font-size:111.415px;line-height:0.9;font-family:'Ranked Sports';-inkscape-font-specification:'Ranked Sports';text-align:start;writing-mode:lr-tb;direction:ltr;text-anchor:start;fill:#ffffff;stroke:#00bfbf;stroke-width:1.82328;stroke-dasharray:none;stroke-opacity:1"
           x="22.35108"
           y="92.583633"
           id="text4"><tspan
             sodipodi:role="line"
             id="tspan4"
             style="fill:#ffffff;stroke:#00bfbf;stroke-width:1.82328;stroke-dasharray:none;stroke-opacity:1"
             x="22.35108"
             y="92.583633">s</tspan></text><path
           style="fill:#000000;stroke-width:2.76724"
           d="m 60.993159,66.693581 c 0.08944,-0.289937 0.303484,-0.804276 0.475657,-1.142973 0.300804,-0.59174 1.349067,-4.1164 1.168131,-3.927693 -0.04848,0.05056 -0.617512,0.882679 -1.264503,1.849138 -0.646989,0.966457 -1.553705,2.120588 -2.014926,2.564734 l -0.838583,0.807537 -2.225653,-0.536555 c -1.22411,-0.295107 -2.225654,-0.63214 -2.225654,-0.748964 0,-0.116833 0.09943,-0.212413 0.220936,-0.212413 0.423424,0 3.10272,-2.671588 4.095399,-4.083625 1.44301,-2.052597 1.50395,-2.222593 0.463079,-1.291794 -2.633758,2.35523 -6.981717,4.466458 -8.443077,4.099681 -0.79462,-0.199436 -2.896538,-2.325909 -2.896538,-2.930379 0,-0.384342 0.151423,-0.480432 0.761453,-0.483204 1.299035,-0.0058 3.726012,-0.683547 5.443756,-1.519958 1.537998,-0.748887 4.02082,-2.620514 3.786758,-2.854573 -0.05778,-0.05778 -0.623885,0.157815 -1.257989,0.479153 -0.634105,0.321324 -1.806611,0.753612 -2.605569,0.960647 -1.858103,0.481482 -4.99597,0.727827 -5.521889,0.433507 -0.359777,-0.201345 -0.301728,-0.353939 0.539462,-1.418124 1.087295,-1.375531 2.184165,-2.263642 3.734126,-3.023447 1.355457,-0.664453 1.012165,-0.695871 -0.934828,-0.08556 -2.213079,0.693727 -3.94528,0.545877 -3.94528,-0.336748 0,-0.474216 1.997791,-2.15253 3.686272,-3.096781 0.807494,-0.451577 1.468172,-0.856192 1.468172,-0.899144 0,-0.169881 -1.817005,0.42749 -2.825594,0.928953 -0.587618,0.292157 -1.935471,1.174089 -2.995225,1.959852 -1.088489,0.807064 -2.286197,1.496075 -2.75279,1.583608 -3.449077,0.64705 -17.817025,-3.905935 -20.420134,-6.470831 -1.829809,-1.802947 -0.371471,-2.714669 5.396967,-3.374071 8.621394,-0.985528 18.788458,-0.590268 27.162784,1.055991 2.508753,0.493183 2.512453,0.493216 3.1651,0.02849 0.885744,-0.630703 2.407521,-1.012654 3.370331,-0.84592 0.600439,0.103996 0.707779,0.07652 0.441738,-0.113069 -0.193293,-0.137725 -0.845375,-0.25204 -1.449076,-0.254033 -0.603704,-0.002 -1.391985,-0.115504 -1.75174,-0.252261 -0.840654,-0.319616 -3.333238,-0.828077 -5.057278,-1.031632 -1.263297,-0.149154 -1.330687,-0.188421 -1.091186,-0.635945 0.146027,-0.272878 0.167474,-0.564774 0.05009,-0.682155 -0.372714,-0.372713 -6.91479,-0.638454 -10.627983,-0.431714 -1.97916,0.110187 -3.633647,0.165177 -3.676636,0.122202 -0.126353,-0.12638 3.267511,-0.589154 6.344459,-0.865125 2.736522,-0.245426 7.405182,-0.132329 9.410542,0.227993 0.766553,0.137725 0.927866,0.257657 0.886056,0.658774 -0.04585,0.43982 0.111161,0.507636 1.522903,0.657753 2.585096,0.274898 5.85025,1.216678 8.234644,2.37518 1.814726,0.881716 2.582719,1.42976 4.025991,2.872966 1.410766,1.410722 3.019527,3.712316 3.019527,4.319953 0,0.05063 -1.452882,0.165813 -3.228619,0.255941 -3.643089,0.184935 -5.689523,-0.110164 -7.954311,-1.147028 -0.718276,-0.328836 -1.318349,-0.570009 -1.333499,-0.535942 -0.281116,0.632214 -2.006107,2.896649 -2.406393,3.158925 -0.750475,0.49173 -0.686999,0.623304 0.464795,0.963386 1.76792,0.522004 3.732136,1.990464 7.765525,5.805545 2.164866,2.047692 4.450181,4.109977 5.07851,4.582859 l 1.142373,0.859781 -2.165697,0.705389 c -1.19113,0.387964 -2.666498,0.805378 -3.278588,0.927588 l -1.112892,0.22218 -0.01494,-1.670218 -0.01494,-1.670221 -0.536424,1.604921 c -0.295032,0.882708 -0.683724,1.698191 -0.863755,1.812182 -0.180036,0.113982 -1.098815,0.208872 -2.04174,0.210836 -1.670563,0.0037 -1.710253,-0.01 -1.551796,-0.52357 z m 8.540242,-18.50988 c -1.445915,-1.332699 -2.79818,-2.036687 -3.926847,-2.044314 -2.138281,-0.01439 0.746371,2.327743 3.880578,3.150827 0.603978,0.158619 1.150867,0.241276 1.215289,0.183663 0.06448,-0.05759 -0.461631,-0.638178 -1.16902,-1.290184 z m 2.691914,15.612374 -1.171454,-1.065121 1.865561,0.150482 c 1.026064,0.08276 2.502108,0.363213 3.280087,0.623237 1.583561,0.529253 2.28632,0.996778 1.159611,0.771434 -0.638151,-0.127625 -2.70807,0.135568 -3.610883,0.459146 -0.209479,0.07513 -0.824193,-0.303873 -1.522922,-0.939164 z"
           id="path4"
           sodipodi:nodetypes="csssscssssssscssssssssssssssssssssssssssssssssssssssssscsscccsscccssssssccsssssc" /></g></g></g></svg>
