<?xml version="1.0" encoding="UTF-8" standalone="no"?>
<!-- Created with Inkscape (http://www.inkscape.org/) -->

<svg
   width="105.83334mm"
   height="105.83334mm"
   viewBox="0 0 105.83333 105.83333"
   version="1.1"
   id="svg1"
   xml:space="preserve"
   inkscape:version="1.4 (e7c3feb100, 2024-10-09)"
   sodipodi:docname="chicago.svg"
   inkscape:export-filename="../pngs/chicago.png"
   inkscape:export-xdpi="96"
   inkscape:export-ydpi="96"
   xmlns:inkscape="http://www.inkscape.org/namespaces/inkscape"
   xmlns:sodipodi="http://sodipodi.sourceforge.net/DTD/sodipodi-0.dtd"
   xmlns="http://www.w3.org/2000/svg"
   xmlns:svg="http://www.w3.org/2000/svg"><sodipodi:namedview
     id="namedview1"
     pagecolor="#ffffff"
     bordercolor="#000000"
     borderopacity="0.25"
     inkscape:showpageshadow="2"
     inkscape:pageopacity="0.0"
     inkscape:pagecheckerboard="0"
     inkscape:deskcolor="#d1d1d1"
     inkscape:document-units="mm"
     inkscape:zoom="0.39194485"
     inkscape:cx="566.40622"
     inkscape:cy="-252.58656"
     inkscape:window-width="1920"
     inkscape:window-height="1011"
     inkscape:window-x="0"
     inkscape:window-y="32"
     inkscape:window-maximized="1"
     inkscape:current-layer="layer1"
     showgrid="false" /><defs
     id="defs1" /><g
     inkscape:label="Capa 1"
     inkscape:groupmode="layer"
     id="layer1"><circle
       style="fill:#c11410;fill-opacity:1;stroke:none;stroke-width:1.42144"
       id="path22"
       cx="52.916672"
       cy="-52.916672"
       r="51.526443"
       transform="rotate(90)" /><path
       id="path62"
       style="fill:#000000;stroke-width:4.16748"
       d="m 28.849598,47.050204 c 0.897768,-3.248837 2.143113,-5.826013 4.07195,-8.426679 l 1.670158,-2.251852 2.812485,2.781129 c 1.546873,1.529616 3.374733,3.540054 4.061926,4.467638 1.423493,1.921461 2.919688,5.833962 2.930746,7.663901 0.0073,1.171978 -0.051,1.231869 -1.139305,1.173905 -0.630721,-0.03338 -4.282692,-0.0734 -8.115485,-0.08844 l -6.968701,-0.02914 0.0213,-1.499589 c 0.01162,-0.824781 0.306434,-2.531699 0.655007,-3.793099 z m 7.439232,7.409765 h 8.115448 v 0.994475 c 0,1.61757 -1.04366,4.688194 -2.300743,6.769234 -0.897511,1.485735 -4.428314,5.333444 -7.396567,8.060423 -0.258458,0.237556 -3.329211,-4.227556 -4.277951,-6.220277 -1.169914,-2.457315 -2.255645,-6.43163 -2.255645,-8.256815 v -1.34704 z m 1.834306,-21.0282 c 3.602593,-2.668431 9.002214,-4.729575 12.390284,-4.729575 h 1.300632 l 1.57e-4,11.908547 1.75e-4,11.908549 -2.558307,-0.07082 c -1.40706,-0.03763 -2.655531,-0.07885 -2.774351,-0.08845 -0.118859,-0.0093 -0.318314,-0.887115 -0.443277,-1.950482 -0.51679,-4.397107 -2.392893,-7.667488 -7.030852,-12.256079 l -3.107872,-3.074763 z m 1.482168,34.541851 c 4.221806,-4.190443 6.093353,-7.741205 6.628587,-12.576097 0.110706,-1.000146 0.118868,-1.0032 2.757392,-1.032951 l 2.646335,-0.02914 0.09294,11.93218 0.09295,11.93218 -2.310415,-0.236713 c -1.270726,-0.130081 -3.614869,-0.711474 -5.209227,-1.29174 -3.040096,-1.106389 -7.791169,-4.078544 -7.903654,-4.944294 -0.03625,-0.278387 1.40609,-1.967126 3.205048,-3.752721 z M 56.050189,28.807163 c 1.262524,0.105906 3.608218,0.671478 5.212655,1.25701 2.916203,1.064279 7.737653,3.957472 8.079466,4.848176 0.105318,0.274644 -1.20448,1.857695 -3.129584,3.78277 -3.936888,3.936887 -5.763616,7.115091 -6.395297,11.12678 l -0.396963,2.520993 -2.391823,0.05285 c -1.315508,0.02915 -2.558839,0.06871 -2.762988,0.08845 -0.251782,0.02508 -0.393604,-3.808438 -0.441055,-11.916968 L 53.75469,28.614962 Z m 0.615494,25.65263 2.910975,1.76e-4 v 1.170927 c 0,0.644006 0.253305,2.033301 0.56292,3.087391 1.036464,3.528683 2.61924,5.951359 6.236313,9.545767 l 3.447838,3.426203 -1.52591,1.250361 c -3.162018,2.591046 -9.66256,5.160041 -13.056862,5.160041 h -1.29143 l -0.09745,-11.820543 -0.09745,-11.820489 z m 5.240841,-5.989655 c 0.772261,-2.873771 2.026504,-4.748923 5.727733,-8.563198 2.645125,-2.725942 3.438726,-3.358187 3.819115,-3.042494 1.140863,0.946839 3.776039,5.460288 4.756458,8.146731 0.585561,1.604436 1.151367,3.950138 1.257389,5.212635 l 0.192749,2.295478 -8.159532,-0.100801 -8.159542,-0.100802 0.02333,-0.957685 c 0.01309,-0.526722 0.256844,-1.827098 0.542426,-2.889762 z m 6.844137,5.94574 c 4.075363,-0.02508 7.687627,-0.06428 8.027235,-0.08825 0.887356,-0.06336 0.985188,1.853803 0.249383,4.887316 -0.766632,3.160694 -2.242188,6.282959 -4.272924,9.041533 l -1.601663,2.175713 -3.161343,-3.134516 c -1.738744,-1.723962 -3.692661,-4.007769 -4.34203,-5.075101 -1.261908,-2.074236 -2.308453,-5.142549 -2.308453,-6.76815 v -0.994486 z" /><path
       id="path107"
       style="fill:#ffffff;fill-opacity:1;stroke-width:0.842719"
       d="m 49.400673,80.960191 c -0.712785,-0.0044 -1.510146,0.04778 -2.240389,0.157304 -2.33973,0.350973 -4.524114,1.112868 -6.753289,2.355043 l -1.336285,0.744519 -0.646168,-0.184011 c -0.355438,-0.101172 -0.794287,-0.286099 -0.974824,-0.411347 -0.240912,-0.167115 -0.394407,-0.194404 -0.576979,-0.10227 -0.424723,0.214351 -1.16046,0.925297 -1.208992,1.168236 -0.05956,0.298074 0.395696,0.563014 1.123045,0.654306 0.635542,0.07978 0.637813,0.09071 0.121779,0.506771 -0.570242,0.459769 -0.83487,1.017785 -0.638403,1.345739 0.218494,0.364709 1.12952,0.38831 2.087238,0.05407 1.677701,-0.58552 3.037493,-2.116329 2.211937,-2.490204 -0.257063,-0.116416 2.117763,-1.319808 3.567321,-1.807559 2.183722,-0.734788 3.848022,-0.908437 4.688552,-0.48951 0.243491,0.121354 0.449082,0.339813 0.457109,0.485597 0.03808,0.691332 -1.080271,1.823253 -2.511953,2.542315 -0.86263,0.433249 -2.737672,1.109542 -3.520856,1.269851 l -0.572792,0.117251 0.727548,-0.71912 c 0.400241,-0.395578 1.112999,-1.050765 1.58369,-1.455823 0.983524,-0.846383 1.432243,-1.559005 1.027213,-1.631361 -0.517378,-0.09243 -4.061789,2.279628 -6.10034,4.082489 -2.034715,1.799467 -3.197104,3.331203 -3.569516,4.703892 -0.326054,1.201857 0.09232,1.772187 1.192209,1.625505 0.69244,-0.09235 1.817467,-0.640683 2.184502,-1.064997 0.262666,-0.303662 0.169093,-0.73996 -0.158565,-0.73996 -0.352209,0 -0.30529,-0.556528 0.107793,-1.279626 0.504252,-0.882706 1.33481,-1.864652 1.650539,-1.951841 0.371707,-0.102654 1.451302,0.180571 1.775463,0.465731 0.416952,0.366802 0.430115,0.994168 0.03512,1.674032 -1.277811,2.19834 -4.81862,4.011375 -7.878763,4.034286 -1.198805,0.009 -1.789108,-0.171886 -2.185572,-0.669939 -0.393452,-0.494277 -0.32296,-1.003292 0.271364,-1.962915 0.244471,-0.394758 0.615645,-1.006177 0.82496,-1.358767 l 0.380421,-0.641277 -0.528139,-0.0303 c -1.227574,-0.07019 -2.826835,0.928797 -3.583055,2.238123 -1.064493,1.843007 -0.524702,3.185136 1.486742,3.700126 1.121998,0.287239 3.327478,0.2757 4.768015,-0.02475 l -1.87e-4,3.25e-4 c 2.993933,-0.624445 5.925388,-2.063696 8.067119,-3.960351 0.750521,-0.664607 0.925573,-0.880271 1.42609,-1.756429 0.509159,-0.891306 0.55993,-1.050038 0.473433,-1.477317 -0.06871,-0.339374 -0.277973,-0.575758 -0.718348,-0.811608 l -0.621372,-0.332855 1.223265,-0.430556 c 2.856612,-1.005376 5.311425,-2.864799 5.679522,-4.301999 0.182473,-0.712608 -0.279387,-1.419172 -1.084414,-1.658073 -0.391492,-0.116177 -1.020121,-0.176341 -1.732813,-0.180754 z m 7.51189,1.391985 c -0.659541,0 -1.242779,0.22039 -2.363923,0.893357 -2.761978,1.657877 -6.216461,5.159864 -7.808181,7.915495 -1.183408,2.048726 -0.781131,2.787899 1.176812,2.162236 0.367121,-0.117318 1.131013,-0.470254 1.697469,-0.784255 l 1.029774,-0.570928 -0.05641,0.358907 c -0.09425,0.60198 0.223091,0.897318 1.025108,0.956541 0.865926,0.06395 1.585269,-0.192063 2.599237,-0.925601 l 0.671139,-0.485599 -0.171363,0.449448 c -0.380475,0.998576 0.768235,1.316403 2.34805,0.649745 0.439503,-0.185462 1.040922,-0.472761 1.336623,-0.638345 l 0.537445,-0.300937 -0.07417,0.401246 c -0.257435,1.391409 2.25654,1.629673 4.740307,0.449448 0.841213,-0.399726 0.885593,-0.409195 0.938862,-0.200948 0.292455,1.143158 1.521222,1.518487 3.503867,1.069882 0.68399,-0.154761 1.808726,-0.750751 2.311113,-1.224584 0.219781,-0.207289 0.557151,-0.653745 0.749851,-0.992367 0.426534,-0.749238 0.461723,-1.382807 0.176137,-3.175445 -0.209652,-1.316049 -0.114941,-1.774594 0.423392,-2.046297 0.368584,-0.186011 0.603938,0.09121 0.620596,0.730521 0.0099,0.379739 0.07406,0.437071 0.490155,0.437071 0.527108,0 0.788972,-0.17958 0.912757,-0.625645 0.119702,-0.431358 -0.398498,-1.187731 -0.971104,-1.417393 -0.504997,-0.202552 -0.543606,-0.201935 -1.285623,0.01664 -0.475542,0.140063 -0.974444,0.378314 -1.31864,0.630203 -0.833011,0.609627 -1.004432,1.16005 -0.963445,3.092399 0.03551,1.674593 -0.127104,2.290882 -0.703344,2.664444 -0.37967,0.246138 -1.005504,0.23558 -1.121262,-0.01889 -0.173589,-0.381594 -0.109407,-0.948775 0.160851,-1.42195 0.148316,-0.259614 0.204138,-0.472246 0.124114,-0.472246 -0.232875,0 -0.842348,0.240579 -1.565222,0.617502 -1.05883,0.552085 -2.323336,0.912951 -3.280239,0.936025 -0.966182,0.0233 -1.127709,-0.155746 -0.744854,-0.825943 0.20487,-0.35863 0.247536,-0.385151 0.477644,-0.298329 0.138873,0.05241 0.568452,0.09142 0.954877,0.08663 1.63101,-0.02034 3.394087,-1.157486 4.148145,-2.67552 0.327664,-0.659699 0.349523,-0.80867 0.165311,-1.116129 -0.671644,-1.121119 -3.605482,-0.02981 -6.390306,2.376866 -0.661399,0.571588 -1.24151,1.107054 -1.288928,1.190057 -0.139567,0.244316 -1.434726,0.874471 -1.797408,0.874471 -0.242954,0 -0.311411,-0.08002 -0.252033,-0.294096 0.129582,-0.466989 1.712923,-2.410979 2.621832,-3.219088 l 0.829629,-0.737682 -0.179719,-0.205838 c -0.47994,-0.549096 -1.661424,0.09444 -4.063867,2.213048 -2.240257,1.975583 -3.112989,2.619501 -3.483896,2.570971 -0.24275,-0.03176 -0.231423,-0.119421 0.09867,-0.759828 0.423496,-0.821772 1.766223,-2.460538 2.602987,-3.176747 0.706503,-0.604741 0.80254,-0.79696 0.478584,-0.959153 -0.618558,-0.309683 -2.098266,0.554129 -3.831785,2.237146 -0.429201,0.416698 -0.929355,0.941255 -1.111448,1.165633 -0.398917,0.491578 -0.612925,0.639165 -1.550006,1.068579 -0.793461,0.363598 -1.425899,0.42685 -1.53529,0.153398 -0.08249,-0.206212 0.581086,-1.238248 1.291463,-2.008511 0.371556,-0.40289 0.680446,-0.598491 1.657373,-1.049039 2.086672,-0.962337 3.824796,-2.241553 4.978665,-3.6643 0.991865,-1.222999 1.005364,-2.076258 0.03307,-2.076258 z m -0.787085,1.439209 c 0.0047,0.02497 -0.05774,0.106256 -0.184135,0.259573 -0.400142,0.48528 -2.585586,2.373253 -3.227786,2.788533 -0.297422,0.192318 -0.523601,0.319393 -0.502821,0.282367 0.189858,-0.338825 3.238958,-3.021711 3.695872,-3.252309 0.142034,-0.07167 0.214085,-0.103148 0.218842,-0.07817 z m -16.701322,1.707899 c 0.28361,0 0.265994,0.219055 -0.03316,0.412974 -0.274259,0.177791 -0.561247,0.221122 -0.636158,0.09607 -0.06771,-0.113051 0.452953,-0.509049 0.669294,-0.509049 z m 26.816402,2.014378 c 0.0426,-6.31e-4 0.0791,0.0038 0.108452,0.0143 0.117429,0.04178 0.1262,0.173328 0.0043,0.386264 -0.26752,0.467092 -1.01594,1.011645 -1.699367,1.236635 -0.697339,0.229566 -1.335152,0.255457 -1.216569,0.04916 0.117544,-0.204569 1.659512,-1.244229 2.255534,-1.520958 0.234412,-0.108848 0.419907,-0.162841 0.547723,-0.16545 z"
       sodipodi:nodetypes="cccccsscssssssssssccssssssssssccssccccccccssccccscccssscccscccssccscsscssssssssssscssssscccsssccccssccssssssssccscscssssssssccsscscc" /><path
       id="path4"
       style="fill:#ffffff;fill-opacity:1;stroke-width:0.965137"
       d="m 36.206819,10.89784 -2.03e-4,3.59e-4 c -2.004878,-0.07719 -5.234674,1.184599 -8.249537,3.369002 -5.484744,3.973959 -8.528214,8.655045 -7.169552,11.027297 0.613572,1.071316 1.103041,1.293269 2.854215,1.294397 1.290231,7.04e-4 1.577376,-0.04253 2.75235,-0.41594 0.721622,-0.229317 1.871833,-0.719346 2.555739,-1.088793 1.159648,-0.626447 1.253189,-0.656917 1.390295,-0.454871 0.08213,0.121085 0.341333,0.199033 0.587139,0.17685 0.387444,-0.03493 0.571821,-0.172695 1.548619,-1.157932 2.027228,-2.044726 5.15444,-4.644818 6.32199,-5.25619 0.456342,-0.239123 0.460855,-0.237904 0.27382,0.101524 -0.104345,0.189427 -0.74139,0.945905 -1.415268,1.680855 -0.676821,0.738161 -1.52636,1.807887 -1.898068,2.389736 -0.661968,1.036143 -0.668778,1.060318 -0.429159,1.497461 0.215886,0.393923 0.33178,0.443358 1.022567,0.434133 0.919636,-0.01226 1.587231,-0.224991 3.026339,-0.964336 0.749607,-0.385123 1.026608,-0.482644 0.943739,-0.332244 -0.356907,0.647695 0.195621,1.371907 1.046337,1.371907 0.741602,0 2.386034,-0.660744 3.9539,-1.588791 l 1.549855,-0.917399 -0.274461,0.504371 c -1.352166,2.485281 2.10461,3.142512 5.94998,1.131367 0.492626,-0.257649 0.904394,-0.445351 0.915479,-0.417396 0.0111,0.02796 0.0084,0.244173 -0.006,0.480352 -0.04778,0.780751 1.006288,1.026578 2.393185,0.558225 0.790503,-0.26695 2.673314,-1.328993 2.842425,-1.603353 0.05626,-0.09114 0.04101,0.114021 -0.03443,0.456338 -0.340177,1.54382 1.020644,1.783211 3.537794,0.622274 l 1.04016,-0.479624 0.06924,0.461428 c 0.0896,0.597303 0.496515,0.816989 1.388483,0.748541 0.906458,-0.06958 2.161202,-0.589091 3.209611,-1.3286 0.450157,-0.317519 0.832782,-0.556431 0.850082,-0.530938 0.01722,0.02549 -0.498202,0.606726 -1.145228,1.291487 -1.137277,1.203583 -1.19911,1.250288 -1.859464,1.402117 -1.262394,0.29024 -2.517206,0.765673 -3.150628,1.193957 -1.180559,0.798201 -1.838594,1.815069 -1.56149,2.412303 0.278989,0.601342 1.352599,0.846112 2.445028,0.557492 0.736243,-0.194511 2.190583,-1.06357 3.361772,-2.009093 1.239098,-1.000375 0.951269,-0.95285 3.932771,-0.649928 2.251871,0.228784 5.605037,0.304943 6.394966,0.145198 0.705885,-0.142763 1.401905,-0.763853 1.667408,-1.487994 0.116228,-0.317075 0.133369,-0.606231 0.03754,-0.642286 -0.09575,-0.03605 -0.649202,0.03358 -1.229547,0.155022 -0.838908,0.175478 -1.391546,0.203995 -2.696677,0.137914 -0.902886,-0.04571 -2.46888,-0.120973 -3.47992,-0.167026 l -1.838075,-0.08369 0.36228,-0.469069 c 0.452382,-0.585226 0.493429,-0.609598 0.683117,-0.405748 0.201554,0.216616 1.180673,0.09496 1.948182,-0.241997 l 0.59131,-0.259458 0.05112,0.457789 c 0.02794,0.251777 0.248846,0.562303 0.490983,0.689952 1.640575,0.864832 4.408395,0.0062 6.86805,-2.130281 3.64269,-3.164325 4.308014,-5.747696 1.476837,-5.733259 -1.082248,0.0055 -1.934945,0.286486 -2.832946,0.93413 -1.203701,0.86812 -1.395912,1.769205 -0.412362,1.933042 0.291706,0.04866 0.72566,0.02352 0.987666,-0.0571 0.391674,-0.120537 0.518685,-0.236477 0.784016,-0.717976 0.616286,-1.118425 1.779492,-1.476554 1.85626,-0.571322 0.06595,0.777658 -1.673595,2.811583 -3.13575,3.666305 -0.936689,0.547548 -2.151755,0.83669 -2.613014,0.621904 -0.543148,-0.252903 -0.434471,-0.667151 0.448099,-1.705607 0.878918,-1.034161 0.960097,-1.383575 0.35416,-1.522929 -0.528089,-0.121457 -1.321876,0.281255 -2.492621,1.264927 -1.326841,1.114842 -1.639915,1.290029 -2.307336,1.290029 H 72.1811 l 0.614327,-0.944329 c 0.337851,-0.519312 1.006938,-1.383813 1.486766,-1.921033 1.36927,-1.533013 1.516128,-1.750479 1.349542,-1.995996 -0.23409,-0.344992 -1.239356,-0.281839 -2.005033,0.125909 -0.392394,0.208983 -0.637211,0.28443 -0.624225,0.192505 0.03581,-0.254256 -0.647843,-0.53639 -1.299565,-0.53639 -1.036686,0 -3.19973,1.015296 -4.85666,2.279475 -0.375671,0.286627 -1.057493,0.902063 -1.515126,1.367542 -0.977037,0.993788 -1.783494,1.454231 -2.455202,1.402475 -0.460466,-0.03549 -0.460212,-0.03627 0.005,-0.816955 0.256045,-0.429776 0.970149,-1.366138 1.58688,-2.080787 0.616748,-0.714658 1.193543,-1.430327 1.281863,-1.590615 0.332711,-0.603781 -0.875108,-0.76259 -1.89245,-0.248911 l -0.617952,0.311865 -0.284103,-0.311865 c -0.33771,-0.371024 -1.246613,-0.415649 -2.211918,-0.10843 -1.625026,0.517164 -3.999212,2.049231 -5.264608,3.397379 -1.011431,1.077555 -2.76525,1.844792 -4.479962,1.95961 -1.299758,0.08701 -1.481987,-0.109548 -0.949024,-1.024746 0.759625,-1.304382 3.465063,-3.363903 4.419283,-3.363903 0.572168,0 0.448609,0.29617 -0.466355,1.117538 -0.911506,0.818258 -1.113306,1.099153 -0.956145,1.330789 0.365094,0.53805 1.854264,-0.258989 2.78279,-1.489451 2.397076,-3.176588 -2.296307,-3.268634 -6.348575,0.213977 -0.477215,0.410128 -1.591333,1.146339 -2.610504,1.724889 -1.499129,0.851016 -1.860203,1.009466 -2.302172,1.009466 h -0.524408 l 0.379377,-0.68377 c 0.522459,-0.940294 1.642271,-2.294144 2.667945,-3.22417 0.702261,-0.636787 0.840812,-0.813428 0.765188,-0.974524 -0.117717,-0.25115 -0.970676,-0.254377 -1.544159,-0.0056 -0.759223,0.329166 -2.178412,1.473627 -3.450699,2.782753 -0.938705,0.965884 -1.408365,1.356781 -2.019729,1.681588 -0.835087,0.443684 -1.739762,0.57653 -1.714013,0.251453 0.0076,-0.09462 0.549783,-0.879245 1.205013,-1.743451 0.696276,-0.918314 1.251932,-1.761395 1.337607,-2.028749 0.515539,-1.609233 -1.573188,-1.627063 -3.930715,-0.03344 -0.553847,0.374384 -1.396448,0.99767 -1.872402,1.385003 -0.475948,0.387335 -0.838207,0.652997 -0.805362,0.590254 0.03287,-0.06281 0.67877,-0.754499 1.435394,-1.537123 l 1.375766,-1.423215 1.405903,-0.58552 c 1.685244,-0.702017 3.124565,-1.5607 3.916097,-2.336242 1.167411,-1.143832 1.006851,-2.013467 -0.371987,-2.013467 -0.906788,0 -1.59162,0.238623 -2.790027,0.972342 -0.882576,0.540325 -1.027285,0.590613 -1.704932,0.590613 h -0.740484 c 0.515376,-0.828088 0.62681,-1.630014 0.162591,-2.194296 -0.342774,-0.338668 -0.875067,-0.513228 -1.543374,-0.538931 z m -1.002761,1.326057 c 0.388557,0.0381 0.578737,0.263275 0.472001,0.613168 -0.166742,0.546487 -0.451566,0.794033 -0.913173,0.794033 -0.536771,0 -1.525592,0.300619 -2.064093,0.62773 -0.247338,0.150239 -0.626555,0.529783 -0.8427,0.843158 -1.333093,1.933062 1.426566,2.489134 3.803366,0.766378 0.323562,-0.234524 0.645575,-0.48557 0.715021,-0.55786 0.06948,-0.07232 0.224296,-0.09463 0.344075,-0.04949 0.195527,0.07371 0.141007,0.15108 -0.531435,0.756548 -1.065334,0.959259 -2.736767,2.829387 -3.703343,4.143381 -0.903525,1.228279 -1.381043,1.644801 -3.375078,2.94433 -1.354268,0.882577 -3.012741,1.650372 -4.010651,1.856625 -0.741443,0.153217 -0.661302,0.155443 -1.252516,-0.04043 -0.529462,-0.175377 -0.762996,-0.772168 -0.615865,-1.574966 0.167152,-0.912027 1.68692,-3.493389 2.767744,-4.701242 2.280072,-2.548045 7.141438,-6.098631 8.755769,-6.394835 0.170158,-0.03148 0.321346,-0.03922 0.450881,-0.02655 z m 16.110337,0.625907 c -0.560488,0 -0.725426,0.05759 -1.19459,0.418852 -1.795039,1.382075 -1.938324,3.046322 -0.210036,2.439589 0.214657,-0.07535 0.736729,-0.37749 1.159942,-0.671031 1.51886,-1.053499 1.645762,-2.18741 0.244675,-2.18741 z m -8.927994,0.520741 c 0.235262,0 -0.904619,0.909824 -1.876849,1.497818 l -0.86147,0.520741 0.668271,-0.585879 c 0.80226,-0.703635 1.855435,-1.43268 2.070048,-1.43268 z M 33.8966,14.672949 c 0.516485,0 0.538428,0.02288 0.251085,0.260552 -0.184167,0.152315 -0.478791,0.260556 -0.709605,0.260556 -0.28794,0 -0.355782,-0.07053 -0.251066,-0.260556 0.116442,-0.21133 0.250238,-0.260552 0.709586,-0.260552 z m 27.559271,3.516372 c 0.343305,0 0.455886,0.411582 0.225641,0.823145 -0.5169,0.922323 -2.971858,2.912848 -4.044594,3.279118 -0.708749,0.241981 -0.69427,0.24225 -0.874438,-0.02332 -0.32542,-0.479578 1.497537,-2.347382 3.301253,-3.382827 0.666868,-0.382819 1.293329,-0.696139 1.392141,-0.696139 z m 9.982965,0.03894 c 0.09763,0.01225 0.136725,0.08722 0.202473,0.235083 0.179375,0.403466 -0.232275,0.947762 -1.627079,2.152109 -0.951203,0.821324 -2.638974,1.871542 -3.007648,1.871542 -0.07101,0 -0.218793,-0.07898 -0.328222,-0.175765 -0.558365,-0.4939 2.499987,-3.359806 4.207644,-3.942869 0.298975,-0.102081 0.455203,-0.152354 0.552832,-0.1401 z m -6.98049,8.683409 c 0.0787,-0.0055 0.133512,0.0062 0.155735,0.03894 0.06504,0.09582 -0.82001,0.830919 -1.376375,1.143383 -0.542813,0.304836 -1.108318,0.331253 -1.086086,0.05055 0.02515,-0.317048 1.755433,-1.19421 2.306729,-1.232898 z" /><rect
       style="fill:#c11410;fill-opacity:1;fill-rule:evenodd;stroke-width:0.571323"
       id="rect116"
       width="78.271027"
       height="1.7190597"
       x="21.772896"
       y="70.595329"
       ry="0.022380183" /><rect
       style="fill:#c11410;fill-opacity:1;fill-rule:evenodd;stroke-width:0.571323"
       id="rect116-6"
       width="78.271027"
       height="1.7190597"
       x="22.316151"
       y="61.219124"
       ry="0.022380183" /></g></svg>
