<?xml version="1.0" encoding="UTF-8" standalone="no"?>
<!-- Created with Inkscape (http://www.inkscape.org/) -->

<svg
   width="105.83334mm"
   height="105.83334mm"
   viewBox="0 0 105.83333 105.83333"
   version="1.1"
   id="svg1"
   xml:space="preserve"
   inkscape:version="1.4 (e7c3feb100, 2024-10-09)"
   sodipodi:docname="dallas.svg"
   inkscape:export-filename="../pngs/NBL.png"
   inkscape:export-xdpi="96"
   inkscape:export-ydpi="96"
   xmlns:inkscape="http://www.inkscape.org/namespaces/inkscape"
   xmlns:sodipodi="http://sodipodi.sourceforge.net/DTD/sodipodi-0.dtd"
   xmlns="http://www.w3.org/2000/svg"
   xmlns:svg="http://www.w3.org/2000/svg"><sodipodi:namedview
     id="namedview1"
     pagecolor="#ffffff"
     bordercolor="#000000"
     borderopacity="0.25"
     inkscape:showpageshadow="2"
     inkscape:pageopacity="0.0"
     inkscape:pagecheckerboard="0"
     inkscape:deskcolor="#d1d1d1"
     inkscape:document-units="mm"
     inkscape:zoom="1.3348726"
     inkscape:cx="190.28033"
     inkscape:cy="239.72325"
     inkscape:window-width="1920"
     inkscape:window-height="1011"
     inkscape:window-x="0"
     inkscape:window-y="32"
     inkscape:window-maximized="1"
     inkscape:current-layer="layer1"
     showgrid="false" /><defs
     id="defs1" /><g
     inkscape:label="Capa 1"
     inkscape:groupmode="layer"
     id="layer1"><g
       id="path1-6"
       style="fill:#002b5e;fill-opacity:1"
       transform="matrix(2.1074649,0,0,2.1074649,-102.28317,-122.729)"><path
         d="m 60.968592,103.67518 c 0.09745,-1.15848 0.775476,-2.59956 1.725975,-3.66841 0.740082,-0.832226 0.779539,-0.940011 1.517432,-4.145136 0.909857,-3.952067 0.920543,-4.084443 0.329731,-4.084443 -0.461786,0 -0.538433,-0.235713 -0.329797,-1.014236 0.08703,-0.324757 0.23022,-0.396875 0.787981,-0.396875 0.56234,0 0.697531,-0.06945 0.772529,-0.396875 0.05,-0.218281 0.369011,-1.575556 0.708917,-3.016168 0.339905,-1.440611 0.618009,-2.690767 0.618009,-2.778125 0,-0.08736 -0.18743,-0.158832 -0.416512,-0.158832 -0.349166,0 -0.402882,-0.0713 -0.332215,-0.440972 0.07013,-0.366872 0.184582,-0.440972 0.681095,-0.440972 0.328239,0 0.596799,-0.0345 0.596799,-0.07666 0,-0.135613 0.535101,-2.647172 0.628139,-2.948242 0.06997,-0.226422 -0.194863,-0.397813 -1.195167,-0.773469 -2.088587,-0.784352 -4.325112,-2.008491 -5.170276,-2.829896 -0.433997,-0.421797 -0.789085,-0.842176 -0.789085,-0.934176 0,-0.092 0.813593,0.253068 1.807986,0.766818 1.892438,0.977724 4.20631,1.81623 5.235549,1.89727 l 0.60534,0.04766 0.583565,-1.852084 c 0.674311,-2.140086 0.670744,-2.116666 0.322421,-2.116666 -0.16463,0 -0.264583,-0.16659 -0.264583,-0.440973 v -0.440972 h 1.940277 1.940278 v 0.440972 c 0,0.330844 -0.09282,0.440973 -0.371649,0.440973 -0.270045,0 -0.341687,0.07808 -0.262053,0.285605 0.06028,0.157083 0.322238,1.078582 0.582131,2.047775 l 0.472534,1.762169 0.71556,-0.09922 c 1.100322,-0.152572 3.740036,-0.957604 5.106326,-1.557273 1.168201,-0.512726 1.240255,-0.523608 1.461712,-0.220748 0.128117,0.17521 0.232939,0.425617 0.232939,0.55646 0,0.462502 0.692825,1.587232 1.313311,2.132026 0.598561,0.525544 1.676497,0.927061 3.153457,1.174621 0.562701,0.09432 0.639372,0.155255 0.462887,0.367907 -0.116336,0.140176 -0.459507,0.319232 -0.762602,0.397902 l -0.551081,0.143036 v 7.414667 c 0,7.843015 0.03439,8.196424 0.821992,8.446398 0.178495,0.05665 0.324536,0.207471 0.324536,0.335152 0,0.156863 -0.386116,0.272033 -1.190625,0.355136 -2.408211,0.24876 -5.226902,1.644595 -6.62914,3.282796 l -0.576663,0.6737 -1.887767,-0.9463 c -5.856737,-2.93585 -11.007967,-1.975271 -14.078538,2.62531 l -0.716539,1.07358 z m 16.008555,-5.083681 c 0,-0.103771 -1.418618,-6.34141 -1.519682,-6.682016 -0.08406,-0.283288 -0.453676,-0.30868 -4.493208,-0.30868 -4.397336,0 -4.401781,3.86e-4 -4.569397,0.396875 -0.168814,0.399324 -1.588547,6.210673 -1.588547,6.502351 0,0.08783 2.666646,0.156329 6.085417,0.156329 3.346979,0 6.085417,-0.02919 6.085417,-0.06486 z m -8.186528,-0.808466 -2.101111,-0.09681 1.846362,-1.183013 c 1.015499,-0.650657 1.960999,-1.226394 2.101111,-1.279415 0.216287,-0.08185 3.779089,2.035657 4.297734,2.554302 0.182246,0.182246 -2.253563,0.184205 -6.144096,0.0049 z m 4.963511,-1.58163 c -1.142069,-0.735573 -2.091396,-1.416781 -2.109615,-1.513795 -0.03516,-0.18721 3.002678,-2.124166 3.130687,-1.996158 0.101149,0.10115 1.174814,4.761818 1.107994,4.809691 -0.02892,0.02072 -0.986997,-0.564164 -2.129066,-1.299738 z m -7.889483,1.133615 c 0,-0.529135 1.149732,-4.49687 1.300656,-4.488575 0.321087,0.01765 2.787398,1.648159 2.784945,1.841165 -0.0012,0.09701 -0.782091,0.674056 -1.735241,1.282315 -2.149708,1.371852 -2.35036,1.488391 -2.35036,1.365095 z m 3.404784,-3.940356 c -0.698237,-0.453046 -1.273705,-0.883252 -1.278819,-0.956012 -0.0051,-0.07276 1.260701,-0.132292 2.812924,-0.132292 1.552222,0 2.817967,0.05953 2.812768,0.132292 -0.01337,0.187085 -2.606117,1.810957 -2.864157,1.79386 -0.117257,-0.0078 -0.784479,-0.384801 -1.482716,-0.837848 z m 10.236082,4.320792 c 0.743884,-0.323469 1.389036,-0.624647 1.433672,-0.669282 0.110124,-0.110124 0.431209,-15.697119 0.328176,-15.931194 -0.04496,-0.102137 -0.465283,-0.478487 -0.934056,-0.836334 l -0.852314,-0.650631 -2.581251,0.104586 c -1.419688,0.05752 -2.617144,0.162662 -2.661013,0.233643 -0.04387,0.07098 0.410102,2.479671 1.008825,5.352643 l 1.088586,5.223584 h 0.585088 c 0.349193,0 0.586059,0.0889 0.587496,0.220486 0.0013,0.121268 0.05027,0.39908 0.108767,0.617361 0.09,0.335849 0.03699,0.396875 -0.344776,0.396875 -0.248125,0 -0.486148,0.05953 -0.528942,0.132292 -0.04279,0.07276 0.150203,1.362604 0.428882,2.86632 0.62986,3.398653 0.660487,3.527777 0.836752,3.527777 0.07897,0 0.752224,-0.264656 1.496108,-0.588126 z m -4.292255,-6.8212 c 0,-0.411395 -1.442173,-6.625498 -1.566723,-6.750771 -0.07501,-0.07545 -1.3192,-0.115138 -2.764858,-0.08819 l -2.628469,0.04899 -0.7224,2.998611 c -0.397319,1.649236 -0.777508,3.216892 -0.844863,3.48368 l -0.122464,0.48507 h 4.324889 c 2.781813,0 4.324888,-0.06329 4.324888,-0.177382 z m -7.055556,-0.664603 c 0,-0.07504 0.635,-0.767706 1.411111,-1.539265 l 1.411112,-1.402835 1.411111,1.402835 c 0.776111,0.771559 1.411111,1.464228 1.411111,1.539265 0,0.07504 -1.27,0.136429 -2.822222,0.136429 -1.552223,0 -2.822223,-0.06139 -2.822223,-0.136429 z m -0.295385,-1.010098 c 0.05523,-0.194028 0.228462,-0.868716 0.384967,-1.499306 0.156506,-0.63059 0.365064,-1.454881 0.463464,-1.831757 l 0.178909,-0.68523 0.78055,0.766053 c 0.429303,0.421328 0.770711,0.848744 0.758685,0.949812 -0.01203,0.101069 -0.617018,0.739386 -1.344426,1.418483 -0.808231,0.754552 -1.283512,1.097531 -1.222149,0.881945 z m 4.919558,-1.020017 -1.276027,-1.2846 0.791674,-0.776968 c 0.43542,-0.427333 0.818776,-0.742232 0.851901,-0.699775 0.06227,0.07981 0.97701,4.045943 0.933148,4.045943 -0.01357,0 -0.598882,-0.57807 -1.300696,-1.2846 z m -2.595723,-2.595978 -0.86866,-0.881922 h 1.624966 c 0.893732,0 1.624967,0.06285 1.624967,0.139663 0,0.07681 -0.340338,0.47368 -0.756307,0.881922 l -0.756306,0.742258 z m 3.322185,-2.072547 c 0.04388,-0.07276 -0.08648,-0.86651 -0.289702,-1.763889 l -0.369489,-1.631597 h -1.794897 -1.794897 l -0.374436,1.492922 c -0.20594,0.821107 -0.374436,1.614857 -0.374436,1.763889 0,0.230738 0.365073,0.270967 2.459035,0.270967 1.352469,0 2.494938,-0.05953 2.538822,-0.132292 z m -4.050103,-0.881944 c 0.04927,-0.169775 0.176741,-0.646025 0.283268,-1.058334 l 0.193687,-0.749653 h 1.109434 1.109435 l 0.206683,0.895402 c 0.113676,0.49247 0.206684,0.96872 0.206684,1.058333 0,0.08961 -0.719724,0.162932 -1.599387,0.162932 -1.439759,0 -1.590446,-0.03081 -1.509804,-0.30868 z m 2.932802,-4.390171 c 0,-0.261867 -1.104042,-3.692405 -1.231775,-3.827435 -0.115125,-0.121702 -1.414059,3.376466 -1.414059,3.808214 0,0.07258 0.595313,0.131961 1.322917,0.131961 0.727604,0 1.322917,-0.05073 1.322917,-0.11274 z m -1.651785,-0.564429 c -0.03613,-0.06412 0.03073,-0.434081 0.148561,-0.822137 l 0.214247,-0.705555 0.134285,0.657901 c 0.07386,0.361845 0.145595,0.711466 0.159419,0.776935 0.03323,0.157394 -0.571924,0.242987 -0.656512,0.09286 z M 49.93085,69.610988 c -0.26276,-0.26276 -0.108823,-1.109411 0.235185,-1.293519 0.311946,-0.166948 0.352778,-0.369327 0.352778,-1.748497 0,-1.239492 0.0602,-1.609395 0.29325,-1.80178 0.262583,-0.216768 0.230303,-0.251307 -0.30868,-0.330278 -0.569961,-0.08351 -0.601931,-0.125668 -0.601931,-0.79375 v -0.705556 l 2.540937,-0.04911 c 3.487434,-0.0674 3.368091,-0.187891 3.368091,3.400496 0,3.55937 0.114552,3.439583 -3.289262,3.439583 -1.360026,0 -2.525692,-0.05292 -2.590368,-0.117592 z m 4.080463,-1.505185 c 0.131984,-0.131984 0.211667,-0.785715 0.211667,-1.736551 0,-1.813387 -0.230689,-2.168264 -1.349711,-2.076309 l -0.678761,0.05578 -0.04987,1.984375 -0.04988,1.984375 h 0.852444 c 0.468844,0 0.947694,-0.09525 1.06411,-0.211666 z m 2.681111,1.015826 c 0,-0.333823 0.07938,-0.656007 0.176389,-0.715965 0.09701,-0.05996 0.176389,-0.801044 0.176389,-1.646857 0,-1.065017 0.07943,-1.651251 0.258356,-1.906697 0.286941,-0.409666 0.198454,-0.591585 -0.287754,-0.591585 -0.259684,0 -0.32338,-0.138973 -0.32338,-0.705556 v -0.705555 h 2.633031 2.633031 l 0.365581,0.46476 c 0.278507,0.354064 0.36558,0.719368 0.36558,1.533751 0,0.908578 -0.06824,1.140222 -0.454779,1.543677 l -0.454778,0.474686 0.370169,0.725591 c 0.203593,0.399075 0.44793,0.72559 0.542973,0.72559 0.09504,0 0.172804,0.3175 0.172804,0.705556 0,0.705131 -4.24e-4,0.705555 -0.703017,0.705555 -0.682289,0 -0.718768,-0.0312 -1.237261,-1.058333 -0.533483,-1.056824 -0.535374,-1.058333 -1.325456,-1.058333 h -0.791211 v 1.058333 1.058333 h -1.058333 -1.058334 z m 4.375919,-3.840924 c 0.04701,-0.566592 -0.0031,-0.669949 -0.369592,-0.761927 -0.23319,-0.05853 -0.733916,-0.08105 -1.112724,-0.05004 -0.609116,0.04985 -0.69536,0.114173 -0.745993,0.556341 -0.103133,0.900656 0.04279,1.022195 1.157548,0.964105 l 1.01637,-0.05296 z m 2.679637,3.74232 c 0,-0.388056 0.07937,-0.705556 0.176389,-0.705556 0.105137,0 0.176389,-0.672687 0.176389,-1.665284 0,-0.919921 0.07895,-1.714078 0.176389,-1.774299 0.29828,-0.184347 0.19563,-0.440972 -0.176389,-0.440972 -0.300515,0 -0.352778,-0.117593 -0.352778,-0.79375 v -0.79375 h 1.234722 1.234722 v 0.695145 c 0,0.382331 -0.07938,0.744202 -0.176388,0.80416 -0.235034,0.145259 -0.235034,3.96875 0,3.96875 0.09701,0 0.176388,0.3175 0.176388,0.705556 V 69.72858 H 64.982702 63.74798 Z m 3.351389,0.0986 c 0,-0.333823 0.07938,-0.656007 0.176389,-0.715965 0.09717,-0.06006 0.176389,-0.847179 0.176389,-1.752701 0,-1.305255 0.0593,-1.692899 0.287995,-1.882701 0.260483,-0.216182 0.247845,-0.248405 -0.132292,-0.337307 -0.348466,-0.0815 -0.429555,-0.225197 -0.474526,-0.840917 l -0.05424,-0.742624 h 1.244864 1.244864 v 0.695145 c 0,0.382331 -0.07937,0.744202 -0.176388,0.80416 -0.100203,0.06193 -0.176389,0.942573 -0.176389,2.038883 v 1.929867 h 0.79375 c 0.587963,0 0.79375,-0.0686 0.79375,-0.264583 0,-0.176389 0.176389,-0.264583 0.529166,-0.264583 0.523822,0 0.529167,0.0098 0.529167,0.970139 v 0.970138 h -2.38125 -2.38125 z m 5.468056,-0.01595 c 0,-0.390969 0.09851,-0.6607 0.264583,-0.724427 0.209036,-0.08021 0.264583,-0.447182 0.264583,-1.747943 0,-0.90734 0.07918,-1.695349 0.176389,-1.755427 0.30098,-0.186016 0.194741,-0.41383 -0.220486,-0.472801 -0.336034,-0.04772 -0.396875,-0.164527 -0.396875,-0.761921 V 62.9376 h 1.234722 1.234722 l 0.05748,0.60286 c 0.03916,0.410669 -0.03113,0.652451 -0.220486,0.758418 -0.226636,0.126831 -0.277967,0.512239 -0.277967,2.08707 v 1.931513 h 0.79375 c 0.587963,0 0.79375,-0.0686 0.79375,-0.264583 0,-0.176389 0.176389,-0.264583 0.529167,-0.264583 0.523821,0 0.529167,0.0098 0.529167,0.970139 v 0.970138 h -2.38125 -2.38125 z m 5.644444,-0.01098 c 0,-0.485531 0.08256,-0.655464 0.352778,-0.726128 0.320959,-0.08393 0.352778,-0.240597 0.352778,-1.736966 0,-0.906206 0.0792,-1.693661 0.176388,-1.753726 0.323406,-0.199876 0.181876,-0.416909 -0.30868,-0.473353 -0.43902,-0.05051 -0.48507,-0.122795 -0.48507,-0.761369 v -0.705556 h 2.910417 2.910417 l 0.05331,0.926042 0.05331,0.926042 h -0.784096 c -0.546074,0 -0.815999,-0.08314 -0.88919,-0.27387 -0.08049,-0.209742 -0.322391,-0.26137 -1.033108,-0.220486 l -0.928014,0.05338 -0.05483,0.662876 c -0.06302,0.761946 0.384849,1.115252 0.76124,0.600506 0.132841,-0.18167 0.462046,-0.293243 0.86524,-0.293243 h 0.650815 l -0.0529,1.014236 c -0.05274,1.011122 -0.05473,1.014411 -0.648592,1.071182 -0.327632,0.03132 -0.68085,-0.02821 -0.784931,-0.132291 -0.104081,-0.104081 -0.332112,-0.189238 -0.506737,-0.189238 -0.245265,0 -0.3175,0.140458 -0.3175,0.617361 v 0.617361 h 1.146527 c 0.64676,0 1.146528,-0.07689 1.146528,-0.176389 0,-0.09701 0.3175,-0.176388 0.705556,-0.176388 h 0.705555 v 0.881944 0.881944 h -2.998611 -2.998611 z m 6.879167,-0.07168 c 0,-0.388056 0.07937,-0.705556 0.176389,-0.705556 0.105052,0 0.176389,-0.668958 0.176389,-1.654096 0,-1.249686 0.06421,-1.707389 0.262641,-1.87207 0.322532,-0.267678 0.187184,-0.530778 -0.273051,-0.530778 -0.281837,0 -0.342368,-0.124744 -0.342368,-0.705556 v -0.705555 h 2.524638 2.524638 l 0.473973,0.494721 c 0.404739,0.422457 0.473973,0.646494 0.473973,1.533751 0,0.882775 -0.07006,1.112157 -0.465874,1.525297 -0.43321,0.452174 -0.449642,0.525453 -0.234371,1.045164 0.127327,0.307393 0.382729,0.699785 0.567562,0.871982 0.216953,0.202123 0.315647,0.491531 0.278468,0.816572 -0.05043,0.440848 -0.138924,0.510239 -0.711366,0.557772 -0.638546,0.05302 -0.66634,0.0294 -1.193164,-1.014236 -0.539191,-1.068131 -0.539679,-1.068523 -1.3306,-1.068523 h -0.791211 v 1.058333 1.058333 h -1.058333 -1.058333 z m 4.37871,-3.68567 c 0.07134,-0.747154 -0.147599,-0.894274 -1.336002,-0.89774 l -0.926042,-0.0027 v 0.802167 0.802166 l 1.102431,-0.05251 1.102431,-0.05251 z m 3.153615,3.72233 c -0.8815,-0.902739 -0.866308,-1.271382 0.0524,-1.271382 0.47037,0 0.823148,0.117592 1.058333,0.352777 0.647236,0.647237 2.293056,0.34701 2.293056,-0.418293 0,-0.476397 -0.451567,-0.64004 -1.766166,-0.64004 -1.241006,0 -1.378774,-0.03751 -1.816805,-0.494721 -0.396791,-0.41416 -0.473974,-0.652481 -0.473974,-1.463508 0,-0.888983 0.0551,-1.02259 0.668896,-1.621945 0.658678,-0.643182 0.690463,-0.653159 2.080869,-0.653159 1.401986,0 1.416593,0.0047 2.065132,0.668895 0.478531,0.49006 0.653159,0.820175 0.653159,1.234722 0,0.543998 -0.02765,0.565827 -0.716643,0.565827 -0.641944,0 -0.710891,-0.04137 -0.661458,-0.396875 0.04998,-0.359454 -0.02687,-0.402069 -0.815071,-0.45196 -0.47864,-0.0303 -1.058741,-0.0078 -1.289113,0.05004 -0.360761,0.09055 -0.411313,0.196048 -0.364467,0.760641 l 0.05439,0.655514 1.496236,0.05189 c 1.892284,0.06563 2.296125,0.357665 2.296125,1.660427 0,0.742762 -0.08156,0.938636 -0.611481,1.468559 -0.599845,0.599844 -0.639446,0.611481 -2.080869,0.611481 -1.468445,0 -1.469807,-4.29e-4 -2.122547,-0.668895 z"
         id="path2"
         style="fill:#002b5e;fill-opacity:1" /><path
         style="fill:#002b5e;fill-opacity:1"
         d="m 55.792969,61.949219 v 0.527343 c -0.392458,-0.271112 -0.824811,-0.454233 -1.28711,-0.488281 -0.563403,-0.04149 -1.213498,-0.01675 -2.080078,0 l -3.423828,0.06641 v 1.587891 c 0,0.348397 -0.08872,0.68774 0.269531,1.160156 0.124023,0.163545 0.282866,0.222964 0.433594,0.296875 -0.002,0.01117 -0.01382,0.02016 -0.01563,0.03125 -0.06163,0.378646 -0.07031,0.803184 -0.07031,1.4375 0,0.657617 -0.02245,1.013479 -0.03906,1.113282 -0.429968,0.321829 -0.576262,0.716318 -0.644531,1.091796 -0.07879,0.433349 -0.175904,0.939331 0.359375,1.47461 0.232156,0.232142 0.319783,0.210572 0.388672,0.232422 0.06889,0.02185 0.113798,0.0311 0.15625,0.03906 0.0849,0.01592 0.157816,0.02471 0.242187,0.0332 0.168742,0.01699 0.372604,0.02991 0.617188,0.04102 0.489167,0.02221 1.13058,0.03516 1.822265,0.03516 0.845675,0 1.482032,0.01145 2.035157,-0.04102 0.445479,-0.04226 0.857648,-0.237844 1.236328,-0.501954 v 0.542969 H 57.75 59.708984 v -1.958984 -0.15625 c 0.05392,9.67e-4 0.09489,0.0026 0.125,0.0039 -0.04231,-0.02084 0.05236,0.08968 0.289063,0.558594 0.261421,0.517874 0.374888,0.848824 0.77539,1.191406 0.200252,0.171291 0.479575,0.287393 0.699219,0.326172 0.219644,0.03878 0.387022,0.03516 0.564453,0.03516 0.175739,0 0.321305,0.0033 0.507813,-0.01758 0.04443,-0.005 0.122186,-0.06861 0.177734,-0.08008 v 0.09766 h 2.134766 1.216797 0.917968 2.363282 2.1875 1.09375 2.1875 2.363281 0.917969 2.980468 2.980469 0.917969 1.039062 1.958985 v -1.958984 -0.15625 c 0.05314,9.51e-4 0.09308,0.0026 0.123047,0.0039 -0.04247,-0.02113 0.05483,0.09274 0.294922,0.568359 0.26505,0.525064 0.363753,0.849314 0.77539,1.199219 0.205819,0.174953 0.513778,0.289338 0.742188,0.314453 0.22841,0.02512 0.389023,0.0059 0.554687,-0.0078 0.318403,-0.02644 0.637861,-0.01186 1.03125,-0.320313 0.241604,-0.189439 0.241863,-0.412151 0.306641,-0.634765 0.01697,0.01762 0.02551,0.0329 0.04297,0.05078 0.326522,0.334389 0.636576,0.661257 1.128906,0.816406 0.49233,0.155149 0.904363,0.125 1.638672,0.125 0.723133,0 1.132615,0.02291 1.609375,-0.117187 0.476759,-0.1401 0.802554,-0.452946 1.107422,-0.757813 0.28784,-0.287842 0.539543,-0.56183 0.699218,-0.945312 0.159676,-0.383483 0.175782,-0.755834 0.175782,-1.160157 0,-0.372188 -0.02169,-0.717401 -0.134766,-1.072265 -0.07153,-0.224492 -0.265768,-0.405694 -0.427734,-0.601563 0.04896,-0.03123 0.0679,0.01466 0.121093,-0.02734 0.258535,-0.204126 0.380977,-0.530056 0.414063,-0.72461 0.03309,-0.194553 0.02734,-0.325126 0.02734,-0.46875 0,-0.667297 -0.36499,-1.308934 -0.908204,-1.865234 -0.325887,-0.333755 -0.631614,-0.653277 -1.117187,-0.810547 -0.485573,-0.15727 -0.889798,-0.128906 -1.591797,-0.128906 -0.697356,0 -1.106551,-0.02352 -1.585937,0.126953 -0.479387,0.150473 -0.792148,0.458182 -1.125,0.783203 -0.151001,0.147448 -0.236742,0.322197 -0.361329,0.470703 -0.121999,-0.214847 -0.231183,-0.449069 -0.384765,-0.609375 l -0.738281,-0.771484 h -2.910157 -3.423828 v 0.08789 h -2.980469 -3.810546 v 1.605469 c 0,0.340921 -0.07146,0.630424 0.21875,1.085938 0.118668,0.186263 0.317069,0.299745 0.490234,0.386718 -0.01083,0.07689 -0.02657,0.147026 -0.03516,0.232422 -0.03621,0.360044 -0.05664,0.803881 -0.05664,1.283203 0,0.490177 -0.01421,0.609303 -0.02539,0.806641 -0.170625,-0.248069 -0.488058,-0.466379 -0.699218,-0.511719 -0.229533,-0.04928 -0.358426,-0.03711 -0.492188,-0.03711 -0.251388,0 -0.495971,0.0087 -0.798828,0.160156 -0.107827,0.05391 -0.126518,0.241826 -0.224609,0.357422 0.01861,-0.008 -0.0898,-2.75e-4 -0.19336,0.0078 v -1.027343 c 0,-0.777637 0.01892,-1.258839 0.04687,-1.46875 0.01398,-0.104956 0.03307,-0.134181 0.0078,-0.08008 -0.02526,0.0541 -0.136111,0.190009 -0.236328,0.246093 0.30782,-0.172261 0.53383,-0.505379 0.61914,-0.798828 0.08531,-0.293449 0.08264,-0.557473 0.05664,-0.830078 l -0.134766,-1.417969 h -2.052734 -2.134766 v 1.605469 c 0,0.32925 -0.0378,0.597617 0.173828,1.003906 0.07712,0.148061 0.229558,0.261206 0.371094,0.369141 -0.01782,0.106739 -0.03657,0.210023 -0.04883,0.332031 -0.0362,0.360301 -0.05469,0.805307 -0.05469,1.285156 0,0.29332 -0.01459,0.357924 -0.02148,0.550782 -0.132286,-0.08681 -0.24357,-0.235045 -0.349609,-0.257813 -0.229533,-0.04928 -0.360379,-0.03711 -0.494141,-0.03711 -0.251388,0 -0.495971,0.0087 -0.798828,0.160156 -0.107656,0.05383 -0.12468,0.242079 -0.222656,0.357422 0.02027,-0.0084 -0.09071,-3.56e-4 -0.195313,0.0078 v -1.027343 c 0,-0.527307 0.02059,-1.001735 0.04883,-1.328125 0.01412,-0.163196 0.03054,-0.292199 0.04102,-0.345703 0.0052,-0.02675 0.01084,-0.03671 -0.0039,0.0039 -0.01475,0.04061 0.03557,0.168832 -0.335938,0.398437 0.32197,-0.19898 0.363888,-0.37546 0.419922,-0.503906 0.05603,-0.128446 0.08652,-0.238469 0.111328,-0.351562 0.04961,-0.226187 0.07227,-0.4614 0.07227,-0.714844 V 61.949193 H 68.324211 67.117179 66.11132 64.982414 62.847648 v 0.574218 L 62.396484,61.949219 H 59.326172 Z M 57.951172,63.75 h 0.953125 c -0.145187,0.04009 -0.269674,0.0023 -0.439453,0.128906 -0.09518,0.07098 -0.128133,0.176074 -0.197266,0.271485 -0.01569,-0.05262 0.01793,-0.0877 -0.0078,-0.140625 -0.07158,-0.147162 -0.198587,-0.16954 -0.308594,-0.259766 z m 3.240234,0 h 0.330078 l 0.0957,0.121094 c 0.03992,0.05075 0.02296,0.216091 0.04687,0.261718 -0.10081,-0.118717 -0.192955,-0.256098 -0.302734,-0.318359 -0.06776,-0.03843 -0.111423,-0.04145 -0.169922,-0.06445 z m 3.626953,0 h 0.164063 0.316406 c -0.005,0.04077 -0.0063,0.100264 -0.01172,0.125 -0.0072,0.03266 -0.01582,0.04935 -0.002,0.01758 0.0064,-0.01468 0.102965,-0.09691 0.13086,-0.142578 h 0.02148 c -0.124847,0.138495 -0.257896,0.288919 -0.285156,0.365234 -2.58e-4,7.22e-4 2.56e-4,0.0012 0,0.002 C 65.05654,63.96228 64.949607,63.829168 64.818359,63.75 Z m 3.427735,0 h 0.07813 0.326172 c -0.0051,0.0408 -0.0063,0.100252 -0.01172,0.125 -0.0072,0.03266 -0.01582,0.04936 -0.002,0.01758 0.0064,-0.01469 0.102959,-0.09691 0.130859,-0.142578 h 0.02148 c -0.09932,0.111404 -0.215573,0.223397 -0.232421,0.291016 -0.11543,-0.125513 -0.219511,-0.259378 -0.3105,-0.291018 z m 20.957031,0 h 0.552734 l 0.208985,0.216797 c 0.165123,0.172351 0.160281,0.179851 0.177734,0.236328 0.0055,0.01768 0.0074,0.162953 0.01367,0.210937 C 90.052031,64.210276 89.961966,63.988653 89.775391,63.863281 89.584977,63.73533 89.384198,63.797082 89.203125,63.75 Z M 54.25,63.785156 c 0.02743,0.0015 0.09765,-0.0019 0.123047,0 0.395061,0.0291 0.44978,0.09458 0.421875,0.06641 -0.0279,-0.02817 0.04767,0.04817 0.08398,0.460938 0.01389,0.157847 0.0071,0.525823 0.01172,0.755859 -0.05536,-0.294581 0.0086,-0.669839 -0.167969,-0.941406 C 54.61575,63.962496 54.41609,63.901625 54.25,63.785156 Z m 19.652344,0.05273 h 0.324218 c -0.05333,0.06422 -0.12434,0.108651 -0.162109,0.175781 -0.05211,-0.06617 -0.104695,-0.12949 -0.162109,-0.175781 z m 5.607422,0 h 0.220703 l -0.0078,0.111328 c -0.07073,-0.05947 -0.141344,-0.07738 -0.21289,-0.111328 z m 3.449218,0 h 0.3125 l 0.002,0.03906 c -0.06772,-0.007 -0.191223,-0.01482 -0.1875,-0.01367 0.0046,0.0014 0.111884,0.121705 0.199219,0.212891 l 0.002,0.0293 c -0.07315,-0.123813 -0.207815,-0.168439 -0.328125,-0.267578 z m 2.171875,0.261718 c -0.02693,0.02235 -0.013,0.0549 -0.03711,0.07813 l -0.002,-0.01953 c 0.01171,-0.01248 0.03947,-0.05894 0.03906,-0.05859 z m -21.326172,0.01172 c -0.157164,0.09713 -0.118774,0.138536 -0.171875,0.212891 0.0018,-0.0037 -0.0019,-0.01212 0,-0.01563 0.07302,-0.137674 0.147371,-0.182121 0.171875,-0.197266 z m 8.996094,0 c -0.154161,0.09528 -0.116612,0.135608 -0.169922,0.208984 0.0012,-0.0023 -0.0012,-0.0075 0,-0.0098 0.08108,-0.151761 0.15514,-0.190083 0.169922,-0.199219 z m -6.060547,0.732422 c 4.39e-4,3.97e-4 0.0015,-3.97e-4 0.002,0 -0.01654,0.06677 0.01918,0.118401 -0.228515,0.271484 0.173562,-0.107274 0.169596,-0.181569 0.226562,-0.271484 z m -13.666015,0.345703 c 0.0632,1.11e-4 0.117482,-9.07e-4 0.146484,0.002 -0.0049,0.02207 0.101563,0.367049 0.101563,1.177735 0,0.430488 -0.01949,0.777263 -0.04687,1.019531 -0.08391,0.01059 -0.164522,0.02055 -0.257813,0.02344 l 0.02734,-1.05664 z m 15.27539,0.240234 c -3.05e-4,0.0062 3e-4,0.01327 0,0.01953 -0.0156,0.02611 8.5e-4,-0.01621 -0.03516,0.01367 0.01048,-0.0087 0.02478,-0.02471 0.03516,-0.0332 z m 17.958985,0.01953 v 0.02539 c -0.02101,0.02628 0.0168,-0.02687 -0.02734,0.0098 0.01036,-0.0086 0.01705,-0.02629 0.02734,-0.03516 z m -2.611328,0.240234 h 0.890625 c -0.01923,0.29177 -0.04492,0.549741 -0.04492,0.974609 0,0.171445 -0.01129,0.253332 -0.01563,0.400391 H 83.53125 c 0.02362,-0.207901 0.117108,-0.419955 0.130859,-0.683594 z m -25.6875,0.140625 c 0.05917,0.247456 0.140774,0.531805 0.376953,0.728516 0.122963,0.102414 0.234448,0.09786 0.351562,0.152343 h -0.789062 c 0.0092,-0.62479 0.03402,-0.70639 0.06055,-0.880859 z m 21.835937,0.154297 c 0.07546,0.154004 0.152777,0.307913 0.302734,0.441406 -0.133243,0.09902 -0.261737,0.207873 -0.335937,0.333985 -8.7e-5,-0.05716 0.0059,-0.06728 0.0059,-0.128907 0,-0.250084 0.01622,-0.433972 0.02734,-0.646484 z m 2.019531,0.277344 -0.002,0.02539 c -0.01208,0.231649 0.02014,0.122229 0.0039,0.216797 -0.02661,-0.0019 -0.06197,0.0011 -0.08008,-0.002 -0.02479,-0.0042 0.06781,0.06218 0.08008,0.06055 -8.15e-4,0.0082 0.0013,0.03141 0.002,0.03516 -0.09905,-0.08925 -0.206642,-0.06797 -0.298829,-0.11914 0.103127,-0.07057 0.216946,-0.12931 0.294922,-0.216797 z m -18.658203,0.228515 c -6.14e-4,0.05939 -0.0059,0.101503 -0.0059,0.16211 0,0.377794 -0.01762,0.644068 -0.03516,0.882812 -0.05737,-0.07995 -0.140307,-0.205458 -0.214844,-0.351562 l -0.07813,-0.15625 0.01172,-0.01367 c 0.129215,-0.13487 0.212282,-0.343969 0.322265,-0.523438 z m 28.265625,0.214844 c 0.09123,0.142823 0.160338,0.304215 0.267578,0.421875 -0.12105,0.07 -0.162875,0.245195 -0.271484,0.376953 -0.08498,-0.123198 -0.201207,-0.282594 -0.25,-0.40039 -0.09881,-0.238559 -0.03531,-0.196804 -0.07813,-0.0059 -0.04282,0.190945 -0.07288,0.140389 0.130859,-0.07227 0.08034,-0.08386 0.125266,-0.220551 0.201172,-0.320313 z m -2.066406,0.132813 c -0.01773,0.176119 0.03265,0.296224 0.06836,0.4375 -0.06209,-0.06709 -0.06986,-0.166186 -0.152343,-0.232422 -0.129021,-0.103609 -0.281011,-0.127395 -0.431641,-0.179688 z m -28.644531,0.01367 0.08008,0.15625 c -0.109586,-0.0746 -0.223855,-0.100448 -0.34375,-0.142578 z m 4.224609,0.15625 c 0.0075,0.268114 0.0072,0.559428 0.02539,0.783204 0.01634,0.200623 0.0354,0.371506 0.07227,0.546875 0.01843,0.08768 0.03378,0.173145 0.09766,0.3125 0.02048,0.04468 0.07462,0.11449 0.11914,0.177734 h -0.318359 -0.316406 c 0.0017,-0.01219 0.0025,-0.03677 0.0039,-0.04492 0.0089,-0.01383 0.05958,-0.02751 0.06641,-0.03906 0.08326,-0.140958 0.106301,-0.227798 0.128906,-0.310547 0.04521,-0.165499 0.06374,-0.309765 0.08203,-0.482422 0.02657,-0.250815 0.03211,-0.600101 0.03906,-0.94336 z m -2.292969,0.410157 c 0.446754,0 0.449287,0.125343 0.470703,0.166015 -0.0023,0.02937 -0.0034,0.08701 -0.0059,0.113282 -0.136453,-0.121138 -0.176008,-0.279297 -0.464844,-0.279297 z m 1.230469,0 c -0.377945,0 -0.487886,0.204913 -0.619141,0.365234 -0.0037,-0.0045 -0.01374,-0.0052 -0.01758,-0.0098 0.08833,-0.127748 0.232919,-0.355468 0.636719,-0.355468 z m 2.117188,0 c 0.222032,0 0.348967,0.109336 0.470703,0.199218 -0.0018,0.02108 -0.0021,0.05621 -0.0039,0.07617 -0.13712,-0.119967 -0.181817,-0.27539 -0.466796,-0.27539 z m 19.226562,0 c -0.09669,0 -0.08031,0.07322 -0.158203,0.09375 v -0.0059 c 0.07744,-0.02339 0.05848,-0.08789 0.158203,-0.08789 z m -14.982422,0.02734 c -0.07223,0.09127 -0.121367,0.164605 -0.169922,0.271485 v -0.148438 c 0.07158,-0.06871 0.127235,-0.104984 0.169922,-0.123047 z m 5.466797,0.002 c -0.07107,0.09012 -0.119894,0.162298 -0.167969,0.267578 v -0.146485 c 0.07065,-0.06782 0.125206,-0.102809 0.167969,-0.121093 z m -7.435547,0.002 v 1.378906 h -0.287109 c 0.01509,-0.04145 0.107072,-0.115919 0.11914,-0.146484 0.04046,-0.102463 0.05736,-0.17882 0.07422,-0.25586 0.03372,-0.15408 0.05416,-0.31029 0.07227,-0.490234 0.01373,-0.136396 0.01261,-0.32833 0.02148,-0.486328 z m 17.992188,0.04492 v 1.175781 0.158203 h -0.160157 -0.140625 c 0.0017,-0.01166 0.0025,-0.03499 0.0039,-0.04297 0.009,-0.01385 0.05953,-0.02748 0.06641,-0.03906 0.08368,-0.140924 0.10619,-0.227869 0.128906,-0.310547 0.04543,-0.165357 0.0637,-0.308601 0.08203,-0.480469 0.01309,-0.122725 0.0113,-0.315673 0.01953,-0.460937 z m -7.970703,0.0039 c -0.08396,0.02196 -0.157631,0.150378 -0.253907,0.203125 -0.0019,-0.005 -2.4e-5,-0.0086 -0.002,-0.01367 0.01579,-0.02206 0.0026,-0.01743 0.02539,-0.04102 0.114278,-0.118441 0.247927,-0.153002 0.230469,-0.148437 z m -20.429688,0.05664 V 68.669997 68.8282 H 57.75 57.626953 c 0.01443,-0.03705 0.09771,-0.102707 0.109375,-0.130859 0.0422,-0.101876 0.06066,-0.176456 0.07813,-0.251954 0.03494,-0.150994 0.05584,-0.301034 0.07422,-0.472656 0.01267,-0.118284 0.01095,-0.283376 0.01953,-0.417969 z m 22.785156,0.353516 c 0.06551,0.06551 0.09146,0.026 0.148438,0.06836 -0.0028,3.9e-5 -0.01759,0.0059 -0.01953,0.0059 -0.117969,0 0.05821,0.112898 -0.128907,-0.07422 z m -29.498047,0.369141 -0.01367,0.52539 c -0.109055,-0.0035 -0.267851,-0.0036 -0.363282,-0.0078 0.153913,-0.156904 0.283391,-0.307531 0.376953,-0.517578 z m 3.664063,0.07422 c -0.03617,0.219783 -0.08691,0.388541 -0.06836,0.369141 0.0094,-0.0098 -0.13096,0.01875 -0.160157,0.0293 0.0081,-0.0079 0.0093,4.58e-4 0.01758,-0.0078 0.17394,-0.173939 0.174459,-0.274935 0.210938,-0.390625 z m 24.746094,0.136719 v 0.339844 h -0.169922 c 0.09251,-0.111713 0.124423,-0.223243 0.169922,-0.339844 z m -5.822266,0.103516 v 0.236328 h -0.193359 c 0.04839,-0.05936 0.137307,-0.09385 0.167968,-0.152344 0.01603,-0.03058 0.01231,-0.05458 0.02539,-0.08398 z m -9.134766,0.203125 c -0.0056,0.01334 0.0013,7.79e-4 -0.01758,0.0332 h -0.03906 c 0.0098,-0.01344 0.04843,-0.0209 0.05664,-0.0332 z m 21.341797,0.002 c -0.0058,0.01345 0.0021,8.47e-4 -0.01563,0.03125 h -0.0371 c 0.0092,-0.01249 0.04501,-0.01975 0.05273,-0.03125 z m -28.398437,0.07422 v 0.03711 c -0.01732,0.04309 -0.03175,0.128779 -0.25,0.263672 0.216365,-0.133731 0.207255,-0.209388 0.25,-0.300782 z m -6.949219,0.167968 c -0.0055,0.0019 0.05591,0.103658 0.06445,0.05664 0.01849,-0.101694 0.167604,-0.136791 -0.117187,0.01563 0.01922,-0.01029 0.03249,-0.05883 0.05273,-0.07227 z m 13.416016,0.09961 0.002,0.002 c -0.07072,0.01891 -0.0461,0.07617 -0.136719,0.07617 0.0817,0 0.06669,-0.06226 0.134766,-0.07813 z m 21.34375,0 0.002,0.0039 c -0.07041,0.01871 -0.04664,0.07422 -0.136719,0.07422 0.08155,0 0.06676,-0.06227 0.134766,-0.07813 z m -16.910157,3.394531 v 1.339844 c 0,0.246476 0.03064,0.506146 0.199219,0.787109 0.03446,0.05743 0.144817,0.05874 0.197266,0.113281 -0.05783,0.217486 -0.140942,0.526106 -0.41211,1.386719 l -0.363281,1.150391 c -0.355683,-0.04152 -1.095383,-0.221665 -1.955078,-0.533203 -0.905114,-0.327997 -1.929399,-0.769921 -2.835937,-1.238282 -0.513122,-0.265102 -0.977335,-0.487703 -1.337891,-0.640625 -0.180278,-0.07646 -0.328067,-0.133555 -0.482422,-0.179687 -0.07718,-0.02307 -0.142317,-0.04776 -0.302734,-0.05859 -0.08021,-0.0054 -0.185245,-0.02728 -0.41211,0.06055 -0.226864,0.08783 -0.585937,0.514185 -0.585937,0.851563 0,0.300974 0.07269,0.373863 0.111328,0.451171 0.03864,0.07731 0.07291,0.128923 0.107422,0.179688 0.06903,0.101529 0.142088,0.192962 0.226562,0.292969 0.168948,0.200012 0.381001,0.424749 0.617188,0.654297 1.09375,1.063003 3.30132,2.208982 5.480469,3.027343 0.301635,0.113277 0.376889,0.157187 0.517578,0.222657 -0.0072,0.03191 -0.01159,0.04297 -0.01953,0.07813 -0.06445,0.285214 -0.141508,0.634307 -0.214843,0.978515 -0.06308,0.296066 -0.120487,0.57158 -0.169922,0.816406 -0.248034,9.57e-4 -0.496072,-0.01863 -0.814453,0.1875 -0.386252,0.250077 -0.526252,0.684168 -0.576172,0.945313 -0.02262,0.118312 -0.04454,0.235393 -0.04297,0.402344 0.0016,0.166951 0.03569,0.427577 0.216797,0.667968 0.122452,0.16254 0.276559,0.204824 0.423828,0.269532 -0.0098,0.04461 -0.01474,0.06735 -0.02539,0.115234 -0.110816,0.498151 -0.264405,1.167698 -0.433593,1.884766 -0.306855,1.300533 -0.549309,2.325392 -0.642578,2.726562 -0.303283,-8.4e-4 -0.577405,-0.01535 -0.9375,0.166016 -0.374303,0.188521 -0.612446,0.62513 -0.683594,0.890625 -0.11733,0.437815 -0.247054,0.773014 -0.07227,1.310547 0.0874,0.268766 0.334688,0.563495 0.595703,0.693359 0.04529,0.02253 0.07412,0.0093 0.117188,0.02539 -0.05755,0.441147 -0.233047,1.297268 -0.648438,3.101562 -0.368654,1.601294 -0.567241,2.425591 -0.724609,2.855469 -0.157368,0.429878 -0.225393,0.484948 -0.587891,0.892578 -1.076207,1.210211 -1.827765,2.747581 -1.949218,4.191411 l -0.07617,0.89062 1.646484,0.57422 0.716797,-1.07226 c 1.422334,-2.13106 3.245232,-3.3502 5.410156,-3.75391 2.164925,-0.403709 4.716908,0.0307 7.515625,1.4336 l 2.517578,1.26171 1.035157,-1.20898 c 1.179021,-1.37742 3.899778,-2.751882 6.037109,-2.972661 0.429885,-0.04441 0.760352,-0.09347 1.0625,-0.183594 0.151074,-0.04506 0.296488,-0.09322 0.478516,-0.220703 0.182027,-0.12748 0.457031,-0.437264 0.457031,-0.845703 0,-0.406979 -0.181183,-0.646375 -0.34961,-0.820312 -0.159678,-0.164903 -0.348127,-0.276406 -0.572265,-0.353516 -6.58e-4,-0.01128 -0.06865,-0.16643 -0.113281,-0.625 -0.09706,-0.997352 -0.111328,-3.064183 -0.111329,-6.984375 v -6.716797 l -0.123046,0.03125 c 0.232315,-0.0603 0.444253,-0.14652 0.642578,-0.25 0.198324,-0.103479 0.370299,-0.185485 0.585937,-0.445312 0.07806,-0.09406 0.193308,-0.196509 0.265625,-0.5 0.07232,-0.303492 -0.129551,-0.829405 -0.351562,-1.00586 -0.444022,-0.352909 -0.61398,-0.272936 -0.919922,-0.324219 -1.390899,-0.233134 -2.342209,-0.640856 -2.708985,-0.96289 -0.204293,-0.179372 -0.505941,-0.550277 -0.716796,-0.892578 -0.210855,-0.342302 -0.289063,-0.780647 -0.289063,-0.5625 0,-0.30576 -0.06969,-0.44458 -0.138672,-0.609375 -0.06898,-0.164796 -0.153922,-0.320411 -0.269531,-0.478516 -0.07061,-0.09656 -0.172445,-0.257179 -0.421875,-0.40625 -0.24943,-0.14907 -0.591408,-0.182122 -0.814453,-0.148437 -0.44609,0.06737 -0.72431,0.224263 -1.3125,0.482421 -1.229537,0.539648 -3.893652,1.330844 -4.800781,1.46875 l -0.263672,-0.984375 c -0.131058,-0.488739 -0.262032,-0.963064 -0.369141,-1.339843 -0.02465,-0.08672 -0.03499,-0.113362 -0.05469,-0.183594 0.07366,-0.05121 0.151925,-0.01714 0.214843,-0.0918 0.286831,-0.340331 0.292969,-0.676193 0.292969,-0.925781 v -1.339844 h -2.841797 z m 0.751954,2.445313 c 0.153127,0.07899 0.247389,0.236328 0.412109,0.236328 0.09717,0 -0.01541,0.118204 -0.373047,-0.169922 -0.02418,-0.01948 -0.018,-0.04402 -0.03906,-0.06641 z m 11.066406,2.111328 c 0,0.01046 0.0077,0.01313 0.0078,0.02344 -0.0041,-0.0036 -0.0048,-0.0029 -0.0078,-0.0059 -9.88e-4,-0.01886 0,0.01818 0,-0.01758 z m 0.09961,0.269531 c 0.07205,0.474744 0.22031,0.848865 0.458985,1.236328 0.290679,0.471888 0.644354,0.937312 1.060546,1.302734 0.509376,0.447239 1.208543,0.742181 1.996094,0.984375 v 7.835938 c 0,3.922823 0.0041,5.955604 0.121094,7.158203 0.04852,0.498542 0.150908,0.838504 0.306641,1.183594 -1.179841,0.162437 -2.387831,0.505667 -3.50586,1.039062 0.0048,-0.0022 0.01284,-0.0056 0.01758,-0.0078 0.135037,-0.06304 0.249178,-0.11731 0.341797,-0.164063 0.04631,-0.02338 0.08557,-0.04399 0.128906,-0.06836 0.04333,-0.02437 0.03032,0.03218 0.240235,-0.177734 4.3e-4,-4.31e-4 0.147415,-0.18965 0.173828,-0.244141 0.02641,-0.05449 0.03956,-0.09051 0.04883,-0.119141 0.01854,-0.05725 0.02422,-0.08773 0.0293,-0.113281 0.01016,-0.05111 0.01216,-0.07978 0.01563,-0.109375 0.0069,-0.0592 0.01092,-0.114034 0.01563,-0.181641 0.0094,-0.135212 0.01956,-0.312527 0.0293,-0.535156 0.01947,-0.445257 0.04044,-1.066122 0.0625,-1.808594 0.04411,-1.484942 0.09219,-3.451889 0.132812,-5.423828 0.04062,-1.971938 0.07441,-3.94887 0.0918,-5.449218 0.0087,-0.750175 0.0126,-1.37945 0.01172,-1.835938 -4.4e-4,-0.228244 -0.0022,-0.412212 -0.0059,-0.552734 -0.0018,-0.07026 -0.004,-0.129394 -0.0078,-0.1875 -0.0019,-0.02905 -0.0046,-0.05672 -0.0098,-0.09766 -0.0052,-0.04094 0.02642,-0.04728 -0.07227,-0.271484 -0.137459,-0.31227 -0.195788,-0.303918 -0.273438,-0.384766 -0.07765,-0.08085 -0.161828,-0.158198 -0.257812,-0.24414 -0.191969,-0.171885 -0.42942,-0.36801 -0.681641,-0.560547 l -1.109375,-0.847656 -2.90625,0.11914 c -0.531458,0.02153 -0.963046,0.05311 -1.390625,0.08398 1.387465,-0.308245 3.179918,-0.80246 4.404297,-1.339844 0.360017,-0.158012 0.396668,-0.167499 0.533203,-0.21875 z m -7.492187,1.628906 0.06641,0.248047 h -0.958984 c 0.0149,-0.0012 0.03821,-7.15e-4 0.05273,-0.002 0.139075,-0.01185 0.255849,-0.02297 0.384766,-0.04883 0.06446,-0.01293 0.128702,-0.0237 0.246093,-0.07227 0.04871,-0.02015 0.122394,-0.06147 0.208985,-0.125 z m -3.478516,0.107422 c 0.08054,0.03305 0.151374,0.05966 0.205078,0.07227 0.137916,0.03238 0.258134,0.04636 0.400391,0.06055 0.05158,0.0051 0.129777,0.0036 0.185547,0.0078 h -0.835938 -0.634765 c -0.01835,-0.01619 -0.03433,-0.04011 -0.05273,-0.05469 l 0.6875,0.05469 z m 4.240234,0.224609 c -0.02651,0.01735 -0.04682,0.03332 -0.07813,0.06445 l -0.01172,-0.05078 z m 5.513672,1.220704 0.59375,0.453125 c 0.216553,0.165309 0.42564,0.337464 0.572266,0.46875 0.01146,0.01026 0.01471,0.01369 0.02539,0.02344 0.0017,0.10711 0.0016,0.213218 0.002,0.376953 8.51e-4,0.44116 -0.0031,1.068709 -0.01172,1.814453 -0.01728,1.491488 -0.05126,3.463806 -0.0918,5.431641 -0.04054,1.967835 -0.08701,3.932297 -0.130859,5.408203 -0.02192,0.737953 -0.04373,1.354054 -0.0625,1.783203 -0.0033,0.07469 -0.0067,0.107044 -0.0098,0.169922 -0.247919,0.115462 -0.576915,0.264825 -0.933594,0.419922 -0.22532,0.09798 -0.404231,0.169646 -0.599609,0.25 -0.101527,-0.475864 -0.224448,-1.095146 -0.490234,-2.529297 -0.137721,-0.743124 -0.252634,-1.432972 -0.328125,-1.9375 -0.0036,-0.02415 -0.0044,-0.03334 -0.0078,-0.05664 0.162211,-0.03602 0.385446,-0.09822 0.580078,-0.322265 0.211826,-0.243837 0.259818,-0.558417 0.253906,-0.740235 -0.0059,-0.181817 -0.03838,-0.296321 -0.06836,-0.408203 -0.04158,-0.155161 -0.07926,-0.498825 -0.07813,-0.392578 -0.0033,-0.301754 -0.164107,-0.579941 -0.318359,-0.728515 -0.154253,-0.148575 -0.297936,-0.214959 -0.427735,-0.263672 -0.259596,-0.09743 -0.489261,-0.119141 -0.740234,-0.119141 h 0.146484 l -0.939453,-4.507812 c -0.298381,-1.431784 -0.560921,-2.747218 -0.742187,-3.708985 -0.05501,-0.291858 -0.08635,-0.474639 -0.125,-0.693359 0.452329,-0.03754 1.025828,-0.07336 1.673828,-0.09961 z m -8.560547,1.199218 h 0.41211 0.392578 l 0.04687,0.199219 c 0.008,0.03476 0.01174,0.06119 0.01953,0.0957 -0.18146,0.0081 -0.321098,0.02344 -0.535156,0.02344 -0.260539,0 -0.24085,-0.0065 -0.417969,-0.01172 0.0236,-0.09006 0.03951,-0.141504 0.0625,-0.230469 z m 0.347657,6.816407 0.77539,0.771484 c 0.0459,0.04563 0.0724,0.07613 0.117188,0.121094 -0.308048,0.0058 -0.54262,0.01758 -0.892578,0.01758 -0.350373,0 -0.586184,-0.0118 -0.894532,-0.01758 0.04483,-0.045 0.07125,-0.07542 0.117188,-0.121094 z m -5.367188,2.599609 -0.05273,0.208984 c -0.02894,-0.03967 0.0071,-0.07349 -0.0293,-0.113281 -0.03318,-0.03626 -0.07268,-0.03047 -0.109375,-0.06055 0.06083,-0.0051 0.127834,-0.02208 0.191406,-0.03516 z m 5.189453,2.050781 c 0.01838,0 0.02858,-1.7e-5 0.04687,0 -0.03385,0.01829 -0.05001,0.02731 -0.08008,0.04297 -0.02849,-0.01549 -0.04433,-0.02317 -0.07617,-0.04102 0.04248,-9.2e-5 0.06643,-0.002 0.109375,-0.002 z m 3.394532,0.783203 c 0.09912,0.402343 0.207384,0.846394 0.318359,1.328125 0.02922,0.126828 0.04777,0.222413 0.07617,0.347657 -0.128827,-0.0821 -0.214273,-0.133537 -0.34961,-0.220704 -0.440251,-0.283553 -0.797689,-0.531473 -1.130859,-0.763671 0.177145,-0.119766 0.327217,-0.227696 0.521484,-0.351563 0.204769,-0.130562 0.373902,-0.225891 0.564454,-0.339844 z m -6.556641,0.123047 c 0.180575,0.110907 0.351586,0.211365 0.542969,0.337891 0.124371,0.08222 0.211773,0.149892 0.328125,0.230469 -0.24485,0.170678 -0.474135,0.333309 -0.78125,0.529296 -0.284144,0.181329 -0.295586,0.18452 -0.515625,0.324219 0.0387,-0.138167 0.06745,-0.256576 0.107422,-0.394531 0.111867,-0.386054 0.216842,-0.712161 0.318359,-1.027344 z m 3.068359,2.101563 c 0.06839,0.03341 0.114047,0.05203 0.201172,0.09766 0.315705,0.165347 0.7451,0.411171 1.177735,0.666016 -0.732096,-0.01355 -1.506048,-0.03157 -2.5,-0.07227 0.275576,-0.173245 0.577216,-0.365481 0.794921,-0.498047 0.132328,-0.08058 0.227893,-0.135437 0.326172,-0.193359 z m 14.511719,1.691406 c 0.05057,0.02119 0.115009,0.104098 0.15625,0.117187 -0.0628,-0.01993 -0.0957,-0.0374 -0.146484,-0.08984 -0.0032,-0.0033 -0.0061,-0.02362 -0.0098,-0.02734 z m -4.621094,0.304687 c -1.227184,0.620149 -2.33932,1.419014 -3.130859,2.343748 l -0.119141,0.13867 -1.257812,-0.63086 c -0.513719,-0.257511 -0.999096,-0.321512 -1.50586,-0.523433 0.173857,-0.0015 0.455523,-2.71e-4 0.613282,-0.002 0.553916,-0.0059 1.003104,-0.01353 1.320312,-0.02148 0.158604,-0.004 0.283707,-0.0067 0.38086,-0.01172 0.04858,-0.0025 0.08696,-0.0044 0.138671,-0.0098 0.02586,-0.0027 0.0493,-0.0042 0.113282,-0.01758 0.03199,-0.0067 0.07025,-0.01118 0.169922,-0.05273 0.02492,-0.01039 0.09155,-0.04478 0.0918,-0.04492 2.5e-4,-1.38e-4 0.138506,-0.09556 0.138672,-0.0957 1.16e-4,-9.6e-5 0.07701,-0.09073 0.134766,-0.158203 0.125953,0.0347 0.271288,0.07813 0.322266,0.07813 0.261222,0 0.250798,-0.03141 0.304687,-0.04687 0.05389,-0.01546 0.09985,-0.03057 0.152344,-0.04883 0.104979,-0.03652 0.228587,-0.08265 0.371094,-0.138672 0.285013,-0.11204 0.646661,-0.262199 1.027343,-0.427734 0.277886,-0.120836 0.506818,-0.226221 0.734375,-0.330079 z m -16.34375,0.990235 c 0.04821,0.03602 0.105361,0.08602 0.138672,0.103515 0.114901,0.06036 0.168785,0.06999 0.214844,0.08203 0.09212,0.02409 0.143856,0.02945 0.203125,0.03711 0.07827,0.01011 0.175947,0.01645 0.269531,0.02344 -0.447915,0.218694 -0.946812,0.310203 -1.361328,0.599618 0.189968,-0.258105 0.397208,-0.493386 0.535156,-0.845713 z"
         id="path3" /></g><path
       style="fill:#b8c4ca;stroke-width:2.10746;fill-opacity:1"
       d="m 26.17979,95.338181 c 0.205372,-2.44145 1.634287,-5.478482 3.637431,-7.731035 1.559698,-1.753895 1.642852,-1.981046 3.197936,-8.735736 1.91749,-8.32884 1.940011,-8.607819 0.694896,-8.607819 -0.973198,0 -1.134729,-0.496756 -0.695036,-2.137469 0.183413,-0.684412 0.48518,-0.836397 1.660643,-0.836397 1.185111,0 1.470021,-0.146366 1.628078,-0.836401 0.105365,-0.46002 0.777676,-3.320429 1.494017,-6.356468 0.716338,-3.036037 1.302432,-5.670698 1.302432,-5.854801 0,-0.18411 -0.395003,-0.334733 -0.877784,-0.334733 -0.735854,0 -0.84906,-0.150263 -0.700133,-0.929333 0.147799,-0.77317 0.389,-0.929332 1.435386,-0.929332 0.691751,0 1.257732,-0.07271 1.257732,-0.16156 0,-0.2858 1.127707,-5.578822 1.323781,-6.213316 0.147459,-0.477177 -0.410667,-0.838377 -2.518772,-1.630058 -4.401624,-1.652995 -9.115023,-4.232824 -10.896176,-5.963908 -0.914634,-0.888922 -1.662969,-1.774856 -1.662969,-1.968744 0,-0.193885 1.714619,0.533333 3.810268,1.616044 3.988246,2.060518 8.86465,3.82764 11.033735,3.998429 l 1.275733,0.100432 1.229842,-3.903202 c 1.421088,-4.510155 1.41357,-4.460798 0.679491,-4.460798 -0.346951,0 -0.557599,-0.351084 -0.557599,-0.929336 v -0.929329 h 4.089066 4.089069 v 0.929333 c 0,0.697244 -0.195615,0.929336 -0.783238,0.929336 -0.56911,0 -0.720095,0.16455 -0.552268,0.601903 0.127036,0.331045 0.679105,2.273074 1.22682,4.315612 l 0.995849,3.713711 1.508018,-0.209103 c 2.31889,-0.321542 7.881996,-2.018118 10.761403,-3.281898 2.461943,-1.080553 2.613793,-1.103487 3.080506,-0.465219 0.270003,0.369248 0.490912,0.896973 0.490912,1.172721 0,0.974706 1.460105,3.345036 2.767756,4.493169 1.261447,1.107565 3.533159,1.953749 6.645799,2.475473 1.185875,0.198776 1.347455,0.327194 0.975519,0.77535 -0.245174,0.295416 -0.968395,0.67277 -1.607157,0.838566 l -1.161384,0.301443 v 15.626154 c 0,16.528878 0.07248,17.273676 1.73232,17.800488 0.376171,0.119388 0.683948,0.437237 0.683948,0.70632 0,0.330584 -0.813726,0.573301 -2.5092,0.748437 -5.075221,0.524253 -11.015513,3.465926 -13.970682,6.918376 L 61.180483,91.413284 57.20208,89.418999 C 44.859212,83.23179 34.003176,85.256177 27.532055,94.951735 l -1.510081,2.262529 z M 59.917257,84.624506 c 0,-0.218694 -2.989688,-13.3643 -3.202676,-14.082116 -0.177154,-0.597019 -0.956106,-0.650531 -9.469279,-0.650531 -9.26723,0 -9.276598,8.14e-4 -9.629844,0.836401 -0.355769,0.841561 -3.347806,13.088774 -3.347806,13.703476 0,0.185099 5.619862,0.329458 12.824803,0.329458 7.05364,0 12.824802,-0.06152 12.824802,-0.136682 z m -17.25282,-1.703814 -4.428018,-0.204023 3.891144,-2.49316 c 2.140129,-1.371236 4.132736,-2.584581 4.428016,-2.696321 0.455819,-0.172497 7.964298,4.290075 9.057325,5.3831 0.384077,0.384077 -4.749304,0.388206 -12.948467,0.01035 z m 10.460426,-3.33323 c -2.40687,-1.550193 -4.407544,-2.985816 -4.44594,-3.19027 -0.0741,-0.394538 6.328038,-4.476606 6.597813,-4.206833 0.213168,0.213171 2.475879,10.035365 2.335059,10.136257 -0.06095,0.04367 -2.080062,-1.188957 -4.486932,-2.739154 z m -16.626809,2.389053 c 0,-1.115132 2.42302,-9.476995 2.741087,-9.459513 0.676678,0.03719 5.874343,3.473437 5.869173,3.88019 -0.0024,0.204446 -1.648229,1.42055 -3.656959,2.702433 -4.530435,2.89113 -4.953301,3.136731 -4.953301,2.87689 z m 7.175464,-8.304162 c -1.471511,-0.954777 -2.68429,-1.861422 -2.695068,-2.01476 -0.01077,-0.15334 2.656883,-0.278801 5.928138,-0.278801 3.271255,0 5.938767,0.125461 5.927811,0.278801 -0.02818,0.394275 -5.492299,3.816526 -6.03611,3.780497 -0.247114,-0.01644 -1.653263,-0.810955 -3.124771,-1.765737 z m 21.572183,9.105918 c 1.567709,-0.681699 2.927343,-1.316421 3.021413,-1.410489 0.232081,-0.232082 0.908758,-33.081126 0.691619,-33.574432 -0.09474,-0.215249 -0.980568,-1.008393 -1.968491,-1.762544 l -1.79622,-1.371182 -5.439896,0.220411 c -2.991943,0.121225 -5.51554,0.342805 -5.607992,0.492396 -0.09247,0.149587 0.864275,5.225819 2.126063,11.280507 l 2.294157,11.008518 h 1.233052 c 0.735911,0 1.235098,0.187355 1.238127,0.464666 0.0027,0.255569 0.105945,0.841049 0.229223,1.301069 0.189671,0.70779 0.07795,0.8364 -0.726604,0.8364 -0.522914,0 -1.02454,0.125461 -1.114727,0.278799 -0.09018,0.153341 0.316547,2.871642 0.903855,6.04067 1.327408,7.162542 1.391953,7.434665 1.763424,7.434665 0.166428,0 1.585287,-0.557752 3.152997,-1.239454 z M 56.199923,68.402833 c 0,-0.867001 -3.039329,-13.963006 -3.301813,-14.227014 -0.158082,-0.159007 -2.780167,-0.24265 -5.826841,-0.185857 l -5.539406,0.10324 -1.522433,6.319468 c -0.837337,3.475708 -1.638572,6.779487 -1.780519,7.341733 l -0.258089,1.022268 h 9.114553 c 5.862572,0 9.114548,-0.133383 9.114548,-0.373826 z m -14.869336,-1.40063 c 0,-0.158143 1.33824,-1.617912 2.973866,-3.243945 l 2.97387,-2.956426 2.973867,2.956426 c 1.635626,1.626033 2.973867,3.085808 2.973867,3.243945 0,0.158146 -2.676481,0.287522 -5.947734,0.287522 -3.271255,0 -5.947736,-0.129382 -5.947736,-0.287522 z m -0.622514,-2.128745 c 0.116393,-0.408907 0.481476,-1.830788 0.811305,-3.159735 0.329831,-1.328946 0.769359,-3.066111 0.976734,-3.860363 l 0.377045,-1.444099 1.644981,1.61443 c 0.904742,0.887934 1.624247,1.788698 1.598902,2.001696 -0.02535,0.212999 -1.300344,1.55823 -2.833331,2.989402 -1.703318,1.590193 -2.704957,2.313009 -2.575636,1.858669 z m 10.367796,-2.149651 -2.689182,-2.707249 1.668425,-1.637431 c 0.917632,-0.90059 1.725542,-1.564229 1.795352,-1.474753 0.13123,0.168197 2.059015,8.526683 1.966577,8.526683 -0.0286,0 -1.262124,-1.218262 -2.741172,-2.70725 z m -5.470396,-5.470932 -1.830669,-1.858619 h 3.424558 c 1.88351,0 3.42456,0.132459 3.42456,0.294335 0,0.161873 -0.717248,0.998265 -1.59389,1.85862 l -1.593888,1.564283 z m 7.001389,-4.367821 c 0.09248,-0.153337 -0.182254,-1.826138 -0.610536,-3.717332 L 51.21764,45.729188 h -3.782683 -3.782682 l -0.78911,3.146281 c -0.434011,1.730454 -0.789111,3.403254 -0.789111,3.717335 0,0.486272 0.769379,0.571053 5.18233,0.571053 2.850281,0 5.257994,-0.125462 5.350478,-0.278803 z m -8.535449,-1.858665 c 0.103833,-0.357793 0.372475,-1.361475 0.596976,-2.230401 l 0.40819,-1.579868 h 2.338092 2.338096 l 0.435577,1.887029 c 0.239568,1.037864 0.435578,2.041544 0.435578,2.2304 0,0.18885 -1.516791,0.343373 -3.37065,0.343373 -3.034243,0 -3.35181,-0.06493 -3.181859,-0.650533 z m 6.180777,-9.252131 c 0,-0.551875 -2.32673,-7.781613 -2.595923,-8.066185 -0.242621,-0.256482 -2.98008,7.115783 -2.98008,8.025678 0,0.152959 1.254601,0.278103 2.788002,0.278103 1.5334,0 2.788001,-0.106912 2.788001,-0.237596 z m -3.481079,-1.189513 c -0.07614,-0.135137 0.06476,-0.914812 0.313088,-1.732625 l 0.451517,-1.486933 0.283001,1.386502 c 0.155657,0.762577 0.306836,1.499391 0.33597,1.637365 0.07003,0.331702 -1.205311,0.512087 -1.383576,0.195699 z M 2.9181355,23.549095 C 2.3643791,22.995339 2.6887953,21.211051 3.4137809,20.82305 c 0.6574144,-0.351837 0.7434665,-0.778344 0.7434665,-3.684897 0,-2.612185 0.1268691,-3.391743 0.6180135,-3.797187 C 5.3286461,12.884134 5.2606168,12.811345 4.1247295,12.644916 2.923557,12.468922 2.8561804,12.380075 2.8561804,10.972116 V 9.4851811 L 8.2111161,9.381679 C 15.560761,9.2396358 15.30925,8.9857044 15.30925,16.548105 c 0,7.501247 0.241414,7.2488 -6.9320047,7.2488 -2.866207,0 -5.3228069,-0.111521 -5.4591098,-0.247821 z m 8.5994325,-3.172124 c 0.278152,-0.278151 0.446083,-1.655866 0.446083,-3.65972 0,-3.821649 -0.486171,-4.569541 -2.8444697,-4.375748 l -1.430466,0.117552 -0.1051031,4.182002 -0.105117,4.182 h 1.7964954 c 0.9880714,0 1.9972314,-0.200736 2.2425744,-0.446079 z m 5.650348,2.140818 c 0,-0.70352 0.167289,-1.382511 0.371734,-1.508871 0.204446,-0.126358 0.371732,-1.688172 0.371732,-3.470693 0,-2.244486 0.167396,-3.479955 0.544478,-4.018298 0.604717,-0.863356 0.418234,-1.246745 -0.606433,-1.246745 -0.547274,0 -0.681511,-0.292881 -0.681511,-1.486934 V 9.2993162 h 5.549021 5.549019 l 0.77045,0.9794658 c 0.586944,0.746177 0.770447,1.516043 0.770447,3.232325 0,1.914798 -0.143814,2.402979 -0.95843,3.253245 l -0.95843,1.000385 0.780118,1.529158 c 0.429066,0.841037 0.943996,1.529155 1.144297,1.529155 0.200293,0 0.364177,0.669121 0.364177,1.486935 0,1.486038 -8.93e-4,1.486931 -1.481583,1.486931 -1.437899,0 -1.514777,-0.06576 -2.607483,-2.230399 -1.124298,-2.22722 -1.128283,-2.2304 -2.793352,-2.2304 h -1.667451 v 2.2304 2.230399 h -2.230398 -2.230402 z m 9.222096,-8.094612 c 0.09907,-1.194073 -0.0065,-1.411895 -0.778902,-1.605735 -0.49144,-0.12335 -1.546702,-0.170809 -2.345029,-0.105462 -1.283689,0.105062 -1.465445,0.240616 -1.572153,1.172469 -0.217348,1.898101 0.09018,2.15424 2.439491,2.031818 l 2.141965,-0.111604 z m 5.647242,7.886808 c 0,-0.817814 0.167268,-1.486935 0.371731,-1.486935 0.221574,0 0.371735,-1.417665 0.371735,-3.509527 0,-1.938702 0.166384,-3.61236 0.371734,-3.739274 0.628615,-0.388504 0.412282,-0.929333 -0.371734,-0.929333 -0.633325,0 -0.743466,-0.247822 -0.743466,-1.6728 V 9.2993162 h 2.602132 2.602133 v 1.4649928 c 0,0.805749 -0.16729,1.568381 -0.371732,1.69474 -0.495325,0.306128 -0.495325,8.364001 0,8.364001 0.204446,0 0.371732,0.669121 0.371732,1.486935 v 1.486931 h -2.602133 -2.602132 z m 7.062933,0.207795 c 0,-0.703519 0.16729,-1.382512 0.371735,-1.50887 0.204782,-0.126579 0.371732,-1.7854 0.371732,-3.693757 0,-2.750778 0.124979,-3.567724 0.60694,-3.967727 0.548959,-0.455595 0.522324,-0.523504 -0.278802,-0.710862 -0.734379,-0.171758 -0.905272,-0.474595 -1.000046,-1.772203 l -0.11431,-1.565053 h 2.623508 2.623508 v 1.464993 c 0,0.805748 -0.16727,1.568381 -0.371733,1.694739 -0.211173,0.130513 -0.371732,1.98644 -0.371732,4.296875 v 4.067127 h 1.6728 c 1.239111,0 1.6728,-0.144573 1.6728,-0.557601 0,-0.371732 0.371735,-0.557598 1.115199,-0.557598 1.103935,0 1.115201,0.02065 1.115201,2.044532 v 2.044533 h -5.018401 -5.018402 z m 11.523735,-0.03361 c 0,-0.823953 0.207609,-1.392402 0.557601,-1.526703 0.440536,-0.16904 0.557599,-0.942421 0.557599,-3.683729 0,-1.912187 0.166869,-3.572888 0.371735,-3.6995 0.634303,-0.392023 0.410408,-0.872134 -0.464667,-0.996412 -0.708181,-0.100577 -0.8364,-0.346737 -0.8364,-1.605723 V 9.4851645 h 2.602133 2.602132 l 0.121142,1.2705075 c 0.08252,0.865469 -0.06561,1.375015 -0.464667,1.598338 -0.477627,0.267292 -0.585805,1.079527 -0.585805,4.398428 v 4.070596 h 1.672799 c 1.239112,0 1.672802,-0.144573 1.672802,-0.557601 0,-0.371734 0.371734,-0.557598 1.115201,-0.557598 1.103933,0 1.115199,0.02065 1.115199,2.044532 V 23.7969 h -5.0184 -5.018401 z m 11.895469,-0.02313 c 0,-1.023239 0.173992,-1.381368 0.743468,-1.530289 0.676409,-0.17688 0.743466,-0.50705 0.743466,-3.660596 0,-1.909797 0.166912,-3.569331 0.371731,-3.695915 0.681568,-0.421232 0.383298,-0.878621 -0.650531,-0.997576 -0.92522,-0.106442 -1.022268,-0.258785 -1.022268,-1.604556 V 9.4851714 h 6.133602 6.133602 l 0.112348,1.9516016 0.11235,1.951601 h -1.652456 c -1.15083,0 -1.719687,-0.175216 -1.873936,-0.577172 -0.16963,-0.442024 -0.679426,-0.550829 -2.177238,-0.464666 l -1.955756,0.1125 -0.115552,1.39699 c -0.132817,1.605773 0.811056,2.350353 1.604287,1.265543 0.279957,-0.382862 0.973745,-0.617997 1.823462,-0.617997 h 1.37157 l -0.11148,2.137465 c -0.111149,2.130904 -0.115345,2.137835 -1.366885,2.25748 -0.690473,0.066 -1.434866,-0.05945 -1.654216,-0.2788 -0.219347,-0.219347 -0.699912,-0.398811 -1.067929,-0.398811 -0.516888,0 -0.66912,0.29601 -0.66912,1.301067 v 1.301065 h 2.416266 c 1.363024,0 2.416266,-0.162042 2.416266,-0.371733 0,-0.204444 0.669121,-0.371733 1.486935,-0.371733 h 1.486932 v 1.858668 1.858665 h -6.319467 -6.319467 z m 14.497602,-0.151062 c 0,-0.817815 0.167271,-1.486935 0.371735,-1.486935 0.221392,0 0.371733,-1.409806 0.371733,-3.48595 0,-2.633669 0.135315,-3.598262 0.553508,-3.945323 0.679724,-0.56412 0.394482,-1.118595 -0.575448,-1.118595 -0.59396,0 -0.721528,-0.262893 -0.721528,-1.486934 V 9.299308 h 5.320587 5.320586 l 0.998881,1.042607 c 0.852974,0.890312 0.998882,1.362463 0.998882,3.232326 0,1.860417 -0.147649,2.343831 -0.981813,3.214509 -0.912975,0.952942 -0.947606,1.107375 -0.493929,2.202647 0.268337,0.64782 0.806588,1.474773 1.196116,1.837671 0.457222,0.425969 0.665215,1.035885 0.586862,1.720897 -0.106277,0.929073 -0.292777,1.07531 -1.499178,1.175485 -1.345714,0.111743 -1.40429,0.06196 -2.514552,-2.137467 -1.136325,-2.251048 -1.137354,-2.251874 -2.804192,-2.251874 h -1.66745 v 2.2304 2.230399 h -2.2304 -2.2304 z m 9.227978,-7.767421 C 86.395317,12.967956 85.933913,12.657905 83.429394,12.6506 l -1.951601,-0.0057 v 1.690539 1.690537 l 2.323335,-0.110665 2.323334,-0.110666 z m 6.646134,7.844679 c -1.857732,-1.90249 -1.825714,-2.679392 0.11043,-2.679392 0.991288,0 1.734756,0.247821 2.2304,0.743465 1.364027,1.36403 4.832545,0.73131 4.832545,-0.881538 0,-1.00399 -0.951672,-1.348861 -3.722142,-1.348861 -2.615376,0 -2.905718,-0.07905 -3.828853,-1.042608 -0.836223,-0.872828 -0.998884,-1.37508 -0.998884,-3.084292 0,-1.873501 0.116118,-2.155072 1.409675,-3.418192 1.388141,-1.3554828 1.455126,-1.3765091 4.385358,-1.3765091 2.954646,0 2.985426,0.00993 4.352186,1.4096711 1.0085,1.032786 1.37652,1.728492 1.37652,2.602134 0,1.146457 -0.0583,1.192461 -1.5103,1.192461 -1.35288,0 -1.49818,-0.08718 -1.394,-0.836401 0.10531,-0.757536 -0.0566,-0.847345 -1.717735,-0.95249 -1.008718,-0.06386 -2.23126,-0.01645 -2.71676,0.105457 -0.760291,0.190832 -0.866829,0.413164 -0.768102,1.603025 l 0.114626,1.381473 3.153265,0.109353 c 3.987916,0.138313 4.839006,0.753765 4.839006,3.499292 0,1.565343 -0.17189,1.978141 -1.28868,3.094936 -1.26415,1.264151 -1.34761,1.288674 -4.385357,1.288674 -3.094696,0 -3.097567,-9.04e-4 -4.473192,-1.409671 z"
       id="path1" /></g></svg>
