<?xml version="1.0" encoding="UTF-8" standalone="no"?>
<!-- Created with Inkscape (http://www.inkscape.org/) -->

<svg
   width="105.83334mm"
   height="105.83334mm"
   viewBox="0 0 105.83333 105.83333"
   version="1.1"
   id="svg1"
   xml:space="preserve"
   inkscape:version="1.4 (e7c3feb100, 2024-10-09)"
   sodipodi:docname="dallas.svg"
   inkscape:export-filename="../pngs/NBL.png"
   inkscape:export-xdpi="96"
   inkscape:export-ydpi="96"
   xmlns:inkscape="http://www.inkscape.org/namespaces/inkscape"
   xmlns:sodipodi="http://sodipodi.sourceforge.net/DTD/sodipodi-0.dtd"
   xmlns="http://www.w3.org/2000/svg"
   xmlns:svg="http://www.w3.org/2000/svg"><sodipodi:namedview
     id="namedview1"
     pagecolor="#ffffff"
     bordercolor="#000000"
     borderopacity="0.25"
     inkscape:showpageshadow="2"
     inkscape:pageopacity="0.0"
     inkscape:pagecheckerboard="0"
     inkscape:deskcolor="#d1d1d1"
     inkscape:document-units="mm"
     inkscape:zoom="0.94374858"
     inkscape:cx="300.3978"
     inkscape:cy="98.543194"
     inkscape:window-width="1920"
     inkscape:window-height="1011"
     inkscape:window-x="0"
     inkscape:window-y="32"
     inkscape:window-maximized="1"
     inkscape:current-layer="layer1"
     showgrid="false" /><defs
     id="defs1"><inkscape:path-effect
       effect="perspective-envelope"
       up_left_point="6.83,59.244015"
       up_right_point="101.43648,59.244015"
       down_left_point="5.231621,72.042734"
       down_right_point="101.43648,72.042734"
       id="path-effect3"
       is_visible="true"
       lpeversion="1"
       deform_type="perspective"
       horizontal_mirror="false"
       vertical_mirror="false"
       overflow_perspective="false" /><inkscape:path-effect
       effect="fillet_chamfer"
       id="path-effect2"
       is_visible="true"
       lpeversion="1"
       nodesatellites_param="IF,0,0,1,0,0,0,6 @ IF,0,0,1,0,0,0,6 @ IF,0,0,1,0,0,0,6 @ IF,0,0,1,0,0,0,6 @ IF,0,0,1,0,0,0,6 @ IF,0,0,1,0,0,0,6 @ IF,0,0,1,0,0,0,6 @ IF,0,0,1,0,0,0,6 @ IF,0,0,1,0,0,0,6 @ IF,0,0,1,0,0,0,6 @ IF,0,0,1,0,0,0,6 @ IF,0,0,1,0,0,0,6 @ IF,0,0,1,0,0,0,6 @ IF,0,0,1,0,0,0,6 @ IF,0,0,1,0,0,0,6 @ IF,0,0,1,0,0,0,6 @ IF,0,0,1,0,0,0,6 @ IF,0,0,1,0,0,0,6 @ IF,0,0,1,0,0,0,6 @ IF,0,0,1,0,0,0,6 @ IF,0,0,1,0,0,0,6 @ IF,0,0,1,0,0,0,6 | IF,0,0,1,0,0,0,6 @ IF,0,0,1,0,0,0,6 @ IF,0,0,1,0,0,0,6 @ IF,0,0,1,0,0,0,6 @ IF,0,0,1,0,0,0,6 @ IF,0,0,1,0,0,0,6 @ IF,0,0,1,0,0,0,6 @ IF,0,0,1,0,0,0,6 @ IF,0,0,1,0,0,0,6 @ IF,0,0,1,0,0,0,6 @ IF,0,0,1,0,0,0,6 @ IF,0,0,1,0,0,0,6 @ IF,0,0,1,0,0,0,6 @ IF,0,0,1,0,0,0,6 @ IF,0,0,1,0,0,0,6 @ IF,0,0,1,0,0,0,6 @ IF,0,0,1,0,0,0,6 @ IF,0,0,1,0,0,0,6 @ IF,0,0,1,0,0,0,6 @ IF,0,0,1,0,0,0,6 | IF,0,0,1,0,0,0,6 @ IF,0,0,1,0,0,0,6 @ IF,0,0,1,0,0,0,6 @ IF,0,0,1,0,0,0,6 @ IF,0,0,1,0,0,0,6 | IF,0,0,1,0,0,0,6 @ IF,0,0,1,0,0,0,6 @ IF,0,0,1,0,0,0,6 @ IF,0,0,1,0,0,0,6 @ IF,0,0,1,0,0,0,6 @ IF,0,0,1,0,0,0,6 @ IF,0,0,1,0,0,0,6 @ IF,0,0,1,0,0,0,6 @ IF,0,0,1,0,0,0,6 @ IF,0,0,1,0,0,0,6 @ IF,0,0,1,0,0,0,6 @ IF,0,0,1,0,0,0,6 @ IF,0,0,1,0,0,0,6 @ IF,0,0,1,0,0,0,6 @ IF,0,0,1,0,0,0,6 @ IF,0,0,1,0,0,0,6 @ IF,0,0,1,0,0,0,6 @ IF,0,0,1,0,0,0,6 @ IF,0,0,1,0,0,0,6 @ IF,0,0,1,0,0,0,6 @ IF,0,0,1,0,0,0,6 @ IF,0,0,1,0,0,0,6 @ IF,0,0,1,0,0,0,6 @ IF,0,0,1,0,0,0,6 | IF,0,0,1,0,0,0,6 @ IF,0,0,1,0,0,0,6 @ IF,0,0,1,0,0,0,6 @ IF,0,0,1,0,0,0,6 @ IF,0,0,1,0,0,0,6 @ IF,0,0,1,0,0,0,6 @ IF,0,0,1,0,0,0,6 @ IF,0,0,1,0,0,0,6 @ IF,0,0,1,0,0,0,6 @ IF,0,0,1,0,0,0,6 @ IF,0,0,1,0,0,0,6 @ IF,0,0,1,0,0,0,6 @ IF,0,0,1,0,0,0,6 @ IF,0,0,1,0,0,0,6 @ IF,0,0,1,0,0,0,6 @ IF,0,0,1,0,0,0,6 @ IF,0,0,1,0,0,0,6 @ IF,0,0,1,0,0,0,6 @ IF,0,0,1,0,0,0,6 @ IF,0,0,1,0,0,0,6 @ IF,0,0,1,0,0,0,6 @ IF,0,0,1,0,0,0,6 @ IF,0,0,1,0,0,0,6 @ IF,0,0,1,0,0,0,6 | IF,0,0,1,0,0,0,6 @ IF,0,0,1,0,0,0,6 @ IF,0,0,1,0,0,0,6 @ IF,0,0,1,0,0,0,6 @ IF,0,0,1,0,0,0,6 @ IF,0,0,1,0,0,0,6 @ IF,0,0,1,0,0,0,6 @ IF,0,0,1,0,0,0,6 @ IF,0,0,1,0,0,0,6 @ IF,0,0,1,0,0,0,6 @ IF,0,0,1,0,0,0,6 | IF,0,0,1,0,0,0,6 @ IF,0,0,1,0,0,0,6 @ IF,0,0,1,0,0,0,6 @ IF,0,0,1,0,0,0,6 @ IF,0,0,1,0,0,0,6 | IF,0,0,1,0,0,0,6 @ IF,0,0,1,0,0,0,6 @ IF,0,0,1,0,0,0,6 @ IF,0,0,1,0,0,0,6 @ IF,0,0,1,0,0,0,6 | IF,0,0,1,0,0,0,6 @ IF,0,0,1,0,0,0,6 @ IF,0,0,1,0,0,0,6 @ IF,0,0,1,0,0,0,6 @ IF,0,0,1,0,0,0,6 @ IF,0,0,1,0,0,0,6 @ IF,0,0,1,0,0,0,6 @ IF,0,0,1,0,0,0,6 @ IF,0,0,1,0,0,0,6 @ IF,0,0,1,0,0,0,6 @ IF,0,0,1,0,0,0,6 @ IF,0,0,1,0,0,0,6 | IF,0,0,1,0,0,0,6 @ IF,0,0,1,0,0,0,6 @ IF,0,0,1,0,0,0,6 @ IF,0,0,1,0,0,0,6 @ IF,0,0,1,0,0,0,6 @ IF,0,0,1,0,0,0,6 @ IF,0,0,1,0,0,0,6 @ IF,0,0,1,0,0,0,6 @ IF,0,0,1,0,0,0,6 @ IF,0,0,1,0,0,0,6 @ IF,0,0,1,0,0,0,6 @ IF,0,0,1,0,0,0,6 @ IF,0,0,1,0,0,0,6 @ IF,0,0,1,0,0,0,6 @ IF,0,0,1,0,0,0,6 @ IF,0,0,1,0,0,0,6 @ IF,0,0,1,0,0,0,6 @ IF,0,0,1,0,0,0,6 @ IF,0,0,1,0,0,0,6 @ IF,0,0,1,0,0,0,6 | IF,0,0,1,0,0,0,6 @ IF,0,0,1,0,0,0,6 @ IF,0,0,1,0,0,0,6 @ IF,0,0,1,0,0,0,6 @ IF,0,0,1,0,0,0,6 | IF,0,0,1,0,0,0,6 @ IF,0,0,1,0,0,0,6 @ IF,0,0,1,0,0,0,6 @ IF,0,0,1,0,0,0,6 @ IF,0,0,1,0,0,0,6 @ IF,0,0,1,0,0,0,6 @ IF,0,0,1,0,0,0,6 @ IF,0,0,1,0,0,0,6 @ IF,0,0,1,0,0,0,6 | IF,0,0,1,0,0,0,6 @ IF,0,0,1,0,0,0,6 @ IF,0,0,1,0,0,0,6 @ IF,0,0,1,0,0,0,6 @ IF,0,0,1,0,0,0,6 | IF,0,0,1,0,0,0,6 @ IF,0,0,1,0,0,0,6 @ IF,0,0,1,0,0,0,6 @ IF,0,0,1,0,0,0,6 @ IF,0,0,1,0,0,0,6 @ IF,0,0,1,0,0,0,6 @ IF,0,0,1,0,0,0,6 @ IF,0,0,1,0,0,0,6 @ IF,0,0,1,0,0,0,6 @ IF,0,0,1,0,0,0,6 @ IF,0,0,1,0,0,0,6 @ IF,0,0,1,0,0,0,6 @ IF,0,0,1,0,0,0,6 @ IF,0,0,1,0,0,0,6 @ IF,0,0,1,0,0,0,6 @ IF,0,0,1,0,0,0,6 @ IF,0,0,1,0,0,0,6 @ IF,0,0,1,0,0,0,6"
       radius="0"
       unit="px"
       method="arc"
       mode="F"
       chamfer_steps="6"
       flexible="false"
       use_knot_distance="true"
       apply_no_radius="true"
       apply_with_radius="true"
       only_selected="false"
       hide_knots="false" /><inkscape:path-effect
       effect="envelope"
       id="path-effect1"
       is_visible="true"
       lpeversion="1"
       yy="true"
       xx="true"
       bendpath1="M 5.2368579,59.303318 H 101.44172"
       bendpath2="M 101.44172,59.303318 V 72.102037"
       bendpath3="M 5.2368579,72.102037 H 101.44172"
       bendpath4="M 5.2368579,59.303318 V 72.102037" /></defs><g
     inkscape:label="Capa 1"
     inkscape:groupmode="layer"
     id="layer1"><g
       id="g29"
       transform="translate(0.30127659,3.673016)"><ellipse
         style="fill:#002b5e;fill-opacity:1;stroke:none;stroke-width:1.56729;stroke-dasharray:none;stroke-opacity:1"
         id="path29"
         cx="52.706482"
         cy="43.735168"
         rx="43.454811"
         ry="39.249508" /><path
         id="path22"
         style="fill:#00538c;fill-opacity:1;stroke:#002b5e;stroke-width:2.42723;stroke-opacity:1"
         inkscape:transform-center-x="-1.5765025e-06"
         inkscape:transform-center-y="12.934039"
         d="M 52.615393,6.0278999 C 30.338563,6.027923 17.648938,16.567409 12.309165,25.721279 H 1.7211193 l 7.636383,10.332014 c 0.015952,0.116127 0.02491,0.239729 0.046393,0.349912 H 1.4314171 c -0.00897,0 -0.016496,0.0058 -0.016496,0.01318 V 60.622683 H 27.516981 L 52.615393,92.056618 77.713805,60.622683 H 103.81638 V 36.416387 c 0,-0.0073 -0.007,-0.01318 -0.0165,-0.01318 h -7.97299 c 0.0215,-0.110198 0.03043,-0.233771 0.04639,-0.349912 l 7.63639,-10.332016 H 92.922652 C 87.582941,16.567172 74.892191,6.0277728 52.615393,6.0278999 Z"
         sodipodi:nodetypes="cccccsscccccssccccc" /><path
         id="path11-6"
         style="fill:#ffffff;fill-opacity:1;stroke-width:0.406671"
         d="m 9.2048491,29.688401 0.4819677,0.346119 c 0.2650246,0.190387 1.0542662,0.776628 1.7540652,1.303063 0.699798,0.526433 1.54709,1.086194 1.882923,1.243628 l 0.610327,0.286184 10.278161,0.05394 10.278161,0.05344 0.74268,0.366096 c 0.978698,0.481901 1.390761,0.916578 2.803408,2.960234 1.798362,2.601664 1.736044,2.406752 1.237136,3.882717 -0.03948,0.116784 -0.029,0.228598 0.0039,0.333632 l -0.383487,0.679668 c 6.009551,0.01225 12.017546,-0.0068 18.028008,-0.0068 0.137293,-2.087121 0.756952,-5.579413 3.274401,-7.242628 1.029262,-0.680008 1.803418,-1.043178 3.170003,-1.486859 0.922558,-0.299521 0.989758,-0.339395 0.753168,-0.445509 -0.16245,-0.07287 -1.133875,-0.113518 -2.593138,-0.10888 l -2.333926,0.0075 -0.06193,-0.247726 c -0.102781,-0.409529 -0.702855,-1.000437 -1.341022,-1.321043 -1.130173,-0.567789 -2.284177,-0.676759 -3.8977,-0.367594 -0.860007,0.164727 -0.982075,0.16492 -1.624707,0.0035 -0.382102,-0.09598 -0.785432,-0.209099 -0.896511,-0.251721 -0.180076,-0.0691 -0.175958,-0.04456 0.03746,0.226749 0.462267,0.587676 0.293903,0.699706 -0.723702,0.481469 -0.298859,-0.0641 -0.596296,-0.0989 -0.660771,-0.07741 -0.06447,0.02149 0.208154,0.364482 0.605832,0.76216 l 0.723202,0.722702 h -0.49845 c -0.273976,0 -0.49795,0.04182 -0.49795,0.0929 0,0.05107 0.243394,0.320555 0.540903,0.598839 l 0.540902,0.505942 -0.442012,0.502446 c -0.243164,0.276249 -0.609369,0.801009 -0.813601,1.166214 -0.204235,0.365204 -0.431831,0.714136 -0.505942,0.775644 -0.08899,0.07386 -0.550408,0.213146 -1.177702,0.377084 l -4.809194,0.992905 c 0.01513,-0.01381 0.09533,-0.056 0.09439,-0.06193 -0.0047,-0.02969 -0.786148,-0.732271 -1.737084,-1.560778 -0.950887,-0.828505 -2.53667,-2.304925 -3.523562,-3.281379 -1.391683,-1.376961 -1.913308,-1.8239 -2.324437,-1.990804 -0.518713,-0.210576 -0.813969,-0.215976 -13.762318,-0.24473 z m 88.5503919,0 -13.232401,0.02896 c -12.948349,0.02876 -13.243606,0.03416 -13.762318,0.24473 -0.41113,0.166904 -0.932754,0.613842 -2.324437,1.990804 -0.986893,0.976453 -2.572175,2.452873 -3.523113,3.281379 -0.950936,0.828507 -1.732952,1.531087 -1.737583,1.560779 -0.0047,0.02969 0.208116,0.168651 0.472979,0.309158 0.4759,0.252465 1.153286,1.023718 1.498347,1.706119 0.242021,0.478627 0.324303,1.195035 0.192288,1.673154 -0.08178,0.29619 -0.07775,0.4005 0.01548,0.402057 0.0692,0.0012 0.658587,0.07321 1.309555,0.160323 1.277099,0.170918 1.345017,0.177591 1.345017,0.12686 0,-0.01848 -0.145607,-0.463685 -0.323145,-0.988909 -0.498907,-1.475965 -0.560727,-1.281053 1.237635,-3.882717 1.412647,-2.043656 1.824211,-2.478333 2.802909,-2.960234 l 0.74318,-0.366096 10.277661,-0.05344 10.278161,-0.05394 0.610827,-0.286184 c 0.335833,-0.157434 1.183124,-0.717195 1.882923,-1.243629 0.699799,-0.526434 1.489041,-1.112675 1.754064,-1.303062 z m -41.129706,2.479765 c 0.635257,0 0.975116,0.932779 0.509438,1.398458 -0.456638,0.456636 -1.291076,0.08374 -1.291076,-0.576865 0,-0.36303 0.436385,-0.821593 0.781638,-0.821593 z M 25.527842,34.66691 c -4.808294,-0.01615 -8.739246,0.0082 -8.735864,0.05394 0.0098,0.131017 1.894412,1.527518 2.450798,1.815996 0.27615,0.143181 0.719605,0.302543 0.985911,0.354608 0.266305,0.05206 3.776722,0.0997 7.800895,0.105885 6.914559,0.01057 8.139699,-0.0326 8.117045,-0.288183 -0.0037,-0.0416 -0.233735,-0.414831 -0.511436,-0.829084 -0.863701,-1.288403 0.04894,-1.179064 -10.107349,-1.213162 z m 55.903907,0 C 71.275451,34.701 72.1886,34.59166 71.324899,35.880072 c -0.277702,0.414253 -0.508248,0.787482 -0.511935,0.829084 -0.02266,0.255586 1.202486,0.298756 8.117045,0.288182 4.024172,-0.0062 7.534588,-0.05382 7.800894,-0.105885 0.266306,-0.05207 0.710262,-0.211427 0.986412,-0.354608 0.556386,-0.288478 2.44099,-1.684979 2.450796,-1.815996 0.0034,-0.04574 -3.928069,-0.07009 -8.736362,-0.05394 z m -53.278304,3.849254 c -3.257699,0 -5.877299,0.04086 -5.821078,0.0904 0.388326,0.342216 2.09737,1.488248 2.605625,1.747572 l 0.616819,0.315152 3.979111,-0.02747 3.97911,-0.02747 0.28169,-1.048842 0.281689,-1.049343 z m 44.730235,0 0.281189,1.049343 0.281689,1.048842 3.979111,0.02747 3.979109,0.02747 0.617321,-0.315153 c 0.508255,-0.259323 2.216798,-1.405356 2.605125,-1.747572 0.05622,-0.04954 -2.562879,-0.0904 -5.820579,-0.0904 z" /><text
         xml:space="preserve"
         style="font-style:normal;font-variant:normal;font-weight:normal;font-stretch:normal;font-size:18.3295px;line-height:1;font-family:'Silvano Western Demo';-inkscape-font-specification:'Silvano Western Demo';text-align:center;letter-spacing:0px;writing-mode:lr-tb;direction:ltr;text-anchor:middle;white-space:pre;inline-size:107.329;fill:#ffffff;fill-opacity:1;stroke:none;stroke-width:4.50302"
         x="52.506706"
         y="61.683231"
         id="text7"
         transform="matrix(0.98338461,0,0,1.1267073,0.75481755,-11.55517)"><tspan
           x="52.506706"
           y="61.683231"
           id="tspan3"><tspan
   style="font-size:21.9955px"
   id="tspan1">F</tspan>reebird<tspan
   style="font-size:21.9955px"
   id="tspan2">S</tspan></tspan></text><circle
         style="fill:#ffffff;fill-opacity:1;stroke:none;stroke-width:2.51288"
         id="path20"
         cx="61.695038"
         cy="40.071598"
         r="1.8697822" /><path
         style="font-size:12.4389px;line-height:1;font-family:'Silvano Western Demo';-inkscape-font-specification:'Silvano Western Demo';text-align:center;letter-spacing:0px;text-anchor:middle;fill:#b8c4ca;fill-opacity:1;stroke-width:2.46121"
         d="m 30.626284,22.775095 3.803904,-1.285931 c 3.31418,-1.120377 2.783007,-3.555049 2.174693,-5.354502 -0.504362,-1.49195 -1.715021,-3.684228 -4.881146,-2.613903 l -3.792515,1.28208 0.01926,0.05695 c 0.364446,-0.123204 0.73002,0.01972 0.976426,0.748604 l 1.998197,5.910859 c 0.250257,0.74028 0.04638,1.0757 -0.318061,1.198903 z m 3.151486,-2.727831 -1.184449,0.40041 -1.69019,-4.999744 1.184449,-0.400408 c 1.491951,-0.504362 2.169383,0.561057 2.569793,1.745507 0.415809,1.230004 0.737626,2.707524 -0.879603,3.254235 z m 7.105777,-0.240553 -0.01046,-0.05919 c -0.378829,0.067 -0.612209,-0.148114 -0.499686,-0.961576 l 0.08755,-0.540456 c 0.325919,-0.02101 0.71868,-0.07826 1.109347,-0.147352 0.485375,-0.08583 0.978401,-0.197444 1.348855,-0.311793 l 0.271789,0.501324 c 0.384689,0.725532 0.239242,1.007636 -0.139588,1.07463 l 0.01046,0.05919 3.267401,-0.577833 -0.01046,-0.05919 c -0.378829,0.067 -0.801624,-0.114616 -1.186315,-0.840146 l -3.122783,-5.784035 c -0.394436,-0.711601 -0.248987,-0.993705 0.129843,-1.0607 l -0.01046,-0.05919 -3.137179,0.554804 0.01046,0.05919 c 0.37883,-0.067 0.635885,0.143928 0.509432,0.947644 l -0.949629,6.504234 c -0.112522,0.813462 -0.447387,1.129063 -0.826215,1.196058 l 0.01046,0.05919 z m 0.149107,-5.508056 1.236293,2.296347 c -0.479094,0.121353 -1.092598,0.242058 -1.619768,0.298662 z m 5.735932,4.599426 5.403459,-0.264895 0.159034,-2.40307 -0.04804,0.0023 c -0.278646,0.699744 -0.764486,0.855964 -1.749116,0.904233 l -1.236792,0.06063 -0.289031,-5.895774 c 0.0037,-0.66219 0.281235,-0.892457 0.641466,-0.910116 l -0.0029,-0.06004 -3.290107,0.161291 0.0029,0.06004 c 0.384245,-0.01883 0.6968,0.218607 0.734473,0.987099 l 0.305514,6.231991 c 0.03826,0.780498 -0.249567,1.047377 -0.633814,1.066214 z m 6.285727,-0.276205 5.402789,0.278248 0.39919,-2.375012 -0.04803,-0.0025 c -0.347405,0.668277 -0.846461,0.774993 -1.830968,0.72429 l -1.23664,-0.06369 0.303599,-5.895042 c 0.07004,-0.658486 0.369306,-0.859757 0.729492,-0.841207 l 0.0031,-0.06003 -3.289699,-0.169422 -0.0031,0.06003 c 0.384198,0.01978 0.671368,0.287376 0.631795,1.055773 l -0.320911,6.231204 c -0.04018,0.780402 -0.353332,1.017074 -0.73753,0.997288 z m 9.206044,0.797794 0.01056,-0.05917 C 61.892229,19.29271 61.747372,19.010305 62.13358,18.285581 l 0.268601,-0.477086 c 0.313162,0.09269 0.701566,0.174438 1.092088,0.244344 0.485194,0.08685 0.986459,0.152158 1.37362,0.17261 l 0.08218,0.564306 c 0.110819,0.813696 -0.12301,1.028315 -0.501698,0.960527 l -0.01057,0.05917 3.266184,0.584672 0.01057,-0.05917 C 67.3359,20.267162 67.001698,19.950865 66.890878,19.13717 l -0.93601,-6.506209 c -0.124771,-0.80398 0.109058,-1.0186 0.487747,-0.950811 l 0.01057,-0.05917 -3.13601,-0.561371 -0.01057,0.05917 c 0.378689,0.0678 0.547215,0.354434 0.15129,1.065205 l -3.134886,5.777485 c -0.386209,0.724725 -0.809383,0.90545 -1.188069,0.837663 l -0.01057,0.05917 z m 2.039879,-5.118575 0.368326,2.581854 c -0.491548,-0.05135 -1.109035,-0.149674 -1.623375,-0.278384 z m 11.516265,2.702395 1.483196,-2.200809 -0.05692,-0.01932 c -0.597293,0.07661 -1.77149,-0.728122 -3.456387,-1.299904 -1.753204,-0.59496 -3.222045,-0.344387 -3.789964,1.329124 -0.629731,1.855664 0.966102,2.727303 2.1216,3.474902 0.882683,0.578845 1.701333,1.047092 1.481121,1.696005 -0.115902,0.341533 -0.608107,0.669625 -1.689628,0.302603 -1.275057,-0.432698 -2.352464,-1.560054 -2.481511,-2.302099 l -0.06831,-0.02318 -1.287855,2.635269 0.05691,0.01932 c 0.67863,-0.353696 1.183776,0.439809 3.141898,1.10431 2.276887,0.772676 3.735579,0.29014 4.261,-1.258142 0.59496,-1.753204 -0.98846,-2.811063 -2.295818,-3.597502 -0.845077,-0.502607 -1.500276,-0.966167 -1.314835,-1.512619 0.142946,-0.421225 0.588996,-0.65072 1.795746,-0.241201 1.183981,0.401791 1.96297,1.173966 2.042821,1.873926 z"
         id="text21"
         aria-label="DALLAS" /><path
         sodipodi:type="star"
         style="fill:#b8c4ca;fill-opacity:1;stroke:none;stroke-width:2.6"
         id="path23"
         inkscape:flatsided="false"
         sodipodi:sides="5"
         sodipodi:cx="-25.725863"
         sodipodi:cy="-9.8945627"
         sodipodi:r1="21.172718"
         sodipodi:r2="8.4773312"
         sodipodi:arg1="-1.5707963"
         sodipodi:arg2="-0.95403864"
         inkscape:rounded="0"
         inkscape:randomized="0"
         d="m -25.725862,-31.067281 4.903231,14.257267 15.2332201,0.372722 -12.0442851,9.0689873 4.352844,14.602831 -12.347008,-8.6523244 -12.543014,8.6523238 4.413414,-14.4164178 -12.104854,-9.2554009 15.074648,-0.257512 z"
         inkscape:transform-center-y="-0.87479085"
         transform="matrix(0.38391662,0,0,0.38391662,62.772399,76.338935)" /></g></g></svg>
