<?xml version="1.0" encoding="UTF-8" standalone="no"?>
<!-- Created with Inkscape (http://www.inkscape.org/) -->

<svg
   width="105.83334mm"
   height="105.83334mm"
   viewBox="0 0 105.83333 105.83333"
   version="1.1"
   id="svg1"
   xml:space="preserve"
   inkscape:version="1.4 (e7c3feb100, 2024-10-09)"
   sodipodi:docname="denver.svg"
   inkscape:export-filename="../pngs/dallas.png"
   inkscape:export-xdpi="96"
   inkscape:export-ydpi="96"
   xmlns:inkscape="http://www.inkscape.org/namespaces/inkscape"
   xmlns:sodipodi="http://sodipodi.sourceforge.net/DTD/sodipodi-0.dtd"
   xmlns="http://www.w3.org/2000/svg"
   xmlns:svg="http://www.w3.org/2000/svg"><sodipodi:namedview
     id="namedview1"
     pagecolor="#ffffff"
     bordercolor="#000000"
     borderopacity="0.25"
     inkscape:showpageshadow="2"
     inkscape:pageopacity="0.0"
     inkscape:pagecheckerboard="0"
     inkscape:deskcolor="#d1d1d1"
     inkscape:document-units="mm"
     inkscape:zoom="1.1896563"
     inkscape:cx="253.01425"
     inkscape:cy="230.31862"
     inkscape:window-width="1920"
     inkscape:window-height="1011"
     inkscape:window-x="0"
     inkscape:window-y="32"
     inkscape:window-maximized="1"
     inkscape:current-layer="layer1"
     showgrid="false"
     showguides="false" /><defs
     id="defs1" /><g
     inkscape:label="Capa 1"
     inkscape:groupmode="layer"
     id="layer1"><g
       id="g9"><g
         id="g10"
         transform="translate(12.91994,-23.117813)"
         style="fill:#fec524;fill-opacity:1"><g
           id="path7-9"
           style="fill:#fec524;fill-opacity:1"
           transform="translate(-34.48831,5.3516343)"><path
             d="m 64.569665,100.99139 c -0.574629,-0.17571 -2.373324,-1.849283 -2.721912,-2.532572 -0.365068,-0.715593 -0.296972,-1.696049 0.162846,-2.344692 0.177169,-0.249923 1.965172,-2.00643 3.973341,-3.903349 2.008168,-1.896918 3.633513,-3.494218 3.611877,-3.549555 -0.02164,-0.05534 -1.536421,-1.526569 -3.366189,-3.269404 C 61.454043,80.843124 48.857465,68.854606 45.522806,65.684553 43.960963,64.199806 42.20828,62.523457 41.627953,61.959332 l -1.055139,-1.025682 -0.4271,0.220862 c -0.537732,0.278072 -1.577807,0.284733 -2.102382,0.01346 l -0.401063,-0.207397 -2.052642,2.389128 c -1.852579,2.15627 -2.682168,3.170506 -4.956734,6.059978 -1.319219,1.675857 -3.427034,4.629715 -4.964727,6.957489 -0.841809,1.274339 -1.55553,2.292013 -1.586046,2.261497 -0.03052,-0.03052 0.08083,-1.010822 0.247434,-2.178458 0.956413,-6.702938 3.666911,-12.976948 8.063386,-18.664379 l 0.900871,-1.165399 -0.326804,-0.481572 c -0.35712,-0.526247 -0.449283,-1.617498 -0.179225,-2.122107 0.123426,-0.230623 0.06574,-0.366348 -0.352488,-0.829271 -0.636689,-0.704738 -0.802865,-1.150176 -0.686357,-1.839786 0.07703,-0.455908 0.330296,-0.795061 1.463608,-1.959911 2.016394,-2.072506 2.822696,-2.305303 4.053874,-1.170443 l 0.584188,0.538487 0.590628,-0.203488 c 0.652581,-0.224832 1.53539,-0.08534 1.982136,0.313193 0.274524,0.244899 0.133196,0.320562 1.936123,-1.036534 5.147283,-3.874452 11.78099,-6.57827 18.054493,-7.358791 1.694604,-0.210835 2.701191,-0.297403 2.701191,-0.232307 0,0.0324 -0.732439,0.477962 -1.627641,0.990142 -4.915893,2.812569 -11.434768,7.642125 -15.72278,11.648336 -0.650935,0.608157 -0.65607,0.619767 -0.450198,1.017879 0.264562,0.511606 0.268126,1.561131 0.007,2.066063 l -0.201232,0.389139 4.439871,4.209859 c 2.441929,2.315422 4.605128,4.364447 4.807109,4.553389 0.282384,0.264154 13.84179,13.093328 19.243647,18.207295 l 0.86847,0.822185 0.512941,-0.474751 c 0.698165,-0.646185 2.450946,-2.29993 4.12216,-3.889248 1.673637,-1.591624 7.405744,-7.018981 16.348215,-15.479056 3.655596,-3.458397 7.03883,-6.671928 7.51829,-7.14118 l 0.87175,-0.853185 -0.21292,-0.408303 c -0.27276,-0.523077 -0.27284,-1.316766 -2e-4,-1.969287 0.21228,-0.508052 0.21036,-0.516638 -0.19256,-0.861318 -0.22383,-0.191482 -1.23976,-1.070286 -2.25762,-1.952897 -4.435425,-3.846067 -9.205349,-7.289828 -13.606836,-9.823781 -0.965192,-0.555664 -1.736364,-1.028829 -1.713716,-1.051477 0.02265,-0.02265 0.662736,0.01757 1.422417,0.08938 6.811655,0.643853 13.910075,3.39964 19.298465,7.492159 0.6382,0.48472 1.27514,0.964852 1.41542,1.066959 0.21608,0.157285 0.30368,0.151469 0.57335,-0.03807 0.57237,-0.402282 1.25585,-0.51115 1.93182,-0.307713 l 0.61655,0.185556 0.58906,-0.522747 c 0.32399,-0.287511 0.77283,-0.563109 0.99744,-0.612441 0.8523,-0.187197 1.2425,0.03777 2.85446,1.64574 1.23898,1.235905 1.56468,1.643146 1.64137,2.052291 0.12752,0.680344 -0.11109,1.349071 -0.67709,1.897668 -0.45727,0.443201 -0.46069,0.455687 -0.27354,0.9989 0.23979,0.696003 0.11216,1.560434 -0.3014,2.04122 l -0.31014,0.360555 0.86762,1.112769 c 3.4934,4.480511 6.21467,10.011648 7.46489,15.172814 0.42205,1.742288 1.0249,5.617334 0.89423,5.748 -0.0267,0.02668 -0.80341,-1.084278 -1.72606,-2.468804 C 120.15275,71.657565 116.45018,66.83 112.85136,62.727038 l -1.54821,-1.765094 -0.39974,0.206715 c -0.52441,0.271183 -1.43071,0.26288 -2.02376,-0.01854 l -0.47469,-0.225255 -1.34704,1.30035 c -1.1313,1.092084 -11.042695,10.532077 -21.709863,20.677296 -4.077837,3.878307 -5.952826,5.684798 -5.996215,5.777156 -0.02186,0.04653 0.356906,0.451707 0.841699,0.900397 3.294507,3.049158 6.715179,6.391131 6.914873,6.755782 0.287331,0.52468 0.314829,1.460083 0.06068,2.064147 -0.294693,0.700428 -2.183012,2.410568 -2.864286,2.594018 -0.584808,0.15747 -1.21093,0.0894 -1.75411,-0.19073 -0.228206,-0.11768 -5.321705,-4.883801 -7.821049,-7.318354 -0.228659,-0.222731 -0.450205,-0.0366 -4.092683,3.438378 -2.118017,2.020621 -4.015817,3.761096 -4.217335,3.867736 -0.496676,0.26282 -1.345163,0.35471 -1.849966,0.20035 z M 28.831319,67.933034 c 1.684181,-2.693635 4.001584,-5.95998 5.863175,-8.264058 l 0.763132,-0.944524 -0.694936,-0.694936 -0.694936,-0.694936 -0.766503,1.018444 c -2.321876,3.08505 -4.959792,7.744134 -6.35841,11.230217 -0.53689,1.33821 -1.367292,3.666285 -1.367292,3.833277 0,0.04193 0.521305,-0.836849 1.158456,-1.952835 0.637151,-1.115986 1.580942,-2.704778 2.097314,-3.530649 z m 93.840491,3.322595 c -1.67913,-4.486541 -3.64974,-8.177171 -6.55355,-12.273696 -0.5212,-0.735273 -1.02318,-1.399556 -1.11551,-1.476184 -0.1208,-0.100256 -0.35237,0.04799 -0.82583,0.528677 l -0.65796,0.668001 1.61117,2.063717 c 2.44938,3.137387 6.81943,9.84798 7.91378,12.152314 0.52409,1.103549 0.31717,0.178851 -0.3721,-1.662829 z M 36.453632,53.059968 c 2.621692,-2.616296 2.747485,-2.615715 5.414365,0.02504 1.856132,1.837947 1.992537,1.90876 1.992537,1.034389 0,-0.371914 -3.332946,-3.730549 -3.92563,-3.955887 -0.492479,-0.18724 -1.210472,-0.187902 -1.710148,-0.0016 -0.214476,0.07998 -1.184729,0.936186 -2.156119,1.902687 -1.504259,1.49669 -1.766163,1.820909 -1.766163,2.186386 0,0.407402 0.08866,0.613807 0.263645,0.613807 0.04342,0 0.892802,-0.812179 1.887513,-1.804843 z m 72.213958,-1.436092 c 0.48388,-0.401343 0.71777,-0.499176 1.1934,-0.499176 0.71554,0 0.77761,0.0465 2.89101,2.165948 1.54905,1.553479 1.6495,1.628708 1.83543,1.374534 0.10817,-0.14789 0.19668,-0.360706 0.19668,-0.472925 0,-0.298999 -3.45502,-3.759265 -3.97807,-3.984118 -0.61971,-0.2664 -1.34317,-0.239155 -1.94929,0.07341 -0.79699,0.41099 -3.76922,3.494559 -3.76922,3.910413 0,0.802518 0.2765,0.683158 1.64378,-0.709595 0.73395,-0.747623 1.60528,-1.583944 1.93628,-1.858491 z m 7.63815,-0.388153 c 0.002,-0.282377 -2.2591,-2.694554 -2.63964,-2.815333 -0.14697,-0.04665 -0.3998,-0.04273 -0.56185,0.0087 -0.26132,0.08294 -0.10929,0.27934 1.34472,1.737148 1.59761,1.601778 1.85066,1.747532 1.85677,1.069485 z M 34.55183,50.113549 c 0.85844,-0.860883 1.517137,-1.608905 1.463771,-1.662271 -0.314899,-0.3149 -0.804412,-0.0409 -1.868356,1.045782 -0.615393,0.628546 -1.207643,1.274282 -1.316112,1.434969 -0.183251,0.27147 -0.139612,0.746762 0.06856,0.746762 0.05023,0 0.793692,-0.704359 1.652133,-1.565242 z m 9.19693,0.276175 c 3.759301,-3.162591 8.589157,-6.089555 13.045976,-7.906053 1.356111,-0.55272 2.082505,-0.931417 1.402889,-0.73138 -0.152375,0.04485 -0.858814,0.20973 -1.569864,0.3664 -4.726142,1.041339 -9.516925,3.331334 -13.990704,6.687559 l -1.292739,0.969811 0.66418,0.67432 c 0.365299,0.370876 0.709727,0.674319 0.765396,0.674319 0.05567,0 0.494358,-0.330739 0.974866,-0.734976 z m 63.18643,0.06511 0.65979,-0.669872 -1.08057,-0.832851 c -4.56825,-3.520978 -9.388388,-5.80646 -14.65579,-6.949088 -1.1493,-0.249312 -1.718256,-0.289201 -1.093377,-0.07666 1.268786,0.431561 4.648671,1.993254 6.283505,2.903326 3.135482,1.745443 5.347652,3.24587 8.088292,5.485971 0.54418,0.444787 1.02292,0.808779 1.06388,0.808872 0.041,9.3e-5 0.37138,-0.301273 0.73427,-0.669702 z M 72.950283,96.278526 c 0.799968,-0.758173 1.49273,-1.378987 1.539471,-1.379588 0.04674,-6e-4 0.732428,0.619469 1.523749,1.377932 l 1.438765,1.379024 -2.978236,5.64e-4 -2.978236,5.63e-4 z M 58.381313,95.940248 C 49.135316,93.832416 41.643784,90.10968 36.992215,85.311452 36.231806,84.527067 35.473626,83.691831 35.307372,83.455372 l -0.302281,-0.429927 1.673466,-1.081763 c 0.920406,-0.59497 1.857012,-1.236207 2.081347,-1.424972 0.224334,-0.188765 0.713003,-0.942214 1.08593,-1.67433 0.961039,-1.886679 0.866871,-1.824253 1.36487,-0.904796 0.394459,0.72829 0.433469,0.912807 0.433469,2.050303 v 1.249989 l 1.029604,-1.517002 c 0.566282,-0.834352 1.309039,-1.789739 1.650571,-2.123082 l 0.620967,-0.60608 1.186192,0.09881 1.186192,0.09881 1.608888,1.714869 1.608889,1.714869 0.922099,-0.73637 c 0.909527,-0.72633 2.311469,-1.700719 2.871845,-1.996012 0.22893,-0.120636 0.589542,-0.05666 1.770767,0.314171 l 1.483293,0.465656 2.869741,2.74424 c 1.578357,1.509332 3.52426,3.372695 4.324228,4.140806 0.799968,0.768112 1.867967,1.78515 2.373331,2.260085 l 0.918844,0.863518 -1.403673,1.355904 c -0.77202,0.745748 -2.321103,2.22027 -3.442407,3.276716 -1.208127,1.138248 -2.167441,2.163427 -2.354647,2.516313 -0.173751,0.327525 -0.347187,0.59146 -0.385411,0.586523 -0.03822,-0.0049 -0.984203,-0.217504 -2.102173,-0.47237 z m 29.744248,-0.05711 c -0.178827,-0.396566 -1.267194,-1.523893 -3.697198,-3.829545 -1.894073,-1.797146 -3.443511,-3.310511 -3.443196,-3.363033 3.15e-4,-0.05252 2.23357,-2.222705 4.96279,-4.822628 l 4.962218,-4.727133 1.747187,-0.551595 1.747186,-0.551595 0.874137,0.551387 c 0.480775,0.303263 1.388306,0.952198 2.016735,1.442078 l 1.1426,0.890692 1.152104,-1.219426 c 0.633656,-0.670685 1.366186,-1.447258 1.627856,-1.725718 0.45914,-0.488625 0.51753,-0.509157 1.67319,-0.588405 l 1.19744,-0.08211 0.74188,0.803963 c 0.40803,0.442179 1.11588,1.377608 1.573,2.078731 l 0.83114,1.274768 0.0693,-1.282543 c 0.0604,-1.118293 0.12522,-1.378758 0.50623,-2.033854 l 0.43697,-0.751313 0.76431,1.523993 c 0.45436,0.905958 0.95156,1.688138 1.22604,1.928755 0.25395,0.222619 1.22449,0.893644 2.15675,1.491167 1.94007,1.243472 1.88786,0.984358 0.51209,2.541709 -2.44859,2.771745 -7.04647,5.802909 -12.04369,7.939835 -3.095669,1.323777 -9.328932,3.183252 -11.851966,3.535618 l -0.631634,0.08821 z M 68.630605,77.089384 62.85644,71.616066 63.071534,71.101597 c 0.118301,-0.282958 0.267515,-0.652194 0.331587,-0.820523 0.115635,-0.303802 0.121886,-0.302387 0.849302,0.192281 0.969457,0.659263 2.25844,1.243427 2.96949,1.345763 l 0.574409,0.08267 1.131863,-2.661207 c 0.941964,-2.21472 1.224804,-2.747009 1.685823,-3.17262 0.317572,-0.29318 0.57705,-0.442964 0.608069,-0.351008 0.02976,0.08822 0.181746,0.548943 0.337748,1.023823 0.335206,1.020391 0.880163,2.190496 1.235913,2.653693 l 0.254289,0.331092 0.304871,-1.003724 c 0.16768,-0.552048 0.326895,-0.981548 0.353811,-0.954443 0.02692,0.0271 0.615303,1.606463 1.307528,3.509687 l 1.258589,3.460407 0.0085,2.080498 0.0085,2.080497 0.44319,-0.900397 c 1.823188,-3.704032 1.815443,-3.680095 2.319127,-7.168545 0.255759,-1.771358 0.49898,-3.220651 0.540491,-3.220651 0.04151,0 0.751251,1.091646 1.577201,2.42588 l 1.501725,2.42588 0.658776,-0.551558 c 0.362326,-0.303357 0.737969,-0.646981 0.834761,-0.763609 0.09679,-0.116627 0.227694,-0.21205 0.290893,-0.21205 0.103607,0 0.959351,1.146193 0.959351,1.284965 0,0.0809 -10.783343,10.274698 -10.90943,10.312988 -0.05671,0.01722 -2.701492,-2.431679 -5.877283,-5.442003 z m 44.529835,3.599116 -1.83145,-1.187484 -0.63066,-1.239311 c -1.68535,-3.311864 -3.04499,-5.007735 -4.43336,-5.529709 -0.35148,-0.132143 -0.43693,-0.119608 -0.55409,0.08128 -0.28053,0.481009 -1.6898,2.35077 -1.90389,2.526003 -0.12155,0.0995 -0.83377,0.239934 -1.58271,0.312082 l -1.36169,0.131179 -1.293885,1.341564 c -0.942203,0.976923 -1.342874,1.306258 -1.474122,1.211667 -1.341004,-0.966466 -2.748752,-1.827648 -3.283551,-2.008695 l -0.666344,-0.22558 3.913041,-3.737278 c 2.152171,-2.055502 5.393491,-5.143529 7.202931,-6.862281 l 3.28989,-3.125004 0.93505,0.07391 c 0.9139,0.07224 0.95698,0.09349 1.90471,0.939803 4.65773,4.159307 6.67251,9.360115 5.5317,14.279176 -0.34717,1.496979 -1.53252,4.20778 -1.83938,4.206534 -0.0499,-2.03e-4 -0.91489,-0.534736 -1.92219,-1.187852 z M 33.501132,80.526125 c -1.053943,-2.309028 -1.337222,-3.71882 -1.238669,-6.164463 0.08882,-2.204111 0.374703,-3.326688 1.349294,-5.298283 0.881862,-1.784005 2.100973,-3.390489 3.898182,-5.136829 1.379788,-1.340735 1.466979,-1.400222 2.175281,-1.48411 l 0.737879,-0.08739 5.978288,5.697123 c 7.657134,7.297013 8.140839,7.762763 8.094613,7.794138 -0.02117,0.01437 -0.250888,0.110843 -0.510492,0.214391 -0.545658,0.217646 -2.421451,1.411995 -2.902988,1.84838 l -0.327497,0.296789 -1.269203,-1.34782 -1.269203,-1.347821 -1.450798,-0.149648 c -1.658764,-0.171101 -1.641348,-0.158955 -2.92183,-2.037633 -0.376481,-0.552359 -0.76053,-1.003704 -0.853442,-1.002989 -0.09291,7.15e-4 -0.488193,0.184413 -0.8784,0.408218 -1.095098,0.628097 -2.423316,2.432224 -3.854963,5.236218 -0.340106,0.666124 -0.781578,1.326686 -0.981051,1.467916 -0.698461,0.494522 -3.158466,2.028841 -3.252884,2.028841 -0.05243,0 -0.287384,-0.420763 -0.522117,-0.935028 z M 85.767571,69.545752 84.80186,68.166681 84.313084,68.617998 c -0.268827,0.248224 -0.652106,0.5935 -0.851733,0.76728 l -0.362957,0.315963 -1.91308,-3.089383 c -1.052193,-1.699161 -2.820149,-4.42959 -3.928791,-6.06762 -1.108642,-1.63803 -2.203821,-3.270696 -2.433732,-3.628147 -0.229911,-0.357451 -0.449188,-0.652704 -0.487282,-0.656118 -0.03809,-0.0034 -0.267307,0.444883 -0.509364,0.996217 -1.009634,2.299651 -1.999276,4.496138 -2.226257,4.941128 -0.133438,0.261601 -0.886148,1.147563 -1.672688,1.968805 -1.539382,1.607298 -1.328409,1.241601 -3.008128,5.214225 L 66.726479,69.835839 66.18693,69.560582 C 65.890178,69.40919 65.012203,68.812609 64.235875,68.234847 l -1.411505,-1.050478 -0.542812,1.174913 c -0.298546,0.646202 -0.583397,1.336619 -0.633001,1.534259 -0.0496,0.197641 -0.13958,0.341048 -0.199945,0.318683 -0.09551,-0.03539 -4.928426,-4.585787 -8.653369,-8.147528 -0.685687,-0.655644 -1.963558,-1.867423 -2.839714,-2.692842 -0.876155,-0.825418 -1.739906,-1.6398 -1.919445,-1.809737 l -0.326435,-0.308976 1.780923,-0.694619 c 7.41968,-2.893924 14.71452,-4.261457 23.598234,-4.423861 8.325069,-0.152192 15.353506,0.747135 22.39384,2.865413 1.648271,0.495927 5.160854,1.76744 5.670504,2.052653 0.14207,0.07951 -1.41905,1.638579 -5.721218,5.713692 -3.254134,3.082391 -6.502475,6.165363 -7.218537,6.85105 -0.716061,0.685687 -1.342021,1.26035 -1.391021,1.277029 -0.049,0.01668 -0.523661,-0.590256 -1.054803,-1.348746 z"
             id="path9"
             style="fill:#fec524;fill-opacity:1" /><path
             style="fill:#fec524;fill-opacity:1"
             d="m 62.884766,37.716797 c -0.2307,0.0043 -0.438544,0.02055 -0.699219,0.04297 -0.521351,0.04484 -1.214195,0.122739 -2.080078,0.230468 -6.761188,0.841197 -13.724641,3.682761 -19.25,7.841797 -0.323521,0.24352 -0.216578,0.168596 -0.433594,0.324219 -0.57961,-0.177508 -1.190736,-0.193863 -1.802734,-0.0918 l 0.341796,0.314453 c -0.12063,-0.111193 -0.328074,-0.189816 -0.46289,-0.298828 -0.292882,0.05611 -0.564749,0.0038 -0.871094,0.109375 l 0.679688,-0.234375 c -0.316972,-0.236786 -0.582292,-0.497917 -1.029297,-0.666016 -0.731247,-0.274987 -1.680509,-0.310357 -2.4375,-0.0918 -1.513984,0.43712 -2.328208,1.325171 -3.419922,2.447265 -0.586314,0.60263 -0.976567,1.010293 -1.337891,1.494141 -0.361323,0.483848 -0.702295,1.221632 -0.798828,1.792969 -0.105507,0.624494 -0.09026,1.471014 0.183594,2.205078 0.165741,0.44427 0.4338,0.71982 0.673828,1.044922 -0.0456,0.388296 -0.02042,0.740182 0.0098,1.097656 0.05987,0.708914 0.188849,1.397352 0.734375,2.220703 -0.0026,0.0036 -0.0052,0.0081 -0.0078,0.01172 l -0.658203,-0.96875 c -4.512189,5.926619 -7.360118,12.524107 -8.363281,19.554687 -0.08612,0.60357 -0.158188,1.155915 -0.207032,1.585938 -0.02442,0.215011 -0.0436,0.393919 -0.05664,0.564453 -0.0065,0.08527 -0.01186,0.162175 -0.01367,0.291015 -9.04e-4,0.06442 -0.0048,0.134753 0.0098,0.296875 0.0073,0.08106 0.01413,0.180565 0.0625,0.378907 0.02418,0.09917 0.05843,0.223742 0.138671,0.408203 0.04012,0.09223 0.171654,0.329724 0.171875,0.330078 2.22e-4,3.54e-4 0.353278,0.443121 0.353516,0.443359 2.39e-4,2.39e-4 0.952804,0.595593 0.953125,0.595703 3.22e-4,1.11e-4 0.915612,0.134782 0.916016,0.134766 4.04e-4,-1.6e-5 0.603029,-0.09751 0.603515,-0.09766 4.87e-4,-1.42e-4 0.270483,-0.09405 0.365235,-0.138672 0.379007,-0.178478 0.477815,-0.289925 0.570312,-0.369141 0.184995,-0.158432 0.228212,-0.221179 0.279297,-0.279297 0.10217,-0.116234 0.152429,-0.182139 0.212891,-0.261718 0.120924,-0.159158 0.248452,-0.339164 0.402343,-0.558594 0.307784,-0.438859 0.705411,-1.022862 1.136719,-1.675781 0.63357,-0.959104 1.311051,-1.829052 2.052735,-2.878907 -0.01791,2.381302 0.369801,4.396613 1.419921,6.697266 0.117669,0.257795 0.2341,0.482374 0.351563,0.701172 l -0.113281,0.07227 1.796875,2.554687 c 0.314979,0.447988 0.48699,0.6041 0.814453,0.964844 0.327462,0.360744 0.721247,0.780905 1.121094,1.193359 5.135485,5.297402 13.046291,9.141601 22.628906,11.326172 0.561093,0.127914 1.078151,0.245573 1.46289,0.332031 0.06014,0.01351 0.09317,0.02127 0.146485,0.0332 0.08791,0.284733 0.04244,0.572999 0.185547,0.853516 0.589837,1.156175 1.131846,1.527985 1.800781,2.150385 0.334468,0.31121 0.673589,0.60326 1.023437,0.86719 0.349849,0.26393 0.536443,0.50774 1.392579,0.76953 1.519246,0.46456 2.427833,0.31786 3.751953,-0.38281 0.550725,-0.29143 0.455064,-0.29739 0.566406,-0.38867 0.111342,-0.0913 0.225493,-0.18908 0.357422,-0.30469 0.263857,-0.23121 0.595603,-0.53034 0.986328,-0.88867 0.366926,-0.33651 0.892992,-0.83961 1.34375,-1.26172 H 74.474609 78.125 c 0.658668,0.61471 1.301392,1.21297 1.771484,1.64258 0.280492,0.25634 0.514729,0.46649 0.701172,0.63086 0.09322,0.0822 0.172985,0.15176 0.25586,0.2207 0.08287,0.0689 -0.149146,0.0141 0.550781,0.375 1.092125,0.56323 2.35872,0.7038 3.550781,0.38281 0.831999,-0.22403 1.104449,-0.48574 1.490234,-0.75976 0.385786,-0.27403 0.756285,-0.57922 1.115235,-0.9043 0.358949,-0.32508 0.700752,-0.66408 1.013672,-1.02148 0.31292,-0.35741 0.595677,-0.63392 0.898437,-1.353517 0.09072,-0.215622 0.06888,-0.394309 0.134766,-0.597657 3.200598,-0.485714 8.875225,-2.214225 12.238278,-3.652343 5.27333,-2.254994 10.05566,-5.324281 12.9336,-8.582032 0.31597,-0.357678 0.56599,-0.608382 0.86718,-0.992187 0.21171,-0.269768 0.4941,-0.85524 0.61524,-1.583985 0.0991,-0.06723 0.36547,-0.09682 0.43359,-0.15039 0.25516,-0.200674 0.37597,-0.347847 0.48047,-0.476563 0.20901,-0.257431 0.32305,-0.450701 0.44141,-0.65625 0.23671,-0.411097 0.4462,-0.852493 0.66015,-1.341797 0.42792,-0.978606 0.84006,-2.066602 1.08008,-3.101562 0.21539,-0.928728 0.17192,-1.863172 0.20117,-2.796875 0.48953,0.700126 1.05242,1.415255 1.50977,2.101562 0.46973,0.704877 0.90137,1.337882 1.23047,1.808594 0.16455,0.235357 0.30002,0.427082 0.41992,0.587891 0.06,0.0804 0.10897,0.147018 0.19531,0.25 0.0432,0.05149 0.0803,0.103168 0.22461,0.240234 0.0722,0.06853 0.14247,0.156688 0.44922,0.339844 0.0767,0.04579 0.30421,0.156046 0.30469,0.15625 4.8e-4,2.04e-4 0.55234,0.162042 0.55273,0.162109 3.9e-4,6.8e-5 0.9958,-0.02727 0.9961,-0.02734 3e-4,-7e-5 1.19901,-0.667761 1.19922,-0.667969 0.63514,-0.635123 0.62351,-0.992068 0.67578,-1.210938 0.0523,-0.218869 0.0589,-0.338379 0.0664,-0.439453 0.0149,-0.202147 0.0104,-0.315391 0.006,-0.429687 -0.009,-0.228594 -0.0288,-0.431492 -0.0547,-0.667969 -0.0517,-0.472953 -0.13297,-1.047157 -0.23046,-1.673828 -0.19499,-1.253342 -0.44662,-2.664988 -0.69336,-3.683594 -1.30124,-5.371781 -4.0516,-10.897935 -7.57813,-15.566406 l -0.6875,0.800781 c -0.0281,-0.03956 -0.0503,-0.06839 -0.0781,-0.107422 0.24629,-0.356376 0.39633,-0.722158 0.51757,-1.089844 -0.0376,-0.04866 -0.0599,-0.109746 -0.0977,-0.158203 l 0.10742,0.138672 c 0.21573,-0.666198 0.25828,-1.345444 0.13477,-2.039062 0.70285,-0.984121 1.16898,-2.198593 0.9375,-3.433594 -0.12874,-0.686837 -0.51345,-1.347242 -0.88868,-1.816406 -0.37522,-0.469165 -0.80421,-0.907363 -1.44336,-1.544922 -0.83611,-0.834046 -1.36965,-1.397404 -2.22851,-1.892578 -0.85886,-0.495174 -2.21855,-0.581544 -2.92774,-0.425782 -0.72425,0.159071 -0.92724,0.340716 -1.23437,0.529297 -0.12714,0.07806 -0.24522,0.184678 -0.36719,0.271485 l 0.6543,0.197265 c -0.27164,-0.08175 -0.56403,-0.02278 -0.84766,-0.05273 -0.10726,0.08296 -0.21819,0.144409 -0.32617,0.240234 l 0.27539,-0.24414 c -0.58811,-0.05569 -1.14665,-0.03433 -1.71875,0.123047 -0.21716,-0.16379 -0.27625,-0.205929 -0.51172,-0.384766 -5.80008,-4.405199 -13.259209,-7.298803 -20.574216,-7.990234 -0.401798,-0.03798 -0.769916,-0.06731 -1.066407,-0.08594 -0.148245,-0.0093 -0.274308,-0.01644 -0.410156,-0.01953 -0.06792,-0.0015 -0.132444,-0.0035 -0.255859,0.002 -0.06171,0.0027 -0.130421,0.0048 -0.291016,0.0293 -0.0803,0.01223 -0.182015,0.02623 -0.36914,0.08398 -0.09356,0.02888 -0.20919,0.06737 -0.373047,0.148438 -0.08193,0.04054 -0.284904,0.165846 -0.285157,0.166015 -2.52e-4,1.7e-4 -0.374823,0.308417 -0.375,0.308594 -1.76e-4,1.77e-4 -0.595622,0.948987 -0.595703,0.949219 -8e-5,2.32e-4 -0.132828,0.956745 -0.132812,0.957031 1.6e-5,2.86e-4 0.119029,0.638332 0.11914,0.638672 1.12e-4,3.4e-4 0.110668,0.286394 0.16211,0.384766 0.205769,0.393487 0.327645,0.485926 0.414062,0.576171 0.172834,0.180491 0.234911,0.218489 0.292969,0.263672 0.116116,0.09037 0.174661,0.12678 0.242188,0.171875 0.135053,0.09019 0.274829,0.178601 0.445312,0.283203 0.340967,0.209206 0.788104,0.472487 1.287109,0.759766 4.229524,2.434953 8.891616,5.798096 13.214844,9.546875 0.667689,0.578965 1.042339,0.899851 1.488279,1.285156 -4.2e-4,0.0026 -0.002,0.0052 -0.002,0.0078 -0.42847,-0.165979 -0.91045,-0.348815 -1.441407,-0.541016 -1.178282,-0.426524 -2.473145,-0.871801 -3.392578,-1.148437 -7.292978,-2.194293 -14.629423,-3.126655 -23.160156,-2.970703 -9.115141,0.166634 -16.772847,1.595137 -24.460938,4.59375 l -0.662109,0.257812 c -0.0017,-0.03956 -0.02681,-0.08917 -0.0293,-0.128906 4.109148,-3.770447 10.298305,-8.361715 14.837891,-10.958985 0.463735,-0.265321 0.883487,-0.512163 1.207031,-0.708984 0.161772,-0.09841 0.296088,-0.181658 0.423828,-0.265625 0.06387,-0.04198 0.122375,-0.07881 0.220703,-0.152344 0.04916,-0.03677 0.102181,-0.07417 0.224609,-0.1875 0.06122,-0.05667 0.140177,-0.124656 0.279297,-0.302734 0.06956,-0.08904 0.263317,-0.417262 0.263672,-0.417969 1.78e-4,-3.53e-4 0.165927,-0.419618 0.166016,-0.419922 8.9e-5,-3.03e-4 0.101562,-0.704825 0.101562,-0.705078 0,-10e-4 -0.282712,-1.155307 -0.283203,-1.15625 -2.45e-4,-4.71e-4 -0.275023,-0.421422 -0.27539,-0.421875 -3.68e-4,-4.53e-4 -0.192683,-0.216414 -0.283204,-0.296875 -0.362082,-0.321844 -0.619064,-0.413013 -0.800781,-0.480469 -0.363432,-0.13491 -0.503292,-0.132862 -0.625,-0.146484 -0.243415,-0.02724 -0.34754,-0.02168 -0.46289,-0.01953 z m -15.34961,15.029297 c -0.04724,-0.09136 -0.008,-0.08348 0.08203,0.24414 0.0057,0.0207 -0.0126,0.06988 -0.0078,0.09375 -0.05103,-0.124839 -0.0043,-0.202613 -0.07422,-0.33789 z m 62.306644,1.208984 c 0.2677,0.250304 0.43309,0.392003 1.14062,1.101563 0.6234,0.625177 0.9478,0.931578 1.35938,1.279296 l -2.14453,2.175782 0.11523,0.148437 -0.40625,0.208985 -1.99219,-0.945313 -2.59179,2.501953 C 104.2611,61.450162 94.291362,70.947345 83.625,81.091797 c -2.040726,1.940872 -3.531541,3.3627 -4.523438,4.318359 -0.495948,0.47783 -0.866104,0.837672 -1.126953,1.095703 -0.130424,0.129016 -0.230732,0.231214 -0.320312,0.324219 -0.04479,0.0465 -0.08444,0.08718 -0.140625,0.150391 -0.05618,0.06321 -0.01791,-0.227315 -0.423828,0.636718 -3.42e-4,7.28e-4 -0.174725,0.4642 -0.207032,0.66211 -0.03231,0.19791 -0.03535,0.368093 -0.0293,0.511719 0.0121,0.287251 0.06187,0.475917 0.105468,0.621093 0.0872,0.290353 0.163533,0.420076 0.222657,0.525391 0.118246,0.210629 0.187571,0.292628 0.25,0.373047 0.124858,0.160837 0.217535,0.260877 0.324218,0.375 0.213368,0.228246 0.460726,0.469822 0.740235,0.728515 1.629651,1.508288 3.296428,3.095223 4.568359,4.337891 0.635966,0.621334 1.174604,1.159492 1.548828,1.544922 0.07187,0.07403 0.101377,0.108099 0.160156,0.169922 -0.145616,0.162786 -0.350258,0.371022 -0.570312,0.570312 -0.190666,0.172676 -0.370412,0.313451 -0.529297,0.433594 -0.125054,-0.112298 -0.233749,-0.207419 -0.404297,-0.363281 -0.536335,-0.490149 -1.267969,-1.169149 -2.070312,-1.919922 -1.604687,-1.501547 -3.498877,-3.300183 -4.72461,-4.494141 -0.163189,-0.158958 -0.562321,-0.513297 -1.1875,-0.68164 -0.625179,-0.168344 -1.269785,-0.05589 -1.644531,0.08203 -0.749492,0.275841 -0.945539,0.523584 -1.287109,0.810547 -0.683141,0.573927 -1.619934,1.471363 -3.44336,3.210937 -1.048567,1.00035 -2.045635,1.931806 -2.792968,2.617188 -0.343833,0.31533 -0.616203,0.561204 -0.828125,0.748047 -0.144101,-0.116799 -0.294885,-0.236395 -0.464844,-0.394532 -0.392866,-0.365537 -0.666638,-0.761249 -0.640625,-0.65039 0.03378,-0.03853 -0.006,0.0107 0.02734,-0.02344 0.203413,-0.208445 0.497493,-0.501743 0.849609,-0.847656 0.704232,-0.691826 1.645357,-1.598823 2.638672,-2.537109 1.013967,-0.957795 1.929221,-1.837307 2.601562,-2.498047 0.336171,-0.33037 0.60923,-0.603711 0.81836,-0.820313 0.104564,-0.1083 0.18909,-0.19733 0.285156,-0.30664 0.04803,-0.05465 0.09586,-0.10615 0.1875,-0.230469 0.04582,-0.06216 0.102192,-0.12911 0.207031,-0.326172 0.05242,-0.09853 0.122328,-0.225313 0.199219,-0.494141 0.03845,-0.134413 0.09372,-0.56188 0.09375,-0.5625 3.1e-5,-6.19e-4 -0.169753,-1.03863 -0.169922,-1.039062 -1.69e-4,-4.32e-4 -0.123488,-0.272396 -0.166016,-0.345703 -0.04253,-0.07331 -0.07494,-0.12129 -0.101562,-0.160156 -0.05324,-0.07773 -0.08481,-0.117141 -0.111328,-0.150391 -0.05303,-0.0665 -0.08262,-0.09725 -0.107422,-0.125 -0.04961,-0.0555 -0.08006,-0.08843 -0.115234,-0.125 -0.07035,-0.07314 -0.146591,-0.148923 -0.240235,-0.242188 -0.187287,-0.186529 -0.440613,-0.435836 -0.75,-0.736328 C 69.71325,85.264249 68.872914,84.458126 67.953117,83.582028 63.176261,79.032124 50.583358,67.045581 47.246086,63.873044 45.688379,62.392229 43.9224,60.701935 43.371086,60.166013 l -2.347657,-2.279297 -1.925781,0.996093 c -0.07312,-0.01916 -0.181939,-0.07811 0.09375,0.06445 l -0.109375,-0.05664 -0.08398,0.04297 c 0.253168,-0.130918 0.142175,-0.07306 0.0625,-0.05469 l -0.363281,-0.1875 0.117187,-0.144531 -2.15625,-2.158203 1.560547,-1.558594 c 0.44712,-0.446199 0.671097,-0.640568 0.925781,-0.871094 0.26232,0.235228 0.50107,0.443113 0.964844,0.902344 0.838548,0.830333 1.148982,1.233035 2.054687,1.765625 l -0.126953,0.244141 5.802735,5.501953 c 2.442478,2.315943 4.536468,4.298932 4.820312,4.564453 -0.02561,-0.02396 3.591143,3.395943 7.691406,7.275391 4.100264,3.879447 8.840536,8.365316 11.541016,10.921875 l 2.568359,2.43164 2.230469,-2.064453 c 0.727854,-0.673663 2.470283,-2.318048 4.146485,-3.912109 1.664595,-1.583026 7.401598,-7.014836 16.34375,-15.47461 3.657833,-3.460514 6.945443,-6.579374 7.548833,-7.169922 l 2.19726,-2.152343 -0.0683,-0.13086 c 0.76011,-0.433152 1.07017,-0.830745 1.65625,-1.427734 0.52657,-0.536384 0.99151,-0.966977 1.32617,-1.279297 z m -37.439456,0.71875 c -0.0085,0.01068 -0.03503,0.03498 -0.04297,0.04492 -0.130115,0.162981 -0.173478,0.240306 -0.21875,0.314453 -0.09054,0.148295 -0.146235,0.256183 -0.208984,0.378906 -0.125499,0.245447 -0.256996,0.526579 -0.394532,0.839844 -1.003453,2.285575 -2.113649,4.70976 -2.164062,4.808594 0.278776,-0.546531 -0.0054,-0.01798 -0.269531,0.292969 -0.264178,0.310944 -0.624228,0.709986 -0.982422,1.083984 -0.743641,0.77645 -1.303122,1.31966 -1.810547,2.199219 -0.20428,0.354094 -0.486321,1.085368 -0.681641,1.517578 l -3.783203,-2.814453 -1.240234,2.683593 C 60.450251,65.877554 60.361906,65.79564 60.197265,65.640623 58.516682,64.058281 56.37993,62.032965 54.523436,60.25781 c -0.524269,-0.501298 -1.38529,-1.315734 -2.152343,-2.041015 6.260193,-2.212367 12.519419,-3.344211 20.03125,-3.542969 z m 3.976562,0.121094 c 6.637412,0.124898 12.568392,0.850181 18.382813,2.599609 0.455727,0.137118 1.245202,0.417498 1.958984,0.664063 -0.852736,0.827487 -1.567717,1.528486 -3.007812,2.892578 -2.952077,2.796276 -5.481713,5.199693 -6.554688,6.222656 l -1.949219,-2.785156 -1.564453,1.445312 -0.333984,-0.539062 c -1.080994,-1.745671 -2.844428,-4.46806 -3.984375,-6.152344 -1.104796,-1.632348 -2.250866,-3.345653 -2.400391,-3.578125 -0.141157,-0.219463 -0.275913,-0.416224 -0.412109,-0.599609 -0.03892,-0.05241 -0.09026,-0.114233 -0.134766,-0.169922 z M 43.037109,54.90625 c 0.0017,0.003 0.0062,0.01271 0.0078,0.01563 l -0.01758,0.0332 c 0.0039,0.01714 -0.01178,-0.03498 -0.01172,-0.01758 9.2e-5,0.02706 0.02876,-0.05412 0.02148,-0.03125 z m 31.710938,6.386719 c 0.189302,0.280324 -0.292417,0.645279 -1.3e-5,0 z m -34.863281,2.458984 c 0.03729,0.03625 0.194777,0.184529 0.240234,0.228516 l -0.0039,0.002 z m 69.550784,1.232422 c -0.005,0.0074 -0.0431,-0.02515 0.28906,0.271484 4.15262,3.708252 5.66856,7.939383 4.76172,11.84961 -0.0573,0.247006 -0.26497,0.753028 -0.42188,1.191406 l -0.8125,-0.527344 -0.32617,-0.642578 c -1.77539,-3.488793 -3.22654,-5.773902 -5.78125,-6.734375 -0.26258,-0.09872 -0.6001,-0.366515 -1.60742,-0.21875 -0.50366,0.07388 -1.09276,0.373797 -1.42578,0.677734 -0.33302,0.303938 -0.47033,0.548436 -0.56055,0.703125 0.0674,-0.115508 -0.42223,0.613062 -0.8125,1.13086 -0.11819,0.156809 -0.21614,0.279766 -0.32226,0.416015 -0.14636,0.02161 -0.26869,0.04485 -0.43164,0.06055 l -1.26758,0.123047 c 2.08092,-1.985801 4.69309,-4.476981 6.26562,-5.970703 z m -69.640628,0.226562 4.880859,4.650391 c 1.797953,1.713393 2.161656,2.063203 3.253906,3.105469 l -0.908203,-0.09375 c -0.834499,-0.08608 -0.688968,-0.123586 -0.427734,0.05859 0.261234,0.182179 -0.04179,-0.07595 -0.683594,-1.017579 -0.232576,-0.341227 -0.460054,-0.64344 -0.695312,-0.919921 -0.117629,-0.138241 -0.228337,-0.265078 -0.40625,-0.429688 -0.08896,-0.08231 -0.188984,-0.174182 -0.388672,-0.306641 -0.199688,-0.132458 -0.419033,-0.445427 -1.449219,-0.4375 -0.83333,0.0064 -0.817068,0.130607 -0.970703,0.1875 -0.153635,0.05689 -0.26958,0.109763 -0.390625,0.166016 -0.242091,0.112506 -0.485165,0.238469 -0.740234,0.384766 -2.130547,1.221982 -3.318968,3.294599 -4.837891,6.269531 -0.123031,0.240965 -0.281879,0.506254 -0.396484,0.677734 -0.114606,0.171481 -0.493331,0.375672 0.197265,-0.113281 -0.08234,0.0583 -0.444333,0.286188 -0.664062,0.429688 -0.316263,-0.990205 -0.467401,-1.890353 -0.408203,-3.359375 0.0815,-2.022586 0.200146,-2.483257 1.09375,-4.291016 0.740467,-1.497963 1.745549,-2.847021 3.398437,-4.453125 0.36925,-0.358799 0.372971,-0.353991 0.542969,-0.507813 z m 31.09375,5.806641 2.607422,3.394531 0.28125,0.771485 0.0059,1.644531 0.0059,1.675781 c -0.987378,-0.918875 -2.108135,-1.966563 -3.439453,-3.228515 l -0.767578,-0.730469 h -0.002 l -0.136719,-0.128906 z m -20.580078,4.220703 c 0.03231,0.03096 0.123089,0.116574 0.154297,0.146485 -0.261369,0.203623 -0.603475,0.311628 -0.884766,0.5625 l -0.02344,-0.02539 z m 24.052734,3.800781 0.201172,0.04687 c -0.0011,0.001 -0.0028,0.0029 -0.0039,0.0039 -0.02969,0.02777 -0.04314,0.03918 -0.07227,0.06641 -0.02042,-0.0189 -0.0281,-0.02573 -0.04883,-0.04492 -0.01975,-0.01829 -0.05615,-0.05371 -0.07617,-0.07227 z m -28.439453,0.544922 h 0.002 l 0.228516,0.01953 0.951172,1.013671 3.1875,3.398438 2.726562,-2.177734 c 0.613581,-0.489994 1.446566,-1.036378 1.941406,-1.363282 0.151902,0.04257 0.155742,0.03893 0.392578,0.113282 l 0.925782,0.291015 2.447265,2.339844 c 1.577337,1.508357 3.526246,3.374351 4.322266,4.138672 0.472606,0.453786 0.913768,0.869363 1.402344,1.333984 -0.820241,0.787359 -1.983028,1.897725 -2.939453,2.798828 -0.636339,0.599533 -1.208597,1.168976 -1.671875,1.664063 -0.144647,0.154577 -0.249884,0.349246 -0.367188,0.46875 -0.18894,-0.04287 -0.328068,-0.07432 -0.53325,-0.121092 C 51.69391,91.850615 45.760811,89.133329 41.519531,85.875 l 3.222656,-4.748047 c 0.438459,-0.646019 1.063595,-1.392269 1.179688,-1.542969 z m 57.130855,0.298828 c 0.23098,0.263398 0.90441,1.132818 1.25586,1.671875 l 3.05469,4.685547 c -2.15672,1.54402 -4.66124,3.075966 -7.484374,4.283203 -2.544164,1.087942 -8.029639,2.683871 -10.394531,3.150391 -0.181919,-0.180445 -0.318026,-0.471314 -0.564453,-0.726562 -0.64752,-0.6707 -1.544091,-1.542448 -2.771485,-2.707032 -0.630288,-0.598033 -1.10725,-1.060349 -1.613281,-1.548828 0.861694,-0.835015 1.913416,-1.848322 3.136719,-3.013672 l 4.542969,-4.328125 1.195312,-0.376953 0.632813,-0.199219 c 0.363641,0.236677 1.19235,0.821216 1.714843,1.228516 l 2.935547,2.289063 2.714841,-2.871094 c 0.56316,-0.596068 1.12353,-1.191212 1.44727,-1.535156 0.0815,-0.01093 -0.0492,0.01616 0.19726,-0.002 z m -63.908199,3.423829 v 0.566406 c -0.105323,-0.104233 -0.255554,-0.195702 -0.357422,-0.300781 -0.0057,-0.0059 -0.0099,-0.01164 -0.01563,-0.01758 0.125205,-0.08342 0.256048,-0.168861 0.373047,-0.248046 z M 109.62891,83.5 c 0.005,0.0033 0.007,0.0064 0.0117,0.0098 0.17236,0.119172 0.38557,0.255819 0.57812,0.384765 -0.17041,0.168218 -0.44922,0.352278 -0.64062,0.525391 z m -19.740238,10.210937 0.515625,1.144532 c -0.290894,-0.645085 -0.584628,-0.821212 -0.853516,-1.097657 z"
             id="path10"
             sodipodi:nodetypes="csssccccccsssssscccccsscssssssssssssssscscccsssscsssssssscccssccssssscssscssssscsscscsssscccccsscccccccsssssscccccccsccccssssssssssssssccssscccssssssssssssssccsscsscscccccsssssssssssssssscscsssssssscsccsssssssssssssssssssccccccccccccsccccscccsscccsccscsssccsscccsscsscscsccccsssccccsccsssccccccscccssscscccccccccsssssssssssccssssccccccccccccccccccccsscccccccccccscssccccccccscsscccccccccccccscscccccccccc" /></g></g><path
         style="color:#000000;font-style:normal;font-variant:normal;font-weight:normal;font-stretch:normal;font-size:medium;line-height:normal;font-family:sans-serif;font-variant-ligatures:normal;font-variant-position:normal;font-variant-caps:normal;font-variant-numeric:normal;font-variant-alternates:normal;font-variant-east-asian:normal;font-feature-settings:normal;font-variation-settings:normal;text-indent:0;text-align:start;text-decoration-line:none;text-decoration-style:solid;text-decoration-color:#000000;letter-spacing:normal;word-spacing:normal;text-transform:none;writing-mode:lr-tb;direction:ltr;text-orientation:mixed;dominant-baseline:auto;baseline-shift:baseline;text-anchor:start;white-space:normal;shape-padding:0;shape-margin:0;inline-size:0;clip-rule:nonzero;display:inline;overflow:visible;visibility:visible;isolation:auto;mix-blend-mode:normal;color-interpolation:sRGB;color-interpolation-filters:linearRGB;solid-color:#000000;solid-opacity:1;vector-effect:none;fill:#0e2240;fill-opacity:1;fill-rule:nonzero;stroke:none;stroke-linecap:butt;stroke-linejoin:miter;stroke-miterlimit:4;stroke-dasharray:none;stroke-dashoffset:0;stroke-opacity:1;-inkscape-stroke:none;color-rendering:auto;image-rendering:auto;shape-rendering:auto;text-rendering:auto;enable-background:accumulate;stop-color:#000000;stop-opacity:1"
         d="m 43.001789,83.261203 c -0.574629,-0.175708 -2.373324,-1.849282 -2.721912,-2.532571 -0.365068,-0.715593 -0.296972,-1.696049 0.162846,-2.344692 0.177169,-0.249923 1.965172,-2.00643 3.973341,-3.903349 2.008168,-1.896918 3.633513,-3.494218 3.611877,-3.549555 -0.02164,-0.05534 -1.536421,-1.526569 -3.366189,-3.269404 C 39.886167,63.112938 27.289589,51.12442 23.95493,47.954367 22.393087,46.46962 20.640404,44.793271 20.060077,44.229146 l -1.055139,-1.025682 -0.4271,0.220862 c -0.537732,0.278072 -1.577807,0.284733 -2.102382,0.01346 l -0.401063,-0.207397 -2.052642,2.389128 c -1.852579,2.15627 -2.682168,3.170506 -4.9567348,6.059978 C 7.7457978,53.355352 5.637983,56.30921 4.10029,58.636984 3.2584802,59.911323 2.5447592,60.928997 2.5142433,60.898481 2.4837273,60.867961 2.5950733,59.887659 2.7616777,58.720023 3.7180911,52.017085 6.4285882,45.743075 10.825064,40.055644 l 0.900871,-1.165399 -0.326804,-0.481572 c -0.35712,-0.526247 -0.449283,-1.617498 -0.179225,-2.122107 0.123426,-0.230623 0.06574,-0.366348 -0.352488,-0.829271 -0.636689,-0.704738 -0.802866,-1.150176 -0.686357,-1.839786 0.07703,-0.455908 0.330295,-0.795061 1.463608,-1.959911 2.016394,-2.072506 2.822696,-2.305303 4.053874,-1.170443 l 0.584188,0.538487 0.590628,-0.203488 c 0.652581,-0.224832 1.53539,-0.08534 1.982136,0.313193 0.274524,0.244899 0.133196,0.320562 1.936123,-1.036534 5.147283,-3.874452 11.78099,-6.57827 18.054493,-7.358791 1.694604,-0.210835 2.701191,-0.297403 2.701191,-0.232307 0,0.0324 -0.732439,0.477962 -1.627641,0.990142 -4.915893,2.812569 -11.434768,7.642125 -15.72278,11.648336 -0.650935,0.608157 -0.65607,0.619767 -0.450198,1.017879 0.264562,0.511606 0.268126,1.561131 0.007,2.066063 l -0.201232,0.389139 4.439871,4.209859 c 2.441929,2.315422 4.605128,4.364447 4.807109,4.553389 0.282384,0.264154 13.84179,13.093328 19.243647,18.207295 l 0.86847,0.822185 0.512941,-0.474751 c 0.698165,-0.646185 2.450946,-2.29993 4.12216,-3.889248 1.673637,-1.591624 7.405744,-7.018981 16.348215,-15.479056 3.655596,-3.458397 7.038825,-6.671928 7.518287,-7.14118 L 82.2849,38.574582 82.071987,38.166279 C 81.799224,37.643202 81.799141,36.849513 82.071782,36.196992 82.28406,35.68894 82.28214,35.680354 81.879225,35.335674 81.655391,35.144192 80.63946,34.265388 79.621602,33.382777 75.186179,29.53671 70.416255,26.092949 66.014768,23.558996 c -0.965192,-0.555664 -1.736364,-1.028829 -1.713716,-1.051477 0.02265,-0.02265 0.662736,0.01757 1.422417,0.08938 6.811655,0.643853 13.91007,3.39964 19.298462,7.492159 0.638204,0.48472 1.275144,0.964852 1.415423,1.066959 0.216083,0.157285 0.303684,0.151469 0.573354,-0.03807 0.57237,-0.402282 1.255842,-0.51115 1.931812,-0.307713 l 0.616556,0.185556 0.589062,-0.522747 c 0.323984,-0.287511 0.772831,-0.563109 0.997437,-0.612441 0.852303,-0.187197 1.242498,0.03777 2.854462,1.64574 1.238976,1.235905 1.564675,1.643146 1.641364,2.052291 0.12752,0.680344 -0.111083,1.349071 -0.677091,1.897668 -0.457267,0.443201 -0.460686,0.455687 -0.273534,0.9989 0.239792,0.696003 0.112153,1.560434 -0.301402,2.04122 l -0.310136,0.360555 0.867612,1.112769 c 3.493402,4.480511 6.21467,10.011648 7.46489,15.172814 0.42205,1.742288 1.0249,5.617334 0.89423,5.748 -0.0267,0.02668 -0.80341,-1.084278 -1.72606,-2.468804 -2.995032,-4.494376 -6.697608,-9.321941 -10.296421,-13.424903 l -1.54821,-1.765094 -0.399743,0.206715 c -0.524409,0.271183 -1.430715,0.26288 -2.023764,-0.01854 l -0.47469,-0.225255 -1.347038,1.30035 c -1.131296,1.092084 -11.042695,10.532077 -21.709863,20.677296 -4.077837,3.878307 -5.952826,5.684798 -5.996215,5.777156 -0.02186,0.04653 0.356906,0.451707 0.841699,0.900397 3.294507,3.049158 6.715179,6.391131 6.914873,6.755782 0.287331,0.52468 0.314829,1.460083 0.06068,2.064147 -0.294693,0.700428 -2.183012,2.410568 -2.864286,2.594016 -0.584808,0.157472 -1.21093,0.08939 -1.75411,-0.190724 -0.228206,-0.117686 -5.321705,-4.883805 -7.821049,-7.318358 -0.228659,-0.222731 -0.450205,-0.0366 -4.092683,3.438378 -2.118017,2.020621 -4.015817,3.761101 -4.217335,3.867735 -0.496676,0.262817 -1.345163,0.354708 -1.849966,0.20035 z M 7.2634423,50.202848 c 1.684181,-2.693635 4.0015847,-5.95998 5.8631757,-8.264058 l 0.763132,-0.944524 -0.694936,-0.694936 -0.694936,-0.694936 -0.766503,1.018444 c -2.3218762,3.08505 -4.959792,7.744134 -6.3584102,11.230217 -0.5368906,1.33821 -1.3672918,3.666285 -1.3672918,3.833277 0,0.04193 0.521305,-0.836849 1.1584556,-1.952835 0.6371506,-1.115986 1.5809417,-2.704778 2.0973137,-3.530649 z m 93.8404877,3.322595 c -1.679122,-4.486541 -3.649738,-8.177171 -6.55355,-12.273696 -0.521197,-0.735273 -1.023174,-1.399556 -1.115506,-1.476184 -0.120801,-0.100256 -0.352372,0.04799 -0.825831,0.528677 l -0.657957,0.668001 1.611163,2.063717 c 2.449385,3.137387 6.819431,9.84798 7.913781,12.152314 0.52409,1.103549 0.31717,0.178851 -0.3721,-1.662829 z M 14.885756,35.329782 c 2.621692,-2.616296 2.747485,-2.615715 5.414365,0.02504 1.856132,1.837947 1.992537,1.90876 1.992537,1.034389 0,-0.371914 -3.332946,-3.730549 -3.92563,-3.955887 -0.492479,-0.18724 -1.210472,-0.187902 -1.710148,-0.0016 -0.214476,0.07998 -1.184729,0.936186 -2.156119,1.902687 -1.504259,1.49669 -1.766163,1.820909 -1.766163,2.186386 0,0.407402 0.08866,0.613807 0.263645,0.613807 0.04342,0 0.892802,-0.812179 1.887513,-1.804843 z M 87.099717,33.89369 c 0.483876,-0.401343 0.717767,-0.499176 1.193392,-0.499176 0.715548,0 0.777612,0.0465 2.891016,2.165948 1.549049,1.553479 1.649503,1.628708 1.835425,1.374534 0.108177,-0.14789 0.196687,-0.360706 0.196687,-0.472925 0,-0.298999 -3.45502,-3.759265 -3.978076,-3.984118 -0.619705,-0.2664 -1.343164,-0.239155 -1.949285,0.07341 -0.796989,0.41099 -3.769222,3.494559 -3.769222,3.910413 0,0.802518 0.276498,0.683158 1.64378,-0.709595 0.733951,-0.747623 1.605278,-1.583944 1.936283,-1.858491 z m 7.638147,-0.388153 c 0.0025,-0.282377 -2.259095,-2.694554 -2.639637,-2.815333 -0.146969,-0.04665 -0.399801,-0.04273 -0.561849,0.0087 -0.261322,0.08294 -0.10929,0.27934 1.344719,1.737148 1.597606,1.601778 1.850654,1.747532 1.856767,1.069485 z m -81.75391,-1.122174 c 0.85844,-0.860883 1.517137,-1.608905 1.463771,-1.662271 -0.314899,-0.3149 -0.804412,-0.0409 -1.868356,1.045782 -0.615393,0.628546 -1.207643,1.274282 -1.316112,1.434969 -0.183251,0.27147 -0.139612,0.746762 0.06856,0.746762 0.05023,0 0.793692,-0.704359 1.652133,-1.565242 z m 9.19693,0.276175 c 3.759301,-3.162591 8.589157,-6.089555 13.045976,-7.906053 1.356111,-0.55272 2.082505,-0.931417 1.402889,-0.73138 -0.152375,0.04485 -0.858814,0.20973 -1.569864,0.3664 -4.726142,1.041339 -9.516925,3.331334 -13.990704,6.687559 l -1.292739,0.969811 0.66418,0.67432 c 0.365299,0.370876 0.709727,0.674319 0.765396,0.674319 0.05567,0 0.494358,-0.330739 0.974866,-0.734976 z m 63.186425,0.06511 0.659799,-0.669872 -1.080574,-0.832851 c -4.568253,-3.520978 -9.388388,-5.80646 -14.65579,-6.949088 -1.1493,-0.249312 -1.718256,-0.289201 -1.093377,-0.07666 1.268786,0.431561 4.648671,1.993254 6.283505,2.903326 3.13548,1.745443 5.347649,3.24587 8.088296,5.485971 0.544173,0.444787 1.022916,0.808779 1.063874,0.808872 0.04096,9.3e-5 0.371378,-0.301273 0.734267,-0.669702 z M 51.382407,78.54834 c 0.799968,-0.758173 1.49273,-1.378987 1.539471,-1.379588 0.04674,-6e-4 0.732428,0.619469 1.523749,1.377932 l 1.438765,1.379024 -2.978236,5.64e-4 -2.978236,5.63e-4 z M 36.813437,78.210062 C 27.56744,76.10223 20.075908,72.379494 15.424339,67.581266 14.66393,66.796881 13.90575,65.961645 13.739496,65.725186 l -0.302281,-0.429927 1.673466,-1.081763 c 0.920406,-0.59497 1.857012,-1.236207 2.081347,-1.424972 0.224334,-0.188765 0.713003,-0.942214 1.08593,-1.67433 0.961039,-1.886679 0.866871,-1.824253 1.36487,-0.904796 0.394459,0.72829 0.433469,0.912807 0.433469,2.050303 v 1.249989 l 1.029604,-1.517002 c 0.566282,-0.834352 1.309039,-1.789739 1.650571,-2.123082 l 0.620967,-0.60608 1.186192,0.09881 1.186192,0.09881 1.608888,1.714869 1.608889,1.714869 0.922099,-0.73637 c 0.909527,-0.72633 2.311469,-1.700719 2.871845,-1.996012 0.22893,-0.120636 0.589542,-0.05666 1.770767,0.314171 l 1.483293,0.465656 2.869741,2.74424 c 1.578357,1.509332 3.52426,3.372695 4.324228,4.140806 0.799968,0.768112 1.867967,1.78515 2.373331,2.260085 l 0.918844,0.863518 -1.403673,1.355904 c -0.77202,0.745748 -2.321103,2.22027 -3.442407,3.276716 -1.208127,1.138248 -2.167441,2.163427 -2.354647,2.516313 -0.173751,0.327525 -0.347187,0.59146 -0.385411,0.586523 -0.03822,-0.0049 -0.984203,-0.217504 -2.102173,-0.47237 z m 29.744248,-0.05711 c -0.178827,-0.396566 -1.267194,-1.523893 -3.697198,-3.829545 -1.894073,-1.797146 -3.443511,-3.310511 -3.443196,-3.363033 3.15e-4,-0.05252 2.23357,-2.222705 4.96279,-4.822628 l 4.962218,-4.727133 1.747187,-0.551595 1.747186,-0.551595 0.874137,0.551387 c 0.480775,0.303263 1.388306,0.952198 2.016735,1.442078 l 1.1426,0.890692 1.152104,-1.219426 c 0.633657,-0.670685 1.366191,-1.447258 1.627853,-1.725718 0.459148,-0.488625 0.517532,-0.509157 1.673193,-0.588405 l 1.197445,-0.08211 0.741872,0.803963 c 0.408029,0.442179 1.115883,1.377608 1.573007,2.078731 l 0.831136,1.274768 0.06926,-1.282543 c 0.06039,-1.118293 0.125222,-1.378758 0.506232,-2.033854 l 0.43697,-0.751313 0.764311,1.523993 c 0.454355,0.905958 0.951559,1.688138 1.226039,1.928755 0.25395,0.222619 1.224484,0.893644 2.156743,1.491167 1.940074,1.243472 1.887869,0.984358 0.512092,2.541709 -2.448584,2.771745 -7.046462,5.802909 -12.043688,7.939835 -3.095668,1.323777 -9.328931,3.183252 -11.851965,3.535618 l -0.631634,0.08821 z M 47.062729,59.359198 41.288564,53.88588 41.503658,53.371411 c 0.118301,-0.282958 0.267515,-0.652194 0.331587,-0.820523 0.115635,-0.303802 0.121886,-0.302387 0.849302,0.192281 0.969457,0.659263 2.25844,1.243427 2.96949,1.345763 l 0.574409,0.08267 1.131863,-2.661207 c 0.941964,-2.21472 1.224804,-2.747009 1.685823,-3.17262 0.317572,-0.29318 0.57705,-0.442964 0.608069,-0.351008 0.02976,0.08822 0.181746,0.548943 0.337748,1.023823 0.335206,1.020391 0.880163,2.190496 1.235913,2.653693 l 0.254289,0.331092 0.304871,-1.003724 c 0.16768,-0.552048 0.326895,-0.981548 0.353811,-0.954443 0.02692,0.0271 0.615303,1.606463 1.307528,3.509687 l 1.258589,3.460407 0.0085,2.080498 0.0085,2.080497 0.44319,-0.900397 c 1.823188,-3.704032 1.815443,-3.680095 2.319127,-7.168545 0.255759,-1.771358 0.49898,-3.220651 0.540491,-3.220651 0.04151,0 0.751251,1.091646 1.577201,2.42588 l 1.501725,2.42588 0.658776,-0.551558 c 0.362326,-0.303357 0.737969,-0.646981 0.834761,-0.763609 0.09679,-0.116627 0.227694,-0.21205 0.290893,-0.21205 0.103607,0 0.959351,1.146193 0.959351,1.284965 0,0.0809 -10.783343,10.274698 -10.90943,10.312988 -0.05671,0.01722 -2.701492,-2.431679 -5.877283,-5.442003 z m 44.529839,3.599116 -1.831453,-1.187484 -0.630664,-1.239311 c -1.68535,-3.311864 -3.044987,-5.007735 -4.433355,-5.529709 -0.351479,-0.132143 -0.436931,-0.119608 -0.554091,0.08128 -0.280531,0.481009 -1.689798,2.35077 -1.903887,2.526003 -0.121558,0.0995 -0.833778,0.239934 -1.58271,0.312082 l -1.361694,0.131179 -1.293885,1.341564 c -0.942203,0.976923 -1.342874,1.306258 -1.474122,1.211667 -1.341004,-0.966466 -2.748752,-1.827648 -3.283551,-2.008695 l -0.666344,-0.22558 3.913041,-3.737278 c 2.152173,-2.055502 5.393491,-5.143529 7.202929,-6.862281 l 3.289887,-3.125004 0.935053,0.07391 c 0.913906,0.07224 0.956981,0.09349 1.904711,0.939803 4.657734,4.159307 6.672508,9.360115 5.531702,14.279176 -0.347173,1.496979 -1.532521,4.20778 -1.839385,4.206534 -0.0499,-2.03e-4 -0.914883,-0.534736 -1.922182,-1.187852 z M 11.933256,62.795939 c -1.053943,-2.309028 -1.337222,-3.71882 -1.238669,-6.164463 0.08882,-2.204111 0.374703,-3.326688 1.349294,-5.298283 0.881862,-1.784005 2.100973,-3.390489 3.898182,-5.136829 1.379788,-1.340735 1.466979,-1.400222 2.175281,-1.48411 l 0.737879,-0.08739 5.978288,5.697123 c 7.657134,7.297013 8.140839,7.762763 8.094613,7.794138 -0.02117,0.01437 -0.250888,0.110843 -0.510492,0.214391 -0.545658,0.217646 -2.421451,1.411995 -2.902988,1.84838 l -0.327497,0.296789 -1.269203,-1.34782 -1.269203,-1.347821 -1.450798,-0.149648 c -1.658764,-0.171101 -1.641348,-0.158955 -2.92183,-2.037633 -0.376481,-0.552359 -0.76053,-1.003704 -0.853442,-1.002989 -0.09291,7.15e-4 -0.488193,0.184413 -0.8784,0.408218 -1.095098,0.628097 -2.423316,2.432224 -3.854963,5.236218 -0.340106,0.666124 -0.781578,1.326686 -0.981051,1.467916 -0.698461,0.494522 -3.158466,2.028841 -3.252884,2.028841 -0.05243,0 -0.287384,-0.420763 -0.522117,-0.935028 z m 52.266439,-10.980373 -0.965711,-1.379071 -0.488776,0.451317 c -0.268827,0.248224 -0.652106,0.5935 -0.851733,0.76728 l -0.362957,0.315963 -1.91308,-3.089383 c -1.052193,-1.699161 -2.820149,-4.42959 -3.928791,-6.06762 -1.108642,-1.63803 -2.203821,-3.270696 -2.433732,-3.628147 -0.229911,-0.357451 -0.449188,-0.652704 -0.487282,-0.656118 -0.03809,-0.0034 -0.267307,0.444883 -0.509364,0.996217 -1.009634,2.299651 -1.999276,4.496138 -2.226257,4.941128 -0.133438,0.261601 -0.886148,1.147563 -1.672688,1.968805 -1.539382,1.607298 -1.328409,1.241601 -3.008128,5.214225 l -0.192593,0.455491 -0.539549,-0.275257 c -0.296752,-0.151392 -1.174727,-0.747973 -1.951055,-1.325735 l -1.411505,-1.050478 -0.542812,1.174913 c -0.298546,0.646202 -0.583397,1.336619 -0.633001,1.534259 -0.0496,0.197641 -0.13958,0.341048 -0.199945,0.318683 -0.09551,-0.03539 -4.928426,-4.585787 -8.653369,-8.147528 -0.685687,-0.655644 -1.963558,-1.867423 -2.839714,-2.692842 -0.876155,-0.825418 -1.739906,-1.6398 -1.919445,-1.809737 l -0.326435,-0.308976 1.780923,-0.694619 c 7.41968,-2.893924 14.71452,-4.261457 23.598234,-4.423861 8.325069,-0.152192 15.353506,0.747135 22.39384,2.865413 1.648271,0.495927 5.160853,1.76744 5.670501,2.052653 0.142075,0.07951 -1.419047,1.638579 -5.721215,5.713692 -3.254134,3.082391 -6.502475,6.165363 -7.218537,6.85105 -0.716061,0.685687 -1.342021,1.26035 -1.391021,1.277029 -0.049,0.01668 -0.523661,-0.590256 -1.054803,-1.348746 z"
         id="path7" /><g
         id="g8"
         transform="translate(0.06720618,0.30194549)"
         style="stroke:#fec524;stroke-opacity:1"><g
           id="text2"
           inkscape:transform-center-x="52.525293"
           inkscape:transform-center-y="-1.3874606"
           style="fill:#fec524;fill-opacity:1;stroke:#fec524;stroke-opacity:1"
           transform="translate(0.09342975)"><path
             style="-inkscape-font-specification:Sportsball;fill:#fec524;fill-opacity:1;stroke:#fec524;stroke-opacity:1"
             d="m 23.692041,17.477356 -2.916312,-5.638943 -1.879648,0.972104 2.916313,5.638943 z m -4.666838,4.79596 -4.861709,-9.400533 7.518591,-3.888417 2.855234,0.908652 2.916313,5.638943 -0.909839,2.852938 z M 30.022849,16.988271 27.802048,6.640601 38.149718,4.4198 l 0.444594,2.071555 -6.209613,1.332697 0.444052,2.069029 6.209612,-1.332698 0.444052,2.069029 -6.209612,1.332698 0.444051,2.069028 6.209613,-1.332697 0.444052,2.069029 z M 41.954821,14.500527 41.283663,3.93853 l 8.447535,-0.536795 2.248825,1.9801 0.536795,8.447534 -4.226346,0.268562 -0.536795,-8.447535 -2.111884,0.134199 0.536796,8.447535 z M 58.341882,13.997245 54.386615,9.50499 54.78952,3.16677 l 4.223761,0.268494 -0.537152,8.450101 2.111881,0.134247 0.537152,-8.450101 4.22634,0.268658 -0.402905,6.33822 -4.494834,3.955103 z m 7.953409,0.437511 2.220766,-10.347677 10.347677,2.220766 -0.444587,2.071556 -6.209617,-1.332676 -0.444045,2.06903 6.209617,1.332677 -0.444044,2.06903 -6.209617,-1.332677 -0.444045,2.069031 6.209617,1.332676 -0.444045,2.06903 z m 19.668796,1.404925 1.944131,-3.759335 -1.879668,-0.972066 -1.94413,3.759336 z m -7.583134,0.843139 4.861514,-9.400633 7.518671,3.888261 0.908711,2.855215 -1.944131,3.759336 -0.0092,-0.0047 -1.418428,0.459103 0.455543,1.425312 -0.972066,1.879668 -3.76163,-1.945318 0.972065,-1.879667 -1.879668,-0.972066 -0.972065,1.879668 z"
             id="path6" /><path
             style="-inkscape-font-specification:Sportsball;fill:#fec524;fill-opacity:1;stroke:#fec524;stroke-opacity:1"
             d="M 54.134766,2.4238281 53.669922,9.75 l 4.33789,4.927734 2.691407,0.169922 4.929687,-4.33789 L 66.09375,3.1835938 60.470703,2.8261719 59.933594,11.277344 59.21875,11.232422 59.755859,2.78125 Z m -4.158204,0.2617188 -9.435546,0.5996094 0.759765,11.9589847 5.621094,-0.357422 -0.537109,-8.4472659 0.714843,-0.044922 0.53711,8.4472659 5.623047,-0.357422 -0.59961,-9.435547 z m 18.001954,0.5703125 -2.513672,11.7167966 11.714843,2.513672 0.738282,-3.4375 -6.208985,-1.332031 0.150391,-0.701172 6.208984,1.333984 0.738282,-3.4394527 -6.210938,-1.3320313 0.150391,-0.6992188 6.210937,1.3320313 0.738281,-3.4414063 z M 38.6875,3.5878906 26.970703,6.1035156 29.484375,17.820312 41.201172,15.304688 40.464844,11.867188 34.253906,13.201172 34.103516,12.5 40.314453,11.166016 39.576172,7.7285156 33.367187,9.0625 33.214844,8.3613281 39.425781,7.0292969 Z M 55.443359,3.9101563 58.269531,4.0898437 57.75,12.265625 55.103516,9.2597656 Z m -5.957031,0.2089843 1.814453,1.5957031 0.472656,7.4609373 -2.830078,0.177735 -0.535156,-8.4453129 -3.509766,0.2226563 0.53711,8.4472656 -2.826172,0.179688 -0.582031,-9.1660161 z M 61.779297,4.3125 64.607422,4.4921875 64.267578,9.8417969 61.259766,12.490234 Z m 7.27539,0.6054687 8.978516,1.9277344 -0.152344,0.703125 -6.208984,-1.3339844 -0.738281,3.4375001 6.210937,1.3339842 -0.15039,0.701172 -6.210938,-1.333984 -0.736328,3.4375 6.208984,1.333984 -0.15039,0.699219 -8.978516,-1.927735 z M 37.611328,5.2519531 37.761719,5.953125 31.552734,7.2871094 32.291016,10.724609 38.5,9.390625 l 0.150391,0.701172 -6.208985,1.332031 0.738281,3.439453 6.208985,-1.333984 0.15039,0.701172 -8.978515,1.927734 -1.927735,-8.9804686 z M 82.941406,6.3378906 77.4375,16.982422 l 5.003906,2.58789 0.970703,-1.878906 0.636719,0.328125 -0.972656,1.878906 5.005859,2.589844 1.427735,-2.759765 -0.332032,-1.03711 0.478516,-0.15625 0.371094,0.189453 2.398437,-4.634765 -1.085937,-3.408203 z m 0.601563,1.8867188 6.638672,3.4335936 0.732421,2.302735 -1.490234,2.884765 0.353516,0.179688 -2.357422,0.763671 0.578125,1.8125 -0.517578,1 -2.517578,-1.302734 0.972656,-1.878906 -3.123047,-1.615234 -0.972656,1.878906 -2.515625,-1.302735 z m -61.925782,0.00391 -8.396484,4.3437506 5.503906,10.644531 8.398438,-4.34375 1.085937,-3.404297 -3.183593,-6.1542971 z m 0.128907,1.5117188 2.302734,0.7324218 2.650391,5.123047 -0.734375,2.300781 -6.638672,3.433594 -4.21875,-8.158203 z m 63.982422,0.4238288 -2.587891,5.003906 3.123047,1.615234 2.58789,-5.003906 z m -64.652344,0.730468 -3.123047,1.615235 3.558594,6.882812 3.123047,-1.615234 z m 65.251953,1.158203 0.636719,0.328125 -1.302735,2.515625 -0.634765,-0.328125 z m -28.322266,0.503907 2.964844,0.1875 -0.761719,0.669922 -1.533203,-0.09766 z m -37.53125,0.224609 2.273438,4.396484 -0.634766,0.328125 -2.273437,-4.396484 z"
             id="path8" /></g><g
           id="text3"
           style="fill:#fec524;fill-opacity:1;stroke:#fec524;stroke-opacity:1"><path
             style="-inkscape-font-specification:Sportsball;fill:#fec524;fill-opacity:1;stroke:#fec524;stroke-opacity:1"
             d="m 17.971488,90.176829 5.289355,-9.16673 5.498696,3.17284 -0.0052,0.009 0.393281,1.43807 1.444783,-0.38941 5.500934,3.17413 -5.289356,9.16673 -3.665797,-2.11522 4.230451,-7.3316 -1.835137,-1.0589 -4.230451,7.33159 -1.832898,-1.05761 4.230451,-7.3316 -1.832899,-1.05761 -4.230451,7.3316 z m 14.418701,7.90337 0.547948,-2.04397 3.064708,0.82159 1.643845,-6.13191 -3.064707,-0.82159 0.548617,-2.04646 10.222347,2.74041 -0.548617,2.04646 -3.067204,-0.82225 -1.643845,6.13191 3.067203,0.82226 -0.547948,2.043971 z m 11.798549,3.140171 0.667723,-10.562211 8.447709,0.53404 1.980831,2.24819 -0.534048,8.447701 -4.226433,-0.26718 0.534048,-8.447711 -2.111927,-0.13351 -0.534048,8.447711 z m 12.184796,0.77019 -1.382573,-10.492601 10.492603,-1.38258 0.276785,2.10057 -6.296587,0.82968 0.276447,2.09801 6.296587,-0.82968 0.276447,2.09801 -6.296587,0.82968 0.276447,2.09801 6.296587,-0.82968 0.276447,2.098011 z m 16.719143,-7.658081 -1.39088,-3.99721 -1.998606,0.69544 1.39088,3.99721 z m -4.604939,6.083531 -3.478047,-9.995471 7.994423,-2.78176 2.697335,1.30476 1.39088,3.99721 -0.0098,0.003 -0.642617,1.34527 1.347818,0.64994 0.69544,1.9986 -3.999652,1.39173 -0.69544,-1.9986 -1.998606,0.69544 0.69544,1.9986 z m 11.565293,-3.974801 -1.132223,-1.78777 5.363319,-3.39667 -1.132223,-1.78777 -3.575546,2.26444 -2.919996,-0.65555 -1.132223,-1.78777 0.654167,-2.92218 7.153276,-4.53027 1.133606,1.78995 -5.365503,3.39805 1.132223,1.78778 3.575546,-2.26445 2.92218,0.65417 1.132222,1.78777 -0.657733,2.92138 z"
             id="path4" /><path
             style="-inkscape-font-specification:Sportsball;fill:#fec524;fill-opacity:1;stroke:#fec524;stroke-opacity:1"
             d="m 23.003906,80.054687 -5.988281,10.378907 4.878906,2.814453 4.230469,-7.332031 0.619141,0.357421 -4.230469,7.332032 3.044922,1.757812 4.230468,-7.332031 0.623047,0.359375 -4.230468,7.332031 4.878906,2.814453 0.902344,-1.5625 -0.429688,1.59961 11.574219,3.103511 0.458984,-1.710933 -0.121094,1.908203 5.621094,0.35547 0.535156,-8.447267 0.712891,0.04492 -0.533203,8.447267 5.625,0.35547 0.111328,-1.77539 0.253906,1.91992 11.88086,-1.56445 -0.226563,-1.718755 0.63086,1.814455 5.320312,-1.851564 -0.695312,-1.998047 0.675781,-0.234375 0.695312,1.998047 5.322266,-1.851562 -0.533203,-1.533204 0.99414,1.570313 7.988282,-5.056641 0.785156,-3.488281 -1.443359,-2.277344 -3.488282,-0.78125 -3.228515,2.044922 -0.382813,-0.605469 5.365235,-3.398437 -1.882813,-2.972656 -7.990234,5.060547 -0.4375,1.953125 -2.072266,-1.001954 -7.074219,2.462891 -11.769531,1.548828 0.04102,0.306641 -0.607422,-0.689453 -7.722656,-0.488282 -10.519532,-2.820312 -4.705078,-2.714844 -1.052734,0.285156 -0.132813,-0.484375 0.210938,-0.363281 z m 0.513672,1.91211 4.632813,2.671875 0.269531,0.986328 -2.808594,-1.621094 -4.230469,7.332031 -2.453125,-1.416015 z m 59.597656,0.835937 0.384766,0.607422 -5.367188,3.398438 1.882813,2.970703 3.921875,-2.484375 2.355469,0.527344 0.822265,1.298828 -0.53125,2.355468 -6.314453,3.998047 -0.382812,-0.605468 5.363281,-3.396485 -1.880859,-2.96875 -3.921875,2.482422 -2.355469,-0.527344 -0.271485,-0.427734 -0.453125,-1.302734 0.431641,-1.923829 z m -52.621093,3.189453 3.820312,2.205079 -0.589844,2.201171 0.359375,0.0957 -3.537109,6.130859 -2.453125,-1.416016 4.230469,-7.330078 -2.808594,-1.623047 z m -1.972657,0.0039 0.134766,0.492187 0.482422,-0.130859 -4.091797,7.09375 -0.621094,-0.357422 z m 44.439453,2.398437 1.845704,0.894531 -0.0293,0.13086 0.773437,1.21875 0.783203,2.25 -0.826172,1.728515 1.714844,0.826172 0.369141,1.064453 -2.677735,0.929688 -0.695312,-1.998047 -3.320313,1.15625 0.695313,1.998047 -2.675781,0.931641 -2.396485,-6.890625 -0.251953,-1.91211 z m -36.380859,0.576172 7.552734,2.023438 -0.04687,0.734375 -2.84375,-0.763672 -2.005859,7.484375 3.066406,0.822265 -0.185547,0.691407 -8.86914,-2.376954 0.185547,-0.691406 3.064453,0.820313 2.005859,-7.484375 -2.296875,-0.615235 z m 35.552734,0.472656 -3.320312,1.15625 1.849609,5.320313 3.322266,-1.15625 z m 10.802735,0.992188 0.382812,0.605469 -5.189453,3.285156 -0.755859,-0.365235 0.208984,-0.4375 0.410156,-0.126953 -0.490234,-1.412109 2.203125,0.496094 z M 35.484375,90.871094 36.789062,91.220703 35.507812,96 32.923828,95.308594 Z m 28.970703,0.08594 0.242188,0.69336 -6.019532,0.792968 0.458985,3.486328 6.296875,-0.830078 0.09375,0.708985 -6.296875,0.830078 0.460937,3.486325 6.296875,-0.830075 0.0918,0.710935 -9.103516,1.19922 -1,-7.597655 0.02539,-0.41211 -0.09375,-0.107421 -0.130859,-0.988282 z m 6.816406,0.269531 0.929688,2.675782 -0.675781,0.234375 -0.929688,-2.675782 z m -25.414062,0.195313 7.113281,0.451172 1.597656,1.8125 -0.472656,7.45898 -2.828125,-0.17773 0.533203,-8.447266 -3.507812,-0.222656 -0.533203,8.447262 -2.828125,-0.17773 0.470703,-7.453126 z m -3.625,1.257812 1.763672,0.472657 -0.31836,5.037109 -2.726562,-0.730469 z M 65.166016,93 65.40625,93.691406 60.341797,94.357422 60.25,93.648437 Z m 1.419921,4.082031 0.240235,0.691406 -5.929688,0.78125 -0.09375,-0.710937 z"
             id="path5" /></g></g><g
         id="g3"
         transform="translate(-41.817749,-29.468403)"><path
           style="font-size:10.5833px;line-height:1;font-family:Sportsball;-inkscape-font-specification:Sportsball;text-align:center;letter-spacing:0px;text-anchor:middle;fill:#8b2131;stroke:none;stroke-width:1.4;stroke-dasharray:none;stroke-opacity:1"
           d="m 65.509788,47.283766 -2.916312,-5.638943 -1.879648,0.972104 2.916313,5.638943 z m -4.666838,4.79596 -4.861709,-9.400533 7.518591,-3.888417 2.855234,0.908652 2.916313,5.638943 -0.909839,2.852938 z m 10.997646,-5.285045 -2.220801,-10.34767 10.34767,-2.220801 0.444594,2.071555 -6.209613,1.332697 0.444052,2.069029 6.209612,-1.332698 0.444052,2.069029 -6.209612,1.332698 0.444051,2.069028 6.209613,-1.332697 0.444052,2.069029 z M 83.772568,44.306937 83.10141,33.74494 l 8.447535,-0.536795 2.248825,1.9801 0.536795,8.447534 -4.226346,0.268562 -0.536795,-8.447535 -2.111884,0.134199 0.536796,8.447535 z m 16.387062,-0.503282 -3.955264,-4.492255 0.4029,-6.33822 4.223764,0.268494 -0.53715,8.450101 2.11188,0.134247 0.53715,-8.450101 4.22634,0.268658 -0.4029,6.33822 -4.49484,3.955103 z m 7.95341,0.437511 2.22077,-10.347677 10.34767,2.220766 -0.44458,2.071556 -6.20962,-1.332676 -0.44404,2.06903 6.20961,1.332677 -0.44404,2.06903 -6.20962,-1.332677 -0.44404,2.069031 6.20961,1.332676 -0.44404,2.06903 z m 19.6688,1.404925 1.94413,-3.759335 -1.87967,-0.972066 -1.94413,3.759336 z m -7.58314,0.843139 4.86152,-9.400633 7.51867,3.888261 0.90871,2.855215 -1.94413,3.759336 -0.009,-0.0047 -1.41843,0.459103 0.45554,1.425312 -0.97206,1.879668 -3.76163,-1.945318 0.97206,-1.879667 -1.87967,-0.972066 -0.97206,1.879668 z"
           id="text2-5"
           inkscape:transform-center-x="52.525293"
           inkscape:transform-center-y="-1.3874606"
           aria-label="DENVER" /><path
           style="font-size:10.5833px;line-height:1;font-family:Sportsball;-inkscape-font-specification:Sportsball;text-align:center;letter-spacing:0px;text-anchor:middle;fill:#8b2131;stroke:none;stroke-width:1.4;stroke-dasharray:none;stroke-opacity:1"
           d="m 59.789235,119.98324 5.289355,-9.16673 5.498696,3.17284 -0.0052,0.009 0.393281,1.43807 1.444783,-0.38941 5.500934,3.17413 -5.289356,9.16673 -3.665797,-2.11522 4.230451,-7.3316 -1.835137,-1.0589 -4.230451,7.33159 -1.832898,-1.05761 4.230451,-7.3316 -1.832899,-1.05761 -4.230451,7.3316 z m 14.418701,7.90337 0.547948,-2.04397 3.064708,0.82159 1.643845,-6.13191 -3.064707,-0.82159 0.548617,-2.04646 10.222347,2.74041 -0.548617,2.04646 -3.067204,-0.82225 -1.643845,6.13191 3.067203,0.82226 -0.547948,2.04397 z m 11.798549,3.14017 0.667723,-10.56221 8.447709,0.53404 1.980829,2.24819 -0.53405,8.4477 -4.226429,-0.26718 0.534048,-8.44771 -2.111927,-0.13351 -0.534048,8.44771 z m 12.184791,0.77019 -1.38257,-10.4926 10.492604,-1.38258 0.27679,2.10057 -6.29659,0.82968 0.27645,2.09801 6.29659,-0.82968 0.27644,2.09801 -6.29658,0.82968 0.27644,2.09801 6.29659,-0.82968 0.27645,2.09801 z m 16.719154,-7.65808 -1.39088,-3.99721 -1.99861,0.69544 1.39088,3.99721 z m -4.60494,6.08353 -3.47805,-9.99547 7.99442,-2.78176 2.69734,1.30476 1.39088,3.99721 -0.01,0.003 -0.64262,1.34527 1.34782,0.64994 0.69544,1.9986 -3.99965,1.39173 -0.69544,-1.9986 -1.99861,0.69544 0.69544,1.9986 z m 11.56529,-3.9748 -1.13222,-1.78777 5.36332,-3.39667 -1.13222,-1.78777 -3.57555,2.26444 -2.92,-0.65555 -1.13222,-1.78777 0.65417,-2.92218 7.15327,-4.53027 1.13361,1.78995 -5.3655,3.39805 1.13222,1.78778 3.57555,-2.26445 2.92217,0.65417 1.13223,1.78777 -0.65774,2.92138 z"
           id="text3-3"
           aria-label="MINERS" /></g></g></g></svg>
