<?xml version="1.0" encoding="UTF-8" standalone="no"?>
<!-- Created with Inkscape (http://www.inkscape.org/) -->

<svg
   width="105.83334mm"
   height="105.83334mm"
   viewBox="0 0 105.83333 105.83333"
   version="1.1"
   id="svg1"
   xml:space="preserve"
   inkscape:version="1.4 (e7c3feb100, 2024-10-09)"
   sodipodi:docname="houston.svg"
   inkscape:export-filename="../pngs/NBL.png"
   inkscape:export-xdpi="96"
   inkscape:export-ydpi="96"
   xmlns:inkscape="http://www.inkscape.org/namespaces/inkscape"
   xmlns:sodipodi="http://sodipodi.sourceforge.net/DTD/sodipodi-0.dtd"
   xmlns="http://www.w3.org/2000/svg"
   xmlns:svg="http://www.w3.org/2000/svg"><sodipodi:namedview
     id="namedview1"
     pagecolor="#ffffff"
     bordercolor="#000000"
     borderopacity="0.25"
     inkscape:showpageshadow="2"
     inkscape:pageopacity="0.0"
     inkscape:pagecheckerboard="0"
     inkscape:deskcolor="#d1d1d1"
     inkscape:document-units="mm"
     inkscape:zoom="0.61813371"
     inkscape:cx="645.49141"
     inkscape:cy="420.62097"
     inkscape:window-width="1920"
     inkscape:window-height="1011"
     inkscape:window-x="0"
     inkscape:window-y="32"
     inkscape:window-maximized="1"
     inkscape:current-layer="layer1"
     showgrid="false"
     showguides="false" /><defs
     id="defs1"><inkscape:path-effect
       effect="lattice2"
       gridpoint0="119.51991,-11.589521"
       gridpoint1="228.28897,-11.438187"
       gridpoint2="124.66524,15.055525"
       gridpoint3="228.8943,15.055525"
       gridpoint4="150.2685,0.81982574"
       gridpoint5="203.29104,0.97115924"
       gridpoint6="150.72251,15.055525"
       gridpoint7="202.83704,15.055525"
       gridpoint8x9="176.77977,-2.2068441"
       gridpoint10x11="176.77977,15.055525"
       gridpoint12="124.66524,1.3142473"
       gridpoint13="228.8943,1.3142473"
       gridpoint14="124.66524,10.475099"
       gridpoint15="228.8943,10.475099"
       gridpoint16="150.72251,1.3142473"
       gridpoint17="202.83704,1.3142473"
       gridpoint18="150.72251,10.475099"
       gridpoint19="202.83704,10.475099"
       gridpoint20x21="176.77977,1.3142473"
       gridpoint22x23="176.77977,10.475099"
       gridpoint24x26="124.66524,5.8946732"
       gridpoint25x27="228.8943,5.8946732"
       gridpoint28x30="150.72251,5.8946732"
       gridpoint29x31="202.83704,5.8946732"
       gridpoint32x33x34x35="176.77977,5.8946732"
       id="path-effect5"
       is_visible="true"
       lpeversion="1"
       horizontal_mirror="false"
       vertical_mirror="false"
       perimetral="false"
       live_update="true" /><inkscape:path-effect
       effect="lattice2"
       gridpoint0="119.51991,-11.589521"
       gridpoint1="228.28897,-11.438187"
       gridpoint2="124.66524,15.055525"
       gridpoint3="228.8943,15.055525"
       gridpoint4="150.2685,0.81982574"
       gridpoint5="203.29104,0.97115924"
       gridpoint6="150.72251,15.055525"
       gridpoint7="202.83704,15.055525"
       gridpoint8x9="176.77977,-2.2068441"
       gridpoint10x11="176.77977,15.055525"
       gridpoint12="124.66524,1.3142473"
       gridpoint13="228.8943,1.3142473"
       gridpoint14="124.66524,10.475099"
       gridpoint15="228.8943,10.475099"
       gridpoint16="150.72251,1.3142473"
       gridpoint17="202.83704,1.3142473"
       gridpoint18="150.72251,10.475099"
       gridpoint19="202.83704,10.475099"
       gridpoint20x21="176.77977,1.3142473"
       gridpoint22x23="176.77977,10.475099"
       gridpoint24x26="124.66524,5.8946732"
       gridpoint25x27="228.8943,5.8946732"
       gridpoint28x30="150.72251,5.8946732"
       gridpoint29x31="202.83704,5.8946732"
       gridpoint32x33x34x35="176.77977,5.8946732"
       id="path-effect5-9"
       is_visible="true"
       lpeversion="1"
       horizontal_mirror="false"
       vertical_mirror="false"
       perimetral="false"
       live_update="true" /></defs><g
     inkscape:label="Capa 1"
     inkscape:groupmode="layer"
     id="layer1"><g
       id="g5"
       transform="matrix(0.82689027,0,0,0.82689027,-118.99201,-43.899509)"><path
         style="fill:#ce1141;fill-opacity:1;stroke:#ffffff;stroke-width:4.96043;stroke-dasharray:none"
         d="m 203.5589,173.79554 -4.74112,-2.626 -2.07404,0.74496 c -2.96413,1.06464 -6.1842,1.97617 -9.06787,2.56687 -3.40739,0.698 -9.83994,0.90619 -12.9164,0.41804 -12.77995,-2.02782 -20.9677,-10.39548 -23.93811,-24.46411 -1.98115,-9.38322 -1.66767,-18.92535 0.93585,-28.48635 1.57576,-5.78671 4.23856,-11.95226 7.28776,-16.87431 l 1.54868,-2.49989 0.10416,-9.25308 0.10417,-9.253085 23.74902,-13.19963 c 13.06196,-7.259797 23.89533,-13.163601 24.07414,-13.119572 0.17881,0.04401 2.8037,1.464082 5.83309,3.155658 l 5.50798,3.075598 2.54303,-0.34108 c 13.20629,-1.771313 24.90294,0.148521 32.75533,5.376306 6.40074,4.261345 9.98821,10.951605 10.85749,20.248089 0.84533,9.040422 -2.55377,20.150076 -8.47986,27.715666 l -1.21916,1.55645 -0.10416,15.73892 -0.10416,15.73891 -23.74903,13.20114 c -13.06196,7.26063 -23.84277,13.20235 -23.95734,13.20382 -0.11458,0.002 -2.34184,-1.17902 -4.94945,-2.62332 z m 27.86517,-12.52599 22.49907,-12.50607 V 117.05285 85.342234 l -15.47261,-8.595679 c -13.10962,-7.282929 -15.38444,-8.61326 -14.89523,-8.710846 0.31757,-0.06338 1.13988,-0.176938 1.82735,-0.252431 l 1.24995,-0.13727 14.79106,8.223702 14.79106,8.223709 0.10416,15.250861 0.10416,15.25086 1.00911,-1.69651 c 3.5625,-5.98932 5.34787,-11.47057 5.72315,-17.570539 0.41271,-6.708464 -0.71129,-12.538422 -3.30676,-17.151586 -1.27549,-2.267041 -4.84487,-5.8378 -7.22494,-7.227727 -5.22391,-3.050709 -10.99127,-4.464525 -19.01212,-4.660675 -11.66513,-0.285256 -23.46533,2.500724 -35.32141,8.33924 -9.64671,4.750514 -17.83662,10.703466 -25.26666,18.365435 -10.55603,10.885522 -16.79993,22.908962 -18.71557,36.039212 -0.50397,3.45432 -0.50218,11.30654 0.003,14.74277 0.6784,4.61128 1.81688,8.21889 3.48536,11.0445 1.05516,1.78693 3.57505,4.35149 5.22728,5.31995 2.82433,1.65549 6.62627,2.38978 10.10112,1.9509 1.79324,-0.22649 5.55921,-1.2828 5.95066,-1.66909 0.0822,-0.0811 -3.9958,-2.45083 -9.06213,-5.2661 l -9.21151,-5.11867 -0.0611,-17.79349 -0.0611,-17.7935 1.10275,-2.25489 1.10275,-2.25489 0.10416,19.41791 0.10416,19.41791 8.02051,4.46375 c 4.41127,2.45507 8.59045,4.78164 9.28705,5.17017 l 1.26655,0.70641 1.44168,-0.96018 c 3.97976,-2.65061 8.20442,-6.7822 12.06305,-11.79727 2.19642,-2.85471 6.39558,-9.18869 6.14671,-9.27165 -0.12005,-0.04 -1.12959,0.0812 -2.24343,0.2693 -9.53644,1.6107 -18.634,5.68523 -26.08669,11.68342 -1.0885,0.87607 -2.08445,1.63656 -2.21323,1.68997 -0.2256,0.0936 -4.23401,-2.00498 -4.24127,-2.22047 -0.002,-0.0582 1.78654,-1.22996 3.97444,-2.60396 2.18791,-1.37402 4.02149,-2.56856 4.07463,-2.65454 0.23847,-0.38585 -0.58169,-0.006 -4.82339,2.23691 -2.48987,1.31629 -4.61002,2.34196 -4.71144,2.27928 -0.10497,-0.0649 -0.1844,-8.9523 -0.1844,-20.63167 v -20.5177 l 0.75793,-1.18787 c 4.86869,-7.630315 13.65468,-16.516609 22.41615,-22.672041 7.06981,-4.966946 15.49733,-9.185418 23.59483,-11.810617 3.3811,-1.096144 7.92552,-2.273985 8.42292,-2.183076 0.1886,0.03449 1.8671,0.906388 3.73002,1.93759 2.92283,1.617926 3.37035,1.932039 3.26483,2.291575 -0.50873,1.733574 -0.58898,2.603507 -0.34197,3.707241 0.50443,2.254042 2.2086,3.995261 4.43237,4.528736 2.11734,0.507947 4.16023,-0.140861 5.74391,-1.824201 l 0.87809,-0.933355 7.1981,3.9983 7.19809,3.998308 -0.0557,5.13075 -0.0557,5.130757 -4.02219,2.111849 c -2.2122,1.161514 -4.11988,2.209534 -4.23927,2.328924 -0.29995,0.29996 -0.0133,1.09232 0.39513,1.09232 0.29262,0 2.88885,-1.54738 6.77263,-4.036544 l 1.19787,-0.767728 v 25.091982 25.09198 l -2.84183,1.57999 c -1.563,0.869 -2.90812,1.57999 -2.98916,1.57999 -0.081,0 -0.98492,-0.67966 -2.00864,-1.51036 -1.02371,-0.83069 -2.53995,-1.97363 -3.36942,-2.53986 -1.17639,-0.80305 -1.44981,-1.08157 -1.24303,-1.26619 4.70686,-2.86378 5.34541,-4.0409 -0.61659,-0.58938 -0.42657,0.26214 -0.64517,0.18198 -2.64445,-0.96971 -1.7108,-0.98551 -6.53085,-3.33241 -6.84408,-3.33241 -0.0338,0 -0.0255,1.19526 0.0183,2.65614 0.0925,3.08417 -0.19743,4.6642 -1.28319,6.99327 -0.93384,2.00319 -1.95496,3.30161 -4.19757,5.33746 -5.11249,4.64116 -12.51456,9.60006 -19.30512,12.93319 l -3.30659,1.62302 3.38952,1.89534 c 1.86423,1.04243 3.53013,1.86109 3.70199,1.81925 0.17187,-0.0418 10.43707,-5.70381 22.81156,-12.58214 z m -45.035,10.6818 c 7.9915,-1.25732 14.70476,-3.79922 23.1609,-8.76958 5.31864,-3.1262 10.55004,-6.99609 13.77199,-10.18773 2.08105,-2.06146 3.09523,-3.77725 3.75848,-6.35861 0.46834,-1.82273 0.46195,-4.94131 -0.0134,-6.55133 -1.17188,-3.96902 -3.51619,-6.38236 -7.49829,-7.71911 -3.35579,-1.12649 -6.79952,-0.87731 -10.05488,0.72757 -2.5405,1.25245 -3.60929,2.44153 -7.78237,8.65826 -4.12799,6.14955 -6.73026,9.4905 -9.8225,12.6107 -5.65196,5.70306 -11.39567,8.92453 -17.36177,9.73768 l -1.24575,0.16979 0.8333,0.23903 c 0.45831,0.13146 1.53077,0.33781 2.38323,0.45853 0.85247,0.12074 1.58598,0.25554 1.63001,0.29959 0.20127,0.20126 -3.32723,0.36616 -5.13128,0.2398 -5.40421,-0.37853 -10.58128,-1.89765 -14.14175,-4.14964 -0.48696,-0.308 -0.88538,-0.4754 -0.88538,-0.37199 0,0.10342 0.4141,0.75054 0.92023,1.43807 0.99487,1.35143 2.93697,2.86248 4.73018,3.68032 1.15205,0.52541 4.22672,1.43471 5.70329,1.68667 0.7847,0.1339 0.80355,0.15348 0.32333,0.33556 -0.28049,0.10635 -1.19451,0.20134 -2.03117,0.21107 -0.83666,0.01 -1.5212,0.0514 -1.5212,0.0926 0,0.17267 2.51199,1.32432 3.65658,1.6764 0.96382,0.29648 1.92162,0.38081 4.31184,0.37963 1.69005,-7.8e-4 3.0728,0.0208 3.0728,0.048 0,0.11414 -1.40919,0.76501 -2.38506,1.1016 l -1.0523,0.36297 1.45828,0.14671 c 0.80204,0.0807 1.55201,0.18618 1.66659,0.23441 0.46222,0.19455 7.63476,-0.12625 9.54609,-0.42697 z m -5.48375,-1.81218 c -0.64047,-0.26917 -0.6651,-0.26099 2.39573,-0.79638 4.66141,-0.81536 9.46641,-2.21058 13.43695,-3.90167 1.20307,-0.5124 2.23061,-0.97324 2.28343,-1.02408 0.0528,-0.0509 -0.17191,-0.30608 -0.49939,-0.56721 l -0.59542,-0.47476 -2.35593,1.22262 c -3.66572,1.90234 -9.22996,3.58995 -14.63213,4.43788 -0.86233,0.13535 -0.8937,0.12231 -0.67748,-0.28173 0.33553,-0.62694 1.04524,-1.07465 4.9684,-3.13426 4.4628,-2.3429 8.5776,-5.09481 12.34181,-8.25401 l 0.93747,-0.78678 0.12745,1.54241 c 0.15857,1.91904 0.66469,2.94873 2.07076,4.21291 0.75896,0.68237 1.43913,1.07264 2.32302,1.33295 l 1.24984,0.36807 -1.96572,0.98237 c -4.98135,2.48946 -10.34433,4.11376 -16.64406,5.04105 -2.52446,0.37159 -4.0125,0.39676 -4.76473,0.0806 z m 22.98733,-7.05471 c -1.76875,-0.34993 -3.32521,-1.5181 -4.15205,-3.11624 -0.41992,-0.81161 -0.5686,-4.1742 -0.19022,-4.30174 0.1179,-0.0398 0.21646,0.35957 0.22707,0.92002 0.0576,3.0386 2.33354,5.67257 5.36622,6.21022 0.55657,0.0987 0.71588,0.19662 0.52082,0.32023 -0.32597,0.20658 -0.58774,0.20178 -1.77184,-0.0325 z m -15.48764,-0.14776 c 0,-0.28489 5.40917,-8.21324 7.49731,-10.98898 1.12055,-1.48952 2.75884,-3.55194 3.64066,-4.58314 2.39492,-2.80063 7.67707,-8.29218 8.29132,-8.62002 0.73062,-0.38994 1.47121,-0.16624 2.4029,0.72581 0.5693,0.54509 0.69328,0.76915 0.47384,0.85641 -0.59448,0.23637 -2.16713,1.84654 -2.44177,2.50004 -0.15495,0.3687 -0.28174,0.98987 -0.28174,1.38037 v 0.71001 l -0.9076,-0.32637 c -0.83258,-0.2994 -0.98328,-0.29743 -1.82284,0.0238 -1.30145,0.49786 -2.70944,1.72363 -6.05331,5.26989 -4.56412,4.84036 -6.3397,7.42397 -6.5825,9.578 -0.0978,0.86768 -0.15832,0.93112 -2.15844,2.26282 -1.13182,0.75356 -2.05783,1.29869 -2.05783,1.21141 z m 16.9542,-0.76269 c -2.90857,-0.70586 -4.69575,-2.75595 -5.00815,-5.74488 l -0.13444,-1.28632 2.16305,-2.17043 c 1.18968,-1.19375 2.0836,-2.17045 1.98648,-2.17045 -0.4996,0 -3.33754,2.19645 -6.58653,5.09774 -4.03645,3.60445 -4.37588,3.8602 -4.37279,3.29466 0.006,-1.19566 2.2046,-4.39279 5.34015,-7.76743 1.68293,-1.81124 1.89654,-1.97328 2.51877,-1.91074 0.53556,0.0539 0.81807,-0.0698 1.33079,-0.58255 0.54241,-0.54242 0.63223,-0.76596 0.53889,-1.34117 -0.1025,-0.63164 -0.0264,-0.75558 0.89626,-1.45919 0.55455,-0.42291 1.34182,-0.82305 1.74949,-0.88921 1.51935,-0.24656 2.62248,0.80433 2.31481,2.20518 -0.32415,1.47579 2.24219,4.72248 4.10321,5.191 1.5524,0.39084 2.25689,0.0781 4.22226,-1.874 0.98842,-0.98176 1.90455,-2.10082 2.09706,-2.56155 0.18801,-0.44997 0.84803,-1.38555 1.46672,-2.07906 0.61868,-0.69351 1.12219,-1.40156 1.1189,-1.57342 -0.003,-0.17187 -0.57396,-0.96871 -1.26815,-1.77076 -1.53519,-1.77372 -2.46927,-3.33811 -2.47189,-4.13992 -0.002,-0.50838 0.045,-0.55939 0.31053,-0.33907 0.17188,0.14264 0.31249,0.38168 0.31249,0.5312 0,0.14952 0.2578,0.47364 0.57289,0.72027 0.3151,0.24663 0.67441,0.7456 0.79848,1.10883 0.18,0.52696 0.3572,0.67348 0.87685,0.72506 0.47657,0.0473 1.07278,0.4664 2.22271,1.56244 1.37319,1.30882 1.57129,1.58977 1.57019,2.22692 -6.9e-4,0.40102 -0.17446,1.01038 -0.38615,1.35411 -0.6534,1.06096 -5.89677,6.53267 -8.81766,9.20168 -3.71126,3.3912 -7.86919,6.77018 -8.266,6.71745 -0.0733,-0.01 -0.61299,-0.13412 -1.19922,-0.27639 z m 4.55533,-4.69563 c 1.11714,-0.95518 2.03116,-1.80188 2.03116,-1.88156 0,-0.0797 -0.24934,-0.25848 -0.5541,-0.39733 -0.51471,-0.23452 -0.61768,-0.19008 -1.44841,0.62523 -0.96937,0.95137 -0.90739,0.95445 -2.11593,-0.10528 l -0.47275,-0.41455 0.84135,-0.85727 0.84135,-0.85728 -0.47276,-0.43622 -0.47276,-0.43621 -2.17366,2.07068 -2.17366,2.07067 0.45295,0.45296 0.45296,0.45295 0.8241,-0.80471 c 0.8996,-0.87843 0.83146,-0.88457 2.20066,0.19821 0.40717,0.32199 0.39651,0.34624 -0.46873,1.06599 -0.48695,0.40507 -0.88538,0.80814 -0.88538,0.89571 0,0.0876 0.21093,0.25622 0.46874,0.37478 0.53748,0.24719 0.29087,0.40635 3.12487,-2.01677 z m 1.37802,-6.02456 c -0.57386,-0.36393 -1.2875,-1.11389 -1.82295,-1.91575 -0.76328,-1.14301 -0.86276,-1.41929 -0.75045,-2.08406 0.0712,-0.4215 0.0284,-1.3236 -0.0951,-2.00467 -0.16717,-0.92185 -0.16154,-1.42097 0.022,-1.95311 0.87048,-2.52375 3.73442,-3.73503 6.4268,-2.71816 1.79212,0.67685 3.55582,2.68848 3.53,4.02622 -0.008,0.40249 -0.0727,0.3567 -0.4159,-0.293 -1.04708,-1.98262 -4.5185,-3.35151 -6.54073,-2.57922 -1.93818,0.7402 -2.76824,3.41044 -1.77666,5.71542 0.81252,1.88877 2.97365,3.35162 4.97768,3.36935 l 0.7441,0.006 -0.58451,0.51422 c -0.86198,0.75834 -2.4426,0.72267 -3.71431,-0.0838 z m 1.31319,-1.81921 c -2.35751,-1.1748 -3.41412,-3.97771 -2.26931,-6.01988 0.56693,-1.01131 1.73676,-1.65905 2.63854,-1.46099 0.59828,0.13141 0.61127,0.16108 0.49606,1.13385 -0.25537,2.15628 1.16353,4.1603 3.30969,4.67455 0.5232,0.12537 0.58164,0.0711 0.80105,-0.74375 0.28591,-1.06178 0.0135,-2.18892 -0.79529,-3.29118 l -0.53504,-0.72913 0.65581,0.60832 c 1.34003,1.24299 1.56662,2.93314 0.63742,4.75452 -0.85067,1.66744 -2.86755,2.1059 -4.93893,1.07369 z m -0.13924,-3.91147 c 0.38755,-0.14636 0.39119,-0.17165 0.0521,-0.36202 -0.20051,-0.11256 -0.36457,-0.34062 -0.36457,-0.5068 0,-0.39614 -0.33873,-0.38901 -0.49199,0.0103 -0.066,0.17187 -0.278,0.31248 -0.47122,0.31248 -0.32715,0 -0.3276,0.0262 -0.006,0.38098 0.18963,0.20953 0.34776,0.51421 0.3514,0.67705 0.006,0.24065 0.0542,0.23516 0.26041,-0.0293 0.13958,-0.17896 0.44127,-0.3962 0.67043,-0.48274 z m 7.39554,-5.34692 c 0,-0.3804 -0.18792,-0.82236 -0.46932,-1.10375 -0.25812,-0.25813 -0.63429,-0.72111 -0.83594,-1.02885 -0.20164,-0.30774 -0.59979,-0.61806 -0.88479,-0.68959 -0.60871,-0.15278 -0.62496,-0.26321 -0.18961,-1.28944 l 0.32856,-0.77453 0.37544,0.97636 c 0.56828,1.4779 1.16239,2.33089 2.43094,3.49027 l 1.15321,1.05397 h -0.95424 c -0.92456,0 -0.95425,-0.0198 -0.95425,-0.63444 z m 1.21502,-0.98007 c -0.96086,-1.00967 -2.6733,-3.6247 -2.6733,-4.08235 0,-0.26449 0.71246,-0.13104 1.60365,0.30037 1.07928,0.52247 2.37984,2.22804 2.77488,3.63899 0.22754,0.81268 0.22391,0.99255 -0.0232,1.14899 -0.44754,0.28334 -0.46486,0.27298 -1.68201,-1.006 z m 2.32192,-0.41665 c -0.017,-1.35155 -2.06108,-3.80101 -3.54236,-4.24481 -0.70548,-0.21137 -0.80158,-0.29326 -0.4885,-0.41629 0.21436,-0.0842 0.81308,-0.15975 1.33046,-0.16781 2.31605,-0.0361 3.94126,2.08994 3.33078,4.35709 -0.22796,0.84659 -0.62197,1.1415 -0.63038,0.47182 z m -49.78504,-36.62984 c 0,-0.16756 0.23436,-0.41144 0.52081,-0.54195 0.57506,-0.26202 0.69307,-0.58707 0.21312,-0.58707 -0.16922,0 -0.46124,-0.23437 -0.64893,-0.52082 -0.41542,-0.63402 -0.62549,-0.65808 -0.77438,-0.0887 -0.0621,0.23766 -0.30745,0.48296 -0.54511,0.54511 -0.55198,0.14435 -0.55361,0.41442 -0.003,0.58901 0.23572,0.0748 0.51678,0.36801 0.62458,0.65154 0.20118,0.52915 0.61343,0.49748 0.61343,-0.0471 z m 11.50994,-2.940882 c 0.0859,-0.04821 0.15625,-0.928157 0.15625,-1.955436 0,-1.813256 0.0156,-1.873718 0.53437,-2.070954 1.08849,-0.413849 1.13222,-0.349277 1.13222,1.67175 0,1.968327 0.0199,2.003464 0.98954,1.743622 0.46758,-0.125306 0.46874,-0.136582 0.46874,-4.584269 V 89.75484 l -0.5729,0.136931 c -0.88742,0.21211 -0.88538,0.207346 -0.88538,2.06475 v 1.752511 l -0.67705,0.183701 c -0.37238,0.101027 -0.74736,0.145049 -0.83331,0.09782 -0.0859,-0.04724 -0.15623,-0.830312 -0.15623,-1.74018 0,-1.73363 -0.0302,-1.780092 -0.98955,-1.523 -0.46758,0.125309 -0.46873,0.136585 -0.46873,4.584276 v 4.45865 l 0.5729,-0.136934 c 0.31508,-0.07531 0.6432,-0.176379 0.72913,-0.224589 z m 48.07094,-4.101103 c 0,-4.443566 -7.9e-4,-4.454998 -0.46873,-4.5803 -0.98362,-0.263596 -0.98869,-0.252447 -1.00594,2.21235 l -0.0164,2.343659 -0.86898,-2.537462 c -0.47794,-1.395604 -0.91586,-2.577682 -0.97315,-2.626837 -0.0573,-0.04913 -0.36196,-0.151222 -0.67706,-0.22681 l -0.57289,-0.137435 v 4.458651 c 0,4.447687 7.9e-4,4.458963 0.46873,4.584269 0.2578,0.06909 0.53904,0.126894 0.62497,0.128459 0.0859,0.0016 0.16516,-1.192416 0.17605,-2.653293 l 0.0198,-2.656143 0.96974,2.911156 c 0.99072,2.974177 1.05227,3.065423 2.16761,3.213658 0.0859,0.01142 0.15623,-1.983842 0.15623,-4.433922 z m -68.01287,1.017328 c 2.24867,-2.785248 7.16176,-7.832174 9.99443,-10.266665 2.56284,-2.202586 2.89567,-2.526321 2.08324,-2.026239 -3.81284,2.346935 -7.28696,4.957158 -10.91977,8.204403 l -1.48562,1.327945 0.0571,-3.5906 0.0571,-3.590609 21.14497,-11.761556 c 11.62972,-6.468852 21.4328,-11.905038 21.78461,-12.080409 0.6248,-0.31146 0.68159,-0.295405 2.44716,0.691428 0.99414,0.555663 1.80324,1.057162 1.79801,1.114451 -0.006,0.05732 -1.70053,0.931914 -3.76731,1.943613 -2.06678,1.011698 -3.72418,1.873064 -3.6831,1.914142 0.0411,0.0411 1.52574,-0.42329 3.29923,-1.031942 1.77349,-0.608645 4.42357,-1.414674 5.88906,-1.791171 1.4655,-0.376496 2.59045,-0.754024 2.4999,-0.83895 -0.27734,-0.260107 -7.72207,-4.362513 -7.90736,-4.357332 -0.0955,0.0024 -10.34507,5.658877 -22.77685,12.569357 l -22.60324,12.5645 -0.055,6.849419 c -0.0302,3.767176 0.0234,6.759047 0.11916,6.648601 0.0958,-0.110447 1.00668,-1.232021 2.02424,-2.492386 z m 29.64157,1.140449 c 1.11903,-0.682255 1.32997,-1.496356 1.25263,-4.834423 l -0.0673,-2.905338 -0.61101,-0.525065 c -0.51208,-0.440052 -0.76049,-0.508223 -1.53415,-0.421014 -2.10966,0.237786 -2.60403,1.288231 -2.50568,5.32412 0.067,2.750107 0.0737,2.783657 0.65221,3.281117 0.73124,0.628761 1.86112,0.661134 2.81331,0.0806 z m -1.68693,-1.165606 c -0.18033,-0.180323 -0.19988,-5.327348 -0.022,-5.790895 0.0753,-0.19637 0.37224,-0.32953 0.73471,-0.32953 h 0.60825 l -0.0576,3.072795 -0.0576,3.072787 -0.52861,0.06165 c -0.29073,0.03394 -0.5954,-0.0055 -0.67705,-0.0868 z m 31.83887,1.076255 c 0.49774,-0.497743 0.51134,-0.594999 0.51134,-3.65603 0,-3.555193 -0.156,-4.103934 -1.32433,-4.658344 -1.32347,-0.628022 -2.47251,-0.38604 -3.01646,0.635273 -0.36415,0.683727 -0.32035,5.72556 0.0576,6.630137 0.61393,1.469328 2.75582,2.064995 3.77185,1.048964 z m -2.25675,-1.076255 c -0.0816,-0.08164 -0.14846,-1.492143 -0.14846,-3.13443 v -2.985995 h 0.49531 c 0.87537,0 0.97951,0.381756 0.9171,3.362027 l -0.0583,2.783555 -0.52861,0.06165 c -0.29073,0.03394 -0.59541,-0.0055 -0.67705,-0.0868 z m -19.65356,-0.05984 0.65171,-0.651288 0.0687,-3.850424 0.0687,-3.850433 h -0.84985 -0.84983 l -0.003,3.593609 c -0.002,1.976477 -0.0827,3.718981 -0.17981,3.872234 -0.0971,0.153246 -0.40037,0.24699 -0.67387,0.208322 l -0.49725,-0.07031 -0.0568,-3.697761 -0.0568,-3.697769 h -0.82849 -0.82849 v 3.65603 c 0,4.790796 0.29271,5.40844 2.47316,5.218439 0.67859,-0.05913 1.07682,-0.24536 1.56243,-0.730647 z m 13.67201,-2.935698 v -3.749846 h 0.72914 c 0.67295,0 0.72913,-0.04866 0.72913,-0.631509 0,-0.755576 -0.008,-0.758662 -2.44781,-0.921466 l -1.92701,-0.128593 v 0.736623 c 0,0.702971 0.0333,0.736623 0.72914,0.736623 h 0.72914 v 3.73535 c 0,4.097202 -0.089,3.804096 1.19787,3.944295 0.19973,0.02173 0.2604,-0.845351 0.2604,-3.721477 z m -6.76598,3.240552 c 0.93784,-0.391858 1.46091,-1.435799 1.25891,-2.512527 -0.1088,-0.579968 -0.51136,-1.148118 -1.58997,-2.243963 -1.49134,-1.515189 -1.78698,-2.229735 -1.08508,-2.622537 0.43583,-0.243904 1.09908,0.05787 1.09908,0.500121 0,0.211873 0.23085,0.30516 0.75518,0.30516 0.73977,0 0.75253,-0.01378 0.62519,-0.677058 -0.31202,-1.625296 -2.47773,-2.215799 -3.68796,-1.005565 -1.15197,1.151968 -0.70111,2.997884 1.07601,4.405385 1.07586,0.852099 1.53453,1.710962 1.22381,2.291552 -0.31724,0.592755 -1.06584,0.44084 -1.41355,-0.286854 -0.23208,-0.485697 -0.39101,-0.573969 -0.93771,-0.520814 -0.83381,0.08108 -0.92152,0.500507 -0.29812,1.42558 0.80745,1.198179 1.69073,1.477789 2.97421,0.94152 z m 34.12093,-5.755913 c 0.0621,-0.23766 0.30745,-0.482957 0.54511,-0.545104 0.56938,-0.148899 0.54532,-0.358961 -0.0887,-0.774385 -0.28645,-0.187685 -0.52081,-0.479705 -0.52081,-0.648934 0,-0.479941 -0.32506,-0.361938 -0.58707,0.213125 -0.13051,0.286445 -0.37439,0.520813 -0.54196,0.520813 -0.54459,0 -0.57626,0.412251 -0.0471,0.613432 0.28354,0.107798 0.57674,0.388866 0.65155,0.62458 0.17459,0.55008 0.44466,0.548458 0.589,-0.0039 z m -35.27129,-7.921493 c 0,-1.204187 1.33496,-2.684929 2.42231,-2.686843 0.24377,-4.25e-4 0.55901,-0.140285 0.70051,-0.310798 0.2814,-0.339065 0.24059,-0.36678 -0.91644,-0.622321 -0.86126,-0.19022 -1.93699,-1.342693 -2.10897,-2.259435 -0.19465,-1.037579 -0.62261,-0.966196 -0.90387,0.150774 -0.25372,1.007628 -1.14401,1.918063 -2.07406,2.120999 -0.92159,0.201094 -1.07765,0.272461 -1.07765,0.492846 0,0.115987 0.2578,0.264422 0.57289,0.329845 1.17595,0.244155 1.98712,0.811234 2.37186,1.658121 0.20861,0.459209 0.38136,0.998982 0.38387,1.199494 0.002,0.200511 0.1452,0.364567 0.31707,0.364567 0.17851,0 0.31248,-0.187464 0.31248,-0.437249 z"
         id="path861-8"
         sodipodi:nodetypes="scsssscscccssscsssscccscsccccscscccccsssssscccssssscccccccsscsssssscsccsscssssscssscccccsssscccsssssssscssscsscccssscssssscsscsssssssssscsscssccssssscssssscssscssssssssssssssssssscsssssssscssscssssssssssscscsssssssssssssssscccccccccsssssscscccsccssccsccssssssscssscsscsccsccssssscsscssssssssscssssccssscscsccsscssscsscccscscssccccscscscsccsscccscscccssscssssscsccsccsscscccssccscccccccsssccccscscccsccccccccsscccccssccscssscsscscssssssssssssssscsssssssccsssssssssscss" /><path
         style="fill:#c4ced4;fill-opacity:1;stroke:none;stroke-width:1.75898;stroke-dasharray:none"
         d="m 155.92833,158.18803 8.93109,12.97535 16.68259,3.20172 18.53623,-4.88683 7.7515,5.39236 47.52013,-25.44518 V 85.054218 l -46.50906,-25.950708 -46.67757,25.950707 -0.33702,64.202733 20.38984,11.12173 -10.11653,3.57254 z"
         id="path862"
         sodipodi:nodetypes="ccccccccccccc" /><rect
         style="fill:#ffd42a;fill-opacity:1;fill-rule:evenodd;stroke-width:0.285052"
         id="rect1"
         width="54.360542"
         height="13.911161"
         x="184.05539"
         y="86.891251"
         ry="0.034226589" /><path
         style="fill:#ffd42a;fill-opacity:1;stroke:none;stroke-width:6.29999;stroke-dasharray:none"
         d="m 158.37323,159.44332 9.41679,3.95933 8.4537,-0.64206 10.7009,-5.35044 8.4537,-9.20277 9.95183,-14.01817 c 0,0 7.38362,-4.17335 7.81166,-4.17335 0.42803,0 12.41303,0.74906 12.41303,0.74906 0,0 2.67523,6.63456 2.88924,7.38362 0.21402,0.74906 -0.107,8.02567 -0.107,8.02567 0,0 -3.31728,7.27661 -3.74532,7.81165 -0.42803,0.53505 -9.84482,7.70465 -10.91491,8.66773 -1.07009,0.96308 -12.94808,6.95558 -14.12518,7.49062 -1.1771,0.53505 -14.44621,3.95933 -15.19527,3.95933 -0.74906,0 -12.41304,-0.21402 -13.48313,-0.96308 -1.07008,-0.74906 -9.41678,-5.13643 -10.05883,-5.77848 -0.64206,-0.64205 -4.81541,-6.52754 -4.81541,-6.52754 z"
         id="path1" /><path
         style="fill:#ce1141;fill-opacity:1;stroke-width:0.787369"
         d="m 203.5589,173.79554 -4.74112,-2.626 -2.07404,0.74496 c -2.96413,1.06464 -6.1842,1.97617 -9.06787,2.56687 -3.40739,0.698 -9.83994,0.90619 -12.9164,0.41804 -12.77995,-2.02782 -20.9677,-10.39548 -23.93811,-24.46411 -1.98115,-9.38322 -1.66767,-18.92535 0.93585,-28.48635 1.57576,-5.78671 4.23856,-11.95226 7.28776,-16.87431 l 1.54868,-2.49989 0.10416,-9.25308 0.10417,-9.253085 23.74902,-13.19963 c 13.06196,-7.259797 23.89533,-13.163601 24.07414,-13.119572 0.17881,0.04401 2.8037,1.464082 5.83309,3.155658 l 5.50798,3.075598 2.54303,-0.34108 c 13.20629,-1.771313 24.90294,0.148521 32.75533,5.376306 6.40074,4.261345 9.98821,10.951605 10.85749,20.248089 0.84533,9.040422 -2.55377,20.150076 -8.47986,27.715666 l -1.21916,1.55645 -0.10416,15.73892 -0.10416,15.73891 -23.74903,13.20114 c -13.06196,7.26063 -23.84277,13.20235 -23.95734,13.20382 -0.11458,0.002 -2.34184,-1.17902 -4.94945,-2.62332 z m 27.86517,-12.52599 22.49907,-12.50607 V 117.05285 85.342234 l -15.47261,-8.595679 c -13.10962,-7.282929 -15.38444,-8.61326 -14.89523,-8.710846 0.31757,-0.06338 1.13988,-0.176938 1.82735,-0.252431 l 1.24995,-0.13727 14.79106,8.223702 14.79106,8.223709 0.10416,15.250861 0.10416,15.25086 1.00911,-1.69651 c 3.5625,-5.98932 5.34787,-11.47057 5.72315,-17.570539 0.41271,-6.708464 -0.71129,-12.538422 -3.30676,-17.151586 -1.27549,-2.267041 -4.84487,-5.8378 -7.22494,-7.227727 -5.22391,-3.050709 -10.99127,-4.464525 -19.01212,-4.660675 -11.66513,-0.285256 -23.46533,2.500724 -35.32141,8.33924 -9.64671,4.750514 -17.83662,10.703466 -25.26666,18.365435 -10.55603,10.885522 -16.79993,22.908962 -18.71557,36.039212 -0.50397,3.45432 -0.50218,11.30654 0.003,14.74277 0.6784,4.61128 1.81688,8.21889 3.48536,11.0445 1.05516,1.78693 3.57505,4.35149 5.22728,5.31995 2.82433,1.65549 6.62627,2.38978 10.10112,1.9509 1.79324,-0.22649 5.55921,-1.2828 5.95066,-1.66909 0.0822,-0.0811 -3.9958,-2.45083 -9.06213,-5.2661 l -9.21151,-5.11867 -0.0611,-17.79349 -0.0611,-17.7935 1.10275,-2.25489 1.10275,-2.25489 0.10416,19.41791 0.10416,19.41791 8.02051,4.46375 c 4.41127,2.45507 8.59045,4.78164 9.28705,5.17017 l 1.26655,0.70641 1.44168,-0.96018 c 3.97976,-2.65061 8.20442,-6.7822 12.06305,-11.79727 2.19642,-2.85471 6.39558,-9.18869 6.14671,-9.27165 -0.12005,-0.04 -1.12959,0.0812 -2.24343,0.2693 -9.53644,1.6107 -18.634,5.68523 -26.08669,11.68342 -1.0885,0.87607 -2.08445,1.63656 -2.21323,1.68997 -0.2256,0.0936 -4.23401,-2.00498 -4.24127,-2.22047 -0.002,-0.0582 1.78654,-1.22996 3.97444,-2.60396 2.18791,-1.37402 4.02149,-2.56856 4.07463,-2.65454 0.23847,-0.38585 -0.58169,-0.006 -4.82339,2.23691 -2.48987,1.31629 -4.61002,2.34196 -4.71144,2.27928 -0.10497,-0.0649 -0.1844,-8.9523 -0.1844,-20.63167 v -20.5177 l 0.75793,-1.18787 c 4.86869,-7.630315 13.65468,-16.516609 22.41615,-22.672041 7.06981,-4.966946 15.49733,-9.185418 23.59483,-11.810617 3.3811,-1.096144 7.92552,-2.273985 8.42292,-2.183076 0.1886,0.03449 1.8671,0.906388 3.73002,1.93759 2.92283,1.617926 3.37035,1.932039 3.26483,2.291575 -0.50873,1.733574 -0.58898,2.603507 -0.34197,3.707241 0.50443,2.254042 2.2086,3.995261 4.43237,4.528736 2.11734,0.507947 4.16023,-0.140861 5.74391,-1.824201 l 0.87809,-0.933355 7.1981,3.9983 7.19809,3.998308 -0.0557,5.13075 -0.0557,5.130757 -4.02219,2.111849 c -2.2122,1.161514 -4.11988,2.209534 -4.23927,2.328924 -0.29995,0.29996 -0.0133,1.09232 0.39513,1.09232 0.29262,0 2.88885,-1.54738 6.77263,-4.036544 l 1.19787,-0.767728 v 25.091982 25.09198 l -2.84183,1.57999 c -1.563,0.869 -2.90812,1.57999 -2.98916,1.57999 -0.081,0 -0.98492,-0.67966 -2.00864,-1.51036 -1.02371,-0.83069 -2.53995,-1.97363 -3.36942,-2.53986 -1.17639,-0.80305 -1.44981,-1.08157 -1.24303,-1.26619 4.70686,-2.86378 5.34541,-4.0409 -0.61659,-0.58938 -0.42657,0.26214 -0.64517,0.18198 -2.64445,-0.96971 -1.7108,-0.98551 -6.53085,-3.33241 -6.84408,-3.33241 -0.0338,0 -0.0255,1.19526 0.0183,2.65614 0.0925,3.08417 -0.19743,4.6642 -1.28319,6.99327 -0.93384,2.00319 -1.95496,3.30161 -4.19757,5.33746 -5.11249,4.64116 -12.51456,9.60006 -19.30512,12.93319 l -3.30659,1.62302 3.38952,1.89534 c 1.86423,1.04243 3.53013,1.86109 3.70199,1.81925 0.17187,-0.0418 10.43707,-5.70381 22.81156,-12.58214 z m -45.035,10.6818 c 7.9915,-1.25732 14.70476,-3.79922 23.1609,-8.76958 5.31864,-3.1262 10.55004,-6.99609 13.77199,-10.18773 2.08105,-2.06146 3.09523,-3.77725 3.75848,-6.35861 0.46834,-1.82273 0.46195,-4.94131 -0.0134,-6.55133 -1.17188,-3.96902 -3.51619,-6.38236 -7.49829,-7.71911 -3.35579,-1.12649 -6.79952,-0.87731 -10.05488,0.72757 -2.5405,1.25245 -3.60929,2.44153 -7.78237,8.65826 -4.12799,6.14955 -6.73026,9.4905 -9.8225,12.6107 -5.65196,5.70306 -11.39567,8.92453 -17.36177,9.73768 l -1.24575,0.16979 0.8333,0.23903 c 0.45831,0.13146 1.53077,0.33781 2.38323,0.45853 0.85247,0.12074 1.58598,0.25554 1.63001,0.29959 0.20127,0.20126 -3.32723,0.36616 -5.13128,0.2398 -5.40421,-0.37853 -10.58128,-1.89765 -14.14175,-4.14964 -0.48696,-0.308 -0.88538,-0.4754 -0.88538,-0.37199 0,0.10342 0.4141,0.75054 0.92023,1.43807 0.99487,1.35143 2.93697,2.86248 4.73018,3.68032 1.15205,0.52541 4.22672,1.43471 5.70329,1.68667 0.7847,0.1339 0.80355,0.15348 0.32333,0.33556 -0.28049,0.10635 -1.19451,0.20134 -2.03117,0.21107 -0.83666,0.01 -1.5212,0.0514 -1.5212,0.0926 0,0.17267 2.51199,1.32432 3.65658,1.6764 0.96382,0.29648 1.92162,0.38081 4.31184,0.37963 1.69005,-7.8e-4 3.0728,0.0208 3.0728,0.048 0,0.11414 -1.40919,0.76501 -2.38506,1.1016 l -1.0523,0.36297 1.45828,0.14671 c 0.80204,0.0807 1.55201,0.18618 1.66659,0.23441 0.46222,0.19455 7.63476,-0.12625 9.54609,-0.42697 z m -5.48375,-1.81218 c -0.64047,-0.26917 -0.6651,-0.26099 2.39573,-0.79638 4.66141,-0.81536 9.46641,-2.21058 13.43695,-3.90167 1.20307,-0.5124 2.23061,-0.97324 2.28343,-1.02408 0.0528,-0.0509 -0.17191,-0.30608 -0.49939,-0.56721 l -0.59542,-0.47476 -2.35593,1.22262 c -3.66572,1.90234 -9.22996,3.58995 -14.63213,4.43788 -0.86233,0.13535 -0.8937,0.12231 -0.67748,-0.28173 0.33553,-0.62694 1.04524,-1.07465 4.9684,-3.13426 4.4628,-2.3429 8.5776,-5.09481 12.34181,-8.25401 l 0.93747,-0.78678 0.12745,1.54241 c 0.15857,1.91904 0.66469,2.94873 2.07076,4.21291 0.75896,0.68237 1.43913,1.07264 2.32302,1.33295 l 1.24984,0.36807 -1.96572,0.98237 c -4.98135,2.48946 -10.34433,4.11376 -16.64406,5.04105 -2.52446,0.37159 -4.0125,0.39676 -4.76473,0.0806 z m 22.98733,-7.05471 c -1.76875,-0.34993 -3.32521,-1.5181 -4.15205,-3.11624 -0.41992,-0.81161 -0.5686,-4.1742 -0.19022,-4.30174 0.1179,-0.0398 0.21646,0.35957 0.22707,0.92002 0.0576,3.0386 2.33354,5.67257 5.36622,6.21022 0.55657,0.0987 0.71588,0.19662 0.52082,0.32023 -0.32597,0.20658 -0.58774,0.20178 -1.77184,-0.0325 z m -15.48764,-0.14776 c 0,-0.28489 5.40917,-8.21324 7.49731,-10.98898 1.12055,-1.48952 2.75884,-3.55194 3.64066,-4.58314 2.39492,-2.80063 7.67707,-8.29218 8.29132,-8.62002 0.73062,-0.38994 1.47121,-0.16624 2.4029,0.72581 0.5693,0.54509 0.69328,0.76915 0.47384,0.85641 -0.59448,0.23637 -2.16713,1.84654 -2.44177,2.50004 -0.15495,0.3687 -0.28174,0.98987 -0.28174,1.38037 v 0.71001 l -0.9076,-0.32637 c -0.83258,-0.2994 -0.98328,-0.29743 -1.82284,0.0238 -1.30145,0.49786 -2.70944,1.72363 -6.05331,5.26989 -4.56412,4.84036 -6.3397,7.42397 -6.5825,9.578 -0.0978,0.86768 -0.15832,0.93112 -2.15844,2.26282 -1.13182,0.75356 -2.05783,1.29869 -2.05783,1.21141 z m 16.9542,-0.76269 c -2.90857,-0.70586 -4.69575,-2.75595 -5.00815,-5.74488 l -0.13444,-1.28632 2.16305,-2.17043 c 1.18968,-1.19375 2.0836,-2.17045 1.98648,-2.17045 -0.4996,0 -3.33754,2.19645 -6.58653,5.09774 -4.03645,3.60445 -4.37588,3.8602 -4.37279,3.29466 0.006,-1.19566 2.2046,-4.39279 5.34015,-7.76743 1.68293,-1.81124 1.89654,-1.97328 2.51877,-1.91074 0.53556,0.0539 0.81807,-0.0698 1.33079,-0.58255 0.54241,-0.54242 0.63223,-0.76596 0.53889,-1.34117 -0.1025,-0.63164 -0.0264,-0.75558 0.89626,-1.45919 0.55455,-0.42291 1.34182,-0.82305 1.74949,-0.88921 1.51935,-0.24656 2.62248,0.80433 2.31481,2.20518 -0.32415,1.47579 2.24219,4.72248 4.10321,5.191 1.5524,0.39084 2.25689,0.0781 4.22226,-1.874 0.98842,-0.98176 1.90455,-2.10082 2.09706,-2.56155 0.18801,-0.44997 0.84803,-1.38555 1.46672,-2.07906 0.61868,-0.69351 1.12219,-1.40156 1.1189,-1.57342 -0.003,-0.17187 -0.57396,-0.96871 -1.26815,-1.77076 -1.53519,-1.77372 -2.46927,-3.33811 -2.47189,-4.13992 -0.002,-0.50838 0.045,-0.55939 0.31053,-0.33907 0.17188,0.14264 0.31249,0.38168 0.31249,0.5312 0,0.14952 0.2578,0.47364 0.57289,0.72027 0.3151,0.24663 0.67441,0.7456 0.79848,1.10883 0.18,0.52696 0.3572,0.67348 0.87685,0.72506 0.47657,0.0473 1.07278,0.4664 2.22271,1.56244 1.37319,1.30882 1.57129,1.58977 1.57019,2.22692 -6.9e-4,0.40102 -0.17446,1.01038 -0.38615,1.35411 -0.6534,1.06096 -5.89677,6.53267 -8.81766,9.20168 -3.71126,3.3912 -7.86919,6.77018 -8.266,6.71745 -0.0733,-0.01 -0.61299,-0.13412 -1.19922,-0.27639 z m 4.55533,-4.69563 c 1.11714,-0.95518 2.03116,-1.80188 2.03116,-1.88156 0,-0.0797 -0.24934,-0.25848 -0.5541,-0.39733 -0.51471,-0.23452 -0.61768,-0.19008 -1.44841,0.62523 -0.96937,0.95137 -0.90739,0.95445 -2.11593,-0.10528 l -0.47275,-0.41455 0.84135,-0.85727 0.84135,-0.85728 -0.47276,-0.43622 -0.47276,-0.43621 -2.17366,2.07068 -2.17366,2.07067 0.45295,0.45296 0.45296,0.45295 0.8241,-0.80471 c 0.8996,-0.87843 0.83146,-0.88457 2.20066,0.19821 0.40717,0.32199 0.39651,0.34624 -0.46873,1.06599 -0.48695,0.40507 -0.88538,0.80814 -0.88538,0.89571 0,0.0876 0.21093,0.25622 0.46874,0.37478 0.53748,0.24719 0.29087,0.40635 3.12487,-2.01677 z m 1.37802,-6.02456 c -0.57386,-0.36393 -1.2875,-1.11389 -1.82295,-1.91575 -0.76328,-1.14301 -0.86276,-1.41929 -0.75045,-2.08406 0.0712,-0.4215 0.0284,-1.3236 -0.0951,-2.00467 -0.16717,-0.92185 -0.16154,-1.42097 0.022,-1.95311 0.87048,-2.52375 3.73442,-3.73503 6.4268,-2.71816 1.79212,0.67685 3.55582,2.68848 3.53,4.02622 -0.008,0.40249 -0.0727,0.3567 -0.4159,-0.293 -1.04708,-1.98262 -4.5185,-3.35151 -6.54073,-2.57922 -1.93818,0.7402 -2.76824,3.41044 -1.77666,5.71542 0.81252,1.88877 2.97365,3.35162 4.97768,3.36935 l 0.7441,0.006 -0.58451,0.51422 c -0.86198,0.75834 -2.4426,0.72267 -3.71431,-0.0838 z m 1.31319,-1.81921 c -2.35751,-1.1748 -3.41412,-3.97771 -2.26931,-6.01988 0.56693,-1.01131 1.73676,-1.65905 2.63854,-1.46099 0.59828,0.13141 0.61127,0.16108 0.49606,1.13385 -0.25537,2.15628 1.16353,4.1603 3.30969,4.67455 0.5232,0.12537 0.58164,0.0711 0.80105,-0.74375 0.28591,-1.06178 0.0135,-2.18892 -0.79529,-3.29118 l -0.53504,-0.72913 0.65581,0.60832 c 1.34003,1.24299 1.56662,2.93314 0.63742,4.75452 -0.85067,1.66744 -2.86755,2.1059 -4.93893,1.07369 z m -0.13924,-3.91147 c 0.38755,-0.14636 0.39119,-0.17165 0.0521,-0.36202 -0.20051,-0.11256 -0.36457,-0.34062 -0.36457,-0.5068 0,-0.39614 -0.33873,-0.38901 -0.49199,0.0103 -0.066,0.17187 -0.278,0.31248 -0.47122,0.31248 -0.32715,0 -0.3276,0.0262 -0.006,0.38098 0.18963,0.20953 0.34776,0.51421 0.3514,0.67705 0.006,0.24065 0.0542,0.23516 0.26041,-0.0293 0.13958,-0.17896 0.44127,-0.3962 0.67043,-0.48274 z m 7.39554,-5.34692 c 0,-0.3804 -0.18792,-0.82236 -0.46932,-1.10375 -0.25812,-0.25813 -0.63429,-0.72111 -0.83594,-1.02885 -0.20164,-0.30774 -0.59979,-0.61806 -0.88479,-0.68959 -0.60871,-0.15278 -0.62496,-0.26321 -0.18961,-1.28944 l 0.32856,-0.77453 0.37544,0.97636 c 0.56828,1.4779 1.16239,2.33089 2.43094,3.49027 l 1.15321,1.05397 h -0.95424 c -0.92456,0 -0.95425,-0.0198 -0.95425,-0.63444 z m 1.21502,-0.98007 c -0.96086,-1.00967 -2.6733,-3.6247 -2.6733,-4.08235 0,-0.26449 0.71246,-0.13104 1.60365,0.30037 1.07928,0.52247 2.37984,2.22804 2.77488,3.63899 0.22754,0.81268 0.22391,0.99255 -0.0232,1.14899 -0.44754,0.28334 -0.46486,0.27298 -1.68201,-1.006 z m 2.32192,-0.41665 c -0.017,-1.35155 -2.06108,-3.80101 -3.54236,-4.24481 -0.70548,-0.21137 -0.80158,-0.29326 -0.4885,-0.41629 0.21436,-0.0842 0.81308,-0.15975 1.33046,-0.16781 2.31605,-0.0361 3.94126,2.08994 3.33078,4.35709 -0.22796,0.84659 -0.62197,1.1415 -0.63038,0.47182 z m -49.78504,-36.62984 c 0,-0.16756 0.23436,-0.41144 0.52081,-0.54195 0.57506,-0.26202 0.69307,-0.58707 0.21312,-0.58707 -0.16922,0 -0.46124,-0.23437 -0.64893,-0.52082 -0.41542,-0.63402 -0.62549,-0.65808 -0.77438,-0.0887 -0.0621,0.23766 -0.30745,0.48296 -0.54511,0.54511 -0.55198,0.14435 -0.55361,0.41442 -0.003,0.58901 0.23572,0.0748 0.51678,0.36801 0.62458,0.65154 0.20118,0.52915 0.61343,0.49748 0.61343,-0.0471 z m 11.50994,-2.940882 c 0.0859,-0.04821 0.15625,-0.928157 0.15625,-1.955436 0,-1.813256 0.0156,-1.873718 0.53437,-2.070954 1.08849,-0.413849 1.13222,-0.349277 1.13222,1.67175 0,1.968327 0.0199,2.003464 0.98954,1.743622 0.46758,-0.125306 0.46874,-0.136582 0.46874,-4.584269 V 89.75484 l -0.5729,0.136931 c -0.88742,0.21211 -0.88538,0.207346 -0.88538,2.06475 v 1.752511 l -0.67705,0.183701 c -0.37238,0.101027 -0.74736,0.145049 -0.83331,0.09782 -0.0859,-0.04724 -0.15623,-0.830312 -0.15623,-1.74018 0,-1.73363 -0.0302,-1.780092 -0.98955,-1.523 -0.46758,0.125309 -0.46873,0.136585 -0.46873,4.584276 v 4.45865 l 0.5729,-0.136934 c 0.31508,-0.07531 0.6432,-0.176379 0.72913,-0.224589 z m 48.07094,-4.101103 c 0,-4.443566 -7.9e-4,-4.454998 -0.46873,-4.5803 -0.98362,-0.263596 -0.98869,-0.252447 -1.00594,2.21235 l -0.0164,2.343659 -0.86898,-2.537462 c -0.47794,-1.395604 -0.91586,-2.577682 -0.97315,-2.626837 -0.0573,-0.04913 -0.36196,-0.151222 -0.67706,-0.22681 l -0.57289,-0.137435 v 4.458651 c 0,4.447687 7.9e-4,4.458963 0.46873,4.584269 0.2578,0.06909 0.53904,0.126894 0.62497,0.128459 0.0859,0.0016 0.16516,-1.192416 0.17605,-2.653293 l 0.0198,-2.656143 0.96974,2.911156 c 0.99072,2.974177 1.05227,3.065423 2.16761,3.213658 0.0859,0.01142 0.15623,-1.983842 0.15623,-4.433922 z m -68.01287,1.017328 c 2.24867,-2.785248 7.16176,-7.832174 9.99443,-10.266665 2.56284,-2.202586 2.89567,-2.526321 2.08324,-2.026239 -3.81284,2.346935 -7.28696,4.957158 -10.91977,8.204403 l -1.48562,1.327945 0.0571,-3.5906 0.0571,-3.590609 21.14497,-11.761556 c 11.62972,-6.468852 21.4328,-11.905038 21.78461,-12.080409 0.6248,-0.31146 0.68159,-0.295405 2.44716,0.691428 0.99414,0.555663 1.80324,1.057162 1.79801,1.114451 -0.006,0.05732 -1.70053,0.931914 -3.76731,1.943613 -2.06678,1.011698 -3.72418,1.873064 -3.6831,1.914142 0.0411,0.0411 1.52574,-0.42329 3.29923,-1.031942 1.77349,-0.608645 4.42357,-1.414674 5.88906,-1.791171 1.4655,-0.376496 2.59045,-0.754024 2.4999,-0.83895 -0.27734,-0.260107 -7.72207,-4.362513 -7.90736,-4.357332 -0.0955,0.0024 -10.34507,5.658877 -22.77685,12.569357 l -22.60324,12.5645 -0.055,6.849419 c -0.0302,3.767176 0.0234,6.759047 0.11916,6.648601 0.0958,-0.110447 1.00668,-1.232021 2.02424,-2.492386 z m 29.64157,1.140449 c 1.11903,-0.682255 1.32997,-1.496356 1.25263,-4.834423 l -0.0673,-2.905338 -0.61101,-0.525065 c -0.51208,-0.440052 -0.76049,-0.508223 -1.53415,-0.421014 -2.10966,0.237786 -2.60403,1.288231 -2.50568,5.32412 0.067,2.750107 0.0737,2.783657 0.65221,3.281117 0.73124,0.628761 1.86112,0.661134 2.81331,0.0806 z m -1.68693,-1.165606 c -0.18033,-0.180323 -0.19988,-5.327348 -0.022,-5.790895 0.0753,-0.19637 0.37224,-0.32953 0.73471,-0.32953 h 0.60825 l -0.0576,3.072795 -0.0576,3.072787 -0.52861,0.06165 c -0.29073,0.03394 -0.5954,-0.0055 -0.67705,-0.0868 z m 31.83887,1.076255 c 0.49774,-0.497743 0.51134,-0.594999 0.51134,-3.65603 0,-3.555193 -0.156,-4.103934 -1.32433,-4.658344 -1.32347,-0.628022 -2.47251,-0.38604 -3.01646,0.635273 -0.36415,0.683727 -0.32035,5.72556 0.0576,6.630137 0.61393,1.469328 2.75582,2.064995 3.77185,1.048964 z m -2.25675,-1.076255 c -0.0816,-0.08164 -0.14846,-1.492143 -0.14846,-3.13443 v -2.985995 h 0.49531 c 0.87537,0 0.97951,0.381756 0.9171,3.362027 l -0.0583,2.783555 -0.52861,0.06165 c -0.29073,0.03394 -0.59541,-0.0055 -0.67705,-0.0868 z m -19.65356,-0.05984 0.65171,-0.651288 0.0687,-3.850424 0.0687,-3.850433 h -0.84985 -0.84983 l -0.003,3.593609 c -0.002,1.976477 -0.0827,3.718981 -0.17981,3.872234 -0.0971,0.153246 -0.40037,0.24699 -0.67387,0.208322 l -0.49725,-0.07031 -0.0568,-3.697761 -0.0568,-3.697769 h -0.82849 -0.82849 v 3.65603 c 0,4.790796 0.29271,5.40844 2.47316,5.218439 0.67859,-0.05913 1.07682,-0.24536 1.56243,-0.730647 z m 13.67201,-2.935698 v -3.749846 h 0.72914 c 0.67295,0 0.72913,-0.04866 0.72913,-0.631509 0,-0.755576 -0.008,-0.758662 -2.44781,-0.921466 l -1.92701,-0.128593 v 0.736623 c 0,0.702971 0.0333,0.736623 0.72914,0.736623 h 0.72914 v 3.73535 c 0,4.097202 -0.089,3.804096 1.19787,3.944295 0.19973,0.02173 0.2604,-0.845351 0.2604,-3.721477 z m -6.76598,3.240552 c 0.93784,-0.391858 1.46091,-1.435799 1.25891,-2.512527 -0.1088,-0.579968 -0.51136,-1.148118 -1.58997,-2.243963 -1.49134,-1.515189 -1.78698,-2.229735 -1.08508,-2.622537 0.43583,-0.243904 1.09908,0.05787 1.09908,0.500121 0,0.211873 0.23085,0.30516 0.75518,0.30516 0.73977,0 0.75253,-0.01378 0.62519,-0.677058 -0.31202,-1.625296 -2.47773,-2.215799 -3.68796,-1.005565 -1.15197,1.151968 -0.70111,2.997884 1.07601,4.405385 1.07586,0.852099 1.53453,1.710962 1.22381,2.291552 -0.31724,0.592755 -1.06584,0.44084 -1.41355,-0.286854 -0.23208,-0.485697 -0.39101,-0.573969 -0.93771,-0.520814 -0.83381,0.08108 -0.92152,0.500507 -0.29812,1.42558 0.80745,1.198179 1.69073,1.477789 2.97421,0.94152 z m 34.12093,-5.755913 c 0.0621,-0.23766 0.30745,-0.482957 0.54511,-0.545104 0.56938,-0.148899 0.54532,-0.358961 -0.0887,-0.774385 -0.28645,-0.187685 -0.52081,-0.479705 -0.52081,-0.648934 0,-0.479941 -0.32506,-0.361938 -0.58707,0.213125 -0.13051,0.286445 -0.37439,0.520813 -0.54196,0.520813 -0.54459,0 -0.57626,0.412251 -0.0471,0.613432 0.28354,0.107798 0.57674,0.388866 0.65155,0.62458 0.17459,0.55008 0.44466,0.548458 0.589,-0.0039 z m -35.27129,-7.921493 c 0,-1.204187 1.33496,-2.684929 2.42231,-2.686843 0.24377,-4.25e-4 0.55901,-0.140285 0.70051,-0.310798 0.2814,-0.339065 0.24059,-0.36678 -0.91644,-0.622321 -0.86126,-0.19022 -1.93699,-1.342693 -2.10897,-2.259435 -0.19465,-1.037579 -0.62261,-0.966196 -0.90387,0.150774 -0.25372,1.007628 -1.14401,1.918063 -2.07406,2.120999 -0.92159,0.201094 -1.07765,0.272461 -1.07765,0.492846 0,0.115987 0.2578,0.264422 0.57289,0.329845 1.17595,0.244155 1.98712,0.811234 2.37186,1.658121 0.20861,0.459209 0.38136,0.998982 0.38387,1.199494 0.002,0.200511 0.1452,0.364567 0.31707,0.364567 0.17851,0 0.31248,-0.187464 0.31248,-0.437249 z"
         id="path861"
         sodipodi:nodetypes="scsssscscccssscsssscccscsccccscscccccsssssscccssssscccccccsscsssssscsccsscssssscssscccccsssscccsssssssscssscsscccssscssssscsscsssssssssscsscssccssssscssssscssscssssssssssssssssssscsssssssscssscssssssssssscscsssssssssssssssscccccccccsssssscscccsccssccsccssssssscssscsscsccsccssssscsscssssssssscssssccssscscsccsscssscsscccscscssccccscscscsccsscccscscccssscssssscsccsccsscscccssccscccccccsssccccscscccsccccccccsscccccssccscssscsscscssssssssssssssscsssssssccsssssssssscss" /><text
         xml:space="preserve"
         style="font-size:23.505px;line-height:1;font-family:'Gaming Sporty';-inkscape-font-specification:'Gaming Sporty';text-align:center;letter-spacing:1.48742px;word-spacing:0px;writing-mode:lr-tb;direction:ltr;text-anchor:middle;fill:#ffd42a;fill-opacity:1;stroke-width:9.54858"
         id="text1"
         y="97.281769"
         x="276.13632"
         transform="scale(0.75612417,1.3225341)"><tspan
           sodipodi:role="line"
           id="tspan1"
           style="font-style:normal;font-variant:normal;font-weight:normal;font-stretch:normal;font-family:'Silvano Western Demo';-inkscape-font-specification:'Silvano Western Demo';fill:#ffd42a;fill-opacity:1;stroke-width:9.54858"
           x="276.88004"
           y="97.281769">CosmoS</tspan></text></g></g></svg>
