<?xml version="1.0" encoding="UTF-8" standalone="no"?>
<!-- Created with Inkscape (http://www.inkscape.org/) -->

<svg
   width="105.83334mm"
   height="105.83334mm"
   viewBox="0 0 105.83333 105.83333"
   version="1.1"
   id="svg1"
   xml:space="preserve"
   inkscape:version="1.4 (e7c3feb100, 2024-10-09)"
   sodipodi:docname="houston.svg"
   inkscape:export-filename="../pngs/NBL.png"
   inkscape:export-xdpi="96"
   inkscape:export-ydpi="96"
   xmlns:inkscape="http://www.inkscape.org/namespaces/inkscape"
   xmlns:sodipodi="http://sodipodi.sourceforge.net/DTD/sodipodi-0.dtd"
   xmlns="http://www.w3.org/2000/svg"
   xmlns:svg="http://www.w3.org/2000/svg"><sodipodi:namedview
     id="namedview1"
     pagecolor="#ffffff"
     bordercolor="#000000"
     borderopacity="0.25"
     inkscape:showpageshadow="2"
     inkscape:pageopacity="0.0"
     inkscape:pagecheckerboard="0"
     inkscape:deskcolor="#d1d1d1"
     inkscape:document-units="mm"
     inkscape:zoom="0.87417308"
     inkscape:cx="481.02602"
     inkscape:cy="280.26486"
     inkscape:window-width="1920"
     inkscape:window-height="1011"
     inkscape:window-x="0"
     inkscape:window-y="32"
     inkscape:window-maximized="1"
     inkscape:current-layer="layer1"
     showgrid="false" /><defs
     id="defs1" /><g
     inkscape:label="Capa 1"
     inkscape:groupmode="layer"
     id="layer1"><g
       id="g5"
       transform="translate(-91.123213,-27.935434)"><g
         id="text1-3"
         transform="rotate(-2.6257058,705.38771,294.77208)"
         style="fill:#ce1141;fill-opacity:1"><path
           style="-inkscape-font-specification:Sportsball;fill:#ce1141;fill-opacity:1"
           d="m 134.33449,41.864526 -1.88008,0.07264 -2.929,-2.711242 -0.0738,-1.881185 2.71124,-2.929004 1.88237,-0.07272 0.97634,0.903748 -1.8086,1.953861 -0.97633,-0.903747 -0.90375,0.976334 2.929,2.711243 0.90375,-0.976335 -0.97633,-0.903748 1.80859,-1.95386 0.97634,0.903746 0.0715,1.881274 z m 8.01684,-8.345732 -1.88823,-3.516316 -1.17211,0.629411 1.88823,3.516316 z m -1.7148,2.430927 -1.80152,-0.542695 -1.88823,-3.516317 0.54193,-1.802947 3.51631,-1.888231 1.80372,0.543358 1.88823,3.516317 -0.54413,1.802285 z m 6.56977,-3.33009 -0.21407,-1.313073 3.93921,-0.642234 -0.21407,-1.313073 -2.62615,0.428157 -1.52715,-1.098995 -0.21408,-1.313072 1.09873,-1.528754 5.2539,-0.856574 0.21434,1.314676 -3.94082,0.642496 0.21407,1.313072 2.62615,-0.428156 1.52875,1.098733 0.21408,1.313072 -1.10059,1.527412 z m 8.65343,-1.451447 1.45563,-6.492493 3.89454,0.873165 -0.001,0.0064 0.5056,0.789248 0.79401,-0.504533 3.89613,0.873521 -1.45564,6.492494 -2.59636,-0.582111 1.16422,-5.192727 -1.29977,-0.291411 -1.16422,5.192728 -1.29818,-0.291056 1.16422,-5.192727 -1.29818,-0.291056 -1.16422,5.192728 z m 15.00674,4.09227 2.26259,-3.287952 -1.09599,-0.754194 -2.26258,3.287952 z m -2.94616,-0.412404 -0.34179,-1.850177 2.26259,-3.287953 1.85109,-0.343128 3.28796,2.262582 0.3422,1.852436 -2.26258,3.287952 -1.85151,0.34087 z m 5.96722,4.317859 1.06958,-0.791188 2.37356,3.208756 1.06959,-0.791188 -1.58238,-2.13917 0.2784,-1.860772 1.06959,-0.791187 1.86207,0.277432 3.16572,4.279645 -1.07089,0.792154 -2.37453,-3.210061 -1.06959,0.791187 1.58238,2.139169 -0.27743,1.862079 -1.06959,0.791187 -1.86174,-0.279703 z"
           id="path1" /><path
           style="-inkscape-font-specification:Sportsball;fill:#ce1141;fill-opacity:1"
           d="m 156.21875,22.945312 -1.37891,6.152344 -0.16211,-1 -0.70507,-0.505859 0.60546,-0.09961 -0.67968,-4.171875 -7.27539,1.185547 -1.79883,2.503907 0.4082,2.496093 0.70313,0.50586 -0.60547,0.09961 0.0625,0.384766 -1.5918,-2.966797 -2.95312,-0.888672 -4.57227,2.455078 -0.88867,2.951172 1.67187,3.111328 -1.14062,-1.054687 -1.33008,-1.230469 -3.08008,0.11914 -3.52734,3.808594 0.12109,3.080078 3.8086,3.527344 3.08007,-0.119141 3.52539,-3.810546 -0.10156,-2.685547 2.37891,0.716797 4.57226,-2.457032 0.5,-1.65625 0.14454,0.884766 7.27343,-1.185547 0.95899,-1.332031 -0.11133,0.5 3.89453,0.873047 1.52734,0.34375 1.07032,0.240234 1.52539,0.341797 3.89648,0.873047 0.23047,-1.023438 0.33008,1.789063 4.27539,2.941406 1.70117,-0.3125 -0.7207,0.533203 4.38281,5.923828 3.04883,0.457032 2.03515,-1.503907 0.12696,-0.857422 0.36523,0.492188 3.39844,-2.513672 -4.38281,-5.925781 -3.04883,-0.455078 -2.0332,1.503906 -0.12891,0.859375 -0.36523,-0.494141 -0.31055,0.230469 1.90625,-2.771484 -0.56055,-3.03125 -4.27734,-2.94336 -3.0293,0.560547 -2.18945,3.183594 1.33594,-5.960938 -5.28516,-1.185546 -0.61133,-0.136719 z"
           id="path5" /></g><circle
         style="fill:#ce1141;fill-opacity:1;stroke-width:2.05103"
         id="path81"
         cx="144.37225"
         cy="87.778481"
         r="25.536959" /><path
         id="path56"
         style="fill:#ff7f2a;stroke-width:4.16341"
         d="m 141.27566,112.25018 c -2.95511,-0.42634 -4.85058,-1.00418 -7.84318,-2.39101 -2.32655,-1.0782 -2.73189,-1.39504 -2.73189,-2.13521 0,-2.69964 5.06518,-14.385264 9.61397,-22.179916 2.96146,-5.074671 6.71944,-8.392774 9.78995,-8.644023 1.13001,-0.09248 1.20098,-0.02831 1.45341,1.312795 0.14614,0.775507 0.50794,3.472151 0.80446,5.992539 1.45166,12.339838 -0.25272,23.150645 -4.28619,27.183915 -0.99266,0.99268 -3.59961,1.32267 -6.80053,0.86091 z m 10.33406,-2.29463 c 1.09685,-1.96243 2.15277,-5.64904 2.73107,-9.53509 0.80212,-5.389876 0.34015,-16.858264 -0.93211,-23.144229 -0.18901,-0.93337 -0.18444,-0.935448 1.28729,-0.604761 6.13134,1.37762 11.91911,10.159164 11.95125,18.133124 0.0125,3.166693 -0.7654,5.286996 -2.94062,8.012286 -3.09454,3.87718 -8.0321,7.34239 -12.17303,8.54316 l -0.8459,0.24522 z m -25.1178,-5.1307 c -1.21182,-1.25914 -2.8168,-3.32045 -3.56663,-4.58063 -1.8109,-3.043498 -3.2647,-7.498726 -3.0482,-9.341328 0.65741,-5.595005 5.90847,-11.553726 13.6397,-15.477865 5.31718,-2.698834 9.94784,-4.076116 14.11273,-4.197496 l 2.22216,-0.06473 0.43035,1.659097 0.43035,1.6591 -2.25897,0.751736 c -2.36728,0.787777 -4.79817,2.483548 -6.74894,4.708003 -1.93319,2.204408 -3.29599,4.552244 -7.50413,12.928214 -2.93022,5.832361 -3.73918,7.784709 -4.73482,11.427199 l -0.77031,2.81813 z m 41.46931,-15.155703 c -0.34556,-1.260183 -1.37146,-3.78155 -2.27984,-5.603012 -2.69727,-5.408304 -6.70626,-8.840619 -10.98967,-9.408834 -1.9471,-0.258298 -2.11842,-0.443286 -2.64252,-2.853408 l -0.24397,-1.121383 1.87333,0.183774 c 5.70812,0.559966 11.33527,3.278547 12.85025,6.208196 1.73552,3.356158 2.80718,9.333606 2.32123,12.947182 l -0.26063,1.938736 z M 119.7772,83.994026 c 0.0217,-4.340627 4.59666,-12.347611 8.58879,-15.03111 2.86384,-1.925063 4.4436,-2.206432 12.38831,-2.206432 h 7.10574 l 0.42228,0.92681 c 0.23228,0.509744 0.35939,0.989715 0.28249,1.066602 -0.0769,0.07689 -1.55012,0.371917 -3.27385,0.655604 -10.37958,1.708295 -19.80658,7.091656 -24.54857,14.018649 -0.86308,1.260774 -0.96892,1.323264 -0.96519,0.569877 z m 41.41486,-13.360694 c -1.7637,-0.808385 -6.32905,-1.761832 -8.43616,-1.761832 -1.42305,0 -1.65191,-0.115743 -2.15587,-1.090264 -0.31009,-0.599644 -0.50797,-1.146089 -0.43974,-1.214318 0.0683,-0.06824 1.58719,-0.153673 3.3755,-0.189852 2.96689,-0.06004 3.36708,0.01333 4.5726,0.836409 1.31976,0.901245 5.0033,4.124436 4.66993,4.086294 -0.097,-0.01124 -0.81078,-0.311005 -1.58626,-0.666445 z m -23.61767,-6.762788 c 1.19851,-0.396982 3.21706,-0.725405 4.6582,-0.757929 2.21033,-0.04989 2.64734,0.04638 3.33898,0.735725 l 0.79579,0.793131 -5.45399,-0.03539 -5.454,-0.03539 z m 10.82143,0.0472 c -0.43345,-0.694057 -0.39719,-0.713851 0.88459,-0.482776 0.73511,0.132522 1.81244,0.445265 2.39409,0.694978 1.03744,0.445422 1.0207,0.454565 -0.88461,0.482777 -1.59561,0.02373 -2.02273,-0.100378 -2.39407,-0.694977 z" /><path
         style="fill:#000000;stroke-width:0.832034"
         d="m 148.39383,91.27036 c -0.93137,-0.385833 -1.741,-0.749114 -1.79918,-0.807291 -0.0582,-0.05818 1.49637,-0.790924 3.45455,-1.628327 12.47487,-5.334797 23.40997,-10.95936 26.06988,-13.409257 0.74169,-0.683129 0.93561,-1.014016 0.93561,-1.596452 0,-0.923058 -0.45875,-1.19209 -2.02185,-1.185726 -1.16291,0.0047 -3.96136,0.554294 -5.95447,1.169336 l -1.04184,0.321494 -0.88441,-1.295664 c -0.48642,-0.712615 -0.88441,-1.343166 -0.88441,-1.401225 0,-0.11752 5.66851,-1.931121 9.24598,-2.958189 10.94938,-3.143494 19.81282,-4.241174 19.81282,-2.453691 0,1.018907 -2.97389,3.771799 -7.04606,6.522445 -5.07686,3.429287 -9.77544,6.060026 -19.37103,10.845838 -6.4974,3.240588 -18.24678,8.651723 -18.66874,8.597823 -0.0844,-0.01078 -0.91547,-0.335281 -1.84685,-0.721114 z"
         id="path4" /><path
         style="fill:#ce1141;fill-opacity:1;stroke-width:0.832034"
         d="M 190.54973,108.94753 C 178.43794,107.77512 150.31771,98.082377 125.32122,86.463916 109.87651,79.285157 97.880342,72.221618 93.981872,68.010806 c -2.10514,-2.273794 -1.61603,-2.754213 2.61077,-2.564403 2.94496,0.132247 5.926768,0.635457 10.676908,1.801831 4.96676,1.219567 14.21062,3.936861 14.60335,4.292756 0.1772,0.160575 -1.31777,2.639166 -1.59108,2.637956 -0.0737,-3.25e-4 -1.32271,-0.30415 -2.77565,-0.675165 -1.45294,-0.371015 -3.34663,-0.730766 -4.2082,-0.799447 -1.39973,-0.11158 -1.61651,-0.07486 -2.03632,0.344952 -0.69854,0.698537 -0.57806,1.30155 0.46578,2.331336 6.15574,6.072856 55.14983,26.316728 63.69159,26.316728 2.35493,0 2.79895,-1.24765 1.03028,-2.894963 -0.89124,-0.830079 -1.81175,-1.451676 -5.03005,-3.396659 -0.45217,-0.273266 -0.45492,-0.312662 -0.12827,-1.834021 l 0.33382,-1.554757 2.76998,1.458124 c 12.44391,6.550506 19.57168,11.390876 21.13847,14.354856 0.1662,0.3144 0.19482,0.59847 0.0726,0.72069 -0.19148,0.19148 -2.56369,0.66128 -3.03112,0.6003 -0.12108,-0.0158 -1.03233,-0.10734 -2.025,-0.20343 z"
         id="path3" /><path
         style="fill:#000000;stroke-width:0.832034"
         d="m 92.977672,108.90376 c -0.76435,-0.38998 -0.76889,-0.6305 -0.0311,-1.64894 1.50354,-2.07557 6.98017,-6.05562 13.332368,-9.689069 3.47595,-1.988241 10.19684,-5.554677 10.46769,-5.554677 0.0979,0 0.28993,0.569619 0.42675,1.265819 0.13681,0.6962 0.28602,1.381037 0.33157,1.52186 0.0456,0.140822 -0.79545,0.762918 -1.86889,1.382434 -2.58,1.489009 -4.58083,2.978991 -4.87893,3.633253 -0.3697,0.81139 -0.0727,1.58226 0.71555,1.85703 1.81319,0.63208 9.3617,-1.45472 21.18987,-5.857975 l 5.02981,-1.872435 1.8481,0.74111 c 1.01646,0.407611 1.8488,0.808023 1.84965,0.889804 0.004,0.335026 -13.79925,5.457236 -21.13213,7.842146 -11.18553,3.63796 -20.396258,5.77244 -24.876088,5.76478 -1.04406,-0.002 -2.10681,-0.12341 -2.40419,-0.27514 z"
         id="path2" /><path
         d="m 123.57971,67.115424 -1.87478,0.158687 -3.05013,-2.574214 -0.15986,-1.87583 2.5742,-3.050134 1.87708,-0.158874 1.01671,0.858072 -1.7172,2.034664 -1.0167,-0.858071 -0.85807,1.01671 3.05012,2.574216 0.85808,-1.016712 -1.0167,-0.858073 1.71718,-2.034662 1.01671,0.85807 0.15757,1.876026 z m 7.62609,-8.70423 -2.04733,-3.426123 -1.14205,0.682447 2.04734,3.426121 z m -1.60163,2.506931 -1.82449,-0.459596 -2.04734,-3.426122 0.45876,-1.825881 3.42613,-2.047335 1.82671,0.460157 2.04734,3.426123 -0.461,1.82532 z m 6.41031,-3.627562 -0.27399,-1.301888 3.90565,-0.82202 -0.274,-1.301887 -2.60378,0.548014 -1.5759,-1.027881 -0.274,-1.301885 1.02754,-1.577484 5.20914,-1.096361 0.27434,1.303476 -3.90724,0.822355 0.274,1.301887 2.60378,-0.548014 1.57748,1.027545 0.274,1.301887 -1.02946,1.576227 z m 8.57786,-1.846347 1.15667,-6.552361 3.93046,0.693834 -7.1e-4,0.0064 0.54122,0.765257 0.77007,-0.540378 3.93205,0.694118 -1.15669,6.552362 -2.62029,-0.462558 0.92511,-5.240609 -1.31175,-0.231561 -0.92512,5.240611 -1.31014,-0.23128 0.9251,-5.24061 -1.31015,-0.231278 -0.92511,5.24061 z m 15.17846,3.400497 2.10958,-3.388152 -1.12938,-0.703194 -2.10959,3.388152 z m -2.96196,-0.277004 -0.4262,-1.832577 2.10959,-3.388153 1.83343,-0.427568 3.38816,2.109581 0.42671,1.834814 -2.10959,3.388152 -1.83395,0.425333 z m 6.15876,4.03996 1.0322,-0.839356 2.51807,3.096652 1.03222,-0.839356 -1.67871,-2.064435 0.19286,-1.871571 1.03222,-0.839356 1.87283,0.191837 3.35845,4.130126 -1.03348,0.840381 -2.51909,-3.09791 -1.03223,0.839356 1.67872,2.064432 -0.19183,1.872833 -1.03223,0.839356 -1.87259,-0.194121 z"
         id="text1"
         style="font-size:10.5833px;line-height:1;font-family:Sportsball;-inkscape-font-specification:Sportsball;text-align:center;letter-spacing:1.57692px;text-anchor:middle;fill:#ffffff;stroke-width:1.29637"
         aria-label="cosmos" /></g></g></svg>
