<?xml version="1.0" encoding="UTF-8" standalone="no"?>
<!-- Created with Inkscape (http://www.inkscape.org/) -->

<svg
   width="105.83334mm"
   height="105.83334mm"
   viewBox="0 0 105.83333 105.83333"
   version="1.1"
   id="svg1"
   xml:space="preserve"
   inkscape:version="1.4 (e7c3feb100, 2024-10-09)"
   sodipodi:docname="indiana.svg"
   inkscape:export-filename="../pngs/okc.png"
   inkscape:export-xdpi="96"
   inkscape:export-ydpi="96"
   xmlns:inkscape="http://www.inkscape.org/namespaces/inkscape"
   xmlns:sodipodi="http://sodipodi.sourceforge.net/DTD/sodipodi-0.dtd"
   xmlns="http://www.w3.org/2000/svg"
   xmlns:svg="http://www.w3.org/2000/svg"><sodipodi:namedview
     id="namedview1"
     pagecolor="#ffffff"
     bordercolor="#000000"
     borderopacity="0.25"
     inkscape:showpageshadow="2"
     inkscape:pageopacity="0.0"
     inkscape:pagecheckerboard="0"
     inkscape:deskcolor="#d1d1d1"
     inkscape:document-units="mm"
     inkscape:zoom="0.95482953"
     inkscape:cx="34.561143"
     inkscape:cy="216.79262"
     inkscape:window-width="1920"
     inkscape:window-height="1011"
     inkscape:window-x="0"
     inkscape:window-y="32"
     inkscape:window-maximized="1"
     inkscape:current-layer="layer1"
     showgrid="false"
     showguides="true" /><defs
     id="defs1"><filter
       id="mask-powermask-path-effect61_inverse"
       inkscape:label="filtermask-powermask-path-effect61"
       style="color-interpolation-filters:sRGB"
       height="100"
       width="100"
       x="-50"
       y="-50"><feColorMatrix
         id="mask-powermask-path-effect61_primitive1"
         values="1"
         type="saturate"
         result="fbSourceGraphic" /><feColorMatrix
         id="mask-powermask-path-effect61_primitive2"
         values="-1 0 0 0 1 0 -1 0 0 1 0 0 -1 0 1 0 0 0 1 0 "
         in="fbSourceGraphic" /></filter><clipPath
       clipPathUnits="userSpaceOnUse"
       id="clipPath61"><path
         style="fill:none;fill-opacity:1;stroke:#1a1a1a;stroke-width:0.3;stroke-dasharray:none;stroke-opacity:1"
         d="m 19.343363,137.48906 1.575839,2.57864 -1.432581,4.72752 -0.859548,2.14887 -0.573032,3.58145 2.005613,2.43539 62.460506,-10.02807 2.148872,-6.30335 2.721904,-5.87358 -26.932515,3.72471 -6.446612,0.85955 -0.143256,-3.86797 -5.730322,0.71629 -1.146067,2.57864 -4.154482,1.43258 -3.867967,2.14888 -7.019645,0.14326 -1.432581,-2.57865 z"
         id="path61" /></clipPath></defs><g
     inkscape:label="Capa 1"
     inkscape:groupmode="layer"
     id="layer1"><g
       id="g65"
       transform="translate(-0.83130017,-5.8191014)"><g
         id="g64"
         transform="matrix(0.95288494,0,0,0.95288494,-6.327095,-12.208759)"><g
           id="path62-6-9"
           style="fill:#002d62;fill-opacity:1"
           transform="translate(15.802603,-16.207798)"><path
             style="fill:#002d62;fill-opacity:1"
             d="m 72.825564,132.183 c -0.64535,-1.84754 -1.17337,-3.49953 -1.17337,-3.67109 0,-1.16583 -9.65414,-27.60593 -12.29841,-33.682036 -2.73809,-6.29171 -3.48127,-7.479754 -4.67894,-7.479754 -1.225123,0 -1.558395,0.585586 -2.388065,4.195962 -0.530329,2.307775 -1.741985,7.528753 -2.692572,11.602168 -1.760614,7.54453 -2.052035,10.20871 -1.273235,11.64 0.617153,1.13422 2.837121,2.47883 4.114405,2.49205 1.822557,0.0187 2.728397,1.13176 2.292627,2.81665 -0.39651,1.53304 -0.59217,1.55057 -17.308717,1.55057 -11.570659,0 -16.907677,-0.2455 -16.907677,-0.77771 0,-2.08951 1.317711,-3.60087 3.142875,-3.60475 4.957627,-0.0105 7.149875,-1.84477 8.658969,-7.24478 0.941844,-3.37022 0.426994,-3.67228 -6.282597,-3.68595 -4.118744,-0.008 -5.420036,-0.238 -5.233058,-0.92334 0.136875,-0.5017 0.947459,-3.78549 1.801295,-7.297321 l 1.552433,-6.385156 h 6.16785 c 5.358846,0 6.208774,-0.167497 6.479855,-1.277029 1.294821,-5.299682 2.741428,-12.415686 2.741428,-13.485373 0,-1.149828 -0.654375,-1.291699 -5.957907,-1.291699 h -5.957908 l 0.408301,-2.006763 c 0.224574,-1.103718 0.976347,-4.305416 1.670622,-7.114886 l 1.262321,-5.108123 5.91611,-0.210962 c 3.253863,-0.116033 6.140528,-0.486352 6.414816,-0.822944 0.274286,-0.336593 0.724742,-1.841857 1.00101,-3.345035 0.430274,-2.341123 0.309415,-2.96976 -0.842792,-4.383688 -0.739805,-0.907847 -2.45702,-1.88116 -3.816037,-2.162918 -2.820997,-0.584862 -3.146589,-0.97142 -2.676455,-3.177586 l 0.337999,-1.586103 20.297684,0.0055 c 21.78115,0.0058 26.31407,0.49042 31.0917,3.323272 6.57146,3.896482 7.30747,11.154875 2.19256,21.622307 -2.41966,4.951734 -7.14339,9.149331 -12.97694,11.531561 -2.1312,0.87032 -3.87492,1.687368 -3.87492,1.815669 0,0.275279 13.72682,35.069707 15.63626,39.634447 1.97086,4.71156 4.20967,7.18624 6.99591,7.73298 2.07537,0.40725 2.39568,0.70842 2.2344,2.10091 -0.18692,1.61392 -0.27628,1.6269 -12.54336,1.8228 l -12.35509,0.19732 z m -7.49439,-51.154085 c 5.85226,-2.327293 11.07689,-11.844569 11.07781,-20.179549 2.6e-4,-2.334161 -0.26374,-4.849749 -0.58667,-5.590199 -1.20643,-2.766284 -4.57784,-4.517924 -9.49115,-4.931183 l -4.69822,-0.395169 -0.68328,3.201852 c -0.3758,1.761018 -1.99681,8.907283 -3.60225,15.880585 -1.60543,6.973307 -2.75525,13.003823 -2.55514,13.401152 0.47529,0.943727 6.75609,0.116828 10.5389,-1.387489 z M 4.6651325,120.39576 c 0.166384,-0.71627 0.913505,-3.98285 1.660281,-7.25908 l 1.357778,-5.95678 5.9682155,-0.2832 c 3.282518,-0.15577 6.134082,-0.10225 6.336807,0.11892 0.202727,0.22117 -0.366175,3.52173 -1.26422,7.33458 l -1.632812,6.93245 -6.364277,0.20771 c -5.8682045,0.19152 -6.3406935,0.10617 -6.0617725,-1.0946 z m -9.115007,-15.34964 c 0.0078,-0.70237 0.638361,-3.90407 1.40129,-7.114886 l 1.387145,-5.837855 6.404076,-0.208039 c 5.9076325,-0.191932 6.3804945,-0.107072 6.0998505,1.094597 -0.167328,0.71646 -0.9349545,4.011783 -1.7058435,7.322943 l -1.401617,6.02028 h -6.099525 c -5.41802,0 -6.097942,-0.14267 -6.085376,-1.27703 z M 11.591742,90.623779 c 0,-0.206246 0.704204,-3.490051 1.564901,-7.297321 l 1.564901,-6.922306 h 6.165651 c 3.391107,0 6.165651,0.233 6.165651,0.517792 0,0.284784 -0.705517,3.568578 -1.567814,7.297318 l -1.567815,6.779528 h -6.16274 c -3.389503,0 -6.162735,-0.168766 -6.162735,-0.375011 z m 2.631996,-15.219501 c -13.0540565,4.275738 0.302882,-0.09921 0,0 z m 4.390559,-14.706832 c -0.171352,-0.210272 0.408333,-3.576168 1.288198,-7.47975 l 1.599758,-7.097424 6.389851,-0.207708 c 5.894821,-0.191602 6.365902,-0.106811 6.080713,1.094597 -2.366313,9.968503 -3.010569,12.385952 -3.50729,13.16044 -0.578999,0.902781 -11.161768,1.37591 -11.85123,0.529836 z"
             id="path63" /><path
             style="fill:#002d62;fill-opacity:1"
             d="m 35.564453,43.609375 -0.242187,1.136719 c -0.546754,-0.523394 -1.186487,-0.829032 -1.691407,-0.919922 -1.340278,-0.241264 -2.84906,-0.152836 -5.808593,-0.05664 l -8.046875,0.261719 -1.964844,8.714844 c -0.446793,1.982226 -0.818039,3.824328 -1.060547,5.232422 -0.121254,0.704047 -0.211068,1.293738 -0.263672,1.779296 -0.0263,0.24278 -0.04449,0.453073 -0.04687,0.697266 -0.0012,0.122096 -0.0014,0.247836 0.02539,0.449219 0.02684,0.201383 -0.0605,0.477409 0.486328,1.148437 0.482935,0.592635 0.864551,0.69006 1.158203,0.798828 0.293652,0.108769 0.541651,0.165445 0.796875,0.212891 0.510448,0.09489 1.04591,0.142469 1.650391,0.175781 1.208962,0.06662 2.66324,0.05541 4.121093,-0.0098 1.322353,-0.05912 2.59245,-0.175489 3.716797,-0.324219 l -0.773437,3.132812 c -0.698813,2.827832 -1.439994,5.975148 -1.689453,7.201172 l -0.246094,1.210938 c -0.09633,-0.009 -0.161669,-0.02464 -0.263672,-0.0332 -1.207674,-0.10142 -2.790476,-0.158203 -4.535156,-0.158203 h -7.03125 c -1.079996,-0.464359 -2.07553,3.590793 -1.775432,4.103551 l -1.015625,4.490235 c -0.431852,1.910284 -0.82334,3.687667 -1.1093749,5.021484 -0.1430174,0.666908 -0.2609476,1.221784 -0.34375,1.634766 -0.022245,0.110948 -0.035225,0.188075 -0.052734,0.279296 C 8.3589037,89.66842 7.1638494,89.66129 4.6738281,89.742187 l -8.0429687,0.259766 -1.765625,7.433594 c -0.387809,1.632109 -0.7412396,3.256323 -1.0019531,4.580083 -0.2607136,1.32375 -0.4483592,2.04908 -0.4589844,3.00585 -0.00552,0.49833 0.086811,1.37466 0.6933594,2.08985 0.6065486,0.71519 1.369462,0.96165 2.0175781,1.09765 1.2962322,0.27202 2.7916922,0.25977 5.5195312,0.25977 h 3.5546875 l -0.9550781,4.19141 c -0.7465414,3.2752 -1.4968254,6.55528 -1.6582031,7.25 -0.1011966,0.43565 -0.3392454,1.22979 0.21875,2.23242 0.5579954,1.00262 1.5455064,1.31272 2.2148437,1.43359 1.3386747,0.24174 2.8407485,0.15476 5.7871094,0.0586 l 8.005859,-0.26172 0.230469,-0.97657 c 0.0917,0.094 0.190024,0.237 0.265625,0.29297 0.337819,0.25012 0.564796,0.32646 0.769531,0.39649 0.409472,0.14006 0.743353,0.19514 1.152344,0.2539 0.817983,0.11752 1.882242,0.1962 3.306641,0.26172 2.848797,0.13104 7.092078,0.19141 12.892578,0.19141 8.359023,0 12.535036,0.009 14.964844,-0.20899 1.214903,-0.10883 2.066936,-0.19997 2.988281,-0.79687 0.921345,-0.59691 1.322052,-1.72864 1.43164,-2.15234 0.336774,-1.30213 0.186346,-2.82096 -0.71289,-3.92579 -0.899237,-1.10482 -2.290542,-1.56042 -3.634766,-1.57421 0.101065,10e-4 -0.637894,-0.16618 -1.214844,-0.51563 -0.576949,-0.34945 -1.074523,-0.92423 -1.037109,-0.85547 -0.06866,-0.12619 -0.243846,-0.66522 -0.06836,-2.26953 0.175487,-1.60431 0.673314,-4.11602 1.546875,-7.85937 0.951096,-4.075602 2.161465,-9.292842 2.693359,-11.607426 0.235404,-1.024379 0.322169,-1.18164 0.474609,-1.664063 0.538229,0.929269 1.290228,2.461611 2.535157,5.322266 1.249004,2.87001 4.355809,11.064013 7.09375,18.562503 1.36897,3.74924 2.653981,7.34597 3.59375,10.06445 0.469884,1.35924 0.853932,2.5008 1.113281,3.31641 0.129675,0.4078 0.228728,0.73716 0.287109,0.94921 0.05838,0.21206 0.0332,0.60084 0.0332,-0.0664 10e-7,0.57159 0.05428,0.51757 0.08203,0.63281 0.02775,0.11524 0.05886,0.22205 0.09375,0.34375 0.06977,0.24341 0.159125,0.53739 0.269531,0.88281 0.220812,0.69085 0.519405,1.5798 0.847656,2.51953 l 1.683594,4.82032 13.904297,-0.22071 c 6.134213,-0.098 9.148933,-0.12227 11.076172,-0.40234 0.963619,-0.14003 1.859653,-0.3171 2.652342,-1.12695 0.79269,-0.80985 0.86121,-1.76885 0.91015,-2.19141 0.0507,-0.43751 0.0939,-0.89262 -0.006,-1.4707 -0.0998,-0.57808 -0.4397,-1.29539 -0.93359,-1.75977 -0.98777,-0.92876 -1.896449,-1.00381 -3.011714,-1.22265 -1.799175,-0.35305 -3.57881,-2.03035 -5.429688,-6.45508 C 90.734202,120.68076 86.79782,110.77486 83.12876,101.47461 81.29423,96.824484 79.518178,92.309511 78.202979,88.941406 77.580191,87.346502 77.0838,86.063097 76.710791,85.09375 c 0.595018,-0.267573 1.21648,-0.546781 2.00586,-0.869141 6.274798,-2.562421 11.400553,-7.064655 14.09375,-12.576172 2.661137,-5.445896 3.919335,-10.221189 3.492187,-14.433593 C 95.875587,53.002439 93.541315,49.466616 89.783203,47.238281 87.184556,45.697437 84.38441,44.726047 79.748047,44.230469 75.111684,43.734891 68.506053,43.618139 57.599609,43.615234 Z m 3.478516,4.291016 18.554687,0.0059 c 0.926152,2.47e-4 1.404849,0.01927 2.269531,0.02148 L 58.851562,52.6875 c -0.360239,1.688099 -1.989369,8.877003 -3.59375,15.845703 -0.807926,3.50929 -1.502198,6.778651 -1.972656,9.246094 -0.235229,1.233721 -0.414319,2.26283 -0.527344,3.050781 -0.05651,0.393975 -0.09731,0.722779 -0.11914,1.029297 -0.01092,0.153259 -0.01778,0.297861 -0.01172,0.486328 0.0061,0.188467 -0.100435,0.33935 0.25,1.035156 0.514554,1.021688 1.265742,1.227813 1.755859,1.369141 0.490118,0.141328 0.917878,0.182688 1.378907,0.203125 0.922056,0.04087 1.955235,-0.03617 3.089843,-0.185547 2.269218,-0.298752 4.8767,-0.893173 7.021485,-1.746094 3.655396,-1.453657 6.621545,-4.788002 8.822265,-8.796875 2.200721,-4.008872 3.608866,-8.759415 3.609375,-13.375 1.4e-4,-1.248034 -0.06833,-2.518851 -0.183593,-3.617187 -0.115266,-1.098336 -0.150361,-1.840295 -0.582032,-2.830078 -1.659157,-3.804365 -5.941251,-5.762119 -11.277343,-6.210938 l -2.691407,-0.226562 c 6.872787,0.05606 12.199901,0.181427 15.472657,0.53125 4.269792,0.456395 6.123751,1.141586 8.302734,2.433593 2.813348,1.668147 4.134458,3.71098 4.439453,6.71875 0.304995,3.007771 -0.626305,7.095652 -3.080078,12.117188 -2.146123,4.391952 -6.467073,8.284289 -11.859375,10.486328 -1.093541,0.44657 -2.085118,0.878659 -2.835937,1.230469 -0.37541,0.175905 -0.686082,0.327521 -0.957032,0.476562 -0.135474,0.07452 -0.255128,0.141578 -0.423828,0.259766 -0.08435,0.05909 -0.178525,0.120512 -0.341797,0.283203 -0.163271,0.162692 -0.65039,0.330033 -0.65039,1.552734 0,0.0011 0.0255,0.348938 0.03906,0.417969 0.01356,0.06903 0.02485,0.106866 0.0332,0.138672 0.01671,0.06361 0.02754,0.09664 0.03711,0.126953 0.01915,0.06062 0.03358,0.103406 0.05078,0.152344 0.03441,0.09788 0.07595,0.209443 0.128906,0.351562 0.105909,0.28424 0.254428,0.678935 0.445313,1.175782 0.38177,0.993694 0.926812,2.396024 1.585937,4.083984 1.31825,3.37592 3.093833,7.893391 4.929688,12.546877 3.67171,9.30697 7.553478,19.08262 8.550781,21.4668 1.777766,4.24994 4.041046,7.14172 6.984375,8.40039 -1.645459,0.11365 -3.486237,0.2055 -8.351563,0.2832 l -10.80664,0.17383 -0.664063,-1.89649 c -0.317099,-0.9078 -0.604058,-1.77023 -0.808593,-2.41015 -0.102268,-0.31997 -0.184978,-0.58744 -0.234375,-0.75977 -0.0247,-0.0862 -0.04127,-0.15086 -0.04492,-0.16602 -0.0036,-0.0152 0.03516,-0.15761 0.03516,0.3711 0,-0.81297 -0.101219,-0.76597 -0.185547,-1.07227 -0.08433,-0.3063 -0.196467,-0.67076 -0.335937,-1.10937 -0.278941,-0.87722 -0.669977,-2.04152 -1.146485,-3.41992 -0.953016,-2.75681 -2.244042,-6.36679 -3.61914,-10.13282 -2.750197,-7.53205 -5.794188,-15.596635 -7.189454,-18.802731 -1.377667,-3.165668 -2.236055,-5.056583 -3.064453,-6.380859 -0.414199,-0.662138 -0.830887,-1.217582 -1.447265,-1.677734 -0.616379,-0.460152 -1.478769,-0.710938 -2.132813,-0.710938 -0.477159,0 -1.11091,0.05316 -1.755859,0.384766 -0.644949,0.331606 -1.144199,0.903989 -1.451172,1.443359 -0.613946,1.07874 -0.850231,2.191587 -1.273438,4.033203 -0.528764,2.300966 -1.739375,7.522517 -2.689453,11.593754 -0.887053,3.80117 -1.417135,6.39545 -1.632812,8.36718 -0.215677,1.97174 -0.145684,3.48006 0.564453,4.78516 0.654567,1.20298 1.575388,1.86685 2.582031,2.47656 0.842411,0.51024 1.734171,0.88453 2.794922,1.02344 -1.980767,0.16815 -6.144467,0.18945 -14.394531,0.18945 -5.770159,0 -9.982936,-0.0608 -12.695313,-0.18554 -0.08788,-0.004 -0.102694,-0.009 -0.1875,-0.0137 2.357019,-0.12064 4.48066,-0.62488 6.117188,-1.99414 1.84836,-1.54649 2.914541,-3.81226 3.724609,-6.71093 0.251331,-0.89935 0.478135,-1.67373 0.4375,-2.66211 -0.04064,-0.98839 -0.735088,-2.30727 -1.689453,-2.86719 -1.90873,-1.11984 -3.704925,-0.87201 -7.091797,-0.87891 -1.41025,-0.003 -2.002816,-0.0682 -2.697265,-0.12304 0.340051,-1.35524 0.712596,-2.84134 1.345703,-5.445316 l 1.154297,-4.748047 h 4.482421 c 2.701772,0 4.25709,-0.0045 5.5625,-0.261719 0.652706,-0.128633 1.325529,-0.34123 1.933594,-0.859375 0.608065,-0.518144 0.940255,-1.274677 1.066406,-1.791016 0.656234,-2.685951 1.345721,-5.806574 1.875,-8.410156 0.26464,-1.30179 0.48894,-2.473542 0.650391,-3.40625 0.161451,-0.932708 0.277344,-1.426842 0.277344,-2.177734 0,-0.490913 -0.08368,-1.336636 -0.673828,-2.052735 -0.590145,-0.716098 -1.360481,-0.981173 -2.00586,-1.121093 -1.290756,-0.279842 -2.752935,-0.263672 -5.423828,-0.263672 h -3.314453 c 0.263073,-1.222917 0.883415,-3.896669 1.517578,-6.462891 l 0.875,-3.535156 4.298828,-0.154297 c 1.685574,-0.06011 3.268367,-0.182991 4.521485,-0.34375 0.626559,-0.08038 1.164201,-0.167868 1.642578,-0.279297 0.239188,-0.05571 0.46147,-0.112753 0.71875,-0.210937 0.25728,-0.09819 0.561785,-0.09578 1.117187,-0.777344 0.381524,-0.46819 0.441758,-0.707173 0.5625,-1.007813 0.120742,-0.300639 0.225898,-0.618659 0.330078,-0.966796 0.208362,-0.696274 0.404052,-1.507649 0.556641,-2.337891 0.227761,-1.239249 0.379885,-2.229775 0.167969,-3.332031 -0.211916,-1.102257 -0.807742,-1.995751 -1.458985,-2.794922 -1.292358,-1.58591 -3.074154,-2.500019 -5.042968,-2.908203 -1.052528,-0.218215 -1.097377,-0.289936 -1.078125,-0.207032 0.01449,-0.106875 0.01574,-0.148282 0.04687,-0.310546 z m -7.533203,0.15039 c -0.891076,3.732213 -1.636452,6.825646 -2.064454,8.431641 -0.40405,1.516125 -0.556747,1.822671 -0.626953,2.017578 -0.205176,0.04301 -0.36366,0.08344 -0.662109,0.126953 -0.973692,0.141959 -2.323525,0.258166 -3.669922,0.318359 -1.292285,0.05777 -2.569262,0.05933 -3.544922,0.01172 0.01665,-0.100836 0.01858,-0.14239 0.03711,-0.25 0.224462,-1.303317 0.582552,-3.096222 1.015625,-5.017578 l 1.236328,-5.478516 4.730468,-0.154296 c 2.122332,-0.06898 2.788404,-0.03065 3.548829,-0.0059 z m 3.794921,2.535156 c 0.06846,0.107462 0.0384,0.235813 0.121094,0.333985 1.079363,1.281461 2.290926,1.391048 3.777344,1.699219 0.74922,0.155332 2.402592,1.188184 2.589844,1.417968 0.500964,0.614757 0.541315,0.743707 0.570312,0.894532 0.029,0.150825 0.02673,0.64422 -0.175781,1.746093 -0.123678,0.672936 -0.290808,1.366512 -0.445313,1.882813 -0.01134,0.03789 -0.01812,0.05198 -0.0293,0.08789 -0.23711,0.04301 -0.435931,0.08486 -0.779297,0.128907 -1.072253,0.137556 -2.558664,0.256574 -4.126953,0.3125 l -3.794922,0.134765 c 0.168622,-0.535138 0.345266,-0.76296 0.578125,-1.636718 0.369157,-1.385195 1.062147,-4.28939 1.714843,-7.001954 z m 28.03125,1.642579 2.816407,0.236328 c 4.490528,0.377699 6.949422,1.924141 7.703125,3.652343 -0.108741,-0.249332 0.150645,0.63439 0.248047,1.5625 0.0974,0.928111 0.160277,2.083796 0.160156,3.169922 -4.11e-4,3.719396 -1.205189,7.895214 -3.080078,11.310547 -1.87489,3.415334 -4.447668,6.001364 -6.644532,6.875 -1.638025,0.651397 -4.062339,1.223671 -5.998046,1.478516 -0.576484,0.0759 -0.943302,0.06858 -1.392579,0.08984 0.09798,-0.599942 0.190377,-1.17415 0.351563,-2.019532 0.455782,-2.390474 1.139997,-5.623873 1.9375,-9.08789 1.6065,-6.977905 3.218014,-14.080125 3.609375,-15.914063 z M 29.080078,77.820312 h 4.501953 c 2.139373,0 3.022698,0.07098 3.667969,0.134766 -0.03109,0.230722 -0.0207,0.183686 -0.06836,0.458984 -0.150252,0.868008 -0.370042,2.007869 -0.628907,3.28125 -0.484255,2.382104 -1.117049,5.216863 -1.71875,7.714844 -0.592951,0.09669 -1.979404,0.173828 -4.513672,0.173828 h -3.875 l 1.128907,-4.880859 c 0.433358,-1.873926 0.827747,-3.634562 1.115234,-4.972656 0.143744,-0.669047 0.259829,-1.232025 0.34375,-1.660157 0.01911,-0.09749 0.03114,-0.165868 0.04687,-0.25 z m -12.644531,0.728516 h 4.451172 c 1.435438,0 2.643737,0.05842 3.640625,0.126953 -0.013,0.06086 -0.01773,0.08943 -0.03125,0.152344 -0.280846,1.307184 -0.672624,3.053389 -1.101563,4.908203 l -1.183594,5.117188 h -4.457031 c -1.416534,0 -2.596683,-0.04103 -3.603515,-0.08984 0.281091,-1.310528 0.669809,-3.072274 1.097656,-4.964844 z m -3.433594,14.455078 c 0.0998,0.0069 0.163111,0.01891 0.269531,0.02539 1.182643,0.07197 2.75207,0.115234 4.482422,0.115234 h 3.845703 l -1.083984,4.462891 c -0.836367,3.439979 -1.647087,6.703649 -1.751953,7.099609 -0.250189,-0.0115 -0.457639,-0.0317 -0.748047,-0.0371 -1.21617,-0.0228 -2.784543,0.004 -4.466797,0.084 l -3.283203,0.15625 0.960938,-4.1211 c 0.770849,-3.310989 1.538606,-6.609473 1.705078,-7.322264 0.02604,-0.111506 0.04196,-0.306521 0.07031,-0.462891 z M 8.3964844,94.023437 C 8.0859658,95.355596 7.6566155,97.197419 7.046875,99.816406 L 6.03125,104.17773 H 1.6347656 c -2.18386153,0 -3.0915745,-0.0695 -3.765625,-0.13476 0.063445,-0.43216 0.069956,-0.52306 0.203125,-1.19922 0.2472492,-1.25539 0.5916769,-2.83731 0.9667969,-4.416016 L 0.046875,94.183594 4.8125,94.029297 c 2.1420754,-0.06959 2.8252999,-0.0313 3.5839844,-0.0059 z M 22.087891,108.27344 c 1.0303,0.13218 2.141846,0.20158 3.939453,0.20508 2.947369,0.006 4.156752,0.27139 4.371093,0.25781 -0.04218,0.23393 -0.03363,0.28923 -0.15039,0.70703 -0.699026,2.50133 -1.483212,3.8529 -2.347656,4.57617 -0.864444,0.72327 -2.035058,1.09492 -4.25,1.09961 -1.256303,0.003 -2.330267,0.55758 -3.21875,1.33594 L 20.8125,114.8418 c 0.457514,-1.94248 0.830488,-3.74925 1.070312,-5.14063 0.09644,-0.55951 0.154448,-1.0014 0.205079,-1.42773 z m -4.431641,0.6914 c -5.91e-4,0.003 -0.0014,0.004 -0.002,0.008 -0.218456,1.2674 -0.577048,3.01634 -1.017578,4.88672 l -1.257813,5.33203 -4.722656,0.15429 c -2.1250836,0.0694 -2.7999974,0.0311 -3.5527344,0.006 0.3056506,-1.33116 0.7226776,-3.15063 1.3125,-5.73828 l 0.9960938,-4.36719 4.3417966,-0.20703 c 1.494075,-0.0709 2.842507,-0.0876 3.902344,-0.0742 z"
             id="path64"
             sodipodi:nodetypes="ccscccssscssssccccccscccssccccssscsccssscccssssscssscscssscssssscssscccssscssssscsscssscccccsssscsssssssscccsssssssssssssssssssccccssccssssssssssssssscsccssssccccscssssssssccccsssssssssscccsscssccccccsscssssscsccssscccssssscsscccsccscsccsssccsccccscccccscccccccsscsccscsccccscccsscccscccccccccccc" /></g></g><path
         style="fill:#fdbb30;fill-opacity:1;stroke-width:2.37243"
         d="m 78.680708,98.061029 c -0.614947,-1.76049 -1.118089,-3.334641 -1.118089,-3.498117 0,-1.11091 -9.199278,-26.305278 -11.718961,-32.095113 -2.609091,-5.995275 -3.317254,-7.127345 -4.458498,-7.127345 -1.167396,0 -1.484966,0.557996 -2.275546,3.998269 -0.505342,2.199044 -1.659911,7.174036 -2.565711,11.055532 -1.677663,7.189072 -1.955353,9.727726 -1.213247,11.091587 0.588076,1.080782 2.70345,2.362039 3.920555,2.374634 1.736681,0.01787 2.59985,1.078439 2.184605,2.68394 -0.377823,1.460812 -0.564262,1.477514 -16.493211,1.477514 -11.025507,0 -16.111071,-0.233928 -16.111071,-0.741063 0,-1.99106 1.255627,-3.431216 2.994798,-3.434917 4.724048,-0.01002 6.813009,-1.757849 8.251002,-6.903443 0.897468,-3.211429 0.406876,-3.499258 -5.986593,-3.512288 -3.924689,-0.0078 -5.16467,-0.226779 -4.986502,-0.879837 0.130426,-0.478054 0.90282,-3.607132 1.716427,-6.953504 l 1.47929,-6.084319 h 5.877252 c 5.106363,0 5.916247,-0.159605 6.174556,-1.216862 1.233815,-5.049987 2.612265,-11.83072 2.612265,-12.850008 0,-1.095654 -0.623544,-1.230841 -5.6772,-1.230841 h -5.6772 l 0.389064,-1.912214 c 0.213993,-1.051716 0.930346,-4.102566 1.59191,-6.779668 l 1.202847,-4.867453 5.637372,-0.201023 c 3.100557,-0.110566 5.851216,-0.463437 6.112581,-0.784171 0.261363,-0.320734 0.690596,-1.755078 0.953848,-3.187433 0.410001,-2.230821 0.294837,-2.82984 -0.803084,-4.17715 -0.704949,-0.865074 -2.341257,-1.792529 -3.636244,-2.061012 -2.688086,-0.557307 -2.998338,-0.925652 -2.550354,-3.027874 l 0.322074,-1.511373 19.341352,0.0052 c 20.754932,0.0055 25.074276,0.467314 29.626812,3.166695 6.261843,3.712899 6.963173,10.629312 2.089261,20.60357 -2.305664,4.718433 -6.806831,8.71826 -12.365531,10.988251 -2.030795,0.829315 -3.692356,1.607868 -3.692356,1.730124 0,0.262309 13.08008,33.417399 14.899561,37.767071 1.877999,4.489576 4.011322,6.847661 6.666288,7.36864 1.97759,0.388063 2.28281,0.675043 2.12913,2.001925 -0.17812,1.537877 -0.26327,1.550247 -11.952379,1.736917 l -11.772978,0.18806 z M 71.539419,49.317073 c 5.576531,-2.217642 10.554998,-11.286511 10.555877,-19.228788 2.46e-4,-2.224187 -0.251318,-4.621253 -0.559026,-5.326816 -1.149594,-2.635951 -4.362159,-4.305062 -9.043971,-4.69885 l -4.476865,-0.376551 -0.651084,3.050997 c -0.358096,1.678047 -1.902737,8.487615 -3.432533,15.13237 -1.529794,6.644759 -2.625437,12.391147 -2.434756,12.769756 0.4529,0.899263 6.437778,0.111323 10.042358,-1.322118 z M 13.731665,86.829146 c 0.158545,-0.68252 0.870465,-3.795198 1.582057,-6.917065 l 1.293806,-5.676124 5.687022,-0.269862 c 3.127862,-0.148434 5.845074,-0.09743 6.038248,0.11332 0.193175,0.210747 -0.348923,3.355805 -1.204656,6.989012 l -1.555882,6.605828 -6.064424,0.197922 c -5.591723,0.182495 -6.041951,0.101172 -5.776171,-1.043027 z M 5.0461121,72.202706 c 0.0075,-0.669274 0.6082844,-3.720127 1.3352683,-6.779667 l 1.3217888,-5.562805 6.1023478,-0.198237 c 5.629294,-0.182889 6.079877,-0.102027 5.812455,1.043025 -0.159444,0.682704 -0.890903,3.822768 -1.625472,6.97792 l -1.335579,5.73664 h -5.812146 c -5.1627492,0 -5.8106369,-0.135952 -5.7986629,-1.216863 z M 20.331926,58.459875 c 0,-0.196529 0.671026,-3.325617 1.491171,-6.953508 l 1.49117,-6.596161 h 5.875156 c 3.231335,0 5.875156,0.222023 5.875156,0.493397 0,0.271366 -0.672276,3.400444 -1.493946,6.953504 l -1.493947,6.46011 h -5.872382 c -3.229807,0 -5.872378,-0.160815 -5.872378,-0.357342 z m 2.50799,-14.502434 c -12.439014,4.074287 0.288611,-0.09454 0,0 z m 4.183697,-14.013918 c -0.163279,-0.200365 0.389095,-3.407677 1.227505,-7.127341 l 1.524385,-6.763028 6.088793,-0.197922 c 5.617086,-0.182574 6.065972,-0.101778 5.79422,1.043025 -2.254824,9.498836 -2.868726,11.802387 -3.342044,12.540384 -0.55172,0.860247 -10.635881,1.311084 -11.292859,0.504873 z"
         id="path62"
         sodipodi:nodetypes="ssssssscssssscsscsssscsscssssssccsssssssscssssscssssssccsscsssssccsscssssscssscsssssscccsss" /></g></g></svg>
