<?xml version="1.0" encoding="UTF-8" standalone="no"?>
<!-- Created with Inkscape (http://www.inkscape.org/) -->

<svg
   width="105.83334mm"
   height="105.83334mm"
   viewBox="0 0 105.83333 105.83333"
   version="1.1"
   id="svg1"
   xml:space="preserve"
   inkscape:version="1.4.2 (ebf0e940d0, 2025-05-08)"
   sodipodi:docname="indiana.svg"
   inkscape:export-filename="../pngs/okc.png"
   inkscape:export-xdpi="96"
   inkscape:export-ydpi="96"
   xmlns:inkscape="http://www.inkscape.org/namespaces/inkscape"
   xmlns:sodipodi="http://sodipodi.sourceforge.net/DTD/sodipodi-0.dtd"
   xmlns="http://www.w3.org/2000/svg"
   xmlns:svg="http://www.w3.org/2000/svg"><sodipodi:namedview
     id="namedview1"
     pagecolor="#ffffff"
     bordercolor="#000000"
     borderopacity="0.25"
     inkscape:showpageshadow="2"
     inkscape:pageopacity="0.0"
     inkscape:pagecheckerboard="0"
     inkscape:deskcolor="#d1d1d1"
     inkscape:document-units="mm"
     inkscape:zoom="0.95482953"
     inkscape:cx="-119.39304"
     inkscape:cy="174.90033"
     inkscape:window-width="1920"
     inkscape:window-height="1011"
     inkscape:window-x="0"
     inkscape:window-y="32"
     inkscape:window-maximized="1"
     inkscape:current-layer="layer1"
     showgrid="false"
     showguides="true" /><defs
     id="defs1"><filter
       id="mask-powermask-path-effect61_inverse"
       inkscape:label="filtermask-powermask-path-effect61"
       style="color-interpolation-filters:sRGB"
       height="100"
       width="100"
       x="-50"
       y="-50"><feColorMatrix
         id="mask-powermask-path-effect61_primitive1"
         values="1"
         type="saturate"
         result="fbSourceGraphic" /><feColorMatrix
         id="mask-powermask-path-effect61_primitive2"
         values="-1 0 0 0 1 0 -1 0 0 1 0 0 -1 0 1 0 0 0 1 0 "
         in="fbSourceGraphic" /></filter><clipPath
       clipPathUnits="userSpaceOnUse"
       id="clipPath61"><path
         style="fill:none;fill-opacity:1;stroke:#1a1a1a;stroke-width:0.3;stroke-dasharray:none;stroke-opacity:1"
         d="m 19.343363,137.48906 1.575839,2.57864 -1.432581,4.72752 -0.859548,2.14887 -0.573032,3.58145 2.005613,2.43539 62.460506,-10.02807 2.148872,-6.30335 2.721904,-5.87358 -26.932515,3.72471 -6.446612,0.85955 -0.143256,-3.86797 -5.730322,0.71629 -1.146067,2.57864 -4.154482,1.43258 -3.867967,2.14888 -7.019645,0.14326 -1.432581,-2.57865 z"
         id="path61" /></clipPath></defs><g
     inkscape:label="Capa 1"
     inkscape:groupmode="layer"
     id="layer1"><g
       id="g2"
       transform="matrix(0.91124943,0,0,0.91124943,112.88715,-32.052025)"><circle
         style="fill:#bec0c2;fill-opacity:1;stroke:none;stroke-width:3.44729;stroke-dasharray:none;stroke-opacity:1"
         id="path1-8"
         cx="-65.811272"
         cy="93.244171"
         r="56.200214" /><circle
         style="fill:#fdbb30;fill-opacity:1;stroke:#002d62;stroke-width:3.14842;stroke-dasharray:none;stroke-opacity:1"
         id="path1"
         cx="-65.811272"
         cy="93.244171"
         r="51.327854" /><circle
         style="fill:#ffffff;stroke:#002d62;stroke-width:3;stroke-dasharray:none;stroke-opacity:1"
         id="path1-3"
         cx="-65.811272"
         cy="93.244171"
         r="33.39056" /><path
         style="fill:#002d62;fill-opacity:1;stroke-width:1.47092"
         d="m -53.212365,119.08145 c -0.381273,-1.09151 -0.693225,-2.0675 -0.693225,-2.16887 0,-0.68876 -5.703635,-16.30949 -7.265861,-19.899251 -1.617661,-3.717122 -2.056728,-4.419015 -2.76431,-4.419015 -0.723796,0 -0.920692,0.34596 -1.410857,2.478964 -0.313317,1.363424 -1.029161,4.447966 -1.590764,6.854532 -1.040167,4.45728 -1.212337,6.03127 -0.752226,6.87688 0.364614,0.6701 1.676164,1.46448 2.430779,1.47229 1.076759,0.0111 1.611931,0.66865 1.354475,1.66407 -0.234252,0.90572 -0.349846,0.91607 -10.225938,0.91607 -6.835915,0 -9.989009,-0.14502 -9.989009,-0.45946 0,-1.23448 0.778499,-2.12738 1.856801,-2.12969 2.928952,-0.006 4.224127,-1.08987 5.115696,-4.28018 0.556438,-1.99113 0.252267,-2.16957 -3.711743,-2.17765 -2.433342,-0.005 -3.202141,-0.14061 -3.091674,-0.54551 0.08087,-0.2964 0.559756,-2.23646 1.064199,-4.311241 l 0.917174,-3.772335 h 3.643948 c 3.165991,0 3.668128,-0.09896 3.828281,-0.754464 0.764976,-3.13104 1.619628,-7.335154 1.619628,-7.967121 0,-0.679315 -0.386604,-0.763133 -3.519916,-0.763133 h -3.519915 l 0.241223,-1.18559 c 0.132678,-0.652073 0.576824,-2.543628 0.986999,-4.203454 l 0.745776,-3.017865 3.495221,-0.124636 c 1.922374,-0.06856 3.627807,-0.287334 3.789856,-0.486193 0.162047,-0.198858 0.428176,-1.088165 0.591395,-1.976237 0.254203,-1.383129 0.182801,-1.754527 -0.49792,-2.58987 -0.437076,-0.536354 -1.451601,-1.111385 -2.254504,-1.277846 -1.666638,-0.345535 -1.858997,-0.573913 -1.581243,-1.877311 l 0.19969,-0.937064 11.991812,0.0033 c 12.868244,0.0034 15.546276,0.289739 18.36889,1.963379 3.882399,2.302032 4.317228,6.590269 1.295361,12.774398 -1.429534,2.925472 -4.220297,5.405404 -7.666742,6.812818 -1.259111,0.514179 -2.289294,0.996893 -2.289294,1.07269 0,0.162635 8.109768,20.719095 9.237861,23.415935 1.164377,2.78357 2.487054,4.24561 4.13316,4.56861 1.226124,0.24061 1.415363,0.41855 1.32008,1.24122 -0.110436,0.9535 -0.163229,0.96115 -7.410583,1.0769 l -7.299352,0.11661 z m -4.427663,-30.221685 c 3.457499,-1.374958 6.544193,-6.997742 6.544739,-11.922024 1.51e-4,-1.379017 -0.155819,-2.865219 -0.346601,-3.302674 -0.71276,-1.634314 -2.704578,-2.669177 -5.607344,-2.913329 l -2.775696,-0.233467 -0.403678,1.891647 c -0.222023,1.040403 -1.179714,5.262398 -2.128202,9.382206 -0.948487,4.119809 -1.627794,7.682624 -1.509571,7.917366 0.280803,0.55755 3.991481,0.06902 6.226353,-0.819725 z M -93.481355,112.1176 c 0.0983,-0.42318 0.539693,-2.35308 0.980891,-4.28866 l 0.802167,-3.51924 3.526004,-0.16732 c 1.939308,-0.0921 3.624001,-0.0603 3.743771,0.0703 0.11977,0.13065 -0.216335,2.08062 -0.746894,4.33324 l -0.964667,4.09568 -3.759995,0.1227 c -3.466917,0.11317 -3.746063,0.0627 -3.581277,-0.64667 z m -5.385122,-9.06854 c 0.0052,-0.41495 0.377139,-2.30651 0.827876,-4.203453 l 0.819521,-3.448987 3.783513,-0.122912 c 3.490215,-0.113393 3.769579,-0.06326 3.603777,0.646689 -0.09886,0.42328 -0.552373,2.370145 -1.007813,4.326373 l -0.828066,3.55678 h -3.603584 c -3.200954,0 -3.602649,-0.0842 -3.595224,-0.75448 z m 9.477342,-8.520677 c 0,-0.121849 0.416045,-2.061915 0.924538,-4.311241 l 0.924539,-4.089677 h 3.642651 c 2.003456,0 3.64265,0.137655 3.64265,0.305911 0,0.168249 -0.416817,2.108305 -0.92626,4.311233 l -0.926261,4.005329 h -3.640929 c -2.00251,0 -3.640928,-0.0997 -3.640928,-0.221555 z m 1.554977,-8.991641 c -7.712298,2.526094 0.17894,-0.05862 0,0 z m 2.593932,-8.688756 c -0.10124,-0.124228 0.24124,-2.11279 0.761062,-4.419016 l 0.945131,-4.193136 3.775108,-0.122714 c 3.482644,-0.113198 3.760956,-0.06311 3.592468,0.646685 -1.398011,5.889362 -1.778636,7.317586 -2.072098,7.775151 -0.342071,0.533361 -6.594341,0.812884 -7.001671,0.313025 z"
         id="path62"
         sodipodi:nodetypes="ssssssscssssscsscsssscsscssssssccsssssssscssssscssssssccsscsssssccsscssssscssscsssssscccsss" /><path
         d="m 33.608648,71.960474 -0.06928,0.05984 c 0.382959,0.443408 0.391159,1.041137 -0.509513,1.819023 l -7.191526,6.211119 c -0.886816,0.765918 -1.47699,0.670822 -1.859949,0.227414 l -0.06928,0.05984 3.26712,3.782826 0.06928,-0.05984 c -0.370991,-0.429552 -0.379192,-1.027281 0.507625,-1.7932 l 7.191525,-6.211118 c 0.900673,-0.777886 1.490846,-0.68279 1.861838,-0.253239 l 0.06928,-0.05984 z m -3.397093,-5.000951 -0.07929,0.04575 c 0.292801,0.50748 0.188519,1.096099 -0.8423,1.690852 l -4.503884,2.598613 c 0.716006,-2.569197 0.572562,-5.382348 2.317024,-6.388853 1.030818,-0.594753 1.583453,-0.406294 1.876254,0.101186 l 0.07929,-0.04575 -2.452212,-4.250144 -0.07929,0.04575 c 0.292801,0.50748 0.188518,1.0961 -0.8423,1.690853 l -8.230689,4.748872 c -1.01496,0.585603 -1.576745,0.381285 -1.869546,-0.126194 l -0.07929,0.04575 2.452212,4.250144 0.07929,-0.04575 c -0.292802,-0.507479 -0.179369,-1.08024 0.835591,-1.665843 l 4.04398,-2.333261 c -0.759314,2.53077 -0.398115,5.281697 -1.85712,6.123501 -1.014959,0.585603 -1.576744,0.381285 -1.869546,-0.126195 l -0.07929,0.04575 2.452211,4.250143 0.07929,-0.04575 c -0.283651,-0.491621 -0.179369,-1.080241 0.835591,-1.665843 l 8.230689,-4.748873 c 1.030818,-0.594753 1.592603,-0.390435 1.876255,0.101186 l 0.07929,-0.04575 z m -4.046414,-7.361555 -1.621895,-5.896237 c -1.413088,-5.13714 -5.161377,-4.542838 -7.950614,-3.775594 -2.312596,0.636132 -5.751873,2.284782 -4.401913,7.192428 l 1.617039,5.878584 0.08827,-0.02428 c -0.155391,-0.564909 0.09393,-1.10822 1.223749,-1.419002 l 9.162116,-2.52025 c 1.147472,-0.315638 1.639592,0.02372 1.794984,0.588631 z m -3.871363,-5.03061 0.505021,1.835954 -7.749844,2.131772 -0.505021,-1.835954 c -0.636133,-2.312596 1.043115,-3.24924 2.879069,-3.754262 1.906567,-0.524445 4.181226,-0.884294 4.870775,1.62249 z m 0.440929,-12.496662 -0.09123,0.0076 c 0.04864,0.583868 -0.296522,1.071936 -1.482505,1.170738 l -9.469619,0.788896 c -1.167737,0.09728 -1.588902,-0.326944 -1.637543,-0.910813 l -0.091229,0.0076 0.414968,4.981129 0.09123,-0.0076 c -0.04712,-0.565623 0.298042,-1.053691 1.465779,-1.150973 l 9.469619,-0.788896 c 1.185983,-0.0988 1.607147,0.325425 1.654268,0.891047 l 0.09123,-0.0076 z m 0.155849,-5.715401 -0.09099,-0.01004 c -0.06424,0.582358 -0.478537,0.831378 -1.619293,0.318711 l -0.75243,-0.359307 c 0.108801,-0.485342 0.19325,-1.083892 0.259501,-1.684449 0.08231,-0.746146 0.130233,-1.514507 0.121681,-2.104896 l 0.849056,-0.182638 c 1.225075,-0.251679 1.575126,0.08166 1.510883,0.664018 l 0.09099,0.01004 0.554097,-5.022841 -0.09099,-0.01004 c -0.06424,0.582358 -0.510659,1.122557 -1.735734,1.374236 l -9.790431,2.088234 c -1.208884,0.271885 -1.558935,-0.06145 -1.494692,-0.643812 l -0.09099,-0.01004 -0.532013,4.822655 0.09099,0.01004 c 0.06424,-0.582358 0.482552,-0.867775 1.603102,-0.338917 l 9.099819,4.172118 c 1.140756,0.512667 1.458685,1.137185 1.394442,1.719543 l 0.09099,0.01004 z m -7.986518,-2.575691 3.885449,-0.823947 c -0.02772,0.752169 -0.113912,1.700509 -0.256842,2.495229 z m 10.962416,-11.072108 -0.08533,-0.03316 c -0.212215,0.546107 -0.736392,0.833487 -1.845672,0.402424 l -4.846701,-1.883413 c 2.451285,-1.051016 4.554443,-2.924815 6.431686,-2.195325 1.10928,0.431063 1.308501,0.97991 1.096286,1.526017 l 0.08533,0.03316 1.777305,-4.573648 -0.08533,-0.03316 c -0.212216,0.546107 -0.736392,0.833487 -1.845672,0.402424 L 17.69118,12.910944 C 16.598966,12.486513 16.406377,11.9206 16.618592,11.374493 l -0.08533,-0.03316 -1.777305,4.573647 0.08533,0.03316 c 0.212216,-0.546107 0.72976,-0.816421 1.821974,-0.39199 l 4.351792,1.691092 c -2.448456,0.993187 -4.366718,2.997765 -5.936776,2.387646 -1.092215,-0.424432 -1.284804,-0.990344 -1.072589,-1.536451 l -0.08533,-0.03316 -1.777305,4.573647 0.08533,0.03316 c 0.205584,-0.529041 0.72976,-0.816421 1.821975,-0.39199 l 8.857175,3.441871 c 1.10928,0.431063 1.30187,0.996975 1.096286,1.526017 l 0.08533,0.03316 z m 5.798571,-11.338266 -0.0738,-0.05417 c -0.346682,0.472313 -0.829979,0.48096 -1.561856,-0.533194 L 29.557206,10.094615 C 29.893998,9.7286019 30.266274,9.2523625 30.62379,8.7652893 31.067976,8.1601378 31.493477,7.5185588 31.78112,7.0029101 l 0.826698,0.2661248 c 1.186897,0.3942424 1.323511,0.8579093 0.976829,1.3302227 l 0.0738,0.054169 2.990133,-4.0737032 -0.0738,-0.054169 C 36.228099,4.9978688 35.571462,5.2426721 34.384565,4.8484297 L 24.860815,1.7643634 C 23.677844,1.3957146 23.54123,0.93204774 23.887912,0.45973432 l -0.0738,-0.0541691 -2.870962,3.91134548 0.0738,0.054169 C 21.363632,3.8987664 21.868597,3.8606002 22.57488,4.87868 l 5.796916,8.161436 c 0.731877,1.014153 0.69515,1.713977 0.348468,2.18629 l 0.0738,0.05417 z M 26.034588,5.1469451 29.811805,6.3750453 C 29.411898,7.0126983 28.8633,7.7910414 28.342332,8.4079709 Z"
         id="text1"
         style="font-size:18.3091px;line-height:1;font-family:'Silvano Western Demo';-inkscape-font-specification:'Silvano Western Demo';text-align:center;letter-spacing:0.201171px;word-spacing:0px;text-anchor:middle;fill:#002d62;stroke:#002d62;stroke-width:0.778495"
         transform="matrix(0,0.70347562,-0.70347562,0,-36.615524,39.444663)"
         aria-label="INDIANA" /><path
         d="m 40.978092,67.260769 2.935822,2.084305 0.03804,-0.05357 c -0.34287,-0.243422 -0.466204,-0.637175 -0.025,-1.258626 l 1.316003,-1.85364 0.696454,0.494452 c 1.050039,0.745481 1.104818,1.735174 0.290874,2.881645 -0.418382,0.589308 -0.649698,0.892426 -0.992568,0.649004 l -0.03804,0.05357 2.742958,1.94738 0.03804,-0.05357 c -0.50359,-0.357527 -0.08275,-1.154588 0.190776,-1.653354 0.594085,-1.109178 0.725629,-2.111626 0.165451,-3.025018 1.035242,0.380441 2.044648,0.275195 2.843378,-0.849846 1.110615,-1.564344 0.555028,-3.006279 -0.912883,-4.048432 l -3.964432,-2.814573 -0.03803,0.05357 c 0.342869,0.243422 0.458597,0.64789 -0.03585,1.344344 l -3.948008,5.560919 c -0.494452,0.696454 -0.922065,0.731289 -1.264935,0.487866 z m 8.274189,-1.780449 c -0.471631,0.66431 -1.102499,0.66765 -1.852526,0.135163 l -1.1679,-0.829157 1.407286,-1.982216 1.125041,0.79873 c 0.739313,0.52488 0.95973,1.21317 0.488099,1.87748 z m 4.935331,9.670779 0.02396,-0.06118 c -0.391531,-0.153353 -0.486659,-0.486972 0.08178,-1.181633 l 0.389599,-0.454237 c 0.315978,0.166098 0.714953,0.336479 1.11872,0.494624 0.50165,0.196483 1.02512,0.373288 1.43582,0.477699 l -0.03212,0.622476 c -0.05456,0.895937 -0.350959,1.076203 -0.74249,0.92285 l -0.02396,0.06118 3.376961,1.322669 0.02396,-0.06118 c -0.391532,-0.15335 -0.682426,-0.563646 -0.627871,-1.459582 l 0.38271,-7.174427 c 0.03753,-0.888494 0.333931,-1.06876 0.725463,-0.915407 l 0.02396,-0.06118 -3.242372,-1.269954 -0.02396,0.06118 c 0.391531,0.153353 0.51113,0.496557 -0.06475,1.17419 l -4.591675,5.525884 c -0.56844,0.69466 -1.06061,0.79825 -1.452142,0.644897 l -0.02396,0.06118 z m 3.277386,-5.05279 -0.155204,2.84636 c -0.516027,-0.159777 -1.157058,-0.39674 -1.681038,-0.644306 z m 10.967648,7.048443 c -1.526034,-0.18682 -2.609429,-1.285862 -2.371514,-3.229273 0.237916,-1.94341 1.420544,-2.844473 3.090051,-2.640089 0.795625,0.0974 1.388158,0.447949 1.668466,1.077998 0.124582,0.280021 0.0064,0.596516 -0.348681,0.685431 l -0.122178,0.02476 0.0181,0.06841 3.017443,-0.424909 -0.0051,-0.06681 c -0.18899,0.02982 -0.393695,-0.352683 -0.567255,-0.665177 -0.671347,-1.220699 -1.627237,-2.171746 -3.62282,-2.416049 -2.491217,-0.304979 -4.954179,0.889452 -5.345383,4.084993 -0.389607,3.182498 1.515248,4.924883 4.332541,5.269781 2.908595,0.356075 3.672753,-1.668536 4.38506,-1.647527 l 0.01943,-0.05058 -2.534903,-1.462077 -0.03407,0.06202 c 0.195914,0.129892 0.274711,0.351354 0.247566,0.573086 -0.09261,0.756495 -1.096387,0.845427 -1.826796,0.75601 z M 80.538302,71.22213 c 0.614107,-0.06558 1.239377,-0.02662 1.40111,0.497927 l 0.06533,-0.007 -0.458803,-2.316511 -6.324001,0.675288 0.007,0.06533 c 0.418116,-0.04465 0.761002,0.196256 0.850297,1.032488 l 0.724121,6.781315 c 0.09069,0.849298 -0.193597,1.157172 -0.611713,1.201819 l 0.007,0.06533 6.389332,-0.682265 0.03594,-2.633643 -0.06533,0.007 c -0.247125,0.779649 -0.780555,0.981976 -1.851977,1.096384 l -1.868455,0.199517 -0.224631,-2.103645 1.92072,-0.205098 c 0.757835,-0.08092 1.010654,0.182813 1.16262,0.615899 l 0.06673,0.0061 -0.562559,-3.164414 -0.06533,0.007 c 0.04465,0.418116 -0.19486,0.774069 -1.044158,0.864758 l -1.659397,0.177194 -0.206493,-1.933786 z m 6.103726,6.562873 3.405042,-1.170075 -0.02135,-0.06214 c -0.397669,0.136651 -0.789485,0.0073 -1.037165,-0.713481 l -0.73877,-2.149898 0.807765,-0.277573 c 1.217862,-0.418494 2.053889,0.114002 2.510816,1.443708 0.234869,0.683494 0.346282,1.048152 -0.05139,1.184803 l 0.02135,0.06214 3.181353,-1.093209 -0.02135,-0.06214 c -0.584076,0.200706 -0.986304,-0.605907 -1.232065,-1.118923 -0.554809,-1.129336 -1.29257,-1.82065 -2.361258,-1.898043 0.912652,-0.619296 1.41564,-1.500761 0.967253,-2.805613 -0.62347,-1.814365 -2.118904,-2.203636 -3.821425,-1.618599 l -4.598048,1.580029 0.02135,0.06213 c 0.397669,-0.136651 0.793754,0.0051 1.071327,0.812899 l 2.21631,6.449695 c 0.277572,0.807765 0.05657,1.175494 -0.341098,1.312145 z m 3.377399,-7.760501 c 0.264762,0.770484 -0.100328,1.284988 -0.970229,1.583912 l -1.35456,0.465468 -0.790014,-2.299024 1.304852,-0.448386 c 0.857474,-0.294654 1.54519,-0.07245 1.809951,0.69803 z m 10.574593,-5.769858 -0.851532,-2.773017 -0.05553,0.03511 c -0.345315,0.560346 -1.836191,1.005457 -3.479986,2.044738 -1.710436,1.081413 -2.506761,2.502126 -1.474503,4.134814 1.144613,1.810396 2.982091,1.052868 4.411558,0.584396 1.098553,-0.352536 2.059103,-0.726642 2.459373,-0.09356 0.21066,0.333201 0.15132,0.977029 -0.90381,1.644134 -1.243954,0.786483 -2.942557,0.927628 -3.661978,0.527423 l -0.06664,0.04213 1.355055,2.905515 0.05553,-0.03511 c 0.165676,-0.819885 1.187272,-0.704007 3.097633,-1.91182 2.22134,-1.404433 2.81352,-2.975911 1.85851,-4.486426 -1.08142,-1.710435 -3.06865,-1.09142 -4.635488,-0.520553 -1.007915,0.372959 -1.852166,0.61135 -2.18923,0.07823 -0.25982,-0.410949 -0.14839,-0.947793 1.028923,-1.692142 1.155099,-0.730306 2.346737,-0.861854 2.996585,-0.448752 z"
         id="text2"
         style="font-size:13.1404px;line-height:1;font-family:'Silvano Western Demo';-inkscape-font-specification:'Silvano Western Demo';text-align:center;letter-spacing:3.12473px;word-spacing:0.237021px;text-anchor:middle;fill:#002d62;stroke:#002d62;stroke-width:0.558726"
         transform="translate(-138.55004,60.684916)"
         aria-label="RACERS" /></g></g></svg>
