<?xml version="1.0" encoding="UTF-8" standalone="no"?>
<!-- Created with Inkscape (http://www.inkscape.org/) -->

<svg
   width="105.83334mm"
   height="105.83334mm"
   viewBox="0 0 105.83333 105.83333"
   version="1.1"
   id="svg1"
   xml:space="preserve"
   inkscape:version="1.4 (e7c3feb100, 2024-10-09)"
   sodipodi:docname="la.svg"
   inkscape:export-filename="../pngs/memphis.png"
   inkscape:export-xdpi="96"
   inkscape:export-ydpi="96"
   xmlns:inkscape="http://www.inkscape.org/namespaces/inkscape"
   xmlns:sodipodi="http://sodipodi.sourceforge.net/DTD/sodipodi-0.dtd"
   xmlns="http://www.w3.org/2000/svg"
   xmlns:svg="http://www.w3.org/2000/svg"><sodipodi:namedview
     id="namedview1"
     pagecolor="#ffffff"
     bordercolor="#000000"
     borderopacity="0.25"
     inkscape:showpageshadow="2"
     inkscape:pageopacity="0.0"
     inkscape:pagecheckerboard="0"
     inkscape:deskcolor="#d1d1d1"
     inkscape:document-units="mm"
     inkscape:zoom="1.1980835"
     inkscape:cx="201.15459"
     inkscape:cy="297.97589"
     inkscape:window-width="1920"
     inkscape:window-height="1011"
     inkscape:window-x="0"
     inkscape:window-y="32"
     inkscape:window-maximized="1"
     inkscape:current-layer="layer1"
     showgrid="false" /><defs
     id="defs1" /><g
     inkscape:label="Capa 1"
     inkscape:groupmode="layer"
     id="layer1"><ellipse
       style="fill:#fdb927;fill-opacity:1;stroke-width:3.06107"
       id="path6"
       cx="47.985828"
       cy="53.15229"
       rx="47.925312"
       ry="46.779686" /><path
       style="fill:#ffffff;fill-opacity:1;stroke-width:7.59381"
       d="M 38.790386,100.89009 C 23.38692,97.430838 11.841346,88.423068 4.9943073,74.522596 1.0465818,66.508295 -0.02179958,61.920727 -0.02179958,52.983984 -0.02179958,42.380488 2.7128189,33.53203 8.6621909,24.88488 20.538721,7.6230259 43.693491,-0.10400013 63.575256,6.559755 c 8.239606,2.76167 13.273237,5.921944 19.578243,12.291932 6.254799,6.319176 8.952665,10.553824 11.807864,18.533704 1.938556,5.418123 2.689552,6.148151 2.65568,15.733681 -0.03038,9.032009 -0.871362,10.312409 -2.427107,14.974091 -2.269112,6.799878 -5.625658,12.353713 -10.867376,17.981863 -5.817769,6.24664 -12.163774,10.382513 -20.113222,13.10841 -5.594669,1.918454 -7.434651,2.241204 -13.845964,2.428814 -4.890572,0.14316 -8.808759,-0.10137 -11.572988,-0.72216 z m 22.72421,-5.194519 C 68.979932,91.523099 77.210721,79.644045 79.06689,70.363229 l 0.400188,-2.002073 -4.104085,1.554334 c -2.257264,0.854879 -8.173534,3.874258 -13.147257,6.709732 -19.0324,10.850143 -26.017425,13.620426 -34.716527,13.768666 -4.612639,0.07857 -4.586142,0.156877 1.037468,3.067143 10.095531,5.224496 25.732349,6.284036 32.977695,2.23454 z m 17.459792,-9.199132 c 5.569082,-4.884397 10.395871,-12.42241 9.708324,-15.161664 -0.388048,-1.547353 -3.613829,-3.299288 -5.055663,-2.74601 -0.459432,0.176319 -1.226328,1.872895 -1.704132,3.77016 -1.156764,4.593203 -4.70285,12.023955 -7.464798,15.642311 -1.229064,1.61015 -2.234637,3.089409 -2.234637,3.287245 0,0.508706 3.708901,-2.124055 6.750906,-4.792042 z M 34.611277,86.174158 C 40.36231,84.6167 45.889319,82.028003 57.651165,75.383015 69.646362,68.606143 76.715528,65.247196 79.045548,65.21733 c 1.153804,-0.01448 1.417835,-0.523063 1.762519,-3.392851 0.223276,-1.856504 0.407792,-4.1711 0.41083,-5.143549 l 0.0058,-1.768104 H 42.326469 3.4284103 v 1.641181 c 0,2.956473 2.0485058,10.815538 3.8770879,14.874409 3.5217848,7.817067 7.9280448,12.991684 12.4175718,14.582956 3.405144,1.206914 10.736609,1.287071 14.888075,0.162806 z M 92.672731,63.592567 c 0.375897,-1.768088 0.850586,-4.444345 1.054789,-5.947225 l 0.371331,-2.732516 H 89.26918 84.439509 v 2.160576 c 0,1.188313 -0.178481,3.464316 -0.397151,5.057803 l -0.397161,2.897234 2.280045,0.42776 c 1.254046,0.235261 2.951723,0.973015 3.772536,1.639456 1.746727,1.418065 1.989358,1.132352 2.974953,-3.503071 z M 81.219121,49.287076 C 81.2162,48.314627 81.033825,46.025223 80.815135,44.199525 80.4362,41.043684 80.309379,40.859947 78.240371,40.471855 74.887165,39.842783 68.520656,36.792049 57.94201,30.745123 41.473057,21.331209 35.179219,18.907986 27.197279,18.907986 c -7.81155,0 -11.930896,2.380757 -16.545725,9.562554 C 9.4306166,30.370562 7.7778103,33.408469 6.9786547,35.221448 5.4216945,38.753518 3.428903,46.720977 3.428903,49.413997 v 1.641169 h 38.898078 38.898137 z m 12.493668,-0.964415 c -0.212595,-1.502879 -0.79439,-4.419499 -1.293535,-6.481367 -0.498922,-2.061866 -0.907464,-3.889852 -0.907464,-4.062181 0,-0.17231 -0.843595,0.287349 -1.874687,1.021599 -1.031159,0.734247 -2.798098,1.519578 -3.92653,1.745283 -1.948583,0.389715 -2.032498,0.526934 -1.668517,2.727252 0.211096,1.274293 0.386529,3.546535 0.390316,5.049414 l 0.0068,2.732505 h 4.829671 4.829672 z M 77.380594,30.616538 C 73.002528,19.263968 65.257668,10.727111 57.422136,8.6172257 49.996515,6.6177046 36.480498,8.4036859 28.732521,12.408221 c -5.841085,3.018942 -5.868194,3.086897 -1.262549,3.165382 8.423828,0.143526 15.859471,3.014868 32.85938,12.688903 11.814626,6.723259 18.536441,9.70641 18.839892,8.361156 0.107067,-0.47507 -0.697867,-3.178266 -1.78865,-6.007124 z m 8.895563,6.229625 C 90.294352,35.44541 89.296217,31.061159 83.33013,23.906157 80.049905,19.972276 70.854697,12.35143 72.450837,14.889587 c 0.167041,0.265255 1.588858,2.395709 3.160102,4.734415 2.535801,3.774211 6.899663,14.051017 6.899663,16.248442 0,1.772024 0.847168,1.991092 3.765555,0.973719 z"
       id="path5"
       sodipodi:nodetypes="sssssssccssssssccssssssscsssssssccscccssssssscccsccssscccssssssccccccssscscccscsssssssscss" /><path
       sodipodi:type="star"
       style="fill:#552583;fill-opacity:1;stroke:#ffffff;stroke-width:4.27492779;stroke-dasharray:none"
       id="path1"
       inkscape:flatsided="false"
       sodipodi:sides="5"
       sodipodi:cx="-53.88467"
       sodipodi:cy="24.07143"
       sodipodi:r1="42.8871"
       sodipodi:r2="15.970287"
       sodipodi:arg1="0.92420563"
       sodipodi:arg2="1.5525242"
       inkscape:rounded="0"
       inkscape:randomized="0"
       d="m -28.04653,58.301445 -25.546345,-18.262393 -24.862049,19.183566 9.474313,-29.939408 -25.927451,-17.717166 31.401792,-0.241178 8.838003,-30.133377 9.933062,29.790351 31.389637,-0.906285 -25.262822,18.652628 z"
       inkscape:transform-center-x="-1.8394451"
       inkscape:transform-center-y="-2.7854236"
       transform="matrix(0.70176624,0,-0.36041359,0.70176624,112.74391,46.741781)" /><text
       xml:space="preserve"
       style="font-style:normal;font-variant:normal;font-weight:normal;font-stretch:normal;font-size:67.7835px;line-height:1;font-family:Sportsball;-inkscape-font-specification:Sportsball;text-align:center;letter-spacing:-26.2831px;writing-mode:lr-tb;direction:ltr;text-anchor:middle;fill:#552583;fill-opacity:1;stroke:#ffffff;stroke-width:3;stroke-dasharray:none"
       x="38.96706"
       y="71.610237"
       id="text1"
       transform="skewX(-10.39229)"><tspan
         sodipodi:role="line"
         id="tspan1"
         style="font-style:normal;font-variant:normal;font-weight:normal;font-stretch:normal;font-family:'Ranked Sports';-inkscape-font-specification:'Ranked Sports';fill:#552583;fill-opacity:1;stroke:#ffffff;stroke-width:3;stroke-dasharray:none"
         x="25.825499"
         y="71.610237">l</tspan></text></g></svg>
