<?xml version="1.0" encoding="UTF-8" standalone="no"?>
<!-- Created with Inkscape (http://www.inkscape.org/) -->

<svg
   width="105.83334mm"
   height="105.83334mm"
   viewBox="0 0 105.83333 105.83333"
   version="1.1"
   id="svg1"
   xml:space="preserve"
   inkscape:version="1.4 (e7c3feb100, 2024-10-09)"
   sodipodi:docname="la.svg"
   inkscape:export-filename="../pngs/memphis.png"
   inkscape:export-xdpi="96"
   inkscape:export-ydpi="96"
   xmlns:inkscape="http://www.inkscape.org/namespaces/inkscape"
   xmlns:sodipodi="http://sodipodi.sourceforge.net/DTD/sodipodi-0.dtd"
   xmlns="http://www.w3.org/2000/svg"
   xmlns:svg="http://www.w3.org/2000/svg"><sodipodi:namedview
     id="namedview1"
     pagecolor="#ffffff"
     bordercolor="#000000"
     borderopacity="0.25"
     inkscape:showpageshadow="2"
     inkscape:pageopacity="0.0"
     inkscape:pagecheckerboard="0"
     inkscape:deskcolor="#d1d1d1"
     inkscape:document-units="mm"
     inkscape:zoom="1.1980835"
     inkscape:cx="349.72521"
     inkscape:cy="142.72795"
     inkscape:window-width="1920"
     inkscape:window-height="1011"
     inkscape:window-x="0"
     inkscape:window-y="32"
     inkscape:window-maximized="1"
     inkscape:current-layer="layer1"
     showgrid="false"
     showguides="false" /><defs
     id="defs1" /><g
     inkscape:label="Capa 1"
     inkscape:groupmode="layer"
     id="layer1"><g
       id="g11"><ellipse
         style="fill:#fdb927;fill-opacity:1;stroke-width:2.87121"
         id="path6"
         cx="52.904358"
         cy="54.292084"
         rx="44.952892"
         ry="43.878323" /><path
         style="fill:#552583;fill-opacity:1;stroke-width:7.12283"
         d="M 44.279232,99.069076 C 29.831125,95.824384 19.001623,87.375302 12.579258,74.336963 8.8763744,66.819724 7.8742578,62.516685 7.8742578,54.134216 c 0,-9.945847 2.5650132,-18.245506 8.1453912,-26.356345 11.139927,-16.19124 32.858593,-23.4390193 51.50725,-17.188565 7.728574,2.590386 12.450008,5.554654 18.363969,11.529562 5.866865,5.92725 8.3974,9.899256 11.075514,17.384211 1.818327,5.08208 2.522736,5.76683 2.490968,14.757846 -0.0285,8.471827 -0.817316,9.672815 -2.276574,14.045371 -2.128376,6.378137 -5.276737,11.587512 -10.193355,16.866594 -5.456941,5.859211 -11.40936,9.73857 -18.865761,12.295385 -5.247678,1.799471 -6.973547,2.102188 -12.987216,2.278168 -4.587247,0.13428 -8.262424,-0.095 -10.855212,-0.677367 z M 65.594045,94.196751 C 72.59637,90.283062 80.316671,79.14077 82.057717,70.435567 l 0.37537,-1.8779 -3.849546,1.457932 c -2.117261,0.801857 -7.666593,3.633969 -12.331843,6.293582 -17.851974,10.177196 -24.403771,12.775661 -32.563335,12.914707 -4.326556,0.07369 -4.301709,0.147146 0.973115,2.876913 9.469394,4.900447 24.136381,5.894271 30.93236,2.09595 z m 16.376909,-8.628584 c 5.223676,-4.581458 9.751099,-11.65195 9.106192,-14.221309 -0.363982,-1.451384 -3.389694,-3.09466 -4.742098,-2.575698 -0.430945,0.165383 -1.150271,1.756733 -1.598447,3.536326 -1.085014,4.308325 -4.411169,11.278209 -7.001808,14.672146 -1.152841,1.510285 -2.096044,2.897799 -2.096044,3.083364 0,0.477155 3.478866,-1.992317 6.332205,-4.494829 z M 40.359319,85.265873 c 5.394349,-1.460861 10.578564,-3.889002 21.610914,-10.121856 11.251233,-6.356557 17.88196,-9.507177 20.067468,-9.53519 1.082239,-0.01358 1.329893,-0.490621 1.653196,-3.18242 0.209432,-1.741359 0.382507,-3.912399 0.38535,-4.824537 l 0.0057,-1.658442 H 47.596195 11.110667 v 1.539391 c 0,2.773108 1.921447,10.144738 3.636625,13.951871 3.303352,7.332238 7.436328,12.185916 11.647409,13.678494 3.193946,1.132059 10.070706,1.207244 13.964683,0.152708 z M 94.819697,64.084835 c 0.352587,-1.658428 0.797827,-4.168697 0.98937,-5.578367 l 0.3483,-2.56304 h -4.530124 -4.530126 v 2.026573 c 0,1.114612 -0.167409,3.249454 -0.372517,4.744109 l -0.372537,2.717542 2.138637,0.401229 c 1.176271,0.220669 2.768649,0.912667 3.53856,1.537774 1.638384,1.330114 1.865967,1.062122 2.790437,-3.285804 z M 84.076463,50.666598 C 84.073634,49.754463 83.902655,47.60705 83.697529,45.894586 83.3421,42.934476 83.223146,42.762135 81.28246,42.398113 78.137222,41.808058 72.165576,38.946535 62.243043,33.274652 46.795519,24.444607 40.892043,22.171676 33.405158,22.171676 c -7.327063,0 -11.190923,2.233098 -15.519532,8.969467 -1.145214,1.782179 -2.695506,4.63167 -3.4451,6.332204 -1.460394,3.313004 -3.329587,10.786306 -3.329587,13.312301 v 1.53938 H 47.596486 84.08209 Z m 11.718788,-0.9046 c -0.199414,-1.409669 -0.745121,-4.145394 -1.213312,-6.079381 -0.467976,-1.933986 -0.851178,-3.648596 -0.851178,-3.810237 0,-0.161623 -0.791277,0.269527 -1.758418,0.958238 -0.967206,0.688708 -2.624557,1.425331 -3.682999,1.637037 -1.827726,0.365544 -1.90644,0.494253 -1.565035,2.558103 0.198006,1.195259 0.362557,3.326571 0.366111,4.73624 l 0.0065,2.56303 h 4.530125 4.530124 z M 80.476006,33.154043 C 76.369481,22.50558 69.104972,14.498195 61.755407,12.519168 54.790338,10.643661 42.112616,12.318872 34.84518,16.075038 c -5.478815,2.831703 -5.504243,2.895443 -1.184244,2.969059 7.901368,0.134625 14.875835,2.827881 30.82138,11.901914 11.081864,6.30627 17.386774,9.1044 17.671403,7.842582 0.10043,-0.445606 -0.654587,-2.981144 -1.677713,-5.63455 z m 8.34384,5.843251 C 92.58883,37.683417 91.652596,33.571087 86.056543,26.859852 82.97976,23.169957 74.354854,16.02177 75.851998,18.402505 c 0.15669,0.248804 1.490316,2.247124 2.964114,4.440779 2.378525,3.540126 6.47173,13.179545 6.47173,15.240683 0,1.662119 0.794627,1.867601 3.532004,0.913327 z"
         id="path5"
         sodipodi:nodetypes="sssssssccssssssccssssssscsssssssccscccssssssscccsccssscccssssssccccccssscscccscsssssssscss" /><g
         id="path7"
         inkscape:transform-center-x="-0.72194238"
         inkscape:transform-center-y="-2.5732507"
         transform="matrix(0.93797811,0,0,0.93797811,-4.3896732,1.7216541)"><path
           style="fill:#552583"
           d="M 112.6364,55.161677 97.07876,68.251926 97.28444,88.288955 83.62641,76.271188 62.96574,88.288955 74.84559,68.251926 66.91922,55.161677 l 15.98592,2e-6 12.84154,-19.772383 0.8993,19.772383 z"
           id="path10" /><path
           style="fill:#ffffff"
           d="M 97.125,30.316406 82.033203,53.554687 H 64.066406 L 72.970703,68.259766 58.429687,92.787109 83.433594,78.242187 98.929687,91.876953 98.693359,68.994141 117.04297,53.554687 H 98.181641 Z m -2.757813,10.148438 0.742188,16.304687 H 108.22852 L 95.462891,67.509766 95.640625,84.701172 83.818359,74.298828 67.5,83.792969 76.71875,68.244141 69.773437,56.769531 h 14.003907 z"
           id="path11" /></g><g
         id="text1"
         transform="matrix(0.93797811,0,-0.34698166,0.93797811,-4.3896732,1.7216541)"><path
           style="-inkscape-font-specification:'Ranked Sports';fill:#552583"
           d="M 87.210208,56.114571 H 49.897107 V 45.240893 H 54.14231 V 13.848733 H 49.897107 V 2.9750545 H 72.687145 V 13.848733 h -5.13893 v 31.39216 h 8.713838 v -9.235179 h 10.948155 z"
           id="path8" /><path
           style="-inkscape-font-specification:'Ranked Sports';fill:#ffffff"
           d="M 48.208984,1.2871094 V 15.537109 h 4.246094 v 28.015625 h -4.246094 v 14.25 H 88.898437 V 34.318359 H 74.574219 v 9.234375 H 69.236328 V 15.537109 H 74.375 V 1.2871094 Z m 3.376953,3.375 H 71 v 7.4980466 h -5.140625 v 34.769531 h 12.089844 v -9.236328 h 7.572265 V 54.425781 H 51.585937 v -7.496094 h 4.244141 V 12.160156 h -4.244141 z"
           id="path9" /></g><rect
         style="fill:#552583;fill-opacity:1;fill-rule:evenodd;stroke-width:0.192537"
         id="rect7"
         width="24.036882"
         height="0.98847938"
         x="9.8663635"
         y="24.858772"
         ry="0.02639736" /><rect
         style="fill:#552583;fill-opacity:1;fill-rule:evenodd;stroke-width:0.192537"
         id="rect7-3"
         width="24.036882"
         height="0.98847938"
         x="4.3734422"
         y="33.111473"
         ry="0.02639736" /><rect
         style="fill:#552583;fill-opacity:1;fill-rule:evenodd;stroke-width:0.192537"
         id="rect7-3-9"
         width="24.036882"
         height="0.98847938"
         x="0.54912871"
         y="41.673664"
         ry="0.02639736" /><rect
         style="fill:#552583;fill-opacity:1;fill-rule:evenodd;stroke-width:0.192537"
         id="rect7-4"
         width="24.036882"
         height="0.98847938"
         x="8.5758753"
         y="75.546608"
         ry="0.02639736" /><rect
         style="fill:#552583;fill-opacity:1;fill-rule:evenodd;stroke-width:0.192537"
         id="rect7-3-7"
         width="24.036882"
         height="0.98847938"
         x="0.8555277"
         y="58.098854"
         ry="0.02639736" /><rect
         style="fill:#552583;fill-opacity:1;fill-rule:evenodd;stroke-width:0.192537"
         id="rect7-3-9-8"
         width="24.036882"
         height="0.98847938"
         x="4.6146832"
         y="66.661041"
         ry="0.02639736" /></g></g></svg>
