<?xml version="1.0" encoding="UTF-8" standalone="no"?>
<!-- Created with Inkscape (http://www.inkscape.org/) -->

<svg
   width="105.83334mm"
   height="105.83334mm"
   viewBox="0 0 105.83333 105.83333"
   version="1.1"
   id="svg1"
   xml:space="preserve"
   inkscape:version="1.4 (e7c3feb100, 2024-10-09)"
   sodipodi:docname="memphis.svg"
   inkscape:export-filename="../pngs/memphis.png"
   inkscape:export-xdpi="96"
   inkscape:export-ydpi="96"
   xmlns:inkscape="http://www.inkscape.org/namespaces/inkscape"
   xmlns:sodipodi="http://sodipodi.sourceforge.net/DTD/sodipodi-0.dtd"
   xmlns="http://www.w3.org/2000/svg"
   xmlns:svg="http://www.w3.org/2000/svg"><sodipodi:namedview
     id="namedview1"
     pagecolor="#ffffff"
     bordercolor="#000000"
     borderopacity="0.25"
     inkscape:showpageshadow="2"
     inkscape:pageopacity="0.0"
     inkscape:pagecheckerboard="0"
     inkscape:deskcolor="#d1d1d1"
     inkscape:document-units="mm"
     inkscape:zoom="1.1980835"
     inkscape:cx="355.56786"
     inkscape:cy="98.490628"
     inkscape:window-width="1920"
     inkscape:window-height="1011"
     inkscape:window-x="0"
     inkscape:window-y="32"
     inkscape:window-maximized="1"
     inkscape:current-layer="layer1"
     showgrid="false" /><defs
     id="defs1" /><g
     inkscape:label="Capa 1"
     inkscape:groupmode="layer"
     id="layer1"><ellipse
       style="fill:#01dbff;fill-opacity:1;stroke-width:1.21543"
       id="path4"
       cx="60.919338"
       cy="23.929882"
       rx="30.541121"
       ry="23.097681"
       transform="rotate(3.2966976)" /><ellipse
       style="fill:#01dbff;fill-opacity:1;stroke-width:1.21543"
       id="path4-6"
       cx="65.038658"
       cy="66.470589"
       rx="30.541121"
       ry="23.097681"
       transform="rotate(12.799771)" /><path
       style="fill:#0d2f6d;fill-opacity:1;stroke-width:4.43364"
       d="m 33.12553,7.0875101 c 16.437872,-7.24802062 34.097439,-6.0649259 48.61666,3.2570709 7.66784,4.923056 11.870069,9.318168 16.4486,17.203446 2.1267,3.66227 3.3351,6.130731 4.09835,8.370443 7.17551,21.055915 0.4353,43.75446 -16.970083,57.149024 -4.113525,3.165617 -6.50826,4.548222 -11.306532,6.527828 C 61.484731,104.76387 47.211916,104.72287 34.852599,99.482858 30.299069,97.552278 22.944914,92.716285 19.551998,89.421427 6.6576438,76.899645 1.2987885,58.573493 5.448759,41.191532 7.9053281,30.902334 13.997147,20.965731 21.897931,14.360642 24.517019,12.171079 30.742471,8.1382833 33.12553,7.0875101 Z M 47.949555,6.9366033 c 11.811123,-0.4207266 23.986988,2.8957699 35.692973,9.7221457 3.597338,2.097907 3.192008,1.517355 -1.233715,-1.766647 C 72.802717,7.7641549 59.948433,4.5584165 47.822464,6.2665867 c -4.5267,0.6376672 -4.489372,0.8344597 0.127075,0.6700245 z M 45.92861,10.869353 c 0.04233,0.07309 1.475184,0.105725 3.184227,0.07219 10.618842,-0.208342 23.734098,3.53246 33.006254,9.414209 2.574828,1.633356 2.479728,1.254076 -0.227461,-0.907026 -9.292096,-7.417762 -20.600461,-10.6658213 -32.484401,-9.330367 -2.98163,0.335059 -3.637087,0.476567 -3.47864,0.751004 z m -0.273385,4.031078 c 0.03576,0.06159 1.709592,0.153285 3.719866,0.203414 11.40864,0.284471 21.458934,2.935694 29.49173,7.779794 3.378199,2.037178 2.469355,1.044943 -1.719829,-1.877657 -8.617124,-6.011765 -18.11971,-8.238565 -28.810802,-6.751408 -2.258107,0.314108 -2.797484,0.444043 -2.680965,0.645857 z m 0.941138,3.819824 c 0.1169,0.03063 2.128776,0.164805 4.470669,0.298339 9.903678,0.564709 18.665817,2.928023 25.301778,6.824361 2.58115,1.515322 1.067374,0.1174 -2.310273,-2.133795 -7.480057,-4.985508 -15.421235,-6.707614 -25.168385,-5.457963 -2.2726,0.291362 -2.666061,0.371821 -2.293792,0.469059 z m 4.067024,4.032503 c 6.915555,0.341298 15.198104,2.474942 21.379856,5.507609 1.967925,0.965446 3.528609,1.669711 3.468177,1.565042 -0.389145,-0.674015 -4.3389,-3.357909 -6.780484,-4.607404 -5.294542,-2.709496 -12.321251,-3.962487 -18.037934,-3.216457 -3.267673,0.42643 -3.274166,0.591094 -0.02962,0.751202 z m -1.200388,4.017926 c 8.020978,0.625346 15.951436,2.475456 20.543456,4.792609 1.481272,0.747454 2.716017,1.273924 2.743891,1.169915 0.0278,-0.104011 -1.103388,-0.985583 -2.51387,-1.959141 -5.750041,-3.968726 -12.474316,-5.663029 -19.000851,-4.78761 -2.652432,0.355772 -3.343934,0.661694 -1.772618,0.784187 z m -0.01107,3.715015 c 0.0371,0.0639 1.141277,0.183771 2.453971,0.265948 5.026289,0.314698 12.053125,2.205776 16.390564,4.411058 1.042706,0.530131 1.920011,0.873635 1.94957,0.763326 0.02941,-0.11035 -0.909654,-0.88448 -2.087149,-1.720349 -4.621215,-3.28053 -10.144509,-4.78477 -15.79129,-4.300667 -2.399056,0.205673 -3.056562,0.336623 -2.915659,0.580672 z m -6.650931,9.108102 c -2.783126,2.502409 -4.405116,5.141347 -5.367391,8.732632 -1.002281,3.740555 -0.869179,6.831033 0.462089,10.729371 0.920523,2.695555 1.174546,3.13554 3.048707,5.280516 2.712969,3.104996 5.316598,4.759939 9.096933,5.782296 3.728969,1.008464 6.730103,0.873898 10.693108,-0.479457 2.695815,-0.920609 3.13568,-1.174566 5.28086,-3.0489 3.153542,-2.755388 4.770643,-5.287166 5.761775,-9.020778 1.004782,-3.785045 0.87337,-6.867325 -0.459152,-10.769324 -0.920521,-2.695558 -1.174543,-3.135543 -3.048707,-5.280515 -2.71042,-3.102081 -5.320312,-4.762588 -9.060863,-5.764871 -3.520737,-0.943374 -6.696583,-0.877507 -10.088525,0.209242 -3.063017,0.981364 -3.922296,1.474974 -6.318849,3.629761 z m 12.199874,11.180701 c 1.252807,0.109788 2.174019,1.552155 1.777496,2.783086 -0.902629,2.802074 -4.984064,1.662304 -4.222683,-1.179211 0.330106,-1.23202 1.079517,-1.723553 2.445194,-1.603871 z M 41.054734,71.650259 c 4.680019,3.322276 10.21322,4.804893 15.927371,4.267729 1.437679,-0.135153 2.639138,-0.339705 2.669914,-0.454568 0.03092,-0.114741 -1.009985,-0.2763 -2.312788,-0.358781 -5.193315,-0.328762 -11.975551,-2.150642 -16.422076,-4.411389 -1.042708,-0.530131 -1.920011,-0.873634 -1.949571,-0.763326 -0.02942,0.110387 0.909654,0.884479 2.08715,1.720335 z m -2.07759,3.431597 c 5.867073,4.049498 12.982341,5.770851 19.495856,4.716509 1.11599,-0.180643 2.04999,-0.406554 2.075568,-0.502017 0.02545,-0.09553 -1.845777,-0.340027 -4.158572,-0.543475 -5.199304,-0.457367 -13.611461,-2.637622 -17.190946,-4.455537 -1.476812,-0.750035 -2.70791,-1.278613 -2.735787,-1.174604 -0.0278,0.10401 1.103393,0.985584 2.513869,1.95914 z m -3.323854,2.571658 c 6.087252,4.736466 15.343539,7.225407 22.951722,6.171538 3.254108,-0.450751 3.245897,-0.558958 -0.05479,-0.721876 -6.915998,-0.341324 -15.568034,-2.579963 -21.410896,-5.539881 -1.815517,-0.919692 -3.325942,-1.612856 -3.356505,-1.540347 -0.03061,0.07248 0.811115,0.806291 1.870472,1.630531 z m -3.933196,2.033536 c 1.280305,1.190267 6.249769,4.318443 8.339038,5.249297 6.469476,2.882371 14.372552,3.831847 21.236976,2.551407 1.949722,-0.363684 1.976784,-0.358099 -3.14954,-0.6504 C 52.51916,86.516479 48.121932,85.770238 42.882176,84.246886 38.863422,83.078508 33.262827,80.600007 31.965579,79.415813 31.6534,79.130884 31.324906,78.939945 31.235436,78.991652 c -0.08939,0.0516 0.128686,0.364573 0.484627,0.695458 z m -2.178123,3.368456 c 7.994026,6.36039 17.462926,9.482625 27.10187,8.936451 2.821767,-0.159893 6.743322,-0.727025 6.812511,-0.985231 0.02378,-0.08907 -1.382447,-0.180019 -3.125107,-0.202229 -4.583329,-0.05842 -11.15146,-0.876873 -15.571732,-1.940403 -4.505172,-1.083943 -11.083281,-3.792675 -14.451535,-5.950842 -1.308927,-0.83869 -2.398916,-1.453825 -2.422084,-1.367164 -0.02347,0.08674 0.722034,0.765968 1.656169,1.509258 z m -2.254885,3.253569 c 8.586496,7.047551 19.934471,10.554011 30.957855,9.565792 3.263597,-0.29257 5.624218,-0.68434 5.067356,-0.840981 -0.142237,-0.04014 -1.773372,-0.08566 -3.624572,-0.101401 -7.255705,-0.06169 -15.354757,-1.634491 -22.320128,-4.334478 -4.243852,-1.645049 -10.060854,-4.646542 -11.433445,-5.899506 -0.36088,-0.32938 -0.683795,-0.495532 -0.717618,-0.369266 -0.03398,0.12624 0.897902,1.017252 2.070598,1.979752 z m -1.900737,3.605365 c 10.57991,8.212383 24.006064,11.6901 36.908377,9.56022 3.645526,-0.601798 3.436451,-0.714447 -1.03076,-0.555186 -10.108671,0.360081 -21.04683,-2.15772 -30.84856,-7.100885 -1.983611,-1.000357 -4.52186,-2.400388 -5.640579,-3.111145 -1.118723,-0.710755 -2.05629,-1.209213 -2.083473,-1.107723 -0.02734,0.101465 1.18551,1.143222 2.694911,2.314864 z"
       id="path1" /><path
       style="fill:#f5b112;fill-opacity:1;stroke-width:0.481277"
       d="m 47.845958,75.870502 c -0.798792,-0.871938 -0.912256,-2.046304 -0.309933,-3.207706 0.202738,-0.390926 0.386084,-0.749197 0.407429,-0.796164 0.02135,-0.04699 -0.378671,0.05116 -0.888937,0.218038 -1.757267,0.574746 -2.946126,0.769439 -4.66926,0.764647 -2.523815,-0.0071 -4.406301,-0.522839 -8.093018,-2.217594 -0.862628,-0.396541 -1.850732,-0.849769 -2.195781,-1.007167 -0.775802,-0.353893 -2.424631,-0.942465 -3.262305,-1.16453 -2.678931,-0.710177 -5.585735,-0.577783 -8.754426,0.398735 -0.398277,0.122731 -0.754964,0.191411 -0.792642,0.152606 -0.09804,-0.100982 0.538878,-1.360358 0.996361,-1.970099 0.57707,-0.769135 1.514784,-1.602105 2.368183,-2.103652 1.472758,-0.865547 4.10088,-1.290995 5.837475,-0.944988 0.293291,0.05843 0.533262,0.06464 0.533262,0.0138 0,-0.05087 -0.162158,-0.323042 -0.360348,-0.60483 C 28.01375,62.479893 26.970346,61.777543 25.634589,61.363734 24.047688,60.87212 21.075613,60.516351 18.549392,60.51561 15.504655,60.514731 11.24258,60.206444 9.323072,59.848282 8.6211785,59.71732 7.0810976,59.294598 6.6253983,59.107832 4.7997396,58.359595 3.2655195,57.305693 2.40914,56.211553 1.8065462,55.441645 0.86243133,53.450769 0.75214743,52.717413 0.67829699,52.22651 0.68036204,52.223349 0.95380523,52.423205 3.5502812,54.322013 4.9027172,54.95133 7.3782398,55.412607 c 1.7975936,0.334955 3.2952122,0.232998 5.3326082,-0.363045 2.17653,-0.636747 3.752823,-1.5963 5.241524,-3.190731 0.550281,-0.589359 0.906844,-1.56275 0.904773,-2.469953 -0.0025,-0.975261 -0.160836,-1.497407 -0.734018,-2.416431 -0.883466,-1.416522 -2.749675,-2.781359 -4.715114,-3.448354 -0.784201,-0.266129 -2.381061,-0.583332 -2.955677,-0.587121 l -0.43916,-0.0029 0.301321,-0.238598 c 0.446272,-0.353388 1.697409,-0.767715 2.835507,-0.939018 1.376282,-0.207151 3.027535,-0.0095 7.340183,0.878165 1.89778,0.390661 4.099836,0.766616 4.893453,0.835453 3.028407,0.262682 5.47939,-0.268371 7.544815,-1.634725 0.457603,-0.30272 0.865673,-0.606509 0.906826,-0.675091 0.04648,-0.07741 -0.792471,-0.151981 -2.212204,-0.196653 -3.921498,-0.12339 -5.803979,-0.712074 -9.368429,-2.929666 -2.370825,-1.47499 -3.62356,-1.943335 -5.198049,-1.943335 -0.864672,0 -0.869636,-0.0021 -0.643335,-0.259552 0.257924,-0.293537 1.750836,-1.059259 2.508504,-1.286626 0.276043,-0.08285 1.235912,-0.181071 2.133045,-0.218299 1.432007,-0.05941 2.008542,-0.011 4.722243,0.396338 3.961021,0.594615 6.341339,0.713689 8.142857,0.40734 1.225466,-0.208391 3.740371,-1.011394 6.269564,-2.001857 2.309732,-0.904518 4.423383,-1.497523 5.834505,-1.636925 1.115332,-0.110183 1.385453,-0.245317 0.738087,-0.369249 -0.267927,-0.05129 -1.105082,-0.270522 -1.860345,-0.487178 -1.257495,-0.360729 -1.479525,-0.387201 -2.634937,-0.314167 -0.693955,0.04387 -1.431122,0.115349 -1.638151,0.158856 l -0.376417,0.0791 0.376417,-0.328184 c 0.447361,-0.390036 2.390121,-1.406287 3.227857,-1.688483 2.246758,-0.756828 4.20374,-1.097531 6.872735,-1.196522 9.543241,-0.353971 17.562713,3.977928 21.572898,11.653083 l 0.405125,0.775382 -0.536944,-0.646152 c -1.399038,-1.683554 -3.277611,-3.349226 -4.893843,-4.339182 -5.499181,-3.36828 -12.144157,-3.717004 -17.92203,-0.940532 -3.201276,1.538324 -6.396791,4.561366 -8.176455,7.735143 -2.425052,4.32474 -3.118063,9.442462 -1.934335,14.284628 1.458099,5.964489 6.140342,11.204243 11.862004,13.274396 4.531683,1.63961 9.338332,1.495118 13.790415,-0.414547 2.197407,-0.942548 4.05767,-2.25112 6.018354,-4.233493 0.658272,-0.665561 1.054134,-0.998768 0.888595,-0.747959 -3.028516,4.588554 -6.519972,7.317805 -10.722246,8.381526 -1.471274,0.372422 -2.472629,0.511211 -5.269876,0.730409 -2.962084,0.232114 -3.947301,0.426412 -5.153366,1.016324 -0.846223,0.413905 -1.898774,1.310926 -2.342492,1.996351 l -0.19422,0.300027 z"
       id="path7"
       sodipodi:nodetypes="sssssssssssssssscsssssssssssccssssscsssssssssssssscsssscsssssssscsssscs" /><ellipse
       style="fill:#0d2f6d;fill-opacity:1;stroke-width:1.23022"
       id="path6"
       cx="-56.914974"
       cy="-50.778862"
       rx="19.260857"
       ry="18.800438"
       transform="scale(-1)" /><path
       style="fill:#ffffff;fill-opacity:1;stroke-width:3.0519"
       d="m 60.610559,31.593364 c 6.190548,1.39025 10.830635,5.010409 13.582413,10.596915 1.586564,3.220892 2.015939,5.064604 2.015939,8.65622 0,4.261473 -1.099024,7.817608 -3.490036,11.292838 -4.773097,6.937421 -14.078841,10.04286 -22.069186,7.364742 -3.31144,-1.109896 -5.334425,-2.379988 -7.868362,-4.940043 -2.513763,-2.539634 -3.598014,-4.24151 -4.745499,-7.448569 -0.779091,-2.177507 -1.080913,-2.4709 -1.067301,-6.323259 0.01221,-3.629903 0.350193,-4.144487 0.975439,-6.017984 0.911939,-2.732825 2.260911,-4.964876 4.367521,-7.22679 2.338125,-2.51048 4.88854,-4.17266 8.083368,-5.268176 2.24846,-0.771014 2.987936,-0.900729 5.564599,-0.976127 1.965488,-0.05753 3.54018,0.04074 4.651105,0.290233 z m -9.132705,2.087639 c -3.000268,1.676887 -6.308167,6.450998 -7.054145,10.180896 l -0.160834,0.80462 1.649401,-0.624677 c 0.90718,-0.34357 3.284889,-1.557038 5.283795,-2.696596 7.648991,-4.360596 10.456225,-5.473955 13.952335,-5.533532 1.853788,-0.03159 1.843139,-0.06305 -0.416951,-1.232665 -4.057326,-2.099683 -10.341656,-2.525506 -13.253511,-0.898046 z m -7.016972,3.697068 c -2.238175,1.963007 -4.178029,4.992484 -3.901709,6.093371 0.155953,0.621868 1.452372,1.325959 2.031837,1.1036 0.184641,-0.07086 0.492851,-0.752702 0.684878,-1.515199 0.464897,-1.845978 1.890046,-4.832347 3.000053,-6.286538 0.493952,-0.647109 0.898084,-1.241612 0.898084,-1.321121 0,-0.204446 -1.490581,0.853642 -2.713143,1.925887 z m 17.829232,0.129523 c -2.311301,0.625934 -4.532568,1.666311 -9.259574,4.336889 -4.820789,2.723578 -7.661837,4.073515 -8.598255,4.085518 -0.463706,0.0058 -0.569821,0.210215 -0.708347,1.363564 -0.08973,0.746115 -0.163887,1.676336 -0.165107,2.067157 l -0.0023,0.710588 h 15.6329 15.632864 v -0.659579 c 0,-1.188186 -0.82328,-4.346691 -1.558175,-5.977923 -1.415381,-3.141625 -3.186227,-5.221269 -4.990537,-5.86079 -1.368504,-0.485052 -4.31497,-0.517268 -5.983416,-0.06543 z m -23.334503,9.075388 c -0.15107,0.710583 -0.341845,1.786152 -0.42391,2.390149 l -0.149238,1.098179 h 1.941012 1.941011 v -0.86832 c 0,-0.477575 0.07173,-1.392285 0.159616,-2.032697 l 0.159614,-1.164378 -0.916335,-0.171914 c -0.503991,-0.09455 -1.186275,-0.391048 -1.516156,-0.658886 -0.701999,-0.569912 -0.799508,-0.455084 -1.195614,1.40786 z m 4.603127,5.749279 c 0.0012,0.390821 0.07447,1.310916 0.162362,2.044652 0.15229,1.268311 0.203257,1.342154 1.034779,1.498125 1.347629,0.25282 3.906286,1.478889 8.157773,3.909107 6.61876,3.783388 9.14821,4.757265 12.356097,4.757265 3.139409,0 4.794946,-0.95681 6.649614,-3.843125 0.490687,-0.763606 1.154938,-1.98452 1.476113,-2.713144 0.625732,-1.419515 1.426621,-4.621582 1.426621,-5.703889 V 51.621678 H 59.189225 43.556328 Z m -5.021116,0.387592 c 0.08544,0.603997 0.319259,1.776166 0.519861,2.604817 0.200511,0.82865 0.364703,1.563305 0.364703,1.632563 0,0.06925 0.339037,-0.115484 0.753424,-0.410574 0.414418,-0.295089 1.124536,-0.610708 1.578048,-0.701417 0.783119,-0.156624 0.816843,-0.211771 0.670565,-1.096064 -0.08484,-0.51213 -0.155343,-1.425328 -0.156867,-2.029325 l -0.0029,-1.098175 h -1.94101 -1.941012 z m 6.563794,7.11597 c 1.759515,4.56252 4.872123,7.993425 8.02117,8.841373 2.984306,0.803594 8.416301,0.08582 11.53016,-1.523575 2.347492,-1.213292 2.358387,-1.240603 0.50741,-1.272145 -3.385479,-0.05768 -6.373813,-1.211655 -13.205961,-5.099584 -4.748216,-2.702032 -7.44967,-3.90094 -7.571624,-3.360291 -0.04303,0.190927 0.280469,1.277323 0.718845,2.414222 z m -3.575064,-2.503644 c -1.614885,0.562953 -1.213742,2.324954 1.183988,5.2005 1.318301,1.581 5.013791,4.643766 4.372312,3.623698 -0.06713,-0.106604 -0.638551,-0.962819 -1.270021,-1.902729 -1.019122,-1.51683 -2.77293,-5.647008 -2.77293,-6.530138 0,-0.712164 -0.34047,-0.800206 -1.513349,-0.391331 z"
       id="path5"
       sodipodi:nodetypes="sssssssccssssssccssssssscsssssssccscccssssssscccsccssscccssssssccccccssscscccscsssssssscss" /></g></svg>
