<?xml version="1.0" encoding="UTF-8" standalone="no"?>
<!-- Created with Inkscape (http://www.inkscape.org/) -->

<svg
   width="105.83334mm"
   height="105.83334mm"
   viewBox="0 0 105.83333 105.83333"
   version="1.1"
   id="svg1"
   xml:space="preserve"
   inkscape:version="1.4 (e7c3feb100, 2024-10-09)"
   sodipodi:docname="memphis.svg"
   inkscape:export-filename="../pngs/memphis.png"
   inkscape:export-xdpi="96"
   inkscape:export-ydpi="96"
   xmlns:inkscape="http://www.inkscape.org/namespaces/inkscape"
   xmlns:sodipodi="http://sodipodi.sourceforge.net/DTD/sodipodi-0.dtd"
   xmlns="http://www.w3.org/2000/svg"
   xmlns:svg="http://www.w3.org/2000/svg"><sodipodi:namedview
     id="namedview1"
     pagecolor="#ffffff"
     bordercolor="#000000"
     borderopacity="0.25"
     inkscape:showpageshadow="2"
     inkscape:pageopacity="0.0"
     inkscape:pagecheckerboard="0"
     inkscape:deskcolor="#d1d1d1"
     inkscape:document-units="mm"
     inkscape:zoom="1.3109059"
     inkscape:cx="45.769874"
     inkscape:cy="171.63703"
     inkscape:window-width="1920"
     inkscape:window-height="1011"
     inkscape:window-x="0"
     inkscape:window-y="32"
     inkscape:window-maximized="1"
     inkscape:current-layer="layer1"
     showgrid="false" /><defs
     id="defs1" /><g
     inkscape:label="Capa 1"
     inkscape:groupmode="layer"
     id="layer1"><rect
       style="fill:#0d2f6d;fill-rule:evenodd;stroke-width:0.264583;fill-opacity:1"
       id="rect1"
       width="11.041941"
       height="11.041941"
       x="-0.44167763"
       y="-17.887943"
       ry="0.029487522" /><rect
       style="fill:#01dbff;fill-rule:evenodd;stroke-width:0.264583;fill-opacity:1"
       id="rect2"
       width="9.937746"
       height="9.937746"
       x="13.692006"
       y="-17.225426"
       ry="0.029487522" /><rect
       style="fill:#ffffff;fill-rule:evenodd;stroke-width:0.264583"
       id="rect3"
       width="10.821101"
       height="10.821101"
       x="27.825689"
       y="-17.004587"
       ry="0.029487522" /><path
       style="fill:#0d2f6d;fill-opacity:1;stroke-width:4.29195"
       d="M 76.147483,8.5520733 C 60.234917,1.5356786 43.139699,2.6809651 29.08447,11.705058 21.661672,16.470787 17.593734,20.725444 13.161519,28.358731 11.102782,31.903966 9.9329992,34.293542 9.1941405,36.461679 2.2479395,56.844708 8.7727514,78.817874 25.621909,91.784387 c 3.982069,3.064456 6.300275,4.402872 10.945208,6.31922 12.127442,5.003383 25.94414,4.963693 37.908489,-0.108876 C 93.41644,89.964306 109.15064,67.580087 102.93978,41.566229 100.56172,31.605844 94.664578,21.986786 87.01628,15.592777 84.480891,13.473186 78.454386,9.5692667 76.147483,8.5520733 Z M 60.342828,31.202524 c -0.03591,0.06186 -1.104805,0.177898 -2.375549,0.257449 -4.865664,0.304641 -11.667942,2.135286 -15.866769,4.270093 -1.009385,0.51319 -1.858653,0.845716 -1.887268,0.738933 -0.02847,-0.106824 0.880584,-0.856215 2.02045,-1.665372 4.473534,-3.175694 9.82032,-4.631863 15.286646,-4.16323 2.322389,0.1991 2.958883,0.325865 2.822483,0.562115 z m 6.438386,8.817033 c 2.694186,2.42244 4.264342,4.977045 5.195865,8.453563 0.970251,3.621017 0.841403,6.612733 -0.447322,10.386491 -0.891106,2.609413 -1.137011,3.035337 -2.951279,5.111766 -2.62627,3.005769 -5.146695,4.607825 -8.806221,5.597511 -3.609802,0.976236 -6.515029,0.84597 -10.351388,-0.464135 -2.609664,-0.891189 -3.035472,-1.137031 -5.112099,-2.951466 -3.052764,-2.667334 -4.618187,-5.118204 -5.577645,-8.7325 -0.972672,-3.664086 -0.84546,-6.647866 0.444479,-10.425168 0.891104,-2.609416 1.137008,-3.03534 2.951279,-5.111765 2.623803,-3.002948 5.15029,-4.61039 8.771304,-5.580642 3.408225,-0.913227 6.48258,-0.849465 9.766125,0.202555 2.965132,0.950002 3.796951,1.427838 6.116917,3.513764 z M 54.971213,50.842955 c -1.212771,0.10628 -2.104544,1.502553 -1.720692,2.694147 0.873783,2.712528 4.824787,1.609182 4.087738,-1.141527 -0.319557,-1.192648 -1.045019,-1.668473 -2.367053,-1.552616 z"
       id="path1"
       sodipodi:nodetypes="scccssssssscsccssscsssssssssssccsssss" /><g
       id="g4"
       transform="matrix(0.9680429,0,0,0.9680429,2.2100803,3.2541193)"><path
         style="fill:#f5b112;fill-opacity:1;stroke-width:0.51362"
         d="m 49.586338,76.706637 c -0.852472,-0.930534 -0.973561,-2.183819 -0.330761,-3.423269 0.216363,-0.417196 0.41203,-0.799544 0.434809,-0.849667 0.02278,-0.05015 -0.404118,0.0546 -0.948675,0.23269 -1.875358,0.61337 -3.14411,0.821147 -4.983041,0.816033 -2.693419,-0.0076 -4.702411,-0.557975 -8.636881,-2.36662 -0.920598,-0.423189 -1.975104,-0.906875 -2.343341,-1.07485 -0.827937,-0.377675 -2.58757,-1.0058 -3.481537,-1.242788 -2.858959,-0.757902 -5.961104,-0.616611 -9.342736,0.42553 -0.425042,0.130979 -0.805699,0.204275 -0.845909,0.162862 -0.104628,-0.107768 0.575092,-1.451776 1.063318,-2.102493 0.61585,-0.820822 1.61658,-1.709769 2.527329,-2.24502 1.571729,-0.923713 4.376465,-1.377752 6.229762,-1.008493 0.313,0.06236 0.569098,0.06898 0.569098,0.01473 0,-0.05429 -0.173056,-0.34475 -0.384564,-0.645475 C 28.421376,62.416159 27.307854,61.66661 25.882332,61.224992 24.188789,60.700341 21.016986,60.320664 18.320999,60.319873 15.071651,60.318935 10.523158,59.989931 8.4746568,59.6077 7.725595,59.467937 6.0820184,59.016807 5.5956954,58.81749 3.6473497,58.018971 2.0100277,56.894245 1.0960982,55.726577 0.4530092,54.90493 -0.55455158,52.780264 -0.67224672,51.997626 c -0.0788133,-0.523893 -0.0766095,-0.527266 0.2152095,-0.31398 2.77096302,2.026411 4.21428472,2.698019 6.85616622,3.190295 1.9183946,0.357464 3.5166552,0.248656 5.690967,-0.387442 2.322796,-0.679538 4.005019,-1.703574 5.593762,-3.405153 0.587261,-0.628965 0.967786,-1.667769 0.965576,-2.635938 -0.0027,-1.0408 -0.171645,-1.598035 -0.783346,-2.578819 -0.942836,-1.511714 -2.934457,-2.96827 -5.031976,-3.680088 -0.836901,-0.284013 -2.541072,-0.622533 -3.1543028,-0.626577 l -0.468672,-0.0031 0.32157,-0.254633 c 0.4762618,-0.377136 1.8114768,-0.819306 3.0260568,-1.002121 1.46877,-0.221072 3.23099,-0.01014 7.833454,0.937179 2.025314,0.416914 4.375352,0.818134 5.222301,0.891597 3.23192,0.280334 5.847613,-0.286406 8.051838,-1.744581 0.488354,-0.323064 0.923847,-0.647268 0.967766,-0.720458 0.0496,-0.08261 -0.845726,-0.162195 -2.360868,-0.209869 -4.185028,-0.131682 -6.194015,-0.759926 -9.998001,-3.126544 -2.530148,-1.574111 -3.867069,-2.07393 -5.547366,-2.07393 -0.922779,0 -0.928077,-0.0022 -0.686568,-0.276994 0.275257,-0.313263 1.868495,-1.130443 2.677079,-1.373089 0.294594,-0.08842 1.318967,-0.193239 2.276389,-0.232969 1.52824,-0.0634 2.143519,-0.01174 5.039585,0.422972 4.227208,0.634574 6.767486,0.76165 8.690069,0.434714 1.307819,-0.222395 3.99173,-1.079361 6.690888,-2.136385 2.46495,-0.965303 4.720641,-1.598158 6.226593,-1.746928 1.190284,-0.117588 1.478557,-0.261803 0.787687,-0.394064 -0.285932,-0.05474 -1.179345,-0.288701 -1.985363,-0.519917 -1.342,-0.38497 -1.578951,-0.413221 -2.812008,-0.335279 -0.74059,0.04682 -1.527296,0.1231 -1.748238,0.169531 l -0.401712,0.08442 0.401712,-0.350239 c 0.477425,-0.416247 2.550741,-1.500791 3.444774,-1.801951 2.397744,-0.807688 4.486238,-1.171287 7.334593,-1.27693 10.184561,-0.377759 18.742954,4.24525 23.022629,12.436187 l 0.43235,0.827489 -0.573027,-0.689574 c -1.493056,-1.79669 -3.497871,-3.574297 -5.222717,-4.63078 -5.868734,-3.594633 -12.960262,-3.966792 -19.126417,-1.003737 -3.416406,1.641702 -6.826665,4.867897 -8.725925,8.254956 -2.588019,4.615369 -3.327601,10.07701 -2.064325,15.244577 1.556085,6.365311 6.552982,11.957185 12.659148,14.166455 4.836219,1.749794 9.965882,1.595592 14.717152,-0.442405 2.345076,-1.005889 4.330351,-2.402399 6.422796,-4.51799 0.702509,-0.710288 1.124974,-1.065887 0.94831,-0.798223 -3.232037,4.896911 -6.958124,7.809572 -11.442797,8.944777 -1.570146,0.397449 -2.638793,0.545565 -5.624019,0.779493 -3.161141,0.247713 -4.212566,0.455068 -5.49968,1.084623 -0.903091,0.44172 -2.026375,1.399022 -2.499911,2.130509 l -0.207272,0.320189 z"
         id="path7"
         sodipodi:nodetypes="sssssssssssssssscsssssssssssccssssscsssssssssssssscsssscsssssssscsssscs" /><ellipse
         style="fill:#0d2f6d;fill-opacity:1;stroke-width:1.31289"
         id="path6"
         cx="-59.264809"
         cy="-49.928802"
         rx="20.555216"
         ry="20.063856"
         transform="scale(-1)" /><path
         style="fill:#ffffff;fill-opacity:1;stroke-width:3.25699"
         d="m 63.20874,29.454009 c 6.606562,1.483677 11.558469,5.347116 14.495171,11.309044 1.693184,3.43734 2.151413,5.404953 2.151413,9.23793 0,4.547851 -1.17288,8.342963 -3.724571,12.051734 -5.093857,7.403626 -15.024961,10.717755 -23.552269,7.859664 -3.533974,-1.184483 -5.692906,-2.539927 -8.397128,-5.272021 -2.682691,-2.710302 -3.839805,-4.526546 -5.064403,-7.949124 -0.831447,-2.323839 -1.153552,-2.636949 -1.139025,-6.748192 0.01303,-3.873838 0.373726,-4.423003 1.04099,-6.422401 0.973222,-2.916475 2.412847,-5.298524 4.661025,-7.712442 2.49525,-2.679188 5.217057,-4.453069 8.626582,-5.622205 2.39956,-0.822827 3.18873,-0.961259 5.938548,-1.041724 2.097572,-0.0614 3.778086,0.04348 4.963667,0.309737 z m -9.746437,2.227931 c -3.20189,1.789577 -6.732085,6.884515 -7.528194,10.865068 L 45.762467,43.4057 47.52271,42.739043 c 0.968144,-0.366658 3.505638,-1.661673 5.638874,-2.877811 8.163015,-4.653635 11.158899,-5.841813 14.889953,-5.905394 1.978365,-0.03371 1.967,-0.06729 -0.444971,-1.315502 C 63.276582,30.399552 56.569935,29.945113 53.462399,31.68194 Z m -7.488523,3.945517 c -2.388584,2.094924 -4.458799,5.327986 -4.16391,6.502855 0.166434,0.663658 1.549974,1.415065 2.16838,1.177763 0.197049,-0.07562 0.525971,-0.803285 0.730903,-1.617022 0.496138,-1.970031 2.01706,-5.157088 3.201661,-6.709003 0.527146,-0.690596 0.958436,-1.32505 0.958436,-1.409903 0,-0.218185 -1.59075,0.911008 -2.89547,2.05531 z m 19.027383,0.138227 c -2.466624,0.667998 -4.837163,1.77829 -9.881831,4.628335 -5.144753,2.906606 -8.176724,4.347261 -9.176071,4.36007 -0.494867,0.0062 -0.608114,0.224342 -0.755949,1.455198 -0.09576,0.796255 -0.1749,1.788988 -0.176202,2.206073 l -0.0025,0.758341 H 61.692065 78.37548 v -0.703904 c 0,-1.268034 -0.878605,-4.638795 -1.662886,-6.379648 -1.510452,-3.352747 -3.400301,-5.572147 -5.325864,-6.254644 -1.460469,-0.517649 -4.604942,-0.552029 -6.38551,-0.06983 z m -24.902616,9.685268 c -0.161223,0.758335 -0.364818,1.906184 -0.452398,2.55077 l -0.159267,1.171979 h 2.071451 2.07145 v -0.926673 c 0,-0.509669 0.07655,-1.485848 0.170342,-2.169297 l 0.170341,-1.242626 -0.977914,-0.183467 c -0.53786,-0.100904 -1.265995,-0.417327 -1.618044,-0.703164 -0.749175,-0.608211 -0.853236,-0.485666 -1.275961,1.50247 z m 4.912464,6.135639 c 0.0013,0.417085 0.07947,1.399011 0.173273,2.182056 0.162524,1.353543 0.216916,1.432348 1.104317,1.598801 1.438192,0.26981 4.168795,1.578272 8.705988,4.171805 7.06355,4.037637 9.762983,5.07696 13.186445,5.07696 3.350382,0 5.117174,-1.021109 7.096478,-4.101389 0.523662,-0.814921 1.232552,-2.117882 1.57531,-2.895471 0.667782,-1.514909 1.522492,-4.932159 1.522492,-6.087199 V 50.828256 H 61.69189 45.008439 Z m -5.358543,0.413639 c 0.09118,0.644586 0.340714,1.895527 0.554797,2.779864 0.213985,0.884337 0.389211,1.668362 0.389211,1.742274 0,0.0739 0.361821,-0.123245 0.804055,-0.438165 0.442268,-0.31492 1.200107,-0.651749 1.684096,-0.748553 0.835745,-0.16715 0.871736,-0.226003 0.715628,-1.169722 -0.09054,-0.546546 -0.165783,-1.521112 -0.167409,-2.165698 l -0.0031,-1.171974 h -2.071449 -2.071451 z m 7.004891,7.594174 c 1.877757,4.869128 5.199537,8.530595 8.560205,9.435526 3.184855,0.857597 8.981889,0.09159 12.305004,-1.625961 2.505247,-1.294828 2.516874,-1.323974 0.541508,-1.357636 -3.612988,-0.06156 -6.802142,-1.29308 -14.093421,-5.442283 -5.067303,-2.883613 -7.950299,-4.163089 -8.080449,-3.586108 -0.04592,0.203758 0.299317,1.363161 0.767153,2.576462 z m -3.815314,-2.671893 c -1.723407,0.600784 -1.295307,2.481194 1.263554,5.549981 1.406893,1.687246 5.350725,4.955834 4.666138,3.867216 -0.07164,-0.113768 -0.681463,-1.027522 -1.355368,-2.030595 -1.087609,-1.618763 -2.959275,-6.026495 -2.959275,-6.968973 0,-0.760023 -0.363351,-0.853981 -1.615049,-0.417629 z"
         id="path5"
         sodipodi:nodetypes="sssssssccssssssccssssssscsssssssccscccssssssscccsccssscccssssssccccccssscscccscsssssssscss" /></g><path
       d="m 44.699271,15.997689 -2.805502,0.883942 -0.440467,-1.39798 0.563009,-0.177389 -0.665181,-2.16112 -0.07286,3.930415 -1.121246,0.353277 -2.26415,-3.057717 0.673809,2.022035 0.61072,-0.192424 0.440469,1.39798 -2.810273,0.885444 -0.440469,-1.397978 0.539153,-0.169874 -1.268788,-4.026943 -0.539153,0.169873 -0.440468,-1.397981 2.862755,-0.901981 2.25572,3.28066 -0.06094,-3.97218 2.834128,-0.8929624 0.440468,1.3979794 -0.543923,0.171376 1.268788,4.026945 0.543924,-0.171377 z m 5.268502,-0.795015 -4.873007,0.825628 -0.244847,-1.445133 0.562271,-0.09527 -0.708637,-4.182501 -0.56227,0.09526 -0.244846,-1.4451334 4.873006,-0.8256281 0.414486,2.4463695 -1.504319,0.254874 -0.169638,-1.0012354 -1.020964,0.1729814 0.202228,1.19359 1.624363,-0.265066 0.300835,1.775589 -1.624361,0.265068 0.205571,1.213319 1.020963,-0.17298 -0.175488,-1.035762 1.50432,-0.254874 z m 8.606799,-0.364871 -2.94041,0.07862 -0.03918,-1.465204 0.590081,-0.01578 -0.04543,-2.260715 -1.150561,3.758948 -1.175164,0.03142 -1.33631,-3.562342 0.09196,2.129362 0.640089,-0.01712 0.03918,1.465206 -2.94541,0.07875 -0.03918,-1.465205 0.565079,-0.01511 -0.112852,-4.2205894 -0.565078,0.01511 -0.03918,-1.4652043 3.000418,-0.080222 1.266917,3.7743777 1.033405,-3.8358842 2.970413,-0.079418 0.03918,1.4652028 -0.570079,0.01524 0.112852,4.2205884 0.570078,-0.01524 z m 3.308622,0.532701 -2.941316,-0.344912 0.171285,-1.460722 0.571375,0.06696 0.495228,-4.2231744 -0.571377,-0.06696 0.171869,-1.4656913 2.911507,0.3414152 q 0.70552,0.082719 1.20657,0.4487331 0.504855,0.376517 0.737126,0.972908 0.237239,0.5969724 0.151594,1.3273334 -0.088,0.750232 -0.455715,1.266194 -0.362776,0.516542 -0.934906,0.756692 -0.571549,0.235185 -1.282037,0.151871 l -0.536588,-0.06295 -0.08973,0.765139 0.566403,0.06641 z m 0.440942,-4.017998 q 0.298102,0.03499 0.457614,-0.122624 0.160088,-0.162553 0.195631,-0.465625 0.0379,-0.322945 -0.08465,-0.523677 -0.11756,-0.200146 -0.410696,-0.234525 l -0.536588,-0.06295 -0.157885,1.3464484 z m 7.860317,5.733729 -2.865755,-0.706112 0.351858,-1.428021 0.558578,0.137638 0.277658,-1.126874 -1.48145,-0.365024 -0.277657,1.126872 0.558577,0.137638 -0.351859,1.428021 -2.870613,-0.707309 0.351859,-1.42802 0.553723,0.136434 1.01369,-4.114061 -0.553722,-0.136434 0.351858,-1.4280204 2.870613,0.707309 -0.351858,1.4280224 -0.55858,-0.137638 -0.305182,1.23859 1.481449,0.365024 0.305184,-1.23859 -0.558579,-0.137638 0.35186,-1.4280204 2.865756,0.7061134 -0.35186,1.42802 -0.553724,-0.136434 -1.013688,4.114061 0.553723,0.136434 z m 3.098451,1.181601 -2.770961,-0.986902 0.490097,-1.376054 0.537228,0.19134 1.418255,-3.982075 -0.537226,-0.19134 0.490096,-1.376052 2.77096,0.986899 -0.490097,1.376055 -0.537225,-0.191341 -1.418256,3.982076 0.537226,0.19134 z m 2.338017,1.160392 q -0.982044,-0.450723 -1.349816,-1.208463 -0.363224,-0.755656 0.0027,-1.661005 l -0.149219,-0.178568 0.31948,-0.75606 1.561757,0.650734 -0.289893,0.703589 q -0.06019,0.14301 -0.0591,0.308635 0.0031,0.161061 0.115986,0.322938 0.112848,0.161877 0.399277,0.293337 0.286429,0.131463 0.465303,0.125494 0.180963,-0.01051 0.281053,-0.09668 0.1001,-0.08617 0.141823,-0.177095 l 0.01244,-0.0273 q 0.0417,-0.09095 0.03137,-0.200266 -0.0038,-0.111801 -0.103313,-0.278596 -0.09503,-0.16471 -0.31566,-0.403572 -0.951877,-0.888221 -1.213739,-1.624876 -0.257317,-0.734567 0.137063,-1.593856 0.283784,-0.618326 0.779631,-0.919155 0.502475,-0.30329 1.106924,-0.301082 0.606535,-0.0023 1.215765,0.277276 0.827462,0.379778 1.159014,1.192448 0.333639,0.808126 -0.0086,1.685822 l 0.138412,0.190123 -0.248534,0.601479 q -0.743911,-0.357944 -1.477018,-0.727433 l 0.116116,-0.27696 q 0.117445,-0.30387 0.0046,-0.597815 -0.110694,-0.298493 -0.397123,-0.429954 -0.386452,-0.177368 -0.628674,-0.05737 -0.0489,0.01059 -0.101056,0.124248 -0.03754,0.08185 -0.02793,0.168815 0.0064,0.05799 0.131558,0.253028 0.13178,0.192582 0.43402,0.52945 0.851329,0.759509 1.087405,1.528362 0.242709,0.766395 -0.160014,1.643869 -0.273355,0.595591 -0.733198,0.901935 -0.457758,0.301798 -1.032467,0.318743 -0.57471,0.01695 -1.203466,-0.24411 z"
       id="text3"
       style="font-size:10.5833px;line-height:1;font-family:'Ranked Sports';-inkscape-font-specification:'Ranked Sports';text-align:center;letter-spacing:0px;text-anchor:middle;fill:#01dbff;stroke-width:1.50918"
       aria-label="MEMPHIS" /><path
       d="m 23.678435,86.994212 -2.435937,-2.559094 2.187905,-3.728712 -0.579966,-0.622005 -1.16207,1.106143 0.683027,0.717565 -1.854237,1.764995 -3.554159,-3.733871 1.854228,-1.764992 0.689074,0.723912 5.365846,-5.107603 -0.689071,-0.723913 1.860583,-1.77104 3.554165,3.733867 q 0.888542,0.933467 1.154602,1.963205 0.278455,1.030045 -0.04377,2.026672 -0.315874,0.990585 -1.204892,1.836816 -0.723913,0.689073 -1.593438,0.99629 -0.863479,0.313568 -1.748929,0.26073 l -1.335934,2.373077 0.707207,0.742965 z m 2.152854,-8.343174 q 0.350582,0.368307 0.703981,0.37082 0.309864,0.0076 0.665472,-0.330851 0.381009,-0.36267 0.427665,-0.745986 0.0527,-0.376966 -0.303918,-0.751623 l -0.683029,-0.717564 -1.511328,1.438591 z m 5.390062,13.430972 q -0.849772,-0.474213 -1.451927,-1.302192 -0.59023,-0.831362 -0.802693,-1.94386 -0.20481,-1.108224 0.0796,-2.445431 0.272301,-1.243562 0.903843,-2.447278 0.623741,-1.11772 1.528073,-2.018614 0.908604,-0.908552 2.04209,-1.410499 1.065302,-0.469716 2.114262,-0.40641 1.056613,0.06757 1.944665,0.563149 0.88805,0.495576 1.503738,1.371265 0.627619,0.872305 0.814453,2.030737 0.180782,1.205254 -0.111101,2.447925 -0.287613,1.235017 -0.911351,2.352737 -0.662191,1.186616 -1.591268,2.113863 -1.00741,0.923692 -2.081085,1.318459 -1.066019,0.399039 -2.098778,0.324695 -1.032759,-0.07434 -1.882532,-0.548559 z m 1.565231,-2.750854 q 0.237325,0.132432 0.506337,0.172099 0.276663,0.04394 0.546729,-0.02621 0.71567,-0.203004 1.25239,-0.78698 0.54865,-0.58736 0.945964,-1.299332 0.350321,-0.62776 0.619985,-1.380847 0.277322,-0.748814 0.186656,-1.431911 -0.09067,-0.683095 -0.768458,-1.141656 -0.74099,-0.363305 -1.333278,-0.111533 -0.584636,0.256045 -1.050678,0.839308 -0.458387,0.587532 -0.816364,1.211019 -0.286242,0.512925 -0.522269,1.043828 -0.236032,0.530903 -0.326436,1.052716 -0.09041,0.521813 0.03639,1.014236 0.225424,0.567548 0.72304,0.84524 z m 12.43423,8.003218 q -0.717338,-0.166592 -1.331261,-0.507186 -0.60737,-0.33006 -1.085104,-0.79202 -1.020425,-0.993008 -1.356696,-2.529152 -0.227283,-0.997815 -0.136894,-2.200864 l 0.281505,-1.599679 q 0,0 0.172986,-0.589847 0.172986,-0.589847 0.322044,-0.96024 0.359364,-0.888576 0.883415,-1.594897 0.972288,-1.241244 2.260336,-1.788138 1.343859,-0.515932 2.85539,-0.164894 1.050383,0.24394 1.934058,0.818173 0.887642,0.557157 1.526207,1.605487 0.135092,0.193382 0.08947,0.389794 l -0.803219,3.458584 -2.450897,-0.569195 0.126088,-1.356763 q 0.03574,-0.657721 -0.540664,-1.043595 0.01582,-0.06834 -0.03084,-0.06114 -0.201593,-0.10082 -0.432154,-0.154394 -0.29035,-0.06744 -0.593978,-0.03894 -0.301642,0.01995 -0.582403,0.143751 -0.536509,0.217413 -0.881665,0.812276 l -0.199489,0.277683 q -0.151612,0.342802 -0.328571,0.949727 -0.16644,0.600367 -0.16644,0.600367 0,0 -0.119157,0.629347 -0.110616,0.631334 -0.119649,0.980247 l 0.03687,0.422576 q 0.103482,0.717055 0.456319,1.21301 0.41399,0.465158 1.037389,0.609934 0.307428,0.07141 0.660311,0.06335 0.4607,-0.046 0.663716,-0.493881 l 0.474839,-1.230768 2.450896,0.569196 -0.783385,3.373183 q -0.03174,0.136639 -0.106771,0.227213 -0.07305,0.08204 -0.157235,0.134493 -0.746361,0.384685 -1.782141,0.504148 -1.056217,0.168718 -2.243235,-0.106954 z m 19.338661,0.353402 -5.475324,0.374716 -0.175387,-2.56273 0.612257,-0.0419 -1.222013,-1.805679 -0.740031,0.999695 0.06405,0.935878 0.909637,-0.06225 0.175389,2.562732 -5.064237,0.346582 -0.175387,-2.562732 0.997104,-0.06824 -0.506407,-7.399558 -0.997104,0.06824 -0.175386,-2.562731 5.064236,-0.346585 0.175385,2.562732 -0.909638,0.06225 0.138276,2.020448 1.497324,-2.132384 -0.3761,0.02575 -0.175386,-2.56273 5.510309,-0.377111 0.175386,2.562731 -1.469416,0.100564 -2.11371,3.141191 2.917498,4.238014 1.163286,-0.07961 z m 12.790918,-4.459432 -8.06012,3.171884 -0.940649,-2.390298 0.930014,-0.365987 -2.722428,-6.917998 -0.930013,0.365988 -0.940652,-2.3903 8.060119,-3.171884 1.592365,4.046375 -2.488195,0.979176 -0.651715,-1.656078 -1.688707,0.664556 0.776917,1.974239 2.690408,-1.039908 1.155749,2.936885 -2.690408,1.039908 0.789761,2.006872 1.688709,-0.664555 -0.674188,-1.713183 2.488197,-0.979174 z m 11.861046,-8.289795 -2.808465,2.143658 -3.469095,-2.579836 -0.681302,0.508998 0.973423,1.275308 0.787485,-0.601077 1.553222,2.034918 -4.097709,3.127723 -1.553222,-2.034919 0.794455,-0.606394 -4.494771,-5.888715 -0.794454,0.606395 -1.558543,-2.041886 4.097711,-3.127722 q 1.024426,-0.78193 2.076966,-0.934606 1.054188,-0.164964 2.009936,0.263573 0.950432,0.421564 1.695125,1.397212 0.606396,0.794454 0.817378,1.692197 0.217953,0.892424 0.06929,1.766901 l 2.213989,1.58571 0.81536,-0.622354 z m -8.060086,-3.046042 q 0.404197,-0.308517 0.445068,-0.659554 0.04125,-0.307202 -0.256638,-0.697462 -0.319154,-0.418134 -0.695137,-0.506137 -0.369014,-0.09332 -0.780179,0.220512 l -0.787486,0.601077 1.265983,1.658595 z m 13.674547,-3.503556 q -1.131179,1.518687 -2.564294,1.872358 -1.427879,0.346642 -2.846048,-0.611283 l -0.360572,0.190558 -1.179263,-0.823702 1.685715,-2.439308 1.100126,0.75383 q 0.223197,0.155316 0.507444,0.213985 0.277216,0.05344 0.595891,-0.08088 0.318675,-0.134312 0.648601,-0.577264 0.329929,-0.442951 0.385015,-0.751732 0.04805,-0.31402 -0.06308,-0.517045 -0.111133,-0.20303 -0.251757,-0.307767 l -0.04218,-0.03142 q -0.140622,-0.104736 -0.331812,-0.126903 -0.192988,-0.03443 -0.515254,0.07535 -0.317025,0.102749 -0.807015,0.393684 -1.870064,1.307217 -3.228344,1.487082 -1.353056,0.172806 -2.681908,-0.816976 -0.956212,-0.712224 -1.290783,-1.671982 -0.336364,-0.972029 -0.111848,-2.00728 0.217483,-1.040489 0.919233,-1.982637 0.953123,-1.279637 2.467168,-1.551167 1.507011,-0.276767 2.886438,0.630437 l 0.376418,-0.167837 0.94021,0.645646 q -0.885188,1.144398 -1.786232,2.266054 l -0.432338,-0.300155 q -0.477959,-0.312278 -1.022984,-0.22631 -0.552057,0.08073 -0.881983,0.523682 -0.445141,0.597632 -0.327895,1.056635 2.98e-4,0.08768 0.176068,0.218593 0.12655,0.09427 0.279151,0.109549 0.101729,0.01017 0.481744,-0.133103 0.378221,-0.155553 1.066001,-0.550591 1.612729,-1.181873 3.016797,-1.30575 1.402274,-0.136147 2.759251,0.87458 0.921056,0.68604 1.278224,1.586108 0.35014,0.894828 0.16931,1.886103 -0.180825,0.991273 -0.857894,1.973669 z"
       id="text4"
       style="font-size:18.5475px;line-height:1;font-family:'Ranked Sports';-inkscape-font-specification:'Ranked Sports';text-align:center;letter-spacing:4.27302px;text-anchor:middle;fill:#01dbff;stroke-width:2.64488"
       aria-label="ROCKERS" /></g></svg>
