<?xml version="1.0" encoding="UTF-8" standalone="no"?>
<!-- Created with Inkscape (http://www.inkscape.org/) -->

<svg
   width="105.83334mm"
   height="105.83334mm"
   viewBox="0 0 105.83333 105.83333"
   version="1.1"
   id="svg1"
   xml:space="preserve"
   inkscape:version="1.4 (e7c3feb100, 2024-10-09)"
   sodipodi:docname="memphis.svg"
   inkscape:export-filename="../pngs/NBL.png"
   inkscape:export-xdpi="96"
   inkscape:export-ydpi="96"
   xmlns:inkscape="http://www.inkscape.org/namespaces/inkscape"
   xmlns:sodipodi="http://sodipodi.sourceforge.net/DTD/sodipodi-0.dtd"
   xmlns="http://www.w3.org/2000/svg"
   xmlns:svg="http://www.w3.org/2000/svg"><sodipodi:namedview
     id="namedview1"
     pagecolor="#ffffff"
     bordercolor="#000000"
     borderopacity="0.25"
     inkscape:showpageshadow="2"
     inkscape:pageopacity="0.0"
     inkscape:pagecheckerboard="0"
     inkscape:deskcolor="#d1d1d1"
     inkscape:document-units="mm"
     inkscape:zoom="1.1980835"
     inkscape:cx="355.15053"
     inkscape:cy="98.490628"
     inkscape:window-width="1920"
     inkscape:window-height="1011"
     inkscape:window-x="0"
     inkscape:window-y="32"
     inkscape:window-maximized="1"
     inkscape:current-layer="layer1"
     showgrid="false" /><defs
     id="defs1" /><g
     inkscape:label="Capa 1"
     inkscape:groupmode="layer"
     id="layer1"><g
       id="g6"
       transform="matrix(0.94985371,-0.25451254,0.25451254,0.94985371,-8.9733119,16.894998)"><ellipse
         style="fill:#5d76a9;fill-opacity:1;stroke-width:1.236"
         id="path4"
         cx="70.072166"
         cy="6.6575961"
         rx="31.057896"
         ry="23.488508"
         transform="rotate(18.296698)" /><ellipse
         style="fill:#5d76a9;fill-opacity:1;stroke-width:1.236"
         id="path4-6"
         cx="71.231209"
         cy="48.819756"
         rx="31.057896"
         ry="23.488508"
         transform="rotate(27.799772)" /><path
         style="fill:#0d2f6d;fill-opacity:1;stroke-width:4.50866"
         d="m 43.93374,1.446749 c 18.054095,-2.7930902 35.089167,3.0169984 46.897426,15.995151 6.236147,6.853933 9.207084,12.27714 11.629044,21.227673 1.12509,4.157082 1.66237,6.899826 1.8226,9.300714 1.5064,22.571173 -11.088522,43.093259 -31.710737,51.669266 -4.873777,2.026817 -7.589952,2.754617 -12.824179,3.436227 C 46.081866,104.85539 32.072899,101.05854 21.311878,92.658479 17.347208,89.563647 11.396269,82.877794 8.9307107,78.748344 -0.43931172,63.054801 -0.8797394,43.643131 7.7715565,27.66162 12.892671,18.201416 21.49178,10.044347 30.990931,5.6358412 34.139872,4.1744389 41.316371,1.8516744 43.93374,1.446749 Z m 14.600912,3.7534289 c 11.712445,2.6954019 22.799534,9.1577651 32.501279,18.9441051 2.981391,3.007525 2.736048,2.330584 -0.746862,-2.060036 C 82.729354,12.55437 70.946724,6.0222425 58.586162,4.5085907 53.971888,3.9435317 53.956758,4.1466595 58.534634,5.2001814 Z M 55.514445,8.53129 c 0.02234,0.08293 1.421202,0.4921166 3.108769,0.9089985 10.485404,2.5902145 22.383552,9.7166065 29.943244,17.9344885 2.099279,2.282087 2.105692,1.884501 0.0153,-0.950812 C 81.406755,16.692056 71.153773,10.525241 59.129047,8.7091832 56.112094,8.2535413 55.431014,8.2200252 55.514421,8.5312992 Z m -1.329511,3.887652 c 0.01891,0.06991 1.638936,0.600529 3.600374,1.17887 11.131491,3.282164 20.305795,8.531602 26.921209,15.404035 2.782121,2.890195 2.150546,1.676346 -1.19514,-2.297022 C 76.629323,18.531635 67.881309,13.843251 56.988354,12.490162 54.68761,12.20437 54.123598,12.190039 54.184934,12.418942 Z m -0.08092,3.999804 c 0.106764,0.06086 2.047656,0.722174 4.312881,1.469723 9.579454,3.161329 17.564219,7.788922 23.057013,13.362752 2.136556,2.16781 1.01755,0.39625 -1.7077,-2.704023 C 73.730951,21.681345 66.383827,17.899666 56.480589,16.561726 54.171596,16.249778 53.763935,16.225252 54.104011,16.418746 Z m 2.933566,5.031441 c 6.703113,2.15541 14.27724,6.431178 19.551195,11.037103 1.67893,1.466283 3.026581,2.568831 2.994769,2.450112 C 79.378699,34.172915 76.20537,30.497038 74.135941,28.627075 69.648407,24.572104 63.076067,21.49191 57.264388,20.72009 c -3.321973,-0.441177 -3.37169,-0.281141 -0.22681,0.730088 z m -2.236616,3.630747 c 7.714175,2.725368 15.017079,6.629959 18.917811,10.114641 1.25828,1.12407 2.332567,1.966189 2.387322,1.87136 0.05468,-0.09485 -0.824422,-1.258518 -1.953656,-2.586052 -4.60353,-5.411761 -10.762645,-8.845843 -17.403873,-9.703719 -2.699043,-0.348652 -3.458802,-0.230156 -1.947586,0.303733 z m -0.988657,3.646235 c 0.01962,0.07253 1.072673,0.480895 2.340464,0.907114 4.854345,1.63203 11.258865,5.339031 14.938974,8.64682 0.88469,0.79517 1.65603,1.363489 1.714098,1.262916 0.05793,-0.100654 -0.660732,-1.108218 -1.59735,-2.239181 -3.67585,-4.438663 -8.705302,-7.369955 -14.37938,-8.380659 -2.410654,-0.429401 -3.090968,-0.473828 -3.016796,-0.19702 z m -8.930248,7.196099 c -3.392411,1.725527 -5.680207,3.890771 -7.570641,7.165113 -1.969019,3.410436 -2.651686,6.481152 -2.370058,10.660759 0.194736,2.890043 0.328452,3.389085 1.60483,5.989307 1.847638,3.763993 3.969525,6.074865 7.413752,8.074074 3.397428,1.972042 6.380769,2.629756 10.62971,2.343453 2.890321,-0.194752 3.389228,-0.328435 5.989696,-1.604929 3.822843,-1.876527 6.077633,-3.937798 8.033872,-7.344348 1.983185,-3.453479 2.665355,-6.515697 2.383458,-10.699231 -0.194733,-2.890045 -0.328448,-3.389087 -1.604829,-5.989306 -1.845901,-3.760459 -3.972477,-6.078444 -7.382908,-8.047464 -3.21002,-1.8533 -6.346894,-2.624479 -9.964727,-2.449752 -3.267003,0.157783 -4.240964,0.416481 -7.162162,1.902294 z m 9.040826,14.193454 c 1.201699,0.437578 1.726949,2.096834 1.013477,3.201576 -1.624126,2.514822 -5.333212,0.321033 -3.837448,-2.269707 0.648519,-1.123293 1.514014,-1.408867 2.823977,-0.931863 z m -19.19334,16.835025 c 3.722623,4.495146 8.767498,7.407806 14.521717,8.384121 1.447761,0.245638 2.681755,0.360935 2.742217,0.256209 0.06057,-0.104569 -0.919356,-0.537228 -2.177351,-0.961142 -5.014707,-1.689806 -11.197178,-5.264457 -14.96984,-8.655439 -0.884691,-0.795171 -1.65603,-1.363489 -1.714099,-1.262917 -0.05795,0.100687 0.660733,1.108217 1.597356,2.239168 z m -2.943946,2.823936 c 4.697228,5.521905 11.233284,9.085465 17.908815,9.764164 1.143748,0.116286 2.120648,0.140208 2.170898,0.05317 0.05014,-0.08714 -1.723557,-0.819804 -3.941798,-1.628369 -4.986742,-1.817706 -12.675911,-6.173372 -15.713459,-8.90117 -1.25322,-1.125431 -2.323369,-1.96866 -2.378127,-1.873833 -0.05468,0.09485 0.824426,1.258521 1.953655,2.586051 z m -3.941778,1.651229 c 4.732694,6.254643 13.169781,11.135695 20.920447,12.102974 3.315049,0.413717 3.335463,0.305267 0.136182,-0.723497 -6.703541,-2.155552 -14.612969,-6.631702 -19.573191,-11.076973 -1.541266,-1.381227 -2.842471,-2.459642 -2.891577,-2.396463 -0.04914,0.06314 0.58452,1.00548 1.408155,2.093927 z m -4.398683,0.962271 c 0.944329,1.506137 5.002352,5.886805 6.809579,7.351048 5.596136,4.534022 13.109189,7.546741 20.188916,8.095709 2.010874,0.155927 2.035986,0.168536 -2.922514,-1.467823 -5.44318,-1.796311 -9.566035,-3.686664 -14.311946,-6.562103 -3.639985,-2.205392 -8.488944,-6.114016 -9.451513,-7.618648 -0.231652,-0.362042 -0.504067,-0.636055 -0.60556,-0.608813 -0.101392,0.02716 0.03045,0.391979 0.292992,0.81068 z m -3.026077,2.735454 c 6.178246,8.351634 14.657494,13.910711 24.269291,15.911176 2.81382,0.585627 6.815114,1.060697 6.951036,0.82528 0.0468,-0.08123 -1.310556,-0.540685 -3.016473,-1.021167 -4.486689,-1.263712 -10.722951,-3.796373 -14.784932,-6.004455 -4.140003,-2.250479 -9.888547,-6.642532 -12.629056,-9.648954 -1.064977,-1.168328 -1.973738,-2.05944 -2.019304,-1.980413 -0.04588,0.07903 0.50763,0.942426 1.22957,1.9184 z m -3.07124,2.602401 c 6.579352,9.182549 16.803232,15.613608 27.891267,17.544248 3.282737,0.571591 5.704618,0.808079 5.198856,0.50765 -0.129149,-0.07687 -1.719384,-0.550889 -3.533619,-1.053585 -7.110824,-1.970285 -14.65232,-5.646859 -20.783562,-10.13225 -3.735634,-2.732857 -8.659511,-7.212159 -9.677988,-8.804172 -0.267789,-0.418523 -0.541248,-0.66672 -0.607704,-0.551595 -0.0666,0.11506 0.614243,1.235543 1.512818,2.489629 z m -2.815963,3.04117 c 8.230841,10.851392 20.503617,17.801193 33.737752,19.104943 3.739283,0.368369 3.563564,0.202689 -0.86636,-0.816637 -10.024216,-2.306889 -20.105759,-7.658956 -28.43267,-15.094278 -1.685149,-1.504704 -3.809909,-3.547975 -4.721722,-4.540575 -0.911819,-0.9926 -1.701569,-1.728986 -1.754982,-1.63645 -0.05356,0.09247 0.863596,1.434977 2.037861,2.983117 z"
         id="path1" /></g><path
       style="fill:#f5b112;fill-opacity:1;stroke-width:0.481277"
       d="m 47.845958,75.870502 c -0.798792,-0.871938 -0.912256,-2.046304 -0.309933,-3.207706 0.202738,-0.390926 0.386084,-0.749197 0.407429,-0.796164 0.02135,-0.04699 -0.378671,0.05116 -0.888937,0.218038 -1.757267,0.574746 -2.946126,0.769439 -4.66926,0.764647 -2.523815,-0.0071 -4.406301,-0.522839 -8.093018,-2.217594 -0.862628,-0.396541 -1.850732,-0.849769 -2.195781,-1.007167 -0.775802,-0.353893 -2.424631,-0.942465 -3.262305,-1.16453 -2.678931,-0.710177 -5.585735,-0.577783 -8.754426,0.398735 -0.398277,0.122731 -0.754964,0.191411 -0.792642,0.152606 -0.09804,-0.100982 0.538878,-1.360358 0.996361,-1.970099 0.57707,-0.769135 1.514784,-1.602105 2.368183,-2.103652 1.472758,-0.865547 4.10088,-1.290995 5.837475,-0.944988 0.293291,0.05843 0.533262,0.06464 0.533262,0.0138 0,-0.05087 -0.162158,-0.323042 -0.360348,-0.60483 C 28.01375,62.479893 26.970346,61.777543 25.634589,61.363734 24.047688,60.87212 21.075613,60.516351 18.549392,60.51561 15.504655,60.514731 11.24258,60.206444 9.323072,59.848282 8.6211785,59.71732 7.0810976,59.294598 6.6253983,59.107832 4.7997396,58.359595 3.2655195,57.305693 2.40914,56.211553 1.8065462,55.441645 0.86243133,53.450769 0.75214743,52.717413 0.67829699,52.22651 0.68036204,52.223349 0.95380523,52.423205 3.5502812,54.322013 4.9027172,54.95133 7.3782398,55.412607 c 1.7975936,0.334955 3.2952122,0.232998 5.3326082,-0.363045 2.17653,-0.636747 3.752823,-1.5963 5.241524,-3.190731 0.550281,-0.589359 0.906844,-1.56275 0.904773,-2.469953 -0.0025,-0.975261 -0.160836,-1.497407 -0.734018,-2.416431 -0.883466,-1.416522 -2.749675,-2.781359 -4.715114,-3.448354 -0.784201,-0.266129 -2.381061,-0.583332 -2.955677,-0.587121 l -0.43916,-0.0029 0.301321,-0.238598 c 0.446272,-0.353388 1.697409,-0.767715 2.835507,-0.939018 1.376282,-0.207151 3.027535,-0.0095 7.340183,0.878165 1.89778,0.390661 4.099836,0.766616 4.893453,0.835453 3.028407,0.262682 5.47939,-0.268371 7.544815,-1.634725 0.457603,-0.30272 0.865673,-0.606509 0.906826,-0.675091 0.04648,-0.07741 -0.792471,-0.151981 -2.212204,-0.196653 -3.921498,-0.12339 -5.803979,-0.712074 -9.368429,-2.929666 -2.370825,-1.47499 -3.62356,-1.943335 -5.198049,-1.943335 -0.864672,0 -0.869636,-0.0021 -0.643335,-0.259552 0.257924,-0.293537 1.750836,-1.059259 2.508504,-1.286626 0.276043,-0.08285 1.235912,-0.181071 2.133045,-0.218299 1.432007,-0.05941 2.008542,-0.011 4.722243,0.396338 3.961021,0.594615 6.341339,0.713689 8.142857,0.40734 1.225466,-0.208391 3.740371,-1.011394 6.269564,-2.001857 2.309732,-0.904518 4.423383,-1.497523 5.834505,-1.636925 1.115332,-0.110183 1.385453,-0.245317 0.738087,-0.369249 -0.267927,-0.05129 -1.105082,-0.270522 -1.860345,-0.487178 -1.257495,-0.360729 -1.479525,-0.387201 -2.634937,-0.314167 -0.693955,0.04387 -1.431122,0.115349 -1.638151,0.158856 l -0.376417,0.0791 0.376417,-0.328184 c 0.447361,-0.390036 2.390121,-1.406287 3.227857,-1.688483 2.246758,-0.756828 4.20374,-1.097531 6.872735,-1.196522 9.543241,-0.353971 17.562713,3.977928 21.572898,11.653083 l 0.405125,0.775382 -0.536944,-0.646152 c -1.399038,-1.683554 -3.277611,-3.349226 -4.893843,-4.339182 -5.499181,-3.36828 -12.144157,-3.717004 -17.92203,-0.940532 -3.201276,1.538324 -6.396791,4.561366 -8.176455,7.735143 -2.425052,4.32474 -3.118063,9.442462 -1.934335,14.284628 1.458099,5.964489 6.140342,11.204243 11.862004,13.274396 4.531683,1.63961 9.338332,1.495118 13.790415,-0.414547 2.197407,-0.942548 4.05767,-2.25112 6.018354,-4.233493 0.658272,-0.665561 1.054134,-0.998768 0.888595,-0.747959 -3.028516,4.588554 -6.519972,7.317805 -10.722246,8.381526 -1.471274,0.372422 -2.472629,0.511211 -5.269876,0.730409 -2.962084,0.232114 -3.947301,0.426412 -5.153366,1.016324 -0.846223,0.413905 -1.898774,1.310926 -2.342492,1.996351 l -0.19422,0.300027 z"
       id="path7"
       sodipodi:nodetypes="sssssssssssssssscsssssssssssccssssscsssssssssssssscsssscsssssssscsssscs" /><ellipse
       style="fill:#0d2f6d;fill-opacity:1;stroke-width:1.23022"
       id="path6"
       cx="-56.914974"
       cy="-50.778862"
       rx="19.260857"
       ry="18.800438"
       transform="scale(-1)" /><path
       style="fill:#ffffff;fill-opacity:1;stroke-width:3.0519"
       d="m 60.610559,31.593364 c 6.190548,1.39025 10.830635,5.010409 13.582413,10.596915 1.586564,3.220892 2.015939,5.064604 2.015939,8.65622 0,4.261473 -1.099024,7.817608 -3.490036,11.292838 -4.773097,6.937421 -14.078841,10.04286 -22.069186,7.364742 -3.31144,-1.109896 -5.334425,-2.379988 -7.868362,-4.940043 -2.513763,-2.539634 -3.598014,-4.24151 -4.745499,-7.448569 -0.779091,-2.177507 -1.080913,-2.4709 -1.067301,-6.323259 0.01221,-3.629903 0.350193,-4.144487 0.975439,-6.017984 0.911939,-2.732825 2.260911,-4.964876 4.367521,-7.22679 2.338125,-2.51048 4.88854,-4.17266 8.083368,-5.268176 2.24846,-0.771014 2.987936,-0.900729 5.564599,-0.976127 1.965488,-0.05753 3.54018,0.04074 4.651105,0.290233 z m -9.132705,2.087639 c -3.000268,1.676887 -6.308167,6.450998 -7.054145,10.180896 l -0.160834,0.80462 1.649401,-0.624677 c 0.90718,-0.34357 3.284889,-1.557038 5.283795,-2.696596 7.648991,-4.360596 10.456225,-5.473955 13.952335,-5.533532 1.853788,-0.03159 1.843139,-0.06305 -0.416951,-1.232665 -4.057326,-2.099683 -10.341656,-2.525506 -13.253511,-0.898046 z m -7.016972,3.697068 c -2.238175,1.963007 -4.178029,4.992484 -3.901709,6.093371 0.155953,0.621868 1.452372,1.325959 2.031837,1.1036 0.184641,-0.07086 0.492851,-0.752702 0.684878,-1.515199 0.464897,-1.845978 1.890046,-4.832347 3.000053,-6.286538 0.493952,-0.647109 0.898084,-1.241612 0.898084,-1.321121 0,-0.204446 -1.490581,0.853642 -2.713143,1.925887 z m 17.829232,0.129523 c -2.311301,0.625934 -4.532568,1.666311 -9.259574,4.336889 -4.820789,2.723578 -7.661837,4.073515 -8.598255,4.085518 -0.463706,0.0058 -0.569821,0.210215 -0.708347,1.363564 -0.08973,0.746115 -0.163887,1.676336 -0.165107,2.067157 l -0.0023,0.710588 h 15.6329 15.632864 v -0.659579 c 0,-1.188186 -0.82328,-4.346691 -1.558175,-5.977923 -1.415381,-3.141625 -3.186227,-5.221269 -4.990537,-5.86079 -1.368504,-0.485052 -4.31497,-0.517268 -5.983416,-0.06543 z m -23.334503,9.075388 c -0.15107,0.710583 -0.341845,1.786152 -0.42391,2.390149 l -0.149238,1.098179 h 1.941012 1.941011 v -0.86832 c 0,-0.477575 0.07173,-1.392285 0.159616,-2.032697 l 0.159614,-1.164378 -0.916335,-0.171914 c -0.503991,-0.09455 -1.186275,-0.391048 -1.516156,-0.658886 -0.701999,-0.569912 -0.799508,-0.455084 -1.195614,1.40786 z m 4.603127,5.749279 c 0.0012,0.390821 0.07447,1.310916 0.162362,2.044652 0.15229,1.268311 0.203257,1.342154 1.034779,1.498125 1.347629,0.25282 3.906286,1.478889 8.157773,3.909107 6.61876,3.783388 9.14821,4.757265 12.356097,4.757265 3.139409,0 4.794946,-0.95681 6.649614,-3.843125 0.490687,-0.763606 1.154938,-1.98452 1.476113,-2.713144 0.625732,-1.419515 1.426621,-4.621582 1.426621,-5.703889 V 51.621678 H 59.189225 43.556328 Z m -5.021116,0.387592 c 0.08544,0.603997 0.319259,1.776166 0.519861,2.604817 0.200511,0.82865 0.364703,1.563305 0.364703,1.632563 0,0.06925 0.339037,-0.115484 0.753424,-0.410574 0.414418,-0.295089 1.124536,-0.610708 1.578048,-0.701417 0.783119,-0.156624 0.816843,-0.211771 0.670565,-1.096064 -0.08484,-0.51213 -0.155343,-1.425328 -0.156867,-2.029325 l -0.0029,-1.098175 h -1.94101 -1.941012 z m 6.563794,7.11597 c 1.759515,4.56252 4.872123,7.993425 8.02117,8.841373 2.984306,0.803594 8.416301,0.08582 11.53016,-1.523575 2.347492,-1.213292 2.358387,-1.240603 0.50741,-1.272145 -3.385479,-0.05768 -6.373813,-1.211655 -13.205961,-5.099584 -4.748216,-2.702032 -7.44967,-3.90094 -7.571624,-3.360291 -0.04303,0.190927 0.280469,1.277323 0.718845,2.414222 z m -3.575064,-2.503644 c -1.614885,0.562953 -1.213742,2.324954 1.183988,5.2005 1.318301,1.581 5.013791,4.643766 4.372312,3.623698 -0.06713,-0.106604 -0.638551,-0.962819 -1.270021,-1.902729 -1.019122,-1.51683 -2.77293,-5.647008 -2.77293,-6.530138 0,-0.712164 -0.34047,-0.800206 -1.513349,-0.391331 z"
       id="path5"
       sodipodi:nodetypes="sssssssccssssssccssssssscsssssssccscccssssssscccsccssscccssssssccccccssscscccscsssssssscss" /></g></svg>
