<?xml version="1.0" encoding="UTF-8" standalone="no"?>
<!-- Created with Inkscape (http://www.inkscape.org/) -->

<svg
   width="105.83334mm"
   height="105.83334mm"
   viewBox="0 0 105.83333 105.83333"
   version="1.1"
   id="svg1"
   xml:space="preserve"
   inkscape:version="1.4 (e7c3feb100, 2024-10-09)"
   sodipodi:docname="miami.svg"
   inkscape:export-filename="../pngs/NBL.png"
   inkscape:export-xdpi="96"
   inkscape:export-ydpi="96"
   xmlns:inkscape="http://www.inkscape.org/namespaces/inkscape"
   xmlns:sodipodi="http://sodipodi.sourceforge.net/DTD/sodipodi-0.dtd"
   xmlns="http://www.w3.org/2000/svg"
   xmlns:svg="http://www.w3.org/2000/svg"><sodipodi:namedview
     id="namedview1"
     pagecolor="#ffffff"
     bordercolor="#000000"
     borderopacity="0.25"
     inkscape:showpageshadow="2"
     inkscape:pageopacity="0.0"
     inkscape:pagecheckerboard="0"
     inkscape:deskcolor="#d1d1d1"
     inkscape:document-units="mm"
     inkscape:zoom="1.0104721"
     inkscape:cx="170.71228"
     inkscape:cy="259.28473"
     inkscape:window-width="1920"
     inkscape:window-height="1011"
     inkscape:window-x="0"
     inkscape:window-y="32"
     inkscape:window-maximized="1"
     inkscape:current-layer="layer1"
     showgrid="false"
     showguides="false" /><defs
     id="defs1" /><g
     inkscape:label="Capa 1"
     inkscape:groupmode="layer"
     id="layer1"><g
       id="g24"
       transform="translate(-2.4918821,1.2099876)"><circle
         style="fill:#41b6e6;fill-opacity:1;stroke-width:11.3524"
         id="path1"
         cx="54.126659"
         cy="51.706684"
         r="49.708237" /><g
         id="g16"
         transform="translate(1.2721727,-0.64121848)"><path
           id="path62"
           style="fill:#db3eb1;fill-opacity:1;stroke-width:7.5255"
           d="M 9.4571211,41.437093 C 11.078282,35.570445 13.327086,30.916663 16.810118,26.220464 l 3.015918,-4.066323 5.078697,5.022074 c 2.793294,2.762132 6.093984,6.392516 7.334896,8.067518 2.570498,3.469713 5.272279,10.534784 5.292247,13.839229 0.01318,2.116321 -0.09209,2.224471 -2.057321,2.119801 -1.138935,-0.06028 -7.733549,-0.132544 -14.654684,-0.159702 L 8.2360134,50.99044 8.2744723,48.28253 C 8.2954603,46.793166 8.8278205,43.710868 9.457263,41.433072 Z M 26.20298,16.845355 C 32.708428,12.026788 42.458891,8.3048407 48.57696,8.3048407 h 2.348639 l 2.84e-4,21.5040733 3.16e-4,21.50408 L 46.30649,51.18511 C 43.765666,51.117159 41.511217,51.042725 41.296655,51.02539 41.082024,51.008596 40.721854,49.423466 40.4962,47.503271 39.562997,39.563116 36.17519,33.657564 27.800112,25.371633 l -5.612097,-5.552308 z m 32.3721,-8.3509649 c 2.279826,0.1912412 6.515606,1.212533 9.412846,2.2698689 5.265988,1.921841 13.972408,7.146276 14.589642,8.75468 0.190181,0.495944 -2.175011,3.354567 -5.651302,6.830807 -7.109107,7.109104 -10.407754,12.848205 -11.548423,20.092385 l -0.716823,4.552329 -4.319078,0.09543 c -2.375503,0.05264 -4.62067,0.124075 -4.989316,0.15972 -0.454659,0.0453 -0.710758,-6.877155 -0.796443,-21.519282 L 54.429942,8.1473191 Z M 69.150263,44.001164 c 1.394525,-5.189365 3.659397,-8.575455 10.342958,-15.463151 4.776482,-4.922419 6.209542,-6.064107 6.896437,-5.494039 2.060133,1.709772 6.81865,9.860015 8.589059,14.711108 1.057388,2.897241 2.079102,7.133034 2.270553,9.412811 l 0.348061,4.145101 -14.734224,-0.182023 -14.73424,-0.182025 0.04213,-1.729357 c 0.02364,-0.951138 0.4638,-3.299316 0.979495,-5.21824 z" /><path
           style="fill:#db3eb1;fill-opacity:1;stroke-width:2.85619"
           d="M 8.4291723,55.36068 C 8.4272382,54.712117 8.3549648,53.954055 8.2686225,53.6761 L 8.1116397,53.170727 H 52.532664 96.95368 v 1.684579 1.684581 H 52.69321 8.4327269 Z"
           id="path15" /><path
           style="fill:#db3eb1;fill-opacity:1;stroke-width:2.8978"
           d="M 9.3898422,61.962676 C 9.3260686,61.86694 9.1931914,61.320408 9.094635,60.748179 8.996048,60.175952 8.8574857,59.525692 8.7867015,59.303161 8.6644974,58.918967 10.876565,58.898554 52.632564,58.898554 h 43.974555 l -0.288135,1.560623 -0.288135,1.56062 -43.262398,0.05847 C 28.97415,62.110431 9.4538805,62.05833 9.3900875,61.962671 Z"
           id="path14" /><path
           style="opacity:0.9;fill:#db3eb1;fill-opacity:1;stroke-width:3.07507"
           d="m 11.669731,68.092261 c -0.388189,-0.07574 -0.697569,-0.548044 -1.110229,-1.694931 -0.314638,-0.874473 -0.530997,-1.631025 -0.480793,-1.681229 0.05022,-0.05022 19.248546,-0.06163 42.66299,-0.02553 l 42.571677,0.06587 -0.507017,1.562134 c -0.27891,0.859175 -0.642044,1.648618 -0.807082,1.754323 -0.30351,0.194407 -81.334568,0.213349 -82.329546,0.01938 z"
           id="path13" /><path
           style="opacity:0.8;fill:#db3eb1;fill-opacity:1;stroke-width:3.07507"
           d="m 13.968654,73.567529 c -0.32063,-0.129606 -1.630591,-2.519111 -1.630591,-2.974357 0,-0.144033 16.033588,-0.238965 40.355147,-0.238965 26.120332,0 40.355132,0.08979 40.355132,0.254586 0,0.140037 -0.317285,0.901563 -0.705114,1.692312 l -0.705114,1.437727 -38.673689,-0.0206 c -21.270533,-0.0113 -38.81863,-0.07916 -38.995771,-0.150733 z"
           id="path12" /><path
           style="opacity:0.7;fill:#db3eb1;fill-opacity:1;stroke-width:3.07507"
           d="m 16.395392,77.900294 c -0.513182,-0.714314 -0.933057,-1.415641 -0.933057,-1.558506 0,-0.171559 12.641448,-0.259751 37.230875,-0.259751 20.476967,0 37.230864,0.09958 37.230864,0.221281 0,0.277403 -1.546238,2.445178 -1.929269,2.704744 -0.155906,0.105773 -16.119847,0.192008 -35.475047,0.19164 L 17.328455,79.19905 Z"
           id="path11" /><path
           style="opacity:0.6;fill:#db3eb1;fill-opacity:1;stroke-width:3.07507"
           d="m 21.710872,84.059792 c -0.357988,-0.328643 -0.995,-0.969321 -1.415579,-1.42373 l -0.764687,-0.8262 h 32.983716 c 18.141032,0 32.983712,0.09391 32.983712,0.208705 0,0.114801 -0.535032,0.759166 -1.188945,1.431958 l -1.188944,1.22326 -30.379185,-0.0083 -30.3792,-0.0083 z"
           id="path10" /><path
           style="opacity:0.5;fill:#db3eb1;fill-opacity:1;stroke-width:3.07507"
           d="m 27.633964,88.962539 c -0.96657,-0.635911 -1.7574,-1.21665 -1.7574,-1.290526 0,-0.07389 12.008911,-0.134323 26.686467,-0.134323 14.677552,0 26.683972,0.08788 26.680899,0.195268 -0.0063,0.26304 -2.008358,1.677625 -2.94607,2.082843 -0.584386,0.252528 -5.923166,0.322927 -23.829808,0.314196 l -23.076685,-0.0113 z"
           id="path9" /><path
           style="opacity:0.4;fill:#db3eb1;fill-opacity:1;stroke-width:3.07507"
           d="m 48.136984,96.492717 c -2.923675,-0.42109 -5.788633,-0.950786 -6.718999,-1.242259 -5.154965,-1.614994 -5.02176,-1.561337 -4.346121,-1.750652 0.990841,-0.277647 31.76339,-0.274788 31.76339,0.003 0,0.130474 -1.025136,0.547895 -2.278104,0.927591 -1.252966,0.3797 -2.571001,0.796314 -2.929002,0.925813 -1.730865,0.626118 -5.680082,1.084608 -10.023708,1.163711 -2.577507,0.04695 -5.037869,0.03472 -5.467456,-0.02706 z"
           id="path8" /></g><g
         id="g23"
         transform="matrix(1.0499993,0,0,1.0499993,0.0161712,17.077916)"><text
           xml:space="preserve"
           style="font-style:normal;font-variant:normal;font-weight:normal;font-stretch:normal;font-size:27.9691px;line-height:1;font-family:'The Augusta';-inkscape-font-specification:'The Augusta';text-align:center;letter-spacing:0px;writing-mode:lr-tb;direction:ltr;text-anchor:middle;opacity:1;fill:#ffffff;fill-opacity:1;stroke:#ffffff;stroke-width:3;stroke-linecap:butt;stroke-linejoin:miter;stroke-miterlimit:4;stroke-dasharray:none;stroke-dashoffset:0;stroke-opacity:1"
           x="83.243958"
           y="69.078484"
           id="text23"
           transform="matrix(1,-0.16469679,-0.46691343,1.0768991,0,0)"><tspan
             sodipodi:role="line"
             id="tspan23"
             style="stroke:#ffffff;stroke-width:3;stroke-dasharray:none"
             x="83.243958"
             y="69.078484">Sunsets</tspan></text><text
           xml:space="preserve"
           style="font-style:normal;font-variant:normal;font-weight:normal;font-stretch:normal;font-size:27.9691px;line-height:1;font-family:'The Augusta';-inkscape-font-specification:'The Augusta';text-align:center;letter-spacing:0px;writing-mode:lr-tb;direction:ltr;text-anchor:middle;fill:#000000;fill-opacity:1;stroke:none;stroke-width:20.2568;stroke-linecap:butt;stroke-linejoin:miter;stroke-miterlimit:4;stroke-dasharray:none;stroke-dashoffset:0;stroke-opacity:1"
           x="83.243965"
           y="69.078491"
           id="text23-8"
           transform="matrix(1,-0.16469679,-0.46691345,1.0768991,0,0)"><tspan
             sodipodi:role="line"
             id="tspan23-1"
             style="fill:#000000;stroke:none;stroke-width:20.2566"
             x="83.243965"
             y="69.078491">Sunsets</tspan></text></g></g><g
       id="g25"
       transform="translate(-3.4039368,7.3534926)"><text
         xml:space="preserve"
         style="font-style:normal;font-variant:normal;font-weight:normal;font-stretch:normal;font-size:10.5833px;line-height:1;font-family:'The Augusta';-inkscape-font-specification:'The Augusta';text-align:center;letter-spacing:0px;writing-mode:lr-tb;direction:ltr;text-anchor:middle;opacity:1;fill:#ffffff;fill-opacity:1;stroke:#ffffff;stroke-width:1.7;stroke-linecap:butt;stroke-linejoin:miter;stroke-miterlimit:4;stroke-dasharray:none;stroke-dashoffset:0;stroke-opacity:1"
         x="69.843826"
         y="50.906784"
         id="text24"><tspan
           sodipodi:role="line"
           id="tspan24"
           style="font-style:normal;font-variant:normal;font-weight:normal;font-stretch:normal;font-family:'Ranked Sports';-inkscape-font-specification:'Ranked Sports';fill:#ffffff;stroke-width:1.7;stroke-dasharray:none"
           x="69.843826"
           y="50.906784">Miami</tspan></text><text
         xml:space="preserve"
         style="font-style:normal;font-variant:normal;font-weight:normal;font-stretch:normal;font-size:10.5833px;line-height:1;font-family:'The Augusta';-inkscape-font-specification:'The Augusta';text-align:center;letter-spacing:0px;writing-mode:lr-tb;direction:ltr;text-anchor:middle;fill:#000000;fill-opacity:1;stroke:none;stroke-width:3;stroke-linecap:butt;stroke-linejoin:miter;stroke-miterlimit:4;stroke-dasharray:none;stroke-dashoffset:0;stroke-opacity:1"
         x="69.843826"
         y="50.906784"
         id="text24-9"><tspan
           sodipodi:role="line"
           id="tspan24-0"
           style="font-style:normal;font-variant:normal;font-weight:normal;font-stretch:normal;font-family:'Ranked Sports';-inkscape-font-specification:'Ranked Sports';stroke:none;stroke-width:3"
           x="69.843826"
           y="50.906784">Miami</tspan></text></g></g></svg>
