<?xml version="1.0" encoding="UTF-8" standalone="no"?>
<!-- Created with Inkscape (http://www.inkscape.org/) -->

<svg
   width="105.83334mm"
   height="105.83334mm"
   viewBox="0 0 105.83333 105.83333"
   version="1.1"
   id="svg1"
   xml:space="preserve"
   inkscape:version="1.4 (e7c3feb100, 2024-10-09)"
   sodipodi:docname="millwaukee.svg"
   inkscape:export-filename="../pngs/indiana.png"
   inkscape:export-xdpi="96"
   inkscape:export-ydpi="96"
   xmlns:inkscape="http://www.inkscape.org/namespaces/inkscape"
   xmlns:sodipodi="http://sodipodi.sourceforge.net/DTD/sodipodi-0.dtd"
   xmlns="http://www.w3.org/2000/svg"
   xmlns:svg="http://www.w3.org/2000/svg"><sodipodi:namedview
     id="namedview1"
     pagecolor="#ffffff"
     bordercolor="#000000"
     borderopacity="0.25"
     inkscape:showpageshadow="2"
     inkscape:pageopacity="0.0"
     inkscape:pagecheckerboard="0"
     inkscape:deskcolor="#d1d1d1"
     inkscape:document-units="mm"
     inkscape:zoom="0.95482953"
     inkscape:cx="34.561143"
     inkscape:cy="216.79262"
     inkscape:window-width="1920"
     inkscape:window-height="1011"
     inkscape:window-x="0"
     inkscape:window-y="32"
     inkscape:window-maximized="1"
     inkscape:current-layer="layer1"
     showgrid="false"
     showguides="true" /><defs
     id="defs1"><filter
       id="mask-powermask-path-effect61_inverse"
       inkscape:label="filtermask-powermask-path-effect61"
       style="color-interpolation-filters:sRGB"
       height="100"
       width="100"
       x="-50"
       y="-50"><feColorMatrix
         id="mask-powermask-path-effect61_primitive1"
         values="1"
         type="saturate"
         result="fbSourceGraphic" /><feColorMatrix
         id="mask-powermask-path-effect61_primitive2"
         values="-1 0 0 0 1 0 -1 0 0 1 0 0 -1 0 1 0 0 0 1 0 "
         in="fbSourceGraphic" /></filter><clipPath
       clipPathUnits="userSpaceOnUse"
       id="clipPath61"><path
         style="fill:none;fill-opacity:1;stroke:#1a1a1a;stroke-width:0.3;stroke-dasharray:none;stroke-opacity:1"
         d="m 19.343363,137.48906 1.575839,2.57864 -1.432581,4.72752 -0.859548,2.14887 -0.573032,3.58145 2.005613,2.43539 62.460506,-10.02807 2.148872,-6.30335 2.721904,-5.87358 -26.932515,3.72471 -6.446612,0.85955 -0.143256,-3.86797 -5.730322,0.71629 -1.146067,2.57864 -4.154482,1.43258 -3.867967,2.14888 -7.019645,0.14326 -1.432581,-2.57865 z"
         id="path61" /></clipPath></defs><g
     inkscape:label="Capa 1"
     inkscape:groupmode="layer"
     id="layer1"><circle
       id="path78"
       style="fill:#ffffff;stroke:#0077c0;stroke-width:0.264583"
       cx="44.890209"
       cy="140.48973"
       r="0.62635636" /><g
       id="g81"
       transform="translate(0.5173384,0.67905333)"><g
         id="g80"
         transform="matrix(1.0386862,0,0,1.0386862,-3.8979586,-0.02025735)"><circle
           style="fill:#ffffff;fill-opacity:1;stroke:none;stroke-width:10.007;stroke-dasharray:none;stroke-opacity:1"
           id="path77"
           cx="53.31673"
           cy="54.425133"
           r="45.674263" /><g
           id="g79"
           transform="matrix(0.94116028,0,0,0.94116028,110.48407,21.392488)"><g
             id="g77"
             transform="matrix(-1,0,0,1,-4.849172,-23.830606)"><path
               id="path73"
               style="fill:#eee1c6;fill-opacity:1;stroke-width:1.41049"
               d="m 68.555429,97.159487 c -0.657951,-1.973129 -0.765534,-6.181128 -0.225749,-8.830117 0.413091,-2.027242 1.387957,-5.119675 2.743221,-8.701973 2.407779,-6.364337 2.729626,-9.621274 1.24124,-12.560733 l -0.553611,-1.093346 -0.252465,1.247378 c -0.323381,1.597746 -0.899435,2.739998 -1.991687,3.949298 l -0.87196,0.965398 0.122403,-0.846571 c 0.16735,-1.15752 -0.253079,-3.846447 -0.871161,-5.571647 -2.154055,-6.012436 -8.500311,-11.409326 -14.553187,-12.376109 -0.604074,-0.09648 -1.114897,-0.160429 -1.135165,-0.142099 -0.02027,0.01832 0.292795,0.697424 0.695692,1.509098 0.649505,1.308493 0.741809,1.687695 0.814311,3.345407 0.127452,2.913987 -0.679679,4.90443 -2.729647,6.731535 -0.803516,0.716162 -1.543077,1.145927 -2.645192,1.537142 -8.651308,3.070926 -17.246826,7.494242 -21.362823,10.993464 -1.250203,1.062861 -1.373165,1.120555 -2.16255,1.014676 -0.460337,-0.06174 -0.836977,-0.183609 -0.836977,-0.270811 0,-0.394299 2.89628,-2.903623 4.777546,-4.139242 1.43688,-0.943746 1.358775,-1.06364 -0.365639,-0.561277 -1.526946,0.444838 -3.501208,1.553648 -4.863228,2.731348 -0.635474,0.549477 -1.239598,0.947016 -1.3425,0.88342 -0.202325,-0.125042 -0.707376,-1.596143 -0.932851,-2.717172 l -0.139822,-0.695186 -0.456585,0.530804 c -0.251109,0.291943 -0.499765,0.650038 -0.55256,0.795768 -0.145209,0.400864 -0.801568,-0.05776 -0.966779,-0.675548 -0.154139,-0.576321 0.235651,-1.881548 0.700802,-2.346695 0.280745,-0.280748 0.359225,-0.265973 0.803346,0.15126 l 0.49221,0.462404 0.417193,-0.817764 c 0.745634,-1.461563 0.35391,-3.55354 -0.913817,-4.880224 l -0.502629,-0.525999 1.329165,-1.877903 c 0.731044,-1.032848 2.517686,-3.783484 3.970316,-6.112528 5.163011,-8.278003 6.998905,-10.738038 9.766307,-13.08652 1.797344,-1.525268 3.523788,-2.427984 5.024167,-2.627015 l 1.055764,-0.140048 v 0.698823 c 0,0.443343 0.147089,0.831939 0.402335,1.062933 0.3909,0.35376 0.402335,0.351366 0.402335,-0.08422 0,-0.860484 1.020887,-3.480346 1.796623,-4.610605 1.543704,-2.249198 4.032256,-4.231342 6.691513,-5.329826 0.697668,-0.288192 2.184981,-0.880605 3.30514,-1.316476 2.134224,-0.830457 3.434717,-1.54586 4.333288,-2.38375 l 0.536083,-0.499879 0.148953,1.17794 c 0.190411,1.505797 -0.173265,4.071345 -0.845181,5.962319 -1.540443,4.335281 -5.205318,8.353256 -8.798446,9.646148 l -1.032365,0.37147 1.726643,-0.07085 c 1.559978,-0.06401 1.899787,-0.155974 3.520431,-0.952723 1.489309,-0.732179 2.10111,-1.192251 3.604298,-2.710419 1.236309,-1.248629 2.081657,-2.320753 2.665469,-3.380523 0.470229,-0.853586 0.854962,-1.642476 0.854962,-1.753091 0,-0.54148 4.623928,0.119864 7.845533,1.122108 8.872448,2.760246 17.265803,9.75479 20.734993,17.279359 l 0.646753,1.402762 -0.126381,2.721172 c -0.183674,3.956111 -0.838663,6.697996 -2.500166,10.46612 -0.945397,2.144053 -2.993431,5.836417 -3.234131,5.830762 -0.0725,-0.0017 -0.450103,-0.605698 -0.839159,-1.342211 -0.389056,-0.736511 -0.796419,-1.366284 -0.905252,-1.39949 -0.108891,-0.0332 -0.494999,0.704129 -0.858131,1.638525 -0.846111,2.177173 -2.358634,4.841298 -4.590388,8.085401 -4.207623,6.11623 -5.628287,8.361604 -6.835105,10.802938 -0.705236,1.426661 -1.324336,2.467695 -1.37578,2.313417 z M 31.378044,70.555268 c 2.228852,-1.111859 5.077773,-2.128406 7.096234,-2.532065 1.77152,-0.354274 1.830854,-0.381321 0.871211,-0.397121 -1.368964,-0.02255 -4.11582,0.468673 -6.042943,1.080647 -0.858123,0.272506 -1.564108,0.476495 -1.568853,0.453309 -0.112754,-0.550897 -1.160228,-2.113025 -1.701006,-2.536773 -1.618901,-1.26855 -4.814604,-1.83869 -6.354323,-1.133664 -0.593715,0.271857 -0.583928,0.276636 0.603501,0.294642 2.720303,0.04125 5.33094,2.360223 5.33094,4.735349 0,0.390801 0.09279,0.710547 0.20619,0.710547 0.113403,0 0.814977,-0.303691 1.559049,-0.674871 z m 8.10334,-12.120589 c 1.118057,-0.654707 1.497793,-1.356999 1.494244,-2.76348 -0.0025,-1.00076 -0.101242,-1.382722 -0.502918,-1.945944 l -0.499779,-0.700774 -0.132149,1.336109 c -0.207811,2.101168 -0.853153,3.019123 -2.457439,3.495545 -0.552128,0.163965 -1.558552,0.298118 -2.236496,0.298118 -0.812077,0 -1.365856,0.106506 -1.62312,0.312167 -0.385056,0.307821 -0.38489,0.310665 0.01185,0.204355 0.221285,-0.0593 0.673912,-0.02075 1.005839,0.08566 1.013877,0.325021 4.188587,0.11824 4.939973,-0.321749 z m -7.208037,-0.931485 c 0.655013,0.07904 0.87048,-0.0159 1.709925,-0.753286 1.38008,-1.212308 1.873133,-2.216671 1.088185,-2.216671 -0.206363,0 -0.613727,0.187621 -0.905254,0.416936 -0.726474,0.571446 -0.669381,0.155684 0.08176,-0.595468 0.587735,-0.587736 1.890802,-1.121783 2.228255,-0.913225 0.08915,0.0551 0.075,0.329165 -0.03141,0.609056 -0.319514,0.840387 -0.225953,0.934706 0.460314,0.464035 0.965069,-0.661881 1.760216,-1.431854 1.760216,-1.704488 0,-0.335692 -0.976554,-0.702984 -1.974951,-0.742796 -0.928996,-0.03705 -1.06269,-0.217804 -0.416774,-0.563488 0.432346,-0.231384 1.603961,-0.178329 2.240849,0.101466 0.512161,0.225008 0.433517,-0.154378 -0.153734,-0.741628 -0.921418,-0.92142 -2.475109,-0.87974 -3.939816,0.105688 -0.376298,0.253166 -1.160338,1.135981 -1.742312,1.96181 -1.703044,2.416645 -2.242415,3.010263 -2.735174,3.010263 -0.24823,0 -0.559958,-0.108636 -0.692727,-0.241401 -0.187758,-0.187756 -0.240791,-0.154229 -0.238656,0.150876 0.0088,1.248373 0.902123,2.013845 1.992915,1.707585 0.285414,-0.08013 0.856187,-0.105011 1.268384,-0.05527 z M 46.373684,42.71894 c 0.302313,-0.570373 2.26308,-2.267426 2.619775,-2.267426 0.193266,0 0.162121,1.006125 -0.05454,1.761543 -0.102919,0.358856 -0.116705,0.652467 -0.03062,0.652467 0.243921,0 2.31056,-2.23842 2.734419,-2.961706 0.214452,-0.365951 0.690967,-0.773272 1.094165,-0.935286 0.666112,-0.267662 0.718621,-0.261071 0.778899,0.09776 0.03554,0.21162 -0.07336,0.855518 -0.242023,1.430877 -0.168662,0.575363 -0.257107,1.094674 -0.196544,1.154026 0.189358,0.185565 2.157737,-2.074043 2.73103,-3.135095 0.657261,-1.216461 1.163333,-3.061865 1.163333,-4.242122 v -0.862653 l -0.962418,0.691429 c -0.891154,0.640228 -1.798495,1.098592 -6.513251,3.290304 -1.978361,0.919666 -3.218985,2.023135 -3.831564,3.407973 -0.526816,1.190954 -0.685592,2.991462 -0.352433,3.99655 l 0.259778,0.783708 0.228867,-1.106423 c 0.125873,-0.60853 0.38378,-1.398696 0.573118,-1.755922 z" /><path
               style="fill:#00471b;fill-opacity:1;stroke-width:1.31194"
               d="m 66.026138,103.89643 c -1.765494,-0.46298 -3.603008,-1.31428 -5.021118,-2.32622 -1.656373,-1.18197 -3.995534,-3.728025 -5.246391,-5.710431 -0.589869,-0.934848 -1.150968,-1.699724 -1.246885,-1.699724 -0.09592,0 -0.509658,-0.221866 -0.919425,-0.493037 -2.136815,-1.414076 -3.536434,-5.266503 -3.303349,-9.092412 0.105939,-1.738881 0.08526,-1.883132 -0.424162,-2.96032 -0.808703,-1.710006 -1.06633,-3.830254 -0.77966,-6.416569 0.127272,-1.148282 0.279798,-2.374742 0.338937,-2.725469 l 0.107527,-0.637685 -1.628797,0.125199 c -2.879617,0.221345 -7.134633,1.29093 -11.239545,2.82529 -2.351204,0.878847 -6.766803,2.990394 -8.237979,3.939415 -1.246307,0.803964 -1.930703,0.883836 -3.159632,0.368743 -0.600009,-0.251488 -0.809938,-0.265303 -1.162693,-0.07651 -1.27654,0.683184 -5.277031,-2.454828 -7.234815,-5.675039 -0.39032,-0.642007 -0.758538,-1.36167 -0.818264,-1.599252 -0.220649,-0.877722 1.16322,-3.153647 6.336184,-10.420541 0.73258,-1.029117 2.467503,-3.639332 3.855384,-5.800478 2.982774,-4.644645 4.349632,-6.60423 5.951844,-8.532817 l 1.181811,-1.422555 -0.788381,-0.235753 c -4.642319,-1.388208 -6.903985,-6.132796 -5.019291,-10.529609 0.588043,-1.371846 2.373696,-2.999667 1.887377,-1.720551 -0.275185,0.723793 -0.219187,2.526559 0.10834,3.487803 0.402301,1.180687 1.400774,2.278693 2.610222,2.870421 0.900617,0.44063 1.190841,0.490383 2.474418,0.424183 2.052554,-0.105861 3.296962,-0.734526 5.110641,-2.581859 3.383921,-3.446715 4.155708,-8.188202 1.788634,-10.988502 -0.753992,-0.89199 -2.460954,-1.850122 -4.143186,-2.325605 -1.18768,-0.335699 -1.981401,-0.422379 -3.921528,-0.428258 -3.055103,-0.0093 -4.60131,0.328008 -7.858713,1.714176 -5.489757,2.33613 -8.555228,3.069748 -11.295246,2.703136 C 12.24696,27.677104 10.769069,26.969311 9.1955732,25.497385 7.1524257,23.58612 5.8237294,21.250985 5.5831401,19.148664 l -0.098711,-0.862608 0.4631211,0.724057 c 2.3172478,3.622853 6.1277528,4.732223 12.0089208,3.496213 1.788389,-0.375855 5.636189,-1.560907 6.49456,-2.000205 1.187833,-0.607911 1.421186,-2.432474 0.547173,-4.2783 -1.026209,-2.167248 -3.800391,-4.146564 -6.90319,-4.925268 -0.744661,-0.186886 -1.399301,-0.385164 -1.454754,-0.440617 -0.24873,-0.24873 2.26313,-0.573696 3.700408,-0.478731 4.222054,0.278964 8.24906,2.758159 9.806239,6.037133 0.360243,0.758571 0.772822,1.477014 0.91684,1.596539 0.276087,0.229132 1.214941,0.291157 3.317921,0.219199 l 1.273529,-0.04358 0.404547,-0.888784 C 36.636786,16.03596 36.62173,12.945127 36.027614,10.708006 35.290996,7.9342948 33.76811,5.3097493 32.153082,4.0306222 31.176951,3.2575127 29.353542,2.3497073 28.437966,2.1810072 27.729025,2.050377 27.716948,2.036578 28.157298,1.8601847 28.410378,1.7588109 29.45945,1.6677279 30.488567,1.65779 c 2.329839,-0.0225 4.024218,0.4777899 5.964334,1.7610562 4.300214,2.8443208 6.636759,7.9081238 6.659965,14.4335918 0.0051,1.450719 0.04534,1.637179 0.375351,1.741922 0.203267,0.06451 0.881107,0.458886 1.506313,0.876383 0.625207,0.417497 1.167286,0.728238 1.20462,0.690537 0.194439,-0.196353 1.262569,-3.141657 1.631231,-4.498026 0.344431,-1.267219 0.422303,-2.029708 0.417098,-4.084127 -0.0058,-2.300324 -0.05328,-2.6513994 -0.531074,-3.9293563 C 47.008974,6.7576212 45.787016,4.9631209 44.27952,3.602551 43.592439,2.982435 43.120894,2.4750674 43.231643,2.4750674 c 0.578775,0 3.200399,0.7984746 3.790572,1.1545044 4.00876,2.4183343 6.199517,7.2081642 6.200232,13.5560722 4.04e-4,3.575144 -0.639765,6.577106 -1.971024,9.242769 l -0.608884,1.21921 0.100914,2.847251 0.100915,2.847251 0.487493,-0.117825 c 0.898695,-0.217207 3.206532,-1.153412 4.023496,-1.632184 0.845932,-0.495749 2.019855,-1.581282 2.496156,-2.308209 0.153526,-0.234311 0.33864,-0.42602 0.411363,-0.42602 0.264373,0 1.67659,2.745824 2.056057,3.997668 0.214159,0.706498 0.443035,1.982596 0.508615,2.835773 l 0.119242,1.551232 1.517431,0.2181 c 5.701229,0.819436 10.580218,2.625717 15.083068,5.583997 4.369445,2.870635 8.085518,6.563528 11.881039,11.80693 l 0.734161,1.014223 0.07617,2.288036 c 0.299674,9.001508 -3.896365,19.681477 -10.313143,26.24953 l -1.161999,1.189392 -0.09356,-1.749963 -0.09355,-1.749963 -0.562998,0.841239 c -0.309649,0.46268 -1.31464,1.851644 -2.233314,3.086584 -5.108321,6.866937 -6.889974,10.834913 -7.876399,17.541775 -0.117892,0.80152 -0.104051,0.79906 -1.877557,0.33398 z m -0.641145,-2.69379 c 0,-0.0372 -0.262546,-0.6467 -0.583435,-1.354411 -1.070227,-2.360334 -1.515222,-4.518057 -1.539686,-7.465739 -0.02489,-2.998704 0.09408,-3.655822 1.405929,-7.765156 0.939578,-2.943217 2.026978,-6.914969 2.026978,-7.403578 0,-0.434571 -0.218991,-0.311374 -1.403342,0.789468 -1.049634,0.975626 -2.713126,2.239976 -2.713126,2.062131 0,-0.0436 0.206435,-0.546051 0.458747,-1.116572 0.875865,-1.980485 1.114981,-3.238048 1.110212,-5.83885 -0.0043,-2.39206 -0.01552,-2.456101 -0.670382,-3.855969 C 61.74094,65.54311 59.44051,63.100039 56.644543,61.997972 l -0.93568,-0.368811 -0.111961,1.586585 c -0.126708,1.795525 -0.665876,3.708246 -2.010853,7.133647 -1.056798,2.691463 -1.586983,4.97037 -1.394746,5.995077 l 0.129187,0.688651 0.465999,-0.980473 c 0.433944,-0.913026 2.171064,-3.036272 2.484107,-3.036272 0.07658,0 -0.226056,1.076292 -0.672509,2.391758 -1.332768,3.926972 -1.68642,7.780817 -0.948047,10.331093 l 0.230419,0.795846 0.33394,-0.928654 c 0.183666,-0.51076 0.583073,-1.215903 0.88757,-1.566984 l 0.55363,-0.638331 -0.110465,0.935561 c -0.145164,1.229395 0.20767,4.319664 0.694319,6.081147 1.035825,3.749274 3.522627,7.482357 6.221226,9.339042 1.370574,0.942976 2.924319,1.711156 2.924319,1.445786 z m 3.271706,-9.381486 c 0.806159,-1.502114 4.735889,-7.453156 4.983518,-7.546859 0.09066,-0.03431 0.164826,-0.143169 0.164826,-0.24192 0,-0.09875 0.326401,-0.617987 0.725335,-1.153857 1.713524,-2.301704 4.288468,-7.06339 4.599504,-8.505577 0.07213,-0.334465 0.19823,-0.608116 0.280219,-0.608116 0.08198,0 0.457131,0.586247 0.833653,1.302771 0.376524,0.716523 0.751856,1.344344 0.834074,1.395158 0.08222,0.05081 0.619509,-0.724884 1.19398,-1.723772 2.778696,-4.831594 3.978058,-8.671331 4.205068,-13.462447 L 86.585413,58.98586 85.967528,57.627847 C 83.008667,51.124731 75.910394,44.869385 68.286662,42.046601 65.988615,41.195719 63.017545,40.509435 61.005041,40.364628 l -1.514082,-0.108943 -0.56008,1.161792 c -2.056023,4.264877 -6.101715,7.296094 -9.691333,7.261193 L 47.89,48.66555 48.834378,48.343169 c 3.586941,-1.224468 7.269893,-5.559451 8.526558,-10.036102 0.4098,-1.459841 0.624882,-4.935158 0.324064,-5.236241 -0.06707,-0.06713 -0.520336,0.182041 -1.007257,0.553717 -1.174042,0.896166 -1.56973,1.089659 -4.457898,2.179934 -3.391759,1.280378 -4.961757,2.20681 -6.777819,3.999486 -1.701628,1.679717 -2.711904,3.42732 -3.088813,5.343112 -0.120358,0.611743 -0.289108,1.112259 -0.375008,1.112259 -0.256842,0 -0.543576,-0.684418 -0.543576,-1.297484 0,-0.678658 -0.165605,-0.704935 -1.785032,-0.283239 -1.413453,0.368061 -2.256586,0.867021 -4.037456,2.389337 -2.402434,2.05364 -4.326804,4.66314 -9.113085,12.357605 -1.0622,1.707601 -2.558042,4.000017 -3.324094,5.094258 l -1.392822,1.989527 0.622726,0.689284 c 1.087055,1.203239 1.380379,3.435573 0.606599,4.61651 l -0.319856,0.488161 -0.417163,-0.391905 c -0.229441,-0.215548 -0.46802,-0.391905 -0.530179,-0.391905 -0.278823,0 -0.891983,1.324382 -0.891983,1.92662 0,0.975061 0.77973,1.665812 1.021284,0.904741 0.06102,-0.192253 0.267722,-0.491432 0.45934,-0.664845 0.33406,-0.30232 0.357998,-0.274459 0.581669,0.676994 0.194078,0.825571 0.617902,1.91514 0.847456,2.17864 0.03052,0.03502 0.626123,-0.42042 1.323583,-1.012094 1.359165,-1.153014 3.69938,-2.353884 5.187792,-2.662088 1.052022,-0.217843 1.040578,-0.203294 -0.813962,1.034716 -1.390329,0.928122 -4.116469,3.314067 -4.116469,3.602773 0,0.08247 0.357853,0.184476 0.795227,0.226688 0.733428,0.07079 0.884512,0.0011 1.944136,-0.896343 3.133334,-2.653846 9.298833,-6.101729 14.872812,-8.317203 1.067579,-0.424327 2.193654,-0.889595 2.502389,-1.03393 0.308736,-0.144335 1.192841,-0.476344 1.964679,-0.737797 1.821508,-0.61702 3.170223,-1.526497 4.083917,-2.753901 1.848387,-2.483018 2.033859,-6.017907 0.457182,-8.713408 -0.258553,-0.442022 -0.420276,-0.853499 -0.359385,-0.91439 0.06089,-0.06089 0.892077,0.07133 1.847078,0.293815 6.546194,1.525087 12.434087,7.622063 13.438194,13.915394 0.127377,0.798335 0.181484,1.874607 0.12024,2.391716 -0.132578,1.119413 -0.01869,1.084257 1.013411,-0.312864 0.962663,-1.30311 1.46848,-2.415737 1.477361,-3.249703 0.0038,-0.36019 0.07932,-0.769073 0.167751,-0.908627 0.243417,-0.384157 1.129241,1.566243 1.382284,3.043501 0.413201,2.412243 0.0094,4.16585 -2.739706,11.898542 -1.279778,3.59973 -1.745423,5.408396 -1.959837,7.612423 -0.14993,1.54118 -0.02877,4.375698 0.218466,5.111206 0.05189,0.154369 0.150256,0.532827 0.21859,0.84102 0.120161,0.541945 0.14135,0.520434 0.645117,-0.654893 0.286483,-0.668384 0.8372,-1.804647 1.223816,-2.525028 z M 30.581076,70.630696 c -0.003,-1.469451 -1.005875,-3.002221 -2.56046,-3.913268 -0.645785,-0.378455 -1.179194,-0.517211 -2.253257,-0.586141 -1.638977,-0.105178 -1.466864,-0.374287 0.378554,-0.591879 2.627008,-0.309748 5.155108,0.866406 6.029304,2.805027 0.277811,0.616074 0.426678,0.754413 0.734245,0.682323 0.212182,-0.04974 1.227789,-0.312856 2.256908,-0.584719 1.183473,-0.312637 2.558769,-0.524931 3.742244,-0.57766 l 1.871122,-0.08337 -1.823501,0.355655 c -2.001893,0.39045 -3.620559,0.954508 -6.296435,2.194126 -0.966966,0.447953 -1.830022,0.814462 -1.9179,0.814462 -0.08787,0 -0.16025,-0.231552 -0.160824,-0.514559 z M 35.39714,59.619143 C 35.3354,59.55739 34.981236,59.50688 34.610124,59.50688 c -0.55714,0 -0.636855,-0.04566 -0.457343,-0.261957 0.140841,-0.169704 0.601465,-0.261957 1.307957,-0.261957 1.550716,0 2.902176,-0.332819 3.543816,-0.872724 0.616233,-0.518526 1.11669,-1.912697 1.126202,-3.137371 l 0.0059,-0.761266 0.443596,0.503749 c 0.887961,1.008375 0.842195,3.128322 -0.08761,4.058126 -0.293712,0.293712 -0.912811,0.629402 -1.375779,0.745978 -0.882078,0.22211 -3.526446,0.29298 -3.719736,0.09969 z m -4.568898,-1.194796 c -0.503101,-0.207662 -0.807459,-0.747125 -0.807459,-1.431186 0,-0.402503 0.04989,-0.467607 0.224535,-0.292969 0.658593,0.658593 1.367035,0.08517 3.110274,-2.517482 1.325927,-1.979608 2.804848,-2.87287 4.293935,-2.593515 0.708562,0.132927 1.539755,0.842643 1.539755,1.314724 0,0.272419 -0.03795,0.273195 -0.415858,0.0085 -0.505358,-0.353966 -1.61583,-0.370548 -2.063379,-0.03081 -0.461517,0.350342 -0.409063,0.435146 0.212704,0.343891 0.30574,-0.04487 0.928493,0.09251 1.435008,0.31656 l 0.894859,0.395839 -0.546226,0.576533 c -0.300424,0.317094 -0.901029,0.822676 -1.33468,1.123517 l -0.788454,0.546981 0.265596,-0.752777 0.265595,-0.752778 h -0.646053 c -0.479491,0 -0.839154,0.174454 -1.395043,0.676665 -0.831362,0.751087 -1.031505,1.256735 -0.255973,0.646701 0.523427,-0.411728 1.190996,-0.519011 1.190996,-0.191401 0,0.445444 -0.581558,1.249686 -1.385654,1.916238 -0.726553,0.602273 -0.975966,0.703468 -1.652907,0.670637 -0.438482,-0.02127 -1.00774,0.01388 -1.26502,0.0781 -0.25728,0.06422 -0.651728,0.04083 -0.876551,-0.05197 z M 45.281439,47.025594 c -0.261281,-0.422762 -0.342119,-2.511666 -0.127836,-3.303348 0.294036,-1.086332 1.278111,-2.483927 2.212959,-3.14287 0.442294,-0.311757 2.088216,-1.138452 3.657601,-1.8371 1.569387,-0.698647 3.337583,-1.611535 3.929325,-2.02864 l 1.075896,-0.758371 -0.0022,0.89523 c -0.0051,2.062536 -1.085339,4.445957 -2.74503,6.056683 -0.867496,0.841902 -1.023327,0.934145 -0.921494,0.54547 0.408344,-1.558559 0.538405,-2.257149 0.438776,-2.356779 -0.283306,-0.283307 -1.379872,0.349547 -1.807454,1.043124 -0.501362,0.813252 -2.384072,2.748805 -2.530921,2.601955 -0.05121,-0.05121 -0.0059,-0.408793 0.100586,-0.794624 0.10653,-0.385832 0.167402,-0.871297 0.135263,-1.078812 -0.05338,-0.344705 -0.147338,-0.313185 -1.087551,0.364848 -1.200623,0.865829 -1.593218,1.466333 -1.930993,2.953597 -0.158256,0.696816 -0.299933,0.996532 -0.3969,0.839637 z"
               id="path65" /></g></g></g></g></g></svg>
