<?xml version="1.0" encoding="UTF-8" standalone="no"?>
<!-- Created with Inkscape (http://www.inkscape.org/) -->

<svg
   width="105.83334mm"
   height="105.83334mm"
   viewBox="0 0 105.83333 105.83333"
   version="1.1"
   id="svg1"
   xml:space="preserve"
   inkscape:version="1.4.3 (0d15f75042, 2025-12-25)"
   sodipodi:docname="millwaukee.svg"
   inkscape:export-filename="../pngs/indiana.png"
   inkscape:export-xdpi="96"
   inkscape:export-ydpi="96"
   xmlns:inkscape="http://www.inkscape.org/namespaces/inkscape"
   xmlns:sodipodi="http://sodipodi.sourceforge.net/DTD/sodipodi-0.dtd"
   xmlns="http://www.w3.org/2000/svg"
   xmlns:svg="http://www.w3.org/2000/svg"><sodipodi:namedview
     id="namedview1"
     pagecolor="#ffffff"
     bordercolor="#000000"
     borderopacity="0.25"
     inkscape:showpageshadow="2"
     inkscape:pageopacity="0.0"
     inkscape:pagecheckerboard="0"
     inkscape:deskcolor="#d1d1d1"
     inkscape:document-units="mm"
     inkscape:zoom="0.79867985"
     inkscape:cx="505.20869"
     inkscape:cy="-31.301653"
     inkscape:window-width="1920"
     inkscape:window-height="1011"
     inkscape:window-x="0"
     inkscape:window-y="0"
     inkscape:window-maximized="1"
     inkscape:current-layer="layer1"
     showgrid="false"
     showguides="true" /><defs
     id="defs1"><filter
       id="mask-powermask-path-effect61_inverse"
       inkscape:label="filtermask-powermask-path-effect61"
       style="color-interpolation-filters:sRGB"
       height="100"
       width="100"
       x="-50"
       y="-50"><feColorMatrix
         id="mask-powermask-path-effect61_primitive1"
         values="1"
         type="saturate"
         result="fbSourceGraphic" /><feColorMatrix
         id="mask-powermask-path-effect61_primitive2"
         values="-1 0 0 0 1 0 -1 0 0 1 0 0 -1 0 1 0 0 0 1 0 "
         in="fbSourceGraphic" /></filter><clipPath
       clipPathUnits="userSpaceOnUse"
       id="clipPath61"><path
         style="fill:none;fill-opacity:1;stroke:#1a1a1a;stroke-width:0.3;stroke-dasharray:none;stroke-opacity:1"
         d="m 19.343363,137.48906 1.575839,2.57864 -1.432581,4.72752 -0.859548,2.14887 -0.573032,3.58145 2.005613,2.43539 62.460506,-10.02807 2.148872,-6.30335 2.721904,-5.87358 -26.932515,3.72471 -6.446612,0.85955 -0.143256,-3.86797 -5.730322,0.71629 -1.146067,2.57864 -4.154482,1.43258 -3.867967,2.14888 -7.019645,0.14326 -1.432581,-2.57865 z"
         id="path61" /></clipPath></defs><g
     inkscape:label="Capa 1"
     inkscape:groupmode="layer"
     id="layer1"><path
       id="path22-5-1"
       style="fill:#e9afaf;fill-opacity:1;stroke:#ffffff;stroke-width:3.67515;stroke-dasharray:none;stroke-opacity:1"
       d="m 5.7281331,15.344237 c -1.347e-4,3e-6 -4.427e-4,2.36e-4 -5.581e-4,2.58e-4 -1.444e-4,3.8e-5 -6.352e-4,-5.7e-5 -7.988e-4,0 -0.017707,0.0086 -0.070346,0.137526 -0.1656271,0.375219 -0.7011653,1.748759 -1.3315607,4.134775 -1.6688776,6.31665 -0.1641644,1.061792 -0.2860727,3.204491 -0.2400636,4.217537 0.3778023,8.320366 6.0026379,11.727987 7.5822401,12.523952 0.09036,0.04138 0.174413,0.08546 0.187405,0.09736 0.113054,0.107839 1.495638,0.727928 2.337699,1.048394 l 0.531881,0.202417 -0.225629,0.141896 c -1.083202,0.68137 -5.4346976,2.930717 -9.3373711,-1.988969 l -0.2400828,-0.302856 0.020305,0.307744 c 0.1624418,2.456673 1.2137327,4.170077 3.0695339,5.003256 0.9717926,0.436331 2.433384,0.604508 3.920718,0.450929 1.301843,-0.134572 3.784758,-0.847314 7.472853,-1.991942 5.487584,-1.703108 7.328289,-2.111859 8.978999,-1.994291 1.756948,0.125113 2.736561,0.347249 3.014296,2.228715 0.07615,0.986969 3.547313,0.81755 4.567557,0.739062 0.378937,-0.02281 -1.790816,9.4363 -4.210954,19.957658 l -2.776761,12.072687 h 2.997118 2.997111 l 2.842029,-12.032538 4.710683,-19.944003 c 1.603685,0.05687 3.250486,0.220529 4.839266,-0.08988 1.166525,-1.881476 2.5418,-2.806586 4.357852,-2.931708 1.706245,-0.117559 3.353864,0.291183 8.036913,1.9943 4.406881,1.602669 5.688881,1.900348 6.532056,1.991981 1.414784,0.153569 2.955814,-0.01463 4.133735,-0.45094 2.249379,-0.833168 4.110072,-2.546583 5.433018,-5.003255 l 0.165663,-0.3076 -0.383141,0.302856 c -6.227053,4.919975 -9.516214,2.669723 -10.277007,1.988834 L 64.771595,40.126062 65.3991,39.923645 c 0.993447,-0.320457 2.668959,-0.940555 2.832951,-1.048394 0.01861,-0.01184 0.123477,-0.05601 0.233395,-0.09735 0.680055,-0.2565 2.793704,-1.332619 2.323696,-1.183082 -0.0073,0.0019 -0.01329,0.0038 -0.01746,0.0038 -0.0036,3.27e-4 -0.0061,-3.47e-4 -0.0074,-9.62e-4 -1.14e-4,-1.06e-4 -4.94e-4,-6.45e-4 -6.08e-4,-7.99e-4 -7.6e-5,-1.25e-4 -2.74e-4,-6.45e-4 -3.21e-4,-7.41e-4 -0.0036,-0.01559 0.09536,-0.09113 0.240814,-0.180014 0.03833,-0.02348 0.05913,-0.03108 0.06585,-0.0281 1.69e-4,7.7e-5 3.04e-4,1.63e-4 4.37e-4,2.6e-4 0.01312,0.0077 -0.04022,0.06505 -0.125823,0.119492 -0.04318,0.02743 -0.07084,0.05418 -0.07431,0.06929 -3.82e-4,0.0019 -5.46e-4,0.0038 -2.89e-4,0.0048 4.3e-5,2.7e-4 1.4e-5,5.01e-4 8.1e-5,7.51e-4 6.5e-5,2.6e-4 2.39e-4,5.48e-4 3.11e-4,7.89e-4 9.62e-4,0.0029 0.0036,0.0048 0.0074,0.0058 0.02339,0.0067 0.459677,-0.235002 0.969593,-0.536424 1.848453,-1.092748 3.423285,-2.291439 4.949511,-3.767383 0.574212,-0.555286 1.360742,-1.40006 1.411694,-1.516324 0.02108,-0.04814 0.05707,-0.09077 0.07975,-0.09451 1.76e-4,-2.8e-5 3.22e-4,5.3e-5 4.98e-4,0 1.91e-4,-5.1e-5 3.58e-4,-1.82e-4 5.6e-4,-2.56e-4 0.0272,-0.0096 0.209516,-0.209474 0.409391,-0.448875 1.230942,-1.474349 2.286865,-3.082151 3.265074,-4.971321 0.524561,-1.013046 1.414847,-3.155744 1.752266,-4.217539 0.693382,-2.181873 1.190111,-4.567889 1.315039,-6.31665 0.01684,-0.235659 0.02543,-0.364117 0.01228,-0.374703 l -1.99e-4,-2.55e-4 c -1.17e-4,-7.5e-5 -3.34e-4,-2.02e-4 -4.37e-4,-2.58e-4 -1.21e-4,-5.5e-5 -5.07e-4,3.9e-5 -9.62e-4,0 -1.3e-4,-2.1e-5 -4.39e-4,-2.55e-4 -9.37e-4,-2.58e-4 -1.31e-4,1.6e-5 -5.49e-4,2.27e-4 -0.0011,2.58e-4 -1.41e-4,4.9e-5 -4.33e-4,1.92e-4 -5.58e-4,2.58e-4 l -3.16e-4,2.58e-4 c -1.48e-4,8.4e-5 -5.94e-4,4.11e-4 -0.0012,4.99e-4 -0.01966,0.01535 -0.06774,0.175614 -0.162261,0.494967 -0.288042,0.973473 -0.873424,2.70485 -1.310552,3.876057 -0.493847,1.323182 -1.679982,3.998771 -2.189441,4.938874 -0.446674,0.824295 -2.509443,4.478914 -4.512971,5.521409 -0.07087,0.03693 -0.126629,0.09261 -0.123769,0.123872 0.0012,0.01268 1.12e-4,0.02117 -0.0027,0.02523 -1.14e-4,1.56e-4 -2.6e-4,3.73e-4 -3.79e-4,5.13e-4 -1.19e-4,1.43e-4 -5.74e-4,6.43e-4 -6.81e-4,7.72e-4 -1.28e-4,1.17e-4 -4.4e-4,1.56e-4 -5.57e-4,2.59e-4 -1.37e-4,1.03e-4 -5.59e-4,6.81e-4 -6.82e-4,7.72e-4 -1.45e-4,7.6e-5 -6.93e-4,1.95e-4 -8.08e-4,2.57e-4 -0.0046,0.0014 -0.01135,-0.0034 -0.01927,-0.01441 -0.01685,-0.02383 -0.07219,-0.0145 -0.12263,0.01983 -0.111895,0.07687 -0.351293,0.159399 -0.470493,0.173317 -0.01002,0.0012 -0.01909,0.0016 -0.02721,0.0017 -0.02436,4.97e-4 -0.04,-0.0038 -0.04286,-0.01366 -0.0077,-0.02705 0.04938,-0.422537 0.126989,-0.878944 0.13729,-0.807416 0.404983,-2.818483 0.418179,-3.1421 0.0038,-0.08855 0.02191,-0.371418 0.04083,-0.628626 0.132057,-1.795122 -0.08837,-3.241853 -0.536969,-3.522728 l -0.09785,-0.06103 -0.0797,0.592573 c -0.351977,2.618593 -1.288308,5.124445 -2.710538,7.256685 -2.418556,3.625945 -6.253591,6.278483 -10.488766,7.254568 -1.562599,0.360143 -4.471141,0.638873 -5.042489,0.48338 -0.336992,-0.09171 -0.248529,-0.295793 0.2252,-0.569653 0.157909,-0.09133 0.358552,-0.190148 0.600534,-0.295388 0.226661,-0.09858 0.435935,-0.197616 0.465082,-0.220182 0.01825,-0.01405 0.03149,-0.01963 0.03659,-0.01646 1.29e-4,7.7e-5 3.39e-4,1.63e-4 4.39e-4,2.6e-4 l 1.97e-4,2.5e-4 c 1.07e-4,1.06e-4 5.51e-4,4.04e-4 6.3e-4,5e-4 1.72e-4,2.41e-4 4.83e-4,4.91e-4 6.22e-4,7.51e-4 0.0012,0.0029 5.15e-4,0.0067 -0.002,0.01309 -1.44e-4,3.36e-4 -2.27e-4,9.62e-4 -2.97e-4,9.62e-4 -5.4e-5,2.98e-4 -4.6e-5,9.62e-4 -3.8e-5,9.62e-4 1.8e-5,1.25e-4 4.4e-5,6.45e-4 8.2e-5,7.51e-4 l 1.97e-4,2.5e-4 1.94e-4,2.6e-4 1.98e-4,2.6e-4 c 0.0012,9.62e-4 0.0038,0.0019 0.007,0.0019 0.0064,2e-5 0.01638,-0.0019 0.02961,-0.0058 0.04407,-0.01222 0.123195,-0.04369 0.215768,-0.08709 0.148127,-0.06948 0.26691,-0.152481 0.263994,-0.184392 -0.0013,-0.01395 4.23e-4,-0.02338 0.0039,-0.02733 1.29e-4,-1.25e-4 8.02e-4,-6.44e-4 9.63e-4,-7.41e-4 l 3.18e-4,-2.59e-4 c 1.44e-4,-8.7e-5 6.92e-4,-1.93e-4 8.57e-4,-2.6e-4 0.0046,-0.0019 0.01135,0.0029 0.01919,0.01367 0.05914,0.08343 1.32227,-0.748223 2.111528,-1.390398 0.793581,-0.645446 1.671903,-1.625266 2.27309,-2.535174 0.396224,-0.599701 1.08547,-2.196448 1.242124,-2.87762 0.131339,-0.570636 0.242811,-1.348273 0.236092,-1.64612 l -0.0046,-0.203188 -0.126845,0.284052 c -0.428851,0.962279 -1.456848,2.40352 -2.354341,3.30048 -0.455503,0.455242 -0.706999,0.698741 -0.743845,0.720048 -0.01749,0.01011 -0.178645,0.137063 -0.357932,0.282253 -0.866153,0.701438 -1.846139,1.329682 -2.85506,1.829994 -0.318113,0.157746 -0.582555,0.309256 -0.587347,0.336586 -3.01e-4,0.0019 -4.37e-4,0.0029 -8.26e-4,0.0048 -0.0025,0.0099 -0.0074,0.01578 -0.0129,0.01751 -4.26e-4,1.35e-4 -6.99e-4,4.33e-4 -0.0012,5.01e-4 -0.0069,9.62e-4 -0.01569,-0.0038 -0.02396,-0.01521 -0.0166,-0.02338 -0.214819,0.03955 -0.440756,0.140096 -0.225951,0.100554 -0.663121,0.266047 -0.971472,0.367746 -0.300093,0.09901 -0.521428,0.193775 -0.551729,0.234867 -5.15e-4,7.02e-4 -8.68e-4,9.62e-4 -0.0013,0.0019 -0.0013,0.0019 -0.0021,0.0048 -0.0022,0.0067 -5e-6,2.79e-4 5.2e-5,5e-4 7e-5,7.99e-4 9.62e-4,0.01107 4.99e-4,0.01905 -0.0013,0.02396 -1.78e-4,4.91e-4 -4.25e-4,9.62e-4 -6.27e-4,0.0019 -5.08e-4,9.63e-4 -9.62e-4,0.0019 -0.0016,0.0029 -1.34e-4,1.35e-4 -4.37e-4,1.45e-4 -5.59e-4,2.6e-4 l -3.18e-4,2.6e-4 c -1.46e-4,9.6e-5 -4.25e-4,1.73e-4 -5.6e-4,2.6e-4 l -3.17e-4,2.5e-4 c -1.59e-4,6.8e-5 -4.12e-4,2.12e-4 -5.59e-4,2.6e-4 -0.0054,0.0019 -0.01354,-0.0048 -0.02409,-0.02011 -0.01939,-0.02743 -0.06773,-0.03435 -0.107542,-0.01569 -0.115437,0.05428 -1.849635,0.455501 -2.173871,0.502954 -0.160745,0.02319 -0.296899,0.03031 -0.304243,0.01569 -0.0054,-0.01511 0.195818,-0.27311 0.447009,-0.573252 0.837088,-1.000191 1.588823,-2.075649 2.246921,-3.214213 0.134922,-0.233426 1.719055,-3.033942 1.671908,-5.755015 l -0.01728,-0.168938 -0.333058,0.736272 c -1.179829,2.607594 -2.637684,4.790088 -4.395997,6.581133 -0.591322,0.602322 -1.669977,1.532629 -2.115072,1.824071 -0.02666,0.01742 -0.052,0.03541 -0.07492,0.05331 -0.06875,0.0537 -0.11603,0.105068 -0.114001,0.127221 0.0013,0.01386 -8.06e-4,0.02415 -0.0054,0.02993 -0.0017,0.0019 -0.004,0.0038 -0.0064,0.0048 -8.05e-4,2.41e-4 -0.0015,4.52e-4 -0.0023,5.01e-4 -0.0041,2.79e-4 -0.0086,-9.63e-4 -0.01377,-0.0048 -1.42e-4,-1.06e-4 -2.88e-4,-1.73e-4 -4.37e-4,-2.6e-4 -1.68e-4,-8.7e-5 -5.04e-4,-1.92e-4 -7.38e-4,-2.6e-4 -0.0018,-6.93e-4 -0.0052,-6.93e-4 -0.0097,2.6e-4 -0.05152,0.01087 -0.265894,0.127673 -0.508126,0.278133 -0.878655,0.545691 -1.627514,0.924129 -2.473307,1.249522 -0.283716,0.109158 -0.519963,0.221462 -0.525064,0.249543 -3.28e-4,0.0019 -7.41e-4,0.0038 -0.0012,0.0048 -0.0026,0.0101 -0.0073,0.01617 -0.01303,0.018 -8.64e-4,2.89e-4 -0.0017,4.33e-4 -0.0026,5.01e-4 -0.0068,5.96e-4 -0.01502,-0.0048 -0.02288,-0.01549 -0.0083,-0.01184 -0.05327,-0.01059 -0.118966,9.62e-4 -0.06569,0.01155 -0.152206,0.0333 -0.243467,0.06255 -0.773426,0.249013 -1.945518,0.450266 -2.850013,0.498055 h -4.02052 -4.391112 c -0.881915,-0.04783 -1.958934,-0.249042 -2.614734,-0.498055 -0.145132,-0.05504 -0.285816,-0.08353 -0.325805,-0.06746 -6.6e-4,2.7e-4 -0.0012,4.82e-4 -0.0017,7.51e-4 -0.0017,8.95e-4 -0.0037,0.0019 -0.0049,0.0029 -0.0087,0.0077 -0.01635,0.01203 -0.02241,0.01415 -0.0017,6.45e-4 -0.0036,9.63e-4 -0.0049,9.63e-4 -0.0066,7.98e-4 -0.01049,-0.0029 -0.01068,-0.0103 -4.2e-5,-9.63e-4 -5e-6,-0.0019 1.66e-4,-0.0038 2.71e-4,-0.0029 9.06e-4,-0.0058 0.0019,-0.0096 0.0082,-0.0281 -0.175031,-0.140385 -0.407182,-0.249542 -0.692078,-0.325404 -1.262172,-0.703831 -1.883044,-1.249532 -0.187388,-0.164722 -0.360639,-0.288998 -0.38704,-0.278133 -2.05e-4,8.6e-5 -3.86e-4,1.63e-4 -5.76e-4,2.59e-4 -0.0029,0.0019 -0.0056,0.0029 -0.008,0.0038 -0.0017,5.96e-4 -0.0038,9.62e-4 -0.0053,9.62e-4 -0.01258,0.0019 -0.01351,-0.01174 -5.52e-4,-0.03474 0.0167,-0.02954 -0.02977,-0.110765 -0.103383,-0.180524 -0.307634,-0.291443 -0.947074,-1.22175 -1.253858,-1.824072 -0.912246,-1.791046 -1.339106,-3.97354 -1.287135,-6.581133 l 0.01476,-0.736273 -0.09708,0.168938 c -0.841726,1.815642 -1.192069,3.757601 -1.047035,5.754963 0.120245,1.138564 0.36421,2.214018 0.728814,3.214209 0.109409,0.300142 0.188693,0.558153 0.176206,0.573261 l -3.15e-4,2.51e-4 c -0.016,0.01415 -0.148142,0.0067 -0.296768,-0.01598 -0.301822,-0.04744 -1.846451,-0.448726 -1.936279,-0.502954 -0.01937,-0.01164 -0.04665,-0.01328 -0.07246,-0.0058 -0.0052,0.0019 -0.01033,0.0038 -0.01518,0.0058 -0.0023,9.63e-4 -0.0052,0.0019 -0.0075,0.0038 -0.0023,9.62e-4 -0.0046,0.0029 -0.0068,0.0038 -0.0046,0.0029 -0.0089,0.0058 -0.01302,0.0096 -0.0045,0.0038 -0.0084,0.0067 -0.01212,0.0098 -0.0038,0.0029 -0.0069,0.0048 -0.0098,0.0067 -0.0014,8.47e-4 -0.0026,0.0019 -0.0039,0.0019 -0.0023,9.62e-4 -0.0043,0.0019 -0.0059,0.0019 -9.62e-4,6.7e-5 -0.0018,-1.74e-4 -0.0024,-5.01e-4 -1.1e-4,-7.7e-5 -5.49e-4,-4.14e-4 -6.55e-4,-4.91e-4 l -1.99e-4,-2.59e-4 c -0.0019,-0.0038 8.5e-4,-0.01328 0.0092,-0.02829 0.01935,-0.03435 -0.165088,-0.136738 -0.439882,-0.244134 -1.827028,-0.713907 -2.995799,-1.854928 -3.626425,-2.682058 -0.110709,-0.14519 -0.2119,-0.272085 -0.224599,-0.282252 -0.02679,-0.02131 -0.163245,-0.264807 -0.403699,-0.720047 -0.473773,-0.896962 -0.820949,-2.338201 -0.79523,-3.300481 l 0.0076,-0.284053 -0.100785,0.203189 c -0.147424,0.297847 -0.403249,1.075482 -0.541519,1.64612 -0.165169,0.681171 -0.230169,2.277918 -0.117241,2.87762 0.171358,0.909907 0.586829,1.889721 1.07535,2.53536 1.694039,2.23882 4.053736,2.430786 2.675579,2.763175 -0.644798,0.155494 -3.421921,-0.123236 -4.8144,-0.483379 -3.774077,-0.976085 -6.356083,-3.62862 -7.061772,-7.254566 -0.414987,-2.132239 -0.167311,-4.638091 0.716832,-7.256627 l 0.199963,-0.592574 -0.1267,0.06103 c -0.581278,0.280875 -1.4851205,1.727605 -2.2010672,3.522729 -0.1025943,0.257206 -0.2179203,0.540073 -0.2561249,0.628625 -0.1396827,0.323617 -0.8220055,2.334683 -1.0661205,3.142101 -0.1379985,0.456406 -0.2676633,0.851884 -0.2882187,0.878944 -0.00481,0.0066 -0.014531,0.01079 -0.027426,0.01262 -0.00289,4.57e-4 -0.00674,8.48e-4 -0.010201,9.62e-4 -0.098245,0.0049 -0.3415319,-0.08865 -0.4265733,-0.175119 -0.034259,-0.03434 -0.085166,-0.04365 -0.1132666,-0.01983 -0.00577,0.0045 -0.00972,0.0079 -0.013473,0.01033 -0.00385,0.0023 -0.00674,0.004 -0.00962,0.0044 -9.623e-4,1.62e-4 -0.00192,-7.9e-5 -0.00289,-2.58e-4 -2.598e-4,-9.8e-5 -9.623e-4,-1.04e-4 -9.623e-4,-2.58e-4 -1.925e-4,-1.8e-4 -6.063e-4,-7.97e-4 -7.987e-4,-9.63e-4 -0.00192,-0.0038 8.468e-4,-0.01287 0.00866,-0.02652 0.017611,-0.03127 -0.011837,-0.08695 -0.065246,-0.123871 -1.5099461,-1.04297 -1.8469839,-4.691879 -1.904618,-5.521181 -0.065342,-0.940104 0.012414,-3.615694 0.1436378,-4.938876 0.1161343,-1.171206 0.3486436,-2.902585 0.5204585,-3.876056 0.056393,-0.319353 0.084012,-0.479616 0.071598,-0.494968 -1.058e-4,-1.04e-4 -5.485e-4,-4.31e-4 -6.255e-4,-5e-4 -1.155e-4,-6.6e-5 -5.389e-4,-4.64e-4 -6.832e-4,-4.97e-4 -1.251e-4,-3.4e-5 -5.871e-4,-2.45e-4 -7.314e-4,-2.58e-4 z M 24.848067,45.613582 c -2.184186,0.03926 -4.481235,0.153367 -5.265282,0.313413 -2.098765,0.428402 -3.881438,1.486381 -5.196514,3.083892 -1.011778,1.229072 -1.14305,1.561279 -2.167366,5.488704 l -1.09015,4.180451 4.297913,3.677497 4.29792,3.677507 -0.313356,1.357169 c -0.471511,2.041608 -1.231224,2.549219 -3.654157,2.44163 l -1.896122,-0.0842 0.303721,-2.362055 c 0.343457,-2.67082 0.437689,-2.570074 -2.535997,-2.70456 l -1.6962463,-0.0767 -1.281019,5.093137 -1.2811923,5.092878 5.8149346,-0.09248 c 5.71725,-0.09094 5.837047,-0.105173 7.13472,-0.841348 2.95889,-1.678578 3.65875,-2.788138 4.79594,-7.602747 0.822927,-3.484088 0.837445,-3.673456 0.312664,-4.046273 -0.302798,-0.21512 -2.244775,-1.821205 -4.315805,-3.569091 l -3.76566,-3.177892 0.517668,-1.76974 c 0.730055,-2.495984 1.352892,-2.995598 3.597613,-2.885853 l 1.710816,0.08372 -0.565963,3.000198 -0.565764,3.000458 2.16045,0.08266 2.16013,0.08295 0.741277,-2.225808 c 1.738189,-5.21954 2.691282,-8.929554 2.332557,-9.080698 -0.332246,-0.14001 -2.403571,-0.175963 -4.587754,-0.136757 z m 72.240043,0.04119 c -5.485363,0.118925 -6.77265,0.427007 -8.841153,2.116103 -1.913381,1.562424 -2.25161,2.224105 -3.436499,6.722001 l -1.09965,4.173753 4.296597,3.684195 4.296594,3.684205 -0.343805,1.483869 c -0.446323,1.926744 -1.1237,2.373642 -3.598444,2.373642 -2.027622,0 -1.976371,0.09575 -1.565234,-2.931959 0.296832,-2.185891 0.343347,-2.144972 -2.588955,-2.277582 l -1.696502,-0.0767 -1.281009,5.093137 -1.280948,5.092878 5.814672,-0.09248 c 5.717253,-0.09094 5.837057,-0.105174 7.134729,-0.841349 2.965059,-1.682071 3.657739,-2.783856 4.805487,-7.643175 l 0.872929,-3.695791 -0.791725,-0.57969 c -0.435439,-0.318927 -1.602361,-1.26388 -2.59333,-2.099887 -0.990967,-0.835989 -2.585047,-2.162892 -3.542186,-2.948685 l -1.740267,-1.428775 0.560001,-1.799601 c 0.780327,-2.508051 1.351062,-2.964534 3.571504,-2.855983 l 1.710821,0.08372 -0.565709,3.000198 -0.566022,3.000458 2.170948,0.08295 2.170889,0.08315 0.6198,-1.805269 c 1.160347,-3.380117 2.788437,-9.218225 2.638717,-9.462099 -0.0821,-0.133582 -2.391667,-0.194622 -5.132286,-0.135208 z m -18.677001,0.01646 c -5.688662,0.09746 -6.923157,0.384779 -9.023193,2.099628 -2.171351,1.773069 -2.1675,1.763657 -4.51279,11.2635 -1.183356,4.793331 -2.226112,9.37598 -2.317268,10.183695 -0.271281,2.403859 1.0055,4.564267 3.096084,5.238641 0.416412,0.134323 3.229747,0.255346 6.251857,0.268857 l 5.494777,0.02444 1.586,-6.714783 1.586065,-6.715053 h -4.571893 c -2.514538,0 -4.586491,0.06178 -4.604321,0.137267 -0.01781,0.07545 0.112851,0.968963 0.290216,1.985553 0.268228,1.537355 0.443723,1.862672 1.043229,1.934289 0.704243,0.08411 0.70923,0.135217 0.21465,2.229157 l -0.506202,2.143154 -1.253297,-0.05928 c -0.917964,-0.0435 -1.403,-0.255547 -1.813057,-0.792413 l -0.559813,-0.732923 1.95279,-8.26769 c 2.256957,-9.555475 2.024064,-9.124244 4.934829,-9.14044 l 1.635437,-0.0096 -0.610411,2.92886 -0.610402,2.92887 2.182488,0.237956 c 1.200357,0.130781 2.237111,0.193563 2.303842,0.139576 0.06675,-0.05399 0.87465,-2.539731 1.795331,-5.523973 1.166054,-3.779562 1.598873,-5.49418 1.426661,-5.650944 -0.135972,-0.123708 -2.571233,-0.185393 -5.411587,-0.136699 z m -19.019656,0.07593 c -6.489071,0 -7.508349,0.20363 -9.725134,1.942277 -2.230896,1.749704 -2.915249,3.182771 -4.28167,8.967893 l -1.101335,4.662811 h -0.990968 c -1.129856,0 -1.114535,-0.08815 -0.488682,2.806028 0.37543,1.73626 0.350228,1.975707 -0.651057,6.214918 l -1.041357,4.40889 h 2.992992 2.992734 l 1.108259,-4.357376 1.10806,-4.357636 h 2.571677 2.571675 l -0.950447,4.357636 -0.950386,4.357376 h 2.852639 2.852639 l 3.351253,-14.501404 3.350994,-14.501413 z m -4.019954,5.027198 c 0.335654,-0.0087 0.708825,0.0038 1.126812,0.02781 l 1.535378,0.08834 -1.214836,5.143361 -1.214839,5.143361 -2.461744,0.0819 c -1.353913,0.04494 -2.53061,-0.0087 -2.614847,-0.119243 -0.08434,-0.110428 0.26765,-1.983618 0.782337,-4.162686 1.19941,-5.078048 1.712151,-6.144409 4.061733,-6.202823 z m -10.329278,25.369885 -1.253462,5.306881 c -0.689387,2.918717 -1.298082,5.342978 -1.352788,5.387226 -0.05469,0.04427 -0.395984,-0.354889 -0.758563,-0.886915 l -0.659488,-0.967288 1.042816,-4.415059 1.042819,-4.415058 h -1.789821 c -0.984431,0 -1.831145,0.04831 -1.881628,0.107387 -0.05052,0.05918 -0.0023,0.498614 0.106962,0.976547 l 0.198831,0.868909 -0.828874,3.484088 -0.828877,3.484097 -1.117313,0.949245 c -0.614508,0.522162 -1.125645,0.926756 -1.135846,0.899041 -0.01022,-0.02772 0.514422,-2.446655 1.165854,-5.37539 l 1.184328,-5.324896 h -1.382926 -1.383184 l -1.362505,5.615906 -1.362768,5.615924 1.072201,1.472543 c 0.589696,0.809909 1.142607,1.472552 1.228521,1.472552 0.08591,0 0.600815,-0.337433 1.144405,-0.749927 l 0.988342,-0.749927 -0.152222,0.818945 c -0.09836,0.529014 -0.0926,0.816126 0.01609,0.810699 0.09245,-0.0038 0.754107,-0.117482 1.470303,-0.251092 l 1.302312,-0.243105 0.163069,-0.509392 c 0.08978,-0.280183 0.207721,-0.509401 0.261955,-0.509401 0.05424,0 0.366275,0.30965 0.693495,0.688116 0.327226,0.378476 0.660632,0.689743 0.740799,0.691735 0.08015,0.0019 0.933146,-0.641982 1.895423,-1.430575 l 1.749622,-1.433665 1.299522,-5.654542 1.299325,-5.654794 -1.408376,-0.03945 z m 17.012307,0 -1.427008,0.03946 -1.42701,0.03946 -1.332936,5.463462 c -0.879924,3.606968 -1.337841,5.703891 -1.347952,6.171402 -0.02314,1.074589 0.578497,1.907555 1.669079,2.311321 0.104914,0.03888 1.481713,0.07564 3.059475,0.08161 l 2.868619,0.01087 1.62212,-7.019199 1.621874,-7.019438 H 65.977864 64.59468 l -1.441353,5.809064 -1.441092,5.809065 -0.687454,0.04302 c -0.84355,0.05283 -1.342929,-0.159276 -1.442303,-0.61214 -0.05179,-0.236147 0.32132,-2.022227 1.198356,-5.735408 z m -45.68053,7.9e-4 -1.640094,1.387568 c -0.902043,0.76313 -1.691367,1.387559 -1.753929,1.387559 -0.06255,0 -0.570615,-0.622475 -1.129105,-1.38318 l -1.015598,-1.38293 H 9.1273526 7.4194235 l -1.6660484,7.053697 -1.6661158,7.053958 h 1.4521988 1.4524587 l 1.2878708,-5.428702 1.2878708,-5.428693 0.6667816,0.959291 0.666463,0.959562 -1.0555923,4.469131 -1.0556503,4.469411 h 1.4524586 1.452208 l 1.050964,-4.449577 1.050906,-4.449317 1.112929,-0.926332 c 0.612197,-0.509469 1.138622,-0.893026 1.169648,-0.852415 0.03108,0.04061 -0.507034,2.459588 -1.195795,5.375649 l -1.252303,5.301992 h 1.453498 1.453479 l 1.622108,-7.019198 1.622165,-7.019439 -1.704137,-0.03888 z m 62.004579,0.0038 -0.911213,3.701969 -0.911275,3.70223 -0.459847,0.04321 c -0.25285,0.02377 -0.472114,0.09623 -0.487348,0.1607 -0.01522,0.06448 0.06976,0.62619 0.189068,1.248242 0.215642,1.123861 0.213959,1.143945 -0.270098,3.193348 l -0.486905,2.062539 h 3.670807 3.670806 l 0.22936,-1.141105 0.229358,-1.141106 -2.169429,-0.03811 -2.169435,-0.03811 0.227858,-0.9647 0.227795,-0.96444 h 2.218603 2.218608 l 0.229111,-1.141115 0.229359,-1.141106 -2.127301,-0.06929 -2.127603,-0.06909 0.541431,-2.451389 0.541206,-2.451678 2.190517,-0.03811 2.190771,-0.03811 0.277674,-1.175614 0.277675,-1.175615 -3.619867,-0.03686 z m 15.901073,0 -3.639331,0.03686 -3.63933,0.03686 -0.910724,3.6999 -0.910727,3.69991 h -0.412557 c -0.511086,0 -0.53396,0.0983 -0.30342,1.309793 0.177534,0.933107 0.166887,1.0347 -0.331966,3.146732 l -0.515708,2.182302 h 3.6654 3.665146 l 0.277674,-1.175625 0.277675,-1.175614 H 89.35809 87.214169 l 0.228708,-0.9683 0.228651,-0.968059 h 2.14392 2.143662 l 0.277674,-1.175653 0.277675,-1.175614 h -2.143662 -2.143921 l 0.588075,-2.489767 0.588016,-2.489536 h 2.14392 2.143662 l 0.294525,-1.246953 z m -23.640781,0.0038 c -0.678414,0 -1.340795,0.03772 -1.472039,0.08401 -0.213228,0.07506 -0.413912,0.825643 -1.884949,7.053698 l -1.646282,6.970003 h 1.4522 1.452463 l 0.32646,-1.38216 0.326516,-1.38241 0.668052,-0.413341 c 0.367479,-0.227303 0.706173,-0.385723 0.752725,-0.352041 0.04654,0.03368 0.179841,0.63948 0.296259,1.346111 0.116419,0.706622 0.252205,1.486968 0.301683,1.734201 l 0.09004,0.44964 h 1.538474 c 0.705037,0 1.088801,-0.0048 1.291692,-0.03791 0.202917,-0.03272 0.224997,-0.09325 0.206614,-0.204217 -0.373263,-2.252369 -0.712704,-4.887525 -0.659294,-5.117869 0.02212,-0.09527 0.343461,-0.398983 0.714142,-0.67498 l 0.674038,-0.501915 0.849372,-3.750904 0.849118,-3.750894 H 75.38297 74.000046 l -0.845979,3.288368 -0.845979,3.288388 -1.045649,0.683987 c -0.575172,0.376273 -1.091405,0.651173 -1.147097,0.61086 -0.05569,-0.04032 0.31693,-1.843358 0.827944,-4.006875 l 0.929131,-3.933737 z m -47.034703,0.03176 c -1.625315,-0.02059 -3.013541,0.01068 -3.085071,0.06929 -0.07152,0.0587 -0.05679,0.510941 0.03294,1.005397 0.15665,0.863415 0.184235,0.901889 0.696332,0.968309 l 0.533271,0.069 -1.123152,4.910034 c -1.271383,5.558069 -1.138016,5.255896 -2.318664,5.255896 -0.353138,0 -0.689704,0.03859 -0.748031,0.08574 -0.05832,0.04715 -0.0077,0.451767 0.112141,0.899031 l 0.218401,0.813277 h 2.695037 2.695287 l 0.226946,-0.960842 0.227007,-0.961101 -0.716368,-0.04176 -0.716372,-0.04176 1.176091,-4.979313 1.176025,-4.979033 0.742134,-0.04225 0.74206,-0.04196 0.194412,-0.99536 0.194658,-0.995341 z m 4.338249,0.03734 -1.693754,7.019448 -1.693691,7.019198 h 3.408646 3.408642 l 0.292907,-1.625014 c 0.161186,-0.893834 0.369224,-2.107538 0.462179,-2.697092 l 0.16901,-1.072087 -0.780755,0.01386 c -1.503229,0.02656 -1.46771,-0.0058 -1.859572,1.653846 l -0.341179,1.444481 -0.665314,0.04196 -0.665322,0.04196 1.362036,-5.92031 1.362297,-5.92032 h -1.382924 z m 26.901392,0 c -3.059907,0 -3.629376,0.104355 -4.628242,0.848046 -1.107503,0.824604 -1.477529,1.579159 -2.130567,4.34398 l -0.554134,2.346081 h -0.483896 c -0.266247,0 -0.491029,0.02906 -0.499482,0.06496 -0.01968,0.08334 0.284816,1.587917 0.385409,1.904169 0.04201,0.132099 -0.151875,1.205601 -0.430617,2.385738 l -0.506553,2.145733 h 1.448596 1.448597 l 0.536281,-2.109155 0.536603,-2.109424 1.21954,-0.03984 1.219564,-0.03994 -0.5076,2.149072 -0.507661,2.149342 h 1.453746 1.453489 l 1.621844,-7.019198 1.62217,-7.019449 z m -1.656679,2.420507 h 0.946675 l -0.604379,2.558805 -0.604375,2.558795 h -1.179994 c -0.444391,0 -0.741047,-0.01203 -0.929433,-0.04244 -0.188383,-0.03051 -0.268482,-0.07939 -0.279336,-0.152972 -0.01578,-0.107445 0.211691,-1.128076 0.505573,-2.268046 0.664942,-2.579514 0.725182,-2.654085 2.145267,-2.654085 z"
       sodipodi:nodetypes="ccccscccscccccccscsccccccccssccsccccscccsccccscsscscscsssscsscsccssscccccsccssscsccccsccscscccsscsscsccccscsccccccccscccccsccccssssccsccccscscscsccccccccccssccscsccccsscccsscsccccccccscccccccccscccccsccsssccccscccccccscccccccsccccccccscccscscsccccsccccccscccccccsscccccccccccccsssccccccccccscccscccccsscccccssccscccccccccccccsssssccccssscsccscscccccsscssssscscscccccccccccccscccccccscccssccccsccccccscccccccscccccccsscccccccccccccccccccccccscccsccccccccccccccccccccscccccccccccsccccccccccccccccccccccccccccccscccccccccccccccccccccccscscccccccsccscccccccccccccscscscccsssccccccccccccccccccccccccscccccccscscsssccccccccccccccsccccssccsc" /><path
       id="path22-5"
       style="fill:#702f8a;fill-opacity:1;stroke:#2c5234;stroke-width:0.88464;stroke-dasharray:none;stroke-opacity:1"
       d="m 5.7088681,15.328768 c -1.348e-4,3e-6 -4.427e-4,2.35e-4 -5.582e-4,2.58e-4 -1.443e-4,3.7e-5 -6.351e-4,-5.7e-5 -7.987e-4,0 -0.017707,0.0086 -0.070347,0.137526 -0.1656271,0.375218 -0.7011654,1.748759 -1.3315608,4.134776 -1.6688777,6.31665 -0.1641644,1.061793 -0.2860727,3.204491 -0.2400635,4.217537 0.3778022,8.320369 6.0026378,11.72799 7.5822401,12.523954 0.09036,0.04138 0.174413,0.08545 0.187404,0.09736 0.113055,0.107839 1.495639,0.727937 2.3377,1.048394 l 0.531881,0.202417 -0.225629,0.141896 c -1.083201,0.68137 -5.4346976,2.930717 -9.3373712,-1.988969 L 4.469085,37.960627 4.48939,38.268372 c 0.1624418,2.456672 1.2137327,4.170077 3.0695339,5.003255 0.9717927,0.436341 2.4333838,0.604509 3.9207171,0.450939 1.301844,-0.134582 3.78476,-0.847324 7.472855,-1.991942 5.487584,-1.703117 7.328289,-2.111868 8.978999,-1.9943 1.756948,0.125113 2.736561,0.347248 3.014296,2.228715 0.07615,0.986968 3.547313,0.817559 4.567557,0.739062 0.378937,-0.02281 -1.790816,9.436299 -4.210954,19.957658 l -2.776761,12.072687 h 2.997118 2.997111 l 2.842029,-12.032539 4.710683,-19.944002 c 1.603685,0.05687 3.250486,0.220538 4.839266,-0.08988 1.166525,-1.881476 2.5418,-2.806586 4.357852,-2.931699 1.706245,-0.117568 3.353864,0.291173 8.036913,1.99429 4.406881,1.60267 5.688881,1.900348 6.532056,1.991981 1.414784,0.153569 2.955814,-0.01463 4.133735,-0.45093 2.249379,-0.833178 4.110072,-2.546592 5.433018,-5.003264 l 0.165663,-0.3076 -0.383141,0.302855 c -6.227053,4.919985 -9.516214,2.669723 -10.277007,1.988844 l -0.158598,-0.141906 0.627505,-0.202417 c 0.993447,-0.320457 2.668959,-0.940555 2.832951,-1.048394 0.01861,-0.01184 0.123477,-0.05601 0.233395,-0.09735 0.680055,-0.2565 2.793704,-1.332609 2.323696,-1.183082 -0.0073,0.0019 -0.01329,0.0038 -0.01746,0.0038 -0.0036,3.28e-4 -0.0061,-3.46e-4 -0.0074,-9.62e-4 -1.14e-4,-1.06e-4 -4.94e-4,-6.45e-4 -6.08e-4,-7.99e-4 -7.6e-5,-1.25e-4 -2.74e-4,-6.44e-4 -3.21e-4,-7.41e-4 -0.0036,-0.01559 0.09536,-0.09113 0.240814,-0.180014 0.03833,-0.02348 0.05913,-0.03108 0.06585,-0.0281 1.69e-4,7.7e-5 3.04e-4,1.73e-4 4.37e-4,2.6e-4 0.01312,0.0077 -0.04022,0.06505 -0.125823,0.119493 -0.04318,0.02743 -0.07084,0.05418 -0.07431,0.06929 -3.82e-4,0.0019 -5.46e-4,0.0038 -2.89e-4,0.0048 4.3e-5,2.69e-4 1.4e-5,5e-4 8.1e-5,7.5e-4 6.5e-5,2.6e-4 2.39e-4,5.49e-4 3.11e-4,7.99e-4 9.62e-4,0.0029 0.0036,0.0048 0.0074,0.0058 0.02339,0.0067 0.459677,-0.235011 0.969593,-0.536433 1.848453,-1.092749 3.423285,-2.29144 4.949511,-3.767385 0.574212,-0.555287 1.360742,-1.400061 1.411694,-1.516324 0.02108,-0.04814 0.05707,-0.09077 0.07975,-0.09451 1.76e-4,-2.8e-5 3.23e-4,5.3e-5 4.98e-4,0 1.91e-4,-5.1e-5 3.58e-4,-1.82e-4 5.6e-4,-2.56e-4 0.0272,-0.0096 0.209516,-0.209474 0.409391,-0.448874 1.230942,-1.474349 2.286865,-3.082151 3.265074,-4.971321 0.524561,-1.013046 1.414848,-3.155745 1.752266,-4.21754 0.693382,-2.181873 1.190111,-4.567889 1.315039,-6.31665 0.01684,-0.235659 0.02543,-0.364117 0.01228,-0.374702 l -1.99e-4,-2.55e-4 c -1.17e-4,-7.5e-5 -3.34e-4,-2.02e-4 -4.37e-4,-2.58e-4 -1.21e-4,-5.5e-5 -5.07e-4,3.8e-5 -9.62e-4,0 -1.3e-4,-2.1e-5 -4.39e-4,-2.55e-4 -9.37e-4,-2.58e-4 -1.31e-4,1.5e-5 -5.49e-4,2.26e-4 -0.0011,2.58e-4 -1.41e-4,4.9e-5 -4.33e-4,1.91e-4 -5.58e-4,2.58e-4 l -3.16e-4,2.58e-4 c -1.48e-4,8.3e-5 -5.94e-4,4.11e-4 -0.0012,4.98e-4 -0.01966,0.01535 -0.06774,0.175614 -0.162261,0.494967 -0.288042,0.973473 -0.873424,2.704851 -1.310552,3.876058 -0.493847,1.323181 -1.679982,3.998771 -2.189441,4.938874 -0.446674,0.824295 -2.509443,4.478914 -4.512971,5.521409 -0.07087,0.03693 -0.126629,0.09261 -0.123769,0.123871 0.0012,0.01268 1.12e-4,0.02117 -0.0027,0.02523 -1.14e-4,1.56e-4 -2.6e-4,3.72e-4 -3.79e-4,5.13e-4 -1.19e-4,1.42e-4 -5.74e-4,6.42e-4 -6.81e-4,7.71e-4 -1.28e-4,1.18e-4 -4.4e-4,1.56e-4 -5.57e-4,2.59e-4 -1.37e-4,1.03e-4 -5.59e-4,6.82e-4 -6.82e-4,7.72e-4 -1.45e-4,7.6e-5 -6.93e-4,1.95e-4 -8.08e-4,2.58e-4 -0.0046,0.0014 -0.01135,-0.0034 -0.01927,-0.01442 -0.01685,-0.02383 -0.07219,-0.0145 -0.12263,0.01983 -0.111895,0.07687 -0.351293,0.159399 -0.470493,0.173317 -0.01002,0.0012 -0.01909,0.0016 -0.0272,0.0017 -0.02436,4.98e-4 -0.04,-0.0038 -0.04286,-0.01365 -0.0077,-0.02705 0.04938,-0.422538 0.126989,-0.878944 0.13729,-0.807417 0.404983,-2.818484 0.418179,-3.142101 0.0038,-0.08855 0.02191,-0.371418 0.04083,-0.628625 0.132057,-1.795123 -0.08837,-3.241853 -0.536969,-3.522729 l -0.09786,-0.06103 -0.0797,0.592573 c -0.351977,2.618593 -1.288308,5.124446 -2.710538,7.256686 -2.418556,3.625949 -6.253591,6.278485 -10.488766,7.254569 -1.562599,0.360144 -4.471141,0.638874 -5.042489,0.48338 -0.336992,-0.09171 -0.248529,-0.295792 0.2252,-0.569653 0.15791,-0.09132 0.358552,-0.190147 0.600534,-0.295378 0.226661,-0.09858 0.435935,-0.197625 0.465083,-0.220192 0.01825,-0.01405 0.03149,-0.01963 0.03659,-0.01646 1.29e-4,7.7e-5 3.39e-4,1.64e-4 4.39e-4,2.6e-4 l 1.97e-4,2.6e-4 c 1.07e-4,9.6e-5 5.51e-4,4.04e-4 6.3e-4,4.91e-4 1.72e-4,2.5e-4 4.83e-4,4.91e-4 6.22e-4,7.5e-4 0.0012,0.0029 5.15e-4,0.0067 -0.002,0.01309 -1.44e-4,3.37e-4 -2.27e-4,9.62e-4 -2.97e-4,9.62e-4 -5.4e-5,2.99e-4 -4.6e-5,9.63e-4 -3.8e-5,9.63e-4 1.8e-5,1.25e-4 4.4e-5,6.45e-4 8.2e-5,7.5e-4 l 1.97e-4,2.51e-4 1.94e-4,2.59e-4 1.98e-4,2.6e-4 c 0.0012,9.63e-4 0.0038,0.0019 0.007,0.0019 0.0064,1.9e-5 0.01638,-0.0019 0.02961,-0.0058 0.04407,-0.01222 0.123195,-0.04369 0.215768,-0.08709 0.148127,-0.06948 0.26691,-0.152482 0.263994,-0.184393 -0.0013,-0.01395 4.23e-4,-0.02338 0.0039,-0.02733 1.29e-4,-1.25e-4 8.02e-4,-6.45e-4 9.63e-4,-7.41e-4 l 3.18e-4,-2.6e-4 c 1.44e-4,-8.7e-5 6.92e-4,-1.92e-4 8.57e-4,-2.6e-4 0.0046,-0.0019 0.01135,0.0029 0.01919,0.01367 0.05914,0.08343 1.32227,-0.748223 2.111528,-1.390388 0.793581,-0.645456 1.671903,-1.625278 2.27309,-2.535186 0.396224,-0.599701 1.08547,-2.196448 1.242124,-2.87762 0.131339,-0.570636 0.242811,-1.348272 0.236092,-1.646119 l -0.0046,-0.203189 -0.126845,0.284053 c -0.428851,0.962279 -1.456848,2.40352 -2.354341,3.300479 -0.455503,0.455242 -0.706999,0.698741 -0.743845,0.720048 -0.01749,0.01011 -0.178645,0.137064 -0.357932,0.282254 -0.866153,0.701437 -1.846139,1.329679 -2.85506,1.829996 -0.318113,0.157746 -0.582555,0.309255 -0.587347,0.336585 -3.01e-4,0.0019 -4.37e-4,0.0029 -8.26e-4,0.0048 -0.0025,0.0099 -0.0074,0.01578 -0.0129,0.01751 -4.26e-4,1.34e-4 -6.99e-4,4.33e-4 -0.0012,5e-4 -0.0069,9.62e-4 -0.01569,-0.0038 -0.02396,-0.01521 -0.0166,-0.02338 -0.214819,0.03955 -0.440756,0.140097 -0.225951,0.100554 -0.663121,0.266046 -0.971472,0.367755 -0.300093,0.099 -0.521428,0.193775 -0.551729,0.234857 -5.15e-4,7.03e-4 -8.68e-4,9.63e-4 -0.0013,0.0019 -0.0013,0.0019 -0.0021,0.0048 -0.0022,0.0067 -5e-6,2.79e-4 5.2e-5,5.01e-4 7e-5,7.99e-4 9.62e-4,0.01107 4.99e-4,0.01905 -0.0013,0.02396 -1.79e-4,4.91e-4 -4.26e-4,9.63e-4 -6.28e-4,0.0019 -5.08e-4,9.62e-4 -9.62e-4,0.0019 -0.0016,0.0029 -1.34e-4,1.35e-4 -4.37e-4,1.44e-4 -5.59e-4,2.6e-4 l -3.18e-4,2.6e-4 c -1.46e-4,9.6e-5 -4.25e-4,1.73e-4 -5.6e-4,2.59e-4 l -3.17e-4,2.6e-4 c -1.59e-4,6.8e-5 -4.12e-4,2.02e-4 -5.59e-4,2.5e-4 -0.0054,0.0019 -0.01354,-0.0048 -0.02409,-0.02011 -0.01939,-0.02743 -0.06773,-0.03436 -0.107542,-0.01569 -0.115437,0.05418 -1.849635,0.455501 -2.173871,0.502953 -0.160745,0.02319 -0.296899,0.03031 -0.304243,0.01569 -0.0054,-0.01511 0.195818,-0.27311 0.447009,-0.573252 0.837088,-1.000191 1.588823,-2.075651 2.246921,-3.214215 0.134922,-0.233425 1.719055,-3.033942 1.671908,-5.755015 l -0.01728,-0.168937 -0.333058,0.736272 c -1.179829,2.607594 -2.637684,4.790088 -4.395997,6.581133 -0.591322,0.602324 -1.669977,1.53264 -2.115072,1.824073 -0.02666,0.01742 -0.052,0.03541 -0.07492,0.05331 -0.06875,0.0537 -0.11603,0.105067 -0.114001,0.12722 0.0013,0.01386 -8.06e-4,0.02416 -0.0054,0.02993 -0.0017,0.0019 -0.004,0.0038 -0.0064,0.0048 -8.05e-4,2.5e-4 -0.0015,4.52e-4 -0.0023,5e-4 -0.0041,2.79e-4 -0.0086,-9.62e-4 -0.01377,-0.0048 -1.42e-4,-1.06e-4 -2.88e-4,-1.73e-4 -4.37e-4,-2.6e-4 -1.68e-4,-8.6e-5 -5.04e-4,-1.92e-4 -7.38e-4,-2.59e-4 -0.0018,-6.93e-4 -0.0052,-6.93e-4 -0.0097,2.59e-4 -0.05152,0.01087 -0.265893,0.127673 -0.508126,0.278134 -0.878655,0.545691 -1.627514,0.924128 -2.473307,1.249522 -0.283716,0.109157 -0.519963,0.221461 -0.525064,0.249542 -3.28e-4,0.0019 -7.41e-4,0.0038 -0.0012,0.0048 -0.0026,0.0101 -0.0073,0.01617 -0.01303,0.018 -8.64e-4,2.88e-4 -0.0017,4.42e-4 -0.0026,5e-4 -0.0068,5.97e-4 -0.01502,-0.0048 -0.02288,-0.01549 -0.0083,-0.01184 -0.05327,-0.01058 -0.118966,9.63e-4 -0.06569,0.01155 -0.152206,0.0333 -0.243467,0.06255 -0.773426,0.249014 -1.945518,0.450266 -2.850013,0.498065 h -4.020755 -4.391112 c -0.881915,-0.04783 -1.958934,-0.249051 -2.614734,-0.498065 -0.145132,-0.05504 -0.285816,-0.08353 -0.325805,-0.06746 -6.6e-4,2.69e-4 -0.0012,4.81e-4 -0.0017,7.5e-4 -0.0017,8.95e-4 -0.0037,0.0019 -0.0049,0.0029 -0.0087,0.0077 -0.01635,0.01203 -0.02241,0.01415 -0.0017,6.45e-4 -0.0036,9.62e-4 -0.0049,9.62e-4 -0.0066,7.99e-4 -0.01049,-0.0029 -0.01068,-0.0103 -4.2e-5,-9.62e-4 -5e-6,-0.0029 1.66e-4,-0.0038 2.71e-4,-0.0029 9.06e-4,-0.0058 0.0019,-0.0096 0.0082,-0.0281 -0.17503,-0.140385 -0.407182,-0.249542 -0.692078,-0.325394 -1.262171,-0.703831 -1.883044,-1.249532 -0.187388,-0.164722 -0.360639,-0.288998 -0.38704,-0.278123 -2.05e-4,8.6e-5 -3.86e-4,1.54e-4 -5.76e-4,2.5e-4 -0.0029,0.0019 -0.0056,0.0029 -0.008,0.0038 -0.0017,5.97e-4 -0.0038,9.63e-4 -0.0053,9.63e-4 -0.01258,0.0019 -0.01351,-0.01174 -5.52e-4,-0.03474 0.0167,-0.02954 -0.02976,-0.110764 -0.103383,-0.180524 -0.307634,-0.291442 -0.947074,-1.221749 -1.253858,-1.824074 -0.912246,-1.791046 -1.339106,-3.97354 -1.287135,-6.581133 l 0.01476,-0.736273 -0.09708,0.168939 c -0.841727,1.815642 -1.19207,3.757601 -1.047036,5.754962 0.120245,1.138565 0.36421,2.21402 0.728814,3.214211 0.109409,0.300142 0.188693,0.558153 0.176206,0.573262 l -3.14e-4,2.5e-4 c -0.016,0.01415 -0.148143,0.0067 -0.296769,-0.01597 -0.301822,-0.04744 -1.846451,-0.448726 -1.936279,-0.502953 -0.01937,-0.01165 -0.04665,-0.01328 -0.07246,-0.0058 -0.0052,0.0019 -0.01033,0.0038 -0.01518,0.0058 -0.0023,9.62e-4 -0.0052,0.0019 -0.0075,0.0038 -0.0023,9.62e-4 -0.0046,0.0029 -0.0068,0.0038 -0.0046,0.0029 -0.0089,0.0058 -0.01302,0.0096 -0.0045,0.0038 -0.0084,0.0067 -0.01212,0.0098 -0.0038,0.0029 -0.0069,0.0048 -0.0098,0.0067 -0.0014,8.47e-4 -0.0026,0.0019 -0.0039,0.0019 -0.0023,9.63e-4 -0.0043,0.0019 -0.0059,0.0019 -9.62e-4,6.7e-5 -0.0018,-1.73e-4 -0.0024,-4.91e-4 -1.1e-4,-8.6e-5 -5.49e-4,-4.23e-4 -6.55e-4,-5e-4 l -1.99e-4,-2.6e-4 c -0.0019,-0.0038 8.5e-4,-0.01328 0.0092,-0.02829 0.01935,-0.03435 -0.165088,-0.136728 -0.439882,-0.244134 -1.827028,-0.713906 -2.995799,-1.854929 -3.626425,-2.682059 -0.110709,-0.14519 -0.2119,-0.272085 -0.224599,-0.282252 -0.02679,-0.02131 -0.163245,-0.264807 -0.403699,-0.720048 -0.473773,-0.896961 -0.820949,-2.338201 -0.79523,-3.300481 l 0.0076,-0.284053 -0.100785,0.203189 c -0.147424,0.297847 -0.403249,1.075482 -0.541519,1.646121 -0.165169,0.681171 -0.230169,2.277918 -0.117241,2.877619 0.171358,0.909907 0.586829,1.889724 1.07535,2.535363 1.694039,2.238819 4.053736,2.430785 2.675579,2.763175 -0.644798,0.155494 -3.421921,-0.123236 -4.814401,-0.48338 -3.774077,-0.976085 -6.356084,-3.62862 -7.061772,-7.254567 -0.414987,-2.132239 -0.167311,-4.638092 0.716832,-7.256627 l 0.199963,-0.592574 -0.1267,0.06103 c -0.581278,0.280875 -1.4851207,1.727606 -2.2010675,3.522729 -0.1025943,0.257207 -0.2179203,0.540074 -0.2561249,0.628626 -0.1396826,0.323616 -0.8220055,2.334683 -1.0661204,3.1421 -0.1379986,0.456407 -0.2676633,0.851884 -0.2882187,0.878944 -0.00481,0.0066 -0.014531,0.01079 -0.027426,0.01262 -0.00289,4.58e-4 -0.00674,8.48e-4 -0.010201,9.63e-4 -0.098244,0.0049 -0.3415319,-0.08865 -0.4265732,-0.17512 -0.034259,-0.03434 -0.085166,-0.04365 -0.1132666,-0.01983 -0.00577,0.0045 -0.00972,0.0079 -0.013473,0.01033 -0.00385,0.0023 -0.00674,0.004 -0.00962,0.0044 -9.623e-4,1.63e-4 -0.00192,-7.9e-5 -0.00289,-2.58e-4 -2.598e-4,-9.7e-5 -9.623e-4,-1.04e-4 -9.623e-4,-2.58e-4 -1.925e-4,-1.8e-4 -6.063e-4,-7.97e-4 -7.988e-4,-9.62e-4 -0.00192,-0.0038 8.469e-4,-0.01287 0.00866,-0.02652 0.017611,-0.03127 -0.011837,-0.08695 -0.065246,-0.12387 C 5.369696,29.119037 5.0326582,25.470129 4.975024,24.640826 4.909682,23.700722 4.987438,21.025133 5.1186618,19.701951 c 0.1161344,-1.171206 0.3486436,-2.902586 0.5204585,-3.876057 0.056393,-0.319353 0.084012,-0.479616 0.071598,-0.494968 -1.059e-4,-1.04e-4 -5.485e-4,-4.31e-4 -6.255e-4,-4.99e-4 -1.155e-4,-6.7e-5 -5.389e-4,-4.65e-4 -6.833e-4,-4.98e-4 -1.251e-4,-3.3e-5 -5.87e-4,-2.44e-4 -7.313e-4,-2.58e-4 z M 24.828803,45.598115 c -2.184186,0.03926 -4.481235,0.153367 -5.265282,0.313412 -2.098766,0.428402 -3.881439,1.486381 -5.196515,3.083892 -1.011778,1.229073 -1.143049,1.561279 -2.167366,5.488704 l -1.09015,4.180451 4.297913,3.677498 4.297921,3.677507 -0.313356,1.357168 c -0.471511,2.041608 -1.231225,2.54922 -3.654157,2.441631 l -1.896123,-0.0842 0.303721,-2.362056 c 0.343457,-2.67081 0.437689,-2.570073 -2.535997,-2.704559 L 9.9131657,64.590863 8.6321466,69.684 7.3509544,74.776877 13.165889,74.684397 c 5.717251,-0.09094 5.837048,-0.105174 7.134721,-0.841349 2.95889,-1.678578 3.65875,-2.788138 4.79594,-7.602747 0.822927,-3.484087 0.837445,-3.673455 0.312664,-4.046273 -0.302798,-0.21512 -2.244775,-1.821205 -4.315805,-3.56909 l -3.765661,-3.177893 0.517668,-1.76974 c 0.730056,-2.495983 1.352893,-2.995588 3.597614,-2.885853 l 1.710816,0.08372 -0.565963,3.000198 -0.565764,3.000457 2.16045,0.08266 2.16013,0.08295 0.741277,-2.225809 c 1.738189,-5.219539 2.691282,-8.929544 2.332557,-9.080698 -0.332246,-0.14001 -2.403571,-0.175962 -4.587754,-0.136747 z m 72.240043,0.04119 c -5.485363,0.118925 -6.77265,0.427006 -8.841153,2.116102 -1.913381,1.562425 -2.25161,2.224105 -3.436499,6.722001 l -1.09965,4.173763 4.296597,3.684185 4.296594,3.684205 -0.343805,1.483869 c -0.446323,1.926745 -1.1237,2.373643 -3.598444,2.373643 -2.027622,0 -1.976371,0.09575 -1.565234,-2.931959 0.296832,-2.185891 0.343347,-2.144973 -2.588955,-2.277582 l -1.696502,-0.0767 -1.281009,5.093137 -1.280948,5.092877 5.814672,-0.09248 c 5.717253,-0.09094 5.837057,-0.105173 7.134729,-0.841348 2.965059,-1.682072 3.657739,-2.783856 4.805487,-7.643175 l 0.872928,-3.695792 -0.791724,-0.57969 C 97.330491,61.605435 96.163569,60.660481 95.1726,59.824474 94.181633,58.988486 92.587553,57.661583 91.630414,56.87579 l -1.740267,-1.428766 0.560001,-1.799611 c 0.780327,-2.508051 1.351062,-2.964533 3.571504,-2.855982 l 1.710821,0.08372 -0.565709,3.000197 -0.566022,3.000458 2.170948,0.08295 2.170887,0.08315 0.6198,-1.805269 c 1.160343,-3.380118 2.788433,-9.218225 2.638713,-9.4621 -0.0821,-0.133581 -2.391663,-0.194622 -5.13228,-0.135198 z m -18.677001,0.01646 c -5.688662,0.09746 -6.923157,0.384779 -9.023193,2.099627 -2.171351,1.773069 -2.1675,1.763658 -4.51279,11.2635 -1.183356,4.793332 -2.226112,9.37598 -2.317268,10.183695 -0.271281,2.403859 1.0055,4.564268 3.096084,5.238642 0.416412,0.134322 3.229747,0.255345 6.251857,0.268856 l 5.494777,0.02444 1.586,-6.714774 1.586065,-6.715063 h -4.571893 c -2.514538,0 -4.586491,0.06178 -4.604321,0.137268 -0.01781,0.07545 0.112851,0.968963 0.290216,1.985552 0.268228,1.537356 0.443723,1.862672 1.043229,1.934289 0.704243,0.08411 0.70923,0.135218 0.21465,2.229158 l -0.506202,2.143153 -1.253297,-0.05928 c -0.917964,-0.0435 -1.403,-0.255548 -1.813057,-0.792414 l -0.559813,-0.732922 1.95279,-8.267691 c 2.256957,-9.555465 2.024064,-9.124243 4.934829,-9.140439 l 1.635437,-0.0096 -0.610411,2.92886 -0.610402,2.92887 2.182488,0.237956 c 1.200357,0.130781 2.237111,0.193564 2.303842,0.139586 0.06675,-0.05399 0.87465,-2.53974 1.795331,-5.523983 1.166054,-3.779562 1.598873,-5.494179 1.426661,-5.650943 -0.135972,-0.123708 -2.571233,-0.185394 -5.411587,-0.1367 z m -19.019655,0.07593 c -6.489072,0 -7.50835,0.203629 -9.725135,1.942276 -2.230896,1.749714 -2.915249,3.182772 -4.28167,8.967903 l -1.101335,4.662801 h -0.990968 c -1.129856,0 -1.114535,-0.08815 -0.488682,2.806038 0.37543,1.73625 0.350228,1.975698 -0.651057,6.214919 l -1.041357,4.408879 h 2.992992 2.992734 l 1.108259,-4.357375 1.10806,-4.357636 h 2.571677 2.571675 l -0.950447,4.357636 -0.950386,4.357375 h 2.852639 2.85264 L 61.593082,60.2331 64.944075,45.731687 Z m -4.019955,5.027207 c 0.335654,-0.0087 0.708825,0.0038 1.126812,0.02781 l 1.535378,0.08834 -1.214836,5.143351 -1.214839,5.143362 -2.461744,0.08189 c -1.353913,0.04494 -2.53061,-0.0087 -2.614847,-0.119242 -0.08434,-0.110428 0.26765,-1.983619 0.782337,-4.162687 1.19941,-5.078047 1.712151,-6.144409 4.061733,-6.202822 z M 45.022957,76.12877 43.769495,81.435651 c -0.689387,2.918717 -1.298082,5.342978 -1.352788,5.387226 -0.05469,0.04427 -0.395984,-0.354889 -0.758563,-0.886925 l -0.659488,-0.967269 1.042816,-4.415068 1.042819,-4.415058 H 41.29447 c -0.984431,0 -1.831145,0.04831 -1.881628,0.107386 -0.05052,0.05918 -0.0023,0.498614 0.106962,0.976547 l 0.198831,0.86891 -0.828874,3.484087 -0.828877,3.484098 -1.117313,0.949245 c -0.614508,0.522162 -1.125645,0.926755 -1.135846,0.89904 -0.01022,-0.02772 0.514422,-2.446654 1.165854,-5.37538 l 1.184328,-5.324905 h -1.382926 -1.383184 l -1.362505,5.615905 -1.362768,5.615924 1.072201,1.472553 c 0.589696,0.809909 1.142607,1.472552 1.228521,1.472552 0.08591,0 0.600815,-0.337433 1.144405,-0.749927 l 0.988342,-0.749927 -0.152222,0.818946 c -0.09836,0.529013 -0.0926,0.816125 0.01609,0.810698 0.09245,-0.0038 0.754107,-0.117482 1.470303,-0.251092 l 1.302312,-0.243105 0.163069,-0.509391 c 0.08978,-0.280184 0.207721,-0.509402 0.261955,-0.509402 0.05424,0 0.366275,0.30965 0.693495,0.688116 0.327226,0.378476 0.660632,0.689743 0.740799,0.691735 0.08015,0.0019 0.933146,-0.641982 1.895423,-1.430575 l 1.749622,-1.433674 1.299522,-5.654533 1.299325,-5.654803 -1.408376,-0.03946 z m 17.012307,0 -1.427008,0.03946 -1.42701,0.03946 -1.332936,5.463462 c -0.879924,3.606968 -1.337841,5.703891 -1.347952,6.171412 -0.02314,1.074589 0.578497,1.907555 1.669079,2.311321 0.104914,0.03888 1.481713,0.07564 3.059475,0.08161 l 2.868619,0.01087 1.62212,-7.019208 1.621874,-7.019439 H 65.9586 64.575416 l -1.441353,5.809065 -1.441092,5.809074 -0.687454,0.04302 c -0.84355,0.05283 -1.342929,-0.159276 -1.442303,-0.612149 -0.05179,-0.236147 0.32132,-2.022227 1.198356,-5.735408 z m -45.680531,7.89e-4 -1.640094,1.387568 c -0.902043,0.76313 -1.691367,1.387559 -1.753929,1.387559 -0.06255,0 -0.570615,-0.622475 -1.129105,-1.38318 l -1.015598,-1.38293 H 9.1080876 7.4001585 l -1.6660484,7.053698 -1.6661158,7.053967 h 1.4521988 1.4524586 l 1.2878709,-5.428712 1.2878708,-5.428693 0.6667816,0.959292 0.666463,0.959561 -1.0555923,4.469132 -1.0556503,4.46942 h 1.4524586 1.452209 l 1.050963,-4.449586 1.050906,-4.449318 1.112929,-0.926322 c 0.612197,-0.509478 1.138622,-0.893035 1.169648,-0.852425 0.03108,0.04061 -0.507034,2.459588 -1.195795,5.375649 l -1.252303,5.302002 h 1.453498 1.453479 l 1.622108,-7.019208 1.622166,-7.019438 -1.704138,-0.03888 z m 62.00458,0.0038 -0.911213,3.70197 -0.911275,3.702229 -0.459847,0.04321 c -0.25285,0.02377 -0.472114,0.09623 -0.487348,0.1607 -0.01522,0.06448 0.06976,0.62619 0.189068,1.248242 0.215642,1.12386 0.213959,1.143934 -0.270098,3.193357 l -0.486905,2.062539 h 3.670807 3.670806 l 0.22936,-1.141105 0.229358,-1.141106 -2.169429,-0.03811 -2.169435,-0.03811 0.227858,-0.964709 0.227795,-0.964441 h 2.218603 2.218608 l 0.229111,-1.141115 0.229359,-1.141105 -2.127301,-0.06929 -2.127603,-0.0691 0.541431,-2.451389 0.541206,-2.451677 2.190517,-0.03811 2.190771,-0.03811 0.277674,-1.175615 0.277675,-1.175615 -3.619867,-0.03686 z m 15.901073,0 -3.639331,0.03686 -3.63933,0.03686 -0.910724,3.6999 -0.910727,3.69991 h -0.412557 c -0.511085,0 -0.53396,0.0983 -0.30342,1.309793 0.177534,0.933107 0.166887,1.034691 -0.331966,3.146742 l -0.515708,2.182302 h 3.6654 3.665146 l 0.277674,-1.175625 0.277675,-1.175614 h -2.143692 -2.143921 l 0.228708,-0.968309 0.228651,-0.968059 h 2.14392 2.143662 l 0.277674,-1.175644 0.277675,-1.175614 h -2.143662 -2.143921 l 0.588075,-2.489777 0.588017,-2.489536 h 2.143919 2.143662 L 93.96581,77.38064 Z m -23.640781,0.0038 c -0.678414,0 -1.340795,0.03782 -1.472039,0.08401 -0.213228,0.07506 -0.413912,0.825643 -1.884949,7.053698 l -1.646282,6.970013 h 1.4522 1.452463 l 0.32646,-1.38216 0.326516,-1.38242 0.668052,-0.413341 c 0.367479,-0.227303 0.706173,-0.385722 0.752725,-0.352041 0.04654,0.03368 0.179841,0.63948 0.296259,1.346121 0.116419,0.706622 0.252205,1.486968 0.301683,1.734201 l 0.09004,0.44964 h 1.538474 c 0.705037,0 1.088801,-0.0048 1.291692,-0.03791 0.202917,-0.03272 0.224997,-0.09325 0.206614,-0.204217 -0.373263,-2.252369 -0.712704,-4.887535 -0.659294,-5.117879 0.02212,-0.09527 0.343461,-0.398983 0.714142,-0.67497 l 0.674038,-0.501924 0.849372,-3.750904 0.849118,-3.750895 h -1.383183 -1.382924 l -0.845979,3.288378 -0.845979,3.288378 -1.045649,0.683988 c -0.575172,0.376272 -1.091405,0.651172 -1.147097,0.61087 -0.05569,-0.04023 0.31693,-1.843368 0.827944,-4.006885 l 0.929131,-3.933738 z m -47.034703,0.03176 c -1.625315,-0.02059 -3.013541,0.01068 -3.085071,0.06929 -0.07152,0.05861 -0.05679,0.510941 0.03294,1.005397 0.15665,0.863414 0.184235,0.901889 0.696332,0.968309 l 0.533271,0.069 -1.123152,4.910034 c -1.271383,5.558079 -1.138016,5.255906 -2.318665,5.255906 -0.353138,0 -0.689694,0.03859 -0.748031,0.08574 -0.05832,0.04715 -0.0077,0.451767 0.112141,0.899031 L 17.903079,90.245 h 2.695028 2.695287 l 0.226946,-0.960842 0.227007,-0.961101 -0.716368,-0.04177 -0.716372,-0.04176 1.176091,-4.979322 1.176025,-4.979033 0.742134,-0.04225 0.74206,-0.04196 0.194412,-0.995361 0.194658,-0.995341 z m 4.338249,0.03734 -1.693754,7.019449 -1.693691,7.019207 h 3.408646 3.408642 l 0.292907,-1.625014 c 0.161186,-0.893834 0.369224,-2.107548 0.462179,-2.697102 l 0.16901,-1.072087 -0.780755,0.01386 c -1.503229,0.02666 -1.46771,-0.0048 -1.859572,1.653846 l -0.341179,1.444491 -0.665314,0.04196 -0.665322,0.04196 1.362036,-5.92032 1.362297,-5.92032 h -1.382924 z m 26.901392,0 c -3.059907,0 -3.629376,0.104355 -4.628242,0.848046 -1.107503,0.824614 -1.477529,1.579169 -2.130567,4.343981 L 47.5116,83.74446 h -0.483896 c -0.266247,0 -0.491029,0.02906 -0.499482,0.06486 -0.01968,0.08334 0.284816,1.587916 0.385409,1.904168 0.04201,0.13209 -0.151875,1.205601 -0.430617,2.385748 l -0.506553,2.145733 h 1.448596 1.448597 l 0.536281,-2.109155 0.536603,-2.109433 1.21954,-0.03984 1.219564,-0.03994 -0.5076,2.149082 -0.507661,2.149342 h 1.453746 1.453489 l 1.621844,-7.019208 1.62217,-7.019449 z m -1.656679,2.420508 h 0.946675 l -0.604379,2.558814 -0.604375,2.558785 h -1.179994 c -0.444391,0 -0.741047,-0.01203 -0.929433,-0.04244 -0.188383,-0.03051 -0.268482,-0.07939 -0.279336,-0.152973 -0.01578,-0.107444 0.211691,-1.128075 0.505573,-2.268045 0.664942,-2.579514 0.725182,-2.654085 2.145267,-2.654085 z"
       sodipodi:nodetypes="ccccscccscccccccscsccccccccssccsccccscccsccccscsscscscsssscsscsccssscccccsccssscsccccsccscscccsscsscsccccscsccccccccscccccsccccssssccsccccscscscsccccccccccssccscsccccsscccsscsccccccccscccccccccscccccsccsssccccscccccccscccccccsccccccccscccscscsccccsccccccscccccccsscccccccccccccsssccccccccccscccscccccsscccccssccscccccccccccccsssssccccssscsccscscccccsscssssscscscccccccccccccscccccccscccssccccsccccccscccccccscccccccsscccccccccccccccccccccccscccsccccccccccccccccccccscccccccccccsccccccccccccccccccccccccccccccscccccccccccccccccccccccscscccccccsccscccccccccccccscscscccsssccccccccccccccccccccccccscccccccscscsssccccccccccccccsccccssccsc" /></g></svg>
