<?xml version="1.0" encoding="UTF-8" standalone="no"?>
<!-- Created with Inkscape (http://www.inkscape.org/) -->

<svg
   width="105.83334mm"
   height="105.83334mm"
   viewBox="0 0 105.83333 105.83333"
   version="1.1"
   id="svg1"
   xml:space="preserve"
   inkscape:version="1.4 (e7c3feb100, 2024-10-09)"
   sodipodi:docname="minnesota.svg"
   inkscape:export-filename="../pngs/millwaukee.png"
   inkscape:export-xdpi="96"
   inkscape:export-ydpi="96"
   xmlns:inkscape="http://www.inkscape.org/namespaces/inkscape"
   xmlns:sodipodi="http://sodipodi.sourceforge.net/DTD/sodipodi-0.dtd"
   xmlns="http://www.w3.org/2000/svg"
   xmlns:svg="http://www.w3.org/2000/svg"><sodipodi:namedview
     id="namedview1"
     pagecolor="#ffffff"
     bordercolor="#000000"
     borderopacity="0.25"
     inkscape:showpageshadow="2"
     inkscape:pageopacity="0.0"
     inkscape:pagecheckerboard="0"
     inkscape:deskcolor="#d1d1d1"
     inkscape:document-units="mm"
     inkscape:zoom="0.74418225"
     inkscape:cx="643.65953"
     inkscape:cy="75.250383"
     inkscape:window-width="1920"
     inkscape:window-height="1011"
     inkscape:window-x="0"
     inkscape:window-y="32"
     inkscape:window-maximized="1"
     inkscape:current-layer="layer1"
     showgrid="false"
     showguides="true" /><defs
     id="defs1"><filter
       id="mask-powermask-path-effect61_inverse"
       inkscape:label="filtermask-powermask-path-effect61"
       style="color-interpolation-filters:sRGB"
       height="100"
       width="100"
       x="-50"
       y="-50"><feColorMatrix
         id="mask-powermask-path-effect61_primitive1"
         values="1"
         type="saturate"
         result="fbSourceGraphic" /><feColorMatrix
         id="mask-powermask-path-effect61_primitive2"
         values="-1 0 0 0 1 0 -1 0 0 1 0 0 -1 0 1 0 0 0 1 0 "
         in="fbSourceGraphic" /></filter><clipPath
       clipPathUnits="userSpaceOnUse"
       id="clipPath61"><path
         style="fill:none;fill-opacity:1;stroke:#1a1a1a;stroke-width:0.3;stroke-dasharray:none;stroke-opacity:1"
         d="m 19.343363,137.48906 1.575839,2.57864 -1.432581,4.72752 -0.859548,2.14887 -0.573032,3.58145 2.005613,2.43539 62.460506,-10.02807 2.148872,-6.30335 2.721904,-5.87358 -26.932515,3.72471 -6.446612,0.85955 -0.143256,-3.86797 -5.730322,0.71629 -1.146067,2.57864 -4.154482,1.43258 -3.867967,2.14888 -7.019645,0.14326 -1.432581,-2.57865 z"
         id="path61" /></clipPath></defs><g
     inkscape:label="Capa 1"
     inkscape:groupmode="layer"
     id="layer1"><g
       id="g260"
       transform="translate(-135.59599,25.261721)"><path
         style="fill:#78be20;fill-opacity:1;stroke:none;stroke-width:10.39;stroke-dasharray:none;stroke-opacity:1"
         d="M 176.24047,5.7700298 170.55529,0 168.77337,0.33941353 c 0,0 0.84854,5.00634947 0.84854,5.34576287 0,0.3394135 1.95162,3.9032555 2.03648,4.6669356 0.0848,0.763681 1.18794,3.563842 1.18794,3.563842 0,0 3.98811,1.272801 4.58209,2.036481 0.59397,0.763681 2.5456,8.400485 2.5456,9.503579 0,1.103093 1.61221,6.78827 1.61221,6.78827 L 193.296,35.1293 c 0,0 3.13958,-4.582083 3.30928,-4.921496 0.16971,-0.339415 2.12134,-8.570192 2.03648,-8.909606 -0.0849,-0.339413 2.71531,-7.636804 2.71531,-7.636804 l 2.96987,0.933387 c 0,0 1.18795,-1.01824 1.18795,-1.442507 0,-0.424267 1.01824,-4.4123759 1.18794,-4.8366427 C 206.87254,7.8913642 209.16358,0.08485338 208.82417,0 c -0.33941,-0.08485338 -3.13958,0.33941353 -3.90326,1.1030939 -0.76368,0.7636805 -9.07931,7.8065111 -9.07931,7.8065111 0,0 -3.22443,2.630455 -3.98811,2.715308 -0.76368,0.08485 -6.27915,0.169707 -6.44885,-0.169707 -0.16971,-0.339413 -4.24267,-3.648695 -4.24267,-3.648695 z"
         id="path258" /><ellipse
         style="fill:#ffffff;fill-opacity:1;stroke:none;stroke-width:11.4666;stroke-dasharray:none;stroke-opacity:1"
         id="path259"
         cx="182.74899"
         cy="11.070332"
         rx="2.0354416"
         ry="2.0844886" /><path
         style="fill:#78be20;fill-opacity:1;stroke:none;stroke-width:10.39;stroke-dasharray:none;stroke-opacity:1"
         d="m 142.95617,38.609669 3.11872,24.076519 5.23945,-0.997989 3.99196,-1.871232 1.24749,-11.975885 0.99799,3.617714 -0.12475,6.611686 -0.499,0.623745 0.7485,0.498996 22.33003,-3.742465 0.99799,-2.245479 -3.86721,-0.498994 -0.12475,-1.995982 3.11872,-0.623745 1.12274,0.124751 1.12274,4.989952 6.36219,0.374245 2.49497,-0.374245 1.74649,-5.738445 0.62374,5.239449 4.24146,0.997989 h 2.99397 l 5.6137,1.372238 2.37023,-1.122738 0.37424,-1.621735 -3.11872,-1.12274 -1.12274,-11.851135 -49.40052,-0.997992 z"
         id="path252" /><path
         style="fill:#78be20;fill-opacity:1;stroke:none;stroke-width:10.39;stroke-dasharray:none;stroke-opacity:1"
         d="m 207.7008,41.853138 2.86922,10.853147 v 4.366207 l 2.37023,1.122741 2.74447,-0.2495 0.99799,-8.607665 1.24749,-0.2495 -0.37425,9.106665 v 0.873241 l 4.98996,1.496984 2.99397,-0.249497 3.61771,2.120731 2.86922,-0.2495 1.49699,-1.995979 -0.499,-4.615707 -2.37022,-5.613696 -1.24749,-2.744473 3.49297,-0.498996 1.12273,-0.249497 -0.37424,-2.619724 -1.24749,-3.742465 -3.24347,-1.372238 -3.11872,1.621735 -2.86922,-0.374245 -8.10867,1.372237 z"
         id="path253" /><path
         style="fill:#236192;fill-opacity:1;stroke:none;stroke-width:10.39;stroke-dasharray:none;stroke-opacity:1"
         d="m 148.19562,30.376248 5.1147,-8.108672 13.97186,-4.11671 3.24347,-2.869224 h 2.86923 l 0.37424,9.979906 1.74649,1.122739 -1.74649,11.35214 -2.37023,2.24548 -17.96382,-6.736435 z"
         id="path247" /><path
         style="fill:#236192;fill-opacity:1;stroke:none;stroke-width:10.39;stroke-dasharray:none;stroke-opacity:1"
         d="m 204.20783,16.903377 -0.87324,8.732417 -1.62174,0.374247 0.99799,11.352141 2.49498,3.742463 18.21333,-8.607666 6.61168,-1.247489 -5.1147,-8.482917 c 0,0 -7.85917,-2.869224 -8.73241,-3.492969 -0.87325,-0.623744 -8.48292,-3.991962 -8.48292,-3.991962 l -2.61973,-0.498993 z"
         id="path248" /><ellipse
         style="fill:#ffffff;fill-opacity:1;stroke:none;stroke-width:11.4666;stroke-dasharray:none;stroke-opacity:1"
         id="path259-8"
         cx="194.5488"
         cy="10.845701"
         rx="2.0354416"
         ry="2.0844886" /><path
         style="fill:#236192;fill-opacity:1;stroke:none;stroke-width:10.39;stroke-dasharray:none;stroke-opacity:1"
         d="m 179.50757,-9.0443745 -5.8632,6.237441 3.11872,7.609676 7.36018,5.3641995 1.87124,1.496986 6.86118,-0.623744 5.86319,-5.7384455 4.98995,-6.985933 -4.24145,-6.23744 c 0,0 -6.23745,-3.2434685 -7.85918,-3.2434685 -1.62173,0 -12.10063,2.1207285 -12.10063,2.1207285 z"
         id="path249" /><path
         style="fill:#236192;fill-opacity:1;stroke:none;stroke-width:10.39;stroke-dasharray:none;stroke-opacity:1"
         d="m 175.26611,14.034156 -3.99196,3.991962 3.99196,14.969855 5.23945,-0.623745 c 0,0 -0.499,-9.356159 -0.87324,-10.104652 -0.37425,-0.748493 -4.36621,-8.23342 -4.36621,-8.23342 z"
         id="path250" /><path
         style="fill:#236192;fill-opacity:1;stroke:none;stroke-width:10.39;stroke-dasharray:none;stroke-opacity:1"
         d="m 204.83157,15.406391 -2.99397,0.124751 -4.24146,11.227392 -0.87324,5.863193 c 0,0 6.11269,1.621735 6.11269,0.873242 0,-0.748493 3.24347,-15.718351 3.24347,-15.718351 z"
         id="path251" /><path
         style="fill:#ffffff;fill-opacity:1;stroke:none;stroke-width:10.39;stroke-dasharray:none;stroke-opacity:1"
         d="m 184.96743,22.087653 -1.33326,1.82212 1.86656,1.777678 3.15538,1.466585 2.88873,-0.977723 2.62207,-1.955446 -1.95544,-2.310982 -1.24438,2.577634 -4.6664,0.08888 z"
         id="path260" /><path
         id="path81"
         style="fill:#0c2340;fill-opacity:1;stroke-width:0.108218"
         d="m 188.64987,-13.982726 c -5.81615,0.0037 -6.21619,0.03906 -7.29252,0.644013 -1.0945,0.615146 -1.16843,0.620639 -1.90005,0.141267 -0.61462,-0.402713 -0.84433,-0.429792 -1.19273,-0.140649 -0.23734,0.196967 -0.4315,0.579467 -0.4315,0.850037 0,0.380717 -0.19277,0.46365 -0.85267,0.366797 -0.72842,-0.106906 -0.88068,-0.01354 -1.04488,0.640663 -0.18514,0.737669 -0.21273,0.747196 -0.75171,0.259425 -0.73877,-0.668565 -1.50419,-0.210717 -1.62324,0.97094 -0.074,0.7344885 -0.18945,0.8465155 -0.75994,0.7374625 -0.84838,-0.162176 -1.0431,0.159055 -1.07552,1.774056 -0.0149,0.744255 -0.17856,1.351351 -0.38559,1.4308 -0.19779,0.0759 -0.51646,0.969175 -0.70816,1.985112 -0.4294,2.275748 -0.71174,2.812825 -1.21448,2.310078 -0.45225,-0.452252 -1.29855,-0.463315 -1.57218,-0.02057 -0.28487,0.460934 -0.14578,3.361612 0.18936,3.949197 0.14918,0.261545 0.52587,1.764605 0.83712,3.340135 0.41813,2.116592 0.78861,3.174688 1.41871,4.052094 0.78368,1.0912435 0.83219,1.2976485 0.59884,2.5467505 -0.13967,0.747597 -0.17908,1.554392 -0.0876,1.792846 0.10867,0.283214 -0.008,0.433518 -0.33555,0.433518 -0.27605,0 -0.92857,0.452373 -1.45003,1.005278 -0.53132,0.563358 -1.6248,1.254274 -2.48747,1.571671 -1.66611,0.613003 -7.69133,2.399523 -10.48714,3.109506 -1.91665,0.486725 -3.28465,1.592027 -5.46544,4.415876 -1.88497,2.440783 -4.23407,6.51288 -4.04354,7.009377 0.0958,0.249749 1.25127,0.767785 2.67408,1.198886 1.37793,0.417499 3.99901,1.288982 5.82464,1.936681 4.66172,1.653886 15.49972,6.23263 15.24409,6.440191 -0.0499,0.04048 -0.99985,-0.03111 -2.1111,-0.159104 -1.11126,-0.127995 -2.92984,-0.239368 -4.0413,-0.247516 -1.76496,-0.01294 -10.53741,-0.901952 -12.98261,-1.315653 -0.47936,-0.0811 -1.52103,-0.208337 -2.31478,-0.282748 -0.79375,-0.07441 -1.96269,-0.264978 -2.5977,-0.423508 -1.57411,-0.392986 -3.13242,-0.373523 -3.55029,0.04435 -0.43574,0.435744 -0.44833,1.456643 -0.0232,1.881766 0.43974,0.43973 2.87245,19.856217 2.65894,21.222075 -0.10888,0.696538 -0.0335,1.244041 0.21206,1.539903 0.23338,0.281209 0.66698,0.409804 1.11902,0.33185 1.44897,-0.249873 8.44593,-2.497949 8.86996,-2.849857 0.28585,-0.237246 0.38055,-0.656972 0.27989,-1.240828 -0.0837,-0.48528 0.13259,-2.700761 0.48055,-4.923268 l 0.63266,-4.04091 0.0919,2.886371 c 0.0513,1.611247 -0.0636,3.551371 -0.26016,4.391662 -0.28195,1.205253 -0.27884,1.593548 0.0156,1.948257 0.49421,0.595493 1.06282,0.563479 4.77277,-0.268822 4.34071,-0.973806 11.12688,-2.074664 15.29588,-2.481319 3.69241,-0.360167 4.46844,-0.725142 4.47829,-2.106411 0.003,-0.339601 0.13715,-0.812282 0.29936,-1.050407 0.21272,-0.312288 0.24257,-0.13043 0.10714,0.652569 -0.32202,1.862019 -0.1,1.945126 5.19512,1.945126 3.24694,0 4.77497,-0.105488 5.01582,-0.346333 0.19049,-0.190501 0.35548,-1.002285 0.36663,-1.803976 0.0239,-1.716446 0.50284,-3.227205 0.5367,-1.692912 0.0315,1.42817 0.46876,2.272398 1.63939,3.16543 0.99049,0.755614 1.28964,0.824966 3.69805,0.857417 1.44121,0.01942 2.9451,0.17082 3.34198,0.336435 1.22647,0.511799 6.64116,1.066918 7.16764,0.734833 0.25635,-0.161708 0.6593,-1.03578 0.89544,-1.942385 0.57942,-2.224552 0.30347,-2.641955 -1.70963,-2.585897 l -1.50652,0.042 0.0977,-5.670404 c 0.0537,-3.118707 0.0116,-5.805177 -0.0936,-5.96993 -0.10517,-0.164754 0.15665,-0.452176 0.58176,-0.638701 0.42512,-0.186524 2.59133,-1.137527 4.81383,-2.113345 6.77799,-2.975954 14.9846,-6.010474 17.52442,-6.47995 1.79753,-0.332266 1.93182,-0.789224 0.84691,-2.881731 -0.1109,-0.213902 -0.29097,-0.487611 -0.42775,-0.724991 l -3.96878,-5.588756 c -0.41864,-0.493838 -0.83435,-0.97366 -1.19519,-1.333268 -1.2037,-1.199626 -1.57634,-1.373898 -4.87668,-2.280945 -1.96536,-0.540148 -5.1453,-1.48701 -7.06654,-2.104117 -2.87932,-0.924843 -3.56409,-1.254565 -3.89663,-1.876285 -0.22188,-0.414846 -0.7717,-0.909156 -1.22186,-1.098502 -0.75081,-0.315803 -0.8288,-0.492583 -0.94332,-2.138285 -0.11316,-1.626198 -0.045,-1.907144 0.72868,-3.0030845 0.64418,-0.912523 0.97163,-1.881539 1.33511,-3.951098 0.26489,-1.508129 0.66247,-3.029744 0.88354,-3.381349 0.0253,-0.04015 0.043,-0.09904 0.0659,-0.145624 l 0.30501,-1.57200595 c 0.0222,-0.511151 0.007,-1.019011 -0.0855,-1.42514805 l -0.40405,-0.750327 c -0.30478,-0.219873 -0.57304,-0.219062 -1.08905,0.01605 -0.39964,0.182089 -0.76474,0.331125 -0.81128,0.331125 -0.0466,0 -0.24397,-0.746879 -0.43872,-1.659693 -0.19475,-0.91282 -0.54024,-2.027363 -0.76772,-2.476794 -0.22748,-0.449425 -0.4136,-1.310273 -0.4136,-1.912968 0,-1.233001 -0.56926,-1.888671 -1.44166,-1.660535 -0.47696,0.124734 -0.5788,0.01 -0.5788,-0.6521715 0,-1.182915 -0.67796,-1.641043 -1.56675,-1.058689 -0.67091,0.439592 -0.708,0.431049 -0.79518,-0.182364 -0.071,-0.499567 -0.28513,-0.645522 -0.95741,-0.652796 -0.65996,-0.0071 -0.88708,-0.155821 -0.95495,-0.625058 -0.12242,-0.846578 -0.861,-1.058895 -1.72165,-0.494977 -0.6777,0.444048 -0.78513,0.434063 -1.86499,-0.172856 -1.0866,-0.610708 -1.4642,-0.643818 -7.29962,-0.640046 z m -2.07213,4.8535345 c 0.12888,-0.01062 0.25047,0.0094 0.33364,0.06269 0.16633,0.106583 0.88687,0.211879 1.60126,0.233983 1.38629,0.0429 1.44786,0.168284 0.85199,1.735522 -0.32926,0.866028 -1.08091,0.885192 -1.39495,0.03558 -0.13203,-0.357191 -0.31342,-0.844271 -0.40305,-1.082397 -0.0896,-0.238121 -0.17324,-0.01086 -0.18577,0.505102 -0.0298,1.228821 -0.48845,1.191616 -1.09923,-0.08919 -0.4171,-0.874652 -0.4292,-1.064797 -0.0813,-1.279811 0.11237,-0.06944 0.24855,-0.110812 0.37742,-0.121462 z m 4.51889,0.03222 c 0.5688,0.148735 0.56878,0.1539 -0.002,1.272872 h -6e-5 c -0.65957,1.292866 -1.13871,1.453974 -1.13871,0.382908 0,-1.132301 0.4798,-1.828648 1.14084,-1.65578 z m -6.67121,0.08724 c 0.47896,0 1.20084,1.049276 1.20084,1.745422 0,0.535099 -0.54564,0.264296 -1.1349,-0.563259 -0.73259,-1.02882 -0.7411,-1.182163 -0.0659,-1.182163 z m 8.4631,0 c 0.67516,0 0.6666,0.153343 -0.066,1.182163 -0.58926,0.827555 -1.13485,1.098358 -1.13485,0.563259 0,-0.696146 0.72187,-1.745422 1.20085,-1.745422 z m 13.41373,0.374467 c 0.0477,0.194252 0.071,0.401138 0.0824,0.612083 0.0602,-0.183073 0.02,-0.392661 -0.0824,-0.612083 z m -22.94793,1.580226 0.70301,0.66051 c 0.80758,0.758688 0.89443,1.137086 0.261,1.137086 -0.24311,0 -0.51674,0.194833 -0.60812,0.432959 -0.1919,0.500081 -0.56366,0.520428 -1.47542,0.0807 -0.88598,-0.427291 -0.81519,-0.933614 0.23504,-1.681452 z m 10.60531,0 0.88448,0.629805 c 1.05396,0.75048 1.09078,0.990549 0.24299,1.584363 -0.81745,0.572572 -1.08746,0.535729 -1.87948,-0.256684 l -0.64485,-0.645186 0.69843,-0.656153 z m -14.06725,1.567251 c 0.17771,-0.01361 0.3757,0.06603 0.68557,0.231859 0.91673,0.49062 0.90313,0.631033 -0.11951,1.23512 -0.98799,0.583624 -1.51603,0.623098 -1.99031,0.148815 -0.44039,-0.440356 -0.44416,-0.808147 -0.008,-0.808147 0.18594,0 0.57686,-0.216145 0.86871,-0.480269 0.22876,-0.207027 0.38618,-0.313786 0.56388,-0.327378 z m 17.53645,0.0036 c 0.18192,0.01844 0.3476,0.134754 0.5953,0.358918 0.33173,0.3002 0.77084,0.437914 1.05221,0.329946 0.43933,-0.168589 0.44382,-0.12621 0.0498,0.47009 -0.55034,0.832919 -1.30774,0.930537 -2.31517,0.298297 -0.97522,-0.612028 -0.98323,-0.742791 -0.075,-1.228858 0.31272,-0.167363 0.51091,-0.24683 0.69283,-0.228393 z m 3.17935,1.674511 c 0.97507,0.0055 1.60292,0.413582 1.32612,0.861446 -0.12219,0.197713 -0.0431,0.46835 0.17951,0.614822 0.32533,0.213995 0.3026,0.317655 -0.12471,0.569074 -0.28736,0.169077 -0.95395,0.686258 -1.4813,1.14928105 -1.07679,0.945434 -1.31559,1.024005 -1.31559,0.43296 0,-0.224884 0.3572,-0.675371 0.79377,-1.00108205 0.70292,-0.524444 0.7277,-0.593994 0.21648,-0.60778 -0.53099,-0.01428 -0.51941,-0.06078 0.14434,-0.57998 0.8586,-0.671599 0.62776,-0.726722 -0.70732,-0.168889 -0.53759,0.224615 -1.05658,0.329251 -1.15331,0.23253 -0.31922,-0.31923 1.35828,-1.506891 2.12201,-1.502382 z m -23.92927,0.0421 c 0.53936,0.04284 1.12759,0.220807 1.55093,0.553811 0.98109,0.771731 0.69893,1.265104 -0.39884,0.697421 -1.18591,-0.61326 -1.71902,-0.523516 -0.86385,0.145398 0.66374,0.519188 0.67533,0.565669 0.14433,0.57998 -0.51122,0.01379 -0.48645,0.08334 0.21648,0.607781 0.43657,0.32571005 0.79372,0.77619705 0.79372,1.00108105 0,0.597539 -0.32144,0.493488 -1.34025,-0.433911 -0.49902,-0.45423405 -1.14842,-0.96763205 -1.44316,-1.14083505 -0.43692,-0.256759 -0.46245,-0.363244 -0.13814,-0.576569 0.22268,-0.146471 0.30171,-0.417109 0.17952,-0.614822 -0.36275,-0.586939 0.40034,-0.89077 1.29926,-0.819335 z m 20.75524,2.065421 c 0.28286,-0.0066 0.42855,0.169848 0.6033,0.629471 0.42382,1.11474305 0.36474,1.29949305 -0.41569,1.29949305 -0.3875,0 -0.78486,0.129866 -0.88297,0.288617 -0.0981,0.158752 0.037,0.288623 0.30014,0.288623 0.73963,0 2.44195,0.89057495 2.44195,1.27751195 0,0.190182 -0.41116,0.64975 -0.91368,1.021273 -0.69473,0.513648 -0.86979,0.561216 -0.73064,0.198584 0.10066,-0.262291 0.0508,-0.476914 -0.11089,-0.476914 -0.52211,0 -2.11966,0.911515 -2.93564,1.674961 -0.74128,0.693555 -0.81883,0.70951 -1.16287,0.239015 -0.32733,-0.447648 -0.47962,-0.274786 -1.3591,1.543206 -0.54474,1.126034 -1.24176,2.270068 -1.54897,2.542276 -0.53712,0.475907 -0.55287,0.467152 -0.40941,-0.226715 0.082,-0.396875 0.25156,-0.966572 0.37664,-1.266046 0.3974,-0.951408 -0.52042,-0.383393 -1.29966,0.804344 -0.43245,0.659152 -0.76134,0.935842 -0.83494,0.702453 -0.20368,-0.645982 -1.21601,-1.972471 -1.50534,-1.972471 -0.15614,0 -0.19356,0.492742 -0.0877,1.154536 0.10154,0.635003 0.13049,1.154539 0.0644,1.154539 -0.21921,0 -1.94947,-3.014323 -2.28654,-3.983365 -0.31012,-0.891614 -0.36439,-0.922771 -0.84668,-0.48631 -0.37331,0.337839 -0.57247,0.373863 -0.72275,0.130694 -0.29798,-0.482147 -2.7738,-2.011062 -3.25659,-2.011062 -0.24346,0 -0.34051,0.174157 -0.24119,0.432961 0.26282,0.684928 -0.21438,0.50666 -1.08984,-0.407126 l -0.80485,-0.840078 0.67869,-0.430439 c 0.37327,-0.236748 1.10193,-0.518694 1.61926,-0.62657095 1.05596,-0.220196 0.99205,-0.726441 -0.0917,-0.726441 -0.53953,0 -0.70346,-0.152116 -0.7001,-0.649438 0.01,-1.45818405 0.42766,-1.58335005 2.20321,-0.66000905 0.90466,0.47045505 2.42315,1.57448905 3.37441,2.453413 l 1.72955,1.598067 -0.17404,-1.082393 c -0.0957,-0.595318 -0.0847,-1.07728995 0.0243,-1.07110195 0.10909,0.0063 0.62462,0.59063095 1.14559,1.29881595 0.52097,0.708187 1.05094,1.287637 1.17774,1.287637 0.12681,0 0.67472,-0.616953 1.21757,-1.371016 l 0.98699,-1.37101495 0.14434,1.09978495 0.14434,1.099792 1.11819,-1.148665 c 1.25925,-1.29353695 3.74647,-3.05587 4.72647,-3.348973 0.13092,-0.03919 0.24047,-0.06168 0.33476,-0.06386 z m -27.75863,2.21763705 c 0.1643,0 1.42397,1.18243795 2.79925,2.62761795 l 2.5005,2.627615 -0.0598,1.846253 c -0.0329,1.015452 -0.16153,1.846253 -0.28589,1.846253 -0.44382,0 -0.49854,-0.46514 -0.19047,-1.619316 0.29069,-1.089052 0.24955,-1.262826 -0.58652,-2.47802 -0.49453,-0.718766 -1.70388,-2.104163 -2.68747,-3.078634 -0.98358,-0.974478 -1.65392,-1.77176895 -1.48962,-1.77176895 z m 38.19264,0 c 0.1424,0 -0.34396,0.55204895 -1.08083,1.22673495 -0.73689,0.674693 -1.91553,2.004902 -2.61923,2.956056 -1.20129,1.623736 -1.26853,1.811959 -1.10013,3.081432 0.0986,0.743632 0.0638,1.423471 -0.0774,1.510768 -0.14124,0.08731 -0.34248,-0.570343 -0.44722,-1.461443 -0.13941,-1.186238 -0.0792,-1.789921 0.22476,-2.253879 0.58299,-0.889741 4.78623,-5.05966895 5.1001,-5.05966895 z M 170.71961,4.0614155 c 0.1766,0.05887 0.43213,0.681371 0.56779,1.383376 0.31382,1.623885 0.77292,2.149072 0.77292,0.884149 0,-0.553616 0.11875,-0.867278 0.28862,-0.762291 0.15875,0.09811 0.28937,0.852623 0.29013,1.676693 0.001,1.0856 0.19734,1.816309 0.71257,2.652837 0.83003,1.3476235 0.88986,1.6311005 0.29618,1.4032845 -0.54976,-0.210961 -0.55534,0.30639 -0.0123,1.135245 0.55047,0.840133 0.21273,1.458144 -0.50863,0.930676 -0.43022,-0.314585 -0.48456,-0.624524 -0.32301,-1.842394 0.17583,-1.325487 0.10658,-1.6007965 -0.73137,-2.9066175 -0.97913,-1.525851 -1.93667,-4.74953 -1.35295,-4.554958 z m 36.12917,0.0082 c 0.19961,-0.04862 0.1107,0.414568 -0.25272,1.958379 -0.2092,0.888749 -0.73651,2.082765 -1.17175,2.653396 -0.67641,0.886829 -0.78052,1.271738 -0.71666,2.6503205 0.055,1.18756 -0.0506,1.738151 -0.40064,2.088178 -0.43871,0.43871 -0.4893,0.439091 -0.65603,0.0045 -0.0994,-0.258946 0.0258,-0.76555 0.27805,-1.125737 0.57279,-0.817798 0.57947,-1.103704 0.0257,-1.103704 -0.58087,0 -0.55511,-0.116453 0.31764,-1.4352725 0.66216,-1.000576 0.72644,-1.310102 0.54542,-2.626217 -0.16233,-1.180253 -0.12479,-1.465185 0.17951,-1.363746 0.21159,0.07053 0.45918,0.443341 0.55024,0.828448 0.14587,0.616865 0.18974,0.637261 0.36875,0.171462 0.11176,-0.290797 0.20323,-0.891844 0.20323,-1.335675 0,-0.443829 0.19484,-0.968655 0.43296,-1.166281 0.13117,-0.108866 0.22974,-0.18193 0.29628,-0.198136 z m -10.71077,0.799911 c 0.0737,0.07373 -0.57273,0.969121 -1.43656,1.989697 -0.86382,1.020577 -1.57061,1.959003 -1.57061,2.085438 0,0.126434 -0.1427,0.229901 -0.31714,0.229901 -0.17443,0 -0.68113,0.389665 -1.12602,0.8659175 -0.80277,0.859378 -1.8224,1.131298 -2.16479,0.577297 -0.10142,-0.164103 0.14481,-0.288676 0.5707,-0.288676 0.60886,0 0.96923,-0.3511465 1.92539,-1.8761165 1.1525,-1.838127 1.65147,-2.37626 1.27118,-1.371017 -0.10508,0.277813 0.46253,-0.136485 1.26136,-0.920667 0.79882,-0.784182 1.51275,-1.365507 1.58649,-1.291774 z m -14.7829,0.170837 c 0.0142,-0.01181 0.0399,-0.01123 0.077,0.0022 0.17811,0.06384 0.61959,0.421145 1.32365,1.112316 0.80249,0.787785 1.37311,1.205079 1.26801,0.927264 -0.38028,-1.005242 0.11869,-0.46711 1.2712,1.371017 0.94471,1.506726 1.32047,1.8761185 1.90838,1.8761185 0.40263,0 0.73204,0.129925 0.73204,0.288675 0,0.613769 -1.37499,0.247089 -2.1648,-0.577296 -0.45628,-0.4762515 -1.00014,-0.8659175 -1.20856,-0.8659175 -0.20843,0 -0.37893,-0.122331 -0.37893,-0.271844 0,-0.149511 -0.64946,-1.013957 -1.44322,-1.921022 -1.02365,-1.169795 -1.48444,-1.858715 -1.38477,-1.94138 z m 19.20263,2.432387 0.16811,1.628599 c 0.36173,3.5048885 -0.70445,5.5785185 -3.65868,7.1157455 -1.60976,0.837638 -1.67016,0.984085 -0.81541,1.979183 0.23946,0.278786 0.36075,0.58155 0.26949,0.672814 -0.27243,0.272423 -1.36995,-0.444854 -1.36995,-0.895333 0,-0.22933 -0.67679,-0.803557 -1.50401,-1.276003 -1.55103,-0.885828 -2.02909,-0.942157 -1.38236,-0.162905 0.20398,0.2458 0.31995,0.487053 0.25763,0.536081 -0.0623,0.04903 -0.90961,0.565409 -1.88288,1.147547 -0.97327,0.582138 -1.88248,1.056958 -2.02045,1.055162 -0.13799,-0.0018 -0.9947,-0.488874 -1.90381,-1.082396 -1.27491,-0.832341 -1.61493,-1.20114 -1.48683,-1.612718 0.13955,-0.448371 0.0578,-0.500678 -0.51186,-0.327319 -0.96116,0.292507 -2.55408,1.539457 -2.55408,1.999316 0,0.397398 -0.83571,0.864194 -1.09067,0.609228 -0.0781,-0.07816 0.0904,-0.496982 0.37462,-0.930732 0.43362,-0.661767 0.45154,-0.827271 0.11129,-1.028933 -4.38317,-2.597889 -4.75405,-3.134736 -4.69789,-6.800281 0.0202,-1.3167705 0.0923,-2.4497295 0.16033,-2.5177255 0.068,-0.068 0.58969,0.0051 1.15934,0.162345 0.75474,0.208393 1.16141,0.550869 1.49909,1.26247 0.57943,1.2210535 0.58956,1.7210635 0.0305,1.5065195 -0.23813,-0.09138 -0.43296,-0.09884 -0.43296,-0.01655 0,0.38876 0.89496,1.817167 1.22064,1.948203 0.28696,0.115462 0.28826,0.152573 0.006,0.170398 -0.63127,0.03987 -0.38892,0.518406 0.43547,0.859878 1.19073,0.493211 2.82664,0.468657 3.62495,-0.05441 0.78067,-0.511509 1.06288,-0.39335 1.06288,0.444981 0,0.304778 0.42212,1.143939 0.93806,1.86482 0.77445,1.082085 0.95352,1.208708 1.02647,0.726109 0.0486,-0.321507 -0.11377,-1.068276 -0.36082,-1.659525 -0.57903,-1.385826 -0.56653,-1.846889 0.056,-2.067655 0.27781,-0.09853 0.73238,-0.374375 1.0102,-0.612975 0.45092,-0.38728 0.56175,-0.382545 1.03296,0.0439 0.29032,0.26273 0.6723,0.477697 0.84886,0.477697 0.62776,0 0.65294,0.570576 0.0977,2.215235 -0.30941,0.916527 -0.49628,1.773686 -0.41528,1.904751 0.22875,0.370134 2.11591,-2.451734 2.11591,-3.163922 0,-0.598761 0.0432,-0.610678 0.79372,-0.219163 1.15583,0.602935 3.2417,0.521966 4.11311,-0.159661 0.39688,-0.31044 0.54981,-0.567337 0.33984,-0.570865 -0.26342,-0.0044 -0.19632,-0.242143 0.21649,-0.766932 0.70214,-0.892629 0.75622,-1.259899 0.18543,-1.259899 -0.32753,0 -0.35787,-0.191612 -0.14679,-0.9276005 0.33871,-1.180999 1.0419,-1.842871 2.18039,-2.052163 z m -18.97239,1.990479 c 0.15876,0 0.28862,0.107906 0.28862,0.239745 0,0.131838 0.58637,0.6607995 1.30302,1.1754525 0.71664,0.514655 1.22854,1.056213 1.13753,1.203471 -0.32043,0.51847 -1.0654,0.257405 -2.03644,-0.713638 -0.94446,-0.94446 -1.29375,-1.9050305 -0.69273,-1.9050305 z m 14.3185,0.05962 c 0.44004,-0.140616 -0.0518,1.0291985 -0.86798,1.8454135 -0.9575,0.957501 -1.71572,1.232562 -2.02375,0.734162 -0.12916,-0.208982 0.55154,-0.835569 2.64433,-2.4342325 0.10268,-0.07843 0.18454,-0.125256 0.2474,-0.145343 z m -20.99966,5.5688465 -0.16609,1.443159 c -0.0914,0.793753 -0.3416,1.699377 -0.55605,2.012514 -0.36742,0.536513 -0.38948,0.519887 -0.38235,-0.288621 0.004,-0.471886 0.25439,-1.377512 0.55605,-2.012514 z m 30.11198,0.36065 c 0.17091,0.0161 0.4095,0.06765 0.71202,0.160499 0.85994,0.26392 1.17625,0.588168 1.7334,1.776965 0.37483,0.799778 0.76235,1.941258 0.86117,2.536573 0.27083,1.631738 0.78074,1.333976 0.61789,-0.360818 -0.0763,-0.793754 -0.0287,-1.443213 0.10581,-1.443213 0.13445,0 2.35594,0.640758 4.93664,1.423863 2.58067,0.783104 5.43901,1.630961 6.35182,1.884171 1.65805,0.459927 1.65964,0.461491 1.65964,1.585986 0,2.671326 -1.17578,8.541271 -1.94864,9.728258 -0.11988,0.184099 -1.51641,0.854416 -3.10341,1.489575 -1.587,0.63516 -4.80825,2.010712 -7.15831,3.056771 -2.35006,1.046059 -4.3396,1.901897 -4.42119,1.901897 -0.0816,0 -0.0824,-0.227286 -0.002,-0.505099 0.0806,-0.277815 0.29491,-1.089597 0.47619,-1.803976 0.18128,-0.714377 0.6682,-2.060916 1.08201,-2.992291 l 0.75239,-1.693415 1.31643,0.156641 c 0.72406,0.08612 1.95371,0.430079 2.73253,0.764361 0.77883,0.334281 1.51084,0.571235 1.6267,0.526573 0.22789,-0.08785 -3.59692,-8.631208 -6.01187,-13.428595 -0.81854,-1.626048 -1.42249,-3.127864 -1.34211,-3.337339 0.0812,-0.21153 -0.17914,-0.554927 -0.58551,-0.772413 -0.80794,-0.43239 -0.90455,-0.703256 -0.39186,-0.654974 z m -32.71963,3.24e-4 c 0.51403,-0.04874 0.41807,0.221838 -0.39062,0.65464 -0.44665,0.239034 -0.66944,0.553802 -0.57188,0.808036 0.0879,0.229065 -0.56703,1.837469 -1.4554,3.57423 -2.18972,4.280856 -6.15527,13.156519 -5.96378,13.348011 0.0852,0.08517 0.29668,0.04331 0.47003,-0.09295 0.59211,-0.465401 3.65456,-1.47906 4.4685,-1.47906 0.72195,0 0.91215,0.216836 1.7088,1.948314 0.76504,1.662792 0.86647,2.143764 0.69216,3.282254 l -0.20429,1.333996 -4.47387,-1.980638 c -2.46063,-1.089356 -5.5325,-2.383928 -6.82639,-2.876804 -2.22751,-0.848512 -2.37737,-0.961184 -2.81971,-2.11944 -0.64343,-1.684785 -1.22811,-4.759924 -1.44265,-7.587568 l -0.17997,-2.371487 1.66562,-0.462094 c 0.91608,-0.254159 3.77707,-1.1028 6.35776,-1.885904 2.58069,-0.783104 4.80525,-1.423864 4.94351,-1.423864 0.13826,0 0.18741,0.567606 0.10922,1.261295 -0.17696,1.569953 0.36399,2.030663 0.63423,0.540165 0.10768,-0.593925 0.4916,-1.733846 0.85316,-2.533162 0.54214,-1.1985 0.84233,-1.510042 1.71204,-1.776963 0.30309,-0.09303 0.54219,-0.144756 0.71353,-0.161007 z m 30.33999,0.07197 c 0.12814,0 0.39228,0.568908 0.58697,1.26426 0.42765,1.527417 0.27931,2.786171 -0.19115,1.622112 -0.41665,-1.030924 -0.67109,-2.886372 -0.39582,-2.886372 z m -26.77477,1.587496 -0.19315,0.72158 c -0.10624,0.396876 -0.33239,1.37104 -0.50253,2.164792 -0.17015,0.793752 -0.46781,1.67632 -0.66146,1.961287 -0.32675,0.480807 -0.36565,0.482842 -0.54005,0.02836 -0.25604,-0.667224 0.55452,-3.268608 1.29445,-4.154433 z m 25.88799,0.577241 0.56739,0.644405 c 0.31206,0.354393 0.72622,1.306532 0.92039,2.115916 0.22016,0.917722 0.25101,1.573656 0.0819,1.742739 -0.32151,0.321514 -0.83392,-0.618822 -1.05918,-1.943783 -0.0846,-0.49742 -0.23402,-1.276752 -0.33213,-1.731836 z m 3.11102,0.288676 2.15092,4.329531 c 2.33423,4.698456 4.35464,9.136986 4.22026,9.271365 -0.0464,0.04635 -0.64175,-0.08035 -1.3231,-0.281518 -1.18161,-0.348892 -1.20773,-0.380006 -0.56577,-0.674827 0.64027,-0.29404 0.61784,-0.319807 -0.46053,-0.529315 -0.99953,-0.194189 -1.20821,-0.133451 -1.76478,0.5136 -0.34716,0.403605 -1.05336,1.753695 -1.56937,3.000232 -0.51602,1.246537 -0.97527,2.307536 -1.02055,2.357784 -0.18792,0.208561 -0.42478,-0.557853 -0.96993,-3.138698 -0.31663,-1.498967 -0.74,-3.467957 -0.9408,-4.375555 -0.36687,-1.658213 -0.16396,-2.536961 0.3668,-1.588559 0.436,0.77909 0.8265,0.305474 0.8265,-1.002426 0,-0.647017 0.13054,-1.970706 0.29007,-2.941513 0.15951,-0.970807 0.39579,-2.479477 0.52512,-3.352605 z m -32.26079,0.163074 c 0.16213,-0.04078 0.20921,0.423415 0.26021,1.80459 0.043,1.165855 0.20543,2.563007 0.36082,3.104809 0.15539,0.541801 0.28252,1.646223 0.28252,2.454252 0,1.730443 0.19673,2.026582 0.91463,1.376889 0.49617,-0.449025 0.52853,-0.441613 0.52853,0.120906 0,0.329571 -0.25036,1.681082 -0.55632,3.003309 -0.30597,1.322225 -0.7048,3.150852 -0.88633,4.063668 -0.33032,1.660874 -0.73474,2.103479 -1.05506,1.154595 -0.51425,-1.523375 -1.97905,-4.445477 -2.43552,-4.858565 -0.4019,-0.363725 -0.7887,-0.426893 -1.62172,-0.264853 -1.04628,0.203526 -1.06465,0.226254 -0.42093,0.521877 0.64197,0.294821 0.6159,0.325935 -0.56572,0.674827 -0.68134,0.201176 -1.26614,0.338474 -1.29949,0.305117 -0.19584,-0.195841 5.52221,-12.258021 6.28948,-13.267593 0.084,-0.11055 0.15086,-0.180235 0.2049,-0.193828 z m 11.35714,0.604698 c 0.10266,-0.03202 0.15053,0.07724 0.18292,0.292145 0.11344,0.75273 0.51237,1.093844 1.2868,1.100403 0.32327,0.0028 0.4527,-0.132971 0.33985,-0.356344 -0.10024,-0.198437 0.24928,0.126258 0.77671,0.721579 0.52745,0.595322 1.11054,1.082403 1.29575,1.082397 0.18521,-7e-6 0.46233,0.357212 0.61583,0.793775 0.2572,0.73152 0.29741,0.749073 0.51265,0.224142 0.32031,-0.781222 2.45132,-2.771489 2.76194,-2.579521 0.45157,0.279088 1.43342,-0.206785 1.66098,-0.821962 0.20173,-0.545323 0.30822,-0.476028 1.1504,0.748031 0.99004,1.438971 2.03674,3.56646 2.04724,4.16109 0.0141,0.802798 -0.92568,0.262409 -2.635,-1.5153 -0.99217,-1.031878 -1.90194,-1.876172 -2.02168,-1.876172 -0.11974,0 -0.30545,0.487083 -0.41272,1.082396 -0.2489,1.381377 -0.51264,1.698353 -1.75398,2.108031 -0.83073,0.274163 -1.23807,0.246827 -2.28648,-0.153566 -1.1454,-0.437432 -1.29423,-0.603312 -1.45747,-1.624127 -0.10001,-0.625299 -0.27492,-1.19445 -0.38878,-1.264818 -0.21262,-0.1314 -1.23286,0.712067 -1.64868,1.363021 -0.12831,0.200871 -0.49305,0.505719 -0.81055,0.677454 -0.3175,0.171735 -0.70547,0.593856 -0.86217,0.938059 -0.1677,0.368328 -0.54844,0.625839 -0.92531,0.625839 -0.62401,0 -0.62978,-0.02987 -0.22727,-1.170701 0.22718,-0.643888 0.96829,-2.017786 1.64689,-3.053134 0.6577,-1.003481 0.98102,-1.449348 1.15213,-1.502717 z m -7.73281,1.425207 c 0.15846,0.160313 -0.65553,3.432903 -1.05191,4.229204 -0.47847,0.961195 -0.90418,0.794547 -0.69116,-0.270557 0.20944,-1.047202 1.56897,-4.134793 1.74307,-3.958647 z m 25.06083,0.38039 c 0.1796,-0.179609 1.33367,2.508997 1.55763,3.628811 0.20387,1.019327 -0.23683,1.158901 -0.69468,0.220003 -0.40739,-0.835428 -1.04273,-3.669039 -0.86295,-3.848814 z m -46.87434,2.044838 -0.0174,1.731778 c -0.0203,2.015212 0.21627,3.713872 0.81821,5.875979 0.23679,0.850503 0.36749,1.609402 0.29041,1.686481 -0.12188,0.121888 -0.69889,-0.604876 -2.14035,-2.695893 -0.31885,-0.462527 -0.35338,-0.343346 -0.24909,0.859206 0.11364,1.310353 0.0831,1.38592 -0.49575,1.229753 -0.33925,-0.09152 -1.2987,-0.327191 -2.13214,-0.523722 -0.83344,-0.19653 -1.51535,-0.511767 -1.51535,-0.700496 0,-0.518873 2.73372,-4.498206 4.17233,-6.073443 z m 38.04901,0.01449 c 0.0908,-0.0027 0.18933,0.05735 0.29092,0.188294 0.62143,0.800992 0.6813,1.456121 0.16866,1.845135 -0.77422,0.587506 -0.94354,0.491457 -0.93867,-0.532614 0.004,-0.919706 0.20675,-1.492729 0.47909,-1.500815 z m 30.49484,0.10782 0.98733,0.949075 c 1.10178,1.05911 4.40262,5.845305 4.40262,6.383764 0,0.190153 -0.68191,0.519284 -1.51535,0.731367 -3.01994,0.768468 -2.77336,0.81741 -2.53199,-0.502529 0.11806,-0.645609 0.14674,-1.241796 0.0637,-1.324825 -0.083,-0.08304 -0.58157,0.488432 -1.10784,1.269908 -1.04274,1.548379 -1.79814,2.233282 -1.427,1.293843 0.51942,-1.314792 1.08873,-4.756345 1.10784,-6.696989 z m -37.946,0.0118 c 0.14817,0.05129 0.22403,0.410175 0.2734,1.092575 0.0945,1.306665 -0.0631,1.4465 -0.90847,0.805912 -0.49332,-0.373813 -0.49843,-0.455267 -0.0721,-1.145366 0.33858,-0.548107 0.55904,-0.804411 0.70721,-0.753121 z m -2.49614,1.742014 c 0.41535,0 2.00307,0.884304 2.62045,1.459486 1.80162,1.678458 4.85673,1.889677 6.56322,0.453762 0.98548,-0.829225 2.93663,-1.913248 3.44365,-1.913248 0.16507,0 0.30014,0.201264 0.30014,0.447274 0,0.24601 0.2079,0.849412 0.46204,1.340875 0.43961,0.850087 0.42482,0.988594 -0.30417,2.846666 -0.42144,1.074209 -1.07779,2.289267 -1.45853,2.700091 -0.69069,0.745279 -0.70294,0.746912 -5.44761,0.746912 -5.46205,0 -5.08223,0.178869 -6.65823,-3.13456 l -0.85071,-1.788653 0.53681,-1.579275 c 0.29525,-0.86862 0.65209,-1.57933 0.79294,-1.57933 z m 4.38903,0.646864 c 0.078,0.0028 0.17964,0.13325 0.37004,0.393645 0.31863,0.435742 0.446,0.466393 0.63909,0.153957 0.17614,-0.284993 0.29676,-0.30026 0.44728,-0.0567 0.14958,0.242014 0.31009,0.247128 0.5853,0.01874 0.27833,-0.231 0.41919,-0.21552 0.52959,0.05816 0.11726,0.290674 0.21622,0.277946 0.44901,-0.05772 0.243,-0.35039 0.36755,-0.361563 0.66901,-0.06013 0.30144,0.301446 0.29021,0.421092 -0.0602,0.642616 -0.52788,0.333732 -3.17794,0.360383 -3.68747,0.03708 -0.21935,-0.139185 -0.28876,-0.448401 -0.17007,-0.757707 0.0959,-0.250025 0.15037,-0.374772 0.2284,-0.371946 z m 52.79811,4.381357 -8.26438,1.981938 c -0.22927,0.555191 -1.0908,0.898957 -3.99243,1.778588 -5.18552,1.571992 -16.13314,5.841859 -16.84943,6.57172 -0.34739,0.353978 2.03222,0.193083 7.64886,-0.517123 2.14314,-0.270993 4.80583,-0.523128 5.91709,-0.560297 1.11125,-0.03717 2.50336,-0.278647 3.09357,-0.53664 1.51792,-0.663513 3.82853,-0.608567 5.00586,0.11906 0.52342,0.323488 1.21263,1.135273 1.53158,1.803976 0.54652,1.145827 1.25363,4.689707 1.24854,6.257209 -0.003,0.985504 -1.04368,1.74162 -2.39654,1.74162 h -1.12238 l 0.98459,1.948315 c 2.66774,5.27881 2.85184,10.446455 0.45745,12.840841 -1.46434,1.464343 -2.84799,1.481858 -5.46991,0.06913 -1.02452,-0.552023 -2.25849,-1.005931 -2.74211,-1.00869 -1.34197,-0.0077 -7.39483,-1.65657 -7.96062,-2.168596 -0.30899,-0.279624 -0.76048,-0.387079 -1.18307,-0.28163 -0.9978,0.24898 -4.92342,-0.650923 -5.54636,-1.271418 -0.4391,-0.437362 -0.67621,-0.477516 -1.33992,-0.226993 -0.5971,0.225378 -1.68096,0.179954 -4.17614,-0.174984 -1.85337,-0.263642 -3.50084,-0.560359 -3.66108,-0.659393 -0.16024,-0.09903 -1.42762,-0.198776 -2.81641,-0.221624 -2.23107,-0.03671 -2.66423,-0.133641 -3.71996,-0.832532 l -1.19486,-0.790989 -0.71884,0.718839 c -0.70959,0.709591 -0.78183,0.718839 -5.62175,0.718839 -2.92052,0 -4.97427,-0.115412 -5.07936,-0.285433 -0.11025,-0.178404 -0.41425,-0.134534 -0.81077,0.117048 -0.34892,0.221379 -1.60856,0.490447 -2.79919,0.597876 -5.33691,0.481538 -13.35118,1.80399 -17.72177,2.924343 -0.93634,0.24002 -2.17657,0.402157 -2.75607,0.360316 -0.63043,-0.04552 -1.33234,0.119113 -1.74744,0.409862 -0.38157,0.267261 -1.47928,0.733491 -2.43938,1.036036 -0.9601,0.302546 -2.81265,0.888863 -4.1168,1.302957 -2.84391,0.903001 -3.5809,0.934285 -4.26269,0.180912 -0.39636,-0.437973 -0.4793,-0.860654 -0.35383,-1.803978 0.19575,-1.471825 -2.15571,-20.133888 -2.70759,-21.488382 -0.48466,-1.189505 -0.0191,-2.306892 1.07558,-2.581645 0.42934,-0.107759 1.70014,-0.04349 2.82401,0.142772 1.12387,0.186261 2.47495,0.38865 3.00241,0.449791 0.52748,0.06114 2.02117,0.255353 3.31934,0.431562 4.83618,0.656446 10.33541,1.176174 12.37668,1.169691 l 2.1064,-0.0067 -2.45341,-1.110806 c -3.38041,-1.530555 -11.0878,-4.437927 -14.61434,-5.512774 -1.62861,-0.496381 -3.15495,-1.14598 -3.44454,-1.465974 -0.28663,-0.316724 -0.38644,-0.494631 -0.32246,-0.809156 l -8.56011,-1.63789 4.1661,40.072661 46.09506,-8.373324 50.10692,7.447522 z M 177.4544,25.626917 c 0.20828,0 0.37867,0.273681 0.37867,0.608166 0,0.398839 0.13725,0.555465 0.39878,0.455105 0.45462,-0.17445 0.74743,1.117867 0.75262,3.321455 h -5e-5 c 0.005,1.959368 -0.49891,1.974006 -0.71924,0.02092 -0.25996,-2.304458 -0.33787,-2.429748 -0.59234,-0.952487 -0.17493,1.015527 -0.26886,1.168329 -0.44353,0.72158 -0.12188,-0.31173 -0.23071,-1.003247 -0.24186,-1.536773 l -0.0203,-0.970103 -0.56768,0.681426 -0.56768,0.681426 -0.01,-0.661125 c -0.0113,-0.7767 1.0859,-2.369585 1.63218,-2.369585 z m 22.4798,0 c 0.53628,0 1.56828,1.556281 1.56071,2.353646 l -0.006,0.677064 -0.56444,-0.72158 -0.56444,-0.721633 -0.0104,0.865916 c -0.006,0.476252 -0.0985,1.19062 -0.20619,1.587496 -0.17758,0.654352 -0.22835,0.600592 -0.54497,-0.57724 l -0.34918,-1.298875 -0.0571,1.298875 c -0.0709,1.611476 -0.36579,2.712583 -0.65033,2.428025 -0.25928,-0.259263 -0.27679,-2.449924 -0.0314,-3.934098 0.16,-0.967942 0.23436,-1.042698 0.75809,-0.762402 0.52401,0.280433 0.56659,0.237305 0.43671,-0.442187 -0.0951,-0.497575 -0.0173,-0.753007 0.22934,-0.753007 z m -15.62683,1.424312 c -0.27337,-6.71e-4 -0.0396,0.523441 0.7454,1.441592 0.6171,0.721805 1.18043,1.046457 2.08085,1.199164 1.17379,0.199071 2.37584,0.140179 3.97677,-0.194893 0.40772,-0.08533 1.06566,-0.646035 1.51261,-1.289032 0.85468,-1.229571 0.54816,-1.495322 -0.6467,-0.560688 -0.59433,0.464898 -1.1797,0.564435 -3.31933,0.564435 -2.13961,0 -2.725,-0.09953 -3.31933,-0.564435 -0.51965,-0.406474 -0.86625,-0.595751 -1.03027,-0.596143 z m 45.33611,11.280304 c -1.01092,0.0017 -1.82515,0.220729 -2.71837,0.73131 -0.91704,0.52419 -1.33422,0.633359 -1.48545,0.388667 -0.15915,-0.257511 -1.60383,-0.18176 -5.94079,0.311606 -3.15176,0.358539 -5.85261,0.724611 -6.00192,0.81346 -0.14929,0.08884 -1.23566,0.147439 -2.41415,0.130189 -3.35786,-0.04914 -4.25392,0.576209 -3.35999,2.344812 0.68093,1.34716 2.73593,12.310566 2.53713,13.535576 -0.20934,1.290068 0.3801,1.701001 3.19814,2.229553 1.9167,0.359493 2.01896,0.349924 2.49127,-0.233369 0.35151,-0.434088 0.45619,-0.962516 0.36557,-1.845359 -0.0698,-0.680391 0.13161,-2.406078 0.44762,-3.834832 l 0.57456,-2.597695 -0.0895,3.463613 c -0.0492,1.905004 -0.1813,3.860689 -0.29354,4.345971 -0.14496,0.626774 -0.0793,0.985867 0.2266,1.239765 0.67418,0.559526 6.86901,2.123815 7.83945,1.979575 0.62967,-0.09358 1.1023,0.06425 1.70517,0.56958 0.45873,0.384501 1.20828,0.773934 1.66567,0.865411 0.45739,0.09148 0.90149,0.27945 0.98693,0.417696 0.0854,0.138245 0.65728,0.251376 1.2707,0.251376 1.39263,0 2.76244,-1.249722 3.09703,-2.825474 0.67847,-3.195186 -0.087,-7.202591 -2.10501,-11.019697 -0.54278,-1.026685 -0.98688,-1.957111 -0.98688,-2.067653 0,-0.110544 0.70651,-0.139817 1.57,-0.06504 1.41355,0.122409 1.61504,0.06718 2.02218,-0.554199 0.33859,-0.51676 0.38505,-0.901607 0.18489,-1.53191 -0.14701,-0.462978 -0.35117,-1.554622 -0.45371,-2.425843 -0.37785,-3.21075 -1.70195,-4.62146 -4.33356,-4.617088 z m -85.44994,0.918492 c 0.15141,0.01365 0.35518,0.04651 0.62372,0.09199 2.06506,0.349739 2.19888,0.428389 2.05037,1.20526 -0.14146,0.740018 0.83968,9.414887 1.15263,10.191136 0.096,0.238126 0.40119,-1.774702 0.67819,-4.472917 0.31319,-3.050792 0.40506,-5.090038 0.24293,-5.392969 -0.44179,-0.825489 -0.31428,-0.886905 1.39898,-0.673821 2.05439,0.255515 2.19406,0.339266 1.71248,1.026809 -0.3179,0.453877 -0.3239,1.051105 -0.0338,3.37257 0.19387,1.55155 0.44198,3.578782 0.55135,4.504962 0.10938,0.926181 0.24166,1.640549 0.29394,1.587496 0.25409,-0.257882 1.32128,-8.777773 1.17332,-9.367275 -0.16444,-0.655195 -0.12505,-0.671977 1.20532,-0.51343 2.11077,0.251547 2.12212,0.259577 1.68033,1.182555 -0.43667,0.912285 -2.53782,14.190622 -2.58948,16.364347 l -0.0336,1.412625 -1.2944,0.38699 c -1.79376,0.536236 -1.95715,0.506342 -1.79754,-0.328608 0.19314,-1.010375 -0.53815,-7.526596 -0.78964,-7.036052 -0.30454,0.594034 -0.92209,7.294059 -0.72068,7.818924 0.12886,0.335825 -0.14669,0.564184 -1.07133,0.887839 -0.68465,0.239649 -1.45082,0.52011 -1.70259,0.623266 -0.39075,0.160105 -0.44274,-0.03611 -0.35544,-1.34048 0.0966,-1.442933 -2.19599,-19.525548 -2.65726,-20.959291 -0.15482,-0.481203 -0.17202,-0.612912 0.28219,-0.571928 z m 85.59025,0.268151 c 1.73961,0.09283 2.89034,1.720558 2.89034,4.417555 0,0.587332 0.13447,1.319076 0.29881,1.62614 0.28023,0.523624 0.18942,0.558337 -1.46262,0.558337 -1.6942,0 -1.75357,-0.02472 -1.55574,-0.648039 0.33215,-1.046484 0.19339,-2.291064 -0.31071,-2.787275 -0.4297,-0.422982 -0.50318,-0.414732 -0.88398,0.09898 -0.91588,1.235585 -0.53592,3.130553 1.43991,7.181566 1.82681,3.745502 2.47591,5.827464 2.47277,7.930938 -0.002,1.401199 -0.48598,3.102009 -1.04012,3.656157 -0.62418,0.624181 -1.80088,0.55005 -3.28197,-0.206748 -1.81299,-0.926395 -2.34753,-1.808605 -2.60636,-4.301738 -0.12108,-1.166217 -0.31531,-2.351731 -0.43162,-2.634436 -0.19014,-0.462137 -0.0842,-0.494556 1.04951,-0.321226 1.85293,0.283281 2.34312,0.594582 1.98628,1.261352 -0.42854,0.800745 -0.3567,2.095595 0.15699,2.828995 1.00569,1.435825 1.79866,0.285656 1.46771,-2.128891 -0.10335,-0.754013 -0.98375,-2.841594 -2.12755,-5.04479 -1.84623,-3.556202 -1.95675,-3.879583 -2.05346,-6.009019 -0.12507,-2.753935 0.51132,-4.299002 2.07671,-5.041828 0.68991,-0.327382 1.33523,-0.466978 1.9151,-0.436034 z m -6.11488,1.048228 c 0.95126,-0.01873 0.99689,0.356396 1.03732,1.75728 l 0.0304,1.053708 -1.81521,-0.09898 -1.81516,-0.09898 0.0834,2.697071 c 0.08,2.588408 0.11084,2.701001 0.76605,2.793707 0.37549,0.05312 0.82362,-0.0443 0.99582,-0.21648 0.74547,-0.745473 1.06349,-0.321158 1.06349,1.418776 0,1.315451 -0.1,1.731777 -0.4159,1.731777 -0.22876,0 -0.49618,-0.129869 -0.59429,-0.288619 -0.0981,-0.158749 -0.56039,-0.288619 -1.02726,-0.288619 h -0.84891 v 2.869314 c 0,1.65465 0.12569,2.947049 0.2969,3.052856 0.16328,0.100908 0.94186,0.216096 1.7302,0.255962 0.78833,0.03987 1.51469,0.153783 1.61406,0.253164 0.0994,0.09938 0.0921,0.771163 -0.0161,1.492875 -0.10822,0.72171 -0.28621,1.301872 -0.39554,1.289256 -0.10933,-0.01262 -1.04306,-0.264167 -2.07493,-0.55901 -1.03188,-0.294842 -2.42983,-0.679612 -3.10654,-0.855067 -1.08262,-0.280699 -1.19526,-0.3846 -0.93806,-0.86519 0.38925,-0.72732 0.392,-15.44494 0.003,-16.171748 -0.25739,-0.48094 -0.154,-0.557249 0.93806,-0.692444 0.67504,-0.08357 2.11624,-0.265346 3.20268,-0.403935 0.5517,-0.07038 0.96943,-0.120417 1.28652,-0.126666 z m -65.63165,0.656093 c 0.13252,-0.01005 0.3168,-0.0072 0.56606,0.0059 0.33233,0.01767 0.78019,0.05387 1.37481,0.102622 4.14806,0.340072 4.21339,0.363578 4.36387,1.568707 0.0725,0.580581 0.098,1.096996 0.0567,1.147602 -0.0413,0.05061 -0.82782,-0.04714 -1.74783,-0.217206 -0.92001,-0.170074 -1.7831,-0.19888 -1.91795,-0.06403 -0.13485,0.13485 -0.20662,1.206753 -0.15949,2.381999 l 0.0857,2.136775 0.86592,-0.03808 c 0.47625,-0.02097 1.15811,-0.13353 1.51529,-0.250144 0.61522,-0.200858 0.64944,-0.135916 0.64944,1.232382 v 1.44439 l -1.51535,-0.03971 -1.5153,-0.0397 -0.0831,2.675038 -0.0831,2.675038 1.23764,-0.189022 c 0.68069,-0.10397 1.45635,-0.301117 1.72373,-0.438103 0.933,-0.478006 1.13609,-0.296405 0.93185,0.833314 -0.10763,0.595315 -0.22807,1.121158 -0.2676,1.168518 -0.0395,0.04737 -1.48111,0.404518 -3.20357,0.793721 -1.72245,0.389204 -3.1634,0.707655 -3.20205,0.707655 -0.0386,0 0.0564,-0.33316 0.21122,-0.740371 0.40242,-1.058455 0.36803,-15.588259 -0.0387,-16.348242 -0.17756,-0.331768 -0.24585,-0.478751 0.15172,-0.509127 z m 59.03476,0.08998 c 0.29543,-0.01287 0.49381,-0.0058 0.52383,0.02416 0.06,0.06003 -0.0272,0.349119 -0.19383,0.642391 -0.50264,0.884555 -2.82419,14.760756 -2.55117,15.248622 0.28454,0.508434 -0.35196,0.540887 -2.24419,0.114364 -1.12927,-0.254545 -1.15899,-0.292079 -1.06143,-1.340148 0.10983,-1.17984 -2.13572,-13.001731 -2.56901,-13.524785 -0.28099,-0.339208 0.85718,-0.686459 2.25002,-0.686459 0.53527,0 0.66938,0.121574 0.55716,0.5051 -0.0813,0.277816 0.21539,2.258596 0.65922,4.401729 0.74765,3.60993 0.82306,3.811698 1.02508,2.742089 0.11995,-0.635002 0.45471,-2.409825 0.74395,-3.944051 0.28924,-1.534224 0.46008,-3.041115 0.37966,-3.348634 -0.12711,-0.486078 0.0525,-0.582666 1.3746,-0.739251 0.41824,-0.04953 0.81069,-0.08226 1.10611,-0.09513 z m -51.7947,0.478144 1.73183,0.0017 c 2.39508,0.0023 3.72695,0.434999 4.62571,1.503108 0.72783,0.864987 0.76129,1.043724 0.668,3.569811 -0.0744,2.015551 -0.21905,2.79261 -0.59743,3.21028 -0.46247,0.510491 -0.46439,0.585852 -0.0264,1.023901 0.31332,0.313322 0.5333,1.212139 0.65206,2.664133 0.19943,2.438093 0.38845,2.20308 -2.09388,2.603342 -1.04723,0.168863 -1.08561,0.148 -0.77957,-0.423841 0.17704,-0.330797 0.28304,-1.344919 0.23555,-2.253599 -0.078,-1.492419 -0.15297,-1.661513 -0.77532,-1.749508 -0.37893,-0.05357 -0.79906,0.0763 -0.93364,0.288622 -0.33176,0.523403 -0.31734,2.633986 0.0241,3.532062 0.15268,0.401592 0.18514,0.787041 0.0721,0.856578 -0.113,0.06955 -0.78996,0.21387 -1.50434,0.320777 l -1.29887,0.194389 v -7.670839 z m 8.3705,0.548608 3.0307,0.196123 c 1.66688,0.107882 3.05329,0.212719 3.08093,0.232977 0.0277,0.02026 0.0926,0.423514 0.14435,0.896116 l 0.0941,0.859262 -1.94832,-0.09395 -1.94831,-0.09395 v 1.758118 c 0,1.981956 0.0276,2.003457 2.09265,1.635926 l 1.0824,-0.192656 v 1.135188 1.135189 l -1.51536,-0.0397 -1.51536,-0.0397 -0.0871,1.846813 c -0.0479,1.015753 0.0214,1.955201 0.15385,2.087674 0.13248,0.132474 1.0079,0.116065 1.9454,-0.03652 0.93751,-0.152588 1.75857,-0.223423 1.82456,-0.157425 0.066,0.06601 -0.002,0.485308 -0.15037,0.931794 -0.23971,0.719761 -0.44764,0.832717 -1.83407,0.996668 -0.86002,0.101698 -2.21308,0.241935 -3.00683,0.311603 l -1.44321,0.126668 v -6.748104 z m 24.27884,0.01432 c 0.9131,0.01572 1.79849,0.257168 2.39799,0.761619 l 0.88807,0.747248 v 4.900172 c 0,2.695084 -0.12719,5.137723 -0.28259,5.42809 -0.1554,0.290366 -0.6943,0.671454 -1.19759,0.846902 -2.00657,0.699496 -4.71683,-0.0696 -5.38084,-1.526931 -0.4621,-1.014209 -0.48282,-8.525716 -0.0263,-9.527717 0.4806,-1.054792 2.07941,-1.655581 3.60124,-1.629383 z m 7.18263,0.01371 -0.0885,5.901257 -0.0885,5.901255 0.99622,0.186897 c 0.57885,0.108593 1.26115,0.04505 1.6286,-0.151609 0.87532,-0.468459 1.02111,-0.197076 0.61762,1.149672 v 1.08e-4 c -0.19057,0.636026 -0.50362,1.141533 -0.69569,1.123333 -0.97464,-0.09235 -5.17061,-0.797226 -5.24292,-0.880738 -0.0459,-0.05303 0.0298,-1.019495 0.1681,-2.147681 0.13836,-1.128184 0.15413,-4.083102 0.0351,-6.566519 l -0.21637,-4.515308 1.44321,-3.25e-4 z m -13.13299,0.289289 c 0.79375,0 1.44244,0.03246 1.44244,0.07214 -4.4e-4,0.03968 -0.63764,2.572772 -1.41604,5.629022 -0.7784,3.056249 -1.34738,5.816305 -1.26443,6.133506 0.1372,0.524664 0.008,0.576737 -1.42889,0.576737 h -1.57973 l -0.18533,-1.994171 c -0.10193,-1.096786 -0.29873,-2.298237 -0.43726,-2.669893 -0.2174,-0.583233 -0.30056,-0.442334 -0.60755,1.029158 -0.19562,0.937683 -0.36798,2.139133 -0.38302,2.669892 l -0.0273,0.965014 h -1.53029 c -1.5109,0 -1.53028,-0.01108 -1.53028,-0.87358 0,-1.172564 -2.27929,-10.71651 -2.67331,-11.193841 -0.25136,-0.304516 -0.009,-0.360359 1.25027,-0.288621 1.3082,0.0745 1.57446,0.182719 1.63917,0.666214 0.18353,1.371258 1.04786,5.214292 1.21752,5.413437 0.1021,0.119877 0.41001,-0.952328 0.68422,-2.382725 0.3749,-1.955649 0.4201,-2.747298 0.18236,-3.191492 -0.30375,-0.567578 -0.25042,-0.587283 1.36168,-0.503589 1.45384,0.07548 1.66552,0.158978 1.58543,0.625447 -0.10624,0.618652 0.83775,5.739844 1.02373,5.55386 0.2623,-0.2623 1.22387,-4.409284 1.22853,-5.298459 0.005,-0.932605 0.0134,-0.938057 1.44813,-0.938057 z m 15.29778,0.865918 c -0.1796,0 -0.28862,1.635637 -0.28862,4.329585 v 4.32953 h 1.0102 c 1.23718,0 1.23055,0.109556 0.29024,-4.774735 -0.39601,-2.057037 -0.72055,-3.772553 -0.72163,-3.812241 -6.1e-4,-0.03968 -0.13144,-0.07214 -0.29019,-0.07214 z m -38.51956,0.307633 c -0.10904,-0.0039 -0.22894,0.0077 -0.36048,0.03293 -0.44461,0.08534 -0.52826,0.450718 -0.58384,2.549435 -0.0357,1.347383 -0.007,2.612156 0.0631,2.810595 0.13859,0.390723 0.69689,0.46363 1.4214,0.18561 0.36541,-0.140218 0.45656,-0.651866 0.45656,-2.562409 0,-2.200694 -0.23341,-2.988842 -0.99672,-3.016169 z m 28.99453,0.27257 c -0.16057,0 -0.32111,0.05797 -0.50511,0.173865 -0.43627,0.274793 -0.51609,0.883982 -0.58562,4.470179 -0.0708,3.65157 -0.0207,4.195752 0.41596,4.515026 0.27305,0.199668 0.65056,0.363056 0.8389,0.363056 0.84888,0 1.00601,-0.833748 0.92637,-4.915216 -0.0693,-3.550947 -0.14951,-4.158497 -0.58541,-4.433045 -0.18398,-0.115885 -0.34453,-0.173865 -0.50509,-0.173865 z m 25.10516,0.342755 c 0.17298,-0.03516 0.42626,0.04686 0.80469,0.203616 0.63408,0.262647 0.83105,0.548236 0.88006,1.276171 0.0605,0.899226 0.0176,0.939686 -1.0438,0.982014 l -1.10701,0.04412 0.0631,-1.156551 c 0.0495,-0.906601 0.11465,-1.290775 0.40292,-1.349374 z m -60.72057,0.595805 c 0.17109,-0.08798 0.5087,0.03016 1.1749,0.271062 1.16375,0.420818 1.34519,1.385166 0.2606,1.385166 -0.38389,0 -0.90343,0.07885 -1.15454,0.175208 -0.36432,0.139803 -0.45661,-0.03514 -0.45661,-0.865919 0,-0.583479 0.004,-0.877537 0.17565,-0.965517 z m 61.24973,0.282246 c -0.22442,-0.01912 -0.42665,0.09305 -0.42665,0.35187 0,0.245983 0.24729,0.44487 0.5532,0.44487 0.31422,0 0.50135,-0.15589 0.43312,-0.360817 -0.0887,-0.266388 -0.33527,-0.416797 -0.55967,-0.435923 z m -45.34132,0.264742 c 0.14766,0.01265 0.33848,0.0441 0.58479,0.08937 1.43466,0.263635 1.90194,0.731255 0.73075,0.731255 -0.49502,0 -1.10548,0.07885 -1.35659,0.175207 -0.33176,0.12731 -0.45656,2.16e-4 -0.45656,-0.465058 0,-0.43711 0.0546,-0.568688 0.49761,-0.53077 z m 47.42664,3.85133 0.86066,1.561435 c 0.47337,0.858804 0.86072,1.67059 0.86072,1.803976 0,0.133387 -0.0974,0.223097 -0.21648,0.199311 -0.11907,-0.02379 -0.58386,-0.09836 -1.0329,-0.1657 -0.58393,-0.08757 -0.76889,-0.246355 -0.64945,-0.557613 0.0919,-0.239361 0.16932,-0.976624 0.17224,-1.638331 z m -44.68444,0.373232 c 0.0458,-0.04683 0.13291,0.135494 0.2238,0.492685 0.44084,1.732473 0.39016,1.834774 -0.82844,1.671325 -0.66757,-0.08954 -1.19715,-0.02039 -1.31594,0.171796 -0.10932,0.176892 -0.45086,0.321616 -0.75898,0.321616 -0.40978,0 -0.56025,-0.199952 -0.56025,-0.744508 0,-0.679302 0.0769,-0.727615 0.87766,-0.551739 1.01632,0.223222 2.27734,-0.445273 2.3315,-1.235963 0.005,-0.06853 0.0154,-0.109602 0.0306,-0.125212 z m -18.82626,2.137837 1.15291,0.04333 c 1.03339,0.03884 1.15313,0.120053 1.1546,0.783598 0.001,0.56397 -0.24135,0.856173 -1.01842,1.226736 -0.56101,0.267527 -1.08055,0.486365 -1.15454,0.486365 -0.074,0 -0.13455,-0.571503 -0.13455,-1.270021 z m 1.17159,0.808261 c -0.32687,0 -0.59429,0.12987 -0.59429,0.28862 0,0.15875 0.18714,0.288621 0.4159,0.288621 0.22875,0 0.49624,-0.129871 0.59435,-0.288621 0.0981,-0.15875 -0.0891,-0.28862 -0.41596,-0.28862 z m 59.44228,0.0039 c 0.80698,0.02204 1.37675,0.423077 1.36313,0.959422 -0.009,0.343291 0.0847,0.981316 0.2077,1.41788 0.20945,0.743624 0.16689,0.793777 -0.67366,0.793777 -0.49346,0 -0.90936,-0.06497 -0.92423,-0.144338 -0.10999,-0.586582 -0.0881,-3.02989 0.027,-3.026741 z m 0.6944,1.817622 c -0.0412,0.01807 -0.0907,0.05707 -0.1497,0.11604 -0.17668,0.176669 -0.23395,0.462428 -0.12729,0.635011 0.29856,0.483086 0.44851,0.375694 0.44851,-0.321224 0,-0.349703 -0.048,-0.484024 -0.17152,-0.429827 z"
         sodipodi:nodetypes="ssssssssssssssssssssssssssssssssssssssssssccsssssscsssssssssccssssssccsssssssssccccsssssssssssssssssssssssssccssssssssssscccccscssccssscccssscsssssssssssssssssssscssssssssssssssssssssssssssscscssssssssscssscscccssssccccsssscsssssssssssssssssscsssssssssssssssssssssssssssssssssssssscssssssssccssssssssssssssscsssssssssssssssssssssssssssscsssssssssssccssscssssssssssssssssccssssssssssssssscccsscccssssssssssscsssssccssssscccssssssssssssccssssssssssssssssssssssssssscsssssssssssssssssssssscssssssssccssscscsssssssccssssssssssssssccssssssssssssssccssssssscscsssssssssssscssssssssssssssssscccssccccccsssccssssccccssscccccsccssssssssssssssssssssssssssssccssssssssssssscssssssssssssssssccsssssssssssssssscsssssssssssssscccssssssscssssssssssssssssssssscccssccccccssssssssssssssssscssssscsssssssssssssscccccsscccscccccccsssssscccsscsssssscccssccsssscccscssscsssscssssssssssscssscsscsscssssssssssssssssscssssssssssssssssssscsssssccscsssssssccsssscsssssscsssssssss" /><ellipse
         style="fill:#0c2340;fill-opacity:1;stroke:none;stroke-width:10.39;stroke-dasharray:none;stroke-opacity:1"
         id="path254"
         cx="163.00906"
         cy="45.96994"
         rx="1.7993138"
         ry="1.3759459" /><ellipse
         style="fill:#0c2340;fill-opacity:1;stroke:none;stroke-width:10.39;stroke-dasharray:none;stroke-opacity:1"
         id="path255"
         cx="162.79738"
         cy="53.061356"
         rx="1.7993138"
         ry="1.6934719" /><ellipse
         style="fill:#0c2340;fill-opacity:1;stroke:none;stroke-width:10.39;stroke-dasharray:none;stroke-opacity:1"
         id="path256"
         cx="223.39192"
         cy="45.758263"
         rx="1.6405509"
         ry="1.7993138" /><ellipse
         style="fill:#0c2340;fill-opacity:1;stroke:none;stroke-width:10.39;stroke-dasharray:none;stroke-opacity:1"
         id="path257"
         cx="223.28609"
         cy="54.490219"
         rx="1.4288669"
         ry="2.0639188" /></g></g></svg>
