<?xml version="1.0" encoding="UTF-8" standalone="no"?>
<!-- Created with Inkscape (http://www.inkscape.org/) -->

<svg
   width="105.83334mm"
   height="105.83334mm"
   viewBox="0 0 105.83333 105.83333"
   version="1.1"
   id="svg1"
   xml:space="preserve"
   inkscape:version="1.4 (e7c3feb100, 2024-10-09)"
   sodipodi:docname="montreal.svg"
   inkscape:export-filename="../pngs/san_antonio.png"
   inkscape:export-xdpi="96"
   inkscape:export-ydpi="96"
   xmlns:inkscape="http://www.inkscape.org/namespaces/inkscape"
   xmlns:sodipodi="http://sodipodi.sourceforge.net/DTD/sodipodi-0.dtd"
   xmlns="http://www.w3.org/2000/svg"
   xmlns:svg="http://www.w3.org/2000/svg"><sodipodi:namedview
     id="namedview1"
     pagecolor="#ffffff"
     bordercolor="#000000"
     borderopacity="0.25"
     inkscape:showpageshadow="2"
     inkscape:pageopacity="0.0"
     inkscape:pagecheckerboard="0"
     inkscape:deskcolor="#d1d1d1"
     inkscape:document-units="mm"
     inkscape:zoom="1.3647356"
     inkscape:cx="340.35897"
     inkscape:cy="177.32372"
     inkscape:window-width="1920"
     inkscape:window-height="1011"
     inkscape:window-x="0"
     inkscape:window-y="32"
     inkscape:window-maximized="1"
     inkscape:current-layer="layer1"
     showgrid="false" /><defs
     id="defs1" /><g
     inkscape:label="Capa 1"
     inkscape:groupmode="layer"
     id="layer1"><g
       id="g15"
       transform="matrix(1.0626994,0,0,1.0626994,-3.3178448,-0.65848764)"><path
         d="m 18.305063,81.263916 -2.897732,-2.196923 1.069362,-1.410485 0.546924,0.414651 3.088059,-4.073136 -0.546923,-0.414651 1.069363,-1.410486 2.629068,1.993235 q 0.714838,0.541956 1.071618,1.167544 0.360416,0.620789 0.306365,1.289998 -0.04561,0.668049 -0.565748,1.354102 -0.280071,0.369413 -0.649823,0.617947 -0.364954,0.252172 -0.76271,0.328373 l 0.05416,0.237492 q 0.05554,0.434975 -0.09237,0.859261 -0.139468,0.423125 -0.423177,0.797335 -0.814753,1.074656 -1.825463,1.16212 -1.005912,0.0911 -2.070973,-0.716377 z m 2.907316,-4.512374 q 0.239878,0.181864 0.393713,0.238053 0.16227,0.05503 0.256214,0.0507 0.065,0.0039 0.145869,-0.03296 0.08931,-0.03807 0.194785,-0.177198 0.130942,-0.172711 0.14712,-0.273774 0.02461,-0.102225 0.0081,-0.160106 -0.01164,-0.08434 -0.102444,-0.213661 -0.08241,-0.130473 -0.298296,-0.294151 l -0.340627,-0.258248 -0.687448,0.906741 z m -1.837953,3.101889 q 0.09595,0.07274 0.242511,0.138529 0.150198,0.06099 0.357746,-0.02343 0.211184,-0.08921 0.49853,-0.468219 0.225512,-0.29745 0.232565,-0.496092 0.01069,-0.203441 -0.07419,-0.320682 -0.08125,-0.122038 -0.143614,-0.169323 l -0.67166,-0.50922 -1.051176,1.386497 z m 7.652186,6.786178 -5.250569,-2.970389 0.865623,-1.530106 0.59737,0.337948 2.499041,-4.417393 -0.597369,-0.337949 0.865621,-1.530105 3.206935,1.81425 -0.865623,1.530105 -0.723132,-0.409096 -2.499042,4.417394 1.226181,0.693684 0.735187,-1.299541 1.540586,0.871551 z m 8.0309,3.33678 -2.834792,-1.13186 0.651878,-1.632659 0.329886,0.131714 0.06577,-0.31084 -1.559973,-0.622855 -0.166411,0.270655 0.335479,0.133948 -0.651877,1.632657 -2.834791,-1.13185 0.651876,-1.632661 0.497626,0.198688 3.256295,-4.177701 -0.531175,-0.212084 0.65411,-1.638252 3.981009,1.589508 -0.654109,1.638252 -0.519991,-0.207619 -0.522146,5.269373 0.503217,0.200925 z m -1.572471,-4.504481 0.204593,-1.778836 -1.060062,1.437271 z m 5.834673,5.737889 Q 38.828746,91.088532 38.410453,90.848778 37.996559,90.616313 37.672946,90.294527 36.981778,89.6029 36.765595,88.544862 36.619092,87.857532 36.692685,87.03231 l 0.208628,-1.095736 q 0,0 0.124436,-0.403365 0.124435,-0.403366 0.230314,-0.656279 0.255277,-0.606702 0.621888,-1.086684 0.679525,-0.842994 1.569216,-1.20618 0.927717,-0.34139 1.962258,-0.08586 0.718917,0.17757 1.320198,0.580342 0.604166,0.391083 1.032597,1.117047 0.09092,0.13408 0.05771,0.268513 l -0.584682,2.367169 -1.677474,-0.41433 0.09958,-0.930425 q 0.03085,-0.451287 -0.36125,-0.721774 0.01155,-0.04676 -0.02057,-0.04229 -0.13746,-0.07116 -0.295271,-0.11014 -0.198725,-0.04909 -0.407486,-0.03243 -0.207319,0.01076 -0.40129,0.09312 -0.370482,0.144147 -0.613188,0.549308 l -0.139644,0.188761 q -0.107393,0.233934 -0.234715,0.64899 -0.120035,0.410654 -0.120035,0.410654 0,0 -0.08785,0.431005 -0.08201,0.43245 -0.09155,0.671949 l 0.02126,0.290524 q 0.06419,0.493359 0.301708,0.837295 0.279812,0.323369 0.706487,0.428755 0.210416,0.052 0.452801,0.04982 0.316785,-0.02719 0.46048,-0.332766 l 0.337847,-0.840568 1.677474,0.414329 -0.570244,2.308717 q -0.0231,0.09349 -0.07549,0.154996 -0.05095,0.05559 -0.109259,0.09081 -0.51618,0.257003 -1.228552,0.329105 -0.726878,0.105703 -1.539313,-0.09494 z m 11.690488,1.454245 -3.752946,-0.345758 0.161832,-1.756569 0.419659,0.03866 -0.63064,-1.357997 -0.611203,0.59666 -0.0591,0.641483 0.623492,0.05742 -0.161833,1.756569 -3.471175,-0.319804 0.161831,-1.756569 0.683445,0.06296 0.46727,-5.071868 -0.683445,-0.06296 0.161833,-1.756571 3.471175,0.319798 -0.161832,1.75657 -0.623493,-0.05745 -0.127588,1.384873 1.248676,-1.281588 -0.257791,-0.02375 0.161832,-1.75657 3.776927,0.347966 -0.161832,1.756571 -1.007181,-0.09279 -1.777051,1.897965 1.513616,3.192688 0.797352,0.07347 z m 9.899857,-0.713567 -3.603707,0.486446 -0.236776,-1.754121 0.680169,-0.09183 -0.683755,-5.065479 -0.680169,0.09181 -0.236778,-1.754123 3.269588,-0.441339 q 0.888994,-0.119995 1.58315,0.07183 0.693351,0.185864 1.127038,0.698384 0.43885,0.505748 0.554017,1.358943 0.06202,0.459413 -0.02481,0.89639 -0.08085,0.436172 -0.309072,0.770728 l 0.205898,0.130168 q 0.346166,0.269174 0.540573,0.674262 0.19957,0.398319 0.262388,0.863706 0.180402,1.336469 -0.474392,2.111344 -0.648827,0.774069 -1.973368,0.952859 z m -1.121685,-5.249363 q 0.298321,-0.04027 0.447004,-0.108935 0.153845,-0.07545 0.217388,-0.144771 0.04886,-0.04305 0.08016,-0.126248 0.03646,-0.08997 0.01309,-0.262998 -0.02899,-0.21479 -0.08881,-0.297843 -0.05465,-0.08983 -0.107217,-0.11918 -0.06772,-0.05162 -0.223321,-0.07921 -0.150442,-0.03436 -0.41893,0.0019 l -0.423614,0.05718 0.152214,1.12765 z m 0.884908,3.495242 q 0.119327,-0.01611 0.269621,-0.07288 0.14949,-0.06266 0.237078,-0.268927 0.08678,-0.212196 0.02316,-0.683546 -0.04993,-0.369918 -0.18504,-0.515704 -0.135911,-0.15176 -0.278776,-0.175004 -0.143671,-0.02925 -0.221233,-0.01872 l -0.835295,0.112778 0.23275,1.724285 z m 10.13905,-0.528631 -5.736215,1.574063 -0.466803,-1.701116 0.661871,-0.181623 -1.351022,-4.923395 -0.661871,0.181624 -0.466804,-1.701125 5.736215,-1.574068 0.79022,2.87972 -1.770795,0.485922 -0.323416,-1.178595 -1.201819,0.329789 0.385552,1.405024 1.913321,-0.512546 0.573548,2.090114 -1.913323,0.512556 0.391924,1.428246 1.201819,-0.329789 -0.33457,-1.219234 1.770795,-0.485929 z m 8.084881,-3.37142 -2.799694,1.216086 -0.700387,-1.612451 0.325803,-0.141516 -0.174425,-0.26556 -1.54066,0.669204 0.07502,0.308736 0.331324,-0.143915 0.700387,1.612448 -2.799693,1.21608 -0.700387,-1.612446 0.491464,-0.213478 -0.673895,-5.253804 -0.524597,0.227865 -0.702785,-1.617968 3.931719,-1.707792 0.702785,1.617968 -0.513553,0.223068 3.374191,4.080901 0.496986,-0.215872 z m -4.305835,-2.054938 -1.119116,-1.397747 0.274238,1.76473 z m 11.427286,-2.278551 -2.062987,1.277047 -2.19823,-1.995477 -0.499719,0.30226 0.5799,0.936791 0.578456,-0.358081 0.925305,1.49477 -3.010017,1.863284 -0.925304,-1.494769 0.583575,-0.361249 -2.677681,-4.325618 -0.583574,0.36125 -0.928474,-1.499889 3.010016,-1.863285 q 0.752504,-0.465822 1.482088,-0.499694 0.731533,-0.04217 1.35605,0.314716 0.621349,0.35176 1.064988,1.06843 0.361249,0.583574 0.445339,1.211266 0.08921,0.624523 -0.07095,1.212234 l 1.406985,1.232 0.598932,-0.370756 z m -5.304742,-2.621505 q 0.296907,-0.183793 0.348344,-0.420975 0.04875,-0.207197 -0.1287,-0.493866 -0.190131,-0.307144 -0.441206,-0.392465 -0.245956,-0.08849 -0.547981,0.09847 l -0.578456,0.35808 0.754187,1.218339 z m 8.777883,-0.03481 q -1.001194,0.829897 -2.01487,0.833411 -1.009042,-3.23e-4 -1.799972,-0.869605 l -0.271519,0.06866 -0.653283,-0.740955 1.520577,-1.354257 0.611813,0.68149 q 0.123741,0.139848 0.303897,0.225113 0.176313,0.08063 0.410752,0.0427 0.234437,-0.03793 0.526452,-0.279982 0.292015,-0.242054 0.378866,-0.439164 0.083,-0.201745 0.04178,-0.355253 -0.04123,-0.153507 -0.118067,-0.24621 l -0.02305,-0.02781 q -0.07684,-0.0927 -0.20083,-0.138509 -0.123193,-0.05428 -0.356045,-0.03331 -0.228215,0.01717 -0.602378,0.13178 -1.459938,0.56892 -2.395487,0.468573 -0.930914,-0.104188 -1.657074,-0.980233 -0.522529,-0.630382 -0.590086,-1.325094 -0.06677,-0.70319 0.250996,-1.357581 0.313919,-0.659026 0.93503,-1.173869 0.843598,-0.699266 1.897952,-0.634838 1.050513,0.05979 1.823817,0.888939 l 0.27841,-0.05091 0.522652,0.583359 q -0.776327,0.620045 -1.559545,1.222341 L 86.512795,74.17486 q -0.268278,-0.285917 -0.645913,-0.316968 -0.381477,-0.03569 -0.673493,0.206367 -0.393988,0.326579 -0.390214,0.651888 -0.01403,0.05854 0.08202,0.174427 0.06916,0.08344 0.168506,0.11838 0.06623,0.0233 0.343057,-0.01066 0.277616,-0.04244 0.80065,-0.194471 1.267887,-0.527027 2.224902,-0.381914 0.957809,0.136634 1.699338,1.03122 0.503318,0.607206 0.595637,1.265754 0.08848,0.653912 -0.192995,1.286042 -0.281473,0.632132 -0.892644,1.177835 z"
         id="text1-9"
         style="font-size:11.2455px;line-height:1;font-family:'Ranked Sports';-inkscape-font-specification:'Ranked Sports';text-align:center;letter-spacing:1.19449px;word-spacing:0px;text-anchor:middle;fill:#dbe0e7;stroke:#dbe0e7;stroke-width:1.554;stroke-dasharray:none;stroke-opacity:1"
         aria-label="BLACK BEARS" /><g
         id="g1"
         transform="translate(-2.2563104,9.8874463)"><path
           sodipodi:type="star"
           style="fill:#dbe0e7;fill-opacity:1;stroke:none;stroke-width:0.966999;stroke-dasharray:none"
           id="path60-1"
           inkscape:flatsided="false"
           sodipodi:sides="5"
           sodipodi:cx="-21.131992"
           sodipodi:cy="-21.907478"
           sodipodi:r1="9.9045382"
           sodipodi:r2="3.6882493"
           sodipodi:arg1="0.78539816"
           sodipodi:arg2="1.4137167"
           inkscape:rounded="0"
           inkscape:randomized="0"
           d="m -14.128426,-14.903912 -6.426597,-3.360725 -5.073536,5.182167 1.210312,-7.150578 -6.496342,-3.223841 7.174611,-1.058575 1.058574,-7.174611 3.223842,6.496342 7.150578,-1.210312 -5.182167,5.073536 z"
           inkscape:transform-center-x="2.4439413"
           inkscape:transform-center-y="20.752167"
           transform="matrix(0.46860828,0.0994892,-0.0994892,0.46860828,104.08709,65.664926)" /><path
           sodipodi:type="star"
           style="fill:#dbe0e7;fill-opacity:1;stroke:none;stroke-width:0.966999;stroke-dasharray:none"
           id="path60-1-9"
           inkscape:flatsided="false"
           sodipodi:sides="5"
           sodipodi:cx="-21.131992"
           sodipodi:cy="-21.907478"
           sodipodi:r1="9.9045382"
           sodipodi:r2="3.6882493"
           sodipodi:arg1="0.78539816"
           sodipodi:arg2="1.4137167"
           inkscape:rounded="0"
           inkscape:randomized="0"
           d="m -14.128426,-14.903912 -6.426597,-3.360725 -5.073536,5.182167 1.210312,-7.150578 -6.496342,-3.223841 7.174611,-1.058575 1.058574,-7.174611 3.223842,6.496342 7.150578,-1.210312 -5.182167,5.073536 z"
           inkscape:transform-center-x="2.4439413"
           inkscape:transform-center-y="20.752167"
           transform="matrix(0.46860828,0.0994892,-0.0994892,0.46860828,21.552237,65.664926)" /></g><path
         d="m 18.148846,81.298159 -2.897732,-2.196923 1.069362,-1.410485 0.546924,0.414651 3.088059,-4.073136 -0.546923,-0.414651 1.069363,-1.410486 2.629068,1.993235 q 0.714838,0.541956 1.071618,1.167544 0.360416,0.620789 0.306365,1.289998 -0.04561,0.668049 -0.565748,1.354102 -0.280071,0.369413 -0.649823,0.617947 -0.364954,0.252172 -0.76271,0.328373 l 0.05416,0.237492 q 0.05554,0.434975 -0.09237,0.859261 -0.139468,0.423125 -0.423177,0.797335 -0.814753,1.074656 -1.825463,1.16212 -1.005912,0.0911 -2.070973,-0.716377 z m 2.907316,-4.512374 q 0.239878,0.181864 0.393713,0.238053 0.16227,0.05503 0.256214,0.0507 0.065,0.0039 0.145869,-0.03296 0.08931,-0.03807 0.194785,-0.177198 0.130942,-0.172711 0.14712,-0.273774 0.02461,-0.102225 0.0081,-0.160106 -0.01164,-0.08434 -0.102444,-0.213661 -0.08241,-0.130473 -0.298296,-0.294151 l -0.340627,-0.258248 -0.687448,0.906741 z m -1.837953,3.101889 q 0.09595,0.07274 0.242511,0.138529 0.150198,0.06099 0.357746,-0.02343 0.211184,-0.08921 0.49853,-0.468219 0.225512,-0.29745 0.232565,-0.496092 0.01069,-0.203441 -0.07419,-0.320682 -0.08125,-0.122038 -0.143614,-0.169323 l -0.67166,-0.50922 -1.051176,1.386497 z m 7.652186,6.786178 -5.250569,-2.970389 0.865623,-1.530106 0.59737,0.337948 2.499041,-4.417393 -0.597369,-0.337949 0.865621,-1.530105 3.206935,1.81425 -0.865623,1.530105 -0.723132,-0.409096 -2.499042,4.417394 1.226181,0.693684 0.735187,-1.299541 1.540586,0.871551 z m 8.0309,3.336776 -2.834792,-1.13186 0.651878,-1.632655 0.329886,0.131714 0.06577,-0.31084 -1.559973,-0.622855 -0.166411,0.270655 0.335479,0.133948 -0.651877,1.632657 -2.834791,-1.13185 0.651876,-1.632661 0.497626,0.198688 3.256295,-4.177701 -0.531175,-0.212084 0.65411,-1.638252 3.981009,1.589508 -0.654109,1.638252 -0.519991,-0.207619 -0.522146,5.269373 0.503217,0.200925 z m -1.572471,-4.504477 0.204593,-1.778836 -1.060062,1.437271 z m 5.834673,5.737887 q -0.490968,-0.12126 -0.909261,-0.36102 -0.413894,-0.23246 -0.737507,-0.55425 -0.691168,-0.69162 -0.907351,-1.749663 -0.146503,-0.68733 -0.07291,-1.512552 l 0.208628,-1.095736 q 0,0 0.124436,-0.403365 0.124435,-0.403366 0.230314,-0.656279 0.255277,-0.606702 0.621888,-1.086684 0.679525,-0.842994 1.569216,-1.20618 0.927717,-0.34139 1.962258,-0.08586 0.718917,0.17757 1.320198,0.580342 0.604166,0.391083 1.032597,1.117047 0.09092,0.13408 0.05771,0.268513 l -0.584682,2.367169 -1.677474,-0.41433 0.09958,-0.930425 q 0.03085,-0.451287 -0.36125,-0.721774 0.01155,-0.04676 -0.02057,-0.04229 -0.13746,-0.07116 -0.295271,-0.11014 -0.198725,-0.04909 -0.407486,-0.03243 -0.207319,0.01076 -0.40129,0.09312 -0.370482,0.144147 -0.613188,0.549308 l -0.139644,0.188761 q -0.107393,0.233934 -0.234715,0.64899 -0.120035,0.410654 -0.120035,0.410654 0,0 -0.08785,0.431005 -0.08201,0.43245 -0.09155,0.671949 l 0.02126,0.290524 q 0.06419,0.493359 0.301708,0.837296 0.279812,0.32337 0.706487,0.42875 0.210416,0.052 0.452801,0.0498 0.316785,-0.0272 0.46048,-0.33276 l 0.337847,-0.84057 1.677474,0.414329 -0.570244,2.308721 q -0.0231,0.0935 -0.07549,0.15499 -0.05095,0.0556 -0.109259,0.0908 -0.51618,0.25701 -1.228552,0.32911 -0.726878,0.1057 -1.539313,-0.0949 z m 11.690488,1.45425 -3.752946,-0.34576 0.161832,-1.75657 0.419659,0.0387 -0.63064,-1.358 -0.611203,0.59666 -0.0591,0.64149 0.623492,0.0574 -0.161833,1.75657 -3.471175,-0.31981 0.161831,-1.75657 0.683445,0.063 0.46727,-5.071866 -0.683445,-0.06296 0.161833,-1.756571 3.471175,0.319798 -0.161832,1.75657 -0.623493,-0.05745 -0.127588,1.384873 1.248676,-1.281588 -0.257791,-0.02375 0.161832,-1.75657 3.776927,0.347966 -0.161832,1.756571 -1.007181,-0.09279 -1.777051,1.897965 1.513616,3.192692 0.797352,0.0735 z m 9.899857,-0.71357 -3.603707,0.48645 -0.236776,-1.75412 0.680169,-0.0918 -0.683755,-5.065484 -0.680169,0.09181 -0.236778,-1.754123 3.269588,-0.441339 q 0.888994,-0.119995 1.58315,0.07183 0.693351,0.185864 1.127038,0.698384 0.43885,0.505748 0.554017,1.358943 0.06202,0.459413 -0.02481,0.89639 -0.08085,0.436172 -0.309072,0.770728 l 0.205898,0.130168 q 0.346166,0.269174 0.540573,0.674262 0.19957,0.398319 0.262388,0.863711 0.180402,1.33646 -0.474392,2.11134 -0.648827,0.77407 -1.973368,0.95286 z m -1.121685,-5.249363 q 0.298321,-0.04027 0.447004,-0.108935 0.153845,-0.07545 0.217388,-0.144771 0.04886,-0.04305 0.08016,-0.126248 0.03646,-0.08997 0.01309,-0.262998 -0.02899,-0.21479 -0.08881,-0.297843 -0.05465,-0.08983 -0.107217,-0.11918 -0.06772,-0.05162 -0.223321,-0.07921 -0.150442,-0.03436 -0.41893,0.0019 l -0.423614,0.05718 0.152214,1.12765 z m 0.884908,3.495243 q 0.119327,-0.0161 0.269621,-0.0729 0.14949,-0.0627 0.237078,-0.26893 0.08678,-0.21219 0.02316,-0.68354 -0.04993,-0.36992 -0.18504,-0.515708 -0.135911,-0.15176 -0.278776,-0.175004 -0.143671,-0.02925 -0.221233,-0.01872 l -0.835295,0.112778 0.23275,1.724284 z m 10.13905,-0.52863 -5.736215,1.57406 -0.466803,-1.70111 0.661871,-0.18163 -1.351022,-4.923393 -0.661871,0.181624 -0.466804,-1.701125 5.736215,-1.574068 0.79022,2.87972 -1.770795,0.485922 -0.323416,-1.178595 -1.201819,0.329789 0.385552,1.405024 1.913321,-0.512546 0.573548,2.090114 -1.913323,0.512556 0.391924,1.428248 1.201819,-0.329791 -0.33457,-1.219234 1.770795,-0.485929 z m 8.084881,-3.371422 -2.799694,1.216086 -0.700387,-1.612451 0.325803,-0.141516 -0.174425,-0.26556 -1.54066,0.669204 0.07502,0.308736 0.331324,-0.143915 0.700387,1.612448 -2.799693,1.21608 -0.700387,-1.612446 0.491464,-0.213478 -0.673895,-5.253804 -0.524597,0.227865 -0.702785,-1.617968 3.931719,-1.707792 0.702785,1.617968 -0.513553,0.223068 3.374191,4.080901 0.496986,-0.215872 z m -4.305835,-2.054938 -1.119116,-1.397747 0.274238,1.76473 z m 11.427286,-2.278551 -2.062987,1.277047 -2.19823,-1.995477 -0.499719,0.30226 0.5799,0.936791 0.578456,-0.358081 0.925305,1.49477 -3.010017,1.863284 -0.925304,-1.494769 0.583575,-0.361249 -2.677681,-4.325618 -0.583574,0.36125 -0.928474,-1.499889 3.010016,-1.863285 q 0.752504,-0.465822 1.482088,-0.499694 0.731533,-0.04217 1.35605,0.314716 0.621349,0.35176 1.064988,1.06843 0.361249,0.583574 0.445339,1.211266 0.08921,0.624523 -0.07095,1.212234 l 1.406985,1.232 0.598932,-0.370756 z m -5.304742,-2.621505 q 0.296907,-0.183793 0.348344,-0.420975 0.04875,-0.207197 -0.1287,-0.493866 -0.190131,-0.307144 -0.441206,-0.392465 -0.245956,-0.08849 -0.547981,0.09847 l -0.578456,0.35808 0.754187,1.218339 z m 8.777883,-0.03481 q -1.001194,0.829897 -2.01487,0.833411 -1.009042,-3.23e-4 -1.799972,-0.869605 l -0.271519,0.06866 -0.653283,-0.740955 1.520577,-1.354257 0.611813,0.68149 q 0.123741,0.139848 0.303897,0.225113 0.176313,0.08063 0.410752,0.0427 0.234437,-0.03793 0.526452,-0.279982 0.292015,-0.242054 0.378866,-0.439164 0.083,-0.201745 0.04178,-0.355253 -0.04123,-0.153507 -0.118067,-0.24621 l -0.02305,-0.02781 q -0.07684,-0.0927 -0.20083,-0.138509 -0.123193,-0.05428 -0.356045,-0.03331 -0.228215,0.01717 -0.602378,0.13178 -1.459938,0.56892 -2.395487,0.468573 -0.930914,-0.104188 -1.657074,-0.980233 -0.522529,-0.630382 -0.590086,-1.325094 -0.06677,-0.70319 0.250996,-1.357581 0.313919,-0.659026 0.93503,-1.173869 0.843598,-0.699266 1.897952,-0.634838 1.050513,0.05979 1.823817,0.888939 l 0.27841,-0.05091 0.522652,0.583359 q -0.776327,0.620045 -1.559545,1.222341 l -0.239798,-0.270425 q -0.268278,-0.285917 -0.645913,-0.316968 -0.381477,-0.03569 -0.673493,0.206367 -0.393988,0.326579 -0.390214,0.651888 -0.01403,0.05854 0.08202,0.174427 0.06916,0.08344 0.168506,0.11838 0.06623,0.0233 0.343057,-0.01066 0.277616,-0.04244 0.80065,-0.194471 1.267887,-0.527027 2.224902,-0.381914 0.957809,0.136634 1.699338,1.03122 0.503318,0.607206 0.595637,1.265754 0.08848,0.653912 -0.192995,1.286042 -0.281473,0.632132 -0.892644,1.177835 z"
         id="text1"
         style="font-size:11.2455px;line-height:1;font-family:'Ranked Sports';-inkscape-font-specification:'Ranked Sports';text-align:center;letter-spacing:1.19449px;word-spacing:0px;text-anchor:middle;fill:#0d2f6d;fill-opacity:1;stroke-width:1.25388"
         aria-label="BLACK BEARS" /><g
         id="text2-1"
         style="font-size:19.7556px;line-height:1;font-family:'Ranked Sports';-inkscape-font-specification:'Ranked Sports';text-align:center;letter-spacing:1.30969px;word-spacing:0px;text-anchor:middle;stroke:#dbe0e7;stroke-width:1.554;stroke-opacity:1"
         transform="rotate(92.342485,49.753612,61.716153)"
         aria-label="Montreal"><path
           d="m 15.797427,87.292335 4.148665,3.867864 -1.927354,2.067277 -0.832555,-0.776204 -2.994422,3.169375 6.664497,-3.611886 1.658055,1.54583 -2.979805,6.704289 2.752839,-3.051715 -0.903111,-0.841984 1.927354,-2.067276 4.15572,3.874441 -1.927353,2.067274 -0.797278,-0.743311 -5.551831,5.954891 0.797277,0.74331 -1.927354,2.06728 -4.233331,-3.9468 3.361914,-6.901953 -6.607468,3.876073 -4.1909979,-3.907335 1.9273538,-2.067277 0.804333,0.749892 5.5518311,-5.954886 -0.804333,-0.749892 z"
           id="path7-7"
           style="stroke:#dbe0e7;stroke-opacity:1" /><path
           style="font-size:17.6389px;stroke:#dbe0e7;stroke-opacity:1"
           d="m 12.591109,80.646331 q 0.45957,0.838307 0.528375,1.841727 0.05711,1.000007 -0.346925,2.036736 -0.408177,1.029177 -1.34302,1.993484 -0.875881,0.892695 -2.0299296,1.564646 -1.1026386,0.60448 -2.3255741,0.882025 -1.2304879,0.281685 -2.435823,0.107589 Q 3.5064448,88.907221 2.666575,88.306865 1.8225649,87.698956 1.3422935,86.822887 0.86202208,85.946818 0.80686522,84.896628 0.74001577,83.843027 1.1893668,82.781456 q 0.4788321,-1.097377 1.370546,-1.979108 0.8841615,-0.87759 1.9868001,-1.48207 1.1706095,-0.641742 2.4278946,-0.928296 1.3206165,-0.242696 2.4202191,-0.01064 1.0954624,0.224508 1.9160874,0.825593 0.820625,0.601085 1.280195,1.439392 z M 9.8523008,82.118312 Q 9.7239524,81.88419 9.5208091,81.710716 9.3135254,81.529689 9.0521482,81.447072 q -0.7015554,-0.204723 -1.4531052,10e-4 -0.7632424,0.202333 -1.465608,0.587378 -0.6192902,0.339502 -1.2368949,0.825411 -0.6217449,0.478357 -0.9029483,1.094153 -0.2812034,0.615796 0.043423,1.351284 0.4269471,0.689217 1.0512938,0.788936 0.6202064,0.09217 1.312565,-0.149884 0.6882183,-0.249603 1.3116488,-0.581553 0.5060054,-0.277398 0.9796168,-0.59597 0.4736115,-0.318571 0.8212883,-0.705613 0.3476767,-0.387042 0.4992635,-0.863026 0.108727,-0.589997 -0.1603904,-1.080898 z"
           id="path8-2" /><path
           style="font-size:15.5222px;stroke:#dbe0e7;stroke-opacity:1"
           d="m 7.172392,66.406003 0.6262398,2.413638 -4.3778605,4.040863 2.9491867,-0.765193 -0.270292,-1.041752 2.1348591,-0.553909 1.1002023,4.240373 -2.1348591,0.553908 -0.2112845,-0.814327 -6.17715221,1.602717 0.21128451,0.814327 -2.1421953,0.555812 -0.8546554,-3.293992 4.4737873,-4.003111 -3.02254951,0.784228 0.27029191,1.041752 -2.1421953,0.555812 -1.1002023,-4.240373 2.1421953,-0.555812 0.213188,0.821664 z"
           id="path9-7" /><path
           style="font-size:13.4056px;stroke:#dbe0e7;stroke-opacity:1"
           d="m 6.6768911,57.930613 0.1228527,3.873108 -1.9169269,0.0608 -0.023865,-0.752378 -5.50216889,0.174526 0.0157716,0.497223 1.34461318,0.271702 0.0527104,1.661772 -3.30391829,0.104799 -0.2326314,-7.334045 3.30391826,-0.104798 0.053333,1.6814 -1.32510618,0.343285 0.0161867,0.510308 5.50216892,-0.174525 -0.023865,-0.752377 z"
           id="path10-2" /><path
           style="font-size:13.4056px;stroke:#dbe0e7;stroke-opacity:1"
           d="m 7.9288344,46.98749 -0.4360771,2.601624 -3.2071376,0.365063 -0.1114171,0.625115 1.1813828,0.19802 0.1222747,-0.729487 1.885048,0.315966 L 6.7266468,54.15971 4.8415988,53.843743 4.9649556,53.1078 -0.49006336,52.193445 -0.61342015,52.929388 -2.5049238,52.61234 -1.8686625,48.816421 q 0.1590654,-0.94898 0.6546485,-1.569435 0.49020961,-0.627994 1.22973059,-0.882347 0.73306534,-0.255436 1.63685551,-0.103945 0.7359433,0.123357 1.3091558,0.504829 0.5742946,0.375016 0.9396603,0.927397 l 2.0157952,-0.266087 0.126603,-0.75531 z m -5.946687,2.454482 Q 2.0449079,49.067545 1.8879924,48.855406 1.7536532,48.666963 1.3921372,48.606367 1.0047986,48.541442 0.75500852,48.68541 0.50630055,48.822922 0.44245801,49.203805 l -0.12227471,0.729487 1.5364432,0.257535 z"
           id="path11-2" /><path
           style="font-size:15.5222px;stroke:#dbe0e7;stroke-opacity:1"
           d="M 11.139253,38.022677 8.4588473,45.014765 6.3852827,44.219868 6.6945603,43.413088 0.69325404,41.112497 0.38397648,41.919277 -1.6895881,41.124379 0.99081749,34.132291 4.5010155,35.47792 3.6735624,37.636409 2.2369289,37.085677 1.675346,38.550619 l 1.7126369,0.656536 0.9067182,-2.322911 2.5477244,0.976666 -0.9067183,2.322911 1.740945,0.667389 0.561583,-1.464942 -1.4861726,-0.569721 0.8274532,-2.158489 z"
           id="path12-6" /><path
           style="font-size:17.6389px;stroke:#dbe0e7;stroke-opacity:1"
           d="m 17.787735,27.554583 -2.466072,3.603639 -2.075469,-1.420302 0.286979,-0.419358 -0.413381,-0.188961 -1.357069,1.983068 0.325827,0.316901 0.291843,-0.426467 2.075469,1.420303 -2.466073,3.603639 -2.0754686,-1.420302 0.4329006,-0.632592 -4.8143742,-5.851525 -0.4620846,0.675239 -2.0825767,-1.425167 3.4632026,-5.060732 2.0825767,1.425166 -0.4523565,0.661023 7.1928937,2.375825 0.437764,-0.639699 z m -6.779752,0.787339 -2.4193254,-0.841576 1.6751264,1.929065 z"
           id="path13-1" /><path
           d="m 26.626244,19.530749 -7.322233,6.309388 -1.838664,-2.133825 0.833069,-0.717834 -5.308197,-6.160322 -0.833069,0.717835 -1.838664,-2.133825 4.472262,-3.853638 1.838664,2.133825 -1.008451,0.868957 5.308197,6.160322 1.709983,-1.47345 -1.561605,-1.812289 2.14844,-1.851257 z"
           id="path14-0"
           style="stroke:#dbe0e7;stroke-opacity:1" /></g><g
         id="text2"
         style="font-size:19.7556px;line-height:1;font-family:'Ranked Sports';-inkscape-font-specification:'Ranked Sports';text-align:center;letter-spacing:1.30969px;word-spacing:0px;text-anchor:middle;fill:#0d2f6d;fill-opacity:1;stroke:none;stroke-width:1.554"
         transform="rotate(92.342485,49.711507,61.756389)"
         aria-label="Montreal"><path
           d="m 15.797427,87.292335 4.148665,3.867864 -1.927354,2.067277 -0.832555,-0.776204 -2.994422,3.169375 6.664497,-3.611886 1.658055,1.54583 -2.979805,6.704289 2.752839,-3.051715 -0.903111,-0.841984 1.927354,-2.067276 4.15572,3.874441 -1.927353,2.067274 -0.797278,-0.743311 -5.551831,5.954891 0.797277,0.74331 -1.927354,2.06728 -4.233331,-3.9468 3.361914,-6.901953 -6.607468,3.876073 -4.1909979,-3.907335 1.9273538,-2.067277 0.804333,0.749892 5.5518311,-5.954886 -0.804333,-0.749892 z"
           id="path7"
           style="fill:#0d2f6d;fill-opacity:1;stroke:none" /><path
           style="font-size:17.6389px;fill:#0d2f6d;fill-opacity:1;stroke:none"
           d="m 12.591109,80.646331 q 0.45957,0.838307 0.528375,1.841727 0.05711,1.000007 -0.346925,2.036736 -0.408177,1.029177 -1.34302,1.993484 -0.875881,0.892695 -2.0299296,1.564646 -1.1026386,0.60448 -2.3255741,0.882025 -1.2304879,0.281685 -2.435823,0.107589 Q 3.5064448,88.907221 2.666575,88.306865 1.8225649,87.698956 1.3422935,86.822887 0.86202208,85.946818 0.80686522,84.896628 0.74001577,83.843027 1.1893668,82.781456 q 0.4788321,-1.097377 1.370546,-1.979108 0.8841615,-0.87759 1.9868001,-1.48207 1.1706095,-0.641742 2.4278946,-0.928296 1.3206165,-0.242696 2.4202191,-0.01064 1.0954624,0.224508 1.9160874,0.825593 0.820625,0.601085 1.280195,1.439392 z M 9.8523008,82.118312 Q 9.7239524,81.88419 9.5208091,81.710716 9.3135254,81.529689 9.0521482,81.447072 q -0.7015554,-0.204723 -1.4531052,10e-4 -0.7632424,0.202333 -1.465608,0.587378 -0.6192902,0.339502 -1.2368949,0.825411 -0.6217449,0.478357 -0.9029483,1.094153 -0.2812034,0.615796 0.043423,1.351284 0.4269471,0.689217 1.0512938,0.788936 0.6202064,0.09217 1.312565,-0.149884 0.6882183,-0.249603 1.3116488,-0.581553 0.5060054,-0.277398 0.9796168,-0.59597 0.4736115,-0.318571 0.8212883,-0.705613 0.3476767,-0.387042 0.4992635,-0.863026 0.108727,-0.589997 -0.1603904,-1.080898 z"
           id="path8" /><path
           style="font-size:15.5222px;fill:#0d2f6d;fill-opacity:1;stroke:none"
           d="m 7.172392,66.406003 0.6262398,2.413638 -4.3778605,4.040863 2.9491867,-0.765193 -0.270292,-1.041752 2.1348591,-0.553909 1.1002023,4.240373 -2.1348591,0.553908 -0.2112845,-0.814327 -6.17715221,1.602717 0.21128451,0.814327 -2.1421953,0.555812 -0.8546554,-3.293992 4.4737873,-4.003111 -3.02254951,0.784228 0.27029191,1.041752 -2.1421953,0.555812 -1.1002023,-4.240373 2.1421953,-0.555812 0.213188,0.821664 z"
           id="path9" /><path
           style="font-size:13.4056px;fill:#0d2f6d;fill-opacity:1;stroke:none"
           d="m 6.6768911,57.930613 0.1228527,3.873108 -1.9169269,0.0608 -0.023865,-0.752378 -5.50216889,0.174526 0.0157716,0.497223 1.34461318,0.271702 0.0527104,1.661772 -3.30391829,0.104799 -0.2326314,-7.334045 3.30391826,-0.104798 0.053333,1.6814 -1.32510618,0.343285 0.0161867,0.510308 5.50216892,-0.174525 -0.023865,-0.752377 z"
           id="path10" /><path
           style="font-size:13.4056px;fill:#0d2f6d;fill-opacity:1;stroke:none"
           d="m 7.9288344,46.98749 -0.4360771,2.601624 -3.2071376,0.365063 -0.1114171,0.625115 1.1813828,0.19802 0.1222747,-0.729487 1.885048,0.315966 L 6.7266468,54.15971 4.8415988,53.843743 4.9649556,53.1078 -0.49006336,52.193445 -0.61342015,52.929388 -2.5049238,52.61234 -1.8686625,48.816421 q 0.1590654,-0.94898 0.6546485,-1.569435 0.49020961,-0.627994 1.22973059,-0.882347 0.73306534,-0.255436 1.63685551,-0.103945 0.7359433,0.123357 1.3091558,0.504829 0.5742946,0.375016 0.9396603,0.927397 l 2.0157952,-0.266087 0.126603,-0.75531 z m -5.946687,2.454482 Q 2.0449079,49.067545 1.8879924,48.855406 1.7536532,48.666963 1.3921372,48.606367 1.0047986,48.541442 0.75500852,48.68541 0.50630055,48.822922 0.44245801,49.203805 l -0.12227471,0.729487 1.5364432,0.257535 z"
           id="path11" /><path
           style="font-size:15.5222px;fill:#0d2f6d;fill-opacity:1;stroke:none"
           d="M 11.139253,38.022677 8.4588473,45.014765 6.3852827,44.219868 6.6945603,43.413088 0.69325404,41.112497 0.38397648,41.919277 -1.6895881,41.124379 0.99081749,34.132291 4.5010155,35.47792 3.6735624,37.636409 2.2369289,37.085677 1.675346,38.550619 l 1.7126369,0.656536 0.9067182,-2.322911 2.5477244,0.976666 -0.9067183,2.322911 1.740945,0.667389 0.561583,-1.464942 -1.4861726,-0.569721 0.8274532,-2.158489 z"
           id="path12" /><path
           style="font-size:17.6389px;fill:#0d2f6d;fill-opacity:1;stroke:none"
           d="m 17.787735,27.554583 -2.466072,3.603639 -2.075469,-1.420302 0.286979,-0.419358 -0.413381,-0.188961 -1.357069,1.983068 0.325827,0.316901 0.291843,-0.426467 2.075469,1.420303 -2.466073,3.603639 -2.0754686,-1.420302 0.4329006,-0.632592 -4.8143742,-5.851525 -0.4620846,0.675239 -2.0825767,-1.425167 3.4632026,-5.060732 2.0825767,1.425166 -0.4523565,0.661023 7.1928937,2.375825 0.437764,-0.639699 z m -6.779752,0.787339 -2.4193254,-0.841576 1.6751264,1.929065 z"
           id="path13" /><path
           d="m 26.626244,19.530749 -7.322233,6.309388 -1.838664,-2.133825 0.833069,-0.717834 -5.308197,-6.160322 -0.833069,0.717835 -1.838664,-2.133825 4.472262,-3.853638 1.838664,2.133825 -1.008451,0.868957 5.308197,6.160322 1.709983,-1.47345 -1.561605,-1.812289 2.14844,-1.851257 z"
           id="path14"
           style="fill:#0d2f6d;fill-opacity:1;stroke:none" /></g><path
         style="fill:#000000;fill-opacity:1;stroke:none;stroke-width:2.30618"
         d="m 74.374662,34.112986 0.472097,4.878353 c 0,0 3.462059,2.83259 3.855471,3.068639 0.393416,0.236049 2.51786,3.619422 2.51786,3.619422 l -1.180245,2.832591 2.045759,3.619422 4.799666,3.855471 0.393416,2.517856 -1.652342,3.77679 -1.888395,4.563618 -5.035719,4.012838 -7.160159,2.124441 -6.845428,5.271767 -5.743864,1.494979 L 57.4578,77.073947 45.73402,73.29716 28.345063,67.868028 22.286465,61.258649 20.39807,53.626392 23.230661,44.735201 21.027535,41.037097 c 0,0 0.629464,-2.675223 1.967076,-5.507815 -0.955938,-3.377008 3.452026,-4.021456 7.612288,-3.096727 2.469355,0.548879 2.863916,2.160219 7.43089,2.687995 8.369552,0.967215 5.790502,-1.429699 36.336873,-1.007564 z"
         id="path1"
         sodipodi:nodetypes="cccccccccccccccccccsccssc" /><g
         id="g58"
         transform="matrix(1.0747719,0,0,1.0747719,-4.5112908,-2.8830095)"><path
           id="path27"
           style="fill:#dbe0e7;fill-opacity:1"
           d="m 61.99802,77.668817 c 3.22533,-1.037841 5.6346,-2.473113 7.90223,-4.707583 2.06951,-2.039251 2.16248,-2.093951 4.17323,-2.45533 2.3809,-0.427905 5.328243,-1.724791 6.798013,-2.991258 1.52166,-1.311178 3.02781,-3.675008 3.42395,-5.37371 0.1927,-0.82638 0.58584,-1.761735 0.87363,-2.078567 0.38291,-0.421543 0.57312,-1.22474 0.70915,-2.994433 l 0.18589,-2.418373 -2.57155,-1.803346 c -2.21004,-1.549827 -2.61605,-1.96065 -2.88803,-2.922301 -0.17406,-0.615426 -0.5552,-1.422449 -0.84698,-1.793385 -0.52609,-0.668822 -0.52352,-0.684582 0.30943,-1.895227 0.46196,-0.671439 0.83993,-1.30767 0.83993,-1.413848 0,-0.405521 -2.83497,-3.441072 -4.321493,-4.627256 -1.38722,-1.106946 -1.5273,-1.31386 -1.29789,-1.917246 0.80053,-2.105555 -0.12461,-4.292004 -2.20555,-5.2125 -1.13285,-0.501112 -1.67886,-0.560529 -3.87303,-0.421465 -1.40484,0.08904 -3.85199,0.493669 -5.43811,0.899179 -2.83488,0.724775 -2.96665,0.732486 -7.76111,0.454204 -5.01023,-0.290806 -10.01465,-0.09215 -14.0531,0.557842 l -2.12028,0.341264 -1.54861,-0.871062 C 36.03725,32.75856 31.73631,31.401409 29.42001,31.226227 l -2.00494,-0.151633 -1.04469,1.156346 c -2.06742,2.28838 -3.60716,6.291327 -3.59505,9.346227 0.006,1.484145 0.72605,3.683923 1.32781,4.055827 0.14513,0.0897 -0.221,1.153118 -0.81365,2.363151 -1.74343,3.559689 -1.9692,7.101316 -0.68476,10.741807 0.68377,1.938028 2.67404,4.788947 4.49243,6.435097 2.69303,2.437931 5.25868,3.534872 12.88753,5.510029 8.012,2.074359 11.35759,3.118628 13.97,4.360503 2.45796,1.168453 2.85271,1.488931 3.37568,2.740567 0.41671,0.997337 0.42299,1.00019 1.62577,0.738081 0.66409,-0.14472 2.03294,-0.528755 3.04188,-0.853412 z m -1.49604,-2.483852 c 0.3476,-1.329235 -1.46748,-2.739127 -5.27729,-4.09921 -1.16417,-0.415602 -5.73617,-1.764635 -10.16,-2.99785 -4.42383,-1.233216 -8.95657,-2.60832 -10.07275,-3.055786 -4.22548,-1.693962 -7.6001,-4.649411 -9.34871,-8.187492 -0.96832,-1.959272 -1.03935,-2.278858 -1.03528,-4.658229 0.005,-2.839705 0.50999,-4.355792 2.28136,-6.847263 l 0.94796,-1.33332 -0.66514,-0.714805 c -1.08179,-1.162566 -1.33819,-1.915193 -1.33136,-3.907948 0.008,-2.182379 0.87185,-5.279306 1.73079,-6.201274 0.49048,-0.526467 0.77504,-0.599085 1.77151,-0.452081 1.71965,0.253689 4.84658,1.325708 7.66501,2.627827 l 2.45463,1.134044 3.29488,-0.564679 c 2.39523,-0.410496 4.64342,-0.569139 8.23377,-0.581014 5.44043,-0.01799 8.92288,0.388308 14.06749,1.641264 3.13913,0.764527 3.20971,0.76919 3.59833,0.237721 0.52675,-0.720362 0.50065,-1.570903 -0.0733,-2.390385 l -0.46974,-0.670646 1.80493,0.163664 c 2.31096,0.209551 2.93606,0.841505 2.71266,2.742401 -0.0823,0.700132 -0.22787,1.526968 -0.32352,1.837413 -0.13985,0.453851 0.0657,0.690442 1.04925,1.207512 1.45045,0.76256 3.800943,2.666027 4.846843,3.925062 l 0.74701,0.89924 -0.78607,1.409684 -0.78607,1.409683 0.78257,0.817705 c 0.45337,0.473716 0.8689,1.305686 0.98778,1.977696 0.1882,1.063835 0.41992,1.313438 2.79543,3.011141 l 2.59022,1.851151 -0.15651,1.62334 c -0.11287,1.170707 -0.34327,1.824376 -0.82633,2.344339 -0.3684,0.396549 -0.67261,0.968049 -0.67602,1.27 -0.0114,1.010472 -1.0778,2.924075 -2.44258,4.383136 -1.94913,2.083779 -5.325623,3.634779 -8.859873,4.069798 -1.1131,0.137008 -1.51362,0.388564 -2.92405,1.83653 -1.92563,1.976872 -3.64773,3.170837 -5.63425,3.906336 -2.62119,0.970484 -2.68176,0.978564 -2.51354,0.335295 z m -4.1484,-10.742969 c 0.6985,-0.153031 2.3495,-0.376603 3.66889,-0.496827 l 2.39889,-0.218589 -2.39558,-0.938521 c -1.90038,-0.744512 -2.67682,-0.911499 -3.75606,-0.807798 -1.66952,0.16042 -2.20267,0.584808 -1.55206,1.235424 0.4206,0.420599 0.39742,0.511133 -0.29431,1.149401 l -0.75088,0.692842 0.70555,-0.168847 c 0.38806,-0.09287 1.27706,-0.294055 1.97556,-0.447085 z m 17.21244,-0.41529 c 2.25265,-1.164894 2.26442,-4.093834 0.0164,-4.093834 -0.57853,0 -1.00217,-0.274215 -1.56632,-1.01386 l -0.77331,-1.01386 1.37481,-1.414341 1.37481,-1.414342 3.175003,0.147217 c 1.74625,0.08097 3.17434,0.06241 3.17353,-0.04124 -8.1e-4,-0.103652 -2.0114,-1.490209 -4.467993,-3.081237 l -4.46653,-2.892777 h -2.72867 c -1.50077,0 -2.72867,0.07565 -2.72867,0.168099 0,0.09245 0.23318,0.505205 0.51817,0.917223 1.02226,1.477894 1.02158,1.481918 -0.2175,1.28378 -1.08253,-0.173102 -1.23484,-0.106718 -2.52593,1.100953 -1.54042,1.440876 -3.48337,2.174389 -5.75959,2.174389 h -1.3913 l 0.17925,0.955493 c 0.16046,0.855337 0.10384,0.974421 -0.54021,1.136067 -0.96759,0.242851 -2.84711,2.162573 -3.02419,3.088874 -0.0785,0.410428 -0.12851,0.744858 -0.11123,0.743177 0.0173,-0.0017 0.65485,-0.19218 1.41683,-0.423333 3.01759,-0.915418 6.22193,-0.284258 10.1857,2.006284 1.24178,0.717584 2.70228,1.472217 3.24556,1.67696 1.37615,0.518629 4.63048,0.51304 5.64132,-0.0097 z m 6.954803,-6.37463 c 0.52279,-0.323104 0.95053,-0.640604 0.95053,-0.705555 0,-0.06495 -1.49225,-0.104925 -3.31611,-0.08883 l -3.316103,0.02927 1.975553,0.651646 c 2.48756,0.820535 2.55856,0.822708 3.70613,0.113473 z M 48.49218,56.553648 c 0.98649,-0.306351 2.29518,-0.899627 2.9082,-1.318392 l 1.11457,-0.76139 -0.69124,-0.2761 c -3.10313,-1.239475 -4.85589,-2.636277 -5.91626,-4.714772 -0.75244,-1.47491 -1.05042,-3.776516 -0.5647,-4.361775 0.30212,-0.364035 0.24688,-0.428347 -0.36796,-0.428347 -1.35666,0 -1.05019,-0.523558 0.85569,-1.46182 1.73046,-0.851904 2.13484,-0.936942 4.44939,-0.935673 l 2.54593,0.0014 4.8584,2.340585 c 5.45157,2.626352 8.13726,3.354929 11.29087,3.063003 2.05475,-0.190207 3.22084,-0.724307 4.06029,-1.859729 0.52139,-0.705209 0.74665,-0.799358 1.62778,-0.680337 l 1.02266,0.138138 -1.55222,-1.040084 C 70.82967,42.044535 65.8782,40.06472 60.72802,38.89823 57.58038,38.185304 48.9265,38.018304 45.46581,38.603705 c -4.76309,0.805712 -9.79756,2.903631 -12.39556,5.165371 -0.8177,0.711859 -0.84667,0.819947 -0.84667,3.158774 0,2.074909 0.11196,2.649688 0.78189,4.013851 0.43003,0.875687 1.34013,2.106729 2.02242,2.735649 1.36101,1.254535 4.07989,2.737421 5.73408,3.127385 1.99106,0.46938 5.80962,0.34535 7.73021,-0.251083 z m 11.24094,-4.875776 c 1.15941,-0.593077 1.99065,-1.437905 1.69048,-1.718111 -0.0721,-0.06732 -0.63913,-0.205937 -1.26002,-0.308029 -0.99665,-0.163878 -1.16195,-0.109948 -1.41111,0.460397 -0.57086,1.306711 -2.36643,1.628437 -3.38785,0.607023 -0.38232,-0.382324 -0.36296,-0.480404 0.18199,-0.921673 0.93645,-0.75829 0.5323,-1.708081 -1.11853,-2.628658 -0.75906,-0.423284 -1.46184,-0.687867 -1.56175,-0.587963 -0.36374,0.36374 -0.15583,2.233787 0.37947,3.413212 0.98163,2.162795 4.01288,2.949565 6.48732,1.683802 z m 15.3898,-3.318637 c 0.25827,-0.417901 -0.12242,-1.408585 -0.54128,-1.408585 -0.19832,0 -0.58004,0.242499 -0.84826,0.538886 -0.46271,0.511288 -0.46134,0.554209 0.0268,0.838085 0.65642,0.381732 1.13941,0.392937 1.36272,0.03161 z M 30.30919,37.971934 c 0.34209,-0.04879 1.23028,0.185935 1.97374,0.52162 1.53808,0.694462 4.5226,1.020713 5.16176,0.564253 0.36731,-0.262315 0.34863,-0.360698 -0.14111,-0.743363 -1.05787,-0.826581 -4.37079,-2.376682 -5.96944,-2.793079 -1.47172,-0.383333 -1.62275,-0.377613 -1.95856,0.07418 -0.56543,0.760723 -0.74671,2.400574 -0.36751,3.324431 l 0.34232,0.834004 0.16841,-0.846666 c 0.11768,-0.591605 0.35578,-0.873393 0.79039,-0.935383 z" /><g
           id="g57"
           transform="translate(-87.889561,8.2897342)"><path
             style="fill:#ffffff;fill-opacity:1"
             d="m 163.0099,40.053509 c 0.25827,-0.417901 -0.12242,-1.408585 -0.54128,-1.408585 -0.19832,0 -0.58004,0.242499 -0.84826,0.538886 -0.46271,0.511288 -0.46134,0.554209 0.0268,0.838085 0.65642,0.381732 1.13941,0.392937 1.36272,0.03161 z"
             id="path56" /><path
             style="fill:#ffffff;fill-opacity:1"
             d="m 147.6201,43.372146 c 1.15941,-0.593077 1.99065,-1.437905 1.69048,-1.718111 -0.0721,-0.06732 -0.63913,-0.205937 -1.26002,-0.308029 -0.99665,-0.163878 -1.16195,-0.109948 -1.41111,0.460397 -0.57086,1.306711 -2.36643,1.628437 -3.38785,0.607023 -0.38232,-0.382324 -0.36296,-0.480404 0.18199,-0.921673 0.93645,-0.75829 0.5323,-1.708081 -1.11853,-2.628658 -0.75906,-0.423284 -1.46184,-0.687867 -1.56175,-0.587963 -0.36374,0.36374 -0.15583,2.233787 0.37947,3.413212 0.98163,2.162795 4.01288,2.949565 6.48732,1.683802 z"
             id="path55" /><path
             style="fill:#ffffff;fill-opacity:1"
             d="m 168.40781,49.34635 c 0.52279,-0.323104 0.95053,-0.640604 0.95053,-0.705555 0,-0.06495 -1.49225,-0.104925 -3.31611,-0.08883 l -3.31611,0.02927 1.97556,0.651646 c 2.48756,0.820535 2.55856,0.822708 3.70613,0.113473 z"
             id="path53" /><path
             style="fill:#ffffff;fill-opacity:1"
             d="m 144.24056,56.13627 c 0.6985,-0.153031 2.3495,-0.376603 3.66889,-0.496827 l 2.39889,-0.218589 -2.39558,-0.938521 c -1.90038,-0.744512 -2.67682,-0.911499 -3.75606,-0.807798 -1.66952,0.16042 -2.20267,0.584808 -1.55206,1.235424 0.4206,0.420599 0.39742,0.511133 -0.29431,1.149401 l -0.75088,0.692842 0.70555,-0.168847 c 0.38806,-0.09287 1.27706,-0.294055 1.97556,-0.447085 z"
             id="path51" /></g></g></g></g></svg>
