<?xml version="1.0" encoding="UTF-8" standalone="no"?>
<!-- Created with Inkscape (http://www.inkscape.org/) -->

<svg
   width="105.83334mm"
   height="105.83334mm"
   viewBox="0 0 105.83333 105.83333"
   version="1.1"
   id="svg1"
   xml:space="preserve"
   inkscape:version="1.4 (e7c3feb100, 2024-10-09)"
   sodipodi:docname="montreal.svg"
   inkscape:export-filename="../pngs/san_antonio.png"
   inkscape:export-xdpi="96"
   inkscape:export-ydpi="96"
   xmlns:inkscape="http://www.inkscape.org/namespaces/inkscape"
   xmlns:sodipodi="http://sodipodi.sourceforge.net/DTD/sodipodi-0.dtd"
   xmlns:xlink="http://www.w3.org/1999/xlink"
   xmlns="http://www.w3.org/2000/svg"
   xmlns:svg="http://www.w3.org/2000/svg"><sodipodi:namedview
     id="namedview1"
     pagecolor="#ffffff"
     bordercolor="#000000"
     borderopacity="0.25"
     inkscape:showpageshadow="2"
     inkscape:pageopacity="0.0"
     inkscape:pagecheckerboard="0"
     inkscape:deskcolor="#d1d1d1"
     inkscape:document-units="mm"
     inkscape:zoom="1.3647356"
     inkscape:cx="299.69175"
     inkscape:cy="139.95385"
     inkscape:window-width="1920"
     inkscape:window-height="1011"
     inkscape:window-x="0"
     inkscape:window-y="32"
     inkscape:window-maximized="1"
     inkscape:current-layer="layer1"
     showgrid="false" /><defs
     id="defs1" /><g
     inkscape:label="Capa 1"
     inkscape:groupmode="layer"
     id="layer1"><circle
       style="fill:#0d2f6d;fill-opacity:1;stroke:none;stroke-width:1.41799;stroke-dasharray:none"
       id="circle58"
       cx="52.916672"
       cy="52.916672"
       r="52.510372" /><circle
       style="fill:#000000;fill-opacity:1;stroke:none;stroke-width:1.03843;stroke-dasharray:none"
       id="path35"
       cx="52.916672"
       cy="52.916672"
       r="38.454689" /><g
       id="g58"
       transform="matrix(0.93627609,0,0,0.93627609,2.4279374,1.5415077)"><path
         id="path27"
         style="fill:#dbe0e7;fill-opacity:1"
         d="m 61.99802,77.668817 c 3.22533,-1.037841 5.6346,-2.473113 7.90223,-4.707583 2.06951,-2.039251 2.16248,-2.093951 4.17323,-2.45533 2.3809,-0.427905 5.328243,-1.724791 6.798013,-2.991258 1.52166,-1.311178 3.02781,-3.675008 3.42395,-5.37371 0.1927,-0.82638 0.58584,-1.761735 0.87363,-2.078567 0.38291,-0.421543 0.57312,-1.22474 0.70915,-2.994433 l 0.18589,-2.418373 -2.57155,-1.803346 c -2.21004,-1.549827 -2.61605,-1.96065 -2.88803,-2.922301 -0.17406,-0.615426 -0.5552,-1.422449 -0.84698,-1.793385 -0.52609,-0.668822 -0.52352,-0.684582 0.30943,-1.895227 0.46196,-0.671439 0.83993,-1.30767 0.83993,-1.413848 0,-0.405521 -2.83497,-3.441072 -4.321493,-4.627256 -1.38722,-1.106946 -1.5273,-1.31386 -1.29789,-1.917246 0.80053,-2.105555 -0.12461,-4.292004 -2.20555,-5.2125 -1.13285,-0.501112 -1.67886,-0.560529 -3.87303,-0.421465 -1.40484,0.08904 -3.85199,0.493669 -5.43811,0.899179 -2.83488,0.724775 -2.96665,0.732486 -7.76111,0.454204 -5.01023,-0.290806 -10.01465,-0.09215 -14.0531,0.557842 l -2.12028,0.341264 -1.54861,-0.871062 C 36.03725,32.75856 31.73631,31.401409 29.42001,31.226227 l -2.00494,-0.151633 -1.04469,1.156346 c -2.06742,2.28838 -3.60716,6.291327 -3.59505,9.346227 0.006,1.484145 0.72605,3.683923 1.32781,4.055827 0.14513,0.0897 -0.221,1.153118 -0.81365,2.363151 -1.74343,3.559689 -1.9692,7.101316 -0.68476,10.741807 0.68377,1.938028 2.67404,4.788947 4.49243,6.435097 2.69303,2.437931 5.25868,3.534872 12.88753,5.510029 8.012,2.074359 11.35759,3.118628 13.97,4.360503 2.45796,1.168453 2.85271,1.488931 3.37568,2.740567 0.41671,0.997337 0.42299,1.00019 1.62577,0.738081 0.66409,-0.14472 2.03294,-0.528755 3.04188,-0.853412 z m -1.49604,-2.483852 c 0.3476,-1.329235 -1.46748,-2.739127 -5.27729,-4.09921 -1.16417,-0.415602 -5.73617,-1.764635 -10.16,-2.99785 -4.42383,-1.233216 -8.95657,-2.60832 -10.07275,-3.055786 -4.22548,-1.693962 -7.6001,-4.649411 -9.34871,-8.187492 -0.96832,-1.959272 -1.03935,-2.278858 -1.03528,-4.658229 0.005,-2.839705 0.50999,-4.355792 2.28136,-6.847263 l 0.94796,-1.33332 -0.66514,-0.714805 c -1.08179,-1.162566 -1.33819,-1.915193 -1.33136,-3.907948 0.008,-2.182379 0.87185,-5.279306 1.73079,-6.201274 0.49048,-0.526467 0.77504,-0.599085 1.77151,-0.452081 1.71965,0.253689 4.84658,1.325708 7.66501,2.627827 l 2.45463,1.134044 3.29488,-0.564679 c 2.39523,-0.410496 4.64342,-0.569139 8.23377,-0.581014 5.44043,-0.01799 8.92288,0.388308 14.06749,1.641264 3.13913,0.764527 3.20971,0.76919 3.59833,0.237721 0.52675,-0.720362 0.50065,-1.570903 -0.0733,-2.390385 l -0.46974,-0.670646 1.80493,0.163664 c 2.31096,0.209551 2.93606,0.841505 2.71266,2.742401 -0.0823,0.700132 -0.22787,1.526968 -0.32352,1.837413 -0.13985,0.453851 0.0657,0.690442 1.04925,1.207512 1.45045,0.76256 3.800943,2.666027 4.846843,3.925062 l 0.74701,0.89924 -0.78607,1.409684 -0.78607,1.409683 0.78257,0.817705 c 0.45337,0.473716 0.8689,1.305686 0.98778,1.977696 0.1882,1.063835 0.41992,1.313438 2.79543,3.011141 l 2.59022,1.851151 -0.15651,1.62334 c -0.11287,1.170707 -0.34327,1.824376 -0.82633,2.344339 -0.3684,0.396549 -0.67261,0.968049 -0.67602,1.27 -0.0114,1.010472 -1.0778,2.924075 -2.44258,4.383136 -1.94913,2.083779 -5.325623,3.634779 -8.859873,4.069798 -1.1131,0.137008 -1.51362,0.388564 -2.92405,1.83653 -1.92563,1.976872 -3.64773,3.170837 -5.63425,3.906336 -2.62119,0.970484 -2.68176,0.978564 -2.51354,0.335295 z m -4.1484,-10.742969 c 0.6985,-0.153031 2.3495,-0.376603 3.66889,-0.496827 l 2.39889,-0.218589 -2.39558,-0.938521 c -1.90038,-0.744512 -2.67682,-0.911499 -3.75606,-0.807798 -1.66952,0.16042 -2.20267,0.584808 -1.55206,1.235424 0.4206,0.420599 0.39742,0.511133 -0.29431,1.149401 l -0.75088,0.692842 0.70555,-0.168847 c 0.38806,-0.09287 1.27706,-0.294055 1.97556,-0.447085 z m 17.21244,-0.41529 c 2.25265,-1.164894 2.26442,-4.093834 0.0164,-4.093834 -0.57853,0 -1.00217,-0.274215 -1.56632,-1.01386 l -0.77331,-1.01386 1.37481,-1.414341 1.37481,-1.414342 3.175003,0.147217 c 1.74625,0.08097 3.17434,0.06241 3.17353,-0.04124 -8.1e-4,-0.103652 -2.0114,-1.490209 -4.467993,-3.081237 l -4.46653,-2.892777 h -2.72867 c -1.50077,0 -2.72867,0.07565 -2.72867,0.168099 0,0.09245 0.23318,0.505205 0.51817,0.917223 1.02226,1.477894 1.02158,1.481918 -0.2175,1.28378 -1.08253,-0.173102 -1.23484,-0.106718 -2.52593,1.100953 -1.54042,1.440876 -3.48337,2.174389 -5.75959,2.174389 h -1.3913 l 0.17925,0.955493 c 0.16046,0.855337 0.10384,0.974421 -0.54021,1.136067 -0.96759,0.242851 -2.84711,2.162573 -3.02419,3.088874 -0.0785,0.410428 -0.12851,0.744858 -0.11123,0.743177 0.0173,-0.0017 0.65485,-0.19218 1.41683,-0.423333 3.01759,-0.915418 6.22193,-0.284258 10.1857,2.006284 1.24178,0.717584 2.70228,1.472217 3.24556,1.67696 1.37615,0.518629 4.63048,0.51304 5.64132,-0.0097 z m 6.954803,-6.37463 c 0.52279,-0.323104 0.95053,-0.640604 0.95053,-0.705555 0,-0.06495 -1.49225,-0.104925 -3.31611,-0.08883 l -3.316103,0.02927 1.975553,0.651646 c 2.48756,0.820535 2.55856,0.822708 3.70613,0.113473 z M 48.49218,56.553648 c 0.98649,-0.306351 2.29518,-0.899627 2.9082,-1.318392 l 1.11457,-0.76139 -0.69124,-0.2761 c -3.10313,-1.239475 -4.85589,-2.636277 -5.91626,-4.714772 -0.75244,-1.47491 -1.05042,-3.776516 -0.5647,-4.361775 0.30212,-0.364035 0.24688,-0.428347 -0.36796,-0.428347 -1.35666,0 -1.05019,-0.523558 0.85569,-1.46182 1.73046,-0.851904 2.13484,-0.936942 4.44939,-0.935673 l 2.54593,0.0014 4.8584,2.340585 c 5.45157,2.626352 8.13726,3.354929 11.29087,3.063003 2.05475,-0.190207 3.22084,-0.724307 4.06029,-1.859729 0.52139,-0.705209 0.74665,-0.799358 1.62778,-0.680337 l 1.02266,0.138138 -1.55222,-1.040084 C 70.82967,42.044535 65.8782,40.06472 60.72802,38.89823 57.58038,38.185304 48.9265,38.018304 45.46581,38.603705 c -4.76309,0.805712 -9.79756,2.903631 -12.39556,5.165371 -0.8177,0.711859 -0.84667,0.819947 -0.84667,3.158774 0,2.074909 0.11196,2.649688 0.78189,4.013851 0.43003,0.875687 1.34013,2.106729 2.02242,2.735649 1.36101,1.254535 4.07989,2.737421 5.73408,3.127385 1.99106,0.46938 5.80962,0.34535 7.73021,-0.251083 z m 11.24094,-4.875776 c 1.15941,-0.593077 1.99065,-1.437905 1.69048,-1.718111 -0.0721,-0.06732 -0.63913,-0.205937 -1.26002,-0.308029 -0.99665,-0.163878 -1.16195,-0.109948 -1.41111,0.460397 -0.57086,1.306711 -2.36643,1.628437 -3.38785,0.607023 -0.38232,-0.382324 -0.36296,-0.480404 0.18199,-0.921673 0.93645,-0.75829 0.5323,-1.708081 -1.11853,-2.628658 -0.75906,-0.423284 -1.46184,-0.687867 -1.56175,-0.587963 -0.36374,0.36374 -0.15583,2.233787 0.37947,3.413212 0.98163,2.162795 4.01288,2.949565 6.48732,1.683802 z m 15.3898,-3.318637 c 0.25827,-0.417901 -0.12242,-1.408585 -0.54128,-1.408585 -0.19832,0 -0.58004,0.242499 -0.84826,0.538886 -0.46271,0.511288 -0.46134,0.554209 0.0268,0.838085 0.65642,0.381732 1.13941,0.392937 1.36272,0.03161 z M 30.30919,37.971934 c 0.34209,-0.04879 1.23028,0.185935 1.97374,0.52162 1.53808,0.694462 4.5226,1.020713 5.16176,0.564253 0.36731,-0.262315 0.34863,-0.360698 -0.14111,-0.743363 -1.05787,-0.826581 -4.37079,-2.376682 -5.96944,-2.793079 -1.47172,-0.383333 -1.62275,-0.377613 -1.95856,0.07418 -0.56543,0.760723 -0.74671,2.400574 -0.36751,3.324431 l 0.34232,0.834004 0.16841,-0.846666 c 0.11768,-0.591605 0.35578,-0.873393 0.79039,-0.935383 z" /><g
         id="g57"
         transform="translate(-87.889561,8.2897342)"><path
           style="fill:#ffffff;fill-opacity:1"
           d="m 163.0099,40.053509 c 0.25827,-0.417901 -0.12242,-1.408585 -0.54128,-1.408585 -0.19832,0 -0.58004,0.242499 -0.84826,0.538886 -0.46271,0.511288 -0.46134,0.554209 0.0268,0.838085 0.65642,0.381732 1.13941,0.392937 1.36272,0.03161 z"
           id="path56" /><path
           style="fill:#ffffff;fill-opacity:1"
           d="m 147.6201,43.372146 c 1.15941,-0.593077 1.99065,-1.437905 1.69048,-1.718111 -0.0721,-0.06732 -0.63913,-0.205937 -1.26002,-0.308029 -0.99665,-0.163878 -1.16195,-0.109948 -1.41111,0.460397 -0.57086,1.306711 -2.36643,1.628437 -3.38785,0.607023 -0.38232,-0.382324 -0.36296,-0.480404 0.18199,-0.921673 0.93645,-0.75829 0.5323,-1.708081 -1.11853,-2.628658 -0.75906,-0.423284 -1.46184,-0.687867 -1.56175,-0.587963 -0.36374,0.36374 -0.15583,2.233787 0.37947,3.413212 0.98163,2.162795 4.01288,2.949565 6.48732,1.683802 z"
           id="path55" /><path
           style="fill:#ffffff;fill-opacity:1"
           d="m 168.40781,49.34635 c 0.52279,-0.323104 0.95053,-0.640604 0.95053,-0.705555 0,-0.06495 -1.49225,-0.104925 -3.31611,-0.08883 l -3.31611,0.02927 1.97556,0.651646 c 2.48756,0.820535 2.55856,0.822708 3.70613,0.113473 z"
           id="path53" /><path
           style="fill:#ffffff;fill-opacity:1"
           d="m 144.24056,56.13627 c 0.6985,-0.153031 2.3495,-0.376603 3.66889,-0.496827 l 2.39889,-0.218589 -2.39558,-0.938521 c -1.90038,-0.744512 -2.67682,-0.911499 -3.75606,-0.807798 -1.66952,0.16042 -2.20267,0.584808 -1.55206,1.235424 0.4206,0.420599 0.39742,0.511133 -0.29431,1.149401 l -0.75088,0.692842 0.70555,-0.168847 c 0.38806,-0.09287 1.27706,-0.294055 1.97556,-0.447085 z"
           id="path51" /></g></g><text
       xml:space="preserve"
       style="font-style:normal;font-variant:normal;font-weight:normal;font-stretch:normal;font-size:13.3794px;line-height:1;font-family:'Ranked Sports';-inkscape-font-specification:'Ranked Sports';text-align:center;letter-spacing:3.175px;writing-mode:lr-tb;direction:ltr;text-anchor:middle;fill:#ffffff;fill-opacity:1;stroke:none;stroke-width:0.966999;stroke-dasharray:none"
       id="text58"
       transform="matrix(0,0.79101666,-0.79101666,0,95.746404,10.902493)"><textPath
         xlink:href="#circle58"
         startOffset="50%"
         id="textPath59"
         style="font-size:13.3794px;fill:#ffffff;stroke-width:0.967">MONTREAL</textPath></text><text
       xml:space="preserve"
       style="font-style:normal;font-variant:normal;font-weight:normal;font-stretch:normal;font-size:10.5833px;line-height:1;font-family:'Ranked Sports';-inkscape-font-specification:'Ranked Sports';text-align:center;letter-spacing:3.175px;writing-mode:lr-tb;direction:ltr;text-anchor:middle;fill:#ffffff;fill-opacity:1;stroke:none;stroke-width:0.966999;stroke-dasharray:none"
       id="text59"
       transform="matrix(0,-0.85377833,0.85377833,0,6.6635634,95.634737)"><textPath
         xlink:href="#circle58"
         startOffset="50%"
         id="textPath60"><tspan
           id="tspan59"
           style="stroke-width:0.967">BASKETBALL</tspan></textPath></text><path
       sodipodi:type="star"
       style="fill:#dbe0e7;fill-opacity:1;stroke:none;stroke-width:0.966999;stroke-dasharray:none"
       id="path60"
       inkscape:flatsided="false"
       sodipodi:sides="5"
       sodipodi:cx="-21.131992"
       sodipodi:cy="-21.907478"
       sodipodi:r1="9.9045382"
       sodipodi:r2="3.6882493"
       sodipodi:arg1="0.78539816"
       sodipodi:arg2="1.4137167"
       inkscape:rounded="0"
       inkscape:randomized="0"
       d="m -14.128426,-14.903912 -6.426597,-3.360725 -5.073536,5.182167 1.210312,-7.150578 -6.496342,-3.223841 7.174611,-1.058575 1.058574,-7.174611 3.223842,6.496342 7.150578,-1.210312 -5.182167,5.073536 z"
       inkscape:transform-center-x="-0.076387926"
       inkscape:transform-center-y="-0.37982337"
       transform="matrix(0.46860828,0.0994892,-0.0994892,0.46860828,14.788314,65.664926)" /><path
       sodipodi:type="star"
       style="fill:#dbe0e7;fill-opacity:1;stroke:none;stroke-width:0.966999;stroke-dasharray:none"
       id="path60-1"
       inkscape:flatsided="false"
       sodipodi:sides="5"
       sodipodi:cx="-21.131992"
       sodipodi:cy="-21.907478"
       sodipodi:r1="9.9045382"
       sodipodi:r2="3.6882493"
       sodipodi:arg1="0.78539816"
       sodipodi:arg2="1.4137167"
       inkscape:rounded="0"
       inkscape:randomized="0"
       d="m -14.128426,-14.903912 -6.426597,-3.360725 -5.073536,5.182167 1.210312,-7.150578 -6.496342,-3.223841 7.174611,-1.058575 1.058574,-7.174611 3.223842,6.496342 7.150578,-1.210312 -5.182167,5.073536 z"
       inkscape:transform-center-x="2.4439413"
       inkscape:transform-center-y="20.752167"
       transform="matrix(0.46860828,0.0994892,-0.0994892,0.46860828,105.83193,65.664926)" /></g></svg>
