<?xml version="1.0" encoding="UTF-8" standalone="no"?>
<!-- Created with Inkscape (http://www.inkscape.org/) -->

<svg
   width="105.83334mm"
   height="105.83334mm"
   viewBox="0 0 105.83333 105.83333"
   version="1.1"
   id="svg1"
   xml:space="preserve"
   inkscape:version="1.4.2 (ebf0e940d0, 2025-05-08)"
   sodipodi:docname="montreal.svg"
   inkscape:export-filename="../pngs/montreal.png"
   inkscape:export-xdpi="96"
   inkscape:export-ydpi="96"
   xmlns:inkscape="http://www.inkscape.org/namespaces/inkscape"
   xmlns:sodipodi="http://sodipodi.sourceforge.net/DTD/sodipodi-0.dtd"
   xmlns="http://www.w3.org/2000/svg"
   xmlns:svg="http://www.w3.org/2000/svg"><sodipodi:namedview
     id="namedview1"
     pagecolor="#ffffff"
     bordercolor="#000000"
     borderopacity="0.25"
     inkscape:showpageshadow="2"
     inkscape:pageopacity="0.0"
     inkscape:pagecheckerboard="0"
     inkscape:deskcolor="#d1d1d1"
     inkscape:document-units="mm"
     inkscape:zoom="1.2406687"
     inkscape:cx="137.02288"
     inkscape:cy="176.51771"
     inkscape:window-width="1920"
     inkscape:window-height="1011"
     inkscape:window-x="0"
     inkscape:window-y="32"
     inkscape:window-maximized="1"
     inkscape:current-layer="layer1"
     showgrid="false" /><defs
     id="defs1" /><g
     inkscape:label="Capa 1"
     inkscape:groupmode="layer"
     id="layer1"><path
       style="fill:#dbe0e7;stroke:none;stroke-width:2.611;stroke-dasharray:none;stroke-opacity:1;fill-opacity:1"
       d="m 31.775537,24.098227 -3.198878,2.878991 2.985621,4.585062 -4.798322,20.259569 2.239217,18.126985 9.170122,10.662933 15.034733,7.890571 14.714847,-7.890571 8.530347,-10.343044 4.478433,-17.380579 -4.798322,-15.354623 -0.213257,-7.250795 2.772362,-3.198878 -3.412138,-4.051914 -10.556303,1.172922 -20.366202,0.106629 z"
       id="path4" /><path
       style="fill:#000000;stroke-width:2.61099978;stroke:#dbe0e7;stroke-opacity:1;stroke-dasharray:none"
       d="m 51.785573,90.775414 c -4.760895,-2.07825 -9.521738,-4.999417 -13.306337,-8.164538 -2.829478,-2.366344 -5.773704,-5.482761 -7.160058,-7.578818 -0.166577,-0.251851 -0.344911,-0.457911 -0.396296,-0.457911 -0.153236,0 -0.106019,1.936175 0.0726,2.976055 0.09134,0.531794 0.279661,1.425182 0.41847,1.985305 0.138795,0.560123 0.237423,1.034929 0.219181,1.055125 -0.07325,0.081 -1.408999,-2.299553 -2.257561,-4.023229 -2.28726,-4.646054 -3.346014,-8.341414 -3.488281,-12.175019 -0.06592,-1.774706 -0.07339,-1.821592 -0.244619,-1.508409 -0.283828,0.519331 -0.849061,2.190721 -1.05667,3.124562 l -0.191622,0.861948 -0.08439,-0.646461 c -0.108902,-0.833136 0.0092,-9.203747 0.160367,-11.313069 0.2805,-3.929666 0.6241,-6.196832 1.34713,-8.888841 0.860581,-3.204122 2.527158,-7.798171 3.928085,-10.828096 l 0.448284,-0.969563 -0.409466,-0.315304 c -2.874351,-2.213379 -3.871027,-5.494355 -2.522678,-8.304434 1.601355,-3.337368 4.969502,-3.885625 11.131443,-1.811942 l 1.476175,0.496779 0.385393,-0.338385 c 0.884391,-0.7765 1.982868,-1.089993 3.827202,-1.092228 1.811992,-0.0023 3.283777,0.164707 5.396699,0.612003 1.692998,0.358397 2.033637,0.396822 3.492146,0.393938 1.450176,-0.0029 1.799962,-0.04334 3.406047,-0.394082 2.009052,-0.438746 3.549272,-0.614075 5.37505,-0.611859 1.844322,0.0023 2.942811,0.315728 3.827189,1.092228 l 0.385406,0.338385 1.476175,-0.496779 c 6.065187,-2.041124 9.458692,-1.531696 11.070386,1.661866 1.433335,2.840147 0.451704,6.211004 -2.462197,8.454959 l -0.410017,0.315754 0.474494,1.022985 c 1.033567,2.228315 2.289171,5.504562 3.158637,8.241803 1.290399,4.062497 1.750502,6.574833 2.091548,11.420813 0.149935,2.130234 0.268469,10.487971 0.160471,11.313069 l -0.08466,0.646461 -0.191622,-0.861948 c -0.26978,-1.213523 -1.058806,-3.39392 -1.228163,-3.39392 -0.02371,0 -0.04521,0.620911 -0.04783,1.379803 -0.0131,3.713452 -1.350891,8.389233 -3.737355,13.057829 -0.668395,1.307587 -2.084772,3.783194 -2.089582,3.65228 -0.0013,-0.03569 0.117552,-0.544769 0.264106,-1.131307 0.146554,-0.58654 0.340494,-1.497027 0.430971,-2.023305 0.175307,-1.019759 0.224384,-2.97577 0.07469,-2.97577 -0.04941,0 -0.279714,0.278522 -0.51179,0.618935 -1.061192,1.556623 -3.391304,4.141487 -5.310574,5.891181 -3.005334,2.739806 -6.11961,4.986722 -9.836089,7.096636 -2.254234,1.279773 -5.913521,2.992111 -6.364596,2.978264 -0.134143,-0.004 -0.63178,-0.176805 -1.105841,-0.383749 z m 2.022879,-4.956971 c 3.116254,-1.569255 7.105698,-4.130825 9.924233,-6.37223 1.47725,-1.17477 3.563595,-3.166724 4.44441,-4.24334 0.33423,-0.408527 0.624362,-0.726097 0.64474,-0.705714 0.05452,0.05452 -0.264996,1.966973 -0.453866,2.716705 -0.08964,0.355553 -0.187453,0.743429 -0.217504,0.861947 -0.06788,0.267563 0.249088,-0.08111 1.616007,-1.777768 3.314861,-4.114525 5.793335,-8.576073 6.889674,-12.402214 0.142478,-0.497262 0.291116,-1.098049 0.330286,-1.335085 0.06028,-0.36493 -0.01717,-0.264657 -0.505395,0.654348 -0.317154,0.596929 -0.86324,1.56662 -1.213524,2.154871 -0.990385,1.663229 -3.89552,5.955352 -4.038836,5.96709 -0.03211,0.0026 0.05202,-0.540662 0.187061,-1.207326 0.135034,-0.666662 0.246191,-1.303654 0.247017,-1.415537 10e-4,-0.137305 -0.532825,0.317953 -1.6424,1.400666 -3.385236,3.303254 -7.378964,6.486271 -11.877917,9.466755 -2.01846,1.337199 -5.043466,3.181044 -5.218812,3.181044 -0.275559,0 -4.553691,-2.671739 -6.956208,-4.34423 -3.896083,-2.712216 -7.299522,-5.505661 -10.316441,-8.46745 -1.039385,-1.020392 -1.481025,-1.391579 -1.479976,-1.243882 8.25e-4,0.115784 0.115586,0.768092 0.255155,1.44957 0.139515,0.681477 0.24273,1.252325 0.229376,1.26855 -0.04351,0.05289 -2.383423,-3.335136 -3.257291,-4.716343 -0.810952,-1.281788 -1.727543,-2.866483 -2.336926,-4.040381 l -0.279661,-0.538719 0.06788,0.430974 c 0.09449,0.599999 0.727918,2.681391 1.104282,3.628415 1.370588,3.448797 3.714316,7.230722 6.783013,10.945332 0.502446,0.608195 0.928556,1.090785 0.946917,1.072425 0.01834,-0.01836 -0.0384,-0.297792 -0.126202,-0.62096 -0.191634,-0.705388 -0.605163,-3.029195 -0.549048,-3.085316 0.02188,-0.02185 0.225892,0.191825 0.45346,0.47481 1.695816,2.10888 4.924198,4.894855 8.236177,7.107526 2.288791,1.529092 6.809,4.121285 7.194576,4.125846 0.07548,8.94e-4 0.487664,-0.174776 0.915818,-0.390379 z M 45.53106,68.117762 c -0.05635,-0.05473 -0.417514,-0.349314 -0.802696,-0.654622 -2.006837,-1.59069 -4.575289,-4.288445 -6.418287,-6.741401 -2.488564,-3.312191 -4.326845,-7.113245 -4.842423,-10.012782 -0.337703,-1.899185 -0.186917,-4.114021 0.377595,-5.546185 0.12345,-0.313136 0.206102,-0.587645 0.183733,-0.610018 -0.08492,-0.08493 -1.565172,1.117767 -2.398992,1.949176 -0.478216,0.476838 -1.168221,1.279098 -1.533339,1.782798 -0.365133,0.503701 -0.733973,1.012789 -0.819667,1.131307 -0.342841,0.474225 0.539795,-2.995853 1.301774,-5.117817 0.640626,-1.784042 2.090669,-4.724339 3.053665,-6.19203 0.747144,-1.138698 1.72757,-2.459827 1.782296,-2.401672 0.01454,0.01545 -0.06631,0.440211 -0.179709,0.943912 -0.251524,1.117365 -0.36272,2.862443 -0.233439,3.663279 l 0.09566,0.592589 0.285782,-0.553077 c 0.622946,-1.205612 1.87213,-2.910666 2.873025,-3.921479 1.213879,-1.225912 1.804116,-1.647156 2.965994,-2.116785 0.855495,-0.345793 0.856623,-0.346769 0.53872,-0.46964 -0.822955,-0.318071 -1.797942,-0.439904 -2.573117,-0.321528 -0.419243,0.06403 -0.858864,0.146161 -0.976914,0.182527 -0.192539,0.05931 -0.198777,0.047 -0.06068,-0.119438 0.505198,-0.608734 2.405322,-1.097127 3.880894,-0.997523 1.6232,0.109572 2.742173,0.645099 3.817911,1.827222 0.336131,0.369365 0.77718,0.851481 0.980112,1.071368 0.472711,0.512198 1.354128,0.799214 1.949502,0.634822 0.582544,-0.160847 1.224192,-0.645591 1.58344,-1.196232 l 0.316329,-0.484846 -0.06893,0.46922 c -0.09907,0.674472 -0.298113,0.996382 -0.983308,1.590664 -1.478757,1.282564 -1.856536,1.685545 -2.33648,2.49238 -0.877644,1.475433 -1.675175,3.550447 -2.20129,5.727338 l -0.271024,1.121403 0.400488,0.898788 c 0.220256,0.494333 0.444876,0.898788 0.499144,0.898788 0.05426,0 0.860109,-0.1914 1.790775,-0.425332 4.793514,-1.204905 6.004877,-1.204752 10.818533,0.0013 0.930653,0.233186 1.736022,0.423976 1.7897,0.423976 0.05373,0 0.278298,-0.395312 0.499158,-0.878472 l 0.401573,-0.878425 -0.238761,-1.033975 c -0.48288,-2.091125 -1.423991,-4.534148 -2.28085,-5.920807 -0.577315,-0.934279 -0.96795,-1.373259 -1.710388,-1.922021 -0.801476,-0.592403 -1.355452,-1.232037 -1.491561,-1.722198 -0.209025,-0.752709 -0.137275,-0.865256 0.20626,-0.323562 0.334689,0.527749 1.091949,1.089367 1.627434,1.206978 0.176563,0.03878 0.577053,-0.0095 0.931137,-0.112375 0.472462,-0.137204 0.711656,-0.284695 0.99842,-0.615645 1.544046,-1.781999 2.342744,-2.366823 3.712848,-2.718643 1.602232,-0.411425 4.186398,0.05555 4.943396,0.893309 l 0.198397,0.219548 -0.521619,-0.166691 c -0.947938,-0.302928 -2.774844,-0.166118 -3.52352,0.263863 -0.05098,0.02931 0.239861,0.183002 0.64647,0.341515 1.116876,0.435409 1.926019,1.003324 3.060638,2.148178 0.999532,1.008547 2.249489,2.718217 2.875018,3.932428 l 0.28493,0.553077 0.09462,-0.484845 c 0.05203,-0.266666 0.06776,-1.018177 0.03512,-1.670025 -0.05255,-1.048327 -0.138506,-1.59811 -0.438022,-2.801332 l -0.08047,-0.323231 0.335738,0.377103 c 0.676599,0.759954 2.280234,3.271405 3.009777,4.713616 1.263808,2.498381 2.231666,5.201192 2.76833,7.73076 0.186852,0.880733 0.211581,1.129825 0.09632,0.969692 -1.191535,-1.654649 -1.613411,-2.177265 -2.35239,-2.914106 -0.803076,-0.800767 -2.313075,-2.035082 -2.392479,-1.955679 -0.01874,0.0188 0.06343,0.290922 0.182619,0.604727 0.561105,1.476675 0.707959,3.669745 0.372208,5.55798 -0.386807,2.175348 -1.717242,5.317722 -3.27818,7.742781 -2.173861,3.377289 -5.104484,6.693249 -7.900637,8.939455 -0.517909,0.416049 -0.92119,0.776919 -0.896173,0.801933 0.08047,0.08045 1.871724,-0.825814 3.011534,-1.523656 2.459353,-1.505722 4.471393,-3.300649 6.40184,-5.711039 1.965111,-2.453683 3.796852,-6.032632 4.656725,-9.098541 l 0.281574,-1.003938 0.39353,0.435599 c 1.085214,1.201193 1.829108,3.668204 1.936109,6.420735 l 0.02516,0.646461 0.246492,-0.461588 c 1.45478,-2.724311 1.799612,-6.853926 0.931024,-11.149469 -0.932972,-4.61397 -3.553006,-10.474992 -6.794741,-15.19989 l -0.579557,-0.844724 0.383623,-0.730041 c 0.764193,-1.454252 1.881553,-2.544479 2.886577,-2.816471 1.093286,-0.295881 2.418439,0.106622 3.282755,0.997125 0.512917,0.528452 0.543321,0.464508 0.22745,-0.478344 -0.670754,-2.002065 -1.931955,-3.168566 -3.546558,-3.280231 -0.865509,-0.05986 -2.653505,0.203961 -3.875522,0.571831 -1.073982,0.323311 -2.373607,0.893956 -2.373607,1.04222 0,0.05678 0.137945,0.279898 0.30654,0.495832 0.415625,0.532304 0.918112,1.412621 0.846951,1.483781 -0.03184,0.03183 -0.513848,-0.210471 -1.071138,-0.538453 -1.535594,-0.903744 -3.703295,-1.956093 -4.607581,-2.236824 -0.654556,-0.203206 -1.033226,-0.248711 -1.993247,-0.239535 -1.24879,0.01192 -1.835161,0.0954 -5.225561,0.743734 -2.695388,0.515432 -3.513193,0.523493 -5.925892,0.05841 -3.057755,-0.589422 -3.471664,-0.658403 -4.621235,-0.770161 -1.219056,-0.118509 -2.293523,-0.02283 -3.205318,0.285461 -0.683217,0.231 -3.463656,1.620896 -4.495113,2.247028 -0.444378,0.26976 -0.835602,0.490474 -0.869387,0.490474 -0.149449,0 -0.02241,-0.259891 0.531186,-1.087034 0.325922,-0.486934 0.592583,-0.919221 0.592583,-0.960637 0,-0.13266 -1.423101,-0.73308 -2.424219,-1.022808 -1.870231,-0.541246 -3.70129,-0.716973 -4.612691,-0.442681 -1.307475,0.393492 -2.575739,2.00859 -2.927924,3.728646 l -0.07719,0.377102 0.52272,-0.500643 c 0.822877,-0.788105 1.324931,-0.997056 2.408244,-1.002294 0.753197,-0.0036 0.997999,0.03936 1.378581,0.242139 0.916789,0.488475 1.748499,1.442289 2.426303,2.782495 l 0.279177,0.552006 -0.704526,1.064147 c -3.349565,5.059343 -5.802313,10.597956 -6.666563,15.053947 -0.408588,2.106652 -0.520583,3.408064 -0.446527,5.188547 0.09541,2.293191 0.465648,3.953604 1.23735,5.548792 l 0.390922,0.808076 0.02725,-0.646461 c 0.117289,-2.779431 0.819654,-5.114815 1.922768,-6.392873 l 0.403045,-0.466979 0.341753,1.167312 c 1.187839,4.057268 3.399087,7.863849 6.302334,10.84922 2.01757,2.074657 3.924101,3.493543 6.3097,4.69585 1.2325,0.621163 1.621222,0.775542 1.392277,0.552946 z m 7.138355,-33.018378 c -0.316014,-0.76857 -1.249549,-2.335056 -1.819644,-3.053401 -0.640744,-0.807356 -1.352949,-1.194638 -2.92985,-1.593176 -1.294802,-0.327242 -1.426783,-0.329227 -2.500923,-0.03763 -1.231373,0.334285 -3.498502,0.343241 -4.374992,0.01729 -1.260074,-0.468613 -1.203801,-0.529217 0.485869,-0.52333 1.229905,0.0043 1.627839,-0.03301 2.037188,-0.190967 0.568535,-0.219374 1.033593,-0.70051 1.126599,-1.165546 0.0726,-0.363033 9.7e-4,-0.351441 0.827229,-0.133849 0.811908,0.213812 2.245374,0.242555 2.788629,0.05592 0.221502,-0.0761 0.541735,-0.307001 0.711642,-0.513121 l 0.308912,-0.374763 1.766464,0.932154 1.766465,0.932155 1.823052,-0.928868 1.823039,-0.928868 0.306199,0.371477 c 0.510755,0.619627 1.454356,0.804088 2.851547,0.557437 0.524529,-0.0926 1.056632,-0.197044 1.182439,-0.2321 0.192173,-0.05355 0.240124,-0.0063 0.299857,0.295418 0.167731,0.847235 0.986964,1.284771 2.542085,1.35767 0.562965,0.0264 1.278119,9.58e-4 1.589219,-0.05652 0.739347,-0.13659 0.730316,0.0206 -0.02018,0.352535 -1.267714,0.560642 -2.952678,0.613518 -4.909677,0.15407 -0.90114,-0.211564 -1.092263,-0.224092 -1.702683,-0.111615 -0.984409,0.181384 -2.194395,0.583768 -2.770282,0.92126 -0.652761,0.382542 -1.551098,1.605613 -2.314229,3.150782 -0.325921,0.659925 -0.616827,1.203583 -0.646457,1.208128 -0.02961,0.0046 -0.140984,-0.203593 -0.247462,-0.462533 z m 1.547755,30.145978 c 1.642663,-0.478823 3.936473,-2.16688 5.90123,-4.342814 l 0.75304,-0.833985 -1.364507,0.456847 c -0.750472,0.251265 -1.631169,0.490403 -1.957091,0.531419 l -0.592582,0.07458 0.729543,-0.670688 c 0.878023,-0.807194 1.353473,-1.540752 1.154238,-1.780825 -0.07286,-0.08774 -0.194086,-0.15953 -0.269479,-0.15953 -0.07536,0 -1.288276,-0.363633 -2.695309,-0.808076 -1.407021,-0.444442 -2.733327,-0.807523 -2.947358,-0.806847 -0.396964,0.0012 -1.246431,0.240546 -3.973887,1.119437 -0.845706,0.272518 -1.603399,0.495486 -1.683772,0.495486 -0.08034,0 -0.201595,0.06684 -0.269374,0.148511 -0.212786,0.256386 0.05517,0.702112 0.959012,1.595056 0.690845,0.682538 0.807426,0.842227 0.614717,0.842006 -0.332094,-3.8e-4 -2.031933,-0.465255 -2.91027,-0.795905 l -0.733069,-0.275966 0.664333,0.747479 c 1.34371,1.511927 3.238945,3.105061 4.553326,3.827532 1.434802,0.788672 2.807697,1.003447 4.067259,0.636288 z m -7.101936,-8.401343 c 1.34042,-0.461019 3.31055,-1.396734 3.392954,-1.611485 0.08374,-0.218146 -0.328791,-0.842724 -0.852821,-1.291276 -0.288141,-0.246633 -0.712547,-0.459792 -1.204483,-0.604947 -1.442837,-0.425745 -1.645663,-0.661972 -3.138363,-3.655374 -0.508331,-1.019386 -0.964163,-1.811161 -1.012953,-1.759498 -0.04875,0.05166 -0.177796,0.481807 -0.286685,0.955879 -0.311349,1.35557 -0.284196,4.473776 0.05202,5.976058 0.265967,1.188323 0.6414,2.072348 0.958489,2.25699 0.344687,0.200711 0.962602,0.122034 2.091822,-0.266347 z m 13.674142,0.271809 c 0.601901,-0.322126 1.168627,-2.460011 1.255684,-4.736845 0.05936,-1.553793 -0.06749,-2.959363 -0.361986,-4.00886 l -0.181741,-0.647727 -0.952761,1.90341 c -1.553338,3.103204 -1.693772,3.267701 -3.16283,3.704643 -0.488281,0.14523 -0.91553,0.361022 -1.20447,0.608345 -0.523349,0.447968 -0.939721,1.074804 -0.857042,1.29026 0.08256,0.215164 1.855841,1.069514 3.24918,1.56543 1.206186,0.429303 1.841976,0.521501 2.215966,0.321344 z M 43.20931,56.145381 c -0.813875,-2.604207 -0.901822,-5.619953 -0.256545,-8.798129 0.141129,-0.695142 0.241958,-1.27854 0.224057,-1.296437 -0.08007,-0.08011 -0.731037,1.311575 -1.027905,2.197639 -0.684266,2.042398 -0.674384,4.115936 0.02949,6.180785 0.319343,0.936872 1.113193,2.547027 1.208676,2.451546 0.02188,-0.02183 -0.05818,-0.352765 -0.17773,-0.735404 z m 19.765695,-0.103129 c 0.54648,-1.00466 1.012756,-2.488957 1.161105,-3.696064 0.162567,-1.322891 0.0065,-2.729269 -0.453408,-4.104098 -0.314507,-0.938737 -0.947597,-2.269466 -1.037118,-2.179954 -0.02412,0.02413 0.0287,0.328025 0.117553,0.675319 0.328411,1.285014 0.520151,3.004993 0.520806,4.671825 8.13e-4,2.118878 -0.234318,3.595086 -0.855823,5.3729 -0.122663,0.350901 0.166067,-0.03974 0.546925,-0.739928 z M 52.095324,51.395818 c 0.0971,-0.485423 0.07404,-3.081658 -0.03224,-3.631543 -0.04954,-0.256615 -0.137458,-0.513871 -0.195264,-0.571676 -0.06828,-0.06831 -1.063001,0.108012 -2.841155,0.503613 -1.504823,0.334792 -2.759118,0.631285 -2.787333,0.658875 -0.02818,0.02759 0.08951,0.319152 0.261695,0.647917 l 0.31296,0.597756 1.116129,-0.07607 c 1.067889,-0.07279 1.141499,-0.06366 1.702971,0.211043 0.398313,0.194871 0.838354,0.560878 1.369658,1.1392 0.430539,0.468646 0.837344,0.853321 0.90401,0.854835 0.0667,0.0016 0.151507,-0.148762 0.188542,-0.333946 z m 2.727324,-0.519095 c 0.529195,-0.569626 0.988722,-0.950551 1.374245,-1.139167 0.552403,-0.270267 0.631046,-0.279902 1.700075,-0.208291 l 1.120885,0.07508 0.313905,-0.59955 c 0.172658,-0.329752 0.290827,-0.622258 0.262624,-0.650011 -0.03918,-0.03856 -3.535222,-0.827035 -5.353334,-1.207373 -0.396833,-0.08301 -0.498673,0.291306 -0.549625,2.020029 -0.04954,1.68186 0.02569,2.565074 0.218396,2.565074 0.06474,0 0.475555,-0.385107 0.912829,-0.855794 z M 44.248484,41.026305 c 0.299031,-0.07964 0.662669,-0.20668 0.808083,-0.282324 0.357412,-0.185925 1.180211,-0.857049 1.180211,-0.962657 0,-0.04673 -0.351516,-0.112756 -0.781138,-0.146703 -1.578618,-0.124747 -3.079968,-0.819773 -4.193409,-1.941287 -0.341334,-0.343814 -0.728193,-0.816538 -0.859689,-1.0505 -0.131496,-0.233961 -0.281116,-0.425384 -0.332487,-0.425384 -0.388643,0 -0.617129,2.252477 -0.306015,3.016819 0.181438,0.445747 0.528249,0.969692 0.641856,0.969692 0.04417,0 0.05858,-0.301735 0.03185,-0.670521 l -0.04848,-0.670522 0.395772,0.347492 c 0.557422,0.489423 1.303321,0.843105 2.114717,1.002738 l 0.696165,0.136961 -0.322645,0.137387 c -0.177455,0.07556 -0.613551,0.197748 -0.969116,0.271518 l -0.646457,0.13413 0.430971,0.131973 c 0.579019,0.177306 1.49662,0.17781 2.159838,0.0011 z m 19.496612,-0.0024 0.430971,-0.133138 -0.430971,-0.07935 c -0.54357,-0.100085 -1.482231,-0.400238 -1.426364,-0.456108 0.0232,-0.02317 0.30156,-0.09133 0.618623,-0.151463 0.758872,-0.143916 1.581159,-0.527948 2.09333,-0.977647 l 0.413817,-0.363331 -0.04862,0.67287 c -0.06068,0.838322 0.06853,0.828993 0.504136,-0.03641 0.286725,-0.569691 0.322279,-0.745652 0.314796,-1.558041 -0.0065,-0.66151 -0.06723,-1.048993 -0.220243,-1.395399 l -0.211803,-0.479579 -0.258313,0.425707 c -1.135458,1.87124 -3.362813,3.162689 -5.469524,3.171297 -0.251852,10e-4 -0.457902,0.04711 -0.457902,0.102403 0,0.131924 0.82116,0.794276 1.262485,1.018316 0.750485,0.380996 2.072939,0.490924 2.885633,0.239866 z M 45.94388,37.825103 c 0.368501,-0.123188 0.715967,-0.268548 0.772149,-0.323021 0.17174,-0.166531 -0.583671,-0.836939 -1.20502,-1.069415 -1.000961,-0.374508 -2.500058,-0.243926 -2.590495,0.22565 -0.09344,0.485049 1.223353,1.348193 2.107549,1.381503 0.135204,0.0051 0.547318,-0.09152 0.915817,-0.214717 z m 15.870585,-0.08616 c 0.63676,-0.30124 1.122562,-0.754951 1.122562,-1.048417 0,-0.07937 -0.153945,-0.223924 -0.342093,-0.32122 -0.479736,-0.24808 -1.916216,-0.166997 -2.514526,0.141934 -0.506443,0.261498 -1.04481,0.769529 -0.98994,0.934155 0.05137,0.154031 1.339216,0.597262 1.74555,0.600746 0.177782,0.0016 0.618085,-0.136713 0.978447,-0.307198 z"
       id="path2-2" /><g
       id="g4"><path
         id="path60-1"
         style="fill:#dbe0e7;stroke-width:0.492289"
         inkscape:transform-center-x="2.4439413"
         inkscape:transform-center-y="20.752167"
         d="m 99.437596,70.71522 -2.845059,-2.353072 -3.074465,2.044256 1.358733,-3.432952 -2.894264,-2.292279 3.684803,0.231391 1.28571,-3.460963 0.9186,3.57596 3.688876,0.153287 -3.117075,1.978673 z" /><path
         id="path60-1-9"
         style="fill:#dbe0e7;stroke-width:0.492289"
         inkscape:transform-center-x="2.4439413"
         inkscape:transform-center-y="20.752167"
         d="m 11.727861,70.71522 -2.8450593,-2.353072 -3.0744644,2.044256 1.3587329,-3.432952 -2.8942643,-2.292279 3.6848028,0.231391 1.2857099,-3.460963 0.9186004,3.57596 3.688878,0.153287 -3.117077,1.978673 z" /></g><g
       id="g3"><path
         d="m 16.134935,88.875629 -3.079418,-2.334669 1.13641,-1.498921 0.581216,0.440649 3.281678,-4.328519 -0.581215,-0.440649 1.136412,-1.498923 2.793909,2.11821 q 0.759658,0.575936 1.138808,1.240748 0.383014,0.659712 0.325574,1.37088 -0.04847,0.709935 -0.60122,1.439003 -0.297632,0.392575 -0.690567,0.656692 -0.387836,0.267983 -0.810531,0.348962 l 0.05756,0.252383 q 0.05902,0.462247 -0.09816,0.913136 -0.148213,0.449655 -0.44971,0.847327 -0.865838,1.142037 -1.939919,1.234985 -1.068982,0.09681 -2.200821,-0.761294 z m 3.089603,-4.795297 q 0.254918,0.193267 0.418398,0.252979 0.172444,0.05848 0.272279,0.05388 0.06908,0.0041 0.155015,-0.03503 0.09491,-0.04046 0.206997,-0.188308 0.139152,-0.18354 0.156345,-0.29094 0.02615,-0.108634 0.0086,-0.170144 -0.01237,-0.08963 -0.108868,-0.227058 -0.08758,-0.138653 -0.316998,-0.312594 l -0.361985,-0.27444 -0.73055,0.963593 z m -1.953192,3.296376 q 0.101966,0.0773 0.257716,0.147214 0.159616,0.06481 0.380177,-0.0249 0.224425,-0.0948 0.529787,-0.497576 0.239652,-0.3161 0.247147,-0.527197 0.01136,-0.216196 -0.07884,-0.340788 -0.08634,-0.12969 -0.152618,-0.17994 l -0.713773,-0.541147 -1.117084,1.473429 z m 8.131974,7.211667 -5.579777,-3.156631 0.919897,-1.626042 0.634825,0.359137 2.655729,-4.694361 -0.634823,-0.359138 0.919894,-1.626042 3.408008,1.928002 -0.919897,1.626042 -0.768472,-0.434746 -2.65573,4.694362 1.303062,0.737177 0.781283,-1.381021 1.637179,0.926197 z m 8.534432,3.545994 -3.012532,-1.202827 0.692751,-1.735026 0.350569,0.139973 0.06989,-0.33033 -1.657782,-0.661907 -0.176845,0.287624 0.356513,0.142347 -0.692749,1.735024 -3.012531,-1.202817 0.692748,-1.735028 0.528827,0.211146 3.460463,-4.43964 -0.564479,-0.225382 0.695122,-1.740969 4.230616,1.689169 -0.695121,1.740969 -0.552594,-0.220636 -0.554885,5.599759 0.534769,0.213523 z m -1.671064,-4.786909 0.217421,-1.890368 -1.126527,1.527387 z m 6.200504,6.097651 q -0.521752,-0.128868 -0.966271,-0.383655 -0.439845,-0.24704 -0.783749,-0.589002 -0.734504,-0.734992 -0.964241,-1.859368 -0.155689,-0.730425 -0.07748,-1.607388 l 0.221708,-1.164438 q 0,0 0.132238,-0.428656 0.132237,-0.428657 0.244755,-0.697427 0.271283,-0.644742 0.66088,-1.154818 0.722131,-0.89585 1.667605,-1.281807 0.985884,-0.362795 2.08529,-0.09124 0.763993,0.188704 1.402974,0.616729 0.642047,0.415604 1.09734,1.187086 0.09662,0.142486 0.06133,0.285348 l -0.621342,2.515589 -1.78265,-0.440308 0.105823,-0.988762 q 0.03278,-0.479582 -0.3839,-0.767029 0.01227,-0.04969 -0.02186,-0.04494 -0.146078,-0.07562 -0.313784,-0.117046 -0.211185,-0.05217 -0.433035,-0.03446 -0.220318,0.01143 -0.426451,0.09896 -0.393711,0.153185 -0.651634,0.583749 l -0.1484,0.200597 q -0.114126,0.248601 -0.249431,0.689681 -0.127561,0.436402 -0.127561,0.436402 0,0 -0.09336,0.458028 -0.08715,0.459565 -0.09729,0.71408 l 0.02259,0.30874 q 0.06822,0.524292 0.320625,0.889793 0.297356,0.343644 0.750784,0.455637 0.223609,0.05526 0.481191,0.05294 0.336647,-0.0289 0.489352,-0.35363 l 0.35903,-0.893271 1.78265,0.440307 -0.605998,2.453472 q -0.02455,0.09935 -0.08022,0.164714 -0.05414,0.05908 -0.116109,0.0965 -0.548545,0.273117 -1.305582,0.34974 -0.772453,0.11233 -1.635827,-0.100893 z m 12.423474,1.545429 -3.988253,-0.36744 0.171979,-1.866705 0.445971,0.04108 -0.670181,-1.443143 -0.649525,0.63407 -0.0628,0.681704 0.662584,0.06102 -0.17198,1.866704 -3.688815,-0.33986 0.171977,-1.8667 0.726297,0.06691 0.496568,-5.389871 -0.726297,-0.06691 0.17198,-1.866707 3.688815,0.33985 -0.171978,1.866705 -0.662586,-0.06105 -0.135588,1.471704 1.326968,-1.361943 -0.273955,-0.02524 0.171979,-1.866706 4.013738,0.369784 -0.171979,1.866706 -1.07033,-0.09861 -1.888471,2.016966 1.608518,3.392867 0.847346,0.07808 z m 10.520572,-0.75831 -3.829657,0.51695 -0.251622,-1.864108 0.722816,-0.09759 -0.726626,-5.383082 -0.722816,0.09757 -0.251623,-1.864106 3.474589,-0.46901 q 0.944733,-0.127519 1.682412,0.07633 0.736824,0.197518 1.197703,0.742173 0.466366,0.537458 0.588753,1.444147 0.06591,0.488218 -0.02636,0.952594 -0.08592,0.463519 -0.328451,0.819052 l 0.218808,0.138329 q 0.36787,0.286051 0.574466,0.716538 0.212083,0.423293 0.27884,0.91786 0.191713,1.420265 -0.504136,2.243724 -0.689508,0.822599 -2.097097,1.012599 z m -1.192014,-5.578496 q 0.317026,-0.04279 0.475031,-0.115765 0.163491,-0.08018 0.231018,-0.153848 0.05192,-0.04575 0.08519,-0.134164 0.03875,-0.09561 0.01391,-0.279488 -0.03081,-0.228257 -0.09438,-0.316517 -0.05808,-0.09546 -0.11394,-0.126653 -0.07197,-0.05486 -0.237323,-0.08418 -0.159874,-0.03651 -0.445196,0.002 l -0.450175,0.06077 0.161758,1.198353 z m 0.940392,3.714392 q 0.126808,-0.01712 0.286526,-0.07745 0.158863,-0.06659 0.251942,-0.285788 0.09222,-0.225501 0.02461,-0.726404 -0.05306,-0.393112 -0.196641,-0.548039 -0.144433,-0.161275 -0.296256,-0.185976 -0.152679,-0.03108 -0.235104,-0.01989 l -0.887667,0.119849 0.247343,1.832397 z m 10.774762,-0.561776 -6.095872,1.672756 -0.496072,-1.807775 0.70337,-0.193011 -1.43573,-5.232089 -0.70337,0.193012 -0.496072,-1.807785 6.095872,-1.672761 0.839766,3.060277 -1.881822,0.516389 -0.343694,-1.252492 -1.277173,0.350466 0.409726,1.493118 2.033285,-0.544682 0.609509,2.221163 -2.033287,0.544693 0.416498,1.517796 1.277172,-0.350466 -0.355547,-1.29568 1.881822,-0.516396 z m 8.591798,-3.582806 -2.975233,1.292334 -0.744301,-1.713551 0.346231,-0.150389 -0.185362,-0.28221 -1.637258,0.711162 0.07972,0.328094 0.352098,-0.152939 0.7443,1.713548 -2.975232,1.292327 -0.744301,-1.713545 0.522279,-0.226863 -0.716148,-5.583214 -0.557489,0.242152 -0.746849,-1.719414 4.178235,-1.814869 0.74685,1.719413 -0.545753,0.237054 3.585751,4.336771 0.528147,-0.229407 z m -4.575808,-2.183782 -1.189284,-1.485384 0.291433,1.875377 z m 12.14377,-2.421414 -2.192335,1.357117 -2.336058,-2.120593 -0.531051,0.321212 0.616259,0.995527 0.614725,-0.380532 0.983321,1.588491 -3.198743,1.980111 -0.98332,-1.58849 0.620165,-0.383899 -2.84557,-4.596832 -0.620164,0.3839 -0.986689,-1.593931 3.198743,-1.980112 q 0.799685,-0.495029 1.575014,-0.531024 0.777399,-0.04481 1.441073,0.334448 0.660307,0.373815 1.131762,1.13542 0.383899,0.620164 0.473262,1.287212 0.0948,0.66368 -0.0754,1.28824 l 1.495202,1.309246 0.636485,-0.394003 z m -5.637346,-2.785872 q 0.315523,-0.195317 0.370185,-0.44737 0.05181,-0.220188 -0.13677,-0.524831 -0.202052,-0.326402 -0.468869,-0.417072 -0.261377,-0.09404 -0.582339,0.104644 l -0.614725,0.380531 0.801474,1.294728 z m 9.328251,-0.03699 q -1.063969,0.881931 -2.141201,0.885666 -1.072309,-3.44e-4 -1.91283,-0.924129 l -0.288543,0.07296 -0.694243,-0.787413 1.615916,-1.439168 0.650173,0.724219 q 0.1315,0.148617 0.322952,0.239228 0.187367,0.08569 0.436505,0.04538 0.249137,-0.04031 0.559461,-0.297537 0.310324,-0.25723 0.40262,-0.466699 0.0882,-0.214394 0.0444,-0.377527 -0.04381,-0.163132 -0.12547,-0.261647 l -0.0245,-0.02955 q -0.08166,-0.09851 -0.213422,-0.147193 -0.130917,-0.05768 -0.378369,-0.0354 -0.242524,0.01825 -0.640146,0.140043 -1.551476,0.604591 -2.545683,0.497952 -0.989282,-0.110721 -1.760972,-1.041693 -0.555291,-0.669907 -0.627084,-1.408177 -0.07096,-0.747279 0.266734,-1.4427 0.333601,-0.700347 0.993655,-1.24747 0.896492,-0.74311 2.016953,-0.674642 1.116379,0.06354 1.938169,0.944675 l 0.295866,-0.0541 0.555422,0.619935 Q 89.706404,80.98942 88.874079,81.62948 L 88.619246,81.3421 q -0.285099,-0.303844 -0.686412,-0.336842 -0.405395,-0.03793 -0.71572,0.219306 -0.418691,0.347055 -0.414681,0.692761 -0.01491,0.06221 0.08716,0.185363 0.0735,0.08867 0.179071,0.125803 0.07038,0.02476 0.364567,-0.01133 0.295022,-0.0451 0.85085,-0.206664 1.347383,-0.560071 2.364402,-0.40586 1.017863,0.145201 1.805885,1.095877 0.534876,0.645278 0.632984,1.345116 0.09403,0.694912 -0.205096,1.366676 -0.299121,0.671767 -0.948612,1.251685 z"
         id="text1-9"
         style="font-size:11.2455px;line-height:1;font-family:'Ranked Sports';-inkscape-font-specification:'Ranked Sports';text-align:center;letter-spacing:1.19449px;word-spacing:0px;text-anchor:middle;fill:#dbe0e7;stroke:#dbe0e7;stroke-width:1.65143;stroke-dasharray:none;stroke-opacity:1"
         aria-label="BLACK BEARS" /><path
         d="m 15.968923,88.912019 -3.079418,-2.334669 1.13641,-1.498921 0.581216,0.440649 3.281679,-4.328519 -0.581215,-0.440649 1.136411,-1.498923 2.793909,2.11821 q 0.759658,0.575936 1.138808,1.240748 0.383014,0.659712 0.325574,1.37088 -0.04847,0.709935 -0.60122,1.439003 -0.297631,0.392575 -0.690567,0.656692 -0.387836,0.267983 -0.810531,0.348962 l 0.05756,0.252383 q 0.05902,0.462247 -0.09816,0.913136 -0.148212,0.449655 -0.44971,0.847327 -0.865837,1.142037 -1.939918,1.234985 -1.068982,0.09681 -2.200822,-0.761294 z m 3.089603,-4.795297 q 0.254918,0.193267 0.418398,0.252979 0.172445,0.05848 0.272279,0.05388 0.06907,0.0041 0.155015,-0.03503 0.09491,-0.04046 0.206998,-0.188308 0.139152,-0.18354 0.156344,-0.29094 0.02615,-0.108634 0.0086,-0.170144 -0.01237,-0.08963 -0.108867,-0.227058 -0.08758,-0.138653 -0.316999,-0.312594 l -0.361984,-0.27444 -0.730551,0.963593 z m -1.953192,3.296376 q 0.101966,0.0773 0.257717,0.147214 0.159615,0.06481 0.380176,-0.0249 0.224425,-0.0948 0.529788,-0.497576 0.239651,-0.3161 0.247146,-0.527196 0.01136,-0.216197 -0.07884,-0.340789 -0.08635,-0.12969 -0.152619,-0.17994 l -0.713773,-0.541147 -1.117084,1.473429 z m 8.131974,7.211667 -5.579777,-3.156631 0.919897,-1.626042 0.634825,0.359137 2.655729,-4.694361 -0.634823,-0.359138 0.919895,-1.626042 3.408008,1.928002 -0.919897,1.626042 -0.768472,-0.434746 -2.655731,4.694362 1.303062,0.737177 0.781283,-1.381021 1.63718,0.926197 z m 8.534432,3.54599 -3.012531,-1.202827 0.69275,-1.735022 0.35057,0.139973 0.06989,-0.33033 -1.657782,-0.661907 -0.176845,0.287624 0.356514,0.142347 -0.69275,1.735024 -3.01253,-1.202817 0.692748,-1.735028 0.528827,0.211146 3.460462,-4.43964 -0.564479,-0.225382 0.695122,-1.740969 4.230616,1.689169 -0.695121,1.740969 -0.552594,-0.220636 -0.554884,5.599759 0.534768,0.213523 z m -1.671064,-4.786905 0.217421,-1.890368 -1.126527,1.527387 z m 6.200504,6.097649 q -0.521751,-0.128863 -0.966271,-0.383656 -0.439845,-0.247035 -0.783748,-0.589001 -0.734504,-0.734984 -0.964242,-1.859366 -0.155688,-0.730425 -0.07748,-1.607388 l 0.221709,-1.164438 q 0,0 0.132238,-0.428656 0.132237,-0.428657 0.244754,-0.697427 0.271283,-0.644742 0.66088,-1.154818 0.722131,-0.89585 1.667605,-1.281807 0.985884,-0.362795 2.085291,-0.09124 0.763992,0.188704 1.402973,0.616729 0.642047,0.415604 1.09734,1.187086 0.09662,0.142486 0.06133,0.285348 l -0.621341,2.515589 -1.782651,-0.440308 0.105824,-0.988762 q 0.03278,-0.479582 -0.383901,-0.767029 0.01228,-0.04969 -0.02186,-0.04494 -0.146079,-0.07562 -0.313785,-0.117046 -0.211185,-0.05217 -0.433035,-0.03446 -0.220318,0.01143 -0.42645,0.09896 -0.393711,0.153185 -0.651635,0.583749 l -0.148399,0.200597 q -0.114127,0.248601 -0.249432,0.689681 -0.127561,0.436402 -0.127561,0.436402 0,0 -0.09336,0.458028 -0.08715,0.459565 -0.09729,0.71408 l 0.02259,0.30874 q 0.06821,0.524292 0.320625,0.889794 0.297356,0.343645 0.750783,0.455632 0.223609,0.05526 0.481191,0.05292 0.336647,-0.02891 0.489352,-0.353624 l 0.35903,-0.893273 1.78265,0.440307 -0.605998,2.453476 q -0.02455,0.09936 -0.08022,0.164708 -0.05414,0.05909 -0.116109,0.09649 -0.548544,0.273124 -1.305582,0.349745 -0.772452,0.112327 -1.635827,-0.10085 z m 12.423475,1.545431 -3.988254,-0.36744 0.171979,-1.866705 0.445971,0.04113 -0.670181,-1.443146 -0.649525,0.63407 -0.0628,0.681712 0.662584,0.061 -0.171979,1.866709 -3.688816,-0.33987 0.171978,-1.8667 0.726296,0.06695 0.496568,-5.389869 -0.726297,-0.06691 0.17198,-1.866707 3.688816,0.339849 -0.171979,1.866706 -0.662586,-0.06105 -0.135587,1.471704 1.326967,-1.361943 -0.273954,-0.02524 0.171978,-1.866706 4.013738,0.369783 -0.171978,1.866707 -1.070331,-0.09861 -1.888471,2.016967 1.608519,3.392871 0.847345,0.07811 z m 10.520572,-0.75831 -3.829658,0.51695 -0.251621,-1.864103 0.722815,-0.09756 -0.726626,-5.383087 -0.722815,0.09757 -0.251624,-1.864106 3.474589,-0.46901 q 0.944733,-0.127519 1.682413,0.07633 0.736823,0.197518 1.197702,0.742172 0.466366,0.537459 0.588754,1.444148 0.06591,0.488218 -0.02637,0.952593 -0.08592,0.46352 -0.328451,0.819053 l 0.218808,0.138329 q 0.367871,0.286051 0.574467,0.716538 0.212083,0.423293 0.278839,0.917865 0.191713,1.420255 -0.504136,2.24372 -0.689508,0.822608 -2.097097,1.012608 z m -1.192014,-5.578496 q 0.317025,-0.04279 0.475031,-0.115765 0.163491,-0.08018 0.231018,-0.153848 0.05192,-0.04575 0.08519,-0.134164 0.03875,-0.09561 0.01391,-0.279488 -0.03081,-0.228257 -0.09438,-0.316517 -0.05808,-0.09546 -0.113939,-0.126653 -0.07197,-0.05486 -0.237324,-0.08418 -0.159874,-0.03651 -0.445196,0.002 l -0.450175,0.06077 0.161758,1.198353 z m 0.940391,3.714393 q 0.126809,-0.01711 0.286526,-0.07747 0.158863,-0.06663 0.251943,-0.285792 0.09222,-0.225494 0.02461,-0.726397 -0.05306,-0.393114 -0.196642,-0.548043 -0.144433,-0.161275 -0.296255,-0.185977 -0.152679,-0.03108 -0.235104,-0.01989 l -0.887668,0.119849 0.247343,1.832395 z m 10.774762,-0.561775 -6.095872,1.672753 -0.496071,-1.807769 0.70337,-0.193018 -1.435731,-5.232087 -0.70337,0.193012 -0.496072,-1.807785 6.095872,-1.672761 0.839767,3.060277 -1.881823,0.516389 -0.343694,-1.252492 -1.277172,0.350466 0.409725,1.493118 2.033286,-0.544682 0.609509,2.221163 -2.033288,0.544693 0.416498,1.517798 1.277172,-0.350468 -0.355547,-1.29568 1.881823,-0.516396 z m 8.591798,-3.582808 -2.975233,1.292334 -0.744301,-1.713551 0.346231,-0.150389 -0.185361,-0.28221 -1.637259,0.711162 0.07972,0.328094 0.352098,-0.152939 0.744301,1.713548 -2.975232,1.292327 -0.744301,-1.713545 0.522278,-0.226863 -0.716148,-5.583214 -0.557488,0.242152 -0.74685,-1.719414 4.178236,-1.814869 0.746849,1.719413 -0.545753,0.237054 3.585751,4.336771 0.528147,-0.229407 z m -4.575808,-2.183782 -1.189284,-1.485384 0.291433,1.875377 z m 12.14377,-2.421414 -2.192335,1.357117 -2.336058,-2.120592 -0.531051,0.321211 0.61626,0.995527 0.614725,-0.380532 0.983321,1.588491 -3.198744,1.980111 -0.98332,-1.58849 0.620165,-0.383899 -2.84557,-4.596832 -0.620164,0.3839 -0.986688,-1.593931 3.198742,-1.980112 q 0.799685,-0.495029 1.575014,-0.531024 0.7774,-0.04481 1.441073,0.334448 0.660308,0.373815 1.131762,1.13542 0.3839,0.620164 0.473262,1.287212 0.0948,0.66368 -0.0754,1.28824 l 1.495203,1.309246 0.636484,-0.394003 z M 82.29078,86.868866 q 0.315523,-0.195317 0.370185,-0.44737 0.05181,-0.220188 -0.136769,-0.524831 -0.202053,-0.326402 -0.46887,-0.417072 -0.261377,-0.09404 -0.582339,0.104644 l -0.614725,0.380531 0.801474,1.294728 z m 9.328251,-0.03699 q -1.063968,0.881931 -2.141201,0.885666 -1.072309,-3.44e-4 -1.912829,-0.924129 l -0.288543,0.07296 -0.694244,-0.787413 1.615916,-1.439168 0.650174,0.724219 q 0.131499,0.148617 0.322951,0.239228 0.187368,0.08568 0.436506,0.04538 0.249136,-0.04031 0.55946,-0.297537 0.310324,-0.25723 0.402621,-0.466699 0.0882,-0.214394 0.0444,-0.377527 -0.04382,-0.163132 -0.125469,-0.261647 l -0.0245,-0.02955 q -0.08166,-0.09851 -0.213422,-0.147193 -0.130917,-0.05768 -0.378368,-0.0354 -0.242524,0.01825 -0.640147,0.140043 -1.551475,0.604591 -2.545683,0.497952 -0.989282,-0.110721 -1.760971,-1.041693 -0.555292,-0.669907 -0.627084,-1.408177 -0.07096,-0.747279 0.266733,-1.4427 0.333601,-0.700347 0.993656,-1.24747 0.896491,-0.74311 2.016952,-0.674642 1.11638,0.06354 1.938169,0.944675 l 0.295867,-0.0541 0.555422,0.619935 q -0.825003,0.658921 -1.657328,1.298981 l -0.254833,-0.28738 q -0.285099,-0.303844 -0.686412,-0.336842 -0.405395,-0.03793 -0.71572,0.219306 -0.418691,0.347055 -0.41468,0.692761 -0.01491,0.06221 0.08716,0.185363 0.0735,0.08867 0.179072,0.125803 0.07038,0.02476 0.364566,-0.01133 0.295022,-0.0451 0.85085,-0.206664 1.347383,-0.560071 2.364402,-0.40586 1.017863,0.145201 1.805886,1.095877 0.534875,0.645278 0.632983,1.345116 0.09403,0.694912 -0.205096,1.366676 -0.299121,0.671767 -0.948612,1.251685 z"
         id="text1"
         style="font-size:11.2455px;line-height:1;font-family:'Ranked Sports';-inkscape-font-specification:'Ranked Sports';text-align:center;letter-spacing:1.19449px;word-spacing:0px;text-anchor:middle;fill:#0d2f6d;fill-opacity:1;stroke-width:1.3325"
         aria-label="BLACK BEARS" /></g><ellipse
       style="fill:#ffffff;fill-opacity:1;stroke:none;stroke-width:2.611;stroke-dasharray:none;stroke-opacity:1"
       id="path5"
       cx="45.050888"
       cy="37.213631"
       rx="3.0389357"
       ry="1.5994399" /><g
       id="g2"><path
         d="m 23.873106,24.057088 -4.287141,4.237098 -2.111343,-2.136279 0.860345,-0.850302 -3.235215,-3.317175 3.545667,7.233323 -1.713398,1.693398 -6.9892615,-3.455194 3.1207755,3.055548 0.933255,-0.922362 2.111342,2.13628 -4.294431,4.244303 -2.11134,-2.136278 0.823886,-0.814273 -6.0818251,-6.153651 -0.823885,0.814272 -2.1113462,-2.136279 4.3746336,-4.323569 7.1825467,3.869508 -3.8286609,-7.184244 4.3308899,-4.280333 2.111343,2.13628 -0.83118,0.821478 6.08182,6.15365 0.83118,-0.821478 z"
         id="path7-7"
         style="font-size:19.7556px;line-height:1;font-family:'Ranked Sports';-inkscape-font-specification:'Ranked Sports';text-align:center;letter-spacing:1.30969px;word-spacing:0px;text-anchor:middle;stroke:#dbe0e7;stroke-width:1.65143;stroke-opacity:1" /><path
         style="font-size:17.6389px;line-height:1;font-family:'Ranked Sports';-inkscape-font-specification:'Ranked Sports';text-align:center;letter-spacing:1.30969px;word-spacing:0px;text-anchor:middle;stroke:#dbe0e7;stroke-width:1.65143;stroke-opacity:1"
         d="m 31.069177,20.941255 q -0.910086,0.451565 -1.978517,0.481039 -1.0643,0.0172 -2.147561,-0.456836 -1.075062,-0.478109 -2.058369,-1.512621 -0.90983,-0.968795 -1.573188,-2.223364 -0.593951,-1.19705 -0.835532,-2.507632 -0.24565,-1.318781 -0.0084,-2.591058 0.224694,-1.194543 0.898639,-2.06025 0.682145,-0.8697734 1.633226,-1.3416791 0.951081,-0.4719047 2.06858,-0.4848557 1.121629,-0.02522 2.2293,0.4980177 1.144409,0.5560947 2.041909,1.5412241 0.893431,0.976931 1.487381,2.173981 0.630563,1.270841 0.880219,2.618287 0.200336,1.412787 -0.09383,2.570279 -0.285967,1.153422 -0.95985,1.998663 -0.673883,0.845241 -1.583969,1.296805 z m -1.444005,-2.972034 q 0.254168,-0.126112 0.447188,-0.334277 0.20122,-0.212234 0.300297,-0.486178 0.247849,-0.736028 0.06205,-1.542967 -0.181687,-0.819208 -0.560025,-1.581713 -0.333588,-0.672316 -0.822706,-1.349201 -0.480919,-0.680953 -1.122564,-1.006286 -0.641645,-0.325332 -1.436695,-0.01259 -0.750363,0.423401 -0.883365,1.082008 -0.124806,0.654539 0.102137,1.400207 0.235139,0.741599 0.560528,1.417983 0.272566,0.549331 0.590258,1.066055 0.31769,0.516723 0.713555,0.902702 0.395864,0.385978 0.894685,0.567609 0.621743,0.141074 1.154676,-0.123355 z"
         id="path8-2" /><path
         style="font-size:15.5222px;line-height:1;font-family:'Ranked Sports';-inkscape-font-specification:'Ranked Sports';text-align:center;letter-spacing:1.30969px;word-spacing:0px;text-anchor:middle;stroke:#dbe0e7;stroke-width:1.65143;stroke-opacity:1"
         d="m 46.425083,15.806134 -2.590029,0.560111 -4.10048,-4.823979 0.684391,3.164717 1.117885,-0.24175 0.495418,2.290877 -4.550264,0.984025 -0.495417,-2.290877 0.873839,-0.188974 -1.433477,-6.6285841 -0.873839,0.188973 -0.49712,-2.2987478 3.534721,-0.7644069 4.056228,4.9241928 -0.701417,-3.2434395 -1.117884,0.241751 -0.497121,-2.2987492 4.550264,-0.9840251 0.497121,2.2987489 -0.881712,0.1906767 z"
         id="path9-7" /><path
         style="font-size:13.4056px;line-height:1;font-family:'Ranked Sports';-inkscape-font-specification:'Ranked Sports';text-align:center;letter-spacing:1.30969px;word-spacing:0px;text-anchor:middle;stroke:#dbe0e7;stroke-width:1.65143;stroke-opacity:1"
         d="m 55.445871,15.648137 -4.117846,-0.03778 0.0187,-2.038055 0.79992,0.0073 0.05368,-5.8498445 -0.528643,-0.0049 -0.3469,1.4159231 -1.766778,-0.01621 0.03223,-3.5126882 7.797477,0.071546 -0.03223,3.5126892 -1.787646,-0.0164 -0.306947,-1.4219231 -0.542554,-0.005 -0.05368,5.8498455 0.799919,0.0073 z"
         id="path10-2" /><path
         style="font-size:13.4056px;line-height:1;font-family:'Ranked Sports';-inkscape-font-specification:'Ranked Sports';text-align:center;letter-spacing:1.30969px;word-spacing:0px;text-anchor:middle;stroke:#dbe0e7;stroke-width:1.65143;stroke-opacity:1"
         d="m 67.011026,17.452783 -2.743493,-0.576034 -0.248325,-3.421232 -0.658915,-0.145456 -0.261574,1.245805 0.769267,0.161518 -0.417374,1.987841 -4.002914,-0.840466 0.417375,-1.987842 0.776075,0.162948 1.207813,-5.7524848 -0.776074,-0.162948 0.418803,-1.9946477 4.002914,0.8404663 q 1.000728,0.210117 1.638009,0.7632817 0.645519,0.5477877 0.883472,1.3440661 0.239384,0.7894717 0.03927,1.7425464 -0.162948,0.776075 -0.592897,1.368149 -0.423141,0.593504 -1.025535,0.95746 l 0.194977,2.151952 0.796498,0.167236 z m -2.347901,-6.420871 q 0.394845,0.0829 0.626912,-0.0745 0.205926,-0.134458 0.28597,-0.515688 0.08576,-0.40846 -0.05625,-0.6799437 -0.13521,-0.270053 -0.536862,-0.3543857 l -0.769267,-0.161518 -0.34019,1.6202264 z"
         id="path11-2" /><path
         style="font-size:15.5222px;line-height:1;font-family:'Ranked Sports';-inkscape-font-specification:'Ranked Sports';text-align:center;letter-spacing:1.30969px;word-spacing:0px;text-anchor:middle;stroke:#dbe0e7;stroke-width:1.65143;stroke-opacity:1"
         d="m 76.39052,21.251032 -7.307854,-3.149789 0.934097,-2.167208 0.843214,0.363437 2.703463,-6.272328 -0.843214,-0.3634367 0.934097,-2.1672068 7.307855,3.1497875 -1.581271,3.668721 -2.255968,-0.972354 0.647175,-1.501513 -1.5311,-0.659925 -0.771506,1.78998 2.427109,1.06366 -1.147696,2.662781 -2.42711,-1.06366 -0.78426,1.819567 1.5311,0.659926 0.669488,-1.553289 2.255968,0.972354 z"
         id="path12-6" /><path
         style="font-size:17.6389px;line-height:1;font-family:'Ranked Sports';-inkscape-font-specification:'Ranked Sports';text-align:center;letter-spacing:1.30969px;word-spacing:0px;text-anchor:middle;stroke:#dbe0e7;stroke-width:1.65143;stroke-opacity:1"
         d="m 87.216883,28.765152 -3.719271,-2.775029 1.598242,-2.142065 0.432814,0.322932 0.218596,-0.430725 -2.046699,-1.527086 -0.350641,0.332202 0.440151,0.328406 -1.598243,2.142065 -3.71927,-2.77503 1.598241,-2.142065 0.652891,0.487136 6.42233,-4.857794 -0.696906,-0.519976 1.603716,-2.149401 5.223118,3.897083 -1.603715,2.149401 -0.682234,-0.509029 -2.835104,7.534301 0.660225,0.492609 z m -0.541525,-7.233016 0.99868,-2.532313 -2.121063,1.694878 z"
         id="path13-1" /><path
         d="m 95.352777,38.4985 -6.381336,-8.048881 2.345583,-1.859631 0.726019,0.915741 6.771664,-5.368728 -0.726021,-0.915741 2.345584,-1.859631 3.89758,4.916083 -2.34558,1.859631 -0.87887,-1.108529 -6.771661,5.368729 1.490252,1.879679 1.992138,-1.579413 1.872368,2.361649 z"
         id="path14-0"
         style="font-size:19.7556px;line-height:1;font-family:'Ranked Sports';-inkscape-font-specification:'Ranked Sports';text-align:center;letter-spacing:1.30969px;word-spacing:0px;text-anchor:middle;stroke:#dbe0e7;stroke-width:1.65143;stroke-opacity:1" /><path
         d="m 23.869256,24.146302 -4.287141,4.237098 -2.111343,-2.136279 0.860345,-0.850302 -3.235215,-3.317175 3.545667,7.233323 -1.713398,1.693398 -6.9892615,-3.455194 3.1207755,3.055548 0.933255,-0.922362 2.111342,2.13628 -4.294431,4.244303 -2.11134,-2.136278 0.823886,-0.814273 -6.0818251,-6.153651 -0.823885,0.814272 -2.1113462,-2.136279 4.3746336,-4.323569 7.1825467,3.869508 -3.8286609,-7.184244 4.3308899,-4.280333 2.111343,2.13628 -0.83118,0.821478 6.08182,6.15365 0.83118,-0.821478 z"
         id="path7"
         style="font-size:19.7556px;line-height:1;font-family:'Ranked Sports';-inkscape-font-specification:'Ranked Sports';text-align:center;letter-spacing:1.30969px;word-spacing:0px;text-anchor:middle;fill:#0d2f6d;fill-opacity:1;stroke:none;stroke-width:1.65143" /><path
         style="font-size:17.6389px;line-height:1;font-family:'Ranked Sports';-inkscape-font-specification:'Ranked Sports';text-align:center;letter-spacing:1.30969px;word-spacing:0px;text-anchor:middle;fill:#0d2f6d;fill-opacity:1;stroke:none;stroke-width:1.65143"
         d="m 31.065327,21.030469 q -0.910086,0.451565 -1.978517,0.481039 -1.0643,0.0172 -2.147561,-0.456836 -1.075062,-0.478109 -2.058369,-1.512621 -0.90983,-0.968795 -1.573188,-2.223364 -0.593951,-1.19705 -0.835532,-2.507632 -0.24565,-1.318781 -0.0084,-2.591058 0.224694,-1.194543 0.898639,-2.06025 0.682145,-0.8697734 1.633226,-1.3416791 0.951081,-0.4719047 2.06858,-0.4848557 1.121629,-0.02522 2.2293,0.4980177 1.144409,0.5560947 2.041909,1.5412241 0.893431,0.976931 1.487381,2.173981 0.630563,1.270841 0.880219,2.618287 0.200336,1.412787 -0.09383,2.570279 -0.285967,1.153422 -0.95985,1.998663 -0.673883,0.845241 -1.583969,1.296805 z m -1.444005,-2.972034 q 0.254168,-0.126112 0.447188,-0.334277 0.20122,-0.212234 0.300297,-0.486178 0.247849,-0.736028 0.06205,-1.542967 -0.181687,-0.819208 -0.560025,-1.581713 -0.333588,-0.672316 -0.822706,-1.349201 -0.480919,-0.680953 -1.122564,-1.006286 -0.641645,-0.325332 -1.436695,-0.01259 -0.750363,0.423401 -0.883365,1.082008 -0.124806,0.654539 0.102137,1.400207 0.235139,0.741599 0.560528,1.417983 0.272566,0.549331 0.590258,1.066055 0.31769,0.516723 0.713555,0.902702 0.395864,0.385978 0.894685,0.567609 0.621743,0.141074 1.154676,-0.123355 z"
         id="path8" /><path
         style="font-size:15.5222px;line-height:1;font-family:'Ranked Sports';-inkscape-font-specification:'Ranked Sports';text-align:center;letter-spacing:1.30969px;word-spacing:0px;text-anchor:middle;fill:#0d2f6d;fill-opacity:1;stroke:none;stroke-width:1.65143"
         d="m 46.421233,15.895348 -2.590029,0.560111 -4.10048,-4.823979 0.684391,3.164717 1.117885,-0.24175 0.495418,2.290877 -4.550264,0.984025 -0.495417,-2.290877 0.873839,-0.188974 -1.433477,-6.6285841 -0.873839,0.188973 -0.49712,-2.2987478 3.534721,-0.7644069 4.056228,4.9241928 -0.701417,-3.2434395 -1.117884,0.241751 -0.497121,-2.2987492 4.550264,-0.9840251 0.497121,2.2987489 -0.881712,0.1906767 z"
         id="path9" /><path
         style="font-size:13.4056px;line-height:1;font-family:'Ranked Sports';-inkscape-font-specification:'Ranked Sports';text-align:center;letter-spacing:1.30969px;word-spacing:0px;text-anchor:middle;fill:#0d2f6d;fill-opacity:1;stroke:none;stroke-width:1.65143"
         d="m 55.442021,15.737351 -4.117846,-0.03778 0.0187,-2.038055 0.79992,0.0073 0.05368,-5.8498445 -0.528643,-0.0048 -0.3469,1.4159231 -1.766778,-0.01621 0.03223,-3.5126882 7.797477,0.071546 -0.03223,3.5126892 -1.787646,-0.0164 -0.306947,-1.4219231 -0.542554,-0.005 -0.05368,5.8498455 0.799919,0.0073 z"
         id="path10" /><path
         style="font-size:13.4056px;line-height:1;font-family:'Ranked Sports';-inkscape-font-specification:'Ranked Sports';text-align:center;letter-spacing:1.30969px;word-spacing:0px;text-anchor:middle;fill:#0d2f6d;fill-opacity:1;stroke:none;stroke-width:1.65143"
         d="m 67.007176,17.541997 -2.743493,-0.576034 -0.248325,-3.421232 -0.658915,-0.145456 -0.261574,1.245805 0.769267,0.161518 -0.417374,1.987841 -4.002914,-0.840466 0.417375,-1.987842 0.776075,0.162948 1.207813,-5.7524848 -0.776074,-0.162948 0.418803,-1.9946477 4.002914,0.8404663 q 1.000728,0.210117 1.638009,0.7632817 0.645519,0.5477877 0.883472,1.3440661 0.239384,0.7894717 0.03927,1.7425464 -0.162948,0.776075 -0.592897,1.368149 -0.423141,0.593504 -1.025535,0.95746 l 0.194977,2.151952 0.796498,0.167236 z m -2.347901,-6.420871 q 0.394845,0.0829 0.626912,-0.0745 0.205926,-0.134458 0.28597,-0.515688 0.08576,-0.40846 -0.05625,-0.6799437 -0.13521,-0.270053 -0.536862,-0.354386 l -0.769267,-0.1615177 -0.34019,1.6202264 z"
         id="path11" /><path
         style="font-size:15.5222px;line-height:1;font-family:'Ranked Sports';-inkscape-font-specification:'Ranked Sports';text-align:center;letter-spacing:1.30969px;word-spacing:0px;text-anchor:middle;fill:#0d2f6d;fill-opacity:1;stroke:none;stroke-width:1.65143"
         d="m 76.38667,21.340246 -7.307854,-3.149789 0.934097,-2.167208 0.843214,0.363437 2.703463,-6.272328 -0.843214,-0.3634367 0.934097,-2.1672068 7.307855,3.1497875 -1.581271,3.668721 -2.255968,-0.972354 0.647175,-1.501513 -1.5311,-0.659925 -0.771506,1.78998 2.427109,1.06366 -1.147696,2.662781 -2.42711,-1.06366 -0.78426,1.819567 1.5311,0.659926 0.669488,-1.553289 2.255968,0.972354 z"
         id="path12" /><path
         style="font-size:17.6389px;line-height:1;font-family:'Ranked Sports';-inkscape-font-specification:'Ranked Sports';text-align:center;letter-spacing:1.30969px;word-spacing:0px;text-anchor:middle;fill:#0d2f6d;fill-opacity:1;stroke:none;stroke-width:1.65143"
         d="m 87.213033,28.854366 -3.719271,-2.775029 1.598242,-2.142065 0.432814,0.322932 0.218596,-0.430725 -2.046699,-1.527086 -0.350641,0.332202 0.440151,0.328406 -1.598243,2.142065 -3.71927,-2.77503 1.598241,-2.142065 0.652891,0.487136 6.42233,-4.857794 -0.696906,-0.519976 1.603716,-2.149401 5.223118,3.897083 -1.603715,2.149401 -0.682234,-0.509029 -2.835104,7.534301 0.660225,0.492609 z m -0.541525,-7.233016 0.99868,-2.532313 -2.121063,1.694878 z"
         id="path13" /><path
         d="m 95.348927,38.587714 -6.381336,-8.048881 2.345583,-1.859631 0.726019,0.915741 6.771664,-5.368728 -0.726021,-0.915741 2.345584,-1.859631 3.89758,4.916083 -2.34558,1.859631 -0.87887,-1.108529 -6.771661,5.368729 1.490252,1.879679 1.992138,-1.579413 1.872368,2.361649 z"
         id="path14"
         style="font-size:19.7556px;line-height:1;font-family:'Ranked Sports';-inkscape-font-specification:'Ranked Sports';text-align:center;letter-spacing:1.30969px;word-spacing:0px;text-anchor:middle;fill:#0d2f6d;fill-opacity:1;stroke:none;stroke-width:1.65143" /></g><ellipse
       style="fill:#ffffff;fill-opacity:1;stroke:none;stroke-width:2.611;stroke-dasharray:none;stroke-opacity:1"
       id="path6"
       cx="61.311863"
       cy="36.947063"
       rx="2.0259571"
       ry="1.3328665" /><path
       style="fill:#000000;stroke-width:1.3105"
       d="m 51.785573,90.775414 c -4.760895,-2.07825 -9.521738,-4.999417 -13.306337,-8.164538 -2.829478,-2.366344 -5.773704,-5.482761 -7.160058,-7.578818 -0.166577,-0.251851 -0.344911,-0.457911 -0.396296,-0.457911 -0.153236,0 -0.106019,1.936175 0.0726,2.976055 0.09134,0.531794 0.279661,1.425182 0.41847,1.985305 0.138795,0.560123 0.237423,1.034929 0.219181,1.055125 -0.07325,0.081 -1.408999,-2.299553 -2.257561,-4.023229 -2.28726,-4.646054 -3.346014,-8.341414 -3.488281,-12.175019 -0.06592,-1.774706 -0.07339,-1.821592 -0.244619,-1.508409 -0.283828,0.519331 -0.849061,2.190721 -1.05667,3.124562 l -0.191622,0.861948 -0.08439,-0.646461 c -0.108902,-0.833136 0.0092,-9.203747 0.160367,-11.313069 0.2805,-3.929666 0.6241,-6.196832 1.34713,-8.888841 0.860581,-3.204122 2.527158,-7.798171 3.928085,-10.828096 l 0.448284,-0.969563 -0.409466,-0.315304 c -2.874351,-2.213379 -3.871027,-5.494355 -2.522678,-8.304434 1.601355,-3.337368 4.969502,-3.885625 11.131443,-1.811942 l 1.476175,0.496779 0.385393,-0.338385 c 0.884391,-0.7765 1.982868,-1.089993 3.827202,-1.092228 1.811992,-0.0023 3.283777,0.164707 5.396699,0.612003 1.692998,0.358397 2.033637,0.396822 3.492146,0.393938 1.450176,-0.0029 1.799962,-0.04334 3.406047,-0.394082 2.009052,-0.438746 3.549272,-0.614075 5.37505,-0.611859 1.844322,0.0023 2.942811,0.315728 3.827189,1.092228 l 0.385406,0.338385 1.476175,-0.496779 c 6.065187,-2.041124 9.458692,-1.531696 11.070386,1.661866 1.433335,2.840147 0.451704,6.211004 -2.462197,8.454959 l -0.410017,0.315754 0.474494,1.022985 c 1.033567,2.228315 2.289171,5.504562 3.158637,8.241803 1.290399,4.062497 1.750502,6.574833 2.091548,11.420813 0.149935,2.130234 0.268469,10.487971 0.160471,11.313069 l -0.08466,0.646461 -0.191622,-0.861948 c -0.26978,-1.213523 -1.058806,-3.39392 -1.228163,-3.39392 -0.02371,0 -0.04521,0.620911 -0.04783,1.379803 -0.0131,3.713452 -1.350891,8.389233 -3.737355,13.057829 -0.668395,1.307587 -2.084772,3.783194 -2.089582,3.65228 -0.0013,-0.03569 0.117552,-0.544769 0.264106,-1.131307 0.146554,-0.58654 0.340494,-1.497027 0.430971,-2.023305 0.175307,-1.019759 0.224384,-2.97577 0.07469,-2.97577 -0.04941,0 -0.279714,0.278522 -0.51179,0.618935 -1.061192,1.556623 -3.391304,4.141487 -5.310574,5.891181 -3.005334,2.739806 -6.11961,4.986722 -9.836089,7.096636 -2.254234,1.279773 -5.913521,2.992111 -6.364596,2.978264 -0.134143,-0.004 -0.63178,-0.176805 -1.105841,-0.383749 z m 2.022879,-4.956971 c 3.116254,-1.569255 7.105698,-4.130825 9.924233,-6.37223 1.47725,-1.17477 3.563595,-3.166724 4.44441,-4.24334 0.33423,-0.408527 0.624362,-0.726097 0.64474,-0.705714 0.05452,0.05452 -0.264996,1.966973 -0.453866,2.716705 -0.08964,0.355553 -0.187453,0.743429 -0.217504,0.861947 -0.06788,0.267563 0.249088,-0.08111 1.616007,-1.777768 3.314861,-4.114525 5.793335,-8.576073 6.889674,-12.402214 0.142478,-0.497262 0.291116,-1.098049 0.330286,-1.335085 0.06028,-0.36493 -0.01717,-0.264657 -0.505395,0.654348 -0.317154,0.596929 -0.86324,1.56662 -1.213524,2.154871 -0.990385,1.663229 -3.89552,5.955352 -4.038836,5.96709 -0.03211,0.0026 0.05202,-0.540662 0.187061,-1.207326 0.135034,-0.666662 0.246191,-1.303654 0.247017,-1.415537 10e-4,-0.137305 -0.532825,0.317953 -1.6424,1.400666 -3.385236,3.303254 -7.378964,6.486271 -11.877917,9.466755 -2.01846,1.337199 -5.043466,3.181044 -5.218812,3.181044 -0.275559,0 -4.553691,-2.671739 -6.956208,-4.34423 -3.896083,-2.712216 -7.299522,-5.505661 -10.316441,-8.46745 -1.039385,-1.020392 -1.481025,-1.391579 -1.479976,-1.243882 8.25e-4,0.115784 0.115586,0.768092 0.255155,1.44957 0.139515,0.681477 0.24273,1.252325 0.229376,1.26855 -0.04351,0.05289 -2.383423,-3.335136 -3.257291,-4.716343 -0.810952,-1.281788 -1.727543,-2.866483 -2.336926,-4.040381 l -0.279661,-0.538719 0.06788,0.430974 c 0.09449,0.599999 0.727918,2.681391 1.104282,3.628415 1.370588,3.448797 3.714316,7.230722 6.783013,10.945332 0.502446,0.608195 0.928556,1.090785 0.946917,1.072425 0.01834,-0.01836 -0.0384,-0.297792 -0.126202,-0.62096 -0.191634,-0.705388 -0.605163,-3.029195 -0.549048,-3.085316 0.02188,-0.02185 0.225892,0.191825 0.45346,0.47481 1.695816,2.10888 4.924198,4.894855 8.236177,7.107526 2.288791,1.529092 6.809,4.121285 7.194576,4.125846 0.07548,8.94e-4 0.487664,-0.174776 0.915818,-0.390379 z M 45.53106,68.117762 c -0.05635,-0.05473 -0.417514,-0.349314 -0.802696,-0.654622 -2.006837,-1.59069 -4.575289,-4.288445 -6.418287,-6.741401 -2.488564,-3.312191 -4.326845,-7.113245 -4.842423,-10.012782 -0.337703,-1.899185 -0.186917,-4.114021 0.377595,-5.546185 0.12345,-0.313136 0.206102,-0.587645 0.183733,-0.610018 -0.08492,-0.08493 -1.565172,1.117767 -2.398992,1.949176 -0.478216,0.476838 -1.168221,1.279098 -1.533339,1.782798 -0.365133,0.503701 -0.733973,1.012789 -0.819667,1.131307 -0.342841,0.474225 0.539795,-2.995853 1.301774,-5.117817 0.640626,-1.784042 2.090669,-4.724339 3.053665,-6.19203 0.747144,-1.138698 1.72757,-2.459827 1.782296,-2.401672 0.01454,0.01545 -0.06631,0.440211 -0.179709,0.943912 -0.251524,1.117365 -0.36272,2.862443 -0.233439,3.663279 l 0.09566,0.592589 0.285782,-0.553077 c 0.622946,-1.205612 1.87213,-2.910666 2.873025,-3.921479 1.213879,-1.225912 1.804116,-1.647156 2.965994,-2.116785 0.855495,-0.345793 0.856623,-0.346769 0.53872,-0.46964 -0.822955,-0.318071 -1.797942,-0.439904 -2.573117,-0.321528 -0.419243,0.06403 -0.858864,0.146161 -0.976914,0.182527 -0.192539,0.05931 -0.198777,0.047 -0.06068,-0.119438 0.505198,-0.608734 2.405322,-1.097127 3.880894,-0.997523 1.6232,0.109572 2.742173,0.645099 3.817911,1.827222 0.336131,0.369365 0.77718,0.851481 0.980112,1.071368 0.472711,0.512198 1.354128,0.799214 1.949502,0.634822 0.582544,-0.160847 1.224192,-0.645591 1.58344,-1.196232 l 0.316329,-0.484846 -0.06893,0.46922 c -0.09907,0.674472 -0.298113,0.996382 -0.983308,1.590664 -1.478757,1.282564 -1.856536,1.685545 -2.33648,2.49238 -0.877644,1.475433 -1.675175,3.550447 -2.20129,5.727338 l -0.271024,1.121403 0.400488,0.898788 c 0.220256,0.494333 0.444876,0.898788 0.499144,0.898788 0.05426,0 0.860109,-0.1914 1.790775,-0.425332 4.793514,-1.204905 6.004877,-1.204752 10.818533,0.0013 0.930653,0.233186 1.736022,0.423976 1.7897,0.423976 0.05373,0 0.278298,-0.395312 0.499158,-0.878472 l 0.401573,-0.878425 -0.238761,-1.033975 c -0.48288,-2.091125 -1.423991,-4.534148 -2.28085,-5.920807 -0.577315,-0.934279 -0.96795,-1.373259 -1.710388,-1.922021 -0.801476,-0.592403 -1.355452,-1.232037 -1.491561,-1.722198 -0.209025,-0.752709 -0.137275,-0.865256 0.20626,-0.323562 0.334689,0.527749 1.091949,1.089367 1.627434,1.206978 0.176563,0.03878 0.577053,-0.0095 0.931137,-0.112375 0.472462,-0.137204 0.711656,-0.284695 0.99842,-0.615645 1.544046,-1.781999 2.342744,-2.366823 3.712848,-2.718643 1.602232,-0.411425 4.186398,0.05555 4.943396,0.893309 l 0.198397,0.219548 -0.521619,-0.166691 c -0.947938,-0.302928 -2.774844,-0.166118 -3.52352,0.263863 -0.05098,0.02931 0.239861,0.183002 0.64647,0.341515 1.116876,0.435409 1.926019,1.003324 3.060638,2.148178 0.999532,1.008547 2.249489,2.718217 2.875018,3.932428 l 0.28493,0.553077 0.09462,-0.484845 c 0.05203,-0.266666 0.06776,-1.018177 0.03512,-1.670025 -0.05255,-1.048327 -0.138506,-1.59811 -0.438022,-2.801332 l -0.08047,-0.323231 0.335738,0.377103 c 0.676599,0.759954 2.280234,3.271405 3.009777,4.713616 1.263808,2.498381 2.231666,5.201192 2.76833,7.73076 0.186852,0.880733 0.211581,1.129825 0.09632,0.969692 -1.191535,-1.654649 -1.613411,-2.177265 -2.35239,-2.914106 -0.803076,-0.800767 -2.313075,-2.035082 -2.392479,-1.955679 -0.01874,0.0188 0.06343,0.290922 0.182619,0.604727 0.561105,1.476675 0.707959,3.669745 0.372208,5.55798 -0.386807,2.175348 -1.717242,5.317722 -3.27818,7.742781 -2.173861,3.377289 -5.104484,6.693249 -7.900637,8.939455 -0.517909,0.416049 -0.92119,0.776919 -0.896173,0.801933 0.08047,0.08045 1.871724,-0.825814 3.011534,-1.523656 2.459353,-1.505722 4.471393,-3.300649 6.40184,-5.711039 1.965111,-2.453683 3.796852,-6.032632 4.656725,-9.098541 l 0.281574,-1.003938 0.39353,0.435599 c 1.085214,1.201193 1.829108,3.668204 1.936109,6.420735 l 0.02516,0.646461 0.246492,-0.461588 c 1.45478,-2.724311 1.799612,-6.853926 0.931024,-11.149469 -0.932972,-4.61397 -3.553006,-10.474992 -6.794741,-15.19989 l -0.579557,-0.844724 0.383623,-0.730041 c 0.764193,-1.454252 1.881553,-2.544479 2.886577,-2.816471 1.093286,-0.295881 2.418439,0.106622 3.282755,0.997125 0.512917,0.528452 0.543321,0.464508 0.22745,-0.478344 -0.670754,-2.002065 -1.931955,-3.168566 -3.546558,-3.280231 -0.865509,-0.05986 -2.653505,0.203961 -3.875522,0.571831 -1.073982,0.323311 -2.373607,0.893956 -2.373607,1.04222 0,0.05678 0.137945,0.279898 0.30654,0.495832 0.415625,0.532304 0.918112,1.412621 0.846951,1.483781 -0.03184,0.03183 -0.513848,-0.210471 -1.071138,-0.538453 -1.535594,-0.903744 -3.703295,-1.956093 -4.607581,-2.236824 -0.654556,-0.203206 -1.033226,-0.248711 -1.993247,-0.239535 -1.24879,0.01192 -1.835161,0.0954 -5.225561,0.743734 -2.695388,0.515432 -3.513193,0.523493 -5.925892,0.05841 -3.057755,-0.589422 -3.471664,-0.658403 -4.621235,-0.770161 -1.219056,-0.118509 -2.293523,-0.02283 -3.205318,0.285461 -0.683217,0.231 -3.463656,1.620896 -4.495113,2.247028 -0.444378,0.26976 -0.835602,0.490474 -0.869387,0.490474 -0.149449,0 -0.02241,-0.259891 0.531186,-1.087034 0.325922,-0.486934 0.592583,-0.919221 0.592583,-0.960637 0,-0.13266 -1.423101,-0.73308 -2.424219,-1.022808 -1.870231,-0.541246 -3.70129,-0.716973 -4.612691,-0.442681 -1.307475,0.393492 -2.575739,2.00859 -2.927924,3.728646 l -0.07719,0.377102 0.52272,-0.500643 c 0.822877,-0.788105 1.324931,-0.997056 2.408244,-1.002294 0.753197,-0.0036 0.997999,0.03936 1.378581,0.242139 0.916789,0.488475 1.748499,1.442289 2.426303,2.782495 l 0.279177,0.552006 -0.704526,1.064147 c -3.349565,5.059343 -5.802313,10.597956 -6.666563,15.053947 -0.408588,2.106652 -0.520583,3.408064 -0.446527,5.188547 0.09541,2.293191 0.465648,3.953604 1.23735,5.548792 l 0.390922,0.808076 0.02725,-0.646461 c 0.117289,-2.779431 0.819654,-5.114815 1.922768,-6.392873 l 0.403045,-0.466979 0.341753,1.167312 c 1.187839,4.057268 3.399087,7.863849 6.302334,10.84922 2.01757,2.074657 3.924101,3.493543 6.3097,4.69585 1.2325,0.621163 1.621222,0.775542 1.392277,0.552946 z m 7.138355,-33.018378 c -0.316014,-0.76857 -1.249549,-2.335056 -1.819644,-3.053401 -0.640744,-0.807356 -1.352949,-1.194638 -2.92985,-1.593176 -1.294802,-0.327242 -1.426783,-0.329227 -2.500923,-0.03763 -1.231373,0.334285 -3.498502,0.343241 -4.374992,0.01729 -1.260074,-0.468613 -1.203801,-0.529217 0.485869,-0.52333 1.229905,0.0043 1.627839,-0.03301 2.037188,-0.190967 0.568535,-0.219374 1.033593,-0.70051 1.126599,-1.165546 0.0726,-0.363033 9.7e-4,-0.351441 0.827229,-0.133849 0.811908,0.213812 2.245374,0.242555 2.788629,0.05592 0.221502,-0.0761 0.541735,-0.307001 0.711642,-0.513121 l 0.308912,-0.374763 1.766464,0.932154 1.766465,0.932155 1.823052,-0.928868 1.823039,-0.928868 0.306199,0.371477 c 0.510755,0.619627 1.454356,0.804088 2.851547,0.557437 0.524529,-0.0926 1.056632,-0.197044 1.182439,-0.2321 0.192173,-0.05355 0.240124,-0.0063 0.299857,0.295418 0.167731,0.847235 0.986964,1.284771 2.542085,1.35767 0.562965,0.0264 1.278119,9.58e-4 1.589219,-0.05652 0.739347,-0.13659 0.730316,0.0206 -0.02018,0.352535 -1.267714,0.560642 -2.952678,0.613518 -4.909677,0.15407 -0.90114,-0.211564 -1.092263,-0.224092 -1.702683,-0.111615 -0.984409,0.181384 -2.194395,0.583768 -2.770282,0.92126 -0.652761,0.382542 -1.551098,1.605613 -2.314229,3.150782 -0.325921,0.659925 -0.616827,1.203583 -0.646457,1.208128 -0.02961,0.0046 -0.140984,-0.203593 -0.247462,-0.462533 z m 1.547755,30.145978 c 1.642663,-0.478823 3.936473,-2.16688 5.90123,-4.342814 l 0.75304,-0.833985 -1.364507,0.456847 c -0.750472,0.251265 -1.631169,0.490403 -1.957091,0.531419 l -0.592582,0.07458 0.729543,-0.670688 c 0.878023,-0.807194 1.353473,-1.540752 1.154238,-1.780825 -0.07286,-0.08774 -0.194086,-0.15953 -0.269479,-0.15953 -0.07536,0 -1.288276,-0.363633 -2.695309,-0.808076 -1.407021,-0.444442 -2.733327,-0.807523 -2.947358,-0.806847 -0.396964,0.0012 -1.246431,0.240546 -3.973887,1.119437 -0.845706,0.272518 -1.603399,0.495486 -1.683772,0.495486 -0.08034,0 -0.201595,0.06684 -0.269374,0.148511 -0.212786,0.256386 0.05517,0.702112 0.959012,1.595056 0.690845,0.682538 0.807426,0.842227 0.614717,0.842006 -0.332094,-3.8e-4 -2.031933,-0.465255 -2.91027,-0.795905 l -0.733069,-0.275966 0.664333,0.747479 c 1.34371,1.511927 3.238945,3.105061 4.553326,3.827532 1.434802,0.788672 2.807697,1.003447 4.067259,0.636288 z m -7.101936,-8.401343 c 1.34042,-0.461019 3.31055,-1.396734 3.392954,-1.611485 0.08374,-0.218146 -0.328791,-0.842724 -0.852821,-1.291276 -0.288141,-0.246633 -0.712547,-0.459792 -1.204483,-0.604947 -1.442837,-0.425745 -1.645663,-0.661972 -3.138363,-3.655374 -0.508331,-1.019386 -0.964163,-1.811161 -1.012953,-1.759498 -0.04875,0.05166 -0.177796,0.481807 -0.286685,0.955879 -0.311349,1.35557 -0.284196,4.473776 0.05202,5.976058 0.265967,1.188323 0.6414,2.072348 0.958489,2.25699 0.344687,0.200711 0.962602,0.122034 2.091822,-0.266347 z m 13.674142,0.271809 c 0.601901,-0.322126 1.168627,-2.460011 1.255684,-4.736845 0.05936,-1.553793 -0.06749,-2.959363 -0.361986,-4.00886 l -0.181741,-0.647727 -0.952761,1.90341 c -1.553338,3.103204 -1.693772,3.267701 -3.16283,3.704643 -0.488281,0.14523 -0.91553,0.361022 -1.20447,0.608345 -0.523349,0.447968 -0.939721,1.074804 -0.857042,1.29026 0.08256,0.215164 1.855841,1.069514 3.24918,1.56543 1.206186,0.429303 1.841976,0.521501 2.215966,0.321344 z M 43.20931,56.145381 c -0.813875,-2.604207 -0.901822,-5.619953 -0.256545,-8.798129 0.141129,-0.695142 0.241958,-1.27854 0.224057,-1.296437 -0.08007,-0.08011 -0.731037,1.311575 -1.027905,2.197639 -0.684266,2.042398 -0.674384,4.115936 0.02949,6.180785 0.319343,0.936872 1.113193,2.547027 1.208676,2.451546 0.02188,-0.02183 -0.05818,-0.352765 -0.17773,-0.735404 z m 19.765695,-0.103129 c 0.54648,-1.00466 1.012756,-2.488957 1.161105,-3.696064 0.162567,-1.322891 0.0065,-2.729269 -0.453408,-4.104098 -0.314507,-0.938737 -0.947597,-2.269466 -1.037118,-2.179954 -0.02412,0.02413 0.0287,0.328025 0.117553,0.675319 0.328411,1.285014 0.520151,3.004993 0.520806,4.671825 8.13e-4,2.118878 -0.234318,3.595086 -0.855823,5.3729 -0.122663,0.350901 0.166067,-0.03974 0.546925,-0.739928 z M 52.095324,51.395818 c 0.0971,-0.485423 0.07404,-3.081658 -0.03224,-3.631543 -0.04954,-0.256615 -0.137458,-0.513871 -0.195264,-0.571676 -0.06828,-0.06831 -1.063001,0.108012 -2.841155,0.503613 -1.504823,0.334792 -2.759118,0.631285 -2.787333,0.658875 -0.02818,0.02759 0.08951,0.319152 0.261695,0.647917 l 0.31296,0.597756 1.116129,-0.07607 c 1.067889,-0.07279 1.141499,-0.06366 1.702971,0.211043 0.398313,0.194871 0.838354,0.560878 1.369658,1.1392 0.430539,0.468646 0.837344,0.853321 0.90401,0.854835 0.0667,0.0016 0.151507,-0.148762 0.188542,-0.333946 z m 2.727324,-0.519095 c 0.529195,-0.569626 0.988722,-0.950551 1.374245,-1.139167 0.552403,-0.270267 0.631046,-0.279902 1.700075,-0.208291 l 1.120885,0.07508 0.313905,-0.59955 c 0.172658,-0.329752 0.290827,-0.622258 0.262624,-0.650011 -0.03918,-0.03856 -3.535222,-0.827035 -5.353334,-1.207373 -0.396833,-0.08301 -0.498673,0.291306 -0.549625,2.020029 -0.04954,1.68186 0.02569,2.565074 0.218396,2.565074 0.06474,0 0.475555,-0.385107 0.912829,-0.855794 z M 44.248484,41.026305 c 0.299031,-0.07964 0.662669,-0.20668 0.808083,-0.282324 0.357412,-0.185925 1.180211,-0.857049 1.180211,-0.962657 0,-0.04673 -0.351516,-0.112756 -0.781138,-0.146703 -1.578618,-0.124747 -3.079968,-0.819773 -4.193409,-1.941287 -0.341334,-0.343814 -0.728193,-0.816538 -0.859689,-1.0505 -0.131496,-0.233961 -0.281116,-0.425384 -0.332487,-0.425384 -0.388643,0 -0.617129,2.252477 -0.306015,3.016819 0.181438,0.445747 0.528249,0.969692 0.641856,0.969692 0.04417,0 0.05858,-0.301735 0.03185,-0.670521 l -0.04848,-0.670522 0.395772,0.347492 c 0.557422,0.489423 1.303321,0.843105 2.114717,1.002738 l 0.696165,0.136961 -0.322645,0.137387 c -0.177455,0.07556 -0.613551,0.197748 -0.969116,0.271518 l -0.646457,0.13413 0.430971,0.131973 c 0.579019,0.177306 1.49662,0.17781 2.159838,0.0011 z m 19.496612,-0.0024 0.430971,-0.133138 -0.430971,-0.07935 c -0.54357,-0.100085 -1.482231,-0.400238 -1.426364,-0.456108 0.0232,-0.02317 0.30156,-0.09133 0.618623,-0.151463 0.758872,-0.143916 1.581159,-0.527948 2.09333,-0.977647 l 0.413817,-0.363331 -0.04862,0.67287 c -0.06068,0.838322 0.06853,0.828993 0.504136,-0.03641 0.286725,-0.569691 0.322279,-0.745652 0.314796,-1.558041 -0.0065,-0.66151 -0.06723,-1.048993 -0.220243,-1.395399 l -0.211803,-0.479579 -0.258313,0.425707 c -1.135458,1.87124 -3.362813,3.162689 -5.469524,3.171297 -0.251852,10e-4 -0.457902,0.04711 -0.457902,0.102403 0,0.131924 0.82116,0.794276 1.262485,1.018316 0.750485,0.380996 2.072939,0.490924 2.885633,0.239866 z M 45.94388,37.825103 c 0.368501,-0.123188 0.715967,-0.268548 0.772149,-0.323021 0.17174,-0.166531 -0.583671,-0.836939 -1.20502,-1.069415 -1.000961,-0.374508 -2.500058,-0.243926 -2.590495,0.22565 -0.09344,0.485049 1.223353,1.348193 2.107549,1.381503 0.135204,0.0051 0.547318,-0.09152 0.915817,-0.214717 z m 15.870585,-0.08616 c 0.63676,-0.30124 1.122562,-0.754951 1.122562,-1.048417 0,-0.07937 -0.153945,-0.223924 -0.342093,-0.32122 -0.479736,-0.24808 -1.916216,-0.166997 -2.514526,0.141934 -0.506443,0.261498 -1.04481,0.769529 -0.98994,0.934155 0.05137,0.154031 1.339216,0.597262 1.74555,0.600746 0.177782,0.0016 0.618085,-0.136713 0.978447,-0.307198 z"
       id="path2" /></g></svg>
