<?xml version="1.0" encoding="UTF-8" standalone="no"?>
<!-- Created with Inkscape (http://www.inkscape.org/) -->

<svg
   width="105.83334mm"
   height="105.83334mm"
   viewBox="0 0 105.83333 105.83333"
   version="1.1"
   id="svg1"
   xml:space="preserve"
   inkscape:version="1.4 (e7c3feb100, 2024-10-09)"
   sodipodi:docname="montreal.svg"
   inkscape:export-filename="../pngs/montreal.png"
   inkscape:export-xdpi="96"
   inkscape:export-ydpi="96"
   xmlns:inkscape="http://www.inkscape.org/namespaces/inkscape"
   xmlns:sodipodi="http://sodipodi.sourceforge.net/DTD/sodipodi-0.dtd"
   xmlns="http://www.w3.org/2000/svg"
   xmlns:svg="http://www.w3.org/2000/svg"><sodipodi:namedview
     id="namedview1"
     pagecolor="#ffffff"
     bordercolor="#000000"
     borderopacity="0.25"
     inkscape:showpageshadow="2"
     inkscape:pageopacity="0.0"
     inkscape:pagecheckerboard="0"
     inkscape:deskcolor="#d1d1d1"
     inkscape:document-units="mm"
     inkscape:zoom="1.3647356"
     inkscape:cx="340.35897"
     inkscape:cy="177.32372"
     inkscape:window-width="1920"
     inkscape:window-height="1011"
     inkscape:window-x="0"
     inkscape:window-y="32"
     inkscape:window-maximized="1"
     inkscape:current-layer="layer1"
     showgrid="false" /><defs
     id="defs1" /><g
     inkscape:label="Capa 1"
     inkscape:groupmode="layer"
     id="layer1"><path
       d="m 16.134935,88.875629 -3.079418,-2.334669 1.13641,-1.498921 0.581216,0.440649 3.281678,-4.328519 -0.581215,-0.440649 1.136412,-1.498923 2.793909,2.11821 q 0.759658,0.575936 1.138808,1.240748 0.383014,0.659712 0.325574,1.37088 -0.04847,0.709935 -0.60122,1.439003 -0.297632,0.392575 -0.690567,0.656692 -0.387836,0.267983 -0.810531,0.348962 l 0.05756,0.252383 q 0.05902,0.462247 -0.09816,0.913136 -0.148213,0.449655 -0.44971,0.847327 -0.865838,1.142037 -1.939919,1.234985 -1.068982,0.09681 -2.200821,-0.761294 z m 3.089603,-4.795297 q 0.254918,0.193267 0.418398,0.252979 0.172444,0.05848 0.272279,0.05388 0.06908,0.0041 0.155015,-0.03503 0.09491,-0.04046 0.206997,-0.188308 0.139152,-0.18354 0.156345,-0.29094 0.02615,-0.108634 0.0086,-0.170144 -0.01237,-0.08963 -0.108868,-0.227058 -0.08758,-0.138653 -0.316998,-0.312594 l -0.361985,-0.27444 -0.73055,0.963593 z m -1.953192,3.296376 q 0.101966,0.0773 0.257716,0.147214 0.159616,0.06481 0.380177,-0.0249 0.224425,-0.0948 0.529787,-0.497576 0.239652,-0.3161 0.247147,-0.527197 0.01136,-0.216196 -0.07884,-0.340788 -0.08634,-0.12969 -0.152618,-0.17994 l -0.713773,-0.541147 -1.117084,1.473429 z m 8.131974,7.211667 -5.579777,-3.156631 0.919897,-1.626042 0.634825,0.359137 2.655729,-4.694361 -0.634823,-0.359138 0.919894,-1.626042 3.408008,1.928002 -0.919897,1.626042 -0.768472,-0.434746 -2.65573,4.694362 1.303062,0.737177 0.781283,-1.381021 1.637179,0.926197 z m 8.534432,3.545994 -3.012532,-1.202827 0.692751,-1.735026 0.350569,0.139973 0.06989,-0.33033 -1.657782,-0.661907 -0.176845,0.287624 0.356513,0.142347 -0.692749,1.735024 -3.012531,-1.202817 0.692748,-1.735028 0.528827,0.211146 3.460463,-4.43964 -0.564479,-0.225382 0.695122,-1.740969 4.230616,1.689169 -0.695121,1.740969 -0.552594,-0.220636 -0.554885,5.599759 0.534769,0.213523 z m -1.671064,-4.786909 0.217421,-1.890368 -1.126527,1.527387 z m 6.200504,6.097651 q -0.521752,-0.128868 -0.966271,-0.383655 -0.439845,-0.24704 -0.783749,-0.589002 -0.734504,-0.734992 -0.964241,-1.859368 -0.155689,-0.730425 -0.07748,-1.607388 l 0.221708,-1.164438 q 0,0 0.132238,-0.428656 0.132237,-0.428657 0.244755,-0.697427 0.271283,-0.644742 0.66088,-1.154818 0.722131,-0.89585 1.667605,-1.281807 0.985884,-0.362795 2.08529,-0.09124 0.763993,0.188704 1.402974,0.616729 0.642047,0.415604 1.09734,1.187086 0.09662,0.142486 0.06133,0.285348 l -0.621342,2.515589 -1.78265,-0.440308 0.105823,-0.988762 q 0.03278,-0.479582 -0.3839,-0.767029 0.01227,-0.04969 -0.02186,-0.04494 -0.146078,-0.07562 -0.313784,-0.117046 -0.211185,-0.05217 -0.433035,-0.03446 -0.220318,0.01143 -0.426451,0.09896 -0.393711,0.153185 -0.651634,0.583749 l -0.1484,0.200597 q -0.114126,0.248601 -0.249431,0.689681 -0.127561,0.436402 -0.127561,0.436402 0,0 -0.09336,0.458028 -0.08715,0.459565 -0.09729,0.71408 l 0.02259,0.30874 q 0.06822,0.524292 0.320625,0.889793 0.297356,0.343644 0.750784,0.455637 0.223609,0.05526 0.481191,0.05294 0.336647,-0.0289 0.489352,-0.35363 l 0.35903,-0.893271 1.78265,0.440307 -0.605998,2.453472 q -0.02455,0.09935 -0.08022,0.164714 -0.05414,0.05908 -0.116109,0.0965 -0.548545,0.273117 -1.305582,0.34974 -0.772453,0.11233 -1.635827,-0.100893 z m 12.423474,1.545429 -3.988253,-0.36744 0.171979,-1.866705 0.445971,0.04108 -0.670181,-1.443143 -0.649525,0.63407 -0.0628,0.681704 0.662584,0.06102 -0.17198,1.866704 -3.688815,-0.33986 0.171977,-1.8667 0.726297,0.06691 0.496568,-5.389871 -0.726297,-0.06691 0.17198,-1.866707 3.688815,0.33985 -0.171978,1.866705 -0.662586,-0.06105 -0.135588,1.471704 1.326968,-1.361943 -0.273955,-0.02524 0.171979,-1.866706 4.013738,0.369784 -0.171979,1.866706 -1.07033,-0.09861 -1.888471,2.016966 1.608518,3.392867 0.847346,0.07808 z m 10.520572,-0.75831 -3.829657,0.51695 -0.251622,-1.864108 0.722816,-0.09759 -0.726626,-5.383082 -0.722816,0.09757 -0.251623,-1.864106 3.474589,-0.46901 q 0.944733,-0.127519 1.682412,0.07633 0.736824,0.197518 1.197703,0.742173 0.466366,0.537458 0.588753,1.444147 0.06591,0.488218 -0.02636,0.952594 -0.08592,0.463519 -0.328451,0.819052 l 0.218808,0.138329 q 0.36787,0.286051 0.574466,0.716538 0.212083,0.423293 0.27884,0.91786 0.191713,1.420265 -0.504136,2.243724 -0.689508,0.822599 -2.097097,1.012599 z m -1.192014,-5.578496 q 0.317026,-0.04279 0.475031,-0.115765 0.163491,-0.08018 0.231018,-0.153848 0.05192,-0.04575 0.08519,-0.134164 0.03875,-0.09561 0.01391,-0.279488 -0.03081,-0.228257 -0.09438,-0.316517 -0.05808,-0.09546 -0.11394,-0.126653 -0.07197,-0.05486 -0.237323,-0.08418 -0.159874,-0.03651 -0.445196,0.002 l -0.450175,0.06077 0.161758,1.198353 z m 0.940392,3.714392 q 0.126808,-0.01712 0.286526,-0.07745 0.158863,-0.06659 0.251942,-0.285788 0.09222,-0.225501 0.02461,-0.726404 -0.05306,-0.393112 -0.196641,-0.548039 -0.144433,-0.161275 -0.296256,-0.185976 -0.152679,-0.03108 -0.235104,-0.01989 l -0.887667,0.119849 0.247343,1.832397 z m 10.774762,-0.561776 -6.095872,1.672756 -0.496072,-1.807775 0.70337,-0.193011 -1.43573,-5.232089 -0.70337,0.193012 -0.496072,-1.807785 6.095872,-1.672761 0.839766,3.060277 -1.881822,0.516389 -0.343694,-1.252492 -1.277173,0.350466 0.409726,1.493118 2.033285,-0.544682 0.609509,2.221163 -2.033287,0.544693 0.416498,1.517796 1.277172,-0.350466 -0.355547,-1.29568 1.881822,-0.516396 z m 8.591798,-3.582806 -2.975233,1.292334 -0.744301,-1.713551 0.346231,-0.150389 -0.185362,-0.28221 -1.637258,0.711162 0.07972,0.328094 0.352098,-0.152939 0.7443,1.713548 -2.975232,1.292327 -0.744301,-1.713545 0.522279,-0.226863 -0.716148,-5.583214 -0.557489,0.242152 -0.746849,-1.719414 4.178235,-1.814869 0.74685,1.719413 -0.545753,0.237054 3.585751,4.336771 0.528147,-0.229407 z m -4.575808,-2.183782 -1.189284,-1.485384 0.291433,1.875377 z m 12.14377,-2.421414 -2.192335,1.357117 -2.336058,-2.120593 -0.531051,0.321212 0.616259,0.995527 0.614725,-0.380532 0.983321,1.588491 -3.198743,1.980111 -0.98332,-1.58849 0.620165,-0.383899 -2.84557,-4.596832 -0.620164,0.3839 -0.986689,-1.593931 3.198743,-1.980112 q 0.799685,-0.495029 1.575014,-0.531024 0.777399,-0.04481 1.441073,0.334448 0.660307,0.373815 1.131762,1.13542 0.383899,0.620164 0.473262,1.287212 0.0948,0.66368 -0.0754,1.28824 l 1.495202,1.309246 0.636485,-0.394003 z m -5.637346,-2.785872 q 0.315523,-0.195317 0.370185,-0.44737 0.05181,-0.220188 -0.13677,-0.524831 -0.202052,-0.326402 -0.468869,-0.417072 -0.261377,-0.09404 -0.582339,0.104644 l -0.614725,0.380531 0.801474,1.294728 z m 9.328251,-0.03699 q -1.063969,0.881931 -2.141201,0.885666 -1.072309,-3.44e-4 -1.91283,-0.924129 l -0.288543,0.07296 -0.694243,-0.787413 1.615916,-1.439168 0.650173,0.724219 q 0.1315,0.148617 0.322952,0.239228 0.187367,0.08569 0.436505,0.04538 0.249137,-0.04031 0.559461,-0.297537 0.310324,-0.25723 0.40262,-0.466699 0.0882,-0.214394 0.0444,-0.377527 -0.04381,-0.163132 -0.12547,-0.261647 l -0.0245,-0.02955 q -0.08166,-0.09851 -0.213422,-0.147193 -0.130917,-0.05768 -0.378369,-0.0354 -0.242524,0.01825 -0.640146,0.140043 -1.551476,0.604591 -2.545683,0.497952 -0.989282,-0.110721 -1.760972,-1.041693 -0.555291,-0.669907 -0.627084,-1.408177 -0.07096,-0.747279 0.266734,-1.4427 0.333601,-0.700347 0.993655,-1.24747 0.896492,-0.74311 2.016953,-0.674642 1.116379,0.06354 1.938169,0.944675 l 0.295866,-0.0541 0.555422,0.619935 Q 89.706404,80.98942 88.874079,81.62948 L 88.619246,81.3421 q -0.285099,-0.303844 -0.686412,-0.336842 -0.405395,-0.03793 -0.71572,0.219306 -0.418691,0.347055 -0.414681,0.692761 -0.01491,0.06221 0.08716,0.185363 0.0735,0.08867 0.179071,0.125803 0.07038,0.02476 0.364567,-0.01133 0.295022,-0.0451 0.85085,-0.206664 1.347383,-0.560071 2.364402,-0.40586 1.017863,0.145201 1.805885,1.095877 0.534876,0.645278 0.632984,1.345116 0.09403,0.694912 -0.205096,1.366676 -0.299121,0.671767 -0.948612,1.251685 z"
       id="text1-9"
       style="font-size:11.2455px;line-height:1;font-family:'Ranked Sports';-inkscape-font-specification:'Ranked Sports';text-align:center;letter-spacing:1.19449px;word-spacing:0px;text-anchor:middle;fill:#dbe0e7;stroke:#dbe0e7;stroke-width:1.65143;stroke-dasharray:none;stroke-opacity:1"
       aria-label="BLACK BEARS" /><path
       id="path60-1"
       style="fill:#dbe0e7;stroke-width:0.492289"
       inkscape:transform-center-x="2.4439413"
       inkscape:transform-center-y="20.752167"
       d="m 99.437596,70.71522 -2.845059,-2.353072 -3.074465,2.044256 1.358733,-3.432952 -2.894264,-2.292279 3.684803,0.231391 1.28571,-3.460963 0.9186,3.57596 3.688876,0.153287 -3.117075,1.978673 z" /><path
       id="path60-1-9"
       style="fill:#dbe0e7;stroke-width:0.492289"
       inkscape:transform-center-x="2.4439413"
       inkscape:transform-center-y="20.752167"
       d="m 11.727861,70.71522 -2.8450593,-2.353072 -3.0744644,2.044256 1.3587329,-3.432952 -2.8942643,-2.292279 3.6848028,0.231391 1.2857099,-3.460963 0.9186004,3.57596 3.688878,0.153287 -3.117077,1.978673 z" /><path
       d="m 15.968923,88.912019 -3.079418,-2.334669 1.13641,-1.498921 0.581216,0.440649 3.281679,-4.328519 -0.581215,-0.440649 1.136411,-1.498923 2.793909,2.11821 q 0.759658,0.575936 1.138808,1.240748 0.383014,0.659712 0.325574,1.37088 -0.04847,0.709935 -0.60122,1.439003 -0.297631,0.392575 -0.690567,0.656692 -0.387836,0.267983 -0.810531,0.348962 l 0.05756,0.252383 q 0.05902,0.462247 -0.09816,0.913136 -0.148212,0.449655 -0.44971,0.847327 -0.865837,1.142037 -1.939918,1.234985 -1.068982,0.09681 -2.200822,-0.761294 z m 3.089603,-4.795297 q 0.254918,0.193267 0.418398,0.252979 0.172445,0.05848 0.272279,0.05388 0.06907,0.0041 0.155015,-0.03503 0.09491,-0.04046 0.206998,-0.188308 0.139152,-0.18354 0.156344,-0.29094 0.02615,-0.108634 0.0086,-0.170144 -0.01237,-0.08963 -0.108867,-0.227058 -0.08758,-0.138653 -0.316999,-0.312594 l -0.361984,-0.27444 -0.730551,0.963593 z m -1.953192,3.296376 q 0.101966,0.0773 0.257717,0.147214 0.159615,0.06481 0.380176,-0.0249 0.224425,-0.0948 0.529788,-0.497576 0.239651,-0.3161 0.247146,-0.527196 0.01136,-0.216197 -0.07884,-0.340789 -0.08635,-0.12969 -0.152619,-0.17994 l -0.713773,-0.541147 -1.117084,1.473429 z m 8.131974,7.211667 -5.579777,-3.156631 0.919897,-1.626042 0.634825,0.359137 2.655729,-4.694361 -0.634823,-0.359138 0.919895,-1.626042 3.408008,1.928002 -0.919897,1.626042 -0.768472,-0.434746 -2.655731,4.694362 1.303062,0.737177 0.781283,-1.381021 1.63718,0.926197 z m 8.534432,3.54599 -3.012531,-1.202827 0.69275,-1.735022 0.35057,0.139973 0.06989,-0.33033 -1.657782,-0.661907 -0.176845,0.287624 0.356514,0.142347 -0.69275,1.735024 -3.01253,-1.202817 0.692748,-1.735028 0.528827,0.211146 3.460462,-4.43964 -0.564479,-0.225382 0.695122,-1.740969 4.230616,1.689169 -0.695121,1.740969 -0.552594,-0.220636 -0.554884,5.599759 0.534768,0.213523 z m -1.671064,-4.786905 0.217421,-1.890368 -1.126527,1.527387 z m 6.200504,6.097649 q -0.521751,-0.128863 -0.966271,-0.383656 -0.439845,-0.247035 -0.783748,-0.589001 -0.734504,-0.734984 -0.964242,-1.859366 -0.155688,-0.730425 -0.07748,-1.607388 l 0.221709,-1.164438 q 0,0 0.132238,-0.428656 0.132237,-0.428657 0.244754,-0.697427 0.271283,-0.644742 0.66088,-1.154818 0.722131,-0.89585 1.667605,-1.281807 0.985884,-0.362795 2.085291,-0.09124 0.763992,0.188704 1.402973,0.616729 0.642047,0.415604 1.09734,1.187086 0.09662,0.142486 0.06133,0.285348 l -0.621341,2.515589 -1.782651,-0.440308 0.105824,-0.988762 q 0.03278,-0.479582 -0.383901,-0.767029 0.01228,-0.04969 -0.02186,-0.04494 -0.146079,-0.07562 -0.313785,-0.117046 -0.211185,-0.05217 -0.433035,-0.03446 -0.220318,0.01143 -0.42645,0.09896 -0.393711,0.153185 -0.651635,0.583749 l -0.148399,0.200597 q -0.114127,0.248601 -0.249432,0.689681 -0.127561,0.436402 -0.127561,0.436402 0,0 -0.09336,0.458028 -0.08715,0.459565 -0.09729,0.71408 l 0.02259,0.30874 q 0.06821,0.524292 0.320625,0.889794 0.297356,0.343645 0.750783,0.455632 0.223609,0.05526 0.481191,0.05292 0.336647,-0.02891 0.489352,-0.353624 l 0.35903,-0.893273 1.78265,0.440307 -0.605998,2.453476 q -0.02455,0.09936 -0.08022,0.164708 -0.05414,0.05909 -0.116109,0.09649 -0.548544,0.273124 -1.305582,0.349745 -0.772452,0.112327 -1.635827,-0.10085 z m 12.423475,1.545431 -3.988254,-0.36744 0.171979,-1.866705 0.445971,0.04113 -0.670181,-1.443146 -0.649525,0.63407 -0.0628,0.681712 0.662584,0.061 -0.171979,1.866709 -3.688816,-0.33987 0.171978,-1.8667 0.726296,0.06695 0.496568,-5.389869 -0.726297,-0.06691 0.17198,-1.866707 3.688816,0.339849 -0.171979,1.866706 -0.662586,-0.06105 -0.135587,1.471704 1.326967,-1.361943 -0.273954,-0.02524 0.171978,-1.866706 4.013738,0.369783 -0.171978,1.866707 -1.070331,-0.09861 -1.888471,2.016967 1.608519,3.392871 0.847345,0.07811 z m 10.520572,-0.75831 -3.829658,0.51695 -0.251621,-1.864103 0.722815,-0.09756 -0.726626,-5.383087 -0.722815,0.09757 -0.251624,-1.864106 3.474589,-0.46901 q 0.944733,-0.127519 1.682413,0.07633 0.736823,0.197518 1.197702,0.742172 0.466366,0.537459 0.588754,1.444148 0.06591,0.488218 -0.02637,0.952593 -0.08592,0.46352 -0.328451,0.819053 l 0.218808,0.138329 q 0.367871,0.286051 0.574467,0.716538 0.212083,0.423293 0.278839,0.917865 0.191713,1.420255 -0.504136,2.24372 -0.689508,0.822608 -2.097097,1.012608 z m -1.192014,-5.578496 q 0.317025,-0.04279 0.475031,-0.115765 0.163491,-0.08018 0.231018,-0.153848 0.05192,-0.04575 0.08519,-0.134164 0.03875,-0.09561 0.01391,-0.279488 -0.03081,-0.228257 -0.09438,-0.316517 -0.05808,-0.09546 -0.113939,-0.126653 -0.07197,-0.05486 -0.237324,-0.08418 -0.159874,-0.03651 -0.445196,0.002 l -0.450175,0.06077 0.161758,1.198353 z m 0.940391,3.714393 q 0.126809,-0.01711 0.286526,-0.07747 0.158863,-0.06663 0.251943,-0.285792 0.09222,-0.225494 0.02461,-0.726397 -0.05306,-0.393114 -0.196642,-0.548043 -0.144433,-0.161275 -0.296255,-0.185977 -0.152679,-0.03108 -0.235104,-0.01989 l -0.887668,0.119849 0.247343,1.832395 z m 10.774762,-0.561775 -6.095872,1.672753 -0.496071,-1.807769 0.70337,-0.193018 -1.435731,-5.232087 -0.70337,0.193012 -0.496072,-1.807785 6.095872,-1.672761 0.839767,3.060277 -1.881823,0.516389 -0.343694,-1.252492 -1.277172,0.350466 0.409725,1.493118 2.033286,-0.544682 0.609509,2.221163 -2.033288,0.544693 0.416498,1.517798 1.277172,-0.350468 -0.355547,-1.29568 1.881823,-0.516396 z m 8.591798,-3.582808 -2.975233,1.292334 -0.744301,-1.713551 0.346231,-0.150389 -0.185361,-0.28221 -1.637259,0.711162 0.07972,0.328094 0.352098,-0.152939 0.744301,1.713548 -2.975232,1.292327 -0.744301,-1.713545 0.522278,-0.226863 -0.716148,-5.583214 -0.557488,0.242152 -0.74685,-1.719414 4.178236,-1.814869 0.746849,1.719413 -0.545753,0.237054 3.585751,4.336771 0.528147,-0.229407 z m -4.575808,-2.183782 -1.189284,-1.485384 0.291433,1.875377 z m 12.14377,-2.421414 -2.192335,1.357117 -2.336058,-2.120592 -0.531051,0.321211 0.61626,0.995527 0.614725,-0.380532 0.983321,1.588491 -3.198744,1.980111 -0.98332,-1.58849 0.620165,-0.383899 -2.84557,-4.596832 -0.620164,0.3839 -0.986688,-1.593931 3.198742,-1.980112 q 0.799685,-0.495029 1.575014,-0.531024 0.7774,-0.04481 1.441073,0.334448 0.660308,0.373815 1.131762,1.13542 0.3839,0.620164 0.473262,1.287212 0.0948,0.66368 -0.0754,1.28824 l 1.495203,1.309246 0.636484,-0.394003 z M 82.29078,86.868866 q 0.315523,-0.195317 0.370185,-0.44737 0.05181,-0.220188 -0.136769,-0.524831 -0.202053,-0.326402 -0.46887,-0.417072 -0.261377,-0.09404 -0.582339,0.104644 l -0.614725,0.380531 0.801474,1.294728 z m 9.328251,-0.03699 q -1.063968,0.881931 -2.141201,0.885666 -1.072309,-3.44e-4 -1.912829,-0.924129 l -0.288543,0.07296 -0.694244,-0.787413 1.615916,-1.439168 0.650174,0.724219 q 0.131499,0.148617 0.322951,0.239228 0.187368,0.08568 0.436506,0.04538 0.249136,-0.04031 0.55946,-0.297537 0.310324,-0.25723 0.402621,-0.466699 0.0882,-0.214394 0.0444,-0.377527 -0.04382,-0.163132 -0.125469,-0.261647 l -0.0245,-0.02955 q -0.08166,-0.09851 -0.213422,-0.147193 -0.130917,-0.05768 -0.378368,-0.0354 -0.242524,0.01825 -0.640147,0.140043 -1.551475,0.604591 -2.545683,0.497952 -0.989282,-0.110721 -1.760971,-1.041693 -0.555292,-0.669907 -0.627084,-1.408177 -0.07096,-0.747279 0.266733,-1.4427 0.333601,-0.700347 0.993656,-1.24747 0.896491,-0.74311 2.016952,-0.674642 1.11638,0.06354 1.938169,0.944675 l 0.295867,-0.0541 0.555422,0.619935 q -0.825003,0.658921 -1.657328,1.298981 l -0.254833,-0.28738 q -0.285099,-0.303844 -0.686412,-0.336842 -0.405395,-0.03793 -0.71572,0.219306 -0.418691,0.347055 -0.41468,0.692761 -0.01491,0.06221 0.08716,0.185363 0.0735,0.08867 0.179072,0.125803 0.07038,0.02476 0.364566,-0.01133 0.295022,-0.0451 0.85085,-0.206664 1.347383,-0.560071 2.364402,-0.40586 1.017863,0.145201 1.805886,1.095877 0.534875,0.645278 0.632983,1.345116 0.09403,0.694912 -0.205096,1.366676 -0.299121,0.671767 -0.948612,1.251685 z"
       id="text1"
       style="font-size:11.2455px;line-height:1;font-family:'Ranked Sports';-inkscape-font-specification:'Ranked Sports';text-align:center;letter-spacing:1.19449px;word-spacing:0px;text-anchor:middle;fill:#0d2f6d;fill-opacity:1;stroke-width:1.3325"
       aria-label="BLACK BEARS" /><path
       d="m 23.873106,24.057088 -4.287141,4.237098 -2.111343,-2.136279 0.860345,-0.850302 -3.235215,-3.317175 3.545667,7.233323 -1.713398,1.693398 -6.9892615,-3.455194 3.1207755,3.055548 0.933255,-0.922362 2.111342,2.13628 -4.294431,4.244303 -2.11134,-2.136278 0.823886,-0.814273 -6.0818251,-6.153651 -0.823885,0.814272 -2.1113462,-2.136279 4.3746336,-4.323569 7.1825467,3.869508 -3.8286609,-7.184244 4.3308899,-4.280333 2.111343,2.13628 -0.83118,0.821478 6.08182,6.15365 0.83118,-0.821478 z"
       id="path7-7"
       style="font-size:19.7556px;line-height:1;font-family:'Ranked Sports';-inkscape-font-specification:'Ranked Sports';text-align:center;letter-spacing:1.30969px;word-spacing:0px;text-anchor:middle;stroke:#dbe0e7;stroke-width:1.65143;stroke-opacity:1" /><path
       style="font-size:17.6389px;line-height:1;font-family:'Ranked Sports';-inkscape-font-specification:'Ranked Sports';text-align:center;letter-spacing:1.30969px;word-spacing:0px;text-anchor:middle;stroke:#dbe0e7;stroke-width:1.65143;stroke-opacity:1"
       d="m 31.069177,20.941255 q -0.910086,0.451565 -1.978517,0.481039 -1.0643,0.0172 -2.147561,-0.456836 -1.075062,-0.478109 -2.058369,-1.512621 -0.90983,-0.968795 -1.573188,-2.223364 -0.593951,-1.19705 -0.835532,-2.507632 -0.24565,-1.318781 -0.0084,-2.591058 0.224694,-1.194543 0.898639,-2.06025 0.682145,-0.8697734 1.633226,-1.3416791 0.951081,-0.4719047 2.06858,-0.4848557 1.121629,-0.02522 2.2293,0.4980177 1.144409,0.5560947 2.041909,1.5412241 0.893431,0.976931 1.487381,2.173981 0.630563,1.270841 0.880219,2.618287 0.200336,1.412787 -0.09383,2.570279 -0.285967,1.153422 -0.95985,1.998663 -0.673883,0.845241 -1.583969,1.296805 z m -1.444005,-2.972034 q 0.254168,-0.126112 0.447188,-0.334277 0.20122,-0.212234 0.300297,-0.486178 0.247849,-0.736028 0.06205,-1.542967 -0.181687,-0.819208 -0.560025,-1.581713 -0.333588,-0.672316 -0.822706,-1.349201 -0.480919,-0.680953 -1.122564,-1.006286 -0.641645,-0.325332 -1.436695,-0.01259 -0.750363,0.423401 -0.883365,1.082008 -0.124806,0.654539 0.102137,1.400207 0.235139,0.741599 0.560528,1.417983 0.272566,0.549331 0.590258,1.066055 0.31769,0.516723 0.713555,0.902702 0.395864,0.385978 0.894685,0.567609 0.621743,0.141074 1.154676,-0.123355 z"
       id="path8-2" /><path
       style="font-size:15.5222px;line-height:1;font-family:'Ranked Sports';-inkscape-font-specification:'Ranked Sports';text-align:center;letter-spacing:1.30969px;word-spacing:0px;text-anchor:middle;stroke:#dbe0e7;stroke-width:1.65143;stroke-opacity:1"
       d="m 46.425083,15.806134 -2.590029,0.560111 -4.10048,-4.823979 0.684391,3.164717 1.117885,-0.24175 0.495418,2.290877 -4.550264,0.984025 -0.495417,-2.290877 0.873839,-0.188974 -1.433477,-6.6285841 -0.873839,0.188973 -0.49712,-2.2987478 3.534721,-0.7644069 4.056228,4.9241928 -0.701417,-3.2434395 -1.117884,0.241751 -0.497121,-2.2987492 4.550264,-0.9840251 0.497121,2.2987489 -0.881712,0.1906767 z"
       id="path9-7" /><path
       style="font-size:13.4056px;line-height:1;font-family:'Ranked Sports';-inkscape-font-specification:'Ranked Sports';text-align:center;letter-spacing:1.30969px;word-spacing:0px;text-anchor:middle;stroke:#dbe0e7;stroke-width:1.65143;stroke-opacity:1"
       d="m 55.445871,15.648137 -4.117846,-0.03778 0.0187,-2.038055 0.79992,0.0073 0.05368,-5.8498445 -0.528643,-0.0049 -0.3469,1.4159231 -1.766778,-0.01621 0.03223,-3.5126882 7.797477,0.071546 -0.03223,3.5126892 -1.787646,-0.0164 -0.306947,-1.4219231 -0.542554,-0.005 -0.05368,5.8498455 0.799919,0.0073 z"
       id="path10-2" /><path
       style="font-size:13.4056px;line-height:1;font-family:'Ranked Sports';-inkscape-font-specification:'Ranked Sports';text-align:center;letter-spacing:1.30969px;word-spacing:0px;text-anchor:middle;stroke:#dbe0e7;stroke-width:1.65143;stroke-opacity:1"
       d="m 67.011026,17.452783 -2.743493,-0.576034 -0.248325,-3.421232 -0.658915,-0.145456 -0.261574,1.245805 0.769267,0.161518 -0.417374,1.987841 -4.002914,-0.840466 0.417375,-1.987842 0.776075,0.162948 1.207813,-5.7524848 -0.776074,-0.162948 0.418803,-1.9946477 4.002914,0.8404663 q 1.000728,0.210117 1.638009,0.7632817 0.645519,0.5477877 0.883472,1.3440661 0.239384,0.7894717 0.03927,1.7425464 -0.162948,0.776075 -0.592897,1.368149 -0.423141,0.593504 -1.025535,0.95746 l 0.194977,2.151952 0.796498,0.167236 z m -2.347901,-6.420871 q 0.394845,0.0829 0.626912,-0.0745 0.205926,-0.134458 0.28597,-0.515688 0.08576,-0.40846 -0.05625,-0.6799437 -0.13521,-0.270053 -0.536862,-0.3543857 l -0.769267,-0.161518 -0.34019,1.6202264 z"
       id="path11-2" /><path
       style="font-size:15.5222px;line-height:1;font-family:'Ranked Sports';-inkscape-font-specification:'Ranked Sports';text-align:center;letter-spacing:1.30969px;word-spacing:0px;text-anchor:middle;stroke:#dbe0e7;stroke-width:1.65143;stroke-opacity:1"
       d="m 76.39052,21.251032 -7.307854,-3.149789 0.934097,-2.167208 0.843214,0.363437 2.703463,-6.272328 -0.843214,-0.3634367 0.934097,-2.1672068 7.307855,3.1497875 -1.581271,3.668721 -2.255968,-0.972354 0.647175,-1.501513 -1.5311,-0.659925 -0.771506,1.78998 2.427109,1.06366 -1.147696,2.662781 -2.42711,-1.06366 -0.78426,1.819567 1.5311,0.659926 0.669488,-1.553289 2.255968,0.972354 z"
       id="path12-6" /><path
       style="font-size:17.6389px;line-height:1;font-family:'Ranked Sports';-inkscape-font-specification:'Ranked Sports';text-align:center;letter-spacing:1.30969px;word-spacing:0px;text-anchor:middle;stroke:#dbe0e7;stroke-width:1.65143;stroke-opacity:1"
       d="m 87.216883,28.765152 -3.719271,-2.775029 1.598242,-2.142065 0.432814,0.322932 0.218596,-0.430725 -2.046699,-1.527086 -0.350641,0.332202 0.440151,0.328406 -1.598243,2.142065 -3.71927,-2.77503 1.598241,-2.142065 0.652891,0.487136 6.42233,-4.857794 -0.696906,-0.519976 1.603716,-2.149401 5.223118,3.897083 -1.603715,2.149401 -0.682234,-0.509029 -2.835104,7.534301 0.660225,0.492609 z m -0.541525,-7.233016 0.99868,-2.532313 -2.121063,1.694878 z"
       id="path13-1" /><path
       d="m 95.352777,38.4985 -6.381336,-8.048881 2.345583,-1.859631 0.726019,0.915741 6.771664,-5.368728 -0.726021,-0.915741 2.345584,-1.859631 3.89758,4.916083 -2.34558,1.859631 -0.87887,-1.108529 -6.771661,5.368729 1.490252,1.879679 1.992138,-1.579413 1.872368,2.361649 z"
       id="path14-0"
       style="font-size:19.7556px;line-height:1;font-family:'Ranked Sports';-inkscape-font-specification:'Ranked Sports';text-align:center;letter-spacing:1.30969px;word-spacing:0px;text-anchor:middle;stroke:#dbe0e7;stroke-width:1.65143;stroke-opacity:1" /><path
       d="m 23.869256,24.146302 -4.287141,4.237098 -2.111343,-2.136279 0.860345,-0.850302 -3.235215,-3.317175 3.545667,7.233323 -1.713398,1.693398 -6.9892615,-3.455194 3.1207755,3.055548 0.933255,-0.922362 2.111342,2.13628 -4.294431,4.244303 -2.11134,-2.136278 0.823886,-0.814273 -6.0818251,-6.153651 -0.823885,0.814272 -2.1113462,-2.136279 4.3746336,-4.323569 7.1825467,3.869508 -3.8286609,-7.184244 4.3308899,-4.280333 2.111343,2.13628 -0.83118,0.821478 6.08182,6.15365 0.83118,-0.821478 z"
       id="path7"
       style="font-size:19.7556px;line-height:1;font-family:'Ranked Sports';-inkscape-font-specification:'Ranked Sports';text-align:center;letter-spacing:1.30969px;word-spacing:0px;text-anchor:middle;fill:#0d2f6d;fill-opacity:1;stroke:none;stroke-width:1.65143" /><path
       style="font-size:17.6389px;line-height:1;font-family:'Ranked Sports';-inkscape-font-specification:'Ranked Sports';text-align:center;letter-spacing:1.30969px;word-spacing:0px;text-anchor:middle;fill:#0d2f6d;fill-opacity:1;stroke:none;stroke-width:1.65143"
       d="m 31.065327,21.030469 q -0.910086,0.451565 -1.978517,0.481039 -1.0643,0.0172 -2.147561,-0.456836 -1.075062,-0.478109 -2.058369,-1.512621 -0.90983,-0.968795 -1.573188,-2.223364 -0.593951,-1.19705 -0.835532,-2.507632 -0.24565,-1.318781 -0.0084,-2.591058 0.224694,-1.194543 0.898639,-2.06025 0.682145,-0.8697734 1.633226,-1.3416791 0.951081,-0.4719047 2.06858,-0.4848557 1.121629,-0.02522 2.2293,0.4980177 1.144409,0.5560947 2.041909,1.5412241 0.893431,0.976931 1.487381,2.173981 0.630563,1.270841 0.880219,2.618287 0.200336,1.412787 -0.09383,2.570279 -0.285967,1.153422 -0.95985,1.998663 -0.673883,0.845241 -1.583969,1.296805 z m -1.444005,-2.972034 q 0.254168,-0.126112 0.447188,-0.334277 0.20122,-0.212234 0.300297,-0.486178 0.247849,-0.736028 0.06205,-1.542967 -0.181687,-0.819208 -0.560025,-1.581713 -0.333588,-0.672316 -0.822706,-1.349201 -0.480919,-0.680953 -1.122564,-1.006286 -0.641645,-0.325332 -1.436695,-0.01259 -0.750363,0.423401 -0.883365,1.082008 -0.124806,0.654539 0.102137,1.400207 0.235139,0.741599 0.560528,1.417983 0.272566,0.549331 0.590258,1.066055 0.31769,0.516723 0.713555,0.902702 0.395864,0.385978 0.894685,0.567609 0.621743,0.141074 1.154676,-0.123355 z"
       id="path8" /><path
       style="font-size:15.5222px;line-height:1;font-family:'Ranked Sports';-inkscape-font-specification:'Ranked Sports';text-align:center;letter-spacing:1.30969px;word-spacing:0px;text-anchor:middle;fill:#0d2f6d;fill-opacity:1;stroke:none;stroke-width:1.65143"
       d="m 46.421233,15.895348 -2.590029,0.560111 -4.10048,-4.823979 0.684391,3.164717 1.117885,-0.24175 0.495418,2.290877 -4.550264,0.984025 -0.495417,-2.290877 0.873839,-0.188974 -1.433477,-6.6285841 -0.873839,0.188973 -0.49712,-2.2987478 3.534721,-0.7644069 4.056228,4.9241928 -0.701417,-3.2434395 -1.117884,0.241751 -0.497121,-2.2987492 4.550264,-0.9840251 0.497121,2.2987489 -0.881712,0.1906767 z"
       id="path9" /><path
       style="font-size:13.4056px;line-height:1;font-family:'Ranked Sports';-inkscape-font-specification:'Ranked Sports';text-align:center;letter-spacing:1.30969px;word-spacing:0px;text-anchor:middle;fill:#0d2f6d;fill-opacity:1;stroke:none;stroke-width:1.65143"
       d="m 55.442021,15.737351 -4.117846,-0.03778 0.0187,-2.038055 0.79992,0.0073 0.05368,-5.8498445 -0.528643,-0.0048 -0.3469,1.4159231 -1.766778,-0.01621 0.03223,-3.5126882 7.797477,0.071546 -0.03223,3.5126892 -1.787646,-0.0164 -0.306947,-1.4219231 -0.542554,-0.005 -0.05368,5.8498455 0.799919,0.0073 z"
       id="path10" /><path
       style="font-size:13.4056px;line-height:1;font-family:'Ranked Sports';-inkscape-font-specification:'Ranked Sports';text-align:center;letter-spacing:1.30969px;word-spacing:0px;text-anchor:middle;fill:#0d2f6d;fill-opacity:1;stroke:none;stroke-width:1.65143"
       d="m 67.007176,17.541997 -2.743493,-0.576034 -0.248325,-3.421232 -0.658915,-0.145456 -0.261574,1.245805 0.769267,0.161518 -0.417374,1.987841 -4.002914,-0.840466 0.417375,-1.987842 0.776075,0.162948 1.207813,-5.7524848 -0.776074,-0.162948 0.418803,-1.9946477 4.002914,0.8404663 q 1.000728,0.210117 1.638009,0.7632817 0.645519,0.5477877 0.883472,1.3440661 0.239384,0.7894717 0.03927,1.7425464 -0.162948,0.776075 -0.592897,1.368149 -0.423141,0.593504 -1.025535,0.95746 l 0.194977,2.151952 0.796498,0.167236 z m -2.347901,-6.420871 q 0.394845,0.0829 0.626912,-0.0745 0.205926,-0.134458 0.28597,-0.515688 0.08576,-0.40846 -0.05625,-0.6799437 -0.13521,-0.270053 -0.536862,-0.354386 l -0.769267,-0.1615177 -0.34019,1.6202264 z"
       id="path11" /><path
       style="font-size:15.5222px;line-height:1;font-family:'Ranked Sports';-inkscape-font-specification:'Ranked Sports';text-align:center;letter-spacing:1.30969px;word-spacing:0px;text-anchor:middle;fill:#0d2f6d;fill-opacity:1;stroke:none;stroke-width:1.65143"
       d="m 76.38667,21.340246 -7.307854,-3.149789 0.934097,-2.167208 0.843214,0.363437 2.703463,-6.272328 -0.843214,-0.3634367 0.934097,-2.1672068 7.307855,3.1497875 -1.581271,3.668721 -2.255968,-0.972354 0.647175,-1.501513 -1.5311,-0.659925 -0.771506,1.78998 2.427109,1.06366 -1.147696,2.662781 -2.42711,-1.06366 -0.78426,1.819567 1.5311,0.659926 0.669488,-1.553289 2.255968,0.972354 z"
       id="path12" /><path
       style="font-size:17.6389px;line-height:1;font-family:'Ranked Sports';-inkscape-font-specification:'Ranked Sports';text-align:center;letter-spacing:1.30969px;word-spacing:0px;text-anchor:middle;fill:#0d2f6d;fill-opacity:1;stroke:none;stroke-width:1.65143"
       d="m 87.213033,28.854366 -3.719271,-2.775029 1.598242,-2.142065 0.432814,0.322932 0.218596,-0.430725 -2.046699,-1.527086 -0.350641,0.332202 0.440151,0.328406 -1.598243,2.142065 -3.71927,-2.77503 1.598241,-2.142065 0.652891,0.487136 6.42233,-4.857794 -0.696906,-0.519976 1.603716,-2.149401 5.223118,3.897083 -1.603715,2.149401 -0.682234,-0.509029 -2.835104,7.534301 0.660225,0.492609 z m -0.541525,-7.233016 0.99868,-2.532313 -2.121063,1.694878 z"
       id="path13" /><path
       d="m 95.348927,38.587714 -6.381336,-8.048881 2.345583,-1.859631 0.726019,0.915741 6.771664,-5.368728 -0.726021,-0.915741 2.345584,-1.859631 3.89758,4.916083 -2.34558,1.859631 -0.87887,-1.108529 -6.771661,5.368729 1.490252,1.879679 1.992138,-1.579413 1.872368,2.361649 z"
       id="path14"
       style="font-size:19.7556px;line-height:1;font-family:'Ranked Sports';-inkscape-font-specification:'Ranked Sports';text-align:center;letter-spacing:1.30969px;word-spacing:0px;text-anchor:middle;fill:#0d2f6d;fill-opacity:1;stroke:none;stroke-width:1.65143" /><path
       style="fill:#000000;fill-opacity:1;stroke:none;stroke-width:2.45078"
       d="m 75.720064,35.593362 0.501697,5.184223 c 0,0 3.679128,3.010192 4.097207,3.261041 0.418083,0.250849 2.675728,3.846357 2.675728,3.846357 l -1.254246,3.010193 2.174027,3.846358 5.100602,4.097206 0.418083,2.675724 -1.755942,4.013593 -2.006797,4.849754 -5.351455,4.264441 -7.609097,2.257642 -7.274632,5.602303 -6.104001,1.588714 -1.588713,-2.842961 -12.458854,-4.01359 -18.479234,-5.769535 -6.438469,-7.023783 -2.006796,-8.110795 3.010193,-9.448663 -2.341261,-3.929973 c 0,0 0.668931,-2.842958 2.090411,-5.853152 -1.015875,-3.588744 3.668465,-4.273599 8.089573,-3.29089 2.624182,0.583293 3.043482,2.295664 7.896803,2.856531 8.894318,1.027859 6.153563,-1.51934 38.615173,-1.070738 z"
       id="path1"
       sodipodi:nodetypes="cccccccccccccccccccsccssc" /><path
       id="path27"
       style="fill:#dbe0e7;fill-opacity:1;stroke-width:1.14216"
       d="m 62.699637,84.987917 c 3.683841,-1.18538 6.435612,-2.824689 9.025607,-5.376811 2.36371,-2.329149 2.469897,-2.391626 4.766494,-2.804378 2.719368,-0.488736 6.085703,-1.969986 7.764415,-3.416494 1.737979,-1.497574 3.458242,-4.197445 3.910697,-6.137634 0.220094,-0.943857 0.669123,-2.012182 0.997825,-2.374055 0.437344,-0.481469 0.654594,-1.398848 0.809962,-3.42012 l 0.212316,-2.762168 -2.93712,-2.059708 c -2.524218,-1.77015 -2.987946,-2.239375 -3.298591,-3.337734 -0.198804,-0.702915 -0.634127,-1.624664 -0.967386,-2.048332 -0.600879,-0.763901 -0.597943,-0.781902 0.353418,-2.164651 0.527632,-0.766891 0.959334,-1.493568 0.959334,-1.61484 0,-0.46317 -3.237987,-3.930253 -4.935834,-5.285065 -1.584426,-1.264309 -1.74442,-1.500637 -1.482397,-2.1898 0.914333,-2.40488 -0.142325,-4.902154 -2.51909,-5.953507 -1.293895,-0.57235 -1.917526,-0.640213 -4.423618,-0.48138 -1.604551,0.101698 -4.399587,0.563849 -6.211189,1.027006 -3.237885,0.827808 -3.388388,0.836616 -8.864426,0.518773 -5.722481,-0.332147 -11.438327,-0.10525 -16.050881,0.637145 l -2.421698,0.389778 -1.76876,-0.994892 C 33.048297,33.69324 28.135937,32.143158 25.490353,31.943072 l -2.289961,-0.173189 -1.193203,1.320731 c -2.361323,2.613695 -4.119952,7.185699 -4.10612,10.674882 0.0069,1.69513 0.829265,4.207628 1.516571,4.632402 0.165761,0.102451 -0.252418,1.317044 -0.929319,2.699095 -1.991275,4.065732 -2.24914,8.110835 -0.782105,12.268857 0.780975,2.213537 3.054181,5.469741 5.131072,7.349907 3.07587,2.784506 6.006251,4.037388 14.719615,6.293332 9.150982,2.369249 12.972179,3.561971 15.955968,4.98039 2.807382,1.33456 3.25825,1.700597 3.855565,3.130164 0.475949,1.139118 0.483122,1.142377 1.856889,0.843007 0.758496,-0.165294 2.321941,-0.603923 3.474312,-0.974733 z M 60.99092,82.150962 C 61.387935,80.632764 59.314824,79.022442 54.963414,77.46901 53.633746,76.994327 48.411792,75.453516 43.359073,74.044987 38.306354,72.636458 33.129241,71.06587 31.854386,70.554792 27.028214,68.620018 23.173859,65.244423 21.176668,61.203371 20.070692,58.96557 19.989564,58.600551 19.994213,55.88293 c 0.0057,-3.243396 0.58249,-4.975009 2.605677,-7.820666 L 23.682612,46.5394 22.922916,45.722978 c -1.235577,-1.327836 -1.528427,-2.187456 -1.520626,-4.4635 0.0091,-2.492625 0.995792,-6.029809 1.976838,-7.082844 0.560207,-0.601309 0.88522,-0.68425 2.023347,-0.516348 1.964115,0.289753 5.535568,1.51417 8.754664,3.001397 l 2.803579,1.295259 3.763279,-0.644953 c 2.735735,-0.468852 5.303526,-0.650048 9.404278,-0.663611 6.213839,-0.02055 10.191353,0.44351 16.067318,1.874586 3.585387,0.873211 3.666001,0.878537 4.109867,0.271515 0.601632,-0.822768 0.571822,-1.794222 -0.08372,-2.730201 l -0.536518,-0.765985 2.061518,0.186931 c 2.639485,0.23934 3.353449,0.961132 3.098291,3.132259 -0.094,0.799662 -0.260264,1.744041 -0.369512,2.098619 -0.159731,0.51837 0.07504,0.788595 1.198411,1.379171 1.656645,0.870965 4.341283,3.045028 5.535868,4.483047 l 0.853204,1.027075 -0.897817,1.610084 -0.897817,1.610083 0.89382,0.93395 c 0.51782,0.541059 0.992422,1.491301 1.128202,2.258844 0.214954,1.215069 0.479615,1.500156 3.192827,3.439203 l 2.958444,2.11431 -0.178759,1.854113 c -0.128916,1.337134 -0.392069,2.083728 -0.943801,2.677609 -0.420771,0.452922 -0.768228,1.105667 -0.772123,1.450543 -0.01302,1.15412 -1.231019,3.33976 -2.789816,5.00624 -2.226217,2.380008 -6.08271,4.151498 -10.119388,4.648359 -1.271337,0.156485 -1.728795,0.443802 -3.339731,2.09761 -2.199377,2.257903 -4.16629,3.621601 -6.435212,4.461659 -2.993817,1.108447 -3.062998,1.117676 -2.870864,0.38296 z M 56.252786,69.880778 c 0.797798,-0.174786 2.683504,-0.430141 4.190458,-0.567456 l 2.739915,-0.249663 -2.736135,-1.071941 c -2.170537,-0.850351 -3.057355,-1.041077 -4.29002,-0.922634 -1.906858,0.183225 -2.5158,0.667944 -1.7727,1.411051 0.480393,0.480391 0.453917,0.583795 -0.336149,1.312799 l -0.857624,0.791336 0.80585,-0.19285 c 0.443227,-0.106072 1.458607,-0.335858 2.256405,-0.510642 z M 75.912138,69.40645 c 2.572885,-1.330494 2.586329,-4.675811 0.01873,-4.675811 -0.660773,0 -1.144638,-0.313197 -1.788987,-1.15799 l -0.883243,-1.15799 1.570252,-1.615403 1.570252,-1.615404 3.62636,0.168145 c 1.994496,0.09248 3.625603,0.07128 3.624677,-0.0471 -9.25e-4,-0.118387 -2.297339,-1.702057 -5.10316,-3.519264 l -5.10149,-3.304013 h -3.116576 c -1.714119,0 -3.116577,0.0864 -3.116577,0.191996 0,0.105593 0.266329,0.577025 0.591833,1.047615 1.167584,1.68799 1.166808,1.692587 -0.248419,1.466281 -1.236422,-0.19771 -1.410385,-0.121889 -2.885015,1.257464 -1.759406,1.64571 -3.978565,2.483499 -6.578371,2.483499 h -1.589086 l 0.204732,1.091326 c 0.183271,0.976931 0.118602,1.112944 -0.617006,1.297569 -1.105142,0.277375 -3.251854,2.470004 -3.454108,3.527987 -0.08966,0.468774 -0.146779,0.850747 -0.127042,0.848827 0.01976,-0.0019 0.747943,-0.2195 1.618246,-0.483514 3.446569,-1.045553 7.106436,-0.324668 11.633694,2.291496 1.418311,0.819596 3.086435,1.681507 3.706947,1.915356 1.571783,0.592357 5.288747,0.585974 6.443287,-0.01108 z m 7.943494,-7.280844 c 0.59711,-0.369036 1.085657,-0.731672 1.085657,-0.805856 0,-0.07418 -1.704388,-0.119841 -3.787527,-0.101458 l -3.787518,0.03343 2.256397,0.744284 c 2.84119,0.937181 2.922283,0.939663 4.232991,0.129604 z m -36.581819,-1.25458 c 1.126729,-0.349901 2.621462,-1.027517 3.321629,-1.505814 l 1.273016,-0.869629 -0.789506,-0.31535 c -3.54427,-1.415678 -5.546201,-3.011049 -6.757313,-5.385021 -0.859406,-1.684583 -1.199747,-4.313384 -0.644977,-4.981843 0.345069,-0.415786 0.281976,-0.489241 -0.420269,-0.489241 -1.549522,0 -1.199485,-0.597987 0.977334,-1.669631 1.976462,-0.973011 2.438328,-1.070138 5.081913,-1.068688 l 2.907859,0.0016 5.549067,2.673321 c 6.226563,2.999713 9.294049,3.831864 12.895975,3.498438 2.346852,-0.217247 3.678713,-0.827274 4.637498,-2.124107 0.595511,-0.805461 0.852794,-0.912994 1.859185,-0.777053 l 1.168041,0.157775 -1.772883,-1.187941 C 72.78679,44.299305 67.131421,42.03804 61.249094,40.705723 57.653987,39.891448 47.769876,39.700707 43.817216,40.369328 c -5.440208,0.920252 -11.190376,3.31641 -14.157707,5.899678 -0.933943,0.813056 -0.967032,0.93651 -0.967032,3.607824 0,2.369877 0.127876,3.026366 0.893043,4.584458 0.491163,1.000174 1.530643,2.40622 2.309927,3.124547 1.55449,1.432879 4.659885,3.126572 6.549233,3.571973 2.274109,0.536106 6.635513,0.394444 8.829133,-0.286777 z M 60.11276,55.302112 c 1.324231,-0.677388 2.273639,-1.642317 1.930797,-1.962356 -0.08235,-0.07689 -0.729988,-0.235213 -1.439143,-0.351819 -1.138334,-0.187175 -1.327133,-0.125578 -1.611713,0.525847 -0.652013,1.492472 -2.702841,1.859935 -3.869465,0.693317 -0.436671,-0.436675 -0.414558,-0.548698 0.207862,-1.052697 1.069575,-0.866089 0.607971,-1.950901 -1.27754,-3.002347 -0.866968,-0.483458 -1.669655,-0.785654 -1.783768,-0.671548 -0.415449,0.415449 -0.177982,2.551341 0.433416,3.898433 1.121178,2.470257 4.583349,3.368874 7.409554,1.92317 z M 77.690366,51.5117 c 0.294985,-0.47731 -0.139823,-1.608829 -0.618228,-1.608829 -0.226513,0 -0.662498,0.276972 -0.968848,0.615494 -0.528489,0.583972 -0.526924,0.632995 0.03061,0.957226 0.749736,0.435999 1.301387,0.448797 1.556443,0.0361 z M 26.505938,39.647745 c 0.390722,-0.05573 1.405176,0.212367 2.254326,0.595773 1.756733,0.793187 5.165531,1.165817 5.895554,0.644467 0.419526,-0.299605 0.398191,-0.411974 -0.161171,-0.849039 -1.208256,-0.944087 -4.992139,-2.71455 -6.818052,-3.190142 -1.680939,-0.437827 -1.853439,-0.431294 -2.236988,0.08473 -0.645811,0.868867 -0.852862,2.741838 -0.419755,3.79703 l 0.390984,0.952566 0.192351,-0.967028 c 0.134409,-0.675707 0.406358,-0.997554 0.902751,-1.068357 z" /><path
       style="fill:#ffffff;fill-opacity:1;stroke-width:1.14216"
       d="m 77.687416,51.493434 c 0.294985,-0.477309 -0.139823,-1.608828 -0.618228,-1.608828 -0.226513,0 -0.662498,0.276972 -0.968848,0.615493 -0.528489,0.583973 -0.526924,0.632996 0.03061,0.957227 0.749737,0.435999 1.301388,0.448797 1.556444,0.0361 z"
       id="path56" /><path
       style="fill:#ffffff;fill-opacity:1;stroke-width:1.14216"
       d="m 60.10981,55.283847 c 1.324231,-0.677388 2.273639,-1.642317 1.930797,-1.962357 -0.08235,-0.07689 -0.729988,-0.235213 -1.439143,-0.351818 -1.138334,-0.187175 -1.327133,-0.125578 -1.611713,0.525847 -0.652013,1.492472 -2.702841,1.859935 -3.869465,0.693317 -0.436671,-0.436675 -0.414558,-0.548698 0.207861,-1.052698 1.069576,-0.866088 0.607972,-1.9509 -1.277539,-3.002346 -0.866968,-0.483458 -1.669655,-0.785654 -1.783768,-0.671548 -0.415449,0.415449 -0.177983,2.551341 0.433415,3.898433 1.121178,2.470257 4.583349,3.368873 7.409555,1.92317 z"
       id="path55" /><path
       style="fill:#ffffff;fill-opacity:1;stroke-width:1.14216"
       d="m 83.85269,62.107341 c 0.59711,-0.369036 1.085657,-0.731672 1.085657,-0.805856 0,-0.07418 -1.704388,-0.119841 -3.787527,-0.101458 l -3.787526,0.03343 2.256404,0.744283 c 2.841191,0.937182 2.922284,0.939664 4.232992,0.129605 z"
       id="path53" /><path
       style="fill:#ffffff;fill-opacity:1;stroke-width:1.14216"
       d="m 56.249836,69.862513 c 0.797798,-0.174786 2.683504,-0.430141 4.190457,-0.567456 l 2.739915,-0.249664 -2.736134,-1.07194 c -2.170537,-0.850352 -3.057355,-1.041077 -4.29002,-0.922634 -1.906858,0.183225 -2.5158,0.667944 -1.7727,1.411051 0.480393,0.480391 0.453917,0.583795 -0.336149,1.312799 l -0.857624,0.791336 0.80585,-0.19285 c 0.443227,-0.106072 1.458606,-0.335858 2.256405,-0.510642 z"
       id="path51" /></g></svg>
