<?xml version="1.0" encoding="UTF-8" standalone="no"?>
<!-- Created with Inkscape (http://www.inkscape.org/) -->

<svg
   width="105.83334mm"
   height="105.83334mm"
   viewBox="0 0 105.83333 105.83333"
   version="1.1"
   id="svg1"
   xml:space="preserve"
   inkscape:version="1.4 (e7c3feb100, 2024-10-09)"
   sodipodi:docname="NBL.svg"
   xmlns:inkscape="http://www.inkscape.org/namespaces/inkscape"
   xmlns:sodipodi="http://sodipodi.sourceforge.net/DTD/sodipodi-0.dtd"
   xmlns="http://www.w3.org/2000/svg"
   xmlns:svg="http://www.w3.org/2000/svg"><sodipodi:namedview
     id="namedview1"
     pagecolor="#ffffff"
     bordercolor="#000000"
     borderopacity="0.25"
     inkscape:showpageshadow="2"
     inkscape:pageopacity="0.0"
     inkscape:pagecheckerboard="0"
     inkscape:deskcolor="#d1d1d1"
     inkscape:document-units="mm"
     inkscape:zoom="1.6952882"
     inkscape:cx="221.49626"
     inkscape:cy="320.88939"
     inkscape:window-width="1920"
     inkscape:window-height="1011"
     inkscape:window-x="0"
     inkscape:window-y="32"
     inkscape:window-maximized="1"
     inkscape:current-layer="layer1"
     showgrid="false" /><defs
     id="defs1" /><g
     inkscape:label="Capa 1"
     inkscape:groupmode="layer"
     id="layer1"><rect
       style="fill:#0000ff;fill-rule:evenodd;stroke-width:0.264583"
       id="rect1"
       width="106.51078"
       height="106.19284"
       x="-0.31794262"
       y="-0.31794262"
       ry="0.034357686" /><path
       style="fill:#ffffff;stroke-width:0.781282"
       d="M 37.4654,103.05578 C 35.058926,102.115 33.130401,99.941511 32.461186,97.415933 32.144665,96.221423 32.122117,92.634228 32.178221,52.397937 l 0.06094,-43.7200626 0.65627,-1.389612 c 1.187447,-2.5143481 3.491136,-4.271772 6.175872,-4.7114081 1.449929,-0.2374309 14.769495,-0.2771638 14.769495,-0.044056 0,0.087839 -0.312817,0.3281698 -0.695149,0.5340689 -0.98556,0.5307593 -1.564775,1.6902477 -1.773325,3.5498923 -0.09687,0.8638059 -0.208989,1.5879107 -0.24915,1.6091217 -0.730563,0.3858613 -0.910743,0.5856735 -0.968435,1.0739561 -0.0958,0.8107837 0.134389,1.8949087 0.47456,2.2350797 0.227461,0.227461 0.248126,0.591241 0.100413,1.767635 -0.102294,0.814677 -0.282435,1.66144 -0.400313,1.881696 -0.242195,0.452548 -1.385624,0.829113 -2.522793,0.830831 -0.419638,6.34e-4 -0.812935,0.08198 -0.873993,0.180779 -0.06106,0.09879 -0.840229,0.243234 -1.731489,0.320982 -1.940325,0.169256 -3.346667,0.774747 -4.421331,1.903575 -1.001377,1.051846 -2.907704,4.307198 -3.603178,6.152984 -0.304317,0.80766 -1.041309,2.53822 -1.637763,3.845688 -1.765706,3.870545 -2.306954,5.187074 -2.78799,6.781486 -0.433111,1.435566 -0.439143,1.553497 -0.121927,2.384124 0.183547,0.480618 0.333725,1.03353 0.333725,1.228692 0,0.195161 0.186047,0.540881 0.413431,0.768267 0.339928,0.33993 0.689044,0.413428 1.963784,0.413428 1.435043,0 1.550353,0.03215 1.550353,0.432248 0,0.237735 -0.329006,0.816622 -0.731132,1.286414 -0.840144,0.98152 -1.232754,2.186758 -1.540571,4.729296 -0.352671,2.912971 -0.0368,4.216507 2.019177,8.332111 0.738335,1.478006 1.552306,3.245413 1.808817,3.92757 0.25651,0.682157 0.592662,1.257347 0.747009,1.278199 1.804625,0.243807 1.674507,0.136289 3.146853,2.600289 1.902982,3.184676 4.650418,7.068638 6.482928,9.164708 2.01555,2.305434 6.985317,6.835419 9.168944,8.357567 2.349733,1.637943 2.354505,1.642935 2.858963,2.991217 0.340772,0.910796 0.38802,1.250372 0.204709,1.471248 -0.355096,0.427862 -0.08813,1.372713 0.833967,2.951559 1.211404,2.074203 1.724641,3.497512 1.582572,4.388775 -0.09168,0.575133 -0.01699,0.8797 0.32112,1.309538 0.427424,0.543382 0.432998,0.629042 0.186668,2.868072 -0.516499,4.694715 -0.511935,5.303085 0.04794,6.390565 l 0.505515,0.9819 -13.04656,-0.01 c -12.175689,-0.009 -13.111654,-0.0351 -14.021762,-0.39091 z m 30.444847,-0.61808 c 0.957964,-1.19205 1.041566,-2.791472 0.276307,-5.28613 -0.313887,-1.023237 -0.594418,-2.279023 -0.623402,-2.790646 -0.02899,-0.511615 -0.188386,-1.255786 -0.354226,-1.653709 -0.16584,-0.39793 -0.4194,-1.564541 -0.563467,-2.592474 -0.244013,-1.741056 -0.229969,-2.005426 0.205217,-3.862963 0.54898,-2.343245 0.483995,-2.68865 -0.903212,-4.800714 -0.934767,-1.423207 -1.282929,-2.738397 -1.785092,-6.743225 -0.399572,-3.186644 -1.04624,-5.117025 -2.462064,-7.349547 -1.368795,-2.158365 -1.80416,-3.646013 -2.27049,-7.758294 -0.240569,-2.121432 -0.703368,-4.912075 -1.028442,-6.201427 -0.352965,-1.399973 -0.516225,-2.42338 -0.405304,-2.540655 0.30573,-0.323239 0.234344,-0.691619 -0.96166,-4.962556 -1.23989,-4.427654 -1.646335,-5.422088 -2.486101,-6.082648 -0.52597,-0.413728 -0.535995,-0.461434 -0.297323,-1.414861 0.135851,-0.542683 0.727032,-2.098 1.313735,-3.456259 1.060323,-2.454722 1.074731,-2.474907 2.397642,-3.359106 0.732,-0.489249 1.39349,-0.889545 1.469977,-0.889545 0.07649,0 0.345888,1.139513 0.59867,2.53225 1.01658,5.600988 1.384082,6.906205 2.569627,9.12629 1.336787,2.503301 2.24742,4.671886 1.961821,4.671886 -0.112884,0 -0.713571,0.248903 -1.334857,0.553117 -1.397859,0.684465 -2.841199,2.197411 -3.528492,3.698654 -0.469443,1.025397 -0.513981,1.346518 -0.450648,3.249148 0.05651,1.697668 0.164631,2.302873 0.551888,3.089185 0.713816,1.449373 2.110709,2.886299 3.477986,3.577656 1.109645,0.561086 1.385412,0.611006 3.37876,0.611629 1.920092,6.01e-4 2.30609,-0.06288 3.345781,-0.550248 1.24595,-0.584054 2.817707,-2.055838 3.351733,-3.138542 0.293108,-0.594256 0.321633,1.002061 0.324502,18.159466 0.002,11.949247 -0.07461,19.290214 -0.210031,20.124748 -0.424887,2.618483 -2.369527,5.30853 -4.58223,6.33865 -1.526453,0.71065 -1.736402,0.64634 -0.976605,-0.29913 z m 5.116024,-52.547639 c -0.357964,-0.731083 -0.759415,-1.22783 -1.128007,-1.395772 -0.314741,-0.143405 -0.69522,-0.436293 -0.84551,-0.650863 -0.150291,-0.214569 -0.597023,-0.450866 -0.99274,-0.525102 -0.802236,-0.150501 -0.798638,-0.142148 -1.11917,-2.597874 -0.237176,-1.817104 -0.592008,-2.96134 -1.593558,-5.138796 -0.868073,-1.887266 -1.930474,-6.945394 -1.930474,-9.191052 0,-0.836947 -0.131132,-2.204308 -0.291404,-3.038583 -0.613139,-3.191616 -1.647462,-4.876104 -4.025987,-6.556679 -0.743308,-0.525193 -1.587573,-1.20023 -1.876146,-1.500083 -0.288572,-0.299852 -1.05955,-0.843605 -1.713284,-1.20834 -0.653734,-0.364733 -1.188606,-0.776401 -1.188606,-0.914817 0,-0.138415 0.287738,-0.524876 0.639418,-0.858803 0.35168,-0.333926 0.853547,-1.025735 1.115261,-1.537353 0.261713,-0.511617 0.759675,-1.226473 1.106581,-1.588568 0.953489,-0.995236 1.581759,-2.334886 1.303771,-2.780013 C 60.314769,10.13251 60.354234,9.8343774 60.652126,9.1555191 61.177992,7.9571384 61.358234,6.8723867 61.184961,5.9487588 61.075986,5.3678732 60.70926,4.8655009 59.663277,3.8642276 l -1.378107,-1.3192012 4.651071,0.069065 c 4.640042,0.068901 4.653937,0.070472 5.860117,0.6627359 2.396507,1.1767367 4.217999,3.6478408 4.675946,6.3435645 0.155926,0.9178582 0.208084,7.5542172 0.167943,21.3680192 l -0.05822,20.036683 z"
       id="path1"
       sodipodi:nodetypes="csccsssssssssssssssssssssssssssssssssssssccccssssssssssssssssssssssssssssscsssssssssssssssssssssscsssscs" /><text
       xml:space="preserve"
       style="font-size:7.6367px;line-height:0.9;font-family:'The Augusta';-inkscape-font-specification:'The Augusta';text-align:start;writing-mode:lr-tb;direction:ltr;text-anchor:start;fill:#ff0000;stroke-width:0.53956"
       x="36.625504"
       y="101.74165"
       id="text1"><tspan
         sodipodi:role="line"
         id="tspan1"
         style="font-style:normal;font-variant:normal;font-weight:normal;font-stretch:normal;font-family:Sportsball;-inkscape-font-specification:Sportsball;fill:#ff0000;stroke-width:0.53956"
         x="36.625504"
         y="101.74165">NBL</tspan></text><path
       sodipodi:type="star"
       style="fill:#ff0000;stroke-width:0.997"
       id="path2"
       inkscape:flatsided="false"
       sodipodi:sides="5"
       sodipodi:cx="-115.73112"
       sodipodi:cy="4.4511967"
       sodipodi:r1="7.584115"
       sodipodi:r2="3.7920575"
       sodipodi:arg1="1.0471976"
       sodipodi:arg2="1.6755161"
       inkscape:rounded="0"
       inkscape:randomized="0"
       d="m -111.93906,11.019233 -4.18844,-2.7967521 -4.67838,1.8648111 1.36557,-4.8476823 -3.21924,-3.8731509 5.0324,-0.1992803 2.68879,-4.2585502 1.74462,4.7245205 4.88101,1.2412221 -3.95417,3.1191946 z"
       inkscape:transform-center-x="-0.14371104"
       inkscape:transform-center-y="-0.28584127"
       transform="matrix(0.58662238,0,0,0.58662238,116.44607,85.415982)" /></g></svg>
