<?xml version="1.0" encoding="UTF-8" standalone="no"?>
<!-- Created with Inkscape (http://www.inkscape.org/) -->

<svg
   width="105.83334mm"
   height="105.83334mm"
   viewBox="0 0 105.83333 105.83333"
   version="1.1"
   id="svg1"
   xml:space="preserve"
   inkscape:version="1.4 (e7c3feb100, 2024-10-09)"
   sodipodi:docname="NBL.svg"
   xmlns:inkscape="http://www.inkscape.org/namespaces/inkscape"
   xmlns:sodipodi="http://sodipodi.sourceforge.net/DTD/sodipodi-0.dtd"
   xmlns="http://www.w3.org/2000/svg"
   xmlns:svg="http://www.w3.org/2000/svg"><sodipodi:namedview
     id="namedview1"
     pagecolor="#ffffff"
     bordercolor="#000000"
     borderopacity="0.25"
     inkscape:showpageshadow="2"
     inkscape:pageopacity="0.0"
     inkscape:pagecheckerboard="0"
     inkscape:deskcolor="#d1d1d1"
     inkscape:document-units="mm"
     inkscape:zoom="1.6952882"
     inkscape:cx="221.49626"
     inkscape:cy="226.51016"
     inkscape:window-width="1920"
     inkscape:window-height="1011"
     inkscape:window-x="0"
     inkscape:window-y="32"
     inkscape:window-maximized="1"
     inkscape:current-layer="layer1"
     showgrid="false" /><defs
     id="defs1" /><g
     inkscape:label="Capa 1"
     inkscape:groupmode="layer"
     id="layer1"><rect
       style="fill:#b9975b;fill-opacity:1;fill-rule:evenodd;stroke-width:0.39761"
       id="rect1"
       width="89.815903"
       height="102.89173"
       x="8.0087204"
       y="1.4708061"
       ry="13.973755" /><rect
       style="fill:#ffffff;fill-rule:evenodd;stroke-width:0.278055"
       id="rect2"
       width="76.162071"
       height="97.387573"
       x="15.138773"
       y="4.8381639"
       ry="14.426363" /><path
       style="fill:#ff0000;stroke-width:0.546073"
       d="M 22.458981,101.64818 C 19.224921,101.22527 16.29555,99.00296 14.944122,95.947141 14.099728,94.037821 14.1448,96.6307 14.188165,52.458193 l 0.03971,-40.454929 0.39578,-1.167177 c 1.04786,-3.0902298 3.486777,-5.4103769 6.683834,-6.3583632 0.790779,-0.2344819 1.846821,-0.261788 12.028114,-0.3110104 9.757945,-0.047176 11.161226,-0.027204 11.161226,0.1588487 0,0.1560342 -0.174223,0.2128072 -0.65305,0.2128072 -1.250765,0 -2.618587,1.1487304 -3.039344,2.5525177 -0.690831,2.3048405 -0.266942,5.542543 1.163056,8.883515 l 0.499639,1.167337 -0.321608,0.125654 c -0.176886,0.06906 -1.069302,0.401146 -1.98315,0.737836 -0.913849,0.3367 -1.986626,0.755863 -2.383951,0.931465 -0.397326,0.175615 -0.896659,0.361718 -1.109631,0.413556 -0.481323,0.117176 -0.840876,0.464441 -0.840876,0.812154 0,0.197637 -0.182013,0.307898 -0.722242,0.437496 -1.458561,0.349895 -3.248562,1.877726 -4.827905,4.120764 -0.390501,0.554611 -1.238648,1.691056 -1.884768,2.525437 -0.646118,0.834391 -1.473489,1.939669 -1.838599,2.456193 -0.365113,0.516525 -1.068972,1.394257 -1.564135,1.950511 -1.944021,2.183866 -2.917322,4.361891 -4.116251,9.211215 -0.32565,1.317168 -1.648764,5.637626 -1.957761,6.392827 -0.208074,0.508541 -0.683291,2.00824 -0.778304,2.456183 -0.05056,0.2384 -0.283452,1.023222 -0.517526,1.744047 l -0.425589,1.310602 0.277118,1.651276 c 0.290842,1.733056 0.784302,2.985532 1.521387,3.861505 0.302573,0.359586 0.50291,0.462694 0.899016,0.462694 0.453135,0 0.501865,-0.03615 0.439184,-0.325081 -0.03878,-0.178802 -0.120695,-0.44501 -0.182026,-0.591589 -0.09696,-0.231726 -0.04754,-0.261978 0.378745,-0.231842 1.323742,0.09359 1.556708,0.02441 1.788664,-0.530671 0.338176,-0.809373 0.281576,-1.028009 -0.349462,-1.349935 -0.671268,-0.342456 -0.835296,-0.552436 -0.524648,-0.671652 0.238402,-0.09147 0.317145,-0.489204 0.09685,-0.489204 -0.278856,0 -0.25841,-0.420388 0.07061,-1.45169 0.403443,-1.264595 0.455343,-2.769924 0.132224,-3.835058 -0.118342,-0.390083 -0.215863,-0.860518 -0.216723,-1.045395 -0.0029,-0.611266 1.050837,-2.80027 2.863473,-5.948817 2.190256,-3.804476 4.213855,-7.458556 4.216655,-7.614176 0.0011,-0.06364 0.320134,-0.29098 0.708861,-0.50532 0.388729,-0.214352 1.529364,-1.059572 2.534745,-1.878271 1.005383,-0.8187 2.028726,-1.650479 2.274097,-1.848402 l 0.446128,-0.359853 -0.109707,1.515711 c -0.17733,2.450053 -0.209401,5.356194 -0.06855,6.211369 0.07199,0.437059 0.228801,1.737395 0.348482,2.889639 0.119675,1.152243 0.352557,3.102754 0.517506,4.334455 0.196775,1.469372 0.30038,3.034415 0.301294,4.55118 0.0018,3.066982 0.123625,3.360552 2.024535,4.88042 1.868596,1.49403 2.053408,1.713242 2.026359,2.403504 -0.01971,0.502763 0.03535,0.60421 0.475652,0.876324 0.779213,0.481584 1.728783,1.631164 2.75704,3.337785 0.519757,0.862647 1.278214,1.933028 1.685459,2.378614 l 0.740445,0.810161 -0.180725,0.705156 c -0.0994,0.387843 -0.141225,0.829613 -0.09296,0.981734 0.07747,0.244092 -0.06111,0.313292 -1.18024,0.589383 -0.697411,0.172054 -2.110496,0.546456 -3.14019,0.832002 -1.664301,0.461555 -1.993164,0.509159 -2.96188,0.428818 -0.954973,-0.0792 -1.321939,-0.204937 -2.967971,-1.016953 -1.033046,-0.509617 -2.166216,-1.003119 -2.51816,-1.096677 -0.847922,-0.225383 -1.783264,-0.07047 -2.324551,0.384987 -0.551972,0.464465 -0.692217,0.729716 -0.863585,1.633328 -0.180682,0.952741 0.006,1.918029 0.671827,3.471452 0.750342,1.750933 0.912934,2.481767 0.916113,4.117727 0.0014,0.794651 0.06871,1.86743 0.149252,2.383955 0.392168,2.514906 2.560254,4.975726 4.155724,4.716818 1.020273,-0.165573 1.053155,-0.346868 0.596174,-3.287045 -0.65319,-4.202574 -0.04815,-6.085364 2.311072,-7.19173 0.688246,-0.322758 0.998695,-0.377644 2.107482,-0.37257 0.715186,0.0031 1.787964,0.05469 2.383951,0.114365 0.595987,0.05959 2.377513,0.198264 3.958946,0.308089 2.494059,0.173195 2.929138,0.239454 3.281111,0.499683 0.585364,0.432785 1.919775,0.402469 3.234881,-0.07345 0.556253,-0.201304 1.191607,-0.361024 1.411896,-0.354937 0.610738,0.01684 1.70296,0.892143 2.639993,2.115516 0.464173,0.606023 1.088177,1.263477 1.386677,1.461008 0.362453,0.239868 0.803536,0.798327 1.327921,1.681282 0.431856,0.727167 1.123038,1.892405 1.535959,2.589416 2.088315,3.525028 3.505426,4.873214 7.151156,6.803333 3.208398,1.698593 6.500173,4.802902 7.884836,7.435821 0.547159,1.040415 1.610926,2.286975 3.07518,3.603597 0.960302,0.863492 2.247386,2.399502 2.268055,2.706732 0.0054,0.0794 0.202129,0.36958 0.437295,0.64469 0.235166,0.27514 0.427575,0.55146 0.427575,0.61406 0,0.14849 -58.751216,0.11243 -59.892104,-0.0367 z m 61.554222,-0.34816 c 0.384845,-0.19481 0.769712,-0.31444 0.85526,-0.26579 0.08555,0.0485 0.10625,0.0341 0.04605,-0.0322 -0.06024,-0.0664 0.06806,-0.23714 0.285114,-0.37952 0.659389,-0.43256 2.339598,-2.17108 2.711392,-2.805487 l 0.349804,-0.596898 -0.320105,-0.780923 c -0.176058,-0.4295 -0.372181,-0.862829 -0.435832,-0.962952 -0.06365,-0.100091 -1.278237,-0.954299 -2.699091,-1.898193 -1.420856,-0.943886 -2.53816,-1.766379 -2.482903,-1.827756 0.05527,-0.0614 0.0266,-0.0694 -0.06371,-0.0178 -0.0903,0.05159 -0.596066,-0.102 -1.123924,-0.341379 -0.527856,-0.239338 -1.266681,-0.476319 -1.641833,-0.52661 -0.495486,-0.06641 -0.899507,-0.259525 -1.476754,-0.705804 -1.187578,-0.918132 -2.221403,-2.025649 -2.089734,-2.238689 0.07098,-0.114849 0.0527,-0.144222 -0.05013,-0.08069 -0.151126,0.09337 -1.295782,-1.330353 -1.985798,-2.469998 -0.154567,-0.255283 -0.937797,-1.490608 -1.740515,-2.745151 -0.802716,-1.254554 -1.740623,-2.768633 -2.084236,-3.364624 -0.343615,-0.595981 -0.776788,-1.250662 -0.96261,-1.454833 -0.185822,-0.204172 -0.288185,-0.425899 -0.227474,-0.492734 0.06072,-0.06682 0.02966,-0.07504 -0.06901,-0.01833 -0.229557,0.13204 -1.361222,-0.764355 -1.237973,-0.980606 0.05011,-0.08795 0.03983,-0.113591 -0.02283,-0.05703 -0.06268,0.0566 -0.389992,-0.123363 -0.727367,-0.399816 -0.411528,-0.33721 -1.054097,-1.226965 -1.952424,-2.703503 -2.336187,-3.839854 -4.510504,-7.235167 -5.080725,-7.93382 -0.303493,-0.371844 -0.551806,-0.719013 -0.551806,-0.771488 0,-0.05244 -0.137734,-0.206933 -0.306075,-0.343246 -0.213101,-0.172555 -0.323497,-0.456971 -0.363427,-0.936283 -0.03153,-0.378634 -0.183598,-0.93591 -0.337903,-1.238362 -0.154302,-0.302462 -0.234574,-0.600916 -0.17838,-0.663221 0.0562,-0.06236 0.02601,-0.06971 -0.0671,-0.01641 -0.169308,0.0969 -0.242385,-0.01652 -1.05582,-1.639893 -0.871731,-1.739675 -1.617609,-4.848463 -1.611918,-6.718409 0.0033,-1.09416 0.375334,-2.769324 0.898382,-4.045497 0.0977,-0.238387 0.18595,-0.498457 0.196092,-0.577923 0.01006,-0.07941 0.138694,-0.657944 0.285677,-1.28552 0.336888,-1.438417 0.27069,-2.360471 -0.4123,-5.742886 -0.283141,-1.402208 -0.514167,-2.637532 -0.513391,-2.745162 7.66e-4,-0.107628 0.15323,0.129408 0.338787,0.526728 0.664517,1.422907 1.593803,2.190857 4.283222,3.539577 0.834383,0.418437 1.863968,0.982524 2.287964,1.25352 0.423997,0.271006 1.014143,0.590054 1.311432,0.709014 0.297292,0.118943 1.445773,0.69391 2.552179,1.277673 1.899823,1.002394 3.842708,2.015447 3.929054,2.048672 0.02152,0.0084 -0.211284,0.280951 -0.517359,0.605947 -1.71489,1.820859 -2.35527,5.038927 -1.467607,7.375063 0.530346,1.39576 1.739955,3.050598 2.523756,3.452683 0.238395,0.122291 0.471553,0.281154 0.51813,0.353019 0.04657,0.07183 0.631728,0.320626 1.300335,0.552799 2.235834,0.776413 4.736461,0.517421 6.56148,-0.679583 1.259998,-0.826416 2.341001,-2.246682 2.951073,-3.877257 0.34252,-0.915455 0.409512,-2.827249 0.136994,-3.909514 -0.138042,-0.548217 -0.127066,-0.685894 0.07224,-0.90613 0.36078,-0.398652 0.282107,-0.797592 -0.243761,-1.236059 -0.389929,-0.325113 -0.467062,-0.478993 -0.41566,-0.829229 0.05368,-0.365567 -0.04243,-0.528326 -0.640959,-1.0857 -0.387243,-0.36063 -0.884999,-0.749241 -1.106126,-0.863586 -0.221128,-0.114351 -0.364035,-0.269416 -0.317581,-0.344587 0.04811,-0.07782 -0.02227,-0.09573 -0.163455,-0.04157 -0.137196,0.05267 -0.211243,0.03581 -0.165784,-0.03774 0.04516,-0.07312 -0.05793,-0.137901 -0.229142,-0.143997 -0.700174,-0.02494 -2.48295,-0.495996 -2.62019,-0.69231 -0.081,-0.115896 -0.21305,-0.320062 -0.293419,-0.453721 -0.121114,-0.201399 -0.467456,-0.254953 -2.022749,-0.312747 -1.34461,-0.04999 -2.009733,-0.137283 -2.34618,-0.308038 -0.258261,-0.13108 -0.469566,-0.288551 -0.469566,-0.349939 0,-0.0614 -0.07558,-0.111631 -0.167954,-0.111631 -0.310754,0 -1.565742,-0.894627 -1.470703,-1.048399 0.05412,-0.08762 0.02504,-0.109486 -0.06856,-0.0516 -0.153609,0.09498 -1.871687,-1.069088 -4.402491,-2.982748 -0.618795,-0.467908 -1.925004,-1.623948 -2.902686,-2.568983 l -1.777611,-1.718214 -0.178968,-1.269179 c -0.09843,-0.698045 -0.190086,-1.410044 -0.203675,-1.582225 -0.01359,-0.172171 -0.0533,-0.284437 -0.08826,-0.249484 -0.03496,0.03496 -0.213753,-0.335965 -0.397325,-0.824275 -0.295937,-0.787221 -0.333767,-1.140592 -0.333767,-3.117985 0,-1.226574 -0.07342,-2.535257 -0.16315,-2.908166 -0.18335,-0.761863 -0.964905,-2.457356 -1.871758,-4.060495 -0.587122,-1.037911 -0.60146,-1.094054 -0.467783,-1.831549 l 0.137903,-0.76082 -1.020969,-0.580267 c -1.382973,-0.786026 -3.04422,-1.53723 -4.038974,-1.82641 -0.452327,-0.131494 -0.998584,-0.39068 -1.213903,-0.575961 -0.371596,-0.319753 -0.381564,-0.361366 -0.196136,-0.818817 0.107445,-0.265069 0.288398,-0.839539 0.402115,-1.276597 0.278373,-1.069879 0.270919,-4.4275435 -0.01216,-5.4786925 C 50.96218,8.0443574 50.907247,7.6217428 50.956084,7.535891 51.004924,7.4499755 50.9912,7.4284597 50.925578,7.4879241 50.859956,7.5474285 50.628498,7.2873716 50.411227,6.910016 50.193954,6.5326605 49.830858,6.0525882 49.604346,5.8431876 48.994341,5.2792632 47.205235,4.4093148 46.427106,4.2982636 c -0.612992,-0.087486 17.361138,-0.081356 33.829,0.011543 l 6.357204,0.035859 0.97847,0.4619652 c 1.139802,0.5381321 2.450287,1.7926962 2.974217,2.8473107 0.77326,1.556493 0.732289,-0.9561956 0.737826,45.2470145 0.0048,38.909924 -0.01638,42.984683 -0.225194,43.597514 -0.126688,0.371814 -0.288487,0.640091 -0.359553,0.596164 -0.07105,-0.04391 -0.09512,0.0084 -0.05346,0.117517 0.164865,0.429629 -2.220022,2.802699 -2.651109,2.637969 -0.103458,-0.0396 -0.147221,-0.005 -0.09726,0.0752 0.05122,0.0828 -0.434161,0.39224 -1.112232,0.70899 -1.779538,0.83129 -4.311684,1.43418 -2.791803,0.66471 z M 70.710025,47.90701 c 0,-0.14934 0.07745,-0.226407 0.18576,-0.184845 0.102174,0.03923 0.185764,0.122383 0.185764,0.184845 0,0.06246 -0.08359,0.145652 -0.185764,0.184857 -0.108308,0.04157 -0.18576,-0.03551 -0.18576,-0.184857 z"
       id="path1"
       sodipodi:nodetypes="csscsssssssccsscsssssssssscsssssscscssscscssscsssscssssscssscssccscccsssccssscssssssscsscccccsscssssscssssssssscssssssssscsscscssssssssccssssssssscssscsssscsssscsscssssscsscssssssccsssscsscsscscsccscsss" /><text
       xml:space="preserve"
       style="font-size:13.8438px;line-height:1;font-family:Sportsball;-inkscape-font-specification:Sportsball;text-align:center;letter-spacing:0px;writing-mode:lr-tb;direction:ltr;text-anchor:middle;fill:#0000ff;stroke-width:0.739;stroke:#ffffff;stroke-dasharray:none"
       x="46.077637"
       y="99.054619"
       id="text1"><tspan
         sodipodi:role="line"
         id="tspan1"
         x="46.077637"
         y="99.054619"
         style="stroke-width:0.739;fill:#0000ff;stroke:#ffffff;stroke-dasharray:none">NBL</tspan></text></g></svg>
