<?xml version="1.0" encoding="UTF-8" standalone="no"?>
<!-- Created with Inkscape (http://www.inkscape.org/) -->

<svg
   width="105.83334mm"
   height="105.83334mm"
   viewBox="0 0 105.83333 105.83333"
   version="1.1"
   id="svg1"
   xml:space="preserve"
   inkscape:version="1.4 (e7c3feb100, 2024-10-09)"
   sodipodi:docname="new_york.svg"
   xmlns:inkscape="http://www.inkscape.org/namespaces/inkscape"
   xmlns:sodipodi="http://sodipodi.sourceforge.net/DTD/sodipodi-0.dtd"
   xmlns="http://www.w3.org/2000/svg"
   xmlns:svg="http://www.w3.org/2000/svg"><sodipodi:namedview
     id="namedview1"
     pagecolor="#ffffff"
     bordercolor="#000000"
     borderopacity="0.25"
     inkscape:showpageshadow="2"
     inkscape:pageopacity="0.0"
     inkscape:pagecheckerboard="0"
     inkscape:deskcolor="#d1d1d1"
     inkscape:document-units="mm"
     inkscape:zoom="1.1140092"
     inkscape:cx="317.77116"
     inkscape:cy="145.4207"
     inkscape:window-width="1920"
     inkscape:window-height="1011"
     inkscape:window-x="0"
     inkscape:window-y="32"
     inkscape:window-maximized="1"
     inkscape:current-layer="layer1"
     showgrid="false" /><defs
     id="defs1" /><g
     inkscape:label="Capa 1"
     inkscape:groupmode="layer"
     id="layer1"><text
       xml:space="preserve"
       style="font-weight:bold;font-size:63.5059px;line-height:0.9;font-family:'DejaVu Serif';-inkscape-font-specification:'DejaVu Serif Bold';text-align:start;writing-mode:lr-tb;direction:ltr;text-anchor:start;fill:#ff6600;stroke:#0000ff;stroke-width:1.63748;stroke-dasharray:none"
       x="0.41835383"
       y="88.564072"
       id="text1"><tspan
         sodipodi:role="line"
         id="tspan1"
         style="fill:#ff6600;stroke:#0000ff;stroke-width:1.63748;stroke-dasharray:none"
         x="0.41835383"
         y="88.564072">NY</tspan></text><path
       style="font-size:5.51246px;line-height:0.9;font-family:Sportsball;-inkscape-font-specification:Sportsball;fill:#ff6600;stroke:#0000ff;stroke-width:0.9524;stroke-dasharray:none"
       d="M 3.1946772,102.10325 V 92.015656 h 3.5452433 v 8.070574 h 5.3200285 v 2.01702 z m 10.1941968,0 v -2.01702 h 2.65785 v -6.051082 h -2.65785 v -2.019492 h 8.865272 v 2.019492 h -2.660014 v 6.051082 h 2.660014 v 2.01702 z m 15.51206,-2.01702 v -2.017025 h -1.772621 v 2.017025 z m 0,-4.034053 v -2.017029 h -1.772621 v 2.017029 z m -5.317863,6.051073 V 92.015656 h 7.090485 l 1.774787,2.019492 v 2.017029 h -0.0087 l -0.878737,1.007283 0.887394,1.009745 v 2.017025 l -1.774785,2.01702 z m 10.194197,0 V 92.015656 h 8.865271 v 2.019492 H 37.32251 v 2.017029 h 5.320029 v 2.017028 H 37.32251 v 2.017025 h 5.320029 v 2.01702 z m 15.512059,-4.034045 v -4.034057 h -1.77262 v 4.034057 z m -5.317863,4.034045 V 92.015656 h 7.090487 l 1.774785,2.019492 v 4.034057 h -0.0087 l -0.878736,1.009745 0.887395,1.00728 v 2.01702 h -3.547391 v -2.01702 h -1.77262 v 2.01702 z m 12.852048,0 v -8.068102 h -2.657853 v -2.019492 h 8.865274 v 2.019492 h -2.660015 v 8.068102 z m 7.536345,0 v -2.01702 h 2.657852 v -6.051082 h -2.657852 v -2.019492 h 8.865273 v 2.019492 h -2.660015 v 6.051082 h 2.660015 v 2.01702 z m 10.194196,0 V 92.015656 h 8.865273 v 2.019492 h -5.32003 v 2.017029 h 5.32003 v 2.017028 h -5.32003 v 2.017025 h 5.32003 v 2.01702 z m 10.194198,0 v -2.01702 h 5.317864 v -2.017025 h -3.545244 l -1.77262,-2.017028 v -2.017029 l 1.77262,-2.019492 h 7.09265 v 2.019492 h -5.320027 v 2.017029 h 3.545244 l 1.774783,2.017028 v 2.017025 l -1.774783,2.01702 z"
       id="text2"
       aria-label="LIBERTIES" /><path
       style="fill:#ff6600;stroke-width:2.50049"
       d="m 80.555824,39.715837 c -2.962502,-0.948199 -5.767251,-3.135818 -7.05015,-5.498929 -1.37852,-2.539223 -1.967736,-6.627606 -1.314357,-9.119858 0.717916,-2.73846 1.987236,-4.614632 5.483821,-8.105572 3.162691,-3.157607 3.989852,-4.258847 4.58682,-6.106662 0.38455,-1.1903851 0.509374,-2.0490252 0.510999,-3.5152739 0.002,-1.8149874 -0.04725,-2.0363981 -0.763299,-3.4321029 l -0.765474,-1.4919538 1.193707,0.8116159 c 1.190783,0.8096307 2.614862,2.2143723 3.667742,3.617947 1.802601,2.4030089 2.795745,5.7845567 3.119509,10.6216857 0.235546,3.518709 0.622646,5.227214 1.334834,5.8907 0.605394,0.564025 0.722518,0.543019 1.542128,-0.276587 1.252919,-1.252913 1.583034,-3.989895 0.772274,-6.403088 l -0.422808,-1.258538 0.519302,0.635126 c 3.864705,4.726565 5.455091,10.129324 4.34535,14.761712 -1.091414,4.555801 -3.892635,7.831461 -7.636466,8.929797 -1.555479,0.456338 -1.6629,0.430867 -1.032653,-0.244849 1.111068,-1.191249 1.516372,-2.564664 1.219214,-4.131508 -0.452138,-2.384105 -1.47819,-3.518025 -4.549139,-5.027371 -2.632138,-1.293667 -3.641761,-2.142446 -4.440491,-3.733086 -0.569063,-1.133255 -0.622847,-1.430151 -0.627422,-3.462475 -0.005,-1.925279 0.06076,-2.346162 0.486094,-3.14321 0.270128,-0.506153 0.454314,-0.957087 0.409305,-1.002079 -0.170041,-0.170041 -2.262841,2.831452 -2.989284,4.287228 -1.165953,2.336475 -1.693229,4.654764 -1.555602,6.839616 0.204039,3.237535 1.239017,5.338057 4.044889,8.208491 0.939033,0.960625 1.56653,1.741468 1.394446,1.735206 -0.172032,-0.0062 -0.839562,-0.179959 -1.483289,-0.385982 z"
       id="path2" /></g></svg>
