<?xml version="1.0" encoding="UTF-8" standalone="no"?>
<!-- Created with Inkscape (http://www.inkscape.org/) -->

<svg
   width="105.83334mm"
   height="105.83334mm"
   viewBox="0 0 105.83333 105.83333"
   version="1.1"
   id="svg1"
   xml:space="preserve"
   inkscape:version="1.4 (e7c3feb100, 2024-10-09)"
   sodipodi:docname="new_york.svg"
   xmlns:inkscape="http://www.inkscape.org/namespaces/inkscape"
   xmlns:sodipodi="http://sodipodi.sourceforge.net/DTD/sodipodi-0.dtd"
   xmlns="http://www.w3.org/2000/svg"
   xmlns:svg="http://www.w3.org/2000/svg"><sodipodi:namedview
     id="namedview1"
     pagecolor="#ffffff"
     bordercolor="#000000"
     borderopacity="0.25"
     inkscape:showpageshadow="2"
     inkscape:pageopacity="0.0"
     inkscape:pagecheckerboard="0"
     inkscape:deskcolor="#d1d1d1"
     inkscape:document-units="mm"
     inkscape:zoom="1.1140092"
     inkscape:cx="317.77116"
     inkscape:cy="144.52304"
     inkscape:window-width="1920"
     inkscape:window-height="1011"
     inkscape:window-x="0"
     inkscape:window-y="32"
     inkscape:window-maximized="1"
     inkscape:current-layer="layer1"
     showgrid="false" /><defs
     id="defs1" /><g
     inkscape:label="Capa 1"
     inkscape:groupmode="layer"
     id="layer1"><g
       id="g3"><circle
         style="fill:#ff6600;stroke:#ffffff;stroke-width:1.2775;stroke-dasharray:none;stroke-opacity:1;fill-opacity:1"
         id="path3"
         cx="52.916672"
         cy="52.916672"
         r="51.376194" /><path
         style="font-weight:bold;font-size:63.5059px;line-height:0.9;font-family:'DejaVu Serif';-inkscape-font-specification:'DejaVu Serif Bold';fill:#ffffff;stroke:#0000ff;stroke-width:1.41107"
         d="m 10.52221,73.232637 v -3.233253 h 5.10373 V 36.571294 H 10.52221 V 33.338042 H 23.000962 L 47.076669,61.582239 V 36.571294 h -5.077008 v -3.233252 h 13.948411 v 3.233252 H 50.844344 V 73.232637 H 43.843416 L 19.393614,44.400575 v 25.598809 h 5.077008 v 3.233253 z"
         id="text1" /><path
         style="fill:#ff6600;stroke:#ffffff;stroke-width:1.04619;stroke-dasharray:none;fill-opacity:1"
         d="m 65.043475,42.14945 c -2.801613,-0.896704 -5.454041,-2.965518 -6.667269,-5.200293 -1.303655,-2.401322 -1.860872,-6.267673 -1.242977,-8.624576 0.678927,-2.589739 1.879313,-4.36402 5.186005,-7.665374 2.990932,-2.986123 3.773171,-4.027557 4.337719,-5.77502 0.363666,-1.125738 0.481711,-1.937747 0.483248,-3.324367 0.0018,-1.7164183 -0.04469,-1.9258046 -0.721846,-3.2457114 l -0.723903,-1.4109285 1.128879,0.7675385 c 1.126114,0.7656612 2.472854,2.094114 3.468555,3.4214634 1.704704,2.272506 2.643913,5.470408 2.950094,10.044842 0.222754,3.327615 0.588831,4.943334 1.262342,5.570788 0.572516,0.533393 0.683279,0.513528 1.458377,-0.261567 1.184876,-1.18487 1.497063,-3.773211 0.730334,-6.055348 l -0.399846,-1.190189 0.491099,0.600633 c 3.654821,4.469874 5.158836,9.57922 4.109363,13.960032 -1.032142,4.308383 -3.681234,7.406149 -7.221744,8.444836 -1.471005,0.431556 -1.572592,0.407468 -0.976571,-0.231551 1.050727,-1.126555 1.43402,-2.425382 1.153,-3.907134 -0.427583,-2.254629 -1.397912,-3.326968 -4.302083,-4.754344 -2.489193,-1.22341 -3.443985,-2.026094 -4.199337,-3.53035 -0.538158,-1.07171 -0.589022,-1.352481 -0.593349,-3.274434 -0.0047,-1.820721 0.05746,-2.218746 0.459696,-2.972508 0.255458,-0.478665 0.429641,-0.90511 0.387076,-0.947658 -0.160806,-0.160807 -2.13995,2.677681 -2.826942,4.054397 -1.102632,2.209585 -1.601273,4.401972 -1.471119,6.468169 0.192958,3.061711 1.171728,5.048157 3.825218,7.762703 0.888035,0.908456 1.481454,1.646893 1.318716,1.640971 -0.162689,-0.0058 -0.793966,-0.170186 -1.402735,-0.36502 z"
         id="path2" /><path
         style="font-weight:bold;font-size:63.5059px;line-height:0.9;font-family:'DejaVu Serif';-inkscape-font-specification:'DejaVu Serif Bold';fill:#ffffff;stroke:#0000ff;stroke-width:1.63855"
         d="m 53.445578,92.108711 v -3.754503 h 6.236818 V 72.932822 L 45.905543,49.536996 h -3.940676 v -3.754502 h 22.216726 v 3.754502 H 59.030789 L 69.456515,67.192467 79.820182,49.536996 H 75.19687 v -3.754502 h 13.280387 v 3.754502 h -3.940676 l -12.845982,21.78232 v 17.034892 h 6.236817 v 3.754503 z"
         id="path1" /></g></g></svg>
