<?xml version="1.0" encoding="UTF-8" standalone="no"?>
<!-- Created with Inkscape (http://www.inkscape.org/) -->

<svg
   width="105.83334mm"
   height="105.83334mm"
   viewBox="0 0 105.83333 105.83333"
   version="1.1"
   id="svg1"
   xml:space="preserve"
   inkscape:version="1.4 (e7c3feb100, 2024-10-09)"
   sodipodi:docname="new_jersey.svg"
   inkscape:export-filename="../pngs/boston.png"
   inkscape:export-xdpi="96"
   inkscape:export-ydpi="96"
   xmlns:inkscape="http://www.inkscape.org/namespaces/inkscape"
   xmlns:sodipodi="http://sodipodi.sourceforge.net/DTD/sodipodi-0.dtd"
   xmlns="http://www.w3.org/2000/svg"
   xmlns:svg="http://www.w3.org/2000/svg"><sodipodi:namedview
     id="namedview1"
     pagecolor="#ffffff"
     bordercolor="#000000"
     borderopacity="0.25"
     inkscape:showpageshadow="2"
     inkscape:pageopacity="0.0"
     inkscape:pagecheckerboard="0"
     inkscape:deskcolor="#d1d1d1"
     inkscape:document-units="mm"
     inkscape:zoom="1.1157835"
     inkscape:cx="384.48319"
     inkscape:cy="251.84097"
     inkscape:window-width="1920"
     inkscape:window-height="1011"
     inkscape:window-x="0"
     inkscape:window-y="32"
     inkscape:window-maximized="1"
     inkscape:current-layer="layer2"
     showgrid="false" /><defs
     id="defs1"><inkscape:path-effect
       effect="bspline"
       id="path-effect18"
       is_visible="true"
       lpeversion="1.3"
       weight="33.333333"
       steps="2"
       helper_size="0"
       apply_no_weight="true"
       apply_with_weight="true"
       only_selected="false"
       uniform="false" /><inkscape:path-effect
       effect="bspline"
       id="path-effect17"
       is_visible="true"
       lpeversion="1.3"
       weight="33.333333"
       steps="2"
       helper_size="0"
       apply_no_weight="true"
       apply_with_weight="true"
       only_selected="false"
       uniform="false" /></defs><g
     inkscape:groupmode="layer"
     id="layer2"
     inkscape:label="Capa 2"><text
       xml:space="preserve"
       style="font-size:10.5833px;line-height:1;font-family:Sportsball;-inkscape-font-specification:Sportsball;text-align:center;letter-spacing:1.57692px;writing-mode:lr-tb;direction:ltr;text-anchor:middle;white-space:pre;inline-size:45.3146;display:inline;fill:#808080;stroke:none;stroke-width:2.896"
       x="59.618671"
       y="77.566704"
       id="text1-2"
       transform="translate(120.53306,7.3558763)"><tspan
         x="59.618671"
         y="77.566704"
         id="tspan6"><tspan
           dx="0 6.4647012 5.369164 5.3226562 8.9244938 5.4518428"
           style="font-family:'Ranked Sports';-inkscape-font-specification:'Ranked Sports'"
           id="tspan5">azzmen</tspan></tspan></text><g
       id="g5"
       transform="matrix(0.91341991,0,0,0.91341991,-88.521352,8.730827)"><circle
         style="fill:#ffffff;fill-opacity:1;stroke-width:3.84299"
         id="path4"
         cx="154.84447"
         cy="48.374077"
         r="54.776527" /><g
         id="g4"
         transform="matrix(0.89865708,0,0,0.89865708,104.5311,-2.9465975)"><path
           style="fill:#0d2f6b;fill-opacity:1;stroke-width:0.976311"
           d="m 54.967985,87.868172 c -0.171206,-0.206292 -0.247414,-0.584078 -0.169349,-0.839524 0.220277,-0.720787 1.251972,-9.144443 1.134377,-9.262037 -0.05744,-0.05744 -0.960874,0.255417 -2.007646,0.695225 -2.501175,1.050881 -7.382284,2.274001 -9.840355,2.465817 -2.566922,0.200312 -2.672124,-0.05574 -1.048469,-2.551892 1.531502,-2.354481 2.96523,-4.860534 2.843286,-4.969862 -0.05077,-0.04552 -0.689005,-0.382425 -1.418307,-0.748691 C 42.170726,71.506741 37.860624,68.484469 35.360728,66.27567 29.285076,60.907494 24.420951,53.779754 21.245493,45.591637 L 20.282295,43.107966 18.480447,42.956905 C 11.610062,42.380917 7.0982632,35.225743 9.8354403,29.246961 10.524965,27.74084 11.13977,27.394552 11.440727,28.342783 c 0.09517,0.299852 0.575236,0.990374 1.066815,1.534493 1.053296,1.165872 2.490776,1.689153 5.180049,1.885671 1.58147,0.115565 2.917674,0.529314 4.497887,1.392748 0.0896,0.04897 0.234862,-0.197673 0.322805,-0.548064 0.252207,-1.004873 1.606991,-2.169347 3.816161,-3.280095 2.434211,-1.223898 3.957979,-2.532724 4.357292,-3.742653 0.161017,-0.487883 0.442657,-0.887061 0.62587,-0.887061 0.768485,0 2.590931,3.465108 3.004033,5.711721 0.560697,3.049287 -0.596581,6.000642 -3.440918,8.775225 -1.533528,1.495919 -1.556707,1.539116 -1.097929,2.046061 1.863873,2.059556 8.455091,3.174809 15.368945,2.600468 10.788864,-0.896239 20.997647,-4.035558 32.535612,-10.005082 5.869298,-3.036659 8.182005,-3.804513 11.507056,-3.820512 2.37683,-0.01143 2.681604,0.04544 3.815927,0.712216 1.509456,0.887279 2.310408,2.07601 2.992737,4.44165 0.897841,3.112834 1.156262,5.053049 1.152566,8.653544 -0.0045,4.066348 -0.448333,6.496105 -1.818002,9.945118 -3.589179,9.038001 -11.572602,15.686573 -24.794181,20.648512 -1.855835,0.696478 -1.863411,0.703284 -3.026213,2.719254 -2.314346,4.012393 -5.937796,7.733877 -9.835997,10.102113 -1.825081,1.108776 -2.233919,1.205578 -2.703257,0.640062 z m 5.878054,-6.533193 c 4.574978,-3.69002 8.700912,-14.116112 9.226176,-23.314199 l 0.125406,-2.196032 -0.618832,2.737555 c -2.149342,9.508123 -6.47002,19.22159 -10.351,23.270411 -0.501597,0.52329 -0.911998,1.030686 -0.911998,1.127547 0,0.229283 1.134078,-0.499181 2.530248,-1.625282 z M 56.781552,70.419531 c 0.264707,-3.22523 0.249242,-4.138347 -0.111298,-6.572969 C 56.43997,62.291489 56.163859,60.944036 56.056676,60.852221 55.949494,60.76041 54.583141,60.359906 53.020337,59.962222 48.706135,58.86439 42.287289,56.83892 38.683869,55.438339 36.907955,54.748076 34.576648,53.942633 33.503187,53.648466 32.429725,53.354298 30.520811,52.765241 29.261155,52.339451 28.001498,51.91366 26.93563,51.600525 26.892559,51.643597 c -0.04308,0.04308 0.372718,0.850142 0.923977,1.793485 4.370857,7.479652 12.51623,14.542936 21.230229,18.409855 2.809258,1.246635 7.023855,2.688639 7.250359,2.480677 0.09736,-0.08938 0.315342,-1.848023 0.484428,-3.908083 z m 15.34168,0.880505 1.672094,-0.669382 0.818086,-2.1075 c 0.449952,-1.159127 1.166132,-3.560522 1.591498,-5.336435 0.425378,-1.775915 0.844986,-3.403298 0.932463,-3.616407 0.283295,-0.690115 0.324866,3.051811 0.0698,6.282618 -0.136605,1.730228 -0.226561,3.167967 -0.199909,3.194975 0.02665,0.02701 1.033774,-0.55748 2.238069,-1.298862 l 2.189624,-1.347964 0.549387,-1.930075 c 0.552014,-1.939296 1.612109,-7.527476 2.203751,-11.616876 l 0.317671,-2.195675 0.229784,1.42073 c 0.126383,0.781403 0.1764,3.715868 0.111153,6.521034 l -0.118642,5.100302 0.936592,-0.809585 c 0.515129,-0.445271 1.365503,-1.320637 1.889732,-1.945257 1.040519,-1.239802 1.416094,-2.533606 2.247148,-7.74112 0.24761,-1.551594 0.519375,-2.598719 0.611891,-2.357643 0.09148,0.238535 0.250462,1.630492 0.353189,3.093239 l 0.186758,2.65954 1.100464,-2.324833 c 1.919717,-4.055585 2.301855,-5.972743 2.265572,-11.365849 -0.02024,-3.010585 -0.156857,-5.138231 -0.38748,-6.035604 l -0.356175,-1.385939 -1.958736,2.548355 c -2.827992,3.679274 -6.462923,7.610637 -9.640737,10.426955 -2.676635,2.372159 -8.605662,6.963961 -9.001136,6.971033 -0.106555,0.002 -0.193728,0.630477 -0.193728,1.396826 0,3.812452 -0.976485,9.745988 -2.192046,13.319909 -0.340252,1.000381 -0.510551,1.818873 -0.378436,1.818873 0.132114,0 0.992651,-0.301222 1.912293,-0.669383 z M 54.570226,46.551634 c 7.401641,-1.359104 12.718438,-3.152003 20.880995,-7.041371 7.312711,-3.484426 12.318855,-5.46303 15.171656,-5.996377 l 1.144671,-0.214004 -0.774944,-0.322308 c -1.059665,-0.440726 -3.527283,-0.187445 -5.862913,0.601787 -1.037591,0.350608 -4.908807,2.025825 -8.602706,3.722705 -14.435148,6.631124 -22.16087,8.881803 -32.935136,9.594761 -3.207723,0.212262 -3.000669,0.224786 2.583148,0.156229 4.247738,-0.05215 6.768435,-0.202706 8.395229,-0.501422 z M 28.853589,37.651226 c 1.774699,-1.776554 2.421803,-3.307792 2.55242,-6.039783 0.05953,-1.245176 0.04819,-2.263955 -0.02519,-2.263955 -0.07339,0 -0.494395,0.337186 -0.935567,0.749301 -0.441173,0.412116 -1.345581,0.964265 -2.009798,1.226996 -3.457462,1.3676 -4.99585,2.608069 -5.397714,4.352413 -0.174767,0.7586 -0.162244,0.753151 0.593746,-0.258315 0.424755,-0.568292 1.166445,-1.234018 1.648202,-1.47939 1.059648,-0.53971 5.221371,-2.010707 5.343405,-1.888673 0.163314,0.163314 -0.513065,2.332352 -1.146147,3.675497 -0.378782,0.803626 -1.222339,1.880309 -2.105788,2.687742 -1.23045,1.124579 -1.328738,1.272003 -0.595129,0.89265 0.483303,-0.249919 1.418207,-0.994435 2.077564,-1.654483 z m -6.476156,-1.264662 c -1.270455,-1.621517 -2.189741,-2.009604 -5.35112,-2.259038 -2.302702,-0.181683 -3.989221,-0.658098 -4.742302,-1.339626 -0.69118,-0.625509 -0.56241,0.02045 0.17995,0.902686 0.864198,1.02704 2.243743,1.538002 4.68716,1.736053 2.000039,0.162111 4.378788,0.742493 4.858531,1.185413 0.444607,0.410479 0.729301,0.23593 0.367781,-0.225488 z"
           id="path1"
           sodipodi:nodetypes="sssssssssscsssssssssssssssssscssssssscssssssssssssssssscsssssscsscsscssscscscscsscssssssscsssssssssssssssssssssssssss" /><text
           xml:space="preserve"
           style="font-size:18.0615px;line-height:1;font-family:'Western Brother Personal Use';-inkscape-font-specification:'Western Brother Personal Use';text-align:center;letter-spacing:1.20221px;word-spacing:0px;writing-mode:lr-tb;direction:ltr;text-anchor:middle;fill:#c42c36;fill-opacity:1;stroke-width:3.51344"
           x="53.125721"
           y="103.79731"
           id="text1"><tspan
             sodipodi:role="line"
             id="tspan1"
             style="fill:#c42c36;fill-opacity:1;stroke-width:3.51344"
             x="53.72683"
             y="103.79731">DOCKS</tspan></text><ellipse
           style="fill:#ffffff;fill-opacity:1;stroke-width:1.55704"
           id="path2"
           cx="72.509689"
           cy="46.642223"
           rx="1.393092"
           ry="1.1529037" /><path
           style="fill:#c42c36;fill-opacity:1;stroke-width:2.70157"
           d="m 90.030373,28.102657 c -0.660574,0.339557 -1.242998,0.561583 -1.298305,0.494919 -0.01823,-0.02198 0.131405,-0.282882 0.332508,-0.579813 0.650616,-0.960581 1.086088,-2.034153 1.744276,-4.300184 0.650365,-2.239127 1.187019,-3.711696 1.424463,-3.908681 0.09982,-0.08282 0.177827,-0.02246 0.347574,0.268886 0.471327,0.808946 1.093971,2.171437 1.330447,2.911304 0.239161,0.748283 0.236341,0.798648 -0.07719,1.377449 -0.751295,1.386973 -2.417413,3.023456 -3.803791,3.73611 z m -2.816819,0.960366 c -2.047839,0.303497 -3.646504,0.107078 -5.404032,-0.663978 -1.018822,-0.44697 -2.657713,-1.522121 -2.638286,-1.730773 0.0051,-0.05428 0.291632,-0.179604 0.636815,-0.27853 1.091387,-0.312721 2.751165,-0.971947 3.602104,-1.430673 2.65042,-1.428799 5.2986,-3.907149 6.811316,-6.3745 0.257888,-0.420634 0.501563,-0.791897 0.541494,-0.825025 0.08496,-0.07044 0.997442,1.003329 1.249916,1.470655 0.09525,0.176384 0.128786,0.35786 0.07457,0.403271 -0.228794,0.19151 -0.829376,1.839655 -1.4477,3.972906 -0.364016,1.255879 -0.814015,2.597616 -0.999993,2.981637 -0.338193,0.698322 -1.204896,2.019032 -1.468467,2.237699 -0.07691,0.06381 -0.507849,0.170555 -0.957625,0.237223 z m 7.085613,-5.875986 c -0.05342,-0.01832 -0.264224,-0.465009 -0.468434,-0.992676 -0.204228,-0.527655 -0.588443,-1.337974 -0.853824,-1.800701 -0.265381,-0.462726 -0.457335,-0.91906 -0.426542,-1.01408 0.156967,-0.484453 2.102828,-1.55656 2.329435,-1.283425 0.131506,0.158517 0.180006,1.96862 0.07547,2.814724 -0.08659,0.700622 -0.293209,1.585248 -0.505129,2.162796 -0.02965,0.08066 -0.09752,0.131666 -0.150966,0.113315 z m -0.142831,-5.156893 c -0.340362,0.112162 -0.8471,0.396961 -1.21614,0.683511 -0.585416,0.454431 -0.644074,0.476524 -0.785198,0.294582 -0.08378,-0.108209 -0.408374,-0.51935 -0.721016,-0.913815 -0.367621,-0.463824 -0.533347,-0.746324 -0.46904,-0.799675 0.156543,-0.129873 1.086614,-2.317734 1.31285,-3.088321 0.112526,-0.383226 0.234813,-0.721867 0.271762,-0.752524 0.09201,-0.07633 0.600365,0.55792 1.093781,1.364595 0.489908,0.800933 1.120678,2.366909 1.106551,2.747141 -0.0097,0.260482 -0.03534,0.280539 -0.593667,0.464436 z m -9.379745,5.879915 c -1.528292,0.99847 -3.346592,1.829982 -4.957386,2.267041 -0.818283,0.222026 -0.926927,0.220816 -1.209186,-0.01348 -0.754012,-0.625878 -1.899151,-2.800031 -2.226562,-4.227352 -0.156278,-0.681277 -0.147733,-0.727242 0.224785,-1.209132 0.812009,-1.050405 1.639372,-1.306535 5.568838,-1.723953 2.891271,-0.307137 4.10304,-0.533992 5.077987,-0.950654 0.686658,-0.29345 1.373122,-0.831789 1.747493,-1.370402 0.143221,-0.206051 0.286804,-0.372172 0.319096,-0.369161 0.03233,0.003 0.330619,0.263583 0.662942,0.579065 0.416645,0.395503 0.594981,0.62298 0.574473,0.732613 -0.04966,0.264585 -1.383974,2.175728 -2.108252,3.01963 -0.8546,0.995753 -2.671477,2.610666 -3.674127,3.265727 z m 5.251949,-7.260461 -0.637811,-0.595658 0.120165,-0.618888 c 0.248579,-1.280278 -0.08843,-2.595295 -0.994038,-3.878762 -0.283166,-0.40128 -0.499908,-0.773929 -0.481684,-0.828077 0.132412,-0.393375 2.823363,1.025333 4.035915,2.127801 l 0.325205,0.295679 -0.310084,1.004743 c -0.323406,1.047928 -1.093039,2.817677 -1.300042,2.989416 -0.08306,0.06891 -0.315588,-0.08341 -0.757636,-0.496246 z m -3.232853,1.378153 c -0.945703,0.348591 -1.456172,0.432862 -4.694843,0.775051 -1.460846,0.154352 -3.068157,0.3855 -3.571806,0.513663 -0.807073,0.205379 -0.997667,0.301007 -1.60631,0.805954 -0.379821,0.315111 -0.716165,0.542092 -0.747421,0.50442 -0.03125,-0.03768 -0.0599,-0.419536 -0.06367,-0.848556 -0.02033,-2.319033 0.975945,-4.819365 2.598869,-6.522405 l 0.453781,-0.476196 1.912551,0.179143 c 2.732445,0.255946 4.583277,0.876044 6.736564,2.257001 0.606482,0.38894 1.143332,0.756171 1.193013,0.816054 0.285059,0.343599 -1.085779,1.581194 -2.210744,1.995851 z m 2.212987,-2.267778 c -0.06973,-0.0443 -0.507417,-0.335325 -0.97259,-0.646738 -1.066843,-0.714227 -3.097193,-1.623278 -4.416938,-1.97761 -0.558208,-0.149869 -1.735198,-0.337035 -2.615534,-0.415922 l -1.600605,-0.143433 0.78327,-0.563436 c 1.076192,-0.774161 1.851868,-1.113937 3.334925,-1.460816 0.986763,-0.230794 1.566506,-0.278489 2.620572,-0.215599 l 1.353494,0.08076 0.533983,0.757204 c 1.074786,1.52406 1.453622,2.597216 1.341584,3.800412 -0.07028,0.754742 -0.147256,0.921631 -0.362161,0.785193 z"
           id="path2-7"
           sodipodi:nodetypes="cscssssscccsscsssccsssccccscssccccccsssssscccssssssssccsccccscsscsscccsssscccscsccccsscssscsscc" /><text
           xml:space="preserve"
           style="font-size:29.4349px;line-height:1;font-family:'Western Brother Personal Use';-inkscape-font-specification:'Western Brother Personal Use';text-align:center;letter-spacing:1.95926px;word-spacing:0px;writing-mode:lr-tb;direction:ltr;text-anchor:middle;fill:#c42c36;fill-opacity:1;stroke-width:5.72587"
           x="53.435047"
           y="31.367264"
           id="text4"><tspan
             sodipodi:role="line"
             id="tspan4"
             style="stroke-width:5.72589"
             x="54.414677"
             y="31.367264">NJ</tspan></text></g></g></g></svg>
