<?xml version="1.0" encoding="UTF-8" standalone="no"?>
<!-- Created with Inkscape (http://www.inkscape.org/) -->

<svg
   width="105.83334mm"
   height="105.83334mm"
   viewBox="0 0 105.83333 105.83333"
   version="1.1"
   id="svg1"
   xml:space="preserve"
   inkscape:version="1.4.2 (ebf0e940d0, 2025-05-08)"
   sodipodi:docname="new_orleans.svg"
   inkscape:export-filename="../pngs/NBL.png"
   inkscape:export-xdpi="96"
   inkscape:export-ydpi="96"
   xmlns:inkscape="http://www.inkscape.org/namespaces/inkscape"
   xmlns:sodipodi="http://sodipodi.sourceforge.net/DTD/sodipodi-0.dtd"
   xmlns="http://www.w3.org/2000/svg"
   xmlns:svg="http://www.w3.org/2000/svg"><sodipodi:namedview
     id="namedview1"
     pagecolor="#ffffff"
     bordercolor="#000000"
     borderopacity="0.25"
     inkscape:showpageshadow="2"
     inkscape:pageopacity="0.0"
     inkscape:pagecheckerboard="0"
     inkscape:deskcolor="#d1d1d1"
     inkscape:document-units="mm"
     inkscape:zoom="0.6054292"
     inkscape:cx="-265.10119"
     inkscape:cy="-19.82065"
     inkscape:window-width="1920"
     inkscape:window-height="1011"
     inkscape:window-x="0"
     inkscape:window-y="32"
     inkscape:window-maximized="1"
     inkscape:current-layer="layer1"
     showgrid="false" /><defs
     id="defs1" /><g
     inkscape:label="Capa 1"
     inkscape:groupmode="layer"
     id="layer1"><text
       xml:space="preserve"
       style="font-size:10.5833px;line-height:1;font-family:Sportsball;-inkscape-font-specification:Sportsball;text-align:center;letter-spacing:1.57692px;writing-mode:lr-tb;direction:ltr;text-anchor:middle;white-space:pre;inline-size:45.3146;fill:#808080;stroke:none;stroke-width:2.896"
       x="59.618671"
       y="77.566704"
       id="text1"><tspan
         x="59.618671"
         y="77.566704"
         id="tspan2"><tspan
           dx="0 6.4647012 5.369164 5.3226562 8.9244938 5.4518428"
           style="font-family:'Ranked Sports';-inkscape-font-specification:'Ranked Sports'"
           id="tspan1">azzmen</tspan></tspan></text><g
       id="g9"
       transform="matrix(1.1869657,0,0,1.1869657,172.4205,-1.5943019)"><path
         style="fill:#85714d;fill-opacity:1;stroke:#ffffff;stroke-width:5.3;stroke-dasharray:none"
         d="m -108.69406,84.402314 c 1.57754,-0.803301 3.40039,-1.90407 4.14204,-2.501272 0.14129,-0.113767 -0.25123,-0.0091 -1.3276,0.354076 -3.38855,1.143262 -6.378,1.734106 -9.41337,1.860489 -1.23623,0.05147 -3.41959,-0.02686 -3.41959,-0.122685 0,-0.02939 0.42544,-0.135994 0.94542,-0.236893 1.58481,-0.307525 3.36021,-0.979076 4.40523,-1.666293 0.17702,-0.116405 0.26275,-0.193546 0.19052,-0.171422 -0.43323,0.132695 -2.1253,0.476481 -3.05028,0.619739 -1.67845,0.259954 -6.35301,0.321909 -6.35301,0.0842 0,-0.03176 0.19009,-0.105821 0.42242,-0.164587 2.62212,-0.663231 6.62593,-2.333983 8.9251,-3.724355 1.16143,-0.702354 2.16497,-1.433907 2.10348,-1.53339 -0.0277,-0.04487 -0.012,-0.05783 0.035,-0.02881 0.24083,0.148843 2.1603,-1.713082 3.3052,-3.206113 1.21837,-1.588856 2.07074,-3.705217 2.27947,-5.659727 0.20409,-1.911138 -0.31851,-4.338816 -1.475,-6.851945 -0.34939,-0.759266 -1.29082,-2.492116 -1.35464,-2.493441 -0.0224,-4.66e-4 -0.032,0.153035 -0.0212,0.341112 0.12596,2.196679 0.17012,4.841053 0.0971,5.813301 -0.0907,1.207278 -0.41651,2.740729 -0.77788,3.660971 -0.90357,2.300967 -2.60899,4.262258 -4.79251,5.511531 -0.21221,0.12141 -0.40711,0.199458 -0.43313,0.173441 -0.026,-0.02602 0.0685,-0.179193 0.21003,-0.34039 0.78425,-0.893212 1.71629,-2.660414 2.06803,-3.921106 0.24989,-0.895642 0.34228,-2.609107 0.19881,-3.687222 -0.33611,-2.525732 -1.57373,-5.207493 -3.52243,-7.632656 -0.66452,-0.827001 -1.9987,-2.195894 -1.92158,-1.971582 0.0304,0.08851 0.10373,0.378166 0.1629,0.643687 0.19211,0.862098 1.59377,6.175247 2.22876,8.448396 0.22252,0.796563 0.45405,1.629333 0.5145,1.850601 0.51738,1.893516 0.65562,2.454057 0.60524,2.454057 -0.0321,0 -0.15234,-0.117674 -0.26711,-0.261498 -0.11477,-0.143818 -0.28768,-0.352011 -0.38423,-0.462645 -0.0966,-0.110634 -0.34409,-0.411652 -0.55007,-0.668931 -0.20598,-0.257278 -0.45728,-0.565041 -0.55845,-0.683917 -0.10116,-0.118877 -0.30973,-0.397177 -0.46347,-0.618444 -0.15375,-0.221268 -0.46175,-0.655756 -0.68445,-0.965531 -0.22269,-0.309774 -0.4977,-0.708056 -0.61113,-0.88507 -0.11343,-0.177014 -0.28743,-0.44857 -0.38667,-0.603457 -0.0992,-0.154887 -0.30838,-0.480754 -0.46475,-0.724148 -0.29903,-0.465433 -0.31676,-0.496016 -1.21262,-2.091984 -1.05989,-1.888173 -2.55628,-5.038316 -3.81842,-8.038401 -0.24955,-0.593194 -0.46684,-1.039209 -0.48287,-0.991145 -0.0602,0.180521 0.68871,3.819148 1.23742,6.012262 0.155,0.619549 0.44476,1.664322 0.64391,2.321718 0.19914,0.657396 0.34521,1.212132 0.3246,1.232747 -0.0206,0.02061 -0.22877,-0.191387 -0.46257,-0.471117 -0.2338,-0.279729 -0.39726,-0.436184 -0.36324,-0.347677 0.034,0.08851 0.0953,0.365118 0.13611,0.614691 0.15716,0.960291 0.79903,3.241385 1.5081,5.359532 0.2111,0.630612 0.36069,1.146568 0.33243,1.146568 -0.0621,0 -0.29151,-0.250837 -1.28797,-1.408066 -2.75524,-3.199774 -4.83021,-6.882717 -6.39175,-11.344989 -0.11077,-0.316528 -0.43107,-1.38232 -0.65289,-2.172443 -0.15532,-0.553273 -0.5549,-2.349537 -0.70699,-3.178206 -0.16228,-0.884245 -0.45157,-3.232376 -0.45157,-3.665422 0,-0.184534 -0.0739,-0.632377 -0.16419,-0.995207 -0.6306,-2.533704 -1.01427,-6.786303 -0.92609,-10.26487 0.0403,-1.590557 0.0394,-1.601754 -0.0762,-0.965531 -0.16992,0.934933 -0.41914,2.92817 -0.56841,4.546041 -0.15148,1.641924 -0.22438,6.888711 -0.11458,8.247244 0.30769,3.806939 0.78929,6.894778 1.48082,9.494386 0.15303,0.575296 0.37339,1.405093 0.48968,1.843995 0.31009,1.170366 0.91594,3.266041 0.96902,3.351936 0.0252,0.04084 0.0166,0.07372 -0.0192,0.07306 -0.0649,-0.0012 -1.20298,-1.499184 -1.89415,-2.493086 -0.7531,-1.082948 -1.97568,-3.248494 -2.49839,-4.42535 -0.60249,-1.356497 -0.81091,-1.876282 -1.12992,-2.818028 -0.85021,-2.509835 -1.27066,-4.511228 -1.5885,-7.561429 -0.12576,-1.206845 -0.0506,-5.587557 0.11528,-6.718486 0.34515,-2.353296 0.6215,-3.722268 1.10448,-5.471342 0.31638,-1.145751 0.86314,-2.700367 1.00683,-2.862776 0.0618,-0.06991 0.21893,-0.504397 0.34906,-0.965531 0.54718,-1.939016 1.30321,-3.87938 1.96774,-5.050238 0.15939,-0.280835 0.2898,-0.522675 0.2898,-0.537421 0,-0.13434 0.97446,-1.459443 1.59608,-2.170405 1.66231,-1.901216 4.75185,-3.708164 8.66269,-5.066454 0.49399,-0.17157 0.68036,-0.261946 0.48276,-0.234105 -0.8705,0.122652 -2.31104,0.49123 -3.58384,0.916963 -1.87451,0.626997 -3.05444,1.157678 -5.1864,2.332612 -0.86889,0.478854 -2.69882,1.707965 -3.62074,2.431952 -0.94871,0.745034 -1.20716,0.932982 -1.23905,0.901089 -0.0211,-0.02106 0.11415,-0.193611 0.30047,-0.383451 0.18631,-0.18984 0.31983,-0.370118 0.29671,-0.400618 -0.0231,-0.0305 -0.0179,-0.0373 0.0117,-0.01512 0.0296,0.02218 0.40068,-0.30057 0.82472,-0.717225 2.04842,-2.012737 4.95907,-4.131656 7.44924,-5.422965 l 0.32184,-0.166896 -0.28161,0.03461 c -2.86708,0.352322 -4.62997,0.788143 -6.64887,1.643728 -3.28352,1.391517 -6.03095,3.794242 -8.80902,7.703788 -0.39311,0.553224 -0.71475,0.964409 -0.71475,0.913745 0,-0.05066 0.16889,-0.38957 0.37531,-0.753127 0.20642,-0.363556 0.37539,-0.706271 0.37548,-0.761587 1e-4,-0.05532 0.0178,-0.08299 0.0393,-0.0615 0.0215,0.02149 0.25361,-0.292667 0.51582,-0.698129 0.26221,-0.405462 0.639,-0.948068 0.83732,-1.20579 0.20377,-0.264821 0.33561,-0.508967 0.30318,-0.561447 -0.0329,-0.05318 -0.0223,-0.07117 0.0248,-0.04209 0.1152,0.0712 0.37431,-0.235262 0.30024,-0.355106 -0.0365,-0.05909 -0.027,-0.07721 0.0241,-0.04567 0.0946,0.05849 1.4414,-1.443549 1.40667,-1.568851 -0.0122,-0.04387 0.0102,-0.05982 0.0496,-0.03545 0.095,0.05871 0.35228,-0.229219 0.27442,-0.307085 -0.0333,-0.03329 -0.0186,-0.04845 0.0326,-0.0337 0.11876,0.0342 1.40384,-1.104604 1.32991,-1.178533 -0.0304,-0.03036 -0.019,-0.04382 0.0253,-0.02991 0.0443,0.01391 0.39978,-0.227472 0.79006,-0.536406 0.98698,-0.781278 2.69233,-1.858297 3.86083,-2.438328 0.9817,-0.487306 2.6388,-1.160519 3.8997,-1.58429 0.36598,-0.123001 0.65564,-0.232899 0.64369,-0.244217 -0.0313,-0.02966 -3.13075,0.488867 -3.83038,0.640811 -1.25152,0.271798 -2.279,0.557758 -3.66516,1.020054 -0.79158,0.263999 -1.45397,0.46526 -1.47198,0.447248 -0.035,-0.03501 1.75846,-0.948266 2.42845,-1.236604 0.6743,-0.290192 2.15887,-0.865144 4.10351,-1.589227 1.05828,-0.394052 2.12619,-0.84968 2.49428,-1.064202 3.8275,-2.2306067 8.64841,-3.9351477 13.47721,-4.7651747 2.68367,-0.461298 4.90528,-0.646624 7.76447,-0.647707 3.28783,-0.0012 5.537529,0.311447 8.166784,1.135121 2.239962,0.701723 4.692362,1.897133 6.217232,3.0305597 0.25535,0.189804 0.50535,0.319716 0.55554,0.288694 0.0502,-0.03102 0.0695,-0.02122 0.0429,0.02179 -0.0266,0.04301 0.27384,0.375303 0.6676,0.738436 2.32372,2.142986 3.84848,4.810526 4.5164,7.901353 0.15164,0.701684 0.18254,1.0955 0.18598,2.370256 0.003,0.966061 -0.0363,1.748107 -0.10584,2.124696 l -0.10997,0.595939 0.54587,0.490283 c 0.30022,0.269656 0.60316,0.491975 0.67319,0.494042 0.07,0.0021 0.11926,0.0444 0.10939,0.09407 -0.0234,0.117764 1.55034,1.480928 1.62431,1.406961 0.0311,-0.03107 0.0444,-0.01728 0.0297,0.03064 -0.0148,0.04793 0.31715,0.377677 0.73756,0.732779 0.42041,0.355102 1.08781,0.938515 1.48311,1.296474 0.39531,0.357959 0.74923,0.631992 0.78649,0.608962 0.0373,-0.02303 0.0578,-0.0098 0.0456,0.02939 -0.0122,0.0392 0.57482,0.612154 1.30441,1.27324 1.407,1.274894 3.58443,3.406549 4.63719,4.539685 0.34875,0.375377 0.67029,0.671071 0.71455,0.657098 0.0443,-0.01397 0.0542,8.91e-4 0.022,0.03303 -0.0836,0.08356 0.90214,1.172082 1.00424,1.108985 0.0518,-0.032 0.0608,-0.01353 0.0231,0.04742 -0.0677,0.109579 0.42071,0.670056 0.5268,0.604493 0.0342,-0.02113 0.0883,0.004 0.12037,0.05579 0.0364,0.05883 0.0233,0.07265 -0.0347,0.03679 -0.19223,-0.118807 -0.0802,0.07498 0.29425,0.509071 0.21293,0.246827 0.75178,0.926744 1.19746,1.510927 0.44567,0.584182 0.83569,1.036775 0.86671,1.005761 0.031,-0.03101 0.0443,-0.01845 0.0296,0.02792 -0.0413,0.129937 1.55316,2.37245 1.64605,2.315035 0.045,-0.02784 0.0577,-0.01142 0.0281,0.03647 -0.0296,0.0479 0.21262,0.497032 0.53827,0.998078 0.32565,0.501046 0.85789,1.363585 1.18276,1.916754 0.32486,0.553169 0.62921,1.032362 0.67633,1.064875 0.0471,0.03251 0.0594,0.05967 0.0274,0.06035 -0.032,6.77e-4 0.0539,0.191321 0.19105,0.423651 1.14212,1.935167 3.75683,7.754105 3.08629,6.868417 -0.54793,-0.723731 -2.78902,-3.0282 -2.88639,-2.96802 -0.0418,0.02582 -0.0516,0.0076 -0.0219,-0.04045 0.0297,-0.04806 -0.0213,-0.140152 -0.1134,-0.204642 -0.0921,-0.06449 -0.37328,-0.311387 -0.62492,-0.548661 -0.25163,-0.237274 -0.71096,-0.648107 -1.02074,-0.912962 -0.30977,-0.264856 -0.58133,-0.500683 -0.60345,-0.524061 -0.13384,-0.141407 -2.08364,-1.664261 -2.65521,-2.073806 -0.37616,-0.269521 -0.77805,-0.563164 -0.89309,-0.652538 -0.56418,-0.438313 -2.61638,-1.774132 -4.05526,-2.639663 -2.0957,-1.260624 -2.99032,-1.74077 -3.10797,-1.668056 -0.0599,0.037 -0.0737,0.02419 -0.0374,-0.03456 0.0608,-0.09834 -3.29861,-1.786024 -5.14209,-2.583287 -0.53104,-0.229663 -1.07415,-0.466227 -1.20691,-0.525698 -0.13276,-0.05947 -0.71208,-0.295694 -1.28738,-0.52494 -5.48183,-2.184424 -11.16868,-3.698501 -14.845032,-3.952365 -1.235054,-0.08529 -1.397714,-0.07965 -2.333364,0.0809 -0.79,0.135551 -1.07318,0.21992 -1.32002,0.393282 -0.73604,0.516925 -0.85773,1.115662 -0.37195,1.829928 0.69983,1.028981 1.83933,1.893164 4.347178,3.296855 2.73622,1.531514 4.565318,2.757501 6.204158,4.158459 0.24815,0.212138 0.47445,0.368484 0.50288,0.347435 0.0284,-0.02105 0.0404,-0.02092 0.0265,2.75e-4 -0.0138,0.0212 0.48804,0.555261 1.11527,1.186799 1.32872,1.337863 2.04815,2.20958 2.97297,3.602309 3.39198,5.108151 4.8876,11.900191 4.0226,18.267768 -0.15656,1.152502 -0.49067,2.848824 -0.69668,3.537139 -0.0861,0.287647 -0.23123,0.776448 -0.32255,1.086222 -0.48941,1.660259 -1.67926,4.247354 -2.67703,5.820678 -0.29024,0.457656 -0.50682,0.865886 -0.4813,0.907179 0.0255,0.04129 0.0103,0.06513 -0.0337,0.05297 -0.0748,-0.02063 -0.69017,0.732847 -0.7623,0.93333 -0.0179,0.0498 -0.0556,0.06949 -0.0837,0.04373 -0.0281,-0.02575 0.11324,-0.333513 0.31413,-0.683917 0.87992,-1.534803 1.70609,-3.503776 2.2112,-5.269872 1.20796,-4.223583 1.22687,-8.68104 0.0541,-12.746785 l -0.25531,-0.88507 -0.0553,0.362074 c -0.0304,0.199141 -0.058,0.60523 -0.0613,0.902419 -0.008,0.715533 -0.20715,2.137247 -0.4599,3.281549 -0.56893,2.575712 -1.75243,5.34173 -3.23575,7.562425 -0.36982,0.553664 -0.67457,1.049909 -0.67721,1.102768 -0.003,0.05286 -0.0281,0.08906 -0.0566,0.08046 -0.0285,-0.0086 -0.3015,0.292117 -0.60665,0.668272 -0.30515,0.376155 -0.71933,0.860259 -0.9204,1.075787 -0.20108,0.215528 -0.3608,0.440405 -0.35495,0.499726 0.006,0.05932 -0.0192,0.100224 -0.0558,0.0909 -0.11409,-0.02914 -1.44287,1.24643 -1.38908,1.333458 0.0281,0.04538 0.0165,0.06119 -0.0257,0.03512 -0.0422,-0.02606 -0.27589,0.122613 -0.51938,0.330392 -0.2435,0.207778 -0.875371,0.695487 -1.404174,1.083798 -3.704752,2.720474 -7.912792,4.554853 -12.968882,5.653434 -0.4971,0.108009 -0.9859,0.195259 -1.08622,0.193888 -0.10032,-0.0014 0.65088,-0.426809 1.66933,-0.945416 z M -93.819684,59.14008 c -0.28811,-0.505804 -1.40324,-2.221813 -1.47711,-2.273021 -0.0319,-0.02213 -0.10346,-0.126416 -0.15898,-0.231755 -0.0555,-0.105339 -0.474372,-0.653827 -0.930776,-1.218861 -0.845538,-1.046787 -0.893607,-1.105119 -1.489919,-1.808049 -0.187707,-0.221268 -1.163193,-1.289387 -2.167751,-2.373597 -3.29017,-3.55107 -4.60426,-5.089885 -5.84041,-6.839178 -2.24045,-3.170512 -3.09697,-5.341139 -2.98445,-7.563325 0.0555,-1.096972 0.19186,-1.718006 0.59116,-2.693159 0.49213,-1.20184 1.09493,-2.141547 2.18731,-3.409804 0.37796,-0.438812 0.72385,-0.962373 1.0259,-1.552886 0.25064,-0.48998 0.57967,-1.0751 0.7312,-1.300266 0.15152,-0.225167 0.28215,-0.432686 0.29027,-0.461154 0.0259,-0.09066 -1.82534,-1.516529 -1.90499,-1.467297 -0.042,0.02596 -0.0531,0.0096 -0.0247,-0.0364 0.0633,-0.102414 -1.34855,-1.325882 -1.43746,-1.245659 -0.0349,0.03149 -0.0406,0.01721 -0.0127,-0.03175 0.0604,-0.105944 -0.86305,-1.017337 -0.94637,-0.934025 -0.0316,0.03163 -0.0482,0.02129 -0.0369,-0.02296 0.0113,-0.04425 -0.40582,-0.51495 -0.92696,-1.045992 -0.52114,-0.531042 -1.27033,-1.332498 -1.66486,-1.781013 -0.79921,-0.908566 -1.01626,-1.039464 -2.1831,-1.316589 -3.72284,-0.884173 -6.93454,0.182655 -9.03915,3.002533 -0.60976,0.816995 -1.33903,2.18069 -1.33744,2.500965 0.002,0.414102 0.18738,3.536642 0.26013,4.382757 0.31511,3.664927 1.09733,6.539922 2.60422,9.571557 2.14625,4.317952 5.31836,7.5013 11.08399,11.123243 0.7177,0.450855 0.92653,0.575985 1.67878,1.00592 0.24339,0.139107 0.7684,0.443448 1.16668,0.676312 0.39828,0.232865 1.06812,0.599653 1.48853,0.815086 0.42041,0.215433 0.84388,0.47657 0.94105,0.580305 0.0972,0.103736 1.29009,0.746761 2.65093,1.428945 2.247385,1.126605 3.162845,1.616327 3.971342,2.124452 0.154887,0.09734 0.716102,0.445143 1.247144,0.772888 0.531042,0.327745 1.38192,0.910001 1.89083,1.293903 0.50892,0.383902 0.93588,0.700717 0.94881,0.704033 0.0129,0.0033 -0.0745,-0.165956 -0.19419,-0.37616 z m 1.6074,-32.843723 c 0.34766,-0.09463 0.93287,-0.320448 1.30046,-0.501819 l 0.66835,-0.329765 -0.37532,-0.296673 c -0.52466,-0.414721 -1.09085,-1.061568 -1.56822,-1.791629 l -0.40691,-0.622308 -0.13494,0.501616 c -0.0742,0.275889 -0.17382,0.598249 -0.22134,0.716356 -0.0833,0.207119 -0.0667,0.226641 0.46869,0.550126 0.30529,0.184463 0.58691,0.31572 0.6258,0.291681 0.0389,-0.02404 0.0707,0.0073 0.0707,0.06963 0,0.07772 -0.26763,0.176308 -0.85154,0.313694 -1.30072,0.306039 -1.74246,0.370496 -2.5391,0.370496 -1.14672,0 -2.020179,-0.295276 -2.768678,-0.935964 -0.170492,-0.145935 -0.332861,-0.248496 -0.36082,-0.227912 -0.02796,0.02058 -0.03492,0.01548 -0.01548,-0.01134 0.01944,-0.02682 -0.104395,-0.225562 -0.2752,-0.441647 -0.739105,-0.935034 -0.934508,-1.464613 -1.246721,-3.37883 -0.260307,-1.595948 -0.472287,-2.264619 -0.865107,-2.728864 -0.31141,-0.368043 -1.00336,-0.869593 -1.80287,-1.306798 -0.49746,-0.272033 -0.88962,-0.518637 -0.87147,-0.548009 0.077,-0.124592 2.21636,-0.27693 3.859329,-0.274812 1.902294,0.0025 2.565989,0.08344 3.933407,0.479949 0.902,0.261554 1.45479,0.522492 1.96138,0.925848 0.21936,0.17466 0.42202,0.30042 0.45035,0.279467 0.0283,-0.02095 0.0342,-0.01474 0.013,0.01382 -0.0212,0.02855 0.0877,0.223783 0.24185,0.433842 0.35779,0.487402 0.66994,1.169889 0.84247,1.841951 l 0.13571,0.528654 0.061,-0.348111 c 0.0463,-0.264131 0.0191,-0.478485 -0.11273,-0.888533 -0.2153,-0.669574 -0.7541,-1.667603 -0.88421,-1.63784 -0.0532,0.01216 -0.0768,-0.01 -0.0526,-0.04912 0.13356,-0.216105 -1.22383,-1.208083 -2.16428,-1.581648 -1.34982,-0.536179 -2.270824,-0.687615 -5.149496,-0.846706 -2.63335,-0.145534 -5.67747,-0.565115 -7.36217,-1.014755 -0.31336,-0.08363 -0.18751,-0.002 0.76438,0.495817 2.09135,1.093738 3.2292,1.86493 4.11522,2.789153 1.00856,1.052055 1.5283,2.12039 1.88485,3.874359 0.32894,1.618124 0.80617,2.562183 1.779799,3.520816 0.935084,0.920679 2.125533,1.546172 3.524884,1.852066 0.913793,0.199753 2.420243,0.160704 3.327553,-0.08625 z m -1.22768,-3.902726 0.28949,-0.047 -0.0619,-0.391826 c -0.0886,-0.560448 -0.36835,-1.082586 -0.54221,-1.011982 -0.0747,0.03032 -0.23874,0.09237 -0.36459,0.137873 -0.21794,0.0788 -0.22645,0.10042 -0.17889,0.45442 0.13805,1.027352 0.12323,0.987913 0.35523,0.944998 0.11737,-0.02171 0.34368,-0.06063 0.50291,-0.08648 z m -5.2081,-1.278767 c 0.06977,-0.166994 0.202537,-0.409901 0.295028,-0.539792 0.09305,-0.130669 0.142159,-0.28134 0.109947,-0.337292 -0.03202,-0.05562 -0.02946,-0.07516 0.0057,-0.04342 0.03514,0.03174 0.223205,-0.08252 0.417912,-0.253909 0.545232,-0.479933 1.012866,-0.668988 1.756664,-0.710184 0.713919,-0.03954 1.404569,0.136813 2.011519,0.51363 l 0.32185,0.19981 -0.32185,-0.282623 c -0.77623,-0.681643 -1.709738,-0.952064 -3.918598,-1.13516 -0.809754,-0.06712 -1.52157,-0.13991 -1.581814,-0.161751 -0.07736,-0.02805 -0.09305,0.0019 -0.05341,0.102006 0.115569,0.291813 0.275475,1.216756 0.359495,2.079422 0.04777,0.490441 0.140758,1.098681 0.206647,1.351646 0.06589,0.252964 0.124556,0.485324 0.130372,0.516355 0.0058,0.03103 0.03828,-0.180174 0.07213,-0.469345 0.03386,-0.289171 0.118647,-0.662397 0.188422,-0.829392 z m 2.724778,-0.148525 c 0.428142,-0.128275 0.593082,-0.385473 0.496872,-0.774827 -0.0673,-0.27224 -0.099,-0.298343 -0.391495,-0.3222 -0.496755,-0.04051 -0.827829,0.05306 -1.131714,0.319877 -0.327965,0.287958 -0.343667,0.384389 -0.09886,0.607117 0.311898,0.283762 0.600191,0.327327 1.125193,0.170033 z m -41.005664,30.287562 c -1.65604,-3.575013 -2.40152,-6.955796 -2.40824,-10.921558 -0.005,-2.815695 0.30165,-4.827241 1.12766,-7.402403 0.78152,-2.436479 2.07261,-4.871583 3.46616,-6.537449 0.19435,-0.232331 0.34116,-0.42242 0.32624,-0.42242 -0.0149,0 0.19892,-0.239788 0.4752,-0.532861 0.27627,-0.293073 0.47922,-0.570223 0.451,-0.615889 -0.0282,-0.04566 -0.0179,-0.06236 0.023,-0.03709 0.0409,0.02527 0.29087,-0.149857 0.55554,-0.389161 0.52875,-0.478076 0.70081,-0.556519 0.47217,-0.215254 -0.96878,1.445927 -2.33661,4.046588 -2.9729,5.652379 -1.81372,4.577216 -2.62595,9.807491 -2.28659,14.724346 0.17325,2.510091 0.69476,5.468937 1.32955,7.54321 0.0305,0.09957 0.024,0.180583 -0.0143,0.180027 -0.0384,-5.56e-4 -0.28337,-0.462201 -0.54448,-1.025877 z"
         id="path7-0" /><path
         style="fill:#ffffff;fill-opacity:1;stroke:none;stroke-width:3;stroke-dasharray:none"
         d="m -113.18761,14.640096 -10.26991,8.303338 c 0,0 -5.24422,7.866321 -4.8072,8.958865 0.43702,1.092544 6.77378,12.236498 7.64781,13.110533 0.87404,0.874035 22.069399,15.295623 22.069399,15.295623 l 8.303339,-0.218509 c 0,0 -4.370179,-8.958866 -5.025705,-9.832901 -0.655526,-0.874035 -8.521853,-11.143953 -8.303343,-12.455006 0.21851,-1.311053 3.27764,-8.303339 3.27764,-8.303339 l -5.02571,-10.051409 z"
         id="path8" /><path
         style="fill:#85714d;fill-opacity:1"
         d="m -108.69406,84.402314 c 1.57754,-0.803301 3.40039,-1.90407 4.14204,-2.501272 0.14129,-0.113767 -0.25123,-0.0091 -1.3276,0.354076 -3.38855,1.143262 -6.378,1.734106 -9.41337,1.860489 -1.23623,0.05147 -3.41959,-0.02686 -3.41959,-0.122685 0,-0.02939 0.42544,-0.135994 0.94542,-0.236893 1.58481,-0.307525 3.36021,-0.979076 4.40523,-1.666293 0.17702,-0.116405 0.26275,-0.193546 0.19052,-0.171422 -0.43323,0.132695 -2.1253,0.476481 -3.05028,0.619739 -1.67845,0.259954 -6.35301,0.321909 -6.35301,0.0842 0,-0.03176 0.19009,-0.105821 0.42242,-0.164587 2.62212,-0.663231 6.62593,-2.333983 8.9251,-3.724355 1.16143,-0.702354 2.16497,-1.433907 2.10348,-1.53339 -0.0277,-0.04487 -0.012,-0.05783 0.035,-0.02881 0.24083,0.148843 2.1603,-1.713082 3.3052,-3.206113 1.21837,-1.588856 2.07074,-3.705217 2.27947,-5.659727 0.20409,-1.911138 -0.31851,-4.338816 -1.475,-6.851945 -0.34939,-0.759266 -1.29082,-2.492116 -1.35464,-2.493441 -0.0224,-4.66e-4 -0.032,0.153035 -0.0212,0.341112 0.12596,2.196679 0.17012,4.841053 0.0971,5.813301 -0.0907,1.207278 -0.41651,2.740729 -0.77788,3.660971 -0.90357,2.300967 -2.60899,4.262258 -4.79251,5.511531 -0.21221,0.12141 -0.40711,0.199458 -0.43313,0.173441 -0.026,-0.02602 0.0685,-0.179193 0.21003,-0.34039 0.78425,-0.893212 1.71629,-2.660414 2.06803,-3.921106 0.24989,-0.895642 0.34228,-2.609107 0.19881,-3.687222 -0.33611,-2.525732 -1.57373,-5.207493 -3.52243,-7.632656 -0.66452,-0.827001 -1.9987,-2.195894 -1.92158,-1.971582 0.0304,0.08851 0.10373,0.378166 0.1629,0.643687 0.19211,0.862098 1.59377,6.175247 2.22876,8.448396 0.22252,0.796563 0.45405,1.629333 0.5145,1.850601 0.51738,1.893516 0.65562,2.454057 0.60524,2.454057 -0.0321,0 -0.15234,-0.117674 -0.26711,-0.261498 -0.11477,-0.143818 -0.28768,-0.352011 -0.38423,-0.462645 -0.0966,-0.110634 -0.34409,-0.411652 -0.55007,-0.668931 -0.20598,-0.257278 -0.45728,-0.565041 -0.55845,-0.683917 -0.10116,-0.118877 -0.30973,-0.397177 -0.46347,-0.618444 -0.15375,-0.221268 -0.46175,-0.655756 -0.68445,-0.965531 -0.22269,-0.309774 -0.4977,-0.708056 -0.61113,-0.88507 -0.11343,-0.177014 -0.28743,-0.44857 -0.38667,-0.603457 -0.0992,-0.154887 -0.30838,-0.480754 -0.46475,-0.724148 -0.29903,-0.465433 -0.31676,-0.496016 -1.21262,-2.091984 -1.05989,-1.888173 -2.55628,-5.038316 -3.81842,-8.038401 -0.24955,-0.593194 -0.46684,-1.039209 -0.48287,-0.991145 -0.0602,0.180521 0.68871,3.819148 1.23742,6.012262 0.155,0.619549 0.44476,1.664322 0.64391,2.321718 0.19914,0.657396 0.34521,1.212132 0.3246,1.232747 -0.0206,0.02061 -0.22877,-0.191387 -0.46257,-0.471117 -0.2338,-0.279729 -0.39726,-0.436184 -0.36324,-0.347677 0.034,0.08851 0.0953,0.365118 0.13611,0.614691 0.15716,0.960291 0.79903,3.241385 1.5081,5.359532 0.2111,0.630612 0.36069,1.146568 0.33243,1.146568 -0.0621,0 -0.29151,-0.250837 -1.28797,-1.408066 -2.75524,-3.199774 -4.83021,-6.882717 -6.39175,-11.344989 -0.11077,-0.316528 -0.43107,-1.38232 -0.65289,-2.172443 -0.15532,-0.553273 -0.5549,-2.349537 -0.70699,-3.178206 -0.16228,-0.884245 -0.45157,-3.232376 -0.45157,-3.665422 0,-0.184534 -0.0739,-0.632377 -0.16419,-0.995207 -0.6306,-2.533704 -1.01427,-6.786303 -0.92609,-10.26487 0.0403,-1.590557 0.0394,-1.601754 -0.0762,-0.965531 -0.16992,0.934933 -0.41914,2.92817 -0.56841,4.546041 -0.15148,1.641924 -0.22438,6.888711 -0.11458,8.247244 0.30769,3.806939 0.78929,6.894778 1.48082,9.494386 0.15303,0.575296 0.37339,1.405093 0.48968,1.843995 0.31009,1.170366 0.91594,3.266041 0.96902,3.351936 0.0252,0.04084 0.0166,0.07372 -0.0192,0.07306 -0.0649,-0.0012 -1.20298,-1.499184 -1.89415,-2.493086 -0.7531,-1.082948 -1.97568,-3.248494 -2.49839,-4.42535 -0.60249,-1.356497 -0.81091,-1.876282 -1.12992,-2.818028 -0.85021,-2.509835 -1.27066,-4.511228 -1.5885,-7.561429 -0.12576,-1.206845 -0.0506,-5.587557 0.11528,-6.718486 0.34515,-2.353296 0.6215,-3.722268 1.10448,-5.471342 0.31638,-1.145751 0.86314,-2.700367 1.00683,-2.862776 0.0618,-0.06991 0.21893,-0.504397 0.34906,-0.965531 0.54718,-1.939016 1.30321,-3.87938 1.96774,-5.050238 0.15939,-0.280835 0.2898,-0.522675 0.2898,-0.537421 0,-0.13434 0.97446,-1.459443 1.59608,-2.170405 1.66231,-1.901216 4.75185,-3.708164 8.66269,-5.066454 0.49399,-0.17157 0.68036,-0.261946 0.48276,-0.234105 -0.8705,0.122652 -2.31104,0.49123 -3.58384,0.916963 -1.87451,0.626997 -3.05444,1.157678 -5.1864,2.332612 -0.86889,0.478854 -2.69882,1.707965 -3.62074,2.431952 -0.94871,0.745034 -1.20716,0.932982 -1.23905,0.901089 -0.0211,-0.02106 0.11415,-0.193611 0.30047,-0.383451 0.18631,-0.18984 0.31983,-0.370118 0.29671,-0.400618 -0.0231,-0.0305 -0.0179,-0.0373 0.0117,-0.01512 0.0296,0.02218 0.40068,-0.30057 0.82472,-0.717225 2.04842,-2.012737 4.95907,-4.131656 7.44924,-5.422965 l 0.32184,-0.166896 -0.28161,0.03461 c -2.86708,0.352322 -4.62997,0.788143 -6.64887,1.643728 -3.28352,1.391517 -6.03095,3.794242 -8.80902,7.703788 -0.39311,0.553224 -0.71475,0.964409 -0.71475,0.913745 0,-0.05066 0.16889,-0.38957 0.37531,-0.753127 0.20642,-0.363556 0.37539,-0.706271 0.37548,-0.761587 1e-4,-0.05532 0.0178,-0.08299 0.0393,-0.0615 0.0215,0.02149 0.25361,-0.292667 0.51582,-0.698129 0.26221,-0.405462 0.639,-0.948068 0.83732,-1.20579 0.20377,-0.264821 0.33561,-0.508967 0.30318,-0.561447 -0.0329,-0.05318 -0.0223,-0.07117 0.0248,-0.04209 0.1152,0.0712 0.37431,-0.235262 0.30024,-0.355106 -0.0365,-0.05909 -0.027,-0.07721 0.0241,-0.04567 0.0946,0.05849 1.4414,-1.443549 1.40667,-1.568851 -0.0122,-0.04387 0.0102,-0.05982 0.0496,-0.03545 0.095,0.05871 0.35228,-0.229219 0.27442,-0.307085 -0.0333,-0.03329 -0.0186,-0.04845 0.0326,-0.0337 0.11876,0.0342 1.40384,-1.104604 1.32991,-1.178533 -0.0304,-0.03036 -0.019,-0.04382 0.0253,-0.02991 0.0443,0.01391 0.39978,-0.227472 0.79006,-0.536406 0.98698,-0.781278 2.69233,-1.858297 3.86083,-2.438328 0.9817,-0.487306 2.6388,-1.160519 3.8997,-1.58429 0.36598,-0.123001 0.65564,-0.232899 0.64369,-0.244217 -0.0313,-0.02966 -3.13075,0.488867 -3.83038,0.640811 -1.25152,0.271798 -2.279,0.557758 -3.66516,1.020054 -0.79158,0.263999 -1.45397,0.46526 -1.47198,0.447248 -0.035,-0.03501 1.75846,-0.948266 2.42845,-1.236604 0.6743,-0.290192 2.15887,-0.865144 4.10351,-1.589227 1.05828,-0.394052 2.12619,-0.84968 2.49428,-1.064202 3.8275,-2.2306067 8.64841,-3.9351477 13.47721,-4.7651747 2.68367,-0.461298 4.90528,-0.646624 7.76447,-0.647707 3.28783,-0.0012 5.537529,0.311447 8.166784,1.135121 2.239962,0.701723 4.692362,1.897133 6.217232,3.0305597 0.25535,0.189804 0.50535,0.319716 0.55554,0.288694 0.0502,-0.03102 0.0695,-0.02122 0.0429,0.02179 -0.0266,0.04301 0.27384,0.375303 0.6676,0.738436 2.32372,2.142986 3.84848,4.810526 4.5164,7.901353 0.15164,0.701684 0.18254,1.0955 0.18598,2.370256 0.003,0.966061 -0.0363,1.748107 -0.10584,2.124696 l -0.10997,0.595939 0.54587,0.490283 c 0.30022,0.269656 0.60316,0.491975 0.67319,0.494042 0.07,0.0021 0.11926,0.0444 0.10939,0.09407 -0.0234,0.117764 1.55034,1.480928 1.62431,1.406961 0.0311,-0.03107 0.0444,-0.01728 0.0297,0.03064 -0.0148,0.04793 0.31715,0.377677 0.73756,0.732779 0.42041,0.355102 1.08781,0.938515 1.48311,1.296474 0.39531,0.357959 0.74923,0.631992 0.78649,0.608962 0.0373,-0.02303 0.0578,-0.0098 0.0456,0.02939 -0.0122,0.0392 0.57482,0.612154 1.30441,1.27324 1.407,1.274894 3.58443,3.406549 4.63719,4.539685 0.34875,0.375377 0.67029,0.671071 0.71455,0.657098 0.0443,-0.01397 0.0542,8.91e-4 0.022,0.03303 -0.0836,0.08356 0.90214,1.172082 1.00424,1.108985 0.0518,-0.032 0.0608,-0.01353 0.0231,0.04742 -0.0677,0.109579 0.42071,0.670056 0.5268,0.604493 0.0342,-0.02113 0.0883,0.004 0.12037,0.05579 0.0364,0.05883 0.0233,0.07265 -0.0347,0.03679 -0.19223,-0.118807 -0.0802,0.07498 0.29425,0.509071 0.21293,0.246827 0.75178,0.926744 1.19746,1.510927 0.44567,0.584182 0.83569,1.036775 0.86671,1.005761 0.031,-0.03101 0.0443,-0.01845 0.0296,0.02792 -0.0413,0.129937 1.55316,2.37245 1.64605,2.315035 0.045,-0.02784 0.0577,-0.01142 0.0281,0.03647 -0.0296,0.0479 0.21262,0.497032 0.53827,0.998078 0.32565,0.501046 0.85789,1.363585 1.18276,1.916754 0.32486,0.553169 0.62921,1.032362 0.67633,1.064875 0.0471,0.03251 0.0594,0.05967 0.0274,0.06035 -0.032,6.77e-4 0.0539,0.191321 0.19105,0.423651 1.14212,1.935167 3.75683,7.754105 3.08629,6.868417 -0.54793,-0.723731 -2.78902,-3.0282 -2.88639,-2.96802 -0.0418,0.02582 -0.0516,0.0076 -0.0219,-0.04045 0.0297,-0.04806 -0.0213,-0.140152 -0.1134,-0.204642 -0.0921,-0.06449 -0.37328,-0.311387 -0.62492,-0.548661 -0.25163,-0.237274 -0.71096,-0.648107 -1.02074,-0.912962 -0.30977,-0.264856 -0.58133,-0.500683 -0.60345,-0.524061 -0.13384,-0.141407 -2.08364,-1.664261 -2.65521,-2.073806 -0.37616,-0.269521 -0.77805,-0.563164 -0.89309,-0.652538 -0.56418,-0.438313 -2.61638,-1.774132 -4.05526,-2.639663 -2.0957,-1.260624 -2.99032,-1.74077 -3.10797,-1.668056 -0.0599,0.037 -0.0737,0.02419 -0.0374,-0.03456 0.0608,-0.09834 -3.29861,-1.786024 -5.14209,-2.583287 -0.53104,-0.229663 -1.07415,-0.466227 -1.20691,-0.525698 -0.13276,-0.05947 -0.71208,-0.295694 -1.28738,-0.52494 -5.48183,-2.184424 -11.16868,-3.698501 -14.845032,-3.952365 -1.235054,-0.08529 -1.397714,-0.07965 -2.333364,0.0809 -0.79,0.135551 -1.07318,0.21992 -1.32002,0.393282 -0.73604,0.516925 -0.85773,1.115662 -0.37195,1.829928 0.69983,1.028981 1.83933,1.893164 4.347178,3.296855 2.73622,1.531514 4.565318,2.757501 6.204158,4.158459 0.24815,0.212138 0.47445,0.368484 0.50288,0.347435 0.0284,-0.02105 0.0404,-0.02092 0.0265,2.75e-4 -0.0138,0.0212 0.48804,0.555261 1.11527,1.186799 1.32872,1.337863 2.04815,2.20958 2.97297,3.602309 3.39198,5.108151 4.8876,11.900191 4.0226,18.267768 -0.15656,1.152502 -0.49067,2.848824 -0.69668,3.537139 -0.0861,0.287647 -0.23123,0.776448 -0.32255,1.086222 -0.48941,1.660259 -1.67926,4.247354 -2.67703,5.820678 -0.29024,0.457656 -0.50682,0.865886 -0.4813,0.907179 0.0255,0.04129 0.0103,0.06513 -0.0337,0.05297 -0.0748,-0.02063 -0.69017,0.732847 -0.7623,0.93333 -0.0179,0.0498 -0.0556,0.06949 -0.0837,0.04373 -0.0281,-0.02575 0.11324,-0.333513 0.31413,-0.683917 0.87992,-1.534803 1.70609,-3.503776 2.2112,-5.269872 1.20796,-4.223583 1.22687,-8.68104 0.0541,-12.746785 l -0.25531,-0.88507 -0.0553,0.362074 c -0.0304,0.199141 -0.058,0.60523 -0.0613,0.902419 -0.008,0.715533 -0.20715,2.137247 -0.4599,3.281549 -0.56893,2.575712 -1.75243,5.34173 -3.23575,7.562425 -0.36982,0.553664 -0.67457,1.049909 -0.67721,1.102768 -0.003,0.05286 -0.0281,0.08906 -0.0566,0.08046 -0.0285,-0.0086 -0.3015,0.292117 -0.60665,0.668272 -0.30515,0.376155 -0.71933,0.860259 -0.9204,1.075787 -0.20108,0.215528 -0.3608,0.440405 -0.35495,0.499726 0.006,0.05932 -0.0192,0.100224 -0.0558,0.0909 -0.11409,-0.02914 -1.44287,1.24643 -1.38908,1.333458 0.0281,0.04538 0.0165,0.06119 -0.0257,0.03512 -0.0422,-0.02606 -0.27589,0.122613 -0.51938,0.330392 -0.2435,0.207778 -0.875371,0.695487 -1.404174,1.083798 -3.704752,2.720474 -7.912792,4.554853 -12.968882,5.653434 -0.4971,0.108009 -0.9859,0.195259 -1.08622,0.193888 -0.10032,-0.0014 0.65088,-0.426809 1.66933,-0.945416 z M -93.819684,59.14008 c -0.28811,-0.505804 -1.40324,-2.221813 -1.47711,-2.273021 -0.0319,-0.02213 -0.10346,-0.126416 -0.15898,-0.231755 -0.0555,-0.105339 -0.474372,-0.653827 -0.930776,-1.218861 -0.845538,-1.046787 -0.893607,-1.105119 -1.489919,-1.808049 -0.187707,-0.221268 -1.163193,-1.289387 -2.167751,-2.373597 -3.29017,-3.55107 -4.60426,-5.089885 -5.84041,-6.839178 -2.24045,-3.170512 -3.09697,-5.341139 -2.98445,-7.563325 0.0555,-1.096972 0.19186,-1.718006 0.59116,-2.693159 0.49213,-1.20184 1.09493,-2.141547 2.18731,-3.409804 0.37796,-0.438812 0.72385,-0.962373 1.0259,-1.552886 0.25064,-0.48998 0.57967,-1.0751 0.7312,-1.300266 0.15152,-0.225167 0.28215,-0.432686 0.29027,-0.461154 0.0259,-0.09066 -1.82534,-1.516529 -1.90499,-1.467297 -0.042,0.02596 -0.0531,0.0096 -0.0247,-0.0364 0.0633,-0.102414 -1.34855,-1.325882 -1.43746,-1.245659 -0.0349,0.03149 -0.0406,0.01721 -0.0127,-0.03175 0.0604,-0.105944 -0.86305,-1.017337 -0.94637,-0.934025 -0.0316,0.03163 -0.0482,0.02129 -0.0369,-0.02296 0.0113,-0.04425 -0.40582,-0.51495 -0.92696,-1.045992 -0.52114,-0.531042 -1.27033,-1.332498 -1.66486,-1.781013 -0.79921,-0.908566 -1.01626,-1.039464 -2.1831,-1.316589 -3.72284,-0.884173 -6.93454,0.182655 -9.03915,3.002533 -0.60976,0.816995 -1.33903,2.18069 -1.33744,2.500965 0.002,0.414102 0.18738,3.536642 0.26013,4.382757 0.31511,3.664927 1.09733,6.539922 2.60422,9.571557 2.14625,4.317952 5.31836,7.5013 11.08399,11.123243 0.7177,0.450855 0.92653,0.575985 1.67878,1.00592 0.24339,0.139107 0.7684,0.443448 1.16668,0.676312 0.39828,0.232865 1.06812,0.599653 1.48853,0.815086 0.42041,0.215433 0.84388,0.47657 0.94105,0.580305 0.0972,0.103736 1.29009,0.746761 2.65093,1.428945 2.247385,1.126605 3.162845,1.616327 3.971342,2.124452 0.154887,0.09734 0.716102,0.445143 1.247144,0.772888 0.531042,0.327745 1.38192,0.910001 1.89083,1.293903 0.50892,0.383902 0.93588,0.700717 0.94881,0.704033 0.0129,0.0033 -0.0745,-0.165956 -0.19419,-0.37616 z m 1.6074,-32.843723 c 0.34766,-0.09463 0.93287,-0.320448 1.30046,-0.501819 l 0.66835,-0.329765 -0.37532,-0.296673 c -0.52466,-0.414721 -1.09085,-1.061568 -1.56822,-1.791629 l -0.40691,-0.622308 -0.13494,0.501616 c -0.0742,0.275889 -0.17382,0.598249 -0.22134,0.716356 -0.0833,0.207119 -0.0667,0.226641 0.46869,0.550126 0.30529,0.184463 0.58691,0.31572 0.6258,0.291681 0.0389,-0.02404 0.0707,0.0073 0.0707,0.06963 0,0.07772 -0.26763,0.176308 -0.85154,0.313694 -1.30072,0.306039 -1.74246,0.370496 -2.5391,0.370496 -1.14672,0 -2.020179,-0.295276 -2.768678,-0.935964 -0.170492,-0.145935 -0.332861,-0.248496 -0.36082,-0.227912 -0.02796,0.02058 -0.03492,0.01548 -0.01548,-0.01134 0.01944,-0.02682 -0.104395,-0.225562 -0.2752,-0.441647 -0.739105,-0.935034 -0.934508,-1.464613 -1.246721,-3.37883 -0.260307,-1.595948 -0.472287,-2.264619 -0.865107,-2.728864 -0.31141,-0.368043 -1.00336,-0.869593 -1.80287,-1.306798 -0.49746,-0.272033 -0.88962,-0.518637 -0.87147,-0.548009 0.077,-0.124592 2.21636,-0.27693 3.859329,-0.274812 1.902294,0.0025 2.565989,0.08344 3.933407,0.479949 0.902,0.261554 1.45479,0.522492 1.96138,0.925848 0.21936,0.17466 0.42202,0.30042 0.45035,0.279467 0.0283,-0.02095 0.0342,-0.01474 0.013,0.01382 -0.0212,0.02855 0.0877,0.223783 0.24185,0.433842 0.35779,0.487402 0.66994,1.169889 0.84247,1.841951 l 0.13571,0.528654 0.061,-0.348111 c 0.0463,-0.264131 0.0191,-0.478485 -0.11273,-0.888533 -0.2153,-0.669574 -0.7541,-1.667603 -0.88421,-1.63784 -0.0532,0.01216 -0.0768,-0.01 -0.0526,-0.04912 0.13356,-0.216105 -1.22383,-1.208083 -2.16428,-1.581648 -1.34982,-0.536179 -2.270824,-0.687615 -5.149496,-0.846706 -2.63335,-0.145534 -5.67747,-0.565115 -7.36217,-1.014755 -0.31336,-0.08363 -0.18751,-0.002 0.76438,0.495817 2.09135,1.093738 3.2292,1.86493 4.11522,2.789153 1.00856,1.052055 1.5283,2.12039 1.88485,3.874359 0.32894,1.618124 0.80617,2.562183 1.779799,3.520816 0.935084,0.920679 2.125533,1.546172 3.524884,1.852066 0.913793,0.199753 2.420243,0.160704 3.327553,-0.08625 z m -1.22768,-3.902726 0.28949,-0.047 -0.0619,-0.391826 c -0.0886,-0.560448 -0.36835,-1.082586 -0.54221,-1.011982 -0.0747,0.03032 -0.23874,0.09237 -0.36459,0.137873 -0.21794,0.0788 -0.22645,0.10042 -0.17889,0.45442 0.13805,1.027352 0.12323,0.987913 0.35523,0.944998 0.11737,-0.02171 0.34368,-0.06063 0.50291,-0.08648 z m -5.2081,-1.278767 c 0.06977,-0.166994 0.202537,-0.409901 0.295028,-0.539792 0.09305,-0.130669 0.142159,-0.28134 0.109947,-0.337292 -0.03202,-0.05562 -0.02946,-0.07516 0.0057,-0.04342 0.03514,0.03174 0.223205,-0.08252 0.417912,-0.253909 0.545232,-0.479933 1.012866,-0.668988 1.756664,-0.710184 0.713919,-0.03954 1.404569,0.136813 2.011519,0.51363 l 0.32185,0.19981 -0.32185,-0.282623 c -0.77623,-0.681643 -1.709738,-0.952064 -3.918598,-1.13516 -0.809754,-0.06712 -1.52157,-0.13991 -1.581814,-0.161751 -0.07736,-0.02805 -0.09305,0.0019 -0.05341,0.102006 0.115569,0.291813 0.275475,1.216756 0.359495,2.079422 0.04777,0.490441 0.140758,1.098681 0.206647,1.351646 0.06589,0.252964 0.124556,0.485324 0.130372,0.516355 0.0058,0.03103 0.03828,-0.180174 0.07213,-0.469345 0.03386,-0.289171 0.118647,-0.662397 0.188422,-0.829392 z m 2.724778,-0.148525 c 0.428142,-0.128275 0.593082,-0.385473 0.496872,-0.774827 -0.0673,-0.27224 -0.099,-0.298343 -0.391495,-0.3222 -0.496755,-0.04051 -0.827829,0.05306 -1.131714,0.319877 -0.327965,0.287958 -0.343667,0.384389 -0.09886,0.607117 0.311898,0.283762 0.600191,0.327327 1.125193,0.170033 z m -41.005664,30.287562 c -1.65604,-3.575013 -2.40152,-6.955796 -2.40824,-10.921558 -0.005,-2.815695 0.30165,-4.827241 1.12766,-7.402403 0.78152,-2.436479 2.07261,-4.871583 3.46616,-6.537449 0.19435,-0.232331 0.34116,-0.42242 0.32624,-0.42242 -0.0149,0 0.19892,-0.239788 0.4752,-0.532861 0.27627,-0.293073 0.47922,-0.570223 0.451,-0.615889 -0.0282,-0.04566 -0.0179,-0.06236 0.023,-0.03709 0.0409,0.02527 0.29087,-0.149857 0.55554,-0.389161 0.52875,-0.478076 0.70081,-0.556519 0.47217,-0.215254 -0.96878,1.445927 -2.33661,4.046588 -2.9729,5.652379 -1.81372,4.577216 -2.62595,9.807491 -2.28659,14.724346 0.17325,2.510091 0.69476,5.468937 1.32955,7.54321 0.0305,0.09957 0.024,0.180583 -0.0143,0.180027 -0.0384,-5.56e-4 -0.28337,-0.462201 -0.54448,-1.025877 z"
         id="path7" /><path
         style="fill:#000f71;fill-opacity:1"
         d="m -108.95275,84.569469 c 0.86526,-0.439209 1.86096,-0.971885 2.21267,-1.183726 1.23452,-0.743561 2.7353,-1.828183 2.32916,-1.683288 -3.57224,1.274431 -6.78835,2.047969 -9.49439,2.283591 -1.07849,0.09391 -3.75253,0.114216 -4.34507,0.033 -0.37755,-0.05175 -0.36691,-0.05632 0.57212,-0.245504 1.16625,-0.234966 2.15736,-0.559719 3.16893,-1.038355 0.74413,-0.352089 1.56178,-0.830222 1.50937,-0.882628 -0.0143,-0.01434 -0.29632,0.04295 -0.62663,0.127318 -0.8799,0.224737 -2.63849,0.534844 -3.6983,0.652154 -1.00945,0.111735 -4.8993,0.136588 -5.06791,0.03238 -0.065,-0.04015 0.36187,-0.207473 1.13415,-0.444599 4.53116,-1.39127 7.85371,-3.052568 10.69098,-5.34556 3.19605,-2.582945 5.07129,-6.055903 5.07021,-9.390061 -7.9e-4,-2.417412 -0.71456,-4.713296 -2.43898,-7.845171 l -0.49441,-0.897942 -0.80441,-0.389433 c -2.49397,-1.207377 -5.68743,-3.177476 -7.96894,-4.916181 -2.63596,-2.008817 -5.36064,-4.721256 -7.11304,-7.081084 -0.2388,-0.321578 -0.44761,-0.571258 -0.46403,-0.554844 -0.0407,0.04069 0.18919,2.108861 0.37816,3.402296 0.72545,4.965291 1.63027,9.350674 2.54625,12.340891 0.40523,1.32287 0.40363,1.294552 0.052,0.917205 -0.46415,-0.498101 -1.98231,-2.588914 -2.76924,-3.813798 -3.15869,-4.916674 -5.06428,-9.765398 -5.81839,-14.804807 -0.34564,-2.309804 -0.40972,-3.37843 -0.40768,-6.798947 l 0.002,-3.218436 -0.18031,1.126452 c -0.56144,3.507526 -0.7649,6.040307 -0.77237,9.615079 -0.008,4.023111 0.29516,7.127902 1.06291,10.871045 0.0852,0.415174 0.14372,0.765974 0.13014,0.779556 -0.0439,0.04389 -0.33947,-0.482928 -0.87567,-1.560741 -2.75578,-5.539383 -3.69486,-12.685297 -2.70053,-20.549778 0.43011,-3.401884 1.28295,-6.4314 2.52556,-8.971392 1.25973,-2.575014 2.51504,-4.055589 4.66856,-5.506352 2.03263,-1.369329 4.29741,-2.39111 7.43403,-3.353957 0.0617,-0.01892 0.0971,-0.04937 0.0789,-0.06765 -0.0466,-0.0466 -1.90292,0.302204 -2.72547,0.51212 -3.66987,0.936568 -7.46801,2.900493 -11.12278,5.751315 -0.76484,0.596601 1.63614,-1.775145 2.67439,-2.64182 1.50672,-1.257735 3.31196,-2.488927 5.07905,-3.46398 0.45916,-0.253352 0.85293,-0.479529 0.87506,-0.502615 0.0682,-0.07117 -1.19501,0.06185 -2.17095,0.228609 -2.63192,0.449721 -5.17779,1.371807 -7.08206,2.56504 -2.255,1.413004 -4.41152,3.54387 -6.36276,6.287068 -0.40572,0.570381 -0.75283,1.037057 -0.77135,1.037057 -0.0355,0 0.20057,-0.420174 0.72338,-1.287375 0.4613,-0.765156 1.28738,-1.943759 1.97383,-2.816132 0.73565,-0.934897 2.70414,-2.912751 3.63229,-3.649568 2.1086,-1.673921 4.33968,-2.900247 7.04033,-3.869758 0.5753,-0.206526 1.22703,-0.443857 1.4483,-0.527402 l 0.4023,-0.151899 -0.28831,-0.0042 c -0.15857,-0.0023 -0.48443,0.03084 -0.72414,0.07365 -0.23972,0.04282 -0.88844,0.15535 -1.4416,0.250076 -1.91512,0.327949 -4.22973,0.920887 -5.75252,1.47363 -0.30677,0.111352 -0.57068,0.189545 -0.58646,0.173763 -0.0158,-0.01578 0.41738,-0.245549 0.96258,-0.510592 1.03638,-0.503821 2.91519,-1.268241 4.69248,-1.909195 1.77313,-0.639455 2.40344,-0.907428 3.14635,-1.337648 1.78252,-1.03226 4.56816,-2.2797367 6.75034,-3.0229617 5.85481,-1.994083 13.22533,-2.821327 18.42554,-2.068028 4.600968,0.666492 8.716695,2.44039 11.510111,4.9609097 2.334299,2.106258 4.026132,5.149149 4.548956,8.18165 0.197129,1.143394 0.214443,3.005347 0.03784,4.069775 -0.111604,0.672682 -0.110323,0.733313 0.01803,0.853093 0.07599,0.07092 1.713189,1.503784 3.638216,3.184144 3.817063,3.331922 5.313746,4.706708 7.047954,6.473929 5.666782,5.77466 10.205657,12.569799 13.079361,19.58108 l 0.395796,0.965666 -0.50116,-0.563226 c -1.51928,-1.707435 -3.966038,-4.03037 -5.756588,-5.465264 -7.844114,-6.286042 -18.941662,-11.436355 -29.06918,-13.490851 -1.611586,-0.32693 -2.908539,-0.475382 -4.142322,-0.474138 -2.319054,0.0023 -3.502284,0.543844 -3.516994,1.609552 -0.006,0.430969 0.37203,0.988665 1.20979,1.78502 0.75675,0.719342 1.31816,1.096702 3.386577,2.276303 1.736709,0.990432 3.034765,1.784222 3.86657,2.364493 4.09679,2.857935 6.80566,5.955354 8.689394,9.935761 3.665049,7.744397 3.380667,17.24906 -0.736982,24.631593 -0.477777,0.856606 -1.729788,2.776174 -1.81072,2.776174 -0.02188,0 0.03072,-0.117674 0.116906,-0.261498 1.009435,-1.684594 2.017092,-4.172052 2.517912,-6.215605 0.973077,-3.970558 0.957568,-7.815691 -0.04682,-11.609104 -0.470416,-1.776682 -0.487354,-1.788488 -0.544598,-0.379572 -0.150861,3.71313 -1.296307,7.342556 -3.378132,10.703849 -3.22769,5.211392 -8.597235,9.171494 -15.468027,11.407848 -1.51688,0.493725 -2.92764,0.856358 -4.78742,1.230598 -0.11063,0.02226 0.50679,-0.318875 1.37204,-0.758083 z m 14.877368,-25.849121 c -0.270725,-0.458562 -0.743452,-1.190138 -1.050503,-1.625724 -0.307052,-0.435587 -0.533847,-0.831501 -0.50399,-0.879811 0.02986,-0.04831 0.01858,-0.06577 -0.02505,-0.0388 -0.04364,0.02697 -0.293631,-0.227617 -0.555543,-0.565747 -0.898728,-1.160266 -2.403514,-2.861936 -5.417972,-6.126852 -0.42402,-0.459256 -0.76599,-0.884304 -0.75992,-0.94455 0.006,-0.06024 -0.0189,-0.09106 -0.0554,-0.06849 -0.17273,0.106752 -2.7872,-3.082743 -3.89344,-4.749745 -1.30995,-1.973986 -1.90133,-3.156841 -2.31308,-4.626503 -0.21547,-0.7691 -0.2888,-2.367691 -0.14555,-3.173056 0.30471,-1.713028 1.16574,-3.380208 2.62609,-5.084758 0.40144,-0.468579 0.76673,-1.021299 1.12934,-1.708848 0.29478,-0.558939 0.64267,-1.173699 0.77308,-1.366135 0.27832,-0.410703 0.38612,-0.26021 -0.98844,-1.379975 -2.05114,-1.670929 -4.24423,-3.783021 -5.87151,-5.654658 -0.75949,-0.873539 -0.85658,-0.928285 -2.25504,-1.271539 -0.6569,-0.161237 -0.97369,-0.188108 -2.25291,-0.191102 -1.30862,-0.0031 -1.57605,0.0193 -2.21267,0.185058 -0.90024,0.23439 -2.01934,0.757126 -2.65901,1.242034 -1.03012,0.780894 -2.13994,2.108182 -2.72012,3.253131 -0.33038,0.651977 -0.91235,2.186957 -1.17487,3.098744 -1.22286,4.247431 -0.79126,9.422115 1.17116,14.041566 0.52156,1.227735 0.75236,1.551878 1.54978,2.176535 2.94632,2.307984 6.09249,4.340844 9.98831,6.453832 1.11899,0.606904 5.82848,2.977065 5.91541,2.977065 0.11491,0 6.157535,3.044077 6.941523,3.496909 1.941005,1.121125 4.006146,2.47892 4.844466,3.185153 0.199141,0.167763 0.372426,0.276897 0.385078,0.242519 0.01265,-0.03438 -0.198498,-0.437693 -0.469224,-0.896255 z m 23.882565,-15.70375 c -1.494888,-2.720967 -3.377967,-5.432969 -5.740444,-8.267359 -1.373182,-1.64748 -2.110967,-2.462451 -4.261171,-4.706963 -1.969142,-2.055508 -3.017783,-3.214082 -3.782409,-4.178931 -0.300497,-0.379184 -0.558473,-0.67731 -0.573281,-0.662503 -0.10976,0.10976 1.162842,2.674631 2.092095,4.216523 0.378954,0.62879 0.663417,1.159071 0.632141,1.178401 -0.03128,0.01933 -0.581676,-0.349133 -1.223109,-0.818807 -0.641433,-0.469674 -1.643649,-1.204122 -2.227146,-1.632107 -1.009886,-0.740735 -1.085336,-0.780768 -1.568987,-0.832487 -0.476754,-0.05098 -1.70973,0.05213 -2.203964,0.184303 -0.209779,0.0561 -0.168176,0.09665 0.799671,0.779399 3.811599,2.688809 5.724197,4.097307 5.596993,4.121804 -0.06553,0.01262 -0.669944,-0.23124 -1.34315,-0.54191 -3.897401,-1.79857 -7.567625,-3.095831 -15.255072,-5.391992 -2.7198,-0.812378 -2.65519,-0.737591 0.351299,0.406605 9.10327,3.464481 17.186253,7.785265 24.057809,12.860175 0.778508,0.574958 3.110198,2.44907 4.143736,3.330556 0.442535,0.37743 0.829196,0.689233 0.859247,0.692896 0.03005,0.0037 -0.129366,-0.328259 -0.354258,-0.737603 z M -92.526271,26.412257 c 0.661404,-0.150433 1.777705,-0.601352 2.075315,-0.838304 0.19704,-0.156879 0.197863,-0.162056 0.04023,-0.253241 -0.386018,-0.223299 -1.334079,-1.246996 -1.773907,-1.915428 -0.416459,-0.632916 -0.485073,-0.703473 -0.530062,-0.545067 -0.02842,0.100078 -0.128131,0.42712 -0.221575,0.72676 -0.09344,0.299641 -0.169897,0.573939 -0.169897,0.609553 0,0.03561 0.252614,0.206838 0.561364,0.380499 0.308751,0.173662 0.562202,0.339887 0.563227,0.36939 0.0019,0.05594 -1.028239,0.309833 -1.9292,0.47546 -0.838316,0.154111 -2.12493,0.121614 -2.715405,-0.06859 -1.262098,-0.406537 -2.37456,-1.573493 -2.889471,-3.031014 -0.06336,-0.179352 -0.205008,-0.88731 -0.31477,-1.573239 -0.421628,-2.634865 -0.718228,-3.106969 -2.635398,-4.194834 l -0.94084,-0.533863 0.34271,-0.04968 c 1.86189,-0.269919 4.540508,-0.295267 5.93637,-0.05618 1.858152,0.318273 2.976271,0.788962 3.751735,1.579349 0.67771,0.69075 1.007733,1.392036 1.323635,2.812672 0.137767,0.619549 0.332142,1.343697 0.431944,1.609218 0.816557,2.172433 2.132237,3.486801 3.762939,3.759192 0.613289,0.102442 1.013573,0.01067 1.50448,-0.344945 0.369048,-0.267337 0.761565,-0.978776 0.715091,-1.296108 -0.02202,-0.15036 -0.0595,-0.122493 -0.257083,0.191135 -0.877043,1.392159 -2.436651,1.333534 -3.884479,-0.146015 -0.766874,-0.783671 -1.351587,-1.941573 -1.762803,-3.490859 -0.799807,-3.013331 -1.337564,-3.824685 -3.133032,-4.727043 -1.222325,-0.61431 -2.445055,-0.853855 -5.229959,-1.024598 -2.258808,-0.138488 -3.245368,-0.232938 -4.634878,-0.443729 -1.05522,-0.160079 -3.22683,-0.589095 -3.47155,-0.685827 -0.0774,-0.03061 -0.14078,-0.02463 -0.14075,0.0133 3e-5,0.03793 0.40736,0.277361 0.90518,0.532082 2.28595,1.169653 3.27877,1.824841 4.29196,2.832379 1.10403,1.097873 1.54443,1.971108 2.00073,3.967103 0.14909,0.652182 0.34624,1.359913 0.43811,1.572735 0.42498,0.984543 1.347799,2.091392 2.258442,2.708822 1.017705,0.690019 1.96369,1.025457 3.502254,1.241867 0.429181,0.06037 1.635005,-0.02777 2.229343,-0.162949 z m -1.98796,-1.740175 c 0.492288,-0.254446 0.946519,-0.717438 1.12543,-1.14714 0.204377,-0.490863 0.247704,-1.371189 0.09358,-1.90136 -0.138692,-0.477083 -0.475917,-0.92061 -0.62834,-0.826408 -0.05613,0.03469 -0.07066,0.0218 -0.03693,-0.03278 0.07105,-0.114962 -0.60487,-0.610324 -1.019509,-0.747167 -0.254097,-0.08386 -0.322775,-0.08342 -0.375822,0.0024 -0.05015,0.08114 -0.08408,0.07081 -0.149233,-0.04544 -0.06785,-0.121071 -0.175773,-0.14953 -0.552511,-0.145701 -0.542682,0.0055 -0.901975,0.166962 -1.151536,0.517438 l -0.173039,0.243012 0.240968,0.240967 c 0.207528,0.207529 0.300445,0.240899 0.669576,0.240473 0.457397,-5.29e-4 0.832229,-0.149522 1.008196,-0.40075 0.104253,-0.148842 0.125085,-0.143663 0.577331,0.143531 l 0.469175,0.297945 0.04944,0.624254 c 0.02719,0.343339 0.09089,0.701701 0.141551,0.796359 0.151043,0.282227 -0.04374,0.75629 -0.496974,1.209522 -0.610673,0.610674 -1.426682,0.883829 -2.152874,0.720664 -0.183656,-0.04127 -0.333921,-0.0617 -0.333921,-0.04542 0,0.03939 0.462191,0.289948 0.764379,0.414369 0.414279,0.170573 1.460232,0.08457 1.931062,-0.158786 z m -4.333792,-2.575957 c 0.02355,-1.065649 0.68442,-2.076711 1.664767,-2.546905 0.91598,-0.439322 1.71621,-0.400728 2.804812,0.135274 0.6557,0.322851 0.667594,0.262531 0.04542,-0.230351 -0.692192,-0.548347 -1.620862,-0.799556 -3.520332,-0.952263 -0.597422,-0.04803 -1.277035,-0.109441 -1.510252,-0.136469 l -0.424029,-0.04914 0.0841,0.221199 c 0.143556,0.377583 0.228714,0.850391 0.31862,1.769038 0.100713,1.029052 0.212709,1.634919 0.373241,2.019128 0.06297,0.150704 0.123054,0.273722 0.133523,0.273372 0.01047,-3.5e-4 0.02403,-0.226646 0.03013,-0.502881 z m -18.405847,-9.614547 c 0.2826,-0.306015 1.17812,-1.092227 1.60767,-1.411442 0.82111,-0.610197 1.00552,-0.721914 2.1661,-1.3122827 1.65759,-0.843186 3.57015,-1.442768 5.60936,-1.758515 1.15651,-0.17907 3.32749,-0.364772 4.26443,-0.364772 0.81036,0 2.93346,0.171151 3.954897,0.318819 0.666947,0.09642 0.853208,0.0972 0.618624,0.0026 -0.241711,-0.09748 -2.213901,-0.382346 -3.326371,-0.480461 -1.20261,-0.106064 -3.97694,-0.105648 -5.28593,7.92e-4 -3.11887,0.253609 -6.24605,0.8848 -8.23151,1.66145 -1.10771,0.433302 -2.69439,1.2469007 -3.57376,1.8325127 -0.84103,0.560075 -1.96051,1.400949 -1.88772,1.417918 0.1719,0.04007 2.69167,0.212905 3.23937,0.222189 0.58802,0.01 0.73778,-0.01286 0.84484,-0.128797 z M -136.93901,51.2644 c -1.11242,-2.350273 -1.84342,-4.842927 -2.23589,-7.62423 -0.20134,-1.426808 -0.24225,-4.348555 -0.0817,-5.833416 0.54986,-5.084881 2.51076,-9.456734 5.74996,-12.819616 0.2484,-0.257876 0.59646,-0.583743 0.77347,-0.724148 0.28836,-0.22872 0.30723,-0.234352 0.18139,-0.05413 -0.0773,0.110634 -0.4285,0.677875 -0.78055,1.260536 -2.25745,3.736181 -3.62451,7.7385 -4.27583,12.518314 -0.21459,1.574822 -0.30034,5.399311 -0.15885,7.085443 0.17433,2.077681 0.54394,4.252276 1.04194,6.130342 0.12907,0.486789 0.22592,0.894374 0.2152,0.905745 -0.0107,0.01137 -0.20384,-0.368807 -0.42915,-0.84484 z"
         id="path2" /></g></g></svg>
