<?xml version="1.0" encoding="UTF-8" standalone="no"?>
<!-- Created with Inkscape (http://www.inkscape.org/) -->

<svg
   width="105.83334mm"
   height="105.83334mm"
   viewBox="0 0 105.83333 105.83333"
   version="1.1"
   id="svg1"
   xml:space="preserve"
   inkscape:version="1.4.2 (ebf0e940d0, 2025-05-08)"
   sodipodi:docname="new_jersey.svg"
   inkscape:export-filename="../pngs/boston.png"
   inkscape:export-xdpi="96"
   inkscape:export-ydpi="96"
   xmlns:inkscape="http://www.inkscape.org/namespaces/inkscape"
   xmlns:sodipodi="http://sodipodi.sourceforge.net/DTD/sodipodi-0.dtd"
   xmlns="http://www.w3.org/2000/svg"
   xmlns:svg="http://www.w3.org/2000/svg"><sodipodi:namedview
     id="namedview1"
     pagecolor="#ffffff"
     bordercolor="#000000"
     borderopacity="0.25"
     inkscape:showpageshadow="2"
     inkscape:pageopacity="0.0"
     inkscape:pagecheckerboard="0"
     inkscape:deskcolor="#d1d1d1"
     inkscape:document-units="mm"
     inkscape:zoom="1.1157835"
     inkscape:cx="233.02012"
     inkscape:cy="154.15177"
     inkscape:window-width="1920"
     inkscape:window-height="1011"
     inkscape:window-x="0"
     inkscape:window-y="32"
     inkscape:window-maximized="1"
     inkscape:current-layer="layer2"
     showgrid="false" /><defs
     id="defs1"><inkscape:path-effect
       effect="bspline"
       id="path-effect18"
       is_visible="true"
       lpeversion="1.3"
       weight="33.333333"
       steps="2"
       helper_size="0"
       apply_no_weight="true"
       apply_with_weight="true"
       only_selected="false"
       uniform="false" /><inkscape:path-effect
       effect="bspline"
       id="path-effect17"
       is_visible="true"
       lpeversion="1.3"
       weight="33.333333"
       steps="2"
       helper_size="0"
       apply_no_weight="true"
       apply_with_weight="true"
       only_selected="false"
       uniform="false" /></defs><g
     inkscape:groupmode="layer"
     id="layer2"
     inkscape:label="Capa 2"><text
       xml:space="preserve"
       style="font-size:10.5833px;line-height:1;font-family:Sportsball;-inkscape-font-specification:Sportsball;text-align:center;letter-spacing:1.57692px;writing-mode:lr-tb;direction:ltr;text-anchor:middle;white-space:pre;inline-size:45.3146;display:inline;fill:#808080;stroke:none;stroke-width:2.896"
       x="59.618671"
       y="77.566704"
       id="text1-2"
       transform="translate(120.53306,7.3558763)"><tspan
         x="59.618671"
         y="77.566704"
         id="tspan2"><tspan
           dx="0 6.4647012 5.369164 5.3226562 8.9244938 5.4518428"
           style="font-family:'Ranked Sports';-inkscape-font-specification:'Ranked Sports'"
           id="tspan1">azzmen</tspan></tspan></text><g
       id="g7"
       transform="matrix(0.87760003,0,0,0.87760003,9.9089733,13.91624)"><rect
         style="fill:#b3b3b3;fill-opacity:1;fill-rule:evenodd;stroke-width:0.264583"
         id="rect3"
         width="61.368938"
         height="50.30241"
         x="17.438169"
         y="29.1754"
         ry="4.6820946" /><path
         style="fill:#0d2f6b;fill-opacity:1;stroke:#dadada;stroke-width:5.93758;stroke-dasharray:none;stroke-opacity:1"
         d="m 49.308585,99.495233 c -2.76428,-0.887188 -4.147195,-1.401084 -6.113978,-2.271976 -0.61454,-0.272122 -2.279868,-1.100379 -3.076056,-1.529896 -1.463117,-0.789299 -4.297346,-2.553774 -4.304453,-2.679776 -0.0022,-0.03294 0.145244,-0.109268 0.326892,-0.169613 0.181637,-0.06034 0.369027,-0.128823 0.416422,-0.152175 0.04742,-0.02336 0.486778,-0.183574 0.976439,-0.35604 1.426636,-0.502487 4.740568,-1.738157 5.025797,-1.873979 0.06315,-0.03008 0.373351,-0.156096 0.689252,-0.280024 0.315911,-0.123923 0.867236,-0.345171 1.225163,-0.491654 0.357927,-0.146479 0.810248,-0.331557 1.005164,-0.411282 0.194904,-0.07973 0.40607,-0.167913 0.469252,-0.195972 0.06315,-0.02806 0.670582,-0.288905 1.34979,-0.579665 1.494846,-0.639929 3.627204,-1.588816 4.566302,-2.031981 0.379084,-0.178894 0.999421,-0.471262 1.378504,-0.649702 1.72455,-0.811763 7.106865,-3.550144 7.639212,-3.886632 0.06326,-0.03994 0.347497,-0.196967 0.631823,-0.348955 0.779785,-0.416863 4.186219,-2.360415 4.709896,-2.687254 0.252719,-0.15773 0.5996,-0.364488 0.770829,-0.459454 0.17123,-0.09498 0.395476,-0.227062 0.498308,-0.293538 0.102865,-0.06647 0.33753,-0.2133 0.52151,-0.326275 1.066938,-0.6551 1.954461,-1.20897 2.459744,-1.535033 0.315901,-0.203856 0.880075,-0.567675 1.253724,-0.808485 0.613154,-0.395181 3.569247,-2.38796 4.151596,-2.798699 0.129819,-0.09151 0.478692,-0.336026 0.775417,-0.543352 2.085743,-1.457367 4.653875,-3.383875 4.608582,-3.457169 -0.02068,-0.03338 -0.01122,-0.04422 0.02167,-0.02412 0.06403,0.03963 0.532996,-0.274512 0.532996,-0.357087 0,-0.02771 0.0516,-0.0639 0.114879,-0.08041 0.149699,-0.03916 0.146641,-0.01448 -0.06018,0.484551 -0.3003,0.724478 -0.452904,1.140348 -0.418403,1.140348 0.01826,0 0.0011,0.03833 -0.03751,0.08518 -0.03895,0.04686 -0.271191,0.54441 -0.516219,1.105677 -1.152145,2.639087 -1.971877,4.261579 -3.432013,6.792979 -0.892749,1.54773 -2.516149,3.961933 -3.591965,5.34171 -0.18474,0.236932 -0.405553,0.520263 -0.490684,0.629622 -0.08515,0.109367 -0.466931,0.574606 -0.848412,1.03388 -3.208724,3.862977 -7.04849,7.190971 -11.2122,9.717775 -2.709987,1.644601 -5.213429,2.843015 -8.429656,4.03535 -0.921793,0.341728 -3.039046,1.010048 -3.178568,1.003326 -0.08273,-0.004 -0.266636,-0.04457 -0.408788,-0.0902 z M 29.882329,88.045091 c -0.798807,-0.79891 -1.478212,-1.446087 -1.509798,-1.438169 -0.03157,0.0079 -0.03994,-0.0031 -0.01859,-0.02445 0.02134,-0.02135 -0.309531,-0.438874 -0.735316,-0.927808 -0.728682,-0.836762 -1.753792,-2.097993 -2.320255,-2.85468 -0.24099,-0.321908 -0.247305,-0.340278 -0.143164,-0.416424 0.05996,-0.04382 0.131371,-0.07966 0.158787,-0.07966 0.02739,0 0.03135,-0.02985 0.0088,-0.06632 -0.0253,-0.04086 -0.01573,-0.05073 0.02464,-0.02572 0.06953,0.04298 0.425037,-0.140264 1.818811,-0.937473 2.278866,-1.303463 6.059762,-3.796458 8.6731,-5.718755 2.307867,-1.697593 3.451167,-2.566386 5.399148,-4.10278 2.565085,-2.023116 5.927292,-4.789192 6.07138,-4.994896 0.04665,-0.06656 0.09638,-0.109422 0.110534,-0.09525 0.01419,0.01418 0.539278,-0.411364 1.166899,-0.945638 l 1.141121,-0.971406 0.177743,0.124454 c 0.0978,0.06845 0.462057,0.333817 0.809554,0.589707 1.757313,1.294052 2.347781,1.71247 2.416629,1.71247 0.04159,0 0.07052,0.01921 0.06436,0.04271 -0.01122,0.04298 1.467177,1.134007 6.899891,5.091905 1.62131,1.181178 3.336738,2.431631 3.812064,2.778782 0.475325,0.34715 0.870305,0.623482 0.877754,0.614068 0.01122,-0.01471 -1.332738,-4.149453 -2.913265,-8.960012 -0.256337,-0.780205 -0.486943,-1.405652 -0.512455,-1.389883 -0.02552,0.01575 -0.03213,-0.0085 -0.01463,-0.05397 0.01749,-0.04546 -0.217744,-0.841594 -0.522621,-1.769194 -0.496503,-1.510596 -0.997715,-3.042954 -1.602794,-4.900286 -0.112789,-0.345973 -0.185597,-0.645824 -0.161955,-0.666333 0.02354,-0.02051 0.611614,-0.44694 1.306597,-0.947621 0.695017,-0.500683 2.155362,-1.556419 3.245239,-2.34608 2.153447,-1.560252 2.89257,-2.094761 6.835102,-4.942936 3.071677,-2.219049 3.13509,-2.266679 3.114572,-2.339133 -0.0088,-0.03065 0.0099,-0.03998 0.04071,-0.02074 0.03114,0.01923 0.165101,-0.04361 0.297704,-0.139666 l 0.241101,-0.174651 -9.270929,6.94e-4 c -5.099013,3.7e-4 -9.302141,5.23e-4 -9.340272,3.48e-4 -0.04005,-1.98e-4 -0.290476,-0.685129 -0.593296,-1.622959 C 54.647074,44.234897 54.247132,43.000704 54.046506,42.384684 53.84587,41.76865 53.445036,40.527994 53.15576,39.627658 52.62837,37.986163 52.28765,36.929945 51.664287,35.003913 50.842212,32.463959 50.106885,30.186681 49.9234,29.612461 l -0.199426,-0.624119 -0.241112,0.767714 c -0.132614,0.422242 -0.290212,0.909871 -0.350226,1.08362 -0.05996,0.17375 -0.240869,0.72946 -0.401911,1.234912 -0.161042,0.505452 -0.435236,1.358402 -0.609336,1.895445 -1.773474,5.470778 -2.543269,7.913757 -2.510418,7.966909 0.02222,0.03594 0.01309,0.0473 -0.02101,0.02622 -0.034,-0.02101 -0.0769,0.03137 -0.09869,0.120363 -0.03498,0.1434 -0.413265,1.326455 -1.202896,3.762463 l -0.293468,0.905332 -9.330855,-10e-4 c -5.175199,-5.65e-4 -9.306387,0.02085 -9.275934,0.04811 0.22693,0.203122 3.217756,2.325634 3.277033,2.325634 0.04148,0 0.06579,0.0158 0.0538,0.03512 -0.02673,0.04322 2.028161,1.536603 2.059262,1.496556 0.01232,-0.0158 0.07041,0.02955 0.129291,0.100752 0.05886,0.0712 0.318497,0.277984 0.577003,0.459501 0.258516,0.181519 1.447473,1.039656 2.64214,1.906974 1.194666,0.867317 2.541442,1.843948 2.992839,2.17029 0.453344,0.327756 0.849391,0.575622 0.884795,0.553743 0.03608,-0.02227 0.04819,-0.01382 0.02772,0.01926 -0.02002,0.03238 0.331391,0.324728 0.780895,0.649661 1.405469,1.015963 1.592695,1.156933 1.592695,1.199206 0,0.06679 -2.75538,3.442532 -3.583087,4.389805 -0.277769,0.317906 -0.327332,0.403469 -0.260992,0.45056 0.06678,0.04737 0.06414,0.05247 -0.01408,0.02754 -0.06953,-0.02214 -0.275646,0.178464 -0.746681,0.726502 -1.668969,1.941765 -3.00681,3.420412 -4.999095,5.525244 -3.082348,3.256481 -6.554451,6.520977 -9.767521,9.183509 -0.148159,0.122779 -0.253103,0.249538 -0.233223,0.281703 0.0209,0.03379 0.0077,0.04088 -0.03124,0.01682 -0.03994,-0.02468 -0.248285,0.108707 -0.511454,0.327462 -1.15428,0.959442 -2.773643,2.201347 -4.313464,3.308044 -0.192462,0.138329 -0.333536,0.278014 -0.313513,0.310423 0.02057,0.0333 0.0088,0.04157 -0.02816,0.01901 -0.03554,-0.02196 -0.433673,0.202503 -0.884795,0.498784 -2.270978,1.491494 -4.020094,2.400744 -5.4803182,2.848844 C 8.4422421,85.87357 7.975454,85.940529 7.2711628,85.911511 6.5516673,85.881861 6.1754337,85.741609 5.7408363,85.341005 4.5281271,84.22317 4.7407666,81.421889 6.3441436,77.392987 6.9331048,75.913074 8.4310314,72.720848 8.5795974,72.62903 c 0.075911,-0.04694 0.088013,-0.07787 -0.4241898,1.087939 -0.4104267,0.934149 -0.8469273,2.207221 -1.0016212,2.921237 -0.3507869,1.619059 -0.1480599,2.603049 0.6075539,2.948982 0.297077,0.135997 0.3671244,0.145311 0.8748715,0.116246 1.5586002,-0.08922 3.9148082,-1.389173 7.3008782,-4.027969 0.727131,-0.566657 2.536348,-2.083621 3.063777,-2.568853 l 0.335473,-0.308645 -0.326539,-0.717971 c -0.488957,-1.075101 -1.290986,-3.007435 -1.697562,-4.089916 -0.204565,-0.544642 -0.384936,-0.944396 -0.417149,-0.924489 -0.03124,0.01931 -0.03972,0.0074 -0.01881,-0.02628 0.0209,-0.03375 -0.232497,-0.871303 -0.563019,-1.86124 -1.042217,-3.121539 -1.896934,-6.267189 -2.591379,-9.53719 -0.121623,-0.572682 -0.23967,-1.002458 -0.270178,-0.983607 -0.03135,0.01941 -0.03839,-0.01636 -0.0165,-0.08508 0.02068,-0.0652 -0.02926,-0.461758 -0.111073,-0.881226 -0.310344,-1.591644 -0.656753,-3.718913 -1.003997,-6.165601 -0.208536,-1.469321 -0.507043,-4.266164 -0.689648,-6.461747 -0.04764,-0.572833 -0.228185,-3.189074 -0.230396,-3.338669 -2.75e-4,-0.01979 0.251486,-0.09333 0.559488,-0.163399 1.726881,-0.392856 4.956134,-1.213166 7.050492,-1.790998 0.694995,-0.19175 1.341164,-0.368255 1.435943,-0.392235 0.09483,-0.02398 0.805562,-0.230179 1.579537,-0.458219 4.3656,-1.28627 8.31546,-2.604471 12.234239,-4.082986 0.773976,-0.292011 1.497685,-0.564149 1.608251,-0.604749 1.487013,-0.546019 5.292025,-2.148115 5.25275,-2.211665 -0.01749,-0.02836 0.0077,-0.03651 0.05534,-0.01812 0.08867,0.03403 1.280875,-0.476677 3.709672,-1.589103 6.120337,-2.803206 11.977835,-5.958615 17.83442,-9.60731 0.758177,-0.472353 1.530337,-0.961757 1.715902,-1.087565 l 0.337387,-0.228744 0.466733,0.143159 c 0.256712,0.07874 0.848071,0.262642 1.314133,0.408674 6.988124,2.189564 14.125199,3.603593 20.505087,4.062561 l 0.962082,0.06921 v 0.215846 c 0,0.118703 0.04038,1.013022 0.08977,1.987368 0.0494,0.974346 0.107486,3.04349 0.129247,4.598097 l 0.0395,2.82656 0.516945,-0.406523 c 4.549437,-3.5777 8.116638,-5.598222 10.522111,-5.959899 1.334431,-0.20064 2.325901,0.161979 2.793911,1.021854 0.81904,1.504864 0.32295,4.446787 -1.43952,8.536862 -0.45218,1.049313 -1.785985,3.791512 -1.825151,3.752347 -0.01551,-0.01553 0.129819,-0.387992 0.323074,-0.827693 0.480925,-1.094438 0.879567,-2.211773 1.094697,-3.06825 0.15477,-0.616202 0.1807,-0.823809 0.18293,-1.464662 0.002,-0.638381 -0.0149,-0.784625 -0.11712,-1.008213 -0.498352,-1.088533 -1.79617,-1.069586 -4.010556,0.05856 -1.050281,0.535068 -2.111697,1.194475 -2.059263,1.279312 0.02244,0.03647 0.01122,0.04468 -0.02871,0.0202 -0.07129,-0.04409 -0.553184,0.276619 -1.741965,1.159544 -0.535537,0.397745 -0.720375,0.566071 -0.698196,0.635818 0.02288,0.07205 0.01705,0.07656 -0.02442,0.01876 -0.0417,-0.05813 -0.283545,0.110173 -1.024944,0.713246 -1.504077,1.223481 -2.60457,2.201267 -2.633163,2.339588 -0.01419,0.06871 -0.0417,0.49969 -0.06128,0.957756 -0.06172,1.453407 -0.327376,4.912986 -0.48735,6.34687 -0.03169,0.284318 -0.09803,0.878799 -0.147169,1.321069 -0.639767,5.748946 -1.799459,11.685494 -3.27074,16.743103 -0.47801,1.643215 -1.402069,4.503127 -1.474724,4.564218 -0.0099,0.0085 -0.535251,0.360256 -1.167075,0.781749 -3.484788,2.324758 -7.115171,4.544945 -10.650797,6.513577 -6.874488,3.827705 -13.554347,6.94675 -21.011426,9.810921 -0.60795,0.233505 -1.086114,0.445788 -1.062603,0.471739 0.02354,0.02595 0.01265,0.02999 -0.02398,0.0089 -0.03674,-0.02102 -0.825034,0.235709 -1.751844,0.570478 -2.936071,1.060527 -7.074916,2.417591 -9.651079,3.164444 -0.636268,0.184458 -1.115972,0.351965 -1.096808,0.382986 0.01881,0.03039 0.0044,0.03652 -0.033,0.01367 -0.03686,-0.0228 -0.215346,0.0025 -0.396576,0.05613 -0.18123,0.05367 -0.407049,0.117294 -0.501828,0.141387 -0.09483,0.02409 -0.934798,0.253872 -1.866724,0.510606 -0.931925,0.256736 -1.790416,0.48232 -1.907748,0.501298 l -0.213343,0.0345 z M 11.204524,32.491026 c -0.0549,-0.195935 0.0055,-7.093866 0.0769,-8.859773 0.06843,-1.678767 0.164056,-3.42524 0.188898,-3.449717 0.0088,-0.0084 0.42902,-0.04491 0.934467,-0.08116 1.59451,-0.114347 3.325154,-0.297779 5.226841,-0.554002 1.552495,-0.209175 5.007457,-0.842115 6.863806,-1.257436 0.705017,-0.157731 4.144137,-1.010147 4.623742,-1.146031 0.15795,-0.04475 0.532732,-0.149708 0.832845,-0.233233 0.88353,-0.245896 3.352504,-0.989535 4.221677,-1.27154 1.878066,-0.609345 2.985544,-0.987004 4.767335,-1.625692 0.15795,-0.05661 0.468108,-0.167789 0.689252,-0.247046 0.546979,-0.196041 2.118474,-0.786631 2.785733,-1.046916 2.854373,-1.11345 4.410509,-1.744041 6.398756,-2.592957 0.470804,-0.2010198 0.88792,-0.365493 0.926909,-0.365493 0.03895,0 0.248274,0.080345 0.46505,0.17853 0.216787,0.09819 0.484622,0.216251 0.595188,0.262356 0.110567,0.04611 0.25273,0.106848 0.315912,0.135006 0.203486,0.09067 1.521162,0.6335 2.613426,1.076669 1.100195,0.446386 1.685064,0.678211 2.95804,1.172477 0.410669,0.159456 0.875928,0.34012 1.033878,0.401477 0.898294,0.348932 3.643916,1.340736 5.011451,1.810289 0.229021,0.07864 0.415234,0.160033 0.413793,0.18087 -0.0011,0.02084 -0.111248,0.09033 -0.244104,0.154447 -0.132889,0.06411 -0.732587,0.377878 -1.332814,0.697267 -2.359849,1.255725 -5.824999,2.964175 -8.041288,3.964661 -2.418433,1.091744 -2.719955,1.225268 -3.87704,1.716886 -5.035148,2.139294 -10.739184,4.229064 -15.565631,5.70273 -0.205345,0.0627 -0.670593,0.204982 -1.033889,0.316188 -3.677701,1.125773 -9.194996,2.560285 -13.052728,3.393748 -0.371183,0.08019 -0.965667,0.209035 -1.321064,0.286313 -0.355397,0.07728 -1.111417,0.231629 -1.680048,0.343009 -0.568641,0.111375 -1.150198,0.228765 -1.29235,0.260855 -0.258725,0.0584 -1.162168,0.226366 -2.670865,0.496556 -0.442266,0.0792 -0.994272,0.181334 -1.226693,0.226954 -0.547309,0.107419 -0.562656,0.106253 -0.60543,-0.04628 z m 37.759435,-0.904644 c 0,-0.03159 0.02739,-0.05744 0.06084,-0.05744 0.03345,0 0.04489,0.02585 0.0253,0.05744 -0.01947,0.03158 -0.04687,0.05744 -0.06084,0.05744 -0.01397,0 -0.0253,-0.02585 -0.0253,-0.05744 z"
         id="path3-2" /><path
         style="fill:#0d2f6b;fill-opacity:1;stroke:none;stroke-width:5.397;stroke-dasharray:none;stroke-opacity:1"
         d="m 29.343072,39.403554 -11.401879,10.731182 7.880711,15.929097 16.935146,2.515121 12.743278,5.03024 6.371637,2.012098 4.694891,-0.6707 12.575603,-31.019819 z"
         id="path6" /><path
         style="fill:#0d2f6b;fill-opacity:1;stroke-width:0.217089"
         d="m 49.308585,99.495233 c -2.76428,-0.887188 -4.147195,-1.401084 -6.113978,-2.271976 -0.61454,-0.272122 -2.279868,-1.100379 -3.076056,-1.529896 -1.463117,-0.789299 -4.297346,-2.553774 -4.304453,-2.679776 -0.0022,-0.03294 0.145244,-0.109268 0.326892,-0.169613 0.181637,-0.06034 0.369027,-0.128823 0.416422,-0.152175 0.04742,-0.02336 0.486778,-0.183574 0.976439,-0.35604 1.426636,-0.502487 4.740568,-1.738157 5.025797,-1.873979 0.06315,-0.03008 0.373351,-0.156096 0.689252,-0.280024 0.315911,-0.123923 0.867236,-0.345171 1.225163,-0.491654 0.357927,-0.146479 0.810248,-0.331557 1.005164,-0.411282 0.194904,-0.07973 0.40607,-0.167913 0.469252,-0.195972 0.06315,-0.02806 0.670582,-0.288905 1.34979,-0.579665 1.494846,-0.639929 3.627204,-1.588816 4.566302,-2.031981 0.379084,-0.178894 0.999421,-0.471262 1.378504,-0.649702 1.72455,-0.811763 7.106865,-3.550144 7.639212,-3.886632 0.06326,-0.03994 0.347497,-0.196967 0.631823,-0.348955 0.779785,-0.416863 4.186219,-2.360415 4.709896,-2.687254 0.252719,-0.15773 0.5996,-0.364488 0.770829,-0.459454 0.17123,-0.09498 0.395476,-0.227062 0.498308,-0.293538 0.102865,-0.06647 0.33753,-0.2133 0.52151,-0.326275 1.066938,-0.6551 1.954461,-1.20897 2.459744,-1.535033 0.315901,-0.203856 0.880075,-0.567675 1.253724,-0.808485 0.613154,-0.395181 3.569247,-2.38796 4.151596,-2.798699 0.129819,-0.09151 0.478692,-0.336026 0.775417,-0.543352 2.085743,-1.457367 4.653875,-3.383875 4.608582,-3.457169 -0.02068,-0.03338 -0.01122,-0.04422 0.02167,-0.02412 0.06403,0.03963 0.532996,-0.274512 0.532996,-0.357087 0,-0.02771 0.0516,-0.0639 0.114879,-0.08041 0.149699,-0.03916 0.146641,-0.01448 -0.06018,0.484551 -0.3003,0.724478 -0.452904,1.140348 -0.418403,1.140348 0.01826,0 0.0011,0.03833 -0.03751,0.08518 -0.03895,0.04686 -0.271191,0.54441 -0.516219,1.105677 -1.152145,2.639087 -1.971877,4.261579 -3.432013,6.792979 -0.892749,1.54773 -2.516149,3.961933 -3.591965,5.34171 -0.18474,0.236932 -0.405553,0.520263 -0.490684,0.629622 -0.08515,0.109367 -0.466931,0.574606 -0.848412,1.03388 -3.208724,3.862977 -7.04849,7.190971 -11.2122,9.717775 -2.709987,1.644601 -5.213429,2.843015 -8.429656,4.03535 -0.921793,0.341728 -3.039046,1.010048 -3.178568,1.003326 -0.08273,-0.004 -0.266636,-0.04457 -0.408788,-0.0902 z M 29.882329,88.045091 c -0.798807,-0.79891 -1.478212,-1.446087 -1.509798,-1.438169 -0.03157,0.0079 -0.03994,-0.0031 -0.01859,-0.02445 0.02134,-0.02135 -0.309531,-0.438874 -0.735316,-0.927808 -0.728682,-0.836762 -1.753792,-2.097993 -2.320255,-2.85468 -0.24099,-0.321908 -0.247305,-0.340278 -0.143164,-0.416424 0.05996,-0.04382 0.131371,-0.07966 0.158787,-0.07966 0.02739,0 0.03135,-0.02985 0.0088,-0.06632 -0.0253,-0.04086 -0.01573,-0.05073 0.02464,-0.02572 0.06953,0.04298 0.425037,-0.140264 1.818811,-0.937473 2.278866,-1.303463 6.059762,-3.796458 8.6731,-5.718755 2.307867,-1.697593 3.451167,-2.566386 5.399148,-4.10278 2.565085,-2.023116 5.927292,-4.789192 6.07138,-4.994896 0.04665,-0.06656 0.09638,-0.109422 0.110534,-0.09525 0.01419,0.01418 0.539278,-0.411364 1.166899,-0.945638 l 1.141121,-0.971406 0.177743,0.124454 c 0.0978,0.06845 0.462057,0.333817 0.809554,0.589707 1.757313,1.294052 2.347781,1.71247 2.416629,1.71247 0.04159,0 0.07052,0.01921 0.06436,0.04271 -0.01122,0.04298 1.467177,1.134007 6.899891,5.091905 1.62131,1.181178 3.336738,2.431631 3.812064,2.778782 0.475325,0.34715 0.870305,0.623482 0.877754,0.614068 0.01122,-0.01471 -1.332738,-4.149453 -2.913265,-8.960012 -0.256337,-0.780205 -0.486943,-1.405652 -0.512455,-1.389883 -0.02552,0.01575 -0.03213,-0.0085 -0.01463,-0.05397 0.01749,-0.04546 -0.217744,-0.841594 -0.522621,-1.769194 -0.496503,-1.510596 -0.997715,-3.042954 -1.602794,-4.900286 -0.112789,-0.345973 -0.185597,-0.645824 -0.161955,-0.666333 0.02354,-0.02051 0.611614,-0.44694 1.306597,-0.947621 0.695017,-0.500683 2.155362,-1.556419 3.245239,-2.34608 2.153447,-1.560252 2.89257,-2.094761 6.835102,-4.942936 3.071677,-2.219049 3.13509,-2.266679 3.114572,-2.339133 -0.0088,-0.03065 0.0099,-0.03998 0.04071,-0.02074 0.03114,0.01923 0.165101,-0.04361 0.297704,-0.139666 l 0.241101,-0.174651 -9.270929,6.94e-4 c -5.099013,3.7e-4 -9.302141,5.23e-4 -9.340272,3.48e-4 -0.04005,-1.98e-4 -0.290476,-0.685129 -0.593296,-1.622959 C 54.647074,44.234897 54.247132,43.000704 54.046506,42.384684 53.84587,41.76865 53.445036,40.527994 53.15576,39.627658 52.62837,37.986163 52.28765,36.929945 51.664287,35.003913 50.842212,32.463959 50.106885,30.186681 49.9234,29.612461 l -0.199426,-0.624119 -0.241112,0.767714 c -0.132614,0.422242 -0.290212,0.909871 -0.350226,1.08362 -0.05996,0.17375 -0.240869,0.72946 -0.401911,1.234912 -0.161042,0.505452 -0.435236,1.358402 -0.609336,1.895445 -1.773474,5.470778 -2.543269,7.913757 -2.510418,7.966909 0.02222,0.03594 0.01309,0.0473 -0.02101,0.02622 -0.034,-0.02101 -0.0769,0.03137 -0.09869,0.120363 -0.03498,0.1434 -0.413265,1.326455 -1.202896,3.762463 l -0.293468,0.905332 -9.330855,-10e-4 c -5.175199,-5.65e-4 -9.306387,0.02085 -9.275934,0.04811 0.22693,0.203122 3.217756,2.325634 3.277033,2.325634 0.04148,0 0.06579,0.0158 0.0538,0.03512 -0.02673,0.04322 2.028161,1.536603 2.059262,1.496556 0.01232,-0.0158 0.07041,0.02955 0.129291,0.100752 0.05886,0.0712 0.318497,0.277984 0.577003,0.459501 0.258516,0.181519 1.447473,1.039656 2.64214,1.906974 1.194666,0.867317 2.541442,1.843948 2.992839,2.17029 0.453344,0.327756 0.849391,0.575622 0.884795,0.553743 0.03608,-0.02227 0.04819,-0.01382 0.02772,0.01926 -0.02002,0.03238 0.331391,0.324728 0.780895,0.649661 1.405469,1.015963 1.592695,1.156933 1.592695,1.199206 0,0.06679 -2.75538,3.442532 -3.583087,4.389805 -0.277769,0.317906 -0.327332,0.403469 -0.260992,0.45056 0.06678,0.04737 0.06414,0.05247 -0.01408,0.02754 -0.06953,-0.02214 -0.275646,0.178464 -0.746681,0.726502 -1.668969,1.941765 -3.00681,3.420412 -4.999095,5.525244 -3.082348,3.256481 -6.554451,6.520977 -9.767521,9.183509 -0.148159,0.122779 -0.253103,0.249538 -0.233223,0.281703 0.0209,0.03379 0.0077,0.04088 -0.03124,0.01682 -0.03994,-0.02468 -0.248285,0.108707 -0.511454,0.327462 -1.15428,0.959442 -2.773643,2.201347 -4.313464,3.308044 -0.192462,0.138329 -0.333536,0.278014 -0.313513,0.310423 0.02057,0.0333 0.0088,0.04157 -0.02816,0.01901 -0.03554,-0.02196 -0.433673,0.202503 -0.884795,0.498784 -2.270978,1.491494 -4.020094,2.400744 -5.4803182,2.848844 C 8.4422421,85.87357 7.975454,85.940529 7.2711628,85.911511 6.5516673,85.881861 6.1754337,85.741609 5.7408363,85.341005 4.5281271,84.22317 4.7407666,81.421889 6.3441436,77.392987 6.9331048,75.913074 8.4310314,72.720848 8.5795974,72.62903 c 0.075911,-0.04694 0.088013,-0.07787 -0.4241898,1.087939 -0.4104267,0.934149 -0.8469273,2.207221 -1.0016212,2.921237 -0.3507869,1.619059 -0.1480599,2.603049 0.6075539,2.948982 0.297077,0.135997 0.3671244,0.145311 0.8748715,0.116246 1.5586002,-0.08922 3.9148082,-1.389173 7.3008782,-4.027969 0.727131,-0.566657 2.536348,-2.083621 3.063777,-2.568853 l 0.335473,-0.308645 -0.326539,-0.717971 c -0.488957,-1.075101 -1.290986,-3.007435 -1.697562,-4.089916 -0.204565,-0.544642 -0.384936,-0.944396 -0.417149,-0.924489 -0.03124,0.01931 -0.03972,0.0074 -0.01881,-0.02628 0.0209,-0.03375 -0.232497,-0.871303 -0.563019,-1.86124 -1.042217,-3.121539 -1.896934,-6.267189 -2.591379,-9.53719 -0.121623,-0.572682 -0.23967,-1.002458 -0.270178,-0.983607 -0.03135,0.01941 -0.03839,-0.01636 -0.0165,-0.08508 0.02068,-0.0652 -0.02926,-0.461758 -0.111073,-0.881226 -0.310344,-1.591644 -0.656753,-3.718913 -1.003997,-6.165601 -0.208536,-1.469321 -0.507043,-4.266164 -0.689648,-6.461747 -0.04764,-0.572833 -0.228185,-3.189074 -0.230396,-3.338669 -2.75e-4,-0.01979 0.251486,-0.09333 0.559488,-0.163399 1.726881,-0.392856 4.956134,-1.213166 7.050492,-1.790998 0.694995,-0.19175 1.341164,-0.368255 1.435943,-0.392235 0.09483,-0.02398 0.805562,-0.230179 1.579537,-0.458219 4.3656,-1.28627 8.31546,-2.604471 12.234239,-4.082986 0.773976,-0.292011 1.497685,-0.564149 1.608251,-0.604749 1.487013,-0.546019 5.292025,-2.148115 5.25275,-2.211665 -0.01749,-0.02836 0.0077,-0.03651 0.05534,-0.01812 0.08867,0.03403 1.280875,-0.476677 3.709672,-1.589103 6.120337,-2.803206 11.977835,-5.958615 17.83442,-9.60731 0.758177,-0.472353 1.530337,-0.961757 1.715902,-1.087565 l 0.337387,-0.228744 0.466733,0.143159 c 0.256712,0.07874 0.848071,0.262642 1.314133,0.408674 6.988124,2.189564 14.125199,3.603593 20.505087,4.062561 l 0.962082,0.06921 v 0.215846 c 0,0.118703 0.04038,1.013022 0.08977,1.987368 0.0494,0.974346 0.107486,3.04349 0.129247,4.598097 l 0.0395,2.82656 0.516945,-0.406523 c 4.549437,-3.5777 8.116638,-5.598222 10.522111,-5.959899 1.334431,-0.20064 2.325901,0.161979 2.793911,1.021854 0.81904,1.504864 0.32295,4.446787 -1.43952,8.536862 -0.45218,1.049313 -1.785985,3.791512 -1.825151,3.752347 -0.01551,-0.01553 0.129819,-0.387992 0.323074,-0.827693 0.480925,-1.094438 0.879567,-2.211773 1.094697,-3.06825 0.15477,-0.616202 0.1807,-0.823809 0.18293,-1.464662 0.002,-0.638381 -0.0149,-0.784625 -0.11712,-1.008213 -0.498352,-1.088533 -1.79617,-1.069586 -4.010556,0.05856 -1.050281,0.535068 -2.111697,1.194475 -2.059263,1.279312 0.02244,0.03647 0.01122,0.04468 -0.02871,0.0202 -0.07129,-0.04409 -0.553184,0.276619 -1.741965,1.159544 -0.535537,0.397745 -0.720375,0.566071 -0.698196,0.635818 0.02288,0.07205 0.01705,0.07656 -0.02442,0.01876 -0.0417,-0.05813 -0.283545,0.110173 -1.024944,0.713246 -1.504077,1.223481 -2.60457,2.201267 -2.633163,2.339588 -0.01419,0.06871 -0.0417,0.49969 -0.06128,0.957756 -0.06172,1.453407 -0.327376,4.912986 -0.48735,6.34687 -0.03169,0.284318 -0.09803,0.878799 -0.147169,1.321069 -0.639767,5.748946 -1.799459,11.685494 -3.27074,16.743103 -0.47801,1.643215 -1.402069,4.503127 -1.474724,4.564218 -0.0099,0.0085 -0.535251,0.360256 -1.167075,0.781749 -3.484788,2.324758 -7.115171,4.544945 -10.650797,6.513577 -6.874488,3.827705 -13.554347,6.94675 -21.011426,9.810921 -0.60795,0.233505 -1.086114,0.445788 -1.062603,0.471739 0.02354,0.02595 0.01265,0.02999 -0.02398,0.0089 -0.03674,-0.02102 -0.825034,0.235709 -1.751844,0.570478 -2.936071,1.060527 -7.074916,2.417591 -9.651079,3.164444 -0.636268,0.184458 -1.115972,0.351965 -1.096808,0.382986 0.01881,0.03039 0.0044,0.03652 -0.033,0.01367 -0.03686,-0.0228 -0.215346,0.0025 -0.396576,0.05613 -0.18123,0.05367 -0.407049,0.117294 -0.501828,0.141387 -0.09483,0.02409 -0.934798,0.253872 -1.866724,0.510606 -0.931925,0.256736 -1.790416,0.48232 -1.907748,0.501298 l -0.213343,0.0345 z M 11.204524,32.491026 c -0.0549,-0.195935 0.0055,-7.093866 0.0769,-8.859773 0.06843,-1.678767 0.164056,-3.42524 0.188898,-3.449717 0.0088,-0.0084 0.42902,-0.04491 0.934467,-0.08116 1.59451,-0.114347 3.325154,-0.297779 5.226841,-0.554002 1.552495,-0.209175 5.007457,-0.842115 6.863806,-1.257436 0.705017,-0.157731 4.144137,-1.010147 4.623742,-1.146031 0.15795,-0.04475 0.532732,-0.149708 0.832845,-0.233233 0.88353,-0.245896 3.352504,-0.989535 4.221677,-1.27154 1.878066,-0.609345 2.985544,-0.987004 4.767335,-1.625692 0.15795,-0.05661 0.468108,-0.167789 0.689252,-0.247046 0.546979,-0.196041 2.118474,-0.786631 2.785733,-1.046916 2.854373,-1.11345 4.410509,-1.744041 6.398756,-2.592957 0.470804,-0.2010198 0.88792,-0.365493 0.926909,-0.365493 0.03895,0 0.248274,0.080345 0.46505,0.17853 0.216787,0.09819 0.484622,0.216251 0.595188,0.262356 0.110567,0.04611 0.25273,0.106848 0.315912,0.135006 0.203486,0.09067 1.521162,0.6335 2.613426,1.076669 1.100195,0.446386 1.685064,0.678211 2.95804,1.172477 0.410669,0.159456 0.875928,0.34012 1.033878,0.401477 0.898294,0.348932 3.643916,1.340736 5.011451,1.810289 0.229021,0.07864 0.415234,0.160033 0.413793,0.18087 -0.0011,0.02084 -0.111248,0.09033 -0.244104,0.154447 -0.132889,0.06411 -0.732587,0.377878 -1.332814,0.697267 -2.359849,1.255725 -5.824999,2.964175 -8.041288,3.964661 -2.418433,1.091744 -2.719955,1.225268 -3.87704,1.716886 -5.035148,2.139294 -10.739184,4.229064 -15.565631,5.70273 -0.205345,0.0627 -0.670593,0.204982 -1.033889,0.316188 -3.677701,1.125773 -9.194996,2.560285 -13.052728,3.393748 -0.371183,0.08019 -0.965667,0.209035 -1.321064,0.286313 -0.355397,0.07728 -1.111417,0.231629 -1.680048,0.343009 -0.568641,0.111375 -1.150198,0.228765 -1.29235,0.260855 -0.258725,0.0584 -1.162168,0.226366 -2.670865,0.496556 -0.442266,0.0792 -0.994272,0.181334 -1.226693,0.226954 -0.547309,0.107419 -0.562656,0.106253 -0.60543,-0.04628 z m 37.759435,-0.904644 c 0,-0.03159 0.02739,-0.05744 0.06084,-0.05744 0.03345,0 0.04489,0.02585 0.0253,0.05744 -0.01947,0.03158 -0.04687,0.05744 -0.06084,0.05744 -0.01397,0 -0.0253,-0.02585 -0.0253,-0.05744 z"
         id="path3" /><path
         style="fill:#0d2f6b;fill-opacity:1;stroke:#b3b3b3;stroke-width:3.488;stroke-dasharray:none;stroke-opacity:1"
         d="M 58.687055,76.497032 C 58.451753,76.433572 58.197081,76.192955 58.121128,75.962308 57.906835,75.3115 54.2567,68.514396 54.107706,68.488714 c -0.07276,-0.01258 -0.579715,0.69346 -1.12656,1.568904 -1.306664,2.091807 -4.290576,5.559284 -6.015602,6.990464 -1.801422,1.494559 -2.013799,1.359553 -2.116609,-1.345583 -0.09691,-2.551602 -0.34602,-5.164505 -0.493906,-5.181775 -0.06158,-0.0072 -0.712218,0.0772 -1.445889,0.187543 -2.304542,0.34658 -7.090143,0.361659 -10.104832,0.03184 C 25.47751,69.938545 18.128012,67.194978 11.476739,62.778539 L 9.4592364,61.438914 8.0418136,62.271397 c -5.4045841,3.174236 -12.506792,0.225573 -13.6084733,-5.649885 -0.2775212,-1.480094 -0.00244,-2.05961 0.7182033,-1.513155 0.2278704,0.172815 0.9464558,0.433962 1.5968174,0.580353 1.3935238,0.313663 2.73548069,-0.05134 4.8358181,-1.315325 1.2351352,-0.743306 2.4444547,-1.136564 4.070753,-1.323773 0.092178,-0.01052 0.070792,-0.269941 -0.047601,-0.576282 -0.3395187,-0.878545 0.056151,-2.453678 1.1145494,-4.436852 1.1662137,-2.185196 1.611719,-3.956139 1.2739369,-5.064095 -0.1362017,-0.446765 -0.1363058,-0.890895 -2.348e-4,-0.98695 0.5707481,-0.402901 3.7409624,1.215141 5.2256234,2.66711 2.015112,1.970726 2.702951,4.76942 2.045136,8.321322 -0.354663,1.915012 -0.349225,1.959242 0.257282,2.095225 2.464082,0.552423 7.944052,-2.074936 12.777813,-6.126297 7.542956,-6.322029 13.479083,-14.005863 18.918558,-24.488534 2.767028,-5.332474 4.082098,-7.115264 6.543209,-8.870407 1.759259,-1.254636 2.015438,-1.372167 3.207463,-1.471661 1.586255,-0.132403 2.80434,0.330539 4.551373,1.729756 2.298828,1.841161 3.507964,3.146667 5.392893,5.822671 2.128293,3.02261 3.072812,5.059679 3.863818,8.339332 2.072796,8.594214 -0.370739,17.717638 -7.588888,28.33467 -1.013162,1.490248 -1.015222,1.499274 -0.821895,3.606162 0.384772,4.193349 -0.355234,8.85698 -2.008793,12.659614 -0.774172,1.780338 -1.027061,2.066574 -1.67212,1.892636 z M 59.62742,68.563109 C 61.09062,63.42398 58.688727,53.517425 54.256467,46.410663 l -1.058204,-1.69673 0.975639,2.357611 c 3.38863,8.188493 5.272263,17.66789 4.51261,22.709647 -0.09824,0.651625 -0.136966,1.243632 -0.08616,1.31557 0.120209,0.170288 0.580568,-0.965316 1.027106,-2.533652 z m -8.74143,-5.97591 c -1.494343,-2.53414 -1.98455,-3.204202 -3.528786,-4.823333 -0.986327,-1.034211 -1.897842,-1.890194 -2.025582,-1.902192 -0.127752,-0.01198 -1.352493,0.406905 -2.721676,0.930895 -3.779714,1.446503 -9.608878,3.30748 -13.019414,4.156479 -1.680852,0.418423 -3.834575,1.042481 -4.786062,1.386805 -0.95148,0.344317 -2.678048,0.907632 -3.836821,1.251815 -1.158775,0.344181 -2.11456,0.670433 -2.123972,0.725005 -0.0094,0.0546 0.722533,0.435987 1.626525,0.847588 7.167651,3.263543 16.920321,4.238939 25.419528,2.542294 2.740005,-0.54697 6.626173,-1.685638 6.68538,-1.958843 0.02547,-0.117417 -0.734689,-1.53784 -1.689165,-3.156488 z m 11.855818,-7.389411 0.890905,-1.373794 -0.497339,-1.994131 c -0.273522,-1.096784 -1.000637,-3.255762 -1.615782,-4.79774 -0.615156,-1.541979 -1.156729,-2.970617 -1.203488,-3.174758 -0.151419,-0.661068 1.841293,2.096241 3.345703,4.629471 0.805659,1.356655 1.492637,2.471618 1.526593,2.477703 0.034,0.0061 0.47551,-0.956029 0.981233,-2.138035 l 0.919511,-2.149108 -0.603881,-1.721487 c -0.606761,-1.729714 -2.749209,-6.435815 -4.453801,-9.783178 l -0.915203,-1.79727 0.915513,0.934703 c 0.503541,0.514078 2.079175,2.667271 3.501374,4.784888 l 2.585862,3.850178 0.271152,-1.092311 c 0.149126,-0.600771 0.321765,-1.696735 0.383631,-2.435484 0.122778,-1.466318 -0.276601,-2.624126 -2.389578,-6.927425 -0.629575,-1.282178 -0.976725,-2.202353 -0.781626,-2.071811 0.193006,0.129192 1.040862,1.079641 1.884043,2.112159 l 1.53305,1.877314 -0.40155,-2.303596 c -0.700512,-4.018532 -1.421823,-5.642744 -4.276278,-9.629155 -1.59341,-2.225344 -2.810376,-3.733898 -3.452135,-4.27946 L 59.898561,17.35287 59.77988,20.272447 c -0.171365,4.215241 -0.809867,9.040765 -1.693473,12.798503 -0.744247,3.1651 -2.740304,9.683885 -3.030317,9.896474 -0.07819,0.05734 0.186671,0.569819 0.588454,1.138982 1.998803,2.831489 4.384405,7.750248 5.355349,11.04188 0.271783,0.921362 0.574432,1.618536 0.672547,1.549274 0.09812,-0.06926 0.579306,-0.744144 1.069302,-1.499727 z m -26.01165,-9.177796 c 4.784603,-4.889943 7.793379,-9.009018 11.816546,-16.177103 3.604296,-6.421784 6.284983,-10.51591 8.124116,-12.40769 l 0.737945,-0.759073 -0.744524,0.166916 c -1.018069,0.228233 -2.717965,1.710071 -4.03885,3.52076 -0.586792,0.804378 -2.583646,4.078164 -4.437443,7.275069 -7.244341,12.492979 -11.802204,18.214999 -19.430404,24.393254 -2.271072,1.839392 -2.110727,1.74014 2.000404,-1.238265 3.127435,-2.26575 4.920606,-3.699114 5.97221,-4.773868 z m -23.76593,6.87246 c 0.386642,-2.249877 0.06445,-3.726385 -1.270882,-5.823897 -0.608579,-0.956018 -1.15112,-1.706721 -1.205678,-1.668206 -0.05447,0.03845 -0.190409,0.509632 -0.302004,1.047008 -0.111586,0.53737 -0.4938093,1.421616 -0.8493713,1.96498 -1.8508307,2.82839 -2.3430308,4.556229 -1.7269655,6.062434 0.2679191,0.655036 0.2743637,0.644424 0.3055446,-0.503142 0.017521,-0.644758 0.2193337,-1.528039 0.4484867,-1.962851 0.5040416,-0.956397 2.8237105,-4.230808 2.9783235,-4.204154 0.206917,0.03567 0.841757,2.001217 1.075762,3.330672 0.140001,0.795441 0.07798,2.037346 -0.154827,3.100198 -0.324256,1.480324 -0.319962,1.641345 0.026,0.97498 0.227919,-0.439 0.531925,-1.482097 0.675582,-2.318003 z m -5.4728552,2.456075 c -1.7936864,-0.53822 -2.6799046,-0.344484 -5.1586169,1.127714 -1.80546035,1.072331 -3.30780372,1.602709 -4.2244188,1.491363 -0.8412821,-0.10219 -0.4069804,0.310056 0.6069073,0.576078 1.18029464,0.309693 2.4727613,-0.03409 4.3913074,-1.168032 1.5704069,-0.928181 3.6413753,-1.744268 4.2298957,-1.666836 0.5454172,0.07176 0.6653429,-0.207136 0.1549253,-0.360287 z"
         id="path1-0"
         sodipodi:nodetypes="sssssssssscsssssssssssssssssscssssssscssssssssssssssssscsssssscsscsscssscscscscsscssssssscsssssssssssssssssssssssssss" /><path
         style="fill:#ffffff;fill-opacity:1;stroke:none;stroke-width:5.97724;stroke-dasharray:none;stroke-opacity:1"
         d="m -4.032635,57.352518 9.8421856,-2.971225 1.4856122,-3.899737 2.042718,-5.942448 c 0,0 4.2711372,1.857016 4.2711372,2.785522 0,0.928509 2.414122,10.584992 2.414122,10.584992 L 29.765058,50.295856 44.249783,29.868678 51.863549,19.283687 56.134687,15.01255 c 0,0 7.428065,3.714032 7.613767,4.642541 0.185701,0.928506 4.642541,7.242361 4.642541,7.242361 l 1.485612,12.813414 -4.085436,12.813411 -4.642541,7.799465 0.742808,9.099379 -3.156927,4.642541 -4.085436,-6.499556 -6.128154,4.085436 -5.385346,-2.971225 -10.584993,1.114207 -14.670426,-3.899732 -9.0993799,-5.756751 -8.35657234,1.671314 z"
         id="path5" /><path
         style="fill:#0d2f6b;fill-opacity:1;stroke-width:0.887566"
         d="M 58.687055,76.497032 C 58.451753,76.433572 58.197081,76.192955 58.121128,75.962308 57.906835,75.3115 54.2567,68.514396 54.107706,68.488714 c -0.07276,-0.01258 -0.579715,0.69346 -1.12656,1.568904 -1.306664,2.091807 -4.290576,5.559284 -6.015602,6.990464 -1.801422,1.494559 -2.013799,1.359553 -2.116609,-1.345583 -0.09691,-2.551602 -0.34602,-5.164505 -0.493906,-5.181775 -0.06158,-0.0072 -0.712218,0.0772 -1.445889,0.187543 -2.304542,0.34658 -7.090143,0.361659 -10.104832,0.03184 C 25.47751,69.938545 18.128012,67.194978 11.476739,62.778539 L 9.4592364,61.438914 8.0418136,62.271397 c -5.4045841,3.174236 -12.506792,0.225573 -13.6084733,-5.649885 -0.2775212,-1.480094 -0.00244,-2.05961 0.7182033,-1.513155 0.2278704,0.172815 0.9464558,0.433962 1.5968174,0.580353 1.3935238,0.313663 2.73548069,-0.05134 4.8358181,-1.315325 1.2351352,-0.743306 2.4444547,-1.136564 4.070753,-1.323773 0.092178,-0.01052 0.070792,-0.269941 -0.047601,-0.576282 -0.3395187,-0.878545 0.056151,-2.453678 1.1145494,-4.436852 1.1662137,-2.185196 1.611719,-3.956139 1.2739369,-5.064095 -0.1362017,-0.446765 -0.1363058,-0.890895 -2.348e-4,-0.98695 0.5707481,-0.402901 3.7409624,1.215141 5.2256234,2.66711 2.015112,1.970726 2.702951,4.76942 2.045136,8.321322 -0.354663,1.915012 -0.349225,1.959242 0.257282,2.095225 2.464082,0.552423 7.944052,-2.074936 12.777813,-6.126297 7.542956,-6.322029 13.479083,-14.005863 18.918558,-24.488534 2.767028,-5.332474 4.082098,-7.115264 6.543209,-8.870407 1.759259,-1.254636 2.015438,-1.372167 3.207463,-1.471661 1.586255,-0.132403 2.80434,0.330539 4.551373,1.729756 2.298828,1.841161 3.507964,3.146667 5.392893,5.822671 2.128293,3.02261 3.072812,5.059679 3.863818,8.339332 2.072796,8.594214 -0.370739,17.717638 -7.588888,28.33467 -1.013162,1.490248 -1.015222,1.499274 -0.821895,3.606162 0.384772,4.193349 -0.355234,8.85698 -2.008793,12.659614 -0.774172,1.780338 -1.027061,2.066574 -1.67212,1.892636 z M 59.62742,68.563109 C 61.09062,63.42398 58.688727,53.517425 54.256467,46.410663 l -1.058204,-1.69673 0.975639,2.357611 c 3.38863,8.188493 5.272263,17.66789 4.51261,22.709647 -0.09824,0.651625 -0.136966,1.243632 -0.08616,1.31557 0.120209,0.170288 0.580568,-0.965316 1.027106,-2.533652 z m -8.74143,-5.97591 c -1.494343,-2.53414 -1.98455,-3.204202 -3.528786,-4.823333 -0.986327,-1.034211 -1.897842,-1.890194 -2.025582,-1.902192 -0.127752,-0.01198 -1.352493,0.406905 -2.721676,0.930895 -3.779714,1.446503 -9.608878,3.30748 -13.019414,4.156479 -1.680852,0.418423 -3.834575,1.042481 -4.786062,1.386805 -0.95148,0.344317 -2.678048,0.907632 -3.836821,1.251815 -1.158775,0.344181 -2.11456,0.670433 -2.123972,0.725005 -0.0094,0.0546 0.722533,0.435987 1.626525,0.847588 7.167651,3.263543 16.920321,4.238939 25.419528,2.542294 2.740005,-0.54697 6.626173,-1.685638 6.68538,-1.958843 0.02547,-0.117417 -0.734689,-1.53784 -1.689165,-3.156488 z m 11.855818,-7.389411 0.890905,-1.373794 -0.497339,-1.994131 c -0.273522,-1.096784 -1.000637,-3.255762 -1.615782,-4.79774 -0.615156,-1.541979 -1.156729,-2.970617 -1.203488,-3.174758 -0.151419,-0.661068 1.841293,2.096241 3.345703,4.629471 0.805659,1.356655 1.492637,2.471618 1.526593,2.477703 0.034,0.0061 0.47551,-0.956029 0.981233,-2.138035 l 0.919511,-2.149108 -0.603881,-1.721487 c -0.606761,-1.729714 -2.749209,-6.435815 -4.453801,-9.783178 l -0.915203,-1.79727 0.915513,0.934703 c 0.503541,0.514078 2.079175,2.667271 3.501374,4.784888 l 2.585862,3.850178 0.271152,-1.092311 c 0.149126,-0.600771 0.321765,-1.696735 0.383631,-2.435484 0.122778,-1.466318 -0.276601,-2.624126 -2.389578,-6.927425 -0.629575,-1.282178 -0.976725,-2.202353 -0.781626,-2.071811 0.193006,0.129192 1.040862,1.079641 1.884043,2.112159 l 1.53305,1.877314 -0.40155,-2.303596 c -0.700512,-4.018532 -1.421823,-5.642744 -4.276278,-9.629155 -1.59341,-2.225344 -2.810376,-3.733898 -3.452135,-4.27946 L 59.898561,17.35287 59.77988,20.272447 c -0.171365,4.215241 -0.809867,9.040765 -1.693473,12.798503 -0.744247,3.1651 -2.740304,9.683885 -3.030317,9.896474 -0.07819,0.05734 0.186671,0.569819 0.588454,1.138982 1.998803,2.831489 4.384405,7.750248 5.355349,11.04188 0.271783,0.921362 0.574432,1.618536 0.672547,1.549274 0.09812,-0.06926 0.579306,-0.744144 1.069302,-1.499727 z m -26.01165,-9.177796 c 4.784603,-4.889943 7.793379,-9.009018 11.816546,-16.177103 3.604296,-6.421784 6.284983,-10.51591 8.124116,-12.40769 l 0.737945,-0.759073 -0.744524,0.166916 c -1.018069,0.228233 -2.717965,1.710071 -4.03885,3.52076 -0.586792,0.804378 -2.583646,4.078164 -4.437443,7.275069 -7.244341,12.492979 -11.802204,18.214999 -19.430404,24.393254 -2.271072,1.839392 -2.110727,1.74014 2.000404,-1.238265 3.127435,-2.26575 4.920606,-3.699114 5.97221,-4.773868 z m -23.76593,6.87246 c 0.386642,-2.249877 0.06445,-3.726385 -1.270882,-5.823897 -0.608579,-0.956018 -1.15112,-1.706721 -1.205678,-1.668206 -0.05447,0.03845 -0.190409,0.509632 -0.302004,1.047008 -0.111586,0.53737 -0.4938093,1.421616 -0.8493713,1.96498 -1.8508307,2.82839 -2.3430308,4.556229 -1.7269655,6.062434 0.2679191,0.655036 0.2743637,0.644424 0.3055446,-0.503142 0.017521,-0.644758 0.2193337,-1.528039 0.4484867,-1.962851 0.5040416,-0.956397 2.8237105,-4.230808 2.9783235,-4.204154 0.206917,0.03567 0.841757,2.001217 1.075762,3.330672 0.140001,0.795441 0.07798,2.037346 -0.154827,3.100198 -0.324256,1.480324 -0.319962,1.641345 0.026,0.97498 0.227919,-0.439 0.531925,-1.482097 0.675582,-2.318003 z m -5.4728552,2.456075 c -1.7936864,-0.53822 -2.6799046,-0.344484 -5.1586169,1.127714 -1.80546035,1.072331 -3.30780372,1.602709 -4.2244188,1.491363 -0.8412821,-0.10219 -0.4069804,0.310056 0.6069073,0.576078 1.18029464,0.309693 2.4727613,-0.03409 4.3913074,-1.168032 1.5704069,-0.928181 3.6413753,-1.744268 4.2298957,-1.666836 0.5454172,0.07176 0.6653429,-0.207136 0.1549253,-0.360287 z"
         id="path1"
         sodipodi:nodetypes="sssssssssscsssssssssssssssssscssssssscssssssssssssssssscsssssscsscsscssscscscscsscssssssscsssssssssssssssssssssssssss" /><ellipse
         style="fill:#ffffff;fill-opacity:1;stroke-width:1.41551"
         id="path2"
         cx="51.048859"
         cy="37.062748"
         rx="1.2664627"
         ry="1.048107" /><path
         style="fill:#0d2f6b;fill-opacity:1;stroke:#dadada;stroke-width:3.3;stroke-dasharray:none;stroke-opacity:1"
         d="m 68.972391,14.82828 c -0.128112,-0.156885 -0.43142,-0.663199 -0.674018,-1.125148 -2.920132,-5.5604712 -4.350469,-8.1311632 -4.510617,-8.1067632 -0.106368,0.01617 -0.248338,0.308084 -0.315489,0.648618 -0.06715,0.340535 -0.33731,1.613678 -0.600353,2.829208 l -0.478261,2.2100562 -2.615869,0.586952 -2.615868,0.586952 0.151225,-1.031728 c 0.08317,-0.567453 0.341176,-1.9022622 0.573337,-2.9662422 0.232162,-1.063979 0.589056,-2.800544 0.793097,-3.859032 0.204042,-1.058488 0.63423,-3.237589 0.955974,-4.84244595 l 0.584988,-2.91792205 -0.616845,-0.713879 c -0.960777,-1.111912 -0.971145,-1.098607 -1.604276,2.058622 l -0.345126,1.72103805 -2.947481,0.575545 C 51.471557,1.1138478 50.657951,1.5165138 49.370743,3.1230138 c -1.510252,1.88487 -1.539744,4.27257 -0.0622,5.036156 0.575357,0.297343 1.264048,0.269838 3.720581,-0.148588 2.845047,-0.484603 3.00991,-0.482817 2.932307,0.03175 -0.773082,5.1261422 -0.436807,4.7155022 -4.513416,5.5115282 -2.685073,0.524305 -3.636747,0.611026 -4.445931,0.405121 -2.062969,-0.524935 -3.508917,-1.878744 -4.11284,-3.850762 l -0.37,-1.2081772 -0.739617,1.2620592 c -2.937498,5.012458 -8.480257,8.144848 -12.457245,7.040018 -2.299243,-0.63875 -3.816734,-2.443024 -3.856695,-4.585546 -0.01086,-0.582094 -0.09344,-0.814886 -0.198438,-0.559342 -0.735672,1.790542 -2.849683,4.482718 -4.708972,5.996838 -2.134234,1.73802 -3.155143,2.14762 -7.436495,2.98363 -2.20574,0.43071 -4.0641007,0.70428 -4.1296907,0.60795 -0.06559,-0.0963 0.04975,-0.98205 0.256313,-1.96827 0.446889,-2.13365 0.8923937,-4.35156 1.6594677,-8.261543 0.311703,-1.5888352 0.747127,-3.6650512 0.967608,-4.6138152 0.359909,-1.548742 0.359138,-1.780574 -0.0075,-2.268615 -0.224632,-0.298968 -0.328629,-0.638953 -0.231105,-0.75552 0.324692,-0.388094 8.632482,-1.874365 9.625975,-1.722095 2.605336,0.39931 4.323154,2.064123 4.711378,4.566002 l 0.179319,1.15561 0.487839,-1.153591 c 0.576452,-1.363134 3.266931,-4.555513 4.678535,-5.551299 3.675077,-2.592505 7.225762,-3.12707 9.739433,-1.46629695 1.152901,0.761717 2.410442,2.85641595 2.426999,4.04267895 l 0.01036,0.741965 0.362027,-0.902716 c 0.924244,-2.304606 4.158858,-5.661908 6.695412,-6.949367 1.652281,-0.838636 2.288397,-0.998736 8.532264,-2.147436 l 6.746875,-1.24124 -0.02045,0.930035 c -0.01125,0.511519 -0.223979,1.862746 -0.472738,3.002726 -0.248759,1.139981 -0.520281,2.44315705 -0.603382,2.89594605 l -0.151092,0.823253 0.756122,-0.948727 c 0.670007,-0.840675 3.062412,-3.98815105 5.255594,-6.91432105 l 0.7624,-1.0172 2.79302,-0.470804 c 1.822,-0.307126 2.79303,-0.368904 2.79303,-0.177694 0,0.161213 -0.53579,0.993278 -1.19063,1.849032 -0.65484,0.855752 -1.47826,1.9562 -1.82981,2.445436 -0.35155,0.489236 -1.42569,1.936068 -2.38696,3.215178 -2.680195,3.566356 -2.528985,3.105521 -1.61363,4.917786 1.5556,3.079839 2.32674,4.613507 2.91998,5.807335 0.32959,0.6632462 0.94067,1.8863532 1.35796,2.7180202 0.41729,0.831667 0.75871,1.568669 0.75871,1.637789 0,0.0691 -1.29511,0.378552 -2.87802,0.687641 -2.0018,0.390887 -2.948936,0.475137 -3.11095,0.276737 z M 18.071159,14.25286 c 1.592967,-1.123724 2.518329,-2.693807 2.518329,-4.2729052 0,-1.16663 -0.09799,-1.369034 -0.916047,-1.892242 -0.641209,-0.410099 -1.204872,-0.529479 -1.878709,-0.397901 l -0.962662,0.187976 -0.44916,2.1382272 c -0.247037,1.176024 -0.562478,2.590886 -0.700978,3.144137 -0.449726,1.796468 -0.349792,2.154268 0.552471,1.978088 0.44236,-0.0864 1.2689,-0.484798 1.836756,-0.88538 z M 35.50857,10.860714 c 1.096289,-0.773354 1.727851,-1.7014002 2.26472,-3.3278802 0.291953,-0.884492 0.285067,-1.189817 -0.04399,-1.950575 -0.922476,-2.132691 -3.967899,-1.544693 -5.869221,1.133203 -1.372117,1.932544 -1.41884,3.6542882 -0.12737,4.6935772 0.866898,0.697621 2.305855,0.488658 3.775863,-0.548328 z M 74.394165,8.9470118 c -0.17631,-0.14188 0.75325,-4.810659 1.02169,-5.131515 0.12066,-0.144219 2.11179,-0.664666 4.42475,-1.156554 2.85545,-0.607254 4.23757,-0.997496 4.30567,-1.215703 0.0699,-0.224115 -0.80411,-0.17391 -2.88866,0.165955 -3.41375,0.556579 -4.42445,0.357102 -5.29311,-1.04467195 -1.21732,-1.96444805 0.24821,-6.85291605 2.63691,-8.79573105 1.64305,-1.336347 2.94351,-1.8189398 7.07609,-2.6258948 l 3.90787,-0.763077 -0.17118,1.290197 c -0.0941,0.7095978 -0.316,1.9435528 -0.493,2.7420988 l -0.32182,1.451904 -3.47932,0.679395 c -2.75765,0.538478 -3.54709,0.774299 -3.80609,1.136947 -0.45037,0.630603 -0.13308,0.646911 2.90782,0.149456 4.33894,-0.7098 5.72823,0.250036 5.43549,3.75528905 -0.26125,3.12806195 -1.59214,5.18579195 -4.51182,6.97582795 -0.7728,0.4738 -2.03892,0.81107 -5.80668,1.546788 -2.65011,0.517478 -4.87519,0.895163 -4.94461,0.839289 z"
         id="path7-1" /><path
         style="fill:#0d2f6b;fill-opacity:1"
         d="m 68.972391,14.82828 c -0.128112,-0.156885 -0.43142,-0.663199 -0.674018,-1.125148 -2.920132,-5.5604712 -4.350469,-8.1311632 -4.510617,-8.1067632 -0.106368,0.01617 -0.248338,0.308084 -0.315489,0.648618 -0.06715,0.340535 -0.33731,1.613678 -0.600353,2.829208 l -0.478261,2.2100562 -2.615869,0.586952 -2.615868,0.586952 0.151225,-1.031728 c 0.08317,-0.567453 0.341176,-1.9022622 0.573337,-2.9662422 0.232162,-1.063979 0.589056,-2.800544 0.793097,-3.859032 0.204042,-1.058488 0.63423,-3.237589 0.955974,-4.84244595 l 0.584988,-2.91792205 -0.616845,-0.713879 c -0.960777,-1.111912 -0.971145,-1.098607 -1.604276,2.058622 l -0.345126,1.72103805 -2.947481,0.575545 C 51.471557,1.1138478 50.657951,1.5165138 49.370743,3.1230138 c -1.510252,1.88487 -1.539744,4.27257 -0.0622,5.036156 0.575357,0.297343 1.264048,0.269838 3.720581,-0.148588 2.845047,-0.484603 3.00991,-0.482817 2.932307,0.03175 -0.773082,5.1261422 -0.436807,4.7155022 -4.513416,5.5115282 -2.685073,0.524305 -3.636747,0.611026 -4.445931,0.405121 -2.062969,-0.524935 -3.508917,-1.878744 -4.11284,-3.850762 l -0.37,-1.2081772 -0.739617,1.2620592 c -2.937498,5.012458 -8.480257,8.144848 -12.457245,7.040018 -2.299243,-0.63875 -3.816734,-2.443024 -3.856695,-4.585546 -0.01086,-0.582094 -0.09344,-0.814886 -0.198438,-0.559342 -0.735672,1.790542 -2.849683,4.482718 -4.708972,5.996838 -2.134234,1.73802 -3.155143,2.14762 -7.436495,2.98363 -2.20574,0.43071 -4.0641007,0.70428 -4.1296907,0.60795 -0.06559,-0.0963 0.04975,-0.98205 0.256313,-1.96827 0.446889,-2.13365 0.8923937,-4.35156 1.6594677,-8.261543 0.311703,-1.5888352 0.747127,-3.6650512 0.967608,-4.6138152 0.359909,-1.548742 0.359138,-1.780574 -0.0075,-2.268615 -0.224632,-0.298968 -0.328629,-0.638953 -0.231105,-0.75552 0.324692,-0.388094 8.632482,-1.874365 9.625975,-1.722095 2.605336,0.39931 4.323154,2.064123 4.711378,4.566002 l 0.179319,1.15561 0.487839,-1.153591 c 0.576452,-1.363134 3.266931,-4.555513 4.678535,-5.551299 3.675077,-2.592505 7.225762,-3.12707 9.739433,-1.46629695 1.152901,0.761717 2.410442,2.85641595 2.426999,4.04267895 l 0.01036,0.741965 0.362027,-0.902716 c 0.924244,-2.304606 4.158858,-5.661908 6.695412,-6.949367 1.652281,-0.838636 2.288397,-0.998736 8.532264,-2.147436 l 6.746875,-1.24124 -0.02045,0.930035 c -0.01125,0.511519 -0.223979,1.862746 -0.472738,3.002726 -0.248759,1.139981 -0.520281,2.44315705 -0.603382,2.89594605 l -0.151092,0.823253 0.756122,-0.948727 c 0.670007,-0.840675 3.062412,-3.98815105 5.255594,-6.91432105 l 0.7624,-1.0172 2.79302,-0.470804 c 1.822,-0.307126 2.79303,-0.368904 2.79303,-0.177694 0,0.161213 -0.53579,0.993278 -1.19063,1.849032 -0.65484,0.855752 -1.47826,1.9562 -1.82981,2.445436 -0.35155,0.489236 -1.42569,1.936068 -2.38696,3.215178 -2.680195,3.566356 -2.528985,3.105521 -1.61363,4.917786 1.5556,3.079839 2.32674,4.613507 2.91998,5.807335 0.32959,0.6632462 0.94067,1.8863532 1.35796,2.7180202 0.41729,0.831667 0.75871,1.568669 0.75871,1.637789 0,0.0691 -1.29511,0.378552 -2.87802,0.687641 -2.0018,0.390887 -2.948936,0.475137 -3.11095,0.276737 z M 18.071159,14.25286 c 1.592967,-1.123724 2.518329,-2.693807 2.518329,-4.2729052 0,-1.16663 -0.09799,-1.369034 -0.916047,-1.892242 -0.641209,-0.410099 -1.204872,-0.529479 -1.878709,-0.397901 l -0.962662,0.187976 -0.44916,2.1382272 c -0.247037,1.176024 -0.562478,2.590886 -0.700978,3.144137 -0.449726,1.796468 -0.349792,2.154268 0.552471,1.978088 0.44236,-0.0864 1.2689,-0.484798 1.836756,-0.88538 z M 35.50857,10.860714 c 1.096289,-0.773354 1.727851,-1.7014002 2.26472,-3.3278802 0.291953,-0.884492 0.285067,-1.189817 -0.04399,-1.950575 -0.922476,-2.132691 -3.967899,-1.544693 -5.869221,1.133203 -1.372117,1.932544 -1.41884,3.6542882 -0.12737,4.6935772 0.866898,0.697621 2.305855,0.488658 3.775863,-0.548328 z M 74.394165,8.9470118 c -0.17631,-0.14188 0.75325,-4.810659 1.02169,-5.131515 0.12066,-0.144219 2.11179,-0.664666 4.42475,-1.156554 2.85545,-0.607254 4.23757,-0.997496 4.30567,-1.215703 0.0699,-0.224115 -0.80411,-0.17391 -2.88866,0.165955 -3.41375,0.556579 -4.42445,0.357102 -5.29311,-1.04467195 -1.21732,-1.96444805 0.24821,-6.85291605 2.63691,-8.79573105 1.64305,-1.336347 2.94351,-1.8189398 7.07609,-2.6258948 l 3.90787,-0.763077 -0.17118,1.290197 c -0.0941,0.7095978 -0.316,1.9435528 -0.493,2.7420988 l -0.32182,1.451904 -3.47932,0.679395 c -2.75765,0.538478 -3.54709,0.774299 -3.80609,1.136947 -0.45037,0.630603 -0.13308,0.646911 2.90782,0.149456 4.33894,-0.7098 5.72823,0.250036 5.43549,3.75528905 -0.26125,3.12806195 -1.59214,5.18579195 -4.51182,6.97582795 -0.7728,0.4738 -2.03892,0.81107 -5.80668,1.546788 -2.65011,0.517478 -4.87519,0.895163 -4.94461,0.839289 z"
         id="path7" /></g></g></svg>
