<?xml version="1.0" encoding="UTF-8" standalone="no"?>
<!-- Created with Inkscape (http://www.inkscape.org/) -->

<svg
   width="105.83334mm"
   height="105.83334mm"
   viewBox="0 0 105.83333 105.83333"
   version="1.1"
   id="svg1"
   xml:space="preserve"
   inkscape:version="1.4 (e7c3feb100, 2024-10-09)"
   sodipodi:docname="new_york.svg"
   xmlns:inkscape="http://www.inkscape.org/namespaces/inkscape"
   xmlns:sodipodi="http://sodipodi.sourceforge.net/DTD/sodipodi-0.dtd"
   xmlns="http://www.w3.org/2000/svg"
   xmlns:svg="http://www.w3.org/2000/svg"><sodipodi:namedview
     id="namedview1"
     pagecolor="#ffffff"
     bordercolor="#000000"
     borderopacity="0.25"
     inkscape:showpageshadow="2"
     inkscape:pageopacity="0.0"
     inkscape:pagecheckerboard="0"
     inkscape:deskcolor="#d1d1d1"
     inkscape:document-units="mm"
     inkscape:zoom="0.99431436"
     inkscape:cx="185.555"
     inkscape:cy="73.417425"
     inkscape:window-width="1920"
     inkscape:window-height="1011"
     inkscape:window-x="0"
     inkscape:window-y="32"
     inkscape:window-maximized="1"
     inkscape:current-layer="layer5"
     showgrid="false" /><defs
     id="defs1"><inkscape:path-effect
       effect="perspective-envelope"
       up_left_point="34.400832,0.15836915"
       up_right_point="69.811124,-0.23850585"
       down_left_point="29.241457,11.90625"
       down_right_point="73.647582,11.90625"
       id="path-effect57"
       is_visible="true"
       lpeversion="1"
       deform_type="perspective"
       horizontal_mirror="false"
       vertical_mirror="false"
       overflow_perspective="false" /><inkscape:path-effect
       effect="perspective-envelope"
       up_left_point="24.651002,-42.303377"
       up_right_point="103.75908,-42.778389"
       down_left_point="9.2131432,-4.8857069"
       down_right_point="118.24692,-4.8857069"
       id="path-effect4"
       is_visible="true"
       lpeversion="1"
       deform_type="perspective"
       horizontal_mirror="false"
       vertical_mirror="false"
       overflow_perspective="false" /><inkscape:path-effect
       effect="perspective-envelope"
       up_left_point="119.30528,-35.256903"
       up_right_point="154.04893,-35.256903"
       down_left_point="113.40188,21.41964"
       down_right_point="157.73856,21.173665"
       id="path-effect3"
       is_visible="true"
       lpeversion="1"
       deform_type="perspective"
       horizontal_mirror="false"
       vertical_mirror="false"
       overflow_perspective="false" /><inkscape:path-effect
       effect="bend_path"
       id="path-effect2"
       is_visible="true"
       lpeversion="1"
       bendpath="m 114.00215,-0.769248 h 44.82863"
       prop_scale="1.0116208"
       scale_y_rel="false"
       vertical="false"
       hide_knot="false"
       bendpath-nodetypes="cc" /><inkscape:path-effect
       effect="perspective-envelope"
       up_left_point="24.651002,-42.303377"
       up_right_point="103.75908,-42.778389"
       down_left_point="9.2131432,-4.8857069"
       down_right_point="118.24692,-4.8857069"
       id="path-effect4-3"
       is_visible="true"
       lpeversion="1"
       deform_type="perspective"
       horizontal_mirror="false"
       vertical_mirror="false"
       overflow_perspective="false" /><inkscape:path-effect
       effect="perspective-envelope"
       up_left_point="24.651002,-42.303377"
       up_right_point="103.75908,-42.778389"
       down_left_point="9.2131432,-4.8857069"
       down_right_point="118.24692,-4.8857069"
       id="path-effect4-3-7"
       is_visible="true"
       lpeversion="1"
       deform_type="perspective"
       horizontal_mirror="false"
       vertical_mirror="false"
       overflow_perspective="false" /><inkscape:path-effect
       effect="perspective-envelope"
       up_left_point="34.400832,0.15836915"
       up_right_point="69.811124,-0.23850585"
       down_left_point="29.241457,11.90625"
       down_right_point="73.647582,11.90625"
       id="path-effect57-8"
       is_visible="true"
       lpeversion="1"
       deform_type="perspective"
       horizontal_mirror="false"
       vertical_mirror="false"
       overflow_perspective="false" /></defs><g
     inkscape:groupmode="layer"
     id="layer7"
     inkscape:label="borde"
     style="display:inline"><g
       inkscape:groupmode="layer"
       id="layer2"
       inkscape:label="Capa 2"
       style="display:none"><path
         d="m 25.47231,-28.616881 8.125011,-0.03094 -1.203863,1.446043 -2.303565,8.161651 c 0.109017,0.440144 0.200281,0.782431 0.273415,1.025186 0.09728,0.243673 0.195331,0.529221 0.294242,0.857222 L 18.41209,-4.8857069 14.28217,-13.5155 l 10.608014,-26.464093 -0.239182,-2.323784 12.156973,-0.073 -1.592531,5.474217 0.905633,0.654842 -5.263693,2.933921 1.523398,-4.739989 -5.114294,0.02719 -7.602743,20.521656 1.973769,3.071734 4.533352,-4.298695 1.362392,-4.239023 -2.978094,0.0086 z m 24.368937,-9.529322 -5.022741,0.0267 -4.116857,20.3883 2.283229,3.719156 3.712411,-3.670144 z m 0.677208,20.149912 0.852385,2.619346 -10.05216,10.4912381 -5.279615,-9.3107261 6.177534,-26.534843 -0.472223,-1.67474 11.790561,-0.0708 z m 19.42682,-24.57906 0.206882,4.969491 -3.173917,2.326899 -0.03253,-2.958169 -1.512898,0.008 -0.08697,24.315016 1.540497,1.119249 -5.806264,7.9091161 1.147807,-33.3263431 -1.601238,0.0085 -0.160992,3.229015 -3.137017,-1.9972 0.446094,-5.530549 z m 13.140473,1.446371 2.743278,-1.541746 6.12183,30.381009 1.705871,1.566466 -4.364654,5.8375441 -3.383988,-19.7615821 -5.782443,0.01816 1.858636,15.2386852 -3.707307,4.5047379 -3.179176,-34.9613081 -1.675331,-2.749215 4.513275,0.01241 1.52403,12.495293 5.51277,-0.0221 z m 19.528962,-1.642538 1.60918,4.422661 1.55923,0.86432 -3.16764,3.796909 -1.63627,-4.816681 -5.131452,0.02735 1.139023,3.926648 10.917879,6.136336 2.50286,6.755567 2.41228,2.673531 -3.82588,14.0991711 -10.668931,-11.6522101 -0.698884,-2.836667 -1.549107,-1.426684 3.468148,-4.929255 1.893744,6.528475 4.44665,4.444795 1.62555,-4.519125 -1.86438,-5.488169 -11.208067,-6.772209 -2.349978,-9.069512 -1.508387,-2.092988 z"
         id="text3-0"
         style="-inkscape-font-specification:Gotham;display:inline;fill:#999999;stroke-width:4.63016"
         aria-label="GOTHS"
         transform="translate(-9.9187514,68.726713)"
         inkscape:original-d="m 17.161641,-20.303396 h 9.945608 l -0.958613,1.118382 0.07988,5.831561 q 0.399422,0.439364 0.639075,0.679017 0.279596,0.239653 0.599133,0.559191 l -8.90711,7.2295381 -7.708845,-4.9528328 V -30.249004 L 9.2131432,-32.565651 H 26.148636 v 5.27237 l 1.437919,0.599133 -5.671792,2.556301 v -4.233873 h -6.830116 v 16.016822 l 3.395087,1.957168 3.435029,-2.756012 v -2.915781 h -3.474972 z m 27.987356,-8.068324 h -6.670348 v 15.896995 l 3.275261,2.35659 3.395087,-2.316648 z m 4.19393,15.737226 1.278151,1.677573 -8.907111,6.0712141 -7.509133,-5.3522551 v -20.650117 l -1.198266,-1.677572 h 16.336359 z m 22.635115,-19.931157 v 4.793064 l -4.193931,2.076994 v -2.676127 h -1.997109 v 18.333469 l 1.63763,0.6790177 -5.871504,4.4735264 V -28.37172 h -2.116936 v 2.91578 l -4.233873,-1.797399 v -5.312312 z m 17.6823,1.517803 4.114046,-1.517803 v 23.5259553 l 1.437919,0.9186706 -5.551965,3.2353182 V -17.147962 h -6.71029 v 9.7858387 l -4.233873,2.4764164 V -29.849582 l -1.957168,-2.716069 6.191041,0.03994 v 11.223758 h 6.71029 z m 27.028798,-1.517803 -0.0399,4.273815 1.59768,0.798844 -5.75167,3.315203 v -4.273816 h -6.71029 v 3.514914 l 10.86428,5.032717 v 4.912891 l 1.55774,1.797399 -9.06688,8.3079771 -7.54907,-6.7502321 0.0399,-1.837341 -1.31809,-0.958613 5.47208,-3.474971 v 4.553411 l 3.35514,2.835896 3.35515,-2.875838 v -3.794509 l -10.90422,-5.232429 v -8.068324 l -1.3181,-2.076994 z"
         inkscape:path-effect="#path-effect4-3-7" /></g></g><g
     inkscape:groupmode="layer"
     id="layer4"
     inkscape:label="luces"
     style="display:inline" /><g
     inkscape:groupmode="layer"
     id="layer6"
     inkscape:label="sombras"
     style="display:inline" /><g
     inkscape:label="letras laranxa"
     inkscape:groupmode="layer"
     id="layer1"
     style="display:inline" /><g
     inkscape:groupmode="layer"
     id="layer5"
     inkscape:label="Capa 5"
     style="display:inline"><path
       style="fill:#bec0c2;fill-rule:evenodd;stroke-width:1.40895"
       d="M 2.4444738,47.192628 52.88352,8.2796803 c 0.01853,-0.014295 0.04836,-0.014297 0.0669,1.8e-6 l 50.43904,38.9129409 c 0.0185,0.01426 0.0185,0.03732 1e-5,0.05162 L 52.950424,86.15719 c -0.01853,0.0143 -0.04831,0.01434 -0.06691,-9e-6 L 2.4444704,47.244237 c -0.018534,-0.0143 -0.018534,-0.03731 0,-0.05161 z"
       id="path58" /><path
       style="fill:#000080;fill-rule:evenodd;stroke-width:1.40895"
       d="m 1.0457868,46.114663 c -0.76883597,0.593145 -0.76883597,1.615052 0,2.208197 L 51.485534,87.236348 c 0.768845,0.593152 2.093435,0.593146 2.862271,10e-7 L 104.78756,48.322858 c 0.76883,-0.593145 0.76884,-1.615046 0,-2.208198 L 54.347808,7.2011722 c -0.768836,-0.593145 -2.093434,-0.5931454 -2.86227,-2e-7 z M 5.206269,47.218762 52.916673,10.41092 100.62708,47.218763 52.916674,84.026604 Z"
       id="path59" /><path
       style="display:inline;fill:#000080;stroke-width:0.935195"
       d="m 31.116599,16.698905 -14.228851,0.197268 0.47673,3.33346 -9.9346245,24.561665 -0.082195,11.401346 4.6321395,9.461547 13.260778,-12.990448 -0.08767,-3.755394 1.516039,-5.48514 1.399141,-1.57449 -0.149778,-5.371893 2.239355,-1.236577 0.0895,-4.14445 0.869439,-2.292324 z m -2.643022,2.679554 v 8.940979 l -0.858481,2.2631 -0.06575,3.079569 -2.31607,1.278588 0.16439,5.934472 -1.112371,1.253015 -1.782716,6.451387 0.06941,2.999201 -9.828688,9.625937 -2.7489634,-5.616651 0.074888,-10.272537 10.01134,-24.755281 -0.151604,-1.063053 z"
       id="path36" /><path
       style="display:inline;fill:#000080;stroke-width:0.935195"
       d="m 31.642646,16.538168 1.017391,3.053997 -5.759123,24.446592 -0.325126,10.904524 6.007534,10.28715 11.054301,-11.125537 0.127859,-10.727349 1.917881,-14.966779 0.210054,-11.872598 z m 3.66772,2.643023 h 7.894365 l -0.160737,9.037787 -1.917882,14.974085 -0.118726,9.808593 -7.876099,7.927242 -3.890558,-6.663268 0.294075,-9.879827 5.870543,-24.917843 z"
       id="path45" /><path
       style="display:inline;fill:#000080;stroke-width:0.935195"
       d="m 59.579782,16.408482 -13.923817,0.07489 -0.387229,6.34362 -0.06575,11.549297 4.241258,2.564481 -0.683131,30.704365 7.992998,-11.191293 0.06941,-11.375776 -1.421059,-1.172647 0.08037,-7.443205 4.491494,-2.842118 V 22.394099 Z m -2.473153,2.655809 0.224666,3.417482 v 9.682561 l -0.462118,0.292248 -0.02923,-0.885879 h -3.949008 l -0.144298,13.567639 1.426538,1.178128 -0.05663,9.284371 -2.52247,3.530728 0.617375,-27.677765 -4.155409,0.166216 -0.07123,1.349824 -0.131512,-0.07854 0.05845,-9.976635 0.231972,-3.802885 z"
       id="path46" /><path
       style="display:inline;fill:#000080;stroke-width:0.935195"
       d="m 73.275281,15.745444 -4.911603,2.573614 0.04201,0.843868 c 0,0 0.122897,2.505279 0.246585,5.048593 0.06184,1.271657 0.125359,2.552621 0.171696,3.534381 0.0093,0.1965 0.01401,0.314051 0.02192,0.484037 -0.195144,-0.0033 -0.343366,0.0027 -0.553445,-0.0055 -0.417086,-0.01629 -0.500722,-0.0279 -0.842042,-0.04931 l -1.30416,-11.680775 -6.77286,-0.09863 v 13.067164 l 1.408273,1.474029 3.337113,35.367555 6.071463,-6.880628 -0.197267,-10.667072 -0.314168,-2.48046 h 1.358956 l 3.691465,20.031812 6.155485,-8.301685 -0.06759,-11.036036 -1.651204,-1.521519 z m -11.258876,3.331633 1.762624,0.02557 1.289547,11.55843 1.090452,0.08402 c 0,0 1.007046,0.07872 2.031128,0.118727 0.512041,0.02 1.023246,0.0318 1.463069,0.01462 0.219911,-0.0086 0.411868,-0.01737 0.650253,-0.06393 0.119192,-0.02328 0.247114,-0.04326 0.47125,-0.157084 0.112069,-0.05691 0.25851,-0.137685 0.425588,-0.326953 0.167077,-0.189267 0.341565,-0.540271 0.341565,-0.902317 0,-0.214852 -0.0083,-0.286004 -0.02192,-0.591803 -0.01363,-0.305799 -0.0334,-0.722555 -0.05663,-1.214658 -0.04645,-0.984205 -0.107994,-2.267555 -0.16987,-3.539861 -0.103065,-2.11927 -0.174828,-3.564488 -0.2064,-4.204726 l 0.283115,-0.149778 5.370068,27.082309 1.44115,1.326078 0.05479,9.004909 -2.009208,2.708778 L 73.23874,43.63326 h -6.559154 l 0.673998,5.313445 0.17535,9.499904 -1.35165,1.532479 -2.849423,-30.203889 -1.311466,-1.371742 z"
       id="path47" /><path
       style="display:inline;fill:#000080;stroke-width:0.935195"
       d="m 88.320601,16.286104 -13.443433,0.07489 0.215533,12.475361 1.331558,1.731572 2.115149,8.778416 1.65851,0.884053 -0.239278,8.939152 1.592754,1.720613 0.124206,1.914228 12.124662,13.227901 4.464098,-15.880056 0.06574,-10.835116 -2.343467,-2.610145 -2.482286,-6.493397 -1.906922,-1.198219 0.124206,-7.200274 -1.629286,-0.962594 z m -1.80646,2.653982 1.444803,3.722516 1.092279,0.644773 -0.122379,7.152784 2.42201,1.521519 2.343468,6.12626 1.98729,2.21561 -0.05845,9.456067 -3.083223,10.968454 -8.287073,-9.043266 -0.124206,-1.921535 -1.4996,-1.620153 0.253891,-9.494425 -2.053046,-1.095932 -1.967198,-8.170173 -1.143423,-1.484989 -0.153431,-8.928193 z"
       id="path48" /><path
       style="display:inline;fill:#bec0c2;fill-opacity:1;stroke:none;stroke-width:0.678952;stroke-dasharray:none"
       d="m 8.9162523,44.933611 -0.1110567,10.717004 3.6223774,8.04547 11.549933,-11.497833 -0.06855,-3.821873 1.610325,-5.663909 1.110573,-1.443741 0.130045,-5.744036 2.164888,-1.252558 0.04359,-10.581908 0.826597,4.695885 -0.111057,-9.606432 -9.162206,0.999512 z"
       id="path5"
       sodipodi:nodetypes="cccccccccccccc" /><path
       id="path6"
       style="display:inline;fill:#bec0c2;fill-opacity:1;stroke:none;stroke-width:0.304875;stroke-dasharray:none"
       d="m 44.131157,18.946078 -8.162525,0.222307 -7.829548,25.265649 v 10.494814 l 4.608515,8.218101 9.606554,-9.606552 0.129998,-10.415557 1.868827,-14.849609 z m -7.885126,13.549116 3.66468,0.05558 -0.221824,9.162423 -4.164869,4.275539 -1.887675,-1.721428 z"
       sodipodi:nodetypes="ccccccccccccccc" /><path
       style="display:inline;fill:#bec0c2;fill-opacity:1;stroke:none;stroke-width:0.304875;stroke-dasharray:none"
       d="m 46.614276,23.014902 -0.02528,10.64642 2.665368,1.665855 0.284317,-10.516901 -0.284317,7.851534 h 1.887969 l -0.998274,20.257181 -0.05677,10.450087 5.330738,-7.385293 0.06819,-10.347295 -1.400875,-0.758408 0.05552,-12.549444 1.500975,-7.873401 -0.0017,10.316655 2.998539,-1.943498 -0.02743,-10.468383 -0.361271,-3.857973 -9.828548,0.388699 z"
       id="path7"
       sodipodi:nodetypes="ccccccccccccccccccc" /><path
       style="display:inline;fill:#bec0c2;fill-opacity:1;stroke:none;stroke-width:0.304875;stroke-dasharray:none"
       d="m 60.854522,17.94583 0.340975,10.950343 1.413524,1.382703 2.515874,32.969337 3.690873,-4.240575 -0.23559,-10.130265 -0.392642,-3.926459 4.004988,0.07853 3.219696,18.140242 4.083518,-5.418514 -0.157059,-10.130265 -2.355875,-1.727641 -4.711751,-27.406685 -2.376722,0.854869 0.655093,11.483165 -4.403647,-0.480128 -1.96323,-11.779377 z"
       id="path8"
       sodipodi:nodetypes="cccccccccccccccccc" /><path
       style="display:inline;fill:#bec0c2;fill-opacity:1;stroke:none;stroke-width:0.304875;stroke-dasharray:none"
       d="m 76.528297,17.965396 -0.04037,10.494389 1.09941,1.649113 2.041759,8.402623 1.8847,0.94235 -0.235587,9.030857 1.413525,1.492053 0.392646,2.355876 10.051734,10.994085 3.76939,-13.192902 -0.07856,-10.149144 -4.540621,6.507674 -2.055817,-16.147884 0.140416,-7.68401 -2.508118,-0.226349 -2.108433,-3.790488 z"
       id="path9"
       sodipodi:nodetypes="ccccccccccccccccc" /><path
       style="display:inline;fill:#000080;fill-opacity:1;stroke:none;stroke-width:0.304875;stroke-dasharray:none"
       d="m 20.413363,21.371634 5.483778,0.676983 -1.485978,4.440333 0.02352,5.495705 c -0.171692,0.550439 -5.891994,3.224359 -5.877066,3.719677 l -0.0034,8.177157 3.358378,-3.241459 -5.552851,5.330738 -3.77594,-3.331711 3.609353,-12.716031 z"
       id="path30"
       sodipodi:nodetypes="ccccscccccc" /><path
       style="display:inline;fill:#000080;fill-opacity:1;stroke:none;stroke-width:0.304875;stroke-dasharray:none"
       d="m 30.254567,17.998686 c -0.471175,-0.877295 -2.178269,5.177626 -2.178269,5.177626 l 0.97175,0.555284 -0.09323,8.553132 0.898398,-3.9165 z"
       id="path31"
       sodipodi:nodetypes="cccccc" /><path
       style="display:inline;fill:#000080;fill-opacity:1;stroke:none;stroke-width:0.304875;stroke-dasharray:none"
       d="m 35.637894,21.627747 -7.721367,22.582663 -0.05056,10.311881 4.942664,9.604999 0.205039,-11.553784 3.252458,-20.006504 3.926458,0.07853 2.748522,-11.960133 z"
       id="path33"
       sodipodi:nodetypes="ccccccccc" /><path
       style="display:inline;fill:#000080;fill-opacity:1;stroke:none;stroke-width:0.304875;stroke-dasharray:none"
       d="m 40.506701,40.710337 1.958411,2.729442 1.91804,-15.184651 0.164791,-10.375291 z"
       id="path34"
       sodipodi:nodetypes="ccccc" /><path
       style="display:inline;fill:#000080;fill-opacity:1;stroke:none;stroke-width:2.64285;stroke-dasharray:none;stroke-opacity:1"
       d="m 8.7531203,44.343882 3.9528647,8.543288 c -0.0425,3.768681 -0.08501,8.94046 -0.127512,11.306043 L 7.8605381,55.947454 Z"
       id="path37"
       sodipodi:nodetypes="ccccc" /><path
       style="display:inline;fill:#000080;fill-opacity:1;stroke:none;stroke-width:2.64285;stroke-dasharray:none;stroke-opacity:1"
       d="m 26.817286,30.785133 0.13928,11.677197 -1.159374,0.308908 -1.974536,10.170012 0.197154,-11.375488 -0.730349,-1.769797 2.210204,-7.820722 z"
       id="path38"
       sodipodi:nodetypes="cccccccc" /><path
       style="display:inline;fill:#000080;fill-opacity:1;stroke:none;stroke-width:2.64285;stroke-dasharray:none;stroke-opacity:1"
       d="m 55.683498,21.819342 v 11.010953 h -6.433365 l 0.371155,-11.134671 4.268291,-1.670201 z"
       id="path39"
       sodipodi:nodetypes="cccccc" /><path
       style="display:inline;fill:#000080;fill-opacity:1;stroke:none;stroke-width:2.64285;stroke-dasharray:none;stroke-opacity:1"
       d="m 60.725029,17.76756 -0.03093,11.07281 1.329974,1.453693 3.123894,32.785418 0.09279,-10.175851 -1.484623,-32.940066 z"
       id="path40" /><path
       style="display:inline;fill:#000080;fill-opacity:1;stroke:none;stroke-width:2.64285;stroke-dasharray:none;stroke-opacity:1"
       d="M 75.360055,65.266537 75.514703,53.065784 72.416432,34.253058 72.112443,45.309949 Z"
       id="path41"
       sodipodi:nodetypes="ccccc" /><path
       style="display:inline;fill:#000080;fill-opacity:1;stroke:none;stroke-width:2.64285;stroke-dasharray:none;stroke-opacity:1"
       d="m 69.756483,19.128465 0.433015,11.13467 1.855778,0.03093 c 0,0 -1.299045,-10.144922 -1.329974,-10.26864 -0.03093,-0.123718 -0.958819,-0.896959 -0.958819,-0.896959 z"
       id="path42" /><path
       style="display:inline;fill:#000080;fill-opacity:1;stroke:none;stroke-width:2.64285;stroke-dasharray:none;stroke-opacity:1"
       d="m 80.806203,21.376598 1.224751,4.680299 5.467641,3.674255 v -5.117711 l -1.224752,-3.761736 z"
       id="path43" /><path
       style="display:inline;fill:#000080;fill-opacity:1;stroke:none;stroke-width:2.64285;stroke-dasharray:none;stroke-opacity:1"
       d="m 76.300868,17.596744 1.618421,1.942728 2.143315,8.398294 10.541608,6.34246 2.8451,5.701761 0.0074,12.777555 L 93.12308,64.022897 82.745824,52.62898 82.057866,50.289474 80.8106,48.849127 l 0.200587,-9.221872 -1.63343,-0.820466 -2.24141,-8.23834 -0.747994,-2.193273 z"
       id="path44"
       sodipodi:nodetypes="ccccccccccccccc" /><path
       style="-inkscape-font-specification:Gotham;display:inline;fill:#ff6600;fill-opacity:1;stroke-width:4.3301"
       d="m 87.484159,17.594386 1.504898,4.136052 1.458184,0.808308 -2.962362,3.550852 -1.530232,-4.504538 -4.79891,0.02558 1.065209,3.672183 10.21035,5.738673 2.340662,6.317775 2.255942,2.500274 -3.577933,13.18548 -9.977535,-10.897093 -0.653593,-2.652838 -1.448718,-1.334229 3.243396,-4.609816 1.77102,6.1054 4.158487,4.156751 1.520207,-4.226265 -1.74356,-5.13251 -10.481732,-6.333339 -2.197689,-8.481765 -1.410636,-1.957353 z"
       id="path57" /><path
       style="-inkscape-font-specification:Gotham;display:inline;fill:#ff6600;fill-opacity:1;stroke-width:4.3301"
       d="m 69.715638,19.13048 2.565501,-1.441834 5.725107,28.41218 1.595323,1.464951 -4.081804,5.459245 -3.16469,-18.480941 -5.407714,0.01698 1.738188,14.251148 -3.467057,4.212811 -2.973151,-32.695654 -1.566761,-2.571054 4.220794,0.01161 1.425265,11.685541 5.155517,-0.02067 z"
       id="path56" /><path
       style="-inkscape-font-specification:Gotham;display:inline;fill:#ff6600;fill-opacity:1;stroke-width:4.3301"
       d="m 58.416478,17.77784 0.193475,4.647445 -2.968233,2.176106 -0.03042,-2.766466 -1.414855,0.0075 -0.08133,22.739291 1.440666,1.046717 -5.429992,7.396568 1.073424,-31.166642 -1.49747,0.0079 -0.150559,3.01976 -2.933724,-1.867772 0.417185,-5.172144 z"
       id="path55" /><path
       id="path53"
       style="-inkscape-font-specification:Gotham;display:inline;fill:#ff6600;fill-opacity:1;stroke-width:4.3301"
       d="m 41.099907,21.919959 -4.697244,0.02497 -3.850066,19.067044 2.135265,3.478138 3.47183,-3.432302 z m 0.633322,18.844105 0.797146,2.4496 -9.400734,9.811358 -4.937471,-8.707348 5.777201,-24.815263 -0.441621,-1.566209 11.026479,-0.06621 z" /><path
       style="-inkscape-font-specification:Gotham;display:inline;fill:#ff6600;fill-opacity:1;stroke-width:4.3301"
       d="m 19.299938,30.831737 7.598473,-0.02894 -1.125847,1.352333 -2.154283,7.632738 c 0.101952,0.411621 0.187301,0.731726 0.255696,0.958749 0.09098,0.227882 0.182673,0.494925 0.275174,0.80167 L 12.697253,53.025021 8.8349708,44.954479 18.755537,20.205381 18.531855,18.032189 29.901,17.96392 l -1.489328,5.119462 0.846944,0.612405 -4.922581,2.74379 1.424674,-4.432816 -4.782864,0.02543 -7.11005,19.191758 1.84586,2.872671 4.23957,-4.020119 1.274102,-3.964315 -2.7851,0.008 z"
       id="text3" /><path
       id="path62"
       style="font-size:11.0344px;line-height:1;font-family:Gotham;-inkscape-font-specification:Gotham;text-align:center;letter-spacing:0.467126px;word-spacing:0px;text-anchor:middle;display:inline;fill:#000080;stroke-width:4.59461"
       d="m 67.589621,7.7716047 0.889342,-0.5313373 0.04274,2.9819976 0.295257,0.378681 -1.579073,1.491897 -0.0399,2.034079 0.384906,0.30349 -1.535899,1.450441 0.173878,-3.78425 -1.249475,-1.040148 0.271036,-3.3680469 -0.253194,-0.4187495 1.250853,-0.010535 -0.174336,3.1772124 0.695396,0.538213 0.799563,-0.758729 z m 4.480739,0.5178845 -1.472713,0.01086 0.358313,4.7937778 0.901344,0.82372 0.776654,-0.814535 z m 1.610919,4.7423598 0.410783,0.583124 -2.058012,2.26588 L 69.922019,13.87878 69.62507,7.6533003 69.349448,7.2329361 72.84333,7.2035101 Z m 2.892722,-4.7968642 -1.484717,0.010978 0.513119,2.5144712 1.217036,-1.5311785 z m 0.921746,-1.0706586 -0.137859,0.5093568 0.458264,1.67353 0.380434,0.2030408 -1.164547,1.4369052 1.499449,0.972378 0.536425,1.958955 0.504937,0.201797 -1.111447,1.760564 -0.776819,-3.146896 -1.30698,-0.870163 -0.428996,0.593173 0.322845,1.582064 0.462659,0.173348 -1.234976,1.668474 -1.429684,-8.0779541 -0.425489,-0.6061322 z m 3.504203,0.4391132 -0.470185,-0.4546182 1.202334,-0.010115 0.810569,1.9859562 0.437173,0.269948 -0.96723,1.6063496 1.652463,0.873687 0.889263,2.178771 0.700437,0.486007 -1.111023,1.341428 -1.225175,-3.190048 -1.447328,-0.794669 -0.282071,0.51666 0.849461,2.506448 -0.835005,0.961609 -2.585565,-8.2995929 -0.435695,-0.4227172 1.222591,-0.010296 1.190909,3.5139481 0.986243,-1.5312917 z" /><path
       id="text57"
       style="font-size:11.0344px;line-height:1;font-family:Gotham;-inkscape-font-specification:Gotham;text-align:center;letter-spacing:0.467126px;word-spacing:0px;text-anchor:middle;display:inline;fill:#000080;stroke-width:4.59461"
       d="m 31.030753,7.8055788 0.0058,-0.414911 1.059661,-0.00892 -3.288768,6.8338762 0.0094,0.414497 -1.874858,1.250736 1.290707,-2.549076 0.266131,-3.6085913 -2.43976,4.4406323 -0.07957,0.614355 -1.932,1.10268 4.600466,-8.006223 -0.06709,-0.4632786 1.185446,-0.00998 -0.136588,3.1713286 z m 5.470219,-0.4609337 -0.349006,0.9923593 0.273081,0.3233692 -1.764126,1.2619563 0.568078,-1.5055964 -1.432303,0.010561 -0.944228,2.2579215 1.732506,-0.0089 -1.230038,1.291225 -1.040395,0.004 -0.984265,2.353663 1.186989,0.01245 0.836458,-0.950829 0.322488,-0.854703 1.263254,-0.747533 -0.349988,0.967889 0.134347,0.671971 -1.881626,2.440982 -3.252818,0.0154 3.443487,-7.7573331 -0.05329,-0.7492108 z m 5.50017,0.576464 0.972295,-0.6309765 -0.530381,3.2980904 0.221232,0.118237 -3.004703,5.174393 -0.504689,-3.549724 -2.2863,3.549724 -0.36283,-4.975715 0.981959,-3.0604537 -0.0656,-0.4979768 1.092993,-0.019026 -0.991967,3.3929535 0.188823,2.062013 1.281181,-2.009761 0.739597,-2.8952018 0.551482,-0.2869483 0.450974,-0.2817538 -0.753947,3.3633709 0.319381,2.10239 1.181017,-2.062283 z" /><ellipse
       style="display:inline;fill:#ff6600;fill-opacity:1;stroke-width:1.41336"
       id="path6-1"
       cx="-92.610992"
       cy="6.9166451"
       rx="22.128185"
       ry="21.599226"
       transform="rotate(-120)" /><path
       style="display:inline;fill:#000080;fill-opacity:1;stroke-width:3.50623"
       d="m 73.50694,69.401273 c 2.172839,6.957878 1.236392,13.654078 -2.741183,19.601031 -2.293243,3.428745 -3.881,4.91504 -7.454474,6.978186 -4.239951,2.447936 -8.40944,3.397228 -13.240596,3.014585 -9.644212,-0.763899 -18.079499,-8.238767 -20.004838,-17.727158 -0.797917,-3.932276 -0.696306,-6.674627 0.395235,-10.666352 1.082818,-3.959915 2.153266,-6.016308 4.684971,-9.000239 1.718972,-2.025994 1.837506,-2.494825 5.67823,-4.694206 3.618579,-2.072989 4.324716,-2.03231 6.547912,-2.486428 3.242872,-0.662493 6.238541,-0.602497 9.699142,0.19415 3.840896,0.884209 6.95973,2.466929 9.884923,5.016321 2.058714,1.794208 2.612548,2.455446 4.167692,4.975779 1.186285,1.922506 1.993097,3.54568 2.382986,4.794331 z M 66.183715,61.513902 C 62.791838,59.492048 56.14167,58.94327 52.002095,60.343635 l -0.892942,0.30218 1.568997,1.282239 c 0.862949,0.705238 3.436121,2.373879 5.718166,3.708091 8.732416,5.105483 11.452718,7.258983 13.520284,10.703212 1.096291,1.826286 1.121489,1.797617 0.986927,-1.122928 C 72.661934,69.973466 69.475671,63.476272 66.183765,61.513991 Z M 58.47453,56.656096 c -3.238777,-1.099255 -7.367267,-1.289077 -8.303866,-0.381767 -0.529143,0.512396 -0.484973,2.20672 0.06913,2.655522 0.176571,0.143009 1.032012,0.05798 1.900967,-0.188961 2.103706,-0.597846 5.893644,-0.895369 7.978118,-0.626303 0.927581,0.119735 1.751233,0.180322 1.830338,0.134651 0.203414,-0.117442 -1.705572,-0.992692 -3.474684,-1.593142 z m 10.112851,17.81358 c -1.950458,-1.940073 -4.261556,-3.55249 -9.633993,-6.721549 -5.479049,-3.231925 -8.454165,-5.283173 -9.004022,-6.207968 -0.272156,-0.458021 -0.536471,-0.446183 -1.763569,0.07851 -0.793895,0.33931 -1.762014,0.799882 -2.151563,1.023168 l -0.708475,0.405629 8.980177,15.554127 8.980055,15.553911 0.656246,-0.378885 c 1.18219,-0.682536 3.851819,-3.316009 5.05266,-4.984232 2.312717,-3.212886 3.364622,-6.169408 2.964455,-8.331969 -0.303514,-1.640221 -1.964015,-4.590312 -3.371976,-5.990776 z M 46.153699,56.466244 c -0.793773,0.257876 -1.973496,0.68591 -2.621586,0.951209 l -1.17836,0.482354 1.114982,1.931206 1.114983,1.931206 0.863938,-0.49879 c 0.475161,-0.274337 1.426455,-0.728411 2.114117,-1.008847 l 1.250189,-0.510043 -0.355332,-1.010462 c -0.19544,-0.555758 -0.292364,-1.404919 -0.215376,-1.886987 0.163782,-1.025825 -0.0065,-1.056886 -2.08755,-0.380851 z m -3.076049,7.882461 c -0.388106,0.225779 -1.261515,0.827131 -1.941061,1.336057 -1.174421,0.880083 -1.218616,0.973209 -0.896141,1.890127 0.522581,1.486055 0.772483,4.736081 0.796741,10.362094 0.03776,8.758637 0.521807,11.834739 2.364526,15.026421 1.803388,3.123555 3.706358,4.22111 7.64348,4.408412 1.041617,0.04957 2.637933,0.0091 3.54737,-0.08986 1.771785,-0.192848 5.417739,-1.235383 6.494577,-1.857097 L 61.743389,95.045972 52.763329,79.492057 43.78326,63.938121 Z m -3.269936,-4.773112 c -0.551865,0.431962 -1.583799,1.337938 -2.293032,2.01353 -0.709282,0.675509 -1.345913,1.260879 -1.414818,1.300663 -0.0689,0.03978 0.309652,0.270987 0.841294,0.513773 0.531648,0.242811 1.253591,0.768043 1.604356,1.167157 0.605682,0.689194 0.679929,0.691073 1.475724,0.03756 0.460808,-0.378597 1.328891,-0.973318 1.928967,-1.321788 L 43.041357,62.6531 41.92637,60.721892 40.811388,58.790686 Z m -3.309558,10.618298 c -3.528749,4.371496 -5.15434,9.439211 -4.189081,13.059443 0.914748,3.430845 4.74922,8.423087 8.139197,10.596729 2.555639,1.638679 2.589073,1.633832 1.557193,-0.225919 -1.887347,-3.40151 -2.4558,-7.037632 -2.512133,-16.068633 -0.03914,-6.276375 -0.398105,-9.652873 -1.006077,-9.463645 -0.214681,0.06686 -1.109759,1.012792 -1.989099,2.102025 z m 0.437356,-4.995186 c -1.487755,-1.283349 -3.010421,0.127922 -4.494105,4.165354 -0.815737,2.219821 -1.740217,7.656008 -1.093791,6.431807 0.0675,-0.128036 0.591152,-1.188402 1.163573,-2.356603 0.923751,-1.885295 4.025623,-6.002755 4.904294,-6.510056 0.708564,-0.409091 0.600583,-0.798419 -0.479971,-1.730502 z"
       id="path5-0"
       sodipodi:nodetypes="sssssssccssssssccssssssscsssssssccscccssssssscccsccssscccssssssccccccssscscccscsssssssscss" /></g></svg>
