<?xml version="1.0" encoding="UTF-8" standalone="no"?>
<!-- Created with Inkscape (http://www.inkscape.org/) -->

<svg
   width="105.83334mm"
   height="105.83334mm"
   viewBox="0 0 105.83333 105.83333"
   version="1.1"
   id="svg1"
   xml:space="preserve"
   inkscape:version="1.4.2 (ebf0e940d0, 2025-05-08)"
   sodipodi:docname="okc.svg"
   inkscape:export-filename="../pngs/denver.png"
   inkscape:export-xdpi="96"
   inkscape:export-ydpi="96"
   xmlns:inkscape="http://www.inkscape.org/namespaces/inkscape"
   xmlns:sodipodi="http://sodipodi.sourceforge.net/DTD/sodipodi-0.dtd"
   xmlns="http://www.w3.org/2000/svg"
   xmlns:svg="http://www.w3.org/2000/svg"><sodipodi:namedview
     id="namedview1"
     pagecolor="#ffffff"
     bordercolor="#000000"
     borderopacity="0.25"
     inkscape:showpageshadow="2"
     inkscape:pageopacity="0.0"
     inkscape:pagecheckerboard="0"
     inkscape:deskcolor="#d1d1d1"
     inkscape:document-units="mm"
     inkscape:zoom="0.79101176"
     inkscape:cx="298.98418"
     inkscape:cy="-85.965852"
     inkscape:window-width="1920"
     inkscape:window-height="1011"
     inkscape:window-x="0"
     inkscape:window-y="32"
     inkscape:window-maximized="1"
     inkscape:current-layer="layer1"
     showgrid="false"
     showguides="true" /><defs
     id="defs1"><filter
       id="mask-powermask-path-effect61_inverse"
       inkscape:label="filtermask-powermask-path-effect61"
       style="color-interpolation-filters:sRGB"
       height="100"
       width="100"
       x="-50"
       y="-50"><feColorMatrix
         id="mask-powermask-path-effect61_primitive1"
         values="1"
         type="saturate"
         result="fbSourceGraphic" /><feColorMatrix
         id="mask-powermask-path-effect61_primitive2"
         values="-1 0 0 0 1 0 -1 0 0 1 0 0 -1 0 1 0 0 0 1 0 "
         in="fbSourceGraphic" /></filter><clipPath
       clipPathUnits="userSpaceOnUse"
       id="clipPath61"><path
         style="fill:none;fill-opacity:1;stroke:#1a1a1a;stroke-width:0.3;stroke-dasharray:none;stroke-opacity:1"
         d="m 19.343363,137.48906 1.575839,2.57864 -1.432581,4.72752 -0.859548,2.14887 -0.573032,3.58145 2.005613,2.43539 62.460506,-10.02807 2.148872,-6.30335 2.721904,-5.87358 -26.932515,3.72471 -6.446612,0.85955 -0.143256,-3.86797 -5.730322,0.71629 -1.146067,2.57864 -4.154482,1.43258 -3.867967,2.14888 -7.019645,0.14326 -1.432581,-2.57865 z"
         id="path61" /></clipPath></defs><g
     inkscape:label="Capa 1"
     inkscape:groupmode="layer"
     id="layer1"><text
       xml:space="preserve"
       style="font-size:10.5833px;line-height:1;font-family:Sportsball;-inkscape-font-specification:Sportsball;text-align:center;letter-spacing:1.57692px;writing-mode:lr-tb;direction:ltr;text-anchor:middle;white-space:pre;inline-size:45.3146;display:inline;fill:#808080;stroke:none;stroke-width:2.896"
       x="59.618671"
       y="77.566704"
       id="text1"
       transform="translate(200.86457,53.973698)"><tspan
         x="59.618671"
         y="77.566704"
         id="tspan4"><tspan
           dx="0 6.4647012 5.369164 5.3226562 8.9244938 5.4518428"
           style="font-family:'Ranked Sports';-inkscape-font-specification:'Ranked Sports'"
           id="tspan1">azzmen</tspan></tspan></text><g
       id="g7"
       transform="matrix(0.83805179,0,0,0.83805179,-89.574897,92.71746)"><path
         style="fill:#fdbb30;fill-opacity:1;stroke:#ffffff;stroke-width:15.522;stroke-dasharray:none;stroke-opacity:1"
         d="m 166.09814,-47.753321 -1.43337,6.550944 -1.43337,6.550947 -5.30364,0.203538 -5.30364,0.203542 3.07436,-16.946938 3.07436,-16.946938 -1.09001,-1.327397 -1.09001,-1.327396 6.58905,0.04673 6.58905,0.04673 -1.30671,7.943061 c -0.71864,4.368681 -1.14561,7.937509 -0.9488,7.930731 0.19682,-0.0069 3.23155,-3.613094 6.74386,-8.01403 l 6.38601,-8.001703 6.49572,-0.216813 c 3.69875,-0.123462 6.46183,-0.03 6.41701,0.217082 -0.0433,0.238646 -3.28058,4.107812 -7.19397,8.598148 -3.91338,4.490336 -7.18628,8.55581 -7.2731,9.03439 -0.0868,0.478581 0.0648,1.287257 0.33697,1.797064 0.27217,0.509806 0.87201,1.884516 1.33296,3.054913 0.46097,1.170398 2.72993,6.533661 5.04211,11.918367 2.26027,8.536574 -9.45506,5.039127 -19.70484,-11.314976 z m -39.89006,12.917627 c -4.52056,-1.416957 -8.64394,-5.652945 -9.81959,-10.087765 -1.0552,-3.980426 0.40563,-10.893157 3.18751,-15.083548 2.02654,-3.052624 6.83275,-7.006814 10.50268,-8.640812 8.13745,-3.623126 17.54186,-1.605223 21.69048,4.654133 1.69537,2.557936 2.12011,3.74716 2.40202,6.72537 0.39022,4.122372 -1.13018,9.564509 -3.66102,13.104283 -5.54051,7.749278 -16.23873,11.855782 -24.30208,9.328339 z m 13.31138,-11.661717 c 2.10453,-1.655064 3.2127,-3.435928 3.65492,-5.873595 0.66094,-3.643341 -0.86924,-6.238182 -4.4075,-7.474141 -1.69212,-0.591075 -2.25344,-0.587191 -4.42075,0.03058 -3.98781,1.136717 -6.70655,3.955377 -7.37633,7.647462 -0.67628,3.727853 0.99281,6.451969 4.5902,7.491639 2.4415,0.705614 5.69142,-0.0383 7.95946,-1.82195 z m 62.05626,10.667014 c -7.42127,-2.650778 -11.20174,-9.244609 -9.79471,-17.083826 1.33054,-7.416092 6.43385,-13.456914 14.32015,-16.952655 2.73551,-1.21256 3.51279,-1.328555 10.68589,-1.594702 7.32924,-0.271938 7.71674,-0.24069 7.37355,0.594688 -0.19927,0.48494 -0.90751,2.166452 -1.57395,3.736693 -0.66645,1.570239 -1.45597,3.443746 -1.75452,4.163349 -0.5381,1.297033 -0.57783,1.30885 -4.58541,1.363777 -8.42263,0.115339 -12.75985,2.775577 -13.79076,8.45827 -1.02776,5.665375 2.50244,8.248234 11.11986,8.135751 3.63884,-0.0475 3.70292,-0.02616 3.76304,1.252164 0.0336,0.715269 0.15572,2.36394 0.27134,3.663713 0.1156,1.299775 0.24242,2.948386 0.28182,3.663578 l 0.0716,1.300349 -7.0043,0.07443 c -5.56161,0.059 -7.49435,-0.100686 -9.3836,-0.775501 z"
         id="path1-3-6"
         sodipodi:nodetypes="cccccccccccccccssssccscscccsccsssscssssccsscsscsscsccccc" /><path
         style="fill:#fdbb30;fill-opacity:1;stroke:#ef3b24;stroke-width:12.022;stroke-dasharray:none;stroke-opacity:1"
         d="m 166.09814,-47.753321 -1.43337,6.550944 -1.43337,6.550947 -5.30364,0.203538 -5.30364,0.203542 3.07436,-16.946938 3.07436,-16.946938 -1.09001,-1.327397 -1.09001,-1.327396 6.58905,0.04673 6.58905,0.04673 -1.30671,7.943061 c -0.71864,4.368681 -1.14561,7.937509 -0.9488,7.930731 0.19682,-0.0069 3.23155,-3.613094 6.74386,-8.01403 l 6.38601,-8.001703 6.49572,-0.216813 c 3.69875,-0.123462 6.46183,-0.03 6.41701,0.217082 -0.0433,0.238646 -3.28058,4.107812 -7.19397,8.598148 -3.91338,4.490336 -7.18628,8.55581 -7.2731,9.03439 -0.0868,0.478581 0.0648,1.287257 0.33697,1.797064 0.27217,0.509806 0.87201,1.884516 1.33296,3.054913 0.46097,1.170398 2.72993,6.533661 5.04211,11.918367 2.26027,8.536574 -9.45506,5.039127 -19.70484,-11.314976 z m -39.89006,12.917627 c -4.52056,-1.416957 -8.64394,-5.652945 -9.81959,-10.087765 -1.0552,-3.980426 0.40563,-10.893157 3.18751,-15.083548 2.02654,-3.052624 6.83275,-7.006814 10.50268,-8.640812 8.13745,-3.623126 17.54186,-1.605223 21.69048,4.654133 1.69537,2.557936 2.12011,3.74716 2.40202,6.72537 0.39022,4.122372 -1.13018,9.564509 -3.66102,13.104283 -5.54051,7.749278 -16.23873,11.855782 -24.30208,9.328339 z m 13.31138,-11.661717 c 2.10453,-1.655064 3.2127,-3.435928 3.65492,-5.873595 0.66094,-3.643341 -0.86924,-6.238182 -4.4075,-7.474141 -1.69212,-0.591075 -2.25344,-0.587191 -4.42075,0.03058 -3.98781,1.136717 -6.70655,3.955377 -7.37633,7.647462 -0.67628,3.727853 0.99281,6.451969 4.5902,7.491639 2.4415,0.705614 5.69142,-0.0383 7.95946,-1.82195 z m 62.05626,10.667014 c -7.42127,-2.650778 -11.20174,-9.244609 -9.79471,-17.083826 1.33054,-7.416092 6.43385,-13.456914 14.32015,-16.952655 2.73551,-1.21256 3.51279,-1.328555 10.68589,-1.594702 7.32924,-0.271938 7.71674,-0.24069 7.37355,0.594688 -0.19927,0.48494 -0.90751,2.166452 -1.57395,3.736693 -0.66645,1.570239 -1.45597,3.443746 -1.75452,4.163349 -0.5381,1.297033 -0.57783,1.30885 -4.58541,1.363777 -8.42263,0.115339 -12.75985,2.775577 -13.79076,8.45827 -1.02776,5.665375 2.50244,8.248234 11.11986,8.135751 3.63884,-0.0475 3.70292,-0.02616 3.76304,1.252164 0.0336,0.715269 0.15572,2.36394 0.27134,3.663713 0.1156,1.299775 0.24242,2.948386 0.28182,3.663578 l 0.0716,1.300349 -7.0043,0.07443 c -5.56161,0.059 -7.49435,-0.100686 -9.3836,-0.775501 z"
         id="path1-3"
         sodipodi:nodetypes="cccccccccccccccssssccscscccsccsssscssssccsscsscsscsccccc" /><path
         style="fill:#fdbb30;fill-opacity:1;stroke-width:1.01121"
         d="m 188.83271,-5.0804469 c -0.007,-0.01669 -1.3398,-2.718642 -2.96159,-6.0044751 -3.18817,-6.45939 -5.16972,-10.480189 -5.34452,-10.8447 -0.0606,-0.12627 -0.23989,-0.48917 -0.39852,-0.806435 -0.39871,-0.797457 -0.4054,-0.811151 -0.40585,-0.830984 2.4e-4,-0.0097 3.90411,-0.784192 8.67631,-1.721103 4.77217,-0.93691 8.67651,-1.710947 8.6763,-1.720075 1.4e-4,-0.0092 -0.0563,-0.123454 -0.12451,-0.254066 -0.0682,-0.130612 -0.15507,-0.300201 -0.19294,-0.376865 -0.0379,-0.07666 -0.30862,-0.603463 -0.60169,-1.170658 -0.29307,-0.567199 -0.58074,-1.125076 -0.63927,-1.239732 -0.14706,-0.28805 -0.23959,-0.467712 -0.71005,-1.378747 -0.22533,-0.436326 -0.45752,-0.887143 -0.51596,-1.001818 -0.0584,-0.11467 -0.1686,-0.328961 -0.24479,-0.476192 -0.0762,-0.147231 -0.17495,-0.339184 -0.21948,-0.426553 -0.1415,-0.277659 -0.77218,-1.501164 -0.86401,-1.676177 -0.0485,-0.09258 -0.12448,-0.239873 -0.16875,-0.327292 -0.0442,-0.08743 -0.14034,-0.274986 -0.21357,-0.416793 -0.0733,-0.141804 -0.21363,-0.414048 -0.31199,-0.604983 -0.0983,-0.190942 -0.33306,-0.646175 -0.52158,-1.011636 -0.18851,-0.365462 -0.37918,-0.735963 -0.42372,-0.823331 -0.0445,-0.08739 -0.14329,-0.279321 -0.21948,-0.426555 -0.0762,-0.147229 -0.18633,-0.36152 -0.2448,-0.476189 -0.0584,-0.11467 -0.23555,-0.458351 -0.39353,-0.763729 -0.15797,-0.305378 -0.32369,-0.626716 -0.36827,-0.714075 -0.0446,-0.08738 -0.14339,-0.279303 -0.21957,-0.426537 -0.0762,-0.147231 -0.18633,-0.361523 -0.24478,-0.476196 -0.0584,-0.11467 -0.34588,-0.6726 -0.63874,-1.239839 -0.29285,-0.567238 -0.56869,-1.102865 -0.61297,-1.190287 -0.0443,-0.08741 -0.32027,-0.623019 -0.61333,-1.190217 -0.29307,-0.567196 -0.55745,-1.080496 -0.58751,-1.14067 -0.0456,-0.09111 -0.70896,-1.378213 -1.23206,-2.390301 -0.0733,-0.141803 -0.16275,-0.318364 -0.19879,-0.392391 l -0.0656,-0.134572 -10.86798,2.133694 -14.93444,-3.559122 0.36612,0.22025 c 0.0303,0.03307 6.79573,8.629073 10.44402,12.340011 l 6.63328,6.747161 -9.74536,1.918777 c -5.35996,1.055328 -9.75334,1.92795 -9.76307,1.939158 -0.0102,0.01127 6.96799,5.047802 15.50608,11.192426 8.53808,6.144623 15.51799,11.1584391 15.5109,11.1418061 z"
         id="path4"
         sodipodi:nodetypes="cscscscscssssssccccscscscscscscccccccscscscc" /><path
         style="fill:#ef3b24;fill-opacity:1;stroke-width:1.01868"
         d="m 189.05458,-5.1018199 c -0.0702,-0.153936 -0.18781,-0.393714 -0.39887,-0.812895 -0.10822,-0.21505 -0.21107,-0.423559 -0.3462,-0.702217 -0.13342,-0.275089 -0.28579,-0.583713 -0.39619,-0.802425 -0.10669,-0.211343 -0.20768,-0.416071 -0.34642,-0.702169 -0.13342,-0.27509 -0.28579,-0.583714 -0.3962,-0.802424 -0.10669,-0.211343 -0.20767,-0.416071 -0.34642,-0.702169 -0.13342,-0.275089 -0.28578,-0.5837171 -0.39617,-0.8024281 -0.10669,-0.211341 -0.20769,-0.416068 -0.34644,-0.702166 -0.13342,-0.275091 -0.28578,-0.583716 -0.39617,-0.802429 -0.10669,-0.211343 -0.20769,-0.41607 -0.34643,-0.702167 -0.19024,-0.392278 -0.41858,-0.852687 -0.62801,-1.266226 -0.076,-0.150225 -0.13845,-0.279473 -0.13861,-0.287251 0,-0.0078 -0.0494,-0.11053 -0.10951,-0.228365 -0.0601,-0.117827 -0.16697,-0.331616 -0.23753,-0.475101 -0.0706,-0.143488 -0.18195,-0.369175 -0.24751,-0.501539 -0.0655,-0.132364 -0.17696,-0.358048 -0.24754,-0.501529 -0.0706,-0.143485 -0.18196,-0.369172 -0.24753,-0.501533 -0.0655,-0.132365 -0.17695,-0.358051 -0.24753,-0.501531 -0.0706,-0.143486 -0.18198,-0.369169 -0.24754,-0.501531 -0.0655,-0.132365 -0.17696,-0.358051 -0.24754,-0.501534 -0.0706,-0.143483 -0.18197,-0.369166 -0.24754,-0.501528 -0.0655,-0.132367 -0.17696,-0.358051 -0.24753,-0.501533 -0.0706,-0.143485 -0.18197,-0.36917 -0.24753,-0.501531 -0.0655,-0.132366 -0.17696,-0.358052 -0.24754,-0.501533 -0.0706,-0.143486 -0.18197,-0.369169 -0.24754,-0.50153 -0.0655,-0.132366 -0.17689,-0.358063 -0.24741,-0.501557 -0.0705,-0.143506 -0.17214,-0.347328 -0.22583,-0.452967 -0.0538,-0.105614 -0.11877,-0.246348 -0.14465,-0.312682 -0.0259,-0.06634 -0.17677,-0.377356 -0.33536,-0.691152 -0.15858,-0.313795 -0.31999,-0.638592 -0.35868,-0.721767 -0.0387,-0.08317 -0.10849,-0.222956 -0.15502,-0.310645 l -0.0847,-0.159419 -3.27413,0.637233 c -2.1878,0.425806 -3.27396,0.644547 -3.27364,0.659296 4.4e-4,0.01217 0.25384,0.427192 0.56349,0.922329 l 0.56299,0.900247 0.0874,-0.01037 0.0874,-0.01037 2.40925,3.333895 c 1.32508,1.833643 2.46339,3.407434 2.52958,3.497315 0.0662,0.08987 0.32056,0.440982 0.56527,0.780231 0.70051,0.971097 1.26929,1.758296 1.77574,2.457703 l 0.46778,0.6460051 3.3382,2.40267 3.33819,2.40267 z m 8.3937,-21.9158501 c -1.8e-4,-0.0068 -0.0386,-0.08587 -0.0853,-0.175877 -0.0468,-0.08998 -0.14534,-0.280515 -0.21905,-0.423382 -0.0737,-0.142871 -0.19202,-0.372145 -0.26294,-0.50951 -0.0709,-0.137369 -0.18215,-0.353179 -0.24714,-0.479604 -0.065,-0.126421 -0.17604,-0.342274 -0.24681,-0.479668 -0.0708,-0.137404 -0.17722,-0.344246 -0.23659,-0.45967 -0.14195,-0.27598 -0.34476,-0.66945 -0.5047,-0.979167 -0.14353,-0.277964 -0.31364,-0.60819 -0.49926,-0.969234 -0.33073,-0.643286 -0.50412,-0.979895 -0.73597,-1.428879 -0.0709,-0.13737 -0.18453,-0.357664 -0.25245,-0.489564 -0.0679,-0.131891 -0.17908,-0.347731 -0.24703,-0.479626 -0.068,-0.131882 -0.17668,-0.343249 -0.24168,-0.469675 -0.13022,-0.253219 -0.29698,-0.577021 -0.49417,-0.959229 -0.1502,-0.291109 -0.32742,-0.63524 -0.49403,-0.959255 -0.065,-0.12642 -0.17611,-0.342264 -0.24689,-0.479656 -0.0707,-0.1374 -0.17922,-0.348804 -0.24098,-0.469808 -0.0618,-0.120995 -0.16641,-0.320481 -0.23251,-0.443282 -0.0661,-0.122791 -0.12028,-0.22911 -0.12053,-0.236208 -1.3e-4,-0.0071 -0.0622,-0.131402 -0.13792,-0.27618 -0.0757,-0.144784 -0.18835,-0.362206 -0.25034,-0.483167 -0.0619,-0.120968 -0.16671,-0.320767 -0.23269,-0.444019 -0.066,-0.123247 -0.12007,-0.229774 -0.12019,-0.236723 -4e-5,-0.01492 -0.21484,-0.430603 -0.33938,-0.657695 -0.0479,-0.08744 -0.11223,-0.213423 -0.14287,-0.280025 -0.0306,-0.0666 -0.10786,-0.21978 -0.17152,-0.340413 -0.0637,-0.120616 -0.16645,-0.318305 -0.22833,-0.439286 -0.0618,-0.120997 -0.15479,-0.300791 -0.20645,-0.399574 -0.0516,-0.09879 -0.16243,-0.314693 -0.24616,-0.479796 -0.0838,-0.165096 -0.19157,-0.371685 -0.23964,-0.45907 -0.0481,-0.08739 -0.11247,-0.213379 -0.14313,-0.279972 -0.0306,-0.06661 -0.10785,-0.219783 -0.17152,-0.340417 -0.0637,-0.120616 -0.16646,-0.318301 -0.22834,-0.439285 -0.0618,-0.120995 -0.15493,-0.300759 -0.20677,-0.399506 -0.0518,-0.09875 -0.16224,-0.31473 -0.24533,-0.47996 -0.0831,-0.165239 -0.18587,-0.362903 -0.22838,-0.439277 -0.0426,-0.07637 -0.10706,-0.202335 -0.14354,-0.279895 -0.0653,-0.138988 -0.1611,-0.323373 -0.39699,-0.763842 -0.066,-0.123239 -0.12023,-0.232664 -0.12042,-0.243179 -7.4e-4,-0.01101 -0.0403,-0.08925 -0.0889,-0.175013 -0.0486,-0.08571 -0.11446,-0.210219 -0.1462,-0.276615 -0.0318,-0.06644 -0.12083,-0.241984 -0.19803,-0.390224 -0.0771,-0.148247 -0.18781,-0.364162 -0.24589,-0.479845 -0.058,-0.115688 -0.14579,-0.283249 -0.19489,-0.372397 -0.0492,-0.08917 -0.0894,-0.168898 -0.0896,-0.17721 1e-4,-0.0078 -0.0558,-0.116096 -0.12347,-0.239507 -0.0677,-0.123402 -0.12329,-0.231316 -0.1235,-0.239817 1.1e-4,-0.009 -0.0541,-0.115279 -0.11974,-0.237309 -0.0656,-0.122031 -0.16846,-0.318588 -0.22836,-0.436813 l -0.10893,-0.214959 -3.27599,0.642912 -3.27598,0.642907 0.0511,0.105497 c 0.0281,0.05799 0.0822,0.163736 0.12034,0.234929 0.0381,0.07118 0.13312,0.255528 0.2112,0.409648 0.0781,0.1541 0.20043,0.392493 0.27184,0.529765 0.1822,0.350229 0.35217,0.679718 0.53087,1.029041 0.0844,0.164986 0.18427,0.358269 0.22197,0.429539 0.0377,0.07125 0.1324,0.255666 0.21054,0.409771 0.0781,0.154098 0.20044,0.39249 0.27185,0.52976 0.1822,0.350234 0.35217,0.679713 0.53085,1.029046 0.0844,0.164983 0.18429,0.358263 0.22199,0.429529 0.0377,0.07127 0.1324,0.255675 0.21054,0.409773 0.0781,0.154107 0.20044,0.392501 0.27185,0.529766 0.25802,0.495989 0.67434,1.303165 0.90176,1.748415 0.0786,0.154008 0.18935,0.369921 0.24598,0.47983 0.0565,0.109925 0.13967,0.271851 0.18453,0.359866 0.0449,0.088 0.21204,0.411677 0.37151,0.71925 0.15947,0.307571 0.3379,0.653781 0.39651,0.769353 0.15824,0.311975 0.5874,1.14456 1.03003,1.998294 0.0541,0.104366 0.11842,0.230362 0.14287,0.280024 0.0364,0.0739 0.67458,1.311416 1.09226,2.118109 0.0541,0.104375 0.12515,0.243894 0.15812,0.310037 0.0329,0.06615 0.9078,1.765933 1.94412,3.777298 l 1.88424,3.657019 3.27546,-0.637487 c 1.8015,-0.350623 3.27533,-0.642998 3.27518,-0.649732 z"
         id="path3" /><path
         style="fill:#fdbb30;fill-opacity:1;stroke-width:1.82194"
         d="m 183.66874,-30.959723 c -2.2239,-2.074212 -6.54564,-6.08094 -9.6039,-8.903845 -3.05825,-2.822905 -6.52092,-6.036622 -7.69481,-7.141589 l -2.13434,-2.009031 -1.43338,6.550944 -1.43337,6.550947 -5.30364,0.203539 -5.30364,0.203541 3.07436,-16.946937 3.07436,-16.946941 -1.09,-1.327398 -1.09001,-1.327396 6.58905,0.04673 6.58905,0.04673 -1.30672,7.943064 c -0.71864,4.368682 -1.1456,7.937509 -0.9488,7.930732 0.19683,-0.0069 3.23155,-3.613094 6.74386,-8.014031 l 6.38601,-8.001706 6.49572,-0.216813 c 3.69875,-0.123461 6.46184,-0.03 6.41701,0.217082 -0.0433,0.238646 -3.28058,4.107814 -7.19396,8.598151 -3.91339,4.490336 -7.18628,8.55581 -7.2731,9.034391 -0.0868,0.47858 0.0648,1.287256 0.33697,1.797063 0.27217,0.509806 0.872,1.884516 1.33296,3.054913 0.46097,1.170398 2.72992,6.533661 5.04211,11.918367 2.3122,5.384702 4.10671,9.952461 3.98777,10.150576 -0.11888,0.198114 -2.03576,-1.336873 -4.25964,-3.411083 z m -59.32312,-5.136837 c -4.52056,-1.416958 -8.64394,-5.652946 -9.81958,-10.087766 -1.0552,-3.980426 0.40562,-10.893157 3.1875,-15.083548 2.02654,-3.052624 6.83276,-7.006815 10.50268,-8.640814 8.13745,-3.623127 17.54186,-1.605224 21.69048,4.654135 1.69537,2.557936 2.12011,3.74716 2.40202,6.72537 0.39023,4.122372 -1.13017,9.564509 -3.66102,13.104283 -5.5405,7.749278 -16.23872,11.855782 -24.30208,9.32834 z M 137.657,-47.758278 c 2.10454,-1.655064 3.21271,-3.435928 3.65493,-5.873595 0.66094,-3.643341 -0.86925,-6.238181 -4.40751,-7.474141 -1.69211,-0.591075 -2.25344,-0.587191 -4.42074,0.03058 -3.98782,1.136717 -6.70656,3.955377 -7.37634,7.647462 -0.67627,3.727853 0.99282,6.451969 4.5902,7.491639 2.4415,0.705614 5.69143,-0.0383 7.95946,-1.82195 z m 62.05627,10.667014 c -7.42128,-2.650778 -11.20175,-9.244609 -9.79472,-17.083826 1.33054,-7.416092 6.43385,-13.456915 14.32016,-16.952657 2.73551,-1.212561 3.51278,-1.328555 10.68589,-1.594703 7.32925,-0.271937 7.71675,-0.240689 7.37356,0.594688 -0.19927,0.48494 -0.90751,2.166454 -1.57395,3.736695 -0.66645,1.57024 -1.45597,3.443747 -1.75451,4.16335 -0.5381,1.297032 -0.57785,1.30885 -4.58543,1.363777 -8.42264,0.115339 -12.75986,2.775577 -13.79076,8.45827 -1.02776,5.665375 2.50244,8.248234 11.11985,8.135751 3.63885,-0.0475 3.70294,-0.02616 3.76306,1.252163 0.0336,0.71527 0.15573,2.363941 0.27135,3.663715 0.1156,1.299774 0.24241,2.948385 0.28181,3.663577 l 0.0716,1.300349 -7.00432,0.07444 c -5.5616,0.059 -7.49434,-0.100687 -9.3836,-0.775502 z"
         id="path1" /><path
         style="fill:#007ac1;fill-opacity:1;stroke:#ffffff;stroke-width:2.682;stroke-dasharray:none"
         d="m 145.43419,-74.148155 c 0.004,-0.06475 -0.22157,-0.376006 -0.50104,-0.691693 -0.27947,-0.315685 -0.55053,-0.626426 -0.60237,-0.690531 -0.0518,-0.0641 -0.27943,-0.323602 -0.50578,-0.576666 -0.22634,-0.253058 -0.8059,-0.926515 -1.28791,-1.496569 -0.48201,-0.570053 -1.10368,-1.294193 -1.38148,-1.609204 -0.27781,-0.315005 -0.52224,-0.626396 -0.54317,-0.691978 -0.0209,-0.06557 0.28399,-0.682496 0.67762,-1.370932 l 0.71569,-1.2517 1.08587,-0.08532 c 1.28592,-0.101037 1.62846,-0.253941 1.96839,-0.878656 0.37843,-0.695448 0.12924,-0.818232 -1.576,-0.776541 -1.15742,0.0283 -1.44286,0.06852 -1.59614,0.224954 -0.10264,0.10477 -1.08945,1.849592 -2.19286,3.877383 l -2.00621,3.686887 -1.67946,0.0081 -1.67948,0.0081 2.66274,-5.019072 c 2.42046,-4.562409 2.65206,-5.039483 2.5455,-5.243386 -0.0645,-0.123371 -0.0977,-0.260297 -0.0737,-0.304278 0.0239,-0.04398 1.6931,-0.120295 3.70926,-0.16959 2.73848,-0.06696 3.83546,-0.05108 4.33662,0.06274 2.00807,0.456068 2.21978,1.344326 0.89902,3.771922 -0.91157,1.675498 -1.62442,2.46145 -2.76473,3.048274 -0.50292,0.258814 -0.73798,0.432792 -0.70434,0.52131 0.0278,0.07307 0.0759,0.370257 0.10701,0.66042 0.0311,0.290158 0.16486,1.265433 0.29729,2.167274 0.35863,2.442288 0.37293,2.622078 0.22166,2.78594 -0.0782,0.0847 -0.13593,0.09907 -0.13195,0.03288 z m 18.77223,-2.133966 c 0.0186,-0.24289 0.0341,-0.917668 0.0344,-1.499514 3e-4,-0.581845 0.004,-1.401787 0.007,-1.822088 0.0169,-1.966914 -0.004,-2.237202 -0.16439,-2.167874 -0.10086,0.04348 -0.6947,1.034551 -1.43434,2.39383 l -1.26222,2.319632 -1.67947,0.0081 -1.67947,0.0081 2.63192,-4.962448 c 2.58732,-4.878341 2.62957,-4.967357 2.49299,-5.252168 -0.0764,-0.159348 -0.0853,-0.322008 -0.0198,-0.36147 0.0655,-0.03946 1.19245,-0.09799 2.50429,-0.130062 1.74541,-0.04267 2.39884,-0.01924 2.43606,0.08737 0.028,0.08013 0.0327,0.437048 0.0105,0.793159 -0.0222,0.356111 -0.0464,0.912093 -0.0537,1.235515 -0.007,0.323421 -0.0539,1.103378 -0.10359,1.733236 -0.0497,0.629857 -0.0268,1.169799 0.0508,1.199871 0.0835,0.03236 0.32701,-0.128302 0.59644,-0.39354 0.25041,-0.246519 0.65254,-0.63817 0.8936,-0.870334 0.24107,-0.232165 1.2466,-1.208848 2.23451,-2.170408 l 1.7962,-1.748291 2.1481,-0.05252 2.14807,-0.05252 -2.86478,5.330094 -2.86478,5.330093 -1.73374,0.04239 -1.73375,0.04239 1.26022,-2.315962 c 1.21929,-2.240751 1.43328,-2.832143 0.78823,-2.178444 -0.15099,0.153041 -0.85992,0.821513 -1.57535,1.485491 -0.71542,0.663979 -1.58559,1.478671 -1.93372,1.810424 -1.75737,1.674723 -2.77175,2.594943 -2.86296,2.597172 -0.0557,0.0013 -0.086,-0.19625 -0.0674,-0.439135 z m -14.50251,-0.665804 c -1.60799,-0.396958 -2.13493,-1.344641 -1.7132,-3.081113 0.10789,-0.444252 0.65933,-1.611786 1.74009,-3.684187 1.45076,-2.781907 1.56924,-3.049489 1.42677,-3.222333 -0.33371,-0.404886 -0.0854,-0.464066 2.02116,-0.481752 l 2.02619,-0.01701 -1.71333,3.274324 c -1.91264,3.655206 -1.9626,3.825485 -1.2292,4.189347 0.49464,0.245402 0.89449,0.216878 1.61849,-0.115468 1.11549,-0.512052 1.51316,-1.03857 3.39364,-4.493236 l 1.6393,-3.01166 1.67946,-0.0081 1.67948,-0.0081 -1.47888,2.798419 c -0.91945,1.739866 -1.74994,3.182993 -2.19541,3.815063 -1.23314,1.749618 -2.79003,3.021997 -4.39073,3.588356 -1.53497,0.543107 -3.39248,0.731738 -4.50387,0.457376 z m 26.42914,-5.347002 2.68518,-4.93467 -0.15387,-0.345467 c -0.0846,-0.190008 -0.1362,-0.377935 -0.11461,-0.417617 0.0701,-0.12886 6.40754,-0.232808 7.01003,-0.114976 1.30577,0.25536 1.8392,0.789613 1.81092,1.813727 -0.0186,0.674626 -0.64857,1.711296 -1.36228,2.241836 l -0.49885,0.37081 0.41885,0.484395 c 0.48897,0.565502 0.49878,1.083038 0.0366,1.930499 -0.7024,1.288867 -1.93414,2.469617 -3.11696,2.989214 -1.47776,0.649165 -2.11604,0.738824 -5.9222,0.831884 l -3.47796,0.08503 z m 5.83213,1.548181 c 0.57812,-0.332306 0.87725,-0.886242 0.60527,-1.120213 -0.15634,-0.13431 -0.57317,-0.168966 -1.7007,-0.141397 l -1.49359,0.03652 -0.37813,0.694912 c -0.20798,0.382204 -0.356,0.729634 -0.32895,0.772074 0.0271,0.04243 0.68185,0.06169 1.4551,0.04279 1.22331,-0.02991 1.46248,-0.0669 1.84139,-0.284689 z m 1.07441,-3.669659 c 0.46042,-0.178411 0.78467,-0.787383 0.50555,-0.949546 -0.11517,-0.06692 -0.66912,-0.09491 -1.23102,-0.0622 l -1.02162,0.05948 -0.26126,0.399592 c -0.44507,0.68069 -0.39354,0.733077 0.6896,0.706594 0.54095,-0.01323 1.13438,-0.08249 1.31872,-0.153922 z m 4.59801,1.781767 c 2.67799,-4.99213 2.67834,-4.992975 2.52176,-5.270512 -0.0862,-0.15267 -0.13584,-0.315764 -0.11045,-0.362434 0.0254,-0.04666 0.95796,-0.09251 2.07237,-0.101864 l 2.0262,-0.01701 -2.05594,3.844634 -2.05593,3.844633 1.71395,-0.07491 1.71396,-0.07491 1.92057,-3.462965 1.92057,-3.462967 -0.19537,-0.272923 c -0.10745,-0.150108 -0.17087,-0.317961 -0.14091,-0.373008 0.03,-0.05505 1.96442,-0.132794 4.29883,-0.172777 l 4.24436,-0.07269 -0.75355,1.455322 -0.75356,1.455324 -2.20481,0.0863 -2.20483,0.0863 -0.42135,0.774332 -0.42135,0.774331 2.30355,-0.0241 c 1.26693,-0.01325 2.2821,0.01482 2.25591,0.06239 -0.0262,0.04756 -1.3399,0.567677 -2.91936,1.155808 l -2.87173,1.06933 -0.22688,0.416948 -0.22688,0.416947 2.11567,0.007 2.11566,0.007 -0.77788,1.429536 -0.77788,1.429533 -3.92795,0.127221 -3.92798,0.127268 0.75621,-1.460212 0.75622,-1.460215 -2.53319,1.50184 -2.53318,1.501833 -1.68652,0.04124 -1.68653,0.04124 z"
         id="path2-3" /><path
         style="fill:#007ac1;fill-opacity:1;stroke-width:0.482386"
         d="m 145.43419,-74.148155 c 0.004,-0.06475 -0.22157,-0.376006 -0.50104,-0.691693 -0.27947,-0.315685 -0.55053,-0.626426 -0.60237,-0.690531 -0.0518,-0.0641 -0.27943,-0.323602 -0.50578,-0.576666 -0.22634,-0.253058 -0.8059,-0.926515 -1.28791,-1.496569 -0.48201,-0.570053 -1.10368,-1.294193 -1.38148,-1.609204 -0.27781,-0.315005 -0.52224,-0.626396 -0.54317,-0.691978 -0.0209,-0.06557 0.28399,-0.682496 0.67762,-1.370932 l 0.71569,-1.2517 1.08587,-0.08532 c 1.28592,-0.101037 1.62846,-0.253941 1.96839,-0.878656 0.37843,-0.695448 0.12924,-0.818232 -1.576,-0.776541 -1.15742,0.0283 -1.44286,0.06852 -1.59614,0.224954 -0.10264,0.10477 -1.08945,1.849592 -2.19286,3.877383 l -2.00621,3.686887 -1.67946,0.0081 -1.67948,0.0081 2.66274,-5.019072 c 2.42046,-4.562409 2.65206,-5.039483 2.5455,-5.243386 -0.0645,-0.123371 -0.0977,-0.260297 -0.0737,-0.304278 0.0239,-0.04398 1.6931,-0.120295 3.70926,-0.16959 2.73848,-0.06696 3.83546,-0.05108 4.33662,0.06274 2.00807,0.456068 2.21978,1.344326 0.89902,3.771922 -0.91157,1.675498 -1.62442,2.46145 -2.76473,3.048274 -0.50292,0.258814 -0.73798,0.432792 -0.70434,0.52131 0.0278,0.07307 0.0759,0.370257 0.10701,0.66042 0.0311,0.290158 0.16486,1.265433 0.29729,2.167274 0.35863,2.442288 0.37293,2.622078 0.22166,2.78594 -0.0782,0.0847 -0.13593,0.09907 -0.13195,0.03288 z m 18.77223,-2.133966 c 0.0186,-0.24289 0.0341,-0.917668 0.0344,-1.499514 3e-4,-0.581845 0.004,-1.401787 0.007,-1.822088 0.0169,-1.966914 -0.004,-2.237202 -0.16439,-2.167874 -0.10086,0.04348 -0.6947,1.034551 -1.43434,2.39383 l -1.26222,2.319632 -1.67947,0.0081 -1.67947,0.0081 2.63192,-4.962448 c 2.58732,-4.878341 2.62957,-4.967357 2.49299,-5.252168 -0.0764,-0.159348 -0.0853,-0.322008 -0.0198,-0.36147 0.0655,-0.03946 1.19245,-0.09799 2.50429,-0.130062 1.74541,-0.04267 2.39884,-0.01924 2.43606,0.08737 0.028,0.08013 0.0327,0.437048 0.0105,0.793159 -0.0222,0.356111 -0.0464,0.912093 -0.0537,1.235515 -0.007,0.323421 -0.0539,1.103378 -0.10359,1.733236 -0.0497,0.629857 -0.0268,1.169799 0.0508,1.199871 0.0835,0.03236 0.32701,-0.128302 0.59644,-0.39354 0.25041,-0.246519 0.65254,-0.63817 0.8936,-0.870334 0.24107,-0.232165 1.2466,-1.208848 2.23451,-2.170408 l 1.7962,-1.748291 2.1481,-0.05252 2.14807,-0.05252 -2.86478,5.330094 -2.86478,5.330093 -1.73374,0.04239 -1.73375,0.04239 1.26022,-2.315962 c 1.21929,-2.240751 1.43328,-2.832143 0.78823,-2.178444 -0.15099,0.153041 -0.85992,0.821513 -1.57535,1.485491 -0.71542,0.663979 -1.58559,1.478671 -1.93372,1.810424 -1.75737,1.674723 -2.77175,2.594943 -2.86296,2.597172 -0.0557,0.0013 -0.086,-0.19625 -0.0674,-0.439135 z m -14.50251,-0.665804 c -1.60799,-0.396958 -2.13493,-1.344641 -1.7132,-3.081113 0.10789,-0.444252 0.65933,-1.611786 1.74009,-3.684187 1.45076,-2.781907 1.56924,-3.049489 1.42677,-3.222333 -0.33371,-0.404886 -0.0854,-0.464066 2.02116,-0.481752 l 2.02619,-0.01701 -1.71333,3.274324 c -1.91264,3.655206 -1.9626,3.825485 -1.2292,4.189347 0.49464,0.245402 0.89449,0.216878 1.61849,-0.115468 1.11549,-0.512052 1.51316,-1.03857 3.39364,-4.493236 l 1.6393,-3.01166 1.67946,-0.0081 1.67948,-0.0081 -1.47888,2.798419 c -0.91945,1.739866 -1.74994,3.182993 -2.19541,3.815063 -1.23314,1.749618 -2.79003,3.021997 -4.39073,3.588356 -1.53497,0.543107 -3.39248,0.731738 -4.50387,0.457376 z m 26.42914,-5.347002 2.68518,-4.93467 -0.15387,-0.345467 c -0.0846,-0.190008 -0.1362,-0.377935 -0.11461,-0.417617 0.0701,-0.12886 6.40754,-0.232808 7.01003,-0.114976 1.30577,0.25536 1.8392,0.789613 1.81092,1.813727 -0.0186,0.674626 -0.64857,1.711296 -1.36228,2.241836 l -0.49885,0.37081 0.41885,0.484395 c 0.48897,0.565502 0.49878,1.083038 0.0366,1.930499 -0.7024,1.288867 -1.93414,2.469617 -3.11696,2.989214 -1.47776,0.649165 -2.11604,0.738824 -5.9222,0.831884 l -3.47796,0.08503 z m 5.83213,1.548181 c 0.57812,-0.332306 0.87725,-0.886242 0.60527,-1.120213 -0.15634,-0.13431 -0.57317,-0.168966 -1.7007,-0.141397 l -1.49359,0.03652 -0.37813,0.694912 c -0.20798,0.382204 -0.356,0.729634 -0.32895,0.772074 0.0271,0.04243 0.68185,0.06169 1.4551,0.04279 1.22331,-0.02991 1.46248,-0.0669 1.84139,-0.284689 z m 1.07441,-3.669659 c 0.46042,-0.178411 0.78467,-0.787383 0.50555,-0.949546 -0.11517,-0.06692 -0.66912,-0.09491 -1.23102,-0.0622 l -1.02162,0.05948 -0.26126,0.399592 c -0.44507,0.68069 -0.39354,0.733077 0.6896,0.706594 0.54095,-0.01323 1.13438,-0.08249 1.31872,-0.153922 z m 4.59801,1.781767 c 2.67799,-4.99213 2.67834,-4.992975 2.52176,-5.270512 -0.0862,-0.15267 -0.13584,-0.315764 -0.11045,-0.362434 0.0254,-0.04666 0.95796,-0.09251 2.07237,-0.101864 l 2.0262,-0.01701 -2.05594,3.844634 -2.05593,3.844633 1.71395,-0.07491 1.71396,-0.07491 1.92057,-3.462965 1.92057,-3.462967 -0.19537,-0.272923 c -0.10745,-0.150108 -0.17087,-0.317961 -0.14091,-0.373008 0.03,-0.05505 1.96442,-0.132794 4.29883,-0.172777 l 4.24436,-0.07269 -0.75355,1.455322 -0.75356,1.455324 -2.20481,0.0863 -2.20483,0.0863 -0.42135,0.774332 -0.42135,0.774331 2.30355,-0.0241 c 1.26693,-0.01325 2.2821,0.01482 2.25591,0.06239 -0.0262,0.04756 -1.3399,0.567677 -2.91936,1.155808 l -2.87173,1.06933 -0.22688,0.416948 -0.22688,0.416947 2.11567,0.007 2.11566,0.007 -0.77788,1.429536 -0.77788,1.429533 -3.92795,0.127221 -3.92798,0.127268 0.75621,-1.460212 0.75622,-1.460215 -2.53319,1.50184 -2.53318,1.501833 -1.68652,0.04124 -1.68653,0.04124 z"
         id="path2" /><ellipse
         style="fill:#ef3b24;fill-opacity:1;stroke:none;stroke-width:1.87707;stroke-dasharray:none;stroke-opacity:1"
         id="path5"
         cx="122.68718"
         cy="-56.260681"
         rx="11.302446"
         ry="11.542421"
         transform="matrix(1,0,-0.20285263,0.97920928,0,0)" /><path
         style="baseline-shift:baseline;display:inline;overflow:visible;vector-effect:none;fill:#fdbb30;fill-opacity:1;enable-background:accumulate;stop-color:#000000"
         d="m 130.20694,-45.727554 c -2.86635,-0.675116 -4.75543,-2.433107 -5.52973,-5.145969 -0.44644,-1.5641 -0.46946,-2.459422 -0.10815,-4.203552 0.4287,-2.069417 1.32013,-3.79631 2.83084,-5.483922 3.01576,-3.368881 7.84714,-4.876919 11.45791,-3.576397 1.49642,0.538981 2.35104,1.15575 3.324,2.39894 0.96522,1.233269 1.32054,2.059721 1.55514,3.617101 0.15929,1.05742 0.27634,1.199894 -0.11782,3.070643 -0.37117,1.762718 -0.58698,2.012608 -1.07908,2.922396 -0.71777,1.327087 -1.59739,2.410995 -2.84792,3.509406 -1.38796,1.219116 -2.7937,2.026289 -4.45534,2.558276 -1.16944,0.374413 -1.54159,0.437399 -2.80043,0.474014 -0.96025,0.02796 -1.71505,-0.01974 -2.22942,-0.140936 z m 4.64495,-1.013779 c 1.62565,-0.814315 3.71226,-3.13267 4.44976,-4.943946 l 0.15904,-0.390734 -0.86381,0.30335 c -0.47509,0.166841 -1.75181,0.756117 -2.83714,1.309495 -4.1531,2.117552 -5.62832,2.658207 -7.33206,2.687145 -0.9034,0.01532 -0.9014,0.03063 0.0785,0.598592 1.75905,1.019627 4.76795,1.226408 6.3457,0.436098 z m 3.77943,-1.795334 c 1.28437,-0.953254 2.53114,-2.424402 2.5077,-2.959005 -0.0131,-0.301987 -0.5719,-0.6439 -0.87566,-0.535918 -0.0968,0.03443 -0.31505,0.365521 -0.48502,0.7358 -0.41145,0.896424 -1.40394,2.346638 -2.08926,3.052808 -0.30498,0.314241 -0.56103,0.602938 -0.56903,0.641546 -0.0206,0.09928 0.80972,-0.414534 1.51127,-0.935231 z m -8.64503,-0.0629 c 1.18536,-0.303954 2.36869,-0.809178 4.93284,-2.106032 2.61502,-1.322603 4.13046,-1.978148 4.58639,-1.98397 0.22583,-0.0031 0.29786,-0.102086 0.48115,-0.662164 0.11866,-0.36232 0.24824,-0.814047 0.28815,-1.003835 l 0.0723,-0.345064 h -7.59159 -7.59148 l -0.0664,0.320293 c -0.11953,0.576997 -0.0375,2.110802 0.1553,2.902943 0.37128,1.52561 1.02201,2.535504 1.83386,2.846065 0.61578,0.235544 2.04336,0.251186 2.89903,0.03176 z m 12.24445,-4.407101 c 0.14489,-0.345065 0.34569,-0.867369 0.4463,-1.160681 l 0.18288,-0.533283 h -0.94257 -0.94258 l -0.0874,0.421663 c -0.048,0.231914 -0.17486,0.676106 -0.28198,0.987097 l -0.19464,0.565433 0.4277,0.08349 c 0.23523,0.0459 0.53672,0.1899 0.66996,0.319964 0.28357,0.276754 0.34247,0.220991 0.72224,-0.683672 z m -1.65695,-2.791909 c 0.0387,-0.189787 0.0957,-0.636595 0.12689,-0.992906 0.0537,-0.615903 0.0363,-0.651758 -0.3518,-0.727504 -0.62899,-0.122772 -1.74816,-0.718164 -3.56823,-1.898304 -2.83355,-1.837249 -3.96391,-2.310173 -5.52169,-2.310173 -1.52453,0 -2.42473,0.46463 -3.61573,1.86626 -0.3151,0.370814 -0.7605,0.963701 -0.98975,1.317527 -0.44667,0.689334 -1.15772,2.244292 -1.2666,2.769872 l -0.0663,0.320293 h 7.59149 7.59149 z m 2.4773,-0.188217 c 0.0194,-0.293306 0.0237,-0.862525 0.01,-1.264929 -0.014,-0.402403 -0.0198,-0.759156 -0.0129,-0.792788 0.007,-0.03362 -0.17626,0.0561 -0.40718,0.199377 -0.23093,0.143303 -0.60753,0.296569 -0.83687,0.340619 -0.39605,0.07606 -0.41798,0.102839 -0.4359,0.532255 -0.0103,0.248702 -0.0679,0.69216 -0.12805,0.985466 l -0.10963,0.533282 h 0.94256 0.94259 z m -2.47159,-3.455592 c -0.39545,-2.21561 -1.56184,-3.881689 -3.00573,-4.293464 -1.36838,-0.390236 -4.07841,-0.04166 -5.75244,0.739865 -1.26203,0.589189 -1.27007,0.602453 -0.37438,0.617765 1.63822,0.02802 2.97329,0.588392 5.89994,2.476415 2.03396,1.312136 3.22521,1.894338 3.33881,1.631788 0.0401,-0.09271 -0.008,-0.620281 -0.1062,-1.172369 z m 1.48422,1.215796 c 0.84084,-0.273372 0.82329,-1.129023 -0.0518,-2.525416 -0.48114,-0.767749 -1.9676,-2.255063 -1.7587,-1.759703 0.022,0.05175 0.21323,0.467551 0.42532,0.923979 0.34231,0.73659 0.77848,2.742248 0.68964,3.171104 -0.0716,0.345837 0.0848,0.388592 0.69553,0.190036 z"
         id="path6" /><path
         style="baseline-shift:baseline;display:inline;overflow:visible;vector-effect:none;fill:#fdbb30;fill-opacity:1;enable-background:accumulate;stop-color:#000000"
         d="m 136.0348,-64.942878 c -3.13275,0.03206 -6.52568,1.564272 -8.8757,4.189453 -1.55483,1.736906 -2.49081,3.547736 -2.93165,5.675781 -0.36695,1.771306 -0.34006,2.766971 0.11335,4.355469 0.79825,2.796789 2.77221,4.63326 5.7224,5.328125 0.56068,0.132107 1.33596,0.176886 2.313,0.148437 1.26842,-0.03689 1.7239,-0.114139 2.90469,-0.492187 1.71245,-0.548254 3.18465,-1.393751 4.61311,-2.648438 1.28326,-1.127155 2.20536,-2.264784 2.94633,-3.634765 0.4828,-0.892588 0.74414,-1.245532 1.11973,-3.029297 0.39825,-1.888621 0.27756,-2.145281 0.12086,-3.185547 -0.23884,-1.585503 -0.62726,-2.489628 -1.60758,-3.742188 -0.99207,-1.267606 -1.91217,-1.931829 -3.44082,-2.482422 -0.93782,-0.337779 -1.95347,-0.49311 -2.99772,-0.482421 z m -0.13402,0.685546 c 0.3645,-0.0043 0.68975,0.12601 1.04374,0.166016 -0.53458,-0.06605 -1.08505,-0.113098 -1.725,-0.05469 0.22652,-0.01896 0.45722,-0.108659 0.68126,-0.111329 z m -1.73249,0.283204 c -0.68449,0.129822 -1.3464,0.300849 -1.94957,0.539062 0.64912,-0.25252 1.28772,-0.41317 1.94957,-0.539062 z m 3.72709,0.03516 c 0.2563,0.06162 0.54127,0.03664 0.7866,0.125 0.73209,0.263684 1.29673,0.53783 1.7963,0.898437 -0.0411,-0.02223 -0.0724,-0.06722 -0.24474,-0.02539 -0.0916,0.02222 -0.23302,0.119085 -0.29181,0.220703 -0.0588,0.101618 -0.058,0.171341 -0.0566,0.216797 0.003,0.09091 0.0228,0.127917 0.0421,0.173828 0.0385,0.09064 0.21769,0.474653 0.43005,0.93164 0.14595,0.314063 0.33379,0.974922 0.47102,1.591797 -0.43275,-2.060395 -1.49232,-3.6176 -2.93291,-4.132812 z m -3.10661,0.486328 c 1.02759,-0.131347 2.01537,-0.128109 2.62896,0.04687 1.28479,0.366398 2.4351,1.942751 2.81763,4.085937 0.0438,0.245422 0.0743,0.476608 0.0936,0.669922 -0.11726,-0.04291 -0.21392,-0.07043 -0.38951,-0.15625 -0.54801,-0.267827 -1.34962,-0.739536 -2.36191,-1.392578 -2.76297,-1.782431 -4.16741,-2.359824 -5.74962,-2.453125 0.0364,-0.01707 0.0477,-0.02285 0.0866,-0.04102 0.77781,-0.363123 1.8466,-0.628419 2.87419,-0.759766 z m -4.15032,0.753906 c -0.0347,0.03048 -0.0635,0.03167 -0.10464,0.09961 -0.0456,0.07517 -0.0806,0.209382 -0.0502,0.308593 0.0302,0.09921 0.0937,0.14462 0.13863,0.169922 0.0898,0.05061 0.14917,0.05233 0.21792,0.06055 0.0974,0.01163 0.23805,0.01461 0.37526,0.01758 -0.74183,0.01301 -1.39663,0.116942 -1.99876,0.427735 -0.61882,0.319399 -1.17421,0.829971 -1.77067,1.523437 0.0775,-0.09093 0.11483,-0.186498 0.19612,-0.277344 0.86149,-0.96236 1.89942,-1.70648 2.99637,-2.330078 z m 11.15926,1.107422 c 0.0308,0.03832 0.0613,0.05212 0.0923,0.0918 0.0202,0.02576 0.0248,0.04301 0.0444,0.06836 -0.044,-0.05562 -0.0898,-0.103749 -0.13674,-0.160156 z m -10.60889,0.205078 c 1.48876,0 2.53653,0.43444 5.36073,2.265625 1.82737,1.184871 2.92314,1.792312 3.66698,1.9375 0.0838,0.01636 0.13009,0.02918 0.15248,0.03711 -0.007,-0.008 0.01,0.103145 -0.0153,0.394531 -0.0302,0.345194 -0.0909,0.804369 -0.12125,0.953125 l -8.1e-4,0.0039 h -7.24805 -7.24804 c 0.0419,-0.187568 0.23439,-0.701853 0.47163,-1.220703 0.24143,-0.527986 0.53042,-1.08342 0.72948,-1.390625 0.20971,-0.323667 0.65783,-0.921989 0.95481,-1.271484 0.57477,-0.676411 1.0525,-1.093554 1.5448,-1.347657 0.49231,-0.254102 1.02496,-0.361328 1.75259,-0.361328 z m 10.00256,0.242188 c 0.1827,0.217721 0.4127,0.44971 0.51399,0.611328 0.42555,0.679069 0.62152,1.223898 0.62802,1.541015 0.003,0.158559 -0.0312,0.242095 -0.0687,0.292969 -0.0372,0.05087 -0.0963,0.101693 -0.24599,0.150391 -0.22024,0.0716 -0.27469,0.07005 -0.31112,0.07813 0.0323,-0.199394 0.0164,-0.378044 -0.0162,-0.628906 -0.0353,-0.271849 -0.0928,-0.592091 -0.16449,-0.921875 -0.0916,-0.421293 -0.21766,-0.7584 -0.33571,-1.123047 z m 1.28568,0.582031 c 0.39923,0.661748 0.67965,1.360997 0.83662,2.25 -0.0232,-0.01642 -0.0828,-0.0583 -0.0836,-0.05859 -8.6e-4,-3.47e-4 -0.0601,-0.01712 -0.0839,-0.01953 -0.0954,-0.0096 -0.1295,0.0079 -0.16184,0.01758 -0.0647,0.01933 -0.1039,0.03912 -0.15162,0.0625 -0.0955,0.04677 -0.20671,0.109883 -0.33181,0.1875 -0.0434,0.02692 -0.11648,0.0436 -0.18139,0.07422 0.17737,-0.0913 0.36565,-0.173478 0.48325,-0.333985 0.16858,-0.230083 0.23157,-0.497644 0.2262,-0.761718 -0.008,-0.410218 -0.27354,-0.904858 -0.55196,-1.417969 z m -1.45142,2.216797 c -0.0149,0.09133 -0.031,0.183194 -0.002,0.283203 0.0358,0.125476 0.15454,0.240348 0.2828,0.275391 0.18386,0.05024 0.37722,-0.02536 0.57599,-0.08398 -0.0211,0.0059 -0.0609,0.0282 -0.0768,0.03125 -0.10247,0.01968 -0.18759,0.03652 -0.28605,0.07031 -0.0985,0.03379 -0.23131,0.101522 -0.32892,0.220703 -0.0976,0.119181 -0.12957,0.239737 -0.1458,0.335937 -0.007,0.03952 -0.006,0.08191 -0.009,0.121094 0.0101,-0.156938 0.042,-0.325292 -0.0236,-0.460937 -0.0512,-0.106019 -0.15232,-0.184427 -0.24644,-0.22461 -0.0941,-0.04018 -0.18356,-0.05841 -0.2846,-0.07813 -0.008,-0.0016 -0.0461,-0.02748 -0.0545,-0.0293 0.0473,0.004 0.0881,0.01983 0.14601,0.01172 0.0625,-0.0088 0.13924,-0.02978 0.22443,-0.08398 0.0851,-0.0542 0.16714,-0.149374 0.20561,-0.238282 0.0403,-0.09318 0.0223,-0.11044 0.0232,-0.15039 z m -14.91599,0.160156 c -0.11348,0.205044 -0.22417,0.405716 -0.33739,0.638672 0.10126,-0.212681 0.22072,-0.431418 0.33739,-0.638672 z m 16.59782,0.140625 c -0.0108,0.05205 -0.008,0.05287 -0.007,0.0625 -7e-5,-9.74e-4 -7.8e-4,-0.0059 -7.8e-4,-0.0059 -1e-5,4.65e-4 0.004,-0.03977 0.008,-0.05664 z m -0.004,0.507813 c 0.003,0.116119 0.004,0.228273 0.008,0.365234 0.0136,0.389865 0.008,0.964162 -0.009,1.232422 l -0.008,0.144531 h -0.55076 -0.60156 l 0.038,-0.193359 c 0.0655,-0.319188 0.12382,-0.75794 0.13556,-1.041016 0.003,-0.06106 0.007,-0.08493 0.01,-0.123047 0.0284,-0.0064 0.0351,-0.0098 0.0759,-0.01758 0.2901,-0.05572 0.61992,-0.202847 0.90224,-0.367187 z m -17.77947,2.423828 h 7.91797 7.87695 0.0566 1.22657 1.27929 c -0.008,0.03641 0.005,0.02263 -0.003,0.06055 -0.001,0.0061 -0.003,0.0037 -0.004,0.0098 h -1.28711 -1.22851 -0.0547 -7.87891 -7.91797 c 0.003,-0.01431 2.9e-4,-0.02071 0.003,-0.03516 0.003,-0.01273 0.0106,-0.02245 0.0133,-0.03516 z m 0.51374,0.753906 h 7.2461 7.25 l -4.1e-4,0.002 c -0.0312,0.148378 -0.16306,0.613797 -0.27798,0.964844 -0.0804,0.245777 -0.13426,0.355553 -0.1477,0.382812 -0.37909,0.0185 -0.82191,0.18681 -1.5685,0.509766 -0.77665,0.335964 -1.81439,0.832549 -3.12634,1.496094 -2.55654,1.293007 -3.7033,1.780776 -4.84766,2.074218 -0.74825,0.191878 -2.21293,0.16221 -2.69827,-0.02344 -0.66989,-0.256313 -1.3145,-1.184236 -1.67465,-2.664111 -0.0887,-0.364398 -0.15698,-0.937887 -0.18589,-1.478515 -0.0284,-0.531591 -0.0106,-1.046852 0.0313,-1.263672 z m 15.80664,0 h 0.60157 0.55273 l -0.0498,0.146484 c -0.095,0.276995 -0.29615,0.801107 -0.43624,1.134766 -0.0853,0.203171 -0.14907,0.346446 -0.2021,0.457031 -0.19983,-0.171038 -0.4613,-0.30296 -0.74042,-0.357422 l -0.12014,-0.02344 0.0838,-0.244141 c 0.11359,-0.329606 0.23903,-0.767176 0.29414,-1.033203 z m -16.51523,0.818359 c -0.002,0.215747 -0.0313,0.376284 -0.0185,0.617188 0.0133,0.248587 0.0612,0.451948 0.0888,0.693359 -0.0605,-0.403405 -0.0943,-0.898856 -0.0703,-1.310547 z m 15.35149,0.773438 -0.0535,0.154297 -0.0551,0.162109 0.73413,0.142578 c 0.0393,0.0077 0.0769,0.04005 0.12653,0.05859 -0.18109,-0.08778 -0.35463,-0.19602 -0.62584,-0.09961 -0.17651,0.06276 -0.22249,0.138964 -0.28076,0.205078 -0.0583,0.06611 -0.10792,0.136213 -0.15975,0.214843 -0.0239,0.03623 -0.0454,0.08748 -0.0693,0.126954 l 0.33002,-0.810547 -0.078,0.02734 c 0.0249,-0.02597 0.0633,-0.04197 0.0826,-0.06836 0.0236,-0.03243 0.0296,-0.08075 0.0489,-0.113281 z m 2.19696,0.425781 c -0.0179,0.03267 -0.0207,0.07073 -0.0395,0.105469 -0.0481,0.08906 -0.14153,0.147648 -0.19113,0.234375 -0.18603,0.325195 -0.50212,0.582033 -0.71373,0.880859 0.0656,-0.150215 0.15981,-0.299804 0.15328,-0.457031 -0.0125,-0.288179 -0.20044,-0.418756 -0.38517,-0.544922 0.0417,0.02467 0.12051,0.04831 0.13704,0.06445 0.077,0.07516 0.13813,0.143678 0.26855,0.19336 0.0651,0.02484 0.16067,0.041 0.26824,0.01563 0.10757,-0.02538 0.20597,-0.09003 0.2718,-0.152344 0.11693,-0.110717 0.16919,-0.21664 0.23055,-0.339844 z m -1.91282,0.644531 c 0.0155,0.01159 0.1081,0.0096 0.22014,0.07813 0.13511,0.08269 0.20713,0.240916 0.20556,0.205078 6.5e-4,0.0065 -0.0321,0.155475 -0.14703,0.351563 -0.11492,0.196088 -0.29488,0.442798 -0.51715,0.705078 -0.44456,0.524561 -1.05953,1.112964 -1.66785,1.564453 -0.0156,0.01155 -0.0298,0.01969 -0.0456,0.03125 0.62884,-0.78367 1.33336,-1.70093 1.6777,-2.451172 0.0765,-0.166597 0.16696,-0.328039 0.23908,-0.4375 0.015,-0.02271 0.0223,-0.02933 0.0351,-0.04687 z m -1.54152,0.181637 c -0.36393,0.78939 -0.93251,1.681994 -1.65294,2.482422 -0.7891,0.876748 -1.69229,1.628183 -2.42286,1.99414 -0.67478,0.338007 -1.77915,0.495472 -2.9069,0.417969 -1.12774,-0.0775 -2.28495,-0.378266 -3.11494,-0.859375 -0.0164,-0.0095 -0.0207,-0.01226 -0.0366,-0.02148 1.65837,-0.09058 3.25149,-0.664357 7.17729,-2.666016 1.07349,-0.54734 2.38025,-1.144562 2.78617,-1.287109 z m 0.6511,0.119141 c -0.003,0.0065 -0.006,0.01109 -0.01,0.01758 -0.0127,0.0274 -0.0532,0.06886 -0.0671,0.09766 0.0182,-0.03842 0.0593,-0.07702 0.0766,-0.115234 z m -14.47886,0.265625 c 0.0235,0.08695 0.0648,0.14093 0.0902,0.224609 -0.0146,-0.04806 -0.0571,-0.07042 -0.071,-0.119141 -0.0118,-0.04149 -0.008,-0.06503 -0.0191,-0.105468 z m 8.55009,1.351562 c -1.05017,0.495057 -2.16164,0.993503 -2.8407,1.210938 0.70797,-0.217062 1.76954,-0.706347 2.8407,-1.210938 z m 6.19637,0.617188 c -0.10544,0.09767 -0.14011,0.212448 -0.25184,0.310546 -0.11332,0.09958 -0.23133,0.156197 -0.34475,0.25 0.21706,-0.177658 0.39483,-0.368933 0.59659,-0.560546 z m -13.43012,0.332031 c 0.19847,0.173089 0.35976,0.430098 0.59355,0.519531 0.57419,0.219638 1.53745,0.129863 2.38651,0.0293 -0.24652,0.02994 -0.55203,0.159857 -0.79962,0.164062 -0.22681,0.0038 -0.39572,0.0054 -0.5396,0.02148 -0.072,0.008 -0.13269,0.01254 -0.23871,0.05859 -0.053,0.02303 -0.12976,0.06067 -0.20343,0.152343 -0.0737,0.09167 -0.10618,0.229706 -0.0955,0.310547 0.003,0.02282 0.0139,0.01529 0.0185,0.0332 -0.45401,-0.354531 -0.77961,-0.826439 -1.12162,-1.289062 z m 11.20965,0.289062 c -0.0198,0.02114 -0.0426,0.07023 -0.0616,0.08984 -0.15675,0.161504 -0.29982,0.315915 -0.4094,0.439453 -0.0548,0.06177 -0.10117,0.116189 -0.13945,0.164063 -0.0192,0.02394 -0.0353,0.04488 -0.0541,0.07227 -0.0188,0.02738 -0.0481,0.02456 -0.079,0.173828 -0.006,0.02745 -0.008,0.05969 -0.006,0.0957 0.003,0.03601 0.0291,0.110366 0.0296,0.111328 5e-4,9.62e-4 0.0464,0.06593 0.0755,0.08789 0.0291,0.02197 0.0589,0.03656 0.0864,0.04492 0.10966,0.03346 0.16389,0.01037 0.20508,0 0.0824,-0.02074 0.12746,-0.04492 0.18295,-0.07227 0.0581,-0.02868 0.1368,-0.0773 0.20591,-0.117188 -0.74092,0.437768 -1.51263,0.795821 -2.3639,1.068359 -1.15808,0.370778 -1.44656,0.418742 -2.69583,0.455079 -0.29219,0.0085 -0.41489,-0.03518 -0.66533,-0.04102 1.14214,0.05607 2.26981,-0.04688 3.12371,-0.474609 0.85216,-0.426866 1.75141,-1.215718 2.56541,-2.097657 z m -2.56541,2.097657 -0.17492,0.04297 h 0.0879 z m -5.65634,-0.150391 c 0.69731,0.2596 1.39141,0.534057 2.1738,0.603516 -0.38277,-0.02222 -0.87914,-0.01259 -1.1241,-0.07031 -0.42577,-0.100282 -0.67005,-0.385226 -1.0497,-0.533203 z"
         id="path7" /></g></g></svg>
