<?xml version="1.0" encoding="UTF-8" standalone="no"?>
<!-- Created with Inkscape (http://www.inkscape.org/) -->

<svg
   width="105.83334mm"
   height="105.83334mm"
   viewBox="0 0 105.83333 105.83333"
   version="1.1"
   id="svg1"
   xml:space="preserve"
   inkscape:version="1.4 (e7c3feb100, 2024-10-09)"
   sodipodi:docname="okc.svg"
   inkscape:export-filename="../pngs/denver.png"
   inkscape:export-xdpi="96"
   inkscape:export-ydpi="96"
   xmlns:inkscape="http://www.inkscape.org/namespaces/inkscape"
   xmlns:sodipodi="http://sodipodi.sourceforge.net/DTD/sodipodi-0.dtd"
   xmlns="http://www.w3.org/2000/svg"
   xmlns:svg="http://www.w3.org/2000/svg"><sodipodi:namedview
     id="namedview1"
     pagecolor="#ffffff"
     bordercolor="#000000"
     borderopacity="0.25"
     inkscape:showpageshadow="2"
     inkscape:pageopacity="0.0"
     inkscape:pagecheckerboard="0"
     inkscape:deskcolor="#d1d1d1"
     inkscape:document-units="mm"
     inkscape:zoom="1.3059557"
     inkscape:cx="241.96838"
     inkscape:cy="223.59104"
     inkscape:window-width="1920"
     inkscape:window-height="1011"
     inkscape:window-x="0"
     inkscape:window-y="32"
     inkscape:window-maximized="1"
     inkscape:current-layer="layer1"
     showgrid="false"
     showguides="true" /><defs
     id="defs1"><filter
       id="mask-powermask-path-effect61_inverse"
       inkscape:label="filtermask-powermask-path-effect61"
       style="color-interpolation-filters:sRGB"
       height="100"
       width="100"
       x="-50"
       y="-50"><feColorMatrix
         id="mask-powermask-path-effect61_primitive1"
         values="1"
         type="saturate"
         result="fbSourceGraphic" /><feColorMatrix
         id="mask-powermask-path-effect61_primitive2"
         values="-1 0 0 0 1 0 -1 0 0 1 0 0 -1 0 1 0 0 0 1 0 "
         in="fbSourceGraphic" /></filter><clipPath
       clipPathUnits="userSpaceOnUse"
       id="clipPath61"><path
         style="fill:none;fill-opacity:1;stroke:#1a1a1a;stroke-width:0.3;stroke-dasharray:none;stroke-opacity:1"
         d="m 19.343363,137.48906 1.575839,2.57864 -1.432581,4.72752 -0.859548,2.14887 -0.573032,3.58145 2.005613,2.43539 62.460506,-10.02807 2.148872,-6.30335 2.721904,-5.87358 -26.932515,3.72471 -6.446612,0.85955 -0.143256,-3.86797 -5.730322,0.71629 -1.146067,2.57864 -4.154482,1.43258 -3.867967,2.14888 -7.019645,0.14326 -1.432581,-2.57865 z"
         id="path61" /></clipPath></defs><g
     inkscape:label="Capa 1"
     inkscape:groupmode="layer"
     id="layer1"><g
       id="g61"
       transform="matrix(1.1401457,0,0,1.1401457,-7.4160431,-7.4160431)"><circle
         style="fill:#002d62;fill-opacity:1;stroke:#002d62;stroke-width:0;stroke-dasharray:none;stroke-opacity:1"
         id="path35"
         cx="52.916672"
         cy="52.916672"
         r="44.814236" /><path
         id="path10"
         style="fill:#ffffff;fill-opacity:1"
         d="m 23.95381,77.935747 c 2.344774,-0.34926 5.349076,-0.80428 6.676226,-1.01115 1.32715,-0.20688 7.04215,-1.06285 12.7,-1.90215 39.429397,-5.8491 37.106807,-5.46291 39.445147,-6.55869 l 2.12771,-0.99708 0.8165,-3.02046 c 1.28495,-4.75334 1.33494,-4.85896 4.186798,-8.84639 1.48694,-2.07903 2.67198,-3.8116 2.63341,-3.85016 -0.0386,-0.0386 -2.49267,0.27765 -5.453588,0.70269 l -5.38347,0.77279 -1.52738,-1.01994 c -0.84006,-0.56097 -2.05402,-1.22107 -2.6977,-1.46689 -1.06397,-0.40634 -1.1553,-0.50655 -1.00504,-1.10275 0.4194,-1.66405 0.43148,-3.73736 0.0274,-4.70443 -0.22575,-0.54031 -0.38038,-0.99755 -0.34363,-1.0161 2.43586,-1.22927 6.38583,-4.93098 7.40065,-6.93552 0.61699,-1.2187 1.52574,-4.62487 1.29536,-4.85525 -0.0535,-0.0535 -0.58816,0.19016 -1.1882,0.54141 -1.6442,0.96247 -4.12097,1.91764 -6.77028,2.61095 -1.30752,0.34218 -2.52142,0.62214 -2.69756,0.62214 -0.17614,0 -0.63366,-0.8828 -1.0167,-1.96176 -0.79444,-2.23781 -2.13316,-4.47224 -2.93734,-4.90262 -0.41478,-0.22198 -1.05371,-0.21728 -2.64489,0.0194 l -2.098,0.31213 -1.0516,-1.0516 c -0.866572,-0.86657 -1.222707,-1.0516 -2.024055,-1.0516 -1.681078,0 -4.021131,1.90671 -5.222879,4.25568 -0.412412,0.80611 -0.438559,0.81645 -1.050802,0.41529 -0.345326,-0.22627 -0.627866,-0.52727 -0.627866,-0.66891 0,-0.42291 -2.378854,0.0132 -4.748097,0.87053 -3.586268,1.29766 -6.957391,3.89226 -7.983641,6.14463 -0.245167,0.53809 -0.479776,0.6675 -1.215533,0.67053 -1.423127,0.006 -4.047982,0.70546 -5.392535,1.43725 -0.672549,0.36605 -1.996901,1.47512 -2.943005,2.4646 l -1.720189,1.79906 -2.159,-0.0805 -2.159,-0.0805 1.016,1.07033 c 0.5588,0.58868 1.512742,1.3915 2.119871,1.78404 l 1.10387,0.71372 -0.954017,0.17898 c -1.29809,0.24352 -5.464882,-0.0528 -7.44994,-0.52977 -0.893319,-0.21465 -1.672529,-0.34197 -1.731577,-0.28292 -0.05905,0.0591 0.213994,0.7188 0.606761,1.46612 0.392767,0.74731 0.753619,1.44671 0.801894,1.5542 0.160105,0.35653 -1.32723,-0.4035 -3.450362,-1.76312 -1.152525,-0.73806 -2.0955,-1.23826 -2.0955,-1.11155 0,0.1267 0.498035,1.29572 1.106743,2.5978 1.35191,2.89186 3.032959,5.20497 4.712807,6.48479 0.694936,0.52945 1.270029,1.03109 1.277985,1.11476 0.008,0.0837 -2.215664,0.47989 -4.941377,0.88048 -2.725713,0.40058 -4.925988,0.79747 -4.8895,0.88197 0.03649,0.0845 1.066467,1.03979 2.288842,2.12288 1.222375,1.08309 2.221863,2.16079 2.221084,2.3949 -0.0031,0.93138 -0.546656,2.30856 -0.958989,2.42974 -0.240127,0.0706 -1.39424,0.27061 -2.564696,0.44454 l -2.128102,0.31624 1.968909,1.7981 1.968909,1.79811 -0.539307,1.96579 c -0.296619,1.08118 -0.539308,2.18353 -0.539308,2.44965 0,0.45061 2.883763,3.32047 3.336559,3.32047 0.111094,0 2.120441,-0.28575 4.465215,-0.63501 z m -5.571377,-1.71449 -1.195226,-1.0795 0.650944,-2.32073 0.650943,-2.32074 -1.168529,-1.07711 c -0.642691,-0.59241 -1.168529,-1.16688 -1.168529,-1.27659 0,-0.10971 0.703034,-0.29518 1.562298,-0.41215 l 1.562298,-0.21268 0.571581,-2.09693 c 0.449284,-1.64827 0.502576,-2.13739 0.249071,-2.286 -0.177381,-0.10399 -0.979794,-0.78355 -1.783141,-1.51013 -1.722192,-1.55764 -2.159794,-1.31437 4.060893,-2.2575 2.3749,-0.36006 4.83235,-0.73751 5.461,-0.83876 l 1.143,-0.1841 -1.428058,-0.42745 c -1.831795,-0.5483 -4.24036,-2.15913 -5.506142,-3.68247 -1.149421,-1.3833 -2.422107,-3.35301 -2.266813,-3.50831 0.05866,-0.0587 0.724137,0.17535 1.478835,0.52003 1.83825,0.83954 4.040911,1.39113 6.198178,1.55214 l 1.778,0.1327 -1.52683,-0.59017 c -1.762681,-0.68132 -3.806279,-2.01648 -4.193298,-2.73963 -0.32041,-0.59869 -0.387518,-0.59322 2.591426,-0.21119 1.664255,0.21344 2.813898,0.2136 4.474532,6.3e-4 2.051139,-0.26305 5.549474,-1.22422 5.313739,-1.45995 -0.05492,-0.0549 -0.775694,-0.22388 -1.601714,-0.37547 -1.595575,-0.2928 -3.914855,-1.1813 -3.914855,-1.49975 0,-0.10492 1.285875,-0.2502 2.8575,-0.32286 3.107516,-0.14365 4.802615,-0.52686 7.74039,-1.74986 2.355801,-0.98072 2.070345,-1.29044 -1.189353,-1.29044 -1.93455,0 -3.635494,0.30687 -5.525617,0.9969 -0.40426,0.14758 -0.398343,0.10219 0.05408,-0.41492 1.624979,-1.85732 4.63603,-3.0615 7.655251,-3.0615 1.712008,0 1.871561,-0.0419 1.652346,-0.43359 -0.477676,-0.85356 2.317814,-3.99384 4.662403,-5.23745 1.694343,-0.89871 3.601181,-1.64022 5.053943,-1.96534 l 1.378169,-0.30842 1.128104,0.9244 c 0.620457,0.50842 1.195647,0.9244 1.2782,0.9244 0.08255,0 0.456449,-0.68265 0.830878,-1.51699 0.931304,-2.07522 3.026383,-4.07101 4.273532,-4.07101 0.737126,0 1.035717,0.17854 1.717587,1.02704 1.133144,1.41005 3.168804,2.67732 2.448854,1.52451 -0.17052,-0.27305 -0.2571,-0.54939 -0.19239,-0.6141 0.0647,-0.0647 0.91476,-0.15563 1.889,-0.20205 l 1.77135,-0.0844 0.82813,1.22957 c 0.45546,0.67627 1.1186,2.16217 1.47363,3.302 0.35504,1.13984 0.69211,2.20506 0.74906,2.36716 0.19084,0.54325 6.03239,-0.98455 9.85245,-2.57681 0.69548,-0.28988 0.55464,0.55697 -0.35841,2.15508 -1.07312,1.8783 -3.47172,4.18569 -5.94807,5.72189 l -2.03613,1.26311 0.57938,1.016 c 0.7808,1.36922 0.77459,3.41325 -0.0179,5.88255 -0.15051,0.46897 -0.0364,0.59377 0.78628,0.86018 1.4435,0.46743 3.38154,1.48349 4.48006,2.34877 l 0.97772,0.77014 4.35628,-0.6473 c 2.39595,-0.35602 4.381748,-0.62536 4.412878,-0.59855 0.0311,0.0268 -0.87148,1.35679 -2.005808,2.95549 -2.0301,2.86117 -2.07775,2.96365 -3.0411,6.54007 -0.53828,1.99834 -0.97869,3.69077 -0.97869,3.76095 0,0.0702 -0.8355,0.50835 -1.85667,0.97371 -2.0925,0.95358 -0.73265,0.72036 -26.718334,4.58234 -8.9408,1.32878 -17.34185,2.58634 -18.669,2.79457 -6.071813,0.95269 -16.136282,2.41608 -16.616612,2.41608 -0.292471,0 -1.069617,-0.48578 -1.726991,-1.0795 z m 5.57203,-0.96139 c 1.772113,-0.28429 3.261955,-0.55682 3.31076,-0.60563 0.0488,-0.0488 0.433266,-1.33067 0.854358,-2.8486 0.421092,-1.51793 0.93436,-3.02028 1.140595,-3.33855 0.206235,-0.31827 0.307854,-0.68728 0.225819,-0.82001 -0.08203,-0.13273 0.214028,-1.56119 0.657916,-3.17434 0.791078,-2.87489 0.797655,-2.94341 0.331939,-3.45802 -0.874153,-0.96592 -1.165539,-0.98379 -5.445156,-0.33383 -2.282315,0.34662 -4.1959,0.67645 -4.252409,0.73296 -0.05651,0.0565 0.265351,0.43164 0.715247,0.83362 l 0.817992,0.73088 -0.828498,2.99125 c -0.646759,2.33509 -0.941834,3.03317 -1.34517,3.18238 -0.34648,0.12817 -0.4187,0.25168 -0.219246,0.37494 0.427144,0.26399 0.370699,0.96152 -0.250935,3.10093 l -0.548361,1.88725 0.592637,0.63083 c 0.32595,0.34696 0.688903,0.63083 0.806563,0.63083 0.117659,0 1.663836,-0.2326 3.435949,-0.51689 z m -1.704479,-1.70837 c 0.0053,-0.51466 2.748721,-10.02316 2.945222,-10.20806 0.125307,-0.11792 0.725113,-0.2953 1.332904,-0.39418 0.998555,-0.16246 1.091751,-0.13438 0.966861,0.29136 -0.07602,0.25913 -0.674678,2.42668 -1.330356,4.81679 l -1.192143,4.34565 -1.362218,0.66809 c -0.74922,0.36745 -1.361341,0.58361 -1.36027,0.48035 z m 16.259647,-3.34732 c 0.442471,-1.61503 0.967879,-3.11991 1.167573,-3.34418 0.199694,-0.22427 0.293289,-0.58964 0.207988,-0.81193 -0.0853,-0.22229 0.02624,-1.02794 0.247876,-1.79033 0.221632,-0.76239 0.402968,-1.50619 0.402968,-1.65288 0,-0.33953 -2.574287,0.84046 -2.800478,1.28367 -0.09297,0.18218 -0.553401,1.78394 -1.02317,3.55947 l -0.854127,3.22824 -1.661612,0.74582 c -0.913887,0.41021 -1.685952,0.72386 -1.715699,0.69701 -0.02975,-0.0268 0.460207,-1.91693 1.088788,-4.20019 0.628581,-2.28326 1.11012,-4.23131 1.070086,-4.32899 -0.04003,-0.0977 -0.671611,0.087 -1.403506,0.41046 -1.285483,0.56808 -1.34518,0.64009 -1.756143,2.11824 -0.34337,1.23504 -0.525875,1.53017 -0.946211,1.53017 -0.479485,0 -0.488241,0.0325 -0.110416,0.41037 0.377825,0.37783 0.361946,0.58429 -0.200229,2.6035 l -0.610598,2.19313 0.715414,0.65271 0.715413,0.65271 3.330795,-0.51029 3.330795,-0.51029 z m 5.008661,2.10626 c 1.266428,-0.15212 1.343666,-0.20458 1.586084,-1.07729 0.498986,-1.79637 0.414324,-1.89433 -1.01234,-1.17139 -1.071747,0.5431 -1.27,0.57961 -1.27,0.23388 0,-0.55775 0.725191,-3.14371 1.087212,-3.87689 0.161588,-0.32726 0.306419,-0.78446 0.321846,-1.016 0.01543,-0.23154 0.0476,-0.59999 0.0715,-0.81878 0.0239,-0.21879 0.719837,-0.72109 1.546537,-1.11621 1.37145,-0.65549 1.527166,-0.81403 1.778,-1.81018 0.1512,-0.60047 0.27491,-1.14916 0.27491,-1.21931 0,-0.0702 -0.614918,0.14439 -1.366485,0.47677 l -1.366485,0.60433 0.198832,-0.8816 c 0.18547,-0.82235 0.162083,-0.87026 -0.348015,-0.71304 -0.300766,0.0927 -0.941075,0.36822 -1.42291,0.61225 -0.817251,0.41391 -0.92091,0.6121 -1.5441,2.95224 -0.576342,2.16422 -0.746561,2.52006 -1.240118,2.59242 -0.530007,0.0777 -0.539384,0.10778 -0.127504,0.40896 0.42092,0.30778 0.412825,0.44824 -0.152112,2.63952 -0.579836,2.24907 -0.583523,2.32899 -0.130529,2.82954 0.496329,0.54844 0.99899,0.60503 3.115682,0.35078 z m 5.70703,-1.06556 c 0.09916,-0.0947 0.480664,-1.31397 0.847794,-2.7096 0.36713,-1.39563 0.878159,-2.90211 1.13562,-3.34771 0.257461,-0.44561 0.368738,-0.84566 0.247281,-0.889 -0.121456,-0.0433 0.225622,-1.67901 0.771285,-3.63481 1.321329,-4.73599 1.335536,-4.59975 -0.391355,-3.75281 -1.124721,0.55162 -1.445189,0.85001 -1.629396,1.51715 -0.126118,0.45676 -0.546269,2.04879 -0.933668,3.53784 -0.529105,2.03372 -0.818879,2.73731 -1.164605,2.82772 -0.529373,0.13843 -0.578945,0.3488 -0.176923,0.75082 0.208426,0.20843 0.102783,0.96778 -0.399641,2.87261 -0.375628,1.4241 -0.749981,2.76394 -0.831896,2.9774 -0.126617,0.32996 0.03795,0.36073 1.098141,0.2053 0.685892,-0.10055 1.328206,-0.26026 1.427363,-0.35491 z m 10.404857,-1.65 c 0.09413,-0.14435 0.413352,-1.22817 0.709386,-2.4085 0.296033,-1.18032 0.723037,-2.55927 0.948897,-3.06433 0.225859,-0.50506 0.427438,-1.20404 0.447953,-1.55329 0.02052,-0.34925 0.122948,-0.99415 0.227628,-1.43311 0.167045,-0.70049 0.09742,-0.86427 -0.569149,-1.33891 l -0.759477,-0.5408 -3.221983,0.50137 c -1.772091,0.27576 -3.254623,0.53537 -3.294516,0.57691 -0.03989,0.0416 0.434188,0.51497 1.053512,1.05205 1.12011,0.97135 1.13337,0.97524 2.515825,0.73706 1.221591,-0.21047 1.389781,-0.18843 1.389781,0.18207 0,0.29327 -0.99294,0.87629 -3.263357,1.91616 l -3.263357,1.49463 -0.515085,1.95612 -0.515085,1.95612 0.616892,0.61689 0.616892,0.61689 3.35205,-0.50244 c 1.843627,-0.27634 3.429064,-0.62054 3.523193,-0.76489 z m -5.062763,-1.70581 c 0.231367,-0.91151 0.431501,-1.11558 1.743749,-1.778 0.815311,-0.41157 1.58779,-0.74831 1.71662,-0.74831 0.138546,0 0.127538,0.42036 -0.02695,1.02898 -0.239713,0.94439 -0.396967,1.09054 -1.913124,1.778 -0.908569,0.41196 -1.68113,0.74902 -1.716803,0.74902 -0.03567,0 0.05275,-0.46336 0.196504,-1.02969 z m 13.764397,0.64215 c 2.22573,-0.34999 4.06344,-0.66315 4.0838,-0.6959 0.0204,-0.0327 0.36076,-1.31686 0.75644,-2.85356 0.39568,-1.5367 0.9305,-3.09853 1.1885,-3.47073 0.30138,-0.4348 0.36832,-0.71032 0.18724,-0.77068 -0.19241,-0.0641 -0.12088,-0.6151 0.2254,-1.73627 0.27899,-0.90327 0.47956,-1.67254 0.44572,-1.70947 -0.0338,-0.0369 -0.6939,0.22236 -1.46682,0.57621 l -1.40529,0.64336 -0.80699,2.97979 c -1.19385,4.40823 -1.24237,4.52948 -1.94008,4.84737 -0.35178,0.16028 -0.67493,0.29142 -0.71811,0.29142 -0.0432,0 0.43311,-1.89129 1.05842,-4.20287 0.6253,-2.31158 1.08399,-4.2558 1.0193,-4.32048 -0.0647,-0.0647 -0.69568,0.12262 -1.40221,0.41624 l -1.2846,0.53386 -0.78366,2.84792 c -0.43101,1.56636 -0.85907,3.22499 -0.95124,3.68586 -0.11154,0.55767 -0.42739,0.99593 -0.94433,1.3103 -0.42721,0.2598 -0.82133,0.42777 -0.87583,0.37327 -0.0545,-0.0545 0.43005,-2.00834 1.0768,-4.34186 0.64674,-2.33353 1.13207,-4.2866 1.0785,-4.34016 -0.0536,-0.0536 -0.72526,0.19007 -1.49267,0.5414 -1.352355,0.61913 -1.404822,0.68139 -1.705162,2.02345 -0.217017,0.96973 -0.45533,1.43084 -0.795266,1.53873 -0.393865,0.12501 -0.432251,0.23914 -0.203573,0.60531 0.216132,0.34609 0.146728,0.96263 -0.297776,2.64526 l -0.579592,2.19399 0.608151,0.50644 c 0.780039,0.64958 1.080349,0.64359 5.924928,-0.1182 z m 12.727,-2.30628 1.53378,-0.63872 0.65351,-2.41166 0.65351,-2.41166 -0.81427,-0.62107 c -0.44784,-0.34159 -0.9496,-0.62107 -1.11503,-0.62107 -0.16542,0 -0.99925,0.3526 -1.85296,0.78355 -1.20142,0.60647 -1.51549,0.68788 -1.38976,0.36023 0.0893,-0.23283 0.16244,-0.57726 0.16244,-0.76541 0,-0.71628 0.79699,-1.07289 3.09074,-1.38292 1.30364,-0.17621 2.52868,-0.44921 2.72231,-0.60668 0.40809,-0.33189 1.62915,-2.21113 1.50779,-2.32052 -0.045,-0.0406 -1.51059,0.13507 -3.25684,0.39031 -2.18,0.31864 -3.62532,0.67879 -4.61198,1.14922 -1.38694,0.66129 -1.45152,0.73698 -1.85464,2.17368 -0.33984,1.21118 -0.5172,1.48854 -0.95189,1.48854 -0.50425,0 -0.5103,0.0264 -0.10773,0.47127 0.23457,0.2592 0.36364,0.63505 0.28683,0.83522 -0.079,0.20576 0.18593,0.67589 0.60943,1.08162 l 0.7491,0.71768 1.80068,-0.82999 c 0.99037,-0.45649 1.85266,-0.778 1.91619,-0.71447 0.0635,0.0635 -0.0117,0.53011 -0.16725,1.03685 -0.31787,1.03571 -0.28926,1.02417 -3.70599,1.49436 -1.41277,0.19441 -2.31898,0.43124 -2.26605,0.59222 0.0485,0.14753 0.55564,0.62581 1.12698,1.06284 0.99149,0.75843 1.10045,0.78392 2.39306,0.55996 0.74484,-0.12906 2.04446,-0.52208 2.88804,-0.87338 z m -40.268777,-6.26284 c 1.425174,-0.68997 4.826,-3.3701 4.826,-3.80328 0,-0.13157 -0.35167,0.0567 -0.781488,0.41837 -0.429819,0.36166 -0.878854,0.65757 -0.997857,0.65757 -0.119003,0 -0.367409,0.14969 -0.552012,0.33263 -0.492508,0.48809 -3.935155,1.85474 -5.491645,2.18005 -0.740301,0.15473 -1.820436,0.28132 -2.4003,0.28132 -0.636134,0 -0.958592,0.091 -0.812998,0.22935 0.816388,0.77594 4.343361,0.60783 6.2103,-0.29601 z m 0.125428,-3.463 c 1.397864,-0.7004 2.963296,-1.66651 3.478737,-2.1469 0.515441,-0.48039 1.000515,-0.81009 1.077943,-0.73266 0.07743,0.0774 0.341503,-0.0348 0.586835,-0.24942 0.245331,-0.21461 1.074707,-0.74624 1.843057,-1.18139 1.633577,-0.92518 1.251762,-1.00892 -1.179745,-0.25875 -2.266089,0.69914 -3.628746,1.34322 -5.805255,2.74391 -2.458806,1.58237 -3.842266,2.2547 -5.379396,2.61427 -1.886953,0.4414 -1.368548,0.80242 0.905291,0.63045 1.651867,-0.12493 2.298309,-0.3301 4.472533,-1.41951 z m 21.19437,0.46066 c 2.293479,-0.6315 4.958539,-1.90749 6.870909,-3.28968 l 1.39371,-1.00732 -1.26671,-0.0198 -1.26671,-0.0198 1.54796,-0.55166 c 1.68066,-0.59897 2.68091,-1.183 3.64035,-2.12555 l 0.6163,-0.60545 -1.1243,0.15345 -1.12431,0.15345 1.016,-0.6477 c 0.5588,-0.35623 1.15888,-0.84261 1.3335,-1.08083 0.41205,-0.56211 0.40586,-1.64212 -0.0127,-2.21452 -0.30851,-0.42191 -0.34903,-0.41023 -0.61704,0.17799 -0.41466,0.91008 -2.63563,1.89685 -5.02176,2.23114 -1.26335,0.17699 -3.30243,0.21896 -5.390466,0.11094 -3.710986,-0.19197 -5.145461,0.0623 -7.055535,1.25051 l -1.016,0.63204 1.22149,0.008 c 0.67182,0.004 1.161152,-0.0897 1.087406,-0.20902 -0.07375,-0.11933 0.405283,-0.11195 1.06451,0.0164 2.347849,0.45708 3.878475,0.99837 4.565555,1.61456 l 0.697039,0.62512 -1.397,-0.13476 c -0.76835,-0.0741 -1.7399,-0.19189 -2.159,-0.26172 -0.688208,-0.11466 -0.714252,-0.0958 -0.268931,0.1947 2.338502,1.52553 2.149894,3.0646 -0.588364,4.80115 l -1.147162,0.72751 h 1.240027 c 0.682014,0 2.104567,-0.23805 3.161228,-0.529 z m -28.051397,-1.67895 c 2.131372,-0.52963 4.157512,-1.41821 7.128188,-3.12613 5.407808,-3.10909 8.890087,-4.54721 13.827411,-5.71049 1.60655,-0.37852 2.97815,-0.74905 3.048,-0.8234 0.06985,-0.0744 -0.840833,-0.0533 -2.023739,0.0467 -2.662325,0.22511 -6.154656,1.09564 -9.083555,2.26423 -2.030056,0.80997 -2.160099,0.83409 -1.465706,0.27186 0.4191,-0.33933 1.7907,-1.14772 3.048,-1.79641 2.152426,-1.11054 2.22012,-1.16939 1.158531,-1.00724 -1.608994,0.24576 -3.465798,1.31373 -7.381531,4.2456 -5.386868,4.03338 -7.762946,4.94017 -12.827,4.89521 -2.322505,-0.0206 -3.425862,-0.15032 -4.6355,-0.54487 -0.873125,-0.28479 -1.5875,-0.4835 -1.5875,-0.44157 0,0.18052 2.243741,1.3534 3.150136,1.64669 2.410157,0.77986 4.729723,0.8041 7.644265,0.0799 z m 44.566246,-0.90031 c -0.5887,-0.4767 -2.86828,-1.71774 -3.1552,-1.71774 -0.0745,0 0.32175,0.4572 0.88055,1.016 0.5588,0.5588 1.016,1.10735 1.016,1.219 0,0.11165 0.42243,0.15368 0.93873,0.0934 l 0.93873,-0.10959 z m -25.383803,-2.17858 0.569122,-0.46085 -0.890676,0.10398 c -0.712197,0.0831 -0.973297,-0.014 -1.302983,-0.48467 -0.407356,-0.58158 -0.412307,-0.58212 -0.412307,-0.0449 0,1.38407 0.925104,1.78668 2.036844,0.88645 z m -17.603872,-1.09476 c 1.074317,-0.39434 1.863174,-0.93881 2.930528,-2.02265 1.638459,-1.66377 1.998003,-2.55446 0.476151,-1.17956 -1.359987,1.22867 -2.932266,2.09867 -4.730651,2.61765 -1.564912,0.4516 -4.452472,0.5648 -5.990694,0.23486 -1.381152,-0.29626 -0.642431,0.1625 0.839499,0.52134 2.14625,0.5197 4.782109,0.44983 6.475167,-0.17164 z m 9.726748,-6.08988 0.868949,-0.66048 -0.589514,-0.3155 c -0.528961,-0.28309 -0.680323,-0.22829 -1.473566,0.53348 -0.866471,0.8321 -3.079525,3.52546 -3.51509,4.27798 -0.121289,0.20955 0.693154,-0.4191 1.809873,-1.397 1.116719,-0.9779 2.421425,-2.07521 2.899348,-2.43848 z m 23.260167,0.85098 c 0.4456,-0.67617 0.4648,-0.68105 0.60071,-0.15276 0.13491,0.52438 0.17739,0.53089 1.08568,0.16622 l 0.94527,-0.37952 -0.50077,-0.9816 c -0.27543,-0.53988 -0.50078,-1.15375 -0.50078,-1.36415 0,-0.31605 -0.1497,-0.29422 -0.86117,0.12555 -0.47365,0.27946 -1.43258,0.57578 -2.13097,0.6585 -1.60324,0.18988 -3.955356,-0.33014 -3.762811,-0.8319 0.07425,-0.19351 0.01862,-0.35184 -0.123632,-0.35184 -0.487673,0 -1.695832,0.74316 -1.846509,1.13582 -0.294228,0.76674 0.576392,2.1128 1.613095,2.49399 0.20955,0.0771 1.425127,0.14911 2.701287,0.16014 2.25991,0.0195 2.33227,0.002 2.7806,-0.67845 z m -13.620971,-2.48953 c 0.901954,-0.21259 2.317901,-0.69079 3.146551,-1.06266 l 1.506634,-0.67614 -0.857789,-0.28881 c -0.756168,-0.2546 -1.038663,-0.20432 -2.384551,0.42448 -2.92547,1.36678 -7.363253,1.50717 -11.194443,0.35415 -1.628366,-0.49006 -1.723457,-0.31095 -0.195928,0.36906 2.843768,1.26595 6.844925,1.61874 9.979526,0.87992 z m 12.838081,-0.62197 c 0.0972,-0.15731 -0.35632,-0.25251 -1.19151,-0.25011 -0.96433,0.003 -1.23995,0.074 -0.96749,0.25011 0.50069,0.32357 1.95903,0.32357 2.159,0 z m 4.191,-0.53517 c 0,-0.29022 -0.68878,-0.29678 -0.8671,-0.008 -0.0743,0.12021 -0.0699,0.28379 0.01,0.3635 0.19821,0.19821 0.85726,-0.0749 0.85726,-0.35525 z m 1.05716,-2.36271 c 1.02511,-0.19683 2.65205,-0.65519 3.61542,-1.01857 1.74983,-0.66003 4.58246,-2.15317 4.41068,-2.32496 -0.05,-0.05 -0.80062,0.19579 -1.66807,0.54617 -7.05352,2.84904 -15.16658,2.63654 -21.131187,-0.55349 -0.90805,-0.48565 -1.36525,-0.6507 -1.016,-0.36678 0.959643,0.78014 5.008793,2.70723 6.725044,3.20062 3.129933,0.89978 6.168133,1.07308 9.064113,0.51701 z m -1.11157,-2.56532 c 0.13633,-0.10949 -1.60674,-0.85563 -2.3645,-1.01214 -1.16526,-0.24068 -4.0131,-0.6229 -4.43909,-0.59578 -0.20955,0.0133 0.3048,0.16279 1.143,0.33211 l 1.524,0.30786 -1.27,0.18755 c -2.489346,0.36764 -2.693606,0.57186 -0.762,0.76188 0.9779,0.0962 2.0066,0.2068 2.286,0.2458 0.51035,0.0712 3.74682,-0.11823 3.88259,-0.22728 z m -12.635049,-3.36329 c 0.167165,-0.52388 0.646882,-1.524 1.066039,-2.2225 l 0.762104,-1.27 -0.6908,0.635 c -0.764574,0.70281 -2.231043,3.40417 -1.982777,3.65243 0.331801,0.3318 0.551954,0.1248 0.845434,-0.79493 z" /><path
         id="path10-7"
         style="fill:#007ac1;fill-opacity:1"
         d="m 23.670821,154.11036 c 2.344774,-0.34926 5.349076,-0.80428 6.676226,-1.01115 1.32715,-0.20688 7.04215,-1.06285 12.7,-1.90215 39.429397,-5.8491 37.106807,-5.46291 39.445147,-6.55869 l 2.12771,-0.99708 0.8165,-3.02046 c 1.28495,-4.75334 1.33494,-4.85896 4.186798,-8.84639 1.48694,-2.07903 2.67198,-3.8116 2.63341,-3.85016 -0.0386,-0.0386 -2.49267,0.27765 -5.453588,0.70269 l -5.38347,0.77279 -1.52738,-1.01994 c -0.84006,-0.56097 -2.05402,-1.22107 -2.6977,-1.46689 -1.06397,-0.40634 -1.1553,-0.50655 -1.00504,-1.10275 0.4194,-1.66405 0.43148,-3.73736 0.0274,-4.70443 -0.22575,-0.54031 -0.38038,-0.99755 -0.34363,-1.0161 2.43586,-1.22927 6.38583,-4.93098 7.40065,-6.93552 0.61699,-1.2187 1.52574,-4.62487 1.29536,-4.85525 -0.0535,-0.0535 -0.58816,0.19016 -1.1882,0.54141 -1.6442,0.96247 -4.12097,1.91764 -6.77028,2.61095 -1.30752,0.34218 -2.52142,0.62214 -2.69756,0.62214 -0.17614,0 -0.63366,-0.8828 -1.0167,-1.96176 -0.79444,-2.23781 -2.13316,-4.47224 -2.93734,-4.90262 -0.41478,-0.22198 -1.05371,-0.21728 -2.64489,0.0194 l -2.098,0.31213 -1.0516,-1.0516 c -0.866572,-0.86657 -1.222707,-1.0516 -2.024055,-1.0516 -1.681078,0 -4.021131,1.90671 -5.222879,4.25568 -0.412412,0.80611 -0.438559,0.81645 -1.050802,0.41529 -0.345326,-0.22627 -0.627866,-0.52727 -0.627866,-0.66891 0,-0.42291 -2.378854,0.0132 -4.748097,0.87053 -3.586268,1.29766 -6.957391,3.89226 -7.983641,6.14463 -0.245167,0.53809 -0.479776,0.6675 -1.215533,0.67053 -1.423127,0.006 -4.047982,0.70546 -5.392535,1.43725 -0.672549,0.36605 -1.996901,1.47512 -2.943005,2.4646 l -1.720189,1.79906 -2.159,-0.0805 -2.159,-0.0805 1.016,1.07033 c 0.5588,0.58868 1.512742,1.3915 2.119871,1.78404 l 1.10387,0.71372 -0.954017,0.17898 c -1.29809,0.24352 -5.464882,-0.0528 -7.44994,-0.52977 -0.893319,-0.21465 -1.672529,-0.34197 -1.731577,-0.28292 -0.05905,0.0591 0.213994,0.7188 0.606761,1.46612 0.392767,0.74731 0.753619,1.44671 0.801894,1.5542 0.160105,0.35653 -1.32723,-0.4035 -3.450362,-1.76312 -1.152525,-0.73806 -2.0955,-1.23826 -2.0955,-1.11155 0,0.1267 0.498035,1.29572 1.106743,2.5978 1.35191,2.89186 3.032959,5.20497 4.712807,6.48479 0.694936,0.52945 1.270029,1.03109 1.277985,1.11476 0.008,0.0837 -2.215664,0.47989 -4.941377,0.88048 -2.725713,0.40058 -4.925988,0.79747 -4.8895,0.88197 0.03649,0.0845 1.066467,1.03979 2.288842,2.12288 1.222375,1.08309 2.221863,2.16079 2.221084,2.3949 -0.0031,0.93138 -0.546656,2.30856 -0.958989,2.42974 -0.240127,0.0706 -1.39424,0.27061 -2.564696,0.44454 l -2.128102,0.31624 1.968909,1.7981 1.968909,1.79811 -0.539307,1.96579 c -0.296619,1.08118 -0.539308,2.18353 -0.539308,2.44965 0,0.45061 2.883763,3.32047 3.336559,3.32047 0.111094,0 2.120441,-0.28575 4.465215,-0.63501 z m -5.571377,-1.71449 -1.195226,-1.0795 0.650944,-2.32073 0.650943,-2.32074 -1.168529,-1.07711 c -0.642691,-0.59241 -1.168529,-1.16688 -1.168529,-1.27659 0,-0.10971 0.703034,-0.29518 1.562298,-0.41215 l 1.562298,-0.21268 0.571581,-2.09693 c 0.449284,-1.64827 0.502576,-2.13739 0.249071,-2.286 -0.177381,-0.10399 -0.979794,-0.78355 -1.783141,-1.51013 -1.722192,-1.55764 -2.159794,-1.31437 4.060893,-2.2575 2.3749,-0.36006 4.83235,-0.73751 5.461,-0.83876 l 1.143,-0.1841 -1.428058,-0.42745 c -1.831795,-0.5483 -4.24036,-2.15913 -5.506142,-3.68247 -1.149421,-1.3833 -2.422107,-3.35301 -2.266813,-3.50831 0.05866,-0.0587 0.724137,0.17535 1.478835,0.52003 1.83825,0.83954 4.040911,1.39113 6.198178,1.55214 l 1.778,0.1327 -1.52683,-0.59017 c -1.762681,-0.68132 -3.806279,-2.01648 -4.193298,-2.73963 -0.32041,-0.59869 -0.387518,-0.59322 2.591426,-0.21119 1.664255,0.21344 2.813898,0.2136 4.474532,6.3e-4 2.051139,-0.26305 5.549474,-1.22422 5.313739,-1.45995 -0.05492,-0.0549 -0.775694,-0.22388 -1.601714,-0.37547 -1.595575,-0.2928 -3.914855,-1.1813 -3.914855,-1.49975 0,-0.10492 1.285875,-0.2502 2.8575,-0.32286 3.107516,-0.14365 4.802615,-0.52686 7.74039,-1.74986 2.355801,-0.98072 2.070345,-1.29044 -1.189353,-1.29044 -1.93455,0 -3.635494,0.30687 -5.525617,0.9969 -0.40426,0.14758 -0.398343,0.10219 0.05408,-0.41492 1.624979,-1.85732 4.63603,-3.0615 7.655251,-3.0615 1.712008,0 1.871561,-0.0419 1.652346,-0.43359 -0.477676,-0.85356 2.317814,-3.99384 4.662403,-5.23745 1.694343,-0.89871 3.601181,-1.64022 5.053943,-1.96534 l 1.378169,-0.30842 1.128104,0.9244 c 0.620457,0.50842 1.195647,0.9244 1.2782,0.9244 0.08255,0 0.456449,-0.68265 0.830878,-1.51699 0.931304,-2.07522 3.026383,-4.07101 4.273532,-4.07101 0.737126,0 1.035717,0.17854 1.717587,1.02704 1.133144,1.41005 3.168804,2.67732 2.448854,1.52451 -0.17052,-0.27305 -0.2571,-0.54939 -0.19239,-0.6141 0.0647,-0.0647 0.91476,-0.15563 1.889,-0.20205 l 1.77135,-0.0844 0.82813,1.22957 c 0.45546,0.67627 1.1186,2.16217 1.47363,3.302 0.35504,1.13984 0.69211,2.20506 0.74906,2.36716 0.19084,0.54325 6.03239,-0.98455 9.85245,-2.57681 0.69548,-0.28988 0.55464,0.55697 -0.35841,2.15508 -1.07312,1.8783 -3.47172,4.18569 -5.94807,5.72189 l -2.03613,1.26311 0.57938,1.016 c 0.7808,1.36922 0.77459,3.41325 -0.0179,5.88255 -0.15051,0.46897 -0.0364,0.59377 0.78628,0.86018 1.4435,0.46743 3.38154,1.48349 4.48006,2.34877 l 0.97772,0.77014 4.35628,-0.6473 c 2.39595,-0.35602 4.381748,-0.62536 4.412878,-0.59855 0.0311,0.0268 -0.87148,1.35679 -2.005808,2.95549 -2.0301,2.86117 -2.07775,2.96365 -3.0411,6.54007 -0.53828,1.99834 -0.97869,3.69077 -0.97869,3.76095 0,0.0702 -0.8355,0.50835 -1.85667,0.97371 -2.0925,0.95358 -0.73265,0.72036 -26.718334,4.58234 -8.9408,1.32878 -17.34185,2.58634 -18.669,2.79457 -6.071813,0.95269 -16.136282,2.41608 -16.616612,2.41608 -0.292471,0 -1.069617,-0.48578 -1.726991,-1.0795 z m 5.57203,-0.96139 c 1.772113,-0.28429 3.261955,-0.55682 3.31076,-0.60563 0.0488,-0.0488 0.433266,-1.33067 0.854358,-2.8486 0.421092,-1.51793 0.93436,-3.02028 1.140595,-3.33855 0.206235,-0.31827 0.307854,-0.68728 0.225819,-0.82001 -0.08203,-0.13273 0.214028,-1.56119 0.657916,-3.17434 0.791078,-2.87489 0.797655,-2.94341 0.331939,-3.45802 -0.874153,-0.96592 -1.165539,-0.98379 -5.445156,-0.33383 -2.282315,0.34662 -4.1959,0.67645 -4.252409,0.73296 -0.05651,0.0565 0.265351,0.43164 0.715247,0.83362 l 0.817992,0.73088 -0.828498,2.99125 c -0.646759,2.33509 -0.941834,3.03317 -1.34517,3.18238 -0.34648,0.12817 -0.4187,0.25168 -0.219246,0.37494 0.427144,0.26399 0.370699,0.96152 -0.250935,3.10093 l -0.548361,1.88725 0.592637,0.63083 c 0.32595,0.34696 0.688903,0.63083 0.806563,0.63083 0.117659,0 1.663836,-0.2326 3.435949,-0.51689 z m -1.704479,-1.70837 c 0.0053,-0.51466 2.748721,-10.02316 2.945222,-10.20806 0.125307,-0.11792 0.725113,-0.2953 1.332904,-0.39418 0.998555,-0.16246 1.091751,-0.13438 0.966861,0.29136 -0.07602,0.25913 -0.674678,2.42668 -1.330356,4.81679 l -1.192143,4.34565 -1.362218,0.66809 c -0.74922,0.36745 -1.361341,0.58361 -1.36027,0.48035 z m 16.259647,-3.34732 c 0.442471,-1.61503 0.967879,-3.11991 1.167573,-3.34418 0.199694,-0.22427 0.293289,-0.58964 0.207988,-0.81193 -0.0853,-0.22229 0.02624,-1.02794 0.247876,-1.79033 0.221632,-0.76239 0.402968,-1.50619 0.402968,-1.65288 0,-0.33953 -2.574287,0.84046 -2.800478,1.28367 -0.09297,0.18218 -0.553401,1.78394 -1.02317,3.55947 l -0.854127,3.22824 -1.661612,0.74582 c -0.913887,0.41021 -1.685952,0.72386 -1.715699,0.69701 -0.02975,-0.0268 0.460207,-1.91693 1.088788,-4.20019 0.628581,-2.28326 1.11012,-4.23131 1.070086,-4.32899 -0.04003,-0.0977 -0.671611,0.087 -1.403506,0.41046 -1.285483,0.56808 -1.34518,0.64009 -1.756143,2.11824 -0.34337,1.23504 -0.525875,1.53017 -0.946211,1.53017 -0.479485,0 -0.488241,0.0325 -0.110416,0.41037 0.377825,0.37783 0.361946,0.58429 -0.200229,2.6035 l -0.610598,2.19313 0.715414,0.65271 0.715413,0.65271 3.330795,-0.51029 3.330795,-0.51029 z m 5.008661,2.10626 c 1.266428,-0.15212 1.343666,-0.20458 1.586084,-1.07729 0.498986,-1.79637 0.414324,-1.89433 -1.01234,-1.17139 -1.071747,0.5431 -1.27,0.57961 -1.27,0.23388 0,-0.55775 0.725191,-3.14371 1.087212,-3.87689 0.161588,-0.32726 0.306419,-0.78446 0.321846,-1.016 0.01543,-0.23154 0.0476,-0.59999 0.0715,-0.81878 0.0239,-0.21879 0.719837,-0.72109 1.546537,-1.11621 1.37145,-0.65549 1.527166,-0.81403 1.778,-1.81018 0.1512,-0.60047 0.27491,-1.14916 0.27491,-1.21931 0,-0.0702 -0.614918,0.14439 -1.366485,0.47677 l -1.366485,0.60433 0.198832,-0.8816 c 0.18547,-0.82235 0.162083,-0.87026 -0.348015,-0.71304 -0.300766,0.0927 -0.941075,0.36822 -1.42291,0.61225 -0.817251,0.41391 -0.92091,0.6121 -1.5441,2.95224 -0.576342,2.16422 -0.746561,2.52006 -1.240118,2.59242 -0.530007,0.0777 -0.539384,0.10778 -0.127504,0.40896 0.42092,0.30778 0.412825,0.44824 -0.152112,2.63952 -0.579836,2.24907 -0.583523,2.32899 -0.130529,2.82954 0.496329,0.54844 0.99899,0.60503 3.115682,0.35078 z m 5.70703,-1.06556 c 0.09916,-0.0947 0.480664,-1.31397 0.847794,-2.7096 0.36713,-1.39563 0.878159,-2.90211 1.13562,-3.34771 0.257461,-0.44561 0.368738,-0.84566 0.247281,-0.889 -0.121456,-0.0433 0.225622,-1.67901 0.771285,-3.63481 1.321329,-4.73599 1.335536,-4.59975 -0.391355,-3.75281 -1.124721,0.55162 -1.445189,0.85001 -1.629396,1.51715 -0.126118,0.45676 -0.546269,2.04879 -0.933668,3.53784 -0.529105,2.03372 -0.818879,2.73731 -1.164605,2.82772 -0.529373,0.13843 -0.578945,0.3488 -0.176923,0.75082 0.208426,0.20843 0.102783,0.96778 -0.399641,2.87261 -0.375628,1.4241 -0.749981,2.76394 -0.831896,2.9774 -0.126617,0.32996 0.03795,0.36073 1.098141,0.2053 0.685892,-0.10055 1.328206,-0.26026 1.427363,-0.35491 z m 10.404857,-1.65 c 0.09413,-0.14435 0.413352,-1.22817 0.709386,-2.4085 0.296033,-1.18032 0.723037,-2.55927 0.948897,-3.06433 0.225859,-0.50506 0.427438,-1.20404 0.447953,-1.55329 0.02052,-0.34925 0.122948,-0.99415 0.227628,-1.43311 0.167045,-0.70049 0.09742,-0.86427 -0.569149,-1.33891 l -0.759477,-0.5408 -3.221983,0.50137 c -1.772091,0.27576 -3.254623,0.53537 -3.294516,0.57691 -0.03989,0.0416 0.434188,0.51497 1.053512,1.05205 1.12011,0.97135 1.13337,0.97524 2.515825,0.73706 1.221591,-0.21047 1.389781,-0.18843 1.389781,0.18207 0,0.29327 -0.99294,0.87629 -3.263357,1.91616 l -3.263357,1.49463 -0.515085,1.95612 -0.515085,1.95612 0.616892,0.61689 0.616892,0.61689 3.35205,-0.50244 c 1.843627,-0.27634 3.429064,-0.62054 3.523193,-0.76489 z m -5.062763,-1.70581 c 0.231367,-0.91151 0.431501,-1.11558 1.743749,-1.778 0.815311,-0.41157 1.58779,-0.74831 1.71662,-0.74831 0.138546,0 0.127538,0.42036 -0.02695,1.02898 -0.239713,0.94439 -0.396967,1.09054 -1.913124,1.778 -0.908569,0.41196 -1.68113,0.74902 -1.716803,0.74902 -0.03567,0 0.05275,-0.46336 0.196504,-1.02969 z m 13.764397,0.64215 c 2.22573,-0.34999 4.06344,-0.66315 4.0838,-0.6959 0.0204,-0.0327 0.36076,-1.31686 0.75644,-2.85356 0.39568,-1.5367 0.9305,-3.09853 1.1885,-3.47073 0.30138,-0.4348 0.36832,-0.71032 0.18724,-0.77068 -0.19241,-0.0641 -0.12088,-0.6151 0.2254,-1.73627 0.27899,-0.90327 0.47956,-1.67254 0.44572,-1.70947 -0.0338,-0.0369 -0.6939,0.22236 -1.46682,0.57621 l -1.40529,0.64336 -0.80699,2.97979 c -1.19385,4.40823 -1.24237,4.52948 -1.94008,4.84737 -0.35178,0.16028 -0.67493,0.29142 -0.71811,0.29142 -0.0432,0 0.43311,-1.89129 1.05842,-4.20287 0.6253,-2.31158 1.08399,-4.2558 1.0193,-4.32048 -0.0647,-0.0647 -0.69568,0.12262 -1.40221,0.41624 l -1.2846,0.53386 -0.78366,2.84792 c -0.43101,1.56636 -0.85907,3.22499 -0.95124,3.68586 -0.11154,0.55767 -0.42739,0.99593 -0.94433,1.3103 -0.42721,0.2598 -0.82133,0.42777 -0.87583,0.37327 -0.0545,-0.0545 0.43005,-2.00834 1.0768,-4.34186 0.64674,-2.33353 1.13207,-4.2866 1.0785,-4.34016 -0.0536,-0.0536 -0.72526,0.19007 -1.49267,0.5414 -1.352355,0.61913 -1.404822,0.68139 -1.705162,2.02345 -0.217017,0.96973 -0.45533,1.43084 -0.795266,1.53873 -0.393865,0.12501 -0.432251,0.23914 -0.203573,0.60531 0.216132,0.34609 0.146728,0.96263 -0.297776,2.64526 l -0.579592,2.19399 0.608151,0.50644 c 0.780039,0.64958 1.080349,0.64359 5.924928,-0.1182 z m 12.727,-2.30628 1.53378,-0.63872 0.65351,-2.41166 0.65351,-2.41166 -0.81427,-0.62107 c -0.44784,-0.34159 -0.9496,-0.62107 -1.11503,-0.62107 -0.16542,0 -0.99925,0.3526 -1.85296,0.78355 -1.20142,0.60647 -1.51549,0.68788 -1.38976,0.36023 0.0893,-0.23283 0.16244,-0.57726 0.16244,-0.76541 0,-0.71628 0.79699,-1.07289 3.09074,-1.38292 1.30364,-0.17621 2.52868,-0.44921 2.72231,-0.60668 0.40809,-0.33189 1.62915,-2.21113 1.50779,-2.32052 -0.045,-0.0406 -1.51059,0.13507 -3.25684,0.39031 -2.18,0.31864 -3.62532,0.67879 -4.61198,1.14922 -1.38694,0.66129 -1.45152,0.73698 -1.85464,2.17368 -0.33984,1.21118 -0.5172,1.48854 -0.95189,1.48854 -0.50425,0 -0.5103,0.0264 -0.10773,0.47127 0.23457,0.2592 0.36364,0.63505 0.28683,0.83522 -0.079,0.20576 0.18593,0.67589 0.60943,1.08162 l 0.7491,0.71768 1.80068,-0.82999 c 0.99037,-0.45649 1.85266,-0.778 1.91619,-0.71447 0.0635,0.0635 -0.0117,0.53011 -0.16725,1.03685 -0.31787,1.03571 -0.28926,1.02417 -3.70599,1.49436 -1.41277,0.19441 -2.31898,0.43124 -2.26605,0.59222 0.0485,0.14753 0.55564,0.62581 1.12698,1.06284 0.99149,0.75843 1.10045,0.78392 2.39306,0.55996 0.74484,-0.12906 2.04446,-0.52208 2.88804,-0.87338 z m -40.268777,-6.26284 c 1.425174,-0.68997 4.826,-3.3701 4.826,-3.80328 0,-0.13157 -0.35167,0.0567 -0.781488,0.41837 -0.429819,0.36166 -0.878854,0.65757 -0.997857,0.65757 -0.119003,0 -0.367409,0.14969 -0.552012,0.33263 -0.492508,0.48809 -3.935155,1.85474 -5.491645,2.18005 -0.740301,0.15473 -1.820436,0.28132 -2.4003,0.28132 -0.636134,0 -0.958592,0.091 -0.812998,0.22935 0.816388,0.77594 4.343361,0.60783 6.2103,-0.29601 z m 0.125428,-3.463 c 1.397864,-0.7004 2.963296,-1.66651 3.478737,-2.1469 0.515441,-0.48039 1.000515,-0.81009 1.077943,-0.73266 0.07743,0.0774 0.341503,-0.0348 0.586835,-0.24942 0.245331,-0.21461 1.074707,-0.74624 1.843057,-1.18139 1.633577,-0.92518 1.251762,-1.00892 -1.179745,-0.25875 -2.266089,0.69914 -3.628746,1.34322 -5.805255,2.74391 -2.458806,1.58237 -3.842266,2.2547 -5.379396,2.61427 -1.886953,0.4414 -1.368548,0.80242 0.905291,0.63045 1.651867,-0.12493 2.298309,-0.3301 4.472533,-1.41951 z m 21.19437,0.46066 c 2.293479,-0.6315 4.958539,-1.90749 6.870909,-3.28968 l 1.39371,-1.00732 -1.26671,-0.0198 -1.26671,-0.0198 1.54796,-0.55166 c 1.68066,-0.59897 2.68091,-1.183 3.64035,-2.12555 l 0.6163,-0.60545 -1.1243,0.15345 -1.12431,0.15345 1.016,-0.6477 c 0.5588,-0.35623 1.15888,-0.84261 1.3335,-1.08083 0.41205,-0.56211 0.40586,-1.64212 -0.0127,-2.21452 -0.30851,-0.42191 -0.34903,-0.41023 -0.61704,0.17799 -0.41466,0.91008 -2.63563,1.89685 -5.02176,2.23114 -1.26335,0.17699 -3.30243,0.21896 -5.390466,0.11094 -3.710986,-0.19197 -5.145461,0.0623 -7.055535,1.25051 l -1.016,0.63204 1.22149,0.008 c 0.67182,0.004 1.161152,-0.0897 1.087406,-0.20902 -0.07375,-0.11933 0.405283,-0.11195 1.06451,0.0164 2.347849,0.45708 3.878475,0.99837 4.565555,1.61456 l 0.697039,0.62512 -1.397,-0.13476 c -0.76835,-0.0741 -1.7399,-0.19189 -2.159,-0.26172 -0.688208,-0.11466 -0.714252,-0.0958 -0.268931,0.1947 2.338502,1.52553 2.149894,3.0646 -0.588364,4.80115 l -1.147162,0.72751 h 1.240027 c 0.682014,0 2.104567,-0.23805 3.161228,-0.529 z m -28.051397,-1.67895 c 2.131372,-0.52963 4.157512,-1.41821 7.128188,-3.12613 5.407808,-3.10909 8.890087,-4.54721 13.827411,-5.71049 1.60655,-0.37852 2.97815,-0.74905 3.048,-0.8234 0.06985,-0.0744 -0.840833,-0.0533 -2.023739,0.0467 -2.662325,0.22511 -6.154656,1.09564 -9.083555,2.26423 -2.030056,0.80997 -2.160099,0.83409 -1.465706,0.27186 0.4191,-0.33933 1.7907,-1.14772 3.048,-1.79641 2.152426,-1.11054 2.22012,-1.16939 1.158531,-1.00724 -1.608994,0.24576 -3.465798,1.31373 -7.381531,4.2456 -5.386868,4.03338 -7.762946,4.94017 -12.827,4.89521 -2.322505,-0.0206 -3.425862,-0.15032 -4.6355,-0.54487 -0.873125,-0.28479 -1.5875,-0.4835 -1.5875,-0.44157 0,0.18052 2.243741,1.3534 3.150136,1.64669 2.410157,0.77986 4.729723,0.8041 7.644265,0.0799 z m 44.566246,-0.90031 c -0.5887,-0.4767 -2.86828,-1.71774 -3.1552,-1.71774 -0.0745,0 0.32175,0.4572 0.88055,1.016 0.5588,0.5588 1.016,1.10735 1.016,1.219 0,0.11165 0.42243,0.15368 0.93873,0.0934 l 0.93873,-0.10959 z m -25.383803,-2.17858 0.569122,-0.46085 -0.890676,0.10398 c -0.712197,0.0831 -0.973297,-0.014 -1.302983,-0.48467 -0.407356,-0.58158 -0.412307,-0.58212 -0.412307,-0.0449 0,1.38407 0.925104,1.78668 2.036844,0.88645 z m -17.603872,-1.09476 c 1.074317,-0.39434 1.863174,-0.93881 2.930528,-2.02265 1.638459,-1.66377 1.998003,-2.55446 0.476151,-1.17956 -1.359987,1.22867 -2.932266,2.09867 -4.730651,2.61765 -1.564912,0.4516 -4.452472,0.5648 -5.990694,0.23486 -1.381152,-0.29626 -0.642431,0.1625 0.839499,0.52134 2.14625,0.5197 4.782109,0.44983 6.475167,-0.17164 z m 9.726748,-6.08988 0.868949,-0.66048 -0.589514,-0.3155 c -0.528961,-0.28309 -0.680323,-0.22829 -1.473566,0.53348 -0.866471,0.8321 -3.079525,3.52546 -3.51509,4.27798 -0.121289,0.20955 0.693154,-0.4191 1.809873,-1.397 1.116719,-0.9779 2.421425,-2.07521 2.899348,-2.43848 z m 23.260167,0.85098 c 0.4456,-0.67617 0.4648,-0.68105 0.60071,-0.15276 0.13491,0.52438 0.17739,0.53089 1.08568,0.16622 l 0.94527,-0.37952 -0.50077,-0.9816 c -0.27543,-0.53988 -0.50078,-1.15375 -0.50078,-1.36415 0,-0.31605 -0.1497,-0.29422 -0.86117,0.12555 -0.47365,0.27946 -1.43258,0.57578 -2.13097,0.6585 -1.60324,0.18988 -3.955356,-0.33014 -3.762811,-0.8319 0.07425,-0.19351 0.01862,-0.35184 -0.123632,-0.35184 -0.487673,0 -1.695832,0.74316 -1.846509,1.13582 -0.294228,0.76674 0.576392,2.1128 1.613095,2.49399 0.20955,0.0771 1.425127,0.14911 2.701287,0.16014 2.25991,0.0195 2.33227,0.002 2.7806,-0.67845 z m -13.620971,-2.48953 c 0.901954,-0.21259 2.317901,-0.69079 3.146551,-1.06266 l 1.506634,-0.67614 -0.857789,-0.28881 c -0.756168,-0.2546 -1.038663,-0.20432 -2.384551,0.42448 -2.92547,1.36678 -7.363253,1.50717 -11.194443,0.35415 -1.628366,-0.49006 -1.723457,-0.31095 -0.195928,0.36906 2.843768,1.26595 6.844925,1.61874 9.979526,0.87992 z m 12.838081,-0.62197 c 0.0972,-0.15731 -0.35632,-0.25251 -1.19151,-0.25011 -0.96433,0.003 -1.23995,0.074 -0.96749,0.25011 0.50069,0.32357 1.95903,0.32357 2.159,0 z m 4.191,-0.53517 c 0,-0.29022 -0.68878,-0.29678 -0.8671,-0.008 -0.0743,0.12021 -0.0699,0.28379 0.01,0.3635 0.19821,0.19821 0.85726,-0.0749 0.85726,-0.35525 z m 1.05716,-2.36271 c 1.02511,-0.19683 2.65205,-0.65519 3.61542,-1.01857 1.74983,-0.66003 4.58246,-2.15317 4.41068,-2.32496 -0.05,-0.05 -0.80062,0.19579 -1.66807,0.54617 -7.05352,2.84904 -15.16658,2.63654 -21.131187,-0.55349 -0.90805,-0.48565 -1.36525,-0.6507 -1.016,-0.36678 0.959643,0.78014 5.008793,2.70723 6.725044,3.20062 3.129933,0.89978 6.168133,1.07308 9.064113,0.51701 z m -1.11157,-2.56532 c 0.13633,-0.10949 -1.60674,-0.85563 -2.3645,-1.01214 -1.16526,-0.24068 -4.0131,-0.6229 -4.43909,-0.59578 -0.20955,0.0133 0.3048,0.16279 1.143,0.33211 l 1.524,0.30786 -1.27,0.18755 c -2.489346,0.36764 -2.693606,0.57186 -0.762,0.76188 0.9779,0.0962 2.0066,0.2068 2.286,0.2458 0.51035,0.0712 3.74682,-0.11823 3.88259,-0.22728 z m -12.635049,-3.36329 c 0.167165,-0.52388 0.646882,-1.524 1.066039,-2.2225 l 0.762104,-1.27 -0.6908,0.635 c -0.764574,0.70281 -2.231043,3.40417 -1.982777,3.65243 0.331801,0.3318 0.551954,0.1248 0.845434,-0.79493 z"
         clip-path="url(#clipPath61)"
         transform="translate(1.2893224,-76.643055)" /></g></g></svg>
