<?xml version="1.0" encoding="UTF-8" standalone="no"?>
<!-- Created with Inkscape (http://www.inkscape.org/) -->

<svg
   width="105.83334mm"
   height="105.83334mm"
   viewBox="0 0 105.83333 105.83333"
   version="1.1"
   id="svg1"
   xml:space="preserve"
   inkscape:version="1.4 (e7c3feb100, 2024-10-09)"
   sodipodi:docname="okc.svg"
   inkscape:export-filename="../pngs/denver.png"
   inkscape:export-xdpi="96"
   inkscape:export-ydpi="96"
   xmlns:inkscape="http://www.inkscape.org/namespaces/inkscape"
   xmlns:sodipodi="http://sodipodi.sourceforge.net/DTD/sodipodi-0.dtd"
   xmlns="http://www.w3.org/2000/svg"
   xmlns:svg="http://www.w3.org/2000/svg"><sodipodi:namedview
     id="namedview1"
     pagecolor="#ffffff"
     bordercolor="#000000"
     borderopacity="0.25"
     inkscape:showpageshadow="2"
     inkscape:pageopacity="0.0"
     inkscape:pagecheckerboard="0"
     inkscape:deskcolor="#d1d1d1"
     inkscape:document-units="mm"
     inkscape:zoom="0.86309227"
     inkscape:cx="377.71164"
     inkscape:cy="59.089858"
     inkscape:window-width="1920"
     inkscape:window-height="1011"
     inkscape:window-x="0"
     inkscape:window-y="32"
     inkscape:window-maximized="1"
     inkscape:current-layer="layer1"
     showgrid="false"
     showguides="true" /><defs
     id="defs1"><filter
       id="mask-powermask-path-effect61_inverse"
       inkscape:label="filtermask-powermask-path-effect61"
       style="color-interpolation-filters:sRGB"
       height="100"
       width="100"
       x="-50"
       y="-50"><feColorMatrix
         id="mask-powermask-path-effect61_primitive1"
         values="1"
         type="saturate"
         result="fbSourceGraphic" /><feColorMatrix
         id="mask-powermask-path-effect61_primitive2"
         values="-1 0 0 0 1 0 -1 0 0 1 0 0 -1 0 1 0 0 0 1 0 "
         in="fbSourceGraphic" /></filter><clipPath
       clipPathUnits="userSpaceOnUse"
       id="clipPath61"><path
         style="fill:none;fill-opacity:1;stroke:#1a1a1a;stroke-width:0.3;stroke-dasharray:none;stroke-opacity:1"
         d="m 19.343363,137.48906 1.575839,2.57864 -1.432581,4.72752 -0.859548,2.14887 -0.573032,3.58145 2.005613,2.43539 62.460506,-10.02807 2.148872,-6.30335 2.721904,-5.87358 -26.932515,3.72471 -6.446612,0.85955 -0.143256,-3.86797 -5.730322,0.71629 -1.146067,2.57864 -4.154482,1.43258 -3.867967,2.14888 -7.019645,0.14326 -1.432581,-2.57865 z"
         id="path61" /></clipPath></defs><g
     inkscape:label="Capa 1"
     inkscape:groupmode="layer"
     id="layer1"><g
       id="g12"><circle
         style="fill:#002d62;fill-opacity:1;stroke:none;stroke-width:1.66"
         id="path5-4"
         cx="52.916672"
         cy="52.916672"
         r="50.887764" /><circle
         style="fill:#007ac1;fill-opacity:1;stroke:none;stroke-width:1.52649"
         id="path5"
         cx="52.916672"
         cy="52.916672"
         r="46.794914" /><path
         style="-inkscape-font-specification:'Gaming Sporty';fill:#ffffff"
         d="m 23.335937,41.605469 c -1.566672,0 -3.050039,0.309159 -4.396484,0.9375 l -0.0039,0.002 -0.0039,0.002 c -1.306384,0.619979 -2.45171,1.496492 -3.400391,2.599609 l -0.002,0.002 c -0.920375,1.073772 -1.624103,2.309148 -2.101563,3.673829 -0.478777,1.349282 -0.716796,2.7843 -0.716796,4.279296 0,1.512419 0.237268,2.957197 0.716796,4.308594 0.47746,1.364681 1.181188,2.600057 2.101563,3.673828 l 0.0059,0.0059 0.0039,0.0059 c 0.9487,1.081076 2.091709,1.943185 3.392578,2.560547 l 0.0039,0.002 0.0039,0.002 c 1.346445,0.628341 2.829812,0.9375 4.396484,0.9375 h 5.492188 c 1.549714,0 3.023297,-0.310351 4.367187,-0.9375 l 0.0039,-0.002 0.0039,-0.002 c 1.300869,-0.617362 2.443878,-1.479471 3.392578,-2.560547 l 0.0098,-0.01172 0.0098,-0.01172 c 0.895418,-1.070135 1.59326,-2.295533 2.087891,-3.650391 l 0.0039,-0.0059 0.002,-0.0059 c 0.479528,-1.351397 0.714844,-2.796175 0.714844,-4.308594 0,-1.492894 -0.235466,-2.925812 -0.712891,-4.273437 -0.477497,-1.367378 -1.183565,-2.604133 -2.105468,-3.679688 l -0.002,-0.002 c -0.948681,-1.103117 -2.094006,-1.97963 -3.400391,-2.599609 l -0.0039,-0.002 -0.0039,-0.002 c -1.34389,-0.627149 -2.817473,-0.9375 -4.367187,-0.9375 z m 17.205079,0 v 22.992187 h 8.43164 v -6.351562 l 1.84375,-1.357422 7.460938,7.708984 H 69.976562 L 57.566406,51.898437 71.5625,41.605469 H 57.884766 l -8.91211,6.484375 v -6.484375 z m 36.507812,0 c -1.566672,0 -3.050039,0.309159 -4.396484,0.9375 l -0.0039,0.002 -0.0039,0.002 c -1.306385,0.619979 -2.451709,1.496492 -3.40039,2.599609 l -0.002,0.002 c -0.920375,1.073772 -1.624102,2.309148 -2.101562,3.673829 -0.478778,1.349282 -0.716797,2.7843 -0.716797,4.279296 0,1.512419 0.237269,2.957197 0.716797,4.308594 0.47746,1.364681 1.181187,2.600056 2.101562,3.673828 l 0.0059,0.0059 0.0039,0.0059 c 0.9487,1.081076 2.091709,1.943185 3.392578,2.560547 l 0.0039,0.002 0.0039,0.002 c 1.346445,0.628341 2.829812,0.9375 4.396484,0.9375 h 13.646496 v -8.49055 H 77.048828 c -0.502194,0 -0.796258,-0.10565 -1.029297,-0.273438 l -0.0059,-0.0039 -0.0059,-0.0039 C 75.678,55.594151 75.42144,55.28773 75.201091,54.857434 c -0.221054,-0.507884 -0.345703,-1.075898 -0.345703,-1.75586 0,-0.684474 0.123759,-1.257186 0.347656,-1.767578 0.223164,-0.451639 0.479664,-0.757035 0.779297,-0.980468 0.225688,-0.14922 0.538287,-0.257813 1.066406,-0.257813 h 13.646484 v -8.490234 z m -53.712891,2.648437 h 5.492188 c 1.200238,0 2.263896,0.232616 3.244141,0.689453 0.977737,0.464837 1.807052,1.096681 2.523437,1.929688 0.705102,0.82294 1.2404,1.754736 1.615234,2.828125 v 0.0039 l 0.002,0.0039 c 0.373748,1.053292 0.5625,2.174991 0.5625,3.392578 0,1.236051 -0.189256,2.366894 -0.560547,3.416016 -0.394607,1.079459 -0.935342,2.017082 -1.623047,2.841797 -0.713796,0.810029 -1.541501,1.435441 -2.519531,1.900391 -0.980245,0.456837 -2.043903,0.689453 -3.244141,0.689453 h -5.492188 c -1.222017,0 -2.295708,-0.233792 -3.273437,-0.689453 C 19.08149,60.793365 18.250495,60.16719 17.535202,59.353504 16.832357,58.531867 16.2979,57.602312 15.923874,56.531238 v -0.0039 l -0.002,-0.002 c -0.372999,-1.051178 -0.5625,-2.184912 -0.5625,-3.423829 0,-1.217587 0.188751,-2.339286 0.5625,-3.392578 l 0.002,-0.0039 v -0.0039 c 0.374835,-1.073389 0.910133,-2.005185 1.615234,-2.828125 0.716387,-0.833007 1.545701,-1.464851 2.523438,-1.929688 0.977729,-0.455661 2.05142,-0.689453 3.273437,-0.689453 z m 19.853516,0 h 3.134766 v 9.03711 l 12.421875,-9.03711 h 4.748047 l -9.951172,7.31836 10.142578,10.376953 h -4.285156 l -8.291016,-8.566407 -4.785156,3.525391 v 5.041016 h -3.134766 z m 33.859375,0 h 10.998047 v 3.19336 H 77.048828 c -0.933711,0 -1.833841,0.217871 -2.576172,0.722656 l -0.01758,0.01367 -0.01953,0.01367 c -0.694128,0.507247 -1.241542,1.198986 -1.63086,2.001953 l -0.0098,0.01953 -0.0078,0.01953 c -0.391315,0.88046 -0.580078,1.85027 -0.580078,2.863281 0,1.013011 0.188763,1.982822 0.580078,2.863282 l 0.01172,0.02734 0.01367,0.02734 c 0.395094,0.790187 0.960609,1.468602 1.666016,1.966797 0.734841,0.527204 1.640851,0.769531 2.570312,0.769531 h 10.998047 v 3.19336 H 77.048828 c -1.222017,0 -2.295709,-0.233792 -3.273437,-0.689453 -0.981057,-0.466389 -1.812053,-1.092564 -2.527344,-1.90625 -0.702846,-0.821637 -1.237302,-1.751193 -1.611328,-2.822266 v -0.0039 l -0.002,-0.002 c -0.372999,-1.051178 -0.5625,-2.184912 -0.5625,-3.423829 0,-1.217587 0.188751,-2.339286 0.5625,-3.392578 l 0.002,-0.0039 v -0.0039 c 0.374834,-1.073389 0.910132,-2.005185 1.615234,-2.828125 0.716386,-0.833007 1.5457,-1.464851 2.523438,-1.929688 0.977728,-0.455661 2.05142,-0.689453 3.273437,-0.689453 z m -53.712891,3.19336 c -0.933711,0 -1.833841,0.217871 -2.576171,0.722656 l -0.01758,0.01367 -0.01953,0.01367 c -0.694129,0.507247 -1.241542,1.198986 -1.630859,2.001953 l -0.0098,0.01953 -0.0078,0.01953 c -0.391315,0.88046 -0.580078,1.85027 -0.580078,2.863281 0,1.013011 0.188763,1.982822 0.580078,2.863282 l 0.01172,0.02734 0.01367,0.02734 c 0.395093,0.790187 0.960609,1.468602 1.666016,1.966797 0.734842,0.527204 1.640851,0.769531 2.570312,0.769531 h 5.492188 c 0.928813,0 1.833791,-0.243092 2.568359,-0.769531 0.712133,-0.502725 1.277845,-1.194949 1.654297,-1.998047 l 0.002,-0.0059 0.002,-0.0059 c 0.399215,-0.87328 0.585938,-1.846179 0.585938,-2.875 0,-1.02882 -0.186723,-2.001719 -0.585938,-2.875 C 32.679895,49.402874 32.115698,48.692311 31.39265,48.1835 l -0.0098,-0.0078 -0.0078,-0.0059 c -0.735543,-0.500169 -1.627203,-0.722656 -2.546875,-0.722656 z m 0,2.648437 h 5.492188 c 0.509434,0 0.816319,0.105513 1.048828,0.261719 0.317782,0.226022 0.56519,0.517245 0.769531,0.966797 v 0.002 0.002 c 0.220806,0.483011 0.345703,1.058454 0.345703,1.773437 0,0.712563 -0.124343,1.287524 -0.34375,1.769532 -0.203151,0.430727 -0.449751,0.723175 -0.779296,0.955078 l -0.0059,0.0039 -0.0059,0.0039 c -0.233038,0.167788 -0.527102,0.273438 -1.029297,0.273438 h -5.492188 c -0.502194,0 -0.796258,-0.10565 -1.029296,-0.273438 l -0.0059,-0.0039 -0.0059,-0.0039 c -0.329731,-0.232033 -0.586292,-0.538454 -0.806641,-0.96875 -0.221053,-0.507884 -0.345703,-1.075898 -0.345703,-1.75586 0,-0.684474 0.12376,-1.257186 0.347656,-1.767578 0.222675,-0.450649 0.478557,-0.755217 0.777344,-0.978515 0.225837,-0.150123 0.538207,-0.259766 1.068359,-0.259766 z"
         id="path10" /><path
         style="-inkscape-font-specification:'Gaming Sporty';fill:#ef3b24"
         d="m 37.460347,49.26547 q 0.639394,1.801931 0.639394,3.836369 0,2.063501 -0.639394,3.865432 -0.668459,1.830994 -1.860058,3.255101 -1.249726,1.424106 -2.964467,2.237882 -1.743804,0.813775 -3.807305,0.813775 h -5.492983 q -2.092565,0 -3.836369,-0.813775 -1.71474,-0.813776 -2.964467,-2.237882 -1.220662,-1.424107 -1.860057,-3.255101 -0.639395,-1.801931 -0.639395,-3.865432 0,-2.034438 0.639395,-3.836369 0.639395,-1.830994 1.860057,-3.255101 1.249727,-1.45317 2.964467,-2.266945 1.743804,-0.813775 3.836369,-0.813775 h 5.492983 q 2.063501,0 3.807305,0.813775 1.714741,0.813775 2.964467,2.266945 1.220663,1.424107 1.860058,3.255101 z m -5.609237,6.161441 q 0.465015,-1.017219 0.465015,-2.325072 0,-1.307853 -0.465015,-2.325072 -0.435951,-0.959093 -1.220662,-1.511297 -0.726585,-0.494078 -1.801931,-0.494078 h -5.492983 q -1.104409,0 -1.830994,0.494078 -0.755649,0.552204 -1.220663,1.511297 -0.465014,1.046282 -0.465014,2.325072 0,1.278789 0.465014,2.325072 0.465014,0.930029 1.249726,1.482233 0.726585,0.523141 1.801931,0.523141 h 5.492983 q 1.075346,0 1.801931,-0.523141 0.784711,-0.552204 1.220662,-1.482233 z m 35.677147,-12.497262 -11.974121,8.80621 11.276599,11.53817 H 58.8383 l -7.876181,-8.137752 -3.313228,2.441325 v 5.696427 h -5.783617 v -20.34438 h 5.783617 v 7.759927 l 10.666268,-7.759927 z m 7.689078,6.335821 q -0.755648,0.552204 -1.220663,1.511297 -0.465014,1.046282 -0.465014,2.325072 0,1.278789 0.465014,2.325072 0.465015,0.930029 1.249727,1.482233 0.726585,0.523141 1.80193,0.523141 h 12.322882 v 5.841744 H 77.048329 q -2.092564,0 -3.836368,-0.813775 -1.714741,-0.813776 -2.964467,-2.237882 -1.220663,-1.424107 -1.860058,-3.255101 -0.639395,-1.801931 -0.639395,-3.865432 0,-2.034438 0.639395,-3.836369 0.639395,-1.830994 1.860058,-3.255101 1.249726,-1.45317 2.964467,-2.266945 1.743804,-0.813775 3.836368,-0.813775 h 12.322882 v 5.841743 H 77.048329 q -1.104409,0 -1.830994,0.494078 z"
         id="path9" /><path
         style="fill:#fdbb30;fill-opacity:1;stroke-width:0.882778"
         d="m 50.658335,45.816589 c 0.0052,-0.01641 1.000378,-2.720199 2.211532,-6.008404 2.380919,-6.464053 3.860472,-10.487155 3.990562,-10.850904 0.04509,-0.126016 0.17901,-0.489213 0.297648,-0.807115 0.29821,-0.799056 0.3032,-0.812746 0.302706,-0.830722 -6.27e-4,-0.0087 -3.295599,0.075 -7.323024,0.186195 -4.027415,0.111193 -7.32276,0.195396 -7.322984,0.187121 -5.52e-4,-0.0083 0.04157,-0.122606 0.09288,-0.254069 0.05131,-0.131464 0.11642,-0.301801 0.144696,-0.378526 0.0283,-0.07673 0.23143,-0.606056 0.451459,-1.17629 0.220029,-0.570235 0.43595,-1.130985 0.479836,-1.246112 0.110254,-0.289238 0.179694,-0.4698 0.532878,-1.38566 0.169158,-0.43864 0.343407,-0.891721 0.387221,-1.006847 0.04378,-0.115121 0.126464,-0.330448 0.18367,-0.478491 0.05718,-0.14804 0.131318,-0.340939 0.1647,-0.428654 0.10607,-0.278752 0.579432,-1.508508 0.648485,-1.684739 0.03651,-0.09322 0.09353,-0.241265 0.12666,-0.328973 0.03309,-0.08771 0.105222,-0.27611 0.160197,-0.418667 0.055,-0.142561 0.160362,-0.416204 0.234173,-0.608102 0.07382,-0.191901 0.249988,-0.649472 0.391491,-1.016828 0.141503,-0.367356 0.284588,-0.739687 0.31797,-0.827402 0.03335,-0.08771 0.107492,-0.28061 0.1647,-0.428655 0.05718,-0.148038 0.139856,-0.363363 0.183688,-0.47849 0.04378,-0.11512 0.176729,-0.460547 0.295345,-0.7676 0.118617,-0.307052 0.243011,-0.630047 0.276429,-0.717762 0.03344,-0.08772 0.107572,-0.280613 0.164771,-0.428656 0.05718,-0.148039 0.139855,-0.363365 0.18367,-0.478492 0.04378,-0.115121 0.259531,-0.675871 0.479381,-1.246102 0.219841,-0.570228 0.426851,-1.10854 0.460019,-1.196251 0.03318,-0.08771 0.24031,-0.626027 0.460329,-1.1962603 0.22002,-0.5702337 0.418437,-1.0861188 0.440923,-1.1464098 0.03407,-0.091309 0.53199,-1.3849548 0.924726,-2.4024964 0.055,-0.1425569 0.122039,-0.3197234 0.148916,-0.3936975 l 0.04889,-0.1345023 9.171885,-0.2532218 9.171896,-0.2532241 -0.04347,0.065304 c -0.0239,0.035918 -2.404285,3.4015299 -5.289708,7.4791312 l -5.246227,7.41382 8.224715,-0.222117 c 4.523599,-0.122166 8.231775,-0.215444 8.240396,-0.207285 0.0086,0.0081 -5.60012,5.948345 -12.46388,13.200416 -6.86376,7.25207 -12.475315,13.172149 -12.470122,13.155733 z"
         id="path4" /><path
         style="fill:#ef3b24;fill-opacity:1;stroke-width:0.882778"
         d="m 50.840287,45.61011 c 0.05151,-0.151765 0.138661,-0.389821 0.295488,-0.807056 0.08044,-0.214039 0.156643,-0.421152 0.256614,-0.69749 0.09869,-0.272801 0.211654,-0.579392 0.293707,-0.797142 0.07929,-0.210417 0.154171,-0.413782 0.256801,-0.697495 0.09869,-0.272802 0.211653,-0.579393 0.293715,-0.797145 0.07929,-0.210417 0.154163,-0.413779 0.2568,-0.697494 0.09869,-0.272802 0.211654,-0.579393 0.293707,-0.797143 0.07929,-0.210417 0.154164,-0.41378 0.256801,-0.697495 0.09869,-0.272802 0.211654,-0.579392 0.293706,-0.797143 0.0793,-0.210419 0.154172,-0.413781 0.256809,-0.697496 0.140731,-0.389011 0.310103,-0.846591 0.465821,-1.258453 0.05655,-0.149599 0.102678,-0.277725 0.102483,-0.284721 -3.21e-4,-0.007 0.03619,-0.108786 0.08094,-0.226218 0.04472,-0.117427 0.124065,-0.330077 0.176349,-0.472561 0.05233,-0.14249 0.134855,-0.366679 0.183478,-0.498212 0.0486,-0.131529 0.131204,-0.355729 0.183505,-0.498213 0.05233,-0.142488 0.134874,-0.366679 0.183506,-0.498213 0.04861,-0.13153 0.131195,-0.355727 0.183496,-0.498212 0.05233,-0.142488 0.134883,-0.366679 0.183506,-0.498212 0.04861,-0.131529 0.131203,-0.35573 0.183505,-0.498214 0.05233,-0.142488 0.134882,-0.366679 0.183506,-0.498212 0.04861,-0.131531 0.131202,-0.35573 0.183505,-0.498214 0.05233,-0.142488 0.134872,-0.366678 0.183496,-0.498211 0.04861,-0.131531 0.131204,-0.355729 0.183506,-0.498214 0.05233,-0.142488 0.134881,-0.366679 0.183505,-0.498212 0.04861,-0.13153 0.13115,-0.355727 0.183398,-0.49821 0.05224,-0.142482 0.12767,-0.345172 0.167618,-0.45042 0.03995,-0.105245 0.08783,-0.244159 0.10638,-0.308688 0.0186,-0.06454 0.13021,-0.372975 0.248101,-0.685432 0.117883,-0.312456 0.237639,-0.635322 0.266109,-0.717477 0.0285,-0.08215 0.08025,-0.221173 0.115069,-0.308927 l 0.06331,-0.159556 2.742653,-0.08072 c 1.832671,-0.05393 2.742842,-0.07413 2.74321,-0.06086 1.32e-4,0.011 -0.19196,0.432916 -0.427236,0.937757 l -0.427785,0.91789 -0.07287,0.0081 -0.07287,0.0081 -1.853171,3.463736 c -1.019247,1.905056 -1.894884,3.540341 -1.945864,3.633966 -0.05095,0.09362 -0.246688,0.458534 -0.434892,0.810904 -0.538749,1.008669 -0.976233,1.826507 -1.365854,2.553356 l -0.359874,0.671353 -2.663889,2.814841 -2.663881,2.814839 z m -7.91122,-17.950128 c -1.69e-4,-0.0061 0.02826,-0.08456 0.06311,-0.174413 0.03486,-0.08986 0.108351,-0.280028 0.163264,-0.422585 0.05492,-0.142557 0.14308,-0.371343 0.195938,-0.508419 0.05283,-0.137069 0.135713,-0.3524 0.184125,-0.478504 0.0484,-0.1261 0.131134,-0.341425 0.183848,-0.478497 0.05274,-0.137076 0.13202,-0.343422 0.176245,-0.45856 0.105738,-0.275295 0.256839,-0.667873 0.376024,-0.976948 0.106964,-0.277385 0.233695,-0.606842 0.371958,-0.966974 0.24634,-0.64166 0.375508,-0.977484 0.548283,-1.425537 0.05283,-0.137069 0.137506,-0.356888 0.188101,-0.488475 0.05056,-0.131582 0.133415,-0.346914 0.184027,-0.478502 0.05066,-0.131596 0.131621,-0.342425 0.180033,-0.468529 0.09696,-0.252587 0.221232,-0.575627 0.368162,-0.957004 0.111915,-0.290481 0.243954,-0.633803 0.368052,-0.957003 0.0484,-0.126098 0.131179,-0.341427 0.183911,-0.478499 0.05274,-0.137074 0.133475,-0.347901 0.179445,-0.468512 0.04596,-0.120607 0.124078,-0.319995 0.173576,-0.443077 0.04947,-0.123076 0.08985,-0.229026 0.08968,-0.23543 -2.3e-4,-0.0064 0.04591,-0.130011 0.10238,-0.274672 0.05651,-0.144671 0.140469,-0.361714 0.186626,-0.482329 0.04613,-0.120611 0.124319,-0.320314 0.173679,-0.443773 0.0494,-0.123465 0.0896,-0.22958 0.08943,-0.235825 -5.56e-4,-0.01337 0.15947,-0.428214 0.252887,-0.656281 0.03594,-0.08779 0.0838,-0.21338 0.106323,-0.279098 0.02252,-0.06572 0.07987,-0.218203 0.127461,-0.338858 0.04756,-0.120651 0.124212,-0.318056 0.170281,-0.43867 0.04604,-0.12061 0.1153,-0.300058 0.153851,-0.398764 0.03851,-0.0987 0.12104,-0.314026 0.183305,-0.478482 0.06227,-0.164457 0.142728,-0.370841 0.178804,-0.458631 0.03611,-0.0878 0.08402,-0.213388 0.10654,-0.279104 0.02252,-0.06572 0.07987,-0.218203 0.127462,-0.33886 0.04756,-0.120649 0.124213,-0.318056 0.170281,-0.43867 0.04604,-0.120608 0.115426,-0.30006 0.154128,-0.398771 0.03868,-0.09871 0.120879,-0.314019 0.182608,-0.478462 0.06174,-0.164444 0.138375,-0.361844 0.170317,-0.4386721 0.03195,-0.076833 0.08004,-0.2024261 0.106884,-0.2791142 0.04811,-0.1374076 0.11956,-0.3215308 0.296059,-0.7627633 0.0494,-0.1234621 0.08957,-0.2321992 0.08931,-0.2416441 1.22e-4,-0.00951 0.02947,-0.087905 0.06612,-0.1743505 0.03663,-0.086449 0.08579,-0.2109669 0.109234,-0.2767097 0.02349,-0.065751 0.08973,-0.2406665 0.147271,-0.388719 0.05753,-0.1480513 0.139945,-0.3633675 0.183089,-0.4784757 0.04315,-0.1151094 0.108603,-0.2825708 0.145441,-0.3721397 0.03688,-0.089567 0.06682,-0.1689788 0.06661,-0.1764639 -4.13e-4,-0.00745 0.0412,-0.1150188 0.09203,-0.2389634 0.05083,-0.1239457 0.09224,-0.2316066 0.09203,-0.2392522 -4.44e-4,-0.00768 0.03986,-0.1139667 0.08904,-0.2362597 0.04915,-0.1222931 0.125873,-0.3187058 0.170418,-0.4364615 l 0.08098,-0.2140979 2.744449,-0.075963 2.74444,-0.075963 -0.03783,0.1046033 c -0.02082,0.057533 -0.06112,0.1629469 -0.0896,0.2342541 -0.02845,0.071298 -0.09927,0.2552309 -0.157363,0.4087238 -0.05811,0.1534975 -0.149167,0.3912381 -0.202426,0.5283236 -0.135897,0.349775 -0.262541,0.6785364 -0.395566,1.0268043 -0.06282,0.1644712 -0.137259,0.3573746 -0.16543,0.4286726 -0.02817,0.071298 -0.09873,0.255216 -0.156811,0.4087089 -0.05811,0.1534964 -0.149176,0.3912381 -0.202434,0.5283248 -0.135888,0.3497726 -0.262542,0.6785352 -0.395557,1.0268019 -0.06283,0.1644736 -0.137269,0.3573756 -0.165431,0.4286726 -0.02817,0.0713 -0.09874,0.255218 -0.156819,0.40871 -0.05811,0.153498 -0.149176,0.391239 -0.202436,0.528325 -0.192443,0.495336 -0.502635,1.300737 -0.671904,1.744563 -0.05855,0.153505 -0.140968,0.368821 -0.183152,0.478477 -0.04214,0.109646 -0.104019,0.271144 -0.137403,0.358859 -0.03336,0.08771 -0.157972,0.410714 -0.276865,0.717776 -0.118884,0.307059 -0.251825,0.65248 -0.295417,0.7676 -0.117679,0.310759 -0.437427,1.14146 -0.767425,1.993773 -0.04032,0.104179 -0.08819,0.229777 -0.106323,0.279098 -0.027,0.0734 -0.502478,1.308171 -0.813827,2.113409 -0.04032,0.104191 -0.09323,0.243231 -0.117674,0.309 -0.02439,0.06576 -0.676146,1.761447 -1.448234,3.768172 l -1.403795,3.648589 -2.743769,0.08075 c -1.509072,0.04441 -2.743904,0.07579 -2.744072,0.06973 z"
         id="path3" /><path
         style="-inkscape-font-specification:'Gaming Sporty';fill:#ffffff"
         d="m 15.94922,65.402257 v 4.08203 h 7.7793 c 0.0734,0 0.0902,0.0118 0.0996,0.0176 l 0.004,0.002 0.002,0.002 c 0.0488,0.0293 0.0662,0.0492 0.0879,0.0898 l 0.008,0.0137 0.008,0.0137 c 0.0228,0.0381 0.0352,0.0719 0.0352,0.14844 0,0.0587 -0.0129,0.0986 -0.043,0.1543 -0.0351,0.0557 -0.067,0.0907 -0.11133,0.11914 -0.0318,0.0205 -0.0438,0.0254 -0.0898,0.0254 h -7.7793 v 6.39062 h 4.05469 v -2.32031 h 2.05273 l 2.37696,2.32031 h 5.67968 l -3.5508,-3.51766 c 0.38087,-0.34987 0.75527,-0.70897 0.99023,-1.17774 v -0.002 c 0.31403,-0.61789 0.47461,-1.29242 0.47461,-1.99219 0,-0.78203 -0.19349,-1.52786 -0.57422,-2.1914 -0.3761,-0.65551 -0.89468,-1.19243 -1.5332,-1.58203 l -0.004,-0.002 -0.004,-0.002 c -0.66289,-0.39107 -1.40653,-0.59166 -2.1836,-0.59166 z m 12.76953,0 v 5.5293 c 0,0.74759 0.13719,1.46275 0.41211,2.1289 l 0.002,0.004 v 0.004 c 0.27963,0.65249 0.66326,1.24138 1.14258,1.75196 l 0.002,0.002 0.002,0.002 c 0.49436,0.51539 1.07743,0.92069 1.73047,1.20507 v 0.002 h 0.002 c 0.66668,0.28573 1.38265,0.42969 2.125,0.42969 h 0.83789 c 0.73418,0 1.44381,-0.14444 2.10937,-0.42969 h 0.002 l 0.002,-0.002 c 0.6504,-0.28324 1.23046,-0.68088 1.72461,-1.18554 l 0.002,-0.004 0.002,-0.002 c 0.49112,-0.51202 0.8768,-1.1044 1.14844,-1.76172 0.28385,-0.67418 0.42773,-1.3953 0.42773,-2.14453 v -5.52934 h -4.05701 v 5.5293 c 0,0.2903 -0.0612,0.51168 -0.18555,0.71679 l -0.006,0.01 -0.006,0.01 c -0.12605,0.22556 -0.28936,0.39439 -0.50781,0.53516 -0.19734,0.11496 -0.40069,0.17383 -0.65625,0.17383 h -0.83789 c -0.25458,0 -0.45665,-0.0588 -0.65625,-0.1836 l -0.004,-0.002 -0.002,-0.002 c -0.21747,-0.13179 -0.38381,-0.29871 -0.51953,-0.52734 v -0.002 c -0.11806,-0.2058 -0.18152,-0.43383 -0.18152,-0.72844 v -5.5293 z m 12.39258,0 v 11.05859 h 4.05469 v -6.61914 c 0.11945,0.10234 0.25096,0.19282 0.33203,0.33789 0.12258,0.21937 0.18359,0.4566 0.18359,0.75196 v 5.52929 h 4.05469 v -5.52929 c 0,-0.29031 0.0632,-0.51364 0.1875,-0.71875 l 0.006,-0.008 0.004,-0.006 c 0.0888,-0.15533 0.21605,-0.24502 0.33398,-0.34961 v 6.61133 h 4.05469 v -11.05857 h -3.20899 c -0.97619,0 -1.90343,0.2588 -2.73437,0.76367 -0.24634,0.14796 -0.44595,0.34235 -0.66211,0.52149 -0.21578,-0.17806 -0.4177,-0.37153 -0.6582,-0.51954 l -0.002,-0.002 h -0.002 c -0.83094,-0.50487 -1.75819,-0.76367 -2.73438,-0.76367 z m 14.125,0 v 11.05859 h 8.53515 c 0.67484,0 1.32195,-0.17947 1.89258,-0.52539 l 0.002,-0.002 c 0.55355,-0.33269 1.00532,-0.7946 1.32617,-1.35742 v -0.002 c 0.33279,-0.5775 0.50586,-1.2243 0.50586,-1.89648 0,-0.79961 -0.24437,-1.55543 -0.70703,-2.19727 -0.14987,-0.21949 -0.34899,-0.38284 -0.53711,-0.55859 0.0483,-0.24373 0.11133,-0.48489 0.11133,-0.73828 0,-0.67283 -0.17244,-1.32051 -0.50586,-1.89844 v -0.002 l -0.002,-0.002 c -0.32871,-0.55881 -0.77601,-1.01832 -1.32031,-1.35156 v -0.002 h -0.002 c -0.57155,-0.34741 -1.22018,-0.52539 -1.89649,-0.52539 z m 12.71484,0 v 11.05859 h 10.49805 v -4.08398 h -6.44336 v -6.97461 z m 10.82617,0 v 3.49414 0.58789 6.97656 h 11.12891 v -4.08398 h -0.96484 v -2.89258 h 0.96484 v -4.08203 z m -61.55468,1.27344 h 6.50586 c 0.56262,0 1.05696,0.13457 1.52929,0.41211 0.4599,0.28114 0.81609,0.64642 1.0918,1.12695 0.27158,0.47333 0.4043,0.97815 0.4043,1.55664 0,0.51101 -0.11006,0.97204 -0.33594,1.41602 l -0.002,0.002 v 0.002 c -0.21821,0.43641 -0.51225,0.78504 -0.90039,1.07226 l -0.0195,0.0156 -0.0195,0.0176 c -0.042,0.0368 -0.0853,0.0656 -0.12891,0.0898 l -0.74023,0.41211 2.41015,2.38672 h -2.06451 l -2.37695,-2.32031 h -3.84571 v 2.32031 h -1.50781 v -3.8418 h 6.50586 c 0.27079,0 0.54826,-0.0793 0.77734,-0.22656 0.21362,-0.13732 0.39354,-0.32646 0.52344,-0.54297 l 0.004,-0.008 0.006,-0.008 c 0.1339,-0.23803 0.20703,-0.51324 0.20703,-0.78711 0,-0.27222 -0.0736,-0.5487 -0.21289,-0.78711 -0.12672,-0.23097 -0.31506,-0.43086 -0.53906,-0.5664 -0.2325,-0.14259 -0.50417,-0.20704 -0.76562,-0.20704 h -6.50586 z m 12.76953,0 H 31.5 v 4.25586 c 0,0.4874 0.11622,0.95648 0.35156,1.36523 v 0.002 l 0.002,0.004 c 0.23488,0.3993 0.56275,0.73129 0.95508,0.9707 0.39643,0.24734 0.85649,0.37696 1.32812,0.37696 h 0.83789 c 0.46684,0 0.92252,-0.12044 1.31836,-0.35547 l 0.008,-0.004 0.008,-0.006 c 0.38819,-0.24703 0.70561,-0.58656 0.93164,-0.98633 0.24498,-0.40798 0.3711,-0.87816 0.3711,-1.36719 v -4.25586 h 1.50781 v 4.25586 c 0,0.59134 -0.10976,1.13474 -0.32812,1.65234 v 0.002 l -0.002,0.004 c -0.21196,0.51359 -0.50494,0.96206 -0.88672,1.36133 -0.38181,0.38993 -0.81715,0.69019 -1.32227,0.91015 -0.50804,0.21746 -1.0357,0.32422 -1.60547,0.32422 h -0.83789 c -0.57956,0 -1.11272,-0.10774 -1.61914,-0.32422 -0.50077,-0.21807 -0.93379,-0.51821 -1.31445,-0.91406 l -0.002,-0.002 c -6.5e-4,-6.7e-4 -10e-4,-0.001 -0.002,-0.002 -0.37425,-0.39956 -0.66819,-0.85261 -0.89063,-1.36914 v -0.002 c -0.20905,-0.50739 -0.31628,-1.04691 -0.31628,-1.64052 z m 12.39258,0 h 1.93554 c 0.75708,0 1.43086,0.18841 2.07227,0.57812 0.3211,0.19785 0.61067,0.42708 0.87304,0.68946 l 0.45899,0.45703 0.44922,-0.46485 c 0.249,-0.25703 0.53537,-0.48294 0.86328,-0.67968 l 0.002,-0.002 c 0.64141,-0.38972 1.31714,-0.57813 2.07422,-0.57813 h 1.93554 v 8.50977 h -1.50781 v -7.02735 l -0.70117,0.0703 c -0.366,0.0366 -0.71891,0.15041 -1.03711,0.33399 l -0.006,0.004 -0.006,0.002 c -0.39638,0.24023 -0.72213,0.58281 -0.95703,0.99023 -0.24629,0.40872 -0.37109,0.88271 -0.37109,1.37305 v 4.2539 h -1.50758 v -4.25389 c 0,-0.48741 -0.11418,-0.95874 -0.34571,-1.37305 -0.23002,-0.41162 -0.56653,-0.7541 -0.9746,-0.99414 h -0.002 l -0.002,-0.002 c -0.31811,-0.18353 -0.67103,-0.29734 -1.03702,-0.33394 l -0.70117,-0.0703 v 7.02735 h -1.50781 z m 14.125,0 h 6.1289 c 0.45989,0 0.85397,0.11018 1.23242,0.33984 0.36893,0.22587 0.65827,0.52042 0.88868,0.91211 0.22353,0.38951 0.33203,0.794 0.33203,1.25586 0,0.26551 -0.0379,0.51098 -0.11133,0.74609 l -0.0293,0.0937 v 0.43946 l 0.26758,0.18945 c 0.19556,0.13969 0.36969,0.32001 0.52734,0.55273 l 0.006,0.008 0.006,0.008 c 0.31695,0.4377 0.46484,0.8989 0.46484,1.45704 0,0.46404 -0.10828,0.8705 -0.33398,1.26171 v 0.002 l -0.002,0.002 c -0.21903,0.38519 -0.50096,0.6748 -0.87695,0.90039 l -0.002,0.002 h -0.002 c -0.37896,0.23035 -0.77381,0.33985 -1.23438,0.33985 H 56.5099 Z m 12.71484,0 h 1.50781 v 6.97461 h 6.44336 v 1.53515 h -7.95117 z m 10.82617,0 h 8.58203 v 1.53515 h -8.58203 z m -22.0332,1.53515 v 1.94532 h 4.62109 c 0.23375,0 0.46876,-0.10436 0.625,-0.23829 l 0.0332,-0.0293 0.0312,-0.0332 c 0.15182,-0.1735 0.25586,-0.43009 0.25586,-0.67187 0,-0.24178 -0.11271,-0.51506 -0.28516,-0.6875 -0.15099,-0.15099 -0.39986,-0.28516 -0.66015,-0.28516 z m 22.0332,1.95899 h 7.61719 v 1.52148 h -6.10938 v 1.95899 h 7.07422 v 1.53515 h -8.58203 z m -22.0332,1.52148 v 1.95899 h 5.7539 c 0.26029,0 0.50916,-0.13416 0.66016,-0.28516 0.17243,-0.17243 0.2832,-0.44572 0.2832,-0.6875 0,-0.24178 -0.10208,-0.49642 -0.2539,-0.66992 l -0.0156,-0.0156 -0.0137,-0.0156 c -0.151,-0.151 -0.39987,-0.28516 -0.66016,-0.28516 z"
         id="path12" /><path
         style="-inkscape-font-specification:'Gaming Sporty';fill:#002d62;fill-opacity:1"
         d="m 25.65798,72.944372 2.90742,2.879468 h -3.8719 l -2.37626,-2.320348 h -2.94936 v 2.320348 h -2.78162 v -5.115948 h 7.14276 q 0.23762,0 0.43331,-0.125802 0.1957,-0.125802 0.3215,-0.335472 0.1258,-0.223648 0.1258,-0.475252 0,-0.265582 -0.1258,-0.475252 -0.11183,-0.20967 -0.3215,-0.335472 -0.18171,-0.111824 -0.43331,-0.111824 H 16.58626 V 66.03924 h 7.14276 q 1.00641,0 1.85907,0.503208 0.8247,0.503208 1.31393,1.355866 0.48923,0.852658 0.48923,1.873052 0,0.90857 -0.40536,1.705316 -0.39139,0.782768 -1.09028,1.299954 -0.11183,0.09785 -0.23763,0.167736 z M 36.97404,66.03924 h 2.78162 v 4.8923 q 0,1.006416 -0.37741,1.901008 -0.36342,0.880614 -1.02039,1.565536 -0.65697,0.670944 -1.5236,1.04835 -0.88062,0.377406 -1.85908,0.377406 H 34.1365 q -0.99243,0 -1.87305,-0.377406 -0.86663,-0.377406 -1.5236,-1.062328 -0.64299,-0.684922 -1.02039,-1.565536 -0.36343,-0.880614 -0.36343,-1.88703 v -4.8923 h 2.78162 v 4.8923 q 0,0.587076 0.26558,1.04835 0.27956,0.475252 0.74084,0.754812 0.44729,0.27956 0.99243,0.27956 h 0.83868 q 0.54515,0 0.99244,-0.265582 0.46128,-0.293538 0.72686,-0.76879 0.27956,-0.461274 0.27956,-1.04835 z m 14.13961,0 h 2.57196 v 9.7846 h -2.78163 v -6.961044 q -0.41934,0.04193 -0.78276,0.251604 -0.46128,0.27956 -0.74084,0.76879 -0.27956,0.461274 -0.27956,1.04835 v 4.8923 H 46.3192 v -4.8923 q 0,-0.587076 -0.26558,-1.062328 Q 45.78804,69.39396 45.31278,69.1144 44.94936,68.90473 44.53002,68.862796 v 6.961044 h -2.78163 v -9.7846 h 2.57196 q 1.29995,0 2.40421,0.670944 0.54514,0.335472 0.99244,0.782768 0.43332,-0.447296 0.99244,-0.782768 1.10426,-0.670944 2.40421,-0.670944 z m 15.16001,4.808432 q 0.58708,0.810724 0.58708,1.831118 0,0.852658 -0.41934,1.579514 -0.40536,0.712878 -1.10426,1.132218 -0.71288,0.433318 -1.56554,0.433318 h -7.89757 v -9.7846 h 6.76535 q 0.85266,0 1.56554,0.433318 0.68492,0.41934 1.10426,1.132218 0.41934,0.726856 0.41934,1.579514 0,0.48923 -0.13978,0.936526 v 0.01398 q 0.39139,0.27956 0.68492,0.712878 z m -7.61801,-1.998854 v 0.670944 h 3.98373 q 0.11183,0 0.20967,-0.08387 0.0978,-0.111824 0.0978,-0.251604 0,-0.13978 -0.0978,-0.237626 -0.0979,-0.09785 -0.20967,-0.09785 z m 5.32562,4.067598 q 0.0978,-0.09785 0.0978,-0.237626 0,-0.13978 -0.0978,-0.251604 -0.0978,-0.09785 -0.20967,-0.09785 h -5.11595 v 0.684922 h 5.11595 q 0.11183,0 0.20967,-0.09785 z m 7.38824,0.09785 h 6.44386 v 2.809578 h -9.22548 v -9.7846 h 2.78162 z m 17.8997,-4.165444 h -9.85449 v -2.809578 h 9.85449 z m -7.07287,3.480522 v 0.684922 h 7.07287 v 2.809578 h -9.85449 v -6.2901 h 8.89001 v 2.7956 z"
         id="path11" /></g></g></svg>
