<?xml version="1.0" encoding="UTF-8" standalone="no"?>
<!-- Created with Inkscape (http://www.inkscape.org/) -->

<svg
   width="105.83334mm"
   height="105.83334mm"
   viewBox="0 0 105.83333 105.83333"
   version="1.1"
   id="svg1"
   xml:space="preserve"
   inkscape:version="1.4 (e7c3feb100, 2024-10-09)"
   sodipodi:docname="orlando.svg"
   inkscape:export-filename="../pngs/miami.png"
   inkscape:export-xdpi="96"
   inkscape:export-ydpi="96"
   xmlns:inkscape="http://www.inkscape.org/namespaces/inkscape"
   xmlns:sodipodi="http://sodipodi.sourceforge.net/DTD/sodipodi-0.dtd"
   xmlns="http://www.w3.org/2000/svg"
   xmlns:svg="http://www.w3.org/2000/svg"><sodipodi:namedview
     id="namedview1"
     pagecolor="#ffffff"
     bordercolor="#000000"
     borderopacity="0.25"
     inkscape:showpageshadow="2"
     inkscape:pageopacity="0.0"
     inkscape:pagecheckerboard="0"
     inkscape:deskcolor="#d1d1d1"
     inkscape:document-units="mm"
     inkscape:zoom="1.2132161"
     inkscape:cx="213.89429"
     inkscape:cy="215.13067"
     inkscape:window-width="1920"
     inkscape:window-height="1011"
     inkscape:window-x="0"
     inkscape:window-y="32"
     inkscape:window-maximized="1"
     inkscape:current-layer="layer1"
     showgrid="false"
     showguides="false" /><defs
     id="defs1" /><g
     inkscape:label="Capa 1"
     inkscape:groupmode="layer"
     id="layer1"><g
       id="g26"><ellipse
         style="fill:#0077c0;fill-opacity:1;stroke:#000000;stroke-width:1.64213;stroke-linecap:butt;stroke-linejoin:miter;stroke-miterlimit:4;stroke-dasharray:none;stroke-dashoffset:0;stroke-opacity:1"
         id="path26"
         cx="52.916672"
         cy="52.916672"
         rx="50.137104"
         ry="49.505123" /><ellipse
         style="fill:#c4ced4;fill-opacity:1;stroke:#ffffff;stroke-width:1.41788;stroke-linecap:butt;stroke-linejoin:miter;stroke-miterlimit:4;stroke-dasharray:none;stroke-dashoffset:0;stroke-opacity:1"
         id="path26-8"
         cx="52.916672"
         cy="52.916672"
         rx="43.290188"
         ry="42.744511" /><path
         style="fill:#000000;fill-opacity:1"
         d="m 72.431487,37.603874 c 0.01098,0.0023 0.123279,-0.0434 0.249835,-0.101531 0.126555,-0.05814 0.321715,-0.141518 0.433693,-0.185282 0.111979,-0.04376 0.285744,-0.115574 0.386155,-0.159581 0.100405,-0.044 0.267165,-0.111735 0.370582,-0.150513 0.103425,-0.03879 0.247839,-0.09658 0.320955,-0.128435 0.302288,-0.131685 1.006331,-0.403909 2.005978,-0.775615 2.722412,-1.012298 4.943367,-1.610253 6.308964,-1.698557 1.998744,-0.129284 2.378607,0.760948 1.071264,2.510562 -0.831125,1.112303 -2.150294,2.41766 -4.120601,4.077464 -0.300094,0.252806 -0.59054,0.495298 -0.64544,0.538883 -0.05489,0.04357 -0.259102,0.20855 -0.453778,0.366603 -0.32412,0.263136 -0.663737,0.530753 -1.486402,1.171305 -0.404308,0.314809 -0.908937,0.69703 -1.403388,1.062987 -0.224365,0.166061 -0.512724,0.379749 -0.640809,0.474874 -0.128075,0.09512 -0.319291,0.233939 -0.424933,0.3085 -0.191393,0.135068 -0.458174,0.492886 -1.617314,2.169178 -0.13089,0.189284 -0.366774,0.526289 -0.524184,0.74889 -0.15741,0.222602 -0.388332,0.55201 -0.513137,0.732011 -0.124823,0.180008 -0.586083,0.839802 -1.025025,1.466205 -0.438951,0.626406 -0.900296,1.286035 -1.025234,1.465849 -0.124921,0.1798 -0.596449,0.854245 -1.04782,1.498745 -0.451371,0.6445 -0.95153,1.361733 -1.111473,1.593854 -0.159924,0.232113 -0.295092,0.424517 -0.300345,0.427551 -0.0054,0.0031 -0.150422,0.210315 -0.322558,0.460606 -0.172126,0.250287 -0.421409,0.607606 -0.553953,0.79404 -0.132545,0.186428 -0.353137,0.501289 -0.490214,0.699686 -0.137077,0.198395 -0.377987,0.542888 -0.535372,0.765549 -0.157377,0.222655 -0.378002,0.537461 -0.490279,0.699571 -0.227298,0.328187 -0.666016,0.955827 -1.400767,2.003981 -0.269684,0.384715 -0.592444,0.846776 -0.717242,1.026799 -0.124805,0.180032 -0.519312,0.744746 -0.876679,1.25493 -0.895211,1.278028 -0.978653,1.397543 -1.271427,1.821162 -0.141487,0.204716 -0.261388,0.374602 -0.266455,0.377527 -0.0052,0.003 -0.126425,0.175366 -0.269688,0.383206 -0.143264,0.20784 -0.643578,0.924871 -1.111804,1.593398 -0.468235,0.668534 -0.928043,1.325744 -1.021819,1.460479 -0.720703,1.035526 -1.690763,2.420163 -1.698791,2.424798 -0.0052,0.003 -0.179059,0.253102 -0.385954,0.555547 -0.206887,0.302441 -0.380611,0.552464 -0.386041,0.555598 -0.0052,0.003 -0.115275,0.158457 -0.244092,0.34516 -0.219412,0.317987 -0.502434,0.722999 -1.806986,2.585809 -0.54318,0.775625 -2.036512,2.911899 -3.302711,4.724676 -0.400737,0.573723 -0.800488,1.145554 -0.888335,1.270739 -0.08785,0.125183 -0.236578,0.337596 -0.330525,0.472033 -0.870295,1.245407 -1.190439,1.69636 -1.213917,1.709916 -0.03049,0.01759 -0.575552,-0.945086 -3.016905,-5.328433 -0.891691,-1.601056 -1.782691,-3.192113 -1.98001,-3.535678 -0.1973,-0.343574 -0.811433,-1.439443 -1.364855,-2.435199 -0.553334,-0.995803 -1.487262,-2.665013 -2.075335,-3.709385 l -1.06927,-1.89883 -0.14042,0.07057 c -0.07723,0.03882 -0.274574,0.129942 -0.438531,0.202541 -0.163962,0.07259 -0.400987,0.18069 -0.526738,0.240225 -0.125751,0.05954 -0.348314,0.160282 -0.494592,0.223879 -0.14628,0.0636 -0.347505,0.152663 -0.447186,0.197934 -0.543398,0.246729 -1.829009,0.799045 -2.699235,1.159649 -0.138435,0.05736 -0.319383,0.132953 -0.402094,0.167973 -0.08268,0.035 -0.234931,0.09555 -0.338252,0.134489 -0.103318,0.03895 -0.262751,0.103181 -0.354291,0.14273 -0.09158,0.03958 -0.244106,0.09944 -0.339062,0.13307 -0.09491,0.03361 -0.23986,0.09061 -0.322017,0.126588 -0.08212,0.03598 -0.227218,0.09269 -0.322354,0.126005 -0.09517,0.03337 -0.241281,0.08813 -0.324783,0.1218 -0.743296,0.299774 -2.635619,0.940613 -3.583151,1.21344 -2.797238,0.805422 -4.415423,0.881564 -4.886979,0.229962 -0.09986,-0.13797 -0.120552,-0.196792 -0.133026,-0.377999 -0.06468,-0.941626 1.316347,-2.6765 3.988159,-5.010005 0.749711,-0.654782 1.154795,-1.003256 1.325633,-1.140376 0.04689,-0.03758 0.244391,-0.198003 0.438881,-0.356376 0.194504,-0.15837 0.411885,-0.332915 0.483091,-0.387882 0.07117,-0.05494 0.244558,-0.192313 0.385232,-0.305218 0.36478,-0.292762 0.666226,-0.529484 0.801245,-0.629204 0.208031,-0.153637 0.374597,-0.28424 0.433422,-0.33983 0.0541,-0.0511 0.06772,-0.03991 0.225188,0.184516 0.09224,0.131369 0.172694,0.249315 0.178885,0.262038 0.0062,0.01272 -0.207437,0.237669 -0.474707,0.499864 -1.275574,1.25136 -1.955085,2.230654 -1.92674,2.776768 0.0094,0.1813 0.117884,0.383773 0.251494,0.469399 0.283939,0.181979 0.948398,0.187994 1.774662,0.01607 0.671027,-0.139622 1.879356,-0.509266 2.689654,-0.822842 0.06541,-0.02529 0.196769,-0.07339 0.291843,-0.106814 0.193769,-0.06812 0.17535,-0.06074 1.030057,-0.412968 0.687467,-0.283313 1.145604,-0.476696 1.371034,-0.578739 0.08156,-0.03693 0.289986,-0.129849 0.463058,-0.206464 0.173071,-0.07661 0.403314,-0.180278 0.511635,-0.23038 0.108316,-0.05009 0.337987,-0.154751 0.510371,-0.232548 0.172382,-0.07781 0.430259,-0.198431 0.57306,-0.268053 0.142802,-0.06962 0.407701,-0.19428 0.588672,-0.27703 0.18097,-0.08275 0.452454,-0.212204 0.603313,-0.28769 0.150852,-0.07548 0.47885,-0.23673 0.728874,-0.358335 1.147616,-0.558191 4.187474,-2.105741 4.41958,-2.249942 0.02524,-0.01567 0.347838,-0.186306 0.716862,-0.379159 0.369015,-0.19285 1.005136,-0.533574 1.413583,-0.757162 0.408456,-0.223594 1.285526,-0.698043 1.949044,-1.054337 1.632529,-0.876607 10.871284,-6.210975 12.476674,-7.203917 0.657359,-0.406581 1.49291,-0.920544 1.856768,-1.142141 0.36385,-0.221616 0.990548,-0.611062 1.392638,-0.865482 0.402102,-0.254417 0.9235,-0.583134 1.15867,-0.730469 0.907746,-0.568717 2.854919,-1.837887 3.656391,-2.383237 0.213487,-0.145264 0.517015,-0.348901 0.674504,-0.452516 0.157487,-0.103622 0.412151,-0.278428 0.56592,-0.388466 0.15377,-0.110038 0.387374,-0.272723 0.519099,-0.361523 0.131726,-0.0888 0.365064,-0.251934 0.518522,-0.362519 0.153457,-0.110586 0.372918,-0.265316 0.487703,-0.343849 0.114775,-0.07853 0.306405,-0.216661 0.42584,-0.306932 0.119434,-0.09028 0.296847,-0.22061 0.394253,-0.289628 0.19859,-0.140703 0.364985,-0.266601 1.172288,-0.886978 0.74664,-0.573765 0.741935,-0.570073 0.90176,-0.7072 0.07643,-0.0656 0.17728,-0.150378 0.223978,-0.188332 1.780371,-1.446969 2.88932,-2.716419 2.939436,-3.36487 0.05897,-0.762965 -0.859212,-0.928545 -2.780195,-0.501362 -0.442098,0.09831 -1.662745,0.442012 -2.087999,0.587855 l -0.203616,0.06986 -0.04693,-0.124915 c -0.02567,-0.06875 -0.07721,-0.177637 -0.114144,-0.24208 -0.06415,-0.111898 -0.06237,-0.119961 0.03679,-0.177202 0.05711,-0.03298 0.112873,-0.05812 0.12371,-0.05585 z M 42.711545,63.931661 c 0.0083,0.01436 0.116625,0.153005 0.240881,0.308016 0.124164,0.155064 0.332656,0.415779 0.463211,0.579426 l 0.237459,0.297491 -0.102024,0.35231 c -0.154017,0.531834 -0.592923,2.010768 -0.872897,2.941298 -0.136943,0.455167 -0.281517,0.943998 -0.321266,1.08629 -0.08468,0.303138 -0.15877,0.303163 0.635384,-1.83e-4 0.299866,-0.114534 0.768096,-0.292215 1.040521,-0.394844 0.272426,-0.102626 0.563403,-0.21456 0.646599,-0.248737 0.08316,-0.03416 0.235997,-0.09368 0.339558,-0.13223 0.103555,-0.03853 0.341427,-0.128972 0.528606,-0.200971 0.303308,-0.116657 0.535967,-0.205977 0.847933,-0.325575 0.05449,-0.02081 0.164755,-0.06382 0.245099,-0.09542 0.08037,-0.03158 0.167264,-0.04834 0.193163,-0.03717 0.02595,0.01113 0.929818,0.629212 2.008726,1.373453 1.079081,0.744363 1.960422,1.330151 1.958921,1.302012 -0.09943,-1.861097 -0.236213,-4.683712 -0.229542,-4.736759 0.0052,-0.04102 0.07179,-0.118634 0.154619,-0.180132 0.08001,-0.05941 0.170296,-0.130037 0.200542,-0.15689 0.05748,-0.05104 0.711694,-0.54847 0.939317,-0.714215 0.07241,-0.05278 0.201409,-0.153592 0.28654,-0.224058 0.08512,-0.07046 0.266059,-0.210894 0.402075,-0.312066 0.201989,-0.150248 0.690336,-0.522944 1.22694,-0.936388 0.04749,-0.03654 0.207324,-0.159525 0.35518,-0.273191 l 0.268836,-0.206656 -2.348692,-0.630345 c -1.622591,-0.435468 -2.351526,-0.648184 -2.357849,-0.688053 -0.0051,-0.03172 -0.03105,-0.116581 -0.05777,-0.188545 -0.124888,-0.335921 -0.322871,-0.894793 -0.337229,-0.951971 -0.01443,-0.0576 -0.04627,-0.04613 -0.338024,0.121829 -0.177131,0.101959 -0.638542,0.350371 -1.025364,0.552018 -0.386811,0.201645 -0.939336,0.492662 -1.227825,0.646704 -0.288488,0.154045 -0.799043,0.420498 -1.134566,0.592134 -0.335519,0.171627 -0.77564,0.398013 -0.978038,0.503068 -0.2024,0.105054 -0.615013,0.314247 -0.91691,0.464865 -0.301907,0.150622 -0.628469,0.314361 -0.725698,0.363856 -0.0972,0.04954 -0.19583,0.09753 -0.219102,0.106745 -0.02334,0.0092 -0.03552,0.02847 -0.02723,0.04285 z m 24.52539,-4.410745 c -0.02149,0.138114 -0.114617,0.655433 -0.20678,1.149522 -0.09216,0.49409 -0.196414,1.059082 -0.231666,1.255541 -0.03526,0.196464 -0.111572,0.615353 -0.169586,0.93087 -0.12432,0.676073 -0.249884,1.364929 -0.339325,1.861493 -0.08508,0.47236 -0.430734,2.364786 -0.536564,2.937663 -0.04612,0.249654 -0.121393,0.658061 -0.167274,0.907574 -0.04587,0.249509 -0.151036,0.821017 -0.233708,1.270025 -0.08266,0.449003 -0.208311,1.137293 -0.279221,1.529536 -0.0709,0.392239 -0.143527,0.788963 -0.161388,0.881607 -0.02909,0.150895 -0.280373,1.522619 -0.559212,3.052595 -0.05607,0.307679 -0.157357,0.862112 -0.225078,1.232074 -0.06771,0.369958 -0.166815,0.913109 -0.220217,1.206995 -0.05339,0.293881 -0.167916,0.921461 -0.254477,1.394612 -0.17572,0.960443 -0.226279,1.237072 -0.650073,3.556928 -0.163506,0.895001 -0.310079,1.690809 -0.325719,1.768461 -0.01566,0.07767 -0.125622,0.683896 -0.2444,1.347205 -0.11878,0.663309 -0.236,1.302776 -0.260483,1.421031 -0.02446,0.118241 -0.09042,0.474487 -0.146512,0.791614 -0.0561,0.317133 -0.167725,0.932711 -0.248057,1.367952 -0.249687,1.352809 -0.42752,2.323014 -0.5712,3.116292 -0.110974,0.61271 -0.108403,0.60184 -0.140189,0.593326 -0.02173,-0.0058 -0.798896,-0.554468 -1.468713,-1.036885 -0.387299,-0.278943 -1.77384,-1.271161 -2.074718,-1.484696 -0.09778,-0.06936 -0.299646,-0.214822 -0.448641,-0.323231 -0.14897,-0.108424 -0.365811,-0.263961 -0.48179,-0.345683 -0.116001,-0.08171 -0.51433,-0.366407 -0.885224,-0.632633 -0.833511,-0.598304 -2.695768,-1.932407 -2.957497,-2.118736 -0.942065,-0.670646 -1.328545,-0.947187 -1.560135,-1.116353 -0.148711,-0.108575 -0.357706,-0.259284 -0.464506,-0.334869 -0.106802,-0.07558 -0.36801,-0.261651 -0.580434,-0.4135 l -0.556037,-0.397445 -0.169827,-0.121348 0.05433,-0.0679 c 0.02984,-0.03731 0.18642,-0.260492 0.347883,-0.495889 0.161454,-0.235392 0.432325,-0.62525 0.60193,-0.866346 0.375989,-0.534469 1.271247,-1.812778 1.504579,-2.148335 0.09374,-0.134799 0.785799,-1.124175 1.537932,-2.198622 0.752124,-1.074442 1.459478,-2.085969 1.571896,-2.247837 0.112418,-0.161864 0.279347,-0.399777 0.370955,-0.528686 l 0.166564,-0.234383 0.115511,0.08707 c 0.06356,0.04787 0.270273,0.208326 0.459409,0.356539 l 0.343881,0.26948 -0.03799,0.676836 c -0.0209,0.372262 -0.06448,1.126792 -0.09686,1.676736 -0.05579,0.947741 -0.05861,1.073917 -0.02255,1.008755 0.0085,-0.01516 0.199311,-0.146425 0.424258,-0.291665 0.224947,-0.145239 0.433812,-0.285934 0.464139,-0.312646 0.03029,-0.02673 0.183937,-0.133433 0.341358,-0.237151 0.637106,-0.41976 0.771314,-0.510246 0.853185,-0.57524 0.04704,-0.03732 0.221097,-0.157573 0.386743,-0.267142 l 0.301181,-0.199221 1.580021,0.616717 c 0.869003,0.339199 1.57572,0.601608 1.570471,0.583136 -0.005,-0.01863 -0.215671,-0.738053 -0.467585,-1.599079 -0.251923,-0.861022 -0.45522,-1.586241 -0.451784,-1.611589 0.0034,-0.02531 0.483077,-0.629787 1.065862,-1.343193 1.052051,-1.287856 1.058799,-1.297126 0.946829,-1.300345 -0.882052,-0.02534 -2.534175,-0.07852 -2.85281,-0.09183 l -0.411367,-0.01719 -0.140077,-0.198227 C 59.81411,73.024251 58.96242,71.692487 58.8436,71.487084 c -0.06262,-0.108276 -0.08718,-0.0644 0.521717,-0.933099 0.200685,-0.286322 0.436483,-0.62347 0.524002,-0.749223 0.08752,-0.125756 0.312871,-0.44857 0.500793,-0.717379 0.187923,-0.268809 0.43382,-0.620883 0.546444,-0.782391 0.112616,-0.161505 0.333411,-0.476016 0.490656,-0.698919 0.157237,-0.222899 0.426835,-0.610381 0.59911,-0.861073 0.172275,-0.250691 0.317043,-0.458006 0.321702,-0.460695 0.0043,-0.0025 0.134609,-0.187391 0.288779,-0.410441 0.15416,-0.223047 0.336939,-0.485723 0.406166,-0.583718 0.06924,-0.098 0.294995,-0.420115 0.501697,-0.715818 0.206701,-0.295702 0.514393,-0.735243 0.683757,-0.976755 0.169365,-0.241513 0.394941,-0.563962 0.501274,-0.716549 0.106341,-0.152594 0.573016,-0.819207 1.037064,-1.481372 0.464048,-0.662165 0.967534,-1.383842 1.118864,-1.603731 0.394199,-0.572803 0.398282,-0.575996 0.351294,-0.275001 z m 0.07433,13.38058 c 0.01553,0.02551 0.04202,0.103779 0.05904,0.173861 0.01693,0.07013 0.155571,0.616917 0.308126,1.215084 0.152516,0.598173 0.418322,1.642493 0.590681,2.320709 0.17231,0.67823 0.585793,2.301696 0.918745,3.607733 0.332952,1.306036 0.931058,3.655732 1.329115,5.221547 0.398056,1.565816 0.802948,3.156797 0.899766,3.535513 0.09682,0.378715 0.267301,1.047615 0.378868,1.486437 0.585741,2.304012 0.877289,3.448302 1.057683,4.151368 0.109907,0.428339 0.197257,0.789105 0.194109,0.801698 -0.0032,0.01255 -0.02348,0.01457 -0.04504,0.0048 -0.02157,-0.0097 -0.163752,-0.03905 -0.315981,-0.06497 -0.152244,-0.02598 -0.288447,-0.05119 -0.30269,-0.05604 -0.02704,-0.0092 -2.415884,-0.438605 -2.992389,-0.53786 -0.493291,-0.08488 -2.583822,-0.46041 -3.41129,-0.612727 -0.396713,-0.07303 -0.952547,-0.174298 -1.235178,-0.225051 -0.282641,-0.05075 -0.683962,-0.122956 -0.891832,-0.160457 l -0.377937,-0.06819 0.01998,-0.125006 c 0.03428,-0.214392 0.357121,-1.964968 0.399163,-2.16435 0.02196,-0.104172 0.04807,-0.248437 0.05801,-0.320574 0.01,-0.07214 0.03238,-0.127318 0.04989,-0.122634 0.0175,0.0047 0.02501,0.04532 0.01638,0.09048 -0.0085,0.04508 -0.02181,0.222764 -0.02951,0.394817 l -0.014,0.312828 0.278016,-0.186943 c 0.152916,-0.102821 0.424928,-0.289062 0.604484,-0.413882 0.179557,-0.124816 0.46949,-0.319581 0.644298,-0.432803 l 0.317842,-0.205861 0.999972,0.399362 c 0.549988,0.219647 1.010804,0.393783 1.024022,0.386978 0.01326,-0.0069 0.01224,-0.03279 -0.0022,-0.05777 -0.03669,-0.06355 -0.583013,-1.939881 -0.584992,-2.009161 -0.0015,-0.05199 0.204316,-0.314675 1.062574,-1.356239 0.170845,-0.207329 0.295255,-0.380843 0.27647,-0.385581 -0.01878,-0.0047 -0.500765,-0.02259 -1.071055,-0.03968 -0.570284,-0.01709 -1.051313,-0.03546 -1.068953,-0.04081 -0.02756,-0.0083 -0.621379,-0.901459 -1.05268,-1.583153 -0.07453,-0.117088 -0.143155,-0.223543 -0.153291,-0.236105 -0.0097,-0.0128 -0.124323,0.271685 -0.253852,0.631716 -0.129537,0.360036 -0.24402,0.652345 -0.254414,0.649581 -0.01912,-0.0051 0.01377,-0.198422 0.25484,-1.496603 0.07374,-0.397129 0.167492,-0.911096 0.208322,-1.142145 0.06067,-0.343283 0.358134,-1.978035 0.443364,-2.436511 0.01187,-0.06404 0.100201,-0.545489 0.196206,-1.069842 0.09601,-0.524352 0.211422,-1.152448 0.256486,-1.395773 0.04506,-0.243318 0.122196,-0.662909 0.171424,-0.932424 0.332968,-1.823124 0.43644,-2.388565 0.570097,-3.115285 0.172865,-0.939887 0.393056,-2.152326 0.421629,-2.321617 0.01336,-0.07927 0.02821,-0.100734 0.04758,-0.06879 z m 14.348227,-4.252847 c 0.01339,0.02293 1.549538,0.926745 1.596872,0.939422 0.02051,0.0054 0.587456,-0.248595 0.91344,-0.409301 0.618042,-0.304681 0.799374,-0.380319 0.821189,-0.342525 0.0117,0.02047 -0.0061,0.152408 -0.03983,0.293329 -0.03369,0.140882 -0.121548,0.544722 -0.19521,0.897393 l -0.133916,0.641207 0.632853,0.671933 c 0.34807,0.369562 0.642577,0.688364 0.654451,0.708452 0.01161,0.02016 -0.389765,0.07769 -0.892543,0.128005 -0.50277,0.05031 -0.93677,0.102041 -0.964433,0.114943 -0.0277,0.01291 -0.246647,0.383807 -0.486644,0.824234 -0.239998,0.440424 -0.449211,0.808193 -0.464919,0.817263 -0.01686,0.0097 -0.07186,-0.08157 -0.13488,-0.223648 -0.05839,-0.132129 -0.209815,-0.470467 -0.336526,-0.751873 -0.126653,-0.281421 -0.252143,-0.564687 -0.278714,-0.62954 -0.04799,-0.116904 -0.05608,-0.119289 -0.977174,-0.288416 -0.510841,-0.09379 -0.934718,-0.17927 -0.94195,-0.189954 -0.007,-0.01074 0.07605,-0.09985 0.185166,-0.198185 0.109069,-0.09832 0.401214,-0.36244 0.64919,-0.586935 0.247985,-0.2245 0.476146,-0.422761 0.507015,-0.440582 0.0633,-0.03655 0.05148,-0.202905 -0.09184,-1.288243 -0.07875,-0.596438 -0.08512,-0.796498 -0.02181,-0.68685 z m -5.373758,8.631431 c 0.457154,0.265114 0.841886,0.475849 0.854976,0.468293 0.01309,-0.0075 0.169914,-0.08012 0.348524,-0.161238 0.178617,-0.08114 0.419908,-0.19338 0.536216,-0.249461 0.116313,-0.05606 0.346852,-0.167323 0.51231,-0.247224 0.165457,-0.07991 0.305939,-0.136411 0.312195,-0.125581 0.006,0.01088 2.5e-5,0.07312 -0.01366,0.138337 -0.01378,0.06527 -0.08758,0.415603 -0.163972,0.778517 -0.07639,0.362915 -0.152885,0.723843 -0.169972,0.802063 -0.01979,0.09074 -0.01239,0.162402 0.02064,0.197982 0.02814,0.03083 0.316907,0.336792 0.641083,0.680235 0.324167,0.34345 0.597258,0.638082 0.606877,0.654737 0.0096,0.01664 -0.416039,0.07514 -0.945893,0.129968 l -0.963375,0.09969 -0.173942,0.325616 c -0.47173,0.883101 -0.71113,1.313237 -0.740287,1.330069 -0.01874,0.01082 -0.04996,-0.02765 -0.07476,-0.09202 -0.02353,-0.06078 -0.0763,-0.184698 -0.117274,-0.275395 -0.196391,-0.433118 -0.52348,-1.167159 -0.562136,-1.261314 -0.04113,-0.100196 -0.08504,-0.112989 -0.909271,-0.265236 -0.476332,-0.08798 -0.897467,-0.163691 -0.935845,-0.168253 -0.128049,-0.01521 -0.13947,-0.0032 0.774028,-0.815613 0.264491,-0.235229 0.500028,-0.447301 0.523403,-0.471262 0.02688,-0.02759 0.0024,-0.344026 -0.06679,-0.863059 -0.0601,-0.450723 -0.112663,-0.880788 -0.116745,-0.955715 l -0.0074,-0.136239 z m -4.598296,3.847091 c 0.0093,0.01611 0.480725,0.55488 1.047625,1.19728 0.687899,0.779521 1.026336,1.184381 1.017534,1.21725 -0.0089,0.03291 0.02167,0.06542 0.09078,0.09809 0.06701,0.03139 0.36765,0.348786 0.843549,0.890336 0.406731,0.46284 1.172426,1.330839 1.701542,1.928889 0.529125,0.598046 1.230013,1.391169 1.557548,1.762488 0.666247,0.755335 2.967313,3.359315 3.349981,3.790999 0.13622,0.153696 0.259521,0.299896 0.273973,0.324929 0.03366,0.05838 -6.133734,1.832487 -6.169131,1.774658 -0.03822,-0.06223 -0.481709,-1.613928 -0.471166,-1.648108 0.0055,-0.0177 0.04966,0.05722 0.09835,0.166351 0.04851,0.109234 0.125608,0.279953 0.171254,0.379409 0.04565,0.09946 0.102454,0.232258 0.126271,0.295102 0.03361,0.08871 0.04924,0.103297 0.06963,0.06539 0.01449,-0.02689 0.170791,-0.317461 0.34728,-0.645694 0.362818,-0.674778 0.290958,-0.616406 0.821043,-0.666929 0.822909,-0.07844 0.962462,-0.09785 0.943233,-0.131163 -0.01703,-0.02877 -0.850927,-0.924323 -0.931841,-1.000195 -0.02267,-0.02123 -0.02313,-0.121079 -4.75e-4,-0.222004 0.115411,-0.520522 0.258585,-1.234282 0.248145,-1.237079 -0.01684,-0.0045 -0.646516,0.283686 -0.993104,0.454507 -0.342363,0.168739 -0.24289,0.193983 -1.027628,-0.260707 l -0.568058,-0.329145 0.07315,0.547029 c 0.04024,0.300861 0.07197,0.55551 0.0705,0.565885 -0.01326,0.09383 -0.105933,-0.195476 -0.479327,-1.489203 -0.905835,-3.141846 -1.778492,-6.161779 -2.007973,-6.948833 -0.131301,-0.450302 -0.234343,-0.839033 -0.229079,-0.863821 0.006,-0.02769 0.01618,-0.03378 0.02655,-0.01581 z M 83.46107,78.867994 c 0.156716,0.08885 0.796617,0.45929 1.422094,0.823151 1.296065,0.753972 1.100501,0.704557 1.669224,0.42171 0.159932,-0.07954 0.445818,-0.216494 0.635291,-0.304328 0.189462,-0.08784 0.439677,-0.20553 0.556015,-0.261539 0.902074,-0.434253 1.240683,-0.588412 1.251458,-0.569756 0.01111,0.01828 -0.192813,1.044733 -0.222384,1.121916 -0.0054,0.01462 -0.07162,0.324161 -0.14667,0.687729 -0.07504,0.363565 -0.166778,0.787518 -0.203877,0.942126 -0.114413,0.476879 -0.177109,0.361628 0.701894,1.290313 1.159279,1.224824 1.403808,1.489398 1.416458,1.532666 0.0062,0.02282 -0.264259,0.0676 -0.636352,0.105795 -2.171085,0.222599 -2.594085,0.272376 -2.619555,0.308261 -0.01565,0.02198 -0.368758,0.665859 -0.784846,1.43091 -0.723131,1.329613 -0.758993,1.387762 -0.812552,1.317659 -0.05052,-0.06607 -0.30484,-0.620792 -0.614787,-1.34093 -0.06309,-0.146584 -0.155264,-0.355361 -0.204868,-0.463984 -0.0496,-0.108621 -0.14205,-0.317247 -0.205498,-0.463627 -0.06335,-0.146407 -0.152401,-0.348924 -0.197639,-0.450139 l -0.08242,-0.183947 -0.339963,-0.06997 c -0.186983,-0.03849 -0.489445,-0.09654 -0.672146,-0.129022 -0.182683,-0.03249 -0.758513,-0.139663 -1.279607,-0.23818 -0.861204,-0.162813 -0.941939,-0.185159 -0.887072,-0.245444 0.03319,-0.03647 0.449336,-0.413706 0.924745,-0.838288 0.976348,-0.87196 1.233581,-1.10356 1.368241,-1.231905 0.08917,-0.085 0.09107,-0.110403 0.03776,-0.504819 -0.03088,-0.228434 -0.08404,-0.633166 -0.118102,-0.899422 -0.03407,-0.266254 -0.103683,-0.806241 -0.154686,-1.199971 -0.05104,-0.393716 -0.09099,-0.723228 -0.08891,-0.732205 0.0018,-0.0088 0.131973,0.05639 0.288681,0.145252 z"
         id="path25"
         sodipodi:nodetypes="sssssssssssssssssssssssssssssssssssssssssssssscscccsssscssssssscsscscssssscsssssssssssssssssssssssssssssssssssssscscsssccccsssssssscscsccsscsscscsscssssssscccccssssssssssssssssssssssccssscsccccssssssccscsscscssscscscsssccsssssssssssssssccccssssscsssscsssscsssscscssscssssssscccscsscsscscccccsscscssscsscscsssssscccssssscsccssscsssccsssssscccsccssscscccsccsssscssscsccssccsssscssssscsssccssccsssssscsscs" /><path
         id="path56"
         style="fill:#0077c0;fill-opacity:1;stroke-width:3.23897"
         d="m 45.580392,25.094333 c -0.282092,-0.0099 -0.625862,-0.0071 -1.05575,0.0026 -1.121151,0.0253 -2.691673,0.280792 -3.624068,0.589628 l -1.645377,0.54467 4.243152,0.02739 4.243151,0.02739 -0.619083,-0.617017 c -0.403553,-0.402202 -0.695749,-0.54481 -1.542025,-0.574642 z m 3.682463,0.150895 c -0.222078,0.0081 -0.153911,0.140537 0.05684,0.478007 0.288888,0.462578 0.621095,0.558976 1.862418,0.540536 1.482259,-0.02195 1.494903,-0.02917 0.687814,-0.375688 -0.452502,-0.194265 -1.290532,-0.437432 -1.862419,-0.540535 -0.373941,-0.06741 -0.611411,-0.107167 -0.744657,-0.10232 z m 5.452897,2.383318 c -0.368422,-0.0088 -0.820816,-0.0039 -1.397848,0.0078 -1.391237,0.02815 -2.572549,0.09474 -2.625679,0.147795 -0.05308,0.05308 0.10086,0.478149 0.342098,0.944645 0.392062,0.758138 0.569821,0.84801 1.6769,0.84801 1.63925,0 5.191333,0.74208 6.563424,1.370976 0.603293,0.276519 1.158573,0.509614 1.234033,0.518314 0.259349,0.02968 -2.606647,-2.477996 -3.63337,-3.179134 -0.703386,-0.480258 -1.054294,-0.631995 -2.159558,-0.658357 z m -11.34091,0.302823 c -6.180678,0 -7.409699,0.219069 -9.637655,1.716692 -3.105724,2.087659 -6.664882,8.317017 -6.681762,11.693859 -0.0029,0.586109 0.07941,0.537455 0.750858,-0.443383 3.689085,-5.388931 11.022629,-9.577328 19.097542,-10.906311 1.340995,-0.2207 2.487302,-0.450217 2.547132,-0.510047 0.05983,-0.05982 -0.03892,-0.432849 -0.219625,-0.829407 L 48.90267,27.931369 Z m 8.596891,3.054594 0.189653,0.872299 c 0.40773,1.87498 0.541436,2.019072 2.056205,2.220019 3.332328,0.442046 6.450977,3.112001 8.549349,7.31945 0.706685,1.417026 1.504702,3.378536 1.773535,4.358907 l 0.165365,0.603581 0.522448,-0.301274 0.0036,-0.0279 c 0.378069,-2.81123 -0.455389,-7.461304 -1.805557,-10.072259 -1.178596,-2.279154 -5.556625,-4.394561 -9.997322,-4.830196 z m -1.519804,0.373621 -1.728576,0.05013 c -3.240123,0.09443 -6.842614,1.165848 -10.979175,3.265434 -6.014598,3.052829 -10.099799,7.688941 -10.611239,12.041642 -0.168429,1.433472 0.962622,4.899022 2.371432,7.26674 0.583339,0.980371 1.831758,2.584045 2.774507,3.563607 l 1.714108,1.781286 0.599446,-2.192631 c 0.77457,-2.833716 1.403898,-4.352545 3.683496,-8.889896 3.27377,-6.516181 4.33394,-8.342322 5.837887,-10.057268 1.517624,-1.730536 3.408672,-3.049962 5.250325,-3.662825 l 1.757516,-0.584977 -0.334863,-1.290361 z m 2.9099,4.12998 c -0.267646,0.0015 -0.234528,0.171973 -0.142627,0.625802 0.874439,4.320408 1.255335,11.782533 0.902271,16.355591 L 63.262,47.19376 C 62.252723,41.791631 58.339639,36.570576 54.220691,35.64511 53.791336,35.54864 53.522417,35.488673 53.361829,35.489564 Z m -2.193148,0.315743 c -0.131868,-0.01086 -0.300089,-4.2e-4 -0.519865,0.01757 -2.388738,0.195463 -5.312171,2.776758 -7.616072,6.724655 -3.538783,6.063937 -7.479647,15.155061 -7.479647,17.255277 0,0.575823 0.315486,0.82209 2.125452,1.660881 0.178908,0.08291 0.325987,0.139265 0.495577,0.214974 l 14.311788,-8.263062 c 0.433943,-3.477012 0.430063,-7.568324 -0.08062,-11.909351 -0.230681,-1.960766 -0.51211,-4.05893 -0.625801,-4.662247 -0.147286,-0.78249 -0.21521,-1.006103 -0.610816,-1.038697 z" /><path
         d="m 25.887617,36.238946 c 1.815305,-2.205948 0.856771,-4.925533 -1.052812,-6.775012 0.38198,-0.282542 1.06277,-0.686322 1.52071,-1.100618 l 0.04396,-0.0519 c 0.307741,-0.363263 -0.03059,-0.952956 -0.508022,-1.357414 -0.446293,-0.37808 -0.984546,-0.58448 -1.23953,-0.283491 l -0.06875,0.102207 c -0.239116,0.492705 -0.509518,1.190671 -0.876492,1.771166 -1.038751,-0.773021 -2.398659,-1.461562 -3.648569,-1.753845 0.115435,-0.704453 0.346622,-1.293015 0.703087,-1.650655 0.758473,-0.748007 1.512825,0.08715 1.311321,0.451275 1.572651,0.226973 2.490205,-2.097718 0.966093,-3.371055 -0.217957,-0.184645 -0.460706,-0.318981 -0.728246,-0.403009 -0.75231,-0.227296 -1.677437,0.02298 -2.329674,0.771849 l -0.05276,0.06228 c -0.861674,1.017133 -0.949685,2.636195 -1.050256,3.87024 -1.152601,-0.0494 -2.069069,0.422138 -2.631795,1.086388 -0.81771,0.965238 -0.895203,2.361449 0.05965,3.170364 0.166062,0.140685 0.370468,0.278191 0.610044,0.374184 0.630076,0.266361 1.660577,0.123185 2.328813,-0.665611 0.395667,-0.46705 0.667647,-1.145849 0.665016,-2.110768 0.515046,0.275881 1.02606,0.619649 1.513869,1.0329 1.359637,1.151829 2.426671,2.733225 2.238175,4.07106 -0.06096,0.429703 -0.250489,0.821793 -0.514273,1.133157 -0.677029,0.799175 -1.853831,1.157136 -2.848755,0.563864 -0.102207,-0.06875 -0.194026,-0.128717 -0.287437,-0.207849 -0.529325,-0.448422 -0.807697,-1.129938 -0.546096,-1.817528 0.03648,0.440944 0.273479,0.855646 0.605605,1.137007 0.176443,0.149473 0.368882,0.259018 0.586114,0.318255 0.722761,0.220084 1.395485,-0.04791 1.799944,-0.525339 0.562725,-0.66425 0.648023,-1.732957 -0.244565,-2.48912 l -0.195612,-0.147887 c -0.942169,-0.655545 -2.148521,-0.304792 -2.904683,0.587794 -0.09671,0.114168 -0.183059,0.237129 -0.259019,0.368881 -1.037795,1.687999 -0.462874,3.387327 0.782595,4.442436 1.60873,1.36285 4.335569,1.658395 6.208387,-0.552312 z m -7.516551,-8.02568 c -0.351703,0.415156 -0.793508,0.557878 -1.054703,0.550537 -0.09745,-0.01125 -0.166921,-0.03445 -0.218817,-0.07841 -0.145309,-0.123091 -0.125996,-0.356328 0.04985,-0.563905 0.228606,-0.269851 0.73196,-0.485225 1.472307,-0.285898 -0.07438,0.150925 -0.160718,0.273884 -0.248641,0.377673 z m 11.844377,0.212366 c 1.291237,-0.768167 0.488648,-2.454491 0.05693,-3.351201 -0.03193,-0.04404 0.0341,-0.09197 0.06607,-0.0479 0.375271,0.517595 1.531924,2.182435 2.765342,1.288171 0.969116,-0.702635 -0.104949,-2.763389 -0.785843,-4.235514 -0.115672,-0.252176 -0.588085,0.02314 -0.493371,0.22329 0.648127,1.311064 0.653653,2.315157 -0.07321,1.49802 -0.502194,-0.576789 -1.459233,-1.966314 -1.384914,-2.860281 -0.51458,-0.315782 -2.014787,0.419076 -1.623805,1.815769 -0.427579,-0.311655 -0.843588,-0.329266 -1.114777,-0.216656 -2.890015,1.204856 0.315378,7.24808 2.587572,5.886303 z M 28.22588,23.24827 c 0.31744,-0.280558 1.65996,2.84568 1.118955,2.817883 -0.461988,-0.03468 -1.579559,-2.433529 -1.118955,-2.817883 z m 3.435383,-2.954019 c 0.602249,1.889967 1.826147,4.136849 2.424673,4.871002 0.531378,0.66137 2.419485,-0.518789 1.906181,-1.234968 -1.191523,-1.638653 -1.863373,-4.36181 -1.157384,-4.260668 0.359067,0.04751 0.838283,5.289776 3.3522,3.870352 1.11732,-0.624092 0.507965,-2.830372 0.07102,-4.392376 -0.07386,-0.267428 -0.584227,-0.07112 -0.522709,0.141601 0.301272,0.990608 0.358726,1.829918 0.133861,1.89756 -0.455852,0.123134 -0.63159,-1.555292 -1.303881,-2.526455 -0.354514,-0.522023 -1.018332,-0.751051 -1.777855,-0.474855 -0.723082,0.257827 -1.134412,0.983064 -0.996486,2.254032 0.0062,0.04256 -0.03634,0.04878 -0.04859,0.02449 -0.122737,-0.334194 -0.129449,-0.528837 -0.221677,-0.832706 -0.34364,-0.923555 -2.171992,-0.07817 -1.859356,0.662986 z m 4.699176,-3.563799 c 0.268144,-0.09848 0.536288,-0.196952 0.817202,-0.300117 0.182599,0.773414 0.450397,1.660448 0.761191,2.546182 0.74351,2.103456 1.771324,4.07352 3.186059,3.467015 1.278967,-0.542155 0.586533,-2.664368 0.306026,-4.25679 -0.04271,-0.274132 -0.623294,-0.118879 -0.573803,0.0948 0.292768,1.428519 0.127219,2.358772 -0.324539,1.365406 -0.433003,-0.94229 -1.000914,-2.646525 -1.106333,-3.998938 0.553747,-0.188872 1.102804,-0.390512 1.66463,-0.596842 0.352836,-0.144071 0.06967,-1.112406 -0.321472,-0.954268 -0.434138,0.159437 -0.863588,0.331642 -1.288347,0.516617 0.09046,-0.424473 0.278885,-0.740019 0.614262,-0.89217 -0.6521,-1.499427 -3.163873,-0.881288 -3.193999,0.970121 -0.0063,0.219668 0.02497,0.541485 0.09712,0.935226 -0.301762,0.125312 -0.590753,0.245935 -0.897204,0.358479 -0.293682,0.107855 0.02937,0.829686 0.259211,0.745278 z m 7.12959,4.873908 c 1.487521,-0.21133 1.396656,-2.076693 1.343782,-3.070511 -0.0125,-0.05295 0.06693,-0.07171 0.07943,-0.01875 0.146862,0.622227 0.572726,2.60419 2.055479,2.254222 1.165019,-0.274975 0.967908,-2.59046 0.906815,-4.211274 -0.0095,-0.277277 -0.551593,-0.205241 -0.541314,0.01595 0.09292,1.459564 -0.288866,2.388258 -0.644755,1.354146 -0.241181,-0.725752 -0.588929,-2.376745 -0.175894,-3.173049 -0.353173,-0.489673 -2.020694,-0.3896 -2.19806,1.049902 -0.274482,-0.452341 -0.651582,-0.628887 -0.945222,-0.629461 -3.131113,-0.0017 -2.501725,6.809956 0.119733,6.428822 z m 0.158942,-5.544203 c 0.40103,-0.136583 0.435324,3.265556 -0.0532,3.031451 -0.412953,-0.210017 -0.519938,-2.854248 0.0532,-3.031451 z m 8.843658,2.224301 c -0.04206,-1.553049 -1.513476,-1.668438 -2.167484,-2.730256 -0.449041,-0.752244 0.794587,-1.203872 0.612313,0.437341 0.504256,0.296704 1.556129,-0.315456 1.114971,-1.286892 -0.458312,-1.010883 -1.722878,-1.103639 -2.677164,-0.623034 -1.76433,0.893801 -2.057709,3.746586 -1.118979,5.24747 1.271309,2.017645 4.285796,1.054003 4.236343,-1.044629 z m -3.80953,-1.997508 c 0.142885,0.533573 0.379755,0.894945 0.727421,1.273808 0.771489,0.846566 -0.0202,1.31276 -0.509893,0.56412 -0.348528,-0.542659 -0.409438,-1.383928 -0.217528,-1.837928 z m 10.08568,-1.890831 c -0.145318,-0.40142 -0.735267,-0.605009 -1.309669,-0.549188 -1.584875,0.11924 -1.719293,2.196495 -2.193188,3.346159 -0.182035,0.41391 -0.357962,0.69193 -0.488953,0.577097 -0.300913,-0.272266 0.141275,-1.927166 0.667689,-3.033615 0.436311,-0.919878 -1.422421,-1.371248 -1.725415,-0.69046 -1.044136,2.322221 -1.747449,5.844423 0.255741,6.111669 1.502239,0.203833 1.986295,-1.775975 2.153891,-2.77604 0.01551,-0.04013 0.08398,-0.05068 0.09573,-0.0093 0.172249,1.314934 -0.210687,2.863572 -0.802107,3.59945 -0.634635,0.788398 -1.68783,0.591176 -2.091456,-0.121442 -0.400315,1.329994 0.445738,2.498265 1.565655,2.725724 1.470777,0.297729 2.756329,-0.733675 3.117107,-2.092681 0.707354,-2.705037 -0.785705,-6.135544 0.754974,-7.087376 z"
         id="text26"
         style="font-size:17.5543px;line-height:1;font-family:'The Augusta';-inkscape-font-specification:'The Augusta';text-align:center;letter-spacing:0px;text-anchor:middle;stroke-width:2.185;stroke:#ffffff"
         aria-label="Fantasy" /><path
         d="m 25.887617,36.238946 c 1.815305,-2.205948 0.856771,-4.925533 -1.052812,-6.775012 0.38198,-0.282542 1.06277,-0.686322 1.52071,-1.100618 l 0.04396,-0.0519 c 0.307741,-0.363263 -0.03059,-0.952956 -0.508022,-1.357414 -0.446293,-0.37808 -0.984546,-0.58448 -1.23953,-0.283491 l -0.06875,0.102207 c -0.239116,0.492705 -0.509518,1.190671 -0.876492,1.771166 -1.038751,-0.773021 -2.398659,-1.461562 -3.648569,-1.753845 0.115435,-0.704453 0.346622,-1.293015 0.703087,-1.650655 0.758473,-0.748007 1.512825,0.08715 1.311321,0.451275 1.572651,0.226973 2.490205,-2.097718 0.966093,-3.371055 -0.217957,-0.184645 -0.460706,-0.318981 -0.728246,-0.403009 -0.75231,-0.227296 -1.677437,0.02298 -2.329674,0.771849 l -0.05276,0.06228 c -0.861674,1.017133 -0.949685,2.636195 -1.050256,3.87024 -1.152601,-0.0494 -2.069069,0.422138 -2.631795,1.086388 -0.81771,0.965238 -0.895203,2.361449 0.05965,3.170364 0.166062,0.140685 0.370468,0.278191 0.610044,0.374184 0.630076,0.266361 1.660577,0.123185 2.328813,-0.665611 0.395667,-0.46705 0.667647,-1.145849 0.665016,-2.110768 0.515046,0.275881 1.02606,0.619649 1.513869,1.0329 1.359637,1.151829 2.426671,2.733225 2.238175,4.07106 -0.06096,0.429703 -0.250489,0.821793 -0.514273,1.133157 -0.677029,0.799175 -1.853831,1.157136 -2.848755,0.563864 -0.102207,-0.06875 -0.194026,-0.128717 -0.287437,-0.207849 -0.529325,-0.448422 -0.807697,-1.129938 -0.546096,-1.817528 0.03648,0.440944 0.273479,0.855646 0.605605,1.137007 0.176443,0.149473 0.368882,0.259018 0.586114,0.318255 0.722761,0.220084 1.395485,-0.04791 1.799944,-0.525339 0.562725,-0.66425 0.648023,-1.732957 -0.244565,-2.48912 l -0.195612,-0.147887 c -0.942169,-0.655545 -2.148521,-0.304792 -2.904683,0.587794 -0.09671,0.114168 -0.183059,0.237129 -0.259019,0.368881 -1.037795,1.687999 -0.462874,3.387327 0.782595,4.442436 1.60873,1.36285 4.335569,1.658395 6.208387,-0.552312 z m -7.516551,-8.02568 c -0.351703,0.415156 -0.793508,0.557878 -1.054703,0.550537 -0.09745,-0.01125 -0.166921,-0.03445 -0.218817,-0.07841 -0.145309,-0.123091 -0.125996,-0.356328 0.04985,-0.563905 0.228606,-0.269851 0.73196,-0.485225 1.472307,-0.285898 -0.07438,0.150925 -0.160718,0.273884 -0.248641,0.377673 z m 11.844377,0.212366 c 1.291237,-0.768167 0.488648,-2.454491 0.05693,-3.351201 -0.03193,-0.04404 0.0341,-0.09197 0.06607,-0.0479 0.375271,0.517595 1.531924,2.182435 2.765342,1.288171 0.969116,-0.702635 -0.104949,-2.763389 -0.785843,-4.235514 -0.115672,-0.252176 -0.588085,0.02314 -0.493371,0.22329 0.648127,1.311064 0.653653,2.315157 -0.07321,1.49802 -0.502194,-0.576789 -1.459233,-1.966314 -1.384914,-2.860281 -0.51458,-0.315782 -2.014787,0.419076 -1.623805,1.815769 -0.427579,-0.311655 -0.843588,-0.329266 -1.114777,-0.216656 -2.890015,1.204856 0.315378,7.24808 2.587572,5.886303 z M 28.22588,23.24827 c 0.31744,-0.280558 1.65996,2.84568 1.118955,2.817883 -0.461988,-0.03468 -1.579559,-2.433529 -1.118955,-2.817883 z m 3.435383,-2.954019 c 0.602249,1.889967 1.826147,4.136849 2.424673,4.871002 0.531378,0.66137 2.419485,-0.518789 1.906181,-1.234968 -1.191523,-1.638653 -1.863373,-4.36181 -1.157384,-4.260668 0.359067,0.04751 0.838283,5.289776 3.3522,3.870352 1.11732,-0.624092 0.507965,-2.830372 0.07102,-4.392376 -0.07386,-0.267428 -0.584227,-0.07112 -0.522709,0.141601 0.301272,0.990608 0.358726,1.829918 0.133861,1.89756 -0.455852,0.123134 -0.63159,-1.555292 -1.303881,-2.526455 -0.354514,-0.522023 -1.018332,-0.751051 -1.777855,-0.474855 -0.723082,0.257827 -1.134412,0.983064 -0.996486,2.254032 0.0062,0.04256 -0.03634,0.04878 -0.04859,0.02449 -0.122737,-0.334194 -0.129449,-0.528837 -0.221677,-0.832706 -0.34364,-0.923555 -2.171992,-0.07817 -1.859356,0.662986 z m 4.699176,-3.563799 c 0.268144,-0.09848 0.536288,-0.196952 0.817202,-0.300117 0.182599,0.773414 0.450397,1.660448 0.761191,2.546182 0.74351,2.103456 1.771324,4.07352 3.186059,3.467015 1.278967,-0.542155 0.586533,-2.664368 0.306026,-4.25679 -0.04271,-0.274132 -0.623294,-0.118879 -0.573803,0.0948 0.292768,1.428519 0.127219,2.358772 -0.324539,1.365406 -0.433003,-0.94229 -1.000914,-2.646525 -1.106333,-3.998938 0.553747,-0.188872 1.102804,-0.390512 1.66463,-0.596842 0.352836,-0.144071 0.06967,-1.112406 -0.321472,-0.954268 -0.434138,0.159437 -0.863588,0.331642 -1.288347,0.516617 0.09046,-0.424473 0.278885,-0.740019 0.614262,-0.89217 -0.6521,-1.499427 -3.163873,-0.881288 -3.193999,0.970121 -0.0063,0.219668 0.02497,0.541485 0.09712,0.935226 -0.301762,0.125312 -0.590753,0.245935 -0.897204,0.358479 -0.293682,0.107855 0.02937,0.829686 0.259211,0.745278 z m 7.12959,4.873908 c 1.487521,-0.21133 1.396656,-2.076693 1.343782,-3.070511 -0.0125,-0.05295 0.06693,-0.07171 0.07943,-0.01875 0.146862,0.622227 0.572726,2.60419 2.055479,2.254222 1.165019,-0.274975 0.967908,-2.59046 0.906815,-4.211274 -0.0095,-0.277277 -0.551593,-0.205241 -0.541314,0.01595 0.09292,1.459564 -0.288866,2.388258 -0.644755,1.354146 -0.241181,-0.725752 -0.588929,-2.376745 -0.175894,-3.173049 -0.353173,-0.489673 -2.020694,-0.3896 -2.19806,1.049902 -0.274482,-0.452341 -0.651582,-0.628887 -0.945222,-0.629461 -3.131113,-0.0017 -2.501725,6.809956 0.119733,6.428822 z m 0.158942,-5.544203 c 0.40103,-0.136583 0.435324,3.265556 -0.0532,3.031451 -0.412953,-0.210017 -0.519938,-2.854248 0.0532,-3.031451 z m 8.843658,2.224301 c -0.04206,-1.553049 -1.513476,-1.668438 -2.167484,-2.730256 -0.449041,-0.752244 0.794587,-1.203872 0.612313,0.437341 0.504256,0.296704 1.556129,-0.315456 1.114971,-1.286892 -0.458312,-1.010883 -1.722878,-1.103639 -2.677164,-0.623034 -1.76433,0.893801 -2.057709,3.746586 -1.118979,5.24747 1.271309,2.017645 4.285796,1.054003 4.236343,-1.044629 z m -3.80953,-1.997508 c 0.142885,0.533573 0.379755,0.894945 0.727421,1.273808 0.771489,0.846566 -0.0202,1.31276 -0.509893,0.56412 -0.348528,-0.542659 -0.409438,-1.383928 -0.217528,-1.837928 z m 10.08568,-1.890831 c -0.145318,-0.40142 -0.735267,-0.605009 -1.309669,-0.549188 -1.584875,0.11924 -1.719293,2.196495 -2.193188,3.346159 -0.182035,0.41391 -0.357962,0.69193 -0.488953,0.577097 -0.300913,-0.272266 0.141275,-1.927166 0.667689,-3.033615 0.436311,-0.919878 -1.422421,-1.371248 -1.725415,-0.69046 -1.044136,2.322221 -1.747449,5.844423 0.255741,6.111669 1.502239,0.203833 1.986295,-1.775975 2.153891,-2.77604 0.01551,-0.04013 0.08398,-0.05068 0.09573,-0.0093 0.172249,1.314934 -0.210687,2.863572 -0.802107,3.59945 -0.634635,0.788398 -1.68783,0.591176 -2.091456,-0.121442 -0.400315,1.329994 0.445738,2.498265 1.565655,2.725724 1.470777,0.297729 2.756329,-0.733675 3.117107,-2.092681 0.707354,-2.705037 -0.785705,-6.135544 0.754974,-7.087376 z"
         id="text26-0"
         style="font-size:17.5543px;line-height:1;font-family:'The Augusta';-inkscape-font-specification:'The Augusta';text-align:center;letter-spacing:0px;text-anchor:middle;stroke:none;stroke-width:2.185"
         aria-label="Fantasy" /></g></g></svg>
