<?xml version="1.0" encoding="UTF-8" standalone="no"?>
<!-- Created with Inkscape (http://www.inkscape.org/) -->

<svg
   width="105.83334mm"
   height="105.83334mm"
   viewBox="0 0 105.83333 105.83333"
   version="1.1"
   id="svg1"
   xml:space="preserve"
   inkscape:version="1.4 (e7c3feb100, 2024-10-09)"
   sodipodi:docname="orlando.svg"
   inkscape:export-filename="../pngs/miami.png"
   inkscape:export-xdpi="96"
   inkscape:export-ydpi="96"
   xmlns:inkscape="http://www.inkscape.org/namespaces/inkscape"
   xmlns:sodipodi="http://sodipodi.sourceforge.net/DTD/sodipodi-0.dtd"
   xmlns="http://www.w3.org/2000/svg"
   xmlns:svg="http://www.w3.org/2000/svg"><sodipodi:namedview
     id="namedview1"
     pagecolor="#ffffff"
     bordercolor="#000000"
     borderopacity="0.25"
     inkscape:showpageshadow="2"
     inkscape:pageopacity="0.0"
     inkscape:pagecheckerboard="0"
     inkscape:deskcolor="#d1d1d1"
     inkscape:document-units="mm"
     inkscape:zoom="1.4142136"
     inkscape:cx="212.48559"
     inkscape:cy="206.47518"
     inkscape:window-width="1920"
     inkscape:window-height="1011"
     inkscape:window-x="0"
     inkscape:window-y="32"
     inkscape:window-maximized="1"
     inkscape:current-layer="layer1"
     showgrid="false"
     showguides="false" /><defs
     id="defs1" /><g
     inkscape:label="Capa 1"
     inkscape:groupmode="layer"
     id="layer1"><ellipse
       style="fill:#c4ced4;fill-opacity:1;stroke:none;stroke-width:1.71447;stroke-linecap:butt;stroke-linejoin:miter;stroke-miterlimit:4;stroke-dasharray:none;stroke-dashoffset:0;stroke-opacity:1"
       id="path26-2"
       cx="52.916672"
       cy="52.916672"
       rx="52.345787"
       ry="51.685966" /><ellipse
       style="fill:#0077c0;fill-opacity:1;stroke:none;stroke-width:1.60596;stroke-linecap:butt;stroke-linejoin:miter;stroke-miterlimit:4;stroke-dasharray:none;stroke-dashoffset:0;stroke-opacity:1"
       id="path26"
       cx="53.246418"
       cy="52.916672"
       rx="49.032761"
       ry="48.414703" /><path
       style="fill:#000000;fill-opacity:1;stroke-width:0.838669"
       d="m 75.432161,65.110186 c 0.09319,0.118919 0.471353,0.610373 0.840415,1.09213 0.764731,0.998271 0.628809,0.897556 1.160163,0.859605 0.149414,-0.01072 0.414852,-0.0257 0.589836,-0.03337 0.174976,-0.0077 0.406593,-0.01915 0.514698,-0.02548 0.838208,-0.04904 1.15002,-0.06059 1.152427,-0.04268 0.0027,0.01777 -0.482845,0.748816 -0.530404,0.799247 -0.0089,0.0096 -0.158955,0.22858 -0.333158,0.48663 -0.174191,0.258052 -0.380589,0.557614 -0.458686,0.665698 -0.240877,0.333381 -0.252739,0.223992 0.132779,1.224719 0.508427,1.31984 0.613687,1.603058 0.609693,1.640654 -0.0024,0.01966 -0.226531,-0.03186 -0.527317,-0.120951 -1.754969,-0.519965 -2.098943,-0.616296 -2.130143,-0.59659 -0.01908,0.01212 -0.498441,0.398816 -1.065236,0.859472 -0.985049,0.80059 -1.031415,0.834251 -1.050594,0.762791 -0.01812,-0.06735 -0.03839,-0.578751 -0.04907,-1.23619 -0.0022,-0.133807 -0.0071,-0.325161 -0.01088,-0.425233 -0.0038,-0.100059 -0.009,-0.291383 -0.01149,-0.425157 -0.0025,-0.133755 -0.0069,-0.319257 -0.0097,-0.412194 l -0.0052,-0.168967 -0.24136,-0.162729 c -0.132727,-0.08951 -0.348832,-0.231013 -0.48017,-0.314499 -0.131335,-0.08347 -0.543769,-0.350306 -0.916513,-0.592958 -0.616036,-0.401021 -0.671527,-0.444108 -0.60974,-0.473363 0.03735,-0.01765 0.480495,-0.17753 0.984687,-0.355187 1.035453,-0.364843 1.308853,-0.462416 1.454244,-0.519004 0.09627,-0.03749 0.105836,-0.05664 0.190339,-0.379507 0.04892,-0.187028 0.136805,-0.517909 0.195329,-0.735292 0.0585,-0.217386 0.176753,-0.658426 0.26284,-0.980074 0.08601,-0.321661 0.160129,-0.58999 0.164667,-0.596273 0.0039,-0.0062 0.08434,0.08585 0.177602,0.204741 z"
       id="path7" /><path
       style="fill:#000000;fill-opacity:1;stroke-width:0.78709"
       d="m 87.869697,52.383139 c 0.2534,0.329855 0.470364,0.598444 0.482153,0.596863 0.01179,-0.0016 0.147672,-0.0074 0.301976,-0.01302 0.154312,-0.0056 0.36356,-0.01505 0.465015,-0.02104 0.101456,-0.006 0.302579,-0.01796 0.446943,-0.02657 0.144368,-0.0086 0.263546,-0.0077 0.264855,0.0021 9.97e-4,0.0097 -0.02187,0.05324 -0.05136,0.09661 -0.02958,0.04339 -0.188185,0.276306 -0.352447,0.517611 -0.164268,0.241302 -0.328008,0.481132 -0.363866,0.532953 -0.04158,0.06012 -0.05764,0.114508 -0.04424,0.1503 0.01122,0.03088 0.129847,0.340044 0.263002,0.687102 0.13314,0.347063 0.243717,0.643297 0.245734,0.6583 0.002,0.01497 -0.325342,-0.06987 -0.727448,-0.188612 l -0.731117,-0.215864 -0.224106,0.184943 c -0.607786,0.501597 -0.910835,0.74303 -0.937099,0.746553 -0.01689,0.0022 -0.02809,-0.03508 -0.02686,-0.08937 0.0011,-0.05128 -2.45e-4,-0.157288 -0.0029,-0.235576 -0.01328,-0.374079 -0.03161,-1.006338 -0.03156,-1.08645 6.6e-5,-0.08525 -0.02808,-0.10771 -0.582474,-0.465309 -0.320394,-0.206656 -0.604282,-0.387855 -0.630852,-0.402666 -0.08866,-0.04942 -0.100561,-0.0441 0.80763,-0.361964 0.262959,-0.09203 0.497905,-0.175898 0.522097,-0.186337 0.02782,-0.01202 0.104796,-0.249688 0.209775,-0.648243 0.09119,-0.34609 0.181722,-0.674876 0.201158,-0.730646 l 0.03535,-0.101411 z"
       id="path5" /><path
       style="fill:#000000;fill-opacity:1;stroke-width:1.02636"
       d="m 84.905213,60.329881 c 0.33043,0.430129 0.61335,0.780366 0.62872,0.778305 0.0154,-0.0021 0.19256,-0.0097 0.39377,-0.01698 0.20123,-0.0073 0.47408,-0.01962 0.60638,-0.02744 0.1323,-0.0078 0.39456,-0.02342 0.58281,-0.03465 0.18826,-0.01127 0.34366,-0.01004 0.34537,0.0027 0.001,0.01267 -0.0285,0.06943 -0.067,0.12598 -0.0386,0.05658 -0.24539,0.360301 -0.45959,0.674961 -0.2142,0.314656 -0.42772,0.627393 -0.47448,0.694967 -0.0542,0.0784 -0.0752,0.149318 -0.0577,0.19599 0.0146,0.04027 0.16932,0.443415 0.34296,0.895976 0.17361,0.452568 0.3178,0.838855 0.32043,0.858418 0.003,0.01952 -0.42424,-0.09111 -0.94859,-0.245948 l -0.95337,-0.281486 -0.29223,0.241165 c -0.792547,0.654079 -1.187721,0.968906 -1.221968,0.973499 -0.02202,0.0029 -0.03663,-0.04575 -0.03503,-0.11654 0.0014,-0.06687 -3.19e-4,-0.205103 -0.0038,-0.30719 -0.01732,-0.487796 -0.04122,-1.312257 -0.04115,-1.416722 8.6e-5,-0.111165 -0.03662,-0.140453 -0.759541,-0.606759 -0.417792,-0.269478 -0.787979,-0.505761 -0.822627,-0.525074 -0.115606,-0.06444 -0.131131,-0.05751 1.053144,-0.471999 0.342896,-0.12001 0.649264,-0.229369 0.68081,-0.242981 0.03628,-0.01568 0.136653,-0.325592 0.273545,-0.845305 0.118917,-0.451298 0.236967,-0.880033 0.262307,-0.952757 l 0.0461,-0.132239 z"
       id="path5-6" /><path
       style="fill:#000000;fill-opacity:1;stroke-width:1.02636"
       d="m 66.090274,64.407832 c 0.33043,0.430129 0.61335,0.780366 0.628724,0.778304 0.01539,-0.0021 0.192563,-0.0097 0.393773,-0.01698 0.201222,-0.0073 0.47408,-0.01962 0.606377,-0.02744 0.132297,-0.0078 0.394561,-0.02342 0.582811,-0.03464 0.188254,-0.01127 0.34366,-0.01004 0.345369,0.0027 0.0013,0.01267 -0.02852,0.06943 -0.06698,0.125979 -0.03857,0.05658 -0.245392,0.360302 -0.459589,0.674962 -0.214204,0.314656 -0.42772,0.627393 -0.474478,0.694967 -0.05422,0.0784 -0.07516,0.149317 -0.05769,0.195989 0.01463,0.04027 0.16932,0.443416 0.342953,0.895977 0.173613,0.452567 0.317805,0.838855 0.320435,0.858418 0.0026,0.01952 -0.424244,-0.09111 -0.948587,-0.245949 l -0.953371,-0.281486 -0.292233,0.241166 c -0.792548,0.654079 -1.187723,0.968906 -1.221969,0.973499 -0.02202,0.0029 -0.03663,-0.04575 -0.03503,-0.11654 0.0014,-0.06687 -3.19e-4,-0.205104 -0.0038,-0.30719 -0.01732,-0.487796 -0.04122,-1.312257 -0.04115,-1.416722 8.5e-5,-0.111166 -0.03662,-0.140454 -0.759541,-0.606759 -0.417793,-0.269478 -0.787979,-0.505762 -0.822627,-0.525074 -0.115607,-0.06444 -0.131131,-0.05751 1.053144,-0.472 0.342895,-0.120009 0.649263,-0.229369 0.680809,-0.242981 0.03628,-0.01568 0.136654,-0.325591 0.273545,-0.845305 0.118917,-0.451297 0.236964,-0.880032 0.26231,-0.952756 l 0.04609,-0.132239 z"
       id="path5-4" /><path
       id="path25"
       style="fill:#000000;fill-opacity:1;stroke-width:0.775973"
       d="m 61.485501,34.088592 c 0.0084,0.0023 0.09684,-0.03004 0.196674,-0.07149 0.09986,-0.04134 0.253609,-0.100308 0.341721,-0.130998 0.08815,-0.03069 0.224911,-0.08138 0.30407,-0.112498 0.0791,-0.03117 0.210457,-0.0788 0.291762,-0.105877 0.08124,-0.02716 0.195007,-0.06762 0.252638,-0.0902 0.238237,-0.09328 0.792156,-0.283745 1.578168,-0.542746 2.140642,-0.705311 3.880315,-1.104 4.941826,-1.132522 1.553645,-0.04177 1.822155,0.659652 0.757223,1.978094 -0.677015,0.838192 -1.738124,1.811802 -3.314511,3.04121 -0.240104,0.187246 -0.472404,0.366793 -0.516255,0.398976 -0.04389,0.03212 -0.207018,0.154128 -0.362604,0.270994 -0.25903,0.194557 -0.530192,0.392146 -1.18686,0.864774 -0.322717,0.23228 -0.725196,0.513897 -1.119315,0.783207 -0.178832,0.122204 -0.408696,0.279457 -0.510788,0.349475 -0.1021,0.07003 -0.254436,0.172063 -0.338536,0.226781 -0.152365,0.09912 -0.369702,0.368789 -1.317572,1.634716 -0.10702,0.14294 -0.299795,0.397364 -0.428375,0.565372 -0.128579,0.167987 -0.317265,0.416677 -0.419312,0.552605 -0.102064,0.135942 -0.479032,0.634058 -0.837721,1.106937 -0.358702,0.472893 -0.735739,0.970886 -0.837887,1.106662 -0.102122,0.135778 -0.487483,0.64495 -0.856345,1.131509 -0.368865,0.486554 -0.77768,1.028082 -0.908496,1.203395 -0.130802,0.175316 -0.241236,0.320543 -0.245406,0.322743 -0.0045,0.0023 -0.122792,0.158684 -0.263591,0.34773 -0.140797,0.189039 -0.344549,0.458824 -0.452779,0.599508 -0.108238,0.14069 -0.288501,0.378383 -0.400594,0.528212 -0.112104,0.149836 -0.308985,0.409912 -0.437539,0.577961 -0.128531,0.168052 -0.308831,0.405702 -0.40064,0.52812 -0.185858,0.24783 -0.544409,0.721686 -1.144822,1.512954 -0.220379,0.290429 -0.484165,0.639278 -0.586205,0.77522 -0.102052,0.135948 -0.424478,0.562301 -0.716516,0.947456 -0.73156,0.964823 -0.799752,1.055054 -1.039176,1.374975 -0.115699,0.154595 -0.213643,0.282826 -0.217659,0.284949 -0.0045,0.0023 -0.103175,0.13229 -0.220329,0.289252 -0.117167,0.156985 -0.526113,0.69834 -0.908737,1.203035 -0.382647,0.504697 -0.758418,1.000859 -0.835075,1.102593 -0.589145,0.781885 -1.38186,1.827187 -1.388229,1.830547 -0.0045,0.0022 -0.146253,0.191022 -0.315533,0.419494 -0.169272,0.228465 -0.31129,0.417255 -0.315595,0.419526 -0.0045,0.0023 -0.09401,0.119501 -0.199374,0.260505 -0.179439,0.24016 -0.410757,0.545933 -1.476837,1.952234 -0.44388,0.585542 -1.664349,2.198373 -2.699227,3.566998 -0.327521,0.433155 -0.654228,0.86487 -0.726013,0.959372 -0.07184,0.0945 -0.193325,0.254859 -0.270106,0.356355 -0.711284,0.940257 -0.972722,1.280568 -0.991328,1.290395 -0.02417,0.01273 -0.418647,-0.749682 -2.183483,-4.220061 -0.644563,-1.267485 -1.288919,-2.527295 -1.431881,-2.799475 -0.143022,-0.272147 -0.587089,-1.139916 -0.987089,-1.928242 -0.399976,-0.788341 -1.07529,-2.110027 -1.500737,-2.937063 l -0.773588,-1.503681 -0.110944,0.0506 c -0.06109,0.02779 -0.216708,0.09272 -0.345989,0.144172 -0.12927,0.05146 -0.316206,0.128414 -0.415468,0.170896 -0.09926,0.04247 -0.27477,0.114108 -0.39007,0.159104 -0.11525,0.04516 -0.273893,0.108295 -0.352541,0.140453 -0.428573,0.175432 -1.441632,0.566087 -2.126972,0.820242 -0.109011,0.04048 -0.251524,0.09382 -0.316684,0.118531 -0.06516,0.02472 -0.184929,0.06733 -0.266231,0.0944 -0.08122,0.02726 -0.206793,0.07225 -0.27889,0.100327 -0.07223,0.02783 -0.192204,0.06994 -0.26682,0.09322 -0.07458,0.02326 -0.188692,0.06311 -0.253402,0.08875 -0.06476,0.0255 -0.178904,0.0652 -0.253662,0.08821 -0.07474,0.02311 -0.189671,0.06132 -0.255436,0.08487 -0.585133,0.210724 -2.071237,0.65227 -2.813949,0.836151 -2.192605,0.542707 -3.449616,0.554407 -3.79621,0.03535 -0.07337,-0.109931 -0.08768,-0.156139 -0.09203,-0.297023 -0.0226,-0.732052 1.099033,-2.036908 3.239088,-3.768193 0.600505,-0.485806 0.924809,-0.744165 1.061291,-0.845494 0.03747,-0.0278 0.195301,-0.146407 0.350751,-0.263499 0.155464,-0.117118 0.329123,-0.246103 0.38596,-0.286635 0.05676,-0.04057 0.195252,-0.141989 0.307649,-0.225393 0.291417,-0.216344 0.532094,-0.39108 0.63971,-0.464461 0.165811,-0.113055 0.298784,-0.209444 0.346019,-0.250841 0.04341,-0.03802 0.05375,-0.0289 0.169216,0.149664 0.06769,0.104563 0.1266,0.198386 0.131085,0.208409 0.0045,0.01005 -0.167804,0.17823 -0.382718,0.373717 -1.025729,0.933018 -1.581287,1.672504 -1.57528,2.096804 0.002,0.140867 0.0802,0.301032 0.181307,0.371321 0.214841,0.149421 0.729911,0.173523 1.37564,0.06439 0.524415,-0.08862 1.472201,-0.33991 2.109699,-0.559368 0.05142,-0.01772 0.154677,-0.05129 0.229395,-0.07437 0.152225,-0.04723 0.137741,-0.04195 0.810814,-0.290091 0.541354,-0.199602 0.902274,-0.336138 1.080043,-0.408702 0.06436,-0.02628 0.228672,-0.09219 0.36508,-0.14663 0.136478,-0.05425 0.318006,-0.128002 0.40344,-0.163749 0.08545,-0.03564 0.266594,-0.110141 0.402551,-0.165413 0.135956,-0.05524 0.339447,-0.141252 0.45221,-0.191104 0.112722,-0.04987 0.32182,-0.138735 0.46457,-0.197582 0.142757,-0.05886 0.357056,-0.15131 0.476243,-0.205442 0.119155,-0.05417 0.378249,-0.169535 0.575666,-0.256531 0.906205,-0.399306 3.30868,-1.510328 3.492877,-1.615359 0.01994,-0.01152 0.275158,-0.134315 0.566943,-0.27308 0.291794,-0.138736 0.795011,-0.384346 1.11826,-0.545801 0.323301,-0.161374 1.017234,-0.503704 1.542155,-0.760597 1.291548,-0.63198 8.611573,-4.498079 9.885473,-5.22106 0.521625,-0.296037 1.184573,-0.670133 1.473205,-0.831321 0.288619,-0.161193 0.78596,-0.444855 1.105198,-0.630375 0.319239,-0.185509 0.733167,-0.425159 0.919839,-0.532522 0.720523,-0.414441 2.267543,-1.341614 2.90498,-1.741042 0.169794,-0.106387 0.411105,-0.255428 0.536258,-0.331165 0.125162,-0.07573 0.327739,-0.20383 0.450186,-0.284668 0.122453,-0.08083 0.308358,-0.20015 0.413104,-0.26514 0.104758,-0.06499 0.290457,-0.184667 0.412679,-0.265936 0.122238,-0.08126 0.296935,-0.194808 0.388233,-0.25237 0.09129,-0.05754 0.24393,-0.159044 0.33919,-0.225553 0.09524,-0.06652 0.236639,-0.16237 0.314187,-0.213032 0.15811,-0.103303 0.290821,-0.196049 0.934968,-0.653488 0.595755,-0.42306 0.591992,-0.420348 0.719941,-0.522001 0.06122,-0.04863 0.141867,-0.111411 0.179195,-0.139463 1.422873,-1.069929 2.319917,-2.021848 2.377759,-2.523206 0.06804,-0.589891 -0.63909,-0.745153 -2.141171,-0.470106 -0.345691,0.06331 -1.30226,0.294105 -1.636279,0.394755 l -0.159918,0.04826 -0.03236,-0.09837 c -0.01795,-0.05406 -0.05441,-0.140104 -0.08104,-0.191191 -0.04648,-0.08864 -0.04501,-0.09479 0.03372,-0.136345 0.04519,-0.02395 0.08922,-0.04178 0.09757,-0.03966 z m -4.669209,16.843024 c -0.02071,0.106456 -0.108061,0.504885 -0.193966,0.885316 -0.08592,0.380433 -0.183293,0.815492 -0.216371,0.966796 -0.03311,0.151323 -0.104522,0.473897 -0.158743,0.716861 -0.116174,0.520605 -0.233698,1.051089 -0.317572,1.433514 -0.0798,0.363793 -0.40319,1.821113 -0.502016,2.262242 -0.04307,0.192237 -0.113382,0.50672 -0.156264,0.698858 -0.04287,0.192135 -0.141134,0.632217 -0.218375,0.97797 -0.07723,0.345749 -0.194801,0.875789 -0.261263,1.177871 -0.06646,0.302073 -0.134383,0.607582 -0.150942,0.678898 -0.02694,0.116149 -0.261956,1.172471 -0.522926,2.350687 -0.05249,0.236944 -0.147247,0.663904 -0.210588,0.948801 -0.06333,0.284891 -0.156065,0.703167 -0.206075,0.929489 -0.05001,0.226323 -0.15716,0.709609 -0.238126,1.073968 -0.164354,0.739611 -0.211656,0.952641 -0.608148,2.739111 -0.152971,0.689222 -0.289905,1.302021 -0.30431,1.361778 -0.01441,0.05979 -0.117412,0.52663 -0.228924,1.037503 -0.11152,0.510872 -0.221118,1.003304 -0.243563,1.094283 -0.02249,0.09099 -0.08399,0.36528 -0.13677,0.609547 -0.05277,0.244267 -0.157346,0.71834 -0.232371,1.053488 -0.233184,1.041693 -0.399471,1.78881 -0.534094,2.399734 -0.103971,0.471865 -0.101663,0.46351 -0.126059,0.455977 -0.01664,-0.0052 -0.603264,-0.45332 -1.108547,-0.846992 -0.292158,-0.227631 -1.338285,-1.037586 -1.565345,-1.21197 -0.07375,-0.05667 -0.226066,-0.175347 -0.338426,-0.26377 -0.112329,-0.08844 -0.275942,-0.21538 -0.363478,-0.282144 -0.08757,-0.06674 -0.38811,-0.299167 -0.667924,-0.516457 -0.628812,-0.488327 -2.033819,-1.577304 -2.231322,-1.729444 -0.71088,-0.547599 -1.002475,-0.773342 -1.177107,-0.911293 -0.112139,-0.08854 -0.269783,-0.211521 -0.350385,-0.273256 -0.08061,-0.06174 -0.277715,-0.213655 -0.437992,-0.337617 l -0.419529,-0.324458 -0.128093,-0.09907 0.04407,-0.05106 c 0.02419,-0.02803 0.152171,-0.196547 0.284259,-0.374345 0.132085,-0.177799 0.353531,-0.472188 0.492098,-0.654175 0.307196,-0.403441 1.038796,-1.368483 1.229548,-1.621853 0.07664,-0.101795 0.64221,-0.848721 1.256874,-1.659871 0.614646,-0.81114 1.192744,-1.574809 1.284643,-1.697036 0.0919,-0.122226 0.22831,-0.301822 0.30312,-0.399102 l 0.136003,-0.176875 0.08696,0.07091 c 0.04787,0.03901 0.203473,0.169454 0.345804,0.289911 l 0.258766,0.219025 -0.04925,0.523724 c -0.02708,0.288045 -0.08297,0.871852 -0.124159,1.297342 -0.07098,0.733272 -0.07687,0.831031 -0.04701,0.781559 0.007,-0.01154 0.158838,-0.107719 0.337521,-0.213744 0.178678,-0.106038 0.344752,-0.209039 0.369045,-0.228868 0.02425,-0.01999 0.146519,-0.0981 0.271638,-0.173898 0.506306,-0.306858 0.613027,-0.373085 0.678412,-0.421087 0.03755,-0.02763 0.176058,-0.115717 0.307711,-0.195814 l 0.239367,-0.145677 1.207139,0.524443 c 0.663921,0.288448 1.204248,0.5126 1.200723,0.498124 -0.0033,-0.01474 -0.145611,-0.578626 -0.315798,-1.253644 -0.170094,-0.675047 -0.306581,-1.243327 -0.303168,-1.262886 0.0036,-0.01957 0.393016,-0.474218 0.865788,-1.010354 0.853467,-0.967856 0.858968,-0.974848 0.772244,-0.980622 -0.683233,-0.04546 -1.962775,-0.135021 -2.209463,-0.154664 l -0.318485,-0.02536 -0.102795,-0.157814 c -0.09697,-0.148836 -0.718401,-1.206434 -0.804531,-1.369182 -0.0453,-0.08584 -0.06569,-0.05252 0.431857,-0.708286 0.163991,-0.216147 0.35669,-0.470685 0.428233,-0.565634 0.07154,-0.09497 0.255738,-0.338679 0.409322,-0.541626 0.153586,-0.202943 0.354554,-0.468749 0.446616,-0.590692 0.09205,-0.121918 0.27246,-0.359359 0.400909,-0.527602 0.128444,-0.168257 0.34884,-0.460818 0.489761,-0.650169 0.14092,-0.189356 0.259245,-0.345876 0.262937,-0.347825 0.0036,-0.0019 0.109855,-0.141381 0.235927,-0.309814 0.126074,-0.168461 0.275481,-0.366786 0.332031,-0.440744 0.05652,-0.07398 0.241037,-0.31714 0.409968,-0.540388 0.168935,-0.223243 0.420394,-0.555077 0.558783,-0.737397 0.13839,-0.182319 0.322748,-0.425753 0.409666,-0.540962 0.08692,-0.115207 0.468294,-0.618465 0.847504,-1.118348 0.379203,-0.499882 0.790734,-1.044756 0.914511,-1.21084 0.322425,-0.432625 0.325692,-0.434985 0.280448,-0.202963 z M 56.482457,61.30941 c 0.01193,0.02002 0.02949,0.08171 0.0411,0.136387 0.01083,0.05497 0.102574,0.482925 0.203387,0.951218 0.100793,0.468292 0.276325,1.285866 0.390122,1.816817 0.113773,0.53096 0.386898,1.801931 0.606868,2.824401 0.21997,1.022471 0.615014,2.861981 0.877868,4.087799 0.262843,1.225821 0.530265,2.471347 0.594257,2.767849 0.06401,0.296493 0.176621,0.820161 0.25029,1.163704 0.386796,1.803719 0.579389,2.699555 0.698693,3.250014 0.07267,0.335369 0.129867,0.617671 0.127072,0.627331 -0.0027,0.01019 -0.01882,0.01008 -0.03508,0.0021 -0.0166,-0.0082 -0.125836,-0.03513 -0.243115,-0.05965 -0.117322,-0.0246 -0.222168,-0.04812 -0.23308,-0.05231 -0.02071,-0.0079 -1.860502,-0.41078 -2.30463,-0.504613 -0.380001,-0.08012 -1.990065,-0.432488 -2.627243,-0.574809 -0.305481,-0.06823 -0.733532,-0.163021 -0.951203,-0.210644 -0.21768,-0.04762 -0.526764,-0.115348 -0.686854,-0.150517 l -0.291062,-0.06394 0.01918,-0.09636 c 0.03289,-0.165264 0.33441,-1.513237 0.372842,-1.666611 0.02013,-0.08016 0.04454,-0.191238 0.05435,-0.24688 0.0099,-0.05565 0.02883,-0.09776 0.04227,-0.09364 0.01351,0.0043 0.01775,0.03599 0.01016,0.07063 -0.0079,0.03468 -0.02342,0.172094 -0.03444,0.305293 l -0.02001,0.242162 0.221048,-0.136823 c 0.121578,-0.07525 0.337957,-0.211701 0.480837,-0.303247 0.142881,-0.09153 0.373407,-0.234067 0.512256,-0.316766 l 0.252486,-0.150327 0.763715,0.338931 c 0.420058,0.186406 0.772289,0.334917 0.782732,0.330031 0.01062,-0.0049 0.01036,-0.02504 1.27e-4,-0.0449 -0.02638,-0.05044 -0.395325,-1.521288 -0.39483,-1.575067 2.64e-4,-0.04034 0.167635,-0.238021 0.863622,-1.020573 0.138548,-0.155771 0.240086,-0.286674 0.225659,-0.2909 -0.01447,-0.0042 -0.387644,-0.03216 -0.82936,-0.06209 -0.441708,-0.02992 -0.814171,-0.05826 -0.827699,-0.06293 -0.02107,-0.0073 -0.455461,-0.717191 -0.769952,-1.258413 -0.05433,-0.093 -0.104423,-0.177546 -0.111953,-0.187569 -0.0072,-0.01027 -0.104348,0.20704 -0.215322,0.482419 -0.110981,0.275392 -0.208305,0.498707 -0.216287,0.496259 -0.01467,-0.0045 0.01649,-0.153458 0.241396,-1.153044 0.0688,-0.30579 0.156536,-0.701586 0.194956,-0.879556 0.05708,-0.264412 0.33557,-1.523332 0.415078,-1.876356 0.01116,-0.04932 0.09366,-0.420052 0.183438,-0.82384 0.08979,-0.403786 0.197664,-0.88745 0.239727,-1.074814 0.04206,-0.187345 0.114146,-0.510454 0.160202,-0.718002 0.311533,-1.403955 0.408306,-1.839384 0.533211,-2.39899 0.161542,-0.723754 0.367755,-1.657464 0.394865,-1.787902 0.01273,-0.06108 0.02475,-0.07728 0.03888,-0.05194 z m 3.152744,6.506417 c 0.0069,0.01277 0.356531,0.444329 0.77732,0.959049 0.510605,0.624584 0.76119,0.948424 0.753407,0.973653 -0.0079,0.02528 0.01474,0.05139 0.06757,0.07871 0.05106,0.02631 0.274888,0.281213 0.628065,0.715068 0.301841,0.370799 0.870187,1.066266 1.262974,1.545492 0.392806,0.479216 0.913083,1.11473 1.156201,1.412245 0.49452,0.605196 2.202643,2.691709 2.486746,3.037643 0.101143,0.123158 0.192495,0.240119 0.202932,0.259961 0.02484,0.0461 -4.809856,1.241515 -4.835615,1.195635 -0.02806,-0.04926 -0.326309,-1.265576 -0.317122,-1.291773 0.0046,-0.01353 0.0368,0.04584 0.07133,0.131915 0.03435,0.08613 0.08887,0.22088 0.121364,0.299334 0.03257,0.07844 0.07262,0.183107 0.08891,0.232654 0.02378,0.06963 0.03484,0.08163 0.05204,0.05277 0.012,-0.02041 0.141723,-0.241173 0.288179,-0.490528 0.301081,-0.512625 0.243647,-0.469461 0.656169,-0.493132 0.640398,-0.0368 0.749184,-0.04764 0.73524,-0.07412 -0.01283,-0.02265 -0.632787,-0.741637 -0.693306,-0.80284 -0.01714,-0.01705 -0.01441,-0.09457 0.0062,-0.172169 0.104709,-0.400244 0.236625,-0.949528 0.228612,-0.952002 -0.01313,-0.0042 -0.509636,0.201051 -0.783389,0.323347 -0.270393,0.120891 -0.194024,0.143308 -0.789227,-0.232222 l -0.430851,-0.271848 0.04065,0.42633 c 0.02229,0.234487 0.03953,0.432867 0.0381,0.440868 -0.01308,0.07238 -0.07642,-0.154675 -0.328119,-1.168787 -0.61048,-2.462764 -1.198811,-4.830022 -1.35373,-5.447039 -0.08856,-0.353032 -0.15715,-0.657469 -0.152345,-0.676529 0.0055,-0.02131 0.01348,-0.02569 0.02112,-0.01126 z" /><path
       id="path56"
       style="fill:#c4ced4;fill-opacity:1;stroke-width:3.59841"
       d="m 40.819511,12.681229 c -0.312376,-0.02757 -0.693926,-0.04466 -1.171423,-0.05922 -1.245315,-0.03784 -3.002701,0.153276 -4.055277,0.44108 l -1.857435,0.507531 4.705826,0.279843 4.705825,0.279842 -0.650548,-0.720925 C 42.072415,12.939486 41.75663,12.764094 40.819508,12.681244 Z m 4.076527,0.383896 c -0.246854,-0.0042 -0.179016,0.146867 0.03491,0.533656 0.293302,0.53018 0.656195,0.656653 2.034427,0.709174 1.645737,0.0628 1.660188,0.05552 0.785164,-0.376355 -0.490591,-0.242123 -1.406024,-0.561163 -2.034426,-0.70917 -0.410893,-0.09678 -0.672012,-0.154838 -0.820119,-0.157295 z m 5.909434,2.964681 c -0.408217,-0.03143 -0.910403,-0.05256 -1.551261,-0.07353 -1.545119,-0.05056 -2.859605,-0.04614 -2.921669,0.0096 -0.06201,0.05577 0.08378,0.536397 0.323997,1.068119 0.39039,0.864142 0.582321,0.974295 1.810529,1.039385 1.818617,0.09638 5.715741,1.12848 7.200994,1.906853 0.653047,0.342244 1.255383,0.633491 1.338587,0.647577 0.285984,0.04817 -2.746181,-2.902382 -3.844028,-3.740602 -0.752116,-0.574159 -1.132498,-0.76313 -2.357153,-0.857355 z M 38.205837,15.699024 c -6.856966,-0.363362 -8.233345,-0.192579 -10.79313,1.337921 -3.568285,2.133504 -7.883112,8.835232 -8.100363,12.580575 -0.03761,0.650074 0.05648,0.600932 0.859085,-0.447748 4.40956,-5.761702 12.791775,-9.977248 21.828376,-10.976928 1.500701,-0.165999 2.78593,-0.353241 2.855826,-0.416105 0.0699,-0.06283 -0.01773,-0.482499 -0.194887,-0.933071 l -0.322311,-0.819623 z m 9.357982,3.894244 0.159141,0.978893 c 0.342112,2.104111 0.481976,2.27183 2.150678,2.583818 3.670962,0.686324 6.973883,3.831771 9.054501,8.622963 0.700695,1.613625 1.470714,3.836679 1.711334,4.940124 l 0.147956,0.679349 0.59734,-0.303494 0.0055,-0.03074 c 0.584697,-3.096619 -0.06658,-8.304504 -1.410978,-11.280526 -1.173565,-2.597824 -5.906274,-5.202086 -10.807257,-5.94646 z m -1.708066,0.325153 -1.920665,-0.046 c -3.600208,-0.08572 -7.659869,0.891133 -12.372489,2.977267 -6.852195,3.033267 -11.656954,7.936491 -12.480251,12.735396 -0.271134,1.580421 0.779933,5.491662 2.203696,8.201283 0.589528,1.121936 1.880273,2.974478 2.86859,4.116651 l 1.79694,2.076966 0.793942,-2.397306 c 1.02592,-3.098245 1.813401,-4.746263 4.609184,-9.646072 4.015076,-7.036715 5.298609,-9.000344 7.067938,-10.814523 1.785423,-1.830668 3.960959,-3.18329 6.040156,-3.754939 l 1.984215,-0.545664 -0.295643,-1.451242 z m 2.985496,4.752956 c -0.297018,-0.01408 -0.2703,0.177 -0.195023,0.68589 0.716122,4.844557 0.69999,13.145577 0.03944,18.198261 L 59.136597,38.238274 C 58.334482,32.185712 54.300176,26.163322 49.784942,24.894433 49.314279,24.762164 49.01946,24.679827 48.841249,24.671377 Z m -2.451682,0.221355 c -0.145667,-0.01981 -0.332905,-0.01807 -0.577784,-0.01107 -2.661604,0.07641 -6.056674,2.768286 -8.844764,7.012714 -4.282499,6.519398 -9.189045,16.373585 -9.312517,18.703606 -0.03392,0.638827 0.301678,0.93059 2.260374,1.967571 0.193609,0.102498 0.35347,0.17367 0.537167,0.267632 l 16.363569,-8.325809 c 0.685839,-3.831954 0.922065,-8.371164 0.610714,-13.217207 -0.140664,-2.188876 -0.329515,-4.533167 -0.420181,-5.209181 -0.117409,-0.876768 -0.179603,-1.128843 -0.616553,-1.188276 z" /><g
       id="g15"><path
         style="font-size:20.1042px;line-height:1;font-family:Titania;-inkscape-font-specification:Titania;text-align:center;letter-spacing:1.33818px;word-spacing:0px;text-anchor:middle;fill:#c4ced4;stroke-width:2.69474"
         d="m 83.991223,74.191013 q -0.74992,-0.83972 -1.71025,-0.979403 -1.04388,-0.172879 -1.85361,0.550255 -0.50983,0.455306 -0.69345,1.185334 -0.21683,0.813583 0.2117,1.293423 0.0268,0.02999 0.20568,0.139766 0.0616,-0.08195 0.19654,-0.202474 0.62979,-0.562438 1.59228,-0.209056 0.82376,0.288591 1.43977,0.978361 0.40174,0.44985 0.85977,1.415466 0.52179,1.097363 0.3708,1.501749 -1.49759,-0.711096 -2.60578,-1.257809 -1.12159,-0.561709 -1.87038,-0.917257 -0.44295,-0.224363 -0.67863,-0.337346 -0.23406,-0.141369 -0.27584,-0.157968 -0.0552,-0.03159 -0.22926,-0.226529 -0.52226,-0.584805 -0.53998,-1.027199 -2.00452,1.709285 -3.02418,2.619898 -0.46485,0.415133 -0.61961,0.634205 1.02191,0.05773 1.7889,0.343115 0.22228,0.09799 1.30369,0.614712 1.08141,0.516723 3.05034,1.453786 3.82591,1.839324 3.86609,1.884309 0.0134,0.01499 0.21859,0.667319 0.19342,0.608943 0.43446,0.878853 0.20087,0.224925 0.46653,0.311125 0.27906,0.101196 0.57952,0.07545 0.30046,-0.02574 0.57735,-0.138245 0.29188,-0.125896 0.51681,-0.326766 0.5601,-1.093199 1.12991,-1.602071 0.28491,-0.254436 0.51841,-0.355152 0.015,-0.01339 0.10176,-0.03697 0.0868,-0.02358 0.18852,-0.06054 0.11515,-0.02197 0.18852,-0.06054 0.10176,-0.03697 0.13175,-0.06375 0.10496,-0.09374 -0.20304,-0.438625 -0.24104,-0.26991 -0.54528,-0.429482 -0.28923,-0.172963 -0.61487,-0.205598 -0.31065,-0.04603 -0.62771,0.02149 -0.30367,0.08251 -0.55859,0.310168 -0.53982,0.482089 -0.58472,1.276907 -0.0299,0.781427 -0.20984,0.942124 -0.11996,0.107131 -0.34545,0.06591 -0.18748,-0.20993 -0.24963,-0.370064 -0.14786,-0.407031 -0.15974,-1.205056 -0.0108,-0.313854 -0.0215,-0.627708 -0.0108,-0.313854 -0.0215,-0.627707 -0.0382,-1.340574 -0.0988,-2.283739 -0.074,-0.95816 -0.16888,-1.547297 -0.38266,-2.299775 -1.42719,-3.469385 z"
         id="path15" /><path
         style="font-size:20.1042px;line-height:1;font-family:Titania;-inkscape-font-specification:Titania;text-align:center;letter-spacing:1.33818px;word-spacing:0px;text-anchor:middle;fill:#c4ced4;stroke-width:2.69474"
         d="m 77.485863,85.349464 q -0.91443,-1.790421 -2.90188,-1.836367 -0.39581,-0.02359 -1.23962,0.136476 -0.8438,0.160065 -2.13598,0.458832 -1.7497,0.419565 -2.08804,-0.242891 -0.2286,-0.447605 0.0552,-0.908583 0.23045,-0.388592 0.71387,-0.635488 1.2712,-0.649244 1.68269,0.156445 0.064,0.12533 0.18404,0.492943 0.50593,0.283392 1.47275,-0.210399 0.80569,-0.411493 1.07648,-1.339902 0.27994,-0.910505 -0.1407,-1.734099 0,0 -0.0545,-0.06247 -0.0366,-0.07162 -0.12764,-0.205706 -0.42893,0.309368 -0.71501,0.500629 -0.26818,0.182117 -0.37561,0.236983 -0.48341,0.246896 -1.53254,0.579549 -1.04912,0.332654 -1.53254,0.57955 -1.45024,0.740687 -2.1591,1.96056 -0.80638,1.382548 -0.0931,2.779077 0.8687,1.7009 2.88205,1.620747 0.045,-3.84e-4 0.89751,-0.187498 0.85257,-0.187113 2.56684,-0.543437 1.84875,-0.402429 2.35168,0.582303 0.22861,0.447606 0.0526,0.89867 -0.17596,0.451065 -0.62357,0.679672 -0.66246,0.338339 -2.33793,-0.02497 -1.67547,-0.363305 -2.53487,0.07562 -0.30437,0.155453 -0.52683,0.427091 -0.21369,0.24459 -0.31881,0.569172 -0.11427,0.306677 -0.12034,0.648395 0.0118,0.332573 0.16729,0.636945 0.42978,0.841498 0.86901,0.684892 0.1752,-0.54097 0.71233,-0.815299 0.68036,-0.347483 2.05368,-0.61997 1.37333,-0.272487 2.05369,-0.61997 1.34281,-0.685821 1.89776,-2.030255 0.5641,-1.32653 -0.13087,-2.68725 z"
         id="path14" /><path
         style="font-size:20.1042px;line-height:1;font-family:Titania;-inkscape-font-specification:Titania;text-align:center;letter-spacing:1.33818px;word-spacing:0px;text-anchor:middle;fill:#c4ced4;stroke-width:2.69474"
         d="m 68.256443,93.146197 q -0.71263,-1.077505 -0.85193,-1.705575 l -0.91856,-4.14134 q -0.50935,-2.296382 -1.65392,-2.90741 -1.06828,-0.545579 -3.38429,-0.03188 -0.2159,0.04789 -0.64556,0.24615 -0.24209,0.115475 -0.3904,0.189557 -0.15267,0.05445 -0.24645,0.09585 -0.36421,0.121968 -0.87017,0.254783 -0.50595,0.132815 -1.1929,0.285183 l -0.23553,0.05224 q -0.0981,0.02177 -0.24423,0.01299 -0.13082,-0.03276 -0.25729,-0.0459 -0.13083,-0.03276 -0.2573,-0.0459 -0.11119,-0.03712 -0.13082,-0.03276 -0.0393,0.0087 -0.004,0.165725 0.23508,1.059869 0.95221,1.786298 0.83482,0.88566 1.83581,0.663638 0.37291,-0.08271 0.85931,-0.396527 0.63472,-0.387894 0.57812,-0.643048 -0.0305,-0.13739 -0.1765,-0.331523 -0.15037,-0.213759 -0.18085,-0.35115 -0.14801,-0.667325 0.67633,-0.850166 1.02062,-0.226375 1.30794,1.06902 0.12625,0.569189 -0.36893,1.029099 0,0 -0.24867,0.178711 -0.23338,0.154729 -0.6958,0.483816 -0.60638,0.422795 -1.33487,0.852084 -1.09492,0.634119 -1.67533,1.54538 -0.63279,1.046439 -0.37594,2.204444 0.28297,1.275764 1.45809,1.838834 1.06392,0.52595 2.37895,0.23428 1.35427,-0.30039 2.33608,-1.630164 l 0.44456,0.704514 z"
         id="path12" /><path
         style="font-size:20.1042px;line-height:1;font-family:Titania;-inkscape-font-specification:Titania;text-align:center;letter-spacing:1.33818px;word-spacing:0px;text-anchor:middle;fill:#c4ced4;stroke-width:2.69474"
         d="m 55.770843,93.249704 q -0.72317,0.203119 -0.68296,0.203004 -0.84438,0.0024 -0.84634,-0.681116 -2.9e-4,-0.10052 0.0193,-0.281515 0.0196,-0.180995 0.0194,-0.261411 l -0.0167,-5.830194 1.4475,-0.0042 -0.003,-1.045414 -1.4475,0.0042 -0.002,-0.542811 q -0.002,-0.763956 0.27684,-1.609137 0.35893,-1.02635 0.96153,-1.209018 l 0.0393,-0.321782 -0.34177,9.82e-4 -0.18093,5.19e-4 q -0.42219,0.0012 -1.04438,0.364876 -0.60214,0.343502 -0.94287,0.706358 -0.58123,0.624902 -1.34155,1.893655 -0.0999,0.201329 -0.2803,0.40289 -0.18042,0.181457 -0.40093,0.403237 -0.22069,0.161468 -0.42121,0.342983 -0.20052,0.181514 -0.4011,0.342924 l -0.0194,0.241307 q 0.10052,-2.88e-4 0.2814,-0.02091 0.18088,-0.02062 0.2814,-0.02091 0.14073,-4.05e-4 0.2011,0.01953 l 5.8e-4,0.201042 0.0587,6.453306 q 0.001,0.522707 0.0825,0.74362 0.26366,0.80342 0.90838,1.28407 0.66476,0.46049 1.52924,0.458 1.04541,-0.003 1.62682,-0.56759 0.5814,-0.56459 0.63854,-1.670486 z"
         id="path11" /><path
         style="font-size:20.1042px;line-height:1;font-family:Titania;-inkscape-font-specification:Titania;text-align:center;letter-spacing:1.33818px;word-spacing:0px;text-anchor:middle;fill:#c4ced4;stroke-width:2.69474"
         d="m 47.813553,95.21934 q -0.34547,-0.77492 -0.13993,-1.717773 0.0471,-0.216071 0.11562,-0.530357 0.0685,-0.314286 0.18236,-0.742147 l 0.27834,-1.276785 0.49245,-2.258929 q 0.15844,-0.726786 0.0598,-1.406744 -0.079,-0.675675 -0.39733,-1.197743 -0.31401,-0.541712 -0.84763,-0.925534 -0.53362,-0.383822 -1.2604,-0.542262 -1.65,-0.359701 -2.66947,0.446873 l 0.19269,-0.883929 -3.73214,-0.81361 q 0.16916,1.394918 -0.006,2.200276 l -1.30178,5.971429 q -0.23123,1.060715 -0.84649,1.523303 l 4.20357,0.916382 q -0.33868,-0.711699 -0.13313,-1.654557 0.0814,-0.373214 0.19698,-0.903571 0.1199,-0.55 0.29798,-1.272504 l 0.4796,-2.2 0.29547,-1.355358 q 0.17883,-0.537153 0.62912,-0.809364 0.45458,-0.291853 1.00458,-0.171953 0.47143,0.102772 0.68471,0.540219 0.23721,0.422086 0.13443,0.893515 -0.0856,0.392857 -0.20982,0.9625 -0.12419,0.569643 -0.27583,1.359639 -0.15164,0.789997 -0.27583,1.35964 -0.12418,0.569643 -0.20982,0.9625 -0.4325,1.983929 -1.1213,2.595094 0.33393,0.0728 0.86429,0.18842 0.53036,0.11562 1.21357,0.28513 z"
         id="path10" /><path
         style="font-size:20.1042px;line-height:1;font-family:Titania;-inkscape-font-specification:Titania;text-align:center;letter-spacing:1.33818px;word-spacing:0px;text-anchor:middle;fill:#c4ced4;stroke-width:2.69474"
         d="m 35.552203,92.085511 q 0.14136,-1.284085 0.43598,-1.855992 l 1.94265,-3.771015 q 1.0772,-2.091037 0.58816,-3.292803 -0.47226,-1.102656 -2.58117,-2.189068 -0.19659,-0.101275 -0.65368,-0.223673 -0.25996,-0.06607 -0.42135,-0.103984 -0.15219,-0.05578 -0.25075,-0.08394 -0.35799,-0.139186 -0.83187,-0.360693 -0.47388,-0.221507 -1.09941,-0.543747 l -0.21446,-0.110483 q -0.0894,-0.04603 -0.19605,-0.146227 -0.0796,-0.108857 -0.16843,-0.199843 -0.0796,-0.108857 -0.16843,-0.199843 -0.0617,-0.09965 -0.0796,-0.108857 -0.0357,-0.01841 -0.1094,0.124563 -0.49717,0.965094 -0.41052,1.98218 0.0753,1.214763 0.98675,1.684314 0.33957,0.17493 0.91419,0.244795 0.736,0.107775 0.85569,-0.124562 0.0644,-0.125105 0.0764,-0.367733 0.0211,-0.260499 0.0856,-0.385604 0.31304,-0.607652 1.06367,-0.220963 0.92935,0.478758 0.32169,1.658317 -0.267,0.518291 -0.94181,0.555117 0,0 -0.30545,-0.02166 -0.27837,-0.03033 -0.84432,-0.07312 -0.73655,-0.06282 -1.57112,-0.198762 -1.24726,-0.212842 -2.27626,0.116437 -1.15573,0.399684 -1.69894,1.454138 -0.59844,1.161687 -0.0552,2.346122 0.48147,1.084785 1.6789,1.701646 1.23317,0.635274 2.83842,0.241006 l -0.10886,0.825909 z"
         id="path8" /><path
         style="font-size:20.1042px;line-height:1;font-family:Titania;-inkscape-font-specification:Titania;text-align:center;letter-spacing:1.33818px;word-spacing:0px;text-anchor:middle;fill:#c4ced4;stroke-width:2.69474"
         d="m 31.271793,79.428615 q 0.40537,-0.556211 0.9883,-1.304203 0.58292,-0.747992 1.36963,-1.745679 l -8.15803,-7.553018 q -0.19608,1.188338 -1.05655,2.117734 l -6.133656,6.595378 q -0.245849,0.265542 -0.888351,0.574811 -0.614092,0.308175 -0.982336,0.350808 l 3.556402,3.320052 q 0.03551,-0.18631 0.07101,-0.37262 0.04916,-0.201062 0.08467,-0.387372 0.07429,-0.287388 0.443065,-0.6857 l 0.204874,-0.221285 q 0.08304,-0.0601 0.137676,-0.119113 0.05463,-0.05901 0.08195,-0.08851 l 1.816548,-1.962057 q 0.682913,-0.737616 1.089944,-0.881327 0.560554,-0.220756 1.239154,0.407524 0.16228,0.150241 0.35625,0.38462 0.20872,0.248037 0.47864,0.607528 0.26991,0.359491 0.49339,0.621186 0.23713,0.246942 0.41416,0.410842 1.07692,0.997053 2.18493,0.954385 1.02278,-0.03939 1.41887,-0.467204 0.0819,-0.08851 0.0639,-0.187403 -0.62394,0.05248 -1.43532,-0.698725 -0.11802,-0.109266 -0.34258,-0.399372 -0.22457,-0.290105 -0.5841,-0.759956 -0.42072,-0.581306 -0.96656,-1.086661 -1.01791,-0.94242 -2.56683,-0.897 0.17646,-0.22019 0.47695,-0.544741 0.30048,-0.324551 0.69657,-0.752368 0.0273,-0.02951 0.51901,-0.560588 0.4917,-0.531084 1.46253,-1.550087 0.22019,0.176463 0.41197,0.35402 0.19178,0.177558 0.36881,0.341457 1.5785,1.461434 2.21069,2.731687 0.78738,1.605709 0.4744,3.452961 z"
         id="text8" /><path
         style="fill:#0077c0;fill-opacity:1;stroke-width:0.834407"
         d="m 62.653137,89.362076 c 0.225707,0.378813 0.420683,0.688588 0.433292,0.688393 0.0126,-1.96e-4 0.156392,0.01057 0.319532,0.0239 0.163157,0.01333 0.384628,0.02943 0.492185,0.03577 0.107548,0.0065 0.320784,0.01878 0.473835,0.02764 0.153067,0.0089 0.278412,0.02472 0.278583,0.03512 -1.22e-4,0.01033 -0.02967,0.05333 -0.0661,0.09531 -0.03658,0.04203 -0.23252,0.267461 -0.435496,0.501054 -0.202976,0.233584 -0.40522,0.465689 -0.449421,0.515777 -0.05122,0.05813 -0.07496,0.113377 -0.06528,0.152725 0.0081,0.0339 0.09437,0.374157 0.191342,0.756109 0.09696,0.381961 0.176489,0.707599 0.176741,0.723639 2.44e-4,0.01602 -0.333808,-0.114061 -0.742362,-0.289127 l -0.742824,-0.318288 -0.258958,0.166806 c -0.702314,0.452405 -1.051414,0.668852 -1.079503,0.669291 -0.01805,2.28e-4 -0.0252,-0.04041 -0.01715,-0.09744 0.0073,-0.05382 0.01935,-0.16562 0.02626,-0.248373 0.0326,-0.395472 0.09201,-1.063389 0.102036,-1.147719 0.01065,-0.08975 -0.01618,-0.11689 -0.555287,-0.562385 -0.311573,-0.257453 -0.587888,-0.483558 -0.614017,-0.50246 -0.08718,-0.06309 -0.100378,-0.05894 0.895323,-0.280518 0.288298,-0.06414 0.546085,-0.123198 0.572848,-0.131174 0.03081,-0.0092 0.141417,-0.249818 0.301557,-0.65634 0.139092,-0.353002 0.275331,-0.687871 0.302736,-0.744165 l 0.04984,-0.102362 z"
         id="path5-48" /><path
         style="fill:#0077c0;fill-opacity:1;stroke-width:0.834407"
         d="m 34.276633,85.477211 c -0.07676,0.434224 -0.131666,0.796111 -0.121995,0.804204 0.0097,0.0081 0.111456,0.110217 0.226215,0.226933 0.114772,0.116728 0.271868,0.273665 0.349128,0.348762 0.07715,0.07521 0.230509,0.223877 0.340554,0.330616 0.110031,0.106779 0.194558,0.200678 0.18789,0.208661 -0.0068,0.0077 -0.05731,0.02097 -0.112321,0.02893 -0.05516,0.0079 -0.350793,0.05045 -0.65709,0.09458 -0.30629,0.04412 -0.61106,0.0876 -0.677251,0.09662 -0.07676,0.01052 -0.130835,0.03682 -0.149227,0.07292 -0.01603,0.03095 -0.173123,0.344858 -0.349372,0.697316 -0.176263,0.352457 -0.328909,0.650896 -0.339202,0.6632 -0.01027,0.01227 -0.178092,-0.3045 -0.372879,-0.70403 l -0.354169,-0.726402 -0.305017,-0.043 c -0.827236,-0.116625 -1.232914,-0.180984 -1.254461,-0.19901 -0.01381,-0.01162 0.0073,-0.04705 0.05068,-0.08492 0.04069,-0.03595 0.122894,-0.112702 0.182209,-0.170815 0.28315,-0.278002 0.764663,-0.744683 0.827369,-0.801955 0.06672,-0.06097 0.06415,-0.09904 -0.05269,-0.788571 -0.06754,-0.398494 -0.128889,-0.750219 -0.13631,-0.781602 -0.02475,-0.10473 -0.03745,-0.110215 0.860965,0.37287 0.260119,0.139886 0.493823,0.263676 0.519292,0.275132 0.02933,0.01317 0.27031,-0.09664 0.657212,-0.299651 0.335991,-0.176258 0.657972,-0.340657 0.715507,-0.365351 l 0.104624,-0.0449 z"
         id="path5-48-2" /></g></g></svg>
