<?xml version="1.0" encoding="UTF-8" standalone="no"?>
<!-- Created with Inkscape (http://www.inkscape.org/) -->

<svg
   width="105.83334mm"
   height="105.83334mm"
   viewBox="0 0 105.83333 105.83333"
   version="1.1"
   id="svg1"
   xml:space="preserve"
   inkscape:version="1.4 (e7c3feb100, 2024-10-09)"
   sodipodi:docname="philadelphia.svg"
   xmlns:inkscape="http://www.inkscape.org/namespaces/inkscape"
   xmlns:sodipodi="http://sodipodi.sourceforge.net/DTD/sodipodi-0.dtd"
   xmlns="http://www.w3.org/2000/svg"
   xmlns:svg="http://www.w3.org/2000/svg"><sodipodi:namedview
     id="namedview1"
     pagecolor="#ffffff"
     bordercolor="#000000"
     borderopacity="0.25"
     inkscape:showpageshadow="2"
     inkscape:pageopacity="0.0"
     inkscape:pagecheckerboard="0"
     inkscape:deskcolor="#d1d1d1"
     inkscape:document-units="mm"
     inkscape:zoom="1.2084098"
     inkscape:cx="268.53472"
     inkscape:cy="146.47348"
     inkscape:window-width="1920"
     inkscape:window-height="1011"
     inkscape:window-x="0"
     inkscape:window-y="32"
     inkscape:window-maximized="1"
     inkscape:current-layer="layer1"
     showgrid="false" /><defs
     id="defs1" /><g
     inkscape:label="Capa 1"
     inkscape:groupmode="layer"
     id="layer1"><g
       id="g3"
       transform="translate(11.768614,-0.44460068)"><path
         style="fill:#ffffff;fill-opacity:1;stroke-width:2.73403"
         d="M 3.4716491,3.9499284 78.824466,4.2501398 V 55.586125 L 69.818159,71.797491 43.099427,88.309064 33.192484,85.907379 11.877542,70.596647 3.7718599,55.886333 Z"
         id="path2" /><g
         id="g2"
         transform="matrix(2.7422532,0,0,2.7422532,30.257308,-6.2755141)"
         style="fill:#043a5c;fill-opacity:1"><g
           id="g1"
           transform="translate(-11.114297,-0.22228594)"
           style="fill:#043a5c;fill-opacity:1"><path
             style="fill:#043a5c;fill-opacity:1"
             d="M 13.858092,35.017899 C 10.95678,33.920905 8.7296038,32.737404 6.7037588,31.216151 5.6256438,30.406569 3.8299928,28.588807 3.1295058,27.597884 2.0563238,26.079741 1.2724888,24.333506 0.84351183,22.505128 c -0.184268,-0.785386 -0.185939,-0.864249 -0.213571,-10.083743 l -0.02785,-9.2921674 H 15.085757 29.569424 l -0.02785,9.2921674 c -0.02757,9.197984 -0.02972,9.300121 -0.212172,10.077061 -1.339998,5.70608 -5.800407,9.91407 -13.440124,12.679534 -0.446557,0.161647 -0.819556,0.292597 -0.828888,0.291 -0.0093,-0.0016 -0.550366,-0.204584 -1.202298,-0.451081 z m 1.867628,-1.31553 c 1.240119,-0.452826 2.187859,-0.868077 3.45468,-1.513663 4.29454,-2.188547 7.158652,-5.147972 8.335108,-8.612488 0.588357,-1.732638 0.555457,-1.142399 0.586366,-10.519833 l 0.02798,-8.4878334 H 15.088472 2.0470918 l 3.41e-4,8.1491664 c 2.82e-4,6.750478 0.02162,8.280386 0.124342,8.913691 0.396621,2.445334 1.522681,4.656022 3.358317,6.593071 0.99553,1.050529 1.841859,1.75189 3.248,2.691651 1.17224,0.783439 3.5704662,1.992477 5.1646662,2.603709 0.605367,0.232103 1.1029,0.423365 1.105628,0.425025 0.0027,0.0017 0.307529,-0.107463 0.677334,-0.242496 z m -1.253795,-3.798015 c -0.277371,-0.171971 -0.288944,-0.3331 -0.07361,-1.024957 0.15793,-0.50743 0.157836,-0.512806 -0.01168,-0.66371 -0.266398,-0.237143 -0.401432,-0.649259 -0.402667,-1.228917 -7.87e-4,-0.369791 -0.07785,-0.751208 -0.252867,-1.251552 -0.138454,-0.395817 -0.252158,-0.757767 -0.252676,-0.804334 -5.98e-4,-0.05377 0.717419,-0.08823 1.967367,-0.09444 2.254667,-0.0112 4.934834,-0.226833 6.256887,-0.503404 0.190278,-0.0398 0.296827,0.02813 0.697621,0.444766 0.948142,0.985632 1.032112,1.478196 0.314029,1.842076 -0.791562,0.401115 -3.63615,0.808672 -5.644211,0.808672 h -0.867119 l -0.09465,0.271524 c -0.05206,0.149339 -0.177761,0.359988 -0.279337,0.468111 -0.182978,0.194771 -0.183353,0.201579 -0.04063,0.737205 0.07923,0.297341 0.144055,0.619113 0.144055,0.715049 0,0.386404 -0.986034,0.578084 -1.4605,0.283914 z m -3.3655,-2.573582 C 8.5002818,27.113048 6.9577588,26.634919 6.9577588,26.044829 c 0,-0.248338 0.380519,-0.836079 0.878923,-1.357564 0.367852,-0.384888 0.41613,-0.409445 0.710376,-0.361334 0.333186,0.05448 2.6753572,0.338221 3.7366292,0.452675 l 0.626928,0.06761 0.290302,0.846666 c 0.321652,0.938098 0.325486,1.334043 0.01537,1.5875 -0.203019,0.165928 -0.610401,0.175657 -2.109862,0.05039 z m 2.218267,-3.051821 c -0.05588,-0.05588 -0.1016,-0.162386 -0.1016,-0.236679 0,-0.07429 -0.179343,-0.495299 -0.398539,-0.935567 l -0.398539,-0.800487 -0.05453,-1.758343 c -0.0497,-1.602829 -0.10159,-2.069308 -0.19424,-1.746275 -0.09661,0.336845 -0.292918,3.30714 -0.232473,3.517537 0.03809,0.132594 0.213286,0.526831 0.389317,0.876081 0.176031,0.34925 0.351538,0.744583 0.390016,0.878517 l 0.06996,0.243518 -0.695654,-0.05631 c -0.789242,-0.06388 -1.746129,-0.174909 -2.7064882,-0.314038 -0.616587,-0.08933 -0.767999,-0.164583 -0.573267,-0.284933 0.168146,-0.103921 0.695006,-1.103406 0.888883,-1.686267 0.245665,-0.738552 0.4372232,-1.988179 0.5528472,-3.606492 0.113381,-1.58693 0.232563,-2.393369 0.432807,-2.928567 l 0.161573,-0.431843 0.824329,-0.1826 c 1.43707,-0.31833 2.060474,-0.388492 3.406661,-0.383408 1.397254,0.0053 2.149092,0.08943 3.432081,0.38414 l 0.799585,0.183671 0.161236,0.430941 c 0.198648,0.530937 0.317581,1.331057 0.43518,2.927666 0.192635,2.615378 0.489512,3.871906 1.153747,4.883223 0.243311,0.370447 0.339013,0.585804 0.277279,0.623957 -0.12681,0.07837 -2.212419,0.316185 -3.676774,0.419244 -1.708602,0.120249 -4.216096,0.110613 -4.3434,-0.01669 z M 5.8509368,14.707385 c -0.128278,-0.474158 -0.06654,-2.202226 0.08521,-2.385074 0.06107,-0.07359 0.239651,-0.13376 0.396977,-0.13376 h 0.285966 v 1.439334 1.439333 h -0.335403 c -0.322877,0 -0.339039,-0.01344 -0.432752,-0.359833 z m 1.256988,-2.810793 c -0.01274,-1.743844 -0.0024,-3.2583194 0.02296,-3.3655004 l 0.04612,-0.194874 2.665423,-0.02233 2.6654232,-0.02233 0.412706,1.612734 c 0.362154,1.4151934 0.39921,1.6379524 0.302524,1.8186114 -0.0893,0.166855 -0.08975,0.230494 -0.0024,0.335762 0.14549,0.175305 0.502017,0.165568 0.571541,-0.01561 0.03071,-0.08002 -0.164749,-1.017304 -0.434347,-2.0828474 l -0.490179,-1.937352 0.275772,-0.284525 c 0.151675,-0.156489 0.304397,-0.266834 0.339383,-0.245211 0.113819,0.07034 0.315175,-0.05368 0.358955,-0.221093 0.06894,-0.263619 0.688899,-0.229307 0.870722,0.04819 0.187682,0.286439 0.558747,0.286439 0.746429,0 0.110338,-0.168397 0.209141,-0.211666 0.48333,-0.211666 0.276293,0 0.353647,0.03444 0.390052,0.17365 0.02807,0.107334 0.139907,0.19255 0.292848,0.223139 0.140259,0.02805 0.337871,0.168051 0.456217,0.323211 l 0.208779,0.273724 -0.472312,1.837553 c -0.259772,1.0106544 -0.460496,1.9205414 -0.446054,2.0219714 0.03277,0.230112 0.412942,0.296937 0.575435,0.101146 0.09124,-0.109937 0.09162,-0.17103 0.0021,-0.338289 -0.09541,-0.178275 -0.05732,-0.408404 0.300837,-1.8174474 l 0.41008,-1.613325 h 2.692067 2.692067 V 11.68055 15.067217 H 21.606156 20.167887 L 19.874425,14.48448 C 19.713021,14.163974 19.47582,13.825151 19.347313,13.73154 19.180386,13.609942 19.050379,13.37137 18.892055,12.896111 l -0.221608,-0.665226 -0.514512,-0.025 -0.514512,-0.025 -0.103722,0.31428 c -0.05705,0.172855 -0.107651,0.464139 -0.112454,0.647299 -0.0098,0.373854 0.0699,0.459196 0.794157,0.850301 0.242273,0.13083 0.422943,0.255427 0.401488,0.276882 -0.02145,0.02145 -0.530362,-0.04172 -1.130905,-0.140383 -0.945317,-0.155311 -1.319212,-0.173403 -2.785229,-0.134771 -1.194253,0.03147 -1.927899,0.09301 -2.489195,0.208784 -0.755945,0.155929 -0.785671,0.156464 -0.592667,0.01067 0.111758,-0.08442 0.366419,-0.235091 0.565913,-0.33482 0.453413,-0.226667 0.649217,-0.507473 0.573259,-0.822118 -0.208158,-0.862252 -0.211509,-0.86845 -0.469589,-0.86845 -0.135714,0 -0.343796,0.04422 -0.462403,0.09826 -0.187771,0.08555 -0.215651,0.151137 -0.215651,0.507276 0,0.405369 -0.004,0.41127 -0.446632,0.661083 -0.355276,0.200506 -0.49382,0.345257 -0.677333,0.707683 -0.126886,0.250591 -0.230701,0.556588 -0.230701,0.679994 v 0.224374 H 8.6954248 7.1310918 Z m 7.3687462,0.846008 0.02591,-0.504285 -0.176288,0.224114 c -0.09696,0.123262 -0.251494,0.247983 -0.343413,0.277157 -0.101612,0.03225 -0.167125,0.128247 -0.167125,0.244893 0,0.259928 0.07531,0.317231 0.377958,0.287585 0.25133,-0.02462 0.257618,-0.03639 0.282955,-0.529464 z m 1.887351,0.271451 c 0.04708,-0.177479 0.03176,-0.232833 -0.06443,-0.232833 -0.0694,0 -0.23756,-0.111369 -0.373678,-0.247487 l -0.247487,-0.247487 v 0.445042 c 0,0.521108 0.03669,0.574391 0.372376,0.540778 0.193024,-0.01933 0.265815,-0.07929 0.313221,-0.258013 z m 7.188403,0.613834 v -1.439334 h 0.285966 c 0.157326,0 0.335904,0.06017 0.396977,0.13376 0.151751,0.182848 0.21349,1.910916 0.08521,2.385074 -0.09371,0.346395 -0.109875,0.359833 -0.432752,0.359833 h -0.335403 z"
             id="path1"
             sodipodi:nodetypes="ssssscccscscssssscccscssscssssssssscsscssssssssssscssscssccsssscsssssscscscsssssccscscccssscccccsscsscscssssssscscscscccccccsssccccssscscsssssscssccccccssssscssscssssccsssscc" /></g></g><text
         xml:space="preserve"
         style="font-weight:bold;font-size:15.735px;line-height:0.9;font-family:Sportsball;-inkscape-font-specification:'Sportsball Bold';text-align:start;writing-mode:lr-tb;direction:ltr;text-anchor:start;fill:#ff0000;fill-opacity:1;stroke-width:1.11174"
         x="12.995452"
         y="102.25716"
         id="text2"><tspan
           sodipodi:role="line"
           id="tspan2"
           style="font-style:normal;font-variant:normal;font-weight:normal;font-stretch:normal;font-family:'The Augusta';-inkscape-font-specification:'The Augusta';fill:#ff0000;stroke-width:1.11174"
           x="12.995452"
           y="102.25716">Founders</tspan></text></g></g></svg>
