<?xml version="1.0" encoding="UTF-8" standalone="no"?>
<!-- Created with Inkscape (http://www.inkscape.org/) -->

<svg
   width="105.83334mm"
   height="105.83334mm"
   viewBox="0 0 105.83333 105.83333"
   version="1.1"
   id="svg1"
   xml:space="preserve"
   inkscape:version="1.4.2 (ebf0e940d0, 2025-05-08)"
   sodipodi:docname="philadelphia.svg"
   inkscape:export-filename="philadelphia.svg"
   inkscape:export-xdpi="64.448517"
   inkscape:export-ydpi="64.448517"
   xmlns:inkscape="http://www.inkscape.org/namespaces/inkscape"
   xmlns:sodipodi="http://sodipodi.sourceforge.net/DTD/sodipodi-0.dtd"
   xmlns:xlink="http://www.w3.org/1999/xlink"
   xmlns="http://www.w3.org/2000/svg"
   xmlns:svg="http://www.w3.org/2000/svg"><sodipodi:namedview
     id="namedview1"
     pagecolor="#ffffff"
     bordercolor="#000000"
     borderopacity="0.25"
     inkscape:showpageshadow="2"
     inkscape:pageopacity="0.0"
     inkscape:pagecheckerboard="0"
     inkscape:deskcolor="#d1d1d1"
     inkscape:document-units="mm"
     inkscape:zoom="0.6042049"
     inkscape:cx="-198.60812"
     inkscape:cy="251.57029"
     inkscape:window-width="1920"
     inkscape:window-height="1011"
     inkscape:window-x="0"
     inkscape:window-y="32"
     inkscape:window-maximized="1"
     inkscape:current-layer="layer1"
     showgrid="false" /><defs
     id="defs1" /><g
     inkscape:label="Capa 1"
     inkscape:groupmode="layer"
     id="layer1"><g
       id="g4"
       transform="translate(-1.751613,1.7516141)"><g
         id="g3"
         transform="matrix(0.65982407,0,0,0.65982407,19.752591,22.894965)"><circle
           style="fill:#ffffff;fill-opacity:1;stroke:none;stroke-width:0.724493"
           id="path1-3"
           cx="52.916672"
           cy="42.844894"
           r="74.662521" /><circle
           style="fill:#006bb6;fill-opacity:1;stroke:none;stroke-width:0.660755"
           id="path1"
           cx="52.916672"
           cy="42.844894"
           r="68.093971" /><g
           id="g2"
           transform="translate(163.4296)"><path
             sodipodi:type="star"
             style="fill:#ff0000;fill-opacity:1;stroke:none;stroke-width:1.19"
             id="path5"
             inkscape:flatsided="false"
             sodipodi:sides="5"
             sodipodi:cx="-37.659687"
             sodipodi:cy="-8.539115"
             sodipodi:r1="7.0507874"
             sodipodi:r2="2.6255703"
             sodipodi:arg1="1.1210367"
             sodipodi:arg2="1.7493552"
             inkscape:rounded="0"
             inkscape:randomized="0"
             d="m -34.594364,-2.1895168 -3.531655,-3.7657726 -4.625258,2.2936039 2.490121,-4.5224912 -3.61063,-3.6901193 5.070635,0.970719 2.393765,-4.574223 0.643704,5.122429 5.090059,0.863094 -4.672804,2.1951157 z"
             inkscape:transform-center-x="-0.38698241"
             inkscape:transform-center-y="-0.29454319"
             transform="translate(-106.97701,95.481583)" /><path
             sodipodi:type="star"
             style="fill:#ff0000;fill-opacity:1;stroke:none;stroke-width:1.19"
             id="path5-7"
             inkscape:flatsided="false"
             sodipodi:sides="5"
             sodipodi:cx="-37.659687"
             sodipodi:cy="-8.539115"
             sodipodi:r1="7.0507874"
             sodipodi:r2="2.6255703"
             sodipodi:arg1="1.1210367"
             sodipodi:arg2="1.7493552"
             inkscape:rounded="0"
             inkscape:randomized="0"
             d="m -34.594364,-2.1895168 -3.531655,-3.7657726 -4.625258,2.2936039 2.490121,-4.5224912 -3.61063,-3.6901193 5.070635,0.970719 2.393765,-4.574223 0.643704,5.122429 5.090059,0.863094 -4.672804,2.1951157 z"
             inkscape:transform-center-x="-0.38698241"
             inkscape:transform-center-y="-0.29454319"
             transform="translate(-86.888091,101.51326)" /><path
             sodipodi:type="star"
             style="fill:#ff0000;fill-opacity:1;stroke:none;stroke-width:1.19"
             id="path5-7-0"
             inkscape:flatsided="false"
             sodipodi:sides="5"
             sodipodi:cx="-37.659687"
             sodipodi:cy="-8.539115"
             sodipodi:r1="7.0507874"
             sodipodi:r2="2.6255703"
             sodipodi:arg1="1.1210367"
             sodipodi:arg2="1.7493552"
             inkscape:rounded="0"
             inkscape:randomized="0"
             d="m -34.594364,-2.1895168 -3.531655,-3.7657726 -4.625258,2.2936039 2.490121,-4.5224912 -3.61063,-3.6901193 5.070635,0.970719 2.393765,-4.574223 0.643704,5.122429 5.090059,0.863094 -4.672804,2.1951157 z"
             inkscape:transform-center-x="-0.38698241"
             inkscape:transform-center-y="-0.29454319"
             transform="translate(-60.31087,100.90284)" /><path
             sodipodi:type="star"
             style="fill:#ff0000;fill-opacity:1;stroke:none;stroke-width:1.19"
             id="path5-7-0-8"
             inkscape:flatsided="false"
             sodipodi:sides="5"
             sodipodi:cx="-37.659687"
             sodipodi:cy="-8.539115"
             sodipodi:r1="7.0507874"
             sodipodi:r2="2.6255703"
             sodipodi:arg1="1.1210367"
             sodipodi:arg2="1.7493552"
             inkscape:rounded="0"
             inkscape:randomized="0"
             d="m -34.594364,-2.1895168 -3.531655,-3.7657726 -4.625258,2.2936039 2.490121,-4.5224912 -3.61063,-3.6901193 5.070635,0.970719 2.393765,-4.574223 0.643704,5.122429 5.090059,0.863094 -4.672804,2.1951157 z"
             inkscape:transform-center-x="-0.38698241"
             inkscape:transform-center-y="-0.29454319"
             transform="translate(-41.31571,92.062309)" /><path
             sodipodi:type="star"
             style="fill:#ff0000;fill-opacity:1;stroke:#ffffff;stroke-width:1.19"
             id="path5-1"
             inkscape:flatsided="false"
             sodipodi:sides="5"
             sodipodi:cx="-37.659687"
             sodipodi:cy="-8.539115"
             sodipodi:r1="7.0507874"
             sodipodi:r2="2.6255703"
             sodipodi:arg1="1.1210367"
             sodipodi:arg2="1.7493552"
             inkscape:rounded="0"
             inkscape:randomized="0"
             d="m -34.594364,-2.1895168 -3.531655,-3.7657726 -4.625258,2.2936039 2.490121,-4.5224912 -3.61063,-3.6901193 5.070635,0.970719 2.393765,-4.574223 0.643704,5.122429 5.090059,0.863094 -4.672804,2.1951157 z"
             inkscape:transform-center-x="-0.38698241"
             inkscape:transform-center-y="-0.29454319"
             transform="translate(-106.97701,95.481583)" /><path
             sodipodi:type="star"
             style="fill:#ff0000;fill-opacity:1;stroke:none;stroke-width:1.19"
             id="path5-7-0-8-2"
             inkscape:flatsided="false"
             sodipodi:sides="5"
             sodipodi:cx="-37.659687"
             sodipodi:cy="-8.539115"
             sodipodi:r1="7.0507874"
             sodipodi:r2="2.6255703"
             sodipodi:arg1="1.1210367"
             sodipodi:arg2="1.7493552"
             inkscape:rounded="0"
             inkscape:randomized="0"
             d="m -34.594364,-2.1895168 -3.531655,-3.7657726 -4.625258,2.2936039 2.490121,-4.5224912 -3.61063,-3.6901193 5.070635,0.970719 2.393765,-4.574223 0.643704,5.122429 5.090059,0.863094 -4.672804,2.1951157 z"
             inkscape:transform-center-x="-0.2899546"
             inkscape:transform-center-y="-0.22069217"
             transform="matrix(0.74927035,0,0,0.74927035,-41.73426,77.540728)" /><path
             sodipodi:type="star"
             style="fill:#ff0000;fill-opacity:1;stroke:#ffffff;stroke-width:1.19"
             id="path5-7-2"
             inkscape:flatsided="false"
             sodipodi:sides="5"
             sodipodi:cx="-37.659687"
             sodipodi:cy="-8.539115"
             sodipodi:r1="7.0507874"
             sodipodi:r2="2.6255703"
             sodipodi:arg1="1.1210367"
             sodipodi:arg2="1.7493552"
             inkscape:rounded="0"
             inkscape:randomized="0"
             d="m -34.594364,-2.1895168 -3.531655,-3.7657726 -4.625258,2.2936039 2.490121,-4.5224912 -3.61063,-3.6901193 5.070635,0.970719 2.393765,-4.574223 0.643704,5.122429 5.090059,0.863094 -4.672804,2.1951157 z"
             inkscape:transform-center-x="-0.38698241"
             inkscape:transform-center-y="-0.29454319"
             transform="translate(-86.888091,101.51326)" /><path
             sodipodi:type="star"
             style="fill:#ff0000;fill-opacity:1;stroke:none;stroke-width:1.19"
             id="path5-7-0-8-2-2"
             inkscape:flatsided="false"
             sodipodi:sides="5"
             sodipodi:cx="-37.659687"
             sodipodi:cy="-8.539115"
             sodipodi:r1="7.0507874"
             sodipodi:r2="2.6255703"
             sodipodi:arg1="1.1210367"
             sodipodi:arg2="1.7493552"
             inkscape:rounded="0"
             inkscape:randomized="0"
             d="m -34.594364,-2.1895168 -3.531655,-3.7657726 -4.625258,2.2936039 2.490121,-4.5224912 -3.61063,-3.6901193 5.070635,0.970719 2.393765,-4.574223 0.643704,5.122429 5.090059,0.863094 -4.672804,2.1951157 z"
             inkscape:transform-center-x="-0.2899546"
             inkscape:transform-center-y="-0.22069217"
             transform="matrix(0.74927035,0,0,0.74927035,-123.60064,79.002408)" /><path
             sodipodi:type="star"
             style="fill:#ff0000;fill-opacity:1;stroke:#ffffff;stroke-width:1.19"
             id="path5-7-0-7"
             inkscape:flatsided="false"
             sodipodi:sides="5"
             sodipodi:cx="-37.659687"
             sodipodi:cy="-8.539115"
             sodipodi:r1="7.0507874"
             sodipodi:r2="2.6255703"
             sodipodi:arg1="1.1210367"
             sodipodi:arg2="1.7493552"
             inkscape:rounded="0"
             inkscape:randomized="0"
             d="m -34.594364,-2.1895168 -3.531655,-3.7657726 -4.625258,2.2936039 2.490121,-4.5224912 -3.61063,-3.6901193 5.070635,0.970719 2.393765,-4.574223 0.643704,5.122429 5.090059,0.863094 -4.672804,2.1951157 z"
             inkscape:transform-center-x="-0.38698241"
             inkscape:transform-center-y="-0.29454319"
             transform="translate(-60.31087,100.90284)" /><path
             sodipodi:type="star"
             style="fill:#ff0000;fill-opacity:1;stroke:#ffffff;stroke-width:1.19"
             id="path5-7-0-8-0"
             inkscape:flatsided="false"
             sodipodi:sides="5"
             sodipodi:cx="-37.659687"
             sodipodi:cy="-8.539115"
             sodipodi:r1="7.0507874"
             sodipodi:r2="2.6255703"
             sodipodi:arg1="1.1210367"
             sodipodi:arg2="1.7493552"
             inkscape:rounded="0"
             inkscape:randomized="0"
             d="m -34.594364,-2.1895168 -3.531655,-3.7657726 -4.625258,2.2936039 2.490121,-4.5224912 -3.61063,-3.6901193 5.070635,0.970719 2.393765,-4.574223 0.643704,5.122429 5.090059,0.863094 -4.672804,2.1951157 z"
             inkscape:transform-center-x="-0.38698241"
             inkscape:transform-center-y="-0.29454319"
             transform="translate(-41.31571,92.062309)" /><path
             sodipodi:type="star"
             style="fill:#ff0000;fill-opacity:1;stroke:#ffffff;stroke-width:1.19"
             id="path5-7-0-8-2-9"
             inkscape:flatsided="false"
             sodipodi:sides="5"
             sodipodi:cx="-37.659687"
             sodipodi:cy="-8.539115"
             sodipodi:r1="7.0507874"
             sodipodi:r2="2.6255703"
             sodipodi:arg1="1.1210367"
             sodipodi:arg2="1.7493552"
             inkscape:rounded="0"
             inkscape:randomized="0"
             d="m -34.594364,-2.1895168 -3.531655,-3.7657726 -4.625258,2.2936039 2.490121,-4.5224912 -3.61063,-3.6901193 5.070635,0.970719 2.393765,-4.574223 0.643704,5.122429 5.090059,0.863094 -4.672804,2.1951157 z"
             inkscape:transform-center-x="-0.2899546"
             inkscape:transform-center-y="-0.22069217"
             transform="matrix(0.74927035,0,0,0.74927035,-41.73426,77.540728)" /><path
             sodipodi:type="star"
             style="fill:#ff0000;fill-opacity:1;stroke:#ffffff;stroke-width:1.19"
             id="path5-7-0-8-2-2-3"
             inkscape:flatsided="false"
             sodipodi:sides="5"
             sodipodi:cx="-37.659687"
             sodipodi:cy="-8.539115"
             sodipodi:r1="7.0507874"
             sodipodi:r2="2.6255703"
             sodipodi:arg1="1.1210367"
             sodipodi:arg2="1.7493552"
             inkscape:rounded="0"
             inkscape:randomized="0"
             d="m -34.594364,-2.1895168 -3.531655,-3.7657726 -4.625258,2.2936039 2.490121,-4.5224912 -3.61063,-3.6901193 5.070635,0.970719 2.393765,-4.574223 0.643704,5.122429 5.090059,0.863094 -4.672804,2.1951157 z"
             inkscape:transform-center-x="-0.2899546"
             inkscape:transform-center-y="-0.22069217"
             transform="matrix(0.74927035,0,0,0.74927035,-123.60064,79.002408)" /></g><path
           style="fill:#ffffff;fill-opacity:1;stroke:none;stroke-width:1.30887"
           d="m 1.5567078,12.045444 -3.8531568,23.841385 13.245212,5.779729 22.878102,-4.093976 -1.444933,6.020552 6.502191,1.926576 -0.481641,10.836992 -2.649044,7.706308 -7.465483,7.22466 -1.926576,2.408221 3.853149,3.130689 20.229056,1.685752 0.240832,6.983842 4.093966,0.481641 0.722471,-4.334798 2.649045,-3.130685 14.690133,-1.685752 5.057269,-1.685753 1.685753,-1.685759 -3.612326,-4.334794 -4.816437,-3.371511 -3.371517,-6.02055 -2.649044,-15.653434 5.298089,0.481641 2.649045,-1.204107 c 0,0 -1.444933,-7.706308 0,-7.224664 1.444932,0.481645 21.673986,4.816443 21.673986,4.816443 l 13.004391,-4.334798 -3.61234,-24.56385 z"
           id="path4-6" /><path
           style="fill:#002b5c;fill-opacity:1;stroke-width:1.05383"
           d="m 51.566074,87.342224 c -1.281698,-0.317042 -2.082163,-0.754236 -2.229207,-1.217542 -0.08612,-0.271298 -0.01606,-1.398583 0.15559,-2.505091 0.304251,-1.960955 0.295639,-2.023352 -0.340668,-2.46753 -0.359047,-0.250631 -0.905053,-0.72686 -1.213351,-1.058289 -0.482751,-0.518971 -0.98573,-0.629059 -3.624743,-0.793283 -6.861988,-0.427042 -12.711296,-1.260338 -15.934306,-2.270012 -1.127032,-0.353064 -1.624162,-0.709493 -2.297744,-1.647433 -0.841732,-1.172099 -0.851159,-1.220638 -0.455177,-2.342991 0.860111,-2.437797 2.946094,-4.732527 5.372984,-5.910652 1.614491,-0.783747 3.257601,-2.7361 4.547933,-5.403893 1.482878,-3.065855 1.969523,-5.255846 3.176022,-14.292484 0.09503,-0.711748 0.02013,-0.906187 -0.348906,-0.906187 -0.361511,0 -6.397217,-1.874869 -6.661245,-2.069181 -0.03091,-0.02271 0.112013,-1.166203 0.317494,-2.541097 0.205469,-1.374894 0.327678,-2.54923 0.271573,-2.609636 -0.317076,-0.341356 -12.512757,1.247363 -17.246219,2.24665 -1.542537,0.325647 -2.992826,0.598074 -3.222867,0.605394 -0.23003,0.0073 -3.9000889,-0.793144 -8.1556833,-1.778807 -6.4846581,-1.501952 -7.7374403,-1.870781 -7.7374403,-2.277958 0,-0.553339 4.72692891,-27.623848 4.84398988,-27.740911 0.0420157,-0.04198 23.53043072,-0.08084 52.19653472,-0.08634 42.038767,-0.008 52.134992,0.05881 52.196682,0.345732 0.24913,1.158603 4.75834,27.118416 4.7156,27.147999 -0.0286,0.01981 -3.62797,0.918822 -7.9986,1.997805 L 93.947763,41.728271 92.13538,41.347696 C 88.657516,40.61739 75.879503,38.998512 73.592959,38.998512 c -0.26548,0 -0.258089,0.507105 0.03355,2.300321 0.205723,1.265176 0.376547,2.488661 0.379615,2.718853 0.0033,0.283698 -0.960069,0.751579 -2.991813,1.452322 -1.648565,0.568585 -3.259614,1.070341 -3.58011,1.115015 l -0.58272,0.08123 0.626001,4.338032 c 0.83752,5.803886 1.339915,7.743162 2.776752,10.718619 1.535365,3.179487 2.528805,4.35891 4.602488,5.464174 2.043007,1.088913 3.987948,3.124212 4.909895,5.138023 0.794052,1.734425 0.731282,2.151633 -0.529199,3.517754 -0.750992,0.813916 -1.304829,1.079022 -3.273935,1.567097 -3.325585,0.824299 -7.468518,1.392951 -12.809272,1.758191 l -4.583888,0.313479 -1.216827,1.019001 -1.216838,1.01899 0.163597,2.427857 0.163597,2.427858 -0.860595,0.445025 c -0.909629,0.470389 -3.100383,0.753587 -4.037113,0.521874 z m 2.627454,-2.058449 c 0.1165,0 0.113717,-0.595996 -0.0066,-1.324429 -0.410092,-2.491464 -0.314512,-3.636798 0.32032,-3.838286 0.31437,-0.09976 0.996036,-0.605873 1.514831,-1.124668 l 0.943252,-0.943252 -0.441803,-1.124744 c -0.242998,-0.618609 -0.595765,-1.124733 -0.783933,-1.124733 -0.188158,0 -0.498029,-0.376426 -0.688595,-0.836486 -0.249653,-0.602709 -0.534578,-0.83648 -1.01953,-0.83648 -0.581741,0 -0.633435,0.07403 -0.381,0.545714 0.160627,0.300137 0.465219,0.645193 0.67687,0.766775 0.211651,0.121581 0.585646,0.704807 0.831119,1.296052 0.423192,1.019342 0.417275,1.115769 -0.1144,1.862427 -0.308375,0.433092 -1.012127,1.066428 -1.563874,1.407426 l -1.003185,0.620007 0.196704,2.255021 c 0.220857,2.531884 0.308683,2.782967 0.894758,2.558073 0.227061,-0.08711 0.508159,-0.158417 0.624659,-0.158417 z m -6.310821,-8.643637 c 0.08018,-0.306704 0.126201,-0.560272 0.102179,-0.563472 -0.02398,-0.0033 -2.929461,-0.124474 -6.456624,-0.269495 -3.527161,-0.145031 -7.41679,-0.325181 -8.643637,-0.400358 l -2.230615,-0.136661 1.812383,0.392516 c 1.826461,0.395586 8.750194,1.179717 11.850139,1.34206 0.920133,0.04818 2.066116,0.111342 2.546624,0.140346 0.66465,0.04015 0.908561,-0.08073 1.019496,-0.504936 z m 19.43708,-0.171385 c 2.223652,-0.225388 4.858563,-0.588153 5.855369,-0.806151 l 1.812372,-0.396355 -2.370026,0.143183 c -1.303509,0.07875 -5.117916,0.260377 -8.476454,0.403593 -3.358538,0.143227 -6.16579,0.31977 -6.23835,0.392329 -0.07259,0.07259 -0.05796,0.324467 0.03234,0.559821 0.187982,0.489857 2.279098,0.423808 9.384807,-0.29642 z M 31.362711,73.44403 c 5.608686,-0.715962 11.490114,-0.986294 21.458081,-0.986294 10.05422,0 15.79266,0.266044 21.703804,1.006229 1.892345,0.236957 3.501369,0.370097 3.5756,0.295866 0.228766,-0.228769 -0.758361,-1.949541 -1.680044,-2.928671 -0.481233,-0.511231 -1.711831,-1.420552 -2.734649,-2.020716 -2.409819,-1.414005 -3.59828,-2.829093 -5.249914,-6.251063 -1.643209,-3.404519 -2.041566,-4.967829 -2.948533,-11.571315 -0.902501,-6.570997 -0.823155,-6.242849 -1.770202,-7.321468 -1.854068,-2.111678 -5.291874,-3.110232 -10.75664,-3.124411 -4.530325,-0.01175 -7.055918,0.499261 -9.385566,1.899034 -2.138447,1.284884 -2.398416,1.913036 -3.180941,7.685856 -1.012996,7.473035 -1.759852,10.265877 -3.648347,13.642822 -1.37113,2.451801 -2.907265,4.057269 -4.896543,5.117541 -1.781168,0.949357 -3.623764,2.8173 -4.085431,4.141639 -0.342064,0.981252 -0.602111,0.951273 3.599325,0.414951 z m -0.870296,-1.934523 c 0.21781,-0.262925 0.970639,-0.800525 1.672961,-1.194665 0.702321,-0.39414 1.633354,-0.963686 2.068964,-1.265657 0.43561,-0.301971 1.811173,-0.726961 3.056806,-0.94442 2.551682,-0.445464 8.001327,-0.900775 8.001327,-0.668501 0,0.08358 -0.296859,0.588875 -0.659679,1.122877 l -0.659679,0.970913 9.512427,0.02474 c 5.231843,0.01361 10.64168,0.164516 12.021873,0.335365 1.380193,0.170849 3.954754,0.453888 5.721249,0.628977 2.828832,0.280383 4.572901,0.799279 4.140348,1.231834 -0.07446,0.07451 -1.508286,-0.04639 -3.186163,-0.268663 -10.482395,-1.388633 -32.901051,-1.214495 -41.092624,0.319185 -0.91559,0.171425 -0.962654,0.148443 -0.59781,-0.291976 z m 6.407831,-5.285527 c 2.335621,-3.3947 3.738955,-7.702568 4.645383,-14.260019 0.275566,-1.993612 0.627477,-3.791378 0.782,-3.995034 0.401602,-0.52928 2.619172,-1.608572 4.084815,-1.98808 0.687528,-0.178026 1.469636,-0.387406 1.738008,-0.46529 0.945606,-0.274424 0.548712,2.175621 -1.603261,9.897188 -1.150163,4.126924 -2.091204,7.647491 -2.091204,7.823478 0,0.223249 0.7698,0.295744 2.546436,0.23981 l 2.546436,-0.08017 0.732767,-2.509442 0.732756,-2.509442 3.799713,-0.07738 3.799724,-0.07738 0.314018,-1.247058 c 0.266448,-1.058159 0.418991,-1.247055 1.007056,-1.247055 0.8232,0 0.837861,0.187626 0.1851,2.37003 l -0.500382,1.672961 -3.786262,0.07738 -3.786251,0.07737 -0.664331,2.432072 -0.664321,2.432071 -2.085297,0.08333 c -1.146919,0.04583 -2.204647,0.202667 -2.350514,0.348534 -0.167733,0.167729 2.291802,0.271959 6.691514,0.283573 9.805855,0.02588 17.457141,0.866661 16.509599,1.814197 -0.09294,0.0929 -1.025567,0.03923 -2.072615,-0.119233 -7.598019,-1.149957 -20.894893,-1.09742 -29.898052,0.118128 L 36.007303,67.52182 Z M 52.266955,53.985455 c 0.0022,-0.191693 0.07952,-0.630846 0.171934,-0.975893 0.164719,-0.614655 0.251445,-0.627361 4.2823,-0.627361 h 4.114171 l 0.405539,-1.463841 c 0.354318,-1.278916 0.504573,-1.475454 1.189385,-1.55577 0.559204,-0.06558 0.745173,0.01431 0.648955,0.278828 -0.07413,0.203914 -0.361005,1.217692 -0.637395,2.252836 l -0.502528,1.882082 h -4.141019 c -2.574791,0 -4.141019,0.105457 -4.141019,0.278826 0,0.153355 -0.313677,0.278826 -0.697064,0.278826 -0.383388,0 -0.69536,-0.156839 -0.693259,-0.348533 z M 42.225372,46.373577 c 0,-0.89175 0.879415,-2.079009 2.046604,-2.763025 2.001728,-1.173093 3.730123,-1.575892 7.294098,-1.699874 3.146886,-0.109472 3.271284,-0.09402 2.091204,0.259739 -0.690091,0.206876 -1.69387,0.571368 -2.230615,0.809985 -0.974126,0.433062 -0.971233,0.43389 1.592461,0.456594 4.138709,0.03665 10.395823,1.770374 10.396702,2.880721 4.84e-4,0.600145 0.06489,0.603241 -1.314287,-0.06313 -2.665906,-1.288024 -5.317118,-1.797687 -9.280747,-1.784108 -3.97784,0.01363 -6.822841,0.564145 -9.210585,1.782279 -1.304642,0.66558 -1.384835,0.672575 -1.384835,0.12082 z m -2.638004,-4.238264 c 0.512416,-3.052406 1.418272,-3.942706 4.770443,-4.688493 2.591906,-0.576645 3.359968,-1.268576 1.003339,-0.903891 -2.317935,0.358699 -3.570994,0.729189 -4.680714,1.383942 -1.17535,0.693469 -1.406238,1.083859 -1.66612,2.817044 -0.155711,1.038456 -0.328503,1.357251 -0.794294,1.465464 -0.327414,0.07607 -1.34812,0.315324 -2.268253,0.531688 l -1.672961,0.393388 2.566509,0.02323 2.566521,0.02323 z m 32.028951,-3.345922 c -0.889918,-6.223861 -0.919263,-6.279549 -0.751036,-1.425628 0.08315,2.398015 0.08458,4.468306 0.0033,4.600643 -0.08139,0.132338 -1.023522,0.199539 -2.093723,0.149336 l -1.945821,-0.09128 -0.132162,-1.375387 c -0.15603,-1.624332 -0.724704,-2.35819 -2.412272,-3.113006 -1.139538,-0.509691 -5.341469,-1.404775 -5.561534,-1.184704 -0.178457,0.178452 1.586312,0.976188 2.15954,0.976188 1.083169,0 3.632805,1.154913 4.299931,1.947741 0.390625,0.46424 0.758603,1.366173 0.875202,2.145204 0.110648,0.739299 0.2591,1.438284 0.3299,1.553299 0.07083,0.115017 1.417523,0.209121 2.992726,0.209121 h 2.864007 z m -23.068357,0.375635 c -0.221022,-0.575985 0.462712,-1.358077 1.084753,-1.240806 0.296573,0.05591 0.663089,0.383234 0.814466,0.727386 0.189587,0.431026 0.514945,0.625732 1.045596,0.625732 0.747891,0 0.770372,-0.04473 0.770372,-1.533548 0,-1.347663 0.06753,-1.533548 0.557643,-1.533548 0.490066,0 0.557665,0.185885 0.557665,1.533548 0,1.504273 0.01529,1.533548 0.803951,1.533548 0.568795,0 0.846517,-0.162711 0.949422,-0.556245 0.298103,-1.139917 2.010781,-0.995675 2.010781,0.169346 0,0.366886 0.232263,0.553037 0.766775,0.61454 0.68282,0.07857 0.766775,-0.0016 0.766775,-0.732634 0,-1.152092 -0.664519,-1.579087 -2.538308,-1.631006 -1.843785,-0.05109 -2.201743,-0.199856 -2.201743,-0.915047 0,-0.321124 -0.256911,-0.557805 -0.696745,-0.641883 -0.81219,-0.155261 -1.447341,0.25895 -1.581418,1.031317 -0.08172,0.470551 -0.291624,0.53444 -1.538609,0.468255 -2.048287,-0.108713 -3.140694,0.53114 -3.149636,1.844824 -0.0033,0.516899 0.148264,0.62736 0.862047,0.62736 0.628816,0 0.825157,-0.107228 0.716213,-0.391139 z m 51.25517,-1.221308 3.903568,-1.27318 -2.37003,-0.356536 C 95.743218,35.472548 81.3194,33.907827 80.076792,34.007693 c -0.192062,0.01544 1.595617,0.325955 3.972616,0.690043 5.164464,0.791047 13.367871,2.340497 13.909455,2.627196 0.267702,0.141716 -0.16044,0.523595 -1.394139,1.243486 -0.979263,0.57143 -1.529547,0.951103 -1.222832,0.843721 0.306703,-0.107382 2.314261,-0.768172 4.46124,-1.468421 z m -89.642856,1.198903 c 0,-0.0741 -0.65011,-0.464155 -1.4447013,-0.866802 -1.0280643,-0.520963 -1.3296093,-0.792327 -1.0455965,-0.94097 0.3826177,-0.200258 5.7436758,-1.269968 10.4368708,-2.082509 1.226836,-0.212404 1.964442,-0.397449 1.639117,-0.411211 -0.712528,-0.03014 -10.9922912,1.256358 -13.3498438,1.670715 -3.2918845,0.578574 -3.2973949,0.513426 0.1394107,1.650993 3.4260047,1.133997 3.6247431,1.187716 3.6247431,0.979784 z m 38.208889,-6.156235 c -0.472138,-1.337675 -0.784462,-2.665202 -0.694051,-2.950062 0.103609,-0.326592 0.02871,-0.516349 -0.20294,-0.513657 -0.456552,0.0053 -1.324099,0.543231 -0.885607,0.549114 0.175014,0.0023 0.795229,1.343165 1.378257,2.979594 0.583028,1.636428 1.105662,2.838484 1.161415,2.671234 0.05576,-0.167248 -0.284937,-1.398549 -0.757074,-2.736223 z m 9.467111,-0.122066 c 0.502725,-1.45687 1.033432,-2.725551 1.179365,-2.819293 0.145922,-0.09374 -0.0033,-0.240707 -0.331836,-0.326592 -0.387776,-0.10141 -0.555927,-0.04165 -0.479595,0.170436 0.06467,0.179627 -0.304569,1.518579 -0.820471,2.975449 -0.515913,1.456871 -0.938061,2.768054 -0.938105,2.913741 -2.2e-4,0.675342 0.549856,-0.477201 1.390642,-2.913741 z m -36.034973,1.759585 c -0.268372,-0.07013 -0.707524,-0.07013 -0.975897,0 -0.268372,0.07013 -0.04884,0.127514 0.487954,0.127514 0.536734,0 0.756316,-0.05738 0.487943,-0.127514 z m -19.1313556,-1.069411 1.292708,-0.186326 0.641927,-4.000458 0.641938,-4.00046 0.9930439,-0.140819 c 0.5461708,-0.07744 1.7104121,-0.218473 2.587209,-0.313383 1.7337407,-0.187673 1.7317827,-0.184917 1.9589977,-2.757381 l 0.0716,-0.810297 -1.9517818,0.0565 c -1.0734787,0.03108 -2.1875211,0.126978 -2.4756365,0.213121 -0.4854461,0.145143 -0.5094786,0.0369 -0.3278653,-1.476815 0.3747205,-3.123189 0.1000897,-2.888158 3.374926,-2.888158 1.5845516,0 2.9386006,-0.09411 3.0090046,-0.209121 0.07039,-0.115016 0.217734,-0.930585 0.327414,-1.812373 l 0.199399,-1.603256 H 8.2957809 3.5787179 l -1.7340597,9.968055 c -0.95374491,5.482434 -1.73138694,10.075768 -1.72809828,10.207408 0.0033,0.131641 0.28829135,0.172014 0.63333687,0.08972 0.34504551,-0.0823 1.20908371,-0.23348 1.92007261,-0.335958 z M 105.68871,32.934027 c -0.0807,-0.268372 -0.39649,-1.967749 -0.70171,-3.776396 -0.34273,-2.03088 -0.80027,-3.731964 -1.19645,-4.448209 -0.90844,-1.642338 -2.66352,-2.889536 -4.608964,-3.275228 -2.877513,-0.570479 -2.747034,-0.446489 -3.034203,-2.883474 l -0.169691,-1.440118 1.680682,0.09331 1.680671,0.09331 0.183968,1.337552 c 0.175926,1.279108 0.228699,1.344949 1.207927,1.506869 2.73148,0.451659 2.78491,0.392677 2.25271,-2.486273 -0.66233,-3.582867 -1.34007,-4.030118 -6.107042,-4.030118 -3.254742,0 -3.397584,0.02514 -4.092932,0.720498 -0.676706,0.676703 -0.709098,0.83185 -0.532808,2.552491 0.10328,1.007596 0.32021,2.449875 0.482158,3.205061 0.492606,2.29693 2.533897,4.100382 5.13128,4.533426 1.571398,0.26199 2.570814,0.685143 2.755614,1.166745 0.0879,0.229039 0.23805,1.082209 0.33368,1.895934 l 0.17389,1.4795 -1.359247,-0.145885 C 97.859764,28.828203 97.433876,28.546761 97.428828,27.487093 97.422229,26.152739 97.17592,25.955334 95.242561,25.7366 l -1.765781,-0.199775 0.195021,1.921079 c 0.224751,2.213982 0.787761,3.37725 1.958789,4.04726 0.454627,0.260121 2.771429,0.781207 5.14843,1.157967 5.48223,0.868949 5.08296,0.84692 4.90969,0.270896 z M 46.547191,31.749013 c -0.098,-0.158543 -1.495461,-0.278828 -3.23942,-0.278828 -1.973727,0 -3.005663,0.0994 -2.894772,0.278828 0.098,0.158542 1.495463,0.278827 3.239422,0.278827 1.973725,0 3.005661,-0.0994 2.89477,-0.278827 z M 17.747373,31.442915 c 3.235702,-0.34523 4.53314,-0.829247 5.08536,-1.89711 0.373775,-0.722807 1.547717,-10.937567 1.547717,-13.467096 0,-1.069782 -0.129017,-1.399143 -0.73467,-1.875552 -0.651628,-0.512569 -1.116506,-0.577774 -4.112697,-0.57685 -4.005744,0.0012 -4.959775,0.376427 -5.458188,2.146533 -0.315734,1.121313 -1.962826,13.01933 -1.962826,14.178722 0,0.928086 0.938721,1.797451 1.94085,1.797451 0.454055,0 2.116556,-0.137744 3.694454,-0.306098 z m -1.598818,-3.329169 c -0.05455,-0.08821 0.205217,-2.6 0.577177,-5.581761 0.37196,-2.981761 0.678036,-5.452752 0.68017,-5.49109 0.0022,-0.03834 0.762937,-0.06971 1.69068,-0.06971 h 1.686809 l -0.194768,1.742673 c -0.107129,0.958468 -0.395663,3.436542 -0.641201,5.50683 l -0.446444,3.764163 -1.626645,0.144636 c -0.894659,0.07955 -1.671256,0.07246 -1.725778,-0.01574 z m 75.708004,3.061316 c 0,-0.287638 -0.428483,-3.40391 -0.715477,-5.203499 -0.07875,-0.493889 -0.460841,-1.27547 -0.849057,-1.736847 -0.66024,-0.784653 -0.677542,-0.879293 -0.267724,-1.464383 0.523327,-0.747164 0.540716,-1.473047 0.115081,-4.804367 -0.290227,-2.271549 -0.414811,-2.620358 -1.226824,-3.434513 l -0.90381,-0.906187 h -4.492411 -4.492401 l 0.145043,1.045601 c 0.07974,0.57508 0.39652,3.931458 0.703872,7.458618 0.307353,3.527161 0.631016,6.883539 0.719238,7.45862 l 0.160408,1.045599 h 1.823876 1.823866 l -0.194306,-2.300321 c -0.106909,-1.265176 -0.262136,-2.582634 -0.345057,-2.927682 -0.140719,-0.585592 -0.0606,-0.627076 1.203903,-0.62309 0.745053,0.0023 1.520737,0.109571 1.72371,0.238258 0.429935,0.272589 0.763817,1.652854 1.03396,4.274396 l 0.192491,1.86807 1.293445,0.10317 c 0.711407,0.05674 1.575764,0.125783 1.920809,0.153425 0.345046,0.02764 0.627365,-0.08255 0.627365,-0.244866 z M 83.353366,19.842429 c -0.366504,-3.258307 -0.501504,-2.97763 1.393106,-2.896303 0.920132,0.0395 1.691076,0.09267 1.713206,0.118144 0.02211,0.02548 0.08491,0.987373 0.139433,2.137533 l 0.09921,2.091201 -1.581538,0.08298 -1.581538,0.08296 z M 53.282942,30.773118 c 1.864419,0 3.244601,-0.09218 3.067101,-0.20485 -0.177511,-0.112667 -1.773051,-0.206771 -3.545661,-0.209121 -2.49902,-0.0033 -3.344492,0.09292 -3.764165,0.428409 -0.518355,0.414384 -0.511767,0.423226 0.155832,0.20912 0.383387,-0.122956 2.222486,-0.223558 4.086893,-0.223558 z M 33.939658,30.106503 c 1.181147,-0.14745 1.802066,-0.390738 2.320575,-0.909242 0.691586,-0.691588 0.716895,-0.858522 1.096587,-7.233772 0.213752,-3.589217 0.392857,-6.933633 0.397994,-7.432036 l 0.0088,-0.906187 H 35.95123 c -1.809743,0 -1.812371,0.0012 -1.812371,0.800463 0,1.361098 -0.838983,12.399849 -0.95094,12.511807 -0.05807,0.05811 -0.808967,0.17824 -1.668562,0.266958 l -1.562906,0.161306 0.0033,-1.224023 c 0.0022,-0.673212 0.188554,-3.294313 0.414801,-5.824666 0.226247,-2.530354 0.412897,-5.077151 0.4148,-5.659549 l 0.0033,-1.058906 -1.739691,0.08301 -1.739691,0.08301 -0.610991,6.413018 c -0.812211,8.525091 -0.814279,9.1938 -0.03003,9.743129 0.675191,0.472923 4.236625,0.563926 7.26656,0.185677 z m 44.667256,-1.215466 c -0.108448,-0.805113 -0.230943,-1.50141 -0.272299,-1.547327 -0.04135,-0.04592 -1.397527,-0.158371 -3.013712,-0.249894 -3.291312,-0.186385 -3.249627,-0.154076 -3.257249,-2.524595 l -0.0033,-1.185015 h 2.509446 2.509436 l -0.0033,-0.906187 c -0.0088,-2.108683 -0.07633,-2.160908 -2.793185,-2.160908 H 71.82962 l -0.09349,-1.812959 -0.09349,-1.81296 3.032246,5.85e-4 3.032245,5.84e-4 -0.174277,-0.871334 c -0.09591,-0.479233 -0.174288,-1.169329 -0.174288,-1.533547 v -0.662214 h -4.740062 -4.740061 l 0.011,1.045601 c 0.02717,2.605502 0.787871,14.902747 0.930769,15.045636 0.136848,0.13685 4.779415,0.451652 8.773743,0.59493 l 1.211184,0.04345 z m -34.817326,-4.04299 0.248167,-4.949176 1.057882,4.032038 c 0.58184,2.217621 1.110589,4.08474 1.174998,4.149154 0.06445,0.06441 0.643357,-0.01647 1.286538,-0.179714 1.070344,-0.271683 1.2119,-0.242811 1.67097,0.340797 0.375271,0.477077 0.767853,0.630393 1.559156,0.608905 l 1.057607,-0.02872 0.07424,-7.598032 0.07413,-7.598032 h -1.816859 -1.816859 l -0.05566,3.973283 c -0.03058,2.185306 -0.04344,4.318331 -0.0286,4.740057 0.06027,1.708179 -0.403768,0.529391 -1.564237,-3.973284 L 45.48943,13.625266 h -2.43031 -2.430302 l -0.171043,2.579148 c -0.09404,1.418533 -0.242349,4.649438 -0.329504,7.179792 -0.08711,2.530355 -0.221264,5.008428 -0.298036,5.506831 l -0.139576,0.906187 h 1.925385 1.925376 z m 19.496386,4.266251 c 0.531927,-0.222256 1.28073,-0.742465 1.663997,-1.156023 0.664331,-0.716826 0.69548,-0.902941 0.667312,-3.987423 -0.01628,-1.779526 -0.110352,-4.53263 -0.209121,-6.11801 -0.168778,-2.709364 -0.226566,-2.922907 -0.961896,-3.555043 -0.756172,-0.650056 -0.931043,-0.672533 -5.23248,-0.672533 h -4.450165 l 0.07424,7.598032 c 0.07303,7.481415 0.08315,7.599316 0.660318,7.681729 0.375611,0.05364 0.747516,-0.162617 1.035488,-0.602115 l 0.449359,-0.68581 2.29531,0.626445 c 1.262417,0.344544 2.343936,0.772335 2.403374,0.950647 0.141181,0.423547 0.434345,0.408947 1.604317,-0.0799 z m -4.679458,-2.546762 c -0.08942,-0.08943 -0.177764,-2.347924 -0.196297,-5.018884 l -0.03366,-4.856291 h 1.64609 1.646091 l 0.203842,4.654238 c 0.187729,4.286416 0.164433,4.683057 -0.294847,5.018884 -0.497181,0.363554 -2.662441,0.5108 -2.97119,0.202053 z"
           id="path3-1" /><text
           xml:space="preserve"
           style="font-size:15.9498px;line-height:1;font-family:'Lifestyle Rounded M54';-inkscape-font-specification:'Lifestyle Rounded M54';text-align:center;letter-spacing:0.706376px;word-spacing:0.287695px;writing-mode:lr-tb;direction:ltr;text-anchor:middle;fill:#ffffff;fill-opacity:1;stroke:#ffffff;stroke-width:0.154173"
           id="text2"
           transform="matrix(0,0.78139823,-0.78139823,0,86.335581,-0.5715293)"><textPath
             xlink:href="#path1"
             startOffset="50%"
             id="textPath2"><tspan
               id="tspan2"
               style="font-style:normal;font-variant:normal;font-weight:normal;font-stretch:normal;font-family:'Tilt Warp';-inkscape-font-specification:'Tilt Warp';stroke-width:0.154173">PHILADELPHIA</tspan></textPath></text></g></g></g></svg>
