<?xml version="1.0" encoding="UTF-8" standalone="no"?>
<!-- Created with Inkscape (http://www.inkscape.org/) -->

<svg
   width="105.83334mm"
   height="105.83334mm"
   viewBox="0 0 105.83333 105.83333"
   version="1.1"
   id="svg1"
   xml:space="preserve"
   inkscape:version="1.4 (e7c3feb100, 2024-10-09)"
   sodipodi:docname="philadelphia.svg"
   xmlns:inkscape="http://www.inkscape.org/namespaces/inkscape"
   xmlns:sodipodi="http://sodipodi.sourceforge.net/DTD/sodipodi-0.dtd"
   xmlns="http://www.w3.org/2000/svg"
   xmlns:svg="http://www.w3.org/2000/svg"><sodipodi:namedview
     id="namedview1"
     pagecolor="#ffffff"
     bordercolor="#000000"
     borderopacity="0.25"
     inkscape:showpageshadow="2"
     inkscape:pageopacity="0.0"
     inkscape:pagecheckerboard="0"
     inkscape:deskcolor="#d1d1d1"
     inkscape:document-units="mm"
     inkscape:zoom="1.2084098"
     inkscape:cx="293.77451"
     inkscape:cy="146.47349"
     inkscape:window-width="1920"
     inkscape:window-height="1011"
     inkscape:window-x="0"
     inkscape:window-y="32"
     inkscape:window-maximized="1"
     inkscape:current-layer="layer1"
     showgrid="false" /><defs
     id="defs1" /><g
     inkscape:label="Capa 1"
     inkscape:groupmode="layer"
     id="layer1"><g
       id="g5"
       transform="translate(0.0903514,-7.6446492)"><path
         style="fill:#ffffff;fill-opacity:1;stroke:none;stroke-width:1.19"
         d="m 6.1306463,21.457263 -3.5032264,21.676215 12.0423411,5.254839 20.800407,-3.722179 -1.313709,5.473792 5.911694,1.751613 -0.437904,9.852824 -2.408468,7.006455 -6.787501,6.568548 -1.751613,2.189517 3.503226,2.846372 18.391941,1.532663 0.218951,6.349597 3.722179,0.437902 0.656855,-3.941128 2.408467,-2.846371 13.35605,-1.532663 4.597985,-1.532662 1.532663,-1.532663 -3.284276,-3.941127 -4.379031,-3.065325 -3.065325,-5.47379 -2.408468,-14.231858 4.816938,0.437901 2.408468,-1.094756 c 0,0 -1.313712,-7.006455 0,-6.568551 1.313709,0.437904 19.705648,4.379034 19.705648,4.379034 l 11.823392,-3.94113 -3.284278,-22.333069 z"
         id="path4" /><path
         style="fill:#043a5c;fill-opacity:1;stroke-width:0.958129"
         d="m 51.598382,89.91592 c -1.165303,-0.288253 -1.89307,-0.685743 -2.026764,-1.106975 -0.07829,-0.246652 -0.01463,-1.271565 0.141463,-2.277582 0.276622,-1.782875 0.268791,-1.839599 -0.309728,-2.243441 -0.32644,-0.227875 -0.822862,-0.660857 -1.10316,-0.962184 -0.438916,-0.471842 -0.896218,-0.571924 -3.295566,-0.721241 -6.238804,-0.38826 -11.556905,-1.145879 -14.487219,-2.063856 -1.024674,-0.320998 -1.476663,-0.645066 -2.089066,-1.497822 -0.765294,-1.065653 -0.773867,-1.109784 -0.41384,-2.13021 0.781994,-2.216407 2.67854,-4.30274 4.885027,-5.373872 1.467871,-0.712571 2.961759,-2.48762 4.134915,-4.913136 1.348204,-2.787427 1.790659,-4.778533 2.887583,-12.994503 0.0864,-0.64711 0.01833,-0.823891 -0.317221,-0.823891 -0.32868,0 -5.816243,-1.704602 -6.056293,-1.881267 -0.02805,-0.02065 0.101839,-1.060294 0.288655,-2.310326 0.186816,-1.250032 0.297926,-2.31772 0.246913,-2.37264 -0.288285,-0.310356 -11.376406,1.134083 -15.67999,2.042619 -1.402456,0.296073 -2.721036,0.54376 -2.930177,0.550415 -0.209142,0.0066 -3.545902,-0.721114 -7.4150227,-1.617264 -5.8957515,-1.365551 -7.0347651,-1.700885 -7.0347651,-2.071084 0,-0.503087 4.2976523,-25.115171 4.4040833,-25.221603 0.038172,-0.03817 21.3935005,-0.0735 47.4562755,-0.0785 38.220988,-0.0073 47.400315,0.05347 47.456405,0.314334 0.2265,1.053384 4.32621,24.655641 4.28735,24.682537 -0.026,0.01801 -3.2985,0.835379 -7.2722,1.816373 l -7.224889,1.783625 -1.64779,-0.346013 C 85.321342,47.43443 73.70377,45.962571 71.624883,45.962571 c -0.241367,0 -0.234655,0.461052 0.03045,2.091416 0.18704,1.150279 0.342351,2.262652 0.34514,2.471939 0.0034,0.257934 -0.872877,0.683324 -2.720112,1.320429 -1.498849,0.516948 -2.96359,0.973137 -3.25498,1.013754 l -0.5298,0.07385 0.569148,3.944071 c 0.761467,5.276803 1.218229,7.039962 2.524584,9.745201 1.395933,2.89074 2.299144,3.963053 4.18451,4.967942 1.857472,0.990023 3.625774,2.840485 4.464,4.67141 0.721934,1.576912 0.664869,1.956231 -0.481144,3.198282 -0.682788,0.740006 -1.186328,0.98103 -2.976603,1.42478 -3.023573,0.749443 -6.790264,1.266458 -11.645996,1.598527 l -4.167597,0.285009 -1.106326,0.926454 -1.106327,0.926454 0.14874,2.20737 0.148739,2.207371 -0.782437,0.404614 c -0.82702,0.427669 -2.818823,0.685144 -3.670487,0.474476 z m 2.388842,-1.871512 c 0.10592,0 0.10339,-0.541867 -0.0057,-1.204149 -0.372854,-2.265204 -0.285952,-3.306519 0.29123,-3.489709 0.285811,-0.09072 0.905575,-0.550851 1.377252,-1.022528 l 0.857596,-0.857596 -0.401686,-1.022595 c -0.220928,-0.562427 -0.541658,-1.022595 -0.712735,-1.022595 -0.171076,0 -0.452805,-0.342232 -0.626064,-0.760515 -0.226978,-0.547974 -0.48603,-0.760515 -0.926942,-0.760515 -0.528907,0 -0.575902,0.06731 -0.346393,0.496153 0.146042,0.272885 0.422971,0.586596 0.615397,0.697138 0.192426,0.110543 0.532463,0.640803 0.755639,1.178357 0.384764,0.926769 0.379379,1.014434 -0.104005,1.693286 -0.280378,0.393755 -0.920214,0.96958 -1.421857,1.279613 l -0.91208,0.563697 0.178843,2.050233 c 0.200802,2.301947 0.280651,2.530231 0.813496,2.325759 0.206443,-0.07922 0.462011,-0.144034 0.567931,-0.144034 z m -5.737707,-7.858657 c 0.07292,-0.278856 0.114746,-0.509389 0.09294,-0.512297 -0.02181,-0.0029 -2.66342,-0.11317 -5.870258,-0.245025 -3.206839,-0.131856 -6.743234,-0.295654 -7.858657,-0.363997 l -2.02804,-0.124257 1.647783,0.356878 c 1.660598,0.359655 7.95554,1.072574 10.773964,1.22018 0.836566,0.04382 1.878476,0.10123 2.315355,0.127594 0.604281,0.03647 0.826046,-0.07337 0.926911,-0.459076 z M 65.921416,80.02993 c 2.021703,-0.204918 4.417326,-0.534742 5.323606,-0.73294 l 1.647783,-0.360362 -2.154792,0.130183 c -1.185136,0.0716 -4.653135,0.236725 -7.706664,0.366943 -3.053529,0.130216 -5.605841,0.290728 -5.671805,0.356691 -0.06597,0.06597 -0.05275,0.295007 0.02936,0.508984 0.170906,0.445372 2.072112,0.385323 8.532515,-0.269499 z M 33.229795,77.279899 c 5.099339,-0.650942 10.446634,-0.896723 19.509359,-0.896723 9.141137,0 14.358438,0.241883 19.732755,0.914847 1.720495,0.215438 3.183392,0.336487 3.250881,0.268997 0.207993,-0.207993 -0.689485,-1.772492 -1.527464,-2.662702 -0.43753,-0.464803 -1.55637,-1.291544 -2.486309,-1.837203 -2.19097,-1.285592 -3.271491,-2.572168 -4.773132,-5.683369 -1.493984,-3.095336 -1.856161,-4.516673 -2.680761,-10.520459 -0.820542,-5.974248 -0.748407,-5.675901 -1.609441,-6.656565 -1.685697,-1.919904 -4.811292,-2.827774 -9.779776,-2.840665 -4.118902,-0.01068 -6.415123,0.45392 -8.533208,1.726572 -1.944238,1.168196 -2.180601,1.739302 -2.892061,6.98786 -0.920998,6.794367 -1.600031,9.333575 -3.317021,12.403841 -1.246606,2.229139 -2.643234,3.688805 -4.451853,4.652788 -1.619417,0.863141 -3.294675,2.561445 -3.714416,3.765514 -0.311001,0.892139 -0.547426,0.864882 3.272447,0.377267 z m -0.791253,-1.758838 c 0.198026,-0.239048 0.882489,-0.727825 1.52103,-1.086171 0.63854,-0.358346 1.485021,-0.876168 1.881067,-1.150716 0.396048,-0.274547 1.646688,-0.660941 2.779203,-0.858652 2.319948,-0.405009 7.274676,-0.81897 7.274676,-0.60779 0,0.07599 -0.269895,0.535396 -0.599768,1.020902 l -0.599768,0.882739 8.648552,0.02249 c 4.756705,0.01237 9.67525,0.149576 10.930099,0.304909 1.254851,0.155333 3.595601,0.412668 5.201667,0.571856 2.571927,0.25492 4.15761,0.726692 3.764337,1.119964 -0.06774,0.06774 -1.371302,-0.04218 -2.896802,-0.244264 -9.530432,-1.262523 -29.913122,-1.1042 -37.360772,0.290198 -0.832448,0.155857 -0.87523,0.134962 -0.543521,-0.26546 z m 5.825898,-4.805519 c 2.123505,-3.086408 3.399401,-7.003055 4.223507,-12.964987 0.250546,-1.812561 0.570489,-3.447061 0.710983,-3.632222 0.365127,-0.481213 2.381311,-1.462489 3.713854,-1.807532 0.62509,-0.161858 1.336163,-0.352223 1.580161,-0.423034 0.859731,-0.249502 0.498889,1.978041 -1.457654,8.998369 -1.045708,3.752135 -1.901288,6.952979 -1.901288,7.112984 0,0.202974 0.699885,0.268886 2.315181,0.218031 l 2.31518,-0.07289 0.666211,-2.281545 0.666211,-2.281546 3.454648,-0.07035 3.454647,-0.07035 0.285495,-1.133805 c 0.24225,-0.962062 0.380939,-1.133803 0.915607,-1.133803 0.74844,0 0.761762,0.170586 0.168285,2.154794 l -0.454941,1.52103 -3.442405,0.07035 -3.442404,0.07034 -0.603993,2.211202 -0.603995,2.211201 -1.895923,0.07576 c -1.042758,0.04167 -2.00443,0.184262 -2.13705,0.316882 -0.152497,0.152497 2.083669,0.247261 6.083825,0.25782 8.91533,0.02353 15.871758,0.787955 15.010272,1.64944 -0.08446,0.08446 -0.932429,0.03567 -1.884388,-0.108405 -6.908003,-1.045523 -18.997317,-0.997757 -27.182841,0.1074 l -1.36903,0.184838 z M 52.235606,59.588466 c 0.0019,-0.174284 0.07225,-0.573555 0.156319,-0.887267 0.149762,-0.558834 0.228614,-0.570386 3.8934,-0.570386 h 3.740541 l 0.368718,-1.330902 c 0.322137,-1.16277 0.458745,-1.34146 1.081362,-1.414482 0.508428,-0.05962 0.677507,0.01301 0.590025,0.253506 -0.06744,0.185396 -0.32822,1.107107 -0.57951,2.048244 l -0.456891,1.711159 h -3.76495 c -2.340964,0 -3.764951,0.09588 -3.764951,0.253505 0,0.139428 -0.285193,0.253504 -0.633762,0.253504 -0.348569,0 -0.632205,-0.142596 -0.630301,-0.316881 z m -9.129643,-6.920601 c 0,-0.810765 0.79955,-1.890202 1.860737,-2.512099 1.819943,-1.066558 3.391372,-1.432776 6.631682,-1.545499 2.861098,-0.09953 2.974199,-0.08548 1.901287,0.236151 -0.627424,0.188088 -1.540042,0.519479 -2.028039,0.736426 -0.885658,0.393733 -0.883029,0.394486 1.447836,0.415128 3.762851,0.03332 9.451723,1.609596 9.452527,2.619106 4.34e-4,0.545643 0.05904,0.548458 -1.194937,-0.0574 -2.423798,-1.171051 -4.834237,-1.634429 -8.437902,-1.622083 -3.616593,0.01239 -6.203229,0.512912 -8.374124,1.62042 -1.186162,0.605135 -1.259067,0.611495 -1.259067,0.109848 z m -2.398438,-3.853363 c 0.46588,-2.7752 1.289475,-3.584647 4.337217,-4.262705 2.356518,-0.524276 3.054828,-1.153369 0.912222,-0.821803 -2.107434,0.326123 -3.246694,0.662967 -4.255638,1.258258 -1.068602,0.630491 -1.278527,0.985428 -1.514808,2.561213 -0.14157,0.944148 -0.298667,1.233991 -0.722159,1.332377 -0.297676,0.06916 -1.225693,0.286687 -2.062259,0.483402 l -1.521031,0.357662 2.333435,0.02112 2.333435,0.02112 z m 29.120226,-3.04206 c -0.809103,-5.658637 -0.835777,-5.709268 -0.682834,-1.296159 0.07556,2.180238 0.07687,4.062514 0.0029,4.182833 -0.07396,0.12032 -0.930565,0.181418 -1.903577,0.135774 L 65.475129,48.7119 65.354973,47.461419 c -0.141862,-1.476817 -0.658895,-2.144029 -2.193204,-2.830296 -1.036046,-0.463403 -4.856378,-1.2772 -5.056463,-1.077115 -0.162246,0.162246 1.442254,0.887535 1.963422,0.887535 0.984798,0 3.302893,1.050029 3.909429,1.770856 0.355157,0.42208 0.689711,1.242103 0.795721,1.950386 0.100601,0.672159 0.235576,1.307665 0.299942,1.412235 0.06437,0.104572 1.28879,0.19013 2.720942,0.19013 h 2.603913 z M 48.85436,46.113963 c -0.200953,-0.523676 0.420685,-1.234742 0.986242,-1.128121 0.26964,0.05083 0.602864,0.34843 0.740496,0.661328 0.172376,0.391882 0.468185,0.568906 0.950645,0.568906 0.679968,0 0.700402,-0.04067 0.700402,-1.394278 0,-1.225274 0.06145,-1.394278 0.507009,-1.394278 0.445555,0 0.507011,0.169004 0.507011,1.394278 0,1.367661 0.01395,1.394278 0.730948,1.394278 0.517134,0 0.769634,-0.147935 0.8632,-0.50573 0.271023,-1.036394 1.82817,-0.905252 1.82817,0.153967 0,0.333567 0.211171,0.502813 0.697138,0.55873 0.620812,0.07143 0.69714,-0.0015 0.69714,-0.666099 0,-1.047464 -0.604175,-1.435681 -2.307788,-1.482885 -1.676344,-0.04645 -2.001798,-0.181706 -2.001798,-0.831947 0,-0.291961 -0.233577,-0.507147 -0.633464,-0.58359 -0.738434,-0.141161 -1.315905,0.235434 -1.437805,0.937658 -0.07427,0.427817 -0.265133,0.485904 -1.398877,0.42573 -1.862267,-0.09884 -2.85547,0.482904 -2.863598,1.677285 -0.0032,0.469956 0.134799,0.570386 0.783755,0.570386 0.571716,0 0.750227,-0.09749 0.651174,-0.355618 z m 46.600397,-1.110394 3.549064,-1.157555 -2.154785,-0.324157 C 91.763554,42.75682 78.649638,41.3342 77.519882,41.424997 c -0.17462,0.01404 1.450707,0.296353 3.611839,0.627376 4.695447,0.719208 12.15386,2.127943 12.646262,2.388606 0.243384,0.128846 -0.145875,0.476044 -1.267528,1.130558 -0.890333,0.519535 -1.390639,0.864728 -1.111785,0.767098 0.278854,-0.09763 2.10409,-0.69841 4.056087,-1.335066 z m -81.501873,1.090024 c 0,-0.06737 -0.591077,-0.422002 -1.313503,-0.788083 -0.934704,-0.473651 -1.208858,-0.720371 -0.950644,-0.855515 0.347872,-0.182071 5.222058,-1.154635 9.48904,-1.893385 1.115422,-0.193114 1.786042,-0.361354 1.490266,-0.373866 -0.647819,-0.0274 -9.994028,1.142261 -12.137477,1.518988 -2.9929296,0.52603 -2.997932,0.466799 0.126752,1.501057 3.114876,1.031012 3.295566,1.079853 3.295566,0.890804 z M 48.691798,40.49644 c -0.429263,-1.216193 -0.713223,-2.42316 -0.631023,-2.68215 0.09424,-0.296932 0.02608,-0.469456 -0.184509,-0.467009 -0.415085,0.0048 -1.203851,0.493897 -0.805176,0.499246 0.159117,0.0021 0.723006,1.221185 1.253087,2.709 0.53008,1.487815 1.005254,2.580706 1.055941,2.428645 0.05069,-0.15206 -0.259057,-1.271539 -0.68832,-2.487732 z m 8.607348,-0.11098 c 0.457069,-1.324564 0.939586,-2.478029 1.07226,-2.563257 0.132673,-0.08523 -0.0031,-0.218847 -0.301692,-0.296933 -0.352563,-0.0922 -0.505446,-0.03787 -0.436046,0.154958 0.05878,0.163314 -0.276904,1.380668 -0.745963,2.705232 -0.469059,1.324564 -0.852867,2.516671 -0.852909,2.649128 -1.94e-4,0.61401 0.499926,-0.433864 1.26435,-2.649128 z m -32.762428,1.599787 c -0.243998,-0.06376 -0.643268,-0.06376 -0.887266,0 -0.244,0.06376 -0.04436,0.115934 0.443633,0.115934 0.487997,0 0.687633,-0.05217 0.443633,-0.115934 z M 7.1427856,41.012955 8.3180969,40.843551 8.9017327,37.206397 9.4853685,33.569241 10.388225,33.44121 c 0.49657,-0.07041 1.555084,-0.198632 2.352251,-0.284923 1.576294,-0.170629 1.574512,-0.168123 1.781098,-2.506967 l 0.06508,-0.73671 -1.774535,0.05137 c -0.975994,0.02826 -1.988858,0.115447 -2.250807,0.193766 -0.441362,0.131962 -0.463212,0.03355 -0.298092,-1.342697 0.340688,-2.839554 0.09098,-2.625868 3.068429,-2.625868 1.440648,0 2.671732,-0.08556 2.735741,-0.190129 0.06401,-0.104571 0.197964,-0.846074 0.297676,-1.647782 l 0.181295,-1.457655 H 12.257686 7.9690149 l -1.5765892,9.0628 c -0.8671242,4.984543 -1.5741441,9.160731 -1.5711547,9.280416 0.00297,0.119686 0.2621087,0.156392 0.5758213,0.08157 0.3137126,-0.07482 1.0992761,-0.212275 1.7456971,-0.305447 z M 100.80584,40.448836 c -0.0734,-0.243999 -0.36049,-1.789046 -0.63799,-3.43344 -0.311601,-1.846444 -0.727592,-3.393043 -1.087791,-4.044242 -0.825936,-1.493188 -2.421623,-2.627121 -4.190397,-2.977786 -2.616191,-0.518671 -2.497565,-0.405941 -2.758646,-2.62161 l -0.154287,-1.309333 1.528053,0.08484 1.528044,0.08484 0.167251,1.216081 c 0.15995,1.162945 0.207933,1.222807 1.098236,1.370022 2.483414,0.410641 2.532,0.357016 2.048126,-2.260481 -0.602175,-3.257487 -1.218367,-3.66412 -5.552426,-3.66412 -2.959163,0 -3.089028,0.02286 -3.72123,0.655065 -0.615254,0.615248 -0.644697,0.756305 -0.484421,2.320685 0.0939,0.916091 0.291128,2.227388 0.438373,2.913992 0.447868,2.088333 2.303774,3.728003 4.665275,4.12172 1.428695,0.238197 2.337337,0.622921 2.505364,1.060786 0.07991,0.208239 0.216432,0.983928 0.303382,1.723754 l 0.158092,1.345138 -1.235805,-0.132636 c -1.735163,-0.186226 -2.122371,-0.442108 -2.126961,-1.405542 -0.0057,-1.213174 -0.229941,-1.392651 -1.987716,-1.591521 l -1.605422,-0.181632 0.177312,1.746615 c 0.20434,2.012918 0.716211,3.070543 1.780894,3.679705 0.413346,0.236498 2.519745,0.710262 4.680873,1.052806 4.984357,0.790035 4.621347,0.770006 4.463817,0.246294 z M 47.035291,39.37144 c -0.08909,-0.144145 -1.359647,-0.253506 -2.94523,-0.253506 -1.794483,0 -2.732703,0.09037 -2.63188,0.253506 0.08909,0.144144 1.359645,0.253505 2.94523,0.253505 1.794483,0 2.732703,-0.09037 2.63188,-0.253505 z M 20.850953,39.093141 c 2.941842,-0.313878 4.12146,-0.753939 4.623523,-1.724823 0.339834,-0.657165 1.407164,-9.944265 1.407164,-12.244074 0,-0.972629 -0.117297,-1.272079 -0.667949,-1.705222 -0.592448,-0.46602 -1.015113,-0.525303 -3.7392,-0.524463 -3.641964,0.0011 -4.509356,0.342241 -4.962502,1.951594 -0.287056,1.01948 -1.78457,11.836972 -1.78457,12.891073 0,0.843801 0.853472,1.634214 1.764593,1.634214 0.412815,0 1.924339,-0.125235 3.358941,-0.278299 z m -1.453622,-3.026829 c -0.04956,-0.0802 0.186576,-2.363879 0.524754,-5.07485 0.33818,-2.71097 0.61646,-4.957557 0.618401,-4.992413 0.0019,-0.03486 0.693657,-0.06338 1.537147,-0.06338 h 1.533618 l -0.177077,1.584411 c -0.09739,0.871424 -0.35973,3.12445 -0.582973,5.006724 l -0.405899,3.422318 -1.478927,0.131501 c -0.813409,0.07233 -1.51948,0.06588 -1.569044,-0.01431 z m 68.832528,2.783301 c 0,-0.261516 -0.389566,-3.094782 -0.650493,-4.73094 -0.07157,-0.449036 -0.41899,-1.159638 -0.771955,-1.579114 -0.600278,-0.713395 -0.616011,-0.79944 -0.243413,-1.331395 0.475807,-0.679309 0.491616,-1.339271 0.104637,-4.368055 -0.263869,-2.065257 -0.377148,-2.382389 -1.115416,-3.122606 l -0.82173,-0.823891 h -4.084428 -4.084424 l 0.131877,0.950644 c 0.07253,0.522854 0.360511,3.574421 0.639951,6.781259 0.279441,3.20684 0.573703,6.258407 0.653917,6.781261 l 0.145841,0.950643 h 1.658235 1.658234 l -0.17666,-2.091416 c -0.09716,-1.150279 -0.238335,-2.348091 -0.31372,-2.661803 -0.127939,-0.532411 -0.05509,-0.570128 1.094567,-0.566504 0.677397,0.0021 1.382628,0.09962 1.567173,0.216621 0.390888,0.247833 0.694452,1.502749 0.940059,3.886214 l 0.175012,1.69842 1.175979,0.0938 c 0.646795,0.05159 1.432662,0.11436 1.746373,0.139492 0.313711,0.02513 0.570384,-0.07505 0.570384,-0.222628 z M 80.49889,28.54616 c -0.333215,-2.962402 -0.455959,-2.707215 1.266595,-2.633274 0.836562,0.03591 1.537501,0.08425 1.557621,0.107415 0.02012,0.02317 0.07723,0.897704 0.126761,1.943412 l 0.09016,1.901287 -1.437903,0.07544 -1.437912,0.07543 z m -27.339556,9.938012 c 1.695091,0 2.94994,-0.08381 2.788556,-0.186247 -0.161386,-0.102435 -1.612032,-0.187993 -3.22366,-0.190129 -2.272072,-0.003 -3.040759,0.08448 -3.422317,0.389502 -0.471282,0.376752 -0.465292,0.384791 0.141676,0.190129 0.348569,-0.11179 2.020655,-0.203255 3.715745,-0.203255 z m -17.58661,-0.606076 c 1.073879,-0.13406 1.63841,-0.355253 2.109825,-0.826669 0.628781,-0.628781 0.651789,-0.780555 0.996997,-6.576833 0.194348,-3.26326 0.357181,-6.30395 0.361849,-6.757091 l 0.0085,-0.823891 h -1.647783 c -1.645391,0 -1.647783,0.0011 -1.647783,0.727769 0,1.237489 -0.762794,11.273749 -0.864584,11.375539 -0.05283,0.05283 -0.735493,0.162053 -1.517025,0.242714 l -1.420967,0.146657 0.0032,-1.112862 c 0.0017,-0.612074 0.171429,-2.995138 0.377127,-5.295696 0.205697,-2.300558 0.375404,-4.616066 0.377127,-5.145573 l 0.0032,-0.962741 -1.581699,0.07547 -1.5817,0.07547 -0.555501,5.830616 c -0.738452,7.750879 -0.740323,8.358859 -0.02727,8.858301 0.613874,0.429974 3.851872,0.512712 6.606638,0.168814 z m 40.610771,-1.105083 c -0.09856,-0.731996 -0.20997,-1.365059 -0.247572,-1.406806 -0.0376,-0.04175 -1.270609,-0.143988 -2.740019,-0.227199 -2.992416,-0.169459 -2.954516,-0.140084 -2.96144,-2.295323 l -0.0034,-1.077397 h 2.281545 2.281545 l -0.0034,-0.823891 c -0.008,-1.917182 -0.06944,-1.964664 -2.539524,-1.964664 h -2.230348 l -0.08501,-1.648314 -0.08501,-1.648315 2.756868,5.32e-4 2.756867,5.31e-4 -0.158441,-0.792203 c -0.08717,-0.435711 -0.158469,-1.063136 -0.158469,-1.394277 v -0.602075 h -4.309585 -4.309586 l 0.0099,0.950644 c 0.02467,2.368882 0.716316,13.549345 0.846231,13.679258 0.124421,0.124422 4.34537,0.410635 7.976959,0.540901 l 1.101185,0.0395 z M 44.52812,33.09719 l 0.225626,-4.499714 0.961812,3.665866 c 0.528998,2.016226 1.009728,3.713782 1.068293,3.772346 0.05856,0.05856 0.584926,-0.01497 1.169694,-0.163393 0.973142,-0.24701 1.101846,-0.22076 1.519222,0.309847 0.341189,0.433751 0.698118,0.573144 1.417564,0.553607 l 0.961556,-0.02611 0.06745,-6.908012 0.06745,-6.908012 h -1.651861 -1.651857 l -0.05061,3.612447 c -0.02783,1.986846 -0.03953,3.926159 -0.02599,4.309586 0.05483,1.553049 -0.3671,0.481314 -1.422178,-3.612448 l -1.110706,-4.309588 h -2.209593 -2.209595 l -0.155511,2.344921 c -0.08553,1.289708 -0.22034,4.227197 -0.299576,6.527755 -0.07924,2.300559 -0.201171,4.553585 -0.270966,5.006725 l -0.126901,0.823891 h 1.750526 1.750525 z m 17.725806,3.878808 c 0.483623,-0.202071 1.164423,-0.675037 1.512888,-1.051038 0.604,-0.651727 0.632318,-0.82094 0.606709,-3.625302 -0.01477,-1.617918 -0.100332,-4.120997 -0.190129,-5.5624 -0.153458,-2.463311 -0.20599,-2.657461 -0.87454,-3.232189 -0.687504,-0.591021 -0.846497,-0.611457 -4.757294,-0.611457 h -4.046019 l 0.06745,6.908012 c 0.06642,6.801986 0.07563,6.90918 0.600348,6.984108 0.341505,0.04877 0.679631,-0.147848 0.941448,-0.547433 l 0.408551,-0.623528 2.086861,0.569554 c 1.147773,0.313254 2.131074,0.702195 2.185114,0.864314 0.12836,0.385082 0.394896,0.371808 1.458613,-0.07264 z m -4.254491,-2.315476 c -0.08131,-0.08131 -0.161614,-2.134696 -0.178465,-4.563091 l -0.03064,-4.415264 h 1.496602 1.496601 l 0.185327,4.231561 c 0.170681,3.897142 0.149496,4.257762 -0.268067,4.563091 -0.452035,0.330537 -2.420653,0.464411 -2.70136,0.183703 z"
         id="path3" /><path
         sodipodi:type="star"
         style="fill:#ff0000;fill-opacity:1;stroke:none;stroke-width:1.19"
         id="path5"
         inkscape:flatsided="false"
         sodipodi:sides="5"
         sodipodi:cx="-37.659687"
         sodipodi:cy="-8.539115"
         sodipodi:r1="7.0507874"
         sodipodi:r2="2.6255703"
         sodipodi:arg1="1.1210367"
         sodipodi:arg2="1.7493552"
         inkscape:rounded="0"
         inkscape:randomized="0"
         d="m -34.594364,-2.1895168 -3.531655,-3.7657726 -4.625258,2.2936039 2.490121,-4.5224912 -3.61063,-3.6901193 5.070635,0.970719 2.393765,-4.574223 0.643704,5.122429 5.090059,0.863094 -4.672804,2.1951157 z"
         inkscape:transform-center-x="-0.38698241"
         inkscape:transform-center-y="-0.29454319"
         transform="translate(58.460094,97.433489)" /><path
         sodipodi:type="star"
         style="fill:#ff0000;fill-opacity:1;stroke:none;stroke-width:1.19"
         id="path5-7"
         inkscape:flatsided="false"
         sodipodi:sides="5"
         sodipodi:cx="-37.659687"
         sodipodi:cy="-8.539115"
         sodipodi:r1="7.0507874"
         sodipodi:r2="2.6255703"
         sodipodi:arg1="1.1210367"
         sodipodi:arg2="1.7493552"
         inkscape:rounded="0"
         inkscape:randomized="0"
         d="m -34.594364,-2.1895168 -3.531655,-3.7657726 -4.625258,2.2936039 2.490121,-4.5224912 -3.61063,-3.6901193 5.070635,0.970719 2.393765,-4.574223 0.643704,5.122429 5.090059,0.863094 -4.672804,2.1951157 z"
         inkscape:transform-center-x="-0.38698241"
         inkscape:transform-center-y="-0.29454319"
         transform="translate(78.549009,103.46517)" /><path
         sodipodi:type="star"
         style="fill:#ff0000;fill-opacity:1;stroke:none;stroke-width:1.19"
         id="path5-7-0"
         inkscape:flatsided="false"
         sodipodi:sides="5"
         sodipodi:cx="-37.659687"
         sodipodi:cy="-8.539115"
         sodipodi:r1="7.0507874"
         sodipodi:r2="2.6255703"
         sodipodi:arg1="1.1210367"
         sodipodi:arg2="1.7493552"
         inkscape:rounded="0"
         inkscape:randomized="0"
         d="m -34.594364,-2.1895168 -3.531655,-3.7657726 -4.625258,2.2936039 2.490121,-4.5224912 -3.61063,-3.6901193 5.070635,0.970719 2.393765,-4.574223 0.643704,5.122429 5.090059,0.863094 -4.672804,2.1951157 z"
         inkscape:transform-center-x="-0.38698241"
         inkscape:transform-center-y="-0.29454319"
         transform="translate(105.12623,102.85475)" /><path
         sodipodi:type="star"
         style="fill:#ff0000;fill-opacity:1;stroke:none;stroke-width:1.19"
         id="path5-7-0-8"
         inkscape:flatsided="false"
         sodipodi:sides="5"
         sodipodi:cx="-37.659687"
         sodipodi:cy="-8.539115"
         sodipodi:r1="7.0507874"
         sodipodi:r2="2.6255703"
         sodipodi:arg1="1.1210367"
         sodipodi:arg2="1.7493552"
         inkscape:rounded="0"
         inkscape:randomized="0"
         d="m -34.594364,-2.1895168 -3.531655,-3.7657726 -4.625258,2.2936039 2.490121,-4.5224912 -3.61063,-3.6901193 5.070635,0.970719 2.393765,-4.574223 0.643704,5.122429 5.090059,0.863094 -4.672804,2.1951157 z"
         inkscape:transform-center-x="-0.38698241"
         inkscape:transform-center-y="-0.29454319"
         transform="translate(124.12139,94.014215)" /><path
         sodipodi:type="star"
         style="fill:#ff0000;fill-opacity:1;stroke:none;stroke-width:1.19"
         id="path5-7-0-8-2"
         inkscape:flatsided="false"
         sodipodi:sides="5"
         sodipodi:cx="-37.659687"
         sodipodi:cy="-8.539115"
         sodipodi:r1="7.0507874"
         sodipodi:r2="2.6255703"
         sodipodi:arg1="1.1210367"
         sodipodi:arg2="1.7493552"
         inkscape:rounded="0"
         inkscape:randomized="0"
         d="m -34.594364,-2.1895168 -3.531655,-3.7657726 -4.625258,2.2936039 2.490121,-4.5224912 -3.61063,-3.6901193 5.070635,0.970719 2.393765,-4.574223 0.643704,5.122429 5.090059,0.863094 -4.672804,2.1951157 z"
         inkscape:transform-center-x="-0.2899546"
         inkscape:transform-center-y="-0.22069217"
         transform="matrix(0.74927035,0,0,0.74927035,123.70284,79.492634)" /><path
         sodipodi:type="star"
         style="fill:#ff0000;fill-opacity:1;stroke:none;stroke-width:1.19"
         id="path5-7-0-8-2-2"
         inkscape:flatsided="false"
         sodipodi:sides="5"
         sodipodi:cx="-37.659687"
         sodipodi:cy="-8.539115"
         sodipodi:r1="7.0507874"
         sodipodi:r2="2.6255703"
         sodipodi:arg1="1.1210367"
         sodipodi:arg2="1.7493552"
         inkscape:rounded="0"
         inkscape:randomized="0"
         d="m -34.594364,-2.1895168 -3.531655,-3.7657726 -4.625258,2.2936039 2.490121,-4.5224912 -3.61063,-3.6901193 5.070635,0.970719 2.393765,-4.574223 0.643704,5.122429 5.090059,0.863094 -4.672804,2.1951157 z"
         inkscape:transform-center-x="-0.2899546"
         inkscape:transform-center-y="-0.22069217"
         transform="matrix(0.74927035,0,0,0.74927035,41.836455,80.954314)" /></g></g></svg>
