<?xml version="1.0" encoding="UTF-8" standalone="no"?>
<!-- Created with Inkscape (http://www.inkscape.org/) -->

<svg
   width="105.83334mm"
   height="105.83334mm"
   viewBox="0 0 105.83333 105.83333"
   version="1.1"
   id="svg1"
   xml:space="preserve"
   inkscape:version="1.4.2 (ebf0e940d0, 2025-05-08)"
   sodipodi:docname="phoenix.svg"
   inkscape:export-filename="../pngs/la.png"
   inkscape:export-xdpi="96"
   inkscape:export-ydpi="96"
   xmlns:inkscape="http://www.inkscape.org/namespaces/inkscape"
   xmlns:sodipodi="http://sodipodi.sourceforge.net/DTD/sodipodi-0.dtd"
   xmlns="http://www.w3.org/2000/svg"
   xmlns:svg="http://www.w3.org/2000/svg"><sodipodi:namedview
     id="namedview1"
     pagecolor="#ffffff"
     bordercolor="#000000"
     borderopacity="0.25"
     inkscape:showpageshadow="2"
     inkscape:pageopacity="0.0"
     inkscape:pagecheckerboard="0"
     inkscape:deskcolor="#d1d1d1"
     inkscape:document-units="mm"
     inkscape:zoom="0.76007946"
     inkscape:cx="644.66944"
     inkscape:cy="-78.939115"
     inkscape:window-width="1920"
     inkscape:window-height="1011"
     inkscape:window-x="0"
     inkscape:window-y="32"
     inkscape:window-maximized="1"
     inkscape:current-layer="layer1"
     showgrid="false" /><defs
     id="defs1" /><g
     inkscape:label="Capa 1"
     inkscape:groupmode="layer"
     id="layer1"><g
       id="g64"
       transform="matrix(0.92471135,0,0,0.92471135,-146.01239,3.5063069)"><rect
         style="fill:#ffffff;fill-opacity:1;fill-rule:evenodd;stroke-width:0.323947"
         id="rect59-2"
         width="94.38385"
         height="111.51402"
         x="-267.64035"
         y="-2.0592585"
         ry="5.7467947"
         transform="matrix(-1,0,-0.09912623,0.99507487,0,0)" /><rect
         style="fill:#1d1160;fill-opacity:1;fill-rule:evenodd;stroke-width:0.295493"
         id="rect59"
         width="86.093483"
         height="101.71899"
         x="-263.49515"
         y="2.8382564"
         ry="5.2420149"
         transform="matrix(-1,0,-0.09912623,0.99507487,0,0)" /><g
         id="g63"
         transform="matrix(0.97600886,0.18925095,-0.18164864,1.0168566,12.891967,-42.801768)"><path
           style="fill:#f9ad1b;fill-opacity:1;stroke-width:1.18587"
           d="m 249.42127,27.550526 c -0.007,0.01193 0.0179,0.111081 0.0548,0.219517 0.11178,0.328439 0.51084,2.113263 0.56949,2.547635 0.22535,1.668807 0.25339,2.652008 0.13005,4.561568 -0.0341,0.527984 -0.33345,2.231938 -0.52305,2.977274 -0.20164,0.792708 -0.62848,2.133282 -0.86459,2.71546 -0.83674,2.063134 -1.49183,3.303832 -2.99672,5.675614 -0.21674,0.341592 -1.12656,1.605171 -1.52753,2.121477 -1.23166,1.585925 -2.65882,3.209785 -4.15005,4.722035 -0.14382,0.145851 -0.38987,0.395373 -0.54677,0.55449 -0.54789,0.555651 -2.74701,2.61229 -2.82235,2.639493 -0.0159,0.0057 -0.14296,0.114386 -0.2824,0.241424 -0.4804,0.437757 -1.44768,1.249978 -2.40178,2.016779 -0.52611,0.422824 -1.00066,0.808543 -1.05456,0.857149 -0.3859,0.348 -4.16726,3.152836 -4.32948,3.211407 -0.12338,0.04455 -0.13014,0.0989 0.43238,-3.484492 0.37931,-2.416311 0.51096,-3.265582 0.68672,-4.429742 0.15921,-1.054556 0.18376,-1.251286 0.16323,-1.308147 -0.0614,-0.170012 -2.28416,2.36233 -3.61282,4.115977 -0.72462,0.956408 -0.79309,1.048388 -0.98687,1.325798 -0.0877,0.125577 -0.32831,0.468439 -0.53469,0.762008 -0.6933,0.986152 -2.36955,3.516255 -2.50024,3.773824 -0.0104,0.02053 -0.20438,0.33346 -0.43097,0.69532 -0.22661,0.361852 -0.56635,0.919773 -0.755,1.239814 -1.1083,1.880196 -1.94139,3.323198 -2.54381,4.406169 -0.37573,0.67545 -0.70833,1.237185 -0.73911,1.248298 -0.0308,0.01111 -0.0854,-0.02676 -0.12136,-0.0842 -0.036,-0.05746 -0.14006,-0.218257 -0.23134,-0.357403 -0.0913,-0.139161 -0.36386,-0.565607 -0.60576,-0.947646 -0.24191,-0.382047 -0.63722,-0.9946 -0.87849,-1.361236 -0.24125,-0.366625 -0.66103,-1.033911 -0.93281,-1.482842 -0.27178,-0.448932 -0.51005,-0.827352 -0.52947,-0.840919 -0.0194,-0.01352 -0.21368,-0.353537 -0.43169,-0.755472 -0.21801,-0.401934 -0.54198,-0.998262 -0.71993,-1.325168 -0.23917,-0.439347 -0.46472,-0.983439 -0.86484,-2.08615 -0.35568,-0.980401 -0.55728,-1.47439 -0.58794,-1.441064 -0.0991,0.107632 -0.55948,0.830207 -0.84591,1.327482 -0.16498,0.286447 -0.31557,0.526429 -0.33463,0.533311 -0.0564,0.02035 -1.65571,2.99273 -1.80553,3.355566 -0.0756,0.183131 -0.23764,0.548349 -0.36007,0.811592 -0.20147,0.433232 -0.77093,1.731609 -0.83017,1.892815 -0.12013,0.326854 -0.25272,0.668758 -0.42638,1.099427 -0.56704,1.406263 -1.85003,5.218493 -2.17037,6.448992 -0.0787,0.302473 -0.16885,0.596397 -0.20023,0.653168 -0.0499,0.09022 -0.066,0.09262 -0.1283,0.0193 -0.0392,-0.04615 -0.11413,-0.132466 -0.16652,-0.191786 -0.0948,-0.107309 -0.88465,-1.189007 -1.21648,-1.665911 -0.0957,-0.137543 -0.26601,-0.370506 -0.37843,-0.517664 -0.20673,-0.270592 -1.00149,-1.339234 -1.15082,-1.547384 -0.52225,-0.727954 -1.3577,-1.824351 -1.40532,-1.84428 -0.10298,-0.04306 -0.91129,1.980887 -1.40234,3.51139 -0.36786,1.146565 -0.83354,2.994151 -1.12033,4.444956 -0.15046,0.761154 -0.58085,3.242272 -0.5684,3.276753 0.004,0.01075 -0.0438,0.353177 -0.10605,0.760943 -0.19959,1.308239 -0.25074,1.669021 -0.24057,1.697186 0.005,0.01513 -0.0335,0.305186 -0.0866,0.64452 -0.0531,0.339334 -0.13052,0.885254 -0.17201,1.213157 -0.0764,0.604024 -0.33042,2.485734 -0.4319,3.199834 -0.0305,0.214407 -0.0715,0.510866 -0.0913,0.658799 -0.0594,0.445197 -0.51169,3.523677 -0.62458,4.25085 -0.0579,0.372946 -0.12247,0.684298 -0.14351,0.691894 -0.0331,0.01196 -0.31747,-0.372585 -0.74712,-1.010395 -0.0678,-0.100686 -0.28098,-0.446174 -0.4737,-0.767751 -0.1927,-0.321569 -0.48084,-0.793609 -0.6403,-1.048962 -0.73945,-1.184189 -2.11808,-3.612177 -2.66752,-4.697965 -0.14059,-0.277811 -0.38555,-0.752629 -0.54437,-1.055149 -1.10469,-2.10424 -2.64842,-5.717405 -3.35905,-7.862007 -0.61755,-1.863691 -1.26791,-4.218698 -1.52164,-5.50996 -0.066,-0.336025 -0.13874,-0.68101 -0.16158,-0.766645 -0.13089,-0.490737 -0.34318,-1.690138 -0.3502,-1.978683 -0.002,-0.0931 -0.0314,-0.287359 -0.0648,-0.431769 -0.10934,-0.473198 -0.24322,-1.73358 -0.3405,-3.205443 -0.0333,-0.504286 -0.0687,-1.016395 -0.0785,-1.138002 -0.01,-0.12162 -0.0145,-0.363184 -0.0103,-0.5368 0.004,-0.173629 0.003,-0.710761 -0.003,-1.193644 -0.0179,-1.446071 0.1204,-3.533839 0.35896,-5.420873 0.12494,-0.988268 0.48762,-2.960752 0.76755,-4.174451 0.2481,-1.075702 0.88625,-3.390863 1.02754,-3.727812 0.0155,-0.03685 0.0747,-0.211886 0.13163,-0.388899 0.54114,-1.6824 1.59284,-4.319402 2.45202,-6.148124 1.06532,-2.267485 3.20114,-6.127525 4.46513,-8.069751 0.15971,-0.245427 0.37448,-0.580021 0.47727,-0.743544 0.10277,-0.163533 0.31034,-0.481544 0.46126,-0.706696 0.15092,-0.225154 0.28271,-0.426832 0.29286,-0.448184 0.0101,-0.02137 0.18187,-0.27436 0.38159,-0.562243 0.19972,-0.287883 0.43994,-0.641941 0.53382,-0.786791 0.0939,-0.144819 0.36873,-0.53721 0.61079,-0.871909 0.24205,-0.33471 0.43488,-0.623017 0.4285,-0.640689 -0.006,-0.01765 -0.16923,-0.04369 -0.36186,-0.05774 -0.19265,-0.01411 -0.63789,-0.05319 -0.98946,-0.08692 -0.64892,-0.06226 -1.52155,-0.134874 -3.44874,-0.28698 -0.58836,-0.04644 -1.10177,-0.09216 -1.14091,-0.101619 -0.0391,-0.0095 -0.55219,-0.05418 -1.1401,-0.09939 -1.14475,-0.08804 -1.25512,-0.104223 -1.23406,-0.180928 0.0124,-0.04518 0.92955,-1.114789 1.25614,-1.464974 0.0753,-0.08076 0.45758,-0.496815 0.84949,-0.92459 1.58807,-1.733443 3.88416,-4.023781 5.19544,-5.182456 0.34571,-0.305465 1.22165,-1.074487 1.44814,-1.271359 0.22637,-0.19678 1.48229,-1.229896 2.11029,-1.735929 0.89285,-0.719445 2.54168,-1.91888 3.62672,-2.638248 0.47561,-0.315325 1.03492,-0.686583 1.24293,-0.825003 0.20799,-0.13846 0.60205,-0.382796 0.87567,-0.543042 0.27362,-0.160262 0.66588,-0.391006 0.87168,-0.512806 0.69909,-0.413738 2.21878,-1.223073 2.99678,-1.595985 0.42637,-0.204327 0.97445,-0.467349 1.21803,-0.584287 1.46836,-0.705312 4.5698,-1.824608 6.16468,-2.224786 0.27106,-0.06801 0.52407,-0.148391 0.56222,-0.178676 0.0382,-0.03029 0.0953,-0.03674 0.12672,-0.01496 0.0315,0.02201 0.16074,0.0027 0.2871,-0.04289 0.12636,-0.04562 0.34581,-0.100904 0.48764,-0.122958 0.39346,-0.06099 1.33569,-0.236921 1.50263,-0.280474 0.82268,-0.2146626 3.45465,-0.4677506 5.1475,-0.4950466 0.83855,-0.01352 2.77462,0.09426 3.64408,0.202859 0.94203,0.11767 2.71758,0.4484016 3.48975,0.6500456 1.89934,0.495983 3.82896,1.267136 5.70903,2.281557 1.00129,0.540261 2.77297,1.767323 3.50477,2.427395 0.16105,0.145263 0.47586,0.428444 0.69959,0.629294 0.43224,0.388035 1.06634,1.024894 1.47925,1.485692 0.1377,0.153693 0.42585,0.472094 0.64031,0.707585 0.53072,0.582756 1.69028,2.032524 2.18597,2.733052 1.26967,1.794339 2.30995,3.726062 3.02399,5.615319 0.23724,0.627629 0.42575,1.151206 0.41892,1.163512 z"
           id="path15"
           sodipodi:nodetypes="csssssssssscssssssscccssssssssssssscssssssssssssscsssssssssssssssssscssssssssscssssssssscssssssssssscssccsscsccsssssssssccc" /><path
           style="fill:#000000;stroke-width:1.18587"
           d="m 247.41524,30.695547 c -0.0316,0.01141 -0.0661,-0.0033 -0.0767,-0.03259 -0.0106,-0.02934 0.0116,-0.0487 0.0494,-0.04299 0.0378,0.0057 0.0723,0.02038 0.0767,0.03259 0.004,0.01222 -0.0178,0.03157 -0.0494,0.04298 z"
           id="path59" /><path
           style="fill:#000000;stroke-width:1.18587"
           d="m 241.86937,7.9022157 c -0.0297,-0.030331 -0.0434,-0.074507 -0.0303,-0.098088 0.0131,-0.023585 0.0374,0.00125 0.054,0.055178 0.0184,0.059682 0.009,0.076483 -0.0237,0.042912 z"
           id="path58" /><path
           style="fill:#000000;stroke-width:1.18587"
           d="m 241.49257,3.8020271 c -0.0323,-0.043696 -0.0558,-0.1120048 -0.0524,-0.1517833 0.003,-0.039711 0.0299,-0.00369 0.0586,0.079481 0.029,0.083464 0.026,0.1160068 -0.006,0.072229 z"
           id="path57" /><path
           style="fill:#000000;stroke-width:1.18587"
           d="m 247.0824,18.199185 c -0.0285,-0.0289 -0.0489,-0.08548 -0.0454,-0.125833 0.003,-0.04042 0.0267,-0.01677 0.0517,0.05249 0.025,0.06922 0.0222,0.102212 -0.006,0.07342 z"
           id="path56" /><path
           style="fill:#000000;stroke-width:1.18587"
           d="m 245.4201,14.510702 c -0.11376,-0.02972 -0.11514,-0.02721 -0.0148,0.02683 0.10534,0.05673 0.16216,0.06637 0.14721,0.02496 -0.004,-0.01043 -0.0633,-0.03377 -0.13238,-0.05179 z"
           id="path33" /><path
           style="fill:#000000;stroke-width:1.18587"
           d="m 242.38717,-1.5124821 c -0.0119,0.00431 -0.0429,0.060321 -0.0688,0.1244132 -0.0427,0.1056671 -0.04,0.1067045 0.0285,0.011168 0.072,-0.1003253 0.0875,-0.1526446 0.0402,-0.1355694 z"
           id="path32" /><path
           style="fill:#e56020;fill-opacity:1;stroke-width:1.18587"
           d="m 244.5446,32.396993 c 0.0742,0.286134 0.14211,0.620063 0.15062,0.742152 0.009,0.122057 0.0386,0.41847 0.0666,0.658707 0.028,0.240236 0.046,0.668969 0.0401,0.952732 -0.006,0.283747 9.7e-4,0.573068 0.0153,0.642886 0.0145,0.06982 -0.001,0.158287 -0.0346,0.196554 -0.0335,0.03827 -0.036,0.06103 -0.006,0.05061 0.0302,-0.01041 0.0337,0.01946 0.008,0.06638 -0.0259,0.04687 -0.0364,0.115211 -0.0232,0.151803 0.023,0.06357 0.002,0.23412 -0.16592,1.384371 -0.52359,3.575229 -2.84038,7.802345 -3.30655,8.627705 -0.62567,1.107732 -0.73529,1.287045 -1.42471,2.330653 -0.92839,1.405396 -1.7479,2.510804 -2.73855,3.69397 -3.32268,3.437451 -1.37109,-1.31928 -1.51739,-4.353458 -0.003,-0.109203 -0.0746,-0.403268 -0.15972,-0.653518 -0.27408,-0.805768 -0.82808,-1.253268 -1.56306,-1.262501 -0.13519,-0.0017 -0.29782,-0.0067 -0.36129,-0.0112 -0.67096,-0.04715 -3.41899,0.9484 -4.4095,1.597904 -0.1011,0.06624 -0.35187,0.221803 -0.55722,0.345677 -0.20536,0.123828 -0.53493,0.344389 -0.73242,0.490056 -0.19749,0.14564 -0.4414,0.320106 -0.54206,0.387647 -0.90262,0.60566 -3.06035,2.776752 -3.90335,3.927542 -0.0616,0.08408 -0.30166,0.406745 -0.53344,0.717001 -1.3336,1.785029 -2.58504,4.106741 -3.89918,7.233919 -0.3053,0.726468 -0.436,0.969138 -0.54276,1.007682 -0.0531,0.01916 -0.10433,0.01312 -0.11394,-0.0135 -0.01,-0.02662 -0.12742,-0.264827 -0.26183,-0.5294 -0.5528,-1.088129 -0.90281,-3.247881 -0.82381,-5.08331 0.0137,-0.317864 0.0352,-0.658481 0.0479,-0.756926 0.0126,-0.09848 0.0214,-0.242428 0.0195,-0.319977 -0.0187,-0.764821 0.76685,-4.54402 0.95895,-4.61338 0.0448,-0.01618 0.0601,-0.03777 0.0341,-0.04794 -0.0477,-0.01866 -0.005,-0.364769 0.0547,-0.439246 0.0174,-0.02199 0.0676,-0.168054 0.11136,-0.324676 0.17987,-0.643616 0.78436,-2.113667 1.19514,-2.906458 0.94867,-1.830884 1.37475,-3.011763 1.28344,-3.557076 -0.0351,-0.209875 -0.0514,-0.223348 -0.44658,-0.372593 -0.44134,-0.16663 -0.74706,-0.171224 -1.16953,-0.01755 -0.47011,0.170903 -0.78544,0.413855 -2.15405,1.658932 -0.24203,0.220171 -0.61637,0.559619 -0.83188,0.754306 -0.4945,0.446744 -1.61561,1.496981 -1.77161,1.659622 -0.28711,0.299338 -1.0307,1.061701 -1.16145,1.190763 -0.18526,0.182883 -0.96746,1.043212 -1.02281,1.124971 -0.0233,0.03438 -0.23817,0.295429 -0.47749,0.580028 -1.22841,1.460817 -2.46112,3.34775 -3.23903,4.958033 -0.2483,0.513976 -0.74409,1.63397 -0.82278,1.858675 -0.0352,0.100487 -0.10366,0.275099 -0.15218,0.38809 -0.0768,0.178929 -0.20894,0.531097 -0.62217,1.658249 -0.28944,0.78954 -0.79578,2.189803 -0.85838,2.373839 -0.0397,0.116887 -0.10021,0.277196 -0.13437,0.356308 -0.0342,0.07912 -0.11042,0.27268 -0.16947,0.430146 -1.30602,3.591889 -2.64407,6.891443 -3.9198,1.035727 -0.0206,-0.102063 -0.0926,-0.45132 -0.15988,-0.776094 -0.1197,-0.577368 -0.30818,-1.616518 -0.34233,-1.887339 -0.009,-0.07482 -0.0726,-0.330469 -0.14033,-0.568101 -0.10105,-0.354472 -0.13462,-0.419938 -0.18698,-0.364513 -0.0351,0.03721 -0.26876,0.309437 -0.51927,0.605073 -1.3219,1.559967 -2.6477,3.880705 -3.46931,6.072813 -0.367,0.979203 -0.73406,2.053801 -0.88579,2.593329 -0.0191,0.06789 -0.0822,0.294186 -0.14032,0.502907 -0.0581,0.208732 -0.12827,0.421515 -0.15597,0.472873 -0.0277,0.0513 -0.0434,0.11256 -0.0349,0.136121 0.008,0.02349 -0.0462,0.265582 -0.12141,0.537926 -0.0753,0.272342 -0.16503,0.633215 -0.19947,0.801938 -0.0344,0.168715 -0.0925,0.432761 -0.12898,0.58675 -0.22564,0.951913 -0.91888,4.896647 -0.87963,5.00535 0.006,0.01796 -0.0212,0.255199 -0.0615,0.527282 -0.12784,0.863151 -0.18691,1.303317 -0.17815,1.327567 0.005,0.01294 -0.01,0.165388 -0.0326,0.338756 -0.0705,0.541333 -0.13017,1.123306 -0.17426,1.700336 -0.0233,0.305709 -0.0652,0.684795 -0.0929,0.842411 -0.0277,0.157604 -0.0425,0.308385 -0.0329,0.335057 0.01,0.02672 -0.007,0.223305 -0.0371,0.436976 -0.03,0.213662 -0.0498,0.401743 -0.044,0.417955 0.006,0.01618 -0.015,0.201299 -0.0464,0.411305 -0.0314,0.21002 -0.0499,0.402416 -0.0413,0.427562 0.009,0.0251 -0.0131,0.205423 -0.0483,0.400597 -0.0352,0.195173 -0.0524,0.439512 -0.0383,0.542968 0.0231,0.169177 0.0152,0.181568 -0.0782,0.123218 -0.0571,-0.03567 -0.17441,-0.205878 -0.26068,-0.378124 -0.0863,-0.172249 -0.25469,-0.469889 -0.37427,-0.661403 -0.34442,-0.551609 -0.77855,-1.449546 -1.6979,-3.511882 -0.67253,-1.508641 -1.60991,-4.694471 -1.91059,-6.493431 -0.14872,-0.889806 -0.28457,-1.754996 -0.29374,-1.870828 -0.005,-0.0608 -0.039,-0.394158 -0.0759,-0.740676 -0.0614,-0.576499 -0.11356,-1.385652 -0.16194,-2.5145 -0.017,-0.396584 3e-5,-1.891534 0.0327,-2.872349 0.007,-0.221714 0.0353,-0.551825 0.062,-0.733582 0.0267,-0.181745 0.0389,-0.357934 0.0272,-0.391513 -0.0118,-0.03361 0.0161,-0.304227 0.062,-0.601434 0.0459,-0.297209 0.0694,-0.524689 0.0523,-0.505511 -0.0171,0.01916 -0.009,-0.09448 0.0182,-0.252502 0.0271,-0.158046 0.0738,-0.475439 0.10377,-0.705298 0.0299,-0.229858 0.0807,-0.619446 0.11287,-0.865733 0.38123,-2.923296 2.16239,-8.807577 2.90442,-10.322001 0.0464,-0.09463 0.0787,-0.187703 0.0718,-0.206775 -0.007,-0.01911 0.009,-0.0763 0.0353,-0.127087 0.0263,-0.0508 0.18059,-0.40922 0.34288,-0.796384 0.32344,-0.771618 1.04333,-2.384295 1.16788,-2.616232 0.0432,-0.08039 0.18608,-0.374573 0.31753,-0.653655 0.53312,-1.131856 2.08121,-3.992486 2.96101,-5.471492 0.2112,-0.355038 0.47496,-0.798379 0.58613,-0.985193 0.22007,-0.369817 1.10814,-1.752606 1.47375,-2.29473 0.12554,-0.186145 0.30436,-0.457951 0.39738,-0.604026 0.093,-0.146043 0.21511,-0.330967 0.27131,-0.410882 0.11042,-0.15692 0.4386,-0.634991 0.58679,-0.854651 0.0504,-0.07471 0.1758,-0.253265 0.2787,-0.396851 0.1029,-0.143587 0.22518,-0.317726 0.27174,-0.386999 0.0803,-0.119498 0.81851,-1.139031 1.08849,-1.50334 0.0694,-0.09362 0.20466,-0.276724 0.30058,-0.406831 0.0959,-0.130099 0.24421,-0.326578 0.32953,-0.436595 0.0853,-0.109983 0.22668,-0.295648 0.31415,-0.412519 0.34002,-0.454309 0.91398,-1.188629 1.43892,-1.840943 0.3017,-0.374926 0.61034,-0.766019 0.68586,-0.869111 0.0755,-0.10313 0.1766,-0.229196 0.22463,-0.280226 0.0882,-0.0938 0.69444,-0.807392 0.83099,-0.978236 0.18135,-0.226886 0.71606,-0.861087 0.93674,-1.111026 0.13314,-0.150729 0.23423,-0.295751 0.22469,-0.322183 -0.01,-0.02641 0.01,-0.04401 0.0429,-0.03898 0.0332,0.005 0.14979,-0.112378 0.25915,-0.260893 0.10936,-0.148516 0.21506,-0.275849 0.23487,-0.283001 0.0198,-0.0071 0.10034,-0.100179 0.17892,-0.206838 0.0786,-0.106609 0.16629,-0.202406 0.19486,-0.212875 0.0286,-0.01047 0.10975,-0.101812 0.1804,-0.202991 0.12051,-0.172566 0.12055,-0.183589 6.5e-4,-0.178119 -0.0703,0.0032 -0.36266,4.21e-4 -0.6497,-0.0062 -0.28704,-0.0066 -0.59236,0.01098 -0.67847,0.03909 -0.0863,0.02764 -0.14956,0.03831 -0.14104,0.0226 0.0397,-0.07274 -0.90966,-0.0571 -1.81265,0.02978 -0.20716,0.01992 -0.44356,0.02977 -0.52535,0.02186 -0.0818,-0.0079 -0.16768,-0.0029 -0.1909,0.01098 -0.0231,0.01419 -0.11194,0.03457 -0.19737,0.0453 -1.47974,0.190728 -2.37873,0.362384 -3.40284,0.64974 -0.24329,0.06826 -0.51948,0.138109 -0.61372,0.155275 l -0.17141,0.03109 0.18262,-0.179922 c 0.10046,-0.09892 0.49569,-0.495325 0.87834,-0.880785 0.38264,-0.385459 0.72344,-0.710837 0.75732,-0.72307 0.0339,-0.01223 0.0853,-0.06349 0.11435,-0.113859 0.029,-0.05037 0.20397,-0.239471 0.38878,-0.420232 0.79568,-0.77824 1.457,-1.406057 1.62052,-1.538398 0.0967,-0.07835 0.20105,-0.176664 0.2318,-0.218434 0.0663,-0.09025 0.73259,-0.67481 1.02195,-0.896599 0.11191,-0.08584 0.29115,-0.237033 0.39828,-0.336094 0.1719,-0.158941 0.50649,-0.427809 1.40973,-1.132765 2.77906,-2.169007 8.21198,-5.560831 15.2471,-5.804257 1.0198,-0.03529 1.48011,-0.01899 1.62946,0.05772 0.0837,0.04295 0.12691,0.05708 0.096,0.03118 -0.0309,-0.02578 -0.035,-0.07068 -0.009,-0.09959 0.0258,-0.0289 0.0558,-0.02833 0.0662,6.32e-4 0.0106,0.02934 0.037,0.04174 0.0588,0.02764 0.11748,-0.07639 3.27189,0.225935 3.5688,0.34208 0.0221,0.0087 -0.51322,0.216099 -1.18978,0.460967 -1.30368,0.471865 -3.25015,1.283566 -4.39839,1.834466 -0.38063,0.182611 -1.00549,0.475839 -1.3886,0.651569 -0.38312,0.175727 -0.86655,0.415412 -1.07431,0.532606 -0.20777,0.11714 -0.5625,0.308232 -0.78833,0.424506 -0.56963,0.293344 -1.88282,1.125749 -1.94093,1.230262 -0.0375,0.06745 0.20856,-0.01028 1.13192,-0.357361 1.83534,-0.689912 3.58703,-1.148984 5.89265,-1.544147 0.42054,-0.07207 0.81034,-0.125828 0.86623,-0.119458 0.0559,0.0064 0.25412,-0.01128 0.44052,-0.03922 0.65279,-0.09785 2.75656,-0.205006 3.04082,-0.154874 0.0861,0.01519 0.18829,0.01604 0.22732,0.0019 0.039,-0.01407 0.48714,0.0041 0.99579,0.04053 1.02266,0.07317 1.24428,0.09846 1.90763,0.217636 0.11195,0.02011 0.22378,0.01384 0.24857,-0.01398 0.0248,-0.02784 0.0376,-0.02304 0.0284,0.01004 -0.009,0.03338 0.13082,0.08961 0.31114,0.124982 0.89821,0.176244 1.19324,0.259231 2.07575,0.583862 0.52531,0.193221 1.15972,0.456757 1.40977,0.585635 0.5706,0.294057 1.31523,0.759244 1.34432,0.839803 0.0121,0.0335 0.0431,0.05335 0.069,0.04401 0.0537,-0.0194 0.72047,0.543179 1.15704,0.976179 0.85489,0.847937 1.73989,2.285953 2.14866,3.491372 0.19187,0.564986 0.51348,2.041177 0.56926,2.61079 0.11668,1.1917 0.0793,2.810384 -0.0922,3.987502 -0.16886,1.159309 -0.35926,2.102891 -0.68106,3.375143 -0.22286,0.881056 -0.78852,2.627364 -1.12669,3.478297 -0.1101,0.277062 -0.1795,0.511851 -0.1542,0.521738 0.0253,0.0099 0.071,-0.01616 0.1017,-0.05713 0.0306,-0.04137 0.15213,-0.139886 0.27003,-0.21914 0.25526,-0.171455 1.11366,-0.957325 1.50841,-1.380937 0.15449,-0.165755 0.33555,-0.352418 0.40236,-0.414738 0.0668,-0.06235 0.14576,-0.154935 0.1754,-0.205894 0.0297,-0.05096 0.12212,-0.158904 0.20545,-0.240051 0.1816,-0.176723 0.49037,-0.545339 0.93766,-1.119381 0.0854,-0.109666 0.23431,-0.279946 0.33081,-0.378401 0.0965,-0.09843 0.1859,-0.215129 0.19867,-0.259269 0.0128,-0.04414 0.14222,-0.236453 0.28763,-0.427378 0.34644,-0.454868 0.95895,-1.390743 0.94177,-1.438936 -0.007,-0.0208 0.0382,-0.05651 0.10148,-0.07936 0.0632,-0.0228 0.11745,-0.02317 0.12055,-8.05e-4 0.003,0.02247 0.0663,0.274746 0.14053,0.560876 z"
           id="path14" /><path
           id="path62"
           style="fill:#ffffff;fill-opacity:1;stroke-width:1.68695"
           d="m 214.67031,29.79713 c 0.67235,-1.335701 1.44544,-2.449415 2.52782,-3.641532 l 0.93723,-1.032229 1.03467,0.779762 c 0.56909,0.428859 1.22475,1.013374 1.45705,1.298922 0.48119,0.591494 0.83045,1.938312 0.6841,2.638191 -0.0935,0.448181 -0.12487,0.477091 -0.6094,0.565386 -0.28084,0.05125 -1.91968,0.406811 -3.64189,0.790271 l -3.13114,0.696525 0.13307,-0.576495 c 0.0739,-0.317232 0.34714,-1.00094 0.60818,-1.519551 z m 2.73239,2.083002 3.64919,-0.824144 -0.0822,0.380954 c -0.13376,0.619649 -0.85697,1.901901 -1.59432,2.826747 -0.52644,0.660288 -2.43228,2.492802 -3.99249,3.838868 -0.13586,0.117256 -1.14743,-1.281386 -1.40925,-1.948389 -0.32285,-0.822522 -0.48242,-2.234698 -0.33149,-2.933884 l 0.11139,-0.516015 z m 2.56371,-8.241583 c 1.8406,-1.388044 4.43905,-2.725966 5.96253,-3.070028 l 0.58485,-0.132102 -0.98471,4.561814 -0.98467,4.561802 -1.14453,0.232671 c -0.6296,0.128442 -1.18755,0.239474 -1.2402,0.247861 -0.0528,0.0084 -0.0698,-0.307498 -0.038,-0.70216 0.13125,-1.631921 -0.44193,-2.694189 -2.14799,-3.980958 l -1.14322,-0.862235 z m -2.18992,13.081476 c 2.2449,-2.033966 3.38009,-3.584225 4.02058,-5.490691 0.13244,-0.394359 0.13643,-0.396365 1.32531,-0.675706 l 1.19236,-0.279898 -0.94491,4.56144 -0.94492,4.561433 -1.01932,0.143958 c -0.56064,0.07922 -1.56663,0.09456 -2.23557,0.03417 -1.27552,-0.115087 -3.16611,-0.771168 -3.14511,-1.091378 0.007,-0.102959 0.79493,-0.89634 1.75151,-1.763036 z m 10.63344,-16.673564 c 0.55893,-0.0877 1.56695,-0.109195 2.23998,-0.04784 1.2233,0.111544 3.15207,0.730218 3.23212,1.036705 0.0246,0.0945 -0.69524,0.833958 -1.72007,1.766892 -2.09583,1.90792 -3.18006,3.310897 -3.79584,4.911814 l -0.38696,1.006031 -1.07988,0.263139 c -0.59396,0.144714 -1.15629,0.286181 -1.24972,0.314475 -0.11503,0.03568 0.13794,-1.418929 0.78713,-4.520263 l 0.95699,-4.571479 z m -1.84454,9.764289 1.30894,-0.295561 -0.0968,0.448559 c -0.0533,0.246697 -0.0542,0.753177 -0.002,1.125519 0.17425,1.246482 0.68562,2.01381 2.01485,3.023401 l 1.26703,0.962344 -0.78953,0.633941 c -1.63611,1.313664 -4.77159,2.957911 -6.29786,3.302606 l -0.58074,0.131097 0.93375,-4.518238 0.93364,-4.518195 z m 2.85191,-2.826691 c 0.58489,-1.179281 1.30393,-2.024972 3.28366,-3.86199 1.41481,-1.312842 1.82396,-1.635628 1.96889,-1.553319 0.43471,0.246842 1.2464,1.708211 1.46512,2.637739 0.13062,0.555157 0.19106,1.396265 0.13434,1.86913 l -0.10316,0.859761 -3.6607,0.789995 -3.66068,0.790013 0.0894,-0.369163 c 0.0492,-0.203055 0.26658,-0.725992 0.48286,-1.162068 z m 2.58586,1.582605 c 1.83462,-0.423524 3.46214,-0.805329 3.61683,-0.849003 0.40423,-0.114444 0.28971,0.610088 -0.292,1.846854 -0.60608,1.288623 -1.52778,2.634526 -2.66904,3.897485 l -0.90012,0.996103 -1.16232,-0.879697 c -0.63929,-0.483837 -1.32903,-1.160273 -1.53277,-1.503182 -0.3959,-0.666429 -0.61276,-1.735526 -0.47833,-2.358248 l 0.0822,-0.380976 z" /></g><text
         xml:space="preserve"
         style="font-size:18.2635px;line-height:1;font-family:'Tilt Warp';-inkscape-font-specification:'Tilt Warp';text-align:center;letter-spacing:0.808503px;word-spacing:0.273085px;writing-mode:lr-tb;direction:ltr;text-anchor:middle;fill:#ffffff;fill-opacity:1;stroke-width:0.675866"
         x="250.61852"
         y="81.557373"
         id="text59"><tspan
           sodipodi:role="line"
           id="tspan59"
           style="text-align:end;letter-spacing:0.808503px;word-spacing:0.273085px;text-anchor:end;stroke-width:0.675866"
           x="250.61852"
           y="81.557373"
           dy="3.6409075">FIRE</tspan><tspan
           sodipodi:role="line"
           style="text-align:end;letter-spacing:0.808503px;word-spacing:0.273085px;text-anchor:end;stroke-width:0.675866"
           x="251.42702"
           y="99.820877"
           id="tspan60">BALLS</tspan></text></g><text
       xml:space="preserve"
       style="font-size:70.5556px;line-height:1;font-family:'Tilt Warp';-inkscape-font-specification:'Tilt Warp';text-align:center;letter-spacing:0.994833px;word-spacing:0.336021px;writing-mode:lr-tb;direction:ltr;text-anchor:middle;fill:#ffffff;fill-opacity:1;stroke-width:2.611"
       x="5.9176927"
       y="-96.423576"
       id="text61"><tspan
         sodipodi:role="line"
         style="stroke-width:2.611"
         x="5.9176927"
         y="-96.423576"
         id="tspan62" /></text></g></svg>
