<?xml version="1.0" encoding="UTF-8" standalone="no"?>
<!-- Created with Inkscape (http://www.inkscape.org/) -->

<svg
   width="105.83334mm"
   height="105.83334mm"
   viewBox="0 0 105.83333 105.83333"
   version="1.1"
   id="svg1"
   xml:space="preserve"
   inkscape:version="1.4 (e7c3feb100, 2024-10-09)"
   sodipodi:docname="phoenix.svg"
   inkscape:export-filename="../pngs/la.png"
   inkscape:export-xdpi="96"
   inkscape:export-ydpi="96"
   xmlns:inkscape="http://www.inkscape.org/namespaces/inkscape"
   xmlns:sodipodi="http://sodipodi.sourceforge.net/DTD/sodipodi-0.dtd"
   xmlns="http://www.w3.org/2000/svg"
   xmlns:svg="http://www.w3.org/2000/svg"><sodipodi:namedview
     id="namedview1"
     pagecolor="#ffffff"
     bordercolor="#000000"
     borderopacity="0.25"
     inkscape:showpageshadow="2"
     inkscape:pageopacity="0.0"
     inkscape:pagecheckerboard="0"
     inkscape:deskcolor="#d1d1d1"
     inkscape:document-units="mm"
     inkscape:zoom="0.85128899"
     inkscape:cx="414.66529"
     inkscape:cy="122.16768"
     inkscape:window-width="1920"
     inkscape:window-height="1011"
     inkscape:window-x="0"
     inkscape:window-y="32"
     inkscape:window-maximized="1"
     inkscape:current-layer="layer1"
     showgrid="false" /><defs
     id="defs1" /><g
     inkscape:label="Capa 1"
     inkscape:groupmode="layer"
     id="layer1"><g
       id="g16"
       transform="matrix(0.93778297,0,0,0.93778297,-126.55576,29.524252)"><g
         id="g15"
         transform="translate(35.47317,-30.734334)"><g
           id="path3-1"
           transform="rotate(-39.055718)"
           style="fill:#ffffff"><path
             style="fill:#ffffff"
             d="m 105.54239,123.21899 a 4.3512444,1.9425198 0 0 1 -4.35124,1.94252 4.3512444,1.9425198 0 0 1 -4.351248,-1.94252 4.3512444,1.9425198 0 0 1 4.351248,-1.94252 4.3512444,1.9425198 0 0 1 4.35124,1.94252 z"
             id="path12" /><path
             style="fill:#ffffff"
             d="m 101.19141,119.77734 c -1.382518,0 -2.642696,0.23192 -3.689457,0.69922 -0.52338,0.23365 -1.00037,0.52462 -1.408203,0.95508 -0.407833,0.43046 -0.753906,1.06493 -0.753906,1.78711 0,0.72218 0.346073,1.35665 0.753906,1.78711 0.407833,0.43046 0.884823,0.72338 1.408203,0.95703 1.046761,0.4673 2.306939,0.69922 3.689457,0.69922 1.38251,0 2.64074,-0.23192 3.6875,-0.69922 0.52338,-0.23365 1.00232,-0.52657 1.41015,-0.95703 0.40784,-0.43046 0.75391,-1.06493 0.75391,-1.78711 0,-0.72218 -0.34607,-1.35665 -0.75391,-1.78711 -0.40783,-0.43046 -0.88677,-0.72143 -1.41015,-0.95508 -1.04676,-0.4673 -2.30499,-0.69922 -3.6875,-0.69922 z m 0,3 c 1.02061,0 1.93676,0.20175 2.46484,0.4375 0.003,0.002 0.002,0.002 0.006,0.004 -0.003,0.002 -0.002,0.002 -0.006,0.004 -0.52808,0.23575 -1.44423,0.43945 -2.46484,0.43945 -1.02062,0 -1.936768,-0.2037 -2.464848,-0.43945 -0.0035,-0.002 -0.0024,-0.002 -0.0059,-0.004 0.0034,-0.002 0.0024,-0.002 0.0059,-0.004 0.52808,-0.23575 1.444228,-0.4375 2.464848,-0.4375 z"
             id="path13" /></g><g
           id="path1-4"
           style="fill:#ffffff"><path
             style="fill:#ffffff"
             d="m 162.08665,94.529859 c 9.27976,-4.732124 14.2,-16.530554 11.47516,-27.516744 -0.8907,-3.59117 -1.50199,-5.10487 -5.06845,-12.55068 -3.4406,-7.18305 -3.90528,-8.51757 -4.09231,-11.75282 -0.19014,-3.28903 0.26952,-4.923366 1.90829,-6.785116 1.55481,-1.766358 2.02685,-1.697492 1.28279,0.18714 -0.39501,1.000515 -0.5835,2.129216 -0.59427,3.558516 -0.0135,1.77618 0.11459,2.37051 0.84473,3.9237 0.96256,2.04756 2.88323,4.26747 3.48377,4.02653 0.60286,-0.24187 2.94271,-3.48004 3.84123,-5.31594 1.19859,-2.44903 1.53046,-4.257223 1.34944,-7.352416 -0.21374,-3.65468 -1.7432,-8.064754 -4.14438,-11.949937 -0.41635,-0.673669 -0.46638,-0.915206 -0.18954,-0.915206 0.46741,0 3.8336,1.952336 5.20752,3.020274 1.85968,1.445523 1.8255,1.457958 1.61592,-0.587695 -0.37608,-3.670673 -2.42132,-8.499834 -5.02839,-11.87285 -1.21183,-1.567867 -3.75204,-4.0965459 -6.45164,-6.4223679 l -1.39549,-1.202281 1.28275,0.148242 c 1.22855,0.141978 4.89154,1.146146 6.95068,1.905447 2.61426,0.964005 7.15301,3.9421809 9.02683,5.9230969 3.89536,4.118011 5.96204,8.045651 7.20524,13.693273 0.71135,3.231543 0.98031,9.831889 0.51747,12.69903 -0.53095,3.28907 -0.67388,7.95256 -0.28617,9.33735 0.18619,0.66501 0.71187,1.66204 1.16818,2.21562 1.13915,1.38199 2.33683,1.39379 3.69422,0.0364 1.24032,-1.24032 1.90644,-2.76537 2.66793,-6.10807 0.50327,-2.20917 0.59443,-3.34264 0.51901,-6.45332 -0.0504,-2.075408 -0.0618,-3.773288 -0.0254,-3.77307 0.36383,0.0023 2.04559,6.21202 2.57003,9.48978 0.15965,0.99778 0.29121,3.51854 0.29236,5.60168 0.005,8.54596 -2.50677,14.79094 -8.21269,20.42107 -3.82834,3.77749 -8.89117,6.57055 -15.22956,8.40182 l -2.37235,0.68541 1.1164,0.23761 c 0.61402,0.13067 3.00032,0.23161 5.30289,0.22426 4.00413,-0.0129 4.29591,-0.0528 6.69839,-0.91973 1.38154,-0.4985 2.81645,-0.9823 3.18869,-1.07513 l 0.67679,-0.16878 -0.66724,0.94894 c -1.30536,1.85647 -6.8681,7.11856 -9.47798,8.96572 -3.07801,2.17849 -8.27673,4.846264 -11.83339,6.072414 -2.71602,0.93634 -8.75439,2.24645 -10.25054,2.22401 -0.85896,-0.0129 -0.73292,-0.12065 1.43315,-1.22519 z"
             id="path10" /><path
             style="fill:#ffffff"
             d="m 160.99023,2.7695313 5.46094,4.7031249 c 2.63939,2.2739489 5.16799,4.8171078 6.22266,6.1816408 1.98608,2.569588 3.44585,6.11442 4.15429,9.128906 -0.53743,-0.346252 -0.99974,-0.689862 -1.55468,-1.011719 -0.55835,-0.323831 -1.08771,-0.615071 -1.54102,-0.839843 -0.22665,-0.112387 -0.43126,-0.20852 -0.63867,-0.291016 -0.20741,-0.0825 -0.27802,-0.201172 -0.91016,-0.201172 -0.30888,0 -0.93022,0.06469 -1.41015,0.638672 -0.47993,0.573983 -0.43525,1.229616 -0.36914,1.548828 0.13222,0.638425 0.32744,0.855531 0.5664,1.242188 2.27249,3.676953 3.7089,7.905357 3.90039,11.179687 0.17198,2.940628 -0.073,4.262041 -1.18359,6.53125 -0.36913,0.754219 -1.1564,2.004925 -1.88672,3.015625 -0.26228,0.362977 -0.48704,0.636261 -0.71094,0.912109 -0.05,-0.05407 -0.0713,-0.06134 -0.12304,-0.121093 -0.56905,-0.657709 -1.23354,-1.644795 -1.63282,-2.494141 -0.69284,-1.473854 -0.70037,-1.514834 -0.6875,-3.208984 v -0.002 c 0.01,-1.290943 0.17323,-2.191571 0.47852,-2.964844 0.20913,-0.529715 0.35676,-0.944635 0.42969,-1.4375 0.0365,-0.246433 0.0855,-0.513392 -0.0469,-0.97461 -0.13237,-0.461217 -0.79756,-1.190901 -1.45703,-1.287109 -0.65947,-0.09621 -0.99531,0.110241 -1.24219,0.244141 -0.24687,0.1339 -0.42394,0.271972 -0.60351,0.423828 -0.35915,0.303712 -0.71327,0.673766 -1.13281,1.15039 -1.85387,2.106111 -2.5172,4.495514 -2.31641,7.96875 0.0973,1.683108 0.29817,3.074958 0.91406,4.84375 0.61589,1.768793 1.6129,3.924073 3.33789,7.525391 3.56056,7.433495 4.08075,8.711143 4.95508,12.236328 2.54686,10.268615 -2.12292,21.314838 -10.625,25.650391 -1.09083,0.556246 -1.51642,0.676269 -2.17383,1.238281 -0.16435,0.140503 -0.52312,0.271275 -0.63867,1.136719 -0.0578,0.432722 0.13274,1.027712 0.4043,1.33789 0.27155,0.310179 0.51575,0.411387 0.68359,0.476563 0.67138,0.260706 0.76583,0.148592 1.01563,0.152344 1.26225,0.01893 2.9612,-0.337816 5.04101,-0.789063 2.07982,-0.451246 4.28159,-1.0098 5.77149,-1.523437 3.78521,-1.304945 8.97363,-3.967658 12.24804,-6.285157 1.45664,-1.030941 3.49329,-2.817487 5.40821,-4.628906 1.91491,-1.811419 3.60193,-3.504381 4.46679,-4.734375 l 3.21094,-4.566406 -4.96875,1.238281 c -0.71189,0.177532 -1.94559,0.618389 -3.34961,1.125 -1.66292,0.600062 -2.48177,0.719442 -3.93164,0.763672 3.9454,-1.741242 7.35915,-3.933104 10.13281,-6.669922 5.96753,-5.888265 8.71027,-12.726316 8.70508,-21.595703 -0.001,-2.151801 -0.10869,-4.575389 -0.31445,-5.861328 -0.27999,-1.749944 -0.837,-4.134417 -1.38086,-6.142578 -0.27193,-1.004081 -0.53812,-1.904838 -0.77539,-2.597656 -0.11864,-0.34641 -0.22455,-0.63437 -0.35156,-0.908204 -0.0635,-0.136916 -0.12463,-0.26534 -0.25586,-0.453125 -0.0656,-0.09389 -0.14447,-0.206597 -0.32227,-0.359375 -0.17779,-0.152777 -0.50516,-0.412245 -1.10156,-0.416015 -1.4e-4,-10e-7 -0.57017,0.09761 -0.57031,0.09766 -1.5e-4,5.1e-5 -0.41588,0.222554 -0.41602,0.222656 -2.8e-4,2.05e-4 -0.39816,0.415606 -0.39844,0.416016 -2.7e-4,4.1e-4 -0.11017,0.192205 -0.13867,0.257812 -0.0285,0.06561 -0.0453,0.114526 -0.0586,0.15625 -0.0533,0.1669 -0.0568,0.225056 -0.0645,0.277344 -0.0154,0.104576 -0.0166,0.148337 -0.0195,0.197266 -0.006,0.09786 -0.008,0.184838 -0.01,0.292969 -0.004,0.216261 -0.004,0.50036 -0.002,0.849609 0.005,0.698497 0.0195,1.647765 0.0449,2.693359 0.0744,3.068808 0.009,3.914724 -0.47657,6.046875 -0.73936,3.245592 -1.25527,4.337307 -2.22656,5.308594 -0.50561,0.505616 -0.75227,0.527302 -0.74805,0.527344 0.004,4.2e-5 -0.11905,0.02869 -0.50976,-0.445313 -0.23367,-0.283481 -0.76917,-1.312024 -0.85352,-1.613281 -0.0502,-0.17918 -0.19219,-1.776302 -0.14062,-3.458984 0.0516,-1.682682 0.21714,-3.623408 0.46679,-5.169922 0.54228,-3.359204 0.2607,-9.709868 -0.5332,-13.316406 -1.29116,-5.865481 -3.56424,-10.185985 -7.61914,-14.472657 -2.22016,-2.3470544 -6.58521,-5.2049366 -9.65234,-6.3359371 -2.21188,-0.8156231 -5.5942,-1.7952605 -7.33203,-1.9960938 z m 10.67969,5.265625 c 0.86487,0.2524711 1.50839,0.3605184 2.125,0.5878906 2.16139,0.7970095 6.87096,3.8930351 8.39844,5.5078121 3.73582,3.949351 5.59772,7.486253 6.79297,12.916016 0.6288,2.856547 0.8834,9.706953 0.5,12.082031 -0.2813,1.742556 -0.45211,3.776222 -0.50781,5.59375 -0.0557,1.817528 -0.0758,3.243609 0.26171,4.449219 0.28804,1.028763 0.80543,1.996634 1.48438,2.820312 0.74844,0.907988 1.79233,1.63244 3.01953,1.644532 1.2272,0.01209 2.25955,-0.63846 3.11133,-1.490235 1.44513,-1.44513 2.2459,-3.378211 3,-6.552734 0.0954,1.11641 0.21007,2.581555 0.21094,4.144531 0.005,8.222533 -2.27835,13.874099 -7.72266,19.246094 -3.60034,3.552514 -8.3954,6.219999 -14.5293,7.992187 l -2.29492,0.66211 c 0.58641,-3.593032 0.55609,-7.338316 -0.35742,-11.021485 -0.90707,-3.657154 -1.60928,-5.409062 -5.18164,-12.867187 -1.71561,-3.581732 -2.67391,-5.682504 -3.19727,-7.185547 -0.29843,-0.85708 -0.31348,-1.55601 -0.41992,-2.251953 0.56253,1.191126 1.33353,2.331489 2.11133,3.230469 0.39103,0.45195 0.7715,0.839891 1.21094,1.164062 0.21971,0.162086 0.45072,0.313744 0.7832,0.4375 0.33248,0.123757 0.84886,0.255346 1.4707,0.0059 0.49416,-0.198259 0.62417,-0.372938 0.8125,-0.548829 0.18833,-0.17589 0.36308,-0.362635 0.54688,-0.574218 0.36759,-0.423166 0.76635,-0.93804 1.17383,-1.501953 0.81495,-1.127828 1.64638,-2.414413 2.17578,-3.496094 1.28659,-2.628851 1.70373,-4.92407 1.51367,-8.173828 -0.16667,-2.849778 -1.21287,-5.937207 -2.59375,-8.970703 0.25067,0.170738 0.64726,0.396514 0.81055,0.523437 0.46208,0.359177 0.80756,0.63465 1.15429,0.869141 0.17337,0.117245 0.34179,0.228705 0.60938,0.339843 0.26759,0.111139 0.73338,0.295142 1.39453,0.05469 0.66115,-0.240454 1.03186,-0.896196 1.12891,-1.246094 0.097,-0.349897 0.0888,-0.564222 0.0859,-0.771484 -0.006,-0.414525 -0.0536,-0.796008 -0.10547,-1.302735 -0.42289,-4.127593 -2.54577,-9.067616 -5.36328,-12.71289 -0.74029,-0.957792 -2.33556,-2.3502585 -3.61328,-3.6035157 z m 3.78516,70.0097657 0.10156,2.8125 1.11719,0.238281 c 0.64768,0.137834 1.30002,0.157306 2.29101,0.199219 0.991,0.04191 2.18219,0.0643 3.35938,0.06055 2.78871,-0.009 4.08801,-0.177449 5.40039,-0.509766 -0.385,0.382496 -0.48313,0.550078 -0.89063,0.935547 -1.84526,1.745534 -3.89558,3.515812 -5.04882,4.332031 -2.88161,2.039481 -8.08987,4.71202 -11.41797,5.859375 -0.66633,0.229713 -1.88606,0.50212 -2.93164,0.771485 4.19761,-3.733546 6.99468,-8.958811 8.01953,-14.699219 z"
             id="path11" /></g><g
           id="path2-9"
           style="fill:#ffffff"><path
             style="fill:#ffffff"
             d="m 147.22293,93.443529 c 1.38166,-1.46089 2.85985,-3.934484 2.85985,-4.785624 0,-0.3453 -0.21776,-0.29397 -1.09081,0.25716 -2.35999,1.48979 -6.19495,2.684244 -9.94993,3.099024 -1.60277,0.17705 -1.81237,0.12569 -4.02167,-0.985114 -2.61811,-1.31637 -3.69545,-1.98549 -6.70736,-4.16583 -2.18897,-1.58461 -7.01964,-6.25839 -8.6584,-8.37718 -1.07329,-1.38767 -1.03248,-1.3922 1.82047,-0.20164 2.8687,1.19713 5.95899,1.67211 9.76106,1.50026 4.3656,-0.19732 4.97415,-0.42799 2.77998,-1.05376 -12.83899,-3.66164 -21.00133,-11.53252 -23.31193,-22.47955 -0.73556,-3.48487 -0.79339,-9.11354 -0.13308,-12.95284 0.48267,-2.80646 1.91065,-8.003841 2.3083,-8.401497 0.12995,-0.129945 0.1881,1.064852 0.12922,2.655091 -0.2414,6.521526 1.41674,12.491406 3.87243,13.942016 1.07785,0.63671 1.76309,0.57146 2.75386,-0.26223 1.69739,-1.42826 2.08823,-4.78442 1.25022,-10.7356 -0.59913,-4.254736 -0.3948,-10.833808 0.44174,-14.222867 1.92494,-7.798471 5.6216,-13.154353 11.69213,-16.9400619 3.31944,-2.070072 8.22562,-3.848136 12.19559,-4.419842 l 1.37944,-0.198645 -1.9537,1.489367 c -4.69652,3.580312 -8.84182,8.8294759 -10.42253,13.1980059 -0.91902,2.539821 -1.54367,5.33242 -1.3956,6.239195 0.0881,0.5392 0.24018,0.47872 1.84913,-0.735092 1.55934,-1.176396 5.10264,-3.173664 5.29286,-2.983448 0.0399,0.03993 -0.68081,1.568897 -1.60163,3.397726 -2.71673,5.39572 -3.68411,10.501935 -2.69211,14.210032 0.50736,1.89653 1.67831,4.13734 3.18938,6.10343 1.62944,2.12009 5.5836,6.10579 5.87736,5.92423 0.125,-0.0772 0.38793,-0.86836 0.58429,-1.75801 0.50373,-2.28225 1.54102,-5.30404 2.67455,-7.79141 0.53369,-1.17111 0.97036,-2.145 0.97038,-2.16422 2e-5,-0.0191 -1.22453,-0.0355 -2.72122,-0.0361 -1.85654,-8e-4 -3.25338,-0.16538 -4.39586,-0.51793 l -1.67459,-0.51676 2.31895,-0.670913 c 2.46996,-0.714609 4.51899,-1.637344 4.51899,-2.035031 0,-0.132946 -0.54801,-0.323911 -1.21779,-0.424359 -1.23672,-0.185459 -4.9981,-1.837753 -5.30165,-2.328901 -0.0919,-0.148703 0.37301,-0.342636 1.04069,-0.434153 1.83992,-0.252177 3.42991,-0.864579 8.06622,-3.106726 2.36865,-1.145498 4.98635,-2.204068 5.91262,-2.390999 1.67357,-0.337752 4.26468,-0.20148 5.14692,0.270672 0.30914,0.165449 1.13507,0.06763 2.40674,-0.284979 3.59463,-0.996761 6.31806,-0.619082 8.31507,1.153107 l 1.16163,1.03085 -1.79506,0.208337 c -3.29359,0.38226 -5.98072,1.618867 -7.73018,3.557386 -2.73879,3.034773 -3.80657,6.762269 -3.19556,11.155299 0.42663,3.06733 1.10734,4.87366 4.50056,11.94271 3.38858,7.05939 4.26513,9.55351 4.76488,13.5579 0.61782,4.95052 -0.61527,10.53293 -3.17021,14.35205 -1.96457,2.93663 -5.43749,5.94669 -8.8573,7.676824 -2.83358,1.43356 -8.21363,2.92896 -10.53755,2.92896 -0.6696,0 -0.63218,-0.0795 0.70022,-1.48834 z m 9.75631,-61.020053 c 0.88751,-0.541139 2.22225,-2.658189 1.82333,-2.891987 -0.26919,-0.157767 -5.80466,2.545975 -5.74012,2.803698 0.18592,0.742351 2.74932,0.800132 3.91679,0.08828 z"
             id="path8" /><path
             style="fill:#ffffff"
             d="m 152.63867,2.1796875 -7.6582,1.1015625 c -4.25756,0.6131213 -9.25538,2.4226016 -12.83399,4.6542969 -6.40787,3.9960831 -10.4194,9.8387021 -12.41992,17.9433591 -0.94051,3.810261 -1.11171,10.309368 -0.47265,14.847656 0.4081,2.898192 0.49819,5.115104 0.32031,6.642579 -0.17788,1.527474 -0.59027,2.256794 -1,2.601562 -0.36836,0.309959 -0.47567,0.306183 -0.43945,0.302734 0.0362,-0.0034 -0.03,0.0288 -0.41602,-0.199218 -0.51521,-0.304342 -1.56223,-1.803519 -2.19727,-4.089844 -0.63503,-2.286325 -0.98008,-5.268314 -0.86523,-8.371094 0.0307,-0.830421 0.0311,-1.554531 0.004,-2.113281 -0.0136,-0.279375 -0.0244,-0.497964 -0.0781,-0.777344 -0.0269,-0.13969 -0.007,-0.262889 -0.24219,-0.658203 -0.11781,-0.197657 -0.34557,-0.592451 -1.01367,-0.769531 -0.6681,-0.177081 -1.36908,0.193312 -1.61133,0.435547 v 0.002 c -0.51001,0.510024 -0.44469,0.639013 -0.54882,0.886719 -0.10413,0.247705 -0.20201,0.520826 -0.3086,0.83789 -0.21317,0.634128 -0.45019,1.429958 -0.68945,2.300781 -0.47852,1.741647 -0.96216,3.758403 -1.2207,5.261719 -0.70865,4.120351 -0.66149,9.753577 0.14453,13.572266 2.0277,9.606714 8.48095,16.973779 18.19922,21.375 -1.86169,-0.195332 -3.594,-0.540588 -5.18164,-1.203125 -0.71487,-0.298321 -1.25643,-0.525187 -1.69532,-0.689453 -0.21944,-0.08213 -0.41185,-0.148587 -0.61914,-0.205078 -0.20728,-0.05649 -0.38995,-0.144653 -0.88476,-0.08984 -0.24741,0.0274 -0.64097,0.115609 -1.01172,0.464844 -0.37075,0.349234 -0.53809,0.906625 -0.53906,1.25 -0.002,0.686748 0.19188,0.848623 0.29882,1.033203 0.21388,0.369159 0.42168,0.615537 0.69336,0.966797 1.88012,2.430851 6.49119,6.893174 8.99414,8.705078 3.03339,2.195889 4.27734,2.967186 6.9336,4.302734 1.11423,0.560219 1.78788,0.90755 2.58789,1.103516 0.8,0.195966 1.529,0.13817 2.35547,0.04687 2.53382,-0.27989 4.9287,-0.953974 7.13086,-1.785157 -0.11407,0.134695 -0.21929,0.328275 -0.32813,0.44336 -0.33577,0.355034 -0.59441,0.631228 -0.80664,0.873047 -0.21223,0.241819 -0.37822,0.384418 -0.58789,0.830078 -0.10484,0.22283 -0.27859,0.607517 -0.13477,1.205078 0.14383,0.597561 0.70117,1.060464 1.02539,1.197266 0.64845,0.273602 0.80194,0.164062 1.00196,0.164062 3.03099,0 8.10977,-1.502913 11.28125,-3.107422 3.70585,-1.874849 7.30811,-4.980328 9.48242,-8.230469 2.8314,-4.232368 4.1056,-10.103619 3.43555,-15.472656 -0.51867,-4.155951 -1.50793,-6.970446 -4.91407,-14.066406 -3.38303,-7.047827 -3.94767,-8.539193 -4.35351,-11.457031 -0.55739,-4.007512 0.3553,-7.129609 2.78711,-9.824219 1.42062,-1.574145 3.7041,-2.676273 6.69531,-3.023438 l 5.45508,-0.632812 -3.91797,-3.476563 c -2.46649,-2.188818 -5.94315,-2.592453 -9.84766,-1.509765 -0.58511,0.16224 -1.04878,0.257141 -1.31836,0.289062 -0.26957,0.03192 -0.37408,-0.136383 0.12891,0.132813 -0.97482,-0.521698 -1.88108,-0.575612 -2.96875,-0.632813 -1.08767,-0.0572 -2.24064,-0.01079 -3.28125,0.199219 -0.75939,0.153253 -1.60418,0.477056 -2.70898,0.923828 -1.10481,0.446772 -2.37629,1.007936 -3.59571,1.597656 -4.60924,2.229058 -5.96145,2.738208 -7.57226,2.958985 -0.43804,0.06004 -0.814,0.138604 -1.2168,0.30664 -0.2014,0.08402 -0.41384,0.158453 -0.72852,0.46875 -0.15733,0.155149 -0.36406,0.395125 -0.47461,0.8125 -0.11054,0.417376 -0.0158,0.994637 0.20118,1.345704 0.32946,0.533081 0.52231,0.581182 0.73047,0.724609 0.20816,0.143427 0.42295,0.267582 0.6621,0.398437 0.47832,0.261711 1.04676,0.535379 1.64649,0.798829 0.19185,0.08427 0.35831,0.106686 0.54687,0.1875 -0.24195,0.07717 -0.38922,0.155215 -0.64257,0.228515 l -4.91016,1.419922 c -0.40956,-3.064816 0.39937,-7.2898 2.70898,-11.876953 0.46571,-0.924931 0.88026,-1.772976 1.17969,-2.408203 0.14972,-0.317614 0.27106,-0.57914 0.36133,-0.789063 0.0451,-0.104961 0.0816,-0.192841 0.12109,-0.302734 0.0198,-0.05495 0.0406,-0.106208 0.0703,-0.230469 0.0149,-0.06213 0.0354,-0.135918 0.0449,-0.3125 0.005,-0.08829 0.0116,-0.204431 -0.0254,-0.40039 -0.0185,-0.09798 -0.11502,-0.364742 -0.11524,-0.365235 -2.2e-4,-4.93e-4 -0.33953,-0.495782 -0.33984,-0.496094 h -0.002 c -0.71913,-0.719114 -1.21432,-0.509524 -1.4375,-0.482421 -0.22318,0.0271 -0.34184,0.06904 -0.45899,0.107421 -0.2343,0.07677 -0.42781,0.162795 -0.65234,0.267579 -0.44907,0.209566 -0.98188,0.491328 -1.5586,0.816406 -0.71951,0.40557 -1.38807,0.869241 -2.08593,1.324219 0.22895,-0.904465 0.48413,-1.866665 0.83203,-2.828125 1.41075,-3.898813 5.42041,-9.054361 9.87109,-12.447266 z M 140.14062,7.9375 c -3.39367,3.329146 -6.15321,7.257816 -7.47265,10.904297 -0.48462,1.339308 -0.88597,2.723313 -1.15625,3.93164 -0.27028,1.208328 -0.49322,2.050001 -0.31641,3.132813 0.035,0.214117 -0.0299,0.600046 0.56836,1.191406 0.29913,0.295681 0.81781,0.502249 1.20117,0.515625 0.38337,0.01338 0.63128,-0.07524 0.82032,-0.15039 0.75614,-0.300601 1.065,-0.626219 1.8789,-1.240235 0.1577,-0.118967 0.49707,-0.305079 0.71289,-0.451172 -2.40341,5.194104 -3.37479,10.163579 -2.29883,14.185547 0.58722,2.195031 1.84552,4.561983 3.47461,6.681641 0.90317,1.175117 2.30994,2.70413 3.57618,3.980469 0.63312,0.638169 1.22342,1.204291 1.71289,1.630859 0.24473,0.213284 0.45451,0.38809 0.6914,0.550781 0.11845,0.08135 0.23344,0.161403 0.45117,0.25586 0.10887,0.04723 0.2432,0.104596 0.48438,0.138671 0.24118,0.03408 0.66298,0.05721 1.13477,-0.234375 0.44115,-0.272456 0.49627,-0.451206 0.57812,-0.580078 0.0819,-0.128871 0.12701,-0.224635 0.16992,-0.318359 0.0858,-0.187447 0.14973,-0.362681 0.21485,-0.558594 0.13022,-0.391824 0.25584,-0.852051 0.36523,-1.347656 0.46709,-2.116227 1.48246,-5.090574 2.56445,-7.464844 0.268,-0.58808 0.51153,-1.124647 0.68946,-1.521484 0.089,-0.198419 0.16033,-0.360689 0.21289,-0.480469 0.0263,-0.05989 0.0477,-0.10995 0.0664,-0.154297 0.009,-0.02217 0.0185,-0.03972 0.0312,-0.07227 0.006,-0.01627 0.0131,-0.0349 0.0273,-0.07617 0.007,-0.02063 0.0163,-0.04565 0.0312,-0.09961 0.007,-0.02698 0.0273,-0.118874 0.0273,-0.11914 5e-5,-2.67e-4 0.0332,-0.322116 0.0332,-0.322266 0,-7.4e-5 -0.17379,-0.738207 -0.17382,-0.738281 -4e-5,-7.5e-5 -0.31048,-0.42766 -0.31055,-0.427735 -1.5e-4,-1.48e-4 -0.42744,-0.310398 -0.42774,-0.310546 -5.9e-4,-2.97e-4 -0.276,-0.109022 -0.33984,-0.125 -0.12767,-0.03196 -0.16683,-0.03427 -0.20508,-0.03906 -0.0765,-0.0096 -0.1091,-0.0095 -0.14453,-0.01172 -0.0709,-0.0044 -0.13286,-0.0074 -0.21094,-0.0098 -0.15614,-0.0048 -0.36132,-0.0084 -0.61328,-0.01172 -0.32716,-0.0044 -0.8125,-0.0059 -1.26172,-0.0078 0.21294,-0.110636 0.45071,-0.213389 0.64063,-0.339843 0.17986,-0.119753 0.35316,-0.24293 0.55273,-0.455078 0.19958,-0.212148 0.53907,-0.54338 0.53907,-1.300782 0,-0.582792 -0.26825,-0.957144 -0.44532,-1.154297 -0.17706,-0.197152 -0.31463,-0.285209 -0.43164,-0.357421 -0.234,-0.144426 -0.40591,-0.206798 -0.58593,-0.269532 -0.36006,-0.125466 -0.73702,-0.21027 -1.15821,-0.273437 -0.0605,-0.0091 -0.68178,-0.255269 -1.03515,-0.373047 1.31023,-0.496565 2.94018,-1.234602 5.31445,-2.382813 1.14923,-0.555777 2.36871,-1.096098 3.39648,-1.511718 0.81116,-0.328024 1.31381,-0.480183 1.67578,-0.589844 -0.10786,0.05188 -0.1986,0.08785 -0.30664,0.140625 -0.72517,0.354203 -1.43633,0.719563 -1.99414,1.03125 -0.2789,0.155844 -0.51429,0.292318 -0.73242,0.439453 -0.10906,0.07357 -0.20928,0.139805 -0.35742,0.275391 -0.0741,0.06779 -0.16147,0.144851 -0.29102,0.335937 -0.12954,0.191087 -0.43732,0.593807 -0.24609,1.357422 0.26211,1.04655 1.05647,1.400456 1.58594,1.583984 0.52946,0.183529 1.03632,0.240006 1.5664,0.251954 1.06017,0.0239 2.16419,-0.0968 3.22266,-0.742188 0.94589,-0.576735 1.44346,-1.316673 1.92969,-2.087891 0.24311,-0.385608 0.44876,-0.755252 0.60156,-1.197265 0.0764,-0.221007 0.15405,-0.454157 0.1543,-0.84375 8e-5,-0.130205 -0.068,-0.335863 -0.12305,-0.527344 0.46262,0.115315 0.91011,0.213537 1.29492,0.167969 0.5386,-0.06378 1.12595,-0.194397 1.8125,-0.384766 1.99715,-0.553793 3.418,-0.503496 4.63867,-0.18164 -2.51067,0.665897 -4.77954,1.6956 -6.35156,3.4375 -3.04577,3.374935 -4.2701,7.709733 -3.60547,12.488281 0.44743,3.216822 1.24503,5.337461 4.64844,12.427734 3.37103,7.022821 4.1344,9.195999 4.61523,13.048828 0.56559,4.532003 -0.62776,9.82655 -2.90625,13.232422 -1.75483,2.62312 -5.0967,5.535675 -8.23046,7.121094 -1.57931,0.799002 -4.14612,1.544278 -6.43946,2.089844 0.22655,-0.330271 0.51228,-0.623964 0.70899,-0.953125 0.30023,-0.502401 0.5586,-0.990686 0.75976,-1.460938 0.20117,-0.470251 0.38477,-0.858958 0.38477,-1.548828 0,-0.259565 0.039,-0.761919 -0.51172,-1.330078 -0.55073,-0.568159 -1.38327,-0.564732 -1.73242,-0.482422 -0.6983,0.16462 -0.9057,0.379526 -1.375,0.675781 -2.01471,1.271827 -5.71653,2.463204 -9.25,2.853516 -0.77631,0.08575 -0.95313,0.09245 -1.21094,0.0293 -0.25781,-0.06315 -0.7936,-0.297072 -1.88867,-0.847656 -2.57997,-1.297192 -3.49199,-1.864506 -6.48242,-4.029297 -1.10294,-0.798422 -2.98442,-2.838835 -4.89453,-4.734375 2.1399,0.473549 4.38246,0.753627 6.92578,0.638672 1.10414,-0.04991 1.97744,-0.102406 2.66211,-0.166016 0.68467,-0.06361 1.09906,-0.07989 1.69726,-0.306641 0.14955,-0.05669 0.32385,-0.123014 0.56055,-0.310547 0.2367,-0.187532 0.59497,-0.590417 0.66015,-1.179687 0.0652,-0.58927 -0.20751,-1.080385 -0.4082,-1.318359 -0.20069,-0.237975 -0.36158,-0.337963 -0.49805,-0.421875 -0.54585,-0.335649 -0.92207,-0.412753 -1.51562,-0.582032 -12.4171,-3.541318 -19.97076,-10.900546 -22.15234,-21.236328 -0.56888,-2.695193 -0.59878,-7.03049 -0.24219,-10.503906 0.10206,0.474251 0.14792,1.014129 0.27148,1.458984 0.74761,2.69165 1.75679,4.90256 3.69727,6.048828 0.69185,0.408691 1.50831,0.725944 2.4043,0.640625 0.89598,-0.08532 1.62563,-0.538768 2.24804,-1.0625 1.28766,-1.083491 1.91996,-2.746721 2.15235,-4.742187 0.23238,-1.995466 0.0998,-4.431387 -0.33008,-7.484375 -0.5592,-3.971183 -0.32242,-10.629799 0.41015,-13.597656 1.84937,-7.492285 5.22971,-12.360213 10.96289,-15.935547 1.70906,-1.0658003 3.94913,-2.0132796 6.25,-2.794922 z m -2.64648,31.734375 3.86914,1.193359 c 1.36607,0.421547 2.92727,0.590955 4.88086,0.591797 0.0809,3.3e-5 0.12789,0.0018 0.20703,0.002 -1.06128,2.35072 -1.93971,5.008539 -2.50195,7.296875 -0.17415,-0.169815 -0.29463,-0.269714 -0.48047,-0.457031 -1.19164,-1.201143 -2.57646,-2.724949 -3.30273,-3.669922 -1.24591,-1.621072 -2.16905,-3.438392 -2.67188,-4.957031 z"
             id="path9" /></g><g
           id="path62-2"
           style="fill:#ffffff"><path
             style="fill:#ffffff"
             d="m 145.17014,11.556745 c 0.41801,-1.512696 0.99785,-2.7126579 1.89594,-3.9235589 l 0.77765,-1.048488 1.30952,1.294925 c 0.72025,0.712208 1.57132,1.64829 1.89128,2.080184 0.6628,0.8946549 1.35944,2.7163589 1.36459,3.5683989 0.003,0.545687 -0.0237,0.573573 -0.53047,0.546584 -0.29367,-0.01554 -1.99407,-0.03417 -3.77866,-0.04118 l -3.24471,-0.01357 0.01,-0.698225 c 0.005,-0.384029 0.14268,-1.178789 0.30498,-1.766112 z m 3.46379,3.450068 h 3.77864 v 0.463043 c 0,0.753158 -0.48594,2.182875 -1.07125,3.15183 -0.41789,0.691778 -2.06187,2.483316 -3.44392,3.753029 -0.12035,0.110606 -1.55012,-1.968401 -1.99187,-2.896234 -0.54472,-1.144156 -1.05025,-2.99464 -1.05025,-3.84447 V 15.006813 Z M 149.488,5.2158461 c 1.67741,-1.242453 4.19154,-2.202146 5.76906,-2.202146 h 0.60559 l 7e-5,5.544757 9e-5,5.5447559 -1.19118,-0.03297 c -0.65515,-0.01752 -1.23645,-0.03671 -1.29177,-0.04118 -0.0553,-0.0043 -0.14822,-0.413051 -0.2064,-0.908167 -0.24062,-2.047343 -1.11415,-3.5700699 -3.27364,-5.7065709 l -1.44706,-1.43165 z m 0.69012,16.0830829 c 1.96572,-1.951122 2.83713,-3.604396 3.08634,-5.855576 0.0515,-0.465682 0.0553,-0.467101 1.28388,-0.480955 l 1.23216,-0.01355 0.0433,5.55576 0.0433,5.55576 -1.07576,-0.110214 c -0.59166,-0.06056 -1.68312,-0.331268 -2.42547,-0.601449 -1.41551,-0.515143 -3.62766,-1.899015 -3.68003,-2.302118 -0.0169,-0.129621 0.65469,-0.915918 1.4923,-1.74731 z m 7.65692,-18.2363539 c 0.58785,0.04931 1.68003,0.312648 2.42708,0.585278 1.35781,0.495541 3.60274,1.842645 3.76189,2.257367 0.049,0.127878 -0.56082,0.864964 -1.45717,1.761301 -1.83306,1.83306 -2.68361,3.3128679 -2.97773,5.1807559 l -0.18483,1.173804 -1.11366,0.02461 c -0.61251,0.01357 -1.19142,0.03199 -1.28647,0.04118 -0.11724,0.01167 -0.18327,-1.773253 -0.20537,-5.5486779 l -0.0325,-5.565111 z m 0.28659,11.9441599 1.35538,7.8e-5 v 0.5452 c 0,0.299859 0.11794,0.946727 0.2621,1.437523 0.48259,1.642999 1.21955,2.771022 2.9037,4.44462 l 1.60535,1.595279 -0.71048,0.582181 c -1.47227,1.206423 -4.499,2.402575 -6.07942,2.402575 h -0.60131 l -0.0453,-5.503779 -0.0454,-5.503756 z m 2.44019,-2.788853 c 0.35958,-1.338061 0.94356,-2.211154 2.6669,-3.9871239 1.2316,-1.269228 1.60111,-1.56361 1.77822,-1.416619 0.5312,0.440859 1.75817,2.542373 2.21466,3.7932109 0.27264,0.747044 0.53609,1.839229 0.58546,2.427062 l 0.0898,1.068801 -3.79917,-0.04693 -3.79918,-0.04693 0.0109,-0.445907 c 0.006,-0.245249 0.11959,-0.85072 0.25256,-1.345508 z m 3.18671,2.768403 c 1.89754,-0.01168 3.57945,-0.02993 3.73757,-0.04111 0.41316,-0.02952 0.45872,0.863155 0.11612,2.275592 -0.35695,1.471654 -1.04399,2.925419 -1.98952,4.209841 l -0.74576,1.013035 -1.47196,-1.459463 c -0.80957,-0.802697 -1.71934,-1.866065 -2.02169,-2.363026 -0.58756,-0.96579 -1.07485,-2.394429 -1.07485,-3.151328 V 15.00678 Z"
             id="path6" /><path
             style="fill:#ffffff"
             d="m 155.78906,1.9179687 v 0.1250001 h -0.53125 c -1.97101,0 -4.48966,1.0163699 -6.34765,2.3925781 l -1.0625,0.7890625 -0.11719,-0.1152344 -0.33203,0.4472656 -0.43164,0.3203125 0.11132,0.1113281 -0.79101,1.0664063 c -0.9614,1.2962578 -1.60847,2.6352365 -2.05274,4.2421875 -1.6e-4,6e-4 1.7e-4,0.0014 0,0.002 -0.0134,0.0487 -0.0124,0.09706 -0.0254,0.146485 -0.16541,0.628242 -0.30723,1.309016 -0.31445,1.863281 l -0.01,0.728515 -0.0137,0.949219 h 0.0137 v 0.648438 c 0,1.234591 0.52543,2.961329 1.14453,4.261718 0.27461,0.576784 0.74601,1.318282 1.19336,1.96875 0.22367,0.325235 0.43604,0.618033 0.62304,0.847657 0.0935,0.114811 0.173,0.20983 0.28711,0.316406 0.0571,0.05329 0.11081,0.111034 0.26172,0.193359 0.0755,0.04116 0.17812,0.09629 0.37695,0.119141 0.008,9.09e-4 0.0229,-0.0104 0.0312,-0.0098 0.0774,0.24665 0.1742,0.440705 0.26954,0.548828 0.12311,0.139635 0.25252,0.254851 0.39648,0.373047 0.28793,0.236393 0.63822,0.478738 1.03125,0.72461 0.78607,0.491742 1.71571,0.983743 2.5332,1.28125 0.83384,0.303476 1.89739,0.578175 2.66016,0.65625 l 2.15234,0.220703 -0.002,-0.152344 h 0.61523 c 1.03499,0 2.22591,-0.33836 3.43555,-0.816406 1.20964,-0.478047 2.39115,-1.096474 3.25781,-1.806641 l 0.69727,-0.570312 0.13281,0.132812 0.44727,-0.605469 0.26562,-0.21875 -0.0605,-0.06055 0.75976,-1.033203 c 1.01972,-1.385195 1.76072,-2.950079 2.15039,-4.55664 0.18466,-0.761297 0.28077,-1.392344 0.25195,-1.957031 -0.007,-0.132087 -0.0784,-0.275999 -0.10546,-0.410157 l 0.26171,0.0039 -0.17968,-2.132813 c -0.0651,-0.774801 -0.33258,-1.833685 -0.64063,-2.677734 -0.26423,-0.7240195 -0.69954,-1.5818822 -1.15234,-2.3574223 -0.4528,-0.77554 -0.78742,-1.3797873 -1.35352,-1.8496093 -0.18671,-0.154964 -0.45054,-0.1123334 -0.70508,-0.1210938 0.02,-0.12068 0.098,-0.1533864 0.008,-0.3886719 v -0.00195 C 164.80459,5.2306605 164.6751,5.1371591 164.55078,5.015625 164.42646,4.8940909 164.29489,4.7861866 164.14648,4.6738281 163.84968,4.4491112 163.48889,4.212893 163.0918,3.9746094 162.2976,3.4980421 161.37882,3.022132 160.5957,2.7363281 159.75158,2.4282722 158.69084,2.1606966 157.91602,2.0957031 Z m 1.95313,2.1113282 h 0.0117 c 0.40088,0.033626 1.5258,0.2920927 2.17578,0.5292968 0.57469,0.2097372 1.45655,0.6555277 2.16406,1.0800782 0.25647,0.1538969 0.44741,0.2886429 0.63867,0.421875 -0.22574,0.2607892 -0.49114,0.5595024 -0.85156,0.9199218 -1.91156,1.9115626 -2.92342,3.6427823 -3.25,5.7167973 l -0.0586,0.371093 -0.30274,0.0078 c -0.15032,0.0033 -0.27223,0.0061 -0.41211,0.0098 -0.008,-0.140746 -0.0148,-0.20712 -0.0215,-0.388672 -0.0332,-0.895991 -0.0554,-2.281111 -0.0664,-4.1640629 z m -2.84961,0.042969 v 4.4863282 4.5468749 l -0.19531,-0.0059 c -0.20664,-0.0055 -0.37144,-0.01029 -0.54883,-0.01563 -0.004,-0.03012 -0.008,-0.04519 -0.0117,-0.07617 -0.26589,-2.262306 -1.32434,-4.0766019 -3.55469,-6.2832033 L 149.93947,6.0898 150.06643,5.99605 c 1.38647,-1.0269599 3.56002,-1.804025 4.82617,-1.9238281 z m -6.93555,3.9882813 0.51367,0.5097656 c 0.68974,0.6820332 1.56567,1.6573442 1.79492,1.9667962 0.24069,0.324877 0.56712,0.959264 0.80079,1.570313 0.16261,0.42524 0.20403,0.705337 0.25976,0.992187 -0.66163,-0.01699 -1.7159,-0.03119 -3.22265,-0.03711 l -2.21875,-0.0078 c 0.0363,-0.312897 0.10645,-0.826782 0.2207,-1.240235 0.39174,-1.417641 0.90581,-2.4784547 1.74023,-3.6035152 z m 16.80078,0.039063 c 0.1885,0.2529926 0.30384,0.380607 0.54688,0.796875 0.40761,0.6981412 0.8136,1.5161498 1.00586,2.0429688 0.23723,0.650039 0.49563,1.774917 0.52929,2.175781 v 0.0039 l -2.73047,-0.0332 -2.7246,-0.0332 c 0.0406,-0.230943 0.0521,-0.354441 0.11328,-0.582031 v -0.002 c 4e-4,-0.0015 0.002,-0.0024 0.002,-0.0039 0.31856,-1.183066 0.73897,-1.820267 2.42578,-3.5585942 0.42449,-0.4374534 0.61278,-0.6041689 0.83203,-0.8066406 z m -6.25195,7.4531248 c 0,0.554262 0.13393,1.136259 0.30273,1.710938 0.52402,1.784045 1.41201,3.131882 3.15039,4.859375 l 0.82227,0.816406 c -0.61845,0.478644 -1.58764,1.023899 -2.59961,1.423828 -0.92608,0.365987 -1.7694,0.533843 -2.36328,0.591797 l -0.0371,-4.453125 -0.0371,-4.52539 h 0.37695 0.38477 z m 8.30664,0.375 c -0.0165,0.272998 -0.0323,0.569455 -0.15234,1.064453 -0.32423,1.336747 -0.95678,2.679634 -1.82813,3.863282 l -0.0801,0.107422 -0.67383,-0.667969 c -0.76341,-0.756936 -1.70241,-1.894059 -1.875,-2.177735 -0.3979,-0.654046 -0.63353,-1.568601 -0.75781,-2.146484 l 2.3086,-0.01367 c 0.95011,-0.0058 1.84574,-0.01404 2.52539,-0.02148 0.21575,-0.0024 0.36596,-0.0055 0.5332,-0.0078 z m -11.99414,0.002 0.0352,4.582031 0.0351,4.472656 c -0.42136,-0.04339 -1.54108,-0.310188 -2.1914,-0.546875 -0.59802,-0.217636 -1.481,-0.673761 -2.16797,-1.103516 -0.23267,-0.145549 -0.3916,-0.267361 -0.5625,-0.392578 0.24074,-0.274642 0.53887,-0.600102 0.89453,-0.953125 l 0.31054,-0.308594 -0.006,-0.08984 c 1.69151,-1.784778 2.62962,-3.554321 2.94531,-5.652344 0.1164,-0.0074 0.083,-0.0018 0.44726,-0.0059 z m -8.89649,0.04687 h 2.7129 2.6289 c -0.12489,0.577653 -0.35571,1.486626 -0.75195,2.142578 -0.10946,0.181201 -0.62868,0.833031 -1.2461,1.505859 -0.40002,0.43593 -0.8625,0.876154 -1.3125,1.318359 -0.0485,-0.06838 -0.0804,-0.104412 -0.13085,-0.177734 -0.40807,-0.593342 -0.87388,-1.354029 -1.04102,-1.705078 -0.4234,-0.889325 -0.77659,-2.416502 -0.85938,-3.083984 z"
             id="path7" /></g><g
           id="text3-0"
           style="fill:#ffffff"><path
             style="-inkscape-font-specification:'Ranked Sports';fill:#ffffff"
             d="m 132.87972,107.2666 h -4.13319 v -2.05263 h 0.8029 v -5.934481 h -0.8029 v -2.059612 h 4.0913 q 0.9914,0 1.74543,0.425886 0.76101,0.439849 1.17992,1.228786 0.42588,0.788936 0.42588,1.815251 0,1.05424 -0.42588,1.82922 -0.41891,0.77497 -1.17294,1.20086 -0.75402,0.4189 -1.75241,0.4189 h -0.75403 v 1.07519 h 0.79592 z m -0.0419,-5.64125 q 0.4189,0 0.61439,-0.24436 0.19549,-0.25134 0.19549,-0.67723 0,-0.45381 -0.20247,-0.712133 -0.19549,-0.258325 -0.60741,-0.258325 h -0.75403 v 1.892048 z m 11.88292,5.59936 h -4.11923 v -2.05263 h 0.8029 v -1.61977 h -2.12943 v 1.61977 h 0.8029 v 2.05263 h -4.12621 v -2.05263 h 0.79592 v -5.913536 h -0.79592 v -2.052631 h 4.12621 v 2.052631 h -0.8029 v 1.780346 h 2.12943 v -1.780346 h -0.8029 v -2.052631 h 4.11923 v 2.052631 h -0.79592 v 5.913536 h 0.79592 z m 3.91675,0.1885 q -0.77497,0 -1.51503,-0.3421 -0.73309,-0.34909 -1.31257,-1.04028 -0.5725,-0.69119 -0.89366,-1.73147 -0.29324,-0.97046 -0.32116,-2.05263 0,-1.01934 0.27927,-1.99678 0.27927,-0.984424 0.87271,-1.77336 0.55854,-0.740065 1.31257,-1.103115 0.76101,-0.363051 1.57089,-0.363051 0.80988,0 1.57787,0.370033 0.77498,0.36305 1.35446,1.096133 0.59345,0.767991 0.87272,1.74543 0.27927,0.97047 0.27927,1.9898 0,1.08217 -0.28625,2.08754 -0.34211,1.0333 -0.93556,1.72449 -0.58646,0.69119 -1.33351,1.04028 -0.74704,0.34908 -1.52202,0.34908 z m 0.0209,-2.5204 q 0.21643,0 0.4189,-0.0768 0.20945,-0.0768 0.37003,-0.2304 0.41891,-0.4189 0.56553,-1.0333 0.15359,-0.62137 0.15359,-1.27067 0,-0.57251 -0.10472,-1.20086 -0.0977,-0.62836 -0.42589,-1.06821 -0.32814,-0.439848 -0.97744,-0.495701 -0.65629,0.03491 -0.97046,0.439849 -0.3072,0.404942 -0.40494,0.991402 -0.0908,0.58647 -0.0977,1.15897 0,0.46778 0.0419,0.92857 0.0419,0.4608 0.18153,0.85876 0.13963,0.39796 0.4189,0.69119 0.37702,0.3072 0.83083,0.3072 z m 10.73791,2.31793 h -6.89796 v -2.04565 h 0.79592 v -5.920509 h -0.79592 v -2.04565 h 6.89796 v 3.462939 h -2.12943 v -1.417289 h -1.44522 v 1.689579 l 2.29699,0.014 v 2.51343 l -2.29699,-0.014 v 1.7175 h 1.44522 v -1.46616 h 2.12943 z m 8.39903,-0.0419 h -2.29699 l -2.59022,-4.83834 v 2.80666 h 0.9914 v 2.03168 h -4.03544 v -2.03168 h 0.77497 v -5.878626 h -0.77497 v -2.038667 h 3.1348 l 2.53437,4.915143 v -2.876476 h -0.99141 v -2.038667 h 4.03545 v 2.038667 h -0.78196 z m 5.18045,0.0419 h -4.10526 v -2.03866 h 0.79592 v -5.899572 h -0.79592 V 97.23384 h 4.10526 v 2.038668 h -0.79592 v 5.899572 h 0.79592 z m 8.99946,-0.007 h -4.08432 v -2.03867 h 0.32815 l -0.56552,-0.98442 -0.59345,0.98442 h 0.31418 v 2.03867 h -3.90978 v -2.03867 h 0.83083 l 1.80129,-2.85553 -1.72449,-3.044034 h -0.7261 v -2.045649 h 3.83995 v 2.045649 h -0.32116 l 0.48174,0.872714 0.49571,-0.872714 h -0.32116 v -2.045649 h 3.81203 v 2.045649 h -0.80989 l -1.65467,2.792694 1.89904,3.10687 0.90762,0.007 z"
             id="path4" /><path
             style="-inkscape-font-specification:'Ranked Sports';fill:#ffffff"
             d="m 148.63086,94.984375 c -0.64938,0 -1.27193,0.211863 -1.88281,0.431641 v -0.236329 h -4.64453 -3.5293 -4.64844 v 0.28711 c -0.3712,-0.07062 -0.7105,-0.273438 -1.08789,-0.273438 h -6.11719 v 6.113281 h 0.80274 v 1.88086 h -0.80274 v 6.10547 h 8.18555 v -0.041 h 3.66797 3.5293 4.64453 v -0.23437 c 0.61088,0.22195 1.23806,0.42187 1.88867,0.42187 0.63307,0 1.24022,-0.20454 1.83594,-0.41601 v 0.21484 h 10.95117 v -0.043 h 2.86133 1.64062 0.91797 v 0.043 h 8.1582 v -0.008 h 0.86328 3.53516 4.60156 v -6.07031 l -1.79297,-0.0137 -0.67578,-1.10546 0.44532,-0.74805 h 1.68164 v -6.099611 h -4.14844 -3.7168 -4.17578 v 0.01367 h -1.01562 v -0.01367 h -6.36915 -1.71875 -1.09179 v -0.02148 h -10.95117 v 0.240234 c -0.59933,-0.212055 -1.2057,-0.427734 -1.8418,-0.427734 z m 2.4375,0.560547 0.0195,0.0098 c -0.003,-0.0015 -0.007,-5.07e-4 -0.01,-0.002 -0.004,-0.0018 -0.006,-0.006 -0.01,-0.0078 z m -18.72266,4.316406 0.81836,0.818362 -0.8164,0.8164 c -0.19879,-0.0877 -0.36222,-0.0889 -0.50782,-0.27539 -0.1955,-0.26776 -0.21875,-0.51868 -0.21875,-0.51757 0,-0.0262 0.0202,-0.2961 0.23047,-0.56641 l 0.0176,-0.0215 c 0.15292,-0.191142 0.28999,-0.173163 0.47656,-0.253902 z m 30.32032,1.423832 h 0.14843 l 0.25586,0.49609 -0.40429,0.10156 z m 3.10351,1.28515 v 0.54102 H 165.625 l -0.24023,-0.44922 z m -15.97266,4.14063 -0.0215,0.008 c 0.004,-0.001 0.006,-0.005 0.01,-0.006 0.004,-0.001 0.008,-5.6e-4 0.0117,-0.002 z"
             id="path5" /></g></g><g
         id="g13"
         transform="translate(140.08883,-37.872884)"><ellipse
           style="fill:#f9ad1b;fill-opacity:1;stroke:none;stroke-width:3;stroke-dasharray:none"
           id="path3"
           cx="15.144641"
           cy="63.219387"
           rx="4.3512444"
           ry="1.9425198"
           transform="rotate(-39.055718)" /><path
           style="fill:#f9ad1b;fill-opacity:1;stroke-width:3.29646"
           d="m 57.464334,102.15397 c 9.279764,-4.732117 14.200001,-16.530545 11.475159,-27.516739 -0.890698,-3.591164 -1.501989,-5.104865 -5.068451,-12.550676 -3.4406,-7.183057 -3.905279,-8.517573 -4.092307,-11.752819 -0.190138,-3.289037 0.269519,-4.923369 1.90829,-6.785119 1.554808,-1.766358 2.02685,-1.697492 1.282792,0.18714 -0.395009,1.000515 -0.583499,2.129211 -0.59427,3.558519 -0.01352,1.776177 0.114587,2.370505 0.844724,3.923698 0.962563,2.047564 2.883238,4.26747 3.483776,4.026525 0.602855,-0.241861 2.942709,-3.48004 3.841227,-5.31594 1.198589,-2.44903 1.530459,-4.257219 1.349441,-7.352412 -0.213742,-3.65468 -1.743204,-8.064754 -4.144377,-11.949937 -0.416353,-0.673669 -0.466379,-0.915206 -0.189547,-0.915206 0.467411,0 3.833605,1.952336 5.207521,3.020274 1.859682,1.445523 1.825502,1.457958 1.61592,-0.587695 -0.376073,-3.670673 -2.421317,-8.499834 -5.028385,-11.87285 -1.211834,-1.567867 -3.75204,-4.096546 -6.45164,-6.422368 l -1.395496,-1.202281 1.282758,0.148242 c 1.22855,0.141978 4.891541,1.146146 6.950676,1.905447 2.614258,0.964005 7.153013,3.942181 9.026828,5.923097 3.895366,4.118011 5.962043,8.045651 7.205243,13.693273 0.711354,3.231543 0.980309,9.831889 0.517467,12.69903 -0.530952,3.289067 -0.673873,7.952563 -0.286165,9.337346 0.186184,0.665013 0.711872,1.662042 1.168179,2.215622 1.139152,1.381987 2.336825,1.393788 3.694215,0.03639 1.24032,-1.240319 1.90644,-2.765364 2.667937,-6.108068 0.503267,-2.209168 0.594426,-3.342641 0.519002,-6.453324 -0.05035,-2.075404 -0.06179,-3.773284 -0.02538,-3.773066 0.363839,0.0023 2.045596,6.212022 2.570035,9.489782 0.159647,0.997779 0.291209,3.518537 0.292362,5.60168 0.0046,8.545953 -2.506773,14.790938 -8.21269,20.421071 -3.828338,3.777488 -8.891177,6.57055 -15.229564,8.401816 l -2.372347,0.685411 1.116398,0.23761 c 0.614018,0.130671 3.000318,0.231608 5.302891,0.224256 4.004126,-0.01292 4.295912,-0.05284 6.698389,-0.919722 1.381543,-0.498504 2.816452,-0.982309 3.188691,-1.075134 l 0.67679,-0.168779 -0.66724,0.948943 c -1.305363,1.856465 -6.868101,7.118552 -9.477981,8.965716 -3.078009,2.17849 -8.276734,4.846258 -11.833388,6.072407 -2.716023,0.93634 -8.75439,2.24645 -10.250543,2.22401 -0.858957,-0.0129 -0.732918,-0.12065 1.433147,-1.22519 z"
           id="path1" /><path
           id="path2"
           style="fill:#1d1160;fill-opacity:1;stroke-width:3.29646"
           d="m 42.60062,101.06764 c 1.381651,-1.460889 2.85985,-3.934477 2.85985,-4.785615 0,-0.345301 -0.217765,-0.293977 -1.090816,0.257157 -2.359989,1.489795 -6.194945,2.684237 -9.949922,3.099017 -1.602769,0.177052 -1.812374,0.125693 -4.02167,-0.985107 -2.618117,-1.316366 -3.695457,-1.985484 -6.707359,-4.165826 -2.188971,-1.584616 -7.019646,-6.258392 -8.658404,-8.37718 -1.073288,-1.387678 -1.032475,-1.3922 1.820466,-0.201644 2.868704,1.197136 5.958998,1.672111 9.761063,1.500265 4.3656,-0.197326 4.974149,-0.427993 2.779977,-1.053764 C 16.554815,82.693307 8.392484,74.822422 6.0818786,63.875388 5.3463183,60.390518 5.2884886,54.761854 5.9488008,50.922552 c 0.4826728,-2.806454 1.9106459,-8.00384 2.3083008,-8.401496 0.129947,-0.129945 0.1880959,1.064852 0.1292154,2.655091 -0.2413987,6.521526 1.4167406,12.491406 3.872429,13.942016 1.077856,0.636707 1.763093,0.57146 2.753866,-0.262232 1.697387,-1.42826 2.088232,-4.784418 1.250214,-10.735596 -0.599129,-4.254738 -0.394792,-10.83381 0.441748,-14.222869 1.924934,-7.798471 5.621595,-13.154353 11.692121,-16.940062 3.319445,-2.070072 8.225623,-3.848136 12.195593,-4.419842 l 1.379435,-0.198645 -1.953694,1.489367 c -4.696524,3.580312 -8.841815,8.829476 -10.422532,13.198006 -0.919016,2.539821 -1.543665,5.33242 -1.395593,6.239195 0.08806,0.5392 0.24018,0.47872 1.849125,-0.735092 1.559343,-1.176396 5.102644,-3.173664 5.292859,-2.983448 0.03993,0.03993 -0.680809,1.568897 -1.601625,3.397726 -2.716734,5.39572 -3.684117,10.501935 -2.692115,14.210027 0.507366,1.896534 1.678316,4.137347 3.189386,6.103433 1.629435,2.120096 5.58359,6.105789 5.877352,5.924234 0.124999,-0.07723 0.387926,-0.868361 0.584289,-1.758017 0.503732,-2.282243 1.541019,-5.304033 2.674554,-7.791404 0.533688,-1.171108 0.970359,-2.145002 0.970379,-2.164217 1.6e-5,-0.01912 -1.224533,-0.03547 -2.721221,-0.03612 -1.856545,-8.07e-4 -3.25338,-0.165383 -4.395854,-0.517939 L 35.552435,46.397912 37.871384,45.727 c 2.469965,-0.714609 4.518989,-1.637344 4.518989,-2.035031 0,-0.132946 -0.548004,-0.323911 -1.217791,-0.424359 -1.236713,-0.185459 -4.998097,-1.837753 -5.301644,-2.328901 -0.0919,-0.148703 0.373011,-0.342636 1.040693,-0.434153 1.839911,-0.252177 3.429905,-0.864579 8.066214,-3.106726 2.368654,-1.145498 4.986354,-2.204068 5.912621,-2.390999 1.673567,-0.337752 4.264678,-0.20148 5.146921,0.270672 0.309141,0.165449 1.135064,0.06763 2.406733,-0.284979 3.594631,-0.996761 6.318064,-0.619082 8.315073,1.153107 l 1.161628,1.03085 -1.795054,0.208337 c -3.293587,0.38226 -5.980727,1.618867 -7.730182,3.557386 -2.738787,3.034773 -3.806571,6.762267 -3.195557,11.155302 0.426627,3.067324 1.107338,4.873661 4.500554,11.942703 3.388584,7.059395 4.265133,9.55351 4.764882,13.557904 0.617825,4.950521 -0.615266,10.532933 -3.170212,14.352054 -1.964562,2.936622 -5.437489,5.946687 -8.857294,7.676816 -2.833586,1.433557 -8.213631,2.928957 -10.537549,2.928957 -0.669602,0 -0.632181,-0.0795 0.700212,-1.48834 z m 9.756303,-61.020046 c 0.887508,-0.541139 2.222257,-2.658189 1.82333,-2.891987 -0.269189,-0.157767 -5.804662,2.545975 -5.740117,2.803698 0.185919,0.742351 2.749319,0.800132 3.916787,0.08828 z" /><path
           id="path62"
           style="fill:#e56020;fill-opacity:1;stroke-width:1.94043"
           d="m 40.547822,19.180863 c 0.418012,-1.512696 0.997856,-2.712658 1.895946,-3.923559 l 0.777645,-1.048488 1.309524,1.294925 c 0.720244,0.712208 1.571318,1.64829 1.891281,2.080184 0.662793,0.894655 1.359441,2.716359 1.364591,3.568399 0.0032,0.545687 -0.02374,0.573573 -0.530477,0.546584 -0.293669,-0.01554 -1.994069,-0.03417 -3.778659,-0.04118 l -3.244707,-0.01357 0.01,-0.698225 c 0.0055,-0.384029 0.142683,-1.178789 0.304981,-1.766112 z m 3.46379,3.450068 h 3.778647 v 0.463043 c 0,0.753158 -0.48594,2.182875 -1.071251,3.15183 -0.417891,0.691778 -2.061877,2.483316 -3.443927,3.753029 -0.120342,0.110606 -1.55012,-1.968401 -1.991864,-2.896234 -0.544723,-1.144156 -1.050251,-2.99464 -1.050251,-3.84447 v -0.627198 z m 0.854075,-9.790967 c 1.677408,-1.242453 4.191533,-2.202146 5.769057,-2.202146 h 0.605594 l 7e-5,5.544757 8.3e-5,5.544756 -1.191178,-0.03297 c -0.655144,-0.01752 -1.236446,-0.03671 -1.291769,-0.04118 -0.05533,-0.0043 -0.148214,-0.413051 -0.206397,-0.908167 -0.240623,-2.047343 -1.114156,-3.57007 -3.273645,-5.706571 l -1.447059,-1.43165 z m 0.690117,16.083083 c 1.965718,-1.951122 2.837134,-3.604396 3.086343,-5.855576 0.05155,-0.465682 0.05535,-0.467101 1.283876,-0.480955 l 1.232161,-0.01355 0.04326,5.55576 0.0433,5.55576 -1.075754,-0.110214 c -0.591666,-0.06056 -1.683124,-0.331268 -2.425478,-0.601449 -1.415505,-0.515143 -3.627657,-1.899015 -3.68003,-2.302118 -0.01685,-0.129621 0.654693,-0.915918 1.492304,-1.74731 z m 7.656924,-18.236354 c 0.587849,0.04931 1.680028,0.312648 2.427074,0.585278 1.357817,0.495541 3.602739,1.842645 3.76189,2.257367 0.04903,0.127878 -0.56082,0.864964 -1.457169,1.761301 -1.833061,1.83306 -2.683608,3.312868 -2.977725,5.180756 l -0.18483,1.173804 -1.113658,0.02461 c -0.612516,0.01357 -1.191425,0.03199 -1.286479,0.04118 -0.117233,0.01167 -0.18327,-1.773253 -0.205363,-5.548678 L 52.143928,10.5972 Z m 0.286584,11.94416 1.355382,7.8e-5 v 0.5452 c 0,0.299859 0.117942,0.946727 0.2621,1.437523 0.482588,1.642999 1.219549,2.771022 2.903698,4.44462 l 1.605354,1.595279 -0.710481,0.582181 c -1.472273,1.206423 -4.498999,2.402575 -6.079424,2.402575 h -0.601304 l -0.04535,-5.503779 -0.0454,-5.503756 z M 55.939506,19.842 c 0.359574,-1.338061 0.943563,-2.211154 2.666898,-3.987124 1.231598,-1.269228 1.601112,-1.56361 1.778221,-1.416619 0.531202,0.440859 1.758168,2.542373 2.214663,3.793211 0.272642,0.747044 0.53609,1.839229 0.585455,2.427062 l 0.08975,1.068801 -3.799171,-0.04693 -3.799175,-0.04693 0.01086,-0.445907 c 0.0061,-0.245249 0.119589,-0.85072 0.252558,-1.345508 z m 3.186707,2.768403 c 1.897539,-0.01168 3.579448,-0.02993 3.737574,-0.04111 0.41316,-0.02952 0.458717,0.863155 0.116115,2.275592 -0.356952,1.471654 -1.04399,2.925419 -1.989521,4.209841 l -0.745756,1.013035 -1.471956,-1.459463 c -0.809577,-0.802697 -1.719345,-1.866065 -2.021699,-2.363026 -0.58756,-0.96579 -1.074841,-2.394429 -1.074841,-3.151328 v -0.463046 z" /><text
           xml:space="preserve"
           style="font-style:normal;font-variant:normal;font-weight:normal;font-stretch:normal;font-size:14.2986px;line-height:1;font-family:'Ranked Sports';-inkscape-font-specification:'Ranked Sports';text-align:center;letter-spacing:0px;writing-mode:lr-tb;direction:ltr;text-anchor:middle;fill:#e56020;fill-opacity:1;stroke:none;stroke-width:4.05316;stroke-dasharray:none"
           x="50.738617"
           y="114.85581"
           id="text3"><tspan
             sodipodi:role="line"
             id="tspan3"
             style="letter-spacing:0px;fill:#e56020;fill-opacity:1;stroke-width:4.05316"
             x="50.738617"
             y="114.85581">phoenix</tspan></text></g></g></g></svg>
