<?xml version="1.0" encoding="UTF-8" standalone="no"?>
<!-- Created with Inkscape (http://www.inkscape.org/) -->

<svg
   width="105.83334mm"
   height="105.83334mm"
   viewBox="0 0 105.83333 105.83333"
   version="1.1"
   id="svg1"
   xml:space="preserve"
   inkscape:version="1.4 (e7c3feb100, 2024-10-09)"
   sodipodi:docname="portland.svg"
   inkscape:export-filename="../pngs/portland.png"
   inkscape:export-xdpi="96"
   inkscape:export-ydpi="96"
   xmlns:inkscape="http://www.inkscape.org/namespaces/inkscape"
   xmlns:sodipodi="http://sodipodi.sourceforge.net/DTD/sodipodi-0.dtd"
   xmlns="http://www.w3.org/2000/svg"
   xmlns:svg="http://www.w3.org/2000/svg"><sodipodi:namedview
     id="namedview1"
     pagecolor="#ffffff"
     bordercolor="#000000"
     borderopacity="0.25"
     inkscape:showpageshadow="2"
     inkscape:pageopacity="0.0"
     inkscape:pagecheckerboard="0"
     inkscape:deskcolor="#d1d1d1"
     inkscape:document-units="mm"
     inkscape:zoom="1.6952882"
     inkscape:cx="221.49626"
     inkscape:cy="226.51016"
     inkscape:window-width="1920"
     inkscape:window-height="1011"
     inkscape:window-x="0"
     inkscape:window-y="32"
     inkscape:window-maximized="1"
     inkscape:current-layer="layer1"
     showgrid="false" /><defs
     id="defs1" /><g
     inkscape:label="Capa 1"
     inkscape:groupmode="layer"
     id="layer1"><rect
       style="fill:#ffffff;fill-rule:evenodd;stroke-width:0.267336"
       id="rect3"
       width="96.21888"
       height="12.862844"
       x="23.65502"
       y="55.35907"
       ry="0.030763038"
       transform="matrix(1,0,-0.28496664,0.95853744,0,0)" /><g
       id="g3"
       transform="matrix(0.98571725,0,0,0.98571725,0.00853362,1.1096073)"><path
         style="fill:#ffffff;fill-opacity:1;stroke-width:6.829"
         d="m 52.595531,21.537636 c 0,0 -2.809256,6.242793 -2.965326,7.023142 -0.15607,0.780349 -10.768819,11.080957 -10.768819,11.080957 l 14.358424,6.398863 14.202354,4.994235 6.086724,1.404628 5.774581,-4.057817 3.589607,-16.85554 c 0,0 -4.057816,-0.624279 -4.213886,0.15607 -0.15607,0.780349 -5.150302,10.924889 -5.150302,10.924889 l -5.774584,2.341046 0.624279,-3.901747 -1.872838,-2.653186 0.15607,-2.653186 0.624279,-4.057816 1.092489,-0.624279 -1.872838,-4.369954 3.433535,-4.682096 -0.468209,-4.526025 z"
         id="path3" /><path
         style="fill:#e03a3e;fill-opacity:1;stroke-width:6.829"
         d="M 4.3431532,62.393776 2.6263852,66.45159 4.0310134,69.104778 0.59747743,77.688618 97.360767,77.532549 103.91569,62.549845 Z"
         id="path2"
         sodipodi:nodetypes="ccccccc" /><path
         style="fill:#e03a3e;fill-opacity:1;stroke-width:2.97929"
         d="m 7.2177665,58.566723 -1.7790074,0.745312 1.4555511,0.487319 -1.0608964,1.420551 97.7742062,0.12741 1.018,-2.90799 z"
         id="path2-6"
         sodipodi:nodetypes="ccccccc" /><path
         style="fill:#000000;fill-opacity:1;stroke-width:1.04665"
         d="m 1.72886,68.263467 c 0,-0.06837 0.8100085,-2.197938 1.8000165,-4.732389 0.99001,-2.53445 1.800017,-4.65141 1.800017,-4.704354 0,-0.05294 -0.3615,-0.135314 -0.803331,-0.183041 l -0.803331,-0.08677 1.327286,-3.323107 1.327288,-3.323107 9.9491705,-0.138463 9.94917,-0.138461 2.451587,-2.272949 2.451588,-2.272948 -1.293839,-0.34605 c -0.711611,-0.190326 -1.29384,-0.429681 -1.29384,-0.531898 0,-0.190798 2.363527,-2.25115 3.600033,-3.138249 l 0.692314,-0.496683 -1.244156,0.150475 -1.244155,0.150476 0.690304,-0.54681 c 0.379667,-0.300744 1.478816,-1.120782 2.442552,-1.822305 1.063263,-0.773969 1.629049,-1.351636 1.438923,-1.46914 -0.393196,-0.243008 2.321391,-2.793302 4.584989,-4.307495 0.901621,-0.603123 2.823167,-1.686849 4.270103,-2.408281 2.501955,-1.247455 3.060757,-1.795449 0.917825,-0.900075 -1.483123,0.619688 -1.403059,0.326234 0.189877,-0.695951 0.773128,-0.496113 1.349506,-0.958206 1.28084,-1.026872 -0.06866,-0.06867 -1.505445,0.563427 -3.192842,1.404651 l -3.067995,1.529498 0.55253,-1.08305 c 0.303891,-0.595676 1.330929,-1.919777 2.282305,-2.942443 l 1.729774,-1.859396 -1.214037,0.673409 c -0.667721,0.370377 -1.763529,1.156078 -2.435129,1.746006 -0.671601,0.589928 -1.296459,0.997229 -1.388576,0.905112 -0.271134,-0.271134 0.691607,-3.788563 1.488764,-5.439277 1.065179,-2.205722 4.423507,-5.468426 6.889485,-6.693314 1.075734,-0.534333 2.530446,-1.546081 3.232694,-2.24833 1.681564,-1.681562 3.689739,-2.326167 5.822141,-1.86885 0.794049,0.170294 1.746274,0.507861 2.116053,0.750149 1.373122,0.899704 8.094525,-0.148759 11.839553,-1.846835 2.1227,-0.962478 2.189803,-0.927392 2.466826,1.289829 0.439293,3.515972 -0.896331,6.860558 -4.079534,10.215727 l -2.030343,2.140028 1.938479,-0.203637 c 1.066164,-0.112001 1.980019,-0.316218 2.030788,-0.453814 0.05077,-0.137597 1.058853,-0.250175 2.240185,-0.250175 1.999523,0 2.168829,-0.04599 2.451235,-0.6658 0.294926,-0.647294 0.390445,-0.665418 3.436791,-0.652153 2.058571,0.009 3.389944,0.142359 3.881226,0.388873 0.570643,0.286343 2.421493,0.375228 7.813394,0.375228 8.08952,0 7.63896,-0.152928 7.63896,2.592808 0,2.463852 0.24083,2.391852 -8.000735,2.391852 h -7.13041 l -0.61639,3.94619 c -0.339012,2.170404 -1.221451,6.353117 -1.960968,9.294919 l -1.344576,5.348731 -1.740032,1.574409 -1.740042,1.57441 14.243528,0.138461 14.243527,0.138463 0.89308,0.63701 c 1.44588,1.031306 1.63491,2.317054 0.73909,5.027496 -0.40497,1.22533 -0.84443,2.227873 -0.97655,2.227873 -0.13213,0 -0.24024,0.307954 -0.24024,0.684341 0,1.27078 -1.63162,5.211664 -2.56334,6.191243 -1.74704,1.836792 2.1157,1.70911 -51.705178,1.70911 -26.963596,0 -49.024722,-0.05593 -49.024722,-0.124298 z m 7.1144905,-1.603402 c 0.123222,-0.18869 0.552176,-1.154468 0.953234,-2.146174 l 0.7291975,-1.803102 3.0093,-0.14357 c 1.655113,-0.07896 3.28073,-0.296633 3.612479,-0.483711 0.654159,-0.36889 3.510884,-7.239979 3.352551,-8.063669 -0.07561,-0.393351 -0.827506,-0.456612 -6.204395,-0.522017 l -6.1183575,-0.07443 -0.454993,1.191384 c -0.6298,1.649106 -0.584105,1.865181 0.394444,1.865181 1.011086,0 1.103358,-0.435202 -1.163979,5.489948 -0.893166,2.33408 -1.623938,4.421407 -1.623938,4.638504 0,0.517073 3.180001,0.563807 3.514457,0.05165 z M 11.82055,59.353216 c 0.104413,-0.416039 0.462299,-1.32618 0.795288,-2.022537 0.568427,-1.188713 0.679676,-1.271421 1.819993,-1.353095 0.668007,-0.04785 1.327795,0.02625 1.466197,0.164646 0.150903,0.150904 -0.01343,0.961745 -0.410494,2.025472 l -0.662133,1.773832 -1.599351,0.08406 -1.599353,0.08406 z m 11.99475,2.249872 c 1.108579,-2.893873 2.260941,-5.915824 2.560806,-6.715446 l 0.54521,-1.45386 h -2.146533 -2.146532 l -2.522396,6.576983 c -1.387318,3.617341 -2.465205,6.67569 -2.395306,6.796333 0.06989,0.120643 1.018555,0.182951 2.108122,0.138463 l 1.98103,-0.08088 z m 10.9669,4.569271 c 0.394406,-0.410902 1.527372,-2.98235 2.787258,-6.326135 1.671999,-4.437549 2.05413,-5.716487 1.799638,-6.023131 -0.256001,-0.308462 -1.373597,-0.389311 -5.381634,-0.389311 -4.412417,0 -5.132508,0.0619 -5.637664,0.48462 -0.338044,0.282878 -1.401127,2.617312 -2.553725,5.607743 -2.625868,6.81285 -2.557853,6.54905 -1.824087,7.074999 0.502843,0.360429 1.39727,0.418337 5.374463,0.347958 4.676346,-0.08275 4.784441,-0.0982 5.435751,-0.776743 z m -6.745409,-2.18096 c 0,-0.146709 0.668676,-1.990262 1.485946,-4.096784 l 1.485947,-3.830039 1.739801,-0.08351 c 0.956892,-0.04592 1.854017,0.0307 1.993612,0.170296 0.153794,0.153796 -0.328197,1.768992 -1.223161,4.098933 l -1.476969,3.845125 -2.002589,0.08136 c -1.155798,0.04697 -2.002587,-0.03143 -2.002587,-0.185381 z m 12.663725,2.66558 c 0.14844,-0.190386 0.806216,-1.753581 1.461726,-3.473765 0.655509,-1.720185 1.277818,-3.028659 1.382909,-2.907719 0.105094,0.120939 0.728901,1.528363 1.386245,3.127609 0.657342,1.599245 1.31955,3.069113 1.471569,3.266373 0.182115,0.23631 0.794023,0.330777 1.79381,0.276927 l 1.517407,-0.08174 1.976731,-5.123123 c 1.087201,-2.817719 2.249445,-5.839669 2.582765,-6.715445 l 0.606034,-1.592323 h -1.935903 c -1.859657,0 -1.946889,0.03 -2.214841,0.761546 -1.331992,3.636558 -2.284994,5.891667 -2.428963,5.747699 -0.09488,-0.09488 -0.755491,-1.567124 -1.46802,-3.271647 L 45.536477,53.57224 h -1.727766 -1.727766 l -2.455555,6.369289 c -1.350556,3.503108 -2.395921,6.525058 -2.323035,6.715445 0.08343,0.217927 0.687394,0.346157 1.630397,0.346157 0.869741,0 1.611052,-0.145161 1.767764,-0.346157 z m 21.788371,-0.276926 c 0.221661,-0.342695 0.487276,-0.965778 0.590256,-1.384627 l 0.187238,-0.761546 h -2.690835 c -3.029555,0 -2.945655,0.09935 -1.942806,-2.300795 l 0.427149,-1.022311 h 2.599986 2.599985 l 0.304017,-0.872101 c 0.167208,-0.479656 0.304015,-0.978121 0.304015,-1.107703 0,-0.12958 -1.059239,-0.235601 -2.353867,-0.235601 -2.616138,0 -2.682669,-0.06164 -1.952609,-1.808911 l 0.401258,-0.960345 h 2.797517 2.797517 l 0.401257,-0.960345 c 0.220693,-0.52819 0.401258,-1.088964 0.401258,-1.246165 0,-0.186604 -1.855504,-0.285821 -5.345344,-0.285821 h -5.345343 l -0.471463,1.315397 c -0.592694,1.653633 -0.5889,1.730785 0.08512,1.730785 0.304619,0 0.553852,0.03161 0.553852,0.07027 0,0.03865 -0.861482,2.311178 -1.914403,5.050058 -1.052924,2.738881 -1.855577,5.074971 -1.783674,5.191311 0.07191,0.116339 2.114368,0.211526 4.538813,0.211526 4.267314,0 4.420952,-0.01989 4.8111,-0.623081 z m 12.401975,-0.48462 c 0.798518,-1.634192 0.763433,-1.661553 -2.130591,-1.661553 -2.97413,0 -2.969271,0.0048 -2.086782,-2.053983 l 0.54401,-1.269123 h 2.49506 c 2.482869,0 2.497123,-0.004 2.917558,-0.817026 0.232376,-0.449362 0.4225,-0.947829 0.4225,-1.107702 0,-0.179995 -0.890064,-0.290677 -2.337522,-0.290677 -1.285639,0 -2.391354,-0.09347 -2.457147,-0.207695 -0.06579,-0.114231 0.108668,-0.737314 0.38769,-1.384627 l 0.50731,-1.176934 h 2.776896 2.776895 l 0.419099,-1.003058 c 0.230513,-0.551683 0.419109,-1.112458 0.419109,-1.246166 0,-0.133708 -2.413091,-0.243107 -5.362425,-0.243107 h -5.362427 l -0.453011,1.186193 c -0.582016,1.52399 -0.570228,1.802044 0.08098,1.90996 0.487219,0.08074 0.366818,0.522712 -1.374735,5.046373 -1.049797,2.726834 -1.841631,5.066436 -1.759631,5.199116 0.082,0.132679 2.163848,0.207038 4.626328,0.165243 l 4.477237,-0.076 z M 80.714325,64.7185 c 0.448739,-1.180395 0.900888,-2.146173 1.004773,-2.146173 0.103807,0 0.37375,0.965778 0.599685,2.146173 l 0.410809,2.146174 2.007715,0.08136 c 2.312617,0.09371 2.20264,0.293707 1.592365,-2.89549 -0.548672,-2.867304 -0.570478,-2.767269 0.645541,-2.961718 1.40262,-0.224288 1.746911,-0.665464 2.939607,-3.766842 1.522614,-3.95925 1.756389,-3.735796 -4.000586,-3.823938 l -4.846194,-0.07419 -2.424246,6.537307 c -1.333333,3.595519 -2.350564,6.656523 -2.260513,6.802231 0.09005,0.145707 0.917803,0.228103 1.839446,0.183102 l 1.675715,-0.08181 z m 1.973491,-6.093696 c 0.09028,-0.359739 0.356365,-1.114109 0.591295,-1.676381 0.410457,-0.98236 0.480472,-1.02231 1.791721,-1.02231 0.750514,0 1.429573,0.105171 1.509012,0.233716 0.0794,0.128544 -0.08709,0.84509 -0.370023,1.592323 l -0.514462,1.358605 -1.585855,0.08406 c -1.544717,0.08188 -1.5816,0.06709 -1.421688,-0.57001 z m 16.762862,8.071383 c 0.48429,-0.168822 1.050262,-0.636134 1.257722,-1.038471 0.92911,-1.801895 2.37114,-5.985138 2.22351,-6.450273 -0.14657,-0.461802 -0.49893,-0.512074 -3.589092,-0.512074 -1.88462,0 -3.48776,-0.09898 -3.56251,-0.21995 -0.0748,-0.120973 0.10128,-0.749829 0.39125,-1.397458 l 0.52718,-1.177509 1.87705,0.08207 c 1.873502,0.08191 1.876882,0.08352 1.795302,0.856545 l -0.0817,0.774483 1.88175,-0.08218 1.88176,-0.08218 0.53226,-1.545381 c 0.86804,-2.520296 0.96853,-2.47004 -4.938932,-2.47004 -4.92097,0 -5.1422,0.0238 -5.79237,0.623083 -0.921924,0.849776 -2.854753,5.957619 -2.479782,6.553239 0.224252,0.356195 0.9427,0.453808 3.804002,0.516834 2.63933,0.05814 3.49368,0.162727 3.39307,0.415388 -0.074,0.185728 -0.35064,0.872453 -0.61486,1.526054 l -0.48043,1.188365 -1.97307,-0.08066 c -1.97298,-0.08066 -1.97306,-0.08068 -1.88401,-0.842209 0.0884,-0.756654 0.0783,-0.761546 -1.585932,-0.761546 -1.891054,0 -2.178833,0.250216 -2.82543,2.456644 -0.542338,1.850674 -0.227925,1.974165 5.026232,1.974165 2.4596,0 4.71766,-0.132853 5.21707,-0.306948 z M 76.68573,49.764519 c 1.833272,-1.895191 1.968677,-2.124109 2.416025,-4.084652 0.892434,-3.911183 2.658613,-12.472151 2.643437,-12.813189 -0.0088,-0.187427 -0.859929,2.089247 -1.892415,5.059273 -1.032488,2.970027 -2.07497,5.858805 -2.31663,6.419509 -0.438302,1.016952 -4.068196,5.995734 -4.393485,6.026123 -0.09431,0.0088 -0.242676,-0.422831 -0.329717,-0.959203 -0.205632,-1.267159 -1.220396,-3.285351 -2.038209,-4.053646 -0.806024,-0.75722 -0.80333,-0.591672 0.04452,2.736543 0.379384,1.489243 0.690925,2.925792 0.692315,3.192333 0.0021,0.405846 0.264998,0.484619 1.617279,0.484619 h 1.614752 z m -2.991855,-11.97703 c 3.003302,-3.827664 3.034343,-3.882241 2.441303,-4.292347 -1.659617,-1.147678 -2.653558,-2.286003 -2.735588,-3.132969 -0.07764,-0.801627 -0.180583,-0.890325 -1.123938,-0.9684 -0.57116,-0.04726 -1.038471,-0.190807 -1.038471,-0.318967 0,-0.245185 -3.267027,-0.712714 -3.481518,-0.498222 -0.06844,0.06844 0.06382,0.658 0.293917,1.310144 0.531324,1.505935 0.526147,1.598397 -0.100641,1.797329 -0.431645,0.136999 -0.496355,0.365419 -0.384544,1.357398 0.0854,0.757607 -0.0168,1.487224 -0.280154,2.000118 -0.286008,0.557022 -0.370335,1.2798 -0.271901,2.330527 0.133444,1.424452 0.240019,1.61062 1.645652,2.874669 1.04061,0.935793 1.450925,1.489531 1.333796,1.800016 -0.150358,0.398568 -0.12306,0.402243 0.245465,0.03305 0.228048,-0.228463 1.783524,-2.16002 3.456615,-4.292346 z m -6.186594,2.921625 C 67.201503,40.214356 62.577578,37.566125 60.467557,36.6773 55.58372,34.620031 50.792499,34.183187 46.867731,35.437321 l -2.076942,0.663674 2.769255,0.183526 c 1.523091,0.100937 3.516955,0.332473 4.430809,0.51452 2.455452,0.489143 6.947174,1.901556 9.000081,2.830056 0.99001,0.447767 1.613091,0.632285 1.384628,0.410039 -0.622073,-0.605141 -4.026558,-2.408448 -5.935042,-3.143706 -1.483095,-0.571374 -1.550343,-0.627305 -0.572709,-0.476325 1.947517,0.300758 6.007954,1.742014 8.861618,3.145439 3.184713,1.566233 2.988484,1.485379 2.777852,1.14457 z M 65.79409,36.533807 c -0.11458,-0.572903 -0.02596,-0.994873 0.279947,-1.332889 0.478732,-0.528993 0.621093,-1.93956 0.315216,-3.123258 -0.160235,-0.620083 -0.0834,-0.751268 0.530253,-0.905284 0.832067,-0.208836 0.866927,-0.501321 0.218228,-1.831117 -0.29533,-0.605416 -0.706137,-1.002458 -1.094401,-1.057732 -0.614171,-0.08743 -0.621589,-0.04933 -0.621589,3.192257 0,3.677656 -0.293045,4.502139 -1.608025,4.524202 -0.677873,0.01138 -0.632279,0.07333 0.500322,0.679799 1.606516,0.860245 1.679846,0.853012 1.480049,-0.145978 z m 10.427751,-6.915623 c 0,-0.15231 -0.249232,-0.276925 -0.553851,-0.276925 -0.304617,0 -0.553851,0.124615 -0.553851,0.276925 0,0.152308 0.249234,0.276924 0.553851,0.276924 0.304619,0 0.553851,-0.124616 0.553851,-0.276924 z M 65.798813,26.156613 c -0.08766,-0.228463 -0.208375,-0.415388 -0.268234,-0.415388 -0.05985,0 -0.108833,0.186925 -0.108833,0.415388 0,0.228464 0.120705,0.415389 0.268234,0.415389 0.147529,0 0.196505,-0.186925 0.108833,-0.415389 z M 55.590886,25.015922 c 1.066164,-0.221643 3.932343,-0.467519 6.369289,-0.54639 2.436944,-0.07888 4.711195,-0.201231 5.053891,-0.271908 0.984039,-0.202947 0.77494,-0.943355 -0.276926,-0.980575 -0.896159,-0.03171 -0.895464,-0.03273 0.162718,-0.237275 0.647461,-0.125156 1.404931,-0.556886 1.938479,-1.10486 l 0.875753,-0.899433 -3.34247,0.1258 c -1.838358,0.06919 -3.582989,0.268947 -3.876958,0.443904 -0.440708,0.262292 -0.315839,0.294848 0.711677,0.185552 l 1.246165,-0.132553 -1.107702,0.293283 c -0.609237,0.161305 -2.092512,0.538505 -3.296168,0.83822 -2.604571,0.64855 -6.212525,2.004678 -6.965562,2.618158 -0.531226,0.432776 -0.53102,0.436156 0.01548,0.254831 0.304618,-0.101081 1.426166,-0.365109 2.492331,-0.586754 z m 5.61097,-1.132108 c 0.344473,-0.06624 0.842939,-0.06373 1.107704,0.0055 0.264765,0.06931 -0.01707,0.123508 -0.626312,0.120434 -0.609236,-0.0031 -0.825861,-0.05979 -0.481392,-0.126021 z m 2.142946,-1.465695 c 0.456927,-0.116269 1.266935,-0.21372 1.800016,-0.216558 0.874466,-0.0046 0.901544,0.01652 0.276926,0.216558 -0.380773,0.121944 -1.19078,0.219394 -1.800016,0.216557 -1.053717,-0.0049 -1.067213,-0.01547 -0.276926,-0.216557 z"
         id="path1" /></g></g></svg>
