<?xml version="1.0" encoding="UTF-8" standalone="no"?>
<!-- Created with Inkscape (http://www.inkscape.org/) -->

<svg
   width="105.83334mm"
   height="105.83334mm"
   viewBox="0 0 105.83333 105.83333"
   version="1.1"
   id="svg1"
   xml:space="preserve"
   inkscape:version="1.4 (e7c3feb100, 2024-10-09)"
   sodipodi:docname="sacramento.svg"
   inkscape:export-filename="../pngs/NBL.png"
   inkscape:export-xdpi="96"
   inkscape:export-ydpi="96"
   xmlns:inkscape="http://www.inkscape.org/namespaces/inkscape"
   xmlns:sodipodi="http://sodipodi.sourceforge.net/DTD/sodipodi-0.dtd"
   xmlns="http://www.w3.org/2000/svg"
   xmlns:svg="http://www.w3.org/2000/svg"><sodipodi:namedview
     id="namedview1"
     pagecolor="#ffffff"
     bordercolor="#000000"
     borderopacity="0.25"
     inkscape:showpageshadow="2"
     inkscape:pageopacity="0.0"
     inkscape:pagecheckerboard="0"
     inkscape:deskcolor="#d1d1d1"
     inkscape:document-units="mm"
     inkscape:zoom="1.0179897"
     inkscape:cx="334.97391"
     inkscape:cy="148.33156"
     inkscape:window-width="1920"
     inkscape:window-height="1011"
     inkscape:window-x="0"
     inkscape:window-y="32"
     inkscape:window-maximized="1"
     inkscape:current-layer="layer1"
     showgrid="false" /><defs
     id="defs1" /><g
     inkscape:label="Capa 1"
     inkscape:groupmode="layer"
     id="layer1"><g
       id="g5"
       transform="translate(1.0583359,1.2714829)"><text
         xml:space="preserve"
         style="font-size:9.8364px;line-height:1;font-family:'Ranked Sports';-inkscape-font-specification:'Ranked Sports';text-align:center;letter-spacing:0.654737px;word-spacing:0px;writing-mode:lr-tb;direction:ltr;text-anchor:middle;fill:#5a2d81;fill-opacity:1;stroke:#ffffff;stroke-width:3.96144;stroke-dasharray:none"
         x="52.569195"
         y="83.190498"
         id="text1-7"><tspan
           sodipodi:role="line"
           id="tspan1-7"
           x="52.896564"
           y="83.190498"
           style="font-style:normal;font-variant:normal;font-weight:normal;font-stretch:normal;font-family:Sportsball;-inkscape-font-specification:Sportsball;fill:#5a2d81;fill-opacity:1;stroke:#ffffff;stroke-width:3.96144;stroke-dasharray:none">S<tspan
   style="font-size:7.02601px;fill:#5a2d81;fill-opacity:1;stroke:#ffffff;stroke-width:3.96144;stroke-dasharray:none"
   id="tspan2-1">acrament</tspan>O</tspan></text><text
         xml:space="preserve"
         style="font-style:normal;font-variant:normal;font-weight:normal;font-stretch:normal;font-size:13.3625px;line-height:1;font-family:Sportsball;-inkscape-font-specification:Sportsball;text-align:center;letter-spacing:1.24521px;word-spacing:0px;writing-mode:lr-tb;direction:ltr;text-anchor:middle;fill:#5a2d81;fill-opacity:1;stroke:#ffffff;stroke-width:7.53411;stroke-dasharray:none"
         x="52.859871"
         y="99.002213"
         id="text3-1"><tspan
           sodipodi:role="line"
           id="tspan3-5"
           style="stroke:#ffffff;stroke-width:7.53411;stroke-dasharray:none"
           x="53.482475"
           y="99.002213">ROYALS</tspan></text><g
         id="g4"
         transform="matrix(-1,0,0,1,97.303269,1.8193537)"><path
           style="fill:#ffffff;fill-opacity:1;stroke:none;stroke-width:2.09038;stroke-dasharray:none"
           d="m 31.479423,17.324016 20.917947,-0.680257 5.612135,5.612133 -2.550963,10.373944 -20.067628,14.285427 -9.353557,2.550971 -4.251619,-2.380905 -2.550974,-3.571357 0.680259,-3.911488 c 0,0 -1.190448,-4.761808 -1.360517,-5.782196 -0.17006,-1.020388 0,-3.571357 0,-3.571357 l 6.972652,-4.421682 3.061162,-3.401293 4.421679,-3.571359 z"
           id="path3" /><path
           style="fill:#000000;stroke:#ffffff;stroke-width:2.09038;stroke-dasharray:none"
           d="m 33.715395,73.570657 c -3.397811,-2.703384 -6.991328,-6.784898 -8.261767,-9.383709 -0.924447,-1.891045 -1.192604,-2.850143 -1.292534,-4.62296 -0.05047,-0.895973 -0.147792,-1.629044 -0.216171,-1.629044 -0.177754,0 -1.382621,2.619767 -1.51869,3.302114 -0.0628,0.314802 -0.174791,0.572367 -0.248942,0.572367 -0.30344,0 -0.934269,-2.969286 -1.014301,-4.774299 -0.07144,-1.611092 -0.01984,-2.112912 0.374396,-3.643398 0.251485,-0.976226 0.825159,-2.567636 1.274834,-3.536468 l 0.817579,-1.761512 -0.672056,-0.847093 c -0.996034,-1.255452 -1.003127,-1.260335 -0.917395,-0.631224 0.06076,0.445613 0.02901,0.527926 -0.14709,0.381777 -0.406341,-0.337234 -1.122148,-1.976264 -1.122148,-2.569465 0,-0.653802 0.01303,-0.644995 -0.604927,-0.410062 -0.248454,0.09447 -0.451192,0.153903 -0.45052,0.132083 6.72e-4,-0.02182 0.19881,-0.621826 0.440282,-1.333354 0.517383,-1.524478 0.506249,-1.436061 0.180827,-1.436061 -0.205181,0 -0.180969,-0.130947 0.117891,-0.637471 0.298108,-0.505254 0.333779,-0.697026 0.172014,-0.924593 -0.757636,-1.065809 -0.988187,-1.769694 -1.132366,-3.457146 -0.08274,-0.96862 -0.144231,-2.256444 -0.136618,-2.861832 0.01104,-0.875542 -0.04111,-1.100705 -0.254977,-1.100705 -0.185264,0 -0.268839,-0.175912 -0.268839,-0.565839 0,-0.455768 0.183961,-0.739803 0.945729,-1.460159 1.082314,-1.023477 3.600406,-2.762259 4.613008,-3.18535 0.928631,-0.38801 2.122507,-1.226577 2.261333,-1.588341 0.06565,-0.171074 -0.01395,-0.436562 -0.188775,-0.629756 -0.288593,-0.318891 -0.274416,-0.361847 0.313343,-0.949605 0.338582,-0.338582 1.27968,-1.147643 2.091334,-1.797912 1.484474,-1.189314 1.84452,-1.62259 1.348365,-1.62259 -0.333645,0 -0.525973,-0.287769 -0.365673,-0.547139 0.08722,-0.141051 0.155119,-0.138845 0.245858,0.008 0.08264,0.133778 0.360158,-0.02941 0.814525,-0.479007 0.873421,-0.86427 2.760348,-1.65369 5.184351,-2.168934 2.613676,-0.55556 6.617808,-0.554026 9.647502,0.0036 1.31698,0.242438 2.353243,0.347946 2.641682,0.268968 0.463954,-0.127034 0.458224,-0.134957 -0.254753,-0.352178 -2.755187,-0.839422 -7.708681,-1.163594 -10.805992,-0.707175 -2.445234,0.360327 -5.030423,1.185682 -6.218875,1.985458 -0.481235,0.323843 -0.904531,0.559239 -0.94067,0.523102 -0.03613,-0.03614 0.05424,-0.352705 0.200774,-0.703484 0.450703,-1.078675 0.243924,-1.846385 -0.361878,-1.343606 -0.504337,0.418561 -0.484644,-0.01993 0.02483,-0.552498 0.700267,-0.73204 2.796293,-1.69798 4.772067,-2.199177 4.860791,-1.233039 11.044239,-0.968873 16.875437,0.720944 3.04212,0.881571 6.544268,2.45244 6.483102,2.907963 -0.01903,0.14166 -0.276582,0.917128 -0.57236,1.72326 -0.634817,1.730147 -0.709792,2.506506 -0.100341,1.039353 0.232383,-0.559465 0.670721,-1.451034 0.974101,-1.981268 0.547783,-0.95743 0.557391,-0.964061 1.396635,-0.964061 1.936897,0 5.52786,1.243814 7.790984,2.698594 1.256954,0.807994 1.389165,1.006528 0.538746,0.809035 -1.663917,-0.386421 -5.74451,-0.06026 -7.791737,0.622793 -0.733179,0.244624 -0.746369,0.25904 -0.176116,0.192569 4.404348,-0.513385 4.301437,-0.510349 6.782606,-0.200038 1.328357,0.166132 2.881709,0.447256 3.451902,0.624719 0.570183,0.177464 1.031756,0.271534 1.02569,0.209045 -0.02086,-0.215872 -2.455757,-2.214572 -3.641949,-2.98959 -2.110722,-1.379088 -5.156202,-2.588564 -7.398107,-2.938075 -0.411664,-0.06418 -0.748485,-0.146117 -0.748485,-0.182087 0,-0.285305 1.023389,-1.66477 1.235052,-1.66477 0.553249,0 2.860205,0.726147 4.35679,1.371361 3.170566,1.366904 5.930374,3.530026 7.995198,6.266588 0.963303,1.276688 2.012279,3.062243 1.87792,3.196597 -0.03114,0.03115 -0.698607,-0.129295 -1.483232,-0.356556 -1.645547,-0.476618 -3.637614,-0.712221 -4.559569,-0.539264 l -0.638328,0.119752 1.550177,0.973229 c 5.324786,3.343003 8.592573,7.778484 9.480038,12.867593 0.144546,0.828888 0.262814,1.782017 0.262814,2.118065 v 0.610997 l -0.943235,-0.854159 c -0.518778,-0.469813 -1.204726,-1.004651 -1.524328,-1.18853 l -0.581092,-0.334323 0.122278,0.42238 c 1.325344,4.57787 0.874661,9.498958 -1.208023,13.19055 -1.262918,2.238541 -3.410166,4.69945 -5.258827,6.027005 l -0.49954,0.358724 0.394322,-0.771317 c 0.216875,-0.424224 0.500154,-1.16757 0.629525,-1.65188 0.285642,-1.069302 0.309507,-3.614883 0.04284,-4.575195 l -0.194535,-0.700716 -0.473663,1.405166 c -1.471081,4.364032 -4.906394,8.292895 -10.494563,12.002294 -1.256995,0.834384 -3.786434,2.236402 -3.786434,2.098744 0,-0.05333 0.266824,-0.514577 0.592929,-1.024983 0.785774,-1.229838 1.995212,-3.650667 2.519607,-5.043296 l 0.422249,-1.121368 -0.490568,0.120414 c -1.055091,0.258982 -3.769275,1.422314 -5.99567,2.56983 -3.714817,1.914659 -6.395264,3.977759 -7.96035,6.126955 -0.430309,0.590913 -0.79867,1.057287 -0.818566,1.036386 -0.09719,-0.102141 0.318086,-3.337196 0.547498,-4.264707 0.143741,-0.581172 0.572249,-1.674475 0.952241,-2.429561 l 0.690894,-1.372884 -1.173929,0.640663 c -2.312056,1.261782 -4.721456,2.996474 -6.2163,4.475531 -2.509187,2.482702 -3.674791,4.649073 -3.71668,6.907751 -0.01221,0.660291 -0.02778,1.198273 -0.0344,1.195513 -0.0072,-0.003 -0.725424,-0.572504 -1.597175,-1.266094 z M 32.791853,69.22878 c 0.15749,-1.174164 1.11483,-2.894938 2.357007,-4.236604 1.569413,-1.695114 4.032924,-3.296932 8.60496,-5.595115 2.034108,-1.022463 4.371994,-2.295036 5.195332,-2.827942 2.830132,-1.831828 4.795982,-4.28617 5.343216,-6.670916 l 0.237055,-1.033065 0.579811,1.142851 c 0.318899,0.628568 0.679902,1.421076 0.80223,1.761128 l 0.222421,0.618278 0.63549,-1.355832 c 1.085581,-2.316088 1.424072,-4.033191 1.416531,-7.185635 -0.0051,-2.286757 -0.07103,-2.958388 -0.404144,-4.13865 -0.898924,-3.185315 -2.408269,-5.249282 -4.829566,-6.604244 l -1.2733,-0.712541 1.320847,0.101887 c 0.726462,0.05604 1.796351,0.03687 2.377515,-0.04258 L 56.433937,32.305334 55.03836,31.550197 C 53.328147,30.62481 51.835675,29.453464 50.321046,27.847878 48.976569,26.422665 48.459918,25.68943 47.198842,23.416859 45.35705,20.097765 43.489927,18.83793 40.412716,18.83793 c -3.12712,0 -6.82365,1.857893 -9.515017,4.782299 l -1.028437,1.117475 0.49078,-0.880562 c 0.269929,-0.48431 0.974764,-1.51457 1.566319,-2.289467 0.888074,-1.163328 0.984248,-1.350156 0.551731,-1.07187 -0.84413,0.543125 -4.599167,3.425084 -4.838604,3.713593 -0.316467,0.381315 0.03755,0.342006 0.904877,-0.100474 l 0.714718,-0.364619 -0.325474,0.553241 c -0.704714,1.197864 -2.244683,2.563707 -3.84773,3.412674 -1.603566,0.849238 -4.860547,2.964162 -5.206202,3.380657 -0.140321,0.169072 -0.09017,0.278847 0.197813,0.43297 0.295919,0.158371 0.707715,0.156392 1.767691,-0.0085 1.271834,-0.197851 1.437681,-0.187376 2.082217,0.131515 l 0.700307,0.346487 0.917649,-0.501818 c 0.504704,-0.275999 0.944609,-0.501817 0.977563,-0.501817 0.03297,0 0.05995,0.16633 0.05995,0.369624 0,0.50853 -0.881521,1.286266 -2.406662,2.123311 -1.486977,0.816103 -2.172273,1.536755 -2.172273,2.284366 0,1.174927 0.79644,1.955333 3.258384,3.192803 1.662991,0.835888 2.93344,1.190212 4.214351,1.175377 1.623117,-0.01879 1.863164,-0.193942 0.788797,-0.575522 -0.49358,-0.175305 -0.869837,-0.346322 -0.836121,-0.380039 0.03369,-0.03371 0.600817,0.06779 1.260231,0.225562 0.999617,0.239172 1.223411,0.247264 1.346147,0.04867 0.08305,-0.134318 0.275026,-0.18914 0.440313,-0.125713 0.399167,0.153175 0.208397,0.399697 -0.665766,0.860332 -0.680126,0.358391 -0.702811,0.392388 -0.296246,0.443966 0.667344,0.08466 1.937244,0.580457 1.937244,0.756343 0,0.531646 -1.989422,2.104914 -2.661691,2.104914 -0.115571,0 -0.632629,-0.399573 -1.149005,-0.887943 -0.893042,-0.844599 -2.883837,-1.93541 -3.977601,-2.179436 -0.40449,-0.09024 -0.462142,-0.05839 -0.368056,0.20337 0.09322,0.259198 0.04163,0.248098 -0.312885,-0.06734 -0.83151,-0.739929 -1.741374,-1.111969 -2.249089,-0.919646 -0.583169,0.220908 -1.217905,0.805023 -1.533203,1.410937 -0.292499,0.562112 -0.612519,1.911076 -0.453898,1.913298 0.06239,8.99e-4 0.327978,-0.256692 0.590273,-0.572366 l 0.476899,-0.573954 -0.256759,0.864525 c -0.307246,1.03448 -0.316183,1.379959 -0.05964,2.304127 l 0.195187,0.703075 0.394241,-1.366867 c 0.216833,-0.751778 0.429748,-1.402368 0.473133,-1.445758 0.04335,-0.0434 0.08732,0.469869 0.0977,1.140574 0.01425,0.928241 0.132425,1.463096 0.494628,2.239641 l 0.47583,1.020178 0.29596,-1.445215 c 0.162783,-0.794867 0.341005,-1.49025 0.396053,-1.545296 0.05506,-0.05505 0.145014,0.278297 0.199939,0.740762 0.05496,0.462464 0.339071,1.435227 0.631439,2.161691 l 0.531571,1.320845 0.275138,-0.657082 c 0.151323,-0.361395 0.343356,-1.074651 0.426736,-1.585014 l 0.151598,-0.927932 0.323277,0.770994 0.323276,0.770995 0.215205,-0.594882 c 0.11837,-0.327185 0.221249,-0.947547 0.228618,-1.378583 0.02025,-1.184982 0.365043,-0.648253 0.517018,0.804844 l 0.126725,1.211646 0.477337,-0.918735 c 0.262528,-0.505308 0.478537,-1.060063 0.480024,-1.23279 0.002,-0.267181 0.02819,-0.274627 0.173417,-0.04989 0.09394,0.145293 0.171933,0.499089 0.173418,0.786216 0.002,0.458759 0.03399,0.490736 0.260982,0.263762 0.142052,-0.142056 0.368075,-0.575104 0.502261,-0.962329 0.220589,-0.636517 0.256066,-0.666038 0.369979,-0.30779 0.0693,0.217939 0.196143,0.396253 0.281875,0.396253 0.366376,0 2.959473,-2.786099 3.340656,-3.589298 l 0.407919,-0.859551 -0.423113,-0.323369 c -1.035542,-0.79144 -4.300134,-2.068698 -6.675105,-2.611605 -0.709547,-0.1622 -0.645025,-0.172889 0.616397,-0.102119 2.382858,0.133692 4.705396,0.92408 5.964874,2.029913 l 0.603228,0.529644 0.182872,-0.524582 c 0.165552,-0.474887 0.131662,-0.567666 -0.357684,-0.979424 -1.162032,-0.977789 -3.108434,-1.726291 -5.493512,-2.112568 -0.861186,-0.139476 -1.614068,-0.305568 -1.673065,-0.369095 -0.05903,-0.06353 0.764484,-0.07409 1.829966,-0.02346 2.291366,0.108854 3.513382,0.504309 4.868566,1.575515 l 0.905294,0.715595 -0.125443,-0.508245 c -0.272812,-1.105365 -1.109523,-2.673765 -1.967565,-3.688145 -1.144274,-1.352784 -1.305346,-1.662357 -1.294559,-2.488154 l 0.0092,-0.672001 0.366905,0.756787 c 0.201802,0.416233 0.829577,1.15921 1.395068,1.65106 1.383944,1.20371 1.821326,2.127967 1.824054,3.854421 l 0.002,1.331114 1.419635,-0.0745 c 1.188321,-0.06237 1.569118,-0.01016 2.337092,0.320167 1.002375,0.431209 1.76007,1.184347 2.350515,2.336368 0.445331,0.868887 0.571079,0.674322 0.468819,-0.725349 -0.09882,-1.352768 -0.718727,-2.512313 -1.95492,-3.656809 L 38.891,35.744756 h 0.950663 c 1.273635,0 2.491815,0.389146 3.332139,1.064446 0.380471,0.305759 0.731357,0.516345 0.779729,0.467967 0.129462,-0.12946 -0.274477,-1.523696 -0.647783,-2.235875 -0.177987,-0.339561 -0.605599,-0.918984 -0.950247,-1.287607 -0.344638,-0.368623 -0.626625,-0.715252 -0.626625,-0.770287 0,-0.131918 1.750147,0.03527 2.201411,0.210299 0.485742,0.188399 -1.071752,-1.420801 -1.833396,-1.894265 -0.535938,-0.333151 -0.564383,-0.387562 -0.264167,-0.505274 0.185039,-0.07255 0.838044,-0.137486 1.451133,-0.144294 l 1.114699,-0.01238 -0.124792,-0.572367 c -0.211509,-0.969726 -0.881182,-2.319578 -1.501131,-3.025663 l -0.591148,-0.673281 0.61019,0.130897 0.610189,0.130899 -0.359181,-0.416795 c -0.197538,-0.229241 -0.699728,-0.798931 -1.115972,-1.265981 -0.416243,-0.467049 -0.942623,-1.269344 -1.169736,-1.782876 -0.227102,-0.513532 -0.636293,-1.112361 -0.909304,-1.330732 l -0.496378,-0.397039 0.92459,0.08474 c 0.50852,0.04661 0.924051,0.03694 0.923389,-0.0215 -0.0031,-0.237396 -1.197133,-0.889998 -1.989859,-1.087187 -0.466885,-0.116139 -1.256454,-0.163929 -1.761128,-0.106602 -0.841707,0.09563 -0.88666,0.08278 -0.562569,-0.160746 0.193721,-0.145566 0.89474,-0.429587 1.55782,-0.631156 2.046687,-0.622174 3.681212,-0.22003 5.347134,1.315568 0.750917,0.692169 1.812624,2.062618 1.812624,2.339731 0,0.07006 -0.291727,-0.173008 -0.648282,-0.540137 -0.664565,-0.684284 -2.096098,-1.67599 -2.419302,-1.67599 -0.09943,0 -0.0082,0.120713 0.202158,0.268251 0.210645,0.147539 1.682358,1.791991 3.270485,3.654338 2.921258,3.425699 4.685012,5.22148 5.951472,6.059586 0.382323,0.253011 0.667282,0.487877 0.633229,0.521924 -0.116558,0.116563 -2.63695,-0.813734 -3.372612,-1.244862 -0.81827,-0.479541 -2.107548,-1.673224 -3.248045,-3.007236 -0.83901,-0.981378 -0.722687,-0.643021 0.312346,0.908507 1.143632,1.714323 2.050209,2.609016 3.962956,3.910998 3.985783,2.713083 5.786918,5.667115 6.457181,10.590356 0.201477,1.479818 0.119267,4.174593 -0.158844,5.207128 -0.106271,0.394545 -0.165316,0.121153 -0.25001,-1.157601 -0.228803,-3.45422 -1.297012,-5.568989 -4.447295,-8.804441 -1.183985,-1.215997 -2.399935,-2.600753 -2.702114,-3.077234 -0.694414,-1.094973 -0.700724,-0.779998 -0.01689,0.843913 0.541717,1.286474 1.255814,2.336594 2.98976,4.39661 1.75437,2.084289 2.80305,4.268871 3.061712,6.378048 l 0.107993,0.880563 -0.464229,-0.792507 c -0.619495,-1.057576 -1.762833,-2.240938 -2.566376,-2.656225 -0.359374,-0.18573 -0.682681,-0.337692 -0.718454,-0.337692 -0.03572,0 0.160432,0.455693 0.436029,1.012648 1.497348,3.026095 0.68383,6.556846 -2.169668,9.416503 -1.215615,1.218241 -3.033063,2.33762 -7.224607,4.449679 -4.36025,2.197074 -6.330731,3.439671 -7.853532,4.952485 -0.605386,0.601417 -1.100705,1.058565 -1.100705,1.015882 0,-0.258677 0.966601,-1.906578 1.65724,-2.825328 1.289358,-1.715225 3.235893,-3.41822 7.148391,-6.253997 2.081228,-1.50847 3.9333,-3.100719 4.674743,-4.018912 l 0.497731,-0.616395 -0.69303,0.63942 c -1.278896,1.17998 -3.567281,2.752092 -6.160113,4.231977 -4.621271,2.63763 -6.498999,4.342302 -7.825483,7.104269 -0.725221,1.510037 -1.060608,2.796584 -1.060608,4.068523 0,0.933628 0.495004,3.240154 0.695382,3.240154 0.07632,0 0.179961,-0.306823 0.230257,-0.681828 z m 0.13104,-31.01846 -0.440282,-0.344393 0.54301,-0.0039 c 0.628181,-0.0045 0.791463,0.107883 0.658805,0.453583 -0.123977,0.323077 -0.23323,0.307975 -0.761533,-0.105277 z m -7.220618,-1.232788 c 0,-0.09686 0.07928,-0.176112 0.176105,-0.176112 0.09689,0 0.176115,0.07925 0.176115,0.176112 0,0.09686 -0.07928,0.176113 -0.176115,0.176113 -0.09688,0 -0.176105,-0.07925 -0.176105,-0.176113 z m 7.702382,-0.281387 c -0.05791,-0.0579 -0.06625,-0.206942 -0.01852,-0.331202 0.214106,-0.55795 -2.361669,-1.500763 -4.100102,-1.500763 -1.096533,0 -1.383039,-0.262327 -0.454205,-0.415867 2.226731,-0.368093 4.160891,0.262676 5.175751,1.687918 0.320285,0.4498 0.338115,0.532071 0.09505,0.438805 -0.164523,-0.06314 -0.299126,-0.03802 -0.299126,0.0558 0,0.189661 -0.235824,0.228283 -0.3988,0.0653 z m 3.265865,-1.982884 c -0.305385,-0.491248 -0.874264,-1.113949 -1.26419,-1.383779 -0.389916,-0.269828 -0.71195,-0.54295 -0.715634,-0.606938 -0.0041,-0.06398 0.693356,-0.558045 1.548945,-1.097908 2.303792,-1.45364 3.18228,-2.429423 3.821983,-4.245246 0.221992,-0.630147 0.593559,0.566955 0.601304,1.937241 0.0114,2.010126 -0.193578,2.467474 -1.775478,3.962535 -0.82283,0.777665 -1.451877,1.527786 -1.52963,1.82406 l -0.132068,0.503215 z m -9.911578,-0.0252 c 0,-0.09686 0.07928,-0.176113 0.176115,-0.176113 0.09689,0 0.176115,0.07925 0.176115,0.176113 0,0.09686 -0.07928,0.176112 -0.176115,0.176112 -0.09689,0 -0.176115,-0.07925 -0.176115,-0.176112 z m 2.289473,-4.557023 c 0,-0.283169 1.486734,-0.903358 2.124919,-0.886407 0.563547,0.01497 0.538725,0.03692 -0.3638,0.321721 -0.532742,0.168111 -1.14693,0.401423 -1.364874,0.51847 -0.217932,0.117048 -0.396245,0.137845 -0.396245,0.04621 z m -2.993922,-1.078583 c 0.145298,-0.09389 0.581174,-0.162556 0.968616,-0.152579 0.6786,0.01747 0.685062,0.02307 0.176115,0.152579 -0.290586,0.07394 -0.726462,0.142602 -0.968616,0.15258 -0.345604,0.01423 -0.383474,-0.01857 -0.176115,-0.15258 z m 8.981745,-0.679444 c 0,-0.06252 0.35166,-0.300219 0.78145,-0.528225 0.672808,-0.356921 1.684128,-1.461694 1.684128,-1.839741 0,-0.268035 -0.488735,-0.09942 -0.861288,0.29715 -0.216895,0.230873 -0.844904,0.557475 -1.395578,0.725786 -0.550662,0.168309 -1.36478,0.534168 -1.809143,0.813019 -0.730971,0.458713 -0.949045,0.505691 -2.289462,0.493204 l -1.481544,-0.0138 1.355215,-0.47051 c 1.51587,-0.526292 2.239147,-1.113056 2.773639,-2.250142 0.613893,-1.305994 1.771814,-1.542037 3.313442,-0.675445 l 0.887363,0.498813 0.660636,-0.503892 0.660637,-0.503892 -0.124568,0.513405 c -0.1954,0.805366 -1.217467,2.232006 -1.971417,2.751784 -0.65162,0.449234 -2.18351,0.93506 -2.18351,0.692485 z m 1.021457,-2.173581 c 0.314951,-0.314948 0.256096,-0.631287 -0.140892,-0.757284 -0.570447,-0.181056 -1.102954,0.06815 -0.998578,0.467324 0.07439,0.284702 0.04559,0.308227 -0.164269,0.134039 -0.140006,-0.1162 -0.309791,-0.156046 -0.377296,-0.08854 -0.191838,0.191846 0.339743,0.450128 0.93256,0.453105 0.29543,0.0015 0.632243,-0.09241 0.748475,-0.208638 z m -4.339509,-0.493432 c 0.248149,-0.33565 0.439722,-0.900002 0.496246,-1.461946 l 0.0921,-0.915259 0.594536,0.856466 c 0.662845,0.954863 0.698618,0.876135 -0.738562,1.625199 l -0.848476,0.442228 z m 2.525551,-2.256893 c 0.09689,-0.100893 0.413863,-0.233679 0.704449,-0.295079 0.364881,-0.0771 0.446603,-0.0603 0.264168,0.05429 -0.428354,0.269052 -1.173615,0.454315 -0.968617,0.240787 z m -4.30509,43.657286 c -0.667323,-0.937166 -1.939156,-3.80365 -2.322538,-5.234594 -0.475953,-1.776427 -0.510158,-4.429596 -0.07786,-6.040022 0.370629,-1.380713 1.116185,-3.057462 2.042414,-4.593385 0.742684,-1.231565 1.46305,-2.891144 1.665015,-3.835876 l 0.124435,-0.582056 -0.852658,0.918985 c -0.811432,0.874559 -3.572654,3.043331 -3.705516,2.910465 -0.03461,-0.03457 0.01669,-0.271971 0.113831,-0.527561 0.267689,-0.704087 -0.04376,-0.571332 -1.083546,0.461845 -1.321366,1.312978 -2.683469,3.776163 -3.042285,5.501564 l -0.10987,0.528337 0.296021,-0.528337 c 0.768647,-1.371894 2.136542,-2.664506 3.992266,-3.772573 l 0.659701,-0.39391 -0.631154,1.466846 c -2.069729,4.810204 -1.315544,9.132092 2.354932,13.495027 0.826157,0.982019 1.227197,1.138624 0.576808,0.225245 z m 0.782833,-5.702358 c 0,-2.148827 0.0051,-2.177432 0.660882,-3.503719 0.826677,-1.672674 1.747603,-2.700863 4.435794,-4.952479 2.838447,-2.377469 4.026573,-3.628059 4.669847,-4.915365 0.635164,-1.27108 0.710363,-2.556737 0.228741,-3.910666 -0.311032,-0.874392 -1.696554,-2.577443 -2.401899,-2.952356 -0.239834,-0.127484 -0.131152,0.07012 0.304794,0.554171 0.911971,1.012605 1.172434,1.710748 1.167467,3.129295 -0.0082,2.457788 -1.141047,4.172844 -4.750328,7.194243 -3.353164,2.806999 -4.286038,4.011001 -4.869156,6.284291 -0.33901,1.321603 -0.246295,3.375407 0.202698,4.490621 0.165744,0.411662 0.312559,0.748478 0.326258,0.748478 0.01374,0 0.02493,-0.974932 0.02493,-2.166514 z m 34.22415,-3.014425 c 0.695026,-0.918863 1.592728,-2.83815 2.00085,-4.277814 0.590823,-2.08416 0.551864,-5.423447 -0.0859,-7.360013 -0.666601,-2.024177 -2.285117,-4.402172 -3.664991,-5.384723 -0.50283,-0.358047 -0.489335,-0.316927 0.265419,0.808456 3.187867,4.753296 3.355077,11.046071 0.441646,16.621282 -0.475485,0.909901 -0.864515,1.693753 -0.864515,1.741895 0,0.108667 1.351357,-1.413865 1.907465,-2.149083 z m -10.360875,0.216977 c 0.145287,-0.07772 1.215176,-0.560198 2.377514,-1.07219 3.61501,-1.592345 4.805458,-2.591064 5.937131,-4.980885 0.534533,-1.128786 0.579048,-1.358195 0.579048,-2.983924 0,-1.6235 -0.04499,-1.856079 -0.575425,-2.976185 -0.646622,-1.365422 -0.891239,-1.477053 -0.459393,-0.209645 0.427926,1.255911 0.271728,3.411913 -0.344648,4.757002 -0.96877,2.114103 -2.210722,3.340832 -5.33192,5.266601 -1.765281,1.089175 -3.100212,2.131643 -3.547598,2.770386 l -0.290424,0.414632 0.695768,-0.422247 c 0.38268,-0.232236 0.814658,-0.485832 0.959947,-0.563545 z M 40.583793,51.89159 c 4.31316,-2.860755 5.941833,-4.312791 6.796212,-6.059104 0.319479,-0.653007 0.412274,-1.13809 0.413688,-2.162672 0.002,-1.526367 -0.469928,-2.643656 -1.558573,-3.688886 -0.687687,-0.660273 -0.821118,-0.599634 -0.306819,0.139446 1.515433,2.177823 0.660494,5.669733 -2.071692,8.461577 -0.999077,1.020894 -3.617505,3.203919 -5.181971,4.320298 -0.645045,0.460298 -1.17282,0.874254 -1.17282,0.919899 0,0.111587 0.05455,0.07744 3.081975,-1.930558 z m 34.350356,-2.586169 c 0.405476,-1.985992 0.410077,-5.170065 0.01016,-6.662457 -0.932599,-3.475503 -3.109716,-6.042004 -6.700099,-7.898443 -0.877358,-0.453647 -2.868693,-1.350355 -4.42519,-1.992684 -3.089465,-1.274951 -4.87109,-2.203368 -5.809694,-3.027471 -0.741035,-0.650641 -0.766315,-0.527756 -0.09281,0.45117 1.010323,1.468441 2.360866,2.47731 5.562462,4.15522 4.933313,2.585475 8.232182,5.349546 9.479416,7.942657 0.675068,1.403532 1.173757,3.208133 1.164557,4.214204 l -0.0051,0.616395 -0.316437,-0.808782 c -0.638776,-1.63268 -1.847776,-3.024299 -3.402482,-3.916449 -1.275894,-0.732148 -1.699383,-0.726278 -0.579362,0.0081 2.643341,1.733042 4.490863,4.971296 4.490863,7.871394 0,1.233972 0.258916,0.83912 0.624772,-0.952786 z M 21.515524,37.364126 c 0.198862,-0.457034 0.282548,-0.911678 0.210728,-1.144732 -0.101059,-0.327821 -1.048263,-1.777847 -1.508959,-2.309943 -0.120711,-0.139408 -0.152576,0.463693 -0.164026,3.103977 -0.001,0.2619 0.171679,0.816653 0.384024,1.232789 0.384328,0.753186 0.386903,0.754617 0.567222,0.316329 0.09963,-0.242155 0.329585,-0.781444 0.511011,-1.19842 z m 54.995324,-1.89288 c -1.168333,-2.215176 -1.721947,-2.971345 -3.421127,-4.672862 -2.206254,-2.209278 -4.759864,-3.824826 -7.850143,-4.9664 -1.379985,-0.509776 -3.3817,-1.095851 -4.314769,-1.263304 l -0.616386,-0.110619 0.70445,0.452065 c 0.387442,0.248634 2.249832,1.239289 4.138642,2.201453 4.491057,2.287754 5.755002,3.143006 7.9936,5.408884 1.023034,1.0355 1.836327,1.906475 1.807302,1.935497 -0.02901,0.02902 -0.958267,-0.4142 -2.065007,-0.984938 -1.939024,-0.999954 -5.127645,-2.147314 -6.591164,-2.371699 -0.401629,-0.06158 0.128294,0.190431 1.232795,0.586252 2.779287,0.996024 6.263582,2.801718 8.101182,4.198347 0.87176,0.66256 1.609682,1.188023 1.639836,1.167695 0.03012,-0.02034 -0.3115,-0.731495 -0.759211,-1.580371 z m -54.51823,-1.855708 c -0.385743,-0.541723 -0.385926,-0.54577 -0.04,-0.891687 0.191116,-0.191121 0.657289,-0.457884 1.035928,-0.592809 l 0.68843,-0.245318 -0.842186,-0.0077 c -0.801081,-0.0073 -2.063673,0.371068 -2.063673,0.61852 0,0.06374 0.09903,0.07865 0.220141,0.03316 0.121076,-0.0455 0.418269,-0.143765 0.660423,-0.21836 0.426808,-0.131478 0.430848,-0.125053 0.132088,0.20984 -0.16951,0.190008 -0.308193,0.460286 -0.308193,0.600614 0,0.32975 0.495646,1.037968 0.726421,1.037968 0.098,0 0.0041,-0.244888 -0.209373,-0.544194 z m 30.500733,-6.324204 c 0.404458,0 1.904055,-1.659565 2.273474,-2.515988 0.774131,-1.794707 0.410881,-4.145992 -0.842756,-5.4551 -0.256138,-0.267462 -0.889225,-0.619803 -1.406884,-0.782978 -1.349068,-0.425259 -2.788019,-0.153435 -4.536975,0.857059 -1.414567,0.817292 -1.553251,1.099226 -0.759762,1.544599 0.431458,0.242172 0.55109,0.230408 1.451399,-0.142751 1.401774,-0.581 2.312797,-0.674398 2.746831,-0.281604 0.529474,0.479164 0.479036,2.049714 -0.09821,3.059598 -0.243252,0.425542 -0.410656,0.80533 -0.372012,0.843975 0.124506,0.124508 1.039916,-1.069984 1.305142,-1.70305 0.285234,-0.680811 0.197476,-2.156465 -0.15338,-2.579227 -0.316273,-0.381077 -0.122786,-0.42548 0.512764,-0.117674 1.043062,0.505167 1.355947,1.169653 1.351561,2.870322 -0.0041,1.722253 -0.308906,2.4758 -1.549638,3.835423 -0.429138,0.470256 -0.601478,0.756649 -0.413364,0.686943 0.177429,-0.06575 0.39876,-0.119547 0.49185,-0.119547 z m 1.002404,-10.434678 c 0.04813,-0.418353 -0.0072,-0.48431 -0.401792,-0.48431 -0.487209,0 -0.728498,0.350472 -0.554134,0.80486 0.182516,0.475648 0.891667,0.237849 0.955926,-0.32055 z m -18.559647,-0.71787 c 0.438695,-0.32078 0.219582,-1.042144 -0.293263,-0.965467 -0.523643,0.07829 -0.790314,0.569587 -0.499411,0.920096 0.2816,0.339317 0.382761,0.345107 0.792674,0.04537 z m 12.676393,-0.581269 c 0.123346,-0.321436 -0.175281,-0.770184 -0.512529,-0.770184 -0.33726,0 -0.635887,0.448748 -0.51254,0.770184 0.06046,0.15757 0.291106,0.286491 0.51254,0.286491 0.221423,0 0.452056,-0.128921 0.512529,-0.286491 z m -6.793159,-0.220433 c 0.37065,-0.234936 0.179483,-0.981093 -0.267658,-1.04475 -0.538491,-0.07667 -0.863079,0.54327 -0.4833,0.92305 0.31436,0.314358 0.420009,0.331479 0.750958,0.1217 z m 16.112205,1.04439 c -3.024637,-1.582487 -8.109965,-2.964919 -12.437363,-3.381058 -4.94751,-0.475774 -11.053835,0.48328 -14.171471,2.225756 -0.869777,0.486126 -1.348558,0.42387 -1.165105,-0.1515 0.228658,-0.717174 0.07398,-1.535909 -0.516723,-2.734943 C 27.938298,10.913569 27.023976,9.771691 25.72607,8.69947 25.206416,8.270176 24.838341,7.918936 24.908135,7.918936 c 0.554226,0 2.492293,0.666566 3.391796,1.166549 0.893662,0.496731 1.100706,0.69466 1.100706,1.052225 0,1.17153 1.518058,2.888494 2.553874,2.888494 0.363566,0 0.835256,-1.126406 0.823654,-1.966916 -0.01364,-0.988969 -0.590996,-1.907563 -1.198935,-1.907563 -0.04519,0 -0.289264,0.217939 -0.542511,0.484309 -0.304164,0.319929 -0.421821,0.377335 -0.346663,0.169132 0.06259,-0.173347 0.248646,-0.970373 0.413485,-1.771167 0.270488,-1.314077 0.274355,-1.559754 0.03959,-2.5206191 L 30.883045,4.4487494 31.74586,5.3928049 c 0.474548,0.5192296 1.527889,1.3865811 2.340756,1.9274461 0.812865,0.540863 1.477939,1.031556 1.477939,1.090429 0,0.05888 -0.09505,0.01194 -0.211327,-0.104294 -0.271657,-0.271653 -0.89069,-0.271653 -1.162348,0 -0.665379,0.665381 0.186985,2.168509 1.630027,2.874524 0.963406,0.471349 0.970865,0.472069 1.52625,0.146833 C 38.603847,10.59181 39.11655,8.975834 38.386759,8.051024 37.93461,7.478055 37.45881,7.433588 36.973465,7.918938 36.366858,8.525545 36.586205,8.032233 37.527262,6.673481 38.616864,5.1002301 39.016345,4.2384262 39.183088,3.1013507 l 0.125382,-0.8550509 0.589763,1.1038134 c 0.351049,0.6570393 1.197225,1.7245916 2.090582,2.6375289 0.825444,0.8435429 1.500818,1.5993959 1.500818,1.6796719 0,0.08028 -0.09505,0.05086 -0.211338,-0.06538 -0.311246,-0.311246 -1.102873,-0.257003 -1.41361,0.09686 -0.484106,0.551305 -0.52627,1.052361 -0.158519,1.88374 0.43156,0.975606 1.231043,1.504861 2.274594,1.505771 1.475772,0.0013 2.810052,-1.937104 2.164151,-3.143984 -0.231314,-0.432222 -1.117548,-0.519428 -1.60032,-0.15747 -0.161479,0.121076 0.108303,-0.136488 0.599545,-0.572367 1.856335,-1.6471592 3.078799,-3.0048581 3.496091,-3.8828754 l 0.431682,-0.908248 0.101467,0.8564885 c 0.144077,1.2164948 0.717181,2.6424361 1.625661,4.0448219 0.902933,1.39383 0.962194,1.594586 0.352809,1.195304 -0.589336,-0.386148 -1.247632,-0.199256 -1.583089,0.449442 -0.336802,0.651307 -0.334858,0.887092 0.01455,1.760375 0.541565,1.35349 2.217949,1.85875 3.512498,1.058668 1.529588,-0.945336 1.744325,-2.807139 0.324802,-2.816038 -0.472941,-0.003 -0.446664,-0.03756 0.371637,-0.489209 1.237924,-0.683253 2.336899,-1.465034 3.243363,-2.307224 0.777328,-0.7222163 1.014638,-0.8821116 0.80447,-0.5420473 -0.201048,0.3253086 -0.0976,2.6989133 0.172482,3.9580633 0.333361,1.554049 0.333026,1.664508 -0.0031,1.183919 -0.543905,-0.776539 -1.609031,-0.301612 -2.003374,0.893286 -0.258336,0.782744 0.07043,1.804795 0.740405,2.302033 0.45681,0.339016 0.535621,0.345752 1.227044,0.104879 1.186325,-0.413289 2.029885,-2.037064 1.234666,-2.376619 -0.253135,-0.108092 -0.21381,-0.156814 0.220152,-0.272735 0.290576,-0.07762 0.96421,-0.301672 1.496951,-0.497887 0.99241,-0.365513 2.043522,-0.448684 3.217777,-0.254611 l 0.664138,0.10976 -1.205091,0.599576 c -1.85426,0.922561 -3.226113,2.403588 -4.417069,4.768598 -0.304855,0.605388 -0.572962,1.094836 -0.595778,1.087663 -0.0228,-0.0072 -0.768576,-0.393449 -1.657241,-0.858394 z m -26.600763,-2.16651 c 0.113841,-0.317481 -0.193956,-0.836534 -0.496063,-0.836534 -0.310993,0 -0.341371,0.550605 -0.04661,0.845341 0.270792,0.270797 0.443447,0.267994 0.542705,-0.0088 z m 24.156088,-0.468416 c 0.170193,-0.275383 -0.100959,-0.720344 -0.438898,-0.720344 -0.388276,0 -0.587361,0.274621 -0.452972,0.624828 0.108148,0.28185 0.735204,0.349005 0.89187,0.09552 z M 34.410023,12.337646 c 0.172431,-0.27899 -0.102859,-0.720344 -0.449299,-0.720344 -0.376115,0 -0.44015,0.351123 -0.122044,0.669229 0.252372,0.25237 0.436771,0.268866 0.571343,0.05111 z m 13.48245,-0.651128 c 0,-0.306202 -0.0978,-0.42144 -0.357756,-0.42144 -0.437769,0 -0.637209,0.442455 -0.353522,0.784281 0.293121,0.353192 0.711278,0.139881 0.711278,-0.362841 z m -7.220617,-0.250855 c 0,-0.415378 -0.465745,-0.655856 -0.739683,-0.38192 -0.273927,0.273934 -0.03348,0.739673 0.381927,0.739673 0.242184,0 0.357756,-0.115567 0.357756,-0.357753 z M 56.31286,8.810507 c 0.04397,-0.132085 -0.02208,-0.198127 -0.154102,-0.1541 -0.127123,0.04238 -0.265816,0.181066 -0.308194,0.308198 -0.04407,0.132084 0.02198,0.198127 0.154103,0.154098 0.127131,-0.04238 0.265816,-0.181065 0.308193,-0.308196 z M 48.420807,6.862259 c 0,-0.193724 -0.07928,-0.352225 -0.176104,-0.352225 -0.09689,0 -0.176125,0.158501 -0.176125,0.352225 0,0.193725 0.07928,0.352226 0.176125,0.352226 0.09689,0 0.176104,-0.158501 0.176104,-0.352226 z M 40.143511,6.598091 c 0,-0.145293 -0.118879,-0.264169 -0.264168,-0.264169 -0.145288,0 -0.264167,0.118876 -0.264167,0.264169 0,0.145293 0.118879,0.264168 0.264167,0.264168 0.145289,0 0.264168,-0.118875 0.264168,-0.264168 z"
           id="path1-6" /><path
           style="fill:#5a2d81;fill-opacity:1;stroke-width:0.665622"
           d="m 33.715395,73.570657 c -3.397811,-2.703384 -6.991328,-6.784898 -8.261767,-9.383709 -0.924447,-1.891045 -1.192604,-2.850143 -1.292534,-4.62296 -0.05047,-0.895973 -0.147792,-1.629044 -0.216171,-1.629044 -0.177754,0 -1.382621,2.619767 -1.51869,3.302114 -0.0628,0.314802 -0.174791,0.572367 -0.248942,0.572367 -0.30344,0 -0.934269,-2.969286 -1.014301,-4.774299 -0.07144,-1.611092 -0.01984,-2.112912 0.374396,-3.643398 0.251485,-0.976226 0.825159,-2.567636 1.274834,-3.536468 l 0.817579,-1.761512 -0.672056,-0.847093 c -0.996034,-1.255452 -1.003127,-1.260335 -0.917395,-0.631224 0.06076,0.445613 0.02901,0.527926 -0.14709,0.381777 -0.406341,-0.337234 -1.122148,-1.976264 -1.122148,-2.569465 0,-0.653802 0.01303,-0.644995 -0.604927,-0.410062 -0.248454,0.09447 -0.451192,0.153903 -0.45052,0.132083 6.72e-4,-0.02182 0.19881,-0.621826 0.440282,-1.333354 0.517383,-1.524478 0.506249,-1.436061 0.180827,-1.436061 -0.205181,0 -0.180969,-0.130947 0.117891,-0.637471 0.298108,-0.505254 0.333779,-0.697026 0.172014,-0.924593 -0.757636,-1.065809 -0.988187,-1.769694 -1.132366,-3.457146 -0.08274,-0.96862 -0.144231,-2.256444 -0.136618,-2.861832 0.01104,-0.875542 -0.04111,-1.100705 -0.254977,-1.100705 -0.185264,0 -0.268839,-0.175912 -0.268839,-0.565839 0,-0.455768 0.183961,-0.739803 0.945729,-1.460159 1.082314,-1.023477 3.600406,-2.762259 4.613008,-3.18535 0.928631,-0.38801 2.122507,-1.226577 2.261333,-1.588341 0.06565,-0.171074 -0.01395,-0.436562 -0.188775,-0.629756 -0.288593,-0.318891 -0.274416,-0.361847 0.313343,-0.949605 0.338582,-0.338582 1.27968,-1.147643 2.091334,-1.797912 1.484474,-1.189314 1.84452,-1.62259 1.348365,-1.62259 -0.333645,0 -0.525973,-0.287769 -0.365673,-0.547139 0.08722,-0.141051 0.155119,-0.138845 0.245858,0.008 0.08264,0.133778 0.360158,-0.02941 0.814525,-0.479007 0.873421,-0.86427 2.760348,-1.65369 5.184351,-2.168934 2.613676,-0.55556 6.617808,-0.554026 9.647502,0.0036 1.31698,0.242438 2.353243,0.347946 2.641682,0.268968 0.463954,-0.127034 0.458224,-0.134957 -0.254753,-0.352178 -2.755187,-0.839422 -7.708681,-1.163594 -10.805992,-0.707175 -2.445234,0.360327 -5.030423,1.185682 -6.218875,1.985458 -0.481235,0.323843 -0.904531,0.559239 -0.94067,0.523102 -0.03613,-0.03614 0.05424,-0.352705 0.200774,-0.703484 0.450703,-1.078675 0.243924,-1.846385 -0.361878,-1.343606 -0.504337,0.418561 -0.484644,-0.01993 0.02483,-0.552498 0.700267,-0.73204 2.796293,-1.69798 4.772067,-2.199177 4.860791,-1.233039 11.044239,-0.968873 16.875437,0.720944 3.04212,0.881571 6.544268,2.45244 6.483102,2.907963 -0.01903,0.14166 -0.276582,0.917128 -0.57236,1.72326 -0.634817,1.730147 -0.709792,2.506506 -0.100341,1.039353 0.232383,-0.559465 0.670721,-1.451034 0.974101,-1.981268 0.547783,-0.95743 0.557391,-0.964061 1.396635,-0.964061 1.936897,0 5.52786,1.243814 7.790984,2.698594 1.256954,0.807994 1.389165,1.006528 0.538746,0.809035 -1.663917,-0.386421 -5.74451,-0.06026 -7.791737,0.622793 -0.733179,0.244624 -0.746369,0.25904 -0.176116,0.192569 4.404348,-0.513385 4.301437,-0.510349 6.782606,-0.200038 1.328357,0.166132 2.881709,0.447256 3.451902,0.624719 0.570183,0.177464 1.031756,0.271534 1.02569,0.209045 -0.02086,-0.215872 -2.455757,-2.214572 -3.641949,-2.98959 -2.110722,-1.379088 -5.156202,-2.588564 -7.398107,-2.938075 -0.411664,-0.06418 -0.748485,-0.146117 -0.748485,-0.182087 0,-0.285305 1.023389,-1.66477 1.235052,-1.66477 0.553249,0 2.860205,0.726147 4.35679,1.371361 3.170566,1.366904 5.930374,3.530026 7.995198,6.266588 0.963303,1.276688 2.012279,3.062243 1.87792,3.196597 -0.03114,0.03115 -0.698607,-0.129295 -1.483232,-0.356556 -1.645547,-0.476618 -3.637614,-0.712221 -4.559569,-0.539264 l -0.638328,0.119752 1.550177,0.973229 c 5.324786,3.343003 8.592573,7.778484 9.480038,12.867593 0.144546,0.828888 0.262814,1.782017 0.262814,2.118065 v 0.610997 l -0.943235,-0.854159 c -0.518778,-0.469813 -1.204726,-1.004651 -1.524328,-1.18853 l -0.581092,-0.334323 0.122278,0.42238 c 1.325344,4.57787 0.874661,9.498958 -1.208023,13.19055 -1.262918,2.238541 -3.410166,4.69945 -5.258827,6.027005 l -0.49954,0.358724 0.394322,-0.771317 c 0.216875,-0.424224 0.500154,-1.16757 0.629525,-1.65188 0.285642,-1.069302 0.309507,-3.614883 0.04284,-4.575195 l -0.194535,-0.700716 -0.473663,1.405166 c -1.471081,4.364032 -4.906394,8.292895 -10.494563,12.002294 -1.256995,0.834384 -3.786434,2.236402 -3.786434,2.098744 0,-0.05333 0.266824,-0.514577 0.592929,-1.024983 0.785774,-1.229838 1.995212,-3.650667 2.519607,-5.043296 l 0.422249,-1.121368 -0.490568,0.120414 c -1.055091,0.258982 -3.769275,1.422314 -5.99567,2.56983 -3.714817,1.914659 -6.395264,3.977759 -7.96035,6.126955 -0.430309,0.590913 -0.79867,1.057287 -0.818566,1.036386 -0.09719,-0.102141 0.318086,-3.337196 0.547498,-4.264707 0.143741,-0.581172 0.572249,-1.674475 0.952241,-2.429561 l 0.690894,-1.372884 -1.173929,0.640663 c -2.312056,1.261782 -4.721456,2.996474 -6.2163,4.475531 -2.509187,2.482702 -3.674791,4.649073 -3.71668,6.907751 -0.01221,0.660291 -0.02778,1.198273 -0.0344,1.195513 -0.0072,-0.003 -0.725424,-0.572504 -1.597175,-1.266094 z M 32.791853,69.22878 c 0.15749,-1.174164 1.11483,-2.894938 2.357007,-4.236604 1.569413,-1.695114 4.032924,-3.296932 8.60496,-5.595115 2.034108,-1.022463 4.371994,-2.295036 5.195332,-2.827942 2.830132,-1.831828 4.795982,-4.28617 5.343216,-6.670916 l 0.237055,-1.033065 0.579811,1.142851 c 0.318899,0.628568 0.679902,1.421076 0.80223,1.761128 l 0.222421,0.618278 0.63549,-1.355832 c 1.085581,-2.316088 1.424072,-4.033191 1.416531,-7.185635 -0.0051,-2.286757 -0.07103,-2.958388 -0.404144,-4.13865 -0.898924,-3.185315 -2.408269,-5.249282 -4.829566,-6.604244 l -1.2733,-0.712541 1.320847,0.101887 c 0.726462,0.05604 1.796351,0.03687 2.377515,-0.04258 L 56.433937,32.305334 55.03836,31.550197 C 53.328147,30.62481 51.835675,29.453464 50.321046,27.847878 48.976569,26.422665 48.459918,25.68943 47.198842,23.416859 45.35705,20.097765 43.489927,18.83793 40.412716,18.83793 c -3.12712,0 -6.82365,1.857893 -9.515017,4.782299 l -1.028437,1.117475 0.49078,-0.880562 c 0.269929,-0.48431 0.974764,-1.51457 1.566319,-2.289467 0.888074,-1.163328 0.984248,-1.350156 0.551731,-1.07187 -0.84413,0.543125 -4.599167,3.425084 -4.838604,3.713593 -0.316467,0.381315 0.03755,0.342006 0.904877,-0.100474 l 0.714718,-0.364619 -0.325474,0.553241 c -0.704714,1.197864 -2.244683,2.563707 -3.84773,3.412674 -1.603566,0.849238 -4.860547,2.964162 -5.206202,3.380657 -0.140321,0.169072 -0.09017,0.278847 0.197813,0.43297 0.295919,0.158371 0.707715,0.156392 1.767691,-0.0085 1.271834,-0.197851 1.437681,-0.187376 2.082217,0.131515 l 0.700307,0.346487 0.917649,-0.501818 c 0.504704,-0.275999 0.944609,-0.501817 0.977563,-0.501817 0.03297,0 0.05995,0.16633 0.05995,0.369624 0,0.50853 -0.881521,1.286266 -2.406662,2.123311 -1.486977,0.816103 -2.172273,1.536755 -2.172273,2.284366 0,1.174927 0.79644,1.955333 3.258384,3.192803 1.662991,0.835888 2.93344,1.190212 4.214351,1.175377 1.623117,-0.01879 1.863164,-0.193942 0.788797,-0.575522 -0.49358,-0.175305 -0.869837,-0.346322 -0.836121,-0.380039 0.03369,-0.03371 0.600817,0.06779 1.260231,0.225562 0.999617,0.239172 1.223411,0.247264 1.346147,0.04867 0.08305,-0.134318 0.275026,-0.18914 0.440313,-0.125713 0.399167,0.153175 0.208397,0.399697 -0.665766,0.860332 -0.680126,0.358391 -0.702811,0.392388 -0.296246,0.443966 0.667344,0.08466 1.937244,0.580457 1.937244,0.756343 0,0.531646 -1.989422,2.104914 -2.661691,2.104914 -0.115571,0 -0.632629,-0.399573 -1.149005,-0.887943 -0.893042,-0.844599 -2.883837,-1.93541 -3.977601,-2.179436 -0.40449,-0.09024 -0.462142,-0.05839 -0.368056,0.20337 0.09322,0.259198 0.04163,0.248098 -0.312885,-0.06734 -0.83151,-0.739929 -1.741374,-1.111969 -2.249089,-0.919646 -0.583169,0.220908 -1.217905,0.805023 -1.533203,1.410937 -0.292499,0.562112 -0.612519,1.911076 -0.453898,1.913298 0.06239,8.99e-4 0.327978,-0.256692 0.590273,-0.572366 l 0.476899,-0.573954 -0.256759,0.864525 c -0.307246,1.03448 -0.316183,1.379959 -0.05964,2.304127 l 0.195187,0.703075 0.394241,-1.366867 c 0.216833,-0.751778 0.429748,-1.402368 0.473133,-1.445758 0.04335,-0.0434 0.08732,0.469869 0.0977,1.140574 0.01425,0.928241 0.132425,1.463096 0.494628,2.239641 l 0.47583,1.020178 0.29596,-1.445215 c 0.162783,-0.794867 0.341005,-1.49025 0.396053,-1.545296 0.05506,-0.05505 0.145014,0.278297 0.199939,0.740762 0.05496,0.462464 0.339071,1.435227 0.631439,2.161691 l 0.531571,1.320845 0.275138,-0.657082 c 0.151323,-0.361395 0.343356,-1.074651 0.426736,-1.585014 l 0.151598,-0.927932 0.323277,0.770994 0.323276,0.770995 0.215205,-0.594882 c 0.11837,-0.327185 0.221249,-0.947547 0.228618,-1.378583 0.02025,-1.184982 0.365043,-0.648253 0.517018,0.804844 l 0.126725,1.211646 0.477337,-0.918735 c 0.262528,-0.505308 0.478537,-1.060063 0.480024,-1.23279 0.002,-0.267181 0.02819,-0.274627 0.173417,-0.04989 0.09394,0.145293 0.171933,0.499089 0.173418,0.786216 0.002,0.458759 0.03399,0.490736 0.260982,0.263762 0.142052,-0.142056 0.368075,-0.575104 0.502261,-0.962329 0.220589,-0.636517 0.256066,-0.666038 0.369979,-0.30779 0.0693,0.217939 0.196143,0.396253 0.281875,0.396253 0.366376,0 2.959473,-2.786099 3.340656,-3.589298 l 0.407919,-0.859551 -0.423113,-0.323369 c -1.035542,-0.79144 -4.300134,-2.068698 -6.675105,-2.611605 -0.709547,-0.1622 -0.645025,-0.172889 0.616397,-0.102119 2.382858,0.133692 4.705396,0.92408 5.964874,2.029913 l 0.603228,0.529644 0.182872,-0.524582 c 0.165552,-0.474887 0.131662,-0.567666 -0.357684,-0.979424 -1.162032,-0.977789 -3.108434,-1.726291 -5.493512,-2.112568 -0.861186,-0.139476 -1.614068,-0.305568 -1.673065,-0.369095 -0.05903,-0.06353 0.764484,-0.07409 1.829966,-0.02346 2.291366,0.108854 3.513382,0.504309 4.868566,1.575515 l 0.905294,0.715595 -0.125443,-0.508245 c -0.272812,-1.105365 -1.109523,-2.673765 -1.967565,-3.688145 -1.144274,-1.352784 -1.305346,-1.662357 -1.294559,-2.488154 l 0.0092,-0.672001 0.366905,0.756787 c 0.201802,0.416233 0.829577,1.15921 1.395068,1.65106 1.383944,1.20371 1.821326,2.127967 1.824054,3.854421 l 0.002,1.331114 1.419635,-0.0745 c 1.188321,-0.06237 1.569118,-0.01016 2.337092,0.320167 1.002375,0.431209 1.76007,1.184347 2.350515,2.336368 0.445331,0.868887 0.571079,0.674322 0.468819,-0.725349 -0.09882,-1.352768 -0.718727,-2.512313 -1.95492,-3.656809 L 38.891,35.744756 h 0.950663 c 1.273635,0 2.491815,0.389146 3.332139,1.064446 0.380471,0.305759 0.731357,0.516345 0.779729,0.467967 0.129462,-0.12946 -0.274477,-1.523696 -0.647783,-2.235875 -0.177987,-0.339561 -0.605599,-0.918984 -0.950247,-1.287607 -0.344638,-0.368623 -0.626625,-0.715252 -0.626625,-0.770287 0,-0.131918 1.750147,0.03527 2.201411,0.210299 0.485742,0.188399 -1.071752,-1.420801 -1.833396,-1.894265 -0.535938,-0.333151 -0.564383,-0.387562 -0.264167,-0.505274 0.185039,-0.07255 0.838044,-0.137486 1.451133,-0.144294 l 1.114699,-0.01238 -0.124792,-0.572367 c -0.211509,-0.969726 -0.881182,-2.319578 -1.501131,-3.025663 l -0.591148,-0.673281 0.61019,0.130897 0.610189,0.130899 -0.359181,-0.416795 c -0.197538,-0.229241 -0.699728,-0.798931 -1.115972,-1.265981 -0.416243,-0.467049 -0.942623,-1.269344 -1.169736,-1.782876 -0.227102,-0.513532 -0.636293,-1.112361 -0.909304,-1.330732 l -0.496378,-0.397039 0.92459,0.08474 c 0.50852,0.04661 0.924051,0.03694 0.923389,-0.0215 -0.0031,-0.237396 -1.197133,-0.889998 -1.989859,-1.087187 -0.466885,-0.116139 -1.256454,-0.163929 -1.761128,-0.106602 -0.841707,0.09563 -0.88666,0.08278 -0.562569,-0.160746 0.193721,-0.145566 0.89474,-0.429587 1.55782,-0.631156 2.046687,-0.622174 3.681212,-0.22003 5.347134,1.315568 0.750917,0.692169 1.812624,2.062618 1.812624,2.339731 0,0.07006 -0.291727,-0.173008 -0.648282,-0.540137 -0.664565,-0.684284 -2.096098,-1.67599 -2.419302,-1.67599 -0.09943,0 -0.0082,0.120713 0.202158,0.268251 0.210645,0.147539 1.682358,1.791991 3.270485,3.654338 2.921258,3.425699 4.685012,5.22148 5.951472,6.059586 0.382323,0.253011 0.667282,0.487877 0.633229,0.521924 -0.116558,0.116563 -2.63695,-0.813734 -3.372612,-1.244862 -0.81827,-0.479541 -2.107548,-1.673224 -3.248045,-3.007236 -0.83901,-0.981378 -0.722687,-0.643021 0.312346,0.908507 1.143632,1.714323 2.050209,2.609016 3.962956,3.910998 3.985783,2.713083 5.786918,5.667115 6.457181,10.590356 0.201477,1.479818 0.119267,4.174593 -0.158844,5.207128 -0.106271,0.394545 -0.165316,0.121153 -0.25001,-1.157601 -0.228803,-3.45422 -1.297012,-5.568989 -4.447295,-8.804441 -1.183985,-1.215997 -2.399935,-2.600753 -2.702114,-3.077234 -0.694414,-1.094973 -0.700724,-0.779998 -0.01689,0.843913 0.541717,1.286474 1.255814,2.336594 2.98976,4.39661 1.75437,2.084289 2.80305,4.268871 3.061712,6.378048 l 0.107993,0.880563 -0.464229,-0.792507 c -0.619495,-1.057576 -1.762833,-2.240938 -2.566376,-2.656225 -0.359374,-0.18573 -0.682681,-0.337692 -0.718454,-0.337692 -0.03572,0 0.160432,0.455693 0.436029,1.012648 1.497348,3.026095 0.68383,6.556846 -2.169668,9.416503 -1.215615,1.218241 -3.033063,2.33762 -7.224607,4.449679 -4.36025,2.197074 -6.330731,3.439671 -7.853532,4.952485 -0.605386,0.601417 -1.100705,1.058565 -1.100705,1.015882 0,-0.258677 0.966601,-1.906578 1.65724,-2.825328 1.289358,-1.715225 3.235893,-3.41822 7.148391,-6.253997 2.081228,-1.50847 3.9333,-3.100719 4.674743,-4.018912 l 0.497731,-0.616395 -0.69303,0.63942 c -1.278896,1.17998 -3.567281,2.752092 -6.160113,4.231977 -4.621271,2.63763 -6.498999,4.342302 -7.825483,7.104269 -0.725221,1.510037 -1.060608,2.796584 -1.060608,4.068523 0,0.933628 0.495004,3.240154 0.695382,3.240154 0.07632,0 0.179961,-0.306823 0.230257,-0.681828 z m 0.13104,-31.01846 -0.440282,-0.344393 0.54301,-0.0039 c 0.628181,-0.0045 0.791463,0.107883 0.658805,0.453583 -0.123977,0.323077 -0.23323,0.307975 -0.761533,-0.105277 z m -7.220618,-1.232788 c 0,-0.09686 0.07928,-0.176112 0.176105,-0.176112 0.09689,0 0.176115,0.07925 0.176115,0.176112 0,0.09686 -0.07928,0.176113 -0.176115,0.176113 -0.09688,0 -0.176105,-0.07925 -0.176105,-0.176113 z m 7.702382,-0.281387 c -0.05791,-0.0579 -0.06625,-0.206942 -0.01852,-0.331202 0.214106,-0.55795 -2.361669,-1.500763 -4.100102,-1.500763 -1.096533,0 -1.383039,-0.262327 -0.454205,-0.415867 2.226731,-0.368093 4.160891,0.262676 5.175751,1.687918 0.320285,0.4498 0.338115,0.532071 0.09505,0.438805 -0.164523,-0.06314 -0.299126,-0.03802 -0.299126,0.0558 0,0.189661 -0.235824,0.228283 -0.3988,0.0653 z m 3.265865,-1.982884 c -0.305385,-0.491248 -0.874264,-1.113949 -1.26419,-1.383779 -0.389916,-0.269828 -0.71195,-0.54295 -0.715634,-0.606938 -0.0041,-0.06398 0.693356,-0.558045 1.548945,-1.097908 2.303792,-1.45364 3.18228,-2.429423 3.821983,-4.245246 0.221992,-0.630147 0.593559,0.566955 0.601304,1.937241 0.0114,2.010126 -0.193578,2.467474 -1.775478,3.962535 -0.82283,0.777665 -1.451877,1.527786 -1.52963,1.82406 l -0.132068,0.503215 z m -9.911578,-0.0252 c 0,-0.09686 0.07928,-0.176113 0.176115,-0.176113 0.09689,0 0.176115,0.07925 0.176115,0.176113 0,0.09686 -0.07928,0.176112 -0.176115,0.176112 -0.09689,0 -0.176115,-0.07925 -0.176115,-0.176112 z m 2.289473,-4.557023 c 0,-0.283169 1.486734,-0.903358 2.124919,-0.886407 0.563547,0.01497 0.538725,0.03692 -0.3638,0.321721 -0.532742,0.168111 -1.14693,0.401423 -1.364874,0.51847 -0.217932,0.117048 -0.396245,0.137845 -0.396245,0.04621 z m -2.993922,-1.078583 c 0.145298,-0.09389 0.581174,-0.162556 0.968616,-0.152579 0.6786,0.01747 0.685062,0.02307 0.176115,0.152579 -0.290586,0.07394 -0.726462,0.142602 -0.968616,0.15258 -0.345604,0.01423 -0.383474,-0.01857 -0.176115,-0.15258 z m 8.981745,-0.679444 c 0,-0.06252 0.35166,-0.300219 0.78145,-0.528225 0.672808,-0.356921 1.684128,-1.461694 1.684128,-1.839741 0,-0.268035 -0.488735,-0.09942 -0.861288,0.29715 -0.216895,0.230873 -0.844904,0.557475 -1.395578,0.725786 -0.550662,0.168309 -1.36478,0.534168 -1.809143,0.813019 -0.730971,0.458713 -0.949045,0.505691 -2.289462,0.493204 l -1.481544,-0.0138 1.355215,-0.47051 c 1.51587,-0.526292 2.239147,-1.113056 2.773639,-2.250142 0.613893,-1.305994 1.771814,-1.542037 3.313442,-0.675445 l 0.887363,0.498813 0.660636,-0.503892 0.660637,-0.503892 -0.124568,0.513405 c -0.1954,0.805366 -1.217467,2.232006 -1.971417,2.751784 -0.65162,0.449234 -2.18351,0.93506 -2.18351,0.692485 z m 1.021457,-2.173581 c 0.314951,-0.314948 0.256096,-0.631287 -0.140892,-0.757284 -0.570447,-0.181056 -1.102954,0.06815 -0.998578,0.467324 0.07439,0.284702 0.04559,0.308227 -0.164269,0.134039 -0.140006,-0.1162 -0.309791,-0.156046 -0.377296,-0.08854 -0.191838,0.191846 0.339743,0.450128 0.93256,0.453105 0.29543,0.0015 0.632243,-0.09241 0.748475,-0.208638 z m -4.339509,-0.493432 c 0.248149,-0.33565 0.439722,-0.900002 0.496246,-1.461946 l 0.0921,-0.915259 0.594536,0.856466 c 0.662845,0.954863 0.698618,0.876135 -0.738562,1.625199 l -0.848476,0.442228 z m 2.525551,-2.256893 c 0.09689,-0.100893 0.413863,-0.233679 0.704449,-0.295079 0.364881,-0.0771 0.446603,-0.0603 0.264168,0.05429 -0.428354,0.269052 -1.173615,0.454315 -0.968617,0.240787 z m -4.30509,43.657286 c -0.667323,-0.937166 -1.939156,-3.80365 -2.322538,-5.234594 -0.475953,-1.776427 -0.510158,-4.429596 -0.07786,-6.040022 0.370629,-1.380713 1.116185,-3.057462 2.042414,-4.593385 0.742684,-1.231565 1.46305,-2.891144 1.665015,-3.835876 l 0.124435,-0.582056 -0.852658,0.918985 c -0.811432,0.874559 -3.572654,3.043331 -3.705516,2.910465 -0.03461,-0.03457 0.01669,-0.271971 0.113831,-0.527561 0.267689,-0.704087 -0.04376,-0.571332 -1.083546,0.461845 -1.321366,1.312978 -2.683469,3.776163 -3.042285,5.501564 l -0.10987,0.528337 0.296021,-0.528337 c 0.768647,-1.371894 2.136542,-2.664506 3.992266,-3.772573 l 0.659701,-0.39391 -0.631154,1.466846 c -2.069729,4.810204 -1.315544,9.132092 2.354932,13.495027 0.826157,0.982019 1.227197,1.138624 0.576808,0.225245 z m 0.782833,-5.702358 c 0,-2.148827 0.0051,-2.177432 0.660882,-3.503719 0.826677,-1.672674 1.747603,-2.700863 4.435794,-4.952479 2.838447,-2.377469 4.026573,-3.628059 4.669847,-4.915365 0.635164,-1.27108 0.710363,-2.556737 0.228741,-3.910666 -0.311032,-0.874392 -1.696554,-2.577443 -2.401899,-2.952356 -0.239834,-0.127484 -0.131152,0.07012 0.304794,0.554171 0.911971,1.012605 1.172434,1.710748 1.167467,3.129295 -0.0082,2.457788 -1.141047,4.172844 -4.750328,7.194243 -3.353164,2.806999 -4.286038,4.011001 -4.869156,6.284291 -0.33901,1.321603 -0.246295,3.375407 0.202698,4.490621 0.165744,0.411662 0.312559,0.748478 0.326258,0.748478 0.01374,0 0.02493,-0.974932 0.02493,-2.166514 z m 34.22415,-3.014425 c 0.695026,-0.918863 1.592728,-2.83815 2.00085,-4.277814 0.590823,-2.08416 0.551864,-5.423447 -0.0859,-7.360013 -0.666601,-2.024177 -2.285117,-4.402172 -3.664991,-5.384723 -0.50283,-0.358047 -0.489335,-0.316927 0.265419,0.808456 3.187867,4.753296 3.355077,11.046071 0.441646,16.621282 -0.475485,0.909901 -0.864515,1.693753 -0.864515,1.741895 0,0.108667 1.351357,-1.413865 1.907465,-2.149083 z m -10.360875,0.216977 c 0.145287,-0.07772 1.215176,-0.560198 2.377514,-1.07219 3.61501,-1.592345 4.805458,-2.591064 5.937131,-4.980885 0.534533,-1.128786 0.579048,-1.358195 0.579048,-2.983924 0,-1.6235 -0.04499,-1.856079 -0.575425,-2.976185 -0.646622,-1.365422 -0.891239,-1.477053 -0.459393,-0.209645 0.427926,1.255911 0.271728,3.411913 -0.344648,4.757002 -0.96877,2.114103 -2.210722,3.340832 -5.33192,5.266601 -1.765281,1.089175 -3.100212,2.131643 -3.547598,2.770386 l -0.290424,0.414632 0.695768,-0.422247 c 0.38268,-0.232236 0.814658,-0.485832 0.959947,-0.563545 z M 40.583793,51.89159 c 4.31316,-2.860755 5.941833,-4.312791 6.796212,-6.059104 0.319479,-0.653007 0.412274,-1.13809 0.413688,-2.162672 0.002,-1.526367 -0.469928,-2.643656 -1.558573,-3.688886 -0.687687,-0.660273 -0.821118,-0.599634 -0.306819,0.139446 1.515433,2.177823 0.660494,5.669733 -2.071692,8.461577 -0.999077,1.020894 -3.617505,3.203919 -5.181971,4.320298 -0.645045,0.460298 -1.17282,0.874254 -1.17282,0.919899 0,0.111587 0.05455,0.07744 3.081975,-1.930558 z m 34.350356,-2.586169 c 0.405476,-1.985992 0.410077,-5.170065 0.01016,-6.662457 -0.932599,-3.475503 -3.109716,-6.042004 -6.700099,-7.898443 -0.877358,-0.453647 -2.868693,-1.350355 -4.42519,-1.992684 -3.089465,-1.274951 -4.87109,-2.203368 -5.809694,-3.027471 -0.741035,-0.650641 -0.766315,-0.527756 -0.09281,0.45117 1.010323,1.468441 2.360866,2.47731 5.562462,4.15522 4.933313,2.585475 8.232182,5.349546 9.479416,7.942657 0.675068,1.403532 1.173757,3.208133 1.164557,4.214204 l -0.0051,0.616395 -0.316437,-0.808782 c -0.638776,-1.63268 -1.847776,-3.024299 -3.402482,-3.916449 -1.275894,-0.732148 -1.699383,-0.726278 -0.579362,0.0081 2.643341,1.733042 4.490863,4.971296 4.490863,7.871394 0,1.233972 0.258916,0.83912 0.624772,-0.952786 z M 21.515524,37.364126 c 0.198862,-0.457034 0.282548,-0.911678 0.210728,-1.144732 -0.101059,-0.327821 -1.048263,-1.777847 -1.508959,-2.309943 -0.120711,-0.139408 -0.152576,0.463693 -0.164026,3.103977 -0.001,0.2619 0.171679,0.816653 0.384024,1.232789 0.384328,0.753186 0.386903,0.754617 0.567222,0.316329 0.09963,-0.242155 0.329585,-0.781444 0.511011,-1.19842 z m 54.995324,-1.89288 c -1.168333,-2.215176 -1.721947,-2.971345 -3.421127,-4.672862 -2.206254,-2.209278 -4.759864,-3.824826 -7.850143,-4.9664 -1.379985,-0.509776 -3.3817,-1.095851 -4.314769,-1.263304 l -0.616386,-0.110619 0.70445,0.452065 c 0.387442,0.248634 2.249832,1.239289 4.138642,2.201453 4.491057,2.287754 5.755002,3.143006 7.9936,5.408884 1.023034,1.0355 1.836327,1.906475 1.807302,1.935497 -0.02901,0.02902 -0.958267,-0.4142 -2.065007,-0.984938 -1.939024,-0.999954 -5.127645,-2.147314 -6.591164,-2.371699 -0.401629,-0.06158 0.128294,0.190431 1.232795,0.586252 2.779287,0.996024 6.263582,2.801718 8.101182,4.198347 0.87176,0.66256 1.609682,1.188023 1.639836,1.167695 0.03012,-0.02034 -0.3115,-0.731495 -0.759211,-1.580371 z m -54.51823,-1.855708 c -0.385743,-0.541723 -0.385926,-0.54577 -0.04,-0.891687 0.191116,-0.191121 0.657289,-0.457884 1.035928,-0.592809 l 0.68843,-0.245318 -0.842186,-0.0077 c -0.801081,-0.0073 -2.063673,0.371068 -2.063673,0.61852 0,0.06374 0.09903,0.07865 0.220141,0.03316 0.121076,-0.0455 0.418269,-0.143765 0.660423,-0.21836 0.426808,-0.131478 0.430848,-0.125053 0.132088,0.20984 -0.16951,0.190008 -0.308193,0.460286 -0.308193,0.600614 0,0.32975 0.495646,1.037968 0.726421,1.037968 0.098,0 0.0041,-0.244888 -0.209373,-0.544194 z m 30.500733,-6.324204 c 0.404458,0 1.904055,-1.659565 2.273474,-2.515988 0.774131,-1.794707 0.410881,-4.145992 -0.842756,-5.4551 -0.256138,-0.267462 -0.889225,-0.619803 -1.406884,-0.782978 -1.349068,-0.425259 -2.788019,-0.153435 -4.536975,0.857059 -1.414567,0.817292 -1.553251,1.099226 -0.759762,1.544599 0.431458,0.242172 0.55109,0.230408 1.451399,-0.142751 1.401774,-0.581 2.312797,-0.674398 2.746831,-0.281604 0.529474,0.479164 0.479036,2.049714 -0.09821,3.059598 -0.243252,0.425542 -0.410656,0.80533 -0.372012,0.843975 0.124506,0.124508 1.039916,-1.069984 1.305142,-1.70305 0.285234,-0.680811 0.197476,-2.156465 -0.15338,-2.579227 -0.316273,-0.381077 -0.122786,-0.42548 0.512764,-0.117674 1.043062,0.505167 1.355947,1.169653 1.351561,2.870322 -0.0041,1.722253 -0.308906,2.4758 -1.549638,3.835423 -0.429138,0.470256 -0.601478,0.756649 -0.413364,0.686943 0.177429,-0.06575 0.39876,-0.119547 0.49185,-0.119547 z m 1.002404,-10.434678 c 0.04813,-0.418353 -0.0072,-0.48431 -0.401792,-0.48431 -0.487209,0 -0.728498,0.350472 -0.554134,0.80486 0.182516,0.475648 0.891667,0.237849 0.955926,-0.32055 z m -18.559647,-0.71787 c 0.438695,-0.32078 0.219582,-1.042144 -0.293263,-0.965467 -0.523643,0.07829 -0.790314,0.569587 -0.499411,0.920096 0.2816,0.339317 0.382761,0.345107 0.792674,0.04537 z m 12.676393,-0.581269 c 0.123346,-0.321436 -0.175281,-0.770184 -0.512529,-0.770184 -0.33726,0 -0.635887,0.448748 -0.51254,0.770184 0.06046,0.15757 0.291106,0.286491 0.51254,0.286491 0.221423,0 0.452056,-0.128921 0.512529,-0.286491 z m -6.793159,-0.220433 c 0.37065,-0.234936 0.179483,-0.981093 -0.267658,-1.04475 -0.538491,-0.07667 -0.863079,0.54327 -0.4833,0.92305 0.31436,0.314358 0.420009,0.331479 0.750958,0.1217 z m 16.112205,1.04439 c -3.024637,-1.582487 -8.109965,-2.964919 -12.437363,-3.381058 -4.94751,-0.475774 -11.053835,0.48328 -14.171471,2.225756 -0.869777,0.486126 -1.348558,0.42387 -1.165105,-0.1515 0.228658,-0.717174 0.07398,-1.535909 -0.516723,-2.734943 C 27.938298,10.913569 27.023976,9.771691 25.72607,8.69947 25.206416,8.270176 24.838341,7.918936 24.908135,7.918936 c 0.554226,0 2.492293,0.666566 3.391796,1.166549 0.893662,0.496731 1.100706,0.69466 1.100706,1.052225 0,1.17153 1.518058,2.888494 2.553874,2.888494 0.363566,0 0.835256,-1.126406 0.823654,-1.966916 -0.01364,-0.988969 -0.590996,-1.907563 -1.198935,-1.907563 -0.04519,0 -0.289264,0.217939 -0.542511,0.484309 -0.304164,0.319929 -0.421821,0.377335 -0.346663,0.169132 0.06259,-0.173347 0.248646,-0.970373 0.413485,-1.771167 0.270488,-1.314077 0.274355,-1.559754 0.03959,-2.5206191 L 30.883045,4.4487494 31.74586,5.3928049 c 0.474548,0.5192296 1.527889,1.3865811 2.340756,1.9274461 0.812865,0.540863 1.477939,1.031556 1.477939,1.090429 0,0.05888 -0.09505,0.01194 -0.211327,-0.104294 -0.271657,-0.271653 -0.89069,-0.271653 -1.162348,0 -0.665379,0.665381 0.186985,2.168509 1.630027,2.874524 0.963406,0.471349 0.970865,0.472069 1.52625,0.146833 C 38.603847,10.59181 39.11655,8.975834 38.386759,8.051024 37.93461,7.478055 37.45881,7.433588 36.973465,7.918938 36.366858,8.525545 36.586205,8.032233 37.527262,6.673481 38.616864,5.1002301 39.016345,4.2384262 39.183088,3.1013507 l 0.125382,-0.8550509 0.589763,1.1038134 c 0.351049,0.6570393 1.197225,1.7245916 2.090582,2.6375289 0.825444,0.8435429 1.500818,1.5993959 1.500818,1.6796719 0,0.08028 -0.09505,0.05086 -0.211338,-0.06538 -0.311246,-0.311246 -1.102873,-0.257003 -1.41361,0.09686 -0.484106,0.551305 -0.52627,1.052361 -0.158519,1.88374 0.43156,0.975606 1.231043,1.504861 2.274594,1.505771 1.475772,0.0013 2.810052,-1.937104 2.164151,-3.143984 -0.231314,-0.432222 -1.117548,-0.519428 -1.60032,-0.15747 -0.161479,0.121076 0.108303,-0.136488 0.599545,-0.572367 1.856335,-1.6471592 3.078799,-3.0048581 3.496091,-3.8828754 l 0.431682,-0.908248 0.101467,0.8564885 c 0.144077,1.2164948 0.717181,2.6424361 1.625661,4.0448219 0.902933,1.39383 0.962194,1.594586 0.352809,1.195304 -0.589336,-0.386148 -1.247632,-0.199256 -1.583089,0.449442 -0.336802,0.651307 -0.334858,0.887092 0.01455,1.760375 0.541565,1.35349 2.217949,1.85875 3.512498,1.058668 1.529588,-0.945336 1.744325,-2.807139 0.324802,-2.816038 -0.472941,-0.003 -0.446664,-0.03756 0.371637,-0.489209 1.237924,-0.683253 2.336899,-1.465034 3.243363,-2.307224 0.777328,-0.7222163 1.014638,-0.8821116 0.80447,-0.5420473 -0.201048,0.3253086 -0.0976,2.6989133 0.172482,3.9580633 0.333361,1.554049 0.333026,1.664508 -0.0031,1.183919 -0.543905,-0.776539 -1.609031,-0.301612 -2.003374,0.893286 -0.258336,0.782744 0.07043,1.804795 0.740405,2.302033 0.45681,0.339016 0.535621,0.345752 1.227044,0.104879 1.186325,-0.413289 2.029885,-2.037064 1.234666,-2.376619 -0.253135,-0.108092 -0.21381,-0.156814 0.220152,-0.272735 0.290576,-0.07762 0.96421,-0.301672 1.496951,-0.497887 0.99241,-0.365513 2.043522,-0.448684 3.217777,-0.254611 l 0.664138,0.10976 -1.205091,0.599576 c -1.85426,0.922561 -3.226113,2.403588 -4.417069,4.768598 -0.304855,0.605388 -0.572962,1.094836 -0.595778,1.087663 -0.0228,-0.0072 -0.768576,-0.393449 -1.657241,-0.858394 z m -26.600763,-2.16651 c 0.113841,-0.317481 -0.193956,-0.836534 -0.496063,-0.836534 -0.310993,0 -0.341371,0.550605 -0.04661,0.845341 0.270792,0.270797 0.443447,0.267994 0.542705,-0.0088 z m 24.156088,-0.468416 c 0.170193,-0.275383 -0.100959,-0.720344 -0.438898,-0.720344 -0.388276,0 -0.587361,0.274621 -0.452972,0.624828 0.108148,0.28185 0.735204,0.349005 0.89187,0.09552 z M 34.410023,12.337646 c 0.172431,-0.27899 -0.102859,-0.720344 -0.449299,-0.720344 -0.376115,0 -0.44015,0.351123 -0.122044,0.669229 0.252372,0.25237 0.436771,0.268866 0.571343,0.05111 z m 13.48245,-0.651128 c 0,-0.306202 -0.0978,-0.42144 -0.357756,-0.42144 -0.437769,0 -0.637209,0.442455 -0.353522,0.784281 0.293121,0.353192 0.711278,0.139881 0.711278,-0.362841 z m -7.220617,-0.250855 c 0,-0.415378 -0.465745,-0.655856 -0.739683,-0.38192 -0.273927,0.273934 -0.03348,0.739673 0.381927,0.739673 0.242184,0 0.357756,-0.115567 0.357756,-0.357753 z M 56.31286,8.810507 c 0.04397,-0.132085 -0.02208,-0.198127 -0.154102,-0.1541 -0.127123,0.04238 -0.265816,0.181066 -0.308194,0.308198 -0.04407,0.132084 0.02198,0.198127 0.154103,0.154098 0.127131,-0.04238 0.265816,-0.181065 0.308193,-0.308196 z M 48.420807,6.862259 c 0,-0.193724 -0.07928,-0.352225 -0.176104,-0.352225 -0.09689,0 -0.176125,0.158501 -0.176125,0.352225 0,0.193725 0.07928,0.352226 0.176125,0.352226 0.09689,0 0.176104,-0.158501 0.176104,-0.352226 z M 40.143511,6.598091 c 0,-0.145293 -0.118879,-0.264169 -0.264168,-0.264169 -0.145288,0 -0.264167,0.118876 -0.264167,0.264169 0,0.145293 0.118879,0.264168 0.264167,0.264168 0.145289,0 0.264168,-0.118875 0.264168,-0.264168 z"
           id="path1" /></g><text
         xml:space="preserve"
         style="font-size:9.8364px;line-height:1;font-family:'Ranked Sports';-inkscape-font-specification:'Ranked Sports';text-align:center;letter-spacing:0.654737px;word-spacing:0px;writing-mode:lr-tb;direction:ltr;text-anchor:middle;fill:#63727a;fill-opacity:1;stroke:none;stroke-width:4.79185;stroke-dasharray:none"
         x="52.569195"
         y="83.190498"
         id="text1"><tspan
           sodipodi:role="line"
           id="tspan1"
           x="52.896564"
           y="83.190498"
           style="font-style:normal;font-variant:normal;font-weight:normal;font-stretch:normal;font-family:Sportsball;-inkscape-font-specification:Sportsball;fill:#63727a;fill-opacity:1;stroke-width:4.79185">S<tspan
   style="font-size:7.02601px;fill:#63727a;fill-opacity:1;stroke-width:4.79185"
   id="tspan2">acrament</tspan>O</tspan></text><text
         xml:space="preserve"
         style="font-style:normal;font-variant:normal;font-weight:normal;font-stretch:normal;font-size:13.3625px;line-height:1;font-family:Sportsball;-inkscape-font-specification:Sportsball;text-align:center;letter-spacing:1.24521px;word-spacing:0px;writing-mode:lr-tb;direction:ltr;text-anchor:middle;fill:#5a2d81;fill-opacity:1;stroke:none;stroke-width:9.11344;stroke-dasharray:none"
         x="52.859871"
         y="99.002213"
         id="text3"><tspan
           sodipodi:role="line"
           id="tspan3"
           style="stroke-width:9.11342"
           x="53.482475"
           y="99.002213">ROYALS</tspan></text></g></g></svg>
