<?xml version="1.0" encoding="UTF-8" standalone="no"?>
<!-- Created with Inkscape (http://www.inkscape.org/) -->

<svg
   width="105.83334mm"
   height="105.83334mm"
   viewBox="0 0 105.83333 105.83333"
   version="1.1"
   id="svg1"
   xml:space="preserve"
   inkscape:version="1.4 (e7c3feb100, 2024-10-09)"
   sodipodi:docname="sacramento.svg"
   inkscape:export-filename="../pngs/NBL.png"
   inkscape:export-xdpi="96"
   inkscape:export-ydpi="96"
   xmlns:inkscape="http://www.inkscape.org/namespaces/inkscape"
   xmlns:sodipodi="http://sodipodi.sourceforge.net/DTD/sodipodi-0.dtd"
   xmlns="http://www.w3.org/2000/svg"
   xmlns:svg="http://www.w3.org/2000/svg"><sodipodi:namedview
     id="namedview1"
     pagecolor="#ffffff"
     bordercolor="#000000"
     borderopacity="0.25"
     inkscape:showpageshadow="2"
     inkscape:pageopacity="0.0"
     inkscape:pagecheckerboard="0"
     inkscape:deskcolor="#d1d1d1"
     inkscape:document-units="mm"
     inkscape:zoom="1.5147406"
     inkscape:cx="216.53873"
     inkscape:cy="225.78123"
     inkscape:window-width="1920"
     inkscape:window-height="1011"
     inkscape:window-x="0"
     inkscape:window-y="32"
     inkscape:window-maximized="1"
     inkscape:current-layer="layer1"
     showgrid="false" /><defs
     id="defs1" /><g
     inkscape:label="Capa 1"
     inkscape:groupmode="layer"
     id="layer1"><g
       id="g7"><g
         id="g6"
         transform="translate(-3.2024707e-4,6.9186526)"
         style="fill:#5a2d81;fill-opacity:1"><g
           id="path1-6"
           transform="translate(-44.113579,-11.703049)"
           style="fill:#5a2d81;fill-opacity:1"><path
             d="m 93.230297,100.54532 c -2.59673,-0.26552 -5.86141,-1.042213 -8.451493,-2.010683 -1.489256,-0.55685 -3.889716,-1.62982 -4.131491,-1.84671 -0.06885,-0.0618 1.24744,-2.28339 1.352887,-2.28339 0.05142,0 0.526216,0.21198 1.055056,0.47107 1.700041,0.83288 2.859057,1.26636 5.602921,2.09552 0.19051,0.0576 -0.30827,-0.33459 -1.10839,-0.87146 -4.930863,-3.30854 -8.171132,-7.87468 -9.510855,-13.40253 -0.250702,-1.03445 -0.349688,-4.48459 -0.151046,-5.26487 0.19298,-0.75802 -0.144408,-0.0333 -0.519687,1.11636 -1.208009,3.70063 -0.981671,8.23342 0.617358,12.36376 0.44571,1.15128 0.713295,1.51559 1.42447,1.93936 0.209554,0.12488 0.381008,0.26903 0.381008,0.32036 0,0.12526 -1.058004,1.9302 -1.235427,2.10763 -0.45665,0.45665 -5.863422,-4.11117 -8.25177,-6.97136 -0.9544,-1.14295 -2.705125,-3.57162 -2.705125,-3.75265 0,-0.063 0.452015,-0.3756 1.004482,-0.69471 1.428685,-0.82523 1.351777,-0.71981 1.130922,-1.55027 -0.584012,-2.19599 -0.765671,-6.05248 -0.409275,-8.68858 0.676645,-5.00482 2.326254,-8.92696 5.499778,-13.07638 0.278938,-0.36472 0.281955,-0.38666 0.03498,-0.25449 -0.707839,0.37883 -2.173347,1.57275 -3.186783,2.59621 -1.819905,1.83791 -3.26219,4.19868 -4.274997,6.99742 -0.444344,1.22788 -1.184602,4.24282 -1.184602,4.82468 0,0.57607 0.863709,3.01053 1.672738,4.71479 0.375431,0.79086 0.682599,1.48635 0.682599,1.54551 0,0.12216 -2.204185,1.44226 -2.275894,1.36305 -0.409411,-0.45224 -1.965647,-4.25227 -2.54603,-6.21691 -0.782145,-2.64763 -1.412788,-6.24036 -1.412788,-8.04856 v -0.68003 h 1.521404 1.521398 l 0.08374,-0.38101 c 1.305356,-5.9397 3.745718,-10.890242 7.388539,-14.988475 2.800711,-3.150848 6.63336,-5.461817 10.19802,-6.149096 2.318043,-0.446927 2.333585,-0.442916 0.945404,0.243926 -0.699262,0.345979 -1.739839,1.001318 -2.312398,1.456308 -1.14116,0.906836 -2.600369,2.535252 -3.123694,3.4859 l -0.334214,0.607118 0.88841,-0.835589 c 3.393636,-3.191874 7.108981,-4.218722 12.041615,-3.328066 0.57151,0.103195 1.0622,0.16551 1.09041,0.138476 0.099,-0.09483 -0.97959,-2.074656 -1.61632,-2.966942 -1.24557,-1.745513 -2.8289,-3.079654 -4.835321,-4.074325 -1.695867,-0.840713 -3.224533,-1.192169 -5.193809,-1.194105 -0.893206,-8.91e-4 -1.07607,-0.04004 -1.136876,-0.243508 -0.03985,-0.133353 -1.076322,-3.609205 -2.303276,-7.724112 -3.111273,-10.434507 -2.74433,-9.351295 -3.169555,-9.356474 -0.747511,-0.0091 -1.2708,-0.829645 -0.951986,-1.492748 0.410568,-0.853954 1.368984,-0.916587 1.956226,-0.127844 0.255332,0.342949 0.266706,0.431754 0.106427,0.831294 -0.09869,0.246032 -0.189792,0.521231 -0.202443,0.611551 -0.02466,0.176203 6.971769,9.651639 7.060811,9.562597 0.02927,-0.02927 -0.290092,-0.967842 -0.709682,-2.08572 -0.419591,-1.117878 -0.762891,-2.094261 -0.762891,-2.169734 0,-0.07547 0.268355,-0.137223 0.596344,-0.137223 1.48648,0 2.799753,-1.573108 3.752886,-4.495396 0.591552,-1.813694 0.597349,-1.952378 0.09911,-2.371623 -1.059795,-0.89176 -0.02503,-2.442435 1.205275,-1.806211 0.657186,0.339844 0.780935,1.038708 0.293626,1.658217 L 86.143555,20.420104 86.78,21.377457 c 1.859787,2.797513 3.597597,3.70236 5.250377,2.733764 1.56693,-0.918279 3.04231,-3.942961 4.11186,-8.429728 l 0.45234,-1.897551 -0.43519,-0.366188 c -0.33333,-0.280478 -0.4352,-0.478287 -0.4352,-0.845094 0,-1.018159 1.16788,-1.527812 1.87672,-0.818978 0.48925,0.489257 0.45462,1.104331 -0.0909,1.613906 -0.49374,0.461221 -0.49381,0.459367 0.0969,2.825962 1.03106,4.131239 2.569023,7.189069 3.984893,7.922897 1.28014,0.663486 2.29098,0.437834 3.62381,-0.808967 0.85756,-0.8022 2.14674,-2.532975 2.14674,-2.882071 0,-0.09045 -0.0935,-0.257971 -0.20782,-0.372274 -0.29375,-0.293747 -0.267,-1.199934 0.0437,-1.481129 0.13835,-0.12521 0.44759,-0.266862 0.68719,-0.314782 0.36322,-0.07265 0.50566,-0.01712 0.85684,0.334068 0.54592,0.545916 0.54763,1.030151 0.006,1.572224 -0.48074,0.480742 -0.48521,0.516062 -0.20412,1.613251 0.83518,3.260037 2.40142,5.292889 4.07798,5.292889 0.30784,0 0.55972,0.02582 0.55972,0.0574 0,0.05311 -1.15486,3.222926 -1.51865,4.16835 -0.13998,0.363785 -0.13493,0.389716 0.0405,0.207826 0.11023,-0.114302 1.76343,-2.309926 3.67377,-4.879164 3.45888,-4.651878 3.47251,-4.672939 3.27216,-5.057042 -0.29146,-0.558766 -0.24952,-0.975147 0.13718,-1.361847 0.42069,-0.420695 1.01754,-0.441589 1.51165,-0.05292 0.75083,0.590604 0.32999,1.840076 -0.65785,1.953174 l -0.39943,0.04571 -1.96675,6.581085 c -1.08172,3.619596 -2.2379,7.500704 -2.5693,8.624685 l -0.60255,2.043599 h -1.14092 c -3.78019,0 -7.44193,1.883257 -9.77585,5.027775 -0.7496,1.009945 -1.89336,3.08272 -1.76772,3.203547 0.031,0.02982 0.52398,-0.04147 1.09549,-0.15843 1.49586,-0.306117 4.78008,-0.303799 6.00658,0.0042 2.17394,0.545987 4.0951,1.599228 5.892,3.230167 0.76465,0.694037 0.85371,0.743871 0.66004,0.369362 -0.44869,-0.867682 -1.93662,-2.550073 -3.0429,-3.440592 -0.62342,-0.501833 -1.69462,-1.188351 -2.38044,-1.525596 -1.18256,-0.581511 -1.21475,-0.608783 -0.62347,-0.528183 0.34291,0.04675 1.04978,0.171474 1.57082,0.277178 7.83489,1.589477 14.71117,9.517058 17.26296,19.902277 l 0.38231,1.55591 1.55721,0.0393 1.55721,0.0393 -0.0879,1.20765 c -0.28829,3.96036 -1.34759,8.18314 -2.92697,11.66812 -0.29354,0.64771 -0.6504,1.37945 -0.79301,1.62609 -0.29218,0.50527 -0.19604,0.52466 -1.7067,-0.34428 l -0.84911,-0.48841 0.60683,-1.30746 c 0.33376,-0.71911 0.89395,-2.09781 1.24486,-3.06378 l 0.63801,-1.7563 -0.16932,-0.96985 c -0.23169,-1.32709 -1.01551,-4.02501 -1.52479,-5.24835 -1.43344,-3.44327 -3.92932,-6.4779 -6.83856,-8.3147 -0.46543,-0.29386 -0.41957,-0.19522 0.42397,0.91179 2.44244,3.20535 4.10117,7.16093 4.84038,11.54287 0.45248,2.68223 0.31095,6.87868 -0.31727,9.40749 -0.16713,0.67275 -0.17079,0.83845 -0.0207,0.9361 0.10031,0.0653 0.63439,0.36925 1.18685,0.67554 0.55247,0.30629 1.00448,0.59312 1.00448,0.6374 0,0.17612 -1.90117,2.793 -2.84463,3.9155 -1.20514,1.43384 -3.3333,3.50548 -4.82864,4.70039 -1.1856,0.94739 -3.05419,2.24284 -3.23122,2.24011 -0.12379,-0.002 -1.28783,-1.96118 -1.28783,-2.16763 0,-0.073 0.2755,-0.32685 0.61221,-0.56419 0.66999,-0.47225 0.93334,-0.9588 1.59166,-2.94062 0.67052,-2.01854 0.89477,-3.5572 0.88939,-6.10253 -0.004,-1.79697 -0.0658,-2.55284 -0.28969,-3.533 -0.26841,-1.17498 -0.84299,-2.91206 -0.93118,-2.81519 -0.0222,0.0243 0.01,0.57415 0.0715,1.22187 0.36596,3.85664 -1.14153,8.50109 -3.96714,12.22237 -1.53521,2.02186 -4.86782,5.04901 -6.47963,5.88572 -0.84832,0.44037 -0.0769,0.32838 1.59998,-0.23226 0.93634,-0.31307 2.3742,-0.8882 3.19523,-1.27808 0.82104,-0.38987 1.51476,-0.68331 1.54162,-0.65209 0.0269,0.0312 0.33573,0.55554 0.68641,1.16516 l 0.63759,1.10839 -0.92984,0.46986 c -3.78202,1.9111 -9.75608,3.472203 -13.308343,3.477653 l -0.74037,0.001 0.0476,-1.990333 0.0477,-1.99033 0.48492,-0.71388 c 0.60437,-0.88973 1.552523,-1.56324 3.661493,-2.6009 l 1.64562,-0.80968 -0.67923,-0.0907 c -0.37357,-0.0499 -1.03857,-0.1324 -1.47776,-0.18339 -0.96439,-0.11196 -0.93078,-0.27898 0.08,-0.39778 0.40924,-0.0481 1.2371,-0.24729 1.83967,-0.44264 3.81695,-1.23746 6.74655,-3.98577 8.21596,-7.70756 0.70223,-1.77866 0.73257,-2.10881 0.0936,-1.01847 -1.0486,1.7893 -2.98137,3.67049 -4.83342,4.70444 -0.83413,0.46567 -3.38873,1.40309 -3.50548,1.28634 -0.0321,-0.0321 0.19833,-0.22822 0.51205,-0.43583 1.33958,-0.8865 3.23789,-3.12632 4.48475,-5.29159 0.76442,-1.32747 1.63497,-3.71434 1.93872,-5.31557 0.19631,-1.03489 0.30927,-4.15777 0.15038,-4.15777 -0.0362,0 -0.27006,0.12567 -0.51956,0.27928 -0.24949,0.1536 -0.951,0.43763 -1.5589,0.63117 -0.92913,0.29581 -1.37005,0.35189 -2.7667,0.35189 -1.80359,0 -1.8551,0.0743 -0.37382,0.53943 0.56869,0.17855 1.2679,0.27647 1.97433,0.27647 0.60159,0 1.09379,0.0538 1.09379,0.11964 0,0.37858 -0.30764,1.68543 -0.49832,2.11684 -0.2209,0.49979 -0.23296,0.50555 -1.25939,0.60174 -1.11376,0.10437 -2.44266,0.0108 -3.99035,-0.2808 -0.53247,-0.10034 -0.98402,-0.16654 -1.00345,-0.14711 -0.0194,0.0194 0.41622,0.29029 0.96812,0.60191 0.93755,0.52937 1.74433,0.82283 3.08169,1.12093 l 0.55419,0.12354 -0.69274,0.32454 c -0.93844,0.43963 -2.418,0.52265 -3.41861,0.1918 -1.92024,-0.63491 -3.637973,-2.36413 -4.187893,-4.2159 -0.27433,-0.92378 -0.277,-1.28988 -0.0158,-2.16936 0.26815,-0.90294 0.95654,-1.58278 2.322093,-2.29322 1.30199,-0.67736 2.30108,-1.70806 2.76193,-2.84929 0.30357,-0.75175 0.32168,-0.97406 0.32433,-3.98282 0.002,-2.30812 0.0511,-3.27257 0.17806,-3.49837 0.33774,-0.60078 0.76244,-0.75102 2.20413,-0.77973 2.04974,-0.0408 2.85832,-0.60594 3.38264,-2.364178 0.35393,-1.186895 0.87209,-1.741064 1.62475,-1.737666 1.1256,0.0051 2.25929,1.136929 2.75599,2.751531 0.34367,1.117143 0.30153,3.471453 -0.0884,4.935663 -0.31602,1.18684 -1.17715,3.10411 -1.64905,3.67156 l -0.28806,0.34637 0.12635,-0.5542 c 0.28517,-1.25086 0.0441,-3.36662 -0.49681,-4.36069 -0.17683,-0.32497 -0.19084,-0.2798 -0.19599,0.63234 -0.007,1.18891 -0.41643,2.86887 -0.93715,3.84259 -0.81609,1.52606 -2.40536,2.7571 -4.14408,3.20998 -0.43193,0.1125 -0.8123,0.23153 -0.84529,0.26451 -0.13143,0.13143 1.58946,0.25383 2.58097,0.18357 1.19022,-0.0843 2.53013,-0.52671 3.71394,-1.22616 1.04791,-0.61915 2.54753,-2.11816 3.10214,-3.10088 l 0.44581,-0.78993 0.33158,1.14852 c 0.42145,1.45979 1.249,3.05374 2.04511,3.93908 l 0.62103,0.69064 -0.27914,-0.83129 c -0.40299,-1.20013 -0.77399,-2.95306 -1.01164,-4.77987 -0.21315,-1.63857 -0.26663,-2.27132 -0.5036,-5.95852 -0.10187,-1.585171 -0.2272,-2.437317 -0.47807,-3.250409 -0.187,-0.606098 -0.3169,-1.125108 -0.28865,-1.153354 0.0282,-0.02825 0.16581,0.009 0.30569,0.08283 0.6674,0.352136 2.46606,0.614963 3.77663,0.551856 1.87775,-0.09042 2.15232,-0.282927 0.82479,-0.578276 -2.31836,-0.515785 -4.81013,-1.657086 -7.33532,-3.359781 -2.8568,-1.926289 -3.96274,-2.326813 -6.43311,-2.329787 -1.92494,-0.0023 -3.06412,0.280201 -4.41433,1.094753 -0.71424,0.430888 -1.86201,1.322868 -1.70221,1.322868 0.0322,0 0.45521,-0.185447 0.94002,-0.412105 2.03206,-0.950011 4.75781,-1.267503 6.63128,-0.772402 1.87353,0.495117 3.37837,1.650732 4.29428,3.297704 l 0.4432,0.79698 -0.69768,-0.36197 c -0.9085,-0.471349 -2.15318,-0.57888 -3.29996,-0.285089 -0.46713,0.119674 -1.60601,0.535866 -2.53085,0.924872 -2.85828,1.202262 -3.79279,1.361047 -4.89009,0.83089 -0.31435,-0.151879 -0.59901,-0.248679 -0.63258,-0.215111 -0.0336,0.03357 0.0783,0.286507 0.24864,0.562088 0.32724,0.529483 1.11612,1.103464 1.72751,1.256913 0.36258,0.091 0.36355,0.09462 0.1032,0.38654 -0.46987,0.52684 -0.82022,1.24594 -1.07205,2.20041 -0.21087,0.79923 -0.22935,1.18364 -0.12652,2.63244 0.21988,3.09829 0.14329,4.0784 -0.36971,4.73056 -0.27244,0.34636 -0.339,0.36043 -1.704743,0.36043 -1.23214,0 -1.51013,0.045 -2.08949,0.33832 l -0.66832,0.33841 -0.56752,-0.29975 c -0.44514,-0.23511 -0.89514,-0.31554 -2.08671,-0.37296 l -1.51919,-0.0732 -0.30962,-0.46043 c -0.45269,-0.67319 -0.52482,-1.50728 -0.33163,-3.83459 0.14948,-1.80067 0.14393,-2.21287 -0.0415,-3.08627 -0.21867,-1.02974 -0.84077,-2.364625 -1.15888,-2.486696 -0.29894,-0.114715 -0.19729,-0.288901 0.2224,-0.381079 0.49366,-0.108426 1.47621,-0.932525 1.7553,-1.472241 0.24663,-0.476918 0.21441,-0.48508 -0.49211,-0.124643 -1.07911,0.550519 -2.04165,0.358831 -5.611242,-1.117472 -1.740613,-0.71988 -1.845364,-0.745045 -3.117353,-0.748926 -1.19432,-0.0037 -1.377022,0.03173 -1.972768,0.381924 l -0.656553,0.385939 0.131001,-0.344566 c 0.421864,-1.109583 1.678577,-2.460088 2.886397,-3.10182 2.260797,-1.201187 5.133718,-1.191092 8.067158,0.02835 l 1.17393,0.488006 -0.55304,-0.488589 c -1.25643,-1.11001 -3.0268,-1.813279 -4.89922,-1.946187 -2.414916,-0.171415 -4.176287,0.39397 -6.911401,2.218504 -2.915952,1.945167 -5.312239,3.039104 -7.795236,3.558631 l -0.900574,0.188429 0.5542,0.168967 c 1.156466,0.35259 4.264205,0.120344 5.242095,-0.39175 0.371347,-0.194466 0.412448,-0.06693 0.167417,0.519512 -0.395597,0.946803 -0.607351,2.185159 -0.697723,4.080427 -0.209549,4.39438 -0.689081,7.90953 -1.369497,10.03887 -0.193756,0.60634 -0.331041,1.12369 -0.305084,1.14964 0.02597,0.026 0.337582,-0.31427 0.692501,-0.75607 0.777888,-0.96832 1.477212,-2.37044 1.895127,-3.79967 l 0.308985,-1.0567 0.644624,0.98747 c 1.652096,2.53076 4.548893,4.12704 7.423874,4.09093 1.731532,-0.0217 2.164952,-0.24084 0.908502,-0.45923 -0.928412,-0.16138 -2.214789,-0.92627 -3.033763,-1.80391 -1.305737,-1.39928 -1.952749,-3.09979 -1.980293,-5.2047 l -0.01362,-1.03912 -0.369462,0.76202 c -0.34132,0.70397 -0.369461,0.8971 -0.369461,2.5355 0,1.76233 -0.0016,1.77148 -0.263506,1.45476 -0.405819,-0.49085 -1.146836,-2.16782 -1.494131,-3.38133 -0.441385,-1.54228 -0.441967,-4.33236 -10e-4,-5.458152 0.870511,-2.223127 2.990913,-3.096619 3.894099,-1.604162 0.141951,0.234572 0.357523,0.775165 0.479041,1.201319 0.453947,1.591955 1.258274,2.111645 3.320886,2.145705 1.66659,0.0275 2.01128,0.21703 2.27243,1.24942 0.13527,0.53474 0.13695,1.06732 0.008,2.50308 -0.34971,3.8916 0.5979,6.12698 3.11824,7.35585 1.57152,0.76624 2.30442,1.61264 2.49971,2.88682 0.0996,0.64969 -0.17349,1.84882 -0.62057,2.72517 -0.47589,0.93281 -1.90601,2.26101 -2.98457,2.77185 -0.85936,0.40702 -1.06571,0.44789 -2.26185,0.44789 -1.11981,0 -1.41889,-0.0509 -2.00428,-0.34108 l -0.68807,-0.34107 0.82661,-0.16782 c 1.23493,-0.25071 2.11481,-0.57385 3.07445,-1.12908 0.47428,-0.27441 0.84208,-0.5192 0.81731,-0.54396 -0.0248,-0.0248 -0.50634,0.0586 -1.07016,0.18533 -0.67234,0.15108 -1.68621,0.23315 -2.94605,0.23847 -1.740637,0.007 -1.939194,-0.0169 -2.115706,-0.25827 -0.227634,-0.31125 -0.430135,-1.01179 -0.554235,-1.9172 l -0.08825,-0.64382 h 1.112181 c 1.03622,0 2.52794,-0.32882 3.06188,-0.67493 0.11459,-0.0743 -0.45439,-0.1259 -1.45477,-0.132 -1.793571,-0.0109 -2.861283,-0.24345 -4.175279,-0.90931 -0.917027,-0.46469 -0.933317,-0.43253 -0.809982,1.59822 0.293349,4.82989 2.895215,9.92125 6.442391,12.60653 0.48944,0.37051 0.82534,0.67366 0.74644,0.67366 -0.27726,0 -2.3301,-0.7316 -3.015234,-1.07458 -1.991337,-0.99687 -3.748723,-2.5841 -5.041532,-4.55337 -0.77052,-1.1737 -0.842872,-1.17997 -0.450323,-0.039 1.000455,2.90787 3.115232,5.55079 5.684223,7.10382 1.265586,0.76508 3.435436,1.56115 4.620756,1.69525 1.37536,0.15561 0.9886,0.33508 -1.19577,0.5549 l -0.95478,0.0961 1.95685,0.96001 c 2.234,1.09598 3.2151,1.87371 3.71329,2.94356 0.28589,0.61391 0.32406,0.90288 0.32526,2.46205 l 0.002,1.766503 -0.93521,-0.0222 c -0.51437,-0.0122 -1.15342,-0.0445 -1.42013,-0.0718 z M 73.992336,85.116837 c -0.05473,-2.24402 0.08277,-3.53131 0.59417,-5.56266 0.538485,-2.13894 1.562442,-4.66681 2.505536,-6.18549 l 0.372504,-0.59985 -0.407762,0.21086 c -0.515167,0.26641 -1.880611,1.73425 -2.469241,2.65444 -0.246948,0.38603 -0.60547,1.07295 -0.796723,1.52647 l -0.34773,0.82459 -0.11657,-0.55356 c -0.206852,-0.98231 -0.119832,-6.09891 0.129494,-7.61392 0.12489,-0.75891 0.202904,-1.40401 0.173359,-1.43355 -0.172066,-0.17207 -1.087333,2.1251 -1.452161,3.64468 -0.477485,1.9888 -0.59949,3.30765 -0.523404,5.65772 0.107459,3.31894 0.652228,5.84133 1.790842,8.29196 0.312133,0.6718 0.574481,1.22145 0.583001,1.22145 0.0085,0 -0.0074,-0.93741 -0.03529,-2.08314 z m 46.932324,-1.03421 c 1.64452,-5.04211 1.42207,-11.219 -0.54091,-15.01983 -0.46774,-0.90568 -0.49328,-0.75951 -0.18561,1.0625 0.25075,1.48498 0.33491,5.6424 0.14174,7.00212 l -0.11415,0.80355 -0.57801,-1.15064 c -0.85659,-1.70522 -2.18083,-3.30435 -3.225,-3.89447 -0.0842,-0.0476 0.26082,0.73767 0.76675,1.74502 0.9959,1.98295 1.64086,3.81089 2.11278,5.98802 0.2452,1.13121 0.30228,1.86531 0.31099,3.9998 l 0.0107,2.61431 0.44703,-0.95172 c 0.24586,-0.52344 0.63004,-1.51284 0.85372,-2.19866 z M 97.261097,48.206023 c 0.81268,-2.418456 1.91833,-4.119925 4.059503,-6.247139 1.73305,-1.72176 3.13986,-2.755612 5.39646,-3.965814 l 1.54583,-0.829018 -0.87946,0.08753 c -2.53827,0.252629 -5.4012,1.597871 -7.32958,3.444049 -0.323863,0.310052 -0.588843,0.49124 -0.588843,0.402638 0,-0.0886 0.15106,-0.577244 0.33568,-1.085873 0.429723,-1.183857 1.210473,-2.314517 2.064263,-2.989403 1.29234,-1.021535 -0.26044,-0.429575 -1.67156,0.63724 -0.982543,0.742805 -2.492003,2.65824 -2.975303,3.775488 -0.17393,0.402084 -0.35099,0.732126 -0.39348,0.733427 -0.0425,0.0013 -0.18579,-0.243662 -0.31847,-0.544361 -0.79734,-1.807223 -2.80463,-4.038943 -4.27482,-4.752779 -1.06979,-0.51943 -1.21327,-0.478355 -0.48395,0.138549 1.15164,0.974131 2.29137,2.852543 2.30777,3.803476 0.006,0.369807 -0.002,0.366691 -0.65165,-0.254923 -1.63182,-1.560407 -3.77893,-2.653639 -6.191742,-3.152619 -1.900756,-0.393085 -1.954781,-0.296369 -0.321694,0.575907 2.930766,1.565403 5.530376,3.695947 7.178616,5.883326 0.95938,1.273183 2.26138,3.825419 2.50355,4.907526 0.0915,0.408691 0.19417,0.715193 0.22825,0.681117 0.0341,-0.03407 0.24135,-0.595831 0.46063,-1.248344 z m 0.0512,-13.057844 c 0.57137,-0.904363 1.91474,-2.311405 2.984043,-3.125488 0.49531,-0.377096 1.63525,-1.044734 2.53319,-1.483642 l 1.63262,-0.798012 -0.63564,-0.08713 c -1.73402,-0.237669 -4.012473,-1.547224 -5.867403,-3.372318 l -1.15955,-1.140914 -1.03716,1.037163 c -1.8104,1.8104 -3.8328,3.027123 -5.71869,3.440503 -0.7664,0.167987 -0.84897,0.213277 -0.5542,0.303958 0.79056,0.243214 2.83411,1.368434 3.84063,2.114725 1.15059,0.853107 2.28175,2.030472 2.98136,3.10312 0.23608,0.361959 0.46549,0.657997 0.50981,0.657861 0.0443,-1.37e-4 0.26526,-0.292558 0.49098,-0.649826 z m -1.218,56.971488 c -1.44218,-2.20388 -1.68672,-2.99971 -1.57467,-5.12468 0.0788,-1.49412 0.0751,-1.51976 -0.16972,-1.19523 -0.40786,0.54056 -0.74154,1.8006 -0.82943,3.13209 l -0.0823,1.24694 -0.51761,-1.31622 c -0.64059,-1.62897 -0.83646,-2.53812 -0.77612,-3.60236 l 0.0468,-0.82515 -0.62347,-0.0887 c -0.82779,-0.11778 -1.52441,-0.51735 -1.92742,-1.10549 -0.18114,-0.26436 -0.30126,-0.50874 -0.26693,-0.54307 0.0344,-0.0344 0.3083,0.006 0.60883,0.089 0.8641,0.23951 2.23907,0.0484 4.06865,-0.56539 2.31885,-0.77797 3.24054,-0.77933 5.53899,-0.008 1.906273,0.63955 3.036953,0.80068 3.970003,0.56573 0.35725,-0.09 0.68184,-0.13128 0.7213,-0.0918 0.11827,0.11828 -0.66133,1.05423 -1.10069,1.32141 -0.22491,0.13679 -0.70595,0.2881 -1.06896,0.33625 l -0.66003,0.0875 0.0635,0.76519 c 0.0765,0.92209 -0.24306,2.35167 -0.85015,3.80359 l -0.43449,1.03912 -0.0966,-1.14627 c -0.11948,-1.41716 -0.435453,-2.53838 -0.851723,-3.02232 l -0.31675,-0.36824 0.13449,1.15474 c 0.22897,1.96598 -0.14219,3.30329 -1.48981,5.36771 -0.35033,0.53666 -0.68526,1.0056 -0.74429,1.04209 -0.059,0.0365 -0.40612,-0.39024 -0.77129,-0.94828 z M 62.333833,64.295927 c 0,-2.25201 0.845308,-6.565359 1.851408,-9.447168 0.695915,-1.993334 1.976816,-4.779945 2.197158,-4.779945 0.203428,0 2.907914,1.587253 2.969636,1.742868 0.03262,0.08226 -0.203553,0.581032 -0.524828,1.108393 -1.804148,2.961399 -3.291488,7.512942 -3.652341,11.176842 l -0.0921,0.9352 h -1.374467 -1.374462 z m 66.223787,0.6373 c -0.0161,-0.64636 -0.47101,-3.35575 -0.76337,-4.54599 -0.66484,-2.706737 -1.93807,-5.81914 -3.16536,-7.737701 -0.28493,-0.445417 -0.49889,-0.826088 -0.47546,-0.845935 0.2056,-0.174173 3.00189,-1.734787 3.10838,-1.734787 0.15455,0 0.36552,0.407151 1.24664,2.405969 1.49763,3.397351 2.60772,8.021674 2.71512,11.310394 l 0.0384,1.17767 -1.35085,0.0397 c -0.74297,0.0218 -1.35207,-0.009 -1.35356,-0.0693 z M 69.257537,48.882933 c -0.870589,-0.49983 -1.607711,-0.933598 -1.63804,-0.963928 -0.17667,-0.176668 1.984147,-3.099519 3.707946,-5.015592 0.67065,-0.745454 1.672277,-1.756479 2.225844,-2.24672 l 1.006487,-0.89135 -0.0891,-1.048339 c -0.04901,-0.576586 -0.179685,-1.921198 -0.290395,-2.988026 -0.110711,-1.066829 -0.298078,-2.906068 -0.416371,-4.0872 -0.118292,-1.18113 -0.28221,-2.790491 -0.364261,-3.576354 -0.141349,-1.353787 -0.08161,-2.062632 0.100378,-1.191084 0.04629,0.221729 1.030031,3.551668 2.186067,7.399872 l 2.101885,6.996731 0.481968,-0.06928 c 0.265082,-0.0381 1.198955,-0.06422 2.075278,-0.05805 1.871076,0.01318 3.141583,0.360868 4.679921,1.280715 0.976209,0.58372 2.867963,2.082468 2.762133,2.188302 -0.0339,0.03386 -0.67787,-0.102924 -1.431115,-0.303974 -2.52126,-0.672954 -5.420366,-0.609201 -7.881349,0.173316 -2.049033,0.651528 -4.415974,2.173189 -6.26579,4.028159 -0.702911,0.704868 -1.298396,1.281579 -1.323301,1.281579 -0.02493,0 -0.757585,-0.408952 -1.62818,-0.908782 z m 52.233723,-0.277319 c -2.50269,-2.527179 -5.04122,-3.956541 -8.09912,-4.56036 -1.72614,-0.340843 -4.19665,-0.23629 -6.08925,0.2577 -0.75661,0.197481 -1.39838,0.336328 -1.42616,0.308548 -0.0945,-0.09452 1.27436,-1.23086 2.28035,-1.892985 2.20787,-1.453171 4.42333,-1.895104 7.44007,-1.484121 0.22459,0.0306 0.32039,-0.143947 0.58832,-1.071846 1.0819,-3.746913 4.11723,-13.776498 4.15719,-13.736533 0.0264,0.02639 -0.11528,1.631547 -0.31479,3.567063 -0.19951,1.935511 -0.49871,4.921921 -0.66489,6.636467 l -0.30215,3.117356 0.76646,0.68977 c 1.12408,1.011609 2.68404,2.637361 3.59229,3.743802 0.88372,1.07656 2.64752,3.51052 2.64568,3.650896 -10e-4,0.07987 -3.20991,1.960344 -3.34514,1.960344 -0.0299,0 -0.58282,-0.533745 -1.22886,-1.186101 z"
             id="path2"
             style="fill:#5a2d81;fill-opacity:1" /><path
             style="fill:#5a2d81;fill-opacity:1"
             d="m 96.082031,6.4414062 c -0.599573,0.059611 -1.179402,0.2044428 -1.708984,0.4355469 -2.11833,0.9244165 -3.710938,3.2507759 -3.710938,5.6953129 0,1.158582 0.556636,1.935547 0.556636,1.935547 -0.163143,0.684383 -1.897969,-0.16379 -2.755859,-0.607422 -2.619974,-1.354859 -6.440209,-0.318926 -7.998047,2.015625 -0.476346,0.713844 -0.695891,1.588174 -0.794922,2.496093 -0.247762,-0.487537 -0.496353,-0.816217 -0.617188,-0.978515 -1.1197,-1.503905 -3.168085,-2.728261 -5.435547,-2.580078 -2.267461,0.148182 -4.293684,1.767405 -5.144531,3.537109 -0.985733,2.050233 -0.715921,4.229501 0.351563,5.902344 -0.02193,0.05215 -0.09644,0.155988 -0.115235,0.199218 -0.542805,1.248491 -0.399908,1.434917 -0.423828,1.71875 -0.09568,1.135334 -0.0077,1.539953 0.08008,2.38086 0.08024,0.768484 0.243808,2.381264 0.361328,3.554687 0.119185,1.190036 0.306127,3.027741 0.417969,4.105469 0.05683,0.547643 0.09485,0.971574 0.148438,1.525391 -0.587917,0.574347 -1.187054,1.138378 -1.728516,1.740234 -1.014479,1.127635 -2.040983,2.408968 -2.875,3.537109 -0.417008,0.564071 -0.774126,1.067304 -1.105469,1.59961 -0.165671,0.266153 -0.319355,0.507428 -0.537109,0.988281 -0.08108,0.179041 -0.187997,0.516075 -0.291016,0.882813 -0.321605,0.321804 -0.493733,0.547477 -0.615234,0.716796 -0.266164,0.370916 -0.391124,0.597424 -0.525391,0.839844 -0.268533,0.48484 -0.50069,0.969 -0.751953,1.515625 -0.502526,1.093252 -1.032465,2.365933 -1.457031,3.582031 -1.014504,2.90588 -1.671643,6.120838 -1.919922,9.146485 h -0.214844 v 1.970703 3.771484 2.025391 H 57.4707 c 0.218466,2.446436 0.69664,5.002047 1.421875,7.457031 0.387239,1.310834 0.944048,2.788321 1.505859,4.160156 0.280906,0.685918 0.556152,1.324087 0.826172,1.896485 0.270021,0.572398 -0.0842,0.578084 1.314453,2.123047 6.2e-5,6.7e-5 0.11648,0.09111 0.144532,0.113281 0.120453,0.519036 0.272074,0.747994 0.347656,0.910156 0.118707,0.254691 0.194215,0.383852 0.263672,0.503906 0.138913,0.240109 0.24787,0.406286 0.36914,0.589844 0.242542,0.367117 0.51636,0.75923 0.822266,1.183594 0.611811,0.848727 1.299849,1.764877 1.931641,2.521484 1.548954,1.854965 3.575875,3.752401 5.46875,5.351563 0.946437,0.799581 1.822237,1.492917 2.699218,2.082031 0.438491,0.294557 0.838611,0.563006 1.535157,0.871094 0.193503,0.08559 0.593066,0.167988 0.886718,0.257808 0.08981,0.11804 0.257692,0.33974 0.257813,0.33985 h 0.002 c 0.80772,0.72458 0.888697,0.65483 1.097656,0.77148 0.20896,0.11666 0.385786,0.20552 0.574219,0.29883 0.376866,0.18661 0.789207,0.37848 1.240234,0.58008 0.902055,0.4032 1.918225,0.83043 2.826172,1.16992 3.065494,1.14623 6.545613,1.98318 9.708985,2.30664 l 0.15625,0.0156 -0.002,0.11132 2.791015,-0.004 4.994147,0.11719 v -0.26368 c 4.57694,-0.33688 9.5834,-1.78529 13.73047,-3.88086 l 5.69921,-2.878902 -0.25195,-0.4375 c 0.57607,-0.411525 1.16978,-0.833207 1.7207,-1.273437 1.89459,-1.513941 3.9964,-3.556044 5.54493,-5.398438 0.64081,-0.762415 1.352,-1.707195 1.99609,-2.59375 0.32204,-0.443277 0.61339,-0.855081 0.86523,-1.230469 0.12593,-0.187693 0.23833,-0.356503 0.37696,-0.589843 0.0693,-0.116671 0.14261,-0.239394 0.26172,-0.484375 0.0827,-0.170155 0.26735,-0.405169 0.39648,-1.111329 0.0137,-0.01371 0.0535,-0.02139 0.0664,-0.03516 0.91124,-0.970416 0.86334,-1.202861 0.86914,-1.21289 0.48261,-0.834665 0.68291,-1.323242 1.02148,-2.070313 1.73947,-3.838218 2.80393,-8.178467 3.21875,-12.478516 l 0.31641,-0.0098 -0.0723,-2.238281 0.375,-5.164063 -0.67187,-0.01758 c -0.29274,-3.974814 -1.32593,-8.27509 -2.97657,-12.019531 -0.44953,-1.019775 -0.71651,-1.629037 -1.0332,-2.240235 -0.15834,-0.305599 -0.28889,-0.604682 -0.75,-1.183593 -0.0771,-0.09684 -0.33091,-0.274677 -0.45898,-0.408204 -0.0472,-0.113309 -0.0716,-0.495578 -0.10352,-0.580078 -0.10335,-0.273341 -0.17284,-0.41131 -0.23047,-0.52539 -0.11525,-0.228161 -0.18409,-0.337889 -0.24804,-0.44336 -0.12792,-0.210941 -0.23006,-0.362065 -0.34571,-0.533203 -0.23129,-0.342274 -0.49918,-0.722012 -0.79687,-1.132812 -0.59539,-0.8216 -1.26081,-1.710203 -1.8418,-2.417969 -1.16887,-1.423928 -2.72149,-3.037119 -4.11914,-4.294922 l 1.13281,1.019531 0.0566,-0.576172 c 0.16435,-1.695629 0.46218,-4.684777 0.66016,-6.605468 0.10186,-0.98816 0.18967,-1.888707 0.25,-2.572266 0.0302,-0.34178 0.0535,-0.624086 0.0703,-0.869141 0.008,-0.122527 0.0159,-0.22831 0.0215,-0.388671 0.003,-0.08018 0.007,-0.159911 0.002,-0.367188 -0.003,-0.103639 -0.001,-0.223404 -0.041,-0.529297 -0.0198,-0.152946 -0.0423,-0.346509 -0.14843,-0.724609 -0.0531,-0.18905 -0.28497,-0.773039 -0.28516,-0.773438 -4e-5,-9e-5 -0.14799,-0.213135 -0.22851,-0.328125 0.21488,-0.363066 0.58327,-0.644525 0.71484,-1.035156 0.70862,-2.103899 0.10978,-5.098124 -1.99024,-6.75 -2.12029,-1.667835 -6.16654,-1.60301 -8.2207,0.451172 -0.43749,0.437488 -0.86075,1.101003 -1.20898,1.849609 -0.27528,-1.545986 -1.00968,-2.796786 -1.67578,-3.46289 -0.32323,-0.323235 -0.87068,-0.957866 -2.16602,-1.462891 -1.29534,-0.505025 -2.71405,-0.365793 -3.26367,-0.255859 -1.29939,0.259877 -1.57928,0.156522 -3.0918,1.52539 -0.54383,0.492185 -1.16506,0.623751 -1.2832,0.150391 v -0.002 c -0.0564,-0.225967 -0.0194,-0.01868 -0.0586,-0.205078 0.25058,-0.596431 0.49865,-1.206133 0.53907,-1.923828 0.1034,-1.836112 -0.78154,-3.627229 -1.81836,-4.6640629 C 99.855002,6.8491536 97.88075,6.2625744 96.082031,6.4414062 Z M 70.197266,36.867185 c -0.293875,0.260257 -0.586461,0.599716 -0.888672,0.894532 l -0.0078,-0.101563 z"
             id="path3"
             sodipodi:nodetypes="sssccscssccsscsscsssscssssccccccsssscsssssssscccsssscccccccccsssssccccscccccsscccscssscccsccccccscscscsscscccccscccc" /></g><g
           id="path4"
           style="fill:#5a2d81;fill-opacity:1"><path
             style="fill:#5a2d81;fill-opacity:1"
             d="M 88.986519,56.157169 A 36.069847,36.069847 0 0 1 52.916672,92.227016 36.069847,36.069847 0 0 1 16.846825,56.157169 36.069847,36.069847 0 0 1 52.916672,20.087322 36.069847,36.069847 0 0 1 88.986519,56.157169 Z"
             id="path5" /><path
             style="fill:#5a2d81;fill-opacity:1"
             d="m 52.916016,15.025391 c -22.656535,0 -41.13086,18.474325 -41.13086,41.130859 0,22.656534 18.474325,41.132812 41.13086,41.132812 22.656534,0 41.132812,-18.476278 41.132812,-41.132812 0,-22.656534 -18.476278,-41.130859 -41.132812,-41.130859 z m 0,10.123046 c 17.185118,10e-7 31.007812,13.822694 31.007812,31.007813 0,17.185119 -13.822694,31.007813 -31.007812,31.007812 -17.185119,0 -31.007813,-13.822693 -31.007813,-31.007812 0,-17.185119 13.822694,-31.007812 31.007813,-31.007813 z"
             id="path6" /></g></g><path
         style="fill:#a3acbe;fill-opacity:1;stroke-width:0.52365"
         d="m 49.30232,97.430254 c -2.59673,-0.265517 -5.861411,-1.04221 -8.451495,-2.010681 -1.489256,-0.556855 -3.889716,-1.629819 -4.131491,-1.84671 -0.06885,-0.06176 1.24744,-2.283393 1.352887,-2.283393 0.05142,0 0.526216,0.211984 1.055056,0.471071 1.700041,0.832881 2.859057,1.266359 5.602921,2.095523 0.19051,0.05756 -0.308267,-0.334592 -1.108389,-0.871459 -4.930864,-3.308543 -8.171133,-7.874679 -9.510856,-13.402536 -0.250702,-1.03445 -0.349688,-4.484588 -0.151046,-5.264869 0.19298,-0.758022 -0.144408,-0.03325 -0.519687,1.116365 -1.208009,3.700631 -0.981671,8.233421 0.617358,12.36376 0.44571,1.151277 0.713295,1.515585 1.42447,1.93936 0.209554,0.124875 0.381008,0.26903 0.381008,0.320353 0,0.125263 -1.058004,1.930207 -1.235427,2.107635 -0.45665,0.456649 -5.863422,-4.111168 -8.25177,-6.971361 -0.9544,-1.142951 -2.705125,-3.571624 -2.705125,-3.75265 0,-0.06298 0.452015,-0.375599 1.004482,-0.694712 1.428685,-0.825231 1.351777,-0.719804 1.130922,-1.550272 -0.584012,-2.195985 -0.765671,-6.052474 -0.409275,-8.688577 0.676645,-5.004815 2.326254,-8.926963 5.499778,-13.076381 0.278938,-0.364713 0.281955,-0.386661 0.03498,-0.254485 -0.707839,0.378823 -2.173347,1.572743 -3.186783,2.596209 -1.819905,1.83791 -3.26219,4.198676 -4.274997,6.997415 -0.444344,1.227879 -1.184602,4.242821 -1.184602,4.824685 0,0.57607 0.863709,3.010528 1.672738,4.71479 0.375431,0.790863 0.682599,1.486344 0.682599,1.545511 0,0.122158 -2.204185,1.442259 -2.275894,1.363052 -0.409411,-0.452246 -1.965647,-4.252271 -2.54603,-6.216912 -0.782145,-2.647637 -1.412788,-6.240361 -1.412788,-8.04856 V 64.27239 h 1.521404 1.521398 l 0.08374,-0.38101 c 1.305356,-5.939698 3.745718,-10.89024 7.388539,-14.988473 2.800711,-3.150848 6.63336,-5.461817 10.19802,-6.149096 2.318043,-0.446927 2.333585,-0.442916 0.945404,0.243926 -0.699262,0.345979 -1.739839,1.001318 -2.312398,1.456308 -1.14116,0.906836 -2.600369,2.535252 -3.123694,3.4859 l -0.334214,0.607118 0.88841,-0.835589 c 3.393636,-3.191874 7.108981,-4.218722 12.04161,-3.328066 0.571517,0.103195 1.062203,0.16551 1.090412,0.138476 0.09897,-0.09483 -0.979592,-2.074656 -1.616314,-2.966942 -1.245576,-1.745513 -2.828906,-3.079654 -4.835324,-4.074325 -1.695867,-0.840713 -3.224533,-1.192169 -5.193809,-1.194105 -0.893206,-8.91e-4 -1.07607,-0.04004 -1.136876,-0.243508 -0.03985,-0.133353 -1.076322,-3.609205 -2.303276,-7.724112 -3.111273,-10.434507 -2.74433,-9.351295 -3.169555,-9.356474 -0.747511,-0.0091 -1.2708,-0.829645 -0.951986,-1.492748 0.410568,-0.853954 1.368984,-0.916587 1.956226,-0.127844 0.255332,0.342949 0.266706,0.431754 0.106427,0.831294 -0.09869,0.246032 -0.189792,0.521231 -0.202443,0.611551 -0.02466,0.176203 6.971769,9.651639 7.060811,9.562597 0.02927,-0.02927 -0.290092,-0.967842 -0.709682,-2.08572 -0.419591,-1.117878 -0.762891,-2.094261 -0.762891,-2.169734 0,-0.07547 0.268355,-0.137223 0.596344,-0.137223 1.48648,0 2.799753,-1.573108 3.752886,-4.495396 0.591552,-1.813694 0.597349,-1.952378 0.09911,-2.371623 -1.059795,-0.89176 -0.02503,-2.442435 1.205275,-1.806211 0.657186,0.339844 0.780935,1.038708 0.293626,1.658217 l -0.287468,0.365461 0.636445,0.957353 c 1.859786,2.797513 3.597598,3.70236 5.250379,2.733764 1.566924,-0.918279 3.042304,-3.942961 4.111854,-8.429728 l 0.45234,-1.897551 -0.43519,-0.366188 c -0.33333,-0.280478 -0.435196,-0.4782866 -0.435196,-0.8450931 0,-1.0181594 1.167882,-1.5278125 1.876716,-0.8189786 0.489257,0.489257 0.454622,1.1043313 -0.09088,1.6139057 -0.493739,0.461221 -0.493802,0.459367 0.09685,2.825962 1.031062,4.131239 2.569023,7.189069 3.98489,7.922897 1.280147,0.663486 2.290986,0.437834 3.623812,-0.808967 0.857561,-0.8022 2.146741,-2.532975 2.146741,-2.882071 0,-0.09045 -0.09352,-0.257971 -0.207822,-0.372274 -0.293746,-0.293747 -0.266993,-1.199934 0.04373,-1.481129 0.138354,-0.12521 0.44759,-0.266862 0.687197,-0.314782 0.36322,-0.07265 0.505658,-0.01712 0.856838,0.334068 0.545916,0.545916 0.547623,1.030151 0.0056,1.572224 -0.480742,0.480742 -0.485214,0.516062 -0.204124,1.613251 0.83518,3.260037 2.401418,5.292889 4.077979,5.292889 0.307843,0 0.559719,0.02582 0.559719,0.0574 0,0.05311 -1.154853,3.222926 -1.518643,4.16835 -0.139982,0.363785 -0.134934,0.389716 0.04048,0.207826 0.110228,-0.114302 1.763424,-2.309926 3.673768,-4.879164 3.458883,-4.651878 3.472508,-4.672939 3.27216,-5.057042 -0.291464,-0.558766 -0.24952,-0.975147 0.137175,-1.361847 0.420695,-0.420695 1.017542,-0.441589 1.511653,-0.05292 0.75083,0.590604 0.329994,1.840076 -0.657846,1.953174 l -0.399436,0.04571 -1.966751,6.581085 c -1.081715,3.619596 -2.237898,7.500704 -2.569301,8.624685 l -0.602543,2.043599 h -1.140919 c -3.78019,0 -7.441935,1.883257 -9.775854,5.027775 -0.7496,1.009945 -1.893357,3.08272 -1.767723,3.203547 0.031,0.02982 0.52398,-0.04147 1.095497,-0.15843 1.495859,-0.306117 4.780079,-0.303799 6.006578,0.0042 2.173934,0.545987 4.095102,1.599228 5.891997,3.230167 0.764655,0.694037 0.853713,0.743871 0.660046,0.369362 -0.448695,-0.867682 -1.936626,-2.550073 -3.042906,-3.440592 -0.623421,-0.501833 -1.694616,-1.188351 -2.380435,-1.525596 -1.18256,-0.581511 -1.214749,-0.608783 -0.623474,-0.528183 0.342912,0.04675 1.049777,0.171474 1.57082,0.277178 7.834892,1.589477 14.711166,9.517058 17.262961,19.902273 l 0.382307,1.555913 1.557215,0.03929 1.55721,0.03929 -0.08791,1.207655 c -0.288296,3.960358 -1.347588,8.183139 -2.926969,11.668113 -0.293543,0.647718 -0.6504,1.379457 -0.793016,1.626091 -0.292176,0.50527 -0.196039,0.524661 -1.706702,-0.344274 l -0.849108,-0.488409 0.606837,-1.307465 c 0.333759,-0.719108 0.893944,-2.097806 1.244853,-3.063777 l 0.638015,-1.756307 -0.169322,-0.969844 c -0.231694,-1.327093 -1.015515,-4.025014 -1.524791,-5.24835 -1.433435,-3.443267 -3.929315,-6.477899 -6.838561,-8.314703 -0.465431,-0.293858 -0.419564,-0.195222 0.423968,0.911792 2.442444,3.205346 4.101174,7.160926 4.840385,11.542868 0.452476,2.682227 0.310949,6.878684 -0.317269,9.40749 -0.167128,0.67275 -0.170794,0.838448 -0.02074,0.936099 0.100305,0.06526 0.634387,0.369252 1.186848,0.67554 0.552467,0.306288 1.004482,0.593118 1.004482,0.637403 0,0.17612 -1.901175,2.792998 -2.844636,3.9155 -1.205134,1.433839 -3.333298,3.505478 -4.828639,4.700385 -1.185597,0.947398 -3.05419,2.242846 -3.231216,2.240118 -0.123791,-0.0021 -1.287834,-1.96118 -1.287834,-2.167635 0,-0.07296 0.275498,-0.326846 0.612215,-0.564191 0.66999,-0.472249 0.933339,-0.958793 1.591662,-2.940616 0.670518,-2.018546 0.894761,-3.557198 0.889383,-6.102536 -0.0037,-1.796969 -0.06578,-2.552837 -0.289689,-3.533 -0.268412,-1.174972 -0.842993,-2.912056 -0.931181,-2.815181 -0.02215,0.0243 0.01005,0.574146 0.07151,1.221865 0.365964,3.856637 -1.141531,8.50109 -3.967138,12.222374 -1.535211,2.021861 -4.867821,5.049005 -6.479627,5.885714 -0.848324,0.440374 -0.07688,0.328386 1.599977,-0.23226 0.936344,-0.313064 2.374199,-0.888195 3.195235,-1.278073 0.821031,-0.389873 1.514758,-0.683317 1.541611,-0.652097 0.02686,0.03121 0.335738,0.555541 0.686416,1.165159 l 0.637592,1.108395 -0.929841,0.469855 c -3.782022,1.911099 -9.756081,3.472205 -13.308341,3.477656 l -0.740374,0.001 0.0476,-1.990331 0.04765,-1.990332 0.484921,-0.713882 c 0.604371,-0.889724 1.552524,-1.563238 3.661494,-2.600898 l 1.645613,-0.809678 -0.679227,-0.09069 c -0.373572,-0.0499 -1.038566,-0.132405 -1.477757,-0.183393 -0.964391,-0.111956 -0.930783,-0.278975 0.08005,-0.39778 0.409243,-0.04807 1.237097,-0.247284 1.839672,-0.442642 3.81695,-1.237454 6.746543,-3.985769 8.215952,-7.707556 0.702236,-1.778657 0.732577,-2.108808 0.0936,-1.018468 -1.048594,1.789298 -2.981361,3.670484 -4.833418,4.704437 -0.834128,0.465667 -3.38873,1.40309 -3.505477,1.286342 -0.0321,-0.0321 0.198327,-0.228223 0.512051,-0.435834 1.339576,-0.886493 3.237892,-3.126323 4.48475,-5.291586 0.76442,-1.327474 1.634973,-3.714346 1.938716,-5.315569 0.196317,-1.034894 0.309273,-4.157773 0.150387,-4.157773 -0.03624,0 -0.270062,0.125675 -0.51956,0.279278 -0.249499,0.153602 -0.951007,0.437628 -1.558907,0.631168 -0.929129,0.295811 -1.370047,0.351891 -2.766701,0.351891 -1.803588,0 -1.855099,0.07433 -0.373813,0.53943 0.568684,0.178558 1.267893,0.27647 1.974324,0.27647 0.60159,0 1.093795,0.05384 1.093795,0.119639 0,0.378582 -0.307639,1.685431 -0.498321,2.116846 -0.220897,0.499787 -0.232962,0.505553 -1.25939,0.601737 -1.113757,0.104369 -2.442666,0.01084 -3.990356,-0.280802 -0.532463,-0.100337 -0.984017,-0.166537 -1.00345,-0.147104 -0.01943,0.01943 0.416223,0.290285 0.968125,0.601904 0.937553,0.529369 1.744331,0.822828 3.081687,1.120937 l 0.554194,0.123534 -0.692742,0.324538 c -0.938439,0.439635 -2.417997,0.52265 -3.418614,0.191802 -1.920231,-0.634905 -3.637966,-2.364129 -4.187883,-4.215898 -0.274335,-0.923781 -0.277005,-1.289884 -0.01581,-2.169364 0.268146,-0.90294 0.956542,-1.582775 2.322091,-2.293212 1.301983,-0.677367 2.301081,-1.708067 2.76193,-2.84929 0.303571,-0.751754 0.321673,-0.974061 0.324328,-3.982825 0.0021,-2.308122 0.05111,-3.272571 0.178057,-3.498366 0.337744,-0.60078 0.76244,-0.75102 2.204128,-0.779731 2.049745,-0.04082 2.858324,-0.605945 3.382639,-2.36418 0.353935,-1.186895 0.872098,-1.741064 1.624756,-1.737666 1.125602,0.0051 2.259284,1.136929 2.755987,2.751531 0.343672,1.117138 0.301529,3.47145 -0.08835,4.935667 -0.316018,1.186833 -1.17715,3.10411 -1.649053,3.671552 l -0.288055,0.346373 0.126346,-0.554197 c 0.28517,-1.250864 0.04414,-3.36662 -0.496802,-4.360693 -0.176837,-0.324974 -0.19084,-0.279796 -0.195992,0.632341 -0.0067,1.188905 -0.416428,2.868865 -0.937151,3.842589 -0.816093,1.52606 -2.405361,2.757098 -4.144084,3.209977 -0.431923,0.112503 -0.812302,0.231535 -0.845287,0.264517 -0.131426,0.131429 1.589462,0.253826 2.580972,0.18357 1.190216,-0.08434 2.530132,-0.526711 3.713938,-1.226159 1.047908,-0.619153 2.547532,-2.118168 3.102141,-3.100881 l 0.445809,-0.789934 0.331581,1.148525 c 0.421444,1.459781 1.248995,3.053732 2.045105,3.93908 l 0.621034,0.69064 -0.279142,-0.831294 c -0.402991,-1.200122 -0.773992,-2.953051 -1.011635,-4.779864 -0.213157,-1.638567 -0.266632,-2.271311 -0.5036,-5.958514 -0.101871,-1.585173 -0.227206,-2.437319 -0.478071,-3.250411 -0.187006,-0.606098 -0.316898,-1.125108 -0.288652,-1.153354 0.02822,-0.02825 0.165808,0.009 0.305686,0.08283 0.667408,0.352136 2.466068,0.614963 3.776629,0.551856 1.877757,-0.09042 2.152328,-0.282927 0.824796,-0.578276 -2.318357,-0.515785 -4.810131,-1.657086 -7.335325,-3.359781 -2.856795,-1.926289 -3.962734,-2.326813 -6.433111,-2.329787 -1.924933,-0.0023 -3.064119,0.280201 -4.414325,1.094753 -0.714243,0.430888 -1.862011,1.322868 -1.702214,1.322868 0.0322,0 0.455209,-0.185447 0.940025,-0.412105 2.032057,-0.950011 4.757813,-1.267503 6.631277,-0.772402 1.873532,0.495117 3.378372,1.650732 4.294278,3.297704 l 0.443207,0.79698 -0.69768,-0.36197 c -0.908507,-0.471349 -2.153187,-0.57888 -3.29996,-0.285089 -0.467133,0.119674 -1.606015,0.535866 -2.530849,0.924872 -2.858283,1.202262 -3.792794,1.361047 -4.890093,0.83089 -0.314352,-0.151879 -0.599014,-0.248679 -0.632585,-0.215111 -0.03357,0.03357 0.07832,0.286507 0.24864,0.562088 0.327239,0.529483 1.116124,1.103464 1.727511,1.256913 0.362586,0.091 0.36355,0.09462 0.103201,0.38654 -0.469871,0.526844 -0.820219,1.245941 -1.072048,2.200413 -0.210869,0.799224 -0.229348,1.183638 -0.126524,2.632433 0.219886,3.098292 0.143291,4.078403 -0.369703,4.730566 -0.272444,0.346355 -0.339006,0.360429 -1.704743,0.360429 -1.232139,0 -1.510134,0.04501 -2.08949,0.338317 L 52.861979,66.3345 52.294457,66.034749 C 51.849318,65.79964 51.399314,65.719211 50.207748,65.661794 l -1.519188,-0.0732 -0.309624,-0.460435 c -0.452691,-0.67319 -0.524823,-1.507278 -0.331628,-3.834588 0.149481,-1.800664 0.143931,-2.212872 -0.04153,-3.086272 -0.218671,-1.02974 -0.840768,-2.364622 -1.15888,-2.486693 -0.298942,-0.114715 -0.197286,-0.288901 0.222399,-0.381079 0.493661,-0.108426 1.476207,-0.932525 1.755302,-1.472241 0.246624,-0.476918 0.214404,-0.48508 -0.492111,-0.124643 -1.079107,0.550519 -2.041649,0.358831 -5.611242,-1.117472 -1.740613,-0.71988 -1.845364,-0.745045 -3.117353,-0.748926 -1.19432,-0.0037 -1.377022,0.03173 -1.972768,0.381924 l -0.656553,0.385939 0.131001,-0.344566 c 0.421864,-1.109583 1.678577,-2.460088 2.886397,-3.10182 2.260797,-1.201187 5.133721,-1.191092 8.067157,0.02835 l 1.17393,0.488006 -0.553038,-0.488589 c -1.256436,-1.11001 -3.026803,-1.813279 -4.899225,-1.946187 -2.414912,-0.171415 -4.176283,0.39397 -6.911397,2.218504 -2.915952,1.945167 -5.312239,3.039104 -7.795236,3.558631 l -0.900574,0.188429 0.5542,0.168967 c 1.156466,0.35259 4.264205,0.120344 5.242095,-0.39175 0.371347,-0.194466 0.412448,-0.06693 0.167417,0.519512 -0.395597,0.946803 -0.607351,2.185159 -0.697723,4.080425 -0.209549,4.394386 -0.689081,7.909535 -1.369497,10.038869 -0.193756,0.606348 -0.331041,1.12369 -0.305084,1.149648 0.02597,0.02596 0.337582,-0.314276 0.692501,-0.756077 0.777888,-0.968313 1.477212,-2.370436 1.895127,-3.799666 l 0.308985,-1.0567 0.644624,0.987472 c 1.652096,2.530757 4.548893,4.127036 7.423874,4.090925 1.731528,-0.02175 2.164953,-0.240835 0.908501,-0.459229 -0.928411,-0.161375 -2.214788,-0.92627 -3.033762,-1.803912 -1.305737,-1.39928 -1.952749,-3.099789 -1.980293,-5.204702 l -0.01362,-1.039118 -0.369462,0.76202 c -0.34132,0.703977 -0.369461,0.897105 -0.369461,2.535501 0,1.762336 -0.0016,1.771478 -0.263506,1.454766 -0.405819,-0.490852 -1.146836,-2.167829 -1.494131,-3.381339 -0.441385,-1.542274 -0.441967,-4.332355 -0.001,-5.458148 0.870511,-2.223127 2.990913,-3.096619 3.894099,-1.604162 0.141951,0.234572 0.357523,0.775165 0.479041,1.201319 0.453947,1.591953 1.258274,2.11165 3.32089,2.145706 1.66659,0.02752 2.011273,0.21703 2.272422,1.249416 0.13527,0.534744 0.136956,1.067326 0.008,2.503081 -0.349704,3.891602 0.597904,6.126979 3.118243,7.355849 1.571521,0.766243 2.304422,1.612645 2.499707,2.886824 0.09957,0.649685 -0.17349,1.848818 -0.620567,2.725166 -0.475888,0.93281 -1.906014,2.261017 -2.984566,2.771854 -0.859362,0.407023 -1.065717,0.447888 -2.261855,0.447888 -1.11981,0 -1.418888,-0.0509 -2.004282,-0.341079 l -0.688066,-0.341075 0.826614,-0.167819 c 1.234929,-0.250708 2.114803,-0.573842 3.074445,-1.129074 0.474285,-0.274414 0.842076,-0.519199 0.817313,-0.543963 -0.02477,-0.02477 -0.506338,0.05863 -1.070163,0.185331 -0.672336,0.151078 -1.686212,0.23315 -2.946051,0.238475 -1.740635,0.0073 -1.939192,-0.01686 -2.115704,-0.258275 -0.227634,-0.311252 -0.430135,-1.011786 -0.554235,-1.917201 l -0.08825,-0.643815 h 1.112631 c 1.03622,0 2.527943,-0.328822 3.061878,-0.674932 0.11459,-0.07428 -0.454393,-0.125906 -1.454764,-0.131999 -1.793575,-0.01092 -2.861287,-0.243455 -4.175283,-0.909309 -0.917027,-0.46469 -0.933317,-0.432537 -0.809982,1.598211 0.293349,4.829892 2.895215,9.921255 6.44239,12.606533 0.489441,0.370514 0.825336,0.673666 0.746438,0.673666 -0.277257,0 -2.330097,-0.731603 -3.015231,-1.074583 -1.991337,-0.996873 -3.748723,-2.584099 -5.041532,-4.55337 -0.77052,-1.173699 -0.842872,-1.179967 -0.450323,-0.03901 1.000455,2.907867 3.115232,5.550793 5.684223,7.103819 1.265584,0.765079 3.435434,1.561148 4.620758,1.695255 1.375362,0.155603 0.9886,0.335079 -1.195776,0.554896 l -0.954772,0.09608 1.956845,0.960013 c 2.233997,1.095979 3.215097,1.87371 3.713293,2.943553 0.285887,0.613918 0.324061,0.902884 0.325255,2.462052 l 0.0016,1.766503 -0.935208,-0.02215 c -0.514366,-0.0122 -1.153424,-0.04451 -1.420129,-0.07176 z M 30.064357,82.001769 c -0.05473,-2.24402 0.08277,-3.531305 0.59417,-5.562654 0.538485,-2.138939 1.562442,-4.666813 2.505536,-6.185491 l 0.372504,-0.599849 -0.407762,0.21086 c -0.515167,0.266403 -1.880611,1.734252 -2.469241,2.654432 -0.246948,0.386039 -0.60547,1.072955 -0.796723,1.526479 l -0.34773,0.824587 -0.11657,-0.553561 c -0.206852,-0.982307 -0.119832,-6.098905 0.129494,-7.613917 0.12489,-0.758909 0.202904,-1.404009 0.173359,-1.433554 -0.172066,-0.172067 -1.087333,2.125101 -1.452161,3.644685 -0.477485,1.988797 -0.59949,3.307647 -0.523404,5.657715 0.107459,3.318937 0.652228,5.841329 1.790842,8.291965 0.312133,0.671796 0.574481,1.221451 0.583001,1.221451 0.0085,0 -0.0074,-0.937418 -0.03529,-2.083148 z m 46.932323,-1.03421 c 1.644516,-5.042108 1.422064,-11.218995 -0.54091,-15.019825 -0.467745,-0.905677 -0.493278,-0.759516 -0.185613,1.062493 0.250755,1.484988 0.334911,5.642402 0.141742,7.002125 l -0.114156,0.803547 -0.578005,-1.150633 c -0.856593,-1.705228 -2.180831,-3.304357 -3.225005,-3.894472 -0.08421,-0.04759 0.260825,0.737663 0.76675,1.745016 0.995904,1.982955 1.640863,3.810894 2.112782,5.988022 0.245204,1.131205 0.302282,1.865305 0.310996,3.999804 l 0.01068,2.614308 0.447025,-0.951719 c 0.245864,-0.523446 0.63004,-1.512846 0.853722,-2.198666 z M 53.333113,45.090958 c 0.812689,-2.418456 1.918335,-4.119925 4.059504,-6.247139 1.733047,-1.72176 3.139859,-2.755612 5.396457,-3.965814 l 1.545831,-0.829018 -0.879455,0.08753 c -2.538269,0.252629 -5.401201,1.597871 -7.329585,3.444049 -0.323857,0.310052 -0.588834,0.49124 -0.588834,0.402638 0,-0.0886 0.151057,-0.577244 0.335681,-1.085873 0.429712,-1.183857 1.210464,-2.314517 2.06426,-2.989403 1.292338,-1.021535 -0.260447,-0.429575 -1.671565,0.63724 -0.982535,0.742805 -2.492004,2.65824 -2.975297,3.775488 -0.17393,0.402084 -0.350997,0.732126 -0.393486,0.733427 -0.04247,0.0013 -0.185791,-0.243662 -0.318463,-0.544361 -0.797342,-1.807223 -2.804634,-4.038943 -4.274819,-4.752779 -1.069797,-0.51943 -1.213272,-0.478355 -0.483953,0.138549 1.151638,0.974131 2.291368,2.852543 2.307769,3.803476 0.0064,0.369807 -0.0016,0.366691 -0.651651,-0.254923 -1.63182,-1.560407 -3.778928,-2.653639 -6.191741,-3.152619 -1.900756,-0.393085 -1.954781,-0.296369 -0.321694,0.575907 2.930766,1.565403 5.530376,3.695947 7.178617,5.883326 0.959375,1.273183 2.261379,3.825419 2.503546,4.907526 0.09146,0.408691 0.194169,0.715193 0.228249,0.681117 0.03409,-0.03407 0.241355,-0.595831 0.460629,-1.248344 z m 0.05116,-13.057844 c 0.571376,-0.904363 1.914748,-2.311405 2.984047,-3.125488 0.495311,-0.377096 1.63525,-1.044734 2.53319,-1.483642 l 1.632616,-0.798012 -0.635643,-0.08713 c -1.734016,-0.237669 -4.012465,-1.547224 -5.867392,-3.372318 l -1.159555,-1.140914 -1.037163,1.037163 c -1.8104,1.8104 -3.832795,3.027123 -5.71869,3.440503 -0.766394,0.167987 -0.848963,0.213277 -0.5542,0.303958 0.79056,0.243214 2.834115,1.368434 3.840639,2.114725 1.150586,0.853107 2.281749,2.030472 2.981356,3.10312 0.236077,0.361959 0.465488,0.657997 0.509805,0.657861 0.0443,-1.37e-4 0.265266,-0.292558 0.490985,-0.649826 z m -1.218,56.971492 c -1.442175,-2.203882 -1.686714,-2.999715 -1.574669,-5.124682 0.07878,-1.494121 0.07514,-1.519759 -0.16972,-1.195232 -0.407855,0.540559 -0.741536,1.800598 -0.829431,3.132088 l -0.08232,1.246943 -0.517602,-1.316216 C 48.351942,84.11853 48.156065,83.209379 48.216405,82.145144 l 0.04676,-0.825153 -0.623468,-0.08872 C 46.81191,81.113487 46.115288,80.713926 45.712276,80.125778 45.53114,79.861423 45.41102,79.617046 45.445351,79.582716 c 0.03435,-0.03435 0.308299,0.0058 0.608822,0.08903 0.864107,0.239501 2.239076,0.04844 4.068658,-0.565391 2.318849,-0.777971 3.240541,-0.779338 5.538989,-0.0082 1.906265,0.63955 3.036946,0.800677 3.969997,0.565731 0.357255,-0.08996 0.68184,-0.131279 0.721297,-0.09182 0.118277,0.118277 -0.661329,1.054223 -1.100682,1.32141 -0.224918,0.136783 -0.705954,0.288092 -1.068969,0.336247 l -0.660024,0.08755 0.06346,0.765184 c 0.07646,0.922096 -0.243063,2.351671 -0.850152,3.803597 l -0.434488,1.039121 -0.09664,-1.146271 c -0.119481,-1.417165 -0.435452,-2.538379 -0.851722,-3.022321 l -0.316746,-0.36824 0.134489,1.154737 c 0.228972,1.965987 -0.142197,3.303291 -1.489811,5.367708 -0.350327,0.536663 -0.685259,1.005603 -0.744296,1.042091 -0.05904,0.0365 -0.406117,-0.390235 -0.771284,-0.948273 z M 18.405854,61.180863 c 0,-2.252015 0.845308,-6.56536 1.851408,-9.447169 0.695915,-1.993334 1.976816,-4.779945 2.197158,-4.779945 0.203428,0 2.907914,1.587253 2.969636,1.742868 0.03262,0.08226 -0.203553,0.581032 -0.524828,1.108393 -1.804148,2.961399 -3.291488,7.512939 -3.652341,11.176838 l -0.0921,0.935207 H 19.78032 18.405858 Z m 66.223785,0.637297 c -0.01608,-0.646355 -0.471013,-3.355745 -0.763367,-4.545987 -0.664847,-2.706738 -1.938076,-5.819141 -3.165366,-7.737702 -0.284929,-0.445417 -0.498887,-0.826088 -0.475459,-0.845935 0.205596,-0.174173 3.001888,-1.734787 3.108378,-1.734787 0.154555,0 0.365518,0.407151 1.246644,2.405969 1.497624,3.397351 2.607715,8.021676 2.715121,11.310395 l 0.03844,1.177667 -1.350855,0.03966 c -0.742971,0.02181 -1.352071,-0.0094 -1.353558,-0.06927 z M 25.329558,45.767868 c -0.870589,-0.49983 -1.607711,-0.933598 -1.63804,-0.963928 -0.17667,-0.176668 1.984147,-3.099519 3.707946,-5.015592 0.67065,-0.745454 1.672277,-1.756479 2.225844,-2.24672 l 1.006487,-0.89135 -0.0891,-1.048339 c -0.04901,-0.576586 -0.179685,-1.921198 -0.290395,-2.988026 -0.110711,-1.066829 -0.298078,-2.906068 -0.416371,-4.0872 -0.118292,-1.18113 -0.28221,-2.790491 -0.364261,-3.576354 -0.141349,-1.353787 -0.08161,-2.062632 0.100378,-1.191084 0.04629,0.221729 1.030031,3.551668 2.186067,7.399872 l 2.101885,6.996731 0.481968,-0.06928 c 0.265082,-0.0381 1.198955,-0.06422 2.075278,-0.05805 1.871076,0.01318 3.141583,0.360868 4.679921,1.280715 0.976209,0.58372 2.867963,2.082468 2.762128,2.188302 -0.03388,0.03386 -0.677865,-0.102924 -1.43111,-0.303974 -2.52126,-0.672954 -5.420366,-0.609201 -7.881349,0.173316 -2.049033,0.651528 -4.415974,2.173189 -6.26579,4.028159 -0.702911,0.704868 -1.298396,1.281579 -1.323301,1.281579 -0.02493,0 -0.757585,-0.408952 -1.62818,-0.908782 z m 52.233717,-0.277319 c -2.502692,-2.527179 -5.041218,-3.956541 -8.099121,-4.56036 -1.726135,-0.340843 -4.196648,-0.23629 -6.089251,0.2577 -0.756602,0.197481 -1.398372,0.336328 -1.426152,0.308548 -0.09451,-0.09452 1.274356,-1.23086 2.280351,-1.892985 2.207866,-1.453171 4.423321,-1.895104 7.44007,-1.484121 0.224588,0.0306 0.32039,-0.143947 0.588316,-1.071846 1.081898,-3.746913 4.117226,-13.776498 4.157191,-13.736533 0.02639,0.02639 -0.115281,1.631547 -0.314792,3.567063 -0.199506,1.935511 -0.498709,4.921921 -0.664889,6.636467 l -0.302152,3.117356 0.766462,0.68977 c 1.124078,1.011609 2.684035,2.637361 3.592285,3.743802 0.883723,1.07656 2.647529,3.51052 2.64568,3.650896 -10e-4,0.07987 -3.209902,1.960344 -3.345135,1.960344 -0.02985,0 -0.582823,-0.533745 -1.228863,-1.186101 z"
         id="path1" /></g></g></svg>
