<?xml version="1.0" encoding="UTF-8" standalone="no"?>
<!-- Created with Inkscape (http://www.inkscape.org/) -->

<svg
   width="105.83334mm"
   height="105.83334mm"
   viewBox="0 0 105.83333 105.83333"
   version="1.1"
   id="svg1"
   xml:space="preserve"
   inkscape:version="1.4.2 (ebf0e940d0, 2025-05-08)"
   sodipodi:docname="sacramento.svg"
   inkscape:export-filename="../pngs/NBL.png"
   inkscape:export-xdpi="96"
   inkscape:export-ydpi="96"
   xmlns:inkscape="http://www.inkscape.org/namespaces/inkscape"
   xmlns:sodipodi="http://sodipodi.sourceforge.net/DTD/sodipodi-0.dtd"
   xmlns="http://www.w3.org/2000/svg"
   xmlns:svg="http://www.w3.org/2000/svg"><sodipodi:namedview
     id="namedview1"
     pagecolor="#ffffff"
     bordercolor="#000000"
     borderopacity="0.25"
     inkscape:showpageshadow="2"
     inkscape:pageopacity="0.0"
     inkscape:pagecheckerboard="0"
     inkscape:deskcolor="#d1d1d1"
     inkscape:document-units="mm"
     inkscape:zoom="1.0179897"
     inkscape:cx="350.20001"
     inkscape:cy="149.31389"
     inkscape:window-width="1920"
     inkscape:window-height="1011"
     inkscape:window-x="0"
     inkscape:window-y="32"
     inkscape:window-maximized="1"
     inkscape:current-layer="layer1"
     showgrid="false" /><defs
     id="defs1" /><g
     inkscape:label="Capa 1"
     inkscape:groupmode="layer"
     id="layer1"><g
       id="g4"
       transform="matrix(0.92679113,0,0,0.92679113,-106.20825,34.435201)"><g
         id="g3"
         transform="translate(3.7747862,11.17603)"><path
           style="fill:#ffffff;fill-opacity:1;stroke:none;stroke-width:3.90001;stroke-dasharray:none"
           d="m 165.56119,-20.532706 -7.01751,13.2552912 25.47095,30.9290128 c 0,0 6.7576,-3.3788 6.7576,-4.678338 0,-1.299539 2.07926,-13.2552912 2.07926,-13.2552912 L 200.1289,2.339169 c 0,0 2.85899,-5.9778764 0.77973,-7.2774147 -2.07926,-1.2995383 -12.21566,-7.2774143 -12.21566,-7.2774143 0,0 2.07926,-2.33917 -0.25991,-3.3788 -2.33917,-1.039631 -22.87187,-4.938246 -22.87187,-4.938246 z"
           id="path2" /><path
           style="fill:#5a2d81;fill-opacity:1;stroke:#ffffff;stroke-width:3.9;stroke-dasharray:none"
           d="m 160.39304,42.19199 c -5.89976,-0.529997 -11.55561,-2.886202 -16.20387,-6.750459 -0.99973,-0.831116 -2.95222,-2.773587 -3.78969,-3.770255 -4.11921,-4.902226 -6.71566,-10.946443 -7.5557,-17.588745 -0.19198,-1.517986 -0.21074,-5.0576801 -0.0351,-6.6326691 0.13589,-1.2189153 0.0998,-1.276317 0.34357,0.545726 0.14083,1.052382 0.62766,3.2679501 0.95008,4.3238291 0.84538,2.768441 2.23334,5.595501 3.83342,7.808079 4.70065,6.500026 12.33976,11.160383 22.48767,13.718946 2.51584,0.634313 5.4608,1.183431 7.75627,1.446241 l 0.90206,0.103278 -0.26171,0.467698 c -1.30183,2.326415 -3.43595,4.360558 -6.2484,5.955693 -0.8064,0.45736 -0.95414,0.482631 -2.17855,0.372638 z m 7.82604,-1.306123 c 1.99436,-1.90642 3.70618,-4.467532 4.42801,-6.62489 0.45031,-1.345884 0.57763,-2.243885 0.52184,-3.680731 -0.16515,-4.253133 -2.44981,-7.938158 -7.37024,-11.887759 -2.20557,-1.770397 -4.16971,-3.074377 -10.10729,-6.710171 -2.86414,-1.753811 -5.42661,-3.4351641 -6.71663,-4.4070881 -3.96121,-2.9844408 -5.88569,-5.6575727 -6.64842,-9.2347913 -0.22923,-1.0750804 -0.20537,-3.4268208 0.0469,-4.617681 0.57845,-2.7311154 1.93075,-5.4540056 3.95042,-7.9542916 0.364,-0.450616 0.79772,-0.949502 0.96383,-1.108635 l 0.30202,-0.289333 v -8.476694 -8.476694 l 1.64482,1.692579 c 0.90466,0.930919 1.68833,1.692579 1.74149,1.692579 0.0532,0 0.99292,-0.895688 2.08836,-1.990417 l 1.99172,-1.990418 0.65413,0.626103 c 0.35977,0.344356 1.12329,1.076975 1.6967,1.628041 l 1.04256,1.001939 -2.00861,1.978564 -2.00861,1.978565 0.92354,0.0247 0.92353,0.0247 1.25937,-1.284688 c 0.69265,-0.706579 2.29013,-2.337592 3.54995,-3.624473 l 2.29058,-2.339785 1.98423,2.031968 1.98422,2.031969 2.03968,-2.038401 2.03967,-2.038401 0.57006,0.541762 c 0.31353,0.29797 1.07819,1.027776 1.69924,1.621792 l 1.12918,1.080029 -1.98974,1.971554 c -1.09437,1.084355 -1.98975,1.986785 -1.98975,2.0054 0,0.01861 0.40673,0.03384 0.90386,0.03384 h 0.90385 l 3.33602,-3.281352 3.33601,-3.281352 v 6.132682 6.132683 l 0.35682,0.0939 c 2.9665,0.780679 7.30239,2.233082 10.51572,3.522482 0.6003,0.240879 1.1787,0.471632 1.28533,0.512785 0.19234,0.07423 0.18886,0.08464 -0.43848,1.308682 -0.34781,0.678623 -0.62396,1.240399 -0.61368,1.248392 0.0103,0.008 0.39651,0.154992 0.85828,0.326665 4.10987,1.527936 8.46916,4.102028 11.11458,6.5629798 l 0.7038,0.6547287 -0.0537,0.7589748 c -0.16614,2.3464674 -0.87252,5.24265463 -1.71954,7.0501398 -1.02247,2.1819104 -2.24055,3.2994158 -3.8995,3.5775262 -0.53394,0.089512 -0.68005,0.1582299 -1.25362,0.5895888 -0.35708,0.2685473 -0.70406,0.5189447 -0.77105,0.5564388 -0.10327,0.057789 -0.10729,0.1704308 -0.0265,0.739606 0.15818,1.113736 0.12628,5.7527691 -0.0484,7.0422801 -0.44873,3.311961 -1.28411,6.223516 -2.62964,9.1651 -2.17916,4.764039 -5.77668,9.114709 -10.08708,12.198851 -0.85831,0.614127 -2.39708,1.608468 -2.48915,1.608468 -0.0205,0 0.0979,-0.19835 0.26292,-0.440778 0.86513,-1.270599 1.60842,-3.257983 1.92784,-5.154615 0.22528,-1.33761 0.20335,-4.011845 -0.0463,-5.642831 -0.72068,-4.708953 -2.5535,-8.274894 -6.0501,-11.771073 -2.58213,-2.581823 -4.7368,-4.131813 -10.96151,-7.885287 -4.80194,-2.8955504 -6.57964,-4.1608186 -8.09886,-5.76432777 -2.54215,-2.68319823 -3.80059,-5.57701033 -3.7922,-8.72029913 0.003,-1.1912598 0.15028,-2.1996671 0.4658,-3.1932411 0.19551,-0.615683 0.19679,-0.634702 0.0327,-0.48685 -0.30946,0.278856 -1.39489,1.9863343 -1.77908,2.7986295 -1.10991,2.3467282 -1.21703,4.7376935 -0.3119,6.9618708 0.75557,1.85664123 2.28783,3.7733166 4.46865,5.5897302 0.7089,0.5904537 3.20576,2.4153822 4.27125,3.1218171 0.2078,0.1377715 1.07676,0.6595483 1.93103,1.1595043 5.39066,3.1548411 8.61743,5.3156791 10.87254,7.2809011 3.70299,3.226978 5.61991,6.417538 6.44581,10.728583 0.15172,0.791955 0.18423,1.252268 0.18083,2.560714 -0.004,1.440475 -0.0268,1.692596 -0.23811,2.59935 -0.30705,1.317817 -0.54959,1.981067 -1.15614,3.161611 -1.2029,2.341204 -3.4054,4.579833 -5.95358,6.051234 -0.85786,0.495358 -1.75783,0.71336 -4.58166,1.109835 l -0.34934,0.04905 z m 17.7811,-21.221753 c 0.73884,-0.585703 1.87651,-1.799557 2.33491,-2.491277 1.45544,-2.196267 1.80473,-4.679405 0.85286,-6.063173 l -0.27413,-0.398525 0.28295,-0.455229 c 0.49182,-0.7912491 0.95622,-2.0807851 0.95832,-2.6610691 l 0.001,-0.27481 -0.6087,0.41321 c -1.46187,0.992386 -2.46068,1.388678 -3.37098,1.337483 -0.56183,-0.0316 -0.58912,-0.04356 -0.90098,-0.394976 -0.41132,-0.4635 -1.27709,-2.214412 -1.49789,-3.0292919 -0.0936,-0.345398 -0.17016,-0.8763808 -0.17016,-1.1799619 0,-0.6703215 0.16406,-0.9601145 1.12417,-1.9856692 1.56056,-1.66692857 2.94971,-2.33290417 4.83683,-2.31882827 1.14297,0.00853 1.90118,0.1846029 3.10335,0.720677 l 0.80069,0.35705147 0.0247,0.754249 c 0.0136,0.414837 -0.0142,1.0727735 -0.0618,1.4620813 -0.0476,0.3893077 -0.0731,0.7211798 -0.0568,0.7374934 0.0628,0.062789 1.46025,-1.0352473 1.91126,-1.5017408 l 0.47402,-0.4903097 0.5094,0.1305016 c 0.62924,0.1612038 1.07822,0.066251 1.37945,-0.2917299 0.29863,-0.3549093 0.95784,-1.73169497 1.1066,-2.31117897 0.19297,-0.75170473 0.16637,-1.27960063 -0.0904,-1.79493883 -0.25685,-0.5154203 -0.70717,-0.8520975 -2.0222,-1.5118921 -0.92879,-0.4659975 -1.38655,-0.816111 -1.5956,-1.2203616 -0.13405,-0.2592346 -0.20138,-1.1621664 -0.0947,-1.2695648 0.0311,-0.031357 0.57898,0.060179 1.21739,0.203413 1.16991,0.2624833 2.48492,0.5102181 2.70943,0.5104303 0.19148,1.81e-4 -0.36881,-0.5364897 -1.27778,-1.2239225 -2.37816,-1.7985487 -6.1976,-3.5419885 -10.65335,-4.8628785 l -0.72728,-0.215601 0.48509,-1.025644 c 0.6055,-1.280224 0.73357,-1.632315 0.6295,-1.730584 -0.14338,-0.135389 -2.05839,-0.858523 -3.81594,-1.440953 -2.03131,-0.673153 -4.26093,-1.291703 -6.29684,-1.746899 -2.33931,-0.523033 -2.59143,-0.554904 -4.36581,-0.551909 -1.37144,0.0023 -1.76229,0.03198 -2.40798,0.182765 -0.86031,0.200902 -1.7553,0.535506 -2.23063,0.833949 l -0.31478,0.197641 -0.48282,-0.393712 c -1.42351,-1.160796 -3.02892,-1.902296 -4.61115,-2.129769 -1.74134,-0.250347 -3.47521,0.609499 -4.15398,2.059997 -0.22901,0.489372 -0.25389,0.617391 -0.22479,1.156542 0.0492,0.910928 0.33028,1.443247 1.22671,2.322979 0.55291,0.542614 0.95796,0.846264 1.65778,1.242793 0.50936,0.288605 0.95329,0.524736 0.98651,0.524736 0.19356,0 -0.085,-1.634459 -0.44815,-2.629523 -0.13482,-0.369405 -0.39668,-0.913372 -0.58193,-1.208814 -0.18524,-0.295443 -0.3368,-0.553877 -0.3368,-0.574298 0,-0.116818 1.46733,-0.0193 1.94923,0.129546 1.00208,0.309512 1.98509,1.124786 2.39824,1.989037 0.12607,0.263703 0.12358,0.271094 -0.2239,0.665851 -0.8382,0.952249 -1.23532,2.485535 -1.01968,3.9370415 0.26088,1.7560569 1.31638,3.9047025 2.67107,5.4374114 2.19005,2.4778455 6.00959,4.59258813 10.26988,5.6860717 l 1.05836,0.2716489 -0.38294,0.3473983 c -0.21062,0.1910691 -0.4698,0.4418508 -0.57595,0.5572929 -0.33421,0.3634606 -0.78022,1.3567892 -0.88025,1.9604478 -0.23119,1.3951848 0.42778,3.1607234 1.83317,4.9115134 0.66598,0.8296571 2.35847,2.4770551 3.43942,3.3477991 1.59306,1.283265 2.63006,2.727916 3.15256,4.391862 0.16487,0.525054 0.1957,0.796977 0.19002,1.676198 -0.005,0.763998 -0.0449,1.149406 -0.14693,1.41685 -0.0771,0.202057 -0.14015,0.401568 -0.14015,0.443358 0,0.09888 0.82766,-0.429673 1.46927,-0.938285 z M 183.54089,-7.9629249 C 182.07768,-9.37041 179.64125,-10.590882 176.94157,-11.2687 l -1.08642,-0.27277 0.95858,-0.465867 c 0.52722,-0.256226 1.1006,-0.510499 1.27419,-0.565051 0.17359,-0.05455 0.29404,-0.134104 0.26766,-0.176784 -0.17746,-0.287139 -1.92456,-1.25067 -3.06003,-1.687613 l -0.62968,-0.242311 0.67166,0.04908 c 1.33879,0.09783 3.36882,0.602532 4.94926,1.230478 1.0628,0.422276 2.81698,1.32296 2.81642,1.446093 -2.3e-4,0.05115 -0.14253,0.280628 -0.31621,0.509945 l -0.31579,0.41694 0.36724,0.547651 c 0.47607,0.7099464 0.87012,1.5040286 1.0851,2.1866765 0.1639,0.5204353 0.27094,0.9266095 0.24268,0.9208684 -0.007,-0.00147 -0.28862,-0.2676696 -0.62534,-0.5915608 z M 169.46048,32.536397 c -11.55551,-1.545095 -21.18382,-5.652103 -27.12268,-11.569323 -2.01474,-2.007402 -3.34288,-3.814813 -4.48247,-6.100038 -1.81967,-3.648959 -2.47861,-7.5780501 -2.15211,-12.8324545 0.17702,-2.84885787 0.4293,-4.0164224 1.31233,-6.0734852 0.58803,-1.369855 1.78241,-3.2856561 2.73874,-4.3929716 l 0.35071,-0.4060832 -0.20403,0.6716627 c -0.97375,3.2056656 -1.01123,6.1000252 -0.11501,8.88269443 0.34375,1.06730067 1.30892,2.96640847 1.98885,3.91333397 1.2994,1.8096563 2.84321,3.3886603 4.83114,4.9412653 1.55429,1.2139291 2.29872,1.7003511 8.5817,5.6074241 6.33835,3.941505 9.22905,6.032381 11.5442,8.350064 1.14675,1.148002 2.04334,2.31275 2.61247,3.393818 0.94867,1.802016 1.17337,3.208042 0.82274,5.148194 -0.10249,0.567085 -0.0768,0.550114 -0.70658,0.465899 z"
           id="path1-3" /><path
           style="fill:#5a2d81;fill-opacity:1"
           d="m 160.39304,42.19199 c -5.89976,-0.529997 -11.55561,-2.886202 -16.20387,-6.750459 -0.99973,-0.831116 -2.95222,-2.773587 -3.78969,-3.770255 -4.11921,-4.902226 -6.71566,-10.946443 -7.5557,-17.588745 -0.19198,-1.517986 -0.21074,-5.0576801 -0.0351,-6.6326691 0.13589,-1.2189153 0.0998,-1.276317 0.34357,0.545726 0.14083,1.052382 0.62766,3.2679501 0.95008,4.3238291 0.84538,2.768441 2.23334,5.595501 3.83342,7.808079 4.70065,6.500026 12.33976,11.160383 22.48767,13.718946 2.51584,0.634313 5.4608,1.183431 7.75627,1.446241 l 0.90206,0.103278 -0.26171,0.467698 c -1.30183,2.326415 -3.43595,4.360558 -6.2484,5.955693 -0.8064,0.45736 -0.95414,0.482631 -2.17855,0.372638 z m 7.82604,-1.306123 c 1.99436,-1.90642 3.70618,-4.467532 4.42801,-6.62489 0.45031,-1.345884 0.57763,-2.243885 0.52184,-3.680731 -0.16515,-4.253133 -2.44981,-7.938158 -7.37024,-11.887759 -2.20557,-1.770397 -4.16971,-3.074377 -10.10729,-6.710171 -2.86414,-1.753811 -5.42661,-3.4351641 -6.71663,-4.4070881 -3.96121,-2.9844408 -5.88569,-5.6575727 -6.64842,-9.2347913 -0.22923,-1.0750804 -0.20537,-3.4268208 0.0469,-4.617681 0.57845,-2.7311154 1.93075,-5.4540056 3.95042,-7.9542916 0.364,-0.450616 0.79772,-0.949502 0.96383,-1.108635 l 0.30202,-0.289333 v -8.476694 -8.476694 l 1.64482,1.692579 c 0.90466,0.930919 1.68833,1.692579 1.74149,1.692579 0.0532,0 0.99292,-0.895688 2.08836,-1.990417 l 1.99172,-1.990418 0.65413,0.626103 c 0.35977,0.344356 1.12329,1.076975 1.6967,1.628041 l 1.04256,1.001939 -2.00861,1.978564 -2.00861,1.978565 0.92354,0.0247 0.92353,0.0247 1.25937,-1.284688 c 0.69265,-0.706579 2.29013,-2.337592 3.54995,-3.624473 l 2.29058,-2.339785 1.98423,2.031968 1.98422,2.031969 2.03968,-2.038401 2.03967,-2.038401 0.57006,0.541762 c 0.31353,0.29797 1.07819,1.027776 1.69924,1.621792 l 1.12918,1.080029 -1.98974,1.971554 c -1.09437,1.084355 -1.98975,1.986785 -1.98975,2.0054 0,0.01861 0.40673,0.03384 0.90386,0.03384 h 0.90385 l 3.33602,-3.281352 3.33601,-3.281352 v 6.132682 6.132683 l 0.35682,0.0939 c 2.9665,0.780679 7.30239,2.233082 10.51572,3.522482 0.6003,0.240879 1.1787,0.471632 1.28533,0.512785 0.19234,0.07423 0.18886,0.08464 -0.43848,1.308682 -0.34781,0.678623 -0.62396,1.240399 -0.61368,1.248392 0.0103,0.008 0.39651,0.154992 0.85828,0.326665 4.10987,1.527936 8.46916,4.102028 11.11458,6.5629798 l 0.7038,0.6547287 -0.0537,0.7589748 c -0.16614,2.3464674 -0.87252,5.24265463 -1.71954,7.0501398 -1.02247,2.1819104 -2.24055,3.2994158 -3.8995,3.5775262 -0.53394,0.089512 -0.68005,0.1582299 -1.25362,0.5895888 -0.35708,0.2685473 -0.70406,0.5189447 -0.77105,0.5564388 -0.10327,0.057789 -0.10729,0.1704308 -0.0265,0.739606 0.15818,1.113736 0.12628,5.7527691 -0.0484,7.0422801 -0.44873,3.311961 -1.28411,6.223516 -2.62964,9.1651 -2.17916,4.764039 -5.77668,9.114709 -10.08708,12.198851 -0.85831,0.614127 -2.39708,1.608468 -2.48915,1.608468 -0.0205,0 0.0979,-0.19835 0.26292,-0.440778 0.86513,-1.270599 1.60842,-3.257983 1.92784,-5.154615 0.22528,-1.33761 0.20335,-4.011845 -0.0463,-5.642831 -0.72068,-4.708953 -2.5535,-8.274894 -6.0501,-11.771073 -2.58213,-2.581823 -4.7368,-4.131813 -10.96151,-7.885287 -4.80194,-2.8955504 -6.57964,-4.1608186 -8.09886,-5.76432777 -2.54215,-2.68319823 -3.80059,-5.57701033 -3.7922,-8.72029913 0.003,-1.1912598 0.15028,-2.1996671 0.4658,-3.1932411 0.19551,-0.615683 0.19679,-0.634702 0.0327,-0.48685 -0.30946,0.278856 -1.39489,1.9863343 -1.77908,2.7986295 -1.10991,2.3467282 -1.21703,4.7376935 -0.3119,6.9618708 0.75557,1.85664123 2.28783,3.7733166 4.46865,5.5897302 0.7089,0.5904537 3.20576,2.4153822 4.27125,3.1218171 0.2078,0.1377715 1.07676,0.6595483 1.93103,1.1595043 5.39066,3.1548411 8.61743,5.3156791 10.87254,7.2809011 3.70299,3.226978 5.61991,6.417538 6.44581,10.728583 0.15172,0.791955 0.18423,1.252268 0.18083,2.560714 -0.004,1.440475 -0.0268,1.692596 -0.23811,2.59935 -0.30705,1.317817 -0.54959,1.981067 -1.15614,3.161611 -1.2029,2.341204 -3.4054,4.579833 -5.95358,6.051234 -0.85786,0.495358 -1.75783,0.71336 -4.58166,1.109835 l -0.34934,0.04905 z m 17.7811,-21.221753 c 0.73884,-0.585703 1.87651,-1.799557 2.33491,-2.491277 1.45544,-2.196267 1.80473,-4.679405 0.85286,-6.063173 l -0.27413,-0.398525 0.28295,-0.455229 c 0.49182,-0.7912491 0.95622,-2.0807851 0.95832,-2.6610691 l 0.001,-0.27481 -0.6087,0.41321 c -1.46187,0.992386 -2.46068,1.388678 -3.37098,1.337483 -0.56183,-0.0316 -0.58912,-0.04356 -0.90098,-0.394976 -0.41132,-0.4635 -1.27709,-2.214412 -1.49789,-3.0292919 -0.0936,-0.345398 -0.17016,-0.8763808 -0.17016,-1.1799619 0,-0.6703215 0.16406,-0.9601145 1.12417,-1.9856692 1.56056,-1.66692857 2.94971,-2.33290417 4.83683,-2.31882827 1.14297,0.00853 1.90118,0.1846029 3.10335,0.720677 l 0.80069,0.35705147 0.0247,0.754249 c 0.0136,0.414837 -0.0142,1.0727735 -0.0618,1.4620813 -0.0476,0.3893077 -0.0731,0.7211798 -0.0568,0.7374934 0.0628,0.062789 1.46025,-1.0352473 1.91126,-1.5017408 l 0.47402,-0.4903097 0.5094,0.1305016 c 0.62924,0.1612038 1.07822,0.066251 1.37945,-0.2917299 0.29863,-0.3549093 0.95784,-1.73169497 1.1066,-2.31117897 0.19297,-0.75170473 0.16637,-1.27960063 -0.0904,-1.79493883 -0.25685,-0.5154203 -0.70717,-0.8520975 -2.0222,-1.5118921 -0.92879,-0.4659975 -1.38655,-0.816111 -1.5956,-1.2203616 -0.13405,-0.2592346 -0.20138,-1.1621664 -0.0947,-1.2695648 0.0311,-0.031357 0.57898,0.060179 1.21739,0.203413 1.16991,0.2624833 2.48492,0.5102181 2.70943,0.5104303 0.19148,1.81e-4 -0.36881,-0.5364897 -1.27778,-1.2239225 -2.37816,-1.7985487 -6.1976,-3.5419885 -10.65335,-4.8628785 l -0.72728,-0.215601 0.48509,-1.025644 c 0.6055,-1.280224 0.73357,-1.632315 0.6295,-1.730584 -0.14338,-0.135389 -2.05839,-0.858523 -3.81594,-1.440953 -2.03131,-0.673153 -4.26093,-1.291703 -6.29684,-1.746899 -2.33931,-0.523033 -2.59143,-0.554904 -4.36581,-0.551909 -1.37144,0.0023 -1.76229,0.03198 -2.40798,0.182765 -0.86031,0.200902 -1.7553,0.535506 -2.23063,0.833949 l -0.31478,0.197641 -0.48282,-0.393712 c -1.42351,-1.160796 -3.02892,-1.902296 -4.61115,-2.129769 -1.74134,-0.250347 -3.47521,0.609499 -4.15398,2.059997 -0.22901,0.489372 -0.25389,0.617391 -0.22479,1.156542 0.0492,0.910928 0.33028,1.443247 1.22671,2.322979 0.55291,0.542614 0.95796,0.846264 1.65778,1.242793 0.50936,0.288605 0.95329,0.524736 0.98651,0.524736 0.19356,0 -0.085,-1.634459 -0.44815,-2.629523 -0.13482,-0.369405 -0.39668,-0.913372 -0.58193,-1.208814 -0.18524,-0.295443 -0.3368,-0.553877 -0.3368,-0.574298 0,-0.116818 1.46733,-0.0193 1.94923,0.129546 1.00208,0.309512 1.98509,1.124786 2.39824,1.989037 0.12607,0.263703 0.12358,0.271094 -0.2239,0.665851 -0.8382,0.952249 -1.23532,2.485535 -1.01968,3.9370415 0.26088,1.7560569 1.31638,3.9047025 2.67107,5.4374114 2.19005,2.4778455 6.00959,4.59258813 10.26988,5.6860717 l 1.05836,0.2716489 -0.38294,0.3473983 c -0.21062,0.1910691 -0.4698,0.4418508 -0.57595,0.5572929 -0.33421,0.3634606 -0.78022,1.3567892 -0.88025,1.9604478 -0.23119,1.3951848 0.42778,3.1607234 1.83317,4.9115134 0.66598,0.8296571 2.35847,2.4770551 3.43942,3.3477991 1.59306,1.283265 2.63006,2.727916 3.15256,4.391862 0.16487,0.525054 0.1957,0.796977 0.19002,1.676198 -0.005,0.763998 -0.0449,1.149406 -0.14693,1.41685 -0.0771,0.202057 -0.14015,0.401568 -0.14015,0.443358 0,0.09888 0.82766,-0.429673 1.46927,-0.938285 z M 183.54089,-7.9629249 C 182.07768,-9.37041 179.64125,-10.590882 176.94157,-11.2687 l -1.08642,-0.27277 0.95858,-0.465867 c 0.52722,-0.256226 1.1006,-0.510499 1.27419,-0.565051 0.17359,-0.05455 0.29404,-0.134104 0.26766,-0.176784 -0.17746,-0.287139 -1.92456,-1.25067 -3.06003,-1.687613 l -0.62968,-0.242311 0.67166,0.04908 c 1.33879,0.09783 3.36882,0.602532 4.94926,1.230478 1.0628,0.422276 2.81698,1.32296 2.81642,1.446093 -2.3e-4,0.05115 -0.14253,0.280628 -0.31621,0.509945 l -0.31579,0.41694 0.36724,0.547651 c 0.47607,0.7099464 0.87012,1.5040286 1.0851,2.1866765 0.1639,0.5204353 0.27094,0.9266095 0.24268,0.9208684 -0.007,-0.00147 -0.28862,-0.2676696 -0.62534,-0.5915608 z M 169.46048,32.536397 c -11.55551,-1.545095 -21.18382,-5.652103 -27.12268,-11.569323 -2.01474,-2.007402 -3.34288,-3.814813 -4.48247,-6.100038 -1.81967,-3.648959 -2.47861,-7.5780501 -2.15211,-12.8324545 0.17702,-2.84885787 0.4293,-4.0164224 1.31233,-6.0734852 0.58803,-1.369855 1.78241,-3.2856561 2.73874,-4.3929716 l 0.35071,-0.4060832 -0.20403,0.6716627 c -0.97375,3.2056656 -1.01123,6.1000252 -0.11501,8.88269443 0.34375,1.06730067 1.30892,2.96640847 1.98885,3.91333397 1.2994,1.8096563 2.84321,3.3886603 4.83114,4.9412653 1.55429,1.2139291 2.29872,1.7003511 8.5817,5.6074241 6.33835,3.941505 9.22905,6.032381 11.5442,8.350064 1.14675,1.148002 2.04334,2.31275 2.61247,3.393818 0.94867,1.802016 1.17337,3.208042 0.82274,5.148194 -0.10249,0.567085 -0.0768,0.550114 -0.70658,0.465899 z"
           id="path1" /></g><g
         id="g2"
         transform="translate(7.2774162,11.17603)"><text
           xml:space="preserve"
           style="font-style:normal;font-variant:normal;font-weight:normal;font-stretch:normal;font-size:13.3625px;line-height:1;font-family:Sportsball;-inkscape-font-specification:Sportsball;text-align:center;letter-spacing:1.24521px;word-spacing:0px;writing-mode:lr-tb;direction:ltr;text-anchor:middle;fill:#5a2d81;fill-opacity:1;stroke:#ffffff;stroke-width:7.53411;stroke-dasharray:none"
           x="186.43668"
           y="51.151146"
           id="text3-1"
           transform="skewX(-25.297107)"><tspan
             sodipodi:role="line"
             id="tspan3-5"
             style="stroke:#ffffff;stroke-width:7.53411;stroke-dasharray:none"
             x="187.05928"
             y="51.151146">ROYALS</tspan></text><text
           xml:space="preserve"
           style="font-style:normal;font-variant:normal;font-weight:normal;font-stretch:normal;font-size:13.3625px;line-height:1;font-family:Sportsball;-inkscape-font-specification:Sportsball;text-align:center;letter-spacing:1.24521px;word-spacing:0px;writing-mode:lr-tb;direction:ltr;text-anchor:middle;fill:#000000;fill-opacity:1;stroke:none;stroke-width:9.11344;stroke-dasharray:none"
           x="185.39705"
           y="50.891239"
           id="text3"
           transform="skewX(-25.297107)"><tspan
             sodipodi:role="line"
             id="tspan3"
             style="fill:#000000;stroke-width:9.11342"
             x="186.01965"
             y="50.891239">ROYALS</tspan></text></g><g
         id="g1"
         transform="translate(8.8632562,12.271769)"><text
           xml:space="preserve"
           style="font-size:5.67788px;line-height:1;font-family:'Ranked Sports';-inkscape-font-specification:'Ranked Sports';text-align:center;letter-spacing:0.377935px;word-spacing:0px;writing-mode:lr-tb;direction:ltr;text-anchor:middle;fill:#63727a;fill-opacity:1;stroke:#ffffff;stroke-width:2.76601;stroke-dasharray:none"
           x="187.89432"
           y="32.740356"
           id="text1-5"
           transform="skewX(-39.487111)"><tspan
             sodipodi:role="line"
             id="tspan1-0"
             x="188.08328"
             y="32.740356"
             style="font-style:normal;font-variant:normal;font-weight:normal;font-stretch:normal;font-family:Sportsball;-inkscape-font-specification:Sportsball;fill:#63727a;fill-opacity:1;stroke:#ffffff;stroke-width:2.76601">S<tspan
   style="font-size:4.05563px;fill:#63727a;fill-opacity:1;stroke:#ffffff;stroke-width:2.76601"
   id="tspan2-3">acrament</tspan>O</tspan></text><text
           xml:space="preserve"
           style="font-size:5.67788px;line-height:1;font-family:'Ranked Sports';-inkscape-font-specification:'Ranked Sports';text-align:center;letter-spacing:0.377935px;word-spacing:0px;writing-mode:lr-tb;direction:ltr;text-anchor:middle;fill:#63727a;fill-opacity:1;stroke:none;stroke-width:2.76601;stroke-dasharray:none"
           x="187.89432"
           y="32.740356"
           id="text1"
           transform="skewX(-39.487111)"><tspan
             sodipodi:role="line"
             id="tspan1"
             x="188.08328"
             y="32.740356"
             style="font-style:normal;font-variant:normal;font-weight:normal;font-stretch:normal;font-family:Sportsball;-inkscape-font-specification:Sportsball;fill:#63727a;fill-opacity:1;stroke-width:2.76601">S<tspan
   style="font-size:4.05563px;fill:#63727a;fill-opacity:1;stroke-width:2.76601"
   id="tspan2">acrament</tspan>O</tspan></text></g></g></g></svg>
