<?xml version="1.0" encoding="UTF-8" standalone="no"?>
<!-- Created with Inkscape (http://www.inkscape.org/) -->

<svg
   width="105.83334mm"
   height="105.83334mm"
   viewBox="0 0 105.83333 105.83333"
   version="1.1"
   id="svg1"
   xml:space="preserve"
   inkscape:version="1.4.2 (ebf0e940d0, 2025-05-08)"
   sodipodi:docname="sacramento.svg"
   inkscape:export-filename="../pngs/NBL.png"
   inkscape:export-xdpi="96"
   inkscape:export-ydpi="96"
   xmlns:inkscape="http://www.inkscape.org/namespaces/inkscape"
   xmlns:sodipodi="http://sodipodi.sourceforge.net/DTD/sodipodi-0.dtd"
   xmlns="http://www.w3.org/2000/svg"
   xmlns:svg="http://www.w3.org/2000/svg"><sodipodi:namedview
     id="namedview1"
     pagecolor="#ffffff"
     bordercolor="#000000"
     borderopacity="0.25"
     inkscape:showpageshadow="2"
     inkscape:pageopacity="0.0"
     inkscape:pagecheckerboard="0"
     inkscape:deskcolor="#d1d1d1"
     inkscape:document-units="mm"
     inkscape:zoom="0.50899485"
     inkscape:cx="-330.06228"
     inkscape:cy="45.187098"
     inkscape:window-width="1920"
     inkscape:window-height="1011"
     inkscape:window-x="0"
     inkscape:window-y="32"
     inkscape:window-maximized="1"
     inkscape:current-layer="layer1"
     showgrid="false" /><defs
     id="defs1" /><g
     inkscape:label="Capa 1"
     inkscape:groupmode="layer"
     id="layer1"><g
       id="g9"
       transform="matrix(0.53787003,0,0,0.53787003,139.41418,50.445641)"><g
         id="g8"
         transform="matrix(0.65968125,0,0,0.65968125,-56.442889,32.768491)"><path
           style="fill:#5a2d81;fill-opacity:1;stroke:#ffffff;stroke-width:8.6;stroke-dasharray:none"
           d="m -187.24992,86.875315 c 10.01963,-0.89384 17.98574,-3.84125 26.18284,-9.6875 5.23352,-3.7326 8.04255,-6.16484 10.65231,-9.22346 3.65049,-4.27835 5.12721,-8.08699 5.12721,-13.22368 0,-4.04672 -1.31443,-7.64648 -7.38981,-20.23814 -1.68511,-3.4925 -3.50135,-7.03969 -4.03609,-7.88264 -2.03099,-3.20159 -0.29954,-1.83336 4.4098,3.48473 14.03865,15.85333 17.20311,26.40295 10.98112,36.60866 -1.16522,1.91126 -4.13764,5.29176 -13.51354,15.36877 l -2.58355,2.77674 2.62645,-0.24385 c 9.6926,-0.89992 19.71876,-3.71181 27.97763,-7.84646 6.38844,-3.19825 8.08028,-5.32454 9.21018,-11.57524 1.02457,-5.66803 1.67638,-8.35283 1.95519,-8.05349 0.55906,0.60023 1.40736,5.46859 1.62807,9.34346 0.28846,5.06432 -0.27726,10.2126 -1.69162,15.39432 -0.598,2.19083 -1.01297,4.05762 -0.92218,4.14842 0.23608,0.23607 7.75584,-2.08673 10.68308,-3.29992 3.42866,-1.42102 13.876738,-6.98435 18.050778,-9.61158 7.37945,-4.64479 13.94674,-10.60548 18.7263,-16.9966 1.4067,-1.88101 2.55764,-3.50412 2.55764,-3.6069 0,-0.10279 -1.65874,-1.02173 -3.68608,-2.0421 l -3.68608,-1.85521 2.67047,-4.58611 c 1.46875,-2.52236 3.61781,-6.37205 4.77568,-8.55486 2.42567,-4.57287 2.48705,-4.48303 -2.14614,-3.14106 -1.57171,0.45523 -2.91764,0.76771 -2.99095,0.69439 -0.0733,-0.0733 -0.008,-0.80296 0.14439,-1.62144 0.60124,-3.22195 0.7692,-8.20451 0.34538,-10.24599 -0.23346,-1.12457 -1.37031,-4.36291 -2.52634,-7.1963 -2.47538,-6.0670573 -2.69595,-7.2568253 -1.90766,-10.2900433 1.32295,-5.090488 7.81204,-17.5582537 10.57828,-20.3244987 2.19648,-2.196478 7.79813,-5.81881 8.99833,-5.81881 0.55587,0 0.44872,1.71018 -0.52793,8.425897 -0.49053,3.373062 -0.82087,6.2038467 -0.73408,6.2906307 0.27628,0.276286 6.32121,-2.8870117 9.09929,-4.7616367 5.52468,-3.728017 8.26915,-6.723569 10.99449,-12.000342 1.42656,-2.762074 1.93033,-3.398957 3.52666,-4.458544 2.34358,-1.55558 3.79531,-3.355995 5.51649,-6.841507 1.64956,-3.340461 2.03441,-4.709872 2.43537,-8.665619 l 0.31052,-3.06361 3.68491,-3.778705 c 3.79449,-3.891081 4.16111,-4.540746 4.16111,-7.373575 0,-1.753879 -0.28255,-2.124174 -4.30232,-5.638316 -9.68038,-8.462733 -18.9996,-14.44224 -29.60548,-18.995816 l -3.03974,-1.305097 -0.23011,-2.518963 c -0.32959,-3.607847 -1.50732,-5.765483 -5.27011,-9.655045 l -3.1531,-3.259325 1.26862,-1.40421 c 2.96865,-3.28594 4.61634,-8.43611 4.63334,-14.48233 0.01,-3.44756 -0.10486,-4.30868 -0.76263,-5.7329 -0.99658,-2.15783 -3.96269,-5.28761 -6.25288,-6.59793 -1.9257,-1.10177 -7.61337,-3.61661 -7.61337,-3.3663 0,0.0831 0.63543,1.13423 1.41206,2.33584 2.67223,4.13445 4.59836,9.38663 4.57394,12.47226 -0.0106,1.34225 -0.0398,1.38042 -0.54449,0.71264 -0.29331,-0.38805 -1.50022,-2.53118 -2.68204,-4.7625 -2.74115,-5.17541 -4.47507,-7.73186 -7.1464,-10.53648 -2.73001,-2.86621 -5.46132,-4.97124 -8.75652,-6.74865 -3.46664,-1.86988 -5.76468,-2.62712 -11.32145,-3.73056 -7.919998,-1.57272 -17.497118,-3.94022 -22.089888,-5.4607 -9.43932,-3.12498 -13.86939,-5.96989 -19.83624,-12.73847 l -2.85084,-3.2339 0.25912,1.72796 c 0.43124,2.87567 1.99024,8.67972 2.83548,10.55625 1.14606,2.54436 2.70605,4.52001 4.83874,6.12799 1.02601,0.77358 5.83422,3.84589 10.68491,6.82735 4.8507,2.98145 9.80666,6.09138 11.01326,6.91094 4.90915,3.33446 12.177248,9.62676 11.686498,10.1175 -0.10173,0.10173 -2.869538,-1.42078 -6.150688,-3.38335 -31.93155,-19.09942 -39.97355,-22.67712 -53.04218,-23.59723 -5.6328,-0.39658 -13.18567,-0.044 -19.04001,0.88883 -6.94306,1.10631 -16.92188,4.24503 -22.42734,7.05425 -9.19084,4.68974 -21.47141,14.58658 -27.43057,22.10615 -2.12464,2.68098 -6.61591,9.64258 -6.61591,10.25485 0,0.16357 2.74279,-1.13295 6.09508,-2.88116 7.15042,-3.72892 13.13681,-6.19341 22.33353,-9.19431 11.62504,-3.79326 18.5089,-5.2571 26.11552,-5.55342 5.07607,-0.19774 8.9299,0.21318 14.60031,1.55677 3.14598,0.74543 12.76557,4.82784 11.73201,4.97888 -0.43538,0.0636 -3.37225,-0.37335 -6.52638,-0.97106 -12.24836,-2.32108 -17.76624,-2.43057 -26.29318,-0.52175 -4.89369,1.09549 -14.5067,4.1673 -19.37227,6.19035 -8.05245,3.34811 -23.24602,11.6579 -27.97803,15.301965 -2.51446,1.936353 -6.62824,6.134233 -8.64239,8.819063 -3.32693,4.434733 -5.11582,8.686224 -6.67969,15.875001 -0.50651,2.328333 -1.00255,4.600127 -1.1023,5.048431 -0.16912,0.760055 -0.0436,0.722721 1.85918,-0.552864 3.0959,-2.075456 11.90711,-7.221261 15.15646,-8.851473 3.69714,-1.854876 8.89143,-4.006926 9.3236,-3.86287 0.18389,0.06129 -0.97963,1.141845 -2.58559,2.401222 -17.83115,13.982965 -20.43814,16.595778 -33.43601,33.51061 -4.95731,6.451203 -8.70623,10.173255 -11.64152,11.558077 -5.40282,2.548966 -9.90913,2.43942 -17.40417,-0.423089 l -2.41112,-0.920856 0.79615,1.118094 c 2.97249,4.174467 8.76362,9.528152 12.31637,11.386023 5.02806,2.629371 12.40425,4.258829 18.16805,4.013467 3.98454,-0.16962 6.9504,-1.03438 12.43542,-3.625807 1.79476,-0.847943 3.26319,-1.440513 3.26319,-1.316823 0,0.123691 -1.10766,2.070978 -2.46147,4.327305 -3.28422,5.473645 -4.088,7.336859 -4.78918,11.1016637 -0.85989,4.616963 -0.57014,9.00200605 0.8479,12.832035 2.98613,8.0652803 8.22143,12.9537103 24.21803,22.6133903 9.62428,5.81171 14.04606,8.94514 19.83025,14.05242 2.51951,2.22467 5.85931,6.27466 6.92834,8.40161 0.83275,1.65686 1.25905,5.26689 0.98421,8.33457 -0.13473,1.50372 -0.15274,2.73403 -0.04,2.73403 0.11271,0 0.91801,-0.45223 1.78957,-1.00495 6.40684,-4.0631 6.97192,-12.01267 2.00874,-28.2586 -2.17046,-7.10453 -3.45955,-12.01279 -3.15363,-12.00755 0.44343,0.008 6.3711,9.40428 8.45411,13.40166 4.83162,9.27208 7.46529,19.54446 7.46996,29.13593 0.002,5.03395 -0.71743,8.34401 -2.65917,12.2269 -1.73898,3.47743 -3.49672,5.76176 -7.87248,10.23092 l -3.71312,3.79236 3.15468,-0.0492 c 1.73507,-0.0271 4.51224,-0.1703 6.17148,-0.31831 z m 89.150998,-17.98847 c 0.86535,-4.05325 0.94004,-5.06224 0.95227,-12.86487 0.0125,-7.98928 -0.17288,-10.40694 -0.79805,-10.40694 -0.14778,0 -1.29346,2.06909 -2.545948,4.59797 -2.13611,4.31299 -2.29691,4.5371 -2.59447,3.61597 -0.17447,-0.5401 -0.31839,-3.76012 -0.31982,-7.15561 -0.003,-6.2036 0.67074,-11.89559 2.06562,-17.4614 0.6175,-2.46391 1.932788,-5.91961 2.164788,-5.68761 0.0878,0.0878 0.46377,2.17634 0.83544,4.64115 0.80789,5.3577 2.49347,10.5951 4.94735,15.3723 1.56327,3.04337 2.15397,3.81125 4.49706,5.84605 1.48357,1.28837 2.74405,2.45678 2.80107,2.59646 0.11011,0.26973 -0.96473,2.17375 -3.43613,6.08693 -0.83288,1.31877 -1.41582,2.49627 -1.29542,2.61666 0.12039,0.1204 2.00466,-0.29594 4.18728,-0.92518 9.83913,-2.83661 9.08366,-2.65256 9.08366,-2.213 0,0.52944 -6.13385,6.36574 -8.99584,8.55945 -3.72299,2.85367 -11.98257,7.68515 -12.40901,7.25872 -0.0434,-0.0434 0.3437,-2.05804 0.86015,-4.47705 z m 14.26789,-25.26866 c -0.52533,-0.41917 -0.87576,-0.83355 -0.77875,-0.92084 0.097,-0.0873 2.3592,-0.88341 5.02709,-1.76914 3.02681,-1.0049 4.84882,-1.45454 4.84573,-1.19583 -0.006,0.53368 -2.70932,5.51532 -3.42882,6.31951 -0.51735,0.57824 -0.66741,0.54804 -2.62939,-0.52917 -1.1444,-0.62832 -2.51054,-1.48536 -3.03586,-1.90453 z m -6.04673,-8.23556 c -0.6265,-1.35921 -1.45057,-3.99603 -1.83128,-5.85961 -0.80956,-3.9629 -0.86531,-3.80496 2.63212,-7.4576 l 2.1128,-2.20656 1.74619,2.38295 c 0.96041,1.31062 2.1582,3.21639 2.66177,4.23503 0.50357,1.01865 1.02403,1.85209 1.15657,1.85209 0.13254,0 0.49634,-0.63821 0.80845,-1.41825 0.71581,-1.78897 0.73427,-5.86663 0.0383,-8.45953 -0.71763,-2.67362 -0.67905,-2.86531 0.80328,-3.99062 l 1.30674,-0.99202 0.58593,0.7236 c 0.32227,0.39798 1.09317,2.11438 1.71313,3.81424 1.00342,2.75127 1.1295,3.51673 1.1482,6.97119 0.0219,4.03865 -0.51264,7.56821 -1.3443,8.87698 -0.2667,0.4197 -0.99524,0.87518 -1.61897,1.01218 -0.62373,0.13699 -3.12943,0.85723 -5.5682,1.60052 -2.43878,0.74329 -4.60908,1.35938 -4.82289,1.36907 -0.21381,0.01 -0.90134,-1.09445 -1.52785,-2.45366 z M -105.7825,19.068455 c 1.91362,-13.8333783 4.76348,-28.8509673 6.739688,-35.515401 2.24389,-7.567139 3.75252,-11.024766 6.86137,-15.72552 2.8662,-4.33386 4.94777,-6.326583 9.5189,-9.112624 2.45425,-1.495831 2.63887,-1.537603 2.63887,-0.597048 0,0.451275 -1.11314,1.602529 -3.15518,3.263195 -1.73535,1.411257 -3.1641,2.704828 -3.175,2.874602 -0.0109,0.169775 0.42015,0.220688 0.95789,0.11314 0.53773,-0.107547 2.33964,-0.306048 4.00423,-0.441112 2.98035,-0.241824 3.02989,-0.232785 3.24695,0.592416 0.18677,0.710047 -0.28993,1.350624 -3.12229,4.195687 -1.83849,1.846735 -3.34271,3.476947 -3.34271,3.622694 0,0.322118 0.72957,0.158916 6.24364,-1.396693 4.11333,-1.160433 4.34312,-1.188002 5.20348,-0.624273 0.49506,0.324375 0.89572,0.690578 0.89036,0.813784 -0.005,0.123205 -1.39106,1.255885 -3.07933,2.517066 -5.19304,3.879333 -7.68326,6.484874 -11.04124,11.552564 -4.67153,7.0500127 -10.15112,18.2250517 -17.487468,35.663783 -2.85114,6.77726 -3.06078,6.57929 -1.90216,-1.79626 z m -20.97132,2.55769 c -1.42283,-3.99042 -7.26466,-24.8497463 -7.80507,-27.8694443 -1.03772,-5.7985777 -0.41399,-13.0351987 1.67236,-19.4027777 1.64104,-5.008481 6.22337,-12.81182 8.57816,-14.607904 1.48654,-1.133839 1.52218,-0.88392 0.34099,2.390628 -1.28069,3.550368 -2.17538,7.621088 -3.15516,14.355492 -0.81803,5.62266 -1.24916,12.425796 -0.81497,12.859985 0.11487,0.114871 1.24113,-1.903044 2.50281,-4.484256 3.83244,-7.840644 9.46369,-14.744127 16.0197,-19.638933 3.83811,-2.865585 6.73432,-4.659566 6.25507,-3.874542 -0.1598,0.261756 -2.05775,3.039382 -4.21768,6.172503 -4.82009,6.991848 -6.34415,9.880507 -8.44127,15.999249 -3.99228,11.6481967 -6.73503,22.8516097 -7.77285,31.75 -0.2895,2.48219 -1.20646,8.09241 -1.46171,8.94315 -0.28116,0.93712 -0.63287,0.40076 -1.70038,-2.59315 z m -49.21122,-5.47855 c -4.05674,-5.37471 -5.13929,-8.8457733 -4.83774,-15.51172725 0.49546,-10.95273775 4.07197,-15.80224575 15.08745,-20.45756375 3.11527,-1.316565 10.65646,-3.357095 12.39608,-3.35419 0.24583,4.11e-4 -0.82304,0.653007 -2.37526,1.450215 -3.98547,2.046905 -6.22151,3.715517 -9.99207,7.456434 -9.02947,8.9584737 -10.96149,16.8144707 -7.96013,32.367602 0.28824,1.49368 0.26972,1.4781 -2.31833,-1.95077 z m -44.5819,-8.2585113 c -2.90359,-2.787442 -6.45355,-7.74875695 -8.25332,-11.534601 -1.17318,-2.467799 -1.31608,-3.066369 -1.29401,-5.420004 0.0703,-7.4976837 6.58557,-15.5734407 16.61204,-20.5908827 7.24284,-3.624453 25.77937,-10.308296 42.08911,-15.176347 13.22973,-3.948746 23.31411,-7.725152 27.86944,-10.436569 3.13046,-1.863304 5.5142,-4.258228 9.97178,-10.018565 2.08261,-2.691258 3.78656,-4.825887 3.78656,-4.74362 0,0.737113 -2.66997,7.764699 -3.79531,9.989595 -3.34133,6.606073 -6.6404,9.617434 -15.0783,13.76337 -6.97942,3.429311 -13.55884,6.004781 -26.81111,10.495029 -19.08596,6.466865 -32.87375,12.091943 -37.72938,15.392654 -1.89599,1.288835 -5.37058,4.969391 -6.288,6.660738 -2.33769,4.3097417 -2.01692,10.6430207 1.01349,20.0104307 0.69046,2.134306 1.32586,4.1014433 1.41201,4.3714233 0.21926,0.68711 -0.51134,0.11125 -3.505,-2.7626513 z M -47.965442,-21.937482 c 1.01163,-3.05117 1.77717,-4.815199 2.13397,-4.917314 0.30603,-0.08758 1.65043,-0.269224 2.98756,-0.403647 l 2.43115,-0.244405 -0.24918,0.992829 c -0.59099,2.354671 -3.46916,6.143053 -6.17724,8.130753 -2.81021,2.062665 -2.89797,1.785414 -1.12626,-3.558216 z m -10.186,-10.068004 c -3.76576,-0.484487 -6.43654,-1.894436 -9.26196,-4.889532 -4.55395,-4.827431 -5.70577,-7.462487 -4.87826,-11.160196 0.51601,-2.305783 2.73252,-6.886545 4.26578,-8.815899 1.37314,-1.727872 0.94745,-2.233772 -1.1124,-1.32201 -1.83863,0.813843 -4.25552,2.852354 -6.68128,5.635286 -1.85731,2.130783 -4.54878,4.459684 -4.82952,4.17894 -0.0897,-0.08972 0.72867,-1.435815 1.81864,-2.991323 1.83823,-2.623339 2.30211,-3.556412 1.76811,-3.556412 -0.88455,0 -4.8663,1.308907 -8.08864,2.658952 -7.46961,3.1295 -10.76313,3.615134 -14.39367,2.122365 -2.764198,-1.136558 -4.493968,-2.373911 -7.375078,-5.275604 -2.6575,-2.676479 -6.63771,-8.425072 -7.32584,-10.580656 -1.19096,-3.730721 1.27324,-12.703539 4.95136,-18.029224 0.53602,-0.776111 2.51112,-2.919236 4.38911,-4.7625 1.87799,-1.843265 4.07541,-4.132837 4.88317,-5.087941 l 1.468638,-1.736552 -1.15283,0.230566 c -0.634058,0.126811 -3.251458,1.038481 -5.816448,2.025932 -9.47085,3.646024 -13.03841,4.953846 -13.16583,4.826428 -0.0719,-0.07185 3.00238,-3.222364 6.83162,-7.001139 8.41353,-8.302635 9.7852,-9.187095 14.610178,-9.420725 4.06176,-0.19668 6.4509,0.54549 13.50434,4.19498 6.23979,3.228512 6.36519,3.198914 4.09445,-0.9664 l -1.37809,-2.5279 2.88236,1.03365 c 1.5853,0.5685 4.46986,1.82141 6.41014,2.78424 2.96318,1.470437 4.10358,2.302925 7.12559,5.20167 2.79338,2.679437 3.79907,3.906131 4.49792,5.486352 0.49506,1.119409 0.9001,2.211237 0.9001,2.426284 0,0.215046 -0.77267,-0.331749 -1.71704,-1.215101 -1.54154,-1.441931 -5.21696,-3.668487 -5.53336,-3.352091 -0.0686,0.06858 0.26046,0.912691 0.7312,1.875802 0.90961,1.861026 1.52526,4.756083 1.00804,4.740234 -0.17032,-0.0052 -0.69547,-0.634989 -1.167,-1.399488 -1.06219,-1.722161 -5.95397,-6.704912 -6.58249,-6.704912 -0.37756,0 -0.37506,0.208893 0.0138,1.146528 0.65311,1.575005 2.14256,8.31151 1.89288,8.561186 -0.1114,0.111405 -2.16639,-0.460409 -4.56663,-1.270697 -5.57106,-1.88071 -8.22891,-2.002454 -12.58437,-0.576434 -2.46898,0.808369 -3.53944,0.958861 -6.82037,0.958861 -2.87334,0 -3.85477,0.110945 -3.75043,0.423965 0.19837,0.595105 12.54244,7.271439 13.95392,7.547024 1.0209,0.199327 8.81415,-0.578421 11.45175,-1.142857 0.89689,-0.191929 0.97014,-0.12373 0.97014,0.903184 0,1.611514 -0.79894,3.276588 -2.09576,4.367795 -1.10264,0.927804 -1.25598,0.953667 -5.65446,0.953667 -3.80415,0 -5.22335,-0.167828 -8.94957,-1.058333 -2.43566,-0.582084 -4.63555,-1.051882 -4.88864,-1.043996 -1.06975,0.03333 4.70275,4.261176 7.46794,5.469611 1.37926,0.602761 2.40166,0.689663 8.11388,0.689663 3.59468,0 6.97876,-0.123699 7.52019,-0.274887 0.54143,-0.151188 1.9195,-1.134545 3.0624,-2.185239 3.88482,-3.571429 5.43663,-3.994162 11.64412,-3.172019 4.21925,0.558813 7.77548,0.502885 7.76454,-0.12211 -0.002,-0.133632 -0.83578,-0.659502 -1.85208,-1.1686 -1.01631,-0.509097 -2.95909,-1.500009 -4.31728,-2.202025 -1.35819,-0.702017 -3.42194,-1.501699 -4.58611,-1.777072 -1.16417,-0.275373 -2.59292,-0.614263 -3.175,-0.753089 l -1.05833,-0.252412 1.05833,-0.468556 c 1.83384,-0.811896 7.02714,-0.620021 9.81123,0.362491 4.22465,1.490887 14.48548,7.552081 20.52766,12.125931 3.2842,2.486099 7.9375,6.458854 7.9375,6.776645 0,0.157483 -1.15094,0.556539 -2.55764,0.886789 -2.46559,0.578846 -9.59116,0.876082 -20.84329,0.869458 -2.89748,-0.0017 -3.78799,0.104398 -3.68213,0.438723 0.0768,0.242534 3.06658,2.291539 6.64398,4.553343 9.7778,6.182006 11.41977,7.422834 12.34117,9.326202 0.71966,1.486622 0.7502,1.785255 0.36061,3.526128 -0.53546,2.392708 -2.75215,5.752897 -4.60327,6.977909 -1.84952,1.223957 -4.0151,1.657852 -9.84562,1.972673 -7.07382,0.381953 -9.44536,0.38281 -12.38603,0.0045 z m -11.46528,-30.33489 c 4.96326,-1.436057 8.03431,-2.011822 14.11111,-2.645571 5.89715,-0.615015 15.79917,-1.918099 15.98461,-2.103541 1.00883,-1.008822 -19.29996,-1.725216 -24.62767,-0.868742 -2.38528,0.383455 -5.66182,1.692204 -6.83305,2.729327 -0.85084,0.753424 -2.69195,3.251431 -2.69195,3.652424 0,0.405939 0.0395,0.398505 4.05695,-0.763897 z M -218.218,-58.871851 c 1.58945,-3.430274 7.75727,-12.552579 10.97771,-16.236199 3.2999,-3.774505 5.72337,-5.936573 10.97634,-9.792398 5.13177,-3.766863 11.47752,-7.341342 11.45993,-6.455225 -0.003,0.148125 -1.78888,2.280342 -3.96875,4.73826 -3.82533,4.313251 -6.58464,8.196863 -6.13988,8.641618 0.11802,0.118016 2.03165,-0.142518 4.25252,-0.578965 5.63809,-1.108001 12.22047,-0.925526 18.80345,0.521263 2.55844,0.562289 4.5881,1.125266 4.51036,1.251062 -0.0777,0.125795 -2.17102,0.326519 -4.65172,0.446052 -10.4038,0.501311 -18.58481,2.581785 -27.21484,6.92088 -5.14054,2.584614 -13.22198,7.996453 -17.87719,11.971684 -1.15744,0.988376 -2.15382,1.652168 -2.21419,1.475093 -0.0604,-0.177076 0.42846,-1.483482 1.08626,-2.903125 z m 71.65275,-22.331396 c -9.1358,-2.298133 -14.81053,-7.321223 -17.87452,-15.821952 -1.07586,-2.984861 -1.68431,-8.568791 -1.16092,-10.654131 0.23013,-0.91693 0.31078,-0.94675 2.0742,-0.76695 1.00912,0.1029 4.05726,0.55335 6.77365,1.00101 4.41489,0.72758 6.09916,0.81334 15.875,0.80831 8.28588,-0.004 12.0187,-0.15111 15.40339,-0.60598 2.457,-0.3302 4.91763,-0.59154 5.46806,-0.58076 l 1.00077,0.0196 -1.00541,0.77415 c -0.55298,0.42578 -3.3311,2.65045 -6.17361,4.94371 l -5.1682,4.169557 -2.11667,-0.215884 c -1.16417,-0.118735 -6.21051,-0.6956 -11.2141,-1.28192 -5.00358,-0.586323 -9.42016,-1.016103 -9.81461,-0.955063 -0.65565,0.10145 -0.61667,0.2139 0.45437,1.310666 0.64436,0.65983 2.83303,2.484322 4.86372,4.054427 2.03068,1.570104 3.45943,2.898145 3.175,2.951202 -0.28444,0.05306 -2.14434,-0.202529 -4.13313,-0.567968 -4.03792,-0.741968 -4.15301,-0.675963 -2.68724,1.541171 2.21487,3.35023 6.04469,6.570058 11.06571,9.303243 l 2.64584,1.440254 -1.98324,0.005 c -1.09078,0.0027 -3.55141,-0.389515 -5.46806,-0.871653 z"
           id="path5-9"
           sodipodi:nodetypes="ssssssssscsssssssssssscsssscsssssssssssscsssscsscscsssssssssssscsssssscsssssssssssssssssssssssscssssssssssssssssscssccssssssscsssssssssssssssscsssssscsssssscsscsssssssssssssssssssscsssssssssssssssssssssssssssssssssssssssssssssscssssssssssssssssssscssssssscssssssssssscssssssssssssssssscsssscsssssssssssssssssssssssscsssssssssssssssssscsscsssssssssccss" /><path
           style="fill:#ffffff;fill-opacity:1;stroke-width:2.611"
           d="m -196.4902,-97.205468 -40.02578,55.620242 -2.07926,47.82301 22.87188,17.673721 18.19353,-14.5548288 27.0304,32.2285498 13.5152,-29.109658 27.55021,29.629474 24.43132,22.352061 -1.55945,10.916121 13.515204,-1.03963 19.233168,-18.193538 -4.158522,-6.237783 7.797229,-11.955753 -5.198153,-2.079262 2.07926,-12.995383 -8.317045,-26.5105824 21.312431,-21.8322446 7.277415,1.039631 -1.039633,11.955753 14.035016,-9.876492 10.396305,-15.074644 9.876492,-21.832244 -35.347443,-23.911507 -3.118892,-6.757598 -17.153906,-19.752987 -34.827626,-5.19815 -47.3032,1.55945 z"
           id="path7" /><path
           style="fill:#b3b3b3;fill-opacity:1"
           d="m -190.50983,87.256235 c 5.38689,-0.35586 10.48532,-1.17251 14.44648,-2.31398 10.39068,-2.99424 25.10314,-13.95014 28.78691,-21.43671 1.45927,-2.96567 2.39662,-7.40404 2.09077,-9.89971 -0.35936,-2.93223 -1.86339,-7.03994 -5.36053,-14.64028 -3.02743,-6.57954 -4.03043,-8.58458 -6.44131,-12.87639 -0.66923,-1.19135 -0.33075,-0.94412 2.17342,1.5875 1.63136,1.64924 4.29586,4.66549 5.92112,6.70278 10.84456,13.59386 13.06143,22.68148 7.78342,31.90648 -1.0877,1.9011 -5.60312,7.07931 -12.47613,14.30741 l -3.85764,4.05694 1.31326,0.11136 c 3.77751,0.3203 17.15683,-2.68581 23.7353,-5.33291 5.11734,-2.05917 9.71209,-4.57366 11.34946,-6.21103 1.90203,-1.90203 2.7226,-3.97891 3.72894,-9.43805 0.49498,-2.68518 1.03391,-5.35839 1.19761,-5.94048 l 0.29764,-1.05833 0.42028,1.5875 c 0.23115,0.87313 0.50952,1.82563 0.6186,2.11667 0.42621,1.13724 0.72067,10.57539 0.4234,13.57095 -0.30646,3.08807 -1.15202,7.08792 -2.23015,10.54946 l -0.53541,1.71903 1.1427,-0.22325 c 3.69019,-0.72095 9.90681,-3.16216 16.312138,-6.40562 12.10121,-6.12768 17.91459,-10.09633 24.51805,-16.73783 3.82664,-3.84868 8.29028,-9.41754 8.29028,-10.34299 0,-0.23102 -1.54781,-1.16804 -3.43958,-2.08228 -1.89177,-0.91423 -3.43959,-1.78988 -3.43959,-1.94587 0,-0.156 0.65082,-1.39236 1.44626,-2.74748 3.24204,-5.52315 7.77641,-13.95218 7.66674,-14.25187 -0.0644,-0.1761 -1.60732,0.0673 -3.42863,0.54097 -1.82131,0.47364 -3.38227,0.79035 -3.46881,0.70381 -0.0865,-0.0865 0.0362,-1.69463 0.27266,-3.57354 0.79233,-6.29485 0.4248,-8.27095 -3.17455,-17.06828 -1.82801,-4.4679313 -1.93415,-6.3480263 -0.58524,-10.3663523 1.67703,-4.995795 7.37003,-15.5961477 9.67666,-18.0179357 2.2449,-2.356976 7.96622,-6.223703 9.20877,-6.223703 0.51137,0 0.40638,1.342657 -0.73991,9.462041 -0.39231,2.778776 -0.61697,5.1486437 -0.49924,5.2663747 0.30897,0.308965 4.10704,-1.555069 7.54802,-3.7044437 6.55379,-4.093766 9.83362,-7.510952 12.89127,-13.431123 1.36906,-2.650752 1.89172,-3.318484 3.19565,-4.082638 2.19347,-1.285456 3.89905,-3.410189 5.69309,-7.092155 1.48615,-3.05008 1.84648,-4.480418 2.48685,-9.871539 0.19617,-1.651479 0.4145,-1.965762 3.61446,-5.202874 1.87312,-1.894873 3.59695,-3.882056 3.83074,-4.415961 0.23378,-0.533906 0.43222,-1.791995 0.44097,-2.795754 0.0195,-2.241165 -0.37371,-2.753608 -5.52788,-7.203333 -7.98073,-6.889973 -14.68629,-11.246773 -25.00735,-16.248003 l -6.38586,-3.09437 -0.2053,-2.44891 c -0.28948,-3.45289 -1.4736,-5.57287 -5.29212,-9.47469 l -3.18321,-3.252646 1.49638,-1.62337 c 0.823,-0.89286 1.85956,-2.44542 2.30347,-3.45013 1.32865,-3.00722 2.35375,-7.73473 2.36699,-10.9159 0.0272,-6.55004 -2.73358,-10.24446 -10.30794,-13.79367 -5.21762,-2.44489 -5.2578,-2.44484 -3.59771,0.005 1.83245,2.704 2.81988,4.67839 3.85182,7.70177 0.90887,2.66284 1.5258,6.96932 0.91064,6.35677 -0.19486,-0.19403 -1.50027,-2.49591 -2.90093,-5.11528 -4.00923,-7.49766 -6.90658,-11.11883 -11.74803,-14.68291 -4.78999,-3.52618 -8.82286,-5.17771 -15.89742,-6.51026 -2.16634,-0.40804 -6.947458,-1.45038 -10.624708,-2.31629 -17.76069,-4.18228 -24.15757,-7.63826 -32.55681,-17.58915 l -1.48884,-1.76389 0.20421,1.23472 c 0.57317,3.46558 2.32704,9.8297 3.25602,11.81488 2.01945,4.31548 3.21251,5.26492 17.7515,14.1268 9.78252,5.96269 18.86616,12.77041 20.08933,15.05592 0.210558,0.39343 0.247928,0.63948 0.083,0.54677 -0.16488,-0.0927 -4.0304,-2.39038 -8.59006,-5.10595 -19.69432,-11.72927 -30.37972,-17.39319 -36.68888,-19.44737 -11.26288,-3.66703 -25.96969,-3.75626 -39.68615,-0.24078 -11.55218,2.96078 -20.10935,7.2809 -30.16385,15.22836 -4.04843,3.20003 -11.80327,10.98311 -14.1836,14.23526 -2.30592,3.15049 -5.4042,8.39923 -5.12361,8.67983 0.10946,0.10945 2.39492,-0.98407 5.07881,-2.43006 15.79808,-8.51149 38.68623,-15.41189 51.14681,-15.41991 3.18946,-0.002 9.5989,0.91401 13.70178,1.95831 2.73729,0.69673 11.75017,4.53142 10.99738,4.67904 -0.31705,0.0622 -3.15852,-0.37264 -6.31438,-0.96625 -8.54079,-1.60651 -14.37644,-2.24933 -18.03291,-1.9864 -7.52929,0.54142 -19.71635,3.98168 -30.08516,8.49269 -8.96366,3.89969 -21.92243,11.23038 -26.918,15.227336 -6.12602,4.90141 -10.97274,11.79442 -13.02653,18.52634 -0.79541,2.60717 -2.60546,10.894582 -2.41999,11.080048 0.0643,0.06431 0.90192,-0.410544 1.86135,-1.055232 2.51468,-1.689726 12.69172,-7.717456 14.97361,-8.868666 2.57271,-1.29794 9.27735,-4.06288 9.44513,-3.8951 0.0729,0.0729 -3.80842,3.26736 -8.62507,7.09888 -11.28201,8.974581 -15.66051,13.451045 -24.47723,25.025013 -8.27571,10.863745 -10.65618,13.346494 -14.5737,15.199901 -5.00766,2.369164 -9.83829,2.362274 -16.17648,-0.02307 -1.78029,-0.670004 -3.28981,-1.165266 -3.3545,-1.100584 -0.0647,0.06468 0.54656,0.972114 1.35832,2.016513 2.13699,2.749442 7.36627,7.768529 9.7357,9.344374 4.43822,2.951745 12.38815,5.078144 18.98556,5.078144 3.36977,0 4.17435,-0.131803 7.40629,-1.21328 1.99421,-0.667305 4.9115,-1.859702 6.48287,-2.649771 1.57137,-0.790069 2.85704,-1.339138 2.85704,-1.220152 0,0.118986 -0.93061,1.748112 -2.06801,3.620281 -3.39071,5.581128 -4.54196,8.146591 -5.18542,11.5552857 -1.16961,6.196045 -0.62881,10.607604 1.94141,15.836803 3.38053,6.8778013 8.50541,11.1711113 26.10867,21.8722213 10.80697,6.56962 18.41487,12.81611 22.26966,18.28458 2.122,3.01029 2.5975,4.9637 2.36807,9.72826 -0.19405,4.0298 -0.1128,4.13047 2.06214,2.55495 1.90377,-1.37908 3.25039,-3.04636 4.31635,-5.34418 0.79664,-1.71723 0.89856,-2.38636 0.88667,-5.82083 -0.0156,-4.51084 -0.86482,-9.06702 -2.96664,-15.91673 -1.93066,-6.29193 -3.60547,-12.51301 -3.41892,-12.69957 0.18537,-0.18537 5.99902,8.67958 7.62471,11.62653 3.04642,5.52238 5.47726,12.22187 6.93655,19.11736 0.82438,3.89538 0.97337,5.46628 1.00275,10.57241 0.0309,5.36449 -0.0527,6.27505 -0.79241,8.63062 -1.66835,5.31305 -4.65285,9.80439 -10.0832,15.17409 -1.66353,1.64495 -3.0246,3.11339 -3.0246,3.26319 0,0.14981 0.35719,0.24957 0.79375,0.2217 0.43656,-0.0279 2.77812,-0.18176 5.20347,-0.34198 z m 91.636228,-14.32605 c 0.24374,-0.087 0.35456,-0.3016 0.24626,-0.47683 -0.1083,-0.17523 0.01,-0.2415 0.26238,-0.14727 0.62408,0.2328 3.29342,-1.39213 5.80017,-3.53081 3.41273,-2.91162 8.62676,-8.40122 8.4405,-8.8866 -0.0957,-0.24945 -0.0607,-0.42014 0.0779,-0.37932 0.13854,0.0408 0.64876,-0.18713 1.13383,-0.50656 1.25234,-0.8247 4.93889,-1.74074 4.93889,-1.22723 0,0.65682 -5.96105,6.31483 -9.09757,8.63509 -4.5554,3.36989 -11.56582,7.35005 -12.0691,6.85223 -0.097,-0.096 0.023,-0.24568 0.26679,-0.3327 z m 9.96377,-16.67852 c 0.20768,-0.38805 0.45698,-0.70555 0.55399,-0.70555 0.097,0 0.006,0.3175 -0.20121,0.70555 -0.20768,0.38806 -0.45698,0.70556 -0.55399,0.70556 -0.097,0 -0.006,-0.3175 0.20121,-0.70556 z m 8.01397,-10.80496 c -2.50583,-1.26246 -3.89388,-2.281 -3.54323,-2.59999 0.40621,-0.36954 9.29877,-3.28201 9.47693,-3.10386 0.31376,0.31376 -3.25281,6.63104 -3.74371,6.63104 -0.1923,0 -1.1778,-0.41724 -2.18999,-0.92719 z m 1.86381,-10.55561 c 0,-0.10665 0.23901,-0.6561 0.53113,-1.22101 0.7943,-1.536 1.58566,-5.73007 1.58454,-8.39773 -0.001,-3.1502 -0.65154,-8.2928 -1.27022,-10.04633 -0.27511,-0.77976 -0.42981,-1.48815 -0.34377,-1.57419 0.23886,-0.23886 1.83249,3.06222 2.65035,5.48998 0.92251,2.73844 1.00191,8.78107 0.16381,12.46594 -0.50491,2.2199 -0.68239,2.53406 -1.6757,2.96625 -1.21999,0.53081 -1.64014,0.61204 -1.64014,0.31709 z m -6.15974,-3.3719 c -0.26099,-1.04624 -0.57149,-2.47083 -0.69001,-3.16577 -0.11852,-0.69493 -0.75736,-2.16337 -1.41964,-3.26319 -0.66227,-1.09982 -1.11164,-1.99968 -0.99859,-1.99968 0.11305,0 0.74111,0.40849 1.39568,0.90776 2.9635,2.26037 4.13785,4.38115 3.91488,7.06992 -0.15982,1.9272 -0.84887,3.23214 -1.41024,2.67077 -0.17466,-0.17466 -0.5311,-1.17357 -0.79208,-2.21981 z m -41.612198,-10.05433 c -1.63298,-4.54569 -7.28403,-24.9944303 -7.83745,-28.3604193 -1.51399,-9.2082297 0.87965,-19.6733147 6.50198,-28.4268587 1.86961,-2.910839 4.46906,-5.745745 4.88612,-5.32869 0.13291,0.132913 0.0758,0.241661 -0.12696,0.241661 -0.60884,0 -3.03055,3.775481 -2.73178,4.2589 0.16888,0.273258 0.1243,0.346423 -0.11934,0.195846 -0.76329,-0.471738 -3.59791,10.062179 -4.49709,16.71192 -0.67573,4.997272 -0.6572,13.8042287 0.0375,17.8152777 0.30244,1.74625005 1.17221,5.55625 1.93281,8.466667 1.4024,5.3662563 1.60069,6.2721463 2.81851,12.8763863 0.77588,4.20763 0.8691,5.452 0.34071,4.54792 -0.18238,-0.31205 -0.72463,-1.66142 -1.205,-2.99861 z m -50.98185,-7.88466 c -2.32272,-3.6260403 -3.0251,-6.3879093 -3.00923,-11.8327033 0.0222,-7.617234 1.75341,-12.5043017 5.66439,-15.9901037 2.06354,-1.839205 7.35278,-4.778666 11.2135,-6.231838 3.25519,-1.225251 3.654,-1.101688 0.92402,0.286288 -1.26118,0.64121 -2.25528,1.348644 -2.2091,1.572077 0.0462,0.223432 -0.13083,0.323817 -0.39335,0.223076 -0.49401,-0.189569 -5.14979,3.336985 -6.39339,4.842718 -2.59422,3.14105 -3.43477,4.3155067 -4.52841,6.3273337 -2.37506,4.369087 -3.4976,9.831229 -2.74328,13.348504 0.21883,1.020351 1.01369,3.468958 1.76636,5.4413383 0.75267,1.97239 1.4892,3.90366 1.63675,4.29172 0.42645,1.12161 -0.30068,0.26244 -1.92826,-2.27841 z m 2.55724,-2.55024 c 0.11262,-0.28142 0.19621,-0.19783 0.21314,0.21314 0.0153,0.37189 -0.0681,0.58025 -0.18528,0.46302 -0.11723,-0.11722 -0.12976,-0.4215 -0.0279,-0.67616 z m -50.34342,-9.2128503 c -3.40509,-5.070133 -4.51195,-7.724014 -4.50885,-10.810736 0.003,-2.5505327 1.01221,-5.8036447 2.68961,-8.6659047 2.32952,-3.975024 8.46367,-9.25333 13.94283,-11.997515 6.65702,-3.334099 26.65372,-10.468327 43.39971,-15.483724 6.94713,-2.080655 16.57976,-5.392721 19.71126,-6.777487 3.98182,-1.760783 2.29576,-0.531583 -2.634,1.920286 -1.92242,0.956139 -5.08282,2.31235 -7.02309,3.013803 -1.94028,0.701453 -8.21091,2.949996 -13.93473,4.996762 -12.71073,4.545201 -14.26411,5.11961 -26.45833,9.783748 -11.88145,4.54451 -11.10329,4.193412 -15.16944,6.844366 -3.77118,2.458651 -6.22587,4.755581 -5.80682,5.433619 0.17362,0.280932 0.12698,0.349874 -0.12949,0.191371 -0.83128,-0.513761 -4.60305,6.586265 -4.13995,7.793092 0.10472,0.272902 0.0515,0.410351 -0.11823,0.305442 -0.85507,-0.528465 -0.9502,3.0543397 -0.18011,6.7835537 0.60815,2.944973 2.95744,9.645422 3.30626,9.429836 0.11791,-0.07287 0.21437,0.173354 0.21437,0.547164 0,0.373811 -0.1087,0.679655 -0.24156,0.679655 -0.13286,0 -1.44661,-1.794299 -2.91944,-3.987331 z m 50.54064,-10.923409 c 0.34841,-0.345817 0.38893,-0.305295 0.19748,0.197483 -0.13248,0.347917 -0.32974,0.543708 -0.43835,0.435092 -0.10862,-0.108615 -2.3e-4,-0.393274 0.24087,-0.632575 z m 49.03611,-4.5861107 c 0.34841,-0.345817 0.38893,-0.305296 0.19748,0.197483 -0.13248,0.347916 -0.32974,0.543708 -0.43835,0.435092 -0.10862,-0.108615 -2.3e-4,-0.393274 0.24087,-0.632575 z m 76.596548,-3.697769 c 0,-0.294183 2.86062,-9.015723 3.01868,-9.203431 0.18906,-0.224519 5.53501,-0.793631 5.71973,-0.608904 0.42433,0.424328 -2.17033,4.830188 -3.9121,6.642954 -2.29777,2.39141 -4.82631,4.051877 -4.82631,3.169381 z m -106.009718,-5.027602 c 0.11991,-0.194028 0.4071,-0.350347 0.63818,-0.347376 0.25245,0.0032 0.20894,0.141897 -0.10902,0.347376 -0.67772,0.437983 -0.79985,0.437983 -0.52916,0 z m 35.41039,-1.505185 c 0.34841,-0.345816 0.38893,-0.305295 0.19748,0.197483 -0.13248,0.347917 -0.32974,0.543709 -0.43835,0.435093 -0.10862,-0.108616 -2.2e-4,-0.393275 0.24087,-0.632576 z m 0.74933,-1.085972 c 0,-0.06694 0.35719,-0.424129 0.79375,-0.79375 l 0.79375,-0.672037 -0.67204,0.79375 c -0.63155,0.745929 -0.91546,0.954349 -0.91546,0.672037 z m 69.409028,-7.167481 c 0.24253,-0.09786 0.63941,-0.09786 0.88194,0 0.24254,0.09786 0.0441,0.177937 -0.44097,0.177937 -0.48507,0 -0.68351,-0.08007 -0.44097,-0.177937 z m -8.28293,0.0205 c 0.11722,-0.117225 0.4215,-0.129758 0.67616,-0.02785 0.28142,0.112616 0.19783,0.196209 -0.21314,0.213136 -0.37189,0.01532 -0.58025,-0.06806 -0.46302,-0.185286 z m -54.423318,0.07994 c 0,-0.07326 0.27781,-0.351069 0.61736,-0.617361 0.55952,-0.43881 0.572,-0.426332 0.13319,0.133193 -0.46086,0.587639 -0.75055,0.774516 -0.75055,0.484168 z m 71.635438,-0.484168 c 0.0119,-0.145521 0.68655,-0.757465 1.49931,-1.359876 0.81276,-0.60241 1.43413,-1.288898 1.38081,-1.525527 -0.0533,-0.236629 0.0481,-0.340607 0.22534,-0.231062 0.45594,0.281787 2.25656,-2.182061 1.95329,-2.672757 -0.1387,-0.224426 -0.0963,-0.309958 0.095,-0.191714 0.19,0.117423 0.71033,-0.532737 1.15631,-1.444798 1.0079,-2.061246 1.39147,-5.791742 0.68359,-6.648252 -0.44265,-0.535581 -0.42218,-0.549583 0.21673,-0.148234 2.34143,1.470834 2.92706,4.74517 1.43363,8.015648 -1.50979,3.3063 -3.83599,5.387652 -6.80203,6.086072 -1.78766,0.420945 -1.86689,0.426128 -1.84199,0.1205 z m -65.638218,-1.985276 c 0,-0.07326 0.27781,-0.351069 0.61736,-0.617361 0.55953,-0.43881 0.572,-0.426332 0.13319,0.133193 -0.46085,0.587639 -0.75055,0.774516 -0.75055,0.484168 z m 45.684668,-0.92516 c -0.58033,-0.220643 -1.5522,-0.780286 -2.1597,-1.243652 -0.60751,-0.463365 -1.21675,-0.730285 -1.35388,-0.593156 -0.13713,0.13713 -0.20438,0.09058 -0.14944,-0.10345 0.055,-0.194028 -0.41199,-1.144087 -1.03762,-2.111243 -0.62564,-0.967155 -1.31964,-2.395905 -1.54223,-3.175 -0.97712,-3.420099 -0.13847,-8.101721 1.93931,-10.825877 1.99299,-2.612979 5.19462,-4.193047 3.40575,-1.680799 -0.40384,0.567138 -0.62031,1.215521 -0.48105,1.440852 0.14892,0.240949 0.0999,0.314924 -0.11909,0.179603 -0.66379,-0.410249 -1.25226,3.180939 -1.06356,6.490507 0.14338,2.514661 0.3897,3.556657 1.30118,5.504458 1.25643,2.684919 2.0605,3.740541 2.59676,3.409117 0.211,-0.130407 0.25194,-0.04752 0.0989,0.200161 -0.34683,0.561182 0.48609,1.532919 1.10904,1.293872 0.28643,-0.109914 0.39506,-0.03323 0.26076,0.184079 -0.12661,0.204865 0.10327,0.459687 0.51085,0.566271 0.40757,0.106584 0.74105,0.384694 0.74105,0.618023 0,0.52171 -2.53286,0.425711 -4.057,-0.153766 z m -17.81523,-14.597058 c 0,-0.07326 0.27782,-0.351068 0.61737,-0.617361 0.55952,-0.43881 0.572,-0.426332 0.13319,0.133193 -0.46086,0.587639 -0.75056,0.774517 -0.75056,0.484168 z m -18.97824,-2.987075 c 0.10065,-0.47044 -2.818898,-6.009442 -3.047178,-5.781157 -0.13028,0.130275 -0.14558,-0.001 -0.034,-0.291776 0.11157,-0.290752 -0.10718,-1.429775 -0.48611,-2.531163 -0.92726,-2.695131 -1.86918,-8.503427 -1.73148,-10.677027 l 0.11175,-1.76389 0.98499,2.0058 c 1.12743,2.29585 6.350678,7.51387 7.196508,7.189296 0.27401,-0.105147 0.41556,-0.05746 0.31455,0.105974 -0.24735,0.400222 1.51104,1.176612 1.99183,0.879464 0.21134,-0.130614 0.28008,-0.07232 0.15444,0.130966 -0.20516,0.331951 0.35512,0.639237 2.41045,1.322037 0.38806,0.128915 2.59243,0.456393 4.8986,0.727728 2.30617,0.271335 4.2615,0.561793 4.34516,0.645461 0.0837,0.08367 -0.45382,0.364475 -1.19442,0.624015 -0.95208,0.333649 -3.0001,0.448251 -6.991,0.391202 -3.98996,-0.05704 -5.90296,0.04997 -6.52639,0.365073 -1.10521,0.558605 -1.76695,2.873048 -1.55722,5.446431 0.12357,1.516288 0.0582,1.806512 -0.36991,1.642232 -0.286,-0.10975 -0.49776,-0.30355 -0.47056,-0.430666 z m -8.936198,-2.083204 c -0.43881,-0.559525 -0.42633,-0.572003 0.1332,-0.133193 0.58763,0.460858 0.77451,0.750554 0.48416,0.750554 -0.0733,0 -0.35107,-0.277812 -0.61736,-0.617361 z m -112.30152,-2.116666 c 2.71835,-6.516702 10.81483,-17.732813 16.29349,-22.571463 2.85032,-2.51734 10.28188,-7.98042 12.26831,-9.01865 3.20044,-1.67274 5.46805,-2.67068 5.46805,-2.40639 0,0.15464 -0.40582,0.46607 -0.90183,0.69207 -0.49601,0.226 -0.80171,0.57291 -0.67934,0.77092 0.12238,0.19801 0.0195,0.3164 -0.22865,0.26309 -0.24814,-0.0533 -0.45838,0.0883 -0.4672,0.31464 -0.009,0.22636 -0.16055,0.54386 -0.33717,0.70555 -0.18659,0.1708 -0.21482,0.10921 -0.0674,-0.14699 0.81945,-1.42396 -2.45821,0.94371 -6.89978,4.98415 -6.44826,5.86591 -7.17733,6.58259 -7.07866,6.95826 0.0533,0.20299 -0.0708,0.2654 -0.27581,0.13869 -0.84032,-0.51934 -10.59433,10.588791 -10.05881,11.455267 0.12978,0.209995 0.0489,0.338188 -0.17969,0.284874 -0.61319,-0.142999 -2.83797,3.991343 -2.60556,4.841954 0.14437,0.528424 0.10735,0.581951 -0.14749,0.213211 -0.26883,-0.388978 -0.45574,-0.269035 -0.8903,0.571305 -0.51908,1.003801 -2.91041,3.234937 -3.4947,3.260599 -0.14812,0.0065 -0.021,-0.583483 0.28252,-1.311087 z m 146.918738,0.484168 c 0,-0.07326 0.27781,-0.351069 0.61736,-0.617362 0.55953,-0.438809 0.57201,-0.426332 0.1332,0.133194 -0.46086,0.587638 -0.75056,0.774516 -0.75056,0.484168 z m -68.438888,-0.352778 c 0,-0.07326 0.27782,-0.351069 0.61737,-0.617361 0.55952,-0.43881 0.572,-0.426332 0.13319,0.133193 -0.46086,0.587639 -0.75056,0.774516 -0.75056,0.484168 z m 101.423608,-1.983474 c -0.52541,-0.225779 -0.2552,-0.310849 1.05834,-0.333197 2.76391,-0.04702 9.34861,-1.783498 9.34861,-2.465357 0,-0.503683 -2.74211,-2.87606 -3.20854,-2.775916 -0.27259,0.05853 -0.45822,-0.08519 -0.41249,-0.319382 0.10068,-0.515669 -7.1714,-5.944267 -7.8712,-5.875837 -0.27204,0.0266 -0.41369,-0.0826 -0.31477,-0.24264 0.23175,-0.37499 -2.00892,-1.88108 -6.00828,-4.03853 -4.54703,-2.45288 -5.67447,-2.98698 -8.64305,-4.09444 -2.37254,-0.88511 -2.5158,-0.98883 -1.38695,-1.00422 3.40773,-0.0464 10.45906,3.32509 19.37861,9.26568 5.59363,3.725464 12.8945,9.466035 13.32731,10.479075 0.39124,0.915767 -13.44332,2.18868 -15.26759,1.404764 z m -94.060268,-5.909027 c -0.43881,-0.559526 -0.42633,-0.572003 0.13319,-0.133194 0.58764,0.460859 0.77452,0.750555 0.48417,0.750555 -0.0733,0 -0.35107,-0.277813 -0.61736,-0.617361 z m 82.852868,-0.319595 c 0.23884,-0.09663 0.71509,-0.102516 1.05833,-0.01307 0.34324,0.08944 0.14782,0.168509 -0.43426,0.175699 -0.58208,0.0072 -0.86292,-0.06599 -0.62407,-0.162627 z m -42.28343,-6.383187 c -0.43881,-0.55952 -0.42633,-0.572 0.1332,-0.13319 0.58763,0.46086 0.77451,0.75055 0.48416,0.75055 -0.0733,0 -0.35106,-0.27781 -0.61736,-0.61736 z m 11.07666,0.0515 c 0.11722,-0.11722 0.42149,-0.12975 0.67615,-0.0279 0.28143,0.11262 0.19783,0.19621 -0.21313,0.21314 -0.37189,0.0153 -0.58025,-0.0681 -0.46302,-0.18529 z m -94.191668,-6.70277 c 0.11723,-0.11723 0.4215,-0.12976 0.67616,-0.0279 0.28142,0.11261 0.19783,0.1962 -0.21314,0.21313 -0.37189,0.0153 -0.58024,-0.0681 -0.46302,-0.18528 z m -9.525,-0.70556 c 0.11723,-0.11723 0.4215,-0.12976 0.67616,-0.0279 0.28142,0.11262 0.19783,0.19621 -0.21314,0.21314 -0.37189,0.0153 -0.58024,-0.0681 -0.46302,-0.18529 z m 113.379508,-4.70408 c -0.76508,-0.29088 -0.87257,-0.54858 -0.88475,-2.12116 -0.0164,-2.11405 -1.22507,-6.77018 -2.17945,-8.39565 -0.37024,-0.63059 -0.55062,-1.14653 -0.40083,-1.14653 0.43856,0 2.53367,1.63871 2.34119,1.83119 -0.0965,0.0965 0.0721,0.87487 0.37472,1.72975 0.53163,1.50208 1.92684,7.35055 1.92684,8.07699 0,0.43835 -0.0867,0.44022 -1.17772,0.0254 z m -22.54658,-0.96087 c 0.24253,-0.0979 0.63941,-0.0979 0.88194,0 0.24254,0.0979 0.0441,0.17794 -0.44097,0.17794 -0.48507,0 -0.68351,-0.0801 -0.44097,-0.17794 z m -62.514798,-1.15309 c -0.11163,-0.18062 -0.0681,-0.41177 0.0968,-0.51365 0.16486,-0.10189 0.29974,0.0459 0.29974,0.3284 0,0.59484 -0.11125,0.64682 -0.39651,0.18525 z m 75.045758,-0.94307 c 0.11722,-0.11723 0.42149,-0.12976 0.67616,-0.0279 0.28142,0.11261 0.19783,0.19621 -0.21314,0.21314 -0.37189,0.0153 -0.58025,-0.0681 -0.46302,-0.18529 z m 18.13902,-4.28301 c -0.15744,-0.25167 -0.45978,-0.35034 -0.67187,-0.21927 -0.2362,0.14598 -0.28437,0.0745 -0.12433,-0.18442 0.30931,-0.50048 -0.44177,-1.5309 -0.90652,-1.24367 -0.17685,0.1093 -0.27793,-0.0115 -0.22461,-0.26847 0.0533,-0.25695 -0.11331,-0.42357 -0.37026,-0.37026 -0.25696,0.0533 -0.37306,-0.0554 -0.25801,-0.24153 0.26546,-0.42953 -2.81324,-3.02485 -3.61436,-3.04688 -0.32963,-0.009 -0.56186,-0.20083 -0.51607,-0.42616 0.0458,-0.22533 -1.85921,-1.70898 -4.23333,-3.297006 -4.83026,-3.23091 -4.51132,-3.28607 1.76329,-0.30493 4.00644,1.903496 4.58031,2.307736 8.00141,5.636216 3.41986,3.32726 4.56125,4.91494 5.32291,7.40419 0.22146,0.72375 -0.1025,0.53556 -1.80606,-1.04914 -1.14176,-1.0621 -2.20474,-2.13701 -2.36219,-2.38867 z m -34.66614,1.16179 c 0.76987,-1.11782 1.2149,-2.10111 1.06253,-2.34765 -0.16321,-0.26407 -0.11317,-0.33213 0.13253,-0.18028 0.24137,0.14917 0.74709,-0.45139 1.30162,-1.54571 2.57856,-5.08854 8.19583,-4.46469 12.75868,1.41698 1.46391,1.88704 2.08516,3.36398 1.05556,2.50949 -0.26039,-0.2161 -0.59111,-0.27522 -0.73495,-0.13139 -0.14384,0.14384 -0.20861,0.0397 -0.14393,-0.23136 0.0706,-0.29609 -0.63797,-0.89472 -1.77478,-1.49931 -2.54054,-1.35113 -5.34462,-1.38905 -8.05073,-0.10885 -1.04351,0.49366 -1.8146,1.03136 -1.71353,1.19489 0.10107,0.16353 -0.0923,0.27557 -0.4298,0.24896 -0.33935,-0.0267 -0.57025,0.16044 -0.51663,0.41883 0.0533,0.25696 -0.0624,0.36876 -0.25703,0.24844 -0.43737,-0.27031 -2.52712,1.22507 -2.27718,1.62949 0.0995,0.16095 -0.0495,0.20425 -0.33095,0.0962 -0.28149,-0.10802 -0.62313,-0.0163 -0.7592,0.2039 -0.13607,0.22016 -0.33729,0.3104 -0.44716,0.20053 -0.10987,-0.10987 0.39635,-1.06531 1.12495,-2.12319 z m -19.703438,0.90488 c -0.10633,-0.17204 0.0303,-0.4984 0.30363,-0.72524 0.3994,-0.33148 0.47319,-0.28738 0.37588,0.22461 -0.0666,0.35038 -0.13321,0.67674 -0.14806,0.72524 -0.0592,0.19331 -0.34883,0.0709 -0.53145,-0.22461 z m 16.02668,-2.62431 c 0,-0.0632 0.43656,-0.49975 0.97014,-0.97014 l 0.97014,-0.85524 -0.85524,0.97014 c -0.79936,0.90674 -1.08504,1.13192 -1.08504,0.85524 z m 29.800388,-2.63919 c 0.10861,-0.10862 0.39327,-2.3e-4 0.63257,0.24087 0.34582,0.34841 0.3053,0.38893 -0.19748,0.19748 -0.34792,-0.13248 -0.54371,-0.32974 -0.43509,-0.43835 z m -74.507618,-5.57294 c 0.11722,-0.117216 0.42149,-0.129756 0.67616,-0.0279 0.28142,0.11262 0.19783,0.19621 -0.21314,0.21314 -0.37189,0.0153 -0.58025,-0.0681 -0.46302,-0.18529 z m -6.35,-0.705546 c 0.11722,-0.11723 0.42149,-0.12976 0.67615,-0.0279 0.28143,0.11261 0.19783,0.1962 -0.21313,0.21313 -0.37189,0.0153 -0.58025,-0.0681 -0.46302,-0.18528 z m 7.31279,-3.66465 c -3.53004,-0.35579 -9.78925,-1.64565 -14.81667,-3.05334 -2.6305,-0.73654 -2.78207,-0.81927 -1.23472,-0.67394 0.97014,0.0911 3.37552,0.41188 5.3453,0.7128 8.99526,1.37422 20.77447,1.3683 31.96392,-0.0161 2.47549,-0.30626 4.67698,-0.49814 4.89221,-0.4264 0.21523,0.0717 -0.22267,0.53191 -0.97311,1.02259 -1.13166,0.73994 -4.21673,1.64022 -8.77277,2.56005 -1.43891,0.29051 -13.16618,0.20064 -16.40416,-0.12571 z"
           id="path6"
           sodipodi:nodetypes="cssssssssscssssscsssscssssssscsscsssssssssssssssscsscsscscssssssscsssssssssssscssssssssssscssssssssssscsssssssssssssssccccscssssssccccscscssssssscssssssssssssssssssssssssssssssssssssssssssssssccsssssssssscscsssscsssssssssssssscsssssssscsssssssssssssssssssssssssssssssssscssssscssscssssssssssssssscsssssssssssssssssssssssssssscsscssssssssssssssssssssssssscssssssssssssssssccsccccsccccsccssssscssscsscsssssccsccssssssscssssssscsssssscssscscscssccssssssscssssssccsccccscccsssscsscc" /><path
           style="fill:#5a2d81;fill-opacity:1"
           d="m -187.24992,86.875315 c 10.01963,-0.89384 17.98574,-3.84125 26.18284,-9.6875 5.23352,-3.7326 8.04255,-6.16484 10.65231,-9.22346 3.65049,-4.27835 5.12721,-8.08699 5.12721,-13.22368 0,-4.04672 -1.31443,-7.64648 -7.38981,-20.23814 -1.68511,-3.4925 -3.50135,-7.03969 -4.03609,-7.88264 -2.03099,-3.20159 -0.29954,-1.83336 4.4098,3.48473 14.03865,15.85333 17.20311,26.40295 10.98112,36.60866 -1.16522,1.91126 -4.13764,5.29176 -13.51354,15.36877 l -2.58355,2.77674 2.62645,-0.24385 c 9.6926,-0.89992 19.71876,-3.71181 27.97763,-7.84646 6.38844,-3.19825 8.08028,-5.32454 9.21018,-11.57524 1.02457,-5.66803 1.67638,-8.35283 1.95519,-8.05349 0.55906,0.60023 1.40736,5.46859 1.62807,9.34346 0.28846,5.06432 -0.27726,10.2126 -1.69162,15.39432 -0.598,2.19083 -1.01297,4.05762 -0.92218,4.14842 0.23608,0.23607 7.75584,-2.08673 10.68308,-3.29992 3.42866,-1.42102 13.876738,-6.98435 18.050778,-9.61158 7.37945,-4.64479 13.94674,-10.60548 18.7263,-16.9966 1.4067,-1.88101 2.55764,-3.50412 2.55764,-3.6069 0,-0.10279 -1.65874,-1.02173 -3.68608,-2.0421 l -3.68608,-1.85521 2.67047,-4.58611 c 1.46875,-2.52236 3.61781,-6.37205 4.77568,-8.55486 2.42567,-4.57287 2.48705,-4.48303 -2.14614,-3.14106 -1.57171,0.45523 -2.91764,0.76771 -2.99095,0.69439 -0.0733,-0.0733 -0.008,-0.80296 0.14439,-1.62144 0.60124,-3.22195 0.7692,-8.20451 0.34538,-10.24599 -0.23346,-1.12457 -1.37031,-4.36291 -2.52634,-7.1963 -2.47538,-6.0670573 -2.69595,-7.2568253 -1.90766,-10.2900433 1.32295,-5.090488 7.81204,-17.5582537 10.57828,-20.3244987 2.19648,-2.196478 7.79813,-5.81881 8.99833,-5.81881 0.55587,0 0.44872,1.71018 -0.52793,8.425897 -0.49053,3.373062 -0.82087,6.2038467 -0.73408,6.2906307 0.27628,0.276286 6.32121,-2.8870117 9.09929,-4.7616367 5.52468,-3.728017 8.26915,-6.723569 10.99449,-12.000342 1.42656,-2.762074 1.93033,-3.398957 3.52666,-4.458544 2.34358,-1.55558 3.79531,-3.355995 5.51649,-6.841507 1.64956,-3.340461 2.03441,-4.709872 2.43537,-8.665619 l 0.31052,-3.06361 3.68491,-3.778705 c 3.79449,-3.891081 4.16111,-4.540746 4.16111,-7.373575 0,-1.753879 -0.28255,-2.124174 -4.30232,-5.638316 -9.68038,-8.462733 -18.9996,-14.44224 -29.60548,-18.995816 l -3.03974,-1.305097 -0.23011,-2.518963 c -0.32959,-3.607847 -1.50732,-5.765483 -5.27011,-9.655045 l -3.1531,-3.259325 1.26862,-1.40421 c 2.96865,-3.28594 4.61634,-8.43611 4.63334,-14.48233 0.01,-3.44756 -0.10486,-4.30868 -0.76263,-5.7329 -0.99658,-2.15783 -3.96269,-5.28761 -6.25288,-6.59793 -1.9257,-1.10177 -7.61337,-3.61661 -7.61337,-3.3663 0,0.0831 0.63543,1.13423 1.41206,2.33584 2.67223,4.13445 4.59836,9.38663 4.57394,12.47226 -0.0106,1.34225 -0.0398,1.38042 -0.54449,0.71264 -0.29331,-0.38805 -1.50022,-2.53118 -2.68204,-4.7625 -2.74115,-5.17541 -4.47507,-7.73186 -7.1464,-10.53648 -2.73001,-2.86621 -5.46132,-4.97124 -8.75652,-6.74865 -3.46664,-1.86988 -5.76468,-2.62712 -11.32145,-3.73056 -7.919998,-1.57272 -17.497118,-3.94022 -22.089888,-5.4607 -9.43932,-3.12498 -13.86939,-5.96989 -19.83624,-12.73847 l -2.85084,-3.2339 0.25912,1.72796 c 0.43124,2.87567 1.99024,8.67972 2.83548,10.55625 1.14606,2.54436 2.70605,4.52001 4.83874,6.12799 1.02601,0.77358 5.83422,3.84589 10.68491,6.82735 4.8507,2.98145 9.80666,6.09138 11.01326,6.91094 4.90915,3.33446 12.177248,9.62676 11.686498,10.1175 -0.10173,0.10173 -2.869538,-1.42078 -6.150688,-3.38335 -31.93155,-19.09942 -39.97355,-22.67712 -53.04218,-23.59723 -5.6328,-0.39658 -13.18567,-0.044 -19.04001,0.88883 -6.94306,1.10631 -16.92188,4.24503 -22.42734,7.05425 -9.19084,4.68974 -21.47141,14.58658 -27.43057,22.10615 -2.12464,2.68098 -6.61591,9.64258 -6.61591,10.25485 0,0.16357 2.74279,-1.13295 6.09508,-2.88116 7.15042,-3.72892 13.13681,-6.19341 22.33353,-9.19431 11.62504,-3.79326 18.5089,-5.2571 26.11552,-5.55342 5.07607,-0.19774 8.9299,0.21318 14.60031,1.55677 3.14598,0.74543 12.76557,4.82784 11.73201,4.97888 -0.43538,0.0636 -3.37225,-0.37335 -6.52638,-0.97106 -12.24836,-2.32108 -17.76624,-2.43057 -26.29318,-0.52175 -4.89369,1.09549 -14.5067,4.1673 -19.37227,6.19035 -8.05245,3.34811 -23.24602,11.6579 -27.97803,15.301965 -2.51446,1.936353 -6.62824,6.134233 -8.64239,8.819063 -3.32693,4.434733 -5.11582,8.686224 -6.67969,15.875001 -0.50651,2.328333 -1.00255,4.600127 -1.1023,5.048431 -0.16912,0.760055 -0.0436,0.722721 1.85918,-0.552864 3.0959,-2.075456 11.90711,-7.221261 15.15646,-8.851473 3.69714,-1.854876 8.89143,-4.006926 9.3236,-3.86287 0.18389,0.06129 -0.97963,1.141845 -2.58559,2.401222 -17.83115,13.982965 -20.43814,16.595778 -33.43601,33.51061 -4.95731,6.451203 -8.70623,10.173255 -11.64152,11.558077 -5.40282,2.548966 -9.90913,2.43942 -17.40417,-0.423089 l -2.41112,-0.920856 0.79615,1.118094 c 2.97249,4.174467 8.76362,9.528152 12.31637,11.386023 5.02806,2.629371 12.40425,4.258829 18.16805,4.013467 3.98454,-0.16962 6.9504,-1.03438 12.43542,-3.625807 1.79476,-0.847943 3.26319,-1.440513 3.26319,-1.316823 0,0.123691 -1.10766,2.070978 -2.46147,4.327305 -3.28422,5.473645 -4.088,7.336859 -4.78918,11.1016637 -0.85989,4.616963 -0.57014,9.00200605 0.8479,12.832035 2.98613,8.0652803 8.22143,12.9537103 24.21803,22.6133903 9.62428,5.81171 14.04606,8.94514 19.83025,14.05242 2.51951,2.22467 5.85931,6.27466 6.92834,8.40161 0.83275,1.65686 1.25905,5.26689 0.98421,8.33457 -0.13473,1.50372 -0.15274,2.73403 -0.04,2.73403 0.11271,0 0.91801,-0.45223 1.78957,-1.00495 6.40684,-4.0631 6.97192,-12.01267 2.00874,-28.2586 -2.17046,-7.10453 -3.45955,-12.01279 -3.15363,-12.00755 0.44343,0.008 6.3711,9.40428 8.45411,13.40166 4.83162,9.27208 7.46529,19.54446 7.46996,29.13593 0.002,5.03395 -0.71743,8.34401 -2.65917,12.2269 -1.73898,3.47743 -3.49672,5.76176 -7.87248,10.23092 l -3.71312,3.79236 3.15468,-0.0492 c 1.73507,-0.0271 4.51224,-0.1703 6.17148,-0.31831 z m 89.150998,-17.98847 c 0.86535,-4.05325 0.94004,-5.06224 0.95227,-12.86487 0.0125,-7.98928 -0.17288,-10.40694 -0.79805,-10.40694 -0.14778,0 -1.29346,2.06909 -2.545948,4.59797 -2.13611,4.31299 -2.29691,4.5371 -2.59447,3.61597 -0.17447,-0.5401 -0.31839,-3.76012 -0.31982,-7.15561 -0.003,-6.2036 0.67074,-11.89559 2.06562,-17.4614 0.6175,-2.46391 1.932788,-5.91961 2.164788,-5.68761 0.0878,0.0878 0.46377,2.17634 0.83544,4.64115 0.80789,5.3577 2.49347,10.5951 4.94735,15.3723 1.56327,3.04337 2.15397,3.81125 4.49706,5.84605 1.48357,1.28837 2.74405,2.45678 2.80107,2.59646 0.11011,0.26973 -0.96473,2.17375 -3.43613,6.08693 -0.83288,1.31877 -1.41582,2.49627 -1.29542,2.61666 0.12039,0.1204 2.00466,-0.29594 4.18728,-0.92518 9.83913,-2.83661 9.08366,-2.65256 9.08366,-2.213 0,0.52944 -6.13385,6.36574 -8.99584,8.55945 -3.72299,2.85367 -11.98257,7.68515 -12.40901,7.25872 -0.0434,-0.0434 0.3437,-2.05804 0.86015,-4.47705 z m 14.26789,-25.26866 c -0.52533,-0.41917 -0.87576,-0.83355 -0.77875,-0.92084 0.097,-0.0873 2.3592,-0.88341 5.02709,-1.76914 3.02681,-1.0049 4.84882,-1.45454 4.84573,-1.19583 -0.006,0.53368 -2.70932,5.51532 -3.42882,6.31951 -0.51735,0.57824 -0.66741,0.54804 -2.62939,-0.52917 -1.1444,-0.62832 -2.51054,-1.48536 -3.03586,-1.90453 z m -6.04673,-8.23556 c -0.6265,-1.35921 -1.45057,-3.99603 -1.83128,-5.85961 -0.80956,-3.9629 -0.86531,-3.80496 2.63212,-7.4576 l 2.1128,-2.20656 1.74619,2.38295 c 0.96041,1.31062 2.1582,3.21639 2.66177,4.23503 0.50357,1.01865 1.02403,1.85209 1.15657,1.85209 0.13254,0 0.49634,-0.63821 0.80845,-1.41825 0.71581,-1.78897 0.73427,-5.86663 0.0383,-8.45953 -0.71763,-2.67362 -0.67905,-2.86531 0.80328,-3.99062 l 1.30674,-0.99202 0.58593,0.7236 c 0.32227,0.39798 1.09317,2.11438 1.71313,3.81424 1.00342,2.75127 1.1295,3.51673 1.1482,6.97119 0.0219,4.03865 -0.51264,7.56821 -1.3443,8.87698 -0.2667,0.4197 -0.99524,0.87518 -1.61897,1.01218 -0.62373,0.13699 -3.12943,0.85723 -5.5682,1.60052 -2.43878,0.74329 -4.60908,1.35938 -4.82289,1.36907 -0.21381,0.01 -0.90134,-1.09445 -1.52785,-2.45366 z M -105.7825,19.068455 c 1.91362,-13.8333783 4.76348,-28.8509673 6.739688,-35.515401 2.24389,-7.567139 3.75252,-11.024766 6.86137,-15.72552 2.8662,-4.33386 4.94777,-6.326583 9.5189,-9.112624 2.45425,-1.495831 2.63887,-1.537603 2.63887,-0.597048 0,0.451275 -1.11314,1.602529 -3.15518,3.263195 -1.73535,1.411257 -3.1641,2.704828 -3.175,2.874602 -0.0109,0.169775 0.42015,0.220688 0.95789,0.11314 0.53773,-0.107547 2.33964,-0.306048 4.00423,-0.441112 2.98035,-0.241824 3.02989,-0.232785 3.24695,0.592416 0.18677,0.710047 -0.28993,1.350624 -3.12229,4.195687 -1.83849,1.846735 -3.34271,3.476947 -3.34271,3.622694 0,0.322118 0.72957,0.158916 6.24364,-1.396693 4.11333,-1.160433 4.34312,-1.188002 5.20348,-0.624273 0.49506,0.324375 0.89572,0.690578 0.89036,0.813784 -0.005,0.123205 -1.39106,1.255885 -3.07933,2.517066 -5.19304,3.879333 -7.68326,6.484874 -11.04124,11.552564 -4.67153,7.0500127 -10.15112,18.2250517 -17.487468,35.663783 -2.85114,6.77726 -3.06078,6.57929 -1.90216,-1.79626 z m -20.97132,2.55769 c -1.42283,-3.99042 -7.26466,-24.8497463 -7.80507,-27.8694443 -1.03772,-5.7985777 -0.41399,-13.0351987 1.67236,-19.4027777 1.64104,-5.008481 6.22337,-12.81182 8.57816,-14.607904 1.48654,-1.133839 1.52218,-0.88392 0.34099,2.390628 -1.28069,3.550368 -2.17538,7.621088 -3.15516,14.355492 -0.81803,5.62266 -1.24916,12.425796 -0.81497,12.859985 0.11487,0.114871 1.24113,-1.903044 2.50281,-4.484256 3.83244,-7.840644 9.46369,-14.744127 16.0197,-19.638933 3.83811,-2.865585 6.73432,-4.659566 6.25507,-3.874542 -0.1598,0.261756 -2.05775,3.039382 -4.21768,6.172503 -4.82009,6.991848 -6.34415,9.880507 -8.44127,15.999249 -3.99228,11.6481967 -6.73503,22.8516097 -7.77285,31.75 -0.2895,2.48219 -1.20646,8.09241 -1.46171,8.94315 -0.28116,0.93712 -0.63287,0.40076 -1.70038,-2.59315 z m -49.21122,-5.47855 c -4.05674,-5.37471 -5.13929,-8.8457733 -4.83774,-15.51172725 0.49546,-10.95273775 4.07197,-15.80224575 15.08745,-20.45756375 3.11527,-1.316565 10.65646,-3.357095 12.39608,-3.35419 0.24583,4.11e-4 -0.82304,0.653007 -2.37526,1.450215 -3.98547,2.046905 -6.22151,3.715517 -9.99207,7.456434 -9.02947,8.9584737 -10.96149,16.8144707 -7.96013,32.367602 0.28824,1.49368 0.26972,1.4781 -2.31833,-1.95077 z m -44.5819,-8.2585113 c -2.90359,-2.787442 -6.45355,-7.74875695 -8.25332,-11.534601 -1.17318,-2.467799 -1.31608,-3.066369 -1.29401,-5.420004 0.0703,-7.4976837 6.58557,-15.5734407 16.61204,-20.5908827 7.24284,-3.624453 25.77937,-10.308296 42.08911,-15.176347 13.22973,-3.948746 23.31411,-7.725152 27.86944,-10.436569 3.13046,-1.863304 5.5142,-4.258228 9.97178,-10.018565 2.08261,-2.691258 3.78656,-4.825887 3.78656,-4.74362 0,0.737113 -2.66997,7.764699 -3.79531,9.989595 -3.34133,6.606073 -6.6404,9.617434 -15.0783,13.76337 -6.97942,3.429311 -13.55884,6.004781 -26.81111,10.495029 -19.08596,6.466865 -32.87375,12.091943 -37.72938,15.392654 -1.89599,1.288835 -5.37058,4.969391 -6.288,6.660738 -2.33769,4.3097417 -2.01692,10.6430207 1.01349,20.0104307 0.69046,2.134306 1.32586,4.1014433 1.41201,4.3714233 0.21926,0.68711 -0.51134,0.11125 -3.505,-2.7626513 z M -47.965442,-21.937482 c 1.01163,-3.05117 1.77717,-4.815199 2.13397,-4.917314 0.30603,-0.08758 1.65043,-0.269224 2.98756,-0.403647 l 2.43115,-0.244405 -0.24918,0.992829 c -0.59099,2.354671 -3.46916,6.143053 -6.17724,8.130753 -2.81021,2.062665 -2.89797,1.785414 -1.12626,-3.558216 z m -10.186,-10.068004 c -3.76576,-0.484487 -6.43654,-1.894436 -9.26196,-4.889532 -4.55395,-4.827431 -5.70577,-7.462487 -4.87826,-11.160196 0.51601,-2.305783 2.73252,-6.886545 4.26578,-8.815899 1.37314,-1.727872 0.94745,-2.233772 -1.1124,-1.32201 -1.83863,0.813843 -4.25552,2.852354 -6.68128,5.635286 -1.85731,2.130783 -4.54878,4.459684 -4.82952,4.17894 -0.0897,-0.08972 0.72867,-1.435815 1.81864,-2.991323 1.83823,-2.623339 2.30211,-3.556412 1.76811,-3.556412 -0.88455,0 -4.8663,1.308907 -8.08864,2.658952 -7.46961,3.1295 -10.76313,3.615134 -14.39367,2.122365 -2.764198,-1.136558 -4.493968,-2.373911 -7.375078,-5.275604 -2.6575,-2.676479 -6.63771,-8.425072 -7.32584,-10.580656 -1.19096,-3.730721 1.27324,-12.703539 4.95136,-18.029224 0.53602,-0.776111 2.51112,-2.919236 4.38911,-4.7625 1.87799,-1.843265 4.07541,-4.132837 4.88317,-5.087941 l 1.468638,-1.736552 -1.15283,0.230566 c -0.634058,0.126811 -3.251458,1.038481 -5.816448,2.025932 -9.47085,3.646024 -13.03841,4.953846 -13.16583,4.826428 -0.0719,-0.07185 3.00238,-3.222364 6.83162,-7.001139 8.41353,-8.302635 9.7852,-9.187095 14.610178,-9.420725 4.06176,-0.19668 6.4509,0.54549 13.50434,4.19498 6.23979,3.228512 6.36519,3.198914 4.09445,-0.9664 l -1.37809,-2.5279 2.88236,1.03365 c 1.5853,0.5685 4.46986,1.82141 6.41014,2.78424 2.96318,1.470437 4.10358,2.302925 7.12559,5.20167 2.79338,2.679437 3.79907,3.906131 4.49792,5.486352 0.49506,1.119409 0.9001,2.211237 0.9001,2.426284 0,0.215046 -0.77267,-0.331749 -1.71704,-1.215101 -1.54154,-1.441931 -5.21696,-3.668487 -5.53336,-3.352091 -0.0686,0.06858 0.26046,0.912691 0.7312,1.875802 0.90961,1.861026 1.52526,4.756083 1.00804,4.740234 -0.17032,-0.0052 -0.69547,-0.634989 -1.167,-1.399488 -1.06219,-1.722161 -5.95397,-6.704912 -6.58249,-6.704912 -0.37756,0 -0.37506,0.208893 0.0138,1.146528 0.65311,1.575005 2.14256,8.31151 1.89288,8.561186 -0.1114,0.111405 -2.16639,-0.460409 -4.56663,-1.270697 -5.57106,-1.88071 -8.22891,-2.002454 -12.58437,-0.576434 -2.46898,0.808369 -3.53944,0.958861 -6.82037,0.958861 -2.87334,0 -3.85477,0.110945 -3.75043,0.423965 0.19837,0.595105 12.54244,7.271439 13.95392,7.547024 1.0209,0.199327 8.81415,-0.578421 11.45175,-1.142857 0.89689,-0.191929 0.97014,-0.12373 0.97014,0.903184 0,1.611514 -0.79894,3.276588 -2.09576,4.367795 -1.10264,0.927804 -1.25598,0.953667 -5.65446,0.953667 -3.80415,0 -5.22335,-0.167828 -8.94957,-1.058333 -2.43566,-0.582084 -4.63555,-1.051882 -4.88864,-1.043996 -1.06975,0.03333 4.70275,4.261176 7.46794,5.469611 1.37926,0.602761 2.40166,0.689663 8.11388,0.689663 3.59468,0 6.97876,-0.123699 7.52019,-0.274887 0.54143,-0.151188 1.9195,-1.134545 3.0624,-2.185239 3.88482,-3.571429 5.43663,-3.994162 11.64412,-3.172019 4.21925,0.558813 7.77548,0.502885 7.76454,-0.12211 -0.002,-0.133632 -0.83578,-0.659502 -1.85208,-1.1686 -1.01631,-0.509097 -2.95909,-1.500009 -4.31728,-2.202025 -1.35819,-0.702017 -3.42194,-1.501699 -4.58611,-1.777072 -1.16417,-0.275373 -2.59292,-0.614263 -3.175,-0.753089 l -1.05833,-0.252412 1.05833,-0.468556 c 1.83384,-0.811896 7.02714,-0.620021 9.81123,0.362491 4.22465,1.490887 14.48548,7.552081 20.52766,12.125931 3.2842,2.486099 7.9375,6.458854 7.9375,6.776645 0,0.157483 -1.15094,0.556539 -2.55764,0.886789 -2.46559,0.578846 -9.59116,0.876082 -20.84329,0.869458 -2.89748,-0.0017 -3.78799,0.104398 -3.68213,0.438723 0.0768,0.242534 3.06658,2.291539 6.64398,4.553343 9.7778,6.182006 11.41977,7.422834 12.34117,9.326202 0.71966,1.486622 0.7502,1.785255 0.36061,3.526128 -0.53546,2.392708 -2.75215,5.752897 -4.60327,6.977909 -1.84952,1.223957 -4.0151,1.657852 -9.84562,1.972673 -7.07382,0.381953 -9.44536,0.38281 -12.38603,0.0045 z m -11.46528,-30.33489 c 4.96326,-1.436057 8.03431,-2.011822 14.11111,-2.645571 5.89715,-0.615015 15.79917,-1.918099 15.98461,-2.103541 1.00883,-1.008822 -19.29996,-1.725216 -24.62767,-0.868742 -2.38528,0.383455 -5.66182,1.692204 -6.83305,2.729327 -0.85084,0.753424 -2.69195,3.251431 -2.69195,3.652424 0,0.405939 0.0395,0.398505 4.05695,-0.763897 z M -218.218,-58.871851 c 1.58945,-3.430274 7.75727,-12.552579 10.97771,-16.236199 3.2999,-3.774505 5.72337,-5.936573 10.97634,-9.792398 5.13177,-3.766863 11.47752,-7.341342 11.45993,-6.455225 -0.003,0.148125 -1.78888,2.280342 -3.96875,4.73826 -3.82533,4.313251 -6.58464,8.196863 -6.13988,8.641618 0.11802,0.118016 2.03165,-0.142518 4.25252,-0.578965 5.63809,-1.108001 12.22047,-0.925526 18.80345,0.521263 2.55844,0.562289 4.5881,1.125266 4.51036,1.251062 -0.0777,0.125795 -2.17102,0.326519 -4.65172,0.446052 -10.4038,0.501311 -18.58481,2.581785 -27.21484,6.92088 -5.14054,2.584614 -13.22198,7.996453 -17.87719,11.971684 -1.15744,0.988376 -2.15382,1.652168 -2.21419,1.475093 -0.0604,-0.177076 0.42846,-1.483482 1.08626,-2.903125 z m 71.65275,-22.331396 c -9.1358,-2.298133 -14.81053,-7.321223 -17.87452,-15.821952 -1.07586,-2.984861 -1.68431,-8.568791 -1.16092,-10.654131 0.23013,-0.91693 0.31078,-0.94675 2.0742,-0.76695 1.00912,0.1029 4.05726,0.55335 6.77365,1.00101 4.41489,0.72758 6.09916,0.81334 15.875,0.80831 8.28588,-0.004 12.0187,-0.15111 15.40339,-0.60598 2.457,-0.3302 4.91763,-0.59154 5.46806,-0.58076 l 1.00077,0.0196 -1.00541,0.77415 c -0.55298,0.42578 -3.3311,2.65045 -6.17361,4.94371 l -5.1682,4.169557 -2.11667,-0.215884 c -1.16417,-0.118735 -6.21051,-0.6956 -11.2141,-1.28192 -5.00358,-0.586323 -9.42016,-1.016103 -9.81461,-0.955063 -0.65565,0.10145 -0.61667,0.2139 0.45437,1.310666 0.64436,0.65983 2.83303,2.484322 4.86372,4.054427 2.03068,1.570104 3.45943,2.898145 3.175,2.951202 -0.28444,0.05306 -2.14434,-0.202529 -4.13313,-0.567968 -4.03792,-0.741968 -4.15301,-0.675963 -2.68724,1.541171 2.21487,3.35023 6.04469,6.570058 11.06571,9.303243 l 2.64584,1.440254 -1.98324,0.005 c -1.09078,0.0027 -3.55141,-0.389515 -5.46806,-0.871653 z"
           id="path5"
           sodipodi:nodetypes="ssssssssscsssssssssssscsssscsssssssssssscsssscsscscsssssssssssscsssssscsssssssssssssssssssssssscssssssssssssssssscssccssssssscsssssssssssssssscsssssscsssssscsscsssssssssssssssssssscsssssssssssssssssssssssssssssssssssssssssssssscssssssssssssssssssscssssssscssssssssssscssssssssssssssssscsssscsssssssssssssssssssssssscsssssssssssssssssscsscsssssssssccss" /></g></g></g></svg>
