<?xml version="1.0" encoding="UTF-8" standalone="no"?>
<!-- Created with Inkscape (http://www.inkscape.org/) -->

<svg
   width="105.83334mm"
   height="105.83334mm"
   viewBox="0 0 105.83333 105.83333"
   version="1.1"
   id="svg1"
   xml:space="preserve"
   inkscape:version="1.4.2 (ebf0e940d0, 2025-05-08)"
   sodipodi:docname="san_antonio.svg"
   inkscape:export-filename="../pngs/san_antonio.png"
   inkscape:export-xdpi="96"
   inkscape:export-ydpi="96"
   xmlns:inkscape="http://www.inkscape.org/namespaces/inkscape"
   xmlns:sodipodi="http://sodipodi.sourceforge.net/DTD/sodipodi-0.dtd"
   xmlns="http://www.w3.org/2000/svg"
   xmlns:svg="http://www.w3.org/2000/svg"><sodipodi:namedview
     id="namedview1"
     pagecolor="#ffffff"
     bordercolor="#000000"
     borderopacity="0.25"
     inkscape:showpageshadow="2"
     inkscape:pageopacity="0.0"
     inkscape:pagecheckerboard="0"
     inkscape:deskcolor="#d1d1d1"
     inkscape:document-units="mm"
     inkscape:zoom="1.1505473"
     inkscape:cx="353.74471"
     inkscape:cy="176.43778"
     inkscape:window-width="1920"
     inkscape:window-height="1011"
     inkscape:window-x="0"
     inkscape:window-y="32"
     inkscape:window-maximized="1"
     inkscape:current-layer="layer1"
     showgrid="false" /><defs
     id="defs1" /><g
     inkscape:label="Capa 1"
     inkscape:groupmode="layer"
     id="layer1"><g
       id="g30"
       transform="matrix(1.2369558,0,0,1.2369558,-175.34865,91.107162)"><path
         id="path17-9"
         style="fill:#a3acbe;fill-opacity:1;stroke:#ffffff;stroke-width:2.85772;stroke-dasharray:none"
         d="m 144.54153,-2.036863 c -0.0329,-0.042838 0.0795,-0.6332404 0.24951,-1.3120173 l 0.30916,-1.2341421 2.12581,-0.031114 2.1258,-0.031114 0.12871,-0.5137189 0.12868,-0.5137117 -2.11022,-0.031115 -2.11022,-0.031114 0.84301,-3.3651015 0.84302,-3.3651005 h 3.31137 3.31139 l -0.35454,1.284282 -0.35454,1.2842827 -2.13153,0.031149 -2.13153,0.031157 -0.12906,0.6538172 -0.12905,0.6538112 2.11203,0.031114 2.11202,0.031114 -0.8381,3.2223982 -0.8381,3.2223919 -3.207,0.03033 c -1.76384,0.016657 -3.23385,-0.00472 -3.26664,-0.047566 z m 8.64425,-5.1728202 1.31657,-5.2554258 h 1.16055 1.16056 l -0.45757,1.826537 -0.45758,1.8265357 h 1.62478 1.62477 l 0.45758,-1.8265357 0.45758,-1.826537 h 1.16056 1.16056 l -1.31657,5.2554258 -1.31658,5.2554227 -1.12335,-0.032654 -1.12336,-0.032654 0.4903,-2.0833944 0.49029,-2.0833886 h -1.61953 -1.61955 l -0.55355,2.0833886 -0.55355,2.0833944 -1.13971,0.032654 -1.13973,0.032654 z m 8.58876,-0.00258 1.31592,-5.2528538 h 3.71758 3.71757 l -0.35454,1.284284 -0.35454,1.2842847 -2.53191,0.030767 -2.53193,0.030767 -0.17104,0.6827233 -0.17102,0.6827251 h 1.6828 1.68281 l -0.34317,1.3699026 -0.34319,1.3699012 h -1.68281 -1.6828 l -0.15729,0.6278689 -0.15729,0.6278704 h 2.44109 2.44109 l -0.34037,1.2272052 -0.34037,1.2272027 -3.57629,0.030205 -3.57626,0.030206 z m 8.00718,0.00258 1.31657,-5.2554258 h 3.65575 3.65576 l -0.84184,3.3604444 -0.84184,3.3604392 -0.38615,0.03576 -0.38614,0.03576 -0.49769,1.8591744 -0.49764,1.8591745 -1.12048,-0.032627 -1.12045,-0.032654 0.43283,-1.8550749 0.43285,-1.8550757 h -0.92271 -0.9227 l -0.49661,1.8550757 -0.49661,1.8550749 -1.13973,0.032654 -1.13972,0.032654 z m 5.47761,-1.9448276 0.17159,-0.6849499 h -1.33464 -1.33465 l -0.17158,0.6849499 -0.17159,0.6849517 h 1.33464 1.33465 z m 1.66067,5.8791614 0.3289,-1.3128247 h 0.92844 0.92844 l 0.65776,-2.6256469 0.65777,-2.6256397 h -0.92844 -0.92845 l 0.3289,-1.3128243 0.32886,-1.312824 h 3.01745 3.01745 l -0.32888,1.312824 -0.32888,1.3128243 h -0.93062 -0.93064 l -0.61942,2.5971032 -0.61943,2.5971049 0.89109,0.033359 0.89105,0.033357 -0.32767,1.3080209 -0.32768,1.3080221 h -3.01744 -3.01746 z m 6.61484,1.2367157 c -0.032,-0.04185 0.52511,-2.4049383 1.23817,-5.2512884 l 1.29646,-5.1751869 h 3.71756 3.71759 l -0.35454,1.284285 -0.35454,1.2842831 -2.53765,0.030767 -2.53764,0.030767 -0.12914,0.6541663 -0.12915,0.6541698 1.70393,0.031569 1.70389,0.031576 -0.34165,1.363797 -0.34166,1.3638024 -1.71974,0.031576 -1.71971,0.031586 -0.49662,1.8550757 -0.49662,1.8550758 h -1.08031 c -0.59417,0 -1.10656,-0.034266 -1.13862,-0.076115 z m 8.00784,0 c -0.0321,-0.04185 0.52512,-2.4049383 1.23815,-5.2512884 l 1.29648,-5.1751869 h 3.71758 3.71757 l -0.35454,1.284285 -0.35456,1.2842831 -2.53192,0.030767 -2.53193,0.030767 -0.17103,0.6827242 -0.17104,0.6827251 h 1.74084 1.74085 l -0.34319,1.3699005 -0.34318,1.3699026 h -1.74084 -1.74083 l -0.47187,1.8836131 -0.47187,1.8836159 h -1.08319 c -0.59575,0 -1.10942,-0.034266 -1.14149,-0.076115 z m 8.12423,-1.2367157 0.32889,-1.3128247 h 2.08899 2.08899 l 0.14299,-0.5707938 0.14301,-0.5707902 h -2.08901 -2.08899 l 0.84366,-3.3676742 0.84364,-3.3676767 h 3.24956 3.24956 l -0.32889,1.312824 -0.32888,1.3128243 h -2.08899 -2.089 l -0.17161,0.6849499 -0.17158,0.6849517 h 2.08899 2.08901 l -0.81507,3.2535128 -0.81505,3.2535191 h -3.24955 -3.24956 z" /><path
         style="fill:#000000;stroke:#ffffff;stroke-width:7.922;stroke-dasharray:none"
         d="m 151.8616,-22.056678 1.14414,-4.64302 h 7.26733 7.26733 l 0.49746,-2.018709 0.49744,-2.018693 h -7.26733 -7.26733 l 2.93496,-11.910352 2.93496,-11.910352 h 11.30473 11.30474 l -1.14413,4.643018 -1.14414,4.643022 h -7.26733 -7.26733 l -0.59694,2.422444 -0.59694,2.422444 h 7.26733 7.26733 l -2.83547,11.506601 -2.83547,11.506617 H 162.0222 150.71747 Z"
         id="path1-9-2" /><path
         sodipodi:type="star"
         style="fill:#a3acbe;fill-opacity:1;stroke:#ffffff;stroke-width:8.93072;stroke-dasharray:none"
         id="path30-0"
         inkscape:flatsided="false"
         sodipodi:sides="5"
         sodipodi:cx="-24.085712"
         sodipodi:cy="-79.190903"
         sodipodi:r1="48.273609"
         sodipodi:r2="19.38492"
         sodipodi:arg1="0.78539816"
         sodipodi:arg2="1.4137167"
         inkscape:rounded="0"
         inkscape:randomized="0"
         d="m 10.048884,-45.056306 -31.102127,-14.988337 -24.948229,23.865841 4.643669,-34.211531 -30.40719,-16.352226 33.972072,-6.155552 6.155552,-33.972069 16.352226,30.407187 34.211531,-4.643667 -23.8658409,24.948227 z"
         inkscape:transform-center-x="-1.5181786"
         inkscape:transform-center-y="-2.0053952"
         transform="matrix(0.46724218,0.09540385,-0.17704512,0.48335636,192.80491,7.5770501)" /><path
         id="path17"
         style="fill:#000000;fill-opacity:1;stroke-width:0.435035"
         d="m 144.54153,-2.036863 c -0.0329,-0.042838 0.0795,-0.6332404 0.24951,-1.3120173 l 0.30916,-1.2341421 2.12581,-0.031114 2.1258,-0.031114 0.12871,-0.5137189 0.12868,-0.5137117 -2.11022,-0.031115 -2.11022,-0.031114 0.84301,-3.3651015 0.84302,-3.3651005 h 3.31137 3.31139 l -0.35454,1.284282 -0.35454,1.2842827 -2.13153,0.031149 -2.13153,0.031157 -0.12906,0.6538172 -0.12905,0.6538112 2.11203,0.031114 2.11202,0.031114 -0.8381,3.2223982 -0.8381,3.2223919 -3.207,0.03033 c -1.76384,0.016657 -3.23385,-0.00472 -3.26664,-0.047566 z m 8.64425,-5.1728202 1.31657,-5.2554258 h 1.16055 1.16056 l -0.45757,1.826537 -0.45758,1.8265357 h 1.62478 1.62477 l 0.45758,-1.8265357 0.45758,-1.826537 h 1.16056 1.16056 l -1.31657,5.2554258 -1.31658,5.2554227 -1.12335,-0.032654 -1.12336,-0.032654 0.4903,-2.0833944 0.49029,-2.0833886 h -1.61953 -1.61955 l -0.55355,2.0833886 -0.55355,2.0833944 -1.13971,0.032654 -1.13973,0.032654 z m 8.58876,-0.00258 1.31592,-5.2528538 h 3.71758 3.71757 l -0.35454,1.284284 -0.35454,1.2842847 -2.53191,0.030767 -2.53193,0.030767 -0.17104,0.6827233 -0.17102,0.6827251 h 1.6828 1.68281 l -0.34317,1.3699026 -0.34319,1.3699012 h -1.68281 -1.6828 l -0.15729,0.6278689 -0.15729,0.6278704 h 2.44109 2.44109 l -0.34037,1.2272052 -0.34037,1.2272027 -3.57629,0.030205 -3.57626,0.030206 z m 8.00718,0.00258 1.31657,-5.2554258 h 3.65575 3.65576 l -0.84184,3.3604444 -0.84184,3.3604392 -0.38615,0.03576 -0.38614,0.03576 -0.49769,1.8591744 -0.49764,1.8591745 -1.12048,-0.032627 -1.12045,-0.032654 0.43283,-1.8550749 0.43285,-1.8550757 h -0.92271 -0.9227 l -0.49661,1.8550757 -0.49661,1.8550749 -1.13973,0.032654 -1.13972,0.032654 z m 5.47761,-1.9448276 0.17159,-0.6849499 h -1.33464 -1.33465 l -0.17158,0.6849499 -0.17159,0.6849517 h 1.33464 1.33465 z m 1.66067,5.8791614 0.3289,-1.3128247 h 0.92844 0.92844 l 0.65776,-2.6256469 0.65777,-2.6256397 h -0.92844 -0.92845 l 0.3289,-1.3128243 0.32886,-1.312824 h 3.01745 3.01745 l -0.32888,1.312824 -0.32888,1.3128243 h -0.93062 -0.93064 l -0.61942,2.5971032 -0.61943,2.5971049 0.89109,0.033359 0.89105,0.033357 -0.32767,1.3080209 -0.32768,1.3080221 h -3.01744 -3.01746 z m 6.61484,1.2367157 c -0.032,-0.04185 0.52511,-2.4049383 1.23817,-5.2512884 l 1.29646,-5.1751869 h 3.71756 3.71759 l -0.35454,1.284285 -0.35454,1.2842831 -2.53765,0.030767 -2.53764,0.030767 -0.12914,0.6541663 -0.12915,0.6541698 1.70393,0.031569 1.70389,0.031576 -0.34165,1.363797 -0.34166,1.3638024 -1.71974,0.031576 -1.71971,0.031586 -0.49662,1.8550757 -0.49662,1.8550758 h -1.08031 c -0.59417,0 -1.10656,-0.034266 -1.13862,-0.076115 z m 8.00784,0 c -0.0321,-0.04185 0.52512,-2.4049383 1.23815,-5.2512884 l 1.29648,-5.1751869 h 3.71758 3.71757 l -0.35454,1.284285 -0.35456,1.2842831 -2.53192,0.030767 -2.53193,0.030767 -0.17103,0.6827242 -0.17104,0.6827251 h 1.74084 1.74085 l -0.34319,1.3699005 -0.34318,1.3699026 h -1.74084 -1.74083 l -0.47187,1.8836131 -0.47187,1.8836159 h -1.08319 c -0.59575,0 -1.10942,-0.034266 -1.14149,-0.076115 z m 8.12423,-1.2367157 0.32889,-1.3128247 h 2.08899 2.08899 l 0.14299,-0.5707938 0.14301,-0.5707902 h -2.08901 -2.08899 l 0.84366,-3.3676742 0.84364,-3.3676767 h 3.24956 3.24956 l -0.32889,1.312824 -0.32888,1.3128243 h -2.08899 -2.089 l -0.17161,0.6849499 -0.17158,0.6849517 h 2.08899 2.08901 l -0.81507,3.2535128 -0.81505,3.2535191 h -3.24955 -3.24956 z" /><path
         style="fill:#000000;stroke-width:1.53359;stroke-dasharray:none"
         d="m 151.8616,-22.056678 1.14414,-4.64302 h 7.26733 7.26733 l 0.49746,-2.018709 0.49744,-2.018693 h -7.26733 -7.26733 l 2.93496,-11.910352 2.93496,-11.910352 h 11.30473 11.30474 l -1.14413,4.643018 -1.14414,4.643022 h -7.26733 -7.26733 l -0.59694,2.422444 -0.59694,2.422444 h 7.26733 7.26733 l -2.83547,11.506601 -2.83547,11.506617 H 162.0222 150.71747 Z"
         id="path1-9" /><path
         style="fill:#a3acbe;fill-opacity:1;stroke:#000000;stroke-width:2.626;stroke-dasharray:none"
         d="m 151.51665,-21.48177 1.14414,-4.64302 h 7.26733 7.26733 l 0.49746,-2.018709 0.49744,-2.018693 h -7.26733 -7.26733 l 2.93496,-11.910352 2.93496,-11.910352 h 11.30473 11.30474 l -1.14413,4.643018 -1.14414,4.643022 h -7.26733 -7.26733 l -0.59694,2.422444 -0.59694,2.422444 h 7.26733 7.26733 l -2.83547,11.506601 -2.83547,11.506617 h -11.30474 -11.30473 z"
         id="path1-9-9" /><path
         sodipodi:type="star"
         style="fill:#000000;fill-opacity:1;stroke-width:3"
         id="path30"
         inkscape:flatsided="false"
         sodipodi:sides="5"
         sodipodi:cx="-24.085712"
         sodipodi:cy="-79.190903"
         sodipodi:r1="48.273609"
         sodipodi:r2="19.38492"
         sodipodi:arg1="0.78539816"
         sodipodi:arg2="1.4137167"
         inkscape:rounded="0"
         inkscape:randomized="0"
         d="m 10.048884,-45.056306 -31.102127,-14.988337 -24.948229,23.865841 4.643669,-34.211531 -30.40719,-16.352226 33.972072,-6.155552 6.155552,-33.972069 16.352226,30.407187 34.211531,-4.643667 -23.8658409,24.948227 z"
         inkscape:transform-center-x="-1.5181786"
         inkscape:transform-center-y="-2.0053952"
         transform="matrix(0.46724218,0.09540385,-0.17704512,0.48335636,192.80491,7.5770501)" /><path
         sodipodi:type="star"
         style="fill:#a3acbe;fill-opacity:1;stroke-width:3"
         id="path30-7"
         inkscape:flatsided="false"
         sodipodi:sides="5"
         sodipodi:cx="-24.085712"
         sodipodi:cy="-79.190903"
         sodipodi:r1="48.273609"
         sodipodi:r2="19.38492"
         sodipodi:arg1="0.78539816"
         sodipodi:arg2="1.4137167"
         inkscape:rounded="0"
         inkscape:randomized="0"
         d="m 10.048884,-45.056306 -31.102127,-14.988337 -24.948229,23.865841 4.643669,-34.211531 -30.40719,-16.352226 33.972072,-6.155552 6.155552,-33.972069 16.352226,30.407187 34.211531,-4.643667 -23.8658409,24.948227 z"
         inkscape:transform-center-x="-0.91509642"
         inkscape:transform-center-y="-1.2087741"
         transform="matrix(0.28163541,0.05750573,-0.10671591,0.29134841,193.90387,-8.5410358)" /></g></g></svg>
