<?xml version="1.0" encoding="UTF-8" standalone="no"?>
<!-- Created with Inkscape (http://www.inkscape.org/) -->

<svg
   width="105.83334mm"
   height="105.83334mm"
   viewBox="0 0 105.83333 105.83333"
   version="1.1"
   id="svg1"
   xml:space="preserve"
   inkscape:version="1.4.2 (ebf0e940d0, 2025-05-08)"
   sodipodi:docname="san_diego.svg"
   inkscape:export-filename="../pngs/phoenix.png"
   inkscape:export-xdpi="96"
   inkscape:export-ydpi="96"
   xmlns:inkscape="http://www.inkscape.org/namespaces/inkscape"
   xmlns:sodipodi="http://sodipodi.sourceforge.net/DTD/sodipodi-0.dtd"
   xmlns="http://www.w3.org/2000/svg"
   xmlns:svg="http://www.w3.org/2000/svg"><sodipodi:namedview
     id="namedview1"
     pagecolor="#ffffff"
     bordercolor="#000000"
     borderopacity="0.25"
     inkscape:showpageshadow="2"
     inkscape:pageopacity="0.0"
     inkscape:pagecheckerboard="0"
     inkscape:deskcolor="#d1d1d1"
     inkscape:document-units="mm"
     inkscape:zoom="0.87311692"
     inkscape:cx="276.59526"
     inkscape:cy="233.64568"
     inkscape:window-width="1920"
     inkscape:window-height="1011"
     inkscape:window-x="0"
     inkscape:window-y="32"
     inkscape:window-maximized="1"
     inkscape:current-layer="layer1"
     showgrid="false"
     showguides="false" /><defs
     id="defs1" /><g
     inkscape:label="Capa 1"
     inkscape:groupmode="layer"
     id="layer1"><g
       id="g1333"
       transform="matrix(1.0523541,0,0,1.0523541,-2.7704049,2.4126973)"><circle
         style="fill:#13b2f2;fill-opacity:1;stroke:none;stroke-width:0.123256;stroke-dasharray:none"
         id="path50"
         cx="51.704536"
         cy="41.547894"
         r="39.861622" /><path
         style="fill:#c46602;fill-opacity:1;stroke-width:0.142433"
         d="m 50.370259,78.814723 c -2.181684,-0.10136 -3.942434,-0.307601 -5.860852,-0.68651 -0.904977,-0.178741 -2.60482,-0.589336 -2.60482,-0.629185 0,-0.01413 0.191292,-0.12866 0.425085,-0.254573 0.701811,-0.377977 1.401505,-0.795869 2.867118,-1.712376 1.992288,-1.245855 2.665173,-1.640896 3.545453,-2.081497 2.216964,-1.10962 3.302397,-1.177341 5.241553,-0.326984 0.903302,0.39611 1.870762,0.95027 3.911503,2.240486 1.3411,0.847874 2.346282,1.454115 3.019596,1.821165 0.277877,0.151482 0.522071,0.281509 0.542669,0.288978 0.0848,0.03071 -0.04685,0.07402 -0.800173,0.262955 -2.114086,0.530326 -4.194546,0.852764 -6.63314,1.028031 -0.525281,0.03778 -3.143469,0.07323 -3.653992,0.04952 z M 36.134182,74.581507 c -1.43569,-0.213131 -2.88054,-0.874907 -5.836668,-2.673332 -1.013616,-0.616653 -1.315051,-0.82913 -2.164424,-1.525665 -2.361988,-1.936974 -4.471908,-4.147235 -6.29685,-6.596318 -0.623467,-0.836694 -1.390551,-1.955795 -1.374267,-2.00491 0.01735,-0.05226 0.408179,-0.156006 0.769682,-0.204258 0.857698,-0.114498 2.058483,0.315029 4.031004,1.441892 0.36811,0.210304 1.35492,0.801718 2.192916,1.314249 1.870174,1.143849 2.706739,1.625163 3.667997,2.110351 2.077116,1.048412 3.625863,1.513392 5.212305,1.564888 1.640464,0.05321 3.176393,-0.340207 5.188833,-1.329216 0.978269,-0.480761 1.828945,-0.974585 3.798704,-2.205166 1.907044,-1.1914 2.590518,-1.59354 3.39038,-1.9948 1.471341,-0.738119 2.449203,-0.999771 3.361312,-0.899403 1.215802,0.133792 2.522693,0.737327 5.114721,2.362031 0.477556,0.299332 1.257733,0.788003 1.733735,1.085926 1.119963,0.70098 2.084318,1.250515 2.897067,1.650878 3.027281,1.49123 5.405675,1.719244 8.121981,0.778618 1.408131,-0.487612 2.804488,-1.235979 5.408625,-2.898718 2.158526,-1.378199 2.843027,-1.782649 3.7548,-2.218602 1.261666,-0.60324 2.292757,-0.85272 3.157555,-0.763971 0.446959,0.0459 0.739309,0.106377 0.739309,0.15302 0,0.04795 -0.707109,1.093197 -1.159166,1.71349 -1.717647,2.356858 -3.683292,4.487202 -5.877474,6.369945 -0.587654,0.50425 -0.808102,0.665415 -1.519472,1.110897 -0.457655,0.28659 -1.092577,0.689195 -1.410952,0.894686 -2.460494,1.588097 -3.807381,2.291791 -4.979013,2.601334 -0.565234,0.149335 -0.982814,0.198262 -1.460687,0.171175 -1.431938,-0.08117 -2.929017,-0.763402 -6.150273,-2.802711 -2.114179,-1.338442 -2.777281,-1.730515 -3.83488,-2.26745 -0.797069,-0.404666 -1.299284,-0.622871 -1.954604,-0.849219 -2.619951,-0.904958 -4.82489,-0.672874 -7.813483,0.822411 -0.992415,0.49653 -1.565765,0.831933 -3.726344,2.179873 -1.830574,1.142053 -2.372899,1.463008 -3.183673,1.884141 -0.915621,0.475587 -1.692357,0.780809 -2.387753,0.938246 -0.315943,0.0715 -1.16072,0.122827 -1.410943,0.08566 z m 0.09043,-10.977801 c -0.773563,-0.06969 -1.845756,-0.431398 -3.012305,-1.016162 -0.908116,-0.455229 -1.6056,-0.858955 -3.752998,-2.172395 -2.734601,-1.672602 -4.090237,-2.373951 -5.427912,-2.808178 -0.956222,-0.310405 -1.470513,-0.405298 -2.332291,-0.430321 -1.008915,-0.02933 -1.857849,0.121433 -2.964425,0.526317 -0.277377,0.101487 -0.507657,0.180828 -0.511745,0.176326 -0.01855,-0.02053 -0.531818,-1.137887 -0.70173,-1.527692 -0.318994,-0.731858 -0.745467,-1.828919 -1.000703,-2.574263 -0.235808,-0.68862 -0.240898,-0.710989 -0.173179,-0.76155 0.138139,-0.103098 1.563464,-0.983426 2.038103,-1.25877 1.017972,-0.590542 2.030415,-1.024792 2.658014,-1.140052 0.918482,-0.168688 2.132173,0.230468 4.094229,1.346485 0.507107,0.28844 0.890736,0.519224 3.07349,1.848995 3.581335,2.181792 5.641708,3.027957 7.814475,3.20927 0.741613,0.06195 1.588468,-0.0017 2.405841,-0.179794 0.18717,-0.04088 0.350841,-0.07426 0.36372,-0.07426 0.01288,0 0.0345,0.215721 0.04804,0.479365 0.0703,1.367064 0.341026,3.961609 0.548008,5.252526 0.02845,0.177793 0.04805,0.32688 0.04347,0.331296 -0.02355,0.0226 -0.489974,0.221077 -0.845025,0.359537 -0.882049,0.343994 -1.648419,0.477926 -2.365113,0.413345 z m 30.208711,-0.0017 c -0.400362,-0.03597 -0.733902,-0.109122 -1.231751,-0.270063 -0.402321,-0.130072 -1.151154,-0.429353 -1.197414,-0.47859 -0.01323,-0.01431 0.02226,-0.351368 0.079,-0.749331 0.196289,-1.375716 0.368966,-3.100065 0.469051,-4.684006 0.022,-0.347634 0.04373,-0.63581 0.04831,-0.640381 0.0043,-0.0043 0.200041,0.03062 0.434367,0.07814 0.665939,0.135205 1.075291,0.175755 1.778346,0.176148 1.547953,8.62e-4 2.953091,-0.369482 4.775506,-1.258707 1.144392,-0.558396 1.933947,-1.024803 4.323286,-2.553845 2.681321,-1.715905 4.013425,-2.364438 5.318176,-2.589153 0.410894,-0.07076 1.167241,-0.0518 1.591832,0.03992 1.036768,0.223963 2.491072,0.9193 4.159578,1.988782 l 0.252061,0.16157 -0.235464,0.690787 c -0.129516,0.379935 -0.342667,0.970497 -0.473665,1.312366 -0.438694,1.144808 -1.238445,2.955061 -1.305518,2.955061 -0.01717,0 -0.201265,-0.05736 -0.409126,-0.127389 -0.465911,-0.157045 -1.117748,-0.317194 -1.644174,-0.403959 -0.614591,-0.101291 -2.010671,-0.09185 -2.622831,0.0177 -1.467673,0.26279 -2.797793,0.773432 -4.52234,1.736149 -0.674954,0.37678 -1.283773,0.750808 -2.839982,1.74468 -1.625835,1.038345 -2.350802,1.473308 -3.113675,1.868123 -1.515385,0.784276 -2.600671,1.07875 -3.63354,0.985902 z M 43.532596,60.394992 c 0,-0.01864 -0.03209,-0.325484 -0.07124,-0.681905 -0.329846,-3.001439 -0.411998,-6.807583 -0.216617,-10.036258 0.571685,-9.447418 3.129719,-17.968116 7.038047,-23.443408 0.373442,-0.523157 0.987128,-1.305458 1.289235,-1.643454 l 0.159317,-0.17824 0.411437,0.485753 c 2.948701,3.481344 5.321531,8.835542 6.72472,15.174062 1.223195,5.525523 1.673674,11.612007 1.287915,17.40166 -0.08264,1.240644 -0.243989,2.89805 -0.286202,2.940265 -0.0092,0.0092 -0.371432,-0.202653 -0.805262,-0.470464 C 57.082475,58.719834 55.8719,58.108331 54.56688,57.671387 53.914043,57.452804 53.32985,57.309194 52.794158,57.235608 l -0.307515,-0.04226 -0.0052,-2.989483 c -0.0098,-5.734823 -0.193432,-10.447432 -0.519648,-13.347646 -0.07979,-0.709762 -0.215176,-1.526345 -0.252984,-1.526345 -0.03667,0 -0.168509,0.788794 -0.251059,1.501391 -0.323171,2.790059 -0.511609,7.608526 -0.521528,13.33641 l -0.0052,3.025646 -0.307516,0.04226 c -0.789751,0.10852 -1.959416,0.452472 -2.83998,0.835142 -0.9411,0.408971 -2.135806,1.05421 -3.400741,1.8367 -0.845493,0.52302 -0.850184,0.525711 -0.850184,0.487552 z m -7.597401,-7.805658 c -1.322685,-0.227149 -2.840679,-0.933939 -5.517163,-2.568836 -2.810223,-1.716599 -3.363941,-2.038209 -4.395629,-2.553071 -1.319761,-0.658616 -2.314555,-1.010165 -3.361855,-1.188043 -2.086345,-0.354348 -4.050852,0.20623 -7.045647,2.010496 -0.242228,0.145937 -0.455076,0.265346 -0.472983,0.265346 -0.04383,0 -0.313484,-1.644381 -0.424108,-2.586735 -0.524435,-4.467238 -0.249387,-8.948388 0.815733,-13.28982 2.606062,-10.622374 9.901225,-19.676064 19.768543,-24.5338191 6.321027,-3.1118873 13.242826,-4.343971 20.313997,-3.6158896 6.812616,0.7014589 13.397175,3.3485353 18.848791,7.5774437 4.48268,3.477295 8.072073,7.845479 10.604324,12.905157 1.811468,3.619495 3.006218,7.492005 3.558004,11.532535 0.241779,1.770403 0.320316,2.982373 0.322335,4.974486 0.0017,1.936011 -0.06461,3.047967 -0.285986,4.77551 -0.08573,0.668872 -0.296725,2.01038 -0.319867,2.033523 -0.006,0.0063 -0.197168,-0.09678 -0.424066,-0.229177 -0.2269,-0.132397 -0.673021,-0.37395 -0.991389,-0.53679 -3.536913,-1.80912 -6.300567,-1.841922 -9.804262,-0.11637 -1.041004,0.512686 -1.976264,1.060083 -3.708264,2.170387 -2.097706,1.344743 -2.822835,1.77325 -3.780607,2.234077 -1.837037,0.883876 -3.008443,1.003268 -4.579168,0.46671 -0.187576,-0.06407 -0.351378,-0.126619 -0.363997,-0.139014 -0.0127,-0.01234 -0.04174,-0.527189 -0.06479,-1.144029 C 64.193149,39.399 60.997944,28.953642 55.930423,22.603169 c -1.036853,-1.299355 -1.967586,-2.23041 -3.78021,-3.781549 -0.433521,-0.370975 -0.486629,-0.406146 -0.542377,-0.359204 -0.341113,0.287222 -1.624964,1.46351 -2.064988,1.89197 -5.821684,5.668652 -9.811173,16.319816 -10.657751,28.454072 -0.07323,1.049169 -0.127497,2.2641 -0.127783,2.859069 l -2.84e-4,0.489403 -0.316556,0.115587 c -0.926797,0.33839 -1.763543,0.444196 -2.505338,0.316808 z"
         id="path16"
         sodipodi:nodetypes="sssssssssssssssssssssssssssssssssssssssssssssssssscssssscsssssssscssscsccssscssscssssscsssssssssssccssscssssssscssssscssscccsssssssssssscssssssssscsssssccscc" /><path
         id="path17"
         style="fill:#13b2f2;fill-opacity:1;stroke:none;stroke-width:0.13367;stroke-dasharray:none"
         d="m 53.003181,3.0179117 0.0043,0.7871515 a 37.671635,38.409248 0 0 1 23.890297,9.8241548 c 0.200824,-0.326776 0.295567,-0.558384 0.255966,-0.663643 C 76.624169,11.558565 69.153834,6.9884742 64.635677,5.3072712 62.149866,4.3823351 58.515922,3.488937 56.559878,3.321652 Z m 0.0043,0.7871515 a 37.671635,38.409248 0 0 0 -1.302346,-0.03296 37.671635,38.409248 0 0 0 -1.708505,0.1246337 v 18.0700971 2.455341 l 0.964702,-1.92303 2.181538,2.602042 c -0.0098,-1.104564 -0.02476,-1.974658 -0.03182,-3.202814 z m -5.02632,-0.6496709 c -5.249206,0 -13.614872,3.2561425 -19.196435,7.4713647 l -3.444696,2.601481 0.815337,0.822359 A 37.671635,38.409248 0 0 1 49.996346,3.8967157 V 3.1553923 Z M 26.155371,14.050597 a 37.671635,38.409248 0 0 0 -2.014906,2.054359 l 3.530202,3.559084 c 2.396648,2.416279 5.228599,5.591983 6.293297,7.057253 2.205413,3.03526 4.52354,9.215849 4.540671,12.10653 0.01054,1.851329 -0.07919,1.945852 -1.765236,1.854289 -0.977155,-0.05271 -6.63521,-0.116209 -12.573446,-0.139998 L 14.151154,40.49992 a 37.671635,38.409248 0 0 0 -0.118105,1.681325 37.671635,38.409248 0 0 0 0.116478,1.662878 h -0.780256 v 0.03381 h 0.784094 a 37.671635,38.409248 0 0 1 -0.0034,-0.03381 h 11.792897 12.573437 v 0.03381 h 1.721115 l 1.67809,-3.345319 c -0.01377,-7.78e-4 -0.172875,-0.0052 -0.180614,-0.0059 -0.18415,-0.01449 -0.492925,-1.40122 -0.686521,-3.08098 C 40.247726,30.49979 37.340939,25.333646 30.155234,18.085229 Z M 14.151246,40.499925 a 37.671635,38.409248 0 0 1 9.98931,-24.394969 l -0.826843,-0.834093 -2.587972,3.556847 c -2.988388,4.108176 -4.91772,8.179363 -6.308651,13.311427 l -0.0017,-0.0034 c -0.540039,1.992585 -0.997116,4.68863 -1.014851,5.991511 l -0.03182,2.369276 z M 76.897603,13.629497 c -0.626988,1.020153 -2.334145,3.008595 -4.593013,5.311662 -6.099441,6.218967 -8.929531,11.239237 -9.908185,17.576347 l -0.615274,3.982419 -0.551139,0.01234 0.742709,3.332467 h 0.05072 v 0.03325 h 2.733229 v -0.03354 l 11.480205,-0.06958 c 6.314084,-0.03962 11.910784,-0.10151 12.436962,-0.139427 0.230857,-0.01681 0.423857,0.06202 0.585392,0.21516 a 37.671635,38.409248 0 0 1 -0.0034,0.02739 h 0.02225 c -0.007,-0.0073 -0.0118,-0.02092 -0.01916,-0.02795 a 37.671635,38.409248 0 0 0 0.1173,-1.668191 37.671635,38.409248 0 0 0 -0.03398,-1.411953 L 77.398307,40.61983 64.756623,40.460282 l 0.03588,-1.51255 c 0.0213,-0.832044 0.397852,-2.886379 0.840275,-4.565026 1.196482,-4.539586 3.139709,-7.501884 8.874145,-13.527145 2.625132,-2.758312 4.065979,-4.148819 4.922711,-4.668696 a 37.671635,38.409248 0 0 0 -2.532329,-2.55733 z m 3.130349,2.311716 c -0.162,0.02026 -0.357374,0.0992 -0.597738,0.245057 a 37.671635,38.409248 0 0 1 9.912292,24.583303 l 0.697769,0.0089 -0.298449,-3.626147 c -0.164289,-1.99432 -1.04109,-5.699464 -1.948317,-8.233929 -1.519004,-4.243666 -5.601677,-11.373685 -7.369267,-12.869369 -0.105924,-0.08964 -0.234309,-0.128122 -0.39629,-0.10786 z" /><path
         id="path1322"
         style="fill:#1d1160;fill-opacity:1;stroke-width:0.876422"
         d="m 39.463498,68.507293 c -2.139868,-0.005 -4.242705,0.1123 -4.703589,0.35554 -0.735651,0.38824 -3.357298,3.03783 -3.730522,3.77031 -0.17745,0.34821 -0.257865,3.56201 -0.257865,10.28413 v 9.777704 l 0.800468,0.80098 0.800985,0.80047 3.315043,-0.11627 c 4.3829,-0.15352 4.062108,-0.15314 7.369059,-5.2e-4 3.373919,0.15571 4.352489,-0.0502 4.936133,-1.03818 0.364571,-0.6172 0.401526,-1.6111 0.401526,-10.707364 v -10.02729 l -1.565279,-1.58492 c -0.860875,-0.87175 -1.958279,-1.74364 -2.439128,-1.93735 -0.609762,-0.24563 -2.786963,-0.37241 -4.926831,-0.37724 z m 53.429301,0.005 c -2.07443,-0.002 -4.15223,0.1121 -4.71134,0.34571 -0.94724,0.39578 -2.528166,1.78958 -3.418401,3.01377 l -0.657841,0.90434 0.0036,4.54494 c 0.0027,3.53788 0.07746,4.67349 0.33848,5.12475 0.632374,1.09328 0.644679,1.1809 0.208773,1.49914 -0.379386,0.27699 -0.44438,0.70535 -0.51108,3.354834 l -0.07648,3.03702 1.583366,1.65003 c 0.871056,0.90748 1.896836,1.78881 2.279446,1.95854 0.49835,0.22106 1.96771,0.31181 5.18056,0.31781 l 4.485,0.009 1.94975,-1.91926 1.950268,-1.91978 v -4.889624 c 0,-4.53878 -0.0336,-4.93251 -0.46405,-5.47977 -0.484,-0.61528 -0.60165,-1.09606 -0.26872,-1.09606 0.48471,0 0.73277,-1.35529 0.73277,-4.00234 v -2.82101 l -1.565278,-1.46917 c -0.86089,-0.80809 -1.91706,-1.62107 -2.34714,-1.80609 -0.54607,-0.23487 -2.61728,-0.35413 -4.6917,-0.35656 z m -17.135392,0.0207 c -5.682029,0 -6.648932,0.15162 -7.169589,1.12448 -0.337689,0.63107 -0.349965,22.836484 -0.01292,23.466264 0.130699,0.24421 0.521769,0.5984 0.869198,0.78704 h 5.17e-4 c 0.892909,0.48307 11.285213,0.51864 12.425081,0.0424 1.198424,-0.50072 1.358936,-1.19 1.228866,-5.27771 -0.0624,-1.95957 -0.107903,-3.693064 -0.101803,-3.852484 0.02849,-0.70391 0.0381,-6.94448 0.01137,-7.36234 -0.01632,-0.25508 0.02267,-1.99573 0.08682,-3.86798 0.08002,-2.33576 0.03258,-3.56082 -0.150895,-3.90364 -0.538868,-1.00687 -1.466067,-1.156 -7.186641,-1.156 z m -11.819951,0.0512 c -0.541219,-0.01 -1.198999,0.008 -2.01383,0.045 -1.637752,0.0743 -3.343053,0.12031 -3.789433,0.10181 -0.446379,-0.0185 -2.255138,-0.0445 -4.019393,-0.0579 l -3.207556,-0.0243 -0.676445,0.75706 -0.676444,0.75758 v 8.21293 c 0,5.16785 0.09018,8.455394 0.243396,8.866134 0.26992,0.72357 5.268704,5.8985 6.365503,6.58978 v -5.2e-4 c 0.534565,0.33692 1.132799,0.43911 2.583821,0.43977 l 1.888257,5.1e-4 2.749703,-2.72024 c 4.264408,-4.21903 3.792534,-2.63848 3.792534,-12.713964 0,-8.21877 -0.02106,-8.64627 -0.455787,-9.19892 -0.589494,-0.74948 -1.160669,-1.0258 -2.784326,-1.05471 z m -58.2481235,0.0646 -0.676444,0.75758 -0.676445,0.75706 v 8.71419 8.714204 l 2.956409,3.01377 c 1.626104,1.65758 3.2698775,3.15217 3.6524905,3.32125 v 5.1e-4 c 0.9352,0.41332 3.352615,0.42254 4.324283,0.0165 0.432663,-0.18078 0.983329,-0.54623 1.223698,-0.81184 0.553559,-0.61164 0.876524,-0.60872 1.430403,0.0129 0.715391,0.8029 1.804013,1.12758 3.781165,1.12758 h 1.846399 l 2.828251,-2.84065 c 1.555474,-1.56233 3.023035,-3.1536 3.2613,-3.53622 0.402533,-0.64633 0.433275,-1.29975 0.434082,-9.213914 l 0.001,-8.51783 -0.676444,-0.75757 -0.676445,-0.75706 -3.207556,0.0202 c -1.764264,0.0112 -3.521018,0.0294 -3.903638,0.0403 -0.594228,0.0167 -1.987557,0.0162 -8.174178,-0.002 -0.478266,-10e-4 -2.416989,-0.0156 -4.3087805,-0.031 z" /><path
         style="fill:#13b2f2;fill-opacity:1;stroke-width:0.876422"
         d="m 10.945502,93.926651 c -0.382613,-0.16908 -2.0261097,-1.66364 -3.6522137,-3.32122 l -2.956557,-3.01381 v -8.714295 -8.714301 l 0.676371,-0.75729 0.67637,-0.75729 3.439618,0.02805 c 1.8917897,0.01542 3.8309267,0.02927 4.3091927,0.03068 6.186621,0.01832 7.579775,0.01867 8.174003,0.0018 0.38262,-0.01087 2.139154,-0.02892 3.903418,-0.04014 l 3.207749,-0.02033 0.676353,0.75729 0.676352,0.75729 -8.67e-4,8.518176 c -8.07e-4,7.91415 -0.03155,8.56751 -0.434083,9.21383 -0.238265,0.38262 -1.705869,1.97395 -3.261343,3.53628 l -2.828144,2.84062 h -1.846736 c -1.977152,0 -3.065459,-0.32453 -3.78085,-1.12743 -0.553879,-0.62164 -0.877118,-0.62454 -1.430677,-0.0129 -0.240369,0.26561 -0.79103,0.63082 -1.223693,0.8116 -0.971668,0.406 -3.389063,0.39672 -4.324263,-0.0166 z m 4.874721,-2.67431 1.408901,-1.39638 1.40506,1.39638 c 1.372491,1.36401 1.434305,1.39638 2.666812,1.39638 h 1.261752 l 2.945103,-2.97648 2.945094,-2.9765 v -8.029965 c 0,-9.36303 0.302147,-8.510069 -3.014524,-8.510069 -3.291211,0 -3.014524,-0.667878 -3.014524,7.276653 0,6.566489 -0.01613,6.811177 -0.477352,7.228547 -0.365731,0.330989 -0.569061,0.374215 -0.869574,0.184864 C 20.72752,84.625587 20.672098,83.852828 20.5688,77.760195 20.47857,72.43848 20.38227,70.836801 20.134605,70.53873 19.645565,69.95016 15.234191,69.980238 14.6952,70.5758 c -0.33099,0.36574 -0.388163,1.300374 -0.441742,7.221299 -0.05514,6.094377 -0.102305,6.826891 -0.453771,7.048485 -0.300611,0.189536 -0.503728,0.146389 -0.869575,-0.184697 -0.460613,-0.416844 -0.477347,-0.663811 -0.477347,-7.044533 0,-5.827629 -0.04556,-6.662886 -0.38377,-7.03661 -0.541519,-0.598368 -5.0331487,-0.6302 -5.6849957,-0.04031 -0.394996,0.357466 -0.424115,0.925651 -0.424864,8.289955 l -8.03e-4,7.906172 2.997248,2.95656 2.9972457,2.95656 h 1.229249 c 1.192341,0 1.27155,-0.0419 2.638148,-1.39638 z m -3.589818,-0.0994 c -0.263376,-0.31735 -0.143686,-0.35931 1.024893,-0.35931 0.954721,0 1.296557,0.0807 1.227777,0.28985 -0.146545,0.44565 -1.895706,0.49957 -2.25267,0.0695 z m 8.029213,0.18176 c -0.384234,-0.38424 -0.06147,-0.54107 1.11351,-0.54107 1.031926,0 1.24324,0.0648 1.134625,0.34783 -0.136529,0.35578 -1.931318,0.51006 -2.248135,0.19324 z m -9.383682,-1.51499 c -0.153045,-0.15305 -0.278264,-0.36175 -0.278264,-0.46378 0,-0.10203 1.200013,-0.18551 2.666696,-0.18551 1.466683,0 2.666697,0.0835 2.666697,0.18551 0,0.55018 -0.689491,0.74204 -2.666697,0.74204 -1.332061,0 -2.212776,-0.10261 -2.388432,-0.27826 z m 7.868175,-0.0329 c -0.142047,-0.17116 -0.189607,-0.37985 -0.105689,-0.46377 0.240475,-0.24048 5.133824,-0.17783 5.285541,0.0677 0.270543,0.43775 -0.814713,0.7073 -2.847752,0.7073 -1.452007,0 -2.151271,-0.0933 -2.3321,-0.3112 z m -9.5377587,-1.65985 c -0.255695,-0.30809 0.671476,-0.34783 8.1160337,-0.34783 7.444555,0 8.371731,0.0397 8.116035,0.34783 -0.433137,0.5219 -15.7989307,0.5219 -16.2320687,0 z m -1.077733,-1.27383 c -1.549931,-0.62536 -0.615837,-0.69721 9.0641377,-0.69721 6.184731,0 9.868868,0.0835 9.868868,0.22372 0,0.61777 -1.200041,0.70331 -9.666023,0.68912 -4.822932,-0.008 -8.9930737,-0.10511 -9.2669827,-0.21563 z m -1.009247,-1.740703 c 0,-0.283181 0.384371,-0.347826 2.068015,-0.347826 2.1101097,0 2.8016037,0.120596 2.8016037,0.488583 0,0.1139 -1.095664,0.20708 -2.4348087,0.20708 -2.009684,0 -2.43481,-0.0607 -2.43481,-0.347837 z m 7.7102307,0.05802 c 0.06898,-0.206949 0.781974,-0.28985 2.492783,-0.28985 1.710808,0 2.423798,0.08291 2.492782,0.28985 0.07345,0.220347 -0.524322,0.289857 -2.492782,0.289857 -1.968461,0 -2.566233,-0.0695 -2.492783,-0.289857 z m 7.826177,0.08273 c 0,-0.363981 0.684854,-0.488574 2.685665,-0.488574 1.580584,0 1.952073,0.06617 1.952073,0.347835 0,0.285989 -0.412243,0.347819 -2.318873,0.347819 -1.275379,0 -2.318865,-0.0932 -2.318865,-0.20708 z M 7.1193723,83.721075 c 0,-0.575415 0.01546,-0.579709 2.08698,-0.579709 2.0715207,0 2.0869787,0.0044 2.0869787,0.579709 0,0.575424 -0.01546,0.579719 -2.0869787,0.579719 -2.071521,0 -2.08698,-0.0044 -2.08698,-0.579719 z m 8.1160327,0.009 c 0,-0.587124 0.0058,-0.588737 2.103109,-0.588737 2.048365,0 2.101179,0.01358 2.029008,0.521743 -0.06953,0.489596 -0.199107,0.525871 -2.103108,0.588745 l -2.029009,0.06696 z m 8.038744,0.416099 c -0.08501,-0.08501 -0.154592,-0.345898 -0.154592,-0.579719 0,-0.380744 0.217826,-0.425117 2.08698,-0.425117 2.071521,0 2.086981,0.0044 2.086981,0.579709 0,0.571989 -0.02577,0.579719 -1.932389,0.579719 -1.062819,0 -2.001958,-0.06959 -2.08698,-0.154592 z M 7.1193723,82.088844 v -0.588745 l 2.029009,0.06705 c 1.9039997,0.06284 2.0335717,0.09915 2.1031067,0.588745 0.07217,0.508168 0.01936,0.521743 -2.0290077,0.521743 -2.097324,0 -2.103108,-0.0018 -2.103108,-0.588745 z m 8.1160327,0.009 v -0.597745 l 2.029009,0.06705 c 1.852084,0.06117 2.029008,0.107441 2.029008,0.53077 0,0.423338 -0.176924,0.469622 -2.029008,0.530779 l -2.029009,0.06696 z m 7.925992,0.05793 c 0.0695,-0.489596 0.199106,-0.525871 2.103107,-0.588746 l 2.029014,-0.06705 v 0.588746 c 0,0.587124 -0.0061,0.588745 -2.103116,0.588745 -2.048365,0 -2.101178,-0.01359 -2.029005,-0.521743 z M 7.1193723,76.06877 V 71.3151 h 2.08698 2.0869787 v 4.75367 4.753679 h -2.0869787 -2.08698 z m 8.1160327,0.009 v -4.762697 h 2.091782 2.091782 l -0.06277,4.695703 -0.06277,4.695704 -2.029008,0.06696 -2.029009,0.06705 z m 7.884152,-0.009 V 71.3151 h 2.08698 2.086981 v 4.75367 4.753679 h -2.086981 -2.08698 z m 8.453022,17.427051 -0.80076,-0.80077 v -9.777672 c 0,-6.722124 0.08063,-9.935964 0.25808,-10.284175 0.373224,-0.732479 2.994796,-3.382035 3.730447,-3.770281 0.921768,-0.486467 8.410595,-0.469561 9.630119,0.02174 0.480849,0.193716 1.578629,1.065466 2.439504,1.937217 l 1.565237,1.585001 v 10.027147 c 0,9.096253 -0.03733,10.090303 -0.401901,10.707493 -0.583644,0.98804 -1.561942,1.19379 -4.935861,1.03807 -3.306951,-0.15262 -2.98597,-0.15265 -7.36887,8.7e-4 l -3.315225,0.11612 z m 6.891212,-1.23092 c 0.358763,-0.32467 0.424057,-0.75314 0.424057,-2.78264 v -2.39887 h 0.669358 0.669368 l 0.08902,2.40489 c 0.05784,1.56257 0.198825,2.53721 0.402523,2.78265 0.255486,0.30784 0.793154,0.37774 2.905428,0.37774 1.706762,0 2.686961,-0.095 2.870195,-0.27826 0.207265,-0.20727 0.278264,-2.67504 0.278264,-9.672445 v -9.394124 l -1.608761,-1.574072 -1.60876,-1.574063 h -3.929257 -3.929264 l -1.65047,1.643931 -1.650469,1.643941 v 9.324308 c 0,6.943054 0.07108,9.395374 0.278264,9.602564 0.182611,0.18261 1.152802,0.27827 2.822351,0.27827 2.041889,0 2.627803,-0.0757 2.968153,-0.38377 z m -4.909332,-1.12349 c 0,-0.28342 0.386476,-0.34783 2.086981,-0.34783 1.700495,0 2.08698,0.0644 2.08698,0.34783 0,0.28342 -0.386485,0.34783 -2.08698,0.34783 -1.700505,0 -2.086981,-0.0644 -2.086981,-0.34783 z m 7.884146,0 c 0,-0.28342 0.386476,-0.34783 2.08698,-0.34783 1.700505,0 2.086981,0.0644 2.086981,0.34783 0,0.28342 -0.386476,0.34783 -2.086981,0.34783 -1.700504,0 -2.08698,-0.0644 -2.08698,-0.34783 z m -7.884146,-1.50726 c 0,-0.45624 0.107747,-0.47827 2.029005,-0.41483 1.619199,0.0535 2.029005,0.13725 2.029005,0.41483 0,0.27757 -0.409806,0.36136 -2.029005,0.41483 -1.921258,0.0634 -2.029005,0.0414 -2.029005,-0.41483 z m 8.000087,0.23188 c -0.316984,-0.51289 0.234908,-0.69566 2.100671,-0.69566 1.802756,0 1.957349,0.0366 1.957349,0.46378 0,0.42714 -0.154593,0.46377 -1.957349,0.46377 -1.076545,0 -2.021845,-0.10435 -2.100671,-0.23189 z m -8.000087,-1.73915 c 0,-0.28342 0.386476,-0.34783 2.086981,-0.34783 1.700495,0 2.08698,0.0644 2.08698,0.34783 0,0.28342 -0.386485,0.34783 -2.08698,0.34783 -1.700505,0 -2.086981,-0.0644 -2.086981,-0.34783 z m 8.038738,0.19323 c -0.418711,-0.41871 0.01823,-0.54106 1.932388,-0.54106 1.700505,0 2.086981,0.0644 2.086981,0.34783 0,0.28135 -0.369299,0.34783 -1.932389,0.34783 -1.062811,0 -2.001959,-0.0696 -2.08698,-0.1546 z m -7.875539,-1.3827 c -0.08976,-0.0898 -0.163199,-0.30233 -0.163199,-0.47238 0,-0.23494 0.505249,-0.30919 2.103983,-0.30919 1.878743,0 2.095683,0.0435 2.026437,0.4058 -0.06485,0.33948 -0.382076,0.41669 -1.940775,0.47239 -1.024783,0.0366 -1.936683,-0.007 -2.026446,-0.0966 z m 7.836888,-0.0859 c -0.316984,-0.51289 0.234908,-0.69566 2.100671,-0.69566 1.802756,0 1.957349,0.0366 1.957349,0.46378 0,0.42714 -0.154593,0.46377 -1.957349,0.46377 -1.076545,0 -2.021845,-0.10435 -2.100671,-0.23189 z m -8.000087,-1.739143 c 0,-0.300262 0.824486,-0.347834 6.029049,-0.347834 5.204572,0 6.029058,0.04759 6.029058,0.347834 0,0.300267 -0.824486,0.347827 -6.029058,0.347827 -5.204563,0 -6.029049,-0.0476 -6.029049,-0.347827 z m 0,-1.39132 V 83.14133 h 6.029049 6.029058 v 0.579718 0.579718 h -6.029058 -6.029049 z m 0,-1.623204 c 0,-0.572584 0.0241,-0.579718 1.957349,-0.579718 1.076544,0 2.021845,0.104346 2.100661,0.231883 0.07879,0.127537 0.965791,0.231884 1.971039,0.231884 1.005247,0 1.892213,-0.104347 1.971038,-0.231884 0.07879,-0.127537 1.024126,-0.231883 2.100671,-0.231883 1.933247,0 1.957349,0.007 1.957349,0.579718 v 0.579709 h -6.029058 -6.029049 z m 0,-4.920874 v -3.645488 l 1.326088,-1.340075 1.326089,-1.340076 h 3.376872 3.376881 l 1.326088,1.340076 1.326089,1.340075 v 3.654515 3.654523 l -2.029006,-0.06705 -2.029014,-0.06696 -0.02673,-0.69566 c -0.01472,-0.382601 -0.04075,-1.660881 -0.05793,-2.840606 l -0.0312,-2.144947 H 39.58359 37.728502 l -0.02454,2.260897 c -0.0135,1.243486 -0.0053,2.547847 0.01744,2.898583 l 0.04207,0.637685 h -2.10446 -2.104456 z m 5.333389,1.326622 v -2.318864 h 0.69566 0.69566 v 2.318864 2.318873 h -0.69566 -0.69566 z M 56.16341,93.831701 c -1.096799,-0.69128 -6.095342,-5.86591 -6.365262,-6.58948 -0.153216,-0.41074 -0.243505,-3.698139 -0.243505,-8.865998 v -8.213224 l 0.676352,-0.757291 0.676344,-0.75729 3.207758,0.02428 c 1.764255,0.01341 3.572972,0.03944 4.019351,0.05793 0.44638,0.01849 2.151582,-0.02726 3.789334,-0.101648 3.25933,-0.148062 4.01234,0.01034 4.79833,1.009604 0.43473,0.552654 0.45592,0.980252 0.45592,9.199024 0,10.075483 0.47149,8.495023 -3.79292,12.714063 l -2.749425,2.72019 -1.888304,-8.7e-4 c -1.451022,-6.6e-4 -2.049408,-0.10241 -2.583973,-0.43933 z m 6.414932,-4.1281 2.97648,-2.94511 v -8.023136 c 0,-5.931048 -0.0726,-8.095705 -0.27826,-8.30141 -0.18344,-0.183427 -1.16683,-0.278264 -2.88544,-0.278264 -2.431305,0 -2.631515,0.03479 -2.968149,0.515371 -0.306362,0.437396 -0.360981,1.522608 -0.360981,7.172859 0,6.443859 -0.01481,6.662193 -0.461699,6.804034 -0.253935,0.08063 -0.566975,0.08151 -0.69566,0.0018 -0.148265,-0.09164 -0.235214,-2.538855 -0.237379,-6.681711 -0.0026,-4.798281 -0.08133,-6.691318 -0.296222,-7.116838 -0.283084,-0.560455 -0.380069,-0.581901 -2.91995,-0.645511 -1.738357,-0.04356 -2.736427,0.02489 -2.950186,0.202304 -0.264758,0.219728 -0.323049,1.716482 -0.323049,8.294557 v 8.026435 l 2.981851,2.95979 2.981851,2.95978 h 1.230156 1.230155 z m -5.205934,1.64198 c -0.389657,-0.38966 -0.09169,-0.55198 1.013249,-0.55198 0.839253,0 1.151303,0.0834 1.083442,0.28985 -0.103742,0.31547 -1.827814,0.53101 -2.096691,0.26213 z m -1.526421,-1.55884 c -0.14205,-0.17115 -0.189605,-0.37985 -0.105688,-0.46377 0.240473,-0.24048 5.133819,-0.17782 5.285545,0.0677 0.270538,0.43775 -0.814722,0.7073 -2.847759,0.7073 -1.452003,0 -2.151274,-0.0933 -2.332098,-0.3112 z m -1.499024,-1.46661 c -0.453522,-0.45352 0.220158,-0.54107 4.163707,-0.54107 3.812202,0 4.284472,0.0408 4.029622,0.34784 -0.23552,0.28378 -1.00212,0.34782 -4.163706,0.34782 -2.131266,0 -3.944592,-0.0696 -4.029623,-0.15459 z m -1.256053,-1.51974 c -0.286958,-0.1384 -0.521743,-0.34004 -0.521743,-0.44808 0,-0.10805 2.608723,-0.19645 5.797165,-0.19645 5.62496,0 6.43798,0.1045 5.34864,0.6875 -0.6122,0.32764 -9.933783,0.28994 -10.624062,-0.043 z m -0.753627,-1.696418 c 0,-0.300393 0.351419,-0.345818 2.242099,-0.289859 1.5382,0.04557 2.272265,0.157371 2.338189,0.356231 0.07266,0.21908 -0.474889,0.28986 -2.242098,0.28986 -1.948296,0 -2.33819,-0.0594 -2.33819,-0.356232 z m 7.420369,0.149152 c 0,-0.363989 0.684863,-0.488581 2.68566,-0.488581 1.58059,0 1.95208,0.06617 1.95208,0.347825 0,0.285996 -0.41225,0.347836 -2.31887,0.347836 -1.275375,0 -2.31887,-0.0932 -2.31887,-0.20708 z m -7.420369,-1.52304 c 0,-0.587133 0.0061,-0.588745 2.103107,-0.588745 2.048365,0 2.101178,0.01358 2.029005,0.521743 -0.0695,0.489595 -0.199106,0.52587 -2.103107,0.588745 l -2.029005,0.06696 z m 8.038738,0.41609 c -0.08501,-0.08501 -0.154592,-0.345897 -0.154592,-0.579709 0,-0.380753 0.217834,-0.425126 2.086983,-0.425126 2.07152,0 2.08698,0.0044 2.08698,0.579709 0,0.571988 -0.0258,0.579718 -1.93239,0.579718 -1.06281,0 -2.001959,-0.06959 -2.086981,-0.154592 z m -8.038738,-2.057357 v -0.588746 l 2.029005,0.06705 c 1.904001,0.06284 2.033572,0.09915 2.103107,0.588745 0.07222,0.508167 0.01937,0.521743 -2.029005,0.521743 -2.097322,0 -2.103107,-0.0018 -2.103107,-0.588745 z m 7.925986,0.06696 c 0.0695,-0.489596 0.199114,-0.525871 2.103113,-0.588746 l 2.02901,-0.06705 v 0.588745 c 0,0.587124 -0.006,0.588746 -2.10311,0.588746 -2.048364,0 -2.101178,-0.01358 -2.029013,-0.521743 z m -7.925986,-6.087025 v -4.753679 h 2.086981 2.08698 v 4.753679 4.75368 h -2.08698 -2.086981 z m 7.884146,0 v -4.753679 h 2.086983 2.08698 v 4.753679 4.75368 h -2.08698 -2.086983 z m 9.223323,17.841638 c -0.34752,-0.18859 -0.73883,-0.54278 -0.86957,-0.78707 -0.33705,-0.62978 -0.3249,-22.835265 0.0128,-23.466332 0.52065,-0.972864 1.48779,-1.124555 7.16981,-1.124555 5.72058,0 6.64781,0.149149 7.18668,1.156027 0.18347,0.342821 0.23078,1.567981 0.15077,3.903733 -0.0641,1.872257 -0.10326,3.612806 -0.0869,3.86788 0.0267,0.41786 0.0175,6.658495 -0.011,7.362402 -0.006,0.159421 0.0393,1.893145 0.10165,3.852715 0.13007,4.08772 -0.0303,4.77664 -1.22874,5.27736 -1.14003,0.47633 -11.53515,0.44106 -12.42558,-0.0422 z m 11.98116,-1.77711 c 0.26697,-0.38114 0.36098,-1.10588 0.36098,-2.78265 0,-3.08402 -0.11258,-3.19481 -3.24642,-3.19481 h -2.31886 v -0.927546 -0.927543 h 2.31886 c 3.09523,0 3.24642,-0.139193 3.24642,-2.988845 0,-2.96193 -0.16995,-3.131781 -3.23827,-3.23625 l -2.35237,-0.08011 0.0706,-0.847457 0.0706,-0.847448 2.31888,-0.06117 c 3.00158,-0.07923 3.13046,-0.205556 3.13046,-3.069292 0,-3.189081 0.30645,-3.04115 -6.1383,-2.963096 l -5.3267,0.0645 -0.29692,0.579718 c -0.4458,0.870375 -0.31692,20.866259 0.13801,21.414099 0.27894,0.33592 0.97184,0.38325 5.61011,0.38325 5.20558,0 5.29773,-0.009 5.65282,-0.51537 z m -10.47989,-0.93392 c 0.0721,-0.21667 1.30664,-0.30569 4.88895,-0.35254 4.1613,-0.0544 4.79248,-0.0162 4.79248,0.28986 0,0.30431 -0.6688,0.35254 -4.88894,0.35254 -3.808,0 -4.86762,-0.0641 -4.79249,-0.28986 z m 0.0485,-1.34881 c -0.36115,-0.58434 0.44737,-0.68793 4.8958,-0.62727 3.92505,0.0536 4.6211,0.1154 4.6211,0.41084 0,0.29562 -0.70236,0.35725 -4.67908,0.41055 -3.23496,0.0434 -4.72808,-0.0166 -4.83782,-0.19412 z m 0.0529,-1.5258 c -0.46301,-0.46301 0.25388,-0.54573 4.72969,-0.54573 3.80801,0 4.86763,0.0641 4.7925,0.28986 -0.072,0.21614 -1.27478,0.30579 -4.72969,0.3525 -2.54828,0.0344 -4.70491,-0.009 -4.7925,-0.0966 z m -0.0504,-1.48473 c -0.32138,-0.52 0.3199,-0.70282 2.23157,-0.63619 1.54807,0.054 1.94947,0.13955 1.94947,0.41576 0,0.2773 -0.40757,0.36136 -2.00991,0.41455 -1.30628,0.0434 -2.06636,-0.0246 -2.17113,-0.19412 z m -0.10887,-2.191463 c 0,-0.310867 0.31927,-0.35531 2.14496,-0.298562 1.23092,0.0383 2.14495,0.165486 2.14495,0.298562 0,0.133076 -0.91403,0.260297 -2.14495,0.298562 -1.82569,0.05679 -2.14496,0.01227 -2.14496,-0.298562 z m 0.0495,-1.076615 c 0.0828,-0.248886 1.11778,-0.327843 4.94847,-0.377536 6.24718,-0.08107 6.00584,0.304119 -0.32989,0.526476 -3.92815,0.137861 -4.70568,0.112786 -4.61858,-0.14894 z m 0.0302,-1.25302 c -0.0777,-0.202533 -0.0417,-0.467835 0.08,-0.589578 0.13008,-0.130079 2.12669,-0.195355 4.84244,-0.158326 4.44551,0.06065 4.6211,0.08063 4.6211,0.526782 0,0.446458 -0.17552,0.466125 -4.70113,0.526572 -4.11804,0.05504 -4.71867,0.01709 -4.84244,-0.30545 z m 0.0257,-1.788077 c -0.0635,-0.16567 -0.0872,-2.385253 -0.0526,-4.932408 l 0.063,-4.631199 h 4.75368 4.75368 l 0.067,2.029014 0.067,2.029005 h -2.67572 -2.67573 v 2.07939 2.079382 l 2.60872,0.06556 2.60873,0.06556 v 0.69566 0.69566 l -4.70113,0.06275 c -3.68701,0.04926 -4.72607,-0.0018 -4.81673,-0.23843 z m 16.93824,13.414265 c -0.38261,-0.16973 -1.40834,-1.05108 -2.27939,-1.95857 l -1.58373,-1.64998 0.0765,-3.03711 c 0.0667,-2.649473 0.13196,-3.077614 0.51135,-3.354599 0.4359,-0.318246 0.42369,-0.405932 -0.20868,-1.499216 -0.26102,-0.451261 -0.33607,-1.586807 -0.33874,-5.124687 l -0.004,-4.544976 0.65766,-0.904363 c 0.89024,-1.224195 2.47129,-2.618101 3.41852,-3.013885 1.11823,-0.46722 8.31076,-0.458736 9.4029,0.01104 0.43008,0.185022 1.4863,0.997553 2.34719,1.805641 l 1.565238,1.469243 v 2.821194 c 0,2.647058 -0.24818,4.002436 -0.73289,4.002436 -0.33293,0 -0.21488,0.480876 0.26912,1.096159 0.43047,0.547264 0.46377,0.940717 0.46377,5.479497 v 4.889906 l -1.949958,1.91948 -1.94994,1.91949 -4.48491,-0.009 c -3.21285,-0.006 -4.68221,-0.0966 -5.18056,-0.31767 z m 10.51165,-3.0109 1.662388,-1.71443 v -3.837626 -3.83763 l -1.312708,-1.417894 c -1.76399,-1.905315 -2.17447,-2.08684 -4.71882,-2.08684 h -2.11249 l 0.072,-0.869577 c 0.0681,-0.822356 0.11919,-0.873487 0.94154,-0.94155 0.57806,-0.04785 0.86957,0.02489 0.86957,0.216941 0,0.158904 0.22689,0.530428 0.5042,0.825607 0.45712,0.486581 0.70608,0.536686 2.66669,0.536686 2.82479,0 3.090048,-0.221095 3.090048,-2.575463 v -1.647928 l -1.662388,-1.714431 -1.6624,-1.714439 h -3.94403 -3.94402 l -1.698,1.698006 -1.69802,1.698016 v 3.687897 3.687906 l 1.67538,1.686631 1.67538,1.686631 h 2.49858 2.49858 v 0.927551 0.927546 h -0.92754 c -0.64928,0 -0.92754,-0.0994 -0.92754,-0.33127 0,-0.840201 -0.66092,-1.060051 -3.18675,-1.060051 -3.19419,0 -3.30609,0.08893 -3.30609,2.627821 v 1.86031 l 1.69802,1.69801 1.698,1.69801 h 3.94402 3.94403 z m -9.30791,0.40608 c -0.45535,-0.45536 0.16059,-0.54673 3.6852,-0.54673 2.97317,0 3.82359,0.0657 3.74909,0.28985 -0.0703,0.21148 -1.06683,0.30707 -3.6852,0.35349 -1.97385,0.035 -3.66095,-0.009 -3.74909,-0.0966 z m -1.52116,-1.55359 c -0.14205,-0.17116 -0.18962,-0.37985 -0.1057,-0.46377 0.24471,-0.24471 10.46614,-0.17956 10.61894,0.0677 0.33354,0.53968 -0.97322,0.7073 -5.51445,0.7073 -3.68287,0 -4.79815,-0.0694 -4.99879,-0.3112 z m -0.95797,-1.65985 c 0,-0.30043 0.83737,-0.34783 6.145,-0.34783 5.30763,0 6.14499,0.0474 6.14499,0.34783 0,0.30043 -0.83736,0.34783 -6.14499,0.34783 -5.30763,0 -6.145,-0.0474 -6.145,-0.34783 z m 0.16321,-1.18946 c -0.0898,-0.0898 -0.16321,-0.30234 -0.16321,-0.47239 0,-0.23493 0.50526,-0.30918 2.10398,-0.30918 1.87875,0 2.09569,0.0435 2.02645,0.4058 -0.0648,0.33947 -0.38208,0.41668 -1.94078,0.47239 -1.02478,0.0366 -1.93668,-0.007 -2.02644,-0.0966 z m 8.11602,0 c -0.0898,-0.0898 -0.1632,-0.30234 -0.1632,-0.47239 0,-0.23493 0.50525,-0.30918 2.10399,-0.30918 1.87874,0 2.09568,0.0435 2.02644,0.4058 -0.0649,0.33947 -0.38208,0.41668 -1.94078,0.47239 -1.02478,0.0366 -1.93668,-0.007 -2.02645,-0.0966 z m -0.1632,-1.825057 c 0,-0.283417 0.38648,-0.347834 2.08698,-0.347834 1.7005,0 2.08698,0.06442 2.08698,0.347834 0,0.283421 -0.38648,0.347831 -2.08698,0.347831 -1.7005,0 -2.08698,-0.0644 -2.08698,-0.347831 z m -2.54726,-1.448997 c -1.46476,-0.04093 -2.7639,-0.17518 -2.88699,-0.298256 -0.14378,-0.143785 1.53358,-0.223785 4.69222,-0.223785 4.21518,0 4.91599,0.0496 4.91599,0.347826 0,0.368456 0.11637,0.365441 -6.72122,0.174215 z m -4.13107,-1.264082 c -0.81032,-0.810322 -0.40761,-0.881163 5.00875,-0.881163 5.33325,0 5.84354,0.07493 5.84354,0.857973 0,0.419035 -10.43416,0.441331 -10.85229,0.02323 z m -1.28306,-1.731416 c -0.085,-0.08501 -0.15459,-1.679365 -0.15459,-3.542972 v -3.388379 l 1.45553,-1.442591 1.45553,-1.4426 h 3.28829 3.28829 l 1.41127,1.428892 1.41126,1.428902 -0.0681,1.411714 -0.0681,1.411715 -2.01366,0.06678 -2.01366,0.06678 -0.0734,-0.762435 -0.0734,-0.762435 h -1.85509 -1.8551 l -0.067,2.029014 -0.067,2.029005 h 2.63709 2.63708 l 0.90821,0.801953 0.90821,0.801953 -5.46866,0.0096 c -3.00776,0.0053 -5.53822,-0.05995 -5.62325,-0.144943 z"
         id="path1195" /></g></g></svg>
