<?xml version="1.0" encoding="UTF-8" standalone="no"?>
<!-- Created with Inkscape (http://www.inkscape.org/) -->

<svg
   width="105.83334mm"
   height="105.83334mm"
   viewBox="0 0 105.83333 105.83333"
   version="1.1"
   id="svg1"
   xml:space="preserve"
   inkscape:version="1.4 (e7c3feb100, 2024-10-09)"
   sodipodi:docname="san_diego.svg"
   inkscape:export-filename="../pngs/phoenix.png"
   inkscape:export-xdpi="96"
   inkscape:export-ydpi="96"
   xmlns:inkscape="http://www.inkscape.org/namespaces/inkscape"
   xmlns:sodipodi="http://sodipodi.sourceforge.net/DTD/sodipodi-0.dtd"
   xmlns="http://www.w3.org/2000/svg"
   xmlns:svg="http://www.w3.org/2000/svg"><sodipodi:namedview
     id="namedview1"
     pagecolor="#ffffff"
     bordercolor="#000000"
     borderopacity="0.25"
     inkscape:showpageshadow="2"
     inkscape:pageopacity="0.0"
     inkscape:pagecheckerboard="0"
     inkscape:deskcolor="#d1d1d1"
     inkscape:document-units="mm"
     inkscape:zoom="0.87311692"
     inkscape:cx="345.88724"
     inkscape:cy="345.88724"
     inkscape:window-width="1920"
     inkscape:window-height="1011"
     inkscape:window-x="0"
     inkscape:window-y="32"
     inkscape:window-maximized="1"
     inkscape:current-layer="layer1"
     showgrid="false"
     showguides="false" /><defs
     id="defs1" /><g
     inkscape:label="Capa 1"
     inkscape:groupmode="layer"
     id="layer1"><g
       id="g52"
       transform="translate(-0.15152042,-2.1390397)"><g
         id="g51"
         transform="matrix(0.48224356,0,0,0.48224356,-25.717021,10.111482)"><circle
           style="fill:#6cb3e3;fill-opacity:1;stroke:none;stroke-width:0.142894;stroke-dasharray:none"
           id="path50"
           cx="163.37224"
           cy="72.765335"
           r="46.212543" /><path
           style="fill:#1d428a;fill-opacity:1;stroke-width:0.165126"
           d="m 161.82538,115.96968 c -2.52928,-0.11751 -4.57056,-0.35661 -6.79463,-0.79589 -1.04916,-0.20721 -3.01983,-0.68323 -3.01983,-0.72943 0,-0.0163 0.22177,-0.14915 0.49281,-0.29513 0.81363,-0.4382 1.6248,-0.92267 3.32392,-1.9852 2.30971,-1.44435 3.0898,-1.90233 4.11033,-2.41313 2.57018,-1.28641 3.82855,-1.36492 6.07666,-0.37908 1.04722,0.45922 2.16882,1.10167 4.5347,2.59745 1.55477,0.98296 2.7201,1.68579 3.50069,2.11132 0.32215,0.17561 0.60525,0.32636 0.62913,0.33502 0.0983,0.0356 -0.0543,0.0858 -0.92766,0.30485 -2.45091,0.61482 -4.86284,0.98863 -7.68996,1.19182 -0.60897,0.0438 -3.6443,0.0849 -4.23616,0.0574 z m -16.50423,-4.90767 c -1.66443,-0.24709 -3.33948,-1.0143 -6.76659,-3.09926 -1.17511,-0.7149 -1.52457,-0.96123 -2.50927,-1.76874 -2.73831,-2.24558 -5.18439,-4.80799 -7.30009,-7.647272 -0.7228,-0.97 -1.6121,-2.2674 -1.59322,-2.32434 0.0201,-0.0606 0.47321,-0.18086 0.89231,-0.2368 0.99435,-0.13274 2.38645,0.36522 4.67324,1.67162 0.42676,0.24381 1.57079,0.92945 2.5423,1.52364 2.16814,1.326092 3.13799,1.884092 4.2524,2.446582 2.40805,1.21545 4.20355,1.75451 6.04275,1.81421 1.90183,0.0617 3.68247,-0.39441 6.01554,-1.54099 1.13413,-0.55736 2.12034,-1.12986 4.40393,-2.556502 2.21088,-1.38122 3.00325,-1.84743 3.93055,-2.31262 1.70576,-0.85572 2.83942,-1.15906 3.89685,-1.0427 1.40951,0.1551 2.92462,0.8548 5.92962,2.73836 0.55364,0.34702 1.45812,0.91355 2.00996,1.25894 1.2984,0.812662 2.4164,1.449752 3.35864,1.913902 3.5096,1.72882 6.26693,1.99316 9.41601,0.90267 1.63248,-0.5653 3.25131,-1.4329 6.27035,-3.360552 2.50243,-1.59778 3.29599,-2.06667 4.35303,-2.57208 1.46268,-0.69935 2.65805,-0.98858 3.66063,-0.88569 0.51817,0.0532 0.8571,0.12333 0.8571,0.17741 0,0.0556 -0.81977,1.26737 -1.34385,1.98649 -1.99131,2.732362 -4.27013,5.202122 -6.8139,7.384832 -0.68128,0.58459 -0.93685,0.77143 -1.76156,1.28789 -0.53057,0.33225 -1.26665,0.799 -1.63575,1.03723 -2.85251,1.84112 -4.41399,2.65693 -5.77229,3.01579 -0.65529,0.17312 -1.1394,0.22985 -1.69341,0.19845 -1.66008,-0.0941 -3.39568,-0.88503 -7.13016,-3.24925 -2.45102,-1.55169 -3.21977,-2.00623 -4.44587,-2.62871 -0.92406,-0.46914 -1.50629,-0.72211 -2.26602,-0.98452 -3.03737,-1.04914 -5.59361,-0.78008 -9.05836,0.95344 -1.15053,0.57564 -1.81523,0.96448 -4.32004,2.52718 -2.12223,1.32401 -2.75096,1.6961 -3.69091,2.18433 -1.0615,0.55136 -1.96199,0.90521 -2.76818,1.08773 -0.36628,0.0829 -1.34565,0.1424 -1.63574,0.0993 z M 145.426,98.335178 c -0.89681,-0.0808 -2.13983,-0.50013 -3.49224,-1.17806 -1.0528,-0.52776 -1.86141,-0.99581 -4.35094,-2.51851 -3.17029,-1.93909 -4.74191,-2.75218 -6.29271,-3.25559 -1.10857,-0.35986 -1.7048,-0.46987 -2.70388,-0.49888 -1.16966,-0.034 -2.15385,0.14077 -3.43673,0.61017 -0.32157,0.11765 -0.58854,0.20964 -0.59328,0.20441 -0.0215,-0.0238 -0.61655,-1.31918 -0.81353,-1.77109 -0.36982,-0.848462 -0.86424,-2.120312 -1.16014,-2.984405 -0.27338,-0.798337 -0.27928,-0.824268 -0.20077,-0.882884 0.16014,-0.119533 1.81256,-1.140112 2.36282,-1.459323 1.18016,-0.684629 2.35391,-1.188065 3.0815,-1.321689 1.06482,-0.19556 2.47188,0.267187 4.74654,1.561012 0.5879,0.334395 1.03265,0.601948 3.56317,2.143585 4.15193,2.529404 6.54057,3.510384 9.05951,3.720584 0.85977,0.0718 1.84155,-0.002 2.78915,-0.20844 0.21699,-0.0474 0.40674,-0.0861 0.42167,-0.0861 0.0149,0 0.04,0.25009 0.0557,0.55574 0.0815,1.58487 0.39536,4.59279 0.63532,6.08938 0.033,0.20612 0.0557,0.37896 0.0504,0.38408 -0.0273,0.0262 -0.56804,0.2563 -0.97966,0.41682 -1.02258,0.3988 -1.91105,0.55407 -2.74193,0.4792 z m 35.02169,-0.002 c -0.46415,-0.0417 -0.85083,-0.12651 -1.428,-0.31309 -0.46642,-0.15079 -1.33456,-0.49776 -1.38819,-0.55484 -0.0154,-0.0165 0.0258,-0.40735 0.0916,-0.86872 0.22756,-1.5949 0.42775,-3.59398 0.54378,-5.43028 0.0255,-0.40302 0.0507,-0.73711 0.056,-0.74241 0.005,-0.005 0.23191,0.0355 0.50357,0.0906 0.77204,0.15675 1.24661,0.20376 2.06168,0.20422 1.79458,10e-4 3.42359,-0.42835 5.53636,-1.45925 1.32672,-0.647362 2.24207,-1.188077 5.01209,-2.960733 3.10852,-1.98929 4.65286,-2.741151 6.16549,-3.001668 0.47636,-0.08204 1.35321,-0.06005 1.84545,0.04629 1.20195,0.259646 2.88796,1.065765 4.8223,2.305644 l 0.29222,0.187311 -0.27298,0.800847 c -0.15015,0.440467 -0.39726,1.12512 -0.54913,1.521458 -0.50859,1.327201 -1.43576,3.425871 -1.51352,3.425871 -0.0199,0 -0.23333,-0.0665 -0.47431,-0.14768 -0.54014,-0.18206 -1.29583,-0.36773 -1.90613,-0.46832 -0.71251,-0.11744 -2.33102,-0.10648 -3.04071,0.0206 -1.70151,0.30466 -3.24355,0.89666 -5.24286,2.01276 -0.78249,0.43681 -1.48831,0.87043 -3.29246,2.02265 -1.88487,1.20378 -2.72534,1.70804 -3.60976,2.16576 -1.75682,0.90923 -3.01502,1.25062 -4.21245,1.14298 z m -26.54938,-3.71794 c 0,-0.0216 -0.0372,-0.37734 -0.0826,-0.79055 -0.3824,-3.47964 -0.47764,-7.892193 -0.25113,-11.635276 0.66277,-10.952621 3.62836,-20.830872 8.15938,-27.17851 0.43294,-0.60651 1.1444,-1.513449 1.49464,-1.905295 l 0.1847,-0.206637 0.47699,0.563145 c 3.4185,4.036007 6.16938,10.243259 7.79613,17.591657 1.41808,6.405873 1.94033,13.462082 1.49311,20.174166 -0.0958,1.43831 -0.28286,3.35978 -0.3318,3.40872 -0.0105,0.0105 -0.43061,-0.23494 -0.93356,-0.54542 -2.29716,-1.41805 -3.70061,-2.12698 -5.21355,-2.63354 -0.75685,-0.25341 -1.43412,-0.4199 -2.05516,-0.50521 l -0.35651,-0.049 -0.006,-3.46578 c -0.0115,-6.64852 -0.22425,-12.11196 -0.60244,-15.474248 -0.0925,-0.822844 -0.24946,-1.769529 -0.29329,-1.769529 -0.0425,0 -0.19536,0.914468 -0.29106,1.740599 -0.37466,3.234584 -0.59312,8.820748 -0.60462,15.461222 l -0.006,3.507706 -0.35651,0.049 c -0.91558,0.1258 -2.2716,0.52456 -3.29246,0.9682 -1.09104,0.47413 -2.47609,1.22217 -3.94256,2.12933 -0.9802,0.60635 -0.98564,0.60947 -0.98564,0.56523 z m -8.80785,-9.049288 c -1.53342,-0.263338 -3.29327,-1.082738 -6.39618,-2.978114 -3.25796,-1.990095 -3.8999,-2.362946 -5.09596,-2.959837 -1.53003,-0.763549 -2.68332,-1.171109 -3.89748,-1.377326 -2.41875,-0.410806 -4.69625,0.239087 -8.16819,2.330815 -0.28082,0.169191 -0.52758,0.307624 -0.54834,0.307624 -0.0508,0 -0.36343,-1.906371 -0.49168,-2.998865 -0.60799,-5.178978 -0.28912,-10.374084 0.9457,-15.40721 3.02127,-12.314775 11.47873,-22.810939 22.91815,-28.44265 7.32812,-3.607688 15.35273,-5.036072 23.55051,-4.191991 7.89803,0.813221 15.53167,3.882038 21.85186,8.784714 5.19688,4.031314 9.35815,9.095454 12.29385,14.961262 2.10008,4.196168 3.48518,8.685663 4.12488,13.369947 0.2803,2.052471 0.37135,3.457538 0.37369,5.767044 0.002,2.244463 -0.0749,3.533581 -0.33155,5.536363 -0.0994,0.775441 -0.344,2.330681 -0.37083,2.357513 -0.007,0.0073 -0.22858,-0.112214 -0.49163,-0.265692 -0.26305,-0.153485 -0.78025,-0.433527 -1.14934,-0.622313 -4.10043,-2.097357 -7.3044,-2.135384 -11.36632,-0.134902 -1.20686,0.59437 -2.29113,1.22898 -4.29908,2.516182 -2.43192,1.558994 -3.27258,2.055772 -4.38295,2.59002 -2.12972,1.024698 -3.48776,1.163113 -5.30874,0.541069 -0.21746,-0.07428 -0.40736,-0.146802 -0.42199,-0.161158 -0.0147,-0.01435 -0.0484,-0.611182 -0.0751,-1.326299 -0.50314,-13.488054 -4.20742,-25.597611 -10.08232,-32.959869 -1.20205,-1.506373 -2.28107,-2.585767 -4.38249,-4.384042 -0.50259,-0.43008 -0.56416,-0.470853 -0.62879,-0.416433 -0.39546,0.332984 -1.88386,1.696683 -2.39399,2.193406 -6.74922,6.571807 -11.37433,18.919958 -12.35579,32.987496 -0.0849,1.216326 -0.14781,2.624825 -0.14814,3.314588 l -3.3e-4,0.567378 -0.36699,0.133996 c -1.07446,0.392303 -2.04452,0.514969 -2.9045,0.367284 z"
           id="path16"
           sodipodi:nodetypes="sssssssssssssssssssssssssssssssssssssssssssssssssscssssscsssssssscssscsccssscssscssssscsssssssssssccssscssssssscssssscssscccsssssssssssscssssssssscsssssccscc" /><path
           id="path17"
           style="fill:#6cb3e3;fill-opacity:1;stroke:none;stroke-width:0.154967;stroke-dasharray:none"
           d="m 164.87779,28.0966 0.005,0.912563 a 43.673638,44.52877 0 0 1 27.6966,11.389382 c 0.23282,-0.378839 0.34266,-0.64735 0.29675,-0.769378 -0.61396,-1.631181 -9.2745,-6.929399 -14.51251,-8.878457 -2.88186,-1.072302 -7.09478,-2.108041 -9.36247,-2.301977 z m 0.005,0.912563 a 43.673638,44.52877 0 0 0 -1.50984,-0.03822 43.673638,44.52877 0 0 0 -1.98071,0.144481 v 20.949103 2.846535 l 1.1184,-2.229414 2.52911,3.016609 c -0.0113,-1.280547 -0.0287,-2.289268 -0.0369,-3.713098 z m -5.82712,-0.75318 c -6.08553,0 -15.78405,3.774926 -22.25489,8.661735 l -3.99352,3.01596 0.94524,0.953381 a 43.673638,44.52877 0 0 1 27.6394,-11.77164 v -0.859436 z m -25.30319,12.631076 a 43.673638,44.52877 0 0 0 -2.33593,2.381669 l 4.09265,4.126133 c 2.77849,2.80125 6.06164,6.48292 7.29597,8.181643 2.55679,3.51885 5.24425,10.684156 5.26411,14.035392 0.0123,2.146292 -0.0918,2.255876 -2.04648,2.149723 -1.13284,-0.06111 -7.69236,-0.134727 -14.5767,-0.162298 l -11.6104,-0.04892 a 43.673638,44.52877 0 0 0 -0.13693,1.949199 43.673638,44.52877 0 0 0 0.13503,1.927817 h -0.90457 v 0.03919 h 0.90902 a 43.673638,44.52877 0 0 1 -0.004,-0.03919 h 13.67179 14.57669 v 0.03919 h 1.99533 l 1.94545,-3.878311 c -0.016,-9.01e-4 -0.20042,-0.0061 -0.20939,-0.0068 -0.21349,-0.0169 -0.57146,-1.624469 -0.7959,-3.571855 -0.92825,-8.052587 -4.29816,-14.041822 -12.62872,-22.445089 z M 119.8358,71.550404 a 43.673638,44.52877 0 0 1 11.58085,-28.281676 l -0.95858,-0.966986 -3.0003,4.12354 c -3.46451,4.762706 -5.70123,9.482534 -7.31377,15.432259 l -0.002,-0.0039 c -0.62608,2.310053 -1.15598,5.435644 -1.17654,6.946104 l -0.0369,2.746759 z m 72.74337,-31.151535 c -0.72688,1.182688 -2.70603,3.487935 -5.32479,6.157937 -7.07123,7.2098 -10.35222,13.029921 -11.4868,20.376684 l -0.7133,4.616914 -0.63895,0.01425 0.86104,3.863411 h 0.0588 v 0.03854 h 3.1687 v -0.03888 l 13.30928,-0.08066 c 7.32007,-0.04594 13.80846,-0.117683 14.41847,-0.161649 0.26764,-0.01954 0.49139,0.07189 0.67866,0.24944 a 43.673638,44.52877 0 0 1 -0.004,0.03175 h 0.0258 c -0.008,-0.0085 -0.0137,-0.02426 -0.0222,-0.0324 a 43.673638,44.52877 0 0 0 0.13599,-1.933973 43.673638,44.52877 0 0 0 -0.0394,-1.636911 l -13.84692,-0.173958 -14.65581,-0.184974 0.0416,-1.753534 c 0.0247,-0.964611 0.46124,-3.346249 0.97415,-5.292346 1.38711,-5.262851 3.63994,-8.697116 10.28801,-15.682347 3.04338,-3.197777 4.71379,-4.809825 5.70702,-5.412531 a 43.673638,44.52877 0 0 0 -2.93579,-2.964777 z m 3.62909,2.680026 c -0.1878,0.02349 -0.41431,0.115007 -0.69297,0.284102 a 43.673638,44.52877 0 0 1 11.49156,28.500018 l 0.80894,0.01037 -0.346,-4.203881 c -0.19046,-2.312063 -1.20696,-6.607525 -2.25873,-9.545792 -1.76102,-4.919785 -6.49416,-13.185788 -8.54337,-14.919771 -0.12279,-0.103904 -0.27164,-0.148532 -0.45943,-0.125044 z" /></g><rect
         style="fill:#ffffff;fill-opacity:1;fill-rule:evenodd;stroke:#c8102e;stroke-width:1.92824;stroke-dasharray:none;stroke-opacity:1"
         id="rect51"
         width="94.662315"
         height="20.424141"
         x="34.343418"
         y="71.670486"
         ry="0.022844031"
         transform="matrix(1,0,-0.3493587,0.93698906,0,0)" /><text
         xml:space="preserve"
         style="font-style:normal;font-variant:normal;font-weight:normal;font-stretch:normal;font-size:17.4345px;line-height:1;font-family:'Ranked Sports';-inkscape-font-specification:'Ranked Sports';text-align:center;letter-spacing:0px;writing-mode:lr-tb;direction:ltr;text-anchor:middle;fill:#6cb3e3;fill-opacity:1;stroke:#c8102e;stroke-width:1.26918;stroke-dasharray:none;stroke-opacity:1"
         x="66.455574"
         y="82.803078"
         id="text51"
         transform="skewX(-10.418503)"><tspan
           sodipodi:role="line"
           id="tspan51"
           style="font-style:oblique;font-variant:normal;font-weight:bold;font-stretch:normal;font-family:Waree;-inkscape-font-specification:'Waree Bold Oblique';fill:#6cb3e3;fill-opacity:1;stroke:#c8102e;stroke-width:1.26918;stroke-dasharray:none;stroke-opacity:1"
           x="66.455574"
           y="82.803078">SURFERS</tspan></text></g></g></svg>
