<?xml version="1.0" encoding="UTF-8" standalone="no"?>
<!-- Created with Inkscape (http://www.inkscape.org/) -->

<svg
   width="105.83334mm"
   height="105.83334mm"
   viewBox="0 0 105.83333 105.83333"
   version="1.1"
   id="svg1"
   xml:space="preserve"
   inkscape:version="1.4 (e7c3feb100, 2024-10-09)"
   sodipodi:docname="san_antonio.svg"
   inkscape:export-filename="../pngs/memphis.png"
   inkscape:export-xdpi="96"
   inkscape:export-ydpi="96"
   xmlns:inkscape="http://www.inkscape.org/namespaces/inkscape"
   xmlns:sodipodi="http://sodipodi.sourceforge.net/DTD/sodipodi-0.dtd"
   xmlns="http://www.w3.org/2000/svg"
   xmlns:svg="http://www.w3.org/2000/svg"><sodipodi:namedview
     id="namedview1"
     pagecolor="#ffffff"
     bordercolor="#000000"
     borderopacity="0.25"
     inkscape:showpageshadow="2"
     inkscape:pageopacity="0.0"
     inkscape:pagecheckerboard="0"
     inkscape:deskcolor="#d1d1d1"
     inkscape:document-units="mm"
     inkscape:zoom="1.610725"
     inkscape:cx="174.4556"
     inkscape:cy="216.05177"
     inkscape:window-width="1920"
     inkscape:window-height="1011"
     inkscape:window-x="0"
     inkscape:window-y="32"
     inkscape:window-maximized="1"
     inkscape:current-layer="layer1"
     showgrid="false" /><defs
     id="defs1" /><g
     inkscape:label="Capa 1"
     inkscape:groupmode="layer"
     id="layer1"><g
       id="path12"
       transform="translate(47.932112,53.096397)"
       style="fill:#999999"><path
         style="-inkscape-font-specification:'Ranked Sports';fill:#999999"
         d="m 3.6695435,-38.237459 -5.168e-4,1.44849 h 0.5508708 l -0.00155,4.177523 h -0.550354 l -5.168e-4,1.443323 2.8675252,0.001 5.168e-4,-1.443839 H 5.8306519 l 0.00103,-1.994711 1.8391642,3.43855 1.6324585,5.17e-4 0.00155,-5.620846 H 9.86038 l 5.168e-4,-1.44849 -2.8675252,-10e-4 -5.168e-4,1.449008 h 0.7048666 l -0.00103,2.043803 -1.7998901,-3.492811 z m 7.0264445,0.06925 -0.223759,2.495455 1.254704,0.112655 0.328145,-0.986503 0.375171,0.03359 -0.373104,4.155819 -0.568441,-0.05116 -0.129707,1.447974 2.924886,0.262516 0.130224,-1.447457 -0.56844,-0.05116 0.37362,-4.155819 0.385506,0.03462 0.136426,1.028361 1.270207,0.114205 0.223759,-2.495455 z m -9.1617147,0.07958 -3.517098,0.330212 0.135909,1.447457 0.469222,-0.04444 -0.8180379,4.287594 -0.4392497,0.04134 0.1353923,1.442289 2.50423988,-0.235127 -0.13539225,-1.44229 -0.29662273,0.02791 0.0201538,-0.260966 1.37821045,-0.129708 0.0687296,0.252698 -0.29145536,0.02739 0.13539225,1.442289 2.50424021,-0.235128 -0.1353923,-1.442289 -0.4444173,0.04186 -1.5973185,-4.060734 0.4594035,-0.04341 z m 17.6051267,0.83819 c -0.190697,0.0098 -0.382122,0.04143 -0.574642,0.09457 -0.381782,0.106852 -0.733905,0.309332 -1.055749,0.608232 -0.342176,0.318802 -0.619122,0.696213 -0.830957,1.132231 -0.211257,0.432762 -0.358914,0.887264 -0.443384,1.362707 -0.07665,0.507065 -0.08684,0.998932 -0.03049,1.475879 0.06359,0.511826 0.200042,0.952569 0.409794,1.3224 0.213008,0.37041 0.476098,0.66733 0.789099,0.890902 0.316835,0.220894 0.656042,0.363661 1.017509,0.427881 0.361467,0.06422 0.730574,0.04562 1.107943,-0.05529 0.377369,-0.100918 0.731647,-0.287933 1.062467,-0.561723 0.334076,-0.273212 0.623488,-0.636767 0.868681,-1.090373 0.216827,-0.445209 0.370244,-0.919968 0.45992,-1.424719 0.08447,-0.475443 0.102033,-0.951513 0.05219,-1.427303 -0.04926,-0.479047 -0.180616,-0.922247 -0.393774,-1.329635 -0.209537,-0.389949 -0.479938,-0.701271 -0.81132,-0.934826 -0.327547,-0.236235 -0.680067,-0.388158 -1.057816,-0.45527 -0.188875,-0.03356 -0.378778,-0.04545 -0.569475,-0.03566 z m -26.2795326,0.23151 -2.7894939,0.666626 0.3369304,1.409216 0.6852295,-0.163814 0.4754231,1.987992 -2.5636675,-2.978629 -2.166793,0.517798 0.33693,1.409216 0.535885,-0.128158 0.971,4.062801 -0.535885,0.128158 0.335897,1.404049 2.7889773,-0.666626 -0.3358968,-1.404049 -0.6847127,0.163814 -0.4640548,-1.939933 2.5895064,2.916101 1.5875,-0.379305 -1.306897,-5.467366 0.5405355,-0.129191 z m 30.2193436,0.588595 -0.39274,1.39423 0.529683,0.149345 -1.133264,4.020943 -0.529684,-0.149345 -0.391707,1.389579 2.760038,0.77773 0.391708,-1.389579 -0.677995,-0.191203 0.540535,-1.919779 0.839226,3.808553 1.570963,0.442867 1.524972,-5.410006 0.534851,0.150379 0.392741,-1.39423 -2.760039,-0.777731 -0.392741,1.39423 0.677995,0.191203 -0.554488,1.967322 -0.785998,-3.850411 z m -3.88245,0.962731 c 0.06919,-0.003 0.142892,2.92e-4 0.220142,0.0098 0.298222,0.07986 0.50558,0.235839 0.622184,0.468188 0.116591,0.232349 0.171314,0.499287 0.164848,0.800468 -0.0032,0.30176 -0.02853,0.586148 -0.07597,0.853178 -0.05381,0.30285 -0.141966,0.592618 -0.2651,0.869715 -0.119298,0.274418 -0.294414,0.491999 -0.524516,0.652673 -0.08763,0.05834 -0.183263,0.09678 -0.28732,0.115238 -0.100802,0.01907 -0.201874,0.02 -0.302824,0.0021 v -5.16e-4 c -0.21167,-0.03761 -0.392211,-0.143284 -0.542603,-0.31781 -0.105957,-0.159914 -0.175069,-0.338696 -0.207222,-0.535885 -0.03215,-0.197189 -0.03932,-0.40482 -0.02067,-0.623218 0.01865,-0.218398 0.04754,-0.436557 0.0863,-0.65474 0.0507,-0.266451 0.121457,-0.532897 0.21239,-0.798918 0.09419,-0.265442 0.229853,-0.479953 0.406693,-0.643371 0.135073,-0.122133 0.306084,-0.187789 0.513664,-0.196888 z m -19.17298984,0.236679 0.51831461,1.381311 -0.75550944,0.0708 z m -15.34841716,0.359667 -3.321761,1.201994 0.494543,1.366842 0.443384,-0.160197 0.283704,4.35529 -0.415479,0.150378 0.492993,1.362191 2.365231,-0.855762 -0.492993,-1.362191 -0.27957,0.101286 -0.04599,-0.257865 1.301729,-0.470772 0.129708,0.227376 -0.275435,0.09922 0.492993,1.362707 2.36523,-0.856278 -0.492993,-1.362191 -0.419612,0.151929 -2.564702,-3.530018 0.433565,-0.157096 z m 45.091821,0.454236 -0.506429,1.357023 0.529684,0.197921 -1.465027,3.927926 -0.529684,-0.197921 -0.506429,1.35754 2.733167,1.019576 0.506429,-1.35754 -0.5302,-0.197404 1.465543,-3.927926 0.529684,0.197404 0.506429,-1.357023 z m 4.787305,2.027784 c -0.396451,0.0014 -0.789477,0.10345 -1.179256,0.305924 -0.414679,0.216249 -0.78203,0.506308 -1.102259,0.870231 -0.318803,0.360938 -0.582186,0.759455 -0.790132,1.195276 -0.208825,0.468383 -0.349593,0.940155 -0.422197,1.414901 -0.07492,0.510292 -0.06036,0.971581 0.04341,1.383895 0.106757,0.413738 0.281262,0.769864 0.523482,1.068668 0.246627,0.297244 0.535272,0.525067 0.866614,0.683163 0.331341,0.158042 0.692518,0.238645 1.083138,0.241845 0.390614,0.0031 0.781819,-0.08353 1.173571,-0.259415 0.394738,-0.174458 0.77052,-0.447589 1.12758,-0.819589 0.327488,-0.371454 0.601926,-0.7884 0.822689,-1.251086 0.207947,-0.43582 0.350856,-0.889777 0.429431,-1.361674 0.08002,-0.474881 0.07174,-0.937056 -0.02532,-1.386479 -0.09821,-0.431648 -0.276018,-0.803924 -0.533301,-1.117244 -0.252867,-0.314881 -0.552383,-0.555152 -0.898653,-0.72037 -0.34627,-0.165218 -0.719362,-0.248022 -1.118795,-0.248046 z m -56.28752,0.04289 c -0.273812,0.024 -0.545849,0.10238 -0.815971,0.235128 -0.397763,0.195474 -0.722493,0.448825 -0.974618,0.760677 -0.253582,0.308883 -0.407574,0.655519 -0.461987,1.03973 -0.0529,0.379784 0.01968,0.771422 0.218074,1.175122 0.275707,0.561022 0.6555,0.929414 1.139466,1.104325 0.486935,0.173455 1.156889,0.201657 2.009696,0.08475 0.214572,-0.01332 0.383868,-0.01027 0.50798,0.0098 0.12708,0.01863 0.220192,0.05031 0.279052,0.09509 0.06037,0.04035 0.105186,0.0905 0.134359,0.149861 l 0.01292,0.02687 c 0.0292,0.05937 0.04521,0.132337 0.04754,0.219625 0.0024,0.08729 -0.03161,0.179843 -0.101802,0.276985 -0.07165,0.09417 -0.201082,0.187151 -0.38809,0.279053 -0.187008,0.0919 -0.345324,0.132757 -0.475423,0.12299 -0.130101,-0.0098 -0.23705,-0.04751 -0.320911,-0.113171 -0.08532,-0.06863 -0.152311,-0.148185 -0.200504,-0.238745 l -0.359152,-0.663526 -1.478979,0.792717 0.381372,0.719336 0.230477,-0.0026 c 0.311174,0.565704 0.736366,0.912877 1.275374,1.042313 0.541977,0.127977 1.133399,0.03449 1.774569,-0.280603 l 0.135909,-0.07235 c 0.396405,-0.213234 0.710198,-0.470405 0.941544,-0.772045 0.231346,-0.30164 0.365543,-0.633071 0.402043,-0.993738 0.03504,-0.363636 -0.04299,-0.739756 -0.234094,-1.128614 -0.281541,-0.572897 -0.669575,-0.957211 -1.163753,-1.152901 -0.492668,-0.200117 -1.111375,-0.240569 -1.856218,-0.121439 -0.298891,0.01422 -0.525283,0.01495 -0.679028,0.0021 -0.152234,-0.01732 -0.244586,-0.03643 -0.276986,-0.05736 -0.04859,-0.03139 -0.08588,-0.07369 -0.112138,-0.127124 -0.03647,-0.07421 -0.04703,-0.126066 -0.03204,-0.155546 0.03966,-0.17427 0.185387,-0.323523 0.437699,-0.447518 0.187008,-0.0919 0.380071,-0.10359 0.579293,-0.03566 0.197762,0.06496 0.350126,0.190646 0.45682,0.377755 l 0.140043,0.263033 c 0.495566,-0.221427 0.990506,-0.448271 1.484664,-0.680062 l -0.306441,-0.567924 -0.233061,-0.0124 c -0.3069,-0.542009 -0.737332,-0.89647 -1.290877,-1.062985 -0.277502,-0.08474 -0.553011,-0.114953 -0.826823,-0.09095 z m 5.66322,0.620117 0.84801,1.207162 -0.713651,0.258382 z m 50.588643,1.107943 c 0.126165,0.0025 0.261283,0.03354 0.405143,0.09302 0.266216,0.15634 0.424857,0.362016 0.475424,0.617017 0.05058,0.255001 0.03265,0.526858 -0.05374,0.815454 -0.08341,0.290021 -0.183451,0.557242 -0.30024,0.802018 -0.132458,0.277612 -0.294872,0.533575 -0.487309,0.767912 -0.18802,0.232776 -0.414463,0.396246 -0.679028,0.489893 -0.09999,0.03291 -0.20277,0.04452 -0.307992,0.03462 -0.10223,-0.0085 -0.199432,-0.03491 -0.291971,-0.07906 -0.19403,-0.09258 -0.340208,-0.24288 -0.438733,-0.451135 -0.05957,-0.182345 -0.07881,-0.372907 -0.05736,-0.571542 0.02149,-0.198635 0.07016,-0.400604 0.146244,-0.606164 0.07609,-0.20556 0.16192,-0.408749 0.257349,-0.608749 0.119776,-0.243351 0.259099,-0.480904 0.417545,-0.713134 0.161432,-0.230806 0.348805,-0.401648 0.562757,-0.512114 0.108468,-0.05452 0.225752,-0.08051 0.351916,-0.07803 z m -28.2597735,1.970939 c -2.736054,0.0099 -5.43702417,0.351106 -7.9700562,1.069185 -3.576355,1.013847 -8.6748713,3.370742 -11.4220423,5.442562 -4.852896,3.659873 -8.889005,8.857717 -11.029817,14.2043012 -1.230028,3.0719453 -1.973868,6.2292426 -2.277897,9.391158 l -2.874244,0.947229 0.855245,2.5957072 1.014926,-0.3348633 0.742073,2.2510254 -2.692342,0.8872844 -0.742074,-2.2510254 1.015442,-0.3343465 -0.855761,-2.5951905 -5.216736,1.7192749 0.855245,2.5951905 1.006657,-0.331246 2.464449,7.4765461 -1.006657,0.331763 0.855762,2.59519 5.216735,-1.719275 -0.855245,-2.59519 -1.015441,0.334346 -0.674895,-2.047937 2.239657,-0.737939 c 0.123777,0.712467 0.27102,1.420405 0.441833,2.124418 l -0.329178,0.108521 0.855244,2.59519 0.223759,-0.0739 c 1.193617,3.591504 3.004416,7.025241 5.437395,10.157003 5.461808,7.030522 13.7884926,11.613964 22.8280636,12.566158 7.1579104,0.754 15.1353874,-1.161847 21.2162764,-5.095297 6.021237,-3.894865 10.592129,-9.595977 13.112378,-16.168522 l 0.0031,10e-4 0.15968,-0.447518 c 0.123395,-0.33608 0.248606,-0.671459 0.361219,-1.011825 l 0.39119,-1.096574 -0.04961,-0.01757 c 0.202154,-0.691621 0.389658,-1.388118 0.546736,-2.094445 l 2.231906,0.795817 1.118278,-3.1336592 -2.808615,-1.002006 c 0.02282,-0.2368067 0.03539,-0.4904124 0.05323,-0.7358724 L 40.242505,6.1546631 42.221195,6.8605632 41.60883,8.7141968 44.182833,9.632487 45.750696,5.2379232 39.753129,3.0985189 C 39.658072,0.73292143 39.381529,-1.5789794 38.938192,-3.2799032 35.733485,-15.575234 26.741128,-24.931698 14.438395,-27.72854 11.765986,-28.336072 8.9951035,-28.657291 6.2590495,-28.647347 Z M 3.5108968,-18.63969 h 0.6976318 l -2.3249226,6.857979 -2.3254395,6.8574628 -6.8636637,-0.01757 c -3.7750458,-0.00983 -7.0046628,-0.1049596 -7.1768228,-0.2113566 -0.473675,-0.292752 2.286604,-4.5187341 4.266406,-6.5319012 2.1069211,-2.142431 4.1793936,-3.623096 6.8729656,-4.910811 2.151376,-1.028506 5.5558222,-2.043803 6.8538452,-2.043803 z m 6.5324182,0.01344 c 0.393836,-0.0064 1.146327,0.165756 2.47065,0.51263 6.364585,1.667041 12.086504,6.203719 14.936039,11.8421712 0.368126,0.72843 0.669727,1.3853992 0.669727,1.4598592 0,0.074459 -3.189967,0.1353922 -7.088457,0.1353922 H 13.943335 L 13.556278,-5.8823283 C 13.118297,-7.2469833 9.9922153,-17.192448 9.7260213,-18.068148 c -0.1114405,-0.366597 -0.076544,-0.551701 0.3172937,-0.558105 z m 17.241324,21.0390256 1.325501,0.2811198 -0.359668,1.9187459 1.862419,0.394808 c -0.111341,2.9551299 -0.816112,6.4365197 -1.904277,8.9327877 -0.797547,1.829586 -3.009796,5.243038 -4.224031,6.517432 -1.732078,1.817891 -1.537846,1.968429 -2.846855,-2.20555 -0.648637,-2.068285 -1.576937,-5.005727 -2.062923,-6.52725 C 18.588819,10.203343 18.28308,8.872007 18.39526,8.76639 18.47182,8.694309 20.591663,7.1844646 22.34644,5.9314209 l -0.7028,3.3140096 -1.036629,-0.2196248 -0.562756,2.6546183 5.346443,1.133781 0.562757,-2.655135 -1.027328,-0.217558 0.447518,-2.1099487 3.109371,0.6593913 0.690397,-3.2550985 -3.109888,-0.6593913 0.323495,-1.5270385 z m -43.99628,0.033073 1.201477,7.2243653 -0.731739,0.1214396 c -0.369652,-1.6728247 -0.563753,-3.3864571 -0.552937,-5.0746257 0.005,-0.778517 0.03932,-1.5738528 0.0832,-2.2711792 z m 3.419429,0.05116 1.213879,0.8991699 -1.036629,0.1658814 z m 3.5377686,2.6339478 c 0.7507825,0.5593752 1.2020451,0.8987818 1.7523479,1.3120646 l -2.6112105,0.434082 0.320394,1.9254639 -1.898075,0.315743 -0.375171,-2.2556763 3.0194539,-0.4831746 z m 1.9699056,1.4748453 c 0.593717,0.4465477 1.8637531,1.3875497 2.0112468,1.5053345 l 0.7617106,0.6082316 -2.1574911,6.4006422 c -1.186754,3.520592 -2.230615,6.446322 -2.319755,6.501412 -0.231536,0.143094 -2.3941215,-2.443876 -3.6824625,-4.405416 -0.952681,-1.450483 -1.726185,-3.07739 -2.318722,-4.788338 l 8.4403121,-1.403532 z M -42.05273,7.8636027 c -0.776477,-0.066808 -1.53981,0.09519 -2.289783,0.4862752 -0.736237,0.383922 -1.333368,0.8732742 -1.791622,1.4686442 -0.461119,0.5898749 -0.733845,1.2457949 -0.818555,1.9678389 -0.08208,0.713685 0.07182,1.444373 0.461471,2.191597 0.541503,1.038424 1.269054,1.710483 2.183329,2.016415 0.919769,0.303064 2.175697,0.326391 3.767729,0.06925 0.401285,-0.03453 0.718524,-0.03619 0.95188,-0.0041 0.23885,0.02919 0.414855,0.08465 0.527099,0.165881 0.114876,0.07288 0.200566,0.164002 0.257866,0.273885 l 0.02584,0.04961 c 0.0573,0.109886 0.09038,0.246415 0.0987,0.409794 0.0083,0.16338 -0.05117,0.33788 -0.178284,0.522965 -0.129976,0.179593 -0.368027,0.359518 -0.714168,0.540019 -0.346141,0.180494 -0.641109,0.264648 -0.885217,0.252181 -0.244108,-0.01247 -0.446157,-0.0787 -0.606165,-0.197921 -0.162873,-0.124717 -0.291709,-0.270757 -0.386023,-0.438216 l -0.702799,-1.226798 -2.733684,1.551326 0.745691,1.330151 0.432015,-0.0155 c 0.608142,1.045604 1.420181,1.677714 2.435511,1.896008 1.020824,0.215427 2.124655,0.01373 3.311425,-0.605131 l 0.251148,-0.141594 c 0.7329,-0.417124 1.3093,-0.913484 1.729093,-1.488798 0.419798,-0.575314 0.655754,-1.201291 0.707967,-1.878438 0.04935,-0.68264 -0.113531,-1.383993 -0.488859,-2.103747 -0.552962,-1.060401 -1.297057,-1.762973 -2.231388,-2.107365 -0.931701,-0.352751 -2.092237,-0.400649 -3.481958,-0.144178 -0.55917,0.04001 -0.983223,0.05137 -1.271757,0.03411 -0.285903,-0.02562 -0.459278,-0.05733 -0.520898,-0.09508 -0.09242,-0.05663 -0.164435,-0.134163 -0.216008,-0.233061 -0.07163,-0.137357 -0.09395,-0.234018 -0.06718,-0.289904 0.06647,-0.328175 0.332936,-0.614296 0.799951,-0.857829 0.346141,-0.180501 0.707482,-0.211332 1.083655,-0.09302 0.373308,0.11282 0.66409,0.342144 0.872298,0.687814 l 0.274402,0.485758 c 0.918256,-0.436909 1.834547,-0.883716 2.749703,-1.33997 l -0.599964,-1.0500649 -0.436666,-0.012919 c -0.599074,-1.001414 -1.420748,-1.6461247 -2.464965,-1.9332153 -0.261771,-0.073146 -0.522006,-0.1203578 -0.780831,-0.142627 z m 94.564253,0.8123535 c -0.747289,-0.04627 -1.442463,0.099884 -2.08566,0.4387329 -0.634819,0.336286 -1.150176,0.8764076 -1.545642,1.6205729 -0.549575,1.034173 -0.691606,2.014535 -0.426331,2.941423 0.270754,0.929795 0.962742,1.978107 2.075842,3.145027 0.255611,0.311265 0.436433,0.572375 0.542086,0.782898 0.110953,0.21343 0.164497,0.389619 0.161231,0.528133 0.0049,0.13595 -0.02139,0.258501 -0.07958,0.367937 l -0.02636,0.04909 c -0.05816,0.109436 -0.152166,0.213822 -0.282154,0.313159 -0.129968,0.09934 -0.307215,0.14886 -0.53175,0.148828 -0.22162,-0.0055 -0.504831,-0.09948 -0.849561,-0.28267 -0.344724,-0.183193 -0.58112,-0.379259 -0.709,-0.587561 -0.127694,-0.208297 -0.187884,-0.411935 -0.180351,-0.611332 0.01063,-0.204864 0.05847,-0.39384 0.143144,-0.566374 l 0.613399,-1.273307 -2.826184,-1.376143 -0.674377,1.367875 0.257348,0.347782 c -0.517779,1.093174 -0.579207,2.119839 -0.184485,3.080432 0.400202,0.963501 1.191071,1.759361 2.372982,2.387452 l 0.259416,0.127124 c 0.758704,0.368086 1.493655,0.561926 2.20555,0.582393 0.711897,0.02044 1.361961,-0.139331 1.949752,-0.479557 0.590698,-0.345694 1.07635,-0.876894 1.457275,-1.593701 0.561207,-1.05606 0.71931,-2.066667 0.47439,-3.031857 -0.236554,-0.967754 -0.853551,-1.951757 -1.851567,-2.952274 -0.349485,-0.438334 -0.599195,-0.781241 -0.748275,-1.028878 -0.14046,-0.250199 -0.212524,-0.411526 -0.216524,-0.483691 -0.0057,-0.108249 0.01795,-0.211566 0.07028,-0.310059 0.07265,-0.136796 0.139238,-0.210058 0.200505,-0.219625 0.308166,-0.130951 0.695033,-0.07302 1.160136,0.17415 0.344718,0.183192 0.5745,0.463692 0.68988,0.840775 0.11826,0.371613 0.09426,0.740644 -0.07286,1.107943 l -0.245463,0.501261 c 0.879925,0.509714 1.766673,1.012745 2.66082,1.508952 l 0.526066,-1.088822 -0.236162,-0.36742 c 0.486474,-1.060686 0.552791,-2.10256 0.198438,-3.125907 C 56.406323,10.629901 55.732584,9.8506195 54.736711,9.3213949 54.003499,8.9317482 53.261719,8.7167562 52.511523,8.6759562 Z M 6.5928792,17.345711 c 0.640106,0.208113 10.8589708,8.038602 10.6903038,8.191748 -0.324333,0.294491 -3.40848,1.465864 -5.05964,1.921847 C 5.8638513,29.215593 -3.7768004,26.457279 -4.4963664,25.29303 -4.6303464,25.076233 6.2926112,17.248081 6.5928792,17.345711 Z"
         id="path14" /><path
         style="-inkscape-font-specification:'Ranked Sports';fill:#999999"
         d="m 9.8847656,-39.140625 v 0.0098 l -3.7851562,-0.002 v 0.002 l -3.3242188,-0.002 -0.00195,3.238281 h 0.5507813 v 2.224609 l -0.8457032,-2.148437 0.1660157,-0.01563 -0.3027344,-3.228516 -5.2988282,0.496094 0.3027344,3.230469 0.1738281,-0.01563 -0.46875,2.455078 -0.6601562,0.0625 0.3027344,3.224609 3.38281247,-0.318359 0.90234376,-0.08398 2.77734377,-0.261718 3.3789062,0.002 h 0.2949219 2.7675784 l 0.002,-4.527344 1.169922,0.105469 -0.123047,1.363281 -0.56836,-0.05078 -0.289062,3.232422 4.707031,0.421875 0.240235,-2.679688 c 0.07886,0.579381 0.232088,1.121374 0.5,1.59375 v 0.002 l 0.002,0.002 c 0.268733,0.467313 0.619963,0.870287 1.044921,1.173828 l 0.0039,0.002 0.0039,0.0039 c 0.414265,0.288821 0.881598,0.486905 1.373047,0.574219 0.494075,0.08778 1.004522,0.05919 1.496094,-0.07227 0.140904,-0.03768 0.253493,-0.147856 0.388671,-0.203125 l -0.0918,0.322266 4.199218,1.183593 0.285157,0.08008 1.613281,0.455079 -0.01563,0.04102 4.410156,1.644531 0.162109,-0.433593 c 0.08521,0.143942 0.11559,0.321503 0.220704,0.451172 l 0.0039,0.0039 0.0039,0.0039 c 0.322251,0.388389 0.719302,0.702961 1.169922,0.917969 0.452721,0.215937 0.951729,0.325906 1.460937,0.330078 0.526407,0.0042 1.049512,-0.115012 1.542969,-0.335938 l 0.0039,-0.002 c 0.517033,-0.229203 0.984554,-0.578237 1.40625,-1.017578 l 0.01367,-0.01367 0.01172,-0.01367 c 0.383168,-0.434609 0.706023,-0.922768 0.960938,-1.457031 0.243066,-0.509423 0.411659,-1.044712 0.503906,-1.597656 v -0.002 c 0.09716,-0.578041 0.08823,-1.160382 -0.0332,-1.722656 l -0.002,-0.0059 v -0.0039 c -0.124891,-0.548924 -0.365415,-1.055694 -0.712891,-1.480469 -0.329276,-0.409042 -0.73872,-0.743348 -1.207031,-0.966797 -0.466882,-0.222766 -0.980816,-0.335906 -1.503907,-0.335937 h -0.002 -0.002 c -0.434116,0.0015 -0.849657,0.157296 -1.257812,0.324219 l 0.359375,-0.962891 -3.544922,-1.322266 0.03516,-0.123047 -4.152344,-1.169921 -0.330078,-0.09375 -3.199219,-0.902344 -0.296875,1.054687 c -0.247104,-0.382115 -0.515021,-0.751926 -0.880859,-1.009765 -0.425246,-0.305149 -0.908483,-0.514952 -1.417969,-0.605469 -0.254752,-0.04526 -0.513347,-0.06208 -0.771484,-0.04883 -0.25868,0.01328 -0.516226,0.05563 -0.767578,0.125 l -0.002,0.002 c -0.452373,0.126609 -0.851468,0.394944 -1.222657,0.699219 l 0.105469,-1.164063 -6.451172,-0.580078 v -0.06836 H 9.9902344 Z m -16.3613281,1.042969 -4.1972655,1.001953 -0.333985,0.08008 -3.232421,0.773438 0.751953,3.15039 0.537109,-0.128906 0.544922,2.285156 -1.433594,-1.974609 0.15625,-0.05664 -1.103515,-3.050781 -5.00586,1.810547 0.777344,2.15039 -0.363281,-0.01953 c -0.374432,-0.415639 -0.730421,-0.873278 -1.265625,-1.035156 -6.28e-4,-1.92e-4 -0.0013,1.91e-4 -0.002,0 -0.378357,-0.115288 -0.773786,-0.161166 -1.164063,-0.126953 -0.391281,0.0343 -0.774369,0.148066 -1.132812,0.324219 -0.497754,0.244612 -0.932629,0.578344 -1.271485,0.996093 -3.84e-4,4.69e-4 3.85e-4,0.0015 0,0.002 -0.34855,0.425077 -0.579527,0.93873 -0.65625,1.480469 v 0.002 c -0.07994,0.573853 0.03945,1.161576 0.300782,1.69336 0.230718,0.469478 0.67815,0.719549 1.078125,1.019531 l -0.677735,0.363281 1.054688,1.988281 0.36914,-0.0039 c 0.392674,0.477063 0.870013,0.8713 1.462891,1.013672 h 0.002 0.002 c 0.778579,0.183846 1.601197,0.03262 2.375,-0.347656 l 0.01172,-0.0059 0.150391,-0.08008 0.002,-0.002 c 0.333301,-0.179289 0.579832,-0.44447 0.839843,-0.695312 l 0.01563,0.04102 3.195313,-1.15625 v 0.002 l 3.421875,-1.240234 3.330078,-0.794922 0.2871094,-0.06836 2.6914062,-0.644531 -1.3066406,-5.466797 0.5410156,-0.128907 z m 11.5917969,0.755859 h 0.2363281 l 0.7460937,1.449219 0.4550782,0.882812 -1.4394532,0.359375 z m 8.2597656,0.3125 h 0.0059 l -0.476562,5.308594 h -0.0059 z m 5.746094,0.683594 c -0.245129,0.01645 -0.472892,0.154022 -0.701172,0.277344 0.126088,-0.07792 0.251289,-0.187436 0.382812,-0.22461 0.11113,-0.03067 0.215324,-0.04351 0.31836,-0.05273 z m 0.613281,0.0918 c 0.17147,0.05205 0.339909,0.09961 0.507812,0.220703 l 0.0059,0.002 0.0039,0.0039 c 0.181985,0.128262 0.323375,0.316458 0.458984,0.53711 -0.233139,-0.359913 -0.585068,-0.634291 -0.976562,-0.763672 z m 4.494141,1.076172 0.226562,0.06445 0.326172,1.597656 0.199219,0.972656 -1.482422,-0.04297 z m -6.634766,0.0039 c -0.03353,0.06982 -0.09742,0.120944 -0.125,0.193359 0.0065,-0.01368 0.007,-0.02933 0.01367,-0.04297 0.02893,-0.05954 0.0798,-0.09437 0.111328,-0.150391 z m -28.912109,0.07422 1.0625,1.234375 0.6484371,0.753906 -1.3144531,0.685547 -0.625,-2.619141 z m 32.285156,0.302734 c 0.03333,0.133141 0.100236,0.246722 0.115234,0.392578 v 0.002 c 0.0044,0.04231 -0.0071,0.0847 -0.0039,0.126953 -0.0027,-0.179797 -0.07398,-0.346167 -0.111328,-0.521484 z m -12.5566407,0.09766 -0.00195,2.636719 h -0.201175 l -1.2246094,-2.291016 z m 8.9414057,0.07617 c -0.06121,0.208721 -0.125946,0.416363 -0.166015,0.626953 l -0.002,0.0059 v 0.0059 c -0.03307,0.186175 -0.05405,0.37307 -0.07422,0.560547 0.0078,-0.162936 -0.01558,-0.314462 0.0098,-0.484375 0.04521,-0.250398 0.145453,-0.480372 0.232421,-0.714844 z m -2.412109,0.249999 0.453125,0.04102 c -0.0085,0.04241 -0.03149,0.0804 -0.03906,0.123047 l -0.002,0.01172 -0.002,0.01172 c -0.06259,0.414043 -0.04059,0.817446 -0.02539,1.222656 l -0.507813,-0.04492 z m 6.117188,0.675781 c -0.01018,0.15738 0.0106,0.314065 -0.01758,0.472657 -0.05354,0.301349 -0.166135,0.568563 -0.271484,0.839843 0.09615,-0.260249 0.193395,-0.520291 0.242188,-0.794921 0.0295,-0.166065 0.032,-0.344763 0.04687,-0.517579 z m -28.7851566,0.457032 0.6113281,2.564453 -0.1953125,0.04687 -1.7246094,-1.94336 z m 24.8261716,0.34375 c 0.0012,0.08696 0.002,0.173909 0.0098,0.259765 -0.0026,-0.01852 -0.01129,-0.02601 -0.01367,-0.04492 -0.0081,-0.06833 0.0087,-0.145471 0.0039,-0.214843 z m 3.576172,0.798828 c -0.0066,0.01397 -0.007,0.03102 -0.01367,0.04492 -0.197168,0.35968 -0.412019,0.622878 -0.636719,0.80664 l -0.002,0.002 -0.002,0.002 c -0.02179,0.01803 -0.0428,0.01842 -0.06445,0.03516 0.299681,-0.243586 0.562624,-0.53746 0.71875,-0.890625 z m -18.5878905,0.167969 0.00586,0.01563 h -0.00195 z m 23.1289065,0.136718 1.46875,0.05273 -0.716797,2.539062 -0.19336,-0.05469 z M -1.375,-31.599609 v 0.01172 h -0.00195 z m -20.279297,0.144531 c 0.155457,-0.01363 0.308078,0.0019 0.482422,0.05469 -0.289942,-0.03852 -0.585832,-0.0534 -0.853516,0.05469 0.127905,-0.04967 0.255003,-0.0992 0.371094,-0.109375 z m 0.775391,0.03125 0.0098,0.0039 c -0.0012,-4.16e-4 -0.0027,4.13e-4 -0.0039,0 -0.0022,-7.43e-4 -0.0036,-0.0032 -0.0059,-0.0039 z m 38.609375,0.111328 c 0.03561,0.03188 0.08481,0.04096 0.123047,0.07031 v 0.07031 c -0.04485,-0.03619 -0.08074,-0.09842 -0.123047,-0.140625 z m -39.896485,0.01367 c -0.347742,0.180397 -0.68488,0.490787 -0.824218,0.945312 -0.04956,0.169588 -0.07268,0.325337 -0.05469,0.431641 -0.01021,-0.08306 -0.06516,-0.190447 -0.05469,-0.265625 0.0094,-0.06572 0.06014,-0.114581 0.07813,-0.173828 l 0.04883,-0.134766 c -0.0081,0.01595 0.0031,0.02151 -0.0039,0.03711 0.04394,-0.106015 0.0589,-0.219911 0.144531,-0.324219 l 0.002,-0.002 0.002,-0.002 c 0.161954,-0.200321 0.374254,-0.367931 0.662109,-0.511719 z m 57.607422,0.08984 c 0.151667,0.09587 0.303925,0.186186 0.433594,0.347656 l 0.002,0.0039 0.0039,0.0039 c 0.142649,0.173719 0.232612,0.393921 0.304688,0.646485 -0.127857,-0.412788 -0.398754,-0.771683 -0.744141,-1.001953 z m -2.371094,0.488281 c -0.04467,0.05235 -0.111677,0.08124 -0.152343,0.136719 0.0099,-0.01144 0.01535,-0.02575 0.02539,-0.03711 h 0.002 c 0.0374,-0.0425 0.08646,-0.06011 0.125,-0.09961 z m -51.958984,0.257812 0.0078,0.0039 c -0.0012,-4.71e-4 -0.0027,4.69e-4 -0.0039,0 -0.0017,-6.92e-4 -0.0022,-0.0032 -0.0039,-0.0039 z m 51.59375,0.203125 c -0.111814,0.181 -0.229268,0.359884 -0.322266,0.548829 l -0.002,0.0059 -0.002,0.0039 c -0.08132,0.170433 -0.149853,0.345196 -0.21875,0.519531 0.05043,-0.153525 0.06788,-0.305513 0.136719,-0.460937 0.108485,-0.225853 0.26466,-0.416949 0.408203,-0.617188 z m -55.701177,0.57812 c 0.01742,0.04496 0.0325,0.105373 0.05078,0.142579 0.05957,0.121204 0.175951,0.214116 0.279296,0.314453 -0.09642,-0.100369 -0.20531,-0.116346 -0.298828,-0.306641 -0.03106,-0.06319 -0.01106,-0.09477 -0.03125,-0.150391 z m 29.2519534,0.138672 c -2.808311,0.01021 -5.58885443,0.360192 -8.2109375,1.103516 -3.7117834,1.052239 -8.8051209,3.39396 -11.7167969,5.589844 -4.987678,3.761521 -9.111566,9.064811 -11.322266,14.5859371 -1.18469,2.958716 -1.893216,5.9974366 -2.238281,9.04101565 l -2.175781,0.71874995 -1.037109,0.3417969 -5.878907,1.9375 1.416016,4.2949219 1.005859,-0.3320313 1.904297,5.7773438 -1.005859,0.332031 1.416015,4.294922 5.878907,-1.9375 0.296875,-0.09766 c 1.221093,3.38107 2.921933,6.633061 5.226562,9.599609 5.616557,7.229717 14.1612103,11.92871 23.4414064,12.90625 7.3838876,0.777804 15.5255836,-1.177072 21.7949216,-5.232422 5.935835,-3.839622 10.447015,-9.412561 13.091797,-15.822265 l 0.08594,0.0293 0.453125,-1.265625 0.002,-0.0078 c 0.119221,-0.324624 0.244401,-0.659912 0.361328,-1.011719 l 0.0059,-0.01953 0.6875,-1.921875 -0.121094,-0.04297 c 0.03178,-0.117253 0.06114,-0.235514 0.0918,-0.353515 l 2.154297,0.767578 1.259766,-3.527344 1.601562,0.570313 L 46.894531,4.6953125 40.566406,2.4375 C 40.447768,0.26949973 40.230281,-1.8730101 39.804687,-3.5058594 36.524869,-16.089366 27.268266,-25.729969 14.636719,-28.601562 c -2.736315,-0.62206 -5.5725609,-0.951613 -8.3808596,-0.941407 z m 29.9843746,0.06836 c -0.0034,0.136942 0.03215,0.263775 0.0078,0.408203 v 0.002 c -0.007,0.04215 -0.03083,0.07937 -0.03906,0.121094 0.04516,-0.173895 0.02065,-0.352691 0.03125,-0.53125 z m -58.732421,0.429687 c 0.20534,0.125871 0.291026,0.127144 0.375,0.144531 0.08068,0.01671 0.156278,0.02742 0.238281,0.03711 -0.119013,-0.01735 -0.370638,0.01548 -0.447266,-0.01172 -0.06378,-0.02319 -0.10837,-0.134132 -0.166015,-0.169922 z m 1.490234,0.185547 0.0098,0.01953 c -0.01976,0.0017 -0.02553,-0.0034 -0.04492,-0.002 l -0.0098,-0.01563 c 0.0062,-2.89e-4 0.0094,2.98e-4 0.01563,0 z m 0.236328,0 c 0.337264,-0.03753 0.56212,-0.0018 0.785156,0.03711 l 0.0098,0.002 c 0.117446,0.02101 0.328655,-0.01595 0.416016,0.01953 l 0.0039,0.002 h 0.0039 c 0.08674,0.03435 0.14421,0.174716 0.220703,0.230469 -0.240099,-0.170058 -0.453535,-0.223007 -0.65039,-0.251953 -5.53e-4,-9.8e-5 -0.0014,9.6e-5 -0.002,0 -0.232184,-0.03634 -0.447421,-0.03492 -0.695312,-0.01953 l -0.0332,0.002 -0.0332,0.0039 c -0.03794,0.0052 -0.04128,-0.0064 -0.07813,-0.002 z m -0.882812,0.002 c 0.08369,0.0033 0.184089,0.0012 0.277343,0 l -0.01172,0.0059 c -0.09709,-4.27e-4 -0.182483,3.01e-4 -0.265625,-0.0059 z m 53.654296,0.185547 c -0.02174,0.0831 -0.04334,0.166043 -0.05859,0.25 0.0023,-0.01778 -0.0046,-0.02685 -0.002,-0.04492 0.01033,-0.06752 0.04683,-0.137406 0.06055,-0.205078 z m -51.339843,0.08594 0.04492,0.03125 c -0.01014,-0.0077 -0.01731,-0.0025 -0.02734,-0.0098 -0.0073,-0.0051 -0.01028,-0.01661 -0.01758,-0.02148 z m 0.08594,0.09766 c 0.130261,0.116111 0.272843,0.16658 0.390625,0.40625 0.132119,0.268842 0.163057,0.466623 0.146485,0.644531 -0.01907,0.185802 -0.08373,0.33876 -0.208985,0.509766 0.08024,-0.168105 0.183697,-0.320312 0.177735,-0.541016 -0.0049,-0.183285 -0.03846,-0.388053 -0.138672,-0.591797 l -0.01172,-0.02344 -0.002,-0.002 c -0.08143,-0.165705 -0.217747,-0.290484 -0.353516,-0.402344 z m 55.283203,0.09766 c -0.05144,0.1484 -0.07354,0.304522 -0.142578,0.449219 -0.138806,0.290916 -0.324208,0.533518 -0.509766,0.777344 0.173486,-0.236111 0.343666,-0.475937 0.470704,-0.742188 0.07234,-0.151617 0.121488,-0.322418 0.18164,-0.484375 z m -29.7734373,0.638672 c 2.6638093,-0.0097 5.3700123,0.30348 7.9785153,0.896484 11.973919,2.722091 20.702436,11.793626 23.832032,23.8007815 0.416325,1.5972897 0.693909,3.87006352 0.787109,6.1894531 l 0.02344,0.6035157 5.72461,2.0410156 -0.966797,2.7089844 -0.908203,-0.3242188 0.613281,-1.8535156 -3.644531,-1.2988282 -0.900391,2.5195313 -0.0078,0.1210937 c -0.01886,0.2595607 -0.03276,0.5075001 -0.05273,0.7148438 l -0.06641,0.6953125 2.623047,0.9355469 -0.517578,1.4472661 -2.34375,-0.835938 -0.21875,0.990234 c -0.15138,0.680703 -0.334634,1.357752 -0.533203,2.03711 l -0.236328,0.8125 h 0.002 l -0.09375,0.261719 -0.0039,0.0098 c -0.06574,0.198709 -0.143713,0.407549 -0.21875,0.613281 l 0.01563,0.0059 -0.30664,0.798828 c -2.452673,6.396313 -6.901468,11.94755 -12.761719,15.738281 -5.89244,3.811551 -13.704785,5.687227 -20.6367186,4.957031 -8.7989459,-0.926847 -16.9077844,-5.393282 -22.2148434,-12.224609 -2.370528,-3.051373 -4.1329,-6.394188 -5.294922,-9.890625 l -0.283203,-0.847656 -0.220703,0.07226 -0.294922,-0.894531 0.263672,-0.08594 -0.195313,-0.802735 c -0.166185,-0.684938 -0.309285,-1.373364 -0.429687,-2.066406 l -0.177735,-1.0214844 -4.074219,1.3417974 1.236329,3.748046 1.015625,-0.333984 0.294921,0.894531 -3.517578,1.160157 -0.294922,-0.894532 1.00586,-0.332031 -3.023438,-9.1777344 -1.007812,0.3320313 -0.294922,-0.8964844 3.517578,-1.1582031 0.294922,0.8945312 -1.015625,0.3339844 1.302734,3.9511719 4.392578,-1.4472657 -1.302734,-3.9511718 -1.015625,0.3339844 -0.294922,-0.8945313 2.580078,-0.8496094 0.05469,-0.5820312 c 0.29615,-3.0799764 1.0211,-6.1514969 2.21875,-9.1425781 2.070924,-5.1720428 6.020167,-10.2659938 10.738281,-13.8242188 2.582666,-1.947756 7.6860265,-4.319467 11.1269531,-5.294922 2.44398099,-0.692834 5.0647186,-1.025475 7.7285156,-1.035156 z m 25.9316403,0.769531 c 0.180273,0.282092 0.393777,0.56287 0.697266,0.708985 -0.0035,-0.0016 -0.0083,-3.07e-4 -0.01172,-0.002 -0.210803,-0.100582 -0.388498,-0.241224 -0.558594,-0.445312 -0.05574,-0.06923 -0.08106,-0.180632 -0.126953,-0.261719 z m 3.052735,0.02734 c -0.01053,0.01233 -0.01668,0.02881 -0.02734,0.04102 -0.286389,0.295358 -0.563502,0.493512 -0.830078,0.611328 h -0.002 l -0.002,0.002 c -0.02752,0.01235 -0.0492,0.0066 -0.07617,0.01758 0.356927,-0.156049 0.69236,-0.370805 0.9375,-0.671875 z m -57.15625,0.263672 c 0.02241,0.04165 0.06392,0.06616 0.08984,0.105469 l -0.02539,0.01367 z m 25.4218748,7.15625 c -0.8823641,0 -2.0413748,0.279625 -3.3632813,0.673828 -1.3219065,0.394202 -2.7389154,0.912971 -3.8769531,1.457031 -2.7732617,1.325812 -4.9568939,2.88715 -7.1250004,5.091797 -1.063622,1.081548 -2.257456,2.6608101 -3.164062,4.0488281 -0.453303,0.694009 -0.830512,1.3326026 -1.083985,1.8652344 -0.126736,0.2663159 -0.226098,0.4971171 -0.287109,0.7617188 -0.0305,0.1323008 -0.05869,0.2741394 -0.03516,0.484375 0.02353,0.2102355 0.153638,0.5638057 0.470703,0.7597656 0.264207,0.1632828 0.297908,0.1249757 0.369141,0.1386719 0.07123,0.013696 0.133443,0.021343 0.203125,0.029297 0.139362,0.015908 0.304177,0.028457 0.505859,0.041016 0.403363,0.025117 0.94731,0.04708 1.603516,0.066406 1.31241,0.038652 3.0685146,0.065378 4.9628903,0.070312 l 7.50781245,0.019531 2.53125005,-7.4667978 2.7265624,-8.041014 z m 6.5175782,0.01367 c -0.1683253,0.0027 -0.3494782,0.01879 -0.5644532,0.109375 -0.2149751,0.09059 -0.4612251,0.300187 -0.578125,0.546875 -0.2338,0.493375 -0.093051,0.808363 -0.017578,1.05664 0.2848557,0.937092 3.3880232,10.8096991 3.8339842,12.199219 l 0.587891,1.828125 h 7.740234 c 1.953908,0 3.729994,-0.014357 5.023437,-0.039063 0.646722,-0.012353 1.170397,-0.028084 1.544922,-0.044922 0.187263,-0.00842 0.336348,-0.015975 0.458985,-0.027344 0.06132,-0.00568 0.112079,-0.010955 0.189453,-0.025391 0.03869,-0.00722 0.07797,-0.012294 0.175781,-0.048828 0.0489,-0.018267 0.112384,-0.038236 0.228516,-0.125 0.02903,-0.021691 0.09736,-0.083695 0.09766,-0.083984 2.91e-4,-2.896e-4 0.113087,-0.1364288 0.113281,-0.1367188 1.94e-4,-2.9e-4 0.105372,-0.2145533 0.105469,-0.2148437 9.7e-5,-2.905e-4 0.04687,-0.2848654 0.04687,-0.2851563 0,-0.3114081 -0.04375,-0.2843862 -0.0625,-0.3398437 -0.01875,-0.055458 -0.03548,-0.1023931 -0.05664,-0.1542969 -0.04233,-0.1038077 -0.09614,-0.2237794 -0.160156,-0.3632813 -0.128024,-0.2790037 -0.299743,-0.6327897 -0.488281,-1.0058593 -2.979913,-5.896434 -8.885406,-10.568164 -15.507813,-12.302735 -1.334493,-0.349537 -2.037845,-0.553915 -2.710937,-0.542967 z m -7.1113282,1.902343 -1.8828126,5.550782 -2.1171874,6.2480465 -6.2207032,-0.015625 c -1.8806701,-0.0049 -3.6268156,-0.032344 -4.9160156,-0.070312 -0.450647,-0.013272 -0.756943,-0.029382 -1.080078,-0.044922 0.201556,-0.3827486 0.436896,-0.8097681 0.779297,-1.3339843 0.850065,-1.3014529 2.025227,-2.8398652 2.941406,-3.7714852 2.0457361,-2.080214 4.0072115,-3.482804 6.6210937,-4.732422 1.0133384,-0.484445 2.37452124,-0.986849 3.61718755,-1.357421 0.98387065,-0.293398 1.69740495,-0.400319 2.25781255,-0.472657 z m 7.9042972,0.05469 c 0.37107,0.06786 0.601112,0.09017 1.464843,0.316406 6.106764,1.599511 11.644124,6.000389 14.363282,11.3808595 0.04501,0.089061 0.07273,0.1504454 0.115234,0.2363281 -0.251084,0.00707 -0.428725,0.013469 -0.746094,0.019531 -1.276162,0.024376 -3.043699,0.041016 -4.988281,0.041016 h -6.435547 l -0.1875,-0.5859375 C 14.005181,-7.4119331 11.37474,-15.784621 10.822264,-17.564411 Z m -25.361329,18.0253905 0.6875,4.125 3.019532,-0.4824219 0.253906,1.5351563 -3.019531,0.4824218 0.669922,4.0273443 3.6640621,-0.6093755 -0.3203125,-1.9257813 1.03125,-0.171875 0.4746094,2.8457028 -8.605469,1.431641 0.347657,1.001953 c 0.613943,1.77276 1.416784,3.464972 2.416015,4.986328 0.671205,1.021931 1.545566,2.173097 2.298828,3.074219 0.376632,0.450561 0.719112,0.835098 1.009766,1.123047 0.145327,0.143974 0.271514,0.262413 0.423828,0.373047 0.07616,0.05532 0.154577,0.111354 0.3007812,0.169922 0.1462042,0.05857 0.4656892,0.184888 0.8691407,-0.06445 6.964e-4,-4.3e-4 0.1168697,-0.08502 0.1503906,-0.117187 0.033521,-0.03217 0.056244,-0.05825 0.074219,-0.08008 0.035951,-0.04366 0.054891,-0.0715 0.070312,-0.0957 0.030844,-0.0484 0.046199,-0.07912 0.060547,-0.107422 0.028697,-0.05661 0.048328,-0.10416 0.072266,-0.160156 0.047875,-0.111994 0.1032312,-0.251455 0.1699219,-0.425782 0.1333815,-0.348652 0.3099482,-0.832913 0.5214844,-1.425781 0.4230723,-1.185737 0.9833473,-2.800002 1.578125,-4.564453 l 2.3574219,-6.9941406 -1.2519531,-1 C -5.3592518,7.2967887 -5.6656446,7.0697375 -6.0761719,6.7636719 -6.4866991,6.4576063 -6.9528826,6.1111556 -7.2460937,5.890625 l -0.21875,-0.1640625 -1.5703126,-1.1816406 0.00195,0.00781 C -9.1065098,4.4980489 -9.1392226,4.4733149 -9.21875,4.4140625 l -0.6289063,-0.46875 0.011719,-0.00195 z m 41.625,0.9941406 -1.501953,1.0664063 -0.582031,2.7441406 3.111328,0.6601562 -0.320312,1.5039063 -3.109375,-0.6601563 -0.81836,3.8613278 1.027344,0.21875 -0.191406,0.904297 -3.595703,-0.763672 0.191406,-0.904296 1.037109,0.220703 1.365235,-6.4414066 c 0,0 -3.346705,1.6746516 -5.425782,3.8789062 -0.119619,0.08647 -0.216258,0.1572973 -0.289062,0.2109375 -0.0364,0.02682 -0.06736,0.048298 -0.09375,0.068359 -0.02639,0.020062 -0.01322,0.00127 -0.109375,0.091797 -0.42952,0.4043909 -0.29903,0.5922223 -0.302734,0.7207031 -0.0037,0.1284808 0.006,0.2258133 0.01953,0.3339844 0.02711,0.216342 0.07501,0.4584532 0.140625,0.7441406 0.131233,0.5713748 0.334522,1.3029698 0.583984,2.0839848 0.48491,1.518153 1.412467,4.454975 2.060547,6.521484 0.325821,1.038931 0.557502,1.810778 0.763672,2.392578 0.20617,0.5818 0.289723,0.996024 0.806641,1.396485 0.258459,0.20023 0.715819,0.298634 1.033203,0.21875 0.317383,-0.07989 0.507087,-0.229433 0.679687,-0.373047 0.3452,-0.287228 0.643405,-0.63612 1.066406,-1.080078 1.390305,-1.459187 3.519624,-4.763858 4.396485,-6.775391 1.153404,-2.645927 1.86282,-6.1871137 1.978515,-9.2578127 L 31.035156,4.2890625 29.291016,3.9179688 29.650391,2 Z m -42.914062,0.84375 -1.777344,0.089844 c -0.04472,0.7107102 -0.07884,1.5213646 -0.08398,2.3222656 -0.01128,1.7606477 0.191023,3.539324 0.574219,5.2734375 l 0.18164,0.8300778 2.453125,-0.408203 z m -26.148437,4.6738281 c -0.949504,-0.081695 -1.898405,0.1246294 -2.779297,0.5839844 -0.835933,0.4359096 -1.543269,1.0105005 -2.085938,1.7148438 -0.552311,0.7078082 -0.896867,1.5310846 -1,2.4101566 v 0.002 c -0.104513,0.908726 0.101058,1.835327 0.556641,2.708984 0.607015,1.164056 1.508537,2.014169 2.626953,2.412109 l -1.443359,0.81836 1.449218,2.583984 0.566407,-0.01953 c 0.683471,0.925939 1.551209,1.630465 2.625,1.861328 h 0.002 0.002 c 1.258798,0.265647 2.592336,-3.04e-4 3.910156,-0.6875 l 0.01367,-0.0059 0.265625,-0.150391 v -0.002 c 0.822849,-0.468318 1.504516,-1.045852 2.009766,-1.738281 0.507883,-0.696032 0.8121,-1.496827 0.876953,-2.337891 l 0.002,-0.002 v -0.002 c 0.06274,-0.867874 -0.151433,-1.74505 -0.587891,-2.582031 -0.628733,-1.205707 -1.552573,-2.100421 -2.708984,-2.529297 -5.8e-4,-2.2e-4 -0.0014,2.19e-4 -0.002,0 -0.02652,-0.01003 -0.05921,-0.008 -0.08594,-0.01758 0.130717,-0.06476 0.26192,-0.126266 0.392578,-0.191407 l 0.847657,-0.421875 -1.31836,-2.3085934 -0.568359,-0.015625 c -0.678252,-0.9104668 -1.545214,-1.6152614 -2.621094,-1.9121094 -0.313707,-0.087658 -0.629897,-0.1447367 -0.945312,-0.171875 z M 52.5625,7.7832031 c -0.896113,-0.054794 -1.771253,0.1263342 -2.554688,0.5390625 v 0.00195 C 49.19975,8.7522746 48.5523,9.4442255 48.089844,10.31445 c -0.615898,1.158977 -0.806415,2.384442 -0.501953,3.53125 l -1.492188,-0.726562 -1.308594,2.65625 0.337891,0.455078 c -0.377489,1.088369 -0.466615,2.203979 -0.04883,3.220703 v 0.002 c 0.493455,1.188011 1.466827,2.138465 2.779297,2.835937 l 0.01367,0.0059 0.273437,0.134765 h 0.002 c 0.851903,0.413302 1.713842,0.647252 2.570313,0.671875 0.861265,0.02473 1.693565,-0.176917 2.423828,-0.599609 h 0.002 l 0.002,-0.002 c 0.751083,-0.439556 1.352053,-1.111942 1.794922,-1.945313 0.638874,-1.202211 0.855444,-2.470533 0.552734,-3.667968 -0.0065,-0.02664 -0.02623,-0.05155 -0.0332,-0.07813 0.127,0.07092 0.251607,0.144199 0.378906,0.214843 l 0.828125,0.458985 1.15625,-2.392578 -0.30664,-0.476563 c 0.36727,-1.075956 0.455582,-2.191819 0.08984,-3.248047 C 57.183119,10.138096 56.324569,9.1521155 55.15625,8.53125 54.323198,8.0885457 53.450352,7.8317811 52.5625,7.7832031 Z m -94.691406,0.972656 c 0.202235,0.0174 0.405399,0.054647 0.615234,0.1132812 h 0.002 0.002 c 0.82969,0.2281097 1.434687,0.6920568 1.935547,1.5292977 l 0.22461,0.378906 c -0.301186,0.147263 -0.602811,0.294326 -0.904297,0.439453 -0.306611,-0.392773 -0.674297,-0.757454 -1.150391,-0.902344 -0.573734,-0.178738 -1.226009,-0.124039 -1.759765,0.154297 -0.558241,0.291104 -1.026694,0.741765 -1.203125,1.355469 -0.08556,0.245551 -0.09117,0.470634 -0.05859,0.611328 0.03747,0.161842 0.09044,0.277454 0.148437,0.388672 0.120832,0.231711 0.316823,0.443469 0.542969,0.582031 0.254459,0.155901 0.352199,0.144186 0.482422,0.167969 0.130223,0.02378 0.266152,0.04038 0.425781,0.05469 l 0.01367,0.002 h 0.01367 c 0.364076,0.02178 0.809404,0.0063 1.388672,-0.03516 l 0.04883,-0.002 0.04883,-0.0098 c 1.282715,-0.236723 2.27728,-0.173545 3.003906,0.101563 h 0.002 l 0.0039,0.002 c 0.708392,0.261112 1.272348,0.769406 1.748047,1.681641 0.31384,0.601842 0.426209,1.126142 0.390625,1.623046 -0.03983,0.512466 -0.20775,0.963919 -0.539063,1.417969 -0.334337,0.458199 -0.806267,0.872351 -1.449219,1.238281 l -0.222656,0.125 c -1.05572,0.55052 -1.930041,0.688645 -2.712891,0.523438 -0.761854,-0.16497 -1.333827,-0.590614 -1.845703,-1.470703 l -0.269531,-0.462891 -0.421875,0.01563 -0.04492,-0.07813 1.185547,-0.671875 0.255859,0.447266 c 4.56e-4,8.09e-4 0.0015,0.0011 0.002,0.002 l 0.002,0.0039 c 0.155872,0.274675 0.369278,0.515246 0.617187,0.705078 l 0.0059,0.0039 0.0039,0.002 c 0.322141,0.240031 0.715493,0.355572 1.095703,0.375 0.485679,0.0248 0.913903,-0.129374 1.34375,-0.353516 0.413181,-0.21546 0.757569,-0.438534 1.025391,-0.808594 l 0.0078,-0.0078 0.0059,-0.0098 c 0.201945,-0.294049 0.354987,-0.662048 0.333985,-1.074219 -0.01317,-0.258386 -0.06668,-0.525121 -0.199219,-0.779296 l -0.02539,-0.04883 c -0.127636,-0.244766 -0.331167,-0.44841 -0.550781,-0.593749 -0.307262,-0.214737 -0.606105,-0.281957 -0.919922,-0.320313 -0.342219,-0.04563 -0.702963,-0.03732 -1.136718,0 l -0.0332,0.002 -0.0332,0.0059 c -1.509592,0.243829 -2.638973,0.196045 -3.341797,-0.03516 h -0.002 c -0.673991,-0.226576 -1.208025,-0.694312 -1.669922,-1.580078 -0.323721,-0.620791 -0.426836,-1.157137 -0.367187,-1.675781 0.06634,-0.562764 0.266859,-1.048897 0.634766,-1.519531 l 0.002,-0.002 0.002,-0.002 c 0.373621,-0.4854137 0.862356,-0.8911656 1.498047,-1.2226562 0.619053,-0.3228149 1.195377,-0.4386392 1.798828,-0.3867187 z m 68.193359,0.1367187 2.583984,0.5488282 c -0.316758,1.511691 -0.745865,2.96173 -1.259765,4.140625 -0.718233,1.647639 -3.014569,5.168211 -4.052735,6.257813 -0.272355,0.285848 -0.392994,0.404943 -0.5625,0.578125 -0.03221,-0.07165 -0.007,-0.01292 -0.03906,-0.103516 -0.179698,-0.507096 -0.413504,-1.282019 -0.742188,-2.330078 -0.529998,-1.689986 -1.17551,-3.726557 -1.685546,-5.332031 L 26.080078,13.875 27.013672,9.46875 25.988281,9.2519531 Z m 26.392578,0.6757816 0.002,0.00195 h 0.0039 c 0.611902,0.033279 1.220723,0.2047343 1.853515,0.5410156 0.822083,0.43687 1.310716,1.007404 1.59375,1.835938 l 0.002,0.002 v 0.002 c 0.281598,0.813234 0.240723,1.574103 -0.166015,2.460937 L 55.5625,14.810547 c -0.292394,-0.16534 -0.586084,-0.329276 -0.876953,-0.496094 0.150241,-0.475426 0.243648,-0.985069 0.09375,-1.458984 -0.177509,-0.573446 -0.59166,-1.080889 -1.123047,-1.363281 -6.2893,-2.205734 -0.246894,4.61073 0.09769,5.822363 v 0.0039 l 0.002,0.0039 c 0.185702,0.731821 0.08442,1.483948 -0.398437,2.392578 -0.318455,0.599252 -0.687785,0.986412 -1.117188,1.238281 -7.1e-4,4.17e-4 -0.0012,0.0015 -0.002,0.002 -0.444197,0.256255 -0.909753,0.373528 -1.470703,0.357422 -0.566046,-0.01627 -1.174137,-0.168845 -1.837891,-0.490234 l -0.0039,-0.002 -0.230469,-0.113281 -0.0059,-0.0039 c -1.046284,-0.557462 -1.652542,-1.19688 -1.958984,-1.933594 v -0.002 C 46.434169,18.045228 46.46015,17.335321 46.89648,16.414107 l 0.228516,-0.486328 -0.25,-0.339843 0.03906,-0.07813 1.22461,0.595703 -0.22461,0.464843 c -0.139791,0.284854 -0.218025,0.598833 -0.234375,0.914063 v 0.0059 0.0059 c -0.01519,0.402093 0.114459,0.790231 0.3125,1.113281 0.254168,0.41401 0.622103,0.682348 1.050782,0.910156 0.412101,0.218996 0.792561,0.375413 1.248047,0.386719 h 0.01172 0.0098 c 0.356194,5.1e-5 0.748299,-0.08142 1.076172,-0.332031 0.20422,-0.156065 0.392402,-0.348756 0.527344,-0.601563 l 0.002,-0.002 0.02539,-0.04883 v -0.002 c 0.130875,-0.246119 0.182569,-0.528295 0.177735,-0.791016 0.0023,-0.36941 -0.109497,-0.653197 -0.253907,-0.93164 -0.155954,-0.309181 -0.368173,-0.604452 -0.646484,-0.94336 l -0.01953,-0.02539 -0.02344,-0.02539 c -1.054822,-1.105825 -1.655735,-2.063561 -1.863281,-2.773437 -0.196088,-0.685143 -0.114101,-1.391769 0.355469,-2.275391 0.328475,-0.618106 0.714205,-1.003534 1.175781,-1.248047 0.50126,-0.2637002 1.01493,-0.3748179 1.611328,-0.3378906 z m -59.4960935,2.3613286 -0.9785156,2.904296 c -0.5919763,1.756141 -1.1485746,3.364108 -1.5664063,4.535157 -0.1075583,0.301451 -0.1744946,0.476756 -0.2617187,0.714843 -0.1398666,-0.15712 -0.2432139,-0.258853 -0.4023439,-0.449218 -0.707999,-0.846975 -1.558645,-1.970547 -2.175781,-2.910157 -0.712549,-1.084874 -1.239329,-2.345476 -1.746094,-3.609375 z m 13.40625,4.544921 c -0.082366,0.01922 -0.1283961,0.03784 -0.1699219,0.05469 -0.083051,0.03369 -0.140731,0.0649 -0.2050781,0.09961 -0.1286941,0.06941 -0.2709275,0.155553 -0.4433594,0.263672 -0.3448637,0.216238 -0.800817,0.517643 -1.3378906,0.882813 -1.0741471,0.730338 -2.4673401,1.709988 -3.84765625,2.699218 -1.38031615,0.989231 -2.74578375,1.987436 -3.76562505,2.757813 -0.5099206,0.385188 -0.9322964,0.711919 -1.2363281,0.960937 -0.1520158,0.124509 -0.2706754,0.226862 -0.375,0.326172 -0.052162,0.04965 -0.09946,0.09166 -0.1660156,0.175781 -0.033278,0.04206 -0.073418,0.08769 -0.1289062,0.208985 -0.027744,0.06065 -0.062464,0.143246 -0.078125,0.283203 -0.00783,0.06998 0.00763,0.254781 0.00781,0.255859 1.872e-4,0.0011 0.1205703,0.319466 0.1210937,0.320313 0.2833469,0.458452 0.6032395,0.604248 1.0058594,0.818359 0.4026198,0.214111 0.8957323,0.423181 1.4765625,0.63086 1.1616602,0.415356 2.66911811,0.822903 4.359375,1.138671 3.3805137,0.631537 7.4693667,0.91174 10.8769541,-0.0293 0.877307,-0.242277 2.068949,-0.652437 3.107421,-1.046875 0.519236,-0.19722 0.996692,-0.390724 1.378907,-0.558594 0.191106,-0.08394 0.359131,-0.159784 0.503906,-0.234375 0.144774,-0.07459 0.241041,-0.108367 0.433594,-0.283203 6.58e-4,-5.98e-4 0.226219,-0.321434 0.226562,-0.322266 3.43e-4,-8.31e-4 0.06584,-0.229933 0.06836,-0.320312 0.005,-0.180759 -0.03426,-0.28268 -0.0625,-0.355469 -0.05649,-0.145578 -0.0982,-0.190594 -0.13086,-0.234375 -0.06532,-0.08756 -0.106228,-0.129608 -0.154297,-0.177735 -0.09614,-0.09625 -0.207232,-0.19475 -0.347656,-0.316406 C 17.20353,24.229344 16.810662,23.908477 16.333984,23.525391 15.380629,22.759218 14.096009,21.756431 12.785156,20.751953 11.474303,19.747475 10.139525,18.742469 9.0859375,17.970703 8.5591437,17.58482 8.1031077,17.256785 7.75,17.013672 7.5734461,16.892115 7.4236374,16.791493 7.2949219,16.710937 7.1662064,16.630382 7.1350362,16.580589 6.8691406,16.494141 6.5605662,16.39381 6.4495537,16.455394 6.3671875,16.474609 Z m 0.1933594,1.896485 c 0.060694,0.04051 0.1020151,0.0664 0.1757812,0.117187 0.3275979,0.22555 0.7724113,0.545897 1.2910157,0.925781 1.0372086,0.759769 2.3671292,1.759511 3.6699222,2.757813 1.302793,0.998302 2.580377,1.996427 3.515625,2.748047 0.196718,0.158094 0.299798,0.24703 0.46289,0.380859 -0.244209,0.09957 -0.456232,0.192168 -0.742187,0.300781 -0.997474,0.378867 -2.175366,0.780435 -2.949219,0.994141 -2.9521053,0.815251 -6.8626391,0.595705 -10.0722656,-0.0039 -1.60481329,-0.299806 -3.0388573,-0.690065 -4.0859375,-1.064453 -0.346065,-0.123737 -0.5688853,-0.234589 -0.8183594,-0.347657 0.2166941,-0.16918 0.3866602,-0.305558 0.6699219,-0.519531 C -1.3223508,23.904838 0.03504073,22.912397 1.40625,21.929693 2.7774593,20.94699 4.1645791,19.972622 5.21875,19.255865 5.7458355,18.897487 6.1905646,18.602233 6.5,18.408209 c 0.027631,-0.01732 0.035085,-0.02142 0.060547,-0.03711 z"
         id="path15"
         sodipodi:nodetypes="ccccccccccccccccccccccccccccccccccccssccccccccccccccccccsccccccsscscccccccccsscccccccccccccccccccccscssscccscccccccccccccccccccccccccccccccccsccsscccccccccccccsccssccccccccccsccccccccccccscccccccccsscssscccccccccccccccccccccccccccccccsccssccccsccsscccccccccccccccccccccccccccccccccccccsccssssssscccccccccccsssccccccccccccccssssccccscssccssccccccccccccccccccccsccssccccccccccsscccccccscscsccsscccccccccccccccccccccccsssccccccccccccccccccccccccccccsssccccccccccccccccccccsssssssssssssccccscsssccsssssssssssssscscccccscsssscccscsscccccccccccccccssssssssssssscccscccccccccccccccccccccssssscssssssssscccccccccccccscccscccccccccccscccssccccccccccccsccccccccccccccscccccccscccccccccscsssscccccccccscscccccccccccccccscccscccccccccsccccsccccssccsccccccccscccccccscccsscsccccccccccccccccsccssccccccccccscccccscssccssssssssssssscssssssssscsssssssssssssssscsssscssssss" /></g><g
       id="g15"><path
         style="font-size:14.1111px;line-height:0.9;font-family:'Ranked Sports';-inkscape-font-specification:'Ranked Sports';text-align:center;text-anchor:middle;stroke-width:0.889964"
         d="m 28.613523,27.582277 q -0.961754,0.47264 -1.77472,0.280675 -0.808512,-0.194154 -1.275274,-1.04271 l -0.230771,0.0029 -0.381118,-0.71928 1.478709,-0.793024 0.359313,0.66366 q 0.07229,0.135841 0.200266,0.238784 0.125792,0.09849 0.320943,0.113145 0.195149,0.01465 0.475661,-0.123199 0.280512,-0.137853 0.387983,-0.279115 0.105284,-0.145714 0.101747,-0.276645 -0.0035,-0.130931 -0.0473,-0.219982 l -0.01313,-0.02671 q -0.04376,-0.08905 -0.134316,-0.14958 -0.08829,-0.06717 -0.27891,-0.09511 -0.186168,-0.03013 -0.508026,-0.01015 -1.279211,0.175362 -2.009614,-0.08482 -0.725949,-0.262367 -1.139509,-1.103901 -0.297588,-0.605549 -0.218234,-1.175225 0.08162,-0.576316 0.461994,-1.039641 0.378187,-0.467777 0.974831,-0.760988 0.810366,-0.398243 1.642872,-0.144018 0.830318,0.249772 1.290668,1.062785 l 0.232882,0.01269 0.306722,0.567892 q -0.741237,0.347687 -1.484586,0.679828 L 27.212412,22.89776 q -0.160041,-0.280664 -0.456684,-0.37811 -0.298833,-0.101899 -0.579344,0.03595 -0.378468,0.185993 -0.437953,0.447398 -0.02249,0.04422 0.03222,0.155535 0.03939,0.08015 0.112281,0.127241 0.0486,0.03139 0.276951,0.05737 0.230618,0.01933 0.678954,-0.002 1.117265,-0.178694 1.856267,0.121482 0.741267,0.293534 1.163578,1.15288 0.286648,0.583286 0.234085,1.128739 -0.05475,0.541001 -0.401769,0.993461 -0.34702,0.45246 -0.941627,0.772311 z m 7.513079,-3.096446 -2.36523,0.855871 -0.492927,-1.362224 0.275244,-0.0996 -0.129768,-0.227394 -1.301576,0.470981 0.04579,0.257781 0.279909,-0.101286 0.492927,1.362223 -2.36523,0.85587 -0.492927,-1.362223 0.415198,-0.150242 -0.283489,-4.355636 -0.443189,0.16037 -0.494615,-1.366889 3.321585,-1.201932 0.494616,1.366889 -0.433859,0.156993 2.564746,3.530153 0.419863,-0.151929 z m -3.435364,-1.911942 -0.848369,-1.207226 0.134601,1.465506 z m 9.184471,0.505033 -1.587507,0.379464 -2.589463,-2.915992 0.463661,1.93975 0.685185,-0.16378 0.335635,1.404147 -2.788993,0.666656 -0.335636,-1.404147 0.535603,-0.128026 -0.97115,-4.062858 -0.535603,0.128026 -0.336788,-1.408973 2.166536,-0.51787 2.563548,2.978296 -0.475195,-1.988002 -0.685185,0.16378 -0.336789,-1.408972 2.788994,-0.666657 0.336789,1.408973 -0.540428,0.129179 z m 9.425317,-1.123396 -2.504292,0.235255 -0.135492,-1.442314 0.291426,-0.02738 -0.06858,-0.252675 -1.378102,0.12946 -0.02033,0.261027 0.296366,-0.02784 0.135492,1.442315 -2.504293,0.235255 -0.135492,-1.442315 0.43961,-0.04129 0.81807,-4.287505 -0.469246,0.04408 -0.135957,-1.447254 3.516877,-0.330378 0.135957,1.447255 -0.459368,0.04315 1.597314,4.060603 0.444548,-0.04176 z m -2.845985,-2.712495 -0.518448,-1.381424 -0.237285,1.452418 z m 8.761213,2.683248 -1.632229,-4.52e-4 -1.839645,-3.438609 -5.53e-4,1.994395 0.704488,1.95e-4 -4e-4,1.443704 -2.867562,-7.92e-4 3.99e-4,-1.443704 0.550692,1.52e-4 0.0012,-4.177314 -0.550692,-1.52e-4 4.02e-4,-1.448665 2.22757,6.17e-4 1.799941,3.493171 5.66e-4,-2.044007 -0.704488,-1.95e-4 4.02e-4,-1.448665 2.867562,7.92e-4 -4.01e-4,1.448665 -0.555652,-1.54e-4 z m 4.980735,0.468717 -2.92524,-0.262784 0.13006,-1.447796 0.568248,0.05105 0.373312,-4.155619 -0.375537,-0.03373 -0.327735,0.986715 -1.255086,-0.112749 0.224164,-2.495347 5.539179,0.497601 -0.224166,2.495349 -1.269909,-0.114081 -0.136745,-1.028441 -0.385421,-0.03463 -0.373312,4.155619 0.568248,0.05105 z m 4.136439,0.761998 q -0.5422,-0.09633 -1.017452,-0.427671 -0.469501,-0.335357 -0.789013,-0.890972 -0.314628,-0.554747 -0.410016,-1.322486 -0.08453,-0.715421 0.03045,-1.476018 0.126705,-0.713165 0.44359,-1.362308 0.317753,-0.654027 0.831017,-1.13223 0.482766,-0.44835 1.05544,-0.608627 0.577558,-0.159409 1.144182,-0.05874 0.566624,0.100668 1.057944,0.45502 0.497073,0.350333 0.811378,0.935257 0.319737,0.611081 0.393627,1.329651 0.07476,0.713685 -0.05195,1.42685 -0.134515,0.757126 -0.459756,1.42494 -0.36779,0.680409 -0.868904,1.090227 -0.49623,0.410685 -1.062284,0.562061 -0.566053,0.151376 -1.108254,0.05505 z m 0.327945,-1.760769 q 0.151425,0.0269 0.302628,-0.0017 0.156086,-0.02769 0.287526,-0.115199 0.345152,-0.241011 0.5241,-0.652639 0.184701,-0.415645 0.26541,-0.86992 0.07116,-0.400545 0.076,-0.853184 0.0097,-0.451772 -0.165186,-0.800295 -0.174906,-0.348524 -0.62224,-0.468311 -0.463499,-0.05716 -0.733645,0.187106 -0.265261,0.245127 -0.406546,0.643291 -0.136399,0.399031 -0.212446,0.798708 -0.05814,0.327274 -0.08611,0.654871 -0.02797,0.327596 0.02026,0.62338 0.04823,0.295784 0.207165,0.535654 0.225588,0.26179 0.543093,0.318199 z m 7.837531,3.599515 -1.571024,-0.442778 -0.838921,-3.808482 -0.541024,1.919611 0.678072,0.191108 -0.391636,1.389568 -2.760037,-0.777889 0.391636,-1.389569 0.530042,0.149387 1.133188,-4.020676 -0.530041,-0.149387 0.392982,-1.394344 2.144042,0.604277 0.785916,3.850242 0.554481,-1.967362 -0.678071,-0.191107 0.392983,-1.394344 2.760036,0.777889 -0.392982,1.394344 -0.534817,-0.150733 z m 3.436494,1.341871 -2.733203,-1.019563 0.506314,-1.357304 0.529906,0.19767 1.465189,-3.927817 -0.529908,-0.19767 0.506313,-1.357306 2.733205,1.019563 -0.506314,1.357305 -0.529911,-0.19767 -1.465186,3.927817 0.52991,0.19767 z m 2.471854,1.287712 Q 79.91024,27.388179 79.5403,26.942314 79.17697,26.494107 79.016834,25.8735 q -0.15565,-0.618471 -0.04327,-1.38391 0.108906,-0.712118 0.422143,-1.414692 0.311919,-0.653731 0.790124,-1.195138 0.480343,-0.545884 1.102361,-0.870257 0.584669,-0.303711 1.179346,-0.305811 0.599149,3.7e-5 1.118554,0.247864 0.519405,0.247826 0.898706,0.720147 0.385925,0.46998 0.533237,1.117453 0.145591,0.674134 0.02556,1.386456 -0.117862,0.707845 -0.429782,1.361575 -0.331144,0.694029 -0.822375,1.25121 -0.535591,0.558 -1.127698,0.819686 -0.587629,0.263822 -1.173551,0.259104 -0.585929,-0.0048 -1.082941,-0.241864 z m 0.784688,-1.610006 q 0.138809,0.06623 0.292155,0.07893 0.157832,0.01484 0.307815,-0.03453 0.396848,-0.14047 0.678879,-0.489634 0.288655,-0.351505 0.487342,-0.767923 0.175184,-0.367164 0.300305,-0.802195 0.129592,-0.432894 0.05372,-0.815396 -0.07585,-0.382502 -0.475174,-0.617011 -0.431582,-0.178437 -0.756988,-0.01488 -0.320927,0.165698 -0.563075,0.511907 -0.237669,0.348345 -0.417333,0.713372 -0.143143,0.3 -0.257283,0.60834 -0.114133,0.30834 -0.146362,0.606293 -0.03218,0.297952 0.05717,0.571469 0.147788,0.312383 0.438833,0.451251 z"
         id="text10"
         aria-label="san antonio" /><path
         style="fill:#666666;stroke-width:0.959536"
         d="M 51.261997,90.816717 C 42.222426,89.864523 33.895686,85.280818 28.433878,78.250296 21.011682,68.69635 19.26572,56.36124 23.750304,45.161171 c 2.140812,-5.346584 6.176948,-10.5443 11.029844,-14.204173 2.747171,-2.07182 7.845389,-4.428501 11.421744,-5.442348 5.066064,-1.436159 10.804839,-1.365386 16.149657,-0.150323 12.302733,2.796842 21.295047,12.153075 24.499754,24.448406 0.907712,3.482559 1.127781,9.520706 0.486734,13.354474 -1.542272,9.223436 -6.957357,17.442428 -14.859839,22.554186 -6.080889,3.93345 -14.058291,5.849324 -21.216201,5.095324 z m 8.874377,-10.264546 c 1.65116,-0.455983 4.735282,-1.627619 5.059615,-1.92211 0.168667,-0.153146 -10.049876,-7.983584 -10.689982,-8.191697 -0.300268,-0.09763 -11.22337,7.730707 -11.08939,7.947504 0.719566,1.164249 10.360065,3.92259 16.719757,2.166303 z m 11.761199,-7.001908 c 1.214235,-1.274394 3.426571,-4.687808 4.224118,-6.517394 1.495706,-3.431175 2.281979,-8.734776 1.772369,-11.955039 l -0.211376,-1.335714 -5.585297,3.962579 c -3.071917,2.179419 -5.677087,4.048993 -5.789266,4.15461 -0.11218,0.105617 0.193672,1.436913 0.679658,2.958436 0.485986,1.521523 1.414309,4.458639 2.062946,6.526924 1.309009,4.173979 1.11477,4.023489 2.846848,2.205598 z M 40.743752,68.212913 42.90149,61.811836 42.139858,61.203617 C 41.720963,60.869098 39.150452,58.94523 36.427614,56.928356 l -4.950603,-3.667043 -0.171594,1.068361 c -0.09442,0.587598 -0.17855,2.153686 -0.187071,3.480195 -0.02811,4.387713 1.29594,8.955076 3.623487,12.498832 1.288341,1.96154 3.450579,4.548544 3.682115,4.40545 0.08914,-0.05509 1.13305,-2.980646 2.319804,-6.501238 z M 76.032483,48.281029 c 0,-0.07446 -0.301198,-0.731365 -0.669324,-1.459795 -2.849535,-5.638452 -8.57148,-10.175151 -14.936065,-11.842192 -2.648646,-0.693748 -3.011111,-0.687854 -2.78823,0.04534 0.266194,0.8757 3.392277,10.821457 3.830258,12.186112 l 0.387038,1.205918 h 7.088162 c 3.89849,0 7.088161,-0.06092 7.088161,-0.135379 z M 49.79643,41.310876 52.121578,34.453154 h -0.697803 c -1.298023,0 -4.702525,1.015122 -6.853901,2.043628 -2.693572,1.287715 -4.765949,2.768512 -6.87287,4.910943 -1.979802,2.013167 -4.73986,6.238912 -4.266185,6.531664 0.17216,0.106397 3.401691,0.201495 7.176737,0.211328 l 6.863726,0.01788 z"
         id="path11"
         sodipodi:nodetypes="sssssssssssssssssscsssssscsscccsssssssscsssccssssscc" /><path
         d="M 9.9523031,73.660306 Q 8.1721485,74.588593 6.640911,74.265453 5.117916,73.938012 4.205704,72.369606 l -0.4320945,0.01567 -0.7460193,-1.330111 2.7340418,-1.5515 0.7026888,1.226916 q 0.1414691,0.251189 0.3857782,0.438265 0.240012,0.178836 0.6061742,0.197545 0.3661621,0.0187 0.8853741,-0.252041 0.5192117,-0.270751 0.7141766,-0.54014 0.1906667,-0.277628 0.1781796,-0.522698 -0.012489,-0.245068 -0.09844,-0.409898 l -0.025786,-0.04944 Q 9.0238245,69.427349 8.8515132,69.318035 8.6831462,69.196183 8.3248715,69.152394 7.9748376,69.104304 7.3729099,69.156094 4.9848628,69.541811 3.6052093,69.087214 2.2337963,68.628316 1.4215428,67.07068 0.83706457,65.949843 0.96018597,64.879315 1.0872509,63.79625 1.7789295,62.911437 2.46631,62.018382 3.5706659,61.442499 q 1.499945,-0.78217 3.0705685,-0.343293 1.5663259,0.430636 2.4649375,1.932757 l 0.436745,0.01337 0.5999001,1.049901 Q 8.7700833,64.779615 7.3926993,65.434978 L 7.1183573,64.949102 Q 6.8060458,64.430597 6.2460837,64.261368 5.6818245,64.083896 5.1626122,64.354648 4.462089,64.719947 4.362379,65.212209 q -0.040146,0.08383 0.067296,0.289866 0.077359,0.148346 0.2159956,0.233289 0.09243,0.05663 0.5212833,0.09506 0.4328018,0.02589 1.2715569,-0.03412 2.0845801,-0.384707 3.4821323,0.144419 1.4014969,0.516589 2.2309399,2.10719 0.562991,1.079631 0.488964,2.103591 -0.07832,1.01572 -0.708016,1.878691 -0.629689,0.862971 -1.72904,1.488657 z M 27.98133,66.45077 l -5.208237,1.716709 -0.855444,-2.595292 1.015164,-0.334611 -0.675044,-2.047986 -2.692394,0.887452 0.675044,2.047984 1.015165,-0.334614 0.855445,2.595293 -5.217065,1.719617 -0.855444,-2.59529 1.006338,-0.331704 -2.464496,-7.476911 -1.006338,0.331704 -0.855443,-2.595291 5.217064,-1.719617 0.855445,2.59529 -1.015165,0.334613 0.741966,2.251018 2.692394,-0.887452 -0.741967,-2.251017 -1.015165,0.334612 -0.855443,-2.595289 5.208236,-1.71671 0.855445,2.595291 -1.006337,0.331704 2.464494,7.476908 1.006337,-0.331701 z m 12.881808,-2.33409 -9.058759,1.506408 -0.446739,-2.686454 1.045242,-0.173817 -1.292949,-7.775128 -1.045242,0.173816 -0.446738,-2.686454 9.058759,-1.506407 0.756253,4.547717 -2.796479,0.465034 -0.309515,-1.861264 -1.897938,0.315615 0.368979,2.218846 3.019579,-0.48329 0.548893,3.300761 -3.019579,0.48329 0.375077,2.255522 1.897938,-0.315614 -0.320187,-1.925445 2.796478,-0.465034 z m 14.156754,-0.642158 -3.744564,0.09465 -1.374999,-4.372338 -0.901532,0.01349 0.04298,1.700386 1.049965,-0.02654 0.06858,2.713183 -5.463535,0.138098 -0.06858,-2.713183 1.059257,-0.02677 -0.198457,-7.851508 -1.059258,0.02677 -0.06882,-2.722476 5.463536,-0.138099 q 1.365882,-0.03452 2.364663,0.488793 1.007837,0.51379 1.562127,1.476034 0.554049,0.952953 0.586932,2.253793 0.02681,1.059259 -0.350223,1.961362 -0.367702,0.90187 -1.039084,1.560379 l 0.915298,2.73827 1.087129,-0.02748 z M 49.992321,55.84735 q 0.53892,-0.01362 0.792278,-0.289658 0.226421,-0.238165 0.213269,-0.758501 -0.0141,-0.557504 -0.282245,-0.866846 -0.258862,-0.309577 -0.807074,-0.295721 l -1.049965,0.02654 0.0559,2.21143 z m 14.092926,8.442526 -5.441113,-0.513359 0.254931,-2.702052 1.054914,0.09953 0.737734,-7.819291 -1.054914,-0.09953 0.25494,-2.702051 5.441112,0.51336 -0.254931,2.702052 -1.054914,-0.09953 -0.737733,7.819291 1.054906,0.09953 z m 9.218472,1.616972 -5.346445,-1.133471 0.562877,-2.65504 1.036558,0.219754 1.628885,-7.683248 -1.032705,-0.23794 0.559025,-2.636854 9.092604,1.927674 -0.967688,4.564486 -2.673229,-0.566736 0.359351,-1.919085 -2.054927,-0.435654 -0.491561,2.318612 3.109674,0.659266 -0.690108,3.25515 -3.109674,-0.659264 -0.447215,2.109484 1.027464,0.217827 z m 12.290298,3.647053 -5.147552,-1.836297 0.911897,-2.556268 0.998,0.356016 2.63889,-7.397417 -0.991745,-0.373525 0.905658,-2.538759 8.754339,3.122952 -1.567726,4.39468 -2.573772,-0.918149 0.612045,-1.854025 -1.978479,-0.705789 -0.796349,2.232358 2.99398,1.06805 -1.118013,3.134054 -2.993985,-1.06805 -0.724523,2.031007 0.989239,0.352894 z m 10.595245,5.036632 q -1.772867,-0.942136 -2.373169,-2.387387 -0.592083,-1.44089 0.184585,-3.080651 l -0.257491,-0.347346 0.674287,-1.367875 2.826547,1.375776 -0.61374,1.273743 q -0.127006,0.2588 -0.142943,0.566096 -0.0113,0.299095 0.18024,0.611541 0.191821,0.312453 0.708907,0.587243 0.517095,0.27479 0.849525,0.283042 0.336802,4.8e-5 0.531755,-0.148962 0.194981,-0.149006 0.282219,-0.31316 l 0.02621,-0.04926 q 0.08729,-0.164154 0.07988,-0.368079 0.0049,-0.207771 -0.161529,-0.527916 -0.158479,-0.315785 -0.541895,-0.782682 -1.669651,-1.750381 -2.075782,-3.145074 -0.397913,-1.390332 0.426449,-2.941591 0.593199,-1.116248 1.545427,-1.620677 0.964796,-0.508273 2.085726,-0.438868 1.1253,0.0612 2.22512,0.64567 1.49381,0.793837 2.02099,2.337065 0.53153,1.53502 -0.19818,3.12605 l 0.23619,0.367608 -0.52598,1.088812 q -1.34122,-0.74431 -2.66111,-1.508881 l 0.24528,-0.501186 q 0.25069,-0.550949 0.0733,-1.108368 -0.17307,-0.565625 -0.69015,-0.840414 -0.69766,-0.370748 -1.159905,-0.174322 -0.0919,0.01435 -0.20088,0.219544 -0.0785,0.147739 -0.07,0.310112 0.006,0.108248 0.21669,0.483547 0.223615,0.371455 0.747845,1.028956 1.49703,1.500776 1.85186,2.952408 0.36738,1.447785 -0.47443,3.031874 -0.57139,1.075211 -1.45744,1.593752 -0.881685,0.51034 -1.949531,0.47968 -1.067842,-0.0307 -2.205899,-0.58283 z"
         id="text11"
         style="font-size:25.595px;line-height:1;font-family:'Ranked Sports';-inkscape-font-specification:'Ranked Sports';text-align:center;letter-spacing:4.31883px;text-anchor:middle;stroke-width:1.66732"
         aria-label="SHERIFFS" /></g></g></svg>
