<?xml version="1.0" encoding="UTF-8" standalone="no"?>
<!-- Created with Inkscape (http://www.inkscape.org/) -->

<svg
   width="105.83334mm"
   height="105.83334mm"
   viewBox="0 0 105.83333 105.83333"
   version="1.1"
   id="svg1"
   xml:space="preserve"
   inkscape:version="1.4 (e7c3feb100, 2024-10-09)"
   sodipodi:docname="san_francisco.svg"
   inkscape:export-filename="../pngs/sacramento.png"
   inkscape:export-xdpi="96"
   inkscape:export-ydpi="96"
   xmlns:inkscape="http://www.inkscape.org/namespaces/inkscape"
   xmlns:sodipodi="http://sodipodi.sourceforge.net/DTD/sodipodi-0.dtd"
   xmlns="http://www.w3.org/2000/svg"
   xmlns:svg="http://www.w3.org/2000/svg"><sodipodi:namedview
     id="namedview1"
     pagecolor="#ffffff"
     bordercolor="#000000"
     borderopacity="0.25"
     inkscape:showpageshadow="2"
     inkscape:pageopacity="0.0"
     inkscape:pagecheckerboard="0"
     inkscape:deskcolor="#d1d1d1"
     inkscape:document-units="mm"
     inkscape:zoom="1.5147406"
     inkscape:cx="216.53873"
     inkscape:cy="225.78123"
     inkscape:window-width="1920"
     inkscape:window-height="1011"
     inkscape:window-x="0"
     inkscape:window-y="32"
     inkscape:window-maximized="1"
     inkscape:current-layer="layer1"
     showgrid="false"
     showguides="true" /><defs
     id="defs1" /><g
     inkscape:label="Capa 1"
     inkscape:groupmode="layer"
     id="layer1"><g
       id="g10"><path
         style="fill:#ffc72c;fill-opacity:1"
         d="M 99.292187,52.916672 A 46.375515,46.375515 0 0 1 52.916672,99.292187 46.375515,46.375515 0 0 1 6.5411567,52.916672 46.375515,46.375515 0 0 1 52.916672,6.5411567 46.375515,46.375515 0 0 1 99.292187,52.916672 Z"
         id="path8" /><path
         style="fill:#1d428a;fill-opacity:1"
         d="m 52.91667,1.4791696 c -28.348198,0 -51.4375004,23.0893024 -51.4375004,51.4375004 0,28.348197 23.0893024,51.4375 51.4375004,51.4375 28.348197,0 51.4375,-23.089303 51.4375,-51.4375 0,-28.348198 -23.089303,-51.4375004 -51.4375,-51.4375004 z m 0,10.1250004 c 22.876782,0 41.314453,18.435718 41.314453,41.3125 0,22.876782 -18.437671,41.314453 -41.314453,41.314453 -22.876782,0 -41.3125,-18.437671 -41.3125,-41.314453 0,-22.876782 18.435718,-41.3125 41.3125,-41.3125 z"
         id="path9" /><text
         xml:space="preserve"
         style="font-size:82.1012px;line-height:1;font-family:'Fifties Movies';-inkscape-font-specification:'Fifties Movies';text-align:center;letter-spacing:-5.59109px;writing-mode:lr-tb;direction:ltr;text-anchor:middle;fill:#1d428a;fill-opacity:1;stroke:#ffd42a;stroke-width:78.5382;stroke-dasharray:none"
         x="52.641781"
         y="85.199364"
         id="text9"><tspan
           sodipodi:role="line"
           id="tspan9"
           style="font-style:normal;font-variant:normal;font-weight:normal;font-stretch:normal;font-family:'Ranked Sports';-inkscape-font-specification:'Ranked Sports';letter-spacing:-5.59109px;fill:#1d428a;fill-opacity:1;stroke:none;stroke-width:78.5382"
           x="49.846233"
           y="85.199364">SF</tspan></text><path
         style="fill:#ffc72c;fill-opacity:1;stroke:none;stroke-width:10.124;stroke-dasharray:none"
         d="m 48.55892,19.388633 -2.445415,20.611339 5.240172,-1.921396 -3.144104,14.497808 3.318777,4.192136 -6.288207,32.838406 7.33624,3.144102 6.812222,-44.890798 -6.113532,2.270741 5.065498,-18.864618 -7.860256,1.746724 0.349344,-13.449772 z"
         id="path10"
         sodipodi:nodetypes="ccccccccccccc" /><rect
         style="fill:#ffc72c;fill-opacity:1;fill-rule:evenodd;stroke-width:0.248133"
         id="rect10"
         width="8.3842735"
         height="12.751082"
         x="69.5196"
         y="72.314362"
         ry="0.025934808" /></g></g></svg>
