<?xml version="1.0" encoding="UTF-8" standalone="no"?>
<!-- Created with Inkscape (http://www.inkscape.org/) -->

<svg
   width="105.83334mm"
   height="105.83334mm"
   viewBox="0 0 105.83333 105.83333"
   version="1.1"
   id="svg1"
   xml:space="preserve"
   inkscape:version="1.4.2 (ebf0e940d0, 2025-05-08)"
   sodipodi:docname="seattle.svg"
   inkscape:export-filename="../pngs/montreal.png"
   inkscape:export-xdpi="96"
   inkscape:export-ydpi="96"
   xmlns:inkscape="http://www.inkscape.org/namespaces/inkscape"
   xmlns:sodipodi="http://sodipodi.sourceforge.net/DTD/sodipodi-0.dtd"
   xmlns="http://www.w3.org/2000/svg"
   xmlns:svg="http://www.w3.org/2000/svg"><sodipodi:namedview
     id="namedview1"
     pagecolor="#ffffff"
     bordercolor="#000000"
     borderopacity="0.25"
     inkscape:showpageshadow="2"
     inkscape:pageopacity="0.0"
     inkscape:pagecheckerboard="0"
     inkscape:deskcolor="#d1d1d1"
     inkscape:document-units="mm"
     inkscape:zoom="0.55617174"
     inkscape:cx="614.01897"
     inkscape:cy="-231.94275"
     inkscape:window-width="1920"
     inkscape:window-height="1011"
     inkscape:window-x="0"
     inkscape:window-y="32"
     inkscape:window-maximized="1"
     inkscape:current-layer="layer1"
     showgrid="false" /><defs
     id="defs1" /><g
     inkscape:label="Capa 1"
     inkscape:groupmode="layer"
     id="layer1"><g
       id="g1"
       transform="translate(0.23155754,3.5672555)"><path
         style="fill:#fdd013;fill-opacity:1;stroke:none;stroke-width:2.20523;stroke-dasharray:none"
         d="m 41.838584,33.856632 17.167347,29.73472 10.432095,10.949355 29.765718,-51.79288 -60.399151,-1.725114 0.327202,6.30831 z"
         id="path63" /><g
         id="path60-9"
         style="fill:#ffffff;fill-opacity:1"
         transform="matrix(0.92618147,-0.53473112,0.53473112,0.92618147,-46.473456,98.98851)"><path
           d="M 102.96166,27.921148 V 17.813167 l 6.5033,0.01174 c 3.57681,0.0065 6.40296,0.05003 6.28033,0.09683 -0.12264,0.04681 -2.26315,0.782467 -4.7567,1.6348 -2.49355,0.852332 -4.58471,1.598886 -4.64703,1.659007 -0.0623,0.06012 -0.0958,2.621726 -0.0743,5.692456 l 0.039,5.583147 3.04726,-1.783629 c 1.67599,-0.980994 5.355,-3.134067 8.17557,-4.784605 2.82057,-1.650537 11.01473,-6.446552 18.20923,-10.657809 7.1945,-4.211259 13.69966,-8.0112435 14.4559,-8.4444115 0.75624,-0.433169 1.37499,-0.835507 1.37499,-0.894085 0,-0.05857 -0.81942,-0.578848 -1.82093,-1.156155 -3.08023,-1.775555 -13.59113,-7.924721 -29.02329,-16.9794185 -1.71687,-1.00736 -5.46277,-3.199237 -8.32422,-4.870837 -2.86145,-1.6716 -5.42083,-3.172859 -5.68751,-3.336132 l -0.48489,-0.296863 0.0389,5.682511 0.0389,5.6825105 0.74324,0.275555 c 0.40878,0.151555 2.58273,0.907384 4.83102,1.679618 l 4.08778,1.404063 -6.50329,0.0091 -6.5033,0.0091 V -16.078248 c 0,-5.55939 0.0305,-10.10798 0.0678,-10.10798 0.0373,0 1.05735,0.590185 2.26686,1.311523 1.20952,0.721337 2.53358,1.500299 2.94236,1.731025 0.67497,0.380975 2.03615,1.176008 6.61478,3.863549 0.85843,0.503881 2.86516,1.677481 4.4594,2.608002 1.59424,0.930521 4.20299,2.458287 5.79723,3.395032 1.59423,0.936747 4.67122,2.739064 6.83775,4.0051445 5.77361,3.374005 16.31024,9.55689703 20.6619,12.124395 2.08477,1.230025 4.10765,2.407026 4.49531,2.615559 0.38765,0.208533 0.70394,0.412595 0.70286,0.453472 -0.001,0.04087 -0.48546,0.348268 -1.07644,0.683087 -1.04095,0.589766 -5.21591,3.032275 -14.15539,8.2814285 -4.72993,2.77736 -13.52649,7.930858 -16.79708,9.840632 -1.14458,0.668348 -3.48577,2.040397 -5.20264,3.048998 -1.71687,1.008601 -3.48948,2.046249 -3.93914,2.305884 -0.44966,0.259637 -1.82092,1.060749 -3.04726,1.780251 -1.22634,0.7195 -3.23307,1.891707 -4.4594,2.604901 -1.22634,0.713194 -3.08934,1.806524 -4.14001,2.429621 -1.05067,0.623097 -1.93698,1.132903 -1.96957,1.132903 -0.0326,0 -0.0593,-4.548591 -0.0593,-10.107981 z M 90.157187,13.529532 c -1.850972,-0.873351 -3.34832,-1.606762 -3.327437,-1.629802 0.02087,-0.02305 3.893222,-0.03871 8.605202,-0.03486 l 8.567238,0.0071 V 10.9778 10.083612 H 93.423805 82.845421 l -3.394301,-1.5979545 -3.394301,-1.597952 11.222719,-0.0381 11.22272,-0.0381 v -0.892478 -0.892482 l -13.192401,0.0054 -13.192401,0.0054 -3.406822,-1.601784 -3.406821,-1.601785 13.930976,-0.03793 13.930977,-0.03793 -0.04455,-0.85395597 -0.04455,-0.853955 -15.863678,-0.0352 -15.863681,-0.03521 -3.237432,-1.51478103 c -1.780584,-0.833301 -3.302568,-1.571577 -3.382186,-1.640786 -0.07961,-0.0692 15.63978,-0.107118 34.931993,-0.08425 l 35.076758,0.04159 1.13776,0.323847 c 1.99053,0.566575 3.54461,1.52993 3.54461,2.19726103 0,0.370049 0.3236,0.518827 1.13615,0.522358 0.86,0.0037 3.83937,0.850655 4.93692,1.40337597 2.15105,1.083249 3.14303,2.441672 3.14303,4.304081 0,1.218494 -0.33758,2.69823 -0.84653,3.710721 -0.32919,0.654867 -0.38484,0.700335 -0.6125,0.500422 -0.35901,-0.315253 -1.44025,-0.840242 -2.23952,-1.087377 -0.85119,-0.263188 -2.81181,-0.433421 -3.37213,-0.292788 -0.38626,0.09695 -0.3432,0.130835 0.57295,0.450963 1.02421,0.357889 2.74732,1.4781515 3.14342,2.0436775 0.12424,0.177372 0.21071,0.335475 0.19215,0.351339 -0.0185,0.01587 -0.7361,-0.106309 -1.59454,-0.271499 -1.95311,-0.375832 -6.20083,-0.445438 -7.80395,-0.127882 -2.55206,0.505528 -5.38934,1.700927 -8.12544,3.423395 L 116.5145,15.13748 105.01855,15.12733 93.522609,15.11728 Z"
           id="path61"
           style="fill:#ffffff;fill-opacity:1" /><path
           style="fill:#ffffff;fill-opacity:1"
           d="m 103.0293,-27.216797 c -1.5e-4,0 -0.7108,0.285018 -0.71094,0.285156 -1.5e-4,1.39e-4 -0.20298,0.267302 -0.20313,0.267579 -2.9e-4,5.53e-4 -0.073,0.176837 -0.084,0.21875 -0.022,0.08383 -0.0239,0.112294 -0.0273,0.138671 -0.007,0.05275 -0.008,0.0769 -0.01,0.105469 -0.004,0.05713 -0.007,0.114195 -0.01,0.1875 -0.005,0.14661 -0.008,0.349775 -0.0117,0.609375 -0.008,0.519201 -0.0153,1.261903 -0.0215,2.179688 -0.0123,1.835568 -0.0215,4.364904 -0.0215,7.146484 V -4.9375 l 7.53711,-0.011719 6.50195,-0.00781 0.33398,-2.0058594 -4.08789,-1.4042969 c -2.24593,-0.7714231 -4.46738,-1.546097 -4.80664,-1.6718757 l -0.0762,-0.02734 -0.0332,-4.970703 -0.0273,-3.857422 c 0.90106,0.532737 2.29665,1.354028 4.60938,2.705078 2.86089,1.671275 6.60694,3.862685 8.32227,4.86914 15.43267,9.0550004 25.93596,15.201267 29.02929,16.9843757 0.17375,0.1001559 0.28462,0.171368 0.44336,0.265625 -0.80453,0.4608922 -7.26703,4.2355413 -14.45898,8.4453123 -7.19448,4.211243 -15.38857,9.007755 -18.20899,10.658203 -2.8206,1.650556 -6.4997,3.804111 -8.17578,4.785156 l -1.50586,0.88086 -0.0273,-3.798828 c -0.0107,-1.529609 -0.007,-2.933571 0.006,-3.955079 0.006,-0.427283 0.0128,-0.73901 0.0215,-1.009765 0.21814,-0.08067 0.44772,-0.164968 0.77344,-0.28125 0.83582,-0.298391 1.97959,-0.698149 3.22266,-1.123047 1.24724,-0.426326 2.40659,-0.822564 3.26953,-1.119141 0.43147,-0.148288 0.78882,-0.272055 1.04687,-0.361328 0.25805,-0.08927 0.35101,-0.118838 0.47461,-0.166015 0.041,-0.01566 0.17128,-0.08362 0.17188,-0.08398 3e-4,-1.82e-4 0.13846,-0.10138 0.13867,-0.101562 2.1e-4,-1.83e-4 0.18347,-0.208802 0.18359,-0.208985 1.2e-4,-1.82e-4 0.15622,-0.390442 0.15625,-0.390625 3e-5,-1.82e-4 -0.0292,-0.484192 -0.0293,-0.484375 -6e-5,-1.82e-4 -0.17759,-0.337708 -0.17774,-0.33789 -1.4e-4,-1.82e-4 -0.17359,-0.171693 -0.17383,-0.171875 -4.6e-4,-3.64e-4 -0.1658,-0.108148 -0.21679,-0.13086 -0.051,-0.02271 -0.0861,-0.03389 -0.11524,-0.04297 -0.0583,-0.01815 -0.0918,-0.02591 -0.11914,-0.03125 -0.10951,-0.02134 -0.14118,-0.01935 -0.19336,-0.02344 -0.10436,-0.0082 -0.22418,-0.01391 -0.38281,-0.01953 -0.31726,-0.01125 -0.77483,-0.02047 -1.34766,-0.0293 -1.14565,-0.01766 -2.74892,-0.0319 -4.54101,-0.03516 l -7.53711,-0.01172 v 10.941406 0.199219 c 0,2.781346 0.007,5.309401 0.0176,7.144531 0.005,0.917565 0.0124,1.66123 0.0195,2.179688 0.004,0.259229 0.008,0.460288 0.0117,0.605468 0.002,0.07259 0.005,0.129264 0.008,0.183594 0.002,0.02717 0.002,0.05021 0.008,0.09766 0.003,0.02372 0.002,0.04785 0.0195,0.123047 0.009,0.0376 0.0701,0.202572 0.0703,0.203125 1.3e-4,2.77e-4 0.17761,0.26744 0.17774,0.267578 1.3e-4,1.39e-4 0.75964,0.333985 0.75976,0.333985 2.6e-4,0 0.17543,-0.01556 0.17579,-0.01563 3.5e-4,-6.2e-5 0.0686,-0.01331 0.0918,-0.01953 0.0464,-0.01244 0.0726,-0.02346 0.0937,-0.03125 0.0422,-0.01559 0.064,-0.025 0.082,-0.0332 0.0361,-0.01641 0.0571,-0.02721 0.0801,-0.03906 0.046,-0.0237 0.0917,-0.04871 0.14844,-0.08008 0.11352,-0.06274 0.26388,-0.147594 0.44531,-0.251953 0.36286,-0.20872 0.84833,-0.49314 1.37696,-0.806641 1.04587,-0.620254 2.91004,-1.714667 4.13281,-2.425781 1.22819,-0.71428 3.2347,-1.884882 4.46289,-2.605469 1.22511,-0.718781 2.60062,-1.523058 3.04101,-1.777344 0.4637,-0.267739 2.2275,-1.301388 3.94532,-2.310547 1.71601,-1.0081 4.05851,-2.379649 5.20117,-3.046875 3.27289,-1.911115 12.0678,-7.063794 16.79883,-9.841796 8.93903,-5.248894 13.13516,-7.7026743 14.14257,-8.2734377 0.30811,-0.1745548 0.58631,-0.3411766 0.80274,-0.4785156 0.10821,-0.06867 0.19882,-0.1286997 0.28515,-0.1914063 0.0432,-0.031353 0.0829,-0.060078 0.14454,-0.1152343 0.0308,-0.027578 0.0667,-0.057269 0.12695,-0.1308594 0.0301,-0.036795 0.0685,-0.085073 0.11523,-0.171875 0.0234,-0.043401 0.048,-0.09749 0.0723,-0.171875 0.0241,-0.073906 0.0504,-0.2895284 0.0508,-0.2929688 v -0.00195 c -9e-5,-0.00335 -0.006,-0.1578815 -0.0176,-0.2207031 -0.0121,-0.063374 -0.0286,-0.1171712 -0.0449,-0.1621094 -0.0327,-0.089876 -0.0666,-0.1484592 -0.0957,-0.1953125 -0.0581,-0.093706 -0.10015,-0.1389406 -0.13477,-0.1757812 -0.0692,-0.073681 -0.11156,-0.1064004 -0.15234,-0.1386719 -0.0816,-0.064543 -0.15014,-0.1122342 -0.23047,-0.1640625 -0.16066,-0.1036567 -0.354,-0.2147639 -0.56836,-0.3300781 -0.28008,-0.1506601 -2.37964,-1.3677297 -4.46094,-2.5957032 -4.35506,-2.56950814 -14.8885,-8.7518084 -20.66406,-12.126953 -2.16568,-1.265582 -5.24328,-3.068082 -6.83594,-4.003907 -1.59564,-0.93757 -4.20512,-2.465136 -5.80078,-3.396484 -1.59359,-0.930145 -3.60081,-2.10484 -4.45703,-2.607422 -4.57901,-2.687764 -5.93595,-3.479968 -6.62891,-3.871094 -0.37365,-0.210901 -1.7162,-0.999707 -2.92187,-1.71875 -0.60803,-0.362618 -1.16727,-0.692496 -1.58399,-0.933593 -0.20835,-0.120549 -0.38059,-0.219191 -0.50976,-0.291016 -0.0646,-0.03591 -0.11762,-0.06372 -0.16797,-0.08984 -0.0252,-0.01306 -0.0486,-0.02587 -0.0859,-0.04297 -0.0187,-0.0085 -0.0394,-0.01732 -0.082,-0.0332 -0.0213,-0.0079 -0.047,-0.01861 -0.0937,-0.03125 -0.0234,-0.0063 -0.0528,-0.01237 -0.0937,-0.01953 -0.041,-0.0072 -0.17744,-0.01563 -0.17773,-0.01563 z m 0.99414,2.791016 c 0.25424,0.149769 0.45752,0.266563 0.74414,0.4375 1.21336,0.723631 2.52094,1.491637 2.96484,1.742187 0.65699,0.370825 2.02136,1.168151 6.59961,3.855469 0.86064,0.50518 2.86605,1.678478 4.46094,2.609375 1.59282,0.929694 4.20209,2.456659 5.79492,3.392578 1.5958,0.937669 4.67246,2.7412333 6.83984,4.0078126 5.77166,3.3728653 16.30995,9.555606 20.65821,12.1210938 1.73364,1.0228584 2.97255,1.7394165 3.76172,2.1875 -1.20616,0.6873713 -5.09003,2.9580993 -13.79297,8.0683596 -4.72884,2.776717 -13.52663,7.931411 -16.79492,9.839843 -1.14651,0.669471 -3.48736,2.041681 -5.20508,3.050782 -1.71592,1.008043 -3.49797,2.051203 -3.9336,2.302734 -0.45892,0.264989 -1.82516,1.062981 -3.05273,1.783203 -1.22449,0.718413 -3.23257,1.891408 -4.45703,2.603516 -1.22992,0.715274 -3.09102,1.807653 -4.14649,2.433594 -0.17082,0.101304 -0.28435,0.166259 -0.44336,0.259765 -0.004,-0.393706 -0.009,-0.700999 -0.0117,-1.214844 -0.0104,-1.77843 -0.0172,-4.248236 -0.0176,-6.935546 v -0.197266 -9.076172 l 5.4707,0.0098 c 0.15522,2.82e-4 0.24037,0.0015 0.39258,0.002 -0.89646,0.30923 -1.80913,0.626953 -2.44922,0.855469 -0.42436,0.151499 -0.7716,0.277512 -1.02539,0.373046 -0.1269,0.04777 -0.22977,0.08644 -0.31445,0.121094 -0.0423,0.01733 -0.0784,0.03397 -0.12305,0.05469 -0.0223,0.01036 -0.0462,0.02038 -0.084,0.04102 -0.0378,0.02064 -0.0692,0.01053 -0.23438,0.169922 v 0.002 c -4.9e-4,4.7e-4 -0.12703,0.144197 -0.16016,0.197266 -0.0331,0.05307 -0.0529,0.09428 -0.0684,0.128906 -0.0309,0.06926 -0.0428,0.113069 -0.0527,0.148438 -0.0199,0.07074 -0.0257,0.107834 -0.0312,0.142578 -0.0112,0.06949 -0.0149,0.118616 -0.0195,0.173828 -0.009,0.110424 -0.0173,0.236086 -0.0234,0.392578 -0.0122,0.312984 -0.0205,0.740715 -0.0273,1.261719 -0.0136,1.042007 -0.0166,2.454973 -0.006,3.996094 l 0.0508,7.365234 4.58789,-2.683594 c 1.6759,-0.980942 5.35524,-3.134636 8.17578,-4.785156 2.82072,-1.650626 11.01446,-6.446932 18.20899,-10.658203 7.19402,-4.21098 13.7349,-8.0314161 14.44726,-8.4394533 0.39235,-0.2247347 0.74652,-0.4396607 1.01953,-0.6171875 0.13651,-0.088763 0.25099,-0.1652431 0.35547,-0.2441406 0.0522,-0.039449 0.0993,-0.075521 0.16797,-0.140625 0.0343,-0.032552 0.0753,-0.070718 0.13672,-0.1523437 0.0307,-0.040813 0.0681,-0.091483 0.11133,-0.1816407 0.0216,-0.045079 0.0442,-0.1009829 0.0644,-0.1738281 0.0202,-0.072845 0.0371,-0.2783816 0.0371,-0.2792969 0,-4.575e-4 -0.0175,-0.1967518 -0.0176,-0.1972656 -1e-4,-5.137e-4 -0.0248,-0.1036402 -0.0391,-0.1445312 -0.0285,-0.081782 -0.0582,-0.1373442 -0.084,-0.1816407 -0.0515,-0.088593 -0.09,-0.1342858 -0.12109,-0.1699218 -0.0621,-0.071272 -0.099,-0.1017679 -0.13281,-0.1308594 -0.0676,-0.058183 -0.11958,-0.095747 -0.17969,-0.1386719 -0.12022,-0.08585 -0.2633,-0.1804136 -0.4375,-0.2910156 -0.34839,-0.2212041 -0.81277,-0.5001026 -1.32422,-0.7949219 -3.06712,-1.7680012 -13.58593,-7.920214 -29.01758,-16.9746091 -1.71841,-1.008265 -5.46416,-3.201122 -8.32617,-4.873047 -2.8605,-1.671047 -5.50634,-3.225261 -5.66797,-3.324219 l -2.0664,-1.265625 0.0508,7.537109 0.043,6.3945317 1.41211,0.5234375 c 0.31047,0.1151093 1.86809,0.6519877 3.15039,1.0957032 h -0.37891 l -5.4707,0.00586 v -9.0742184 c 0,-2.77781 0.007,-5.304239 0.0195,-7.132812 0.003,-0.513718 0.008,-0.821355 0.0117,-1.214844 z M 89.662109,-4.2910156 c -9.647114,-0.011435 -18.399115,-0.00746 -24.732422,0.00781 -3.166653,0.00764 -5.728939,0.018298 -7.496093,0.03125 -0.883577,0.00648 -1.566983,0.013765 -2.033203,0.021484 -0.233111,0.00386 -0.410515,0.00718 -0.539063,0.011719 -0.06427,0.00227 -0.11366,0.00359 -0.169922,0.00781 -0.02813,0.00211 -0.05088,0.00365 -0.123047,0.015625 -0.01804,0.00299 -0.03912,0.00582 -0.07227,0.013672 -0.03315,0.00785 -0.157553,0.050513 -0.158203,0.050781 -6.51e-4,2.684e-4 -0.480299,0.4020744 -0.480469,0.4023438 -1.71e-4,2.693e-4 0.195001,1.3298078 0.195312,1.3300781 0.140603,0.1222209 0.150879,0.1104079 0.185547,0.1308594 0.03467,0.020451 0.06429,0.036685 0.09766,0.054687 0.06674,0.036005 0.144791,0.076693 0.240235,0.125 0.190887,0.096614 0.446232,0.2228436 0.755859,0.3730469 0.619255,0.3004065 1.44973,0.6948859 2.34375,1.1132812 l 3.44336,1.6113281 4.132812,0.00977 -0.386719,1.7480469 3.40625,1.6015625 3.615235,1.6992188 4.11914,-0.00195 -0.388672,1.7539063 3.394532,1.5976563 3.603515,1.6972653 h 3.576172 c -0.05837,0.04252 -0.12497,0.09176 -0.125,0.0918 -8.1e-5,9e-5 -0.220668,0.382701 -0.220703,0.382813 -3.5e-5,1.11e-4 -0.04298,0.394398 -0.04297,0.394531 1.1e-5,1.33e-4 0.05854,0.27133 0.05859,0.271484 5.7e-5,1.55e-4 0.07802,0.163887 0.07813,0.164063 2.05e-4,3.52e-4 0.08766,0.130485 0.119141,0.166016 0.03148,0.03553 0.05593,0.05955 0.07617,0.07813 0.08096,0.0743 0.109811,0.08752 0.136718,0.105468 0.05382,0.03589 0.08083,0.05204 0.113282,0.07031 0.06491,0.03655 0.135626,0.07138 0.224609,0.117187 0.177966,0.09162 0.423534,0.215852 0.728516,0.365235 0.609963,0.298764 1.449724,0.702205 2.378906,1.140625 l 3.574219,1.685546 11.726567,0.0098 11.79492,0.0098 1.6875,-1.0625 c 2.64616,-1.665845 5.3863,-2.811523 7.77734,-3.285156 1.23444,-0.244525 5.70428,-0.198976 7.40821,0.128906 0.43525,0.08376 0.83491,0.157929 1.13476,0.208984 0.14993,0.02553 0.27224,0.04431 0.37305,0.05859 0.0504,0.0071 0.0923,0.0145 0.14648,0.01953 0.0271,0.0025 0.0548,0.0053 0.11328,0.0059 0.0293,2.86e-4 0.0649,0.0012 0.14063,-0.0078 0.0378,-0.0045 0.16343,-0.03302 0.16406,-0.0332 3.2e-4,-9.1e-5 0.15212,-0.05653 0.15235,-0.05664 2.2e-4,-1.06e-4 0.23151,-0.15047 0.23437,-0.152343 5.8e-4,-4.96e-4 0.25744,-0.331262 0.25781,-0.332032 3.8e-4,-7.7e-4 0.0765,-0.203371 0.0898,-0.28125 0.0267,-0.155757 0.0153,-0.248025 0.006,-0.318359 -0.0189,-0.140669 -0.0433,-0.198842 -0.0625,-0.25 -0.0384,-0.102317 -0.0686,-0.154282 -0.0996,-0.210938 -0.0508,-0.09289 -0.10967,-0.181849 -0.17188,-0.273437 0.11637,0.07103 0.33071,0.188528 0.33399,0.191406 0.0871,0.0765 0.19016,0.20198 0.50976,0.304688 0.31961,0.102708 0.86372,-0.02619 1.08985,-0.210938 0.45225,-0.369495 0.44251,-0.564588 0.61328,-0.9042968 0.60782,-1.2091892 0.95703,-2.7649106 0.95703,-4.1738282 0,-2.2285052 -1.36436,-4.0448484 -3.71094,-5.22656247 -0.69455,-0.34977109 -1.71154,-0.68664784 -2.73828,-0.97851563 -1.02674,-0.29186779 -1.89488,-0.5318722 -2.6582,-0.5351562 -0.26555,-0.00115 -0.31693,-0.022608 -0.34375,-0.023437 -0.1049,-0.2422145 -0.15546,-0.5396677 -0.31055,-0.7089844 -0.2718,-0.2967265 -0.59485,-0.5397057 -0.96875,-0.7714844 -0.74781,-0.4635574 -1.704,-0.8697137 -2.7793,-1.1757813 L 124.88281,-4.25 Z m -0.002,2.0625 34.933591,0.041016 1,0.2851563 c 0.91523,0.2605074 1.73095,0.6187158 2.25781,0.94531245 0.26343,0.16329832 0.45336,0.32086133 0.53516,0.41015625 0.0818,0.0892949 0.004,0.082942 0.004,-0.15039062 0,0.48555371 0.41945,1.1318775 0.86329,1.33593749 0.44384,0.20406 0.83022,0.21476052 1.29882,0.21679688 0.0967,4.1594e-4 1.14924,0.18631625 2.10157,0.45703125 0.95233,0.270715 1.97199,0.6329876 2.375,0.8359375 1.95552,0.9847839 2.57617,1.8884529 2.57617,3.3847656 0,0.9130412 -0.30939,2.0521504 -0.6543,2.8828125 -0.099,-0.050587 -0.17002,-0.1178138 -0.27734,-0.1699218 -0.45757,-0.2221677 -0.96052,-0.4285467 -1.43164,-0.5742188 -0.5791,-0.1790561 -1.29493,-0.2777771 -2.00977,-0.3398438 -0.71484,-0.062067 -1.26715,-0.132097 -1.91797,0.03125 -0.1147,0.028791 -0.18565,0.00438 -0.48437,0.1855469 -0.14936,0.090583 -0.51536,0.3651054 -0.52539,0.8964844 -0.01,0.531379 0.29408,0.7685611 0.42187,0.8691406 0.25558,0.2011592 0.35175,0.2071781 0.50586,0.2675782 0.0925,0.03624 0.223,0.081364 0.33985,0.1230468 -2.06523,-0.1490995 -4.3148,-0.1800986 -5.69727,0.09375 -2.71307,0.5374225 -5.64661,1.7834085 -8.47266,3.5624995 l -1.18554,0.744141 -11.19727,-0.0098 -11.265621,-0.0098 -2.513672,-1.185547 c 1.303738,-0.0028 2.563123,-0.0052 4.19336,-0.0039 l 9.599603,0.0078 V 10.978516 9.0527344 H 93.423828 83.076172 l -2.441406,-1.1503907 6.648437,-0.021484 12.25,-0.041016 V 5.9199219 3.9960938 L 85.308594,4 72.347656,4.0058594 69.894531,2.8515625 79.238281,2.8261719 94.251953,2.7851563 94.150391,0.84960938 94.054687,-0.97851563 77.214844,-1.015625 61.580078,-1.0507812 59.126953,-2.1972656 c 1.636307,-0.00916 3.3513,-0.017515 5.806641,-0.023437 6.329539,-0.015266 15.081463,-0.019245 24.726562,-0.00781 z"
           id="path62" /></g><path
         style="fill:#2e6a42;fill-opacity:1;stroke-width:0.600839"
         d="m 63.891469,69.749857 -5.405053,-9.361827 6.029505,-3.466637 c 3.31626,-1.906617 5.957055,-3.377526 5.868504,-3.268607 -0.08855,0.108935 -1.677679,1.934883 -3.53139,4.057677 -1.853712,2.122794 -3.391299,3.932446 -3.416861,4.021449 -0.02555,0.08899 1.313191,2.47942 2.975118,5.311978 l 3.021604,5.150152 1.868545,-3.281423 c 1.027711,-1.804788 3.283818,-5.7662 5.013593,-8.80315 1.729766,-3.036943 6.754457,-11.860591 11.165979,-19.608102 4.411531,-7.747519 8.404511,-14.7455 8.873297,-15.551076 0.468787,-0.805578 0.826719,-1.509082 0.795395,-1.563335 -0.03131,-0.05424 -1.068458,-0.09795 -2.304742,-0.0971 -3.802298,0.0025 -16.825448,-0.07214 -35.960248,-0.206372 -2.1288,-0.01494 -6.770248,-0.04197 -10.314328,-0.06006 -3.544078,-0.0181 -6.717306,-0.03995 -7.051609,-0.04857 l -0.607828,-0.01567 3.074644,5.242236 3.074643,5.242235 0.835715,-0.142214 c 0.459645,-0.07822 2.877292,-0.54067 5.372545,-1.027665 l 4.536831,-0.885452 -6.01837,3.485945 -6.01836,3.485939 -5.405014,-9.361757 c -2.972778,-5.149004 -5.376802,-9.378132 -5.342349,-9.398025 0.03454,-0.01994 1.29488,-0.01877 2.800837,0.0025 1.505947,0.02133 3.148801,0.03477 3.650783,0.02988 0.828874,-0.0082 2.514693,4.02e-4 8.192446,0.04121 1.064513,0.0077 3.550669,0.02156 5.524793,0.03091 1.974144,0.0093 5.207264,0.02934 7.184717,0.04446 1.977463,0.01511 5.79106,0.03902 8.474683,0.05313 7.151587,0.03761 20.216611,0.129828 25.61996,0.180829 2.588597,0.02444 5.091526,0.03287 5.562086,0.0187 0.47054,-0.01415 0.8726,0.0057 0.89346,0.04416 0.0209,0.03839 -0.2634,0.582149 -0.63171,1.208269 -0.64874,1.102858 -3.20942,5.597539 -8.682115,15.239425 -2.895642,5.101586 -8.287118,14.578456 -10.295062,18.096138 -0.702702,1.231055 -2.137381,3.753724 -3.188193,5.605941 -1.050803,1.852211 -2.137699,3.761131 -2.415331,4.242047 -0.277622,0.480912 -1.119286,1.956149 -1.87035,3.278295 -0.751075,1.32215 -1.982856,3.480887 -2.737302,4.797196 -0.754447,1.31631 -1.895284,3.325136 -2.535206,4.464062 -0.639923,1.138928 -1.188197,2.085037 -1.218382,2.102465 -0.03019,0.01743 -2.487195,-4.181112 -5.459973,-9.330115 z M 44.336551,63.267562 c -2.181342,0.180889 -3.960336,0.302296 -3.953319,0.269792 0.0071,-0.03252 3.585138,-2.117683 7.951345,-4.63376 l 7.938606,-4.574588 -0.47814,-0.828165 -0.478151,-0.828179 -9.797499,5.656589 -9.797499,5.656589 -3.998223,0.335047 -3.998213,0.335045 10.373903,-6.036426 10.373901,-6.036424 -0.477236,-0.826598 -0.477237,-0.8266 -12.215669,7.059389 -12.215669,7.059388 -4.011857,0.33819 -4.011858,0.338189 12.882323,-7.484453 12.882334,-7.48446 -0.497944,-0.767068 -0.497852,-0.767122 -14.711468,8.450202 -14.711475,8.450192 -3.8084482,0.328192 C 4.5064737,66.630867 2.7020556,66.760945 2.5913049,66.739421 2.4805775,66.717891 17.0193,58.277133 34.899625,47.982162 l 32.509674,-18.71811 1.226945,-0.308455 c 2.146557,-0.539647 4.101053,-0.47842 4.457896,0.13965 0.197876,0.342732 0.577154,0.307483 1.331602,-0.123737 0.798493,-0.456442 4.010825,-1.265169 5.322921,-1.34015 2.571501,-0.146941 4.216645,0.580761 5.212533,2.305691 0.651567,1.128546 1.130168,2.679565 1.200198,3.889467 0.04529,0.782553 0.01807,0.854422 -0.299686,0.790999 -0.501083,-0.100008 -1.783245,-0.008 -2.655665,0.190438 -0.929092,0.211397 -2.83601,1.102135 -3.279768,1.532008 -0.305895,0.296333 -0.247903,0.304696 0.7718,0.111298 1.13998,-0.216206 3.334931,-0.100038 4.004195,0.211932 0.209916,0.09785 0.374545,0.198037 0.365837,0.222656 -0.0087,0.02459 -0.738608,0.295154 -1.622012,0.601192 -2.009893,0.696295 -5.981274,2.903215 -7.296255,4.054573 -2.09335,1.832877 -4.081969,4.457215 -5.695027,7.515606 l -0.846789,1.605519 -10.652755,6.137837 -10.65271,6.137933 z"
         id="path60" /><path
         style="fill:#ff0000;stroke:#ffffff;stroke-width:2.04267;stroke-dasharray:none"
         d="m 35.043141,65.223147 c -0.01149,-0.09198 0.11728,-1.026982 0.286096,-2.077742 l 0.306906,-1.910456 1.580938,-0.959336 1.580948,-0.959342 0.149599,-0.669948 c 0.20065,-0.898431 0.348243,-1.758263 0.960406,-5.594561 l 0.519513,-3.255809 1.976508,-1.144967 c 1.087094,-0.629609 1.954651,-1.069229 1.927911,-0.976811 -0.02678,0.09244 -0.379175,2.190436 -0.783188,4.662261 -0.404004,2.471821 -0.811597,4.876339 -0.905766,5.343382 -0.442224,2.193291 -1.073493,3.41413 -2.323045,4.492645 -0.853165,0.736382 -5.248597,3.277407 -5.276838,3.050535 z m 8.388653,-4.755698 c -0.0061,-0.04954 0.05717,-0.481044 0.140734,-0.958959 0.08357,-0.47792 0.591688,-3.542581 1.129153,-6.810354 l 0.977203,-5.941405 3.84353,-2.219089 3.843522,-2.219085 -0.163087,0.969524 c -0.08969,0.533234 -0.237659,1.425249 -0.328796,1.982244 l -0.165701,1.012716 -1.891678,1.138173 c -1.689638,1.01661 -1.90104,1.17639 -1.979309,1.495988 -0.04817,0.196786 -0.0466,0.381517 0.0035,0.410463 0.05017,0.02894 0.763122,-0.3353 1.584368,-0.809446 1.372574,-0.792456 1.488708,-0.835932 1.438118,-0.538509 -0.03026,0.177953 -0.07916,0.525072 -0.108668,0.771367 -0.02949,0.24629 -0.135736,0.945394 -0.236073,1.553554 l -0.182429,1.105744 -1.607972,0.975289 c -1.531017,0.928611 -1.787054,1.161449 -1.7418,1.583961 0.0072,0.06464 0.881516,-0.383891 1.943522,-0.99704 1.062016,-0.613155 1.961939,-1.076452 1.999852,-1.029564 0.03811,0.04677 -0.07746,0.957604 -0.256372,2.023798 l -0.325285,1.938533 -3.952587,2.326053 c -2.173928,1.279321 -3.957645,2.285554 -3.963813,2.236048 z m 10.879362,-6.282807 c -0.01308,-0.105224 1.17035,-7.293815 1.33282,-8.095903 0.06311,-0.311551 0.129334,-0.781217 0.147197,-1.043718 l 0.0325,-0.477289 -1.188328,0.686082 -1.188328,0.686081 0.332131,-1.984168 0.332121,-1.984165 4.380912,-2.573148 c 2.409504,-1.415221 4.383873,-2.549306 4.387504,-2.520195 0.01114,0.08988 -0.375822,2.375788 -0.544358,3.2153 l -0.159529,0.794671 -1.198931,0.739945 -1.198932,0.739945 -0.141561,0.915412 c -0.07787,0.503479 -0.177379,1.086153 -0.221142,1.294829 -0.0438,0.208698 -0.148309,0.83177 -0.232305,1.384644 -0.08398,0.552866 -0.200843,1.258098 -0.25968,1.567183 -0.0588,0.309068 -0.253812,1.453334 -0.433289,2.542782 l -0.326308,1.980822 -1.920798,1.108974 c -1.056449,0.609941 -1.92569,1.069786 -1.931661,1.021886 z m 7.108842,-4.268967 c -0.01755,-0.141196 0.02245,-0.524536 0.08889,-0.851876 0.06647,-0.327351 0.192722,-1.049161 0.280551,-1.604015 0.08783,-0.554857 0.207266,-1.130275 0.26542,-1.278711 0.07762,-0.198153 0.712423,-0.620153 2.388571,-1.587878 1.86795,-1.078461 2.305666,-1.376239 2.40839,-1.638465 0.06909,-0.176277 0.0797,-0.407496 0.02367,-0.513876 -0.08364,-0.157682 -0.380125,-0.03275 -1.618801,0.682387 -1.831514,1.057426 -2.32042,1.128683 -2.617369,0.38149 -0.237951,-0.598657 -0.20479,-1.438222 0.129015,-3.275672 0.345215,-1.899929 0.61921,-2.756662 1.121991,-3.508108 0.426578,-0.637545 0.472046,-0.668391 4.411469,-2.992755 3.791619,-2.237156 3.978091,-2.332959 3.931112,-2.019526 -0.02711,0.180964 -0.177137,1.096774 -0.333328,2.0351 l -0.283999,1.706058 -2.273255,1.312682 c -1.931286,1.115214 -2.299069,1.36833 -2.444935,1.68269 -0.09444,0.203513 -0.136109,0.50894 -0.09263,0.678738 0.07566,0.295319 0.160571,0.265283 1.964556,-0.696496 1.094364,-0.583436 2.002004,-0.990459 2.163229,-0.970062 0.727269,0.092 0.87735,1.005075 0.52166,3.173455 -0.323436,1.971765 -0.770936,3.274423 -1.405845,4.092403 -0.527473,0.679567 -0.651658,0.763108 -4.569296,3.07383 -3.674494,2.16731 -4.029906,2.35281 -4.059062,2.118596 z"
         id="path1-2" /><path
         style="fill:#ff0000;stroke-width:0.545755"
         d="m 35.043141,65.223147 c -0.01149,-0.09198 0.11728,-1.026982 0.286096,-2.077742 l 0.306906,-1.910456 1.580938,-0.959336 1.580948,-0.959342 0.149599,-0.669948 c 0.20065,-0.898431 0.348243,-1.758263 0.960406,-5.594561 l 0.519513,-3.255809 1.976508,-1.144967 c 1.087094,-0.629609 1.954651,-1.069229 1.927911,-0.976811 -0.02678,0.09244 -0.379175,2.190436 -0.783188,4.662261 -0.404004,2.471821 -0.811597,4.876339 -0.905766,5.343382 -0.442224,2.193291 -1.073493,3.41413 -2.323045,4.492645 -0.853165,0.736382 -5.248597,3.277407 -5.276838,3.050535 z m 8.388653,-4.755698 c -0.0061,-0.04954 0.05717,-0.481044 0.140734,-0.958959 0.08357,-0.47792 0.591688,-3.542581 1.129153,-6.810354 l 0.977203,-5.941405 3.84353,-2.219089 3.843522,-2.219085 -0.163087,0.969524 c -0.08969,0.533234 -0.237659,1.425249 -0.328796,1.982244 l -0.165701,1.012716 -1.891678,1.138173 c -1.689638,1.01661 -1.90104,1.17639 -1.979309,1.495988 -0.04817,0.196786 -0.0466,0.381517 0.0035,0.410463 0.05017,0.02894 0.763122,-0.3353 1.584368,-0.809446 1.372574,-0.792456 1.488708,-0.835932 1.438118,-0.538509 -0.03026,0.177953 -0.07916,0.525072 -0.108668,0.771367 -0.02949,0.24629 -0.135736,0.945394 -0.236073,1.553554 l -0.182429,1.105744 -1.607972,0.975289 c -1.531017,0.928611 -1.787054,1.161449 -1.7418,1.583961 0.0072,0.06464 0.881516,-0.383891 1.943522,-0.99704 1.062016,-0.613155 1.961939,-1.076452 1.999852,-1.029564 0.03811,0.04677 -0.07746,0.957604 -0.256372,2.023798 l -0.325285,1.938533 -3.952587,2.326053 c -2.173928,1.279321 -3.957645,2.285554 -3.963813,2.236048 z m 10.879362,-6.282807 c -0.01308,-0.105224 1.17035,-7.293815 1.33282,-8.095903 0.06311,-0.311551 0.129334,-0.781217 0.147197,-1.043718 l 0.0325,-0.477289 -1.188328,0.686082 -1.188328,0.686081 0.332131,-1.984168 0.332121,-1.984165 4.380912,-2.573148 c 2.409504,-1.415221 4.383873,-2.549306 4.387504,-2.520195 0.01114,0.08988 -0.375822,2.375788 -0.544358,3.2153 l -0.159529,0.794671 -1.198931,0.739945 -1.198932,0.739945 -0.141561,0.915412 c -0.07787,0.503479 -0.177379,1.086153 -0.221142,1.294829 -0.0438,0.208698 -0.148309,0.83177 -0.232305,1.384644 -0.08398,0.552866 -0.200843,1.258098 -0.25968,1.567183 -0.0588,0.309068 -0.253812,1.453334 -0.433289,2.542782 l -0.326308,1.980822 -1.920798,1.108974 c -1.056449,0.609941 -1.92569,1.069786 -1.931661,1.021886 z m 7.108842,-4.268967 c -0.01755,-0.141196 0.02245,-0.524536 0.08889,-0.851876 0.06647,-0.327351 0.192722,-1.049161 0.280551,-1.604015 0.08783,-0.554857 0.207266,-1.130275 0.26542,-1.278711 0.07762,-0.198153 0.712423,-0.620153 2.388571,-1.587878 1.86795,-1.078461 2.305666,-1.376239 2.40839,-1.638465 0.06909,-0.176277 0.0797,-0.407496 0.02367,-0.513876 -0.08364,-0.157682 -0.380125,-0.03275 -1.618801,0.682387 -1.831514,1.057426 -2.32042,1.128683 -2.617369,0.38149 -0.237951,-0.598657 -0.20479,-1.438222 0.129015,-3.275672 0.345215,-1.899929 0.61921,-2.756662 1.121991,-3.508108 0.426578,-0.637545 0.472046,-0.668391 4.411469,-2.992755 3.791619,-2.237156 3.978091,-2.332959 3.931112,-2.019526 -0.02711,0.180964 -0.177137,1.096774 -0.333328,2.0351 l -0.283999,1.706058 -2.273255,1.312682 c -1.931286,1.115214 -2.299069,1.36833 -2.444935,1.68269 -0.09444,0.203513 -0.136109,0.50894 -0.09263,0.678738 0.07566,0.295319 0.160571,0.265283 1.964556,-0.696496 1.094364,-0.583436 2.002004,-0.990459 2.163229,-0.970062 0.727269,0.092 0.87735,1.005075 0.52166,3.173455 -0.323436,1.971765 -0.770936,3.274423 -1.405845,4.092403 -0.527473,0.679567 -0.651658,0.763108 -4.569296,3.07383 -3.674494,2.16731 -4.029906,2.35281 -4.059062,2.118596 z"
         id="path1" /></g></g></svg>
