<?xml version="1.0" encoding="UTF-8" standalone="no"?>
<!-- Created with Inkscape (http://www.inkscape.org/) -->

<svg
   width="105.83334mm"
   height="105.83334mm"
   viewBox="0 0 105.83333 105.83333"
   version="1.1"
   id="svg1"
   xml:space="preserve"
   inkscape:version="1.4 (e7c3feb100, 2024-10-09)"
   sodipodi:docname="seattle.svg"
   inkscape:export-filename="../pngs/montreal.png"
   inkscape:export-xdpi="96"
   inkscape:export-ydpi="96"
   xmlns:inkscape="http://www.inkscape.org/namespaces/inkscape"
   xmlns:sodipodi="http://sodipodi.sourceforge.net/DTD/sodipodi-0.dtd"
   xmlns="http://www.w3.org/2000/svg"
   xmlns:svg="http://www.w3.org/2000/svg"><sodipodi:namedview
     id="namedview1"
     pagecolor="#ffffff"
     bordercolor="#000000"
     borderopacity="0.25"
     inkscape:showpageshadow="2"
     inkscape:pageopacity="0.0"
     inkscape:pagecheckerboard="0"
     inkscape:deskcolor="#d1d1d1"
     inkscape:document-units="mm"
     inkscape:zoom="0.87120608"
     inkscape:cx="472.90763"
     inkscape:cy="50.504698"
     inkscape:window-width="1920"
     inkscape:window-height="1011"
     inkscape:window-x="0"
     inkscape:window-y="32"
     inkscape:window-maximized="1"
     inkscape:current-layer="layer1"
     showgrid="false" /><defs
     id="defs1" /><g
     inkscape:label="Capa 1"
     inkscape:groupmode="layer"
     id="layer1"><path
       style="fill:#fdd013;fill-opacity:1;stroke:none;stroke-width:2.062;stroke-dasharray:none"
       d="M 48.532764,35.540587 V 67.645224 L 51.861338,81.389015 100.17936,53.364566 52.076085,23.729515 49.391752,28.990811 Z"
       id="path63" /><g
       id="path60-9"
       style="fill:#ffffff;fill-opacity:1"
       transform="translate(-53.431012,46.994795)"><path
         d="M 102.96166,27.921148 V 17.813167 l 6.5033,0.01174 c 3.57681,0.0065 6.40296,0.05003 6.28033,0.09683 -0.12264,0.04681 -2.26315,0.782467 -4.7567,1.6348 -2.49355,0.852332 -4.58471,1.598886 -4.64703,1.659007 -0.0623,0.06012 -0.0958,2.621726 -0.0743,5.692456 l 0.039,5.583147 3.04726,-1.783629 c 1.67599,-0.980994 5.355,-3.134067 8.17557,-4.784605 2.82057,-1.650537 11.01473,-6.446552 18.20923,-10.657809 7.1945,-4.211259 13.69966,-8.0112435 14.4559,-8.4444115 0.75624,-0.433169 1.37499,-0.835507 1.37499,-0.894085 0,-0.05857 -0.81942,-0.578848 -1.82093,-1.156155 -3.08023,-1.775555 -13.59113,-7.924721 -29.02329,-16.9794185 -1.71687,-1.00736 -5.46277,-3.199237 -8.32422,-4.870837 -2.86145,-1.6716 -5.42083,-3.172859 -5.68751,-3.336132 l -0.48489,-0.296863 0.0389,5.682511 0.0389,5.6825105 0.74324,0.275555 c 0.40878,0.151555 2.58273,0.907384 4.83102,1.679618 l 4.08778,1.404063 -6.50329,0.0091 -6.5033,0.0091 V -16.078248 c 0,-5.55939 0.0305,-10.10798 0.0678,-10.10798 0.0373,0 1.05735,0.590185 2.26686,1.311523 1.20952,0.721337 2.53358,1.500299 2.94236,1.731025 0.67497,0.380975 2.03615,1.176008 6.61478,3.863549 0.85843,0.503881 2.86516,1.677481 4.4594,2.608002 1.59424,0.930521 4.20299,2.458287 5.79723,3.395032 1.59423,0.936747 4.67122,2.739064 6.83775,4.0051445 5.77361,3.374005 16.31024,9.55689703 20.6619,12.124395 2.08477,1.230025 4.10765,2.407026 4.49531,2.615559 0.38765,0.208533 0.70394,0.412595 0.70286,0.453472 -0.001,0.04087 -0.48546,0.348268 -1.07644,0.683087 -1.04095,0.589766 -5.21591,3.032275 -14.15539,8.2814285 -4.72993,2.77736 -13.52649,7.930858 -16.79708,9.840632 -1.14458,0.668348 -3.48577,2.040397 -5.20264,3.048998 -1.71687,1.008601 -3.48948,2.046249 -3.93914,2.305884 -0.44966,0.259637 -1.82092,1.060749 -3.04726,1.780251 -1.22634,0.7195 -3.23307,1.891707 -4.4594,2.604901 -1.22634,0.713194 -3.08934,1.806524 -4.14001,2.429621 -1.05067,0.623097 -1.93698,1.132903 -1.96957,1.132903 -0.0326,0 -0.0593,-4.548591 -0.0593,-10.107981 z M 90.157187,13.529532 c -1.850972,-0.873351 -3.34832,-1.606762 -3.327437,-1.629802 0.02087,-0.02305 3.893222,-0.03871 8.605202,-0.03486 l 8.567238,0.0071 V 10.9778 10.083612 H 93.423805 82.845421 l -3.394301,-1.5979545 -3.394301,-1.597952 11.222719,-0.0381 11.22272,-0.0381 v -0.892478 -0.892482 l -13.192401,0.0054 -13.192401,0.0054 -3.406822,-1.601784 -3.406821,-1.601785 13.930976,-0.03793 13.930977,-0.03793 -0.04455,-0.85395597 -0.04455,-0.853955 -15.863678,-0.0352 -15.863681,-0.03521 -3.237432,-1.51478103 c -1.780584,-0.833301 -3.302568,-1.571577 -3.382186,-1.640786 -0.07961,-0.0692 15.63978,-0.107118 34.931993,-0.08425 l 35.076758,0.04159 1.13776,0.323847 c 1.99053,0.566575 3.54461,1.52993 3.54461,2.19726103 0,0.370049 0.3236,0.518827 1.13615,0.522358 0.86,0.0037 3.83937,0.850655 4.93692,1.40337597 2.15105,1.083249 3.14303,2.441672 3.14303,4.304081 0,1.218494 -0.33758,2.69823 -0.84653,3.710721 -0.32919,0.654867 -0.38484,0.700335 -0.6125,0.500422 -0.35901,-0.315253 -1.44025,-0.840242 -2.23952,-1.087377 -0.85119,-0.263188 -2.81181,-0.433421 -3.37213,-0.292788 -0.38626,0.09695 -0.3432,0.130835 0.57295,0.450963 1.02421,0.357889 2.74732,1.4781515 3.14342,2.0436775 0.12424,0.177372 0.21071,0.335475 0.19215,0.351339 -0.0185,0.01587 -0.7361,-0.106309 -1.59454,-0.271499 -1.95311,-0.375832 -6.20083,-0.445438 -7.80395,-0.127882 -2.55206,0.505528 -5.38934,1.700927 -8.12544,3.423395 L 116.5145,15.13748 105.01855,15.12733 93.522609,15.11728 Z"
         id="path61"
         style="fill:#ffffff;fill-opacity:1" /><path
         style="fill:#ffffff;fill-opacity:1"
         d="m 103.0293,-27.216797 c -1.5e-4,0 -0.7108,0.285018 -0.71094,0.285156 -1.5e-4,1.39e-4 -0.20298,0.267302 -0.20313,0.267579 -2.9e-4,5.53e-4 -0.073,0.176837 -0.084,0.21875 -0.022,0.08383 -0.0239,0.112294 -0.0273,0.138671 -0.007,0.05275 -0.008,0.0769 -0.01,0.105469 -0.004,0.05713 -0.007,0.114195 -0.01,0.1875 -0.005,0.14661 -0.008,0.349775 -0.0117,0.609375 -0.008,0.519201 -0.0153,1.261903 -0.0215,2.179688 -0.0123,1.835568 -0.0215,4.364904 -0.0215,7.146484 V -4.9375 l 7.53711,-0.011719 6.50195,-0.00781 0.33398,-2.0058594 -4.08789,-1.4042969 c -2.24593,-0.7714231 -4.46738,-1.546097 -4.80664,-1.6718757 l -0.0762,-0.02734 -0.0332,-4.970703 -0.0273,-3.857422 c 0.90106,0.532737 2.29665,1.354028 4.60938,2.705078 2.86089,1.671275 6.60694,3.862685 8.32227,4.86914 15.43267,9.0550004 25.93596,15.201267 29.02929,16.9843757 0.17375,0.1001559 0.28462,0.171368 0.44336,0.265625 -0.80453,0.4608922 -7.26703,4.2355413 -14.45898,8.4453123 -7.19448,4.211243 -15.38857,9.007755 -18.20899,10.658203 -2.8206,1.650556 -6.4997,3.804111 -8.17578,4.785156 l -1.50586,0.88086 -0.0273,-3.798828 c -0.0107,-1.529609 -0.007,-2.933571 0.006,-3.955079 0.006,-0.427283 0.0128,-0.73901 0.0215,-1.009765 0.21814,-0.08067 0.44772,-0.164968 0.77344,-0.28125 0.83582,-0.298391 1.97959,-0.698149 3.22266,-1.123047 1.24724,-0.426326 2.40659,-0.822564 3.26953,-1.119141 0.43147,-0.148288 0.78882,-0.272055 1.04687,-0.361328 0.25805,-0.08927 0.35101,-0.118838 0.47461,-0.166015 0.041,-0.01566 0.17128,-0.08362 0.17188,-0.08398 3e-4,-1.82e-4 0.13846,-0.10138 0.13867,-0.101562 2.1e-4,-1.83e-4 0.18347,-0.208802 0.18359,-0.208985 1.2e-4,-1.82e-4 0.15622,-0.390442 0.15625,-0.390625 3e-5,-1.82e-4 -0.0292,-0.484192 -0.0293,-0.484375 -6e-5,-1.82e-4 -0.17759,-0.337708 -0.17774,-0.33789 -1.4e-4,-1.82e-4 -0.17359,-0.171693 -0.17383,-0.171875 -4.6e-4,-3.64e-4 -0.1658,-0.108148 -0.21679,-0.13086 -0.051,-0.02271 -0.0861,-0.03389 -0.11524,-0.04297 -0.0583,-0.01815 -0.0918,-0.02591 -0.11914,-0.03125 -0.10951,-0.02134 -0.14118,-0.01935 -0.19336,-0.02344 -0.10436,-0.0082 -0.22418,-0.01391 -0.38281,-0.01953 -0.31726,-0.01125 -0.77483,-0.02047 -1.34766,-0.0293 -1.14565,-0.01766 -2.74892,-0.0319 -4.54101,-0.03516 l -7.53711,-0.01172 v 10.941406 0.199219 c 0,2.781346 0.007,5.309401 0.0176,7.144531 0.005,0.917565 0.0124,1.66123 0.0195,2.179688 0.004,0.259229 0.008,0.460288 0.0117,0.605468 0.002,0.07259 0.005,0.129264 0.008,0.183594 0.002,0.02717 0.002,0.05021 0.008,0.09766 0.003,0.02372 0.002,0.04785 0.0195,0.123047 0.009,0.0376 0.0701,0.202572 0.0703,0.203125 1.3e-4,2.77e-4 0.17761,0.26744 0.17774,0.267578 1.3e-4,1.39e-4 0.75964,0.333985 0.75976,0.333985 2.6e-4,0 0.17543,-0.01556 0.17579,-0.01563 3.5e-4,-6.2e-5 0.0686,-0.01331 0.0918,-0.01953 0.0464,-0.01244 0.0726,-0.02346 0.0937,-0.03125 0.0422,-0.01559 0.064,-0.025 0.082,-0.0332 0.0361,-0.01641 0.0571,-0.02721 0.0801,-0.03906 0.046,-0.0237 0.0917,-0.04871 0.14844,-0.08008 0.11352,-0.06274 0.26388,-0.147594 0.44531,-0.251953 0.36286,-0.20872 0.84833,-0.49314 1.37696,-0.806641 1.04587,-0.620254 2.91004,-1.714667 4.13281,-2.425781 1.22819,-0.71428 3.2347,-1.884882 4.46289,-2.605469 1.22511,-0.718781 2.60062,-1.523058 3.04101,-1.777344 0.4637,-0.267739 2.2275,-1.301388 3.94532,-2.310547 1.71601,-1.0081 4.05851,-2.379649 5.20117,-3.046875 3.27289,-1.911115 12.0678,-7.063794 16.79883,-9.841796 8.93903,-5.248894 13.13516,-7.7026743 14.14257,-8.2734377 0.30811,-0.1745548 0.58631,-0.3411766 0.80274,-0.4785156 0.10821,-0.06867 0.19882,-0.1286997 0.28515,-0.1914063 0.0432,-0.031353 0.0829,-0.060078 0.14454,-0.1152343 0.0308,-0.027578 0.0667,-0.057269 0.12695,-0.1308594 0.0301,-0.036795 0.0685,-0.085073 0.11523,-0.171875 0.0234,-0.043401 0.048,-0.09749 0.0723,-0.171875 0.0241,-0.073906 0.0504,-0.2895284 0.0508,-0.2929688 v -0.00195 c -9e-5,-0.00335 -0.006,-0.1578815 -0.0176,-0.2207031 -0.0121,-0.063374 -0.0286,-0.1171712 -0.0449,-0.1621094 -0.0327,-0.089876 -0.0666,-0.1484592 -0.0957,-0.1953125 -0.0581,-0.093706 -0.10015,-0.1389406 -0.13477,-0.1757812 -0.0692,-0.073681 -0.11156,-0.1064004 -0.15234,-0.1386719 -0.0816,-0.064543 -0.15014,-0.1122342 -0.23047,-0.1640625 -0.16066,-0.1036567 -0.354,-0.2147639 -0.56836,-0.3300781 -0.28008,-0.1506601 -2.37964,-1.3677297 -4.46094,-2.5957032 -4.35506,-2.56950814 -14.8885,-8.7518084 -20.66406,-12.126953 -2.16568,-1.265582 -5.24328,-3.068082 -6.83594,-4.003907 -1.59564,-0.93757 -4.20512,-2.465136 -5.80078,-3.396484 -1.59359,-0.930145 -3.60081,-2.10484 -4.45703,-2.607422 -4.57901,-2.687764 -5.93595,-3.479968 -6.62891,-3.871094 -0.37365,-0.210901 -1.7162,-0.999707 -2.92187,-1.71875 -0.60803,-0.362618 -1.16727,-0.692496 -1.58399,-0.933593 -0.20835,-0.120549 -0.38059,-0.219191 -0.50976,-0.291016 -0.0646,-0.03591 -0.11762,-0.06372 -0.16797,-0.08984 -0.0252,-0.01306 -0.0486,-0.02587 -0.0859,-0.04297 -0.0187,-0.0085 -0.0394,-0.01732 -0.082,-0.0332 -0.0213,-0.0079 -0.047,-0.01861 -0.0937,-0.03125 -0.0234,-0.0063 -0.0528,-0.01237 -0.0937,-0.01953 -0.041,-0.0072 -0.17744,-0.01563 -0.17773,-0.01563 z m 0.99414,2.791016 c 0.25424,0.149769 0.45752,0.266563 0.74414,0.4375 1.21336,0.723631 2.52094,1.491637 2.96484,1.742187 0.65699,0.370825 2.02136,1.168151 6.59961,3.855469 0.86064,0.50518 2.86605,1.678478 4.46094,2.609375 1.59282,0.929694 4.20209,2.456659 5.79492,3.392578 1.5958,0.937669 4.67246,2.7412333 6.83984,4.0078126 5.77166,3.3728653 16.30995,9.555606 20.65821,12.1210938 1.73364,1.0228584 2.97255,1.7394165 3.76172,2.1875 -1.20616,0.6873713 -5.09003,2.9580993 -13.79297,8.0683596 -4.72884,2.776717 -13.52663,7.931411 -16.79492,9.839843 -1.14651,0.669471 -3.48736,2.041681 -5.20508,3.050782 -1.71592,1.008043 -3.49797,2.051203 -3.9336,2.302734 -0.45892,0.264989 -1.82516,1.062981 -3.05273,1.783203 -1.22449,0.718413 -3.23257,1.891408 -4.45703,2.603516 -1.22992,0.715274 -3.09102,1.807653 -4.14649,2.433594 -0.17082,0.101304 -0.28435,0.166259 -0.44336,0.259765 -0.004,-0.393706 -0.009,-0.700999 -0.0117,-1.214844 -0.0104,-1.77843 -0.0172,-4.248236 -0.0176,-6.935546 v -0.197266 -9.076172 l 5.4707,0.0098 c 0.15522,2.82e-4 0.24037,0.0015 0.39258,0.002 -0.89646,0.30923 -1.80913,0.626953 -2.44922,0.855469 -0.42436,0.151499 -0.7716,0.277512 -1.02539,0.373046 -0.1269,0.04777 -0.22977,0.08644 -0.31445,0.121094 -0.0423,0.01733 -0.0784,0.03397 -0.12305,0.05469 -0.0223,0.01036 -0.0462,0.02038 -0.084,0.04102 -0.0378,0.02064 -0.0692,0.01053 -0.23438,0.169922 v 0.002 c -4.9e-4,4.7e-4 -0.12703,0.144197 -0.16016,0.197266 -0.0331,0.05307 -0.0529,0.09428 -0.0684,0.128906 -0.0309,0.06926 -0.0428,0.113069 -0.0527,0.148438 -0.0199,0.07074 -0.0257,0.107834 -0.0312,0.142578 -0.0112,0.06949 -0.0149,0.118616 -0.0195,0.173828 -0.009,0.110424 -0.0173,0.236086 -0.0234,0.392578 -0.0122,0.312984 -0.0205,0.740715 -0.0273,1.261719 -0.0136,1.042007 -0.0166,2.454973 -0.006,3.996094 l 0.0508,7.365234 4.58789,-2.683594 c 1.6759,-0.980942 5.35524,-3.134636 8.17578,-4.785156 2.82072,-1.650626 11.01446,-6.446932 18.20899,-10.658203 7.19402,-4.21098 13.7349,-8.0314161 14.44726,-8.4394533 0.39235,-0.2247347 0.74652,-0.4396607 1.01953,-0.6171875 0.13651,-0.088763 0.25099,-0.1652431 0.35547,-0.2441406 0.0522,-0.039449 0.0993,-0.075521 0.16797,-0.140625 0.0343,-0.032552 0.0753,-0.070718 0.13672,-0.1523437 0.0307,-0.040813 0.0681,-0.091483 0.11133,-0.1816407 0.0216,-0.045079 0.0442,-0.1009829 0.0644,-0.1738281 0.0202,-0.072845 0.0371,-0.2783816 0.0371,-0.2792969 0,-4.575e-4 -0.0175,-0.1967518 -0.0176,-0.1972656 -1e-4,-5.137e-4 -0.0248,-0.1036402 -0.0391,-0.1445312 -0.0285,-0.081782 -0.0582,-0.1373442 -0.084,-0.1816407 -0.0515,-0.088593 -0.09,-0.1342858 -0.12109,-0.1699218 -0.0621,-0.071272 -0.099,-0.1017679 -0.13281,-0.1308594 -0.0676,-0.058183 -0.11958,-0.095747 -0.17969,-0.1386719 -0.12022,-0.08585 -0.2633,-0.1804136 -0.4375,-0.2910156 -0.34839,-0.2212041 -0.81277,-0.5001026 -1.32422,-0.7949219 -3.06712,-1.7680012 -13.58593,-7.920214 -29.01758,-16.9746091 -1.71841,-1.008265 -5.46416,-3.201122 -8.32617,-4.873047 -2.8605,-1.671047 -5.50634,-3.225261 -5.66797,-3.324219 l -2.0664,-1.265625 0.0508,7.537109 0.043,6.3945317 1.41211,0.5234375 c 0.31047,0.1151093 1.86809,0.6519877 3.15039,1.0957032 h -0.37891 l -5.4707,0.00586 v -9.0742184 c 0,-2.77781 0.007,-5.304239 0.0195,-7.132812 0.003,-0.513718 0.008,-0.821355 0.0117,-1.214844 z M 89.662109,-4.2910156 c -9.647114,-0.011435 -18.399115,-0.00746 -24.732422,0.00781 -3.166653,0.00764 -5.728939,0.018298 -7.496093,0.03125 -0.883577,0.00648 -1.566983,0.013765 -2.033203,0.021484 -0.233111,0.00386 -0.410515,0.00718 -0.539063,0.011719 -0.06427,0.00227 -0.11366,0.00359 -0.169922,0.00781 -0.02813,0.00211 -0.05088,0.00365 -0.123047,0.015625 -0.01804,0.00299 -0.03912,0.00582 -0.07227,0.013672 -0.03315,0.00785 -0.157553,0.050513 -0.158203,0.050781 -6.51e-4,2.684e-4 -0.480299,0.4020744 -0.480469,0.4023438 -1.71e-4,2.693e-4 0.195001,1.3298078 0.195312,1.3300781 0.140603,0.1222209 0.150879,0.1104079 0.185547,0.1308594 0.03467,0.020451 0.06429,0.036685 0.09766,0.054687 0.06674,0.036005 0.144791,0.076693 0.240235,0.125 0.190887,0.096614 0.446232,0.2228436 0.755859,0.3730469 0.619255,0.3004065 1.44973,0.6948859 2.34375,1.1132812 l 3.44336,1.6113281 4.132812,0.00977 -0.386719,1.7480469 3.40625,1.6015625 3.615235,1.6992188 4.11914,-0.00195 -0.388672,1.7539063 3.394532,1.5976563 3.603515,1.6972653 h 3.576172 c -0.05837,0.04252 -0.12497,0.09176 -0.125,0.0918 -8.1e-5,9e-5 -0.220668,0.382701 -0.220703,0.382813 -3.5e-5,1.11e-4 -0.04298,0.394398 -0.04297,0.394531 1.1e-5,1.33e-4 0.05854,0.27133 0.05859,0.271484 5.7e-5,1.55e-4 0.07802,0.163887 0.07813,0.164063 2.05e-4,3.52e-4 0.08766,0.130485 0.119141,0.166016 0.03148,0.03553 0.05593,0.05955 0.07617,0.07813 0.08096,0.0743 0.109811,0.08752 0.136718,0.105468 0.05382,0.03589 0.08083,0.05204 0.113282,0.07031 0.06491,0.03655 0.135626,0.07138 0.224609,0.117187 0.177966,0.09162 0.423534,0.215852 0.728516,0.365235 0.609963,0.298764 1.449724,0.702205 2.378906,1.140625 l 3.574219,1.685546 11.726567,0.0098 11.79492,0.0098 1.6875,-1.0625 c 2.64616,-1.665845 5.3863,-2.811523 7.77734,-3.285156 1.23444,-0.244525 5.70428,-0.198976 7.40821,0.128906 0.43525,0.08376 0.83491,0.157929 1.13476,0.208984 0.14993,0.02553 0.27224,0.04431 0.37305,0.05859 0.0504,0.0071 0.0923,0.0145 0.14648,0.01953 0.0271,0.0025 0.0548,0.0053 0.11328,0.0059 0.0293,2.86e-4 0.0649,0.0012 0.14063,-0.0078 0.0378,-0.0045 0.16343,-0.03302 0.16406,-0.0332 3.2e-4,-9.1e-5 0.15212,-0.05653 0.15235,-0.05664 2.2e-4,-1.06e-4 0.23151,-0.15047 0.23437,-0.152343 5.8e-4,-4.96e-4 0.25744,-0.331262 0.25781,-0.332032 3.8e-4,-7.7e-4 0.0765,-0.203371 0.0898,-0.28125 0.0267,-0.155757 0.0153,-0.248025 0.006,-0.318359 -0.0189,-0.140669 -0.0433,-0.198842 -0.0625,-0.25 -0.0384,-0.102317 -0.0686,-0.154282 -0.0996,-0.210938 -0.0508,-0.09289 -0.10967,-0.181849 -0.17188,-0.273437 0.11637,0.07103 0.33071,0.188528 0.33399,0.191406 0.0871,0.0765 0.19016,0.20198 0.50976,0.304688 0.31961,0.102708 0.86372,-0.02619 1.08985,-0.210938 0.45225,-0.369495 0.44251,-0.564588 0.61328,-0.9042968 0.60782,-1.2091892 0.95703,-2.7649106 0.95703,-4.1738282 0,-2.2285052 -1.36436,-4.0448484 -3.71094,-5.22656247 -0.69455,-0.34977109 -1.71154,-0.68664784 -2.73828,-0.97851563 -1.02674,-0.29186779 -1.89488,-0.5318722 -2.6582,-0.5351562 -0.26555,-0.00115 -0.31693,-0.022608 -0.34375,-0.023437 -0.1049,-0.2422145 -0.15546,-0.5396677 -0.31055,-0.7089844 -0.2718,-0.2967265 -0.59485,-0.5397057 -0.96875,-0.7714844 -0.74781,-0.4635574 -1.704,-0.8697137 -2.7793,-1.1757813 L 124.88281,-4.25 Z m -0.002,2.0625 34.933591,0.041016 1,0.2851563 c 0.91523,0.2605074 1.73095,0.6187158 2.25781,0.94531245 0.26343,0.16329832 0.45336,0.32086133 0.53516,0.41015625 0.0818,0.0892949 0.004,0.082942 0.004,-0.15039062 0,0.48555371 0.41945,1.1318775 0.86329,1.33593749 0.44384,0.20406 0.83022,0.21476052 1.29882,0.21679688 0.0967,4.1594e-4 1.14924,0.18631625 2.10157,0.45703125 0.95233,0.270715 1.97199,0.6329876 2.375,0.8359375 1.95552,0.9847839 2.57617,1.8884529 2.57617,3.3847656 0,0.9130412 -0.30939,2.0521504 -0.6543,2.8828125 -0.099,-0.050587 -0.17002,-0.1178138 -0.27734,-0.1699218 -0.45757,-0.2221677 -0.96052,-0.4285467 -1.43164,-0.5742188 -0.5791,-0.1790561 -1.29493,-0.2777771 -2.00977,-0.3398438 -0.71484,-0.062067 -1.26715,-0.132097 -1.91797,0.03125 -0.1147,0.028791 -0.18565,0.00438 -0.48437,0.1855469 -0.14936,0.090583 -0.51536,0.3651054 -0.52539,0.8964844 -0.01,0.531379 0.29408,0.7685611 0.42187,0.8691406 0.25558,0.2011592 0.35175,0.2071781 0.50586,0.2675782 0.0925,0.03624 0.223,0.081364 0.33985,0.1230468 -2.06523,-0.1490995 -4.3148,-0.1800986 -5.69727,0.09375 -2.71307,0.5374225 -5.64661,1.7834085 -8.47266,3.5624995 l -1.18554,0.744141 -11.19727,-0.0098 -11.265621,-0.0098 -2.513672,-1.185547 c 1.303738,-0.0028 2.563123,-0.0052 4.19336,-0.0039 l 9.599603,0.0078 V 10.978516 9.0527344 H 93.423828 83.076172 l -2.441406,-1.1503907 6.648437,-0.021484 12.25,-0.041016 V 5.9199219 3.9960938 L 85.308594,4 72.347656,4.0058594 69.894531,2.8515625 79.238281,2.8261719 94.251953,2.7851563 94.150391,0.84960938 94.054687,-0.97851563 77.214844,-1.015625 61.580078,-1.0507812 59.126953,-2.1972656 c 1.636307,-0.00916 3.3513,-0.017515 5.806641,-0.023437 6.329539,-0.015266 15.081463,-0.019245 24.726562,-0.00781 z"
         id="path62" /></g><path
       style="fill:#2e6a42;stroke-width:0.561814;fill-opacity:1"
       d="M 49.609702,74.916344 V 64.808363 l 6.503295,0.01174 c 3.576814,0.0065 6.402961,0.05003 6.280327,0.09683 -0.122635,0.04681 -2.263149,0.782467 -4.756697,1.6348 -2.493549,0.852332 -4.584712,1.598886 -4.647027,1.659007 -0.06232,0.06012 -0.09576,2.621726 -0.07433,5.692456 l 0.03899,5.583147 3.047257,-1.783629 c 1.675993,-0.980994 5.355001,-3.134067 8.175573,-4.784605 2.820571,-1.650537 11.014726,-6.446552 18.209229,-10.657809 7.194501,-4.211259 13.699657,-8.011243 14.455899,-8.444411 0.756241,-0.433169 1.374984,-0.835507 1.374984,-0.894085 0,-0.05857 -0.819416,-0.578848 -1.820925,-1.156155 -3.08023,-1.775555 -13.591129,-7.924721 -29.023284,-16.979419 -1.716871,-1.00736 -5.46277,-3.199237 -8.324221,-4.870837 -2.86145,-1.6716 -5.420834,-3.172859 -5.687518,-3.336132 l -0.484881,-0.296863 0.03895,5.682511 0.03895,5.682511 0.743233,0.275555 c 0.408778,0.151555 2.582737,0.907384 4.831021,1.679618 l 4.087786,1.404063 -6.503297,0.0091 -6.503296,0.0091 V 30.916948 c 0,-5.55939 0.03048,-10.10798 0.06775,-10.10798 0.03727,0 1.057348,0.590185 2.266862,1.311523 1.209516,0.721337 2.533574,1.500299 2.942353,1.731025 0.674978,0.380975 2.036153,1.176008 6.614781,3.863549 0.858435,0.503881 2.865167,1.677481 4.459403,2.608002 1.594241,0.930521 4.202992,2.458287 5.797226,3.395032 1.594238,0.936747 4.671223,2.739064 6.837755,4.005145 5.773607,3.374005 16.310242,9.556897 20.6619,12.124395 2.08476,1.230025 4.10764,2.407026 4.4953,2.615559 0.38765,0.208533 0.70394,0.412595 0.70286,0.453472 -0.001,0.04087 -0.48546,0.348268 -1.07644,0.683087 -1.04095,0.589766 -5.215898,3.032275 -14.15538,8.281428 -4.729934,2.77736 -13.526495,7.930858 -16.797082,9.840632 -1.144579,0.668348 -3.485767,2.040397 -5.202639,3.048998 -1.716873,1.008601 -3.489485,2.046249 -3.939141,2.305884 -0.449656,0.259637 -1.820923,1.060749 -3.047258,1.780251 -1.226337,0.7195 -3.233068,1.891707 -4.459405,2.604901 -1.226336,0.713194 -3.08934,1.806524 -4.140009,2.429621 -1.050672,0.623097 -1.936978,1.132903 -1.96957,1.132903 -0.03259,0 -0.05926,-4.548591 -0.05926,-10.107981 z M 36.805226,60.524728 c -1.850972,-0.873351 -3.34832,-1.606762 -3.327437,-1.629802 0.02087,-0.02305 3.893222,-0.03871 8.605202,-0.03486 l 8.567236,0.0071 v -0.89417 -0.894188 H 40.071844 29.49346 l -3.394301,-1.597954 -3.394301,-1.597952 11.222719,-0.0381 11.22272,-0.0381 v -0.892478 -0.892482 l -13.192401,0.0054 -13.192401,0.0054 -3.406822,-1.601784 -3.406821,-1.601785 13.930976,-0.03793 13.930977,-0.03793 -0.04455,-0.853956 -0.04455,-0.853955 -15.863678,-0.0352 L 7.9973454,46.974788 4.7599141,45.460007 C 2.9793301,44.626706 1.4573455,43.88843 1.3777272,43.819221 1.2981139,43.750021 17.017508,43.712103 36.309721,43.73497 l 35.076753,0.04159 1.13776,0.323847 c 1.990532,0.566575 3.544611,1.52993 3.544611,2.197261 0,0.370049 0.323606,0.518827 1.136152,0.522358 0.859998,0.0037 3.839368,0.850655 4.936924,1.403376 2.151047,1.083249 3.143027,2.441672 3.143027,4.304081 0,1.218494 -0.337579,2.69823 -0.846533,3.710721 -0.329188,0.654867 -0.384836,0.700335 -0.612494,0.500422 -0.359011,-0.315253 -1.440258,-0.840242 -2.239529,-1.087377 -0.851188,-0.263188 -2.811803,-0.433421 -3.372123,-0.292788 -0.386259,0.09695 -0.3432,0.130835 0.572945,0.450963 1.024215,0.357889 2.747318,1.478151 3.143424,2.043677 0.12424,0.177372 0.210704,0.335475 0.192147,0.351339 -0.01854,0.01587 -0.736101,-0.106309 -1.594536,-0.271499 -1.953109,-0.375832 -6.200828,-0.445438 -7.803954,-0.127882 -2.552059,0.505528 -5.389341,1.700927 -8.125434,3.423395 l -1.436326,0.904217 -11.495943,-0.01015 -11.495944,-0.01005 z"
       id="path60" /></g></svg>
