<?xml version="1.0" encoding="UTF-8" standalone="no"?>
<!-- Created with Inkscape (http://www.inkscape.org/) -->

<svg
   width="105.83334mm"
   height="105.83334mm"
   viewBox="0 0 105.83333 105.83333"
   version="1.1"
   id="svg1"
   xml:space="preserve"
   inkscape:version="1.4 (e7c3feb100, 2024-10-09)"
   sodipodi:docname="toronto.svg"
   inkscape:export-filename="../pngs/detroit.png"
   inkscape:export-xdpi="96"
   inkscape:export-ydpi="96"
   xmlns:inkscape="http://www.inkscape.org/namespaces/inkscape"
   xmlns:sodipodi="http://sodipodi.sourceforge.net/DTD/sodipodi-0.dtd"
   xmlns="http://www.w3.org/2000/svg"
   xmlns:svg="http://www.w3.org/2000/svg"><sodipodi:namedview
     id="namedview1"
     pagecolor="#ffffff"
     bordercolor="#000000"
     borderopacity="0.25"
     inkscape:showpageshadow="2"
     inkscape:pageopacity="0.0"
     inkscape:pagecheckerboard="0"
     inkscape:deskcolor="#d1d1d1"
     inkscape:document-units="mm"
     inkscape:zoom="1"
     inkscape:cx="302.5"
     inkscape:cy="124"
     inkscape:window-width="1920"
     inkscape:window-height="1011"
     inkscape:window-x="0"
     inkscape:window-y="32"
     inkscape:window-maximized="1"
     inkscape:current-layer="svg1"
     showgrid="false"
     showguides="true" /><defs
     id="defs1" /><g
     inkscape:groupmode="layer"
     id="layer3"
     inkscape:label="Capa 3" /><g
     inkscape:groupmode="layer"
     id="layer2"
     inkscape:label="Capa 2" /><g
     id="g2"
     transform="matrix(0.96095619,0,0,0.96095619,-45.22499,29.016886)"><circle
       style="fill:#ffffff;fill-opacity:1;stroke:none;stroke-width:1.01672;stroke-dasharray:none"
       id="path12-8-6"
       cx="102.12917"
       cy="-24.870838"
       r="54.212601"
       transform="scale(1,-1)" /><circle
       style="fill:#753bbd;fill-opacity:1;stroke:none;stroke-width:8.858;stroke-dasharray:none"
       id="path12-8"
       cx="102.12917"
       cy="-24.870838"
       r="51.055557"
       transform="scale(1,-1)" /><circle
       style="fill:#a1a1a4;fill-opacity:1;stroke:none;stroke-width:0.664959;stroke-dasharray:none"
       id="path12"
       cx="102.12886"
       cy="24.870838"
       r="35.455803" /><path
       style="font-size:19.7556px;line-height:1;font-family:Sport;-inkscape-font-specification:Sport;text-align:center;letter-spacing:-1.95527px;word-spacing:0px;text-anchor:middle;fill:#ffffff;stroke-width:0.702271"
       d="m 55.124317,25.238645 q 0.0031,-0.513322 0.200014,-0.956101 0.183037,-0.442863 0.518013,-0.773816 0.321103,-0.33104 0.766231,-0.522585 0.431253,-0.191634 0.9307,-0.188617 0.499447,0.003 0.942227,0.199929 0.428906,0.196828 0.75986,0.531805 0.330955,0.334974 0.522499,0.780102 0.177677,0.445044 0.174571,0.958365 l -0.0082,1.359607 0.915653,0.0055 0.0036,-0.596561 1.498341,0.0091 -0.01668,2.760834 -1.498342,-0.0091 0.0038,-0.624308 -4.231428,-0.02557 -0.0038,0.624311 -1.498343,-0.0091 0.01752,-2.899569 z m 3.315775,0.02003 q 0.0029,-0.485575 -0.203913,-0.694935 -0.220638,-0.223316 -0.70621,-0.22625 -0.4717,-0.0029 -0.681143,0.217872 -0.223234,0.206763 -0.226168,0.692336 l -0.0038,0.624309 -0.0045,0.735298 1.817433,0.01098 z m -0.380703,1.010506 -1.068262,-0.0065 0.0061,-1.012768 q 0.0034,-0.568815 0.530631,-0.56563 0.291344,0.0017 0.415367,0.14125 0.124131,0.125593 0.122304,0.430824 z m -3.319171,2.837998 2.23364,0.01349 0.0038,-0.624309 3.482259,0.02104 -0.0038,0.62431 2.23364,0.01349 0.02096,-3.468384 -2.23364,-0.01349 -0.0037,0.610436 -0.180353,-0.0011 0.0061,-1.012769 q 0.0035,-0.582656 -0.201482,-1.097234 -0.218878,-0.514661 -0.591198,-0.891511 -0.372332,-0.376838 -0.870428,-0.601842 -0.511979,-0.225079 -1.094668,-0.228599 -0.568815,-0.0035 -1.069605,0.21552 -0.514661,0.218879 -0.891511,0.591198 -0.37685,0.372322 -0.588053,0.884385 -0.225078,0.511981 -0.228598,1.094669 z m -0.698037,-3.875073 q 0.0044,-0.721424 0.285686,-1.35793 0.267453,-0.63659 0.742003,-1.10544 0.47455,-0.468851 1.114411,-0.742466 0.639857,-0.273614 1.361282,-0.269256 0.693676,0.0042 1.302603,0.257603 0.608928,0.253412 1.077946,0.700216 0.45523,0.432843 0.742968,1.031166 0.287824,0.58445 0.339317,1.250709 l 2.427869,0.01467 -0.02926,4.841864 -3.662614,-0.02212 0.0038,-0.624311 -2.067157,-0.01248 -0.0038,0.624308 -3.662615,-0.02212 z m 5.119686,-11.585988 q 0.666022,0.136252 1.137415,0.600878 0.474175,0.451034 0.670009,1.085865 l 1.321561,-0.437699 0.119569,-0.584466 1.467966,0.300311 -0.567255,2.772824 -1.467966,-0.300312 0.130691,-0.638836 -1.002756,0.33298 -0.211331,1.033013 -0.12791,0.625245 0.89709,0.183524 0.127911,-0.625244 1.467965,0.300311 -0.567257,2.772824 -1.467966,-0.300311 0.125131,-0.611653 -4.145644,-0.848103 -0.125131,0.611653 -1.467965,-0.300312 0.567254,-2.772824 0.125131,-0.611653 0.06117,-0.29903 0.06395,-0.312623 q 0.102885,-0.502914 0.384939,-0.91253 0.268462,-0.412397 0.664193,-0.685467 0.395731,-0.273072 0.869613,-0.374382 0.460289,-0.104093 0.949612,-0.004 z m 0.380198,2.640946 q 0.100103,-0.489323 -0.06207,-0.734916 -0.159393,-0.259187 -0.635123,-0.35651 -0.47573,-0.09732 -0.724105,0.07844 -0.259186,0.159394 -0.35929,0.648715 l -0.12513,0.611654 -0.12513,0.61165 -0.127911,0.625247 1.78059,0.364266 0.127909,-0.625244 z m -0.675646,1.433664 -1.046605,-0.21411 0.308653,-1.508743 q 0.06117,-0.29903 0.211312,-0.409926 0.150138,-0.110898 0.435576,-0.0525 0.285439,0.05839 0.379963,0.219343 0.08093,0.158171 0.01976,0.457198 z m 0.364964,-4.414418 q -0.570875,-0.116787 -1.104688,5.85e-4 -0.547403,0.114597 -0.992255,0.420099 -0.44485,0.305506 -0.7544,0.780301 -0.32036,0.458425 -0.439929,1.042893 l -0.889814,4.349528 2.188358,0.447687 0.125129,-0.611652 3.411663,0.697946 -0.125131,0.611654 2.188357,0.447686 0.71185,-3.479623 -2.188355,-0.447687 -0.130692,0.638837 -0.1767,-0.03615 0.225233,-1.100975 q 0.04635,-0.01883 0.10627,-0.03489 0.05994,-0.01606 0.09268,-0.03768 l -0.07508,0.366992 2.188356,0.447688 0.709071,-3.466031 -2.188357,-0.447687 -0.150157,0.733983 -0.776627,0.265953 Q 60.924841,14.304175 60.41792,13.874764 59.911,13.445353 59.231386,13.306321 Z m 0.141814,-0.693205 q 0.625245,0.127911 1.15163,0.462175 0.512793,0.331483 0.869887,0.801049 l 0.166841,-0.815537 3.588363,0.734095 -1.74626,8.53595 -3.588359,-0.734095 0.127909,-0.625244 -2.025249,-0.414321 -0.127911,0.625245 -3.588361,-0.734096 1.031627,-5.042735 q 0.147376,-0.720391 0.549912,-1.303614 0.388945,-0.586005 0.961998,-0.964411 0.559461,-0.381186 1.240318,-0.52512 0.68086,-0.143937 1.387657,6.59e-4 z m -0.0056,-6.2282693 0.24329,-0.559871 0.779632,-1.794133 2.214035,0.962099 -0.652456,1.501472 -0.839808,-0.364933 -0.127173,0.292658 -0.24329,0.559873 -0.375993,0.865255 -0.248818,0.572596 1.246986,0.541871 0.868099,-1.997722 1.386953,0.602693 -0.868099,1.997722 1.246987,0.5418713 0.248818,-0.5725943 0.375992,-0.865256 0.243289,-0.559871 0.127174,-0.292661 -0.839806,-0.364933 0.652457,-1.501472 2.214037,0.962097 -0.779632,1.794134 -0.24329,0.55987 -0.375992,0.8652553 -1.116919,2.570318 -1.37423,-0.597164 0.248819,-0.572596 -3.880926,-1.6864363 -0.248818,0.5725953 -1.37423,-0.5971633 1.11692,-2.570318 z m 1.236738,1.853474 0.71328,-1.641441 0.572596,0.248819 -0.713281,1.64144 z m 3.193811,1.387853 -0.572596,-0.248817 0.71328,-1.641441 0.572596,0.248819 z m -3.600228,-6.057202 -2.792296,6.425795 2.048619,0.8902173 0.248819,-0.572595 3.19381,1.387854 -0.248818,0.572596 2.048618,0.890217 2.792298,-6.4257943 -2.875703,-1.249622 -0.77963,1.794133 -1.539646,-0.669046 0.779631,-1.794132 z m 3.819363,0.888205 -0.779632,1.794132 0.216313,0.09399 0.779633,-1.794133 4.199033,1.824669 -3.350756,7.7109533 -3.359228,-1.459737 0.24882,-0.572595 -1.895928,-0.823865 -0.248818,0.572595 -3.359227,-1.459734 3.350755,-7.7109533 z m 0.555726,-7.029154 q 0.296227,-0.419235 0.71906,-0.681062 0.411501,-0.26983 0.875584,-0.349617 0.472089,-0.09112 0.946756,0.0065 0.463337,0.08956 0.871239,0.377785 l 1.722256,1.216937 0.237944,0.168131 q 0.407907,0.288219 0.658397,0.703048 0.239164,0.40681997 0.310942,0.88223497 0.07979,0.464083 -0.02579,0.950082 -0.116904,0.47799003 -0.413133,0.89722303 l -0.680521,0.963103 -1.625253,2.30012 -1.223709,-0.864668 0.368283,-0.521207 -3.455844,-2.441883 -0.368283,0.521208 -1.223709,-0.86466703 1.625254,-2.30011697 z m 2.51595,0.622589 q -0.39657,-0.280218 -0.694631,-0.219018 -0.309389,0.05319 -0.597612,0.461093 l -0.680524,0.96310497 -0.360278,0.509879 3.455845,2.44188203 0.360278,-0.509879 0.680523,-0.96310403 q 0.288224,-0.407902 0.246363,-0.709285 -0.05319,-0.309388 -0.449764,-0.589606 L 67.326899,-1.7812693 Z m 1.752037,1.67966697 q 0.237943,0.16813 0.259856,0.353493 0.02191,0.185361 -0.154222,0.434635 l -0.832642,1.17838703 -2.84399,-2.00954903 0.832643,-1.17838697 q 0.176137,-0.249273 0.35817,-0.290526 0.182038,-0.04125 0.419982,0.126878 z m -7.076525,1.047403 1.824232,1.28899503 0.368285,-0.521209 2.843989,2.009549 -0.368284,0.521209 1.824232,1.288995 2.513939,-3.557821 q 0.344265,-0.487216 0.470534,-1.02654303 0.122945,-0.558663 0.04119,-1.092088 -0.08176,-0.533423 -0.361559,-1.00293497 -0.291135,-0.47752 -0.767022,-0.81378 l -1.960204,-1.385068 q -0.475885,-0.336259 -1.011887,-0.443192 -0.547332,-0.114936 -1.077432,-0.01385 -0.5301,0.101092 -1.004294,0.411563 -0.477519,0.291136 -0.821784,0.778353 z m 1.924745,-3.97413897 q 0.424329,-0.600524 1.027228,-0.972942 0.591573,-0.380423 1.26836,-0.496779 0.665458,-0.124363 1.34679,0.01731 0.681334,0.141671 1.270526,0.557992 l 1.960201,1.385067 q 0.600525,0.424327 0.961612,1.019222 0.349755,0.586889 0.466111,1.26367797 0.105028,0.668782 -0.04465,1.361448 -0.161009,0.68465603 -0.585336,1.28518003 l -2.914246,4.124352 -2.991289,-2.11363 0.368285,-0.52121 -1.688265,-1.192919 -0.368285,0.521209 -2.991286,-2.11362903 z m 2.558955,2.72548397 1.688264,1.192919 0.368284,-0.521209 -1.688231,-1.19292 z m 10.678541,-6.98562997 0.482506,-0.458986 1.032716,1.085637 -2.12101,2.017627 -1.032716,-1.085638 0.4624,-0.43986 -0.368753,-0.166225 -2.100905,1.998502 0.147608,0.376591 0.462401,-0.439861 1.032717,1.085636 -2.110957,2.008064 -1.032717,-1.085636 0.4624,-0.439862 -1.549379,-4.366374 -0.432241,0.411177 -1.032716,-1.085637 2.814609,-2.6774177 1.032716,1.0856357 -0.432242,0.411178 z m -2.875951,0.418825 -1.952382,-0.804395 0.705912,1.990109 z m -1.082949,0.532307 q -0.08214,-0.247385 -0.137555,-0.386156 -0.05542,-0.13877 -0.110338,-0.297155 0.281714,0.114984 0.417545,0.177257 0.12627,0.05222 0.262588,0.09488 z m 0.345648,-2.837227 0.281459,-0.267744 -1.539515,-1.6184007 -3.337323,3.1746527 1.539515,1.618402 0.281459,-0.267745 q 0.329538,0.950311 0.650988,1.831725 0.321447,0.881415 0.623283,1.762339 l -0.562923,0.535485 1.539514,1.61840097 2.643723,-2.51485997 -1.281334,-1.346994 0.87454,-0.831913 1.281334,1.346994 2.653775,-2.524423 -1.539514,-1.618402 -0.583028,0.554609 z m 1.281795,-0.242754 2.088212,0.866669 0.774017,-0.73629 2.524424,2.653775 -7.217464,6.86566497 -2.524422,-2.65377497 0.74386,-0.707602 -0.761325,-2.128881 -2.524423,-2.653775 4.392802,-4.1786857 2.524422,2.6537757 z m 5.407929,-6.7460717 1.444018,2.238409 -1.294081,0.834822 -0.631757,-0.979304 -0.582919,0.376046 2.293882,3.555806 0.512968,-0.33092 0.812259,1.2591047 -2.331676,1.504184 -0.812259,-1.259105 0.524626,-0.338441 -2.29388,-3.5558067 -0.582919,0.376047 0.631757,0.979303 -1.29408,0.834822 -1.444017,-2.238408 z m -5.546741,3.148985 1.842627,2.856302 1.888657,-1.218388 1.255993,1.9469497 -0.524626,0.338441 1.210867,1.876999 2.914596,-1.88023 -1.210868,-1.8769987 -0.512968,0.33092 -1.255993,-1.94695 1.876999,-1.210869 -1.842626,-2.856303 z m 5.834488,-4.622408 2.61728,4.057117 -1.876998,1.210868 0.48886,0.757794 0.51297,-0.33092 1.985522,3.0778127 -4.080434,2.632323 -1.985523,-3.077814 0.524627,-0.338441 -0.488858,-0.7577947 -1.877002,1.2108677 -2.61728,-4.0571167 z m 5.824158,-1.31951 q 0.475572,-0.193237 0.959992,-0.180417 0.492052,-0.0053 0.925874,0.177879 0.433822,0.183135 0.780891,0.521322 0.341848,0.325333 0.529863,0.788051 l 0.793844,1.953694 0.109673,0.269918 q 0.188019,0.462716 0.175199,0.947137 -0.01805,0.471568 -0.201178,0.90539 -0.183134,0.433821 -0.534175,0.786114 -0.34341,0.334217 -0.818979,0.527455 l -1.131088,0.459594 q -0.475569,0.193237 -0.96762,0.198493 -0.484422,-0.01282 -0.918243,-0.195956 -0.433821,-0.183134 -0.775669,-0.508467 -0.347075,-0.338183 -0.535086,-0.800904 l -0.109674,-0.269919 -0.793843,-1.953694 q -0.188019,-0.462716 -0.169972,-0.934285 0.01282,-0.484421 0.195954,-0.918243 0.183134,-0.433821 0.526544,-0.768039 0.35104,-0.352294 0.826611,-0.545531 z m 1.769908,1.886551 q -0.182792,-0.449864 -0.466789,-0.559096 -0.289214,-0.12209 -0.739078,0.0607 l -1.131086,0.459593 q -0.449863,0.182792 -0.571952,0.472007 -0.114461,0.271139 0.06833,0.721003 l 0.793842,1.953694 0.109673,0.269919 q 0.182793,0.449864 0.459156,0.577174 0.283993,0.109236 0.733857,-0.07356 l 1.131086,-0.459593 q 0.449863,-0.182793 0.577175,-0.459154 0.122091,-0.289215 -0.06069,-0.739078 l -0.109677,-0.269922 z m 0.58219,2.354178 q 0.109674,0.269919 0.02814,0.437824 -0.08153,0.167905 -0.364299,0.282804 l -1.13108,0.45959 q -0.28277,0.114898 -0.458306,0.05145 -0.162687,-0.06867 -0.272361,-0.338592 l -0.903516,-2.223614 q -0.109673,-0.269918 -0.041,-0.4326 0.08153,-0.167906 0.364299,-0.282804 l 1.131086,-0.459593 q 0.282771,-0.114901 0.458308,-0.05145 0.175538,0.06345 0.285213,0.333369 z m -3.618951,-4.115319 q -0.539838,0.219347 -0.931844,0.618241 -0.397231,0.386038 -0.61611,0.87931 -0.206026,0.48805 -0.21844,1.047182 -0.01764,0.546279 0.201714,1.086116 l 0.903518,2.223612 q 0.219348,0.539838 0.618241,0.931844 0.393664,0.379158 0.881717,0.585181 0.500902,0.200805 1.060036,0.213218 0.55391,-4.39e-4 1.093746,-0.219791 l 1.131085,-0.459593 q 0.53984,-0.219353 0.93707,-0.60539 0.404862,-0.404113 0.610886,-0.892161 0.21888,-0.493273 0.236517,-1.039552 0.01241,-0.559133 -0.206938,-1.098969 l -0.903519,-2.223612 q -0.219356,-0.539836 -0.613019,-0.918991 -0.39886,-0.392039 -0.899793,-0.592812 -0.488049,-0.206026 -1.054813,-0.200364 -0.559132,-0.01241 -1.098969,0.206939 z m 0.859509,-1.127962 q 0.668368,-0.271577 1.364071,-0.254755 0.703333,-0.0012 1.323136,0.271042 0.627433,0.254218 1.124741,0.741014 0.497288,0.486814 0.768885,1.155166 l 0.90352,2.223609 q 0.276802,0.681222 0.259979,1.376925 -0.02205,0.682849 -0.289117,1.315506 -0.25944,0.61458 -0.759091,1.11711 -0.49202,0.484452 -1.160389,0.756031 l -1.131085,0.459594 q -0.681226,0.276801 -1.371705,0.27283 -0.695703,-0.01682 -1.310283,-0.276262 -0.619804,-0.272294 -1.111889,-0.746237 -0.497289,-0.486815 -0.774107,-1.168019 l -0.903517,-2.223613 q -0.271578,-0.668369 -0.254756,-1.364071 0.01682,-0.695703 0.276264,-1.310283 0.254218,-0.627435 0.746236,-1.111888 0.486797,-0.497308 1.16802,-0.774108 z m 0.363371,3.805848 0.778175,1.915135 0.912581,-0.370808 -0.778175,-1.915135 z m 12.546845,-3.557402 q 0.124737,0.668272 -0.12804,1.279988 -0.239135,0.609169 -0.753394,1.029761 l 0.903375,1.059253 0.586445,-0.109459 0.274919,1.472934 -2.782208,0.51929 -0.274918,-1.472933 0.641,-0.119641 -0.686263,-0.803392 -1.036507,0.19346 -0.627361,0.117095 0.168005,0.900126 0.62736,-0.117096 0.274919,1.472934 -2.782207,0.51929 -0.274918,-1.472932 0.613722,-0.11455 -0.776391,-4.159672 -0.613721,0.114552 -0.274917,-1.472933 2.782205,-0.519291 0.613721,-0.114552 0.300043,-0.056 0.313679,-0.05855 q 0.504614,-0.09419 0.990317,0.01275 0.483154,0.0933 0.885204,0.356975 0.402049,0.26368 0.674448,0.664461 0.269849,0.387149 0.361487,0.878126 z m -2.303064,1.347228 q 0.490977,-0.09164 0.657368,-0.334397 0.180029,-0.245302 0.09094,-0.722642 -0.08909,-0.47734 -0.345489,-0.641185 -0.245301,-0.180031 -0.736279,-0.08839 l -0.613722,0.114553 -0.613721,0.114552 -0.627361,0.117092 0.333466,1.786613 0.627361,-0.117092 z m -1.582577,-0.08568 -0.196007,-1.050147 1.513849,-0.282555 q 0.300042,-0.056 0.459334,0.04129 0.159294,0.09729 0.212748,0.383693 0.05346,0.286403 -0.06002,0.434602 -0.116017,0.134562 -0.416058,0.190568 z m 4.2266,-1.325191 q -0.106915,-0.572806 -0.416765,-1.023056 -0.312397,-0.463887 -0.763018,-0.760826 -0.450582,-0.296977 -1.007018,-0.404821 -0.545346,-0.124027 -1.13179,-0.01457 l -4.364246,0.814573 0.409833,2.195761 0.613721,-0.114552 0.63893,3.423205 -0.613722,0.11455 0.409832,2.195761 3.491397,-0.651658 -0.409832,-2.195762 -0.640999,0.119641 -0.03309,-0.177298 1.104697,-0.206189 q 0.03492,0.03582 0.07237,0.08529 0.03743,0.04949 0.06982,0.07165 l -0.368235,0.06873 0.409833,2.19576 3.477758,-0.649112 -0.409831,-2.195762 -0.736468,0.13746 -0.538971,-0.619185 q 0.449525,-0.464964 0.656292,-1.096319 0.206767,-0.631354 0.07949,-1.313268 z m 0.695553,-0.129818 q 0.117092,0.62736 0.0058,1.240896 -0.113844,0.599897 -0.41426,1.107597 l 0.818289,-0.152732 0.67202,3.600502 -8.564829,1.598601 -0.672024,-3.600503 0.62736,-0.117095 -0.379285,-2.032102 -0.627361,0.117093 -0.672023,-3.600503 5.059798,-0.944396 q 0.722826,-0.134915 1.414737,0.01822 0.689363,0.139487 1.255797,0.527732 0.563887,0.374608 0.953742,0.951063 0.38986,0.576448 0.522228,1.285638 z m 2.089139,-0.06277 q 0.0108,-0.49934 0.21421,-0.925143 0.20375,-0.439674 0.54352,-0.751523 0.34007,-0.32572 0.78781,-0.496472 0.46192,-0.184327 0.97513,-0.173265 l 3.62022,0.07802 -0.0454,2.108327 -1.53963,-0.03318 0.0131,-0.610305 -2.08059,-0.04484 q -0.48547,-0.01046 -0.71189,0.1928 -0.22641,0.203276 -0.23687,0.688747 l -0.007,0.305151 3.00991,0.06487 q 0.83224,0.01793 1.17123,0.386043 0.35318,0.354518 0.33583,1.159027 l -0.0129,0.596437 q -0.0108,0.499339 -0.21451,0.939012 -0.20346,0.425803 -0.54353,0.751524 -0.34006,0.32572 -0.80198,0.510042 -0.44774,0.170753 -0.96095,0.159692 l -3.62022,-0.07802 0.0454,-2.108327 1.53963,0.03318 -0.0132,0.610306 0.92933,0.02003 1.15126,0.02481 q 0.48547,0.01046 0.71188,-0.192817 0.22668,-0.21718 0.23717,-0.702617 l 0.006,-0.291282 0.007,-0.305152 -3.00991,-0.06487 q -0.81839,-0.01764 -1.17155,-0.372172 -0.35286,-0.368406 -0.33553,-1.172901 z m 4.21414,-0.436511 -0.0102,0.4716 -2.31639,-0.04992 q 0.024,-0.4713 0.59273,-0.459045 z m -4.56748,0.734191 q -0.0215,0.998681 0.41277,1.452104 0.43457,0.43957 1.43327,0.461076 l 2.66315,0.05739 -0.005,0.235799 q -0.006,0.291282 -0.14767,0.413127 -0.1414,0.121847 -0.44655,0.115274 l -1.73382,-0.03736 0.0128,-0.596435 -2.23316,-0.04813 -0.061,2.829596 3.96699,0.08549 q 0.58256,0.01255 1.10026,-0.184444 0.53186,-0.210571 0.91443,-0.577005 0.39645,-0.366134 0.62914,-0.860694 0.23299,-0.508429 0.24554,-1.090992 l 0.0129,-0.596436 q 0.0308,-1.428668 -0.9749,-1.769513 l 1.01256,0.02182 0.061,-2.829596 -3.98086,-0.08579 q -0.58254,-0.01255 -1.10053,0.198318 -0.51769,0.197 -0.91414,0.563135 -0.38258,0.366435 -0.61557,0.874863 -0.23269,0.494559 -0.24494,1.063252 z m -0.68696,-0.320098 q 0.0156,-0.72127 0.30671,-1.353338 0.29116,-0.632068 0.77292,-1.093504 0.48177,-0.461436 1.12549,-0.711227 0.64402,-0.263661 1.37916,-0.247819 l 4.67439,0.100734 -0.0918,4.258266 -0.12484,-0.0027 q 0.11499,0.460415 0.10242,1.042983 l -0.0129,0.596435 q -0.0158,0.735143 -0.307,1.367211 -0.29086,0.618197 -0.78679,1.093205 -0.48176,0.461436 -1.13966,0.724799 -0.64372,0.24979 -1.36499,0.234247 l -4.66052,-0.100436 0.0921,-4.272135 0.20806,0.0045 q -0.19641,-0.54544 -0.17937,-1.336062 z"
       id="text12"
       aria-label="PredatorS" /><path
       style="fill:#c1141f;fill-opacity:1;stroke:none;stroke-width:2.06692;stroke-dasharray:none"
       d="m 125.23349,61.04347 -0.56672,11.025467 -2.67909,0.46369 -1.49411,-0.772812 -2.78212,1.030422 c 0,0 -0.25761,-1.184984 -0.56674,-1.184984 -0.30912,0 -4.17319,0.618254 -4.17319,0.618254 l 0.46369,-2.576049 3.34886,-2.885169 -0.15456,-3.761025 -2.00932,-4.842963 -3.29733,-2.318441 -1.75171,-4.327754 11.33459,-3.60646 0.10304,4.018628 c 0,0 2.83365,3.091252 2.83365,3.400378 0,0.309126 1.39106,5.718818 1.39106,5.718818 z"
       id="path985" /><path
       d="m 128.40041,54.448319 1.19039,1.576253 -0.91127,0.688197 -0.5208,-0.689611 -0.41048,0.309999 1.89099,2.503943 0.36123,-0.272798 0.66959,0.886642 -1.64193,1.239994 -0.66959,-0.886642 0.36943,-0.278999 -1.89099,-2.503944 -0.41048,0.31 0.52079,0.68961 -0.91127,0.688197 -1.19039,-1.576253 z m -3.92943,2.632336 1.51899,2.011364 1.32996,-1.004394 1.0354,1.371011 -0.36943,0.278999 0.99819,1.321753 2.05241,-1.549993 -0.99819,-1.321753 -0.36123,0.272799 -1.03539,-1.371013 1.32175,-0.998195 -1.51899,-2.011364 z m 4.06155,-3.737686 2.15759,2.856958 -1.32175,0.998195 0.403,0.533627 0.36122,-0.272798 1.63679,2.167348 -2.87337,2.16999 -1.63679,-2.167348 0.36943,-0.278999 -0.403,-0.533627 -1.32175,0.998196 -2.15759,-2.856958 z m 3.15869,-2.104027 q 0.26371,-0.274497 0.59565,-0.412119 0.33165,-0.152168 0.68076,-0.159165 0.34911,-0.007 0.68629,0.117213 0.32977,0.11708 0.59685,0.373665 l 1.12766,1.08335 0.1558,0.149674 q 0.26708,0.256584 0.4047,0.588521 0.1302,0.324811 0.1372,0.673919 0.007,0.349107 -0.12434,0.693713 -0.13163,0.330058 -0.39534,0.604556 l -0.6272,0.652859 q -0.26371,0.274498 -0.59536,0.426666 -0.33194,0.137621 -0.68104,0.144619 -0.34911,0.007 -0.67888,-0.110085 -0.33718,-0.124213 -0.60426,-0.380793 l -0.1558,-0.149674 -1.12767,-1.08335 q -0.26708,-0.256583 -0.39728,-0.581394 -0.13762,-0.331938 -0.14462,-0.681046 -0.007,-0.349108 0.12463,-0.679167 0.13134,-0.344604 0.39505,-0.619102 z m 1.76842,0.743088 q -0.25966,-0.249456 -0.48499,-0.237661 -0.23273,0.0047 -0.48219,0.264325 l -0.6272,0.65286 q -0.24946,0.25966 -0.2448,0.492397 0.004,0.218193 0.26404,0.467649 l 1.12767,1.083348 0.15579,0.149674 q 0.25966,0.249456 0.48528,0.25221 0.22532,-0.01179 0.47477,-0.271452 l 0.6272,-0.65286 q 0.24946,-0.25966 0.25221,-0.485272 -0.005,-0.232739 -0.26432,-0.482194 l -0.1558,-0.149674 z m 1.10528,1.418495 q 0.15579,0.149674 0.15129,0.288008 -0.004,0.138334 -0.16131,0.30155 l -0.6272,0.652859 q -0.1568,0.163215 -0.29484,0.173258 -0.13092,0.0026 -0.28671,-0.147046 l -1.28347,-1.233024 q -0.15579,-0.149674 -0.15842,-0.28059 0.005,-0.138333 0.16131,-0.301548 l 0.6272,-0.652864 q 0.1568,-0.163215 0.29484,-0.173258 0.13805,-0.01004 0.29384,0.139633 z m -3.69379,-1.694036 q -0.29934,0.311592 -0.44435,0.700127 -0.15243,0.381409 -0.15169,0.781574 0.008,0.392745 0.16834,0.775158 0.15304,0.375285 0.46463,0.674631 l 1.28346,1.233027 q 0.3116,0.299347 0.70013,0.444356 0.38112,0.137881 0.77386,0.130009 0.39988,-0.01529 0.78229,-0.175752 0.37499,-0.167588 0.67434,-0.47918 l 0.6272,-0.65286 q 0.29935,-0.311593 0.45178,-0.693 0.15213,-0.395954 0.14426,-0.7887 -7.4e-4,-0.400166 -0.15379,-0.77545 -0.16046,-0.382412 -0.47205,-0.68176 l -1.28346,-1.233024 q -0.3116,-0.299347 -0.69271,-0.437227 -0.38853,-0.145012 -0.78841,-0.129718 -0.39275,0.0079 -0.77487,0.182879 -0.38241,0.160461 -0.68176,0.472053 z m 0.24142,-1.023479 q 0.37062,-0.385781 0.84686,-0.584503 0.47594,-0.213268 0.97793,-0.216053 0.5017,-0.01733 0.98551,0.162148 0.48381,0.179483 0.86959,0.550098 l 1.28347,1.233027 q 0.39319,0.377747 0.59192,0.853981 0.1913,0.469105 0.2015,0.978221 0.01,0.49457 -0.17669,0.985802 -0.1869,0.476687 -0.55752,0.862468 l -0.6272,0.65286 q -0.37775,0.393199 -0.84656,0.599048 -0.47624,0.198721 -0.97081,0.208635 -0.50198,0.0028 -0.97838,-0.169567 -0.48381,-0.179483 -0.87701,-0.557226 l -1.28347,-1.233024 q -0.38578,-0.37062 -0.5845,-0.846853 -0.19872,-0.476233 -0.20863,-0.970803 -0.0173,-0.501697 0.16956,-0.978383 0.17948,-0.483816 0.55723,-0.877014 z m 1.39553,2.467701 1.10541,1.061969 0.50603,-0.52674 -1.10541,-1.061968 z m 5.96989,-7.825806 q 0.41608,0.284587 0.60474,0.737682 0.19446,0.444604 0.14584,0.934831 l 1.02916,0.08071 0.24974,-0.365137 0.91708,0.627253 -1.18481,1.732276 -0.91708,-0.627252 0.27297,-0.399102 -0.78114,-0.06064 -0.4414,0.645357 -0.26717,0.390612 0.56045,0.383321 0.26716,-0.390611 0.91709,0.627251 -1.18481,1.732277 -0.91709,-0.627252 0.26136,-0.38212 -2.58993,-1.771406 -0.26135,0.38212 -0.91709,-0.627252 1.18481,-1.732276 0.26135,-0.38212 0.12778,-0.186814 0.13358,-0.195306 q 0.21489,-0.314188 0.52543,-0.513098 0.30205,-0.204719 0.65105,-0.277618 0.34899,-0.0729 0.70203,-0.0059 0.34455,0.06117 0.65025,0.270247 z m -0.49928,1.914483 q 0.20908,-0.305696 0.16883,-0.520187 -0.0344,-0.222983 -0.33165,-0.42626 -0.29721,-0.203274 -0.51751,-0.154528 -0.22298,0.03445 -0.43206,0.340143 l -0.26136,0.38212 -0.26135,0.382119 -0.26717,0.390612 1.1124,0.760833 0.26716,-0.390612 z m -0.87395,0.78575 -0.65385,-0.447208 0.64468,-0.942562 q 0.12777,-0.186814 0.26227,-0.219459 0.13451,-0.03265 0.31283,0.08932 0.17832,0.121966 0.19667,0.259152 0.01,0.131379 -0.11792,0.318193 z m 1.51842,-2.912522 q -0.35664,-0.243933 -0.75526,-0.317154 -0.40712,-0.07903 -0.79901,0.0019 -0.39189,0.08095 -0.73996,0.316511 -0.35076,0.221261 -0.6005,0.586398 l -1.85853,2.717299 1.36714,0.93507 0.26136,-0.38212 2.13138,1.457781 -0.26136,0.382119 1.36714,0.93507 1.48682,-2.173837 -1.36714,-0.93507 -0.27297,0.399103 -0.11039,-0.0755 0.47044,-0.687816 q 0.0371,4.43e-4 0.0827,0.0067 0.0456,0.0062 0.0742,8.85e-4 l -0.15681,0.229266 1.36714,0.93507 1.48101,-2.165346 -1.36714,-0.93507 -0.31362,0.458544 -0.60731,-0.04146 q -0.009,-0.479492 -0.23164,-0.918728 -0.22306,-0.439238 -0.64764,-0.729632 z m 0.29621,-0.43307 q 0.39061,0.267164 0.65433,0.64696 0.25522,0.373988 0.36433,0.797604 l 0.34848,-0.509494 2.24176,1.533283 -3.64735,5.332695 -2.24177,-1.533283 0.26716,-0.390611 -1.26524,-0.865376 -0.26716,0.390611 -2.24177,-1.533282 2.15473,-3.150365 q 0.30781,-0.450053 0.75062,-0.732998 0.43431,-0.288753 0.93479,-0.382681 0.49199,-0.09974 0.99875,-0.0024 0.50677,0.09733 0.94834,0.399339 z m 0.12423,-4.460475 q 0.16021,-0.345295 0.42941,-0.583308 0.2642,-0.251678 0.59209,-0.371737 0.32789,-0.120058 0.68714,-0.112156 0.34992,0.0036 0.68588,0.159445 l 1.4185,0.658128 0.19599,0.0909 q 0.33595,0.1559 0.57397,0.425104 0.22868,0.264876 0.34874,0.592765 0.12006,0.327889 0.10782,0.69647 -0.0172,0.35492 -0.17743,0.700213 l -0.38103,0.821238 q -0.1602,0.345294 -0.4244,0.59697 -0.26921,0.238015 -0.59709,0.358074 -0.32789,0.120059 -0.67781,0.116486 -0.35925,-0.0079 -0.69521,-0.163774 l -0.19599,-0.0909 -1.4185,-0.658129 q -0.33596,-0.155873 -0.56464,-0.420748 -0.23802,-0.269205 -0.35808,-0.597094 -0.12006,-0.327889 -0.10282,-0.682808 0.0122,-0.368582 0.17243,-0.713875 z m 1.91391,0.128124 q -0.32661,-0.151581 -0.53589,-0.06717 -0.21859,0.08004 -0.37013,0.406669 l -0.38102,0.821237 q -0.15155,0.326629 -0.0715,0.545222 0.075,0.20493 0.40167,0.356474 l 1.4185,0.658129 0.19599,0.0909 q 0.32661,0.151581 0.54089,0.08084 0.20926,-0.08437 0.3608,-0.410997 l 0.38103,-0.821239 q 0.15153,-0.32663 0.0808,-0.540891 -0.08,-0.218593 -0.40667,-0.370136 l -0.19599,-0.0909 z m 1.50624,0.98236 q 0.19599,0.0909 0.23667,0.223216 0.0407,0.132291 -0.0546,0.3376 l -0.38102,0.821239 q -0.0953,0.205307 -0.22254,0.259663 -0.12296,0.04503 -0.31894,-0.0459 l -1.61448,-0.749053 q -0.19599,-0.0909 -0.241,-0.213884 -0.0407,-0.132291 0.0546,-0.3376 l 0.38102,-0.821238 q 0.0953,-0.205308 0.22254,-0.259664 0.12729,-0.05435 0.32327,0.03657 z m -4.04381,-0.401822 q -0.18185,0.391955 -0.19273,0.806525 -0.0202,0.410241 0.11051,0.788448 0.13507,0.368875 0.41109,0.678393 0.26668,0.305189 0.65864,0.487041 l 1.61448,0.749054 q 0.39195,0.181855 0.80652,0.192738 0.40524,0.0066 0.77411,-0.12851 0.37321,-0.144398 0.68273,-0.420415 0.30018,-0.280346 0.48203,-0.672301 l 0.38103,-0.821237 q 0.18185,-0.391955 0.20207,-0.802195 0.0152,-0.423902 -0.11985,-0.792777 -0.13074,-0.378208 -0.39743,-0.683397 -0.27601,-0.309517 -0.66797,-0.49137 l -1.61448,-0.749052 q -0.39195,-0.181847 -0.79719,-0.188408 -0.41457,-0.01089 -0.78777,0.133512 -0.36888,0.135066 -0.67339,0.424744 -0.30952,0.276017 -0.49137,0.667972 z m -0.10425,-1.046386 q 0.22515,-0.485278 0.61096,-0.827965 0.38082,-0.35635 0.85466,-0.522103 0.46884,-0.179415 0.98472,-0.16689 0.51588,0.01253 1.00115,0.237675 l 1.61448,0.749055 q 0.49461,0.229478 0.8373,0.615294 0.33336,0.381486 0.50844,0.859657 0.17009,0.46451 0.15323,0.989721 -0.0219,0.51155 -0.24701,0.996827 l -0.38102,0.821238 q -0.22948,0.494609 -0.60596,0.841626 -0.38582,0.342688 -0.85033,0.512772 -0.47384,0.165753 -0.98039,0.157557 -0.51588,-0.01253 -1.01048,-0.242004 l -1.61448,-0.749053 q -0.48528,-0.22515 -0.82797,-0.610965 -0.34269,-0.385815 -0.51277,-0.850325 -0.17942,-0.468839 -0.15756,-0.980388 0.0125,-0.51588 0.24201,-1.010489 z m 2.12166,1.880313 1.3905,0.645143 0.30742,-0.662591 -1.3905,-0.645142 z m 2.06873,-8.188481 -1.075,-0.280835 0.59808,-2.289353 1.075,0.280837 -0.14562,0.557407 3.03588,0.793103 0.14562,-0.557408 1.075,0.280836 -0.45246,1.731945 -4.45061,1.325438 2.76713,0.722893 0.15342,-0.587269 1.075,0.280836 -0.59808,2.289353 -1.075,-0.280837 0.14042,-0.537499 -3.03588,-0.793103 -0.14042,0.5375 -1.075,-0.280836 0.56688,-2.169908 3.56195,-1.057839 -2.00069,-0.522668 z m 0.34416,-0.218448 0.78634,0.205427 -0.91116,0.272351 z m -2.65568,3.612597 1.60254,0.418654 0.14042,-0.5375 2.49838,0.652684 -0.14042,0.537501 1.60255,0.418654 0.7385,-2.826853 -1.60255,-0.418654 -0.15602,0.597222 -1.55278,-0.405652 3.65719,-1.096759 0.55907,-2.140046 -1.60254,-0.418654 -0.14302,0.547454 -2.49838,-0.652685 0.14302,-0.547454 -1.60255,-0.418654 -0.7333,2.806946 1.47315,0.384849 -1.70718,0.510983 z m 0.2365,-3.021792 0.13765,-0.03847 -0.11945,-0.0312 1.00894,-3.862038 2.62777,0.68649 -0.14562,0.557407 1.48311,0.38745 0.14562,-0.557408 2.62777,0.686491 -0.7749,2.966204 -0.94882,0.294411 0.81621,0.213228 -1.00893,3.862038 -2.62778,-0.686489 0.13782,-0.527546 -1.48311,-0.38745 -0.13781,0.527546 -2.62778,-0.686488 z m 2.20673,-9.413185 1.96954,0.150186 -0.0868,1.138636 -0.86167,-0.06571 -0.0391,0.5129 3.12868,0.238577 0.0344,-0.451352 1.10786,0.08448 -0.15644,2.051596 -1.10786,-0.08448 0.0352,-0.461609 -3.12869,-0.238578 -0.0391,0.5129 0.86167,0.06571 -0.0868,1.138636 -1.96953,-0.150187 z m -0.62574,4.688074 2.5132,0.191644 0.12672,-1.661792 1.71308,0.13063 -0.0352,0.461609 1.65154,0.125938 0.19555,-2.564494 -1.65153,-0.125938 -0.0344,0.451351 -1.71308,-0.130631 0.12594,-1.651535 -2.51321,-0.191644 z m -0.11571,-5.518436 3.56978,0.272213 -0.12594,1.651534 0.66677,0.05084 0.0344,-0.451351 2.70811,0.206506 -0.27378,3.590293 -2.7081,-0.206507 0.0352,-0.461609 -0.66677,-0.05084 -0.12594,1.651535 -3.56978,-0.272213 z m 0.512,-3.760602 q -0.0314,-0.379352 0.085,-0.71931 0.10531,-0.349362 0.33102,-0.615779 0.22572,-0.266414 0.54194,-0.437085 0.30596,-0.169821 0.67506,-0.200344 l 1.55842,-0.128873 0.21531,-0.0178 q 0.3691,-0.03052 0.70906,0.08589 0.3297,0.117252 0.59612,0.342974 0.26641,0.225718 0.43793,0.552188 0.16042,0.317067 0.19179,0.69642 l 0.0746,0.902243 q 0.0314,0.379352 -0.0739,0.728715 -0.1164,0.339958 -0.34212,0.606373 -0.22572,0.266414 -0.53169,0.436237 -0.31621,0.170669 -0.68531,0.201192 l -0.21531,0.0178 -1.55842,0.128873 q -0.3691,0.03052 -0.69881,-0.08673 -0.33996,-0.116405 -0.60637,-0.342128 -0.26641,-0.225718 -0.42683,-0.542784 -0.17152,-0.326472 -0.20289,-0.705824 z m 1.72718,-0.83446 q -0.35885,0.02968 -0.49908,0.206436 -0.15048,0.177608 -0.1208,0.536457 l 0.0746,0.902243 q 0.0297,0.358847 0.20728,0.509325 0.16651,0.141071 0.52536,0.111399 l 1.55842,-0.128873 0.21531,-0.0178 q 0.35884,-0.02967 0.51017,-0.197031 0.14023,-0.176762 0.11055,-0.535609 l -0.0746,-0.902242 q -0.0297,-0.358848 -0.19703,-0.510174 -0.17761,-0.150482 -0.53646,-0.120804 l -0.21531,0.0178 z m 1.79492,0.109641 q 0.21531,-0.0178 0.31606,0.07709 0.10076,0.09489 0.11941,0.320458 l 0.0746,0.902243 q 0.0187,0.225561 -0.0651,0.335719 -0.0846,0.0999 -0.29995,0.117711 l -1.77373,0.146677 q -0.2153,0.0178 -0.31521,-0.06684 -0.10075,-0.0949 -0.11941,-0.320458 l -0.0746,-0.902243 q -0.0187,-0.225561 0.0651,-0.33572 0.0838,-0.110158 0.2991,-0.127964 z m -3.71406,1.649107 q 0.0356,0.430616 0.23102,0.796403 0.18517,0.366634 0.48573,0.63082 0.29972,0.253932 0.69263,0.386603 0.38267,0.133519 0.81329,0.09791 l 1.77372,-0.146677 q 0.43062,-0.03561 0.79641,-0.231024 0.35553,-0.194568 0.60946,-0.494284 0.25309,-0.309969 0.38576,-0.702887 0.12242,-0.39207 0.0868,-0.822686 l -0.0746,-0.902243 q -0.0356,-0.430617 -0.22077,-0.797251 -0.19626,-0.376039 -0.49598,-0.629972 -0.30056,-0.264186 -0.68323,-0.397707 -0.39292,-0.132672 -0.82353,-0.09706 l -1.77373,0.146678 q -0.43061,0.03561 -0.78615,0.230176 -0.36579,0.195415 -0.61887,0.505384 -0.25393,0.299717 -0.37551,0.702038 -0.13267,0.392919 -0.0971,0.823534 z m -0.60776,-0.858155 q -0.0441,-0.533144 0.12197,-1.021728 0.15496,-0.497988 0.48497,-0.876258 0.31892,-0.387673 0.77359,-0.63173 0.45467,-0.244056 0.98782,-0.288144 l 1.77373,-0.146678 q 0.54339,-0.04494 1.03198,0.121118 0.47833,0.166906 0.86685,0.496075 0.37742,0.319767 0.62232,0.784689 0.23381,0.455518 0.2779,0.988662 l 0.0746,0.902243 q 0.0449,0.543397 -0.11087,1.031133 -0.16605,0.488584 -0.48582,0.866005 -0.33002,0.378269 -0.77444,0.621477 -0.45467,0.244056 -0.99806,0.288992 l -1.77373,0.146678 q -0.53315,0.04409 -1.02173,-0.121966 -0.48859,-0.166052 -0.86601,-0.485821 -0.38767,-0.31892 -0.62147,-0.774438 -0.24406,-0.454669 -0.289,-0.998066 z m 2.77371,0.586136 1.52767,-0.12633 -0.0602,-0.727946 -1.52766,0.12633 z"
       id="text14"
       style="font-size:11.302px;line-height:1;font-family:Sport;-inkscape-font-specification:Sport;text-align:center;letter-spacing:0.8361px;word-spacing:0px;text-anchor:middle;fill:#ffffff;stroke-width:0.520751"
       aria-label="toronto" /><path
       style="fill:#c1141f;fill-opacity:1;stroke:none;stroke-width:2.06692;stroke-dasharray:none"
       d="m 89.993208,45.793288 7.470529,6.800758 -0.669772,1.700189 -4.63688,3.245815 c 0,0 0.206085,4.121671 0.206085,4.327754 0,0.206085 -1.288022,6.800758 -1.288022,6.800758 l -2.421482,1.339542 -10.51026,0.772814 -0.875856,-0.721292 -1.648668,-0.463688 2.009315,-2.730609 5.512734,-2.679085 0.360646,-9.376799 3.4519,-7.985737 2.936691,-2.473004 z"
       id="path982" /><path
       style="fill:#c1141f;fill-opacity:1;stroke:none;stroke-width:2.06692;stroke-dasharray:none"
       d="m 117.86601,31.882648 1.39106,2.24116 2.85941,-2.189637 -0.79857,-1.700192 c 0,0 -1.70019,-0.334885 -1.80323,-0.231842 -0.10304,0.103042 -1.64867,1.880511 -1.64867,1.880511 z"
       id="path981" /><path
       style="fill:#c1141f;fill-opacity:1;stroke:none;stroke-width:2.06692;stroke-dasharray:none"
       d="m 103.02799,8.1830407 5.82186,6.9037983 4.63688,-2.36996 c 0,0 1.18498,0.103043 1.13346,0.360646 -0.0515,0.257605 -1.70019,5.667297 -1.90627,5.821861 -0.20608,0.154561 -4.27624,1.700188 -4.27624,1.700188 l -1.23649,3.348859 2.78212,-1.545627 0.10304,3.50342 3.1943,-2.31844 -0.82434,3.709505 3.40038,-1.803232 2.36997,1.030418 1.85475,-0.824335 2.21539,-6.95532 1.9578,-14.1682433 -3.50342,-1.957793 -2.52452,-0.309126 -7.41901,2.060836 -5.82186,2.009314"
       id="path980" /><path
       style="fill:#c1141f;fill-opacity:1;stroke:none;stroke-width:2.06692;stroke-dasharray:none"
       d="m 86.747394,18.023531 c 0,0 2.833649,8.552466 2.833649,8.913115 0,0.360645 0.772814,6.027942 0.772814,6.027942 l 3.245814,0.05152 5.615777,-2.112356 1.906272,-4.636878 3.34886,-2.524526 1.59714,0.103043 -3.34885,5.924903 3.40037,-1.957794 2.21541,-0.360646 -2.11236,2.782126 -0.66977,2.473003 3.24581,-1.597146 2.42148,0.05152 -1.80323,1.700189 -3.24581,4.17319 -7.728135,3.606463 -6.440112,1.803232 -5.409693,-0.05152 -3.864065,-2.266917 -1.030417,-7.676612 0.360645,-7.367488 2.112355,-4.327754 z"
       id="path979"
       sodipodi:nodetypes="csccccccccccccccccccccccc" /><path
       style="fill:#c1141f;fill-opacity:1;stroke:none;stroke-width:0.72146;stroke-dasharray:none"
       d="m 80.924967,3.0049617 0.05622,-4.442997 2.305861,-2.643298 2.812016,4.66795597 3.65563,-0.731125 2.362099,0.562402 7.311257,-4.94915697 -1.237288,5.624044 c 0,0 -1.96842,2.193375 -1.743456,2.193375 0.224965,0 3.543149,-1.124808 3.543149,-1.124808 0,0 -1.293527,2.53082 -1.068568,2.587061 0.224965,0.05624 3.318183,2.193377 3.318183,2.193377 0,0 -3.936832,0.787366 -3.711868,0.956086 0.224965,0.168722 3.318188,3.0932253 3.318188,3.0932253 l 0.22496,4.836678 -0.8436,6.692612 -3.14947,1.124808 -5.567801,-2.474579 -3.936834,-4.161793 -3.205701,-0.16872 -5.23036,-0.281204 -2.587064,-1.46225 -0.731126,-4.218034 0.618645,-1.7434543 -1.012324,-0.562402 1.968415,-1.968418 z"
       id="path977" /><path
       style="fill:#d45500;fill-opacity:1;stroke:none;stroke-width:0.72146;stroke-dasharray:none"
       d="m 103.6461,23.645201 3.65563,-2.755781 -0.11248,3.261945 3.14946,-1.968416 -0.39368,3.318186 3.43066,-2.137136 -1.01232,4.049312 3.03698,-1.968417 1.7997,0.787367 -0.2812,5.849006 -2.75579,2.924503 -5.11787,1.293529 -1.5185,-1.124808 3.65563,-3.71187 -2.98074,-0.11248 -2.69954,1.406011 1.68721,-4.386755 1.18105,-1.293531 -4.04931,1.518494 -1.34977,0.449923 1.46225,-3.093224 1.7997,-2.362099 z"
       id="path974" /><path
       style="fill:#ffffff;stroke:#000000;stroke-width:0.270547;stroke-dasharray:none"
       d="m 79.544572,16.021411 0.770023,-0.995394 7.888035,-3.455711 c 0,0 3.230339,-0.356841 3.305464,-0.281718 0.07512,0.07512 0.901491,1.314674 0.901491,1.314674 l -1.258337,2.047133"
       id="path940"
       sodipodi:nodetypes="cccscc" /><path
       style="fill:#ffffff;stroke:none;stroke-width:0.562237;stroke-dasharray:none"
       d="m 79.011363,6.1997857 0.86425,1.690809 0.987889,1.087399 0.510942,-1.309269 0.287406,-0.319338 -1.373141,-0.287396 z"
       id="path939"
       sodipodi:nodetypes="ccccccc" /><path
       style="fill:#ffffff;stroke:none;stroke-width:0.562237;stroke-dasharray:none"
       d="m 82.06995,8.2700327 3.297421,1.220054 3.584453,-4.187374 -3.672966,0.992697 z"
       id="path938"
       sodipodi:nodetypes="ccccc" /><path
       style="fill:#000000;stroke:none;stroke-width:1.12448;stroke-dasharray:none"
       d="m 84.565602,7.1456047 1.027975,2.008144 0.59766,-2.988305 z"
       id="path931" /><path
       style="fill:#000000;stroke:none;stroke-width:1.12954;stroke-dasharray:none"
       d="m 81.038573,8.9894477 0.321204,-1.465833 -1.479015,-0.719925 z"
       id="path933"
       sodipodi:nodetypes="cccc" /><ellipse
       style="fill:#000000;fill-opacity:1;stroke:none;stroke-width:0.270547;stroke-dasharray:none"
       id="path944"
       cx="87.211617"
       cy="29.459894"
       rx="0.62989283"
       ry="0.42517769"
       transform="rotate(-15.580746)" /><ellipse
       style="fill:#000000;fill-opacity:1;stroke:none;stroke-width:0.270547;stroke-dasharray:none"
       id="path945"
       cx="90.817337"
       cy="6.7478223"
       rx="0.2834518"
       ry="0.26770446" /><ellipse
       style="fill:#000000;fill-opacity:1;stroke:none;stroke-width:0.270547;stroke-dasharray:none"
       id="path946"
       cx="83.306427"
       cy="40.322144"
       rx="0.40943033"
       ry="0.31494641"
       transform="rotate(-21.852182)" /><ellipse
       style="fill:#000000;fill-opacity:1;stroke:none;stroke-width:0.270547;stroke-dasharray:none"
       id="path947"
       cx="91.27317"
       cy="13.28233"
       rx="0.42517769"
       ry="0.2834518"
       transform="rotate(-3.4267933)" /><ellipse
       style="fill:#000000;fill-opacity:1;stroke:none;stroke-width:0.270547;stroke-dasharray:none"
       id="path948"
       cx="87.078033"
       cy="36.263588"
       rx="0.5039143"
       ry="0.37793574"
       transform="rotate(-18.305613)" /><ellipse
       style="fill:#000000;fill-opacity:1;stroke:none;stroke-width:0.270547;stroke-dasharray:none"
       id="path949"
       cx="93.510132"
       cy="5.6297574"
       rx="0.20471516"
       ry="0.18896787" /><ellipse
       style="display:inline;fill:#000000;fill-opacity:1;stroke:none;stroke-width:0.361539;stroke-dasharray:none"
       id="path944-5"
       cx="101.86081"
       cy="34.577709"
       rx="0.84173799"
       ry="0.56817317"
       transform="rotate(-15.580746)" /><ellipse
       style="display:inline;fill:#000000;fill-opacity:1;stroke:none;stroke-width:0.361539;stroke-dasharray:none"
       id="path945-9"
       cx="105.93211"
       cy="8.346611"
       rx="0.37878212"
       ry="0.35773864" /><ellipse
       style="display:inline;fill:#000000;fill-opacity:1;stroke:none;stroke-width:0.361539;stroke-dasharray:none"
       id="path946-7"
       cx="97.253357"
       cy="47.518002"
       rx="0.54712975"
       ry="0.42086899"
       transform="rotate(-21.852183)" /><ellipse
       style="display:inline;fill:#000000;fill-opacity:1;stroke:none;stroke-width:0.361539;stroke-dasharray:none"
       id="path947-7"
       cx="106.60892"
       cy="16.157776"
       rx="0.56817317"
       ry="0.37878212"
       transform="rotate(-3.4267932)" /><ellipse
       style="display:inline;fill:#000000;fill-opacity:1;stroke:none;stroke-width:0.361539;stroke-dasharray:none"
       id="path948-6"
       cx="101.92661"
       cy="42.977058"
       rx="0.67339045"
       ry="0.50504285"
       transform="rotate(-18.305613)" /><ellipse
       style="display:inline;fill:#000000;fill-opacity:1;stroke:none;stroke-width:0.361539;stroke-dasharray:none"
       id="path949-7"
       cx="109.53053"
       cy="6.8525281"
       rx="0.27356488"
       ry="0.25252143" /><ellipse
       style="display:inline;fill:#000000;fill-opacity:1;stroke:none;stroke-width:0.286605;stroke-dasharray:none"
       id="path944-5-3"
       cx="76.03006"
       cy="44.055866"
       rx="0.66727728"
       ry="0.45041218"
       transform="rotate(-15.580746)" /><ellipse
       style="display:inline;fill:#000000;fill-opacity:1;stroke:none;stroke-width:0.286605;stroke-dasharray:none"
       id="path945-9-9"
       cx="83.901672"
       cy="23.917305"
       rx="0.30027479"
       ry="0.28359288" /><ellipse
       style="display:inline;fill:#000000;fill-opacity:1;stroke:none;stroke-width:0.286605;stroke-dasharray:none"
       id="path946-7-4"
       cx="70.587547"
       cy="53.699039"
       rx="0.43373027"
       ry="0.33363867"
       transform="rotate(-21.852182)" /><ellipse
       style="display:inline;fill:#000000;fill-opacity:1;stroke:none;stroke-width:0.286605;stroke-dasharray:none"
       id="path947-7-8"
       cx="83.404228"
       cy="30.074112"
       rx="0.45041218"
       ry="0.30027479"
       transform="rotate(-3.4267932)" /><ellipse
       style="display:inline;fill:#000000;fill-opacity:1;stroke:none;stroke-width:0.286605;stroke-dasharray:none"
       id="path948-6-1"
       cx="75.29628"
       cy="50.471199"
       rx="0.53382188"
       ry="0.40036646"
       transform="rotate(-18.305612)" /><ellipse
       style="display:inline;fill:#000000;fill-opacity:1;stroke:none;stroke-width:0.286605;stroke-dasharray:none"
       id="path949-7-2"
       cx="86.75428"
       cy="22.732891"
       rx="0.21686514"
       ry="0.20018323" /><ellipse
       style="fill:#000000;fill-opacity:1;stroke:none;stroke-width:0.286605;stroke-dasharray:none"
       id="path944-5-3-6"
       cx="89.299271"
       cy="45.246639"
       rx="0.66727728"
       ry="0.45041218"
       transform="rotate(-15.580746)" /><ellipse
       style="fill:#000000;fill-opacity:1;stroke:none;stroke-width:0.286605;stroke-dasharray:none"
       id="path945-9-9-0"
       cx="97.003113"
       cy="21.500263"
       rx="0.30027479"
       ry="0.28359288" /><ellipse
       style="fill:#000000;fill-opacity:1;stroke:none;stroke-width:0.286605;stroke-dasharray:none"
       id="path946-7-4-6"
       cx="83.64727"
       cy="56.332195"
       rx="0.43373027"
       ry="0.33363867"
       transform="rotate(-21.852182)" /><ellipse
       style="fill:#000000;fill-opacity:1;stroke:none;stroke-width:0.286605;stroke-dasharray:none"
       id="path947-7-8-2"
       cx="96.626717"
       cy="28.444504"
       rx="0.45041218"
       ry="0.30027479"
       transform="rotate(-3.4267932)" /><ellipse
       style="display:inline;fill:#000000;fill-opacity:1;stroke:none;stroke-width:0.286605;stroke-dasharray:none"
       id="path948-6-1-6"
       cx="88.493874"
       cy="52.291439"
       rx="0.53382188"
       ry="0.40036646"
       transform="rotate(-18.305612)" /><ellipse
       style="display:inline;fill:#000000;fill-opacity:1;stroke:none;stroke-width:0.286605;stroke-dasharray:none"
       id="path949-7-2-1"
       cx="99.855721"
       cy="20.315845"
       rx="0.21686514"
       ry="0.20018323" /><ellipse
       style="fill:#000000;fill-opacity:1;stroke:none;stroke-width:0.316484;stroke-dasharray:none"
       id="path950"
       cx="71.639397"
       cy="44.246803"
       rx="0.40943033"
       ry="0.31494641"
       transform="rotate(-29.232819)" /><ellipse
       style="fill:#000000;fill-opacity:1;stroke:none;stroke-width:0.270547;stroke-dasharray:none"
       id="path955"
       cx="85.372871"
       cy="3.4270709"
       rx="0.22838987"
       ry="0.21697041" /><ellipse
       style="fill:#000000;fill-opacity:1;stroke:none;stroke-width:0.270547;stroke-dasharray:none"
       id="path956"
       cx="85.007446"
       cy="2.6505415"
       rx="0.22838987"
       ry="0.1941314" /><ellipse
       style="fill:#000000;fill-opacity:1;stroke:none;stroke-width:0.270547;stroke-dasharray:none"
       id="path957"
       cx="86.343521"
       cy="2.8903525"
       rx="0.33116531"
       ry="0.29690683" /><path
       d="m 95.987889,-0.50348833 c -0.813315,0.186659 -2.680479,0.641751 -3.394366,2.43901303 0.959063,0.19162 1.439717,0.07565 2.333686,-0.04119 l -0.449152,1.153116 0.645332,-0.801579 1.175515,-1.222829 -2.573827,0.523975 c 0.121182,-0.63995403 1.451484,-1.42965803 2.262812,-2.05050603 z"
       id="path966"
       sodipodi:nodetypes="cccccccc"
       style="stroke-width:0.352611" /><path
       style="fill:#a1a1a4;fill-opacity:1;stroke:none;stroke-width:0.72146;stroke-dasharray:none"
       d="m 107.14597,49.439225 1.69747,2.923422 6.97849,-1.131647 6.03545,-2.829119 0.0943,-3.300639 -1.79177,0.565823"
       id="path970" /><path
       style="fill:#a1a1a4;fill-opacity:1;stroke:none;stroke-width:0.72146;stroke-dasharray:none"
       d="m 115.91623,46.798714 -1.03734,-6.978494 -1.13164,-4.715198 2.45189,-1.886078 1.60318,2.64051"
       id="path971" /><path
       style="fill:#a1a1a4;fill-opacity:1;stroke:none;stroke-width:0.72146;stroke-dasharray:none"
       d="m 117.80232,36.896797 0.56582,5.846847 c 0,0 2.4519,4.243678 2.26329,4.620893 -0.1886,0.377216 -4.33799,2.263296 -4.33799,1.791775 0,-0.471518 -1.13164,-9.147483 -1.13164,-9.147483 z"
       id="path972" /><path
       style="fill:#a1a1a4;fill-opacity:1;stroke:#000000;stroke-width:0.72146;stroke-dasharray:none"
       d="m 88.945302,45.28985 1.980384,-2.074687 c 0,0 0.565827,-0.471519 0.943036,0 0.377218,0.47152 5.186724,5.658239 5.186724,5.658239 l 3.772154,1.980382 -2.100265,2.03434 -4.218101,-1.56282 z"
       id="path969"
       sodipodi:nodetypes="ccsccccc" /><path
       style="display:inline;fill:#753bbd;fill-opacity:1;stroke:#000000;stroke-width:0.72146;stroke-dasharray:none"
       d="m 101.87241,8.2222727 1.01806,-0.814447 4.22495,4.0213373 3.86862,5.752045 0.86536,2.137927 -1.73071,0.559933 -2.79966,-5.853848 -4.42856,-4.8357903 z"
       id="path968"
       sodipodi:nodetypes="ccccccccc"
       inkscape:label="liña camiseta" /><path
       style="display:inline;fill:#753bbd;fill-opacity:1;stroke:#000000;stroke-width:0.72146;stroke-dasharray:none"
       d="m 86.652399,18.301075 1.119869,-0.916255 c 0,0 1.119862,2.85057 1.170764,3.105085 0.05093,0.254515 2.799669,11.045957 2.799669,11.045957 l -1.374379,0.0509 z"
       id="path967"
       inkscape:label="liña camiseta 2" /><path
       style="fill:#ffffff;fill-opacity:1;stroke:none;stroke-width:0.270547;stroke-dasharray:none"
       d="m 116.13148,33.206075 1.68721,3.711869 -0.11248,3.318187 2.02465,5.511561 1.85593,-0.899846 c 0,0 -0.44991,-4.161792 -0.56239,-4.442995 -0.11249,-0.281202 -1.91218,-6.46765 -1.91218,-6.46765 l -1.7997,-2.47458"
       id="path943" /><path
       style="fill:#ffffff;fill-opacity:1;stroke:none;stroke-width:0.270547;stroke-dasharray:none"
       d="m 92.622974,42.035823 11.473056,-3.205705 3.31818,-3.093223 3.26194,0.224962 2.53083,-0.618645 1.85593,2.362097 -0.22496,3.374427 1.29353,5.624044 -0.50617,1.237289 -7.47997,1.743454 -1.18105,-0.506164 -1.34977,-2.58706 -4.21804,4.274274 -4.667952,-2.587061 -4.442994,-4.330514 -0.787365,-1.293529 z"
       id="path942" /><path
       style="fill:#ffffff;fill-opacity:1;stroke:none;stroke-width:0.270547;stroke-dasharray:none"
       d="m 92.979169,32.767672 5.949533,-2.124833 2.337318,-5.099596 2.01859,-1.381141 0.95617,-1.699866 4.03719,-2.018591 1.8061,-0.956175 -3.29349,-6.268254 -5.20583,-4.9933573 -1.27491,1.062417 1.59363,7.3306703 -0.84994,5.630806 -3.696295,1.505509 -7.140349,-4.692758 -2.124828,-1.593623 1.168656,3.505973 2.231072,10.730403 z"
       id="path941"
       sodipodi:nodetypes="cccccccccccccccccc" /><path
       style="fill:#ffffff;fill-opacity:1;stroke:none;stroke-width:2.06692;stroke-dasharray:none"
       d="m 101.86877,25.674382 -0.0258,2.035075 1.57139,-0.618251 c 0,0 2.44724,-3.297335 2.31844,-3.271575 -0.1288,0.02576 -3.86407,1.854751 -3.86407,1.854751 z"
       id="path986" /><path
       style="fill:#ffffff;fill-opacity:1;stroke:none;stroke-width:2.06692;stroke-dasharray:none"
       d="m 104.75394,28.559552 -0.33488,1.803231 1.88051,-0.412166 2.06084,-2.627566 z"
       id="path987" /><path
       style="fill:#ffffff;fill-opacity:1;stroke:none;stroke-width:2.06692;stroke-dasharray:none"
       d="m 107.22695,32.191774 1.67443,0.798574 1.95779,-1.700189 c 0,0 -2.55029,-0.257605 -2.67909,-0.128801 -0.1288,0.128801 -0.95313,1.030416 -0.95313,1.030416 z"
       id="path988" /><path
       style="display:inline;fill:#ffffff;fill-opacity:1;stroke:none;stroke-width:2.06693;stroke-dasharray:none"
       d="m 108.92713,20.238928 c 0,0.180323 0.25761,0.978898 0.25761,0.978898 0,0 1.51987,0 1.39106,0.180322 -0.1288,0.180323 -2.08659,1.932035 -2.08659,1.932035"
       id="path989" /><path
       style="fill:#ffffff;fill-opacity:1;stroke:none;stroke-width:2.06693;stroke-dasharray:none"
       d="m 107.38151,23.768111 1.15922,-0.463688 0.43792,-3.039735 -1.08193,0.747055 z"
       id="path990" /><path
       style="fill:#ffffff;fill-opacity:1;stroke:none;stroke-width:2.06692;stroke-dasharray:none"
       d="m 111.24557,21.939119 -0.1288,0.978895 1.88052,-0.02576 -2.60181,2.576044 -0.51521,-1.854752 z"
       id="path991" /><path
       style="fill:#ffffff;fill-opacity:1;stroke:none;stroke-width:2.06692;stroke-dasharray:none"
       d="m 114.98084,23.433225 v 1.056177 l 1.1077,0.824335 c -0.0773,0.103041 -3.24582,2.009314 -3.24582,2.009314 l -0.18032,-2.241159 z"
       id="path992" /><path
       d="m 110.99156,37.506611 c -1.43108,1.466855 -3.13405,2.883359 -3.96091,5.820475 0.58421,-1.135269 2.13539,-3.565424 3.64516,-4.312099 z"
       id="path2"
       sodipodi:nodetypes="cccc"
       style="stroke-width:0.861221" /><path
       d="m 115.54821,25.311305 c -1.0693,1.096041 -1.07868,1.088135 -1.69651,3.282762 0.43652,-0.848279 1.26111,-2.129364 2.38922,-2.687282 z"
       id="path2-1"
       sodipodi:nodetypes="cccc"
       style="stroke-width:0.643508" /><path
       d="m 116.55888,25.160647 c -1.06931,1.096041 -1.07869,1.088135 -1.69652,3.282763 0.43652,-0.848279 1.26111,-2.129365 2.38922,-2.687283 z"
       id="path2-1-7"
       sodipodi:nodetypes="cccc"
       style="stroke-width:0.643508" /><path
       d="m 117.31583,25.368374 c -0.92498,0.948102 -0.93309,0.941263 -1.46753,2.839669 0.3776,-0.733782 1.09089,-1.841951 2.06674,-2.324565 z"
       id="path2-1-7-5"
       sodipodi:nodetypes="cccc"
       style="stroke-width:0.556651" /><path
       d="m 108.1653,33.95994 c 1.36718,-0.689604 1.36246,-0.700929 3.64127,-0.629186 -0.94036,0.160803 -2.41029,0.561331 -3.28203,1.46906 z"
       id="path2-1-6"
       sodipodi:nodetypes="cccc"
       style="stroke-width:0.643508" /><path
       d="m 107.71729,34.878317 c 1.36717,-0.689604 1.36246,-0.700929 3.64126,-0.629186 -0.94035,0.160803 -2.41029,0.561331 -3.28203,1.46906 z"
       id="path2-1-7-4"
       sodipodi:nodetypes="cccc"
       style="stroke-width:0.643508" /><path
       d="m 107.68742,35.662686 c 1.18264,-0.596524 1.17856,-0.60632 3.14978,-0.544261 -0.81343,0.139099 -2.08496,0.485565 -2.83903,1.270773 z"
       id="path2-1-7-5-3"
       sodipodi:nodetypes="cccc"
       style="stroke-width:0.556651" /><path
       d="m 98.413009,31.115821 c 0.758155,1.9039 1.44519,3.337894 3.792251,5.287669 -0.7996,-0.995373 -2.502894,-4.226741 -2.5711,-5.909679 z"
       id="path2-5"
       sodipodi:nodetypes="cccc"
       style="stroke-width:0.861221" /><path
       d="m 101.69178,12.698037 c 1.41183,1.485385 3.09619,2.923969 3.88469,5.871615 -0.56935,-1.14279 -2.08873,-3.592959 -3.58864,-4.359253 z"
       id="path2-9"
       sodipodi:nodetypes="cccc"
       style="display:inline;stroke-width:0.861221"
       inkscape:label="path2-9" /><path
       d="m 90.195945,25.178504 c 1.431073,1.466855 3.134045,2.883357 3.9609,5.820475 -0.584201,-1.135271 -2.135387,-3.565426 -3.645159,-4.312101 z"
       id="path2-7"
       sodipodi:nodetypes="cccc"
       style="stroke-width:0.861221" /><path
       d="m 111.21136,41.159971 c -1.4096,0.731274 -3.007,1.359388 -4.32954,3.319333 0.70588,-0.693229 2.43808,-2.104051 3.73046,-2.286311 z"
       id="path2-2"
       sodipodi:nodetypes="cccc"
       style="stroke-width:0.667354" /><ellipse
       style="display:inline;fill:#000000;stroke:none;stroke-width:1.25367;stroke-dasharray:none"
       id="path3"
       cx="86.165092"
       cy="56.757015"
       rx="3.021086"
       ry="0.59750581" /><ellipse
       style="display:inline;fill:#000000;stroke:none;stroke-width:1.13128;stroke-dasharray:none"
       id="path3-4"
       cx="85.57106"
       cy="58.63718"
       rx="2.4602189"
       ry="0.59744209" /><ellipse
       style="display:inline;fill:#000000;stroke:none;stroke-width:1.02908;stroke-dasharray:none"
       id="path3-4-5"
       cx="84.960518"
       cy="60.445957"
       rx="2.2057879"
       ry="0.55140513" /><ellipse
       style="fill:#000000;stroke:none;stroke-width:1.25367;stroke-dasharray:none"
       id="path3-1"
       cx="75.539429"
       cy="107.57597"
       rx="3.021086"
       ry="0.59750581"
       transform="rotate(-28.295444)" /><ellipse
       style="fill:#000000;stroke:none;stroke-width:1.13128;stroke-dasharray:none"
       id="path3-4-0"
       cx="74.945389"
       cy="109.45615"
       rx="2.4602189"
       ry="0.59744209"
       transform="rotate(-28.295444)" /><ellipse
       style="fill:#000000;stroke:none;stroke-width:1.02908;stroke-dasharray:none"
       id="path3-4-5-6"
       cx="74.334854"
       cy="111.26492"
       rx="2.2057879"
       ry="0.55140513"
       transform="rotate(-28.295444)" /><path
       style="fill:#ffffff;stroke:none;stroke-width:0.861221;stroke-dasharray:none"
       d="m 78.967999,66.851297 -0.201405,1.752229 1.873074,-0.342389 -0.704922,1.852933 c 0,0 -2.074479,0.503515 -2.175182,0.402813 -0.100702,-0.100703 -1.832791,-0.845905 -1.832791,-0.845905 z"
       id="path7" /><path
       style="fill:#ffffff;stroke:none;stroke-width:0.861221;stroke-dasharray:none"
       d="m 114.53625,69.368869 2.7794,-0.684781 -0.32225,2.517573 3.16207,-2.034199 -0.0202,2.316166 2.6787,-2.034198 c 0,0 2.21546,1.429982 2.21546,1.550827 0,0.120843 -0.30211,1.34942 -0.30211,1.34942 l -3.02108,0.3021 -1.40984,-0.966742 -2.65856,0.704922 -0.88618,-1.027171 c 0,0 -3.88713,0.845901 -3.80657,0.644501 0.0806,-0.201409 1.5911,-2.638418 1.5911,-2.638418 z"
       id="path11"
       sodipodi:nodetypes="ccccccscccccsc" /><path
       style="fill:#000000;stroke:none;stroke-width:1.12448;stroke-dasharray:none"
       d="m 76.474033,12.448089 c 0.170329,-0.127747 1.111767,-1.101654 1.282096,-1.101654 0.170324,0 2.384594,0.04258 2.384594,0.04258 0.714091,0.09083 1.432103,0.92306 0.64813,1.724269 -0.707743,0.723305 -2.077719,-0.292811 -2.803362,0.862703 -0.734007,-1.164457 -1.043053,-0.974331 -1.511458,-1.527898 z"
       id="path930"
       sodipodi:nodetypes="cscscc" /><path
       style="fill:#000000;stroke:none;stroke-width:1.12448;stroke-dasharray:none"
       d="m 81.341792,7.0596277 c -0.164626,1.296209 -0.223959,2.522225 -3.020859,4.5203743 0.561035,0.01086 1.122076,0.0217 1.683111,0.03256 0.831987,-0.39454 2.59602,-2.2160133 1.883729,-4.7514713 z"
       id="path932"
       sodipodi:nodetypes="ccccc" /><path
       id="path909-9-2-7-2"
       d="m 100.03811,-6.7981733 -0.941368,1.062074 c -1.792054,2.021592 -5.049238,3.285676 -7.187801,5.41046097 -1.8869,-0.77475097 -3.958184,-0.115104 -5.455631,0.337825 -0.05751,-0.215431 -0.134025,-0.426455 -0.25066,-0.583204 -0.280448,-0.376885 -0.623022,-0.65747597 -0.915476,-0.98811197 -0.584905,-0.661269 -1.07086,-1.3922 -0.516116,-3.254625 l 0.58109,-1.951665 -1.500532,1.376387 c -1.531084,1.404774 -2.658188,2.774199 -3.265187,4.234023 -0.541885,1.30321197 -0.563515,2.688414 -0.160857,4.111728 -0.261944,0.163994 -0.506997,0.379383 -0.731643,0.687009 -0.320783,0.439291 -0.581339,1.049883 -0.747755,1.781826 -1.563234,0.801651 -2.75842,2.238321 -3.502911,3.479137 l -0.39038,0.650819 0.736662,0.18357 c 0.391779,0.09795 0.584825,0.05937 0.881407,0.04701 -0.268374,0.3246543 -0.486567,0.6241593 -0.804544,1.0433153 l -0.341524,0.450081 0.45246,0.339412 c 0.206043,0.154526 0.346537,0.120908 0.511093,0.135759 -0.01917,0.02663 -0.03171,0.03717 -0.05093,0.06604 -0.122095,0.183167 -0.251315,0.430117 -0.260433,0.742739 -0.0071,0.242132 0.09253,0.487769 0.23719,0.715792 0.05226,0.812448 0.255415,1.490831 0.636294,2.025359 0.391077,0.548844 2.563663,1.235107 3.202589,1.497889 3.57706,-0.513898 4.098502,1.010881 6.758327,0.366085 -2.866483,2.023747 -4.632768,5.191356 -5.395937,8.914692 -0.893063,4.357036 -0.549931,9.405548 0.629952,14.172752 l 0.03984,0.159535 0.118859,0.113841 c 1.663695,1.574566 4.565688,2.677287 7.784736,2.588749 -0.754514,0.590213 -1.640962,1.334713 -2.606444,2.437667 -1.687438,1.92772 -3.432688,4.837669 -4.433441,9.407028 l -0.009,0.03987 -0.628106,8.969632 c -1.03926,0.555684 -2.069152,0.831987 -3.245376,1.458532 -1.268405,0.675649 -2.621643,1.791575 -4.136033,4.112003 l -0.545957,0.836495 0.999208,0.03298 c 0.376743,0.01215 0.753457,0.02376 1.130213,0.03591 l -0.529057,1.059172 1.161918,-0.267573 c 3.559852,-0.819727 6.205651,-0.596697 8.407556,-0.555995 1.100958,0.02033 2.097809,-0.0017 3.038833,-0.256739 0.941031,-0.255179 1.813377,-0.762145 2.580565,-1.630213 l 0.116745,-0.132593 0.0201,-0.175645 c 0.381767,-3.375637 1.987597,-6.635037 1.254891,-10.665886 0.801164,-0.626552 1.691596,-1.132015 2.586634,-1.772848 0.846437,-0.606036 1.642727,-1.424637 2.281044,-2.538828 0.269465,0.113483 0.538982,0.22698 0.8085,0.340463 l 0.274696,0.116746 0.250399,-0.163761 c 2.737418,-1.787068 4.476788,-4.32883 6.475968,-6.510833 0.84784,1.777011 1.50397,3.790189 3.0449,5.392766 l 0.18067,0.187797 0.25938,-0.01611 c 0.2058,-0.01285 0.41222,-0.02599 0.61806,-0.03882 0.41556,1.198836 0.79389,2.241783 1.41468,3.121765 0.64856,0.91932 1.6091,1.632252 2.98865,2.192024 0.88722,2.957527 2.55239,5.466741 2.40201,8.38669 -0.57746,0.687198 -1.19762,0.987772 -1.93555,1.61437 -0.7895,0.670383 -1.5643,1.721331 -2.1775,3.895421 l -0.25251,0.89434 0.90941,-0.19256 c 1.26008,-0.2662 2.52044,-0.53247 3.7805,-0.798727 l -0.27733,1.524297 0.8925,-0.28631 c 0.99128,-0.31796 1.98264,-0.63661 2.97386,-0.95457 0.001,0.003 0.003,0.007 0.005,0.01 0.0891,0.16194 0.17596,0.34593 0.16982,0.32753 l 0.15056,0.45112 0.46936,-0.074 c 1.28614,-0.20097 2.31215,0.004 3.78949,-0.22662 l 0.44718,-0.0697 0.0269,-0.45114 c 0.37149,-6.134913 1.72018,-14.748124 -3.51294,-20.797428 l -0.20576,-2.268093 c 0.16553,-0.05912 0.33181,-0.117583 0.49736,-0.176704 l 0.32435,-0.115954 0.0438,-0.342313 c 0.67867,-5.265166 -1.65602,-9.37858 -2.57264,-13.764405 1.15691,-0.739061 1.98034,-1.463703 2.45379,-2.164291 0.52739,-0.780427 0.68342,-1.556877 0.53407,-2.209193 -0.29868,-1.30458 -1.71716,-2.013154 -2.77706,-1.397729 l -0.0409,0.02403 -0.037,0.02985 c -0.65266,0.542811 -1.22231,0.966813 -1.71817,1.282885 0.11,-0.557886 0.12049,-1.263981 -0.0993,-2.279189 -0.007,-0.19536 -0.0205,-0.390201 -0.0407,-0.584522 0.39384,-0.227346 0.83452,-0.384246 1.40202,-0.658214 0.71999,-0.347596 1.4635,-1.022448 1.84283,-2.35605 l 0.002,-0.0069 0.002,-0.0082 c 1.52268,-5.996691 2.3269,-10.627493 2.76334,-13.912053 0.43644,-3.2845623 0.50888,-5.2686813 0.55495,-5.8029643 l 0.0111,-0.12784 -0.0459,-0.12097 c -0.39008,-1.027225 -1.34445,-1.569298 -2.27138,-1.932689 -0.92691,-0.363392 -1.90182,-0.580475 -2.47754,-0.816428 l 0.0438,0.02086 c -0.23221,-0.119224 -0.352,-0.100938 -0.51823,-0.104858 -0.16623,-0.004 -0.35587,0.0063 -0.57898,0.02588 -0.44622,0.03925 -1.02266,0.120814 -1.71104,0.245642 -1.37677,0.249655 -3.1941,0.670237 -5.20101,1.259904 -2.83119,0.831864 -6.01965,2.013614 -8.87691,3.524833 l -0.24751,-0.231299 c -0.87038,-0.814231 -1.93828,-1.475245 -3.2644,-1.83994 0.134093,-0.255951 0.232828,-0.503477 0.52694,-0.800581 0.43607,-0.440502 0.96499,-0.867469 1.35684,-1.328845 l 0.56604,-0.666667 -0.84073,-0.238775 c -0.87999,-0.249827 -1.78844,0.05084 -2.658486,0.377444 -0.184373,0.06921 -0.305701,0.111213 -0.485997,0.183573 1.046492,-1.58263503 2.115033,-4.029516 2.014523,-7.485212 z m -1.705906,3.856246 c -0.212902,1.775468 -0.04873,3.69425697 -2.326323,5.865894 l -1.553354,1.472532 2.076598,-0.519016 c 0.766566,-0.191643 1.608321,-0.600364 2.416803,-0.903858 0.201373,-0.07559 0.375099,-0.108059 0.564973,-0.163497 -0.06946,0.06718 -0.112912,0.107191 -0.181725,0.176703 -0.49221,0.497221 -0.98869,1.064969 -1.096143,1.82092 l -0.07977,0.557053 0.55705,0.07871 c 1.017916,0.143949 1.767977,0.571459 2.470687,1.092447 -1.15829,0.264237 -1.96948,0.589213 -2.768094,0.863182 l -0.950346,0.325408 2.393292,1.97755 c 0.0091,0.01067 0.01818,0.02152 0.02718,0.03222 0.05633,0.171825 0.11409,0.3455083 0.167188,0.5134703 -0.06614,8.61e-4 -0.132777,8.61e-4 -0.184886,0.0028 -0.471006,0.01479 -1.017532,-0.03711 -2.087435,-0.4482303 l -0.563126,0.9553623 c 0,0 0.851153,0.722415 1.453517,1.672216 0.346583,0.546484 0.543791,1.124561 0.755682,1.68225 -0.48376,-0.270534 -1.01866,-0.526894 -1.53725,-0.747755 -1.11194,-0.473563 -2.123346,-0.806656 -2.123346,-0.806656 l -1.282888,-0.423415 0.604066,1.208929 c 0.315307,0.630611 0.788206,1.061981 1.095086,1.469626 0.118731,0.157711 0.191842,0.298219 0.260434,0.443213 -0.857141,-0.378837 -1.769318,-0.831541 -3.054672,-0.768622 l -0.189648,0.01003 -0.145807,0.122556 c -1.603849,2.205912 -6.896616,1.826423 -9.225836,1.571846 -1.052956,-0.115087 -3.919461,0.133104 -4.001854,0.143159 3.421171,-1.609053 12.386208,0.783583 13.092986,-3.471738 0.08501,-0.811304 -0.441194,-1.507855 -1.136026,-1.857903 -1.767964,-0.816412 -3.813008,-0.184035 -5.401484,0.78051 -2.604859,1.658421 -4.617617,2.321321 -7.01163,3.526943 l -0.2842,0.143159 C 78.56824,15.24765 78.212771,14.997697 77.966485,14.652053 77.714699,14.298695 77.55263,13.818639 77.52327,13.089717 l -0.008,-0.195455 -0.127844,-0.14897 c -0.101117,-0.117424 -0.08723,-0.137441 -0.0869,-0.148707 3.02e-4,-0.01127 0.01069,-0.05946 0.0721,-0.151609 0.06142,-0.09215 0.165189,-0.21027 0.277341,-0.355521 0.112151,-0.145255 0.26242,-0.322313 0.292656,-0.639728 l 0.02985,-0.31458 -0.252505,-0.18859 c -0.150473,-0.112858 -0.243126,-0.07121 -0.373485,-0.09879 0.33509,-0.36647 0.67584,-0.772906 0.91152,-1.3417873 l 0.249637,-0.601953 -0.632066,-0.158743 c -0.385129,-0.09629 -0.57322,-0.05758 -0.866353,-0.04597 0.496527,-0.672936 1.437756,-1.865336 2.110412,-2.37322 0.110404,0.600977 0.588705,1.127988 1.096626,1.341925 0.692434,0.291656 1.439909,0.0016 1.385414,-1.476366 -0.699084,1.219761 -1.263006,1.046166 -1.615426,-0.784471 0.03833,-0.251301 -0.04193,-0.199807 0.615688,-1.100371 0.258198,-0.353578 0.838928,-1.606388 3.281037,-2.427891 -0.994563,-0.171288 -1.756344,-0.04477 -2.544636,0.357104 -0.218008,-1.034447 -0.11796,-1.98795303 0.286052,-2.95959303 0.353888,-0.85110597 1.001857,-1.47643997 1.818684,-2.37449297 0.0435,1.148177 0.512452,1.731848 1.001445,2.28468897 0.357124,0.40376 0.698416,0.702241 0.855521,0.913368 0.157104,0.211128 0.17644,0.203534 0.08373,0.418383 l -0.457206,1.05916603 1.116215,-0.292657 c 1.706801,-0.44649603 4.1869,-1.35109203 5.741156,-0.50290503 l 0.382197,0.208663 0.297674,-0.318543 C 94.441731,-1.4492523 97.8014,-2.0185483 98.332141,-2.9418783 Z m 21.175006,5.652742 0.0214,0.0085 c 0.74126,0.30379 1.68291,0.504551 2.49393,0.822505 0.77562,0.304077 1.34075,0.69388 1.57819,1.220816 -0.0554,0.709779 -0.11408,2.4297 -0.53118,5.5686753 -0.15242,1.1472 -1.95874,14.434356 -3.97595,15.413114 -0.91275,0.519131 -1.38181,-0.03126 -1.43477,0.03935 -0.0367,-0.0567 -0.0757,-0.112705 -0.11833,-0.167987 -0.0426,-0.05528 -0.0889,-0.109896 -0.1392,-0.162441 -0.10062,-0.105088 -0.21823,-0.203031 -0.36027,-0.289224 -0.12018,-0.07293 -0.25312,-0.132351 -0.39699,-0.175911 h -2.7e-4 c -0.28784,-0.08711 -0.62036,-0.111726 -0.9852,-0.05996 -0.18248,0.02591 -0.37298,0.0711 -0.57026,0.137084 -0.57013,0.190698 -1.2586,0.620491 -2.02113,1.191497 0.0305,-0.35545 0.10385,-0.661351 0.23032,-0.916008 0.0422,-0.08493 0.0904,-0.164143 0.14474,-0.237718 0.0874,-0.118277 0.18776,-0.229524 0.29741,-0.338352 0.10962,-0.108783 0.22842,-0.215505 0.35209,-0.323296 0.24744,-0.215669 0.51477,-0.437512 0.76889,-0.699949 l 1.16323,-1.200211 -0.002,2.64e-4 0.002,-0.0014 -1.65214,0.254621 c -1.02369,0.157359 -2.52298,0.435782 -3.84839,1.622295 -0.007,-0.152038 -0.008,-0.305679 -2.7e-4,-0.459852 0.008,-0.15417 0.0248,-0.309032 0.0549,-0.463551 0.0603,-0.309032 0.17286,-0.616886 0.36767,-0.916535 l 0.63206,-0.972267 h -2.5e-4 l -1.15399,0.10563 c -0.37302,0.03415 -0.71623,0.145811 -1.03724,0.298469 -0.16047,0.07632 -0.31568,0.163096 -0.46619,0.255414 -0.15057,0.09236 -0.29662,0.19047 -0.43925,0.289753 -0.23603,0.164285 -0.44244,0.304208 -0.65848,0.45906 0.10257,-0.820298 0.35088,-1.535893 0.94717,-2.022453 l -0.007,0.0027 c 0.15558,-0.125356 0.32938,-0.239718 0.52404,-0.342577 3.14141,-1.458542 4.84629,-1.854815 7.94663,-1.175651 l -0.0243,-0.03671 -0.14475,-0.06682 c -0.60032,-0.278041 -1.27033,-0.688424 -2.03962,-0.947438 -0.38463,-0.129509 -0.80482,-0.215253 -1.24379,-0.215531 -0.18676,-1.19e-4 -0.37698,0.01653 -0.5692,0.05071 0.003,-0.0086 0.004,-0.01204 0.007,-0.0206 0.20501,-0.597287 0.47713,-1.385904 0.74855,-2.172215 0.54285,-1.57262 1.0832,-3.134708 1.0832,-3.134708 l 0.19969,-0.576865 -1.47042,-0.377442 -4.13181,2.177763 c -1.4988,-2.92407 -4.08266,-5.1930623 -5.78366,-6.6394623 2.7034,-1.399233 5.74218,-2.517652 8.44189,-3.310883 1.96921,-0.578593 3.75578,-0.990818 5.08532,-1.231908 0.66477,-0.120545 1.2167,-0.198164 1.60935,-0.232702 0.19632,-0.01726 0.35428,-0.0232 0.4543,-0.02086 0.0847,0.0021 0.11829,0.02315 0.0523,-0.0087 z m -31.063405,1.776545 c -1.554587,-0.0065 -3.890185,1.940705 -5.606447,2.942951 -0.736109,-0.02678 -0.696069,-0.966486 -0.187799,-1.885103 0.05802,-0.104886 -0.949679,0.822617 -1.076071,1.539884 -0.03566,0.249689 -0.01801,0.58913 0.17591,0.883254 0.193886,0.294124 0.50971,0.490823 0.911253,0.624671 l 0.251717,0.08293 0.224512,-0.139461 c 1.951575,-1.220196 4.469112,-3.154071 6.677498,-3.282624 l -0.436344,-0.414154 c -0.258343,-0.245233 -0.575478,-0.350842 -0.934229,-0.352352 z m 13.021665,3.130484 c -0.45364,0.27873 -0.91433,0.551694 -1.33651,0.850502 l -0.434226,-0.358426 c 0.464056,-0.188234 1.113746,-0.346477 1.770736,-0.492076 z m 1.33545,0.470683 c 1.69026,1.442033 4.38779,3.7365123 5.85182,6.5911293 l -0.0663,0.03487 0.26017,0.361595 c 0.008,0.017 0.0165,0.03368 0.0243,0.05071 l 0.009,-0.0042 0.0845,0.117274 c 0.8383,1.162279 1.62842,2.218219 1.8682,3.755153 l -0.19017,0.0589 c -1.27796,-3.535293 -3.95496,-7.549854 -8.03752,-10.8497213 0.0659,-0.03813 0.1292,-0.07792 0.19573,-0.115688 z m -1.22346,0.734019 c 4.08463,3.2033023 6.74705,7.1697343 7.9868,10.5655143 l -0.72715,0.225303 -0.0452,0.02325 c -0.20517,0.106351 -0.39398,0.22601 -0.56894,0.356312 h -0.009 l -0.0787,0.06392 c -2.39795,0.503533 -4.46412,2.021826 -5.64422,4.182517 -0.56902,0.397288 -1.10921,0.914343 -1.5906,1.583467 -0.51926,0.553938 -0.76025,1.260264 -1.044108,2.036715 -0.273257,0.747443 -0.604258,1.58661 -1.133122,2.46857 -1.751581,0.885695 -3.672016,1.442497 -5.62943,1.982042 -0.04583,-0.132944 -0.09164,-0.265786 -0.137612,-0.398575 l -0.145797,-0.41944 -0.441368,0.04411 c -0.04089,0.0041 -0.103886,-0.01825 -0.155043,-0.02615 -0.805148,-4.129128 -1.726298,-9.085028 -3.340997,-13.376925 1.218359,1.613045 2.730119,3.002556 4.30666,4.014003 1.918483,1.230828 3.936205,1.926235 5.703392,1.663234 1.767175,-0.263 3.188365,-1.621443 3.608815,-4.030113 0.34976,-2.003639 0.10212,-4.749657 -0.94321,-8.446388 l 1.28447,0.142633 -0.91336,-1.078183 c -0.32386,-0.382152 -0.64765,-0.7642383 -0.97148,-1.1463353 0.20817,-0.143894 0.41182,-0.289717 0.62916,-0.429209 z m -10.80692,0.0737 c -1.027738,0.05981 -2.210739,0.579415 -3.247764,1.4091413 3.615482,-1.4122823 4.466459,-0.7110833 5.801116,0.957739 C 93.156619,9.5025107 92.091902,8.8193587 90.77054,8.8962457 Z m 8.440834,2.4212923 c 0.239775,0.02646 0.491805,0.06298 0.688856,0.05679 0.17798,-0.0055 0.33271,-0.01795 0.48019,-0.03117 1.08515,3.755473 1.31514,6.458473 1.00344,8.244065 -0.36479,2.089775 -1.32532,2.911045 -2.666671,3.110672 -1.341361,0.199629 -3.158147,-0.360263 -4.930537,-1.497359 -1.561422,-1.00175 -3.084379,-2.433449 -4.257798,-4.073432 1.412978,-0.115658 2.772233,-0.523799 4.018227,-1.493926 1.205472,-0.01379 2.077812,0.652967 3.404124,1.043054 l 0.606186,0.17776 0.106708,-0.622029 c 0.136696,-0.796405 -0.156848,-1.439737 -0.502118,-1.940571 0.142091,0.0574 0.135533,0.04478 0.283415,0.107765 0.530369,0.225879 1.081524,0.484506 1.528526,0.741679 0.447003,0.257174 0.787754,0.539376 0.874541,0.664028 0.04204,0.06041 0.08224,0.118137 0.167717,0.189646 0.0855,0.0715 0.29765,0.22132 0.59588,0.114633 0.29823,-0.106689 0.36129,-0.344469 0.38432,-0.449024 0.0231,-0.104554 0.0208,-0.170714 0.0179,-0.237718 -0.0117,-0.268017 -0.0824,-0.549183 -0.19467,-0.924459 -0.22451,-0.75055 -0.62948,-1.770247 -1.201009,-2.671424 -0.131713,-0.207681 -0.266683,-0.32671 -0.407287,-0.508982 z m -9.299793,0.442419 c 0.194043,-0.0028 0.380396,0.0058 0.552828,0.02666 0.210218,0.02552 0.392482,0.07278 0.559426,0.128898 l -0.633646,1.494454 z m -0.477813,0.0404 -0.812467,2.031697 -0.70682,-1.61833 c 0.514061,-0.226446 1.031146,-0.358311 1.519287,-0.413367 z m 2.094829,0.36318 c 0.220869,0.163714 0.293091,0.338737 0.26756,0.582411 -0.03107,0.296604 -0.514583,1.209726 -1.299793,1.855785 z m -4.18701,0.354201 -0.524306,1.341257 -0.328049,-0.862917 c 0.168296,-0.08643 0.344276,-0.167324 0.497094,-0.26466 l 0.01289,-0.0085 0.0122,-0.009 c 0.106896,-0.07628 0.220163,-0.130047 0.330159,-0.196249 z m 2.290805,0.299259 0.538832,1.855258 c -0.403083,0.03211 -0.884287,0.06429 -1.317484,0.09377 z m -1.928681,0.318277 0.725034,1.660859 c -0.472175,0.03129 -0.927637,0.06831 -1.413628,0.100369 z m 26.040959,0.131802 c -0.16727,0.483344 -0.41957,1.212027 -0.84073,2.43212 -0.27154,0.786625 -0.54312,1.576612 -0.74855,2.175122 -0.0998,0.290694 -0.18298,0.530693 -0.2438,0.70972 -0.0141,5.71e-4 -0.0216,0.0014 -0.0359,0.0019 -0.28218,-1.437692 -0.95777,-2.50603 -1.64422,-3.466985 z m -28.129974,0.122295 -0.365558,0.794244 -0.248022,-0.567618 c 0.210079,-0.07155 0.411504,-0.148149 0.61358,-0.226626 z m 0.511888,0.233228 0.495242,1.301903 c -0.389834,0.02627 -0.745553,0.05152 -1.131803,0.08056 z m -2.014534,0.27417 -0.483355,0.781035 -0.399632,-0.502377 c 0.291877,-0.08934 0.586241,-0.187631 0.882987,-0.278658 z m 0.507136,0.24881 0.390386,0.893556 c -0.342749,0.02752 -0.66657,0.05598 -0.9971,0.08743 z m -1.792922,0.426308 0.494715,0.621501 c -0.446723,0.0489 -0.87223,0.103479 -1.272053,0.16429 z m -0.798469,0.0074 -0.515319,0.520603 -0.251722,-0.201268 c 0.238578,-0.113809 0.495887,-0.21959 0.767041,-0.319335 z m 18.704185,0.551769 c 5.8e-4,5.13e-4 0.005,4.82e-4 0.006,0.0011 0.048,0.04014 0.0439,0.04528 0.0341,0.03116 -0.009,-0.01342 -0.0302,-0.0188 -0.0398,-0.03196 z m -20.008466,0.05784 0.419176,0.33571 c -0.441206,0.0921 -0.84613,0.192552 -1.159799,0.31326 l 0.104329,-0.122787 c 0.167715,-0.197083 0.388196,-0.368395 0.636294,-0.526149 z m 6.890651,2.806658 c 1.578294,3.988729 2.525452,8.748967 3.330171,12.881678 -0.103236,-0.06187 -0.215335,-0.118743 -0.326731,-0.176439 -0.794955,-4.164542 -1.470831,-8.37444 -3.17697,-12.579776 0.05761,-0.04212 0.114886,-0.08448 0.17353,-0.125463 z m -1.081084,0.882727 c 1.633529,4.16573 2.269323,8.402204 3.107768,12.700748 l 0.0098,-0.0019 c 0.01643,0.223047 0.03636,0.504545 0.05599,0.787639 0.03165,0.455536 0.05,0.726175 0.06208,0.902537 -0.171671,0.05388 -0.343876,0.104129 -0.515053,0.160591 l -0.509247,0.167725 -1.424633,0.343392 c 4.046691,-0.262307 5.668521,-0.407431 5.996995,-0.497647 l 0.157429,-0.03275 -0.0029,-0.0095 c 2.004615,-0.552545 4.024684,-1.152377 5.927109,-2.140784 l 0.13576,-0.07105 0.08189,-0.130745 c 0.653021,-1.046625 1.007821,-2.023364 1.295831,-2.811149 0.288,-0.787785 0.52389,-1.364479 0.81854,-1.671157 l 0.029,-0.0309 0.0238,-0.03382 c 0.44712,-0.631227 0.94022,-1.090832 1.45669,-1.432646 0.58916,-0.390759 1.21308,-0.600594 1.84099,-0.737455 -0.64281,0.754167 -1.18989,1.459369 -1.64448,2.253568 -0.1041,0.181719 -0.20322,0.36842 -0.29768,0.561277 -0.006,0.01202 -0.0122,0.02333 -0.0179,0.03539 -0.0966,0.199226 -0.1875,0.406131 -0.2739,0.620971 -0.006,0.01576 -0.013,0.03114 -0.0193,0.04701 -0.0866,0.218411 -0.1678,0.44598 -0.24405,0.684365 -0.003,0.01003 -0.007,0.01977 -0.01,0.02984 -0.0786,0.248052 -0.15191,0.507755 -0.2195,0.781564 l -0.37031,1.503436 1.24881,-0.914424 c 1.29737,-0.949855 2.58348,-1.498766 3.8933,-1.846803 -0.48816,0.58766 -0.91855,1.187419 -1.26334,1.783676 -0.34479,0.596256 -0.60378,1.189065 -0.74935,1.763077 -0.097,0.382667 -0.14371,0.756976 -0.13153,1.118332 l 0.038,1.123084 0.87639,-0.703909 c 0.88911,-0.71447 1.84256,-1.241384 2.77496,-1.502906 0.18656,-0.0523 0.37236,-0.09397 0.55652,-0.124406 0.36825,-0.06087 0.73029,-0.07686 1.08083,-0.0428 -0.50384,0.325929 -1.03702,0.681842 -1.52721,1.094559 -0.16338,0.137572 -0.32195,0.281405 -0.47305,0.432648 -0.58304,0.583584 -1.05203,1.277993 -1.257,2.137877 -0.87558,1.732999 -3.49367,3.194862 -6.53989,4.247493 -2.79922,0.967281 -5.840481,1.602675 -8.175654,2.069733 l -1.274174,0.444533 0.01423,0.05125 c -3.221535,0.349466 -6.212035,-0.779497 -7.775776,-2.188848 -1.110348,-4.58119 -1.418994,-9.412309 -0.583198,-13.489973 0.619574,-3.022764 1.851884,-5.603072 3.816436,-7.430803 z m 20.437949,2.710249 c -0.19149,0.444704 -0.30875,0.928585 -0.35896,1.435553 l -0.22082,0.0067 c -0.18621,0.0055 -0.37768,0.02032 -0.57105,0.03935 -0.39741,0.03769 -0.80575,0.101658 -1.2187,0.208664 0.67457,-0.713501 1.46976,-1.299243 2.36953,-1.690175 z m 2.50898,1.723721 c -0.19417,0.958941 -0.0544,1.868628 0.0668,2.464608 l 0.15346,0.75568 -0.98706,0.05705 c -0.85421,0.04941 -1.67823,0.242819 -2.48283,0.540148 -0.80465,0.29734 -1.58991,0.698655 -2.36689,1.162969 0.56118,-1.546286 1.37753,-2.554063 2.74829,-4.06445 l 0.079,0.842843 0.75752,-0.431326 c 0.30617,-0.174275 0.59565,-0.375218 0.87322,-0.577392 0.27758,-0.202168 0.54324,-0.405785 0.80191,-0.585842 0.13161,-0.09161 0.23074,-0.08872 0.35658,-0.16429 z m 3.1355,1.04728 c -0.0267,0.03378 -0.0519,0.04058 -0.0779,0.07581 -0.50613,0.685362 -0.80758,1.678375 -0.54305,3.032754 l 0.18674,0.956419 0.73482,-0.63999 c 1.12024,-0.976422 1.95809,-1.462401 2.52852,-1.653198 0.42781,-0.143095 0.6835,-0.135577 0.85948,-0.07738 0.0587,0.01939 0.10855,0.04438 0.15294,0.07131 0.0444,0.02694 0.0851,0.06098 0.12228,0.09957 0.44961,0.195308 0.48152,2.230589 0.48152,2.230589 l 0.0201,-0.02588 c -0.0771,3.982325 -3.28083,7.175374 -7.24751,7.1775 -5.8e-4,-3e-6 -0.002,5e-6 -0.002,0 -0.55239,-0.0035 -1.08813,-0.145807 -1.62414,-0.274433 0.43991,-1.471164 2.34404,-2.661295 3.7475,-3.596938 l 0.81959,-0.545959 -0.88643,-0.428157 c -1.43438,-0.691578 -3.00698,-0.48074 -4.48414,0.193344 -0.34089,0.155558 -0.67663,0.335914 -1.0045,0.535394 0.45936,-1.170384 1.44531,-2.655089 2.74221,-3.940309 l 0.63683,-0.630745 0.024,0.116482 0.35658,-0.493133 0.0389,-0.03909 -0.0116,0.0011 0.36793,-0.510038 c 0.56515,-0.783435 1.17642,-1.234808 1.79583,-1.52166 0.0884,-0.04093 0.17707,-0.0786 0.26572,-0.113312 z m 8.80401,7.564982 c -0.33377,0.49393 -0.94613,1.084076 -1.89329,1.71606 -0.16825,-0.396907 -0.39654,-0.734186 -0.61938,-1.041205 -0.23374,-0.322022 -0.46235,-0.61854 -0.65611,-0.941628 0.83954,-0.330779 1.01972,-0.519036 1.85549,-1.218886 0.0709,-0.03837 1.75133,0.837403 1.31329,1.485659 z m -30.602761,0.19572 c 0.07359,0.04483 0.125051,0.07236 0.201796,0.116746 0.262878,0.152059 0.568557,0.273777 0.897257,0.348391 l -1.052038,0.2187 c -0.01406,-0.206956 -0.01696,-0.256055 -0.03514,-0.51717 -0.0041,-0.05969 -0.0078,-0.107343 -0.01191,-0.166667 z m 26.444811,0.07739 2.7e-4,2.63e-4 c 0.24233,0.413768 0.51025,0.753317 0.73454,1.062336 0.33013,0.454813 0.56275,0.826317 0.63973,1.321713 l 0.0642,-0.0103 0.004,0.02007 c 0.65659,3.443079 2.05367,6.491479 2.54201,9.794776 -0.24389,0.145513 -0.46687,0.297348 -0.67037,0.417592 -0.19632,0.116009 -0.30523,0.120812 -0.44215,0.159799 -1.6722,-3.642505 -1.70125,-5.083178 -1.67829,-6.358166 0.0237,-1.318643 0.0349,-2.619737 -1.73059,-5.51638 0.19655,-0.285067 0.37587,-0.582717 0.53698,-0.891707 z m -1.26176,1.982041 c 1.27816,2.241721 1.35383,3.180365 1.33176,4.4065 -0.0244,1.352869 0.0184,3.17248 1.9646,7.279456 l 0.13682,0.289487 0.3204,0.02906 c 0.55456,0.05042 1.00938,-0.18467 1.39461,-0.412308 0.0834,-0.0493 0.15608,-0.09659 0.23534,-0.146065 0.0544,0.776068 0.0543,1.568394 -0.0298,2.38801 -0.17908,0.06395 -0.35787,0.127794 -0.53698,0.19176 l -0.41019,0.146855 0.013,0.141841 c -3.46054,1.650409 -6.90027,2.830094 -10.52906,3.156367 l 0.002,0.02112 c -0.24587,0.01535 -0.49153,0.03034 -0.73746,0.0457 -0.50493,-0.567837 -0.89135,-1.235724 -1.25066,-1.934234 3.4192,0.232422 6.68266,-0.775867 8.66271,-2.066826 l 0.36054,-0.234549 -0.13286,-0.409403 c -1.71328,-5.284906 -1.58171,-6.865335 -1.44163,-7.842584 0.07,-0.488624 0.17078,-0.958167 0.002,-1.581088 -0.13866,-0.510192 -0.57806,-1.241836 -1.12493,-2.114371 0.59007,-0.451593 1.17986,-0.903136 1.76994,-1.354728 z m -2.75884,1.819334 c 0.63603,0.994522 0.93143,1.586837 1.02879,1.945063 0.10786,0.396875 0.0467,0.591291 -0.0301,1.127047 -0.14842,1.03538 -0.21149,2.922608 1.35182,7.886694 -1.89879,1.114159 -5.08291,2.015203 -8.27099,1.641047 -0.38634,-0.853386 -0.76545,-1.734414 -1.23773,-2.595618 l -0.36344,-0.662705 -0.53117,0.540148 c -1.4131,1.439516 -2.60835,3.00475 -3.92182,4.413106 -3.046705,-1.071144 -6.712172,-4.134535 -8.94903,-7.440309 l 0.269935,-0.259641 c 2.339157,-0.46834 5.424949,-1.11886 8.291345,-2.109353 2.79524,-0.965903 5.38199,-2.212759 6.72769,-4.069733 0.72212,0.204323 1.46865,0.311642 2.22002,0.316166 h 0.002 0.001 c 1.21483,1.4e-5 2.36858,-0.26278 3.41152,-0.731909 z M 91.4512,43.578521 c 2.256516,3.304027 5.713284,6.295075 8.95537,7.592186 -0.570663,0.549333 -1.173195,1.061889 -1.83307,1.516113 -0.308634,-0.129973 -0.617604,-0.259346 -0.926308,-0.389329 l -0.148706,-0.06234 c -2.851155,-1.541816 -5.788566,-3.815814 -7.998155,-7.042269 0.725993,-0.678681 1.391014,-1.179274 1.950869,-1.61437 z m -2.755151,2.428686 c 2.234035,3.192362 5.130585,5.471167 7.954839,7.046755 -0.532675,0.914675 -1.19374,1.537706 -1.953778,2.081885 -0.889944,0.637192 -1.909597,1.172808 -2.87401,1.976488 l -0.262547,0.218708 0.0729,0.334389 c 0.820597,3.722714 -0.725242,6.810355 -1.192025,10.465139 -0.60783,0.656258 -1.218941,1.014517 -1.94268,1.210781 -0.75894,0.205806 -1.65389,0.238489 -2.724252,0.218699 -1.911176,-0.03531 -4.400528,-0.182614 -7.553098,0.387213 l 0.283676,-0.566029 -0.877707,-0.02773 c -0.295205,-0.0095 -0.590144,-0.01955 -0.885367,-0.02903 1.125602,-1.499024 2.125455,-2.406965 3.052826,-2.900951 1.115494,-0.5942 2.252531,-0.842138 3.538832,-1.59324 l 0.256474,-0.149764 0.665084,-9.506876 c 0.964889,-4.381811 2.603976,-7.084503 4.172739,-8.876653 0.09028,-0.103135 0.178566,-0.192774 0.268095,-0.289753 z m 31.831241,3.680404 0.19335,2.133916 0.12387,0.138668 c 4.85654,5.442139 3.79775,13.433672 3.38907,19.659283 -0.95335,0.09092 -1.8557,0.06451 -2.92499,0.175654 -0.0192,-0.03376 -0.0347,-0.07579 -0.0539,-0.110674 -0.0891,-0.161936 -0.17571,-0.346995 -0.16957,-0.328582 l -0.17591,-0.526937 -0.52906,0.169574 c -0.8468,0.271602 -1.69395,0.542948 -2.54067,0.814576 l 0.24168,-1.325676 -0.8196,0.172743 c -1.19213,0.251856 -2.38366,0.50378 -3.5758,0.755678 0.46686,-1.23586 0.9486,-1.992623 1.45747,-2.424723 0.64085,-0.544153 1.4573,-0.897038 2.22821,-1.908881 l 0.1009,-0.131794 0.013,-0.165616 c 0.27781,-3.565195 -1.74098,-6.330268 -2.54569,-9.198373 l -0.0769,-0.275488 -0.26862,-0.09985 c -1.39635,-0.518091 -2.14855,-1.115773 -2.71422,-1.917587 -0.46644,-0.661181 -0.80915,-1.547429 -1.18119,-2.597469 3.40876,-0.407173 6.63646,-1.516742 9.82859,-3.008454 z"
       sodipodi:nodetypes="ccccsscccscsccccccccccscsccsccccscccscccccsssccccscccccccccsccsccccccccccccccccccccssccccccscccsccssccsssscccscccscccccccscscccccccccsccscscccsccccsccccccscccssscccccccccsccsccscssccccccccscsccsssccssccsssccccccsscccsssscccccccssccscccccsssscscccscccccsccccccccccccccccccccccccscccccccsssccccccsccccsccssccccccsssssssssccsccccccccscccccccccccccccccccsccccccccccccccccccccccccccccccscccccccccccccccsccccccccccsccccccscscccccccsscccsscsscsccccscccscccccccsccscssccscccssssscccccccscccccccsscssscsccsccccccscccscscccscccscccccsccccccsccccscccscccccscscsccccccccccsccccsscccccsccsccccccscccccccsccccccscccccsccccccscss"
       style="fill:#000000;stroke-width:0.511125" /><path
       d="m 110.85916,27.289268 -0.28427,0.814123 c 0.52092,0.181504 1.5045,1.181056 2.19006,2.455823 0.68555,1.274768 1.1211,2.809964 0.94027,3.98651 l 0.85113,0.1312 c 0.22715,-1.477936 -0.28657,-3.137191 -1.03279,-4.52477 -0.74622,-1.387581 -1.6748,-2.518074 -2.6644,-2.862886 z"
       id="path1"
       style="stroke-width:0.861221" /><path
       d="m 110.3861,35.92029 0.85703,0.09535 c 0.0607,-0.54829 0.8154,-1.730191 1.90495,-2.68302 1.08956,-0.952829 2.48878,-1.720096 3.67601,-1.806483 l -0.0621,-0.858939 c -1.49135,0.108517 -2.99405,0.979673 -4.18003,2.016824 -1.18598,1.03715 -2.08065,2.194656 -2.19585,3.236263 z"
       id="path1-6"
       style="stroke-width:0.861221" /><path
       d="m 77.462309,69.759659 2.59196,-1.8514"
       id="path5"
       style="stroke-width:0.86122" /><path
       d="m 81.753071,66.981481 c -1.14164,0.132373 -2.880653,1.201801 -4.197992,2.435216 l 0.581079,0.813902 c 1.249355,-1.964982 1.58022,-1.932704 3.616913,-3.249118 z"
       id="path6"
       sodipodi:nodetypes="cccc"
       style="stroke-width:1.00173" /><path
       style="fill:#ffffff;stroke-width:0.86122"
       d="m 116.87844,71.568951 1.6569,-2.408898"
       id="path9" /><path
       d="m 118.92457,68.860529 c -0.80931,0.64673 -1.87227,1.529537 -2.01929,2.740086 l 0.70969,0.487842 c 0.23097,-1.236448 0.58986,-2.043668 1.3096,-3.227928 z"
       id="path10"
       sodipodi:nodetypes="cccc"
       style="stroke-width:0.86122" /><path
       style="fill:#ffffff;stroke-width:0.86122"
       d="m 118.46181,66.091237 2.90408,0.338328"
       id="path9-3" /><path
       d="m 121.81264,66.633583 c -1.24914,-0.766567 -2.51681,-0.793514 -3.46568,0.351619 1.20097,-0.373947 1.76007,-0.615392 3.46568,-0.351619 z"
       id="path10-74"
       sodipodi:nodetypes="ccc"
       style="stroke-width:0.86122" /><path
       style="fill:#ffffff;stroke-width:0.86122"
       d="m 119.27781,65.481605 2.90408,0.338328"
       id="path9-3-7" /><path
       d="m 122.62864,66.023951 c -1.24914,-0.766567 -2.51681,-0.793514 -3.46568,0.351619 1.20097,-0.373947 1.76007,-0.615392 3.46568,-0.351619 z"
       id="path10-74-4"
       sodipodi:nodetypes="ccc"
       style="stroke-width:0.86122" /><path
       style="fill:#ffffff;stroke-width:0.86122"
       d="m 120.0527,71.727276 1.6569,-2.408898"
       id="path9-4" /><path
       d="m 122.09883,69.018854 c -0.80931,0.64673 -1.87227,1.529537 -2.01929,2.740086 l 0.70969,0.487847 c 0.23097,-1.236453 0.58986,-2.043673 1.3096,-3.227933 z"
       id="path10-7"
       sodipodi:nodetypes="cccc"
       style="stroke-width:0.86122" /><path
       d="m 118.29826,49.688686 c -1.38732,1.422003 -1.39949,1.411744 -2.20106,4.259053 0.56634,-1.100556 1.63617,-2.762636 3.09977,-3.486479 z"
       id="path2-1-0"
       sodipodi:nodetypes="cccc"
       style="stroke-width:0.834887" /><path
       d="m 119.71019,49.090411 c -1.38731,1.422002 -1.39948,1.411745 -2.20106,4.259053 0.56634,-1.100555 1.63617,-2.762635 3.09978,-3.486478 z"
       id="path2-1-7-48"
       sodipodi:nodetypes="cccc"
       style="stroke-width:0.834887" /><path
       d="m 120.67212,49.23907 c -1.20006,1.230068 -1.21059,1.221195 -1.90397,3.684186 0.4899,-0.952008 1.41533,-2.389747 2.68138,-3.015889 z"
       id="path2-1-7-5-8"
       sodipodi:nodetypes="cccc"
       style="stroke-width:0.722198" /><path
       d="m 91.078989,16.881867 c 1.655101,1.098809 1.647284,1.112672 4.593969,1.371006 -1.18665,-0.351894 -3.018626,-1.094121 -4.001916,-2.397669 z"
       id="path2-1-0-6"
       sodipodi:nodetypes="cccc"
       style="stroke-width:0.834887" /><path
       d="m 92.221974,16.5078 c 1.892996,0.91711 1.88677,0.932769 5.015157,0.784111 -1.295125,-0.200184 -3.322907,-0.717983 -4.540216,-1.945588 z"
       id="path2-1-0-6-5"
       sodipodi:nodetypes="cccc"
       style="stroke-width:0.883982" /><path
       d="m 90.049019,17.105672 c 1.485996,1.31854 1.476327,1.331179 4.358346,1.997251 -1.126099,-0.513678 -2.836896,-1.503735 -3.629122,-2.931487 z"
       id="path2-1-7-48-8"
       sodipodi:nodetypes="cccc"
       style="stroke-width:0.834887" /><path
       d="m 89.210308,17.249883 c 1.12937,1.295274 1.119679,1.30505 3.518792,2.194636 -0.90944,-0.565014 -2.267936,-1.603279 -2.790027,-2.915672 z"
       id="path2-1-7-5-8-0"
       sodipodi:nodetypes="cccc"
       style="display:inline;stroke-width:0.722198" /><ellipse
       style="fill:#ffffff;fill-opacity:1;stroke:none;stroke-width:0.995918;stroke-dasharray:none"
       id="path14"
       cx="64.58477"
       cy="55.437889"
       rx="0.57062036"
       ry="0.34935942"
       transform="rotate(-35.317286)" /><ellipse
       style="fill:#ffffff;fill-opacity:1;stroke:none;stroke-width:0.432348;stroke-dasharray:none"
       id="path14-8"
       cx="60.954094"
       cy="53.211975"
       rx="0.24771731"
       ry="0.15166366"
       transform="rotate(-35.317286)" /></g></svg>
