<?xml version="1.0" encoding="UTF-8" standalone="no"?>
<!-- Created with Inkscape (http://www.inkscape.org/) -->

<svg
   width="105.83334mm"
   height="105.83334mm"
   viewBox="0 0 105.83333 105.83333"
   version="1.1"
   id="svg1"
   xml:space="preserve"
   inkscape:version="1.4 (e7c3feb100, 2024-10-09)"
   sodipodi:docname="utah.svg"
   inkscape:export-filename="../pngs/NBL.png"
   inkscape:export-xdpi="96"
   inkscape:export-ydpi="96"
   xmlns:inkscape="http://www.inkscape.org/namespaces/inkscape"
   xmlns:sodipodi="http://sodipodi.sourceforge.net/DTD/sodipodi-0.dtd"
   xmlns="http://www.w3.org/2000/svg"
   xmlns:svg="http://www.w3.org/2000/svg"><sodipodi:namedview
     id="namedview1"
     pagecolor="#ffffff"
     bordercolor="#000000"
     borderopacity="0.25"
     inkscape:showpageshadow="2"
     inkscape:pageopacity="0.0"
     inkscape:pagecheckerboard="0"
     inkscape:deskcolor="#d1d1d1"
     inkscape:document-units="mm"
     inkscape:zoom="1.3989161"
     inkscape:cx="271.99631"
     inkscape:cy="118.6633"
     inkscape:window-width="1920"
     inkscape:window-height="1011"
     inkscape:window-x="0"
     inkscape:window-y="32"
     inkscape:window-maximized="1"
     inkscape:current-layer="layer1"
     showgrid="false" /><defs
     id="defs1" /><g
     inkscape:label="Capa 1"
     inkscape:groupmode="layer"
     id="layer1"><circle
       style="fill:#00275d;fill-opacity:1;stroke:none;stroke-width:2.128"
       id="path4"
       cx="52.916672"
       cy="52.916672"
       r="51.425007" /><circle
       style="fill:#3e2680;fill-opacity:1;stroke:none;stroke-width:1.59324"
       id="path4-4"
       cx="52.916672"
       cy="52.916672"
       r="38.501942" /><path
       style="fill:#ffffff;stroke:none;stroke-width:2.128"
       d="m 35.78122,21.729482 -7.647422,9.221806 c 0,0 -3.901746,3.217561 0,1.092489 3.901744,-2.125073 6.554933,0.768616 6.554933,0.768616 0,0 0.936419,3.298088 3.433535,-0.808789 2.497116,-4.106875 5.462445,-0.790125 5.462445,-0.790125 0,0 4.838162,3.826201 4.213883,-0.141316 -0.624279,-3.967514 -9.364188,-10.506805 -9.364188,-10.506805 z"
       id="path3" /><path
       style="fill:#ffffff;stroke:none;stroke-width:1.75387"
       d="m 68.715566,20.916418 -6.027877,7.865903 c 0,0 -3.075447,2.731349 0,0.941499 3.075446,-1.789852 5.166752,0.732142 5.166752,0.732142 0,0 0.738107,2.852232 2.706393,-0.660471 1.968284,-3.5127 4.305626,-0.622796 4.305626,-0.622796 0,0 3.813552,3.348878 3.321481,-0.07694 C 77.69587,25.669936 70.80687,19.941418 70.80687,19.941418 Z"
       id="path3-6" /><path
       style="fill:#ffffff;fill-opacity:1;stroke-width:6.11382"
       d="m 91.821541,47.12912 c -6.729485,-2.033689 -8.074578,-3.487006 -12.242122,1.019534 -1.660073,1.718383 -3.919939,8.171409 -4.204648,8.210278 -0.284714,0.03887 -4.127086,-7.351598 -7.216118,-10.561174 -5.648177,-5.868586 -6.785638,-5.420053 -6.072633,-6.503289 2.73748,-3.481587 12.097471,11.629393 13.155013,13.240239 l 2.538632,-5.257003 c 4.064575,-8.446239 10.189626,-3.677894 18.434313,-1.670811 l 2.070543,0.504346 -2.593084,-2.312769 C 94.265236,42.526446 87.874521,36.764286 81.489842,30.993678 70.452166,21.017593 69.838167,20.554876 69.003504,21.583826 68.520694,22.178993 63.757753,28.223725 58.419185,35.0165 53.080617,41.80928 48.366723,47.5096 47.943867,47.683887 47.521034,47.858139 46.096092,47.179678 44.777397,46.17613 43.458695,45.17259 41.441672,43.651466 40.295118,42.795869 l -2.084649,-1.555632 -7.154837,9.815277 c -3.935161,5.398407 -7.267198,9.835413 -7.404532,9.860017 -0.137316,0.0246 -1.640753,-0.52133 -3.34094,-1.21319 -1.700184,-0.691855 -3.369936,-1.208399 -3.710555,-1.147877 -0.340602,0.06052 -3.337326,1.444877 -6.6593369,3.076351 -5.617806,2.758954 -7.6773489,3.335493 -7.6773489,2.149149 0,-0.26522 5.0279627,-7.054939 11.1732498,-15.088298 6.145281,-8.033361 13.773951,-18.027057 16.952598,-22.208215 3.178643,-4.181153 6.128761,-7.676238 6.555811,-7.766851 0.42705,-0.09049 4.154036,2.466528 8.282184,5.682535 6.983058,5.4401 14.444988,8.755565 11.958227,11.977216 -0.755116,0.978269 -6.598712,-4.446643 -12.897891,-9.425313 -3.717366,-2.938086 -6.922476,-5.325963 -7.122464,-5.306392 -0.420387,0.04108 -29.7016983,38.206688 -29.468639,38.409686 0.085158,0.07418 2.2035611,-0.870862 4.707494,-2.100128 l 4.552607,-2.23505 3.014894,1.130007 c 1.658198,0.621503 3.21543,0.97014 3.460519,0.774762 0.245102,-0.195407 2.156229,-2.703753 4.246965,-5.574142 7.097657,-9.744443 9.888889,-13.297599 10.537413,-13.413785 0.355885,-0.06376 2.637305,1.389604 5.069824,3.229696 l 4.42276,3.345613 10.085074,-12.803431 C 70.063223,16.830992 69.649434,17.295032 70.695428,17.939271 c 2.298516,1.415675 33.055482,29.827689 32.884642,30.377468 -0.42046,1.352981 -2.48478,1.14448 -11.758529,-1.187619 z"
       id="path1"
       sodipodi:nodetypes="ssssscsscsscscsscsssssssscssscsccscssscssss" /><text
       xml:space="preserve"
       style="font-style:oblique;font-weight:bold;font-size:20.5249px;line-height:1;font-family:Waree;-inkscape-font-specification:'Waree Bold Oblique';text-align:center;letter-spacing:0px;writing-mode:lr-tb;direction:ltr;text-anchor:middle;fill:#6caedf;fill-opacity:1;stroke:#ffffff;stroke-width:1.93201;stroke-dasharray:none"
       x="97.43219"
       y="93.305893"
       id="text3"
       transform="matrix(0.99999997,-0.17841799,-0.54057311,1.096448,0,0)"><tspan
         sodipodi:role="line"
         id="tspan3"
         x="97.43219"
         y="93.305893"
         style="font-style:normal;font-variant:normal;font-weight:normal;font-stretch:normal;font-family:Sportsball;-inkscape-font-specification:Sportsball;fill:#6caedf;fill-opacity:1;stroke:#ffffff;stroke-width:1.93201;stroke-dasharray:none">Utah</tspan></text></g></svg>
