<?xml version="1.0" encoding="UTF-8" standalone="no"?>
<!-- Created with Inkscape (http://www.inkscape.org/) -->

<svg
   width="105.83334mm"
   height="105.83334mm"
   viewBox="0 0 105.83333 105.83333"
   version="1.1"
   id="svg1"
   xml:space="preserve"
   inkscape:version="1.4.2 (ebf0e940d0, 2025-05-08)"
   sodipodi:docname="utah.svg"
   inkscape:export-filename="../pngs/NBL.png"
   inkscape:export-xdpi="96"
   inkscape:export-ydpi="96"
   xmlns:inkscape="http://www.inkscape.org/namespaces/inkscape"
   xmlns:sodipodi="http://sodipodi.sourceforge.net/DTD/sodipodi-0.dtd"
   xmlns="http://www.w3.org/2000/svg"
   xmlns:svg="http://www.w3.org/2000/svg"><sodipodi:namedview
     id="namedview1"
     pagecolor="#ffffff"
     bordercolor="#000000"
     borderopacity="0.25"
     inkscape:showpageshadow="2"
     inkscape:pageopacity="0.0"
     inkscape:pagecheckerboard="0"
     inkscape:deskcolor="#d1d1d1"
     inkscape:document-units="mm"
     inkscape:zoom="1.2754121"
     inkscape:cx="252.46742"
     inkscape:cy="231.29779"
     inkscape:window-width="1920"
     inkscape:window-height="1011"
     inkscape:window-x="0"
     inkscape:window-y="32"
     inkscape:window-maximized="1"
     inkscape:current-layer="layer1"
     showgrid="false" /><defs
     id="defs1" /><g
     inkscape:label="Capa 1"
     inkscape:groupmode="layer"
     id="layer1"><g
       id="g26"
       transform="matrix(0.34553928,0,0,0.34553928,34.631882,42.60465)"><path
         style="fill:#6caedf;fill-opacity:1"
         d="m -92.361334,157.07992 -2.48615,-2.49653 0.18377,-3.79089 c 1.04829,-21.62489 7.16724,-44.6886 18.4523,-69.550897 1.29078,-2.84373 2.34687,-5.24207 2.34687,-5.32963 0,-0.16564 -5.73658,1.9858 -14.49712,5.43699 -4.21241,1.65946 -5.18338,1.95578 -5.55625,1.69564 -0.24851,-0.17337 -1.36805,-1.27317 -2.48787,-2.44401 l -2.03603,-2.12879 1.26566,-3.7028 c 7.814,-22.860479 22.92324,-44.136399 44.64372,-62.864579 10.72543,-9.2478514 23.9934,-18.3407914 37.80226,-25.90702 11.3311697,-6.208655 23.3213997,-11.659685 36.26972,-16.489055 8.13416,-3.03382 22.77631,-7.76257 23.34981,-7.54092 0.1287,0.0497 0.8598,0.84583 1.62468,1.76909 1.09939,1.32705 1.509,1.65025 1.95553,1.54298 0.31066,-0.0746 2.88656,-1.08215 5.72422,-2.23894 15.50618,-6.32118 30.51084,-10.41132 44.05312,-12.00851 1.64079,-0.19351 5.507384,-0.33397 8.863544,-0.32198 4.83119,0.0173 6.52657,0.12576 8.99584,0.57566 7.24874,1.32072 12.1592,3.88147 16.63656,8.67579 2.93031,3.13775 5.1957,6.31092 6.78554,9.50467 1.63965,3.29379 2.24248,5.35005 2.24248,7.64913 0,0.90559 0.0978,1.4771 0.22811,1.33347 0.12546,-0.13824 2.52865,-5.78776 5.34042,-12.55448 2.81177,-6.76671 5.14502,-12.34784 5.18499,-12.4025 0.04,-0.0547 1.14547,0.95737 2.45667,2.24896 l 2.38399,2.34834 1.72322,5.95312 c 0.94778,3.27422 2.99435,10.39184 4.54795,15.81693 1.5536,5.425105 2.91939,9.830415 3.0351,9.789595 0.1157,-0.0408 2.61325,-3.6461 5.55011,-8.011735 5.76066,-8.5632 21.43814,-31.67331 23.00733,-33.91501 l 0.95988,-1.37126 2.39912,2.42959 2.39911,2.4296 1.73172,46.0375036 c 0.95245,25.3206314 1.64846,46.1148714 1.54669,46.2094314 -0.10177,0.0946 -8.45988,1.86612 -18.57358,3.93679 -10.18703,2.08569 -18.57821,3.92968 -18.8138,4.13439 -0.23389,0.20323 -3.05452,5.57543 -6.26806,11.9382 l -5.84279,11.568689 -6.63525,1.38612 -6.63526,1.38612 -11.04148,-8.279899 c -6.07281,-4.55394 -11.71311,-8.7735 -12.53399,-9.3768 l -1.4925,-1.0969 -3.44282,3.88964 C 95.283436,82.942973 72.472946,98.321944 47.182326,107.3083 c -9.36949,3.32921 -20.32743,6.08121 -28.04583,7.04351 -3.9086,0.48731 -11.3419903,0.41645 -14.5520803,-0.13871 -7.2932,-1.26131 -14.9769297,-5.04069 -18.9472497,-9.31953 -3.04501,-3.28163 -5.83467,-8.165696 -7.12689,-12.477606 -0.35683,-1.190661 -0.77883,-2.165431 -0.93779,-2.166161 -0.15895,-7.2e-4 -1.90274,0.34077 -3.87509,0.75889 l -3.58608,0.76021 -2.41108,-2.42115 -2.41108,-2.42115 0.92836,-2.75667 c 0.51059,-1.51617 0.92835,-2.87081 0.92835,-3.0103 0,-0.52927 -7.08347,9.4329 -11.16572,15.703431 -10.64606,16.352856 -20.61845,35.771996 -27.99225,54.509036 l -1.92821,4.89965 -7.70118,1.55665 c -4.23565,0.85615 -7.82099,1.59971 -7.96743,1.65235 -0.14644,0.0526 -1.38503,-1.02773 -2.75241,-2.40083 z"
         id="path5" /><text
         xml:space="preserve"
         style="font-style:oblique;font-weight:bold;font-size:31.5933px;line-height:1;font-family:Waree;-inkscape-font-specification:'Waree Bold Oblique';text-align:center;letter-spacing:0px;writing-mode:lr-tb;direction:ltr;text-anchor:middle;fill:#6caedf;fill-opacity:1;stroke:none;stroke-width:2.97389;stroke-dasharray:none"
         x="56.270374"
         y="-17.539423"
         id="text3"
         transform="matrix(0.96623113,-0.32002021,-0.37725801,1.1598987,0,0)"><tspan
           sodipodi:role="line"
           id="tspan3"
           x="56.27037"
           y="-17.539423"
           style="font-style:normal;font-variant:normal;font-weight:normal;font-stretch:normal;font-family:Sportsball;-inkscape-font-specification:Sportsball;fill:#6caedf;fill-opacity:1;stroke:none;stroke-width:2.97389;stroke-dasharray:none">Utah</tspan></text><path
         style="fill:#ffffff;fill-opacity:1"
         d="m -85.334722,150.89255 c 2.45066,-0.50958 4.71369,-0.98561 5.02897,-1.05784 0.39282,-0.09 0.71891,-0.52703 1.03607,-1.38859 15.25819,-41.44916 43.57123,-83.473779 72.6684505,-107.860699 l 1.51734,-1.27171 -0.35222,1.15319 c -0.19372,0.63426 -1.82399,5.84059 -3.62282,11.56962 l -3.2705905,10.41643 -6.67733,5.02012 -6.67734,5.02011 -1.86229,5.58016 c -1.02427,3.06908 -1.80754,5.63491 -1.74061,5.70185 0.0669,0.0669 3.04153,-0.47606 6.61022,-1.20664 3.56868,-0.73058 6.48851,-1.29853 6.48851,-1.26213 0,0.0364 -0.24399,0.61777 -0.54219,1.29192 -0.29821,0.67414 -0.71493,2.1285 -0.92604,3.23191 -1.54071,8.05254 2.05961,15.135849 9.5963805,18.880059 4.41111,2.1914 8.71052997,3.01689 15.68435,3.01142 9.4964995,-0.007 19.3179895,-1.91429 32.4114595,-6.29267 18.95758,-6.339309 36.55798,-16.342689 51.85833,-29.474249 5.45415,-4.68104 14.091662,-13.5323 19.498312,-19.98083 l 0.63605,-0.75861 12.94887,9.59737 c 7.12187,5.27855 13.1477,9.64936 13.39072,9.71291 0.24302,0.0636 2.89794,-0.39307 5.89983,-1.01472 4.2552,-0.8812 5.42681,-1.21149 5.31656,-1.49878 -0.12922,-0.33674 -3.39459,-5.20036 -9.84682,-14.6664 -2.04618,-3.00194 -2.3885,-3.6437 -2.00451,-3.75791 0.99514,-0.29601 13.6065,-2.84824 13.66151,-2.76476 0.0321,0.0488 0.63434,1.99368 1.33824,4.32201 0.70389,2.32834 1.3525,4.37266 1.44135,4.54295 0.0889,0.17029 1.76601,-2.23457 3.72701,-5.34412 2.57561,-4.08414 3.73349,-5.69591 4.1707,-5.80564 0.33289,-0.0836 7.30093,-1.5202 15.48454,-3.19255 8.18362,-1.67236 16.11094,-3.29931 17.61628,-3.61546 l 2.73697,-0.5748 -0.15743,-2.53019 c -0.0866,-1.3916 -0.7557,-19.02034 -1.48691,-39.1749802 -0.73121,-20.1546298 -1.41575,-37.3149398 -1.5212,-38.1339998 l -0.19174,-1.48922 -8.89818,13.13088 c -4.894,7.22199 -11.7401,17.3983 -15.21354,22.6140398 l -6.31536,9.48316 -0.34751,-1.28106999 C 161.05149,-10.276049 153.41006,-36.900039 153.18252,-37.141109 c -0.0934,-0.099 -1.35233,2.63946 -2.7976,6.08541 -4.09837,9.77178 -10.24233,24.2486998 -10.32779,24.3352298 -0.0425,0.043 -0.44576,-0.57483 -0.8962,-1.37297 -1.25184,-2.2181198 -3.73449,-4.4672698 -6.39957,-5.7976398 l -2.28291,-1.1396 1.0108,-1.17363 c 1.29875,-1.50796 2.75115,-4.4134 3.29667,-6.59481 0.64514,-2.57975 0.40522,-7.19125 -0.50692,-9.74359 -2.80102,-7.83784 -10.25764,-12.31016 -22.15454,-13.28781 -15.779262,-1.2967 -43.273542,5.62559 -68.649282,17.28396 -1.74625,0.80228 -3.21799,1.41671 -3.27054,1.36539 -0.0525,-0.0513 0.2796,-1.36519 0.7381,-2.91972 0.45851,-1.55453 0.78666,-2.87341 0.72923,-2.93084 -0.27514,-0.27514 -12.84899,3.90745 -20.02491,6.66113 -24.9322495,9.56746 -47.53453,22.3432198 -66.41042,37.53798 -22.27033,17.92721 -38.44822,38.94816 -46.4177,60.31342 -0.53517,1.43474 -0.93645,2.6433 -0.89173,2.68569 0.0447,0.0424 2.93881,-1.04667 6.43131,-2.42013 3.4925,-1.37346 8.0764,-3.09591 10.18645,-3.82768 4.18186,-1.45027 12.22331,-3.97748 12.32587,-3.87369 0.0352,0.0356 -0.36072,0.77906 -0.87973,1.65219 -1.54459,2.59842 -7.28851,14.23187 -9.27866,18.79251 -4.40683,10.09875 -8.49106,21.384679 -11.28698,31.189279 -3.55025,12.44986 -5.35724,22.38574 -6.10345,33.5604 -0.16439,2.46182 -0.14805,2.57968 0.35763,2.57968 0.29144,0 2.53498,-0.41692 4.98563,-0.9265 z"
         id="path16" /><path
         id="path17"
         style="fill:#3e2680;fill-opacity:1"
         d="m -85.337413,143.8403 c 2.35474,-23.88197 16.2616,-61.527068 31.12228,-84.246273 1.29172,-1.974803 2.34859,-3.658787 2.34859,-3.742188 0,-0.630921 -25.08014,6.766648 -30.23357,8.917614 -0.41801,0.174469 -0.43743,0.115023 -0.18195,-0.556945 0.15731,-0.413744 1.11253,-2.3621 2.12273,-4.32968 7.60985,-14.82186 20.87921,-30.149587 37.95008,-43.836957 19.66665,-15.76865539 43.6204896,-28.975432 68.79167,-37.927777 6.11821,-2.17599 6.21771,-2.20667 6.21771,-1.91754 0,0.59304 -0.88077,1.16518 -3.57188,2.32025 -14.57651,6.256495 -31.0111304,16.9116256 -45.64062,29.5904246 -4.67327,4.0501274 -15.63032,15.1787444 -19.41688,19.7209014 -4.82153,5.783654 -10.86291,14.05349 -10.26652,14.05349 0.12685,0 3.25587,-0.765863 6.95337,-1.701918 10.91885,-2.764201 25.59325,-5.878526 31.3289796,-6.648901 1.56469,-0.210156 1.65407,-0.326009 -1.95176,2.529722 -8.5717496,6.788639 -19.6472096,18.003056 -28.4824696,28.839845 -17.78674,21.816141 -33.46956,48.482142 -44.19233,75.141672 -1.5029,3.73658 -2.32069,5.45198 -2.62874,5.51405 -0.39848,0.0803 -0.42772,-0.10691 -0.26869,-1.71979 z M 2.2407366,102.73325 c -9.99256,-1.12938 -15.4620096,-5.724303 -15.4749696,-13.000621 -0.01,-5.571386 3.8269196,-10.1108 9.7179196,-11.497356 2.06996,-0.487203 4.85118,-0.369761 6.66492,0.281439 2.16152,0.776061 3.83051,2.52724 2.40863,2.52724 -0.84878,0 -2.35224,1.521304 -2.67011,2.701802 -0.62389,2.316949 0.60136,4.587657 3.17751,5.888773 5.2912404,2.6724 17.5245904,1.914415 31.7625704,-1.968025 23.4429,-6.392457 48.39238,-20.409233 64.896803,-36.459435 2.21007,-2.149243 2.66647,-2.480963 3.12933,-2.274431 0.49865,0.222505 0.33632,0.484061 -2.03453,3.27812 -3.21772,3.792091 -11.712943,12.30152 -15.638763,15.664891 -17.12753,14.673684 -36.5002,25.140241 -57.68187,31.16403 -10.75174,3.057653 -21.4783904,4.459753 -28.2574404,3.693573 z M 11.165937,85.4101 c -1.4640104,-0.636206 -1.6690304,-2.285923 -0.35566,-2.86181 0.85017,-0.372784 1.07849,-0.673843 1.08371,-1.428946 0.006,-0.913226 -0.78003,-3.032987 -1.46037,-3.936765 l -0.6162904,-0.818665 6.2342304,-1.298002 6.23421,-1.298002 1.01524,-3.175 c 0.55838,-1.74625 1.08497,-3.488201 1.17021,-3.871001 0.14655,-0.658112 -0.0833,-0.842928 -4.22238,-3.394915 -2.40755,-1.484402 -4.43339,-2.789569 -4.50187,-2.90037 -0.0685,-0.110801 0.67461,-2.778576 1.6513,-5.92839 l 1.77581,-5.726931 0.31971,2.708721 c 0.79008,6.693994 2.64542,10.761138 6.61892,14.509536 4.03203,3.803608 9.13231,5.52604 15.36811,5.190009 8.68293,-0.4679 16.57756,-4.052989 23.69942,-10.762313 1.00739,-0.94904 1.50293,-1.279408 1.40525,-0.936846 -0.083,0.291042 -0.47126,1.575394 -0.8628,2.854116 -0.39155,1.278722 -0.6448,2.392054 -0.56278,2.474072 0.082,0.08202 3.14332,-0.468247 6.80289,-1.222809 3.65956,-0.754562 6.70648,-1.319205 6.77093,-1.254763 0.0644,0.06444 -1.88012,1.312833 -4.32124,2.774201 -18.66938,11.176345 -32.87594,16.861918 -49.02692,19.620939 -6.44924,1.101704 -12.57976,1.396569 -14.21963,0.683934 z m -33.13456,-8.36951 c 0,-0.262852 0.92834,-0.995984 8.12064,-6.41304 l 5.5746596,-4.198694 0.53255,-1.754431 c 0.72589,-2.391368 2.10261,-6.79252 7.86137001,-25.131453 C 2.8328566,30.905713 4.9819766,23.768876 4.8964366,23.683333 4.7689766,23.55587 -24.069893,29.397206 -25.798323,29.90058 c -0.45191,0.131612 -0.41932,0.01332 0.24156,-0.876723 2.25297,-3.034227 5.16392,-6.423488 8.35064,-9.722772 3.41253,-3.533077 9.9739196,-9.6946324 10.3237396,-9.6946324 0.0913,0 0.73858,1.3096884 1.43832,2.9104174 0.69974,1.600729 1.361,2.910416 1.46946,2.910416 0.18781,0 6.61084,-1.310567 25.1330604,-5.128194 4.58391,-0.9447934 12.72539,-2.6226114 18.09219,-3.7284864 5.36679,-1.105874 9.8013,-1.967193 9.85445,-1.91404 0.0532,0.05315 -0.79188,0.659497 -1.87784,1.347432 -3.94187,2.497075 -9.69231,7.5743444 -12.00406,10.5988054 -0.56268,0.736167 -0.92072,0.846623 -6.56341,2.024822 -3.28255,0.685399 -6.06316,1.347041 -6.17915,1.470316 -0.16636,0.176824 -5.02068,15.494974 -9.92298,31.312679 -0.33826,1.091406 -1.2825,4.114963 -2.09833,6.719016 -0.8158404,2.604053 -1.4509504,4.762685 -1.4113804,4.79696 0.0396,0.03427 2.0662704,1.283962 4.5037404,2.777082 2.43747,1.493121 4.43177,2.85488 4.43177,3.026132 0,0.198561 -5.00851,1.3402 -13.8244904,3.151148 -7.60346,1.56188 -16.5926696,3.410723 -19.9760296,4.10854 -3.38336,0.697817 -6.15156,1.170808 -6.15156,1.051092 z m 58.22389,-11.754083 c -7.40965,-1.606691 -11.84439,-8.61695 -11.30366,-17.868374 0.4665,-7.981641 3.82208,-16.535199 9.50394,-24.226077 2.62661,-3.555343 8.79816,-9.730653 12.89666,-12.904527 3.53624,-2.7384554 8.57675,-6.0798204 13.09229,-8.6788924 3.48515,-2.00599499 12.53927,-6.554268 13.0474,-6.554268 0.6473,0 0.27755,0.483256 -1.335,1.74481 -0.90951,0.711537 -2.64025,2.23794701 -3.84608,3.39202201 l -2.19244,2.09831799 1.68475,0.424102 c 7.00198,1.762608 10.9347,9.3385704 9.95419,19.1756644 -0.95105,9.541561 -6.6396,22.731268 -13.44153,31.166084 -4.2247,5.238894 -10.33168,9.544504 -16.02533,11.298355 -4.24878,1.308777 -8.70752,1.65435 -12.03519,0.932783 z m 11.94814,-13.535819 c 3.82888,-2.083939 8.10167,-10.602539 10.88435,-21.699976 1.65017,-6.580981 1.85895,-10.80331 0.68881,-13.930784 -0.5892,-1.574786 -1.53528,-3.108505 -2.01439,-3.265623 -0.32236,-0.105712 -3.00142,3.813299 -5.19545,7.600065 -4.97426,8.58527 -8.77708,18.51823 -9.73005,25.414868 -0.76415,5.530139 1.48448,7.994434 5.36673,5.88145 z m 87.519623,11.390641 c -3.08089,-2.277427 -13.06171,-9.620085 -29.57211,-21.755515 -4.9868,-3.665383 -9.213513,-6.72026 -9.392703,-6.788615 -0.22153,-0.0845 -0.84773,1.54893 -1.9565,5.103423 -3.85912,12.371658 -4.38465,13.974706 -4.67634,14.264427 -0.16915,0.168009 -3.93847,1.046185 -8.37626,1.951501 -4.43779,0.905316 -8.21803,1.703327 -8.40052,1.773356 -0.18249,0.07003 -0.33052,0.08482 -0.32894,0.03287 0.004,-0.132396 1.35348,-4.468103 4.35278,-13.985077 6.11162,-19.392579 11.5174,-36.7359274 11.51032,-36.9285134 -0.005,-0.134995 -2.79479,-1.834539 -6.19959,-3.776764 -3.90012,-2.22477599 -6.14371,-3.65337099 -6.06396,-3.86120099 0.0744,-0.19393401 2.384,-0.78695401 5.60427,-1.43898301 6.67836,-1.352208 13.9583,-2.851359 25.982883,-5.350631 8.12855,-1.689493 9.53551,-1.910871 12.84836,-2.021624 4.04152,-0.135114 5.86714,0.159843 8.4506,1.365317 5.33988,2.491659 6.55443,7.98402601 3.33543,15.083368 -2.45775,5.4204604 -7.92598,10.5624594 -16.2195,15.2518574 -1.7883,1.011155 -3.4675,1.907033 -3.73155,1.990841 -0.26405,0.08381 -0.44356,0.316962 -0.3989,0.518122 0.1488,0.670319 11.71982,17.534709 11.90897,17.356943 0.10236,-0.0962 1.45462,-3.09154 3.00502,-6.656303 1.5504,-3.564764 5.28418,-12.136856 8.29728,-19.049096 3.01311,-6.9122394 7.79257,-17.8926894 10.62102,-24.4009984 2.82846,-6.5083086 5.26171,-11.8361496 5.40723,-11.8396396 0.14552,-0.004 1.32071,4.071332 2.61154,9.055165 1.29083,4.9838326 3.20968,12.3952636 4.26413,16.4698486 2.72094,10.5142704 2.49753,9.7938084 2.90352,9.3631964 0.1905,-0.20205 1.41205,-2.034238 2.71456,-4.07153 1.3025,-2.0372914 4.81469,-7.5141674 7.80485,-12.1708344 7.81123,-12.1646276 13.13548,-20.4793856 15.20549,-23.7460456 0.99119,-1.56418 1.93428,-2.84411 2.09575,-2.84427 0.19283,-2e-4 0.35043,1.2483 0.4592,3.63771 0.29121,6.3971 1.58853,57.476565 1.46298,57.602108 -0.14407,0.144079 -23.11183,4.905707 -23.66271,4.905707 -0.20965,0 -0.37784,-0.0893 -0.37374,-0.198437 0.004,-0.109141 2.08265,-2.341563 4.61901,-4.960939 l 4.61157,-4.762499 -0.0151,-6.614583 c -0.008,-3.638021 -0.0925,-7.595337 -0.18724,-8.794035 l -0.17217,-2.179452 -3.96875,6.256213 c -5.264,8.298002 -13.52158,21.373903 -15.21517,24.093263 -0.74607,1.19794 -1.43786,2.227134 -1.53733,2.287097 -0.0995,0.05996 -2.08107,-6.068432 -4.40358,-13.618658 -2.32252,-7.550226 -4.3102,-13.639576 -4.41708,-13.531889 -0.23086,0.232598 -7.36747,19.05628 -7.36747,19.432599 0,0.14257 1.30923,1.81628 2.90939,3.719356 1.60016,1.903076 2.87339,3.496128 2.8294,3.540116 -0.0761,0.07613 -14.30492,3.040944 -16.38827,3.414783 -0.5457,0.09792 -0.99218,0.293133 -0.99218,0.433803 0,0.207851 3.33911,5.227251 11.56403,17.383203 1.41331,2.088796 0.32308,1.783946 -3.36195,-0.940065 z M 103.01238,18.68902 c 5.72464,-3.428901 10.52757,-7.625884 11.89156,-10.3912874 1.41929,-2.877513 0.73469,-5.825242 -1.52592,-6.570283 -0.88759,-0.292528 -1.40612,-0.262354 -3.82679,0.222685 -1.54004,0.308585 -2.89246,0.648485 -3.00536,0.755334 -0.11291,0.106848 -1.33753,3.816641 -2.72137,8.2439824 -1.38385,4.42734 -2.56765,8.198538 -2.63068,8.380439 -0.17218,0.496913 0.0493,0.418854 1.81856,-0.64087 z M 7.4001166,7.3986296 c 0,-0.158671 9.4661204,-5.526301 14.4198004,-8.17654699 18.12208,-9.69541461 33.30925,-15.58888261 50.24103,-19.49631861 9.78414,-2.25794 17.05572,-3.19223 24.84508,-3.19223 5.461693,0 7.183313,0.31772 8.110803,1.49682 1.0213,1.29838 0.4395,2.84776 -1.1837,3.15227 -0.83569,0.15678 -0.91843,0.25387 -0.91843,1.07769 0,1.136246 1.01474,3.155539 2.10697,4.192801 l 0.8334,0.791454 -4.18217,0.845169 c -2.300183,0.464843 -8.277333,1.686267 -13.282553,2.7142746 -5.00522,1.028008 -9.20098,1.869106 -9.32391,1.869106 -0.12293,0 -0.77423,-1.101328 -1.44734,-2.447396 -0.6731,-1.3460666 -1.24918,-2.4765756 -1.28017,-2.5122416 -0.0933,-0.107417 -5.8228,2.4962806 -10.3336,4.6960016 -4.41483,2.152921 -11.44938,6.099065 -14.18937,7.95975301 -0.87676,0.5954 -1.62525,1.04211199 -1.66331,0.99269299 -0.0381,-0.04942 -0.25344,-0.56610199 -0.47863,-1.14818499 -0.22519,-0.582083 -0.58367,-1.093378 -0.79664,-1.136211 -0.32193,-0.06475 -39.5777804,7.89105499 -41.0142404,8.31217199 -0.25466,0.07466 -0.46302,0.07867 -0.46302,0.0089 z M 0.27758661,4.3544426 c -0.24445,-0.456759 0.12538,-0.804084 3.35776999,-3.153464 C 23.047927,-12.908555 45.591117,-24.501286 67.989707,-31.892946 c 32.417293,-10.69789 54.217673,-10.44983 59.718093,0.67951 0.87439,1.7692 0.99379,2.2571 1.08985,4.45339 0.13929,3.18471 -0.50399,5.45554 -2.19687,7.75515 -3.13345,4.256495 -8.49672,6.060268 -13.46061,4.527076 -1.65533,-0.51128 -3.84988,-1.88839 -4.06876,-2.553208 -0.0564,-0.171292 0.42122,-0.54312 1.06136,-0.826288 1.54446,-0.68319 2.37408,-2.01662 2.4007,-3.85864 0.0468,-3.23915 -2.59703,-5.2158 -8.82502,-6.59793 -2.16336,-0.4801 -3.37979,-0.5579 -8.731243,-0.55841 -3.58888,-3.5e-4 -7.28043,0.14318 -8.73125,0.33948 -15.49827,2.09688 -32.44031,6.82546 -47.16201,13.163077 -9.41561,4.05337 -27.73248,13.6384786 -37.6874304,19.7216006 -0.83520999,0.510368 -0.84714999,0.510395 -1.11892999,0.0026 z" /></g></g></svg>
