<?xml version="1.0" encoding="UTF-8" standalone="no"?>
<!-- Created with Inkscape (http://www.inkscape.org/) -->

<svg
   width="105.83334mm"
   height="105.83334mm"
   viewBox="0 0 105.83333 105.83333"
   version="1.1"
   id="svg1"
   xml:space="preserve"
   inkscape:version="1.4.2 (ebf0e940d0, 2025-05-08)"
   sodipodi:docname="vancouver.svg"
   inkscape:export-filename="../pngs/NBL.png"
   inkscape:export-xdpi="96"
   inkscape:export-ydpi="96"
   xmlns:inkscape="http://www.inkscape.org/namespaces/inkscape"
   xmlns:sodipodi="http://sodipodi.sourceforge.net/DTD/sodipodi-0.dtd"
   xmlns="http://www.w3.org/2000/svg"
   xmlns:svg="http://www.w3.org/2000/svg"><sodipodi:namedview
     id="namedview1"
     pagecolor="#ffffff"
     bordercolor="#000000"
     borderopacity="0.25"
     inkscape:showpageshadow="2"
     inkscape:pageopacity="0.0"
     inkscape:pagecheckerboard="0"
     inkscape:deskcolor="#d1d1d1"
     inkscape:document-units="mm"
     inkscape:zoom="0.59937489"
     inkscape:cx="-111.78313"
     inkscape:cy="-161.83527"
     inkscape:window-width="1920"
     inkscape:window-height="1011"
     inkscape:window-x="0"
     inkscape:window-y="32"
     inkscape:window-maximized="1"
     inkscape:current-layer="layer1"
     showgrid="false" /><defs
     id="defs1" /><g
     inkscape:label="Capa 1"
     inkscape:groupmode="layer"
     id="layer1"><g
       id="g132"
       transform="matrix(0.96709021,0,0,0.96709021,93.527058,114.0244)"><path
         id="path48-0"
         style="fill:#000000;stroke:#ffffff;stroke-width:7.286;stroke-dasharray:none"
         d="m -9.480653,-14.056928 c -1.750379,-1.161214 -4.750908,-4.166278 -5.697683,-5.706304 l -0.77848,-1.266282 -10.317834,0.155602 c -9.610817,0.144938 -10.437925,0.117945 -12.070397,-0.393925 -0.963904,-0.302238 -1.784887,-0.551193 -1.824403,-0.553233 -0.03954,-0.0021 -0.0718,0.19028 -0.0718,0.427378 0,0.374735 -1.277295,0.431086 -9.771271,0.431086 -8.493986,0 -9.771281,-0.05635 -9.771281,-0.431086 0,-0.544525 0.04204,-0.547706 -2.344454,0.177183 -2.665122,0.809507 -6.55481,0.67572 -8.785321,-0.302174 -1.753105,-0.768593 -3.600492,-2.648795 -4.486756,-4.566465 -0.576239,-1.246856 -0.627747,-1.876956 -0.714285,-8.739015 -0.104927,-8.320994 0.08451,-9.848563 1.478156,-11.91931 1.288135,-1.913969 2.882155,-3.014776 5.679348,-3.922074 1.330812,-0.431659 2.613631,-0.855769 2.850727,-0.942466 0.237096,-0.0867 -1.325931,-0.76807 -3.473391,-1.514161 -7.089453,-2.463073 -8.569672,-3.352689 -13.834907,-8.314814 -1.537309,-1.448798 -2.898731,-2.634179 -3.025403,-2.634179 -0.126673,0 -0.647104,-0.380687 -1.156521,-0.845971 -1.762946,-1.6102 -1.375954,-3.14149 3.242503,-12.830362 2.2814,-4.786038 3.641778,-6.80743 6.462259,-9.602288 1.557328,-1.543182 2.633557,-2.251977 6.188678,-4.075819 4.847895,-2.487049 5.97945,-2.937459 11.057196,-4.401249 4.385934,-1.264354 11.913299,-4.878464 14.65691,-7.037214 7.802871,-6.1395 11.140177,-8.0098 16.956039,-9.50255 8.029048,-2.0608 18.75222,0.0114 18.75222,3.62385 0,0.8835 -0.219271,1.05662 -2.370968,1.87195 -4.630959,1.75477 -8.425979,4.50669 -9.695323,7.030437 -0.789081,1.568889 -1.313976,3.961422 -1.091413,4.974765 0.43763,1.992525 1.654369,3.280536 4.48997,4.752973 8.472011,4.399255 14.571882,9.711537 19.15093147,16.67825 3.51422603,5.346662 4.38188243,7.854171 4.38349003,12.668217 0.00217,5.936157 -0.9653167,10.634247 -2.8456699,13.821194 l -0.5654974,0.958455 0.7025975,1.729111 c 0.6018634,1.481193 0.7023695,2.193493 0.7010009,4.967963 -8.799e-4,1.781369 -0.1423031,3.756155 -0.3142594,4.388415 -0.520822,1.914878 -3.7454888,6.404812 -6.7040366,9.334512 -2.3604319,2.337398 -2.751377,2.858054 -2.751377,3.664227 0,0.861751 -0.074839,0.939695 -0.902089,0.939695 h -0.9020782 l 0.1502541,1.657101 c 0.084398,0.930462 0.5214411,2.475722 0.9967405,3.523967 1.2566463,2.77147 0.7511289,3.305642 -1.6320697,1.72461 z m -42.307304,-41.803564 c 6.53674,-1.209706 12.883007,-4.419753 17.92771,-9.06814 1.203597,-1.109042 2.269561,-2.016439 2.368807,-2.016439 0.311913,0 -2.163059,3.534304 -3.400175,4.855511 -0.650515,0.694722 -0.964513,1.186857 -0.697786,1.093632 1.390575,-0.486027 3.234649,-0.867706 6.28711,-1.301283 l 3.384218,-0.480699 -1.225939,-3.312456 c -1.478318,-3.994363 -2.928178,-6.973135 -3.786536,-7.779526 -0.890554,-0.836625 -2.515976,-1.13035 -4.704636,-0.850158 -4.105119,0.525534 -7.594623,1.648787 -15.239778,4.905598 -6.193946,2.638598 -11.321733,4.423636 -15.832902,5.511596 -2.347571,0.566164 -3.404226,0.647594 -8.0205,0.61809 -2.924202,-0.01869 -5.895176,-0.170667 -6.602184,-0.337729 -0.707007,-0.167062 -1.321123,-0.268092 -1.364712,-0.224509 -0.04356,0.04358 1.591565,1.205347 3.633654,2.581701 2.993762,2.017774 4.28785,2.696784 6.681433,3.505764 4.041684,1.366006 7.02886,2.107768 10.285352,2.554004 4.115525,0.56395 6.154355,0.513517 10.306864,-0.254957 z M -81.130991,-72.61089 c 2.851318,-4.126648 5.551122,-7.214996 5.346928,-6.116426 -0.362519,1.9503 1.101482,3.266257 3.590368,3.227307 4.354597,-0.06815 10.468356,-4.037741 12.501016,-8.116759 1.030924,-2.068779 1.008971,-3.25165 -0.08049,-4.341152 l -0.851298,-0.851307 0.779457,-0.303904 c 1.570395,-0.61228 6.037707,-1.643148 9.257475,-2.136236 4.558857,-0.698162 11.166018,-0.715827 14.369525,-0.03842 4.566656,0.965662 10.976974,3.299408 14.935108,5.437296 2.287873,1.235736 0.741505,-0.0017 -2.124357,-1.700003 -2.983248,-1.767833 -7.618009,-3.51186 -12.954455,-4.874673 l -4.310856,-1.100899 -6.46628,0.01331 c -5.415902,0.01116 -7.069141,0.119854 -10.177574,0.669205 -6.22411,1.099981 -7.084826,1.438601 -13.73004,5.401598 -3.291414,1.962899 -4.538024,3.163878 -6.8936,6.641281 -2.168892,3.201804 -7.708359,14.541902 -5.903768,12.085856 0.192561,-0.262064 1.413352,-2.0153 2.712882,-3.89608 z m 17.81639,-0.07807 c 0.90085,-0.0055 2.416816,-1.433938 3.358888,-3.164834 0.441877,-0.811876 0.750749,-1.528813 0.68637,-1.59319 -0.15713,-0.157133 -5.801524,4.417316 -5.941774,4.815459 -0.07049,0.200028 0.13723,0.246942 0.574784,0.129841 0.376803,-0.100843 0.971584,-0.185118 1.321732,-0.187276 z m 24.940205,-10.355532 c 0.793046,-0.39371 1.629463,-1.066791 1.868036,-1.503246 0.384406,-0.703256 0.384406,-0.877391 0,-1.580646 -0.237606,-0.434678 -1.078227,-1.113639 -1.868036,-1.5088 -1.319114,-0.659979 -1.751921,-0.718476 -5.315808,-0.718476 -3.475005,0 -4.006201,0.06756 -5.091575,0.647567 -1.320406,0.705609 -1.805796,1.369335 -1.805796,2.469287 0,0.892404 1.36771,2.086552 2.815126,2.457888 0.585548,0.150224 1.323295,0.339456 1.639423,0.420513 0.316127,0.08105 1.868036,0.120705 3.448687,0.0881 2.406877,-0.04964 3.10727,-0.175126 4.309943,-0.772193 z m -1.501269,-17.029398 c 7.127089,-5.74522 10.860196,-7.80423 16.302785,-8.99193 l 1.868036,-0.40765 -1.868036,0.13055 c -2.256993,0.15772 -4.523252,0.73583 -7.442794,1.89861 -2.738342,1.09062 -5.066862,2.46559 -9.039942,5.33802 -1.715501,1.24026 -4.086275,2.926021 -5.268387,3.74614 l -2.149296,1.491127 1.244915,0.111159 c 0.684708,0.06114 1.409551,0.133753 1.61077,0.161368 0.201218,0.02761 2.335093,-1.537214 4.741949,-3.477394 z"
         sodipodi:nodetypes="cscsscsssssssssssssssssssssssssscscssccssccsccsssssscsssssssssssscsssscsssssscsssssccssscsssssssssssssssscsssscsss" /><path
         style="fill:#ffffff;fill-opacity:1;stroke-width:8.60488"
         d="m -22.957828,-111.9458 c -1.198709,0.23974 -14.863989,5.51406 -14.863989,5.51406 l -11.747346,8.390963 -22.056243,7.911478 -8.630705,7.671737 -6.952505,14.384505 3.596125,5.514061 18.220372,9.829412 23.494692,1.198708 c 0,0 32.1253976,-5.274318 31.406171,-6.473027 -0.719226,-1.198709 -3.596124,-23.494692 -3.596124,-23.494692 l -7.192255,-6.473029 -9.829412,-10.548638 12.706313,-9.589668 -1.198707,-2.8769 z"
         id="path125" /><path
         id="path103"
         style="fill:#00b2a9;fill-opacity:1;stroke-width:1.0862"
         d="m -8.5193118,-13.396447 c -1.5880462,-0.772125 -4.4182272,-3.2799 -5.8783942,-5.20872 -0.789972,-1.043544 -1.436326,-2.019169 -1.436326,-2.168066 0,-0.167502 -3.204981,-0.198687 -8.406163,-0.08179 -11.908465,0.26765 -12.192496,0.259384 -14.127116,-0.410736 -2.025599,-0.701642 -1.894897,-0.690812 -1.894897,-0.156902 0,0.374859 -1.293251,0.431091 -9.914963,0.431091 -8.915094,0 -9.914974,-0.0466 -9.914974,-0.461841 0,-0.327858 -0.145887,-0.40121 -0.502931,-0.252846 -2.884169,1.198492 -7.170051,1.471226 -9.515548,0.605546 -2.672215,-0.986269 -4.761835,-3.139867 -5.6325,-5.804967 -0.407782,-1.248207 -0.46396,-2.621413 -0.388002,-9.483883 0.08614,-7.784231 0.109076,-8.063027 0.765912,-9.317588 0.851777,-1.626875 2.470475,-3.344467 3.777456,-4.008219 0.553223,-0.280957 1.911147,-0.803306 3.017594,-1.160777 1.106457,-0.35747 2.110443,-0.73911 2.231077,-0.848089 0.120637,-0.108978 -0.525993,-0.428512 -1.436957,-0.710076 -0.910952,-0.281564 -3.30435,-1.156192 -5.318643,-1.943619 -4.142842,-1.619512 -5.789489,-2.714831 -9.769586,-6.498552 -1.464056,-1.391817 -3.260652,-2.940676 -3.992447,-3.44191 -1.525361,-1.04479 -1.687075,-1.347605 -1.687075,-3.159218 0,-1.044451 0.550823,-2.545933 2.648329,-7.219071 2.993882,-6.67022 4.484366,-9.132128 7.359928,-12.156843 1.737833,-1.827972 2.546455,-2.395499 6.127406,-4.300497 4.692459,-2.496301 6.76947,-3.361936 10.615322,-4.424142 4.004538,-1.106036 4.906671,-1.460071 9.304988,-3.651659 4.417824,-2.201309 5.568056,-2.926659 8.821387,-5.562879 2.917968,-2.36446 5.129351,-3.84614 7.571389,-5.07301 2.336601,-1.1739 6.726087,-2.64598 9.177423,-3.07779 3.888324,-0.68494 11.009838,-0.13338 13.712184,1.06201 1.391553,0.61556 3.119219,2.39387 3.119219,3.21066 0,0.73798 -0.370655,0.98081 -3.218823,2.10876 -6.087995,2.41101 -9.193854,5.44265 -10.015727,9.776384 -0.263121,1.387466 -0.219065,1.62942 0.599561,3.292288 0.865364,1.757791 0.940964,1.824301 3.669835,3.228277 8.157792,4.197115 14.3115273,9.447977 18.701187,15.957347 2.6948294,3.996121 3.3518174,5.203735 4.1909068,7.703369 0.653762,1.947519 0.728927,2.619271 0.7199442,6.434713 -0.012274,5.234578 -0.4762444,7.969421 -1.8777898,11.069634 -1.2443181,2.752444 -1.2956627,3.470968 -0.4169813,5.835728 0.5771632,1.553324 0.6213715,2.037877 0.4457438,4.885633 -0.2905802,4.711609 -1.4830321,6.87255 -6.9983533,12.682263 -2.6060869,2.745197 -2.946893,3.220094 -2.8092388,3.914535 0.147734,0.745306 0.097541,0.790329 -0.8822225,0.790329 h -1.0388959 l 0.1636578,1.585635 c 0.090046,0.87211 0.5825833,2.494545 1.0946179,3.605413 0.8033861,1.742959 0.8750861,2.075293 0.5231899,2.424865 -0.3508751,0.34855 -0.5300547,0.34565 -1.2837036,-0.02075 z M -62.819694,-24.279149 c 1.328785,-0.5552 2.528112,-1.830366 3.125326,-3.322946 0.383375,-0.958159 0.463645,-2.375519 0.460071,-8.124048 -0.0043,-7.779432 -0.131756,-8.503364 -1.801666,-10.27658 -0.839494,-0.891427 -1.379602,-1.166199 -3.030395,-1.541663 -3.956937,-0.899987 -7.471163,0.56827 -8.527732,3.562911 -0.354405,1.004476 -0.451012,2.722654 -0.468956,8.340827 -0.02259,7.056009 -0.02053,7.079829 0.718391,8.538063 1.243667,2.454237 3.550332,3.622379 6.698806,3.392387 0.976112,-0.07136 2.247882,-0.327337 2.826155,-0.568951 z m -4.938188,-0.458181 c -3.642572,-0.729579 -4.635695,-2.603067 -4.679426,-8.827568 l -0.0126,-1.796195 h 2.299126 2.299116 v 3.859247 c 0,4.262943 0.181309,4.762465 1.728576,4.762465 1.443878,0 1.720111,-0.794848 1.720111,-4.949585 v -3.672127 h 2.245169 2.245169 l -0.109923,3.376833 c -0.137545,4.225611 -0.694592,5.598839 -2.667334,6.57555 -1.520133,0.752606 -3.411458,1.003171 -5.067964,0.67138 z m 4.558085,-1.335885 c 1.731495,-1.014032 2.044956,-1.766812 2.188727,-5.256262 l 0.130587,-3.169444 h -1.186478 -1.186476 v 2.428667 c 0,4.878286 -0.746056,6.318098 -3.180933,6.138865 -1.997554,-0.147028 -2.401012,-0.968217 -2.525295,-5.139844 l -0.102103,-3.427688 h -1.119296 -1.119286 v 2.739439 c 0,3.858367 0.810729,5.432238 3.161288,6.137019 1.370143,0.410811 3.855406,0.184013 4.93928,-0.450752 z m -3.902727,-2.447034 c -0.258016,-1.282531 -0.188803,-13.498413 0.08223,-14.511827 0.161431,-0.603605 0.391727,-0.807035 0.913634,-0.807035 h 0.697799 v 8.046927 8.046938 l -0.751335,0.08722 c -0.645911,0.07495 -0.778134,-0.04605 -0.942324,-0.862171 z m 35.398431,4.64156 c 0.792904,-0.170044 1.863593,-0.681373 2.465304,-1.177354 1.592717,-1.312857 2.17291,-2.699076 2.385969,-5.700637 l 0.184034,-2.592683 h -3.060639 -3.060629 l -0.0043,2.514672 c -0.0022,1.383058 -0.09939,2.653423 -0.215546,2.823011 -0.449317,0.656185 -1.198415,0.677529 -1.640227,0.04671 -0.365897,-0.522386 -0.438955,-1.850026 -0.438955,-7.97741 0,-7.747722 0.04812,-8.040465 1.319994,-8.040465 0.859369,0 0.979133,0.459858 0.979133,3.759577 v 2.850406 h 3.0609 3.060901 l -0.169045,-2.945753 c -0.09298,-1.620164 -0.36051,-3.398394 -0.594543,-3.951621 -1.694678,-4.006121 -8.522346,-4.897923 -11.869873,-1.550395 -0.787918,0.78792 -1.294011,1.598479 -1.445645,2.31538 -0.302963,1.432272 -0.303256,13.626234 -3.8e-4,15.399358 0.385112,2.254527 2.004723,3.658625 4.873181,4.22472 1.737779,0.342956 2.580442,0.343445 4.170465,0.0022 z m -3.871999,-0.845465 c -3.516594,-0.528165 -4.451725,-1.964795 -4.632175,-7.116402 l -0.123327,-3.520537 h 2.190126 2.190116 v 3.462958 c 0,4.175363 0.344988,5.161285 1.80357,5.154355 0.509655,-0.0022 1.080204,-0.101994 1.267899,-0.221389 0.593239,-0.377227 0.952,-1.761252 0.952,-3.672692 v -1.849331 l 1.580649,-0.03595 c 0.869351,-0.01977 1.806959,-0.05214 2.08357,-0.0718 0.6124,-0.04377 0.780457,1.003735 0.509276,3.174202 -0.243265,1.947024 -1.127313,3.246857 -2.736963,4.024218 -1.582268,0.764142 -3.11999,0.967478 -5.084741,0.67239 z m 3.333493,-0.857827 c 1.45515,-0.417329 2.855175,-1.482098 3.184217,-2.421693 0.160486,-0.458268 0.291786,-1.460537 0.291786,-2.227275 v -1.394072 h -1.118145 -1.118145 l -0.110412,2.186466 c -0.09928,1.967064 -0.190607,2.25544 -0.909617,2.8739 -1.086134,0.934262 -2.749921,0.931808 -3.840564,-0.0054 -0.784638,-0.674432 -0.810218,-0.788581 -0.950044,-4.239003 l -0.143694,-3.545911 -1.108554,-0.09102 -1.108543,-0.09102 0.102646,3.461371 c 0.09711,3.272351 0.143216,3.501909 0.845075,4.203735 1.353068,1.353014 3.871575,1.896027 5.983962,1.29021 z m -18.65305,-3.91877 v -5.347872 l 0.789733,0.198209 c 0.434349,0.109022 0.854665,0.262806 0.934023,0.341751 0.0794,0.07897 0.184947,2.396299 0.234652,5.149674 l 0.09037,5.006122 h 2.711687 2.711676 v -4.897763 c 0,-3.495825 -0.102863,-5.021643 -0.359239,-5.330526 -0.90803,-1.093857 -1.519148,-1.555058 -2.065919,-1.55912 -0.325839,-0.0022 -0.786431,-0.129768 -1.023527,-0.282988 -0.321287,-0.207638 -0.160681,-0.279707 0.630605,-0.282987 0.686348,-0.0033 1.33129,-0.236303 1.824261,-0.660345 0.640815,-0.551203 0.786931,-0.959353 0.915113,-2.556143 0.217707,-2.712184 -0.117147,-4.930755 -0.872968,-5.783893 -1.330236,-1.501496 -2.262207,-1.730801 -7.595763,-1.868868 l -4.95506,-0.12827 0.0022,11.675449 0.0022,11.675454 h 3.013195 3.013183 z m -4.981432,4.294118 c -0.105361,-0.105362 -0.191595,-2.43324 -0.191595,-5.173027 v -4.981433 h 2.264944 2.264944 l -0.07571,1.077717 c -0.04171,0.592739 -0.09091,2.920596 -0.109521,5.173027 l -0.03378,4.09531 h -1.963828 c -1.080106,0 -2.05005,-0.08624 -2.155433,-0.191594 z m 3.25709,-4.981433 v -4.310855 h -1.127845 -1.127834 l -0.09939,4.09531 c -0.05464,2.25242 -0.05681,4.192308 -0.0043,4.310856 0.05203,0.118548 0.604275,0.215545 1.22721,0.215545 h 1.132603 z m 4.556511,0.549346 c -0.09819,-4.453126 -0.126988,-4.643939 -0.780424,-5.173027 l -0.678473,-0.549346 h 1.631385 c 1.679091,0 2.626073,0.329021 3.236941,1.124652 0.238942,0.311229 0.353004,1.847441 0.359239,4.838694 l 0.0087,4.382708 h -1.837927 -1.837926 z m 2.915632,0.233077 c 0,-3.745489 -0.242983,-4.576932 -1.428158,-4.886857 -0.567224,-0.148342 -0.583571,-0.03259 -0.583571,4.13134 v 4.28395 h 1.005864 1.005865 z m -5.747801,-11.415863 c 0,-2.507383 0.0202,-2.586519 0.660996,-2.586519 1.070255,0 1.350733,0.546917 1.350733,2.633877 0,1.627985 -0.09037,1.992525 -0.555884,2.241645 -1.3076,0.699806 -1.455845,0.466718 -1.455845,-2.289003 z m 31.271923,15.159842 c 0.122469,-2.647265 0.123425,-2.649068 1.444632,-2.746739 1.14946,-0.08494 1.195504,-0.05605 1.195504,0.750216 0,0.461223 0.08223,1.438596 0.182764,2.171955 l 0.182753,1.333365 h 2.960471 2.960459 l -0.130561,-0.934024 c -0.455606,-3.259295 -1.983086,-13.472528 -2.62188,-17.530811 l -0.757711,-4.813789 h -4.344594 c -3.931627,0 -4.348185,0.0478 -4.382563,0.502933 -0.0517,0.684461 -1.757482,13.839774 -2.096116,16.165708 -0.149591,1.027426 -0.33078,2.320677 -0.402654,2.873911 -0.07191,0.553223 -0.219348,1.620154 -0.327707,2.370968 l -0.197026,1.365104 h 3.13221 3.132209 z m -5.119401,-0.155631 c 0,-0.777176 0.703238,-6.715409 1.019616,-8.609774 l 0.155989,-0.934024 h 1.827673 1.827661 l -0.130507,1.22141 c -0.0718,0.671772 -0.170859,1.512393 -0.220183,1.868036 -0.08548,0.616679 0.0022,0.646626 1.890191,0.646626 h 1.979881 l -0.191377,-1.868036 -0.191389,-1.868036 h 1.854035 1.854046 l 0.633797,4.813789 c 0.348583,2.647579 0.631397,4.975447 0.628465,5.173026 -0.0033,0.252129 -0.595966,0.359239 -1.986323,0.359239 -2.22104,0 -2.326879,-0.09558 -2.334266,-2.107086 -0.0022,-0.658846 -0.104492,-1.355382 -0.226766,-1.547846 -0.216653,-0.340969 -3.361644,-0.607588 -3.659034,-0.310197 -0.08103,0.08103 -0.227462,1.006267 -0.325513,2.056187 l -0.178256,1.908942 h -2.113865 -2.113875 z m 3.58408,-2.225439 0.202934,-2.165535 2.776585,0.0819 2.776587,0.08201 0.0844,2.083581 0.0844,2.083581 h 1.303494 c 1.269377,0 1.299301,-0.02075 1.14278,-0.790319 -0.08842,-0.434686 -0.363649,-2.083581 -0.611672,-3.664229 -0.677061,-4.314995 -0.625151,-4.167163 -1.463339,-4.167163 h -0.742168 l 0.202022,2.011729 0.202034,2.01174 h -3.066571 -3.066567 l 0.07191,-1.939888 c 0.07082,-1.910821 0.06039,-1.941245 -0.698676,-2.030824 -0.48942,-0.05779 -0.772994,0.04714 -0.777187,0.287398 -0.0033,0.208072 -0.259308,2.059554 -0.568169,4.114394 -0.308872,2.05484 -0.564553,3.833069 -0.568181,3.951617 -0.0033,0.118548 0.560165,0.215545 1.252889,0.215545 h 1.259492 z m 1.716239,-5.012704 c 0.07929,-0.398755 0.231219,-1.500965 0.337482,-2.449348 0.10623,-0.948394 0.345126,-3.017604 0.53079,-4.598253 l 0.337569,-2.873901 0.214166,2.586514 c 0.117799,1.422585 0.262937,3.039155 0.322526,3.592378 0.05963,0.553234 0.189846,1.784767 0.289461,2.736746 l 0.181113,1.73087 h -1.17869 c -1.106628,0 -1.169866,-0.04432 -1.034417,-0.725006 z m -31.786869,-22.988878 c 6.000624,-1.143409 12.418871,-4.489387 17.560659,-9.154776 1.250107,-1.134285 2.352079,-2.062336 2.448816,-2.062336 0.225126,0 -1.917903,3.20356 -3.253006,4.862853 -0.967695,1.202672 -0.984575,1.259236 -0.316182,1.059899 1.236443,-0.368745 6.705525,-1.306094 7.675295,-1.315473 1.105762,-0.01065 1.133298,-0.200049 0.335668,-2.308156 -1.093162,-2.889157 -3.439799,-5.402483 -6.130338,-6.565778 -3.366557,-1.455585 -8.977909,-0.187686 -14.250812,3.220007 l -1.580649,1.021516 2.516573,-0.17395 c 2.176451,-0.150441 2.593986,-0.103884 3.089446,0.344498 0.783421,0.708991 0.719238,1.523422 -0.23891,3.03146 -2.211894,3.48133 -6.814243,5.546697 -13.19117,5.919712 -7.55872,0.442146 -12.912116,-2.138727 -9.052895,-4.364401 0.767663,-0.442723 0.751944,-0.448677 -0.797549,-0.302119 -4.961761,0.469306 -6.394633,0.496571 -8.909098,0.16952 -1.501618,-0.19531 -3.631949,-0.591599 -4.734062,-0.880638 -1.102112,-0.28904 -2.038058,-0.491312 -2.079888,-0.449492 -0.112161,0.112166 6.238177,4.371124 7.24503,4.859 0.951619,0.46111 5.600142,1.918774 8.411162,2.637538 2.789445,0.713247 8.03762,1.290578 10.32507,1.135822 1.137175,-0.07694 3.354251,-0.385054 4.92684,-0.684706 z M -78.889226,-75.88314 c 0.680699,-0.869356 1.691865,-2.09795 2.247032,-2.730209 l 1.009384,-1.149561 0.01086,1.333266 c 0.0076,0.872503 0.200871,1.567737 0.560794,2.011732 0.499098,0.615686 0.773733,0.678467 2.9679,0.678467 2.264141,0 2.573697,-0.07721 4.867501,-1.214061 4.048882,-2.006699 7.506555,-5.66907 8.12696,-8.608083 0.234738,-1.112023 -0.430244,-2.55312 -1.306449,-2.831215 -0.905619,-0.287433 -0.380223,-0.599003 2.332115,-1.382987 6.541421,-1.890756 15.44435,-2.658373 20.697995,-1.784597 3.739286,0.621912 9.74128,2.572401 13.75116,4.468759 3.58081,1.693449 2.821709,0.942496 -1.119079,-1.10707 -3.303514,-1.718137 -5.838672,-2.641902 -10.772409,-3.925279 -4.517169,-1.175017 -7.328613,-1.577445 -11.018173,-1.577126 -5.466996,4.72e-4 -13.062053,1.020924 -16.815979,2.259354 -2.792278,0.921178 -9.916944,5.162239 -11.637963,6.927667 -2.151218,2.20672 -4.425612,5.780821 -6.673959,10.487788 -2.621109,5.487342 -2.697056,5.963517 -0.414331,2.597705 1.072014,-1.580646 2.506048,-3.585195 3.186747,-4.45455 z m 16.802422,2.511491 c 0.855466,-0.576499 3.10544,-3.816222 2.823049,-4.0649 -0.0605,-0.05324 -1.448811,0.985793 -3.085243,2.308955 l -2.975331,2.405748 h 1.136641 c 0.704485,0 1.50325,-0.247058 2.100884,-0.649803 z m 23.019839,-9.428511 c 1.414743,-0.468354 2.476884,-1.391889 2.703552,-2.350744 0.151199,-0.639606 0.02292,-0.942753 -0.674878,-1.594574 -1.120002,-1.046236 -2.540991,-1.490477 -5.419453,-1.694277 -3.21438,-0.227584 -5.912425,0.305029 -7.179119,1.417206 -1.985986,1.743721 -0.865495,3.45079 2.908377,4.430905 1.6748,0.434965 6.079928,0.315076 7.661521,-0.208516 z m -1.578921,-16.808542 c 6.620996,-5.444918 10.648397,-7.825088 15.484485,-9.151238 2.937269,-0.80546 2.86255,-0.93162 -0.203076,-0.34288 -5.462586,1.04905 -10.198439,3.48482 -17.34948,8.92328 -1.269442,0.965419 -2.82135,2.074335 -3.448684,2.464257 l -1.14063,0.708948 1.436956,0.170394 c 0.790319,0.09372 1.458277,0.19071 1.484357,0.215542 0.02607,0.02483 1.707311,-1.319904 3.736072,-2.988303 z" /><path
         id="path48"
         style="fill:#000000;stroke-width:1.0862"
         d="m -9.480653,-14.056928 c -1.750379,-1.161214 -4.750908,-4.166278 -5.697683,-5.706304 l -0.77848,-1.266282 -10.317834,0.155602 c -9.610817,0.144938 -10.437925,0.117945 -12.070397,-0.393925 -0.963904,-0.302238 -1.784887,-0.551193 -1.824403,-0.553233 -0.03954,-0.0021 -0.0718,0.19028 -0.0718,0.427378 0,0.374735 -1.277295,0.431086 -9.771271,0.431086 -8.493986,0 -9.771281,-0.05635 -9.771281,-0.431086 0,-0.544525 0.04204,-0.547706 -2.344454,0.177183 -2.665122,0.809507 -6.55481,0.67572 -8.785321,-0.302174 -1.753105,-0.768593 -3.600492,-2.648795 -4.486756,-4.566465 -0.576239,-1.246856 -0.627747,-1.876956 -0.714285,-8.739015 -0.104927,-8.320994 0.08451,-9.848563 1.478156,-11.91931 1.288135,-1.913969 2.882155,-3.014776 5.679348,-3.922074 1.330812,-0.431659 2.613631,-0.855769 2.850727,-0.942466 0.237096,-0.0867 -1.325931,-0.76807 -3.473391,-1.514161 -7.089453,-2.463073 -8.569672,-3.352689 -13.834907,-8.314814 -1.537309,-1.448798 -2.898731,-2.634179 -3.025403,-2.634179 -0.126673,0 -0.647104,-0.380687 -1.156521,-0.845971 -1.762946,-1.6102 -1.375954,-3.14149 3.242503,-12.830362 2.2814,-4.786038 3.641778,-6.80743 6.462259,-9.602288 1.557328,-1.543182 2.633557,-2.251977 6.188678,-4.075819 4.847895,-2.487049 5.97945,-2.937459 11.057196,-4.401249 4.385934,-1.264354 11.913299,-4.878464 14.65691,-7.037214 7.802871,-6.1395 11.140177,-8.0098 16.956039,-9.50255 8.029048,-2.0608 18.75222,0.0114 18.75222,3.62385 0,0.8835 -0.219271,1.05662 -2.370968,1.87195 -4.630959,1.75477 -8.425979,4.50669 -9.695323,7.030437 -0.789081,1.568889 -1.313976,3.961422 -1.091413,4.974765 0.43763,1.992525 1.654369,3.280536 4.48997,4.752973 8.472011,4.399255 14.571882,9.711537 19.15093147,16.67825 3.51422603,5.346662 4.38188243,7.854171 4.38349003,12.668217 0.00217,5.936157 -0.9653167,10.634247 -2.8456699,13.821194 l -0.5654974,0.958455 0.7025975,1.729111 c 0.6018634,1.481193 0.7023695,2.193493 0.7010009,4.967963 -8.799e-4,1.781369 -0.1423031,3.756155 -0.3142594,4.388415 -0.520822,1.914878 -3.7454888,6.404812 -6.7040366,9.334512 -2.3604319,2.337398 -2.751377,2.858054 -2.751377,3.664227 0,0.861751 -0.074839,0.939695 -0.902089,0.939695 h -0.9020782 l 0.1502541,1.657101 c 0.084398,0.930462 0.5214411,2.475722 0.9967405,3.523967 1.2566463,2.77147 0.7511289,3.305642 -1.6320697,1.72461 z m -42.307304,-41.803564 c 6.53674,-1.209706 12.883007,-4.419753 17.92771,-9.06814 1.203597,-1.109042 2.269561,-2.016439 2.368807,-2.016439 0.311913,0 -2.163059,3.534304 -3.400175,4.855511 -0.650515,0.694722 -0.964513,1.186857 -0.697786,1.093632 1.390575,-0.486027 3.234649,-0.867706 6.28711,-1.301283 l 3.384218,-0.480699 -1.225939,-3.312456 c -1.478318,-3.994363 -2.928178,-6.973135 -3.786536,-7.779526 -0.890554,-0.836625 -2.515976,-1.13035 -4.704636,-0.850158 -4.105119,0.525534 -7.594623,1.648787 -15.239778,4.905598 -6.193946,2.638598 -11.321733,4.423636 -15.832902,5.511596 -2.347571,0.566164 -3.404226,0.647594 -8.0205,0.61809 -2.924202,-0.01869 -5.895176,-0.170667 -6.602184,-0.337729 -0.707007,-0.167062 -1.321123,-0.268092 -1.364712,-0.224509 -0.04356,0.04358 1.591565,1.205347 3.633654,2.581701 2.993762,2.017774 4.28785,2.696784 6.681433,3.505764 4.041684,1.366006 7.02886,2.107768 10.285352,2.554004 4.115525,0.56395 6.154355,0.513517 10.306864,-0.254957 z M -81.130991,-72.61089 c 2.851318,-4.126648 5.551122,-7.214996 5.346928,-6.116426 -0.362519,1.9503 1.101482,3.266257 3.590368,3.227307 4.354597,-0.06815 10.468356,-4.037741 12.501016,-8.116759 1.030924,-2.068779 1.008971,-3.25165 -0.08049,-4.341152 l -0.851298,-0.851307 0.779457,-0.303904 c 1.570395,-0.61228 6.037707,-1.643148 9.257475,-2.136236 4.558857,-0.698162 11.166018,-0.715827 14.369525,-0.03842 4.566656,0.965662 10.976974,3.299408 14.935108,5.437296 2.287873,1.235736 0.741505,-0.0017 -2.124357,-1.700003 -2.983248,-1.767833 -7.618009,-3.51186 -12.954455,-4.874673 l -4.310856,-1.100899 -6.46628,0.01331 c -5.415902,0.01116 -7.069141,0.119854 -10.177574,0.669205 -6.22411,1.099981 -7.084826,1.438601 -13.73004,5.401598 -3.291414,1.962899 -4.538024,3.163878 -6.8936,6.641281 -2.168892,3.201804 -7.708359,14.541902 -5.903768,12.085856 0.192561,-0.262064 1.413352,-2.0153 2.712882,-3.89608 z m 17.81639,-0.07807 c 0.90085,-0.0055 2.416816,-1.433938 3.358888,-3.164834 0.441877,-0.811876 0.750749,-1.528813 0.68637,-1.59319 -0.15713,-0.157133 -5.801524,4.417316 -5.941774,4.815459 -0.07049,0.200028 0.13723,0.246942 0.574784,0.129841 0.376803,-0.100843 0.971584,-0.185118 1.321732,-0.187276 z m 24.940205,-10.355532 c 0.793046,-0.39371 1.629463,-1.066791 1.868036,-1.503246 0.384406,-0.703256 0.384406,-0.877391 0,-1.580646 -0.237606,-0.434678 -1.078227,-1.113639 -1.868036,-1.5088 -1.319114,-0.659979 -1.751921,-0.718476 -5.315808,-0.718476 -3.475005,0 -4.006201,0.06756 -5.091575,0.647567 -1.320406,0.705609 -1.805796,1.369335 -1.805796,2.469287 0,0.892404 1.36771,2.086552 2.815126,2.457888 0.585548,0.150224 1.323295,0.339456 1.639423,0.420513 0.316127,0.08105 1.868036,0.120705 3.448687,0.0881 2.406877,-0.04964 3.10727,-0.175126 4.309943,-0.772193 z m -1.501269,-17.029398 c 7.127089,-5.74522 10.860196,-7.80423 16.302785,-8.99193 l 1.868036,-0.40765 -1.868036,0.13055 c -2.256993,0.15772 -4.523252,0.73583 -7.442794,1.89861 -2.738342,1.09062 -5.066862,2.46559 -9.039942,5.33802 -1.715501,1.24026 -4.086275,2.926021 -5.268387,3.74614 l -2.149296,1.491127 1.244915,0.111159 c 0.684708,0.06114 1.409551,0.133753 1.61077,0.161368 0.201218,0.02761 2.335093,-1.537214 4.741949,-3.477394 z"
         sodipodi:nodetypes="cscsscsssssssssssssssssssssssssscscssccssccsccsssssscsssssssssssscsssscsssssscsssssccssscsssssssssssssssscsssscsss" /><path
         style="fill:#00b2a9;fill-opacity:1;stroke-width:8.60488"
         d="m -70.735167,-45.135552 -1.949512,2.119038 0.50857,16.104687 2.881895,1.610469 7.119962,-2.288561 c 0,0 1.017138,-9.917097 0.932377,-10.425666 -0.08477,-0.508569 -1.271424,-6.187591 -1.271424,-6.187591 z"
         id="path127" /><path
         style="fill:#00b2a9;fill-opacity:1;stroke-width:8.60488"
         d="m -57.851416,-45.305075 -1.779989,1.779992 0.593329,18.054202 2.288561,-0.339046 1.271424,-7.119967 2.458082,2.79713 3.220939,5.424737 1.356184,-1.864754 c 0,0 0.423808,-2.881891 0.254283,-3.220938 -0.169523,-0.339045 -1.356184,-3.814267 -1.356184,-3.814267 l 1.101901,-3.390461 -0.508569,-6.441875 -3.051414,-1.864753 z"
         id="path128" /><path
         style="fill:#00b2a9;fill-opacity:1;stroke-width:8.60488"
         d="m -43.69624,-44.881268 7.37425,0.169523 1.69523,3.814269 -1.017138,4.068552 -4.746646,-2.203799 -2.203798,1.1019 c 0,0 -0.678092,6.780921 0,6.611398 0.678092,-0.169523 4.153314,0.169523 4.153314,0.169523 l 1.440947,-1.864754 c 0,0 2.373321,0.169523 2.373321,0.508569 0,0.339046 -0.508569,7.543775 -0.508569,7.543775 l -9.578052,-0.678092 -1.525706,-3.220938 0.423808,-14.070411 z"
         id="path129" /><path
         style="fill:#00b2a9;fill-opacity:1;stroke-width:8.60488"
         d="m -30.049637,-45.050791 6.696158,0.254285 c 0,0 1.61047,2.627607 1.61047,3.136176 0,0.508569 0.08476,16.528494 0.08476,16.528494 l -9.917095,-0.169522 -1.017141,-3.136176 0.08477,-7.543775 1.101901,-1.864753 -1.271424,-1.186661 0.339047,-4.153314 z"
         id="path130" /><path
         style="fill:#00b2a9;fill-opacity:1;stroke-width:8.60488"
         d="m -15.724941,-44.966029 6.5266348,0.423808 1.4409463,4.322837 -0.5085686,14.748503 c 0,0 -9.1542425,0.762854 -9.3237665,0.254285 -0.169523,-0.50857 -1.69523,-5.339976 -1.69523,-5.339976 l 0.762853,-2.881891 -0.847615,-4.322837 0.508568,-5.509499 z"
         id="path131" /><path
         style="fill:#e43c40;fill-opacity:1;stroke-width:0.541944"
         d="m -58.567725,-23.776076 c -0.464026,-0.117781 -0.859064,-0.571974 -1.136684,-1.306927 -0.245646,-0.650274 -0.276018,-0.990714 -0.27801,-3.116365 -8.92e-4,-0.936923 6.5e-4,-1.750687 0.0095,-5.037638 0.0014,-0.522772 0.0093,-1.335448 0.0176,-1.805944 0.01578,-0.897904 0.02543,-3.235918 0.02001,-4.847538 -0.0017,-0.522773 6.3e-4,-1.335448 0.0053,-1.805945 0.0047,-0.470496 0.01117,-1.325944 0.01438,-1.900995 0.0047,-0.828822 0.07457,-1.173615 0.33732,-1.663372 l 0.331465,-0.617823 4.497806,0.0029 c 4.573894,0.0029 4.780648,0.03024 5.604794,0.740624 0.826498,0.712421 1.705214,2.771238 1.880465,4.405909 0.06031,0.562548 0.06888,2.990734 0.01803,5.11598 -0.02813,1.176286 -0.134742,1.701893 -0.537795,2.651556 l -0.39478,0.930168 0.387044,0.823005 c 0.539537,1.147264 0.638544,2.224778 0.511237,5.563947 -0.06363,1.669235 -0.762753,2.169815 -2.722507,1.949357 -0.820489,-0.0923 -1.031259,-0.181682 -1.294168,-0.548786 -0.468972,-0.654847 -0.607275,-1.070261 -0.707401,-2.124806 -0.04967,-0.525716 -0.133364,-1.002958 -0.18532,-1.060532 -0.05204,-0.05758 -0.333519,-0.530424 -0.625522,-1.050776 -1.139333,-2.030317 -1.113249,-2.000449 -1.74736,-2.000449 -0.371609,0 -0.585056,0.08547 -0.593372,0.237625 -0.0072,0.130694 -0.01761,1.178617 -0.02325,2.32872 -0.0056,1.150101 -0.0163,2.301821 -0.02369,2.559376 -0.02052,0.715819 -0.34575,1.345525 -0.793579,1.536488 -0.403487,0.172063 -1.959361,0.197638 -2.571479,0.04229 z m 1.471311,-4.185669 c -0.0049,-0.392079 -0.0068,-1.097824 -0.0043,-1.56832 0.0026,-0.470496 0.0024,-1.622579 -3.78e-4,-2.560184 -0.0027,-0.937604 0.04663,-1.770356 0.109782,-1.850559 0.132976,-0.168869 2.491196,-0.199755 2.830451,-0.03707 0.125448,0.06016 0.858137,1.213728 1.628194,2.563481 1.326131,2.324438 1.404617,2.499316 1.485521,3.309815 l 0.08523,0.855709 h 0.894185 0.894184 l -0.009,-0.617825 c -0.005,-0.339802 -0.01477,-1.067905 -0.02177,-1.618011 l -0.01273,-1.000185 -0.850723,-1.505603 c -0.467896,-0.828081 -0.864089,-1.629626 -0.880424,-1.781212 -0.01787,-0.165791 0.145492,-0.357029 0.409979,-0.479947 0.543454,-0.252568 1.182747,-1.366342 1.299372,-2.263764 0.04809,-0.37001 0.08619,-1.152452 0.08466,-1.738759 -0.0095,-3.660598 -0.08387,-4.229596 -0.670469,-5.130023 -0.205383,-0.315256 -0.539101,-0.62377 -0.741601,-0.685589 -0.2025,-0.06182 -2.165501,-0.08776 -4.362239,-0.05764 l -3.994064,0.05475 0.0034,0.760399 c 0.0018,0.418219 0.0067,1.530301 0.01096,2.471294 0.0041,0.940992 0.0049,2.053074 0.0016,2.471293 -0.0033,0.418219 -0.0063,1.230894 -0.0066,1.805946 -9.46e-4,1.658816 -0.0072,4.200816 -0.0126,5.132686 -0.0027,0.470497 -0.0038,1.325945 -0.0023,1.900996 0.0014,0.575051 0.0034,1.32357 0.0042,1.663371 l 0.0016,0.617823 h 0.917362 0.917362 z m 0.155311,-9.415833 c -0.100799,-0.173878 -0.138584,-0.704018 -0.131855,-1.85347 l 0.0093,-1.609938 2.995883,-0.05054 2.995883,-0.05054 0.06309,0.62083 c 0.06721,0.662222 0.03544,2.639664 -0.04797,2.981701 -0.07773,0.318722 -5.698535,0.282366 -5.88436,-0.03805 z m 13.560582,13.61082 c -0.858048,-0.240068 -1.900683,-1.403222 -2.333875,-2.603648 -0.457047,-1.266538 -0.716744,-2.324086 -0.712985,-2.90347 0.002,-0.297738 0.0023,-1.268469 8.8e-4,-2.157184 -0.0014,-0.888713 0.001,-2.043569 0.0054,-2.566343 0.0098,-1.157116 0.0099,-2.271273 2.84e-4,-3.876435 -0.01215,-2.023914 0.04008,-3.322735 0.169397,-4.212226 0.142896,-0.982925 0.751771,-2.465642 1.192609,-2.904223 0.852586,-0.848213 1.036979,-0.882684 4.737236,-0.885568 4.070666,-0.0032 4.348517,0.07142 5.253587,1.410402 0.970962,1.436468 1.40534,3.146227 1.411449,5.555617 0.0067,2.664367 -0.198171,2.978078 -2.008528,3.074729 -1.475508,0.07877 -2.00521,-0.171906 -2.423552,-1.146932 l -0.230545,-0.537326 -1.609283,0.05009 -1.609282,0.05009 -0.03127,0.570298 c -0.03361,0.612897 -0.05318,3.217369 -0.03178,4.229713 l 0.01306,0.617825 h 1.487516 1.487516 l 0.262324,-0.68303 c 0.349766,-0.91071 0.862206,-1.213305 2.044483,-1.207268 1.176581,0.006 1.863756,0.454853 2.304355,1.505151 0.325163,0.775119 0.359916,1.457931 0.293333,5.763336 -0.02951,1.908418 -0.222157,2.527193 -0.873219,2.804822 -0.388402,0.165626 -8.227303,0.211583 -8.799152,0.05158 z m 7.722655,-4.290036 c 0.01838,-0.444357 0.02736,-1.513667 0.01995,-2.376243 l -0.01348,-1.56832 h -0.889774 c -0.951596,0 -1.013295,0.0722 -0.906726,1.061094 l 0.04953,0.459702 h -3.095055 -3.095056 l 0.01054,-0.522775 c 0.01075,-0.536001 0.01453,-1.354098 0.01763,-3.849514 9.73e-4,-0.784161 0.0091,-1.896243 0.01807,-2.471294 0.0089,-0.575052 0.01222,-1.601588 0.0072,-2.281195 l -0.009,-1.235647 h 3.028369 3.028369 l 0.05274,0.807924 0.05273,0.807923 h 0.867463 0.867463 l 0.0358,-0.712874 c 0.06044,-1.202955 -0.126605,-2.487116 -0.455718,-3.128804 -0.540416,-1.053671 -0.739706,-1.102319 -4.450808,-1.086447 -3.501983,0.01491 -3.764747,0.06731 -4.222399,0.840986 -0.600929,1.015881 -0.633671,1.484403 -0.637681,9.124776 -3.35e-4,0.627329 -0.0017,1.56832 -0.003,2.091095 -0.0013,0.522772 0.03011,1.478161 0.06991,2.123085 0.07196,1.166139 0.07524,1.176861 0.597433,1.948522 l 0.52508,0.77593 h 4.248549 4.248552 z m 5.466815,4.238396 c -0.641824,-0.224658 -1.187522,-0.683011 -1.624194,-1.364234 -0.935173,-1.458898 -1.331741,-2.966867 -1.343262,-5.10783 -0.0064,-1.188948 -0.0027,-1.680673 0.02746,-3.66618 0.0076,-0.500357 0.125725,-1.304193 0.262491,-1.786303 0.212164,-0.747899 0.223413,-0.931091 0.07663,-1.248044 -0.355921,-0.768604 -0.461144,-3.844928 -0.183058,-5.352124 0.136317,-0.738842 0.854148,-2.272297 1.264287,-2.700815 0.768037,-0.802458 0.915332,-0.828874 4.63828,-0.831832 4.074436,-0.0032 4.317076,0.05856 5.22231,1.330355 0.825766,1.160136 1.148036,2.095828 1.342282,3.897216 0.09035,0.83792 0.14344,1.821686 0.11797,2.186145 -0.02547,0.364457 -0.03996,1.261465 -0.03222,1.993347 0.0077,0.731885 0.0112,1.715648 0.0076,2.186146 -0.0035,0.470496 -0.0056,1.240397 -0.0048,1.710895 0.0046,2.415148 -0.008,5.005475 -0.03236,6.62652 -0.01614,1.078217 -0.244303,1.77787 -0.671703,2.059803 -0.384129,0.253387 -8.366742,0.312315 -9.067763,0.06694 z m 7.805549,-4.333444 c -0.01725,-0.496635 -0.02314,-1.287925 -0.01306,-1.75842 0.03278,-1.531319 0.03915,-2.348237 0.03188,-4.087141 -0.0039,-0.940992 -0.0023,-2.053074 0.0036,-2.471294 0.0059,-0.418218 0.0098,-1.230893 0.0087,-1.805944 -0.0011,-0.575052 1.2e-4,-1.54566 0.0027,-2.156907 0.0026,-0.611249 -0.05329,-1.382064 -0.124264,-1.712923 -0.148928,-0.694299 -0.676728,-1.586238 -1.091742,-1.844942 -0.382881,-0.238673 -6.827339,-0.230369 -7.277111,0.0094 -0.414275,0.220824 -1.091073,1.564077 -1.200074,2.381808 -0.04205,0.315401 -0.06727,0.981927 -0.05607,1.481168 l 0.02038,0.907708 0.891321,-0.05541 c 0.971745,-0.06042 0.91161,0.028 0.975066,-1.433642 0.0079,-0.182772 0.693511,-0.237625 2.969974,-0.237625 1.627813,0 2.989871,0.04465 3.026797,0.09921 0.03692,0.05457 0.06125,0.460905 0.05407,0.902973 -0.0072,0.442069 -0.02,1.186656 -0.02846,1.65464 -0.0085,0.467983 -0.06649,0.915784 -0.12893,0.995112 -0.06245,0.07934 -1.563746,0.145539 -3.336231,0.147137 -2.569441,0.0023 -3.276015,0.05753 -3.485717,0.272392 -0.417471,0.427731 -0.876334,1.658854 -0.926937,2.486961 -0.08997,1.472295 -0.06608,3.553862 0.0535,4.663531 0.111066,1.030643 0.157834,1.17643 0.575428,1.793515 l 0.454533,0.671685 h 4.316009 4.316009 z m -7.914513,-3.231692 c -0.01469,-0.496635 -0.0078,-1.202381 0.01512,-1.568322 0.02302,-0.365942 0.04624,-0.772278 0.05164,-0.902972 0.0075,-0.182395 0.662114,-0.237625 2.816409,-0.237625 1.543632,0 2.891418,0.05332 2.995082,0.118509 0.207212,0.130287 0.283802,1.112421 0.209424,2.68546 l -0.0382,0.807923 h -3.011384 -3.011384 z m 13.790695,7.565063 c -0.97843,-0.293064 -1.724839,-1.148666 -2.412173,-2.765051 -0.66134,-1.555254 -0.832658,-5.267458 -0.300377,-6.508729 0.185989,-0.433722 0.246747,-0.749645 0.17018,-0.884898 -0.212858,-0.37601 -0.460605,-2.086011 -0.457375,-3.156896 0.0066,-2.191503 0.01091,-2.779383 0.0255,-3.516841 0.03954,-1.99294 0.704147,-3.769491 1.75189,-4.682943 l 0.624888,-0.544794 h 3.632317 c 4.1068169,0 4.3463522,0.06081 5.2520322,1.333218 0.8370083,1.175931 1.1555472,2.100043 1.3424268,3.894519 0.1987225,1.907772 0.1110933,3.528583 -0.2276599,4.212888 -0.2129006,0.430068 -0.228947,0.578651 -0.097052,0.898584 0.1973039,0.478602 0.5095331,3.374317 0.4386564,4.068247 -0.028958,0.283446 -0.038506,1.413576 -0.021224,2.511401 0.017271,1.097826 0.00847,2.192546 -0.019584,2.432714 -0.028046,0.240169 -0.030338,0.628351 -0.00511,0.862629 0.073514,0.682243 -0.3598048,1.64639 -0.8287662,1.843996 -0.4771241,0.201048 -8.1982073,0.202751 -8.8685813,0.002 z m 7.7758606,-4.618522 c 0.015174,-6.286907 0.00304,-6.595597 -0.2870761,-7.317387 -0.1302821,-0.32411 -0.3981368,-0.767126 -0.5952256,-0.984478 -0.3431425,-0.378422 -0.4930039,-0.39531 -3.5325639,-0.398099 -1.745815,-0.0015 -3.246571,-0.07489 -3.334999,-0.16286 -0.160974,-0.160143 -0.182995,-0.62856 -0.135196,-2.875819 l 0.01416,-0.66535 h 3.023935 c 3.299598,0 3.084347,-0.07754 3.034597,1.093073 l -0.02221,0.522773 h 0.9220893 0.9220893 l 0.013686,-0.959853 c 0.01915,-1.344254 -0.04637,-1.801275 -0.3775881,-2.63345 -0.5200942,-1.306713 -0.6607256,-1.349424 -4.4391915,-1.348224 -1.841477,5.85e-4 -3.498069,0.08439 -3.697243,0.187059 -0.413137,0.212942 -1.148553,1.75081 -1.182734,2.473274 -0.07399,1.563974 -0.0577,4.035153 0.03218,4.880476 0.127218,1.196712 0.560904,2.038568 1.203709,2.336684 0.23765,0.110222 1.670385,0.19506 3.304044,0.195661 1.586445,5.83e-4 2.966833,0.05287 3.067532,0.116173 0.148682,0.09349 0.192908,0.316764 0.235338,1.188122 0.02874,0.590151 0.03413,1.351022 0.01199,1.690824 l -0.04027,0.617825 h -3.029488 -3.029486 l -0.0088,-0.760398 -0.0088,-0.760398 h -0.877433 c -0.842348,0 -0.879548,0.01951 -0.930363,0.487625 -0.02912,0.268192 0.0028,1.005386 0.07106,1.638208 0.116716,1.083077 0.153296,1.193894 0.623425,1.88862 l 0.499433,0.738035 h 4.273331 4.2733304 z m -61.5502726,4.424695 c -0.128443,-0.08772 -0.410768,-0.268719 -0.627421,-0.402224 -0.400254,-0.24665 -1.082551,-1.156409 -1.466555,-1.955538 -0.403349,-0.839344 -0.782933,-2.585998 -0.767411,-3.531349 0.0076,-0.475367 0.01347,-1.334798 0.01271,-1.909849 -8.15e-4,-0.575051 -0.0022,-1.772679 -0.0043,-2.661393 -0.0011,-0.888716 0.0087,-1.915252 0.02205,-2.281194 0.01347,-0.365943 0.02085,-1.435252 0.01597,-2.376245 -0.0054,-0.940992 0.01466,-2.010301 0.04345,-2.376244 0.127628,-1.623006 0.707974,-3.060811 1.583788,-3.923814 l 0.551594,-0.543524 h 3.947707 3.947678 l 0.554463,0.515508 c 0.619852,0.576306 1.313373,1.645307 1.56002,2.404627 0.451248,1.389213 0.547298,2.306083 0.530502,5.064045 -0.0038,0.627329 -0.0041,1.525548 -7.06e-4,1.996044 0.0065,0.888642 -0.0061,3.458657 -0.02414,4.942588 -0.0058,0.470496 -0.0049,1.244736 0.0017,1.720533 0.03302,2.343613 -0.927474,4.607508 -2.218608,5.229277 -0.440667,0.212206 -1.342205,0.271072 -3.998968,0.261106 -1.886534,-0.0071 -3.535147,-0.08464 -3.663557,-0.17235 z m 6.630393,-3.474198 c 0.55809,-0.306728 1.209834,-1.692206 1.274317,-2.708918 0.04511,-0.711201 0.0735,-3.863986 0.05225,-5.798034 -0.0051,-0.470496 -0.0087,-1.79644 -0.0077,-2.946543 0.0021,-2.687452 -0.0939,-3.588828 -0.457969,-4.298286 -0.562862,-1.097436 -0.649255,-1.11955 -4.373817,-1.11955 -2.420249,0 -3.487657,0.0664 -3.684998,0.229275 -0.820559,0.677187 -1.214763,1.952155 -1.22216,3.952916 -0.0043,1.129658 -0.0098,5.337941 -0.0098,7.033681 5.4e-5,0.575051 -0.0076,1.41034 -0.01629,1.856198 -0.03813,1.890262 0.365104,3.148109 1.19936,3.741172 0.510905,0.363157 6.602843,0.411991 7.246759,0.05807 z m -6.569522,-3.228713 c -0.04008,-0.132324 -0.05985,-0.454465 -0.04356,-0.715851 0.01619,-0.261386 0.01955,-1.330695 0.0076,-2.376243 -0.01227,-1.045547 -0.0043,-2.149009 0.01716,-2.452137 0.02161,-0.303127 0.01597,-0.767549 -0.01249,-1.03205 -0.02846,-0.2645 -0.03432,-0.743618 -0.01293,-1.064706 0.0214,-0.321086 0.04084,-1.075677 0.04345,-1.676866 l 0.0043,-1.093072 h 3.020603 c 2.346894,0 3.025276,0.053 3.041516,0.237623 0.01147,0.130701 0.01504,0.622577 0.0078,1.093073 -0.0072,0.470496 -0.01211,1.325945 -0.01098,1.900996 0.0049,2.485072 -0.0026,5.859401 -0.01492,6.653483 l -0.01021,0.665347 -2.981917,0.05051 c -2.329019,0.03945 -2.997901,-0.0021 -3.054948,-0.190093 z m 5.021234,-2.284171 c -0.02492,-1.892804 -0.02401,-2.535243 0.004,-2.803969 0.01635,-0.156832 0.01953,-0.648714 0.0071,-1.093071 l -0.02269,-0.807924 h -1.55354 -1.553549 l 0.0043,1.283173 c 0.0043,1.324493 0.0033,2.537664 -0.0033,3.61189 l -0.0043,0.617825 h 1.5663 1.566279 z"
         id="path126" /><text
         xml:space="preserve"
         style="font-size:5.01447px;line-height:1;font-family:'Silvano Western Demo';-inkscape-font-specification:'Silvano Western Demo';text-align:center;letter-spacing:0.222079px;word-spacing:0.0904491px;writing-mode:lr-tb;direction:ltr;text-anchor:middle;fill:#00b2a9;fill-opacity:1;stroke-width:0.563026"
         x="-26.874126"
         y="-47.156227"
         id="text132"><tspan
           sodipodi:role="line"
           id="tspan132"
           style="font-style:normal;font-variant:normal;font-weight:normal;font-stretch:normal;font-family:'Lifestyle Rounded M54';-inkscape-font-specification:'Lifestyle Rounded M54';fill:#00b2a9;fill-opacity:1;stroke-width:0.563026"
           x="-26.763086"
           y="-47.156227">VANCOUVER</tspan></text></g></g></svg>
