<?xml version="1.0" encoding="UTF-8" standalone="no"?>
<!-- Created with Inkscape (http://www.inkscape.org/) -->

<svg
   width="105.83334mm"
   height="105.83334mm"
   viewBox="0 0 105.83333 105.83333"
   version="1.1"
   id="svg1"
   xml:space="preserve"
   inkscape:version="1.4.2 (ebf0e940d0, 2025-05-08)"
   sodipodi:docname="washington.svg"
   inkscape:export-filename="../pngs/orlando.png"
   inkscape:export-xdpi="96"
   inkscape:export-ydpi="96"
   xmlns:inkscape="http://www.inkscape.org/namespaces/inkscape"
   xmlns:sodipodi="http://sodipodi.sourceforge.net/DTD/sodipodi-0.dtd"
   xmlns="http://www.w3.org/2000/svg"
   xmlns:svg="http://www.w3.org/2000/svg"><sodipodi:namedview
     id="namedview1"
     pagecolor="#ffffff"
     bordercolor="#000000"
     borderopacity="0.25"
     inkscape:showpageshadow="2"
     inkscape:pageopacity="0.0"
     inkscape:pagecheckerboard="0"
     inkscape:deskcolor="#d1d1d1"
     inkscape:document-units="mm"
     inkscape:zoom="0.9609896"
     inkscape:cx="-9.8856429"
     inkscape:cy="113.42474"
     inkscape:window-width="1920"
     inkscape:window-height="1011"
     inkscape:window-x="0"
     inkscape:window-y="32"
     inkscape:window-maximized="1"
     inkscape:current-layer="g31"
     showgrid="false"
     showguides="false" /><defs
     id="defs1"><clipPath
       clipPathUnits="userSpaceOnUse"
       id="clipPath27"><circle
         style="opacity:1;fill:#ffffff;fill-opacity:1;stroke:none;stroke-width:1.95787;stroke-linecap:butt;stroke-linejoin:miter;stroke-miterlimit:4;stroke-dasharray:none;stroke-dashoffset:0;stroke-opacity:1"
         id="circle27"
         cx="52.916672"
         cy="52.916672"
         r="59.399296" /></clipPath></defs><g
     inkscape:label="Capa 1"
     inkscape:groupmode="layer"
     id="layer1"><g
       id="g31"
       transform="matrix(1.0452478,0,0,1.0452478,0.48345897,-6.8015751)"><g
         id="g2"
         transform="matrix(0.96419438,0,0,0.96419438,109.48107,48.014967)"><circle
           style="fill:#ffffff;stroke-width:2.52185"
           id="path1"
           cx="-61.520424"
           cy="9.4567366"
           r="51.495743" /><g
           id="g1"
           transform="translate(-4.7412935,-2.107245)"><ellipse
             style="opacity:1;fill:#ffffff;fill-opacity:1;stroke:none;stroke-width:1.8206;stroke-linecap:butt;stroke-linejoin:miter;stroke-miterlimit:4;stroke-dasharray:none;stroke-dashoffset:0;stroke-opacity:1"
             id="path28"
             cx="-56.779125"
             cy="10.459277"
             rx="30.88604"
             ry="32.212887" /><path
             style="opacity:1;fill:#e31837;fill-opacity:1;stroke:none;stroke-width:1.7;stroke-linecap:butt;stroke-linejoin:miter;stroke-miterlimit:4;stroke-dasharray:none;stroke-dashoffset:0;stroke-opacity:1"
             d="m -65.503334,13.006023 -1.032465,7.364912 -1.238956,4.129857 7.020758,1.032465 4.542843,2.890901 1.858436,2.546745 1.307788,-2.95973 4.40518,0.206491 2.202593,-0.825971 -0.06883,-2.890901 1.651942,-3.028561 0.275326,-2.615575 1.720773,0.481817 1.307788,-0.412986 -0.275323,-4.611674 -0.963634,-3.303887 -1.720776,-0.206494 -1.789604,1.514282 -1.101294,-0.688311 -0.61948,-2.4090815 1.651942,-0.481817 1.927268,1.4454515 2.409084,0.06883 c 0,0 -1.170125,-2.6844075 -1.514282,-2.8908985 -0.344154,-0.206494 -2.546744,-1.032465 -2.546744,-1.032465 l -0.550648,0.894802 -1.996099,-0.412985 -2.890898,1.101296 -4.749337,2.8220675 1.651942,7.502575 0.825973,1.514282 -0.963634,1.101294 -3.716871,0.344157 -3.097393,-2.615579 -1.927267,-5.919462 0.137663,-1.58311 -1.101297,-0.61948 z"
             id="path27" /><path
             style="fill:#002b5c;fill-opacity:1;stroke-width:0.451703"
             d="m -11.620468,52.916658 v -64.537151 h 64.537156 64.537142 l -0.03,64.507162 -0.03,64.507171 -64.507153,0.03 -64.507168,0.03 z m 68.57519,26.083613 c 0.534784,-1.232481 1.090189,-2.552171 1.234233,-2.932645 l 0.261892,-0.691774 0.549352,0.09421 c 0.302144,0.05182 1.302282,0.09421 2.222534,0.09421 1.399776,0 1.81223,-0.04373 2.524119,-0.267629 1.662871,-0.522986 2.907425,-1.671518 3.345679,-3.08755 0.100219,-0.323814 0.213583,-1.12024 0.25192,-1.769834 0.06298,-1.067114 0.10877,-1.245866 0.474539,-1.852453 0.222658,-0.369254 0.433971,-0.786687 0.469583,-0.927629 0.03561,-0.140942 0.316879,-0.517838 0.625037,-0.837547 0.550897,-0.571545 0.973818,-1.496816 0.973818,-2.130526 0,-0.229708 0.08175,-0.280018 0.561942,-0.345837 1.172336,-0.160686 2.241408,-0.942202 2.696625,-1.97129 0.267282,-0.604241 0.311644,-1.731184 0.104118,-2.645185 -0.06716,-0.295795 -0.179236,-1.199095 -0.249065,-2.007333 -0.10811,-1.25141 -0.280381,-2.038958 -0.661874,-3.0258 -0.06459,-0.167079 0.08206,-0.201029 1.097235,-0.254016 1.359024,-0.07093 2.23372,-0.356114 3.055137,-0.996071 0.495644,-0.386155 0.555712,-0.490736 0.702226,-1.222606 0.08926,-0.445876 0.154049,-1.461963 0.146284,-2.294243 -0.02462,-2.639255 -0.717191,-5.066896 -2.130651,-7.468572 -0.631507,-1.073023 -1.832526,-2.687887 -2.259697,-3.038342 -0.190086,-0.155945 -0.162171,-0.213577 0.360477,-0.744202 0.311584,-0.316342 0.54287,-0.596791 0.51397,-0.62322 -0.458058,-0.418848 -2.814815,-1.796194 -3.502772,-2.047106 -0.501604,-0.182945 -0.912007,-0.353848 -0.912007,-0.379784 0,-0.02594 0.161103,-0.366299 0.358006,-0.756363 l 0.358007,-0.709207 -0.447641,-0.117158 c -0.246203,-0.06444 -0.904779,-0.237751 -1.463503,-0.385142 -0.727402,-0.191888 -1.414029,-0.275192 -2.418086,-0.293374 -1.278427,-0.02315 -1.469628,-0.05693 -2.165654,-0.382644 l -0.763428,-0.357251 -0.05822,-1.716574 C 62.762107,29.531533 62.69939,29.060192 62.49063,28.518308 62.027622,27.31647 61.086466,26.481623 59.669064,26.015452 59.294905,25.892393 56.890748,25.844002 48.606351,25.792778 l -10.584658,-0.06545 -0.649566,-0.444867 c -0.821169,-0.562393 -1.943185,-0.862587 -2.816296,-0.753499 -1.310652,0.163756 -2.899841,1.32176 -3.288342,2.396139 -0.101733,0.281338 -0.242086,0.427366 -0.455881,0.474324 -0.632732,0.138971 -1.478202,0.925695 -1.91494,1.781884 -0.40394,0.79189 -0.416149,0.856289 -0.418295,2.206493 -0.0018,1.21472 0.03279,1.461832 0.274161,1.951894 0.36237,0.735676 1.106356,1.46815 1.735135,1.708283 0.447629,0.17095 0.533967,0.269567 0.770854,0.880488 0.38364,0.989372 1.348446,2.400741 2.128478,3.113646 l 0.673186,0.615256 -0.142702,0.564301 c -0.261622,1.034544 -0.353589,2.503636 -0.227455,3.633382 0.193749,1.735362 0.605982,2.950951 1.8368,5.416345 0.65015,1.302281 1.217091,2.611417 1.329289,3.06951 0.179737,0.733814 0.180288,0.889673 0.0067,1.9168 -0.103887,0.614921 -0.375478,1.733479 -0.603525,2.485686 l -0.414641,1.367649 0.86914,1.077778 c 0.478028,0.592777 1.229061,1.517093 1.668965,2.054035 l 0.799821,0.976259 -0.250984,0.995707 c -0.376309,1.492901 -1.237106,4.377861 -1.845685,6.185816 -0.297094,0.882594 -0.519286,1.625601 -0.493761,1.651125 0.02552,0.02553 1.017727,-0.0082 2.204897,-0.07485 5.526128,-0.310439 9.286667,0.686827 12.640814,3.352247 1.424445,1.131949 2.259097,2.301625 3.407515,4.775253 0.545603,1.1752 1.02462,2.136722 1.064483,2.136722 0.03988,0 0.510027,-1.008391 1.044811,-2.240866 z m -1.505756,-1.742805 c -1.001511,-2.197372 -3.460188,-4.548296 -6.177538,-5.906811 -2.451802,-1.225756 -6.228133,-1.941433 -9.411653,-1.783662 -0.772353,0.03828 -1.404276,0.04557 -1.404276,0.01621 0,-0.02937 0.104275,-0.362842 0.231723,-0.741063 1.161315,-3.446386 2.27567,-8.043223 2.277572,-9.39524 4.51e-4,-0.33643 -0.0098,-0.331342 -0.674054,0.332882 -0.370997,0.370994 -0.722575,0.658521 -0.781292,0.638949 -0.05872,-0.01957 -0.563992,-0.599616 -1.122839,-1.288987 -0.751692,-0.927261 -0.99848,-1.315598 -0.948435,-1.492428 0.688322,-2.432212 0.807409,-3.047413 0.821277,-4.242714 0.01771,-1.526043 -0.18383,-2.149362 -1.519461,-4.699549 -1.433659,-2.737356 -1.826645,-4.216362 -1.717871,-6.465208 0.05621,-1.162054 0.247208,-2.089909 0.641992,-3.118698 0.03541,-0.09225 -0.162704,-0.263384 -0.499728,-0.431701 -1.069055,-0.533912 -2.28086,-2.188033 -2.97964,-4.067225 -0.182551,-0.490932 -0.258474,-0.566183 -0.643139,-0.637478 -1.211571,-0.224553 -1.691045,-0.953135 -1.691045,-2.56962 0,-1.842766 0.568337,-2.647265 2.061599,-2.918249 0.370166,-0.06717 0.448175,-0.13104 0.448175,-0.366917 0,-0.449521 0.221344,-0.924266 0.634774,-1.36148 0.995345,-1.052611 2.607414,-1.140991 3.840531,-0.210556 0.718939,0.542464 0.946092,0.553811 11.08757,0.553811 10.344907,0 11.230268,0.04106 12.193854,0.565509 1.064435,0.579339 1.285787,1.19955 1.388016,3.889109 l 0.07619,2.004602 1.340407,0.582814 1.340406,0.582815 1.28888,-0.01051 c 1.349379,-0.01101 2.543768,0.196207 2.543768,0.441315 0,0.07917 -0.166672,0.406765 -0.370381,0.727981 -0.337617,0.532367 -0.352771,0.596906 -0.17131,0.729594 0.109489,0.08006 0.553714,0.207323 0.987168,0.282806 0.916749,0.159645 1.886555,0.533433 2.698366,1.040022 l 0.574314,0.358384 -0.46933,0.424011 -0.46933,0.424011 0.771619,0.818539 c 1.987791,2.108663 3.308611,4.415467 3.995524,6.978164 0.228318,0.851788 0.273037,1.324705 0.276881,2.928069 0.0027,1.051715 -0.03406,2.049247 -0.08127,2.216738 -0.209653,0.743635 -1.851317,1.170087 -3.673645,0.954296 -0.627295,-0.07428 -1.248098,-0.14589 -1.379562,-0.159132 -0.217128,-0.02187 -0.235284,0.03571 -0.198177,0.628472 0.02452,0.391721 0.205823,1.05108 0.453588,1.649617 0.252525,0.610037 0.455643,1.354154 0.52327,1.916983 0.06079,0.505952 0.179362,1.430832 0.26349,2.055287 0.236923,1.758613 0.205127,2.615908 -0.113591,3.062727 -0.400039,0.560822 -1.011179,0.798523 -2.206025,0.858028 l -1.038418,0.05171 0.06611,0.558226 c 0.142738,1.205201 -0.276404,2.193075 -1.112586,2.622247 -0.159231,0.08173 -0.28651,0.298858 -0.338907,0.578161 -0.10316,0.549891 -0.311752,0.963552 -0.746279,1.479956 -0.313579,0.372665 -0.333732,0.46586 -0.345533,1.597875 -0.02124,2.037461 -0.472079,3.02094 -1.688267,3.682874 -1.307111,0.711419 -2.98831,0.851153 -5.360742,0.445569 -0.77463,-0.13243 -1.443137,-0.199657 -1.48556,-0.149392 -0.04241,0.05027 -0.170432,0.440966 -0.284447,0.868223 -0.166886,0.625369 -1.236627,3.358017 -1.308384,3.342267 -0.01025,-0.0023 -0.19673,-0.394762 -0.414356,-0.872234 z m 0.601076,-3.805177 c -0.01671,-0.803764 -0.246304,-1.990144 -0.569317,-2.941554 -0.23106,-0.680565 -0.540887,-1.280214 -1.382156,-2.675044 -0.383257,-0.635448 -0.844088,-1.455606 -1.024065,-1.822574 L 52.747268,65.345904 H 52.01728 c -1.856164,0 -3.080311,-0.493023 -4.29952,-1.731626 -1.315417,-1.336338 -2.153159,-2.960912 -2.801849,-5.433415 -0.340765,-1.298834 -0.690803,-3.632394 -0.753811,-5.025289 -0.02633,-0.581945 -0.0569,-0.652565 -0.266609,-0.615837 -0.423715,0.07421 -0.923989,0.523304 -1.139709,1.02312 -0.160626,0.37217 -0.229551,0.974678 -0.288367,2.520786 -0.134481,3.535141 -0.35063,5.136873 -1.096694,8.126887 -0.35442,1.420421 -0.900962,3.352774 -1.086725,3.842239 -0.03623,0.09548 0.341881,0.160273 1.240805,0.212606 5.963313,0.347175 10.493351,2.34836 13.51115,5.968676 l 0.68438,0.821015 0.173133,-0.40272 c 0.101525,-0.236154 0.166285,-0.732499 0.156578,-1.200057 z m 8.669819,-3.233824 c 0.06402,-1.22392 -0.06811,-1.652115 -0.765593,-2.481022 -0.318365,-0.378355 -0.32108,-0.393852 -0.09764,-0.557234 0.126407,-0.09243 0.429481,-0.227873 0.673498,-0.300982 l 0.443668,-0.132926 -0.360838,-0.714816 -0.360838,-0.714815 0.36736,0.261583 c 0.202048,0.14387 0.542273,0.513469 0.756056,0.82133 l 0.388696,0.559747 0.03662,-0.572542 c 0.02694,-0.421057 -0.03016,-0.680597 -0.215776,-0.980936 -0.445437,-0.720733 -0.83509,-0.971626 -2.270866,-1.462186 -0.344624,-0.117748 1.041743,-0.640617 1.879759,-0.708952 0.643502,-0.05247 0.940824,-0.01558 1.451407,0.180103 l 0.642123,0.246096 -0.06399,-0.394293 c -0.03519,-0.21686 -0.175016,-0.765457 -0.31072,-1.219104 -0.216053,-0.722241 -0.301606,-0.854536 -0.687968,-1.063838 -0.65735,-0.356102 -0.940215,-0.807333 -0.93032,-1.484066 0.0099,-0.673632 0.344729,-1.218966 0.8863,-1.443293 0.426442,-0.176637 1.503305,-0.104062 1.711813,0.115367 0.112622,0.118522 0.08851,0.133582 -0.115422,0.0721 -0.391757,-0.118102 -1.312828,0.160135 -1.651611,0.498918 -0.415546,0.415546 -0.409696,1.003223 0.0133,1.33595 0.33363,0.262433 0.874115,0.311879 1.597309,0.146128 0.230063,-0.05273 0.587619,-0.05132 0.79457,0.0031 0.424981,0.111806 1.076508,0.78931 1.188625,1.236016 0.09575,0.38151 0.513017,0.395036 0.854112,0.02768 0.242063,-0.260694 0.244533,-0.29992 0.08089,-1.284765 -0.09284,-0.558724 -0.216641,-1.586117 -0.275118,-2.283097 -0.08691,-1.035819 -0.186626,-1.461405 -0.546068,-2.330505 -0.323856,-0.783055 -0.45785,-1.306655 -0.508437,-1.986802 -0.07325,-0.98489 -0.04563,-0.948536 -0.842681,-1.108994 -0.311363,-0.06268 -0.460375,-0.01876 -0.74295,0.219016 -0.591374,0.497609 -1.740299,1.150025 -2.463258,1.398759 -0.837291,0.288071 -0.799577,0.288832 -0.703398,-0.0142 0.05624,-0.177186 -0.02341,-0.377424 -0.274287,-0.689611 -0.521675,-0.649155 -0.82362,-1.304469 -0.989466,-2.147446 -0.106825,-0.542983 -0.192265,-0.733227 -0.309154,-0.688373 -0.09552,0.03666 -0.235173,-0.08042 -0.341739,-0.286501 -0.09911,-0.191668 -0.27043,-0.398977 -0.3807,-0.460687 -0.168748,-0.09444 -0.125607,-0.150401 0.272499,-0.3535 1.439871,-0.734567 3.120202,-0.814837 4.441199,-0.212158 0.537912,0.245413 0.963468,0.569335 1.512299,1.151125 l 0.763746,0.809612 0.257811,-0.274428 c 0.174843,-0.186111 0.26001,-0.433764 0.264644,-0.769546 0.01711,-1.239615 -1.615688,-2.489219 -3.54952,-2.716503 l -0.654854,-0.07696 v 0.494507 c 0,0.271979 -0.04402,0.494506 -0.09782,0.494506 -0.223149,0 -1.428621,-0.401474 -1.850158,-0.616183 l -0.454068,-0.231278 -1.135623,0.322274 c -1.00317,0.284686 -1.185008,0.379412 -1.559028,0.812148 -0.396173,0.458372 -0.419391,0.530224 -0.361031,1.117318 l 0.06237,0.627443 -0.977345,-0.01414 c -0.537545,-0.0078 -1.138693,-0.05175 -1.335889,-0.09772 -0.48731,-0.113606 -1.438953,0.364825 -2.627478,1.320946 l -0.921131,0.741008 0.04138,0.988246 c 0.0337,0.805234 0.09107,1.050716 0.30976,1.325581 0.700844,0.880878 0.752397,1.096676 0.874524,3.660952 0.06321,1.327156 0.147553,2.520572 0.187434,2.652036 0.03989,0.131465 0.3148,0.454956 0.610932,0.71887 0.477671,0.425703 0.54507,0.549023 0.597337,1.092975 0.05626,0.585529 0.03686,0.637081 -0.431458,1.145124 l -0.490373,0.531992 0.745274,0.843524 c 0.409902,0.463938 1.12174,1.165612 1.581867,1.559275 1.189515,1.017699 1.98046,1.869618 2.629948,2.832692 0.64362,0.954374 0.616683,0.93375 1.485299,1.137171 0.357153,0.08364 0.948743,0.274698 1.314644,0.424567 0.373994,0.153185 0.711635,0.227502 0.771162,0.169738 0.05824,-0.05651 0.132213,-0.606027 0.164387,-1.221141 z m -1.465407,-16.60447 c -0.827039,-0.456293 -1.490771,-1.570285 -1.492745,-2.505388 -7.23e-4,-0.344595 -0.06874,-0.609131 -0.180437,-0.701833 -0.295736,-0.245439 -0.202133,-0.37903 0.118414,-0.169 0.183598,0.120298 0.344625,0.384718 0.42017,0.689955 0.269822,1.090212 0.432735,1.4668 0.922134,2.131601 0.280914,0.381595 0.497418,0.692173 0.481121,0.690175 -0.0163,-0.002 -0.137193,-0.06298 -0.268657,-0.13551 z M 53.93194,63.792362 c 1.608161,-0.411298 2.086442,-0.856057 1.370222,-1.274178 -0.777638,-0.453978 -0.913058,-1.129363 -1.09972,-5.484683 -0.03171,-0.739723 -0.08982,-0.92374 -0.475047,-1.504107 -0.574548,-0.865596 -0.743254,-1.56639 -0.653153,-2.713201 0.09403,-1.196792 0.339021,-1.97513 0.803715,-2.553377 0.20749,-0.258197 0.358413,-0.483344 0.33538,-0.500325 -0.05907,-0.04355 -1.546779,-0.330126 -1.831479,-0.352793 -0.32392,-0.02579 -0.840388,0.947077 -1.026548,1.933697 -0.201957,1.070311 -0.07338,2.23707 0.417016,3.784144 0.380167,1.199337 0.426164,1.503442 0.524463,3.467204 0.112836,2.254238 0.191549,2.573154 0.87442,3.542759 0.122881,0.174477 0.223421,0.356175 0.223421,0.403773 0,0.0476 -0.416804,0.06165 -0.926225,0.03123 -1.114306,-0.06654 -1.709799,-0.339741 -2.622908,-1.203321 -1.50936,-1.427489 -2.363142,-4.20452 -2.506856,-8.153852 l -0.06959,-1.912211 -1.786042,-1.771049 -1.786038,-1.771049 -0.104045,-1.33629 c -0.08836,-1.134907 -0.229879,-2.04994 -0.545145,-3.524832 -0.05901,-0.276026 -0.06118,-0.276305 -1.94482,-0.2493 -1.859038,0.02665 -1.894388,0.02234 -2.495162,-0.304646 -0.57583,-0.313406 -1.293338,-0.955004 -1.80921,-1.617798 l -0.231041,-0.296843 -0.157947,0.53587 c -0.09284,0.31498 -0.153457,1.077774 -0.147056,1.850512 0.01445,1.743799 0.334626,2.79572 1.649862,5.420414 0.558097,1.11375 1.156938,2.447235 1.330753,2.963301 0.292044,0.867088 0.311327,1.047149 0.254069,2.372458 -0.04278,0.989952 -0.158168,1.803479 -0.372578,2.626546 -0.170838,0.655815 -0.310613,1.255761 -0.310613,1.333214 0,0.07745 0.181571,0.358151 0.403488,0.62377 l 0.403488,0.482946 0.237663,-0.26249 c 0.720385,-0.795647 1.169793,-2.007277 1.331774,-3.590564 0.133203,-1.302011 0.395303,-1.989388 1.023839,-2.685103 0.583658,-0.646039 1.223974,-0.880558 2.279866,-0.835012 l 0.833342,0.03595 0.140181,1.912209 c 0.161547,2.203674 0.398813,3.688133 0.823992,5.155334 0.819963,2.829519 2.324919,4.887425 3.995619,5.463685 0.784793,0.270691 2.499317,0.25094 3.64465,-0.04199 z m -1.254388,-1.912336 c 0,-0.06913 -0.380812,-0.119513 -0.903401,-0.119513 -0.571838,0 -0.876294,0.04387 -0.829539,0.119513 0.04061,0.06573 0.447154,0.119513 0.903401,0.119513 0.473349,0 0.829539,-0.05132 0.829539,-0.119513 z m -0.478055,-1.067928 c 0,-0.122061 -2.505148,-0.232832 -2.578035,-0.113994 -0.02462,0.04013 -0.01034,0.107357 0.03166,0.149392 0.122226,0.122225 2.546362,0.08853 2.546362,-0.0354 z m -0.119512,-1.20282 c 0,-0.07377 -0.617482,-0.119513 -1.613428,-0.119513 -0.995941,0 -1.613424,0.04574 -1.613424,0.119513 0,0.07377 0.617483,0.119513 1.613424,0.119513 0.995946,0 1.613428,-0.04574 1.613428,-0.119513 z m -0.119511,-1.075617 c 0,-0.07438 -0.679592,-0.119513 -1.799751,-0.119513 -1.1694,0 -1.773878,0.04186 -1.725885,0.119513 0.04372,0.07075 0.778077,0.119513 1.799747,0.119513 1.070915,0 1.725889,-0.04536 1.725889,-0.119513 z m -0.02209,-1.188614 c 0.02828,-0.08488 -0.58557,-0.12603 -1.880159,-0.12603 -1.687436,0 -2.070362,0.05092 -1.872399,0.248985 0.115013,0.115072 3.712505,-0.0028 3.752558,-0.122955 z m -0.09742,-1.082135 c 0,-0.07485 -0.736998,-0.119512 -1.971967,-0.119512 -1.234965,0 -1.971963,0.04467 -1.971963,0.119512 0,0.07485 0.736998,0.119514 1.971963,0.119514 1.234969,0 1.971967,-0.04467 1.971967,-0.119514 z m -0.358539,-1.06283 c 0,-0.190212 -0.284329,-0.225894 -1.950448,-0.244775 -1.622106,-0.01838 -1.942643,0.02418 -1.809111,0.240247 0.08806,0.142487 3.759559,0.14691 3.759559,0.0045 z m -0.358539,-1.207917 c 0,-0.07418 -0.657322,-0.119513 -1.73294,-0.119513 -1.075617,0 -1.73294,0.04533 -1.73294,0.119513 0,0.07418 0.657323,0.119513 1.73294,0.119513 1.075618,0 1.73294,-0.04533 1.73294,-0.119513 z m 14.651703,-1.577613 c 0.253501,-0.487222 0.210612,-1.109171 -0.100991,-1.464478 -0.19235,-0.219328 -0.468831,-0.342827 -0.971165,-0.433802 -0.386244,-0.06995 -0.745427,-0.08287 -0.798186,-0.02871 -0.253469,0.260212 0.324807,1.923928 0.875655,2.519285 l 0.249421,0.269574 0.288676,-0.269574 c 0.158771,-0.148266 0.364237,-0.414801 0.45659,-0.5923 z m -14.771214,0.501995 c 0,-0.07418 -0.657323,-0.119512 -1.73294,-0.119512 -1.075618,0 -1.73294,0.04533 -1.73294,0.119512 0,0.07418 0.657322,0.119513 1.73294,0.119513 1.075617,0 1.73294,-0.04533 1.73294,-0.119513 z m 0,-1.19513 c 0,-0.07418 -0.657323,-0.119513 -1.73294,-0.119513 -1.075618,0 -1.73294,0.04533 -1.73294,0.119513 0,0.07418 0.657322,0.119513 1.73294,0.119513 1.075617,0 1.73294,-0.04533 1.73294,-0.119513 z m 23.561238,-0.08863 c 0.412983,-0.413666 0.187502,-3.477658 -0.383224,-5.207493 -0.272933,-0.827232 -1.19433,-2.742285 -1.5241,-3.167718 l -0.214871,-0.277204 -0.829819,0.415983 c -0.815801,0.408956 -2.055342,0.795741 -2.550131,0.795741 -0.308936,0 -0.309358,0.02713 -0.01257,0.807995 0.131431,0.3458 0.238966,0.681929 0.238966,0.746956 0,0.187392 -2.475768,0.140561 -3.226852,-0.06104 -0.361527,-0.09704 -0.670767,-0.177071 -0.6872,-0.177851 -0.01643,-7.67e-4 -0.02988,0.101863 -0.02988,0.228095 0,0.196012 0.117753,0.240838 0.806713,0.307097 1.142822,0.109908 2.522571,0.465763 3.265426,0.842196 0.928161,0.470335 1.932363,1.479732 2.310598,2.322552 0.255471,0.569264 0.317318,0.891381 0.322468,1.679498 l 0.0064,0.975144 1.179977,-0.04078 c 0.7295,-0.02521 1.236532,-0.09743 1.328119,-0.189173 z M 51.2434,50.6458 c 0,-0.06573 -0.238842,-0.119514 -0.530755,-0.119514 -0.291918,0 -0.563996,0.05378 -0.604622,0.119514 -0.04552,0.07366 0.158109,0.119513 0.530755,0.119513 0.332543,0 0.604622,-0.05378 0.604622,-0.119513 z m -1.622995,-1.284765 c 0.465385,-0.443692 0.858222,-0.860494 0.872965,-0.926226 0.01473,-0.06573 -0.230436,-0.317012 -0.544844,-0.558399 l -0.571652,-0.438885 -0.351502,0.212546 c -0.193329,0.116901 -0.771712,0.469986 -1.285298,0.784634 l -0.933796,0.572088 0.455741,0.472605 c 0.905131,0.938616 1.26887,0.920361 2.358386,-0.118363 z m 2.036186,0.217406 c 0.119746,-0.193751 -0.140462,-0.25263 -0.294772,-0.0667 -0.120081,0.14469 -0.112764,0.177953 0.03916,0.177953 0.102767,0 0.217793,-0.05006 0.25561,-0.111254 z m 4.100097,-1.254187 c 1.331562,-0.354471 2.671538,-1.521476 2.865255,-2.495396 0.248726,-1.250465 -0.294225,-2.886552 -1.156156,-3.483872 -1.159119,-0.80327 -3.330694,-0.549402 -3.996829,0.46725 -0.229957,0.350961 -0.466735,1.347883 -0.360829,1.519241 0.0421,0.06811 0.191002,-0.07823 0.330908,-0.325199 0.389833,-0.688138 0.799984,-0.931351 1.659945,-0.984321 0.63251,-0.03896 0.808715,-0.0031 1.16112,0.236288 0.228499,0.15522 0.54245,0.469171 0.697669,0.697669 0.237148,0.349104 0.275123,0.530782 0.237785,1.137615 -0.05361,0.871276 -0.370518,1.380126 -1.08728,1.74579 -1.032286,0.526633 -2.994844,-0.01115 -3.930777,-1.077117 -1.344643,-1.531464 -1.408387,-4.090344 -0.153701,-6.170199 0.237533,-0.393755 0.629371,-1.092907 0.870748,-1.553669 0.651888,-1.24439 1.854448,-2.408786 3.129374,-3.030057 0.558725,-0.272266 1.359432,-0.573051 1.779353,-0.668411 l 0.76349,-0.173381 -0.0787,0.846781 -0.0787,0.846782 0.629854,-0.07565 c 0.346416,-0.04161 0.786334,-0.07612 0.977585,-0.07669 l 0.347734,-10e-4 -0.08051,-2.952182 c -0.08798,-3.226145 -0.151393,-3.533174 -0.832714,-4.031618 -0.327575,-0.239647 -0.496959,-0.247758 -5.893724,-0.2822 l -5.556455,-0.03546 0.270602,0.366008 c 0.3459,0.467858 1.324903,1.138901 2.011121,1.378491 0.293353,0.102424 0.925277,0.219354 1.404276,0.259844 l 0.870906,0.07362 v 1.117837 1.117838 h 2.000361 2.000366 l -1.723319,0.841613 c -2.021552,0.98726 -2.91446,1.595417 -3.918853,2.66912 -2.188898,2.339939 -2.957172,5.630955 -1.925528,8.248266 1.066164,2.704877 4.251346,4.515726 6.765623,3.846409 z m -8.465484,-1.090258 1.326326,-0.782517 -0.320163,-0.562004 c -0.176087,-0.309103 -0.358945,-0.606956 -0.406356,-0.661897 -0.04741,-0.05494 -0.670485,0.01573 -1.384609,0.157046 -1.920618,0.380066 -1.75127,0.265333 -1.652329,1.119458 0.07473,0.645184 0.138442,0.782725 0.518342,1.119039 0.238228,0.210893 0.46899,0.385681 0.512805,0.388417 0.04382,0.0028 0.676511,-0.347158 1.405984,-0.777542 z m 13.255404,-0.245863 c 0.503335,-0.171216 0.992008,-0.334565 1.085939,-0.362997 0.118212,-0.03578 -0.01491,-0.243468 -0.432451,-0.674681 -0.331779,-0.342642 -0.73773,-0.826796 -0.902109,-1.0759 l -0.298874,-0.452915 -0.05559,0.930967 c -0.03794,0.635517 -0.138497,1.092163 -0.316838,1.438897 -0.152337,0.29617 -0.2058,0.507931 -0.128243,0.507931 0.07316,0 0.54483,-0.140086 1.048167,-0.311302 z m 4.157863,-0.342234 c -0.04225,-0.359444 -0.202573,-1.000009 -0.356284,-1.423476 -0.295327,-0.813617 -1.070137,-2.081462 -1.33388,-2.18267 -0.08611,-0.03305 -0.325197,0.02712 -0.531296,0.133697 l -0.374726,0.193778 0.347963,0.442313 c 0.191379,0.243272 0.52538,0.7582 0.742224,1.144284 0.338947,0.603487 0.359728,0.683491 0.148124,0.570244 -0.135375,-0.07245 -0.67613,-0.536235 -1.201678,-1.030633 -0.881397,-0.829155 -1.33948,-1.071069 -1.508941,-0.796875 -0.08706,0.140869 0.536666,1.09878 1.145602,1.759399 0.689985,0.748544 2.387277,1.828323 2.893613,1.84085 0.05835,0.0014 0.07153,-0.291466 0.02928,-0.650911 z m -8.880759,-1.285097 c 0.203479,-0.273758 0.219763,-0.373404 0.102921,-0.629843 -0.07634,-0.16755 -0.284415,-0.359998 -0.462386,-0.427663 -0.672324,-0.255616 -1.286947,0.681646 -0.799912,1.219812 0.297316,0.328531 0.852296,0.250837 1.159377,-0.162306 z M 68.21425,45.073114 c 0,-0.19859 -0.784377,-1.410007 -1.230866,-1.900989 l -0.502073,-0.552106 -0.641845,0.08627 -0.641844,0.08627 0.641844,0.580997 c 0.602728,0.545589 0.619994,0.576334 0.283306,0.504474 -0.197197,-0.04209 -0.677052,-0.203764 -1.066344,-0.359279 -0.389293,-0.155515 -0.720251,-0.282755 -0.735462,-0.282755 -0.01521,0 0.129165,0.28954 0.320836,0.643422 0.364506,0.672988 0.561529,0.803798 1.540726,1.022934 1.015033,0.227156 2.031722,0.312608 2.031722,0.170766 z m -21.954618,-0.89886 c 0.890911,-0.177438 1.273309,-0.302293 1.234626,-0.40311 -0.03081,-0.08033 -0.09434,-0.401431 -0.141153,-0.713559 l -0.0851,-0.567505 -1.448304,0.08567 c -0.796564,0.04712 -1.462912,0.09959 -1.480772,0.116602 -0.01784,0.01701 0.03343,0.415196 0.113965,0.884851 0.107613,0.627553 0.195424,0.853944 0.331252,0.854012 0.101651,5.1e-5 0.765618,-0.115581 1.475487,-0.256962 z m 23.173744,-0.833236 c 0.768025,-0.162501 2.127239,-0.690381 2.127239,-0.82616 0,-0.117062 -1.211445,-0.85017 -1.765049,-1.068124 -0.350796,-0.138108 -0.445288,-0.124812 -0.926226,0.130325 -0.294567,0.156267 -0.535577,0.319823 -0.535577,0.363458 0,0.04364 0.202778,0.113594 0.450619,0.155467 0.831355,0.140456 0.80207,0.265998 -0.09304,0.398851 -0.47269,0.07016 -0.887268,0.155391 -0.921286,0.189409 -0.125414,0.125414 0.512638,0.777767 0.766972,0.784162 0.144662,0.0037 0.548019,-0.05369 0.896348,-0.127388 z m -8.359662,-0.603143 c 0.312431,-0.06791 0.595123,-0.167261 0.628205,-0.220789 0.03308,-0.05353 -0.403357,-0.343895 -0.969864,-0.64526 -0.867116,-0.461279 -1.088247,-0.532847 -1.398214,-0.452526 l -0.368206,0.09541 0.381594,0.158062 c 0.481222,0.199328 0.493919,0.376499 0.02304,0.321675 -0.197196,-0.02296 -0.358539,-0.02084 -0.358539,0.0047 0,0.02555 0.13313,0.257343 0.295843,0.515096 0.32509,0.514976 0.388627,0.523021 1.766126,0.223623 z m 4.778121,-0.870137 c 0.785328,-0.140026 2.601441,-0.830101 2.601441,-0.988479 0,-0.238148 -1.539767,-1.022425 -2.393584,-1.219168 -0.293967,-0.06774 -1.018822,-0.124475 -1.61079,-0.126081 -1.009159,-0.0028 -1.115206,0.02131 -1.699879,0.385495 -0.342966,0.21363 -0.625034,0.415308 -0.626817,0.448174 -0.0018,0.03287 0.48195,0.04092 1.074963,0.01789 1.122762,-0.04359 3.104872,0.174857 3.104872,0.342192 0,0.196565 -1.783735,0.41675 -3.376115,0.41675 -0.903747,0 -1.643234,0.03595 -1.643304,0.07989 -1.76e-4,0.109669 1.428386,0.576132 2.12209,0.692918 0.853587,0.143702 1.428401,0.132054 2.447123,-0.04959 z M 44.392193,41.36496 47.260248,41.28662 47.46548,40.216016 c 0.112876,-0.588832 0.178237,-1.097596 0.145249,-1.130586 -0.03297,-0.03299 -2.322995,-0.02006 -5.088902,0.02872 l -5.028916,0.08871 0.07868,0.253748 c 0.169497,0.54665 1.00058,1.441762 1.660744,1.788695 0.416321,0.218788 1.018852,0.232761 5.159856,0.119655 z m 11.034816,-1.594846 c 0.973112,-0.953822 1.495886,-1.767069 1.882223,-2.928069 0.372031,-1.118009 0.436832,-1.613427 0.211035,-1.613427 -0.308016,0 -1.761867,0.780032 -2.412667,1.294459 -1.054138,0.833248 -2.012178,2.550367 -2.228385,3.993993 -0.0369,0.246496 -0.04755,0.448174 -0.02367,0.448174 0.0239,0 0.210647,-0.282349 0.41497,-0.627443 0.204323,-0.345094 0.561954,-0.896348 0.79473,-1.225009 0.549511,-0.775851 2.118676,-2.388251 2.171115,-2.23093 0.09393,0.281779 -1.342533,2.613531 -2.232338,3.62367 -0.269441,0.305881 -0.489895,0.589836 -0.489895,0.631012 0,0.213291 1.110521,-0.579997 1.912862,-1.36643 z m 14.840593,0.59197 c -0.459334,-0.409178 -0.548515,-0.445083 -0.809808,-0.32603 -0.161496,0.07358 -0.276222,0.186007 -0.254948,0.249833 0.04328,0.129844 1.427591,0.662478 1.521178,0.585296 0.03287,-0.02711 -0.172524,-0.2562 -0.456422,-0.509099 z m -10.888415,0.182992 c 0.473615,-0.09963 1.198588,-0.342201 1.61105,-0.539051 1.208973,-0.576989 2.511041,-1.642356 2.28433,-1.869066 -0.115969,-0.11597 -1.762698,-0.394638 -2.342977,-0.396492 -1.418211,-0.0045 -3.29963,0.726073 -3.901375,1.515006 -0.172347,0.225955 -0.289343,0.434837 -0.26,0.464184 0.02936,0.02935 0.296335,-0.05412 0.593311,-0.185491 0.779879,-0.344977 3.015135,-0.860213 3.534809,-0.814788 0.439747,0.03844 0.434255,0.04347 -0.584905,0.535767 -0.937432,0.45282 -2.380952,0.949134 -3.45292,1.187191 l -0.418295,0.09289 0.418295,0.07976 c 0.738507,0.140821 1.635205,0.11593 2.518677,-0.06992 z m 9.877145,-1.313955 c 0.419733,-0.230714 0.869966,-0.518993 1.000518,-0.640621 0.234365,-0.218345 0.229623,-0.224473 -0.375007,-0.484578 -0.336806,-0.14489 -1.006393,-0.338824 -1.487972,-0.430966 -1.703002,-0.325838 -4.123551,0.226398 -4.123551,0.940766 0,0.07124 0.418057,0.08089 1.105495,0.02551 1.927189,-0.155252 2.743118,-0.184914 2.873306,-0.104453 0.06956,0.04299 -0.138396,0.194609 -0.462128,0.336928 l -0.588604,0.258761 0.478052,0.253785 c 0.262929,0.139581 0.554257,0.256161 0.647397,0.259067 0.09314,0.0029 0.512762,-0.183484 0.932494,-0.414199 z m -23.065011,-1.451348 2.157021,-0.07813 0.179258,-0.375908 c 0.09859,-0.206749 0.452028,-0.736289 0.785416,-1.176755 l 0.606159,-0.800846 -2.41535,0.01478 c -1.32844,0.0081 -4.055664,0.04847 -6.060497,0.08963 l -3.645147,0.07485 -1.104477,-0.746957 -1.104477,-0.746956 h -1.136389 c -0.625017,0 -1.136394,0.03241 -1.136394,0.07202 0,0.331068 1.04154,2.181354 1.51306,2.687937 0.990927,1.064609 0.961625,1.058814 5.369658,1.061831 2.109326,0.0014 4.805797,-0.03254 5.992159,-0.07551 z m 12.581401,-0.465567 0.776834,-0.300705 -0.654337,0.07135 c -0.635419,0.06928 -0.959092,0.214114 -0.959092,0.429153 0,0.133738 -0.06538,0.149352 0.836595,-0.199794 z m 6.422501,-0.239656 c 0.88263,-0.286491 1.02706,-0.37685 1.393849,-0.87203 0.225055,-0.303832 0.383819,-0.593474 0.352809,-0.643649 -0.09041,-0.146282 -1.828226,-0.0971 -2.626872,0.07434 -0.740184,0.158891 -2.440282,0.985806 -2.520298,1.225854 -0.04725,0.141753 1.092089,0.33844 1.281689,0.221261 0.208652,-0.128954 1.728982,-0.656573 1.891909,-0.656573 0.08867,0 -0.07244,0.193244 -0.358021,0.42943 -0.683223,0.565054 -0.80594,0.694028 -0.578995,0.608522 0.0986,-0.03715 0.622367,-0.211367 1.16393,-0.387151 z m -3.142726,-1.379684 c 0.522415,-0.308233 0.530723,-0.406054 0.04875,-0.574069 -0.552219,-0.192505 -0.579731,-0.176044 -0.579731,0.346847 0,0.262929 0.02382,0.478053 0.05293,0.478053 0.02911,0 0.244232,-0.112874 0.478051,-0.250831 z m -13.283073,-1.618035 2.605327,-0.07417 -0.03582,-0.552275 -0.03582,-0.552275 -4.481742,0.03358 c -2.464956,0.01847 -5.089182,0.0654 -5.83161,0.104299 l -1.349873,0.07072 -1.188787,-0.791499 -1.188787,-0.791499 h -1.481644 -1.481649 l -0.760216,-0.888264 c -0.715971,-0.836569 -0.789386,-0.888735 -1.261479,-0.896348 -0.362776,-0.0058 -0.592065,0.07002 -0.829905,0.274597 -0.283281,0.243671 -0.335574,0.391683 -0.378929,1.072546 -0.105743,1.660682 0.04916,1.752113 2.968492,1.752113 h 2.042908 l 1.038392,0.72543 1.038393,0.72543 4.003686,-0.06911 c 2.202028,-0.03801 5.176085,-0.102485 6.609018,-0.143277 z m -1.494116,-2.392935 c 1.78284,-0.04336 3.213595,-0.124035 3.17946,-0.179269 -0.03415,-0.05523 -0.15923,-0.100426 -0.277983,-0.100426 -0.789527,0 -2.89111,-1.580976 -3.428808,-2.579419 l -0.219943,-0.408407 -4.006388,-0.0031 c -3.489187,-0.0027 -4.135326,-0.03223 -5.00517,-0.228932 -0.675716,-0.152804 -1.100953,-0.321048 -1.314645,-0.520137 -0.17372,-0.161852 -0.433332,-0.354628 -0.576905,-0.428392 -0.845204,-0.434233 -2.069459,0.286889 -2.069459,1.218973 0,0.193415 0.242094,0.580439 0.679984,1.087055 l 0.67998,0.786709 1.441375,0.0067 1.441375,0.0067 1.015861,0.703747 1.015862,0.703747 2.10194,0.0067 c 1.156066,0.0037 3.560625,-0.02881 5.343464,-0.07218 z"
             id="path26"
             clip-path="url(#clipPath27)"
             transform="matrix(0.8195122,0,0,0.8195122,-100.14499,-31.801875)" /><path
             style="font-size:14.7626px;line-height:1;font-family:'Ranked Sports';-inkscape-font-specification:'Ranked Sports';text-align:center;letter-spacing:0px;text-anchor:middle;fill:#ffffff;stroke-width:2.37132"
             d="m -86.239243,43.863906 q -1.049332,-0.82294 -1.41794,-1.91815 -0.343919,-1.10333 -0.01912,-2.32347 0.305008,-1.17153 1.199114,-2.31162 0.618312,-0.78841 1.126757,-1.29657 0.512893,-0.51382 1.201621,-0.88976 1.113549,-0.684 2.277176,-0.61421 0.57653,0.0124 1.131382,0.22771 0.560525,0.21974 1.059667,0.61119 0.674975,0.52934 1.193931,1.3394 0.425308,0.67249 0.485177,1.50725 0.06432,0.82909 -0.367497,1.46147 l -1.076486,1.37264 -2.041944,-1.60138 0.243879,-0.27593 q 0.120104,-0.15315 0.238537,-0.36257 0.124105,-0.20497 0.168025,-0.43619 0.05404,-0.23243 -0.01459,-0.46031 -0.06418,-0.23354 -0.319423,-0.43371 -0.46511,-0.36476 -0.900732,-0.35829 -0.431173,7.9e-4 -0.800615,0.21489 -0.364993,0.20843 -0.652577,0.50505 -0.287585,0.29662 -0.465517,0.5235 l -0.444828,0.56721 q -0.480416,0.61258 -0.6471,1.18723 -0.180922,0.49935 -0.03799,0.95955 0.135256,0.48166 0.572005,0.82417 0.215538,0.16904 0.486904,0.29025 l 0.299279,0.0973 0.41369,-0.5275 -0.731696,-0.57383 1.490176,-1.90014 2.802001,2.19745 -2.886938,3.68117 q -0.51948,-0.0501 -0.9511,-0.0955 -0.425949,-0.0409 -0.99537,-0.2493 -0.417168,-0.18059 -0.824663,-0.40856 -0.401823,-0.22352 -0.793196,-0.53045 z m 6.995733,4.47763 q -1.540097,-0.83442 -1.93926,-2.23124 -0.38939,-1.39973 0.472505,-2.99053 l 2.115249,-3.90411 -0.716176,-0.38803 1.078228,-1.99008 3.777356,2.04657 -1.078228,1.99009 -0.747866,-0.4052 -2.115249,3.90412 q -0.236935,0.43731 -0.244098,0.75316 -0.01191,0.26409 0.122752,0.48462 0.178499,0.26068 0.501729,0.4358 0.316893,0.1717 0.632746,0.17886 0.258282,-0.008 0.473005,-0.16184 0.129681,-0.1183 0.253554,-0.25614 0.123873,-0.13785 0.244058,-0.35967 l 2.115249,-3.90411 -0.747866,-0.4052 1.078228,-1.99008 3.777357,2.04657 -1.078228,1.99009 -0.716177,-0.38803 -2.115249,3.90411 q -0.594055,1.09645 -1.440524,1.62983 -0.843036,0.52704 -1.807234,0.52113 -0.95786,-0.002 -1.895861,-0.51069 z m 11.528507,4.14262 -3.472766,-1.13844 0.655674,-2.0001 0.404128,0.13249 0.05512,-0.37639 -1.911048,-0.62649 -0.178411,0.33598 0.410978,0.13472 -0.655673,2.0001 -3.472766,-1.13845 0.655674,-2.00009 0.609617,0.19984 3.575573,-5.2378 -0.650716,-0.21332 0.657919,-2.00695 4.876941,1.59877 -0.657919,2.00694 -0.637016,-0.20882 -0.2261,6.33583 0.616468,0.20209 z m -2.219028,-5.26372 0.110175,-2.14099 -1.158169,1.79744 z m 10.569931,6.38519 -2.878099,-0.39403 -0.507824,-3.51813 -0.691766,-0.10198 -0.178924,1.30693 0.80701,0.11048 -0.285498,2.08538 -4.19931,-0.57491 0.285498,-2.08537 0.814152,0.11146 0.826183,-6.03472 -0.814152,-0.11146 0.286475,-2.09252 4.19931,0.57491 q 1.049828,0.14373 1.74916,0.66872 0.707452,0.51884 1.011866,1.32445 0.305392,0.79846 0.168509,1.7983 -0.111461,0.81415 -0.512416,1.45771 -0.393813,0.64454 -0.989761,1.06496 l 0.359507,2.21005 0.835577,0.1144 z m -2.898248,-6.46458 q 0.414218,0.0567 0.642539,-0.12303 0.202986,-0.1541 0.257739,-0.55403 0.05866,-0.4285 -0.108061,-0.6987 -0.159582,-0.26921 -0.580942,-0.3269 l -0.80701,-0.11048 -0.2327,1.69972 z m 7.28736,6.2873 -4.056054,0.13421 -0.07008,-2.11808 0.806888,-0.0267 -0.20048,-6.05886 -0.806888,0.0267 -0.07009,-2.11809 4.092075,-0.1354 q 0.23054,-0.008 0.64238,0.0148 0.41184,0.0224 0.907696,0.18633 0.495618,0.1567 0.984455,0.54441 0.488599,0.38051 0.872416,1.08182 0.391023,0.70107 0.58623,1.8053 0.09183,0.59558 0.115429,1.30881 0,0 0.0025,0.51198 0.0095,0.50455 -0.03094,0.8088 -0.105708,1.16467 -0.448576,1.91888 -0.342869,0.7542 -0.818939,1.18826 -0.469104,0.42662 -0.96745,0.62342 -0.498345,0.1968 -0.922211,0.24688 -0.41666,0.0499 -0.618382,0.0565 z m -0.185117,-2.10706 q 0.569145,-0.0188 0.885236,-0.27451 0.323057,-0.26312 0.467726,-0.68621 0.144432,-0.43031 0.170256,-0.95765 0.02559,-0.53456 0.007,-1.0965 -0.03242,-0.97979 -0.254405,-1.58549 -0.215019,-0.61313 -0.506954,-0.93524 -0.284732,-0.32234 -0.56255,-0.43575 -0.270614,-0.11366 -0.407496,-0.10913 l -0.525919,0.0174 0.201196,6.08048 z m 8.177284,1.15232 -4.182031,0.68944 -0.342378,-2.07679 0.810802,-0.13367 -0.990786,-6.00989 -0.810802,0.13367 -0.342378,-2.07679 4.182031,-0.68945 0.342378,2.0768 -0.810802,0.13366 0.990786,6.0099 0.810802,-0.13367 z m 8.588308,-2.5499 -3.48562,1.09846 -0.632644,-2.0075 0.405624,-0.12783 -0.174538,-0.338 -1.918122,0.60448 0.05079,0.377 0.412499,-0.12999 0.632645,2.00749 -3.48562,1.09847 -0.632644,-2.0075 0.611874,-0.19283 -0.146397,-6.34018 -0.653124,0.20583 -0.634811,-2.01438 4.894992,-1.54261 0.634812,2.01437 -0.639375,0.2015 3.508267,5.28072 0.618749,-0.195 z m -4.870616,-2.98462 -1.158061,-1.80413 0.106187,2.13562 z m 12.446468,-1.09849 -2.09332,1.11453 -4.708173,-3.15253 1.361823,2.5578 0.9035,-0.48105 0.985798,1.85154 -3.677626,1.95805 -0.985797,-1.85154 0.706256,-0.37603 -2.852377,-5.35737 -0.706257,0.37603 -0.989185,-1.8579 2.85684,-1.52104 4.694537,3.24961 -1.3957,-2.62142 -0.9035,0.48104 -0.989186,-1.8579 3.677626,-1.95804 0.989185,1.8579 -0.712619,0.37941 z m 3.523583,-2.50986 q -1.226593,0.95901 -2.439885,0.92858 -1.207612,-0.0349 -2.124492,-1.10226 l -0.327301,0.0729 -0.75653,-0.90911 1.866112,-1.56881 0.70893,0.83652 q 0.143314,0.1716 0.356011,0.2798 0.208257,0.10252 0.490129,0.0651 0.281872,-0.0374 0.639628,-0.31709 0.357756,-0.27971 0.468436,-0.51265 0.10624,-0.23861 0.06215,-0.42374 -0.04409,-0.18512 -0.132888,-0.2987 l -0.02664,-0.0341 q -0.0888,-0.11357 -0.23562,-0.17263 -0.145584,-0.0692 -0.424978,-0.052 -0.273716,0.0127 -0.725432,0.13713 -1.7667,0.631 -2.882939,0.47893 -1.11056,-0.15651 -1.949692,-1.22978 -0.603821,-0.7723 -0.660933,-1.60604 -0.05587,-0.84386 0.346787,-1.61618 0.398221,-0.77799 1.159163,-1.37293 1.033518,-0.80806 2.29317,-0.69492 1.255212,0.10746 2.15237,1.12621 l 0.334943,-0.0514 0.605574,0.71603 q -0.9503,0.71554 -1.908241,1.40961 l -0.277749,-0.33185 q -0.311305,-0.35135 -0.762199,-0.40142 -0.455333,-0.0558 -0.813089,0.22397 -0.482687,0.37738 -0.489288,0.76684 -0.01879,0.0696 0.09221,0.21156 0.07992,0.10222 0.197623,0.14744 0.07847,0.0301 0.410935,-0.001 0.333704,-0.0413 0.964868,-0.20538 1.53542,-0.58742 2.675821,-0.38104 1.141639,0.19625 1.998531,1.29224 0.581621,0.7439 0.669604,1.53521 0.08354,0.78563 -0.274926,1.53254 -0.358471,0.74692 -1.108571,1.37913 z"
             id="text28"
             aria-label="GUARDIANS" /><path
             d="m -78.878045,-15.215583 -1.36131,0.99354 -2.56089,-2.905971 0.92996,4.096283 -1.39225,1.016119 -4.16702,-5.234938 -0.59668,0.435481 -0.78453,-1.560164 2.61655,-1.90966 0.78453,1.560164 -0.49061,0.358061 1.52798,2.029343 -1.07494,-4.492725 1.11822,-0.816121 2.90004,3.328109 -0.82492,-2.709873 -0.50387,0.367739 -0.78452,-1.560164 2.57235,-1.877403 0.78453,1.560164 -0.56575,0.4129 z m 6.76705,-3.475716 -2.41666,1.219163 -0.58283,-1.676819 0.28123,-0.141875 -0.14669,-0.276969 -1.32988,0.670901 0.0609,0.320252 0.28599,-0.144279 0.58283,1.676818 -2.41666,1.219163 -0.58283,-1.676818 0.42423,-0.214015 -0.5188,-5.441578 -0.45283,0.228442 -0.58482,-1.68256 3.39381,-1.712118 0.58483,1.68256 -0.4433,0.223634 2.84966,4.2657 0.429,-0.216421 z m -3.67222,-2.183608 -0.94465,-1.460543 0.21536,1.828455 z m 6.124241,1.58332 q -1.072781,0.37142 -1.871161,-0.04528 -0.79342,-0.418414 -1.11644,-1.569719 l -0.23715,-0.04745 -0.25891,-0.972696 1.66159,-0.653006 0.24675,0.899175 q 0.0492,0.183769 0.16156,0.3392 0.11093,0.149447 0.30834,0.210653 0.19741,0.0612 0.510311,-0.04713 0.31289,-0.108331 0.44899,-0.259093 0.13466,-0.156744 0.15504,-0.319262 0.0204,-0.162519 -0.008,-0.282189 l -0.009,-0.0359 q -0.0285,-0.119668 -0.1103,-0.214441 -0.0782,-0.102476 -0.26854,-0.179087 -0.18537,-0.07833 -0.519051,-0.124747 -1.34379,-0.06592 -2.04501,-0.548643 -0.69625,-0.484441 -0.96601,-1.615322 -0.19411,-0.813756 -0.008,-1.499941 0.18935,-0.693888 0.66431,-1.182212 0.47353,-0.494307 1.13906,-0.724726 0.90392,-0.312955 1.710921,0.184964 0.80557,0.491935 1.12854,1.597917 l 0.23646,0.06712 0.21038,0.769257 q -0.82377,0.265773 -1.64686,0.511876 l -0.0956,-0.355571 q -0.11264,-0.382049 -0.398941,-0.567943 -0.28772,-0.191879 -0.60062,-0.08355 -0.42216,0.146161 -0.53108,0.455932 -0.0312,0.04966 0.005,0.199244 0.0257,0.107705 0.0918,0.18198 0.0441,0.04951 0.27346,0.132043 0.23292,0.07483 0.69653,0.147507 1.178351,0.02604 1.881051,0.560064 0.70624,0.526326 0.98171,1.681141 0.18698,0.783838 0.0331,1.44602 -0.15532,0.656198 -0.59409,1.138468 -0.43877,0.482271 -1.10709,0.746045 z m 8.83554,-2.177027 -3.01342,0.558735 -0.23111,-1.809049 0.58736,-0.108909 -0.18236,-1.427549 -1.55779,0.288838 0.18237,1.427549 0.58736,-0.108909 0.2311,1.809048 -3.01852,0.559683 -0.23111,-1.809049 0.58226,-0.107957 -0.6658,-5.211783 -0.58225,0.107957 -0.23111,-1.809049 3.01853,-0.559682 0.2311,1.809049 -0.58736,0.108909 0.20045,1.569074 1.55778,-0.288838 -0.20044,-1.569074 -0.58737,0.108909 -0.2311,-1.809049 3.01342,-0.558735 0.2311,1.809048 -0.58225,0.107958 0.6658,5.211783 0.58225,-0.107958 z m 3.42551,-0.104054 -3.03544,0.166026 -0.0684,-1.816027 0.5885,-0.03219 -0.19804,-5.255282 -0.58851,0.03219 -0.0684,-1.816026 3.03544,-0.166026 0.0684,1.816027 -0.5885,0.03219 0.19804,5.255282 0.5885,-0.03219 z m 6.246,0.280171 -1.69752,-0.113825 -1.71522,-4.43608 -0.11544,2.498855 0.73267,0.04913 -0.0836,1.808872 -2.98227,-0.199969 0.0836,-1.808873 0.57272,0.03841 0.2418,-5.233918 -0.57272,-0.03841 0.0839,-1.815088 2.31668,0.15534 1.67078,4.501689 0.11831,-2.561015 -0.73267,-0.04913 0.0839,-1.815087 2.982269,0.199969 -0.0839,1.815088 -0.577869,-0.03875 z m 3.341379,0.988605 q -0.94024,-0.208307 -1.53904,-0.898013 -0.58582,-0.705823 -0.78604,-1.769321 -0.19658,-1.018383 -0.009,-2.249106 0.12992,-0.851099 0.28343,-1.443764 0.15446,-0.598788 0.46646,-1.162672 0.47908,-0.969974 1.24102,-1.383534 0.37014,-0.221841 0.79408,-0.279841 0.42902,-0.05688 0.87628,0.04221 0.6048,0.133993 1.20406,0.545279 0.49399,0.343654 0.81004,0.958059 0.31699,0.608282 0.25349,1.265202 l -0.22618,1.481767 -1.82966,-0.405354 0.0629,-0.308895 q 0.0252,-0.165321 0.0307,-0.373011 0.0105,-0.206563 -0.0386,-0.40102 -0.0431,-0.199454 -0.16259,-0.346192 -0.11853,-0.152861 -0.34724,-0.203531 -0.41675,-0.09233 -0.69114,0.08742 -0.27346,0.173629 -0.43667,0.485623 -0.16229,0.30587 -0.24605,0.648125 -0.0838,0.342256 -0.12116,0.587176 l -0.0935,0.6123 q -0.10094,0.661285 -0.0153,1.167662 0.0515,0.454507 0.29549,0.749111 0.24629,0.314099 0.63764,0.4008 0.19313,0.04279 0.40577,0.0266 l 0.2224,-0.04568 0.0869,-0.569439 -0.65563,-0.145252 0.3131,-2.051206 2.51071,0.556235 -0.60657,3.973831 q -0.34648,0.170112 -0.63559,0.308622 -0.28403,0.139638 -0.71492,0.208758 -0.32498,0.02929 -0.6596,0.01844 -0.32954,-0.0098 -0.68023,-0.0874 z m 7.00782,2.059781 -2.92441,-1.103106 0.45241,-1.74079 0.56713,0.213924 1.29857,-4.996604 -0.3748,-0.141376 -0.55016,1.116787 -1.25262,-0.472496 0.77976,-3.000337 5.52827,2.085298 -0.77976,3.000339 -1.26248,-0.476214 0.0817,-1.293507 -0.37973,-0.143236 -1.29857,4.996603 0.56713,0.213924 z m 3.98954,2.163758 q -0.52255,-0.285004 -0.91713,-0.835075 -0.38775,-0.553175 -0.56749,-1.327768 -0.17504,-0.772028 -0.074,-1.735198 0.0985,-0.896184 0.41003,-1.785544 0.31116,-0.828047 0.79784,-1.51936 0.48881,-0.696984 1.1298,-1.119624 0.60252,-0.395776 1.22177,-0.413397 0.62397,-0.01505 1.17006,0.282789 0.54609,0.297841 0.95097,0.880869 0.41173,0.579923 0.57869,1.388547 0.16572,0.842116 0.0556,1.738837 -0.10793,0.891049 -0.41909,1.719095 -0.33035,0.87909 -0.83026,1.590523 -0.5461,0.713577 -1.15724,1.056814 -0.60644,0.345806 -1.21672,0.35465 -0.61029,0.0088 -1.13284,-0.276158 z m 0.7835,-2.039727 q 0.14594,0.0796 0.30591,0.09167 0.16467,0.01464 0.31983,-0.05108 0.41034,-0.186238 0.69675,-0.631414 0.29325,-0.448281 0.49145,-0.975736 0.17476,-0.465066 0.29596,-1.014019 0.1259,-0.546386 0.0389,-1.024371 -0.087,-0.477985 -0.50776,-0.762144 -0.45317,-0.212996 -0.78863,4.12e-4 -0.33075,0.215976 -0.57568,0.656439 -0.24023,0.443032 -0.41969,0.905532 -0.1428,0.379993 -0.25521,0.769721 -0.11242,0.389728 -0.13975,0.764358 -0.0273,0.37463 0.0715,0.715539 0.16044,0.388198 0.46644,0.555093 z m 6.88696,7.017128 -1.44148,-1.086036 0.27333,-4.882661 -1.10149,2.121946 0.62216,0.468745 -0.79734,1.536036 -2.53245,-1.907992 0.79734,-1.536034 0.48634,0.366412 2.30709,-4.444473 -0.48633,-0.366414 0.80008,-1.541314 1.967251,1.482159 -0.338521,4.914316 1.128885,-2.174731 -0.622159,-0.468745 0.800085,-1.541314 2.53245,1.907991 -0.800085,1.541314 -0.490717,-0.369714 z"
             id="text29"
             style="font-size:10.5833px;line-height:1;font-family:'Ranked Sports';-inkscape-font-specification:'Ranked Sports';text-align:center;letter-spacing:0px;text-anchor:middle;fill:#ffffff;stroke-width:1.86594"
             aria-label="WASHINGTON" /><g
             id="g30"
             transform="translate(-110.93754,-43.091205)"><path
               sodipodi:type="star"
               style="opacity:1;fill:#ffffff;fill-opacity:1;stroke:none;stroke-width:1.7;stroke-linecap:butt;stroke-linejoin:miter;stroke-miterlimit:4;stroke-dasharray:none;stroke-dashoffset:0;stroke-opacity:1"
               id="path30"
               inkscape:flatsided="false"
               sodipodi:sides="5"
               sodipodi:cx="-38.545338"
               sodipodi:cy="-3.3038859"
               sodipodi:r1="12.170434"
               sodipodi:r2="4.532023"
               sodipodi:arg1="0.91372139"
               sodipodi:arg2="1.5420399"
               inkscape:rounded="0"
               inkscape:randomized="0"
               d="m -31.111595,6.3324477 -7.303436,-5.1061844 -6.997852,5.5175515 2.599384,-8.5238785 -7.409958,-4.9503354 8.909944,-0.1618621 2.418246,-8.5770268 2.907264,8.4238419 8.904516,-0.3505588 -7.113156,5.3680829 z"
               inkscape:transform-center-x="0.071425261"
               inkscape:transform-center-y="-0.69939704"
               transform="matrix(0.66052439,0,0,0.66052439,44.182154,55.798366)" /><path
               sodipodi:type="star"
               style="fill:#ffffff;fill-opacity:1;stroke:none;stroke-width:1.7;stroke-linecap:butt;stroke-linejoin:miter;stroke-miterlimit:4;stroke-dasharray:none;stroke-dashoffset:0;stroke-opacity:1"
               id="path30-3"
               inkscape:flatsided="false"
               sodipodi:sides="5"
               sodipodi:cx="-38.545338"
               sodipodi:cy="-3.3038859"
               sodipodi:r1="12.170434"
               sodipodi:r2="4.532023"
               sodipodi:arg1="0.91372139"
               sodipodi:arg2="1.5420399"
               inkscape:rounded="0"
               inkscape:randomized="0"
               d="m -31.111595,6.3324477 -7.303436,-5.1061844 -6.997852,5.5175515 2.599384,-8.5238785 -7.409958,-4.9503354 8.909944,-0.1618621 2.418246,-8.5770268 2.907264,8.4238419 8.904516,-0.3505588 -7.113156,5.3680829 z"
               inkscape:transform-center-x="0.071425261"
               inkscape:transform-center-y="-0.69939704"
               transform="matrix(0.66052439,0,0,0.66052439,115.19779,55.798366)" /></g></g></g></g></g></svg>
