<?xml version="1.0" encoding="UTF-8" standalone="no"?>
<!-- Created with Inkscape (http://www.inkscape.org/) -->

<svg
   width="105.83334mm"
   height="105.83334mm"
   viewBox="0 0 105.83333 105.83333"
   version="1.1"
   id="svg1"
   xml:space="preserve"
   inkscape:version="1.4 (e7c3feb100, 2024-10-09)"
   sodipodi:docname="WEST.svg"
   inkscape:export-filename="../pngs/USA.png"
   inkscape:export-xdpi="96"
   inkscape:export-ydpi="96"
   xmlns:inkscape="http://www.inkscape.org/namespaces/inkscape"
   xmlns:sodipodi="http://sodipodi.sourceforge.net/DTD/sodipodi-0.dtd"
   xmlns="http://www.w3.org/2000/svg"
   xmlns:svg="http://www.w3.org/2000/svg"><sodipodi:namedview
     id="namedview1"
     pagecolor="#ffffff"
     bordercolor="#000000"
     borderopacity="0.25"
     inkscape:showpageshadow="2"
     inkscape:pageopacity="0.0"
     inkscape:pagecheckerboard="0"
     inkscape:deskcolor="#d1d1d1"
     inkscape:document-units="mm"
     inkscape:zoom="0.99727873"
     inkscape:cx="398.08329"
     inkscape:cy="14.038202"
     inkscape:window-width="1920"
     inkscape:window-height="1011"
     inkscape:window-x="0"
     inkscape:window-y="32"
     inkscape:window-maximized="1"
     inkscape:current-layer="layer1"
     showgrid="false"
     showguides="true" /><defs
     id="defs1" /><g
     inkscape:label="Capa 1"
     inkscape:groupmode="layer"
     id="layer1"><circle
       style="fill:#0000ff;fill-opacity:1;stroke-width:3.97964"
       id="path81"
       cx="64.809425"
       cy="37.417736"
       r="49.549652"
       transform="rotate(15)" /><path
       id="path56"
       style="fill:#000080;fill-opacity:1;stroke-width:8.07832"
       d="M 34.823627,97.226382 C 29.499272,94.943312 26.236973,92.90844 21.324703,88.806394 17.505751,85.617266 16.905178,84.819889 17.276884,83.432664 18.632615,78.373008 33.994158,59.015527 46.433879,46.691168 54.532685,38.66745 63.242196,34.33589 69.123113,35.406977 c 2.164303,0.394154 2.265088,0.550061 2.064703,3.190323 -0.115557,1.526844 -0.791698,6.762578 -1.501673,11.635191 C 66.209901,74.088786 57.586482,93.494446 48.0015,99.028022 45.642543,100.39 40.59089,99.699282 34.823627,97.226382 Z m 20.520403,0.889067 c 3.041225,-3.127152 6.871604,-9.506314 9.906986,-16.499121 4.210071,-9.698872 9.103551,-31.424886 9.875832,-43.844938 0.114487,-1.844239 0.124095,-1.845839 2.71634,-0.486979 10.799512,5.661026 17.236929,25.025926 13.292726,39.986838 -1.566857,5.941283 -4.089585,9.524496 -9.534987,13.539853 -7.746852,5.712555 -18.741005,9.727448 -27.104937,9.898398 l -1.70853,0.0348 z M 10.844909,75.885611 C 9.2060474,72.917171 7.2331671,68.247867 6.460687,65.509484 4.5951172,58.895953 4.107779,49.815896 5.4388766,46.471221 9.4807465,36.315224 22.314675,27.784435 38.775184,24.312369 50.095953,21.924454 59.466377,21.668625 67.333157,23.532699 l 4.197273,0.99463 -0.02662,3.325592 -0.02662,3.325598 -4.611269,0.274469 c -4.832363,0.287627 -10.239927,2.245067 -15.013153,5.434477 -4.73021,3.160668 -8.463424,6.876591 -20.556632,20.461525 -8.42076,9.459467 -10.917359,12.7123 -14.612605,19.039044 l -2.858948,4.894889 z m 85.332683,-7.57932 C 96.162799,65.770923 95.506265,60.530189 94.7185,56.660232 92.379278,45.169465 86.58932,36.723358 78.846717,33.507327 75.327183,32.045413 75.098995,31.612674 75.327065,26.832434 l 0.1059,-2.224213 3.4187,1.285196 c 10.416933,3.916045 19.598072,11.837096 20.966204,18.088641 1.567271,7.161662 0.573961,18.902752 -2.151498,25.431268 l -1.462084,3.502687 z M 8.7212241,33.472482 C 10.941717,25.348191 23.537111,12.639021 32.366774,9.6144218 38.700922,7.444664 41.803003,7.7106625 56.692954,11.700413 l 13.317557,3.568428 0.326002,1.94909 c 0.179351,1.072009 0.176543,2.035403 -0.0062,2.140886 -0.182738,0.105487 -3.092003,-0.08141 -6.465077,-0.415363 C 43.553976,16.932619 23.182454,22.287957 10.816366,32.889128 8.565637,34.818637 8.3358908,34.882604 8.7212241,33.472482 Z M 93.05043,29.23002 C 90.150871,26.829235 82.073317,22.749617 78.124178,21.691448 75.457102,20.976807 75.086299,20.644951 74.631173,18.565423 74.351138,17.285849 74.25469,16.162329 74.41683,16.068719 c 0.162278,-0.0936 3.051881,0.509057 6.421694,1.339321 5.590687,1.377419 6.303877,1.715901 8.149917,3.863907 2.020894,2.35188 7.305917,10.24261 6.70027,10.003709 -0.176152,-0.06978 -1.363373,-0.990048 -2.638277,-2.045651 z M 52.182467,4.6946753 c 2.445603,-0.1421436 6.393694,0.2560217 9.111008,0.9187916 4.167647,1.0165029 4.938345,1.4163901 5.888432,3.0556947 L 68.275072,10.555282 58.070993,7.7500144 47.866897,4.9447426 Z m 20.257788,5.5228687 c -0.463823,-1.518473 -0.385924,-1.5373619 1.900341,-0.4605856 1.31119,0.6175366 3.173262,1.7447026 4.137985,2.5048126 1.720681,1.3558 1.684716,1.36453 -1.900379,0.460578 -3.002403,-0.756828 -3.740585,-1.203923 -4.137948,-2.504801 z" /><path
       sodipodi:type="star"
       style="fill:#000080;fill-opacity:1;stroke:#ffffff;stroke-width:2.486;stroke-dasharray:none"
       id="path1"
       inkscape:flatsided="false"
       sodipodi:sides="5"
       sodipodi:cx="-7.8791656"
       sodipodi:cy="3.1891861"
       sodipodi:r1="19.960588"
       sodipodi:r2="8.6442461"
       sodipodi:arg1="0.92541552"
       sodipodi:arg2="1.5046306"
       inkscape:rounded="0"
       inkscape:randomized="0"
       d="m 4.1271822,19.135117 -11.4348123,-7.3206 -12.0268509,7.720948 3.428752,-13.1373423 -11.059559,-9.0523113 13.553898,-0.7987246 5.1916678,-13.3155838 4.948017,12.6437034 14.2681862,0.8228279 -10.49585503,8.6129631 z"
       inkscape:transform-center-x="0.22562553"
       inkscape:transform-center-y="-2.8662782"
       transform="matrix(2.1439547,0,0,2.1439547,70.036293,46.146228)" /><text
       xml:space="preserve"
       style="font-size:38.7912px;line-height:1;font-family:'Ranked Sports';-inkscape-font-specification:'Ranked Sports';text-align:center;letter-spacing:15.662px;writing-mode:lr-tb;direction:ltr;text-anchor:middle;fill:#ffffff;fill-opacity:1;stroke:none;stroke-width:9.11199;stroke-dasharray:none"
       x="53.840958"
       y="69.907066"
       id="text1"><tspan
         sodipodi:role="line"
         id="tspan1"
         style="fill:#ffffff;stroke:none;stroke-width:9.11199"
         x="61.671955"
         y="69.907066">W</tspan></text></g></svg>
