<?xml version="1.0" encoding="UTF-8" standalone="no"?>
<!-- Created with Inkscape (http://www.inkscape.org/) -->

<svg
   width="105.83334mm"
   height="105.83334mm"
   viewBox="0 0 105.83333 105.83333"
   version="1.1"
   id="svg1"
   xml:space="preserve"
   inkscape:version="1.4.2 (ebf0e940d0, 2025-05-08)"
   sodipodi:docname="apolo.svg"
   inkscape:export-filename="../pngs/austin.png"
   inkscape:export-xdpi="62.082352"
   inkscape:export-ydpi="62.082352"
   xmlns:inkscape="http://www.inkscape.org/namespaces/inkscape"
   xmlns:sodipodi="http://sodipodi.sourceforge.net/DTD/sodipodi-0.dtd"
   xmlns="http://www.w3.org/2000/svg"
   xmlns:svg="http://www.w3.org/2000/svg"><sodipodi:namedview
     id="namedview1"
     pagecolor="#ffffff"
     bordercolor="#000000"
     borderopacity="0.25"
     inkscape:showpageshadow="2"
     inkscape:pageopacity="0.0"
     inkscape:pagecheckerboard="0"
     inkscape:deskcolor="#d1d1d1"
     inkscape:document-units="mm"
     inkscape:zoom="0.70518255"
     inkscape:cx="-199.94823"
     inkscape:cy="-99.265077"
     inkscape:window-width="1920"
     inkscape:window-height="1011"
     inkscape:window-x="0"
     inkscape:window-y="32"
     inkscape:window-maximized="1"
     inkscape:current-layer="layer1"
     showgrid="false"
     showguides="true" /><defs
     id="defs1" /><g
     inkscape:label="Capa 1"
     inkscape:groupmode="layer"
     id="layer1"><g
       id="g5"
       transform="matrix(0.7062405,0,0,0.7062405,129.25996,51.945414)"><circle
         style="fill:#c46531;fill-opacity:0.988235;stroke:#ffffff;stroke-width:5.28;stroke-dasharray:none"
         id="path2"
         cx="-108.09814"
         cy="1.3752512"
         r="70.162094" /><g
         id="g3"
         transform="matrix(0.76811169,0,0,0.76811169,-25.488515,0.31890491)"><path
           style="fill:#ffffff;fill-opacity:0.988235;stroke:none;stroke-width:5.28;stroke-dasharray:none"
           d="m -133.75821,0.18759917 -4.50238,4.12718183 6.19077,15.94593 -1.87599,15.75833 c 0,0 -1.50079,1.313196 -0.7504,1.688394 0.7504,0.375197 16.69633,13.31954 16.69633,13.31954 l 7.87916,7.879167 3.00159,-1.125596 9.19236,-8.254365 9.942756,-7.879164 10.317956,-6.378371 0.187598,-13.88234 c 0,0 -3.564385,-9.004761 -3.564385,-9.755157 0,-0.750397 1.500793,-9.7551573 1.125596,-10.5055539 -0.375198,-0.75039676 -4.877578,-6.7535704 -4.877578,-6.7535704 l -3.001587,-8.6295617 -0.937995,-4.127182 -4.314783,-6.190773 -6.003174,-1.688393 -4.877574,-2.251189 -3.37679,-4.68998 -1.50079,3.564384 -9.75516,2.438789 -7.50397,8.629563 -2.43879,1.125595 0.3752,6.565971 -3.00158,6.565971 z"
           id="path3" /><path
           style="fill:#000000;stroke-width:0.957699"
           d="m -117.21528,68.884999 c -4.96565,-0.600621 -9.78214,-1.641745 -13.36111,-2.888114 -6.04927,-2.106632 -12.45071,-5.422292 -15.28445,-7.916648 -1.31856,-1.160636 -1.47888,-1.449037 -1.47888,-2.660239 0,-0.747159 -0.21249,-1.639409 -0.4722,-1.982782 -0.84682,-1.119599 -0.51825,-1.19065 0.71341,-0.154257 2.43456,2.048595 7.5553,5.239907 11.14837,6.94782 8.04137,3.822341 16.08862,5.697573 25.74725,5.999823 3.33765,0.104447 3.60924,-0.144239 2.28641,-2.09354 l -0.80226,-1.182203 3.76559,-3.793887 c 9.790536,-9.864129 26.046797,-20.655053 36.719022,-24.374135 5.35195,-1.865059 12.137707,-2.334385 15.819373,-1.094122 1.076406,0.362615 1.982969,0.615889 2.014586,0.562832 0.362753,-0.608754 3.28501,-7.488565 3.770853,-8.877649 1.386987,-3.965553 2.858964,-9.948751 3.519367,-14.305289 0.966398,-6.3751299 0.762265,-15.8498223 -0.465996,-21.628917 -1.489241,-7.007034 -4.07137,-13.603198 -7.640106,-19.516995 -5.635326,-9.338367 -13.253132,-17.190787 -22.794789,-23.496827 -7.905884,-5.224965 -16.834812,-8.384067 -27.04312,-9.567997 -5.3283,-0.617961 -14.30839,-0.254769 -19.14657,0.774366 -12.69025,2.69936 -23.8651,8.816153 -33.25663,18.203738 -9.8962,9.892036 -16.0318,21.588579 -18.72944,35.7047287 -0.58663,3.0697045 -0.70579,4.819692 -0.70081,10.2917735 0.007,7.1225784 0.44487,10.9375778 1.93562,16.8441908 1.38272,5.478528 4.05402,12.449482 5.63707,14.710366 0.45972,0.656558 0.52521,1.059678 0.29982,1.845552 l -0.28838,1.005504 1.18255,-0.946582 c 1.75362,-1.403721 3.3584,-1.955114 6.29284,-2.162201 4.71902,-0.333027 10.63014,1.363992 15.94712,4.578246 3.48175,2.104813 13.15657,9.39797 23.50226,17.716669 1.93333,1.554547 3.80387,3.367539 3.03977,2.946247 -0.17689,-0.09752 -4.88055,-2.895594 -10.45258,-6.217929 -11.88373,-7.085691 -17.97538,-10.31986 -22.19164,-11.781941 -2.86474,-0.993412 -3.32626,-1.059828 -7.39721,-1.064579 -4.08473,-0.0048 -4.45532,0.04808 -6.25798,0.892193 -1.05388,0.493493 -2.39261,1.260677 -2.97496,1.704867 l -1.05883,0.807609 v -2.129348 c 0,-1.807457 -0.13777,-2.332563 -0.91138,-3.473757 -8.70564,-12.842234 -11.7784,-33.8000116 -7.4589,-50.873575 4.54266,-17.955609 15.79426,-32.795817 32.87234,-43.35666 11.08177,-6.852811 25.92435,-10.403763 38.65016,-9.246697 10.986238,0.9989 20.694035,4.071561 28.820596,9.122145 3.903047,2.425709 9.47885,6.795748 13.00451,10.192294 11.504065,11.082769 17.996975,23.328576 20.975553,39.5604668 0.794539,4.3298701 0.805343,13.9855475 0.02123,18.9754562 -0.87231,5.551198 -2.266703,11.045914 -3.757519,14.806804 -1.468526,3.704655 -4.861574,10.394471 -5.784599,11.405054 -0.498057,0.545304 -0.560413,1.008764 -0.409559,3.044085 l 0.177945,2.400837 -1.007997,-0.848167 c -1.373422,-1.155665 -4.249795,-2.181821 -6.964397,-2.484578 -2.484229,-0.277063 -6.032093,-0.08744 -5.786885,0.309346 0.08574,0.138732 -0.119089,0.180335 -0.455179,0.09242 -0.997469,-0.260848 -6.067399,1.144039 -9.536722,2.642637 -5.053415,2.182865 -10.08208,5.162851 -15.000718,8.889421 -4.308949,3.264644 -3.619175,3.095064 2.634373,-0.647672 6.636777,-3.972096 16.660347,-8.150289 21.687872,-9.040298 4.854557,-0.859391 10.568173,0.231888 13.16149,2.513798 0.923926,0.812981 1.749342,2.663495 1.816516,4.072482 0.115181,2.415959 0.08408,2.496252 -0.885886,2.286899 -2.620456,-0.565588 -9.174237,-1.52912 -13.263455,-1.949981 l -4.660177,-0.479625 -0.807328,0.763334 c -1.468691,1.388673 -7.181969,4.9951 -10.938292,6.904666 -6.422284,3.264816 -12.669833,5.289842 -18.980898,6.152289 l -2.909334,0.397579 -1.2815,1.6095 c -0.70483,0.88523 -1.21706,1.673943 -1.1383,1.752694 0.24264,0.242653 6.925092,-0.55876 10.319656,-1.237606 8.532733,-1.70639 19.069317,-6.649497 24.741807,-11.607314 1.427372,-1.247537 1.562761,-1.305478 1.358898,-0.581543 -0.124532,0.442227 -0.438643,1.589359 -0.698026,2.549194 -0.577081,2.135458 -1.189506,2.809621 -4.455439,4.904626 -7.308779,4.688388 -17.074848,7.976993 -26.529228,8.93339 -4.435278,0.448663 -13.839928,0.368771 -18.164578,-0.154314 z m -13.09516,-21.619992 c -0.009,-0.13267 -1.34779,-1.345424 -2.97497,-2.695013 -8.96652,-7.436908 -16.18902,-10.896529 -22.89881,-10.968666 -4.5482,-0.0489 -7.14948,1.012803 -8.31691,3.394501 -0.65211,1.330378 -0.48995,1.872436 0.3723,1.244491 2.06734,-1.50557 3.37764,-1.830261 7.30138,-1.80927 3.45761,0.01849 4.16933,0.126401 6.83632,1.036417 4.95541,1.690865 9.41247,3.974978 17.76745,9.105306 1.52647,0.937319 1.94019,1.087007 1.91324,0.692234 z M -61.882502,36.38847 c 4.160066,-0.779763 8.149189,-0.544662 10.199169,0.601095 0.863519,0.482633 1.623797,0.823746 1.689506,0.758038 0.363013,-0.363016 -0.460533,-1.238348 -1.773712,-1.885253 -1.334797,-0.657554 -1.956809,-0.7373 -5.679978,-0.728205 -3.353509,0.0082 -4.68447,0.153994 -6.724623,0.736661 -3.316783,0.947274 -5.657667,1.966265 -5.657667,2.462794 0,0.271881 0.805582,0.111639 2.560205,-0.509275 1.408113,-0.498291 3.832308,-1.144422 5.3871,-1.435855 z m -55.374168,26.045142 c -6.11239,-0.949827 -11.82599,-2.74332 -17.01146,-5.339872 -3.4839,-1.744526 -10.9504,-6.234536 -12.79544,-7.694606 l -1.17112,-0.926765 -4.62101,0.464474 c -5.15326,0.517982 -11.15433,1.353411 -12.71415,1.769991 -0.56296,0.15034 -1.07939,0.217542 -1.14761,0.149315 -0.0682,-0.06819 -0.0212,-0.996764 0.10462,-2.06343 0.39151,-3.3204 2.51953,-5.261771 6.898,-6.292974 4.7357,-1.115337 9.984,0.12904 19.03643,4.51356 10.06,4.872524 26.34803,13.682303 28.02092,15.15579 l 0.85655,0.754457 -1.28648,-0.02097 c -0.70756,-0.01159 -2.58372,-0.222569 -4.16925,-0.468957 z m 1.91793,-7.252263 c -9.69505,-8.737349 -14.33835,-12.528018 -20.10112,-16.410061 -3.97262,-2.676127 -10.34059,-5.821919 -13.99038,-6.911291 -2.55474,-0.762527 -3.42317,-0.862571 -7.39721,-0.852169 -2.47646,0.0065 -4.84179,0.06688 -5.25629,0.134237 -0.67665,0.109941 -0.89998,-0.206167 -2.18578,-3.093727 -3.35253,-7.528907 -4.94456,-15.55252 -4.93433,-24.8682547 0.0107,-9.8084697 1.82601,-17.9192613 5.98702,-26.7510523 4.41655,-9.374179 13.8206,-19.781799 23.59593,-26.113999 7.08502,-4.589487 16.85475,-7.962861 25.89025,-8.939601 4.82559,-0.521648 4.95833,-0.557403 5.36244,-1.444319 0.33211,-0.728879 0.48745,-0.521085 2.36088,3.157815 2.50073,4.910777 2.648,5.526906 1.78647,7.474511 -0.53144,1.20142 -0.6653,2.166739 -0.6653,4.79779 v 3.293757 l 1.36072,0.182511 c 0.7484,0.100381 1.40978,0.133458 1.46973,0.0735 0.06,-0.05995 0.18966,-1.244669 0.28825,-2.632702 0.13441,-1.892398 0.46093,-3.180146 1.30528,-5.147938 0.863465,-2.012321 1.07867,-2.876724 0.9229,-3.707028 -0.280108,-1.493111 -1.81778,-3.251835 -3.8694,-4.425654 -0.94805,-0.542417 -1.90313,-1.202386 -2.12241,-1.466598 -0.34202,-0.412103 -0.22166,-0.4799 0.84676,-0.476977 2.19602,0.006 9.180459,1.226747 12.662888,2.213218 12.027794,3.407132 18.022673,6.892141 27.126984,15.769751 5.934487,5.786718 11.41972,13.123733 14.011334,18.741478 4.643008,10.064476 6.085268,20.5847288 4.502544,32.842817 -0.93335,7.228729 -2.047087,10.895124 -6.080287,20.016164 l -0.71826,1.624337 -3.742285,-0.126418 c -7.10899,-0.240149 -12.545914,1.408103 -24.48664,7.423345 -11.023184,5.553018 -14.857707,8.292162 -22.921168,16.373487 -2.61238,2.618148 -4.7833,4.759353 -4.82428,4.758223 -0.041,-9.58e-4 -2.82433,-2.48025 -6.18524,-5.509155 z m 9.5414,0.810041 c 2.21255,-2.311819 7.458268,-6.848411 13.74156,-11.883965 2.192235,-1.756909 4.363156,-3.500544 4.824267,-3.874755 0.461111,-0.374221 1.675485,-1.125795 2.698609,-1.67017 l 1.860224,-0.989773 -1.582991,0.01226 c -3.486305,0.02701 -3.649214,-0.514677 -3.400067,-11.305546 l 0.189354,-8.201257 -0.823804,1.388359 c -0.453092,0.763598 -1.112326,1.755154 -1.464962,2.203459 -0.598581,0.760973 -0.631173,1.181352 -0.490789,6.33047 0.08271,3.033454 0.229148,7.262199 0.325436,9.397208 l 0.175067,3.881842 -1.861643,0.853214 c -1.023905,0.469263 -2.643642,1.277121 -3.599407,1.795227 -1.609385,0.872416 -1.823239,0.911653 -2.894569,0.531121 -2.829705,-1.005096 -6.795555,-3.982746 -9.014975,-6.768645 -2.29348,-2.878869 -6.01273,-6.21061 -10.48521,-9.392767 -4.56185,-3.245746 -8.45387,-6.923293 -9.45397,-8.933017 l -0.64019,-1.286471 -0.0128,8.759014 -0.0128,8.759014 -0.88445,0.977176 c -0.71635,0.791453 -1.24124,1.021636 -2.76177,1.211136 l -1.87733,0.233965 4.76795,3.216184 c 6.54561,4.415281 15.86466,11.987674 19.55001,15.885788 0.51954,0.549537 0.97788,0.999148 1.01853,0.999148 0.0406,0 0.99048,-0.957699 2.11075,-2.128218 z m 6.797762,-30.764674 c 5.389797,-2.675635 9.111146,-6.15213 10.998642,-10.274964 0.627879,-1.371469 0.949644,-2.901207 1.316538,-6.2591081 0.540918,-4.9506019 1.159413,-7.9982114 1.922774,-9.47438787 0.478735,-0.92577143 0.471723,-1.01091753 -0.117206,-1.42342063 -1.052622,-0.7372847 -1.675108,-2.491509 -1.675108,-4.7206114 0,-2.0026064 -0.05783,-2.1497167 -1.729553,-4.400136 -2.490034,-3.351991 -3.549139,-4.016219 -6.626673,-4.155977 -1.842518,-0.08367 -2.749009,0.02251 -3.497786,0.409715 -0.555887,0.287462 -1.010708,0.58226 -1.010708,0.655107 0,0.07284 0.929064,0.132448 2.06458,0.132448 2.981384,0 4.79133,0.883683 7.421999,3.623698 1.186578,1.2358988 2.088192,2.3163108 2.003587,2.4009159 -0.0846,0.084603 -1.424663,-0.5164374 -2.977907,-1.3356497 -3.561442,-1.8783772 -5.526382,-2.1671682 -7.673467,-1.1277822 -0.807437,0.390874 -1.917554,1.2782006 -2.466934,1.9718382 -1.01604,1.2828658 -1.57642,1.5832836 -1.60254,0.8591366 -0.008,-0.2211126 -0.21332,-0.8362074 -0.45631,-1.3668762 -0.39009,-0.8519226 -0.44485,-0.070812 -0.46792,6.6735717 -0.0252,7.358679 -0.003,7.6384249 0.59888,7.6384249 0.93893,0 1.64756,-1.1887643 1.28192,-2.1504714 -0.44786,-1.1779566 -0.34726,-1.3103346 0.3551,-0.4672461 0.75947,0.9116214 0.8202,2.5282913 0.13192,3.5109625 -0.28272,0.4036214 -1.11685,0.8699156 -1.91626,1.0712067 -1.19502,0.3009129 -1.47148,0.5257424 -1.77415,1.4428485 -0.41009,1.242579 -0.62442,1.4210051 -1.95974,1.6314546 -1.15697,0.18234 -1.88968,-0.3436521 -1.88968,-1.3565566 0,-1.139504 -0.83797,-1.7524909 -2.39572,-1.7524909 -0.83892,0 -1.54283,-0.1902689 -1.78546,-0.4826028 -0.64112,-0.7725146 -0.76763,-3.1178663 -0.20815,-3.8592385 0.45319,-0.6005406 0.474,-0.5569586 0.3135,0.6565794 -0.23691,1.7913151 0.44607,2.3929867 1.92036,1.6917632 0.99761,-0.4744902 1.0581,-0.4610335 1.93447,0.4302262 1.04927,1.0670924 1.78976,1.1546137 2.80607,0.331657 0.72489,-0.5869796 0.72646,-0.6088237 0.65799,-9.1810848 -0.078,-9.7664532 0.12333,-10.9970332 2.08029,-12.7152592 1.43654,-1.26131 3.22054,-1.726019 6.576517,-1.713112 3.404822,0.01309 6.065112,0.908725 7.126448,2.399233 0.645394,0.906374 0.730514,0.940584 0.949673,0.381692 0.463464,-1.181905 0.26614,-1.524893 -2.367401,-4.115035 -1.459341,-1.435291 -2.801614,-2.879686 -2.982839,-3.209767 -0.227617,-0.41459 -0.919957,-0.692741 -2.239254,-0.899626 -1.050367,-0.164715 -2.494108,-0.565853 -3.208302,-0.891419 -1.645442,-0.750072 -6.139062,-5.070779 -6.726342,-6.467525 l -0.44471,-1.05763 -0.64109,1.449298 c -0.90444,2.044624 -2.40115,2.898568 -5.4199,3.092299 -2.24978,0.144383 -2.40799,0.206812 -3.2191,1.270222 -0.83976,1.100985 -3.59219,2.647959 -4.72227,2.654104 -0.32315,0.0017 -0.81924,0.463801 -1.12567,1.0484 -0.30132,0.574892 -1.61161,2.07007 -2.91176,3.322617 -2.10918,2.031969 -2.36389,2.406818 -2.36389,3.478833 0,0.660812 0.0781,1.279524 0.17344,1.374916 0.0954,0.0954 0.72496,-0.406271 1.39904,-1.114807 1.59313,-1.674574 4.06058,-2.448565 7.81876,-2.452603 4.36123,-0.0047 6.88263,1.528824 6.88263,4.185995 0,0.815817 -1.24242,4.1382674 -1.95969,5.2405313 -0.0449,0.069031 -0.65576,-0.393149 -1.35743,-1.0270635 -2.06656,-1.8670108 -3.04851,-2.2405538 -5.46368,-2.0784368 -1.76003,0.118141 -2.50613,0.367892 -4.37337,1.4639681 -1.23824,0.7268404 -2.67237,1.422944 -3.18698,1.5468981 -0.80142,0.1930358 -0.57893,-0.1160147 1.5507,-2.1540772 3.04025,-2.909511 4.38707,-3.571947 7.74701,-3.810368 l 2.57295,-0.182576 -1.08808,-0.59053 c -0.87515,-0.474966 -1.63201,-0.568845 -3.86756,-0.479723 -3.3352,0.132961 -3.9083,0.491335 -6.60474,4.130087 -1.71566,2.3152395 -1.78677,2.4903854 -1.78677,4.4013095 0,2.3351225 -0.26494,3.1498333 -1.43138,4.4016142 -0.82667,0.8871579 -0.84169,0.9669007 -0.39352,2.0905165 0.65653,1.6460426 1.43139,5.746311 1.81035,9.579775 0.53922,5.4544828 1.76047,7.9736508 5.67869,11.7138458 3.12548,2.983473 6.47489,4.84744 10.57757,5.886471 0.35378,0.08959 2.84028,0.128833 5.52557,0.08719 l 4.88233,-0.07572 z m -10.607112,-7.827964 c -1.22658,-0.604896 -1.5933,-1.347529 -0.82196,-1.664474 0.78056,-0.320729 7.68192,-0.287331 8.00801,0.03876 0.14728,0.147286 -0.20476,0.690017 -0.78232,1.206067 -0.94241,0.842049 -1.27224,0.937523 -3.21596,0.930951 -1.30319,-0.0044 -2.57288,-0.208056 -3.18777,-0.511299 z m -7.50095,-3.499776 c 0,-1.111587 1.06943,-1.738626 2.61233,-1.531681 0.98538,0.132167 1.6742,-0.02834 2.99975,-0.69901 1.66509,-0.84246 1.77127,-0.855539 3.28838,-0.405006 1.38355,0.410871 1.71245,0.407845 2.79955,-0.02575 1.15614,-0.461132 1.3192,-0.448863 2.65415,0.199703 0.78356,0.380683 2.04604,0.69102 2.811152,0.69102 0.937023,0 1.561989,0.191336 1.921107,0.588155 0.71136,0.786045 0.713189,1.801413 0.0029,1.528793 -1.244243,-0.47746 -4.852579,-0.698805 -10.566299,-0.648161 -4.75444,0.04214 -6.37843,0.167043 -7.31681,0.562747 -1.19931,0.505736 -1.20606,0.504274 -1.20606,-0.26081 z m 20.744359,-20.886559 c -0.176897,-0.060565 -1.153807,-0.2812236 -2.170922,-0.4903592 -1.017115,-0.2091357 -1.849307,-0.4988808 -1.849307,-0.6438775 0,-0.4591219 2.532817,-1.2983279 3.918492,-1.2983279 1.368361,0 4.758703,0.9552255 4.762866,1.3419339 0.0047,0.4379204 -3.899414,1.3514237 -4.661129,1.0906307 z m -26.204959,-0.6285389 -1.44038,-0.3841504 2.01455,-0.7533932 c 2.15611,-0.8063313 4.181,-0.7990279 5.98204,0.021577 l 0.90475,0.4122369 -1.56301,0.5505879 c -1.82025,0.6412026 -3.86854,0.6943865 -5.89795,0.1531418 z M -139.53016,15.22801 c 0.56921,-0.240921 1.28836,-0.72285 1.5981,-1.070953 0.55542,-0.624218 0.53952,-0.62863 -1.15732,-0.321067 -2.38712,0.432682 -3.96806,0.06592 -5.2525,-1.218515 -1.33946,-1.339463 -1.34441,-1.673345 -0.0229,-1.545093 1.0711,0.103949 1.54535,-0.192053 3.12671,-1.951545 l 0.79499,-0.8845329 -2.12718,0.2179359 c -1.6545,0.169508 -2.36087,0.1013476 -3.17892,-0.3067463 -0.57846,-0.2885748 -1.09604,-0.4803895 -1.15018,-0.4262546 -0.15889,0.1588938 1.01857,3.8375929 1.56522,4.8901989 0.67723,1.30402 1.57059,2.065093 3.03859,2.588647 1.54843,0.552237 1.52712,0.552023 2.76536,0.02793 z m 66.194968,0.0738 c 2.173424,-0.724124 4.191003,-3.385691 4.924088,-6.4958004 0.19859,-0.8425157 0.159843,-0.8902906 -0.521685,-0.6432358 -0.404915,0.1467808 -1.847516,0.2564652 -3.205779,0.2437421 l -2.46957,-0.023138 0.700671,0.871672 c 0.986286,1.2269911 2.383146,1.9998541 3.298313,1.8249091 0.428641,-0.08194 0.779347,-0.03545 0.779347,0.103296 0,0.548222 -1.993818,2.202741 -3.090712,2.564748 -1.09971,0.362937 -3.55256,0.24284 -4.873248,-0.238605 -0.97458,-0.355274 0.585558,1.216998 1.692411,1.705575 1.20229,0.530703 1.413965,0.537347 2.766164,0.08683 z m -8.59866,-2.875281 c 0.95922,-0.754522 1.145909,-2.223114 0.364992,-2.8712174 -0.690786,-0.5733018 -0.598062,-1.6174391 0.318475,-3.5862656 0.971681,-2.0872785 0.978134,-2.2196948 0.151423,-3.1070654 -0.967492,-1.0384801 -1.178783,-0.8832572 -1.34027,0.9846135 -0.09767,1.1297019 -0.472125,2.2206764 -1.131487,3.2965835 -0.542029,0.8844486 -1.082352,2.0678919 -1.200717,2.6298723 -0.304664,1.4465021 0.618821,3.1440591 1.792327,3.2946671 0.108812,0.01396 0.579178,-0.274569 1.045257,-0.641188 z m -49.003358,0.03015 c 0.89487,-0.565687 0.5861,-2.8489946 -0.72717,-5.3772716 -0.88008,-1.6943145 -1.20254,-2.7125144 -1.20254,-3.797194 v -1.482097 l -0.95477,0.5639958 c -0.52512,0.3101968 -1.02998,0.7600205 -1.12192,0.9996071 -0.0919,0.2395867 0.26534,1.2923969 0.79395,2.3395778 1.06354,2.1068347 1.17527,3.0594208 0.46847,3.9938907 -1.33528,1.7653952 0.84617,3.9591762 2.74398,2.7594912 z m -6.59317,-12.69488358 c 2.69403,-0.80377682 5.3067,-3.57581982 5.3067,-5.63040452 0,-0.6299621 -2.06876,-3.229919 -2.57002,-3.229919 -0.13411,0 0.0429,0.5796704 0.39349,1.2881561 0.7505,1.5168959 0.60562,2.4171188 -0.62423,3.8787086 -1.12522,1.3372535 -3.08276,2.2143825 -4.96183,2.2232843 -1.21073,0.00575 -1.8532,-0.23478 -3.41754,-1.2794086 -1.05958,-0.7075596 -2.16811,-1.2864715 -2.4634,-1.2864715 -0.93735,0 -2.11672,1.4780008 -2.10556,2.6387284 l 0.0102,1.05987708 0.65987,-0.88444858 c 0.8618,-1.1550954 2.21432,-1.2282607 2.21432,-0.1197852 0,1.99260329 3.37075,2.5909737 7.55802,1.34168292 z M -71.120839,-0.362356 c 0.444733,-0.3316972 0.858835,-0.8772046 0.920228,-1.2122374 0.06139,-0.3350329 0.220285,-0.7246259 0.353096,-0.865762 0.421859,-0.4483038 1.889385,0.4657205 2.286315,1.4239933 0.553013,1.33509208 1.069612,1.16102642 0.839703,-0.282933 -0.236296,-1.4840651 -1.486315,-2.6533478 -2.836555,-2.6533478 -0.563886,0 -1.782091,0.4957904 -2.873618,1.1695193 -2.045685,1.2626689 -3.455406,1.4677679 -5.484862,0.7979866 -2.650485,-0.8747395 -4.274716,-4.1012827 -3.024831,-6.0088471 0.789273,-1.2045825 0.415641,-1.2941599 -0.708627,-0.169891 -2.896849,2.8968485 -0.225177,7.26628496 5.128992,8.38830906 1.92618,0.40365105 4.438172,0.13069433 5.400159,-0.58678996 z m -75.755391,-4.7261784 c 0.34337,-0.2597089 1.04044,-0.4721984 1.54904,-0.4721984 0.81908,0 0.91312,-0.1010689 0.82298,-0.8844496 -0.13413,-1.1657727 -1.20382,-1.3241906 -2.28896,-0.3389891 -0.81682,0.7415838 -1.46529,2.1973259 -0.97025,2.1780637 0.14458,-0.00565 0.54382,-0.2227178 0.88719,-0.4824266 z m 79.348402,-0.552603 c -1.095326,-1.7459402 -3.223054,-2.0158237 -3.531628,-0.4479542 -0.0816,0.4146109 0.160737,0.5308124 1.125662,0.5397554 0.676308,0.00622 1.59147,0.2182319 2.033695,0.47103 1.105231,0.6318075 1.113702,0.6190021 0.372271,-0.5628312 z M -139.19168,-5.39842 c 1.5026,-0.6278274 2.46537,-1.688305 2.46527,-2.7154967 -3e-5,-0.4530923 -0.42848,-1.6198087 -0.95209,-2.5927023 -1.07662,-2.00042 -1.18258,-2.780327 -0.50847,-3.742748 0.36523,-0.521447 0.92339,-0.706162 2.52143,-0.834437 3.02285,-0.242645 4.61875,-1.613512 3.93734,-3.382139 -0.20673,-0.536593 -0.23224,-0.536626 -0.5331,-7.13e-4 -0.45964,0.818757 -1.877,1.460858 -3.78269,1.713656 -3.09977,0.4112 -4.45181,2.508081 -3.40543,5.281526 1.28824,3.4145326 0.83504,5.145888 -1.34699,5.145888 -1.08897,0 -1.2333,0.1801949 -0.88059,1.0993582 0.24447,0.6370797 1.00672,0.645609 2.48532,0.027812 z m 64.993727,0.2857046 c 0.853139,-0.3273799 0.568423,-0.9989099 -0.515423,-1.2156794 -2.125858,-0.4251715 -2.737093,-2.030284 -1.709598,-4.4894272 0.713138,-1.706778 0.626842,-4.121108 -0.184152,-5.15212 -0.593655,-0.754711 -0.887476,-0.847418 -2.685759,-0.847418 -2.658281,0 -3.935267,-0.476687 -4.616681,-1.723362 l -0.552263,-1.01039 -0.103822,1.075343 c -0.196986,2.040306 1.834006,3.381625 4.86634,3.213852 1.844469,-0.10205 1.983142,-0.05844 2.453938,0.771722 0.456737,0.80537 0.448983,1.009643 -0.09156,2.412134 -1.198837,3.1104972 -1.317706,3.7920199 -0.85586,4.9070125 0.664201,1.6035246 2.591816,2.5967238 3.99484,2.0583331 z m -57.200427,-6.7150216 c 1.56953,-0.919808 2.71249,-2.921548 2.71249,-4.750567 0,-1.625481 -0.52811,-1.780434 -1.13299,-0.332426 -1.08168,2.589447 -3.12775,3.952785 -5.93227,3.952785 -0.89013,0 -1.61842,0.130516 -1.61842,0.290035 0,0.159518 0.47037,0.591265 1.04526,0.959435 1.42649,0.913544 3.23843,0.869675 4.92593,-0.119262 z m 51.839632,0.159789 c 1.475076,-0.899372 1.300765,-1.289997 -0.575644,-1.289997 -0.978253,0 -2.113545,-0.251327 -2.863453,-0.633901 -1.406652,-0.717621 -3.234475,-2.763538 -3.234475,-3.620411 0,-0.313476 -0.16355,-0.569956 -0.363445,-0.569956 -0.611164,0 -0.109328,2.792383 0.726344,4.041625 0.938087,1.402337 3.007772,2.70564 4.300561,2.708106 0.530669,0.0011 1.43522,-0.284947 2.010112,-0.635466 z m -62.969152,-5.820024 c 1.38945,-0.297983 1.76784,-0.553254 2.58878,-1.746442 0.5288,-0.768595 0.96146,-1.540761 0.96146,-1.715923 0,-0.175162 -0.91911,-0.416905 -2.04249,-0.537208 -1.6656,-0.17837 -2.24474,-0.108912 -3.13858,0.376424 -1.56369,0.849048 -3.79765,2.479147 -3.81202,2.781602 -0.018,0.378978 1.94446,1.163424 2.94692,1.177953 0.47774,0.0069 1.60091,-0.144459 2.49593,-0.336406 z m 72.909477,0.16199 c 0.514263,-0.102853 1.266923,-0.437357 1.672576,-0.743343 l 0.737553,-0.556336 -1.904435,-1.175484 c -1.047441,-0.646517 -2.321707,-1.334132 -2.831705,-1.528033 -1.00005,-0.380218 -3.996113,-0.119414 -3.996113,0.347857 0,0.153081 0.392671,0.928423 0.872603,1.722983 1.079968,1.78796 2.916103,2.439039 5.449521,1.932356 z m -64.141347,-4.127131 c 0.9956,-1.247776 2.9817,-2.087726 3.56271,-1.50672 0.26468,0.264674 0.15993,0.498967 -0.39767,0.889523 -0.723,0.506412 -0.73048,0.549582 -0.16664,0.961872 0.86041,0.629145 3.04022,0.527384 4.22893,-0.19742 2.03625,-1.241579 2.44327,-2.717457 1.87595,-6.802247 -0.32588,-2.346373 0.15842,-3.787626 1.75847,-5.233187 1.33843,-1.209186 3.12658,-1.749469 4.06044,-1.226851 0.45424,0.254204 0.83694,0.09674 1.82925,-0.752638 0.69016,-0.590752 1.76587,-1.316593 2.39046,-1.61298 1.46631,-0.695811 4.81808,-0.696192 6.163,-7.01e-4 1.23365,0.637943 1.29056,0.155869 0.11132,-0.942839 -2.33927,-2.179502 -7.81153,-1.557094 -9.31311,1.05926 -0.45511,0.792981 -0.66217,0.864416 -2.50568,0.864416 -1.62955,0 -2.222,0.152047 -3.13297,0.804045 -1.74203,1.246818 -2.88973,2.809272 -3.34077,4.548055 -0.36709,1.415192 -0.34087,1.821418 0.23868,3.697805 0.3581,1.159378 0.58048,2.291946 0.49419,2.516819 -0.27823,0.72505 -1.87517,0.76356 -4.00043,0.09647 -1.95428,-0.613423 -2.13679,-0.620527 -3.17857,-0.123738 -1.15151,0.549116 -2.4603,2.774051 -2.13321,3.626435 0.24957,0.650369 0.49552,0.537949 1.45565,-0.665378 z m 48.637979,0.403096 c 1.110282,-0.505878 1.029842,-0.852162 -0.22608,-0.973257 -1.519764,-0.146532 -1.280516,-0.727099 0.347889,-0.844197 1.506021,-0.108298 2.948695,0.573761 2.948695,1.394066 0,0.261256 0.144728,0.475013 0.321618,0.475013 0.994487,0 -0.390194,-2.818797 -1.524536,-3.103499 -0.399834,-0.100352 -1.643512,-2.79e-4 -2.763729,0.222384 -3.710338,0.737499 -4.652088,-0.130597 -3.450041,-3.180214 0.791911,-2.009094 0.832861,-3.200645 0.164935,-4.799216 -0.953555,-2.282177 -2.754962,-3.612261 -4.892288,-3.612261 -0.682533,0 -1.488274,0.18091 -1.790524,0.402022 -0.470968,0.344526 -0.343009,0.406404 0.894673,0.432656 1.791386,0.038 3.629574,1.228382 4.621087,2.992542 0.913445,1.625255 0.883268,3.106239 -0.09568,4.695655 -1.000445,1.624317 -1.044141,3.317293 -0.116073,4.497141 1.24481,1.582519 3.767014,2.218129 5.560054,1.401165 z m -52.217749,-2.672452 0.76265,-1.437606 -1.28079,-1.312577 c -0.70713,-0.724677 -2.53861,-1.947192 -4.08907,-2.729452 -2.70227,-1.363392 -4.85518,-2.733059 -4.63774,-2.950497 0.20526,-0.205261 3.80109,1.174941 5.70539,2.189922 1.06794,0.569204 2.57379,1.737956 3.34635,2.597227 l 1.40466,1.562311 1.63059,-2.015218 c 0.89681,-1.108369 1.63058,-2.107424 1.63058,-2.220123 0,-0.112699 -0.6593,-0.812626 -1.4651,-1.555395 -1.47474,-1.35936 -4.32449,-2.903493 -5.36928,-2.909325 -0.30955,-0.0017 -0.56283,-0.166368 -0.56283,-0.365865 0,-0.552713 2.3748,-0.07283 4.12721,0.833985 0.82561,0.427229 2.05189,1.291974 2.72507,1.921657 0.67318,0.629683 1.32445,1.143943 1.44728,1.142801 0.12282,-0.0011 0.91634,-0.59608 1.76339,-1.322084 l 1.54007,-1.320007 -1.21846,-1.093037 c -3.65416,-3.278037 -5.97518,-3.634274 -10.22375,-1.569171 -2.53429,1.231843 -2.62995,1.250897 -6.36747,1.268391 -3.22197,0.01508 -3.77123,0.09055 -3.64014,0.500187 0.0849,0.265336 0.70205,1.916051 1.37142,3.668257 1.78464,4.671617 4.41064,7.341539 8.06836,8.203287 2.26568,0.533787 2.51453,0.452543 3.33161,-1.087668 z m 64.095646,0.660818 c 1.752834,-0.527525 4.085786,-2.328632 5.188858,-4.005949 0.645101,-0.98093 2.72724,-6.727368 2.727923,-7.528717 1.18e-4,-0.137928 -1.700399,-0.283884 -3.778925,-0.324344 -3.777465,-0.07353 -3.780255,-0.07416 -6.299023,-1.437712 -3.701741,-2.003954 -5.751478,-1.785229 -8.723306,0.930854 -0.980284,0.895925 -1.776691,1.722978 -1.769792,1.837896 0.0069,0.114918 0.666468,0.690145 1.465711,1.278285 1.568471,1.154194 1.547973,1.157255 3.200455,-0.477943 0.38633,-0.382288 1.319232,-1.009745 2.073118,-1.39435 1.576342,-0.804189 4.826418,-1.268377 4.826418,-0.689327 0,0.201637 -0.325639,0.368027 -0.72364,0.369756 -1.578283,0.0069 -6.99519,3.245595 -6.99519,4.182391 0,0.155679 0.701361,1.209679 1.558579,2.342222 l 1.55858,2.059169 1.51775,-1.721472 c 1.143513,-1.297003 2.166829,-2.029859 4.150139,-2.972155 2.653051,-1.260499 4.401286,-1.833412 4.401286,-1.442342 0,0.372536 -1.060346,1.070526 -3.642579,2.397788 -2.615328,1.344272 -5.196289,3.447126 -5.533016,4.508058 -0.11786,0.371344 0.07651,0.994829 0.492069,1.578428 0.795313,1.116915 1.86537,1.24356 4.304585,0.509464 z m -20.517711,-5.81638 c 0.57688,-2.298448 -1.523192,-3.752779 -3.873022,-2.682128 -1.174311,0.535053 -1.01043,0.913229 0.395741,0.913229 1.52571,0 2.644504,0.756071 2.644504,1.787136 0,1.026076 0.573825,1.01351 0.832777,-0.01824 z m -26.385465,-0.682226 c 0.87922,-0.932252 1.24393,-1.117498 1.82771,-0.928343 1.69666,0.549758 3.03441,0.545977 3.59054,-0.01015 0.304,-0.304004 0.47205,-0.751166 0.37342,-0.993693 -0.62569,-1.538756 -0.65922,-1.472193 0.50312,-0.998816 0.94063,0.38308 1.538,1.078282 1.99932,2.326757 0.22495,0.608767 1.50255,-0.908203 1.84923,-2.195707 0.65019,-2.414589 -0.70368,-3.588614 -3.25637,-2.823809 -1.54378,0.462525 -2.62741,1.748641 -2.36254,2.80398 0.24803,0.988219 -0.5155,1.303054 -1.83482,0.756575 -1.98512,-0.822267 -3.58908,-0.345417 -4.19453,1.24701 -0.27556,0.724795 -0.11972,1.980849 0.24577,1.980849 0.0884,0 0.65502,-0.524094 1.25915,-1.164653 z m 21.877029,0.61333 c 0.520682,-0.520683 0.490687,-0.566493 -0.539855,-0.824336 -1.260274,-0.315323 -1.895234,-1.006416 -1.895234,-2.0628 0,-1.04266 -0.55168,-0.926713 -0.79178,0.166407 -0.50764,2.311305 1.740644,4.20695 3.226869,2.720729 z m -4.701139,-3.185807 c 0.43352,-0.817192 1.18742,-1.78094 1.67532,-2.141663 1.12482,-0.83162 0.8992,-1.196801 -0.73946,-1.196801 -1.01077,0 -1.50519,0.212959 -2.26997,0.977739 -0.81191,0.811913 -0.94376,1.147632 -0.77739,1.979459 0.19747,0.987399 0.72559,1.86707 1.1209,1.86707 0.11131,0 0.55708,-0.668612 0.9906,-1.485804 z m -23.45648,-2.898775 c 0.70376,-0.465731 1.27957,-0.897586 1.27957,-0.959677 0,-0.513764 -2.68332,-6.157181 -3.33195,-7.007577 -0.89225,-1.1698 -7.28196,-5.189841 -7.28063,-4.580551 0.002,0.768399 1.62192,6.379803 2.12871,7.37246 0.53566,1.049212 5.21893,6.015652 5.67661,6.019851 0.13646,0.0012 0.82392,-0.378776 1.52769,-0.844506 z m 42.179807,-1.645757 c 2.877277,-2.925081 3.262948,-3.612527 4.139408,-7.378352 0.362647,-1.558158 1.014595,-3.610327 1.448774,-4.560375 0.434179,-0.950048 0.789417,-1.777978 0.789417,-1.839845 0,-0.116243 -0.530994,-0.06124 -5.127535,0.531156 -3.670259,0.473015 -5.553864,1.491302 -6.647699,3.593779 -0.568974,1.093633 -3.11625,8.310966 -2.967328,8.407506 0.05995,0.03884 0.511009,0.24341 1.002416,0.454584 0.831174,0.357184 0.915928,0.322483 1.215604,-0.497709 1.61383,-4.416941 2.402134,-5.97187 3.482414,-6.869053 1.327847,-1.10279 7.755656,-4.580468 7.755656,-4.196091 0,0.467309 -1.746413,1.85754 -4.287933,3.413407 -1.459467,0.893455 -2.90508,2.075021 -3.436824,2.80907 -0.771137,1.064525 -2.893821,5.94912 -2.886319,6.641829 0.0023,0.212041 2.576827,1.967767 2.899791,1.977539 0.0926,0.0028 1.271666,-1.116548 2.620158,-2.487445 z m -14.168946,0.156849 c -1.532405,-3.165542 -5.957751,-3.313081 -7.993061,-0.266486 -0.87205,1.305321 -0.69277,1.767019 0.23039,0.593396 0.40654,-0.516833 1.22012,-0.958376 2.19824,-1.193022 1.97033,-0.472676 4.03646,0.147348 5.195382,1.559084 1.058363,1.289233 1.19993,1.023397 0.369049,-0.692972 z m -24.634451,-0.620271 c 0.54109,-0.246537 0.78168,-0.56169 0.67519,-0.884448 -1.3644,-4.135405 -3.13,-8.486794 -3.75304,-9.249492 -1.4454,-1.769388 -2.93823,-2.369108 -7.01225,-2.817061 -2.06019,-0.226526 -3.80247,-0.361949 -3.87175,-0.300941 -0.30236,0.266252 1.63872,1.532985 4.4047,2.874471 4.57968,2.221131 5.67167,3.560117 8.08935,9.919122 0.3685,0.969205 0.3555,0.965146 1.4678,0.458349 z m 3.19755,-1.831642 c 0.87767,-0.333326 1.645,-0.753703 1.70515,-0.934171 0.0602,-0.180469 -0.69413,-1.867179 -1.67618,-3.748247 -1.52383,-2.918797 -1.78556,-3.674764 -1.78556,-5.157326 0,-0.955462 -0.12626,-1.815233 -0.28057,-1.910602 -0.41942,-0.259219 -1.97113,3.428911 -1.9683,4.678304 0.003,1.12339 0.78549,3.932342 1.7593,6.311737 0.30767,0.751782 0.57988,1.366758 0.60489,1.366614 0.025,-1.44e-4 0.76359,-0.272983 1.64127,-0.606309 z m 27.346432,-2.046777 c 0.481342,-1.282451 0.949098,-3.200098 1.039457,-4.261437 0.153562,-1.803723 0.08311,-2.066191 -1.079125,-4.020224 l -1.24341,-2.090516 -0.174119,3.05537 c -0.132613,2.326881 -0.351025,3.392987 -0.916049,4.471375 -0.408056,0.778803 -0.938334,1.972671 -1.178382,2.65304 l -0.436442,1.237034 1.191684,0.62933 c 0.65543,0.346131 1.355834,0.635725 1.556453,0.643543 0.200619,0.0079 0.758584,-1.035064 1.239933,-2.317515 z m -3.668084,-2.733589 c 1.0933,-3.234398 1.213386,-5.83238 0.419032,-9.065321 -0.63937,-2.602155 -0.943018,-2.976869 -1.18816,-1.466241 -0.104025,0.641038 -0.854067,2.496286 -1.666761,4.122773 -1.413379,2.828669 -2.069499,5.381298 -2.087419,8.121059 -0.006,0.899178 0.13199,1.032572 1.521218,1.471845 1.81959,0.575354 1.681969,0.721324 3.00209,-3.184115 z m -18.783918,3.123309 c 0.93471,-0.325843 0.95485,-0.378346 0.83279,-2.17092 -0.1802,-2.646406 -0.90932,-4.720833 -2.55159,-7.259523 -0.79302,-1.22587 -1.69737,-2.879382 -2.00969,-3.674473 -0.75331,-1.917791 -0.96649,-1.32231 -1.21998,3.407854 l -0.19647,3.665988 1.56586,3.182497 c 1.64119,3.335601 1.80592,3.466705 3.57908,2.848577 z m 4.5252,-0.512027 c 0.69041,-0.185022 0.72364,-0.34443 0.72364,-3.470921 0,-2.990429 -0.0703,-3.372295 -0.80405,-4.366815 -1.12658,-1.52699 -1.01283,-2.60757 0.64324,-6.11074 1.74176,-3.684429 1.91971,-4.841629 0.50663,-3.294503 -0.51736,0.566436 -1.71137,1.375149 -2.65335,1.797141 -2.71169,1.214788 -3.98573,3.031542 -3.58732,5.115425 0.10993,0.574968 0.62493,1.897337 1.14444,2.9386 0.65045,1.303684 1.05662,2.780861 1.3044,4.743863 0.3469,2.748305 0.38924,2.850504 1.17927,2.84627 0.4507,-0.0024 1.1451,-0.09166 1.5431,-0.19832 z m 4.26137,-3.41549 c -5e-5,-2.569335 0.15373,-3.72545 0.69706,-5.240615 l 0.69714,-1.944031 -0.84189,-1.838942 c -1.00493,-2.195037 -1.57797,-2.508154 -2.68968,-1.469683 -1.80945,1.690238 -2.20081,3.773065 -1.05675,5.624186 0.52501,0.849479 0.70465,1.823542 0.85223,4.621018 l 0.187,3.54465 h 1.07748 1.07748 z"
           id="path1" /></g><path
         d="m -145.32895,-39.409826 -0.0352,-0.0394 c -0.25196,0.22536 -0.52584,0.17269 -0.81825,-0.48699 l -0.18472,-0.44421 c 0.23372,-0.16652 0.50059,-0.39105 0.76043,-0.62345 0.32282,-0.28874 0.63943,-0.60027 0.86322,-0.85713 l 0.43502,0.24868 c 0.62311,0.3639 0.64502,0.64193 0.39306,0.86729 l 0.0352,0.0394 2.17314,-1.94372 -0.0352,-0.0394 c -0.25196,0.22536 -0.65181,0.28537 -1.27492,-0.0785 l -5.00932,-2.87515 c -0.62393,-0.34899 -0.64585,-0.62702 -0.39389,-0.85237 l -0.0352,-0.0394 -2.08653,1.86625 0.0352,0.0394 c 0.25195,-0.22536 0.54157,-0.18678 0.81907,0.47208 l 2.30076,5.29776 c 0.29241,0.65968 0.18835,1.05039 -0.0636,1.27575 l 0.0352,0.0394 z m -2.43769,-4.1832 1.98616,1.1431 c -0.30169,0.31236 -0.70409,0.68644 -1.07166,0.97269 z m 6.38492,0.74139 2.40071,-1.61693 -0.0295,-0.0438 c -0.28038,0.18883 -0.61154,0.16989 -0.97151,-0.36457 l -0.79666,-1.18284 1.13026,-0.76125 c 1.44568,-0.97369 1.80309,-2.22058 0.8471,-3.63998 -0.92648,-1.37559 -2.26903,-1.51574 -3.46939,-0.70728 l -3.24184,2.18344 0.0295,0.0438 c 0.28038,-0.18884 0.61745,-0.16113 1.00102,0.40838 l 3.06272,4.54733 c 0.38357,0.56952 0.28845,0.90104 0.008,1.08988 z m 1.11451,-6.57112 c 0.43078,0.6396 0.28971,1.16765 -0.32361,1.58073 l -0.95502,0.64323 -1.29826,-1.92758 0.91998,-0.61963 c 0.60456,-0.40718 1.22612,-0.31636 1.65691,0.32325 z m 9.88815,-3.99482 c -1.1357,-2.32561 -3.0264,-2.73073 -5.06725,-1.7341 -2.05034,1.00126 -2.89342,2.74141 -1.75772,5.06702 1.13106,2.31613 3.0264,2.73074 5.07673,1.72947 2.04085,-0.99663 2.8793,-2.74627 1.74824,-5.06239 z m -1.6137,0.78804 c 0.69069,1.41435 0.36396,2.50263 -0.73715,3.04035 -1.09162,0.53308 -2.16974,0.13085 -2.86043,-1.2835 -0.69069,-1.41436 -0.34497,-2.51191 0.74664,-3.04499 1.10111,-0.53772 2.16025,-0.12622 2.85094,1.28814 z m 3.72374,2.4203 4.49777,-1.53865 -0.45054,-2.06765 -0.04,0.0137 c -0.065,0.65861 -0.43716,0.90875 -1.25675,1.18912 l -1.02949,0.35218 -1.67884,-4.90756 c -0.15807,-0.55999 0.0203,-0.82196 0.32012,-0.92453 l -0.0171,-0.05 -2.73864,0.93686 0.0171,0.05 c 0.31984,-0.10941 0.64152,0.015 0.86035,0.65468 l 1.77457,5.18743 c 0.22225,0.64967 0.0442,0.94505 -0.27567,1.05446 z m 5.24022,-1.76154 4.62954,-1.07921 -0.24063,-2.10245 -0.0412,0.01 c -0.13078,0.64876 -0.52621,0.86025 -1.36981,1.05691 l -1.05965,0.24702 -1.17754,-5.05134 c -0.10104,-0.57303 0.1027,-0.81577 0.41134,-0.88772 l -0.012,-0.0514 -2.81888,0.65712 0.012,0.0514 c 0.32921,-0.0767 0.63677,0.0794 0.79026,0.73777 l 1.24469,5.3394 c 0.15589,0.66872 -0.051,0.94472 -0.38016,1.02146 z m 12.40098,-5.75033 c -0.2721,-2.57376 -1.91034,-3.60092 -4.16895,-3.36214 -2.26911,0.2399 -3.65636,1.58691 -3.38426,4.16067 0.27099,2.56326 1.91034,3.60092 4.17945,3.36103 2.25861,-0.23878 3.64475,-1.5963 3.37376,-4.15956 z m -1.78588,0.18881 c 0.16548,1.56526 -0.51366,2.47625 -1.73225,2.60508 -1.2081,0.12772 -2.08372,-0.6189 -2.2492,-2.18416 -0.16548,-1.56527 0.53467,-2.47848 1.74276,-2.60619 1.2186,-0.12884 2.07321,0.62 2.23869,2.18527 z m 10.20249,-2.58462 c 0.0891,-0.67018 0.38017,-0.85526 0.71525,-0.8107 l 0.007,-0.0523 -2.81683,-0.37464 -0.007,0.0524 c 0.33509,0.0446 0.56763,0.29928 0.4771,0.97993 l -0.72281,5.4347 c -0.0891,0.67018 -0.38016,0.85526 -0.71525,0.8107 l -0.007,0.0524 2.81683,0.37464 0.007,-0.0524 c -0.33509,-0.0446 -0.56763,-0.29928 -0.4771,-0.97993 l 0.37185,-2.79589 c 0.68308,1.1139 1.54339,2.01691 1.52488,3.0375 l 0.10472,0.0139 c 0.23841,-0.99133 1.261568,-1.63319 2.189708,-2.52214 l -0.370458,2.78542 c -0.08913,0.67017 -0.380167,0.85526 -0.715254,0.81069 l -0.007,0.0524 2.869189,0.3816 -0.0035,-0.0537 c -0.324616,-0.0432 -0.557157,-0.2979 -0.466632,-0.97854 l 0.722811,-5.43471 c 0.08913,-0.67017 0.380167,-0.85526 0.704783,-0.81208 l 0.01743,-0.051 -2.869189,-0.3816 -0.007,0.0524 c 0.335087,0.0446 0.567628,0.29929 0.478495,0.96946 -0.125343,0.94244 -1.225309,1.5208 -2.240673,2.50471 -0.74385,-1.21789 -1.70676,-2.07061 -1.58142,-3.01304 z m 8.548023,8.15522 0.01284,-0.0512 c -0.327892,-0.0822 -0.530115,-0.36159 -0.363148,-1.02762 l 1.333161,-5.318 c 0.164398,-0.65579 0.474507,-0.80675 0.802399,-0.72455 l 0.01284,-0.0512 -2.797331,-0.70126 -0.01284,0.0512 c 0.317646,0.0796 0.519869,0.35903 0.355471,1.01481 l -1.333161,5.318 c -0.166967,0.66603 -0.477076,0.817 -0.794721,0.73737 l -0.01284,0.0512 z m 0.520697,0.10974 4.501191,1.52859 0.90604,-1.9124 -0.04001,-0.0136 c -0.453691,0.48183 -0.901165,0.45259 -1.721382,0.17404 l -1.030273,-0.34988 1.667868,-4.9113 c 0.216836,-0.53995 0.518044,-0.63848 0.818123,-0.53657 l 0.01698,-0.05 -2.740725,-0.93075 -0.01698,0.05 c 0.320084,0.1087 0.498816,0.40367 0.281416,1.04384 l -1.762981,5.19138 c -0.220797,0.65017 -0.542197,0.7753 -0.862282,0.6666 z m 7.592211,2.87897 0.02293,-0.0476 c -0.304513,-0.14677 -0.360452,-0.41999 0.137513,-0.94222 l 0.339964,-0.34039 c 0.243173,0.15239 0.552616,0.31326 0.866645,0.46462 0.390158,0.18805 0.799004,0.36165 1.121864,0.47036 l -0.06366,0.49702 c -0.09829,0.71486 -0.346866,0.84131 -0.651379,0.69454 l -0.02293,0.0476 2.626427,1.2659 0.02293,-0.0476 c -0.304513,-0.14677 -0.512708,-0.49338 -0.414417,-1.20824 l 0.743678,-5.72772 c 0.08419,-0.70993 0.332764,-0.83638 0.637277,-0.68961 l 0.02293,-0.0476 -2.521751,-1.21544 -0.02293,0.0476 c 0.304514,0.14677 0.379484,0.42916 -0.12341,0.93728 l -4.017196,4.14994 c -0.497965,0.52222 -0.898796,0.57529 -1.203309,0.42851 l -0.02293,0.0476 z m 2.934852,-3.85074 -0.297746,2.2722 c -0.403917,-0.15951 -0.903338,-0.38849 -1.308284,-0.61885 z m 4.029855,7.70307 0.02928,-0.044 c -0.281361,-0.18736 -0.378216,-0.51839 0.0024,-1.0899 l 1.662866,-2.49708 c 0.287903,1.51165 1.08262,2.92928 0.438552,3.89646 -0.380585,0.57152 -0.714565,0.61564 -0.995926,0.42827 l -0.02928,0.044 2.356402,1.56918 0.02927,-0.044 c -0.281361,-0.18737 -0.378216,-0.51839 0.0024,-1.08991 l 3.03883,-4.56333 c 0.37473,-0.56272 0.717502,-0.60098 0.998864,-0.41362 l 0.02927,-0.044 -2.356401,-1.56918 -0.02928,0.044 c 0.281361,0.18736 0.369424,0.51253 -0.0053,1.07525 l -1.493067,2.2421 c -0.25567,-1.50288 -1.147026,-2.83257 -0.608351,-3.64148 0.37473,-0.56272 0.717502,-0.60099 0.998863,-0.41362 l 0.02928,-0.044 -2.356402,-1.56918 -0.02927,0.044 c 0.272569,0.18151 0.369424,0.51254 -0.0053,1.07526 l -3.038829,4.56333 c -0.380586,0.57151 -0.723358,0.60978 -0.995926,0.42827 l -0.02928,0.044 z m 11.794774,4.7432 c 1.722594,-1.93157 1.381805,-3.83492 -0.313247,-5.34659 -1.702936,-1.51869 -3.632729,-1.64027 -5.355323,0.2913 -1.715562,1.92369 -1.381805,3.83493 0.321131,5.35362 1.695053,1.51166 3.631877,1.62536 5.347439,-0.29833 z m -1.340274,-1.19527 c -1.047618,1.17471 -2.178596,1.28428 -3.093135,0.46868 -0.906656,-0.80856 -0.942505,-1.95872 0.105113,-3.13343 1.047618,-1.17471 2.194364,-1.27022 3.10102,-0.46165 0.914539,0.81559 0.93462,1.95169 -0.112998,3.1264 z"
         id="text3"
         style="font-size:10.5637px;line-height:1;font-family:'Silvano Western Demo';-inkscape-font-specification:'Silvano Western Demo';text-align:center;letter-spacing:0px;word-spacing:1.11799px;text-anchor:middle;fill:#ffffff;fill-opacity:0.988235;stroke-width:17.5674"
         aria-label="APOLLO MILANO" /><path
         d="m -145.05025,50.588481 2.19424,1.88763 0.0344,-0.04 c -0.25626,-0.22046 -0.31179,-0.56086 0.12911,-1.07338 l 0.59936,-0.69672 0.80082,0.68892 c 1.32135,1.13671 2.52881,1.25575 3.45885,0.17464 0.89559,-1.04106 0.58613,-2.26877 -0.51099,-3.21258 l -2.73079,-2.3492 -0.0344,0.04 c 0.25626,0.22045 0.31868,0.55284 -0.12912,1.07338 l -2.85211,3.31539 c -0.35823,0.41643 -0.66866,0.37233 -0.92493,0.15188 z m 5.82098,-0.19006 c -0.39957,0.46447 -0.8979,0.41202 -1.45847,-0.0702 l -0.64066,-0.55114 1.19872,-1.39342 0.60862,0.52357 c 0.55257,0.47535 0.69136,1.02673 0.29179,1.49121 z m 0.68933,5.40453 0.0294,-0.0439 c -0.28094,-0.188 -0.29804,-0.46637 0.2682,-0.91365 l 0.22588,-0.16661 1.60663,1.07511 -0.0766,0.26648 c -0.18873,0.69991 -0.45257,0.79028 -0.73351,0.60228 l -0.0294,0.0439 2.37042,1.58622 0.0294,-0.0439 c -0.27216,-0.18213 -0.42972,-0.55449 -0.241,-1.2544 l 1.17638,-4.24623 c 0.18284,-0.69113 0.44669,-0.7815 0.72763,-0.5935 l 0.0294,-0.0439 -2.56357,-1.71547 -0.0469,0.0321 c 0.28094,0.188 0.31559,0.47811 -0.25355,0.91074 l -3.47656,2.70701 c -0.57502,0.44141 -0.97055,0.44366 -1.25149,0.25566 l -0.0294,0.0439 z m 2.94386,-3.01264 -0.51891,1.87714 -1.01841,-0.68149 z m 1.08626,5.59818 3.90844,2.00892 1.18648,-1.75377 -0.0376,-0.0193 c -0.51954,0.40997 -0.95787,0.31533 -1.72828,-0.0807 l -0.65767,-0.33804 1.77711,-3.45747 c 0.29379,-0.50225 0.6062,-0.55547 0.88806,-0.41059 l 0.0241,-0.047 -2.57431,-1.32318 -0.0241,0.047 c 0.30065,0.15453 0.43412,0.47256 0.12506,1.07386 l -1.99926,3.88965 c -0.25111,0.48855 -0.56326,0.51815 -0.86391,0.36362 z m 4.61957,2.34107 4.07845,1.63642 1.0181,-1.85658 -0.0392,-0.0157 c -0.47913,0.45655 -0.92436,0.40312 -1.72829,0.0806 l -0.68627,-0.27536 1.4476,-3.60786 c 0.24577,-0.52741 0.55187,-0.60948 0.84599,-0.49147 l 0.0197,-0.049 -2.68629,-1.07783 -0.0197,0.049 c 0.31373,0.12588 0.47622,0.4301 0.22446,1.05756 l -1.62855,4.05884 c -0.20455,0.50981 -0.51259,0.56833 -0.82632,0.44245 z m 7.05796,2.55881 0.0142,-0.0509 c -0.32557,-0.091 -0.42866,-0.3501 -0.0302,-0.95172 l 0.16263,-0.22877 1.86185,0.52018 0.0103,0.27709 c 0.0391,0.72385 -0.18341,0.89203 -0.50898,0.80107 l -0.0142,0.0509 2.747,0.76747 0.0142,-0.0509 c -0.31539,-0.0881 -0.58127,-0.39273 -0.62034,-1.11658 l -0.20717,-4.40131 c -0.0419,-0.71367 0.18057,-0.88185 0.50614,-0.79089 l 0.0142,-0.0509 -2.97083,-0.83001 -0.0346,0.0452 c 0.32557,0.091 0.44901,0.35578 0.0433,0.94438 l -2.45844,3.65657 c -0.40859,0.59878 -0.78368,0.72432 -1.10925,0.63336 l -0.0142,0.0509 z m 1.85697,-3.78074 0.0927,1.94533 -1.18019,-0.32973 z m 5.92778,4.30604 c -0.91906,-0.13963 -1.62076,-0.86597 -1.42558,-2.15057 0.19677,-1.29503 1.04076,-1.78653 2.00159,-1.64054 0.52219,0.0793 0.93703,0.30264 1.10557,0.67017 0.079,0.18297 -0.0185,0.40321 -0.25053,0.45344 l -0.0763,0.01 0.002,0.0538 2.10544,-0.21435 -0.004,-0.0434 c -0.13009,0.0123 -0.25025,-0.25172 -0.3679,-0.46192 -0.39975,-0.74457 -1.00586,-1.46708 -2.44711,-1.68606 -1.65013,-0.25071 -3.48075,0.47553 -3.80128,2.58519 -0.32212,2.1201 1.0744,3.33667 2.94385,3.62071 2.08877,0.31736 2.58497,-1.04972 3.03564,-0.99193 l 0.0168,-0.0402 -1.74475,-1.03441 -0.0168,0.0402 c 0.11581,0.0817 0.17714,0.24062 0.15493,0.38683 -0.0587,0.38642 -0.66804,0.52891 -1.232,0.44322 z m 5.24634,1.61572 10e-4,-0.0528 c -0.33793,-0.009 -0.5013,-0.23457 -0.2622,-0.91539 l 0.10171,-0.26161 1.93254,0.0488 0.0778,0.26614 c 0.215,0.69229 0.0404,0.90979 -0.2975,0.90126 l -0.001,0.0528 2.85129,0.072 0.001,-0.0528 c -0.32737,-0.008 -0.6597,-0.23857 -0.87469,-0.93085 l -1.27782,-4.21683 c -0.21526,-0.68172 -0.0407,-0.89922 0.29724,-0.89069 l 0.001,-0.0528 -3.08362,-0.0779 -0.0224,0.0523 c 0.33793,0.009 0.52241,0.2351 0.27302,0.9051 l -1.48899,4.14696 c -0.24966,0.68056 -0.58263,0.89406 -0.92056,0.88553 l -0.001,0.0528 z m 0.87543,-4.12019 0.56584,1.86353 -1.225,-0.0309 z m 6.74289,3.89298 -0.006,-0.0525 c -0.33612,0.036 -0.6167,-0.10399 -0.67515,-0.65018 l -0.23116,-2.25943 c 0.85293,0.82239 2.12865,1.52517 2.22198,2.0995 0.0435,0.50531 -0.19178,0.68984 -0.51739,0.72468 l 0.006,0.0525 2.815,-0.30124 -0.006,-0.0525 c -0.33612,0.036 -0.6167,-0.10399 -0.67515,-0.65018 l -0.45372,-4.33916 c -0.0731,-0.68275 0.16593,-0.93143 0.50205,-0.9674 l -0.006,-0.0525 -2.815,0.30124 0.006,0.0525 c 0.33612,-0.036 0.61181,0.15764 0.68487,0.84038 l 0.25404,2.37384 c -0.8417,-0.71735 -2.15381,-1.36312 -2.23924,-2.1614 -0.0731,-0.68274 0.16593,-0.93142 0.50205,-0.96739 l -0.006,-0.0525 -2.815,0.30124 0.006,0.0525 c 0.32561,-0.0348 0.61181,0.15763 0.68487,0.84038 l 0.45372,4.33916 c 0.0584,0.54619 -0.18616,0.74235 -0.52228,0.77832 l 0.006,0.0525 z m 7.12075,-6.09362 c 0.4836,-0.11245 0.98633,-0.14258 1.16673,0.26014 l 0.0514,-0.012 -0.58091,-1.75205 -4.97998,1.15793 0.012,0.0514 c 0.32926,-0.0766 0.62644,0.0821 0.77955,0.74061 l 0.9474,4.07453 c 0.15551,0.6688 -0.0412,0.94229 -0.37045,1.01885 l 0.012,0.0514 5.03143,-1.16989 -0.21719,-2.05352 -0.0514,0.012 c -0.12086,0.64629 -0.52669,0.85996 -1.37041,1.05614 l -1.47136,0.34211 -0.25359,-1.09066 1.51251,-0.35168 c 0.59678,-0.13876 0.82433,0.0469 0.99038,0.38791 l 0.0515,-0.012 -0.71321,-2.2744 -0.0515,0.012 c 0.0766,0.32925 -0.0797,0.63673 -0.74851,0.79223 l -1.30673,0.30384 -0.26077,-1.12153 z m 6.23173,-1.01268 -0.17392,-2.3255 -0.0498,0.0176 c -0.37046,0.37781 -0.92499,0.20445 -2.39866,0.72657 -1.53341,0.54329 -2.4353,1.4456 -1.98373,2.72012 0.43745,1.2347 1.78151,1.10592 2.73638,0.89088 0.8219,-0.17912 1.38946,-0.38021 1.58349,0.16744 0.0952,0.26884 0.0295,0.68437 -0.79691,0.97718 -0.91606,0.32457 -2.09899,-0.0408 -2.532,-0.5038 l -0.0597,0.0212 0.54507,2.51901 0.0498,-0.0176 c 0.27584,-0.61326 1.05609,-0.34056 2.76873,-0.94735 1.53341,-0.54329 2.07724,-1.47563 1.67153,-2.62071 -0.46215,-1.3044 -1.88546,-1.30443 -2.95629,-1.03711 -0.75157,0.18783 -1.25484,0.25407 -1.37832,-0.0944 -0.10583,-0.29872 0.0954,-0.61656 0.72266,-0.83881 0.93598,-0.33162 1.72619,-0.0624 2.19197,0.36651 z m 3.47975,2.64831 2.60969,-1.25196 -0.0229,-0.0476 c -0.28573,0.13708 -0.65255,0.0319 -0.84902,-0.37769 l -1.73172,-3.60975 0.23811,-0.11423 c 0.781,-0.37468 1.25414,-0.41419 1.75269,0.0145 l 0.0476,-0.0228 -1.13785,-1.7857 -4.46695,2.14294 0.68068,2.00502 0.0476,-0.0229 c -0.0223,-0.65712 0.29506,-0.99685 1.07606,-1.37152 l 0.23811,-0.11423 1.73172,3.60976 c 0.23303,0.48574 0.068,0.75236 -0.23676,0.89857 z m 4.11773,-1.96251 2.4445,-1.54992 -0.0283,-0.0446 c -0.28549,0.18101 -0.616,0.15291 -0.93843,-0.35561 l -0.70143,-1.10628 0.36579,-0.23192 c 0.87431,-0.55435 1.55056,-0.39524 2.03138,0.36309 0.25455,0.40147 0.38465,0.60666 0.0992,0.78768 l 0.0283,0.0446 2.28392,-1.44811 -0.0283,-0.0446 c -0.41932,0.26586 -0.7881,-0.13823 -1.0283,-0.3987 -0.49976,-0.57121 -1.11834,-0.81691 -1.96847,-0.67815 0.60211,-0.56939 0.84717,-1.28763 0.33241,-2.09949 -0.71274,-1.12412 -1.90056,-1.08395 -3.11389,-0.31465 l -3.04225,1.92892 0.0283,0.0446 c 0.28549,-0.18102 0.62732,-0.13508 0.98935,0.4359 l 2.34185,3.69352 c 0.29414,0.46392 0.16161,0.74808 -0.12388,0.9291 z m 1.55117,-5.66154 c 0.26586,0.41931 0.0278,0.83293 -0.59672,1.2289 l -0.74375,0.48408 -0.80325,-1.26686 0.72265,-0.45819 c 0.62124,-0.38139 1.15521,-0.40724 1.42107,0.0121 z m 7.69944,-4.86776 c -1.45831,-1.74117 -3.17258,-1.4353 -4.6222,-0.22118 -1.44963,1.21413 -2.05962,2.85493 -0.60131,4.5961 1.4583,1.74117 3.17389,1.42042 4.62352,0.20629 1.44962,-1.21412 2.05829,-2.84004 0.59999,-4.58121 z m -1.33625,1.11916 c 0.83429,0.99612 0.73369,1.87958 -0.0438,2.53073 -0.77745,0.65115 -1.66486,0.59519 -2.49915,-0.40092 -0.83428,-0.99611 -0.74046,-1.88767 0.037,-2.53882 0.77746,-0.65115 1.67165,-0.5871 2.50594,0.40901 z"
         id="text3-8"
         style="font-size:10.5637px;line-height:1;font-family:'Silvano Western Demo';-inkscape-font-specification:'Silvano Western Demo';text-align:center;letter-spacing:0px;word-spacing:1.11799px;text-anchor:middle;fill:#ffffff;fill-opacity:0.988235;stroke-width:17.5674"
         aria-label="pallacanestro" /></g></g></svg>
