<?xml version="1.0" encoding="UTF-8" standalone="no"?>
<!-- Created with Inkscape (http://www.inkscape.org/) -->

<svg
   width="105.83334mm"
   height="105.83334mm"
   viewBox="0 0 105.83333 105.83333"
   version="1.1"
   id="svg1"
   xml:space="preserve"
   inkscape:version="1.4.2 (ebf0e940d0, 2025-05-08)"
   sodipodi:docname="mediterrania.svg"
   inkscape:export-filename="../png/radnicki.png"
   inkscape:export-xdpi="61.619202"
   inkscape:export-ydpi="61.619202"
   xmlns:inkscape="http://www.inkscape.org/namespaces/inkscape"
   xmlns:sodipodi="http://sodipodi.sourceforge.net/DTD/sodipodi-0.dtd"
   xmlns="http://www.w3.org/2000/svg"
   xmlns:svg="http://www.w3.org/2000/svg"><sodipodi:namedview
     id="namedview1"
     pagecolor="#ffffff"
     bordercolor="#000000"
     borderopacity="0.25"
     inkscape:showpageshadow="2"
     inkscape:pageopacity="0.0"
     inkscape:pagecheckerboard="0"
     inkscape:deskcolor="#d1d1d1"
     inkscape:document-units="mm"
     inkscape:zoom="1.1633085"
     inkscape:cx="70.488612"
     inkscape:cy="115.18871"
     inkscape:window-width="1920"
     inkscape:window-height="1011"
     inkscape:window-x="0"
     inkscape:window-y="32"
     inkscape:window-maximized="1"
     inkscape:current-layer="layer1"
     showgrid="false"
     showguides="false" /><defs
     id="defs1" /><g
     inkscape:label="Capa 1"
     inkscape:groupmode="layer"
     id="layer1"><g
       id="g406"
       transform="translate(-1.7399543,-1.2761475)"><g
         id="g405"
         transform="matrix(1.025808,0,0,1.025808,-0.02731606,-1.3986103)"><path
           style="fill:#ff0000;stroke-width:4.79801"
           d="m 12.05434,23.88124 81.878539,-0.45488 c 0,0 1.592083,4.321367 1.819524,5.231129 0.227438,0.909762 -0.909762,40.256949 -0.909762,40.256949 0,0 -3.639047,5.003686 -4.548809,6.36833 C 89.38407,76.647409 52.311289,100.75609 52.311289,100.75609 L 13.873863,73.918124 10.917138,66.640032 Z"
           id="path405" /><path
           id="path97"
           style="fill:#ffd42a;stroke-width:0.921651"
           d="M 49.216162,101.28874 C 32.232812,89.497115 19.807296,80.744727 15.574641,77.592053 12.996027,75.671379 11.254798,73.380907 10.156825,70.465292 L 9.4221771,68.514461 9.3332365,36.407075 9.2442959,4.2996924 H 53.308172 97.372034 l -0.0018,30.8068306 c -0.0018,29.78136 -0.02415,30.898014 -0.658935,33.546056 -0.750184,3.129421 -2.000376,5.513133 -3.789531,7.225462 -1.635673,1.565424 -14.60265,10.849935 -30.580866,21.896271 -1.29538,0.89554 -3.871792,2.682028 -5.725353,3.969948 l -3.370109,2.34169 z m 15.724365,-9.277924 c 2.817072,-1.951864 5.335255,-3.762162 5.595962,-4.022869 0.40843,-0.408429 0.474521,-4.667583 0.477645,-30.782589 0.0018,-16.669714 -0.08249,-30.637773 -0.187813,-31.040131 -0.189538,-0.724248 -0.249584,-0.731561 -6.006024,-0.731561 h -5.814559 v 35.296667 c 0,28.145201 0.0823,35.249329 0.406421,35.062999 0.223537,-0.12851 2.711295,-1.830643 5.528368,-3.782516 z m -17.622588,3.246248 c -0.0095,-0.134119 -0.01714,-15.90262 -0.01714,-35.041123 V 25.418579 l -5.771204,0.08878 -5.771196,0.08879 v 31.212168 31.21217 l 4.950199,3.415031 c 2.722612,1.878269 5.133717,3.602199 5.35801,3.830953 0.420651,0.429011 1.281785,0.422481 1.251361,-0.0095 z M 24.136559,52.501407 24.053426,25.596234 h -5.689915 -5.689914 l -0.08719,20.321128 c -0.05446,12.699846 0.03512,20.897758 0.238938,21.858625 0.495102,2.333972 1.640612,4.505852 3.092232,5.862827 1.701469,1.590539 7.366849,5.712792 7.893896,5.743777 0.325177,0.01908 0.39137,-5.453512 0.32514,-26.881184 z m 62.878224,23.886205 c 4.331097,-3.214868 4.547011,-3.436766 5.612993,-5.768571 1.403869,-3.070905 1.513647,-5.057201 1.419048,-25.677091 l -0.08875,-19.345716 -5.771195,-0.08879 -5.771205,-0.08878 v 27.028738 c 0,22.988647 0.06783,27.002733 0.453599,26.854688 0.249473,-0.09574 2.11496,-1.407251 4.145504,-2.914482 z" /></g><text
         xml:space="preserve"
         style="font-size:9.43974px;line-height:1;font-family:'Lifestyle Rounded M54';-inkscape-font-specification:'Lifestyle Rounded M54';text-align:end;letter-spacing:1.57328px;word-spacing:0.999041px;writing-mode:lr-tb;direction:ltr;text-anchor:end;fill:#0045ff;fill-opacity:1;stroke-width:14.2652"
         x="55.136478"
         y="13.161639"
         id="text405"><tspan
           sodipodi:role="line"
           id="tspan405"
           x="55.136478"
           y="13.161639"
           style="font-style:normal;font-variant:normal;font-weight:normal;font-stretch:normal;font-family:'Tilt Warp';-inkscape-font-specification:'Tilt Warp';text-align:center;letter-spacing:1.57328px;text-anchor:middle;fill:#0045ff;fill-opacity:1;stroke-width:14.2652">MEDITERRANIA</tspan><tspan
           sodipodi:role="line"
           x="55.923119"
           y="22.683643"
           style="font-style:normal;font-variant:normal;font-weight:normal;font-stretch:normal;font-family:'Tilt Warp';-inkscape-font-specification:'Tilt Warp';text-align:center;letter-spacing:1.57328px;text-anchor:middle;fill:#0045ff;fill-opacity:1;stroke-width:14.2652"
           id="tspan406">BASKET</tspan></text><circle
         style="fill:#ff6600;fill-opacity:1;stroke:none;stroke-width:1.7815;stroke-dasharray:none;stroke-opacity:1"
         id="path33"
         cx="-56.766937"
         cy="54.656628"
         r="18.626026"
         transform="rotate(-90)" /><path
         style="fill:#ffffff;fill-opacity:1;stroke-width:3.10894"
         d="m 74.29711,60.864162 c -1.416225,6.306231 -5.104032,11.033035 -10.794936,13.836233 -3.281084,1.616215 -5.159251,2.053611 -8.817986,2.053611 -4.341109,0 -7.963699,-1.119564 -11.503875,-3.555256 -7.067065,-4.862293 -10.230536,-14.341939 -7.502373,-22.481604 1.130639,-3.373326 2.424467,-5.434111 5.032362,-8.015405 2.587094,-2.560739 4.320774,-3.665251 7.587766,-4.834183 2.218199,-0.79365 2.517074,-1.101108 6.441426,-1.087241 3.697735,0.01244 4.221936,0.356735 6.130446,0.993665 2.783895,0.928985 5.057654,2.303163 7.36184,4.44914 2.557397,2.381817 4.250638,4.979896 5.366622,8.234425 0.785422,2.290479 0.917553,3.043776 0.994363,5.668591 0.05862,2.002216 -0.04146,3.606338 -0.295655,4.738024 z M 72.170467,51.560787 C 70.46224,48.504451 65.598913,45.134736 61.799313,44.374813 l -0.819656,-0.163839 0.636351,1.680229 c 0.34999,0.924131 1.586134,3.346273 2.746988,5.382537 4.442087,7.791932 5.576251,10.651625 5.636941,14.213066 0.03216,1.888433 0.06423,1.877587 1.2557,-0.424739 2.138923,-4.133149 2.572699,-10.534917 0.91483,-13.501188 z m -3.766159,-7.148104 c -1.999689,-2.28 -5.08578,-4.256108 -6.20724,-3.974621 -0.633492,0.158868 -1.35074,1.479513 -1.124226,2.069805 0.07219,0.188097 0.766769,0.502065 1.543516,0.697681 1.880474,0.473584 4.922652,1.925364 6.404019,3.056112 0.659201,0.503185 1.264816,0.914869 1.34581,0.91487 0.208267,-3e-6 -0.869595,-1.518437 -1.961879,-2.763847 z M 68.272365,62.575104 C 67.634736,60.220608 66.574914,57.95783 63.854431,53.142489 61.079956,48.231613 59.70479,45.337468 59.692564,44.38355 c -0.0059,-0.47237 -0.214145,-0.580466 -1.389046,-0.721578 -0.760059,-0.09141 -1.707662,-0.166954 -2.105787,-0.168195 l -0.723868,-0.0025 V 59.416418 75.34142 l 0.671905,-10e-7 c 1.210391,0 4.42792,-0.838656 6.089637,-1.587293 3.200335,-1.441826 5.318843,-3.245765 5.970314,-5.083795 0.494115,-1.394076 0.526932,-4.395606 0.06666,-6.095228 z M 59.027381,38.804534 C 58.303519,38.650635 57.20785,38.456301 56.592564,38.372699 l -1.118701,-0.152024 v 1.977282 1.977287 h 0.884548 c 0.486499,-10e-7 1.418303,0.07307 2.070682,0.162594 l 1.186138,0.162602 0.175132,-0.933457 c 0.09632,-0.513411 0.398353,-1.208446 0.671199,-1.544492 0.580561,-0.715115 0.463589,-0.814449 -1.43417,-1.217956 z m -5.85672,4.689148 c -0.398124,0.0012 -1.335414,0.07586 -2.082862,0.165394 -1.292013,0.155136 -1.367235,0.207058 -1.526122,1.054118 -0.257544,1.372815 -1.506526,3.979287 -3.982158,8.310221 -3.854092,6.742452 -4.846167,9.319169 -4.846168,12.587004 10e-7,3.198077 0.974691,4.884553 3.914945,6.773884 0.777875,0.499852 2.021606,1.176518 2.763846,1.503695 1.446041,0.637425 4.707948,1.453282 5.81048,1.453284 l 0.671899,10e-7 1e-6,-15.925016 V 43.491228 Z m -0.394836,-5.114956 c -0.615284,0.08704 -1.809358,0.325232 -2.653494,0.529584 -0.844137,0.204257 -1.59252,0.371518 -1.663072,0.371518 -0.07055,0 0.117642,0.345369 0.418247,0.767502 0.300603,0.422161 0.62212,1.145553 0.714524,1.607536 0.159552,0.797756 0.21573,0.832114 1.116547,0.683099 0.5217,-0.08642 1.451965,-0.158247 2.067249,-0.159798 l 1.118697,-0.0031 -10e-7,-1.977286 v -1.977283 z m -7.248949,6.686464 c -4.647784,1.792394 -8.142805,4.963167 -9.006599,8.171066 -0.81862,3.040072 -0.08743,8.573578 1.552047,11.74563 1.235966,2.391363 1.263787,2.402462 1.29592,0.516892 0.05876,-3.448746 1.234297,-6.492924 5.194882,-13.452749 2.752526,-4.836951 3.973839,-7.588885 3.423088,-7.713118 -0.194498,-0.04383 -1.301194,0.285711 -2.459338,0.732279 z m 2.550431,-3.641874 c -0.573474,-1.645064 -2.368402,-1.236424 -5.297686,1.206111 -1.610546,1.342938 -4.730547,5.107491 -3.691417,4.454025 0.108595,-0.06839 0.980812,-0.650485 1.938288,-1.29376 1.545174,-1.038166 5.752536,-2.824746 6.65217,-2.824746 0.725473,0 0.815161,-0.346835 0.398645,-1.54163 z"
         id="path5"
         sodipodi:nodetypes="sssssssccssssssccssssssscsssssssccscccssssssscccsccssscccssssssccccccssscscccscsssssssscss" /></g></g></svg>
