<?xml version="1.0" encoding="UTF-8" standalone="no"?>
<!-- Created with Inkscape (http://www.inkscape.org/) -->

<svg
   width="105.83334mm"
   height="105.83334mm"
   viewBox="0 0 105.83333 105.83333"
   version="1.1"
   id="svg1"
   xml:space="preserve"
   inkscape:version="1.4.3 (0d15f75042, 2025-12-25)"
   sodipodi:docname="montecarlo.svg"
   inkscape:export-filename="../pngs/austin.png"
   inkscape:export-xdpi="62.082352"
   inkscape:export-ydpi="62.082352"
   xmlns:inkscape="http://www.inkscape.org/namespaces/inkscape"
   xmlns:sodipodi="http://sodipodi.sourceforge.net/DTD/sodipodi-0.dtd"
   xmlns="http://www.w3.org/2000/svg"
   xmlns:svg="http://www.w3.org/2000/svg"><sodipodi:namedview
     id="namedview1"
     pagecolor="#ffffff"
     bordercolor="#000000"
     borderopacity="0.25"
     inkscape:showpageshadow="2"
     inkscape:pageopacity="0.0"
     inkscape:pagecheckerboard="0"
     inkscape:deskcolor="#d1d1d1"
     inkscape:document-units="mm"
     inkscape:zoom="0.99727873"
     inkscape:cx="216.5894"
     inkscape:cy="235.64124"
     inkscape:window-width="1920"
     inkscape:window-height="1011"
     inkscape:window-x="0"
     inkscape:window-y="0"
     inkscape:window-maximized="1"
     inkscape:current-layer="layer1"
     showgrid="false"
     showguides="true" /><defs
     id="defs1" /><g
     inkscape:label="Capa 1"
     inkscape:groupmode="layer"
     id="layer1"><g
       id="g8"
       transform="matrix(1.0265957,0,0,1.0265957,0.77153376,-11.360596)"><circle
         style="fill:#ffffff;fill-opacity:1;stroke-width:0.511033"
         id="path7-6"
         cx="50.794228"
         cy="62.612053"
         r="49.877392" /><circle
         style="fill:#c42c36;fill-opacity:1;stroke-width:0.472219"
         id="path7"
         cx="50.794228"
         cy="62.612053"
         r="46.089233" /><g
         id="g7"
         transform="matrix(0.35292686,0,0,0.35292686,33.991183,-17.764527)"><path
           style="fill:#ffffff;stroke-width:3.04957"
           d="m 12.149895,185.45159 v -3.6309 h 35.905451 35.905455 v 3.6309 z M 7.497461,177.58466 C 7.04882,177.02994 3.7344246,170.6759 0.13213557,163.46453 -5.6293773,151.93068 -6.6526979,150.35299 -8.3722595,150.35299 c -3.6879945,0 -5.7095755,-3.82675 -3.4820515,-6.59137 2.7390867,-3.39953 7.3705059,-1.33827 7.2408324,3.2226 -0.066057,2.3227 0.395007,2.80493 5.30958557,5.55332 6.54976403,3.66283 16.63343503,6.69361 22.23615003,6.68339 10.365097,-0.0183 19.437199,-10.85135 23.146736,-27.63805 0.971592,-4.3967 0.932538,-4.75116 -0.71692,-6.50692 -2.241311,-2.38576 -2.222154,-4.95773 0.04879,-6.54835 2.264616,-1.58621 3.412091,-1.58346 5.00745,0.0122 1.874775,1.87478 1.604361,5.57366 -0.51011,6.97762 l -1.778039,1.18054 1.772507,6.62257 c 3.195427,11.93895 9.367493,21.54228 15.81015,24.59952 5.878818,2.78968 18.502724,0.42941 28.949122,-5.41255 4.972131,-2.78056 5.436127,-3.26395 5.436127,-5.66319 0,-3.22349 1.2346,-4.55965 4.213,-4.55965 2.96701,0 4.56986,3.03529 3.1956,6.05147 -0.67356,1.4783 -1.5457,2.01716 -3.26474,2.01716 -2.22766,0 -2.70545,0.71003 -9.497966,14.11452 l -7.152289,14.11451 -39.639252,0.006 c -30.743986,0.003 -39.822309,-0.22079 -40.454966,-1.00297 z m 14.120218,-19.64655 c -0.325755,-0.32575 -0.592281,-3.79958 -0.592281,-7.71958 0,-5.74803 -0.230608,-7.12732 -1.191693,-7.12732 -1.680933,0 -3.87834,-3.65588 -3.297462,-5.48608 0.267234,-0.84195 1.403282,-1.94879 2.524586,-2.45972 1.77943,-0.81075 2.299795,-0.66781 4.091367,1.12374 1.345406,1.3454 1.868038,2.52677 1.516865,3.42878 -0.29468,0.75687 -0.599639,1.60974 -0.677705,1.89531 -0.07806,0.28543 2.165517,2.91973 4.985738,5.85379 2.872915,2.98887 4.945579,5.80918 4.713562,6.41381 -0.828039,2.15784 -10.668948,5.48128 -12.072977,4.07727 z m 46.765131,-0.40129 c -3.135989,-0.73791 -6.943216,-3.02971 -6.988853,-4.20706 -0.01403,-0.35979 2.355536,-2.97717 5.265517,-5.81641 4.421832,-4.31431 5.159321,-5.40803 4.489971,-6.65872 -1.288867,-2.40827 0.647033,-5.37968 3.698922,-5.67746 1.937862,-0.18908 2.773413,0.16802 3.479384,1.48717 1.341324,2.50628 0.337468,5.50082 -2.044448,6.09865 -1.957221,0.49122 -2.004876,0.68328 -2.004876,8.08091 0,8.41653 0.24546,8.13786 -5.895617,6.69292 z"
           id="path5"
           sodipodi:nodetypes="cccccccssssscssscscssssssssccccssssssssssssssssssss" /><path
           style="fill:#ffffff;stroke-width:0.788643"
           d="M 27.080672,279.11886 C 14.187104,266.22479 6.696475,258.58714 6.769543,258.40907 c 0.166333,-0.40536 5.572135,-6.85495 5.745558,-6.85495 0.07972,0 4.727183,4.57751 10.327694,10.17226 8.688341,8.67941 10.124295,10.03447 9.784508,9.2333 -0.21903,-0.51645 -3.142223,-7.11809 -6.495991,-14.67033 -3.35377,-7.55223 -6.052546,-13.84339 -5.997278,-13.98034 0.150718,-0.37347 6.227017,-7.6565 6.3879,-7.6565 0.0765,0 1.089416,2.13618 2.250946,4.74706 2.565425,5.76653 8.891826,19.93833 13.20375,29.57781 1.745433,3.90198 3.697088,8.29398 4.337025,9.76001 0.639937,1.46603 1.232026,2.5928 1.315757,2.50394 0.08373,-0.0889 2.780101,-6.07712 5.99193,-13.30725 3.21182,-7.23013 8.385021,-18.86616 11.49599,-25.85783 4.887009,-10.98318 5.617837,-12.75689 5.373452,-13.04135 -0.155567,-0.18109 -4.069635,-4.8833 -8.697939,-10.44935 -4.628295,-5.56606 -9.725896,-11.68928 -11.328,-13.60714 l -2.912918,-3.48705 -1.169526,1.42047 c -0.643233,0.78125 -4.930479,5.91855 -9.527205,11.41619 -9.86868,11.80288 -15.41188,18.46795 -16.994735,20.43423 -0.631198,0.7841 -1.437318,1.76094 -1.791371,2.17075 -0.354054,0.40981 -3.769762,4.50103 -7.590463,9.09159 -3.820701,4.59055 -7.0772298,8.48553 -7.2367329,8.65548 -0.2520582,0.2686 -2.46011753,-1.86096 -16.8751451,-16.27512 -9.121826,-9.12129 -16.585136,-16.67688 -16.585136,-16.79018 0,-0.11333 7.15891,-7.36716 15.908694,-16.11963 L 1.5990004,189.58155 h 45.9119966 45.91199 l 1.716857,1.72582 c 0.94427,0.9492 1.71685,1.84707 1.71685,1.99527 0,0.36895 -1.80016,4.46637 -10.695251,24.34393 -0.924417,2.06575 -6.731568,15.11219 -12.904784,28.99209 L 62.032625,271.87484 74.01945,259.88937 c 6.592751,-6.59201 11.984043,-12.03272 11.980636,-12.09048 -0.0031,-0.0578 -0.902515,-1.18484 -1.998029,-2.50463 -1.095511,-1.31978 -2.22018,-2.69105 -2.499257,-3.04726 l -0.507422,-0.64766 1.997761,-4.46456 c 1.098769,-2.45551 2.072579,-4.54096 2.164022,-4.63435 0.09144,-0.0934 1.745338,1.73762 3.675328,4.0689 1.929997,2.33128 3.588152,4.33006 3.684819,4.44174 0.10543,0.12178 4.098066,-3.71863 9.977952,-9.59752 l 9.8022,-9.80055 -7.7578,-7.75986 -7.757796,-7.75989 1.27655,-2.88281 c 0.70211,-1.58555 1.6166,-3.62807 2.032206,-4.53893 l 0.75565,-1.65613 12.29662,12.29529 12.29662,12.2953 -38.86134,38.91379 c -21.37374,21.40259 -38.908427,38.93922 -38.965974,38.9703 -0.05757,0.0311 -9.296732,-9.13597 -20.531524,-20.3712 z M 7.92209,234.55034 c 3.008422,-3.61389 5.469856,-6.64744 5.469856,-6.74125 0,-0.0938 -0.712594,-1.76146 -1.58354,-3.7059 C 7.247784,213.92128 4.8609,208.58445 3.6479271,205.85717 2.9078248,204.1931 2.2351989,202.76231 2.1532036,202.67764 c -0.1031308,-0.10649 -16.8823366,16.44152 -19.2167766,18.95199 -0.09784,0.10521 19.2005306,19.4914 19.4031173,19.4914 0.061987,0 2.5741237,-2.95682 5.5825457,-6.57069 z m 20.912895,-25.14591 8.606749,-10.32877 -13.205746,-0.0537 c -7.263159,-0.0295 -13.241691,-0.0178 -13.285618,0.0261 -0.06491,0.0649 8.710974,20.06781 9.058333,20.64683 0.05623,0.0937 0.128612,0.14065 0.160875,0.10433 0.03225,-0.0364 3.931703,-4.71399 8.665407,-10.39481 z m 48.772651,-10.38382 c -3.643761,-0.0303 -9.626093,-0.0303 -13.294082,0 l -6.669059,0.0551 8.675896,10.40843 8.675897,10.40844 4.618184,-10.40844 4.618177,-10.40843 z"
           id="path4"
           sodipodi:nodetypes="ssssssssssssssssscssssssssscccsssscscsscssssscccsscccsssssssssssccssssscsscccccs" /></g><path
         style="fill:#000000;stroke:#ffffff;stroke-width:2.46296;stroke-dasharray:none"
         d="m 9.0410404,104.01567 c -0.6033372,-0.15444 -1.8324376,-0.97109 -1.8324376,-1.21751 0,-0.15532 3.4069552,-3.888608 3.6538752,-4.003869 0.0809,-0.03776 0.413507,0.169749 0.739131,0.461141 0.35305,0.315928 0.77387,0.522401 1.042466,0.511464 1.627482,-0.0662 2.733954,-0.608228 4.343441,-2.127563 1.014178,-0.957366 2.987257,-3.131681 2.988445,-3.293242 5.06e-4,-0.05743 0.205598,-0.350245 0.45595,-0.650703 0.25035,-0.300457 0.892091,-1.169989 1.426094,-1.932281 0.533999,-0.762292 1.026053,-1.391782 1.093451,-1.398864 0.184148,-0.01936 0.671334,0.508453 0.671334,0.727321 0,0.178274 -2.393222,4.078716 -2.630292,4.286823 -0.05901,0.05178 -0.327701,0.412683 -0.597087,0.801971 -1.230667,1.778408 -4.866649,5.850652 -5.642916,6.319982 -0.273567,0.1654 -0.534741,0.35368 -0.580382,0.41838 -0.04564,0.0647 -0.546904,0.32269 -1.113918,0.57332 -1.16866,0.51656 -3.0743852,0.76497 -4.0171546,0.52363 z M 61.914425,98.478291 c -1.131749,-0.246184 -1.815655,-1.031944 -1.815655,-2.086067 0,-0.87126 0.658237,-2.641423 1.415582,-3.806848 l 0.734248,-1.12988 -0.536064,0.01283 c -0.838376,0.01999 -2.423866,-0.276957 -3.081545,-0.577208 -0.723512,-0.330314 -1.680209,-1.190127 -2.016329,-1.812144 -0.135829,-0.251363 -0.243946,-0.881378 -0.240939,-1.404018 0.0092,-1.59373 1.07936,-2.761759 2.685123,-2.930577 0.808596,-0.08501 1.339262,0.106331 1.914889,0.690446 0.373925,0.379441 0.488326,0.82677 0.421521,1.64825 -0.06474,0.796076 -0.542084,1.050131 -0.791203,0.421088 -0.370599,-0.935786 -1.555575,-1.013017 -2.092939,-0.136403 -0.677235,1.104786 0.369022,2.192589 2.831156,2.94357 0.18238,0.0556 0.647679,0.11174 1.034,0.124685 0.639999,0.02143 0.765203,-0.0384 1.4093,-0.674123 0.388794,-0.383711 0.744204,-0.742839 0.7898,-0.798044 0.04559,-0.05521 0.38134,-0.351218 0.7461,-0.657801 0.364761,-0.306576 0.700504,-0.59976 0.746101,-0.651524 0.211133,-0.239684 1.503651,-1.152272 1.654441,-1.168125 0.09315,-0.0098 0.169938,-0.07385 0.170651,-0.14229 8.77e-4,-0.06851 0.168581,-0.222693 0.37305,-0.34271 0.204464,-0.120025 0.856721,-0.528647 1.449456,-0.908056 1.418141,-0.907745 3.218545,-1.807668 3.722455,-1.860642 0.221636,-0.02334 0.449083,-0.121826 0.505441,-0.218941 0.138495,-0.238648 1.792072,-0.399324 2.295114,-0.223011 0.49662,0.174068 0.866267,0.857679 0.61432,1.136118 -0.09555,0.105598 -0.173737,0.292244 -0.173737,0.414763 0,0.343458 -1.142397,1.625419 -2.155399,2.418707 -1.199532,0.939363 -3.397751,2.210259 -5.222696,3.019487 -1.173393,0.520314 -3.102419,1.17743 -3.616435,1.231926 -0.705514,0.07464 -2.103664,2.862834 -2.103664,4.194885 0,1.384358 1.581223,1.557995 3.647601,0.400536 0.685073,-0.383735 2.160465,-1.493963 2.55957,-1.926076 0.867427,-0.939163 1.587796,-1.610005 1.746809,-1.626726 0.09362,-0.0099 0.17022,-0.07775 0.17022,-0.150941 0,-0.226134 1.53712,-0.85924 2.271509,-0.935587 0.489312,-0.0509 0.745432,0.0088 0.861251,0.200427 0.1391,0.230212 0.217706,0.234897 0.503389,0.02995 0.186202,-0.133568 0.544738,-0.263376 0.796747,-0.288477 0.915168,-0.09114 0.897078,0.121101 -0.109177,1.281061 -1.110645,1.280296 -2.084563,2.733655 -1.926588,2.875022 0.05934,0.05313 0.159796,0.0137 0.223229,-0.08751 0.06343,-0.101241 0.483059,-0.473043 0.932497,-0.82622 0.848026,-0.666412 2.747537,-2.727474 2.747537,-2.981218 0,-0.295718 0.534077,-1.219005 1.106371,-1.912629 0.720251,-0.872957 1.380627,-1.046132 1.380627,-0.362067 0,0.24001 -0.155305,0.703996 -0.345119,1.031084 l -0.345126,0.594701 1.345128,-0.141414 c 1.816074,-0.190931 1.871549,-0.0064 0.474534,1.580658 -1.152658,1.309245 -1.749927,2.201026 -1.453261,2.16983 0.378132,-0.03975 2.645044,-2.04708 2.645044,-2.342161 0,-0.15263 1.145196,-2.043791 1.424608,-2.352581 0.128366,-0.14186 0.233391,-0.320516 0.233391,-0.397006 0,-0.07647 0.668991,-0.879681 1.486645,-1.784861 1.951785,-2.160694 3.635424,-3.18468 4.283197,-2.605019 0.240282,0.215029 0.266379,1.099442 0.03314,1.123961 -0.09119,0.0096 -0.165798,0.140459 -0.165798,0.290819 0,0.150368 -0.578229,0.90318 -1.28495,1.672921 -1.129781,1.230516 -1.724072,1.71683 -3.125177,2.557349 -0.516197,0.309667 -1.261519,1.913848 -1.197352,2.577098 0.05109,0.528017 0.07858,0.545463 0.697685,0.442788 0.648362,-0.107527 1.347445,-0.598167 2.339895,-1.642236 1.496584,-1.574412 2.794312,-2.423105 3.879605,-2.537211 0.903675,-0.095 1.67469,0.219713 1.67469,0.683579 0,0.323153 -0.737988,1.498734 -1.648553,2.626065 -0.213364,0.264156 -0.287767,0.466121 -0.180711,0.490553 0.216606,0.04939 1.14833,-0.715898 2.103951,-1.728214 0.675581,-0.715659 1.135114,-0.84126 0.937443,-0.256222 -0.05489,0.162437 -0.553254,0.771421 -1.107487,1.353305 -1.489789,1.564104 -2.459837,2.031404 -3.12029,1.503132 -0.288024,-0.23038 -0.33277,-0.216829 -0.759164,0.229949 -0.685021,0.71777 -1.642298,1.294309 -2.256234,1.35885 -0.5857,0.06158 -1.098351,-0.296904 -1.098351,-0.768036 0,-0.308017 -0.253538,-0.345083 -0.418312,-0.06118 -0.05846,0.100731 -0.487176,0.40694 -0.952713,0.680464 -0.915778,0.538062 -2.235312,0.78408 -2.575014,0.480093 -0.109427,-0.09793 -0.198959,-0.543121 -0.198959,-0.989326 v -0.811276 l -0.787559,0.719984 c -1.14511,1.046866 -1.432064,1.202245 -2.410131,1.305079 -0.957969,0.100707 -1.278905,-0.05911 -1.278905,-0.637009 0,-0.450356 0.330279,-1.252861 0.524011,-1.27323 0.07655,-0.008 0.140798,-0.108061 0.14277,-0.222255 0.0021,-0.114202 0.274519,-0.459946 0.605666,-0.76833 0.331146,-0.308384 0.870459,-0.829375 1.198468,-1.157761 l 0.596382,-0.59706 -0.832114,0.08298 -0.832114,0.08299 -1.571987,1.836736 c -2.006471,2.3444 -3.38189,3.494992 -4.285185,3.584706 -0.53373,0.05305 -0.742371,-0.05521 -1.001076,-0.519135 -0.196449,-0.352309 -0.205432,-0.352404 -0.646568,-0.0072 -1.500886,1.175716 -2.851449,1.218415 -2.851449,0.09017 v -0.437642 l -0.45595,0.360801 c -0.845423,0.668993 -2.41569,1.508023 -3.42869,1.832028 -1.198869,0.383464 -1.799317,0.447312 -2.589704,0.275388 z m 10.182846,-4.080508 c 0.757569,-0.396186 2.677435,-2.411546 2.52171,-2.647151 -0.178852,-0.270585 -0.784296,-0.1372 -1.422017,0.313275 -0.867763,0.612983 -1.823799,1.797463 -1.823799,2.2596 0,0.473378 -0.03265,0.470024 0.724106,0.07424 z m 17.845486,-2.241716 c 0,-0.138443 0.267488,-0.644227 0.594417,-1.123969 0.800792,-1.175088 0.360012,-1.121293 -0.753619,0.09198 -0.559149,0.609176 -0.835596,1.046778 -0.835596,1.322723 0,0.386189 0.03155,0.398035 0.497395,0.186678 0.273572,-0.124128 0.497403,-0.338957 0.497403,-0.4774 z m -1.180249,-5.33779 c 0.871475,-1.069386 1.084457,-1.574365 0.558503,-1.32415 -0.425621,0.202475 -2.229665,2.164964 -2.865429,3.117096 l -0.54956,0.823026 1.00392,-0.787298 c 0.552157,-0.433005 1.385812,-1.255912 1.852566,-1.828674 z m -21.157246,2.71664 c 0.344182,-0.08933 0.66568,-0.231153 0.714432,-0.315163 0.04875,-0.08401 0.214808,-0.165791 0.36901,-0.181723 0.520165,-0.05369 3.364768,-1.545312 4.396373,-2.305207 0.563084,-0.414771 1.135505,-0.8178 1.272049,-0.895612 0.326662,-0.186152 0.876041,-0.799271 1.222265,-1.364076 0.253404,-0.413377 0.254677,-0.47004 0.01449,-0.644123 -0.209082,-0.151539 -0.374569,-0.138969 -0.803055,0.06102 -0.296841,0.138547 -0.625808,0.260954 -0.731034,0.272019 -0.178186,0.01872 -1.910725,0.950252 -2.85243,1.533642 -1.551384,0.961094 -3.219517,2.303693 -4.227897,3.40284 -0.691066,0.753274 -0.760031,0.878262 -0.414501,0.751211 0.227977,-0.08382 0.696106,-0.225497 1.040292,-0.314828 z M 24.540217,101.71476 c -0.419549,-0.37544 -0.585826,-0.67067 -0.585826,-1.04016 0,-0.56653 1.077123,-3.068063 1.332631,-3.094925 0.08776,-0.0092 0.159569,-0.09465 0.159569,-0.18984 0,-0.300752 1.611443,-2.318908 4.004075,-5.014645 1.272042,-1.433189 2.23889,-2.598024 2.148548,-2.588529 -0.09034,0.0095 -0.210367,0.09673 -0.266726,0.193839 -0.05636,0.09712 -0.241071,0.191147 -0.410468,0.208959 -0.169399,0.01776 -0.332869,0.09095 -0.363266,0.162541 -0.06667,0.157011 -1.265273,0.988027 -1.671816,1.159099 -0.159582,0.06715 -0.29015,0.188 -0.29015,0.268553 0,0.08055 -0.08107,0.154989 -0.180153,0.165401 -0.178725,0.0188 -2.206479,1.60176 -2.935185,2.291361 -0.226394,0.21424 -0.479665,0.758453 -0.627439,1.348199 -0.639199,2.550945 -2.391881,5.110177 -4.42791,6.465547 -1.195066,0.79555 -2.108907,0.53367 -2.108907,-0.60435 0,-1.19165 2.285897,-4.320872 5.098348,-6.979255 l 0.870449,-0.822763 V 92.62253 c 0,-1.645916 -0.679677,-2.486722 -2.279648,-2.82008 -0.588378,-0.12259 -0.861762,-0.09329 -1.658001,0.177716 -1.793018,0.610243 -3.349305,1.934823 -3.354899,2.855393 -0.0032,0.524042 0.188231,0.666022 1.127047,0.835947 0.817022,0.147883 0.827425,0.367659 0.04299,0.908263 -0.411558,0.283633 -0.875497,0.410461 -1.932325,0.528248 -1.313048,0.146345 -1.418662,0.13117 -1.890647,-0.271389 -0.949477,-0.809834 -0.581262,-2.41024 0.888343,-3.861082 0.285144,-0.281506 0.611707,-0.522823 0.725694,-0.536262 0.113986,-0.01354 0.207249,-0.08916 0.207249,-0.168268 0,-0.0791 0.594276,-0.402718 1.320613,-0.71914 1.083556,-0.472039 1.628302,-0.607654 3.034743,-0.755521 1.514214,-0.159186 1.815154,-0.14049 2.580322,0.160366 1.335657,0.525165 1.894175,1.361845 2.153969,3.226749 0.10511,0.754501 0.129948,0.786159 0.390554,0.497786 0.153069,-0.169367 0.326152,-0.31298 0.384628,-0.31913 0.05847,-0.0064 0.440928,-0.276575 0.849894,-0.600939 0.823719,-0.65334 3.708872,-2.453336 4.870467,-3.038606 0.410354,-0.20676 0.858674,-0.447352 0.996264,-0.534645 0.461035,-0.292499 2.811345,-1.033569 2.932932,-0.92476 0.06608,0.05911 -0.442142,0.679651 -1.129374,1.37894 -1.615888,1.644235 -3.246623,3.749715 -4.967637,6.413819 -1.362816,2.109615 -2.142982,3.572239 -2.142982,4.017584 0,0.448531 0.393867,0.556981 1.002307,0.275993 0.926164,-0.427724 1.250429,-0.689299 2.356694,-1.90103 1.217564,-1.333637 2.575833,-2.210896 3.587903,-2.317299 0.903677,-0.095 1.67469,0.219705 1.67469,0.683579 0,0.323153 -0.737989,1.498734 -1.648552,2.626065 -0.20419,0.252796 -0.285376,0.466662 -0.185781,0.489397 0.22713,0.05186 1.603589,-1.104476 2.250022,-1.890148 0.274224,-0.333286 0.869645,-0.962082 1.323157,-1.397318 0.87575,-0.840456 1.587959,-1.074747 2.239076,-0.73657 0.255228,0.132564 0.440288,0.113987 0.854121,-0.08573 0.768133,-0.370695 1.367836,-0.117715 1.438225,0.606698 0.0539,0.554712 -0.120232,0.869245 -1.284285,2.319761 -1.218166,1.517956 -5.05e-4,0.759759 1.761906,-1.097132 0.480739,-0.506492 0.875161,-0.981949 0.876491,-1.05656 0.003,-0.168435 0.785372,-1.30519 1.290535,-1.875092 0.206921,-0.233439 0.330178,-0.49409 0.273909,-0.579224 -0.139579,-0.211165 0.411765,-0.851138 0.765289,-0.8883 0.157477,-0.01657 0.64953,-0.403746 1.093452,-0.860426 0.443922,-0.456665 0.937697,-0.886659 1.097278,-0.955534 0.159583,-0.06883 0.29015,-0.181054 0.29015,-0.249307 0,-0.237685 1.29219,-0.984212 1.795138,-1.037083 0.76109,-0.08002 0.793782,0.20715 0.09898,0.8695 -1.489641,1.420093 -1.716444,1.718599 -1.680459,2.211796 0.03171,0.434575 -0.01874,0.490967 -0.531273,0.593721 -0.366361,0.07345 -0.683799,0.275253 -0.899061,0.571544 -0.183013,0.251904 -0.487747,0.632692 -0.67719,0.846192 -0.314672,0.354642 -0.898299,1.225481 -1.617267,2.413155 -0.333528,0.550951 -0.390193,1.382971 -0.09206,1.351624 0.286915,-0.03019 1.447785,-0.954658 1.447785,-1.152982 0,-0.260109 1.967442,-2.356269 2.238299,-2.38474 0.136786,-0.01434 0.248701,-0.08447 0.248701,-0.155753 0,-0.219386 1.53149,-0.772329 2.351472,-0.849003 0.953587,-0.08916 1.296126,0.136985 1.296126,0.855687 0,0.431762 -0.117039,0.648552 -0.53885,0.998112 -0.808761,0.670228 -2.097948,1.339731 -2.70205,1.403245 -0.296165,0.03115 -0.406698,0.132883 -0.406698,0.374359 0,0.281195 0.110533,0.319982 0.727146,0.255154 0.921113,-0.09684 1.997058,-0.778519 3.052337,-1.933843 0.442205,-0.484123 0.625564,-0.536429 0.754062,-0.215076 0.05963,0.149141 -0.436234,0.784366 -1.397788,1.79062 -2.377461,2.487997 -4.39372,3.445739 -5.498405,2.61179 -0.319276,-0.241022 -0.45595,-0.501952 -0.45595,-0.870464 v -0.526273 l -0.454255,0.468965 c -0.249841,0.257934 -0.548281,0.478858 -0.663201,0.490943 -0.114919,0.01211 -0.208943,0.07894 -0.208943,0.148647 0,0.183643 -1.262051,0.835001 -1.708877,0.881971 -0.562482,0.0591 -0.778123,-0.229906 -0.778123,-1.042982 v -0.726875 l -0.621749,0.556942 c -1.399619,1.253735 -2.795181,1.818305 -3.324288,1.344825 -0.602813,-0.539444 0.05039,-1.779989 2.258431,-4.289135 0.741257,-0.842344 -1.553208,0.735255 -2.458751,1.690558 -0.432038,0.455772 -0.987228,1.222932 -1.233755,1.704801 -0.57345,1.120876 -0.82323,1.330056 -1.698072,1.422016 -0.634938,0.0668 -0.714411,0.0327 -0.714411,-0.30622 0,-0.20974 0.09326,-0.4845 0.20725,-0.610578 0.165888,-0.183483 0.06578,-0.19176 -0.501631,-0.04142 -0.560171,0.148398 -0.778155,0.132378 -1.039107,-0.07632 -0.319939,-0.255911 -0.344338,-0.249347 -0.783318,0.210618 -1.116579,1.16996 -2.52874,1.69365 -3.080194,1.14227 -0.150918,-0.1509 -0.274396,-0.36533 -0.274396,-0.47651 0,-0.11683 -0.297439,0.028 -0.704651,0.34302 -1.016188,0.78622 -1.536938,1.03281 -2.364922,1.11986 -0.617705,0.0649 -0.824766,-0.006 -1.318599,-0.4472 z m 8.367369,-3.56241 c 0,-0.13845 0.267489,-0.644234 0.594421,-1.123977 0.800791,-1.175087 0.360005,-1.121292 -0.753625,0.09198 -0.559147,0.609176 -0.835596,1.046785 -0.835596,1.322731 0,0.386181 0.03159,0.398034 0.497401,0.186678 0.273569,-0.124128 0.497399,-0.338966 0.497399,-0.477409 z m 18.528139,-3.537196 c 0.504586,-0.512626 0.469399,-0.662915 -0.140206,-0.598827 -0.679952,0.07146 -2.119018,1.245356 -2.135855,1.742258 -0.0067,0.198395 1.896323,-0.75764 2.276061,-1.143431 z"
         id="path6-7" /><path
         style="fill:#000000;stroke-width:0.253913"
         d="m 9.0553177,104.01567 c -0.6033371,-0.15444 -1.8324376,-0.97109 -1.8324376,-1.21751 0,-0.15532 3.4069549,-3.888608 3.6538749,-4.003869 0.0809,-0.03776 0.413508,0.169749 0.739131,0.461141 0.353051,0.315928 0.77387,0.522401 1.042466,0.511464 1.627482,-0.0662 2.733955,-0.608228 4.343442,-2.127563 1.014177,-0.957366 2.987256,-3.131681 2.988444,-3.293242 5.06e-4,-0.05743 0.205599,-0.350245 0.45595,-0.650703 0.250351,-0.300457 0.892091,-1.169989 1.426094,-1.932281 0.533999,-0.762292 1.026053,-1.391782 1.093451,-1.398864 0.184149,-0.01936 0.671335,0.508453 0.671335,0.727321 0,0.178274 -2.393222,4.078716 -2.630293,4.286823 -0.05901,0.05178 -0.327701,0.412683 -0.597087,0.801971 -1.230667,1.778408 -4.866648,5.850652 -5.642916,6.319982 -0.273567,0.1654 -0.534741,0.35368 -0.580381,0.41838 -0.04564,0.0647 -0.546905,0.32269 -1.113918,0.57332 -1.168661,0.51656 -3.074386,0.76497 -4.0171553,0.52363 z M 61.928702,98.478291 c -1.13175,-0.246184 -1.815654,-1.031944 -1.815654,-2.086067 0,-0.87126 0.658237,-2.641423 1.415581,-3.806848 l 0.734249,-1.12988 -0.536065,0.01283 c -0.838375,0.01999 -2.423865,-0.276957 -3.081544,-0.577208 -0.723514,-0.330314 -1.68021,-1.190127 -2.016331,-1.812144 -0.135828,-0.251363 -0.243944,-0.881378 -0.240938,-1.404018 0.0092,-1.59373 1.07936,-2.761759 2.685122,-2.930577 0.808598,-0.08501 1.339264,0.106331 1.91489,0.690446 0.373925,0.379441 0.488326,0.82677 0.421522,1.64825 -0.06474,0.796076 -0.542085,1.050131 -0.791205,0.421088 -0.370599,-0.935786 -1.555574,-1.013017 -2.092937,-0.136403 -0.677235,1.104786 0.369021,2.192589 2.831155,2.94357 0.182381,0.0556 0.647679,0.11174 1.034001,0.124685 0.639998,0.02143 0.765203,-0.0384 1.4093,-0.674123 0.388794,-0.383711 0.744203,-0.742839 0.789799,-0.798044 0.04559,-0.05521 0.381339,-0.351218 0.746098,-0.657801 0.364761,-0.306576 0.700505,-0.59976 0.746101,-0.651524 0.211134,-0.239684 1.503652,-1.152272 1.654441,-1.168125 0.09315,-0.0098 0.169938,-0.07385 0.170652,-0.14229 8.76e-4,-0.06851 0.168581,-0.222693 0.373049,-0.34271 0.204465,-0.120025 0.856721,-0.528647 1.449456,-0.908056 1.418141,-0.907745 3.218545,-1.807668 3.722457,-1.860642 0.221634,-0.02334 0.449081,-0.121826 0.50544,-0.218941 0.138495,-0.238648 1.792071,-0.399324 2.295113,-0.223011 0.496621,0.174068 0.866267,0.857679 0.61432,1.136118 -0.09555,0.105598 -0.173736,0.292244 -0.173736,0.414763 0,0.343458 -1.142398,1.625419 -2.155399,2.418707 -1.199533,0.939363 -3.397752,2.210259 -5.222696,3.019487 -1.173394,0.520314 -3.10242,1.17743 -3.616436,1.231926 -0.705514,0.07464 -2.103661,2.862834 -2.103661,4.194885 0,1.384358 1.581221,1.557995 3.6476,0.400536 0.685071,-0.383735 2.160464,-1.493963 2.559568,-1.926076 0.867427,-0.939163 1.587797,-1.610005 1.746809,-1.626726 0.09362,-0.0099 0.17022,-0.07775 0.17022,-0.150941 0,-0.226134 1.53712,-0.85924 2.27151,-0.935587 0.489312,-0.0509 0.745432,0.0088 0.861251,0.200427 0.1391,0.230212 0.217705,0.234897 0.503388,0.02995 0.186203,-0.133568 0.544739,-0.263376 0.796748,-0.288477 0.915167,-0.09114 0.897078,0.121101 -0.109176,1.281061 -1.110646,1.280296 -2.084564,2.733655 -1.92659,2.875022 0.05934,0.05313 0.159797,0.0137 0.223229,-0.08751 0.06343,-0.101241 0.483059,-0.473043 0.932498,-0.82622 0.848025,-0.666412 2.747536,-2.727474 2.747536,-2.981218 0,-0.295718 0.534078,-1.219005 1.106371,-1.912629 0.720251,-0.872957 1.380628,-1.046132 1.380628,-0.362067 0,0.24001 -0.155305,0.703996 -0.34512,1.031084 l -0.345126,0.594701 1.345128,-0.141414 c 1.816075,-0.190931 1.871549,-0.0064 0.474534,1.580658 -1.152657,1.309245 -1.749926,2.201026 -1.453261,2.16983 0.378133,-0.03975 2.645044,-2.04708 2.645044,-2.342161 0,-0.15263 1.145196,-2.043791 1.424609,-2.352581 0.128366,-0.14186 0.23339,-0.320516 0.23339,-0.397006 0,-0.07647 0.668991,-0.879681 1.486646,-1.784861 1.951785,-2.160694 3.635423,-3.18468 4.283196,-2.605019 0.240282,0.215029 0.266379,1.099442 0.03314,1.123961 -0.09119,0.0096 -0.165798,0.140459 -0.165798,0.290819 0,0.150368 -0.578229,0.90318 -1.28495,1.672921 -1.12978,1.230516 -1.724071,1.71683 -3.125177,2.557349 -0.516197,0.309667 -1.261518,1.913848 -1.197352,2.577098 0.05109,0.528017 0.07858,0.545463 0.697685,0.442788 0.648362,-0.107527 1.347446,-0.598167 2.339895,-1.642236 1.496585,-1.574412 2.794312,-2.423105 3.879606,-2.537211 0.903674,-0.095 1.674689,0.219713 1.674689,0.683579 0,0.323153 -0.737987,1.498734 -1.648553,2.626065 -0.213364,0.264156 -0.287767,0.466121 -0.180711,0.490553 0.216607,0.04939 1.14833,-0.715898 2.103951,-1.728214 0.675582,-0.715659 1.135114,-0.84126 0.937443,-0.256222 -0.05489,0.162437 -0.553254,0.771421 -1.107487,1.353305 -1.489788,1.564104 -2.459837,2.031404 -3.12029,1.503132 -0.288024,-0.23038 -0.332762,-0.216829 -0.759163,0.229949 -0.685021,0.71777 -1.642298,1.294309 -2.256234,1.35885 -0.585701,0.06158 -1.098351,-0.296904 -1.098351,-0.768036 0,-0.308017 -0.253539,-0.345083 -0.418312,-0.06118 -0.05846,0.100731 -0.487176,0.40694 -0.952714,0.680464 -0.915777,0.538062 -2.235311,0.78408 -2.575014,0.480093 -0.109427,-0.09793 -0.198959,-0.543121 -0.198959,-0.989326 v -0.811275 l -0.78756,0.719984 c -1.14511,1.046866 -1.432063,1.202245 -2.41013,1.305079 -0.95797,0.100707 -1.278905,-0.05911 -1.278905,-0.637009 0,-0.450356 0.330278,-1.252861 0.524011,-1.27323 0.07655,-0.008 0.140797,-0.108061 0.14277,-0.222255 0.0021,-0.114202 0.274519,-0.459946 0.605666,-0.76833 0.331145,-0.308384 0.870458,-0.829375 1.198467,-1.157761 l 0.596383,-0.59706 -0.832114,0.08298 -0.832115,0.08299 -1.571985,1.836736 c -2.006473,2.3444 -3.381892,3.494992 -4.285186,3.584706 -0.53373,0.05305 -0.742372,-0.05521 -1.001077,-0.519135 -0.196448,-0.352309 -0.205432,-0.352404 -0.646568,-0.0072 -1.500885,1.175716 -2.851448,1.218415 -2.851448,0.09017 v -0.437642 l -0.455951,0.360801 c -0.845422,0.668993 -2.41569,1.508023 -3.428687,1.832028 -1.19887,0.383464 -1.799319,0.447312 -2.589705,0.275388 z m 10.182845,-4.080508 c 0.757568,-0.396186 2.677435,-2.411546 2.52171,-2.647151 -0.178853,-0.270585 -0.784296,-0.1372 -1.422017,0.313275 -0.867764,0.612983 -1.823799,1.797463 -1.823799,2.2596 0,0.473378 -0.03265,0.470024 0.724106,0.07424 z m 17.845486,-2.241716 c 0,-0.138443 0.267487,-0.644227 0.594416,-1.123969 0.800792,-1.175088 0.360012,-1.121293 -0.753619,0.09198 -0.559148,0.609176 -0.835596,1.046778 -0.835596,1.322723 0,0.386189 0.03155,0.398035 0.497395,0.186678 0.273572,-0.124128 0.497404,-0.338957 0.497404,-0.4774 z m -1.18025,-5.33779 c 0.871476,-1.069386 1.084457,-1.574365 0.558503,-1.32415 -0.42562,0.202475 -2.229664,2.164964 -2.865428,3.117096 l -0.549561,0.823026 1.00392,-0.787298 c 0.552157,-0.433005 1.385816,-1.255912 1.852566,-1.828674 z m -21.157246,2.71664 c 0.344182,-0.08933 0.665681,-0.231153 0.714432,-0.315163 0.04875,-0.08401 0.214809,-0.165791 0.36901,-0.181723 0.520165,-0.05369 3.364768,-1.545312 4.396374,-2.305207 0.563084,-0.414771 1.135505,-0.8178 1.272048,-0.895612 0.326662,-0.186152 0.876042,-0.799271 1.222266,-1.364076 0.253404,-0.413377 0.254677,-0.47004 0.01449,-0.644123 -0.209082,-0.151539 -0.374569,-0.138969 -0.803055,0.06102 -0.29684,0.138547 -0.625807,0.260954 -0.731034,0.272019 -0.178186,0.01872 -1.910725,0.950252 -2.85243,1.533642 -1.551383,0.961094 -3.219517,2.303693 -4.227896,3.40284 -0.691066,0.753274 -0.760031,0.878262 -0.414502,0.751211 0.227978,-0.08382 0.696106,-0.225497 1.040292,-0.314828 z M 24.554494,101.71476 c -0.419548,-0.37544 -0.585826,-0.67067 -0.585826,-1.04016 0,-0.56653 1.077123,-3.068063 1.332631,-3.094925 0.08776,-0.0092 0.159569,-0.09465 0.159569,-0.18984 0,-0.300752 1.611442,-2.318908 4.004075,-5.014645 1.272042,-1.433189 2.238891,-2.598024 2.148548,-2.588529 -0.09034,0.0095 -0.210367,0.09673 -0.266726,0.193839 -0.05636,0.09712 -0.24107,0.191147 -0.410468,0.208959 -0.169399,0.01776 -0.332868,0.09095 -0.363267,0.162541 -0.06667,0.157011 -1.265272,0.988027 -1.671815,1.159099 -0.159582,0.06715 -0.290149,0.188 -0.290149,0.268553 0,0.08055 -0.08107,0.154989 -0.180154,0.165401 -0.178725,0.0188 -2.206478,1.60176 -2.935184,2.291361 -0.226394,0.21424 -0.479665,0.758453 -0.62744,1.348199 -0.639199,2.550945 -2.39188,5.110177 -4.427909,6.465547 -1.195066,0.79555 -2.108908,0.53367 -2.108908,-0.60435 0,-1.19165 2.285898,-4.320872 5.098347,-6.979255 l 0.870451,-0.822763 V 92.62253 c 0,-1.645916 -0.679678,-2.486722 -2.279649,-2.82008 -0.588378,-0.12259 -0.861761,-0.09329 -1.658,0.177716 -1.793019,0.610243 -3.349306,1.934823 -3.354899,2.855393 -0.0032,0.524042 0.188231,0.666022 1.127046,0.835947 0.817022,0.147883 0.827425,0.367659 0.04299,0.908263 -0.411557,0.283633 -0.875497,0.410461 -1.932325,0.528248 -1.313048,0.146345 -1.418662,0.13117 -1.890647,-0.271389 -0.949477,-0.809834 -0.581262,-2.41024 0.888343,-3.861082 0.285144,-0.281506 0.611707,-0.522823 0.725694,-0.536262 0.113987,-0.01354 0.207249,-0.08916 0.207249,-0.168268 0,-0.0791 0.594276,-0.402718 1.320613,-0.71914 1.083557,-0.472039 1.628302,-0.607654 3.034743,-0.755521 1.514215,-0.159186 1.815155,-0.14049 2.580322,0.160366 1.335658,0.525165 1.894176,1.361845 2.153969,3.226749 0.10511,0.754501 0.129948,0.786159 0.390554,0.497786 0.15307,-0.169367 0.326152,-0.31298 0.384628,-0.31913 0.05847,-0.0064 0.440928,-0.276575 0.849893,-0.600939 0.823721,-0.65334 3.708874,-2.453336 4.870468,-3.038606 0.410354,-0.20676 0.858674,-0.447352 0.996264,-0.534645 0.461036,-0.292499 2.811346,-1.033569 2.932932,-0.92476 0.06608,0.05911 -0.442142,0.679651 -1.129373,1.37894 -1.615889,1.644235 -3.246624,3.749715 -4.967638,6.413819 -1.362816,2.109615 -2.142982,3.572239 -2.142982,4.017584 0,0.448531 0.393868,0.556981 1.002307,0.275993 0.926164,-0.427724 1.250429,-0.689299 2.356694,-1.90103 1.217565,-1.333637 2.575833,-2.210896 3.587903,-2.317299 0.903678,-0.095 1.67469,0.219705 1.67469,0.683579 0,0.323153 -0.737989,1.498734 -1.648552,2.626065 -0.204189,0.252796 -0.285376,0.466662 -0.185781,0.489397 0.227131,0.05186 1.60359,-1.104476 2.250022,-1.890148 0.274224,-0.333286 0.869646,-0.962082 1.323158,-1.397318 0.875749,-0.840456 1.587957,-1.074747 2.239075,-0.73657 0.255229,0.132564 0.440289,0.113987 0.854121,-0.08573 0.768133,-0.370695 1.367836,-0.117715 1.438226,0.606698 0.0539,0.554712 -0.120234,0.869245 -1.284286,2.319761 -1.218166,1.517956 -5.06e-4,0.759759 1.761907,-1.097132 0.480739,-0.506492 0.87516,-0.981949 0.87649,-1.05656 0.003,-0.168435 0.785372,-1.30519 1.290535,-1.875092 0.206922,-0.233439 0.330179,-0.49409 0.273909,-0.579224 -0.139579,-0.211165 0.411766,-0.851138 0.765289,-0.8883 0.157478,-0.01657 0.649531,-0.403746 1.093452,-0.860426 0.443922,-0.456665 0.937697,-0.886659 1.097279,-0.955534 0.159582,-0.06883 0.290149,-0.181054 0.290149,-0.249307 0,-0.237685 1.29219,-0.984212 1.795139,-1.037083 0.761089,-0.08002 0.793781,0.20715 0.09898,0.8695 -1.489641,1.420093 -1.716443,1.718599 -1.680459,2.211796 0.03171,0.434575 -0.01874,0.490967 -0.531273,0.593721 -0.366361,0.07345 -0.683798,0.275253 -0.899061,0.571544 -0.183013,0.251904 -0.487747,0.632692 -0.677189,0.846192 -0.314673,0.354642 -0.8983,1.225481 -1.617268,2.413155 -0.333527,0.550951 -0.390194,1.382971 -0.09206,1.351624 0.286914,-0.03019 1.447786,-0.954658 1.447786,-1.152982 0,-0.260109 1.967441,-2.356269 2.238298,-2.38474 0.136786,-0.01434 0.2487,-0.08447 0.2487,-0.155753 0,-0.219386 1.531491,-0.772329 2.351473,-0.849003 0.953587,-0.08916 1.296126,0.136985 1.296126,0.855687 0,0.431762 -0.117038,0.648552 -0.538849,0.998112 -0.808762,0.670228 -2.097949,1.339731 -2.702051,1.403245 -0.296165,0.03115 -0.406699,0.132883 -0.406699,0.374359 0,0.281195 0.110534,0.319982 0.727148,0.255154 0.921113,-0.09684 1.997058,-0.778519 3.052337,-1.933843 0.442204,-0.484123 0.625563,-0.536429 0.75406,-0.215076 0.05964,0.149141 -0.436233,0.784366 -1.397787,1.79062 -2.37746,2.487997 -4.39372,3.445739 -5.498405,2.61179 -0.319275,-0.241022 -0.45595,-0.501952 -0.45595,-0.870464 v -0.526273 l -0.454256,0.468965 c -0.24984,0.257934 -0.548279,0.478858 -0.663201,0.490943 -0.114918,0.01211 -0.208942,0.07894 -0.208942,0.148647 0,0.183643 -1.262051,0.835001 -1.708877,0.881971 -0.562481,0.0591 -0.778122,-0.229906 -0.778122,-1.042982 v -0.726875 l -0.62175,0.556942 c -1.399618,1.253735 -2.795181,1.818305 -3.324288,1.344825 -0.602813,-0.539444 0.05039,-1.779989 2.258431,-4.289135 0.741257,-0.842344 -1.553207,0.735255 -2.458751,1.690558 -0.432039,0.455772 -0.987227,1.222932 -1.233754,1.704801 -0.57345,1.120876 -0.823231,1.330056 -1.698073,1.422016 -0.634938,0.0668 -0.71441,0.0327 -0.71441,-0.30622 0,-0.20974 0.09326,-0.4845 0.207248,-0.610578 0.16589,-0.183483 0.06578,-0.19176 -0.501631,-0.04142 -0.56017,0.148398 -0.778155,0.132378 -1.039107,-0.07632 -0.319938,-0.255911 -0.344336,-0.249347 -0.783317,0.210618 -1.116578,1.16996 -2.52874,1.69365 -3.080193,1.14227 -0.150919,-0.1509 -0.274397,-0.36533 -0.274397,-0.47651 0,-0.11683 -0.297439,0.028 -0.70465,0.34302 -1.016188,0.78622 -1.53694,1.03281 -2.364923,1.11986 -0.617704,0.0649 -0.824765,-0.006 -1.318599,-0.4472 z m 8.367369,-3.56241 c 0,-0.13845 0.267489,-0.644234 0.594421,-1.123977 0.800791,-1.175087 0.360006,-1.121292 -0.753625,0.09198 -0.559148,0.609176 -0.835595,1.046785 -0.835595,1.322731 0,0.386181 0.03158,0.398034 0.4974,0.186678 0.273569,-0.124128 0.497399,-0.338966 0.497399,-0.477409 z m 18.528139,-3.537196 c 0.504587,-0.512626 0.4694,-0.662915 -0.140206,-0.598827 -0.679952,0.07146 -2.119018,1.245356 -2.135855,1.742258 -0.0067,0.198395 1.896323,-0.75764 2.276061,-1.143431 z"
         id="path6" /></g></g></svg>
