<?xml version="1.0" encoding="UTF-8" standalone="no"?>
<!-- Created with Inkscape (http://www.inkscape.org/) -->

<svg
   width="105.83334mm"
   height="105.83334mm"
   viewBox="0 0 105.83333 105.83333"
   version="1.1"
   id="svg1"
   xml:space="preserve"
   inkscape:version="1.4.2 (ebf0e940d0, 2025-05-08)"
   sodipodi:docname="radnicki.svg"
   inkscape:export-filename="../pngs/NBL.png"
   inkscape:export-xdpi="96"
   inkscape:export-ydpi="96"
   xmlns:inkscape="http://www.inkscape.org/namespaces/inkscape"
   xmlns:sodipodi="http://sodipodi.sourceforge.net/DTD/sodipodi-0.dtd"
   xmlns="http://www.w3.org/2000/svg"
   xmlns:svg="http://www.w3.org/2000/svg"><sodipodi:namedview
     id="namedview1"
     pagecolor="#ffffff"
     bordercolor="#000000"
     borderopacity="0.25"
     inkscape:showpageshadow="2"
     inkscape:pageopacity="0.0"
     inkscape:pagecheckerboard="0"
     inkscape:deskcolor="#d1d1d1"
     inkscape:document-units="mm"
     inkscape:zoom="0.82258332"
     inkscape:cx="326.4107"
     inkscape:cy="-20.666599"
     inkscape:window-width="1920"
     inkscape:window-height="1011"
     inkscape:window-x="0"
     inkscape:window-y="32"
     inkscape:window-maximized="1"
     inkscape:current-layer="layer1"
     showgrid="false"
     showguides="false" /><defs
     id="defs1" /><g
     inkscape:label="Capa 1"
     inkscape:groupmode="layer"
     id="layer1"><g
       id="g4"
       transform="matrix(0.96389752,0,0,0.96389752,1.9104231,121.62626)"><path
         style="fill:#c42c36;fill-opacity:1;stroke:#ffffff;stroke-width:4.798;stroke-dasharray:none"
         d="m 50.097278,-22.184362 c -4.90674,-4.378672 -20.1605,-13.858399 -35.101199,-21.814267 l -6.6255297,-3.528069 v -33.221726 c 0,-18.27195 0.0634,-33.223376 0.14097,-33.225386 0.0775,-0.002 10.1113267,-1.87586 22.2973227,-4.16409 l 22.156355,-4.16044 20.698149,3.87349 c 11.383974,2.13041 21.395924,4.02441 22.248792,4.20889 l 1.550656,0.33542 v 33.176919 33.176923 l -6.625531,3.507991 c -14.02083,7.423548 -27.96369,15.999065 -33.973459,20.895275 -1.705734,1.38965 -3.35506,2.67894 -3.665194,2.86505 -0.310136,0.1861 -1.705717,-0.68058 -3.101316,-1.92598 z m 6.687741,-9.901768 c 6.474276,-4.664197 18.223657,-11.721409 29.964134,-17.99782 l 3.101315,-1.657949 v -28.151547 -28.151544 l -18.450612,-3.43886 -18.450611,-3.43885 -18.483202,3.45816 -18.483184,3.45817 -0.14625,28.000697 -0.14626,28.0007 3.811418,2.094197 c 9.77125,5.368877 20.737245,11.938653 26.648331,15.965143 3.566509,2.429423 6.575981,4.448538 6.687724,4.486923 0.111727,0.03839 1.887949,-1.143952 3.947133,-2.62742 z m -5.624911,-2.869378 c -2.465189,-1.935088 -13.654911,-8.801288 -21.644265,-13.281274 -4.341838,-2.434664 -8.465161,-4.778104 -9.162968,-5.207643 l -1.268719,-0.780985 v -25.301042 c 0,-19.726556 0.155363,-25.358198 0.704856,-25.560468 0.387656,-0.14269 8.006281,-1.60986 16.930276,-3.26038 l 16.225434,-3.00094 16.479307,3.07908 16.479306,3.07907 0.146572,25.76292 0.146572,25.76292 -2.40215,1.213685 c -4.804923,2.427691 -18.342544,10.398777 -24.49863,14.425042 -3.469391,2.269083 -6.416671,4.125608 -6.549481,4.125608 -0.132826,0 -0.846648,-0.475018 -1.586269,-1.055593 z"
         id="path1-3"
         sodipodi:nodetypes="sscssscsscccssssssscccccccccssssscsscssscccccssscc" /><path
         style="fill:#ffffff;fill-opacity:1;stroke-width:2.611"
         d="m 26.782666,-113.05972 -13.670094,3.85979 -0.48247,59.022643 39.723683,25.571117 40.527808,-24.445344 0.321649,-60.148416 -38.276263,-9.8103 -26.857716,5.62886 z"
         id="path3" /><path
         style="fill:#c42c36;fill-opacity:1;stroke-width:1.59839"
         d="m 50.097278,-22.184362 c -4.90674,-4.378672 -20.1605,-13.858399 -35.101199,-21.814267 l -6.6255297,-3.528069 v -33.221726 c 0,-18.27195 0.0634,-33.223376 0.14097,-33.225386 0.0775,-0.002 10.1113267,-1.87586 22.2973227,-4.16409 l 22.156355,-4.16044 20.698149,3.87349 c 11.383974,2.13041 21.395924,4.02441 22.248792,4.20889 l 1.550656,0.33542 v 33.176919 33.176923 l -6.625531,3.507991 c -14.02083,7.423548 -27.96369,15.999065 -33.973459,20.895275 -1.705734,1.38965 -3.35506,2.67894 -3.665194,2.86505 -0.310136,0.1861 -1.705717,-0.68058 -3.101316,-1.92598 z m 6.687741,-9.901768 c 6.474276,-4.664197 18.223657,-11.721409 29.964134,-17.99782 l 3.101315,-1.657949 v -28.151547 -28.151544 l -18.450612,-3.43886 -18.450611,-3.43885 -18.483202,3.45816 -18.483184,3.45817 -0.14625,28.000697 -0.14626,28.0007 3.811418,2.094197 c 9.77125,5.368877 20.737245,11.938653 26.648331,15.965143 3.566509,2.429423 6.575981,4.448538 6.687724,4.486923 0.111727,0.03839 1.887949,-1.143952 3.947133,-2.62742 z m -5.624911,-2.869378 c -2.465189,-1.935088 -13.654911,-8.801288 -21.644265,-13.281274 -4.341838,-2.434664 -8.465161,-4.778104 -9.162968,-5.207643 l -1.268719,-0.780985 v -25.301042 c 0,-19.726556 0.155363,-25.358198 0.704856,-25.560468 0.387656,-0.14269 8.006281,-1.60986 16.930276,-3.26038 l 16.225434,-3.00094 16.479307,3.07908 16.479306,3.07907 0.146572,25.76292 0.146572,25.76292 -2.40215,1.213685 c -4.804923,2.427691 -18.342544,10.398777 -24.49863,14.425042 -3.469391,2.269083 -6.416671,4.125608 -6.549481,4.125608 -0.132826,0 -0.846648,-0.475018 -1.586269,-1.055593 z"
         id="path1"
         sodipodi:nodetypes="sscssscsscccssssssscccccccccssssscsscssscccccssscc" /><text
         xml:space="preserve"
         style="font-size:6.46726px;line-height:1;font-family:'Tilt Warp';-inkscape-font-specification:'Tilt Warp';text-align:end;letter-spacing:0.0911882px;word-spacing:0.0308003px;writing-mode:lr-tb;direction:ltr;text-anchor:end;fill:#ffffff;fill-opacity:1;stroke-width:0.23933"
         x="56.396191"
         y="-94.103752"
         id="text1"><tspan
           sodipodi:role="line"
           id="tspan1"
           style="font-style:normal;font-variant:normal;font-weight:normal;font-stretch:normal;font-family:'Lifestyle Rounded M54';-inkscape-font-specification:'Lifestyle Rounded M54';fill:#ffffff;stroke-width:0.23933"
           x="56.487377"
           y="-94.103752">рч</tspan></text><path
         style="fill:#ffffff;stroke-width:0.361042"
         d="m 50.532458,-47.662112 -1.543666,-0.378108 -0.336343,-0.295296 c -0.184994,-0.162409 -0.498386,-0.45225 -0.696433,-0.644085 l -0.36009,-0.348788 0.667871,-9.993759 c 0.367329,-5.496563 0.678088,-10.003971 0.690573,-10.016456 0.01248,-0.01248 0.198379,0.09586 0.413105,0.240747 l 0.390416,0.263448 0.272124,-0.05161 c 0.332925,-0.06311 0.38551,-0.102817 0.136257,-0.102817 -0.10289,0 -0.245266,-0.02215 -0.31639,-0.04919 -0.09667,-0.03678 -2.174764,-1.903599 -3.003377,-2.698066 -0.07096,-0.06804 -0.13652,-0.544437 -0.351049,-2.550957 -0.145084,-1.357012 -0.263598,-2.536113 -0.263357,-2.620225 2.35e-4,-0.08411 0.119554,-0.460802 0.26514,-0.837081 l 0.264702,-0.684151 1.826002,-1.141896 c 1.004305,-0.628039 1.85308,-1.157163 1.886176,-1.175835 0.03567,-0.02012 0.185967,0.12365 0.369152,0.353133 l 0.308975,0.387078 0.08549,0.638923 c 0.04704,0.351408 0.08543,0.678206 0.08534,0.726223 -7.2e-5,0.04802 -0.299804,0.543529 -0.666074,1.101143 l -0.665943,1.013851 -0.618476,-0.411923 -0.618482,-0.411923 -0.116169,0.141863 c -0.06389,0.07803 -0.116488,0.153551 -0.116875,0.167838 -3.97e-4,0.01431 0.267545,0.176357 0.595388,0.360169 l 0.59608,0.3342 0.155132,0.402254 0.155125,0.40226 -0.3453,0.73113 c -0.189912,0.402122 -0.335643,0.740563 -0.323852,0.752094 0.01183,0.01149 0.09577,0.02894 0.186589,0.03874 0.159881,0.01724 0.179022,-0.0039 0.600339,-0.657456 l 0.435193,-0.675261 0.56838,-0.06121 c 0.312616,-0.03365 0.6564,-0.07239 0.763965,-0.08607 l 0.195577,-0.02482 0.687456,0.802743 c 0.614882,0.718005 0.736592,0.894336 1.152943,1.670328 0.449762,0.838275 0.468518,0.886881 0.555237,1.438955 l 0.08974,0.571379 -0.311844,0.945032 c -0.302215,0.915829 -0.31696,0.946639 -0.477324,0.99702 -0.09101,0.02861 -0.527779,0.160469 -0.970589,0.293069 -0.442817,0.132599 -0.819906,0.256615 -0.837976,0.275586 -0.0181,0.01901 0.0094,1.238276 0.06115,2.709564 0.07897,2.246678 0.124415,2.967688 0.283799,4.502306 l 0.189776,1.827229 -0.193467,1.289351 c -0.303202,2.02067 -0.305063,2.0195 0.150245,0.09466 l 0.331737,-1.402462 -0.172,-1.869949 c -0.165709,-1.801502 -0.172098,-1.961442 -0.174443,-4.369124 l -0.0026,-2.499177 0.999901,-0.34443 0.999902,-0.34443 1.412988,-0.171883 1.412987,-0.171875 0.0298,0.262501 c 0.0164,0.144378 0.192344,2.074017 0.391018,4.288089 0.198674,2.214072 0.560364,6.230162 0.803763,8.924642 0.243392,2.694485 0.442529,4.950962 0.442529,5.014404 0,0.07098 -0.347233,0.554132 -0.902809,1.256196 l -0.902809,1.140844 -0.928183,0.397877 -0.928183,0.39787 -1.402463,0.136474 c -0.771352,0.07505 -1.495962,0.145632 -1.610237,0.15683 -0.139067,0.01365 -0.718207,-0.104659 -1.75144,-0.357745 z m 3.205846,-1.25263 c 1.342726,-0.102073 2.488783,-0.195152 2.546789,-0.206846 0.06154,-0.01242 0.500973,-0.512445 1.055452,-1.201071 l 0.94999,-1.179813 -0.02998,-0.237506 c -0.04841,-0.383347 -1.431626,-15.774617 -1.431626,-15.929984 0,-0.07782 -0.01417,-0.127294 -0.03155,-0.109943 -0.01738,0.01738 0.06708,3.544933 0.187613,7.839072 l 0.219161,7.807519 -0.627882,1.272607 -0.627883,1.272601 -0.871288,0.134305 c -0.479212,0.07386 -0.875233,0.132246 -0.880054,0.129744 -0.0046,-0.0026 -0.09403,-1.289697 -0.198249,-2.860436 -0.104209,-1.570746 -0.199608,-2.866022 -0.211988,-2.878408 -0.01234,-0.01242 -0.02254,0.04821 -0.02254,0.134637 0,0.260019 -0.310655,5.6941 -0.326419,5.709864 -0.0081,0.0081 -0.490076,0.08733 -1.071209,0.176234 l -1.056601,0.161631 -0.468806,-0.107944 c -0.257842,-0.05938 -0.47846,-0.09828 -0.490253,-0.08649 -0.01647,0.01647 0.791965,0.315889 0.920017,0.340773 0.01431,0.0026 1.124571,-0.07847 2.467297,-0.180546 z m 0.805737,-20.326501 c 3.33e-4,-0.104 0.03508,-0.56188 0.07724,-1.017495 0.05696,-0.616031 0.06415,-0.970673 0.0279,-1.383445 -0.04527,-0.515856 -0.07603,-0.623225 -0.435324,-1.519887 -0.385307,-0.961579 -0.562997,-1.260638 -1.404638,-2.364101 -0.04501,-0.05906 0.138995,-0.06415 1.13891,-0.03175 1.047749,0.03404 1.291579,0.05906 2.007258,0.206468 l 0.814633,0.167759 0.101561,-0.239929 c 0.05585,-0.131952 0.411269,-0.987907 0.789802,-1.902103 0.378533,-0.914196 0.70799,-1.683994 0.732129,-1.710655 0.02411,-0.02665 0.06024,-0.03214 0.08014,-0.01222 0.01992,0.01992 0.05298,1.12866 0.07337,2.463826 l 0.0371,2.427582 -0.386784,1.681139 -0.38679,1.681126 -0.38743,0.51159 c -0.321866,0.425021 -0.420311,0.52052 -0.581734,0.564336 -0.106873,0.02901 -0.667642,0.19092 -1.246155,0.359796 l -1.051845,0.307056 z m -19.110653,-1.735179 c -0.06867,-0.03528 -0.166525,-0.122597 -0.217463,-0.194023 -0.08788,-0.123231 -1.353093,-4.78364 -1.416665,-5.218304 -0.01653,-0.11319 0.0622,-1.235161 0.17505,-2.493265 0.112838,-1.25811 0.263638,-2.953642 0.335108,-3.767844 0.07147,-0.814209 0.142406,-1.55225 0.157621,-1.640092 0.02835,-0.163788 0.236042,-0.395518 0.409415,-0.456837 0.09232,-0.03266 3.497699,0.246221 3.77239,0.308924 0.157759,0.03599 0.358522,0.214 0.41954,0.371947 0.02816,0.07281 -0.01274,0.750657 -0.109394,1.813654 -0.08487,0.933567 -0.154315,1.750081 -0.154315,1.814483 0,0.145764 -0.268028,0.119358 3.921702,0.386372 1.79983,0.114713 3.298785,0.217947 3.331018,0.229431 0.0322,0.0115 0.135369,0.333489 0.229195,0.715587 l 0.170603,0.694716 -0.271922,0.698817 c -0.261403,0.67179 -0.270569,0.712374 -0.236944,1.049186 l 0.03502,0.350363 -0.148089,-0.02679 c -0.08145,-0.0147 -1.690795,-0.200902 -3.576331,-0.413745 -1.885535,-0.212844 -3.501639,-0.397485 -3.59135,-0.410316 l -0.163102,-0.02332 -0.03357,0.398367 c -0.01849,0.219103 -0.05853,0.515241 -0.08907,0.658084 -0.03051,0.142844 -0.535271,1.31788 -1.121644,2.611197 -0.807995,1.782146 -1.103187,2.382668 -1.219199,2.480284 -0.168786,0.14202 -0.406056,0.166662 -0.607579,0.06311 z m 24.44529,-3.80047 c -0.536703,-0.06596 -0.98555,-0.129647 -0.997439,-0.141537 -0.01189,-0.01189 -0.03809,-0.938217 -0.05827,-2.058516 l -0.03665,-2.036897 h 0.150428 c 0.389332,0 2.562526,0.168099 2.728013,0.211008 0.320938,0.08324 0.529653,0.261207 0.695309,0.592905 0.145208,0.290769 0.154753,0.34677 0.150448,0.883034 -0.0089,1.108041 -0.167813,1.897262 -0.458882,2.278872 -0.309237,0.405435 -0.69173,0.453158 -2.17296,0.271131 z m -3.701679,-1.023095 c -0.227105,-0.144606 -0.430908,-0.279871 -0.452897,-0.300593 -0.0324,-0.03051 0.563774,-4.030914 0.665205,-4.463618 0.0277,-0.118292 0.03972,-0.120854 0.402907,-0.08624 0.647574,0.06174 0.726282,0.09391 1.213602,0.496499 0.252616,0.208701 0.464637,0.382569 0.471157,0.386378 0.01111,0.0065 -1.850259,4.193709 -1.875436,4.21888 -0.0065,0.0065 -0.197433,-0.106696 -0.424538,-0.251304 z m -2.178976,-0.350871 -0.986921,-0.08404 0.01215,-0.389573 c 0.0067,-0.214268 0.03867,-1.418044 0.07115,-2.67507 0.03247,-1.257019 0.07372,-2.301202 0.09173,-2.320402 0.01803,-0.01921 0.370745,-0.09472 0.783851,-0.167839 l 0.751107,-0.132926 0.69282,0.319691 c 0.381048,0.175834 0.700797,0.333168 0.710551,0.349643 0.01568,0.02639 -0.760345,4.78338 -0.828922,5.081407 -0.03135,0.136291 0.06252,0.134906 -1.297516,0.01907 z m -2.544953,-0.0181 c -0.514098,-0.02646 -0.937572,-0.05206 -0.941054,-0.05696 -0.0032,-0.0046 -0.01836,-0.120592 -0.03299,-0.257085 -0.02581,-0.239949 -0.0087,-0.278696 0.515764,-1.16872 l 0.542432,-0.920546 -0.0872,-0.779147 -0.0872,-0.779147 -0.288044,-0.415541 c -0.158424,-0.22855 -0.304684,-0.434795 -0.325021,-0.458326 -0.02032,-0.02351 -0.24984,0.06415 -0.510002,0.194793 -0.260162,0.130652 -0.492154,0.237558 -0.515535,0.237558 -0.02339,0 -0.09535,-0.289078 -0.159927,-0.642393 -0.06454,-0.353322 -0.129124,-0.687175 -0.143431,-0.741896 -0.02365,-0.09036 0.05416,-0.115692 0.847135,-0.275847 l 0.873156,-0.17635 0.772117,0.200797 0.772111,0.20079 -0.03789,2.912047 c -0.02084,1.601626 -0.04828,2.929574 -0.06095,2.951001 -0.01268,0.02143 -0.06258,0.03541 -0.110891,0.03103 -0.04828,-0.0046 -0.508461,-0.0296 -1.022551,-0.05599 z m -4.992415,-3.382903 -0.210897,-0.849703 0.526746,-0.562343 0.526746,-0.562344 0.724263,-0.06597 c 0.39834,-0.03625 0.807101,-0.06703 0.908349,-0.06833 l 0.184086,-0.0026 0.117808,0.604507 c 0.0648,0.332482 0.09883,0.621768 0.07563,0.642863 -0.09825,0.08932 -2.563493,1.713385 -2.600836,1.713385 -0.02254,0 -0.135898,-0.38236 -0.251897,-0.849696 z"
         id="path2"
         sodipodi:nodetypes="ccsscssscsscsssscssscssscccscscccsscsccccssscssscsscsscsccccccssssscccssccssscsssscccscssssscsssssssssscscsscsscccscscsssssssscsssssscssccsscssssssssscssssssscssssssccsssscsssscccsscccssssssscccsssccccccsccssscc" /><path
         style="fill:#ffffff;stroke-width:0.369465"
         d="m 44.615144,-43.735038 c -0.146585,-0.0909 -0.287636,-0.220305 -0.313451,-0.287586 -0.04704,-0.122565 0.952484,-1.074011 1.82944,-1.741474 0.509113,-0.387488 2.879516,-1.8144 3.857828,-2.322303 0.335833,-0.174343 0.610774,-0.352681 0.610969,-0.396298 1.96e-4,-0.04362 -0.208588,-0.04875 -0.463969,-0.01099 -0.472583,0.06915 -1.090431,0.278374 -3.002277,1.016845 -1.226375,0.473707 -3.17276,0.996406 -4.59812,1.234829 -1.221451,0.204325 -3.859856,0.231484 -4.685364,0.04826 -0.813779,-0.180635 -2.235828,-0.74436 -2.995582,-1.187511 -0.571275,-0.333206 -1.311726,-0.957261 -1.231274,-1.037713 0.01662,-0.01649 0.332852,0.03323 0.702918,0.11069 2.029904,0.424703 3.699686,0.287037 7.134009,-0.588159 3.182289,-0.81097 4.03801,-0.948489 5.914133,-0.95042 1.152923,-0.0012 1.94757,0.06243 3.323645,0.266328 1.980545,0.293378 2.735143,0.295589 4.753647,0.01393 3.241104,-0.452314 5.745349,-0.389089 7.367887,0.186023 0.699546,0.247953 2.977757,0.802234 4.20159,1.022233 1.727204,0.310494 2.800347,0.350067 4.0871,0.150727 0.607073,-0.09407 1.131946,-0.142822 1.166375,-0.108369 0.12678,0.126768 -0.615453,0.751238 -1.334413,1.122685 -1.886984,0.974891 -3.670083,1.302624 -6.015062,1.105569 -2.221705,-0.186695 -3.823155,-0.578765 -6.626691,-1.622367 -3.101727,-1.154584 -3.584402,-1.02095 -1.099777,0.304508 1.814253,0.967829 2.66185,1.532641 3.808567,2.53788 0.556187,0.487562 0.807561,0.771984 0.769638,0.87081 -0.0854,0.222651 -0.564422,0.432791 -0.986449,0.432791 -0.356627,0 -0.427952,-0.05742 -1.319874,-1.063614 -1.350871,-1.523844 -2.744966,-2.609437 -4.226966,-3.291586 -1.64167,-0.755624 -2.97353,-0.708465 -4.691485,0.166121 -1.348195,0.686351 -2.189854,1.337614 -3.610425,2.793701 -1.254389,1.285739 -1.388805,1.395183 -1.710698,1.392788 -0.192144,-0.0012 -0.469284,-0.07697 -0.615869,-0.16788 z m -8.140347,-5.709173 c -2.12862,-0.271912 -4.339097,-1.300351 -6.077981,-2.8278 -0.901049,-0.791483 -1.877491,-2.136146 -1.772519,-2.440911 0.01662,-0.04814 0.64601,0.177838 1.398714,0.502162 1.676673,0.722466 3.138196,1.267669 4.301187,1.604492 1.589611,0.46039 5.54067,1.416881 5.852801,1.416856 0.28248,-1.2e-5 0.249053,-0.03628 -0.439608,-0.477555 -1.431566,-0.917237 -2.578429,-2.247496 -3.170035,-3.676985 -0.674769,-1.630442 -1.496697,-4.298194 -1.364871,-4.43002 0.105314,-0.105314 0.365326,0.117532 0.858752,0.735979 0.293793,0.368221 0.695661,0.792655 0.893034,0.94321 0.496064,0.378362 2.286604,2.386665 2.952711,3.311794 0.30265,0.420354 0.868415,1.323895 1.25726,2.007864 0.676785,1.190479 0.736944,1.263625 1.408598,1.712628 0.385875,0.257971 0.676565,0.509553 0.64596,0.55907 -0.09493,0.153635 -1.570454,0.575943 -2.717281,0.777714 -1.015013,0.178594 -2.973407,0.409724 -3.230609,0.381282 -0.06158,-0.0073 -0.419755,-0.05168 -0.796113,-0.09982 z m 29.668431,-0.227086 c -1.251518,-0.211117 -3.421409,-0.799815 -3.421409,-0.928232 0,-0.189786 1.487009,-2.156647 3.069595,-4.060137 2.116476,-2.545662 4.020638,-4.530435 4.872951,-5.079242 l 0.26882,-0.173097 0.01222,0.280061 c 0.05192,1.185372 -0.171863,2.147765 -0.792497,3.408201 -0.264727,0.537653 -0.713828,1.285471 -0.997981,1.661829 -0.652778,0.864592 -2.105994,2.3111 -2.89364,2.880323 -0.33218,0.24006 -0.567354,0.473071 -0.522614,0.517812 0.09212,0.09224 1.435489,-0.05241 2.603977,-0.280317 2.993297,-0.583811 5.295198,-1.395244 7.957268,-2.804966 l 1.114463,-0.590176 -0.0694,0.28529 c -0.203421,0.836675 -1.439874,2.28603 -2.611539,3.061214 -1.97754,1.308366 -4.258292,1.975462 -6.684089,1.95501 -0.645179,-0.0049 -1.502965,-0.06561 -1.906202,-0.133573 z m -31.428011,-4.155775 c -0.645179,-0.146768 -1.682366,-0.378655 -2.304869,-0.515295 -2.70741,-0.594293 -4.233124,-1.580326 -5.945642,-3.842519 -0.640585,-0.846192 -1.006168,-1.609453 -1.333815,-2.784721 -0.141661,-0.508136 -0.361441,-1.274267 -0.488404,-1.702525 -0.126952,-0.428258 -0.216811,-0.792668 -0.19967,-0.809797 0.0171,-0.0171 0.300244,0.361722 0.629137,0.841916 0.748135,1.092301 1.560375,1.84035 3.204464,2.951209 1.258384,0.850248 1.722341,1.22222 4.432524,3.553699 0.724555,0.623309 1.375989,1.13329 1.447645,1.13329 0.151581,0 0.197629,0.08198 -0.704165,-1.252984 -1.079655,-1.598213 -1.397846,-2.61011 -1.856611,-5.904286 -0.29196,-2.096428 -0.382467,-3.215826 -0.273182,-3.378563 0.05791,-0.08613 0.245265,0.171814 0.603456,0.830921 0.285717,0.525753 0.683236,1.241842 0.88337,1.591309 0.843895,1.473631 1.851859,4.175689 2.242658,6.011885 0.114477,0.537653 0.321465,1.351457 0.460096,1.808463 0.138632,0.456993 0.308662,1.01792 0.377849,1.246484 0.06915,0.228564 0.09713,0.43196 0.06194,0.451972 -0.03506,0.02004 -0.591667,-0.08369 -1.236845,-0.230458 z m 35.369381,0.130764 c 0.02798,-0.09969 0.22964,-0.775185 0.448124,-1.501011 0.218485,-0.725826 0.467879,-1.671016 0.55422,-2.10041 0.414147,-2.059848 1.355024,-4.508101 2.405516,-6.259447 0.354135,-0.590383 0.759705,-1.304371 0.901281,-1.586642 0.141575,-0.28226 0.297262,-0.513206 0.345973,-0.513206 0.171497,0 -0.0744,2.717904 -0.437775,4.83884 -0.359229,2.096635 -0.864164,3.375495 -1.962084,4.969334 -0.868257,1.260449 -0.504434,1.138067 1.124872,-0.378387 1.036246,-0.964469 2.452871,-2.072395 4.751155,-3.715837 1.394816,-0.997395 2.175779,-1.749647 2.855949,-2.750976 0.302919,-0.445937 0.567891,-0.793645 0.588844,-0.772692 0.05437,0.05437 -0.843285,3.144292 -1.060841,3.651805 -0.09982,0.232986 -0.321404,0.630432 -0.492314,0.883235 -0.489772,0.724434 -2.110954,2.622804 -2.50923,2.938246 -0.758129,0.600438 -2.117111,1.141524 -3.830229,1.525005 -0.403236,0.09029 -1.21704,0.311289 -1.80845,0.491178 -0.591422,0.17989 -1.26668,0.357495 -1.500595,0.394685 -0.383444,0.06097 -0.420292,0.04973 -0.374416,-0.113745 z m -39.908222,-6.331738 c -0.06316,-0.07624 -0.893412,-0.72414 -1.844858,-1.439899 -0.951457,-0.715758 -2.141741,-1.698175 -2.6451,-2.183146 -0.757555,-0.729895 -0.987047,-1.024873 -1.332422,-1.712678 -1.097822,-2.186201 -2.36774,-6.451774 -1.920802,-6.451774 0.04618,0 0.334673,0.472876 0.641184,1.050859 0.409797,0.772765 0.880987,1.438872 1.780582,2.517171 1.745689,2.092445 2.572297,3.221898 3.366931,4.60049 0.678105,1.176417 0.970212,1.573081 0.970212,1.317456 0,-0.06487 -0.08479,-0.455125 -0.188442,-0.867317 -0.558203,-2.21997 -0.660341,-4.336092 -0.321942,-6.669672 0.237324,-1.636514 0.491508,-2.828777 0.60309,-2.828777 0.175234,0 0.677237,2.24168 0.993815,4.437863 0.223958,1.553668 0.22397,1.55467 0.05608,3.421409 -0.17791,1.978444 -0.209272,3.843167 -0.07624,4.531082 0.08894,0.459511 0.08381,0.476835 -0.0821,0.276933 z m 45.617298,-0.266756 c 0.08125,-0.454268 0.08344,-1.050333 0.0193,-5.26447 -0.03775,-2.478614 -0.02321,-2.79116 0.186194,-4.007932 0.340634,-1.979348 0.701391,-3.365661 0.824139,-3.167042 0.0314,0.0507 0.196579,0.795099 0.367147,1.654095 0.535466,2.696756 0.512228,4.302054 -0.107392,7.416463 -0.159278,0.800622 -0.267549,1.477737 -0.240598,1.504676 0.104948,0.104948 0.320488,-0.200024 0.884629,-1.251591 0.641818,-1.196344 1.853117,-2.864917 3.51916,-4.847624 0.673425,-0.801428 1.308757,-1.687974 1.699996,-2.372175 0.343591,-0.600878 0.641843,-1.075355 0.662796,-1.054402 0.07502,0.07502 -0.181123,1.501914 -0.461966,2.573506 -0.38761,1.47897 -0.709283,2.350807 -1.278616,3.465404 -0.421001,0.824201 -0.60904,1.064811 -1.528671,1.956049 -0.845496,0.819387 -2.670146,2.334069 -4.384228,3.639429 l -0.237996,0.181258 z m -49.366867,-7.409511 c -0.203677,-0.179095 -0.473194,-0.506559 -0.598948,-0.727683 -0.125742,-0.221123 -0.593364,-1.0399 -1.039154,-1.819482 -1.419374,-2.482181 -2.268119,-4.467931 -2.694923,-6.305153 -0.231777,-0.997762 -0.244667,-3.288251 -0.02224,-3.959049 l 0.145852,-0.439902 0.167452,0.586535 c 0.183323,0.642161 0.317544,0.980389 0.969711,2.443855 0.239596,0.537653 0.930663,2.462181 1.53572,4.276752 0.605044,1.814559 1.133937,3.29921 1.175318,3.29921 0.11631,0 0.193903,-0.272168 0.193903,-0.680023 0,-0.641501 0.397506,-2.753591 0.690725,-3.670046 0.315063,-0.984738 0.781195,-1.930087 1.429721,-2.89959 0.771263,-1.152959 0.772387,-1.152642 0.84232,0.234355 0.03323,0.6594 0.01869,1.492581 -0.03225,1.851505 -0.130813,0.920437 -0.90629,3.168715 -1.511359,4.381761 -0.671776,1.346752 -0.750591,1.612873 -0.821611,2.773872 l -0.05986,0.978702 z m 52.717415,-0.567647 c -3.18e-4,-0.840706 -0.011,-0.88045 -0.646083,-2.321656 -1.534596,-3.484585 -1.711712,-4.126196 -1.76079,-6.378469 -0.01784,-0.819912 0.0049,-1.49076 0.05144,-1.49076 0.282601,0 1.448426,1.813569 1.873324,2.914153 0.416383,1.078519 0.96188,3.345441 1.045899,4.346404 0.03958,0.47169 0.115943,0.867597 0.169737,0.879777 0.05376,0.01222 0.650102,-1.627448 1.325201,-3.643631 0.771458,-2.303929 1.399435,-4.004035 1.690381,-4.576263 0.254611,-0.500756 0.531825,-1.215586 0.616052,-1.588512 0.30689,-1.358994 0.452339,-0.649625 0.402149,1.96134 -0.03409,1.775414 -0.04154,1.829794 -0.403688,2.976645 -0.4805,1.521584 -1.123834,2.950243 -1.98305,4.403801 -0.381367,0.645178 -0.92315,1.590955 -1.203955,2.101717 -0.280806,0.510775 -0.605362,1.004677 -0.72122,1.097566 -0.398142,0.31923 -0.455014,0.234038 -0.455356,-0.682112 z m 1.08321,-5.920486 c -0.05791,-0.151362 -0.105314,-0.397275 -0.105314,-0.546486 0,-0.467366 -0.54166,-1.377346 -1.663857,-2.795241 -1.245189,-1.573301 -2.074338,-2.896572 -2.978196,-4.753049 -0.630481,-1.294975 -1.093498,-2.496414 -0.998642,-2.591282 0.027,-0.027 0.394465,0.2994 0.816516,0.725386 0.422064,0.425986 1.00932,0.960181 1.305031,1.187108 1.474572,1.131555 2.529877,2.599676 3.081959,4.287588 0.09114,0.278778 0.204862,0.482724 0.25262,0.453219 0.125082,-0.07734 0.108613,-0.739107 -0.06732,-2.700641 -0.139242,-1.552568 -0.140281,-1.898212 -0.0098,-3.372527 0.155626,-1.762232 0.153622,-1.808817 -0.143677,-3.33739 -0.108124,-0.555734 -0.180158,-1.02679 -0.160158,-1.04679 0.05229,-0.05229 0.920523,1.162514 1.139777,1.594694 0.275015,0.542075 0.756736,2.109536 0.95439,3.105441 0.249272,1.255977 0.227782,3.441531 -0.04887,4.9719 -0.247403,1.368561 -0.962527,4.369226 -1.142942,4.795773 l -0.125815,0.29747 z m -54.738875,-0.140269 c -0.177141,-0.431544 -0.28303,-0.84139 -0.738716,-2.859321 -0.589723,-2.61149 -0.680548,-3.323461 -0.610469,-4.785376 0.13559,-2.828643 0.707024,-4.750019 1.899727,-6.387644 0.187843,-0.257911 0.356456,-0.453988 0.374709,-0.435748 0.0182,0.0182 -0.05192,0.439828 -0.15598,0.936858 -0.299352,1.430088 -0.323103,2.003844 -0.151142,3.649948 0.145937,1.396882 0.146792,1.669917 0.0098,3.105136 -0.166219,1.740986 -0.19306,2.841533 -0.06927,2.841533 0.04447,0 0.218961,-0.363322 0.387647,-0.807378 0.477946,-1.258237 1.233314,-2.442425 2.001376,-3.137548 0.365032,-0.33036 1.172679,-1.073535 1.794803,-1.651505 0.622112,-0.577983 1.169795,-1.050859 1.217065,-1.050859 0.243677,0 -1.252398,3.313517 -2.228889,4.936592 -0.258778,0.430115 -0.986986,1.43473 -1.618237,2.232468 -1.395843,1.763979 -1.578396,2.06834 -1.783196,2.972943 -0.08821,0.389798 -0.173586,0.708722 -0.18964,0.708722 -0.016,0 -0.0788,-0.120953 -0.139523,-0.268821 z m 1.632372,-9.555492 c -0.04814,-3.64147 0.04838,-4.373172 0.76045,-5.7675 0.663664,-1.299483 2.009439,-3.11866 2.502181,-3.382374 0.182993,-0.09798 0.183872,-0.09126 0.0281,0.209859 -0.284801,0.55075 -0.424519,1.045886 -0.640084,2.268351 -0.116188,0.658581 -0.405424,1.813276 -0.642845,2.565993 -0.431557,1.368194 -0.637726,2.492724 -0.456993,2.492724 0.05168,0 0.307024,-0.330836 0.567316,-0.735209 0.572791,-0.889833 1.053584,-1.345922 2.177588,-2.065688 1.560668,-0.999411 2.022634,-1.330247 2.600959,-1.862659 0.315271,-0.29025 0.591825,-0.509125 0.614549,-0.486401 0.0716,0.0716 -0.3583,1.068831 -0.724078,1.679691 -0.517067,0.863553 -1.591249,2.275303 -2.24085,2.945087 -0.50447,0.520133 -1.1896,1.060083 -3.061691,2.412933 -0.674305,0.487292 -1.173045,0.95252 -1.173045,1.094243 0,0.05987 -0.06463,0.194171 -0.143518,0.298533 -0.128064,0.169309 -0.14617,-0.0098 -0.168076,-1.667583 z m 51.550234,1.757906 c -0.04325,-0.279303 -1.053278,-1.229832 -2.05903,-1.937735 -1.812225,-1.275513 -3.292283,-2.799871 -4.41867,-4.550948 -0.471324,-0.732716 -0.944237,-1.825236 -0.83665,-1.932823 0.03238,-0.03238 0.406718,0.26601 0.831946,0.663028 0.470176,0.438997 1.222551,0.989979 1.920106,1.40613 1.45473,0.867878 1.855976,1.222294 2.546298,2.249145 0.306938,0.456566 0.602759,0.830114 0.657396,0.830114 0.179511,0 -0.0086,-0.985007 -0.460573,-2.418357 -0.241539,-0.765129 -0.488735,-1.688731 -0.549321,-2.052444 -0.258607,-1.552556 -0.393084,-2.103135 -0.625875,-2.562535 -0.135797,-0.26799 -0.246902,-0.520329 -0.246902,-0.560756 0,-0.184691 1.240754,1.178237 1.751846,1.924344 1.222978,1.785347 1.682098,3.081508 1.679398,4.741076 -0.0012,0.939252 -0.158277,4.406391 -0.189969,4.201761 z m -33.181654,-7.180825 c 0.83417,-2.471833 1.493998,-4.553306 1.466301,-4.625499 -0.02773,-0.0722 -1.451493,-1.116063 -3.163975,-2.319701 -1.712482,-1.203638 -3.487518,-2.454349 -3.944511,-2.77937 l -0.83092,-0.590945 5.0216,-0.04887 5.0216,-0.04887 0.360415,-1.075309 c 2.229243,-6.65104 2.680384,-7.96576 2.719834,-7.92629 0.05852,0.0585 0.293891,0.73966 1.835145,5.31137 l 1.260547,3.739099 h 5.013952 c 2.75766,0 5.012059,0.03299 5.009774,0.07331 -0.0086,0.152461 -1.991895,1.556831 -6.294144,4.457032 -0.944653,0.636797 -1.71754,1.189661 -1.71754,1.228586 0,0.03897 0.678691,2.102292 1.508194,4.585254 0.829515,2.482951 1.489734,4.514467 1.467143,4.514467 -0.0226,0 -1.812005,-1.239667 -3.976496,-2.754825 -2.16449,-1.515146 -4.001871,-2.756279 -4.083081,-2.758063 -0.127586,-0.0024 -6.160925,4.077827 -7.595192,5.136994 -0.279962,0.206743 -0.528428,0.375894 -0.552167,0.375894 -0.0237,0 0.639351,-2.022414 1.473521,-4.494259 z m 3.551317,-0.295699 c 1.605934,-1.129062 2.965931,-2.052835 3.022228,-2.052835 0.05632,0 1.454792,0.924017 3.107775,2.053373 1.832946,1.2523 3.016413,2.002903 3.033591,1.924027 0.01552,-0.07111 -0.478765,-1.618958 -1.098372,-3.439589 -0.619608,-1.82063 -1.116161,-3.317438 -1.103467,-3.326247 2.743084,-1.90184 5.741464,-4.0217 5.885617,-4.161138 0.189798,-0.183604 0.133965,-0.186499 -3.594566,-0.186499 h -3.787358 l -0.0964,-0.219939 c -0.05302,-0.120952 -0.575014,-1.627618 -1.159911,-3.348088 -0.692424,-2.03672 -1.109527,-3.12815 -1.195489,-3.12815 -0.135455,0 -0.628685,1.37149 -1.511713,4.20345 -0.251459,0.80646 -0.558899,1.697249 -0.683199,1.979521 l -0.225999,0.513206 h -3.720039 c -2.913884,0 -3.718818,0.02651 -3.714371,0.122199 0.0024,0.0672 0.738593,0.628074 1.634388,1.246362 1.81809,1.254865 4.251156,2.945368 4.316911,2.999394 0.03335,0.02737 -1.994473,6.225959 -2.208779,6.751602 -0.02737,0.0672 0.0012,0.122187 0.06475,0.122187 0.06304,0 1.428512,-0.923773 3.034446,-2.052836 z m 26.218482,1.375599 c -1.318824,-0.727121 -3.233712,-2.643256 -4.001835,-4.004438 -0.139804,-0.247733 -0.511899,-0.893351 -0.826877,-1.434694 -0.31499,-0.541355 -0.572704,-1.031934 -0.572704,-1.090174 0,-0.159511 0.803883,0.108979 1.511957,0.504934 0.779692,0.436041 1.645152,1.078568 2.21771,1.646471 0.674989,0.669492 1.829403,2.659163 2.24686,3.872514 0.310348,0.902026 0.246328,0.958287 -0.575111,0.505387 z m -45.268453,-0.169041 c 0.289675,-1.049112 1.336111,-3.030732 2.078113,-3.935287 0.506511,-0.617469 1.507767,-1.41754 2.44526,-1.953935 0.730028,-0.41769 1.618432,-0.751324 1.618432,-0.607793 0,0.135797 -1.637711,2.934275 -1.967387,3.361812 -1.130541,1.46613 -2.392822,2.64989 -3.395569,3.184342 -0.783822,0.417775 -0.905654,0.41009 -0.778849,-0.04912 z"
         id="path4"
         sodipodi:nodetypes="csssscssssccssccssscssssssscssscccsssssssssssssssscsscsssccssscsscssccccssssssssssscssssscccsssssssssssscssssssssssssssssssssscssssscssssssssssscsssssscsssssssscsscsscssssssssssssssscssssssscscssssssccsssssssssssssssssssssscssssssssssscsssssssssscsssscssssscccssscscssssscssscsssscsscssssscscssssccssssssssssssssss" /></g></g></svg>
