<?xml version="1.0" encoding="UTF-8" standalone="no"?>
<!-- Created with Inkscape (http://www.inkscape.org/) -->

<svg
   width="105.83334mm"
   height="105.83334mm"
   viewBox="0 0 105.83333 105.83333"
   version="1.1"
   id="svg1"
   xml:space="preserve"
   inkscape:version="1.4.2 (ebf0e940d0, 2025-05-08)"
   sodipodi:docname="radnicki.svg"
   inkscape:export-filename="../png/radnicki.png"
   inkscape:export-xdpi="61.619202"
   inkscape:export-ydpi="61.619202"
   xmlns:inkscape="http://www.inkscape.org/namespaces/inkscape"
   xmlns:sodipodi="http://sodipodi.sourceforge.net/DTD/sodipodi-0.dtd"
   xmlns="http://www.w3.org/2000/svg"
   xmlns:svg="http://www.w3.org/2000/svg"><sodipodi:namedview
     id="namedview1"
     pagecolor="#ffffff"
     bordercolor="#000000"
     borderopacity="0.25"
     inkscape:showpageshadow="2"
     inkscape:pageopacity="0.0"
     inkscape:pagecheckerboard="0"
     inkscape:deskcolor="#d1d1d1"
     inkscape:document-units="mm"
     inkscape:zoom="0.82258332"
     inkscape:cx="326.4107"
     inkscape:cy="-20.666599"
     inkscape:window-width="1920"
     inkscape:window-height="1011"
     inkscape:window-x="0"
     inkscape:window-y="32"
     inkscape:window-maximized="1"
     inkscape:current-layer="layer1"
     showgrid="false"
     showguides="false" /><defs
     id="defs1" /><g
     inkscape:label="Capa 1"
     inkscape:groupmode="layer"
     id="layer1"><g
       id="g4"
       transform="translate(1.6318776,0.23576438)"><path
         style="fill:#ffd42a;fill-opacity:1;stroke-width:1.61232"
         d="M 48.440929,102.19025 C 43.491399,97.77342 28.104687,88.211047 13.033718,80.185795 L 6.3504234,76.626982 V 43.115595 c 0,-18.431257 0.06389,-33.5130406 0.1419437,-33.5150692 C 6.5704213,9.5984819 16.69186,7.7083122 28.984076,5.4001336 L 51.333631,1.2034178 72.212213,5.1106797 C 83.695439,7.2596641 93.794697,9.1701803 94.65498,9.3562654 l 1.564185,0.3383469 V 43.160788 76.626982 l -6.683294,3.538561 C 75.392809,87.653819 61.328375,96.304106 55.266198,101.243 c -1.720595,1.40177 -3.384291,2.70229 -3.69714,2.89001 -0.312909,0.18776 -1.720564,-0.68651 -3.128339,-1.94276 z m 6.746069,-9.988081 c 6.530713,-4.70488 18.382541,-11.82362 30.225359,-18.154736 l 3.128369,-1.672407 v -28.397 -28.396987 L 69.929237,12.112194 51.317778,8.6433664 32.67341,12.131674 l -18.644307,3.48832 -0.14767,28.244829 -0.14767,28.244819 3.844628,2.112463 c 9.856448,5.415684 20.918061,12.042744 26.880698,16.104327 3.597598,2.450625 6.633327,4.487323 6.746038,4.526049 0.112712,0.03888 1.904369,-1.153934 3.98154,-2.650312 z M 49.513042,89.307751 C 47.026373,87.355798 35.739066,80.429751 27.680091,75.910693 23.300355,73.454794 19.1411,71.090932 18.437226,70.657657 L 17.157442,69.869854 V 44.348222 c 0,-19.898547 0.156711,-25.57929 0.711015,-25.783322 0.390994,-0.143933 8.076062,-1.623897 17.077863,-3.288806 l 16.366908,-3.027104 16.62298,3.105924 16.622978,3.105915 0.147972,25.987537 0.147971,25.987545 -2.423111,1.224273 c -4.846795,2.448847 -18.502455,10.489439 -24.712211,14.55081 -3.499624,2.288853 -6.472639,4.161577 -6.606597,4.161577 -0.133806,0 -0.854013,-0.479174 -1.600078,-1.06482 z"
         id="path1-2"
         sodipodi:nodetypes="sscssscsscccssssssscccccccccssssscsscssscccccssscc" /><path
         style="fill:#ffffff;fill-opacity:1;stroke-width:2.44772"
         d="M 26.785152,13.500495 13.969915,17.11892 13.517592,72.45067 50.757236,96.422723 88.750689,73.506057 89.052206,17.11892 53.169497,7.9220928 27.991313,13.198959 Z"
         id="path3" /><path
         style="fill:#c42c36;fill-opacity:1;stroke-width:1.49844"
         d="M 48.64182,98.693102 C 44.041906,94.588242 29.742044,85.701322 15.735623,78.242943 L 9.5244205,74.935501 V 43.791253 c 0,-17.129339 0.059365,-31.145803 0.1319986,-31.147686 0.07263,-0.0018 9.4790449,-1.758554 20.9029929,-3.9036939 L 51.330255,4.8396 70.734067,8.4708669 c 10.672099,1.9971861 20.057961,3.7727491 20.857488,3.9456921 l 1.453703,0.314447 v 31.102249 31.102246 l -6.211203,3.288636 C 73.689996,85.183453 60.619018,93.222718 54.985053,97.812748 53.386,99.115497 51.839807,100.32416 51.549077,100.49865 51.258258,100.67314 49.950024,99.860627 48.6417,98.693102 Z m 6.269548,-9.282585 c 6.06941,-4.372534 17.084071,-10.988412 28.090354,-16.87236 l 2.907377,-1.554271 V 44.592766 18.201638 L 68.612264,14.97782 51.315457,11.754016 l -17.327393,3.241907 -17.327366,3.241919 -0.137121,26.249717 -0.137122,26.249718 3.573067,1.963226 c 9.160229,5.03316 19.440489,11.192106 24.981934,14.966787 3.343485,2.277521 6.164763,4.170376 6.269518,4.20636 0.104876,0.03586 1.769868,-1.072415 3.700304,-2.463133 z M 49.6382,86.720575 C 47.327168,84.906498 36.837157,78.469661 29.347434,74.269841 25.277082,71.987408 21.411629,69.790504 20.757451,69.387847 L 19.568076,68.655676 V 44.936813 c 0,-18.492986 0.145561,-23.772464 0.660777,-23.962084 0.363389,-0.133776 7.505605,-1.509191 15.871551,-3.056496 l 15.210804,-2.813282 15.448794,2.886535 15.448794,2.886523 0.137423,24.151874 0.137423,24.15189 -2.251934,1.13778 c -4.504442,2.275863 -17.195516,9.748498 -22.966634,13.522999 -3.252442,2.127168 -6.015435,3.867623 -6.139929,3.867623 -0.124465,0 -0.793711,-0.445331 -1.487066,-0.9896 z"
         id="path1"
         sodipodi:nodetypes="sscssscsscccssssssscccccccccssssscsscssscccccssscc" /><text
         xml:space="preserve"
         style="font-size:6.06284px;line-height:1;font-family:'Tilt Warp';-inkscape-font-specification:'Tilt Warp';text-align:end;letter-spacing:0.0854858px;word-spacing:0.0288743px;writing-mode:lr-tb;direction:ltr;text-anchor:end;fill:#ffffff;fill-opacity:1;stroke-width:0.224364"
         x="54.546875"
         y="31.271088"
         id="text1"><tspan
           sodipodi:role="line"
           id="tspan1"
           style="font-style:normal;font-variant:normal;font-weight:normal;font-stretch:normal;font-family:'Lifestyle Rounded M54';-inkscape-font-specification:'Lifestyle Rounded M54';fill:#ffffff;stroke-width:0.224364"
           x="54.632362"
           y="31.271088">рч</tspan></text><path
         style="fill:#ffffff;stroke-width:0.338465"
         d="m 49.049781,74.808565 -1.447134,-0.354468 -0.31529,-0.276956 C 47.114071,74.02495 46.820118,73.753178 46.634475,73.573352 l -0.33759,-0.326983 0.626119,-9.368836 c 0.344342,-5.152833 0.635673,-9.378374 0.647397,-9.390079 0.01206,-0.01175 0.185943,0.08987 0.387256,0.225694 l 0.366011,0.24697 0.254956,-0.04837 c 0.312095,-0.05916 0.361399,-0.09638 0.127779,-0.09638 -0.09644,0 -0.229943,-0.0208 -0.296544,-0.04611 -0.09071,-0.03448 -2.038748,-1.78456 -2.815552,-2.529346 -0.0666,-0.06377 -0.12808,-0.510393 -0.329092,-2.391437 -0.135917,-1.272152 -0.247121,-2.377521 -0.246819,-2.456374 2.41e-4,-0.07883 0.112108,-0.431985 0.248627,-0.784735 l 0.248025,-0.641369 1.711825,-1.070488 c 0.9415,-0.588767 1.737199,-1.084801 1.76824,-1.102308 0.03345,-0.01899 0.174191,0.115906 0.346059,0.331052 l 0.289615,0.362873 0.08016,0.598969 c 0.04399,0.329434 0.08016,0.635795 0.07986,0.68081 -6e-5,0.04503 -0.281175,0.509539 -0.624401,1.032284 l -0.624312,0.950451 -0.5798,-0.386163 -0.5798,-0.386165 -0.108794,0.132994 c -0.05997,0.07314 -0.109095,0.143932 -0.109697,0.157342 -3.62e-4,0.01356 0.250737,0.165331 0.558161,0.337646 l 0.558825,0.313304 0.145259,0.377098 0.14556,0.377107 -0.323728,0.685407 c -0.178108,0.376977 -0.314628,0.694253 -0.303598,0.705063 0.01206,0.01085 0.08981,0.02712 0.175094,0.03632 0.14978,0.01627 0.167862,-0.0036 0.562774,-0.61634 l 0.40799,-0.633037 0.532847,-0.05738 c 0.292928,-0.03156 0.615331,-0.06787 0.716199,-0.08067 l 0.183231,-0.02321 0.644472,0.752544 c 0.576426,0.673107 0.690523,0.838413 1.080853,1.565876 0.421643,0.785856 0.439212,0.831423 0.520521,1.348972 l 0.08409,0.53565 -0.292326,0.885935 c -0.283285,0.858561 -0.297148,0.887444 -0.44747,0.934674 -0.08529,0.02683 -0.494784,0.150443 -0.909917,0.274756 -0.415103,0.124315 -0.768636,0.240582 -0.785573,0.258362 -0.01808,0.01778 0.009,1.160833 0.05726,2.540129 0.07413,2.106193 0.116628,2.782099 0.266106,4.220765 l 0.177807,1.712969 -0.181423,1.208723 c -0.284189,1.894303 -0.285997,1.893217 0.140739,0.0886 l 0.31098,-1.314773 -0.161231,-1.753022 c -0.155204,-1.68883 -0.161232,-1.838761 -0.163642,-4.095909 l -0.0025,-2.342883 0.937372,-0.322891 0.937371,-0.322893 1.324629,-0.161142 1.324628,-0.16114 0.02712,0.246096 c 0.01506,0.135344 0.180217,1.944311 0.366582,4.019945 0.186245,2.075605 0.525313,5.840553 0.753508,8.366551 0.228135,2.525996 0.414831,4.641352 0.414831,4.700841 0,0.0666 -0.325506,0.519467 -0.846328,1.177622 l -0.846359,1.069521 -0.870137,0.372972 -0.870167,0.373002 -1.314743,0.128081 c -0.72313,0.07022 -1.402412,0.13652 -1.509547,0.147067 -0.130492,0.01206 -0.673285,-0.09825 -1.641908,-0.335362 z m 3.005382,-1.174307 c 1.25875,-0.09584 2.333153,-0.182929 2.387519,-0.193778 0.05757,-0.01206 0.469651,-0.48041 0.989448,-1.125968 l 0.8906,-1.106016 -0.02712,-0.222711 C 56.2501,70.626405 54.95353,56.197588 54.95353,56.05195 c 0,-0.07296 -0.01206,-0.119342 -0.03014,-0.103069 -0.01506,0.01627 0.06298,3.323253 0.175999,7.348852 l 0.205533,7.319299 -0.588631,1.193022 -0.58863,1.193022 -0.816794,0.125971 c -0.449248,0.06932 -0.820502,0.123862 -0.825023,0.121752 -0.003,-0.0025 -0.088,-1.209055 -0.185943,-2.681563 -0.09765,-1.47251 -0.187149,-2.686807 -0.198601,-2.69841 -0.01206,-0.01206 -0.02109,0.0452 -0.02109,0.126273 0,0.243806 -0.291119,5.338022 -0.306007,5.35282 -0.009,0.009 -0.459434,0.08197 -1.004215,0.165148 l -0.990534,0.151589 -0.439513,-0.101265 c -0.241696,-0.05576 -0.448524,-0.09222 -0.459584,-0.08107 -0.01506,0.01507 0.742447,0.296244 0.862482,0.319449 0.01205,0.0025 1.054242,-0.07354 2.313021,-0.169368 z M 52.810509,54.57885 c 3.31e-4,-0.09749 0.03284,-0.526745 0.07232,-0.953866 0.05335,-0.577509 0.05997,-0.909975 0.02712,-1.296936 -0.04249,-0.483598 -0.07142,-0.584251 -0.408111,-1.424841 -0.361218,-0.90145 -0.527784,-1.181805 -1.316793,-2.216265 -0.0422,-0.05536 0.130191,-0.06012 1.067683,-0.02984 0.982245,0.03192 1.210803,0.05536 1.881736,0.193568 l 0.763694,0.157253 0.09523,-0.224939 c 0.05244,-0.123712 0.385569,-0.926129 0.740428,-1.783156 0.35486,-0.85703 0.6637,-1.57869 0.686333,-1.603682 0.02109,-0.02502 0.05635,-0.03014 0.07504,-0.01146 0.01808,0.01868 0.04973,1.058081 0.06872,2.309755 l 0.03465,2.275778 -0.362605,1.576011 -0.362604,1.575998 -0.363208,0.479598 c -0.301729,0.398444 -0.394037,0.487971 -0.545353,0.529047 -0.100049,0.02712 -0.625879,0.178982 -1.168219,0.337297 l -0.986073,0.287865 z M 34.894907,52.952179 c -0.0645,-0.03309 -0.156109,-0.114941 -0.203724,-0.181905 -0.08228,-0.115514 -1.268484,-4.484503 -1.328095,-4.891987 -0.01507,-0.106112 0.05847,-1.157921 0.164246,-2.337351 0.105779,-1.179436 0.24712,-2.768942 0.314145,-3.532229 0.06691,-0.763293 0.133505,-1.455181 0.147669,-1.537529 0.02712,-0.153546 0.221203,-0.370787 0.383821,-0.428269 0.08649,-0.03062 3.278963,0.230817 3.536481,0.289613 0.147971,0.03375 0.336115,0.200621 0.393314,0.348688 0.02712,0.06826 -0.01206,0.703715 -0.102464,1.70024 -0.07956,0.875188 -0.144657,1.640641 -0.144657,1.701018 0,0.136639 -0.25134,0.111897 3.676436,0.362209 1.687293,0.107528 3.092508,0.204327 3.122735,0.215086 0.03014,0.01085 0.126874,0.312632 0.214874,0.670837 l 0.160026,0.651275 -0.254957,0.655117 c -0.245011,0.629779 -0.253751,0.667827 -0.222107,0.983575 l 0.03284,0.328454 -0.13893,-0.02502 c -0.07625,-0.01387 -1.58507,-0.188324 -3.352707,-0.387874 -1.767608,-0.199535 -3.28267,-0.372628 -3.366752,-0.384656 l -0.152793,-0.022 -0.03134,0.373454 c -0.01808,0.205412 -0.05485,0.483022 -0.08348,0.616931 -0.02712,0.133898 -0.501806,1.235469 -1.0515,2.447911 -0.757455,1.670703 -1.034201,2.233671 -1.142963,2.325185 -0.158218,0.133144 -0.380657,0.156228 -0.569584,0.05916 z m 22.916666,-3.562815 c -0.503162,-0.06184 -0.92393,-0.121541 -0.935082,-0.132691 -0.01205,-0.01115 -0.03586,-0.879549 -0.05455,-1.929792 l -0.03436,-1.909521 h 0.14104 c 0.364986,0 2.402287,0.157585 2.5574,0.197817 0.300765,0.07803 0.496533,0.244862 0.651858,0.555826 0.136217,0.272587 0.144956,0.325089 0.141038,0.827816 -0.009,1.038752 -0.157313,1.778621 -0.4302,2.136367 -0.289916,0.380081 -0.648482,0.424819 -2.037091,0.254172 z m -3.47021,-0.959117 c -0.213067,-0.135555 -0.403952,-0.262371 -0.424566,-0.281809 -0.03043,-0.02862 0.528508,-3.778849 0.623589,-4.184492 0.02712,-0.110903 0.03737,-0.113284 0.377703,-0.08086 0.607104,0.05786 0.680878,0.08803 1.137721,0.46545 0.236873,0.195647 0.435595,0.358647 0.441713,0.362218 0.009,0.006 -1.734578,3.931462 -1.758175,3.955058 -0.006,0.006 -0.185039,-0.100028 -0.397985,-0.235577 z m -2.042725,-0.328931 -0.925197,-0.07877 0.01206,-0.365211 c 0.006,-0.200862 0.03617,-1.329369 0.0666,-2.507789 0.03043,-1.178414 0.06901,-2.157299 0.08589,-2.1753 0.01808,-0.01808 0.347537,-0.08879 0.734823,-0.157344 l 0.704145,-0.124615 0.649475,0.299709 c 0.35724,0.164848 0.65698,0.312334 0.666142,0.327779 0.01506,0.02471 -0.712824,4.484259 -0.777105,4.763647 -0.03014,0.12778 0.05847,0.126484 -1.216377,0.01778 z m -2.385802,-0.01687 c -0.481946,-0.02471 -0.878937,-0.04879 -0.882222,-0.0534 -0.003,-0.0042 -0.01808,-0.113043 -0.03104,-0.241003 -0.02411,-0.224941 -0.009,-0.261256 0.483512,-1.095638 l 0.508528,-0.86298 -0.08167,-0.730426 -0.08167,-0.730423 -0.270025,-0.389556 c -0.148574,-0.214241 -0.285695,-0.407605 -0.304682,-0.429665 -0.01808,-0.022 -0.234161,0.06015 -0.478118,0.182599 -0.243806,0.122475 -0.461363,0.22271 -0.483303,0.22271 -0.02109,0 -0.0895,-0.270989 -0.149778,-0.602222 -0.06057,-0.331229 -0.12115,-0.644204 -0.134411,-0.695504 -0.02109,-0.08472 0.05063,-0.108461 0.794162,-0.258602 l 0.818543,-0.165331 0.723823,0.188235 0.723854,0.188233 -0.03556,2.729945 c -0.01808,1.501474 -0.04521,2.746378 -0.05726,2.766467 -0.01206,0.02019 -0.05876,0.03321 -0.103971,0.02924 -0.04521,-0.0042 -0.476643,-0.02772 -0.958589,-0.0525 z m -4.680229,-3.171357 -0.197697,-0.79657 0.49379,-0.527178 0.49382,-0.527179 0.67898,-0.06184 c 0.373424,-0.03399 0.756612,-0.06284 0.851542,-0.06407 l 0.172683,-0.0025 0.110602,0.566706 c 0.06088,0.311688 0.09252,0.582886 0.07082,0.602661 -0.09222,0.08372 -2.40319,1.606241 -2.438209,1.606241 -0.02109,0 -0.127479,-0.358449 -0.236272,-0.796561 z"
         id="path2"
         sodipodi:nodetypes="ccsscssscsscsssscssscssscccscscccsscsccccssscssscsscsscsccccccssssscccssccssscsssscccscssssscsssssssssscscsscsscccscscsssssssscsssssscssccsscssssssssscssssssscssssssccsssscsssscccsscccssssssscccsssccccccsccssscc" /><path
         style="fill:#ffffff;stroke-width:0.346361"
         d="m 43.50252,78.490063 c -0.137424,-0.08529 -0.269724,-0.206436 -0.293833,-0.269723 -0.04399,-0.114821 0.89292,-1.006837 1.715049,-1.632566 0.477275,-0.363267 2.699434,-1.700945 3.616585,-2.177104 0.314838,-0.163341 0.572566,-0.330599 0.572747,-0.371496 1.81e-4,-0.04098 -0.195587,-0.0458 -0.434963,-0.009 -0.443009,0.06479 -1.022237,0.260984 -2.814526,0.953254 -1.149684,0.444094 -2.974341,0.934086 -4.310572,1.15761 -1.145074,0.19167 -3.618483,0.216985 -4.392364,0.04521 -0.76291,-0.169369 -2.096037,-0.697815 -2.808257,-1.11325 -0.53556,-0.312367 -1.229698,-0.89741 -1.154296,-0.972812 0.01506,-0.01507 0.312035,0.03104 0.658969,0.10367 1.902951,0.398136 3.468342,0.26912 6.687905,-0.551382 2.983262,-0.760258 3.785471,-0.889183 5.544279,-0.89099 1.080822,-0.0011 1.825801,0.05846 3.115802,0.249531 1.856723,0.275148 2.564121,0.277258 4.456404,0.01206 3.038411,-0.424024 5.38606,-0.364774 6.90715,0.174491 0.655804,0.232354 2.791532,0.752061 3.938836,0.958287 1.619214,0.291121 2.625238,0.328189 3.831519,0.141341 0.569102,-0.0883 1.061174,-0.133807 1.09345,-0.101561 0.118739,0.118739 -0.576967,0.704235 -1.250974,1.052465 -1.768995,0.913925 -3.440587,1.221169 -5.638908,1.036431 -2.082777,-0.175095 -3.584097,-0.542582 -6.212318,-1.520909 -2.907769,-1.08239 -3.360242,-0.957112 -1.031006,0.285394 1.700794,0.907295 2.495409,1.436797 3.570414,2.379172 0.521396,0.457083 0.757065,0.723702 0.721503,0.816343 -0.08016,0.208847 -0.529109,0.40573 -0.924745,0.40573 -0.334336,0 -0.401209,-0.05395 -1.237352,-0.997103 -1.266404,-1.428539 -2.573312,-2.446255 -3.962643,-3.085726 -1.538992,-0.708393 -2.787585,-0.664183 -4.39812,0.155806 -1.263872,0.643419 -2.052912,1.253959 -3.384652,2.619 -1.175934,1.205317 -1.301936,1.307933 -1.603695,1.305672 -0.180217,-0.0011 -0.439965,-0.07203 -0.577359,-0.157313 z m -7.631306,-5.352156 c -1.995531,-0.254957 -4.06776,-1.219029 -5.697914,-2.650975 -0.844702,-0.741996 -1.760074,-2.002553 -1.661677,-2.288279 0.01506,-0.04521 0.605627,0.166656 1.311248,0.470765 1.571839,0.677293 2.941944,1.188411 4.032229,1.504153 1.4902,0.431618 5.19418,1.328305 5.486807,1.328275 0.264902,-3e-5 0.23356,-0.03405 -0.412119,-0.447711 -1.342047,-0.85986 -2.417204,-2.106947 -2.971809,-3.447035 -0.632569,-1.528503 -1.403104,-4.029427 -1.279514,-4.152988 0.09885,-0.09885 0.342473,0.110301 0.805042,0.68995 0.275449,0.345185 0.652157,0.74308 0.837197,0.884211 0.465039,0.354709 2.143593,2.237438 2.768055,3.104712 0.283888,0.394068 0.814113,1.241089 1.178646,1.882308 0.634468,1.116022 0.690854,1.184613 1.3205,1.605532 0.361761,0.241998 0.634257,0.477667 0.605566,0.524108 -0.0889,0.144053 -1.472237,0.539929 -2.547334,0.729067 -0.951566,0.16756 -2.787493,0.384123 -3.028617,0.357451 -0.05757,-0.006 -0.393495,-0.04852 -0.746306,-0.09343 z m 27.813157,-0.212765 c -1.173251,-0.197998 -3.207448,-0.749802 -3.207448,-0.870197 0,-0.177807 1.394003,-2.021781 2.877632,-3.806235 1.98411,-2.386465 3.769197,-4.247134 4.568211,-4.761628 l 0.251943,-0.162135 0.01206,0.26249 c 0.04882,1.11126 -0.161231,2.013463 -0.742961,3.195093 -0.248024,0.504036 -0.669184,1.205075 -0.935562,1.557886 -0.611957,0.810526 -1.974285,2.166587 -2.712695,2.700218 -0.311403,0.225121 -0.531853,0.443492 -0.489933,0.485442 0.08649,0.0865 1.345724,-0.04913 2.441163,-0.262792 2.806088,-0.547313 4.964057,-1.307993 7.459646,-2.629578 l 1.04478,-0.553249 -0.0651,0.267313 c -0.190765,0.784337 -1.349822,2.14305 -2.448215,2.869767 -1.853888,1.226563 -3.992027,1.851929 -6.266112,1.832763 -0.604844,-0.003 -1.408981,-0.06148 -1.787016,-0.12537 z M 34.221653,69.02925 C 33.61684,68.891827 32.644509,68.67427 32.060912,68.546159 29.522829,67.989052 28.092512,67.06467 26.48707,64.94395 25.886566,64.150661 25.543822,63.435127 25.236668,62.333359 25.103766,61.856988 24.897842,61.13877 24.778801,60.73729 c -0.11904,-0.401482 -0.203121,-0.743081 -0.187149,-0.759144 0.01506,-0.01506 0.281477,0.339098 0.589806,0.78925 0.701341,1.024014 1.462804,1.725266 3.004086,2.766669 1.179671,0.797085 1.614633,1.145797 4.155338,3.331461 0.679251,0.584351 1.289941,1.06244 1.357115,1.06244 0.142246,0 0.185342,0.07685 -0.660144,-1.174638 -1.012141,-1.498276 -1.310434,-2.446889 -1.740515,-5.535057 -0.273641,-1.965334 -0.358536,-3.014754 -0.256162,-3.167306 0.05425,-0.08076 0.229943,0.16093 0.565727,0.778973 0.267914,0.492856 0.640525,1.16418 0.828126,1.491797 0.791148,1.381465 1.736055,3.914576 2.102427,5.635923 0.107285,0.504036 0.301366,1.266947 0.431316,1.69537 0.129889,0.428424 0.289312,0.954279 0.354227,1.168551 0.06479,0.214272 0.09101,0.404947 0.05816,0.423722 -0.03285,0.01808 -0.554666,-0.07835 -1.159509,-0.21608 z m 33.157628,0.122657 c 0.02712,-0.09343 0.215177,-0.726717 0.420076,-1.407143 0.204929,-0.680456 0.438639,-1.566535 0.519587,-1.969071 0.38825,-1.931039 1.270291,-4.226189 2.255068,-5.868036 0.331986,-0.553461 0.71222,-1.222798 0.844942,-1.487427 0.132602,-0.264601 0.278764,-0.481103 0.324332,-0.481103 0.160628,0 -0.06992,2.547937 -0.410402,4.536236 -0.336777,1.965545 -0.810135,3.164414 -1.839393,4.65859 -0.813962,1.18163 -0.472875,1.0669 1.054543,-0.354708 0.971426,-0.904161 2.29946,-1.942822 4.454023,-3.483471 1.307601,-0.935051 2.039741,-1.64025 2.677374,-2.578948 0.283888,-0.418055 0.532365,-0.744014 0.552014,-0.724395 0.05093,0.05093 -0.790546,2.94767 -0.994511,3.423468 -0.09343,0.218491 -0.301367,0.59101 -0.461513,0.827976 -0.459133,0.67916 -1.978956,2.458793 -2.35232,2.754523 -0.710714,0.562894 -1.984713,1.070155 -3.590727,1.429625 -0.378005,0.08469 -1.140915,0.291724 -1.69534,0.460489 -0.554455,0.168766 -1.187476,0.33512 -1.406751,0.369988 -0.35947,0.05726 -0.394037,0.04671 -0.351002,-0.106684 z M 29.966652,63.216093 c -0.05936,-0.07142 -0.837558,-0.678859 -1.729484,-1.349853 -0.891986,-0.670993 -2.007827,-1.591971 -2.479707,-2.046613 -0.710172,-0.684254 -0.925318,-0.960788 -1.249106,-1.605592 -1.029168,-2.049483 -2.219659,-6.048315 -1.800668,-6.048315 0.04339,0 0.313723,0.443304 0.601077,0.985144 0.384182,0.724441 0.825896,1.348895 1.669241,2.359764 1.636513,1.961592 2.411448,3.020414 3.156367,4.312796 0.635703,1.102853 0.909555,1.47471 0.909555,1.235093 0,-0.06088 -0.07956,-0.426676 -0.1766,-0.813089 -0.523295,-2.08115 -0.619039,-4.064946 -0.30182,-6.252599 0.222409,-1.534178 0.460791,-2.651881 0.565395,-2.651881 0.164245,0 0.63489,2.101498 0.931646,4.160347 0.210052,1.456521 0.210052,1.457455 0.05244,3.207464 -0.166656,1.854732 -0.19619,3.602841 -0.07142,4.247736 0.08348,0.430774 0.07866,0.447018 -0.07685,0.259779 z m 42.764695,-0.250135 c 0.07625,-0.425862 0.07806,-0.984656 0.01808,-4.935245 -0.03526,-2.323627 -0.02109,-2.616628 0.174492,-3.757311 0.319328,-1.855574 0.657523,-3.155194 0.772614,-2.968995 0.03014,0.04752 0.184135,0.745377 0.344161,1.550657 0.501987,2.528119 0.480198,4.033046 -0.100652,6.952689 -0.149478,0.750554 -0.250736,1.385323 -0.225421,1.410578 0.09825,0.09855 0.300462,-0.18745 0.829331,-1.173312 0.601679,-1.121537 1.737229,-2.685782 3.299094,-4.544496 0.631304,-0.751311 1.226895,-1.582418 1.593689,-2.223832 0.322101,-0.563302 0.601709,-1.008112 0.621329,-0.988469 0.07022,0.07034 -0.16967,1.407996 -0.433065,2.412575 -0.363358,1.386488 -0.664937,2.203798 -1.198657,3.248697 -0.39467,0.772675 -0.570969,0.998218 -1.43309,1.833727 -0.792625,0.768155 -2.503154,2.188136 -4.110043,3.411836 l -0.223012,0.169971 z M 26.451539,56.019799 c -0.191067,-0.167891 -0.443582,-0.474882 -0.561477,-0.682177 -0.117834,-0.20731 -0.556263,-0.974871 -0.974169,-1.705703 -1.330625,-2.326963 -2.126294,-4.188538 -2.52642,-5.91087 -0.217285,-0.935369 -0.22934,-3.082626 -0.02109,-3.711477 l 0.136821,-0.412392 0.157011,0.549855 c 0.17178,0.602005 0.297751,0.919082 0.909074,2.291035 0.224519,0.504029 0.872457,2.30821 1.43966,4.00931 0.567234,1.70109 1.063042,3.092899 1.101828,3.092899 0.109095,0 0.181724,-0.255137 0.181724,-0.637499 0,-0.601385 0.372641,-2.581399 0.647517,-3.440545 0.29534,-0.923159 0.732352,-1.809392 1.340329,-2.718269 0.72304,-1.08086 0.724095,-1.080564 0.789643,0.219696 0.03104,0.618164 0.01808,1.399244 -0.03014,1.735723 -0.122656,0.862877 -0.849614,2.970565 -1.416847,4.107753 -0.629767,1.262537 -0.703662,1.512015 -0.770233,2.600414 l -0.05605,0.917514 z m 49.420836,-0.53215 c -3.02e-4,-0.788132 -0.009,-0.82539 -0.605687,-2.176472 -1.438636,-3.266683 -1.604689,-3.868172 -1.650678,-5.979603 -0.01808,-0.768639 0.006,-1.397538 0.04821,-1.397538 0.264902,0 1.357839,1.700162 1.756187,2.731922 0.39033,1.011077 0.90172,3.136238 0.980467,4.074607 0.03707,0.442193 0.108793,0.813344 0.159121,0.824764 0.05033,0.01146 0.609455,-1.52568 1.242355,-3.415784 0.723221,-2.159855 1.311911,-3.753649 1.584678,-4.290091 0.238683,-0.469443 0.498552,-1.139574 0.57751,-1.489179 0.287806,-1.274009 0.424054,-0.609002 0.37701,1.838692 -0.03195,1.66439 -0.03887,1.715368 -0.378457,2.790505 -0.450453,1.426433 -1.053548,2.765752 -1.859042,4.128413 -0.357511,0.604834 -0.865405,1.491468 -1.128649,1.970292 -0.263395,0.478833 -0.567504,0.94185 -0.676117,1.02893 -0.373243,0.299257 -0.426585,0.219395 -0.426887,-0.639458 z m 1.015455,-5.550258 c -0.05424,-0.141883 -0.09884,-0.372429 -0.09884,-0.512312 0,-0.438138 -0.507773,-1.291215 -1.559815,-2.620443 -1.167315,-1.474916 -1.9446,-2.715439 -2.791954,-4.455825 -0.59104,-1.213996 -1.0251,-2.340304 -0.936197,-2.42924 0.02411,-0.02531 0.369808,0.280693 0.765473,0.680026 0.395664,0.399347 0.946202,0.900138 1.223399,1.112872 1.382371,1.060797 2.371698,2.43711 2.889235,4.019473 0.08559,0.261346 0.191971,0.452536 0.236875,0.424877 0.117231,-0.07251 0.101867,-0.692889 -0.06298,-2.531761 -0.130492,-1.455482 -0.131396,-1.779511 -0.009,-3.161631 0.145861,-1.652033 0.144054,-1.695704 -0.134711,-3.128692 -0.101264,-0.520983 -0.168765,-0.962581 -0.150081,-0.98133 0.04912,-0.04903 0.862964,1.089819 1.068497,1.494973 0.25797,0.508177 0.709417,1.977619 0.894728,2.911247 0.233559,1.177435 0.213669,3.22632 -0.0458,4.66099 -0.232052,1.28298 -0.902353,4.096002 -1.071479,4.495876 l -0.117835,0.278856 z M 25.571969,49.805905 c -0.166054,-0.404558 -0.265203,-0.788776 -0.692511,-2.680518 -0.552858,-2.448184 -0.637994,-3.115634 -0.572296,-4.486129 0.127177,-2.651759 0.662796,-4.452984 1.780928,-5.988202 0.175998,-0.241786 0.334156,-0.425599 0.351273,-0.408499 0.01808,0.01718 -0.04882,0.412324 -0.146163,0.878273 -0.280572,1.340659 -0.302903,1.878535 -0.141642,3.421703 0.136821,1.30953 0.137724,1.565493 0.009,2.910961 -0.155807,1.632116 -0.18082,2.663842 -0.06479,2.663842 0.04158,0 0.205231,-0.340601 0.363419,-0.756889 0.448072,-1.179557 1.156194,-2.289692 1.87622,-2.941347 0.342201,-0.3097 1.099356,-1.006403 1.682561,-1.548231 0.583206,-0.54184 1.096645,-0.985145 1.140976,-0.985145 0.228436,0 -1.174096,3.10631 -2.089528,4.627891 -0.2426,0.403217 -0.925257,1.34501 -1.517021,2.092864 -1.308565,1.65367 -1.479711,1.938998 -1.671683,2.787032 -0.08257,0.365423 -0.162738,0.664403 -0.177806,0.664403 -0.01507,0 -0.07384,-0.113374 -0.130793,-0.252002 z M 27.10228,40.84795 c -0.0452,-3.413755 0.04551,-4.0997 0.712884,-5.406837 0.622172,-1.218222 1.883785,-2.923639 2.345719,-3.170862 0.171479,-0.09185 0.172382,-0.08556 0.02712,0.196732 -0.267011,0.516312 -0.397986,0.980482 -0.600052,2.126503 -0.108793,0.617398 -0.380084,1.699887 -0.602644,2.405532 -0.404585,1.282636 -0.597851,2.336847 -0.428423,2.336847 0.04852,0 0.287806,-0.310148 0.531823,-0.689235 0.536975,-0.834189 0.987699,-1.261757 2.041429,-1.936511 1.463077,-0.936917 1.896141,-1.247063 2.4383,-1.746181 0.295641,-0.272104 0.554817,-0.47729 0.576123,-0.455986 0.0672,0.06711 -0.335873,1.001993 -0.678799,1.574654 -0.484719,0.809553 -1.491736,2.133021 -2.100709,2.76092 -0.472935,0.487608 -1.115208,0.993793 -2.870248,2.262044 -0.632117,0.456821 -1.099688,0.892957 -1.099688,1.025817 0,0.05612 -0.06057,0.182026 -0.13441,0.279881 -0.119945,0.158729 -0.137122,-0.009 -0.157615,-1.563306 z m 48.326603,1.64798 c -0.04068,-0.261828 -0.987399,-1.152927 -1.930256,-1.816561 -1.698925,-1.195753 -3.086419,-2.624787 -4.142379,-4.266362 -0.441834,-0.686897 -0.885174,-1.711099 -0.784307,-1.811957 0.03044,-0.03035 0.381259,0.249382 0.779908,0.621566 0.440778,0.411544 1.146098,0.928072 1.800034,1.318201 1.363746,0.813606 1.739912,1.145857 2.387067,2.108495 0.287806,0.428017 0.565064,0.778206 0.616296,0.778206 0.168163,0 -0.009,-0.92341 -0.431768,-2.26713 -0.226327,-0.71728 -0.458199,-1.583126 -0.514976,-1.924095 -0.242601,-1.455471 -0.368512,-1.971619 -0.586732,-2.402294 -0.127177,-0.251218 -0.231449,-0.487789 -0.231449,-0.525688 0,-0.173135 1.163186,1.104557 1.642299,1.804009 1.146521,1.673702 1.576902,2.88881 1.574371,4.444599 -0.0011,0.880517 -0.148273,4.130843 -0.178108,3.939011 z M 44.322207,35.764145 c 0.781987,-2.317258 1.400573,-4.26857 1.374595,-4.336248 -0.02712,-0.06768 -1.360732,-1.046273 -2.966113,-2.174643 -1.605413,-1.128369 -3.26944,-2.30087 -3.697863,-2.605567 l -0.778944,-0.553991 4.707563,-0.0458 4.707593,-0.0458 0.337893,-1.008067 c 2.089829,-6.235127 2.512768,-7.467633 2.549745,-7.430632 0.05485,0.05485 0.275449,0.693407 1.720384,4.97923 l 1.181719,3.505283 H 58.1592 c 2.585217,0 4.698612,0.03092 4.696473,0.06871 -0.009,0.142938 -1.86733,1.459478 -5.900524,4.178317 -0.885597,0.596978 -1.610144,1.115269 -1.610144,1.151759 0,0.03652 0.636247,1.970828 1.413864,4.298523 0.777646,2.327683 1.396594,4.23216 1.375408,4.23216 -0.02109,0 -1.698685,-1.162147 -3.727818,-2.582556 -2.029134,-1.420399 -3.751627,-2.58392 -3.827753,-2.585592 -0.119642,-0.0022 -5.775667,3.822827 -7.120246,4.815759 -0.262491,0.193809 -0.495388,0.352389 -0.517628,0.352389 -0.02109,0 0.599359,-1.895945 1.381375,-4.21322 z m 3.329231,-0.277196 c 1.505509,-1.058458 2.780473,-1.924467 2.833242,-1.924467 0.05274,0 1.363806,0.866237 2.913435,1.924969 1.718333,1.17399 2.827786,1.877655 2.843879,1.803712 0.01506,-0.06666 -0.448825,-1.51772 -1.02968,-3.2245 -0.580856,-1.70678 -1.046377,-3.109986 -1.034473,-3.118244 2.571564,-1.782911 5.382444,-3.770209 5.517577,-3.900926 0.177807,-0.172111 0.125671,-0.174824 -3.369795,-0.174824 h -3.550524 l -0.09041,-0.206195 c -0.04973,-0.113374 -0.539055,-1.525836 -1.087392,-3.13872 -0.649114,-1.909358 -1.040138,-2.932535 -1.120723,-2.932535 -0.126876,0 -0.589384,1.285724 -1.417179,3.940593 -0.235668,0.756031 -0.523956,1.591116 -0.640495,1.855734 l -0.211861,0.481114 h -3.487388 c -2.731681,0 -3.486273,0.02471 -3.482114,0.11455 0.0022,0.06298 0.692421,0.588798 1.532179,1.16842 1.704412,1.176395 3.985307,2.761185 4.046967,2.811832 0.03134,0.02562 -1.869741,5.836629 -2.070663,6.3294 -0.02712,0.06298 0.0011,0.11455 0.06057,0.11455 0.05907,0 1.339185,-0.866006 2.844694,-1.924463 z m 24.578947,1.289576 c -1.236358,-0.681651 -3.03151,-2.477963 -3.751597,-3.754026 -0.131094,-0.232234 -0.479867,-0.837487 -0.775146,-1.344976 -0.295339,-0.507503 -0.536915,-0.967404 -0.536915,-1.022002 0,-0.149539 0.753628,0.102163 1.417419,0.473357 0.730935,0.408774 1.542275,1.011122 2.07904,1.543511 0.632781,0.627627 1.714989,2.492878 2.106344,3.630353 0.290819,0.845619 0.230848,0.89836 -0.539145,0.473783 z M 29.792733,36.618066 c 0.271533,-0.983506 1.252542,-2.841209 1.948157,-3.689198 0.474834,-0.578857 1.413472,-1.328897 2.292348,-1.831748 0.684374,-0.391572 1.517232,-0.704343 1.517232,-0.569786 0,0.127297 -1.535314,2.750785 -1.844365,3.151585 -1.059848,1.37445 -2.243195,2.484183 -3.18322,2.985214 -0.734823,0.391651 -0.849041,0.384445 -0.730152,-0.04605 z"
         id="path4"
         sodipodi:nodetypes="csssscssssccssccssscssssssscssscccsssssssssssssssscsscsssccssscsscssccccssssssssssscssssscccsssssssssssscssssssssssssssssssssscssssscssssssssssscsssssscsssssssscsscsscssssssssssssssscssssssscscssssssccsssssssssssssssssssssscssssssssssscsssssssssscsssscssssscccssscscssssscssscsssscsscssssscscssssccssssssssssssssss" /></g></g></svg>
