<?xml version="1.0" encoding="UTF-8" standalone="no"?>
<!-- Created with Inkscape (http://www.inkscape.org/) -->

<svg
   width="105.83334mm"
   height="105.83334mm"
   viewBox="0 0 105.83333 105.83333"
   version="1.1"
   id="svg1"
   xml:space="preserve"
   inkscape:version="1.4.2 (ebf0e940d0, 2025-05-08)"
   sodipodi:docname="atlanta.svg"
   inkscape:export-filename="../pngs/tempe.png"
   inkscape:export-xdpi="96"
   inkscape:export-ydpi="96"
   xmlns:inkscape="http://www.inkscape.org/namespaces/inkscape"
   xmlns:sodipodi="http://sodipodi.sourceforge.net/DTD/sodipodi-0.dtd"
   xmlns="http://www.w3.org/2000/svg"
   xmlns:svg="http://www.w3.org/2000/svg"><sodipodi:namedview
     id="namedview1"
     pagecolor="#ffffff"
     bordercolor="#000000"
     borderopacity="0.25"
     inkscape:showpageshadow="2"
     inkscape:pageopacity="0.0"
     inkscape:pagecheckerboard="0"
     inkscape:deskcolor="#d1d1d1"
     inkscape:document-units="mm"
     inkscape:zoom="1.4016483"
     inkscape:cx="226.51902"
     inkscape:cy="196.19758"
     inkscape:window-width="1920"
     inkscape:window-height="1011"
     inkscape:window-x="0"
     inkscape:window-y="32"
     inkscape:window-maximized="1"
     inkscape:current-layer="layer1"
     showgrid="false"
     showguides="true" /><defs
     id="defs1"><inkscape:path-effect
       effect="bspline"
       id="path-effect55"
       is_visible="true"
       lpeversion="1.3"
       weight="33.333333"
       steps="2"
       helper_size="0"
       apply_no_weight="true"
       apply_with_weight="true"
       only_selected="false"
       uniform="false" /></defs><g
     inkscape:label="Capa 1"
     inkscape:groupmode="layer"
     id="layer1"><g
       id="g3"
       transform="matrix(1.0264219,0,0,1.0264219,-0.19277891,-0.34315203)"><path
         id="text6-2"
         style="font-size:56.0277px;line-height:1;font-family:'Silvano Western Demo';-inkscape-font-specification:'Silvano Western Demo';text-align:center;letter-spacing:3.5455px;word-spacing:0px;writing-mode:lr-tb;direction:ltr;text-anchor:middle;fill:#e5ae78;fill-opacity:1;stroke:#000000;stroke-width:11.825;stroke-dasharray:none"
         d="m 28.515598,19.989857 v 0.455615 c 2.916484,0 4.557201,1.913337 2.55212,7.746303 L 15.391015,75.493402 c -1.913942,5.924105 -4.82982,7.838771 -7.7463025,7.838771 v 0.455615 H 31.796534 v -0.455615 c -2.916484,0 -4.374432,-1.914666 -2.460492,-7.838771 l 1.366847,-3.918966 c 2.460782,0.27342 5.468338,0.364829 8.475961,0.364829 0.142391,0 0.284376,-3.17e-4 0.427034,-8.41e-4 v 3.646605 c 0,5.832966 -2.277703,7.747144 -5.194185,7.747144 v 0.455615 h 24.972267 v -0.455615 c -2.916484,0 -5.195026,-1.913825 -5.195026,-7.837931 V 56.719018 h 21.873746 v 18.866011 c 0,5.832966 -2.278542,7.747144 -5.195025,7.747144 v 0.455615 h 24.972267 v -0.455615 c -2.916483,0 -5.195026,-1.913825 -5.195026,-7.837931 V 28.192616 c 0,-5.832966 2.278543,-7.747144 5.195026,-7.747144 V 19.989857 H 70.867661 v 0.455615 c 2.916483,0 5.195025,1.913825 5.195025,7.83793 V 44.871336 H 54.18894 v -16.67872 c 0,-5.832966 2.278542,-7.747144 5.195026,-7.747144 V 19.989857 H 40.348151 34.411699 Z M 39.605884,44.593091 V 61.89555 c -1.946871,0.0083 -3.903765,-0.04058 -5.712847,-0.16392 z" /><path
         id="text6"
         style="font-size:56.0277px;line-height:1;font-family:'Silvano Western Demo';-inkscape-font-specification:'Silvano Western Demo';text-align:center;letter-spacing:3.5455px;word-spacing:0px;writing-mode:lr-tb;direction:ltr;text-anchor:middle;fill:#e5ae78;fill-opacity:1;stroke-width:101.725"
         d="m 28.515598,19.989857 v 0.455615 c 2.916484,0 4.557201,1.913337 2.55212,7.746303 L 15.391015,75.493402 c -1.913942,5.924105 -4.82982,7.838771 -7.7463025,7.838771 v 0.455615 H 31.796534 v -0.455615 c -2.916484,0 -4.374432,-1.914666 -2.460492,-7.838771 l 1.366847,-3.918966 c 2.460782,0.27342 5.468338,0.364829 8.475961,0.364829 0.142391,0 0.284376,-3.17e-4 0.427034,-8.41e-4 v 3.646605 c 0,5.832966 -2.277703,7.747144 -5.194185,7.747144 v 0.455615 h 24.972267 v -0.455615 c -2.916484,0 -5.195026,-1.913825 -5.195026,-7.837931 V 56.719018 h 21.873746 v 18.866011 c 0,5.832966 -2.278542,7.747144 -5.195025,7.747144 v 0.455615 h 24.972267 v -0.455615 c -2.916483,0 -5.195026,-1.913825 -5.195026,-7.837931 V 28.192616 c 0,-5.832966 2.278543,-7.747144 5.195026,-7.747144 V 19.989857 H 70.867661 v 0.455615 c 2.916483,0 5.195025,1.913825 5.195025,7.83793 V 44.871336 H 54.18894 v -16.67872 c 0,-5.832966 2.278542,-7.747144 5.195026,-7.747144 V 19.989857 H 40.348151 34.411699 Z M 39.605884,44.593091 V 61.89555 c -1.946871,0.0083 -3.903765,-0.04058 -5.712847,-0.16392 z" /></g></g></svg>
