<?xml version="1.0" encoding="UTF-8" standalone="no"?>
<!-- Created with Inkscape (http://www.inkscape.org/) -->

<svg
   width="105.83334mm"
   height="105.83334mm"
   viewBox="0 0 105.83333 105.83333"
   version="1.1"
   id="svg1"
   xml:space="preserve"
   inkscape:version="1.4.2 (ebf0e940d0, 2025-05-08)"
   sodipodi:docname="austin.svg"
   inkscape:export-filename="../pngs/auburn.png"
   inkscape:export-xdpi="62.082352"
   inkscape:export-ydpi="62.082352"
   xmlns:inkscape="http://www.inkscape.org/namespaces/inkscape"
   xmlns:sodipodi="http://sodipodi.sourceforge.net/DTD/sodipodi-0.dtd"
   xmlns="http://www.w3.org/2000/svg"
   xmlns:svg="http://www.w3.org/2000/svg"><sodipodi:namedview
     id="namedview1"
     pagecolor="#ffffff"
     bordercolor="#000000"
     borderopacity="0.25"
     inkscape:showpageshadow="2"
     inkscape:pageopacity="0.0"
     inkscape:pagecheckerboard="0"
     inkscape:deskcolor="#d1d1d1"
     inkscape:document-units="mm"
     inkscape:zoom="0.70518255"
     inkscape:cx="-116.28195"
     inkscape:cy="178.67714"
     inkscape:window-width="1920"
     inkscape:window-height="1011"
     inkscape:window-x="0"
     inkscape:window-y="32"
     inkscape:window-maximized="1"
     inkscape:current-layer="layer1"
     showgrid="false"
     showguides="true" /><defs
     id="defs1" /><g
     inkscape:label="Capa 1"
     inkscape:groupmode="layer"
     id="layer1"><g
       id="g1"
       transform="matrix(0.95166125,0,0,0.95166125,115.38944,21.805632)"><path
         id="path1-6"
         style="fill:#c46531;fill-opacity:0.988235;stroke:#ffffff;stroke-width:5.28;stroke-dasharray:none"
         d="m -74.289276,49.90138 7.503967,-7.503967 11.068352,9.37996 -9.567558,-32.642257 c -3.057335,10.238991 -6.015884,20.507147 -9.004761,30.766264 z m -3.30228,32.219398 c -5.207318,-1.37165 -8.532539,-2.715338 -8.532539,-3.447908 0,-0.610713 19.554868,-14.331172 20.425278,-14.331172 0.918176,0 20.530906,13.710742 20.530906,14.352618 0,0.726626 -4.85907,2.585972 -9.807713,3.753002 -5.865006,1.383124 -16.720471,1.226384 -22.615932,-0.32654 z m -20.578982,-2.437281 c -0.219628,-0.572374 1.940201,-8.687317 4.799645,-18.033212 2.859445,-9.345893 5.182395,-17.401594 5.162112,-17.901559 -0.02038,-0.499962 -6.394088,-5.672417 -14.164009,-11.494343 -10.03015,-7.515484 -14.1904,-11.029286 -14.34526,-12.116203 l -0.21813,-1.530887 h 18.738342 18.738347 l 2.872075,-8.361888 c 1.579642,-4.5990367 4.270407,-12.5087007 5.97948,-17.5770283 1.709075,-5.0683257 3.524673,-9.6649277 4.034666,-10.2146667 1.49879,-1.615597 2.465145,0.06053 5.889188,10.2146667 1.709074,5.0683276 4.399839,12.9779916 5.979481,17.5770283 l 2.872075,8.361888 h 18.738346 18.738339 l -0.21812,1.530887 c -0.15488,1.086917 -4.315121,4.600719 -14.345263,12.116203 -7.769925,5.821926 -14.143731,10.993248 -14.164012,11.491831 -0.02039,0.498581 2.299069,8.563654 5.154119,17.922387 2.85505,9.358728 5.006176,17.497505 4.780285,18.086167 -0.225898,0.58867 -0.875369,0.97081 -1.443281,0.8492 -0.567914,-0.12159 -7.787458,-4.924858 -16.043435,-10.673896 L -65.646414,59.477273 -80.931757,70.100724 c -8.406938,5.842896 -15.635014,10.623444 -16.062393,10.623444 -0.427378,0 -0.956757,-0.4683 -1.176398,-1.040671 z m -4.820172,-14.117036 c -6.63278,-8.73359 -9.75388,-17.136728 -10.21592,-27.504981 -0.1673,-3.754315 -0.0142,-7.247254 0.34053,-7.762081 0.50327,-0.730709 2.83334,0.73923 10.62164,6.700734 5.487317,4.200229 9.976937,7.788064 9.976937,7.972966 0,1.021483 -6.95373,23.182357 -7.420821,23.649448 -0.306781,0.306782 -1.792846,-1.068457 -3.302366,-3.056086 z m 70.866752,2.042895 c -0.817859,-2.151135 -6.900528,-22.083678 -6.900528,-22.612621 0,-0.894516 19.938343,-15.460072 20.601655,-15.050127 0.49636,0.306773 0.62908,2.866183 0.39963,7.707085 -0.52056,10.982764 -4.394021,21.109557 -11.115445,29.060294 l -2.294026,2.713589 z M -107.96739,13.977452 c 0,-1.194172 4.32064,-7.2944457 7.71231,-10.8889527 4.077485,-4.32134 9.8906,-8.46226 15.136105,-10.7820716 4.022228,-1.77882 11.025172,-3.7626957 11.52339,-3.2644797 0.175615,0.175615 -1.615841,5.9013583 -3.981021,12.7238663 l -4.30033,12.4045577 -13.045228,0.185394 c -7.174876,0.101959 -13.045226,-0.06829 -13.045226,-0.378314 z m 58.359442,-0.319031 c -4.828725,-13.66219566 -8.346307,-24.358638 -8.093579,-24.611367 0.502531,-0.502529 7.487682,1.4723347 11.528498,3.2593737 5.245503,2.3198116 11.058617,6.4607316 15.136103,10.7820716 3.373071,3.574793 7.712309,9.6930387 7.712309,10.8742127 0,0.301931 -5.845896,0.548963 -12.990881,0.548963 -9.776796,0 -13.065491,-0.211116 -13.29245,-0.853254 z" /><path
         id="path1"
         style="fill:#c46531;fill-opacity:0.988235;stroke:none;stroke-width:9.08;stroke-dasharray:none"
         d="m -74.289276,49.90138 7.503967,-7.503967 11.068352,9.37996 -9.567558,-32.642257 c -3.057335,10.238991 -6.015884,20.507147 -9.004761,30.766264 z m -3.30228,32.219398 c -5.207318,-1.37165 -8.532539,-2.715338 -8.532539,-3.447908 0,-0.610713 19.554868,-14.331172 20.425278,-14.331172 0.918176,0 20.530906,13.710742 20.530906,14.352618 0,0.726626 -4.85907,2.585972 -9.807713,3.753002 -5.865006,1.383124 -16.720471,1.226384 -22.615932,-0.32654 z m -20.578982,-2.437281 c -0.219628,-0.572374 1.940201,-8.687317 4.799645,-18.033212 2.859445,-9.345893 5.182395,-17.401594 5.162112,-17.901559 -0.02038,-0.499962 -6.394088,-5.672417 -14.164009,-11.494343 -10.03015,-7.515484 -14.1904,-11.029286 -14.34526,-12.116203 l -0.21813,-1.530887 h 18.738342 18.738347 l 2.872075,-8.361888 c 1.579642,-4.5990367 4.270407,-12.5087007 5.97948,-17.5770283 1.709075,-5.0683257 3.524673,-9.6649277 4.034666,-10.2146667 1.49879,-1.615597 2.465145,0.06053 5.889188,10.2146667 1.709074,5.0683276 4.399839,12.9779916 5.979481,17.5770283 l 2.872075,8.361888 h 18.738346 18.738339 l -0.21812,1.530887 c -0.15488,1.086917 -4.315121,4.600719 -14.345263,12.116203 -7.769925,5.821926 -14.143731,10.993248 -14.164012,11.491831 -0.02039,0.498581 2.299069,8.563654 5.154119,17.922387 2.85505,9.358728 5.006176,17.497505 4.780285,18.086167 -0.225898,0.58867 -0.875369,0.97081 -1.443281,0.8492 -0.567914,-0.12159 -7.787458,-4.924858 -16.043435,-10.673896 L -65.646414,59.477273 -80.931757,70.100724 c -8.406938,5.842896 -15.635014,10.623444 -16.062393,10.623444 -0.427378,0 -0.956757,-0.4683 -1.176398,-1.040671 z m -4.820172,-14.117036 c -6.63278,-8.73359 -9.75388,-17.136728 -10.21592,-27.504981 -0.1673,-3.754315 -0.0142,-7.247254 0.34053,-7.762081 0.50327,-0.730709 2.83334,0.73923 10.62164,6.700734 5.487317,4.200229 9.976937,7.788064 9.976937,7.972966 0,1.021483 -6.95373,23.182357 -7.420821,23.649448 -0.306781,0.306782 -1.792846,-1.068457 -3.302366,-3.056086 z m 70.866752,2.042895 c -0.817859,-2.151135 -6.900528,-22.083678 -6.900528,-22.612621 0,-0.894516 19.938343,-15.460072 20.601655,-15.050127 0.49636,0.306773 0.62908,2.866183 0.39963,7.707085 -0.52056,10.982764 -4.394021,21.109557 -11.115445,29.060294 l -2.294026,2.713589 z M -107.96739,13.977452 c 0,-1.194172 4.32064,-7.2944457 7.71231,-10.8889527 4.077485,-4.32134 9.8906,-8.46226 15.136105,-10.7820716 4.022228,-1.77882 11.025172,-3.7626957 11.52339,-3.2644797 0.175615,0.175615 -1.615841,5.9013583 -3.981021,12.7238663 l -4.30033,12.4045577 -13.045228,0.185394 c -7.174876,0.101959 -13.045226,-0.06829 -13.045226,-0.378314 z m 58.359442,-0.319031 c -4.828725,-13.66219566 -8.346307,-24.358638 -8.093579,-24.611367 0.502531,-0.502529 7.487682,1.4723347 11.528498,3.2593737 5.245503,2.3198116 11.058617,6.4607316 15.136103,10.7820716 3.373071,3.574793 7.712309,9.6930387 7.712309,10.8742127 0,0.301931 -5.845896,0.548963 -12.990881,0.548963 -9.776796,0 -13.065491,-0.211116 -13.29245,-0.853254 z" /></g></g></svg>
