<?xml version="1.0" encoding="UTF-8" standalone="no"?>
<!-- Created with Inkscape (http://www.inkscape.org/) -->

<svg
   width="105.83334mm"
   height="105.83334mm"
   viewBox="0 0 105.83333 105.83333"
   version="1.1"
   id="svg1"
   xml:space="preserve"
   inkscape:version="1.4.2 (ebf0e940d0, 2025-05-08)"
   sodipodi:docname="austin.svg"
   inkscape:export-filename="../pngs/auburn.png"
   inkscape:export-xdpi="62.082352"
   inkscape:export-ydpi="62.082352"
   xmlns:inkscape="http://www.inkscape.org/namespaces/inkscape"
   xmlns:sodipodi="http://sodipodi.sourceforge.net/DTD/sodipodi-0.dtd"
   xmlns="http://www.w3.org/2000/svg"
   xmlns:svg="http://www.w3.org/2000/svg"><sodipodi:namedview
     id="namedview1"
     pagecolor="#ffffff"
     bordercolor="#000000"
     borderopacity="0.25"
     inkscape:showpageshadow="2"
     inkscape:pageopacity="0.0"
     inkscape:pagecheckerboard="0"
     inkscape:deskcolor="#d1d1d1"
     inkscape:document-units="mm"
     inkscape:zoom="1.4103651"
     inkscape:cx="216.9651"
     inkscape:cy="184.34943"
     inkscape:window-width="1920"
     inkscape:window-height="1011"
     inkscape:window-x="0"
     inkscape:window-y="32"
     inkscape:window-maximized="1"
     inkscape:current-layer="layer1"
     showgrid="false"
     showguides="true" /><defs
     id="defs1" /><g
     inkscape:label="Capa 1"
     inkscape:groupmode="layer"
     id="layer1"><path
       style="fill:#c46531;fill-opacity:0.988235;stroke-width:2.57991"
       d="m 40.971125,102.38149 c -5.207318,-1.37165 -8.532539,-2.715338 -8.532539,-3.447908 0,-0.610713 19.554868,-14.331172 20.425278,-14.331172 0.918176,0 20.530905,13.710742 20.530905,14.352618 0,0.726626 -4.85907,2.585972 -9.807713,3.753002 -5.865005,1.38312 -16.72047,1.22638 -22.615931,-0.32654 z M 20.392143,99.944209 C 20.172515,99.371835 22.332344,91.256892 25.191788,81.910997 28.051233,72.565104 30.374183,64.509403 30.3539,64.009438 30.333522,63.509476 23.959812,58.337021 16.189886,52.515095 6.1597446,44.999611 1.9994943,41.485809 1.8446274,40.398892 L 1.6264952,38.868005 H 20.364843 39.10319 l 2.872075,-8.361888 c 1.579642,-4.599037 4.270407,-12.508701 5.97948,-17.577029 1.709075,-5.0683262 3.524673,-9.6649279 4.034666,-10.2146671 1.49879,-1.6155963 2.465145,0.060525 5.889188,10.2146671 1.709073,5.068328 4.399838,12.977992 5.97948,17.577029 l 2.872075,8.361888 h 18.738347 18.738339 l -0.21812,1.530887 c -0.15488,1.086917 -4.315121,4.600719 -14.345263,12.116203 -7.769925,5.821926 -14.143732,10.993248 -14.164013,11.491831 -0.02039,0.498581 2.299069,8.563654 5.15412,17.922387 2.85505,9.358728 5.006176,17.497505 4.780285,18.086167 -0.225898,0.58867 -0.875369,0.97081 -1.443281,0.8492 -0.567914,-0.12159 -7.787459,-4.924858 -16.043436,-10.673896 L 52.916267,79.737985 37.630924,90.361436 c -8.406938,5.842896 -15.635014,10.623444 -16.062393,10.623444 -0.427378,0 -0.956757,-0.4683 -1.176398,-1.040671 z M 15.571973,85.827173 C 8.9391882,77.093583 5.8180893,68.690445 5.3560548,58.322192 5.1887462,54.567877 5.3418602,51.074938 5.6965779,50.560111 c 0.5032767,-0.730709 2.8333444,0.73923 10.6216441,6.700734 5.487316,4.200229 9.976936,7.788064 9.976936,7.972966 0,1.021483 -6.95373,23.182357 -7.420821,23.649448 -0.306781,0.306782 -1.792846,-1.068457 -3.302364,-3.056086 z m 70.86675,2.042895 C 85.620864,85.718933 79.538195,65.78639 79.538195,65.257447 c 0,-0.894516 19.938343,-15.460072 20.601655,-15.050127 0.49636,0.306773 0.62908,2.866183 0.39963,7.707085 -0.52056,10.982764 -4.394021,21.109557 -11.115445,29.060294 l -2.294026,2.713589 z M 10.59529,34.238164 c 0,-1.194172 4.320637,-7.294446 7.712308,-10.888953 4.077488,-4.32134 9.890603,-8.46226 15.136108,-10.782072 4.022228,-1.77882 11.025172,-3.7626953 11.52339,-3.2644793 0.175615,0.1756144 -1.615841,5.9013583 -3.981021,12.7238663 l -4.30033,12.404558 -13.045228,0.185394 C 16.465644,34.718437 10.59529,34.548191 10.59529,34.238164 Z M 68.954732,33.919133 C 64.126007,20.256937 60.608425,9.5604942 60.861153,9.3077649 61.363684,8.8052362 68.348835,10.7801 72.389651,12.567139 c 5.245503,2.319812 11.058618,6.460732 15.136104,10.782072 3.373071,3.574793 7.712309,9.693039 7.712309,10.874213 0,0.301931 -5.845896,0.548963 -12.990881,0.548963 -9.776797,0 -13.065492,-0.211116 -13.292451,-0.853254 z"
       id="path2"
       sodipodi:nodetypes="sssssssscsscccssssscccsscsssscsssssscssssssssscsssssscsscsssssc" /></g></svg>
