<?xml version="1.0" encoding="UTF-8" standalone="no"?>
<!-- Created with Inkscape (http://www.inkscape.org/) -->

<svg
   width="105.83334mm"
   height="105.83334mm"
   viewBox="0 0 105.83333 105.83333"
   version="1.1"
   id="svg1"
   xml:space="preserve"
   inkscape:version="1.4.3 (0d15f75042, 2025-12-25)"
   sodipodi:docname="austin.svg"
   inkscape:export-filename="../pngs/auburn.png"
   inkscape:export-xdpi="62.082352"
   inkscape:export-ydpi="62.082352"
   xmlns:inkscape="http://www.inkscape.org/namespaces/inkscape"
   xmlns:sodipodi="http://sodipodi.sourceforge.net/DTD/sodipodi-0.dtd"
   xmlns="http://www.w3.org/2000/svg"
   xmlns:svg="http://www.w3.org/2000/svg"><sodipodi:namedview
     id="namedview1"
     pagecolor="#ffffff"
     bordercolor="#000000"
     borderopacity="0.25"
     inkscape:showpageshadow="2"
     inkscape:pageopacity="0.0"
     inkscape:pagecheckerboard="0"
     inkscape:deskcolor="#d1d1d1"
     inkscape:document-units="mm"
     inkscape:zoom="0.70518255"
     inkscape:cx="37.578922"
     inkscape:cy="197.11208"
     inkscape:window-width="1920"
     inkscape:window-height="1011"
     inkscape:window-x="0"
     inkscape:window-y="0"
     inkscape:window-maximized="1"
     inkscape:current-layer="layer1"
     showgrid="false"
     showguides="true" /><defs
     id="defs1" /><g
     inkscape:label="Capa 1"
     inkscape:groupmode="layer"
     id="layer1"><g
       id="g23"
       transform="matrix(0.86145561,0,0,0.86145561,43.677697,-22.566227)"><path
         style="fill:#cccccc;stroke-width:0.584124"
         d="m 7.2474829,136.10876 c -3.2116969,-0.35333 -6.85831483,-1.22224 -9.7166282,-2.31525 -1.799956,-0.6883 -5.6381848,-2.60961 -7.4383744,-3.72345 -3.5960623,-2.22501 -8.0239063,-6.14116 -10.1264453,-8.9562 -3.127238,-4.18699 -5.325193,-8.22891 -6.681372,-12.28669 -1.313275,-3.9294 -1.724867,-5.94225 -2.054167,-10.045719 -0.09891,-1.232533 -0.197948,-2.260535 -0.220086,-2.284449 -0.03756,-0.04057 -2.787675,0.749384 -5.259491,1.510761 -2.262402,0.696874 -8.127524,2.642147 -10.277546,3.408737 -2.432136,0.86718 -3.530699,1.22869 -3.733752,1.22869 -0.07149,0 -0.129986,-2.16489 -0.129986,-4.810861 v -4.810861 l 0.48921,-0.855048 0.489205,-0.855047 0.01308,-11.154857 0.01308,-11.154857 -0.502282,-0.808154 -0.502289,-0.808155 v -3.376636 -3.376635 l 1.120485,-0.07921 c 0.616263,-0.04356 4.250112,-0.06689 8.075216,-0.05182 l 6.954731,0.02738 0.04708,0.73411 c 0.0517,0.805776 0.182119,0.891263 0.648367,0.425012 0.282511,-0.28251 0.515168,-0.3091 2.704618,-0.3091 h 2.395518 v -1.331696 c 0,-1.194851 -0.02781,-1.323712 -0.270461,-1.253994 -0.148754,0.04273 -0.886777,0.25949 -1.640058,0.481674 -0.753281,0.222184 -1.466141,0.403971 -1.584134,0.403971 -0.179904,0 -0.214537,-1.14728 -0.214537,-7.107208 v -7.107205 l 0.579562,-0.243662 c 0.765168,-0.3217 5.279498,-1.613299 7.997942,-2.288301 19.9557457,-4.955092 41.408491,-5.262003 61.124358,-0.874458 4.16823,0.927596 5.624797,1.305606 8.776808,2.277782 l 2.826654,0.871823 -0.01916,8.197747 -0.01916,8.197746 0.605982,0.419799 0.605983,0.419798 0.986708,-0.995556 0.986709,-0.995557 h 4.729451 4.729451 l 1.225171,1.275034 c 0.673846,0.701269 2.042356,2.161458 3.041133,3.244866 l 1.815955,1.969832 v 13.493166 13.493166 l -1.815955,1.704274 c -2.833208,2.658964 -4.966594,4.538908 -5.150815,4.538908 -0.09253,0 -1.188272,-0.34332 -2.434981,-0.76293 -3.618084,-1.217754 -7.616988,-2.482615 -7.848879,-2.482615 -0.143946,0 -0.213474,0.190259 -0.213474,0.584176 0,0.910074 -0.435336,4.268179 -0.785794,6.061459 -1.428966,7.31198 -5.341315,14.91772 -10.402671,20.22315 -1.238525,1.29824 -4.059277,3.73388 -5.523811,4.76964 -5.671521,4.01107 -11.768851,6.44721 -18.523029,7.40072 -2.325902,0.32836 -7.5242875,0.40337 -9.893169,0.14276 z"
         id="path23" /><path
         style="fill:#b3b3b3;stroke-width:0.584124"
         d="m 9.1167265,136.2409 c -3.4994132,-0.19182 -8.31646512,-1.19072 -11.4747206,-2.37948 -1.4485619,-0.54524 -4.7347405,-2.12087 -6.2152447,-2.98004 -3.9844822,-2.31228 -7.8810532,-5.50385 -10.6189082,-8.69762 -1.754517,-2.04668 -4.128159,-5.70633 -5.52695,-8.52136 -2.406715,-4.84346 -3.745452,-9.60426 -4.057515,-14.429247 -0.08796,-1.36004 -0.181873,-2.551975 -0.208702,-2.648747 -0.07154,-0.258072 -7.816519,2.1615 -16.205842,5.062784 -1.691087,0.58483 -3.134189,1.06333 -3.206901,1.06333 -0.07271,0 -0.132205,-2.15956 -0.132205,-4.799036 v -4.799031 l 0.540923,-1.045262 0.540922,-1.045261 V 80.001899 68.981866 l -0.543971,-0.89548 -0.543978,-0.895479 0.04171,-3.37485 0.04171,-3.374852 h 8.19113 8.191123 l 0.04755,0.656836 c 0.0531,0.733866 0.108157,0.773653 0.535473,0.386939 0.261501,-0.236658 0.581805,-0.263672 2.600872,-0.219351 l 2.302642,0.05054 v -1.248871 c 0,-0.686879 -0.03914,-1.24887 -0.08701,-1.24887 -0.04784,0 -0.84847,0.219409 -1.77915,0.487576 -0.930674,0.268167 -1.708704,0.459422 -1.728944,0.425011 -0.02027,-0.03441 -0.01741,-3.308815 0.0062,-7.276455 l 0.04305,-7.21389 1.65698,-0.544188 c 4.240036,-1.39252 9.473773,-2.667567 15.257341,-3.717006 8.4104973,-1.526101 14.9702119,-2.097445 24.151035,-2.10353 7.05542,-0.0047 11.778825,0.282415 18.101409,1.100217 5.074598,0.656379 13.645553,2.461238 18.007397,3.79197 1.283006,0.391426 2.732633,0.823007 3.221399,0.959069 l 0.888658,0.247386 0.0012,8.274229 0.0012,8.274228 0.590544,0.33712 0.590544,0.33712 0.992398,-0.990473 0.992404,-0.990472 4.739171,-0.0035 4.739176,-0.0035 3.026945,3.270464 3.026938,3.270465 0.0111,1.018286 c 0.0061,0.560057 0.03563,6.634175 0.06566,13.49804 l 0.05456,12.479753 -1.572521,1.524261 c -1.412203,1.368872 -4.58019,4.263349 -5.23466,4.782721 -0.215168,0.17076 -0.537599,0.1038 -2.082684,-0.432536 -2.472266,-0.85819 -8.084171,-2.628653 -8.332126,-2.628653 -0.213094,0 -0.217341,0.02442 -0.600217,3.451239 -1.051552,9.41171 -6.059157,19.16279 -13.003029,25.32022 -2.419331,2.14533 -3.990082,3.29347 -6.636639,4.85105 -5.561524,3.27313 -11.229645,5.03706 -18.075466,5.62513 -2.005494,0.17227 -2.208033,0.17231 -5.3319651,0.001 z M 27.353292,125.15884 c -0.296187,-0.90717 -2.515053,-8.07412 -3.935515,-12.7117 -0.820117,-2.67757 -1.591465,-5.17628 -1.714102,-5.55268 -0.122636,-0.3764 -0.222977,-0.73333 -0.222977,-0.79318 0,-0.0598 0.504216,-0.48379 1.120485,-0.94209 1.20041,-0.8927 12.952577,-9.793589 15.284466,-11.576184 0.771825,-0.590018 1.345751,-1.072762 1.275393,-1.072762 -0.170342,0 -16.371608,5.230693 -21.080433,6.805972 -0.722521,0.241705 -2.635073,0.867914 -4.250113,1.391574 -1.615048,0.52366 -3.000871,1.01299 -3.079617,1.08739 -0.08675,0.082 -0.04807,0.24331 0.0982,0.4094 0.13276,0.15076 0.782475,1.0739 1.443821,2.05143 0.661346,0.97753 1.563067,2.29893 2.00383,2.93645 0.81212,1.17465 1.681145,2.43491 6.181111,8.96387 4.580411,6.64568 5.955405,8.57377 6.420035,9.00251 0.253317,0.23376 0.490635,0.42501 0.527377,0.42501 0.03674,0 0.0041,-0.19125 -0.07196,-0.42501 z M 10.662226,86.250983 c 0,-8.457724 -0.03184,-15.377681 -0.07073,-15.377681 -0.06868,0 -0.570345,1.644861 -0.7684744,2.519693 -0.092555,0.40866 -0.1395474,0.43061 -0.8272253,0.386374 l -0.7290866,-0.0469 -0.042583,-2.341897 c -0.052805,-2.903948 -0.096538,-2.835514 1.8120183,-2.835514 1.742566,0 1.78346,0.04388 1.660818,1.781798 l -0.09239,1.309194 h 1.769794 1.769798 V 69.778653 67.911257 L 13.95997,66.610386 12.775777,65.309516 H 10.060818 7.3458658 L 6.0676031,66.581138 4.7893403,67.85276 v 3.426483 3.426484 l 1.0971141,1.174778 c 1.0239934,1.096484 1.139872,1.174936 1.7386813,1.177145 1.0160026,0.0037 1.0459448,0.0757 0.6099719,1.465855 -0.213258,0.680018 -0.4583916,1.32333 -0.544731,1.429583 -0.1047861,0.128946 -0.6260821,0.193248 -1.5676497,0.193371 l -1.4106604,1.84e-4 v 1.847466 1.847464 l 0.6502473,0.663782 0.6502531,0.663782 -0.889306,2.781892 c -0.4891224,1.530038 -0.9938176,3.129628 -1.1215481,3.554642 l -0.2322362,0.772744 -10.7847155,0.03966 c -7.9710491,0.02932 -10.7694311,0.08553 -10.7261481,0.21539 0.03218,0.09663 0.750711,0.380381 1.596663,0.630556 0.845953,0.250175 2.789948,0.861659 4.319986,1.358854 1.530044,0.497195 5.1117309,1.634427 7.9593023,2.52718 2.8475749,0.892752 7.1942839,2.280608 9.6593473,3.084135 2.4650692,0.80351 4.5688754,1.46848 4.6751274,1.47769 0.153367,0.0133 0.193187,-3.152877 0.193187,-15.36093 z M 5.8178665,83.727384 C 5.6237912,83.512934 5.5620901,83.140111 5.5620901,82.181888 v -1.262864 h 0.8500237 c 0.4675098,0 0.8500178,0.04908 0.8500178,0.109073 0,0.258535 -0.9906516,2.981915 -1.0846956,2.981915 -0.057069,0 -0.2188948,-0.127181 -0.3595695,-0.282628 z m 1.3878329,-7.765163 c -0.223965,-0.176175 -0.4072165,-0.384817 -0.4072165,-0.463649 0,-0.07883 0.5216055,-0.143333 1.1591247,-0.143333 1.0131579,0 1.1591189,0.03503 1.1591189,0.27819 0,0.153003 -0.083454,0.361646 -0.1854594,0.463648 -0.2975355,0.297538 -1.2727604,0.221322 -1.7255677,-0.134856 z M -40.299745,94.60548 c 1.635881,-0.547669 3.87844,-1.266597 4.983469,-1.597627 l 2.009149,-0.60187 0.117233,-1.995655 c 0.06448,-1.097605 0.09925,-2.295971 0.07727,-2.663035 l -0.03995,-0.667391 -0.639564,0.548738 c -0.351759,0.3018 -0.838586,0.624494 -1.081845,0.717089 -0.826442,0.314586 -3.603954,1.028602 -3.6852,0.947356 -0.04445,-0.04445 -0.03832,-4.983125 0.01361,-10.974776 0.09951,-11.473656 0.07463,-11.055267 0.757172,-12.73833 0.102122,-0.251822 -0.08851,-0.270462 -2.766022,-0.270462 -1.592498,0 -2.875703,0.06182 -2.875703,0.138536 0,0.07619 0.208404,0.64996 0.463117,1.275034 l 0.463123,1.136498 5.26e-4,12.115011 5.32e-4,12.115014 -0.472312,1.562626 c -0.259766,0.85944 -0.501003,1.649556 -0.536068,1.755808 -0.03505,0.106258 0.0041,0.193187 0.08668,0.193187 0.08275,0 1.488898,-0.448087 3.124779,-0.995751 z m -1.916728,-0.665656 c 0.425949,-0.8074 0.537161,-2.298605 0.550193,-7.377176 l 0.01349,-5.252117 1.081845,-0.247239 1.081845,-0.247239 0.07728,4.881162 c 0.06708,4.237087 0.107864,4.873309 0.309095,4.821684 0.127503,-0.03271 1.289326,-0.389342 2.58183,-0.792504 1.292503,-0.403169 2.387871,-0.695161 2.434157,-0.648875 0.110014,0.110014 0.07515,1.683277 -0.05006,2.258482 -0.09515,0.437135 -0.195781,0.479321 -3.961368,1.660555 -2.125057,0.66662 -3.953121,1.212414 -4.062364,1.212881 -0.140528,5.84e-4 -0.15689,-0.07826 -0.05596,-0.269614 z m 105.700256,-0.901322 1.579893,-1.480889 v -5.014971 -5.014977 l -1.498472,-2.059884 -1.498472,-2.059886 -2.172078,-0.264703 c -1.19638,-0.145798 -2.262869,-0.352974 -2.374191,-0.461208 -0.147036,-0.14296 -0.22601,-1.046707 -0.289837,-3.316751 -0.109552,-3.89653 -0.205886,-3.71592 1.925794,-3.610502 2.070879,0.10241 2.082982,0.115864 2.017612,2.242844 -0.05835,1.898778 -0.1997,1.720218 1.494126,1.887485 0.510017,0.05036 1.222876,0.131466 1.584134,0.180225 l 0.656836,0.08865 v -2.60641 -2.606411 L 63.49244,67.24123 c -0.912905,-1.0954 -1.558672,-1.734605 -1.815955,-1.797515 -0.219602,-0.05369 -1.51203,-0.100614 -2.872064,-0.104266 l -2.472797,-0.0066 -1.424557,1.606555 -1.424557,1.606554 0.0082,4.29332 0.0082,4.29332 0.393898,0.618198 c 0.364108,0.571448 2.363338,3.321984 2.415664,3.323473 0.01267,3.61e-4 0.996762,0.174364 2.186792,0.386672 1.519045,0.271007 2.22125,0.463797 2.356884,0.647081 0.282208,0.381366 0.275339,6.896138 -0.0075,7.130892 -0.146481,0.121562 -0.595363,0.0594 -1.661414,-0.230081 -0.803387,-0.218159 -1.556633,-0.474449 -1.673878,-0.569533 -0.167054,-0.135482 -0.196581,-0.54889 -0.136481,-1.910805 0.06666,-1.510616 0.04399,-1.746953 -0.173199,-1.806972 -0.137438,-0.03797 -0.910591,-0.217136 -1.718114,-0.398134 -0.807523,-0.180996 -1.589928,-0.365001 -1.738681,-0.408898 -0.249526,-0.07364 -0.270462,0.108945 -0.270462,2.359045 v 2.43886 l 1.348066,2.033681 1.348066,2.033682 1.781562,0.499274 c 0.979862,0.274597 2.198848,0.657981 2.708859,0.851957 0.510016,0.193976 0.998753,0.360726 1.086086,0.370557 0.08733,0.0098 0.869738,-0.648518 1.738681,-1.463009 z m -4.52093,-0.361976 -2.314359,-0.732556 -1.201643,-1.734353 -1.201644,-1.734353 v -1.787 c 0,-1.777385 0.0018,-1.786509 0.347735,-1.695094 0.191254,0.05053 0.71286,0.174046 1.159125,0.274445 l 0.811384,0.182533 v 1.605203 c 0,2.066533 0.02699,2.095366 2.698906,2.884056 2.660254,0.785244 2.478527,1.028883 2.597151,-3.481843 0.04994,-1.898667 0.03423,-3.755184 -0.03487,-4.125591 -0.199776,-1.070836 -0.46859,-1.229838 -2.865381,-1.694853 L 56.827253,80.223479 56.226294,79.41213 c -0.729256,-0.984555 -0.849614,-0.963432 2.402539,-0.42164 4.201163,0.69989 3.838118,0.564444 4.727097,1.763611 l 0.780437,1.052753 v 4.71032 4.710315 l -0.962964,0.834562 c -0.529632,0.459011 -1.08601,0.956276 -1.236399,1.105029 -0.150389,0.148753 -0.360364,0.264059 -0.466616,0.256232 -0.106252,-0.0078 -1.234652,-0.34388 -2.507547,-0.746786 z M -26.50695,90.584795 c 1.36004,-0.316438 2.549054,-0.597536 2.642263,-0.624663 0.09321,-0.0271 0.710757,-0.792079 1.372336,-1.69989 l 1.20287,-1.65056 -0.02681,-9.005995 -0.02681,-9.005993 -1.255867,-1.255866 -1.255867,-1.255866 -2.769965,0.100334 -2.769964,0.100335 -1.29935,1.474793 -1.299344,1.474792 v 9.84746 9.847457 l 1.352306,1.167939 c 0.743772,0.642367 1.421859,1.143891 1.50686,1.114497 0.085,-0.02938 1.267305,-0.312337 2.627339,-0.628774 z m -3.60667,-1.303562 -1.11816,-1.021102 0.04416,-4.624326 0.04416,-4.624318 0.912572,-0.207201 c 0.501915,-0.11396 0.953975,-0.165891 1.004571,-0.115401 0.05059,0.05049 0.114997,2.062485 0.143093,4.471098 0.04498,3.856553 0.08189,4.40622 0.309101,4.604805 0.227786,0.199081 0.475273,0.171902 2.112603,-0.231997 2.760531,-0.680966 2.550071,-0.23001 2.550071,-5.464037 v -4.360175 l 0.73411,-0.103626 c 0.403758,-0.05699 0.855818,-0.139125 1.004571,-0.182513 0.253271,-0.07387 0.270461,0.212131 0.270461,4.499866 v 4.578752 l -0.957093,1.265909 c -0.526396,0.696253 -1.023585,1.31119 -1.10486,1.36653 -0.08127,0.05532 -0.858815,0.250554 -1.727869,0.433811 -0.869054,0.183263 -1.922832,0.423607 -2.341725,0.534112 l -0.761628,0.200909 z m 1.900256,-2.527962 c -0.04066,-0.106252 -0.0559,-3.948745 -0.03382,-8.538865 l 0.04019,-8.345676 1.530785,-0.124957 c 1.198104,-0.0978 1.561172,-0.08101 1.670613,0.07727 0.156797,0.226767 0.08351,16.287538 -0.07505,16.446093 -0.08383,0.08383 -2.576368,0.654984 -2.938017,0.673227 -0.06641,0.0035 -0.154039,-0.08084 -0.194706,-0.187096 z m 79.3837,3.030006 c -0.309989,-1.222357 -1.717641,-8.411851 -1.714452,-8.756465 0.0012,-0.101785 0.455593,-0.685778 1.010336,-1.297763 l 1.008631,-1.112699 -0.09282,-4.833479 -0.09283,-4.833478 -0.516115,-0.622179 c -0.283867,-0.342198 -0.85323,-0.984983 -1.265254,-1.428412 l -0.749134,-0.806232 -4.128737,-0.103651 -4.128731,-0.10365 0.453999,1.064433 0.454005,1.064433 0.0041,9.309985 0.0041,9.309984 -0.405475,1.01286 c -0.223013,0.557068 -0.379494,1.036167 -0.347736,1.064655 0.08684,0.0779 3.914422,0.862179 4.207805,0.862179 0.230256,0 0.254596,-0.406311 0.254596,-4.250113 0,-3.59748 0.03417,-4.250111 0.222703,-4.250111 0.122485,0 0.27149,0.07894 0.331111,0.175412 0.05963,0.09648 0.479736,2.123659 0.933571,4.504849 0.453836,2.381189 0.864785,4.369057 0.913209,4.417481 0.164407,0.164408 3.858387,1.052768 3.904749,0.93905 0.02535,-0.06217 -0.09246,-0.659365 -0.261793,-1.327089 z m -2.095868,-0.02868 c -1.059759,-0.297097 -0.896549,0.08884 -1.546995,-3.658184 -0.898576,-5.176425 -1.032708,-5.782368 -1.296861,-5.858575 -0.139594,-0.04027 -0.662485,-0.121237 -1.161987,-0.179924 l -0.908179,-0.106703 0.114377,4.270361 c 0.130564,4.874647 0.286928,4.417897 -1.389013,4.057416 -0.679184,-0.14609 -0.907232,-0.258002 -0.852307,-0.418268 0.04124,-0.120347 0.09761,-2.566035 0.125259,-5.434861 0.05806,-6.021616 -0.194203,-5.402408 2.003722,-4.918956 0.742866,0.1634 2.324336,0.446285 3.514367,0.628632 1.190031,0.182347 2.263336,0.364313 2.38512,0.404368 0.153012,0.05033 -0.06927,0.369416 -0.719437,1.032775 l -0.940866,0.959949 0.897653,4.428943 c 0.493708,2.435916 0.943852,4.574494 1.000313,4.752401 0.123221,0.388233 0.02623,0.391445 -1.225166,0.0406 z M 46.595,77.213026 c -0.255005,-0.06666 -0.716335,-0.129423 -1.025179,-0.13948 -0.443607,-0.01445 -0.58111,-0.09131 -0.654727,-0.366022 -0.05123,-0.191255 -0.09414,-1.86039 -0.0953,-3.70919 l -0.0023,-3.361453 h 1.284133 c 0.783644,0 1.387144,0.07532 1.548438,0.193266 0.238527,0.174415 0.260251,0.547494 0.222727,3.825102 l -0.04159,3.631836 -0.386375,0.02357 c -0.212504,0.01296 -0.595018,-0.03097 -0.850023,-0.09763 z m -64.979081,11.673953 c 0.717561,-0.140587 1.668896,-0.326503 2.11408,-0.413146 l 0.809416,-0.157526 0.0406,-5.437323 0.0406,-5.437325 1.203296,3.709189 c 1.441018,4.44199 2.182645,6.589085 2.279709,6.600014 0.03943,0.0047 0.81927,-0.08054 1.733045,-0.188829 l 1.6614073,-0.196897 V 77.351959 c 0,-5.674677 0.061134,-10.168202 0.1411011,-10.370973 0.077601,-0.196788 0.2451394,-0.601213 0.3723092,-0.898721 l 0.2312139,-0.540923 -2.4200915,0.05453 c -1.33105,0.02999 -2.440028,0.07311 -2.464398,0.09582 -0.02436,0.02271 0.09735,0.400639 0.270462,0.839849 0.2916,0.739802 0.314767,1.135521 0.314767,5.377812 0,2.518587 -0.04317,4.536079 -0.09594,4.483316 -0.09866,-0.09866 -0.87038,-2.430599 -2.533698,-7.656181 l -0.950715,-2.986837 -2.112205,0.108588 c -1.161713,0.05972 -2.139064,0.132444 -2.171892,0.161603 -0.03283,0.02916 0.08462,0.38849 0.26101,0.798513 0.311438,0.723959 0.322092,1.026612 0.368793,10.475437 0.05251,10.629899 0.113215,9.660107 -0.733789,11.727276 -0.09316,0.227382 -0.06795,0.276624 0.107222,0.209409 0.125967,-0.04831 0.816127,-0.202913 1.533689,-0.3435 z m -0.220601,-1.23269 c 0.0659,-0.176803 0.143222,-2.615802 0.171838,-5.420001 0.02862,-2.804199 0.101422,-5.143494 0.161797,-5.198433 0.06038,-0.05494 0.509671,-0.147596 0.998438,-0.205901 l 0.888657,-0.10601 v 5.49763 5.497629 l -0.347735,0.01127 c -0.191254,0.0062 -0.717877,0.06393 -1.170276,0.128273 -0.789671,0.112316 -0.81775,0.10415 -0.702719,-0.204467 z m 7.101551,-1.047685 c -0.03364,-0.110587 -0.7681,-2.383275 -1.632189,-5.050408 -0.864096,-2.667136 -1.513852,-4.904499 -1.443921,-4.971917 0.06994,-0.06742 0.432357,-0.14358 0.805379,-0.169248 l 0.678221,-0.04667 0.512447,1.273299 c 0.28184,0.700315 0.632653,1.654666 0.779584,2.120781 0.14693,0.466114 0.32399,0.847481 0.393472,0.847481 0.06948,0 0.12693,-0.643313 0.127666,-1.429584 5.84e-4,-0.786271 0.04428,-1.786698 0.0967,-2.223172 l 0.09535,-0.793588 0.791962,-0.07814 c 0.4355817,-0.04298 0.8174413,-0.05449 0.8485752,-0.02559 0.073716,0.06844 0.07329,10.424227 -4.323e-4,10.487966 -0.0309,0.0267 -0.4916692,0.09611 -1.0239349,0.154209 -0.732726,0.07998 -0.982602,0.05683 -1.028877,-0.09543 z m 50.757031,1.81818 c 0,-0.03692 -0.107648,-0.575935 -0.239216,-1.197758 -0.131568,-0.621824 -0.58416,-3.495203 -1.005756,-6.385277 -0.421597,-2.890077 -0.836004,-5.637196 -0.920895,-6.104708 -0.235706,-1.298065 -0.939412,-5.933935 -1.136315,-7.485837 -0.171464,-1.351374 -0.185226,-1.38362 -0.638857,-1.496792 -0.254993,-0.06361 -1.594601,-0.13758 -2.976908,-0.164367 -2.18372,-0.04232 -2.50153,-0.01831 -2.42369,0.183121 0.42043,1.087848 0.414483,1.471354 -0.0755,4.868312 -0.269737,1.870049 -0.694389,4.582394 -0.94367,6.027433 -0.249287,1.445038 -0.594732,3.596925 -0.767655,4.781972 -0.172924,1.185046 -0.452107,2.830333 -0.62041,3.656192 -0.168298,0.825858 -0.306,1.568128 -0.306,1.649485 0,0.119004 1.154883,0.282915 3.976846,0.564428 0.06529,0.0065 0.164227,-0.772616 0.219847,-1.731392 0.05561,-0.958781 0.144261,-1.855658 0.196984,-1.993056 0.08313,-0.216617 0.294574,-0.235846 1.591348,-0.144688 0.822511,0.05783 1.512135,0.121773 1.532491,0.14213 0.08595,0.08595 0.364517,2.713252 0.364517,3.437923 v 0.789029 l 1.970503,0.319189 c 1.083779,0.175553 2.022669,0.326531 2.086421,0.335509 0.06375,0.009 0.115913,-0.0139 0.115913,-0.05088 z m -2.394032,-1.22471 -0.925814,-0.176341 -0.196225,-2.075096 C 35.629901,83.807333 35.52491,82.85965 35.504518,82.842675 35.369189,82.730038 30.979441,82.333317 30.89413,82.426016 c -0.05861,0.06368 -0.190179,0.950344 -0.292378,1.970371 -0.102204,1.020028 -0.210997,1.880426 -0.241769,1.911992 -0.03078,0.03154 -0.519222,0.0078 -1.085443,-0.05286 l -1.02949,-0.110254 0.0764,-0.488065 c 0.04206,-0.268434 0.414886,-2.590475 0.828581,-5.160085 l 0.752171,-4.672018 0.850748,0.09563 c 0.467907,0.0526 0.86958,0.110607 0.8926,0.128908 0.02302,0.0183 -0.06753,1.025043 -0.201236,2.237208 -0.133707,1.212165 -0.218568,2.228469 -0.188585,2.258452 0.125563,0.125561 3.758764,0.474943 3.874135,0.372551 0.06935,-0.06154 0.0085,-1.097809 -0.13519,-2.302812 -0.1437,-1.205002 -0.228457,-2.22373 -0.188351,-2.263839 0.04013,-0.04011 0.448684,-0.01886 0.90794,0.04724 l 0.835017,0.120162 0.119781,1.002452 c 0.06588,0.551348 0.431002,2.944912 0.811384,5.319032 0.380382,2.374116 0.691603,4.373603 0.691603,4.443301 0,0.151954 -0.115493,0.144623 -1.312183,-0.08331 z m -4.36751,-7.317418 c -0.191259,-0.03683 -0.345387,-0.149074 -0.342519,-0.249415 0.01922,-0.671003 0.905154,-8.330883 0.971189,-8.39692 0.08988,-0.08988 0.07844,-0.169605 0.646415,4.505292 0.216874,1.785047 0.430442,3.47157 0.474596,3.747828 l 0.08028,0.502286 -0.741114,-0.02105 c -0.407614,-0.01158 -0.897595,-0.05119 -1.088849,-0.08802 z m -36.5896151,6.99365 c 1.2750302,-0.121586 3.40404092,-0.269439 4.73113064,-0.32857 L 3.0467629,86.440222 3.1443759,85.18648 c 0.053681,-0.689558 0.098034,-1.654626 0.098542,-2.144595 l 0.00117,-0.89085 -0.5795624,0.371297 c -0.5193333,0.332709 -0.808434,0.380823 -2.78189243,0.462951 l -2.20233007,0.09166 v -2.75536 -2.755361 l 1.79854824,-0.09639 C 0.46804647,77.416821 1.294711,77.354018 1.315868,77.330277 1.337013,77.306537 1.379643,76.487315 1.410554,75.509789 l 0.056193,-1.77732 -0.3863749,0.02069 c -0.21250447,0.01138 -1.08184511,0.04615 -1.93186877,0.07728 l -1.54549383,0.05658 v -2.550066 -2.550068 l 2.22672306,-0.04303 C 2.0058532,68.701805 2.0703289,68.71 2.6665505,69.104563 L 3.2766392,69.5083 3.1893243,68.761219 C 3.1413093,68.350324 3.0581533,67.405254 3.0045482,66.661063 l -0.097455,-1.353075 -4.7384638,0.09949 c -2.6061504,0.05472 -4.7657984,0.122972 -4.7992162,0.151675 -0.033412,0.0287 0.088296,0.410837 0.2704613,0.849186 0.3254566,0.783123 0.3312219,0.951013 0.3312219,9.644588 v 8.847592 l -0.386375,1.026499 c -0.2125044,0.564574 -0.3863749,1.059689 -0.3863749,1.100251 0,0.102946 0.1012521,0.09729 2.7046186,-0.150956 z m -1.2251951,-1.455317 c 0.064896,-0.393525 0.1236942,-2.732371 0.1306686,-5.197438 l 0.012676,-4.481938 1.2363927,-0.09742 c 0.6800201,-0.05358 1.9885207,-0.145466 2.9077864,-0.204192 l 1.67139606,-0.106775 -0.0485991,0.590567 -0.0485992,0.590566 -0.77274984,0.03644 c -0.42500891,0.02004 -1.27823352,0.07825 -1.89604442,0.129362 l -1.1232981,0.09293 0.041473,3.579828 0.041473,3.579829 0.5409226,-0.0104 c 0.2975062,-0.0058 1.5319713,-0.06022 2.74325254,-0.121083 L 2.3166331,83.690602 v 0.918588 0.918594 l -1.35231221,0.09569 c -3.78493909,0.267809 -5.71479619,0.415265 -6.04218619,0.461668 -0.3493531,0.04953 -0.3582143,0.02541 -0.2445028,-0.664126 z m 30.0448882,1.100455 c -0.0023,-0.06375 -0.141183,-0.5266 -0.309095,-1.028561 -0.288067,-0.861122 -0.305299,-1.356291 -0.305299,-8.770688 v -7.858038 h 1.092003 c 1.128523,0 1.520511,0.123085 2.114291,0.663879 0.190921,0.173885 0.379745,0.283533 0.419618,0.243663 0.03989,-0.03987 0.02991,-1.014838 -0.02214,-2.166595 l -0.09465,-2.094105 -2.64321,-0.100268 C 23.520191,65.355584 21.096285,65.31025 19.587492,65.30999 l -2.743252,-4.73e-4 v 2.089023 2.089023 l 0.767609,-0.388978 c 0.58725,-0.297582 1.004852,-0.388977 1.777321,-0.388977 h 1.009712 v 7.862797 7.862797 l -0.392923,0.888466 c -0.216109,0.488655 -0.357151,0.924231 -0.313435,0.967952 0.07928,0.07928 2.683683,0.278143 4.22236,0.322402 0.44626,0.01285 0.809673,-0.0288 0.807581,-0.09258 z M 21.892003,85.59514 c -0.927876,-0.04772 -1.042609,-0.0865 -0.939763,-0.317466 0.21365,-0.479806 0.346824,-2.846815 0.360452,-6.406432 l 0.01344,-3.516003 h 0.932145 c 0.606993,0 0.955494,0.06739 0.999069,0.193187 0.0368,0.106253 0.08678,2.436133 0.111066,5.177511 0.03861,4.357942 0.01501,4.980508 -0.187685,4.953953 -0.127503,-0.01671 -0.707439,-0.05485 -1.288742,-0.08475 z M -16.538499,60.903483 V 59.4987 l -0.540923,0.06315 -0.540923,0.06315 v -4.967346 c 0,-5.369952 -0.04661,-5.090523 0.860322,-5.156493 0.436143,-0.03172 0.455127,-0.0053 0.500227,0.695623 l 0.04691,0.728598 0.494041,-0.09152 c 0.271729,-0.05034 0.911327,-0.17261 1.421344,-0.271716 l 0.927298,-0.180193 0.04299,-2.11829 c 0.0288,-1.419115 -0.01121,-2.118289 -0.1212,-2.118289 -0.723543,0 -10.020099,2.174827 -11.165281,2.611995 l -0.425009,0.162247 v 2.108269 2.10827 l 0.347735,-0.101533 c 0.191254,-0.05584 0.834568,-0.229567 1.429581,-0.386052 l 1.08185,-0.284518 0.04708,-0.712895 c 0.04924,-0.746092 0.179536,-0.887454 0.998286,-1.083224 l 0.427158,-0.102137 -0.04077,4.986235 -0.04077,4.986236 -0.463649,0.07986 -0.463649,0.07986 -0.04533,1.299639 c -0.02494,0.714802 -0.01525,1.378002 0.0215,1.473778 0.04568,0.119088 0.878389,-0.02143 2.63401,-0.444498 l 2.567185,-0.618636 z m -4.48194,1.008888 c 0,-0.663083 0.04328,-0.775692 0.298061,-0.775692 0.705727,0 0.78379,-0.314677 0.78379,-3.159553 V 55.3033 l 0.604685,-0.09669 c 0.332577,-0.05318 0.715091,-0.139058 0.850024,-0.190837 0.218544,-0.08386 0.245332,0.213285 0.245332,2.721484 v 2.815627 l 0.549749,-0.103133 0.549743,-0.103132 -0.04743,0.725604 -0.04749,0.725605 -1.545494,0.364457 c -0.850024,0.200451 -1.701975,0.400755 -1.893229,0.445119 -0.325141,0.07542 -0.347741,0.03026 -0.347741,-0.695029 z m 65.98051,0.731166 1.076944,-0.811385 0.0085,-2.56075 0.0085,-2.56075 -1.047785,-1.134183 -1.047785,-1.134184 -2.23639,-0.55518 -2.236396,-0.55518 -0.04416,-1.690113 c -0.0243,-0.929562 -0.01081,-1.776993 0.02991,-1.883179 0.05315,-0.138519 0.218463,-0.156165 0.585082,-0.06246 0.281046,0.07184 1.046635,0.245177 1.70131,0.385205 l 1.190311,0.254597 0.04609,0.879775 0.04609,0.879775 1.236392,0.335058 c 1.884403,0.510664 1.777321,0.564718 1.777321,-0.897147 v -1.257562 l -1.007538,-1.125746 -1.007539,-1.125747 -2.276636,-0.539496 c -1.252153,-0.296724 -2.494673,-0.584177 -2.761162,-0.638786 -0.404442,-0.08288 -0.666241,0.01827 -1.584132,0.61205 l -1.099614,0.711338 0.0074,2.813042 0.0074,2.813042 0.958589,1.030837 0.958581,1.030837 1.777321,0.399787 c 0.977526,0.219884 1.985959,0.456351 2.24097,0.525483 l 0.463649,0.125696 0.04404,1.668697 0.04404,1.668696 -0.35315,-0.08417 c -0.194233,-0.04629 -0.961691,-0.203055 -1.705457,-0.348362 L 39.40843,59.548883 v -0.729797 -0.729798 l -1.538219,-0.306761 c -1.776118,-0.354202 -1.709797,-0.396546 -1.702869,1.087185 l 0.0047,0.953295 1.116034,1.195366 1.116032,1.195366 1.5455,0.312597 c 0.850023,0.171927 2.032326,0.444916 2.627339,0.60664 0.595018,0.161725 1.132377,0.300323 1.194137,0.307996 0.06175,0.0077 0.596905,-0.351173 1.189224,-0.797435 z m -3.821856,-0.562245 -2.365797,-0.55824 -0.911659,-1.004572 c -0.764893,-0.842848 -0.912741,-1.097875 -0.918377,-1.584133 -0.0074,-0.641062 0.02453,-0.653974 1.006685,-0.406664 0.66003,0.166198 0.686631,0.195402 0.686631,0.753824 0,0.31951 0.08694,0.647507 0.193187,0.728883 0.278651,0.21341 4.393615,1.020689 4.588578,0.900194 0.103104,-0.06372 0.163823,-0.924619 0.163823,-2.32268 0,-1.98178 -0.02915,-2.230166 -0.270461,-2.30238 -0.148753,-0.04452 -1.243133,-0.292547 -2.431955,-0.551169 -2.116551,-0.460447 -2.17584,-0.484571 -2.851705,-1.160441 -0.379623,-0.379621 -0.658805,-0.719518 -0.620405,-0.755327 0.03838,-0.03581 0.834841,0.09653 1.769861,0.294084 4.649536,0.982371 4.585043,0.964593 4.842876,1.334942 0.136737,0.196408 0.51136,0.643072 0.832499,0.992587 l 0.583885,0.635482 v 2.16451 2.16451 l -0.579562,0.380776 c -1.426262,0.937064 -1.107868,0.911733 -3.718104,0.295814 z m -8.529949,-2.412835 c 0,-1.430658 -0.0091,-1.46822 -0.356836,-1.46822 -0.568691,0 -0.819006,-0.321316 -1.023374,-1.313672 -0.105037,-0.510014 -0.699226,-3.013717 -1.320425,-5.563785 -0.621193,-2.550067 -1.209307,-5.025845 -1.30692,-5.501726 l -0.177474,-0.865239 -1.858145,-0.224882 c -1.021979,-0.123686 -1.890496,-0.172529 -1.930047,-0.108541 -0.03955,0.06399 -0.658156,2.43232 -1.37469,5.26296 -1.960543,7.745071 -1.767817,7.165246 -2.361778,7.105477 l -0.499724,-0.05029 v 1.395591 1.395591 l 0.502282,0.07646 c 0.276262,0.04205 1.162986,0.116736 1.970509,0.165969 0.807523,0.04924 1.694253,0.130042 1.970508,0.179574 l 0.502283,0.09006 v -1.408146 c 0,-1.148652 -0.0427,-1.408146 -0.231821,-1.408146 -0.253639,0 -0.312933,-0.560035 -0.0956,-0.902934 0.106813,-0.16853 0.383221,-0.176668 1.472952,-0.04337 0.737801,0.09025 1.407815,0.205097 1.488915,0.255219 0.243386,0.150422 0.174028,0.845636 -0.08437,0.845636 -0.188894,0 -0.231827,0.257583 -0.231827,1.390947 0,0.76502 0.05216,1.395551 0.115914,1.401178 0.09796,0.0086 4.370259,0.681143 4.713765,0.741985 0.06375,0.01129 0.115908,-0.640169 0.115908,-1.44769 z m -2.472791,0.363954 c -0.467516,-0.07714 -1.079859,-0.177062 -1.360776,-0.222055 -0.493457,-0.07904 -0.509158,-0.103757 -0.463649,-0.730051 0.03972,-0.546876 0.104097,-0.65631 0.411574,-0.699823 0.320667,-0.04538 0.352677,-0.11038 0.266349,-0.540923 -0.05397,-0.26914 -0.14033,-0.752674 -0.191932,-1.07452 -0.05158,-0.321847 -0.207451,-0.645991 -0.346339,-0.720321 -0.367331,-0.19659 -3.896762,-0.519176 -4.026473,-0.368015 -0.130826,0.15246 -0.47074,1.648389 -0.47074,2.071676 0,0.193322 0.107082,0.297308 0.306157,0.297308 0.323675,0 0.541694,0.51553 0.436002,1.030985 -0.0628,0.306271 -0.639855,0.332279 -2.720904,0.122633 l -0.974179,-0.09814 0.0469,-0.643652 c 0.04358,-0.598149 0.07652,-0.64057 0.466131,-0.600067 0.4773,0.04962 0.477259,0.04973 1.369346,-3.550315 l 0.485991,-1.961234 0.794573,0.08966 c 0.437018,0.04931 0.814328,0.105456 0.838464,0.124769 0.02412,0.01931 -0.03096,0.36906 -0.122421,0.777219 -0.09147,0.408159 -0.13446,0.825109 -0.09553,0.926555 0.04025,0.104814 0.560152,0.23078 1.204272,0.291766 0.623419,0.05902 1.394293,0.147024 1.71305,0.195553 0.556155,0.08467 0.579561,0.07023 0.579561,-0.35755 0,-0.245181 -0.06836,-0.684134 -0.151906,-0.975452 -0.08355,-0.291317 -0.12644,-0.555132 -0.09532,-0.586257 0.03113,-0.03112 0.408395,-0.0099 0.838375,0.04712 l 0.78178,0.103707 0.38634,1.642691 c 0.212481,0.903481 0.469916,2.09475 0.572068,2.647265 0.238971,1.292529 0.376848,1.545496 0.842366,1.545496 0.348448,0 0.380937,0.05931 0.380937,0.695473 0,0.78933 -0.02056,0.795607 -1.700048,0.518503 z m -3.863742,-6.144138 c -0.382508,-0.05098 -0.687094,-0.162247 -0.676854,-0.247249 0.110049,-0.913449 0.752381,-4.203792 0.84028,-4.304308 0.06323,-0.07231 0.152719,-0.0027 0.198853,0.15455 0.127065,0.433249 0.874119,4.160048 0.874119,4.360676 0,0.183929 -0.10575,0.187036 -1.236398,0.03633 z m -32.4676848,6.702269 c 0.8007761,-0.116423 2.8002573,-0.331707 4.4432975,-0.478408 l 2.9873524,-0.266729 v -2.223 -2.223 l -0.65683624,0.08125 c -0.36125757,0.04469 -1.05310618,0.123045 -1.53743876,0.174133 l -0.8806026,0.09289 -0.046671,0.723996 -0.046671,0.723996 -1.6227712,0.176916 c -0.8925246,0.0973 -1.67493,0.145359 -1.7386813,0.106791 -0.1775505,-0.107413 -0.1392786,-3.11019 0.041064,-3.221644 0.1112816,-0.06878 3.5300542,-0.513841 4.1317782,-0.537884 0.021262,-8.77e-4 0.038611,-0.662244 0.038611,-1.469765 v -1.468221 l -0.5022827,0.003 c -0.2762616,0.0016 -1.1977587,0.103768 -2.04778,0.226924 -0.8500237,0.123155 -1.5976562,0.226123 -1.6614075,0.228819 -0.1011236,0.0043 -0.1781696,-3.694936 -0.077274,-3.710093 1.1942131,-0.179401 3.3151839,-0.39782 3.4000864,-0.350144 0.063751,0.0358 0.1159136,0.37395 0.1159136,0.751443 0,0.785473 -0.09676,0.75591 1.91693858,0.58569 L 1.2514975,48.416814 1.1869517,46.315144 C 1.1360161,44.656563 1.077224,44.21376 0.90810242,44.214832 c -1.1641307,0.0074 -9.03551992,0.905957 -9.94099452,1.134847 -0.4299973,0.108698 -0.4564173,0.16279 -0.5053903,1.034741 -0.075434,1.34324 0.021613,1.615519 0.575678,1.615519 h 0.4607047 V 53.0228 c 0,4.848441 -0.010281,5.022861 -0.2964548,5.022861 -0.7279008,0 -0.7853903,0.115447 -0.7853903,1.577206 v 1.389586 l 0.9659373,-0.10513 c 0.5312611,-0.05782 1.6211088,-0.200384 2.421879,-0.316807 z M -8.7808483,59.47527 c 0.043108,-0.672276 0.082899,-0.738229 0.4721127,-0.783013 0.2337549,-0.0269 0.4263991,-0.131218 0.4280989,-0.231824 0.064306,-3.812851 0.1232036,-5.383589 0.2049401,-5.465325 0.1106916,-0.110694 1.1180082,-0.267853 3.2693384,-0.510075 0.7650218,-0.08613 1.6566737,-0.198569 1.9814468,-0.249853 l 0.5905089,-0.09324 -0.049592,0.515846 -0.049592,0.515847 -1.8545926,0.193652 c -1.0200272,0.106509 -1.9415302,0.226877 -2.0477824,0.267485 -0.1427074,0.05454 -0.1931875,0.680861 -0.1931875,2.396926 0,2.110582 0.024709,2.322819 0.2704613,2.320089 0.1487531,-0.0016 0.9659315,-0.103768 1.8159551,-0.226923 0.8500213,-0.123156 1.8062972,-0.226125 2.1250539,-0.22882 l 0.5795624,-0.0049 v -0.772749 c 0,-0.710385 0.029615,-0.772747 0.36705791,-0.772747 0.20187923,0 0.57695718,-0.04198 0.83350461,-0.09329 l 0.46644669,-0.09329 0.0645516,1.368324 c 0.0355148,0.752578 0.0406551,1.44179 0.0114488,1.531582 -0.0298488,0.09186 -1.01409252,0.247682 -2.25036251,0.356286 -1.2085067,0.106165 -3.1690419,0.328275 -4.3567479,0.493578 -2.9414985,0.409389 -2.7349113,0.442826 -2.6786718,-0.433561 z m 18.1167617,0.0221 c 0.1964235,-0.07538 0.2444619,-0.352321 0.2444619,-1.409367 0,-1.235929 0.033412,-1.370569 0.5521147,-2.224434 0.303663,-0.499882 0.573727,-0.908876 0.600135,-0.908876 0.0264,0 0.299568,0.422268 0.60701,0.938374 0.522178,0.876589 0.558984,1.022953 0.558984,2.222943 0,1.548235 -0.141492,1.470053 2.665987,1.47306 l 1.970503,0.0021 v -1.390946 -1.390946 h -0.45616 c -0.497213,0 -0.758778,-0.347568 -2.78118,-3.695619 l -0.925787,-1.532619 0.660049,-0.984307 c 0.36303,-0.54137 1.102304,-1.694851 1.642841,-2.563292 0.877051,-1.409113 1.030652,-1.578985 1.427763,-1.578985 h 0.444974 l -0.04486,-1.275034 -0.04492,-1.275034 -2.20233,-0.04288 -2.202333,-0.04288 v 1.41361 c 0,1.347339 -0.02576,1.456053 -0.549971,2.318957 -0.302483,0.49794 -0.608716,0.941655 -0.680522,0.986032 -0.07181,0.04438 -0.392258,-0.313583 -0.712118,-0.795469 l -0.5815603,-0.876157 0.034054,-1.525624 0.034054,-1.525624 -2.3265966,0.02092 -2.3266025,0.02092 v 1.299136 c 0,1.256746 0.011741,1.299135 0.3594351,1.299135 0.197691,0 0.5053902,0.156482 0.683776,0.347737 0.4273454,0.458162 2.9750798,4.605631 2.9750798,4.84314 0,0.101492 -0.4041615,0.800681 -0.8981379,1.553753 -0.4939707,0.753073 -1.1623083,1.821281 -1.4851889,2.373795 -0.6627884,1.134168 -0.7695488,1.230718 -1.3645029,1.23403 l -0.4250089,0.0024 v 1.390946 1.390946 h 2.1510556 c 1.1830797,0 2.2610638,-0.04221 2.3955175,-0.09381 z M 5.5620901,58.219556 c 0,-0.738269 0.025818,-0.792066 0.3799554,-0.792066 0.3143699,0 0.5344563,-0.254207 1.2750326,-1.472695 0.4922942,-0.809982 1.2928834,-2.096607 1.779091,-2.859167 L 9.880183,51.709156 h 0.834217 0.834217 l 1.770011,2.82053 c 1.507871,2.402807 1.831341,2.827771 2.184147,2.869432 0.379523,0.04481 0.414138,0.106172 0.414138,0.73411 v 0.685208 h -1.700047 -1.700045 v -0.741838 c 0,-0.408011 0.075,-0.816841 0.166674,-0.908511 0.197534,-0.197535 -0.338126,-1.332994 -1.293549,-2.741994 l -0.620434,-0.914978 -0.279275,0.344889 c -0.153602,0.189688 -0.6388163,0.973184 -1.0782648,1.7411 -0.7632052,1.333684 -0.7911673,1.422308 -0.6243881,1.978965 0.3599316,1.201364 0.3255267,1.242367 -1.0424809,1.242367 -0.6693949,0 -1.4344168,0.04347 -1.7000473,0.09659 l -0.4829658,0.09659 z"
         id="path4" /><path
         style="fill:#ffffff;fill-opacity:1;stroke-width:0.584124"
         d="m 7.2474788,136.10876 c -3.2116969,-0.35332 -6.85831541,-1.22223 -9.7166288,-2.31524 -1.7999565,-0.6883 -5.6381853,-2.60962 -7.4383749,-3.72346 -3.5960571,-2.225 -8.0239071,-6.14116 -10.1264391,-8.95619 -3.127244,-4.187 -5.325199,-8.22892 -6.681378,-12.2867 -1.313275,-3.92941 -1.724861,-5.94225 -2.054167,-10.04572 -0.09891,-1.232532 -0.197948,-2.260532 -0.220081,-2.284446 -0.03756,-0.0406 -2.787675,0.749385 -5.259491,1.510761 -2.262407,0.696873 -8.12753,2.642145 -10.277546,3.408735 -2.432142,0.86718 -3.530704,1.22869 -3.733752,1.22869 -0.0715,0 -0.129991,-2.16488 -0.129991,-4.810863 v -4.81086 l 0.48921,-0.855047 0.48921,-0.855047 0.01308,-11.154857 0.01308,-11.154857 -0.502283,-0.808154 -0.502288,-0.808155 V 64.010715 60.63408 l 1.120485,-0.07921 c 0.616268,-0.04356 4.250112,-0.06688 8.075215,-0.05182 l 6.954731,0.02738 0.04708,0.734111 c 0.05169,0.805776 0.182118,0.891262 0.648372,0.425011 0.282506,-0.28251 0.515163,-0.309099 2.704613,-0.309099 h 2.395523 v -1.331697 c 0,-1.19485 -0.0278,-1.323712 -0.270461,-1.253994 -0.148759,0.04274 -0.886783,0.25949 -1.640064,0.481674 -0.753275,0.222185 -1.466134,0.403971 -1.584133,0.403971 -0.179905,0 -0.214532,-1.14728 -0.214532,-7.107206 v -7.107206 l 0.579557,-0.243664 c 0.765168,-0.321698 5.279503,-1.613298 7.997942,-2.288299 19.9557459,-4.9551 41.408493,-5.262005 61.124363,-0.874459 4.16823,0.927596 5.624796,1.305608 8.776808,2.277783 l 2.826653,0.871825 -0.01916,8.197745 -0.01916,8.197745 0.605982,0.419799 0.605982,0.419799 0.986709,-0.995557 0.986709,-0.995557 h 4.729451 4.72945 l 1.225172,1.275035 c 0.673846,0.701268 2.042356,2.161458 3.041133,3.244865 l 1.815955,1.969832 V 80.436054 93.929222 L 68.0241,95.633493 c -2.833214,2.658963 -4.966594,4.538907 -5.150821,4.538907 -0.09252,0 -1.188266,-0.343317 -2.434975,-0.762929 -3.618084,-1.217753 -7.616987,-2.482616 -7.848879,-2.482616 -0.143946,0 -0.213474,0.190261 -0.213474,0.584177 0,0.910077 -0.435336,4.268188 -0.785793,6.061458 -1.428967,7.31198 -5.341316,14.91772 -10.402672,20.22315 -1.238525,1.29825 -4.05928,3.73388 -5.523814,4.76965 -5.671521,4.01107 -11.768851,6.44721 -18.523028,7.40071 -2.325904,0.32836 -7.5242896,0.40338 -9.893171,0.14276 z M 27.364736,125.18115 c -1.224546,-3.9345 -2.596012,-8.37349 -3.81123,-12.33568 -0.821221,-2.67758 -1.626372,-5.28029 -1.789226,-5.78381 -0.162848,-0.50352 -0.279188,-0.9288 -0.258527,-0.94506 0.02068,-0.0162 2.471722,-1.85899 5.446802,-4.09494 2.975074,-2.235948 5.722193,-4.319859 6.104707,-4.630911 0.382508,-0.311052 1.966759,-1.525879 3.520559,-2.699618 1.553794,-1.173734 2.800071,-2.159082 2.769504,-2.189649 -0.03055,-0.03055 -1.058445,0.263247 -2.284161,0.652928 -2.789755,0.886911 -20.369954,6.594525 -23.749612,7.71058 l -2.511431,0.82934 -0.0344,-12.854467 c -0.01892,-7.069961 -0.01706,-13.689041 0.0041,-14.709068 0.04118,-1.987104 -0.06636,-3.222264 -0.269544,-3.096685 -0.06903,0.04266 -0.289124,0.704705 -0.489105,1.471212 L 9.6495561,73.898971 H 9.0976403 c -0.3035578,0 -0.6353755,-0.08346 -0.7373811,-0.18546 -0.264842,-0.264842 -0.2559809,-4.295506 0.010222,-4.659591 0.1662125,-0.22731 0.4165683,-0.260872 1.6614078,-0.222725 l 1.465708,0.04491 0.04451,1.434437 0.04451,1.434438 1.810096,-0.04349 1.810096,-0.04349 -0.05304,-1.931869 -0.05304,-1.93187 -1.197642,-1.210848 -1.197636,-1.210847 -2.613086,-0.0453 -2.6130806,-0.0453 -1.3523122,1.330205 -1.3523064,1.330205 v 3.477169 3.477168 l 1.1941314,1.201178 c 1.118271,1.124866 1.2360948,1.201179 1.8545949,1.201179 0.3632553,0 0.6604636,0.04857 0.6604636,0.107937 0,0.05936 -0.1731228,0.675515 -0.384716,1.369222 l -0.384716,1.261286 -0.8130428,0.09766 c -0.4471764,0.05371 -1.1433942,0.09826 -1.5471527,0.099 l -0.73411,0.0013 v 1.792242 1.792241 l 0.6181964,0.70231 c 0.3400071,0.38627 0.6181963,0.773819 0.6181963,0.861216 0,0.0874 -0.307045,1.103428 -0.6823274,2.257845 -0.3752824,1.154422 -0.8663207,2.707481 -1.0911969,3.451252 l -0.4088754,1.352312 -10.9250309,0.0047 c -11.9975183,0.0053 -11.8728193,-0.0064 -9.0030623,0.854755 0.727971,0.218457 2.923163,0.908997 4.878216,1.534536 1.955052,0.625539 6.1278906,1.947266 9.2729746,2.93717 7.2722318,2.288896 11.2601367,3.567526 12.0935069,3.877446 l 0.6568365,0.24427 v 5.89973 5.89973 l 1.275033,0.91262 c 0.70127,0.50195 3.733964,2.65746 6.739319,4.79005 6.857574,4.86609 7.547752,5.36476 8.213355,5.9344 0.297507,0.25461 0.56524,0.43961 0.59496,0.4111 0.02973,-0.0285 -0.01776,-0.28254 -0.105504,-0.56449 z M -39.426491,94.465904 c 1.997554,-0.658425 4.195854,-1.357862 4.885115,-1.554303 l 1.253203,-0.357162 0.09831,-1.484342 c 0.05409,-0.81639 0.09866,-2.07259 0.0991,-2.79156 l 5.84e-4,-1.307212 -0.667987,0.655586 c -0.57201,0.561385 -0.888453,0.718742 -2.20233,1.095175 -0.84389,0.241781 -1.761731,0.488679 -2.039651,0.548662 l -0.505303,0.109068 0.04165,-11.024602 0.04165,-11.0246 0.407047,-0.965935 0.407047,-0.965934 h -2.993497 -2.993497 l 0.323622,0.811385 c 0.79528,1.993894 0.753713,1.227182 0.753713,13.902818 v 11.893448 l -0.540922,1.784342 c -0.623664,2.057263 -0.632759,2.123847 -0.270462,1.979825 0.148754,-0.05914 1.904824,-0.646234 3.902378,-1.304659 z m 102.914129,-1.286873 1.538006,-1.429586 0.01168,-5.206926 c 0.0072,-3.205924 -0.04585,-5.242487 -0.138034,-5.299461 -0.08235,-0.0509 -0.742779,-0.918182 -1.467625,-1.927306 -1.478991,-2.059034 -1.084619,-1.841512 -3.946437,-2.176748 -0.807517,-0.09459 -1.626057,-0.235501 -1.818976,-0.313127 l -0.350755,-0.141138 0.04165,-3.363392 0.04165,-3.36339 1.506567,-0.04423 c 2.164549,-0.06355 2.125349,-0.102437 2.125349,2.108263 v 1.821333 l 1.584133,0.183252 c 0.871269,0.100789 1.775388,0.182857 2.009143,0.182374 l 0.425009,-8.76e-4 v -2.608422 c 0,-2.228903 -0.03686,-2.639021 -0.253434,-2.81875 -0.13939,-0.115683 -0.840403,-0.923992 -1.557813,-1.796244 L 61.933378,65.398745 H 59.124534 56.31569 l -1.422694,1.584133 -1.422693,1.584133 -0.0029,4.404663 -0.0029,4.404663 1.168091,1.62277 c 0.642449,0.892524 1.263005,1.754438 1.379007,1.915365 0.161469,0.224008 0.711037,0.379627 2.344546,0.663899 1.232123,0.21442 2.231595,0.468434 2.365471,0.60118 0.183882,0.182335 0.242253,0.780164 0.282266,2.890741 0.06313,3.329801 -0.0361,4.283636 -0.445605,4.283636 -0.296619,0 -2.933368,-0.726943 -3.046273,-0.839849 -0.03312,-0.03312 -0.07212,-0.88055 -0.0867,-1.883211 l -0.02652,-1.823017 -1.854595,-0.428222 c -1.020027,-0.235522 -1.951916,-0.429732 -2.070867,-0.431579 -0.179893,-0.0028 -0.201961,0.40888 -0.131218,2.447439 l 0.08505,2.450794 1.349759,2.026216 1.34976,2.026223 0.86788,0.242978 c 0.477335,0.133636 1.702448,0.511085 2.722476,0.838773 1.020027,0.327688 1.939637,0.603074 2.043582,0.61197 0.103939,0.0089 0.881087,-0.62714 1.726993,-1.413412 z m -89.958501,-2.484363 2.819954,-0.668402 1.230633,-1.71479 1.230634,-1.714797 v -8.93433 -8.934333 l -1.271622,-1.278262 -1.271621,-1.278262 -1.394357,0.01815 c -0.766897,0.01 -2.061807,0.06215 -2.877578,0.115912 l -1.48322,0.09776 -1.260033,1.43066 -1.260038,1.430661 -0.02763,9.503722 c -0.01519,5.227047 -0.03254,9.656195 -0.03861,9.842555 -0.0078,0.239158 0.390925,0.693787 1.355419,1.545493 0.751552,0.663665 1.380333,1.206667 1.397284,1.206667 0.01694,0 1.299806,-0.300783 2.850784,-0.668402 z m -1.725667,-6.549724 c -0.185775,-5.315729 -0.127169,-13.896753 0.09618,-14.082114 0.315527,-0.261864 2.893215,-0.270526 3.074673,-0.01033 0.09255,0.132706 0.115937,1.659052 0.0613,4.001023 -0.0486,2.082555 -0.08848,5.706885 -0.08866,8.054065 l -3.33e-4,4.2676 -1.330244,0.264182 c -0.731633,0.145301 -1.415999,0.297092 -1.520814,0.337315 -0.144764,0.05555 -0.214976,-0.625125 -0.292092,-2.831738 z m 79.727335,7.024939 c -0.244129,-0.752084 -0.776804,-3.215348 -1.388341,-6.420158 l -0.716371,-3.754175 1.049923,-1.15041 1.049923,-1.150409 -0.07728,-4.832036 -0.07727,-4.832036 -1.236392,-1.42727 c -1.210826,-1.397751 -1.250786,-1.427473 -1.931875,-1.437076 -0.382508,-0.0054 -2.260287,-0.06853 -4.172839,-0.140307 -1.912551,-0.07177 -3.504898,-0.104621 -3.538549,-0.07299 -0.03365,0.03163 0.122812,0.467501 0.347694,0.968606 l 0.408875,0.911101 0.01051,9.562844 0.01051,9.562845 -0.38318,0.927298 c -0.210746,0.51001 -0.371947,0.936047 -0.35822,0.946737 0.01373,0.01069 0.929073,0.206844 2.034102,0.435903 1.105029,0.229052 2.130851,0.45102 2.279604,0.493258 0.252903,0.07181 0.270461,-0.199859 0.270461,-4.183727 0,-4.065798 0.01326,-4.260529 0.290357,-4.260529 0.25438,0 0.360685,0.368547 0.858137,2.97508 0.312279,1.636291 0.689401,3.66759 0.838043,4.513992 l 0.270257,1.538911 1.92396,0.49428 c 2.234439,0.574042 2.321205,0.586846 2.237921,0.33027 z m -5.31975,-13.964304 c -0.62812,-0.113967 -1.163587,-0.228764 -1.189931,-0.255104 -0.02634,-0.02634 -0.05777,-1.645206 -0.06988,-3.597479 l -0.02196,-3.549589 1.289198,0.05317 c 0.709056,0.02924 1.376127,0.124693 1.482379,0.212111 0.144238,0.11867 0.193187,1.050577 0.193187,3.678122 0,3.066462 -0.03143,3.531249 -0.244468,3.612991 -0.134453,0.0516 -0.256161,0.08463 -0.270461,0.0734 -0.01431,-0.01123 -0.539912,-0.113655 -1.168038,-0.227623 z M -17.71228,88.897113 c 0.935026,-0.179659 1.839145,-0.355907 2.009149,-0.391667 0.300707,-0.06326 0.307868,-0.171154 0.263703,-3.974295 -0.02494,-2.150101 -0.02494,-4.569973 0,-5.377494 l 0.04539,-1.468222 1.203974,3.70919 c 1.434884,4.420584 2.124782,6.401291 2.254913,6.473921 0.05269,0.02938 0.72168,-0.03709 1.486702,-0.147702 0.7650215,-0.110633 1.512654,-0.205728 1.6614072,-0.21133 0.2546548,-0.0096 0.2706774,-0.595071 0.2741295,-10.017265 l 0.0035,-10.007086 0.381994,-0.927297 c 0.210092,-0.510013 0.3823094,-0.94749 0.3827007,-0.97217 0.00117,-0.05766 -4.8498444,0.149103 -4.9213244,0.209767 -0.02956,0.02508 0.08189,0.415524 0.247646,0.867651 0.270023,0.736541 0.304328,1.288036 0.329808,5.301877 0.01571,2.477693 -0.03037,4.411699 -0.103127,4.327388 -0.07236,-0.08384 -0.671492,-1.856348 -1.331407,-3.938904 -0.659908,-2.082555 -1.391349,-4.377617 -1.625425,-5.100136 l -0.425587,-1.313671 -2.266917,-0.04277 c -1.246802,-0.02352 -2.266917,-0.0081 -2.266917,0.03423 0,0.04235 0.173871,0.470146 0.386375,0.95066 l 0.386375,0.87366 v 9.630906 9.630907 l -0.386375,1.07112 c -0.470769,1.30508 -0.471213,1.319023 -0.03861,1.217216 0.191254,-0.04504 1.112757,-0.228831 2.047776,-0.40849 z M 39.199109,88.156169 C 39.157753,87.922414 39.010963,87.10523 38.87294,86.340214 38.734917,85.575192 38.347462,83.071488 38.011928,80.776427 37.676395,78.481366 37.123434,74.795358 36.783129,72.585299 36.442824,70.375241 36.073827,67.941085 35.963135,67.176064 l -0.201254,-1.390946 -2.906288,-0.133189 c -1.598456,-0.07325 -2.945067,-0.09441 -2.992463,-0.04702 -0.04737,0.0474 0.0257,0.414566 0.16248,0.815934 0.237855,0.698076 0.228252,0.874563 -0.221208,4.065302 -0.258428,1.83455 -0.707497,4.761265 -0.997936,6.503811 -0.290438,1.742546 -0.708642,4.315797 -0.929347,5.718334 -0.2207,1.402538 -0.498796,2.929615 -0.617987,3.393509 -0.119184,0.463894 -0.199939,0.860205 -0.179454,0.880691 0.02815,0.02815 3.991333,0.516839 4.191349,0.516839 0.02144,0 0.08396,-0.747639 0.138958,-1.661408 0.154156,-2.561276 0.03797,-2.406248 1.707775,-2.278749 0.774245,0.05912 1.454213,0.152657 1.511042,0.207864 0.145634,0.141487 0.490851,3.679704 0.385744,3.953612 -0.06545,0.17057 0.09095,0.251664 0.639441,0.331549 0.399348,0.05818 1.247696,0.192504 1.885209,0.298528 1.767223,0.293896 1.746784,0.296291 1.659913,-0.19456 z m -6.504863,-8.18871 c -0.575111,-0.05949 -0.591922,-0.07786 -0.506821,-0.553581 0.04842,-0.270625 0.26993,-2.161181 0.492277,-4.201236 0.222341,-2.040054 0.420639,-3.725783 0.440663,-3.746064 0.02004,-0.02028 0.277815,1.909658 0.572874,4.288752 l 0.536466,4.325624 -0.470308,-0.02598 c -0.258673,-0.01429 -0.737988,-0.05367 -1.065151,-0.08751 z m -36.1879625,7.000245 c 1.3600408,-0.121703 3.39522365,-0.269492 4.5226363,-0.328419 1.9225228,-0.100492 2.0539858,-0.127502 2.1165105,-0.434933 0.077899,-0.383039 0.2178141,-3.959704 0.1548981,-3.959704 -0.023423,0 -0.3793771,0.168733 -0.7909862,0.374963 -0.6517952,0.326577 -1.0130762,0.383168 -2.79961477,0.438536 l -2.05124623,0.06357 0.042115,-2.718142 0.042115,-2.718142 1.79405045,-0.04335 1.79404465,-0.04335 0.098086,-1.038494 c 0.053973,-0.571172 0.098577,-1.440948 0.099184,-1.932835 l 0.00117,-0.89434 -1.99664231,0.105408 -1.99664229,0.105408 -0.016531,-2.47252 -0.016531,-2.47252 1.0472533,-0.0989 c 2.24061938,-0.211603 3.2827615,-0.133675 4.0243542,0.30093 L 3.2605203,69.602891 3.160378,68.080377 C 3.1052951,67.242995 3.022624,66.297061 2.9766475,65.978303 L 2.8930593,65.398742 H 1.5406712 c -0.74381235,0 -2.9191675,0.0456 -4.8341265,0.101328 l -3.4817376,0.101328 0.3712811,0.913731 0.3712812,0.91373 -0.019218,8.682927 -0.019218,8.682928 -0.3726831,1.070151 c -0.2049751,0.588587 -0.372683,1.127576 -0.372683,1.197759 0,0.174484 0.4585493,0.161382 3.3228149,-0.09492 z M 24.470552,85.617669 24.093389,84.50875 V 76.711211 68.91367 l 1.219272,0.07058 c 1.099707,0.06366 1.283946,0.121806 1.878801,0.59294 l 0.659529,0.522358 -0.08739,-2.207518 c -0.04807,-1.214136 -0.131668,-2.251799 -0.185787,-2.305918 -0.07758,-0.07758 -10.608149,-0.356885 -10.692928,-0.283612 -0.01209,0.01043 -0.04807,1.002103 -0.08004,2.203713 l -0.05812,2.184746 0.848072,-0.452557 c 0.71529,-0.381701 0.993999,-0.445491 1.780084,-0.407426 l 0.932012,0.04513 0.04007,7.681491 0.04007,7.681491 -0.387812,1.030324 c -0.213299,0.566677 -0.387812,1.088978 -0.387812,1.160673 0,0.120102 0.914978,0.179875 4.047719,0.264422 l 1.188553,0.03207 z m -43.187403,-22.657867 2.24097,-0.574774 -0.01986,-0.463649 c -0.01092,-0.255007 -0.02833,-0.903846 -0.03861,-1.441864 l -0.01881,-0.978214 -0.463649,0.101834 -0.463648,0.101835 -0.0012,-3.682833 c -5.08e-4,-2.025557 -0.04498,-4.248829 -0.09885,-4.940603 -0.08933,-1.147383 -0.0723,-1.264992 0.19411,-1.340046 0.160623,-0.04525 0.44852,-0.127253 0.639774,-0.182227 0.328576,-0.09444 0.347735,-0.05605 0.347735,0.696795 v 0.796747 l 0.656836,-0.100878 c 0.361264,-0.05548 1.056734,-0.174965 1.5455,-0.265516 l 0.888658,-0.164639 v -2.143587 c 0,-1.996328 -0.01998,-2.143586 -0.291081,-2.143586 -0.657934,0 -7.413345,1.52194 -9.939706,2.239336 l -1.498735,0.425587 -0.04673,2.106266 c -0.0257,1.158447 -0.02827,2.136346 -0.0058,2.17311 0.02261,0.03676 0.71807,-0.107121 1.545494,-0.319745 l 1.504412,-0.386588 0.04615,-0.784681 c 0.03867,-0.657839 0.101153,-0.799426 0.386375,-0.875903 0.956328,-0.256424 0.899148,-0.575204 0.849253,4.734229 l -0.04539,4.829675 -0.502288,0.147872 -0.502283,0.147873 v 1.525815 1.525815 l 0.425009,-0.09434 c 0.233755,-0.05189 1.433447,-0.35299 2.665979,-0.669116 z m 63.753197,-0.271759 1.15763,-0.856106 v -2.461166 -2.461166 l -1.082085,-1.203113 -1.082085,-1.203114 -2.27937,-0.545312 -2.279364,-0.545312 -0.04352,-1.811759 c -0.03423,-1.425356 2.45e-4,-1.811758 0.161784,-1.811758 0.284744,0 3.073032,0.614179 3.230722,0.711634 0.07062,0.04365 0.128397,0.447023 0.128397,0.896394 v 0.817037 l 1.50686,0.396647 c 0.828773,0.218156 1.543163,0.350603 1.587533,0.294326 0.04439,-0.05627 0.05631,-0.680234 0.02658,-1.386572 l -0.05409,-1.284249 -1.108429,-1.131967 -1.108423,-1.131968 -2.098175,-0.486941 c -3.324187,-0.771472 -3.041594,-0.77619 -4.382365,0.07315 l -1.169668,0.740957 v 2.718997 2.718996 l 1.120485,1.185501 1.120486,1.185501 1.622768,0.316388 c 0.892524,0.174013 1.883573,0.390217 2.202336,0.480455 l 0.579556,0.164068 v 1.63226 1.632261 L 42.3689,60.216734 c -0.233755,-0.06346 -0.981387,-0.230098 -1.661407,-0.370311 l -1.236399,-0.254933 -0.04708,-0.727463 c -0.03914,-0.604899 -0.104237,-0.739569 -0.386375,-0.799319 -0.648326,-0.137301 -2.768243,-0.547997 -2.828624,-0.547997 -0.03341,0 -0.06074,0.539013 -0.06074,1.197809 v 1.197808 l 1.043205,1.19049 c 0.573768,0.65477 1.18231,1.223849 1.352314,1.264622 1.442232,0.345895 4.985391,1.144706 5.140265,1.158883 0.107076,0.0098 0.715617,-0.367427 1.352312,-0.838285 z M 32.593613,59.764688 V 58.30347 l -0.529105,-0.09926 c -0.487954,-0.09154 -0.543394,-0.161197 -0.712866,-0.895664 -0.101071,-0.438021 -0.767089,-3.214505 -1.480042,-6.169965 -0.712953,-2.955459 -1.297341,-5.459162 -1.298643,-5.563785 -0.0012,-0.104622 -0.05866,-0.27892 -0.127456,-0.387329 -0.156195,-0.24612 -3.754752,-0.717006 -3.879573,-0.507658 -0.04737,0.07948 -0.778399,2.892622 -1.62445,6.251427 l -1.538286,6.10692 -0.546846,0.04609 -0.546845,0.04609 -0.0012,1.390946 -0.0012,1.390946 1.440399,0.101313 c 0.792218,0.05572 1.922365,0.149715 2.511431,0.208873 l 1.071027,0.107559 v -1.483906 c 0,-1.260447 -0.03744,-1.483907 -0.248574,-1.483907 -0.193959,0 -0.225163,-0.09332 -0.141989,-0.424694 0.05862,-0.233582 0.118326,-0.436178 0.132666,-0.450212 0.111714,-0.109325 2.829884,0.320514 2.919693,0.461706 0.22275,0.350207 0.12724,0.722299 -0.185407,0.722299 -0.284696,0 -0.303114,0.09679 -0.270461,1.42126 l 0.03505,1.421259 2.24097,0.333377 c 1.232532,0.183358 2.362672,0.343586 2.511431,0.356061 0.240111,0.02014 0.270462,-0.14129 0.270462,-1.438534 z M 26.534035,53.97368 c -0.400183,-0.05591 -0.770711,-0.144742 -0.823381,-0.197416 -0.08692,-0.08692 0.631245,-4.277912 0.75411,-4.400778 0.02874,-0.02876 0.24035,0.869754 0.470197,1.99669 0.229853,1.126937 0.450874,2.205457 0.491161,2.396712 0.04031,0.191256 0.01974,0.338444 -0.04562,0.327087 -0.06537,-0.01136 -0.446283,-0.06639 -0.846472,-0.122295 z m -33.5051141,6.861364 c 1.4287391,-0.203071 7.48410023,-0.84264 7.9979369,-0.844744 0.145704,-5.84e-4 0.1931875,-0.556071 0.1931875,-2.259917 v -2.259127 l -1.19775875,0.102136 c -2.09710005,0.178827 -2.04778245,0.154061 -2.04778245,1.028306 v 0.760468 l -0.5795565,0.0011 c -0.3187625,5.84e-4 -1.0490062,0.04543 -1.6227741,0.09962 l -1.0432111,0.09853 V 55.93633 54.311235 l 1.7386872,-0.180058 c 2.69812367,-0.279419 2.434152,-0.07746 2.434152,-1.862363 V 50.73598 l -0.5022827,0.06769 c -1.8907119,0.25479 -2.9811437,0.376528 -3.3726414,0.376528 H -5.4255852 V 49.420264 47.66033 l 1.5438115,-0.189116 c 0.8491014,-0.104014 1.6488962,-0.148794 1.7773218,-0.09951 0.1594484,0.06119 0.2335095,0.305699 0.2335095,0.770943 v 0.681339 l 0.73411,-0.06405 c 0.40375849,-0.03523 1.09923451,-0.101239 1.54549387,-0.146686 L 1.2200453,48.53062 v -2.152574 c 0,-1.948176 -0.025702,-2.152289 -0.27046128,-2.149581 -0.52787906,0.0058 -6.21921382,0.60415 -8.02177502,0.843302 -2.8067703,0.372381 -2.5262328,0.182853 -2.5262328,1.706719 v 1.310727 h 0.5536039 0.5536097 l -0.051345,4.984223 -0.051345,4.984224 -0.5022827,0.04843 -0.5022886,0.04843 v 1.458429 1.458429 l 0.5022886,-0.0028 c 0.2762558,-0.0016 1.2325317,-0.106623 2.1250562,-0.233481 z M 9.5518846,59.587947 c 0.034872,-0.03309 0.081112,-0.685959 0.1027183,-1.450823 0.035982,-1.273056 0.083343,-1.462688 0.5602281,-2.242384 l 0.520934,-0.851723 0.552943,0.966387 c 0.536495,0.937632 0.550725,1.003714 0.478165,2.220768 -0.04241,0.711745 -0.01139,1.293554 0.07175,1.344939 0.08059,0.04981 1.184354,0.101135 2.452815,0.114062 l 2.306294,0.02351 0.04445,-1.407079 0.04445,-1.407079 -0.43081,-0.0024 c -0.236944,-0.0013 -0.505921,-0.05346 -0.597722,-0.115912 -0.175343,-0.11928 -2.941092,-4.490438 -3.095009,-4.891537 -0.0528,-0.137578 0.495204,-1.164935 1.343235,-2.518232 1.70908,-2.727362 1.787148,-2.825746 2.208372,-2.782908 0.309527,0.03148 0.331093,-0.04473 0.373168,-1.3189 l 0.04463,-1.352308 -1.203783,-0.0011 c -0.662076,-5.84e-4 -1.673218,-0.04543 -2.246986,-0.09962 l -1.043205,-0.09853 v 1.438278 c 0,1.379934 -0.02325,1.478017 -0.573038,2.417867 -0.31517,0.538774 -0.646655,0.979589 -0.736639,0.979589 -0.08999,0 -0.388496,-0.375992 -0.663361,-0.835537 C 9.5949696,46.930611 9.5657284,46.794988 9.5657284,45.399023 v -1.482706 h -2.401534 -2.401534 l 0.044627,1.352308 0.044627,1.352309 0.4902498,0.07728 c 0.2737382,0.04315 0.6217537,0.247912 0.788013,0.463649 0.3985598,0.517166 2.817302,4.426786 2.817302,4.553848 0,0.05512 -0.475892,0.843891 -1.0575455,1.752833 -0.5816477,0.908942 -1.2525262,1.989059 -1.4908315,2.40026 -0.238311,0.411202 -0.5100516,0.770516 -0.6038678,0.798477 -0.09381,0.02796 -0.3618241,0.09275 -0.5955849,0.143966 l -0.4250089,0.09313 v 1.4277 1.427699 l 2.3568835,-0.05585 c 1.296283,-0.03072 2.3854238,-0.08292 2.4203136,-0.11601 z"
         id="path3" /><path
         style="fill:#c46531;fill-opacity:1;stroke-width:0.584124"
         d="m 8.9296858,134.51212 c -6.9284921,-0.65638 -12.2654609,-2.41631 -17.8415999,-5.88348 -3.1595639,-1.96458 -6.3468159,-4.66188 -8.7203879,-7.37989 -2.120955,-2.42874 -3.22203,-4.04719 -5.315508,-7.8132 -0.817044,-1.46979 -2.163363,-4.89336 -2.795742,-7.10928 -0.9311,-3.2627 -1.491357,-7.371416 -1.491357,-10.937051 0,-1.160468 -0.02775,-1.284607 -0.270461,-1.209494 -0.148753,0.04603 -2.078695,0.608009 -4.288753,1.248835 -2.210058,0.640819 -6.385373,1.964013 -9.278477,2.940429 -2.893104,0.976417 -5.344644,1.775301 -5.447871,1.775301 -0.14137,0 -0.187685,-0.81684 -0.187685,-3.310228 v -3.310221 l 0.517137,-1.079088 0.517143,-1.079088 -0.0368,-11.574836 -0.03674,-11.574833 -0.480367,-0.757464 c -0.47977,-0.756522 -0.480372,-0.760232 -0.480372,-2.968181 v -2.210713 h 6.413809 6.413808 l 0.0053,2.125063 0.0053,2.125056 1.618013,-1.661407 1.618013,-1.661414 h 2.936014 2.936013 v -3.400091 c 0,-1.870051 -0.06099,-3.400089 -0.13554,-3.400089 -0.07455,0 -0.819363,0.210489 -1.65514,0.467761 -0.835782,0.257272 -1.601067,0.436498 -1.700637,0.398291 -0.165792,-0.06362 -0.201143,-3.844835 -0.08841,-9.456261 l 0.02512,-1.249103 0.579557,-0.185816 c 1.124772,-0.360615 6.79155,-1.843082 9.157066,-2.395549 10.5710691,-2.468872 23.6353669,-3.681485 34.619096,-3.213297 2.422568,0.103261 5.100135,0.255583 5.950159,0.338494 8.286541,0.808253 13.610262,1.678172 19.936894,3.257769 2.908671,0.726219 3.565981,0.903635 6.259261,1.689434 l 1.081845,0.315643 v 8.416408 8.416406 h 0.552185 c 0.477002,0 0.673817,0.129822 1.445544,0.953455 l 0.89336,0.953454 1.499243,-1.494377 1.499243,-1.494377 h 3.905251 3.905257 l 1.225172,1.275541 c 0.673846,0.701551 1.841697,1.964147 2.595218,2.805777 l 1.370046,1.530225 -0.09501,0.693163 c -0.05228,0.38124 -0.09501,2.606001 -0.09501,4.9439 v 4.250738 L 66.88604,77.523889 c -0.595018,-0.05532 -1.081845,-0.04416 -1.081845,0.02477 0,0.06892 0.248983,0.364985 0.553295,0.657911 0.304317,0.292933 0.808533,0.878541 1.120484,1.301353 l 0.567185,0.768743 0.02997,6.356829 0.02997,6.356827 -2.603132,2.406867 c -1.431724,1.323778 -2.731822,2.48719 -2.889109,2.585364 -0.233083,0.145488 -0.729022,0.03002 -2.681493,-0.624335 -1.317533,-0.441563 -3.942945,-1.271575 -5.834246,-1.844478 l -3.438729,-1.04164 -0.0018,1.483787 c -0.0047,4.273333 -1.074018,9.716293 -2.73553,13.925023 -5.113443,12.95275 -16.239037,21.89458 -30.104596,24.1956 -2.271023,0.37688 -7.039312,0.61062 -8.8865995,0.43561 z M 8.9097668,130.7706 C 6.8848937,129.17401 4.652896,126.47093 2.9946954,123.60709 l -0.4193254,-0.7242 -1.88435021,1.33644 c -3.71534069,2.63503 -4.52605809,3.20663 -4.90247949,3.45652 -0.2100803,0.13947 -0.3471919,0.28187 -0.304691,0.31646 0.3440551,0.28001 2.9684261,1.33818 4.86831409,1.96294 3.35265201,1.1025 6.13699191,1.64473 8.71439411,1.6971 l 0.9869135,0.02 z m 9.9715232,0.27428 c 0.859276,-0.16794 2.188241,-0.48303 2.953263,-0.70021 1.550313,-0.44012 4.559213,-1.59607 4.559213,-1.75156 0,-0.27163 -15.760616,-11.46739 -15.971736,-11.34573 -0.301934,0.17399 -4.6335436,3.27535 -5.0910123,3.64508 l -0.430377,0.34784 0.7943625,1.38251 c 2.1588478,3.75725 4.5692378,6.15311 8.1399778,8.0909 1.481649,0.80407 1.526066,0.81702 2.496238,0.72758 0.543265,-0.0501 1.690795,-0.22847 2.550071,-0.39641 z m 16.012701,-7.64734 c 1.430527,-1.19069 4.327087,-4.15627 5.27706,-5.40278 1.7394,-2.28238 4.270604,-6.56994 4.69205,-7.94779 0.109576,-0.35824 0.08126,-0.35079 -0.638477,0.16817 -1.19287,0.86011 -3.336583,2.10255 -4.771894,2.76567 -2.853481,1.31831 -7.622273,2.61554 -10.626489,2.89065 -0.9971,0.0913 -1.266358,0.16664 -1.241106,0.34721 0.03207,0.22948 1.124556,3.79251 2.453918,8.00336 l 0.697374,2.20898 1.49922,-1.03434 c 0.824573,-0.56888 2.020825,-1.46849 2.658344,-1.99913 z m -38.3282966,0.23872 c 1.6970677,-1.19038 3.65571858,-2.59862 5.4865105,-3.94471 0.5950183,-0.43749 1.812094,-1.30679 2.7046185,-1.93179 0.8925246,-0.625 2.4800695,-1.75354 3.5278836,-2.50787 1.0478081,-0.75433 1.997624,-1.40701 2.110693,-1.4504 0.113069,-0.0434 1.759476,1.02729 3.658675,2.37928 1.899198,1.35199 5.365637,3.81854 7.703204,5.48122 2.337561,1.66267 4.563074,3.27228 4.945582,3.5769 0.382514,0.30462 0.717644,0.48887 0.744736,0.40945 0.0271,-0.0794 -0.346842,-1.41668 -0.830976,-2.97169 -0.484134,-1.55501 -1.314455,-4.25301 -1.845161,-5.99556 -0.5307,-1.74255 -1.460778,-4.77355 -2.066825,-6.73556 -0.606046,-1.96201 -1.10191,-3.64295 -1.10191,-3.73542 0,-0.0925 0.469449,-0.51281 1.043211,-0.93408 0.573768,-0.42126 3.581688,-2.69357 6.68427,-5.04957 3.102583,-2.355992 6.628936,-5.024821 7.836344,-5.930728 1.207402,-0.905907 2.198451,-1.698797 2.202329,-1.761982 0.0041,-0.06319 -4.945856,-0.132731 -10.999406,-0.154548 L 17.363023,92.33954 15.56587,86.698482 c -0.988431,-3.102586 -2.161564,-6.788591 -2.606953,-8.191132 -0.445394,-1.402535 -1.112079,-3.488957 -1.48152,-4.636487 -0.369441,-1.14753 -0.717924,-2.31742 -0.774409,-2.599757 -0.05649,-0.282336 -0.148239,-0.46838 -0.2039,-0.413431 -0.05567,0.05497 -0.285327,0.738006 -0.5103613,1.517911 L 9.5795651,73.793589 9.0053007,73.77443 C 8.689453,73.763857 8.3756555,73.665648 8.307973,73.556131 8.190418,73.365934 8.2690119,69.37234 8.3984773,68.958307 8.4448567,68.809974 8.8439247,68.770733 9.9701808,68.803759 l 1.5095522,0.04428 0.01197,1.46822 0.01198,1.46822 h 1.842637 1.842638 l 0.03657,-1.931869 0.03657,-1.931869 -1.299256,-1.352306 -1.299263,-1.352312 -2.6782975,-0.0029 -2.6782979,-0.0029 -1.3516171,1.43222 -1.3516113,1.432215 0.00409,3.32282 0.0035,3.322815 1.2366907,1.275033 c 1.1855622,1.222327 1.2652368,1.275032 1.927371,1.275032 0.3798794,0 0.6906862,0.04801 0.6906862,0.106708 0,0.05869 -0.1874339,0.682263 -0.4165275,1.385719 l -0.4165215,1.279004 -1.4767074,0.04387 -1.4767073,0.04387 -0.043167,1.866312 -0.043167,1.866314 0.6304396,0.716213 0.6304338,0.716218 -0.8719225,2.749427 c -0.4795633,1.512139 -0.9880728,3.09712 -1.1300267,3.522134 l -0.2580954,0.772744 -10.8552619,0.03966 c -6.5257323,0.02383 -10.8552683,0.09676 -10.8552683,0.182779 0,0.0787 0.141445,0.187983 0.314323,0.242849 0.172883,0.05485 0.433683,0.222009 0.579562,0.371422 0.145879,0.149407 0.96071,0.798299 1.810727,1.441981 2.368327,1.79342 4.886324,3.723285 7.2009226,5.518998 1.1554331,0.8964 3.3649479,2.56871 4.9100445,3.71624 2.76185052,2.05121 2.8080606,2.09495 2.7381117,2.59175 -0.0652117,0.46314 -3.1196676,10.5054 -4.8761413,16.03147 -0.4052714,1.27503 -0.7887023,2.55547 -0.8520681,2.84542 l -0.1152127,0.52717 0.6745819,-0.53738 c 0.3710183,-0.29555 1.404825,-1.0496 2.2973495,-1.67565 z m -4.8720939,-1.62321 c 0.4824517,-1.53004 1.1110864,-3.54691 1.3969569,-4.48194 0.2858704,-0.93502 0.6603117,-2.14911 0.8320851,-2.69798 0.1717735,-0.54887 0.2977458,-1.0098 0.27993,-1.02431 -0.1940753,-0.15801 -2.9614406,-0.82309 -3.0376805,-0.73005 -0.05631,0.0687 -0.1866453,0.47269 -0.2896322,0.8977 -0.1029929,0.42502 -0.4754014,1.3639 -0.8275875,2.08642 -0.7660263,1.57154 -2.3316313,3.23265 -3.7205093,3.94747 -0.488562,0.25146 -0.88846,0.50237 -0.888664,0.5576 -0.0012,0.32044 5.0905794,4.53326 5.2603435,4.3523 0.064663,-0.0689 0.5123005,-1.37717 0.994758,-2.90721 z m -6.7449365,-4.4901 c 1.618521,-0.80971 2.583576,-2.0596 3.174307,-4.11119 0.410137,-1.42439 0.45161,-1.36544 -1.489096,-2.11675 -3.029836,-1.17294 -6.147939,-2.88435 -8.45957,-4.64313 -0.552518,-0.42037 -1.024414,-0.71041 -1.048661,-0.64452 -0.07223,0.19625 1.123919,3.42698 1.814348,4.90043 1.329835,2.83805 4.12709,7.16425 4.632288,7.16425 0.153356,0 0.772726,-0.24709 1.376384,-0.54909 z m 43.919056,-4.48012 c 2.578477,-0.31922 4.244814,-0.69755 6.73003,-1.52799 3.736707,-1.24862 6.527519,-2.88387 9.04395,-5.2992 2.057654,-1.97499 2.264931,-2.3102 2.620586,-4.23804 0.370592,-2.008793 0.702276,-6.462695 0.553499,-7.432412 -0.109839,-0.715885 -0.127783,-0.735436 -0.880088,-0.958846 -0.422381,-0.125435 -1.356384,-0.344919 -2.075558,-0.487749 l -1.307591,-0.259685 -1.199652,0.922111 c -1.256995,0.966182 -3.091373,2.363496 -6.454334,4.916505 -6.714469,5.097316 -11.050295,8.463836 -11.050295,8.579916 0,0.0734 0.338722,1.23267 0.752708,2.57621 0.413992,1.34353 0.802026,2.66881 0.862302,2.94506 0.127806,0.58575 -0.04241,0.56705 2.404443,0.26412 z M -4.3615793,109.3072 c 0.2975121,-0.99481 0.5615889,-1.88915 0.5868406,-1.98741 0.025234,-0.0983 -0.7397702,-0.7758 -1.7000473,-1.50563 -0.9602771,-0.72984 -2.3892674,-1.81913 -3.1755339,-2.42064 -0.7862723,-0.60152 -1.4295861,-1.06556 -1.4295861,-1.0312 0,0.0344 0.1033843,0.3099 0.2297421,0.61231 0.5220319,1.2494 1.0274981,3.64276 1.1311978,5.35614 l 0.1072802,1.77267 1.7000473,0.49572 c 0.9350196,0.27264 1.7695874,0.50046 1.8545891,0.50626 0.085002,0.006 0.397964,-0.8034 0.6954702,-1.79822 z m -7.1676147,-1.30439 c -0.212546,-2.2869 -1.101344,-5.09011 -2.491536,-7.85814 -0.753947,-1.501207 -0.569084,-1.322716 -4.426834,-4.274168 -0.649611,-0.496996 -1.756129,-1.349911 -2.45893,-1.895367 l -1.277831,-0.991738 -0.941158,0.19223 c -0.51764,0.105726 -0.998321,0.247528 -1.068189,0.315112 -0.155569,0.150488 -0.176785,4.432557 -0.03032,6.120858 l 0.106545,1.228163 1.578245,1.54549 c 2.528967,2.47649 5.353898,4.3295 9.071663,5.95055 0.970674,0.42324 1.827012,0.77017 1.902972,0.77094 0.07784,5.9e-4 0.09327,-0.48092 0.0354,-1.10393 z M -39.36705,94.471332 c 2.125056,-0.696364 4.362504,-1.41385 4.972102,-1.594415 l 1.108364,-0.328301 0.08901,-1.109112 c 0.105639,-1.316207 0.188252,-4.432353 0.117502,-4.432102 -0.02722,9.3e-5 -0.383968,0.282161 -0.792703,0.626812 -0.62749,0.529106 -1.040729,0.709296 -2.655073,1.157717 -1.051553,0.292091 -1.929299,0.531711 -1.950549,0.532482 -0.02126,5.84e-4 -0.03838,-4.849523 -0.03809,-10.778429 l 5.6e-4,-10.779834 0.447475,-1.197759 c 0.246109,-0.658764 0.402339,-1.200592 0.347174,-1.20405 -0.446797,-0.02804 -5.814964,0.02839 -5.848031,0.06144 -0.02348,0.02348 0.173724,0.594435 0.438216,1.2688 l 0.480892,1.226118 -0.01706,12.184181 -0.01706,12.184176 -0.466435,1.559098 c -0.516541,1.72659 -0.557208,2.015399 -0.273242,1.940345 0.106252,-0.0281 1.931869,-0.620808 4.056925,-1.317171 z m 102.796048,-1.219933 1.602183,-1.483652 v -5.154103 -5.154105 l -1.413114,-1.953161 c -0.777212,-1.074234 -1.559624,-2.009329 -1.738687,-2.077987 -0.179057,-0.06866 -1.227888,-0.240227 -2.33072,-0.38127 -1.118172,-0.142999 -2.057152,-0.338219 -2.122691,-0.441312 -0.06464,-0.101684 -0.118601,-1.5847 -0.119903,-3.295589 -0.0018,-2.561881 0.03803,-3.144242 0.226693,-3.300805 0.273545,-0.22702 2.971113,-0.06745 3.294917,0.194899 0.146603,0.118782 0.193503,0.627619 0.17293,1.876132 l -0.02821,1.713137 1.218016,0.17838 c 0.669915,0.09811 1.565763,0.199333 1.990772,0.224935 l 0.77275,0.04655 0.04241,-2.591982 0.04241,-2.591976 -1.12427,-1.342733 C 63.296127,66.97826 62.616341,66.151905 62.403836,65.880415 l -0.386375,-0.493608 -2.85718,-0.02786 -2.857186,-0.02786 -1.431566,1.593135 -1.431572,1.593135 v 4.430374 4.430373 l 1.380111,1.930367 1.38011,1.93037 2.135892,0.347168 c 1.459651,0.237251 2.197061,0.425836 2.329079,0.595642 0.141352,0.181803 0.193188,1.173592 0.193188,3.6963 0,2.654267 -0.04445,3.448244 -0.193188,3.449634 -0.106252,0.0012 -0.871268,-0.186248 -1.700041,-0.416095 l -1.50686,-0.4179 v -1.870448 -1.870449 l -2.0094,-0.469338 c -1.105169,-0.258136 -2.044055,-0.434679 -2.086416,-0.392317 -0.04235,0.04236 -0.07338,1.160797 -0.06894,2.485416 l 0.0081,2.408398 1.421502,2.073075 1.421496,2.073069 2.009148,0.580619 c 1.105029,0.319341 2.356878,0.718129 2.781893,0.886199 0.425009,0.16807 0.799397,0.312693 0.831968,0.321391 0.03259,0.0087 0.780209,-0.651836 1.661408,-1.467846 z M 51.29167,90.041548 c -0.173578,-0.632723 -0.632706,-2.808668 -1.020267,-4.835446 -0.387566,-2.02677 -0.738794,-3.796672 -0.780507,-3.933112 -0.0479,-0.156624 0.301724,-0.655882 0.948373,-1.354325 l 1.024221,-1.106244 -0.02412,-4.891738 -0.02412,-4.891732 -1.239044,-1.429142 -1.239039,-1.429148 -1.419142,-0.08758 c -2.410535,-0.148765 -7.214748,-0.281793 -7.214748,-0.199776 0,0.04276 0.208585,0.518691 0.463526,1.057586 l 0.463526,0.979816 1.23e-4,9.469229 1.22e-4,9.469231 -0.386117,0.950242 c -0.212365,0.522633 -0.354097,0.982263 -0.31496,1.021405 0.133273,0.133268 4.461302,0.959133 4.551894,0.868576 0.04959,-0.04959 0.103787,-1.944766 0.120406,-4.211514 0.02395,-3.270501 0.07183,-4.121358 0.231821,-4.121358 0.218322,0 0.227306,0.03927 1.254945,5.48651 l 0.656018,3.477362 2.081767,0.543101 c 1.144977,0.298704 2.104086,0.492552 2.131365,0.430775 0.02728,-0.06177 -0.09243,-0.629996 -0.266017,-1.262714 z M 45.828395,77.072455 44.939738,76.91182 v -3.569408 -3.569409 l 1.275032,0.05251 c 0.951627,0.03914 1.324759,0.116545 1.471088,0.305065 0.147836,0.190472 0.185845,1.09007 0.154548,3.657857 l -0.04153,3.40527 -0.540923,0.01968 c -0.297506,0.01086 -0.94082,-0.05257 -1.429586,-0.140931 z m -72.246546,13.615298 2.748632,-0.650194 1.231019,-1.67441 1.231024,-1.67441 v -9.001055 -9.001059 l -1.300909,-1.294151 -1.300903,-1.294145 -2.830054,0.08114 -2.830053,0.08114 -0.601695,0.675493 c -0.33093,0.371527 -0.897677,1.023234 -1.259431,1.448249 l -0.657747,0.772744 -0.111965,9.895745 -0.111959,9.895746 1.368154,1.182578 c 0.752486,0.650422 1.437705,1.188027 1.522707,1.19468 0.08501,0.0067 1.391437,-0.280485 2.90318,-0.638091 z m -1.820482,-12.067848 c -0.06564,-4.77149 -0.05643,-8.387202 0.02161,-8.465218 0.0749,-0.0749 0.813966,-0.183824 1.642371,-0.242055 l 1.506188,-0.105879 -0.04001,8.249694 -0.04001,8.24969 -1.487776,0.321403 -1.487777,0.321403 z m 10.663073,10.257583 2.163691,-0.439799 -0.04796,-5.235634 c -0.0281,-3.067159 0.009,-5.171619 0.08959,-5.08108 0.07565,0.085 0.847821,2.3279 1.715947,4.984221 0.925499,2.831885 1.65559,4.827646 1.765002,4.824772 0.505408,-0.01326 3.2120944,-0.44779 3.360427,-0.539462 0.1222572,-0.07556 0.1431397,-2.851135 0.074452,-9.89629 l -0.095469,-9.79128 0.3941029,-0.985091 c 0.216751,-0.541799 0.394097,-1.031791 0.394097,-1.088878 0,-0.127391 -4.2720289,-0.135131 -4.7439139,-0.0086 l -0.339253,0.09097 0.293972,0.745804 c 0.261098,0.662415 0.299031,1.255435 0.339248,5.303499 0.02488,2.506729 0.02699,4.539289 0.0047,4.516801 -0.04065,-0.04089 -3.063616,-9.404129 -3.271821,-10.134068 l -0.110207,-0.386375 -2.229667,0.05514 c -1.226317,0.03032 -2.256905,0.08074 -2.290188,0.112041 -0.0333,0.03131 0.123192,0.480524 0.347735,0.998275 l 0.408256,0.941357 v 9.483411 9.483408 l -0.441487,1.247602 c -0.376427,1.063737 -0.404898,1.246971 -0.193188,1.243332 0.136563,-0.0023 1.221965,-0.202171 2.411996,-0.444063 z m 56.617534,-1.751129 c -0.162334,-0.78785 -0.53396,-3.103031 -0.825834,-5.144843 -0.291869,-2.041811 -0.743841,-5.06712 -1.004378,-6.722908 -0.260537,-1.655782 -0.687935,-4.47101 -0.949763,-6.25606 -0.261834,-1.785049 -0.495063,-3.266709 -0.518294,-3.292586 -0.02325,-0.02588 -1.406203,-0.08887 -3.073271,-0.139997 l -3.031027,-0.09295 0.302722,0.879884 c 0.249193,0.724303 0.276951,1.022335 0.156984,1.685491 -0.08016,0.443088 -0.289054,1.848818 -0.46421,3.123856 -0.175161,1.275033 -0.48893,3.326676 -0.697275,4.559208 -0.20834,1.232538 -0.620247,3.78515 -0.915346,5.672481 -0.2951,1.887331 -0.644961,3.898971 -0.777464,4.470321 -0.158146,0.681919 -0.1872,1.072003 -0.08456,1.135439 0.191908,0.118606 4.03436,0.509245 4.124315,0.419296 0.03552,-0.03552 0.08944,-0.612934 0.119863,-1.283187 0.03043,-0.67026 0.106544,-1.554811 0.169162,-1.965672 l 0.11384,-0.747024 0.946451,0.09659 c 2.040306,0.208219 2.1038,0.228443 2.125237,0.676934 0.01081,0.226285 0.06298,1.171769 0.115908,2.10107 l 0.09625,1.68965 1.914392,0.275035 c 1.052913,0.151264 1.991799,0.303043 2.086415,0.337279 0.349137,0.126328 0.358688,-0.07564 0.06988,-1.477303 z m -6.157102,-7.212641 c -0.577717,-0.07701 -0.689822,-0.145039 -0.66207,-0.401796 0.361228,-3.342126 0.842804,-7.604891 0.870976,-7.70963 0.03277,-0.121843 1.044438,7.849487 1.032387,8.134639 -0.0053,0.124138 -0.157117,0.121299 -1.241293,-0.02319 z m -35.9327795,7.029763 c 1.5300438,-0.126288 3.56429786,-0.275455 4.5205737,-0.331479 l 1.7386872,-0.101859 0.00117,-1.103593 c 5.842e-4,-0.606981 0.045445,-1.573039 0.099622,-2.146804 0.1093481,-1.157793 0.019276,-1.254273 -0.6865389,-0.735313 -0.3547971,0.260871 -0.7669261,0.323549 -2.6983626,0.410376 l -2.2796038,0.10248 v -2.629818 -2.629815 l 0.8113838,-0.09746 c 0.4462593,-0.05362 1.27213528,-0.09806 1.83527792,-0.0988 1.02273758,-0.0012 1.02399928,-0.0018 1.12048498,-0.48431 0.053155,-0.26563 0.096591,-1.144393 0.096591,-1.952798 v -1.469832 l -1.93186879,0.110061 -1.93186871,0.110055 v -2.461308 -2.461313 l 2.04778235,-0.09157 c 1.96950975,-0.08807 2.07362995,-0.07715 2.72408165,0.285759 0.3719645,0.20754 0.7196996,0.37752 0.7727498,0.377736 0.053038,2.16e-4 0.031835,-0.945814 -0.047139,-2.102293 l -0.1435661,-2.102684 -4.8278232,0.0545 c -2.6553003,0.02997 -4.870119,0.09682 -4.9218198,0.148543 -0.051695,0.05175 0.051929,0.434232 0.2303378,0.850023 0.3176877,0.740489 0.3239846,0.939635 0.307483,9.716413 l -0.016881,8.960429 -0.3808724,1.055869 c -0.2094845,0.580725 -0.3808666,1.095385 -0.3808666,1.143681 0,0.04831 0.260794,0.04661 0.5795507,-0.0035 0.3187625,-0.05035 1.8314168,-0.194864 3.3614542,-0.321152 z M 24.796379,86.582562 c -0.707252,-2.174553 -0.686843,-1.869274 -0.664605,-9.940303 l 0.02103,-7.639711 1.159119,0.0507 c 0.990874,0.04334 1.254466,0.117649 1.815961,0.511886 l 0.656836,0.461184 -0.0023,-2.134659 c -0.0012,-1.174061 -0.05345,-2.211209 -0.115914,-2.304774 -0.07693,-0.115248 -1.838642,-0.199952 -5.462527,-0.262646 l -5.348978,-0.09252 -0.09779,1.03539 c -0.134512,1.42413 -0.124927,3.469342 0.01589,3.39774 1.364613,-0.693741 1.866931,-0.840701 2.665984,-0.779975 l 0.850024,0.0646 -0.02675,7.831291 -0.02675,7.831288 -0.40481,0.907869 c -0.222645,0.499333 -0.384477,0.927146 -0.359628,0.950698 0.02488,0.02354 1.123172,0.108536 2.440705,0.188847 1.317534,0.08031 2.52534,0.156721 2.684005,0.169788 0.20959,0.01729 0.264433,-0.05018 0.200524,-0.246694 z M -19.305456,63.129955 c 1.206451,-0.297349 2.350026,-0.576865 2.54128,-0.621141 0.330912,-0.07662 0.347735,-0.152381 0.347735,-1.566011 v -1.485498 l -0.540922,0.08778 -0.540923,0.08778 v -4.917842 -4.917848 l 0.347735,-0.09319 c 0.677602,-0.181587 0.73411,-0.128794 0.73411,0.685756 0,0.692286 0.03324,0.772609 0.286548,0.692216 0.231798,-0.07357 2.761782,-0.547102 2.927159,-0.547873 0.04434,-2.05e-4 -0.141224,-4.373667 -0.188223,-4.436594 -0.03154,-0.04223 -3.209033,0.615013 -5.807376,1.201176 -2.330417,0.525717 -5.411194,1.345343 -5.679021,1.510866 -0.187638,0.115967 -0.456458,3.847201 -0.305515,4.240556 0.0732,0.190758 0.320661,0.162766 1.605957,-0.181657 l 1.519413,-0.40717 0.04609,-0.791319 c 0.04358,-0.74845 0.07214,-0.796523 0.526968,-0.887489 0.752387,-0.150476 0.68148,-0.794198 0.622414,5.650662 l -0.03633,3.967372 -0.463649,0.101837 -0.463648,0.10183 v 1.533218 c 0,0.974104 0.05956,1.533216 0.163332,1.533216 0.08984,0 1.150433,-0.243282 2.356884,-0.54063 z m 64.33443,-0.434647 1.069883,-0.820733 0.04252,-2.515929 0.04252,-2.515929 L 45.0922,55.631716 44.000501,54.42071 42.267778,54.016355 c -0.952999,-0.222393 -1.993524,-0.473689 -2.31228,-0.558428 l -0.579563,-0.154075 v -1.771363 c 0,-0.974255 0.03598,-1.771363 0.07997,-1.771363 0.321099,0 3.123225,0.677509 3.258269,0.787803 0.0975,0.07963 0.141119,0.428017 0.102286,0.817085 -0.04013,0.402233 0.0023,0.721457 0.104015,0.784391 0.211541,0.130733 2.795853,0.851688 3.062453,0.85434 0.139437,0.0012 0.193188,-0.360936 0.193188,-1.302323 V 50.398178 L 45.148664,49.234065 C 43.996613,47.928781 44.11449,47.983969 40.850146,47.221517 l -2.312257,-0.54007 -1.165111,0.748486 -1.165112,0.748479 -0.04212,2.805421 -0.04212,2.805421 1.046715,1.12934 c 0.977351,1.054502 1.108165,1.141887 1.974013,1.318725 0.51001,0.104167 1.535832,0.329791 2.279603,0.501389 l 1.352313,0.311998 v 1.50686 c 0,0.828773 -0.03487,1.541709 -0.07744,1.584303 -0.04258,0.04258 -0.616362,-0.05146 -1.275038,-0.209011 -0.65867,-0.15755 -1.350274,-0.320276 -1.53689,-0.361614 -0.281115,-0.06226 -0.347378,-0.199116 -0.386375,-0.797978 l -0.04708,-0.722831 -1.390945,-0.271536 c -2.093251,-0.408647 -1.931869,-0.488842 -1.931869,0.959979 v 1.250278 l 1.103867,1.22252 c 0.821168,0.909425 1.207074,1.225635 1.506858,1.234689 0.221646,0.0067 1.34188,0.242184 2.48941,0.5233 1.14753,0.281122 2.230894,0.519059 2.40748,0.528749 0.176581,0.0097 0.802511,-0.351707 1.390947,-0.803106 z M -6.7570968,60.809336 c 1.0200273,-0.130324 3.2010134,-0.370463 4.8466256,-0.533644 1.64561855,-0.163175 3.0103493,-0.318038 3.0327271,-0.344131 0.022372,-0.02611 0.075153,-1.047802 0.1172629,-2.270468 l 0.076567,-2.22302 -1.55465295,0.107076 c -0.85505885,0.05889 -1.61093325,0.141855 -1.67971395,0.184361 -0.068781,0.04253 -0.1250552,0.380032 -0.1250552,0.750057 0,0.759484 0.077332,0.7263 -2.2023294,0.944973 l -1.0432111,0.100072 v -1.56835 c 0,-1.120135 0.0552,-1.585238 0.1931874,-1.627435 0.1062522,-0.03248 1.0277552,-0.152024 2.0477818,-0.265613 l 1.854595,-0.206529 0.077274,-1.522076 c 0.042524,-0.837144 0.027279,-1.552754 -0.033762,-1.590255 -0.061082,-0.0375 -0.927537,0.0389 -1.9254492,0.169769 -0.9979117,0.130867 -1.9215993,0.237937 -2.0526301,0.237926 -0.1948405,-1.2e-5 -0.2367456,-0.218235 -0.2300165,-1.197758 0.00467,-0.658758 0.021905,-1.447396 0.038611,-1.752525 l 0.030433,-0.55479 1.4591953,-0.17932 c 0.8025513,-0.09863 1.5289918,-0.179327 1.6143031,-0.179327 0.085311,0 0.1763063,0.330352 0.2022122,0.73411 l 0.04708,0.73411 1.46822006,-0.05625 C 0.30967458,48.66934 1.02254,48.613094 1.0862913,48.575266 1.1500427,48.537415 1.2021991,47.536933 1.2021991,46.351914 V 44.197342 H 0.55260607 c -0.72822204,0 -6.97936877,0.686124 -8.86744577,0.973285 l -1.2241495,0.186184 -0.044452,1.430789 -0.044452,1.430784 0.4747705,-0.04001 0.4747646,-0.04001 -0.0094,4.851106 c -0.00526,2.66811 -0.046438,4.911014 -0.091696,4.984228 -0.04527,0.07321 -0.2520321,0.133116 -0.4595248,0.133116 -0.3749319,0 -0.3772509,0.0095 -0.3772509,1.552498 v 1.552497 l 0.5022886,-0.08275 c 0.2762558,-0.0455 1.3368504,-0.189385 2.3568718,-0.319709 z M 32.542727,59.692128 32.498509,58.18646 32.03486,58.106517 c -0.451961,-0.07793 -0.474408,-0.124699 -0.890585,-1.855787 -0.234824,-0.976714 -0.874703,-3.618849 -1.421964,-5.871407 -0.547266,-2.252559 -1.042264,-4.392084 -1.100005,-4.754498 -0.07995,-0.501821 -0.183106,-0.674979 -0.432632,-0.726242 -0.871835,-0.179104 -3.523275,-0.4163 -3.61608,-0.323494 -0.05789,0.05789 -0.805566,2.865399 -1.661513,6.238916 l -1.556271,6.133673 -0.533358,0.0077 -0.533352,0.0077 -0.04387,1.46992 -0.04387,1.46992 2.362123,0.184537 c 1.299169,0.101491 2.483832,0.184227 2.632591,0.183859 0.237703,-5.84e-4 0.270461,-0.170898 0.270461,-1.406093 0,-1.281919 -0.02757,-1.412617 -0.313435,-1.487379 -0.237015,-0.06198 -0.288856,-0.162077 -0.212628,-0.410546 0.05543,-0.180717 0.126002,-0.356608 0.156785,-0.390873 0.03078,-0.03429 0.658075,5.14e-4 1.393966,0.07727 1.200499,0.12523 1.351623,0.176785 1.470662,0.501687 0.107894,0.294492 0.07488,0.377227 -0.176768,0.443041 -0.281197,0.07353 -0.30944,0.210378 -0.30944,1.499412 v 1.418494 l 2.125057,0.318295 c 1.16878,0.175062 2.318827,0.328424 2.555661,0.340801 l 0.43061,0.02249 z m -6.58359,-5.868499 c -0.294305,-0.05619 -0.343092,-0.14113 -0.276425,-0.481242 0.04451,-0.227149 0.232785,-1.196935 0.418367,-2.155086 0.185576,-0.958151 0.354721,-1.723173 0.375884,-1.700047 0.06511,0.07116 0.844124,3.954942 0.844124,4.208405 0,0.239556 -0.521132,0.288523 -1.36195,0.12797 z m -17.2226386,5.829468 0.9659373,-5.84e-4 v -1.465901 c 0,-1.367347 0.032068,-1.518005 0.4769023,-2.24097 0.262301,-0.426288 0.500612,-0.775069 0.529585,-0.775069 0.02897,0 0.266419,0.373589 0.527663,0.830199 0.434968,0.760244 0.474992,0.949074 0.474992,2.24097 v 1.410771 l 1.429586,0.0012 c 0.786267,5.85e-4 1.90167,0.04568 2.478662,0.100172 l 1.049082,0.09907 -0.04451,-1.529757 -0.04451,-1.529758 -0.529842,-0.07727 C 15.564137,56.6453 15.419356,56.478724 14.303783,54.707028 13.63475,53.6445 12.952955,52.519628 12.788675,52.207314 l -0.29868,-0.567845 1.362908,-2.136773 c 0.749595,-1.175223 1.44624,-2.293255 1.548094,-2.484509 0.128232,-0.240782 0.326122,-0.347735 0.643401,-0.347735 h 0.45821 v -1.367803 -1.3678 L 15.087923,43.834427 C 14.30984,43.779227 13.26108,43.73401 12.757343,43.73401 h -0.91589 l 0.04498,1.506856 0.04498,1.50686 -0.576344,0.896047 c -0.316987,0.492826 -0.640364,0.856478 -0.718613,0.808118 -0.07825,-0.04837 -0.355171,-0.460044 -0.615393,-0.914861 C 9.5819183,46.769485 9.5479398,46.60159 9.5479398,45.199148 v -1.510951 l -1.2750326,0.09925 c -0.7012705,0.05462 -1.7792487,0.09967 -2.3955175,0.100184 l -1.1204849,0.0012 v 1.390942 1.390947 l 0.5022885,0.0058 c 0.4100262,0.0047 0.5822611,0.121404 0.93773,0.63492 0.7804778,1.127488 2.6297864,4.209334 2.6297864,4.382498 0,0.09287 -0.4874869,0.930562 -1.0832996,1.86154 -0.5958185,0.930971 -1.2747171,2.023027 -1.5086648,2.426785 -0.3715907,0.641305 -0.4897766,0.734116 -0.9348502,0.734116 -0.4173685,0 -0.5273825,0.07133 -0.6085057,0.394547 -0.1130106,0.450267 -0.090095,2.394612 0.030667,2.602356 0.044452,0.07644 0.7405237,0.09399 1.5643143,0.03943 0.8163372,-0.05409 1.9189246,-0.09866 2.4501857,-0.0991 z"
         id="path2" /></g></g></svg>
