<?xml version="1.0" encoding="UTF-8" standalone="no"?>
<!-- Created with Inkscape (http://www.inkscape.org/) -->

<svg
   width="105.83334mm"
   height="105.83334mm"
   viewBox="0 0 105.83333 105.83333"
   version="1.1"
   id="svg1"
   xml:space="preserve"
   inkscape:version="1.4 (e7c3feb100, 2024-10-09)"
   sodipodi:docname="boulder.svg"
   inkscape:export-filename="../pngs/tempe.png"
   inkscape:export-xdpi="96"
   inkscape:export-ydpi="96"
   xmlns:inkscape="http://www.inkscape.org/namespaces/inkscape"
   xmlns:sodipodi="http://sodipodi.sourceforge.net/DTD/sodipodi-0.dtd"
   xmlns="http://www.w3.org/2000/svg"
   xmlns:svg="http://www.w3.org/2000/svg"><sodipodi:namedview
     id="namedview1"
     pagecolor="#ffffff"
     bordercolor="#000000"
     borderopacity="0.25"
     inkscape:showpageshadow="2"
     inkscape:pageopacity="0.0"
     inkscape:pagecheckerboard="0"
     inkscape:deskcolor="#d1d1d1"
     inkscape:document-units="mm"
     inkscape:zoom="1.4016483"
     inkscape:cx="226.87574"
     inkscape:cy="196.19758"
     inkscape:window-width="1920"
     inkscape:window-height="1011"
     inkscape:window-x="0"
     inkscape:window-y="32"
     inkscape:window-maximized="1"
     inkscape:current-layer="layer1"
     showgrid="false"
     showguides="true" /><defs
     id="defs1"><inkscape:path-effect
       effect="bspline"
       id="path-effect55"
       is_visible="true"
       lpeversion="1.3"
       weight="33.333333"
       steps="2"
       helper_size="0"
       apply_no_weight="true"
       apply_with_weight="true"
       only_selected="false"
       uniform="false" /></defs><g
     inkscape:label="Capa 1"
     inkscape:groupmode="layer"
     id="layer1"><g
       id="g6"
       transform="matrix(1.0129831,0,0,1.0129831,-1.5627391,-4.628526)"><path
         style="fill:#000000;stroke:#cfb87c;stroke-width:2.32605;stroke-dasharray:none;stroke-opacity:1"
         d="m 19.053343,103.09636 c 0.532668,-0.11907 1.844953,-0.67291 2.365903,-0.9985 0.395666,-0.24728 0.408685,-0.3107 0.160675,-0.78225 -0.148444,-0.28224 -0.668787,-0.90143 -1.156316,-1.375976 -0.502144,-0.48877 -0.886427,-1.040469 -0.886427,-1.272617 0,-0.225393 -0.226,-0.620938 -0.502217,-0.878989 -0.774702,-0.723742 -1.046618,-1.413336 -1.039734,-2.63683 0.0079,-1.384116 0.42741,-2.632369 1.54915,-4.608295 1.109531,-1.954437 1.714321,-2.548527 3.590055,-3.526519 1.767155,-0.921384 2.131633,-1.228223 2.898165,-2.439849 l 0.559202,-0.883909 1.069116,0.07696 c 1.299062,0.09351 1.577306,0.17819 4.702674,1.431182 4.439783,1.779954 4.632381,1.816192 10.01056,1.883542 2.607867,0.03266 5.394751,0.137814 6.193078,0.233679 0.798325,0.09587 1.456499,0.164478 1.462607,0.152469 0.0062,-0.012 0.223834,-0.575209 0.483834,-1.251557 0.260002,-0.676347 0.557408,-1.242433 0.660906,-1.257968 0.103503,-0.01554 0.250229,0.335235 0.326067,0.779487 0.358759,2.101527 1.158708,2.814941 4.957242,4.420989 1.24698,0.527233 1.37002,1.619461 0.256528,2.277217 -0.727684,0.429852 -1.380418,0.416008 -2.904166,-0.06161 l -1.24036,-0.388782 -0.514075,0.61578 -0.514076,0.615781 -1.051804,-0.491699 c -1.946577,-0.909986 -2.042695,-0.900087 -3.617351,0.372543 -0.939301,0.759137 -2.571802,3.803063 -2.225411,4.149453 0.126628,0.126628 0.694808,0.08782 1.673206,-0.114267 1.434138,-0.29623 2.280913,-0.255564 2.775026,0.133268 0.154547,0.121616 0.452793,0.112269 0.851399,-0.02668 0.888825,-0.309846 1.562842,-0.26463 2.518349,0.168942 1.265327,0.574156 1.618998,0.502885 2.742191,-0.552599 1.147056,-1.077909 2.760499,-1.959089 3.587101,-1.959089 0.309869,0 0.88632,0.134926 1.280999,0.299832 0.952994,0.398187 1.732073,0.138883 2.813206,-0.936328 1.517458,-1.509145 1.577051,-2.160397 0.390144,-4.263481 -0.607413,-1.076277 -0.626395,-1.176215 -0.550293,-2.897331 0.104279,-2.358267 0.481159,-3.038714 2.383614,-4.303496 1.595356,-1.060619 2.132613,-1.777728 1.963892,-2.621329 -0.06167,-0.308366 -0.462957,-1.276403 -0.891741,-2.151194 -0.790115,-1.611965 -0.969114,-2.600185 -0.547368,-3.021931 0.332489,-0.332488 0.735427,-0.286471 0.735427,0.08398 0,0.807097 0.532753,1.9189 1.387599,2.895781 0.914532,1.045087 1.068908,1.488465 0.936869,2.690764 -0.08431,0.767691 -0.620972,1.481473 -1.787592,2.377573 -2.400026,1.8435 -2.860437,2.574231 -2.857388,4.535038 0.0015,0.887954 0.128244,1.476739 0.470466,2.183471 0.796259,1.644369 0.748317,1.624372 1.728419,0.720947 0.480548,-0.442955 1.290574,-1.001315 1.800058,-1.240801 1.048196,-0.49271 2.040882,-1.432572 4.112143,-3.893318 1.632644,-1.939654 1.935172,-2.152516 2.822605,-1.986032 1.059003,0.19867 1.176526,0.502527 0.813784,2.104048 -0.526361,2.323897 -0.519213,2.404413 0.249719,2.812743 0.379935,0.201758 0.875269,0.713015 1.128063,1.164325 0.601907,1.074574 0.980971,1.25839 1.847985,0.896127 0.385567,-0.161098 1.281455,-0.287739 2.035566,-0.287739 1.22457,0 1.383335,-0.04632 1.748014,-0.509934 0.220617,-0.280464 0.401114,-0.611636 0.401114,-0.735941 0,-0.696229 3.400467,-3.314602 5.705495,-4.393253 1.192007,-0.557807 1.214641,-0.582878 1.312807,-1.453781 0.108621,-0.963725 0.604975,-1.778637 1.296875,-2.129228 l 0.43975,-0.222824 -0.446414,-0.238914 C 90.20298,79.67353 88.83853,77.927159 89.354616,77.608196 c 0.07995,-0.04939 0.841969,0.343783 1.693416,0.873737 2.269293,1.41243 4.016642,2.260721 5.376744,2.610265 1.658297,0.426179 4.529724,0.269805 5.904354,-0.321544 1.59748,-0.687219 1.57314,-0.866383 -0.1215,-0.894149 -2.10628,-0.03452 -3.888721,-0.510584 -6.213106,-1.65946 -2.146493,-1.060951 -4.139595,-2.684325 -3.760786,-3.063137 0.133774,-0.133771 0.423742,-0.102397 0.902518,0.09764 0.955155,0.399091 1.009471,0.378072 0.613706,-0.237476 -0.786265,-1.222871 -3.06137,-2.841623 -5.075574,-3.611297 -1.140987,-0.435991 -1.356997,-0.596219 -1.559759,-1.15694 -0.756043,-2.090801 -3.323707,-5.004846 -5.919079,-6.717575 -3.921758,-2.588036 -8.772808,-3.754405 -16.565032,-3.982839 -4.955535,-0.145274 -5.435797,-0.05248 -8.122,1.569309 -2.911347,1.757718 -5.731324,3.145416 -7.073491,3.480835 -1.890197,0.472375 -5.490251,0.711548 -10.738016,0.713387 -4.491721,0.0016 -5.091597,-0.03771 -6.676911,-0.437166 -1.442277,-0.363422 -2.277287,-0.440166 -4.855751,-0.446288 l -3.11395,-0.0073 -1.491075,0.756633 -1.491072,0.756633 -0.717149,-0.688227 c -1.512796,-1.451771 -4.13745,-2.276166 -6.091246,-1.913238 -1.425333,0.264765 -1.93014,0.487288 -2.761649,1.217362 -0.830697,0.729361 -1.098493,1.282444 -1.5361289,3.172585 -0.3595444,1.552835 -1.0750059,2.705441 -1.7909064,2.88512 C 7.6365311,70.739253 7.306932,70.450651 7.4799381,69.99981 7.6456301,69.568019 7.3010297,69.706609 6.65709,70.330734 c -0.335018,0.324716 -1.1215269,0.798647 -1.7477929,1.05318 -1.3819072,0.56165 -1.1357975,0.718815 1.0008643,0.639153 1.3199449,-0.04921 1.5235565,-0.102791 1.4759957,-0.388376 -0.03657,-0.21947 0.2046279,-0.463826 0.7145387,-0.723965 1.0700986,-0.545922 1.6729793,-1.42153 2.3424532,-3.402091 0.630977,-1.866684 0.920616,-2.285471 1.933287,-2.795328 2.529774,-1.273693 6.445932,0.16219 7.042691,2.58224 0.09068,0.36772 0.04572,0.661574 -0.133303,0.870902 -0.797085,0.932114 -2.491716,4.654854 -2.823779,6.203224 -0.276092,1.28735 -0.1159,1.916725 1.165781,4.580276 1.216201,2.527482 1.388578,3.692171 0.743629,5.024456 -0.305466,0.631016 -0.70165,1.070234 -1.280715,1.419824 -0.54903,0.331461 -0.982014,0.796555 -1.254442,1.347462 -0.366962,0.742065 -0.401216,1.038798 -0.290428,2.515936 0.160557,2.140743 -0.112002,3.200532 -1.276847,4.964721 -0.49197,0.745104 -0.949135,1.573557 -1.015919,1.841005 -0.111109,0.444934 -0.06788,0.486064 0.508662,0.483834 0.793495,-0.0031 1.123751,0.568359 1.127752,1.95129 0.0022,0.751323 0.09892,1.073003 0.406425,1.351281 0.345236,0.312432 0.394187,0.545232 0.338682,1.610662 -0.06451,1.23857 -0.06166,1.24637 0.515714,1.41177 0.732211,0.20975 2.393633,0.33807 2.903004,0.22421 z m 51.334801,-1.60154 c 0.345941,-0.21802 0.628984,-0.45774 0.628984,-0.53274 0,-0.075 -0.369224,-0.74745 -0.820498,-1.494337 -0.57449,-0.950811 -0.828438,-1.593892 -0.846983,-2.144843 -0.01883,-0.559043 -0.309631,-1.280683 -1.004392,-2.492357 -0.537847,-0.938014 -1.086327,-2.128521 -1.218843,-2.645572 l -0.240939,-0.940094 -0.52095,0.424277 c -0.286522,0.233353 -0.667198,0.511369 -0.845947,0.617812 -0.278368,0.165767 -0.292466,0.286041 -0.09825,0.838311 0.133173,0.378696 0.189178,1.230104 0.135715,2.06317 -0.08612,1.341935 -0.06657,1.429538 0.362628,1.625096 0.616871,0.281064 0.572664,0.579326 -0.240571,1.623151 -0.42523,0.545801 -0.733905,1.186881 -0.796623,1.654476 l -0.102397,0.76341 1.135307,0.43368 c 0.62442,0.23854 1.744938,0.47179 2.490042,0.51834 1.126532,0.0704 1.460688,0.0179 1.983721,-0.31178 z M 38.171082,96.636395 c 0.979583,-0.247585 1.698329,-0.636772 2.19051,-1.186119 0.814089,-0.908645 0.752027,-1.078545 -0.654403,-1.791525 -1.433034,-0.726469 -2.076386,-1.251432 -2.26607,-1.849071 -0.102876,-0.324139 -0.289723,-0.393615 -1.058573,-0.393615 -0.846451,0 -0.945559,-0.04746 -1.061213,-0.508264 -0.07016,-0.279545 -0.808062,-1.218828 -1.639779,-2.087297 -0.831718,-0.868468 -1.567433,-1.750149 -1.634925,-1.95929 -0.156652,-0.485425 -1.1613,-1.167997 -2.42696,-1.64891 -1.406177,-0.534305 -2.009778,-0.485576 -2.822326,0.227852 -0.86095,0.755924 -0.652889,1.137569 0.620169,1.137569 1.110826,0 1.765675,0.396945 2.54931,1.545305 0.68849,1.00893 1.756269,3.853294 1.760388,4.689345 0.003,0.605741 0.466564,0.926093 1.34014,0.926093 0.842363,0 1.245907,0.675566 1.076873,1.802771 -0.07939,0.529408 -0.05126,0.909049 0.07306,0.985878 0.358555,0.2216 3.198806,0.3001 3.953804,0.109278 z"
         id="path6-8" /><text
         xml:space="preserve"
         style="font-size:55.3096px;line-height:1;font-family:'Silvano Western Demo';-inkscape-font-specification:'Silvano Western Demo';text-align:center;letter-spacing:3.50006px;word-spacing:0px;writing-mode:lr-tb;direction:ltr;text-anchor:middle;fill:#cfb87c;fill-opacity:1;stroke:#cfb87c;stroke-width:2.94371;stroke-dasharray:none;stroke-opacity:1"
         x="32.404419"
         y="49.48637"
         id="text6-1"><tspan
           sodipodi:role="line"
           id="tspan6-2"
           x="34.154449"
           y="49.48637"
           style="fill:#cfb87c;fill-opacity:1;stroke:#cfb87c;stroke-width:2.94371;stroke-dasharray:none;stroke-opacity:1">B</tspan></text><path
         style="fill:#000000;stroke-width:0.731466"
         d="m 19.053343,103.09636 c 0.532668,-0.11907 1.844953,-0.67291 2.365903,-0.9985 0.395666,-0.24728 0.408685,-0.3107 0.160675,-0.78225 -0.148444,-0.28224 -0.668787,-0.90143 -1.156316,-1.375976 -0.502144,-0.48877 -0.886427,-1.040469 -0.886427,-1.272617 0,-0.225393 -0.226,-0.620938 -0.502217,-0.878989 -0.774702,-0.723742 -1.046618,-1.413336 -1.039734,-2.63683 0.0079,-1.384116 0.42741,-2.632369 1.54915,-4.608295 1.109531,-1.954437 1.714321,-2.548527 3.590055,-3.526519 1.767155,-0.921384 2.131633,-1.228223 2.898165,-2.439849 l 0.559202,-0.883909 1.069116,0.07696 c 1.299062,0.09351 1.577306,0.17819 4.702674,1.431182 4.439783,1.779954 4.632381,1.816192 10.01056,1.883542 2.607867,0.03266 5.394751,0.137814 6.193078,0.233679 0.798325,0.09587 1.456499,0.164478 1.462607,0.152469 0.0062,-0.012 0.223834,-0.575209 0.483834,-1.251557 0.260002,-0.676347 0.557408,-1.242433 0.660906,-1.257968 0.103503,-0.01554 0.250229,0.335235 0.326067,0.779487 0.358759,2.101527 1.158708,2.814941 4.957242,4.420989 1.24698,0.527233 1.37002,1.619461 0.256528,2.277217 -0.727684,0.429852 -1.380418,0.416008 -2.904166,-0.06161 l -1.24036,-0.388782 -0.514075,0.61578 -0.514076,0.615781 -1.051804,-0.491699 c -1.946577,-0.909986 -2.042695,-0.900087 -3.617351,0.372543 -0.939301,0.759137 -2.571802,3.803063 -2.225411,4.149453 0.126628,0.126628 0.694808,0.08782 1.673206,-0.114267 1.434138,-0.29623 2.280913,-0.255564 2.775026,0.133268 0.154547,0.121616 0.452793,0.112269 0.851399,-0.02668 0.888825,-0.309846 1.562842,-0.26463 2.518349,0.168942 1.265327,0.574156 1.618998,0.502885 2.742191,-0.552599 1.147056,-1.077909 2.760499,-1.959089 3.587101,-1.959089 0.309869,0 0.88632,0.134926 1.280999,0.299832 0.952994,0.398187 1.732073,0.138883 2.813206,-0.936328 1.517458,-1.509145 1.577051,-2.160397 0.390144,-4.263481 -0.607413,-1.076277 -0.626395,-1.176215 -0.550293,-2.897331 0.104279,-2.358267 0.481159,-3.038714 2.383614,-4.303496 1.595356,-1.060619 2.132613,-1.777728 1.963892,-2.621329 -0.06167,-0.308366 -0.462957,-1.276403 -0.891741,-2.151194 -0.790115,-1.611965 -0.969114,-2.600185 -0.547368,-3.021931 0.332489,-0.332488 0.735427,-0.286471 0.735427,0.08398 0,0.807097 0.532753,1.9189 1.387599,2.895781 0.914532,1.045087 1.068908,1.488465 0.936869,2.690764 -0.08431,0.767691 -0.620972,1.481473 -1.787592,2.377573 -2.400026,1.8435 -2.860437,2.574231 -2.857388,4.535038 0.0015,0.887954 0.128244,1.476739 0.470466,2.183471 0.796259,1.644369 0.748317,1.624372 1.728419,0.720947 0.480548,-0.442955 1.290574,-1.001315 1.800058,-1.240801 1.048196,-0.49271 2.040882,-1.432572 4.112143,-3.893318 1.632644,-1.939654 1.935172,-2.152516 2.822605,-1.986032 1.059003,0.19867 1.176526,0.502527 0.813784,2.104048 -0.526361,2.323897 -0.519213,2.404413 0.249719,2.812743 0.379935,0.201758 0.875269,0.713015 1.128063,1.164325 0.601907,1.074574 0.980971,1.25839 1.847985,0.896127 0.385567,-0.161098 1.281455,-0.287739 2.035566,-0.287739 1.22457,0 1.383335,-0.04632 1.748014,-0.509934 0.220617,-0.280464 0.401114,-0.611636 0.401114,-0.735941 0,-0.696229 3.400467,-3.314602 5.705495,-4.393253 1.192007,-0.557807 1.214641,-0.582878 1.312807,-1.453781 0.108621,-0.963725 0.604975,-1.778637 1.296875,-2.129228 l 0.43975,-0.222824 -0.446414,-0.238914 C 90.20298,79.67353 88.83853,77.927159 89.354616,77.608196 c 0.07995,-0.04939 0.841969,0.343783 1.693416,0.873737 2.269293,1.41243 4.016642,2.260721 5.376744,2.610265 1.658297,0.426179 4.529724,0.269805 5.904354,-0.321544 1.59748,-0.687219 1.57314,-0.866383 -0.1215,-0.894149 -2.10628,-0.03452 -3.888721,-0.510584 -6.213106,-1.65946 -2.146493,-1.060951 -4.139595,-2.684325 -3.760786,-3.063137 0.133774,-0.133771 0.423742,-0.102397 0.902518,0.09764 0.955155,0.399091 1.009471,0.378072 0.613706,-0.237476 -0.786265,-1.222871 -3.06137,-2.841623 -5.075574,-3.611297 -1.140987,-0.435991 -1.356997,-0.596219 -1.559759,-1.15694 -0.756043,-2.090801 -3.323707,-5.004846 -5.919079,-6.717575 -3.921758,-2.588036 -8.772808,-3.754405 -16.565032,-3.982839 -4.955535,-0.145274 -5.435797,-0.05248 -8.122,1.569309 -2.911347,1.757718 -5.731324,3.145416 -7.073491,3.480835 -1.890197,0.472375 -5.490251,0.711548 -10.738016,0.713387 -4.491721,0.0016 -5.091597,-0.03771 -6.676911,-0.437166 -1.442277,-0.363422 -2.277287,-0.440166 -4.855751,-0.446288 l -3.11395,-0.0073 -1.491075,0.756633 -1.491072,0.756633 -0.717149,-0.688227 c -1.512796,-1.451771 -4.13745,-2.276166 -6.091246,-1.913238 -1.425333,0.264765 -1.93014,0.487288 -2.761649,1.217362 -0.830697,0.729361 -1.098493,1.282444 -1.5361289,3.172585 -0.3595444,1.552835 -1.0750059,2.705441 -1.7909064,2.88512 C 7.6365311,70.739253 7.306932,70.450651 7.4799381,69.99981 7.6456301,69.568019 7.3010297,69.706609 6.65709,70.330734 c -0.335018,0.324716 -1.1215269,0.798647 -1.7477929,1.05318 -1.3819072,0.56165 -1.1357975,0.718815 1.0008643,0.639153 1.3199449,-0.04921 1.5235565,-0.102791 1.4759957,-0.388376 -0.03657,-0.21947 0.2046279,-0.463826 0.7145387,-0.723965 1.0700986,-0.545922 1.6729793,-1.42153 2.3424532,-3.402091 0.630977,-1.866684 0.920616,-2.285471 1.933287,-2.795328 2.529774,-1.273693 6.445932,0.16219 7.042691,2.58224 0.09068,0.36772 0.04572,0.661574 -0.133303,0.870902 -0.797085,0.932114 -2.491716,4.654854 -2.823779,6.203224 -0.276092,1.28735 -0.1159,1.916725 1.165781,4.580276 1.216201,2.527482 1.388578,3.692171 0.743629,5.024456 -0.305466,0.631016 -0.70165,1.070234 -1.280715,1.419824 -0.54903,0.331461 -0.982014,0.796555 -1.254442,1.347462 -0.366962,0.742065 -0.401216,1.038798 -0.290428,2.515936 0.160557,2.140743 -0.112002,3.200532 -1.276847,4.964721 -0.49197,0.745104 -0.949135,1.573557 -1.015919,1.841005 -0.111109,0.444934 -0.06788,0.486064 0.508662,0.483834 0.793495,-0.0031 1.123751,0.568359 1.127752,1.95129 0.0022,0.751323 0.09892,1.073003 0.406425,1.351281 0.345236,0.312432 0.394187,0.545232 0.338682,1.610662 -0.06451,1.23857 -0.06166,1.24637 0.515714,1.41177 0.732211,0.20975 2.393633,0.33807 2.903004,0.22421 z m 51.334801,-1.60154 c 0.345941,-0.21802 0.628984,-0.45774 0.628984,-0.53274 0,-0.075 -0.369224,-0.74745 -0.820498,-1.494337 -0.57449,-0.950811 -0.828438,-1.593892 -0.846983,-2.144843 -0.01883,-0.559043 -0.309631,-1.280683 -1.004392,-2.492357 -0.537847,-0.938014 -1.086327,-2.128521 -1.218843,-2.645572 l -0.240939,-0.940094 -0.52095,0.424277 c -0.286522,0.233353 -0.667198,0.511369 -0.845947,0.617812 -0.278368,0.165767 -0.292466,0.286041 -0.09825,0.838311 0.133173,0.378696 0.189178,1.230104 0.135715,2.06317 -0.08612,1.341935 -0.06657,1.429538 0.362628,1.625096 0.616871,0.281064 0.572664,0.579326 -0.240571,1.623151 -0.42523,0.545801 -0.733905,1.186881 -0.796623,1.654476 l -0.102397,0.76341 1.135307,0.43368 c 0.62442,0.23854 1.744938,0.47179 2.490042,0.51834 1.126532,0.0704 1.460688,0.0179 1.983721,-0.31178 z M 38.171082,96.636395 c 0.979583,-0.247585 1.698329,-0.636772 2.19051,-1.186119 0.814089,-0.908645 0.752027,-1.078545 -0.654403,-1.791525 -1.433034,-0.726469 -2.076386,-1.251432 -2.26607,-1.849071 -0.102876,-0.324139 -0.289723,-0.393615 -1.058573,-0.393615 -0.846451,0 -0.945559,-0.04746 -1.061213,-0.508264 -0.07016,-0.279545 -0.808062,-1.218828 -1.639779,-2.087297 -0.831718,-0.868468 -1.567433,-1.750149 -1.634925,-1.95929 -0.156652,-0.485425 -1.1613,-1.167997 -2.42696,-1.64891 -1.406177,-0.534305 -2.009778,-0.485576 -2.822326,0.227852 -0.86095,0.755924 -0.652889,1.137569 0.620169,1.137569 1.110826,0 1.765675,0.396945 2.54931,1.545305 0.68849,1.00893 1.756269,3.853294 1.760388,4.689345 0.003,0.605741 0.466564,0.926093 1.34014,0.926093 0.842363,0 1.245907,0.675566 1.076873,1.802771 -0.07939,0.529408 -0.05126,0.909049 0.07306,0.985878 0.358555,0.2216 3.198806,0.3001 3.953804,0.109278 z"
         id="path6" /><text
         xml:space="preserve"
         style="font-size:55.3096px;line-height:1;font-family:'Silvano Western Demo';-inkscape-font-specification:'Silvano Western Demo';text-align:center;letter-spacing:3.50006px;word-spacing:0px;writing-mode:lr-tb;direction:ltr;text-anchor:middle;fill:#000000;fill-opacity:1;stroke-width:61.7333"
         x="32.404419"
         y="49.48637"
         id="text6"><tspan
           sodipodi:role="line"
           id="tspan6"
           x="34.154449"
           y="49.48637"
           style="fill:#000000;fill-opacity:1;stroke-width:61.7333">B</tspan></text><text
         xml:space="preserve"
         style="font-size:55.3096px;line-height:1;font-family:'Silvano Western Demo';-inkscape-font-specification:'Silvano Western Demo';text-align:center;letter-spacing:3.50006px;word-spacing:0px;writing-mode:lr-tb;direction:ltr;text-anchor:middle;fill:#cfb87c;fill-opacity:1;stroke:#cfb87c;stroke-width:2.94371;stroke-dasharray:none;stroke-opacity:1"
         x="60.449871"
         y="67.86882"
         id="text6-1-3"><tspan
           sodipodi:role="line"
           id="tspan6-2-6"
           x="62.199902"
           y="67.86882"
           style="fill:#cfb87c;fill-opacity:1;stroke:#cfb87c;stroke-width:2.94371;stroke-dasharray:none;stroke-opacity:1">B</tspan></text><text
         xml:space="preserve"
         style="font-size:55.3096px;line-height:1;font-family:'Silvano Western Demo';-inkscape-font-specification:'Silvano Western Demo';text-align:center;letter-spacing:3.50006px;word-spacing:0px;writing-mode:lr-tb;direction:ltr;text-anchor:middle;fill:#000000;fill-opacity:1;stroke-width:61.7333"
         x="60.449871"
         y="67.86882"
         id="text6-0"><tspan
           sodipodi:role="line"
           id="tspan6-6"
           x="62.199902"
           y="67.86882"
           style="fill:#000000;fill-opacity:1;stroke-width:61.7333">B</tspan></text></g></g></svg>
