<?xml version="1.0" encoding="UTF-8" standalone="no"?>
<!-- Created with Inkscape (http://www.inkscape.org/) -->

<svg
   width="105.83334mm"
   height="105.83334mm"
   viewBox="0 0 105.83333 105.83333"
   version="1.1"
   id="svg1"
   xml:space="preserve"
   inkscape:version="1.4.2 (ebf0e940d0, 2025-05-08)"
   sodipodi:docname="california.svg"
   inkscape:export-filename="../pngs/queens.png"
   inkscape:export-xdpi="62.742817"
   inkscape:export-ydpi="62.742817"
   xmlns:inkscape="http://www.inkscape.org/namespaces/inkscape"
   xmlns:sodipodi="http://sodipodi.sourceforge.net/DTD/sodipodi-0.dtd"
   xmlns="http://www.w3.org/2000/svg"
   xmlns:svg="http://www.w3.org/2000/svg"><sodipodi:namedview
     id="namedview1"
     pagecolor="#ffffff"
     bordercolor="#000000"
     borderopacity="0.25"
     inkscape:showpageshadow="2"
     inkscape:pageopacity="0.0"
     inkscape:pagecheckerboard="0"
     inkscape:deskcolor="#d1d1d1"
     inkscape:document-units="mm"
     inkscape:zoom="0.4921909"
     inkscape:cx="916.31112"
     inkscape:cy="-262.09343"
     inkscape:window-width="1920"
     inkscape:window-height="1011"
     inkscape:window-x="0"
     inkscape:window-y="32"
     inkscape:window-maximized="1"
     inkscape:current-layer="layer1"
     showgrid="false"
     showguides="true" /><defs
     id="defs1" /><g
     inkscape:label="Capa 1"
     inkscape:groupmode="layer"
     id="layer1"><path
       style="fill:#3b7ea1;stroke-width:0.298977;fill-opacity:1"
       d="m 43.18662,104.83126 c -0.495075,-0.99317 -0.455705,-1.91774 0.119798,-2.81347 l 0.253133,-0.39399 -0.374193,-0.4902 c -0.837209,-1.09681 -1.020864,-1.687897 -1.00766,-3.243057 0.01356,-1.596959 -0.207214,-3.065292 -0.667905,-4.442031 -0.484574,-1.448152 -1.017652,-2.48298 -2.124222,-4.123672 -1.009882,-1.497328 -1.306034,-2.08656 -1.657356,-3.297509 -0.220031,-0.758432 -0.232776,-0.983156 -0.209425,-3.693417 0.02899,-3.365949 -0.0292,-3.77738 -0.826937,-5.843064 -0.894183,-2.31554 -1.523166,-5.039812 -1.99049,-8.621309 -0.403999,-3.096181 -0.856889,-4.409065 -2.637819,-7.646755 -1.691647,-3.075399 -2.083152,-4.300012 -2.339591,-7.318155 l -0.128933,-1.517383 -0.298489,1.517273 c -1.401888,7.12578 -5.391076,11.650673 -10.735659,12.177314 -0.764957,0.07537 -4.714557,-0.08926 -6.686599,-0.278737 C 9.7788573,64.601775 8.5593319,64.109113 7.4781535,63.027159 7.0019008,62.550563 6.6615251,62.083709 6.3947591,61.541191 c -0.4062197,-0.82612 -0.8229104,-2.057635 -0.7282454,-2.1523 0.03024,-0.03024 0.2979787,0.352735 0.5949587,0.851069 0.7562944,1.269067 1.6046301,2.164274 2.4412685,2.576149 0.5831267,0.287074 0.7616817,0.326816 1.2950004,0.288239 0.9045907,-0.06543 1.6682857,-0.484435 2.6877317,-1.474624 0.763768,-0.741846 0.828782,-0.833082 0.549786,-0.771516 -1.370413,0.302407 -1.786562,0.363127 -2.499781,0.364735 -2.3695008,0.0053 -4.1615659,-1.10689 -5.3133943,-3.297721 -0.4041817,-0.768774 -0.4497247,-1.205823 -0.05994,-0.575121 0.364031,0.589015 1.3702554,1.450962 2.0851898,1.786205 1.0839194,0.508265 2.2093328,0.598461 3.4616675,0.277431 0.529325,-0.135689 1.851629,-0.724318 1.851629,-0.824263 0,-0.04164 -0.370345,-0.104279 -0.822984,-0.139182 C 9.5834233,58.268747 6.9294208,57.349287 4.79745,55.976617 3.5231555,55.15616 1.2283062,53.104053 1.3967388,52.935621 c 0.037138,-0.03714 0.6039071,0.311965 1.25949,0.77578 2.8071569,1.986018 3.8177543,2.51579 5.2873464,2.771709 0.6989747,0.12172 2.2877598,0.05724 2.2839118,-0.0927 C 10.22659,56.35185 9.9654893,56.207663 9.6474783,56.069994 8.9405899,55.763983 8.2058922,55.133572 7.8516095,54.529036 7.5946215,54.090515 6.6414291,51.594493 6.6449811,51.369363 c 8.96e-4,-0.06143 0.2159887,0.287291 0.4778247,0.775001 0.8827714,1.644307 1.7547621,2.596169 2.8752635,3.138637 0.5136807,0.248689 0.7298217,0.29017 1.4968857,0.287282 0.886372,-0.0033 1.996863,-0.281626 2.075341,-0.52008 0.01825,-0.05558 -0.286746,-0.266538 -0.677865,-0.468808 -0.897833,-0.46432 -2.069114,-1.569872 -2.587373,-2.442179 C 9.9367363,51.5193 9.0063136,48.912112 9.1147126,48.803713 c 0.02618,-0.02618 0.296789,0.46505 0.6013147,1.091645 1.1494227,2.365021 2.5204617,3.698013 4.5062797,4.381237 0.753641,0.259289 1.287888,0.246916 2.124378,-0.0492 0.891961,-0.315751 1.481878,-0.695704 2.30434,-1.484159 1.436241,-1.376852 2.864702,-3.664413 4.187872,-6.706491 0.594213,-1.366147 2.544009,-3.514397 4.210199,-4.638738 1.066418,-0.719601 2.716485,-1.503393 3.852798,-1.830082 1.013606,-0.291417 2.691299,-0.597842 3.273206,-0.597842 0.351583,0 0.460367,-0.07989 1.151279,-0.84501 1.629563,-1.804708 3.963971,-3.469543 6.070025,-4.328934 2.171683,-0.886184 3.894315,-1.200212 6.592028,-1.201672 2.154862,-0.001 3.153491,0.11086 5.273624,0.591627 1.64916,0.373963 3.683556,0.509217 4.647644,0.309001 1.891728,-0.392882 3.292875,-1.758226 4.155083,-4.048884 0.147351,-0.391473 0.267911,-0.757187 0.267911,-0.812701 0,-0.05548 -0.366142,0.13808 -0.81365,0.430207 -1.706582,1.114078 -3.308488,1.679518 -4.758109,1.679518 -0.435463,0 -0.762902,-0.02889 -0.727652,-0.06414 0.03525,-0.03525 0.468898,-0.200122 0.963661,-0.366382 2.436737,-0.818833 4.27829,-2.219688 5.430883,-4.13121 0.270591,-0.44876 0.22583,-0.488223 -0.205483,-0.18111 -0.949926,0.676415 -3.509349,1.703693 -4.820494,1.93481 -0.54357,0.09584 -0.402716,-0.05997 0.465185,-0.514401 3.335228,-1.74643 5.802115,-4.09159 7.304298,-6.943881 0.237051,-0.450095 0.43101,-0.881178 0.43101,-0.957957 0,-0.210728 -1.678131,-0.312505 -2.744716,-0.166467 -1.21744,0.166686 -2.163132,0.571582 -2.677105,1.146179 -0.35007,0.391369 -0.40257,0.243433 -0.106594,-0.300377 0.614581,-1.12919 2.1315,-2.288645 4.112188,-3.143166 l 0.909836,-0.392517 -0.616959,-0.02534 c -1.52981,-0.06278 -2.918911,-0.394571 -3.138306,-0.749554 -0.03139,-0.05079 0.594276,-0.119818 1.390353,-0.15341 0.796088,-0.03358 1.755931,-0.136714 2.132992,-0.229157 0.88025,-0.215807 2.242904,-0.890512 2.838327,-1.40536 l 0.465196,-0.402257 -0.93982,-0.243612 c -1.302228,-0.337555 -2.947498,-0.990202 -3.576638,-1.418782 -0.685853,-0.467209 -1.38638,-1.084012 -1.314878,-1.157724 0.03097,-0.03191 0.458115,0.104603 0.949258,0.303359 2.382131,0.964005 4.741485,0.98795 6.641232,0.06737 0.65465,-0.317208 0.738217,-0.51027 0.484115,-1.118437 C 70.287985,9.835715 70.13276,9.6934321 69.750224,9.5242319 69.305177,9.3273635 69.117788,9.3095612 68.046041,9.3623424 66.692346,9.4289838 66.64212,9.3539992 67.783136,8.9675733 68.768792,8.6340954 70.307863,8.3921634 72.027648,8.300336 73.49505,8.2220142 73.800485,8.1058559 73.196781,7.8557892 72.996679,7.7728786 72.672567,7.7453252 72.349028,7.7836205 71.265632,7.911939 71.967994,7.5236776 73.762523,7.0022586 c 0.442743,-0.1286418 0.804984,-0.2668365 0.804984,-0.3070925 0,-0.040256 -0.200498,-0.1634646 -0.445559,-0.2737931 -0.340017,-0.1530873 -0.689785,-0.2006019 -1.476663,-0.2006019 -0.567109,0 -1.031095,-0.014496 -1.031074,-0.032226 1.35e-4,-0.075819 1.151852,-0.5283334 1.636561,-0.6429481 0.290948,-0.068831 0.975268,-0.1373709 1.520695,-0.1523678 l 0.991683,-0.027324 0.284358,-0.9121938 c 0.156393,-0.5017081 0.434545,-1.1462415 0.618095,-1.4322987 0.345576,-0.5385225 1.271776,-1.4766324 1.66642,-1.6878406 0.219249,-0.1173367 0.227561,-0.09772 0.294244,0.6956147 0.121373,1.4440104 0.367372,2.6679063 0.693883,3.4522196 l 0.318523,0.765124 0.466176,-0.052562 c 0.320515,-0.036084 0.697638,0.023361 1.207001,0.1903189 l 0.740835,0.2428815 0.589468,-0.4059807 c 1.089873,-0.7506276 2.050979,-2.0351786 3.217432,-4.3001708 0.381347,-0.7405219 0.725744,-1.31402332 0.765322,-1.27445567 0.115449,0.11544908 0.08218,3.37580637 -0.04495,4.41387817 -0.194439,1.5866797 -0.789622,3.3118666 -1.480085,4.2901281 -0.195669,0.2772238 -0.195439,0.2915741 0.01262,0.8195211 0.468731,1.189178 0.78983,1.657545 1.97347,2.878583 0.931237,0.960647 1.279774,1.402399 1.532386,1.942225 0.439509,0.939236 0.506463,1.898319 0.208851,2.99205 -0.746456,2.743329 -0.04735,6.320874 1.789085,9.155791 0.808342,1.24783 1.045091,1.858469 1.111148,2.865953 0.04495,0.686374 0.01658,0.869487 -0.214379,1.38396 -0.299646,0.66731 -0.354544,0.921006 -0.480829,2.222098 -0.115564,1.190439 -0.421321,1.739286 -1.277157,2.29243 -0.740469,0.478598 -1.631649,0.691058 -2.579489,0.614978 -1.259313,-0.101057 -2.001545,-0.771517 -2.481926,-2.24184 -0.418787,-1.281766 -0.766427,-1.848666 -1.651255,-2.692852 -1.400449,-1.336091 -1.624839,-1.486238 -2.291597,-1.533346 -0.491425,-0.03473 -0.941656,-0.176698 -2.03109,-0.640476 -0.08687,-0.03692 -0.09344,0.08771 -0.0244,0.456676 0.345054,1.843253 0.446914,3.261786 0.449208,6.255765 0.0021,2.985543 -0.06226,4.109623 -0.419162,7.306499 l -0.162213,1.452781 0.363107,0.973089 c 1.669412,4.473886 1.980791,8.962915 0.910254,13.122992 -0.385967,1.499861 -1.205114,3.591354 -1.830186,4.672957 -0.827657,1.432138 -1.066481,2.280442 -1.756015,6.237574 -0.235884,1.353656 -0.778567,3.933145 -1.205969,5.732197 -1.476069,6.213232 -1.881517,8.676227 -1.892708,11.497856 -0.0073,1.934125 -0.01752,2.024198 -0.283544,2.584076 -0.343103,0.72224 -0.890637,1.27116 -1.797011,1.801522 -1.230497,0.720027 -2.973831,2.16599 -4.480332,3.716088 -1.173482,1.207449 -1.548895,1.530527 -1.897109,1.63266 -0.943919,0.276855 -1.817431,0.08645 -3.515304,-0.766277 l -0.917099,-0.460595 -0.658904,1.379529 c -0.549202,1.149875 -0.76745,1.488022 -1.31101,2.031235 -0.78739,0.786907 -1.434468,1.051013 -2.403333,0.980933 -0.872657,-0.06312 -1.405923,-0.452849 -1.8738,-1.369424 -0.827687,-1.621415 -0.427735,-4.163802 0.864127,-5.49303 0.736882,-0.758204 1.676535,-1.106745 2.356423,-0.874063 0.386301,0.132209 0.576661,-0.31187 0.666601,-1.555115 0.08927,-1.233869 0.147487,-1.377512 1.135072,-2.800503 0.725087,-1.04478 1.306775,-2.269086 1.767633,-3.72046 0.214295,-0.674893 0.293493,-1.18252 0.335292,-2.149254 0.05162,-1.192998 0.03661,-1.323202 -0.261549,-2.267659 -0.439321,-1.391858 -0.450241,-1.453651 -0.5494,-3.111439 -0.068,-1.136827 -0.146986,-1.637892 -0.343281,-2.177484 -0.319586,-0.87851 -0.893765,-1.669284 -1.507022,-2.075488 L 58.0051,72.109997 55.554492,73.210624 c -2.379815,1.068836 -2.469088,1.120057 -3.090364,1.773225 -2.534885,2.664994 -2.064891,6.105022 1.425321,10.432441 0.862416,1.069282 0.913957,1.155816 1.050566,1.763808 0.136672,0.608308 -0.02002,1.297171 -0.417807,1.836436 -0.17115,0.232039 -0.436537,0.678262 -0.58975,0.991606 -0.264114,0.540146 -0.275106,0.62628 -0.211886,1.659546 0.07697,1.257444 -0.06445,2.109663 -0.562697,3.390397 -0.174185,0.447789 -0.316916,1.008285 -0.317187,1.245548 -5.95e-4,0.597574 -0.352897,1.917124 -0.688534,2.579471 l -0.279956,0.55248 -0.865347,-0.06107 c -2.073056,-0.146297 -3.062081,-1.005272 -3.606694,-3.132445 -0.258879,-1.011123 -0.171713,-2.604373 0.185126,-3.383802 0.316061,-0.690389 0.793553,-1.258737 1.419064,-1.689099 0.250692,-0.172477 0.577527,-0.521321 0.726318,-0.77521 l 0.270528,-0.461617 -0.215317,-0.639152 c -0.134441,-0.399106 -0.215307,-0.913257 -0.215307,-1.368988 0,-1.720751 -0.950865,-3.905795 -2.717778,-6.245391 -2.346881,-3.107525 -3.148704,-5.685385 -2.29339,-7.373272 0.319023,-0.629545 0.724774,-0.982544 1.861848,-1.619783 1.887953,-1.058039 3.250606,-2.393427 3.995477,-3.915521 0.225924,-0.46165 0.397272,-0.85286 0.380763,-0.869353 -0.01648,-0.0165 -0.430269,-0.0998 -0.919504,-0.18511 -1.890602,-0.329691 -3.978332,-1.223492 -6.052661,-2.591279 l -1.157192,-0.763034 -0.381921,0.430365 c -1.403003,1.580995 -1.713047,6.323161 -0.776981,11.884432 0.213815,1.270349 0.91115,4.087089 1.318633,5.326361 0.485303,1.475984 0.617376,2.381856 0.622726,4.271635 0.0052,1.882864 0.228499,3.614739 0.733858,5.695514 0.482258,1.985693 1.252669,3.968825 1.841939,4.741407 0.501312,0.657254 0.717099,1.284962 0.74923,2.17951 0.03483,0.970031 0.274022,1.46964 1.035256,2.1624 0.26229,0.23872 0.626366,0.73013 0.809072,1.09205 0.374683,0.74223 0.739677,2.05079 0.739677,2.65181 0,0 -5.762098,0.85829 -6.172959,0.0341 z M 65.151794,90.595596 c 0.93811,-0.391969 1.845778,-1.447446 2.101372,-2.443588 0.08635,-0.336518 0.346556,-0.928247 0.578257,-1.314953 0.536155,-0.894864 0.607813,-1.362681 0.683965,-4.465049 0.08322,-3.391636 -0.08635,-7.130955 -0.373097,-8.226853 -0.559068,-2.136571 -1.855602,-3.655166 -3.646857,-4.271447 -0.33839,-0.116425 -0.630204,-0.196745 -0.648454,-0.17849 -0.06612,0.06612 0.589343,2.488546 0.840765,3.107317 0.141803,0.348979 0.52581,1.102339 0.853333,1.674133 0.817613,1.427366 0.958373,1.930291 0.95514,3.412759 -0.0042,1.747033 -0.402059,3.034853 -1.2359,3.996524 -0.718996,0.829225 -1.587743,2.641614 -1.97274,4.115573 -0.374464,1.433609 -0.665662,3.203506 -0.61917,3.763208 0.03056,0.368402 0.08156,0.427708 0.59922,0.697487 0.648287,0.337853 1.286636,0.383041 1.884166,0.133379 z"
       id="path7"
       sodipodi:nodetypes="sscscsssscssscsssssssssssssssssssssscsscssscssscssssssssscsssssssssssssssssscssssscssssssssssssssssssscssssscsscsssssssssssssssssssccscssssssssssscsssssssssssssscsssssssscscssssscssssssssscssssssssssssssssssssssssss" /></g></svg>
