<?xml version="1.0" encoding="UTF-8" standalone="no"?>
<!-- Created with Inkscape (http://www.inkscape.org/) -->

<svg
   width="105.83334mm"
   height="105.83334mm"
   viewBox="0 0 105.83333 105.83333"
   version="1.1"
   id="svg1"
   xml:space="preserve"
   inkscape:version="1.4 (e7c3feb100, 2024-10-09)"
   sodipodi:docname="charlotte.svg"
   inkscape:export-filename="../pngs/charlotte.png"
   inkscape:export-xdpi="96"
   inkscape:export-ydpi="96"
   xmlns:inkscape="http://www.inkscape.org/namespaces/inkscape"
   xmlns:sodipodi="http://sodipodi.sourceforge.net/DTD/sodipodi-0.dtd"
   xmlns="http://www.w3.org/2000/svg"
   xmlns:svg="http://www.w3.org/2000/svg"><sodipodi:namedview
     id="namedview1"
     pagecolor="#ffffff"
     bordercolor="#000000"
     borderopacity="0.25"
     inkscape:showpageshadow="2"
     inkscape:pageopacity="0.0"
     inkscape:pagecheckerboard="0"
     inkscape:deskcolor="#d1d1d1"
     inkscape:document-units="mm"
     inkscape:zoom="1.4103651"
     inkscape:cx="308.78529"
     inkscape:cy="197.82112"
     inkscape:window-width="1920"
     inkscape:window-height="1011"
     inkscape:window-x="0"
     inkscape:window-y="32"
     inkscape:window-maximized="1"
     inkscape:current-layer="layer1"
     showgrid="false"
     showguides="true" /><defs
     id="defs1" /><g
     inkscape:label="Capa 1"
     inkscape:groupmode="layer"
     id="layer1"><rect
       style="fill:#046a38;fill-rule:evenodd;stroke-width:0.264583;fill-opacity:1"
       id="rect4"
       width="11.029848"
       height="11.029848"
       x="-4.0108538"
       y="-16.645042"
       ry="0.029487522" /><rect
       style="fill:#27251f;fill-rule:evenodd;stroke-width:0.264583;fill-opacity:1"
       id="rect4-9"
       width="11.029848"
       height="11.029848"
       x="22.447479"
       y="-16.645042"
       ry="0.029487522" /><rect
       style="fill:#b9975b;fill-rule:evenodd;stroke-width:0.264583;fill-opacity:1"
       id="rect4-5"
       width="11.029848"
       height="11.029848"
       x="9.2183123"
       y="-16.645042"
       ry="0.029487522" /><path
       style="-inkscape-font-specification:Sportsball;fill:#046a38;fill-opacity:1"
       d="M 13.743487,101.52158 V 4.3117675 H 76.405276 L 92.089853,23.772716 V 62.647145 L 76.405276,82.08436 H 45.074381 v 19.43722 z"
       id="path3"
       sodipodi:nodetypes="ccccccccc" /><path
       style="-inkscape-font-specification:Sportsball;fill:#b9975b;fill-opacity:1"
       d="M 11.193359,1.7617187 V 104.07227 H 47.625 V 84.634766 h 30 L 94.640625,63.546875 V 22.873047 L 77.625,1.7617187 Z m 5.09961,5.0996094 H 75.185547 L 89.539062,24.671875 V 61.746094 L 75.185547,79.535156 H 42.523437 V 98.970703 H 16.292969 Z"
       id="path4"
       sodipodi:nodetypes="cccccccccccccccccc" /><path
       style="-inkscape-font-specification:Sportsball;fill:#27251f"
       d="M 12.454498,2.712952 V 103.12046 H 46.363767 V 83.6838 H 76.938044 L 93.37805,63.309465 V 23.111218 L 76.939797,2.712952 Z m 2.577519,3.198107 H 75.871968 L 90.800535,24.433973 V 61.984535 L 75.871968,80.485693 H 43.786249 V 99.922352 H 15.032017 Z"
       id="path2"
       sodipodi:nodetypes="cccccccccccccccccc" /><path
       style="fill:#b9975b;fill-opacity:1;stroke:none;stroke-width:0.859;stroke-dasharray:none"
       d="M 53.700356,67.066351 C 52.915224,66.750034 52.77413,66.277328 52.771695,63.955149 l -0.0016,-1.859151 H 46.9206 c -3.217232,0 -5.849516,-0.02445 -5.849516,-0.0543 0,-0.05945 0.438214,-0.941107 3.01103,-6.057973 0.943759,-1.876977 2.486203,-4.948393 3.427644,-6.825369 l 1.711713,-3.412686 -2.258298,-0.02718 c -1.242065,-0.01495 -2.258299,-0.05343 -2.258299,-0.08549 0,-0.03208 0.353281,-0.75331 0.785055,-1.602752 1.131949,-2.226876 1.644154,-3.246903 4.98981,-9.936878 0.431027,-0.861886 0.783688,-1.581862 0.783688,-1.599947 0,-0.01808 0.100689,-0.203426 0.223764,-0.411873 0.123068,-0.208448 0.211881,-0.419963 0.197358,-0.470033 -0.01453,-0.05007 -0.672175,-0.08961 -1.461454,-0.08788 -0.78928,0.0017 -1.454448,-0.03293 -1.478161,-0.07702 -0.02372,-0.0441 0.466357,-1.085231 1.089046,-2.313634 0.622682,-1.228404 2.143368,-4.250511 3.379298,-6.715793 2.45454,-4.896009 3.764147,-7.497922 4.120813,-8.187166 l 0.230245,-0.444953 0.554998,1.107116 c 1.389858,2.772542 2.316227,4.601368 2.507732,4.950729 0.114569,0.208997 0.208299,0.401808 0.208299,0.42847 0,0.02667 0.125699,0.291165 0.279321,0.587784 0.15363,0.296618 0.704174,1.387384 1.223433,2.423924 0.519267,1.036539 1.649888,3.293666 2.512492,5.01584 0.862611,1.722172 1.568388,3.150176 1.568388,3.173341 0,0.02316 -0.677994,0.03522 -1.506642,0.02678 -0.828656,-0.0085 -1.506666,0.02285 -1.506697,0.06953 -2.4e-5,0.04667 0.303356,0.688462 0.674192,1.426196 0.370829,0.737734 1.292602,2.579072 2.048382,4.09186 0.755779,1.512785 1.405143,2.796362 1.443034,2.852391 0.03786,0.05603 0.246206,0.468609 0.462909,0.916842 0.216704,0.448232 0.619957,1.261928 0.896112,1.808214 1.080996,2.138421 1.477014,2.937849 1.477014,2.981617 0,0.02509 -1.016029,0.05785 -2.257858,0.07279 l -2.25785,0.02718 0.562067,1.120581 c 0.30913,0.616321 1.091788,2.174951 1.739235,3.463621 0.647456,1.288672 1.68247,3.351563 2.300046,4.584205 0.617576,1.232641 1.504176,2.99756 1.970211,3.92204 0.466043,0.924484 0.926078,1.841324 1.022306,2.037425 0.09622,0.196101 0.260462,0.516997 0.364961,0.713097 0.104507,0.196104 0.190162,0.390931 0.190343,0.432953 1.88e-4,0.04202 -2.651898,0.07641 -5.893502,0.07641 H 62.25343 l -0.01084,0.585757 c -0.0055,0.322169 -0.0092,0.998337 -0.0071,1.502601 0.0055,1.266829 -0.104798,1.935932 -0.388651,2.363688 -0.42373,0.638552 -0.450004,0.642375 -4.354436,0.63347 -2.219637,-0.0051 -3.624356,-0.04773 -3.79174,-0.115164 z"
       id="path5" /></g></svg>
