<?xml version="1.0" encoding="UTF-8" standalone="no"?>
<!-- Created with Inkscape (http://www.inkscape.org/) -->

<svg
   width="105.83334mm"
   height="105.83334mm"
   viewBox="0 0 105.83333 105.83333"
   version="1.1"
   id="svg1"
   xml:space="preserve"
   inkscape:version="1.4 (e7c3feb100, 2024-10-09)"
   sodipodi:docname="charlotte.svg"
   inkscape:export-filename="../pngs/charlotte.png"
   inkscape:export-xdpi="96"
   inkscape:export-ydpi="96"
   xmlns:inkscape="http://www.inkscape.org/namespaces/inkscape"
   xmlns:sodipodi="http://sodipodi.sourceforge.net/DTD/sodipodi-0.dtd"
   xmlns="http://www.w3.org/2000/svg"
   xmlns:svg="http://www.w3.org/2000/svg"><sodipodi:namedview
     id="namedview1"
     pagecolor="#ffffff"
     bordercolor="#000000"
     borderopacity="0.25"
     inkscape:showpageshadow="2"
     inkscape:pageopacity="0.0"
     inkscape:pagecheckerboard="0"
     inkscape:deskcolor="#d1d1d1"
     inkscape:document-units="mm"
     inkscape:zoom="1.4103651"
     inkscape:cx="308.78529"
     inkscape:cy="197.82112"
     inkscape:window-width="1920"
     inkscape:window-height="1011"
     inkscape:window-x="0"
     inkscape:window-y="32"
     inkscape:window-maximized="1"
     inkscape:current-layer="layer1"
     showgrid="false"
     showguides="true" /><defs
     id="defs1" /><g
     inkscape:label="Capa 1"
     inkscape:groupmode="layer"
     id="layer1"><g
       id="g1"
       transform="translate(-0.37480175,-0.93802925)"><path
         style="-inkscape-font-specification:Sportsball;fill:#046a38;fill-opacity:1;stroke-width:1.01868"
         d="M 13.004581,102.41218 V 3.3861182 H 76.837129 L 92.814753,23.210671 v 39.60075 L 76.837129,82.611797 H 44.920855 v 19.800383 z"
         id="path3"
         sodipodi:nodetypes="ccccccccc" /><path
         style="-inkscape-font-specification:Sportsball;fill:#ffffff;stroke-width:1.01868"
         d="M 12.073718,2.712952 V 104.99645 H 46.616544 V 85.196642 H 77.762057 L 94.509229,64.441637 V 23.492335 L 77.76385,2.712952 Z m 2.625677,3.2578597 H 76.676069 L 91.883551,24.839804 V 63.091952 L 76.676069,81.938782 H 43.990867 V 101.73859 H 14.699395 Z"
         id="path2"
         sodipodi:nodetypes="cccccccccccccccccc" /><path
         style="fill:#ffffff;fill-opacity:1;stroke:none;stroke-width:0.875049;stroke-dasharray:none"
         d="M 53.707995,67.313195 C 52.908194,66.990968 52.764464,66.50943 52.761984,64.143864 l -0.0016,-1.893887 h -5.958786 c -3.277342,0 -5.958807,-0.02491 -5.958807,-0.05532 0,-0.06056 0.446401,-0.95869 3.067287,-6.171159 0.961392,-1.912046 2.532655,-5.040847 3.491686,-6.952892 l 1.743694,-3.476448 -2.300492,-0.02769 c -1.265271,-0.01523 -2.300492,-0.05443 -2.300492,-0.08709 0,-0.03268 0.359881,-0.767385 0.799723,-1.632698 1.153098,-2.268482 1.674873,-3.307567 5.083038,-10.122536 0.43908,-0.87799 0.79833,-1.611418 0.79833,-1.62984 0,-0.01842 0.102571,-0.207227 0.227945,-0.419569 0.125368,-0.212342 0.21584,-0.427809 0.201046,-0.478815 -0.0148,-0.051 -0.684734,-0.09128 -1.48876,-0.08952 -0.804027,0.0017 -1.481622,-0.03354 -1.505779,-0.07846 -0.02416,-0.04492 0.475071,-1.105507 1.109394,-2.356861 0.634316,-1.251355 2.183414,-4.329927 3.442436,-6.84127 2.5004,-4.987484 3.834476,-7.638011 4.197805,-8.340133 l 0.234547,-0.453266 0.565368,1.127801 c 1.415825,2.824344 2.359503,4.687339 2.554586,5.043227 0.116709,0.212902 0.21219,0.409316 0.21219,0.436476 0,0.02717 0.128048,0.296605 0.28454,0.598766 0.156501,0.30216 0.717331,1.413305 1.246292,2.469212 0.528968,1.055905 1.680714,3.355204 2.559434,5.109555 0.878728,1.754348 1.597692,3.209033 1.597692,3.232631 0,0.02359 -0.690662,0.03588 -1.534792,0.02728 -0.844138,-0.0087 -1.534816,0.02328 -1.534848,0.07083 -2.4e-5,0.04754 0.309024,0.701325 0.686789,1.452843 0.377757,0.751518 1.316752,2.627259 2.086653,4.168311 0.7699,1.54105 1.431397,2.848609 1.469996,2.905685 0.03857,0.05708 0.250806,0.477364 0.471557,0.933972 0.220753,0.456606 0.631541,1.285505 0.912855,1.841998 1.101193,2.178375 1.50461,2.992739 1.50461,3.037325 0,0.02556 -1.035012,0.05893 -2.300043,0.07415 l -2.300035,0.02769 0.572568,1.141517 c 0.314906,0.627837 1.112187,2.215588 1.771731,3.528335 0.659553,1.312749 1.713905,3.414183 2.343019,4.669855 0.629115,1.255672 1.53228,3.053566 2.007022,3.995319 0.474751,0.941757 0.943381,1.875727 1.041407,2.075492 0.09802,0.199765 0.265328,0.526656 0.37178,0.72642 0.106459,0.199768 0.193715,0.398235 0.193899,0.441042 1.92e-4,0.04281 -2.701445,0.07784 -6.003615,0.07784 h -6.003951 l -0.01104,0.596701 c -0.0056,0.328188 -0.0094,1.01699 -0.0072,1.530675 0.0056,1.290498 -0.106756,1.972103 -0.395912,2.407851 -0.431647,0.650482 -0.458412,0.654377 -4.435794,0.645305 -2.261108,-0.0052 -3.692072,-0.04862 -3.862584,-0.117315 z"
         id="path5" /></g></g></svg>
