<?xml version="1.0" encoding="UTF-8" standalone="no"?>
<!-- Created with Inkscape (http://www.inkscape.org/) -->

<svg
   width="105.83334mm"
   height="105.83334mm"
   viewBox="0 0 105.83333 105.83333"
   version="1.1"
   id="svg1"
   xml:space="preserve"
   inkscape:version="1.4.2 (ebf0e940d0, 2025-05-08)"
   sodipodi:docname="cincinnati.svg"
   inkscape:export-filename="../pngs/villanova.png"
   inkscape:export-xdpi="62.092464"
   inkscape:export-ydpi="62.092464"
   xmlns:inkscape="http://www.inkscape.org/namespaces/inkscape"
   xmlns:sodipodi="http://sodipodi.sourceforge.net/DTD/sodipodi-0.dtd"
   xmlns="http://www.w3.org/2000/svg"
   xmlns:svg="http://www.w3.org/2000/svg"><sodipodi:namedview
     id="namedview1"
     pagecolor="#ffffff"
     bordercolor="#000000"
     borderopacity="0.25"
     inkscape:showpageshadow="2"
     inkscape:pageopacity="0.0"
     inkscape:pagecheckerboard="0"
     inkscape:deskcolor="#d1d1d1"
     inkscape:document-units="mm"
     inkscape:zoom="0.6457328"
     inkscape:cx="269.4613"
     inkscape:cy="-52.653358"
     inkscape:window-width="1920"
     inkscape:window-height="1011"
     inkscape:window-x="0"
     inkscape:window-y="32"
     inkscape:window-maximized="1"
     inkscape:current-layer="layer1"
     showgrid="false"
     showguides="true" /><defs
     id="defs1" /><g
     inkscape:label="Capa 1"
     inkscape:groupmode="layer"
     id="layer1"><g
       id="g5"
       transform="matrix(0.96243258,0,0,0.96243258,-114.52149,107.71201)"><path
         style="fill:#000000;stroke:#ffffff;stroke-width:5.377;stroke-dasharray:none"
         d="m 138.13311,-6.0708419 c -2.83874,-1.38906 -7.09803,-5.5816021 -8.71307,-8.5765651 -1.32514,-2.45735 -1.32259,-2.601457 0.0536,-3.019472 l 1.44506,-0.438963 -0.35545,-1.164116 c -0.61851,-2.025688 -0.40099,-4.69728 0.73227,-8.99383 1.28103,-4.856723 2.64953,-7.584794 3.2864,-6.551361 0.49211,0.798533 0.53336,0.729416 2.65236,-4.44506 4.067,-9.931012 5.88145,-13.492897 13.13319,-25.780974 5.2348,-8.869374 7.23592,-12.541539 6.6274,-12.158547 -0.47946,0.301797 -1.07168,0.548718 -1.31605,0.548718 -0.82883,0 4.05344,-6.416478 7.84555,-10.31096 4.4298,-4.549363 4.30878,-4.388313 2.98652,-3.974407 -2.69453,0.843461 5.2409,-5.190347 11.50955,-9.553221 14.0234,-9.76007 41.26703,-12.49488 43.65153,0.59874 0.73604,4.041708 -10.4342,9.581738 -14.21457,11.50458 -5.87733,1.963061 -7.94704,5.237397 -10.30851,4.108057 10.54173,-9.155808 0.42643,-6.802709 -3.90344,-2.888232 -3.89154,3.518208 -4.38162,4.112073 -6.84074,8.289606 l -2.64886,4.499906 -0.58265,-1.224535 c -0.32045,-0.673492 -0.32636,-2.413093 -0.0138,-3.865779 l 0.56951,-2.641243 -3.12605,4.68978 c -4.65212,6.979214 -16.47765,28.194699 -18.70192,33.552329 -5.01295,12.074075 -5.45554,17.82024 -1.61511,20.968332 2.52213,2.067451 5.73542,1.802016 11.50602,-0.950462 0.99977,-0.476866 3.24357,-1.543294 4.98623,-2.369831 1.74268,-0.82654 4.39573,-2.275315 5.89571,-3.219498 1.49999,-0.944185 2.87911,-1.716702 3.06472,-1.716702 0.18559,0 -0.32837,0.857664 -1.14208,1.905916 -1.19912,1.544742 -1.29399,1.824548 -0.50066,1.476524 2.37286,-1.040923 10.36402,-5.397653 13.57836,-7.402852 1.93465,-1.206876 3.34858,-1.907318 3.14209,-1.556541 -0.47645,0.809414 -6.88066,6.614063 -8.50627,7.709923 -1.70878,1.151938 -2.42831,2.40567 -0.88772,1.546681 1.62015,-0.903302 2.11439,-0.208683 0.72877,1.024241 -3.04072,2.705678 -1.84557,2.706287 3.52318,0.0018 8.11444,-4.087586 4.36036,-0.929829 -7.91012,6.653672 -5.15484,3.185823 -10.26227,5.99987 -12.64177,6.965249 -4.83477,1.961494 -11.64058,3.6392071 -14.76274,3.6392071 -1.26177,0 -3.50241,0.353 -4.97919,0.78443 -1.69295,0.49459 -4.59664,0.78442 -7.85873,0.78442 h -5.17371 l -0.44147,1.30737 c -0.52934,1.56769 -1.00532,1.59843 -3.77408,0.24363 z m 9.9236,-7.2632651 c -1.62152,-1.128396 -3.35947,-2.552338 -3.86207,-3.164316 l -0.91388,-1.112687 2.4169,0.336076 2.41692,0.336078 -2.16306,-2.009033 c -3.48053,-3.232684 -5.33684,-8.618146 -5.01591,-14.552045 0.0621,-1.146229 -0.0866,-1.734544 -0.33033,-1.307371 -0.69642,1.22102 -1.56748,7.392204 -1.36219,9.651592 0.10239,1.12615 0.0158,2.154191 -0.19053,2.284536 -0.20698,0.130351 -0.95406,-0.389101 -1.65992,-1.154326 -1.71542,-1.859627 -2.28155,-0.802531 -1.68261,3.141792 0.45252,2.979848 3.11895,7.377235 3.46104,5.707807 0.22323,-1.089352 0.38651,-1.048265 2.63123,0.662162 2.02575,1.543579 3.12876,2.1021 5.37444,2.721438 3.37595,0.931065 3.6765,0.404443 0.87983,-1.541703 z m 12.83672,-60.179216 c 5.53469,-9.091078 5.71162,-9.438001 2.93417,-5.752428 -3.39082,4.499306 -6.74203,9.959216 -8.66643,14.119602 -1.79013,3.870103 -1.14174,2.923673 5.73226,-8.367174 z m 16.82234,-16.926891 c 7.79628,-5.986832 16.35341,-10.244826 20.64816,-10.274426 0.63892,-0.004 1.6461,-0.23122 2.23814,-0.50403 0.94682,-0.43632 1.03361,-0.60012 0.72091,-1.3607 -0.31837,-0.77452 -0.69065,-0.79012 -3.57072,-0.14964 -5.08545,1.13091 -12.56722,4.1757 -13.3784,5.444496 -0.37587,0.587862 -2.19891,2.235149 -4.0513,3.660638 -3.20721,2.46807 -6.84208,5.609051 -7.20552,6.226463 -0.41534,0.705595 0.54419,0.07071 4.59869,-3.042792 z"
         id="path5-2"
         sodipodi:nodetypes="csccssscccsccssscsccsccscsssssssssscccssssscccccccccsccccccsssccccscccccscsscc" /><path
         style="fill:#000000;stroke-width:1.9765"
         d="m 138.13311,-6.0708419 c -2.83874,-1.38906 -7.09803,-5.5816021 -8.71307,-8.5765651 -1.32514,-2.45735 -1.32259,-2.601457 0.0536,-3.019472 l 1.44506,-0.438963 -0.35545,-1.164116 c -0.61851,-2.025688 -0.40099,-4.69728 0.73227,-8.99383 1.28103,-4.856723 2.64953,-7.584794 3.2864,-6.551361 0.49211,0.798533 0.53336,0.729416 2.65236,-4.44506 4.067,-9.931012 5.88145,-13.492897 13.13319,-25.780974 5.2348,-8.869374 7.23592,-12.541539 6.6274,-12.158547 -0.47946,0.301797 -1.07168,0.548718 -1.31605,0.548718 -0.82883,0 4.05344,-6.416478 7.84555,-10.31096 4.4298,-4.549363 4.30878,-4.388313 2.98652,-3.974407 -2.69453,0.843461 5.2409,-5.190347 11.50955,-9.553221 14.0234,-9.76007 41.26703,-12.49488 43.65153,0.59874 0.73604,4.041708 -10.4342,9.581738 -14.21457,11.50458 -5.87733,1.963061 -7.94704,5.237397 -10.30851,4.108057 10.54173,-9.155808 0.42643,-6.802709 -3.90344,-2.888232 -3.89154,3.518208 -4.38162,4.112073 -6.84074,8.289606 l -2.64886,4.499906 -0.58265,-1.224535 c -0.32045,-0.673492 -0.32636,-2.413093 -0.0138,-3.865779 l 0.56951,-2.641243 -3.12605,4.68978 c -4.65212,6.979214 -16.47765,28.194699 -18.70192,33.552329 -5.01295,12.074075 -5.45554,17.82024 -1.61511,20.968332 2.52213,2.067451 5.73542,1.802016 11.50602,-0.950462 0.99977,-0.476866 3.24357,-1.543294 4.98623,-2.369831 1.74268,-0.82654 4.39573,-2.275315 5.89571,-3.219498 1.49999,-0.944185 2.87911,-1.716702 3.06472,-1.716702 0.18559,0 -0.32837,0.857664 -1.14208,1.905916 -1.19912,1.544742 -1.29399,1.824548 -0.50066,1.476524 2.37286,-1.040923 10.36402,-5.397653 13.57836,-7.402852 1.93465,-1.206876 3.34858,-1.907318 3.14209,-1.556541 -0.47645,0.809414 -6.88066,6.614063 -8.50627,7.709923 -1.70878,1.151938 -2.42831,2.40567 -0.88772,1.546681 1.62015,-0.903302 2.11439,-0.208683 0.72877,1.024241 -3.04072,2.705678 -1.84557,2.706287 3.52318,0.0018 8.11444,-4.087586 4.36036,-0.929829 -7.91012,6.653672 -5.15484,3.185823 -10.26227,5.99987 -12.64177,6.965249 -4.83477,1.961494 -11.64058,3.6392071 -14.76274,3.6392071 -1.26177,0 -3.50241,0.353 -4.97919,0.78443 -1.69295,0.49459 -4.59664,0.78442 -7.85873,0.78442 h -5.17371 l -0.44147,1.30737 c -0.52934,1.56769 -1.00532,1.59843 -3.77408,0.24363 z m 9.9236,-7.2632651 c -1.62152,-1.128396 -3.35947,-2.552338 -3.86207,-3.164316 l -0.91388,-1.112687 2.4169,0.336076 2.41692,0.336078 -2.16306,-2.009033 c -3.48053,-3.232684 -5.33684,-8.618146 -5.01591,-14.552045 0.0621,-1.146229 -0.0866,-1.734544 -0.33033,-1.307371 -0.69642,1.22102 -1.56748,7.392204 -1.36219,9.651592 0.10239,1.12615 0.0158,2.154191 -0.19053,2.284536 -0.20698,0.130351 -0.95406,-0.389101 -1.65992,-1.154326 -1.71542,-1.859627 -2.28155,-0.802531 -1.68261,3.141792 0.45252,2.979848 3.11895,7.377235 3.46104,5.707807 0.22323,-1.089352 0.38651,-1.048265 2.63123,0.662162 2.02575,1.543579 3.12876,2.1021 5.37444,2.721438 3.37595,0.931065 3.6765,0.404443 0.87983,-1.541703 z m 12.83672,-60.179216 c 5.53469,-9.091078 5.71162,-9.438001 2.93417,-5.752428 -3.39082,4.499306 -6.74203,9.959216 -8.66643,14.119602 -1.79013,3.870103 -1.14174,2.923673 5.73226,-8.367174 z m 16.82234,-16.926891 c 7.79628,-5.986832 16.35341,-10.244826 20.64816,-10.274426 0.63892,-0.004 1.6461,-0.23122 2.23814,-0.50403 0.94682,-0.43632 1.03361,-0.60012 0.72091,-1.3607 -0.31837,-0.77452 -0.69065,-0.79012 -3.57072,-0.14964 -5.08545,1.13091 -12.56722,4.1757 -13.3784,5.444496 -0.37587,0.587862 -2.19891,2.235149 -4.0513,3.660638 -3.20721,2.46807 -6.84208,5.609051 -7.20552,6.226463 -0.41534,0.705595 0.54419,0.07071 4.59869,-3.042792 z"
         id="path5"
         sodipodi:nodetypes="csccssscccsccssscsccsccscsssssssssscccssssscccccccccsccccccsssccccscccccscsscc" /></g></g></svg>
