<?xml version="1.0" encoding="UTF-8" standalone="no"?>
<!-- Created with Inkscape (http://www.inkscape.org/) -->

<svg
   width="105.83334mm"
   height="105.83334mm"
   viewBox="0 0 105.83333 105.83333"
   version="1.1"
   id="svg1"
   xml:space="preserve"
   inkscape:version="1.4 (e7c3feb100, 2024-10-09)"
   sodipodi:docname="dallas.svg"
   inkscape:export-filename="../pngs/dallas.png"
   inkscape:export-xdpi="96"
   inkscape:export-ydpi="96"
   xmlns:inkscape="http://www.inkscape.org/namespaces/inkscape"
   xmlns:sodipodi="http://sodipodi.sourceforge.net/DTD/sodipodi-0.dtd"
   xmlns="http://www.w3.org/2000/svg"
   xmlns:svg="http://www.w3.org/2000/svg"><sodipodi:namedview
     id="namedview1"
     pagecolor="#ffffff"
     bordercolor="#000000"
     borderopacity="0.25"
     inkscape:showpageshadow="2"
     inkscape:pageopacity="0.0"
     inkscape:pagecheckerboard="0"
     inkscape:deskcolor="#d1d1d1"
     inkscape:document-units="mm"
     inkscape:zoom="0.75785633"
     inkscape:cx="611.59349"
     inkscape:cy="155.70233"
     inkscape:window-width="1920"
     inkscape:window-height="1011"
     inkscape:window-x="0"
     inkscape:window-y="32"
     inkscape:window-maximized="1"
     inkscape:current-layer="layer1"
     showgrid="false"
     showguides="true" /><defs
     id="defs1"><inkscape:path-effect
       effect="perspective-envelope"
       up_left_point="6.83,59.244015"
       up_right_point="101.43648,59.244015"
       down_left_point="5.231621,72.042734"
       down_right_point="101.43648,72.042734"
       id="path-effect3"
       is_visible="true"
       lpeversion="1"
       deform_type="perspective"
       horizontal_mirror="false"
       vertical_mirror="false"
       overflow_perspective="false" /><inkscape:path-effect
       effect="fillet_chamfer"
       id="path-effect2"
       is_visible="true"
       lpeversion="1"
       nodesatellites_param="IF,0,0,1,0,0,0,6 @ IF,0,0,1,0,0,0,6 @ IF,0,0,1,0,0,0,6 @ IF,0,0,1,0,0,0,6 @ IF,0,0,1,0,0,0,6 @ IF,0,0,1,0,0,0,6 @ IF,0,0,1,0,0,0,6 @ IF,0,0,1,0,0,0,6 @ IF,0,0,1,0,0,0,6 @ IF,0,0,1,0,0,0,6 @ IF,0,0,1,0,0,0,6 @ IF,0,0,1,0,0,0,6 @ IF,0,0,1,0,0,0,6 @ IF,0,0,1,0,0,0,6 @ IF,0,0,1,0,0,0,6 @ IF,0,0,1,0,0,0,6 @ IF,0,0,1,0,0,0,6 @ IF,0,0,1,0,0,0,6 @ IF,0,0,1,0,0,0,6 @ IF,0,0,1,0,0,0,6 @ IF,0,0,1,0,0,0,6 @ IF,0,0,1,0,0,0,6 | IF,0,0,1,0,0,0,6 @ IF,0,0,1,0,0,0,6 @ IF,0,0,1,0,0,0,6 @ IF,0,0,1,0,0,0,6 @ IF,0,0,1,0,0,0,6 @ IF,0,0,1,0,0,0,6 @ IF,0,0,1,0,0,0,6 @ IF,0,0,1,0,0,0,6 @ IF,0,0,1,0,0,0,6 @ IF,0,0,1,0,0,0,6 @ IF,0,0,1,0,0,0,6 @ IF,0,0,1,0,0,0,6 @ IF,0,0,1,0,0,0,6 @ IF,0,0,1,0,0,0,6 @ IF,0,0,1,0,0,0,6 @ IF,0,0,1,0,0,0,6 @ IF,0,0,1,0,0,0,6 @ IF,0,0,1,0,0,0,6 @ IF,0,0,1,0,0,0,6 @ IF,0,0,1,0,0,0,6 | IF,0,0,1,0,0,0,6 @ IF,0,0,1,0,0,0,6 @ IF,0,0,1,0,0,0,6 @ IF,0,0,1,0,0,0,6 @ IF,0,0,1,0,0,0,6 | IF,0,0,1,0,0,0,6 @ IF,0,0,1,0,0,0,6 @ IF,0,0,1,0,0,0,6 @ IF,0,0,1,0,0,0,6 @ IF,0,0,1,0,0,0,6 @ IF,0,0,1,0,0,0,6 @ IF,0,0,1,0,0,0,6 @ IF,0,0,1,0,0,0,6 @ IF,0,0,1,0,0,0,6 @ IF,0,0,1,0,0,0,6 @ IF,0,0,1,0,0,0,6 @ IF,0,0,1,0,0,0,6 @ IF,0,0,1,0,0,0,6 @ IF,0,0,1,0,0,0,6 @ IF,0,0,1,0,0,0,6 @ IF,0,0,1,0,0,0,6 @ IF,0,0,1,0,0,0,6 @ IF,0,0,1,0,0,0,6 @ IF,0,0,1,0,0,0,6 @ IF,0,0,1,0,0,0,6 @ IF,0,0,1,0,0,0,6 @ IF,0,0,1,0,0,0,6 @ IF,0,0,1,0,0,0,6 @ IF,0,0,1,0,0,0,6 | IF,0,0,1,0,0,0,6 @ IF,0,0,1,0,0,0,6 @ IF,0,0,1,0,0,0,6 @ IF,0,0,1,0,0,0,6 @ IF,0,0,1,0,0,0,6 @ IF,0,0,1,0,0,0,6 @ IF,0,0,1,0,0,0,6 @ IF,0,0,1,0,0,0,6 @ IF,0,0,1,0,0,0,6 @ IF,0,0,1,0,0,0,6 @ IF,0,0,1,0,0,0,6 @ IF,0,0,1,0,0,0,6 @ IF,0,0,1,0,0,0,6 @ IF,0,0,1,0,0,0,6 @ IF,0,0,1,0,0,0,6 @ IF,0,0,1,0,0,0,6 @ IF,0,0,1,0,0,0,6 @ IF,0,0,1,0,0,0,6 @ IF,0,0,1,0,0,0,6 @ IF,0,0,1,0,0,0,6 @ IF,0,0,1,0,0,0,6 @ IF,0,0,1,0,0,0,6 @ IF,0,0,1,0,0,0,6 @ IF,0,0,1,0,0,0,6 | IF,0,0,1,0,0,0,6 @ IF,0,0,1,0,0,0,6 @ IF,0,0,1,0,0,0,6 @ IF,0,0,1,0,0,0,6 @ IF,0,0,1,0,0,0,6 @ IF,0,0,1,0,0,0,6 @ IF,0,0,1,0,0,0,6 @ IF,0,0,1,0,0,0,6 @ IF,0,0,1,0,0,0,6 @ IF,0,0,1,0,0,0,6 @ IF,0,0,1,0,0,0,6 | IF,0,0,1,0,0,0,6 @ IF,0,0,1,0,0,0,6 @ IF,0,0,1,0,0,0,6 @ IF,0,0,1,0,0,0,6 @ IF,0,0,1,0,0,0,6 | IF,0,0,1,0,0,0,6 @ IF,0,0,1,0,0,0,6 @ IF,0,0,1,0,0,0,6 @ IF,0,0,1,0,0,0,6 @ IF,0,0,1,0,0,0,6 | IF,0,0,1,0,0,0,6 @ IF,0,0,1,0,0,0,6 @ IF,0,0,1,0,0,0,6 @ IF,0,0,1,0,0,0,6 @ IF,0,0,1,0,0,0,6 @ IF,0,0,1,0,0,0,6 @ IF,0,0,1,0,0,0,6 @ IF,0,0,1,0,0,0,6 @ IF,0,0,1,0,0,0,6 @ IF,0,0,1,0,0,0,6 @ IF,0,0,1,0,0,0,6 @ IF,0,0,1,0,0,0,6 | IF,0,0,1,0,0,0,6 @ IF,0,0,1,0,0,0,6 @ IF,0,0,1,0,0,0,6 @ IF,0,0,1,0,0,0,6 @ IF,0,0,1,0,0,0,6 @ IF,0,0,1,0,0,0,6 @ IF,0,0,1,0,0,0,6 @ IF,0,0,1,0,0,0,6 @ IF,0,0,1,0,0,0,6 @ IF,0,0,1,0,0,0,6 @ IF,0,0,1,0,0,0,6 @ IF,0,0,1,0,0,0,6 @ IF,0,0,1,0,0,0,6 @ IF,0,0,1,0,0,0,6 @ IF,0,0,1,0,0,0,6 @ IF,0,0,1,0,0,0,6 @ IF,0,0,1,0,0,0,6 @ IF,0,0,1,0,0,0,6 @ IF,0,0,1,0,0,0,6 @ IF,0,0,1,0,0,0,6 | IF,0,0,1,0,0,0,6 @ IF,0,0,1,0,0,0,6 @ IF,0,0,1,0,0,0,6 @ IF,0,0,1,0,0,0,6 @ IF,0,0,1,0,0,0,6 | IF,0,0,1,0,0,0,6 @ IF,0,0,1,0,0,0,6 @ IF,0,0,1,0,0,0,6 @ IF,0,0,1,0,0,0,6 @ IF,0,0,1,0,0,0,6 @ IF,0,0,1,0,0,0,6 @ IF,0,0,1,0,0,0,6 @ IF,0,0,1,0,0,0,6 @ IF,0,0,1,0,0,0,6 | IF,0,0,1,0,0,0,6 @ IF,0,0,1,0,0,0,6 @ IF,0,0,1,0,0,0,6 @ IF,0,0,1,0,0,0,6 @ IF,0,0,1,0,0,0,6 | IF,0,0,1,0,0,0,6 @ IF,0,0,1,0,0,0,6 @ IF,0,0,1,0,0,0,6 @ IF,0,0,1,0,0,0,6 @ IF,0,0,1,0,0,0,6 @ IF,0,0,1,0,0,0,6 @ IF,0,0,1,0,0,0,6 @ IF,0,0,1,0,0,0,6 @ IF,0,0,1,0,0,0,6 @ IF,0,0,1,0,0,0,6 @ IF,0,0,1,0,0,0,6 @ IF,0,0,1,0,0,0,6 @ IF,0,0,1,0,0,0,6 @ IF,0,0,1,0,0,0,6 @ IF,0,0,1,0,0,0,6 @ IF,0,0,1,0,0,0,6 @ IF,0,0,1,0,0,0,6 @ IF,0,0,1,0,0,0,6"
       radius="0"
       unit="px"
       method="arc"
       mode="F"
       chamfer_steps="6"
       flexible="false"
       use_knot_distance="true"
       apply_no_radius="true"
       apply_with_radius="true"
       only_selected="false"
       hide_knots="false" /><inkscape:path-effect
       effect="envelope"
       id="path-effect1"
       is_visible="true"
       lpeversion="1"
       yy="true"
       xx="true"
       bendpath1="M 5.2368579,59.303318 H 101.44172"
       bendpath2="M 101.44172,59.303318 V 72.102037"
       bendpath3="M 5.2368579,72.102037 H 101.44172"
       bendpath4="M 5.2368579,59.303318 V 72.102037" /></defs><g
     inkscape:label="Capa 1"
     inkscape:groupmode="layer"
     id="layer1"><g
       id="g34"
       transform="translate(0,-10.990422)"><g
         id="g33"><g
           id="g32"
           transform="matrix(1.0651353,0,0,1.0651353,-2.3311563,-2.7030218)"><g
             id="g30"
             transform="matrix(0.91048012,0,0,0.91048012,47.199753,64.919329)"><text
               xml:space="preserve"
               style="font-style:normal;font-variant:normal;font-weight:normal;font-stretch:normal;font-size:92.6781px;line-height:1;font-family:'Silvano Western Demo';-inkscape-font-specification:'Silvano Western Demo';text-align:center;letter-spacing:0px;writing-mode:lr-tb;direction:ltr;text-anchor:middle;fill:#ffffff;fill-opacity:1;stroke:none;stroke-width:10.4427;stroke-dasharray:none;stroke-opacity:1"
               x="11.839812"
               y="18.007767"
               id="text29-7"><tspan
                 sodipodi:role="line"
                 id="tspan29-2"
                 style="font-style:normal;font-variant:normal;font-weight:normal;font-stretch:normal;font-family:'Confetti Western';-inkscape-font-specification:'Confetti Western';fill:#ffffff;stroke-width:10.4427"
                 x="11.839814"
                 y="18.007767">dg</tspan></text><path
               style="-inkscape-font-specification:'Confetti Western';fill:#002b5e;fill-opacity:1"
               d="m -43.933717,-48.39889 v 5.542969 c 0.06134,0 -0.110632,-0.09305 0.01953,0.03711 0.130163,0.130163 0.454674,0.594494 0.74414,1.462891 0.578931,1.736793 0.990235,4.933362 0.990235,9.304687 v 12.427734 l -5.673829,5.673829 5.673829,5.673828 V 4.1518913 c 0,4.371326 -0.411304,7.5678937 -0.990235,9.3046867 -0.289466,0.868397 -0.613977,1.332728 -0.74414,1.462891 -0.130164,0.130163 0.04181,0.03711 -0.01953,0.03711 v 5.542969 h 22.625 c 8.096463,0 14.7467998,-2.561784 19.0996098,-7.785156 C 1.9465463,7.7276073 3.8540968,0.62894023 4.0233143,-8.2094358 L 6.863158,-11.047326 9.7010487,-8.2094358 C 9.8702661,0.62893923 11.777817,7.7276063 15.93347,12.714391 c 4.352811,5.223372 11.003147,7.785156 19.09961,7.785156 h 22.625 v -5.542969 c -0.06134,0 0.110632,0.09305 -0.01953,-0.03711 -0.130164,-0.130162 -0.454676,-0.594493 -0.744142,-1.46289 C 56.315477,11.719785 55.904174,8.5232173 55.904174,4.1518913 V -23.508265 H 30.550658 c 0.875838,-0.722804 2.177449,-1.246094 4.482422,-1.246094 h 20.871094 v -7.296875 c 0,-4.371325 0.411303,-7.567894 0.990234,-9.304687 0.289466,-0.868397 0.613978,-1.332728 0.744141,-1.462891 0.130163,-0.130163 -0.04181,-0.03711 0.01953,-0.03711 v -5.542969 h -22.625 c -8.096463,0 -14.746799,2.561784 -19.09961,7.785156 -4.155653,4.986785 -6.0632039,12.085452 -6.2324213,20.923828 l -2.8378907,2.837891 -2.8398437,-2.837891 c -0.1692175,-8.838376 -2.076768,-15.937043 -6.2324215,-20.923828 -4.35281,-5.223372 -11.0031468,-7.785156 -19.0996098,-7.785156 z m 6.076172,5.542969 h 16.548828 c 6.987863,0 11.6524438,1.963791 14.8417968,5.791015 3.189353,3.827224 5.013672,9.924179 5.013672,18.589844 v 1.148438 l 3.3789063,3.376953 -3.3789063,3.376953 v 1.1484374 c 0,8.66566523 -1.824319,14.7626199 -5.013672,18.5898439 -3.189353,3.8272237 -7.8539338,5.7910157 -14.8417968,5.7910147 h -16.548828 c 0.875122,-2.756369 1.220703,-6.2487387 1.220703,-10.8046867 V -10.572718 l -3.378906,-3.376953 3.378906,-3.376953 v -14.72461 c 0,-4.555947 -0.345581,-8.048318 -1.220703,-10.804687 z m 72.890625,0 h 16.548828 c -0.875121,2.756369 -1.220703,6.24874 -1.220703,10.804687 v 1.753906 H 35.03308 c -3.478782,0 -6.586365,0.912537 -8.748047,3.074219 -1.03788,1.037881 -1.772213,2.304554 -2.271484,3.714844 h -0.197266 l 0.134766,0.134765 c -0.506132,1.490398 -0.740234,3.146138 -0.740234,4.898438 v 9.0507814 c -1e-6,3.478782 0.912537,6.5863655 3.074218,8.74804693 2.161682,2.16168137 5.269265,3.07421897 8.748047,3.07421897 h 7.294922 V -9.9340462 H 37.615111 C 37.369775,-12.924509 36.707919,-15.61422 35.611205,-17.965296 h 14.75 V 4.1518913 c 0,4.555948 0.345582,8.0483177 1.220703,10.8046867 H 35.03308 c -6.987863,0 -11.652443,-1.963791 -14.841797,-5.7910147 -3.189353,-3.827224 -5.013672,-9.92417867 -5.013672,-18.5898439 v -1.1484374 l -3.378906,-3.376953 3.378906,-3.376953 v -1.148438 c 0,-8.665665 1.824319,-14.76262 5.013672,-18.589844 3.189354,-3.827224 7.853934,-5.791015 14.841797,-5.791015 z m -63.638672,12.558593 V 2.3979853 h 7.296875 c 3.478782,0 6.586366,-0.9125376 8.748047,-3.07421897 2.161682,-2.16168143 3.0742188,-5.26926493 3.0742188,-8.74804693 v -9.0507814 c 0,-3.478782 -0.9125368,-6.586365 -3.0742188,-8.748047 -2.161681,-2.161682 -5.269265,-3.074219 -8.748047,-3.074219 z m 5.544922,5.542969 h 1.751953 c 2.554949,0 3.972941,0.595988 4.828125,1.451172 0.855184,0.855184 1.451172,2.273176 1.451172,4.828125 v 9.0507814 c 0,2.5549486 -0.595988,3.9729412 -1.451172,4.828125 -0.855184,0.8551838 -2.273176,1.4511719 -4.828125,1.4511719 h -1.751953 z m 51.818359,6.248047 c 2.21871,2.370339 3.501954,5.96018 3.501954,11.3457033 v 2.7714844 h 4.52539 v 1.2441406 H 35.03308 c -2.554949,0 -3.974894,-0.5959881 -4.830078,-1.4511719 -0.855184,-0.8551838 -1.449219,-2.2731764 -1.449219,-4.828125 v -9.0507814 c 0,-0.01307 0.0039,-0.01824 0.0039,-0.03125 z"
               id="path30" /></g></g><path
           sodipodi:type="star"
           style="fill:#ffffff;fill-opacity:1;stroke:#002b5e;stroke-width:4.02399;stroke-dasharray:none;stroke-opacity:1"
           id="path32"
           inkscape:flatsided="false"
           sodipodi:sides="5"
           sodipodi:cx="48.527779"
           sodipodi:cy="7.3315349"
           sodipodi:r1="19.204811"
           sodipodi:r2="7.6894026"
           sodipodi:arg1="1.5707963"
           sodipodi:arg2="2.1991149"
           inkscape:rounded="0"
           inkscape:randomized="0"
           d="M 48.527779,26.536346 44.008061,13.552392 30.262918,13.266148 41.214722,4.9553785 37.239473,-8.2054834 48.527779,-0.35786772 59.816083,-8.205484 55.840835,4.9553791 66.79264,13.266147 53.047496,13.552392 Z"
           inkscape:transform-center-y="-1.4132518"
           transform="matrix(0.77062796,0,0,-0.77062796,15.519809,98.166871)" /></g></g></g></svg>
