<?xml version="1.0" encoding="UTF-8" standalone="no"?>
<!-- Created with Inkscape (http://www.inkscape.org/) -->

<svg
   width="105.83334mm"
   height="105.83334mm"
   viewBox="0 0 105.83333 105.83333"
   version="1.1"
   id="svg1"
   xml:space="preserve"
   inkscape:version="1.4 (e7c3feb100, 2024-10-09)"
   sodipodi:docname="delaware.svg"
   inkscape:export-filename="../pngs/fargo.png"
   inkscape:export-xdpi="96"
   inkscape:export-ydpi="96"
   xmlns:inkscape="http://www.inkscape.org/namespaces/inkscape"
   xmlns:sodipodi="http://sodipodi.sourceforge.net/DTD/sodipodi-0.dtd"
   xmlns="http://www.w3.org/2000/svg"
   xmlns:svg="http://www.w3.org/2000/svg"><sodipodi:namedview
     id="namedview1"
     pagecolor="#ffffff"
     bordercolor="#000000"
     borderopacity="0.25"
     inkscape:showpageshadow="2"
     inkscape:pageopacity="0.0"
     inkscape:pagecheckerboard="0"
     inkscape:deskcolor="#d1d1d1"
     inkscape:document-units="mm"
     inkscape:zoom="1"
     inkscape:cx="341"
     inkscape:cy="68"
     inkscape:window-width="1920"
     inkscape:window-height="1011"
     inkscape:window-x="0"
     inkscape:window-y="32"
     inkscape:window-maximized="1"
     inkscape:current-layer="layer1"
     showgrid="false"
     showguides="false" /><defs
     id="defs1"><inkscape:path-effect
       effect="bspline"
       id="path-effect55"
       is_visible="true"
       lpeversion="1.3"
       weight="33.333333"
       steps="2"
       helper_size="0"
       apply_no_weight="true"
       apply_with_weight="true"
       only_selected="false"
       uniform="false" /></defs><g
     inkscape:label="Capa 1"
     inkscape:groupmode="layer"
     id="layer1"><g
       id="g19"
       transform="matrix(1.0706348,0,0,1.0706348,-122.71204,34.61183)"><rect
         style="fill:#00539f;fill-opacity:1;fill-rule:evenodd;stroke:#ffffff;stroke-width:0.820597;stroke-dasharray:none"
         id="rect11"
         width="85.195831"
         height="42.739014"
         x="131.33781"
         y="20.688936"
         ry="0.061859947"
         transform="matrix(1,0,-0.23524564,0.97193595,0,0)" /><g
         id="g11"
         transform="translate(21.695834,-1.8520832)"><g
           id="g10"><path
             style="fill:#00539f;fill-opacity:1;stroke:#ffffff;stroke-width:1.544;stroke-dasharray:none"
             d="m 145.42025,48.467534 c 0.94183,-0.166531 1.5781,-0.36609 2.36859,-0.742867 1.96288,-0.935586 3.21445,-2.499276 3.65237,-4.563176 0.34126,-1.608354 0.67751,-2.323294 1.28371,-2.729455 0.39741,-0.266268 0.7926,-0.252267 2.22302,0.07874 1.05114,0.243258 1.33593,0.275023 2.47936,0.276515 0.96173,8.47e-4 1.43484,-0.0367 1.8516,-0.148555 1.49929,-0.402381 2.8228,-1.347068 3.63231,-2.592655 1.01419,-1.560519 0.90088,-3.70461 -0.29613,-5.603789 -0.87999,-1.396192 -2.55908,-2.995861 -4.08043,-3.88743 -0.20643,-0.120979 -0.37533,-0.252106 -0.37533,-0.2914 0,-0.120034 1.43736,-1.389668 2.15558,-1.90406 0.76629,-0.548806 2.11326,-1.259285 2.88249,-1.520405 0.73167,-0.248373 1.71116,-0.438244 2.38986,-0.463273 0.31972,-0.01178 0.58099,-0.04255 0.58059,-0.06831 -0.001,-0.07414 -1.03226,-1.129118 -1.50443,-1.539258 -0.401,-0.348312 -0.41211,-0.368499 -0.17224,-0.312981 0.47993,0.111089 1.80429,0.659593 2.62385,1.086717 2.78595,1.451925 5.29725,3.776973 7.13157,6.602674 l 0.57712,0.889021 0.0521,-0.32924 c 0.0685,-0.432627 0.007,-3.238953 -0.0993,-4.549125 -0.44096,-5.421939 -1.80741,-10.026488 -3.8975,-13.133427 -1.16354,-1.729616 -2.90281,-3.2009736 -5.22724,-4.4220666 -1.01071,-0.530946 -1.83138,-0.874614 -3.22954,-1.352398 -0.89919,-0.307276 -0.93501,-0.32852 -0.70489,-0.41804 0.13334,-0.05189 0.27266,-0.09432 0.3096,-0.09432 0.14296,0 1.11138,-0.681052 1.42149,-0.999676 0.44505,-0.457277 0.66376,-0.917833 0.71755,-1.511047 0.10563,-1.164919 -0.3266,-1.724445 -2.11866,-2.742648 -1.44614,-0.82165487 -1.90341,-1.21685487 -2.2696,-1.96150987 -0.26635,-0.54163103 -0.28306,-0.62913203 -0.27477,-1.43908613 0.007,-0.680007 0.0565,-1.008092 0.23405,-1.551354 0.59996,-1.835307 2.25046,-3.5653244 3.85645,-4.0422494 0.81748,-0.242766 0.79738,-0.258426 1.01539,0.7911894 0.6443,3.101999 2.05022,5.73133913 3.7218,6.96047113 1.49657,1.10043187 3.57799,1.39404387 5.0441,0.71152986 0.54095,-0.25182686 1.3023,-1.02423786 1.59879,-1.62200886 1.13539,-2.28916113 0.77894,-6.41089953 -0.96448,-11.15265253 -0.84566,-2.300031 -1.85623,-3.938804 -3.44202,-5.581662 -2.91777,-3.022788 -6.96581,-4.967727 -10.6423,-5.113254 -1.18368,-0.04684 -1.2147,-0.05311 -1.69901,-0.343941 -1.18532,-0.711751 -3.18955,-1.545044 -4.50983,-1.875044 -1.76742,-0.441756 -4.17037,-0.606349 -5.75009,-0.393865 -1.70242,0.228993 -3.73674,0.905935 -5.12121,1.704142 -0.33973,0.195867 -0.61733,0.329024 -0.61689,0.295899 0.002,-0.183545 0.59702,-1.054677 0.96339,-1.411528 0.23387,-0.227796 0.40122,-0.41418 0.37189,-0.41418 -0.37963,0 -2.74449,0.699266 -3.70441,1.095366 -1.48267,0.611794 -3.23115,1.64211 -4.25034,2.50457 -1.21172,1.025387 -2.35963,2.369625 -2.96527,3.472437 -0.1523,0.27732 -0.30338,0.504681 -0.33574,0.505244 -0.14379,0.0023 0.044,-2.101505 0.24063,-2.695834 0.0755,-0.228064 0.11833,-0.433509 0.0953,-0.456552 -0.023,-0.02304 -0.33877,0.133628 -0.70161,0.348144 -3.94701,2.333534 -6.50125,6.55101 -7.14483,11.7972753 l -0.12584,1.0258337 -0.98263,0.9980044 c -1.77749,1.805316 -3.16627,3.528896 -4.69009,5.82077813 -4.68801,7.05089587 -7.36993,15.42743347 -7.85843,24.54444047 -0.10285,1.919487 -0.11647,4.436636 -0.024,4.431952 0.0355,-0.0018 0.25423,-0.379651 0.48601,-0.839679 0.59508,-1.181083 1.39831,-2.448245 1.91118,-3.015061 l 0.43794,-0.484006 0.0577,1.270679 c 0.0843,1.855988 0.42693,3.737782 0.91416,5.021376 l 0.15378,0.405096 0.34913,-0.745021 c 1.17494,-2.507276 3.17858,-4.242376 5.76055,-4.988518 0.58838,-0.170032 0.86817,-0.194387 2.22326,-0.193528 0.98474,5.81e-4 1.68063,0.0401 1.90783,0.108169 0.71941,0.215603 2.24183,2.099591 3.28617,4.06661 0.85816,1.616339 1.44233,3.210029 2.22217,6.062378 0.9891,3.61772 1.85161,5.984004 2.8181,7.731438 1.76303,3.187578 4.06073,4.941597 7.27462,5.553283 0.93497,0.177947 3.67301,0.226705 4.5018,0.08018 z m -4.01143,-1.935229 c -1.70646,-0.4259 -2.75625,-0.932747 -3.97345,-1.918397 -1.63045,-1.320304 -2.82966,-2.978501 -3.82008,-5.282196 -0.20195,-0.469722 -0.52753,-1.646022 -0.67935,-2.454444 -0.31728,-1.689416 -0.37983,-2.60397 -0.32975,-4.821597 0.10673,-4.726417 0.83858,-7.92489 2.69172,-11.763743 0.76031,-1.575012 2.39329,-4.315401 2.79267,-4.686512 0.0255,-0.02368 0.3812,-0.488738 0.79048,-1.033451 0.72469,-0.964495 2.85046,-3.272594 3.01409,-3.272594 0.045,0 -0.0306,0.16471 -0.16799,0.366016 -0.36051,0.528385 -1.06779,1.873267 -1.48331,2.820453 -1.94469,4.433032 -2.38122,8.867387 -1.2844,13.047314 1.1644,4.437501 4.24836,8.516625 8.16784,10.803521 0.85099,0.496531 1.67494,1.329593 1.99814,2.020261 0.76197,1.628288 0.52013,3.365432 -0.63238,4.542454 -0.91791,0.937434 -2.27601,1.558443 -3.94082,1.801988 -0.75238,0.11006 -2.37457,0.0228 -3.14341,-0.169073 z m 13.17889,-8.287914 c -1.07134,-0.215178 -1.68463,-0.418457 -2.67215,-0.8857 -0.99627,-0.471388 -1.58531,-0.853168 -2.51865,-1.63244 -0.74274,-0.620141 -1.02276,-0.903137 -1.87351,-1.893368 -0.39454,-0.459221 -1.44894,-2.037514 -1.39633,-2.090124 0.0124,-0.01237 0.25408,0.05416 0.53716,0.147825 2.66118,0.880488 4.88824,0.872084 7.14202,-0.02699 0.71272,-0.284307 1.86681,-1.00592 2.35185,-1.470534 l 0.28098,-0.269147 0.58023,0.283798 c 1.13567,0.555463 2.48578,1.524874 3.2212,2.312888 1.01709,1.089839 1.37669,2.76086 0.83495,3.879954 -0.49153,1.015369 -1.4515,1.549507 -3.34674,1.862169 -0.45828,0.07561 -2.32278,-0.05404 -3.14101,-0.218359 z m -4.43763,-7.744966 c -0.30788,-0.101971 -0.66873,-0.241699 -0.80189,-0.310497 l -0.24211,-0.12509 0.74812,-0.469681 c 0.41146,-0.258321 1.02422,-0.669489 1.36168,-0.913695 0.93032,-0.673238 3.32637,-2.596719 3.32637,-2.670313 0,-0.03564 -0.24083,0.07632 -0.53517,0.248832 -0.68577,0.401915 -3.25061,1.641629 -4.20148,2.030774 -3.2286,1.321328 -5.45381,1.417755 -7.32767,0.317538 -1.23495,-0.725089 -2.21301,-2.187828 -2.58972,-3.873064 -0.23951,-1.071463 -0.25961,-3.397277 -0.0406,-4.693588 0.48517,-2.871236 1.58765,-5.504018 3.31032,-7.905242 0.34806,-0.485168 0.46815,-0.485916 0.16204,-0.0012 -0.71421,1.131392 -1.53808,3.442208 -1.96143,5.501516 -0.25563,1.243446 -0.32371,3.711187 -0.12945,4.692451 0.4189,2.116057 1.81365,3.617017 3.80542,4.095207 0.77183,0.185304 2.476,0.186854 3.57294,0.0035 1.68735,-0.282445 4.16963,-1.038442 7.50993,-2.287221 3.33328,-1.246156 6.27771,-1.564286 7.88194,-0.851601 l 0.40373,0.17936 -0.47367,0.101634 c -0.72596,0.155765 -1.09606,0.291545 -1.92582,0.706515 -1.34556,0.672926 -2.91681,1.803697 -6.16987,4.44024 -1.64849,1.336071 -2.26955,1.709887 -3.18614,1.917747 -0.7235,0.164071 -1.76642,0.108088 -2.49751,-0.134063 z m -19.55995,-1.690914 c -0.33711,-1.02162 -1.402,-3.15227 -2.08727,-4.176253 -0.6817,-1.018643 -1.19442,-1.717363 -1.35546,-1.847188 -0.30888,-0.248995 -3.07139,-0.160903 -4.59109,0.146402 -2.32297,0.469739 -4.67774,1.572005 -6.00138,2.809245 -0.21757,0.203361 -0.41374,0.351586 -0.43593,0.329385 -0.0618,-0.06175 0.0743,-1.257625 0.27849,-2.447322 0.35575,-2.073071 1.0884,-4.22963 2.10734,-6.203011 0.30408,-0.588902 0.54334,-1.080268 0.53168,-1.091917 -0.0447,-0.04475 -1.26304,0.529721 -2.08602,0.983643 -0.47366,0.261253 -1.24875,0.730098 -1.72241,1.041878 -1.02895,0.677291 -1.02129,0.673535 -0.95982,0.470232 0.0268,-0.08849 0.18362,-1.013494 0.34859,-2.055558 0.64474,-4.072553 1.18529,-6.196963 2.30689,-9.0663126 1.29149,-3.30399 3.93671,-7.88430587 6.15367,-10.655365 0.91817,-1.14765 2.65047,-2.900013 3.6478,-3.690042 2.14719,-1.7008721 4.69393,-3.0263911 7.13119,-3.7116274 1.00168,-0.281615 2.75451,-0.583562 3.18215,-0.548156 0.26175,0.02165 0.11609,0.07874 -0.7723,0.302603 -3.99791,1.0074123 -7.13615,3.435986 -9.14295,7.0754144 -1.07052,1.941446 -1.59815,4.08697713 -1.6021,6.514675 -0.003,1.869628 0.36262,4.183851 0.95386,6.036838 0.13758,0.431199 0.25015,0.817529 0.25015,0.8585139 0,0.1379167 -1.04472,-0.9484519 -1.44008,-1.4974839 -0.21543,-0.299173 -0.55621,-0.832631 -0.75728,-1.185465 l -0.36558,-0.641519 -0.062,0.826625 c -0.1127,1.503149 0.11546,3.4850836 0.64809,5.6298436 0.52556,2.116254 0.62422,2.852854 0.63361,4.730254 l 0.008,1.667759 0.32174,-0.677371 c 0.37366,-0.786714 0.73794,-1.878352 1.02351,-3.067225 0.11093,-0.461822 0.2281,-0.839678 0.26036,-0.839678 0.0802,0 0.72759,1.135717 1.30085,2.2822 1.29202,2.583985 2.1666,5.548172 2.51557,8.525964 0.12659,1.080198 0.18736,4.087923 0.0804,3.980995 -0.0288,-0.02879 -0.16498,-0.393719 -0.30267,-0.810976 z m 14.95971,-3.306537 c -0.0476,-0.04399 -0.0359,-0.313364 0.0294,-0.679125 0.16798,-0.939994 1.7193,-3.928605 2.27675,-4.386161 0.3128,-0.256743 0.77323,-0.11712 1.74538,0.529286 0.58907,0.391682 0.80705,0.689264 0.80705,1.101755 0,0.491302 -0.99004,2.221394 -1.75417,3.065402 -0.35911,0.396645 -0.35999,0.397017 -1.08962,0.461799 -0.80402,0.0714 -1.89134,0.02125 -2.01482,-0.09296 z m 26.55779,-0.43489 c -1.62118,-1.524107 -4.40425,-3.295846 -6.87852,-4.378946 -0.44564,-0.195078 -1.58262,-0.646028 -2.5266,-1.002107 -5.0982,-1.923081 -6.83741,-3.076861 -9.39658,-6.233635 -1.7768,-2.191717 -1.97436,-2.417447 -2.79811,-3.197039 -1.03672,-0.9811476 -1.76123,-1.3622536 -2.74104,-1.4418196 l -0.67399,-0.05473 0.73203,-0.334887 c 1.31362,-0.600952 2.87192,-1.058437 4.4626,-1.310137 1.32807,-0.21014 4.15085,-0.253626 5.4413,-0.08382 4.23494,0.557252 7.6082,2.12181 10.40912,4.8278716 2.48076,2.396738 3.55656,4.717108 4.23303,9.130131 0.21152,1.379917 0.36272,4.52135 0.2176,4.52135 -0.006,0 -0.22212,-0.199007 -0.48084,-0.442232 z M 157.18992,13.10543 c 0.34551,-0.138915 0.5548,-0.585999 0.5083,-1.085822 -0.12124,-1.302975 -1.55949,-2.2473506 -4.38228,-2.8774876 -1.0495,-0.23428 -1.19084,-0.199076 -0.32387,0.08066 1.95685,0.631384 3.22537,1.5744016 2.97955,2.2149976 -0.0717,0.186853 -0.56781,0.09623 -1.07012,-0.195473 -0.20503,-0.119064 -0.39478,-0.194474 -0.42168,-0.167577 -0.0821,0.08215 0.40917,0.756416 0.93391,1.281667 0.69906,0.699736 1.28461,0.946669 1.77619,0.749038 z m -7.2982,12.002198 c 0,-0.133489 0.82334,-1.508675 1.22185,-2.040816 0.47801,-0.638286 0.94146,-1.002334 1.27603,-1.002334 0.12031,0 0.35353,0.110782 0.51826,0.246174 0.16473,0.135398 0.52373,0.35201 0.79777,0.481365 0.27404,0.129355 0.55604,0.323382 0.62667,0.431169 0.19731,0.301147 0.0346,0.620594 -0.41327,0.811325 -0.66057,0.281312 -1.99009,0.696926 -2.90993,0.909661 -0.99258,0.229555 -1.11738,0.24781 -1.11738,0.163456 z m -6.45055,-0.842668 c -0.32826,-0.169748 -0.77393,-0.692678 -0.97205,-1.140552 -0.27356,-0.618446 -0.37822,-1.714867 -0.2501,-2.620111 0.32746,-2.313596 1.06932,-3.779313 1.91289,-3.779313 0.5703,0 1.94375,0.853481 2.34209,1.455402 0.26776,0.404609 0.32672,0.602223 0.32935,1.10388 0.005,0.924045 -1.2046,3.464143 -2.15025,4.515935 -0.5327,0.592489 -0.78088,0.687662 -1.21193,0.464759 z m 12.58429,-0.956612 c -0.27078,-0.189669 -0.2449,-0.559597 0.0821,-1.173056 0.54507,-1.022643 1.70881,-2.053191 2.31582,-2.050754 0.325,0.0012 1.08435,0.390702 1.24752,0.639743 0.20216,0.308535 0.12596,0.905789 -0.16851,1.320619 -0.56639,0.797934 -0.52433,0.77337 -1.86329,1.088081 -1.49971,0.352492 -1.37939,0.339414 -1.6136,0.175367 z m -2.17121,-1.146101 c -0.25998,-0.124823 -0.6619,-0.408422 -0.89314,-0.630217 l -0.42045,-0.403268 0.0372,-0.544063 c 0.0812,-1.188815 0.94147,-2.18181 2.10829,-2.433549 0.37397,-0.08068 1.03088,0.212154 1.45862,0.65023 0.31927,0.326976 0.33488,0.368767 0.32773,0.877413 -0.0107,0.762109 -0.23287,1.422601 -0.68506,2.036856 -0.60986,0.828448 -0.96631,0.910788 -1.93315,0.446598 z m -3.89122,-1.869007 c -1.05705,-0.531614 -1.62148,-1.116348 -1.62148,-1.679792 0,-0.470343 0.68868,-1.769585 1.2799,-2.414626 0.89236,-0.973585 1.63808,-1.149264 2.61694,-0.616508 0.82095,0.446817 1.03381,1.120213 0.70816,2.24038 -0.25568,0.879514 -0.92134,2.046475 -1.45492,2.550587 -0.23255,0.219701 -0.30493,0.24131 -0.66535,0.198624 -0.22242,-0.02635 -0.61089,-0.151742 -0.86325,-0.278665 z m -3.69189,-2.849726 c -1.17784,-0.58925 -2.41022,-1.991194 -2.4066,-2.737748 0.004,-0.851419 0.65892,-2.453097 1.30116,-3.182725 0.48141,-0.546907 0.9041,-0.736088 1.65006,-0.738503 0.96902,-0.0029 1.68265,0.474279 2.1856,1.462164 0.75684,1.486578 -0.154,4.815653 -1.47504,5.391165 -0.39902,0.173834 -0.57309,0.146879 -1.25518,-0.194353 z m -14.86707,-6.294539 c -0.58716,-0.569051 -1.49239,-1.8122346 -1.49239,-2.0495566 0,-0.06102 -0.0301,-0.123876 -0.067,-0.139664 -0.15726,-0.06738 -0.77782,-1.690094 -0.96997,-2.53639 -0.43187,-1.902138 -0.45939,-4.221092 -0.0714,-6.01828187 0.17374,-0.804771 0.48217,-1.80672113 0.74941,-2.43442513 0.80213,-1.884116 2.40453,-3.579567 4.14829,-4.389174 1.23863,-0.5750814 1.87673,-0.7824304 3.14341,-1.0214584 1.1182,-0.211005 3.49345,-0.213988 4.72927,-0.0059 2.49365,0.41981 3.55896,0.9163304 6.7248,3.1342764 5.1632,3.61726813 7.03029,4.78495513 8.85943,5.540731 2.71755,1.122849 3.05834,1.325078 3.37092,2.000319 0.17941,0.387567 0.13887,1.079026 -0.0917,1.565041 -0.17098,0.360303 -0.14146,0.425178 0.14406,0.31662 0.32063,-0.121903 0.88887,-0.71842 1.21336,-1.273756 0.50424,-0.862942 1.00662,-0.82252 1.01261,0.08146 0.004,0.656522 -0.38232,1.198054 -1.05655,1.479698 -0.54813,0.228964 -1.61938,0.323128 -2.41454,0.21223 -1.37924,-0.192356 -4.93256,-1.357692 -7.07598,-2.320614 -1.07857,-0.484551 -1.7119,-0.785941 -3.18647,-1.516399 -1.86498,-0.92385887 -2.62671,-1.32780587 -4.04768,-2.14650087 -0.97468,-0.561564 -1.38159,-0.78050913 -2.36832,-1.27431913 -0.59208,-0.296311 -1.25091,-0.589209 -1.46405,-0.650886 -0.21315,-0.06168 -0.50381,-0.16475 -0.64591,-0.229057 -0.41198,-0.18644 -1.59034,-0.456842 -2.15302,-0.494053 -0.89144,-0.05895 -1.90963,0.08578 -2.61933,0.372337 -0.74162,0.29944 -1.6556,0.858112 -1.61467,0.986963 0.015,0.04736 0.36728,0.169306 0.78274,0.270981 0.87894,0.215096 1.89071,0.68936913 2.21126,1.03653213 0.12323,0.133465 0.33166,0.513945 0.46319,0.845511 0.27012,0.68096487 0.30531,1.18667887 0.18196,2.61542787 -0.0695,0.804567 -0.0871,0.868537 -0.17832,0.645906 l -0.10128,-0.247108 -0.21849,0.345689 c -0.92819,1.468566 -1.39965,2.999901 -1.50747,4.896385 -0.0527,0.926994 -0.0547,0.934064 -0.2101,0.732032 -0.0863,-0.112204 -0.15775,-0.237183 -0.1588,-0.277732 -0.001,-0.04057 -0.11192,-0.214946 -0.24637,-0.387544 -0.13445,-0.172603 -0.3035,-0.430083 -0.37567,-0.572179 -0.74577,-1.468404 -0.94575,-1.909412 -1.15208,-2.540569 -0.13161,-0.402612 -0.26398,-0.76168 -0.29414,-0.797922 -0.0302,-0.03622 -0.13522,0.0994 -0.23347,0.301425 -0.70181,1.443167 -0.75747,1.739107 -0.75747,4.027453 0,1.0657456 0.0284,2.1224596 0.0631,2.3482596 l 0.0631,0.410535 -0.23539,-0.12188 c -0.12946,-0.06704 -0.51329,-0.391223 -0.85296,-0.720411 z m 11.85635,-7.0880206 c -1.30355,-0.289874 -2.85086,-1.394735 -3.24131,-2.314467 -0.37155,-0.87521801 0.23523,-1.61419687 1.26431,-1.53975587 0.68205,0.04933 1.39409,0.421946 2.52536,1.32153087 1.15854,0.92127 1.99303,1.485474 2.74704,1.857294 0.31902,0.157315 0.58003,0.312575 0.58003,0.345021 0,0.05166 -0.84493,0.260603 -1.46405,0.362033 -0.44195,0.07241 -2.03761,0.05149 -2.41138,-0.03163 z m 27.12957,-4.60445587 c -0.38837,-0.198816 -0.89277,-0.68275313 -1.10348,-1.05869913 -0.67183,-1.1987 -1.03407,-2.403924 -1.61062,-5.3587304 -0.78733,-4.035139 -0.95991,-4.662129 -1.72387,-6.262907 -0.93334,-1.955682 -2.15684,-3.35231 -4.02215,-4.59128 -0.71897,-0.477552 -1.72426,-0.974089 -2.31975,-1.145782 -0.56238,-0.16215 -1.66668,-0.183486 -2.3293,-0.04504 -0.50686,0.105924 -1.87736,0.663842 -1.87736,0.764256 0,0.03523 0.37785,0.09162 0.83967,0.125264 0.46183,0.03361 1.1691,0.136745 1.57171,0.229132 0.87252,0.200215 1.96217,0.656748 2.02035,0.846469 0.10077,0.328618 0.30425,1.812358 0.30457,2.220791 4.8e-4,0.623112 -0.26756,1.275914 -0.75025,1.82724 -0.36704,0.419223 -2.24719,1.900559 -2.41257,1.90082 -0.0784,1.28e-4 -0.42613,0.291697 -0.99233,0.832051 -0.38439,0.3668343 -1.15424,1.4492153 -1.4749,2.0736683 -0.19397,0.3777107 -0.65643,1.5863831 -0.65643,1.7155991 0,0.05723 -0.0387,0.205781 -0.086,0.330168 l -0.086,0.22616 -0.66757,-0.454398 c -1.0983,-0.7475754 -2.24739,-1.7826101 -2.95567,-2.6623031 -1.29956,-1.6140813 -2.17889,-3.5354263 -2.29319,-5.0106913 -0.0284,-0.367089 -0.0789,-0.667434 -0.11214,-0.667434 -0.0332,0 -0.21613,0.112778 -0.40642,0.250625 -0.33436,0.242209 -0.71331,0.855547 -0.71331,1.1545 0,0.463929 -1.00688,-0.335317 -1.57745,-1.252157 -0.24108,-0.387381 -0.39988,-1.164089 -0.41071,-2.008724 -0.009,-0.70265 0.0169,-0.850915 0.21852,-1.252413 0.52004,-1.035371 1.3467,-1.887581 2.32436,-2.396197 0.31088,-0.161732 0.54703,-0.312256 0.52478,-0.334504 -0.055,-0.05496 -1.00991,0.299939 -1.61901,0.601678 -1.61549,0.800278 -2.8209,1.986648 -3.61495,3.557836 -0.31864,0.630495 -0.63309,1.70168 -0.75417,2.569085 l -0.10615,0.760548 -1.34652,-0.05944 -1.34652,-0.05945 -0.37177,-0.356624 c -0.5007,-0.480285 -0.97201,-1.200174 -1.29722,-1.981345 -0.26284,-0.631383 -0.61321,-2.142403 -0.61321,-2.644594 0,-0.138619 -0.0378,-0.25203 -0.0841,-0.25203 -0.1515,0 -0.79822,0.892155 -1.06129,1.464051 -0.42424,0.922309 -0.57927,1.650938 -0.63619,2.990166 l -0.0521,1.224686 -0.26733,0.07979 c -0.14704,0.04388 -0.63551,0.166092 -1.08549,0.271574 -0.44998,0.105482 -0.93182,0.226195 -1.07074,0.268247 -0.2058,0.0623 -0.31317,0.03639 -0.57955,-0.139908 -0.44328,-0.293351 -1.21367,-1.087082 -1.5093,-1.555015 -0.1332,-0.210848 -0.27291,-0.383429 -0.31047,-0.38351 -0.16058,-3.71e-4 -1.53546,1.476599 -1.94698,2.091534 -0.45714,0.683111 -1.21427,2.1247113 -1.21427,2.3120053 0,0.05683 -0.0226,0.08069 -0.0502,0.05306 -0.0919,-0.09194 0.3141,-1.8924163 0.66416,-2.9449983 0.55955,-1.682519 1.33564,-2.973948 2.20695,-3.672454 0.20153,-0.161552 0.3986,-0.304524 0.43795,-0.317712 0.0393,-0.01318 0.14574,0.14144 0.23644,0.343617 0.23567,0.525373 1.05003,1.596871 1.54811,2.036909 0.45243,0.399721 1.44464,1.131346 1.5343,1.131346 0.0295,0 0.0537,-0.246829 0.0537,-0.548504 0,-1.314356 0.45945,-2.930045 1.16521,-4.097494 0.66717,-1.103642 2.05999,-2.590254 2.85915,-3.051704 0.0823,-0.04754 0.0943,0.145956 0.0538,0.868647 -0.10608,1.895429 0.40649,3.374228 1.64314,4.740627 0.48444,0.535258 0.65161,0.575366 0.65161,0.156339 0,-1.175122 0.90369,-3.641157 1.7302,-4.721477 1.5313,-2.001521 3.49213,-3.060858 6.18192,-3.339779 1.2283,-0.127365 3.10491,0.107351 4.27398,0.534567 0.5029,0.183777 1.42096,0.614552 1.41868,0.66567 -0.001,0.0285 -0.14787,0.141504 -0.32576,0.251096 -0.43996,0.271027 -1.38319,1.193829 -1.93593,1.894 -1.58071,2.002322 -2.45214,4.079681 -2.53616,6.04583 -0.0408,0.953745 0.08,2.203273 0.22711,2.350395 0.0381,0.03814 0.0942,-0.168656 0.12456,-0.459483 0.51539,-4.930921 5.26806,-8.842636 10.69506,-8.80262 3.79793,0.02798 7.45963,2.135553 10.3615,5.963715 0.41291,0.544713 1.0143,1.455443 1.33644,2.023838 0.32213,0.568401 0.61957,1.091586 0.66097,1.162631 0.18298,0.313985 0.54644,1.131579 0.78486,1.7654813 0.14251,0.378931 0.31282,0.831825 0.37846,1.006437 0.6732,1.7908747 0.91647,4.8089321 0.50855,6.3091441 -0.28374,1.043468 -0.86918,1.82522513 -1.55601,2.07773713 -0.4362,0.160373 -1.15493,0.08296 -1.66791,-0.179645 z"
             id="path5-9" /><g
             id="g7"
             transform="translate(90.342303,-35.571834)"><path
               style="fill:#ffdd31;fill-opacity:1;stroke:none;stroke-width:1.717;stroke-dasharray:none"
               d="m 40.428166,17.048022 -3.287831,3.653148 -1.583032,6.819208 c 0,0 -7.793381,10.350585 -7.915153,11.324757 -0.121772,0.974175 -6.453894,22.040659 -5.845036,21.4318 0.608858,-0.608856 3.896691,-3.531375 3.896691,-3.531375 0,0 -1.095944,7.306294 -0.487087,7.06275 0.608858,-0.243541 6.453895,-3.774919 6.453895,-3.774919 l 3.89669,-0.365312 4.262007,7.184522 3.531375,11.081215 7.184525,5.114407 c 0,0 6.21035,-0.365316 6.697435,-0.487088 0.487087,-0.121772 3.04429,-4.383775 3.04429,-4.383775 l 1.095944,-2.800747 6.088581,-0.121772 3.531375,-1.461259 0.974172,-2.435431 -2.070116,-5.35795 -3.531375,-1.704803 3.653147,-2.435432 4.505547,-2.191887 -1.583028,-2.191891 1.7048,-0.243543 4.262006,2.678975 c 0,0 4.262006,4.018462 4.50555,3.409606 0.243541,-0.60886 -0.243544,-5.114407 -0.365315,-5.601494 -0.121772,-0.487087 -1.46126,-6.088579 -1.46126,-6.088579 L 78.907988,47.490919 75.98547,45.055488 72.697638,43.716"
               id="path6" /><path
               style="fill:#ffdd31;fill-opacity:1;stroke:none;stroke-width:1.717;stroke-dasharray:none"
               d="m 70.505748,42.254741 2.19189,-1.217716 0.608857,-1.339487 -2.557204,-2.557203 -2.922518,-6.332122 4.018462,-6.088581 2.435434,0.852401 2.678973,6.453895 2.19189,3.653147 h 3.287831 l 1.826575,-3.409606 c 0,0 -0.243543,-5.723263 -0.730631,-6.575664 C 83.048223,24.841404 80.7641,20.329927 80.125704,19.726997 75.741928,15.586763 68.922719,13.881961 68.922719,13.881961 l -5.723265,-2.191889 -5.966809,-0.243543 -5.601492,1.826574 -4.870865,1.217716 -2.557203,2.678975 -1.975008,2.486967 -1.678139,-1.025708"
               id="path7"
               sodipodi:nodetypes="cccccccccccsscccccccc" /></g><path
             style="fill:#ffffff;fill-opacity:1;stroke:none;stroke-width:1.717;stroke-dasharray:none"
             d="m 147.8559,3.4791941 -6.87916,-4.10104098 -2.38125,0.132291 0.66146,4.36562498 3.57187,2.116667 4.63021,-0.132292 z"
             id="path8" /><path
             style="fill:#ffffff;fill-opacity:1;stroke:none;stroke-width:1.717;stroke-dasharray:none"
             d="m 145.07778,7.8448191 -2.91042,10.8479169 -0.66146,3.175 0.79375,2.645833 3.3073,1.455208 4.76249,-0.132291 5.02709,-1.852084 6.48229,-1.984375"
             id="path9"
             sodipodi:nodetypes="cccccccc" /><path
             style="fill:#00539f;fill-opacity:1;stroke-width:8.044;stroke-dasharray:none"
             d="m 145.4328,48.478141 c 0.94183,-0.166531 1.5781,-0.36609 2.36859,-0.742867 1.96288,-0.935586 3.21445,-2.499276 3.65237,-4.563176 0.34126,-1.608354 0.67751,-2.323294 1.28371,-2.729455 0.39741,-0.266268 0.7926,-0.252267 2.22302,0.07874 1.05114,0.243258 1.33593,0.275023 2.47936,0.276515 0.96173,8.47e-4 1.43484,-0.0367 1.8516,-0.148555 1.49929,-0.402381 2.8228,-1.347068 3.63231,-2.592655 1.01419,-1.560519 0.90088,-3.70461 -0.29613,-5.603789 -0.87999,-1.396192 -2.55908,-2.995861 -4.08043,-3.88743 -0.20643,-0.120979 -0.37533,-0.252106 -0.37533,-0.2914 0,-0.120034 1.43736,-1.389668 2.15558,-1.90406 0.76629,-0.548806 2.11326,-1.259285 2.88249,-1.520405 0.73167,-0.248373 1.71116,-0.438244 2.38986,-0.463273 0.31972,-0.01178 0.58099,-0.04255 0.58059,-0.06831 -10e-4,-0.07414 -1.03226,-1.129118 -1.50443,-1.539258 -0.401,-0.348312 -0.41211,-0.368499 -0.17224,-0.312981 0.47993,0.111089 1.80429,0.659593 2.62385,1.086717 2.78595,1.451925 5.29725,3.776973 7.13157,6.602674 l 0.57712,0.889021 0.0521,-0.32924 c 0.0685,-0.432627 0.007,-3.238953 -0.0993,-4.549125 -0.44096,-5.421939 -1.80741,-10.026488 -3.8975,-13.133427 -1.16354,-1.729616 -2.90281,-3.200974 -5.22724,-4.422067 -1.01071,-0.530946 -1.83138,-0.874614 -3.22954,-1.352398 -0.89919,-0.307276 -0.93501,-0.32852 -0.70489,-0.41804 0.13334,-0.05189 0.27266,-0.09432 0.3096,-0.09432 0.14296,0 1.11138,-0.681052 1.42149,-0.999676 0.44505,-0.457277 0.66376,-0.917833 0.71755,-1.511047 0.10563,-1.164919 -0.3266,-1.724445 -2.11866,-2.742648 -1.44614,-0.82165497 -1.90341,-1.21685497 -2.2696,-1.96150997 C 159.52392,-1.010935 159.50721,-1.098436 159.5155,-1.90839 c 0.007,-0.680007 0.0565,-1.008092 0.23405,-1.551354 0.59996,-1.835307 2.25046,-3.565324 3.85645,-4.042249 0.81748,-0.242766 0.79738,-0.258426 1.01539,0.791189 0.6443,3.101999 2.05022,5.73133903 3.7218,6.96047103 1.49657,1.10043197 3.57799,1.39404397 5.0441,0.71152996 0.54095,-0.25182696 1.3023,-1.02423796 1.59879,-1.62200896 1.13539,-2.28916103 0.77894,-6.41089903 -0.96448,-11.15265203 -0.84566,-2.300031 -1.85623,-3.938804 -3.44202,-5.581662 -2.91777,-3.022788 -6.96581,-4.967727 -10.6423,-5.113254 -1.18368,-0.04684 -1.2147,-0.05311 -1.69901,-0.343941 -1.18532,-0.711751 -3.18955,-1.545044 -4.50983,-1.875044 -1.76742,-0.441756 -4.17037,-0.606349 -5.75009,-0.393865 -1.70242,0.228993 -3.73674,0.905935 -5.12121,1.704142 -0.33973,0.195867 -0.61733,0.329024 -0.61689,0.295899 0.002,-0.183545 0.59702,-1.054677 0.96339,-1.411528 0.23387,-0.227796 0.40122,-0.41418 0.37189,-0.41418 -0.37963,0 -2.74449,0.699266 -3.70441,1.095366 -1.48267,0.611794 -3.23115,1.64211 -4.25034,2.50457 -1.21172,1.025387 -2.35963,2.369625 -2.96527,3.472437 -0.1523,0.27732 -0.30338,0.504681 -0.33574,0.505244 -0.14379,0.0023 0.044,-2.101505 0.24063,-2.695834 0.0755,-0.228064 0.11833,-0.433509 0.0953,-0.456552 -0.023,-0.02304 -0.33877,0.133628 -0.70161,0.348144 -3.94701,2.333534 -6.50125,6.55101 -7.14483,11.7972753 l -0.12584,1.0258337 -0.98263,0.998004 c -1.77749,1.805316 -3.16627,3.528896 -4.69009,5.82077803 -4.68801,7.05089597 -7.36993,15.42743397 -7.85843,24.54444097 -0.10285,1.919487 -0.11647,4.436636 -0.024,4.431952 0.0355,-0.0018 0.25423,-0.379651 0.48601,-0.839679 0.59508,-1.181083 1.39831,-2.448245 1.91118,-3.015061 l 0.43794,-0.484006 0.0577,1.270679 c 0.0843,1.855988 0.42693,3.737782 0.91416,5.021376 l 0.15378,0.405096 0.34913,-0.745021 c 1.17494,-2.507276 3.17858,-4.242376 5.76055,-4.988518 0.58838,-0.170032 0.86817,-0.194387 2.22326,-0.193528 0.98474,5.81e-4 1.68063,0.0401 1.90783,0.108169 0.71941,0.215603 2.24183,2.099591 3.28617,4.06661 0.85816,1.616339 1.44233,3.210029 2.22217,6.062378 0.9891,3.61772 1.85161,5.984004 2.8181,7.731438 1.76303,3.187578 4.06073,4.941597 7.27462,5.553283 0.93497,0.177947 3.67301,0.226705 4.5018,0.08018 z m -4.01143,-1.935229 c -1.70646,-0.4259 -2.75625,-0.932747 -3.97345,-1.918397 -1.63045,-1.320304 -2.82966,-2.978501 -3.82008,-5.282196 -0.20195,-0.469722 -0.52753,-1.646022 -0.67935,-2.454444 -0.31728,-1.689416 -0.37983,-2.60397 -0.32975,-4.821597 0.10673,-4.726417 0.83858,-7.92489 2.69172,-11.763743 0.76031,-1.575012 2.39329,-4.315401 2.79267,-4.686512 0.0255,-0.02368 0.3812,-0.488738 0.79048,-1.033451 0.72469,-0.964495 2.85046,-3.272594 3.01409,-3.272594 0.045,0 -0.0306,0.16471 -0.16799,0.366016 -0.36051,0.528385 -1.06779,1.873267 -1.48331,2.820453 -1.94469,4.433032 -2.38122,8.867387 -1.2844,13.047314 1.1644,4.437501 4.24836,8.516625 8.16784,10.803521 0.85099,0.496531 1.67494,1.329593 1.99814,2.020261 0.76197,1.628288 0.52013,3.365432 -0.63238,4.542454 -0.91791,0.937434 -2.27601,1.558443 -3.94082,1.801988 -0.75238,0.11006 -2.37457,0.0228 -3.14341,-0.169073 z m 13.17889,-8.287914 c -1.07134,-0.215178 -1.68463,-0.418457 -2.67215,-0.8857 -0.99627,-0.471388 -1.58531,-0.853168 -2.51865,-1.63244 -0.74274,-0.620141 -1.02276,-0.903137 -1.87351,-1.893368 -0.39454,-0.459221 -1.44894,-2.037514 -1.39633,-2.090124 0.0124,-0.01237 0.25408,0.05416 0.53716,0.147825 2.66118,0.880488 4.88824,0.872084 7.14202,-0.02699 0.71272,-0.284307 1.86681,-1.00592 2.35185,-1.470534 l 0.28098,-0.269147 0.58023,0.283798 c 1.13567,0.555463 2.48578,1.524874 3.2212,2.312888 1.01709,1.089839 1.37669,2.76086 0.83495,3.879954 -0.49153,1.015369 -1.4515,1.549507 -3.34674,1.862169 -0.45828,0.07561 -2.32278,-0.05404 -3.14101,-0.218359 z m -4.43763,-7.744966 c -0.30788,-0.101971 -0.66873,-0.241699 -0.80189,-0.310497 l -0.24211,-0.12509 0.74812,-0.469681 c 0.41146,-0.258321 1.02422,-0.669489 1.36168,-0.913695 0.93032,-0.673238 3.32637,-2.596719 3.32637,-2.670313 0,-0.03564 -0.24083,0.07632 -0.53517,0.248832 -0.68577,0.401915 -3.25061,1.641629 -4.20148,2.030774 -3.2286,1.321328 -5.45381,1.417755 -7.32767,0.317538 -1.23495,-0.725089 -2.21301,-2.187828 -2.58972,-3.873064 -0.23951,-1.071463 -0.25961,-3.397277 -0.0406,-4.693588 0.48517,-2.871236 1.58765,-5.504018 3.31032,-7.905242 0.34806,-0.485168 0.46815,-0.485916 0.16204,-0.0012 -0.71421,1.131392 -1.53808,3.442208 -1.96143,5.501516 -0.25563,1.243446 -0.32371,3.711187 -0.12945,4.692451 0.4189,2.116057 1.81365,3.617017 3.80542,4.095207 0.77183,0.185304 2.476,0.186854 3.57294,0.0035 1.68735,-0.282445 4.16963,-1.038442 7.50993,-2.287221 3.33328,-1.246156 6.27771,-1.564286 7.88194,-0.851601 l 0.40373,0.17936 -0.47367,0.101634 c -0.72596,0.155765 -1.09606,0.291545 -1.92582,0.706515 -1.34556,0.672926 -2.91681,1.803697 -6.16987,4.44024 -1.64849,1.336071 -2.26955,1.709887 -3.18614,1.917747 -0.7235,0.164071 -1.76642,0.108088 -2.49751,-0.134063 z m -19.55995,-1.690914 c -0.33711,-1.02162 -1.402,-3.15227 -2.08727,-4.176253 -0.6817,-1.018643 -1.19442,-1.717363 -1.35546,-1.847188 -0.30888,-0.248995 -3.07139,-0.160903 -4.59109,0.146402 -2.32297,0.469739 -4.67774,1.572005 -6.00138,2.809245 -0.21757,0.203361 -0.41374,0.351586 -0.43593,0.329385 -0.0618,-0.06175 0.0743,-1.257625 0.27849,-2.447322 0.35575,-2.073071 1.0884,-4.22963 2.10734,-6.203011 0.30408,-0.588902 0.54334,-1.080268 0.53168,-1.091917 -0.0447,-0.04475 -1.26304,0.529721 -2.08602,0.983643 -0.47366,0.261253 -1.24875,0.730098 -1.72241,1.041878 -1.02895,0.677291 -1.02129,0.673535 -0.95982,0.470232 0.0268,-0.08849 0.18362,-1.013494 0.34859,-2.055558 0.64474,-4.072553 1.18529,-6.196963 2.30689,-9.066313 1.29149,-3.30399 3.93671,-7.88430597 6.15367,-10.655365 0.91817,-1.14765 2.65047,-2.900013 3.6478,-3.690042 2.14719,-1.7008717 4.69393,-3.0263907 7.13119,-3.711627 1.00168,-0.281615 2.75451,-0.583562 3.18215,-0.548156 0.26175,0.02165 0.11609,0.07874 -0.7723,0.302603 -3.99791,1.0074123 -7.13615,3.435986 -9.14295,7.075414 -1.07052,1.941446 -1.59815,4.08697703 -1.6021,6.514675 -0.003,1.869628 0.36262,4.183851 0.95386,6.036838 0.13758,0.431199 0.25015,0.817529 0.25015,0.858514 0,0.137917 -1.04472,-0.948452 -1.44008,-1.497484 -0.21543,-0.299173 -0.55621,-0.832631 -0.75728,-1.185465 l -0.36558,-0.641519 -0.062,0.826625 c -0.1127,1.503149 0.11546,3.485084 0.64809,5.629844 0.52556,2.116254 0.62422,2.852854 0.63361,4.730254 l 0.008,1.667759 0.32174,-0.677371 c 0.37366,-0.786714 0.73794,-1.878352 1.02351,-3.067225 0.11093,-0.461822 0.2281,-0.839678 0.26036,-0.839678 0.0802,0 0.72759,1.135717 1.30085,2.2822 1.29202,2.583985 2.1666,5.548172 2.51557,8.525964 0.12659,1.080198 0.18736,4.087923 0.0804,3.980995 -0.0288,-0.02879 -0.16498,-0.393719 -0.30267,-0.810976 z m 14.95971,-3.306537 c -0.0476,-0.04399 -0.0359,-0.313364 0.0294,-0.679125 0.16798,-0.939994 1.7193,-3.928605 2.27675,-4.386161 0.3128,-0.256743 0.77323,-0.11712 1.74538,0.529286 0.58907,0.391682 0.80705,0.689264 0.80705,1.101755 0,0.491302 -0.99004,2.221394 -1.75417,3.065402 -0.35911,0.396645 -0.35999,0.397017 -1.08962,0.461799 -0.80402,0.0714 -1.89134,0.02125 -2.01482,-0.09296 z m 26.55779,-0.43489 c -1.62118,-1.524107 -4.40425,-3.295846 -6.87852,-4.378946 -0.44564,-0.195078 -1.58262,-0.646028 -2.5266,-1.002107 -5.0982,-1.923081 -6.83741,-3.076861 -9.39658,-6.233635 -1.7768,-2.191717 -1.97436,-2.417447 -2.79811,-3.197039 -1.03672,-0.981148 -1.76123,-1.362254 -2.74104,-1.44182 l -0.67399,-0.05473 0.73203,-0.334887 c 1.31362,-0.600952 2.87192,-1.058437 4.4626,-1.310137 1.32807,-0.21014 4.15085,-0.253626 5.4413,-0.08382 4.23494,0.557252 7.6082,2.12181 10.40912,4.827872 2.48076,2.396738 3.55656,4.717108 4.23303,9.130131 0.21152,1.379917 0.36272,4.52135 0.2176,4.52135 -0.006,0 -0.22212,-0.199007 -0.48084,-0.442232 z M 157.20247,13.116037 c 0.34551,-0.138915 0.5548,-0.585999 0.5083,-1.085822 -0.12124,-1.302975 -1.55949,-2.247351 -4.38228,-2.877488 -1.0495,-0.23428 -1.19084,-0.199076 -0.32387,0.08066 1.95685,0.631384 3.22537,1.574402 2.97955,2.214998 -0.0717,0.186853 -0.56781,0.09623 -1.07012,-0.195473 -0.20503,-0.119064 -0.39478,-0.194474 -0.42168,-0.167577 -0.0821,0.08215 0.40917,0.756416 0.93391,1.281667 0.69906,0.699736 1.28461,0.946669 1.77619,0.749038 z m -7.2982,12.002198 c 0,-0.133489 0.82334,-1.508675 1.22185,-2.040816 0.47801,-0.638286 0.94146,-1.002334 1.27603,-1.002334 0.12031,0 0.35353,0.110782 0.51826,0.246174 0.16473,0.135398 0.52373,0.35201 0.79777,0.481365 0.27404,0.129355 0.55604,0.323382 0.62667,0.431169 0.19731,0.301147 0.0346,0.620594 -0.41327,0.811325 -0.66057,0.281312 -1.99009,0.696926 -2.90993,0.909661 -0.99258,0.229555 -1.11738,0.24781 -1.11738,0.163456 z m -6.45055,-0.842668 c -0.32826,-0.169748 -0.77393,-0.692678 -0.97205,-1.140552 -0.27356,-0.618446 -0.37822,-1.714867 -0.2501,-2.620111 0.32746,-2.313596 1.06932,-3.779313 1.91289,-3.779313 0.5703,0 1.94375,0.853481 2.34209,1.455402 0.26776,0.404609 0.32672,0.602223 0.32935,1.10388 0.005,0.924045 -1.2046,3.464143 -2.15025,4.515935 -0.5327,0.592489 -0.78088,0.687662 -1.21193,0.464759 z m 12.58429,-0.956612 c -0.27078,-0.189669 -0.2449,-0.559597 0.0821,-1.173056 0.54507,-1.022643 1.70881,-2.053191 2.31582,-2.050754 0.325,0.0012 1.08435,0.390702 1.24752,0.639743 0.20216,0.308535 0.12596,0.905789 -0.16851,1.320619 -0.56639,0.797934 -0.52433,0.77337 -1.86329,1.088081 -1.49971,0.352492 -1.37939,0.339414 -1.6136,0.175367 z m -2.17121,-1.146101 c -0.25998,-0.124823 -0.6619,-0.408422 -0.89314,-0.630217 l -0.42045,-0.403268 0.0372,-0.544063 c 0.0812,-1.188815 0.94147,-2.18181 2.10829,-2.433549 0.37397,-0.08068 1.03088,0.212154 1.45862,0.65023 0.31927,0.326976 0.33488,0.368767 0.32773,0.877413 -0.0107,0.762109 -0.23287,1.422601 -0.68506,2.036856 -0.60986,0.828448 -0.96631,0.910788 -1.93315,0.446598 z m -3.89122,-1.869007 c -1.05705,-0.531614 -1.62148,-1.116348 -1.62148,-1.679792 0,-0.470343 0.68868,-1.769585 1.2799,-2.414626 0.89236,-0.973585 1.63808,-1.149264 2.61694,-0.616508 0.82095,0.446817 1.03381,1.120213 0.70816,2.24038 -0.25568,0.879514 -0.92134,2.046475 -1.45492,2.550587 -0.23255,0.219701 -0.30493,0.24131 -0.66535,0.198624 -0.22242,-0.02635 -0.61089,-0.151742 -0.86325,-0.278665 z m -3.69189,-2.849726 c -1.17784,-0.58925 -2.41022,-1.991194 -2.4066,-2.737748 0.004,-0.851419 0.65892,-2.453097 1.30116,-3.182725 0.48141,-0.546907 0.9041,-0.736088 1.65006,-0.738503 0.96902,-0.0029 1.68265,0.474279 2.1856,1.462164 0.75684,1.486578 -0.154,4.815653 -1.47504,5.391165 -0.39902,0.173834 -0.57309,0.146879 -1.25518,-0.194353 z m -14.86707,-6.294539 c -0.58716,-0.569051 -1.49239,-1.812235 -1.49239,-2.049557 0,-0.06102 -0.0301,-0.123876 -0.067,-0.139664 -0.15726,-0.06738 -0.77782,-1.690094 -0.96997,-2.53639 -0.43187,-1.902138 -0.45939,-4.221092 -0.0714,-6.01828197 0.17374,-0.804771 0.48217,-1.80672103 0.74941,-2.43442503 0.80213,-1.884116 2.40453,-3.579567 4.14829,-4.389174 1.23863,-0.575081 1.87673,-0.78243 3.14341,-1.021458 1.1182,-0.211005 3.49345,-0.213988 4.72927,-0.0059 2.49365,0.41981 3.55896,0.91633 6.7248,3.134276 5.1632,3.61726803 7.03029,4.78495503 8.85943,5.540731 2.71755,1.122849 3.05834,1.325078 3.37092,2.000319 0.17941,0.387567 0.13887,1.079026 -0.0917,1.565041 -0.17098,0.360303 -0.14146,0.425178 0.14406,0.31662 0.32063,-0.121903 0.88887,-0.71842 1.21336,-1.273756 0.50424,-0.862942 1.00662,-0.82252 1.01261,0.08146 0.004,0.656522 -0.38232,1.198054 -1.05655,1.479698 -0.54813,0.228964 -1.61938,0.323128 -2.41454,0.21223 -1.37924,-0.192356 -4.93256,-1.357692 -7.07598,-2.320614 -1.07857,-0.484551 -1.7119,-0.785941 -3.18647,-1.516399 -1.86498,-0.92385901 -2.62671,-1.32780597 -4.04768,-2.14650097 -0.97468,-0.561564 -1.38159,-0.78050903 -2.36832,-1.27431903 -0.59208,-0.296311 -1.25091,-0.589209 -1.46405,-0.650886 -0.21315,-0.06168 -0.50381,-0.16475 -0.64591,-0.229057 -0.41198,-0.18644 -1.59034,-0.456842 -2.15302,-0.494053 -0.89144,-0.05895 -1.90963,0.08578 -2.61933,0.372337 -0.74162,0.29944 -1.6556,0.858112 -1.61467,0.986963 0.015,0.04736 0.36728,0.169306 0.78274,0.270981 0.87894,0.215096 1.89071,0.68936903 2.21126,1.03653203 0.12323,0.133465 0.33166,0.513945 0.46319,0.845511 0.27012,0.68096497 0.30531,1.18667897 0.18196,2.61542797 -0.0695,0.804567 -0.0871,0.868537 -0.17832,0.645906 l -0.10128,-0.247108 -0.21849,0.345689 c -0.92819,1.468566 -1.39965,2.999901 -1.50747,4.896385 -0.0527,0.926994 -0.0547,0.934064 -0.2101,0.732032 -0.0863,-0.112204 -0.15775,-0.237183 -0.1588,-0.277732 -0.001,-0.04057 -0.11192,-0.214946 -0.24637,-0.387544 -0.13445,-0.172603 -0.3035,-0.430083 -0.37567,-0.572179 -0.74577,-1.468404 -0.94575,-1.909412 -1.15208,-2.540569 -0.13161,-0.402612 -0.26398,-0.76168 -0.29414,-0.797922 -0.0302,-0.03622 -0.13522,0.0994 -0.23347,0.301425 -0.70181,1.443167 -0.75747,1.739107 -0.75747,4.027453 0,1.065746 0.0284,2.12246 0.0631,2.34826 l 0.0631,0.410535 -0.23539,-0.12188 c -0.12946,-0.06704 -0.51329,-0.391223 -0.85296,-0.720411 z m 11.85635,-7.088021 c -1.30355,-0.289874 -2.85086,-1.394735 -3.24131,-2.314467 -0.37155,-0.87521801 0.23523,-1.61419697 1.26431,-1.53975597 0.68205,0.04933 1.39409,0.421946 2.52536,1.32153097 1.15854,0.92127 1.99303,1.485474 2.74704,1.857294 0.31902,0.157315 0.58003,0.312575 0.58003,0.345021 0,0.05166 -0.84493,0.260603 -1.46405,0.362033 -0.44195,0.07241 -2.03761,0.05149 -2.41138,-0.03163 z m 27.12957,-4.60445597 c -0.38837,-0.198816 -0.89277,-0.68275303 -1.10348,-1.05869903 -0.67183,-1.1987 -1.03407,-2.403924 -1.61062,-5.35873 -0.78733,-4.035139 -0.95991,-4.662129 -1.72387,-6.262907 -0.93334,-1.955682 -2.15684,-3.35231 -4.02215,-4.59128 -0.71897,-0.477552 -1.72426,-0.974089 -2.31975,-1.145782 -0.56238,-0.16215 -1.66668,-0.183486 -2.3293,-0.04504 -0.50686,0.105924 -1.87736,0.663842 -1.87736,0.764256 0,0.03523 0.37785,0.09162 0.83967,0.125264 0.46183,0.03361 1.1691,0.136745 1.57171,0.229132 0.87252,0.200215 1.96217,0.656748 2.02035,0.846469 0.10077,0.328618 0.30425,1.812358 0.30457,2.220791 4.8e-4,0.623112 -0.26756,1.275914 -0.75025,1.82724 -0.36704,0.419223 -2.24719,1.900559 -2.41257,1.90082 -0.0784,1.28e-4 -0.42613,0.291697 -0.99233,0.832051 -0.38439,0.3668343 -1.15424,1.4492153 -1.4749,2.0736683 -0.19397,0.3777107 -0.65643,1.5863827 -0.65643,1.7155987 0,0.05723 -0.0387,0.205781 -0.086,0.330168 l -0.086,0.22616 -0.66757,-0.454398 c -1.0983,-0.747575 -2.24739,-1.78261 -2.95567,-2.6623027 -1.29956,-1.6140813 -2.17889,-3.5354263 -2.29319,-5.0106913 -0.0284,-0.367089 -0.0789,-0.667434 -0.11214,-0.667434 -0.0332,0 -0.21613,0.112778 -0.40642,0.250625 -0.33436,0.242209 -0.71331,0.855547 -0.71331,1.1545 0,0.463929 -1.00688,-0.335317 -1.57745,-1.252157 -0.24108,-0.387381 -0.39988,-1.164089 -0.41071,-2.008724 -0.009,-0.70265 0.0169,-0.850915 0.21852,-1.252413 0.52004,-1.035371 1.3467,-1.887581 2.32436,-2.396197 0.31088,-0.161732 0.54703,-0.312256 0.52478,-0.334504 -0.055,-0.05496 -1.00991,0.299939 -1.61901,0.601678 -1.61549,0.800278 -2.8209,1.986648 -3.61495,3.557836 -0.31864,0.630495 -0.63309,1.70168 -0.75417,2.569085 l -0.10615,0.760548 -1.34652,-0.05944 -1.34652,-0.05945 -0.37177,-0.356624 c -0.5007,-0.480285 -0.97201,-1.200174 -1.29722,-1.981345 -0.26284,-0.631383 -0.61321,-2.142403 -0.61321,-2.644594 0,-0.138619 -0.0378,-0.25203 -0.0841,-0.25203 -0.1515,0 -0.79822,0.892155 -1.06129,1.464051 -0.42424,0.922309 -0.57927,1.650938 -0.63619,2.990166 l -0.0521,1.224686 -0.26733,0.07979 c -0.14704,0.04388 -0.63551,0.166092 -1.08549,0.271574 -0.44998,0.105482 -0.93182,0.226195 -1.07074,0.268247 -0.2058,0.0623 -0.31317,0.03639 -0.57955,-0.139908 -0.44328,-0.293351 -1.21367,-1.087082 -1.5093,-1.555015 -0.1332,-0.210848 -0.27291,-0.383429 -0.31047,-0.38351 -0.16058,-3.71e-4 -1.53546,1.476599 -1.94698,2.091534 -0.45714,0.683111 -1.21427,2.1247113 -1.21427,2.3120053 0,0.05683 -0.0226,0.08069 -0.0502,0.05306 -0.0919,-0.09194 0.3141,-1.8924163 0.66416,-2.9449983 0.55955,-1.682519 1.33564,-2.973948 2.20695,-3.672454 0.20153,-0.161552 0.3986,-0.304524 0.43795,-0.317712 0.0393,-0.01318 0.14574,0.14144 0.23644,0.343617 0.23567,0.525373 1.05003,1.596871 1.54811,2.036909 0.45243,0.399721 1.44464,1.131346 1.5343,1.131346 0.0295,0 0.0537,-0.246829 0.0537,-0.548504 0,-1.314356 0.45945,-2.930045 1.16521,-4.097494 0.66717,-1.103642 2.05999,-2.590254 2.85915,-3.051704 0.0823,-0.04754 0.0943,0.145956 0.0538,0.868647 -0.10608,1.895429 0.40649,3.374228 1.64314,4.740627 0.48444,0.535258 0.65161,0.575366 0.65161,0.156339 0,-1.175122 0.90369,-3.641157 1.7302,-4.721477 1.5313,-2.001521 3.49213,-3.060858 6.18192,-3.339779 1.2283,-0.127365 3.10491,0.107351 4.27398,0.534567 0.5029,0.183777 1.42096,0.614552 1.41868,0.66567 -0.001,0.0285 -0.14787,0.141504 -0.32576,0.251096 -0.43996,0.271027 -1.38319,1.193829 -1.93593,1.894 -1.58071,2.002322 -2.45214,4.079681 -2.53616,6.04583 -0.0408,0.953745 0.08,2.203273 0.22711,2.350395 0.0381,0.03814 0.0942,-0.168656 0.12456,-0.459483 0.51539,-4.930921 5.26806,-8.842636 10.69506,-8.80262 3.79793,0.02798 7.45963,2.135553 10.3615,5.963715 0.41291,0.544713 1.0143,1.455443 1.33644,2.023838 0.32213,0.568401 0.61957,1.091586 0.66097,1.162631 0.18298,0.313985 0.54644,1.131579 0.78486,1.7654813 0.14251,0.378931 0.31282,0.831825 0.37846,1.006437 0.6732,1.7908747 0.91647,4.8089317 0.50855,6.3091437 -0.28374,1.043468 -0.86918,1.82522503 -1.55601,2.07773703 -0.4362,0.160373 -1.15493,0.08296 -1.66791,-0.179645 z"
             id="path5" /></g></g><text
         xml:space="preserve"
         style="font-size:13.8014px;line-height:1;font-family:Sportsball;-inkscape-font-specification:Sportsball;text-align:center;letter-spacing:-0.325763px;word-spacing:0px;writing-mode:lr-tb;direction:ltr;text-anchor:middle;fill:#ffdd31;fill-opacity:1;stroke:none;stroke-width:0.403757;stroke-dasharray:none"
         x="161.86627"
         y="57.351707"
         id="text12"><tspan
           sodipodi:role="line"
           id="tspan12"
           style="font-style:normal;font-variant:normal;font-weight:normal;font-stretch:normal;font-size:13.8014px;font-family:'Lifestyle Rounded M54';-inkscape-font-specification:'Lifestyle Rounded M54';letter-spacing:-0.325763px;fill:#ffdd31;fill-opacity:1;stroke:none;stroke-width:0.403756"
           x="160.96799"
           y="57.351707"><tspan
             style="font-size:20.7451px;letter-spacing:-0.325763px;stroke-width:0.403756"
             id="tspan18">R</tspan><tspan
             style="font-size:18.152px;letter-spacing:-0.325763px;stroke-width:0.403756"
             id="tspan19">o</tspan><tspan
             style="font-size:12.2679px;letter-spacing:-0.325763px;stroke-width:0.403756"
             id="tspan15">o</tspan><tspan
             style="font-size:10.7344px;letter-spacing:-0.325763px;stroke-width:0.403756"
             id="tspan14">ste</tspan><tspan
             style="font-size:18.152px;letter-spacing:-1.79656px;stroke-width:0.403756"
             id="tspan16">r</tspan><tspan
             style="font-size:20.7451px;letter-spacing:-1.79656px;stroke-width:0.403756"
             id="tspan17">s</tspan></tspan></text></g></g></svg>
