<?xml version="1.0" encoding="UTF-8" standalone="no"?>
<!-- Created with Inkscape (http://www.inkscape.org/) -->

<svg
   width="105.83334mm"
   height="105.83334mm"
   viewBox="0 0 105.83333 105.83333"
   version="1.1"
   id="svg1"
   xml:space="preserve"
   inkscape:version="1.4.2 (ebf0e940d0, 2025-05-08)"
   sodipodi:docname="delaware.svg"
   inkscape:export-filename="../pngs/fargo.png"
   inkscape:export-xdpi="96"
   inkscape:export-ydpi="96"
   xmlns:inkscape="http://www.inkscape.org/namespaces/inkscape"
   xmlns:sodipodi="http://sodipodi.sourceforge.net/DTD/sodipodi-0.dtd"
   xmlns="http://www.w3.org/2000/svg"
   xmlns:svg="http://www.w3.org/2000/svg"><sodipodi:namedview
     id="namedview1"
     pagecolor="#ffffff"
     bordercolor="#000000"
     borderopacity="0.25"
     inkscape:showpageshadow="2"
     inkscape:pageopacity="0.0"
     inkscape:pagecheckerboard="0"
     inkscape:deskcolor="#d1d1d1"
     inkscape:document-units="mm"
     inkscape:zoom="1"
     inkscape:cx="341.5"
     inkscape:cy="68"
     inkscape:window-width="1920"
     inkscape:window-height="1011"
     inkscape:window-x="0"
     inkscape:window-y="32"
     inkscape:window-maximized="1"
     inkscape:current-layer="layer1"
     showgrid="false"
     showguides="false" /><defs
     id="defs1"><inkscape:path-effect
       effect="bspline"
       id="path-effect55"
       is_visible="true"
       lpeversion="1.3"
       weight="33.333333"
       steps="2"
       helper_size="0"
       apply_no_weight="true"
       apply_with_weight="true"
       only_selected="false"
       uniform="false" /></defs><g
     inkscape:label="Capa 1"
     inkscape:groupmode="layer"
     id="layer1"><g
       id="g1"
       transform="matrix(1.1953341,0,0,1.1953341,-118.58098,79.254819)"><path
         style="fill:#00539f;fill-opacity:1;stroke:#ffffff;stroke-width:7.553;stroke-dasharray:none"
         d="m 145.63742,17.315787 c 1.00836,-0.178294 1.68957,-0.391949 2.5359,-0.79534 2.10152,-1.001671 3.4415,-2.675812 3.91035,-4.885495 0.36537,-1.7219595 0.72537,-2.4873991 1.37439,-2.9222492 0.42548,-0.2850758 0.84858,-0.2700859 2.38004,0.084302 1.12539,0.2604404 1.43029,0.2944492 2.65449,0.2960465 1.02966,9.069e-4 1.53619,-0.039292 1.98239,-0.1590481 1.60519,-0.4308031 3.02218,-1.4422179 3.88887,-2.7757867 1.08583,-1.6707459 0.96452,-3.9662844 -0.31704,-5.99961149 -0.94215,-1.49481171 -2.73984,-3.20747301 -4.36865,-4.16201781 -0.22102,-0.1295244 -0.40185,-0.2699135 -0.40185,-0.311983 0,-0.1285126 1.53889,-1.4878269 2.30784,-2.0385529 0.82042,-0.5875708 2.26253,-1.3482344 3.0861,-1.6277985 0.78335,-0.2659168 1.83202,-0.4691993 2.55866,-0.4959962 0.34231,-0.012612 0.62203,-0.045555 0.6216,-0.073135 -0.001,-0.079377 -1.10517,-1.208873 -1.61069,-1.6479836 -0.42933,-0.372915 -0.44122,-0.394528 -0.18441,-0.335088 0.51383,0.118936 1.93174,0.7061833 2.80919,1.1634771 2.98273,1.5544815 5.67142,4.0437588 7.63531,7.0690526 l 0.61788,0.9518168 0.0558,-0.3524958 c 0.0733,-0.4631855 0.007,-3.4677358 -0.10631,-4.8704515 -0.47211,-5.8049172 -1.93508,-10.7347072 -4.1728,-14.0611042 -1.24573,-1.851787 -3.10785,-3.427074 -5.59647,-4.734419 -1.0821,-0.568449 -1.96074,-0.936392 -3.45766,-1.447924 -0.9627,-0.32898 -1.00105,-0.351725 -0.75468,-0.447568 0.14276,-0.05555 0.29192,-0.100982 0.33147,-0.100982 0.15306,0 1.18988,-0.729158 1.5219,-1.070288 0.47649,-0.489577 0.71064,-0.982664 0.76823,-1.61778 0.11309,-1.247203 -0.34967,-1.846251 -2.26831,-2.936374 -1.54829,-0.879692 -2.03785,-1.302807 -2.42991,-2.100061 -0.28516,-0.579889 -0.30305,-0.67357 -0.29418,-1.540736 0.007,-0.728039 0.0605,-1.079298 0.25058,-1.660933 0.64234,-1.964944 2.40942,-3.81716 4.12885,-4.327773 0.87523,-0.259914 0.85371,-0.27668 1.08711,0.847075 0.68981,3.321108 2.19504,6.136171 3.98469,7.452123 1.60228,1.17816 3.83072,1.492511 5.40039,0.761788 0.57916,-0.269614 1.39429,-1.096585 1.71172,-1.736579 1.21559,-2.450856 0.83396,-6.863732 -1.0326,-11.940418 -0.9054,-2.462493 -1.98735,-4.217021 -3.68515,-5.975921 -3.12387,-3.236302 -7.45784,-5.318622 -11.39402,-5.474428 -1.26729,-0.05015 -1.3005,-0.05686 -1.81902,-0.368235 -1.26904,-0.762026 -3.41484,-1.654178 -4.82838,-2.007488 -1.89226,-0.472959 -4.46494,-0.649178 -6.15624,-0.421685 -1.82267,0.245168 -4.00069,0.969925 -5.48295,1.824513 -0.36373,0.209702 -0.66093,0.352265 -0.66046,0.3168 0.002,-0.196509 0.63919,-1.129174 1.03144,-1.511231 0.25039,-0.243886 0.42956,-0.443435 0.39815,-0.443435 -0.40644,0 -2.93834,0.748658 -3.96607,1.172737 -1.58739,0.655008 -3.45938,1.7581 -4.55056,2.681479 -1.29731,1.097815 -2.5263,2.537003 -3.17472,3.717712 -0.16306,0.296909 -0.32481,0.540329 -0.35945,0.540932 -0.15395,0.0025 0.0471,-2.249944 0.25762,-2.886254 0.0808,-0.244173 0.12669,-0.464129 0.10203,-0.4888 -0.0246,-0.02467 -0.36269,0.143067 -0.75116,0.372735 -4.22581,2.498363 -6.96047,7.013739 -7.64951,12.630574 l -0.13473,1.098293 -1.05203,1.068498 c -1.90305,1.932834 -3.38992,3.778159 -5.02138,6.231928 -5.01914,7.548934 -7.8905,16.517147 -8.41351,26.2781321 -0.11011,2.0550696 -0.12469,4.7500169 -0.0257,4.7450021 0.038,-0.00193 0.27219,-0.4064676 0.52034,-0.8989896 0.63711,-1.2645086 1.49708,-2.6211763 2.04617,-3.2280292 l 0.46888,-0.5181937 0.0618,1.3604332 c 0.0903,1.9870853 0.45709,4.0017994 0.97873,5.3760598 l 0.16465,0.4337099 0.37379,-0.7976454 c 1.25793,-2.6843769 3.4031,-4.5420354 6.16744,-5.340881 0.62994,-0.1820421 0.9295,-0.2081175 2.3803,-0.2071978 1.0543,6.221e-4 1.79934,0.042933 2.04259,0.1158095 0.77023,0.2308321 2.40018,2.2478952 3.51829,4.3538542 0.91878,1.7305088 1.54421,3.43676876 2.37913,6.4905929 1.05897,3.8732569 1.9824,6.4066829 3.01716,8.277546 1.88756,3.412732 4.34756,5.290646 7.78846,5.945538 1.00101,0.190517 3.93245,0.242719 4.81978,0.08584 z m -4.29477,-2.071924 c -1.827,-0.455983 -2.95094,-0.998631 -4.25412,-2.053903 -1.74561,-1.413563 -3.02953,-3.188886 -4.08991,-5.6553024 -0.21621,-0.5029007 -0.56479,-1.7622884 -0.72733,-2.6278132 -0.3397,-1.8087475 -0.40666,-2.7879009 -0.35305,-5.16216949 0.11427,-5.06026651 0.89782,-8.48466301 2.88185,-12.59467291 0.81402,-1.686262 2.56234,-4.620218 2.98993,-5.017543 0.0273,-0.02535 0.40813,-0.523259 0.84632,-1.106448 0.77588,-1.032622 3.0518,-3.503753 3.22699,-3.503753 0.0482,0 -0.0328,0.176344 -0.17986,0.391869 -0.38597,0.565708 -1.14321,2.005585 -1.58808,3.019675 -2.08205,4.746159 -2.54942,9.4937335 -1.37513,13.9689088 1.24665,4.75094302 4.54845,9.1181951 8.74478,11.5666256 0.9111,0.5316033 1.79325,1.4235085 2.13928,2.1629617 0.81579,1.7433019 0.55687,3.6031489 -0.67705,4.8633089 -0.98275,1.00365 -2.43678,1.668524 -4.21918,1.929271 -0.80552,0.117835 -2.5423,0.02441 -3.36544,-0.181015 z m 14.10977,-8.8733291 c -1.14701,-0.230377 -1.80362,-0.4480146 -2.86089,-0.9482612 -1.06664,-0.5046844 -1.69729,-0.9134314 -2.69656,-1.7477471 -0.7952,-0.6639445 -1.095,-0.9669299 -2.00584,-2.0271057 -0.42241,-0.491658 -1.55129,-2.18143337 -1.49496,-2.23775947 0.0133,-0.0132437 0.27203,0.0579856 0.5751,0.15826659 2.84915,0.9426811 5.23352,0.93368348 7.6465,-0.0288964 0.76306,-0.30438897 1.99867,-1.07697302 2.51797,-1.57440492 l 0.30083,-0.2881581 0.62121,0.303844 c 1.21589,0.594698 2.66136,1.63258318 3.44873,2.4762584 1.08893,1.1668195 1.47393,2.9558728 0.89392,4.1540137 -0.52624,1.0870894 -1.55402,1.6589562 -3.58313,1.993703 -0.49065,0.080951 -2.48685,-0.057857 -3.36288,-0.2337828 z m -4.75108,-8.2920301 c -0.32962,-0.1091737 -0.71596,-0.2587714 -0.85853,-0.3324289 l -0.25921,-0.1339257 0.80096,-0.5028568 c 0.44053,-0.2765675 1.09657,-0.7167783 1.45787,-0.9782337 0.99603,-0.720792 3.56132,-2.7801377 3.56132,-2.85893 0,-0.038157 -0.25784,0.081711 -0.57297,0.2664082 -0.73421,0.4303042 -3.48021,1.7575851 -4.49825,2.1742173 -3.45665,1.4146597 -5.83904,1.5178978 -7.84526,0.3399672 -1.32218,-0.7763055 -2.36932,-2.3423648 -2.77264,-4.1466371 -0.25643,-1.1471456 -0.27795,-3.6372433 -0.0435,-5.0251183 0.51944,-3.074046 1.69979,-5.892794 3.54414,-8.463628 0.37265,-0.519437 0.50122,-0.520238 0.17349,-0.0013 -0.76466,1.211307 -1.64672,3.685347 -2.09998,5.890114 -0.27368,1.331277 -0.34657,3.973326 -0.13859,5.023902 0.44849,2.2655238 1.94176,3.8725038 4.07422,4.3844707 0.82634,0.1983929 2.65089,0.2000524 3.82531,0.00375 1.80654,-0.3023955 4.46415,-1.1117922 8.04039,-2.4487784 3.56873,-1.3341773 6.72114,-1.6747793 8.43868,-0.9117537 l 0.43225,0.1920291 -0.50713,0.1088129 c -0.77724,0.1667674 -1.17348,0.3121382 -2.06185,0.7564195 -1.4406,0.720458 -3.12284,1.9311008 -6.60568,4.7538755 -1.76493,1.4304441 -2.42986,1.8306645 -3.41119,2.0532067 -0.7746,0.1756601 -1.89119,0.1157227 -2.67392,-0.1435325 z m -20.94156,-1.8103514 c -0.36092,-1.0937819 -1.50103,-3.3749299 -2.2347,-4.4712418 -0.72986,-1.0905946 -1.27879,-1.8386686 -1.45121,-1.9776636 -0.33069,-0.266583 -3.28833,-0.172268 -4.91538,0.156743 -2.48705,0.5029189 -5.00815,1.6830432 -6.42528,3.0076754 -0.23294,0.2177254 -0.44297,0.3764202 -0.46673,0.352651 -0.0662,-0.066112 0.0795,-1.346457 0.29817,-2.6201881 0.38087,-2.2195023 1.16527,-4.5283893 2.25619,-6.6411593 0.32556,-0.630499 0.58172,-1.156573 0.56923,-1.169044 -0.0479,-0.04791 -1.35225,0.567137 -2.23336,1.053122 -0.50712,0.279707 -1.33696,0.781668 -1.84408,1.115471 -1.10163,0.725131 -1.09342,0.72111 -1.02761,0.503447 0.0287,-0.09474 0.19659,-1.085082 0.37321,-2.200752 0.69028,-4.360217 1.26901,-6.634685 2.46984,-9.70671 1.38271,-3.537367 4.21478,-8.441212 6.58833,-11.408005 0.98302,-1.228714 2.83769,-3.104855 3.90546,-3.950687 2.29886,-1.821013 5.02549,-3.24016 7.6349,-3.973798 1.07244,-0.301506 2.94908,-0.624781 3.40692,-0.586874 0.28024,0.02318 0.12429,0.0843 -0.82685,0.323977 -4.2803,1.078571 -7.64021,3.678686 -9.78876,7.575185 -1.14614,2.078579 -1.71103,4.37566 -1.71526,6.974838 -0.003,2.001688 0.38823,4.479376 1.02123,6.463248 0.1473,0.461657 0.26782,0.875275 0.26782,0.919155 0,0.147659 -1.11851,-1.015445 -1.5418,-1.603258 -0.23064,-0.320305 -0.5955,-0.891444 -0.81077,-1.2692 l -0.3914,-0.686833 -0.0664,0.885014 c -0.12066,1.609323 0.12362,3.731251 0.69387,6.027506 0.56268,2.265735 0.66831,3.054365 0.67836,5.064375 l 0.009,1.785561 0.34446,-0.725217 c 0.40006,-0.842284 0.79007,-2.011029 1.09581,-3.283878 0.11876,-0.494443 0.24421,-0.898989 0.27875,-0.898989 0.0859,0 0.77898,1.215938 1.39273,2.443403 1.38329,2.766504 2.31964,5.940066 2.69326,9.1281938 0.13553,1.1564975 0.2006,4.3766726 0.0861,4.2621917 -0.0308,-0.030823 -0.17663,-0.4215292 -0.32405,-0.8682591 z m 16.01639,-3.5400936 c -0.051,-0.047097 -0.0384,-0.3354984 0.0315,-0.7270948 0.17985,-1.0063903 1.84074,-4.206101 2.43757,-4.695977 0.33489,-0.274878 0.82785,-0.125392 1.86866,0.566672 0.63068,0.419349 0.86406,0.73795 0.86406,1.179578 0,0.526005 -1.05997,2.3783013 -1.87807,3.2819257 -0.38448,0.4246619 -0.38542,0.4250602 -1.16659,0.4944181 -0.86081,0.076443 -2.02493,0.022751 -2.15714,-0.099526 z m 28.43369,-0.4656083 c -1.73569,-1.631762 -4.71534,-3.5286475 -7.36438,-4.6882525 -0.47712,-0.208857 -1.69441,-0.69166 -2.70507,-1.07289 -5.45831,-2.058918 -7.32037,-3.294195 -10.0603,-6.673947 -1.90231,-2.346528 -2.11382,-2.588203 -2.99576,-3.422861 -1.10995,-1.050451 -1.88563,-1.458476 -2.93465,-1.543662 l -0.7216,-0.0586 0.78374,-0.358542 c 1.40641,-0.6434 3.07478,-1.133199 4.77781,-1.402678 1.42188,-0.224983 4.44405,-0.271541 5.82565,-0.08974 4.53407,0.596614 8.1456,2.271684 11.14436,5.168888 2.65599,2.566031 3.80778,5.0503 4.53203,9.775036 0.22646,1.477387 0.38834,4.8407144 0.23297,4.8407144 -0.006,0 -0.23781,-0.2130638 -0.5148,-0.4734689 z M 158.23844,-20.544113 c 0.36992,-0.148727 0.59399,-0.62739 0.5442,-1.162518 -0.1298,-1.395011 -1.66964,-2.406092 -4.69182,-3.080739 -1.12363,-0.250828 -1.27495,-0.213137 -0.34674,0.08636 2.09507,0.675981 3.45319,1.685609 3.19001,2.371453 -0.0768,0.200051 -0.60792,0.103027 -1.14571,-0.20928 -0.21951,-0.127474 -0.42267,-0.208211 -0.45147,-0.179414 -0.0879,0.08795 0.43807,0.809845 0.99988,1.372197 0.74844,0.749162 1.37535,1.013537 1.90165,0.801947 z m -7.81371,12.8499713 c 0,-0.142918 0.8815,-1.61524 1.30816,-2.1849686 0.51177,-0.6833717 1.00796,-1.0731337 1.36616,-1.0731337 0.12881,0 0.3785,0.118607 0.55487,0.263562 0.17636,0.144962 0.56072,0.376875 0.85412,0.515367 0.2934,0.138492 0.59531,0.3462236 0.67093,0.4616241 0.21125,0.3224185 0.037,0.6644295 -0.44246,0.8686328 -0.70723,0.3011824 -2.13066,0.7461532 -3.11547,0.9739147 -1.06269,0.2457696 -1.19631,0.265314 -1.19631,0.1750017 z m -6.90618,-0.9021897 c -0.35145,-0.1817381 -0.8286,-0.7416052 -1.04071,-1.2211147 -0.29288,-0.6621299 -0.40494,-1.8359959 -0.26777,-2.8051819 0.35059,-2.477016 1.14486,-4.046264 2.04801,-4.046264 0.61058,0 2.08105,0.913766 2.50752,1.558204 0.28668,0.433188 0.3498,0.644761 0.35262,1.181852 0.005,0.989315 -1.28969,3.708832 -2.30214,4.8349174 -0.57032,0.6343394 -0.83603,0.7362349 -1.29753,0.4975872 z m 13.47318,-1.0241821 c -0.28991,-0.2030662 -0.2622,-0.5991245 0.0879,-1.2559145 0.58357,-1.094877 1.82951,-2.198218 2.4794,-2.195609 0.34795,0.0013 1.16094,0.418299 1.33563,0.684931 0.21644,0.330329 0.13486,0.96977 -0.18041,1.413901 -0.6064,0.854296 -0.56136,0.827997 -1.9949,1.1649375 -1.60564,0.3773902 -1.47682,0.3633884 -1.72758,0.187754 z m -2.32457,-1.2270555 c -0.27835,-0.13364 -0.70866,-0.437271 -0.95623,-0.674732 l -0.45015,-0.431753 0.0398,-0.582493 c 0.0869,-1.272787 1.00797,-2.335922 2.25721,-2.605442 0.40038,-0.08638 1.10369,0.227139 1.56165,0.696159 0.34182,0.350072 0.35853,0.394814 0.35088,0.939389 -0.0115,0.81594 -0.24932,1.523086 -0.73345,2.180729 -0.65294,0.886965 -1.03457,0.975121 -2.0697,0.478143 z m -4.16608,-2.001024 c -1.13171,-0.569164 -1.73601,-1.195201 -1.73601,-1.798444 0,-0.503565 0.73732,-1.894579 1.3703,-2.585182 0.95539,-1.042354 1.75379,-1.230442 2.80179,-0.660055 0.87894,0.478377 1.10683,1.199339 0.75818,2.398628 -0.27374,0.941639 -0.98642,2.191028 -1.55769,2.730748 -0.24897,0.235219 -0.32647,0.258355 -0.71234,0.212653 -0.23813,-0.02821 -0.65404,-0.16246 -0.92423,-0.298348 z m -3.95267,-3.051016 c -1.26103,-0.630871 -2.58046,-2.131841 -2.57658,-2.931128 0.004,-0.911559 0.70546,-2.626371 1.39306,-3.407536 0.51542,-0.585538 0.96796,-0.788082 1.76661,-0.790667 1.03747,-0.0031 1.80151,0.507779 2.33998,1.565443 0.8103,1.591582 -0.16487,5.155806 -1.57923,5.771969 -0.4272,0.186113 -0.61357,0.157254 -1.34384,-0.208081 z m -15.9172,-6.739152 c -0.62863,-0.609246 -1.5978,-1.940242 -1.5978,-2.194327 0,-0.06533 -0.0322,-0.132626 -0.0717,-0.149529 -0.16837,-0.07214 -0.83277,-1.809474 -1.03849,-2.715548 -0.46237,-2.036495 -0.49184,-4.519248 -0.0764,-6.443382 0.18601,-0.861615 0.51623,-1.934338 0.80234,-2.60638 0.85879,-2.0172 2.57438,-3.832409 4.44131,-4.699202 1.32612,-0.615702 2.00929,-0.837697 3.36544,-1.093609 1.19718,-0.225909 3.74021,-0.229103 5.06332,-0.0063 2.66979,0.449463 3.81035,0.981055 7.19981,3.355665 5.5279,3.872774 7.52687,5.12294 9.48521,5.9321 2.9095,1.202161 3.27437,1.418675 3.60902,2.141611 0.19209,0.414943 0.14868,1.155243 -0.0982,1.675587 -0.18306,0.385753 -0.15145,0.455211 0.15423,0.338985 0.34328,-0.130514 0.95166,-0.769166 1.29907,-1.363728 0.53986,-0.923895 1.07772,-0.880618 1.08413,0.08721 0.004,0.702896 -0.40932,1.282679 -1.13118,1.584216 -0.58684,0.245137 -1.73376,0.345952 -2.58509,0.227221 -1.47666,-0.205943 -5.28097,-1.453592 -7.57579,-2.48453 -1.15475,-0.518777 -1.83282,-0.841456 -3.41154,-1.623509 -1.99671,-0.989116 -2.81225,-1.421596 -4.33359,-2.298119 -1.04353,-0.60123 -1.47918,-0.83564 -2.5356,-1.36433 -0.63391,-0.317241 -1.33927,-0.630828 -1.56747,-0.696862 -0.2282,-0.06604 -0.53939,-0.176387 -0.69153,-0.245236 -0.44108,-0.199609 -1.70267,-0.489111 -2.3051,-0.52895 -0.95441,-0.06311 -2.04452,0.09184 -2.80435,0.398637 -0.794,0.320591 -1.77254,0.918724 -1.72872,1.056677 0.0161,0.05071 0.39323,0.181264 0.83803,0.290121 0.94103,0.23029 2.02426,0.738063 2.36745,1.109748 0.13194,0.142892 0.35509,0.550247 0.49591,0.905233 0.2892,0.729065 0.32688,1.2705 0.19481,2.800168 -0.0744,0.861398 -0.0933,0.929886 -0.19091,0.69153 l -0.10844,-0.264563 -0.23392,0.370107 c -0.99375,1.572298 -1.49851,3.211798 -1.61395,5.24224 -0.0564,0.992472 -0.0586,1.000042 -0.22494,0.783739 -0.0924,-0.120129 -0.16889,-0.253936 -0.17002,-0.29735 -10e-4,-0.04343 -0.11982,-0.230128 -0.26377,-0.414918 -0.14395,-0.184794 -0.32494,-0.460461 -0.4022,-0.612594 -0.79845,-1.572125 -1.01256,-2.044283 -1.23346,-2.720022 -0.14091,-0.43105 -0.28263,-0.815481 -0.31492,-0.854283 -0.0323,-0.03878 -0.14477,0.106421 -0.24996,0.322716 -0.75138,1.545105 -0.81097,1.861949 -0.81097,4.311931 0,1.141025 0.0304,2.27238 0.0676,2.514129 l 0.0676,0.439533 -0.25201,-0.130489 c -0.13861,-0.07178 -0.54955,-0.418857 -0.91321,-0.771297 z m 12.69382,-7.588682 c -1.39562,-0.310349 -3.05223,-1.493252 -3.47026,-2.477949 -0.39779,-0.937039 0.25185,-1.728215 1.35362,-1.648516 0.73022,0.05281 1.49256,0.45175 2.70374,1.414877 1.24037,0.986344 2.1338,1.5904 2.94107,1.988483 0.34156,0.168427 0.621,0.334654 0.621,0.369392 0,0.05531 -0.90461,0.279011 -1.56746,0.387605 -0.47317,0.07752 -2.18154,0.05513 -2.58171,-0.03386 z m 29.04586,-4.929691 c -0.4158,-0.212859 -0.95583,-0.730979 -1.18142,-1.13348 -0.71928,-1.28337 -1.10711,-2.573724 -1.72439,-5.737243 -0.84294,-4.32016 -1.02771,-4.991438 -1.84563,-6.705286 -0.99927,-2.093821 -2.30919,-3.5891 -4.30625,-4.915584 -0.76976,-0.511284 -1.84606,-1.042894 -2.48361,-1.226714 -0.6021,-0.173604 -1.7844,-0.196447 -2.49383,-0.04822 -0.54266,0.113406 -2.00997,0.710733 -2.00997,0.818239 0,0.03772 0.40454,0.09809 0.89898,0.134112 0.49446,0.03598 1.25168,0.146404 1.68273,0.245317 0.93415,0.214357 2.10077,0.703137 2.16306,0.906259 0.10789,0.35183 0.32574,1.940374 0.32608,2.377656 5.2e-4,0.667126 -0.28646,1.366038 -0.80324,1.956307 -0.39297,0.448835 -2.40592,2.034805 -2.58298,2.035084 -0.0839,1.37e-4 -0.45623,0.312301 -1.06243,0.890823 -0.41154,0.392745 -1.23577,1.55158 -1.57908,2.220141 -0.20767,0.40439 -0.70279,1.698437 -0.70279,1.83678 0,0.06127 -0.0414,0.220317 -0.0921,0.35349 l -0.0921,0.242134 -0.71473,-0.486494 c -1.17587,-0.80038 -2.40613,-1.908524 -3.16444,-2.850354 -1.39135,-1.728092 -2.33279,-3.785151 -2.45517,-5.364621 -0.0304,-0.393018 -0.0845,-0.714578 -0.12006,-0.714578 -0.0355,0 -0.23139,0.120744 -0.43513,0.268328 -0.35797,0.259318 -0.76369,0.915979 -0.76369,1.236048 0,0.496699 -1.078,-0.359002 -1.68887,-1.340603 -0.25811,-0.414743 -0.42813,-1.246314 -0.43972,-2.15061 -0.01,-0.752281 0.0181,-0.911019 0.23395,-1.340877 0.55677,-1.108504 1.44183,-2.02091 2.48854,-2.565452 0.33284,-0.173155 0.58567,-0.334312 0.56185,-0.358131 -0.0589,-0.05884 -1.08124,0.321125 -1.73337,0.644177 -1.7296,0.856806 -3.02015,2.126975 -3.87029,3.809143 -0.34115,0.67503 -0.67781,1.821878 -0.80744,2.750552 l -0.11365,0.814269 -1.44163,-0.06364 -1.44163,-0.06365 -0.39803,-0.381814 c -0.53607,-0.514209 -1.04067,-1.284948 -1.38885,-2.121296 -0.28141,-0.675981 -0.65652,-2.293732 -0.65652,-2.831395 0,-0.14841 -0.0405,-0.269832 -0.09,-0.269832 -0.1622,0 -0.85461,0.955172 -1.13626,1.567464 -0.4542,0.987456 -0.62018,1.767552 -0.68112,3.201376 l -0.0558,1.311191 -0.28622,0.08543 c -0.15742,0.04698 -0.6804,0.177824 -1.16216,0.290757 -0.48177,0.112932 -0.99764,0.242172 -1.14637,0.287194 -0.22034,0.0667 -0.33529,0.03896 -0.62049,-0.14979 -0.47459,-0.314072 -1.2994,-1.163868 -1.61591,-1.664853 -0.14261,-0.225741 -0.29219,-0.410513 -0.3324,-0.410599 -0.17192,-3.98e-4 -1.64392,1.580898 -2.0845,2.239269 -0.48943,0.731362 -1.30004,2.27479 -1.30004,2.475313 0,0.06084 -0.0242,0.08639 -0.0537,0.05681 -0.0984,-0.09843 0.33629,-2.026087 0.71107,-3.153018 0.59908,-1.801363 1.42999,-3.184012 2.36284,-3.931857 0.21577,-0.172963 0.42676,-0.326034 0.46889,-0.340153 0.0421,-0.01411 0.15603,0.15143 0.25314,0.367888 0.25231,0.562483 1.1242,1.709666 1.65746,2.180786 0.48439,0.427955 1.54668,1.211258 1.64267,1.211258 0.0316,0 0.0575,-0.264264 0.0575,-0.587247 0,-1.407196 0.4919,-3.137009 1.24751,-4.38692 0.7143,-1.181598 2.2055,-2.773216 3.06111,-3.267261 0.0881,-0.0509 0.10096,0.156266 0.0576,0.930004 -0.11358,2.029312 0.4352,3.612566 1.7592,5.07548 0.51866,0.573066 0.69764,0.616007 0.69764,0.167382 0,-1.258126 0.96752,-3.898349 1.85241,-5.054977 1.63946,-2.142898 3.73879,-3.277061 6.61858,-3.575684 1.31506,-0.136361 3.32422,0.114934 4.57587,0.572326 0.53842,0.196758 1.52133,0.657961 1.51889,0.71269 -10e-4,0.03051 -0.15832,0.151499 -0.34877,0.268832 -0.47104,0.290171 -1.4809,1.278155 -2.07268,2.027782 -1.69236,2.143756 -2.62534,4.367849 -2.7153,6.472876 -0.0437,1.021113 0.0856,2.358901 0.24315,2.516415 0.0408,0.04083 0.10086,-0.180569 0.13336,-0.491939 0.5518,-5.279215 5.64017,-9.467234 11.4505,-9.424391 4.0662,0.02996 7.98654,2.286397 11.09339,6.384961 0.44207,0.583188 1.08594,1.558248 1.43084,2.166791 0.34488,0.60855 0.66333,1.16869 0.70765,1.244753 0.19591,0.336164 0.58504,1.211508 0.8403,1.890186 0.15258,0.405697 0.33492,0.890581 0.40519,1.077527 0.72076,1.917372 0.98121,5.14861 0.54448,6.754789 -0.30379,1.117173 -0.93058,1.954149 -1.66592,2.224497 -0.46701,0.171701 -1.23651,0.08882 -1.78573,-0.192334 z"
         id="path5-9" /><g
         id="g7"
         transform="matrix(1.0706348,0,0,1.0706348,86.669056,-72.659685)"><path
           style="fill:#ffdd31;fill-opacity:1;stroke:none;stroke-width:1.717;stroke-dasharray:none"
           d="m 40.428166,17.048022 -3.287831,3.653148 -1.583032,6.819208 c 0,0 -7.793381,10.350585 -7.915153,11.324757 -0.121772,0.974175 -6.453894,22.040659 -5.845036,21.4318 0.608858,-0.608856 3.896691,-3.531375 3.896691,-3.531375 0,0 -1.095944,7.306294 -0.487087,7.06275 0.608858,-0.243541 6.453895,-3.774919 6.453895,-3.774919 l 3.89669,-0.365312 4.262007,7.184522 3.531375,11.081215 7.184525,5.114407 c 0,0 6.21035,-0.365316 6.697435,-0.487088 0.487087,-0.121772 3.04429,-4.383775 3.04429,-4.383775 l 1.095944,-2.800747 6.088581,-0.121772 3.531375,-1.461259 0.974172,-2.435431 -2.070116,-5.35795 -3.531375,-1.704803 3.653147,-2.435432 4.505547,-2.191887 -1.583028,-2.191891 1.7048,-0.243543 4.262006,2.678975 c 0,0 4.262006,4.018462 4.50555,3.409606 0.243541,-0.60886 -0.243544,-5.114407 -0.365315,-5.601494 -0.121772,-0.487087 -1.46126,-6.088579 -1.46126,-6.088579 L 78.907988,47.490919 75.98547,45.055488 72.697638,43.716"
           id="path6" /><path
           style="fill:#ffdd31;fill-opacity:1;stroke:none;stroke-width:1.717;stroke-dasharray:none"
           d="m 70.505748,42.254741 2.19189,-1.217716 0.608857,-1.339487 -2.557204,-2.557203 -2.922518,-6.332122 4.018462,-6.088581 2.435434,0.852401 2.678973,6.453895 2.19189,3.653147 h 3.287831 l 1.826575,-3.409606 c 0,0 -0.243543,-5.723263 -0.730631,-6.575664 C 83.048223,24.841404 80.7641,20.329927 80.125704,19.726997 75.741928,15.586763 68.922719,13.881961 68.922719,13.881961 l -5.723265,-2.191889 -5.966809,-0.243543 -5.601492,1.826574 -4.870865,1.217716 -2.557203,2.678975 -1.975008,2.486967 -1.678139,-1.025708"
           id="path7"
           sodipodi:nodetypes="cccccccccccsscccccccc" /></g><path
         style="fill:#ffffff;fill-opacity:1;stroke:none;stroke-width:1.83828;stroke-dasharray:none"
         d="m 148.24511,-30.850296 -7.36506,-4.390717 -2.54945,0.141635 0.70818,4.67399 3.82417,2.266178 4.95726,-0.141637 z"
         id="path8" /><path
         style="fill:#ffffff;fill-opacity:1;stroke:none;stroke-width:1.83828;stroke-dasharray:none"
         d="m 145.27076,-26.176306 -3.11599,11.614158 -0.70819,3.399265 0.84982,2.832721 3.54091,1.5579964 5.09889,-0.1416354 5.38217,-1.9829056 6.94017,-2.1245404"
         id="path9"
         sodipodi:nodetypes="cccccccc" /><path
         style="fill:#00539f;fill-opacity:1;stroke-width:8.61219;stroke-dasharray:none"
         d="m 145.65086,17.327143 c 1.00835,-0.178294 1.68957,-0.391949 2.53589,-0.795339 2.10153,-1.001671 3.44151,-2.675812 3.91036,-4.885495 0.36536,-1.7219603 0.72536,-2.4873999 1.37438,-2.92225 0.42548,-0.2850758 0.84859,-0.2700858 2.38005,0.084302 1.12538,0.2604405 1.43029,0.2944492 2.65448,0.2960466 1.02967,9.068e-4 1.53619,-0.039292 1.98239,-0.1590482 1.60519,-0.4308031 3.02219,-1.4422179 3.88888,-2.7757867 1.08583,-1.6707459 0.96451,-3.9662843 -0.31705,-5.99961147 -0.94215,-1.49481173 -2.73984,-3.20747303 -4.36865,-4.16201783 -0.22101,-0.1295243 -0.40184,-0.2699135 -0.40184,-0.311983 0,-0.1285126 1.53889,-1.4878269 2.30784,-2.0385529 0.82042,-0.5875708 2.26253,-1.3482343 3.08609,-1.6277985 0.78335,-0.2659168 1.83203,-0.4691993 2.55867,-0.4959962 0.3423,-0.012612 0.62203,-0.045555 0.6216,-0.073135 -10e-4,-0.079377 -1.10517,-1.208873 -1.61069,-1.6479838 -0.42933,-0.372915 -0.44122,-0.394527 -0.18441,-0.335088 0.51383,0.118936 1.93174,0.7061835 2.80918,1.1634774 2.98274,1.5544814 5.67142,4.0437587 7.63531,7.0690525 l 0.61789,0.9518168 0.0558,-0.3524958 c 0.0733,-0.4631855 0.007,-3.4677358 -0.10632,-4.8704515 -0.4721,-5.8049164 -1.93507,-10.7347074 -4.1728,-14.0611044 -1.24572,-1.851787 -3.10785,-3.427074 -5.59646,-4.734419 -1.0821,-0.568449 -1.96074,-0.936392 -3.45766,-1.447924 -0.9627,-0.32898 -1.00105,-0.351725 -0.75468,-0.447568 0.14276,-0.05555 0.29192,-0.100983 0.33147,-0.100983 0.15306,0 1.18988,-0.729157 1.5219,-1.070287 0.47648,-0.489577 0.71064,-0.982664 0.76823,-1.61778 0.11309,-1.247203 -0.34967,-1.846251 -2.26831,-2.936374 -1.54829,-0.879693 -2.03786,-1.302808 -2.42991,-2.100061 -0.28517,-0.579889 -0.30306,-0.673571 -0.29418,-1.540736 0.007,-0.728039 0.0605,-1.079298 0.25058,-1.660933 0.64234,-1.964944 2.40942,-3.81716 4.12885,-4.327773 0.87522,-0.259914 0.8537,-0.27668 1.08711,0.847075 0.68981,3.321108 2.19504,6.136171 3.98469,7.452122 1.60228,1.178161 3.83072,1.492512 5.40039,0.761789 0.57916,-0.269615 1.39429,-1.096585 1.71172,-1.736579 1.21559,-2.450856 0.83396,-6.863732 -1.03261,-11.940418 -0.90539,-2.462493 -1.98734,-4.21702 -3.68514,-5.975921 -3.12387,-3.236302 -7.45784,-5.318622 -11.39402,-5.474428 -1.26729,-0.05015 -1.3005,-0.05686 -1.81902,-0.368235 -1.26904,-0.762026 -3.41484,-1.654178 -4.82838,-2.007487 -1.89226,-0.47296 -4.46494,-0.649179 -6.15625,-0.421686 -1.82267,0.245168 -4.00068,0.969925 -5.48294,1.824514 -0.36373,0.209702 -0.66094,0.352264 -0.66047,0.316799 0.002,-0.196509 0.63919,-1.129173 1.03144,-1.511231 0.25039,-0.243886 0.42956,-0.443435 0.39816,-0.443435 -0.40644,0 -2.93835,0.748658 -3.96607,1.172737 -1.5874,0.655008 -3.45938,1.7581 -4.55056,2.68148 -1.29731,1.097815 -2.5263,2.537003 -3.17472,3.717712 -0.16306,0.296908 -0.32481,0.540329 -0.35946,0.540931 -0.15394,0.0025 0.0471,-2.249944 0.25763,-2.886253 0.0808,-0.244174 0.12669,-0.46413 0.10203,-0.488801 -0.0246,-0.02467 -0.3627,0.143067 -0.75117,0.372735 -4.2258,2.498363 -6.96046,7.01374 -7.6495,12.630574 l -0.13473,1.098293 -1.05204,1.068498 c -1.90304,1.932834 -3.38992,3.778159 -5.02137,6.231927 -5.01915,7.548935 -7.8905,16.517148 -8.41351,26.2781333 -0.11011,2.0550696 -0.1247,4.7500169 -0.0257,4.7450021 0.038,-0.00193 0.27218,-0.4064676 0.52033,-0.8989896 0.63712,-1.2645085 1.49708,-2.6211763 2.04618,-3.2280292 l 0.46887,-0.5181937 0.0618,1.3604332 c 0.0903,1.9870853 0.45709,4.0017995 0.97873,5.3760599 l 0.16464,0.4337098 0.37379,-0.7976454 c 1.25794,-2.6843769 3.4031,-4.5420353 6.16745,-5.3408809 0.62994,-0.1820422 0.92949,-0.2081175 2.3803,-0.2071979 1.0543,6.221e-4 1.79934,0.042933 2.04259,0.1158095 0.77022,0.2308321 2.40018,2.2478952 3.51829,4.3538542 0.91877,1.7305088 1.5442,3.43676878 2.37913,6.4905929 1.05896,3.8732569 1.9824,6.4066829 3.01715,8.2775458 1.88757,3.412732 4.34756,5.290646 7.78847,5.945538 1.00101,0.190517 3.93245,0.242719 4.81978,0.08584 z m -4.29478,-2.071924 c -1.82699,-0.455983 -2.95093,-0.998631 -4.25411,-2.053902 -1.74562,-1.413564 -3.02953,-3.188887 -4.08991,-5.6553032 -0.21622,-0.5029007 -0.56479,-1.7622884 -0.72734,-2.6278131 -0.33969,-1.8087476 -0.40666,-2.7879009 -0.35304,-5.16216957 0.11427,-5.06026653 0.89781,-8.48466303 2.88185,-12.59467313 0.81401,-1.686262 2.56234,-4.620218 2.98993,-5.017542 0.0273,-0.02535 0.40812,-0.52326 0.84631,-1.106449 0.77588,-1.032622 3.05181,-3.503753 3.22699,-3.503753 0.0482,0 -0.0328,0.176344 -0.17985,0.39187 -0.38598,0.565707 -1.14322,2.005584 -1.58809,3.019675 -2.08205,4.746158 -2.54941,9.4937327 -1.37512,13.968908 1.24665,4.75094305 4.54844,9.1181952 8.74478,11.5666256 0.91109,0.5316034 1.79324,1.4235085 2.13927,2.1629617 0.81579,1.7433017 0.55687,3.6031487 -0.67704,4.8633097 -0.98275,1.003649 -2.43678,1.668523 -4.21918,1.929271 -0.80553,0.117834 -2.5423,0.02441 -3.36545,-0.181016 z m 14.10978,-8.8733289 c -1.14701,-0.230377 -1.80362,-0.4480146 -2.8609,-0.9482612 -1.06664,-0.5046844 -1.69728,-0.9134314 -2.69655,-1.7477471 -0.7952,-0.6639445 -1.095,-0.9669299 -2.00585,-2.0271057 -0.4224,-0.4916579 -1.55128,-2.18143335 -1.49496,-2.23775944 0.0133,-0.0132438 0.27203,0.0579856 0.57511,0.15826659 2.84915,0.94268109 5.23352,0.93368347 7.64649,-0.0288964 0.76307,-0.30438897 1.99867,-1.07697295 2.51797,-1.57440495 l 0.30083,-0.2881581 0.62122,0.303844 c 1.21588,0.594698 2.66136,1.63258322 3.44872,2.47625843 1.08894,1.16681947 1.47394,2.95587277 0.89393,4.15401377 -0.52625,1.0870894 -1.55403,1.6589561 -3.58313,1.9937029 -0.49066,0.080951 -2.48685,-0.057857 -3.36288,-0.2337827 z M 150.71478,-1.91014 c -0.32963,-0.1091737 -0.71597,-0.2587714 -0.85853,-0.3324289 l -0.25921,-0.1339257 0.80096,-0.5028568 c 0.44052,-0.2765675 1.09657,-0.7167782 1.45786,-0.9782337 0.99603,-0.720792 3.56133,-2.7801377 3.56133,-2.85893 0,-0.038157 -0.25784,0.081711 -0.57297,0.2664082 -0.73421,0.4303042 -3.48022,1.7575851 -4.49825,2.1742173 -3.45665,1.4146597 -5.83904,1.5178979 -7.84526,0.3399672 -1.32218,-0.7763055 -2.36933,-2.3423648 -2.77265,-4.1466371 -0.25642,-1.1471455 -0.27794,-3.6372425 -0.0435,-5.0251185 0.51944,-3.074045 1.69979,-5.892793 3.54414,-8.463627 0.37265,-0.519438 0.50122,-0.520239 0.17349,-0.0013 -0.76466,1.211308 -1.64673,3.685348 -2.09998,5.890114 -0.27369,1.331277 -0.34657,3.973326 -0.13859,5.023902 0.44849,2.265524 1.94175,3.872504 4.07421,4.3844709 0.82635,0.1983929 2.65089,0.2000524 3.82532,0.00375 1.80653,-0.3023954 4.46415,-1.1117921 8.04039,-2.4487784 3.56872,-1.3341775 6.72113,-1.6747785 8.43868,-0.9117537 l 0.43225,0.1920291 -0.50713,0.1088129 c -0.77724,0.1667674 -1.17348,0.3121382 -2.06185,0.7564195 -1.44061,0.720458 -3.12284,1.9311008 -6.60568,4.7538755 -1.76493,1.4304441 -2.42986,1.8306645 -3.41119,2.0532067 -0.77461,0.1756601 -1.89119,0.1157228 -2.67392,-0.1435325 z m -20.94156,-1.8103514 c -0.36093,-1.0937819 -1.50103,-3.3749299 -2.23471,-4.4712418 -0.72985,-1.0905946 -1.27879,-1.8386688 -1.4512,-1.9776638 -0.3307,-0.266583 -3.28834,-0.172268 -4.91538,0.156743 -2.48705,0.5029191 -5.00815,1.6830434 -6.42529,3.0076756 -0.23294,0.2177254 -0.44296,0.3764202 -0.46672,0.3526511 -0.0662,-0.066112 0.0795,-1.3464571 0.29816,-2.6201881 0.38088,-2.2195016 1.16528,-4.5283896 2.25619,-6.6411596 0.32556,-0.630499 0.58172,-1.156572 0.56924,-1.169044 -0.0479,-0.04791 -1.35226,0.567138 -2.23337,1.053122 -0.50711,0.279707 -1.33695,0.781669 -1.84407,1.115471 -1.10163,0.725131 -1.09343,0.72111 -1.02762,0.503447 0.0287,-0.09474 0.19659,-1.085082 0.37322,-2.200752 0.69028,-4.360217 1.26901,-6.634684 2.46983,-9.70671 1.38272,-3.537367 4.21478,-8.441213 6.58834,-11.408005 0.98302,-1.228714 2.83768,-3.104855 3.90546,-3.950687 2.29885,-1.821013 5.02548,-3.240159 7.6349,-3.973797 1.07243,-0.301507 2.94907,-0.624782 3.40692,-0.586875 0.28024,0.02318 0.12429,0.0843 -0.82685,0.323977 -4.2803,1.078571 -7.64021,3.678686 -9.78876,7.575185 -1.14614,2.078579 -1.71104,4.375659 -1.71527,6.974837 -0.003,2.001689 0.38824,4.479377 1.02124,6.463249 0.1473,0.461657 0.26782,0.875275 0.26782,0.919155 0,0.147659 -1.11852,-1.015446 -1.5418,-1.603258 -0.23065,-0.320305 -0.5955,-0.891444 -0.81077,-1.2692 l -0.3914,-0.686833 -0.0664,0.885013 c -0.12066,1.609324 0.12361,3.731253 0.69386,6.027507 0.56269,2.265736 0.66832,3.054365 0.67837,5.064375 l 0.009,1.785561 0.34447,-0.725217 c 0.40005,-0.842284 0.79006,-2.011029 1.09581,-3.283878 0.11876,-0.494443 0.24421,-0.898989 0.27875,-0.898989 0.0859,0 0.77898,1.215939 1.39273,2.443403 1.38328,2.766504 2.31964,5.940066 2.69326,9.128194 0.13553,1.1564975 0.20059,4.3766726 0.0861,4.2621918 -0.0308,-0.030824 -0.17664,-0.4215293 -0.32405,-0.8682592 z m 16.01638,-3.5400935 c -0.051,-0.047097 -0.0384,-0.3354984 0.0315,-0.7270949 0.17984,-1.0063903 1.84074,-4.2061012 2.43757,-4.6959762 0.33489,-0.274878 0.82784,-0.125393 1.86866,0.566672 0.63068,0.419348 0.86406,0.73795 0.86406,1.179577 0,0.526005 -1.05997,2.3783016 -1.87808,3.2819259 -0.38447,0.4246619 -0.38542,0.4250602 -1.16658,0.4944181 -0.86082,0.076443 -2.02494,0.022751 -2.15714,-0.099526 z m 28.4337,-0.4656084 c -1.7357,-1.631762 -4.71535,-3.5286477 -7.36439,-4.6882517 -0.47711,-0.208858 -1.6944,-0.69166 -2.70506,-1.072891 -5.45831,-2.058917 -7.32037,-3.294194 -10.06031,-6.673946 -1.9023,-2.346529 -2.11382,-2.588203 -2.99575,-3.422862 -1.10995,-1.050451 -1.88564,-1.458476 -2.93465,-1.543662 l -0.7216,-0.0586 0.78374,-0.358542 c 1.4064,-0.6434 3.07477,-1.133199 4.77781,-1.402678 1.42188,-0.224983 4.44404,-0.271541 5.82565,-0.08974 4.53407,0.596614 8.1456,2.271684 11.14436,5.168888 2.65599,2.566031 3.80778,5.0503 4.53203,9.775036 0.22646,1.477387 0.38834,4.8407147 0.23297,4.8407147 -0.006,0 -0.23781,-0.2130639 -0.5148,-0.473469 z M 158.25188,-20.532756 c 0.36991,-0.148728 0.59399,-0.627391 0.5442,-1.162519 -0.1298,-1.395011 -1.66964,-2.406092 -4.69182,-3.080739 -1.12363,-0.250828 -1.27496,-0.213138 -0.34675,0.08636 2.09507,0.675982 3.4532,1.68561 3.19001,2.371454 -0.0768,0.200052 -0.60791,0.103028 -1.14571,-0.20928 -0.21951,-0.127474 -0.42266,-0.20821 -0.45146,-0.179414 -0.0879,0.08795 0.43807,0.809846 0.99988,1.372198 0.74843,0.749161 1.37534,1.013536 1.90165,0.801946 z m -7.81371,12.8499705 c 0,-0.142918 0.8815,-1.61524 1.30816,-2.1849686 0.51177,-0.6833709 1.00796,-1.0731339 1.36616,-1.0731339 0.12881,0 0.3785,0.118607 0.55486,0.263563 0.17637,0.144961 0.56073,0.376874 0.85412,0.515366 0.2934,0.138492 0.59532,0.3462238 0.67094,0.4616243 0.21125,0.3224185 0.037,0.6644296 -0.44246,0.8686328 -0.70723,0.3011824 -2.13066,0.7461532 -3.11547,0.9739147 -1.06269,0.2457696 -1.19631,0.265314 -1.19631,0.1750017 z m -6.90618,-0.9021897 c -0.35145,-0.1817381 -0.8286,-0.7416052 -1.04071,-1.2211146 -0.29289,-0.6621302 -0.40494,-1.8359962 -0.26777,-2.8051822 0.35059,-2.477016 1.14485,-4.046264 2.04801,-4.046264 0.61058,0 2.08104,0.913767 2.50752,1.558204 0.28667,0.433189 0.3498,0.644761 0.35261,1.181852 0.005,0.989315 -1.28968,3.708833 -2.30213,4.8349177 -0.57033,0.6343393 -0.83604,0.7362348 -1.29753,0.4975871 z m 13.47318,-1.0241821 c -0.28991,-0.2030662 -0.2622,-0.5991237 0.0879,-1.2559147 0.58358,-1.094877 1.82952,-2.198218 2.4794,-2.195608 0.34796,0.0013 1.16095,0.418299 1.33564,0.684931 0.21644,0.330328 0.13486,0.969769 -0.18041,1.4139 -0.6064,0.854296 -0.56137,0.827997 -1.99491,1.1649377 -1.60564,0.3773902 -1.47682,0.3633884 -1.72757,0.187754 z m -2.32458,-1.2270557 c -0.27834,-0.13364 -0.70865,-0.437271 -0.95622,-0.674732 l -0.45015,-0.431753 0.0398,-0.582493 c 0.0869,-1.272786 1.00797,-2.335921 2.2572,-2.605442 0.40039,-0.08638 1.1037,0.22714 1.56165,0.696159 0.34182,0.350072 0.35854,0.394815 0.35088,0.939389 -0.0114,0.81594 -0.24932,1.523086 -0.73345,2.180729 -0.65293,0.886965 -1.03456,0.975121 -2.06969,0.478143 z m -4.16607,-2.001024 c -1.13172,-0.569164 -1.73602,-1.195201 -1.73602,-1.798444 0,-0.503565 0.73733,-1.894579 1.37031,-2.585182 0.95539,-1.042354 1.75379,-1.230442 2.80179,-0.660055 0.87893,0.478378 1.10683,1.199339 0.75818,2.398629 -0.27374,0.941638 -0.98642,2.191027 -1.55769,2.730747 -0.24898,0.235219 -0.32647,0.258355 -0.71235,0.212654 -0.23813,-0.02821 -0.65404,-0.162461 -0.92422,-0.298349 z m -3.95267,-3.051016 c -1.26104,-0.630871 -2.58046,-2.131841 -2.57659,-2.931128 0.004,-0.911559 0.70546,-2.626371 1.39307,-3.407536 0.51541,-0.585538 0.96796,-0.788082 1.76661,-0.790667 1.03747,-0.0031 1.8015,0.50778 2.33998,1.565444 0.8103,1.591582 -0.16488,5.155805 -1.57923,5.771968 -0.4272,0.186113 -0.61357,0.157254 -1.34384,-0.208081 z m -15.9172,-6.739152 c -0.62864,-0.609246 -1.59781,-1.940242 -1.59781,-2.194327 0,-0.06533 -0.0322,-0.132626 -0.0717,-0.149529 -0.16837,-0.07214 -0.83276,-1.809474 -1.03848,-2.715548 -0.46238,-2.036495 -0.49184,-4.519248 -0.0764,-6.443382 0.18602,-0.861616 0.51623,-1.934338 0.80235,-2.60638 0.85879,-2.0172 2.57437,-3.832409 4.4413,-4.699202 1.32612,-0.615702 2.0093,-0.837697 3.36545,-1.093609 1.19718,-0.225909 3.74021,-0.229103 5.06332,-0.0063 2.66979,0.449464 3.81034,0.981055 7.1998,3.355665 5.5279,3.872773 7.52688,5.12294 9.48522,5.9321 2.9095,1.202161 3.27436,1.418674 3.60902,2.141611 0.19208,0.414943 0.14868,1.155243 -0.0982,1.675587 -0.18305,0.385753 -0.15145,0.455211 0.15424,0.338985 0.34328,-0.130514 0.95165,-0.769166 1.29906,-1.363728 0.53986,-0.923896 1.07773,-0.880618 1.08414,0.08721 0.004,0.702895 -0.40932,1.282678 -1.13118,1.584216 -0.58685,0.245137 -1.73376,0.345952 -2.58509,0.227221 -1.47666,-0.205943 -5.28097,-1.453592 -7.57579,-2.48453 -1.15475,-0.518777 -1.83282,-0.841456 -3.41155,-1.62351 -1.99671,-0.989115 -2.81224,-1.421595 -4.33358,-2.298118 -1.04353,-0.60123 -1.47918,-0.83564 -2.53561,-1.364331 -0.6339,-0.31724 -1.33927,-0.630827 -1.56746,-0.696861 -0.22821,-0.06604 -0.5394,-0.176387 -0.69153,-0.245236 -0.44109,-0.199609 -1.70268,-0.489111 -2.3051,-0.528951 -0.95441,-0.06311 -2.04452,0.09184 -2.80435,0.398637 -0.794,0.320591 -1.77254,0.918725 -1.72872,1.056677 0.0161,0.05071 0.39322,0.181265 0.83803,0.290122 0.94102,0.230289 2.02426,0.738063 2.36745,1.109747 0.13193,0.142893 0.35509,0.550248 0.49591,0.905234 0.2892,0.729065 0.32687,1.2705 0.19481,2.800168 -0.0744,0.861397 -0.0933,0.929886 -0.19092,0.691529 l -0.10843,-0.264562 -0.23392,0.370107 c -0.99376,1.572298 -1.49852,3.211798 -1.61395,5.24224 -0.0564,0.992472 -0.0586,1.000041 -0.22494,0.783739 -0.0924,-0.12013 -0.1689,-0.253937 -0.17002,-0.29735 -0.001,-0.04343 -0.11983,-0.230128 -0.26377,-0.414918 -0.14395,-0.184795 -0.32494,-0.460462 -0.40221,-0.612595 -0.79844,-1.572124 -1.01255,-2.044282 -1.23345,-2.720021 -0.14091,-0.431051 -0.28263,-0.815481 -0.31492,-0.854283 -0.0323,-0.03878 -0.14477,0.106421 -0.24996,0.322716 -0.75138,1.545105 -0.81098,1.861948 -0.81098,4.311931 0,1.141025 0.0304,2.27238 0.0676,2.514129 l 0.0676,0.439533 -0.25202,-0.130489 c -0.1386,-0.07177 -0.54954,-0.418857 -0.91321,-0.771297 z m 12.69382,-7.588682 c -1.39563,-0.310349 -3.05223,-1.493252 -3.47026,-2.477949 -0.39779,-0.937039 0.25185,-1.728215 1.35361,-1.648516 0.73023,0.05281 1.49257,0.45175 2.70374,1.414877 1.24038,0.986343 2.13381,1.5904 2.94108,1.988483 0.34155,0.168427 0.621,0.334654 0.621,0.369392 0,0.05531 -0.90461,0.27901 -1.56746,0.387605 -0.47317,0.07753 -2.18154,0.05513 -2.58171,-0.03386 z m 29.04586,-4.929691 c -0.4158,-0.212859 -0.95583,-0.730979 -1.18142,-1.13348 -0.71929,-1.28337 -1.10711,-2.573725 -1.72439,-5.737243 -0.84294,-4.32016 -1.02771,-4.991437 -1.84563,-6.705286 -0.99927,-2.093821 -2.30919,-3.5891 -4.30626,-4.915584 -0.76975,-0.511284 -1.84605,-1.042894 -2.4836,-1.226714 -0.60211,-0.173604 -1.78441,-0.196447 -2.49383,-0.04822 -0.54266,0.113406 -2.00997,0.710733 -2.00997,0.81824 0,0.03772 0.40454,0.09809 0.89898,0.134112 0.49445,0.03598 1.25168,0.146403 1.68273,0.245316 0.93415,0.214357 2.10077,0.703137 2.16306,0.906259 0.10788,0.35183 0.32574,1.940374 0.32608,2.377657 5.1e-4,0.667125 -0.28646,1.366037 -0.80325,1.956306 -0.39296,0.448835 -2.40592,2.034805 -2.58298,2.035084 -0.0839,1.37e-4 -0.45623,0.312301 -1.06242,0.890823 -0.41154,0.392746 -1.23577,1.55158 -1.57908,2.220141 -0.20767,0.404391 -0.7028,1.698437 -0.7028,1.83678 0,0.06127 -0.0414,0.220316 -0.0921,0.35349 l -0.0921,0.242134 -0.71472,-0.486494 c -1.17588,-0.80038 -2.40613,-1.908524 -3.16444,-2.850354 -1.39136,-1.728092 -2.3328,-3.78515 -2.45517,-5.36462 -0.0304,-0.393019 -0.0845,-0.714579 -0.12006,-0.714579 -0.0356,0 -0.2314,0.120745 -0.43513,0.268328 -0.35798,0.259318 -0.76369,0.915979 -0.76369,1.236048 0,0.496699 -1.078,-0.359002 -1.68888,-1.340603 -0.25811,-0.414743 -0.42812,-1.246314 -0.43972,-2.150609 -0.01,-0.752282 0.0181,-0.91102 0.23396,-1.340877 0.55677,-1.108505 1.44182,-2.02091 2.48854,-2.565452 0.33284,-0.173156 0.58567,-0.334312 0.56185,-0.358132 -0.0589,-0.05884 -1.08125,0.321125 -1.73337,0.644177 -1.7296,0.856806 -3.02016,2.126975 -3.87029,3.809144 -0.34115,0.675029 -0.67781,1.821877 -0.80744,2.750551 l -0.11365,0.814269 -1.44163,-0.06364 -1.44163,-0.06365 -0.39803,-0.381814 c -0.53607,-0.51421 -1.04067,-1.284948 -1.38885,-2.121297 -0.28141,-0.675981 -0.65653,-2.293731 -0.65653,-2.831395 0,-0.14841 -0.0405,-0.269832 -0.09,-0.269832 -0.1622,0 -0.8546,0.955172 -1.13625,1.567464 -0.45421,0.987456 -0.62019,1.767552 -0.68113,3.201376 l -0.0558,1.311191 -0.28621,0.08543 c -0.15743,0.04698 -0.6804,0.177824 -1.16216,0.290757 -0.48177,0.112933 -0.99764,0.242172 -1.14638,0.287195 -0.22033,0.0667 -0.33529,0.03896 -0.62048,-0.149791 -0.47459,-0.314072 -1.2994,-1.163868 -1.61591,-1.664853 -0.14261,-0.225741 -0.29219,-0.410512 -0.3324,-0.410599 -0.17192,-3.97e-4 -1.64392,1.580898 -2.08451,2.239269 -0.48943,0.731362 -1.30004,2.27479 -1.30004,2.475313 0,0.06084 -0.0242,0.08639 -0.0537,0.05681 -0.0984,-0.09843 0.33628,-2.026087 0.71107,-3.153018 0.59907,-1.801363 1.42998,-3.184012 2.36284,-3.931857 0.21576,-0.172963 0.42675,-0.326034 0.46888,-0.340153 0.0421,-0.01411 0.15604,0.151431 0.25314,0.367888 0.25232,0.562483 1.1242,1.709666 1.65746,2.180786 0.48439,0.427955 1.54669,1.211258 1.64268,1.211258 0.0316,0 0.0575,-0.264263 0.0575,-0.587247 0,-1.407195 0.49191,-3.137008 1.24752,-4.38692 0.71429,-1.181597 2.20549,-2.773216 3.0611,-3.26726 0.0881,-0.0509 0.10096,0.156265 0.0576,0.930003 -0.11357,2.029313 0.4352,3.612566 1.75921,5.075481 0.51865,0.573065 0.69763,0.616006 0.69763,0.167382 0,-1.258127 0.96752,-3.89835 1.85241,-5.054978 1.63947,-2.142898 3.7388,-3.277061 6.61858,-3.575684 1.31506,-0.136361 3.32423,0.114934 4.57587,0.572326 0.53843,0.196758 1.52133,0.657961 1.51889,0.71269 -0.001,0.03051 -0.15831,0.151499 -0.34877,0.268832 -0.47103,0.290171 -1.48089,1.278155 -2.07267,2.027782 -1.69236,2.143756 -2.62535,4.367849 -2.7153,6.472876 -0.0437,1.021113 0.0856,2.358901 0.24315,2.516415 0.0408,0.04083 0.10085,-0.180569 0.13336,-0.491939 0.55179,-5.279215 5.64017,-9.467233 11.4505,-9.424391 4.0662,0.02996 7.98654,2.286398 11.09338,6.384961 0.44208,0.583189 1.08595,1.558248 1.43084,2.166791 0.34489,0.60855 0.66334,1.16869 0.70766,1.244754 0.1959,0.336163 0.58504,1.211507 0.8403,1.890185 0.15257,0.405697 0.33491,0.890581 0.40519,1.077527 0.72075,1.917373 0.98121,5.148609 0.54447,6.754789 -0.30378,1.117173 -0.93057,1.954149 -1.66592,2.224497 -0.46701,0.171701 -1.2365,0.08882 -1.78572,-0.192334 z"
         id="path5" /></g></g></svg>
