<?xml version="1.0" encoding="UTF-8" standalone="no"?>
<!-- Created with Inkscape (http://www.inkscape.org/) -->

<svg
   width="105.83334mm"
   height="105.83334mm"
   viewBox="0 0 105.83333 105.83333"
   version="1.1"
   id="svg1"
   xml:space="preserve"
   inkscape:version="1.4 (e7c3feb100, 2024-10-09)"
   sodipodi:docname="fargo.svg"
   inkscape:export-filename="../pngs/florida.png"
   inkscape:export-xdpi="96"
   inkscape:export-ydpi="96"
   xmlns:inkscape="http://www.inkscape.org/namespaces/inkscape"
   xmlns:sodipodi="http://sodipodi.sourceforge.net/DTD/sodipodi-0.dtd"
   xmlns="http://www.w3.org/2000/svg"
   xmlns:svg="http://www.w3.org/2000/svg"><sodipodi:namedview
     id="namedview1"
     pagecolor="#ffffff"
     bordercolor="#000000"
     borderopacity="0.25"
     inkscape:showpageshadow="2"
     inkscape:pageopacity="0.0"
     inkscape:pagecheckerboard="0"
     inkscape:deskcolor="#d1d1d1"
     inkscape:document-units="mm"
     inkscape:zoom="1.0565161"
     inkscape:cx="282.05911"
     inkscape:cy="124.93894"
     inkscape:window-width="1920"
     inkscape:window-height="1011"
     inkscape:window-x="0"
     inkscape:window-y="32"
     inkscape:window-maximized="1"
     inkscape:current-layer="layer1"
     showgrid="false"
     showguides="true" /><defs
     id="defs1"><inkscape:path-effect
       effect="bspline"
       id="path-effect55"
       is_visible="true"
       lpeversion="1.3"
       weight="33.333333"
       steps="2"
       helper_size="0"
       apply_no_weight="true"
       apply_with_weight="true"
       only_selected="false"
       uniform="false" /></defs><g
     inkscape:label="Capa 1"
     inkscape:groupmode="layer"
     id="layer1"><g
       id="g5"
       transform="matrix(0.94384432,0,0,0.94384432,-9.2774905,99.608214)"><g
         id="g4"><path
           style="fill:#ffc72a;fill-opacity:1;stroke-width:0.617093"
           d="m 14.546269,-40.237247 c -0.21372,-0.34581 0.11848,-0.839287 0.61275,-0.910242 0.77486,-0.111232 4.67759,-0.392823 8.46591,-0.610833 1.85991,-0.107034 3.45791,-0.241744 3.55113,-0.299356 0.24801,-0.153281 0.25744,-1.415661 0.0128,-1.710465 -0.11535,-0.138986 -0.3936,-0.252703 -0.61832,-0.252703 -0.37461,0 -0.39949,-0.04414 -0.29905,-0.530635 0.59491,-2.881365 0.0834,-5.803864 -1.30455,-7.453331 -0.24065,-0.285992 -0.41003,-0.540585 -0.37641,-0.565759 0.0336,-0.02518 0.41587,-0.177284 0.84943,-0.338023 2.915,-1.0807 4.98826,-3.890098 5.75659,-7.800535 l 0.27435,-1.396278 1.34869,-0.07079 c 0.92586,-0.0486 1.48884,-0.162612 1.79569,-0.363666 0.42811,-0.280512 0.44264,-0.334394 0.3442,-1.276292 -0.0944,-0.903036 -0.0482,-1.111766 0.56464,-2.553754 0.36709,-0.863686 1.06497,-2.364477 1.55084,-3.33509 0.48588,-0.970613 0.88341,-1.788266 0.88341,-1.817006 0,-0.02874 -0.23879,-0.145654 -0.53064,-0.259808 -2.84644,-1.113366 -4.62505,-2.107469 -5.74363,-3.210252 -1.03676,-1.02212 -1.29979,-1.573329 -1.30965,-2.744525 -0.016,-1.89718 1.5349,-4.070869 3.5418,-4.964165 1.84934,-0.823159 2.34894,-0.918722 8.61374,-1.647588 2.07624,-0.241561 3.05583,-0.546385 4.09988,-1.275783 1.20402,-0.841171 1.86444,-2.115997 1.84774,-3.566806 -0.0178,-1.550445 -0.20787,-1.693444 -2.2075,-1.661244 -1.41035,0.02271 -1.69181,-0.02191 -2.38391,-0.378086 -1.50977,-0.776932 -1.91829,-2.030426 -1.01777,-3.122907 0.60248,-0.730922 0.80447,-0.765775 0.80447,-0.138828 0,0.818863 0.34251,0.938425 1.71163,0.597494 1.4206,-0.353755 2.1809,-0.270817 2.95919,0.32282 0.63703,0.48588 1.2763,1.654122 1.42333,2.601032 0.13084,0.842775 -0.12708,2.615422 -0.54185,3.724004 -0.45962,1.228452 -1.26144,2.094134 -2.58273,2.788456 -1.25965,0.66193 -2.23546,0.920276 -5.33702,1.413007 -2.37313,0.377009 -4.03009,0.789604 -5.69107,1.417125 -1.99566,0.753961 -3.57202,2.766299 -3.30055,4.213379 0.21642,1.153646 1.69606,2.157363 4.82728,3.274615 1.65157,0.589294 1.76955,0.607906 3.26545,0.515119 3.00989,-0.186695 9.4793,-1.26176 12.49122,-2.075752 4.46987,-1.208009 7.34575,-2.396091 15.59252,-6.441555 3.72669,-1.828133 7.29552,-3.475906 7.93074,-3.661712 0.63522,-0.185806 1.89543,-0.424714 2.80048,-0.530897 1.90028,-0.222956 4.0899,-0.02653 6.00419,0.538629 2.61299,0.771428 8.52051,3.629478 13.41669,6.490976 l 1.17126,0.684525 0.869641,-0.659314 c 0.47831,-0.362623 0.91891,-0.659631 0.97911,-0.660017 0.0602,-3.87e-4 0.16071,0.47789 0.22335,1.062837 0.0626,0.584948 0.17072,1.098657 0.24016,1.141575 0.0694,0.04292 0.48231,-0.07946 0.91748,-0.271956 1.79166,-0.792536 4.80101,-0.528775 8.7957,0.77092 0.9878,0.321385 2.16487,0.597537 2.6157,0.613671 0.92441,0.03308 1.31242,-0.197386 2.27792,-1.35302 0.47885,-0.573146 0.57601,-0.631069 0.57601,-0.343375 0,0.67246 -0.65745,2.204502 -1.17532,2.738802 -0.2885,0.297663 -0.78497,0.613551 -1.10324,0.701972 -0.92169,0.256053 -2.7829,0.189206 -4.52227,-0.162422 -2.91484,-0.589257 -3.70641,-0.408074 -3.90153,0.893019 -0.10703,0.713764 -0.0911,0.746708 0.92919,1.915934 1.6535,1.894932 1.78086,1.993109 3.18986,2.458789 1.98844,0.657188 2.99147,0.735979 3.71068,0.291487 0.31954,-0.19749 0.73424,-0.574309 0.92157,-0.837378 0.47336,-0.664779 0.63687,-0.597097 0.45993,0.190387 -0.36104,1.606873 -0.97461,2.382883 -2.4274,3.070019 -0.82164,0.388619 -1.0669,0.423464 -2.88436,0.409815 -1.92295,-0.01444 -1.99289,-0.0027 -2.19095,0.367363 -0.11252,0.210254 -0.25129,0.382281 -0.30836,0.382281 -0.0571,0 -0.36669,0.240817 -0.68803,0.535149 -0.4566,0.418224 -0.62687,0.740485 -0.77935,1.474936 -0.23202,1.117611 -0.58382,1.492017 -1.64005,1.745402 -0.42979,0.103107 -0.92606,0.347286 -1.10281,0.542621 -0.54404,0.601253 -2.24422,3.22954 -2.90342,4.488345 -0.986481,1.883792 -1.611141,2.00812 -3.634661,0.723418 -0.72738,-0.461799 -1.61657,-0.91882 -1.97599,-1.015602 -1.14735,-0.308949 -2.1378,-1.403939 -2.1378,-2.363448 0,-0.310802 0.0848,-0.416289 0.33466,-0.416289 0.18406,0 0.55142,-0.112095 0.81636,-0.249101 0.83578,-0.4322 0.53301,-1.710167 -0.40517,-1.710167 -0.49408,0 -1.47997,0.667276 -2.33513,1.580467 l -0.69128,0.738196 -1.0639,-0.584789 c -0.58514,-0.321634 -1.06389,-0.523891 -1.06389,-0.44946 0,0.270825 1.9351,1.97185 3.13223,2.75334 0.67532,0.44086 1.7714,1.041366 2.43572,1.33446 l 1.20785,0.532899 0.65241,1.659888 c 0.35882,0.912938 0.64038,1.73336 0.6257,1.82316 -0.0147,0.0898 -0.40587,0.999476 -0.86931,2.021504 -0.46343,1.022026 -0.96633,2.345409 -1.11754,2.940848 -0.15121,0.595439 -0.44916,1.3273 -0.66211,1.626358 -0.2156,0.302778 -0.48162,1.03936 -0.60028,1.662116 -0.1172,0.615106 -0.33624,1.306321 -0.48675,1.536034 l -0.27367,0.417662 1.28414,3.4e-4 c 2.16115,5.71e-4 10.262271,0.463976 18.672641,1.068124 4.39391,0.315629 4.24509,0.284291 4.24509,0.893915 v 0.486706 H 65.805939 c -28.14693,0 -51.21377,-0.06072 -51.25964,-0.134937 z m 23.98353,-2.312378 c 2.245,-0.0879 6.80029,-0.242649 10.12289,-0.343877 3.32259,-0.101226 6.07185,-0.212767 6.10946,-0.247868 0.0376,-0.0351 -0.2266,-0.189795 -0.58713,-0.343764 l -0.65552,-0.279945 0.48157,-1.029096 c 0.78196,-1.671006 0.36973,-2.335974 -1.8836,-3.038462 -1.93643,-0.60369 -2.91993,-0.744988 -6.47656,-0.930477 -1.74627,-0.09107 -3.20366,-0.194198 -3.23863,-0.229167 -0.035,-0.03497 0.0256,-0.616517 0.13464,-1.292327 0.10903,-0.675812 0.16453,-1.870826 0.12333,-2.655589 -0.0743,-1.416494 -0.0794,-1.430767 -0.70124,-1.968281 -0.72703,-0.628469 -0.9318,-0.597511 -0.4117,0.06224 0.26048,0.330439 0.29969,0.466869 0.14106,0.490963 -0.12081,0.01835 -1.32175,0.110501 -2.66875,0.204778 -4.49128,0.314345 -6.34756,1.174544 -7.41364,3.435485 -0.38516,0.816802 -0.42249,1.075725 -0.41301,2.863609 0.01,1.866866 0.0365,2.019255 0.53063,3.033441 0.28611,0.587307 0.52122,1.245705 0.52244,1.463108 8.3e-4,0.217403 0.0468,0.561729 0.10135,0.765169 0.0927,0.345925 0.16394,0.364384 1.09985,0.284889 0.55041,-0.04675 2.83757,-0.156925 5.08256,-0.244829 z m 53.39006,-0.460497 c -0.26939,-0.163824 -0.8655,-0.501202 -1.32467,-0.749729 l -0.83486,-0.451867 -0.1028,-1.088288 c -0.13702,-1.450609 -0.12798,-2.843737 0.0198,-3.058815 0.066,-0.09599 0.47164,-0.342635 0.90148,-0.548094 0.45049,-0.215332 0.9486,-0.619442 1.17597,-0.954055 l 0.39446,-0.580491 -0.34646,-0.504139 c -1.54213,-2.243984 -2.59468,-3.063183 -4.49177,-3.495957 -0.78774,-0.179703 -1.93506,-0.376472 -2.5496,-0.437264 -1.40852,-0.139335 -2.92022,-0.556303 -4.6859,-1.292506 -1.56515,-0.652586 -1.39089,-0.468249 0.79889,0.845123 l 1.52653,0.915576 -0.87344,0.454751 c -1.01946,0.530769 -3.72646,1.444869 -4.27882,1.444869 -0.20951,0 -0.49358,0.128576 -0.63128,0.285727 -0.5204,0.593909 -1.77469,2.946703 -1.86387,3.496228 -0.13959,0.860224 0.42883,1.815826 1.97507,3.320392 0.7383,0.718399 1.45738,1.526596 1.59797,1.795996 l 0.25561,0.489817 4.38302,0.171053 c 2.41066,0.09408 5.52184,0.186461 6.91374,0.205294 2.51298,0.034 2.52729,0.03215 2.0409,-0.263621 z m -25.34803,-0.192565 c 6.16577,-0.0018 6.91519,-0.07298 5.67929,-0.539489 -0.34467,-0.130097 -0.51389,-0.326019 -0.58709,-0.679725 -0.20921,-1.010855 -1.25878,-2.924244 -2.0236,-3.689065 l -0.77107,-0.77107 0.80987,-1.365487 c 0.44543,-0.751018 0.94791,-1.677746 1.11664,-2.059394 0.77021,-1.742196 0.94474,-2.163359 0.89651,-2.163359 -0.0285,0 -0.40618,0.451126 -0.83937,1.002504 l -0.78761,1.002504 -1.891,-0.10687 c -2.14794,-0.121389 -5.33227,-0.569616 -8.33262,-1.172899 -1.8975,-0.381532 -7.9105,-1.871235 -8.51708,-2.11008 -0.20712,-0.08156 -0.32595,0.06826 -0.53063,0.668961 -0.14506,0.425727 -0.26375,0.898783 -0.26375,1.051233 0,0.186346 0.89625,0.79882 2.73481,1.868906 1.50415,0.875447 3.21989,1.904677 3.81276,2.287176 1.23254,0.795199 1.30219,0.953549 1.61503,3.672182 0.0982,0.853099 0.25574,1.945301 0.35015,2.427116 l 0.17166,0.87603 0.59679,-0.09869 c 0.32823,-0.05428 3.37037,-0.0995 6.76031,-0.100484 z m 46.689811,-24.393222 c 0.67917,-0.293542 1.68643,-1.123986 1.94159,-1.600744 0.13666,-0.255359 0.039,-0.228447 -0.52606,0.144845 -0.88518,0.584852 -1.94276,0.579961 -3.89029,-0.01799 -0.75832,-0.232827 -1.42795,-0.367814 -1.48807,-0.299972 -0.11115,0.125423 -0.48026,1.522296 -0.48026,1.817528 0,0.412587 3.46629,0.378523 4.44309,-0.04367 z m -7.98576,-4.332222 c 0.36376,-0.138301 0.40349,-0.258315 0.47288,-1.428634 0.16579,-2.796177 1.02783,-3.206761 5.1107,-2.434195 1.66075,0.314251 3.68073,0.32818 4.39366,0.0303 0.76393,-0.319189 0.87608,-0.594917 0.13428,-0.330147 -0.94502,0.337309 -1.452,0.280844 -3.79974,-0.423192 -3.16982,-0.950562 -4.51259,-1.189363 -6.25767,-1.112882 -1.71809,0.07529 -2.69228,0.490191 -3.31225,1.410633 -0.47669,0.707715 -0.76011,2.113968 -0.61758,3.064346 0.10314,0.687869 0.17454,0.784319 0.7862,1.062079 0.73064,0.33179 2.41084,0.419724 3.08952,0.161692 z m -2.22232,-0.368544 c -0.44813,-0.16337 -0.45623,-0.188346 -0.3528,-1.089198 0.1745,-1.519947 0.4051,-2.181031 0.95133,-2.727266 0.82514,-0.825132 2.82606,-1.119431 4.70943,-0.692669 l 0.86522,0.196054 -1.29587,0.136344 c -2.58607,0.27209 -3.25533,0.908321 -3.26557,3.104358 l -0.006,1.265361 -0.5736,-0.0129 c -0.31548,-0.0071 -0.77999,-0.08813 -1.03224,-0.180094 z"
           id="path1"
           sodipodi:nodetypes="ssssssssssscsssssssssssssscsssssssssssssssssscsssssssssssssssssssssssssscssssssscsssscssssssscssscssssscscssssssssssscssssssscsssscssssscsssssscssssssscsssscssssssssscsssscsssssssssssssssscssscsccscc" /><path
           style="fill:#ffc72a;fill-opacity:1;stroke:#ffffff;stroke-width:1.717;stroke-dasharray:none"
           d="m 14.536599,-40.238917 c -0.21372,-0.34581 0.11848,-0.839287 0.61275,-0.910242 0.77486,-0.111232 4.67759,-0.392823 8.46591,-0.610833 1.85991,-0.107034 3.45791,-0.241744 3.55113,-0.299356 0.24801,-0.153281 0.25744,-1.415661 0.0128,-1.710465 -0.11535,-0.138986 -0.3936,-0.252703 -0.61832,-0.252703 -0.37461,0 -0.39949,-0.04414 -0.29905,-0.530635 0.59491,-2.881365 0.0834,-5.803864 -1.30455,-7.453331 -0.24065,-0.285992 -0.41003,-0.540585 -0.37641,-0.565759 0.0336,-0.02518 0.41587,-0.177284 0.84943,-0.338023 2.915,-1.0807 4.98826,-3.890098 5.75659,-7.800535 l 0.27435,-1.396278 1.34869,-0.07079 c 0.92586,-0.0486 1.48884,-0.162612 1.79569,-0.363666 0.42811,-0.280512 0.44264,-0.334394 0.3442,-1.276292 -0.0944,-0.903036 -0.0482,-1.111766 0.56464,-2.553754 0.36709,-0.863686 1.06497,-2.364477 1.55084,-3.33509 0.48588,-0.970613 0.88341,-1.788266 0.88341,-1.817006 0,-0.02874 -0.23879,-0.145654 -0.53064,-0.259808 -2.84644,-1.113366 -4.62505,-2.107469 -5.74363,-3.210252 -1.03676,-1.02212 -1.29979,-1.573329 -1.30965,-2.744525 -0.016,-1.89718 1.5349,-4.070869 3.5418,-4.964165 1.84934,-0.823159 2.34894,-0.918722 8.61374,-1.647588 2.07624,-0.241561 3.05583,-0.546385 4.09988,-1.275783 1.20402,-0.841171 1.86444,-2.115997 1.84774,-3.566806 -0.0178,-1.550445 -0.20787,-1.693444 -2.2075,-1.661244 -1.41035,0.02271 -1.69181,-0.02191 -2.38391,-0.378086 -1.50977,-0.776932 -1.91829,-2.030426 -1.01777,-3.122907 0.60248,-0.730922 0.80447,-0.765775 0.80447,-0.138828 0,0.818863 0.34251,0.938425 1.71163,0.597494 1.4206,-0.353755 2.1809,-0.270817 2.95919,0.32282 0.63703,0.48588 1.2763,1.654122 1.42333,2.601032 0.13084,0.842775 -0.12708,2.615422 -0.54185,3.724004 -0.45962,1.228452 -1.26144,2.094134 -2.58273,2.788456 -1.25965,0.66193 -2.23546,0.920276 -5.33702,1.413007 -2.37313,0.377009 -4.03009,0.789604 -5.69107,1.417125 -1.99566,0.753961 -3.57202,2.766299 -3.30055,4.213379 0.21642,1.153646 1.69606,2.157363 4.82728,3.274615 1.65157,0.589294 1.76955,0.607906 3.26545,0.515119 3.00989,-0.186695 9.4793,-1.26176 12.49122,-2.075752 4.46987,-1.208009 7.34575,-2.396091 15.59252,-6.441555 3.72669,-1.828133 7.29552,-3.475906 7.93074,-3.661712 0.63522,-0.185806 1.89543,-0.424714 2.80048,-0.530897 1.90028,-0.222956 4.0899,-0.02653 6.00419,0.538629 2.61299,0.771428 8.52051,3.629478 13.41669,6.490976 l 1.17126,0.684525 0.869641,-0.659314 c 0.47831,-0.362623 0.91891,-0.659631 0.97911,-0.660017 0.0602,-3.87e-4 0.16071,0.47789 0.22335,1.062837 0.0626,0.584948 0.17072,1.098657 0.24016,1.141575 0.0694,0.04292 0.48231,-0.07946 0.91748,-0.271956 1.79166,-0.792536 4.80101,-0.528775 8.7957,0.77092 0.9878,0.321385 2.16487,0.597537 2.6157,0.613671 0.92441,0.03308 1.31242,-0.197386 2.27792,-1.35302 0.47885,-0.573146 0.57601,-0.631069 0.57601,-0.343375 0,0.67246 -0.65745,2.204502 -1.17532,2.738802 -0.2885,0.297663 -0.78497,0.613551 -1.10324,0.701972 -0.92169,0.256053 -2.7829,0.189206 -4.52227,-0.162422 -2.91484,-0.589257 -3.70641,-0.408074 -3.90153,0.893019 -0.10703,0.713764 -0.0911,0.746708 0.92919,1.915934 1.6535,1.894932 1.78086,1.993109 3.18986,2.458789 1.98844,0.657188 2.99147,0.735979 3.71068,0.291487 0.31954,-0.19749 0.73424,-0.574309 0.92157,-0.837378 0.47336,-0.664779 0.63687,-0.597097 0.45993,0.190387 -0.36104,1.606873 -0.97461,2.382883 -2.4274,3.070019 -0.82164,0.388619 -1.0669,0.423464 -2.88436,0.409815 -1.92295,-0.01444 -1.99289,-0.0027 -2.19095,0.367363 -0.11252,0.210254 -0.25129,0.382281 -0.30836,0.382281 -0.0571,0 -0.36669,0.240817 -0.68803,0.535149 -0.4566,0.418224 -0.62687,0.740485 -0.77935,1.474936 -0.23202,1.117611 -0.58382,1.492017 -1.64005,1.745402 -0.42979,0.103107 -0.92606,0.347286 -1.10281,0.542621 -0.54404,0.601253 -2.24422,3.22954 -2.90342,4.488345 -0.986481,1.883792 -1.611141,2.00812 -3.634661,0.723418 -0.72738,-0.461799 -1.61657,-0.91882 -1.97599,-1.015602 -1.14735,-0.308949 -2.1378,-1.403939 -2.1378,-2.363448 0,-0.310802 0.0848,-0.416289 0.33466,-0.416289 0.18406,0 0.55142,-0.112095 0.81636,-0.249101 0.83578,-0.4322 0.53301,-1.710167 -0.40517,-1.710167 -0.49408,0 -1.47997,0.667276 -2.33513,1.580467 l -0.69128,0.738196 -1.0639,-0.584789 c -0.58514,-0.321634 -1.06389,-0.523891 -1.06389,-0.44946 0,0.270825 1.9351,1.97185 3.13223,2.75334 0.67532,0.44086 1.7714,1.041366 2.43572,1.33446 l 1.20785,0.532899 0.65241,1.659888 c 0.35882,0.912938 0.64038,1.73336 0.6257,1.82316 -0.0147,0.0898 -0.40587,0.999476 -0.86931,2.021504 -0.46343,1.022026 -0.96633,2.345409 -1.11754,2.940848 -0.15121,0.595439 -0.44916,1.3273 -0.66211,1.626358 -0.2156,0.302778 -0.48162,1.03936 -0.60028,1.662116 -0.1172,0.615106 -0.33624,1.306321 -0.48675,1.536034 l -0.27367,0.417662 1.28414,3.4e-4 c 2.16115,5.71e-4 10.262271,0.463976 18.672641,1.068124 4.39391,0.315629 4.24509,0.284291 4.24509,0.893915 v 0.486706 H 65.796269 c -28.14693,0 -51.21377,-0.06072 -51.25964,-0.134937 z m 23.98353,-2.312378 c 2.245,-0.0879 6.80029,-0.242649 10.12289,-0.343877 3.32259,-0.101226 6.07185,-0.212767 6.10946,-0.247868 0.0376,-0.0351 -0.2266,-0.189795 -0.58713,-0.343764 l -0.65552,-0.279945 0.48157,-1.029096 c 0.78196,-1.671006 0.36973,-2.335974 -1.8836,-3.038462 -1.93643,-0.60369 -2.91993,-0.744988 -6.47656,-0.930477 -1.74627,-0.09107 -3.20366,-0.194198 -3.23863,-0.229167 -0.035,-0.03497 0.0256,-0.616517 0.13464,-1.292327 0.10903,-0.675812 0.16453,-1.870826 0.12333,-2.655589 -0.0743,-1.416494 -0.0794,-1.430767 -0.70124,-1.968281 -0.72703,-0.628469 -0.9318,-0.597511 -0.4117,0.06224 0.26048,0.330439 0.29969,0.466869 0.14106,0.490963 -0.12081,0.01835 -1.32175,0.110501 -2.66875,0.204778 -4.49128,0.314345 -6.34756,1.174544 -7.41364,3.435485 -0.38516,0.816802 -0.42249,1.075725 -0.41301,2.863609 0.01,1.866866 0.0365,2.019255 0.53063,3.033441 0.28611,0.587307 0.52122,1.245705 0.52244,1.463108 8.3e-4,0.217403 0.0468,0.561729 0.10135,0.765169 0.0927,0.345925 0.16394,0.364384 1.09985,0.284889 0.55041,-0.04675 2.83757,-0.156925 5.08256,-0.244829 z m 53.39006,-0.460497 c -0.26939,-0.163824 -0.8655,-0.501202 -1.32467,-0.749729 l -0.83486,-0.451867 -0.1028,-1.088288 c -0.13702,-1.450609 -0.12798,-2.843737 0.0198,-3.058815 0.066,-0.09599 0.47164,-0.342635 0.90148,-0.548094 0.45049,-0.215332 0.9486,-0.619442 1.17597,-0.954055 l 0.39446,-0.580491 -0.34646,-0.504139 c -1.54213,-2.243984 -2.59468,-3.063183 -4.49177,-3.495957 -0.78774,-0.179703 -1.93506,-0.376472 -2.5496,-0.437264 -1.40852,-0.139335 -2.92022,-0.556303 -4.6859,-1.292506 -1.56515,-0.652586 -1.39089,-0.468249 0.79889,0.845123 l 1.52653,0.915576 -0.87344,0.454751 c -1.01946,0.530769 -3.72646,1.444869 -4.27882,1.444869 -0.20951,0 -0.49358,0.128576 -0.63128,0.285727 -0.5204,0.593909 -1.77469,2.946703 -1.86387,3.496228 -0.13959,0.860224 0.42883,1.815826 1.97507,3.320392 0.7383,0.718399 1.45738,1.526596 1.59797,1.795996 l 0.25561,0.489817 4.38302,0.171053 c 2.41066,0.09408 5.52184,0.186461 6.91374,0.205294 2.51298,0.034 2.52729,0.03215 2.0409,-0.263621 z m -25.34803,-0.192565 c 6.16577,-0.0018 6.91519,-0.07298 5.67929,-0.539489 -0.34467,-0.130097 -0.51389,-0.326019 -0.58709,-0.679725 -0.20921,-1.010855 -1.25878,-2.924244 -2.0236,-3.689065 l -0.77107,-0.77107 0.80987,-1.365487 c 0.44543,-0.751018 0.94791,-1.677746 1.11664,-2.059394 0.77021,-1.742196 0.94474,-2.163359 0.89651,-2.163359 -0.0285,0 -0.40618,0.451126 -0.83937,1.002504 l -0.78761,1.002504 -1.891,-0.10687 c -2.14794,-0.121389 -5.33227,-0.569616 -8.33262,-1.172899 -1.8975,-0.381532 -7.9105,-1.871235 -8.51708,-2.11008 -0.20712,-0.08156 -0.32595,0.06826 -0.53063,0.668961 -0.14506,0.425727 -0.26375,0.898783 -0.26375,1.051233 0,0.186346 0.89625,0.79882 2.73481,1.868906 1.50415,0.875447 3.21989,1.904677 3.81276,2.287176 1.23254,0.795199 1.30219,0.953549 1.61503,3.672182 0.0982,0.853099 0.25574,1.945301 0.35015,2.427116 l 0.17166,0.87603 0.59679,-0.09869 c 0.32823,-0.05428 3.37037,-0.0995 6.76031,-0.100484 z m 46.689811,-24.393222 c 0.67917,-0.293542 1.68643,-1.123986 1.94159,-1.600744 0.13666,-0.255359 0.039,-0.228447 -0.52606,0.144845 -0.88518,0.584852 -2.09928,1.331251 -4.04681,0.7333 -0.75832,-0.232827 -1.27143,-1.119104 -1.33155,-1.051262 -0.11115,0.125423 -0.48026,1.522296 -0.48026,1.817528 0,0.412587 3.46629,0.378523 4.44309,-0.04367 z m -7.98576,-4.332222 c 0.36376,-0.138301 0.40349,-0.258315 0.47288,-1.428634 0.16579,-2.796177 1.02783,-3.206761 5.1107,-2.434195 1.66075,0.314251 3.68073,0.32818 4.39366,0.0303 0.76393,-0.319189 0.87608,-0.594917 0.13428,-0.330147 -0.94502,0.337309 -1.452,0.280844 -3.79974,-0.423192 -3.16982,-0.950562 -4.51259,-1.189363 -6.25767,-1.112882 -1.71809,0.07529 -2.69228,0.490191 -3.31225,1.410633 -0.47669,0.707715 -0.76011,2.113968 -0.61758,3.064346 0.10314,0.687869 0.17454,0.784319 0.7862,1.062079 0.73064,0.33179 2.41084,0.419724 3.08952,0.161692 z m -2.22232,-0.368544 c -0.44813,-0.16337 -0.45623,-0.188346 -0.3528,-1.089198 0.1745,-1.519947 0.4051,-2.181031 0.95133,-2.727266 0.82514,-0.825132 2.82606,-1.119431 4.70943,-0.692669 l 0.86522,0.196054 -1.29587,0.136344 c -2.58607,0.27209 -3.25533,0.908321 -3.26557,3.104358 l -0.006,1.265361 -0.5736,-0.0129 c -0.31548,-0.0071 -0.77999,-0.08813 -1.03224,-0.180094 z"
           id="path1-6"
           sodipodi:nodetypes="ssssssssssscsssssssssssssscsssssssssssssssssscsssssssssssssssssssssssssscssssssscsssscssssssscssscssssscscssssssssssscssssssscsssscssssscsssssscssssssscsssscssssssssscsssscsssssscssssssssscssscsccsccs" /><path
           style="fill:#0e82ce;fill-opacity:1;stroke-width:0.617093"
           d="m 14.610589,-40.360733 c 0,-0.514592 0.2285,-0.666444 1.00284,-0.666444 0.73518,0 0.79055,0.02634 0.64137,0.305078 -0.0898,0.167793 -0.11688,0.351473 -0.0602,0.408181 0.0567,0.0567 -0.2765,0.103103 -0.74046,0.103103 -0.46397,0 -0.84358,-0.06746 -0.84358,-0.149918 z m 2.71317,-0.352797 0.50272,-0.502716 4.69745,-0.300404 c 2.5836,-0.165223 4.76663,-0.369586 4.85119,-0.454141 0.0846,-0.08455 0.13093,-0.51298 0.10304,-0.952057 -0.0458,-0.722053 -0.10158,-0.82172 -0.58337,-1.043231 l -0.53269,-0.244909 0.12451,-0.897997 c 0.15985,-1.153005 0.45867,-3.913579 -0.84348,-6.081895 -0.16702,-0.29185 -0.45102,-0.694031 -0.63112,-0.893738 -0.31886,-0.353569 -0.3193,-0.365765 -0.0173,-0.464555 1.14721,-0.375222 2.54529,-1.237566 3.41773,-2.108066 1.47974,-1.476458 2.44318,-3.551 3.02035,-6.503605 l 0.18554,-0.949165 0.76182,0.04183 c 1.49854,0.08227 1.98514,-0.0051 2.41323,-0.433155 0.37143,-0.371432 0.40151,-0.496259 0.30522,-1.266919 -0.12465,-0.997704 0.23071,-2.016479 1.96218,-5.6253 0.57031,-1.18864 0.98506,-2.193213 0.92168,-2.232384 -0.0634,-0.03918 -0.68684,-0.298286 -1.38547,-0.575811 -2.36712,-0.940318 -3.60558,-1.667633 -4.82631,-2.834369 -1.78247,-1.703621 -1.7433,-3.597845 0.12296,-5.947384 1.17464,-1.478813 3.58616,-2.415178 7.20777,-2.79869 0.8531,-0.09034 1.6613,-0.165903 1.796,-0.16792 0.55929,-0.0084 2.75093,-0.333317 3.47098,-0.514627 0.61064,-0.153761 0.8271,-0.152151 1.01957,0.0076 0.34896,0.289613 0.30181,0.542461 -0.0824,0.441982 -0.17972,-0.04699 -0.29084,-0.02733 -0.24694,0.04373 0.10933,0.176883 -0.84966,0.399128 -3.88996,0.901501 -5.1907,0.857702 -7.10487,1.679694 -8.37852,3.597949 -1.05105,1.583011 -0.75535,2.849204 0.92331,3.953534 0.4939,0.324919 0.93474,0.632339 0.97963,0.683155 0.0449,0.05082 0.19185,0.115743 0.32655,0.14428 0.1347,0.02853 0.9429,0.322427 1.796,0.65309 1.44358,0.559536 1.66425,0.59962 3.18381,0.578351 1.65093,-0.02311 6.31691,-0.64168 8.93652,-1.18472 l 5.07329,-1.181781 0.95462,0.944657 c 0.52504,0.519562 0.95462,0.996849 0.95462,1.060637 0,0.06379 -0.42247,0.233492 -0.93881,0.377116 -0.51635,0.143624 -1.41639,0.407547 -2.00009,0.586495 -1.35538,0.415527 -5.2219,1.210506 -7.02071,1.443502 -3.04319,0.394175 -4.17334,0.507668 -5.05529,0.507668 h -0.92155 l -0.56276,1.336876 c -0.91114,2.164506 -1.14603,2.780384 -1.3894,3.642932 -2.70915,1.447507 3.83292,10.64364 1.15319,9.142362 -0.63157,-0.267623 0.42451,-3.021794 1.14291,-2.49416 1.62084,1.190438 3.25653,2.790809 3.60678,3.528889 0.14566,0.306969 0.37128,1.155077 0.50137,1.884684 0.48478,2.71884 0.58711,3.065424 0.94224,3.19118 0.18568,0.06575 0.92538,0.133679 1.64378,0.150947 2.80568,0.06744 4.85286,0.50319 6.59397,1.403552 0.2796,0.144591 0.50838,0.191609 0.50838,0.104486 0,-0.365603 -1.72673,-1.626557 -3.3737,-2.463662 -1.59558,-0.810983 -1.80511,-0.970016 -2.13305,-1.619009 -0.40714,-0.805708 -0.40143,-0.862033 0.30615,-3.018985 0.8523,-2.598089 2.03673,-4.999438 4.00595,-8.1218 0.89523,-1.419462 1.01279,-1.515913 2.34295,-1.922349 0.55674,-0.170115 4.09868,-0.514945 4.21535,-0.410391 0.0315,0.02825 -0.13152,0.298921 -0.36231,0.601502 -0.76594,1.004204 -1.11832,2.260847 -0.48705,1.736946 0.23728,-0.196931 0.3755,-0.180235 2.67359,0.322949 2.77657,0.607949 5.07047,0.857608 8.78625,0.956266 l 3.64708,0.09683 0.39392,-0.458428 c 0.21665,-0.252135 0.39391,-0.512577 0.39391,-0.57876 0,-0.255677 1.93087,-2.010908 2.98791,-2.716111 0.89571,-0.597575 2.89913,-1.684391 3.10498,-1.684391 0.0256,0 -0.26944,0.642884 -0.65574,1.428633 -0.87948,1.788913 -1.23364,3.184155 -1.23299,4.857352 5e-4,1.256706 -0.0206,1.329619 -0.55628,1.925063 -0.78437,0.871822 -0.4189,1.311535 0.49355,0.593808 0.23661,-0.186117 0.4302,-0.269624 0.4302,-0.185569 0,0.182573 1.64059,0.937928 2.73247,1.258071 0.42783,0.125444 1.58608,0.382601 2.57388,0.571461 2.98609,0.570918 5.08963,1.388212 6.53089,2.53747 1.19357,0.951745 2.70026,2.625003 2.89808,3.218473 0.0949,0.284685 0.9658,-0.09643 1.32754,-0.580939 l 0.32695,-0.437914 -0.33625,-0.454799 c -0.18493,-0.250139 -0.49407,-0.764154 -0.68696,-1.142254 -0.24853,-0.487162 -0.57592,-0.807228 -1.12367,-1.098536 -2.19213,-1.165823 -4.19792,-2.985658 -5.3577,-4.860987 l -0.58286,-0.942466 0.26694,-1.173645 c 0.28182,-1.239053 1.01556,-3.536877 1.46524,-4.588599 0.24302,-0.568387 0.24493,-0.704614 0.0206,-1.469451 0,0 -2.04476,-3.16597 -2.04832,-3.211399 -0.004,-0.04543 0.2323,-0.181406 0.52415,-0.302173 0.29185,-0.120766 0.77358,-0.327804 1.07051,-0.460083 0.97721,-0.435331 2.71879,-1.032778 3.01059,-1.032778 0.15754,0 0.26807,0.08748 0.24562,0.194393 -0.0795,0.378668 0.49433,0.304892 1.01117,-0.130002 0.33844,-0.284777 0.88112,-0.509578 1.53204,-0.634631 0.95112,-0.182724 0.98353,-0.203765 0.57482,-0.373085 -0.56602,-0.234489 -0.68081,-0.442419 -0.38142,-0.690891 0.13371,-0.11097 0.24311,-0.302976 0.24311,-0.42668 0,-0.331077 -0.6618,-0.273583 -1.05075,0.09128 -0.33127,0.31076 -0.35589,0.310977 -1.43113,0.01257 -0.645,-0.179009 -1.80061,-0.325549 -2.81543,-0.357019 -0.94674,-0.02936 -1.72182,-0.102177 -1.72238,-0.161816 -0.002,-0.270502 2.75339,-1.437491 3.64089,-1.54171 0.52136,-0.06122 0.88715,-0.172085 0.81288,-0.246361 -0.8237,-0.823696 -6.57923,-3.726384 -8.41412,-4.243493 -1.6721,-0.471235 -4.42723,-0.520491 -5.83702,-0.104352 -0.4939,0.145787 -1.4123,0.416222 -2.0409,0.600967 -1.51597,0.44554 -3.14069,1.014826 -5.71453,2.00231 -2.64358,1.014239 -2.24111,0.842563 -7.02071,2.994726 -3.83792,1.72814 -6.10046,2.687252 -6.33922,2.687252 -0.11105,0 -0.62663,-0.429208 -1.14575,-0.953797 l -0.94384,-0.953795 1.84695,-0.623279 c 2.50829,-0.846453 6.39675,-2.59068 11.63797,-5.220378 2.4092,-1.208778 4.44296,-2.159087 4.51948,-2.111799 0.0765,0.04729 0.13911,0.01979 0.13911,-0.0611 0,-0.216396 2.49305,-1.276527 4.00017,-1.701013 1.07919,-0.303956 1.71761,-0.368288 3.67363,-0.37018 1.41143,-0.0013 2.73008,0.08499 3.26545,0.21385 1.56362,0.376346 10.44523,4.407745 12.78762,5.735672 l 2.37909,1.419286 0.69811,0.416303 0.435301,-0.404467 c 0.23942,-0.222457 0.63433,-0.530658 0.87758,-0.684888 0.50287,-0.318836 0.49547,-0.332104 0.70172,1.2586 0.0968,0.746999 0.31237,0.953435 0.66016,0.632341 0.0853,-0.07876 0.55204,-0.272067 1.03718,-0.429568 0.71746,-0.232927 1.23542,-0.269479 2.77562,-0.195871 1.89852,0.09073 3.05591,0.343177 6.13865,1.338941 2.20026,0.710714 2.81913,0.60683 4.08058,-0.684967 l 0.60551,-0.620058 -0.10562,0.489817 c -0.058,0.2694 -0.28877,0.870388 -0.51262,1.33553 -0.77711,1.61469 -2.37412,1.918679 -6.29839,1.198888 -2.94459,-0.540095 -3.5299,-0.357653 -3.80048,1.184628 -0.10231,0.583187 -0.052,0.68126 0.9205,1.795996 0.56579,0.648519 1.22418,1.375517 1.46307,1.615553 0.2389,0.240035 0.38584,0.4906 0.32654,0.556811 -0.0593,0.06621 -0.0297,0.07601 0.0658,0.02177 0.0955,-0.05424 0.64996,0.07429 1.23215,0.285619 0.58221,0.211326 1.51506,0.474043 2.07302,0.583814 0.88356,0.173832 1.10904,0.16346 1.74756,-0.08039 0.4032,-0.153985 0.73346,-0.329001 0.73391,-0.388924 4.5e-4,-0.05992 0.1734,-0.324658 0.38436,-0.5883 l 0.38355,-0.47935 -0.0764,0.520167 c -0.042,0.286093 -0.14638,0.520168 -0.23198,0.520168 -0.0856,0 -0.41098,0.194765 -0.72307,0.43281 -0.83076,0.633648 -1.82807,0.68081 -3.60105,0.17029 -0.79344,-0.228466 -1.55658,-0.459879 -1.69587,-0.514249 -0.20038,-0.07823 -0.30847,0.131999 -0.5179,1.007347 -0.14558,0.608412 -0.2434,1.127486 -0.21739,1.153499 0.026,0.02602 0.51623,0.12333 1.08937,0.216259 1.84187,0.298641 3.60122,-0.141023 4.80523,-1.200832 0.75114,-0.661182 0.76269,-0.66517 0.50969,-0.175908 -0.34493,0.667028 -1.62465,1.466377 -2.72556,1.702483 -0.54475,0.116828 -1.47395,0.153009 -2.38785,0.09298 -1.25392,-0.08237 -1.5116,-0.05782 -1.59196,0.151598 -0.0528,0.137429 -0.16903,0.204662 -0.25844,0.149406 -0.0914,-0.05649 -0.12278,0.0032 -0.0717,0.136409 0.15054,0.392317 -0.26815,0.495505 -0.61266,0.150991 -0.32024,-0.320236 -0.31979,-0.324794 0.091,-0.930065 0.45412,-0.66918 1.08299,-2.231801 1.07518,-2.671594 -0.004,-0.23813 -0.0329,-0.231167 -0.19351,0.04695 -0.1037,0.1796 -0.28514,0.423634 -0.40322,0.542297 -0.11806,0.118665 -0.21771,0.26561 -0.22146,0.326545 -0.003,0.06094 -0.26353,0.401614 -0.57732,0.757061 l -0.57054,0.64627 0.26345,-0.630509 c 0.14489,-0.346782 0.3696,-1.185333 0.49934,-1.863449 l 0.23591,-1.232939 -0.39929,-0.399284 c -0.38489,-0.384908 -0.41883,-0.390021 -0.94246,-0.14202 -1.69929,0.804829 -3.45079,0.778003 -4.77177,-0.07308 -1.44532,-0.931203 -3.134081,-0.679022 -4.121421,0.615452 -0.56699,0.743366 -0.70943,2.132233 -0.33222,3.239304 0.13963,0.409792 0.22494,0.745077 0.18957,0.745077 -0.15299,0 -0.91453,-0.869364 -1.13501,-1.295726 -0.13253,-0.256295 -0.29197,-0.784927 -0.3543,-1.174735 l -0.11334,-0.708744 -0.20546,0.569151 c -0.48969,1.356505 -0.13631,2.813724 0.94969,3.916233 l 0.5629,0.571453 -0.22957,1.020158 c -0.20181,0.896751 -0.28254,1.03106 -0.66736,1.110283 -0.24078,0.04957 -0.6582,0.15241 -0.9276,0.228535 l -0.48982,0.13841 0.52493,0.01667 c 0.28872,0.0092 0.85732,0.129515 1.26356,0.267439 0.50535,0.171569 0.99633,0.216586 1.55455,0.142535 1.01148,-0.134176 1.64443,0.106578 2.201981,0.837565 0.52096,0.683005 0.51884,0.760012 -0.0153,0.556926 -0.604771,-0.229933 -0.935261,-0.07843 -1.450391,0.664905 -0.55161,0.795975 -0.37263,1.13929 0.59395,1.13929 0.690151,0 0.757571,0.09958 0.39338,0.581065 -0.13184,0.174313 -0.24205,0.482246 -0.24491,0.684296 -0.004,0.24907 -0.10419,0.367363 -0.31264,0.367363 -0.28892,0 -0.29345,-0.0406 -0.0753,-0.673927 0.25478,-0.739485 0.21493,-0.924384 -0.12913,-0.599209 -0.43027,0.406651 -0.85615,0.700222 -0.74372,0.51267 0.0623,-0.103956 0.0504,-0.359126 -0.0265,-0.567043 -0.12988,-0.35107 -0.16484,-0.321551 -0.49014,0.413857 -0.19266,0.435538 -0.35029,0.837653 -0.35028,0.893588 0,0.05593 0.27253,0.319152 0.60562,0.584926 0.45956,0.366682 0.7909,0.489104 1.37385,0.507601 0.62677,0.01989 0.750661,-0.02141 0.672801,-0.224283 -0.0619,-0.161444 -0.0291,-0.207657 0.0937,-0.131759 0.1184,0.07317 0.15689,0.03283 0.10291,-0.107844 -0.20024,-0.521821 1.63479,-3.897777 2.65333,-4.881407 0.36345,-0.350993 0.97717,-0.714383 1.4816,-0.877265 0.97347,-0.314341 1.44786,-0.811662 1.60548,-1.68309 0.0592,-0.327639 0.21475,-0.806891 0.34552,-1.065005 0.20728,-0.409091 0.26803,-0.439046 0.47358,-0.233501 0.20555,0.205546 0.20412,0.296832 -0.011,0.711572 -0.13576,0.261678 -0.32801,0.86677 -0.42722,1.344648 -0.19457,0.937289 -0.22117,0.958747 -1.94946,1.573067 -0.67173,0.238769 -0.84198,0.425468 -1.98574,2.177691 -0.68806,1.054093 -1.47354,2.365019 -1.74551,2.913169 -0.35896,0.723485 -0.63052,1.052984 -0.990811,1.20222 -0.7526,0.311739 -1.23465,0.119536 -3.31249,-1.320755 -0.24331,-0.168658 -0.5585,-0.306649 -0.70041,-0.306649 -0.74301,0 -2.35586,-1.255378 -2.11453,-1.645864 0.0795,-0.128591 0.0563,-0.158771 -0.0645,-0.08409 -0.12593,0.07784 -0.1885,-0.04069 -0.1885,-0.35711 0,-0.41076 0.0863,-0.499469 0.65043,-0.668481 1.01118,-0.302958 1.29409,-1.139701 0.60441,-1.787624 -0.20784,-0.195253 -0.52009,-0.35473 -0.69391,-0.354395 -0.46982,9.2e-4 -1.3189,0.570769 -2.20331,1.47876 -0.89312,0.916927 -0.99185,0.915285 -2.48645,-0.04137 -0.42997,-0.275207 -0.8225,-0.459633 -0.8723,-0.409834 -0.14572,0.145723 2.22825,2.458929 3.16361,3.082632 0.47105,0.314104 0.80168,0.631539 0.73472,0.705411 -0.067,0.07387 -0.0335,0.08371 0.0743,0.02186 0.1933,-0.1109 1.4126,0.437967 1.27613,0.574445 -0.0387,0.03868 0.0754,0.0813 0.2536,0.09472 0.64323,0.04846 1.67406,0.762842 1.8305,1.268577 0.0833,0.2694 0.37014,0.974918 0.63734,1.567819 l 0.48582,1.078001 -0.8115,1.779265 c -0.82056,1.799156 -1.50045,3.759913 -1.50045,4.327185 0,0.17014 -0.0751,0.309345 -0.16678,0.309345 -0.0917,0 -0.24941,0.181378 -0.35041,0.403062 -0.10101,0.221683 -0.25773,0.357277 -0.34828,0.301317 -0.0912,-0.05634 -0.11461,-0.02081 -0.0525,0.07962 0.12349,0.199802 -0.28776,2.15203 -0.56082,2.662231 -0.16482,0.307983 -0.2338,0.289153 -1.62198,-0.442776 l -1.44984,-0.764438 -0.10363,-0.99705 c -0.057,-0.548379 -0.0801,-1.505504 -0.0513,-2.126946 0.0507,-1.094136 0.0678,-1.13484 0.54214,-1.286195 0.73332,-0.234003 1.47722,-0.848306 1.71113,-1.413036 0.18885,-0.455902 0.16874,-0.55844 -0.21927,-1.118333 -0.23494,-0.339025 -0.79264,-1.026459 -1.23932,-1.527628 -0.44669,-0.501171 -0.75972,-0.975906 -0.69563,-1.054967 0.0641,-0.07906 0.0489,-0.08838 -0.0337,-0.02072 -0.0826,0.06767 -0.31625,0.01425 -0.51916,-0.118703 -0.58668,-0.384404 -2.56622,-0.873669 -4.31211,-1.065782 -1.61968,-0.178226 -3.84596,-0.835245 -5.77394,-1.704006 -0.52751,-0.237699 -0.99009,-0.401198 -1.02796,-0.36333 -0.0827,0.08267 1.76745,1.313908 3.12234,2.077884 l 0.97199,0.548075 -0.97199,0.438783 c -0.5346,0.241331 -1.0271,0.405237 -1.09445,0.364236 -0.0674,-0.041 -0.12246,-0.01016 -0.12246,0.06854 0,0.159887 -1.22823,0.562139 -2.65317,0.868926 -0.51635,0.111169 -0.93882,0.248543 -0.93882,0.305278 0,0.05674 -0.35929,0.672135 -0.79842,1.367558 -0.43913,0.695423 -0.8829,1.599925 -0.98616,2.010004 -0.16801,0.667228 -0.14877,0.825371 0.18307,1.504544 0.20395,0.41742 0.34771,0.832419 0.31947,0.922219 -0.0282,0.0898 -0.0126,0.12449 0.0348,0.07709 0.13843,-0.138428 2.80827,2.48588 3.09219,3.039462 l 0.2586,0.504195 4.28264,0.107089 4.28265,0.10709 1.25934,1.225529 1.25935,1.22553 h -15.15861 -15.15858 l 0.83284,-0.775544 c 0.45806,-0.426549 0.90121,-0.755354 0.98477,-0.730679 0.0836,0.02468 0.11148,-0.02061 0.062,-0.100634 -0.0495,-0.08003 0.0579,-0.279258 0.23853,-0.442743 0.18065,-0.163485 0.29143,-0.393722 0.24619,-0.511638 -0.067,-0.174493 0.98198,-0.214392 5.63639,-0.214392 h 5.71867 l -0.25276,-0.360864 c -0.13902,-0.198476 -0.4084,-0.44416 -0.59862,-0.545964 -0.1947,-0.104201 -0.47469,-0.550916 -0.64063,-1.022106 -0.50624,-1.437526 -1.02967,-2.345614 -1.82246,-3.161717 l -0.76523,-0.787737 0.66148,-1.101796 c 0.36382,-0.605987 0.8832,-1.335739 1.15419,-1.621669 0.31272,-0.329957 0.45562,-0.61654 0.39117,-0.784485 -0.0558,-0.145537 0.0857,-0.709387 0.31447,-1.253 0.2288,-0.543612 0.38216,-1.02223 0.34079,-1.063595 -0.0414,-0.04137 -0.49249,0.44777 -1.00249,1.086968 -0.92444,1.158615 -0.92937,1.161919 -1.60785,1.077953 -0.37431,-0.04633 -1.26835,-0.128386 -1.98675,-0.182359 -3.23903,-0.243347 -7.85873,-1.096051 -12.73524,-2.350672 -1.7062,-0.438968 -3.20433,-0.823094 -3.32918,-0.853615 -0.27061,-0.06615 -0.89181,1.546895 -0.75804,1.968367 0.0481,0.151611 1.02416,0.815949 2.16899,1.476308 1.14483,0.660359 2.83321,1.672895 3.75196,2.25008 1.88753,1.185791 1.87318,1.161559 2.17076,3.666832 0.0888,0.747392 0.24097,1.854836 0.33821,2.460985 l 0.17679,1.102088 h 1.03239 1.03239 l -1.06706,1.020452 c -0.58688,0.561248 -1.12484,1.004323 -1.19548,0.984608 -0.0706,-0.01972 -0.10852,0.1456 -0.0842,0.367363 l 0.0443,0.403207 h -5.62009 c -4.04802,0 -5.58901,-0.05027 -5.50901,-0.17972 0.062,-0.100381 -0.33465,-0.629442 -0.8986,-1.198456 l -1.00969,-1.018737 2.8267,-0.107224 c 1.55468,-0.05898 3.61652,-0.107447 4.58187,-0.107721 0.99058,-2.83e-4 1.75518,-0.06759 1.75518,-0.154515 0,-0.222174 -0.67517,-0.662346 -1.01596,-0.662346 -0.15962,0 -0.28973,-0.05511 -0.28914,-0.122454 0.002,-0.190821 0.58652,-1.031393 0.6643,-0.954766 0.15993,0.157555 0.15092,-1.719987 -0.01,-2.020089 -0.57887,-1.08163 -4.10174,-1.913004 -8.90094,-2.100566 l -2.77563,-0.108477 0.0805,-0.897998 c 0.12207,-1.361754 0.0984,-3.781041 -0.0419,-4.282271 -0.11022,-0.393804 -1.64984,-1.758807 -1.9838,-1.758807 -0.0657,0 0.10627,0.273895 0.3822,0.608654 0.27595,0.33476 0.50171,0.691331 0.50171,0.792382 0,0.122915 -0.77008,0.216338 -2.32663,0.282256 -1.27965,0.05419 -2.80362,0.215223 -3.3866,0.357848 -2.99402,0.732483 -4.48045,2.271228 -4.81303,4.982442 -0.16099,1.312495 0.13258,3.285686 0.63057,4.238057 0.23172,0.443149 0.46938,1.214831 0.52816,1.714848 0.0857,0.729021 0.15891,0.894507 0.36965,0.835348 0.14454,-0.04057 2.5772,-0.15453 5.40589,-0.253232 2.82869,-0.0987 5.4737,-0.207795 5.8778,-0.242429 0.7211,-0.0618 0.75785,-0.04052 1.98134,1.147501 l 1.24661,1.210472 h -15.12138 -15.12162 z m 79.46815,-17.946491 c 0.15895,-0.269087 0.61355,-0.838499 1.01021,-1.265361 0.39667,-0.426862 0.72329,-0.827889 0.72583,-0.89117 0.004,-0.11104 -0.46419,-0.211098 -1.59446,-0.340417 -0.62731,-0.07177 -0.83244,0.121092 -0.38404,0.36107 0.29007,0.15524 0.29749,0.232732 0.10629,1.11028 -0.11305,0.518866 -0.25917,1.071969 -0.32473,1.229119 -0.19803,0.47476 0.15137,0.320473 0.4609,-0.203521 z m 8.362541,-13.081742 0.72539,-0.182655 v -1.254141 c 0,-0.757747 0.0775,-1.331691 0.19592,-1.450069 0.10776,-0.107759 0.14191,-0.195927 0.0759,-0.195927 -0.066,0 -0.0403,-0.149002 0.0572,-0.331117 0.0975,-0.182115 0.24882,-0.286863 0.33633,-0.232772 0.0875,0.05409 0.13894,0.0075 0.11426,-0.103421 -0.0596,-0.268179 1.30371,-0.670575 1.86195,-0.549567 0.24055,0.05215 0.64465,0.12172 0.898,0.154617 0.25335,0.0329 0.79127,0.133839 1.19536,0.224314 1.31551,0.294534 3.46669,0.396435 4.19684,0.198805 0.67102,-0.181622 1.77812,-0.950866 1.61018,-1.118801 -0.0465,-0.04653 -0.19658,0.0084 -0.33344,0.121945 -0.13687,0.113591 -0.24999,0.14243 -0.25136,0.06409 -8.3e-4,-0.07835 -0.0649,-0.04402 -0.14114,0.07629 -0.083,0.130957 -0.56896,0.250529 -1.21096,0.297959 -0.93248,0.0689 -1.33459,-0.0058 -3.08349,-0.572428 -1.10615,-0.358408 -2.35942,-0.702768 -2.78504,-0.765246 -0.42563,-0.06248 -0.74494,-0.160471 -0.70957,-0.217762 0.0354,-0.05729 -0.84704,-0.11113 -1.96093,-0.119641 -1.11389,-0.0085 -2.02525,0.03863 -2.02525,0.104754 0,0.06613 -0.19757,0.169816 -0.43904,0.230422 -1.17322,0.294458 -1.98735,1.455934 -2.13101,3.040189 -0.1371,1.512069 0.0239,2.019308 0.73623,2.320119 1.18642,0.500977 1.87805,0.559606 3.0677,0.260049 z m -1.31552,-0.414094 c -1.22023,-0.258037 -1.11841,-0.110486 -1.00468,-1.455992 0.20034,-2.369873 0.92617,-3.03675 3.42151,-3.143577 0.79045,-0.03384 1.70886,-0.0035 2.0409,0.06733 0.55254,0.117931 0.49964,0.138184 -0.62392,0.238906 -2.36735,0.212225 -3.09908,0.982109 -3.09908,3.260666 0,1.177014 -0.007,1.186597 -0.73473,1.032669 z m -13.539051,31.726293 c 0.0462,-0.120313 -0.0288,-0.31232 -0.1666,-0.426682 -0.1378,-0.114361 -0.20326,-0.28443 -0.14547,-0.377929 0.0578,-0.0935 0.0324,-0.125097 -0.0564,-0.07022 -0.0888,0.05488 -0.48406,-0.228926 -0.87836,-0.630682 l -0.71689,-0.730464 1.87357,0.09178 c 4.41633,0.21635 11.966211,0.566944 12.208881,0.566944 0.17701,0 0.0378,0.230245 -0.42333,0.700088 -0.37789,0.385048 -0.68708,0.789147 -0.68708,0.897998 0,0.151148 -1.310451,0.19791 -5.546141,0.19791 -4.56806,0 -5.53133,-0.03857 -5.46219,-0.218749 z m 12.577181,-0.628849 0.89621,-0.8476 4.3242,0.282325 c 2.3783,0.155278 5.35035,0.365814 6.60454,0.467856 2.2248,0.181013 2.28034,0.194782 2.28034,0.565275 v 0.379742 h -7.50075 -7.50075 z m -0.94501,-23.357529 c -0.13378,-0.561248 -0.20809,-1.156707 -0.16513,-1.323242 0.0429,-0.166535 0.45957,-0.546804 0.92579,-0.845043 0.67269,-0.430313 0.9111,-0.704854 1.15493,-1.329933 l 0.30725,-0.787681 0.1153,0.734726 c 0.21662,1.380259 -0.10049,2.332768 -1.18993,3.574161 -0.34603,0.394291 -0.62915,0.780023 -0.62915,0.85718 0,0.07716 -0.0621,0.140285 -0.1379,0.140285 -0.0759,0 -0.24737,-0.459204 -0.38116,-1.020453 z M 46.247899,-84.728391 c -0.25217,-0.252175 -0.21311,-0.311045 0.56883,-0.857334 1.18828,-0.830165 1.75451,-1.949904 1.75451,-3.46959 0,-0.976778 -0.0536,-1.185308 -0.39175,-1.523436 -0.36572,-0.365712 -0.49866,-0.389637 -2.00009,-0.359942 -1.49541,0.02958 -1.66273,-1.61e-4 -2.38297,-0.423538 -1.32938,-0.781439 -1.64814,-1.976957 -0.78123,-2.929977 l 0.48502,-0.53321 0.007,0.40818 c 0.0153,0.858651 0.44601,1.038999 1.74188,0.729438 1.9257,-0.460013 2.80273,-0.238215 3.64261,0.921202 1.45233,2.004884 0.75713,6.014121 -1.32874,7.662909 -0.93196,0.736673 -0.94909,0.741559 -1.31535,0.375298 z"
           id="path2"
           sodipodi:nodetypes="ssssssccsssscsssssscscsssscssssssssssscscscsssssscsssssssssssssssssssscsssssssssssssscsssscssscsssssssssssscscssssssscssssssssccssssssssccssssssssssssccssssscssssscsssscsscscsscsssssssscsscssscsssssssscsssscssssssssscssssssssssscssscsssssccssscssssscsscssssssssssssscssssssssssscccccccsssssscsssscssssssssssssssscccssscssscsssscscscssssssssssssssccccsscsssssccssscscsssssscssssssssscccssscsssssssscsssssssccsssccccsssscsssssssssssscssssss" /></g><text
         xml:space="preserve"
         style="font-size:17.563px;line-height:1;font-family:Sportsball;-inkscape-font-specification:Sportsball;text-align:center;letter-spacing:1.63666px;word-spacing:0px;writing-mode:lr-tb;direction:ltr;text-anchor:middle;fill:#0e82ce;fill-opacity:1;stroke:#ffffff;stroke-width:2.13702;stroke-dasharray:none"
         x="68.029213"
         y="-18.125483"
         id="text2"><tspan
           sodipodi:role="line"
           id="tspan2"
           style="stroke-width:2.13702"
           x="68.029213"
           y="-18.125483">FARGO</tspan><tspan
           sodipodi:role="line"
           style="stroke-width:2.13702"
           x="68.029213"
           y="-0.56248283"
           id="tspan3" /></text><text
         xml:space="preserve"
         style="font-size:10.0924px;line-height:1;font-family:Sportsball;-inkscape-font-specification:Sportsball;text-align:center;letter-spacing:0.940482px;word-spacing:0px;writing-mode:lr-tb;direction:ltr;text-anchor:middle;fill:#0e82ce;fill-opacity:1;stroke:#ffffff;stroke-width:1.22801;stroke-dasharray:none"
         x="66.650948"
         y="-3.7623849"
         id="text4"><tspan
           sodipodi:role="line"
           id="tspan4"
           style="stroke-width:1.22801"
           x="67.121185"
           y="-3.7623849">blue oxen</tspan></text></g></g></svg>
