<?xml version="1.0" encoding="UTF-8" standalone="no"?>
<!-- Created with Inkscape (http://www.inkscape.org/) -->

<svg
   width="105.83334mm"
   height="105.83334mm"
   viewBox="0 0 105.83333 105.83333"
   version="1.1"
   id="svg1"
   xml:space="preserve"
   inkscape:version="1.4.2 (ebf0e940d0, 2025-05-08)"
   sodipodi:docname="florida.svg"
   inkscape:export-filename="../pngs/charlotte.png"
   inkscape:export-xdpi="96"
   inkscape:export-ydpi="96"
   xmlns:inkscape="http://www.inkscape.org/namespaces/inkscape"
   xmlns:sodipodi="http://sodipodi.sourceforge.net/DTD/sodipodi-0.dtd"
   xmlns="http://www.w3.org/2000/svg"
   xmlns:svg="http://www.w3.org/2000/svg"><sodipodi:namedview
     id="namedview1"
     pagecolor="#ffffff"
     bordercolor="#000000"
     borderopacity="0.25"
     inkscape:showpageshadow="2"
     inkscape:pageopacity="0.0"
     inkscape:pagecheckerboard="0"
     inkscape:deskcolor="#d1d1d1"
     inkscape:document-units="mm"
     inkscape:zoom="0.6457328"
     inkscape:cx="391.80293"
     inkscape:cy="-6.1945126"
     inkscape:window-width="1920"
     inkscape:window-height="1011"
     inkscape:window-x="0"
     inkscape:window-y="32"
     inkscape:window-maximized="1"
     inkscape:current-layer="layer1"
     showgrid="false"
     showguides="true" /><defs
     id="defs1" /><g
     inkscape:label="Capa 1"
     inkscape:groupmode="layer"
     id="layer1"><g
       id="g5"
       transform="matrix(-0.94787413,0,0,0.94787413,207.68733,62.432054)"><ellipse
         style="fill:#ffffff;fill-opacity:1;stroke:#ffffff;stroke-width:0.187381"
         id="path5-9"
         cx="155.52284"
         cy="50.738422"
         rx="56.62365"
         ry="42.419754"
         transform="rotate(-21.586761)" /><ellipse
         style="fill:#fa4616;fill-opacity:1;stroke:#ffffff;stroke-width:0.177614"
         id="path5"
         cx="155.52284"
         cy="50.738422"
         rx="53.672092"
         ry="40.208588"
         transform="rotate(-21.586761)" /><ellipse
         style="fill:#ffffff;fill-opacity:1;stroke:#ffffff;stroke-width:0.160442"
         id="path5-7"
         cx="155.52284"
         cy="50.738422"
         rx="48.482937"
         ry="36.321117"
         transform="rotate(-21.586761)" /><path
         style="fill:#808000"
         d="m 144.00568,23.847588 c -2.40448,-0.27828 -4.66738,-1.49233 -6.0543,-3.24814 -0.51988,-0.65816 -1.07492,-1.66936 -1.22459,-2.23103 -0.0541,-0.20317 -0.27251,-0.58189 -0.48819,-0.84666 -0.82814,-1.0167 -1.52547,-2.34696 -1.76491,-3.36684 -0.18729,-0.7978 -0.12888,-2.18315 0.1189,-2.819631 0.20348,-0.52269 0.73632,-1.3622598 0.86456,-1.3622598 0.0472,0 0.18973,0.1764998 0.31664,0.3922198 0.85871,1.459601 2.29883,2.655781 3.19739,2.655781 0.13422,0 0.46622,-0.33606 1.21259,-1.22738 0.56527,-0.675051 1.02777,-1.241631 1.02777,-1.259061 0,-0.0174 -0.23813,-0.0577 -0.52917,-0.0894 -0.72342,-0.079 -2.3413,-0.44362 -3.11116,-0.7012398 -2.12379,-0.71071 -4.21806,-2.04812 -6.12001,-3.90826 -1.01131,-0.98908 -1.18708,-1.25829 -0.98251,-1.50479 0.18548,-0.22349 1.28622,-0.10586 2.40318,0.25682 1.61116,0.52314 2.11395,0.60208 3.81,0.59815 1.35838,-0.003 1.62061,-0.0278 2.413,-0.22679 1.12365,-0.28218 2.15704,-0.67703 3.39062,-1.29554 1.34378,-0.67376 2.24914,-1.22929 5.37238,-3.29647999 1.49013,-0.98627 2.88988,-1.90485001 3.11054,-2.04127001 0.47448,-0.29334 0.47783,-0.24973 -0.1106,-1.44096 -0.44961,-0.91019 -1.09762,-1.76915 -1.68656,-2.2356 l -0.36072,-0.285695 -0.60333,0.103115 c -2.20155,0.37625 -7.0944,1.66817 -7.29614,1.9265 -0.46105,0.59036 -1.18747,1.79825 -2.04039,3.39275001 -1.88154,3.51746999 -2.17959,4.00649999 -2.44183,4.00649999 -0.17505,0 -0.94319,-0.89028 -1.30992,-1.5182 -0.89315,-1.52928999 -1.62612,-3.7817 -1.82402,-5.60518 l -0.0518,-0.47706 -0.88972,-0.0606 c -0.98877,-0.0674 -0.87519,-0.11619 -1.37649,0.59142 -1.15658,1.63256 -2.46538,4.98872 -2.46538,6.32198 0,0.49175 -0.002,0.49186 -0.75068,0.0451 -0.95208,-0.568 -1.86767,-1.67122 -2.40324,-2.89572999 -0.50628,-1.15756 -0.91008,-3.08694001 -0.91008,-4.34842001 0,-0.55518 -0.0146,-0.60447 -0.1905,-0.64188 -0.10478,-0.0223 -0.4953,-0.0998 -0.86784,-0.17231 -0.84793,-0.16497 -1.69258,-0.4408 -1.82001,-0.594338 -0.0737,-0.08884 -0.0539,-0.429663 0.0821,-1.413396 0.59601,-4.3089922 1.39043,-8.0589022 2.26559,-10.6943222 0.35827,-1.07885 0.43211,-1.22624 0.82195,-1.64067 1.23816,-1.31624 3.5884,-2.80873 8.97966,-5.70245 6.24551,-3.35222 9.39629,-5.18032 12.23852,-7.10086 1.14285,-0.77223 2.01531,-1.50371 3.76348,-3.1553 2.91439,-2.75338 4.31057,-3.83548 6.12174,-4.7446 1.09437,-0.54932 2.08762,-0.86305 3.26856,-1.03241 1.27888,-0.1834 1.95652,-0.1231 5.78171,0.51455 1.53432,0.25576 3.26314,0.50704 3.84183,0.55839 l 1.05216,0.0934 0.79484,-0.47013 c 1.03944,-0.61482 1.85857,-0.94961 2.96208,-1.21063 0.77889,-0.18423 1.16133,-0.21876 2.84708,-0.25703 2.71324,-0.0616 4.54352,0.1186 7.19667,0.70859 6.38102,1.41897 12.36226,4.93861 15.91976,9.36795 2.77768,3.4584 4.10267,7.43092 3.77206,11.30917 l -0.0988,1.15869 0.42187,0.88635 c 0.82337,1.72994 1.15367,3.06023 1.14504,4.61168 -0.007,1.22632 -0.14491,1.8216 -0.67112,2.893255 -0.68396,1.3928992 -1.97762,2.5573662 -3.78895,3.4105472 -0.80752,0.380365 -0.9255,0.411762 -1.71389,0.4561 -2.0341,0.114397 -3.57574,0.707016 -5.63923,2.167774 -0.42396,0.30012 -0.82189,0.62397 -0.88429,0.71967 -0.0624,0.0957 -0.32014,0.88836 -0.57273,1.76149 0,0 -4.40153,7.28035 -4.87375,7.55712 -1.69015,0.99057 -4.20292,1.70573 -7.43781,2.11687 -5.8175,0.73939 -9.19821,1.88559 -12.89253,4.3710908 -1.43509,0.96552 -2.529,1.83037 -4.90243,3.87592 -3.03748,2.61788 -4.3793,3.68681 -5.9349,4.72797 -4.10813,2.74955 -7.99762,3.96293 -11.42985,3.56572 z m 1.36504,-6.97759 c 0.20377,-0.0717 0.51134,-0.24332 0.68351,-0.38139 0.17216,-0.13807 0.41367,-0.28931 0.53669,-0.33608 0.39635,-0.15069 1.34411,-0.8058 2.07705,-1.4357 0.39265,-0.33743 1.7045,-1.55548 2.91523,-2.70676 2.98607,-2.8394508 3.83312,-3.5994808 5.588,-5.0139608 0.78066,-0.62923 2.92426,-2.15927 3.60173,-2.57081 0.29511,-0.17927 0.49541,-0.33967 0.44511,-0.35644 -0.1475,-0.0492 -1.10665,0.29674 -1.94773,0.70243 -1.69263,0.81641 -3.5354,2.21344 -7.30399,5.5372598 -2.72182,2.400591 -3.56745,3.092221 -4.64864,3.802051 -0.91905,0.60338 -1.0893,0.66259 -1.41919,0.4936 -0.13308,-0.0682 -0.54002,-0.20527 -0.90432,-0.30467 -0.3643,-0.0994 -0.81739,-0.2598 -1.00686,-0.35647 -0.46452,-0.23698 -1.1315,-0.87345 -1.40579,-1.34149 l -0.22442,-0.38295 -0.0599,0.3377 c -0.098,0.55227 -0.075,1.57368 0.047,2.09211 0.0627,0.26642 0.0939,0.50455 0.0692,0.52917 -0.0246,0.0246 -0.46704,0.0441 -0.98316,0.0433 -2.05629,-0.003 -3.32407,-0.52945 -4.87207,-2.02229 l -0.69434,-0.66961 0.0593,0.43652 c 0.0964,0.70943 0.35324,1.43068 0.70148,1.96948 0.79582,1.23128 1.99262,1.76467 2.88589,1.28616 l 0.37329,-0.19996 0.60037,0.15878 c 0.34961,0.0925 1.04243,0.17823 1.65871,0.20534 0.91925,0.0404 1.09172,0.0714 1.31234,0.23533 0.52159,0.38765 1.25219,0.48276 1.91552,0.24936 z M 136.21491,0.67031721 c 0.002,-0.34173 0.42491,-2.12222001 0.72606,-3.05820001 0.15731,-0.48895 0.29672,-0.9271 0.3098,-0.97366 0.0145,-0.0515 -0.37937,-0.10126 -1.00505,-0.127 l -1.02881,-0.0423 -0.0542,0.48067 c -0.0684,0.60645 0.0776,2.07159001 0.27857,2.79644001 0.19361,0.69818 0.59316,1.40839999 0.69865,1.24185 0.0405,-0.064 0.0743,-0.20696 0.075,-0.31777 z m 29.78757,-0.89192 c 3.73985,-2.66422001 5.05856,-3.34683001 6.98022,-3.61323001 0.44346,-0.0615 0.74083,-0.14188 0.74083,-0.2003 0,-0.18817 -0.48549,-0.8542 -0.91012,-1.24857 -1.06251,-0.986776 -2.82721,-1.823638 -4.61757,-2.189745 -0.9945,-0.203365 -2.74726,-0.295352 -3.48931,-0.183122 l -0.508,0.07683 0.508,0.23887 c 2.01392,0.94698 3.01473,2.256377 2.76348,3.615557 -0.18645,1.00856 -0.78319,1.94679 -2.24899,3.53595001 -0.80582,0.87364 -0.98373,1.10348 -0.85413,1.10348 0.0227,0 0.75876,-0.51107 1.63559,-1.13572 z m -38.59127,-0.11315 c 4.3e-4,-0.82319001 0.19584,-2.05701001 0.46792,-2.95441001 0.11499,-0.37927 0.20907,-0.72398 0.20907,-0.76602 0,-0.0866 -1.76396,-0.40699 -1.83729,-0.33367 -0.0262,0.0262 -0.0662,0.3089 -0.0891,0.62832 -0.0502,0.70167 0.0788,1.72651 0.31125,2.47328 0.17325,0.55648001 0.74145,1.60867001 0.86872,1.60867001 0.038,0 0.0692,-0.29528 0.0694,-0.65617 z M 179.58088,-21.911059 c 0.45757,-0.59273 0.68455,-1.38094 0.68121,-2.36552 -0.001,-0.44222 -0.0496,-1.0037 -0.10694,-1.24772 -0.12426,-0.52905 -0.49859,-1.38002 -0.73091,-1.66158 l -0.1666,-0.2019 -0.193,0.61154 c -0.30331,0.96102 -0.50447,2.07549 -0.58172,3.22279 l -0.0712,1.05681 -0.52526,-1.06515 c -0.31359,-0.63592 -0.60289,-1.37227 -0.71791,-1.82728 l -0.19265,-0.76212 -0.29271,0.42763 c -0.16098,0.2352 -0.51484,0.70834 -0.78635,1.05141 -0.27151,0.34307 -0.48106,0.63296 -0.46567,0.64419 0.0154,0.0112 0.15658,0.0717 0.31376,0.13437 0.48058,0.19162 1.28193,0.83463 2.14839,1.72389 0.45403,0.46598 0.8255,0.88206 0.8255,0.92462 0,0.15766 0.56043,-0.27533 0.86201,-0.66598 z"
         id="path3"
         sodipodi:nodetypes="csscssssssscsssscsssssscssssssccsscssscscssssssssscsssssscscsssssscssssccssssssscssscscscssscscsssccccsssssccsscssscsssscssssssssccsssssssscsscsscssssssss" /><path
         style="fill:#0021a5;fill-opacity:1"
         d="m 144.3574,23.864909 c -3.44072,-0.28338 -6.50136,-2.44541 -7.52797,-5.317748 -0.14658,-0.410128 -0.35907,-0.821336 -0.50249,-0.972455 -0.42567,-0.448494 -1.1282,-1.571738 -1.42875,-2.284372 -0.52208,-1.237904 -0.65333,-2.360487 -0.40109,-3.430588 0.14252,-0.604603 0.54675,-1.422616 0.8384,-1.696609 l 0.19102,-0.1794558 0.33027,0.5736008 c 0.65932,1.145075 2.1044,2.353735 3.00493,2.513318 0.29349,0.05201 0.31835,0.03557 0.71967,-0.475913 0.50116,-0.638731 1.576,-1.874707 1.66451,-1.914044 0.2014,-0.08951 -0.0225,-0.177637 -0.67733,-0.266549 -2.49109,-0.338256 -4.87793,-1.2779468 -6.88404,-2.7102228 -1.21647,-0.868509 -2.93725,-2.443375 -3.18684,-2.916618 -0.12435,-0.235756 -0.12128,-0.257064 0.0579,-0.402166 0.11546,-0.0935 0.32582,-0.152655 0.53967,-0.15177 0.34764,0.0014 1.30183,0.224238 1.78979,0.417907 0.55587,0.220623 1.91221,0.510205 2.80063,0.59794 2.10547,0.207924 4.32294,-0.284652 6.7667,-1.50311 1.31319,-0.65476 2.41472,-1.330476 5.41867,-3.32401599 1.44356,-0.958008 2.82739,-1.87001301 3.07516,-2.02667701 0.524,-0.331323 0.52457,-0.344362 0.0579,-1.338499 -0.46264,-0.985552 -1.1673,-1.913929 -1.86673,-2.459397 l -0.35741,-0.278733 -1.42813,0.305752 c -1.66958,0.357445 -4.38796,1.03056 -5.53122,1.369617 -0.75889,0.225067 -0.81766,0.25951 -1.11578,0.653948 -0.46476,0.614932 -1.19334,1.875073 -2.39459,4.14169801 -1.0704,2.01970399 -1.56455,2.86665399 -1.73343,2.97102899 -0.15763,0.09742 -0.41091,-0.106841 -0.88707,-0.715401 -1.09154,-1.395036 -2.14671,-4.224538 -2.30934,-6.192632 l -0.0536,-0.648123 -0.77124,-0.05643 c -0.42418,-0.03104 -0.83654,-0.07489 -0.91635,-0.09745 -0.32167,-0.09092 -1.6644,2.167899 -2.38713,4.01573701 -0.33048,0.84495 -0.68381,2.15247499 -0.7767,2.87422199 -0.0315,0.244476 -0.0809,0.444144 -0.10979,0.443707 -0.0289,-4.37e-4 -0.26215,-0.120038 -0.51827,-0.26578 -0.65554,-0.373032 -1.6636,-1.428565 -2.09175,-2.19026699 -0.69336,-1.233497 -1.16203,-3.01873601 -1.26686,-4.82565401 l -0.0516,-0.890161 -0.94089,-0.17881 c -0.51749,-0.09835 -1.16941,-0.270241 -1.4487,-0.381988 l -0.50782,-0.203176 0.026,-0.378852 c 0.0448,-0.651298 0.6903,-4.6944372 0.99863,-6.2547372 0.65572,-3.31817 1.53241,-6.28116 2.04417,-6.90878 0.98539,-1.20848 3.71384,-2.97384 8.82683,-5.71112 6.08625,-3.25833 8.95532,-4.90796 11.85333,-6.8153 1.79925,-1.18418 2.52817,-1.77333 4.52967,-3.66112 2.24263,-2.11522 3.2078,-2.92774 4.53379,-3.81676 0.82771,-0.55493 2.14967,-1.21529 2.98532,-1.49124 1.99423,-0.65854 3.17186,-0.64135 7.67855,0.11209 1.69969,0.28416 3.49039,0.53966 3.97934,0.56778 l 0.889,0.0511 0.67733,-0.41928 c 1.68065,-1.04034 3.19494,-1.44061 5.75733,-1.52182 6.79756,-0.21543 14.23556,2.26947 19.60034,6.54813 1.48293,1.18271 3.40176,3.20248 4.41079,4.64284 1.50595,2.14968 2.55462,4.76743 2.86295,7.14663 0.11298,0.87178 0.11992,3.00788 0.0119,3.66727 -0.0782,0.47764 -0.0729,0.49821 0.3708,1.43933 0.80695,1.71143 1.1511,3.06028 1.15856,4.5408 0.014,2.768463 -1.39221,4.8104612 -4.32769,6.2845002 -0.87071,0.437225 -0.90903,0.447712 -1.86266,0.509721 -2.13012,0.138507 -3.76503,0.78034 -5.72108,2.24598 l -0.84038,0.629678 -0.4852,1.669377 c -1.35857,4.674283 -1.74132,5.135533 -5.78035,8.065867 -1.6292,1.181991 -3.42456,1.282414 -6.81366,1.742631 -2.51501,0.341521 -3.8913,0.598597 -5.34577,0.998538 -2.6547,0.729968 -4.92732,1.7553798 -7.10224,3.2045358 -1.70349,1.135048 -2.40233,1.693586 -6.36754,5.089148 -2.00042,1.713037 -3.16578,2.629794 -4.46979,3.516275 -4.05215,2.754701 -7.83456,4.005271 -11.26066,3.723095 z m 2.63651,-3.372483 c 0.43587,-0.09063 1.00204,-0.237721 1.25816,-0.32688 1.75115,-0.609608 5.14896,-2.872043 8.21266,-5.468412 0.68806,-0.583104 3.09123,-2.709881 3.21733,-2.847305 0.0643,-0.07009 2.8039,-2.5442518 3.13835,-2.8342968 2.05465,-1.781854 3.82653,-3.058368 5.45056,-3.926729 0.85733,-0.458413 2.35459,-1.076399 2.98682,-1.232799 0.2691,-0.06657 2.7089,-0.444786 8.8782,-1.486799 0.17353,0 0.29057,-0.04237 0.29231,-0.105833 0.002,-0.05821 0.28995,-0.236788 0.64078,-0.396843 0.35083,-0.160056 0.98106,-0.512946 1.40051,-0.784201 0.41945,-0.27125499 0.80373,-0.46778899 0.85397,-0.43674199 0.0516,0.03189 0.0671,0.01718 0.0356,-0.03381 -0.0307,-0.04965 0.194,-0.30956 0.49929,-0.57759 0.67514,-0.592746 1.52661,-1.70122501 1.6379,-2.13230601 0.0449,-0.173985 0.14576,-0.716387 0.22408,-1.205337 0.44249,-2.76212 1.82757,-5.165447 3.77001,-6.541517 1.01669,-0.7202522 1.91907,-1.1216102 3.67734,-1.6356052 1.21847,-0.3562 2.1531,-1.04172 2.50558,-1.83778 0.15314,-0.34585 0.19446,-0.58809 0.19083,-1.11876 -0.0111,-1.6248 -1.17427,-3.58323 -3.47848,-5.85669 -0.68461,-0.67548 -2.00201,-1.80024 -2.44313,-2.08588 -0.1575,-0.10199 -0.28684,-0.20761 -0.28742,-0.23471 -0.001,-0.0641 1.33764,-0.37076 2.41344,-0.5527 1.14499,-0.19364 3.12993,-0.19417 4.17815,-0.001 0.43614,0.0803 0.80413,0.13458 0.81776,0.12057 0.0814,-0.0836 -0.64408,-2.13804 -1.06838,-3.02556 -1.55049,-3.24314 -4.13712,-5.75701 -7.82368,-7.6036 -2.42082,-1.21258 -5.59962,-2.12956 -8.36788,-2.41385 -1.58064,-0.16233 -4.08827,-0.13482 -4.96485,0.0545 -2.09988,0.45346 -3.95251,1.37881 -6.41572,3.20453 -1.14559,0.84911 -2.02743,1.37615 -3.40789,2.03672 -2.1388,1.02345 -4.19356,1.78157 -5.12556,1.89111 -0.40131,0.0472 -0.46244,0.0352 -0.46244,-0.0907 0,-0.15424 1.58107,-2.20033 3.03056,-3.9219 0.53201,-0.63188 0.83058,-1.05042 0.76317,-1.06984 -3.71967,-1.07126 -4.3666,-1.06949 -5.62554,0.0154 -5.80192,4.99969 -12.11867,8.77808 -22.89085,13.69227 -4.90243,2.23645 -6.6609,3.18603 -7.03467,3.79873 -0.4434,0.72686 -1.13401,3.84268 -1.54579,6.9740932 -0.17145,1.303848 -0.1779,1.464339 -0.0603,1.500459 0.22674,0.06962 1.61379,0.290734 2.62939,0.419157 2.07669,0.262597 3.73555,0.343349 7.06967,0.344148 4.53147,0.0011 6.5095,-0.181565 9.525,-0.879536 4.14081,-0.958434 8.04224,-1.49901 14.224,-1.9708502 0.82723,-0.06314 2.97639,-0.107601 5.26946,-0.109011 3.83235,-0.0024 3.87195,-0.0041 3.82187,-0.171715 -0.17012,-0.569268 -0.74507,-1.611795 -1.09554,-1.986475 -0.22077,-0.23602 -0.38145,-0.44909 -0.35706,-0.47348 0.0773,-0.0773 3.08883,0.29411 4.89193,0.60329 4.4868,0.76933 8.57729,2.123672 9.14117,3.0265872 0.16662,0.266806 -0.12129,0.448522 -0.81944,0.517186 -0.73123,0.07192 -1.87933,0.276105 -2.47973,0.441014 -0.78433,0.215432 -2.286,0.719531 -2.286,0.767395 0,0.02485 0.20825,0.270109 0.46276,0.545017 0.89471,0.966391 1.59456,2.239956 1.89847,3.454752 0.26662,1.065745 0.27153,1.049348 -0.35039,1.168346 -1.34845,0.258009 -4.26253,1.42034701 -6.1595,2.45683301 -2.692,1.47087999 -5.56467,3.34033699 -8.40878,5.47219699 -3.12067,2.33916 -5.75493,4.6569758 -8.79713,7.7403488 -1.05796,1.072286 -2.24245,2.20314 -2.6322,2.513011 -2.13043,1.693815 -4.3287,2.784388 -6.60427,3.276413 -0.70957,0.153422 -1.14355,0.187318 -2.44599,0.19104 l -1.58336,0.0045 0.56736,0.358903 c 0.57879,0.36613 1.3012,0.64808 2.1337,0.832771 0.75511,0.167521 2.40138,0.145606 3.31385,-0.04411 z m -11.69584,-34.152125 c 0,-0.16592 3.11253,-1.98109 5.207,-3.03662 0.8382,-0.42242 1.92918,-0.99084 2.42441,-1.26316 l 0.90042,-0.49513 0.478,0.1245 c 0.64512,0.16803 1.09164,0.40677 1.55208,0.82982 0.67854,0.62345 0.81697,1.32106 0.34727,1.75006 -0.75947,0.69367 -3.08032,1.04117 -5.02349,0.75216 -0.79966,-0.11894 -1.34623,-0.0237 -2.58369,0.45016 -1.42495,0.54567 -1.96194,0.71923 -2.413,0.77991 -0.23284,0.0313 -0.52811,0.0776 -0.65617,0.1028 -0.12806,0.0252 -0.23283,0.0277 -0.23283,0.006 z m 43.52388,-2.97914 c -1.23808,-1.49676 -3.2708,-3.33948 -4.80825,-4.35882 -1.26381,-0.83791 -2.97411,-1.64378 -2.68263,-1.26402 0.13468,0.17547 0.7498,1.64065 0.95673,2.27888 0.17807,0.54921 0.60004,2.31716 0.6015,2.5201 4.2e-4,0.0589 -0.44691,-0.22953 -0.99407,-0.64098 -0.54716,-0.41145 -1.31868,-0.95303 -1.7145,-1.20353 -0.74127,-0.46911 -3.09998,-1.68778 -3.2714,-1.69022 -0.0701,-0.001 -0.084,0.3911 -0.0511,1.43796 0.0249,0.79164 0.0177,1.43934 -0.0161,1.43934 -0.0338,0 -0.27749,-0.18503 -0.54157,-0.41117 -0.99715,-0.8539 -2.36876,-1.62531 -3.76773,-2.11901 -0.74067,-0.26138 -0.76313,-0.26382 -2.42983,-0.26382 -1.57144,0 -3.20028,-0.1377 -3.97692,-0.3362 -0.86361,-0.22073 -1.03052,-0.27016 -1.00338,-0.29714 0.0163,-0.0162 1.03936,-0.26603 2.27338,-0.55507 2.46222,-0.57672 3.54345,-0.86515 4.953,-1.32125 4.08401,-1.32151 7.55258,-3.40034 10.82775,-6.48943 1.11402,-1.05072 1.40311,-1.23184 2.45081,-1.53545 2.19658,-0.63655 4.88916,-0.40436 7.82226,0.67452 0.86523,0.31825 2.81437,1.22959 2.81636,1.31681 0.001,0.0467 -1.36707,0.38877 -2.87752,0.71955 -0.34925,0.0765 -0.64489,0.14761 -0.65699,0.15807 -0.0121,0.0105 0.11082,0.42443 0.27313,0.91994 0.54896,1.67583 0.67773,2.5135 0.67904,4.41731 0.001,1.51336 -0.0202,1.77433 -0.19963,2.45534 -0.54035,2.05068 -1.76876,3.58219 -3.62163,4.51521 l -0.52042,0.26206 z m 0.4751,-4.88913 c 0.47911,-0.43994 0.82722,-1.14479 0.96303,-1.94995 0.20413,-1.21023 -0.12021,-2.79088 -0.7392,-3.60242 l -0.22195,-0.29099 -0.10801,0.20616 c -0.29707,0.56698 -0.70195,2.73654 -0.72143,3.86577 -0.007,0.38779 -0.0409,0.67354 -0.0761,0.635 -0.32436,-0.35527 -1.1147,-2.2505 -1.27169,-3.0495 l -0.10298,-0.5241 -0.29947,0.43943 c -0.16471,0.24169 -0.535,0.74634 -0.82287,1.12144 l -0.5234,0.682 0.37766,0.1562 c 0.53026,0.21932 1.45904,0.98125 2.30412,1.89019 0.39582,0.42573 0.74909,0.77553 0.78506,0.77733 0.036,0.002 0.24173,-0.15865 0.45726,-0.35656 z m -33.71198,38.345482 c 0.23283,-0.108551 0.47474,-0.259519 0.53757,-0.335484 0.0628,-0.07597 0.31881,-0.231769 0.56883,-0.34623 0.5573,-0.255144 1.00045,-0.556522 1.81986,-1.237653 0.67605,-0.561971 0.80673,-0.682988 3.2544,-3.013661 4.14224,-3.9442468 6.77136,-6.0787938 9.49169,-7.7061888 0.33266,-0.199009 0.0501,-0.178534 -0.64421,0.04668 -1.98,0.642249 -4.10268,2.082196 -7.57221,5.136696 -3.26821,2.8772628 -3.85784,3.3810078 -4.7466,4.0552218 -0.51223,0.388582 -1.18615,0.845314 -1.49759,1.014961 -0.53203,0.289806 -0.58064,0.301117 -0.80433,0.187149 -0.13095,-0.06672 -0.60003,-0.224177 -1.04241,-0.349917 -1.19937,-0.340897 -1.92922,-0.879485 -2.38129,-1.757242 l -0.18729,-0.363648 -0.0791,0.296333 c -0.0667,0.249763 -0.0413,1.81815 0.0412,2.54 l 0.0242,0.211667 -1.10066,-0.0074 c -1.95144,-0.01313 -3.08019,-0.484483 -4.56932,-1.908104 -0.76432,-0.730698 -0.80695,-0.758666 -0.80577,-0.528669 0.002,0.372628 0.22359,1.230723 0.44841,1.735866 0.23513,0.528304 0.84793,1.23765 1.3934,1.612946 0.51329,0.353155 1.3302,0.425047 1.83381,0.161384 l 0.33254,-0.174096 0.85279,0.17468 c 0.46904,0.09607 1.22143,0.182186 1.67198,0.191359 0.63101,0.01285 0.85523,0.04932 0.97618,0.158771 0.48639,0.440176 1.47917,0.533173 2.18397,0.204581 z m -1.778,-9.0285488 c 2.76008,-0.593661 5.46611,-1.892834 9.144,-4.390055 4.59007,-3.11658199 5.22203,-3.50217399 6.42795,-3.92197999 0.48692,-0.169508 0.8496,-0.238458 1.25852,-0.239265 0.54944,-0.0011 0.5705,-0.0086 0.48322,-0.171658 -0.0502,-0.09379 -0.23808,-0.26768601 -0.41753,-0.38643701 -0.98638,-0.652759 -2.89843,-0.903606 -4.19677,-0.550588 -0.74558,0.20272 -1.7304,0.673813 -2.52888,1.20969801 -0.74228,0.498165 -3.0348,2.16447599 -3.57065,2.59530899 -0.27702,0.222733 -3.70541,2.644472 -4.06336,2.870268 -1.44038,0.908608 -3.62595,1.699447 -5.7115,2.066686 -1.01154,0.178118 -3.75327,0.132457 -4.68403,-0.07801 -0.41086,-0.09291 -0.71566,-0.141027 -0.67733,-0.106936 0.15328,0.136329 1.89667,0.775443 2.66343,0.976396 1.25637,0.32927 1.68426,0.371716 3.41759,0.339021 1.23853,-0.02336 1.80348,-0.07224 2.45534,-0.212451 z M 136.2621,0.61474621 c 0.0773,-0.668274 0.59655,-2.75430001 0.85952,-3.45296701 0.11831,-0.314311 0.20408,-0.580448 0.19061,-0.591414 -0.0135,-0.01097 -0.48875,-0.04515 -1.05617,-0.07596 l -1.03166,-0.05602 -0.0588,0.391966 c -0.11952,0.796986 0.11812,2.71245701 0.42818,3.45139801 0.17432,0.415453 0.48938,0.89781899 0.55851,0.85509799 0.0293,-0.01809 0.0787,-0.25303799 0.10979,-0.52210499 z m 29.32436,-0.488515 c 3.65417,-2.59692301 5.00365,-3.36507901 6.54782,-3.72716801 0.48553,-0.113852 1.06332,-0.229116 1.28398,-0.256143 l 0.4012,-0.04914 -0.12388,-0.296489 c -0.53525,-1.281031 -2.94112,-2.72911 -5.46854,-3.29149 -0.71999,-0.160205 -3.13792,-0.258876 -3.71526,-0.151613 l -0.37729,0.07009 0.80062,0.403631 c 1.01383,0.511123 1.79238,1.144973 2.1781,1.773289 0.25122,0.409224 0.30514,0.585017 0.33761,1.100667 0.0708,1.124307 -0.45936,2.173728 -1.87131,3.70432901 -1.29771,1.406758 -1.45866,1.60833199 -1.28422,1.60833199 0.0227,0 0.6037,-0.39973599 1.29117,-0.88830099 z m 17.71639,0.683891 c -0.0548,-0.05483 -0.11208,-0.05483 -0.16691,0 -0.0548,0.05483 -0.0262,0.08346 0.0835,0.08346 0.10966,0 0.13829,-0.02862 0.0835,-0.08346 z M 127.51092,-1.2692048 c 0.0918,-0.831332 0.33458,-1.920278 0.5551,-2.489331 0.0699,-0.180438 0.11601,-0.337304 0.10242,-0.348593 -0.0136,-0.01129 -0.4509,-0.09411 -0.97179,-0.184054 l -0.94708,-0.163529 -0.0466,0.173455 c -0.0765,0.284952 -0.0538,1.488734 0.0392,2.078456 0.13141,0.832924 0.39188,1.54063801 0.78495,2.13279001 l 0.35461,0.534209 0.0203,-0.465666 c 0.0112,-0.256117 0.0602,-0.826598 0.10885,-1.26773701 z"
         id="path2"
         sodipodi:nodetypes="sssssscsssssssscsssscsscsssssssccssssssscsscsssssssssscssssssssssscssssssssscssssssssssssssssssssscscssssssssssccssssscssccsssssssssssssssccssccssscssssssssssssssssssssssscssssscssscsscsssscsccscsscssssscsssscssscssccsccscsssccscsssssccsssssssssssscscscssscccsscssccsscssccsssssssscccsscsss" /></g></g></svg>
