<?xml version="1.0" encoding="UTF-8" standalone="no"?>
<!-- Created with Inkscape (http://www.inkscape.org/) -->

<svg
   width="105.83334mm"
   height="105.83334mm"
   viewBox="0 0 105.83333 105.83333"
   version="1.1"
   id="svg1"
   xml:space="preserve"
   inkscape:version="1.4 (e7c3feb100, 2024-10-09)"
   sodipodi:docname="florida.svg"
   inkscape:export-filename="../pngs/charlotte.png"
   inkscape:export-xdpi="96"
   inkscape:export-ydpi="96"
   xmlns:inkscape="http://www.inkscape.org/namespaces/inkscape"
   xmlns:sodipodi="http://sodipodi.sourceforge.net/DTD/sodipodi-0.dtd"
   xmlns="http://www.w3.org/2000/svg"
   xmlns:svg="http://www.w3.org/2000/svg"><sodipodi:namedview
     id="namedview1"
     pagecolor="#ffffff"
     bordercolor="#000000"
     borderopacity="0.25"
     inkscape:showpageshadow="2"
     inkscape:pageopacity="0.0"
     inkscape:pagecheckerboard="0"
     inkscape:deskcolor="#d1d1d1"
     inkscape:document-units="mm"
     inkscape:zoom="1.2914656"
     inkscape:cx="145.9582"
     inkscape:cy="168.02616"
     inkscape:window-width="1920"
     inkscape:window-height="1011"
     inkscape:window-x="0"
     inkscape:window-y="32"
     inkscape:window-maximized="1"
     inkscape:current-layer="layer1"
     showgrid="false"
     showguides="true" /><defs
     id="defs1" /><g
     inkscape:label="Capa 1"
     inkscape:groupmode="layer"
     id="layer1"><g
       id="g1"
       transform="translate(60.134791,39.474727)"><path
         style="fill:#0021a5;fill-opacity:1;stroke:#ffffff;stroke-width:3.21;stroke-dasharray:none"
         d="m 23.217957,52.089299 c -0.264029,-0.339735 -0.984108,-1.261418 -1.600176,-2.04819 -1.277204,-1.631087 -3.726444,-3.241381 -5.946184,-3.909423 -1.955069,-0.588391 -6.2075718,-0.583822 -9.0290788,0.0097 -1.218591,0.256339 -4.474704,1.12036 -7.23580303,1.920047 -7.66996997,2.221427 -11.57643817,2.857916 -17.63353517,2.873072 -5.832764,0.01459 -7.745744,-0.357772 -11.681346,-2.2738 -3.018819,-1.469699 -5.851053,-4.261238 -7.179666,-7.076508 l -0.938945,-1.989559 -2.741479,-0.0319 c -3.368703,-0.03922 -15.695693,0.41376 -15.512788,-0.889911 0.980559,-6.988983 -3.585611,-19.556307 -1.202673,-28.8865097 0.33308,-1.304149 1.65196,-1.928898 1.651223,-2.08024 -7.37e-4,-0.151339 -0.360778,-0.983651 -0.800092,-1.849579 -0.784034,-1.545402 -1.005256,-3.382635 -0.592748,-4.92273304 0.130488,-0.487179 0.828489,-1.055124 2.062015,-1.677806 1.025614,-0.51772796 2.339039,-1.35506496 2.918726,-1.86075096 1.150085,-1.00327 3.494691,-2.285716 4.178812,-2.285716 0.236513,0 0.90539,0.490453 1.486393,1.089897 l 1.056369,1.089896 1.646717,-0.770837 1.646715,-0.770836 0.718494,0.881079 c 0.395171,0.484594 0.719209,0.989091 0.720083,1.121107 8.74e-4,0.132015 0.333379,0.240027 0.738901,0.240027 0.420923,0 1.198047,0.475357 1.811005,1.10777096 1.009752,1.0418 2.752454,2.09259704 3.470479,2.09259704 0.203598,0 0.255713,-0.95860504 0.142171,-2.615147 l -0.179247,-2.615148 1.320332,1.061048 c 0.977957,0.785907 1.732346,1.100639 2.909205,1.21372 1.423289,0.136761 1.674401,0.06038 2.409583,-0.732892 0.45139,-0.487059 0.82071,-1.070504 0.82071,-1.296545 0,-0.309749 0.250975,-0.339001 1.018923,-0.118757 0.560409,0.160723 1.060859,0.250287 1.112116,0.199031 0.05126,-0.05125 -0.06996,-0.970516 -0.269374,-2.042797 -0.282244,-1.51769 -0.271631,-2.274396 0.0479,-3.415658 0.519291,-1.8547283 1.110635,-2.4128543 1.595854,-1.5062163 0.357207,0.667449 1.556143,1.4738503 1.81155,1.2184433 0.07786,-0.07786 -0.0029,-0.521578 -0.179506,-0.9860413 -0.3088,-0.812205 -0.278567,-0.844477 0.791137,-0.844477 1.07468,0 1.456662,-0.389414 0.787599,-0.802919 -0.729647,-0.450946 -1.595612,-2.75835 -1.595612,-4.251581 0,-1.880647 0.182138,-2.12421 0.986781,-1.319568 0.946562,0.946565 2.292218,0.74107 5.413957,-0.826761 1.577148,-0.792091 3.194458,-1.44101 3.594019,-1.442044 0.448351,-0.0012 1.565741,-0.782788 2.9186502,-2.041631 1.940146,-1.805252 2.151708,-2.115362 1.840212,-2.697397 -0.193577,-0.361704 -0.351959,-0.739117 -0.351959,-0.838699 0,-0.414326 2.074398,-0.123084 5.548892,0.779051 3.698667,0.960342 6.612511,1.242396 6.612511,0.640074 0,-0.17602 -0.224526,-0.320036 -0.498944,-0.320036 -0.274419,0 -0.414858,-0.136052 -0.312088,-0.302337 0.198531,-0.321233 1.953683,0.141989 4.156675,1.097034 0.695972,0.301719 1.70409,0.603484 2.240258,0.670589 2.1621688,0.270606 2.7748658,0.559712 3.8512788,1.817259 0.618219,0.722251 1.124036,1.634719 1.124036,2.027707 0,0.392987 -0.468054,1.617187 -1.040119,2.720443 -0.766312,1.477868 -1.264918,2.065842 -1.894061,2.233546 -0.983527,0.262168 -2.4815868,1.283039 -2.4963908,1.701195 -0.01445,0.408275 3.1966418,-0.02693 4.6654168,-0.632303 0.684864,-0.282278 1.569244,-0.812564 1.965288,-1.178417 0.864504,-0.798588 0.939994,-0.31367 0.195432,1.255363 -0.337886,0.71205 -0.68557,1.043861 -0.97673,0.932135 -0.248642,-0.09541 -0.374177,-0.04743 -0.278964,0.106621 0.229286,0.370983 -0.426861,0.891892 -1.445457,1.147544 -0.702434,0.176299 -0.905364,0.527906 -1.395626,2.4181373 -0.315522,1.216512 -0.495516,2.415528 -0.399984,2.664478 0.117087,0.30513 -0.123525,0.512079 -0.738351,0.635044 -1.1169618,0.223394 -2.2411558,1.371542 -2.2411558,2.288914 0,0.373928 0.396046,1.058488 0.880103,1.521244 1.5213818,1.45443596 4.8730308,1.87572796 8.6409948,1.08614496 1.100121,-0.230533 2.000223,-0.383487 2.000223,-0.3399 0,0.372387 -1.436556,3.29496404 -1.837279,3.73782104 -0.470519,0.51998 -0.462293,0.602308 0.102935,1.029942 0.833006,0.6303 1.189545,0.598579 1.655344,-0.147276 0.34425,-0.551229 3.431229,-2.556717 3.948134,-2.564946 0.103783,-0.0017 0.348651,0.348151 0.544206,0.777341 0.458421,1.006125 1.613385,1.687497 1.550425,0.914678 -0.04899,-0.601952 1.844393,-2.015059 2.699995,-2.015059 0.312472,0 0.982173,0.414049 1.488229,0.920108 l 0.92011,0.920108 1.035769,-0.92546 c 1.205501,-1.077109 1.514296,-0.990603 3.622331,1.014721 1.437365,1.367324 1.842251,1.490955 2.852027,0.870846 0.583282,-0.358201 0.800432,-0.242983 2.075892,1.1015 1.31349,1.384541 1.42448,1.632152 1.42448,3.177647 0,0.921854 -0.17189,2.1514367 -0.38196,2.7324047 -0.33719,0.932443 -0.30435,1.141508 0.28004,1.782924 1.68433,1.848725 1.8066,3.404982 0.77366,9.847672 -0.35275,2.200253 -0.93581,6.376733 -1.29569,9.281069 -0.35986,2.904334 -0.72914,5.726672 -0.8206,6.271864 l -0.1663,0.991257 -10.8996,0.179222 c -5.994779,0.09856 -10.995761,0.275377 -11.113286,0.392902 -0.117571,0.117525 0.07318,0.374199 0.423731,0.570384 1.220571,0.683045 3.347548,3.191099 4.229774,4.987584 0.757069,1.541612 0.888139,2.205775 0.888139,4.499989 0,2.782201 -0.283201,3.359254 -1.120126,2.282367 z m 0.14255,-3.651562 c -0.108132,-0.375201 -0.472441,-1.072397 -0.809625,-1.549326 -0.337185,-0.476927 -0.613069,-1.00254 -0.613069,-1.168024 0,-0.637222 -3.771508,-3.712778 -5.600651,-4.56717 -3.483392,-1.627093 -5.625401,-2.02714 -10.7212338,-2.002327 -4.042987,0.01968 -5.19098803,0.152735 -8.915334,1.033251 -5.347535,1.264276 -7.9449572,1.305831 -12.5089202,0.200126 -3.131145,-0.758579 -3.419506,-0.778759 -4.567002,-0.319623 -1.550067,0.620214 -3.312948,0.623712 -5.052322,0.01 -2.398582,-0.846269 -4.307394,-0.480288 -5.286183,1.013532 -0.469952,0.71724 -0.453188,0.770609 0.336384,1.070803 0.457044,0.173767 1.073642,0.318146 1.370219,0.320842 0.790151,0.0071 1.146977,0.320846 2.105237,1.8506 0.473881,0.756494 1.090787,1.463392 1.370903,1.570882 0.280116,0.107501 1.590816,0.0273 2.912666,-0.178206 2.356158,-0.366303 2.424479,-0.357537 3.478366,0.446301 1.735812,1.323968 2.689913,1.532155 4.306193,0.939619 2.378551,-0.871988 2.492959,-0.883085 3.615045,-0.350619 1.4865182,0.705399 2.3709432,0.648273 3.8531032,-0.248881 1.054928,-0.638547 1.551411,-0.736252 3.050507,-0.600319 1.591734,0.144335 1.901099,0.0693 2.786663,-0.675849 0.81197697,-0.683235 1.32354797,-0.838208 2.766939,-0.838208 1.503371,0 1.864972,-0.119738 2.394483,-0.792904 0.584435,-0.742989 0.873269,-0.806246 4.588029,-1.004836 4.5545408,-0.243485 6.4475748,0.137833 9.7164458,1.957204 2.106467,1.172408 3.330679,2.332391 4.126466,3.909994 0.595892,1.181315 1.638593,1.159695 1.296691,-0.02689 z m 2.012199,-34.998661 c -89.14983,-50.761854 -89.14983,-50.761854 0,0 z M -1.3964308,11.567742 c -0.786374,-1.332807 -0.848741,-2.3360657 -0.19865,-3.1955637 0.75589897,-0.999386 0.58098,-1.173965 -1.029941,-1.02793 -3.385988,0.30695 -7.8404442,-0.810151 -9.1938642,-2.305663 -0.51391,-0.567865 -0.486123,-0.579735 0.721812,-0.30833 1.6958642,0.381035 4.7021382,-0.142199 6.0364262,-1.050625 1.300718,-0.885571 1.384747,-1.306678 0.195368,-0.97906 -1.655933,0.456131 -4.08436,0.162993 -6.9090652,-0.834004 -3.036442,-1.07173104 -6.973571,-1.69662204 -5.849536,-0.92842304 2.406639,1.64477004 3.217449,3.03714704 3.030716,5.20455604 -0.05276,0.612427 0.04418,1.244983 0.215445,1.405681 0.171259,0.160699 1.522711,0.533129 3.00323,0.827622 2.9601832,0.58882 5.5739362,1.6995067 8.5094402,3.6160027 1.056122,0.689505 1.96902997,1.131058 2.02868397,0.981228 0.05965,-0.149832 -0.19237397,-0.782301 -0.56006497,-1.405491 z M 35.603815,8.6499323 c 0.49593,-1.484981 -0.07596,-3.393603 -1.219302,-4.068967 -0.540698,-0.319401 -1.080283,-0.456903 -1.199053,-0.30556 -0.118782,0.151346 -0.541919,0.648829 -0.940298,1.105522 -0.802332,0.919754 -0.659866,2.03618 0.230124,1.803443 0.460527,-0.120427 0.511464,0.132065 0.398281,1.974446 -0.07136,1.1618927 -0.256855,2.3550967 -0.412166,2.6515607 -0.62029,1.183941 -0.183096,0.980876 1.292082,-0.600149 0.852553,-0.913719 1.685198,-2.0658517 1.850332,-2.5602957 z m -6.829202,2.0613537 c 0.359779,-3.4490377 0.587871,-4.4943127 0.881379,-4.0390157 0.236207,0.366413 0.334607,0.359591 0.597874,-0.04146 0.42621,-0.649254 0.42511,-0.652582 -0.618063,-1.872059 l -0.916989,-1.071966 -0.983662,0.727259 c -1.193161,0.882135 -1.776377,2.486312 -1.482555,4.077837 0.212537,1.151201 1.717482,3.8978807 2.13635,3.8990197 0.115757,3.15e-4 0.289273,-0.755515 0.385666,-1.679622 z m 9.970345,0.672577 c 2.297364,-2.0171037 2.701754,-3.9733427 1.039004,-5.0261207 l -1.036028,-0.655966 -0.724181,0.680326 c -0.757166,0.711321 -0.966316,1.981507 -0.385399,2.340534 0.369203,0.228181 0.10487,2.0258767 -0.372481,2.5327137 -0.380427,0.403963 -0.365877,1.13613 0.02262,1.13613 0.169898,0 0.825325,-0.453428 1.456514,-1.007617 z m -14.737152,0.127515 c -0.281253,-0.659757 -0.55416,-4.5941647 -0.27656,-3.9871017 0.145115,0.317352 0.293338,0.326836 0.637961,0.04082 0.626421,-0.519879 0.541847,-1.597336 -0.194768,-2.481244 l -0.622406,-0.746873 -0.915549,0.651923 c -1.520923,1.082994 -1.632388,1.340847 -1.314725,3.041226 0.187365,1.002892 0.662346,1.9903107 1.333631,2.7724017 1.112991,1.296709 1.743997,1.627445 1.352416,0.708846 z m -43.318428,-0.102206 c 0.948133,-0.188231 3.020025,-0.442493 4.604208,-0.565029 2.736607,-0.211677 2.840409,-0.246499 2.080239,-0.697884 -0.599578,-0.3560267 -2.003175,-0.4881637 -5.600645,-0.5272527 -4.969801,-0.054 -7.26795,-0.498402 -7.453032,-1.441218 -0.144802,-0.737628 1.153806,-2.153582 2.231136,-2.432746 l 0.978553,-0.253569 -0.83495,-0.99228 c -1.140522,-1.355434 -2.693926,-2.026184 -4.731199,-2.042902 -0.941509,-0.0077 -2.251898,-0.206781 -2.911974,-0.442343 -0.914735,-0.326443 -1.200139,-0.336369 -1.200139,-0.04175 0,0.891667 2.303972,2.406407 4.16048,2.735298 l 1.120129,0.198437 -1.347407,0.702419 c -1.823582,0.950653 -3.761062,0.913422 -5.684415,-0.109238 -1.195836,-0.635834 -1.483468,-0.69949 -1.327813,-0.293863 0.109287,0.284786 0.198694,0.725254 0.198694,0.978822 0,0.806295 2.666364,3.393001 4.160479,4.0361827 3.221095,1.386605 8.056391,1.883997 11.557656,1.188901 z M -40.222771,6.4123443 c 1.267964,-0.950039 1.921487,-1.90102 2.173983,-3.163499 0.155201,-0.776007 0.01861,-1.100643 -0.752089,-1.787327 l -0.941734,-0.83909004 -1.020635,0.64622004 c -0.789699,0.500002 -0.998646,0.83579 -0.923452,1.484021 0.0547,0.471484 0.275008,0.801844 0.503886,0.755571 0.589755,-0.119241 0.177097,1.408491 -0.786475,2.911675 l -0.787984,1.229263 0.743897,-0.22629 c 0.409144,-0.124458 1.214916,-0.579204 1.790603,-1.010544 z m -13.004228,-1.08204 c -0.05252,-1.166551 0.08218,-1.950745 0.40878,-2.379911 0.472992,-0.621518 0.487409,-0.614261 0.497293,0.250307 0.01281,1.120746 0.82771,3.110079 1.273995,3.110079 0.185002,0 0.338822,-0.396045 0.341825,-0.880101 0.0071,-1.125554 1.620384,-3.867906 2.165551,-3.680853 0.775931,0.26623 1.391246,-0.594767 1.179713,-1.65074904 -0.42954,-2.14429696 -0.434693,-2.15000596 -1.846389,-2.04632796 -1.129591,0.08296 -1.463393,0.289609 -2.293278,1.41971496 -0.808473,1.10095 -1.113177,1.296508 -1.818022,1.166801 -0.593401,-0.109201 -1.059374,0.05679 -1.557324,0.55473804 -0.589833,0.589832 -0.685696,0.969325 -0.564214,2.233597 0.155168,1.614874 1.364201,3.951276 1.94458,3.757817 0.204649,-0.06822 0.313845,-0.825521 0.26749,-1.855112 z m 7.158654,0.652773 c 0.116906,-0.532278 0.562088,-1.383168 0.98929,-1.890869 0.427202,-0.507702 0.990182,-1.332347 1.251064,-1.832546 0.377019,-0.722872 0.474736,-0.780482 0.476303,-0.28081 0.0018,0.577263 0.04397,0.586629 0.516005,0.114608 0.390787,-0.390787 0.460843,-0.828855 0.292189,-1.82710404 -0.122013,-0.722191 -0.330839,-1.38043696 -0.464058,-1.46276996 -0.133217,-0.08233 -0.762209,-0.0062 -1.397761,0.169365 -2.248275,0.62077796 -3.456399,3.341881 -2.795305,6.295966 0.424182,1.895443 0.81823,2.143981 1.132273,0.714156 z m 59.615464,-1.129441 c 0.654424,-0.273367 1.596805,-0.885437 2.094178,-1.360156 l 0.904324,-0.863124 -2.024451,-0.183601 c -1.369668,-0.124218 -2.179718,-0.056894 -2.504504,0.208156 -0.733648,0.598707 -2.8691588,1.41561 -3.7006218,1.41561 -0.408166,0 -0.83188,0.145235 -0.941586,0.322746 -0.573958,0.928682 4.1993148,1.284683 6.1726608,0.460369 z m -32.894068,-1.680567 c 0,-0.14156 -0.43478,-0.942957 -0.966176,-1.780882 -0.696434,-1.09816104 -1.373984,-1.70389504 -2.426875,-2.16963804 -0.803383,-0.35537696 -1.525381,-0.58145496 -1.604437,-0.50239796 -0.07906,0.07906 0.114354,0.83887496 0.429812,1.68848096 0.519953,1.40039304 0.737737,1.61236204 2.330584,2.26836504 1.958199,0.806469 2.237092,0.868313 2.237092,0.496072 z M 6.8716592,2.4153713 c 0.89353,-0.206251 1.624601,-0.463233 1.624601,-0.57107 0,-0.107838 -0.415838,-0.441711 -0.924088,-0.741941 -1.856491,-1.09665804 -2.397105,-4.415375 -0.968967,-5.948303 0.333518,-0.357989 0.480522,-0.728684 0.326674,-0.823767 -0.444787,-0.274894 -2.821488,2.509155 -3.056856,3.580775 -0.132133,0.601601 -0.0301,1.41176396 0.267505,2.12403396 0.474047,1.13455204 0.469167,1.15447204 -0.332165,1.35559504 -0.79403,0.199288 -4.11669103,-0.230299 -5.393266,-0.69729604 -1.458647,-0.533605 0.380386,0.84108904 1.93954697,1.44982704 1.82090703,0.710932 4.18788203,0.809775 6.51701503,0.272146 z m -16.617503,-3.26621704 c 0.792092,-0.25629296 2.448284,-0.83497696 3.680425,-1.28596496 2.874033,-1.051952 4.708968,-1.094831 5.35285197,-0.125091 l 0.470352,0.708388 1.53479003,-0.78983 c 1.729031,-0.889792 3.212799,-2.555502 3.551803,-3.987332 0.218588,-0.923237 0.203971,-0.939525 -0.380668,-0.424081 -0.823655,0.726172 -3.208614,1.289524 -4.93523503,1.165749 -1.38956897,-0.09961 -1.33845697,-0.131258 2.61937203,-1.62177 5.451371,-2.052977 6.988487,-2.029622 6.988487,0.106185 0,1.106344 0.606583,0.643126 0.9772218,-0.746258 0.199565,-0.748086 0.49338,-1.610231 0.652921,-1.915879 0.426742,-0.8175403 0.379023,-0.8844443 -0.630847,-0.8844443 -0.5065078,0 -1.1002068,-0.216024 -1.3193348,-0.480054 -0.219124,-0.264031 -0.765012,-0.480055 -1.213079,-0.480055 -0.712604,0 -9.479026,2.2938633 -13.973739,3.6564383 -0.871887,0.26431 -1.663879,0.401938 -1.759982,0.305835 -0.0961,-0.0961 0.289031,-0.5891 0.855849,-1.095554 0.566819,-0.506452 1.118966,-1.2729833 1.226996,-1.7034033 0.297168,-1.184016 1.288414,-1.948668 5.28819197,-4.079339 5.59654303,-2.981265 9.67301203,-4.441784 11.11770083,-3.983258 0.609665,0.193501 0.615654,0.257874 0.137272,1.475716 -0.297932,0.75846 -0.9181578,1.531699 -1.5337828,1.912176 -0.568468,0.351335 -1.229791,0.879428 -1.469604,1.173542 -0.557467,0.683694 2.6171828,-1.00882 3.5870228,-1.912365 0.899007,-0.837551 1.890845,-3.068461 1.654012,-3.720305 -0.366855,-1.009702 -1.556997,-1.898473 -2.8051668,-2.094837 -0.699439,-0.110037 -2.063798,-0.346601 -3.031911,-0.525696 -1.06785,-0.197547 -2.452555,-0.219133 -3.520405,-0.05488 -1.578193,0.24275 -1.751862,0.346443 -1.679541,1.0028 0.04437,0.40263 -0.135658,1.04089 -0.400048,1.418358 -0.46600503,0.665318 -0.48070703,0.651389 -0.48070703,-0.455431 0,-1.470977 -0.655349,-2.046447 -3.03694097,-2.666773 -2.370737,-0.617498 -3.043759,-0.622299 -3.043759,-0.02171 0,0.259972 -0.396046,0.723217 -0.880101,1.029432 -0.944314,0.597372 -4.3262242,3.943587 -3.9728182,3.930882 0.11681,-0.0042 0.7524462,-0.13305 1.4125222,-0.286333 1.368165,-0.31772 1.515339,-0.217279 0.487584,0.332757 -1.36621,0.731174 -2.8747252,0.895131 -4.1603922,0.452183 -0.681901,-0.234935 -1.191981,-0.3335 -1.133509,-0.219036 0.803208,1.572379 0.958492,2.002374 0.785567,2.175298 -0.112346,0.112347 -0.387773,0.05907 -0.61205,-0.118418 -0.224279,-0.177484 -0.767823,-0.395511 -1.207873,-0.484506 -0.440051,-0.08898 -1.052121,-0.267748 -1.360157,-0.397225 -0.819098,-0.344295 -0.690794,0.268668 0.303604,1.45044 l 0.863666,1.026412 -0.783659,-0.262079 c -0.431011,-0.144143 -1.359723,-0.282244 -2.063805,-0.30689 -0.70408,-0.02464 -1.532176,-0.156929 -1.840212,-0.293963 -0.900548,-0.400616 -0.655413,0.322275 0.414598,1.222631 1.357157,1.141972 3.248855,1.611489 4.64126,1.151953 0.60156,-0.198532 1.420281,-0.304326 1.819382,-0.235097 0.680978,0.118127 0.666548,0.150397 -0.234474,0.524361 -0.52806,0.21917 -1.284148,0.702033 -1.680194,1.073031 -0.396046,0.370998 -0.720082,0.505422 -0.720082,0.298719 0,-0.221807 -0.49839,-0.375824 -1.216141,-0.375824 -0.668877,0 -1.386558,-0.170419 -1.59485,-0.378711 -0.208291,-0.208291 -0.478624,-0.278796 -0.600741,-0.156679 -0.122116,0.122116 0.19952,0.662335 0.714749,1.200485 0.649823,0.6787313 1.157358,0.9363903 1.656863,0.8411333 0.790793,-0.150805 0.945547,0.161163 0.320036,0.645162 -0.786894,0.608875 -1.45402,0.671297 -2.328063,0.217838 -1.171673,-0.607873 -1.318808,-0.381619 -0.577389,0.887867 1.235227,2.114999 3.887017,1.94964 4.770366,-0.29747 0.259325,-0.659683 0.606691,-1.441181 0.771922,-1.7366653 0.204311,-0.365368 0.176133,-0.592037 -0.08809,-0.708519 -0.213678,-0.09421 0.115552,-0.140476 0.731624,-0.102826 0.869082,0.0531 1.141754,0.219941 1.216613,0.744392 0.231261,1.6201543 -3.183965,4.0565593 -6.257855,4.4643263 -1.90348,0.252505 -3.517138,-0.202251 -4.926891,-1.38848 l -0.990839,-0.833737 0.237422,1.101268 c 0.130583,0.605696 0.428745,1.475934 0.662584,1.93386 0.511452,1.001576 2.399753,2.710001 3.317164,3.001174 0.710052,0.225362 0.858743,0.646842 0.341065,0.96678396 -0.827581,0.511474 -0.01615,0.635044 3.76021,0.572631 2.519669,-0.04165 4.631611,-0.245699 5.5208582,-0.533427 z m 6.555022,-16.51522726 c 1.209408,-1.238547 1.399093,-2.24216 0.222526,-1.177381 -0.322976,0.292287 -1.108459,0.531431 -1.745518,0.531431 -1.148006,0 -1.155319,-0.0085 -0.823592,-0.960109 0.184081,-0.528061 0.468188,-0.96011 0.631345,-0.96011 0.163158,0 0.442455,-0.383494 0.620659,-0.852208 0.246255,-0.647697 0.413316,-0.762899 0.696161,-0.480055 0.204684,0.204683 0.746594,0.372151 1.204246,0.372151 1.034119,0 1.60018497,0.538783 1.60018497,1.523061 0,0.415235 0.134065,0.672117 0.297922,0.570845 0.163858,-0.10126 0.374675,-0.05993 0.468483,0.09185 0.0938,0.151785 -0.54889,0.612945 -1.42821997,1.024801 -0.879328,0.411854 -1.755854,0.938092 -1.947835,1.169416 -0.191981,0.231322 -0.504667,0.420585 -0.694856,0.420585 -0.190191,0 0.214131,-0.573422 0.898494,-1.27427 z m 0.185997,-1.470432 c 0.346962,-0.418064 0.33997,-0.554236 -0.04082,-0.795193 -0.252712,-0.159907 -0.621863,-0.292949 -0.820336,-0.295645 -0.524088,-0.0071 -1.1696,0.870234 -0.927952,1.261229 0.308325,0.49888 1.313079,0.40319 1.789112,-0.170391 z m 9.020799,-0.831836 c -0.572067,-0.155212 -1.040121,-0.333296 -1.040121,-0.395745 0,-0.345899 1.287487,-0.366806 1.914774,-0.03108 0.970355,0.519319 0.432902,0.781601 -0.874653,0.426838 z m -9.709269,10.2591733 c 0.718564,-0.250493 0.971286,-0.504597 0.84059,-0.8451873 -0.102794,-0.267854 0.04392,-0.839252 0.326004,-1.269773 0.282088,-0.430522 0.446912,-0.848742 0.366276,-0.929377 -0.238869,-0.238866 -2.14479,1.811204 -2.14479,2.307004 0,0.2504923 -0.144017,0.4554383 -0.320038,0.4554383 -0.176019,0 -0.320037,0.144017 -0.320037,0.320036 0,0.397639 0.0021,0.397575 1.251995,-0.03814 z m 6.343499,-1.9104533 c 0.421923,-0.160414 1.129801,-0.291663 1.573062,-0.291663 1.020136,0 0.8414,-0.756498 -0.215136,-0.910557 -0.927682,-0.135272 -4.48267503,0.56941 -5.032967,0.997649 -0.220027,0.171225 -0.400046,0.573955 -0.400046,0.894956 0,0.552896 0.08712,0.557767 1.65397597,0.09246 0.90968803,-0.270148 1.99918703,-0.622427 2.42111103,-0.782843 z"
         id="path1-5"
         sodipodi:nodetypes="cssssssscsssssssssscccsssssscsssssssssscsssssssssssssssssssssssssssssssssscscscsscsssssssssscsccssccsssssssscsscssssssssssssssssssssssssssssssssssssssscsssssscsssscscsscsccsssscssssssssssscscssscsssssssssscsssscsssssscsssssssssssssssscssssscssssssssssssssssssssssccsscssssssssssssssssssssssssssssssscssssssssscsssssssssssssssssssssssscssssscsssssssssssssssssscsssssssssssssssssssssss" /><path
         style="fill:#fa4616;fill-opacity:1;stroke:none;stroke-width:2.648"
         d="m -56.730332,2.1769413 1.88325,5.215154 c 0,0 -1.303789,8.8367897 -1.158923,9.9957127 0.144865,1.158922 1.593519,19.122231 1.593519,19.122231 l 18.253039,1.593519 c 0,0 3.331905,5.504886 3.766499,6.229212 0.434597,0.724326 9.126521,4.201097 9.126521,4.201097 l 14.7762702,0.144864 15.935193,-4.056229 9.5611148,0.579461 6.374077,5.939481 0.579462,-3.331903 -6.663809,-8.257329 2.317847,-1.448654 18.977367,-0.869191 2.897307,-20.860617 -0.28973,-8.2573257 c 0,0 -1.44865,-2.607577 -2.462713,-2.607577 -1.014057,0 -4.780557,-2.317848 -4.780557,-2.317848 h -5.215155 l -3.331903,1.30379 -2.462712,-0.869193 -5.070287,3.47677 -0.724329,-5.649751 -7.5329998,-1.01405804 -2.607577,-3.47676996 2.028116,-3.042172 2.4627128,-0.724328 0.289729,-4.2010963 -3.7664998,-1.593519 5.5048838,-4.490827 -0.579461,-3.911366 -5.0702878,-1.593519 -13.762212,-1.88325 -5.6497512,5.504885 -9.126518,3.187038 1.448652,4.635693 -2.028114,3.0421733 -3.47677,-1.014057 1.014058,7.24327 -9.416251,3.621632 -6.663808,-1.15892204 -3.187039,-2.75244196 -6.374077,-0.434597 -5.070288,2.46271296 z"
         id="path52" /><path
         style="fill:#0021a5;fill-opacity:1;stroke-width:1.20959"
         d="m 23.217957,52.089299 c -0.264029,-0.339735 -0.984108,-1.261418 -1.600176,-2.04819 -1.277204,-1.631087 -3.726444,-3.241381 -5.946184,-3.909423 -1.955069,-0.588391 -6.2075718,-0.583822 -9.0290788,0.0097 -1.218591,0.256339 -4.474704,1.12036 -7.23580303,1.920047 -7.66996997,2.221427 -11.57643817,2.857916 -17.63353517,2.873072 -5.832764,0.01459 -7.745744,-0.357772 -11.681346,-2.2738 -3.018819,-1.469699 -5.851053,-4.261238 -7.179666,-7.076508 l -0.938945,-1.989559 -2.741479,-0.0319 c -3.368703,-0.03922 -15.695693,0.41376 -15.512788,-0.889911 0.980559,-6.988983 -3.585611,-19.556307 -1.202673,-28.8865097 0.33308,-1.304149 1.65196,-1.928898 1.651223,-2.08024 -7.37e-4,-0.151339 -0.360778,-0.983651 -0.800092,-1.849579 -0.784034,-1.545402 -1.005256,-3.382635 -0.592748,-4.92273304 0.130488,-0.487179 0.828489,-1.055124 2.062015,-1.677806 1.025614,-0.51772796 2.339039,-1.35506496 2.918726,-1.86075096 1.150085,-1.00327 3.494691,-2.285716 4.178812,-2.285716 0.236513,0 0.90539,0.490453 1.486393,1.089897 l 1.056369,1.089896 1.646717,-0.770837 1.646715,-0.770836 0.718494,0.881079 c 0.395171,0.484594 0.719209,0.989091 0.720083,1.121107 8.74e-4,0.132015 0.333379,0.240027 0.738901,0.240027 0.420923,0 1.198047,0.475357 1.811005,1.10777096 1.009752,1.0418 2.752454,2.09259704 3.470479,2.09259704 0.203598,0 0.255713,-0.95860504 0.142171,-2.615147 l -0.179247,-2.615148 1.320332,1.061048 c 0.977957,0.785907 1.732346,1.100639 2.909205,1.21372 1.423289,0.136761 1.674401,0.06038 2.409583,-0.732892 0.45139,-0.487059 0.82071,-1.070504 0.82071,-1.296545 0,-0.309749 0.250975,-0.339001 1.018923,-0.118757 0.560409,0.160723 1.060859,0.250287 1.112116,0.199031 0.05126,-0.05125 -0.06996,-0.970516 -0.269374,-2.042797 -0.282244,-1.51769 -0.271631,-2.274396 0.0479,-3.415658 0.519291,-1.8547283 1.110635,-2.4128543 1.595854,-1.5062163 0.357207,0.667449 1.556143,1.4738503 1.81155,1.2184433 0.07786,-0.07786 -0.0029,-0.521578 -0.179506,-0.9860413 -0.3088,-0.812205 -0.278567,-0.844477 0.791137,-0.844477 1.07468,0 1.456662,-0.389414 0.787599,-0.802919 -0.729647,-0.450946 -1.595612,-2.75835 -1.595612,-4.251581 0,-1.880647 0.182138,-2.12421 0.986781,-1.319568 0.946562,0.946565 2.292218,0.74107 5.413957,-0.826761 1.577148,-0.792091 3.194458,-1.44101 3.594019,-1.442044 0.448351,-0.0012 1.565741,-0.782788 2.9186502,-2.041631 1.940146,-1.805252 2.151708,-2.115362 1.840212,-2.697397 -0.193577,-0.361704 -0.351959,-0.739117 -0.351959,-0.838699 0,-0.414326 2.074398,-0.123084 5.548892,0.779051 3.698667,0.960342 6.612511,1.242396 6.612511,0.640074 0,-0.17602 -0.224526,-0.320036 -0.498944,-0.320036 -0.274419,0 -0.414858,-0.136052 -0.312088,-0.302337 0.198531,-0.321233 1.953683,0.141989 4.156675,1.097034 0.695972,0.301719 1.70409,0.603484 2.240258,0.670589 2.1621688,0.270606 2.7748658,0.559712 3.8512788,1.817259 0.618219,0.722251 1.124036,1.634719 1.124036,2.027707 0,0.392987 -0.468054,1.617187 -1.040119,2.720443 -0.766312,1.477868 -1.264918,2.065842 -1.894061,2.233546 -0.983527,0.262168 -2.4815868,1.283039 -2.4963908,1.701195 -0.01445,0.408275 3.1966418,-0.02693 4.6654168,-0.632303 0.684864,-0.282278 1.569244,-0.812564 1.965288,-1.178417 0.864504,-0.798588 0.939994,-0.31367 0.195432,1.255363 -0.337886,0.71205 -0.68557,1.043861 -0.97673,0.932135 -0.248642,-0.09541 -0.374177,-0.04743 -0.278964,0.106621 0.229286,0.370983 -0.426861,0.891892 -1.445457,1.147544 -0.702434,0.176299 -0.905364,0.527906 -1.395626,2.4181373 -0.315522,1.216512 -0.495516,2.415528 -0.399984,2.664478 0.117087,0.30513 -0.123525,0.512079 -0.738351,0.635044 -1.1169618,0.223394 -2.2411558,1.371542 -2.2411558,2.288914 0,0.373928 0.396046,1.058488 0.880103,1.521244 1.5213818,1.45443596 4.8730308,1.87572796 8.6409948,1.08614496 1.100121,-0.230533 2.000223,-0.383487 2.000223,-0.3399 0,0.372387 -1.436556,3.29496404 -1.837279,3.73782104 -0.470519,0.51998 -0.462293,0.602308 0.102935,1.029942 0.833006,0.6303 1.189545,0.598579 1.655344,-0.147276 0.34425,-0.551229 3.431229,-2.556717 3.948134,-2.564946 0.103783,-0.0017 0.348651,0.348151 0.544206,0.777341 0.458421,1.006125 1.613385,1.687497 1.550425,0.914678 -0.04899,-0.601952 1.844393,-2.015059 2.699995,-2.015059 0.312472,0 0.982173,0.414049 1.488229,0.920108 l 0.92011,0.920108 1.035769,-0.92546 c 1.205501,-1.077109 1.514296,-0.990603 3.622331,1.014721 1.437365,1.367324 1.842251,1.490955 2.852027,0.870846 0.583282,-0.358201 0.800432,-0.242983 2.075892,1.1015 1.31349,1.384541 1.42448,1.632152 1.42448,3.177647 0,0.921854 -0.17189,2.1514367 -0.38196,2.7324047 -0.33719,0.932443 -0.30435,1.141508 0.28004,1.782924 1.68433,1.848725 1.8066,3.404982 0.77366,9.847672 -0.35275,2.200253 -0.93581,6.376733 -1.29569,9.281069 -0.35986,2.904334 -0.72914,5.726672 -0.8206,6.271864 l -0.1663,0.991257 -10.8996,0.179222 c -5.994779,0.09856 -10.995761,0.275377 -11.113286,0.392902 -0.117571,0.117525 0.07318,0.374199 0.423731,0.570384 1.220571,0.683045 3.347548,3.191099 4.229774,4.987584 0.757069,1.541612 0.888139,2.205775 0.888139,4.499989 0,2.782201 -0.283201,3.359254 -1.120126,2.282367 z m 0.14255,-3.651562 c -0.108132,-0.375201 -0.472441,-1.072397 -0.809625,-1.549326 -0.337185,-0.476927 -0.613069,-1.00254 -0.613069,-1.168024 0,-0.637222 -3.771508,-3.712778 -5.600651,-4.56717 -3.483392,-1.627093 -5.625401,-2.02714 -10.7212338,-2.002327 -4.042987,0.01968 -5.19098803,0.152735 -8.915334,1.033251 -5.347535,1.264276 -7.9449572,1.305831 -12.5089202,0.200126 -3.131145,-0.758579 -3.419506,-0.778759 -4.567002,-0.319623 -1.550067,0.620214 -3.312948,0.623712 -5.052322,0.01 -2.398582,-0.846269 -4.307394,-0.480288 -5.286183,1.013532 -0.469952,0.71724 -0.453188,0.770609 0.336384,1.070803 0.457044,0.173767 1.073642,0.318146 1.370219,0.320842 0.790151,0.0071 1.146977,0.320846 2.105237,1.8506 0.473881,0.756494 1.090787,1.463392 1.370903,1.570882 0.280116,0.107501 1.590816,0.0273 2.912666,-0.178206 2.356158,-0.366303 2.424479,-0.357537 3.478366,0.446301 1.735812,1.323968 2.689913,1.532155 4.306193,0.939619 2.378551,-0.871988 2.492959,-0.883085 3.615045,-0.350619 1.4865182,0.705399 2.3709432,0.648273 3.8531032,-0.248881 1.054928,-0.638547 1.551411,-0.736252 3.050507,-0.600319 1.591734,0.144335 1.901099,0.0693 2.786663,-0.675849 0.81197697,-0.683235 1.32354797,-0.838208 2.766939,-0.838208 1.503371,0 1.864972,-0.119738 2.394483,-0.792904 0.584435,-0.742989 0.873269,-0.806246 4.588029,-1.004836 4.5545408,-0.243485 6.4475748,0.137833 9.7164458,1.957204 2.106467,1.172408 3.330679,2.332391 4.126466,3.909994 0.595892,1.181315 1.638593,1.159695 1.296691,-0.02689 z m 2.012199,-34.998661 c -89.14983,-50.761854 -89.14983,-50.761854 0,0 z M -1.3964308,11.567742 c -0.786374,-1.332807 -0.848741,-2.3360657 -0.19865,-3.1955637 0.75589897,-0.999386 0.58098,-1.173965 -1.029941,-1.02793 -3.385988,0.30695 -7.8404442,-0.810151 -9.1938642,-2.305663 -0.51391,-0.567865 -0.486123,-0.579735 0.721812,-0.30833 1.6958642,0.381035 4.7021382,-0.142199 6.0364262,-1.050625 1.300718,-0.885571 1.384747,-1.306678 0.195368,-0.97906 -1.655933,0.456131 -4.08436,0.162993 -6.9090652,-0.834004 -3.036442,-1.07173104 -6.973571,-1.69662204 -5.849536,-0.92842304 2.406639,1.64477004 3.217449,3.03714704 3.030716,5.20455604 -0.05276,0.612427 0.04418,1.244983 0.215445,1.405681 0.171259,0.160699 1.522711,0.533129 3.00323,0.827622 2.9601832,0.58882 5.5739362,1.6995067 8.5094402,3.6160027 1.056122,0.689505 1.96902997,1.131058 2.02868397,0.981228 0.05965,-0.149832 -0.19237397,-0.782301 -0.56006497,-1.405491 z M 35.603815,8.6499323 c 0.49593,-1.484981 -0.07596,-3.393603 -1.219302,-4.068967 -0.540698,-0.319401 -1.080283,-0.456903 -1.199053,-0.30556 -0.118782,0.151346 -0.541919,0.648829 -0.940298,1.105522 -0.802332,0.919754 -0.659866,2.03618 0.230124,1.803443 0.460527,-0.120427 0.511464,0.132065 0.398281,1.974446 -0.07136,1.1618927 -0.256855,2.3550967 -0.412166,2.6515607 -0.62029,1.183941 -0.183096,0.980876 1.292082,-0.600149 0.852553,-0.913719 1.685198,-2.0658517 1.850332,-2.5602957 z m -6.829202,2.0613537 c 0.359779,-3.4490377 0.587871,-4.4943127 0.881379,-4.0390157 0.236207,0.366413 0.334607,0.359591 0.597874,-0.04146 0.42621,-0.649254 0.42511,-0.652582 -0.618063,-1.872059 l -0.916989,-1.071966 -0.983662,0.727259 c -1.193161,0.882135 -1.776377,2.486312 -1.482555,4.077837 0.212537,1.151201 1.717482,3.8978807 2.13635,3.8990197 0.115757,3.15e-4 0.289273,-0.755515 0.385666,-1.679622 z m 9.970345,0.672577 c 2.297364,-2.0171037 2.701754,-3.9733427 1.039004,-5.0261207 l -1.036028,-0.655966 -0.724181,0.680326 c -0.757166,0.711321 -0.966316,1.981507 -0.385399,2.340534 0.369203,0.228181 0.10487,2.0258767 -0.372481,2.5327137 -0.380427,0.403963 -0.365877,1.13613 0.02262,1.13613 0.169898,0 0.825325,-0.453428 1.456514,-1.007617 z m -14.737152,0.127515 c -0.281253,-0.659757 -0.55416,-4.5941647 -0.27656,-3.9871017 0.145115,0.317352 0.293338,0.326836 0.637961,0.04082 0.626421,-0.519879 0.541847,-1.597336 -0.194768,-2.481244 l -0.622406,-0.746873 -0.915549,0.651923 c -1.520923,1.082994 -1.632388,1.340847 -1.314725,3.041226 0.187365,1.002892 0.662346,1.9903107 1.333631,2.7724017 1.112991,1.296709 1.743997,1.627445 1.352416,0.708846 z m -43.318428,-0.102206 c 0.948133,-0.188231 3.020025,-0.442493 4.604208,-0.565029 2.736607,-0.211677 2.840409,-0.246499 2.080239,-0.697884 -0.599578,-0.3560267 -2.003175,-0.4881637 -5.600645,-0.5272527 -4.969801,-0.054 -7.26795,-0.498402 -7.453032,-1.441218 -0.144802,-0.737628 1.153806,-2.153582 2.231136,-2.432746 l 0.978553,-0.253569 -0.83495,-0.99228 c -1.140522,-1.355434 -2.693926,-2.026184 -4.731199,-2.042902 -0.941509,-0.0077 -2.251898,-0.206781 -2.911974,-0.442343 -0.914735,-0.326443 -1.200139,-0.336369 -1.200139,-0.04175 0,0.891667 2.303972,2.406407 4.16048,2.735298 l 1.120129,0.198437 -1.347407,0.702419 c -1.823582,0.950653 -3.761062,0.913422 -5.684415,-0.109238 -1.195836,-0.635834 -1.483468,-0.69949 -1.327813,-0.293863 0.109287,0.284786 0.198694,0.725254 0.198694,0.978822 0,0.806295 2.666364,3.393001 4.160479,4.0361827 3.221095,1.386605 8.056391,1.883997 11.557656,1.188901 z M -40.222771,6.4123443 c 1.267964,-0.950039 1.921487,-1.90102 2.173983,-3.163499 0.155201,-0.776007 0.01861,-1.100643 -0.752089,-1.787327 l -0.941734,-0.83909004 -1.020635,0.64622004 c -0.789699,0.500002 -0.998646,0.83579 -0.923452,1.484021 0.0547,0.471484 0.275008,0.801844 0.503886,0.755571 0.589755,-0.119241 0.177097,1.408491 -0.786475,2.911675 l -0.787984,1.229263 0.743897,-0.22629 c 0.409144,-0.124458 1.214916,-0.579204 1.790603,-1.010544 z m -13.004228,-1.08204 c -0.05252,-1.166551 0.08218,-1.950745 0.40878,-2.379911 0.472992,-0.621518 0.487409,-0.614261 0.497293,0.250307 0.01281,1.120746 0.82771,3.110079 1.273995,3.110079 0.185002,0 0.338822,-0.396045 0.341825,-0.880101 0.0071,-1.125554 1.620384,-3.867906 2.165551,-3.680853 0.775931,0.26623 1.391246,-0.594767 1.179713,-1.65074904 -0.42954,-2.14429696 -0.434693,-2.15000596 -1.846389,-2.04632796 -1.129591,0.08296 -1.463393,0.289609 -2.293278,1.41971496 -0.808473,1.10095 -1.113177,1.296508 -1.818022,1.166801 -0.593401,-0.109201 -1.059374,0.05679 -1.557324,0.55473804 -0.589833,0.589832 -0.685696,0.969325 -0.564214,2.233597 0.155168,1.614874 1.364201,3.951276 1.94458,3.757817 0.204649,-0.06822 0.313845,-0.825521 0.26749,-1.855112 z m 7.158654,0.652773 c 0.116906,-0.532278 0.562088,-1.383168 0.98929,-1.890869 0.427202,-0.507702 0.990182,-1.332347 1.251064,-1.832546 0.377019,-0.722872 0.474736,-0.780482 0.476303,-0.28081 0.0018,0.577263 0.04397,0.586629 0.516005,0.114608 0.390787,-0.390787 0.460843,-0.828855 0.292189,-1.82710404 -0.122013,-0.722191 -0.330839,-1.38043696 -0.464058,-1.46276996 -0.133217,-0.08233 -0.762209,-0.0062 -1.397761,0.169365 -2.248275,0.62077796 -3.456399,3.341881 -2.795305,6.295966 0.424182,1.895443 0.81823,2.143981 1.132273,0.714156 z m 59.615464,-1.129441 c 0.654424,-0.273367 1.596805,-0.885437 2.094178,-1.360156 l 0.904324,-0.863124 -2.024451,-0.183601 c -1.369668,-0.124218 -2.179718,-0.056894 -2.504504,0.208156 -0.733648,0.598707 -2.8691588,1.41561 -3.7006218,1.41561 -0.408166,0 -0.83188,0.145235 -0.941586,0.322746 -0.573958,0.928682 4.1993148,1.284683 6.1726608,0.460369 z m -32.894068,-1.680567 c 0,-0.14156 -0.43478,-0.942957 -0.966176,-1.780882 -0.696434,-1.09816104 -1.373984,-1.70389504 -2.426875,-2.16963804 -0.803383,-0.35537696 -1.525381,-0.58145496 -1.604437,-0.50239796 -0.07906,0.07906 0.114354,0.83887496 0.429812,1.68848096 0.519953,1.40039304 0.737737,1.61236204 2.330584,2.26836504 1.958199,0.806469 2.237092,0.868313 2.237092,0.496072 z M 6.8716592,2.4153713 c 0.89353,-0.206251 1.624601,-0.463233 1.624601,-0.57107 0,-0.107838 -0.415838,-0.441711 -0.924088,-0.741941 -1.856491,-1.09665804 -2.397105,-4.415375 -0.968967,-5.948303 0.333518,-0.357989 0.480522,-0.728684 0.326674,-0.823767 -0.444787,-0.274894 -2.821488,2.509155 -3.056856,3.580775 -0.132133,0.601601 -0.0301,1.41176396 0.267505,2.12403396 0.474047,1.13455204 0.469167,1.15447204 -0.332165,1.35559504 -0.79403,0.199288 -4.11669103,-0.230299 -5.393266,-0.69729604 -1.458647,-0.533605 0.380386,0.84108904 1.93954697,1.44982704 1.82090703,0.710932 4.18788203,0.809775 6.51701503,0.272146 z m -16.617503,-3.26621704 c 0.792092,-0.25629296 2.448284,-0.83497696 3.680425,-1.28596496 2.874033,-1.051952 4.708968,-1.094831 5.35285197,-0.125091 l 0.470352,0.708388 1.53479003,-0.78983 c 1.729031,-0.889792 3.212799,-2.555502 3.551803,-3.987332 0.218588,-0.923237 0.203971,-0.939525 -0.380668,-0.424081 -0.823655,0.726172 -3.208614,1.289524 -4.93523503,1.165749 -1.38956897,-0.09961 -1.33845697,-0.131258 2.61937203,-1.62177 5.451371,-2.052977 6.988487,-2.029622 6.988487,0.106185 0,1.106344 0.606583,0.643126 0.9772218,-0.746258 0.199565,-0.748086 0.49338,-1.610231 0.652921,-1.915879 0.426742,-0.8175403 0.379023,-0.8844443 -0.630847,-0.8844443 -0.5065078,0 -1.1002068,-0.216024 -1.3193348,-0.480054 -0.219124,-0.264031 -0.765012,-0.480055 -1.213079,-0.480055 -0.712604,0 -9.479026,2.2938633 -13.973739,3.6564383 -0.871887,0.26431 -1.663879,0.401938 -1.759982,0.305835 -0.0961,-0.0961 0.289031,-0.5891 0.855849,-1.095554 0.566819,-0.506452 1.118966,-1.2729833 1.226996,-1.7034033 0.297168,-1.184016 1.288414,-1.948668 5.28819197,-4.079339 5.59654303,-2.981265 9.67301203,-4.441784 11.11770083,-3.983258 0.609665,0.193501 0.615654,0.257874 0.137272,1.475716 -0.297932,0.75846 -0.9181578,1.531699 -1.5337828,1.912176 -0.568468,0.351335 -1.229791,0.879428 -1.469604,1.173542 -0.557467,0.683694 2.6171828,-1.00882 3.5870228,-1.912365 0.899007,-0.837551 1.890845,-3.068461 1.654012,-3.720305 -0.366855,-1.009702 -1.556997,-1.898473 -2.8051668,-2.094837 -0.699439,-0.110037 -2.063798,-0.346601 -3.031911,-0.525696 -1.06785,-0.197547 -2.452555,-0.219133 -3.520405,-0.05488 -1.578193,0.24275 -1.751862,0.346443 -1.679541,1.0028 0.04437,0.40263 -0.135658,1.04089 -0.400048,1.418358 -0.46600503,0.665318 -0.48070703,0.651389 -0.48070703,-0.455431 0,-1.470977 -0.655349,-2.046447 -3.03694097,-2.666773 -2.370737,-0.617498 -3.043759,-0.622299 -3.043759,-0.02171 0,0.259972 -0.396046,0.723217 -0.880101,1.029432 -0.944314,0.597372 -4.3262242,3.943587 -3.9728182,3.930882 0.11681,-0.0042 0.7524462,-0.13305 1.4125222,-0.286333 1.368165,-0.31772 1.515339,-0.217279 0.487584,0.332757 -1.36621,0.731174 -2.8747252,0.895131 -4.1603922,0.452183 -0.681901,-0.234935 -1.191981,-0.3335 -1.133509,-0.219036 0.803208,1.572379 0.958492,2.002374 0.785567,2.175298 -0.112346,0.112347 -0.387773,0.05907 -0.61205,-0.118418 -0.224279,-0.177484 -0.767823,-0.395511 -1.207873,-0.484506 -0.440051,-0.08898 -1.052121,-0.267748 -1.360157,-0.397225 -0.819098,-0.344295 -0.690794,0.268668 0.303604,1.45044 l 0.863666,1.026412 -0.783659,-0.262079 c -0.431011,-0.144143 -1.359723,-0.282244 -2.063805,-0.30689 -0.70408,-0.02464 -1.532176,-0.156929 -1.840212,-0.293963 -0.900548,-0.400616 -0.655413,0.322275 0.414598,1.222631 1.357157,1.141972 3.248855,1.611489 4.64126,1.151953 0.60156,-0.198532 1.420281,-0.304326 1.819382,-0.235097 0.680978,0.118127 0.666548,0.150397 -0.234474,0.524361 -0.52806,0.21917 -1.284148,0.702033 -1.680194,1.073031 -0.396046,0.370998 -0.720082,0.505422 -0.720082,0.298719 0,-0.221807 -0.49839,-0.375824 -1.216141,-0.375824 -0.668877,0 -1.386558,-0.170419 -1.59485,-0.378711 -0.208291,-0.208291 -0.478624,-0.278796 -0.600741,-0.156679 -0.122116,0.122116 0.19952,0.662335 0.714749,1.200485 0.649823,0.6787313 1.157358,0.9363903 1.656863,0.8411333 0.790793,-0.150805 0.945547,0.161163 0.320036,0.645162 -0.786894,0.608875 -1.45402,0.671297 -2.328063,0.217838 -1.171673,-0.607873 -1.318808,-0.381619 -0.577389,0.887867 1.235227,2.114999 3.887017,1.94964 4.770366,-0.29747 0.259325,-0.659683 0.606691,-1.441181 0.771922,-1.7366653 0.204311,-0.365368 0.176133,-0.592037 -0.08809,-0.708519 -0.213678,-0.09421 0.115552,-0.140476 0.731624,-0.102826 0.869082,0.0531 1.141754,0.219941 1.216613,0.744392 0.231261,1.6201543 -3.183965,4.0565593 -6.257855,4.4643263 -1.90348,0.252505 -3.517138,-0.202251 -4.926891,-1.38848 l -0.990839,-0.833737 0.237422,1.101268 c 0.130583,0.605696 0.428745,1.475934 0.662584,1.93386 0.511452,1.001576 2.399753,2.710001 3.317164,3.001174 0.710052,0.225362 0.858743,0.646842 0.341065,0.96678396 -0.827581,0.511474 -0.01615,0.635044 3.76021,0.572631 2.519669,-0.04165 4.631611,-0.245699 5.5208582,-0.533427 z m 6.555022,-16.51522726 c 1.209408,-1.238547 1.399093,-2.24216 0.222526,-1.177381 -0.322976,0.292287 -1.108459,0.531431 -1.745518,0.531431 -1.148006,0 -1.155319,-0.0085 -0.823592,-0.960109 0.184081,-0.528061 0.468188,-0.96011 0.631345,-0.96011 0.163158,0 0.442455,-0.383494 0.620659,-0.852208 0.246255,-0.647697 0.413316,-0.762899 0.696161,-0.480055 0.204684,0.204683 0.746594,0.372151 1.204246,0.372151 1.034119,0 1.60018497,0.538783 1.60018497,1.523061 0,0.415235 0.134065,0.672117 0.297922,0.570845 0.163858,-0.10126 0.374675,-0.05993 0.468483,0.09185 0.0938,0.151785 -0.54889,0.612945 -1.42821997,1.024801 -0.879328,0.411854 -1.755854,0.938092 -1.947835,1.169416 -0.191981,0.231322 -0.504667,0.420585 -0.694856,0.420585 -0.190191,0 0.214131,-0.573422 0.898494,-1.27427 z m 0.185997,-1.470432 c 0.346962,-0.418064 0.33997,-0.554236 -0.04082,-0.795193 -0.252712,-0.159907 -0.621863,-0.292949 -0.820336,-0.295645 -0.524088,-0.0071 -1.1696,0.870234 -0.927952,1.261229 0.308325,0.49888 1.313079,0.40319 1.789112,-0.170391 z m 9.020799,-0.831836 c -0.572067,-0.155212 -1.040121,-0.333296 -1.040121,-0.395745 0,-0.345899 1.287487,-0.366806 1.914774,-0.03108 0.970355,0.519319 0.432902,0.781601 -0.874653,0.426838 z m -9.709269,10.2591733 c 0.718564,-0.250493 0.971286,-0.504597 0.84059,-0.8451873 -0.102794,-0.267854 0.04392,-0.839252 0.326004,-1.269773 0.282088,-0.430522 0.446912,-0.848742 0.366276,-0.929377 -0.238869,-0.238866 -2.14479,1.811204 -2.14479,2.307004 0,0.2504923 -0.144017,0.4554383 -0.320038,0.4554383 -0.176019,0 -0.320037,0.144017 -0.320037,0.320036 0,0.397639 0.0021,0.397575 1.251995,-0.03814 z m 6.343499,-1.9104533 c 0.421923,-0.160414 1.129801,-0.291663 1.573062,-0.291663 1.020136,0 0.8414,-0.756498 -0.215136,-0.910557 -0.927682,-0.135272 -4.48267503,0.56941 -5.032967,0.997649 -0.220027,0.171225 -0.400046,0.573955 -0.400046,0.894956 0,0.552896 0.08712,0.557767 1.65397597,0.09246 0.90968803,-0.270148 1.99918703,-0.622427 2.42111103,-0.782843 z"
         id="path1"
         sodipodi:nodetypes="cssssssscsssssssssscccsssssscsssssssssscsssssssssssssssssssssssssssssssssscscscsscsssssssssscsccssccsssssssscsscssssssssssssssssssssssssssssssssssssssscsssssscsssscscsscsccsssscssssssssssscscssscsssssssssscsssscsssssscsssssssssssssssscssssscssssssssssssssssssssssccsscssssssssssssssssssssssssssssssscssssssssscsssssssssssssssssssssssscssssscsssssssssssssssssscsssssssssssssssssssssss" /><g
         id="g50"
         transform="matrix(1.2095883,0,0,1.2095883,-102.51476,-31.892992)"
         style="fill:#ffffff;fill-opacity:1"><path
           style="fill:#ffffff;fill-opacity:1"
           d="m 87.685611,9.3238896 c 0.17098,-0.538706 0.11992,-0.572372 -0.63815,-0.420759 -0.59674,0.119349 -0.824,0.06629 -0.824,-0.192388 0,-0.39091 1.12118,-0.687917 2.59684,-0.687917 0.81814,0 1.59477,0.113603 4.74535,0.694138 0.32742,0.06033 0.59531,0.264504 0.59531,0.453716 0,0.462829 -3.10651,0.406849 -3.85125,-0.0694 -0.46702,-0.298653 -0.70421,-0.266099 -1.67695,0.230157 l -1.133,0.578011 z"
           id="path50" /><path
           style="fill:#ffffff;fill-opacity:1"
           d="m 84.716951,9.3457396 c -0.20305,-0.537957 -0.48028,-0.79375 -0.86025,-0.79375 -0.30836,0 -0.96661,-0.169623 -1.46279,-0.376939 -0.5455,-0.227924 -0.93645,-0.274004 -0.98893,-0.116563 -0.0477,0.143206 -0.7744,0.539838 -1.6148,0.881404 -1.58276,0.643281 -1.66907,0.249162 -0.12077,-0.551493 0.41829,-0.216306 0.84368,-0.611813 0.94531,-0.878905 0.17824,-0.46841 0.24978,-0.469199 2.01842,-0.02226 1.8909,0.477833 2.79657,1.174888 2.79657,2.152403 0,0.7546834 -0.37539,0.5998974 -0.71276,-0.293895 z"
           id="path49" /><path
           style="fill:#ffffff;fill-opacity:1"
           d="m 81.048401,10.90785 c -0.0986,-0.159486 0.0199,-0.486907 0.26326,-0.727604 0.41207,-0.4075524 0.42925,-0.4026504 0.24996,0.07132 -0.15717,0.415486 -0.10433,0.475112 0.28771,0.324673 0.4062,-0.155872 0.42868,-0.122164 0.14583,0.218649 -0.39506,0.476017 -0.6999,0.512388 -0.94676,0.112959 z"
           id="path48" /><path
           style="fill:#ffffff;fill-opacity:1"
           d="m 85.549561,11.77135 c 0.91104,-0.960528 1.19246,-1.102694 2.18281,-1.102694 1.47469,0 1.45515,0.386219 -0.0386,0.762342 -0.64653,0.162798 -1.62879,0.554082 -2.18281,0.869521 l -1.00731,0.573525 z"
           id="path47" /><path
           style="fill:#ffffff;fill-opacity:1"
           d="m 92.308881,13.994566 c 0,-0.07276 0.23813,-0.259733 0.52917,-0.415493 0.29104,-0.155761 0.52916,-0.223671 0.52916,-0.15091 0,0.07276 -0.23812,0.259732 -0.52916,0.415493 -0.29104,0.155761 -0.52917,0.22367 -0.52917,0.15091 z"
           id="path46" /><path
           style="fill:#ffffff;fill-opacity:1"
           d="m 73.258881,13.843656 c 0,-0.145521 -0.21537,-0.264583 -0.4786,-0.264583 -0.26322,0 -0.70971,-0.174757 -0.99218,-0.388349 -0.4723,-0.357125 -0.44446,-0.369246 0.3463,-0.150761 0.47294,0.130673 0.8599,0.171789 0.8599,0.09137 0,-0.08042 0.17859,0.002 0.39687,0.183158 0.45361,0.376463 0.52316,0.79375 0.13229,0.79375 -0.14552,0 -0.26458,-0.119062 -0.26458,-0.264583 z"
           id="path45" /><path
           style="fill:#ffffff;fill-opacity:1"
           d="m 69.356281,14.772114 c -0.47295,-0.205561 -0.8599,-0.415534 -0.8599,-0.466607 0,-0.05107 0.68461,-0.0073 1.52136,0.09719 0.83674,0.104529 1.81901,0.201923 2.18281,0.216431 0.52733,0.02103 0.58098,0.07838 0.26458,0.282858 -0.57083,0.368897 -2.10916,0.304631 -3.10885,-0.129875 z"
           id="path44" /><path
           style="fill:#ffffff;fill-opacity:1"
           d="m 77.227631,15.315167 c 0,-0.246381 0.11643,-0.665508 0.25872,-0.931392 0.22289,-0.416474 0.1265,-0.508232 -0.69596,-0.662527 -1.06529,-0.199849 -3.00234,-1.323951 -3.00234,-1.742303 0,-0.181684 0.17097,-0.179074 0.52041,0.0079 0.28623,0.153184 1.7475,0.29346 3.24728,0.311723 2.7887,0.03396 3.8046,-0.231304 5.04109,-1.316296 0.4329,-0.379861 0.45989,-0.378458 0.30851,0.01603 -0.0912,0.237772 -0.45897,0.624347 -0.81718,0.859055 -0.35821,0.234708 -0.78404,0.718101 -0.9463,1.074206 -0.19176,0.420869 -0.5137,0.647465 -0.9199,0.647465 -0.36452,0 -1.11855,0.455028 -1.80962,1.09203 -0.85952,0.792285 -1.18471,0.969071 -1.18471,0.644064 z"
           id="path43" /><path
           style="fill:#ffffff;fill-opacity:1"
           d="m 83.823771,17.3177 c 0.31189,-0.582775 3.48543,-1.468315 4.31662,-1.204506 0.40114,0.127316 -0.0691,0.369247 -1.8121,0.932381 -2.79283,0.9023 -2.8448,0.907947 -2.50452,0.272125 z"
           id="path42" /><path
           style="fill:#ffffff;fill-opacity:1"
           d="m 81.334321,17.880577 c 0.21301,-0.426992 0.64363,-1.003962 0.95693,-1.282156 0.56606,-0.502636 0.56773,-0.502184 0.26655,0.07211 -0.1667,0.317856 -0.30309,0.823871 -0.30309,1.12448 0,0.300608 -0.10932,0.54656 -0.24294,0.54656 -0.13362,0 -0.42785,0.07096 -0.65384,0.157677 -0.36739,0.140981 -0.36989,0.07547 -0.0236,-0.618672 z"
           id="path41" /><path
           style="fill:#ffffff;fill-opacity:1"
           d="m 75.375951,19.00041 c 0.13437,-0.885425 0.0865,-1.327892 -0.1716,-1.585991 -0.19688,-0.196881 -0.35797,-0.426001 -0.35797,-0.509156 0,-0.320635 0.55198,-0.128378 1.04398,0.363623 0.42487,0.424866 0.47164,0.665369 0.26768,1.376516 -0.13592,0.473936 -0.40943,1.024001 -0.6078,1.222367 -0.30449,0.304499 -0.33164,0.169424 -0.17429,-0.867359 z"
           id="path40" /><path
           style="fill:#ffffff;fill-opacity:1"
           d="m 89.133881,23.004175 c 0,-0.05494 0.20836,-0.263301 0.46302,-0.463021 0.41965,-0.329107 0.429,-0.319749 0.0999,0.0999 -0.34564,0.440729 -0.56291,0.580887 -0.56291,0.363126 z"
           id="path39" /><path
           style="fill:#ffffff;fill-opacity:1"
           d="m 68.231801,22.928285 c -0.94106,-0.403644 -2.64584,-1.863227 -2.64584,-2.265286 0,-0.121331 0.32743,0.02006 0.72761,0.314212 0.88466,0.650259 2.45016,0.936236 5.12513,0.936236 2.25867,0 2.49544,0.333818 0.73608,1.037775 -1.27916,0.511815 -2.71574,0.503458 -3.94298,-0.02294 z"
           id="path38" /><path
           style="fill:#ffffff;fill-opacity:1"
           d="m 73.655761,23.633239 c -0.42563,-0.182896 -0.33678,-0.23103 0.45404,-0.245987 0.54077,-0.01023 1.39424,-0.2146 1.8966,-0.45416 0.7116,-0.339341 0.90355,-0.582465 0.86887,-1.100529 -0.0385,-0.575543 0.1156,-0.708984 1.14611,-0.992303 0.65485,-0.180036 3.09563,-0.885889 5.42396,-1.568561 6.20727,-1.819987 6.74072,-1.944341 7.48591,-1.745047 0.57696,0.154302 0.40378,0.255523 -1.15461,0.674844 -1.00836,0.271323 -3.70924,1.119814 -6.00195,1.885535 -3.49827,1.168353 -4.28336,1.52864 -4.88244,2.240607 -0.39263,0.466613 -1.10256,1.010791 -1.57762,1.209285 -0.95543,0.399205 -2.83865,0.448778 -3.65887,0.09632 z"
           id="path37" /><path
           style="fill:#ffffff;fill-opacity:1"
           d="m 42.049792,30.269761 c -0.151979,-0.283975 -0.276325,-1.174846 -0.276325,-1.979714 0,-1.259565 0.114376,-1.593663 0.821158,-2.398644 0.580264,-0.660883 1.042981,-0.935248 1.577302,-0.935248 0.659004,0 0.792965,0.136744 1.042767,1.064438 0.404235,1.501215 -0.162488,2.164023 -0.956249,1.118375 -0.327016,-0.43079 -0.352068,-0.423452 -0.359897,0.105424 -0.0046,0.312645 -0.360318,1.237425 -0.790423,2.055066 -0.699147,1.329099 -0.811287,1.431913 -1.058333,0.970303 z"
           id="path36" /><path
           style="fill:#ffffff;fill-opacity:1"
           d="m 39.710406,30.843134 c -0.790845,-2.0911 -0.548207,-3.505729 0.601304,-3.505729 0.786017,0 0.789444,0.0242 0.257218,1.816398 -0.225934,0.760802 -0.336973,1.61585 -0.246754,1.900106 0.254198,0.800907 -0.301573,0.609425 -0.611768,-0.210775 z"
           id="path35" /><path
           style="fill:#ffffff;fill-opacity:1"
           d="m 45.861715,30.369341 c -0.30987,-2.480109 0.657619,-4.287226 2.54309,-4.750096 0.606126,-0.148799 0.710896,-0.06001 0.985666,0.835271 0.2235,0.728226 0.22795,1.075846 0.0163,1.273057 -0.20062,0.186942 -0.32884,0.168461 -0.4124,-0.05944 -0.204795,-0.558524 -0.606339,-0.366656 -0.606339,0.289722 0,0.341248 -0.255411,0.847264 -0.567579,1.124479 -0.312168,0.277216 -0.79399,1.010044 -1.070714,1.628507 -0.276725,0.618464 -0.548528,1.124479 -0.604008,1.124479 -0.05548,0 -0.183295,-0.659691 -0.284034,-1.46598 z"
           id="path34" /><path
           style="fill:#ffffff;fill-opacity:1"
           d="m 49.975551,32.294935 c 0,-0.04573 0.23812,-0.550211 0.52916,-1.121072 0.54296,-1.064977 0.77521,-3.039088 0.26459,-2.248958 -0.20135,0.311559 -0.25735,0.247004 -0.26053,-0.3003 -0.003,-0.461309 0.22822,-0.849365 0.6825,-1.147022 0.65974,-0.432277 0.71141,-0.426497 1.32292,0.147982 0.94816,0.890755 0.78756,1.930783 -0.52118,3.375 -0.49145,0.542322 -2.01746,1.521386 -2.01746,1.29437 z"
           id="path33" /><path
           style="fill:#ffffff;fill-opacity:1"
           d="m 59.765131,33.350546 c -1.35459,-0.282358 -3.05208,-1.340492 -3.67536,-2.291054 l -0.42197,-0.643538 0.6596,0.430441 c 1.66407,1.08593 4.21239,1.070488 5.57611,-0.03379 l 0.59323,-0.480367 -1.23364,-0.310633 c -0.6785,-0.170849 -1.62053,-0.66608 -2.09341,-1.100514 l -0.85977,-0.78988 1.19063,0.499817 c 0.65484,0.274899 1.7264,0.576016 2.38125,0.66915 0.65484,0.09313 1.36922,0.287183 1.5875,0.431223 0.34214,0.225772 0.32389,0.316626 -0.13229,0.658762 -1.22051,0.915368 -1.47778,1.227256 -1.62675,1.972099 -0.21888,1.094404 -0.57296,1.274304 -1.94513,0.988282 z"
           id="path32" /><path
           style="fill:#ffffff;fill-opacity:1"
           d="m 78.401721,33.950097 c -0.59118,-0.254891 -1.42462,-0.531463 -1.85208,-0.614603 -0.42747,-0.08314 -1.46188,-0.28455 -2.29869,-0.447578 l -1.52148,-0.296413 0.16054,-1.003958 c 0.22027,-1.3775 -0.63377,-3.268957 -1.79594,-3.977511 l -0.8779,-0.535234 0.79375,-0.0043 c 0.95637,-0.0052 5.42396,1.323817 5.42396,1.613545 0,0.35088 -1.56942,1.341632 -1.85028,1.168053 -0.14651,-0.09055 -0.26639,-0.05719 -0.26639,0.07414 0,0.342271 2.29499,2.205242 3.75664,3.049477 1.93221,1.116023 2.14872,1.759489 0.32787,0.974414 z"
           id="path31" /><path
           style="fill:#ffffff;fill-opacity:1"
           d="m 103.74471,35.469731 c -0.67357,-0.716988 -1.38166,-2.330518 -1.38166,-3.148413 0,-0.611816 1.21059,-2.079744 1.70314,-2.065182 0.15468,0.0046 0.49435,0.301167 0.75483,0.659098 0.39109,0.537419 0.41842,0.75387 0.15688,1.242555 -0.30658,0.572851 -0.32266,0.575041 -0.50289,0.06851 -0.32126,-0.902886 -0.58405,1.472356 -0.30185,2.728331 0.13767,0.612716 0.22418,1.114028 0.19226,1.114028 -0.0319,0 -0.31124,-0.269515 -0.62071,-0.598923 z"
           id="path30" /><path
           style="fill:#ffffff;fill-opacity:1"
           d="m 115.67053,36.046715 c 0.72452,-1.788528 0.79555,-2.361408 0.35338,-2.85 -0.41811,-0.462008 -0.4156,-0.528898 0.0409,-1.092669 0.56317,-0.695481 1.46806,-0.562805 1.91992,0.281499 0.39101,0.730611 -0.50215,2.637661 -1.6022,3.420966 -0.5223,0.371904 -0.80383,0.466885 -0.71201,0.240204 z"
           id="path29" /><path
           style="fill:#ffffff;fill-opacity:1"
           d="m 111.90927,35.764418 c 0.17402,-0.325167 0.23938,-1.043329 0.15258,-1.676599 -0.10515,-0.767141 -0.0286,-1.283783 0.24906,-1.680142 0.4164,-0.594503 0.16839,-0.793199 -0.34689,-0.277913 -0.33308,0.333074 -0.8704,0.1003 -0.86841,-0.376207 7.2e-4,-0.173313 0.2712,-0.652368 0.60106,-1.064567 0.55039,-0.687785 0.65925,-0.722336 1.32301,-0.419909 1.04374,0.475559 1.45057,2.092573 0.85742,3.407946 -0.39517,0.876328 -1.83187,2.656207 -2.14406,2.656207 -0.0705,0 0.009,-0.255967 0.17623,-0.568816 z"
           id="path28" /><path
           style="fill:#ffffff;fill-opacity:1"
           d="m 107.44506,35.436485 c -1.21932,-1.78622 -1.10277,-4.254141 0.24628,-5.214747 l 0.8105,-0.577127 0.62526,0.764624 c 0.62773,0.767662 0.82747,1.426082 0.43261,1.426082 -0.11641,0 -0.36991,-0.148828 -0.56332,-0.330729 -0.2892,-0.271987 -0.32096,-0.200532 -0.17881,0.402304 0.0951,0.403169 0.0353,0.990041 -0.1328,1.304161 -0.16811,0.31412 -0.37935,1.143262 -0.46942,1.842537 l -0.16377,1.27141 z"
           id="path27" /><path
           style="fill:#ffffff;fill-opacity:1"
           d="m 69.442101,62.801599 c -0.74464,-0.37963 -1.31646,-0.47826 -2.12802,-0.36702 -1.25365,0.17183 -2.58888,-0.36697 -3.05148,-1.23136 -0.26011,-0.48601 -0.23237,-0.5025 0.37769,-0.224538 0.47524,0.216538 1.04531,0.223498 2.04915,0.02501 1.12324,-0.222091 1.95237,-0.174499 4.31082,0.24744 4.10204,0.73389 7.78991,0.55589 11.38675,-0.549603 4.66105,-1.432576 9.29316,-1.692833 12.31781,-0.692081 l 1.17594,0.389076 -1.32292,-0.15456 c -2.50273,-0.2924 -6.71932,-0.126062 -7.53815,0.29737 -0.42347,0.218985 -1.30251,0.398155 -1.95341,0.398155 -0.89119,0 -1.38719,0.171423 -2.00836,0.694103 -0.73458,0.61811 -0.96954,0.67492 -2.14582,0.51888 -1.14099,-0.15135 -1.49808,-0.0756 -2.62143,0.55583 l -1.30051,0.73105 -1.13804,-0.54883 c -1.11253,-0.53653 -1.16767,-0.53832 -2.46095,-0.0798 -1.75026,0.62052 -2.71847,0.61829 -3.94907,-0.009 z"
           id="path4" /></g><text
         xml:space="preserve"
         style="font-size:24.3518px;line-height:1;font-family:Titania;-inkscape-font-specification:Titania;text-align:center;letter-spacing:1.215px;word-spacing:0px;writing-mode:lr-tb;direction:ltr;text-anchor:middle;fill:#0021a5;fill-opacity:1;stroke:#ffffff;stroke-width:2.44668"
         x="-9.1341858"
         y="28.13418"
         id="text50-4"
         transform="scale(0.81090197,1.2331947)"><tspan
           sodipodi:role="line"
           id="tspan50-9"
           style="font-style:normal;font-variant:normal;font-weight:normal;font-stretch:normal;font-size:24.3518px;font-family:'Western Brother Personal Use';-inkscape-font-specification:'Western Brother Personal Use';fill:#0021a5;fill-opacity:1;stroke:#ffffff;stroke-width:2.44668"
           x="-8.5266876"
           y="28.13418"><tspan
             style="font-size:27.3957px;fill:#0021a5;fill-opacity:1;stroke:#ffffff;stroke-width:2.44668"
             id="tspan51-5">R</tspan><tspan
             style="font-size:21.3081px;fill:#0021a5;fill-opacity:1;stroke:#ffffff;stroke-width:2.44668"
             id="tspan52-0">eptiles</tspan></tspan></text><text
         xml:space="preserve"
         style="font-size:24.3518px;line-height:1;font-family:Titania;-inkscape-font-specification:Titania;text-align:center;letter-spacing:1.215px;word-spacing:0px;writing-mode:lr-tb;direction:ltr;text-anchor:middle;fill:#0021a5;fill-opacity:1;stroke:none;stroke-width:2.44668"
         x="-9.1341858"
         y="28.13418"
         id="text50"
         transform="scale(0.81090197,1.2331947)"><tspan
           sodipodi:role="line"
           id="tspan50"
           style="font-style:normal;font-variant:normal;font-weight:normal;font-stretch:normal;font-size:24.3518px;font-family:'Western Brother Personal Use';-inkscape-font-specification:'Western Brother Personal Use';fill:#0021a5;fill-opacity:1;stroke:none;stroke-width:2.44668"
           x="-8.5266876"
           y="28.13418"><tspan
             style="font-size:27.3957px;fill:#0021a5;fill-opacity:1;stroke:none;stroke-width:2.44668"
             id="tspan51">R</tspan><tspan
             style="font-size:21.3081px;fill:#0021a5;fill-opacity:1;stroke:none;stroke-width:2.44668"
             id="tspan52">eptiles</tspan></tspan></text></g></g></svg>
