<?xml version="1.0" encoding="UTF-8" standalone="no"?>
<!-- Created with Inkscape (http://www.inkscape.org/) -->

<svg
   width="105.83334mm"
   height="105.83334mm"
   viewBox="0 0 105.83333 105.83333"
   version="1.1"
   id="svg1"
   xml:space="preserve"
   inkscape:version="1.4 (e7c3feb100, 2024-10-09)"
   sodipodi:docname="georgia.svg"
   inkscape:export-filename="../pngs/la.png"
   inkscape:export-xdpi="96"
   inkscape:export-ydpi="96"
   xmlns:inkscape="http://www.inkscape.org/namespaces/inkscape"
   xmlns:sodipodi="http://sodipodi.sourceforge.net/DTD/sodipodi-0.dtd"
   xmlns="http://www.w3.org/2000/svg"
   xmlns:svg="http://www.w3.org/2000/svg"><sodipodi:namedview
     id="namedview1"
     pagecolor="#ffffff"
     bordercolor="#000000"
     borderopacity="0.25"
     inkscape:showpageshadow="2"
     inkscape:pageopacity="0.0"
     inkscape:pagecheckerboard="0"
     inkscape:deskcolor="#d1d1d1"
     inkscape:document-units="mm"
     inkscape:zoom="1.1980835"
     inkscape:cx="349.72521"
     inkscape:cy="142.72795"
     inkscape:window-width="1920"
     inkscape:window-height="1011"
     inkscape:window-x="0"
     inkscape:window-y="32"
     inkscape:window-maximized="1"
     inkscape:current-layer="layer1"
     showgrid="false"
     showguides="true" /><defs
     id="defs1" /><g
     inkscape:label="Capa 1"
     inkscape:groupmode="layer"
     id="layer1"><g
       id="g13"
       transform="translate(0.35704422,-6.8782883)"><ellipse
         style="fill:#ba0c2f;fill-opacity:1;stroke:#ffffff;stroke-width:2.62934;stroke-dasharray:none;stroke-opacity:1"
         id="path13"
         cx="52.559628"
         cy="59.79496"
         rx="50.841602"
         ry="38.108624" /><path
         style="font-size:115.38px;line-height:1;font-family:'Ranked Sports';-inkscape-font-specification:'Ranked Sports';text-align:center;letter-spacing:11.2723px;word-spacing:0px;text-anchor:middle;stroke:#ffffff;stroke-width:1.66457;stroke-dasharray:none"
         d="m 67.501103,85.184078 c -3.018273,0 -5.689998,-0.614832 -8.015175,-1.844497 -2.347561,-1.229666 -4.192049,-3.130058 -5.533509,-5.701177 -0.603645,-1.252022 -1.095522,-2.660548 -1.475594,-4.225576 -0.357716,-1.587387 -0.536579,-3.297739 -0.536579,-5.131059 V 62.748277 H 64.48283 v 3.688995 l -1.173775,1.509134 c 0.111795,1.475599 0.257116,2.537582 0.435978,3.185951 0.201209,0.626011 0.39125,1.017269 0.570112,1.173772 0.558944,0.648369 1.218487,0.972552 1.978649,0.972552 0.491867,0 1.00609,-0.156501 1.542669,-0.469508 0.514223,-0.223575 0.849593,-0.614832 1.006091,-1.173771 0.335361,-0.670726 0.503045,-1.509134 0.503045,-2.515224 V 47.522783 H 51.731307 V 37.32774 h 33.342824 v 10.195043 h -3.856678 v 21.597395 c 0,3.174773 -0.547757,6.014181 -1.64327,8.518226 -1.073175,2.347544 -2.6382,4.192042 -4.695093,5.533494 -2.079248,1.341454 -4.538577,2.01218 -7.377987,2.01218 z"
         id="text11"
         aria-label="J"
         sodipodi:nodetypes="scccsccccccsccsccccccsccs" /><text
         xml:space="preserve"
         style="font-style:normal;font-variant:normal;font-weight:normal;font-stretch:normal;font-size:65.4646px;line-height:1;font-family:'Ranked Sports';-inkscape-font-specification:'Ranked Sports';text-align:center;letter-spacing:6.4019px;word-spacing:0px;writing-mode:lr-tb;direction:ltr;text-anchor:middle;fill:#000000;fill-opacity:1;stroke:#ffffff;stroke-width:1.58812;stroke-dasharray:none;stroke-opacity:1"
         x="32.142178"
         y="84.149445"
         id="text12"><tspan
           sodipodi:role="line"
           id="tspan11"
           style="font-size:65.4646px;stroke:#ffffff;stroke-width:1.58812;stroke-dasharray:none"
           x="35.343128"
           y="84.149445">G</tspan></text></g></g></svg>
