<?xml version="1.0" encoding="UTF-8" standalone="no"?>
<!-- Created with Inkscape (http://www.inkscape.org/) -->

<svg
   width="105.83334mm"
   height="105.83334mm"
   viewBox="0 0 105.83333 105.83333"
   version="1.1"
   id="svg1"
   xml:space="preserve"
   inkscape:version="1.4 (e7c3feb100, 2024-10-09)"
   sodipodi:docname="indiana.svg"
   inkscape:export-filename="../pngs/charlotte.png"
   inkscape:export-xdpi="96"
   inkscape:export-ydpi="96"
   xmlns:inkscape="http://www.inkscape.org/namespaces/inkscape"
   xmlns:sodipodi="http://sodipodi.sourceforge.net/DTD/sodipodi-0.dtd"
   xmlns="http://www.w3.org/2000/svg"
   xmlns:svg="http://www.w3.org/2000/svg"><sodipodi:namedview
     id="namedview1"
     pagecolor="#ffffff"
     bordercolor="#000000"
     borderopacity="0.25"
     inkscape:showpageshadow="2"
     inkscape:pageopacity="0.0"
     inkscape:pagecheckerboard="0"
     inkscape:deskcolor="#d1d1d1"
     inkscape:document-units="mm"
     inkscape:zoom="0.67676352"
     inkscape:cx="179.53095"
     inkscape:cy="-29.55242"
     inkscape:window-width="1920"
     inkscape:window-height="1011"
     inkscape:window-x="0"
     inkscape:window-y="32"
     inkscape:window-maximized="1"
     inkscape:current-layer="layer1"
     showgrid="false"
     showguides="true" /><defs
     id="defs1" /><g
     inkscape:label="Capa 1"
     inkscape:groupmode="layer"
     id="layer1"><g
       id="g1"
       transform="matrix(0.97013608,0,0,0.97013608,-66.71045,126.29733)"><path
         id="text1-2"
         style="font-size:82.9756px;line-height:1;font-family:'Lifestyle Rounded M54';-inkscape-font-specification:'Lifestyle Rounded M54';text-align:center;letter-spacing:-8.21233px;word-spacing:0px;text-anchor:middle;fill:#800000;stroke:#ffffff;stroke-width:6.74;stroke-dasharray:none"
         d="m 128.0795,-124.63422 c -0.16798,-6.1e-4 -0.32541,0.005 -0.49196,0.0155 -0.65381,0.0429 -1.29733,0.17222 -1.64951,0.33073 -0.16685,0.0751 -0.21754,0.11592 -0.25011,0.20153 -0.0404,0.10614 -0.009,0.29321 0.0625,0.37776 0.0435,0.0512 0.0478,0.0534 0.21187,0.11782 0.23008,0.0903 0.38602,0.18357 0.61702,0.36845 0.27042,0.21645 0.35389,0.30214 0.6103,0.62477 0.69356,0.87271 0.8499,1.34231 0.8878,2.67271 0.0189,0.6628 0.0233,0.75112 0.0605,1.12086 0.0452,0.44974 0.11285,1.04109 0.12609,1.10484 0.006,0.0275 0.0395,0.18557 0.0754,0.3514 0.0771,0.35501 0.15368,0.7749 0.17673,0.96945 0.0299,0.25258 0.0238,0.72863 -0.0145,1.12345 -0.0243,0.25074 -0.0822,0.52719 -0.32246,1.54409 -0.0551,0.2333 -0.19987,0.92434 -0.30231,1.44229 -0.087,0.43987 -0.11003,0.52498 -0.22324,0.8232 -0.10659,0.28075 -0.15551,0.37824 -0.27802,0.55604 -0.0972,0.14103 -0.39066,0.53166 -0.62167,0.82734 -0.28506,0.36482 -0.28968,0.3711 -0.34933,0.48731 -0.0436,0.0846 -0.0623,0.13336 -0.0811,0.21084 -0.028,0.11546 -0.0235,0.22657 0.0109,0.26355 0.0314,0.0338 0.11586,0.0625 0.20981,0.0713 0.11384,0.0106 0.26292,0.003 0.78238,-0.0393 0.70727,-0.0577 1.14644,-0.0718 2.13578,-0.0677 0.80631,0.003 1.29119,0.023 2.12752,0.0858 0.48071,0.0361 0.87005,0.0461 1.58905,0.0413 1.14882,-0.008 1.55004,0.0126 2.75022,0.13591 1.00433,0.10322 1.49665,0.17378 2.05259,0.29455 0.98638,0.21428 1.95811,0.5962 2.77244,1.09038 0.29642,0.17988 0.64003,0.44362 0.88884,0.68161 0.46774,0.44742 0.83207,0.93734 0.91984,1.23765 0.0302,0.10315 0.0331,0.0994 0.0703,-0.0935 0.0834,-0.43218 0.0949,-0.82216 0.0429,-1.42524 -0.0443,-0.51298 -0.0373,-0.94529 0.03,-1.87637 0.053,-0.73358 0.0392,-1.1259 -0.0543,-1.53634 -0.0421,-0.18493 -0.17747,-0.60083 -0.43822,-1.34514 -0.1112,-0.31741 -0.27158,-0.87915 -0.33848,-1.18701 -0.0164,-0.0756 -0.0428,-0.27224 -0.0589,-0.43718 -0.0616,-0.6325 -0.0634,-1.20953 -0.007,-2.20968 0.0321,-0.56704 0.0436,-0.68583 0.11782,-1.21182 0.0684,-0.4852 0.12865,-1.01129 0.14831,-1.29449 0.022,-0.31715 0.006,-0.68874 -0.0434,-0.99891 -0.0466,-0.29264 -0.38492,-0.82217 -0.81496,-1.27588 -0.29281,-0.30893 -1.18006,-0.97645 -1.87947,-1.41387 -0.42431,-0.26537 -1.95674,-1.07167 -2.7404,-1.44177 -0.22325,-0.10543 -1.07875,-0.43891 -1.36684,-0.53278 -0.81894,-0.26688 -1.52941,-0.43917 -2.44792,-0.59325 -0.50761,-0.0851 -0.80652,-0.1152 -1.25108,-0.12609 -0.18652,-0.005 -0.36429,-0.004 -1.28003,0.005 -0.52447,0.005 -0.82413,-0.004 -1.61695,-0.0512 -0.20838,-0.0123 -0.38702,-0.019 -0.55501,-0.0196 z m -25.74468,0.65113 v 13.30926 h 4.7408 v 13.603306 h -4.07417 V -84.0646 h 4.07417 v 18.921326 h -4.7408 v 13.061735 l 4.85449,0.03566 v 25.401027 h 12.96561 v -25.304912 l 4.48913,0.03307 v -0.176217 h 8.39639 c 2.09385,0 4.14755,-0.282214 6.16086,-0.845943 1.8791,-0.536885 3.61019,-1.301714 5.194,-2.294951 2.3623,-1.3959 4.33573,-3.261626 5.91954,-5.597073 1.1543,-1.718032 2.08017,-3.704411 2.77812,-5.959327 0.64427,-2.308604 0.99328,-4.724777 1.04697,-7.248137 v -0.483174 c 0,-2.65758 -0.40287,-5.247744 -1.2082,-7.771102 -0.72479,-2.120692 -1.79824,-4.147462 -3.22099,-6.080246 -1.36906,-1.744875 -3.03335,-3.328904 -4.99298,-4.751648 -2.067,-1.422744 -4.34906,-2.496714 -6.84557,-3.221508 -1.77172,-0.483197 -3.46294,-0.724504 -5.0736,-0.724504 h -12.89533 v -13.603306 h 4.74079 v -13.30926 z m 42.2522,9.03045 c -0.23413,-0.002 -0.416,0.004 -0.56017,0.015 -0.0814,0.006 -0.29448,0.007 -0.47387,0 -0.17939,-0.007 -0.34927,-0.0108 -0.37724,-0.009 l -0.0506,0.002 0.007,0.13901 c 0.005,0.10964 0.002,0.15836 -0.0176,0.23358 -0.0429,0.16716 -0.0416,0.22044 0.0134,0.48266 0.0438,0.20855 0.0602,0.41607 0.0739,0.92656 0.001,0.0514 0.0151,0.16436 0.0305,0.25166 0.0574,0.32577 0.0723,0.36752 0.35088,0.99477 0.27209,0.61258 0.34524,0.7975 0.42427,1.07435 0.1065,0.37311 0.128,0.54402 0.1297,1.02113 0.002,0.50604 -0.0168,0.81169 -0.0915,1.5043 -0.04,0.37038 -0.0642,0.67045 -0.10593,1.3069 -0.028,0.42611 -0.0608,0.66642 -0.14056,1.02888 -0.0292,0.13287 -0.24648,0.93002 -0.30593,1.12241 -0.0974,0.3154 -0.24166,0.6909 -0.32298,0.83922 -0.1828,0.33362 -0.42172,0.65943 -0.75551,1.03043 -0.0954,0.10603 -0.20633,0.19652 -0.36793,0.30076 -0.10362,0.0668 -0.71306,0.35007 -1.21336,0.56379 -0.15647,0.0668 -0.22748,0.10454 -0.3204,0.17105 -0.19451,0.13921 -0.32238,0.26911 -0.44545,0.45113 -0.13626,0.20152 -0.29175,0.64193 -0.28525,0.80874 0.003,0.0712 0.0609,0.19258 0.13901,0.29094 0.0727,0.0916 0.20961,0.2163 0.45578,0.414442 0.48246,0.388333 0.67594,0.509716 1.07229,0.674894 0.0457,0.01901 0.0929,0.03711 0.1049,0.0403 0.0121,0.0032 0.0609,0.01708 0.10852,0.03101 0.12399,0.03647 0.37592,0.09391 0.54157,0.12299 0.26927,0.04731 0.83045,0.105552 0.96687,0.100256 0.15464,-0.006 0.40359,-0.03217 0.5457,-0.05736 0.12064,-0.0214 0.48034,-0.130634 0.99839,-0.302825 0.83683,-0.278152 1.43361,-0.432806 2.389,-0.620117 0.82695,-0.16212 2.38214,-0.44566 2.81017,-0.51211 0.7378,-0.11448 1.55366,-0.1657 1.97559,-0.12351 0.36701,0.0367 0.82788,0.10991 1.22111,0.19379 0.10401,0.0222 0.4046,0.0853 0.66818,0.14004 0.73947,0.15372 1.05424,0.22514 1.3565,0.306958 1.2489,0.338137 1.89973,0.601659 2.38074,0.965316 0.0771,0.05825 0.22555,0.176586 0.33021,0.262516 0.10466,0.08594 0.18908,0.149577 0.18758,0.141076 -0.0204,-0.119014 -0.2501,-1.024409 -0.30644,-1.207677 -0.0398,-0.129419 -0.14039,-0.412779 -0.1912,-0.538989 -0.0917,-0.22768 -0.24827,-0.51267 -0.43357,-0.79013 -0.143,-0.21412 -0.85511,-1.21994 -1.18597,-1.67483 -0.64164,-0.88218 -0.73145,-0.99107 -1.11569,-1.35083 -0.57207,-0.53559 -1.09002,-0.91699 -2.09497,-1.54254 -0.37688,-0.23459 -0.76668,-0.48646 -1.19682,-0.77411 -0.5011,-0.3351 -0.84158,-0.54296 -1.22784,-0.74931 -0.15645,-0.0836 -0.18715,-0.1088 -0.22685,-0.18603 -0.0348,-0.0677 -0.0438,-0.16633 -0.0212,-0.22583 0.0167,-0.0439 0.1275,-0.17388 0.22375,-0.262 0.25748,-0.23566 0.68676,-0.46626 1.13689,-0.61133 0.47395,-0.15276 0.9326,-0.14796 1.52704,0.016 0.0928,0.0256 0.34282,0.10428 0.55552,0.17518 0.2127,0.0709 0.45466,0.14683 0.53743,0.16847 0.34929,0.0914 0.73813,0.24608 1.1188,0.44493 0.26507,0.13847 0.61696,0.34014 0.68264,0.39119 0.0775,0.0599 0.0917,0.0659 0.0811,0.0346 -0.0309,-0.0922 -0.59501,-1.22603 -0.75189,-1.51102 -0.46154,-0.83832 -0.80484,-1.31174 -1.67588,-2.31243 -0.10355,-0.11896 -0.32522,-0.38289 -0.49247,-0.58653 -0.51892,-0.63182 -0.79619,-0.91616 -1.15032,-1.17874 -0.49421,-0.36642 -0.98355,-0.57139 -2.14199,-0.89813 -0.74052,-0.20885 -0.72337,-0.20308 -1.6092,-0.54364 -0.89921,-0.34567 -1.11848,-0.42068 -1.35548,-0.46405 -0.39839,-0.0729 -0.67043,-0.1 -1.25832,-0.12506 -0.35353,-0.0151 -0.64023,-0.0237 -0.87436,-0.0253 z m -8.10648,7.63881 0.0284,0.13074 c 0.0747,0.34727 0.0771,0.68094 0.009,1.29398 -0.0453,0.40575 -0.0409,0.54051 0.0305,0.87178 0.0316,0.14681 0.13229,0.50123 0.20877,0.73639 0.0299,0.0918 0.083,0.27966 0.11782,0.41755 0.10848,0.42894 0.15545,0.55499 0.25322,0.67748 0.0263,0.0329 0.10867,0.14199 0.18293,0.24236 0.12608,0.1704 0.17057,0.24605 0.32712,0.55242 0.033,0.0647 0.0975,0.16589 0.14314,0.22479 0.0456,0.0589 0.19969,0.26914 0.34261,0.46716 0.14293,0.19802 0.29527,0.40337 0.33797,0.4563 0.0427,0.0529 0.0813,0.0978 0.0863,0.10026 0.005,0.002 0.0127,-0.0146 0.0171,-0.0377 0.0593,-0.31003 0.14787,-0.6019 0.26096,-0.8599 0.2796,-0.63773 0.76154,-1.19727 1.29708,-1.50637 0.16494,-0.0952 0.412,-0.2055 0.4899,-0.21859 0.12555,-0.0211 0.39559,-0.12303 0.4718,-0.17828 0.0997,-0.0723 0.23049,-0.19628 0.27544,-0.26045 0.0593,-0.0847 0.12695,-0.23941 0.13435,-0.30748 0.006,-0.0554 0.003,-0.0623 -0.0992,-0.22169 -0.33111,-0.51443 -0.67204,-0.94812 -0.97255,-1.23713 -0.28059,-0.26986 -0.45398,-0.40679 -0.7121,-0.56276 -0.10447,-0.0631 -0.15055,-0.0834 -0.42219,-0.18552 -0.7121,-0.2675 -0.92667,-0.30853 -2.02727,-0.39067 -0.2346,-0.0175 -0.49421,-0.0786 -0.67489,-0.15813 z m -16.32562,23.24923 h 12.44265 c 2.41598,0 4.49609,1.020117 6.24097,3.060278 1.77172,2.013318 2.65772,4.335248 2.65772,6.965983 0,2.496515 -0.84561,4.604064 -2.5368,6.322095 -1.69119,1.718032 -3.6641,2.577104 -5.91902,2.577104 h -8.39639 v -0.0042 h -4.48913 z" /><path
         id="text1"
         style="font-size:82.9756px;line-height:1;font-family:'Lifestyle Rounded M54';-inkscape-font-specification:'Lifestyle Rounded M54';text-align:center;letter-spacing:-8.21233px;word-spacing:0px;text-anchor:middle;fill:#800000;stroke-width:13.4404"
         d="m 128.0795,-124.63422 c -0.16798,-6.1e-4 -0.32541,0.005 -0.49196,0.0155 -0.65381,0.0429 -1.29733,0.17222 -1.64951,0.33073 -0.16685,0.0751 -0.21754,0.11592 -0.25011,0.20153 -0.0404,0.10614 -0.009,0.29321 0.0625,0.37776 0.0435,0.0512 0.0478,0.0534 0.21187,0.11782 0.23008,0.0903 0.38602,0.18357 0.61702,0.36845 0.27041,0.21645 0.35389,0.30214 0.61029,0.62477 0.69357,0.87271 0.84991,1.34231 0.8878,2.67271 0.0189,0.6628 0.0233,0.75112 0.0605,1.12086 0.0452,0.44974 0.11285,1.04109 0.12609,1.10484 0.006,0.0275 0.0395,0.18557 0.0754,0.3514 0.0771,0.35502 0.15369,0.7749 0.17674,0.96945 0.0299,0.25259 0.0238,0.72863 -0.0145,1.12345 -0.0243,0.25074 -0.0822,0.52719 -0.32246,1.54409 -0.0551,0.2333 -0.19987,0.92434 -0.30231,1.44229 -0.087,0.43987 -0.11003,0.52498 -0.22324,0.8232 -0.10659,0.28075 -0.15551,0.37824 -0.27802,0.55604 -0.0972,0.14103 -0.39066,0.53166 -0.62167,0.82734 -0.28506,0.36482 -0.28968,0.3711 -0.34933,0.48731 -0.0436,0.0846 -0.0623,0.13336 -0.0811,0.21084 -0.028,0.11546 -0.0235,0.22657 0.0109,0.26355 0.0314,0.0338 0.11586,0.0625 0.20981,0.0713 0.11384,0.0106 0.26291,0.003 0.78238,-0.0393 0.70727,-0.0577 1.14644,-0.0718 2.13578,-0.0677 0.80631,0.003 1.29119,0.023 2.12752,0.0858 0.48071,0.0361 0.87005,0.0461 1.58905,0.0413 1.14882,-0.008 1.55004,0.0125 2.75022,0.13591 1.00432,0.10322 1.49664,0.17378 2.05259,0.29455 0.98638,0.21427 1.95811,0.5962 2.77244,1.09037 0.29642,0.17989 0.64003,0.44363 0.88884,0.68162 0.46774,0.44742 0.83207,0.93734 0.91984,1.23765 0.0302,0.10315 0.0331,0.0994 0.0703,-0.0935 0.0834,-0.43218 0.0949,-0.82216 0.0429,-1.42523 -0.0443,-0.51298 -0.0374,-0.9453 0.03,-1.87637 0.053,-0.73358 0.0392,-1.1259 -0.0543,-1.53635 -0.0421,-0.18492 -0.17746,-0.60083 -0.43822,-1.34513 -0.1112,-0.31742 -0.27158,-0.87916 -0.33848,-1.18701 -0.0164,-0.0756 -0.0428,-0.27224 -0.0589,-0.43718 -0.0616,-0.6325 -0.0634,-1.20953 -0.007,-2.20969 0.0321,-0.56703 0.0436,-0.68583 0.11783,-1.21181 0.0684,-0.48521 0.12865,-1.0113 0.14831,-1.2945 0.0221,-0.31714 0.006,-0.68873 -0.0434,-0.9989 -0.0466,-0.29265 -0.3849,-0.82218 -0.81494,-1.27589 -0.29281,-0.30893 -1.18006,-0.97645 -1.87947,-1.41387 -0.42431,-0.26537 -1.95674,-1.07167 -2.7404,-1.44177 -0.22325,-0.10543 -1.07875,-0.43891 -1.36684,-0.53278 -0.81894,-0.26688 -1.52941,-0.43917 -2.44792,-0.59325 -0.50761,-0.0851 -0.80652,-0.1152 -1.25108,-0.12609 -0.18653,-0.005 -0.36429,-0.004 -1.28003,0.005 -0.52447,0.005 -0.82413,-0.004 -1.61695,-0.0512 -0.20838,-0.0123 -0.38702,-0.019 -0.55501,-0.0196 z m -25.74468,0.65113 v 13.30926 h 4.7408 v 13.603306 h -4.07417 V -84.0646 h 4.07417 v 18.921326 h -4.7408 v 13.061735 l 4.85449,0.03566 v 25.401028 h 12.96561 v -25.30491 l 4.48913,0.03307 v -0.176217 h 8.39639 c 2.09385,0 4.14755,-0.282214 6.16086,-0.845943 1.8791,-0.536885 3.61019,-1.301714 5.194,-2.294951 2.3623,-1.3959 4.33573,-3.261626 5.91954,-5.597073 1.1543,-1.718032 2.08017,-3.704411 2.77812,-5.959327 0.64427,-2.308604 0.99328,-4.724778 1.04697,-7.248137 v -0.483174 c 0,-2.65758 -0.40287,-5.247744 -1.2082,-7.771102 -0.72479,-2.120695 -1.79824,-4.147465 -3.22099,-6.080249 -1.36906,-1.744876 -3.03335,-3.328904 -4.99298,-4.751648 -2.067,-1.422744 -4.34906,-2.496714 -6.84557,-3.221508 -1.77172,-0.483197 -3.46294,-0.724504 -5.0736,-0.724504 h -12.89533 v -13.603306 h 4.74079 v -13.30926 z m 42.2522,9.03045 c -0.23413,-0.002 -0.416,0.003 -0.56017,0.015 -0.0814,0.007 -0.29448,0.007 -0.47387,0 -0.1794,-0.007 -0.34927,-0.0108 -0.37724,-0.009 l -0.0506,0.003 0.007,0.13901 c 0.005,0.10964 0.002,0.15836 -0.0176,0.23358 -0.0429,0.16716 -0.0416,0.22044 0.0134,0.48266 0.0438,0.20855 0.0602,0.41607 0.0739,0.92656 0.001,0.0514 0.0151,0.16436 0.0305,0.25166 0.0574,0.32577 0.0723,0.36752 0.35088,0.99477 0.27209,0.61258 0.34523,0.7975 0.42426,1.07435 0.10651,0.37311 0.12801,0.54402 0.12971,1.02113 0.002,0.50604 -0.0168,0.81169 -0.0915,1.5043 -0.0399,0.37038 -0.0642,0.67045 -0.10593,1.3069 -0.028,0.42611 -0.0608,0.66642 -0.14056,1.02888 -0.0292,0.13287 -0.24648,0.93002 -0.30593,1.12241 -0.0974,0.3154 -0.24166,0.6909 -0.32298,0.83922 -0.1828,0.33362 -0.42172,0.65943 -0.75551,1.03043 -0.0954,0.10603 -0.20633,0.19652 -0.36793,0.30076 -0.10362,0.0668 -0.71306,0.35007 -1.21336,0.56379 -0.15647,0.0668 -0.22748,0.10454 -0.3204,0.17105 -0.19451,0.1392 -0.32238,0.26911 -0.44545,0.45113 -0.13626,0.20152 -0.29175,0.64192 -0.28525,0.80874 0.003,0.0712 0.0609,0.19258 0.13901,0.29094 0.0727,0.0916 0.20961,0.2163 0.45578,0.414441 0.48246,0.388333 0.67594,0.509716 1.07229,0.674894 0.0457,0.01901 0.0929,0.03711 0.1049,0.04031 0.0121,0.0031 0.061,0.01708 0.10852,0.03101 0.12399,0.03647 0.37592,0.09391 0.54157,0.12299 0.26927,0.04731 0.83045,0.105552 0.96687,0.100251 0.15464,-0.006 0.40359,-0.03217 0.5457,-0.05736 0.12064,-0.0214 0.48034,-0.130634 0.99839,-0.302825 0.83683,-0.278153 1.43361,-0.432806 2.389,-0.620117 0.82695,-0.162134 2.38214,-0.445664 2.81017,-0.512114 0.7378,-0.11448 1.55366,-0.1657 1.97559,-0.12351 0.36701,0.0367 0.82788,0.10991 1.22111,0.19379 0.10401,0.0222 0.4046,0.0853 0.66818,0.14004 0.73947,0.15373 1.05424,0.22514 1.3565,0.306962 1.2489,0.338137 1.89973,0.601659 2.38074,0.965315 0.0771,0.05825 0.22555,0.176586 0.33021,0.262517 0.10466,0.08594 0.18908,0.149576 0.18758,0.141076 -0.0204,-0.119014 -0.2501,-1.024409 -0.30644,-1.207678 -0.0398,-0.129418 -0.14039,-0.412782 -0.1912,-0.538992 -0.0917,-0.22768 -0.24827,-0.51268 -0.43357,-0.79013 -0.143,-0.21412 -0.85511,-1.21995 -1.18597,-1.67483 -0.64164,-0.88218 -0.73145,-0.99107 -1.11569,-1.35083 -0.57207,-0.53559 -1.09002,-0.91699 -2.09497,-1.54254 -0.37688,-0.23459 -0.76668,-0.48646 -1.19682,-0.77411 -0.5011,-0.3351 -0.84158,-0.54296 -1.22784,-0.74931 -0.15645,-0.0836 -0.18715,-0.1088 -0.22685,-0.18603 -0.0348,-0.0677 -0.0438,-0.16633 -0.0212,-0.22583 0.0167,-0.0439 0.1275,-0.17388 0.22376,-0.262 0.25748,-0.23566 0.68675,-0.46626 1.13688,-0.61133 0.47395,-0.15276 0.9326,-0.14796 1.52704,0.016 0.0928,0.0256 0.34282,0.10428 0.55552,0.17517 0.21271,0.0709 0.45466,0.14683 0.53743,0.16847 0.34929,0.0914 0.73814,0.24609 1.1188,0.44493 0.26507,0.13847 0.61696,0.34015 0.68264,0.39119 0.0775,0.0599 0.0917,0.0659 0.0811,0.0346 -0.031,-0.0922 -0.59502,-1.22602 -0.7519,-1.51101 -0.46153,-0.83841 -0.80483,-1.31184 -1.67586,-2.31252 -0.10356,-0.11897 -0.32523,-0.3829 -0.49248,-0.58653 -0.51892,-0.63183 -0.79618,-0.91617 -1.15032,-1.17874 -0.4942,-0.36643 -0.98354,-0.57139 -2.14199,-0.89814 -0.74051,-0.20885 -0.72336,-0.20308 -1.6092,-0.54363 -0.89921,-0.34568 -1.11848,-0.42069 -1.35547,-0.46406 -0.39839,-0.0729 -0.67043,-0.10001 -1.25832,-0.12506 -0.35353,-0.0151 -0.64024,-0.0237 -0.87437,-0.0253 z m -8.10648,7.63881 0.0284,0.13074 c 0.0747,0.34727 0.0771,0.68094 0.009,1.29398 -0.0453,0.40575 -0.0409,0.54051 0.0305,0.87178 0.0316,0.14681 0.13229,0.50123 0.20877,0.73639 0.0298,0.0918 0.0829,0.27966 0.11782,0.41755 0.10848,0.42894 0.15545,0.55499 0.25322,0.67748 0.0263,0.0329 0.10867,0.14199 0.18293,0.24236 0.12608,0.1704 0.17056,0.24605 0.32711,0.55242 0.033,0.0647 0.0975,0.16589 0.14315,0.22479 0.0456,0.0589 0.19969,0.26914 0.34261,0.46716 0.14292,0.19802 0.29526,0.40337 0.33796,0.4563 0.0427,0.0529 0.0813,0.0978 0.0863,0.10025 0.005,0.002 0.0127,-0.0146 0.0171,-0.0377 0.0593,-0.31003 0.14787,-0.6019 0.26096,-0.8599 0.2796,-0.63773 0.76154,-1.19727 1.29708,-1.50637 0.16494,-0.0952 0.41199,-0.2055 0.48989,-0.21859 0.12556,-0.0211 0.3956,-0.12303 0.47181,-0.17828 0.0997,-0.0723 0.23049,-0.19628 0.27544,-0.26045 0.0593,-0.0847 0.12695,-0.2394 0.13435,-0.30747 0.006,-0.0554 0.003,-0.0624 -0.0992,-0.2217 -0.33111,-0.51442 -0.67205,-0.94811 -0.97255,-1.23713 -0.28059,-0.26986 -0.45399,-0.40679 -0.71211,-0.56276 -0.10447,-0.0631 -0.15055,-0.0834 -0.42219,-0.18551 -0.7121,-0.26751 -0.92666,-0.30854 -2.02727,-0.39068 -0.2346,-0.0175 -0.49421,-0.0786 -0.67489,-0.15813 z m -16.32562,23.24923 h 12.44265 c 2.41598,0 4.49609,1.020117 6.24097,3.060278 1.77172,2.013318 2.65771,4.335248 2.65771,6.965983 0,2.496515 -0.8456,4.604064 -2.53679,6.322095 -1.69119,1.718032 -3.6641,2.577104 -5.91902,2.577104 h -8.39639 v -0.0041 h -4.48913 z" /></g></g></svg>
