<?xml version="1.0" encoding="UTF-8" standalone="no"?>
<!-- Created with Inkscape (http://www.inkscape.org/) -->

<svg
   width="105.83334mm"
   height="105.83334mm"
   viewBox="0 0 105.83333 105.83333"
   version="1.1"
   id="svg1"
   xml:space="preserve"
   inkscape:version="1.4.2 (ebf0e940d0, 2025-05-08)"
   sodipodi:docname="kansas.svg"
   inkscape:export-filename="../pngs/boston.png"
   inkscape:export-xdpi="96"
   inkscape:export-ydpi="96"
   xmlns:inkscape="http://www.inkscape.org/namespaces/inkscape"
   xmlns:sodipodi="http://sodipodi.sourceforge.net/DTD/sodipodi-0.dtd"
   xmlns="http://www.w3.org/2000/svg"
   xmlns:svg="http://www.w3.org/2000/svg"><sodipodi:namedview
     id="namedview1"
     pagecolor="#ffffff"
     bordercolor="#000000"
     borderopacity="0.25"
     inkscape:showpageshadow="2"
     inkscape:pageopacity="0.0"
     inkscape:pagecheckerboard="0"
     inkscape:deskcolor="#d1d1d1"
     inkscape:document-units="mm"
     inkscape:zoom="1"
     inkscape:cx="92.5"
     inkscape:cy="105"
     inkscape:window-width="1920"
     inkscape:window-height="1011"
     inkscape:window-x="0"
     inkscape:window-y="32"
     inkscape:window-maximized="1"
     inkscape:current-layer="layer2"
     showgrid="false" /><defs
     id="defs1"><inkscape:path-effect
       effect="bspline"
       id="path-effect18"
       is_visible="true"
       lpeversion="1.3"
       weight="33.333333"
       steps="2"
       helper_size="0"
       apply_no_weight="true"
       apply_with_weight="true"
       only_selected="false"
       uniform="false" /><inkscape:path-effect
       effect="bspline"
       id="path-effect17"
       is_visible="true"
       lpeversion="1.3"
       weight="33.333333"
       steps="2"
       helper_size="0"
       apply_no_weight="true"
       apply_with_weight="true"
       only_selected="false"
       uniform="false" /></defs><g
     inkscape:groupmode="layer"
     id="layer2"
     inkscape:label="Capa 2"><g
       id="g9"
       transform="matrix(1.5297424,0,0,1.5297424,147.69304,6.5976903)"><circle
         style="fill:#ffffff;fill-opacity:1;stroke:#ffffff;stroke-width:0.190553;stroke-dasharray:none"
         id="path8-6"
         cx="-61.955772"
         cy="30.278942"
         r="33.867771" /><circle
         style="fill:#da0517;fill-opacity:1;stroke:#ffffff;stroke-width:0.184255;stroke-dasharray:none"
         id="path8"
         cx="-61.955772"
         cy="30.278942"
         r="32.748386" /><g
         id="g8"
         transform="translate(-14.680652,1.5078621)"><ellipse
           style="fill:#ffc82d;fill-opacity:1;stroke-width:7.86153"
           id="path3"
           cx="-49.877441"
           cy="29.526571"
           rx="24.371622"
           ry="23.10545" /><path
           style="fill:#e8000d;fill-opacity:1;stroke-width:7.39399"
           d="m -60.678484,36.542397 4.396584,-2.993416 c 0,0 5.42557,0.841899 5.893292,0.935442 0.467723,0.09354 7.390003,1.964431 7.390003,1.964431 l 0.654809,1.964431 0.467723,0.841899 1.309621,-0.09354 -2.619243,9.635067 c 0,0 -5.144939,0.748355 -5.799748,0.935442 -0.654809,0.18709 -13.189752,-5.051393 -13.189752,-5.051393 l 0.374179,-4.864307 1.309619,-1.216075 z"
           id="path2" /><ellipse
           style="fill:#ffffff;fill-opacity:1;stroke-width:7.65857"
           id="path4"
           cx="-49.609375"
           cy="19.446875"
           rx="4.5640626"
           ry="5.3578124" /><path
           style="fill:#ffffff;fill-opacity:1;stroke-width:7.39399"
           d="m -38.298438,14.684375 -1.256771,0.926041 1.785937,2.976563 2.71198,0.529167 -0.33073,-1.984375 z"
           id="path5" /><path
           style="fill:#ffffff;fill-opacity:1;stroke-width:7.39399"
           d="m -64.359896,16.536458 -2.844271,11.046354 2.910417,1.984375 0.926041,2.050521 0.06615,2.513542 0.727604,2.182812 0.264584,3.042708 5.856826,-6.309305 c 0,0 1.02234,-14.063611 1.154632,-14.39434 0.132291,-0.330729 4.564062,-5.820833 4.564062,-5.820833 0,0 6.680729,1.521354 7.209896,1.521354 0.529167,0 6.151562,0.264583 6.151562,0.264583 l 1.455209,2.182812 c 0,0 1.256771,2.38125 1.256771,2.645834 0,0.264583 4.497916,4.431771 4.497916,4.431771 l 2.182813,3.439583 c 0,0 2.778125,-2.844271 2.778125,-3.373438 0,-0.529166 -10.31875,-15.3458332 -10.31875,-15.3458332 0,0 -20.042188,-2.711979 -20.306771,-2.711979 -0.264583,0 -8.532812,10.6494792 -8.532812,10.6494792 z"
           id="path6"
           sodipodi:nodetypes="ccccccccscsccsccscscc" /><path
           style="fill:#ffffff;fill-opacity:1;stroke-width:7.39399"
           d="m -41.455124,36.402081 h -1.824114 c 0,0 1.356391,2.385383 1.543481,2.385383 0.187089,0 3.04019,1.590251 3.04019,1.590251 l 2.478926,-2.011201 7.015824,1.122532 2.104747,-6.080381 -5.425572,-4.349814 -2.338607,-0.374176 1.777343,2.338607 3.601456,5.612662 -1.683798,0.327403 z"
           id="path7"
           sodipodi:nodetypes="ccscccccccccc" /><path
           style="fill:#0051ba;fill-opacity:1"
           d="m -49.190925,59.793288 c -0.45587,-0.319303 -0.70416,-0.338297 -1.23866,-0.09476 -0.54241,0.247139 -0.79509,0.221647 -1.33963,-0.13515 -0.4279,-0.280369 -0.91514,-0.378497 -1.34442,-0.270755 -0.45551,0.114326 -0.83755,0.02033 -1.18113,-0.290608 -0.35393,-0.320298 -0.72201,-0.405841 -1.21447,-0.282241 -0.52672,0.132198 -0.86252,0.0309 -1.31893,-0.397875 -0.43005,-0.404004 -0.8025,-0.527491 -1.25128,-0.414856 -0.44707,0.112208 -0.78163,0.0027 -1.11399,-0.364516 -0.26125,-0.288688 -0.811,-0.524887 -1.22166,-0.524887 -0.50445,0 -0.88722,-0.214556 -1.18004,-0.661459 -0.29775,-0.454419 -0.6741,-0.661458 -1.2024,-0.661458 -0.5635,0 -0.84953,-0.176755 -1.07037,-0.661458 -0.22033,-0.483563 -0.50714,-0.661459 -1.06643,-0.661459 -0.61217,0 -0.82033,-0.158609 -1.04174,-0.79375 -0.19945,-0.572126 -0.44687,-0.79375 -0.88615,-0.79375 -0.41604,0 -0.78282,-0.293866 -1.15582,-0.926041 -0.34311,-0.581527 -0.74902,-0.926042 -1.09108,-0.926042 -0.39116,0 -0.58858,-0.219396 -0.70037,-0.77832 -0.10757,-0.537876 -0.37971,-0.856426 -0.88091,-1.031145 -1.245759,-0.434271 -0.544764,-1.571887 -1.7117,-2.103569 -0.49771,-0.226774 -0.67808,-0.510299 -0.67808,-1.065907 0,-0.550659 -0.18027,-0.839088 -0.66146,-1.058333 -0.49147,-0.223932 -0.66145,-0.50525 -0.66145,-1.094704 0,-0.558182 -0.19978,-0.924218 -0.674,-1.23494 -0.54636,-0.357989 -0.64315,-0.582052 -0.51111,-1.183208 0.1258,-0.572766 0.0383,-0.819389 -0.38434,-1.083335 -0.39029,-0.24374 -0.54722,-0.617707 -0.54722,-1.304036 0,-0.555568 -0.17727,-1.109411 -0.41941,-1.310368 -0.27903,-0.231575 -0.37731,-0.618781 -0.29363,-1.156876 0.088,-0.566046 -0.0311,-0.979985 -0.39701,-1.379149 -0.43241,-0.47175 -0.46988,-0.669213 -0.21673,-1.142222 0.24565,-0.459007 0.21858,-0.705377 -0.13718,-1.248329 -0.35815,-0.546618 -0.3854,-0.803369 -0.14196,-1.337673 0.24058,-0.528009 0.21817,-0.788046 -0.11122,-1.290769 -0.36219,-0.552763 -0.36629,-0.71892 -0.0336,-1.36224 0.31493,-0.609008 0.32084,-0.841146 0.035,-1.375193 -0.28899,-0.53997 -0.27909,-0.741357 0.062,-1.261932 0.32941,-0.502746 0.34683,-0.748979 0.0925,-1.307173 -0.26907,-0.590527 -0.23599,-0.7701 0.23396,-1.270343 0.42718,-0.454717 0.49496,-0.722431 0.30876,-1.219646 -0.18035,-0.481599 -0.11311,-0.814548 0.27556,-1.36447 0.32855,-0.464861 0.4509,-0.926614 0.33897,-1.27928 -0.12027,-0.378938 0.009,-0.747477 0.41134,-1.176158 0.42544,-0.452859 0.54046,-0.807753 0.41884,-1.292333 -0.132,-0.525911 -0.0263,-0.760657 0.4968,-1.103411 0.48857,-0.320118 0.66448,-0.667762 0.66448,-1.313162 0,-0.645409 0.14008,-0.922243 0.52916,-1.045733 0.36693,-0.116457 0.52917,-0.400323 0.52917,-0.925854 0,-0.540127 0.22808,-0.92031 0.79375,-1.323104 0.48985,-0.348804 0.79375,-0.799262 0.79375,-1.176542 0,-0.4298182 0.23569,-0.7089672 0.79375,-0.9401252 0.57407,-0.237786 0.79375,-0.506775 0.79375,-0.971904 0,-0.476989 0.20546,-0.714745 0.79535,-0.920381 0.505,-0.176045 0.85591,-0.518582 0.96126,-0.93832 0.10022,-0.399339 0.45178,-0.760716 0.88797,-0.912773 0.39714,-0.138441 0.85622,-0.546155 1.02019,-0.90603 0.18152,-0.398389 0.59795,-0.714282 1.06466,-0.807624 0.45815,-0.09163 0.88281,-0.408533 1.05558,-0.78772 0.20671,-0.453667 0.50408,-0.634415 1.04378,-0.634415 0.53423,0 0.85812,-0.193233 1.10871,-0.661458 0.25425,-0.475065 0.57298,-0.661459 1.13111,-0.661459 0.50217,0 0.95142,-0.22160703 1.26981,-0.62637203 0.36297,-0.461435 0.67365,-0.591783 1.17987,-0.495013 0.50438,0.09642 0.79651,-0.02475 1.09822,-0.455499 0.33119,-0.472838 0.57624,-0.555869 1.26127,-0.427356 0.6462,0.121227 0.96322,0.03465 1.32108,-0.36079197 0.34599,-0.382306 0.67542,-0.479383 1.24214,-0.366038 0.53597,0.107194 0.93086,0.0098 1.29434,-0.319109 0.42168,-0.381615 0.64509,-0.417761 1.15268,-0.186489 0.49286,0.224563 0.75991,0.195618 1.22945,-0.133259 0.48637,-0.340668 0.74908,-0.363797 1.38892,-0.122284 0.62314,0.235211 0.90126,0.219282 1.32247,-0.07574 0.46015,-0.322306 0.63515,-0.320954 1.27486,0.0098 0.57636,0.298051 0.88634,0.317435 1.392,0.08704 0.5146,-0.234471 0.7715,-0.211649 1.22963,0.109232 0.45023,0.31536 0.7526,0.345146 1.35874,0.133847 0.62835,-0.219044 0.87651,-0.184096 1.27895,0.18011 0.34745,0.314436 0.73095,0.401019 1.26078,0.284648 0.56893,-0.124959 0.88193,-0.03409 1.23805,0.359405 0.33473,0.36987397 0.68618,0.48472997 1.18063,0.38583797 0.50131,-0.10026 0.84742,0.01763 1.20198,0.409421 0.31324,0.346122 0.8228,0.550226 1.37367,0.550226 0.60494,0 0.9633,0.163627 1.15893,0.529167 0.18149,0.33912603 0.55399,0.52916603 1.03721,0.52916603 0.51232,0 0.89294,0.212029 1.18742,0.661459 0.29249,0.446395 0.67569,0.661458 1.17858,0.661458 0.53038,0 0.82881,0.183535 1.03529,0.636714 0.17257,0.378756 0.60851,0.706647 1.07603,0.809331 0.54072,0.118761 0.83713,0.376636 0.95004,0.826521 0.11346,0.452047 0.40221,0.701519 0.93539,0.808155 0.54005,0.108009 0.85011,0.380431 1.03427,0.908706 0.16294,0.467424 0.51519,0.817751 0.92589,0.920828 0.45892,0.115182 0.71592,0.407863 0.83526,0.951218 0.10854,0.494174 0.41041,0.87534 0.81508,1.029195 0.42156,0.160276 0.69918,0.526814 0.80688,1.0652882 0.10112,0.505605 0.4038,0.930114 0.788,1.105169 0.44044,0.200673 0.62383,0.503299 0.62383,1.029412 0,0.502897 0.21506,0.886096 0.66145,1.178586 0.45181,0.296036 0.66146,0.674628 0.66146,1.194482 0,0.474533 0.19923,0.8855 0.52917,1.091548 0.33457,0.208942 0.52917,0.617016 0.52917,1.109669 0,0.428559 0.242,1.036802 0.53779,1.351652 0.43277,0.460664 0.48765,0.704321 0.28105,1.247723 -0.20814,0.547455 -0.1557,0.766699 0.27702,1.158311 0.39674,0.359043 0.49386,0.682499 0.37836,1.26004 -0.0966,0.483029 -0.005,1.006247 0.24161,1.382927 0.29696,0.453216 0.3313,0.778792 0.13625,1.291817 -0.19585,0.515121 -0.16016,0.839442 0.14333,1.302632 0.32137,0.490467 0.34249,0.751978 0.10317,1.277234 -0.22569,0.495322 -0.22448,0.803366 0.005,1.231841 0.23238,0.434215 0.22993,0.781104 -0.0102,1.445251 -0.2231,0.61697 -0.2352,1.018288 -0.0412,1.365011 0.20309,0.3629 0.17072,0.650024 -0.12401,1.09983 -0.25041,0.382183 -0.33427,0.866029 -0.22532,1.300123 0.11209,0.44658 0.0208,0.924525 -0.25784,1.349765 -0.27233,0.41563 -0.36934,0.905534 -0.26312,1.328765 0.12277,0.489135 0.0173,0.811034 -0.39002,1.190519 -0.42107,0.392291 -0.5175,0.705769 -0.39236,1.275535 0.12918,0.588145 0.0447,0.831091 -0.3813,1.097163 -0.37094,0.231657 -0.54722,0.618831 -0.54722,1.2019 0,0.573609 -0.17628,0.970245 -0.52917,1.190624 -0.31973,0.199678 -0.52916,0.617016 -0.52916,1.054476 0,0.470798 -0.22048,0.868465 -0.63041,1.137061 -0.34672,0.22718 -0.70119,0.767023 -0.78772,1.19965 -0.096,0.480258 -0.40673,0.900237 -0.79776,1.0784 -0.38545,0.175622 -0.7016,0.597578 -0.79404,1.059774 -0.0967,0.483296 -0.38887,0.857423 -0.78832,1.009292 -0.3491,0.132729 -0.75669,0.591165 -0.90574,1.018749 -0.17018,0.488174 -0.51697,0.839156 -0.93208,0.94334 -0.41973,0.105348 -0.76227,0.456259 -0.93831,0.961261 -0.20952,0.601025 -0.44057,0.795344 -0.94569,0.795344 -0.47509,0 -0.78715,0.229582 -1.07889,0.79375 -0.28011,0.541672 -0.60871,0.79375 -1.0347,0.79375 -0.37389,0 -0.79805,0.265277 -1.05764,0.661459 -0.29198,0.445613 -0.67584,0.661458 -1.17634,0.661458 -0.52169,0 -0.84837,0.196993 -1.09695,0.661458 -0.26695,0.498803 -0.56703,0.661459 -1.22033,0.661459 -0.56717,0 -0.99466,0.183224 -1.23797,0.530598 -0.28806,0.411269 -0.55372,0.494184 -1.18123,0.368682 -0.6586,-0.131721 -0.86803,-0.05271 -1.12296,0.423636 -0.25527,0.476976 -0.46403,0.555424 -1.12583,0.423064 -0.56252,-0.112504 -0.95977,-0.02917 -1.29134,0.270899 -0.33828,0.306136 -0.72671,0.383824 -1.32292,0.264583 -0.60001,-0.120003 -0.98486,-0.04135 -1.33117,0.272054 -0.40532,0.366814 -0.60352,0.387836 -1.18003,0.125161 -0.57046,-0.25992 -0.80974,-0.239131 -1.35427,0.117663 -0.55417,0.363106 -0.763,0.378982 -1.28816,0.09793 -0.48544,-0.259802 -0.77922,-0.265969 -1.30293,-0.02735 -0.826,0.376352 -0.68745,0.385594 -1.36826,-0.09127 z m 2.92046,-12.763669 c 0.63925,-2.309442 1.67385,-6.44114 1.85623,-7.41294 0.24517,-1.306315 -0.0856,-3.236539 -0.55464,-3.236539 -0.28405,0 -0.34152,0.163697 -0.20901,0.595313 0.58077,1.891758 0.46303,2.96231 -0.75727,6.885576 -1.24308,3.996527 -1.38888,4.689944 -0.98614,4.689944 0.12634,0 0.41921,-0.684609 0.65083,-1.521354 z m 1.69338,-1.852083 c 1.1073,-4.106296 1.46779,-6.259512 1.25693,-7.507634 -0.27181,-1.608775 -0.56239,-1.208972 -0.74524,1.025342 -0.14865,1.816439 -1.41474,7.895191 -1.90121,9.128125 -0.12082,0.306218 -0.0584,0.463021 0.18425,0.463021 0.24448,0 0.64672,-1.037513 1.20527,-3.108854 z m 2.14801,-1.260553 c 0.89543,-2.243634 1.62806,-4.226243 1.62806,-4.405797 0,-0.712925 -0.49539,0.311766 -1.71786,3.553278 -0.70046,1.857367 -1.31,3.340594 -1.35454,3.296059 -0.0445,-0.04453 0.38886,-1.564198 0.96309,-3.377031 0.57422,-1.812833 1.04561,-3.325826 1.04751,-3.362206 0.0105,-0.200065 -0.78524,-0.02379 -0.92684,0.205329 -0.12358,0.199962 -1.96745,8.015087 -1.9784,8.385325 -9.4e-4,0.03181 0.15863,-0.0037 0.35461,-0.07889 0.19597,-0.0752 1.08894,-1.972433 1.98437,-4.216067 z m 5.78852,2.255622 c 1.63341,-0.0912 3.0614,-0.257376 3.17331,-0.369287 0.27371,-0.273707 -1.34015,-1.589783 -2.95395,-2.408906 -2.1745,-1.103721 -4.90899,-0.731457 -4.90899,0.668293 0,0.279846 0.19422,0.994212 0.4316,1.58748 0.3325,0.830997 0.52994,1.033846 0.8599,0.883451 0.23556,-0.10737 1.76472,-0.269835 3.39813,-0.361031 z m -19.30658,-2.847152 c -0.37472,-2.364768 -0.45546,-3.858925 -0.33732,-6.242709 0.12317,-2.485248 0.085,-3.110837 -0.18427,-3.022637 -0.18677,0.06117 -0.50445,0.935624 -0.70596,1.94323 -0.32352,1.617677 -0.31144,2.304961 0.10323,5.874514 0.989895,8.521327 1.561973,4.208967 1.12432,1.447602 z m -1.587,-0.661459 c -0.48145,-2.614673 -0.48953,-4.276233 -0.0336,-6.90965 0.16781,-0.969167 0.14878,-1.007532 -0.36362,-0.733303 -1.40124,0.749922 -0.71283,10.311852 0.74521,10.350881 0.0832,0.0022 -0.0734,-1.216339 -0.34802,-2.707928 z m -1.16555,-0.264583 c -0.12391,-1.055026 -0.21798,-2.900495 -0.20905,-4.101041 0.009,-1.200547 -0.0619,-2.182813 -0.15743,-2.182813 -0.0955,0 -0.37988,0.227855 -0.63191,0.506344 -0.42236,0.466709 -0.42746,0.627166 -0.0651,2.049814 0.26032,1.022069 0.30199,1.599787 0.12336,1.710184 -0.16888,0.104373 -0.19794,0.698274 -0.0777,1.588207 0.21191,1.568567 0.53081,2.347534 0.96103,2.347534 0.19455,0 0.2122,-0.595422 0.0568,-1.918229 z m 26.89451,1.178176 c 0,-0.354211 -1.93193,-2.085669 -2.83307,-2.539086 -1.53486,-0.772277 -3.55689,-0.667606 -4.52909,0.234449 -0.28245,0.262075 -0.0992,0.358749 0.94182,0.496845 0.77357,0.102617 1.87043,0.531474 2.73194,1.068147 1.00596,0.62666 1.77807,0.904797 2.56392,0.923611 0.61846,0.01481 1.12448,-0.06798 1.12448,-0.183966 z m -28.47342,-2.236509 c -0.16702,-1.1097 -0.49299,-1.747314 -0.75786,-1.482438 -0.14383,0.143821 0.62769,2.606917 0.81656,2.606917 0.0608,0 0.0344,-0.506016 -0.0587,-1.124479 z m 30.56719,-0.202944 c 0.26937,-0.142061 -0.0544,-0.48167 -1.15746,-1.214058 -1.31796,-0.875075 -1.77582,-1.02982 -3.2844,-1.110052 -1.23403,-0.06563 -1.90335,0.01938 -2.26098,0.287154 -0.47326,0.354357 -0.42801,0.392852 0.66146,0.562638 0.64832,0.101036 1.74974,0.578369 2.47158,1.071133 1.06824,0.729233 1.47216,0.862973 2.24896,0.744648 0.52077,-0.07933 1.11515,-0.232985 1.32084,-0.341463 z m -7.97677,-2.090704 c 1.05652,-1.056524 2.64756,-1.457926 4.34005,-1.094951 0.72545,0.15558 1.54093,0.401651 1.81219,0.546823 0.3895,0.208453 0.57993,0.140116 0.90573,-0.325019 0.6229,-0.889317 0.52253,-0.988107 -0.84424,-0.83098 -1.2546,0.144231 -8.48485,-0.302892 -9.98803,-0.617664 -0.70453,-0.147532 -0.75451,-0.118711 -0.44466,0.256397 0.27046,0.327426 0.28053,0.550711 0.0447,0.991352 -0.41785,0.780766 -0.19206,0.902498 0.76042,0.409956 0.79837,-0.412858 0.81397,-0.407717 1.54594,0.509649 0.40668,0.509693 0.81956,0.926719 0.91751,0.926723 0.098,4e-6 0.52562,-0.347525 0.95038,-0.772286 z m -25.31687,-2.216018 c 0.38491,-1.42944 0.24376,-1.839484 -0.8155,-2.36909 -2.00187,-1.000889 -5.25984,-0.209565 -7.67214,1.863477 l -0.92604,0.795808 1.03379,0.195684 c 2.227858,0.21277 4.477171,-0.01345 6.705,-0.148763 l 0.34349,0.829253 c 0.32173,0.776738 0.36607,0.798369 0.70008,0.341583 0.19612,-0.268217 0.48022,-0.946797 0.63132,-1.507955 z m 2.19957,0.720324 c -0.19552,-0.778996 0.62563,-1.763302 3.00498,-3.602063 0.76398,-0.590407 1.38906,-1.176894 1.38906,-1.303304 0,-0.126411 -0.52988,-1.003813 -1.17752,-1.949784 -1.19302,-1.74258 -1.72874,-3.115368 -1.73142,-4.436757 -0.001,-0.764131 -0.2374,-0.915011 -0.70281,-0.449603 -0.19428,0.194279 -0.32531,-0.286331 -0.4351,-1.595876 -0.17249,-2.057519 0.11848,-3.225533 1.31005,-5.258804 l 0.68571,-1.17006 -0.71566,0.179617 -0.71565,0.179617 0.74902,-0.984361 c 0.85604,-1.125019 3.56199,-3.202062 4.4678,-3.429406 0.82387,-0.206776 1.02202,-0.827965 0.33379,-1.0464 -0.43594,-0.138363 -0.47446,-0.224052 -0.18494,-0.411423 1.77698,-1.150004 6.38202,-1.389104 9.34581,-0.485247 1.02729,0.313288 2.62399,0.798626 3.54822,1.078528 1.08298,0.327978 2.0039,0.448228 2.59027,0.338225 0.68648,-0.128785 1.04355,-0.04969 1.45447,0.322194 0.82485,0.746474 2.62688,3.971758 2.7938,5.000343 0.11682,0.719879 0.38173,1.046177 1.27374,1.568934 1.46268,0.857186 3.41763,3.045604 4.37316,4.895419 1.46799,2.841898 0.5564,-1.501586 -0.95845,-4.566769 -2.40276,-4.861789 -6.23585,-8.18737 -11.44353,-9.928394 -1.78676,-0.5973492 -2.46984,-0.6787932 -5.73263,-0.6835082 -3.37131,-0.0049 -3.89437,0.06059 -5.82084,0.7285422 -7.20218,2.497159 -12.41317,8.922456 -13.01694,16.050251 l -0.14577,1.720882 0.95905,0.346799 c 0.52748,0.190739 1.33052,0.659367 1.78454,1.041396 0.78628,0.661611 0.81832,0.763996 0.67466,2.155932 -0.12308,1.192542 -0.0497,1.625002 0.3991,2.351138 0.45173,0.730902 0.52022,1.142606 0.38356,2.305419 -0.14221,1.209944 -0.0991,1.433196 0.29667,1.536621 1.01007,0.263953 1.13841,0.197622 0.9638,-0.498098 z m 18.2448,0.292086 c 0.082,-0.213621 0.0352,-0.458773 -0.10398,-0.544782 -0.13917,-0.08601 -0.25303,0.08877 -0.25303,0.388402 0,0.638854 0.14714,0.703304 0.35701,0.15638 z m 12.32696,-1.321478 c 0.40358,-0.249427 -0.27945,-1.458466 -2.39715,-4.243245 -2.53085,-3.328066 -2.80808,-3.624754 -3.29518,-3.526467 -0.46851,0.09454 -0.23491,0.465773 2.88393,4.5831 0.84765,1.11903 1.50126,2.074528 1.45246,2.123328 -0.0488,0.0488 -1.05788,-0.07945 -2.24239,-0.285012 -5.91589,-1.02662 -12.59121,-4.755239 -13.8187,-7.718683 -0.29853,-0.720699 -0.42986,-0.810727 -0.85262,-0.584473 -0.74002,0.396047 -0.65809,-0.41062 0.12083,-1.189531 0.44741,-0.447416 0.81761,-0.58289 1.32682,-0.485548 0.85673,0.163773 1.19976,0.600994 0.47153,0.600994 -0.68113,0 -0.84115,0.497977 -0.42533,1.323542 0.90957,1.805791 2.17554,2.087182 6.03736,1.341929 5.31904,-1.02647 7.43321,-0.614789 11.27715,2.195945 1.31326,0.96027 2.38774,1.703523 2.38774,1.651673 0,-0.629202 -1.82327,-5.951049 -2.4285,-7.088431 -2.20559,-4.14483 -6.10453,-6.274596 -10.93296,-5.972053 -2.72238,0.170581 -3.97162,0.675928 -4.17514,1.688939 -0.51506,2.563769 -3.81932,4.740237 -6.19898,4.083181 -0.53527,-0.147793 -1.02455,-0.217372 -1.0873,-0.154619 -0.0628,0.06275 -0.1141,0.871913 -0.1141,1.798134 0,2.768708 1.43373,5.207519 4.03179,6.858194 1.70267,1.081787 6.35298,2.513562 8.99894,2.770664 3.06588,0.297905 8.63804,0.439657 8.9798,0.228439 z m -13.95397,-13.953453 c -0.51718,-0.517181 -0.36815,-0.740833 0.49365,-0.740833 0.96271,0 1.91315,0.452738 1.69419,0.807025 -0.2219,0.35904 -1.81067,0.310973 -2.18784,-0.06619 z m 15.26038,11.581917 c 0.16342,-0.648996 0.29713,-1.357794 0.29713,-1.575107 0,-0.436639 -4.56324,-3.603894 -5.19233,-3.603894 -0.47439,0 -0.49888,-0.04177 1.63237,2.784 0.93487,1.239519 1.88525,2.612369 2.11196,3.050778 0.51406,0.994077 0.77252,0.846804 1.15087,-0.655777 z m -5.58204,-1.805563 c -1.77996,-2.306844 -2.40025,-2.661064 -2.53942,-1.450151 -0.0679,0.591233 0.19796,1.012591 1.37757,2.182813 1.02322,1.015068 1.66945,1.45015 2.15394,1.45015 0.66632,0 0.62928,-0.08149 -0.99209,-2.182812 z m -33.67605,1.122578 c 1.16946,-0.428706 1.9207,-0.542934 2.85281,-0.433774 1.45258,0.170114 1.44187,-0.113555 -0.0327,-0.865823 -2.06176,-1.051831 -4.02244,-0.966454 -6.99708,0.304683 -1.43805,0.614514 -1.47789,0.945027 -0.17268,1.432652 1.13861,0.425385 2.31928,0.306566 4.34965,-0.437738 z m 30.03612,-1.008015 c 0.49571,-0.401399 0.54477,-0.572178 0.29724,-1.034685 -0.41505,-0.775527 -1.84915,-1.604369 -3.13048,-1.809261 -0.89217,-0.142663 -1.18154,-0.07477 -1.64143,0.385125 -0.30708,0.307076 -0.55832,0.682032 -0.55832,0.833236 0,0.282465 3.57651,2.106334 4.13041,2.106334 0.16989,0 0.57605,-0.216337 0.90258,-0.480749 z m -25.40591,-1.083231 c 0,-0.794404 -1.43913,-1.807285 -3.04006,-2.139637 -1.63889,-0.340233 -3.65864,-0.05171 -5.62504,0.803539 -1.27714,0.555468 -1.33261,0.653408 -0.59396,1.048719 0.39574,0.211796 0.83499,0.180553 1.72904,-0.122983 1.83143,-0.621789 4.23027,-0.523904 5.81023,0.237087 1.63915,0.789501 1.71979,0.797626 1.71979,0.173275 z m 15.60486,-7.391783 c 1.41515,-0.726245 2.65139,-2.941396 2.65139,-4.750879 0,-2.835204 -1.42802,-4.39439 -3.8607,-4.215314 -1.64468,0.121069 -2.76659,0.86148 -3.68816,2.434014 -1.52984,2.610482 -0.96021,5.616391 1.27844,6.746288 1.22907,0.620336 2.0926,0.569248 3.61903,-0.214109 z m -3.79685,-1.635358 c -1.27199,-1.511671 -1.15296,-3.695936 0.27947,-5.128361 0.79847,-0.798471 2.51504,-0.932182 3.39065,-0.264113 0.49576,0.378253 0.49993,0.42031 0.0661,0.666191 -0.96194,0.545243 -0.24103,2.269182 0.79375,1.898145 0.43431,-0.155729 0.41994,0.522735 -0.0341,1.609376 -0.86447,2.068954 -3.23893,2.712626 -4.49593,1.218762 z m 16.23813,-4.224483 c -0.32449,-1.131445 -1.23932,-2.325338 -2.13783,-2.789977 -0.9223,-0.476939 -0.97265,-0.227394 -0.24277,1.203283 0.35938,0.704445 0.65645,0.990644 0.92236,0.888604 0.25421,-0.09755 0.48063,0.08195 0.64341,0.510089 0.13814,0.363334 0.40768,0.723225 0.59899,0.799758 0.1913,0.07653 0.36929,0.148551 0.39551,0.16004 0.0262,0.01149 -0.0546,-0.33582 -0.17967,-0.771797 z"
           id="path1"
           sodipodi:nodetypes="cssssssscssssssssssssssssssssccssssccsssssscsssssssssscssssssssssscscsssscsssssssssssssssssssssssssssssssscssscccsssssscsssscscsssssssssssssssssssssscccssssscscssssssscscssssssssssscsssscccscccccsssscscssssssscsscsssssssssssssssssssssssscscsssssssscssscccssscssssssssscsscssssssscsscssssscssssscssscscscsssssssssssssssscssssssssssssssssssssssssssssscsscsccccssssssc" /><text
           xml:space="preserve"
           style="font-size:8.73982px;line-height:1;font-family:'Confetti Western';-inkscape-font-specification:'Confetti Western';text-align:center;letter-spacing:0.121733px;word-spacing:0px;writing-mode:lr-tb;direction:ltr;text-anchor:middle;fill:#ffffff;fill-opacity:1;stroke-width:3.27108"
           x="-43.077274"
           y="51.509415"
           id="text2"
           transform="rotate(8.7140888)"><tspan
             sodipodi:role="line"
             id="tspan2"
             style="fill:#ffffff;stroke-width:3.27108"
             x="-43.016407"
             y="51.509415">ku</tspan></text><path
           d="m -68.640958,14.981538 -0.568975,-0.01 0.01,-0.568975 -0.838499,-0.868425 q -0.838499,-0.8684 -1.127974,-0.5889 l 3.184226,-3.0744972 1.397498,1.4473752 q -0.2795,-0.289475 -1.147925,0.549024 l -1.1579,1.117999 0.41925,0.434213 1.73685,-1.676998 q -0.149725,0.424237 0.549024,1.147924 l -1.447375,1.397499 0.419249,0.434212 1.1579,-1.117999 q 0.868426,-0.838499 0.588926,-1.127974 l 1.397498,1.447375 -3.184225,3.074497 q 0.289475,-0.2795 -0.549024,-1.147925 z m 4.921997,-5.4874852 0.446851,1.3439322 0.611569,-0.402881 z m 0.842119,2.5291042 0.261272,0.79159 -1.344108,0.885453 q 0.336027,-0.221363 -0.05924,-1.406535 l -0.391907,-1.187385 -0.466663,-0.174432 0.20203,-0.614945 -0.391908,-1.1873852 q -0.395268,-1.185171 -0.731295,-0.963808 l 1.680135,-1.106817 q -0.336027,0.221364 0.596884,1.052354 l 0.936272,0.828776 0.648118,0.0549 -0.0273,0.499836 0.936272,0.8287772 q 0.932911,0.83099 1.268938,0.609626 l -1.344107,0.88545 -0.624182,-0.552518 z m 2.63236,-3.5854962 -0.5253,-0.218841 0.218841,-0.525301 -0.459688,-1.116212 q -0.459689,-1.116212 -0.831759,-0.962982 l 2.604495,-1.072607 q 1.488282,-0.612917 2.25443,1.247436 0.5409,1.313409 -0.04016,2.005289 0.405834,0.890342 0.740698,0.752435 l 0.37207,-0.153229 0.612918,1.488282 -0.37207,0.1532302 q -1.376664,0.566949 -2.400221,-1.6225712 l -0.751582,0.309524 0.153229,0.37207 q 0.459689,1.1162122 0.831759,0.9629832 l -1.860353,0.766147 q 0.372071,-0.153229 -0.08762,-1.2694412 z m 0.503294,-1.947971 0.30646,0.744141 1.116212,-0.459689 q 0.37207,-0.153229 0.218841,-0.5253 -0.15323,-0.37207 -0.5253,-0.218841 z m 4.49401,0.0036 -0.484509,-0.298467 0.298468,-0.484509 -0.279062,-1.174465 q -0.279063,-1.174464 -0.670551,-1.081444 l 1.957441,-0.465103 q -0.391488,0.09302 -0.112426,1.267485 l 0.279062,1.174465 0.484509,0.298467 -0.298467,0.484509 0.186041,0.782976 1.565953,-0.372083 q 1.174465,-0.279062 1.081444,-0.67055 l 0.465104,1.957441 -4.30637,1.023228 q 0.391488,-0.09302 0.112426,-1.267485 z m 4.888328,-1.652171 -0.796065,-1.295858 q -0.710018,-1.16067 -1.111435,-1.132734 l 2.288076,-0.159236 q -0.401417,0.02794 0.308601,1.188606 l 0.108911,0.173933 0.07975,-0.187062 q 0.546416,-1.248111 0.144999,-1.220174 l 2.288076,-0.159236 q -0.401417,0.02794 -0.947833,1.276046 l -0.605158,1.389341 0.544293,0.228339 -0.774897,0.457289 0.08381,1.20425 q 0.08381,1.20425 0.485225,1.176314 l -2.007084,0.139681 q 0.401417,-0.02794 0.317609,-1.232187 l -0.08381,-1.20425 -0.83077,-0.345545 z m 5.899651,-1.016109 -0.07445,0.598972 1.197943,0.148909 q 0.399315,0.04964 0.448951,-0.349679 0.02482,-0.199657 -0.374496,-0.249293 z m -0.223363,1.796916 -0.07445,0.598972 1.197944,0.148908 q 0.399314,0.04964 0.424132,-0.150021 0.04964,-0.399314 -0.349678,-0.448951 z m -1.173125,-0.348566 -0.349679,-0.44895 0.448951,-0.349679 0.148908,-1.197944 q 0.148909,-1.197943 -0.250406,-1.247579 l 2.795202,0.347453 q 1.597258,0.198544 1.373896,1.99546 -0.07694,0.618937 -0.363679,0.968504 0.192434,0.409131 0.115498,1.028069 -0.223363,1.796915 -1.820621,1.59837 l -2.795202,-0.347453 q 0.399315,0.04964 0.548223,-1.148307 z m 5.131815,0.753008 -0.284085,-0.493079 0.49308,-0.284085 0.313493,-1.165747 q 0.313492,-1.165746 -0.07509,-1.270244 l 1.942911,0.522488 q -0.388582,-0.104498 -0.702075,1.061249 l -0.313492,1.165747 0.284084,0.493079 -0.49308,0.284085 -0.313492,1.165747 q -0.313493,1.165746 0.07509,1.270244 l -1.942911,-0.522488 q 0.388583,0.104497 0.702075,-1.061249 z m 2.739236,0.678823 -0.211717,-0.528211 0.528212,-0.211717 0.474743,-1.109893 q 0.474742,-1.109893 0.104778,-1.26814 l 2.58975,1.107732 q 1.479857,0.63299 0.68862,2.482812 -0.558614,1.305974 -1.45942,1.375824 -0.351245,0.913256 -0.01828,1.055678 l 0.369964,0.158248 -0.63299,1.4798572 -0.369964,-0.158248 q -1.368868,-0.585515 -0.522973,-2.8496102 l -0.747328,-0.31966 -0.158247,0.369964 q -0.474743,1.109893 -0.104779,1.26814 l -1.849821,-0.791237 q 0.369964,0.158247 0.844707,-0.951646 z m 1.742883,-1.005114 -0.316495,0.739928 1.109893,0.474743 q 0.369964,0.158247 0.528212,-0.211717 0.158247,-0.369964 -0.211717,-0.528212 z m 6.317672,1.398623 q 1.681491,1.104755 0.355786,3.1225442 l 0.115347,0.557249 -0.557249,0.115348 q -1.325706,2.017789 -3.007197,0.913035 l -1.681492,-1.104755 q 0.336298,0.220951 0.999151,-0.7879442 l 0.662853,-1.008895 -0.115347,-0.557249 0.557249,-0.115347 0.662853,-1.008895 q 0.662853,-1.008895 0.326555,-1.229846 z m -0.653109,2.459691 q 0.441902,-0.672596 -0.230695,-1.114498 l -0.336298,-0.220951 -1.325706,2.0177902 0.336298,0.220951 q 0.672597,0.441901 1.114499,-0.230695 z m 5.276917,3.8796352 q 0.276541,-0.292303 -0.600366,-1.121927 l -0.876907,-0.829624 q -0.292302,-0.276542 -0.430573,-0.130391 -0.276542,0.292303 0.01576,0.568844 l 0.584604,0.553083 q 1.16921,1.106166 0.06304,2.275375 -1.244437,1.315361 -2.413646,0.209195 l -1.753814,-1.659249 1.382707,-1.461512 q -0.276541,0.292303 0.600366,1.121927 l 0.876907,0.829625 q 0.292302,0.276541 0.430573,0.13039 0.276541,-0.292302 -0.01576,-0.568844 l -0.584605,-0.553083 q -1.169209,-1.106166 -0.06304,-2.275375 1.244436,-1.3153612 2.413646,-0.209195 l 1.753814,1.659249 z"
           id="text7"
           style="font-size:8.2409px;line-height:1;font-family:'Confetti Western';-inkscape-font-specification:'Confetti Western';text-align:center;letter-spacing:0.114784px;word-spacing:0px;text-anchor:middle;fill:#ffffff;stroke-width:3.08436"
           aria-label="EARLYBIRDS" /></g></g></g></svg>
