<?xml version="1.0" encoding="UTF-8" standalone="no"?>
<!-- Created with Inkscape (http://www.inkscape.org/) -->

<svg
   width="105.83334mm"
   height="105.83334mm"
   viewBox="0 0 105.83333 105.83333"
   version="1.1"
   id="svg1"
   xml:space="preserve"
   inkscape:version="1.4 (e7c3feb100, 2024-10-09)"
   sodipodi:docname="laramie.svg"
   inkscape:export-filename="../pngs/new_york.png"
   inkscape:export-xdpi="96"
   inkscape:export-ydpi="96"
   xmlns:inkscape="http://www.inkscape.org/namespaces/inkscape"
   xmlns:sodipodi="http://sodipodi.sourceforge.net/DTD/sodipodi-0.dtd"
   xmlns="http://www.w3.org/2000/svg"
   xmlns:svg="http://www.w3.org/2000/svg"><sodipodi:namedview
     id="namedview1"
     pagecolor="#ffffff"
     bordercolor="#000000"
     borderopacity="0.25"
     inkscape:showpageshadow="2"
     inkscape:pageopacity="0.0"
     inkscape:pagecheckerboard="0"
     inkscape:deskcolor="#d1d1d1"
     inkscape:document-units="mm"
     inkscape:zoom="1.4061728"
     inkscape:cx="201.25549"
     inkscape:cy="210.50044"
     inkscape:window-width="1920"
     inkscape:window-height="1011"
     inkscape:window-x="0"
     inkscape:window-y="32"
     inkscape:window-maximized="1"
     inkscape:current-layer="layer5"
     showgrid="false" /><defs
     id="defs1"><inkscape:path-effect
       effect="perspective-envelope"
       up_left_point="34.400832,0.15836915"
       up_right_point="69.811124,-0.23850585"
       down_left_point="29.241457,11.90625"
       down_right_point="73.647582,11.90625"
       id="path-effect57"
       is_visible="true"
       lpeversion="1"
       deform_type="perspective"
       horizontal_mirror="false"
       vertical_mirror="false"
       overflow_perspective="false" /><inkscape:path-effect
       effect="perspective-envelope"
       up_left_point="24.651002,-42.303377"
       up_right_point="103.75908,-42.778389"
       down_left_point="9.2131432,-4.8857069"
       down_right_point="118.24692,-4.8857069"
       id="path-effect4"
       is_visible="true"
       lpeversion="1"
       deform_type="perspective"
       horizontal_mirror="false"
       vertical_mirror="false"
       overflow_perspective="false" /><inkscape:path-effect
       effect="perspective-envelope"
       up_left_point="119.30528,-35.256903"
       up_right_point="154.04893,-35.256903"
       down_left_point="113.40188,21.41964"
       down_right_point="157.73856,21.173665"
       id="path-effect3"
       is_visible="true"
       lpeversion="1"
       deform_type="perspective"
       horizontal_mirror="false"
       vertical_mirror="false"
       overflow_perspective="false" /><inkscape:path-effect
       effect="bend_path"
       id="path-effect2"
       is_visible="true"
       lpeversion="1"
       bendpath="m 114.00215,-0.769248 h 44.82863"
       prop_scale="1.0116208"
       scale_y_rel="false"
       vertical="false"
       hide_knot="false"
       bendpath-nodetypes="cc" /><inkscape:path-effect
       effect="perspective-envelope"
       up_left_point="24.651002,-42.303377"
       up_right_point="103.75908,-42.778389"
       down_left_point="9.2131432,-4.8857069"
       down_right_point="118.24692,-4.8857069"
       id="path-effect4-3"
       is_visible="true"
       lpeversion="1"
       deform_type="perspective"
       horizontal_mirror="false"
       vertical_mirror="false"
       overflow_perspective="false" /><inkscape:path-effect
       effect="perspective-envelope"
       up_left_point="24.651002,-42.303377"
       up_right_point="103.75908,-42.778389"
       down_left_point="9.2131432,-4.8857069"
       down_right_point="118.24692,-4.8857069"
       id="path-effect4-3-7"
       is_visible="true"
       lpeversion="1"
       deform_type="perspective"
       horizontal_mirror="false"
       vertical_mirror="false"
       overflow_perspective="false" /><inkscape:path-effect
       effect="perspective-envelope"
       up_left_point="34.400832,0.15836915"
       up_right_point="69.811124,-0.23850585"
       down_left_point="29.241457,11.90625"
       down_right_point="73.647582,11.90625"
       id="path-effect57-8"
       is_visible="true"
       lpeversion="1"
       deform_type="perspective"
       horizontal_mirror="false"
       vertical_mirror="false"
       overflow_perspective="false" /></defs><g
     inkscape:groupmode="layer"
     id="layer7"
     inkscape:label="borde"
     style="display:inline"><g
       inkscape:groupmode="layer"
       id="layer2"
       inkscape:label="Capa 2"
       style="display:none"><path
         d="m 25.47231,-28.616881 8.125011,-0.03094 -1.203863,1.446043 -2.303565,8.161651 c 0.109017,0.440144 0.200281,0.782431 0.273415,1.025186 0.09728,0.243673 0.195331,0.529221 0.294242,0.857222 L 18.41209,-4.8857069 14.28217,-13.5155 l 10.608014,-26.464093 -0.239182,-2.323784 12.156973,-0.073 -1.592531,5.474217 0.905633,0.654842 -5.263693,2.933921 1.523398,-4.739989 -5.114294,0.02719 -7.602743,20.521656 1.973769,3.071734 4.533352,-4.298695 1.362392,-4.239023 -2.978094,0.0086 z m 24.368937,-9.529322 -5.022741,0.0267 -4.116857,20.3883 2.283229,3.719156 3.712411,-3.670144 z m 0.677208,20.149912 0.852385,2.619346 -10.05216,10.4912381 -5.279615,-9.3107261 6.177534,-26.534843 -0.472223,-1.67474 11.790561,-0.0708 z m 19.42682,-24.57906 0.206882,4.969491 -3.173917,2.326899 -0.03253,-2.958169 -1.512898,0.008 -0.08697,24.315016 1.540497,1.119249 -5.806264,7.9091161 1.147807,-33.3263431 -1.601238,0.0085 -0.160992,3.229015 -3.137017,-1.9972 0.446094,-5.530549 z m 13.140473,1.446371 2.743278,-1.541746 6.12183,30.381009 1.705871,1.566466 -4.364654,5.8375441 -3.383988,-19.7615821 -5.782443,0.01816 1.858636,15.2386852 -3.707307,4.5047379 -3.179176,-34.9613081 -1.675331,-2.749215 4.513275,0.01241 1.52403,12.495293 5.51277,-0.0221 z m 19.528962,-1.642538 1.60918,4.422661 1.55923,0.86432 -3.16764,3.796909 -1.63627,-4.816681 -5.131452,0.02735 1.139023,3.926648 10.917879,6.136336 2.50286,6.755567 2.41228,2.673531 -3.82588,14.0991711 -10.668931,-11.6522101 -0.698884,-2.836667 -1.549107,-1.426684 3.468148,-4.929255 1.893744,6.528475 4.44665,4.444795 1.62555,-4.519125 -1.86438,-5.488169 -11.208067,-6.772209 -2.349978,-9.069512 -1.508387,-2.092988 z"
         id="text3-0"
         style="-inkscape-font-specification:Gotham;display:inline;fill:#999999;stroke-width:4.63016"
         aria-label="GOTHS"
         transform="translate(-9.9187514,68.726713)"
         inkscape:original-d="m 17.161641,-20.303396 h 9.945608 l -0.958613,1.118382 0.07988,5.831561 q 0.399422,0.439364 0.639075,0.679017 0.279596,0.239653 0.599133,0.559191 l -8.90711,7.2295381 -7.708845,-4.9528328 V -30.249004 L 9.2131432,-32.565651 H 26.148636 v 5.27237 l 1.437919,0.599133 -5.671792,2.556301 v -4.233873 h -6.830116 v 16.016822 l 3.395087,1.957168 3.435029,-2.756012 v -2.915781 h -3.474972 z m 27.987356,-8.068324 h -6.670348 v 15.896995 l 3.275261,2.35659 3.395087,-2.316648 z m 4.19393,15.737226 1.278151,1.677573 -8.907111,6.0712141 -7.509133,-5.3522551 v -20.650117 l -1.198266,-1.677572 h 16.336359 z m 22.635115,-19.931157 v 4.793064 l -4.193931,2.076994 v -2.676127 h -1.997109 v 18.333469 l 1.63763,0.6790177 -5.871504,4.4735264 V -28.37172 h -2.116936 v 2.91578 l -4.233873,-1.797399 v -5.312312 z m 17.6823,1.517803 4.114046,-1.517803 v 23.5259553 l 1.437919,0.9186706 -5.551965,3.2353182 V -17.147962 h -6.71029 v 9.7858387 l -4.233873,2.4764164 V -29.849582 l -1.957168,-2.716069 6.191041,0.03994 v 11.223758 h 6.71029 z m 27.028798,-1.517803 -0.0399,4.273815 1.59768,0.798844 -5.75167,3.315203 v -4.273816 h -6.71029 v 3.514914 l 10.86428,5.032717 v 4.912891 l 1.55774,1.797399 -9.06688,8.3079771 -7.54907,-6.7502321 0.0399,-1.837341 -1.31809,-0.958613 5.47208,-3.474971 v 4.553411 l 3.35514,2.835896 3.35515,-2.875838 v -3.794509 l -10.90422,-5.232429 v -8.068324 l -1.3181,-2.076994 z"
         inkscape:path-effect="#path-effect4-3-7" /></g></g><g
     inkscape:groupmode="layer"
     id="layer4"
     inkscape:label="luces"
     style="display:inline" /><g
     inkscape:groupmode="layer"
     id="layer6"
     inkscape:label="sombras"
     style="display:inline" /><g
     inkscape:label="letras laranxa"
     inkscape:groupmode="layer"
     id="layer1"
     style="display:inline" /><g
     inkscape:groupmode="layer"
     id="layer5"
     inkscape:label="Capa 5"
     style="display:inline"><ellipse
       style="display:inline;fill:#492f24;fill-opacity:1;stroke-width:2.19649"
       id="path6-1"
       cx="-76.279221"
       cy="10.569262"
       rx="34.389194"
       ry="33.567142"
       transform="rotate(-120)" /><path
       style="display:inline;fill:#ffc425;fill-opacity:1;stroke-width:5.449"
       d="m 80.257364,49.36206 c 3.376788,10.81317 1.921465,21.219668 -4.260044,30.461768 -3.563907,5.328579 -6.031424,7.638415 -11.584925,10.84473 -6.589266,3.804314 -13.069027,5.279599 -20.577079,4.684937 C 28.847343,94.166327 15.738146,82.54971 12.745996,67.803894 11.505961,61.692783 11.663874,57.430923 13.360227,51.227422 c 1.682796,-6.154064 3.346369,-9.349884 7.280866,-13.987181 2.671439,-3.148578 2.85565,-3.877184 8.824481,-7.29522 5.623598,-3.221611 6.720998,-3.158392 10.176045,-3.864134 5.039716,-1.029573 9.695255,-0.936334 15.073341,0.301728 5.969099,1.37414 10.816048,3.833829 15.362061,7.795815 3.199427,2.788359 4.060135,3.815984 6.476968,7.732809 1.843594,2.987747 3.097453,5.510306 3.703375,7.450821 z M 68.876413,37.104376 C 63.60513,33.962232 53.270171,33.109383 46.836898,35.285675 l -1.387713,0.469615 2.438364,1.992715 c 1.341099,1.096004 5.340041,3.689221 8.886545,5.762708 13.570961,7.93438 17.798556,11.281113 21.011739,16.633755 1.703735,2.838213 1.742895,2.793659 1.533774,-1.745131 C 78.944149,50.251299 73.992409,40.154076 68.876492,37.104514 Z M 56.895645,29.554907 c -5.03335,-1.708342 -11.449396,-2.003341 -12.904955,-0.5933 -0.822336,0.796309 -0.753693,3.429442 0.107433,4.126921 0.274408,0.222248 1.603841,0.09011 2.954275,-0.293663 3.269348,-0.929107 9.159253,-1.391484 12.398714,-0.973331 1.441544,0.186079 2.721573,0.280236 2.84451,0.209259 0.316123,-0.182515 -2.650613,-1.542732 -5.399972,-2.475886 z M 72.611927,57.238816 C 69.580739,54.223767 65.989085,51.717926 57.639833,46.792922 49.124898,41.77022 44.501299,38.582396 43.646772,37.145181 c -0.422955,-0.711807 -0.833723,-0.693409 -2.740745,0.122012 -1.233785,0.527318 -2.738328,1.243088 -3.343722,1.590095 l -1.101035,0.630384 13.956004,24.172516 13.955815,24.172178 1.019866,-0.588821 c 1.837229,-1.060723 5.986073,-5.153377 7.852288,-7.745947 3.594171,-4.993114 5.228926,-9.587815 4.60703,-12.948629 -0.471687,-2.549051 -3.052256,-7.133759 -5.240354,-9.310206 z M 37.747964,29.259859 c -1.233595,0.400764 -3.066991,1.065967 -4.074181,1.478265 l -1.831277,0.749622 1.732782,3.001268 1.732783,3.001269 1.342639,-0.775165 c 0.738443,-0.426345 2.216838,-1.132016 3.285528,-1.567839 l 1.942906,-0.792653 -0.552218,-1.57035 c -0.303732,-0.863697 -0.45436,-2.183369 -0.334713,-2.932547 0.254532,-1.594224 -0.01009,-1.642496 -3.244241,-0.591877 z m -4.780458,12.250055 c -0.603151,0.350882 -1.960508,1.285436 -3.016583,2.076354 -1.825156,1.367727 -1.89384,1.512454 -1.392684,2.937427 0.812138,2.309463 1.200508,7.360296 1.238208,16.103628 0.05869,13.61171 0.810934,18.392251 3.674685,23.352412 2.802627,4.854285 5.760015,6.559985 11.878658,6.851069 1.618766,0.07703 4.099585,0.01414 5.512933,-0.139651 2.753513,-0.299703 8.419654,-1.919895 10.093157,-2.886095 L 61.975746,89.216233 48.019924,65.044047 34.064089,40.87183 Z m -5.081775,-7.417845 c -0.857648,0.671307 -2.461366,2.079276 -3.563577,3.129207 -1.102289,1.049801 -2.091671,1.959519 -2.198755,2.021346 -0.107077,0.06182 0.481226,0.421139 1.307446,0.798451 0.82623,0.37735 1.948194,1.193608 2.493314,1.813867 0.941285,1.071069 1.056671,1.07399 2.293408,0.05837 0.716137,-0.588374 2.065217,-1.512624 2.997788,-2.054177 L 32.911104,38.874792 31.178314,35.87352 29.44553,32.872252 Z M 22.742379,50.59386 c -5.483992,6.793699 -8.010307,14.669384 -6.510209,20.29555 1.421602,5.331844 7.380717,13.090238 12.649046,16.468273 3.971694,2.546655 4.023652,2.539121 2.420018,-0.351098 C 28.368128,81.720331 27.4847,76.06947 27.397153,62.03448 27.336331,52.280428 26.778463,47.033047 25.83362,47.327124 c -0.333635,0.103907 -1.724666,1.57397 -3.091241,3.266736 z m 0.679692,-7.762968 c -2.312105,-1.994441 -4.678466,0.198801 -6.984244,6.473334 -1.267729,3.449802 -2.704454,11.898127 -1.699849,9.995609 0.104901,-0.19898 0.918702,-1.846885 1.808296,-3.662374 1.435593,-2.929919 6.256182,-9.328822 7.621714,-10.117213 1.101174,-0.635765 0.933361,-1.240817 -0.745917,-2.689356 z"
       id="path5-0"
       sodipodi:nodetypes="sssssssccssssssccssssssscsssssssccscccssssssscccsccssscccssssssccccccssscscccscsssssssscss" /><path
       id="path67"
       style="fill:#492f24;fill-opacity:1;stroke:#ffc425;stroke-width:0.885003;stroke-opacity:1"
       d="m 88.480541,9.2718875 c -0.09785,0.012731 -0.198094,0.040232 -0.303262,0.080588 -0.254729,0.097748 -0.143309,0.411221 0.484932,1.3651555 0.533429,0.810321 0.717415,1.271293 0.531662,1.333208 -0.156123,0.05205 -0.325874,-0.03256 -0.377647,-0.187869 -0.05177,-0.155315 -0.430747,-0.724414 -0.841599,-1.264546 C 87.4147,9.8623091 87.039935,9.5982092 86.476914,9.5432068 c -0.889047,-0.08685 -0.939472,0.1545742 -0.218863,1.0504492 1.195207,1.485876 1.192627,1.481501 0.81585,1.481501 -0.191433,0 -0.644252,-0.42795 -1.006582,-0.950793 C 85.280029,9.9883037 84.709867,9.6441114 83.93781,9.8378856 l -0.573623,0.1435243 0.862581,1.0528341 c 1.1706,1.428562 0.812863,1.620215 -0.488749,0.261778 -1.049752,-1.095582 -1.570093,-1.293834 -2.227258,-0.849228 -0.292832,0.198115 -0.205185,0.366843 0.526894,1.016118 0.48295,0.428322 0.877839,0.84687 0.877839,0.929812 0,0.397354 -0.689736,0.0687 -1.404733,-0.668988 -0.527889,-0.544643 -1.010029,-0.819189 -1.437156,-0.819189 -1.009785,0 -1.026155,0.42914 -0.04911,1.292202 1.139524,1.006582 0.667606,1.053443 -0.724778,0.072 -0.923791,-0.651149 -1.127324,-0.709817 -1.646006,-0.473489 -0.786907,0.358538 -0.746547,0.526943 0.287526,1.197312 1.073509,0.695935 0.60449,0.953413 -0.496852,0.272745 -0.900428,-0.556494 -1.844784,-0.631913 -2.222015,-0.17738 -0.200342,0.2414 -0.07642,0.396528 0.556934,0.698552 0.447868,0.213572 0.813944,0.495681 0.813944,0.62655 0,0.32573 -0.07295,0.309654 -1.271697,-0.272745 -0.875302,-0.425253 -1.149658,-0.464824 -1.64553,-0.23889 -0.807213,0.367791 -0.749974,0.587168 0.283235,1.089074 1.169903,0.568305 0.537231,0.77847 -0.684724,0.227446 -0.673298,-0.303615 -1.041578,-0.355429 -1.31175,-0.185009 -0.613076,0.386715 -0.596607,0.76422 0.04625,1.057125 0.744408,0.339175 0.806547,0.787894 0.07677,0.554072 -1.246833,-0.399488 -1.957588,-0.394975 -2.295921,0.01478 -0.22721,0.275174 -0.252997,0.438107 -0.07867,0.496854 0.14272,0.04809 0.458727,0.242846 0.702366,0.432482 0.401643,0.312609 0.332612,0.331667 -0.738128,0.202175 -0.911195,-0.110197 -1.249854,-0.05969 -1.483409,0.221724 -0.371629,0.447787 -0.155818,0.853521 0.45394,0.853521 0.249972,0 0.454415,0.111748 0.454415,0.248426 0,0.1619 -0.367811,0.193276 -1.055694,0.09012 -1.538369,-0.230693 -2.422527,0.589948 -1.154875,1.071908 0.899338,0.341927 0.48565,0.656011 -0.689493,0.523556 -0.877505,-0.09891 -1.074292,-0.04224 -1.296969,0.373831 -0.229375,0.428591 -0.187582,0.509413 0.328534,0.638949 0.950261,0.238501 0.697642,0.62462 -0.298493,0.456324 -0.725351,-0.122548 -0.971407,-0.05878 -1.337023,0.345222 -0.382636,0.422807 -0.398303,0.526745 -0.106332,0.711426 0.188059,0.118951 0.479901,0.217879 0.648485,0.219818 0.16858,0.002 0.234951,0.11954 0.147339,0.2613 -0.08937,0.14461 -0.448954,0.199828 -0.818712,0.125882 -0.442392,-0.08848 -0.830238,0.007 -1.17967,0.289911 -0.57787,0.467931 -0.438449,0.965575 0.270361,0.965575 0.249971,0 0.454417,0.105336 0.454417,0.234122 0,0.128785 -0.470198,0.234121 -1.045205,0.234121 -0.793974,0 -1.103823,0.109019 -1.28791,0.452987 -0.345154,0.644924 -0.311876,0.717624 0.329012,0.717624 0.314364,0 0.636599,0.105813 0.716193,0.234599 0.0866,0.14012 -0.205905,0.234121 -0.728592,0.234121 -0.894932,0 -1.729927,0.526134 -1.729927,1.090027 0,0.198481 0.281417,0.316214 0.761015,0.31852 0.873935,0.0041 1.201501,0.179237 1.414745,0.757201 0.09651,0.261588 0.397143,0.409595 0.831586,0.409595 0.554807,0 0.704654,-0.118763 0.810606,-0.643717 0.171874,-0.851565 1.804806,-3.256524 3.196648,-4.708189 0.613329,-0.639688 1.179436,-1.331187 1.258346,-1.536813 0.07891,-0.205627 0.407871,-0.494593 0.730976,-0.641809 0.323105,-0.147217 0.651182,-0.468404 0.729068,-0.71381 0.07789,-0.245405 0.406137,-0.546505 0.729546,-0.669465 0.323408,-0.122958 0.641341,-0.426789 0.70618,-0.674709 0.06483,-0.247922 0.41518,-0.554201 0.778659,-0.68091 0.363479,-0.12671 0.771557,-0.437509 0.906925,-0.690446 0.135367,-0.252936 0.499614,-0.523108 0.809174,-0.600802 0.309559,-0.07769 0.735982,-0.406067 0.947933,-0.729544 0.211952,-0.323478 0.577393,-0.588405 0.812037,-0.588405 0.234642,0 0.617559,-0.210671 0.850658,-0.468243 0.233101,-0.257573 0.601537,-0.468245 0.819189,-0.468245 0.217652,0 0.586565,-0.210671 0.819665,-0.468244 0.2331,-0.257573 0.63629,-0.468244 0.895958,-0.468244 0.259669,0 0.638756,-0.144013 0.842077,-0.319951 0.203319,-0.175938 1.001555,-0.503048 1.774272,-0.726684 0.772718,-0.223635 1.706668,-0.518509 2.075151,-0.655637 0.368483,-0.137128 0.948068,-0.285291 1.28791,-0.329011 0.339842,-0.04372 1.766591,-0.227055 3.170899,-0.407687 1.40431,-0.180636 2.668818,-0.294216 2.809941,-0.252241 0.141132,0.04198 0.862574,0.138779 1.603091,0.215049 1.605397,0.165352 1.646874,0.0555 0.707612,-1.859625 -0.415683,-0.8475652 -0.819418,-1.3471195 -1.157261,-1.4319118 -0.985,-0.2472202 -1.05998,0.1275427 -0.293249,1.4676738 0.403956,0.706035 0.658368,1.356315 0.565044,1.445262 -0.09332,0.08895 -0.288986,-0.03747 -0.434867,-0.280851 C 89.732026,9.8258191 89.165505,9.1827446 88.48054,9.2718824 Z m 4.679576,0.2703614 c -0.675198,-0.077693 -0.793979,0.1588878 -0.420555,0.8382621 0.122914,0.223628 0.433298,0.907435 0.689489,1.51917 0.375944,0.897645 0.576302,1.111961 1.039478,1.111961 0.532056,0 0.560772,-0.05815 0.393861,-0.798209 -0.351407,-1.558104 -1.009848,-2.5915079 -1.702273,-2.6711841 z m 1.739948,0.3051684 c -0.146241,0.1462352 0.448274,2.4992637 0.814417,3.2228737 0.352275,0.696201 1.250715,0.896932 1.250715,0.279421 0,-0.200545 -0.118846,-0.837161 -0.264165,-1.414269 -0.145319,-0.577108 -0.192359,-1.120832 -0.104424,-1.208756 0.27127,-0.271264 0.537123,0.402211 0.697602,1.767597 0.160653,1.366904 0.445967,1.922566 0.987509,1.922566 0.234812,0 0.322332,-0.350124 0.322332,-1.287909 0,-0.708324 0.09318,-1.28791 0.206947,-1.28791 0.30769,0 0.439675,0.720071 0.349987,1.909215 -0.08288,1.099212 0.339181,2.034585 0.792014,1.754723 0.137111,-0.08474 0.320761,-0.575078 0.407681,-1.089549 0.14945,-0.884597 0.33208,-1.110325 0.64467,-0.797731 0.0756,0.07559 -0.0195,0.665627 -0.21123,1.311274 -0.19166,0.645646 -0.29236,1.32126 -0.22316,1.501527 0.21508,0.560459 0.77282,0.360894 1.08288,-0.387659 0.20103,-0.485397 0.37285,-0.638977 0.53452,-0.477305 0.16168,0.161672 0.0376,0.527517 -0.38528,1.137709 -0.34286,0.494739 -0.62321,1.019382 -0.62321,1.165842 0,0.492975 0.49423,0.577525 0.9527,0.162598 0.25024,-0.226469 0.53362,-0.333136 0.62942,-0.236983 0.0958,0.09615 -0.0895,0.376296 -0.41151,0.622736 -1.07767,0.82491 -1.19633,0.95706 -1.10433,1.230213 0.0504,0.149466 0.37232,0.237865 0.71525,0.196454 0.92509,-0.11172 0.75628,0.34926 -0.19312,0.527369 -0.77339,0.145087 -1.44685,0.836201 -1.12674,1.156307 0.0813,0.08132 0.39998,0.147816 0.70808,0.147816 0.32336,0 0.49769,0.1016 0.41198,0.24032 -0.0817,0.132165 -0.51044,0.215748 -0.9527,0.185963 -0.50216,-0.03382 -0.952353,0.09454 -1.199217,0.341408 -0.370959,0.370965 -0.348298,0.411576 0.370969,0.662313 0.447098,0.155857 0.679778,0.35398 0.558368,0.475395 -0.12142,0.121408 -0.51231,0.102126 -0.937918,-0.04625 -0.528559,-0.184255 -0.863201,-0.182753 -1.214479,0.0053 -0.641086,0.343097 -0.611845,0.578348 0.113485,0.908832 0.920105,0.419224 0.458304,0.765488 -0.491614,0.368588 -0.605681,-0.253066 -0.941089,-0.277947 -1.283139,-0.09488 -0.616485,0.32993 -0.583461,0.569513 0.122546,0.891188 0.321963,0.146698 0.585537,0.374367 0.585537,0.505914 0,0.318323 -0.232248,0.290524 -0.936483,-0.112054 -0.757172,-0.432843 -1.509518,-0.438929 -1.861535,-0.01478 -0.228224,0.275007 -0.136913,0.412069 0.498286,0.749095 0.608891,0.323075 0.686086,0.432329 0.356187,0.502576 -0.231713,0.04934 -0.675457,-0.077 -0.98655,-0.280851 -1.228744,-0.805121 -2.261633,-0.198728 -1.206848,0.708564 0.868349,0.746922 0.412887,0.894635 -0.611771,0.198361 -0.964368,-0.655304 -1.399798,-0.715827 -1.788104,-0.247951 -0.215215,0.259325 -0.14053,0.430405 0.358577,0.823004 0.847994,0.667031 0.502603,0.942803 -0.371449,0.296586 -0.667619,-0.49359 -2.114251,-0.710606 -2.114251,-0.31709 0,0.106338 0.263581,0.440902 0.585544,0.743373 0.57758,0.5426 0.752037,0.94044 0.409594,0.93315 -0.09659,-0.0021 -0.532429,-0.31854 -0.968435,-0.702842 -0.830401,-0.731923 -1.313292,-0.848086 -1.899679,-0.457276 -0.294613,0.196352 -0.230052,0.345318 0.402442,0.923613 1.075724,0.983543 0.590146,1.06755 -0.622736,0.107762 -0.559069,-0.442407 -1.045707,-0.804407 -1.081443,-0.804407 -0.306009,0 -0.805837,0.334555 -0.805837,0.539292 0,0.140158 0.282873,0.550483 0.628934,0.911693 0.440932,0.460231 0.524128,0.65659 0.27799,0.65659 -0.193179,0 -0.654069,-0.316006 -1.024224,-0.702366 -0.435468,-0.454529 -0.905116,-0.702842 -1.331301,-0.702842 -0.826819,0 -0.835997,0.375128 -0.02956,1.216862 0.387256,0.404206 0.506336,0.65659 0.30946,0.65659 -0.175933,0 -0.658079,-0.368913 -1.070953,-0.819666 -0.769402,-0.839992 -1.140589,-0.970023 -1.720868,-0.602708 -0.26998,0.170896 -0.210879,0.352453 0.319474,0.982741 0.887121,1.054284 0.33014,1.153715 -0.590311,0.105379 -0.4488,-0.511156 -0.947262,-0.836356 -1.281711,-0.836356 -0.82177,0 -0.880798,0.347297 -0.196453,1.160597 0.945583,1.123761 0.425437,1.174601 -0.595081,0.05817 -0.917385,-1.003606 -1.103002,-1.09257 -1.753292,-0.84303 -0.328455,0.12604 -0.321857,0.209479 0.05961,0.761016 0.721238,1.042806 0.783399,1.204694 0.460614,1.203034 -0.168583,-8.81e-4 -0.558608,-0.37154 -0.866395,-0.82348 -0.55479,-0.814629 -1.40516,-1.235929 -1.889665,-0.936489 -0.165723,0.102424 -0.09036,0.38225 0.220771,0.819189 0.482711,0.677907 0.611458,1.183667 0.297064,1.167749 -0.09658,-0.0048 -0.464344,-0.426229 -0.817282,-0.936487 -0.514799,-0.744267 -0.786036,-0.927906 -1.369923,-0.927906 h -0.727638 l 0.491608,0.833017 c 0.549088,0.930636 0.579097,1.03996 0.288004,1.03996 -0.111672,0 -0.48162,-0.421343 -0.822527,-0.936488 -0.446898,-0.675309 -0.782408,-0.936489 -1.20208,-0.936489 -0.674907,0 -0.718052,0.228271 -0.224585,1.182531 0.533363,1.031409 -0.02445,0.837666 -0.708566,-0.246042 -0.442888,-0.70158 -0.744383,-0.936489 -1.201128,-0.936489 -0.628071,0 -0.650278,0.145247 -0.193114,1.261208 0.291785,0.712257 -0.269573,0.357064 -0.883083,-0.558841 -0.312627,-0.466718 -0.785974,-0.853762 -1.10004,-0.898819 -0.56807,-0.08148 -0.588613,0.09423 -0.136849,1.19159 0.325484,0.790621 -0.355914,0.412286 -0.75148,-0.417224 -0.232004,-0.486516 -0.620344,-0.883477 -0.94364,-0.96462 -0.718902,-0.180433 -0.824174,-0.04282 -0.539769,0.705227 0.182846,0.480935 0.163773,0.617968 -0.08535,0.617968 -0.17603,0 -0.392409,-0.289321 -0.481118,-0.642763 -0.215849,-0.860012 -0.553041,-1.230213 -1.118636,-1.230213 -0.398841,0 -0.446946,0.107447 -0.324243,0.720961 0.213716,1.068582 -0.343615,0.749262 -0.659928,-0.378123 -0.164225,-0.585324 -0.483447,-1.044108 -0.882129,-1.267882 -0.790478,-0.443685 -1.007352,-0.230555 -0.690446,0.678523 0.199649,0.572729 0.184491,0.714764 -0.07582,0.714764 -0.205596,0 -0.382886,-0.389028 -0.483503,-1.059986 -0.156888,-1.046209 -0.745805,-1.749954 -1.464335,-1.749954 -0.243273,0 -0.28205,0.22381 -0.161644,0.936487 0.09524,0.56371 0.06671,0.936489 -0.07152,0.936489 -0.285648,0 -0.51402,-0.568747 -0.51402,-1.280758 0,-0.668564 -0.662458,-1.478114 -1.28791,-1.574005 -0.493199,-0.07561 -0.543557,0.183882 -0.257009,1.325578 0.109932,0.438002 0.05664,0.592696 -0.204081,0.592696 -0.231191,0 -0.405045,-0.32573 -0.504006,-0.944593 -0.08309,-0.519612 -0.355348,-1.204532 -0.605095,-1.522032 -0.536838,-0.682482 -1.455544,-0.803859 -1.266452,-0.167366 0.400829,1.349203 0.435257,1.755648 0.140665,1.65745 -0.166906,-0.05563 -0.435182,-0.547159 -0.596034,-1.091933 -0.372241,-1.260699 -0.723712,-1.677954 -1.413792,-1.677954 -0.494629,0 -0.527838,0.06154 -0.322812,0.600802 0.306884,0.807156 0.288285,1.331235 -0.04339,1.220676 -0.149502,-0.04983 -0.415273,-0.582984 -0.590788,-1.184915 -0.322476,-1.105938 -0.989119,-1.721613 -1.607385,-1.484362 -0.277399,0.106448 -0.275287,0.269238 0.01431,1.090026 0.255024,0.722818 0.268287,0.94112 0.05197,0.87021 -0.158799,-0.05206 -0.424298,-0.507969 -0.589835,-1.013258 -0.330361,-1.008395 -0.833721,-1.503912 -1.527277,-1.503912 -0.459593,0 -0.475058,0.452304 -0.05007,1.463382 0.106561,0.253515 0.06858,0.409594 -0.09918,0.409594 -0.149136,0 -0.43427,-0.394889 -0.633703,-0.877838 -0.490242,-1.187175 -0.983096,-1.697981 -1.639808,-1.697981 -0.651493,0 -0.643468,-0.04794 -0.184532,1.05045 0.645124,1.543994 -0.0077,1.257734 -0.787241,-0.345223 -0.369805,-0.760478 -1.483575,-1.452724 -1.810988,-1.125311 -0.07445,0.07445 0.02863,0.528566 0.229354,1.008965 0.430232,1.029695 0.433092,1.05045 0.134941,1.05045 -0.126616,0 -0.49036,-0.513299 -0.808222,-1.140569 -0.565894,-1.116734 -1.20442,-1.551573 -1.767597,-1.203512 -0.214404,0.132508 -0.192595,0.347879 0.09107,0.896435 0.455656,0.881137 0.46077,0.979402 0.05054,0.979402 -0.177554,0 -0.450823,-0.308629 -0.607001,-0.685676 -0.448072,-1.081741 -1.497488,-1.803126 -2.09041,-1.43668 -0.212679,0.131441 -0.157012,0.393647 0.219818,1.03233 0.387027,0.655962 0.427433,0.855904 0.173565,0.855904 -0.182185,0 -0.567583,-0.421314 -0.856858,-0.936011 -0.542827,-0.965822 -1.488762,-1.444199 -1.947838,-0.985124 -0.171633,0.171633 -0.08839,0.467365 0.276559,0.979879 0.808579,1.135545 0.303542,1.179715 -0.659928,0.0577 -0.865859,-1.008349 -1.579389,-1.340072 -2.139045,-0.994184 -0.232927,0.143958 -0.153308,0.385452 0.340454,1.032807 0.881781,1.156077 0.272424,1.087304 -0.816327,-0.09203 -0.882361,-0.955769 -1.255788,-1.097924 -1.867732,-0.710949 -0.294246,0.186071 -0.264854,0.327788 0.196453,0.951747 0.782474,1.058351 0.431733,1.134082 -0.664697,0.143526 -0.957713,-0.865234 -1.483557,-1.021077 -2.109006,-0.625598 -0.289927,0.183324 -0.234773,0.336346 0.334256,0.930289 0.930642,0.971374 0.5788,1.186956 -0.455369,0.278944 -0.526311,-0.462106 -1.087677,-0.733836 -1.51631,-0.733836 -1.033152,0 -1.115358,0.455102 -0.216956,1.200173 1.070287,0.887622 0.283876,0.930975 -0.873548,0.04816 -0.670655,-0.511533 -0.930069,-0.5858 -1.428573,-0.409594 -0.87194,0.308198 -0.89663,0.696142 -0.07486,1.181577 0.393304,0.232326 0.715241,0.505027 0.715241,0.606047 0,0.320406 -0.561783,0.196228 -1.28791,-0.284666 -0.812043,-0.537794 -1.467973,-0.583101 -2.048925,-0.142094 -0.578703,0.439295 -0.523738,0.554778 0.468244,0.984648 1.122264,0.486327 0.575325,0.730523 -0.696167,0.310891 -0.790768,-0.260978 -1.026597,-0.256321 -1.534429,0.03003 -0.909644,0.512941 -0.892619,0.877029 0.04959,1.053789 1.314441,0.246591 1.022702,0.657879 -0.338547,0.477303 -1.068747,-0.141775 -1.22994,-0.09897 -1.811466,0.482549 l -0.637994,0.638471 0.765784,0.198361 c 0.924323,0.239517 0.77207,0.649438 -0.241275,0.649438 -0.846568,0 -1.584973,0.574808 -1.584973,1.234027 0,0.363684 0.12205,0.436216 0.585544,0.347607 0.880631,-0.168343 0.703156,0.235747 -0.284665,0.648484 -0.983105,0.410771 -1.228677,0.701094 -1.234029,1.457661 -0.004,0.592408 0.07618,0.625665 0.699982,0.291818 0.845249,-0.452362 0.746791,0.224084 -0.105856,0.727161 -0.860195,0.507505 -1.309674,1.464982 -0.886421,1.888235 0.162309,0.162312 0.436536,0.10916 0.856381,-0.165936 0.983285,-0.644255 1.043725,-0.138246 0.07629,0.638471 -0.704542,0.565657 -0.877839,0.862174 -0.877839,1.501528 0,0.935345 0.05848,0.953924 0.97225,0.303262 0.979274,-0.697301 1.127624,-0.348025 0.240798,0.566947 -0.516204,0.532593 -0.744804,0.994864 -0.744804,1.504866 0,0.979115 0.285825,1.10505 0.936489,0.412455 0.757349,-0.806165 1.073146,-0.464217 0.357143,0.386707 -0.7388,0.878011 -0.852404,1.817225 -0.300878,2.488084 0.189311,0.230277 0.366257,0.1006 0.766261,-0.56218 0.671425,-1.112495 0.924941,-0.550354 0.307077,0.680908 -0.382012,0.761257 -0.402601,0.973531 -0.143525,1.504866 0.410765,0.842453 0.838806,0.926687 1.020886,0.201222 0.265422,-1.057542 0.592158,-0.657702 0.434389,0.531662 -0.139468,1.051296 -0.101662,1.172509 0.518788,1.662695 l 0.669465,0.528801 0.07343,-0.730498 c 0.09535,-0.944915 0.511636,-0.695037 0.511636,0.307076 0,0.421687 0.07056,0.836801 0.156399,0.92266 0.259305,0.25931 0.545966,0.175913 0.545966,-0.158784 0,-0.173219 0.21115,-0.505505 0.468722,-0.738605 0.25757,-0.2331 0.468244,-0.700308 0.468244,-1.038051 0,-0.731145 -0.593794,-1.654591 -1.063802,-1.654591 -0.184141,0 -0.489243,-0.368914 -0.677571,-0.819665 -0.188337,-0.450752 -0.451212,-0.819665 -0.584112,-0.819665 -0.132909,0 -0.312378,-0.28288 -0.399105,-0.628458 -0.08673,-0.345579 -0.299085,-0.89871 -0.471581,-1.229259 -0.172505,-0.33055 -0.313909,-0.792289 -0.314706,-1.026132 -7.97e-4,-0.233843 -0.108917,-0.625083 -0.239844,-0.869732 -0.349549,-0.653139 -0.511349,-5.156547 -0.198837,-5.5331 0.140402,-0.169141 0.194076,-0.551833 0.119207,-0.850182 -0.09327,-0.371574 0.0093,-0.666927 0.325196,-0.937443 0.253677,-0.217207 0.461091,-0.651979 0.461091,-0.966527 0,-0.357942 0.167838,-0.625143 0.448695,-0.714287 0.246809,-0.07833 0.557589,-0.454303 0.690445,-0.835401 0.132848,-0.381096 0.401914,-0.69283 0.597941,-0.69283 0.19602,0 0.589801,-0.316484 0.875454,-0.702842 0.285644,-0.386359 0.692206,-0.702366 0.903111,-0.702366 0.210905,0 0.630672,-0.263102 0.933149,-0.585067 0.302468,-0.321967 0.779221,-0.585544 1.059033,-0.585544 0.279812,0 0.744148,-0.20441 1.031854,-0.453939 0.287713,-0.249524 0.680071,-0.393171 0.872117,-0.319474 0.192045,0.0737 0.644467,-0.0844 1.005627,-0.351422 0.401782,-0.297045 0.849473,-0.435205 1.153444,-0.355713 0.273245,0.07145 0.754569,-0.03872 1.069523,-0.245089 0.375551,-0.246064 0.818983,-0.326 1.287911,-0.232214 0.416499,0.0833 0.854433,0.02703 1.049019,-0.134465 0.209116,-0.173551 0.648205,-0.218312 1.173947,-0.119684 0.528867,0.09922 0.964803,0.0538 1.177285,-0.122545 0.185589,-0.154022 0.536949,-0.216704 0.781043,-0.139233 0.244094,0.07748 1.276739,0.193115 2.294492,0.256533 3.788659,0.236086 8.749967,0.999484 9.644778,1.484363 0.294633,0.159655 0.721618,0.231389 0.948885,0.159259 0.227267,-0.07213 0.618438,0.02394 0.869256,0.213619 0.250817,0.189688 0.772331,0.351791 1.158689,0.360004 0.386359,0.0082 0.906791,0.169491 1.156783,0.358574 0.24999,0.189084 0.73659,0.343793 1.080965,0.343793 0.344376,0 0.894181,0.210672 1.221632,0.468244 0.32745,0.257574 0.751394,0.468243 0.94221,0.468243 0.190814,0 1.200267,0.42182 2.24347,0.936965 1.043203,0.515146 2.014514,0.936488 2.158595,0.936488 0.159169,0 0.207263,0.219405 0.122068,0.558841 -0.110665,0.440926 -0.03214,0.586667 0.373833,0.69283 0.05786,0.01513 0.08985,0.01411 0.13971,0.02432 l 0.318044,0.03003 c 0.215035,-0.02324 0.217692,-0.175823 -0.03529,-0.480643 -0.374774,-0.45161 -0.03102,-0.450848 0.566946,0.0014 0.24999,0.189085 0.693745,0.343793 0.98608,0.343793 0.292333,0 0.74136,0.225235 0.997521,0.500192 0.349475,0.375116 0.636065,0.465768 1.148199,0.363341 0.534755,-0.106952 0.790605,-0.01234 1.1811,0.436773 0.580208,0.667299 1.367548,0.753582 1.485316,0.163076 0.07263,-0.364175 0.132308,-0.350925 0.537385,0.1173 0.493379,0.570291 1.650405,0.71911 1.820048,0.234121 0.07505,-0.21454 0.226094,-0.183056 0.56504,0.117299 0.536361,0.475296 1.263781,0.531473 1.66651,0.128744 0.218547,-0.218547 0.343155,-0.218547 0.561702,0 0.329678,0.329677 1.505608,0.376182 1.69655,0.06723 0.07715,-0.124836 0.425558,-0.102558 0.838738,0.0534 0.538428,0.203231 0.814788,0.198736 1.162027,-0.01812 0.300897,-0.187908 0.641076,-0.213627 1.002291,-0.07629 0.325062,0.123564 0.704443,0.119998 0.935057,-0.0091 0.213405,-0.119428 0.787371,-0.216049 1.275513,-0.214572 1.811069,0.0055 3.094031,-0.15193 3.415988,-0.419132 0.187423,-0.15555 0.631182,-0.214975 1.02184,-0.136848 0.46317,0.09264 0.785742,0.02354 0.979401,-0.209806 0.203651,-0.245387 0.560947,-0.311452 1.212095,-0.224107 0.71885,0.09642 0.955794,0.03813 1.071431,-0.263209 0.11305,-0.294601 0.329252,-0.353103 0.905016,-0.24509 0.531604,0.09973 0.8686,0.02975 1.133895,-0.235551 0.245953,-0.245955 0.577613,-0.32719 0.952224,-0.233169 0.405885,0.101868 0.717041,0.0021 1.058555,-0.3395 0.355198,-0.355196 0.663896,-0.447613 1.16155,-0.348084 0.526374,0.105276 0.757937,0.02065 1.037574,-0.3786 0.25621,-0.365761 0.498894,-0.470381 0.840649,-0.361912 0.559997,0.177734 1.513578,-0.257891 1.304602,-0.596034 -0.08524,-0.137914 0.175574,-0.20958 0.646574,-0.177856 0.905,0.06095 1.356569,-0.150529 1.356569,-0.635135 0,-0.223835 0.256183,-0.338531 0.761019,-0.34093 0.903515,-0.0042 1.469611,-0.310128 1.245474,-0.672803 -0.0885,-0.143185 -0.02315,-0.271024 0.145429,-0.283712 0.16858,-0.0127 0.570184,-0.03867 0.892147,-0.05818 0.346295,-0.02098 0.673362,-0.235398 0.800586,-0.524985 0.118292,-0.269243 0.539641,-0.585727 0.936492,-0.702844 0.431038,-0.127199 0.844621,-0.472201 1.027091,-0.856857 0.16801,-0.354163 0.48949,-0.643716 0.71427,-0.643716 0.52581,0 0.97035,-0.448026 0.97035,-0.977495 0,-0.228507 0.31647,-0.578865 0.70285,-0.778659 0.58589,-0.302985 0.88981,-0.833059 0.64371,-1.122451 -0.0322,-0.03786 0.1493,-0.380321 0.40339,-0.761015 0.73748,-1.104973 0.87127,-3.43542 0.29516,-5.141149 -0.50567,-1.497177 -1.80419,-3.181683 -3.02451,-3.923808 -0.40009,-0.243315 -0.87769,-0.593016 -1.06141,-0.776751 -0.183743,-0.183734 -0.513651,-0.333779 -0.733368,-0.333779 -0.219727,0 -0.625981,-0.158609 -0.902629,-0.352376 C 97.888783,10.634664 95.052741,9.69476 94.900059,9.8474379 Z M 84.326424,44.317714 c -0.505512,0.01921 -0.876519,0.08203 -1.187299,0.191684 -0.468707,0.16537 -1.234099,0.300877 -1.701318,0.300877 -0.46722,0 -1.207932,0.221158 -1.64553,0.491609 -0.437599,0.270451 -1.117591,0.491608 -1.511064,0.491608 -0.407986,0 -0.999607,0.237122 -1.377076,0.551689 -0.364044,0.303378 -1.042459,0.621635 -1.507728,0.707135 -0.465266,0.0855 -1.030909,0.35965 -1.256916,0.609384 -0.226006,0.249736 -0.910313,0.619821 -1.5206,0.822527 -0.610287,0.202705 -1.342797,0.617287 -1.627888,0.920753 -0.285091,0.303465 -0.803277,0.608401 -1.151536,0.678048 -0.34826,0.06965 -1.040228,0.450019 -1.537768,0.845413 -0.497538,0.395395 -1.085448,0.719056 -1.306506,0.719056 -0.221059,0 -0.701372,0.277556 -1.067137,0.616537 -0.365767,0.338981 -1.038947,0.772301 -1.495807,0.96319 -0.456863,0.190889 -1.118842,0.589613 -1.471011,0.885945 -0.352168,0.29633 -0.935559,0.603546 -1.296492,0.682816 -0.360935,0.07928 -1.022039,0.456653 -1.469104,0.838738 -0.447064,0.382086 -0.981303,0.694913 -1.187299,0.695214 -0.205997,3.03e-4 -0.838011,0.315014 -1.404733,0.699028 -0.566721,0.384016 -1.200189,0.70006 -1.407593,0.702367 -0.207404,0.0024 -0.765307,0.267869 -1.239749,0.589834 -0.474443,0.321966 -1.052854,0.585067 -1.285526,0.585067 -0.232672,0 -0.918881,0.263579 -1.524416,0.585543 -0.605534,0.321967 -1.294398,0.585544 -1.531091,0.585544 -0.236695,0 -0.889577,0.208256 -1.450984,0.462999 -0.561406,0.254745 -1.31771,0.465383 -1.680338,0.468243 -0.36263,0.0028 -0.854087,0.109436 -1.092411,0.236984 -0.646033,0.345747 -6.252905,0.504166 -7.614449,0.215049 -1.822923,-0.387087 -4.844034,-1.378894 -5.619882,-1.844843 -0.386359,-0.232034 -0.965944,-0.500535 -1.28791,-0.596988 -0.321965,-0.09645 -0.931153,-0.477384 -1.354189,-0.846368 -0.42304,-0.368982 -0.902118,-0.670896 -1.064277,-0.670896 -0.162168,0 -0.693905,-0.421342 -1.182055,-0.936487 -0.48815,-0.515146 -1.031669,-0.936966 -1.207802,-0.936966 -0.176133,0 -0.646476,-0.473772 -1.045204,-1.053309 -0.664611,-0.965974 -1.405208,-1.395559 -1.405208,-0.814897 0,0.131546 -0.253284,0.354723 -0.563134,0.495899 -0.680885,0.310232 -0.948373,1.345474 -0.473489,1.832446 0.292158,0.299619 0.334256,0.27511 0.334256,-0.195023 0,-0.858258 0.550226,-0.450447 0.761016,0.564087 0.199454,0.959995 0.976935,1.98074 1.50868,1.98074 0.223129,0 0.269751,-0.179173 0.160214,-0.615584 -0.115741,-0.461163 -0.07421,-0.589303 0.164505,-0.509729 0.175364,0.05845 0.404115,0.516614 0.508297,1.018026 0.20364,0.980126 0.888909,1.867771 1.581636,2.048925 0.374709,0.098 0.411373,0.0042 0.291817,-0.739082 -0.12359,-0.768413 -0.09962,-0.820475 0.246997,-0.534999 0.21117,0.173924 0.450174,0.667786 0.530709,1.097178 0.162725,0.867431 0.608184,1.362385 1.547303,1.719439 0.619779,0.23564 0.625097,0.228775 0.489701,-0.605571 -0.179126,-1.10382 0.280934,-0.855787 0.79487,0.428667 0.364188,0.910191 1.26915,1.610245 2.081827,1.610245 0.380878,0 0.378791,-0.03666 -0.06104,-1.112437 -0.269022,-0.658004 0.44962,-0.233094 0.90168,0.533092 0.578614,0.980677 1.072948,1.281711 2.104238,1.281711 0.594763,0 0.702525,-0.06231 0.483978,-0.280851 -0.154544,-0.154542 -0.281328,-0.365216 -0.281328,-0.468244 0,-0.396427 0.542342,-0.158101 1.171087,0.514974 0.522683,0.559535 0.851495,0.702365 1.615967,0.702365 0.989958,0 1.164923,-0.169237 0.678525,-0.655636 -0.486812,-0.486811 0.254762,-0.335725 0.919798,0.187392 0.575587,0.452757 2.145686,0.649951 2.483792,0.311845 0.08614,-0.08614 -0.01784,-0.349716 -0.23126,-0.585543 -0.363237,-0.401371 -0.359385,-0.428528 0.05817,-0.421515 0.245337,0.0041 0.650258,0.162337 0.900249,0.351422 0.500734,0.378735 1.935086,0.454786 2.448507,0.129696 0.264109,-0.167228 0.229964,-0.267675 -0.175949,-0.521172 -0.27649,-0.172671 -0.502576,-0.393802 -0.502576,-0.491609 0,-0.296942 0.790789,-0.184826 1.274081,0.180718 0.576624,0.436138 1.779355,0.442547 2.366969,0.01288 0.436378,-0.319088 0.429859,-0.34063 -0.1893,-0.622737 -0.352876,-0.16078 -0.641809,-0.380632 -0.641809,-0.488747 0,-0.31034 0.661074,-0.230526 1.445262,0.174995 0.797198,0.412246 2.079583,0.29475 2.515738,-0.230784 0.205108,-0.247139 0.106469,-0.37949 -0.457752,-0.613199 -1.161768,-0.481214 -0.466727,-0.825016 0.797254,-0.394336 1.100339,0.374923 1.812809,0.313564 2.601568,-0.224109 0.44238,-0.301557 0.429568,-0.327672 -0.292772,-0.600325 -1.459067,-0.550737 -0.722805,-0.866746 0.94221,-0.404349 0.704173,0.195558 1.040234,0.16694 1.697504,-0.144955 1.004085,-0.47647 1.035163,-0.719157 0.1173,-0.920753 -0.38636,-0.08486 -0.702367,-0.242646 -0.702367,-0.350468 0,-0.354645 0.571743,-0.403397 1.404733,-0.120161 0.905134,0.307765 2.105128,0.101085 2.553884,-0.439633 0.218544,-0.263332 0.125061,-0.377545 -0.482549,-0.589359 -1.152864,-0.401891 -0.54528,-0.836588 0.70046,-0.501145 0.762986,0.205453 1.126076,0.187402 1.785716,-0.08821 0.971643,-0.405978 1.062265,-0.770366 0.242705,-0.976063 -0.321967,-0.0808 -0.585067,-0.23207 -0.585067,-0.336163 0,-0.326623 0.523565,-0.382537 1.39758,-0.149248 0.663845,0.17719 1.02757,0.137274 1.712762,-0.187869 1.054122,-0.500215 1.096243,-0.741114 0.165459,-0.945548 -1.198369,-0.263206 -0.525304,-0.625973 0.843984,-0.454893 0.977462,0.122127 1.39877,0.0708 1.851042,-0.22554 0.743646,-0.487255 0.740949,-0.750989 -0.0096,-0.939348 -1.075774,-0.270002 -0.363639,-0.610612 0.953176,-0.455846 0.978275,0.114976 1.403695,0.05929 1.866778,-0.244137 0.65837,-0.431381 0.5875,-0.840645 -0.145432,-0.840645 -0.27545,0 -0.403684,-0.104115 -0.311845,-0.252718 0.09909,-0.160326 0.565497,-0.196076 1.276943,-0.09823 0.838972,0.115387 1.318798,0.05206 1.905399,-0.251288 0.768115,-0.397208 0.773225,-0.410197 0.25844,-0.639901 -0.942084,-0.420371 -0.557641,-0.657819 0.821097,-0.507344 1.039303,0.113427 1.453307,0.06265 1.814803,-0.222679 0.454297,-0.358586 0.454807,-0.377794 0.03005,-0.631318 -0.710633,-0.424141 0.02808,-0.675511 0.906448,-0.308507 0.568929,0.237716 0.97204,0.256558 1.628364,0.07533 0.843311,-0.232849 0.858948,-0.255888 0.463953,-0.692353 -0.347548,-0.384031 -0.355366,-0.451555 -0.05007,-0.451555 0.197412,0 0.714359,0.148495 1.148676,0.329964 0.750899,0.313745 2.077535,0.265017 2.077535,-0.07629 0,-0.08801 -0.126307,-0.286521 -0.280852,-0.441065 -0.486811,-0.486811 0.254283,-0.335685 0.919323,0.187393 0.330244,0.25977 0.950208,0.468245 1.391858,0.468245 0.714629,0 0.771155,-0.04647 0.553596,-0.452986 -0.564438,-1.054668 0.04944,-0.980989 0.750526,0.09013 0.482584,0.737277 1.270563,1.299354 1.821956,1.299354 0.119556,0 0.15128,-0.330229 0.07057,-0.733837 -0.232065,-1.160313 0.441429,-0.722252 0.795346,0.517357 0.272902,0.955873 0.998638,1.855811 1.496766,1.855811 0.114518,0 0.207888,-0.329325 0.207888,-0.731453 0,-0.599337 0.05901,-0.682167 0.327103,-0.459661 0.179893,0.149289 0.27509,0.471388 0.211237,0.715718 -0.16954,0.648305 0.365101,2.080093 0.879746,2.355524 0.373267,0.19976 0.468121,0.140122 0.597469,-0.375263 0.218757,-0.871585 0.552319,-0.256323 0.556933,1.027563 0.0041,1.157298 0.333155,1.916367 0.831108,1.916367 0.345465,0 0.501756,1.306623 0.391952,3.278184 -0.07183,1.289548 -1.336149,3.578185 -2.767983,5.010022 -1.219398,1.219405 -4.233261,3.418541 -4.688161,3.420756 -0.111475,5.51e-4 -0.6769,0.316156 -1.256438,0.701413 -0.579539,0.385255 -1.27681,0.70086 -1.549211,0.701412 -0.272402,5.51e-4 -0.757994,0.207687 -1.079537,0.460614 -0.321545,0.252927 -1.023206,0.558674 -1.558747,0.679002 -0.53554,0.120329 -1.231043,0.387366 -1.545873,0.593649 -0.314829,0.206284 -0.817462,0.375264 -1.116728,0.375264 -0.02237,0 -0.07158,0.01822 -0.09775,0.02051 l -0.971297,3.278186 c 0.420723,-0.02397 0.830187,-0.104383 1.020411,-0.262255 0.304567,-0.252765 0.29657,-0.326057 -0.06485,-0.592219 -0.380852,-0.280476 -0.382539,-0.315141 -0.02098,-0.45537 0.215313,-0.08351 0.60341,-0.03809 0.862581,0.100611 0.609231,0.326044 1.268696,0.319652 2.013163,-0.01955 0.665362,-0.303159 0.791135,-0.665173 0.23126,-0.665173 -0.200773,0 -0.299549,-0.105596 -0.219817,-0.234599 0.08506,-0.137621 0.646848,-0.177989 1.359911,-0.09775 0.931643,0.104836 1.324657,0.0469 1.683676,-0.248427 0.330533,-0.271893 0.382055,-0.420843 0.175472,-0.506868 -0.697074,-0.290267 -0.243816,-0.606365 0.689968,-0.481117 0.59814,0.08023 1.285352,0.005 1.756154,-0.191685 0.795643,-0.33244 1.045946,-0.815374 0.422469,-0.815374 -0.193178,0 -0.351421,-0.105337 -0.351421,-0.234121 0,-0.128788 0.479776,-0.234124 1.065708,-0.234124 1.080844,0 2.446602,-0.526319 2.446602,-0.942686 0,-0.125479 -0.166587,-0.227923 -0.370498,-0.227923 -0.203911,0 -0.324049,-0.131789 -0.267025,-0.292771 0.0576,-0.162699 0.404307,-0.267258 0.780572,-0.235554 1.488415,0.125401 3.099285,-1.168921 1.846272,-1.483408 -0.867833,-0.217814 -0.301922,-0.798208 0.778183,-0.798208 0.588868,0 1.031145,-0.18653 1.493416,-0.629412 0.933281,-0.894139 0.860064,-1.247378 -0.221719,-1.073338 -0.776393,0.124909 -0.843142,0.0992 -0.576966,-0.224108 0.165564,-0.20111 0.65153,-0.431725 1.080012,-0.512112 0.993563,-0.186395 1.528379,-0.781954 1.710855,-1.906354 L 99.147589,58.58772 98.32125,59.0984 c -0.952262,0.588532 -1.125659,0.622459 -1.113387,0.217911 0.0048,-0.160982 0.420824,-0.577566 0.924082,-0.925521 0.961776,-0.664974 1.380929,-1.744542 1.06428,-2.742233 -0.210638,-0.663636 -0.416302,-0.6153 -0.905969,0.213619 -0.426397,0.72184 -0.858191,0.928921 -0.855422,0.410072 8.48e-4,-0.160984 0.210942,-0.60878 0.466811,-0.995138 0.559064,-0.844163 0.605247,-2.159285 0.101085,-2.879082 -0.414419,-0.591669 -0.803455,-0.488222 -0.803455,0.213618 0,0.28461 -0.102269,0.405075 -0.260824,0.307077 -0.15306,-0.09444 -0.213046,-0.519873 -0.14495,-1.027085 0.143511,-1.06997 -0.314148,-2.219133 -1.038535,-2.606812 -0.300253,-0.160689 -0.583453,-0.24803 -0.629404,-0.194069 -0.04595,0.05396 -0.257097,-0.266696 -0.468721,-0.712856 -0.211616,-0.44616 -0.753233,-1.046102 -1.203988,-1.333208 -0.450748,-0.287106 -1.12183,-0.757156 -1.491045,-1.044251 -1.06786,-0.830328 -3.123714,-1.417641 -5.639905,-1.611675 -0.849901,-0.06554 -1.490008,-0.09026 -1.995521,-0.07105 z m -60.779221,3.380225 c -0.256763,0.03145 -0.670741,0.191693 -1.278373,0.46729 -1.632406,0.74039 -2.328039,1.411083 -2.335975,2.253008 -0.0029,0.289769 0.04969,0.526893 0.1173,0.526893 0.06761,0 0.861742,-0.372077 1.764735,-0.826817 1.151663,-0.57997 1.712383,-1.011117 1.877268,-1.444786 0.274833,-0.722868 0.282983,-1.028004 -0.144955,-0.975588 z m 0.0496,2.384135 -1.366586,0.603663 c -0.751509,0.332148 -1.366587,0.673268 -1.366587,0.757678 0,0.08442 0.271117,0.221602 0.602234,0.304692 0.79421,0.199332 0.609399,0.667457 -0.339979,0.861627 -0.767783,0.157028 -1.41169,0.766113 -1.425236,1.347989 -0.005,0.217705 0.183391,0.283599 0.589359,0.205989 0.9319,-0.178142 0.626249,0.525714 -0.476826,1.098133 -0.875123,0.454143 -1.413196,1.303168 -0.825865,1.303168 0.145834,0 0.199716,0.105336 0.12016,0.234122 -0.0796,0.128786 -0.430944,0.234122 -0.781041,0.234122 -0.350108,0 -0.887622,0.175609 -1.194453,0.390521 l -0.557886,0.390999 0.55884,0.206466 c 0.442076,0.163536 0.489022,0.24961 0.22554,0.412455 -0.19387,0.119816 -0.503076,0.114896 -0.740036,-0.01192 -0.52593,-0.281467 -1.165756,-0.27183 -1.608337,0.02432 -0.306023,0.204782 -0.296781,0.276737 0.07248,0.559317 0.725737,0.555372 0.03206,0.621955 -0.938872,0.09012 -1.072332,-0.587371 -1.825527,-0.455873 -1.592603,0.277989 0.190745,0.600995 -0.226718,0.6091 -0.644669,0.0124 -0.58068,-0.829044 -2.1907844,-1.124371 -1.892529,-0.34713 0.196576,0.512251 -0.3383587,0.400766 -0.6222595,-0.129698 -0.2690852,-0.502794 -1.4979306,-1.238109 -1.7118088,-1.024224 -0.071603,0.07184 -0.073588,0.278595 -0.0043,0.459184 0.069296,0.180588 0.016115,0.328057 -0.1177764,0.328057 -0.1338834,0 -0.315549,-0.236647 -0.4038724,-0.526417 -0.3570896,-1.171765 -1.5101108,-1.831883 -1.5101108,-0.864487 0,0.265177 -0.1053365,0.417187 -0.2341221,0.337594 -0.1287855,-0.0796 -0.234122,-0.598874 -0.234122,-1.153444 0,-1.195007 -0.4862586,-1.904061 -1.8171874,-2.651159 l -0.9374418,-0.526417 0.3247191,0.94221 c 0.1785758,0.518315 0.3102063,1.574782 0.2927718,2.347419 -0.024346,1.077175 0.070801,1.517839 0.4081639,1.89062 0.5693575,0.629137 1.6780555,1.200306 1.9745402,1.017071 0.1273519,-0.07871 0.5842381,0.07478 1.0156414,0.341408 0.4314122,0.266625 1.0158442,0.484934 1.2988764,0.484934 0.2830331,0 0.7448337,0.129216 1.0261327,0.287049 0.2813062,0.157833 1.1436537,0.35398 1.9163667,0.436297 2.218658,0.236341 4.536149,-0.01228 5.919329,-0.635134 0.679939,-0.306184 1.299424,-0.556457 1.3766,-0.556457 0.573668,0 4.528901,-4.038142 4.528901,-4.623791 0,-0.129187 0.368908,-0.637495 0.819667,-1.129603 0.872523,-0.952574 0.958287,-1.157996 0.582205,-1.390427 -0.14001,-0.08651 -0.155242,-0.292002 -0.03767,-0.502099 0.11277,-0.201518 0.09721,-0.737284 -0.03576,-1.235458 z m -6.09957,29.21614 c -0.395067,-0.01746 -0.778569,0.05143 -1.097656,0.222201 -0.582427,0.31171 -0.57618,0.623693 0.01574,0.811559 0.717896,0.22785 0.568453,0.664248 -0.175949,0.51402 -0.354161,-0.07147 -0.807798,-0.19378 -1.008013,-0.271315 -0.384374,-0.148854 -1.878097,0.735548 -2.031283,1.202557 -0.04954,0.151054 0.152932,0.3093 0.450125,0.351422 0.480973,0.06818 0.443472,0.122656 -0.340454,0.498285 -1.178798,0.56484 -1.671501,1.347843 -1.482455,2.355524 0.14422,0.768751 1.862047,3.427909 2.214384,3.427909 0.09708,0 0.789214,0.368436 1.537766,0.819189 0.748546,0.450752 1.53398,0.819665 1.745664,0.819665 0.211675,0 0.780274,0.212066 1.263592,0.471106 0.483308,0.25904 1.318393,0.526124 1.855811,0.593648 0.537409,0.06753 1.111873,0.234851 1.276465,0.37145 0.164593,0.136598 0.792297,0.294144 1.395196,0.350467 0.602908,0.05632 1.212525,0.175339 1.354188,0.264639 0.141671,0.0893 0.863044,0.244258 1.603569,0.343792 0.740518,0.09954 2.005022,0.288336 2.80994,0.420084 2.313167,0.378618 5.008238,0.662182 7.651167,0.804408 1.342679,0.07225 2.471095,0.16086 2.507155,0.196929 0.102053,0.102053 12.413906,-0.04747 14.252834,-0.173088 0.901504,-0.06158 2.271345,-0.168568 3.044063,-0.237937 0.772717,-0.06936 1.93141,-0.172308 2.575341,-0.228399 0.643932,-0.0561 1.829554,-0.214095 2.634469,-0.351422 0.804915,-0.137327 2.0827,-0.331717 2.839505,-0.431529 0.756806,-0.09981 1.52061,-0.29912 1.697504,-0.442972 0.176895,-0.143847 0.760903,-0.248516 1.297446,-0.232692 0.629331,0.01856 1.134417,-0.114754 1.423328,-0.376216 0.268231,-0.242745 0.824984,-0.405303 1.388521,-0.405303 0.604805,0 1.133933,-0.167691 1.481024,-0.468721 0.296984,-0.257574 0.866172,-0.471336 1.265023,-0.475396 0.769476,-0.0079 1.544918,-0.455715 1.544918,-0.892143 0,-0.144332 0.289554,-0.321912 0.643716,-0.394336 1.120881,-0.22921 1.775901,-0.676207 1.951176,-1.332255 0.09344,-0.349742 0.447178,-0.876898 0.785811,-1.171087 0.759516,-0.659832 1.016622,-1.974282 0.51688,-2.642098 -0.344073,-0.459796 -0.354888,-0.457389 -0.587451,0.151632 -0.312336,0.81793 -1.133329,1.3704 -2.037958,1.3704 -0.411306,0 -0.901301,0.187463 -1.119588,0.428668 -0.428897,0.473925 -0.30055,0.741942 0.354758,0.741942 0.236108,0 0.429144,0.09432 0.429144,0.209328 0,0.324534 -0.591156,0.472992 -0.957945,0.240797 -0.998532,-0.632122 -2.881064,0.141777 -1.968342,0.809175 0.627464,0.458813 0.007,0.727515 -0.637517,0.276082 -0.610767,-0.427797 -1.200287,-0.462914 -1.856764,-0.111577 -0.440968,0.235999 -0.446583,0.2809 -0.0863,0.679002 0.520499,0.575145 0.05174,0.848972 -0.632749,0.369541 -0.992294,-0.695031 -2.715491,-0.3404 -2.078012,0.427714 0.460525,0.554899 -0.02389,0.599673 -0.918369,0.08487 -0.764763,-0.440143 -0.966931,-0.468705 -1.521554,-0.216002 -0.618747,0.281919 -0.625969,0.306375 -0.223156,0.751479 0.40139,0.443533 0.398671,0.460138 -0.07439,0.460138 -0.269933,0 -0.560168,-0.111698 -0.644671,-0.248428 -0.281886,-0.456063 -1.251397,-0.686965 -1.880605,-0.44774 -0.55425,0.210725 -0.571988,0.258645 -0.223155,0.607478 0.620888,0.620888 0.183883,0.677894 -0.829679,0.108239 -0.622662,-0.34996 -1.142603,-0.482649 -1.519171,-0.388136 -0.593805,0.149034 -0.744431,0.469159 -0.338547,0.720007 0.128786,0.0796 0.234123,0.244064 0.234123,0.36525 0,0.38305 -0.613321,0.238284 -1.053788,-0.248427 -0.283832,-0.313631 -0.72119,-0.468243 -1.324149,-0.468243 -0.857951,0 -1.169819,0.274244 -0.666127,0.585542 0.128786,0.0796 0.234123,0.244063 0.234123,0.365251 0,0.383051 -0.613322,0.238758 -1.053789,-0.247951 -0.283833,-0.313632 -0.721189,-0.468721 -1.324148,-0.468721 -1.000245,0 -1.079914,0.11601 -0.512589,0.742897 0.361487,0.399442 0.359768,0.42819 -0.02479,0.42819 -0.226746,0 -0.725511,-0.263578 -1.108147,-0.585543 -0.732571,-0.616418 -1.254595,-0.720178 -1.821001,-0.361912 -0.292626,0.185093 -0.278897,0.286001 0.09488,0.699029 0.378987,0.418783 0.386644,0.482548 0.05961,0.482548 -0.207285,0 -0.64027,-0.263578 -0.962236,-0.585543 -0.404271,-0.404271 -0.842371,-0.585544 -1.415699,-0.585544 -0.929994,0 -1.003167,0.123361 -0.442495,0.742896 0.36172,0.3997 0.359825,0.428191 -0.03147,0.428191 -0.230569,0 -0.663372,-0.263578 -0.96176,-0.585543 -0.382263,-0.41247 -0.787927,-0.585544 -1.373262,-0.585544 -0.798561,0 -1.086475,0.282729 -0.596511,0.585544 0.128787,0.0796 0.234123,0.244064 0.234123,0.365249 0,0.40518 -0.526146,0.226209 -1.074291,-0.365249 -0.382263,-0.41247 -0.787927,-0.585544 -1.373262,-0.585544 -0.930531,0 -1.004173,0.123301 -0.443449,0.742896 0.362611,0.400678 0.358899,0.428191 -0.06055,0.428191 -0.246554,0 -0.582429,-0.21453 -0.746236,-0.476826 -0.366183,-0.586355 -1.360651,-0.989197 -1.966909,-0.796779 -0.421073,0.133644 -0.42628,0.18049 -0.08059,0.708089 0.337918,0.51573 0.337751,0.565516 -0.0014,0.565516 -0.204462,0 -0.637613,-0.316006 -0.962713,-0.702365 -0.450976,-0.535957 -0.787183,-0.702844 -1.41713,-0.702844 h -0.825388 l 0.38337,0.585544 c 0.564827,0.862036 -0.09447,0.784795 -0.996092,-0.116823 -0.487087,-0.487088 -0.931779,-0.702842 -1.450031,-0.702842 -0.743419,0 -0.745332,0.0033 -0.363819,0.585542 0.347111,0.529744 0.348333,0.585545 0.01192,0.585545 -0.204464,0 -0.637615,-0.316484 -0.962714,-0.702844 -0.445468,-0.529405 -0.789174,-0.702366 -1.395197,-0.702366 -0.80392,0 -0.804023,3.06e-4 -0.420561,0.585543 0.593391,0.90563 -0.07692,0.744392 -0.973203,-0.234121 -0.491266,-0.536335 -0.962509,-0.819665 -1.363248,-0.819665 -0.682762,0 -0.717365,0.0682 -0.369541,0.718101 0.401393,0.750018 -0.188836,0.543358 -1.047112,-0.36668 -0.50292,-0.533252 -0.988001,-0.819666 -1.388996,-0.819666 -0.617201,0 -0.822191,0.313747 -0.382416,0.585544 0.351515,0.21725 0.281637,0.585067 -0.111101,0.585067 -0.189869,0 -0.502637,-0.304699 -0.695214,-0.677095 -0.198169,-0.38322 -0.673401,-0.789592 -1.094794,-0.936488 -1.000549,-0.348793 -0.986641,-0.356177 -0.826818,0.442972 0.179718,0.898587 -0.198392,0.906827 -0.659928,0.01431 -0.415528,-0.803542 -1.213865,-1.419036 -1.840553,-1.419036 -0.299298,0 -0.395373,0.112708 -0.298969,0.350944 0.07817,0.193179 0.206043,0.509187 0.284188,0.702366 0.318504,0.787076 -0.402009,0.282946 -0.849706,-0.594604 -0.401791,-0.787586 -1.18398,-1.395671 -1.79573,-1.395671 -0.07204,0 -0.06595,0.324731 0.01335,0.721438 0.211826,1.059109 -0.363028,0.756814 -0.738128,-0.388136 -0.486583,-1.485273 -1.455276,-2.005746 -1.455276,-0.781997 0,0.475301 -0.0996,0.687731 -0.292294,0.621305 -0.285033,-0.09827 -0.330665,-0.646236 -0.148293,-1.785717 0.126608,-0.791037 -0.318326,-0.847486 -1.151538,-0.146385 -0.506,0.425766 -0.764194,0.519802 -0.885944,0.322812 -0.24096,-0.389874 0.75559,-1.13914 1.515356,-1.13914 0.859469,0 1.765379,-0.650709 1.444308,-1.037575 -0.356832,-0.429953 -0.0748,-0.581718 0.812514,-0.437728 0.644734,0.104627 0.889284,0.01294 1.378983,-0.515449 0.417686,-0.450691 0.743155,-0.603313 1.091933,-0.512112 0.0036,9.35e-4 0.0093,-4.11e-4 0.01288,4.77e-4 z m 58.440862,1.388042 c -0.29568,-0.04515 -0.374895,0.374423 -0.316613,1.311752 0.06374,1.025086 0.01208,1.291949 -0.234121,1.210187 -0.195828,-0.06504 -0.379235,-0.67587 -0.48255,-1.607384 -0.004,-0.03654 -0.01371,-0.05926 -0.01812,-0.09488 l -0.579345,0.905494 -0.585067,0.6914 c 0.302812,0.232185 0.626648,0.50775 0.899295,0.772459 0.890334,0.864408 1.054655,0.93917 1.538245,0.698075 1.189029,-0.592796 1.492266,-2.384335 0.561225,-3.315377 -0.350227,-0.350227 -0.605541,-0.54463 -0.78295,-0.571717 z m -55.691478,2.354572 c -0.511965,0.229007 -0.518001,0.309436 -0.16975,0.564087 0.664619,0.485976 0.160656,0.736098 -0.589835,0.292771 -0.620652,-0.36662 -0.710735,-0.364303 -1.501051,0.03863 l -0.841123,0.428667 0.571715,0.306124 c 0.314424,0.168275 0.571716,0.393643 0.571716,0.500667 0,0.275504 -0.87947,0.242471 -1.053788,-0.03957 -0.07959,-0.128785 -0.270041,-0.231737 -0.423422,-0.228876 -0.153379,0.0029 -0.05701,0.187081 0.214096,0.409593 0.271093,0.222514 0.558681,0.591504 0.638948,0.820143 0.133857,0.381239 0.257808,0.359014 1.497237,-0.266069 0.692248,-0.349127 1.700851,-0.742019 2.764165,-1.094319 l -1.439541,-1.406162 z m 53.123289,1.292202 c -0.06504,0.05613 -0.04108,0.239089 0.06055,0.559317 0.127155,0.400633 0.223908,0.444211 0.492562,0.221248 0.286205,-0.237526 0.275171,-0.320349 -0.07773,-0.578392 -0.2559,-0.187118 -0.410356,-0.258296 -0.475395,-0.202173 z m -0.903588,0.254148 -0.972249,1.148676 c 0.813249,0.256035 1.216823,-0.09195 1.009441,-1.036145 -0.0092,-0.0417 -0.02622,-0.07348 -0.03719,-0.112531 z m -49.57284,1.131034 c -0.334498,0.144771 -0.624643,0.337706 -0.624643,0.518787 0,0.345394 -0.327315,0.384203 -0.893098,0.105855 -0.252348,-0.124146 -0.68961,-0.04362 -1.214001,0.223155 -0.450758,0.229312 -0.766799,0.427941 -0.702365,0.441543 0.0644,0.01361 0.525779,0.06735 1.025654,0.119683 0.499886,0.05233 1.098461,0.266925 1.32987,0.47635 0.272794,0.246874 0.599707,0.323634 0.929813,0.218864 0.280033,-0.08888 0.892528,-0.161644 1.361341,-0.161644 0.280146,0 0.617884,-0.06328 0.936965,-0.147818 L 24.218575,87.01232 Z m 55.552722,1.872499 -0.448695,0.848751 c -0.28084,0.531463 -0.809091,1.027581 -1.412362,1.326057 -0.727504,0.35994 -0.859174,0.501315 -0.536429,0.576959 0.317624,0.07444 0.247224,0.145425 -0.274653,0.276561 -0.386359,0.09708 -1.034672,0.324816 -1.440494,0.505913 -0.405823,0.181097 -0.880071,0.337438 -1.053788,0.347606 -0.236737,0.01385 -0.242272,0.04833 -0.02289,0.13685 0.580039,0.234052 0.289767,0.605447 -0.370018,0.473489 -0.791154,-0.15823 -2.584385,0.389017 -2.151443,0.656592 0.226717,0.140115 0.224698,0.217804 -0.01,0.362864 -0.167144,0.1033 -0.51906,0.04001 -0.799161,-0.143525 -0.406657,-0.266456 -0.641054,-0.274412 -1.253102,-0.0434 -0.43329,0.16355 -0.705516,0.407322 -0.641331,0.574576 0.183653,0.478596 -0.285137,0.584034 -0.875932,0.196929 -0.440335,-0.288518 -0.701284,-0.310555 -1.28028,-0.108716 -0.479609,0.167193 -0.683727,0.36716 -0.599372,0.586974 0.167701,0.437019 -0.384677,0.428069 -1.018979,-0.01621 -0.421848,-0.295475 -0.610542,-0.302063 -1.226876,-0.04291 -0.400563,0.168424 -0.663072,0.371165 -0.583635,0.450602 0.07942,0.07943 0.0699,0.264939 -0.02098,0.411978 -0.113407,0.183496 -0.335502,0.107321 -0.708088,-0.242705 -0.488751,-0.459157 -0.627338,-0.481831 -1.390904,-0.229831 -0.690504,0.227886 -0.797265,0.341063 -0.574577,0.609385 0.446563,0.538077 -0.483047,0.41416 -1.076675,-0.143525 -0.459432,-0.431614 -0.571272,-0.444756 -1.274081,-0.149246 -0.514962,0.216524 -0.674612,0.382808 -0.481595,0.502098 0.224846,0.138964 0.218829,0.221608 -0.02671,0.373355 -0.206997,0.127931 -0.525356,-0.0063 -0.92695,-0.390997 -0.553264,-0.53006 -0.676699,-0.558063 -1.290295,-0.293726 -0.916585,0.394868 -0.900974,0.3736 -0.565993,0.777228 0.52605,0.633853 -0.251563,0.423201 -0.966527,-0.261778 -0.593659,-0.568762 -0.703409,-0.594696 -1.363249,-0.321381 -0.569972,0.236091 -0.662405,0.363235 -0.450602,0.618444 0.448416,0.540308 -0.502919,0.393902 -1.1029,-0.16975 -0.402719,-0.378333 -0.688619,-0.454444 -1.244518,-0.332349 -0.781007,0.171539 -0.876865,0.340474 -0.440589,0.776751 0.563977,0.563977 -0.314035,0.294812 -1.045205,-0.320427 -0.535854,-0.450849 -0.866716,-0.563261 -1.321286,-0.449171 -0.796239,0.199843 -0.84648,0.270212 -0.494946,0.693784 0.249549,0.300692 0.217973,0.356666 -0.200745,0.356666 -0.273342,0 -0.496854,-0.103059 -0.496854,-0.228877 0,-0.452799 -1.106114,-0.966944 -1.738511,-0.808222 -0.471331,0.118289 -0.584193,0.259257 -0.477303,0.596034 0.190426,0.599978 -0.49807,0.590351 -0.820143,-0.01144 -0.4852,-0.906588 -2.2805,-0.903568 -1.99266,0.0033 0.199759,0.62938 -0.04986,0.561927 -0.995615,-0.268454 -0.462932,-0.406461 -0.967204,-0.660486 -1.162503,-0.585544 -0.189673,0.07278 -0.515421,0.132558 -0.723823,0.132558 -0.294714,0 -0.316296,0.0623 -0.09775,0.280851 0.379952,0.379958 0.353906,0.655638 -0.06199,0.655638 -0.188648,0 -0.458699,-0.215952 -0.599847,-0.479689 -0.141147,-0.263738 -0.512537,-0.576744 -0.825388,-0.69569 -0.631239,-0.239996 -1.774633,0.04749 -1.316043,0.330918 0.150805,0.0932 0.274177,0.26886 0.274177,0.390044 0,0.42083 -0.570305,0.216986 -1.044729,-0.373356 -0.290627,-0.361635 -0.751766,-0.613099 -1.17967,-0.643715 -0.601257,-0.04301 -0.694328,0.0254 -0.646577,0.476349 0.06752,0.637769 -0.268698,0.68476 -0.686631,0.09584 -0.389699,-0.549136 -1.186802,-0.97368 -1.828154,-0.97368 -0.392981,0 -0.467872,0.09984 -0.350945,0.468244 0.180718,0.569402 -0.521639,0.672388 -0.738128,0.108239 -0.157451,-0.410315 -1.275865,-1.045204 -1.841506,-1.045204 -0.272126,0 -0.337118,0.132201 -0.230307,0.468721 0.103537,0.326235 0.04202,0.468244 -0.202651,0.468244 -0.193179,0 -0.415196,-0.201887 -0.493517,-0.448695 -0.07834,-0.246808 -0.480753,-0.581743 -0.89405,-0.74385 -1.074056,-0.421275 -1.228724,-0.394669 -1.146768,0.195499 0.05411,0.389434 -0.0191,0.489679 -0.283713,0.388138 -0.196205,-0.07529 -0.413637,-0.311508 -0.483025,-0.524988 -0.0694,-0.213477 -0.558984,-0.569702 -1.088119,-0.791532 -0.941067,-0.394528 -0.95921,-0.393389 -0.841123,0.05817 0.172159,0.658339 -0.209699,0.792757 -0.613675,0.216001 -0.283927,-0.40537 -1.791394,-1.392811 -2.126173,-1.392811 -0.05284,0 -0.04022,0.212095 0.02766,0.471581 0.09487,0.362807 0.03574,0.438123 -0.256057,0.326151 -0.208692,-0.08008 -0.381054,-0.318635 -0.381938,-0.530232 -0.0014,-0.227331 -0.393869,-0.54888 -0.958899,-0.786288 -0.796194,-0.334512 -0.934103,-0.344425 -0.824434,-0.05865 0.147522,0.384432 0.107889,0.403641 -0.419607,0.201221 -0.203711,-0.07818 -0.370495,-0.382868 -0.370495,-0.677095 0,-0.383699 -0.181851,-0.586176 -0.643717,-0.715717 -0.354161,-0.09933 -0.756495,-0.163224 -0.893573,-0.142094 -0.137087,0.02114 -0.469018,-0.462398 -0.737651,-1.074291 -0.43787,-0.997351 -0.490746,-1.04449 -0.511636,-0.4568 -0.04426,1.243142 1.497208,3.552491 2.708855,4.05875 0.412703,0.172439 1.140416,0.57847 1.617396,0.902158 0.476982,0.323686 1.089548,0.589462 1.361341,0.590311 0.271802,8.49e-4 0.81048,0.210937 1.196836,0.466814 0.386366,0.255875 1.077526,0.465488 1.53586,0.466336 0.458334,8.48e-4 1.037913,0.156617 1.287909,0.3457 0.249995,0.189084 0.928659,0.35036 1.508204,0.358573 0.579534,0.0082 1.258216,0.169489 1.508203,0.358574 0.251509,0.190231 0.951423,0.343793 1.566854,0.343793 0.611714,0 1.183575,0.115431 1.270743,0.256532 0.08909,0.144091 0.53118,0.210612 1.008966,0.151631 0.467733,-0.05774 1.113761,-0.0016 1.435726,0.124452 0.321972,0.126069 1.217558,0.268438 1.990276,0.316614 0.772717,0.04816 1.984316,0.134773 2.692642,0.192637 0.708323,0.05787 2.599896,0.166624 4.203228,0.241752 1.603334,0.07513 2.948109,0.169638 2.988275,0.209803 0.172748,0.17275 11.238,-0.160115 14.234238,-0.42819 0.643931,-0.05761 1.814284,-0.147163 2.60109,-0.199314 0.786806,-0.05215 1.557805,-0.173821 1.713239,-0.269883 0.155435,-0.09606 0.67093,-0.169842 1.145339,-0.164029 0.474408,0.0058 1.231017,-0.107649 1.681768,-0.252242 0.450753,-0.144598 1.111386,-0.242522 1.467673,-0.217433 0.356289,0.02509 0.956803,-0.114074 1.334639,-0.30946 0.377839,-0.195387 1.087046,-0.359206 1.57639,-0.363819 0.489344,-0.0045 1.153338,-0.158787 1.475302,-0.342839 0.321967,-0.184053 0.901552,-0.338825 1.28791,-0.34427 0.386359,-0.0055 1.018374,-0.219044 1.404732,-0.474918 0.386359,-0.255877 0.972119,-0.465965 1.30126,-0.466814 0.329143,-8.49e-4 0.931862,-0.247674 1.339408,-0.548351 0.407546,-0.300678 1.139197,-0.730672 1.625979,-0.955562 0.486782,-0.224889 1.280357,-0.900741 1.763306,-1.501528 0.729943,-0.908045 0.87593,-1.269945 0.867348,-2.146675 z M 68.034201,87.75903 66.250392,87.9078 c 0.265354,0.08591 0.504861,0.139452 0.578867,0.09775 0.09665,-0.05446 0.643415,-0.162152 1.204942,-0.24652 z m -56.533554,3.69541 c -0.206046,0 0.06592,1.644555 0.351422,2.125217 0.494921,0.833211 1.836922,2.323577 2.092316,2.323577 0.155583,0 0.760657,0.316498 1.344652,0.70332 0.583996,0.386822 1.366254,0.739841 1.738035,0.784381 0.371789,0.04455 1.044581,0.307159 1.495329,0.583636 0.450759,0.276476 1.193582,0.503047 1.650775,0.503529 0.457183,4.81e-4 0.957332,0.127174 1.111483,0.281328 0.268367,0.268363 1.625585,0.53355 4.145533,0.810129 0.643937,0.07068 1.302965,0.235997 1.464336,0.367633 0.161363,0.13164 0.846288,0.27828 1.522031,0.32567 0.675743,0.0474 1.702554,0.14269 2.282093,0.21171 0.57954,0.069 1.73871,0.1798 2.57582,0.24605 0.83711,0.0662 2.206954,0.17703 3.044064,0.24652 0.837112,0.0695 2.335332,0.14934 3.329205,0.17738 0.993873,0.028 1.886542,0.13085 1.984077,0.2284 0.09753,0.0975 0.390973,0.10526 0.651822,0.0167 0.260847,-0.0886 0.763998,-0.14736 1.11816,-0.13064 0.7213,0.0341 1.728993,0.0387 2.692642,0.0129 0.354161,-0.009 0.960198,-0.009 1.346558,9.7e-4 1.278062,0.0336 8.205644,-0.44793 11.122465,-0.77294 0.579539,-0.0646 1.663735,-0.17297 2.409407,-0.24128 0.74567,-0.0683 1.48302,-0.20472 1.638854,-0.302783 0.155833,-0.09807 0.863296,-0.254903 1.571622,-0.348561 2.32745,-0.307747 3.621929,-0.566042 4.097373,-0.817281 0.257573,-0.13611 0.924641,-0.305251 1.481978,-0.376216 0.557339,-0.07097 1.189351,-0.284683 1.404732,-0.474443 0.21538,-0.18976 0.760389,-0.420247 1.211141,-0.512589 0.450752,-0.09234 1.321771,-0.473147 1.93544,-0.845891 0.61367,-0.372742 1.204908,-0.677572 1.314135,-0.677572 0.48173,0 2.347492,-2.33425 2.495236,-3.121785 0.232763,-1.240733 0.02271,-1.532178 -0.484933,-0.672802 -0.24439,0.413717 -0.848096,0.95162 -1.341792,1.195881 -0.493697,0.244262 -0.768477,0.487539 -0.610338,0.540245 0.422784,0.140927 0.01846,0.65373 -0.515449,0.65373 -0.648576,0 -2.324055,0.54716 -2.324055,0.759108 0,0.09744 0.131787,0.17878 0.292771,0.180717 0.201731,0.0025 0.187608,0.07026 -0.04577,0.217911 -0.204847,0.129598 -0.497327,0.129417 -0.740036,-4.77e-4 -0.465385,-0.249067 -2.181621,0.366194 -1.971203,0.706657 0.221289,0.358053 -0.309688,0.513285 -0.820619,0.239845 -0.701098,-0.375217 -2.243904,0.134096 -1.848657,0.610338 0.389874,0.469763 -0.435025,0.448441 -0.957946,-0.02479 -0.350285,-0.317009 -0.488742,-0.313555 -1.306506,0.03338 -0.503006,0.213398 -0.782765,0.434412 -0.621782,0.491131 0.160983,0.05671 0.292771,0.19999 0.292771,0.318045 0,0.346686 -0.619212,0.246186 -0.951746,-0.154493 -0.22568,-0.271927 -0.525766,-0.328856 -1.14057,-0.216002 -0.823859,0.151229 -1.564247,0.585067 -0.998475,0.585067 0.154542,0 0.28085,0.105335 0.28085,0.234121 0,0.380256 -0.518562,0.268348 -1.043774,-0.225062 -0.443882,-0.417005 -0.571471,-0.430478 -1.390903,-0.14877 -0.51767,0.177965 -0.789604,0.379608 -0.638472,0.473013 0.144839,0.08952 0.263209,0.261706 0.263209,0.382891 0,0.370967 -0.528074,0.245789 -1.056173,-0.250335 -0.666135,-0.625802 -2.080037,-0.422927 -1.861055,0.267023 0.185363,0.584034 -0.310535,0.5668 -0.948886,-0.0329 -0.666136,-0.625802 -2.080036,-0.422927 -1.861054,0.267023 0.188469,0.593823 -0.313964,0.563333 -0.976543,-0.05912 -0.428022,-0.402106 -0.693278,-0.465788 -1.391857,-0.334733 -0.641742,0.120391 -0.795666,0.229989 -0.598895,0.42676 0.354335,0.354337 0.334575,0.638949 -0.04434,0.638949 -0.169955,0 -0.537813,-0.263102 -0.817758,-0.585066 -0.571294,-0.657048 -0.691581,-0.68383 -1.575914,-0.347607 -0.519401,0.197476 -0.577226,0.297378 -0.33807,0.585542 0.233026,0.280781 0.220975,0.347131 -0.06294,0.347131 -0.19318,0 -0.487094,-0.163609 -0.653253,-0.36382 -0.545062,-0.656757 -1.093764,-0.826979 -1.730405,-0.536907 -0.469217,0.213791 -0.540239,0.340577 -0.331394,0.592219 0.552678,0.665938 -0.05407,0.574448 -0.854952,-0.128742 -0.958402,-0.841489 -0.835851,-0.804531 -1.648867,-0.495423 -0.519402,0.197476 -0.577226,0.297378 -0.33807,0.585542 0.523641,0.630951 -0.391611,0.405646 -1.057603,-0.260347 -0.476811,-0.476814 -0.744229,-0.574015 -1.239749,-0.449648 -0.823244,0.206622 -0.87359,0.274672 -0.520219,0.700459 0.532659,0.641817 -0.322959,0.42183 -0.888328,-0.228399 -0.362018,-0.416358 -0.745869,-0.585545 -1.329871,-0.585545 -0.859459,0 -1.011494,0.184389 -0.540245,0.655638 0.218546,0.218538 0.194998,0.28085 -0.106331,0.28085 -0.213084,0 -0.650762,-0.263101 -0.972728,-0.585067 -0.368126,-0.368128 -0.849954,-0.585543 -1.298399,-0.585543 -0.698761,0 -0.9433,0.298721 -0.479212,0.585543 0.128787,0.0796 0.234121,0.243588 0.234121,0.364774 0,0.427297 -0.52191,0.212361 -1.170609,-0.482073 -0.456066,-0.488221 -0.877547,-0.702365 -1.381844,-0.702365 -0.76796,0 -0.903596,0.196921 -0.448694,0.651821 0.152391,0.152398 0.211806,0.342743 0.131604,0.422946 -0.0802,0.0802 -0.402149,-0.110807 -0.715241,-0.423899 -1.139091,-1.139087 -2.815424,-1.437275 -2.261589,-0.402442 0.149486,0.279343 0.156463,0.453939 0.01764,0.453939 -0.261386,0 -0.96176,-0.65697 -0.96176,-0.902157 0,-0.265163 -1.405057,-0.721903 -1.779041,-0.578391 -0.264287,0.101415 -0.279263,0.203604 -0.06676,0.459661 0.150392,0.181252 0.220741,0.382474 0.156399,0.446788 -0.197452,0.197447 -0.886421,-0.160923 -0.886421,-0.461092 0,-0.278269 -1.412863,-1.072384 -1.908261,-1.072384 -0.139909,0 -0.198477,0.210672 -0.131127,0.468244 0.08227,0.314605 0.0071,0.468722 -0.228877,0.468722 -0.193179,0 -0.402003,-0.194006 -0.463954,-0.431052 -0.06198,-0.237047 -0.50885,-0.605961 -0.99323,-0.819666 -1.129509,-0.498344 -1.255291,-0.489155 -1.074768,0.07963 0.188745,0.594668 -0.255313,0.616189 -0.570285,0.02765 -0.12968,-0.242316 -0.66383,-0.651984 -1.186822,-0.910739 -0.917287,-0.453835 -0.946153,-0.454736 -0.810606,-0.02766 0.09651,0.304074 0.02728,0.442495 -0.221724,0.442495 -0.199408,0 -0.428926,-0.263576 -0.509729,-0.585543 -0.08987,-0.358012 -0.313567,-0.585067 -0.576006,-0.585067 -0.236012,0 -0.494067,-0.105335 -0.573623,-0.234121 -0.225534,-0.364919 -0.585543,-0.27564 -0.585543,0.145432 0,0.311153 -0.06328,0.327431 -0.350945,0.08869 -0.193179,-0.160323 -0.351422,-0.492184 -0.351422,-0.737174 0,-0.482612 -1.030088,-1.006309 -1.571144,-0.798685 -0.17585,0.06748 -0.378531,-0.05956 -0.450125,-0.282759 -0.353594,-1.102452 -0.62798,-1.693689 -0.785811,-1.693689 z" /><text
       xml:space="preserve"
       style="font-style:normal;font-variant:normal;font-weight:normal;font-stretch:normal;font-size:16.7806px;line-height:1;font-family:Gotham;-inkscape-font-specification:Gotham;text-align:center;letter-spacing:1.0619px;word-spacing:0px;writing-mode:lr-tb;direction:ltr;text-anchor:middle;fill:#492f24;fill-opacity:1;stroke:#ffc425;stroke-width:0.613224;stroke-dasharray:none;stroke-opacity:1"
       x="54.011589"
       y="18.490044"
       id="text68"
       transform="skewX(-18.214649)"><tspan
         sodipodi:role="line"
         id="tspan68"
         style="font-style:normal;font-variant:normal;font-weight:normal;font-stretch:normal;font-family:'Confetti Western';-inkscape-font-specification:'Confetti Western';stroke:#ffc425;stroke-width:0.613224;stroke-dasharray:none;stroke-opacity:1"
         x="54.542538"
         y="18.490044">LARAMIE</tspan></text></g></svg>
