<?xml version="1.0" encoding="UTF-8" standalone="no"?>
<!-- Created with Inkscape (http://www.inkscape.org/) -->

<svg
   width="105.83334mm"
   height="105.83334mm"
   viewBox="0 0 105.83333 105.83333"
   version="1.1"
   id="svg1"
   xml:space="preserve"
   inkscape:version="1.4 (e7c3feb100, 2024-10-09)"
   sodipodi:docname="maine.svg"
   inkscape:export-filename="../pngs/charlotte.png"
   inkscape:export-xdpi="96"
   inkscape:export-ydpi="96"
   xmlns:inkscape="http://www.inkscape.org/namespaces/inkscape"
   xmlns:sodipodi="http://sodipodi.sourceforge.net/DTD/sodipodi-0.dtd"
   xmlns="http://www.w3.org/2000/svg"
   xmlns:svg="http://www.w3.org/2000/svg"><sodipodi:namedview
     id="namedview1"
     pagecolor="#ffffff"
     bordercolor="#000000"
     borderopacity="0.25"
     inkscape:showpageshadow="2"
     inkscape:pageopacity="0.0"
     inkscape:pagecheckerboard="0"
     inkscape:deskcolor="#d1d1d1"
     inkscape:document-units="mm"
     inkscape:zoom="1.1101322"
     inkscape:cx="192.76984"
     inkscape:cy="147.73016"
     inkscape:window-width="1920"
     inkscape:window-height="1011"
     inkscape:window-x="0"
     inkscape:window-y="32"
     inkscape:window-maximized="1"
     inkscape:current-layer="layer1"
     showgrid="false"
     showguides="true" /><defs
     id="defs1" /><g
     inkscape:label="Capa 1"
     inkscape:groupmode="layer"
     id="layer1"><g
       id="g6"
       transform="translate(-76.028861,42.900298)"><circle
         style="fill:#b0d7ff;fill-opacity:1;stroke:none;stroke-width:1.42871"
         id="path22-5-7"
         cx="-11.400616"
         cy="128.84657"
         r="51.790127"
         transform="rotate(-90)" /><path
         id="path62-9-3"
         style="fill:#003263;fill-opacity:1;stroke-width:8.11878"
         d="M 81.960624,-0.98404131 C 83.709608,-7.3132313 86.135682,-12.333907 89.893339,-17.400382 l 3.25368,-4.386899 5.479115,5.418016 c 3.013486,2.979905 6.574436,6.8964947 7.913176,8.7035767 2.77317,3.743264 5.68796,11.365351 5.7095,14.9303138 0.0133,2.2831886 -0.0995,2.3998598 -2.21952,2.2869403 -1.22873,-0.064985 -8.34327,-0.1430705 -15.810065,-0.1722814 l -13.57601,-0.056704 0.04362,-2.9214167 c 0.02181,-1.6067975 0.597009,-4.932093 1.27606,-7.38948101 z M 96.453257,13.451191 h 15.809993 v 1.937362 c 0,3.151271 -2.0332,9.133237 -4.48216,13.187392 -1.74846,2.89442 -8.626985,10.390282 -14.409545,15.702836 C 92.868052,44.741542 86.885827,36.042893 85.037529,32.1608 82.758353,27.373639 80.643215,19.631129 80.643215,16.075412 v -2.624221 z m 3.573463,-40.96581 c 7.01835,-5.198455 17.53757,-9.21388 24.138,-9.21388 h 2.5338 l 3.1e-4,23.199525 3.5e-4,23.1994774 -4.98395,-0.1378246 c -2.74115,-0.073267 -5.17333,-0.1535226 -5.4048,-0.1722799 -0.23161,-0.017447 -0.62013,-1.7282697 -0.8636,-3.7998351 -1.00677,-8.5661451 -4.66168,-14.9372931 -13.69703,-23.8764798 l -6.054586,-5.990121 z m 2.88748,67.292271 c 8.22463,-8.163574 11.87068,-15.080964 12.91341,-24.499969 0.21545,-1.94844 0.2316,-1.954372 5.37174,-2.012337 l 5.15544,-0.05669 0.181,23.245541 0.18102,23.245496 -4.501,-0.461148 c -2.47554,-0.253407 -7.04227,-1.386059 -10.14831,-2.516489 -5.92252,-2.155394 -15.178268,-7.94554 -15.39739,-9.632154 -0.07073,-0.542359 2.739235,-3.832239 6.24387,-7.310801 z m 32.03692,-76.301638 c 2.45952,0.206301 7.02931,1.30812 10.15493,2.448841 5.68119,2.073355 15.07403,7.709667 15.73996,9.444911 0.20499,0.535033 -2.34653,3.619004 -6.0969,7.369336 -7.66959,7.6695807 -11.22831,13.8611617 -12.45888,21.6765088 l -0.77335,4.9112463 -4.65963,0.1029448 c -2.5628,0.057146 -4.98495,0.1338901 -5.38264,0.1722829 -0.49055,0.048849 -0.76681,-7.4193601 -0.85927,-23.2159228 l -0.13601,-23.284624 z m 1.19903,49.97483 5.671,3.47e-4 v 2.281141 c 0,1.254601 0.49346,3.961124 1.09667,6.014633 2.01914,6.874384 5.10263,11.594073 12.14916,18.596469 l 6.71685,6.674711 -2.97267,2.435888 c -6.16005,5.04772 -18.82397,10.052477 -25.43653,10.052477 h -2.51588 L 130.66903,36.478438 130.47886,13.450494 Z M 146.36004,1.7821467 c 1.50448,-5.598454 3.9479,-9.251523 11.15844,-16.6822207 5.15305,-5.310547 6.69909,-6.542252 7.44013,-5.927227 2.22255,1.84459 7.35625,10.637404 9.26625,15.8709257 1.14073,3.125667 2.24302,7.695448 2.44955,10.154929 l 0.37552,4.4719497 -15.89587,-0.1962685 -15.89592,-0.1962699 0.0454,-1.8657009 c 0.0262,-1.0261439 0.50035,-3.5594677 1.05672,-5.6296394 z m 13.33333,11.5831223 c 7.93934,-0.04885 14.97654,-0.125166 15.63816,-0.171845 1.72866,-0.123442 1.91925,3.611502 0.48582,9.521197 -1.49348,6.157431 -4.36809,12.240061 -8.32424,17.614114 l -3.12027,4.23865 -6.15873,-6.106489 c -3.38728,-3.35853 -7.19379,-7.80767 -8.45885,-9.887 -2.4584,-4.040897 -4.49721,-10.01837 -4.49721,-13.185299 v -1.937406 z" /></g><g
       id="g7"
       transform="translate(-0.72218175,6.1586098)"><ellipse
         style="fill:#ab0634;fill-opacity:1;stroke:none;stroke-width:3.51296"
         id="path4"
         cx="14.914753"
         cy="24.01528"
         rx="5.6456976"
         ry="5.1401124" /><ellipse
         style="fill:#ab0634;fill-opacity:1;stroke:none;stroke-width:3.51296"
         id="path4-2"
         cx="93.3293"
         cy="23.95196"
         rx="5.6456976"
         ry="5.1401124" /><path
         style="fill:#ab0634;fill-opacity:1;stroke:none;stroke-width:3.84299"
         d="m 53.929049,16.347243 9.269058,3.539094 6.90966,4.718792 3.539093,5.89849 2.359395,-1.011169 1.179698,-1.348226 4.213206,3.033508 3.202038,1.011169 1.685285,2.527924 3.370564,-0.168526 0.674113,-0.674113 2.190869,4.550261 3.033509,1.853812 1.011169,3.539095 2.864979,1.011169 3.202035,7.752302 0.84265,13.145206 -4.044685,14.324904 -7.58377,7.7523 -8.089358,2.190869 -4.04468,-3.202038 -0.337055,-2.696453 2.022337,-2.359396 -0.337055,-3.202037 2.190866,-1.853811 -0.842639,-2.359396 1.853811,-2.864982 -5.055849,0.674113 -2.02234,5.055849 -1.853811,-0.84264 -1.011169,-4.887322 1.348227,-4.550262 3.370564,-4.213209 H 66.231616 l -4.04468,1.685285 0.337058,2.359395 -1.011172,2.359395 0.505587,3.876152 5.392904,6.909659 1.685282,4.213207 -4.887319,3.202037 -12.976678,3.202038 -12.471093,-3.876151 -0.505584,-2.190866 8.089358,-9.943171 1.179697,-3.707623 -2.527924,-8.426412 -15.167546,0.505584 c 0,0 1.685282,2.190869 1.853811,2.864982 0.168529,0.674111 1.685282,4.381736 1.685282,4.381736 l -0.84264,5.898488 -1.348227,0.337058 -2.359395,-4.381735 -6.90966,-0.505587 3.539094,3.033509 -0.337057,2.359398 2.359396,1.685282 -0.337058,3.033508 1.685285,3.033509 -0.674113,2.864982 -4.381736,2.86498 L 9.6061121,83.590028 3.8761505,71.287464 3.5390939,58.310785 5.2243767,48.367616 8.7634706,44.15441 c 0,0 3.3705654,0.505584 3.3705654,-0.168529 0,-0.674111 0.505585,-3.202035 0.505585,-3.202035 l 3.876151,-3.202038 c 0,0 0.168528,-2.359398 1.179698,-2.527925 1.011169,-0.168529 3.707622,0.337056 3.707622,0.337056 l 2.190867,-2.359396 3.539093,-2.359395 3.876151,-1.685285 2.696454,0.842643 1.516753,-1.516753 0.842642,-2.864982 3.707622,-2.696453 z"
         id="path3" /><path
         style="fill:#ffffff;fill-opacity:1;stroke:none;stroke-width:3.69023"
         d="m 41.589454,26.637803 10.367574,4.395269 10.129236,-1.867991 c 0,0 4.766699,-3.296449 5.362536,-2.637159 0.595839,0.659289 1.668346,4.065622 1.430009,4.50515 -0.238334,0.439527 -3.694192,2.966805 -3.694192,2.966805 l -5.243369,0.109882 -6.435045,-1.867988 -3.455856,1.098816 -4.647533,1.098817 -4.647533,-1.867987 -1.191673,-3.516215 1.191673,-3.076689 z"
         id="path5" /><path
         style="fill:#ffffff;fill-opacity:1;stroke:none;stroke-width:3.84299"
         d="m 24.667671,43.376966 c 0.715005,0 17.16012,4.051697 17.755956,4.051697 0.595837,0 43.496134,-4.766702 43.496134,-4.766702 l 0.357503,6.911716 0.357502,10.96341 c 0,0 -3.455858,-0.357503 -4.051694,-0.119169 -0.595839,0.238334 -4.170863,2.621685 -4.766699,2.502517 C 77.220534,62.801269 30.268542,62.20543 30.268542,62.20543 l -2.264182,-0.595836 -3.098354,-1.90668 -3.33669,0.715004 -0.715005,-9.295063 -0.595837,-7.984223 1.430009,-1.072507 z"
         id="path6" /><path
         style="fill:#000000"
         d="m 21.391711,92.14863 c -1.219816,-0.236207 -2.375638,-0.689558 -3.62675,-1.422529 -1.973586,-1.156236 -3.676638,-2.446815 -5.079062,-3.848932 -1.192933,-1.192672 -4.5194468,-5.074491 -5.1739118,-6.037608 -1.270894,-1.870259 -3.06774,-6.329889 -3.884098,-9.64002 -1.021526,-4.142035 -1.131004,-7.196019 -0.450512,-12.567433 0.598283,-4.722507 0.822731,-5.968699 1.573094,-8.734236 0.948698,-3.496517 1.357692,-4.410056 2.472196,-5.521956 1.026435,-1.024037 2.117553,-1.539738 3.5609778,-1.683043 l 0.62713,-0.06226 0.09989,-0.583135 c 0.255057,-1.489011 1.576944,-3.119551 3.680248,-4.539551 0.535482,-0.36152 0.670948,-0.5596 1.456632,-2.12987 0.358714,-0.71693 0.723598,-1.38844 0.810853,-1.49224 0.281324,-0.33468 0.621856,-0.49218 1.064713,-0.49245 0.381498,-2.3e-4 0.456157,0.0344 0.71226,0.33009 0.261003,0.30138 0.307733,0.32216 0.532894,0.23692 0.449002,-0.16998 0.687183,-0.18595 1.022056,-0.0686 0.506212,0.17746 1.531696,-0.0555 1.633483,-0.37103 0.197803,-0.61323 0.453645,-1.1485 0.708457,-1.48221 0.369717,-0.48421 1.334089,-1.13414 2.124017,-1.43146 0.636355,-0.23953 1.966464,-0.57368 2.28353,-0.57368 0.374856,0 0.927612,-0.3633 1.884533,-1.2386 0.534476,-0.48888 1.100056,-0.94975 1.256844,-1.02416 0.375964,-0.1784 0.879901,-0.17157 1.197856,0.0162 0.256244,0.15137 0.525829,0.59283 0.525829,0.86108 0,0.0989 0.08173,0.142 0.2693,0.142 0.148115,0 0.411883,0.0596 0.586151,0.13239 0.294183,0.12292 0.265626,0.0763 -0.399171,-0.65192 -2.290444,-2.50888 -5.102318,-4.94692 -7.650361,-6.63326 -2.875157,-1.90283 -4.830138,-2.77895 -6.749999,-3.02498 l -0.488487,-0.0626 0.500733,0.40972 c 0.943103,0.77167 1.65046,1.91612 2.042058,3.30387 0.28245,1.00096 0.28245,2.54931 0,3.55027 -0.514855,1.82456 -1.593007,3.22962 -3.031278,3.9504 -0.926821,0.46448 -1.397046,0.57777 -2.398026,0.57777 -1.001021,0 -1.471331,-0.11332 -2.398026,-0.5778 -1.40098,-0.70221 -2.566134,-2.22986 -3.0367748,-3.98155 -0.252893,-0.94125 -0.253732,-2.54367 -0.0018,-3.48078 0.4976518,-1.85129 1.6171798,-3.28401 3.1740628,-4.06203 0.757083,-0.37834 1.172447,-0.47291 2.484601,-0.56567 2.570659,-0.18172 3.370682,-0.18912 4.24964,-0.0393 3.738129,0.63719 8.052137,3.52304 13.227121,8.84826 0.948342,0.97587 1.746003,1.77431 1.77258,1.77431 0.02658,0 0.0757,-0.14594 0.109163,-0.32431 0.13219,-0.70463 0.618379,-1.83336 1.113301,-2.58461 1.179032,-1.78969 3.167778,-3.22322 6.439376,-4.64163 1.704222,-0.73888 3.000808,-1.37194 4.251657,-2.0759 2.763863,-1.55545 4.634907,-2.32719 6.177513,-2.54799 0.889131,-0.12727 2.32925,-0.067 3.337275,0.13958 1.796074,0.36814 3.937714,1.30568 6.705594,2.93546 0.806,0.47459 2.3547,1.33679 3.44154,1.91599 3.01932,1.60905 3.88118,2.16712 4.98176,3.22575 1.0728,1.0319 1.86105,2.39341 2.15133,3.71592 0.0619,0.28226 0.14124,0.50208 0.17618,0.48849 0.0349,-0.0136 0.58169,-0.5854 1.21499,-1.2707 0.6333,-0.68529 1.70719,-1.77159 2.38641,-2.414 4.588,-4.3393 8.26353,-6.60909 11.6321,-7.18328 1.36705,-0.23303 5.19148,-0.0206 6.18845,0.34367 1.80679,0.66022 3.14489,2.16914 3.72339,4.19871 0.26153,0.91755 0.28122,2.62299 0.0404,3.49806 -0.75146,2.7303 -2.88447,4.55344 -5.33949,4.5638 -1.51768,0.006 -2.64917,-0.47844 -3.78358,-1.62128 -0.87357,-0.88006 -1.37527,-1.7686 -1.67911,-2.9738 -0.22099,-0.87655 -0.23622,-2.28361 -0.0345,-3.18783 0.29673,-1.33018 1.17007,-2.79773 2.10919,-3.54423 l 0.45709,-0.36334 -0.59734,0.0599 c -1.41473,0.14195 -3.30751,0.88045 -5.25903,2.0519 -2.44997,1.47065 -4.10262,2.71774 -6.37927,4.81382 -1.43044,1.31698 -3.58268,3.56128 -3.32206,3.46416 0.0895,-0.0333 0.29855,-0.0606 0.46459,-0.0606 0.25594,0 0.31082,-0.0372 0.36047,-0.24425 0.16061,-0.66983 0.53907,-0.99917 1.1482,-0.99917 0.48669,0 0.87252,0.22538 1.67053,0.97584 1.34509,1.26497 1.52874,1.3785 2.51479,1.5547 1.68594,0.30125 2.99876,0.85259 3.84778,1.61594 0.4054,0.36449 1.06615,1.45808 1.06615,1.76456 0,0.1371 0.72017,0.3887 1.1546,0.40337 0.17097,0.006 0.4651,-0.0305 0.65361,-0.0807 0.25824,-0.0687 0.4444,-0.0602 0.75494,0.0344 l 0.41217,0.12551 0.22204,-0.26663 c 0.39476,-0.47403 1.0847,-0.5109 1.62388,-0.0868 0.12312,0.0968 0.59141,0.89404 1.0433,1.77607 l 0.81991,1.60036 1.17855,0.88484 c 2.02744,1.52219 2.99872,2.89397 3.12737,4.416887 l 0.0466,0.552265 0.49411,0.143643 c 1.45594,0.423252 2.667097,1.442108 3.373677,2.838013 0.38009,0.750898 0.66211,1.533115 1.21564,3.371752 0.85732,2.847723 1.14345,4.244761 1.87418,9.150613 0.35868,2.40807 0.41585,2.99451 0.456,4.677143 0.0682,2.858807 -0.20484,5.281664 -0.9012,7.996213 -0.77976,3.039692 -2.2906,6.884299 -3.34292,8.506683 -0.413497,0.637502 -2.811907,3.655219 -3.967177,4.991572 -2.16337,2.502476 -5.4753,5.017624 -7.75249,5.88741 -2.37097,0.905602 -4.96279,0.531808 -7.02033,-1.012477 -1.00064,-0.751033 -1.91107,-2.145134 -2.12062,-3.247204 -0.0464,-0.244244 -0.17674,-0.643915 -0.28955,-0.888158 -0.16626,-0.35995 -0.20508,-0.595512 -0.20493,-1.243421 2.3e-4,-0.991506 0.10972,-1.220595 1.10312,-2.308124 0.39409,-0.431426 0.71652,-0.844829 0.71652,-0.918675 0,-0.07384 -0.10183,-0.388794 -0.22629,-0.699886 -0.61719,-1.542753 0.0366,-3.240161 1.47822,-3.83767 l 0.49604,-0.205598 -0.20576,-0.50022 c -0.30437,-0.739962 -0.2877,-1.520117 0.0467,-2.183 0.24468,-0.485085 0.24779,-0.505554 0.0666,-0.439213 -0.10451,0.03827 -0.67883,0.07314 -1.27626,0.07748 l -1.08623,0.0079 -0.32372,0.307782 c -0.7776,0.739335 -1.23267,1.776152 -1.41015,3.212844 -0.12783,1.034888 -0.29066,1.383652 -0.75909,1.625884 -0.35806,0.185162 -0.85703,0.164006 -1.20507,-0.0511 -0.43828,-0.270873 -1.15493,-1.278595 -1.45048,-2.039602 -0.50585,-1.3025 -0.70499,-3.145683 -0.54143,-5.01119 0.2244,-2.559343 0.7601,-3.939378 2.44106,-6.288432 l 0.74677,-1.043585 -1.92587,-0.0038 c -1.05923,-0.0021 -3.9189,-0.0017 -6.35482,9.76e-4 l -4.42894,0.0048 -0.25994,0.35883 c -0.14296,0.197356 -0.44273,0.486678 -0.66615,0.642938 -0.22342,0.15626 -0.46699,0.327561 -0.54126,0.380668 -0.11764,0.08411 -0.1027,0.151762 0.11586,0.524714 0.20666,0.352629 0.25779,0.559195 0.28991,1.171003 0.0365,0.694488 0.0207,0.780071 -0.24252,1.314667 -0.18198,0.369651 -0.44012,0.710576 -0.73015,0.964279 l -0.44863,0.392458 0.22113,0.343818 c 0.35912,0.55836 0.44725,0.961627 0.38556,1.764205 -0.0553,0.719188 -0.054,0.725325 0.21178,0.979909 0.17446,0.167149 0.32763,0.458428 0.4407,0.838086 0.0953,0.320044 0.29743,0.781464 0.44915,1.025377 0.15173,0.243912 1.2102,1.362721 2.35217,2.48624 2.16013,2.125242 2.76984,2.843368 3.28845,3.873183 0.41411,0.822305 0.57242,1.478317 0.57242,2.371966 0,1.395989 -0.36253,2.25729 -1.32527,3.148624 -1.33387,1.234925 -4.00045,2.750759 -6.09085,3.462381 -1.05266,0.358351 -2.08556,0.391759 -2.74247,0.0887 l -0.43327,-0.19988 -0.35512,0.320829 c -0.45764,0.413456 -1.29729,0.804111 -2.07289,0.964431 -0.902155,0.186481 -3.394107,0.402482 -5.320588,0.461185 -2.630559,0.08016 -3.729935,-0.193086 -4.689747,-1.165607 L 46.57102,89.830597 45.860493,89.773777 C 45.469704,89.742527 44.77028,89.622951 44.306217,89.50806 42.885536,89.15633 39.852789,88.206369 39.270512,87.930702 38.531325,87.580749 37.802587,86.89994 37.493535,86.270597 37.272015,85.8195 37.245387,85.669847 37.245586,84.87707 c 2.04e-4,-0.809103 0.02469,-0.939544 0.275118,-1.46546 0.38638,-0.811434 0.93111,-1.438935 2.119804,-2.441908 1.112777,-0.938917 1.620625,-1.524478 2.950992,-3.402563 1.700244,-2.400242 2.16825,-3.026508 2.811695,-3.762496 l 0.653077,-0.747005 -0.211451,-0.307389 c -0.245148,-0.356374 -0.472814,-1.060343 -0.472814,-1.461994 0,-0.441692 0.249593,-1.165354 0.507752,-1.472158 0.231274,-0.274854 0.23281,-0.284513 0.06442,-0.405018 -0.411733,-0.294651 -0.939085,-0.887947 -1.125453,-1.26619 -0.159274,-0.323253 -0.201654,-0.560139 -0.201654,-1.127154 0,-0.631501 0.03375,-0.783393 0.280469,-1.262236 0.265816,-0.515908 0.271505,-0.547193 0.108886,-0.598807 -0.307552,-0.09761 -1.240466,-1.038538 -1.460798,-1.473342 l -0.215065,-0.424411 -0.325147,0.135855 c -0.841557,0.351625 -1.447305,0.386053 -6.796601,0.386289 -2.84006,1.26e-4 -5.179227,0.01571 -5.198148,0.03463 -0.01892,0.01892 0.206157,0.369086 0.500175,0.778143 1.66037,2.31002 2.221817,4.310931 2.113459,7.532052 -0.07036,2.091681 -0.49004,3.393176 -1.423493,4.414522 -0.540647,0.591554 -0.937573,0.728887 -1.47971,0.511966 -0.513187,-0.205336 -0.763542,-0.672005 -0.879106,-1.638675 -0.151284,-1.265466 -0.693269,-2.416954 -1.42119,-3.019424 l -0.323466,-0.26772 -0.956169,0.05985 c -0.909944,0.05696 -0.983588,0.0482 -1.523333,-0.181197 -0.344425,-0.146383 -0.683956,-0.229862 -0.864554,-0.212565 -0.262961,0.02519 -0.300593,0.06163 -0.325047,0.314785 -0.03142,0.325263 0.111203,0.487688 0.826998,0.941822 0.584269,0.370688 0.938367,1.046254 0.99825,1.904514 0.04047,0.580068 0.0042,0.738953 -0.374684,1.64121 -0.04705,0.112034 -0.02386,0.155428 0.08305,0.155428 0.298826,0 1.130983,0.486929 1.480881,0.866523 0.489114,0.530626 0.719251,1.088161 0.769485,1.864173 0.03498,0.540372 0.0035,0.751093 -0.196576,1.31459 -0.137586,0.38756 -0.214218,0.746729 -0.181389,0.850164 0.03126,0.0985 0.372545,0.496501 0.758401,0.884438 0.94841,0.953523 1.184011,1.420837 1.183137,2.346756 -5.18e-4,0.549563 -0.05186,0.841308 -0.226631,1.287829 -0.124279,0.317516 -0.270857,0.811874 -0.325729,1.098573 -0.130972,0.684311 -0.618479,1.65711 -1.175319,2.3453 -0.823217,1.0174 -2.241437,1.903328 -3.733469,2.332207 -0.645009,0.185406 -2.395386,0.309697 -2.922892,0.207549 z m 3.241775,-3.271278 c 1.115995,-0.375349 1.712897,-0.733319 2.444405,-1.465942 0.748317,-0.749458 1.156746,-1.461906 1.220914,-2.129719 l 0.04106,-0.427284 -0.747718,-0.756182 c -1.298784,-1.313488 -1.58895,-2.185682 -1.085273,-3.262171 0.282516,-0.603811 0.307767,-1.163998 0.067,-1.486475 -0.299103,-0.400617 -0.589143,-0.557538 -1.456868,-0.788217 -1.626326,-0.432348 -1.700785,-0.668568 -0.708845,-2.248809 0.635604,-1.012569 0.475547,-1.414545 -0.760218,-1.909255 -0.7727,-0.309333 -1.858818,-1.059936 -2.184724,-1.509835 -0.391529,-0.54049 -0.70268,-1.76702 -0.880344,-3.470237 l -0.101909,-0.976974 -0.423759,-0.451421 c -0.64918,-0.69156 -0.90834,-1.270938 -0.95613,-2.137526 -0.04823,-0.874548 0.08017,-1.672938 0.441225,-2.743497 l 0.270761,-0.802839 -0.22614,-0.333236 c -0.543148,-0.800373 -0.721605,-2.264765 -0.38472,-3.156956 0.130384,-0.345305 0.146745,-0.971353 0.146745,-5.615317 V 47.978776 L 19.079222,47.839295 C 18.835316,47.713167 18.815014,47.6704 18.86714,47.392544 c 0.09642,-0.513986 -0.107171,-0.711796 -0.914791,-0.888797 -0.96047,-0.210499 -1.365886,-0.450441 -1.54498,-0.914383 -0.05791,-0.150029 -0.124062,-0.192129 -0.23482,-0.149456 -0.08481,0.03267 -0.497927,0.179545 -0.918047,0.326379 l -0.763853,0.26697 -0.583216,-0.441435 c -0.828434,-0.627039 -1.421113,-0.834954 -2.518194,-0.883397 -1.386931,-0.06124 -2.3258788,0.272588 -3.2979188,1.172526 -0.775911,0.718357 -1.144714,1.474729 -1.752465,3.594104 -0.563098,1.96366 -1.165982,5.678492 -1.687905,10.400474 -0.552551,4.999076 0.417151,10.252075 2.928835,15.865882 0.899821,2.011169 1.30024,2.653905 2.6886168,4.315657 3.60286,4.312274 4.530848,5.209917 7.256097,7.018818 2.492322,1.654296 3.777718,2.137984 5.510303,2.073498 0.663033,-0.02468 1.068259,-0.09363 1.598684,-0.272032 z m 29.708878,-0.3587 c 3.709826,-0.315492 3.910016,-0.477293 3.913206,-3.16291 0.002,-1.480073 -0.11517,-2.375739 -0.66866,-5.121644 -0.4955,-2.458213 -0.57746,-3.025856 -0.65222,-4.517188 l -0.0611,-1.218416 -0.62171,0.03802 c -0.34194,0.02091 -1.469733,0.03802 -2.506206,0.03802 H 51.8612 l -0.26015,0.577303 c -0.352863,0.783043 -0.481716,1.214116 -0.889438,2.975572 -0.269408,1.163911 -0.523706,1.949446 -1.109233,3.426468 -1.057836,2.668447 -1.3378,3.686581 -1.341219,4.877564 -0.002,0.705002 0.03324,0.998034 0.144504,1.200859 0.239297,0.43621 0.607206,0.747107 1.042931,0.881317 0.556529,0.171419 2.908785,0.173836 4.893769,0.005 z M 86.51686,87.935669 c 2.14193,-0.413909 5.78626,-2.989951 8.2737,-5.848382 1.34627,-1.547058 3.73226,-4.590926 4.05286,-5.170335 0.73916,-1.335887 1.91063,-4.242259 2.4656,-6.117082 0.98914,-3.341531 1.30599,-5.621954 1.23849,-8.913555 -0.0384,-1.874387 -0.0787,-2.296796 -0.45814,-4.801444 -0.69787,-4.607192 -1.13401,-6.694367 -1.79808,-8.604721 -0.43552,-1.252853 -0.71653,-1.795538 -1.20907,-2.334871 -0.83879,-0.918501 -1.87977,-1.381792 -3.12966,-1.39287 -1.15228,-0.01021 -2.12975,0.346549 -2.88497,1.052968 l -0.4173,0.390338 -0.92096,-0.305932 c -0.50652,-0.168262 -0.92565,-0.297664 -0.9314,-0.287559 -0.006,0.01011 -0.062,0.147912 -0.12503,0.306238 -0.14568,0.365956 -0.51337,0.592055 -1.27308,0.782836 -0.33114,0.08316 -0.70496,0.232128 -0.83071,0.331043 -0.19531,0.153634 -0.22098,0.227761 -0.17607,0.508597 0.0545,0.341044 -0.0622,0.525085 -0.4117,0.649028 -0.13757,0.04879 -0.15543,0.192083 -0.15543,1.24695 0,1.13647 0.0123,1.218075 0.26442,1.756899 0.83229,1.778673 0.98894,4.511522 0.39074,6.816839 -0.21768,0.838891 -0.82454,2.252529 -1.18324,2.756279 -0.10035,0.140918 -0.18244,0.295652 -0.18244,0.343853 0,0.0482 0.155,0.275221 0.34446,0.504487 0.75071,0.90846 1.46198,2.76721 1.57419,4.113775 0.10566,1.267967 -0.32155,2.282172 -1.34795,3.200054 -0.45676,0.408468 -0.46612,0.427011 -0.56841,1.125834 -0.15122,1.033075 -0.34081,1.724787 -0.59067,2.155044 -0.27863,0.479797 -1.28423,1.241592 -2.17087,1.644541 -0.72015,0.327284 -1.05995,0.657782 -1.05965,1.030649 1.1e-4,0.135542 0.22195,0.565141 0.53271,1.031608 0.33272,0.499429 0.53259,0.892497 0.53271,1.047622 2.8e-4,0.37695 -0.33923,0.646788 -1.0767,0.855739 -1.6796,0.47589 -2.08083,1.071637 -1.53083,2.272995 0.12891,0.281582 0.25373,0.683619 0.27738,0.893416 0.0641,0.568918 -0.34307,1.368079 -1.11113,2.180708 -0.96367,1.0196 -0.99094,1.13569 -0.49816,2.120715 0.57035,1.140064 1.6288,1.978321 3.14028,2.487015 0.96535,0.324887 1.88202,0.377851 2.95411,0.170681 z M 62.34708,87.097941 c 1.03843,-0.401045 2.31337,-1.060768 3.3637,-1.740567 1.75749,-1.137487 2.00014,-1.477426 1.93912,-2.716571 -0.063,-1.279064 -0.59664,-2.095003 -2.58237,-3.94841 -2.59926,-2.42606 -3.14282,-3.073492 -3.46413,-4.126166 -0.14013,-0.459093 -0.22802,-0.593197 -0.51192,-0.781068 l -0.34274,-0.226814 -1.005,0.317163 c -0.55275,0.174439 -1.05495,0.331886 -1.11601,0.349883 -0.11944,0.0352 -0.15985,0.547631 -0.12559,1.592571 0.0345,1.052181 0.1902,2.130086 0.64151,4.440789 0.59372,3.039853 0.69878,3.780258 0.76245,5.373355 0.0578,1.44499 0.1041,1.604114 0.52014,1.786212 0.30187,0.132122 1.08919,8.03e-4 1.92084,-0.320377 z M 46.349749,86.942139 c 0.0011,-0.387726 0.38816,-2.073926 0.677911,-2.953125 0.12879,-0.390789 0.53228,-1.489885 0.896644,-2.442434 0.505088,-1.320441 0.768438,-2.185576 1.108468,-3.641447 0.374324,-1.602707 0.719588,-2.807943 0.99228,-3.463815 0.04453,-0.107101 -0.131673,-0.173845 -0.898595,-0.340384 l -0.953986,-0.207159 -0.893096,0.917685 c -0.491203,0.504728 -1.271192,1.431783 -1.733309,2.060124 -2.628147,3.573489 -2.9807,3.982619 -4.549081,5.279106 -0.427871,0.353695 -0.897603,0.808262 -1.043848,1.010148 -0.522995,0.721974 -0.545556,1.447793 -0.06212,1.9984 0.358331,0.408116 0.754331,0.597762 1.996008,0.955898 0.57338,0.165379 1.522114,0.441354 2.108298,0.613279 1.186564,0.348013 1.745928,0.47871 2.109375,0.492864 0.218144,0.0085 0.244329,-0.02133 0.245048,-0.27914 z M 76.72394,76.169481 c 0,-1.367777 0.9098,-3.40526 1.91607,-4.291016 0.66928,-0.589121 0.91151,-0.664725 1.90422,-0.594345 1.10509,0.07835 1.26584,0.01066 2.16666,-0.912305 0.77041,-0.789353 1.11933,-1.001693 1.65821,-1.009131 0.31799,-0.0044 0.40045,-0.05618 0.76884,-0.482878 0.28621,-0.331518 0.47817,-0.477962 0.62652,-0.477962 0.59266,0 1.73365,-0.94519 2.0618,-1.707984 0.65236,-1.516461 -0.64247,-4.705568 -2.23839,-5.513027 -1.33946,-0.677707 -2.96292,-0.443902 -4.67406,0.67314 -1.2297,0.802757 -2.24069,1.957 -3.98487,4.549516 -0.72722,1.080917 -1.23339,2.298212 -1.45877,3.508224 -0.17131,0.919685 -0.14603,3.646034 0.0408,4.396381 0.18314,0.735693 0.48871,1.431619 0.81838,1.86384 0.3008,0.394367 0.39463,0.393784 0.39463,-0.0025 z M 31.834797,74.570213 c 0.419649,-0.716077 0.593957,-1.634222 0.597762,-3.148632 0.0079,-3.140441 -0.418984,-4.281234 -2.741815,-7.327302 -1.313533,-1.722515 -2.138284,-2.468578 -3.458574,-3.1286 -0.679399,-0.339636 -1.016459,-0.445837 -1.731907,-0.545691 -1.139392,-0.159023 -2.289941,0.22837 -3.015259,1.015247 -0.705179,0.765029 -1.308216,2.301553 -1.398936,3.564459 -0.04797,0.667823 -0.03252,0.768175 0.18759,1.218058 0.37708,0.770726 1.387661,1.562382 1.994442,1.562382 0.20166,0 0.35342,0.101953 0.66102,0.444079 0.356932,0.396994 0.438223,0.444079 0.766703,0.444079 0.512366,0 0.932862,0.245249 1.603782,0.93539 0.784963,0.80745 0.951562,0.869057 2.141551,0.791931 l 0.960864,-0.06228 0.44991,0.288707 c 0.600329,0.38523 1.170972,1.053574 1.59472,1.867758 0.370384,0.711651 0.714796,1.808074 0.714796,2.275527 0,0.155744 0.02662,0.352547 0.05916,0.437338 0.05303,0.138194 0.07679,0.132391 0.22936,-0.05602 0.09361,-0.115604 0.266784,-0.374998 0.384831,-0.57643 z M 57.28309,72.925299 c 2.21559,-0.233383 3.89809,-0.931537 3.89809,-1.617516 0,-0.277191 -0.48681,-0.722804 -1.05665,-0.967222 -0.50192,-0.215289 -0.66297,-0.219741 -1.57415,-0.04352 -0.39669,0.07672 -1.24357,0.188411 -1.88196,0.248202 l -1.160709,0.108712 -0.0554,0.583648 c -0.03047,0.321007 -0.107363,0.852223 -0.170876,1.18048 -0.06351,0.328256 -0.102302,0.610006 -0.0862,0.62611 0.04407,0.04407 1.125272,-0.0175 2.087855,-0.118894 z M 53.673085,72.59839 c 0.100731,-0.73375 0.200795,-1.840864 0.17134,-1.895712 -0.01559,-0.02903 -0.659315,-0.079 -1.4305,-0.111034 -0.771184,-0.03204 -1.717957,-0.115915 -2.103941,-0.186394 -0.658349,-0.120213 -0.722253,-0.117704 -1.032413,0.04053 -0.383603,0.195699 -0.797048,0.652605 -0.797048,0.880832 0,0.405188 0.846362,0.939191 1.982637,1.250923 0.736287,0.201997 2.105454,0.418581 2.738469,0.433189 l 0.41354,0.0095 z m 0.188864,-4.440789 c -0.03342,-0.427426 -0.08408,-0.984341 -0.112573,-1.237588 l -0.05181,-0.46045 -0.543556,-0.04494 c -0.298955,-0.02472 -1.123078,-0.08839 -1.831384,-0.14149 -0.708306,-0.0531 -1.538371,-0.142469 -1.84459,-0.198591 -0.547341,-0.100315 -0.563091,-0.09759 -0.930857,0.160883 -0.768759,0.540304 -0.779789,1.021575 -0.03486,1.521189 0.843481,0.565712 3.170221,1.101474 5.065122,1.16631 l 0.345273,0.01181 z m 4.610351,0.509602 c 1.73746,-0.2974 2.6604,-0.650503 3.14605,-1.203624 0.22686,-0.258381 0.27491,-0.375989 0.22891,-0.560331 -0.0852,-0.341527 -0.27611,-0.51595 -0.90184,-0.823996 l -0.55954,-0.275461 -1.13442,0.186253 c -1.30238,0.213829 -2.756212,0.369037 -3.45675,0.369037 h -0.48278 l 0.05676,0.643915 c 0.05569,0.631736 0.09403,1.189717 0.116809,1.70014 l 0.01147,0.256885 0.999178,-0.0628 c 0.549543,-0.03454 1.438813,-0.138047 1.976153,-0.230023 z m -0.75494,-3.827916 c 1.75242,-0.19117 3.4349,-0.663154 4.11175,-1.153465 l 0.35569,-0.257661 h -3.6644 -3.664398 l 0.04745,0.199835 c 0.0261,0.10991 0.07539,0.439638 0.109535,0.73273 0.03415,0.293092 0.08214,0.567244 0.106647,0.609225 0.04704,0.08057 1.18706,0.02322 2.597726,-0.130664 z m -4.207702,-0.05669 c -0.02493,-0.08548 -0.07213,-0.345271 -0.104885,-0.577302 l -0.05955,-0.421875 h -0.519707 c -0.285838,0 -0.690963,-0.05611 -0.900277,-0.12469 -0.209314,-0.06858 -0.900143,-0.144537 -1.535176,-0.168795 -1.228636,-0.04693 -1.732494,-0.160873 -2.669837,-0.603746 -0.299603,-0.141556 -0.570838,-0.257375 -0.602744,-0.257375 -0.03191,0 -0.05801,0.09853 -0.05801,0.218949 0,0.328319 0.482298,0.813619 1.102973,1.10984 1.007721,0.480941 3.314965,0.949077 4.787058,0.971287 0.537009,0.0081 0.600364,-0.0084 0.560157,-0.146293 z M 80.77889,60.586799 c 0.42595,0.109167 0.48703,0.102004 1.04918,-0.123041 0.79572,-0.318548 1.57989,-0.496504 2.19492,-0.498104 0.45621,-0.0012 0.52247,-0.02634 0.69034,-0.262101 0.33244,-0.466872 0.71224,-1.377966 0.94938,-2.277473 0.20138,-0.763844 0.23342,-1.070324 0.24063,-2.302199 0.009,-1.572443 -0.10625,-2.239322 -0.5421,-3.130988 -0.43671,-0.893407 -0.97402,-1.379918 -2.1866,-1.979857 -0.59254,-0.293166 -1.1273,-0.599702 -1.18837,-0.681192 -0.15167,-0.202423 -0.1397,-0.778096 0.0227,-1.092187 0.18454,-0.356844 0.70438,-0.512799 1.20717,-0.362158 0.44229,0.132515 1.03414,0.661785 1.42969,1.278538 l 0.29355,0.457703 0.0243,-1.574699 c 0.0133,-0.866084 0.0133,-2.284115 0,-3.151179 l -0.0243,-1.57648 -0.24256,0.459997 c -0.1334,0.252999 -0.29327,0.491905 -0.35526,0.530902 -0.062,0.039 -0.43244,0.0718 -0.82323,0.0729 -0.59951,0.0017 -0.79148,0.04171 -1.2286,0.256176 -1.09209,0.535823 -2.02474,1.693581 -2.4067,2.987593 -0.36755,1.245188 -0.34347,2.998654 0.0559,4.069441 0.25126,0.673715 1.10677,1.520763 2.0695,2.049021 0.39076,0.214415 0.83838,0.487402 0.99471,0.606638 0.4233,0.32287 0.64871,0.85963 0.64697,1.540605 -0.003,1.047128 -0.5538,1.637853 -1.464,1.569178 -0.82616,-0.06233 -1.57934,-0.59306 -2.22039,-1.564599 -0.19539,-0.296126 -0.38524,-0.539514 -0.42188,-0.540861 -0.0366,-0.0013 -0.0666,1.364043 -0.0666,3.034202 v 3.036651 l 0.4247,-0.474169 0.4247,-0.474169 z M 54.075917,59.43145 c 0,-0.976973 -0.01964,-1.776315 -0.04364,-1.776315 -0.024,0 -0.22642,0.139519 -0.449817,0.310042 -1.256078,0.958786 -2.705844,0.634838 -3.419523,-0.764087 -0.455725,-0.893297 -0.565639,-2.717622 -0.227658,-3.778641 0.346714,-1.088434 1.194658,-1.85083 2.044843,-1.83854 0.538322,0.0078 1.133228,0.24913 1.579137,0.640643 0.174937,0.153597 0.342767,0.279267 0.372954,0.279267 0.03019,0 0.05489,-0.799342 0.05489,-1.776315 0,-0.976974 -0.01998,-1.776316 -0.04441,-1.776316 -0.02442,0 -0.124342,0.07993 -0.222039,0.177632 -0.206063,0.206062 -0.375357,0.217134 -1.083538,0.07086 -0.678588,-0.14016 -1.788429,0.01363 -2.456233,0.340354 -0.749981,0.366932 -1.618848,1.24647 -2.049978,2.075157 -0.575692,1.106553 -0.743922,1.859838 -0.743922,3.331061 0,1.493117 0.167024,2.229359 0.795192,3.505198 0.52277,1.061771 1.100442,1.663862 2.005358,2.090124 0.861552,0.405837 1.653619,0.526353 2.574438,0.391711 0.666663,-0.09748 0.722049,-0.09276 0.944458,0.08053 0.129945,0.101245 0.26624,0.186302 0.302876,0.189016 0.03664,0.0027 0.06661,-0.794408 0.06661,-1.771382 z m -25.789731,1.428686 c 0.304555,-0.18571 1.010129,-0.887849 1.010129,-1.005212 0,-0.0405 -0.14224,-0.198525 -0.316088,-0.351166 -0.422406,-0.370878 -0.606728,-0.757724 -0.930913,-1.953757 -0.263415,-0.971829 -0.577886,-1.918398 -0.792464,-2.385343 -0.09362,-0.203737 -0.07252,-0.258738 0.217063,-0.565789 0.425093,-0.45073 0.830045,-1.270366 0.985852,-1.995398 0.150133,-0.698628 0.170527,-2.589278 0.03717,-3.445983 -0.311648,-2.002091 -1.198666,-3.412975 -2.575622,-4.096764 -0.497521,-0.247067 -3.542661,-1.450941 -4.033894,-1.594772 -0.139146,-0.04074 -0.15812,-0.01876 -0.103427,0.119809 0.295203,0.747931 0.315161,1.288362 0.314582,8.518387 -3.17e-4,3.956743 -0.03538,7.343955 -0.07792,7.527138 -0.04254,0.183182 -0.06031,0.333059 -0.03949,0.333059 0.02082,0 0.28022,-0.08165 0.576443,-0.181437 0.311174,-0.104827 0.818834,-0.189639 1.202302,-0.200863 l 0.663716,-0.01943 -0.009,-2.163111 -0.009,-2.163112 0.246965,0.06198 c 0.135831,0.03409 0.254527,0.06955 0.263769,0.07879 0.126622,0.126621 0.474719,1.220582 0.821411,2.581434 0.528919,2.076143 0.558712,2.153592 0.901091,2.342472 0.151298,0.08347 0.481388,0.280628 0.733533,0.438136 0.540872,0.337868 0.554949,0.33973 0.913777,0.120926 z m -3.630496,-8.775195 -0.244243,-0.037 v -2.120893 -2.120892 l 0.466283,0.138086 c 1.228382,0.363776 1.589608,0.892422 1.594461,2.333452 0.003,0.884184 -0.132822,1.358157 -0.470552,1.642338 -0.272402,0.229212 -0.631242,0.273177 -1.345949,0.164909 z M 60.7919,59.43145 c 0.10341,-0.757154 0.17944,-1.387219 0.16893,-1.400145 -0.0105,-0.01293 -0.21501,0.08699 -0.45447,0.22204 -0.41381,0.233376 -0.50248,0.247034 -1.78982,0.275715 l -1.35444,0.03017 0.001,-4.071293 c 8.6e-4,-3.307503 0.0256,-4.162936 0.13217,-4.55978 0.0721,-0.268668 0.13159,-0.518462 0.13217,-0.555099 5.8e-4,-0.03664 -0.63842,-0.06661 -1.419998,-0.06661 -0.781579,0 -1.421053,0.0151 -1.421053,0.03356 0,0.01846 0.06843,0.188318 0.152059,0.377467 0.138841,0.314013 0.149665,0.783935 0.12452,5.406405 -0.02226,4.093267 -0.05138,5.119839 -0.152058,5.361997 -0.06849,0.164724 -0.124521,0.315147 -0.124521,0.334273 0,0.01913 1.308923,0.02424 2.908721,0.01136 l 2.90871,-0.02342 z m 3.25957,1.221217 c -0.10184,-0.280341 -0.0733,-1.258437 0.0545,-1.865131 l 0.10755,-0.510691 h 0.86898 0.86898 l 0.11422,0.796848 c 0.0632,0.440984 0.0884,1.016115 0.0565,1.287829 l -0.0577,0.490981 h 0.65325 c 0.35928,0 1.01359,-0.02558 1.45402,-0.05684 l 0.80078,-0.05684 -0.20795,-0.365035 C 68.49484,59.900255 68.49926,59.923065 67.61131,54.41336 66.99683,50.60052 66.86153,49.5901 66.89921,49.09549 l 0.0465,-0.610632 -0.37323,0.05168 c -0.20528,0.02842 -1.04385,0.122513 -1.86349,0.209089 l -1.49025,0.157411 0.0598,0.26832 c 0.11106,0.497911 0.0506,0.968498 -0.62794,4.886741 -0.95126,5.493057 -1.01194,5.796748 -1.25372,6.273868 -0.11868,0.2342 -0.21578,0.44713 -0.21578,0.473178 0,0.02605 0.66216,0.04736 1.47145,0.04736 H 64.124 Z m 0.62093,-5.151315 c 0.0284,-0.207607 0.12074,-1.007929 0.20529,-1.778493 0.0846,-0.770564 0.18066,-1.37007 0.21356,-1.332236 0.0329,0.03783 0.12832,0.708262 0.21202,1.489841 0.0837,0.781579 0.17413,1.550946 0.20093,1.709704 l 0.0487,0.288651 H 65.08687 64.62083 Z M 35.705714,59.43145 c 0.0835,-0.708306 0.154332,-1.395527 0.157396,-1.527158 l 0.0056,-0.23933 -0.479623,0.219579 c -0.465702,0.213205 -0.51855,0.217822 -1.820724,0.159062 l -1.341099,-0.06052 v -1.79171 -1.791713 l 0.880193,0.105703 c 0.61348,0.07367 0.976802,0.16541 1.199013,0.302745 l 0.31882,0.197041 V 53.308124 51.6111 l -0.285973,0.147882 c -0.251937,0.130282 -0.370858,0.135128 -0.999178,0.04072 -1.233354,-0.185323 -1.112875,-0.05534 -1.112875,-1.200646 v -0.997352 l 1.03405,0.20119 c 1.428325,0.277901 1.412027,0.272538 1.762018,0.579833 l 0.312484,0.274365 v -1.561785 c 0,-1.54692 -0.0019,-1.562218 -0.199836,-1.607338 -2.571627,-0.586212 -3.495607,-0.808067 -4.418176,-1.060835 -0.610383,-0.167235 -1.122835,-0.291016 -1.138782,-0.275069 -0.01595,0.01595 0.04382,0.222627 0.132815,0.45929 0.149996,0.398884 0.163733,0.890643 0.18817,6.736217 0.02478,5.928376 0.0047,6.618329 -0.209373,7.17607 -0.07778,0.202681 0.124575,0.215834 3.156371,0.205165 l 2.706913,-0.0095 z m 6.063024,1.029221 c 0.663135,-0.325598 1.545059,-1.197589 1.855656,-1.834757 0.745124,-1.528566 0.961753,-4.593023 0.461029,-6.521766 -0.413237,-1.591755 -1.583196,-2.986063 -2.904182,-3.461083 -0.242214,-0.0871 -1.419382,-0.325504 -2.615929,-0.529788 -2.110479,-0.360318 -2.173775,-0.36596 -2.116534,-0.188632 0.286012,0.886044 0.304372,1.280907 0.306211,6.585618 0.0016,4.476244 -0.01948,5.407354 -0.130411,5.773026 -0.07274,0.239794 -0.132695,0.448366 -0.133224,0.463492 -5.29e-4,0.01512 1.068159,0.01512 2.374861,0 l 2.375822,-0.0275 z m -2.645681,-2.694517 c -0.03028,-0.183182 -0.05549,-1.785047 -0.05603,-3.5597 l -9.78e-4,-3.226641 0.599507,0.05829 c 1.119865,0.108892 1.770584,0.65086 2.116956,1.763162 0.22148,0.711238 0.269495,2.466237 0.0896,3.274844 -0.31154,1.400313 -0.957349,2.023102 -2.097882,2.023102 h -0.59612 z m 34.016463,2.842105 c -0.1464,-0.519944 -0.12398,-0.91247 0.1666,-2.917312 0.17633,-1.216489 0.34863,-2.324269 0.38291,-2.461733 0.10112,-0.405585 0.67187,4.135617 0.61669,4.906806 l -0.0449,0.627667 h 1.71165 1.71166 l -0.0441,-0.688322 c -0.0646,-1.009021 1.39301,-12.661281 1.7022,-13.607278 0.11907,-0.364308 0.20232,-0.676544 0.18501,-0.693859 -0.0173,-0.01731 -0.69304,0.15695 -1.50161,0.387254 l -1.47012,0.418735 0.0514,0.550623 c 0.0601,0.643508 -0.59533,6.728717 -0.69665,6.467935 -0.0347,-0.08931 -0.22984,-1.321436 -0.43366,-2.738048 -0.27307,-1.898009 -0.3602,-2.757108 -0.33117,-3.265328 0.0343,-0.599648 0.021,-0.683958 -0.10142,-0.645906 -0.14887,0.04627 -2.4911,0.580643 -2.54502,0.580643 -0.0173,0 -0.009,0.249794 0.0176,0.555098 0.0386,0.436413 -0.0574,1.162769 -0.4491,3.397204 -0.27404,1.563158 -0.50907,2.876854 -0.5223,2.919324 -0.0132,0.04247 -0.17702,-1.206009 -0.36396,-2.774399 -0.23259,-1.951382 -0.32126,-3.00075 -0.28087,-3.324014 l 0.059,-0.472397 -1.43765,0.246812 c -0.7907,0.135746 -1.45019,0.259353 -1.46552,0.274683 -0.0153,0.01533 0.0685,0.22626 0.1862,0.468734 0.17093,0.352021 0.29491,1.013593 0.61523,3.282967 0.9782,6.930204 1.04411,7.459743 1.00321,8.060033 l -0.0409,0.599506 h 1.68163 c 1.55901,0 1.67843,-0.01133 1.63786,-0.155428 z M 88.51719,45.099983 c 0.2304,-0.115367 0.62301,-0.276541 0.87245,-0.358164 0.24943,-0.08162 0.54559,-0.246406 0.65811,-0.366185 0.25189,-0.268122 0.66859,-0.355815 1.02086,-0.214838 0.14604,0.05844 0.57695,0.09911 0.95759,0.09038 0.59669,-0.01369 0.74839,-0.05161 1.10087,-0.275139 0.45421,-0.288053 1.06684,-0.512635 1.8041,-0.661357 l 0.48849,-0.09854 0.0276,-0.432402 c 0.0616,-0.964569 -1.15533,-2.522551 -2.89211,-3.702541 -0.4031,-0.27387 -0.82223,-0.6115 -0.9314,-0.75029 -0.10917,-0.13879 -0.51876,-0.8907 -0.91019,-1.67092 -0.39143,-0.78021 -0.75688,-1.43306 -0.81211,-1.45077 -0.0552,-0.0177 -0.12788,0.0794 -0.16145,0.2159 -0.0931,0.37855 -0.29993,0.64778 -0.49765,0.64778 -0.098,0 -0.41758,-0.12088 -0.71025,-0.26862 -0.44378,-0.22402 -0.56378,-0.25169 -0.72267,-0.16665 -0.29779,0.15937 -1.15553,0.0425 -2.38157,-0.32449 -0.94576,-0.28309 -1.24176,-0.33333 -1.99836,-0.33922 -1.12272,-0.009 -1.59351,0.1786 -2.29365,0.91262 -0.84012,0.88077 -1.18576,1.82778 -1.10177,3.01869 0.0587,0.83175 0.30058,1.49268 0.85557,2.33739 0.65473,0.996544 0.63143,0.98415 1.61779,0.860254 0.61685,-0.07748 0.99204,-0.182102 1.44468,-0.402845 0.70162,-0.342157 1.26966,-0.387878 1.94789,-0.156784 0.59728,0.203515 1.24266,0.822085 1.58657,1.520652 0.24769,0.503135 0.2929,0.700523 0.32416,1.415263 0.0413,0.94397 0.0485,0.95027 0.70642,0.620824 z M 19.034436,44.266156 c 0.144344,-0.999593 0.91054,-2.056847 1.753365,-2.41942 0.605384,-0.260429 1.287183,-0.218662 3.490422,0.213825 0.928125,0.182188 1.811737,0.352622 1.963582,0.378743 0.256801,0.04418 0.311723,0.0019 0.786452,-0.604782 0.893206,-1.141555 1.291084,-2.138475 1.291084,-3.234925 0,-1.46897 -0.812775,-2.83121 -2.029621,-3.40171 -0.444486,-0.20839 -0.602803,-0.23406 -1.389786,-0.22533 -0.750073,0.008 -1.060764,0.0614 -1.998355,0.34127 -1.270057,0.37914 -1.904699,0.46932 -2.309575,0.32818 -0.249695,-0.087 -0.342992,-0.0673 -0.785409,0.16587 -0.27613,0.14555 -0.589715,0.26473 -0.696854,0.26483 -0.23532,2.3e-4 -0.449998,-0.28432 -0.527937,-0.69977 -0.05422,-0.28903 -0.06469,-0.29677 -0.184453,-0.13629 -0.06983,0.0936 -0.44454,0.79615 -0.832682,1.56128 -0.388142,0.76512 -0.816751,1.50452 -0.952465,1.64309 -0.135714,0.13857 -0.639168,0.53172 -1.118786,0.87366 -1.787665,1.2745 -2.784063,2.693014 -2.595957,3.695705 0.05381,0.286848 0.121749,0.345446 0.790542,0.681883 1.071519,0.53903 1.398335,0.591091 2.03319,0.323884 0.282618,-0.118952 0.596973,-0.216276 0.698568,-0.216276 0.235368,0 0.677969,0.227142 0.772804,0.396601 0.0401,0.07165 0.369193,0.192498 0.732139,0.268846 0.362615,0.07628 0.678205,0.157593 0.701311,0.180699 0.02311,0.02311 0.110747,0.04201 0.194756,0.04201 0.114461,0 0.168014,-0.105738 0.213665,-0.421873 z m 35.913979,-2.025967 c 0.374978,-0.125096 1.282106,-0.562878 2.015835,-0.972849 1.82439,-1.019373 2.16968,-1.158763 3.52624,-1.423603 4.49076,-0.87672 7.25382,-2.03611 9.13681,-3.83385 1.07987,-1.03098 1.76509,-2.13094 2.11575,-3.39635 l 0.17492,-0.63122 -1.32353,1.36549 c -1.37741,1.42107 -2.23542,2.09816 -3.23063,2.54941 -1.83429,0.83171 -4.12722,0.92216 -6.40467,0.25266 -0.9658,-0.28391 -2.68749,-1.14623 -3.60675,-1.80645 -2.667994,-1.91619 -4.508094,-1.92676 -6.623201,-0.038 -0.757775,0.67667 -1.952366,1.3188 -3.27352,1.75963 -2.947194,0.98339 -5.935532,0.59326 -8.136164,-1.06217 -0.538114,-0.4048 -1.904081,-1.75599 -2.898561,-2.86721 -0.545529,-0.60957 -0.571683,-0.54164 -0.236631,0.61455 0.968641,3.34258 3.80622,5.41813 9.276473,6.7853 1.794072,0.44839 1.909808,0.49276 3.685855,1.4129 2.363807,1.224661 3.171931,1.503841 4.380722,1.513398 0.567972,0.0045 0.897253,-0.04686 1.421052,-0.221602 z M 76.89752,40.323637 c 0.55706,-0.12009 1.23418,-0.47652 1.62494,-0.85535 0.31766,-0.30796 0.33312,-0.34976 0.33437,-0.90437 0.003,-1.38129 0.61601,-2.79675 1.63144,-3.76775 0.84396,-0.80704 1.6705,-1.12129 2.94917,-1.12129 0.46984,0 0.83584,-0.037 0.83584,-0.0845 0,-0.17227 -0.6499,-0.70761 -1.22622,-1.01006 -0.6172,-0.32392 -1.56821,-0.60193 -2.63727,-0.77096 -0.7671,-0.12129 -1.16312,-0.34793 -2.05597,-1.17662 -0.95319,-0.88468 -1.35404,-1.22098 -1.45534,-1.22098 -0.0472,0 -0.0857,0.1922 -0.0857,0.4271 0,0.67106 -0.12755,0.77611 -0.9106,0.74994 -0.60022,-0.0201 -0.67565,-0.003 -0.86508,0.19893 -0.22753,0.24219 -0.89824,0.52138 -1.48858,0.61963 -0.29035,0.0483 -0.38628,0.10728 -0.41464,0.25485 -0.0203,0.10559 -0.0846,0.48667 -0.14297,0.84684 -0.31336,1.93463 -1.06829,3.33297 -2.62819,4.86813 l -0.91915,0.90457 0.46503,0.40699 c 1.06759,0.93432 2.74228,1.54425 4.86142,1.77053 0.42733,0.0456 1.64767,-0.0321 2.12753,-0.13559 z m -41.961403,-0.55801 c 1.007222,-0.25574 2.309253,-0.86295 2.854427,-1.33118 l 0.367585,-0.31571 -0.733148,-0.73427 c -1.481298,-1.48356 -2.405485,-3.41379 -2.591188,-5.41188 l -0.05572,-0.59948 -0.498283,-0.10282 c -0.54411,-0.11227 -1.106764,-0.36433 -1.389083,-0.62228 -0.143969,-0.13154 -0.301826,-0.16082 -0.783855,-0.1454 -0.725432,0.0232 -0.856594,-0.0936 -0.856594,-0.76282 v -0.43732 l -0.244243,0.15889 c -0.134334,0.0874 -0.585897,0.47154 -1.003474,0.85366 -1.189736,1.08874 -1.397273,1.21747 -2.187581,1.35697 -1.670632,0.29487 -2.560554,0.61197 -3.300059,1.17587 -0.254397,0.194 -0.634584,0.6882 -0.636208,0.82702 -2.86e-4,0.0244 0.421169,0.0318 0.936565,0.0164 1.147238,-0.0343 1.826552,0.15887 2.595212,0.73793 1.244083,0.9372 1.945515,2.25961 2.039224,3.84455 0.05418,0.91634 0.05667,0.92007 0.902525,1.34826 1.005477,0.509 2.909832,0.56866 4.583894,0.14361 z m 11.716543,-4.53244 c 1.054513,-0.2675 2.977251,-1.15498 2.827253,-1.30498 -0.07076,-0.0708 -0.308062,-0.0213 -0.865827,0.18054 -2.918154,1.05592 -6.181121,0.51949 -8.176797,-1.34426 -0.506243,-0.47277 -0.735942,-0.77133 -0.991946,-1.28932 -0.311661,-0.6306 -0.335267,-0.736 -0.366008,-1.63413 -0.03919,-1.145 0.19973,-3.46113 0.430501,-4.17332 0.212307,-0.65521 0.393143,-0.92047 0.719749,-1.05575 0.57704,-0.23902 1.396337,0.21045 2.834732,1.55513 1.527626,1.42811 3.086066,2.35573 4.972127,2.95955 1.96723,0.62981 4.108448,0.83756 5.195723,0.50411 l 0.532895,-0.16342 -0.710527,-0.0679 c -3.083916,-0.29462 -5.710448,-1.36409 -7.296892,-2.97115 -0.535547,-0.5425 -0.900587,-1.07005 -1.092487,-1.57882 -0.07999,-0.21207 0.0134,-0.15265 0.558314,0.35526 1.450813,1.35228 3.776118,2.28113 6.666255,2.66286 1.468486,0.19396 4.124086,0.12723 5.561195,-0.13973 1.29727,-0.24099 2.89204,-0.77164 3.92979,-1.30761 0.81624,-0.42157 1.96266,-1.26168 2.24146,-1.64256 l 0.15111,-0.20645 -0.0618,0.22204 c -0.216,0.77539 -1.4194,2.08997 -2.55682,2.79303 -1.48446,0.91758 -3.34442,1.52908 -5.371989,1.76616 -0.961745,0.11246 -1.020395,0.1299 -0.774134,0.23022 0.754143,0.30721 2.504893,0.26937 4.041113,-0.0873 2.43836,-0.56618 4.36292,-1.53228 5.99507,-3.00944 1.25817,-1.13869 2.18878,-1.68722 2.86834,-1.69069 0.45655,-0.002 0.73364,0.23173 0.99436,0.83995 0.21845,0.50963 0.47181,2.60435 0.47826,3.95415 0.004,0.86317 -0.0266,1.10039 -0.19804,1.53145 -0.77244,1.94169 -3.13929,3.35174 -5.88151,3.5039 -1.37011,0.076 -2.59699,-0.13885 -3.97182,-0.69564 -0.25107,-0.10167 -0.30451,-0.0998 -0.37611,0.0135 -0.0459,0.0726 -0.0841,0.15618 -0.0848,0.18573 -7.5e-4,0.0296 0.34835,0.21532 0.77578,0.41281 1.72962,0.79917 3.29864,1.105 4.75243,0.92634 2.2882,-0.2812 3.83816,-1.28085 6.60658,-4.26093 l 1.12021,-1.20586 -0.0566,-0.67841 c -0.0788,-0.94505 -0.26304,-1.60768 -0.69121,-2.48616 -0.28949,-0.59397 -0.52129,-0.90866 -1.08711,-1.47586 -0.91243,-0.91467 -1.9578,-1.59623 -4.58264,-2.98781 -1.14795,-0.60859 -2.64671,-1.4369 -3.3306,-1.84069 -2.78448,-1.64407 -4.60057,-2.47892 -6.310744,-2.90105 -1.299877,-0.32085 -2.994465,-0.33924 -4.076901,-0.0443 -1.187758,0.3237 -2.541018,0.92538 -4.377819,1.94645 -2.151415,1.19596 -2.630276,1.43626 -4.374332,2.19517 -2.965117,1.29023 -4.25701,2.06584 -5.475227,3.28715 -0.692342,0.6941 -0.871708,0.93805 -1.213725,1.65074 -0.392941,0.8188 -0.60965,1.59024 -0.721447,2.56818 l -0.05584,0.48849 1.312891,1.38137 c 2.705277,2.84639 3.731453,3.61861 5.486672,4.12887 1.256843,0.36537 2.639589,0.3655 4.078947,3.8e-4 z m 5.6678,-8.17486 c -2.449654,-0.44405 -4.581922,-1.68592 -5.427967,-3.16134 -0.151489,-0.26419 -0.27581,-0.50806 -0.276268,-0.54194 -4.58e-4,-0.0339 0.196038,0.12715 0.436658,0.35786 0.604307,0.5794 1.626133,1.14194 2.794758,1.53857 3.98057,1.35101 9.043759,0.65021 11.529899,-1.59587 0.38226,-0.34534 0.40626,-0.32414 0.16606,0.14669 -0.56329,1.10412 -2.24455,2.31515 -4.00621,2.88571 -1.492251,0.4833 -3.720905,0.6415 -5.21693,0.37032 z m -4.772503,6.57677 c 0.864889,-0.22623 1.782897,-0.73758 2.380519,-1.326 l 0.540764,-0.53243 -0.883339,-0.23141 -0.883339,-0.23141 -0.368637,0.33046 c -1.466807,1.31486 -4.057127,1.28474 -5.404728,-0.0629 -0.404834,-0.40484 -0.574913,-0.74952 -0.639681,-1.29638 l -0.05322,-0.44934 0.264578,0.0581 c 0.335429,0.0737 0.698727,-0.0623 0.832068,-0.31147 0.150686,-0.28156 -0.02155,-0.60497 -0.358018,-0.67226 -0.326759,-0.0654 -0.328663,-0.0909 -0.03003,-0.40258 l 0.237395,-0.24778 -0.481639,-0.52419 c -0.264901,-0.28829 -0.51013,-0.52869 -0.544953,-0.53421 -0.11985,-0.019 -0.760615,0.71595 -0.984991,1.12976 -1.226413,2.2618 0.542685,4.86484 3.68947,5.42865 0.627043,0.11235 2.030561,0.0473 2.687782,-0.12466 z m 16.134453,0.092 c 3.56239,-0.68542 5.14715,-3.88843 3.04543,-6.15525 l -0.394,-0.42495 -0.54067,0.56503 -0.54068,0.56502 0.23253,0.24271 0.23252,0.2427 -0.29019,0.0832 c -0.1654,0.0474 -0.34733,0.18501 -0.42303,0.31989 -0.12432,0.22149 -0.11875,0.25174 0.087,0.472 0.1935,0.20718 0.27149,0.23046 0.65149,0.19452 l 0.43167,-0.0408 -0.0377,0.52126 c -0.16253,2.24703 -4.17131,3.12023 -6.00225,1.30741 l -0.3479,-0.34446 -0.35227,0.12429 c -0.19375,0.0684 -0.5794,0.17144 -0.85699,0.22907 -0.2776,0.0576 -0.50472,0.13583 -0.50472,0.17377 0,0.0379 0.23772,0.29575 0.52826,0.57288 1.2277,1.17103 3.23939,1.70615 5.08153,1.35172 z m -47.339927,-5.28834 c 0.487714,-0.18248 0.502579,-0.19797 0.539354,-0.56212 0.07051,-0.69816 -0.109874,-1.96756 -0.509572,-3.58604 -0.219074,-0.88708 -0.398317,-1.7382 -0.398317,-1.89137 0,-0.35521 0.34414,-0.71451 0.684285,-0.71444 0.502279,1.2e-4 1.785022,1.23903 2.160946,2.08712 0.08661,0.19539 0.201969,0.45518 0.25635,0.5773 0.07791,0.17497 0.09079,0.0243 0.06075,-0.71053 -0.04296,-1.05094 -0.31477,-2.00777 -0.743718,-2.61809 -0.273207,-0.38873 -0.753953,-0.62399 -1.457337,-0.71317 -0.780456,-0.099 -1.266044,-0.63488 -0.920858,-1.0163 0.134463,-0.14858 0.125816,-0.16212 -0.137188,-0.21472 -0.358921,-0.0718 -1.221056,-0.0723 -1.577653,-0.001 l -0.275574,0.0551 0.177218,0.2253 c 0.153863,0.1956 0.161534,0.24979 0.05821,0.41117 -0.16782,0.2621 -0.839704,0.58554 -1.21635,0.58554 -0.533953,0 -1.076314,0.33796 -1.354038,0.84375 -0.378548,0.6894 -0.602697,1.51936 -0.659492,2.4419 -0.05553,0.90194 0.0086,0.96625 0.26634,0.26698 0.314383,-0.85301 1.679844,-2.22022 2.21751,-2.22034 0.362535,-8e-5 0.684286,0.35799 0.684286,0.76154 0,0.17907 -0.137819,0.85033 -0.306264,1.4917 -0.435913,1.65977 -0.581894,2.53225 -0.581894,3.47779 v 0.82659 l 0.394885,0.15081 c 0.932258,0.35603 1.769617,0.37049 2.638123,0.0455 z m 77.748487,0.12468 c 0.88228,-0.22957 0.92902,-0.28472 0.92902,-1.09609 0,-0.85799 -0.17711,-1.91187 -0.58007,-3.45164 -0.36451,-1.39287 -0.3884,-1.83437 -0.11497,-2.12541 0.37791,-0.40227 0.85941,-0.21964 1.73529,0.65821 0.50934,0.51048 1.09007,1.45051 1.09269,1.76872 0.001,0.13917 0.0149,0.14421 0.0875,0.032 0.22671,-0.3508 -0.0379,-1.9677 -0.47144,-2.88058 -0.36637,-0.77148 -0.64394,-0.97507 -1.52025,-1.11506 -0.6966,-0.11128 -0.81042,-0.16097 -1.11532,-0.48691 -0.21216,-0.22679 -0.21501,-0.24528 -0.0754,-0.48858 0.13954,-0.24314 0.13778,-0.25483 -0.046,-0.30412 -0.25318,-0.0679 -1.38057,-0.0657 -1.63788,0.003 -0.18937,0.0507 -0.19347,0.0654 -0.0595,0.2135 0.34482,0.38102 -0.13635,0.91431 -0.92046,1.02014 -1.00412,0.13553 -1.38002,0.39314 -1.73815,1.19115 -0.3175,0.70748 -0.49611,1.58456 -0.48939,2.40317 l 0.005,0.66612 0.14018,-0.39968 c 0.36847,-1.0506 1.72259,-2.48684 2.34466,-2.48684 0.33887,0 0.69853,0.35236 0.69845,0.68429 -3e-5,0.13655 -0.17623,0.9477 -0.39155,1.80255 -0.42443,1.68508 -0.63347,3.09993 -0.54508,3.68932 0.0485,0.32371 0.099,0.39119 0.38526,0.51484 0.80539,0.34793 1.46354,0.40195 2.28688,0.18771 z m -81.194132,-0.90584 c -0.06588,-0.56713 0.08296,-1.56788 0.475082,-3.19435 0.317588,-1.31732 0.321685,-1.35598 0.162325,-1.53207 -0.241153,-0.26648 -0.511742,-0.22203 -1.000553,0.16436 -0.889354,0.70299 -1.404982,1.59869 -1.335656,2.32018 0.06344,0.66019 0.524063,1.53467 1.124839,2.13544 0.290571,0.29057 0.549608,0.52831 0.575639,0.52831 0.02603,0 0.02528,-0.18984 -0.0017,-0.42187 z m 78.177932,-0.53321 c 0.006,-0.7876 0.0652,-1.18975 0.33933,-2.30035 0.34442,-1.39525 0.37529,-1.85981 0.13362,-2.01102 -0.26999,-0.16893 -0.65163,0.0319 -1.28734,0.67728 -1.05998,1.07617 -1.18882,1.72234 -0.59406,2.97956 0.19286,0.40767 1.20989,1.61045 1.36078,1.6093 0.0223,-1.7e-4 0.0438,-0.42981 0.0477,-0.95477 z m -73.37606,0.58256 c 0.784269,-0.64646 1.463072,-2.12883 1.280032,-2.79534 -0.147459,-0.53695 -0.329242,-0.83042 -0.857339,-1.38407 -0.825728,-0.86569 -1.329571,-1.05883 -1.493814,-0.57264 -0.08809,0.26076 -0.07566,0.34042 0.293672,1.8828 0.249268,1.04096 0.321366,1.53111 0.329766,2.24185 0.0059,0.5003 0.03162,0.90996 0.05713,0.91037 0.02551,4e-4 0.201257,-0.12693 0.390557,-0.28297 z m 78.2374,-0.10459 c 0.48824,-0.47451 0.77242,-0.91613 1.02394,-1.59119 0.25669,-0.68894 0.24173,-1.00022 -0.0789,-1.64191 -0.28018,-0.56069 -1.15673,-1.46911 -1.56871,-1.62574 -0.27027,-0.10276 -0.53882,0.0295 -0.60636,0.29855 -0.0273,0.10868 0.0912,0.77098 0.26327,1.47178 0.36703,1.49475 0.5362,2.64904 0.459,3.13182 -0.0305,0.19077 -0.0186,0.34499 0.0266,0.34499 0.0449,0 0.2615,-0.17474 0.48124,-0.3883 z"
         id="path1" /><text
         xml:space="preserve"
         style="font-size:5.31492px;line-height:1;font-family:'Western Brother Personal Use';-inkscape-font-specification:'Western Brother Personal Use';text-align:center;letter-spacing:0.353774px;word-spacing:0px;writing-mode:lr-tb;direction:ltr;text-anchor:middle;fill:#ffffff;fill-opacity:1;stroke:none;stroke-width:1.03389"
         x="53.215279"
         y="47.41526"
         id="text6"><tspan
           sodipodi:role="line"
           id="tspan6"
           style="stroke-width:1.0339"
           x="53.392166"
           y="47.41526">MAINE</tspan></text></g></g></svg>
