<?xml version="1.0" encoding="UTF-8" standalone="no"?>
<!-- Created with Inkscape (http://www.inkscape.org/) -->

<svg
   width="105.83334mm"
   height="105.83334mm"
   viewBox="0 0 105.83333 105.83333"
   version="1.1"
   id="svg1"
   xml:space="preserve"
   inkscape:version="1.4 (e7c3feb100, 2024-10-09)"
   sodipodi:docname="maine.svg"
   inkscape:export-filename="../pngs/charlotte.png"
   inkscape:export-xdpi="96"
   inkscape:export-ydpi="96"
   xmlns:inkscape="http://www.inkscape.org/namespaces/inkscape"
   xmlns:sodipodi="http://sodipodi.sourceforge.net/DTD/sodipodi-0.dtd"
   xmlns="http://www.w3.org/2000/svg"
   xmlns:svg="http://www.w3.org/2000/svg"><sodipodi:namedview
     id="namedview1"
     pagecolor="#ffffff"
     bordercolor="#000000"
     borderopacity="0.25"
     inkscape:showpageshadow="2"
     inkscape:pageopacity="0.0"
     inkscape:pagecheckerboard="0"
     inkscape:deskcolor="#d1d1d1"
     inkscape:document-units="mm"
     inkscape:zoom="1.1101322"
     inkscape:cx="193.22023"
     inkscape:cy="147.73015"
     inkscape:window-width="1920"
     inkscape:window-height="1011"
     inkscape:window-x="0"
     inkscape:window-y="32"
     inkscape:window-maximized="1"
     inkscape:current-layer="layer1"
     showgrid="false"
     showguides="true" /><defs
     id="defs1" /><g
     inkscape:label="Capa 1"
     inkscape:groupmode="layer"
     id="layer1"><ellipse
       style="fill:#ff2a2a;fill-opacity:1;stroke:none;stroke-width:3.77778"
       id="path4"
       cx="14.291533"
       cy="18.12438"
       rx="5.6456976"
       ry="5.9442887" /><ellipse
       style="fill:#ff2a2a;fill-opacity:1;stroke:none;stroke-width:3.77778"
       id="path4-2"
       cx="92.706078"
       cy="18.051155"
       rx="5.6456976"
       ry="5.9442887" /><path
       style="fill:#ff2a2a;fill-opacity:1;stroke:none;stroke-width:4.13269"
       d="m 53.305827,9.2566712 9.269058,4.0927888 6.90966,5.457053 3.539093,6.821315 2.359395,-1.169368 1.179698,-1.559157 4.213206,3.508104 3.202038,1.169367 1.685285,2.923421 3.370564,-0.194893 0.674113,-0.779578 2.190869,5.262154 3.033509,2.143843 1.011169,4.09279 2.864979,1.169368 3.202037,8.965158 0.84265,15.201788 -4.044687,16.566051 -7.58377,8.965156 -8.089358,2.533633 -4.04468,-3.703001 -0.337055,-3.118316 2.022337,-2.728526 -0.337055,-3.702999 2.190866,-2.143842 -0.842639,-2.728526 1.853811,-3.313212 -5.055849,0.779579 -2.02234,5.846842 -1.853811,-0.974472 -1.011169,-5.651949 1.348227,-5.262155 3.370564,-4.87237 H 65.608394 l -4.04468,1.94895 0.337058,2.728524 -1.011172,2.728525 0.505587,4.482581 5.392904,7.990682 1.685282,4.872368 -4.887319,3.702999 -12.976678,3.703001 -12.471093,-4.482579 -0.505584,-2.53363 8.089358,-11.498791 1.179697,-4.287684 -2.527924,-9.744734 -15.167546,0.584683 c 0,0 1.685282,2.533633 1.853811,3.313212 0.168529,0.779576 1.685282,5.067263 1.685282,5.067263 l -0.84264,6.821313 -1.348227,0.389791 -2.359395,-5.067262 -6.90966,-0.584687 3.539094,3.508105 -0.337057,2.728529 2.359396,1.948946 -0.337058,3.508104 1.685285,3.508104 -0.674113,3.313212 -4.381736,3.313209 L 8.9828902,87.019664 3.2529288,72.79235 2.9158721,57.785456 4.6011552,46.286667 8.1402487,41.4143 c 0,0 3.3705653,0.584683 3.3705653,-0.194895 0,-0.779577 0.505585,-3.702997 0.505585,-3.702997 l 3.876151,-3.703001 c 0,0 0.168528,-2.728528 1.179698,-2.923421 1.011169,-0.194896 3.707622,0.389788 3.707622,0.389788 l 2.190867,-2.728526 3.539093,-2.728525 3.876151,-1.948949 2.696454,0.974475 1.516753,-1.754051 0.842642,-3.313211 3.707622,-3.118316 z"
       id="path3" /><path
       style="fill:#ffffff;fill-opacity:1;stroke:none;stroke-width:3.96841"
       d="m 40.966232,21.157201 10.367574,5.082913 10.129236,-2.16024 c 0,0 4.766699,-3.812182 5.362536,-3.049745 0.595839,0.762435 1.668346,4.701693 1.430009,5.209985 -0.238334,0.508292 -3.694192,3.430965 -3.694192,3.430965 l -5.243369,0.127073 -6.435045,-2.160236 -3.455856,1.270727 -4.647533,1.270728 -4.647533,-2.160236 -1.191673,-4.066331 1.191673,-3.55804 z"
       id="path5" /><path
       style="fill:#ffffff;fill-opacity:1;stroke:none;stroke-width:4.13269"
       d="m 24.044449,40.515224 c 0.715005,0 17.16012,4.68559 17.755956,4.68559 0.595837,0 43.496134,-5.512458 43.496134,-5.512458 l 0.357503,7.993061 0.357502,12.678648 c 0,0 -3.455858,-0.413435 -4.051694,-0.137813 -0.595839,0.275621 -4.170863,3.03185 -4.766699,2.894038 C 76.597312,62.978481 29.64532,62.289422 29.64532,62.289422 l -2.264182,-0.689055 -3.098354,-2.204982 -3.33669,0.826867 -0.715005,-10.749286 -0.595837,-9.233363 1.430009,-1.240302 z"
       id="path6" /><path
       style="fill:#2b0000;stroke-width:1.07538"
       d="m 20.768489,96.917269 c -1.219816,-0.273162 -2.375638,-0.79744 -3.62675,-1.645086 -1.973586,-1.33713 -3.676638,-2.829621 -5.079062,-4.451101 C 10.869744,89.441815 7.5432303,84.952681 6.8887653,83.838883 5.6178713,81.67602 3.8210253,76.518676 3.0046673,72.690672 1.9831413,67.900611 1.8736633,64.368828 2.5541553,58.15705 c 0.598283,-5.461349 0.822731,-6.902509 1.573094,-10.100717 0.948698,-4.043551 1.357692,-5.100014 2.472196,-6.385872 1.026435,-1.184249 2.117553,-1.780632 3.5609777,-1.946357 l 0.62713,-0.072 0.09989,-0.674367 c 0.255057,-1.721968 1.576944,-3.607608 3.680248,-5.249768 0.535482,-0.418081 0.670948,-0.64715 1.456632,-2.463091 0.358714,-0.829094 0.723598,-1.605663 0.810853,-1.725703 0.281324,-0.387041 0.621856,-0.569182 1.064713,-0.569494 0.381498,-2.66e-4 0.456157,0.03978 0.71226,0.381733 0.261003,0.348531 0.307733,0.372562 0.532894,0.273986 0.449002,-0.196573 0.687183,-0.215042 1.022056,-0.07933 0.506212,0.205224 1.531696,-0.06418 1.633483,-0.429078 0.197803,-0.709171 0.453645,-1.328184 0.708457,-1.714104 0.369717,-0.559965 1.334089,-1.311577 2.124017,-1.655413 0.636355,-0.277005 1.966464,-0.663433 2.28353,-0.663433 0.374856,0 0.927612,-0.420139 1.884533,-1.43238 0.534476,-0.565366 1.100056,-1.09834 1.256844,-1.184391 0.375964,-0.206311 0.879901,-0.198413 1.197856,0.01873 0.256244,0.175052 0.525829,0.685579 0.525829,0.995797 0,0.114373 0.08173,0.164216 0.2693,0.164216 0.148115,0 0.411883,0.06893 0.586151,0.153103 0.294183,0.142151 0.265626,0.08824 -0.399171,-0.753914 -2.290444,-2.901397 -5.102318,-5.720871 -7.650361,-7.671041 -2.875157,-2.200529 -4.830138,-3.213719 -6.749999,-3.498241 l -0.488487,-0.07239 0.500733,0.473821 c 0.943103,0.892399 1.65046,2.215899 2.042058,3.820764 0.28245,1.157562 0.28245,2.948153 0,4.105714 -0.514855,2.110014 -1.593007,3.734898 -3.031278,4.568444 -0.926821,0.537149 -1.397046,0.668163 -2.398026,0.668163 -1.001021,0 -1.471331,-0.131049 -2.398026,-0.668197 -1.40098,-0.812072 -2.5661339,-2.578724 -3.0367747,-4.604468 -0.252893,-1.08851 -0.253732,-2.94163 -0.0018,-4.025352 0.4976518,-2.140926 1.6171797,-3.797797 3.1740627,-4.697539 0.757083,-0.437532 1.172447,-0.546897 2.484601,-0.65417 2.570659,-0.21015 3.370682,-0.218708 4.24964,-0.04545 3.738129,0.736879 8.052137,4.074223 13.227121,10.23258 0.948342,1.128546 1.746003,2.051902 1.77258,2.051902 0.02658,0 0.0757,-0.168772 0.109163,-0.375048 0.13219,-0.81487 0.618379,-2.120191 1.113301,-2.988975 1.179032,-2.069689 3.167778,-3.727497 6.439376,-5.367818 1.704222,-0.854479 3.000808,-1.586582 4.251657,-2.400677 2.763863,-1.798802 4.634907,-2.6912816 6.177513,-2.946626 0.889131,-0.1471816 2.32925,-0.077482 3.337275,0.1614174 1.796074,0.4257359 3.937714,1.5099546 6.705594,3.3947156 0.806,0.54884 2.3547,1.545933 3.44154,2.215749 3.01932,1.860788 3.88118,2.506168 4.98176,3.730422 1.0728,1.193342 1.86105,2.767862 2.15133,4.29728 0.0619,0.32642 0.14124,0.580631 0.17618,0.564915 0.0349,-0.01573 0.58169,-0.676987 1.21499,-1.469503 0.6333,-0.792504 1.70719,-2.048757 2.38641,-2.791673 4.588,-5.018188 8.26353,-7.643089 11.6321,-8.307112 1.36705,-0.269487 5.19148,-0.02382 6.18845,0.397438 1.80679,0.763512 3.14489,2.508504 3.72339,4.855603 0.26153,1.061101 0.28122,3.033359 0.0404,4.045335 -0.75146,3.157458 -2.88447,5.265831 -5.33949,5.277812 -1.51768,0.0069 -2.64917,-0.553293 -3.78358,-1.874931 -0.87357,-1.017747 -1.37527,-2.0453 -1.67911,-3.439055 -0.22099,-1.013687 -0.23622,-2.640883 -0.0345,-3.686569 0.29673,-1.538288 1.17007,-3.235438 2.10919,-4.098729 l 0.45709,-0.420185 -0.59734,0.06927 c -1.41473,0.164158 -3.30751,1.018197 -5.25903,2.372922 -2.44997,1.700734 -4.10262,3.142933 -6.37927,5.566947 -1.43044,1.523023 -3.58268,4.118446 -3.32206,4.006132 0.0895,-0.03851 0.29855,-0.07008 0.46459,-0.07008 0.25594,0 0.31082,-0.04302 0.36047,-0.282463 0.16061,-0.774626 0.53907,-1.155492 1.1482,-1.155492 0.48669,0 0.87252,0.260641 1.67053,1.128512 1.34509,1.462875 1.52874,1.594167 2.51479,1.797934 1.68594,0.348381 2.99876,0.985979 3.84778,1.868756 0.4054,0.421514 1.06615,1.686198 1.06615,2.040627 0,0.158549 0.72017,0.449513 1.1546,0.466478 0.17097,0.0069 0.4651,-0.03527 0.65361,-0.09333 0.25824,-0.07945 0.4444,-0.06962 0.75494,0.03978 l 0.41217,0.145146 0.22204,-0.308344 c 0.39476,-0.548193 1.0847,-0.590831 1.62388,-0.10038 0.12312,0.111944 0.59141,1.033913 1.0433,2.053938 l 0.81991,1.850738 1.17855,1.023274 c 2.02744,1.760338 2.99872,3.346735 3.12737,5.107914 l 0.0466,0.638667 0.49411,0.166116 c 1.45594,0.489471 2.667097,1.667728 3.373679,3.282024 0.38009,0.868377 0.66211,1.772972 1.21564,3.899266 0.85732,3.293252 1.14345,4.908859 1.87418,10.582236 0.35868,2.784816 0.41585,3.463005 0.456,5.408888 0.0682,3.30607 -0.20484,6.107986 -0.9012,9.247229 -0.77976,3.515255 -2.2906,7.961355 -3.342922,9.837563 -0.413497,0.73724 -2.811907,4.227082 -3.967177,5.772509 -2.16337,2.893991 -5.4753,5.802637 -7.75249,6.808502 -2.37097,1.047284 -4.96279,0.61501 -7.02033,-1.170881 -1.00064,-0.868533 -1.91107,-2.480742 -2.12062,-3.755232 -0.0464,-0.282456 -0.17674,-0.744656 -0.28955,-1.027112 -0.16626,-0.416264 -0.20508,-0.68868 -0.20493,-1.437955 2.3e-4,-1.146628 0.10972,-1.411559 1.10312,-2.669233 0.39409,-0.498923 0.71652,-0.977003 0.71652,-1.062402 0,-0.08539 -0.10183,-0.449622 -0.22629,-0.809384 -0.61719,-1.784119 0.0366,-3.747088 1.47822,-4.438078 l 0.49604,-0.237764 -0.20576,-0.57848 c -0.30437,-0.85573 -0.2877,-1.757941 0.0467,-2.524533 0.24468,-0.560977 0.24779,-0.584648 0.0666,-0.507928 -0.10451,0.04426 -0.67883,0.08458 -1.27626,0.0896 l -1.08623,0.0091 -0.32372,0.355935 c -0.7776,0.855004 -1.23267,2.054032 -1.41015,3.715497 -0.12783,1.196797 -0.29066,1.600125 -0.75909,1.880255 -0.35806,0.214131 -0.85703,0.189665 -1.20507,-0.05909 -0.43828,-0.313251 -1.15493,-1.478632 -1.45048,-2.3587 -0.50585,-1.506277 -0.70499,-3.637828 -0.54143,-5.795196 0.2244,-2.959755 0.7601,-4.555698 2.44106,-7.272264 l 0.74677,-1.206855 -1.92587,-0.0044 c -1.05923,-0.0024 -3.9189,-0.002 -6.35482,0.0011 l -4.42894,0.0056 -0.25994,0.414969 c -0.14296,0.228233 -0.44273,0.56282 -0.66615,0.743527 -0.22342,0.180707 -0.46699,0.378808 -0.54126,0.440224 -0.11764,0.09727 -0.1027,0.175505 0.11586,0.606806 0.20666,0.407798 0.25779,0.646681 0.28991,1.354207 0.0365,0.803142 0.0207,0.902114 -0.24252,1.520349 -0.18198,0.427483 -0.44012,0.821746 -0.73015,1.115141 l -0.44863,0.453859 0.22113,0.397608 c 0.35912,0.645716 0.44725,1.112075 0.38556,2.040217 -0.0553,0.831706 -0.054,0.838803 0.21178,1.133217 0.17446,0.1933 0.32763,0.53015 0.4407,0.969205 0.0953,0.370116 0.29743,0.903725 0.44915,1.185799 0.15173,0.282072 1.2102,1.57592 2.35217,2.875215 2.16013,2.457738 2.76984,3.288216 3.28845,4.479147 0.41411,0.950955 0.57242,1.709601 0.57242,2.743062 0,1.614393 -0.36253,2.610446 -1.32527,3.64123 -1.33387,1.42813 -4.00045,3.181118 -6.09085,4.004074 -1.05266,0.414416 -2.08556,0.45305 -2.74247,0.102577 l -0.43327,-0.231151 -0.35512,0.371023 c -0.45764,0.478142 -1.29729,0.929915 -2.07289,1.115317 -0.902155,0.215656 -3.394107,0.465451 -5.320588,0.533338 -2.630559,0.0927 -3.729935,-0.223294 -4.689747,-1.347967 l -0.461568,-0.540848 -0.710527,-0.06571 c -0.390789,-0.03614 -1.090213,-0.174423 -1.554276,-0.307288 -1.420681,-0.406759 -4.453428,-1.505342 -5.035705,-1.824138 -0.739187,-0.404703 -1.467925,-1.192026 -1.776977,-1.91983 -0.22152,-0.521672 -0.248148,-0.694738 -0.247949,-1.611546 2.04e-4,-0.935688 0.02469,-1.086537 0.275118,-1.694733 0.38638,-0.938384 0.93111,-1.664058 2.119804,-2.823947 1.112777,-1.085812 1.620625,-1.762984 2.950992,-3.934898 1.700244,-2.775762 2.16825,-3.500008 2.811695,-4.351142 L 45.43305,74.83947 45.221599,74.48399 c -0.245148,-0.41213 -0.472814,-1.226235 -0.472814,-1.690725 0,-0.510795 0.249593,-1.347675 0.507752,-1.702479 0.231274,-0.317855 0.23281,-0.329025 0.06442,-0.468383 -0.411733,-0.34075 -0.939085,-1.026868 -1.125453,-1.464287 -0.159274,-0.373826 -0.201654,-0.647773 -0.201654,-1.303499 0,-0.7303 0.03375,-0.905955 0.280469,-1.459714 0.265816,-0.596622 0.271505,-0.632802 0.108886,-0.692491 -0.307552,-0.112881 -1.240466,-1.201018 -1.460798,-1.703848 l -0.215065,-0.49081 -0.325147,0.157109 c -0.841557,0.406637 -1.447305,0.446452 -6.796601,0.446725 -2.84006,1.45e-4 -5.179227,0.01817 -5.198148,0.04005 -0.01892,0.02188 0.206157,0.42683 0.500175,0.899884 1.66037,2.671425 2.221817,4.985381 2.113459,8.71045 -0.07036,2.418927 -0.49004,3.924042 -1.423493,5.105179 -0.540647,0.684103 -0.937573,0.842922 -1.47971,0.592063 -0.513187,-0.237461 -0.763542,-0.777141 -0.879106,-1.895047 -0.151284,-1.46345 -0.693269,-2.795089 -1.42119,-3.491817 l -0.323466,-0.309605 -0.956169,0.06921 c -0.909944,0.06587 -0.983588,0.05574 -1.523333,-0.209545 -0.344425,-0.169285 -0.683956,-0.265825 -0.864554,-0.245821 -0.262961,0.02913 -0.300593,0.07127 -0.325047,0.364033 -0.03142,0.376151 0.111203,0.563987 0.826998,1.089171 0.584269,0.428683 0.938367,1.209942 0.99825,2.202477 0.04047,0.670821 0.0042,0.854563 -0.374684,1.897979 -0.04705,0.129562 -0.02386,0.179745 0.08305,0.179745 0.298826,0 1.130983,0.56311 1.480881,1.002092 0.489114,0.613643 0.719251,1.258405 0.769485,2.155825 0.03498,0.624914 0.0035,0.868602 -0.196576,1.520259 -0.137586,0.448194 -0.214218,0.863555 -0.181389,0.983173 0.03126,0.11391 0.372545,0.574179 0.758401,1.022809 0.94841,1.102703 1.184011,1.643129 1.183137,2.713909 -5.18e-4,0.635542 -0.05186,0.972931 -0.226631,1.489311 -0.124279,0.367192 -0.270857,0.938893 -0.325729,1.270446 -0.130972,0.791372 -0.618479,1.916367 -1.175319,2.712225 -0.823217,1.176573 -2.241437,2.201105 -3.733469,2.697083 -0.645009,0.214413 -2.395386,0.35815 -2.922892,0.24002 z m 3.241775,-3.783073 c 1.115995,-0.434073 1.712897,-0.848048 2.444405,-1.695291 0.748317,-0.866711 1.156746,-1.690622 1.220914,-2.462916 l 0.04106,-0.494133 -0.747718,-0.874487 c -1.298784,-1.518985 -1.58895,-2.527634 -1.085273,-3.772541 0.282516,-0.698278 0.307767,-1.346107 0.067,-1.719036 -0.299103,-0.463294 -0.589143,-0.644765 -1.456868,-0.911534 -1.626326,-0.49999 -1.700785,-0.773167 -0.708845,-2.600638 0.635604,-1.170987 0.475547,-1.635852 -0.760218,-2.20796 -0.7727,-0.357729 -1.858818,-1.225764 -2.184724,-1.74605 -0.391529,-0.625051 -0.70268,-2.043473 -0.880344,-4.01316 l -0.101909,-1.129822 -0.423759,-0.522047 c -0.64918,-0.799755 -0.90834,-1.469777 -0.95613,-2.471944 -0.04823,-1.011372 0.08017,-1.934671 0.441225,-3.17272 l 0.270761,-0.928444 -0.22614,-0.385371 c -0.543148,-0.925593 -0.721605,-2.61909 -0.38472,-3.650866 0.130384,-0.399328 0.146745,-1.123322 0.146745,-6.493839 V 45.836992 L 18.456,45.675689 c -0.243906,-0.14586 -0.264208,-0.195318 -0.212082,-0.516645 0.09642,-0.5944 -0.107171,-0.823158 -0.914791,-1.027851 -0.96047,-0.243431 -1.365886,-0.520913 -1.54498,-1.057439 -0.05791,-0.173501 -0.124062,-0.222188 -0.23482,-0.172838 -0.08481,0.03778 -0.497927,0.207635 -0.918047,0.377441 l -0.763853,0.308738 -0.583216,-0.510498 c -0.828434,-0.72514 -1.421113,-0.965584 -2.518194,-1.021606 -1.3869309,-0.07082 -2.3258787,0.315235 -3.2979187,1.355969 -0.775911,0.830745 -1.144714,1.705452 -1.752465,4.156406 -0.563098,2.270877 -1.165982,6.566898 -1.687905,12.027639 -0.552551,5.781187 0.417151,11.856024 2.928835,18.348117 0.899821,2.325819 1.30024,3.069112 2.6886168,4.990846 3.6028599,4.986934 4.5308479,6.025015 7.2560969,8.11692 2.492322,1.913113 3.777718,2.472474 5.510303,2.397899 0.663033,-0.02854 1.068259,-0.108278 1.598684,-0.314591 z m 29.708878,-0.414819 c 3.709826,-0.364851 3.910016,-0.551966 3.913206,-3.657751 0.002,-1.711632 -0.11517,-2.747426 -0.66866,-5.922931 -0.4955,-2.842803 -0.57746,-3.499255 -0.65222,-5.223907 l -0.0611,-1.409039 -0.62171,0.04397 c -0.34194,0.02418 -1.469733,0.04397 -2.506206,0.04397 h -1.884474 l -0.26015,0.667623 c -0.352863,0.905551 -0.481716,1.404065 -0.889438,3.441103 -0.269408,1.346006 -0.523706,2.254439 -1.109233,3.962543 -1.057836,3.085928 -1.3378,4.263351 -1.341219,5.640664 -0.002,0.8153 0.03324,1.154178 0.144504,1.388735 0.239297,0.504455 0.607206,0.863993 1.042931,1.0192 0.556529,0.198238 2.908785,0.201033 4.893769,0.0058 z m 32.174496,-0.674192 c 2.14193,-0.478665 5.78626,-3.457732 8.2737,-6.763368 1.34627,-1.789096 3.73226,-5.309181 4.05286,-5.979239 0.73916,-1.544888 1.910632,-4.905965 2.465602,-7.074106 0.98914,-3.864318 1.30599,-6.501515 1.23849,-10.308091 -0.0384,-2.167637 -0.0787,-2.656132 -0.45814,-5.552635 -0.69787,-5.327992 -1.13401,-7.741708 -1.798082,-9.950939 -0.43552,-1.448863 -0.71653,-2.076452 -1.20907,-2.700164 -0.83879,-1.062202 -1.87977,-1.597975 -3.12966,-1.610786 -1.15228,-0.01181 -2.12975,0.400767 -2.88497,1.217706 l -0.4173,0.451407 -0.92096,-0.353796 c -0.50652,-0.194587 -0.92565,-0.344234 -0.9314,-0.332548 -0.006,0.01169 -0.062,0.171053 -0.12503,0.354149 -0.14568,0.423211 -0.51337,0.684683 -1.27308,0.905312 -0.33114,0.09617 -0.70496,0.268445 -0.83071,0.382835 -0.19531,0.17767 -0.22098,0.263395 -0.17607,0.588168 0.0545,0.3944 -0.0622,0.607235 -0.4117,0.750569 -0.13757,0.05642 -0.15543,0.222134 -0.15543,1.442036 0,1.314272 0.0123,1.408645 0.26442,2.031768 0.83229,2.056949 0.98894,5.217355 0.39074,7.883341 -0.21768,0.970137 -0.82454,2.60494 -1.18324,3.187502 -0.10035,0.162965 -0.18244,0.341907 -0.18244,0.397649 0,0.05574 0.155,0.31828 0.34446,0.583415 0.75071,1.050589 1.46198,3.200143 1.57419,4.757379 0.10566,1.466342 -0.32155,2.639221 -1.34795,3.700706 -0.45676,0.472374 -0.46612,0.493818 -0.56841,1.301972 -0.15122,1.194701 -0.34081,1.994632 -0.59067,2.492203 -0.27863,0.554862 -1.28423,1.435841 -2.17087,1.901832 -0.72015,0.378488 -1.05995,0.760692 -1.05965,1.191895 1.1e-4,0.156748 0.22195,0.653558 0.53271,1.193004 0.33272,0.577565 0.53259,1.032129 0.53271,1.211524 2.8e-4,0.435924 -0.33923,0.747978 -1.0767,0.98962 -1.6796,0.550343 -2.08083,1.239296 -1.53083,2.628608 0.12891,0.325635 0.25373,0.790571 0.27738,1.033191 0.0641,0.657926 -0.34307,1.582117 -1.11113,2.521883 -0.96367,1.179117 -0.99094,1.31337 -0.49816,2.452503 0.57035,1.318428 1.6288,2.287831 3.14028,2.876111 0.96535,0.375716 1.88202,0.436966 2.95411,0.197384 z m -24.16978,-0.968791 c 1.03843,-0.463789 2.31337,-1.226727 3.3637,-2.012881 1.75749,-1.315448 2.00014,-1.708571 1.93912,-3.141581 -0.063,-1.479175 -0.59664,-2.422769 -2.58237,-4.566143 -2.59926,-2.80562 -3.14282,-3.554344 -3.46413,-4.77171 -0.14013,-0.530918 -0.22802,-0.686003 -0.51192,-0.903267 l -0.34274,-0.262299 -1.005,0.366784 c -0.55275,0.20173 -1.05495,0.38381 -1.11601,0.404622 -0.11944,0.04071 -0.15985,0.633309 -0.12559,1.841731 0.0345,1.216796 0.1902,2.46334 0.64151,5.135555 0.59372,3.515441 0.69878,4.371684 0.76245,6.214022 0.0578,1.671061 0.1041,1.85508 0.52014,2.065667 0.30187,0.152793 1.08919,9.29e-4 1.92084,-0.3705 z M 45.726527,90.896216 c 0.0011,-0.448386 0.38816,-2.398394 0.677911,-3.415144 0.12879,-0.451929 0.53228,-1.722979 0.896644,-2.824556 0.505088,-1.527025 0.768438,-2.527512 1.108468,-4.211155 0.374324,-1.853452 0.719588,-3.247249 0.99228,-4.005733 0.04453,-0.123857 -0.131673,-0.201043 -0.898595,-0.393637 l -0.953986,-0.23957 -0.893096,1.061258 c -0.491203,0.583694 -1.271192,1.655787 -1.733309,2.382433 -2.628147,4.132565 -2.9807,4.605704 -4.549081,6.105028 -0.427871,0.409031 -0.897603,0.934715 -1.043848,1.168187 -0.522995,0.834927 -0.545556,1.674301 -0.06212,2.311052 0.358331,0.471966 0.754331,0.691282 1.996008,1.105449 0.57338,0.191253 1.522114,0.510404 2.108298,0.709227 1.186564,0.40246 1.745928,0.553605 2.109375,0.569973 0.218144,0.0098 0.244329,-0.02467 0.245048,-0.322812 z M 76.100718,78.438164 c 0,-1.581767 0.9098,-3.938016 1.91607,-4.96235 0.66928,-0.68129 0.91151,-0.768722 1.90422,-0.687331 1.10509,0.09061 1.26584,0.01233 2.16666,-1.055036 0.77041,-0.912848 1.11933,-1.158409 1.65821,-1.167011 0.31799,-0.0051 0.40045,-0.06497 0.76884,-0.558424 0.28621,-0.383385 0.47817,-0.55274 0.62652,-0.55274 0.59266,0 1.73365,-1.093066 2.0618,-1.9752 0.65236,-1.753713 -0.64247,-5.441759 -2.23839,-6.375546 -1.33946,-0.783735 -2.96292,-0.513351 -4.67406,0.778453 -1.2297,0.928349 -2.24069,2.263175 -3.98487,5.261293 -0.72722,1.250028 -1.23339,2.65777 -1.45877,4.05709 -0.17131,1.06357 -0.14603,4.21646 0.0408,5.084199 0.18314,0.850793 0.48871,1.655598 0.81838,2.15544 0.3008,0.456066 0.39463,0.455392 0.39463,-0.0029 z M 31.211575,76.588689 c 0.419649,-0.828108 0.593957,-1.889898 0.597762,-3.641239 0.0079,-3.631766 -0.418984,-4.951038 -2.741815,-8.473666 -1.313533,-1.992005 -2.138284,-2.85479 -3.458574,-3.618073 -0.679399,-0.392773 -1.016459,-0.515589 -1.731907,-0.631065 -1.139392,-0.183903 -2.289941,0.264098 -3.015259,1.174083 -0.705179,0.884719 -1.308216,2.661634 -1.398936,4.122123 -0.04797,0.772304 -0.03252,0.888357 0.18759,1.408624 0.37708,0.891307 1.387661,1.806819 1.994442,1.806819 0.20166,0 0.35342,0.117903 0.66102,0.513555 0.356932,0.459104 0.438223,0.513556 0.766703,0.513556 0.512366,0 0.932862,0.283618 1.603782,1.081733 0.784963,0.933776 0.951562,1.005022 2.141551,0.915829 l 0.960864,-0.07202 0.44991,0.333876 c 0.600329,0.4455 1.170972,1.218407 1.59472,2.159971 0.370384,0.822989 0.714796,2.090949 0.714796,2.631535 0,0.180111 0.02662,0.407704 0.05916,0.50576 0.05303,0.159815 0.07679,0.153104 0.22936,-0.06478 0.09361,-0.13369 0.266784,-0.433667 0.384831,-0.666613 z m 25.448293,-1.902263 c 2.21559,-0.269896 3.89809,-1.077277 3.89809,-1.870578 0,-0.320558 -0.48681,-0.835887 -1.05665,-1.118545 -0.50192,-0.248971 -0.66297,-0.254119 -1.57415,-0.05033 -0.39669,0.08872 -1.24357,0.217889 -1.88196,0.287034 l -1.160709,0.12572 -0.0554,0.67496 c -0.03047,0.371229 -0.107363,0.985555 -0.170876,1.365168 -0.06351,0.379612 -0.102302,0.705442 -0.0862,0.724065 0.04407,0.05097 1.125272,-0.02024 2.087855,-0.137494 z m -3.610005,-0.378054 c 0.100731,-0.848546 0.200795,-2.128869 0.17134,-2.192298 -0.01559,-0.03357 -0.659315,-0.09136 -1.4305,-0.128406 -0.771184,-0.03705 -1.717957,-0.13405 -2.103941,-0.215555 -0.658349,-0.139021 -0.722253,-0.136119 -1.032413,0.04687 -0.383603,0.226316 -0.797048,0.754706 -0.797048,1.018639 0,0.46858 0.846362,1.086128 1.982637,1.446631 0.736287,0.2336 2.105454,0.484069 2.738469,0.500962 l 0.41354,0.01099 z m 0.188864,-5.135555 c -0.03342,-0.494298 -0.08408,-1.138342 -0.112573,-1.43121 l -0.05181,-0.532488 -0.543556,-0.05197 c -0.298955,-0.02859 -1.123078,-0.102219 -1.831384,-0.163626 -0.708306,-0.06141 -1.538371,-0.164759 -1.84459,-0.229661 -0.547341,-0.11601 -0.563091,-0.112858 -0.930857,0.186053 -0.768759,0.624835 -0.779789,1.181402 -0.03486,1.759181 0.843481,0.654218 3.170221,1.273801 5.065122,1.34878 l 0.345273,0.01366 z m 4.610351,0.58933 c 1.73746,-0.343929 2.6604,-0.752275 3.14605,-1.391933 0.22686,-0.298805 0.27491,-0.434813 0.22891,-0.647995 -0.0852,-0.394959 -0.27611,-0.596671 -0.90184,-0.952911 l -0.55954,-0.318557 -1.13442,0.215392 c -1.30238,0.247283 -2.756212,0.426773 -3.45675,0.426773 h -0.48278 l 0.05676,0.744657 c 0.05569,0.730571 0.09403,1.375849 0.116809,1.966128 l 0.01147,0.297075 0.999178,-0.07263 c 0.549543,-0.03994 1.438813,-0.159644 1.976153,-0.26601 z m -0.75494,-4.426798 c 1.75242,-0.221079 3.4349,-0.766905 4.11175,-1.333926 l 0.35569,-0.297972 h -3.6644 -3.664398 l 0.04745,0.231099 c 0.0261,0.127106 0.07539,0.50842 0.109535,0.847366 0.03415,0.338947 0.08214,0.65599 0.106647,0.704539 0.04704,0.09318 1.18706,0.02685 2.597726,-0.151106 z m -4.207702,-0.06556 c -0.02493,-0.09885 -0.07213,-0.399289 -0.104885,-0.667622 l -0.05955,-0.487878 h -0.519707 c -0.285838,0 -0.690963,-0.06489 -0.900277,-0.144198 -0.209314,-0.07931 -0.900143,-0.16715 -1.535176,-0.195203 -1.228636,-0.05427 -1.732494,-0.186041 -2.669837,-0.698202 -0.299603,-0.163703 -0.570838,-0.297642 -0.602744,-0.297642 -0.03191,0 -0.05801,0.113945 -0.05801,0.253204 0,0.379685 0.482298,0.94091 1.102973,1.283475 1.007721,0.556185 3.314965,1.097562 4.787058,1.123246 0.537009,0.0094 0.600364,-0.0097 0.560157,-0.16918 z m 27.269232,-4.852236 c 0.42595,0.126247 0.48703,0.117963 1.04918,-0.14229 0.79572,-0.368386 1.57989,-0.574183 2.19492,-0.576033 0.45621,-0.0014 0.52247,-0.03046 0.69034,-0.303107 0.33244,-0.539915 0.71224,-1.593551 0.94938,-2.633787 0.20138,-0.883348 0.23342,-1.237777 0.24063,-2.66238 0.009,-1.818454 -0.10625,-2.589666 -0.5421,-3.620835 -0.43671,-1.033181 -0.97402,-1.595807 -2.1866,-2.289607 -0.59254,-0.339033 -1.1273,-0.693526 -1.18837,-0.787766 -0.15167,-0.234092 -0.1397,-0.89983 0.0227,-1.26306 0.18454,-0.412673 0.70438,-0.593027 1.20717,-0.418819 0.44229,0.153248 1.03414,0.765322 1.42969,1.478567 l 0.29355,0.529311 0.0243,-1.821062 c 0.0133,-1.001584 0.0133,-2.641467 0,-3.644185 l -0.0243,-1.823122 -0.24256,0.531964 c -0.1334,0.292581 -0.29327,0.568865 -0.35526,0.613963 -0.062,0.0451 -0.43244,0.08303 -0.82323,0.08431 -0.59951,0.002 -0.79148,0.04824 -1.2286,0.296255 -1.09209,0.619653 -2.02474,1.958544 -2.4067,3.455005 -0.36755,1.439999 -0.34347,3.467797 0.0559,4.70611 0.25126,0.779118 1.10677,1.758688 2.0695,2.369592 0.39076,0.247961 0.83838,0.563657 0.99471,0.701548 0.4233,0.373383 0.64871,0.99412 0.64697,1.781634 -0.003,1.210952 -0.5538,1.894097 -1.464,1.814677 -0.82616,-0.07208 -1.57934,-0.685844 -2.22039,-1.809382 -0.19539,-0.342455 -0.38524,-0.623921 -0.42188,-0.625479 -0.0366,-0.0015 -0.0666,1.577449 -0.0666,3.508906 v 3.511739 l 0.4247,-0.548354 0.4247,-0.548353 z M 53.452695,59.08145 c 0,-1.129822 -0.01964,-2.054222 -0.04364,-2.054222 -0.024,0 -0.22642,0.161347 -0.449817,0.358549 -1.256078,1.108789 -2.705844,0.734159 -3.419523,-0.883629 -0.455725,-1.033055 -0.565639,-3.142797 -0.227658,-4.369814 0.346714,-1.258721 1.194658,-2.140394 2.044843,-2.126182 0.538322,0.009 1.133228,0.288107 1.579137,0.740873 0.174937,0.177627 0.342767,0.322958 0.372954,0.322958 0.03019,0 0.05489,-0.9244 0.05489,-2.054221 0,-1.129823 -0.01998,-2.054223 -0.04441,-2.054223 -0.02442,0 -0.124342,0.09243 -0.222039,0.205423 -0.206063,0.238301 -0.375357,0.251105 -1.083538,0.08195 -0.678588,-0.162088 -1.788429,0.01576 -2.456233,0.393603 -0.749981,0.424339 -1.618848,1.441482 -2.049978,2.399818 -0.575692,1.279674 -0.743922,2.150811 -0.743922,3.852209 0,1.726716 0.167024,2.578144 0.795192,4.05359 0.52277,1.227886 1.100442,1.924175 2.005358,2.417126 0.861552,0.469331 1.653619,0.608701 2.574438,0.452995 0.666663,-0.112731 0.722049,-0.107273 0.944458,0.09313 0.129945,0.117084 0.26624,0.215449 0.302876,0.218587 0.03664,0.0031 0.06661,-0.918694 0.06661,-2.048516 z m -25.789731,1.652205 c 0.304555,-0.214764 1.010129,-1.026754 1.010129,-1.162478 0,-0.04684 -0.14224,-0.229585 -0.316088,-0.406107 -0.422406,-0.428902 -0.606728,-0.87627 -0.930913,-2.259424 -0.263415,-1.123873 -0.577886,-2.218533 -0.792464,-2.758532 -0.09362,-0.235612 -0.07252,-0.299218 0.217063,-0.654308 0.425093,-0.521247 0.830045,-1.469116 0.985852,-2.30758 0.150133,-0.807929 0.170527,-2.994373 0.03717,-3.985111 -0.311648,-2.31532 -1.198666,-3.946939 -2.575622,-4.737707 -0.497521,-0.285721 -3.542661,-1.677942 -4.033894,-1.844276 -0.139146,-0.04711 -0.15812,-0.0217 -0.103427,0.138553 0.295203,0.864946 0.315161,1.489928 0.314582,9.851098 -3.17e-4,4.57578 -0.03538,8.492925 -0.07792,8.704767 -0.04254,0.211841 -0.06031,0.385167 -0.03949,0.385167 0.02082,0 0.28022,-0.09442 0.576443,-0.209823 0.311174,-0.121227 0.818834,-0.219308 1.202302,-0.232288 l 0.663716,-0.02247 -0.009,-2.501532 -0.009,-2.501534 0.246965,0.07168 c 0.135831,0.03942 0.254527,0.08043 0.263769,0.09112 0.126622,0.146431 0.474719,1.411543 0.821411,2.985302 0.528919,2.400958 0.558712,2.490524 0.901091,2.708955 0.151298,0.09653 0.481388,0.324532 0.733533,0.506682 0.540872,0.390728 0.554949,0.392882 0.913777,0.139845 z m -3.630496,-10.148084 -0.244243,-0.04279 v -2.452709 -2.452708 l 0.466283,0.159689 c 1.228382,0.42069 1.589608,1.032043 1.594461,2.698524 0.003,1.022515 -0.132822,1.570642 -0.470552,1.899283 -0.272402,0.265073 -0.631242,0.315916 -1.345949,0.190709 z m 36.13621,8.495879 c 0.10341,-0.875612 0.17944,-1.604251 0.16893,-1.619199 -0.0105,-0.01495 -0.21501,0.100599 -0.45447,0.256778 -0.41381,0.269888 -0.50248,0.285683 -1.78982,0.318851 l -1.35444,0.03489 10e-4,-4.708251 c 8.6e-4,-3.824966 0.0256,-4.814232 0.13217,-5.273163 0.0721,-0.310701 0.13159,-0.599576 0.13217,-0.641945 5.8e-4,-0.04237 -0.63842,-0.07703 -1.419998,-0.07703 -0.781579,0 -1.421053,0.01746 -1.421053,0.03881 0,0.02135 0.06843,0.21778 0.152059,0.436522 0.138841,0.36314 0.149665,0.906582 0.12452,6.252243 -0.02226,4.733663 -0.05138,5.920843 -0.152058,6.200887 -0.06849,0.190495 -0.124521,0.364452 -0.124521,0.38657 0,0.02212 1.308923,0.02803 2.908721,0.01314 l 2.90871,-0.02708 z m 3.25957,1.412278 c -0.10184,-0.324201 -0.0733,-1.455321 0.0545,-2.156933 l 0.10755,-0.590589 h 0.86898 0.86898 l 0.11422,0.921515 c 0.0632,0.509977 0.0884,1.175088 0.0565,1.489312 l -0.0577,0.567795 h 0.65325 c 0.35928,0 1.01359,-0.02958 1.45402,-0.06573 l 0.80078,-0.06573 -0.20795,-0.422145 c -0.26976,-0.547618 -0.26534,-0.521239 -1.15329,-6.892944 -0.61448,-4.409363 -0.74978,-5.577864 -0.7121,-6.149856 l 0.0465,-0.706167 -0.37323,0.05977 c -0.20528,0.03287 -1.04385,0.14168 -1.86349,0.241801 l -1.49025,0.182038 0.0598,0.310299 c 0.11106,0.57581 0.0506,1.120021 -0.62794,5.651277 -0.95126,6.352452 -1.01194,6.703656 -1.25372,7.255422 -0.11868,0.270841 -0.21578,0.517084 -0.21578,0.547207 0,0.03013 0.66216,0.05477 1.47145,0.05477 h 1.47145 z m 0.62093,-5.957244 c 0.0284,-0.240088 0.12074,-1.165621 0.20529,-2.056741 0.0846,-0.891119 0.18066,-1.584418 0.21356,-1.540665 0.0329,0.04375 0.12832,0.81907 0.21202,1.722928 0.0837,0.903858 0.17413,1.793593 0.20093,1.977189 l 0.0487,0.333811 h -0.46603 -0.46604 z M 35.082492,59.08145 c 0.0835,-0.819121 0.154332,-1.613859 0.157396,-1.766084 l 0.0056,-0.276773 -0.479623,0.253932 c -0.465702,0.246561 -0.51855,0.251901 -1.820724,0.183948 l -1.341099,-0.06999 V 55.334458 53.26243 l 0.880193,0.12224 c 0.61348,0.0852 0.976802,0.191289 1.199013,0.35011 l 0.31882,0.227868 v -1.962526 -1.962526 l -0.285973,0.171019 c -0.251937,0.150665 -0.370858,0.156269 -0.999178,0.04709 -1.233354,-0.214317 -1.112875,-0.064 -1.112875,-1.388488 v -1.153389 l 1.03405,0.232667 c 1.428325,0.321379 1.412027,0.315177 1.762018,0.670548 l 0.312484,0.31729 v -1.806128 c 0,-1.788937 -0.0019,-1.806629 -0.199836,-1.858808 -2.571627,-0.677925 -3.495607,-0.93449 -4.418176,-1.226804 -0.610383,-0.193399 -1.122835,-0.336545 -1.138782,-0.318104 -0.01595,0.01845 0.04382,0.257458 0.132815,0.531147 0.149996,0.46129 0.163733,1.029985 0.18817,7.790105 0.02478,6.855877 0.0047,7.653774 -0.209373,8.298774 -0.07778,0.234391 0.124575,0.249602 3.156371,0.237264 l 2.706913,-0.01099 z m 6.063024,1.190244 c 0.663135,-0.376539 1.545059,-1.384954 1.855656,-2.121807 0.745124,-1.767712 0.961753,-5.311607 0.461029,-7.542104 -0.413237,-1.840786 -1.583196,-3.453235 -2.904182,-4.002573 -0.242214,-0.100727 -1.419382,-0.376429 -2.615929,-0.612674 -2.110479,-0.41669 -2.173775,-0.423215 -2.116534,-0.218143 0.286012,1.024666 0.304372,1.481306 0.306211,7.615945 0.0016,5.176557 -0.01948,6.25334 -0.130411,6.676222 -0.07274,0.27731 -0.132695,0.518513 -0.133224,0.536006 -5.29e-4,0.01748 1.068159,0.01748 2.374861,0 l 2.375822,-0.0318 z m -2.645681,-3.116078 c -0.03028,-0.211841 -0.05549,-2.064319 -0.05603,-4.116619 l -9.78e-4,-3.731452 0.599507,0.06741 c 1.119865,0.125929 1.770584,0.752688 2.116956,2.039011 0.22148,0.822512 0.269495,2.852083 0.0896,3.787197 -0.31154,1.619394 -0.957349,2.339619 -2.097882,2.339619 h -0.59612 z m 34.016463,3.286756 c -0.1464,-0.60129 -0.12398,-1.055227 0.1666,-3.373729 0.17633,-1.40681 0.34863,-2.687903 0.38291,-2.846874 0.10112,-0.469039 0.67187,4.782639 0.61669,5.674482 l -0.0449,0.725866 h 1.71165 1.71166 l -0.0441,-0.796011 c -0.0646,-1.166883 1.39301,-14.642152 1.7022,-15.736152 0.11907,-0.421304 0.20232,-0.78239 0.18501,-0.802414 -0.0173,-0.02002 -0.69304,0.181505 -1.50161,0.447841 l -1.47012,0.484246 0.0514,0.636769 c 0.0601,0.744185 -0.59533,7.781432 -0.69665,7.47985 -0.0347,-0.103282 -0.22984,-1.528176 -0.43366,-3.166418 -0.27307,-2.194955 -0.3602,-3.188461 -0.33117,-3.776192 0.0343,-0.693464 0.021,-0.790964 -0.10142,-0.746959 -0.14887,0.05351 -2.4911,0.671485 -2.54502,0.671485 -0.0173,0 -0.009,0.288875 0.0176,0.641944 0.0386,0.50469 -0.0574,1.344685 -0.4491,3.9287 -0.27404,1.807716 -0.50907,3.326941 -0.5223,3.376056 -0.0132,0.04911 -0.17702,-1.394691 -0.36396,-3.208457 -0.23259,-2.256678 -0.32126,-3.470221 -0.28087,-3.84406 l 0.059,-0.546304 -1.43765,0.285426 c -0.7907,0.156984 -1.45019,0.299929 -1.46552,0.317658 -0.0153,0.01773 0.0685,0.261658 0.1862,0.542068 0.17093,0.407095 0.29491,1.17217 0.61523,3.79659 0.9782,8.014442 1.04411,8.626828 1.00321,9.321034 l -0.0409,0.6933 h 1.68163 c 1.55901,0 1.67843,-0.0131 1.63786,-0.179745 z m 15.37767,-17.934563 c 0.2304,-0.133416 0.62301,-0.319806 0.87245,-0.414199 0.24943,-0.09439 0.54559,-0.284957 0.65811,-0.423475 0.25189,-0.31007 0.66859,-0.411483 1.02086,-0.24845 0.14604,0.06758 0.57695,0.114616 0.95759,0.10452 0.59669,-0.01583 0.74839,-0.05968 1.10087,-0.318185 0.45421,-0.333119 1.06684,-0.592837 1.8041,-0.764827 l 0.48849,-0.113956 0.0276,-0.500052 c 0.0616,-1.115477 -1.15533,-2.917207 -2.89211,-4.281808 -0.4031,-0.316717 -0.82223,-0.707169 -0.9314,-0.867673 -0.10917,-0.160504 -0.51876,-1.030051 -0.91019,-1.932338 -0.39143,-0.902274 -0.75688,-1.657263 -0.81211,-1.677744 -0.0552,-0.02047 -0.12788,0.09182 -0.16145,0.249678 -0.0931,0.437774 -0.29993,0.749126 -0.49765,0.749126 -0.098,0 -0.41758,-0.139792 -0.71025,-0.310646 -0.44378,-0.259069 -0.56378,-0.291068 -0.72267,-0.192723 -0.29779,0.184304 -1.15553,0.04915 -2.38157,-0.375257 -0.94576,-0.32738 -1.24176,-0.38548 -1.99836,-0.392291 -1.12272,-0.01041 -1.59351,0.206542 -2.29365,1.0554 -0.84012,1.018568 -1.18576,2.113738 -1.10177,3.490968 0.0587,0.961878 0.30058,1.726211 0.85557,2.703077 0.65473,1.152454 0.63143,1.138121 1.61779,0.994842 0.61685,-0.0896 0.99204,-0.210592 1.44468,-0.465871 0.70162,-0.395688 1.26966,-0.448562 1.94789,-0.181313 0.59728,0.235355 1.24266,0.950701 1.58657,1.75856 0.24769,0.581851 0.2929,0.81012 0.32416,1.636682 0.0413,1.091655 0.0485,1.098941 0.70642,0.717953 z m -69.482754,-0.96428 c 0.144344,-1.155981 0.91054,-2.378643 1.753365,-2.797941 0.605384,-0.301173 1.287183,-0.252872 3.490422,0.247278 0.928125,0.210692 1.811737,0.40779 1.963582,0.437998 0.256801,0.05109 0.311723,0.0022 0.786452,-0.699401 0.893206,-1.320152 1.291084,-2.473042 1.291084,-3.741032 0,-1.698792 -0.812775,-3.274156 -2.029621,-3.933912 -0.444486,-0.240993 -0.602803,-0.270679 -1.389786,-0.260583 -0.750073,0.0093 -1.060764,0.07101 -1.998355,0.394662 -1.270057,0.438457 -1.904699,0.542746 -2.309575,0.379524 -0.249695,-0.100611 -0.342992,-0.07783 -0.785409,0.191821 -0.27613,0.168321 -0.589715,0.306147 -0.696854,0.306263 -0.23532,2.66e-4 -0.449998,-0.328802 -0.527937,-0.80925 -0.05422,-0.334249 -0.06469,-0.3432 -0.184453,-0.157613 -0.06983,0.108244 -0.44454,0.920709 -0.832682,1.805544 -0.388142,0.884824 -0.816751,1.739904 -0.952465,1.900153 -0.135714,0.16025 -0.639168,0.614909 -1.118786,1.010346 -1.787665,1.473896 -2.784063,3.114339 -2.595957,4.273902 0.05381,0.331725 0.121749,0.399491 0.790542,0.788564 1.071519,0.623362 1.398335,0.683568 2.03319,0.374556 0.282618,-0.137562 0.596973,-0.250113 0.698568,-0.250113 0.235368,0 0.677969,0.262679 0.772804,0.45865 0.0401,0.08286 0.369193,0.222615 0.732139,0.310907 0.362615,0.08821 0.678205,0.182249 0.701311,0.20897 0.02311,0.02672 0.110747,0.04858 0.194756,0.04858 0.114461,0 0.168014,-0.12228 0.213665,-0.487875 z m 35.913979,-2.342932 c 0.374978,-0.144667 1.282106,-0.650941 2.015835,-1.125052 1.82439,-1.178855 2.16968,-1.340053 3.52624,-1.646327 4.49076,-1.013884 7.25382,-2.354662 9.13681,-4.43366 1.07987,-1.192278 1.76509,-2.464328 2.11575,-3.927713 l 0.17492,-0.729975 -1.32353,1.579122 c -1.37741,1.643398 -2.23542,2.42642 -3.23063,2.948268 -1.83429,0.961832 -4.12722,1.066433 -6.40467,0.292189 -0.9658,-0.328328 -2.68749,-1.325559 -3.60675,-2.089071 -2.667994,-2.21598 -4.508094,-2.228204 -6.623201,-0.04395 -0.757775,0.782536 -1.952366,1.525128 -3.27352,2.034926 -2.947194,1.137242 -5.935532,0.686076 -8.136164,-1.228348 -0.538114,-0.468131 -1.904081,-2.030716 -2.898561,-3.315788 -0.545529,-0.704938 -0.571683,-0.62638 -0.236631,0.710697 0.968641,3.86553 3.80622,6.265803 9.276473,7.846868 1.794072,0.518541 1.909808,0.569853 3.685855,1.63395 2.363807,1.41626 3.171931,1.739118 4.380722,1.75017 0.567972,0.0052 0.897253,-0.05419 1.421052,-0.256272 z m 21.949105,-2.216399 c 0.55706,-0.138878 1.23418,-0.551072 1.62494,-0.98917 0.31766,-0.356141 0.33312,-0.40448 0.33437,-1.04586 0.003,-1.597394 0.61601,-3.234304 1.63144,-4.357218 0.84396,-0.933303 1.6705,-1.296717 2.94917,-1.296717 0.46984,0 0.83584,-0.04279 0.83584,-0.09772 0,-0.199222 -0.6499,-0.818317 -1.22622,-1.168085 -0.6172,-0.374598 -1.56821,-0.696103 -2.63727,-0.891578 -0.7671,-0.140266 -1.16312,-0.402364 -2.05597,-1.360704 -0.95319,-1.023089 -1.35404,-1.412003 -1.45534,-1.412003 -0.0472,0 -0.0857,0.22227 -0.0857,0.49392 0,0.776048 -0.12755,0.897533 -0.9106,0.867269 -0.60022,-0.02324 -0.67565,-0.0035 -0.86508,0.230053 -0.22753,0.280081 -0.89824,0.60295 -1.48858,0.716572 -0.29035,0.05586 -0.38628,0.124064 -0.41464,0.294721 -0.0203,0.12211 -0.0846,0.56281 -0.14297,0.979329 -0.31336,2.237305 -1.06829,3.854417 -2.62819,5.629755 l -0.91915,1.046091 0.46503,0.470664 c 1.06759,1.080495 2.74228,1.785849 4.86142,2.047531 0.42733,0.05273 1.64767,-0.03712 2.12753,-0.156803 z M 34.312895,36.338887 c 1.007222,-0.295751 2.309253,-0.997959 2.854427,-1.539444 l 0.367585,-0.365104 -0.733148,-0.849147 c -1.481298,-1.715665 -2.405485,-3.947881 -2.591188,-6.258574 l -0.05572,-0.69327 -0.498283,-0.118906 c -0.54411,-0.129835 -1.106764,-0.42133 -1.389083,-0.719636 -0.143969,-0.15212 -0.301826,-0.185981 -0.783855,-0.168148 -0.725432,0.02683 -0.856594,-0.108244 -0.856594,-0.882165 v -0.505739 l -0.244243,0.183749 c -0.134334,0.101074 -0.585897,0.545313 -1.003474,0.987216 -1.189736,1.259074 -1.397273,1.407944 -2.187581,1.569269 -1.670632,0.341003 -2.560554,0.707714 -3.300059,1.359836 -0.254397,0.224352 -0.634584,0.79587 -0.636208,0.956409 -2.86e-4,0.02822 0.421169,0.03677 0.936565,0.01897 1.147238,-0.03967 1.826552,0.183726 2.595212,0.85338 1.244083,1.083826 1.945515,2.613129 2.039224,4.446034 0.05418,1.059703 0.05667,1.064016 0.902525,1.559197 1.005477,0.588634 2.909832,0.657628 4.583894,0.166078 z m 11.716543,-5.241545 c 1.054513,-0.309351 2.977251,-1.335678 2.827253,-1.509146 -0.07076,-0.08188 -0.308062,-0.02463 -0.865827,0.208786 -2.918154,1.22112 -6.181121,0.600765 -8.176797,-1.554571 -0.506243,-0.546735 -0.735942,-0.892005 -0.991946,-1.491035 -0.311661,-0.729258 -0.335267,-0.851148 -0.366008,-1.889792 -0.03919,-1.324136 0.19973,-4.002627 0.430501,-4.82624 0.212307,-0.757719 0.393143,-1.064479 0.719749,-1.220924 0.57704,-0.276415 1.396337,0.243376 2.834732,1.798432 1.527626,1.65154 3.086066,2.724287 4.972127,3.422575 1.96723,0.728345 4.108448,0.968597 5.195723,0.582979 l 0.532895,-0.188988 -0.710527,-0.07852 c -3.083916,-0.340713 -5.710448,-1.577503 -7.296892,-3.435989 -0.535547,-0.627375 -0.900587,-1.237461 -1.092487,-1.825828 -0.07999,-0.245249 0.0134,-0.176533 0.558314,0.41084 1.450813,1.563846 3.776118,2.638016 6.666255,3.079468 1.468486,0.224305 4.124086,0.147135 5.561195,-0.161591 1.29727,-0.278693 2.89204,-0.892364 3.92979,-1.512187 0.81624,-0.487525 1.96266,-1.459071 2.24146,-1.899541 l 0.15111,-0.238749 -0.0618,0.256779 c -0.216,0.8967 -1.4194,2.416948 -2.55682,3.230002 -1.48446,1.061137 -3.34442,1.768306 -5.371989,2.042478 -0.961745,0.130054 -1.020395,0.150223 -0.774134,0.266238 0.754143,0.355273 2.504893,0.311513 4.041113,-0.100958 2.43836,-0.65476 4.36292,-1.772007 5.99507,-3.48027 1.25817,-1.31684 2.18878,-1.951188 2.86834,-1.955201 0.45655,-0.0023 0.73364,0.267985 0.99436,0.971361 0.21845,0.589363 0.47181,3.011804 0.47826,4.572782 0.004,0.998213 -0.0266,1.272547 -0.19804,1.771047 -0.77244,2.245469 -3.13929,3.876123 -5.88151,4.052089 -1.37011,0.08789 -2.59699,-0.160574 -3.97182,-0.804474 -0.25107,-0.117576 -0.30451,-0.115414 -0.37611,0.01561 -0.0459,0.08396 -0.0841,0.180615 -0.0848,0.214788 -7.5e-4,0.03423 0.34835,0.249007 0.77578,0.477394 1.72962,0.924201 3.29864,1.277879 4.75243,1.071267 2.2882,-0.325194 3.83816,-1.48124 6.60658,-4.927557 l 1.12021,-1.394518 -0.0566,-0.784548 c -0.0788,-1.092904 -0.26304,-1.859203 -0.69121,-2.875123 -0.28949,-0.686897 -0.52129,-1.05082 -1.08711,-1.706759 -0.91243,-1.057772 -1.9578,-1.845962 -4.58264,-3.455257 -1.14795,-0.703804 -2.64671,-1.661704 -3.3306,-2.128668 -2.78448,-1.901286 -4.60057,-2.866749 -6.310744,-3.354922 -1.299877,-0.371047 -2.994465,-0.392315 -4.076901,-0.05123 -1.187758,0.374343 -2.541018,1.070157 -4.377819,2.250974 -2.151415,1.38307 -2.630276,1.660965 -4.374332,2.538607 -2.965117,1.492088 -4.25701,2.389043 -5.475227,3.801428 -0.692342,0.802693 -0.871708,1.084809 -1.213725,1.909 -0.392941,0.946903 -0.60965,1.839035 -0.721447,2.969975 l -0.05584,0.564915 1.312891,1.597487 c 2.705277,3.291711 3.731453,4.184745 5.486672,4.774836 1.256843,0.422532 2.639589,0.422683 4.078947,4.39e-4 z m 5.6678,-9.453826 c -2.449654,-0.513522 -4.581922,-1.949684 -5.427967,-3.655935 -0.151489,-0.305523 -0.27581,-0.587547 -0.276268,-0.626727 -4.58e-4,-0.0392 0.196038,0.147043 0.436658,0.413847 0.604307,0.670048 1.626133,1.320598 2.794758,1.779281 3.98057,1.562377 9.043759,0.751937 11.529899,-1.845545 0.38226,-0.399369 0.40626,-0.374852 0.16606,0.16964 -0.56329,1.27686 -2.24455,2.677357 -4.00621,3.337182 -1.492251,0.558913 -3.720905,0.741864 -5.21693,0.428257 z m -4.772503,7.605713 c 0.864889,-0.261624 1.782897,-0.852975 2.380519,-1.533454 l 0.540764,-0.615729 -0.883339,-0.267615 -0.883339,-0.267614 -0.368637,0.382161 c -1.466807,1.520571 -4.057127,1.485739 -5.404728,-0.07274 -0.404834,-0.468178 -0.574913,-0.866783 -0.639681,-1.4992 l -0.05322,-0.51964 0.264578,0.06719 c 0.335429,0.08523 0.698727,-0.07205 0.832068,-0.3602 0.150686,-0.32561 -0.02155,-0.699618 -0.358018,-0.777436 -0.326759,-0.07563 -0.328663,-0.105121 -0.03003,-0.465564 l 0.237395,-0.286545 -0.481639,-0.6062 c -0.264901,-0.333394 -0.51013,-0.611404 -0.544953,-0.617788 -0.11985,-0.02197 -0.760615,0.827961 -0.984991,1.306512 -1.226413,2.615661 0.542685,5.62595 3.68947,6.277968 0.627043,0.129928 2.030561,0.0547 2.687782,-0.144163 z m 16.134453,0.106394 c 3.56239,-0.792655 5.14715,-4.49678 3.04543,-7.118246 l -0.394,-0.491434 -0.54067,0.65343 -0.54068,0.653418 0.23253,0.280682 0.23252,0.28067 -0.29019,0.09622 c -0.1654,0.05482 -0.34733,0.213955 -0.42303,0.369937 -0.12432,0.256143 -0.11875,0.291125 0.087,0.545845 0.1935,0.239594 0.27149,0.266516 0.65149,0.224953 l 0.43167,-0.04718 -0.0377,0.602812 c -0.16253,2.59858 -4.17131,3.608393 -6.00225,1.511955 l -0.3479,-0.398351 -0.35227,0.143736 c -0.19375,0.0791 -0.5794,0.198262 -0.85699,0.264908 -0.2776,0.06661 -0.50472,0.157081 -0.50472,0.200956 0,0.04383 0.23772,0.342021 0.52826,0.662508 1.2277,1.354239 3.23939,1.973079 5.08153,1.563198 z M 15.719261,23.239916 c 0.487714,-0.211029 0.502579,-0.228943 0.539354,-0.650064 0.07051,-0.807388 -0.109874,-2.275387 -0.509572,-4.14708 -0.219074,-1.025865 -0.398317,-2.010144 -0.398317,-2.187277 0,-0.410783 0.34414,-0.826296 0.684285,-0.826215 0.502279,1.39e-4 1.785022,1.432877 2.160946,2.413652 0.08661,0.225959 0.201969,0.526394 0.25635,0.667619 0.07791,0.202345 0.09079,0.0281 0.06075,-0.821693 -0.04296,-1.215361 -0.31477,-2.321888 -0.743718,-3.027693 -0.273207,-0.449547 -0.753953,-0.721614 -1.457337,-0.824746 -0.780456,-0.114489 -1.266044,-0.734208 -0.920858,-1.175301 0.134463,-0.171826 0.125816,-0.187484 -0.137188,-0.248314 -0.358921,-0.08303 -1.221056,-0.08361 -1.577653,-0.0012 l -0.275574,0.06372 0.177218,0.260549 c 0.153863,0.226202 0.161534,0.28887 0.05821,0.475498 -0.16782,0.303106 -0.839704,0.677148 -1.21635,0.677148 -0.533953,0 -1.076314,0.390834 -1.354038,0.975756 -0.378548,0.797257 -0.602697,1.757065 -0.659492,2.823938 -0.05553,1.043049 0.0086,1.117421 0.26634,0.308749 0.314383,-0.986464 1.679844,-2.567576 2.21751,-2.567715 0.362535,-9.2e-5 0.684286,0.413998 0.684286,0.880684 0,0.207086 -0.137819,0.983365 -0.306264,1.725078 -0.435913,1.919443 -0.581894,2.928424 -0.581894,4.021894 v 0.955911 l 0.394885,0.174405 c 0.932258,0.411731 1.769617,0.428453 2.638123,0.05262 z m 77.748487,0.144186 c 0.88228,-0.265486 0.92902,-0.329265 0.92902,-1.267574 0,-0.992224 -0.17711,-2.210984 -0.58007,-3.991653 -0.36451,-1.610786 -0.3884,-2.121359 -0.11497,-2.457933 0.37791,-0.465205 0.85941,-0.254003 1.73529,0.761188 0.50934,0.590345 1.09007,1.677444 1.09269,2.045438 0.001,0.160943 0.0149,0.166772 0.0875,0.03701 0.22671,-0.405683 -0.0379,-2.275548 -0.47144,-3.331249 -0.36637,-0.892179 -0.64394,-1.127621 -1.52025,-1.289513 -0.6966,-0.12869 -0.81042,-0.186154 -1.11532,-0.563087 -0.21216,-0.262272 -0.21501,-0.283655 -0.0754,-0.565019 0.13954,-0.28118 0.13778,-0.294699 -0.046,-0.3517 -0.25318,-0.07852 -1.38057,-0.07598 -1.63788,0.0035 -0.18937,0.05863 -0.19347,0.07563 -0.0595,0.246902 0.34482,0.440631 -0.13635,1.057355 -0.92046,1.179742 -1.00412,0.156734 -1.38002,0.454648 -1.73815,1.377507 -0.3175,0.818166 -0.49611,1.832466 -0.48939,2.779149 l 0.005,0.770335 0.14018,-0.46221 c 0.36847,-1.214968 1.72259,-2.875909 2.34466,-2.875909 0.33887,0 0.69853,0.407487 0.69845,0.791348 -3e-5,0.157913 -0.17623,1.095968 -0.39155,2.084561 -0.42443,1.948712 -0.63347,3.584917 -0.54508,4.266518 0.0485,0.374355 0.099,0.452392 0.38526,0.595387 0.80539,0.402364 1.46354,0.464836 2.28688,0.217078 z M 12.273616,22.336543 c -0.06588,-0.655859 0.08296,-1.813177 0.475082,-3.69411 0.317588,-1.523416 0.321685,-1.568125 0.162325,-1.771764 -0.241153,-0.308171 -0.511742,-0.256767 -1.000553,0.190074 -0.889354,0.812974 -1.404982,1.848807 -1.335656,2.683175 0.06344,0.763477 0.524063,1.774771 1.124839,2.469532 0.290571,0.33603 0.549608,0.610965 0.575639,0.610965 0.02603,0 0.02528,-0.219541 -0.0017,-0.487872 z m 78.177932,-0.616632 c 0.006,-0.910821 0.0652,-1.375887 0.33933,-2.660242 0.34442,-1.613538 0.37529,-2.150779 0.13362,-2.325646 -0.26999,-0.19536 -0.65163,0.03689 -1.28734,0.783241 -1.05998,1.244538 -1.18882,1.991802 -0.59406,3.445715 0.19286,0.471451 1.20989,1.862407 1.36078,1.861077 0.0223,-1.96e-4 0.0438,-0.497054 0.0477,-1.104145 z m -73.37606,0.673702 c 0.784269,-0.747599 1.463072,-2.461887 1.280032,-3.232674 -0.147459,-0.620956 -0.329242,-0.96034 -0.857339,-1.600609 -0.825728,-1.001128 -1.329571,-1.224485 -1.493814,-0.66223 -0.08809,0.301556 -0.07566,0.393679 0.293672,2.177366 0.249268,1.203819 0.321366,1.770654 0.329766,2.59259 0.0059,0.578573 0.03162,1.052324 0.05713,1.052798 0.02551,4.63e-4 0.201257,-0.146788 0.390557,-0.327241 z m 78.2374,-0.120953 c 0.48824,-0.548747 0.77242,-1.059459 1.02394,-1.840133 0.25669,-0.796726 0.24173,-1.156706 -0.0789,-1.898789 -0.28018,-0.64841 -1.15673,-1.698954 -1.56871,-1.880089 -0.27027,-0.118837 -0.53882,0.03412 -0.60636,0.345259 -0.0273,0.125683 0.0912,0.8916 0.26327,1.702041 0.36703,1.728606 0.5362,3.063486 0.459,3.621797 -0.0305,0.220616 -0.0186,0.398964 0.0266,0.398964 0.0449,0 0.2615,-0.202078 0.48124,-0.44905 z"
       id="path1" /><text
       xml:space="preserve"
       style="font-size:5.71558px;line-height:1;font-family:'Western Brother Personal Use';-inkscape-font-specification:'Western Brother Personal Use';text-align:center;letter-spacing:0.380443px;word-spacing:0px;writing-mode:lr-tb;direction:ltr;text-anchor:middle;fill:#ffffff;fill-opacity:1;stroke:none;stroke-width:1.11183"
       x="56.556664"
       y="42.017834"
       id="text6"
       transform="scale(0.92990025,1.0753842)"><tspan
         sodipodi:role="line"
         id="tspan6"
         style="stroke-width:1.11184;fill:#ffffff;fill-opacity:1"
         x="56.746887"
         y="42.017834">MAINE</tspan></text></g></svg>
