<?xml version="1.0" encoding="UTF-8" standalone="no"?>
<!-- Created with Inkscape (http://www.inkscape.org/) -->

<svg
   width="105.83334mm"
   height="105.83334mm"
   viewBox="0 0 105.83333 105.83333"
   version="1.1"
   id="svg1"
   xml:space="preserve"
   inkscape:version="1.4.2 (ebf0e940d0, 2025-05-08)"
   sodipodi:docname="massachusets.svg"
   inkscape:export-filename="../pngs/charlotte.png"
   inkscape:export-xdpi="96"
   inkscape:export-ydpi="96"
   xmlns:inkscape="http://www.inkscape.org/namespaces/inkscape"
   xmlns:sodipodi="http://sodipodi.sourceforge.net/DTD/sodipodi-0.dtd"
   xmlns="http://www.w3.org/2000/svg"
   xmlns:svg="http://www.w3.org/2000/svg"><sodipodi:namedview
     id="namedview1"
     pagecolor="#ffffff"
     bordercolor="#000000"
     borderopacity="0.25"
     inkscape:showpageshadow="2"
     inkscape:pageopacity="0.0"
     inkscape:pagecheckerboard="0"
     inkscape:deskcolor="#d1d1d1"
     inkscape:document-units="mm"
     inkscape:zoom="0.7035476"
     inkscape:cx="506.00698"
     inkscape:cy="203.25561"
     inkscape:window-width="1920"
     inkscape:window-height="1011"
     inkscape:window-x="0"
     inkscape:window-y="32"
     inkscape:window-maximized="1"
     inkscape:current-layer="layer1"
     showgrid="false"
     showguides="true" /><defs
     id="defs1" /><g
     inkscape:label="Capa 1"
     inkscape:groupmode="layer"
     id="layer1"><g
       id="g7"
       transform="matrix(0.97168132,0,0,0.97168132,-118.60601,-33.321342)"><path
         style="fill:#602d89;fill-opacity:1;stroke:#ffffff;stroke-width:2.689;stroke-dasharray:none"
         d="m 175.80495,132.32016 c -1.86642,-2.30204 -6.24565,-5.97518 -9.46672,-7.94036 -0.75526,-0.46079 -0.7682,-0.37174 0.38832,-2.67196 0.40074,-0.79703 0.69648,-1.48129 0.65719,-1.52058 -0.0393,-0.0393 -1.09619,0.39371 -2.34868,0.96221 -7.65188,3.47317 -16.98057,6.65622 -22.77653,7.77161 -1.7756,0.3417 -4.28734,0.62974 -4.28734,0.49167 0,-0.0426 0.28309,-0.54362 0.62909,-1.11329 1.16525,-1.91857 2.85477,-5.60825 3.49675,-7.63645 0.78722,-2.48705 0.79071,-2.55958 0.11682,-2.4248 -1.09437,0.21888 -6.26018,-0.40505 -12.391,-1.49659 l -3.20845,-0.57123 0.69461,-0.53975 c 1.26037,-0.97938 3.79941,-3.51533 4.9562,-4.95018 3.12781,-3.87963 5.57693,-8.02269 11.26298,-19.053063 8.49409,-16.477715 13.37247,-22.242677 20.31169,-24.003113 0.97036,-0.246176 1.98791,-0.645804 2.55805,-1.004644 0.5207,-0.327723 1.24643,-0.734259 1.61272,-0.903413 1.9911,-0.919477 1.95993,-0.844148 0.30431,-0.735572 -0.82476,0.05409 -1.69802,0.149059 -1.94059,0.211046 l -0.44105,0.112702 0.47616,-0.384262 c 0.61031,-0.492526 2.04954,-1.127732 3.67126,-1.620314 l 1.27773,-0.388099 -0.61633,-0.211885 c -0.88764,-0.305152 -1.86361,-0.938156 -2.82412,-1.831676 -0.76961,-0.715935 -0.83799,-0.847 -0.83799,-1.606346 v -0.826805 l -1.0554,-0.196274 c -2.33923,-0.435025 -4.89323,-1.974746 -7.20612,-4.344322 -0.79278,-0.812217 -1.44142,-1.55808 -1.44142,-1.657473 0,-0.206259 0.92807,-0.565415 1.48176,-0.57343 0.69538,-0.0101 -0.13009,-0.330744 -1.93811,-0.752916 l -1.71272,-0.399922 1.09616,-0.991969 c 0.60289,-0.545583 1.61905,-1.268002 2.25814,-1.605372 l 1.16197,-0.6134 -0.7312,-0.417682 c -0.40216,-0.229726 -0.73181,-0.465472 -0.73256,-0.523879 -0.002,-0.177402 2.29211,-1.160803 3.79161,-1.625134 0.77624,-0.240368 2.0248,-0.535313 2.77458,-0.655436 1.71351,-0.274521 5.4735,-0.129317 6.92837,0.267562 2.68908,0.733564 5.74455,2.693525 8.99562,5.770328 l 1.67658,1.586709 0.82583,-0.281387 c 1.28664,-0.438405 1.54083,-0.371325 2.89205,0.763205 1.98238,1.664485 4.76427,3.427918 7.30924,4.633313 1.51287,0.716549 1.52061,0.749311 0.88343,3.737966 -0.25511,1.196574 -0.43917,2.558941 -0.40901,3.027483 l 0.0548,0.851894 1.58776,0.705272 c 0.87326,0.387899 2.45232,0.999855 3.509,1.3599 1.58966,0.541642 1.86355,0.685512 1.5869,0.833571 -0.71729,0.383877 -2.56368,0.565648 -5.74576,0.565648 -2.69108,0 -3.31953,0.0457 -3.31953,0.241392 0,0.132765 -0.59751,1.175937 -1.3278,2.318159 -0.73029,1.142222 -1.30585,2.090683 -1.27902,2.107692 0.0268,0.01701 0.84265,0.257356 1.81294,0.534105 0.9703,0.27675 1.79324,0.52555 1.82877,0.55289 0.0355,0.02734 -0.29133,0.430811 -0.72634,0.896602 -1.1222,1.201581 -3.13123,3.537165 -3.13123,3.640178 0,0.0477 0.61909,0.443811 1.37576,0.880256 0.75667,0.436445 1.71683,1.078494 2.1337,1.426778 0.41687,0.348284 0.80589,0.633243 0.8645,0.633243 0.0586,0 3.12737,-3.000926 6.81948,-6.668723 9.1531,-9.092845 12.54844,-12.173741 14.47527,-13.134718 1.8979,-0.946543 5.90461,-2.045883 10.40863,-2.855859 1.35841,-0.244289 2.68816,-0.483491 2.95499,-0.531561 0.26682,-0.04807 0.48514,-0.0486 0.48514,-0.0012 0,0.222477 -2.46732,5.5605 -3.6255,7.843743 -2.44462,4.819303 -4.62204,8.176885 -6.10785,9.41828 -0.41991,0.350836 -1.91886,1.372136 -3.331,2.269555 -2.90315,1.844957 -15.01832,10.189016 -18.64584,12.841909 l -0.37244,0.27237 0.49617,2.446793 0.49616,2.446792 -0.40611,1.514852 c -2.32244,8.663121 -5.88753,20.145571 -7.30143,23.516481 -0.68876,1.64207 -2.03852,3.8993 -3.19405,5.34143 -0.96968,1.21019 -2.74069,2.95671 -2.59556,2.55967 0.0532,-0.14555 0.62723,-1.61422 1.27563,-3.26372 2.64199,-6.72112 5.06796,-13.91855 6.35042,-18.84058 0.43772,-1.67997 0.79186,-3.12953 0.78698,-3.22124 -0.005,-0.0917 -0.34958,0.7859 -0.76598,1.95025 -2.20752,6.17281 -6.95702,16.03383 -11.89584,24.69842 -0.8296,1.45544 -1.71539,2.9734 -1.96842,3.37324 l -0.46005,0.72698 z m -28.74827,-8.27155 c 4.02154,-2.00687 6.91438,-3.89324 8.86413,-5.78014 1.48842,-1.44044 1.94001,-2.29474 1.5257,-2.88625 -0.37374,-0.53358 -1.0934,-0.48492 -2.5979,0.17567 -2.40202,1.05466 -5.33053,1.93473 -7.28534,2.18938 l -0.90474,0.11786 -0.48154,1.8766 c -0.55391,2.15871 -1.284,4.09643 -1.92751,5.11582 l -0.44709,0.70823 0.65685,-0.27438 c 0.36127,-0.1509 1.53012,-0.71016 2.59744,-1.24279 z m -1.80074,-10.4617 c 1.69199,-0.16045 3.68962,-0.52322 4.41597,-0.80195 0.21754,-0.0835 0.24178,-0.76311 0.16216,-4.54599 -0.17757,-8.436953 1.00923,-19.832466 2.61933,-25.150557 0.18807,-0.621202 0.31547,-1.155933 0.28312,-1.188291 -0.0324,-0.03235 -0.28168,0.515592 -0.55403,1.217667 -2.81635,7.25985 -7.00578,16.285201 -9.88708,21.299861 -1.92141,3.34404 -3.31298,5.32978 -4.89379,6.98332 l -1.36345,1.42617 1.62808,0.31842 c 1.42409,0.27852 3.4508,0.5128 5.15642,0.59607 0.29109,0.0142 1.38606,-0.0554 2.43327,-0.15472 z m 30.0559,-3.43254 c 1.62774,-0.80448 3.36989,-2.19198 4.29027,-3.41691 0.84631,-1.12635 0.95485,-1.64067 0.13587,-0.64382 -1.55949,1.89819 -3.88028,3.51072 -5.58286,3.87908 -0.57028,0.12338 -0.59272,0.10959 -0.46676,-0.28699 0.37126,-1.16887 0.31915,-1.54329 -0.41457,-2.97892 -0.90614,-1.77301 -1.43184,-3.31408 -1.42593,-4.18008 0.004,-0.63192 0.0253,-0.60661 0.39694,0.47958 0.72621,2.1223 2.31373,4.23402 3.18299,4.23402 0.73133,0 1.76666,-1.40925 2.32042,-3.15845 l 0.13422,-0.42398 -0.63793,0.39426 -0.63793,0.39427 v -3.05248 -3.052466 l 1.00888,-1.019515 c 0.55488,-0.560733 0.93197,-1.0174 0.83798,-1.014813 -0.094,0.0026 -0.63654,0.356336 -1.20566,0.786114 -0.89021,0.672256 -1.06949,0.74668 -1.2834,0.532776 -0.13675,-0.13675 -0.60665,-0.542006 -1.04423,-0.90057 l -0.7956,-0.651931 0.38125,-0.405819 c 0.43904,-0.467341 1.73797,-0.954809 2.52915,-0.949152 0.29806,0.0021 0.89114,0.162317 1.31797,0.355969 1.0132,0.459695 1.07318,0.360586 0.14572,-0.24079 -2.1155,-1.371712 -4.80837,-0.95562 -6.63411,1.025075 -0.99284,1.07711 -1.5698,2.37422 -1.81663,4.084097 -0.3232,2.239035 0.20973,4.193335 2.01403,7.385605 0.30728,0.54367 0.40399,1.00942 0.42126,2.0288 0.0123,0.72772 0.0322,1.39312 0.0441,1.47867 0.0428,0.30678 1.51269,-0.053 2.78456,-0.68163 z m -1.0208,-11.706097 c -1.26608,-0.608242 -1.33438,-0.670057 -1.16061,-1.050495 0.21784,-0.476934 0.355,-0.441075 1.75453,0.458709 0.59593,0.383134 1.01349,0.778267 1.0144,0.959913 0.002,0.399321 -0.0225,0.393705 -1.60832,-0.368127 z m -3.85907,9.525627 c 0,-0.0469 -0.23279,-0.44942 -0.5173,-0.89455 -0.76322,-1.19405 -1.42716,-3.35524 -1.54537,-5.03028 -0.24197,-3.428693 1.3486,-6.899715 3.91505,-8.543646 0.38812,-0.248608 0.73495,-0.471367 0.77074,-0.495021 0.0358,-0.02365 -0.22777,-0.384201 -0.58569,-0.801216 l -0.65076,-0.758208 0.85031,-0.08821 0.85032,-0.08821 -0.59968,-0.22052 c -2.23713,-0.822663 -6.12137,0.539762 -8.35901,2.931985 -0.82463,0.881597 -1.30572,2.068135 -2.05925,5.078806 l -0.36022,1.43925 1.19044,1.14057 c 0.65474,0.62732 1.80791,1.67767 2.56259,2.33411 0.75468,0.65645 1.35009,1.21379 1.32313,1.23854 -0.027,0.0248 -0.56504,-0.064 -1.19573,-0.19723 -0.63069,-0.13323 -1.36527,-0.24389 -1.6324,-0.24591 -0.44995,-0.003 -0.38695,0.0904 0.85662,1.27534 0.73826,0.70347 1.52742,1.37821 1.7537,1.49942 0.61478,0.32934 3.43251,0.6782 3.43251,0.42498 z m -8.29161,-3.46804 c -0.62509,-0.63069 -1.08447,-1.14671 -1.02084,-1.14671 0.0636,0 0.68842,0.12047 1.38843,0.26773 0.70002,0.14725 1.29991,0.24058 1.33309,0.20739 0.0427,-0.0427 -2.9462,-2.12471 -3.59455,-2.50384 -0.0228,-0.0134 0.0748,-0.69361 0.21698,-1.511717 0.38395,-2.209511 1.42973,-5.294767 2.12952,-6.282479 1.12594,-1.589209 3.58777,-3.288199 5.94855,-4.105292 l 0.92013,-0.318469 -0.68159,-0.133164 c -0.37488,-0.07324 -1.64509,-0.09521 -2.82268,-0.0488 l -2.14108,0.08435 1.0585,-0.495645 c 1.36142,-0.637483 4.04145,-1.108225 5.55715,-0.976097 1.14612,0.09991 1.1465,0.09979 0.74217,-0.235739 -0.2225,-0.184633 -0.77821,-0.385988 -1.23492,-0.447452 -0.45671,-0.06146 -0.90781,-0.13132 -1.00245,-0.155234 -0.0946,-0.02391 0.26261,-0.32208 0.79388,-0.66259 1.59653,-1.023275 1.63017,-1.124071 0.66636,-1.996663 -0.9299,-0.841895 -2.00416,-1.150694 -4.00306,-1.150694 h -1.15649 l 0.35815,-0.358153 c 0.46558,-0.465576 3.15308,-1.620342 5.05284,-2.171101 1.87502,-0.543586 2.41489,-0.822835 3.10056,-1.60377 0.91599,-1.04326 0.95497,-2.321659 0.13252,-4.345737 -0.2326,-0.572415 -0.70212,-1.457345 -1.04339,-1.966512 -0.34126,-0.509167 -0.58991,-0.956324 -0.55255,-0.993685 0.13865,-0.138658 1.97618,0.388263 3.07742,0.882471 l 1.13807,0.510734 -0.4324,-0.462367 c -0.23782,-0.254302 -1.14689,-0.809355 -2.02016,-1.233451 -2.61427,-1.269606 -5.67414,-1.62991 -8.24911,-0.971343 -2.2767,0.582282 -3.47449,1.343872 -4.70281,2.990201 -0.64655,0.866566 -1.44097,2.751251 -1.68148,3.98915 l -0.10282,0.529251 0.35763,-0.441042 c 0.1967,-0.242574 0.59975,-0.739241 0.89566,-1.103705 0.84965,-1.046468 1.4092,-1.253836 3.06709,-1.136667 2.0593,0.14554 2.26646,0.268592 1.2169,0.72283 -3.08942,1.337067 -5.98973,3.528856 -6.75128,5.101998 -0.50904,1.051539 -0.46268,1.753896 0.20499,3.105459 0.51494,1.042418 0.57335,1.318142 0.57335,2.706649 v 1.545997 l 0.33883,-0.487492 c 0.47622,-0.685188 2.24491,-2.372991 2.36298,-2.254921 0.23253,0.232534 -1.65417,3.46578 -2.88078,4.936804 -0.76332,0.915421 -1.36152,1.809132 -1.42016,2.121753 -0.10849,0.578276 0.52464,2.55944 0.81793,2.55944 0.0901,0 0.16374,-0.09053 0.16374,-0.201199 0,-0.512417 0.8616,-1.847853 1.48361,-2.299518 0.37936,-0.275464 0.71998,-0.470599 0.75695,-0.433635 0.037,0.03697 -0.0902,0.335222 -0.28266,0.662796 -0.19243,0.327575 -0.60231,1.349774 -0.91085,2.271556 -1.45288,4.340571 -0.55912,7.821034 2.5398,9.890414 0.57212,0.38204 1.1281,0.69462 1.23553,0.69462 0.10742,0 -0.31611,-0.51602 -0.9412,-1.14671 z m 19.5063,-6.548482 c 1.36512,-1.152781 4.13687,-3.524946 6.15945,-5.271479 2.02258,-1.746531 4.20026,-3.607071 4.83928,-4.134534 0.63903,-0.527464 1.20156,-1.005087 1.25007,-1.061384 0.0485,-0.0563 0.83529,-0.736165 1.74838,-1.510818 0.9131,-0.774651 2.62006,-2.24203 3.79325,-3.260839 1.1732,-1.01881 2.60928,-2.249184 3.19131,-2.734166 0.58202,-0.484981 1.29638,-1.089893 1.58747,-1.344248 0.29109,-0.254357 0.93415,-0.810207 1.42903,-1.235224 0.49487,-0.425017 2.16202,-1.858294 3.70476,-3.185059 1.54274,-1.326766 3.79608,-3.262095 5.00741,-4.300733 3.33446,-2.85907 9.35957,-8.771024 8.82365,-8.657929 -4.13812,0.873263 -7.35079,1.914 -8.73265,2.828922 -1.66657,1.103429 -5.52652,4.810435 -25.80102,24.778686 l -10.45272,10.294831 v 0.895956 0.89596 l 0.48514,-0.45099 c 0.26684,-0.24804 1.60207,-1.394171 2.96719,-2.546952 z m 4.52277,-18.445318 c -0.47645,-1.001895 -1.14456,-2.229601 -1.48469,-2.728234 l -0.61842,-0.906605 1.24183,0.673836 1.24184,0.673836 1.59983,-1.430395 c 0.87991,-0.786717 1.62407,-1.48902 1.6537,-1.560672 0.0296,-0.07165 -0.39006,-0.229623 -0.93263,-0.351045 l -0.9865,-0.220767 -0.67491,0.659041 c -0.38263,0.373626 -0.77046,0.977903 -0.89552,1.395314 l -0.22059,0.736273 -0.49465,-0.97823 c -0.46221,-0.914078 -0.58566,-1.020936 -1.88238,-1.629451 -1.35245,-0.634668 -1.40224,-0.680663 -1.9589,-1.809495 l -0.57117,-1.158275 -0.97085,0.829423 -0.97085,0.829424 1.91207,1.959736 c 1.90868,1.956265 4.32841,4.88167 5.2717,6.373393 0.80225,1.268671 0.67662,0.61018 -0.25891,-1.357107 z m 0.40923,-7.4941 c 0.2426,-0.548576 0.41379,-1.024718 0.38042,-1.058092 -0.0334,-0.03337 -0.55652,-0.1125 -1.16254,-0.175847 l -1.10187,-0.115162 0.45102,-0.451016 0.45101,-0.451014 1.23003,0.36223 c 1.10557,0.325578 1.24093,0.333837 1.33771,0.08162 0.14102,-0.367486 -0.69354,-1.038856 -1.47534,-1.18685 -0.32489,-0.0615 -1.02075,-0.06744 -1.54636,-0.01319 -1.08239,0.111715 -1.10046,-0.05545 -0.0632,-0.584625 0.93265,-0.475802 2.637,-0.493156 2.75862,-0.02809 0.091,0.348157 0.92194,0.912698 1.34331,0.912698 0.32183,0 0.44847,-0.604664 0.59502,-2.840962 0.0906,-1.383148 0.17007,-1.742479 0.39611,-1.79212 0.30026,-0.06594 -1.74141,-1.194174 -2.13798,-1.181453 -0.12405,0.0039 0.1317,0.331212 0.56833,0.727183 l 0.79388,0.719948 -0.75588,-0.12626 c -0.51118,-0.08539 -0.84151,-0.05519 -1.02041,0.09328 -0.21116,0.175249 -0.34871,0.174502 -0.68168,-0.0037 -0.22943,-0.122786 -0.74112,-0.19235 -1.13709,-0.154588 -0.78818,0.07517 -0.90358,-0.04538 -0.90358,-0.943826 0,-0.568833 0.009,-0.570234 1.32313,-0.204257 0.33756,0.09402 0.33629,0.08113 -0.0294,-0.297486 -0.26676,-0.276207 -0.6608,-0.422522 -1.30444,-0.484367 -0.90916,-0.08736 -0.91498,-0.09163 -0.41166,-0.301173 l 0.51056,-0.212558 -0.55906,-0.126267 c -0.41268,-0.09321 -0.75913,-0.02483 -1.32313,0.261145 -0.42024,0.213076 -0.8165,0.469163 -0.88059,0.569082 -0.0641,0.09992 -0.17158,0.803745 -0.23888,1.564056 -0.11427,1.290925 -0.14931,1.382386 -0.52954,1.382386 -0.33541,0 -0.42755,-0.120563 -0.52275,-0.684064 l -0.11557,-0.684062 -0.91433,0.205488 c -0.82928,0.186374 -0.91369,0.250006 -0.90738,0.684063 0.007,0.470497 -0.0118,0.478575 -1.10261,0.478575 -2.12354,0 -1.08684,0.290953 2.46289,0.691216 1.96485,0.221554 3.80091,0.456902 4.08014,0.522996 l 0.50769,0.120171 -1.35893,1.269088 c -1.46644,1.369491 -1.43529,1.271839 -0.85137,2.669371 l 0.26261,0.628518 0.33695,-0.613151 0.33696,-0.613151 -0.0472,0.855982 -0.0472,0.855984 0.79387,0.316541 c 0.43664,0.174097 1.0132,0.324772 1.28125,0.334834 0.42857,0.01608 0.5406,-0.102053 0.92848,-0.979122 z m 2.63511,-10.862604 c -3.88831,-4.095696 -5.24444,-5.492081 -7.54665,-7.770667 -3.21157,-3.178613 -5.04746,-4.589678 -7.7281,-5.939824 -2.8025,-1.411517 -4.66394,-1.841025 -7.5084,-1.732486 -1.51186,0.05769 -2.42169,0.188958 -3.30965,0.477507 l -1.2246,0.397947 1.0238,0.626183 1.0238,0.626183 -1.25617,0.319006 c -1.3128,0.33339 -2.62082,0.856201 -3.37012,1.347026 -0.43349,0.283951 -0.40986,0.29441 1.3788,0.610338 2.15151,0.380018 3.70304,0.872101 4.7958,1.521035 l 0.79388,0.47144 -1.71424,0.112321 c -1.77647,0.116399 -4.19574,0.61393 -4.19574,0.862866 0,0.216318 1.5637,1.560564 2.55805,2.199049 0.99206,0.637012 2.85151,1.403863 3.81502,1.573344 l 0.63951,0.112488 0.40448,-0.996569 c 0.56487,-1.391752 1.91014,-2.726666 3.14413,-3.119942 2.21728,-0.706648 4.81579,-0.11979 8.49711,1.919018 1.68481,0.93309 3.53991,2.214591 7.4925,5.175798 1.16436,0.872313 2.27578,1.704902 2.46984,1.850196 0.74585,0.558429 0.65534,0.240839 -0.18305,-0.642261 z"
         id="path1-7" /><circle
         style="fill:#ffffff;stroke-width:7.6"
         id="path7"
         cx="172.80428"
         cy="88.564552"
         r="47.196819" /><path
         style="fill:#ffffff;fill-opacity:1;stroke-width:0.600001"
         d="m 132.67461,115.8354 c 0,0 11.96648,0.13296 12.09944,0.6648 0.13296,0.53185 -3.72291,11.30168 -3.72291,11.30168 l 25.12962,-10.50391 10.10503,7.17989 11.43464,-26.193302 11.83352,-12.89721 21.53967,-17.816762 4.52067,-7.445812 -10.37096,1.595531 -24.06592,22.736319 -3.85587,-6.382127 3.85587,-3.988827 -2.92514,-1.462569 3.32402,-6.249164 -0.93072,-7.844694 -9.70615,-6.913967 -8.90838,-6.382123 -11.70056,0.930726 0.39888,1.46257 -3.58995,2.393296 4.7866,1.46257 -3.19106,1.063687 3.19106,3.191062 7.44581,2.92514 5.71732,5.71732 -9.1743,4.121787 -11.5676,6.781006 c 0,0 -9.17431,17.28492 -9.44023,17.949725 -0.26592,0.664806 -12.2324,22.603358 -12.2324,22.603358 z"
         id="path2" /><path
         style="fill:#602d89;fill-opacity:1;stroke-width:1.18859"
         d="m 175.80495,132.32016 c -1.86642,-2.30204 -6.24565,-5.97518 -9.46672,-7.94036 -0.75526,-0.46079 -0.7682,-0.37174 0.38832,-2.67196 0.40074,-0.79703 0.69648,-1.48129 0.65719,-1.52058 -0.0393,-0.0393 -1.09619,0.39371 -2.34868,0.96221 -7.65188,3.47317 -16.98057,6.65622 -22.77653,7.77161 -1.7756,0.3417 -4.28734,0.62974 -4.28734,0.49167 0,-0.0426 0.28309,-0.54362 0.62909,-1.11329 1.16525,-1.91857 2.85477,-5.60825 3.49675,-7.63645 0.78722,-2.48705 0.79071,-2.55958 0.11682,-2.4248 -1.09437,0.21888 -6.26018,-0.40505 -12.391,-1.49659 l -3.20845,-0.57123 0.69461,-0.53975 c 1.26037,-0.97938 3.79941,-3.51533 4.9562,-4.95018 3.12781,-3.87963 5.57693,-8.02269 11.26298,-19.053063 8.49409,-16.477715 13.37247,-22.242677 20.31169,-24.003113 0.97036,-0.246176 1.98791,-0.645804 2.55805,-1.004644 0.5207,-0.327723 1.24643,-0.734259 1.61272,-0.903413 1.9911,-0.919477 1.95993,-0.844148 0.30431,-0.735572 -0.82476,0.05409 -1.69802,0.149059 -1.94059,0.211046 l -0.44105,0.112702 0.47616,-0.384262 c 0.61031,-0.492526 2.04954,-1.127732 3.67126,-1.620314 l 1.27773,-0.388099 -0.61633,-0.211885 c -0.88764,-0.305152 -1.86361,-0.938156 -2.82412,-1.831676 -0.76961,-0.715935 -0.83799,-0.847 -0.83799,-1.606346 v -0.826805 l -1.0554,-0.196274 c -2.33923,-0.435025 -4.89323,-1.974746 -7.20612,-4.344322 -0.79278,-0.812217 -1.44142,-1.55808 -1.44142,-1.657473 0,-0.206259 0.92807,-0.565415 1.48176,-0.57343 0.69538,-0.0101 -0.13009,-0.330744 -1.93811,-0.752916 l -1.71272,-0.399922 1.09616,-0.991969 c 0.60289,-0.545583 1.61905,-1.268002 2.25814,-1.605372 l 1.16197,-0.6134 -0.7312,-0.417682 c -0.40216,-0.229726 -0.73181,-0.465472 -0.73256,-0.523879 -0.002,-0.177402 2.29211,-1.160803 3.79161,-1.625134 0.77624,-0.240368 2.0248,-0.535313 2.77458,-0.655436 1.71351,-0.274521 5.4735,-0.129317 6.92837,0.267562 2.68908,0.733564 5.74455,2.693525 8.99562,5.770328 l 1.67658,1.586709 0.82583,-0.281387 c 1.28664,-0.438405 1.54083,-0.371325 2.89205,0.763205 1.98238,1.664485 4.76427,3.427918 7.30924,4.633313 1.51287,0.716549 1.52061,0.749311 0.88343,3.737966 -0.25511,1.196574 -0.43917,2.558941 -0.40901,3.027483 l 0.0548,0.851894 1.58776,0.705272 c 0.87326,0.387899 2.45232,0.999855 3.509,1.3599 1.58966,0.541642 1.86355,0.685512 1.5869,0.833571 -0.71729,0.383877 -2.56368,0.565648 -5.74576,0.565648 -2.69108,0 -3.31953,0.0457 -3.31953,0.241392 0,0.132765 -0.59751,1.175937 -1.3278,2.318159 -0.73029,1.142222 -1.30585,2.090683 -1.27902,2.107692 0.0268,0.01701 0.84265,0.257356 1.81294,0.534105 0.9703,0.27675 1.79324,0.52555 1.82877,0.55289 0.0355,0.02734 -0.29133,0.430811 -0.72634,0.896602 -1.1222,1.201581 -3.13123,3.537165 -3.13123,3.640178 0,0.0477 0.61909,0.443811 1.37576,0.880256 0.75667,0.436445 1.71683,1.078494 2.1337,1.426778 0.41687,0.348284 0.80589,0.633243 0.8645,0.633243 0.0586,0 3.12737,-3.000926 6.81948,-6.668723 9.1531,-9.092845 12.54844,-12.173741 14.47527,-13.134718 1.8979,-0.946543 5.90461,-2.045883 10.40863,-2.855859 1.35841,-0.244289 2.68816,-0.483491 2.95499,-0.531561 0.26682,-0.04807 0.48514,-0.0486 0.48514,-0.0012 0,0.222477 -2.46732,5.5605 -3.6255,7.843743 -2.44462,4.819303 -4.62204,8.176885 -6.10785,9.41828 -0.41991,0.350836 -1.91886,1.372136 -3.331,2.269555 -2.90315,1.844957 -15.01832,10.189016 -18.64584,12.841909 l -0.37244,0.27237 0.49617,2.446793 0.49616,2.446792 -0.40611,1.514852 c -2.32244,8.663121 -5.88753,20.145571 -7.30143,23.516481 -0.68876,1.64207 -2.03852,3.8993 -3.19405,5.34143 -0.96968,1.21019 -2.74069,2.95671 -2.59556,2.55967 0.0532,-0.14555 0.62723,-1.61422 1.27563,-3.26372 2.64199,-6.72112 5.06796,-13.91855 6.35042,-18.84058 0.43772,-1.67997 0.79186,-3.12953 0.78698,-3.22124 -0.005,-0.0917 -0.34958,0.7859 -0.76598,1.95025 -2.20752,6.17281 -6.95702,16.03383 -11.89584,24.69842 -0.8296,1.45544 -1.71539,2.9734 -1.96842,3.37324 l -0.46005,0.72698 z m -28.74827,-8.27155 c 4.02154,-2.00687 6.91438,-3.89324 8.86413,-5.78014 1.48842,-1.44044 1.94001,-2.29474 1.5257,-2.88625 -0.37374,-0.53358 -1.0934,-0.48492 -2.5979,0.17567 -2.40202,1.05466 -5.33053,1.93473 -7.28534,2.18938 l -0.90474,0.11786 -0.48154,1.8766 c -0.55391,2.15871 -1.284,4.09643 -1.92751,5.11582 l -0.44709,0.70823 0.65685,-0.27438 c 0.36127,-0.1509 1.53012,-0.71016 2.59744,-1.24279 z m -1.80074,-10.4617 c 1.69199,-0.16045 3.68962,-0.52322 4.41597,-0.80195 0.21754,-0.0835 0.24178,-0.76311 0.16216,-4.54599 -0.17757,-8.436953 1.00923,-19.832466 2.61933,-25.150557 0.18807,-0.621202 0.31547,-1.155933 0.28312,-1.188291 -0.0324,-0.03235 -0.28168,0.515592 -0.55403,1.217667 -2.81635,7.25985 -7.00578,16.285201 -9.88708,21.299861 -1.92141,3.34404 -3.31298,5.32978 -4.89379,6.98332 l -1.36345,1.42617 1.62808,0.31842 c 1.42409,0.27852 3.4508,0.5128 5.15642,0.59607 0.29109,0.0142 1.38606,-0.0554 2.43327,-0.15472 z m 30.0559,-3.43254 c 1.62774,-0.80448 3.36989,-2.19198 4.29027,-3.41691 0.84631,-1.12635 0.95485,-1.64067 0.13587,-0.64382 -1.55949,1.89819 -3.88028,3.51072 -5.58286,3.87908 -0.57028,0.12338 -0.59272,0.10959 -0.46676,-0.28699 0.37126,-1.16887 0.31915,-1.54329 -0.41457,-2.97892 -0.90614,-1.77301 -1.43184,-3.31408 -1.42593,-4.18008 0.004,-0.63192 0.0253,-0.60661 0.39694,0.47958 0.72621,2.1223 2.31373,4.23402 3.18299,4.23402 0.73133,0 1.76666,-1.40925 2.32042,-3.15845 l 0.13422,-0.42398 -0.63793,0.39426 -0.63793,0.39427 v -3.05248 -3.052466 l 1.00888,-1.019515 c 0.55488,-0.560733 0.93197,-1.0174 0.83798,-1.014813 -0.094,0.0026 -0.63654,0.356336 -1.20566,0.786114 -0.89021,0.672256 -1.06949,0.74668 -1.2834,0.532776 -0.13675,-0.13675 -0.60665,-0.542006 -1.04423,-0.90057 l -0.7956,-0.651931 0.38125,-0.405819 c 0.43904,-0.467341 1.73797,-0.954809 2.52915,-0.949152 0.29806,0.0021 0.89114,0.162317 1.31797,0.355969 1.0132,0.459695 1.07318,0.360586 0.14572,-0.24079 -2.1155,-1.371712 -4.80837,-0.95562 -6.63411,1.025075 -0.99284,1.07711 -1.5698,2.37422 -1.81663,4.084097 -0.3232,2.239035 0.20973,4.193335 2.01403,7.385605 0.30728,0.54367 0.40399,1.00942 0.42126,2.0288 0.0123,0.72772 0.0322,1.39312 0.0441,1.47867 0.0428,0.30678 1.51269,-0.053 2.78456,-0.68163 z m -1.0208,-11.706097 c -1.26608,-0.608242 -1.33438,-0.670057 -1.16061,-1.050495 0.21784,-0.476934 0.355,-0.441075 1.75453,0.458709 0.59593,0.383134 1.01349,0.778267 1.0144,0.959913 0.002,0.399321 -0.0225,0.393705 -1.60832,-0.368127 z m -3.85907,9.525627 c 0,-0.0469 -0.23279,-0.44942 -0.5173,-0.89455 -0.76322,-1.19405 -1.42716,-3.35524 -1.54537,-5.03028 -0.24197,-3.428693 1.3486,-6.899715 3.91505,-8.543646 0.38812,-0.248608 0.73495,-0.471367 0.77074,-0.495021 0.0358,-0.02365 -0.22777,-0.384201 -0.58569,-0.801216 l -0.65076,-0.758208 0.85031,-0.08821 0.85032,-0.08821 -0.59968,-0.22052 c -2.23713,-0.822663 -6.12137,0.539762 -8.35901,2.931985 -0.82463,0.881597 -1.30572,2.068135 -2.05925,5.078806 l -0.36022,1.43925 1.19044,1.14057 c 0.65474,0.62732 1.80791,1.67767 2.56259,2.33411 0.75468,0.65645 1.35009,1.21379 1.32313,1.23854 -0.027,0.0248 -0.56504,-0.064 -1.19573,-0.19723 -0.63069,-0.13323 -1.36527,-0.24389 -1.6324,-0.24591 -0.44995,-0.003 -0.38695,0.0904 0.85662,1.27534 0.73826,0.70347 1.52742,1.37821 1.7537,1.49942 0.61478,0.32934 3.43251,0.6782 3.43251,0.42498 z m -8.29161,-3.46804 c -0.62509,-0.63069 -1.08447,-1.14671 -1.02084,-1.14671 0.0636,0 0.68842,0.12047 1.38843,0.26773 0.70002,0.14725 1.29991,0.24058 1.33309,0.20739 0.0427,-0.0427 -2.9462,-2.12471 -3.59455,-2.50384 -0.0228,-0.0134 0.0748,-0.69361 0.21698,-1.511717 0.38395,-2.209511 1.42973,-5.294767 2.12952,-6.282479 1.12594,-1.589209 3.58777,-3.288199 5.94855,-4.105292 l 0.92013,-0.318469 -0.68159,-0.133164 c -0.37488,-0.07324 -1.64509,-0.09521 -2.82268,-0.0488 l -2.14108,0.08435 1.0585,-0.495645 c 1.36142,-0.637483 4.04145,-1.108225 5.55715,-0.976097 1.14612,0.09991 1.1465,0.09979 0.74217,-0.235739 -0.2225,-0.184633 -0.77821,-0.385988 -1.23492,-0.447452 -0.45671,-0.06146 -0.90781,-0.13132 -1.00245,-0.155234 -0.0946,-0.02391 0.26261,-0.32208 0.79388,-0.66259 1.59653,-1.023275 1.63017,-1.124071 0.66636,-1.996663 -0.9299,-0.841895 -2.00416,-1.150694 -4.00306,-1.150694 h -1.15649 l 0.35815,-0.358153 c 0.46558,-0.465576 3.15308,-1.620342 5.05284,-2.171101 1.87502,-0.543586 2.41489,-0.822835 3.10056,-1.60377 0.91599,-1.04326 0.95497,-2.321659 0.13252,-4.345737 -0.2326,-0.572415 -0.70212,-1.457345 -1.04339,-1.966512 -0.34126,-0.509167 -0.58991,-0.956324 -0.55255,-0.993685 0.13865,-0.138658 1.97618,0.388263 3.07742,0.882471 l 1.13807,0.510734 -0.4324,-0.462367 c -0.23782,-0.254302 -1.14689,-0.809355 -2.02016,-1.233451 -2.61427,-1.269606 -5.67414,-1.62991 -8.24911,-0.971343 -2.2767,0.582282 -3.47449,1.343872 -4.70281,2.990201 -0.64655,0.866566 -1.44097,2.751251 -1.68148,3.98915 l -0.10282,0.529251 0.35763,-0.441042 c 0.1967,-0.242574 0.59975,-0.739241 0.89566,-1.103705 0.84965,-1.046468 1.4092,-1.253836 3.06709,-1.136667 2.0593,0.14554 2.26646,0.268592 1.2169,0.72283 -3.08942,1.337067 -5.98973,3.528856 -6.75128,5.101998 -0.50904,1.051539 -0.46268,1.753896 0.20499,3.105459 0.51494,1.042418 0.57335,1.318142 0.57335,2.706649 v 1.545997 l 0.33883,-0.487492 c 0.47622,-0.685188 2.24491,-2.372991 2.36298,-2.254921 0.23253,0.232534 -1.65417,3.46578 -2.88078,4.936804 -0.76332,0.915421 -1.36152,1.809132 -1.42016,2.121753 -0.10849,0.578276 0.52464,2.55944 0.81793,2.55944 0.0901,0 0.16374,-0.09053 0.16374,-0.201199 0,-0.512417 0.8616,-1.847853 1.48361,-2.299518 0.37936,-0.275464 0.71998,-0.470599 0.75695,-0.433635 0.037,0.03697 -0.0902,0.335222 -0.28266,0.662796 -0.19243,0.327575 -0.60231,1.349774 -0.91085,2.271556 -1.45288,4.340571 -0.55912,7.821034 2.5398,9.890414 0.57212,0.38204 1.1281,0.69462 1.23553,0.69462 0.10742,0 -0.31611,-0.51602 -0.9412,-1.14671 z m 19.5063,-6.548482 c 1.36512,-1.152781 4.13687,-3.524946 6.15945,-5.271479 2.02258,-1.746531 4.20026,-3.607071 4.83928,-4.134534 0.63903,-0.527464 1.20156,-1.005087 1.25007,-1.061384 0.0485,-0.0563 0.83529,-0.736165 1.74838,-1.510818 0.9131,-0.774651 2.62006,-2.24203 3.79325,-3.260839 1.1732,-1.01881 2.60928,-2.249184 3.19131,-2.734166 0.58202,-0.484981 1.29638,-1.089893 1.58747,-1.344248 0.29109,-0.254357 0.93415,-0.810207 1.42903,-1.235224 0.49487,-0.425017 2.16202,-1.858294 3.70476,-3.185059 1.54274,-1.326766 3.79608,-3.262095 5.00741,-4.300733 3.33446,-2.85907 9.35957,-8.771024 8.82365,-8.657929 -4.13812,0.873263 -7.35079,1.914 -8.73265,2.828922 -1.66657,1.103429 -5.52652,4.810435 -25.80102,24.778686 l -10.45272,10.294831 v 0.895956 0.89596 l 0.48514,-0.45099 c 0.26684,-0.24804 1.60207,-1.394171 2.96719,-2.546952 z m 4.52277,-18.445318 c -0.47645,-1.001895 -1.14456,-2.229601 -1.48469,-2.728234 l -0.61842,-0.906605 1.24183,0.673836 1.24184,0.673836 1.59983,-1.430395 c 0.87991,-0.786717 1.62407,-1.48902 1.6537,-1.560672 0.0296,-0.07165 -0.39006,-0.229623 -0.93263,-0.351045 l -0.9865,-0.220767 -0.67491,0.659041 c -0.38263,0.373626 -0.77046,0.977903 -0.89552,1.395314 l -0.22059,0.736273 -0.49465,-0.97823 c -0.46221,-0.914078 -0.58566,-1.020936 -1.88238,-1.629451 -1.35245,-0.634668 -1.40224,-0.680663 -1.9589,-1.809495 l -0.57117,-1.158275 -0.97085,0.829423 -0.97085,0.829424 1.91207,1.959736 c 1.90868,1.956265 4.32841,4.88167 5.2717,6.373393 0.80225,1.268671 0.67662,0.61018 -0.25891,-1.357107 z m 0.40923,-7.4941 c 0.2426,-0.548576 0.41379,-1.024718 0.38042,-1.058092 -0.0334,-0.03337 -0.55652,-0.1125 -1.16254,-0.175847 l -1.10187,-0.115162 0.45102,-0.451016 0.45101,-0.451014 1.23003,0.36223 c 1.10557,0.325578 1.24093,0.333837 1.33771,0.08162 0.14102,-0.367486 -0.69354,-1.038856 -1.47534,-1.18685 -0.32489,-0.0615 -1.02075,-0.06744 -1.54636,-0.01319 -1.08239,0.111715 -1.10046,-0.05545 -0.0632,-0.584625 0.93265,-0.475802 2.637,-0.493156 2.75862,-0.02809 0.091,0.348157 0.92194,0.912698 1.34331,0.912698 0.32183,0 0.44847,-0.604664 0.59502,-2.840962 0.0906,-1.383148 0.17007,-1.742479 0.39611,-1.79212 0.30026,-0.06594 -1.74141,-1.194174 -2.13798,-1.181453 -0.12405,0.0039 0.1317,0.331212 0.56833,0.727183 l 0.79388,0.719948 -0.75588,-0.12626 c -0.51118,-0.08539 -0.84151,-0.05519 -1.02041,0.09328 -0.21116,0.175249 -0.34871,0.174502 -0.68168,-0.0037 -0.22943,-0.122786 -0.74112,-0.19235 -1.13709,-0.154588 -0.78818,0.07517 -0.90358,-0.04538 -0.90358,-0.943826 0,-0.568833 0.009,-0.570234 1.32313,-0.204257 0.33756,0.09402 0.33629,0.08113 -0.0294,-0.297486 -0.26676,-0.276207 -0.6608,-0.422522 -1.30444,-0.484367 -0.90916,-0.08736 -0.91498,-0.09163 -0.41166,-0.301173 l 0.51056,-0.212558 -0.55906,-0.126267 c -0.41268,-0.09321 -0.75913,-0.02483 -1.32313,0.261145 -0.42024,0.213076 -0.8165,0.469163 -0.88059,0.569082 -0.0641,0.09992 -0.17158,0.803745 -0.23888,1.564056 -0.11427,1.290925 -0.14931,1.382386 -0.52954,1.382386 -0.33541,0 -0.42755,-0.120563 -0.52275,-0.684064 l -0.11557,-0.684062 -0.91433,0.205488 c -0.82928,0.186374 -0.91369,0.250006 -0.90738,0.684063 0.007,0.470497 -0.0118,0.478575 -1.10261,0.478575 -2.12354,0 -1.08684,0.290953 2.46289,0.691216 1.96485,0.221554 3.80091,0.456902 4.08014,0.522996 l 0.50769,0.120171 -1.35893,1.269088 c -1.46644,1.369491 -1.43529,1.271839 -0.85137,2.669371 l 0.26261,0.628518 0.33695,-0.613151 0.33696,-0.613151 -0.0472,0.855982 -0.0472,0.855984 0.79387,0.316541 c 0.43664,0.174097 1.0132,0.324772 1.28125,0.334834 0.42857,0.01608 0.5406,-0.102053 0.92848,-0.979122 z m 2.63511,-10.862604 c -3.88831,-4.095696 -5.24444,-5.492081 -7.54665,-7.770667 -3.21157,-3.178613 -5.04746,-4.589678 -7.7281,-5.939824 -2.8025,-1.411517 -4.66394,-1.841025 -7.5084,-1.732486 -1.51186,0.05769 -2.42169,0.188958 -3.30965,0.477507 l -1.2246,0.397947 1.0238,0.626183 1.0238,0.626183 -1.25617,0.319006 c -1.3128,0.33339 -2.62082,0.856201 -3.37012,1.347026 -0.43349,0.283951 -0.40986,0.29441 1.3788,0.610338 2.15151,0.380018 3.70304,0.872101 4.7958,1.521035 l 0.79388,0.47144 -1.71424,0.112321 c -1.77647,0.116399 -4.19574,0.61393 -4.19574,0.862866 0,0.216318 1.5637,1.560564 2.55805,2.199049 0.99206,0.637012 2.85151,1.403863 3.81502,1.573344 l 0.63951,0.112488 0.40448,-0.996569 c 0.56487,-1.391752 1.91014,-2.726666 3.14413,-3.119942 2.21728,-0.706648 4.81579,-0.11979 8.49711,1.919018 1.68481,0.93309 3.53991,2.214591 7.4925,5.175798 1.16436,0.872313 2.27578,1.704902 2.46984,1.850196 0.74585,0.558429 0.65534,0.240839 -0.18305,-0.642261 z"
         id="path1" /></g></g></svg>
