<?xml version="1.0" encoding="UTF-8" standalone="no"?>
<!-- Created with Inkscape (http://www.inkscape.org/) -->

<svg
   width="105.83334mm"
   height="105.83334mm"
   viewBox="0 0 105.83333 105.83333"
   version="1.1"
   id="svg1"
   xml:space="preserve"
   inkscape:version="1.4 (e7c3feb100, 2024-10-09)"
   sodipodi:docname="massachusets.svg"
   inkscape:export-filename="../pngs/charlotte.png"
   inkscape:export-xdpi="96"
   inkscape:export-ydpi="96"
   xmlns:inkscape="http://www.inkscape.org/namespaces/inkscape"
   xmlns:sodipodi="http://sodipodi.sourceforge.net/DTD/sodipodi-0.dtd"
   xmlns="http://www.w3.org/2000/svg"
   xmlns:svg="http://www.w3.org/2000/svg"><sodipodi:namedview
     id="namedview1"
     pagecolor="#ffffff"
     bordercolor="#000000"
     borderopacity="0.25"
     inkscape:showpageshadow="2"
     inkscape:pageopacity="0.0"
     inkscape:pagecheckerboard="0"
     inkscape:deskcolor="#d1d1d1"
     inkscape:document-units="mm"
     inkscape:zoom="1.4070952"
     inkscape:cx="262.95307"
     inkscape:cy="176.96031"
     inkscape:window-width="1920"
     inkscape:window-height="1011"
     inkscape:window-x="0"
     inkscape:window-y="32"
     inkscape:window-maximized="1"
     inkscape:current-layer="layer1"
     showgrid="false"
     showguides="true" /><defs
     id="defs1" /><g
     inkscape:label="Capa 1"
     inkscape:groupmode="layer"
     id="layer1"><g
       id="g3"
       transform="translate(-0.51555245,0.9875292)"><text
         xml:space="preserve"
         style="font-size:125.333px;line-height:1;font-family:'Ranked Sports';-inkscape-font-specification:'Ranked Sports';text-align:center;letter-spacing:0px;writing-mode:lr-tb;direction:ltr;text-anchor:middle;fill:#971b2f;fill-opacity:1;stroke:#000000;stroke-width:1.806;stroke-dasharray:none"
         x="52.916672"
         y="96.856659"
         id="text1"><tspan
           sodipodi:role="line"
           id="tspan1"
           style="stroke:#000000;stroke-width:1.806;stroke-dasharray:none"
           x="52.916672"
           y="96.856659">m</tspan></text><g
         id="g2"
         transform="translate(1.3296092,-2.3932965)"><path
           style="fill:#ffffff;fill-opacity:1;stroke-width:0.600001"
           d="m 8.5094986,80.574316 c 0,0 11.9664824,0.132961 12.0994434,0.664802 0.132961,0.531844 -3.722906,11.30168 -3.722906,11.30168 l 25.129614,-10.503913 10.105028,7.179889 11.43464,-26.1933 11.833521,-12.89721 21.539669,-17.816761 4.520672,-7.445812 -10.370954,1.595531 -24.065925,22.736318 -3.855866,-6.382126 3.855866,-3.988827 -2.925138,-1.462569 3.324021,-6.249164 -0.930725,-7.844694 -9.706147,-6.913967 -8.908383,-6.3821243 -11.70056,0.9307263 0.398883,1.46257 -3.589946,2.393297 4.786593,1.46257 -3.19106,1.063687 3.19106,3.191062 7.445811,2.92514 5.717321,5.71732 -9.174303,4.121787 -11.567599,6.781006 c 0,0 -9.174304,17.28492 -9.440226,17.949725 C 20.475981,58.635764 8.5094986,80.574316 8.5094986,80.574316 Z"
           id="path2" /><path
           style="fill:#000000;fill-opacity:1;stroke-width:1.18859"
           d="m 51.639837,97.059079 c -1.866417,-2.302038 -6.245644,-5.975187 -9.466713,-7.940366 -0.755265,-0.460789 -0.768206,-0.37174 0.388319,-2.671954 0.400739,-0.797033 0.696474,-1.481294 0.657188,-1.52058 -0.03928,-0.03928 -1.09619,0.393707 -2.348676,0.962207 -7.651879,3.473169 -16.98057,6.656223 -22.776533,7.771611 -1.775598,0.3417 -4.287337,0.629743 -4.287337,0.491667 0,-0.04263 0.283087,-0.543615 0.629083,-1.11329 1.165258,-1.918572 2.85477,-5.608247 3.496751,-7.636451 0.787218,-2.487049 0.790713,-2.559572 0.116826,-2.424795 C 16.95437,83.196003 11.788558,82.572075 5.657744,81.480541 L 2.4492933,80.909306 3.1438997,80.369557 C 4.4042753,79.390174 6.9433105,76.854225 8.1001018,75.419378 11.227911,71.539747 13.677028,67.396688 19.363078,56.366313 27.857176,39.888599 32.73555,34.123637 39.67477,32.363201 c 0.970365,-0.246176 1.987911,-0.645804 2.55805,-1.004644 0.520703,-0.327723 1.246429,-0.734259 1.612724,-0.903413 1.991093,-0.919477 1.959931,-0.844148 0.304303,-0.735572 -0.824751,0.05409 -1.698016,0.149059 -1.940589,0.211046 l -0.441044,0.112702 0.476156,-0.384262 c 0.610312,-0.492526 2.049541,-1.127732 3.67126,-1.620314 l 1.27773,-0.388099 -0.616333,-0.211885 c -0.887631,-0.305152 -1.863609,-0.938156 -2.824118,-1.831676 -0.769609,-0.715935 -0.837983,-0.847 -0.837983,-1.606346 v -0.826805 l -1.055407,-0.196274 c -2.339227,-0.435025 -4.893228,-1.974746 -7.206114,-4.344322 -0.792785,-0.812217 -1.441427,-1.55808 -1.441427,-1.657473 0,-0.206259 0.928077,-0.565415 1.481768,-0.57343 0.695375,-0.0101 -0.130097,-0.330744 -1.938116,-0.752916 l -1.712723,-0.399922 1.096163,-0.99197 c 0.60289,-0.545583 1.619051,-1.268002 2.258137,-1.605372 l 1.161974,-0.6134 -0.7312,-0.417682 c -0.40216,-0.229726 -0.731811,-0.465472 -0.732558,-0.523879 -0.0023,-0.177402 2.29211,-1.1608033 3.791612,-1.6251343 0.776236,-0.240368 2.024796,-0.535313 2.774577,-0.655436 1.713512,-0.274521 5.473501,-0.129317 6.928371,0.267562 2.689081,0.733564 5.744549,2.6935253 8.995617,5.7703293 l 1.676579,1.586709 0.825828,-0.281387 c 1.286645,-0.438405 1.540832,-0.371325 2.89205,0.763205 1.982388,1.664485 4.764278,3.427918 7.309249,4.633313 1.512861,0.716549 1.520603,0.749311 0.883421,3.737966 -0.25511,1.196574 -0.439162,2.558941 -0.409003,3.027483 l 0.05483,0.851894 1.587756,0.705272 c 0.873265,0.387899 2.452318,0.999855 3.509005,1.3599 1.589653,0.541642 1.863543,0.685512 1.586892,0.833571 -0.717281,0.383877 -2.563673,0.565648 -5.745758,0.565648 -2.691078,0 -3.319528,0.0457 -3.319528,0.241392 0,0.132765 -0.597508,1.175937 -1.327797,2.318159 -0.730288,1.142222 -1.30585,2.090683 -1.279025,2.107692 0.02683,0.01701 0.84265,0.257356 1.812945,0.534105 0.970295,0.27675 1.793241,0.52555 1.828768,0.55289 0.03553,0.02734 -0.291327,0.430811 -0.726343,0.896602 -1.122193,1.201581 -3.131223,3.537165 -3.131223,3.640178 0,0.0477 0.619089,0.443811 1.375755,0.880256 0.756666,0.436445 1.716831,1.078494 2.1337,1.426778 0.416867,0.348284 0.805893,0.633243 0.8645,0.633243 0.05861,0 3.127373,-3.000926 6.819478,-6.668723 9.153105,-9.092845 12.548445,-12.173741 14.475277,-13.134718 1.897892,-0.946543 5.904606,-2.045883 10.408624,-2.855859 1.35841,-0.244289 2.68816,-0.483491 2.95499,-0.531561 0.26682,-0.04807 0.48514,-0.0486 0.48514,-0.0012 0,0.222477 -2.46732,5.5605 -3.6255,7.843743 -2.444618,4.819303 -4.622042,8.176885 -6.10785,9.41828 -0.419912,0.350836 -1.918863,1.372136 -3.331001,2.269555 -2.903144,1.844957 -15.018318,10.189016 -18.645839,12.841909 l -0.372435,0.27237 0.496162,2.446793 0.496162,2.446792 -0.406107,1.514852 c -2.322444,8.663123 -5.887533,20.145571 -7.301435,23.516483 -0.688755,1.642073 -2.038519,3.899295 -3.194046,5.341428 -0.969684,1.210195 -2.740687,2.956708 -2.595564,2.559669 0.0532,-0.145544 0.627233,-1.614218 1.275632,-3.263719 2.641991,-6.721121 5.067963,-13.918554 6.350421,-18.840578 0.437725,-1.67997 0.791865,-3.129531 0.786977,-3.221245 -0.0049,-0.09171 -0.349574,0.785901 -0.765971,1.950254 -2.207527,6.172814 -6.957026,16.033834 -11.89584,24.698418 -0.829601,1.455443 -1.715391,2.973402 -1.968421,3.373245 l -0.460054,0.72698 z M 22.891572,88.787526 c 4.021535,-2.006871 6.914375,-3.893242 8.864129,-5.780144 1.488417,-1.440436 1.940006,-2.294731 1.525696,-2.886242 -0.373735,-0.533582 -1.093397,-0.484919 -2.597895,0.175665 -2.402019,1.054662 -5.330533,1.934734 -7.285338,2.189381 l -0.904746,0.117861 -0.481532,1.876602 c -0.553918,2.158704 -1.284006,4.096424 -1.927519,5.115817 l -0.447088,0.708232 0.656852,-0.274378 c 0.361269,-0.150908 1.530118,-0.710164 2.597441,-1.242792 z M 21.090829,78.32583 c 1.691997,-0.16045 3.689626,-0.523223 4.415973,-0.801949 0.217536,-0.08348 0.241779,-0.763119 0.162162,-4.545999 -0.177571,-8.436949 1.009223,-19.832461 2.619323,-25.150553 0.188075,-0.621201 0.315479,-1.155932 0.28312,-1.18829 -0.03235,-0.03235 -0.281671,0.515592 -0.554029,1.217666 -2.816344,7.259851 -7.005777,16.285201 -9.887077,21.29986 -1.921405,3.344044 -3.312976,5.329782 -4.893788,6.98332 l -1.36345,1.426175 1.628075,0.318412 c 1.424092,0.27852 3.450804,0.512804 5.156421,0.596075 0.291089,0.01421 1.38606,-0.05541 2.43327,-0.154717 z m 30.055902,-3.432546 c 1.627741,-0.804474 3.369893,-2.191977 4.290269,-3.416904 0.846312,-1.126354 0.954853,-1.640678 0.135869,-0.64382 -1.559486,1.898189 -3.88028,3.510721 -5.582862,3.879079 -0.570275,0.12338 -0.592713,0.109588 -0.466752,-0.286994 0.371254,-1.168867 0.319145,-1.543293 -0.414573,-2.97892 -0.906145,-1.773006 -1.431843,-3.314074 -1.42593,-4.18008 0.0043,-0.631922 0.02526,-0.606611 0.396938,0.479582 0.726216,2.122305 2.313728,4.234015 3.182991,4.234015 0.731328,0 1.766661,-1.409247 2.320421,-3.158447 l 0.134222,-0.423979 -0.637931,0.394263 -0.63793,0.394263 V 66.132871 63.0804 l 1.008877,-1.019515 c 0.554882,-0.560733 0.931973,-1.0174 0.837982,-1.014813 -0.09399,0.0026 -0.636539,0.356336 -1.205659,0.786114 -0.890216,0.672256 -1.069495,0.746681 -1.283401,0.532777 -0.13675,-0.136751 -0.606655,-0.542007 -1.044234,-0.90057 l -0.795597,-0.651932 0.381246,-0.405818 c 0.439046,-0.467342 1.73797,-0.95481 2.529152,-0.949153 0.298061,0.0021 0.891147,0.162317 1.317971,0.355969 1.013199,0.459696 1.073177,0.360586 0.145718,-0.240789 -2.115492,-1.371712 -4.808364,-0.95562 -6.634105,1.025074 -0.992844,1.07711 -1.569805,2.37422 -1.816628,4.084098 -0.323207,2.239036 0.209722,4.193334 2.014023,7.385608 0.307287,0.543671 0.403995,1.009414 0.421264,2.028798 0.01233,0.727722 0.03218,1.393123 0.04411,1.478672 0.04278,0.306775 1.512694,-0.05305 2.784555,-0.681636 z M 50.125929,63.18719 c -1.266079,-0.608243 -1.334374,-0.670058 -1.160607,-1.050495 0.217843,-0.476935 0.354999,-0.441076 1.75453,0.458708 0.595931,0.383135 1.013491,0.778267 1.014399,0.959913 0.002,0.399322 -0.02255,0.393706 -1.608322,-0.368126 z m -3.85907,9.525631 c 0,-0.04688 -0.232785,-0.449425 -0.5173,-0.894552 -0.763214,-1.194055 -1.427159,-3.355244 -1.545368,-5.030282 -0.241967,-3.428694 1.348598,-6.899715 3.915049,-8.543646 0.388119,-0.248608 0.734952,-0.471367 0.770741,-0.495021 0.03579,-0.02365 -0.227771,-0.384201 -0.585689,-0.801216 l -0.650762,-0.758209 0.850316,-0.08821 0.850315,-0.08821 -0.599682,-0.220521 c -2.237128,-0.822662 -6.121366,0.539763 -8.359008,2.931985 -0.824632,0.881598 -1.305724,2.068136 -2.059245,5.078806 l -0.36022,1.439249 1.190437,1.140575 c 0.654741,0.627317 1.807904,1.677666 2.562585,2.334109 0.754681,0.656444 1.350089,1.213785 1.323129,1.238537 -0.02696,0.02475 -0.565038,-0.06401 -1.195729,-0.197231 -0.630691,-0.133229 -1.365268,-0.243889 -1.632392,-0.24591 -0.449959,-0.0034 -0.386959,0.09039 0.856614,1.275348 0.738261,0.703463 1.527424,1.3782 1.753697,1.499414 0.614783,0.329338 3.432512,0.678203 3.432512,0.424982 z m -8.291611,-3.468047 c -0.625086,-0.630692 -1.084462,-1.146712 -1.020836,-1.146712 0.06362,0 0.688421,0.120479 1.388434,0.267731 0.700014,0.147253 1.299902,0.240582 1.333085,0.207398 0.04273,-0.04273 -2.9462,-2.124712 -3.594554,-2.50384 -0.02282,-0.01335 0.07482,-0.693619 0.216987,-1.511722 0.383947,-2.209511 1.429729,-5.294767 2.129515,-6.282478 1.125944,-1.589209 3.587771,-3.288199 5.948549,-4.105292 l 0.920136,-0.31847 -0.681596,-0.133163 c -0.374877,-0.07324 -1.645082,-0.09521 -2.822676,-0.0488 l -2.14108,0.08435 1.058504,-0.495646 c 1.361411,-0.637483 4.041445,-1.108224 5.557143,-0.976097 1.146126,0.09991 1.146505,0.09979 0.742171,-0.235738 -0.222498,-0.184634 -0.778213,-0.385988 -1.234921,-0.447452 -0.456709,-0.06146 -0.90781,-0.13132 -1.002448,-0.155235 -0.09464,-0.02391 0.262608,-0.32208 0.793878,-0.662589 1.596534,-1.023276 1.630173,-1.124071 0.666362,-1.996664 -0.929902,-0.841895 -2.00416,-1.150694 -4.003058,-1.150694 h -1.156491 l 0.35815,-0.358152 c 0.465576,-0.465576 3.153082,-1.620342 5.05284,-2.171101 1.875015,-0.543586 2.414886,-0.822835 3.100556,-1.60377 0.915994,-1.04326 0.954978,-2.321659 0.132521,-4.345737 -0.232593,-0.572415 -0.702116,-1.457345 -1.043383,-1.966512 -0.341268,-0.509167 -0.589919,-0.956324 -0.552559,-0.993685 0.138658,-0.138658 1.97618,0.388263 3.077426,0.882471 l 1.138072,0.510734 -0.432403,-0.462367 c -0.237823,-0.254302 -1.146893,-0.809355 -2.020159,-1.233451 -2.614275,-1.269606 -5.674146,-1.62991 -8.249115,-0.971343 -2.2767,0.582282 -3.474484,1.343872 -4.70281,2.990201 -0.646543,0.866566 -1.440962,2.751251 -1.681475,3.98915 l -0.102825,0.529251 0.357634,-0.441042 c 0.196699,-0.242574 0.599747,-0.739241 0.895663,-1.103705 0.849648,-1.046468 1.409193,-1.253836 3.067088,-1.136667 2.059296,0.14554 2.266458,0.268592 1.216896,0.72283 -3.08942,1.337067 -5.989731,3.528856 -6.751275,5.101998 -0.509042,1.051539 -0.462681,1.753896 0.204983,3.105458 0.514949,1.042419 0.573356,1.318143 0.573356,2.70665 v 1.545997 l 0.338824,-0.487492 c 0.476228,-0.685188 2.244916,-2.372991 2.362985,-2.254921 0.232533,0.232533 -1.654168,3.46578 -2.880781,4.936804 -0.763322,0.91542 -1.361515,1.809132 -1.420162,2.121753 -0.108483,0.578276 0.524644,2.559439 0.817932,2.559439 0.09006,0 0.163741,-0.09053 0.163741,-0.201198 0,-0.512417 0.861603,-1.847853 1.483614,-2.299518 0.379353,-0.275464 0.719978,-0.470599 0.756942,-0.433635 0.03697,0.03697 -0.09024,0.335222 -0.282658,0.662796 -0.192424,0.327575 -0.602305,1.349774 -0.910846,2.271555 -1.452886,4.340572 -0.559125,7.821032 2.539802,9.890416 0.572111,0.382042 1.128097,0.69462 1.235524,0.69462 0.107424,0 -0.316113,-0.516021 -0.941198,-1.146712 z m 19.506303,-6.54848 c 1.365121,-1.152781 4.136874,-3.524946 6.159454,-5.271478 2.022578,-1.746531 4.200254,-3.607071 4.839278,-4.134535 0.639024,-0.527464 1.201556,-1.005087 1.250071,-1.061384 0.04852,-0.0563 0.835286,-0.736165 1.74838,-1.510817 0.913094,-0.774652 2.620058,-2.24203 3.793251,-3.260839 1.173195,-1.01881 2.609281,-2.249184 3.191304,-2.734166 0.582023,-0.484981 1.296386,-1.089893 1.587474,-1.344248 0.291089,-0.254357 0.93415,-0.810207 1.429026,-1.235224 0.494875,-0.425017 2.162019,-1.858294 3.704762,-3.185059 1.542744,-1.326766 3.796081,-3.262095 5.007414,-4.300733 3.334458,-2.85907 9.35957,-8.771024 8.82365,-8.657929 -4.138124,0.873263 -7.350794,1.914 -8.73265,2.828922 -1.666571,1.103429 -5.526524,4.810435 -25.801024,24.778686 L 54.029218,63.902321 v 0.895956 0.895955 l 0.485148,-0.450986 c 0.266831,-0.248042 1.602065,-1.39417 2.967185,-2.546952 z M 62.00432,44.250977 c -0.476445,-1.001895 -1.144554,-2.229601 -1.484688,-2.728234 l -0.618424,-0.906605 1.241836,0.673836 1.241834,0.673836 1.599836,-1.430395 c 0.879909,-0.786717 1.624071,-1.48902 1.653696,-1.560672 0.02962,-0.07165 -0.390062,-0.229623 -0.932632,-0.351045 l -0.986492,-0.220767 -0.674918,0.659041 c -0.382628,0.373626 -0.770453,0.977903 -0.895512,1.395314 l -0.220593,0.736273 -0.49465,-0.97823 c -0.462211,-0.914078 -0.585658,-1.020936 -1.882378,-1.629451 -1.352455,-0.634668 -1.402248,-0.680663 -1.9589,-1.809495 l -0.571171,-1.158275 -0.97085,0.829423 -0.970851,0.829424 1.912068,1.959736 c 1.908681,1.956265 4.328407,4.88167 5.2717,6.373393 0.802246,1.268671 0.676618,0.61018 -0.258911,-1.357107 z m 0.409227,-7.4941 c 0.242608,-0.548576 0.413798,-1.024718 0.380424,-1.058092 -0.03338,-0.03337 -0.556518,-0.1125 -1.162544,-0.175847 l -1.101864,-0.115162 0.451015,-0.451016 0.451016,-0.451014 1.230028,0.36223 c 1.10557,0.325578 1.240926,0.333837 1.337712,0.08162 0.141018,-0.367486 -0.693543,-1.038856 -1.47534,-1.18685 -0.324892,-0.0615 -1.020754,-0.06744 -1.546358,-0.01319 -1.082395,0.111715 -1.100468,-0.05545 -0.0632,-0.584625 0.932647,-0.475802 2.636995,-0.493156 2.758612,-0.02809 0.09105,0.348157 0.921941,0.912698 1.343315,0.912698 0.321824,0 0.448467,-0.604664 0.59502,-2.840962 0.09064,-1.383148 0.170066,-1.742479 0.396107,-1.79212 0.300264,-0.06594 -1.741405,-1.194174 -2.137976,-1.181453 -0.124053,0.0039 0.131693,0.331212 0.568326,0.727183 l 0.793877,0.719948 -0.755875,-0.12626 c -0.511184,-0.08539 -0.841511,-0.05519 -1.020413,0.09328 -0.211161,0.175249 -0.348706,0.174502 -0.681677,-0.0037 -0.229426,-0.122786 -0.741117,-0.19235 -1.137091,-0.154588 -0.788175,0.07517 -0.903584,-0.04538 -0.903584,-0.943826 0,-0.568833 0.009,-0.570234 1.32313,-0.204257 0.337563,0.09402 0.336291,0.08113 -0.02938,-0.297486 -0.26676,-0.276207 -0.660793,-0.422522 -1.304431,-0.484367 -0.90916,-0.08736 -0.914987,-0.09163 -0.41166,-0.301173 L 60.821289,27.0472 60.262227,26.920933 c -0.412674,-0.09321 -0.75913,-0.02483 -1.323129,0.261145 -0.420238,0.213076 -0.8165,0.469163 -0.880583,0.569082 -0.06409,0.09992 -0.17158,0.803745 -0.238882,1.564056 -0.114271,1.290925 -0.149309,1.382386 -0.529544,1.382386 -0.335412,0 -0.427544,-0.120563 -0.522747,-0.684064 l -0.115566,-0.684062 -0.914335,0.205488 c -0.829282,0.186374 -0.913687,0.250006 -0.907379,0.684063 0.0069,0.470497 -0.01177,0.478575 -1.102608,0.478575 -2.123543,0 -1.086842,0.290953 2.462887,0.691216 1.964847,0.221554 3.800909,0.456902 4.080137,0.522996 l 0.507689,0.120171 -1.358927,1.269088 c -1.466438,1.369491 -1.435292,1.271839 -0.851367,2.669371 l 0.262613,0.628518 0.33695,-0.613151 0.336952,-0.613151 -0.04722,0.855982 -0.04721,0.855984 0.793877,0.316541 c 0.436633,0.174097 1.013195,0.324772 1.281249,0.334834 0.428566,0.01608 0.540597,-0.102053 0.928476,-0.979122 z m 2.635118,-10.862604 c -3.888312,-4.095696 -5.244442,-5.492081 -7.546652,-7.770667 -3.211568,-3.178613 -5.047458,-4.589679 -7.728104,-5.939825 -2.802494,-1.411517 -4.663933,-1.841025 -7.508394,-1.732486 -1.511868,0.05769 -2.421697,0.188958 -3.309655,0.477507 l -1.224603,0.397947 1.023802,0.626183 1.023803,0.626183 -1.256166,0.319006 c -1.3128,0.33339 -2.620822,0.856201 -3.370123,1.347026 -0.433487,0.283951 -0.409862,0.29441 1.378798,0.610339 2.151508,0.380018 3.703039,0.872101 4.795805,1.521035 l 0.793878,0.47144 -1.714245,0.112321 c -1.776468,0.116399 -4.195733,0.61393 -4.195733,0.862866 0,0.216318 1.563698,1.560564 2.55805,2.199049 0.992058,0.637012 2.851507,1.403863 3.81502,1.573344 l 0.63951,0.112488 0.404477,-0.996569 c 0.564872,-1.391752 1.910134,-2.726666 3.144132,-3.119942 2.217275,-0.706648 4.815791,-0.11979 8.497107,1.919018 1.684811,0.93309 3.539914,2.214591 7.4925,5.175798 1.164355,0.872313 2.275784,1.704902 2.469842,1.850196 0.74585,0.558429 0.655335,0.240839 -0.183049,-0.642261 z"
           id="path1" /></g></g><path
       style="fill:#971b2f;fill-opacity:1;stroke:none;stroke-width:1.806;stroke-dasharray:none;opacity:0.50284713"
       d="m 57.970959,60.630178 38.425704,-33.37319 -5.052515,1.196647 z"
       id="path3" /><path
       style="opacity:0.502847;fill:#971b2f;fill-opacity:1;stroke:none;stroke-width:1.806;stroke-dasharray:none"
       d="m 24.863691,60.231294 -1.595531,13.429054 -5.983241,1.59553 z"
       id="path4" /><path
       style="opacity:0.502847;fill:#971b2f;fill-opacity:1;stroke:none;stroke-width:1.806;stroke-dasharray:none"
       d="m 25.129613,82.302807 -2.393296,4.387709 8.77542,-5.717317 z"
       id="path5" /><path
       style="opacity:0.502847;fill:#971b2f;fill-opacity:1;stroke:none;stroke-width:1.806;stroke-dasharray:none"
       d="m 55.976544,16.487153 c -2.437617,-1.994414 -4.875233,-3.988827 -7.312849,-5.983241 -2.614898,-0.04432 -5.229796,-0.08864 -7.844694,-0.132961 1.019367,0.842086 2.038734,1.684172 3.058101,2.526258 -1.595531,-0.04432 -3.191061,-0.08864 -4.786592,-0.132961 1.772812,0.531844 3.545625,1.063687 5.318437,1.595531 -0.531844,0.797765 -1.063689,1.595531 -1.595533,2.393296 1.772812,-0.576164 3.545625,-1.152328 5.318437,-1.728492 2.614898,0.487523 5.229795,0.975047 7.844693,1.46257 z"
       id="path6"
       sodipodi:nodetypes="ccccccccc" /></g></svg>
