<?xml version="1.0" encoding="UTF-8" standalone="no"?>
<!-- Created with Inkscape (http://www.inkscape.org/) -->

<svg
   width="105.83334mm"
   height="105.83334mm"
   viewBox="0 0 105.83333 105.83333"
   version="1.1"
   id="svg1"
   xml:space="preserve"
   inkscape:version="1.4.2 (ebf0e940d0, 2025-05-08)"
   sodipodi:docname="massachusets.svg"
   inkscape:export-filename="../pngs/charlotte.png"
   inkscape:export-xdpi="96"
   inkscape:export-ydpi="96"
   xmlns:inkscape="http://www.inkscape.org/namespaces/inkscape"
   xmlns:sodipodi="http://sodipodi.sourceforge.net/DTD/sodipodi-0.dtd"
   xmlns="http://www.w3.org/2000/svg"
   xmlns:svg="http://www.w3.org/2000/svg"><sodipodi:namedview
     id="namedview1"
     pagecolor="#ffffff"
     bordercolor="#000000"
     borderopacity="0.25"
     inkscape:showpageshadow="2"
     inkscape:pageopacity="0.0"
     inkscape:pagecheckerboard="0"
     inkscape:deskcolor="#d1d1d1"
     inkscape:document-units="mm"
     inkscape:zoom="0.7035476"
     inkscape:cx="506.71767"
     inkscape:cy="203.25561"
     inkscape:window-width="1920"
     inkscape:window-height="1011"
     inkscape:window-x="0"
     inkscape:window-y="32"
     inkscape:window-maximized="1"
     inkscape:current-layer="layer1"
     showgrid="false"
     showguides="true" /><defs
     id="defs1" /><g
     inkscape:label="Capa 1"
     inkscape:groupmode="layer"
     id="layer1"><path
       style="fill:#602d89;fill-opacity:1;stroke:#ffffff;stroke-width:2.61285;stroke-dasharray:none"
       d="m 52.220376,95.251686 c -1.813566,-2.23685 -6.068782,-5.805971 -9.198635,-7.7155 -0.733872,-0.447741 -0.746446,-0.361213 0.377323,-2.596293 0.389392,-0.77446 0.676757,-1.439342 0.638579,-1.47752 -0.03819,-0.03819 -1.065147,0.382561 -2.282168,0.934962 -7.435189,3.374814 -16.499703,6.467725 -22.131529,7.551528 -1.725317,0.332024 -4.165928,0.611907 -4.165928,0.477747 0,-0.04139 0.275073,-0.528226 0.611275,-1.081763 1.132252,-1.864239 2.773927,-5.449432 3.397727,-7.420196 0.764927,-2.41662 0.768318,-2.487096 0.113511,-2.356133 C 18.517153,81.7812 13.497632,81.174938 7.5404283,80.114309 L 4.4228373,79.559256 5.0977769,79.034791 C 6.3224549,78.083146 8.7895926,75.61901 9.9136238,74.224793 12.952858,70.455029 15.332623,66.429295 20.857651,55.711288 29.1112,39.7002 33.85143,34.098494 40.594141,32.387912 c 0.942881,-0.239205 1.931615,-0.627516 2.485609,-0.976194 0.505955,-0.318443 1.211133,-0.713466 1.56705,-0.87783 1.934715,-0.893438 1.904428,-0.820243 0.295693,-0.714741 -0.801404,0.05256 -1.649935,0.144837 -1.885636,0.205069 l -0.42856,0.109511 0.462676,-0.373381 c 0.593027,-0.478578 1.9915,-1.095796 3.567295,-1.574429 l 1.241546,-0.377108 -0.598876,-0.205885 c -0.862503,-0.29651 -1.810835,-0.911588 -2.744145,-1.779805 -0.747815,-0.695661 -0.814259,-0.823014 -0.814259,-1.560857 v -0.803391 l -1.025512,-0.190715 c -2.272986,-0.422706 -4.754661,-1.918824 -7.002053,-4.221297 -0.770329,-0.789216 -1.4006,-1.513957 -1.4006,-1.610535 0,-0.200418 0.901788,-0.549404 1.439798,-0.557192 0.675688,-0.0098 -0.126406,-0.321377 -1.883225,-0.731594 l -1.664218,-0.388597 1.065118,-0.963878 c 0.585817,-0.530132 1.573201,-1.232093 2.194192,-1.559909 l 1.129065,-0.59603 -0.710493,-0.405854 c -0.390772,-0.22322 -0.711087,-0.45229 -0.711815,-0.509043 -0.0019,-0.172378 2.2272,-1.127931 3.684236,-1.579112 0.754258,-0.2335615 1.967461,-0.520154 2.696008,-0.6368753 1.664986,-0.2667469 5.318498,-0.1256549 6.732168,0.259985 2.612928,0.7127903 5.581871,2.6172483 8.740875,5.6069203 l 1.629102,1.541775 0.802444,-0.273418 c 1.250204,-0.42599 1.497195,-0.36081 2.81015,0.741592 1.926242,1.617349 4.629353,3.330844 7.102252,4.502103 1.470028,0.696258 1.477549,0.728092 0.858413,3.632112 -0.247886,1.162689 -0.426733,2.486475 -0.397427,2.941749 l 0.05325,0.827769 1.542796,0.6853 c 0.848531,0.376914 2.382874,0.97154 3.40963,1.321389 1.544643,0.526304 1.810777,0.6661 1.541961,0.809966 -0.696977,0.373006 -2.49108,0.549629 -5.583047,0.549629 -2.614873,0 -3.225526,0.04441 -3.225526,0.234556 0,0.129006 -0.580589,1.142636 -1.290198,2.252512 -0.709609,1.109876 -1.26887,2.031478 -1.2428,2.048005 0.02604,0.01653 0.818787,0.250068 1.7616,0.51898 0.942822,0.268913 1.742458,0.510667 1.776982,0.537233 0.03449,0.02657 -0.28308,0.418611 -0.705771,0.871211 -1.090421,1.167554 -3.042558,3.436997 -3.042558,3.537093 0,0.04635 0.601558,0.431243 1.3368,0.855329 0.735242,0.424085 1.668212,1.047952 2.073277,1.386373 0.405064,0.338421 0.783068,0.61531 0.840018,0.61531 0.05694,0 3.038807,-2.915943 6.626361,-6.479873 8.893897,-8.835348 12.193085,-11.828997 14.06535,-12.76276 1.844154,-0.919738 5.737399,-1.987947 10.113871,-2.774985 1.319942,-0.237371 2.612032,-0.469799 2.871302,-0.516508 0.25927,-0.04671 0.47141,-0.04722 0.47141,-0.0012 0,0.216177 -2.39745,5.403034 -3.522832,7.621619 -2.375392,4.682826 -4.49115,7.945326 -5.934884,9.151566 -0.408019,0.340901 -1.864521,1.333279 -3.236671,2.205285 -2.820936,1.79271 -14.593021,9.900476 -18.117814,12.478243 l -0.361893,0.264656 0.482119,2.377503 0.48211,2.377503 -0.39461,1.471953 c -2.256672,8.417793 -5.720803,19.575075 -7.094663,22.850525 -0.669255,1.595569 -1.980792,3.788877 -3.103599,5.190168 -0.94222,1.175919 -2.663077,2.87298 -2.522057,2.487184 0.05169,-0.141429 0.609468,-1.568508 1.239506,-3.171296 2.567172,-6.530787 4.924442,-13.524395 6.170584,-18.30704 0.425325,-1.632395 0.769436,-3.040906 0.764694,-3.130019 -0.0049,-0.0891 -0.33968,0.763645 -0.744288,1.895022 -2.145006,5.998004 -6.760007,15.579773 -11.558966,23.998993 -0.806107,1.414224 -1.666812,2.889197 -1.912677,3.277715 l -0.447022,0.706392 z M 24.286219,87.214375 c 3.907655,-1.950038 6.718574,-3.782988 8.613109,-5.616454 1.44627,-1.399649 1.885072,-2.229756 1.482495,-2.804515 -0.363157,-0.51847 -1.062437,-0.471188 -2.524331,0.170695 -2.333998,1.024794 -5.179577,1.879941 -7.079029,2.12738 l -0.879119,0.114522 -0.467903,1.823457 c -0.538224,2.097578 -1.247639,3.980425 -1.872926,4.970947 l -0.434429,0.688174 0.638249,-0.26661 c 0.351039,-0.146627 1.486789,-0.690049 2.523884,-1.207596 z M 22.536474,77.048937 c 1.644075,-0.155907 3.585134,-0.508403 4.290915,-0.77924 0.21138,-0.08114 0.234933,-0.7415 0.157568,-4.417254 -0.172542,-8.198029 0.98065,-19.270836 2.545154,-24.438326 0.182744,-0.603611 0.306536,-1.123199 0.275102,-1.15464 -0.03148,-0.03143 -0.273703,0.500991 -0.53834,1.183184 -2.736595,7.054261 -6.807386,15.824026 -9.607091,20.696677 -1.866998,3.249341 -3.219161,5.178848 -4.755205,6.785562 l -1.324838,1.385782 1.581975,0.309403 c 1.383761,0.270633 3.353077,0.498278 5.010397,0.57919 0.282846,0.0138 1.346808,-0.05383 2.364363,-0.150338 z M 51.74123,73.713602 c 1.581645,-0.781699 3.274459,-2.129906 4.168775,-3.320148 0.822344,-1.094453 0.92781,-1.594208 0.132023,-0.625588 -1.515328,1.844436 -3.770396,3.411301 -5.424761,3.76923 -0.554131,0.119886 -0.575935,0.106486 -0.453542,-0.278863 0.360746,-1.135769 0.310112,-1.499586 -0.40283,-2.894561 -0.880479,-1.722801 -1.391292,-3.22023 -1.38555,-4.061706 0.0039,-0.614025 0.02458,-0.589431 0.3857,0.465999 0.705644,2.0622 2.248208,4.114118 3.092852,4.114118 0.710619,0 1.71663,-1.369341 2.254708,-3.069006 l 0.130419,-0.411974 -0.619864,0.383095 -0.619865,0.383105 v -2.966038 -2.966024 l 0.98031,-0.990644 c 0.539166,-0.544853 0.905578,-0.988588 0.814249,-0.986075 -0.09134,0.0025 -0.618514,0.346246 -1.171517,0.763853 -0.865,0.653218 -1.039203,0.725535 -1.247056,0.517688 -0.132877,-0.132877 -0.58947,-0.526657 -1.014658,-0.875067 l -0.77307,-0.633469 0.370453,-0.394327 c 0.426607,-0.454106 1.688753,-0.92777 2.457528,-0.922273 0.28962,0.002 0.865904,0.15772 1.280647,0.345888 0.984508,0.446677 1.042789,0.350375 0.141593,-0.233971 -2.055591,-1.332867 -4.672203,-0.928558 -6.44624,0.996047 -0.964724,1.046607 -1.525346,2.306985 -1.765186,3.96844 -0.314047,2.175629 0.203791,4.074586 1.956996,7.176455 0.298578,0.528274 0.392549,0.980834 0.40933,1.971347 0.01195,0.707112 0.03129,1.353668 0.04285,1.436796 0.04159,0.298092 1.469853,-0.0515 2.705706,-0.662327 z M 50.749338,62.339006 c -1.230226,-0.591018 -1.296592,-0.651082 -1.127743,-1.020747 0.211671,-0.463427 0.344947,-0.428584 1.704844,0.445719 0.579054,0.372285 0.984789,0.756228 0.985673,0.93273 0.0019,0.388013 -0.02186,0.382556 -1.562774,-0.357702 z m -3.749786,9.255874 c 0,-0.04557 -0.226198,-0.436693 -0.502651,-0.869218 -0.741607,-1.160236 -1.386745,-3.260224 -1.501607,-4.887829 -0.235118,-3.331597 1.310409,-6.704324 3.804181,-8.301701 0.377129,-0.241568 0.714137,-0.458019 0.748913,-0.481003 0.03479,-0.02298 -0.22132,-0.373321 -0.569104,-0.778526 l -0.632331,-0.736737 0.82623,-0.08571 0.82624,-0.08571 -0.582698,-0.214275 c -2.173777,-0.799366 -5.94802,0.524476 -8.122293,2.848955 -0.801278,0.856631 -1.268744,2.009568 -2.000935,4.934981 l -0.350019,1.398492 1.156728,1.108271 c 0.636199,0.609555 1.756712,1.63016 2.490021,2.268011 0.733308,0.63786 1.311857,1.179417 1.285661,1.203466 -0.02624,0.0241 -0.549039,-0.06219 -1.161869,-0.191645 -0.61283,-0.129457 -1.326607,-0.236983 -1.586172,-0.238946 -0.437208,-0.0029 -0.375993,0.08784 0.832361,1.239224 0.717354,0.683549 1.484166,1.339181 1.704038,1.456959 0.59737,0.320013 3.335306,0.658994 3.335306,0.412945 z m -8.056803,-3.36983 c -0.607388,-0.61283 -1.053759,-1.114237 -0.991931,-1.114237 0.0618,0 0.668925,0.117059 1.349111,0.260149 0.680197,0.14308 1.263099,0.233767 1.295339,0.201517 0.04149,-0.04149 -2.862767,-2.064541 -3.492757,-2.432935 -0.02215,-0.01302 0.07268,-0.673968 0.210835,-1.468907 0.373077,-2.146941 1.389242,-5.144826 2.069215,-6.104568 1.094055,-1.544204 3.486169,-3.195081 5.780095,-3.989035 l 0.894073,-0.309451 -0.662288,-0.129393 c -0.364264,-0.07117 -1.598503,-0.09251 -2.742746,-0.04742 l -2.080447,0.08196 1.028525,-0.481609 c 1.322866,-0.619431 3.927001,-1.076842 5.399779,-0.948456 1.113663,0.09708 1.114032,0.09696 0.721152,-0.229063 -0.216199,-0.179404 -0.756172,-0.375057 -1.199948,-0.43478 -0.443777,-0.05972 -0.882102,-0.127602 -0.974062,-0.150838 -0.09192,-0.02323 0.255173,-0.31296 0.771398,-0.643827 1.551318,-0.994297 1.584006,-1.092239 0.64749,-1.94012 -0.903567,-0.818054 -1.947405,-1.118108 -3.889699,-1.118108 h -1.12374 l 0.348008,-0.34801 c 0.452395,-0.452392 3.063789,-1.574456 4.90975,-2.109619 1.821922,-0.528192 2.346504,-0.799533 3.012756,-1.558353 0.890051,-1.013716 0.927927,-2.255913 0.128768,-4.222671 -0.226013,-0.556205 -0.682237,-1.416075 -1.013843,-1.910823 -0.331596,-0.494748 -0.573205,-0.929243 -0.536902,-0.965546 0.134723,-0.134731 1.920217,0.377268 2.990271,0.857481 l 1.105841,0.496271 -0.420155,-0.449274 c -0.231085,-0.2471 -1.114411,-0.786435 -1.962951,-1.198521 -2.540238,-1.233652 -5.513456,-1.583753 -8.015506,-0.943836 -2.212227,0.565793 -3.376097,1.305816 -4.569633,2.905523 -0.628241,0.842026 -1.400164,2.673339 -1.633863,3.876182 l -0.09991,0.514263 0.347502,-0.428552 c 0.19113,-0.235704 0.582766,-0.718306 0.870296,-1.072449 0.825589,-1.016834 1.369294,-1.218329 2.980234,-1.104478 2.000984,0.141418 2.202277,0.260985 1.182439,0.70236 -3.001931,1.299203 -5.820108,3.428923 -6.560092,4.957516 -0.494625,1.021761 -0.449578,1.704228 0.199185,3.017517 0.500357,1.012898 0.557113,1.280814 0.557113,2.63 v 1.502216 l 0.329235,-0.473687 c 0.462734,-0.665784 2.181337,-2.305791 2.296064,-2.191064 0.225945,0.225949 -1.607327,3.367634 -2.799201,4.797 -0.741703,0.889498 -1.322963,1.7579 -1.379942,2.061668 -0.105418,0.5619 0.509782,2.48696 0.794767,2.48696 0.08755,0 0.159103,-0.08797 0.159103,-0.195501 0,-0.497906 0.837201,-1.795525 1.441596,-2.234399 0.368617,-0.267663 0.699591,-0.457272 0.735514,-0.421355 0.03595,0.03592 -0.08764,0.325729 -0.274655,0.644026 -0.186981,0.318299 -0.585254,1.311551 -0.885056,2.207229 -1.411737,4.217652 -0.543287,7.599553 2.467876,9.61033 0.555918,0.371222 1.096154,0.67495 1.200541,0.67495 0.104378,0 -0.307158,-0.501407 -0.914546,-1.114237 z m 18.953907,-6.363038 c 1.326462,-1.120135 4.01972,-3.425124 5.985023,-5.122197 1.965303,-1.697072 4.081314,-3.504924 4.702238,-4.01745 0.620933,-0.512527 1.167533,-0.976624 1.21467,-1.031327 0.04713,-0.0547 0.811635,-0.715318 1.698868,-1.468033 0.887242,-0.752714 2.545863,-2.178539 3.68583,-3.168497 1.139976,-0.989958 2.535389,-2.18549 3.100936,-2.656738 0.565538,-0.471247 1.259668,-1.059028 1.542515,-1.30618 0.282847,-0.247154 0.907696,-0.787263 1.388562,-1.200245 0.480856,-0.412981 2.100794,-1.805669 3.599846,-3.094862 1.499052,-1.289194 3.68858,-3.169717 4.865607,-4.178942 3.240032,-2.778105 9.094519,-8.52264 8.573776,-8.412748 -4.020934,0.848534 -7.142626,1.859798 -8.485353,2.748811 -1.619375,1.072181 -5.370017,4.67421 -25.070369,24.076986 L 54.542092,63.033885 v 0.870584 0.870588 l 0.471401,-0.438219 c 0.259284,-0.241016 1.556702,-1.35469 2.883163,-2.474826 z M 62.291347,43.939041 C 61.82839,42.965519 61.1792,41.77258 60.848702,41.288067 l -0.600907,-0.880931 1.206663,0.654754 1.206673,0.654754 1.554524,-1.389888 c 0.854993,-0.764438 1.578079,-1.446853 1.60687,-1.516476 0.02876,-0.06962 -0.379014,-0.22312 -0.906219,-0.341104 l -0.958564,-0.214515 -0.655797,0.640378 c -0.371795,0.363045 -0.748642,0.95021 -0.87016,1.3558 l -0.214344,0.715423 -0.480642,-0.950528 C 61.287678,39.127542 61.167724,39.02371 59.907726,38.432427 58.593575,37.815732 58.545195,37.77104 58.004299,36.674175 l -0.554995,-1.125474 -0.943357,0.805934 -0.943357,0.805936 1.857923,1.904239 c 1.854629,1.900866 4.205835,4.743428 5.122412,6.192907 0.779532,1.232744 0.65746,0.5929 -0.251578,-1.318676 z m 0.397642,-7.281877 c 0.23573,-0.533041 0.402072,-0.995699 0.369647,-1.028128 -0.03245,-0.03242 -0.54076,-0.109314 -1.129619,-0.170867 l -1.070666,-0.111901 0.438247,-0.438244 0.438238,-0.438242 1.195198,0.351973 c 1.074261,0.316358 1.205788,0.324383 1.299827,0.07931 0.137027,-0.357079 -0.673899,-1.009437 -1.43356,-1.15324 -0.315689,-0.05976 -0.991844,-0.06553 -1.502569,-0.01282 -1.051738,0.108551 -1.069296,-0.05388 -0.06141,-0.568069 0.906238,-0.462328 2.562323,-0.479191 2.680499,-0.0273 0.08842,0.338298 0.895832,0.886852 1.305269,0.886852 0.312717,0 0.43577,-0.587541 0.57817,-2.76051 0.08803,-1.343979 0.165254,-1.693134 0.384893,-1.74137 0.291757,-0.06407 -1.692096,-1.160356 -2.077435,-1.147995 -0.120537,0.0038 0.12797,0.321832 0.552235,0.70659 l 0.771399,0.69956 -0.734475,-0.122685 c -0.496704,-0.08297 -0.817679,-0.05363 -0.991513,0.09064 -0.20518,0.170286 -0.338835,0.16956 -0.662376,-0.0036 -0.222933,-0.119309 -0.720132,-0.186903 -1.104889,-0.150211 -0.76586,0.07304 -0.877992,-0.04409 -0.877992,-0.917098 0,-0.552724 0.0087,-0.554086 1.285661,-0.198473 0.328001,0.09136 0.326767,0.07883 -0.02857,-0.289061 -0.259206,-0.268385 -0.642087,-0.410557 -1.2675,-0.470651 -0.883414,-0.08489 -0.889069,-0.08903 -0.400003,-0.292644 L 61.1418,27.222453 60.598572,27.099761 c -0.400994,-0.09057 -0.737633,-0.02413 -1.285661,0.25375 -0.408339,0.207042 -0.793378,0.455877 -0.855653,0.552966 -0.06229,0.09709 -0.166721,0.780984 -0.232115,1.519764 -0.111034,1.254368 -0.145082,1.343239 -0.514544,1.343239 -0.325912,0 -0.415443,-0.117149 -0.507947,-0.664692 l -0.112297,-0.66469 -0.888437,0.199668 c -0.805796,0.181097 -0.887816,0.242927 -0.881684,0.664692 0.0068,0.457173 -0.01147,0.465022 -1.071386,0.465022 -2.063404,0 -1.056062,0.282714 2.393144,0.671642 1.909208,0.21528 3.693274,0.443963 3.964596,0.508185 l 0.493313,0.116768 -1.320447,1.233149 c -1.424912,1.330709 -1.394644,1.235822 -0.82726,2.593778 l 0.255173,0.610719 0.327408,-0.595787 0.327418,-0.595787 -0.04586,0.831741 -0.04586,0.831744 0.771389,0.307577 c 0.424275,0.169167 0.984507,0.315575 1.244966,0.325352 0.416434,0.01563 0.525291,-0.09916 0.902187,-0.951395 z m 2.560487,-10.554989 c -3.778198,-3.979711 -5.095925,-5.336552 -7.332939,-7.550612 -3.120623,-3.088599 -4.904523,-4.459704 -7.50925,-5.771616 -2.723137,-1.371545 -4.531864,-1.78889 -7.295772,-1.683424 -1.469047,0.05606 -2.353111,0.183607 -3.215926,0.463984 l -1.18992,0.386678 0.994807,0.60845 0.994807,0.608451 -1.220597,0.309972 c -1.275623,0.323949 -2.546602,0.831954 -3.274682,1.30888 -0.421215,0.27591 -0.398254,0.286073 1.339754,0.593054 2.090582,0.369256 3.598175,0.847404 4.659989,1.477961 l 0.771398,0.45809 -1.665695,0.10914 c -1.726162,0.113103 -4.076922,0.596544 -4.076922,0.838431 0,0.210192 1.519418,1.516371 2.48561,2.136774 0.963966,0.618973 2.770759,1.364108 3.706983,1.528789 l 0.6214,0.109303 0.393026,-0.968348 c 0.548874,-1.352339 1.856047,-2.64945 3.055092,-3.031589 2.15449,-0.686637 4.679414,-0.116398 8.256483,1.864674 1.637099,0.906666 3.439665,2.151877 7.280323,5.029226 1.131387,0.847611 2.211333,1.656622 2.399897,1.797801 0.724729,0.542615 0.636782,0.234019 -0.177866,-0.624073 z"
       id="path1-7" /><circle
       style="fill:#ffffff;stroke-width:7.38478"
       id="path7"
       cx="49.304676"
       cy="52.73518"
       r="45.860268" /><path
       style="fill:#ffffff;fill-opacity:1;stroke-width:0.58301"
       d="m 10.31143,79.233752 c 0,0 11.627605,0.129195 11.7568,0.645974 0.129195,0.516789 -3.617482,10.981631 -3.617482,10.981631 L 42.86873,80.654904 52.687599,87.631469 63.798425,62.179927 75.296836,49.647949 96.226531,32.335734 l 4.392649,-7.234956 -10.077267,1.550347 -23.384405,22.092457 -3.746677,-6.201394 3.746677,-3.875868 -2.842304,-1.421151 3.229888,-6.072196 -0.904363,-7.622543 -9.431285,-6.718172 -8.656106,-6.20139 -11.369216,0.904369 0.387585,1.421152 -3.488288,2.325521 4.65105,1.421152 -3.100693,1.033565 3.100693,3.100695 7.234955,2.842304 5.555413,5.555413 -8.914496,4.005063 -11.240021,6.588977 c 0,0 -8.914506,16.795434 -9.172895,17.441413 -0.25839,0.645979 -11.885995,21.96326 -11.885995,21.96326 z"
       id="path2" /><path
       style="fill:#971b2f;fill-opacity:1;stroke-width:1.15493"
       d="m 52.220376,95.251686 c -1.813566,-2.23685 -6.068782,-5.805971 -9.198635,-7.7155 -0.733872,-0.447741 -0.746446,-0.361213 0.377323,-2.596293 0.389392,-0.77446 0.676757,-1.439342 0.638579,-1.47752 -0.03819,-0.03819 -1.065147,0.382561 -2.282168,0.934962 -7.435189,3.374814 -16.499703,6.467725 -22.131529,7.551528 -1.725317,0.332024 -4.165928,0.611907 -4.165928,0.477747 0,-0.04139 0.275073,-0.528226 0.611275,-1.081763 1.132252,-1.864239 2.773927,-5.449432 3.397727,-7.420196 0.764927,-2.41662 0.768318,-2.487096 0.113511,-2.356133 C 18.517153,81.7812 13.497632,81.174938 7.5404283,80.114309 L 4.4228373,79.559256 5.0977769,79.034791 C 6.3224549,78.083146 8.7895926,75.61901 9.9136238,74.224793 12.952858,70.455029 15.332623,66.429295 20.857651,55.711288 29.1112,39.7002 33.85143,34.098494 40.594141,32.387912 c 0.942881,-0.239205 1.931615,-0.627516 2.485609,-0.976194 0.505955,-0.318443 1.211133,-0.713466 1.56705,-0.87783 1.934715,-0.893438 1.904428,-0.820243 0.295693,-0.714741 -0.801404,0.05256 -1.649935,0.144837 -1.885636,0.205069 l -0.42856,0.109511 0.462676,-0.373381 c 0.593027,-0.478578 1.9915,-1.095796 3.567295,-1.574429 l 1.241546,-0.377108 -0.598876,-0.205885 c -0.862503,-0.29651 -1.810835,-0.911588 -2.744145,-1.779805 -0.747815,-0.695661 -0.814259,-0.823014 -0.814259,-1.560857 v -0.803391 l -1.025512,-0.190715 c -2.272986,-0.422706 -4.754661,-1.918824 -7.002053,-4.221297 -0.770329,-0.789216 -1.4006,-1.513957 -1.4006,-1.610535 0,-0.200418 0.901788,-0.549404 1.439798,-0.557192 0.675688,-0.0098 -0.126406,-0.321377 -1.883225,-0.731594 l -1.664218,-0.388597 1.065118,-0.963878 c 0.585817,-0.530132 1.573201,-1.232093 2.194192,-1.559909 l 1.129065,-0.59603 -0.710493,-0.405854 c -0.390772,-0.22322 -0.711087,-0.45229 -0.711815,-0.509043 -0.0019,-0.172378 2.2272,-1.127931 3.684236,-1.579112 0.754258,-0.2335615 1.967461,-0.520154 2.696008,-0.6368753 1.664986,-0.2667469 5.318498,-0.1256549 6.732168,0.259985 2.612928,0.7127903 5.581871,2.6172483 8.740875,5.6069203 l 1.629102,1.541775 0.802444,-0.273418 c 1.250204,-0.42599 1.497195,-0.36081 2.81015,0.741592 1.926242,1.617349 4.629353,3.330844 7.102252,4.502103 1.470028,0.696258 1.477549,0.728092 0.858413,3.632112 -0.247886,1.162689 -0.426733,2.486475 -0.397427,2.941749 l 0.05325,0.827769 1.542796,0.6853 c 0.848531,0.376914 2.382874,0.97154 3.40963,1.321389 1.544643,0.526304 1.810777,0.6661 1.541961,0.809966 -0.696977,0.373006 -2.49108,0.549629 -5.583047,0.549629 -2.614873,0 -3.225526,0.04441 -3.225526,0.234556 0,0.129006 -0.580589,1.142636 -1.290198,2.252512 -0.709609,1.109876 -1.26887,2.031478 -1.2428,2.048005 0.02604,0.01653 0.818787,0.250068 1.7616,0.51898 0.942822,0.268913 1.742458,0.510667 1.776982,0.537233 0.03449,0.02657 -0.28308,0.418611 -0.705771,0.871211 -1.090421,1.167554 -3.042558,3.436997 -3.042558,3.537093 0,0.04635 0.601558,0.431243 1.3368,0.855329 0.735242,0.424085 1.668212,1.047952 2.073277,1.386373 0.405064,0.338421 0.783068,0.61531 0.840018,0.61531 0.05694,0 3.038807,-2.915943 6.626361,-6.479873 8.893897,-8.835348 12.193085,-11.828997 14.06535,-12.76276 1.844154,-0.919738 5.737399,-1.987947 10.113871,-2.774985 1.319942,-0.237371 2.612032,-0.469799 2.871302,-0.516508 0.25927,-0.04671 0.47141,-0.04722 0.47141,-0.0012 0,0.216177 -2.39745,5.403034 -3.522832,7.621619 -2.375392,4.682826 -4.49115,7.945326 -5.934884,9.151566 -0.408019,0.340901 -1.864521,1.333279 -3.236671,2.205285 -2.820936,1.79271 -14.593021,9.900476 -18.117814,12.478243 l -0.361893,0.264656 0.482119,2.377503 0.48211,2.377503 -0.39461,1.471953 c -2.256672,8.417793 -5.720803,19.575075 -7.094663,22.850525 -0.669255,1.595569 -1.980792,3.788877 -3.103599,5.190168 -0.94222,1.175919 -2.663077,2.87298 -2.522057,2.487184 0.05169,-0.141429 0.609468,-1.568508 1.239506,-3.171296 2.567172,-6.530787 4.924442,-13.524395 6.170584,-18.30704 0.425325,-1.632395 0.769436,-3.040906 0.764694,-3.130019 -0.0049,-0.0891 -0.33968,0.763645 -0.744288,1.895022 -2.145006,5.998004 -6.760007,15.579773 -11.558966,23.998993 -0.806107,1.414224 -1.666812,2.889197 -1.912677,3.277715 l -0.447022,0.706392 z M 24.286219,87.214375 c 3.907655,-1.950038 6.718574,-3.782988 8.613109,-5.616454 1.44627,-1.399649 1.885072,-2.229756 1.482495,-2.804515 -0.363157,-0.51847 -1.062437,-0.471188 -2.524331,0.170695 -2.333998,1.024794 -5.179577,1.879941 -7.079029,2.12738 l -0.879119,0.114522 -0.467903,1.823457 c -0.538224,2.097578 -1.247639,3.980425 -1.872926,4.970947 l -0.434429,0.688174 0.638249,-0.26661 c 0.351039,-0.146627 1.486789,-0.690049 2.523884,-1.207596 z M 22.536474,77.048937 c 1.644075,-0.155907 3.585134,-0.508403 4.290915,-0.77924 0.21138,-0.08114 0.234933,-0.7415 0.157568,-4.417254 -0.172542,-8.198029 0.98065,-19.270836 2.545154,-24.438326 0.182744,-0.603611 0.306536,-1.123199 0.275102,-1.15464 -0.03148,-0.03143 -0.273703,0.500991 -0.53834,1.183184 -2.736595,7.054261 -6.807386,15.824026 -9.607091,20.696677 -1.866998,3.249341 -3.219161,5.178848 -4.755205,6.785562 l -1.324838,1.385782 1.581975,0.309403 c 1.383761,0.270633 3.353077,0.498278 5.010397,0.57919 0.282846,0.0138 1.346808,-0.05383 2.364363,-0.150338 z M 51.74123,73.713602 c 1.581645,-0.781699 3.274459,-2.129906 4.168775,-3.320148 0.822344,-1.094453 0.92781,-1.594208 0.132023,-0.625588 -1.515328,1.844436 -3.770396,3.411301 -5.424761,3.76923 -0.554131,0.119886 -0.575935,0.106486 -0.453542,-0.278863 0.360746,-1.135769 0.310112,-1.499586 -0.40283,-2.894561 -0.880479,-1.722801 -1.391292,-3.22023 -1.38555,-4.061706 0.0039,-0.614025 0.02458,-0.589431 0.3857,0.465999 0.705644,2.0622 2.248208,4.114118 3.092852,4.114118 0.710619,0 1.71663,-1.369341 2.254708,-3.069006 l 0.130419,-0.411974 -0.619864,0.383095 -0.619865,0.383105 v -2.966038 -2.966024 l 0.98031,-0.990644 c 0.539166,-0.544853 0.905578,-0.988588 0.814249,-0.986075 -0.09134,0.0025 -0.618514,0.346246 -1.171517,0.763853 -0.865,0.653218 -1.039203,0.725535 -1.247056,0.517688 -0.132877,-0.132877 -0.58947,-0.526657 -1.014658,-0.875067 l -0.77307,-0.633469 0.370453,-0.394327 c 0.426607,-0.454106 1.688753,-0.92777 2.457528,-0.922273 0.28962,0.002 0.865904,0.15772 1.280647,0.345888 0.984508,0.446677 1.042789,0.350375 0.141593,-0.233971 -2.055591,-1.332867 -4.672203,-0.928558 -6.44624,0.996047 -0.964724,1.046607 -1.525346,2.306985 -1.765186,3.96844 -0.314047,2.175629 0.203791,4.074586 1.956996,7.176455 0.298578,0.528274 0.392549,0.980834 0.40933,1.971347 0.01195,0.707112 0.03129,1.353668 0.04285,1.436796 0.04159,0.298092 1.469853,-0.0515 2.705706,-0.662327 z M 50.749338,62.339006 c -1.230226,-0.591018 -1.296592,-0.651082 -1.127743,-1.020747 0.211671,-0.463427 0.344947,-0.428584 1.704844,0.445719 0.579054,0.372285 0.984789,0.756228 0.985673,0.93273 0.0019,0.388013 -0.02186,0.382556 -1.562774,-0.357702 z m -3.749786,9.255874 c 0,-0.04557 -0.226198,-0.436693 -0.502651,-0.869218 -0.741607,-1.160236 -1.386745,-3.260224 -1.501607,-4.887829 -0.235118,-3.331597 1.310409,-6.704324 3.804181,-8.301701 0.377129,-0.241568 0.714137,-0.458019 0.748913,-0.481003 0.03479,-0.02298 -0.22132,-0.373321 -0.569104,-0.778526 l -0.632331,-0.736737 0.82623,-0.08571 0.82624,-0.08571 -0.582698,-0.214275 c -2.173777,-0.799366 -5.94802,0.524476 -8.122293,2.848955 -0.801278,0.856631 -1.268744,2.009568 -2.000935,4.934981 l -0.350019,1.398492 1.156728,1.108271 c 0.636199,0.609555 1.756712,1.63016 2.490021,2.268011 0.733308,0.63786 1.311857,1.179417 1.285661,1.203466 -0.02624,0.0241 -0.549039,-0.06219 -1.161869,-0.191645 -0.61283,-0.129457 -1.326607,-0.236983 -1.586172,-0.238946 -0.437208,-0.0029 -0.375993,0.08784 0.832361,1.239224 0.717354,0.683549 1.484166,1.339181 1.704038,1.456959 0.59737,0.320013 3.335306,0.658994 3.335306,0.412945 z m -8.056803,-3.36983 c -0.607388,-0.61283 -1.053759,-1.114237 -0.991931,-1.114237 0.0618,0 0.668925,0.117059 1.349111,0.260149 0.680197,0.14308 1.263099,0.233767 1.295339,0.201517 0.04149,-0.04149 -2.862767,-2.064541 -3.492757,-2.432935 -0.02215,-0.01302 0.07268,-0.673968 0.210835,-1.468907 0.373077,-2.146941 1.389242,-5.144826 2.069215,-6.104568 1.094055,-1.544204 3.486169,-3.195081 5.780095,-3.989035 l 0.894073,-0.309451 -0.662288,-0.129393 c -0.364264,-0.07117 -1.598503,-0.09251 -2.742746,-0.04742 l -2.080447,0.08196 1.028525,-0.481609 c 1.322866,-0.619431 3.927001,-1.076842 5.399779,-0.948456 1.113663,0.09708 1.114032,0.09696 0.721152,-0.229063 -0.216199,-0.179404 -0.756172,-0.375057 -1.199948,-0.43478 -0.443777,-0.05972 -0.882102,-0.127602 -0.974062,-0.150838 -0.09192,-0.02323 0.255173,-0.31296 0.771398,-0.643827 1.551318,-0.994297 1.584006,-1.092239 0.64749,-1.94012 -0.903567,-0.818054 -1.947405,-1.118108 -3.889699,-1.118108 h -1.12374 l 0.348008,-0.34801 c 0.452395,-0.452392 3.063789,-1.574456 4.90975,-2.109619 1.821922,-0.528192 2.346504,-0.799533 3.012756,-1.558353 0.890051,-1.013716 0.927927,-2.255913 0.128768,-4.222671 -0.226013,-0.556205 -0.682237,-1.416075 -1.013843,-1.910823 -0.331596,-0.494748 -0.573205,-0.929243 -0.536902,-0.965546 0.134723,-0.134731 1.920217,0.377268 2.990271,0.857481 l 1.105841,0.496271 -0.420155,-0.449274 c -0.231085,-0.2471 -1.114411,-0.786435 -1.962951,-1.198521 -2.540238,-1.233652 -5.513456,-1.583753 -8.015506,-0.943836 -2.212227,0.565793 -3.376097,1.305816 -4.569633,2.905523 -0.628241,0.842026 -1.400164,2.673339 -1.633863,3.876182 l -0.09991,0.514263 0.347502,-0.428552 c 0.19113,-0.235704 0.582766,-0.718306 0.870296,-1.072449 0.825589,-1.016834 1.369294,-1.218329 2.980234,-1.104478 2.000984,0.141418 2.202277,0.260985 1.182439,0.70236 -3.001931,1.299203 -5.820108,3.428923 -6.560092,4.957516 -0.494625,1.021761 -0.449578,1.704228 0.199185,3.017517 0.500357,1.012898 0.557113,1.280814 0.557113,2.63 v 1.502216 l 0.329235,-0.473687 c 0.462734,-0.665784 2.181337,-2.305791 2.296064,-2.191064 0.225945,0.225949 -1.607327,3.367634 -2.799201,4.797 -0.741703,0.889498 -1.322963,1.7579 -1.379942,2.061668 -0.105418,0.5619 0.509782,2.48696 0.794767,2.48696 0.08755,0 0.159103,-0.08797 0.159103,-0.195501 0,-0.497906 0.837201,-1.795525 1.441596,-2.234399 0.368617,-0.267663 0.699591,-0.457272 0.735514,-0.421355 0.03595,0.03592 -0.08764,0.325729 -0.274655,0.644026 -0.186981,0.318299 -0.585254,1.311551 -0.885056,2.207229 -1.411737,4.217652 -0.543287,7.599553 2.467876,9.61033 0.555918,0.371222 1.096154,0.67495 1.200541,0.67495 0.104378,0 -0.307158,-0.501407 -0.914546,-1.114237 z m 18.953907,-6.363038 c 1.326462,-1.120135 4.01972,-3.425124 5.985023,-5.122197 1.965303,-1.697072 4.081314,-3.504924 4.702238,-4.01745 0.620933,-0.512527 1.167533,-0.976624 1.21467,-1.031327 0.04713,-0.0547 0.811635,-0.715318 1.698868,-1.468033 0.887242,-0.752714 2.545863,-2.178539 3.68583,-3.168497 1.139976,-0.989958 2.535389,-2.18549 3.100936,-2.656738 0.565538,-0.471247 1.259668,-1.059028 1.542515,-1.30618 0.282847,-0.247154 0.907696,-0.787263 1.388562,-1.200245 0.480856,-0.412981 2.100794,-1.805669 3.599846,-3.094862 1.499052,-1.289194 3.68858,-3.169717 4.865607,-4.178942 3.240032,-2.778105 9.094519,-8.52264 8.573776,-8.412748 -4.020934,0.848534 -7.142626,1.859798 -8.485353,2.748811 -1.619375,1.072181 -5.370017,4.67421 -25.070369,24.076986 L 54.542092,63.033885 v 0.870584 0.870588 l 0.471401,-0.438219 c 0.259284,-0.241016 1.556702,-1.35469 2.883163,-2.474826 z M 62.291347,43.939041 C 61.82839,42.965519 61.1792,41.77258 60.848702,41.288067 l -0.600907,-0.880931 1.206663,0.654754 1.206673,0.654754 1.554524,-1.389888 c 0.854993,-0.764438 1.578079,-1.446853 1.60687,-1.516476 0.02876,-0.06962 -0.379014,-0.22312 -0.906219,-0.341104 l -0.958564,-0.214515 -0.655797,0.640378 c -0.371795,0.363045 -0.748642,0.95021 -0.87016,1.3558 l -0.214344,0.715423 -0.480642,-0.950528 C 61.287678,39.127542 61.167724,39.02371 59.907726,38.432427 58.593575,37.815732 58.545195,37.77104 58.004299,36.674175 l -0.554995,-1.125474 -0.943357,0.805934 -0.943357,0.805936 1.857923,1.904239 c 1.854629,1.900866 4.205835,4.743428 5.122412,6.192907 0.779532,1.232744 0.65746,0.5929 -0.251578,-1.318676 z m 0.397642,-7.281877 c 0.23573,-0.533041 0.402072,-0.995699 0.369647,-1.028128 -0.03245,-0.03242 -0.54076,-0.109314 -1.129619,-0.170867 l -1.070666,-0.111901 0.438247,-0.438244 0.438238,-0.438242 1.195198,0.351973 c 1.074261,0.316358 1.205788,0.324383 1.299827,0.07931 0.137027,-0.357079 -0.673899,-1.009437 -1.43356,-1.15324 -0.315689,-0.05976 -0.991844,-0.06553 -1.502569,-0.01282 -1.051738,0.108551 -1.069296,-0.05388 -0.06141,-0.568069 0.906238,-0.462328 2.562323,-0.479191 2.680499,-0.0273 0.08842,0.338298 0.895832,0.886852 1.305269,0.886852 0.312717,0 0.43577,-0.587541 0.57817,-2.76051 0.08803,-1.343979 0.165254,-1.693134 0.384893,-1.74137 0.291757,-0.06407 -1.692096,-1.160356 -2.077435,-1.147995 -0.120537,0.0038 0.12797,0.321832 0.552235,0.70659 l 0.771399,0.69956 -0.734475,-0.122685 c -0.496704,-0.08297 -0.817679,-0.05363 -0.991513,0.09064 -0.20518,0.170286 -0.338835,0.16956 -0.662376,-0.0036 -0.222933,-0.119309 -0.720132,-0.186903 -1.104889,-0.150211 -0.76586,0.07304 -0.877992,-0.04409 -0.877992,-0.917098 0,-0.552724 0.0087,-0.554086 1.285661,-0.198473 0.328001,0.09136 0.326767,0.07883 -0.02857,-0.289061 -0.259206,-0.268385 -0.642087,-0.410557 -1.2675,-0.470651 -0.883414,-0.08489 -0.889069,-0.08903 -0.400003,-0.292644 L 61.1418,27.222453 60.598572,27.099761 c -0.400994,-0.09057 -0.737633,-0.02413 -1.285661,0.25375 -0.408339,0.207042 -0.793378,0.455877 -0.855653,0.552966 -0.06229,0.09709 -0.166721,0.780984 -0.232115,1.519764 -0.111034,1.254368 -0.145082,1.343239 -0.514544,1.343239 -0.325912,0 -0.415443,-0.117149 -0.507947,-0.664692 l -0.112297,-0.66469 -0.888437,0.199668 c -0.805796,0.181097 -0.887816,0.242927 -0.881684,0.664692 0.0068,0.457173 -0.01147,0.465022 -1.071386,0.465022 -2.063404,0 -1.056062,0.282714 2.393144,0.671642 1.909208,0.21528 3.693274,0.443963 3.964596,0.508185 l 0.493313,0.116768 -1.320447,1.233149 c -1.424912,1.330709 -1.394644,1.235822 -0.82726,2.593778 l 0.255173,0.610719 0.327408,-0.595787 0.327418,-0.595787 -0.04586,0.831741 -0.04586,0.831744 0.771389,0.307577 c 0.424275,0.169167 0.984507,0.315575 1.244966,0.325352 0.416434,0.01563 0.525291,-0.09916 0.902187,-0.951395 z m 2.560487,-10.554989 c -3.778198,-3.979711 -5.095925,-5.336552 -7.332939,-7.550612 -3.120623,-3.088599 -4.904523,-4.459704 -7.50925,-5.771616 -2.723137,-1.371545 -4.531864,-1.78889 -7.295772,-1.683424 -1.469047,0.05606 -2.353111,0.183607 -3.215926,0.463984 l -1.18992,0.386678 0.994807,0.60845 0.994807,0.608451 -1.220597,0.309972 c -1.275623,0.323949 -2.546602,0.831954 -3.274682,1.30888 -0.421215,0.27591 -0.398254,0.286073 1.339754,0.593054 2.090582,0.369256 3.598175,0.847404 4.659989,1.477961 l 0.771398,0.45809 -1.665695,0.10914 c -1.726162,0.113103 -4.076922,0.596544 -4.076922,0.838431 0,0.210192 1.519418,1.516371 2.48561,2.136774 0.963966,0.618973 2.770759,1.364108 3.706983,1.528789 l 0.6214,0.109303 0.393026,-0.968348 c 0.548874,-1.352339 1.856047,-2.64945 3.055092,-3.031589 2.15449,-0.686637 4.679414,-0.116398 8.256483,1.864674 1.637099,0.906666 3.439665,2.151877 7.280323,5.029226 1.131387,0.847611 2.211333,1.656622 2.399897,1.797801 0.724729,0.542615 0.636782,0.234019 -0.177866,-0.624073 z"
       id="path1" /></g></svg>
