<?xml version="1.0" encoding="UTF-8" standalone="no"?>
<!-- Created with Inkscape (http://www.inkscape.org/) -->

<svg
   width="105.83334mm"
   height="105.83334mm"
   viewBox="0 0 105.83333 105.83333"
   version="1.1"
   id="svg1"
   xml:space="preserve"
   inkscape:version="1.4 (e7c3feb100, 2024-10-09)"
   sodipodi:docname="memphis.svg"
   inkscape:export-filename="../pngs/charlotte.png"
   inkscape:export-xdpi="96"
   inkscape:export-ydpi="96"
   xmlns:inkscape="http://www.inkscape.org/namespaces/inkscape"
   xmlns:sodipodi="http://sodipodi.sourceforge.net/DTD/sodipodi-0.dtd"
   xmlns="http://www.w3.org/2000/svg"
   xmlns:svg="http://www.w3.org/2000/svg"><sodipodi:namedview
     id="namedview1"
     pagecolor="#ffffff"
     bordercolor="#000000"
     borderopacity="0.25"
     inkscape:showpageshadow="2"
     inkscape:pageopacity="0.0"
     inkscape:pagecheckerboard="0"
     inkscape:deskcolor="#d1d1d1"
     inkscape:document-units="mm"
     inkscape:zoom="0.92987931"
     inkscape:cx="279.06848"
     inkscape:cy="170.98993"
     inkscape:window-width="1920"
     inkscape:window-height="1011"
     inkscape:window-x="0"
     inkscape:window-y="32"
     inkscape:window-maximized="1"
     inkscape:current-layer="layer1"
     showgrid="false"
     showguides="true" /><defs
     id="defs1" /><g
     inkscape:label="Capa 1"
     inkscape:groupmode="layer"
     id="layer1"><rect
       style="fill:#003087;fill-rule:evenodd;stroke-width:0.264583;fill-opacity:1"
       id="rect4"
       width="11.029848"
       height="11.029848"
       x="-4.0108538"
       y="-16.645042"
       ry="0.029487522" /><rect
       style="fill:#ffffff;fill-rule:evenodd;stroke-width:0.264583"
       id="rect4-9"
       width="11.029848"
       height="11.029848"
       x="22.447479"
       y="-16.645042"
       ry="0.029487522" /><rect
       style="fill:#898d8d;fill-rule:evenodd;stroke-width:0.264583;fill-opacity:1"
       id="rect4-5"
       width="11.029848"
       height="11.029848"
       x="9.2183123"
       y="-16.645042"
       ry="0.029487522" /><g
       id="g9"
       transform="matrix(0.85169492,0,0,0.85169492,7.8478112,10.720053)"><g
         id="g4"
         transform="translate(0.76335155,14.214225)"><path
           style="-inkscape-font-specification:'Ranked Sports';fill:#003087"
           d="M 95.634278,93.351736 H 64.718628 V 77.946488 h 6.204161 L 71.080522,54.181396 57.936113,93.351736 H 45.580368 L 32.541114,55.548414 32.909157,77.946488 h 6.729938 V 93.351736 H 8.6708672 V 77.946488 H 14.61214 V 33.570962 H 8.6708672 V 18.165714 H 40.217449 L 52.468038,58.177296 64.403162,18.165714 h 31.231116 v 15.405248 h -5.99385 v 44.375526 h 5.99385 z"
           id="path3" /><path
           style="-inkscape-font-specification:'Ranked Sports';fill:#003087;fill-opacity:1"
           d="M 6.5214844,16.015625 V 35.720703 H 12.462891 V 75.796875 H 6.5214844 V 95.501953 H 41.789062 v -6.544922 l 2.257813,6.544922 h 15.435547 l 3.085937,-9.195312 v 9.195312 H 97.785156 V 75.796875 h -5.99414 V 35.720703 h 5.99414 V 16.015625 H 62.800781 L 52.441406,50.746094 41.808594,16.015625 Z m 4.2988286,4.300781 h 27.80664 L 52.494141,65.609375 66.005859,20.316406 h 27.478516 v 11.105469 h -5.994141 v 48.673828 h 5.994141 V 91.201172 H 66.869141 V 80.095703 h 6.189453 l 0.171875,-25.900391 -4.1875,-0.697265 -12.652344,37.703125 h -9.277344 l -12.539062,-36.353516 -4.183594,0.736328 0.404297,24.511719 h 6.693359 V 91.201172 H 10.820313 V 80.095703 h 5.941406 V 31.421875 h -5.941406 z m 58.021484,47.296875 -0.05469,8.183594 H 66.095703 Z M 34.912109,69.019531 37.25,75.796875 h -2.226563 z"
           id="path4" /><path
           style="-inkscape-font-specification:'Ranked Sports';fill:#ffffff;fill-opacity:1"
           d="M 7.8408051,17.33442 V 34.402779 H 13.780258 V 77.11567 H 7.8408051 V 94.182079 H 40.469711 V 81.08442 l 4.517578,13.097659 H 58.534164 L 63.88768,78.228951 V 94.182079 H 96.465805 V 77.11567 H 90.471664 V 34.402779 h 5.994141 V 17.33442 H 63.784164 l -11.326172,37.96875 -11.625,-37.96875 z m 1.6601561,1.662109 H 39.602524 l 12.875,42.052734 12.544921,-42.052734 h 29.78125 V 32.74067 h -5.99414 v 46.037109 h 5.99414 V 92.519966 H 65.549789 V 78.777779 h 6.199219 L 71.911117,54.185982 70.291977,53.916451 57.338852,92.519966 H 46.172836 l -12.845703,-37.242187 -1.617188,0.285156 0.38086,23.214844 h 6.716797 V 92.519966 H 9.5009612 V 78.777779 H 15.442367 V 32.74067 H 9.5009612 Z M 70.213852,59.373482 70.096664,77.11567 h -5.835937 z m -36.75586,1.382813 5.642578,16.359375 h -5.373046 z"
           id="path2" /></g><g
         id="g8"
         transform="matrix(0.76600695,0,0,0.76600695,-102.5482,39.430561)"><path
           style="fill:#898d8d;fill-opacity:1;stroke:none;stroke-width:4.30001;stroke-dasharray:none;stroke-opacity:1"
           d="m 177.57195,-50.849421 -14.27633,38.01676 6.73714,3.3685732 -5.61429,5.4538811 -3.36857,11.2285786 4.65184,24.7028741 20.21144,13.634701 27.59022,0.962451 c 0,0 19.56981,-6.255922 20.85308,-8.180821 1.28326,-1.924899 8.02041,-18.928177 8.02041,-18.928177 l 1.44368,-16.3616429 c 0,0 -3.04776,-7.218372 -3.52898,-7.8600051 -0.48123,-0.6416331 -4.33103,-4.0102067 -4.33103,-4.0102067 l 6.25592,-3.3685733 -13.47429,-38.979208 h -5.45388 l -6.41633,-5.614292 -8.18082,-3.368571 -4.17062,-2.566533 h -3.52898 l -2.56653,2.085306 -5.61429,2.085308 -6.09552,3.849799 -2.72694,3.368574 z"
           id="path6" /><path
           style="fill:#ffffff;fill-opacity:1;stroke:none;stroke-width:4.30001;stroke-dasharray:none;stroke-opacity:1"
           d="m 193.70501,-42.768855 -5.41378,4.006196 -0.32482,2.165514 -2.27379,1.624132 -0.75793,2.706891 1.08276,5.197226 0.75793,2.598615 3.35654,-0.324827 6.82136,12.126865 11.04411,0.757929 6.06343,-9.419975 1.51586,-4.222748 3.24827,0.866205 1.62413,-5.63033 -0.54138,-5.088953 -3.46481,-3.356544 c 0,0 -3.35655,-4.331023 -3.89793,-4.331023 -0.54137,0 -18.83995,0.324827 -18.83995,0.324827 z"
           id="path7" /><path
           style="fill:#ffffff;fill-opacity:1;stroke:none;stroke-width:4.30001;stroke-dasharray:none;stroke-opacity:1"
           d="m 199.29085,-11.201691 -2.48139,24.034008 10.77631,1.063452 0.70897,-2.268697 -1.84332,-23.679525 z"
           id="path8" /><path
           style="fill:#003087;fill-opacity:1;stroke-width:0.378166"
           d="m 201.65793,49.759218 c -0.0275,-0.02704 -1.37828,-0.07538 -3.0017,-0.107426 -3.5605,-0.07028 -7.1848,-0.385733 -9.35527,-0.814267 -0.38522,-0.07606 -0.99306,-0.191598 -1.35076,-0.256763 -0.95252,-0.173522 -4.30521,-1.041594 -5.38682,-1.394741 -7.61729,-2.487062 -13.77911,-7.24424 -17.41582,-13.445716 -2.49394,-4.25278 -4.10457,-9.183475 -4.71108,-14.422175 -0.20903,-1.805603 -0.39922,-4.737457 -0.39916,-6.153473 1.6e-4,-3.7266578 0.65942,-9.3569032 1.44637,-12.35228693 0.616,-2.34469427 1.90277,-5.00113867 3.34648,-6.90857617 0.67973,-0.8980691 1.94121,-2.1788256 2.77516,-2.8175816 0.40685,-0.3116198 0.72465,-0.6118167 0.70622,-0.6671042 -0.0641,-0.192232 -3.34864,-1.5684051 -5.04683,-2.1145261 l -0.52183,-0.16782 0.25453,-0.668487 c 0.39806,-1.04542 0.56623,-1.504744 1.49026,-4.070406 0.47567,-1.320745 1.27104,-3.504477 1.76749,-4.852737 0.49645,-1.348261 1.62152,-4.409987 2.50014,-6.803838 0.87863,-2.39385 1.91529,-5.207937 2.3037,-6.253526 0.3884,-1.04559 0.85623,-2.328814 1.03962,-2.851609 0.18338,-0.522794 0.44187,-1.243201 0.57441,-1.600902 0.60638,-1.636501 1.56174,-4.303987 1.72009,-4.802709 0.0961,-0.302673 0.21889,-0.662876 0.27287,-0.800453 0.054,-0.137576 0.31483,-0.857983 0.57966,-1.600901 0.60071,-1.685161 1.86559,-5.158087 2.01537,-5.533504 l 0.11192,-0.280538 2.83585,0.07068 2.83584,0.07068 0.22583,-0.29042 c 0.89877,-1.155834 3.28305,-3.434739 4.67096,-4.464515 1.462,-1.08475 1.51376,-1.120831 2.21001,-1.540384 2.22295,-1.339528 4.78852,-2.376089 7.15403,-2.890432 0.89358,-0.194295 1.12768,-0.282676 1.24444,-0.469826 0.0791,-0.126784 0.43068,-0.516715 0.78131,-0.866515 0.56617,-0.564844 0.62175,-0.654397 0.49675,-0.800449 -0.23763,-0.277646 -0.27604,-0.515274 -0.1292,-0.799235 0.0974,-0.188414 0.1107,-0.325344 0.0432,-0.445933 -0.14609,-0.261037 -0.009,-0.552384 0.34714,-0.73891 0.43418,-0.227263 1.45568,-0.228613 1.80095,-0.0023 0.34435,0.225629 1.55487,0.235192 1.97944,0.01566 1.02626,-0.530703 2.49589,-0.0011 2.09186,0.753859 -0.0865,0.161643 -0.0894,0.253776 -0.0103,0.332839 0.15866,0.158659 0.13399,0.624673 -0.0408,0.769696 -0.23312,0.19347 -0.18039,0.367729 0.20311,0.671116 0.19426,0.153679 0.55503,0.535241 0.80172,0.847917 0.41434,0.525166 0.49228,0.576869 1.02258,0.678411 0.6179,0.118309 2.1936,0.531278 2.92538,0.766694 1.78812,0.575251 5.17175,2.144587 6.65375,3.086027 2.5118,1.595611 4.30985,2.972295 6.11537,4.682237 l 0.71456,0.676732 2.64962,0.0644 2.64962,0.06441 0.25305,0.759713 c 0.13917,0.417839 1.61453,4.879533 3.27858,9.914874 1.66405,5.03534 4.53171,13.669354 6.37257,19.186699 1.84087,5.517345 3.33124,10.078912 3.31194,10.136817 -0.0193,0.0579 -0.66454,0.342786 -1.43386,0.633069 -1.507,0.568634 -3.68002,1.5670103 -3.78683,1.7398295 -0.0361,0.058426 0.0812,0.2087545 0.2607,0.3340636 2.66641,1.8614421 5.11383,5.5914931 6.2148,9.4718108 0.37132,1.3087306 1.16494,5.4993168 1.35883,7.1751649 0.37881,3.2740652 0.4323,4.2864232 0.37961,7.1844942 -0.0292,1.606665 -0.10272,3.30392 -0.16334,3.771685 -0.0606,0.467765 -0.15897,1.233196 -0.21856,1.700961 -0.50645,3.975962 -2.07017,8.822553 -3.94225,12.218605 -3.79236,6.879544 -9.73033,11.622952 -18.06105,14.427655 -3.92115,1.320132 -8.51668,2.206826 -13.55765,2.61591 -1.62654,0.131996 -8.16855,0.312997 -8.25466,0.228383 z m 3.7214,-4.270017 c 1.69828,-0.349429 3.47616,-1.147265 4.70514,-2.111448 l 0.47205,-0.370346 2.22947,-0.0526 c 4.61371,-0.108859 8.29472,-0.941747 11.84684,-2.680543 4.60938,-2.256324 8.38976,-6.100533 10.88107,-11.06476 2.23775,-4.45899 3.5955,-9.312978 4.32012,-15.444505 0.16208,-1.371491 0.29585,-7.5613466 0.18004,-8.3306347 l -0.0566,-0.3761482 -4.91672,0.02595 -4.91672,0.02595 0.0113,0.2501414 c 0.006,0.1375775 0.11725,1.1506488 0.24678,2.2512697 0.20821,1.7692401 0.23542,2.4417188 0.23489,5.8032748 -7.6e-4,3.956479 -0.0661,4.894089 -0.54119,7.754374 -0.66254,3.988529 -1.97261,7.585429 -3.75166,10.300532 -1.62835,2.485099 -3.64584,4.348274 -6.06965,5.605394 -2.52593,1.310084 -5.06186,1.95859 -8.44078,2.158534 l -1.10062,0.06513 -1.10062,-0.548586 c -2.38954,-1.19103 -4.50252,-1.634763 -7.35415,-1.544396 -2.42158,0.07674 -4.21008,0.508206 -6.43107,1.55146 l -1.02313,0.480585 -1.25071,-0.07485 c -2.2413,-0.134135 -4.31451,-0.502673 -5.62898,-1.00062 -0.28847,-0.109278 -0.63706,-0.234837 -0.77463,-0.279014 -0.45053,-0.144679 -1.39002,-0.604143 -2.26608,-1.108254 -2.06551,-1.188549 -3.84088,-2.89584 -5.40738,-5.200043 -1.03209,-1.518129 -2.0823,-3.814732 -2.74527,-6.003387 -0.15836,-0.522791 -0.3311,-1.085608 -0.38387,-1.250704 -0.29211,-0.913929 -0.8053,-3.803753 -1.06465,-5.995104 -0.1858,-1.569874 -0.26458,-6.809209 -0.13103,-8.7131903 0.0896,-1.2777127 0.33811,-3.5875089 0.45478,-4.2273855 l 0.0593,-0.3251835 h -4.95803 c -3.50636,0 -4.97799,0.032314 -5.02623,0.1103727 -0.14662,0.2372243 -0.0755,6.4135896 0.0938,8.1442846 0.44662,4.566484 1.0888,7.774811 2.20852,11.033721 1.67182,4.865783 3.72431,8.329062 6.85331,11.563932 2.56371,2.650467 6.31415,4.848981 10.01159,5.868819 0.24764,0.0683 0.65287,0.184008 0.9005,0.257119 1.5019,0.443396 4.38888,0.812622 7.05398,0.902157 l 2.00113,0.06723 0.92633,0.540937 c 1.69197,0.988038 3.49925,1.698529 5.02703,1.976273 1.17689,0.213947 3.49558,0.19603 4.62191,-0.03574 z m 8.06775,-9.520727 c 2.83807,-1.177859 4.53244,-2.201566 6.22086,-3.758524 3.5685,-3.290657 5.50882,-7.00328 6.6069,-12.641683 0.41356,-2.123572 0.47822,-3.313366 0.54352,-10.0018918 0.0346,-3.5474411 0.0872,-6.4740916 0.11686,-6.5036691 0.0296,-0.029576 3.64086,-0.055407 8.02494,-0.057399 l 7.97105,-0.00363 -0.0326,-0.2465193 c -0.0716,-0.540734 -0.54602,-2.29554999 -0.83765,-3.09812726 -1.08548,-2.98723164 -2.71018,-5.34651964 -4.8884,-7.09861814 -0.53817,-0.432892 -1.0721,-0.8167827 -1.18649,-0.8530908 -0.52269,-0.1658935 -4.34273,2.7570494 -5.72486,4.3804229 -0.33699,0.3958226 -0.72235,0.8461994 -0.85635,1.0008372 -0.40872,0.4716914 -1.29855,1.9050827 -1.66627,2.68414181 -0.34763,0.73649162 -0.79635,2.10540579 -0.92207,2.81295749 l -0.0667,0.3752119 h -6.29242 -6.29242 V 2.0091896 1.0594868 l 5.62515,-0.025848 5.62514,-0.025848 0.28716,-0.78314138 c 0.15794,-0.43072773 0.27186,-0.79670965 0.25317,-0.81329261 -0.0187,-0.0165826 -2.67912,-0.0468854 -5.91206,-0.0673381 l -5.87807,-0.0371889 -2.5e-4,-0.92552221 -2.4e-4,-0.925522 h 6.43009 6.43011 l 0.58379,-0.8071868 c 0.32109,-0.4439525 0.56215,-0.8288295 0.5357,-0.8552826 -0.0264,-0.026453 -2.99135,-0.063446 -6.58866,-0.082206 -3.5973,-0.018761 -6.73191,-0.039112 -6.96579,-0.045225 l -0.42524,-0.011114 v -0.8504796 -0.8504795 h 7.85867 7.85867 l 0.73736,-0.6253528 c 0.40555,-0.3439439 0.74133,-0.6591218 0.74618,-0.7003949 0.005,-0.041273 -1.15441,-0.075043 -2.57615,-0.075043 -1.42174,0 -5.29392,-0.029894 -8.60485,-0.06643 l -6.01987,-0.06642 V -8.31385 -9.0478713 h 9.77052 9.77053 L 234.477,-9.542426 c 0.42403,-0.2720053 0.98009,-0.596155 1.23568,-0.720333 0.2556,-0.124178 0.46472,-0.261831 0.46472,-0.305896 0,-0.04406 -4.95469,-0.08012 -11.01042,-0.08012 h -11.01042 l 0.0292,-0.752237 0.0292,-0.752236 12.59233,0.0026 12.59233,0.0026 0.69371,-0.270952 c 0.682,-0.266379 0.6926,-0.276104 0.62829,-0.576083 -0.036,-0.167821 -0.10669,-0.383924 -0.15715,-0.480228 -0.0864,-0.164915 -0.73318,-0.176554 -11.11944,-0.200113 -10.52339,-0.02387 -17.39065,-0.0042 -17.43508,0.04996 -0.0385,0.04696 -0.21055,50.052949 -0.17244,50.128341 0.0567,0.112152 0.0322,0.12029 1.60952,-0.534345 z m 0.61784,-4.393434 v -1.000564 l 2.27629,0.0039 2.27628,0.0039 -0.50028,0.447998 c -0.27516,0.246402 -0.86049,0.695119 -1.30074,0.997148 l -0.80044,0.549151 -0.97556,-3.79e-4 -0.97555,-3.78e-4 z m 0,-3.499523 V 27.17746 l 3.61046,-0.02745 c 1.98575,-0.01509 3.62697,-0.01089 3.64716,0.0093 0.0334,0.03347 -0.7526,1.218746 -1.08699,1.639153 -0.12711,0.159805 -0.40264,0.175098 -3.15495,0.175098 h -3.01568 z m 0.0213,-3.607632 0.0288,-0.905859 4.49618,0.0062 c 2.47289,0.0034 4.50583,0.0166 4.51762,0.02927 0.0118,0.01267 -0.15189,0.405757 -0.36374,0.873522 l -0.3852,0.85048 -4.16121,0.02613 -4.16121,0.02613 z m -0.0213,-3.609587 c 0,-0.7898 0.0211,-0.903121 0.15827,-0.850481 0.0871,0.03339 2.36646,0.06073 5.06536,0.06073 h 4.90709 l -0.0607,0.303406 c -0.0334,0.166874 -0.13225,0.549589 -0.21972,0.850481 l -0.15904,0.547074 h -4.84564 -4.84564 z m 0.0609,-2.789455 c -0.012,-0.02829 -0.019,-0.411653 -0.0156,-0.851899 l 0.006,-0.800452 5.3372,-0.02591 5.3372,-0.0259 -0.0652,0.626235 c -0.0359,0.34443 -0.0899,0.754544 -0.12013,0.911369 l -0.0549,0.28513 -5.20147,-0.03358 c -2.86081,-0.01845 -5.2113,-0.05672 -5.22331,-0.08502 z m 0.0392,-4.478946 -2e-5,-0.875492 5.35304,0.02674 5.35304,0.02674 v 0.848763 0.848767 h -5.35302 -5.35302 z m 5.22797,-2.80156 -5.22795,-0.02681 V 9.9119373 9.0623517 h 5.35302 5.35302 v 0.9005095 c 0,0.6665558 -0.0325,0.8942458 -0.12507,0.8764038 -0.0688,-0.01324 -2.47765,-0.03615 -5.35302,-0.05092 z M 214.16498,6.0606504 V 5.1601425 h 5.41097 5.41098 l -0.0327,0.9005079 -0.0327,0.9005079 h -5.37831 -5.37831 z m 18.97076,-4.5775559 -3.49192,-0.027667 0.0661,-0.97423664 c 0.19172,-2.82502836 1.35276,-4.71369656 3.25211,-5.29018956 0.35989,-0.1092367 0.92578,-0.1737068 1.56442,-0.1782316 0.84545,-0.00599 1.14792,0.039347 1.9511,0.2924476 l 0.95054,0.2995358 -1.45082,0.057544 c -2.41206,0.09567 -3.30187,0.4974022 -3.30187,1.4907386 0,0.479406 0.3201,1.0014302 1.16438,1.8989068 0.6379,0.67808387 2.04417,1.82952424 2.9009,2.3752137 0.13082,0.083321 0.14196,0.1138329 0.037,0.1013958 -0.0825,-0.00978 -1.72144,-0.030242 -3.642,-0.045458 z m 3.39186,-2.7163283 c -1.98687,-0.6923612 -2.86736,-1.4368778 -2.27629,-1.924768 0.59206,-0.4887036 3.27722,-1.1735204 3.90049,-0.9947704 0.52358,0.1501607 0.91483,0.4297892 1.0757,0.768815 0.20198,0.4256388 0.19654,0.4390697 -0.12823,0.3164834 -0.66032,-0.2492439 -1.43881,0.5395809 -1.57793,1.5988778 -0.0379,0.2889128 -0.097,0.52282068 -0.13114,0.51979497 -0.0342,-0.003025 -0.42235,-0.13102027 -0.8626,-0.28443277 z m 0.45952,-0.8655075 c 0.63489,-0.3283121 0.56379,-1.0653452 -0.12812,-1.3282444 -0.33169,-0.1260264 -0.40701,-0.1213644 -0.74498,0.046106 -0.84066,0.416576 -0.55028,1.3508171 0.44356,1.4270414 0.0715,0.00549 0.26481,-0.059721 0.42954,-0.144903 z M 193.05648,35.90248 c 0.0931,-4.778071 0.20314,-23.646325 0.21731,-37.2460056 l 0.0129,-12.3569694 -14.00841,-0.02536 -14.00842,-0.02536 -0.11627,0.255195 c -0.22362,0.490776 -0.159,0.583564 0.60913,0.874746 l 0.72541,0.274986 3.65206,-0.0017 c 2.00863,-9.07e-4 7.5355,0.02824 12.28192,0.06479 l 8.62987,0.06645 v 0.784232 0.784232 l -3.12676,-0.04801 c -8.7977,-0.135085 -18.00472,-0.165192 -17.93888,-0.05866 0.0376,0.06084 0.3465,0.249823 0.68643,0.419964 0.33994,0.17014 0.94641,0.5126722 1.34771,0.761181 l 0.72965,0.4518347 2.17199,-0.014208 c 1.19459,-0.00781 5.31251,0.015528 9.15092,0.051867 l 6.97894,0.066074 v 0.7355881 0.7355882 h -8.01285 c -4.41836,0 -7.99789,0.038519 -7.9795,0.085867 0.0183,0.047227 0.35515,0.3624045 0.74846,0.7003949 l 0.7151,0.6145282 h 7.2644 7.26439 v 0.9005079 0.9005079 H 184.59 c -3.55408,0 -6.44697,0.035888 -6.42862,0.079748 0.0183,0.043862 0.25508,0.4265774 0.52608,0.8504796 l 0.49273,0.7707315 2.95922,0.00384 c 1.62757,0.00212 4.28746,0.028487 5.91088,0.058616 l 2.95166,0.054776 0.0288,0.8919202 0.0288,0.89192021 h -5.50685 c -3.02878,0 -5.50687,0.0144913 -5.50687,0.0322046 0,0.0177133 0.064,0.23158284 0.1423,0.47526813 0.0783,0.24368491 0.16905,0.60494996 0.20175,0.8028106 l 0.0594,0.35974709 5.12751,0.07147 c 2.82013,0.0393089 5.20575,0.0414508 5.30136,0.004761 0.15802,-0.0606389 0.17384,0.025333 0.17384,0.9445586 v 1.0112694 h -6.05341 -6.05341 V 2.5717819 c 0,-0.6117993 -0.27388,-2.00385118 -0.53408,-2.71462977 -0.2164,-0.59110379 -0.7798,-1.75105493 -1.09253,-2.24932723 -0.66294,-1.0562533 -2.03594,-2.5652244 -3.27616,-3.6006162 -0.71057,-0.5932128 -2.45116,-1.8544022 -2.55929,-1.8544022 -0.0276,0 -0.19479,-0.098373 -0.37141,-0.2186068 -0.17662,-0.1202334 -0.4478,-0.3037907 -0.60262,-0.4079047 l -0.2815,-0.1892985 -0.70318,0.4760807 c -0.99026,0.670437 -2.1404,1.686708 -2.76697,2.4449086 -1.23595,1.4956066 -2.37423,3.4772663 -3.06742,5.34014906 -0.37309,1.00264072 -0.85393,2.77985364 -0.85393,3.15615684 0,0.2043938 0.008,0.2046094 7.96091,0.2046094 h 7.96092 l -0.0689,1.7760016 c -0.0379,0.976801 -0.0746,3.8021461 -0.0815,6.2785413 -0.0137,4.902768 0.0871,6.263031 0.68534,9.255221 1.1742,5.872786 4.0466,10.389409 8.50732,13.377083 0.89558,0.599836 2.59256,1.481473 3.81746,1.983292 1.19629,0.490092 1.43381,0.535229 1.43891,0.27344 z m -4.62192,-4.255933 c -0.44902,-0.309809 -1.09635,-0.828898 -1.73214,-1.388985 -0.16663,-0.146785 -0.27387,-0.295975 -0.23831,-0.331531 0.0356,-0.03555 1.05985,-0.03252 2.27621,0.0067 l 2.21157,0.07137 v 0.985569 0.985569 l -1.02558,-0.0034 c -0.98874,-0.0034 -1.04232,-0.01509 -1.49175,-0.325181 z m -3.88473,-4.023736 c -0.259,-0.385215 -0.52447,-0.801701 -0.58995,-0.92552 l -0.11904,-0.22513 h 3.55553 3.55552 v 0.897596 0.897596 l -2.96558,0.02795 -2.96558,0.02791 z m -1.8479,-3.376902 c -0.0967,-0.233884 -0.2609,-0.639112 -0.36497,-0.900508 l -0.18922,-0.475271 h 4.40208 4.40207 v 0.900508 0.900508 h -4.03711 -4.0371 z m 3.53688,-3.151745 -4.66305,-0.027 -0.17432,-0.674399 c -0.0959,-0.37092 -0.19552,-0.753197 -0.22144,-0.849501 -0.0444,-0.165024 0.23541,-0.175098 4.86238,-0.175098 h 4.90951 v 0.900508 c 0,0.49528 -0.0113,0.889707 -0.025,0.876505 -0.0138,-0.0132 -2.12338,-0.03615 -4.68806,-0.05101 z m -5.54095,-4.30246 c -0.0353,-0.371461 -0.0727,-0.765431 -0.083,-0.875496 -0.0186,-0.197633 0.0453,-0.200265 5.15912,-0.2124 l 5.17792,-0.01229 v 0.887783 0.887786 h -5.09491 -5.09492 z m -0.21025,-3.01837 c -0.0229,-0.02292 -0.0416,-0.416901 -0.0416,-0.875492 v -0.833803 h 5.25296 5.25296 v 0.848718 0.848718 l -5.21132,0.02677 c -2.86622,0.01471 -5.23006,0.008 -5.25296,-0.0149 z m -0.0416,-4.1982004 c 0,-0.3233093 0.0282,-0.728934 0.0627,-0.9013929 l 0.0627,-0.3135643 5.20694,0.025901 5.20694,0.025901 -0.008,0.375213 c -0.005,0.2063652 -0.0121,0.6003386 -0.0167,0.8754922 l -0.008,0.5002854 h -5.25297 -5.25296 z m 0.10009,-3.9897513 -4e-5,-0.9255221 h 5.25297 5.25296 v 0.8886985 0.8886982 l -2.57646,0.066908 c -1.41705,0.036799 -3.78086,0.05337 -5.25292,0.036822 L 180.5461,6.510904 Z M 169.13959,1.4147867 c 0,-0.02519 0.41391,-0.329287 0.9198,-0.6757763 1.14103,-0.78150964 2.77639,-2.3416432 3.06928,-2.9280899 0.30497,-0.6106365 0.30647,-1.0931525 0.004,-1.4164807 -0.50306,-0.5385039 -1.22777,-0.7305011 -3.11616,-0.8255652 l -1.32759,-0.066833 0.80045,-0.2680706 c 1.46881,-0.4919067 2.90233,-0.4634882 4.13937,0.082059 0.97638,0.4305965 1.76593,1.3871206 2.20973,2.6770511 0.253,0.7353688 0.52668,2.40272725 0.4867,2.96521899 l -0.032,0.44972601 -3.57701,0.026279 c -1.96736,0.014454 -3.57702,0.00567 -3.57702,-0.019517 z M 168.437,-1.468596 c -0.003,-0.5383769 -0.28931,-1.1756733 -0.65949,-1.4668581 -0.21876,-0.1720716 -0.38753,-0.2174103 -0.71297,-0.1915275 -0.48277,0.038396 -0.51178,-0.026313 -0.22368,-0.4988487 0.43263,-0.7096082 1.29003,-0.7992222 3.13989,-0.3281774 1.33246,0.3392951 1.96042,0.6744822 1.96042,1.0464165 0,0.3036552 -0.3631,0.6895298 -0.91289,0.970157 -0.48505,0.2475853 -2.26648,0.894078 -2.46366,0.894078 -0.0805,0 -0.12621,-0.1522671 -0.12762,-0.4252398 z m 1.57808,-0.7743408 c 0.65718,-0.4006904 0.29666,-1.305003 -0.51772,-1.2986483 -0.63541,0.00496 -1.04754,0.4489652 -0.86424,0.9310834 0.12278,0.3229477 0.28802,0.4141981 1.00675,0.555965 0.0275,0.00543 0.19636,-0.079353 0.37521,-0.1884001 z M 204.00925,28.67159 c 1.14484,-0.110655 2.73681,-0.484824 3.66611,-0.861666 0.8371,-0.339453 2.20693,-1.020496 2.35255,-1.169626 0.15234,-0.156016 0.23665,-21.6418691 0.0848,-21.6077794 -0.14492,0.032534 -1.49259,0.5362667 -1.52714,0.5708182 -0.029,0.029017 0.15322,2.1819255 0.22505,2.658555 0.0207,0.1375776 0.0677,0.5653201 0.10449,0.9505351 0.0368,0.3852189 0.16953,1.6234191 0.29507,2.7515531 0.17658,1.586807 0.20754,2.202749 0.13675,2.720768 -0.34332,2.512214 -2.14522,4.624661 -4.65948,5.462499 -0.67803,0.225947 -0.94573,0.259312 -2.07898,0.259116 -1.1409,-1.97e-4 -1.39909,-0.03294 -2.10118,-0.266516 -1.78569,-0.59405 -3.22478,-1.820496 -4.00179,-3.410472 -0.68619,-1.404131 -0.86139,-2.580499 -0.60541,-4.064998 0.0453,-0.262882 0.23307,-1.875514 0.55912,-4.8027108 0.10728,-0.9630433 0.2185,-1.8904604 0.24718,-2.0609271 l 0.0521,-0.3099392 -0.85582,-0.2783945 c -0.4707,-0.1531171 -0.87151,-0.261284 -0.89069,-0.240371 -0.0192,0.020913 -0.0678,4.8833769 -0.10803,10.8054736 l -0.0732,10.76745 1.13728,0.560734 c 1.75181,0.863735 3.53046,1.378808 5.37793,1.557382 1.21171,0.117122 1.52906,0.118139 2.66323,0.0085 z m 3.58303,-16.76519 c -0.0105,-0.105909 -0.13505,-1.318196 -0.27688,-2.6939731 -0.40818,-3.9594836 -0.57793,-5.8463805 -0.95416,-10.6059808 -0.14183,-1.7942777 -0.49551,-8.1526409 -0.49958,-8.9814901 l -0.002,-0.27658 -3.12677,0.02644 -3.12676,0.02644 -0.0227,0.500282 c -0.0871,1.9168595 -0.47459,7.6393994 -0.63018,9.30524781 -0.44616,4.77729909 -0.88017,8.86487699 -1.28545,12.10682919 -0.0482,0.385218 -0.0721,0.727625 -0.0532,0.760904 0.0189,0.03328 2.27572,0.0524 5.01521,0.04248 4.85006,-0.01755 4.98038,-0.02307 4.96188,-0.210593 z M 197.07391,2.1502724 c 0.2412,-2.20615078 0.2636,-2.03502761 -0.29373,-2.24415722 -0.2614,-0.09808531 -0.73872,-0.30976451 -1.06072,-0.47039886 -0.322,-0.16063435 -0.60827,-0.26924477 -0.63615,-0.24135692 -0.0279,0.027886 -0.0747,0.89872826 -0.10406,1.9352009 l -0.0533,1.8844959 0.88961,0.3624971 c 0.48929,0.1993737 0.93464,0.3521294 0.98967,0.339457 0.055,-0.012672 0.17596,-0.7172543 0.26872,-1.5657379 z m 12.53256,1.218819 0.65631,-0.2975838 V 1.1141322 c 0,-1.07655667 -0.0161,-1.95737536 -0.0358,-1.95737536 -0.0197,0 -0.32362,0.14808756 -0.67538,0.32908388 -0.35177,0.18099632 -0.83703,0.40489369 -1.07835,0.49754967 -0.42865,0.16457824 -0.4374,0.17694427 -0.37916,0.53587074 0.0328,0.20207227 0.11366,1.01794057 0.1797,1.81303997 l 0.12007,1.4456354 0.27816,-0.055631 c 0.15298,-0.030597 0.57349,-0.1895436 0.93446,-0.3532142 z m -3.49603,-17.1540384 c 0.67908,-0.139203 0.72134,-0.16593 1.38855,-0.87805 1.24826,-1.332282 3.13443,-4.006942 4.36627,-6.191533 0.87081,-1.544327 2.60705,-5.217896 3.34138,-7.069762 l 0.7601,-1.916855 -0.20048,-1.034809 c -0.17961,-0.927141 -0.23426,-1.063724 -0.52518,-1.312712 -0.49094,-0.420186 -0.94712,-0.50492 -2.06584,-0.383725 -0.52875,0.05728 -2.42468,0.133178 -4.21319,0.16866 -1.78851,0.03548 -3.43072,0.102103 -3.64935,0.148045 -0.21863,0.04594 -0.41009,0.07095 -0.42547,0.05557 -0.0154,-0.01538 0.10595,-0.294255 0.26961,-0.619728 0.79418,-1.579342 2.16362,-2.579612 3.90064,-2.84912 1.3946,-0.216379 2.93609,0.266366 4.15263,1.300471 0.49015,0.416638 0.664,0.506626 0.97877,0.506626 0.46512,0 0.9225,0.181984 1.33799,0.532358 0.17121,0.144383 0.34006,0.233752 0.37521,0.1986 0.11384,-0.113839 0.0678,-0.874031 -0.0895,-1.477882 -0.40492,-1.554579 -1.8112,-3.095399 -3.28036,-3.594193 -0.35969,-0.122118 -0.8733,-0.163716 -2.06254,-0.167048 -1.69426,-0.0047 -2.56003,0.09853 -3.63026,0.433051 -1.09318,0.341695 -1.86713,0.01576 -1.42216,-0.598918 0.68034,-0.939814 4.5509,-1.637583 6.57984,-1.186188 1.51935,0.338025 2.90416,1.27904 3.66869,2.492972 0.60502,0.96067 0.67945,0.659333 0.15289,-0.619025 -1.00133,-2.430974 -2.04709,-3.112506 -5.32751,-3.471992 -1.96454,-0.215285 -12.68534,-0.150308 -14.98675,0.09083 -2.62579,0.275128 -3.31558,0.473726 -4.03445,1.161554 -0.4918,0.470562 -1.07146,1.419064 -1.42074,2.324775 -0.40609,1.053045 -0.35262,1.270095 0.13276,0.538853 1.17769,-1.774237 2.89687,-2.661135 5.15839,-2.661135 1.70676,0 3.91871,0.422141 4.68616,0.894333 0.72183,0.444129 0.76742,0.969869 0.10182,1.174148 -0.27476,0.08432 -0.43797,0.06848 -0.83079,-0.08062 -1.08394,-0.411458 -3.3846,-0.641214 -5.00357,-0.499683 -0.69945,0.06115 -1.06667,0.152769 -1.58561,0.395612 -0.83217,0.389419 -1.77413,1.313814 -2.12929,2.089592 -0.3075,0.671674 -0.48295,1.655406 -0.38666,2.167967 l 0.0729,0.388101 0.3243,-0.31432 c 0.2432,-0.23573 0.49303,-0.349625 0.99916,-0.455522 0.54483,-0.113992 0.75895,-0.2187 1.11118,-0.54337 0.92467,-0.852337 2.45747,-1.383381 3.67638,-1.273695 1.74243,0.156796 3.31375,1.182974 4.24648,2.773237 0.35721,0.609022 0.51949,1.052789 0.34573,0.945397 -0.212,-0.131023 -0.57902,-0.161133 -3.11284,-0.25537 -1.41546,-0.05264 -3.28649,-0.189659 -4.20238,-0.30774 -1.7041,-0.219703 -2.29117,-0.207972 -2.80161,0.05599 -0.41654,0.215402 -0.55226,0.541238 -0.75015,1.801 l -0.17289,1.100621 0.51692,1.381473 c 2.08043,5.559928 4.74037,10.447081 7.41772,13.628648 l 0.67499,0.802107 0.7343,0.136609 c 0.40387,0.07513 1.072,0.172352 1.48473,0.216039 1.11101,0.117599 4.53247,0.02796 5.35302,-0.140243 z m -5.01681,-4.421866 c -1.29275,-0.223503 -1.95926,-0.538064 -2.61781,-1.235497 -0.35008,-0.370748 -1.21533,-1.773132 -1.21857,-1.975047 -0.003,-0.159398 1.3437,-1.058156 1.99598,-1.332507 0.69805,-0.293602 1.91172,-0.506488 2.33189,-0.40903 0.17762,0.0412 0.49729,0.148793 0.71038,0.239099 0.50214,0.212805 0.64805,0.207237 1.23019,-0.04695 0.55712,-0.243262 1.25441,-0.274416 2.04147,-0.09121 0.70361,0.16378 2.03425,0.817474 2.54441,1.249976 l 0.40022,0.339305 -0.34337,0.671301 c -0.63365,1.238788 -1.49705,2.069548 -2.45727,2.364374 -1.15124,0.35348 -3.27853,0.457684 -4.61752,0.226187 z m 4.29606,-1.286659 c 0.73878,-0.236467 1.56322,-0.713614 2.19658,-1.27129 0.31643,-0.278614 0.57533,-0.54172 0.57533,-0.584682 0,-0.04296 -0.7992,-0.101703 -1.776,-0.130537 -1.53306,-0.04526 -1.89558,-0.02541 -2.65015,0.145081 -0.87313,0.197278 -0.87517,0.197272 -1.75099,-0.005 -0.78211,-0.18059 -1.07142,-0.195037 -2.67786,-0.133723 l -1.80101,0.06874 0.5186,0.500282 c 0.88169,0.850551 1.84455,1.351617 2.96492,1.542931 0.81815,0.139707 3.83453,0.04933 4.40058,-0.131846 z m -3.19026,-6.260976 c -0.22496,-0.04781 -0.58517,-0.207015 -0.80045,-0.353781 -0.33587,-0.228974 -0.45829,-0.258096 -0.86261,-0.205191 -0.44765,0.05857 -0.47891,0.04676 -0.62536,-0.236451 -0.20105,-0.388802 -0.19449,-0.434987 0.0409,-0.287963 0.1583,0.09886 0.26271,0.08958 0.55371,-0.04918 0.4569,-0.217883 0.98702,-0.220191 1.16504,-0.0051 0.22294,0.269402 0.90391,0.529895 1.3914,0.532256 0.35052,0.0017 0.57718,-0.0774 0.99719,-0.348 0.61592,-0.396817 0.73627,-0.414292 1.29993,-0.188762 0.22191,0.08879 0.49297,0.138031 0.60236,0.109424 0.23044,-0.06026 0.22923,-0.0635 0.10147,0.272524 -0.0893,0.234809 -0.14372,0.255174 -0.65099,0.243479 -0.45501,-0.01049 -0.62511,0.03682 -0.95542,0.265727 -0.33302,0.230782 -0.52574,0.283579 -1.12502,0.308206 -0.39773,0.01634 -0.90721,-0.0094 -1.13218,-0.05721 z m 37.1165,8.823553 c 0.0306,-0.04953 -0.0648,-0.457333 -0.21191,-0.906225 l -0.26756,-0.816168 -11.78543,-0.02117 c -6.48199,-0.01164 -12.02031,-0.0229 -12.30739,-0.02502 l -0.52197,-0.0038 -0.46872,0.850479 c -0.25779,0.467764 -0.45174,0.878176 -0.431,0.912028 0.0615,0.100309 25.93202,0.110176 25.99398,0.0099 z m -47.24089,-0.07731 c 0.0308,-0.03073 -0.0908,-0.299401 -0.26999,-0.597037 -0.17923,-0.297636 -0.3825,-0.677898 -0.45173,-0.845028 l -0.12587,-0.303872 -12.06896,0.02541 -12.06897,0.02542 -0.22807,0.574802 c -0.12544,0.316142 -0.25513,0.710114 -0.28821,0.875494 l -0.0601,0.300691 h 12.75302 c 7.01417,0 12.77817,-0.02514 12.80891,-0.05588 z m 45.62039,-4.897417 c 0.0647,-0.06466 -0.54094,-1.813983 -0.67408,-1.947123 -0.0659,-0.06589 -3.6749,-0.09219 -10.54315,-0.07684 l -10.44298,0.02334 -0.23006,0.850479 c -0.12653,0.467764 -0.23215,0.906559 -0.23472,0.9751 -0.004,0.09856 2.23979,0.130041 10.72639,0.15054 5.90207,0.01426 10.86988,0.03697 11.03956,0.05048 0.16967,0.01351 0.33124,0.0018 0.35904,-0.02597 z m -47.82966,-0.249637 c -0.0196,-0.08255 -0.12817,-0.521544 -0.24139,-0.97555 l -0.20587,-0.825466 -3.11049,-0.01805 c -1.71078,-0.0099 -6.28479,-0.01082 -10.16448,-0.002 l -7.05398,0.01605 -0.11949,0.22712 c -0.21433,0.407398 -0.63614,1.588571 -0.5925,1.659136 0.0234,0.03786 4.87583,0.06883 10.78315,0.06883 9.49627,0 10.73646,-0.01739 10.70505,-0.150085 z m 28.36382,-3.628851 c 0.52429,-0.580319 1.10911,-1.904032 1.41501,-3.202751 0.23308,-0.989619 0.26502,-1.336632 0.26905,-2.9239 0.004,-1.560883 -0.0202,-1.850933 -0.18153,-2.175401 -0.21917,-0.440889 -1.1587,-1.076433 -1.59132,-1.076433 -0.39819,0 -0.73284,0.377894 -0.92744,1.047271 -0.15533,0.534312 -0.15476,0.579049 0.01,0.760776 0.22558,0.249254 0.56488,0.24625 0.79409,-0.007 0.0996,-0.110062 0.30558,-0.200113 0.45772,-0.200113 0.24375,0 0.29839,0.06244 0.45977,0.525297 0.48977,1.4048 -0.0804,5.053352 -0.93767,6.000671 -0.19574,0.216295 -0.56141,0.231158 -0.72867,0.02962 -0.10034,-0.120901 -0.0653,-0.235236 0.19007,-0.620826 0.51635,-0.779539 0.91034,-2.482277 0.90745,-3.921725 -0.002,-0.951276 -0.0513,-1.040749 -0.50275,-0.911267 -0.23513,0.06743 -0.44935,0.06387 -0.67697,-0.01125 -0.18315,-0.06045 -0.35238,-0.09052 -0.37606,-0.06684 -0.0237,0.02368 0.007,0.309579 0.0683,0.635325 0.10176,0.541329 0.012,3.495335 -0.16392,5.394974 -0.0491,0.530283 0.0522,0.732922 0.5338,1.067624 0.31336,0.217788 0.54822,0.135462 0.9814,-0.344019 z m -30.03248,0.364408 c 0.0898,-0.03445 0.26324,-0.209807 0.38547,-0.389682 0.21011,-0.309211 0.21815,-0.389001 0.14735,-1.463224 -0.11299,-1.714448 -0.14001,-4.587763 -0.0473,-5.026775 0.0749,-0.354703 0.0662,-0.380964 -0.10006,-0.300881 -0.10018,0.04826 -0.43803,0.08535 -0.75077,0.08243 -0.49192,-0.0046 -0.57609,0.0225 -0.62399,0.200825 -0.0955,0.355624 -0.0635,1.122322 0.0891,2.132876 0.19357,1.281863 0.38015,1.880999 0.76823,2.466907 0.24506,0.36996 0.29566,0.520492 0.21712,0.64584 -0.31353,0.500389 -0.98109,-0.07008 -1.32689,-1.133912 -0.52326,-1.609823 -0.67481,-3.88611 -0.32659,-4.905772 0.20718,-0.606682 0.39336,-0.666295 0.92666,-0.296714 0.3795,0.262992 0.39966,0.266085 0.65282,0.100205 0.22853,-0.149741 0.2528,-0.216117 0.19385,-0.530332 -0.2,-1.066104 -0.63936,-1.519393 -1.26845,-1.308653 -0.51861,0.173732 -1.16826,0.701439 -1.27362,1.034557 -0.39623,1.252799 -0.23916,4.414864 0.30158,6.071092 0.30696,0.940202 0.79193,1.872556 1.19771,2.30261 0.35606,0.377353 0.52108,0.440112 0.83773,0.318599 z m 47.75321,-1.77812 c 0.0466,-0.0466 -0.46791,-1.559975 -0.58205,-1.712056 -0.0493,-0.06565 -2.66134,-0.112768 -7.4812,-0.134953 l -7.4055,-0.03409 -0.11154,0.435122 c -0.0614,0.239318 -0.17685,0.634502 -0.25666,0.878187 -0.0798,0.243685 -0.14512,0.47952 -0.14512,0.524078 0,0.12865 15.85378,0.172008 15.98207,0.04371 z m -50.34699,-0.13442 c -0.0542,-0.141032 -0.32202,-1.077743 -0.51514,-1.801953 -0.0263,-0.09856 -1.52619,-0.125071 -7.0751,-0.125071 h -7.04175 l -0.36557,0.98554 c -0.20105,0.542047 -0.36556,1.003558 -0.36555,1.025579 1e-5,0.02202 3.47194,0.05172 7.71541,0.06599 7.32861,0.02465 7.71201,0.01713 7.6477,-0.150085 z m 48.57294,-5.252179 c 0,-0.01774 -0.15242,-0.481262 -0.33872,-1.030056 l -0.33871,-0.997808 -6.56518,-0.02573 c -3.61085,-0.01416 -6.56518,-0.0086 -6.56518,0.01243 0,0.02099 0.0675,0.229591 0.15009,0.463553 0.0825,0.233962 0.15077,0.611082 0.15161,0.838045 7.6e-4,0.226963 0.0366,0.467782 0.0794,0.535153 0.055,0.08657 0.56073,0.130585 1.72445,0.150085 2.808,0.04705 11.70229,0.08834 11.70229,0.05433 z m -49.2112,-1.028288 c 0.0917,-0.439704 0.19822,-0.90077 0.2368,-1.02459 l 0.0701,-0.225127 h -6.05283 c -4.818,0 -6.07467,0.02631 -6.15988,0.128978 -0.0913,0.110054 -0.71791,1.705638 -0.71791,1.828173 0,0.0307 11.07062,0.115803 12.30695,0.0946 0.10643,-0.0018 0.19855,-0.235103 0.31673,-0.802037 z m 47.55493,-3.86252 c 0.0317,-0.03168 -0.0858,-0.469829 -0.26097,-0.973667 l -0.31856,-0.916069 -4.86047,0.0012 -4.86048,0.0012 -0.41848,0.2393 c -0.33822,0.193395 -0.89184,0.590577 -2.11796,1.519451 -0.0193,0.0146 -0.0122,0.0633 0.0157,0.10824 0.0566,0.09116 12.73034,0.111258 12.82127,0.02033 z m -45.83075,-0.07215 c 0.0564,-0.0912 -0.5269,-0.674734 -1.24818,-1.248759 -0.86231,-0.68627 -0.66967,-0.664592 -5.96124,-0.670835 l -4.78356,-0.0056 -0.28653,0.779233 c -0.15759,0.428578 -0.30988,0.857682 -0.33842,0.953564 -0.0489,0.164219 0.30715,0.175872 6.13805,0.20089 3.40447,0.01461 6.24358,0.03746 6.30912,0.0508 0.0655,0.01333 0.14238,-0.01333 0.17076,-0.05924 z m 32.31297,-0.124869 c 0.18194,-0.259761 1.91399,-2.137397 3.10748,-3.368666 l 0.89711,-0.925522 h 4.0406 4.0406 l -0.0662,-0.208548 c -0.0364,-0.114701 -0.16742,-0.508674 -0.29115,-0.875495 l -0.22494,-0.666945 -3.40462,-0.02632 -3.40463,-0.02632 -0.88856,0.931083 c -0.80311,0.841535 -1.89554,2.155371 -2.83967,3.415167 -0.1926,0.257008 -0.39748,0.521717 -0.45527,0.588242 -0.2158,0.24841 -0.94552,1.265096 -0.94552,1.317359 0,0.13974 0.30457,0.03182 0.43476,-0.15405 z m -31.98795,-0.711999 c -1.29478,-2.276615 -2.38809,-3.889391 -3.21075,-4.736295 l -0.606,-0.623853 -3.40192,-0.05538 c -1.87106,-0.03048 -3.43759,-0.02023 -3.48118,0.02269 -0.1428,0.140685 -0.65305,1.609912 -0.57571,1.65771 0.0415,0.02565 1.87178,0.07616 4.0673,0.112243 l 3.99185,0.06561 0.5185,0.539766 c 0.60657,0.631442 1.79138,2.098778 2.47644,3.066956 0.26463,0.373993 0.5034,0.657729 0.5306,0.630525 0.0272,-0.02721 -0.1119,-0.333198 -0.30913,-0.679987 z m 32.13703,-1.255877 c 1.58618,-2.357707 3.28439,-4.492595 4.43367,-5.573756 l 0.80237,-0.754812 h 2.6432 c 2.04399,0 2.64319,-0.02829 2.64319,-0.124731 0,-0.0686 -0.11626,-0.47383 -0.25835,-0.900507 l -0.25836,-0.775778 -2.11799,0.0023 c -2.47783,0.0026 -2.60209,0.03619 -3.58645,0.970401 -1.17485,1.114996 -2.13414,2.51401 -3.75828,5.48104 -1.05319,1.923992 -1.34323,2.551439 -1.17944,2.551439 0.0261,0 0.31249,-0.393973 0.63644,-0.875494 z m -32.50343,-1.291057 c -1.24812,-2.824782 -2.49581,-4.937191 -3.52243,-5.963708 -0.93148,-0.931374 -0.98282,-0.946417 -3.37485,-0.988719 l -2.04614,-0.03619 -0.26999,0.750421 c -0.1485,0.412734 -0.2993,0.822417 -0.33511,0.910405 -0.0583,0.143234 0.2156,0.16741 2.6163,0.230957 l 2.68141,0.07098 0.38573,0.265204 c 0.57027,0.392086 1.36519,1.312353 2.12436,2.459327 0.36983,0.55876 0.74812,1.128488 0.84064,1.266065 0.0925,0.137578 0.45418,0.787866 0.80368,1.445084 0.3495,0.657219 0.6519,1.145596 0.672,1.085283 0.0201,-0.06031 -0.23892,-0.733113 -0.5756,-1.495112 z m 32.65183,-0.309846 c 0.85684,-1.715815 1.61531,-3.150005 2.05043,-3.877189 1.0079,-1.684393 2.80004,-3.912566 3.65651,-4.546149 0.2556,-0.189076 0.46472,-0.380435 0.46472,-0.42524 0,-0.0448 -0.42599,-0.08146 -0.94663,-0.08146 h -0.94663 l -0.68583,0.92552 c -1.60931,2.171762 -2.48288,3.69132 -3.32182,5.77826 -0.44001,1.094562 -1.10304,3.114268 -1.10304,3.360049 0,0.373348 0.24914,0.03395 0.83229,-1.133794 z m -31.91065,0.150084 c -0.59362,-3.127876 -1.70872,-6.182403 -2.98609,-8.179611 -0.26397,-0.412735 -0.49392,-0.766252 -0.51099,-0.785591 -0.071,-0.0805 -2.44538,-0.130127 -2.44476,-0.05109 3.8e-4,0.04744 0.15288,0.189885 0.33889,0.316536 1.27953,0.871196 3.27221,4.052658 4.80665,7.674182 0.70559,1.665297 0.74689,1.750987 0.84392,1.750987 0.0495,0 0.0281,-0.326434 -0.0476,-0.725409 z m 1.00605,-0.747921 0.36707,-0.772935 -0.20192,-1.003237 c -0.43043,-2.138661 -1.04174,-3.856095 -2.08349,-5.853447 -0.68654,-1.316294 -1.18097,-2.103371 -1.32131,-2.103371 -0.0796,0 -0.80728,0.757686 -0.80728,0.840542 0,0.02175 0.18676,0.346926 0.41502,0.722657 1.3069,2.151194 2.36598,4.979346 2.90833,7.766341 0.12576,0.646217 0.25742,1.175265 0.29258,1.175663 0.0352,4.16e-4 0.22912,-0.347098 0.431,-0.772213 z m 29.97225,0.34091 c 0,-0.320741 1.05859,-3.308936 1.47746,-4.170569 0.82095,-1.688742 2.42227,-4.208655 3.01414,-4.743174 0.11608,-0.104835 0.21105,-0.221904 0.21105,-0.260152 0,-0.03825 -0.27696,-0.310436 -0.61546,-0.604861 l -0.61547,-0.535317 -0.29417,0.345213 c -0.52725,0.61874 -1.47336,2.078937 -2.02426,3.1242 -0.86251,1.636483 -1.3666,3.009358 -1.7441,4.750015 l -0.20066,0.925281 0.24467,0.525539 c 0.13458,0.289047 0.24512,0.581822 0.24565,0.650611 3.8e-4,0.06879 0.0685,0.12507 0.15107,0.12507 0.0825,0 0.15008,-0.05933 0.15008,-0.131856 z m -1.6009,-2.662961 c 0,-0.435552 0.5446,-2.467473 0.96029,-3.582862 0.64489,-1.730367 1.9324,-4.097081 2.66362,-4.896278 0.24533,-0.268143 0.21812,-0.313266 -0.54154,-0.897808 l -0.61098,-0.47014 -0.18625,0.230012 c -0.26738,0.330196 -1.40493,2.242827 -1.78321,2.998218 -0.77368,1.544936 -1.64008,4.185995 -1.84544,5.625458 l -0.0662,0.464176 0.4415,0.213728 c 0.24283,0.117549 0.52197,0.302639 0.62031,0.411312 0.24843,0.274503 0.34792,0.247102 0.34792,-0.09582 z m -26.82268,-0.04874 c 0.12509,-0.133153 0.35807,-0.296206 0.51772,-0.362336 0.15966,-0.06613 0.29029,-0.171079 0.29029,-0.233212 0,-0.169255 -0.2492,-1.303882 -0.49578,-2.257345 -0.53513,-2.069222 -2.4041,-7.01071 -2.65159,-7.01071 -0.0609,0 -0.37315,0.265181 -0.69388,0.589292 l -0.58314,0.589296 0.47715,0.78603 c 1.45462,2.396253 2.19634,4.531609 2.69749,7.765867 0.0681,0.439754 0.1348,0.459842 0.44174,0.133118 z m 3.94355,-1.122492 c 0.33862,-0.03802 0.60535,-0.120964 0.63466,-0.197346 0.11566,-0.301398 -0.93715,-4.964707 -1.5002,-6.644944 -0.79192,-2.36327 -1.69695,-4.50029 -1.90587,-4.50029 -0.0575,0 -0.45237,0.231808 -0.87743,0.51513 l -0.77281,0.515127 0.2046,0.510452 c 0.81499,2.033293 1.95296,5.660386 2.58803,8.24888 l 0.42567,1.735044 0.30962,-0.05823 c 0.1703,-0.03203 0.57247,-0.08774 0.89373,-0.123819 z m 19.61708,0.03884 c 0.0185,-0.06879 0.15823,-0.665376 0.31064,-1.325748 0.67031,-2.904391 1.92835,-6.151805 3.24096,-8.365994 0.16926,-0.285523 0.18764,-0.3827 0.0874,-0.462466 -0.21953,-0.174766 -1.76641,-1.027096 -1.86405,-1.027096 -0.20728,0 -2.11314,4.068685 -2.64808,5.653186 -0.63887,1.892388 -1.15324,3.965298 -1.19091,4.799437 l -0.027,0.597064 0.70039,0.114826 c 0.97315,0.159537 1.35108,0.164102 1.39058,0.01679 z m -5.0008,-1.677635 c 0.70315,-3.250046 1.81178,-6.746577 2.98157,-9.403613 0.74362,-1.689049 0.73538,-1.661193 0.51165,-1.728526 -0.10074,-0.03033 -0.64809,-0.216621 -1.21633,-0.414004 -0.56824,-0.197384 -1.09062,-0.35888 -1.16085,-0.35888 -0.23871,0 -1.48019,2.955973 -2.37426,5.653185 -0.9896,2.985391 -1.88574,6.759639 -1.7142,7.219652 0.0272,0.0729 0.47508,0.140254 1.2117,0.182223 0.64272,0.03661 1.2136,0.08026 1.26863,0.09698 0.18395,0.05588 0.24209,-0.09147 0.49209,-1.247014 z m -8.6672,1.053306 c 0.0282,-0.02553 -0.15675,-1.02955 -0.59005,-3.202829 -0.4319,-2.166313 -1.42621,-5.925831 -2.25684,-8.533245 -0.4238,-1.330327 -0.47017,-1.424668 -0.67001,-1.363209 -0.51371,0.157987 -2.09429,0.736486 -2.14167,0.783863 -0.0286,0.02863 0.15372,0.694884 0.40521,1.480569 0.62931,1.966059 0.92086,2.960042 1.27452,4.345256 0.33919,1.328543 1.23743,5.272153 1.34116,5.888235 0.14048,0.834276 0.0322,0.779854 1.39253,0.699698 0.6686,-0.0394 1.22892,-0.08365 1.24515,-0.09834 z m 4.06616,-1.576911 c 0.15615,-1.635701 0.86984,-4.546865 1.79679,-7.329134 0.57581,-1.72828 0.63526,-1.985308 0.65414,-2.82782 0.0233,-1.037423 -0.11887,-1.883362 -0.414,-2.464368 -0.29402,-0.578814 -1.05875,-1.347489 -1.62809,-1.636491 -0.60094,-0.305044 -1.61683,-0.407228 -2.32344,-0.233707 -1.03561,0.254313 -2.03291,1.222244 -2.45451,2.382212 -0.29755,0.81865 -0.29832,2.805833 -0.002,3.679552 0.93533,2.75264 1.5981,5.318754 1.92592,7.456719 0.12214,0.796566 0.2382,1.504587 0.25792,1.573375 0.0257,0.08974 0.32985,0.125071 1.07666,0.125071 h 1.04081 z"
           id="path5"
           sodipodi:nodetypes="csssssssssssscssssssssssscccssssssssscccscssssssscccssssssssssscssscccscsssssccccsccssscssscsssssssssscsscssssscssccsssssscsssssssscccccccssscccccsssscccccscsscccccsssscccccssssssssccccssccccccscssccccsssccccssscsscccsccccccccscccccccccccccccccsssccccccccccccsssscsssssccssssssssssssscscccssccscccsssscsscccscscccccscscsscccsssccssscccssssssscssssscscssscccsscccccccsscccccccscscccccccccccsscscscscscccccssscccccssscscccccccccccccccsscccsscscsssscscccssssssscssssssssssssssssssssccssccsssscssccccsscsscccsssccssccccsssssscsscsssscsssssssssssssscsssssssssssssssssscsssssssssscsscsssssscsssssscsssscsssssscsscccssssssssssssssccsccsccsssscsscccsccsccssscscssssssccscssssscssssscsssssccssscssccssssssssssssssssssssssssccssssssscsssscscssccsscccccsssscccccccsssccssccsssssssscccsscccsssssssscccsscssssscscsssccsssccssscssscsssssssssssscssssssscssssssscssssssssssssscssscscsssssscssscsssssssssscscsssssscsscssscsscssscsccsssssssssssssssssssssscscsssscssscc" /></g></g></g></svg>
