<?xml version="1.0" encoding="UTF-8" standalone="no"?>
<!-- Created with Inkscape (http://www.inkscape.org/) -->

<svg
   width="105.83334mm"
   height="105.83334mm"
   viewBox="0 0 105.83333 105.83333"
   version="1.1"
   id="svg1"
   xml:space="preserve"
   inkscape:version="1.4.2 (ebf0e940d0, 2025-05-08)"
   sodipodi:docname="michigan.svg"
   inkscape:export-filename="../pngs/cincinnati.png"
   inkscape:export-xdpi="61.702866"
   inkscape:export-ydpi="61.702866"
   xmlns:inkscape="http://www.inkscape.org/namespaces/inkscape"
   xmlns:sodipodi="http://sodipodi.sourceforge.net/DTD/sodipodi-0.dtd"
   xmlns="http://www.w3.org/2000/svg"
   xmlns:svg="http://www.w3.org/2000/svg"><sodipodi:namedview
     id="namedview1"
     pagecolor="#ffffff"
     bordercolor="#000000"
     borderopacity="0.25"
     inkscape:showpageshadow="2"
     inkscape:pageopacity="0.0"
     inkscape:pagecheckerboard="0"
     inkscape:deskcolor="#d1d1d1"
     inkscape:document-units="mm"
     inkscape:zoom="0.6457328"
     inkscape:cx="269.4613"
     inkscape:cy="-52.653358"
     inkscape:window-width="1920"
     inkscape:window-height="1011"
     inkscape:window-x="0"
     inkscape:window-y="32"
     inkscape:window-maximized="1"
     inkscape:current-layer="layer1"
     showgrid="false"
     showguides="true" /><defs
     id="defs1" /><g
     inkscape:label="Capa 1"
     inkscape:groupmode="layer"
     id="layer1"><g
       id="g5"
       transform="matrix(0.96918327,0,0,0.96918327,-38.465982,128.23376)"><path
         style="fill:#18453b;fill-opacity:1;stroke:#ffffff;stroke-width:4.126;stroke-dasharray:none"
         d="m 127.89763,-26.780937 c -11.75487,-0.997597 -19.33487,-4.914046 -21.28276,-10.996449 -1.59375,-4.976597 -5.3668,-7.837019 -11.872051,-9.000425 l -0.664999,-0.118927 0.06652,2.2481 c 0.07307,2.463802 -0.178307,3.857555 -1.032465,5.723912 -2.516588,5.499546 -9.930566,8.339415 -21.895622,8.386969 -2.1239,0.0085 -3.885078,-0.0139 -3.913733,-0.04965 -0.02865,-0.03577 0.828437,-1.903248 1.904645,-4.149984 2.590258,-5.407526 5.531136,-12.026559 7.769289,-17.486326 1.001281,-2.442535 1.85907,-4.479534 1.906199,-4.52666 0.04714,-0.04714 0.528987,0.357615 1.070801,0.899427 l 0.985116,0.985116 1.154633,-0.114837 c 6.423818,-0.638964 10.83333,-2.609114 14.840039,-6.63048 1.272117,-1.276752 3.516478,-4.045683 4.063368,-5.013047 0.10578,-0.187359 0.49623,0.01418 1.52128,0.78524 1.58486,1.192279 4.49842,2.750159 6.25848,3.346418 3.97358,1.346144 7.89899,1.43764 12.20773,0.284545 0.95934,-0.256747 1.76704,-0.443713 1.79488,-0.415503 0.0278,0.02822 -0.0218,0.436038 -0.11042,0.906284 -0.0886,0.470246 -0.26473,2.195008 -0.39184,3.832802 -0.70172,9.052217 1.75497,18.58754 7.27156,28.223618 0.92082,1.608428 1.67421,2.962427 1.67421,3.008888 0,0.10892 -0.96032,0.07168 -3.32497,-0.129014 z m 2.44502,-5.484065 c -0.87828,-0.354592 -3.40534,-5.361381 -4.70319,-9.318282 -0.90564,-2.761038 -1.49501,-5.36119 -1.82812,-8.065056 -0.27237,-2.209509 -0.27373,-7.509189 -0.003,-9.693913 0.19794,-1.595139 0.81523,-4.861117 1.07396,-5.681209 0.0932,-0.295802 0.0499,-0.333694 -0.24047,-0.209197 -2.89501,1.241998 -5.75783,1.848467 -8.71438,1.846081 -3.23461,-0.0026 -5.83752,-0.571385 -6.968,-1.522617 -0.65109,-0.547854 -1.48219,-2.153874 -1.4851,-2.869819 -0.001,-0.316398 0.33584,-0.762382 1.09681,-1.451019 1.25052,-1.131663 2.00999,-2.503638 2.46931,-4.460801 l 0.30078,-1.281545 2.9581,-0.770201 c 8.93576,-2.326606 12.99526,-2.763718 17.06552,-1.837556 l 1.37749,0.31344 -0.002,0.887264 c -0.005,1.896537 -1.04978,4.443287 -1.87114,4.560324 -0.69774,0.09943 -1.49942,-0.331758 -1.90972,-1.027154 -0.41845,-0.709236 -1.10992,-0.981092 -1.69667,-0.667072 -0.6752,0.361356 -1.51027,0.224411 -2.79823,-0.458842 -1.57044,-0.833137 -2.89706,-0.898704 -4.36384,-0.215686 -1.09127,0.508173 -3.08204,2.274177 -3.89411,3.454471 l -0.54877,0.797612 1.4649,-0.743228 c 0.86853,-0.440646 1.86394,-0.788778 2.44502,-0.855115 1.02933,-0.117508 2.34488,0.04365 2.34488,0.287271 0,0.07871 -0.72675,0.720935 -1.61499,1.427141 -0.88824,0.706207 -1.61461,1.343296 -1.61412,1.415753 4.9e-4,0.07247 0.96234,0.137193 2.13748,0.143818 1.9519,0.01118 2.27304,0.06598 3.71447,0.635295 l 1.57783,0.623206 1.10608,-1.110291 c 1.20812,-1.212708 2.82843,-2.276377 3.72027,-2.442225 0.51769,-0.09627 0.63514,-0.01091 1.32792,0.966219 0.41799,0.589502 2.22898,2.961225 4.02443,5.270494 1.79543,2.309269 3.22437,4.263474 3.17543,4.342677 -0.0973,0.157259 -3.76796,2.247472 -3.94697,2.247472 -0.0605,0 -0.27842,-0.329757 -0.48402,-0.732795 -0.22057,-0.432133 -0.60333,-0.827842 -0.93311,-0.964446 -0.48179,-0.199546 -0.66844,-0.175936 -1.34745,0.170455 -1.62404,0.828516 -1.97679,2.545409 -0.81435,3.963454 0.66723,0.813957 1.19084,0.84704 1.94657,0.122989 0.26964,-0.258328 0.69933,-0.469554 0.95485,-0.469401 0.46226,2.78e-4 0.46463,0.01009 0.46929,1.947487 l 0.005,1.94721 -0.54768,0.04147 c -0.86577,0.06554 -2.12657,0.918539 -3.07059,2.077414 -0.47789,0.586656 -0.82897,1.106545 -0.78022,1.155312 0.0488,0.04878 0.40937,-0.01718 0.80132,-0.146544 0.79584,-0.262663 2.91042,-0.28382 3.76493,-0.03768 1.14013,0.328399 1.51403,1.438894 0.80901,2.402809 -0.25001,0.341772 -0.29148,0.344526 -0.71555,0.04749 -0.5506,-0.385654 -1.87108,-0.411732 -2.37015,-0.04681 -0.36109,0.264025 -0.36,0.283282 0.0649,1.158011 0.51117,1.052128 1.94093,2.609081 3.63147,3.954487 2.30952,1.838036 2.82396,3.361157 1.71761,5.085261 -1.29695,2.021136 -3.52299,3.419315 -6.01839,3.780155 -1.52262,0.220185 -1.72901,0.220731 -2.26104,0.006 z m -71.330719,-6.230739 c -12.674046,-14.917068 -16.522743,-35.229004 -10.178146,-53.71631 6.270785,-18.272229 21.982633,-31.970389 40.845431,-35.610539 6.925634,-1.33651 14.568174,-1.34369 21.423714,-0.0202 7.86398,1.51826 15.76415,5.02384 22.49269,9.98082 0.9929,0.7315 1.7843,1.434 1.75864,1.56112 -0.0905,0.44762 -11.8169,14.68378 -12.09524,14.68378 -0.0848,0 -0.4865,-0.26855 -0.89273,-0.59681 -1.5097,-1.21984 -4.47475,-3.05054 -6.56409,-4.05282 -10.8954,-5.22667 -23.649746,-4.53011 -33.884296,1.85052 -7.998518,4.986608 -13.78859,13.364534 -15.656411,22.653992 -2.002046,9.956998 0.499999,20.680061 6.662172,28.552205 l 0.933368,1.192372 -5.774793,6.502579 c -3.176137,3.576418 -6.150414,6.945157 -6.609501,7.486086 -0.459089,0.540925 -0.920208,0.987163 -1.024708,0.991634 -0.104504,0.0044 -0.750743,-0.651853 -1.4361,-1.458503 z m 21.429951,-19.157935 c -2.675699,-5.369545 -3.632316,-11.859451 -2.619617,-17.772097 1.99728,-11.66111 11.152348,-21.028538 22.905525,-23.436841 3.30572,-0.677359 8.28229,-0.674684 11.59567,0.0063 1.92071,0.394714 5.67277,1.598308 5.50774,1.766789 -0.0687,0.07015 -2.06411,1.293754 -4.43421,2.719087 -3.3768,2.030758 -4.29786,2.668002 -4.25667,2.944984 0.0289,0.194393 0.10415,1.209456 0.16741,2.255668 0.14095,2.333152 -0.30275,4.381656 -1.41924,6.552745 -0.70949,1.379605 -0.7535,1.423552 -1.3818,1.379829 -2.47531,-0.172255 -3.72834,-0.08926 -4.78185,0.316656 -5.010934,1.93075 -6.389299,8.586363 -2.594487,12.527782 l 0.798512,0.829351 -0.341838,0.595639 c -0.751644,1.309826 -2.228161,3.139852 -3.640524,4.51214 -3.530759,3.430626 -8.343178,5.619221 -13.154503,5.982428 l -1.698091,0.128196 z m -3.876578,-0.219258 c -2.901923,-3.878085 -4.627715,-7.629479 -5.570745,-12.109254 -0.506213,-2.404726 -0.699611,-6.777096 -0.408823,-9.242732 0.798307,-6.768964 3.890261,-13.065573 8.756463,-17.8321 8.047984,-7.88314 19.733217,-10.55272 30.468031,-6.96063 1.09725,0.36717 2.7088,1.02435 3.58123,1.46042 1.70297,0.85119 4.39762,2.46718 4.29129,2.57349 -0.0357,0.03558 -0.61604,-0.1029 -1.28987,-0.30776 -11.07679,-3.36752 -23.161339,-0.61002 -31.318889,7.146451 -5.556192,5.283019 -8.58649,10.992283 -9.924251,18.697889 -0.370375,2.13338 -0.314309,7.468053 0.10284,9.78494 0.39927,2.217607 1.039519,4.510806 1.822045,6.526061 0.306209,0.788582 0.532273,1.45826 0.502364,1.488166 -0.02991,0.02991 -0.485163,-0.521314 -1.011679,-1.224941 z m 26.036786,-11.639809 c -1.05177,-0.324898 -2.41375,-1.387796 -3.001022,-2.34204 -1.199621,-1.949173 -0.787524,-4.387289 1.028702,-6.086144 0.90833,-0.849635 2.32034,-1.446204 3.42301,-1.446204 2.07287,0 4.26046,1.664442 4.84874,3.68921 0.73373,2.525397 -0.25192,4.643149 -2.75016,5.908303 -0.76937,0.389631 -2.69738,0.540031 -3.54927,0.276875 z m 22.05692,-0.270815 c -0.59084,-0.590857 -0.58623,-0.88201 0.0245,-1.609049 0.63588,-0.755697 1.42877,-0.786859 2.08219,-0.08185 0.60444,0.652223 0.59228,1.27026 -0.0346,1.763454 -0.67759,0.533 -1.49609,0.504346 -2.073,-0.07258 z m -14.51182,-7.433572 c -0.41131,-0.877717 -1.01764,-1.971507 -1.34737,-2.430649 l -0.59951,-0.8348 0.76866,-1.589766 c 1.22481,-2.533236 1.66622,-5.326432 1.27473,-8.066242 l -0.13823,-0.966511 7.72322,-4.617949 7.72325,-4.617953 1.14007,1.119491 c 4.45014,4.369723 7.15261,11.111316 6.96081,17.36439 l -0.0554,1.804989 -2.65997,0.121189 c -3.32459,0.151452 -5.76901,0.438385 -8.92014,1.047027 -2.77791,0.536552 -7.44826,1.839638 -9.65109,2.69279 l -1.47136,0.569842 z"
         id="path5-0"
         sodipodi:nodetypes="csscccsssssscssccsssscsscccsccccssssscssccsssssscssssscscsssscscsssssccsscssssscssscccsssscscsssscssccccsssssscsssscscsccssssssccsssssssscsssssccsccccscsccccsscssscc" /><path
         style="fill:#18453b;fill-opacity:1;stroke-width:2.72641"
         d="m 127.89763,-26.780937 c -11.75487,-0.997597 -19.33487,-4.914046 -21.28276,-10.996449 -1.59375,-4.976597 -5.3668,-7.837019 -11.872051,-9.000425 l -0.664999,-0.118927 0.06652,2.2481 c 0.07307,2.463802 -0.178307,3.857555 -1.032465,5.723912 -2.516588,5.499546 -9.930566,8.339415 -21.895622,8.386969 -2.1239,0.0085 -3.885078,-0.0139 -3.913733,-0.04965 -0.02865,-0.03577 0.828437,-1.903248 1.904645,-4.149984 2.590258,-5.407526 5.531136,-12.026559 7.769289,-17.486326 1.001281,-2.442535 1.85907,-4.479534 1.906199,-4.52666 0.04714,-0.04714 0.528987,0.357615 1.070801,0.899427 l 0.985116,0.985116 1.154633,-0.114837 c 6.423818,-0.638964 10.83333,-2.609114 14.840039,-6.63048 1.272117,-1.276752 3.516478,-4.045683 4.063368,-5.013047 0.10578,-0.187359 0.49623,0.01418 1.52128,0.78524 1.58486,1.192279 4.49842,2.750159 6.25848,3.346418 3.97358,1.346144 7.89899,1.43764 12.20773,0.284545 0.95934,-0.256747 1.76704,-0.443713 1.79488,-0.415503 0.0278,0.02822 -0.0218,0.436038 -0.11042,0.906284 -0.0886,0.470246 -0.26473,2.195008 -0.39184,3.832802 -0.70172,9.052217 1.75497,18.58754 7.27156,28.223618 0.92082,1.608428 1.67421,2.962427 1.67421,3.008888 0,0.10892 -0.96032,0.07168 -3.32497,-0.129014 z m 2.44502,-5.484065 c -0.87828,-0.354592 -3.40534,-5.361381 -4.70319,-9.318282 -0.90564,-2.761038 -1.49501,-5.36119 -1.82812,-8.065056 -0.27237,-2.209509 -0.27373,-7.509189 -0.003,-9.693913 0.19794,-1.595139 0.81523,-4.861117 1.07396,-5.681209 0.0932,-0.295802 0.0499,-0.333694 -0.24047,-0.209197 -2.89501,1.241998 -5.75783,1.848467 -8.71438,1.846081 -3.23461,-0.0026 -5.83752,-0.571385 -6.968,-1.522617 -0.65109,-0.547854 -1.48219,-2.153874 -1.4851,-2.869819 -0.001,-0.316398 0.33584,-0.762382 1.09681,-1.451019 1.25052,-1.131663 2.00999,-2.503638 2.46931,-4.460801 l 0.30078,-1.281545 2.9581,-0.770201 c 8.93576,-2.326606 12.99526,-2.763718 17.06552,-1.837556 l 1.37749,0.31344 -0.002,0.887264 c -0.005,1.896537 -1.04978,4.443287 -1.87114,4.560324 -0.69774,0.09943 -1.49942,-0.331758 -1.90972,-1.027154 -0.41845,-0.709236 -1.10992,-0.981092 -1.69667,-0.667072 -0.6752,0.361356 -1.51027,0.224411 -2.79823,-0.458842 -1.57044,-0.833137 -2.89706,-0.898704 -4.36384,-0.215686 -1.09127,0.508173 -3.08204,2.274177 -3.89411,3.454471 l -0.54877,0.797612 1.4649,-0.743228 c 0.86853,-0.440646 1.86394,-0.788778 2.44502,-0.855115 1.02933,-0.117508 2.34488,0.04365 2.34488,0.287271 0,0.07871 -0.72675,0.720935 -1.61499,1.427141 -0.88824,0.706207 -1.61461,1.343296 -1.61412,1.415753 4.9e-4,0.07247 0.96234,0.137193 2.13748,0.143818 1.9519,0.01118 2.27304,0.06598 3.71447,0.635295 l 1.57783,0.623206 1.10608,-1.110291 c 1.20812,-1.212708 2.82843,-2.276377 3.72027,-2.442225 0.51769,-0.09627 0.63514,-0.01091 1.32792,0.966219 0.41799,0.589502 2.22898,2.961225 4.02443,5.270494 1.79543,2.309269 3.22437,4.263474 3.17543,4.342677 -0.0973,0.157259 -3.76796,2.247472 -3.94697,2.247472 -0.0605,0 -0.27842,-0.329757 -0.48402,-0.732795 -0.22057,-0.432133 -0.60333,-0.827842 -0.93311,-0.964446 -0.48179,-0.199546 -0.66844,-0.175936 -1.34745,0.170455 -1.62404,0.828516 -1.97679,2.545409 -0.81435,3.963454 0.66723,0.813957 1.19084,0.84704 1.94657,0.122989 0.26964,-0.258328 0.69933,-0.469554 0.95485,-0.469401 0.46226,2.78e-4 0.46463,0.01009 0.46929,1.947487 l 0.005,1.94721 -0.54768,0.04147 c -0.86577,0.06554 -2.12657,0.918539 -3.07059,2.077414 -0.47789,0.586656 -0.82897,1.106545 -0.78022,1.155312 0.0488,0.04878 0.40937,-0.01718 0.80132,-0.146544 0.79584,-0.262663 2.91042,-0.28382 3.76493,-0.03768 1.14013,0.328399 1.51403,1.438894 0.80901,2.402809 -0.25001,0.341772 -0.29148,0.344526 -0.71555,0.04749 -0.5506,-0.385654 -1.87108,-0.411732 -2.37015,-0.04681 -0.36109,0.264025 -0.36,0.283282 0.0649,1.158011 0.51117,1.052128 1.94093,2.609081 3.63147,3.954487 2.30952,1.838036 2.82396,3.361157 1.71761,5.085261 -1.29695,2.021136 -3.52299,3.419315 -6.01839,3.780155 -1.52262,0.220185 -1.72901,0.220731 -2.26104,0.006 z m -71.330719,-6.230739 c -12.674046,-14.917068 -16.522743,-35.229004 -10.178146,-53.71631 6.270785,-18.272229 21.982633,-31.970389 40.845431,-35.610539 6.925634,-1.33651 14.568174,-1.34369 21.423714,-0.0202 7.86398,1.51826 15.76415,5.02384 22.49269,9.98082 0.9929,0.7315 1.7843,1.434 1.75864,1.56112 -0.0905,0.44762 -11.8169,14.68378 -12.09524,14.68378 -0.0848,0 -0.4865,-0.26855 -0.89273,-0.59681 -1.5097,-1.21984 -4.47475,-3.05054 -6.56409,-4.05282 -10.8954,-5.22667 -23.649746,-4.53011 -33.884296,1.85052 -7.998518,4.986608 -13.78859,13.364534 -15.656411,22.653992 -2.002046,9.956998 0.499999,20.680061 6.662172,28.552205 l 0.933368,1.192372 -5.774793,6.502579 c -3.176137,3.576418 -6.150414,6.945157 -6.609501,7.486086 -0.459089,0.540925 -0.920208,0.987163 -1.024708,0.991634 -0.104504,0.0044 -0.750743,-0.651853 -1.4361,-1.458503 z m 21.429951,-19.157935 c -2.675699,-5.369545 -3.632316,-11.859451 -2.619617,-17.772097 1.99728,-11.66111 11.152348,-21.028538 22.905525,-23.436841 3.30572,-0.677359 8.28229,-0.674684 11.59567,0.0063 1.92071,0.394714 5.67277,1.598308 5.50774,1.766789 -0.0687,0.07015 -2.06411,1.293754 -4.43421,2.719087 -3.3768,2.030758 -4.29786,2.668002 -4.25667,2.944984 0.0289,0.194393 0.10415,1.209456 0.16741,2.255668 0.14095,2.333152 -0.30275,4.381656 -1.41924,6.552745 -0.70949,1.379605 -0.7535,1.423552 -1.3818,1.379829 -2.47531,-0.172255 -3.72834,-0.08926 -4.78185,0.316656 -5.010934,1.93075 -6.389299,8.586363 -2.594487,12.527782 l 0.798512,0.829351 -0.341838,0.595639 c -0.751644,1.309826 -2.228161,3.139852 -3.640524,4.51214 -3.530759,3.430626 -8.343178,5.619221 -13.154503,5.982428 l -1.698091,0.128196 z m -3.876578,-0.219258 c -2.901923,-3.878085 -4.627715,-7.629479 -5.570745,-12.109254 -0.506213,-2.404726 -0.699611,-6.777096 -0.408823,-9.242732 0.798307,-6.768964 3.890261,-13.065573 8.756463,-17.8321 8.047984,-7.88314 19.733217,-10.55272 30.468031,-6.96063 1.09725,0.36717 2.7088,1.02435 3.58123,1.46042 1.70297,0.85119 4.39762,2.46718 4.29129,2.57349 -0.0357,0.03558 -0.61604,-0.1029 -1.28987,-0.30776 -11.07679,-3.36752 -23.161339,-0.61002 -31.318889,7.146451 -5.556192,5.283019 -8.58649,10.992283 -9.924251,18.697889 -0.370375,2.13338 -0.314309,7.468053 0.10284,9.78494 0.39927,2.217607 1.039519,4.510806 1.822045,6.526061 0.306209,0.788582 0.532273,1.45826 0.502364,1.488166 -0.02991,0.02991 -0.485163,-0.521314 -1.011679,-1.224941 z m 26.036786,-11.639809 c -1.05177,-0.324898 -2.41375,-1.387796 -3.001022,-2.34204 -1.199621,-1.949173 -0.787524,-4.387289 1.028702,-6.086144 0.90833,-0.849635 2.32034,-1.446204 3.42301,-1.446204 2.07287,0 4.26046,1.664442 4.84874,3.68921 0.73373,2.525397 -0.25192,4.643149 -2.75016,5.908303 -0.76937,0.389631 -2.69738,0.540031 -3.54927,0.276875 z m 22.05692,-0.270815 c -0.59084,-0.590857 -0.58623,-0.88201 0.0245,-1.609049 0.63588,-0.755697 1.42877,-0.786859 2.08219,-0.08185 0.60444,0.652223 0.59228,1.27026 -0.0346,1.763454 -0.67759,0.533 -1.49609,0.504346 -2.073,-0.07258 z m -14.51182,-7.433572 c -0.41131,-0.877717 -1.01764,-1.971507 -1.34737,-2.430649 l -0.59951,-0.8348 0.76866,-1.589766 c 1.22481,-2.533236 1.66622,-5.326432 1.27473,-8.066242 l -0.13823,-0.966511 7.72322,-4.617949 7.72325,-4.617953 1.14007,1.119491 c 4.45014,4.369723 7.15261,11.111316 6.96081,17.36439 l -0.0554,1.804989 -2.65997,0.121189 c -3.32459,0.151452 -5.76901,0.438385 -8.92014,1.047027 -2.77791,0.536552 -7.44826,1.839638 -9.65109,2.69279 l -1.47136,0.569842 z"
         id="path5"
         sodipodi:nodetypes="csscccsssssscssccsssscsscccsccccssssscssccsssssscssssscscsssscscsssssccsscssssscssscccsssscscsssscssccccsssssscsssscscsccssssssccsssssssscsssssccsccccscsccccsscssscc" /></g></g></svg>
