<?xml version="1.0" encoding="UTF-8" standalone="no"?>
<!-- Created with Inkscape (http://www.inkscape.org/) -->

<svg
   width="105.83334mm"
   height="105.83334mm"
   viewBox="0 0 105.83333 105.83333"
   version="1.1"
   id="svg1"
   xml:space="preserve"
   inkscape:version="1.4 (e7c3feb100, 2024-10-09)"
   sodipodi:docname="moscow.svg"
   inkscape:export-filename="../pngs/moscow.png"
   inkscape:export-xdpi="96"
   inkscape:export-ydpi="96"
   xmlns:inkscape="http://www.inkscape.org/namespaces/inkscape"
   xmlns:sodipodi="http://sodipodi.sourceforge.net/DTD/sodipodi-0.dtd"
   xmlns="http://www.w3.org/2000/svg"
   xmlns:svg="http://www.w3.org/2000/svg"><sodipodi:namedview
     id="namedview1"
     pagecolor="#ffffff"
     bordercolor="#000000"
     borderopacity="0.25"
     inkscape:showpageshadow="2"
     inkscape:pageopacity="0.0"
     inkscape:pagecheckerboard="0"
     inkscape:deskcolor="#d1d1d1"
     inkscape:document-units="mm"
     inkscape:zoom="0.99727873"
     inkscape:cx="398.08329"
     inkscape:cy="174.47479"
     inkscape:window-width="1920"
     inkscape:window-height="1011"
     inkscape:window-x="0"
     inkscape:window-y="32"
     inkscape:window-maximized="1"
     inkscape:current-layer="layer1"
     showgrid="false"
     showguides="false" /><defs
     id="defs1" /><g
     inkscape:label="Capa 1"
     inkscape:groupmode="layer"
     id="layer1"><path
       style="-inkscape-font-specification:'Ranked Sports';fill:#eaab00;stroke-width:1.04306"
       d="M 102.90362,96.133921 H 67.362709 V 78.423908 H 74.49507 L 74.676401,51.103342 59.565468,96.133921 H 45.361191 L 30.371147,52.674879 30.794253,78.423908 H 38.53105 V 96.133921 H 2.9296936 V 78.423908 H 9.7598352 V 27.409401 H 2.9296936 V 9.6993881 H 39.195931 L 53.27932,55.697066 67.000047,9.6993881 H 102.90362 V 27.409401 h -6.890583 v 51.014507 h 6.890583 z"
       id="path1" /><path
       style="-inkscape-font-specification:'Ranked Sports';stroke-width:1.04306"
       d="M 1.1563928,7.926066 V 29.182391 H 7.9871825 V 76.651593 H 1.1563928 V 97.907918 H 40.303561 V 86.908982 l 3.793298,10.998936 h 16.74389 L 65.589502,83.757407 V 97.907918 H 104.6776 V 76.651593 H 97.785685 V 29.182391 H 104.6776 V 7.926066 H 65.67914 L 53.258226,49.564751 40.507282,7.926066 Z m 3.5467953,3.546796 H 37.885384 l 15.415623,50.3539 15.020404,-50.3539 H 101.1308 V 25.635597 H 94.23889 V 80.19635 h 6.89191 V 94.361123 H 69.136298 V 80.19635 h 7.120075 L 76.449908,51.115073 72.994788,50.538541 58.290152,94.361123 H 46.625047 L 32.046719,52.097012 28.59771,52.704103 29.049972,80.19635 h 7.708831 V 94.361123 H 4.7031881 V 80.19635 H 11.533978 V 25.635597 H 4.7031881 Z M 72.829772,62.181238 72.73402,76.651593 h -4.760978 z m -40.501917,1.599215 4.43706,12.87114 h -4.227227 z"
       id="path2" /><path
       style="font-size:33.6872px;line-height:1;font-family:'The Augusta';-inkscape-font-specification:'The Augusta';text-align:center;letter-spacing:0px;text-anchor:middle;fill:#000000;stroke:#000000;stroke-width:3.92295;stroke-dasharray:none"
       d="m 48.543342,70.39073 c 1.570971,-0.367439 2.988683,-1.197146 3.984903,-2.196484 1.570981,-1.631884 2.452265,-3.715517 2.452265,-5.631341 0,-0.613064 -0.07667,-1.208197 -0.268213,-1.776458 -0.689698,0.697746 -1.494354,1.154165 -2.337307,1.351327 -1.762568,0.412252 -3.640072,-0.298108 -4.712931,-2.537744 -0.957911,-2.07494 -1.570969,-5.035184 -1.570969,-8.330401 0,-4.942825 1.341074,-10.659115 4.789559,-15.450603 0.153256,-0.227429 0.229894,-0.475253 0.229894,-0.705152 0,-1.647608 -3.448484,-3.561501 -5.440935,-3.095481 -0.383175,0.08961 -0.689697,0.237954 -0.919603,0.483306 -5.28767,5.336609 -7.318441,14.586063 -8.123085,17.992848 0.07666,-0.899208 0.07666,-1.780488 0.07666,-2.661767 0,-5.555887 -1.187807,-10.37416 -3.984915,-11.559126 -1.264435,-0.585536 -3.027003,-0.633082 -4.866187,-0.202911 -3.103631,0.725919 -6.513796,2.826292 -8.774473,6.228783 -1.532661,2.350935 -2.375625,5.000353 -2.375625,7.261024 0,2.375621 0.881284,4.315218 2.758787,5.063893 0.61307,0.239774 1.302766,0.231724 2.069091,0.05249 2.567201,-0.60045 5.479256,-3.388965 5.479256,-6.607549 l -0.03832,-0.527466 c -0.421482,0.213533 -0.842952,0.350428 -1.264434,0.449009 -2.490574,0.582527 -4.061554,-1.157436 -4.061554,-3.034944 0,-1.341076 0.804644,-2.755404 2.682159,-3.386125 l 0.574738,-0.172746 c 2.452265,-0.573568 4.78956,0.680631 6.322221,3.310836 -6.552115,3.52495 -2.797096,8.853945 -6.092314,16.674904 -1.072859,2.588239 -2.720468,4.774477 -5.747471,5.482472 l -0.804644,0.14988 c -2.912055,0.412895 -4.521344,-1.624643 -4.521344,-3.923631 0,-1.379393 0.574749,-2.854898 1.762557,-3.937363 -0.383164,0.779314 -0.53643,1.543175 -0.53643,2.271188 0,1.915824 1.264446,3.497587 3.486793,3.399276 l 0.804644,-0.11157 c 2.145731,-0.501871 4.061554,-2.405995 4.291449,-4.720436 l 0.03834,-0.698664 c 0,-3.218582 -2.528893,-4.236384 -5.402628,-3.564238 -2.222348,0.519791 -4.636293,2.080624 -6.207261,4.44052 -1.302766,1.990632 -1.954143,4.25039 -1.954143,6.434429 0,4.176495 2.452252,7.856059 7.280131,7.914663 0.804644,0.0033 1.647608,-0.07885 2.490562,-0.275994 5.057785,-1.18298 10.383774,-6.145388 11.265047,-14.627869 0.153266,-1.491873 0.191586,-2.880229 0.191586,-4.144673 0,-2.413938 -0.191586,-4.438216 -0.191586,-6.085825 0,-1.302759 0.153266,-2.411468 0.574748,-3.238064 0.728017,1.822179 1.187807,4.166891 1.187807,7.002311 0,3.103634 -0.536429,6.830849 -1.762555,11.102544 0.383162,0.829976 2.375625,0.938701 4.253129,0.499566 1.570981,-0.367442 3.065322,-1.100122 3.563431,-2.174539 -0.498109,-1.607736 -0.766324,-3.537459 -0.766324,-5.644865 0,-6.09232 1.992452,-13.570253 4.904506,-18.044693 0.07666,-0.13288 0.191576,-0.23639 0.229896,-0.245354 0.07666,-0.01792 0.114946,0.04975 0.114946,0.126382 0,0.07663 0,0.153266 -0.03832,0.238864 -1.57097,3.777605 -3.486793,12.38711 -3.486793,19.628923 0,4.329761 0.689696,8.153359 2.567201,10.166477 1.609289,1.731005 3.831647,2.054174 5.824109,1.588151 z m 0.383175,-26.719569 c -1.57097,3.777604 -2.758787,17.581142 3.448485,16.129304 1.647608,-0.385363 2.758787,-2.216236 3.525112,-4.50288 0.689697,1.984408 1.915824,3.230285 3.984915,2.74634 3.371845,-0.788652 4.329758,-7.296603 5.211041,-11.83249 0.153267,-0.802177 -1.379394,-0.558648 -1.456034,0.03401 -0.498109,2.87529 -1.456022,5.015162 -2.107399,5.052565 -1.532661,0.01362 -0.689697,-7.27208 0.996232,-9.69718 -0.344855,-2.103379 -4.25313,-1.993908 -5.670843,-0.206287 -0.957912,1.18196 -1.494341,3.797997 -1.800877,6.245314 -0.306533,2.830481 -0.344842,5.406646 -1.034539,5.414696 -1.57098,0.02259 -0.689697,-7.310397 0.99622,-9.735494 -0.268214,-2.427838 -5.096082,-1.911696 -6.092313,0.352088 z M 73.908828,30.701113 c -0.268214,-4.535243 -7.510026,-3.646081 -9.387531,1.659247 -0.766335,2.095063 -1.341086,7.440533 -1.417713,12.669497 -0.114948,6.310785 0.728018,12.32089 5.057773,11.078292 3.908276,-1.1057 4.138182,-7.443375 4.942827,-12.114603 0.153268,-0.802178 -1.532662,-0.561116 -1.609289,0.06987 -0.61307,4.204939 -1.954143,6.817594 -2.184039,3.806047 -0.344854,-4.823848 0.229896,-15.916788 4.597972,-17.16835 z m 3.180259,23.357219 c 5.364308,-1.024773 7.088545,-8.669874 7.510027,-12.753369 0.07666,-0.554362 -1.226126,-0.441229 -1.341073,0.08377 -0.574751,3.008163 -1.800877,5.325719 -3.525114,5.843956 -1.187819,0.35445 -2.64384,-0.454486 -2.68216,-2.093132 -0.03832,-0.144299 0.07666,-0.05625 0.153268,0.04077 1.302753,1.649435 4.406396,-0.264296 5.134401,-4.112951 0.881285,-4.344306 -1.609289,-5.907501 -4.406386,-5.214963 -4.176499,1.015174 -6.7437,5.677166 -7.050235,10.001992 -0.306536,4.516406 1.915823,9.054387 6.207272,8.203913 z m 1.64761,-15.865218 c 1.379392,-1.012327 -0.421482,5.271304 -1.341075,4.681747 -0.421482,-0.284585 0.344842,-3.988938 1.341075,-4.681747 z m 16.744266,6.275816 c 0.268215,-4.430812 -3.831647,-4.161578 -5.402615,-6.936091 -1.07286,-1.971421 2.528881,-3.771754 1.609288,1.002991 1.341075,0.644245 4.444717,-1.537701 3.448485,-4.140108 -1.03454,-2.708397 -4.559664,-2.458644 -7.356759,-0.693244 -5.172722,3.278952 -6.705383,11.56894 -4.444717,15.484897 3.065322,5.260412 11.763156,1.27191 12.146318,-4.718445 z M 85.288788,40.300691 c 0.268216,1.469925 0.842964,2.408358 1.724237,3.351728 1.954143,2.110143 -0.383162,3.768 -1.570969,1.823464 -0.842965,-1.412129 -0.804645,-3.796712 -0.153268,-5.175192 z"
       id="text2-6"
       aria-label="Mules" /><text
       xml:space="preserve"
       style="font-size:38.3164px;line-height:1;font-family:'Ranked Sports';-inkscape-font-specification:'Ranked Sports';text-align:center;letter-spacing:0px;writing-mode:lr-tb;direction:ltr;text-anchor:middle;fill:#ffffff;fill-opacity:1;stroke:none;stroke-width:1.30689;stroke-dasharray:none"
       x="53.121208"
       y="72.062065"
       id="text2"
       transform="skewY(-13.164425)"><tspan
         sodipodi:role="line"
         id="tspan2"
         style="font-style:normal;font-variant:normal;font-weight:normal;font-stretch:normal;font-family:'The Augusta';-inkscape-font-specification:'The Augusta';letter-spacing:0px;fill:#ffffff;fill-opacity:1;stroke:none;stroke-width:1.30689;stroke-dasharray:none"
         x="53.121208"
         y="72.062065">Mules</tspan></text></g></svg>
