<?xml version="1.0" encoding="UTF-8" standalone="no"?>
<!-- Created with Inkscape (http://www.inkscape.org/) -->

<svg
   width="105.83334mm"
   height="105.83334mm"
   viewBox="0 0 105.83333 105.83333"
   version="1.1"
   id="svg1"
   xml:space="preserve"
   inkscape:version="1.4 (e7c3feb100, 2024-10-09)"
   sodipodi:docname="NCAL.svg"
   inkscape:export-filename="../pngs/NBL.png"
   inkscape:export-xdpi="96"
   inkscape:export-ydpi="96"
   xmlns:inkscape="http://www.inkscape.org/namespaces/inkscape"
   xmlns:sodipodi="http://sodipodi.sourceforge.net/DTD/sodipodi-0.dtd"
   xmlns="http://www.w3.org/2000/svg"
   xmlns:svg="http://www.w3.org/2000/svg"><sodipodi:namedview
     id="namedview1"
     pagecolor="#ffffff"
     bordercolor="#000000"
     borderopacity="0.25"
     inkscape:showpageshadow="2"
     inkscape:pageopacity="0.0"
     inkscape:pagecheckerboard="0"
     inkscape:deskcolor="#d1d1d1"
     inkscape:document-units="mm"
     inkscape:zoom="1.6952882"
     inkscape:cx="221.20133"
     inkscape:cy="226.51016"
     inkscape:window-width="1920"
     inkscape:window-height="1011"
     inkscape:window-x="0"
     inkscape:window-y="32"
     inkscape:window-maximized="1"
     inkscape:current-layer="layer1"
     showgrid="false" /><defs
     id="defs1" /><g
     inkscape:label="Capa 1"
     inkscape:groupmode="layer"
     id="layer1"><rect
       style="fill:#ff5555;fill-rule:evenodd;stroke-width:0.303967;fill-opacity:1"
       id="rect1"
       width="68.66291"
       height="78.659187"
       x="18.498177"
       y="2.9653268"
       ry="10.682727" /><path
       style="fill:#000000;stroke-width:0.417465"
       d="m 29.545184,79.549429 c -2.472391,-0.323303 -4.711851,-2.02223 -5.744998,-4.358359 -0.645526,-1.459647 -0.61107,0.522571 -0.577917,-33.24665 l 0.03036,-30.927187 0.302567,-0.89229 c 0.801074,-2.362434 2.665589,-4.1361513 5.109691,-4.860873 0.604539,-0.1792575 1.411868,-0.2001327 9.195314,-0.2377623 7.459802,-0.036068 8.532589,-0.020796 8.532589,0.1214371 0,0.1192857 -0.13319,0.1626881 -0.499246,0.1626881 -0.956191,0 -2.001871,0.8781875 -2.323533,1.9513616 -0.52813,1.7620155 -0.204073,4.2371905 0.889139,6.7913135 l 0.381966,0.892412 -0.245864,0.09606 c -0.135226,0.0528 -0.817466,0.306671 -1.516089,0.564065 -0.698623,0.257402 -1.518745,0.577845 -1.822495,0.712091 -0.303749,0.134255 -0.685482,0.276528 -0.848296,0.316157 -0.367964,0.08958 -0.642836,0.355059 -0.642836,0.62088 0,0.15109 -0.139147,0.235383 -0.552145,0.334459 -1.115047,0.26749 -2.483477,1.435494 -3.69086,3.150262 -0.298533,0.423992 -0.946928,1.292788 -1.440877,1.930659 -0.493948,0.637879 -1.126461,1.482848 -1.405582,1.877723 -0.279123,0.394876 -0.817213,1.065889 -1.195758,1.491136 -1.486174,1.669533 -2.230249,3.3346 -3.146812,7.041837 -0.248955,1.006955 -1.260455,4.30988 -1.496679,4.88722 -0.15907,0.388772 -0.522365,1.53527 -0.595001,1.877715 -0.03866,0.182253 -0.216695,0.782238 -0.395641,1.333298 l -0.325357,1.001935 0.211853,1.262376 c 0.222344,1.324896 0.599587,2.282395 1.163077,2.952063 0.231313,0.274898 0.384467,0.353723 0.687285,0.353723 0.346414,0 0.383668,-0.02763 0.335749,-0.24852 -0.02965,-0.136691 -0.09227,-0.340204 -0.139156,-0.452261 -0.07413,-0.177151 -0.03634,-0.200278 0.289545,-0.17724 1.011981,0.07155 1.19008,0.01866 1.367407,-0.40569 0.25853,-0.618753 0.215261,-0.785897 -0.267159,-1.032005 -0.513174,-0.261802 -0.638571,-0.422329 -0.401085,-0.513468 0.182254,-0.06992 0.242453,-0.373989 0.07404,-0.373989 -0.213181,0 -0.19755,-0.32138 0.05398,-1.109795 0.308426,-0.966764 0.348103,-2.117565 0.101083,-2.931845 -0.09047,-0.298212 -0.165024,-0.657852 -0.165682,-0.799188 -0.0022,-0.467304 0.803349,-2.140765 2.189083,-4.547782 1.674418,-2.908465 3.221429,-5.701955 3.22357,-5.820923 8.97e-4,-0.04865 0.244737,-0.222451 0.541913,-0.386311 0.297177,-0.163868 1.169176,-0.810026 1.937775,-1.435909 0.7686,-0.625884 1.55093,-1.261766 1.738513,-1.413076 l 0.341058,-0.275102 -0.08387,1.158738 c -0.135565,1.873029 -0.160083,4.09473 -0.05241,4.748499 0.05503,0.334125 0.174915,1.328213 0.266409,2.209086 0.09149,0.880873 0.269525,2.372009 0.395625,3.313625 0.150432,1.123314 0.229637,2.319765 0.230335,3.47931 0.0014,2.344661 0.09451,2.569092 1.547727,3.731008 1.428514,1.142163 1.569799,1.309747 1.549121,1.837443 -0.01506,0.384355 0.02703,0.461909 0.363629,0.669937 0.595697,0.368163 1.321629,1.246999 2.107716,2.551686 0.397346,0.659481 0.977175,1.477771 1.288507,1.818415 l 0.56606,0.619356 -0.138162,0.53908 c -0.07599,0.296501 -0.107964,0.634228 -0.07106,0.750522 0.05923,0.186604 -0.04671,0.239507 -0.902276,0.450574 -0.53316,0.131533 -1.613442,0.417758 -2.400628,0.636054 -1.272333,0.352851 -1.523744,0.389244 -2.264312,0.327825 -0.730063,-0.06055 -1.010604,-0.156672 -2.26897,-0.777446 -0.789748,-0.389595 -1.65604,-0.766869 -1.925096,-0.838393 -0.648224,-0.172302 -1.363278,-0.05387 -1.777085,0.294317 -0.421973,0.355076 -0.529189,0.557856 -0.660197,1.248654 -0.138129,0.728357 0.0046,1.466305 0.513602,2.653874 0.573625,1.338562 0.697924,1.897273 0.700354,3.14794 0.0011,0.607499 0.05253,1.427622 0.114101,1.822498 0.299807,1.922608 1.957276,3.803868 3.176989,3.605937 0.779984,-0.126578 0.805121,-0.265176 0.455766,-2.512897 -0.499354,-3.212805 -0.03681,-4.65217 1.76678,-5.49797 0.526154,-0.246743 0.763488,-0.288703 1.611139,-0.284824 0.546748,0.0024 1.366871,0.04181 1.822494,0.08743 0.455624,0.04555 1.817573,0.151571 3.026555,0.23553 1.906671,0.132405 2.239283,0.183059 2.508361,0.382 0.447501,0.330858 1.467639,0.307682 2.473017,-0.05615 0.425248,-0.153894 0.910966,-0.275998 1.079374,-0.271345 0.4669,0.01288 1.301887,0.68203 2.018235,1.617281 0.354853,0.463295 0.831895,0.965909 1.060094,1.116918 0.27709,0.183376 0.614291,0.61031 1.015175,1.285316 0.330148,0.555908 0.858546,1.446715 1.174219,1.979569 1.596485,2.694831 2.679845,3.7255 5.466951,5.201046 2.452772,1.29855 4.969285,3.671748 6.027839,5.684574 0.418295,0.795382 1.231529,1.748358 2.350929,2.754897 0.734137,0.660126 1.718093,1.834387 1.733894,2.06925 0.0042,0.06079 0.154525,0.282541 0.334306,0.492867 0.179781,0.210334 0.326875,0.42158 0.326875,0.469431 0,0.113523 -44.914426,0.08596 -45.786618,-0.02811 z m 47.057281,-0.266163 c 0.294208,-0.148939 0.588433,-0.240387 0.653833,-0.203195 0.0654,0.03716 0.08123,0.02608 0.0352,-0.02461 -0.04605,-0.05077 0.05203,-0.18129 0.217966,-0.290145 0.504093,-0.330678 1.788587,-1.659754 2.072818,-2.144749 l 0.26742,-0.456319 -0.244715,-0.597004 c -0.134594,-0.328347 -0.284527,-0.65962 -0.333187,-0.736163 -0.04866,-0.07652 -0.977193,-0.729547 -2.063415,-1.45114 -1.086223,-0.721586 -1.940385,-1.35037 -1.898142,-1.397292 0.04225,-0.04694 0.02033,-0.05305 -0.04871,-0.01361 -0.06903,0.03944 -0.455684,-0.07798 -0.859223,-0.260979 -0.403538,-0.18297 -0.968359,-0.364138 -1.255157,-0.402585 -0.378791,-0.05077 -0.68766,-0.198403 -1.128956,-0.539577 -0.907886,-0.701898 -1.69823,-1.548578 -1.597571,-1.711444 0.05426,-0.0878 0.04029,-0.110255 -0.03832,-0.06169 -0.115534,0.07138 -0.990606,-1.017035 -1.518113,-1.888277 -0.118164,-0.19516 -0.716932,-1.139547 -1.330598,-2.098626 -0.613664,-0.959088 -1.33068,-2.116579 -1.593367,-2.572205 -0.262689,-0.455619 -0.593843,-0.956113 -0.735901,-1.112199 -0.142058,-0.156086 -0.220313,-0.325593 -0.1739,-0.376687 0.04642,-0.05109 0.02267,-0.05737 -0.05276,-0.01402 -0.175492,0.100942 -1.040634,-0.584339 -0.946411,-0.749658 0.03831,-0.06723 0.03045,-0.08684 -0.01745,-0.0436 -0.04792,0.04327 -0.298143,-0.09431 -0.556061,-0.305653 -0.314607,-0.257793 -0.805841,-0.937997 -1.492599,-2.066788 -1.78598,-2.935511 -3.448212,-5.531177 -3.884138,-6.065287 -0.232016,-0.284269 -0.421847,-0.549674 -0.421847,-0.589791 0,-0.04009 -0.105296,-0.158197 -0.23399,-0.262406 -0.162913,-0.131916 -0.247309,-0.349347 -0.277834,-0.715775 -0.02411,-0.28946 -0.140359,-0.715489 -0.258322,-0.946709 -0.117962,-0.231228 -0.179328,-0.459391 -0.136369,-0.507022 0.04296,-0.04767 0.01988,-0.05329 -0.05129,-0.01255 -0.129433,0.07408 -0.1853,-0.01263 -0.807159,-1.253673 -0.666425,-1.329956 -1.236638,-3.706578 -1.232287,-5.136123 0.0025,-0.836469 0.286937,-2.117108 0.6868,-3.092722 0.07469,-0.182244 0.142156,-0.381063 0.149909,-0.441814 0.0077,-0.06071 0.10603,-0.502988 0.218396,-0.98276 0.257546,-1.099649 0.206939,-1.804545 -0.315198,-4.390351 -0.216456,-1.071967 -0.393072,-2.016354 -0.392479,-2.098635 5.85e-4,-0.08228 0.117142,0.09893 0.258997,0.402675 0.508013,1.087792 1.218439,1.674878 3.27446,2.705954 0.637873,0.319889 1.424975,0.751125 1.749114,0.958297 0.324139,0.20718 0.775297,0.451088 1.00257,0.542031 0.227275,0.09093 1.105272,0.530483 1.951103,0.976762 1.452386,0.766315 2.937692,1.540779 3.003703,1.566179 0.01645,0.0065 -0.161524,0.214783 -0.395514,0.463238 -1.311007,1.392019 -1.800568,3.852184 -1.121964,5.638125 0.405443,1.067037 1.33017,2.332136 1.929374,2.639524 0.18225,0.09349 0.360496,0.214938 0.396103,0.269878 0.0356,0.05492 0.482947,0.245114 0.994087,0.422607 1.709261,0.593556 3.620954,0.39556 5.016153,-0.519531 0.96325,-0.631783 1.78966,-1.717555 2.256051,-2.964106 0.261851,-0.699852 0.313066,-2.16139 0.10473,-2.988765 -0.105531,-0.419103 -0.09714,-0.524356 0.05523,-0.692722 0.27581,-0.304764 0.215666,-0.609748 -0.186352,-0.944949 -0.298095,-0.248544 -0.357062,-0.366183 -0.317766,-0.633934 0.04104,-0.27947 -0.03244,-0.403897 -0.490003,-0.83 -0.296042,-0.275697 -0.676569,-0.572784 -0.845617,-0.660199 -0.169049,-0.08742 -0.278299,-0.205965 -0.242786,-0.263432 0.03678,-0.05949 -0.01703,-0.07318 -0.124959,-0.03178 -0.104884,0.04026 -0.161492,0.02738 -0.126739,-0.02885 0.03453,-0.0559 -0.04429,-0.105423 -0.175176,-0.110084 -0.535273,-0.01907 -1.898178,-0.379181 -2.003096,-0.529261 -0.06193,-0.0886 -0.162874,-0.244682 -0.224315,-0.346862 -0.09259,-0.153967 -0.357363,-0.194908 -1.546361,-0.239091 -1.027934,-0.03822 -1.53641,-0.104951 -1.793619,-0.23549 -0.197437,-0.100208 -0.358976,-0.220593 -0.358976,-0.267523 0,-0.04694 -0.05778,-0.08534 -0.128398,-0.08534 -0.237568,0 -1.196987,-0.683929 -1.124332,-0.801486 0.04138,-0.06698 0.01914,-0.0837 -0.05241,-0.03944 -0.117432,0.07261 -1.430877,-0.817303 -3.365638,-2.280267 -0.47306,-0.357708 -1.471637,-1.241483 -2.21906,-1.963948 L 58.79898,29.084066 58.662162,28.113798 c -0.07525,-0.533645 -0.145318,-1.077957 -0.155706,-1.209587 -0.01039,-0.131623 -0.04075,-0.217448 -0.06747,-0.190727 -0.02673,0.02673 -0.163412,-0.25684 -0.303749,-0.630146 -0.22624,-0.601819 -0.25516,-0.871966 -0.25516,-2.383653 0,-0.937697 -0.05613,-1.938165 -0.124726,-2.223249 -0.140168,-0.582433 -0.737655,-1.878612 -1.430931,-3.104188 -0.448846,-0.793467 -0.459807,-0.836388 -0.357613,-1.400192 l 0.105425,-0.581635 -0.780516,-0.443606 c -1.057277,-0.600899 -2.327276,-1.175183 -3.087751,-1.396257 -0.345797,-0.100526 -0.763402,-0.298669 -0.92801,-0.440314 -0.28408,-0.244446 -0.2917,-0.276259 -0.149943,-0.625973 0.08214,-0.202641 0.220475,-0.641815 0.307411,-0.97594 0.212812,-0.817906 0.207113,-3.38479 -0.0093,-4.188378 -0.08867,-0.329236 -0.130665,-0.652319 -0.09333,-0.717951 0.03733,-0.06568 0.02684,-0.08213 -0.02332,-0.03667 C 51.257304,7.610816 51.08036,7.412013 50.914259,7.1235306 50.748158,6.8350481 50.470577,6.4680403 50.297412,6.3079559 49.831071,5.8768441 48.463327,5.211782 47.868459,5.126885 47.399835,5.060006 61.140789,5.064692 73.730223,5.135705 l 4.859987,0.027413 0.748026,0.3531651 c 0.871362,0.4113937 1.873207,1.3704892 2.273744,2.1767269 0.591146,1.189915 0.559824,-0.730998 0.564057,34.590664 0.0037,29.746055 -0.01252,32.861146 -0.172158,33.329648 -0.09685,0.284245 -0.220543,0.489339 -0.274872,0.455757 -0.05432,-0.03357 -0.07272,0.0065 -0.04087,0.08984 0.126037,0.328445 -1.697174,2.142615 -2.026733,2.016688 -0.07909,-0.03023 -0.112548,-0.0041 -0.07435,0.05745 0.03916,0.06332 -0.331909,0.299866 -0.850284,0.542014 -1.36043,0.635507 -3.296218,1.096414 -2.134292,0.508171 z M 66.432384,38.46511 c 0,-0.114168 0.05921,-0.173085 0.142011,-0.141312 0.07811,0.02999 0.142014,0.09356 0.142014,0.141312 0,0.04775 -0.0639,0.111348 -0.142014,0.14132 -0.0828,0.03178 -0.142011,-0.02714 -0.142011,-0.14132 z"
       id="path1"
       sodipodi:nodetypes="csscsssssssccsscsssssssssscsssssscscssscscssscsssscssssscssscssccscccsssccssscssssssscsscccccsscssssscssssssssscssssssssscsscscssssssssccssssssssscssscsssscsssscsscssssscsscssssssccsssscsscsscscsccscsss" /><text
       xml:space="preserve"
       style="font-size:8.08618px;line-height:1;font-family:Sportsball;-inkscape-font-specification:Sportsball;text-align:center;letter-spacing:0px;writing-mode:lr-tb;direction:ltr;text-anchor:middle;fill:#ff5555;stroke-width:1.19116"
       x="47.414135"
       y="76.318138"
       id="text1"><tspan
         sodipodi:role="line"
         id="tspan1"
         x="47.414135"
         y="76.318138"
         style="stroke-width:1.19116;fill:#ff5555">NCAL</tspan></text></g></svg>
