<?xml version="1.0" encoding="UTF-8" standalone="no"?>
<!-- Created with Inkscape (http://www.inkscape.org/) -->

<svg
   width="105.83334mm"
   height="105.83334mm"
   viewBox="0 0 105.83333 105.83333"
   version="1.1"
   id="svg1"
   xml:space="preserve"
   inkscape:version="1.4 (e7c3feb100, 2024-10-09)"
   sodipodi:docname="NCAL.svg"
   inkscape:export-filename="../pngs/NBL.png"
   inkscape:export-xdpi="96"
   inkscape:export-ydpi="96"
   xmlns:inkscape="http://www.inkscape.org/namespaces/inkscape"
   xmlns:sodipodi="http://sodipodi.sourceforge.net/DTD/sodipodi-0.dtd"
   xmlns="http://www.w3.org/2000/svg"
   xmlns:svg="http://www.w3.org/2000/svg"><sodipodi:namedview
     id="namedview1"
     pagecolor="#ffffff"
     bordercolor="#000000"
     borderopacity="0.25"
     inkscape:showpageshadow="2"
     inkscape:pageopacity="0.0"
     inkscape:pagecheckerboard="0"
     inkscape:deskcolor="#d1d1d1"
     inkscape:document-units="mm"
     inkscape:zoom="0.8476441"
     inkscape:cx="414.08888"
     inkscape:cy="119.15378"
     inkscape:window-width="1920"
     inkscape:window-height="1011"
     inkscape:window-x="0"
     inkscape:window-y="32"
     inkscape:window-maximized="1"
     inkscape:current-layer="layer1"
     showgrid="false" /><defs
     id="defs1" /><g
     inkscape:label="Capa 1"
     inkscape:groupmode="layer"
     id="layer1"><g
       id="g1"><rect
         style="fill:#ff5555;fill-opacity:1;fill-rule:evenodd;stroke-width:0.27497"
         id="rect1"
         width="75.855881"
         height="103.56578"
         x="27.419949"
         y="2.5743477"
         ry="0.031059546"
         transform="matrix(1,0,-0.22869481,0.97349817,0,0)" /><text
         xml:space="preserve"
         style="font-size:21.4428px;line-height:1;font-family:Sportsball;-inkscape-font-specification:Sportsball;text-align:center;letter-spacing:0px;writing-mode:lr-tb;direction:ltr;text-anchor:middle;fill:#ffffff;stroke-width:3.15871"
         x="70.112717"
         y="21.577303"
         id="text1"
         transform="skewX(-24.584143)"><tspan
           sodipodi:role="line"
           id="tspan1"
           x="70.112717"
           y="21.577303"
           style="font-style:normal;font-variant:normal;font-weight:normal;font-stretch:normal;font-family:'Gaming Sporty';-inkscape-font-specification:'Gaming Sporty';fill:#ffffff;stroke-width:3.15871">NCAL</tspan></text><text
         xml:space="preserve"
         style="font-size:8.06539px;line-height:1;font-family:Sportsball;-inkscape-font-specification:Sportsball;text-align:center;letter-spacing:0px;writing-mode:lr-tb;direction:ltr;text-anchor:middle;fill:#ffffff;stroke-width:1.1881"
         x="86.508514"
         y="93.069061"
         id="text1-3"
         transform="skewX(-24.584143)"><tspan
           sodipodi:role="line"
           id="tspan1-6"
           x="86.508514"
           y="93.069061"
           style="font-style:normal;font-variant:normal;font-weight:normal;font-stretch:normal;font-family:'Gaming Sporty';-inkscape-font-specification:'Gaming Sporty';fill:#ffffff;stroke-width:1.1881">basketball</tspan></text><path
         style="fill:#008aff;fill-opacity:1;stroke:#ffffff;stroke-width:1.53;stroke-dasharray:none"
         d="m 50.373976,78.000398 c -0.891924,-0.05563 -2.353242,-0.219268 -2.918276,-0.3268 -1.063415,-0.202381 -1.831209,-0.377069 -2.543278,-0.578644 -0.823237,-0.233047 -2.087954,-0.661717 -2.599569,-0.881113 -0.144719,-0.06206 -0.424586,-0.18185 -0.621934,-0.266201 -0.649914,-0.277798 -1.170747,-0.528851 -1.255806,-0.605324 -0.04605,-0.04139 -0.08372,-0.117293 -0.08372,-0.168655 0,-0.06985 -0.02109,-0.08492 -0.08372,-0.05976 -0.196377,0.07888 -0.213497,0.06902 -0.03588,-0.02066 0.105245,-0.05313 0.589639,-0.260568 1.076413,-0.460952 0.486775,-0.200383 1.100324,-0.456235 1.363453,-0.56856 0.263119,-0.11232 0.725982,-0.306225 1.028574,-0.430889 0.302581,-0.124664 0.637348,-0.266066 0.743916,-0.314228 0.106567,-0.04816 0.55866,-0.237191 1.00465,-0.420067 0.44599,-0.182876 1.295274,-0.536358 1.887306,-0.785515 0.59202,-0.249156 1.646903,-0.69313 2.344179,-0.986605 0.697277,-0.293477 1.283918,-0.533442 1.303661,-0.53326 0.01977,1.83e-4 0.03243,0.01647 0.02826,0.03621 -0.0045,0.01973 0.0045,0.06816 0.02046,0.107641 0.04894,0.125383 0.12761,7.092453 0.08103,7.179404 -0.06328,0.11821 -0.108375,0.123336 -0.739734,0.08396 z m 2.209642,-0.06122 c -0.06916,-0.06913 -0.07798,-0.260404 -0.07718,-1.666697 4.63e-4,-0.873732 -0.01423,-2.657795 -0.03254,-3.964582 l -0.03345,-2.375976 0.258474,-0.165209 c 0.272589,-0.174227 1.655185,-1.023106 1.980741,-1.21612 0.105212,-0.0624 0.395872,-0.241974 0.645847,-0.399051 0.249964,-0.157077 0.583646,-0.361665 0.741519,-0.454641 0.157874,-0.09297 0.416213,-0.250174 0.574086,-0.349327 0.157874,-0.09915 0.932889,-0.575684 1.722257,-1.058959 1.992608,-1.219931 2.580492,-1.580555 3.324916,-2.039573 0.35521,-0.219029 0.731959,-0.449092 0.837204,-0.511251 0.221917,-0.131058 3.745333,-2.288913 3.994687,-2.446471 0.0921,-0.05819 0.253547,-0.16021 0.358803,-0.226711 0.105212,-0.0665 0.503523,-0.310851 0.885042,-0.543004 0.38153,-0.232151 0.746684,-0.455956 0.811438,-0.497343 0.06475,-0.04138 0.102613,-0.05059 0.08396,-0.02047 -0.01853,0.03013 -5.99e-4,0.06751 0.03989,0.08306 0.06204,0.02381 0.181526,0.250505 0.406391,0.771116 0.410721,0.950932 0.76054,2.195873 0.974624,3.468434 0.01548,0.09209 0.03876,0.221262 0.05165,0.287043 0.0426,0.216532 0.122942,0.873801 0.19302,1.578735 0.0704,0.708526 0.09617,2.969538 0.03786,3.322902 -0.02746,0.16661 -0.138052,0.296087 -0.920403,1.07808 -0.830288,0.829908 -1.416431,1.370946 -1.918033,1.770439 -0.11563,0.09209 -0.275889,0.2219 -0.356125,0.28846 -0.152675,0.126662 -0.429841,0.334171 -1.030924,0.771833 -1.75764,1.279786 -4.153487,2.509165 -6.368441,3.26782 -1.412058,0.483655 -3.398145,0.957206 -4.610946,1.099409 -0.105212,0.01234 -0.460467,0.05392 -0.789369,0.09239 -0.3289,0.03847 -0.847521,0.08431 -1.152476,0.101844 -0.477158,0.02745 -0.56535,0.02101 -0.632556,-0.04619 z M 24.133472,76.763619 c -2.215769,-0.101041 -3.792897,-0.398577 -5.086295,-0.959554 -3.312176,-1.43657 -4.17599,-4.482525 -2.488443,-8.774672 1.278699,-3.252274 3.989718,-7.054913 7.639957,-10.716265 l 1.144686,-1.148171 0.03618,0.191361 c 0.04926,0.260575 0.22675,1.861487 0.265199,2.392024 l 0.0312,0.430565 -0.409423,0.588468 c -1.314479,1.889318 -2.451309,3.993611 -2.716601,5.028479 -0.110738,0.431955 -0.118908,1.131902 -0.01875,1.604742 0.368181,1.738067 1.796775,2.987551 3.909821,3.41963 1.341303,0.274272 2.701501,0.254153 4.629333,-0.06848 6.561511,-1.09807 15.734009,-4.443809 22.795985,-8.315007 1.949756,-1.068809 3.388575,-1.945578 5.372707,-3.273939 8.863859,-5.934309 13.841158,-10.466981 17.363253,-15.812174 0.753985,-1.144266 0.989596,-1.624468 1.238025,-2.5232 0.124343,-0.449858 0.124671,-1.708619 5.65e-4,-2.176741 -0.110862,-0.418188 -0.38926,-1.023924 -0.640874,-1.394444 -0.271504,-0.399801 -0.980104,-1.053606 -1.42649,-1.316182 -1.139232,-0.670123 -2.398345,-0.962229 -4.134456,-0.959168 -0.921125,0.0016 -1.306824,0.03507 -2.655146,0.230234 -0.188532,0.02729 -0.207937,0.01485 -1.315605,-0.843269 -1.24588,-0.965189 -1.222,-0.945665 -1.192539,-0.975122 0.08306,-0.08307 2.342925,-0.693674 3.550098,-0.959217 3.099294,-0.681749 5.918868,-0.998584 8.90887,-1.001086 1.817094,-0.0015 2.504336,0.05285 3.635872,0.287677 4.92987,1.023068 6.071102,4.788462 3.376528,11.140538 -0.744345,1.754691 -1.627804,3.18863 -3.084298,5.006112 -4.042263,5.044124 -11.56032,11.214866 -20.361301,16.712359 -4.505804,2.814521 -11.208027,6.405002 -16.098321,8.624106 -8.785192,3.986515 -16.197661,5.837287 -22.269742,5.560387 z m 7.197468,-9.268513 c -0.08502,-0.05933 -0.655144,-0.921669 -1.035378,-1.566044 -0.73056,-1.238067 -1.468654,-2.742794 -1.842124,-3.755477 -0.423499,-1.148338 -0.513477,-1.420247 -0.751972,-2.272422 -0.330052,-1.17932 -0.331839,-1.186884 -0.525563,-2.224582 -0.337142,-1.805916 -0.426823,-2.933169 -0.395834,-4.975409 0.01338,-0.881461 0.03592,-1.66724 0.05011,-1.746177 0.01418,-0.07894 0.03976,-0.326512 0.05682,-0.550165 0.05259,-0.689055 0.364185,-2.459852 0.606112,-3.444514 0.06982,-0.284173 0.244767,-0.500337 0.746381,-0.922229 1.155719,-0.97204 2.166018,-1.620168 3.783079,-2.426924 1.145239,-0.571363 2.169629,-1.013108 3.185977,-1.373881 0.841985,-0.29888 1.041735,-0.366936 1.600894,-0.545442 1.89204,-0.604012 4.843197,-1.342151 5.407734,-1.352572 l 0.263118,-0.0048 0.01627,0.215281 c 0.04396,0.582552 -0.290184,3.196022 -0.571904,4.473084 -0.724015,3.282032 -2.138329,5.895052 -4.919869,9.08969 -1.892745,2.173846 -2.953346,3.840698 -3.915257,6.153264 -0.376818,0.905918 -0.905929,2.732238 -1.058625,3.654033 -0.02615,0.157873 -0.07045,0.416211 -0.09844,0.574084 -0.08827,0.497849 -0.240066,2.041089 -0.240122,2.44118 -3.7e-5,0.270088 -0.02215,0.415589 -0.07453,0.490365 -0.07471,0.106658 -0.192789,0.135359 -0.286852,0.06972 z m 40.652194,-0.311123 c -0.02769,-0.03338 -0.07516,-0.210989 -0.105437,-0.394684 -0.419523,-2.545026 -1.189227,-5.219198 -2.037699,-7.079497 -0.205043,-0.449565 -0.207439,-0.441662 0.23429,-0.77258 0.459777,-0.344447 2.798227,-2.126482 3.550143,-2.70541 0.184183,-0.141813 0.700859,-0.535474 1.148172,-0.874804 0.4473,-0.339331 0.920921,-0.700511 1.052486,-0.802625 0.555303,-0.431001 0.750357,-0.568638 0.773321,-0.545676 0.01334,0.0134 -0.03209,0.06136 -0.101144,0.106601 l -0.125518,0.08225 0.109392,0.05454 c 0.130842,0.06522 0.139374,0.155485 0.07729,0.817178 -0.05933,0.632075 -0.221362,1.863512 -0.295823,2.248503 -0.01017,0.05263 -0.03356,0.20332 -0.05198,0.334882 -0.01842,0.131562 -0.07503,0.41681 -0.125745,0.633887 -0.05074,0.217076 -0.136062,0.583055 -0.189607,0.813287 -0.150369,0.646508 -0.56275,1.992683 -0.795051,2.595346 -0.412336,1.069735 -0.518316,1.333316 -0.596292,1.483055 -0.04792,0.09209 -0.191923,0.394275 -0.319917,0.671516 -0.444159,0.96203 -1.653999,3.071308 -1.90645,3.323752 -0.08713,0.08716 -0.226594,0.09212 -0.294343,0.01051 z m -39.367285,-0.08308 c 0.06935,-0.0444 0.07494,-0.06908 0.02846,-0.125098 -0.04536,-0.05464 -0.04503,-0.160221 0.0015,-0.486503 0.369628,-2.59456 0.961778,-4.705024 1.827863,-6.514639 0.680037,-1.420885 1.017632,-1.923387 2.568881,-3.823711 0.201686,-0.247068 0.42052,-0.518649 0.486301,-0.603514 0.06578,-0.08487 0.216479,-0.278509 0.334884,-0.430323 0.118405,-0.151814 0.269103,-0.345033 0.334883,-0.429375 1.041265,-1.335091 2.13881,-2.906199 2.82485,-4.043709 0.720839,-1.195209 1.502624,-2.891483 1.833412,-3.978057 0.153738,-0.504995 0.391791,-1.508805 0.435062,-1.83456 0.01751,-0.131561 0.04046,-0.293023 0.0512,-0.358803 0.175898,-1.085715 0.357854,-2.507688 0.431581,-3.372753 0.04486,-0.526245 0.09968,-0.979804 0.121813,-1.007908 0.05876,-0.07461 0.983912,-0.180824 3.080861,-0.353711 1.858636,-0.153241 3.670069,-0.202022 3.770635,-0.101551 0.04215,0.04209 0.06408,1.025753 0.08566,3.84557 0.01605,2.083958 0.05572,6.744401 0.08826,10.356541 0.03254,3.612139 0.04758,6.597816 0.03334,6.634839 -0.06012,0.156517 -3.972165,2.008295 -5.821906,2.755777 -0.706363,0.285438 -0.847037,0.340748 -1.504918,0.591682 -2.474897,0.943984 -5.341287,1.863772 -7.989365,2.563684 -0.828705,0.219033 -2.451406,0.620384 -2.702986,0.668541 -0.118406,0.02267 -0.258339,0.05509 -0.310962,0.07206 -0.08836,0.02848 -0.08908,0.0266 -0.0093,-0.02447 z m 19.835978,-7.482916 c 0.04384,-0.05281 0.04136,-0.07673 -0.0113,-0.107641 -0.0565,-0.03342 -0.07594,-0.861729 -0.122196,-5.206514 -0.03017,-2.841723 -0.079,-7.267785 -0.108488,-9.835692 -0.02939,-2.567906 -0.03944,-4.713357 -0.02215,-4.767667 0.01718,-0.05431 0.05741,-0.107008 0.08928,-0.11711 0.158779,-0.05029 3.027251,0.08725 4.124422,0.197769 2.591849,0.261073 2.782021,0.287981 2.85698,0.40425 0.01887,0.02935 0.0339,0.462389 0.03334,0.962321 -0.0011,1.271893 0.0669,1.995587 0.298333,3.157472 0.432677,2.172565 1.31322,4.344482 2.628092,6.482383 0.234651,0.381529 0.458081,0.734374 0.496492,0.784104 0.06645,0.08607 0.0921,0.07341 0.532296,-0.263123 0.254338,-0.194446 0.504382,-0.387177 0.555642,-0.428292 0.09052,-0.07259 0.08295,-0.09195 -0.260689,-0.669766 -0.784486,-1.318939 -1.175214,-2.06958 -1.636438,-3.143831 -0.619899,-1.44383 -1.112867,-3.137763 -1.249144,-4.292371 -0.01864,-0.157873 -0.04193,-0.340863 -0.05164,-0.406644 -0.05989,-0.402232 -0.107133,-1.834852 -0.06317,-1.917013 0.05956,-0.111314 0.158666,-0.114569 0.596202,-0.01961 0.184183,0.03997 0.431739,0.09263 0.55015,0.117005 2.179831,0.448847 2.838764,0.626408 5.047173,1.360049 1.534719,0.509839 1.945664,0.658493 3.205308,1.159461 1.560326,0.620553 2.389067,0.980556 2.469811,1.07288 0.04271,0.04893 0.09119,0.0755 0.107584,0.05909 0.01638,-0.01642 0.02984,-0.01436 0.02984,0.0046 0,0.01893 -0.12379,0.186883 -0.275086,0.373194 -0.151297,0.186311 -0.339672,0.419423 -0.418609,0.518025 -1.049084,1.310459 -3.336442,3.468495 -5.26016,4.962756 -1.314917,1.021374 -3.232464,2.430761 -4.40361,3.236641 -0.573521,0.394642 -5.301997,3.550273 -6.075735,4.054741 -0.26313,0.171553 -0.725982,0.473292 -1.028574,0.670531 -0.302593,0.197238 -0.765444,0.493698 -1.028574,0.658799 -0.263118,0.165102 -0.553756,0.347945 -0.645846,0.406318 -0.5194,0.32923 -0.966882,0.600807 -0.989959,0.600807 -0.01458,0 -0.001,-0.03056 0.02995,-0.06789 z M 28.588616,44.046755 c -0.111755,-0.07079 -0.07452,-0.254653 0.161514,-0.79753 0.893617,-2.055361 2.298916,-4.361218 3.619034,-5.938219 0.114484,-0.13676 0.329457,-0.395099 0.477717,-0.574085 0.301547,-0.364037 1.691298,-1.78427 2.101149,-2.147234 1.008508,-0.893135 2.137607,-1.790149 2.253313,-1.790149 0.118587,0 0.808615,0.304784 1.202445,0.531117 1.693206,0.973084 2.921898,2.217753 3.537153,3.583163 0.28468,0.631793 0.586935,1.741037 0.531819,1.951776 -0.03266,0.124844 0.0068,0.11276 -1.044959,0.317734 -1.561362,0.304202 -3.022804,0.647573 -3.898996,0.916081 -2.344906,0.718597 -5.022967,1.903382 -7.763971,3.434815 -0.546999,0.305616 -1.020619,0.555333 -1.05249,0.554931 -0.03187,-4.04e-4 -0.08755,-0.01948 -0.123728,-0.0424 z m 44.533502,-0.937011 c -0.0921,-0.03253 -0.340564,-0.146215 -0.552151,-0.25263 -0.852687,-0.428832 -2.722025,-1.22143 -3.897013,-1.652332 -0.447708,-0.164185 -2.094892,-0.674912 -2.655146,-0.823255 -0.157873,-0.0418 -0.491566,-0.130221 -0.741531,-0.196485 -0.827429,-0.219352 -2.257116,-0.544519 -3.372753,-0.767103 -0.605185,-0.120743 -1.127241,-0.241051 -1.160128,-0.267353 -0.133203,-0.106522 -0.01536,-0.695013 0.30838,-1.540489 0.698825,-1.824887 2.088067,-3.307125 4.248426,-4.532817 0.739428,-0.419525 0.704768,-0.410199 0.943658,-0.25391 0.540194,0.35341 2.066833,1.632745 2.854008,2.391662 1.658712,1.599184 3.406735,3.913072 4.554115,6.028348 0.420088,0.774461 0.419128,0.638661 0.0091,1.319113 -0.196918,0.326978 -0.36112,0.597182 -0.364895,0.600454 -0.0034,0.0032 -0.08227,-0.02067 -0.174316,-0.0532 z m -14.423901,-4.25825 c -0.390186,-0.06206 -0.522102,-0.08075 -1.196019,-0.169534 -1.275894,-0.168071 -2.492085,-0.270605 -3.946838,-0.332746 -0.888873,-0.03797 -1.286122,-0.0721 -1.32919,-0.114213 -0.04871,-0.04762 -0.06995,-1.086276 -0.102386,-5.008224 -0.03843,-4.643355 -0.03593,-4.952637 0.04102,-5.020773 0.06916,-0.06121 0.182758,-0.06704 0.72432,-0.03715 2.860043,0.157845 5.552481,0.750475 8.146727,1.793168 0.858631,0.345104 2.471213,1.125677 3.116166,1.508381 0.384559,0.228193 0.430564,0.270325 0.430564,0.394299 0,0.126237 -0.04757,0.166442 -0.525458,0.443943 -1.614706,0.937681 -2.866823,2.282577 -3.68616,3.959336 -0.393148,0.804547 -0.545167,1.215639 -0.759782,2.054526 l -0.147534,0.576699 -0.191358,0.0066 c -0.105211,0.0036 -0.363595,-0.0208 -0.574086,-0.05429 z M 43.831988,38.721929 c -0.04961,-0.03676 -0.104082,-0.178588 -0.134232,-0.348978 -0.06136,-0.347278 -0.311114,-1.252745 -0.413059,-1.497459 -0.326777,-0.784439 -0.971019,-1.868945 -1.457477,-2.453483 -0.463699,-0.55719 -1.825255,-1.574681 -2.848666,-2.128808 -0.366723,-0.198563 -0.44687,-0.316358 -0.314653,-0.462457 0.101245,-0.11188 1.135824,-0.694292 2.000774,-1.12634 1.203499,-0.601156 3.033363,-1.301943 4.207639,-1.611413 0.263131,-0.06934 0.58846,-0.157823 0.722964,-0.196621 0.134514,-0.0388 0.285212,-0.0788 0.334891,-0.08888 0.04972,-0.01009 0.41324,-0.08539 0.807923,-0.167333 0.69826,-0.144976 1.210666,-0.221991 2.392028,-0.359521 0.633901,-0.07379 1.5535,-0.141609 1.557127,-0.114823 0.0011,0.0094 0.02147,2.266819 0.04475,5.01645 0.03278,3.850823 0.02939,5.012724 -0.01447,5.057642 -0.03763,0.03847 -0.309215,0.06702 -0.798284,0.08391 -1.604139,0.05538 -2.946856,0.139047 -4.233655,0.263797 -1.035049,0.100344 -1.302881,0.12912 -1.602659,0.172195 -0.09866,0.01418 -0.201744,-0.0013 -0.25096,-0.03787 z"
         id="path1-2" /><path
         style="fill:#008aff;fill-opacity:1;stroke-width:1.13009"
         d="m 50.373976,78.000398 c -0.891924,-0.05563 -2.353242,-0.219268 -2.918276,-0.3268 -1.063415,-0.202381 -1.831209,-0.377069 -2.543278,-0.578644 -0.823237,-0.233047 -2.087954,-0.661717 -2.599569,-0.881113 -0.144719,-0.06206 -0.424586,-0.18185 -0.621934,-0.266201 -0.649914,-0.277798 -1.170747,-0.528851 -1.255806,-0.605324 -0.04605,-0.04139 -0.08372,-0.117293 -0.08372,-0.168655 0,-0.06985 -0.02109,-0.08492 -0.08372,-0.05976 -0.196377,0.07888 -0.213497,0.06902 -0.03588,-0.02066 0.105245,-0.05313 0.589639,-0.260568 1.076413,-0.460952 0.486775,-0.200383 1.100324,-0.456235 1.363453,-0.56856 0.263119,-0.11232 0.725982,-0.306225 1.028574,-0.430889 0.302581,-0.124664 0.637348,-0.266066 0.743916,-0.314228 0.106567,-0.04816 0.55866,-0.237191 1.00465,-0.420067 0.44599,-0.182876 1.295274,-0.536358 1.887306,-0.785515 0.59202,-0.249156 1.646903,-0.69313 2.344179,-0.986605 0.697277,-0.293477 1.283918,-0.533442 1.303661,-0.53326 0.01977,1.83e-4 0.03243,0.01647 0.02826,0.03621 -0.0045,0.01973 0.0045,0.06816 0.02046,0.107641 0.04894,0.125383 0.12761,7.092453 0.08103,7.179404 -0.06328,0.11821 -0.108375,0.123336 -0.739734,0.08396 z m 2.209642,-0.06122 c -0.06916,-0.06913 -0.07798,-0.260404 -0.07718,-1.666697 4.63e-4,-0.873732 -0.01423,-2.657795 -0.03254,-3.964582 l -0.03345,-2.375976 0.258474,-0.165209 c 0.272589,-0.174227 1.655185,-1.023106 1.980741,-1.21612 0.105212,-0.0624 0.395872,-0.241974 0.645847,-0.399051 0.249964,-0.157077 0.583646,-0.361665 0.741519,-0.454641 0.157874,-0.09297 0.416213,-0.250174 0.574086,-0.349327 0.157874,-0.09915 0.932889,-0.575684 1.722257,-1.058959 1.992608,-1.219931 2.580492,-1.580555 3.324916,-2.039573 0.35521,-0.219029 0.731959,-0.449092 0.837204,-0.511251 0.221917,-0.131058 3.745333,-2.288913 3.994687,-2.446471 0.0921,-0.05819 0.253547,-0.16021 0.358803,-0.226711 0.105212,-0.0665 0.503523,-0.310851 0.885042,-0.543004 0.38153,-0.232151 0.746684,-0.455956 0.811438,-0.497343 0.06475,-0.04138 0.102613,-0.05059 0.08396,-0.02047 -0.01853,0.03013 -5.99e-4,0.06751 0.03989,0.08306 0.06204,0.02381 0.181526,0.250505 0.406391,0.771116 0.410721,0.950932 0.76054,2.195873 0.974624,3.468434 0.01548,0.09209 0.03876,0.221262 0.05165,0.287043 0.0426,0.216532 0.122942,0.873801 0.19302,1.578735 0.0704,0.708526 0.09617,2.969538 0.03786,3.322902 -0.02746,0.16661 -0.138052,0.296087 -0.920403,1.07808 -0.830288,0.829908 -1.416431,1.370946 -1.918033,1.770439 -0.11563,0.09209 -0.275889,0.2219 -0.356125,0.28846 -0.152675,0.126662 -0.429841,0.334171 -1.030924,0.771833 -1.75764,1.279786 -4.153487,2.509165 -6.368441,3.26782 -1.412058,0.483655 -3.398145,0.957206 -4.610946,1.099409 -0.105212,0.01234 -0.460467,0.05392 -0.789369,0.09239 -0.3289,0.03847 -0.847521,0.08431 -1.152476,0.101844 -0.477158,0.02745 -0.56535,0.02101 -0.632556,-0.04619 z M 24.133472,76.763619 c -2.215769,-0.101041 -3.792897,-0.398577 -5.086295,-0.959554 -3.312176,-1.43657 -4.17599,-4.482525 -2.488443,-8.774672 1.278699,-3.252274 3.989718,-7.054913 7.639957,-10.716265 l 1.144686,-1.148171 0.03618,0.191361 c 0.04926,0.260575 0.22675,1.861487 0.265199,2.392024 l 0.0312,0.430565 -0.409423,0.588468 c -1.314479,1.889318 -2.451309,3.993611 -2.716601,5.028479 -0.110738,0.431955 -0.118908,1.131902 -0.01875,1.604742 0.368181,1.738067 1.796775,2.987551 3.909821,3.41963 1.341303,0.274272 2.701501,0.254153 4.629333,-0.06848 6.561511,-1.09807 15.734009,-4.443809 22.795985,-8.315007 1.949756,-1.068809 3.388575,-1.945578 5.372707,-3.273939 8.863859,-5.934309 13.841158,-10.466981 17.363253,-15.812174 0.753985,-1.144266 0.989596,-1.624468 1.238025,-2.5232 0.124343,-0.449858 0.124671,-1.708619 5.65e-4,-2.176741 -0.110862,-0.418188 -0.38926,-1.023924 -0.640874,-1.394444 -0.271504,-0.399801 -0.980104,-1.053606 -1.42649,-1.316182 -1.139232,-0.670123 -2.398345,-0.962229 -4.134456,-0.959168 -0.921125,0.0016 -1.306824,0.03507 -2.655146,0.230234 -0.188532,0.02729 -0.207937,0.01485 -1.315605,-0.843269 -1.24588,-0.965189 -1.222,-0.945665 -1.192539,-0.975122 0.08306,-0.08307 2.342925,-0.693674 3.550098,-0.959217 3.099294,-0.681749 5.918868,-0.998584 8.90887,-1.001086 1.817094,-0.0015 2.504336,0.05285 3.635872,0.287677 4.92987,1.023068 6.071102,4.788462 3.376528,11.140538 -0.744345,1.754691 -1.627804,3.18863 -3.084298,5.006112 -4.042263,5.044124 -11.56032,11.214866 -20.361301,16.712359 -4.505804,2.814521 -11.208027,6.405002 -16.098321,8.624106 -8.785192,3.986515 -16.197661,5.837287 -22.269742,5.560387 z m 7.197468,-9.268513 c -0.08502,-0.05933 -0.655144,-0.921669 -1.035378,-1.566044 -0.73056,-1.238067 -1.468654,-2.742794 -1.842124,-3.755477 -0.423499,-1.148338 -0.513477,-1.420247 -0.751972,-2.272422 -0.330052,-1.17932 -0.331839,-1.186884 -0.525563,-2.224582 -0.337142,-1.805916 -0.426823,-2.933169 -0.395834,-4.975409 0.01338,-0.881461 0.03592,-1.66724 0.05011,-1.746177 0.01418,-0.07894 0.03976,-0.326512 0.05682,-0.550165 0.05259,-0.689055 0.364185,-2.459852 0.606112,-3.444514 0.06982,-0.284173 0.244767,-0.500337 0.746381,-0.922229 1.155719,-0.97204 2.166018,-1.620168 3.783079,-2.426924 1.145239,-0.571363 2.169629,-1.013108 3.185977,-1.373881 0.841985,-0.29888 1.041735,-0.366936 1.600894,-0.545442 1.89204,-0.604012 4.843197,-1.342151 5.407734,-1.352572 l 0.263118,-0.0048 0.01627,0.215281 c 0.04396,0.582552 -0.290184,3.196022 -0.571904,4.473084 -0.724015,3.282032 -2.138329,5.895052 -4.919869,9.08969 -1.892745,2.173846 -2.953346,3.840698 -3.915257,6.153264 -0.376818,0.905918 -0.905929,2.732238 -1.058625,3.654033 -0.02615,0.157873 -0.07045,0.416211 -0.09844,0.574084 -0.08827,0.497849 -0.240066,2.041089 -0.240122,2.44118 -3.7e-5,0.270088 -0.02215,0.415589 -0.07453,0.490365 -0.07471,0.106658 -0.192789,0.135359 -0.286852,0.06972 z m 40.652194,-0.311123 c -0.02769,-0.03338 -0.07516,-0.210989 -0.105437,-0.394684 -0.419523,-2.545026 -1.189227,-5.219198 -2.037699,-7.079497 -0.205043,-0.449565 -0.207439,-0.441662 0.23429,-0.77258 0.459777,-0.344447 2.798227,-2.126482 3.550143,-2.70541 0.184183,-0.141813 0.700859,-0.535474 1.148172,-0.874804 0.4473,-0.339331 0.920921,-0.700511 1.052486,-0.802625 0.555303,-0.431001 0.750357,-0.568638 0.773321,-0.545676 0.01334,0.0134 -0.03209,0.06136 -0.101144,0.106601 l -0.125518,0.08225 0.109392,0.05454 c 0.130842,0.06522 0.139374,0.155485 0.07729,0.817178 -0.05933,0.632075 -0.221362,1.863512 -0.295823,2.248503 -0.01017,0.05263 -0.03356,0.20332 -0.05198,0.334882 -0.01842,0.131562 -0.07503,0.41681 -0.125745,0.633887 -0.05074,0.217076 -0.136062,0.583055 -0.189607,0.813287 -0.150369,0.646508 -0.56275,1.992683 -0.795051,2.595346 -0.412336,1.069735 -0.518316,1.333316 -0.596292,1.483055 -0.04792,0.09209 -0.191923,0.394275 -0.319917,0.671516 -0.444159,0.96203 -1.653999,3.071308 -1.90645,3.323752 -0.08713,0.08716 -0.226594,0.09212 -0.294343,0.01051 z m -39.367285,-0.08308 c 0.06935,-0.0444 0.07494,-0.06908 0.02846,-0.125098 -0.04536,-0.05464 -0.04503,-0.160221 0.0015,-0.486503 0.369628,-2.59456 0.961778,-4.705024 1.827863,-6.514639 0.680037,-1.420885 1.017632,-1.923387 2.568881,-3.823711 0.201686,-0.247068 0.42052,-0.518649 0.486301,-0.603514 0.06578,-0.08487 0.216479,-0.278509 0.334884,-0.430323 0.118405,-0.151814 0.269103,-0.345033 0.334883,-0.429375 1.041265,-1.335091 2.13881,-2.906199 2.82485,-4.043709 0.720839,-1.195209 1.502624,-2.891483 1.833412,-3.978057 0.153738,-0.504995 0.391791,-1.508805 0.435062,-1.83456 0.01751,-0.131561 0.04046,-0.293023 0.0512,-0.358803 0.175898,-1.085715 0.357854,-2.507688 0.431581,-3.372753 0.04486,-0.526245 0.09968,-0.979804 0.121813,-1.007908 0.05876,-0.07461 0.983912,-0.180824 3.080861,-0.353711 1.858636,-0.153241 3.670069,-0.202022 3.770635,-0.101551 0.04215,0.04209 0.06408,1.025753 0.08566,3.84557 0.01605,2.083958 0.05572,6.744401 0.08826,10.356541 0.03254,3.612139 0.04758,6.597816 0.03334,6.634839 -0.06012,0.156517 -3.972165,2.008295 -5.821906,2.755777 -0.706363,0.285438 -0.847037,0.340748 -1.504918,0.591682 -2.474897,0.943984 -5.341287,1.863772 -7.989365,2.563684 -0.828705,0.219033 -2.451406,0.620384 -2.702986,0.668541 -0.118406,0.02267 -0.258339,0.05509 -0.310962,0.07206 -0.08836,0.02848 -0.08908,0.0266 -0.0093,-0.02447 z m 19.835978,-7.482916 c 0.04384,-0.05281 0.04136,-0.07673 -0.0113,-0.107641 -0.0565,-0.03342 -0.07594,-0.861729 -0.122196,-5.206514 -0.03017,-2.841723 -0.079,-7.267785 -0.108488,-9.835692 -0.02939,-2.567906 -0.03944,-4.713357 -0.02215,-4.767667 0.01718,-0.05431 0.05741,-0.107008 0.08928,-0.11711 0.158779,-0.05029 3.027251,0.08725 4.124422,0.197769 2.591849,0.261073 2.782021,0.287981 2.85698,0.40425 0.01887,0.02935 0.0339,0.462389 0.03334,0.962321 -0.0011,1.271893 0.0669,1.995587 0.298333,3.157472 0.432677,2.172565 1.31322,4.344482 2.628092,6.482383 0.234651,0.381529 0.458081,0.734374 0.496492,0.784104 0.06645,0.08607 0.0921,0.07341 0.532296,-0.263123 0.254338,-0.194446 0.504382,-0.387177 0.555642,-0.428292 0.09052,-0.07259 0.08295,-0.09195 -0.260689,-0.669766 -0.784486,-1.318939 -1.175214,-2.06958 -1.636438,-3.143831 -0.619899,-1.44383 -1.112867,-3.137763 -1.249144,-4.292371 -0.01864,-0.157873 -0.04193,-0.340863 -0.05164,-0.406644 -0.05989,-0.402232 -0.107133,-1.834852 -0.06317,-1.917013 0.05956,-0.111314 0.158666,-0.114569 0.596202,-0.01961 0.184183,0.03997 0.431739,0.09263 0.55015,0.117005 2.179831,0.448847 2.838764,0.626408 5.047173,1.360049 1.534719,0.509839 1.945664,0.658493 3.205308,1.159461 1.560326,0.620553 2.389067,0.980556 2.469811,1.07288 0.04271,0.04893 0.09119,0.0755 0.107584,0.05909 0.01638,-0.01642 0.02984,-0.01436 0.02984,0.0046 0,0.01893 -0.12379,0.186883 -0.275086,0.373194 -0.151297,0.186311 -0.339672,0.419423 -0.418609,0.518025 -1.049084,1.310459 -3.336442,3.468495 -5.26016,4.962756 -1.314917,1.021374 -3.232464,2.430761 -4.40361,3.236641 -0.573521,0.394642 -5.301997,3.550273 -6.075735,4.054741 -0.26313,0.171553 -0.725982,0.473292 -1.028574,0.670531 -0.302593,0.197238 -0.765444,0.493698 -1.028574,0.658799 -0.263118,0.165102 -0.553756,0.347945 -0.645846,0.406318 -0.5194,0.32923 -0.966882,0.600807 -0.989959,0.600807 -0.01458,0 -0.001,-0.03056 0.02995,-0.06789 z M 28.588616,44.046755 c -0.111755,-0.07079 -0.07452,-0.254653 0.161514,-0.79753 0.893617,-2.055361 2.298916,-4.361218 3.619034,-5.938219 0.114484,-0.13676 0.329457,-0.395099 0.477717,-0.574085 0.301547,-0.364037 1.691298,-1.78427 2.101149,-2.147234 1.008508,-0.893135 2.137607,-1.790149 2.253313,-1.790149 0.118587,0 0.808615,0.304784 1.202445,0.531117 1.693206,0.973084 2.921898,2.217753 3.537153,3.583163 0.28468,0.631793 0.586935,1.741037 0.531819,1.951776 -0.03266,0.124844 0.0068,0.11276 -1.044959,0.317734 -1.561362,0.304202 -3.022804,0.647573 -3.898996,0.916081 -2.344906,0.718597 -5.022967,1.903382 -7.763971,3.434815 -0.546999,0.305616 -1.020619,0.555333 -1.05249,0.554931 -0.03187,-4.04e-4 -0.08755,-0.01948 -0.123728,-0.0424 z m 44.533502,-0.937011 c -0.0921,-0.03253 -0.340564,-0.146215 -0.552151,-0.25263 -0.852687,-0.428832 -2.722025,-1.22143 -3.897013,-1.652332 -0.447708,-0.164185 -2.094892,-0.674912 -2.655146,-0.823255 -0.157873,-0.0418 -0.491566,-0.130221 -0.741531,-0.196485 -0.827429,-0.219352 -2.257116,-0.544519 -3.372753,-0.767103 -0.605185,-0.120743 -1.127241,-0.241051 -1.160128,-0.267353 -0.133203,-0.106522 -0.01536,-0.695013 0.30838,-1.540489 0.698825,-1.824887 2.088067,-3.307125 4.248426,-4.532817 0.739428,-0.419525 0.704768,-0.410199 0.943658,-0.25391 0.540194,0.35341 2.066833,1.632745 2.854008,2.391662 1.658712,1.599184 3.406735,3.913072 4.554115,6.028348 0.420088,0.774461 0.419128,0.638661 0.0091,1.319113 -0.196918,0.326978 -0.36112,0.597182 -0.364895,0.600454 -0.0034,0.0032 -0.08227,-0.02067 -0.174316,-0.0532 z m -14.423901,-4.25825 c -0.390186,-0.06206 -0.522102,-0.08075 -1.196019,-0.169534 -1.275894,-0.168071 -2.492085,-0.270605 -3.946838,-0.332746 -0.888873,-0.03797 -1.286122,-0.0721 -1.32919,-0.114213 -0.04871,-0.04762 -0.06995,-1.086276 -0.102386,-5.008224 -0.03843,-4.643355 -0.03593,-4.952637 0.04102,-5.020773 0.06916,-0.06121 0.182758,-0.06704 0.72432,-0.03715 2.860043,0.157845 5.552481,0.750475 8.146727,1.793168 0.858631,0.345104 2.471213,1.125677 3.116166,1.508381 0.384559,0.228193 0.430564,0.270325 0.430564,0.394299 0,0.126237 -0.04757,0.166442 -0.525458,0.443943 -1.614706,0.937681 -2.866823,2.282577 -3.68616,3.959336 -0.393148,0.804547 -0.545167,1.215639 -0.759782,2.054526 l -0.147534,0.576699 -0.191358,0.0066 c -0.105211,0.0036 -0.363595,-0.0208 -0.574086,-0.05429 z M 43.831988,38.721929 c -0.04961,-0.03676 -0.104082,-0.178588 -0.134232,-0.348978 -0.06136,-0.347278 -0.311114,-1.252745 -0.413059,-1.497459 -0.326777,-0.784439 -0.971019,-1.868945 -1.457477,-2.453483 -0.463699,-0.55719 -1.825255,-1.574681 -2.848666,-2.128808 -0.366723,-0.198563 -0.44687,-0.316358 -0.314653,-0.462457 0.101245,-0.11188 1.135824,-0.694292 2.000774,-1.12634 1.203499,-0.601156 3.033363,-1.301943 4.207639,-1.611413 0.263131,-0.06934 0.58846,-0.157823 0.722964,-0.196621 0.134514,-0.0388 0.285212,-0.0788 0.334891,-0.08888 0.04972,-0.01009 0.41324,-0.08539 0.807923,-0.167333 0.69826,-0.144976 1.210666,-0.221991 2.392028,-0.359521 0.633901,-0.07379 1.5535,-0.141609 1.557127,-0.114823 0.0011,0.0094 0.02147,2.266819 0.04475,5.01645 0.03278,3.850823 0.02939,5.012724 -0.01447,5.057642 -0.03763,0.03847 -0.309215,0.06702 -0.798284,0.08391 -1.604139,0.05538 -2.946856,0.139047 -4.233655,0.263797 -1.035049,0.100344 -1.302881,0.12912 -1.602659,0.172195 -0.09866,0.01418 -0.201744,-0.0013 -0.25096,-0.03787 z"
         id="path1" /></g></g></svg>
