<?xml version="1.0" encoding="UTF-8" standalone="no"?>
<!-- Created with Inkscape (http://www.inkscape.org/) -->

<svg
   width="105.83334mm"
   height="105.83334mm"
   viewBox="0 0 105.83333 105.83333"
   version="1.1"
   id="svg1"
   xml:space="preserve"
   inkscape:version="1.4 (e7c3feb100, 2024-10-09)"
   sodipodi:docname="north_carolina.svg"
   inkscape:export-filename="../pngs/charlotte.png"
   inkscape:export-xdpi="96"
   inkscape:export-ydpi="96"
   xmlns:inkscape="http://www.inkscape.org/namespaces/inkscape"
   xmlns:sodipodi="http://sodipodi.sourceforge.net/DTD/sodipodi-0.dtd"
   xmlns="http://www.w3.org/2000/svg"
   xmlns:svg="http://www.w3.org/2000/svg"><sodipodi:namedview
     id="namedview1"
     pagecolor="#ffffff"
     bordercolor="#000000"
     borderopacity="0.25"
     inkscape:showpageshadow="2"
     inkscape:pageopacity="0.0"
     inkscape:pagecheckerboard="0"
     inkscape:deskcolor="#d1d1d1"
     inkscape:document-units="mm"
     inkscape:zoom="1.4103651"
     inkscape:cx="308.43078"
     inkscape:cy="197.82112"
     inkscape:window-width="1920"
     inkscape:window-height="1011"
     inkscape:window-x="0"
     inkscape:window-y="32"
     inkscape:window-maximized="1"
     inkscape:current-layer="layer1"
     showgrid="false"
     showguides="true" /><defs
     id="defs1" /><g
     inkscape:label="Capa 1"
     inkscape:groupmode="layer"
     id="layer1"><rect
       style="fill:#7bafd4;fill-rule:evenodd;stroke-width:0.264583;fill-opacity:1"
       id="rect4"
       width="11.029848"
       height="11.029848"
       x="-4.0108538"
       y="-16.645042"
       ry="0.029487522" /><rect
       style="fill:#ffffff;fill-rule:evenodd;stroke-width:0.264583"
       id="rect4-9"
       width="11.029848"
       height="11.029848"
       x="22.447479"
       y="-16.645042"
       ry="0.029487522" /><rect
       style="fill:#13294b;fill-rule:evenodd;stroke-width:0.264583;fill-opacity:1"
       id="rect4-5"
       width="11.029848"
       height="11.029848"
       x="9.2183123"
       y="-16.645042"
       ry="0.029487522" /><g
       id="g13"
       transform="translate(-2.7256606,0.1059632)"><g
         id="g12"
         transform="matrix(0.81472499,0,0,0.81472499,-24.997308,-0.3338098)"><text
           xml:space="preserve"
           style="font-style:normal;font-variant:normal;font-weight:normal;font-stretch:normal;font-size:87.2149px;line-height:1;font-family:'Lifestyle Rounded M54';-inkscape-font-specification:'Lifestyle Rounded M54';font-variation-settings:normal;text-align:center;letter-spacing:0px;writing-mode:lr-tb;direction:ltr;text-anchor:middle;fill:#ffffff;fill-opacity:1;stroke:#13294b;stroke-width:6.52724;stroke-linecap:butt;stroke-linejoin:miter;stroke-miterlimit:4;stroke-dasharray:none;stroke-dashoffset:0;stroke-opacity:1"
           x="125.89275"
           y="83.113991"
           id="text8"><tspan
             sodipodi:role="line"
             id="tspan8"
             style="fill:#ffffff;stroke:#13294b;stroke-width:6.52724;stroke-dasharray:none;stroke-opacity:1"
             x="125.89275"
             y="83.113991">C</tspan></text><text
           xml:space="preserve"
           style="font-style:normal;font-variant:normal;font-weight:normal;font-stretch:normal;font-size:87.2149px;line-height:1;font-family:'Lifestyle Rounded M54';-inkscape-font-specification:'Lifestyle Rounded M54';font-variation-settings:normal;text-align:center;letter-spacing:0px;writing-mode:lr-tb;direction:ltr;text-anchor:middle;fill:#7bafd4;fill-opacity:1;stroke:none;stroke-width:6.52724;stroke-linecap:butt;stroke-linejoin:miter;stroke-miterlimit:4;stroke-dasharray:none;stroke-dashoffset:0;stroke-opacity:1"
           x="125.89275"
           y="83.113991"
           id="text8-8"><tspan
             sodipodi:role="line"
             id="tspan8-1"
             style="fill:#7bafd4;fill-opacity:1;stroke:none;stroke-width:6.52724;stroke-dasharray:none"
             x="125.89275"
             y="83.113991">C</tspan></text><text
           xml:space="preserve"
           style="font-style:normal;font-variant:normal;font-weight:normal;font-stretch:normal;font-size:88.882px;line-height:1;font-family:'Lifestyle Rounded M54';-inkscape-font-specification:'Lifestyle Rounded M54';font-variation-settings:normal;text-align:center;letter-spacing:0px;writing-mode:lr-tb;direction:ltr;text-anchor:middle;fill:#ff0000;fill-opacity:1;stroke:#13294b;stroke-width:5.70292;stroke-linecap:butt;stroke-linejoin:miter;stroke-miterlimit:4;stroke-dasharray:none;stroke-dashoffset:0;stroke-opacity:1"
           x="72.989792"
           y="83.553078"
           id="text7"><tspan
             sodipodi:role="line"
             id="tspan7"
             style="fill:#ff0000;fill-opacity:1;stroke:#13294b;stroke-width:5.70292;stroke-dasharray:none;stroke-opacity:1"
             x="72.989792"
             y="83.553078">N</tspan></text><text
           xml:space="preserve"
           style="font-style:normal;font-variant:normal;font-weight:normal;font-stretch:normal;font-size:88.882px;line-height:1;font-family:'Lifestyle Rounded M54';-inkscape-font-specification:'Lifestyle Rounded M54';font-variation-settings:normal;text-align:center;letter-spacing:0px;writing-mode:lr-tb;direction:ltr;text-anchor:middle;fill:#7bafd4;fill-opacity:1;stroke:none;stroke-width:5.703;stroke-linecap:butt;stroke-linejoin:miter;stroke-miterlimit:4;stroke-dasharray:none;stroke-dashoffset:0;stroke-opacity:1"
           x="72.989792"
           y="83.553078"
           id="text7-8"><tspan
             sodipodi:role="line"
             id="tspan7-4"
             style="fill:#7bafd4;fill-opacity:1;stroke:none;stroke-width:5.703;stroke-dasharray:none"
             x="72.989792"
             y="83.553078">N</tspan></text></g><g
         id="g7"
         transform="translate(-4.8775787,-0.37519836)"><g
           id="path4-1"
           style="fill:#13294b;fill-opacity:1"><path
             style="fill:#13294b;fill-opacity:1"
             d="m 43.16379,101.32241 c -2.994763,-0.17163 -9.962058,-0.92173 -11.038353,-1.18839 -0.614063,-0.152137 -1.25371,-0.441968 -1.421438,-0.644068 -0.419982,-0.506047 0.859372,-1.015298 3.580925,-1.4254 1.910579,-0.287899 2.131893,-0.274866 2.437855,0.143562 0.185081,0.253114 0.373049,0.56982 0.417706,0.703792 0.07994,0.239829 4.630158,0.368965 4.861162,0.137961 0.06524,-0.06524 0.0038,-0.420541 -0.136479,-0.789562 -0.313389,-0.824275 -0.165601,-0.989942 0.883104,-0.989942 0.59577,0 0.890439,0.162369 1.080382,0.595313 0.232283,0.52945 0.480372,0.604053 2.242437,0.674321 2.578951,0.102845 3.260238,-0.06491 3.043027,-0.749281 -0.160361,-0.505252 -0.01566,-0.520353 4.986168,-0.520353 h 5.151322 l 0.277919,0.797239 c 0.152855,0.438482 0.447346,0.862255 0.654424,0.941718 0.207078,0.07946 2.445146,0.04813 4.973485,-0.06964 4.165093,-0.193998 4.589673,-0.257614 4.519233,-0.677134 -0.0428,-0.254662 -0.0216,-0.463021 0.047,-0.463021 0.53447,0 4.46445,0.612791 5.25627,0.819594 1.11927,0.292327 1.31745,0.924811 0.39687,1.266637 -1.04013,0.386224 -6.28226,1.075914 -10.252602,1.348914 -3.453646,0.23747 -18.31194,0.29683 -21.960417,0.0877 z m -5.379861,-3.170102 c -0.09701,-0.09701 -0.176389,-0.454202 -0.176389,-0.79375 0,-0.434716 -0.151934,-0.617362 -0.513552,-0.617362 -0.282453,0 -0.605242,-0.148357 -0.717307,-0.329683 -0.112066,-0.181327 -0.172669,-2.235155 -0.134674,-4.564063 0.0517,-3.16921 -0.03408,-4.620327 -0.341026,-5.768642 -0.577756,-2.161454 -0.54908,-2.303305 0.780517,-3.860968 1.426719,-1.671444 1.56541,-2.747666 0.529167,-4.106251 -0.465138,-0.609827 -0.661458,-1.200093 -0.661458,-1.98877 0,-1.437053 0.599876,-1.337076 0.808242,0.134704 0.196787,1.38999 0.673719,2.200394 1.474027,2.504671 1.135581,0.431747 1.601736,0.274856 0.628451,-0.211514 -1.125729,-0.562549 -1.692472,-1.608071 -1.354105,-2.498043 0.167774,-0.441279 0.1291,-0.779585 -0.129557,-1.13332 -0.202799,-0.277343 -0.368725,-0.358253 -0.368725,-0.179799 0,0.514765 -0.991303,-0.12448 -1.196726,-0.771713 -0.09583,-0.301924 -0.03946,-0.874313 0.125255,-1.271977 0.234245,-0.565515 0.21824,-0.879628 -0.07347,-1.441891 l -0.372952,-0.718867 -0.223325,1.130667 c -0.122829,0.621867 -0.232094,1.428323 -0.242812,1.792125 -0.0161,0.546601 -0.150695,0.661459 -0.775113,0.661459 -1.739608,0 -2.436249,-2.785635 -1.265408,-5.059948 0.727642,-1.413416 2.103839,-2.602424 2.567116,-2.217939 0.265166,0.220068 0.307662,0.03191 0.202837,-0.898098 -0.115365,-1.023521 -0.03828,-1.270822 0.592878,-1.901978 l 0.725486,-0.725486 0.513867,0.639224 c 0.47937,0.596313 0.503323,0.601302 0.356809,0.07431 -0.400546,-1.440706 1.187433,-2.764503 2.649422,-2.208656 0.593818,0.225769 0.796172,0.216778 0.881486,-0.03917 0.0609,-0.182712 0.385391,-0.606859 0.721081,-0.942549 0.719699,-0.719699 2.490356,-0.84641 3.013821,-0.215673 0.285391,0.343876 0.428387,0.309823 1.11103,-0.264584 0.95049,-0.799784 1.710145,-0.837052 2.472054,-0.121275 0.509058,0.478235 0.610045,0.492927 0.909345,0.132291 0.531401,-0.640298 2.273054,-0.527765 2.767984,0.178848 0.320186,0.457129 0.479163,0.514798 0.729378,0.264583 0.505241,-0.50524 1.925696,-0.384587 2.463078,0.209214 0.263389,0.291042 0.63903,0.529167 0.834757,0.529167 0.227601,0 0.355868,0.320916 0.355868,0.89036 0,1.064116 0.741787,2.089323 1.841234,2.544729 0.744287,0.308294 0.789371,0.403419 0.638466,1.347124 -0.142102,0.888657 -0.06184,1.115935 0.642988,1.820763 0.442946,0.442947 1.000136,0.805357 1.238199,0.805357 0.238064,0 0.357463,0.121968 0.265332,0.271039 -0.378502,0.612429 0.199922,1.901024 1.088727,2.425431 0.678407,0.40027 0.899637,0.71079 0.899637,1.262734 0,1.663007 1.915207,2.786687 3.57463,2.097287 l 0.791,-0.328617 -1.29367,-0.168214 c -1.560907,-0.202963 -2.682666,-1.262177 -2.424798,-2.289603 0.114618,-0.456675 0.04556,-0.624223 -0.257272,-0.624223 -0.770039,0 -1.712806,-1.231258 -1.712806,-2.236932 0,-0.669712 -0.116976,-0.938068 -0.408902,-0.938068 -0.646066,0 -1.707765,-1.23135 -1.707765,-1.980653 0,-0.690931 0.09313,-0.761157 1.38421,-1.04378 0.397514,-0.08702 1.118366,-0.505567 1.601895,-0.930111 0.483528,-0.424543 1.348084,-0.646285 1.658498,-0.95935 1.201689,-1.211951 3.427008,-1.737679 4.00642,-2.891315 l 0.39866,-0.79375 -0.78065,0.832404 c -0.921,0.982059 -1.87639,1.510205 -3.506533,1.938446 -0.654844,0.172028 -1.609069,0.643836 -2.120502,1.048462 -1.157077,0.915436 -1.864401,1.147914 -2.7876,0.916205 l -0.719771,-0.180651 0.631124,-0.349828 c 0.491866,-0.272638 0.528958,-0.351897 0.168103,-0.359204 -0.561897,-0.01138 -0.605359,-0.736468 -0.07901,-1.318082 0.346888,-0.383306 0.272115,-0.423691 -0.773394,-0.417708 -1.036885,0.0059 -1.118201,0.05012 -0.78089,0.424331 0.207086,0.22974 0.376519,0.702683 0.376519,1.050984 v 0.633276 L 58.72569,63.472769 c -0.565503,-0.565503 -0.570367,-0.630907 -0.230825,-3.103979 0.190768,-1.389466 0.267866,-3.121717 0.171329,-3.849445 -0.582818,-4.393502 3.620545,-7.456307 7.526425,-5.48417 l 1.18054,0.596073 1.19062,-0.822872 c 1.99045,-1.375649 4.09376,-1.836519 4.75351,-1.04157 0.85051,1.024798 -1.02806,3.524327 -3.07317,4.089009 -1.26937,0.35049 -1.65242,0.02661 -1.05211,-0.889586 0.61859,-0.944089 0.0906,-0.844497 -0.737,0.139006 -0.6409,0.761672 -0.87021,1.558356 -0.54278,1.885789 0.0782,0.07821 0.68835,0.02572 1.35587,-0.116648 0.78613,-0.167666 1.27195,-0.168185 1.37915,-0.0015 0.091,0.141557 0.43311,0.34089 0.76019,0.442963 0.34518,0.107721 0.66773,0.483466 0.76876,0.895557 0.0957,0.390483 0.46482,0.982952 0.8202,1.316598 0.47954,0.450207 0.60408,0.774272 0.48298,1.256771 -0.11883,0.473459 -0.0556,0.650142 0.23264,0.650142 0.2177,0 0.60057,0.312502 0.85084,0.69445 0.41518,0.633659 0.41916,0.756924 0.0454,1.40814 -0.38515,0.671081 -0.37246,0.756874 0.21253,1.436972 0.71837,0.835154 0.76566,1.190104 0.25214,1.892397 -0.32343,0.44231 -0.30678,0.586408 0.13229,1.144585 0.59761,0.759736 0.63387,1.319942 0.13186,2.036673 -0.31753,0.453339 -0.31753,0.601234 0,1.035483 0.48117,0.658045 0.4703,1.468065 -0.0293,2.18131 -0.25302,0.361223 -0.30157,0.631329 -0.1323,0.735945 0.42299,0.261419 0.31144,1.498955 -0.18451,2.04697 -0.29931,0.330729 -0.42696,0.845322 -0.37798,1.523706 0.0608,0.841652 -0.0424,1.100556 -0.57846,1.451802 -0.44388,0.290842 -0.60923,0.592595 -0.51732,0.944056 0.18078,0.691319 -0.60306,1.840428 -1.25541,1.840428 -0.28768,0 -0.52306,0.169953 -0.52306,0.377672 0,0.496452 -1.25764,1.474412 -1.89607,1.474412 -0.27599,0 -0.56679,0.169398 -0.64624,0.376439 -0.0795,0.207042 -0.55018,0.568968 -1.04606,0.80428 -0.78734,0.373616 -0.99162,0.380682 -1.61177,0.05575 -0.633136,-0.331734 -0.80384,-0.316817 -1.573911,0.137537 -0.859656,0.507209 -0.956104,0.727224 -1.311425,2.991618 -0.09134,0.582083 -0.407782,1.798469 -0.703208,2.70308 -0.498019,1.524964 -0.514595,1.860032 -0.227613,4.600871 0.170238,1.625869 0.48261,3.290836 0.694159,3.699927 0.211549,0.409091 0.384635,0.809246 0.384635,0.889233 0,0.07999 -0.773906,0.145431 -1.719792,0.145431 -1.663891,0 -1.719791,-0.02178 -1.719791,-0.669984 0,-0.452841 -0.192943,-0.741707 -0.595313,-0.89128 -0.581398,-0.216124 -0.595524,-0.316417 -0.604384,-4.290954 -0.005,-2.238311 -0.110519,-5.270434 -0.23451,-6.738051 -0.219973,-2.603714 -0.240401,-2.665533 -0.842744,-2.550387 -0.339518,0.0649 -0.754583,0.283414 -0.922366,0.48558 -0.393462,0.474093 -1.299553,0.469759 -1.983774,-0.0095 -0.350832,-0.245732 -0.670838,-0.29322 -0.918767,-0.136343 -0.653889,0.41375 -1.73275,0.271893 -2.24608,-0.29533 -0.330046,-0.364697 -0.686543,-0.49544 -1.080979,-0.396443 -0.910348,0.228483 -1.964509,-0.303839 -2.28544,-1.154082 -0.254505,-0.674262 -0.390727,-0.750203 -1.130389,-0.630173 -0.462556,0.07506 -1.095466,2.98e-4 -1.406466,-0.166145 -0.49459,-0.264696 -0.565455,-0.232588 -0.565455,0.256206 0,0.756007 -1.397034,2.105624 -2.179602,2.105624 -0.461169,0 -0.751075,0.248012 -1.06885,0.914392 -0.239824,0.502916 -0.865339,1.389572 -1.390033,1.970346 -0.778522,0.86173 -0.996874,1.35934 -1.18714,2.705411 -0.284002,2.009225 0.284903,7.38466 0.906476,8.565059 0.229885,0.436563 0.418706,0.883047 0.419602,0.992188 0.002,0.245352 -3.017846,0.265766 -3.261564,0.02205 z M 56.248216,81.352893 c 0.899879,-0.410013 0.854488,-0.686136 -0.09,-0.547514 -1.377602,0.202189 -2.688506,-1.178186 -2.45492,-2.585017 0.05858,-0.352777 0.03572,-0.352777 -0.205668,0 -0.718486,1.050024 -0.02938,2.763901 1.307833,3.252728 0.603142,0.220482 0.715616,0.211111 1.442759,-0.120197 z m -4.617759,-1.280447 c 0.31966,-0.206581 0.278713,-0.257269 -0.210464,-0.260532 -0.684721,-0.0046 -1.906203,-1.094804 -1.906203,-1.701385 0,-0.219159 0.158947,-0.546949 0.353216,-0.728423 0.290005,-0.270905 0.208102,-0.402984 -0.457659,-0.738036 -1.207808,-0.607844 -1.68937,-1.624058 -1.281574,-2.704436 l 0.325147,-0.861411 -0.580815,0.580815 c -0.873239,0.873239 -0.790432,2.332928 0.179682,3.167385 0.457299,0.393352 0.795792,0.976547 0.849024,1.462797 0.164351,1.50126 1.657034,2.476401 2.729646,1.783226 z m 8.202083,-1.058334 c 0.307834,-0.198937 0.229066,-0.257389 -0.351082,-0.260531 -0.823682,-0.0045 -2.294751,-1.266112 -2.294751,-1.968074 0,-0.229476 -0.12609,-0.417228 -0.280199,-0.417228 -0.154109,0 -0.194108,-0.139296 -0.08889,-0.309546 0.127974,-0.207066 0.04802,-0.25456 -0.241513,-0.143457 -0.238053,0.09135 -0.795879,0.03953 -1.239614,-0.115158 -1.313852,-0.458012 -1.71879,-1.722853 -0.861765,-2.691769 0.450535,-0.509357 0.443251,-0.518663 -0.270168,-0.345121 -0.573811,0.139583 -0.87576,0.03578 -1.389062,-0.477522 -0.710729,-0.710729 -0.803176,-1.291392 -0.389849,-2.44864 l 0.266026,-0.744829 -0.530609,0.624624 c -0.780137,0.918364 -0.681024,2.043792 0.263141,2.987956 0.527847,0.527847 0.79375,1.058662 0.79375,1.584542 0,0.434935 0.116549,1.008566 0.258998,1.274734 0.328806,0.61438 1.563496,1.051623 2.476651,0.877063 0.64724,-0.123728 0.703934,-0.0642 0.703934,0.739122 0,1.613742 1.856406,2.685976 3.175,1.833834 z m 11.058239,-0.859895 c 0.21262,-0.255603 0.027,-0.33073 -0.81709,-0.33073 -0.82415,0 -1.1597,-0.129869 -1.3672,-0.529166 -0.21698,-0.417534 -0.3924,-0.477591 -0.83153,-0.284685 -0.55127,0.242171 -0.55002,0.250219 0.13229,0.851535 0.7655,0.674615 2.42577,0.843344 2.88353,0.293046 z M 44.75129,76.751391 c 0,-0.08033 -0.347555,-0.267214 -0.772344,-0.415296 -1.047047,-0.365003 -1.717913,-1.763324 -1.332423,-2.777239 0.277926,-0.731002 0.275744,-0.733044 -0.262698,-0.245761 -1.263834,1.143754 -0.200475,3.584351 1.561689,3.584351 0.443177,0 0.805776,-0.06573 0.805776,-0.146055 z m 16.933333,-1.441445 c 0.307834,-0.198938 0.229066,-0.25739 -0.351081,-0.260532 -1.116377,-0.006 -2.294752,-1.296421 -2.294752,-2.512856 0,-1.071934 -0.374826,-1.052573 -0.647398,0.03344 -0.459096,1.829182 1.797438,3.706604 3.293231,2.739948 z m 10.679946,-1.871287 c 0.53254,-0.418894 0.69469,-0.778102 0.68678,-1.521354 l -0.0104,-0.972985 -0.37791,0.8698 c -0.39394,0.906708 -1.96469,1.80877 -2.67497,1.53621 -0.20129,-0.07724 -0.36599,-0.08081 -0.36599,-0.0079 0,0.182213 1.09558,0.607357 1.61797,0.627858 0.23503,0.0092 0.74105,-0.229996 1.12447,-0.531599 z m -33.051974,-1.33221 c -0.493442,-0.954213 -0.337412,-1.905102 0.41886,-2.552642 0.290733,-0.248933 0.521918,-0.777757 0.521918,-1.193856 0,-0.734604 0.830848,-1.826463 1.602534,-2.105972 0.306623,-0.11106 0.316692,-0.207363 0.05111,-0.488877 -0.49193,-0.521447 -0.405032,-0.98824 0.318703,-1.711975 0.509694,-0.509695 0.556875,-0.649432 0.219271,-0.649432 -0.704703,0 -1.39787,0.821452 -1.39787,1.656574 0,0.514584 -0.222177,0.955575 -0.65162,1.293375 -0.383569,0.301715 -0.723533,0.915994 -0.826439,1.493287 -0.09615,0.539397 -0.418077,1.247644 -0.715393,1.573881 -0.726098,0.796728 -0.692032,2.028056 0.07881,2.848579 0.813796,0.866246 0.89445,0.831672 0.380116,-0.162942 z m 9.142862,-0.236087 c -0.672771,-0.672771 -0.681472,-1.964362 -0.0177,-2.628129 0.4383,-0.438301 0.457224,-0.556477 0.132291,-0.826147 -0.208544,-0.173076 -0.379171,-0.619854 -0.379171,-0.992839 0,-0.724836 0.925357,-1.902885 1.494715,-1.902885 0.238515,0 0.297107,-0.235161 0.190902,-0.766189 -0.165627,-0.828136 0.593556,-1.879644 1.357092,-1.879644 0.218281,0 0.396875,-0.119063 0.396875,-0.264584 0,-0.145521 -0.303068,-0.264583 -0.673485,-0.264583 -0.858357,0 -1.972349,1.102497 -1.972349,1.951996 0,0.37399 -0.341749,0.994881 -0.799618,1.452751 -0.701367,0.701367 -0.795611,0.972078 -0.766996,2.203165 0.01794,0.771951 -0.04835,1.76249 -0.147317,2.201198 -0.136132,0.603451 -0.04134,0.973847 0.389324,1.521354 0.313095,0.398037 0.739217,0.723703 0.946936,0.723703 0.276675,0 0.236162,-0.14151 -0.151495,-0.529167 z m 21.485802,-1.78904 c 0.49836,-0.49836 0.48422,-0.504251 -0.92875,-0.387076 -1.6655,0.138116 -2.5919,-0.320599 -3.298943,-1.633487 -0.388837,-0.722022 -0.452226,-0.754951 -0.52765,-0.274097 -0.253028,1.613137 1.431983,3.145621 3.218263,2.926941 0.56706,-0.06942 1.25874,-0.353947 1.53708,-0.632281 z M 56.275668,69.430241 c -0.234565,-0.334889 -0.411878,-1.137385 -0.411878,-1.86411 0,-1.002064 0.139451,-1.415523 0.649432,-1.925504 0.733592,-0.733592 0.449355,-0.861498 -0.513082,-0.230885 -1.330358,0.871683 -1.400533,2.815187 -0.146916,4.068804 0.713274,0.713274 0.937885,0.68759 0.422444,-0.0483 z M 44.826265,66.334225 c -0.118409,-0.882803 -0.02935,-1.148125 0.594933,-1.772408 0.430574,-0.430574 0.607988,-0.776254 0.429015,-0.835911 -0.390707,-0.130236 -0.391742,-0.98568 -0.0021,-1.728667 0.296788,-0.565916 0.291835,-0.567942 -0.238448,-0.09754 -0.297842,0.264206 -0.596762,0.91905 -0.664267,1.455208 -0.0675,0.536158 -0.280795,1.353394 -0.473978,1.816079 -0.274516,0.657486 -0.283552,0.989807 -0.04136,1.521354 0.436035,0.956993 0.557825,0.84691 0.396198,-0.358112 z m 20.24937,30.737653 C 65.015565,96.54982 64.822994,96.320291 64.39396,96.259379 l -0.597955,-0.08489 0.15864,-4.148439 c 0.08725,-2.281642 0.258713,-4.505627 0.381023,-4.94219 0.122311,-0.436562 0.300703,-1.299765 0.396426,-1.918229 0.09572,-0.618463 0.312405,-1.141372 0.481515,-1.162019 0.16911,-0.02065 0.99059,-0.05041 1.82551,-0.06615 1.23012,-0.02318 1.49733,0.04667 1.40882,0.368269 -0.0601,0.218282 -0.18548,0.813594 -0.27868,1.322917 -0.0932,0.509323 -0.41747,1.754968 -0.7206,2.768099 -0.51203,1.71131 -0.52766,2.021178 -0.22013,4.365625 0.18207,1.387963 0.55698,2.973719 0.83314,3.523903 0.27617,0.550184 0.50212,1.115731 0.50212,1.256771 0,0.14104 -0.766,0.256436 -1.70222,0.256436 -1.660276,0 -1.704276,-0.01793 -1.785934,-0.727604 z m -20.72122,-0.33073 c -0.117559,-0.535244 -0.334742,-0.79375 -0.666866,-0.79375 -0.270891,0 -0.559389,-0.108181 -0.641106,-0.240402 -0.08172,-0.132221 -0.573089,-1.929516 -1.091937,-3.993989 -0.518848,-2.064473 -1.004512,-3.912944 -1.079252,-4.107714 -0.07474,-0.19477 0.320308,-0.868021 0.877885,-1.496115 0.557577,-0.628094 1.136757,-1.365754 1.287067,-1.639246 0.150311,-0.273491 0.68397,-0.630678 1.18591,-0.79375 0.540568,-0.17562 1.130269,-0.642895 1.446501,-1.146196 0.653068,-1.039398 2.045233,-1.224775 2.521052,-0.335697 0.247439,0.462343 0.0616,0.785028 -1.378403,2.393388 -1.832792,2.047075 -2.114089,2.576396 -2.104911,3.960845 0.0067,1.008454 1.98184,6.371129 2.94438,7.994189 l 0.588407,0.992187 h -1.857195 c -1.84842,0 -1.858019,-0.0037 -2.031532,-0.79375 z m 9.941689,-39.88635 c -1.16581,-0.595121 -1.57144,-1.230997 -1.181195,-1.851672 0.329809,-0.524554 2.098601,-1.235322 3.674923,-1.476724 l 1.058333,-0.162077 v 1.976609 1.976609 l -1.322917,-6.8e-5 c -0.737419,-3.7e-5 -1.723995,-0.204809 -2.229144,-0.462677 z"
             id="path6"
             sodipodi:nodetypes="csssssscssssscssscsssscccssssssssssssssssscssssssscsssssssssssssssssssssscsssssssssscsssscssscsscsssscsssscsscscssssssssssssscssssscsssssssssssssssssssssssssssssccsssssssscsssscssssscssssssssscssssssssssssssssssssscssssccssscssssssssssssssssssssssssssssssssssssssssssssssssssssssssscssssscsssssssssssssssssssscssssscccss" /><path
             style="fill:#13294b;fill-opacity:1"
             d="m 72.867187,47.900391 c -0.584058,-0.09185 -1.191784,-0.01447 -1.748046,0.107421 -1.112526,0.243773 -2.274139,0.782627 -3.408204,1.566407 l -0.457031,0.316406 -0.384765,-0.195313 c -2.425088,-1.224463 -5.10594,-0.901965 -7.00586,0.482422 -0.52976,0.386013 -0.824813,1.013061 -1.220703,1.546875 l -2.080078,0.31836 c -0.922923,0.141339 -1.841192,0.404936 -2.636719,0.724609 -0.397763,0.159837 -0.763211,0.332328 -1.099609,0.537109 -0.336399,0.204782 -0.657684,0.387009 -0.980469,0.900391 -0.442636,0.704001 -0.428253,1.851305 0.01172,2.541016 0.439972,0.689711 1.043013,1.081419 1.755859,1.445312 0.923153,0.47125 1.89707,0.626902 2.91211,0.626953 h 0.550781 c -0.02122,0.390175 -0.0066,0.573844 -0.04687,0.957032 -0.595761,-0.48946 -1.241439,-0.709028 -1.884766,-0.763672 -0.461079,-0.03916 -0.951552,0.01979 -1.443359,0.191406 -0.600421,-0.473741 -1.260472,-0.704368 -1.90625,-0.746094 -0.58451,-0.03777 -1.207538,0.08888 -1.810547,0.400391 -0.527742,-0.371021 -1.148159,-0.65855 -1.832031,-0.625 -0.795201,0.03901 -1.433322,0.438467 -2.013672,0.896484 -0.622303,-0.323491 -1.267455,-0.443588 -1.871094,-0.40039 -0.875246,0.06263 -1.771511,0.287136 -2.535156,1.050781 -0.194267,0.194266 -0.364203,0.396096 -0.523438,0.597656 C 39.989204,60.123314 38.815107,60.501718 38,61.330078 l -2.115234,1.650391 c -0.363254,0.363253 -0.753875,0.79756 -0.947266,1.417968 -0.132529,0.42516 -0.07431,0.794156 -0.05078,1.173829 -0.331341,0.163557 -0.636952,0.339065 -0.902344,0.568359 -0.665363,0.574861 -1.272754,1.335742 -1.734375,2.232422 -0.75491,1.466382 -0.926591,3.048006 -0.580078,4.433594 0.173256,0.692794 0.481455,1.353148 1.011719,1.892578 0.530263,0.539429 1.330788,0.919922 2.166015,0.919922 0.07243,0 0.203438,-0.08561 0.285156,-0.08594 -0.02092,0.191884 -0.08398,0.377658 -0.08398,0.589844 0,1.0376 0.343982,2.079325 0.96875,2.898437 0.382722,0.501774 0.389945,0.642237 0.365234,0.833985 -0.02471,0.191748 -0.216066,0.65561 -0.841796,1.388672 -0.675939,0.791882 -1.237882,1.403075 -1.435547,2.380859 -0.197665,0.977784 0.05311,1.74718 0.345703,2.841797 0.243538,0.911101 0.342152,2.220781 0.291015,5.355469 -0.01933,1.18465 -0.01364,2.296805 0.01172,3.15625 0.01268,0.429722 0.03017,0.79458 0.05469,1.09375 0.01226,0.149584 0.0248,0.27991 0.04687,0.419921 3.64e-4,0.0023 0.0036,0.0095 0.0039,0.01172 -0.268498,0.03672 -0.436611,0.02354 -0.798828,0.07813 -1.416992,0.213522 -2.469109,0.435353 -3.298828,0.765625 -0.41486,0.165137 -0.799175,0.304853 -1.214844,0.808594 -0.207834,0.25187 -0.42109,0.664998 -0.421875,1.140625 -7.85e-4,0.475627 0.212345,0.895561 0.423828,1.150391 0.457265,0.55097 0.729972,0.59136 1.080078,0.75 0.350107,0.15863 0.731874,0.29227 1.136719,0.39257 0.476419,0.11804 1.056272,0.19404 1.923828,0.30664 0.867556,0.11261 1.940635,0.23734 3.074219,0.35938 2.267168,0.24408 4.758789,0.4753 6.314453,0.56445 l 1.585937,0.0898 v -0.0957 c 4.928609,0.17066 17.099298,0.15415 20.5625,-0.084 2.026342,-0.13933 4.350148,-0.38167 6.31836,-0.64063 0.984106,-0.12947 1.877575,-0.26174 2.609375,-0.39062 0.7318,-0.12888 1.235231,-0.21923 1.74414,-0.4082 0.388119,-0.14412 0.770971,-0.33582 1.113282,-0.7461 0.342311,-0.41028 0.547804,-1.170848 0.363281,-1.75976 -0.369046,-1.177823 -1.221017,-1.409654 -2.015625,-1.617187 -0.632479,-0.165187 -1.707264,-0.335801 -2.873047,-0.517578 -0.582891,-0.09089 -1.156437,-0.175405 -1.628906,-0.238282 -0.472469,-0.06288 -0.71256,-0.113281 -1.132813,-0.113281 -0.0038,0 -0.006,0.0039 -0.0098,0.0039 -0.09476,-0.222824 -0.192009,-0.449411 -0.3125,-0.689453 -9.71e-4,-0.0019 -0.193485,-0.533132 -0.332032,-1.11914 -0.138546,-0.586009 -0.272121,-1.292356 -0.355468,-1.927735 -0.304461,-2.321049 -0.330258,-2.068532 0.169922,-3.740234 0.315706,-1.055163 0.633624,-2.238391 0.759765,-2.927735 0.08758,-0.478591 0.233453,-1.135213 0.25,-1.195312 0.06095,-0.221464 -0.0034,-0.671898 -0.144531,-1.09375 0.131052,-0.09982 0.262859,-0.358742 0.392578,-0.478516 -0.08966,0.01825 -0.175718,0.0293 -0.300781,0.0293 0.145054,0 0.211084,-0.05763 0.335937,-0.07227 0.139132,-0.138817 0.277153,-0.141858 0.419922,-0.513672 -0.116939,0.304736 -0.212116,0.418211 -0.3125,0.490234 0.733646,-0.116244 1.213807,-0.41984 1.666016,-0.771484 0.274548,-0.213493 0.527151,-0.445028 0.757812,-0.736328 0.07355,-0.09288 0.09231,-0.325215 0.167969,-0.4375 0.731965,-0.210894 1.235633,-0.644904 1.564453,-1.126954 0.335654,-0.492067 0.552422,-1.103154 0.527344,-1.841796 0.350514,-0.250017 0.763407,-0.588146 0.972656,-1.113282 0.23315,-0.585116 0.20356,-1.081537 0.167969,-1.574218 -0.03158,-0.437335 0.07189,-0.494113 -0.0059,-0.408204 0.587371,-0.649033 0.757137,-1.324708 0.818359,-2.003906 0.03061,-0.339599 0.02474,-0.681518 -0.07422,-1.068359 -0.02059,-0.08048 -0.151467,-0.172957 -0.183594,-0.261719 0.513663,-0.986217 0.532512,-2.154586 0.0039,-3.136719 0.280051,-0.480414 0.551931,-1.013627 0.511718,-1.634765 -0.04112,-0.635124 -0.353811,-1.131197 -0.677734,-1.591797 0.254768,-0.438538 0.477405,-0.963936 0.394531,-1.585938 -0.10445,-0.783946 -0.507466,-1.25343 -0.912109,-1.724609 0.188096,-0.329515 0.415675,-0.672414 0.396484,-1.267578 -0.02277,-0.706166 -0.331678,-1.12037 -0.5625,-1.472656 -0.214535,-0.327412 -0.455996,-0.594896 -0.74414,-0.830079 -0.03674,-0.02999 -0.13714,-0.03683 -0.173828,-0.06836 -0.0039,-0.27697 0.06533,-0.536167 -0.03711,-0.802734 -0.197152,-0.513013 -0.51638,-0.868198 -0.839844,-1.171875 -0.08723,-0.0819 -0.423689,-0.714991 -0.390625,-0.580078 -0.157009,-0.640425 -0.533302,-1.120893 -1.044921,-1.501954 0.576392,-0.420843 1.072481,-0.926548 1.478515,-1.466796 0.403928,-0.537447 0.723955,-1.114674 0.878906,-1.792969 0.154952,-0.678296 0.102696,-1.587596 -0.474609,-2.283203 -0.460567,-0.554948 -1.019457,-0.816351 -1.603516,-0.908203 z m -1.126953,3.048828 c -0.03549,0.05565 -0.02875,0.07491 -0.07227,0.132812 -0.218915,0.291278 -0.592831,0.43339 -0.927735,0.675781 -0.04274,-0.105635 0.03643,-0.132566 -0.04297,-0.251953 -0.01265,-0.01901 -0.04078,-0.02245 -0.05469,-0.04102 0.375138,-0.168539 0.813755,-0.451952 1.097656,-0.515625 z m -8.335937,0.976562 c 0.657595,-0.05648 1.370932,0.07538 2.111328,0.449219 l 1.294922,0.652344 c -0.140917,0.255796 -0.349534,0.484267 -0.431641,0.769531 -0.176818,0.614319 -0.244978,1.536266 0.472656,2.253906 0.384234,0.384283 0.62532,0.390007 0.783204,0.425781 0.157883,0.03578 0.260417,0.04222 0.355468,0.04687 0.190104,0.0093 0.342208,5.76e-4 0.507813,-0.01367 0.331209,-0.02849 0.693868,-0.08518 1.082031,-0.167969 0.239906,-0.05117 0.348586,-0.05795 0.458984,-0.06836 0.04326,0.02341 0.100788,0.105371 0.144532,0.13086 0.18501,0.107803 0.38825,0.186666 0.595703,0.263672 0.230097,0.838747 0.596166,1.396122 1.189453,1.953125 0.09699,0.09106 0.06069,0.04296 0.05859,0.03711 -0.07852,0.291575 -0.198765,0.568391 0.0039,1.134766 0.122615,0.342653 0.443999,0.738168 0.796875,0.927734 0.140268,0.07535 0.228167,0.05401 0.351562,0.08594 0.01704,0.01478 0.06034,0.06181 0.0957,0.105468 -0.18814,0.321068 -0.392285,0.773199 -0.365235,1.394532 -0.05287,-1.16e-4 -0.139139,-0.06851 -0.183594,-0.06445 -0.320514,0.02928 -0.522326,0.115789 -0.701171,0.201172 -0.137253,0.06553 -0.224798,0.1683 -0.339844,0.246094 -0.08886,-0.212493 -0.178552,-0.466564 -0.53125,-0.6875 -0.349826,-0.219137 -0.719154,-0.170863 -1.023438,-0.130859 0.161164,-0.195191 0.356537,-0.313845 0.486328,-0.572266 l 0.398438,-0.792969 -2.433594,-1.699218 -0.78125,0.832031 c -0.75049,0.800245 -1.316654,1.125842 -2.792969,1.513672 -0.960364,0.252288 -1.891462,0.706379 -2.669921,1.322265 -0.153652,0.121564 -0.18444,0.109786 -0.306641,0.19336 0.09001,-0.21897 0.203201,-0.561014 0.07813,-1.011719 -0.133773,-0.482043 -0.523641,-0.832624 -0.779297,-0.970703 -0.511311,-0.276158 -0.701897,-0.219198 -0.921875,-0.232422 -0.1309,-0.0079 -0.280711,-0.0069 -0.421875,-0.0078 0.194728,-1.462849 0.312537,-3.018517 0.166016,-4.123046 -0.223616,-1.685701 0.444035,-2.968347 1.476562,-3.720704 0.516264,-0.376178 1.117796,-0.619296 1.775391,-0.675781 z m -7.056641,3.267578 v 0.148438 0.441406 c -0.461465,-0.04276 -1.096414,-0.186232 -1.263672,-0.244141 0.366869,-0.145155 0.822816,-0.239482 1.263672,-0.345703 z m 9.316406,0.839844 c -0.347462,-0.0074 -0.315529,0.02546 -0.361328,0.03516 -0.0458,0.0097 -0.0726,0.01644 -0.09961,0.02344 -0.05402,0.014 -0.09992,0.02768 -0.152344,0.04297 -0.209673,0.06114 -0.495335,0.149587 -0.732422,0.226562 -0.118543,0.03849 -0.219326,0.0725 -0.302734,0.101563 -0.0417,0.01453 -0.04392,0.0115 -0.166016,0.06445 -0.03052,0.01324 -0.05297,0.01107 -0.199218,0.101562 -0.03656,0.02262 -0.156095,0.113155 -0.15625,0.113281 -1.56e-4,1.27e-4 -0.343693,0.396389 -0.34375,0.396485 -5.7e-5,9.6e-5 0.03902,1.597591 0.03906,1.597656 4.3e-5,6.5e-5 0.913918,0.630826 0.914063,0.630859 1.44e-4,3.4e-5 0.327878,0.03906 0.328125,0.03906 2.46e-4,1e-6 0.107439,-0.0029 0.140625,-0.0059 0.06637,-0.0058 0.09848,-0.01106 0.125,-0.01563 0.05304,-0.0091 0.07734,-0.01479 0.09766,-0.01953 0.325008,-0.07579 0.452733,-0.127077 1.15039,-0.341797 l 0.04687,-0.01563 0.04492,-0.01563 c 0.06487,-0.02466 0.107624,-0.04135 0.189453,-0.07813 0.04091,-0.01839 0.0523,-0.0011 0.261719,-0.146484 0.05236,-0.03636 0.243752,-0.210519 0.244141,-0.210937 1.94e-4,-2.09e-4 0.22647,-0.318185 0.226562,-0.31836 9.3e-5,-1.74e-4 0.173836,-0.786969 0.173828,-0.787109 -7e-6,-1.41e-4 -0.437393,-0.980362 -0.4375,-0.980469 -1.06e-4,-1.07e-4 -0.554482,-0.349536 -0.554687,-0.349609 -2.05e-4,-7.4e-5 -0.306339,-0.07613 -0.306641,-0.07617 -3.01e-4,-4.1e-5 -0.126489,-0.0108 -0.169922,-0.01172 z m -1.03125,0.394531 c 0.07128,0.0083 0.144595,0.01759 0.144532,0.01758 -1.44e-4,-3.3e-5 0.912152,0.630925 0.912109,0.63086 -4.3e-5,-6.5e-5 0.03901,1.595799 0.03906,1.595703 4.9e-5,-8.3e-5 -0.231743,0.269992 -0.298829,0.347656 -0.0033,-8.5e-4 -0.302937,-0.07625 -0.302734,-0.07617 2.05e-4,7.4e-5 -0.552841,-0.349716 -0.552734,-0.349609 1.07e-4,1.07e-4 -0.437508,-0.978656 -0.4375,-0.978516 7e-6,1.41e-4 0.173921,-0.78533 0.173828,-0.785156 -9.3e-5,1.75e-4 0.226757,-0.318568 0.226562,-0.318359 -1.55e-4,1.67e-4 0.05604,-0.04848 0.0957,-0.08398 z m 9.080079,1.507813 c 0.08118,0 0.27149,9.36e-4 0.535156,0.142578 0.0401,0.02154 0.05252,0.07844 0.0918,0.107422 -0.195474,-0.09324 -0.246099,-0.25 -0.626953,-0.25 z m -24.453125,1.402344 c -0.03558,0.03868 -0.07833,0.0321 -0.113282,0.07422 -0.04515,0.05441 -0.05619,0.03517 0.09375,-0.07031 0.0032,-0.0023 0.01605,-0.0016 0.01953,-0.0039 z m -2.556641,0.158203 c 0.01047,0.0052 0.02944,4.35e-4 0.03906,0.0059 0.215339,0.121378 0.244968,0.193299 0.220704,0.164063 -0.08069,-0.09722 -0.176068,-0.09075 -0.259766,-0.169922 z m 6.349609,0.05859 c 0.0079,-0.0032 0.02294,0.0031 0.03125,0 -0.115195,0.08348 -0.234439,0.08405 -0.347656,0.197266 0.01398,-0.01398 0.08492,-0.10215 0.316406,-0.197266 z m -4.753906,1.673829 c -0.06046,0.003 -0.125719,-0.0771 0.06445,0.101562 0.143692,0.134991 0.258588,0.295457 0.449219,0.439453 -0.06735,0.06124 -0.154727,0.104606 -0.21875,0.167969 -0.583456,0.577435 -1.109375,1.27895 -1.109375,2.359375 0,-0.269901 0.02818,-0.153058 -0.04102,-0.02734 -0.04575,0.08313 -0.132821,0.18135 -0.210937,0.277344 0.0914,-0.181768 0.201417,-0.365987 0.185547,-0.783203 -0.01129,-0.296683 -0.383671,-0.565038 -0.658203,-0.878906 0.02867,-0.02481 0.08888,-0.07686 0.09766,-0.08398 0.01141,-0.0093 0.01302,-0.0029 -0.07422,0.05078 -0.0058,0.0036 -0.02856,0.01347 -0.03516,0.01758 -0.178493,-0.200083 -0.219333,-0.498242 -0.423828,-0.566407 0.369486,0.123163 0.605534,0.435725 0.675781,0.59375 0.07025,0.158026 0.05665,0.203733 0.05664,0.19336 -2.6e-5,-0.02075 0.03454,-0.23517 0.11914,-0.396485 0.07516,-0.143324 0.133284,-0.249768 0.199219,-0.394531 0.03297,-0.07238 0.07179,-0.135204 0.123047,-0.339844 0.01074,-0.04286 0.0048,-0.167346 0.01563,-0.232422 0.09215,-0.08262 0.267449,-0.133492 0.371094,-0.220703 0.333394,-0.280532 0.474524,-0.28031 0.414062,-0.277343 z m 6.558594,0.644531 c -0.286592,0.286591 -0.172969,0.109441 0.0332,0.126953 0.206172,0.01751 0.39642,0.182456 0.257812,0.0293 0.233182,0.257663 0.477135,0.4586 0.751954,0.632812 0.03147,0.01995 0.106015,0.02431 0.136718,0.04492 0.0236,0.322454 0.194502,0.586325 0.291016,0.884766 -0.118568,0.03426 -0.240775,0.06814 -0.335938,0.109375 -0.275505,0.119382 -0.52609,0.264182 -0.814453,0.453125 -2.165047,1.418592 -2.206293,4.563237 -0.384765,6.384765 0.209335,0.209335 0.390209,0.377075 0.589843,0.529297 0.09982,0.07611 0.200495,0.148283 0.357422,0.230469 0.156928,0.08219 0.33252,0.260636 0.955078,0.189453 0.209645,-0.02397 0.460299,-0.225594 0.701172,-0.394531 -0.03023,0.04965 -0.08792,0.108691 -0.113281,0.15625 -0.165702,0.310759 -0.260009,0.605866 -0.347656,0.955078 -0.206377,0.82227 -0.0911,1.59886 0.199219,2.289063 -0.220737,-0.02726 -0.518267,-0.131335 -0.634766,-0.111329 -0.205367,0.03527 -0.333623,0.08396 -0.460938,0.132813 0.335429,-0.128717 0.232858,-0.0493 0.132813,-0.05859 -0.100045,-0.0093 -0.255254,-0.04405 -0.341797,-0.07422 -0.296884,-0.103494 -0.315381,-0.210413 -0.310547,-0.195312 0.0048,0.0151 -0.05811,0.06808 0.07813,-0.08594 0.115465,-0.130539 0.208467,-0.22717 0.332031,-0.394531 0.06178,-0.08368 0.137997,-0.172505 0.236329,-0.416015 0.09833,-0.243511 0.257593,-0.939134 -0.208985,-1.535157 -0.466577,-0.596022 -0.965182,-0.585781 -1.177734,-0.59375 -0.212552,-0.008 -0.317454,0.01524 -0.414063,0.03125 -0.163909,0.02716 -0.291954,0.06 -0.4375,0.0957 -0.01529,-0.01216 0.04574,0.03206 -0.05078,-0.06445 -0.233932,-0.233932 -0.197477,-0.233748 -0.197266,-0.232422 2.12e-4,0.0013 -0.0098,-0.179964 0.158204,-0.65039 l 0.265625,-0.744141 -2.554688,-1.476562 -0.53125,0.625 c -0.6061,0.71349 -0.94696,1.657947 -0.865234,2.585937 0.08172,0.92799 0.546697,1.769354 1.210937,2.433594 0.350408,0.350408 0.355469,0.503192 0.355469,0.523437 0,0.702904 0.03064,1.225857 0.435547,1.982422 0.143835,0.268759 0.338871,0.412682 0.519531,0.591797 -0.116645,0.106308 -0.163213,0.167721 -0.207031,0.222656 -0.08764,0.109872 -0.140453,0.189809 -0.207031,0.28711 -0.20661,0.301947 -0.233765,0.638154 -0.322266,0.964844 -0.01188,-8.4e-5 -0.03596,-5.91e-4 -0.04687,-0.002 -0.182968,-0.02283 -0.31288,-0.02245 -0.460938,-0.02344 0.447688,0.003 0.0092,-0.03895 -0.220703,-0.244141 -0.0065,-0.0058 -0.0073,-0.0097 -0.01367,-0.01563 0.07192,-0.100157 0.137019,-0.120074 0.205079,-0.287109 0.169055,-0.414901 0.105168,-1.142054 -0.128907,-1.519531 -0.46815,-0.754954 -0.805983,-0.749404 -1.1875,-0.941407 -0.375571,-0.189011 -0.518909,-0.378286 -0.566406,-0.478515 -0.0475,-0.100229 -0.06647,-0.14511 0.01367,-0.357422 l 0.324219,-0.861328 -0.175782,-0.113281 c 0.219595,-0.183899 0.455829,-0.436616 0.544922,-0.748047 0.104286,-0.364537 0.05652,-0.674671 -0.002,-0.878907 -0.233882,-0.816943 -0.467147,-0.816756 -0.707031,-1.05664 0.0014,0.0014 0.01125,-0.536639 -0.01758,-0.507813 0.25918,-0.259181 0.634344,-0.430203 0.773437,-1.298828 0.06955,-0.434312 -0.09011,-0.960138 -0.273437,-1.236328 -0.116602,-0.175667 -0.203774,-0.235292 -0.298828,-0.322266 -0.0033,-0.01799 -0.0078,-0.04753 -0.0078,-0.02148 0,0.275904 0.05157,-0.09151 0.212891,-0.296875 0.08066,-0.102684 0.171512,-0.184697 0.191406,-0.199219 0.01989,-0.01452 -0.03522,0.0918 -0.410156,0.0918 0.306113,0 0.746637,-0.09868 1.091797,-0.378906 0.345159,-0.280227 0.518076,-0.661204 0.58789,-0.941406 0.139629,-0.560404 0.05428,-0.878997 -0.01758,-1.238282 0.02757,0.137831 0.01015,0.01061 0.07422,-0.07813 0.06407,-0.08874 0.11931,-0.0078 -0.1875,-0.0078 0.381869,0 0.748067,-0.0879 1.111328,-0.330078 0.363261,-0.242175 0.785156,-0.74915 0.785156,-1.435547 0,-0.118371 -0.08961,-0.149713 -0.113281,-0.255859 0.368749,0.111404 0.853391,0.109029 1.175781,-0.02344 0.341673,-0.14039 0.524979,-0.317947 0.664063,-0.457031 z m -11.128906,0.171875 c -0.04835,0.126981 -0.0662,0.274644 -0.09961,0.408203 -0.05524,-0.05495 -0.0854,-0.143848 -0.140625,-0.185547 0.0011,-0.0033 0.0067,-0.0085 0.0078,-0.01172 -0.112162,0.336509 -0.06106,0.136445 0.02539,0.02344 0.05353,-0.06997 0.133612,-0.152745 0.207032,-0.234375 z m 28.148437,1.253906 c 0.08524,-0.06628 0.05374,-0.207954 0.615234,0.0332 0.419768,0.180286 0.841063,0.834383 0.863282,1.234375 0.01273,0.22924 -0.03547,0.265842 -0.07031,0.367188 -0.129751,0.04627 -0.247091,0.105191 -0.349609,0.144531 -0.05096,0.01956 -0.100849,0.05291 -0.150391,0.07422 -0.243421,-0.01171 -0.55235,-0.01526 -0.857422,-0.320313 -0.152327,-0.152333 -0.150361,-0.34365 -0.214843,-0.537109 0.03812,-0.214616 0.197124,-0.454603 0.199218,-0.716797 v -0.002 c 6.43e-4,-0.06069 -0.0353,-0.204996 -0.03516,-0.277344 z m -2.707031,0.123047 c 0.08842,0.05103 0.197476,0.113438 0.197265,0.113281 -1.63e-4,-1.21e-4 0.242294,0.224733 0.242188,0.22461 -9.8e-5,-1.15e-4 0.2097,0.355812 0.242187,0.410156 -0.04312,0.100499 -0.09208,0.213757 -0.167968,0.390625 -0.04429,-0.02077 -0.07882,0.01086 -0.121094,-0.01563 -0.412775,-0.25857 -0.545088,-0.597165 -0.597656,-0.759766 -0.104309,-0.322641 -0.05299,-0.295563 -0.05273,-0.234375 3e-4,-0.03726 -0.191487,0.349171 0.04883,-0.01563 z m -29.058594,0.130859 c -0.04088,0.0713 -0.05222,0.157736 -0.08789,0.232422 -0.01275,-0.04627 -0.02323,-0.108279 -0.03711,-0.158203 -0.01167,-0.04199 0.110757,-0.0291 0.125,-0.07422 z m 27.029297,0.50586 c -0.01959,0.06555 -0.164053,0.554569 -0.164063,0.554687 -1e-5,1.21e-4 0.08171,0.574117 0.08984,0.63086 -0.122775,-0.156956 -0.243199,-0.409215 -0.375,-0.541016 -0.07707,-0.07707 -0.171431,-0.128811 -0.25,-0.197266 0.14516,-0.133263 0.469901,-0.300154 0.699219,-0.447265 z m -1.226563,0.77539 c 0.237657,0.0264 0.33066,0.0756 0.320313,0.06445 -0.0067,-0.0072 0.01177,-0.01982 0.07813,0.146485 0.03318,0.08315 0.08514,0.221623 0.07617,0.472656 -0.0068,0.190675 -0.151332,0.451982 -0.300781,0.685547 -0.04793,-0.02813 -0.0061,-0.03218 -0.06445,-0.0625 -0.325079,-0.168868 -1.077445,-0.221929 -1.529296,0.05664 -1.49e-4,-0.05837 -0.02228,-0.07618 -0.01367,-0.144532 0.02216,-0.176033 0.164356,-0.348038 0.271484,-0.529297 0.08535,-0.05093 0.169191,-0.107279 0.390625,-0.210937 0.198091,-0.09273 0.497772,-0.303872 0.771484,-0.478516 z M 46.480469,65.625 c -0.06405,0.101005 -0.145582,0.177425 -0.199219,0.289062 -0.0016,0.0022 -0.005,-0.111796 -0.01367,-0.08594 -0.03063,0.09125 -0.04178,0.0525 0.212891,-0.203125 z m -8.648438,0.01758 c 0.08896,0.08259 0.0788,0.16065 0.460938,0.240234 0.174578,0.03636 0.461885,-0.121407 0.732422,-0.193359 -0.478021,0.5502 -0.803299,1.16359 -0.933594,1.894531 -0.03445,0.193253 -0.415259,0.900351 -0.347656,0.826172 -0.259185,0.284397 -0.425545,0.61528 -0.572266,0.951172 l -0.554688,-1.066406 c 0.340291,-0.09058 0.717556,-0.219309 0.902344,-0.445313 0.238365,-0.291529 0.295938,-0.526856 0.333985,-0.695312 0.152185,-0.673826 0.04643,-0.880296 -0.0098,-1.378906 -0.01426,-0.126521 -0.0076,-0.05637 -0.01172,-0.132813 z m 35.574219,0.01367 c 0.106888,0.636011 0.382754,0.982691 0.619141,1.283203 0.197155,0.250642 0.168267,0.298241 0.162109,0.203125 -0.0062,-0.09512 0.05779,-0.149131 -0.07813,0.04492 -0.09985,0.142549 -0.150704,0.461868 -0.251953,0.681641 -0.04804,0.06105 -0.06324,0.227236 -0.714844,-0.04492 -0.395244,-0.165082 -0.875178,-0.837882 -0.886719,-1.296875 -0.0045,-0.180614 0.0458,-0.183589 0.07422,-0.289063 0.189139,-0.05485 0.32411,-0.153958 0.453125,-0.210937 0.222745,-0.09838 0.419073,-0.23086 0.623047,-0.371094 z m -6.017578,0.111328 c 0.06566,0.06115 0.187373,0.175687 0.1875,0.175781 3.27e-4,2.43e-4 0.237353,0.144649 0.310547,0.175782 0.146388,0.06226 0.212881,0.07388 0.267578,0.08594 0.109393,0.02411 0.15335,0.02728 0.193359,0.03125 0.08002,0.0079 0.122946,0.0085 0.171875,0.0098 0.195717,0.0049 0.416907,-0.0023 0.695313,-0.02734 0.278405,-0.025 0.591612,-0.0646 0.943359,-0.162109 0.175874,-0.04875 0.38061,-0.08298 0.603516,-0.197266 h 0.259765 l 0.06055,-0.0918 c 0.103752,0.09338 0.113304,0.272508 0.22461,0.320313 0.189971,0.08159 0.258422,0.0396 0.398437,0.06836 -0.116716,0.283302 -0.193927,0.746345 -0.02734,1.167969 0.171874,0.435012 0.498465,0.688915 0.726563,0.810547 0.456196,0.243263 0.686529,0.208984 0.90625,0.208984 0.189781,0 0.263258,-0.07281 0.408203,-0.09766 -0.02863,0.132814 -0.119141,0.165075 -0.119141,0.326172 0,0.684572 0.320688,1.113865 0.527344,1.396484 0.128636,0.175921 0.15242,0.151026 -0.04687,0.435547 -0.07505,0.107142 -0.109681,0.276979 -0.175781,0.394531 l -2.238281,-0.453125 -0.378907,0.871094 c 0.02094,-0.04819 -0.268156,0.323071 -0.589843,0.507812 -0.321688,0.184742 -0.67879,0.03009 -0.171875,0.22461 -0.159477,-0.06119 -0.352182,-0.08626 -0.550782,-0.113282 0.342101,-0.15255 0.676238,-0.34226 1.027344,-0.693359 0.128143,-0.128143 0.237064,-0.198906 0.445313,-0.505859 0.104124,-0.153477 0.325425,-0.398086 0.289062,-1.015625 -0.03636,-0.617539 -0.640925,-1.214611 -0.964844,-1.34961 -0.647837,-0.269998 -0.765793,-0.145177 -1.011718,-0.134765 -0.245926,0.01041 -0.516615,0.0331 -0.871094,0.0625 -0.67362,0.05586 -1.018567,-0.02197 -1.21875,-0.121094 -0.200183,-0.09912 -0.376341,-0.248654 -0.634766,-0.728516 -0.0095,-0.01766 -0.01812,-0.0298 -0.02734,-0.04687 0.22501,-0.239954 0.411849,-0.580131 0.449219,-0.876953 0.0367,-0.291509 -0.01697,-0.493321 -0.06836,-0.658203 z m 1.763672,0.0332 c -0.0019,0.0044 -0.02498,0.05959 -0.02539,0.06055 -0.02379,-0.01199 -0.03308,-0.01374 -0.0625,-0.03125 0.03268,-0.0081 0.05778,-0.01998 0.08789,-0.0293 z m -10.97461,0.148438 c 0.101574,0.06086 0.166828,0.161312 0.273438,0.214843 -0.0768,0.493137 -0.145263,1.04352 0.06836,1.648438 0.222224,0.629275 0.604854,1.013057 0.994141,1.402344 0.299208,0.299209 0.611468,0.553565 0.9375,0.765625 0.0042,0.0027 0.01345,0.0031 0.01758,0.0059 0.04708,0.396735 0.160402,0.775333 0.308594,1.105469 0.328321,0.731424 0.842089,1.394341 1.626953,1.857422 0.21418,0.126369 0.221336,0.152416 0.205078,0.128906 0.02199,0.476558 0.177655,0.893243 0.359375,1.294922 -0.102527,-0.150877 -0.131557,-0.395853 -0.232422,-0.470703 -0.541747,-0.402022 -0.723286,-0.311075 -0.900391,-0.330078 -0.177104,-0.019 -0.3241,-0.02252 -0.49414,-0.02344 0.0169,9.1e-5 -0.247452,-0.0723 -0.466797,-0.3125 -0.219345,-0.240195 -0.335937,-0.575357 -0.335938,-0.699219 0,-0.355401 -0.0135,-0.655844 -0.125,-1.029297 -0.05575,-0.186726 -0.126998,-0.403472 -0.355468,-0.677734 -0.22847,-0.274262 -0.764192,-0.612609 -1.31836,-0.583984 -0.469702,0.02426 -0.718054,0.242799 -0.919922,0.419922 0.1225,-0.250291 0.232857,-0.514884 0.236329,-0.677735 0.0094,-0.439511 -0.08762,-0.583507 -0.148438,-0.726562 -0.121639,-0.286111 -0.243716,-0.462147 -0.404297,-0.691407 0.103823,0.148229 -0.0078,-0.02684 -0.05664,-0.248046 -0.04888,-0.221205 -0.08398,-0.514492 -0.08398,-0.75586 0,-0.43145 0.039,-0.621468 0.05469,-0.667969 0.01568,-0.0465 -0.0038,-0.03726 0.15625,-0.197265 0.233056,-0.233056 0.413818,-0.42005 0.599609,-0.738281 0.0016,-0.0028 0.0023,-0.01089 0.0039,-0.01367 z m 5.371094,0.242187 c 0.120255,0.285267 0.262522,0.465075 0.412109,0.634766 -0.01352,0.03097 -0.08479,0.08759 -0.0957,0.113281 -0.142851,0.336226 -0.137863,0.460655 -0.162109,0.615234 -0.0094,0.05987 0.02417,0.108633 0.01758,0.167969 -0.359097,-0.410581 -0.911653,-0.791015 -1.386719,-0.791015 0.533071,0 0.321672,-0.0057 0.128907,-0.134766 0.460199,-0.118581 0.749365,-0.39279 1.085937,-0.605469 z m -20.511719,0.978516 c 0.0165,0.04314 0.0087,0.103553 0.02734,0.144531 0.124431,0.273097 0.221516,0.481424 0.384766,0.726563 0.08162,0.122569 0.150093,0.259636 0.443359,0.478515 0.146633,0.10944 0.375887,0.262116 0.771484,0.304688 0.395598,0.04257 0.919019,-0.13875 1.19336,-0.386719 0.03977,-0.03595 0.0035,-0.03824 0.03711,-0.07227 -0.01967,0.611387 -0.06886,1.374614 -0.08789,1.458985 -0.198021,0.877793 0.106047,2.057472 0.673828,2.779297 0.06094,0.07747 0.135759,0.127974 0.199218,0.199218 -0.733242,0.846085 -0.968736,1.924742 -0.783203,2.96875 -0.111841,-0.137493 -0.199833,-0.215015 -0.273437,-0.273437 -0.15562,-0.123521 -0.269672,-0.186012 -0.388672,-0.25 -0.238001,-0.127975 -0.484188,-0.231378 -0.761719,-0.328125 -0.05534,-0.01929 -0.240189,-0.16305 -0.34375,-0.378906 -0.10356,-0.215857 -0.0887,-0.426549 -0.08008,-0.449219 0.0698,-0.183577 0.123669,-0.322932 0.177734,-0.492188 0.02703,-0.08463 0.05902,-0.16716 0.08594,-0.351562 0.01346,-0.0922 0.03073,-0.210335 0.0059,-0.423828 -0.02487,-0.213493 -0.104273,-0.596774 -0.472656,-0.941407 -0.368383,-0.344632 -0.918035,-0.431055 -1.208984,-0.398437 -0.29095,0.03262 -0.429815,0.108188 -0.533203,0.160156 -0.206777,0.103937 -0.273526,0.167224 -0.345704,0.22461 -0.144354,0.11477 -0.245488,0.209522 -0.380859,0.332031 -0.15188,0.13745 -0.149243,0.328703 -0.267578,0.480469 -0.0043,-0.02675 0.0059,-0.09009 0.002,-0.113282 -0.0414,-0.240683 -0.0894,-0.342152 -0.134766,-0.455078 -0.09073,-0.225851 -0.194471,-0.429301 -0.332031,-0.695312 -0.247417,-0.478454 -0.220125,-0.482619 0.0625,-0.72461 0.789536,-0.676021 1.046875,-1.362284 1.046875,-2.333984 0,0.198205 0.03498,-0.09092 0.205078,-0.314453 0.170098,-0.223535 0.448309,-0.395386 0.408203,-0.38086 0.139448,-0.05051 0.302304,-0.103274 0.546875,-0.28125 0.04499,-0.03274 0.07205,-0.163289 0.123047,-0.21289 z m 23.105469,4.564453 c 0.750502,0.350841 1.56622,0.576131 2.443359,0.46875 0.110896,-0.01358 0.199291,-0.05051 0.304688,-0.06641 -0.286929,0.211226 -0.551036,0.585825 -0.646484,1.013672 l -0.91211,-0.119141 c -0.495148,-0.06438 -0.890758,-0.279022 -1.058594,-0.4375 -0.167835,-0.158478 -0.07976,-0.100488 -0.105468,0.002 0.05166,-0.205846 -0.01633,-0.563214 -0.02539,-0.861328 z m 8.126953,1.386719 c 0.05006,0.04288 0.06089,0.121456 0.117188,0.15625 -0.09852,-0.06089 -0.05966,-0.08556 -0.119141,-0.146485 0.0012,-0.0032 7.49e-4,-0.0065 0.002,-0.0098 z M 40.34375,74.099609 c -0.327131,2.035692 1.252559,4.296875 3.601562,4.296875 0.295747,0 0.558895,-0.01619 0.835938,-0.06641 0.138521,-0.02511 0.272561,-0.04804 0.494141,-0.142578 0.11079,-0.04727 0.250862,-0.105017 0.451171,-0.28125 0.1854,-0.163116 0.443814,-0.560434 0.486329,-1.068359 0.213413,0.415341 0.489544,0.805205 0.861328,1.125 0.179035,0.154 0.343444,0.558809 0.335937,0.490234 0.03645,0.332967 0.19456,0.604205 0.304688,0.902344 -0.128034,0.01712 -0.326982,-0.06676 -0.4375,-0.04883 -0.09356,0.01518 -0.729694,-0.152693 -0.458985,-0.0078 -0.147909,-0.07916 -0.283781,-0.154875 -0.511718,-0.234375 -0.227938,-0.0795 -0.662924,-0.24589 -1.283204,0.03516 -0.620279,0.281046 -0.86782,0.899777 -0.927734,1.181641 -0.05991,0.281864 -0.05078,0.43726 -0.05078,0.595703 0,-0.545952 -0.04808,-0.02216 -0.337891,0.257813 -0.289811,0.279974 -0.812813,0.347656 -0.341797,0.347656 -0.499479,0 -1.137859,0.205083 -1.5625,0.568359 -0.42464,0.363277 -0.655325,0.773276 -0.859375,1.201172 -0.09848,0.206519 -0.73725,1.152078 -1.15039,1.609375 -0.877557,0.971349 -1.35324,2.049136 -1.558594,3.501953 -0.187372,1.325599 -0.08442,3.148304 0.107422,4.960938 0.09592,0.906317 0.219403,1.786478 0.367187,2.546875 0.07051,0.362793 0.199669,0.632356 0.28125,0.9375 -0.02208,-7.98e-4 -0.04292,-0.0011 -0.06445,-0.002 -0.05145,-0.291102 -0.02633,-0.565408 -0.287109,-0.878907 -0.234839,-0.282309 -0.545525,-0.276382 -0.853516,-0.380859 -0.01156,-0.193918 -0.02497,-0.377402 -0.0332,-0.65625 -0.02346,-0.795028 -0.02843,-1.875274 -0.0098,-3.019531 0.05226,-3.203733 -0.02222,-4.794159 -0.392578,-6.179688 -0.285165,-1.066837 -0.307367,-1.449736 -0.302734,-1.472656 0.0046,-0.02292 0.121732,-0.261563 0.775391,-1.027344 0.74619,-0.874184 1.276072,-1.737541 1.464843,-2.742187 0.278716,0.06385 0.450119,0.200454 1.126953,-0.02734 0.175364,-0.05902 0.41493,-0.16186 0.65625,-0.419922 0.241321,-0.258062 0.421556,-0.706334 0.417969,-1.072266 -0.0072,-0.731863 -0.325742,-0.97021 -0.488281,-1.134765 -0.325077,-0.32911 -0.554145,-0.428528 -0.869141,-0.585938 -0.641023,-0.320331 -0.625001,-0.617905 -0.623047,-0.623047 0.254824,-0.670235 0.138417,-1.610615 -0.224609,-2.285156 0.215087,0.06118 0.488991,0.150965 0.927734,-0.03711 0.07697,-0.03299 0.065,-0.117511 0.132813,-0.164063 z m 32.847656,0.580078 c -3.76e-4,0.0026 -0.0016,0.0052 -0.002,0.0078 l -0.05273,0.03711 0.05273,-0.0332 c -0.046,0.329232 -0.09599,0.659735 -0.07227,0.988281 0.01682,0.232784 0.01993,0.168707 0.02539,0.164063 -0.322837,0.220928 -0.647658,0.479069 -0.882812,0.908203 -0.08369,0.152726 -0.02155,0.345945 -0.06445,0.525391 -0.06053,-0.114476 -0.06063,-0.263867 -0.136718,-0.347657 -0.228057,-0.251123 -0.450162,-0.360128 -0.617188,-0.427734 -0.668104,-0.270422 -0.90064,-0.177734 -1.367187,-0.177734 -0.312374,0 -0.408879,-0.03729 -0.34961,-0.01367 -0.08752,-0.134779 -0.252825,-0.237115 -0.396484,-0.369141 l 1.396484,-0.582031 c 0.159524,0.02897 0.264681,0.101826 0.457032,0.109375 0.667252,0.02612 0.894157,-0.143108 1.207031,-0.291016 0.27824,-0.131534 0.541399,-0.302923 0.802734,-0.498047 z M 56.90625,74.869141 c 0.182424,0 0.458257,0.110132 0.710937,0.28125 0.04171,0.06101 0.08437,0.117253 0.128907,0.175781 -0.262896,-0.19103 -0.440527,-0.457031 -0.839844,-0.457031 z m 6.361328,0.109375 c 0.666095,0.942658 1.725828,1.579081 2.910156,1.703125 -0.108884,0.273048 -0.223711,0.578807 -0.18164,0.849609 0.111038,0.714741 0.399753,0.869495 0.554687,1.027344 0.154935,0.157849 0.293192,0.276458 0.464844,0.427734 0.739777,0.651946 1.569831,0.888646 2.396484,0.972656 0.209133,0.02125 0.440151,-0.0097 0.66211,-0.0059 -0.244563,0.132898 -0.62188,0.207031 -0.232422,0.207031 -0.889773,0 -1.624903,0.243352 -2.044922,1.337891 0.210504,-0.548215 0.212857,-0.331823 0.119141,-0.259766 -0.09372,0.07206 -0.263295,0.179283 -0.408204,0.248047 -0.351584,0.166838 -0.431121,0.14985 -0.277343,0.144531 0.153778,-0.0053 0.250047,0.06647 0.0039,-0.0625 -0.373844,-0.195877 -0.905737,-0.449969 -1.5625,-0.392578 -0.656763,0.05739 -1.048124,0.31823 -1.46875,0.566406 -0.490436,0.289365 -1.147391,0.819041 -1.457031,1.525391 -0.309641,0.706351 -0.39449,1.38001 -0.574219,2.525391 -0.0587,0.374091 -0.378069,1.642819 -0.648438,2.470703 -0.257549,0.788632 -0.441505,1.446785 -0.480468,2.234375 -0.03896,0.78759 0.04304,1.60859 0.1875,2.988281 0.08949,0.854697 0.214842,1.707459 0.349609,2.425781 0.04896,0.260983 0.143505,0.448644 0.183594,0.65625 -0.07892,-0.0064 -0.08383,0.0048 -0.138672,0 -0.06271,-0.193148 -0.04196,-0.386515 -0.162109,-0.566406 -0.183802,-0.27518 -0.46932,-0.396061 -0.730469,-0.5625 -0.0403,-0.345646 -0.06604,-1.314446 -0.07031,-3.230469 -0.0051,-2.282426 -0.107663,-5.292152 -0.240234,-6.861328 -0.110231,-1.304746 -0.101068,-1.892425 -0.347656,-2.638672 -0.123294,-0.373123 -0.53539,-1.01386 -1.15625,-1.222656 -0.415368,-0.139688 -0.553734,-0.06159 -0.746094,-0.02539 0.105225,-0.213188 0.226928,-0.40645 0.1875,-0.765625 0.768164,0.108018 1.556392,0.05035 2.287109,-0.421875 0.129575,-0.08374 0.259637,-0.128197 0.513672,-0.445312 0.127018,-0.158557 0.341034,-0.439308 0.34961,-0.958984 0.0086,-0.519677 -0.354127,-1.062663 -0.625,-1.263672 -0.541747,-0.40202 -0.723286,-0.311075 -0.900391,-0.330078 -0.177105,-0.019 -0.3241,-0.02056 -0.494141,-0.02148 0.349084,0.0019 -0.180603,-0.09745 -0.488281,-0.361328 -0.153839,-0.131937 -0.285261,-0.2808 -0.339844,-0.359375 -0.05458,-0.07857 0.02539,-0.09647 0.02539,0.251953 0,-0.195137 -0.116237,-0.377866 -0.169922,-0.566406 1.060848,0.802391 2.634241,1.221562 3.980469,0.351562 0.129574,-0.08374 0.259638,-0.130151 0.513672,-0.447265 0.127017,-0.158557 0.341033,-0.437358 0.349609,-0.957031 0.0013,-0.07727 -0.08011,-0.110386 -0.09375,-0.1875 z m -8.064453,2.84375 c 0.04715,0.0039 0.09301,0.0094 0.140625,0.01172 0.0838,0.414273 0.126302,0.849498 0.337891,1.195313 -0.234566,-0.175572 -0.536984,-0.327993 -0.498047,-0.5625 0.01723,-0.103747 0.03538,-0.184046 0.04492,-0.365235 0.0027,-0.05181 -0.01907,-0.186019 -0.02539,-0.279296 z m 16.759766,0.478515 c -0.03186,0.04671 0.123618,0.0038 0.109375,0.002 0.0033,0.01405 -0.0095,0.0311 -0.0059,0.04492 -0.09532,-0.364513 -0.01644,-0.174521 -0.103515,-0.04687 z m -16.222657,0.794922 c 0.05938,0.09179 0.165411,0.136902 0.232422,0.222656 -0.01112,0.0016 -0.02196,3.03e-4 -0.0332,0.002 -0.07159,0.01051 -0.105808,-0.168716 -0.199219,-0.224609 z m 14.621094,0.855469 c -0.01792,0.09875 -0.123047,0.128292 -0.123047,0.234375 0,-0.240304 0.02377,-0.165483 0.05469,-0.232422 0.02318,-0.001 0.04512,-4.15e-4 0.06836,-0.002 z m -17.910156,1.376953 c 0.07561,0.1141 0.135166,0.235087 0.222656,0.341797 -0.141776,-0.102464 -0.275116,-0.204571 -0.439453,-0.283203 0.06735,-0.03597 0.145518,-0.01241 0.210937,-0.05469 0.0015,-9.77e-4 0.0043,-0.0029 0.0059,-0.0039 z m -3.105469,2.496094 c 0.500119,0.168499 1.027914,0.239636 1.582031,0.162109 0.562242,0.608665 1.26127,0.892378 1.960938,0.984375 0.498454,0.06554 1.016936,-0.13348 1.529297,-0.308594 0.571753,0.375828 1.198199,0.596473 1.853515,0.59961 0.356237,0.0017 0.738608,-0.06503 1.103516,-0.214844 0.03009,0.272711 0.02748,0.184437 0.05859,0.552734 0.115411,1.366058 0.223614,4.42104 0.228515,6.615235 0.0042,1.879545 0.0029,2.783986 0.0957,3.554687 h -3.658203 c -2.502423,0 -3.742435,-0.0077 -4.583984,0.08008 -0.157448,0.01643 -0.324412,0.0298 -0.494141,0.05469 l -0.07617,-0.126953 c -0.341169,-0.575289 -1.114571,-2.355988 -1.71289,-3.980469 -0.29916,-0.812241 -0.569541,-1.607345 -0.757813,-2.234375 -0.188271,-0.62703 -0.265191,-1.252105 -0.263672,-1.023438 -0.0039,-0.589372 0.0087,-0.686731 0.185547,-1.019531 0.17686,-0.3328 0.638133,-0.927558 1.53711,-1.93164 0.687062,-0.76739 1.083516,-1.224953 1.412109,-1.763672 z m 8.970703,0.542968 c -0.01951,0.02351 0.0054,0.0023 -0.0078,0.01953 0.0023,1.98e-4 -0.01724,-0.0023 -0.01563,-0.002 0.0069,-0.0081 0.0166,-0.0093 0.02344,-0.01758 z m -13.960937,0.826172 c -0.152987,0.27836 -0.119073,0.15061 -0.01953,0.08398 0.02582,-0.01729 0.05996,-0.02709 0.0918,-0.04492 -0.196229,0.270819 -0.533314,0.605427 -0.679687,0.880859 -0.419692,0.789742 -0.54238,1.650236 -0.53711,2.445313 0.0049,0.732894 0.176595,1.154367 0.390625,1.867187 0.214031,0.712821 0.498673,1.550836 0.814454,2.408203 0.452057,1.227371 0.927712,2.221208 1.394531,3.203125 -0.05547,-0.004 -0.140513,-4.62e-4 -0.166016,0 -0.09133,-0.285584 -0.153399,-0.572363 -0.394531,-0.859375 -0.209944,-0.24989 -0.596831,-0.308637 -0.941406,-0.439453 -0.0558,-0.19092 -0.117258,-0.406572 -0.197266,-0.699219 -0.194052,-0.709785 -0.44395,-1.667933 -0.701172,-2.691406 -0.260595,-1.036898 -0.513442,-2.019802 -0.710937,-2.771484 -0.09609,-0.365734 -0.178198,-0.670213 -0.244141,-0.910156 0.103571,-0.159905 0.237707,-0.355287 0.419922,-0.560547 0.301151,-0.339238 0.599525,-0.699948 0.853516,-1.023438 0.25399,-0.323489 0.434284,-0.538108 0.626953,-0.888672 z m 22.314453,0.253907 c -0.07556,0.380557 -0.377456,1.581208 -0.658203,2.519531 -0.523881,1.750918 -0.580131,2.62239 -0.269532,4.990234 0.09872,0.752585 0.244738,1.535157 0.408204,2.226563 0.103202,0.436511 0.2372,0.766306 0.359375,1.121093 -0.09304,-0.0081 -0.13133,0.0051 -0.179688,0.002 -0.08081,-0.263233 -0.09154,-0.518634 -0.308594,-0.777344 -0.382902,-0.456388 -0.972815,-0.692936 -1.416015,-0.75586 l 0.740234,0.105469 0.107422,-2.794922 c 0.0429,-1.121924 0.106658,-2.23422 0.173828,-3.105468 0.03359,-0.435625 0.06811,-0.811955 0.09961,-1.089844 0.0315,-0.277889 0.08685,-0.522159 0.05273,-0.400391 0.153779,-0.54888 0.314943,-1.353552 0.421875,-2.029297 0.147062,-0.0046 0.304893,-0.0077 0.46875,-0.01172 z m -22.982422,9 c 0.06423,0 0.07156,0.0017 0.134766,0.02539 0.01136,0.0043 0.07218,0.07605 0.08984,0.08008 -0.08293,-0.01245 -0.144731,-0.105468 -0.224609,-0.105468 z m -6.59375,0.792968 c 0.121396,0 0.147829,0.0147 0.205078,0.04102 0.0156,0.0072 0.07167,0.08239 0.0957,0.09375 -0.09994,-0.01453 -0.216317,-0.134766 -0.300781,-0.134766 z m 13.449219,2.097657 c -0.0099,-0.03113 0.02568,0.01009 0.0332,0.236328 0.0018,0.0544 -0.074,0.15378 -0.08789,0.230468 -0.01685,-0.148492 0.08973,-0.356373 0.05469,-0.466796 z m -8.087891,1.130859 c 0.02244,0.05114 0.145833,0.103337 0.181641,0.162109 -0.0026,0.0011 -0.0053,0.0029 -0.0078,0.0039 -0.07882,-0.07818 -0.179164,-0.178179 -0.173828,-0.166016 z m 15.658203,0.0918 c 0.125547,0.360145 0.28798,0.674895 0.492188,0.96875 0.05396,0.07765 0.220305,0.153192 0.27539,0.232422 -3.592279,0.05465 -6.110418,0.06668 -9.701172,0.03906 0.383027,-0.113089 0.822957,-0.252345 1.160157,-0.757812 0.0018,-0.0026 -0.0017,-0.0052 0,-0.0078 h 0.537109 l -0.128906,-0.216797 c 0.657695,-0.02661 1.391336,-0.04883 3.351562,-0.04883 h 4.085938 z m -14.720703,0.753906 c 0.218049,0.175454 0.315716,0.425408 0.550781,0.496094 0.02938,0.0088 0.06672,0.0017 0.0957,0.0098 -0.153078,-0.0064 -0.665836,0.01097 -0.789062,0.0039 -0.0155,-8.89e-4 -0.05066,-0.0049 -0.06641,-0.0059 0.121626,-0.206973 0.208271,-0.373532 0.208984,-0.503906 z"
             id="path7"
             sodipodi:nodetypes="cscccsccssssscccscscscssccsscssssscssssssssssccsssssssscccsssssssssscssssscccccccsscscsscssccscscssscssccsssccsscscsssccscsssscscscsscccsscscccccsscssccssssccccccssssssssssssccccccssssssssccsssscssssssssscsssscssccsccccccsscscscscccccssssscssscscsccsssssscsscscsscsssscscssccccsssscsscccscsssscccscccsscssscsscscsscsccccccssccsscscscsccccsscccscccccscsscscsssssscccscssssccsscscscccsssccsscscsccssscssscccscccscssscssscccsccsssssssscsscccccccssccssccsscsssssccsccssccccsccscccssccssssccsccssssssscsssssccssscscscccscccscscccccccsssscsccscssscscssssssccscscscscsscssccsccccccscscsssccccsccccccscsssscccssssssssssssccscssssccsscsscssccssccssccscssccccccccccscccscccsccscscscsscssccsscsssscccccsscscssccscssscsssscsssccscccssccccsccsssccsssscssccsscsccccccsccsccscss" /></g></g><path
         style="fill:#7bafd4;fill-opacity:1"
         d="m 38.286211,100.94721 c -2.994763,-0.17163 -9.962058,-0.92173 -11.038353,-1.188388 -0.614063,-0.152137 -1.25371,-0.441968 -1.421438,-0.644068 -0.419982,-0.506047 0.859372,-1.015298 3.580925,-1.4254 1.910579,-0.287899 2.131893,-0.274866 2.437855,0.143562 0.185081,0.253114 0.373049,0.56982 0.417706,0.703792 0.07994,0.239829 4.630158,0.368965 4.861162,0.137961 0.06524,-0.06524 0.0038,-0.420541 -0.136479,-0.789562 -0.313389,-0.824275 -0.165601,-0.989942 0.883104,-0.989942 0.59577,0 0.890439,0.162369 1.080382,0.595313 0.232283,0.52945 0.480372,0.604053 2.242437,0.674321 2.578951,0.102845 3.260238,-0.06491 3.043027,-0.749281 -0.160361,-0.505252 -0.01566,-0.520353 4.986168,-0.520353 h 5.151322 l 0.277919,0.797239 c 0.152855,0.438482 0.447346,0.862255 0.654424,0.941718 0.207078,0.07946 2.445146,0.04813 4.973485,-0.06964 4.165093,-0.193998 4.589673,-0.257614 4.519233,-0.677134 -0.0428,-0.254662 -0.0216,-0.463021 0.047,-0.463021 0.53447,0 4.46445,0.612791 5.25627,0.819594 1.11927,0.292327 1.31745,0.924811 0.39687,1.266637 -1.04013,0.386224 -6.28226,1.075912 -10.252602,1.348912 -3.453646,0.23747 -18.31194,0.29683 -21.960417,0.0877 z m -5.379861,-3.1701 c -0.09701,-0.09701 -0.176389,-0.454202 -0.176389,-0.79375 0,-0.434716 -0.151934,-0.617362 -0.513552,-0.617362 -0.282453,0 -0.605242,-0.148357 -0.717307,-0.329683 -0.112066,-0.181327 -0.172669,-2.235155 -0.134674,-4.564063 0.0517,-3.16921 -0.03408,-4.620327 -0.341026,-5.768642 -0.577756,-2.161454 -0.54908,-2.303305 0.780517,-3.860968 1.426719,-1.671444 1.56541,-2.747666 0.529167,-4.106251 -0.465138,-0.609827 -0.661458,-1.200093 -0.661458,-1.98877 0,-1.437053 0.599876,-1.337076 0.808242,0.134704 0.196787,1.38999 0.673719,2.200394 1.474027,2.504671 1.135581,0.431747 1.601736,0.274856 0.628451,-0.211514 -1.125729,-0.562549 -1.692472,-1.608071 -1.354105,-2.498043 0.167774,-0.441279 0.1291,-0.779585 -0.129557,-1.13332 -0.202799,-0.277343 -0.368725,-0.358253 -0.368725,-0.179799 0,0.514765 -0.991303,-0.12448 -1.196726,-0.771713 -0.09583,-0.301924 -0.03946,-0.874313 0.125255,-1.271977 0.234245,-0.565515 0.21824,-0.879628 -0.07347,-1.441891 l -0.372952,-0.718867 -0.223325,1.130667 c -0.122829,0.621867 -0.232094,1.428323 -0.242812,1.792125 -0.0161,0.546601 -0.150695,0.661459 -0.775113,0.661459 -1.739608,0 -2.436249,-2.785635 -1.265408,-5.059948 0.727642,-1.413416 2.103839,-2.602424 2.567116,-2.217939 0.265166,0.220068 0.307662,0.03191 0.202837,-0.898098 -0.115365,-1.023521 -0.03828,-1.270822 0.592878,-1.901978 l 0.725486,-0.725486 0.513867,0.639224 c 0.47937,0.596313 0.503323,0.601302 0.356809,0.07431 -0.400546,-1.440706 1.187433,-2.764503 2.649422,-2.208656 0.593818,0.225769 0.796172,0.216778 0.881486,-0.03917 0.0609,-0.182712 0.385391,-0.606859 0.721081,-0.942549 0.719699,-0.719699 2.490356,-0.84641 3.013821,-0.215673 0.285391,0.343876 0.428387,0.309823 1.11103,-0.264584 0.95049,-0.799784 1.710145,-0.837052 2.472054,-0.121275 0.509058,0.478235 0.610045,0.492927 0.909345,0.132291 0.531401,-0.640298 2.273054,-0.527765 2.767984,0.178848 0.320186,0.457129 0.479163,0.514798 0.729378,0.264583 0.505241,-0.50524 1.925696,-0.384587 2.463078,0.209214 0.263389,0.291042 0.63903,0.529167 0.834757,0.529167 0.227601,0 0.355868,0.320916 0.355868,0.89036 0,1.064116 0.741787,2.089323 1.841234,2.544729 0.744287,0.308294 0.789371,0.403419 0.638466,1.347124 -0.142102,0.888657 -0.06184,1.115935 0.642988,1.820763 0.442946,0.442947 1.000136,0.805357 1.238199,0.805357 0.238064,0 0.357463,0.121968 0.265332,0.271039 -0.378502,0.612429 0.199922,1.901024 1.088727,2.425431 0.678407,0.40027 0.899637,0.71079 0.899637,1.262734 0,1.663007 1.915207,2.786687 3.57463,2.097287 l 0.791,-0.328617 -1.29367,-0.168214 c -1.560907,-0.202963 -2.682666,-1.262177 -2.424798,-2.289603 0.114618,-0.456675 0.04556,-0.624223 -0.257272,-0.624223 -0.770039,0 -1.712806,-1.231258 -1.712806,-2.236932 0,-0.669712 -0.116976,-0.938068 -0.408902,-0.938068 -0.646066,0 -1.707765,-1.23135 -1.707765,-1.980653 0,-0.690931 0.09313,-0.761157 1.38421,-1.04378 0.397514,-0.08702 1.118366,-0.505567 1.601895,-0.930111 0.483528,-0.424543 1.229852,-0.856251 1.658498,-0.95935 1.81158,-0.435726 3.31975,-1.524129 4.00642,-2.891315 l 0.39866,-0.79375 -0.78065,0.832404 c -0.921,0.982059 -1.87639,1.510205 -3.506533,1.938446 -0.654844,0.172028 -1.609069,0.643836 -2.120502,1.048462 -1.157077,0.915436 -1.864401,1.147914 -2.7876,0.916205 l -0.719771,-0.180651 0.631124,-0.349828 c 0.491866,-0.272638 0.528958,-0.351897 0.168103,-0.359204 -0.561897,-0.01138 -0.605359,-0.736468 -0.07901,-1.318082 0.346888,-0.383306 0.272115,-0.423691 -0.773394,-0.417708 -1.036885,0.0059 -1.118201,0.05012 -0.78089,0.424331 0.207086,0.22974 0.376519,0.702683 0.376519,1.050984 v 0.633276 l -0.577675,-0.577676 c -0.565503,-0.565503 -0.570367,-0.630907 -0.230825,-3.103979 0.190768,-1.389466 0.267866,-3.121717 0.171329,-3.849445 -0.582818,-4.393502 3.620545,-7.456307 7.526425,-5.48417 l 1.18054,0.596073 1.19062,-0.822872 c 1.99045,-1.375649 4.09376,-1.836519 4.75351,-1.04157 0.85051,1.024798 -1.02806,3.524327 -3.07317,4.089009 -1.26937,0.35049 -1.65242,0.02661 -1.05211,-0.889586 0.61859,-0.944089 0.0906,-0.844497 -0.737,0.139006 -0.6409,0.761672 -0.87021,1.558356 -0.54278,1.885789 0.0782,0.07821 0.68835,0.02572 1.35587,-0.116648 0.78613,-0.167666 1.27195,-0.168185 1.37915,-0.0015 0.091,0.141557 0.43311,0.34089 0.76019,0.442963 0.34518,0.107721 0.66773,0.483466 0.76876,0.895557 0.0957,0.390483 0.46482,0.982952 0.8202,1.316598 0.47954,0.450207 0.60408,0.774272 0.48298,1.256771 -0.11883,0.473459 -0.0556,0.650142 0.23264,0.650142 0.2177,0 0.60057,0.312502 0.85084,0.69445 0.41518,0.633659 0.41916,0.756924 0.0454,1.40814 -0.38515,0.671081 -0.37246,0.756874 0.21253,1.436972 0.71837,0.835154 0.76566,1.190104 0.25214,1.892397 -0.32343,0.44231 -0.30678,0.586408 0.13229,1.144585 0.59761,0.759736 0.63387,1.319942 0.13186,2.036673 -0.31753,0.453339 -0.31753,0.601234 0,1.035483 0.48117,0.658045 0.4703,1.468065 -0.0293,2.18131 -0.25302,0.361223 -0.30157,0.631329 -0.1323,0.735945 0.42299,0.261419 0.31144,1.498955 -0.18451,2.04697 -0.29931,0.330729 -0.42696,0.845322 -0.37798,1.523706 0.0608,0.841652 -0.0424,1.100556 -0.57846,1.451802 -0.44388,0.290842 -0.60923,0.592595 -0.51732,0.944056 0.18078,0.691319 -0.60306,1.840428 -1.25541,1.840428 -0.28768,0 -0.52306,0.169953 -0.52306,0.377672 0,0.496452 -1.25764,1.474412 -1.89607,1.474412 -0.27599,0 -0.56679,0.169398 -0.64624,0.376439 -0.0795,0.207042 -0.55018,0.568968 -1.04606,0.80428 -0.78734,0.373616 -0.99162,0.380682 -1.61177,0.05575 -0.633136,-0.331734 -0.80384,-0.316817 -1.573911,0.137537 -0.859656,0.507209 -0.956104,0.727224 -1.311425,2.991618 -0.09134,0.582083 -0.407782,1.798469 -0.703208,2.70308 -0.498019,1.524964 -0.514595,1.860032 -0.227613,4.600871 0.170238,1.625869 0.48261,3.290836 0.694159,3.699927 0.211549,0.409091 0.384635,0.809246 0.384635,0.889233 0,0.07999 -0.773906,0.145431 -1.719792,0.145431 -1.663891,0 -1.719791,-0.02178 -1.719791,-0.669984 0,-0.452841 -0.192943,-0.741707 -0.595313,-0.89128 -0.581398,-0.216124 -0.595524,-0.316417 -0.604384,-4.290954 -0.005,-2.238311 -0.110519,-5.270434 -0.23451,-6.738051 -0.219973,-2.603714 -0.240401,-2.665533 -0.842744,-2.550387 -0.339518,0.0649 -0.754583,0.283414 -0.922366,0.48558 -0.393462,0.474093 -1.299553,0.469759 -1.983774,-0.0095 -0.350832,-0.245732 -0.670838,-0.29322 -0.918767,-0.136343 -0.653889,0.41375 -1.73275,0.271893 -2.24608,-0.29533 -0.330046,-0.364697 -0.686543,-0.49544 -1.080979,-0.396443 -0.910348,0.228483 -1.964509,-0.303839 -2.28544,-1.154082 -0.254505,-0.674262 -0.390727,-0.750203 -1.130389,-0.630173 -0.462556,0.07506 -1.095466,2.98e-4 -1.406466,-0.166145 -0.49459,-0.264696 -0.565455,-0.232588 -0.565455,0.256206 0,0.756007 -1.397034,2.105624 -2.179602,2.105624 -0.461169,0 -0.751075,0.248012 -1.06885,0.914392 -0.239824,0.502916 -0.865339,1.389572 -1.390033,1.970346 -0.778522,0.86173 -0.996874,1.35934 -1.18714,2.705411 -0.284002,2.009225 0.284903,7.38466 0.906476,8.565059 0.229885,0.436563 0.418706,0.883047 0.419602,0.992188 0.002,0.245352 -3.017846,0.265766 -3.261564,0.02205 z M 51.370637,80.977695 c 0.899879,-0.410013 0.854488,-0.686136 -0.09,-0.547514 -1.377602,0.202189 -2.688506,-1.178186 -2.45492,-2.585017 0.05858,-0.352777 0.03572,-0.352777 -0.205668,0 -0.718486,1.050024 -0.02938,2.763901 1.307833,3.252728 0.603142,0.220482 0.715616,0.211111 1.442759,-0.120197 z m -4.617759,-1.280447 c 0.31966,-0.206581 0.278713,-0.257269 -0.210464,-0.260532 -0.684721,-0.0046 -1.906203,-1.094804 -1.906203,-1.701385 0,-0.219159 0.158947,-0.546949 0.353216,-0.728423 0.290005,-0.270905 0.208102,-0.402984 -0.457659,-0.738036 -1.207808,-0.607844 -1.68937,-1.624058 -1.281574,-2.704436 l 0.325147,-0.861411 -0.580815,0.580815 c -0.873239,0.873239 -0.790432,2.332928 0.179682,3.167385 0.457299,0.393352 0.795792,0.976547 0.849024,1.462797 0.164351,1.50126 1.657034,2.476401 2.729646,1.783226 z m 8.202083,-1.058334 c 0.307834,-0.198937 0.229066,-0.257389 -0.351082,-0.260531 -0.823682,-0.0045 -2.294751,-1.266112 -2.294751,-1.968074 0,-0.229476 -0.12609,-0.417228 -0.280199,-0.417228 -0.154109,0 -0.194108,-0.139296 -0.08889,-0.309546 0.127974,-0.207066 0.04802,-0.25456 -0.241513,-0.143457 -0.238053,0.09135 -0.795879,0.03953 -1.239614,-0.115158 -1.313852,-0.458012 -1.71879,-1.722853 -0.861765,-2.691769 0.450535,-0.509357 0.443251,-0.518663 -0.270168,-0.345121 -0.573811,0.139583 -0.87576,0.03578 -1.389062,-0.477522 -0.710729,-0.710729 -0.803176,-1.291392 -0.389849,-2.44864 l 0.266026,-0.744829 -0.530609,0.624624 c -0.780137,0.918364 -0.681024,2.043792 0.263141,2.987956 0.527847,0.527847 0.79375,1.058662 0.79375,1.584542 0,0.434935 0.116549,1.008566 0.258998,1.274734 0.328806,0.61438 1.563496,1.051623 2.476651,0.877063 0.64724,-0.123728 0.703934,-0.0642 0.703934,0.739122 0,1.613742 1.856406,2.685976 3.175,1.833834 z M 66.0132,77.779019 c 0.21262,-0.255603 0.027,-0.33073 -0.81709,-0.33073 -0.82415,0 -1.1597,-0.129869 -1.3672,-0.529166 -0.21698,-0.417534 -0.3924,-0.477591 -0.83153,-0.284685 -0.55127,0.242171 -0.55002,0.250219 0.13229,0.851535 0.7655,0.674615 2.42577,0.843344 2.88353,0.293046 z M 39.873711,76.376193 c 0,-0.08033 -0.347555,-0.267214 -0.772344,-0.415296 -1.047047,-0.365003 -1.717913,-1.763324 -1.332423,-2.777239 0.277926,-0.731002 0.275744,-0.733044 -0.262698,-0.245761 -1.263834,1.143754 -0.200475,3.584351 1.561689,3.584351 0.443177,0 0.805776,-0.06573 0.805776,-0.146055 z m 16.933333,-1.441445 c 0.307834,-0.198938 0.229066,-0.25739 -0.351081,-0.260532 -1.116377,-0.006 -2.294752,-1.296421 -2.294752,-2.512856 0,-1.071934 -0.374826,-1.052573 -0.647398,0.03344 -0.459096,1.829182 1.797438,3.706604 3.293231,2.739948 z M 67.48699,73.063461 c 0.53254,-0.418894 0.69469,-0.778102 0.68678,-1.521354 l -0.0104,-0.972985 -0.37791,0.8698 c -0.39394,0.906708 -1.96469,1.80877 -2.67497,1.53621 -0.20129,-0.07724 -0.36599,-0.08081 -0.36599,-0.0079 0,0.182213 1.09558,0.607357 1.61797,0.627858 0.23503,0.0092 0.74105,-0.229996 1.12447,-0.531599 z m -33.051974,-1.33221 c -0.493442,-0.954213 -0.337412,-1.905102 0.41886,-2.552642 0.290733,-0.248933 0.521918,-0.777757 0.521918,-1.193856 0,-0.734604 0.830848,-1.826463 1.602534,-2.105972 0.306623,-0.11106 0.316692,-0.207363 0.05111,-0.488877 -0.49193,-0.521447 -0.405032,-0.98824 0.318703,-1.711975 0.509694,-0.509695 0.556875,-0.649432 0.219271,-0.649432 -0.704703,0 -1.39787,0.821452 -1.39787,1.656574 0,0.514584 -0.222177,0.955575 -0.65162,1.293375 -0.383569,0.301715 -0.723533,0.915994 -0.826439,1.493287 -0.09615,0.539397 -0.418077,1.247644 -0.715393,1.573881 -0.726098,0.796728 -0.692032,2.028056 0.07881,2.848579 0.813796,0.866246 0.89445,0.831672 0.380116,-0.162942 z m 9.142862,-0.236087 c -0.672771,-0.672771 -0.681472,-1.964362 -0.0177,-2.628129 0.4383,-0.438301 0.457224,-0.556477 0.132291,-0.826147 -0.208544,-0.173076 -0.379171,-0.619854 -0.379171,-0.992839 0,-0.724836 0.925357,-1.902885 1.494715,-1.902885 0.238515,0 0.297107,-0.235161 0.190902,-0.766189 -0.165627,-0.828136 0.593556,-1.879644 1.357092,-1.879644 0.218281,0 0.396875,-0.119063 0.396875,-0.264584 0,-0.145521 -0.303068,-0.264583 -0.673485,-0.264583 -0.858357,0 -1.972349,1.102497 -1.972349,1.951996 0,0.37399 -0.341749,0.994881 -0.799618,1.452751 -0.701367,0.701367 -0.795611,0.972078 -0.766996,2.203165 0.01794,0.771951 -0.04835,1.76249 -0.147317,2.201198 -0.136132,0.603451 -0.04134,0.973847 0.389324,1.521354 0.313095,0.398037 0.739217,0.723703 0.946936,0.723703 0.276675,0 0.236162,-0.14151 -0.151495,-0.529167 z m 21.485802,-1.78904 c 0.49836,-0.49836 0.48422,-0.504251 -0.92875,-0.387076 -1.6655,0.138116 -2.5919,-0.320599 -3.298943,-1.633487 -0.388837,-0.722022 -0.452226,-0.754951 -0.52765,-0.274097 -0.253028,1.613137 1.431983,3.145621 3.218263,2.926941 0.56706,-0.06942 1.25874,-0.353947 1.53708,-0.632281 z M 51.398089,69.055043 c -0.234565,-0.334889 -0.411878,-1.137385 -0.411878,-1.86411 0,-1.002064 0.139451,-1.415523 0.649432,-1.925504 0.733592,-0.733592 0.449355,-0.861498 -0.513082,-0.230885 -1.330358,0.871683 -1.400533,2.815187 -0.146916,4.068804 0.713274,0.713274 0.937885,0.68759 0.422444,-0.0483 z M 39.948686,65.959027 c -0.118409,-0.882803 -0.02935,-1.148125 0.594933,-1.772408 0.430574,-0.430574 0.607988,-0.776254 0.429015,-0.835911 -0.390707,-0.130236 -0.391742,-0.98568 -0.0021,-1.728667 0.296788,-0.565916 0.291835,-0.567942 -0.238448,-0.09754 -0.297842,0.264206 -0.596762,0.91905 -0.664267,1.455208 -0.0675,0.536158 -0.280795,1.353394 -0.473978,1.816079 -0.274516,0.657486 -0.283552,0.989807 -0.04136,1.521354 0.436035,0.956993 0.557825,0.84691 0.396198,-0.358112 z m 28.895024,0.247501 c 0.0927,-0.149982 -0.0135,-0.194338 -0.24896,-0.103984 -0.45837,0.175892 -0.54224,0.365537 -0.16165,0.365537 0.13693,0 0.32171,-0.117699 0.41061,-0.261553 z m -8.089964,-0.818829 c -0.303169,-0.303169 -0.617791,-0.48464 -0.699162,-0.403269 -0.218996,0.218996 0.463643,0.954484 0.885899,0.954484 0.249826,0 0.191085,-0.173393 -0.186737,-0.551215 z m 4.582064,-1.402675 c 0.10691,-0.162288 0.19621,-0.520814 0.19843,-0.796724 0.004,-0.437625 -0.0788,-0.412297 -0.64477,0.198437 -0.35685,0.385052 -0.86287,0.701917 -1.12448,0.704145 -0.40347,0.0034 -0.41543,0.04267 -0.0788,0.258543 0.44514,0.285444 1.35371,0.08474 1.64959,-0.364401 z m 2.4666,-0.0089 c 0.28225,-0.206384 0.42076,-0.46766 0.30781,-0.580614 -0.11296,-0.112954 -0.46665,0.0559 -0.78599,0.375242 -0.64722,0.647224 -0.31892,0.788226 0.47818,0.205372 z m -7.176132,-6.76196 c 0.843612,-0.320741 0.885642,-0.800298 0.07014,-0.800298 -0.601814,0 -1.243541,0.43692 -1.243541,0.846666 0,0.280824 0.349106,0.267028 1.1734,-0.04637 z M 60.198056,96.69668 c -0.06007,-0.522058 -0.252641,-0.751587 -0.681675,-0.812499 l -0.597955,-0.08489 0.15864,-4.148439 c 0.08725,-2.281642 0.258713,-4.505627 0.381023,-4.94219 0.122311,-0.436562 0.300703,-1.299765 0.396426,-1.918229 0.09572,-0.618463 0.312405,-1.141372 0.481515,-1.162019 0.16911,-0.02065 0.99059,-0.05041 1.82551,-0.06615 1.23012,-0.02318 1.49733,0.04667 1.40882,0.368269 -0.0601,0.218282 -0.18548,0.813594 -0.27868,1.322917 -0.0932,0.509323 -0.41747,1.754968 -0.7206,2.768099 -0.51203,1.71131 -0.52766,2.021178 -0.22013,4.365625 0.18207,1.387963 0.55698,2.973719 0.83314,3.523903 0.27617,0.550184 0.50212,1.115731 0.50212,1.256771 0,0.14104 -0.766,0.256436 -1.70222,0.256436 -1.660276,0 -1.704276,-0.01793 -1.785934,-0.727604 z M 39.476836,96.36595 C 39.359277,95.830706 39.142094,95.5722 38.80997,95.5722 c -0.270891,0 -0.559389,-0.108181 -0.641106,-0.240402 -0.08172,-0.132221 -0.573089,-1.929516 -1.091937,-3.993989 -0.518848,-2.064473 -1.004512,-3.912944 -1.079252,-4.107714 -0.07474,-0.19477 0.320308,-0.868021 0.877885,-1.496115 0.557577,-0.628094 1.136757,-1.365754 1.287067,-1.639246 0.150311,-0.273491 0.68397,-0.630678 1.18591,-0.79375 0.540568,-0.17562 1.130269,-0.642895 1.446501,-1.146196 0.653068,-1.039398 2.045233,-1.224775 2.521052,-0.335697 0.247439,0.462343 0.0616,0.785028 -1.378403,2.393388 -1.832792,2.047075 -2.114089,2.576396 -2.104911,3.960845 0.0067,1.008454 1.98184,6.371129 2.94438,7.994189 l 0.588407,0.992187 h -1.857195 c -1.84842,0 -1.858019,-0.0037 -2.031532,-0.79375 z M 49.418525,56.4796 c -1.16581,-0.595121 -1.57144,-1.230997 -1.181195,-1.851672 0.329809,-0.524554 2.098601,-1.235322 3.674923,-1.476724 l 1.058333,-0.162077 v 1.976609 1.976609 l -1.322917,-6.8e-5 C 50.91025,56.94224 49.923674,56.737468 49.418525,56.4796 Z"
         id="path4"
         sodipodi:nodetypes="ssssssscssssscssscsssssscssssssssssssssssscssssssscsssssssssssssssssssssscsssssssssscsssscssscsscsssscsssscsscscssscssssssssscssssscsssssssssssssssssssssssssssssccsssssssscsssscssssscssssssssscssssssssssssssssssssscssssccssscsssssssssssssssssssssssssssssssssssssssssssssssssssssssssssssssccccsccssssssssssscssssscsssssssssssssssssssscssssscccss" /></g></g></svg>
