<?xml version="1.0" encoding="UTF-8" standalone="no"?>
<!-- Created with Inkscape (http://www.inkscape.org/) -->

<svg
   width="105.83334mm"
   height="105.83334mm"
   viewBox="0 0 105.83333 105.83333"
   version="1.1"
   id="svg1"
   xml:space="preserve"
   inkscape:version="1.4 (e7c3feb100, 2024-10-09)"
   sodipodi:docname="north_carolina.svg"
   inkscape:export-filename="../pngs/charlotte.png"
   inkscape:export-xdpi="96"
   inkscape:export-ydpi="96"
   xmlns:inkscape="http://www.inkscape.org/namespaces/inkscape"
   xmlns:sodipodi="http://sodipodi.sourceforge.net/DTD/sodipodi-0.dtd"
   xmlns="http://www.w3.org/2000/svg"
   xmlns:svg="http://www.w3.org/2000/svg"><sodipodi:namedview
     id="namedview1"
     pagecolor="#ffffff"
     bordercolor="#000000"
     borderopacity="0.25"
     inkscape:showpageshadow="2"
     inkscape:pageopacity="0.0"
     inkscape:pagecheckerboard="0"
     inkscape:deskcolor="#d1d1d1"
     inkscape:document-units="mm"
     inkscape:zoom="0.85937378"
     inkscape:cx="355.49141"
     inkscape:cy="364.2187"
     inkscape:window-width="1920"
     inkscape:window-height="1011"
     inkscape:window-x="0"
     inkscape:window-y="32"
     inkscape:window-maximized="1"
     inkscape:current-layer="layer1"
     showgrid="false"
     showguides="true" /><defs
     id="defs1" /><g
     inkscape:label="Capa 1"
     inkscape:groupmode="layer"
     id="layer1"><g
       id="g7"
       transform="matrix(0.88681877,0,0,0.88681877,22.679426,-76.749725)"><path
         id="path6-5"
         style="font-size:77.8031px;line-height:1;font-family:'Western Brother Personal Use';-inkscape-font-specification:'Western Brother Personal Use';text-align:center;letter-spacing:1.08368px;word-spacing:0px;text-anchor:middle;fill:none;fill-opacity:1;stroke:#13294b;stroke-width:15.86;stroke-dasharray:none;stroke-opacity:1"
         d="m -1.5709635,118.80613 c -1.8235101,0.038 -3.6092332,0.038 -5.4327434,0.076 -1.8235101,-0.038 -3.6469571,-0.0377 -5.4704671,-0.0377 -1.025724,-0.038 -5.090622,-0.11411 -3.912939,1.93734 0.455878,0.60784 1.02564,1.13966 1.709456,1.48157 0,2.84924 0.152149,6.76189 0.342098,11.77654 0.227939,5.85043 0.379822,10.21945 0.379822,13.18266 0,2.77325 -0.152135,6.95195 -0.418063,12.49846 -0.227939,4.44481 -0.341832,7.97831 -0.379821,10.63759 -0.645827,0.34191 -1.177614,0.79751 -1.633492,1.36736 -1.177683,1.97547 2.887215,1.89963 3.912939,1.89963 1.82351,-0.038 3.646957,-0.0382 5.4704671,-0.0382 1.8235102,0 3.6092333,2.4e-4 5.4327434,0.0382 1.02572447,0 5.0906231,0.0759 3.9129394,-1.89963 -0.4558775,-0.56985 -1.0638806,-1.10193 -1.74769693,-1.44384 0,-2.88722 -0.11392369,-6.72395 -0.22789307,-11.54865 -0.15195918,-5.92641 -0.26613362,-10.37138 -0.26613362,-13.33458 0,-0.30392 0.11390845,-0.60767 0.30385742,-0.83561 0.22793877,0.11397 0.41803187,0.26584 0.56999105,0.45579 3.60903055,4.63476 6.30624135,8.12978 8.05377195,10.48514 5.4705303,7.25605 9.2695423,12.30902 11.4349613,15.15825 -0.455878,0.26593 -0.835548,0.64561 -1.139466,1.0635 -1.177684,1.97547 2.887215,1.89963 3.91294,1.89963 1.78552,-0.038 3.608715,-0.0382 5.432226,-0.0382 1.82351,0 3.646957,2.4e-4 5.470467,0.0382 1.025725,0 5.091141,0.0759 3.913457,-1.89963 -0.607837,-0.68382 -1.367975,-1.29182 -2.16576,-1.74769 -0.07598,-0.038 -0.113673,-0.0757 -0.189652,-0.11369 v -8.55504 c 0.961859,1.59669 2.101038,3.09596 3.432349,4.49017 4.938674,5.2046 11.397187,7.82588 19.375044,7.82588 7.104091,0 12.916393,-2.24134 17.437179,-6.72414 0.531857,0.49387 1.139595,0.83583 1.785421,1.02578 2.317378,0.45587 0.911899,-3.34327 0.569991,-4.331 -0.607837,-1.70954 -1.177585,-3.41935 -1.785421,-5.12889 -0.569847,-1.74753 -1.139609,-3.45707 -1.709456,-5.16661 -0.303918,-0.98774 -1.557475,-4.86259 -3.115056,-3.11506 -0.455878,0.79779 -0.798104,1.70979 -0.988053,2.62155 -0.341908,0.94974 -0.721844,1.93717 -1.101742,2.84892 -0.113969,0.11397 -0.227612,0.19016 -0.341581,0.26614 -1.215674,1.02573 -2.545292,1.89948 -3.988904,2.5833 -1.975469,0.94974 -4.141173,1.4056 -6.306592,1.4056 -3.495061,0.11397 -6.838166,-1.40583 -9.003584,-4.10311 -2.127429,-2.65928 -3.191301,-6.00232 -3.077332,-9.38341 -0.113969,-3.38109 0.987893,-6.6479 3.077332,-9.2692 2.203408,-2.69727 5.546513,-4.17883 9.003584,-4.06487 2.165419,0 4.330873,0.53182 6.268352,1.48157 1.481602,0.75979 2.811204,1.67125 4.064868,2.77295 0.227938,0.15196 0.380042,0.30383 0.569991,0.45579 0.303918,0.72181 0.569679,1.48192 0.835608,2.24172 0.189949,0.91175 0.53191,1.82325 1.025777,2.62103 1.519592,1.74753 2.773414,-2.12732 3.077332,-3.11505 0.569847,-1.70954 1.139609,-3.41908 1.709456,-5.16661 0.607836,-1.70954 1.177584,-3.41883 1.785421,-5.12837 0.341908,-0.98774 1.747387,-4.78688 -0.569991,-4.331 -0.569847,0.15196 -1.139375,0.45597 -1.595252,0.87385 -4.596766,-4.17887 -10.713319,-6.26836 -18.349267,-6.26836 -7.597959,0 -13.866381,2.73492 -18.805054,8.16746 -1.046743,1.14805 -1.979889,2.38068 -2.806547,3.6742 0.137611,-3.67503 0.24753,-6.84977 0.24753,-9.14466 0.645826,-0.37989 1.216121,-0.87348 1.634009,-1.44333 1.177684,-2.05145 -2.887732,-1.97559 -3.913457,-1.97559 -1.82351,0.038 -3.646957,0.038 -5.470467,0.076 -1.823511,-0.038 -3.608716,-0.0377 -5.432226,-0.0377 -1.025725,-0.038 -5.090624,-0.11411 -3.91294,1.93734 0.455877,0.60784 1.063365,1.13939 1.747181,1.51929 0,2.69728 0.152134,6.45858 0.418062,11.32127 0.303919,5.39455 0.455786,9.42111 0.455786,12.0804 0,2.01346 -0.189591,3.00137 -0.49351,3.00137 -0.455877,0 -1.025906,-0.37992 -1.671733,-1.1777 -2.583306,-3.41908 -4.482671,-5.9644 -5.774324,-7.74992 L 1.0500651,121.99715 c 0.4938673,-0.30391 0.9500027,-0.72156 1.2919108,-1.21543 1.1776837,-2.05145 -2.88721493,-1.97559 -3.9129394,-1.97559 z" /><path
         id="path6-6"
         style="font-size:77.8031px;line-height:1;font-family:'Western Brother Personal Use';-inkscape-font-specification:'Western Brother Personal Use';text-align:center;letter-spacing:1.08368px;word-spacing:0px;text-anchor:middle;fill:none;fill-opacity:1;stroke:#ffffff;stroke-width:7.15979"
         d="m -1.5709635,118.80613 c -1.8235101,0.038 -3.6092332,0.038 -5.4327434,0.076 -1.8235101,-0.038 -3.6469571,-0.0377 -5.4704671,-0.0377 -1.025724,-0.038 -5.090622,-0.11411 -3.912939,1.93734 0.455878,0.60784 1.02564,1.13966 1.709456,1.48157 0,2.84924 0.152149,6.76189 0.342098,11.77654 0.227939,5.85043 0.379822,10.21945 0.379822,13.18266 0,2.77325 -0.152135,6.95195 -0.418063,12.49846 -0.227939,4.44481 -0.341832,7.97831 -0.379821,10.63759 -0.645827,0.34191 -1.177614,0.79751 -1.633492,1.36736 -1.177683,1.97547 2.887215,1.89963 3.912939,1.89963 1.82351,-0.038 3.646957,-0.0382 5.4704671,-0.0382 1.8235102,0 3.6092333,2.4e-4 5.4327434,0.0382 1.02572447,0 5.0906231,0.0759 3.9129394,-1.89963 -0.4558775,-0.56985 -1.0638806,-1.10193 -1.74769693,-1.44384 0,-2.88722 -0.11392369,-6.72395 -0.22789307,-11.54865 -0.15195918,-5.92641 -0.26613362,-10.37138 -0.26613362,-13.33458 0,-0.30392 0.11390845,-0.60767 0.30385742,-0.83561 0.22793877,0.11397 0.41803187,0.26584 0.56999105,0.45579 3.60903055,4.63476 6.30624135,8.12978 8.05377195,10.48514 5.4705303,7.25605 9.2695423,12.30902 11.4349613,15.15825 -0.455878,0.26593 -0.835548,0.64561 -1.139466,1.0635 -1.177684,1.97547 2.887215,1.89963 3.91294,1.89963 1.78552,-0.038 3.608715,-0.0382 5.432226,-0.0382 1.82351,0 3.646957,2.4e-4 5.470467,0.0382 1.025725,0 5.091141,0.0759 3.913457,-1.89963 -0.607837,-0.68382 -1.367975,-1.29182 -2.16576,-1.74769 -0.07598,-0.038 -0.113673,-0.0757 -0.189652,-0.11369 v -8.55504 c 0.961859,1.59669 2.101038,3.09596 3.432349,4.49017 4.938674,5.2046 11.397187,7.82588 19.375044,7.82588 7.104091,0 12.916393,-2.24134 17.437179,-6.72414 0.531857,0.49387 1.139595,0.83583 1.785421,1.02578 2.317378,0.45587 0.911899,-3.34327 0.569991,-4.331 -0.607837,-1.70954 -1.177585,-3.41935 -1.785421,-5.12889 -0.569847,-1.74753 -1.139609,-3.45707 -1.709456,-5.16661 -0.303918,-0.98774 -1.557475,-4.86259 -3.115056,-3.11506 -0.455878,0.79779 -0.798104,1.70979 -0.988053,2.62155 -0.341908,0.94974 -0.721844,1.93717 -1.101742,2.84892 -0.113969,0.11397 -0.227612,0.19016 -0.341581,0.26614 -1.215674,1.02573 -2.545292,1.89948 -3.988904,2.5833 -1.975469,0.94974 -4.141173,1.4056 -6.306592,1.4056 -3.495061,0.11397 -6.838166,-1.40583 -9.003584,-4.10311 -2.127429,-2.65928 -3.191301,-6.00232 -3.077332,-9.38341 -0.113969,-3.38109 0.987893,-6.6479 3.077332,-9.2692 2.203408,-2.69727 5.546513,-4.17883 9.003584,-4.06487 2.165419,0 4.330873,0.53182 6.268352,1.48157 1.481602,0.75979 2.811204,1.67125 4.064868,2.77295 0.227938,0.15196 0.380042,0.30383 0.569991,0.45579 0.303918,0.72181 0.569679,1.48192 0.835608,2.24172 0.189949,0.91175 0.53191,1.82325 1.025777,2.62103 1.519592,1.74753 2.773414,-2.12732 3.077332,-3.11505 0.569847,-1.70954 1.139609,-3.41908 1.709456,-5.16661 0.607836,-1.70954 1.177584,-3.41883 1.785421,-5.12837 0.341908,-0.98774 1.747387,-4.78688 -0.569991,-4.331 -0.569847,0.15196 -1.139375,0.45597 -1.595252,0.87385 -4.596766,-4.17887 -10.713319,-6.26836 -18.349267,-6.26836 -7.597959,0 -13.866381,2.73492 -18.805054,8.16746 -1.046743,1.14805 -1.979889,2.38068 -2.806547,3.6742 0.137611,-3.67503 0.24753,-6.84977 0.24753,-9.14466 0.645826,-0.37989 1.216121,-0.87348 1.634009,-1.44333 1.177684,-2.05145 -2.887732,-1.97559 -3.913457,-1.97559 -1.82351,0.038 -3.646957,0.038 -5.470467,0.076 -1.823511,-0.038 -3.608716,-0.0377 -5.432226,-0.0377 -1.025725,-0.038 -5.090624,-0.11411 -3.91294,1.93734 0.455877,0.60784 1.063365,1.13939 1.747181,1.51929 0,2.69728 0.152134,6.45858 0.418062,11.32127 0.303919,5.39455 0.455786,9.42111 0.455786,12.0804 0,2.01346 -0.189591,3.00137 -0.49351,3.00137 -0.455877,0 -1.025906,-0.37992 -1.671733,-1.1777 -2.583306,-3.41908 -4.482671,-5.9644 -5.774324,-7.74992 L 1.0500651,121.99715 c 0.4938673,-0.30391 0.9500027,-0.72156 1.2919108,-1.21543 1.1776837,-2.05145 -2.88721493,-1.97559 -3.9129394,-1.97559 z" /><path
         id="path6"
         style="font-size:77.8031px;line-height:1;font-family:'Western Brother Personal Use';-inkscape-font-specification:'Western Brother Personal Use';text-align:center;letter-spacing:1.08368px;word-spacing:0px;text-anchor:middle;fill:#7bafd4;fill-opacity:1;stroke-width:7.15979"
         d="m -1.5709635,118.80618 c -1.8235101,0.038 -3.6092332,0.038 -5.4327434,0.076 -1.8235101,-0.038 -3.6469571,-0.0377 -5.4704671,-0.0377 -1.025724,-0.038 -5.090622,-0.11411 -3.912939,1.93734 0.455878,0.60784 1.02564,1.13966 1.709456,1.48157 0,2.84924 0.152149,6.76189 0.342098,11.77654 0.227939,5.85043 0.379822,10.21945 0.379822,13.18266 0,2.77325 -0.152135,6.95195 -0.418063,12.49846 -0.227939,4.44481 -0.341832,7.97831 -0.379821,10.63759 -0.645827,0.34191 -1.177614,0.79751 -1.633492,1.36736 -1.177683,1.97547 2.887215,1.89963 3.912939,1.89963 1.82351,-0.038 3.646957,-0.0382 5.4704671,-0.0382 1.8235102,0 3.6092333,2.4e-4 5.4327434,0.0382 1.02572447,0 5.0906231,0.0759 3.9129394,-1.89963 -0.4558775,-0.56985 -1.0638806,-1.10193 -1.74769693,-1.44384 0,-2.88722 -0.11392369,-6.72395 -0.22789307,-11.54865 -0.15195918,-5.92641 -0.26613362,-10.37138 -0.26613362,-13.33458 0,-0.30392 0.11390845,-0.60767 0.30385742,-0.83561 0.22793877,0.11397 0.41803187,0.26584 0.56999105,0.45579 3.60903055,4.63476 6.30624135,8.12978 8.05377195,10.48514 5.4705303,7.25605 9.2695423,12.30902 11.4349613,15.15825 -0.455878,0.26593 -0.835548,0.64561 -1.139466,1.0635 -1.177684,1.97547 2.887215,1.89963 3.91294,1.89963 1.78552,-0.038 3.608715,-0.0382 5.432226,-0.0382 1.82351,0 3.646957,2.4e-4 5.470467,0.0382 1.025725,0 5.091141,0.0759 3.913457,-1.89963 -0.607837,-0.68382 -1.367975,-1.29182 -2.16576,-1.74769 -0.07598,-0.038 -0.113673,-0.0757 -0.189652,-0.11369 v -8.55504 c 0.961859,1.59669 2.101038,3.09596 3.432349,4.49017 4.938674,5.2046 11.397187,7.82588 19.375044,7.82588 7.104091,0 12.916393,-2.24134 17.437179,-6.72414 0.531857,0.49387 1.139595,0.83583 1.785421,1.02578 2.317378,0.45587 0.911899,-3.34327 0.569991,-4.331 -0.607837,-1.70954 -1.177585,-3.41935 -1.785421,-5.12889 -0.569847,-1.74753 -1.139609,-3.45707 -1.709456,-5.16661 -0.303918,-0.98774 -1.557475,-4.86259 -3.115056,-3.11506 -0.455878,0.79779 -0.798104,1.70979 -0.988053,2.62155 -0.341908,0.94974 -0.721844,1.93717 -1.101742,2.84892 -0.113969,0.11397 -0.227612,0.19016 -0.341581,0.26614 -1.215674,1.02573 -2.545292,1.89948 -3.988904,2.5833 -1.975469,0.94974 -4.141173,1.4056 -6.306592,1.4056 -3.495061,0.11397 -6.838166,-1.40583 -9.003584,-4.10311 -2.127429,-2.65928 -3.191301,-6.00232 -3.077332,-9.38341 -0.113969,-3.38109 0.987893,-6.6479 3.077332,-9.2692 2.203408,-2.69727 5.546513,-4.17883 9.003584,-4.06487 2.165419,0 4.330873,0.53182 6.268352,1.48157 1.481602,0.75979 2.811204,1.67125 4.064868,2.77295 0.227938,0.15196 0.380042,0.30383 0.569991,0.45579 0.303918,0.72181 0.569679,1.48192 0.835608,2.24172 0.189949,0.91175 0.53191,1.82325 1.025777,2.62103 1.519592,1.74753 2.773414,-2.12732 3.077332,-3.11505 0.569847,-1.70954 1.139609,-3.41908 1.709456,-5.16661 0.607836,-1.70954 1.177584,-3.41883 1.785421,-5.12837 0.341908,-0.98774 1.747387,-4.78688 -0.569991,-4.331 -0.569847,0.15196 -1.139375,0.45597 -1.595252,0.87385 -4.596766,-4.17887 -10.713319,-6.26836 -18.349267,-6.26836 -7.597959,0 -13.866381,2.73492 -18.805054,8.16746 -1.046743,1.14805 -1.979889,2.38068 -2.806547,3.6742 0.137611,-3.67503 0.24753,-6.84977 0.24753,-9.14466 0.645826,-0.37989 1.216121,-0.87348 1.634009,-1.44333 1.177684,-2.05145 -2.887732,-1.97559 -3.913457,-1.97559 -1.82351,0.038 -3.646957,0.038 -5.470467,0.076 -1.823511,-0.038 -3.608716,-0.0377 -5.432226,-0.0377 -1.025725,-0.038 -5.090624,-0.11411 -3.91294,1.93734 0.455877,0.60784 1.063365,1.13939 1.747181,1.51929 0,2.69728 0.152134,6.45858 0.418062,11.32127 0.303919,5.39455 0.455786,9.42111 0.455786,12.0804 0,2.01346 -0.189591,3.00137 -0.49351,3.00137 -0.455877,0 -1.025906,-0.37992 -1.671733,-1.1777 -2.583306,-3.41908 -4.482671,-5.9644 -5.774324,-7.74992 L 1.0500651,121.9972 c 0.4938673,-0.30391 0.9500027,-0.72156 1.2919108,-1.21543 1.1776837,-2.05145 -2.88721493,-1.97559 -3.9129394,-1.97559 z" /><g
         id="g6"
         transform="matrix(0.77901748,0,0,0.77901748,29.792167,32.90822)"><g
           id="g4"
           transform="matrix(0.37996964,0,0,0.37996964,14.638528,174.58684)"><path
             style="fill:#ffffff;fill-opacity:1;stroke:none;stroke-width:1.818"
             d="m 22.6995,-93.61199 c 0,0 -5.065177,22.136703 -5.065177,23.262299 0,1.125595 13.50714,53.653364 13.50714,53.653364 l -0.750398,10.1303559 8.629563,10.8807521 9.755158,5.6279753 11.255949,-0.1875991 9.567558,-3.5643843 7.128769,-6.56597124 2.81399,-9.94275666 c 0,0 3.376784,-21.949104 3.376784,-22.699499 0,-0.750398 8.441962,-41.647017 8.254362,-42.585013 -0.187597,-0.937998 -2.813986,-19.885514 -2.813986,-19.885514 l -45.961797,-5.815569 z"
             id="path3" /><g
             id="g3"
             transform="translate(-196.60394,69.786894)"><path
               style="fill:#7bafd4;fill-opacity:1;stroke-width:0.704146"
               d="m 246.21672,-57.949127 c -2.23498,-0.351411 -6.08992,-1.765449 -7.66722,-2.81243 -0.78093,-0.518364 -2.03835,-1.560958 -2.79427,-2.31688 -0.88843,-0.888435 -1.50804,-1.323111 -1.75238,-1.229354 -0.24234,0.093 -1.06702,-0.466969 -2.29807,-1.560409 -3.44408,-3.059092 -5.06908,-5.036249 -6.44896,-7.84651 l -0.85381,-1.738846 0.15328,-5.092349 c 0.13985,-4.646139 0.10814,-5.26647 -0.36179,-7.079597 -1.70078,-6.562148 -4.30794,-12.789298 -6.96814,-16.643268 -1.14461,-1.65825 -1.34768,-1.81991 -4.38095,-3.48754 l -3.18069,-1.74868 -0.3205,-2.35003 c -0.2216,-1.62483 -0.28042,-4.07853 -0.19062,-7.9512 0.12061,-5.20095 0.0872,-5.82216 -0.46758,-8.69424 -0.3286,-1.7012 -0.67293,-3.82797 -0.76517,-4.72616 l -0.16771,-1.63308 -1.52828,-1.0217 c -2.97413,-1.98828 -3.50499,-2.17394 -6.12381,-2.14159 -1.44828,0.0179 -3.60972,0.28103 -5.59539,0.68118 -3.96188,0.79842 -8.23705,1.15371 -11.04789,0.91813 -1.1613,-0.0973 -2.15004,-0.14825 -2.1972,-0.11315 -0.0472,0.0351 -0.01,0.40882 0.0827,0.83049 0.2614,1.19016 1.96873,3.1611 3.34042,3.85619 4.08902,2.07206 12.23404,8.44009 15.26126,11.93173 4.29367,4.95238 8.2889,12.76579 9.07497,17.7478 0.58059,3.679751 -1.25569,9.203959 -4.3657,13.133559 -3.50763,4.432 -9.76301,8.408454 -15.32524,9.742022 -2.24098,0.537284 -6.47559,0.651462 -8.32746,0.224538 -1.59646,-0.368043 -3.45633,-1.310022 -6.31305,-3.1974 -6.92725,-4.576703 -13.96702,-11.577097 -18.37757,-18.274769 -4.15395,-6.30799 -8.49781,-18.05997 -11.88346,-32.14981 -0.54419,-2.26469 -1.0455,-4.30872 -1.11404,-4.54227 -0.18559,-0.63242 -5.70643,-4.6238 -9.07608,-6.56169 -1.62193,-0.93278 -2.91283,-1.81043 -2.86867,-1.95034 0.0442,-0.13991 0.65714,-0.56742 1.36216,-0.95002 1.34654,-0.73074 3.83589,-1.27498 7.06903,-1.5455 l 1.9247,-0.16103 -0.12674,-0.91038 c -2.1954,-15.76994 1.69768,-33.77082 10.08199,-46.61727 8.44019,-12.93207 20.44202,-20.7368 37.38397,-24.31061 13.40682,-2.8281 24.78747,-2.41405 34.636,1.26013 6.14482,2.29243 11.918,6.16931 15.37033,10.32166 l 1.42902,1.71879 2.21973,0.0687 c 2.31809,0.0717 3.45992,0.42917 6.8715,2.15133 l 1.4333,0.72353 1.73116,-0.8718 c 2.98946,-1.50547 5.37265,-2.18983 7.13655,-2.04934 l 1.5388,0.12255 1.61578,-1.9147 c 5.23316,-6.20129 13.74934,-10.71403 23.68586,-12.55119 9.04702,-1.6727 20.67297,-0.77497 32.07068,2.47644 16.0771,4.58628 27.86191,14.35762 35.05383,29.06475 6.05316,12.37841 8.45138,27.07222 6.59497,40.40709 l -0.12673,0.91038 1.9247,0.16104 c 3.23313,0.27051 5.72249,0.81476 7.06903,1.54549 0.70502,0.38261 1.31614,0.80743 1.35802,0.94405 0.0419,0.13662 -1.15739,0.96022 -2.66509,1.83023 -2.46174,1.42051 -6.64485,4.27061 -8.51424,5.80105 -0.62194,0.50916 -0.82681,1.09074 -1.7869,5.07253 -3.35347,13.90785 -7.39782,25.12101 -11.37944,31.55006 -2.0948,3.38243 -4.6268,6.553228 -7.97715,9.989707 -6.14088,6.298741 -13.44498,11.548586 -17.30591,12.438676 -1.85187,0.426924 -6.08648,0.312746 -8.32746,-0.224538 -5.56223,-1.333568 -11.81761,-5.310022 -15.32524,-9.742022 -3.09901,-3.915707 -4.94119,-9.464751 -4.36401,-13.145363 0.7821,-4.98741 4.75725,-12.75782 9.07328,-17.736 3.02723,-3.49163 11.17224,-9.85966 15.26126,-11.93173 1.37169,-0.69509 3.07902,-2.66603 3.34042,-3.85619 0.0926,-0.42167 0.1298,-0.79539 0.0827,-0.83049 -0.0472,-0.0351 -1.0359,0.0182 -2.19721,0.1184 -2.83728,0.24485 -7.15507,-0.11345 -10.9299,-0.90698 -1.99706,-0.41982 -3.99151,-0.66594 -5.58916,-0.68973 -2.76039,-0.0411 -3.23964,0.12256 -6.24801,2.13374 l -1.52829,1.02171 -0.1677,1.63307 c -0.0922,0.89819 -0.43657,3.02496 -0.76518,4.72616 -0.55478,2.87209 -0.58819,3.4933 -0.46758,8.69425 0.0898,3.87267 0.031,6.32637 -0.19061,7.95119 l -0.3205,2.35003 -3.18071,1.74869 c -3.03325,1.66762 -3.23633,1.82928 -4.38093,3.48753 -2.65838,3.85133 -5.25373,10.048304 -6.97036,16.643272 -0.47296,1.817 -0.50402,2.423523 -0.36264,7.079597 l 0.15464,5.092349 -0.85295,1.738846 c -1.37781,2.808838 -3.00305,4.786538 -6.44812,7.84651 -1.2208,1.084336 -2.05662,1.653061 -2.29499,1.561592 -0.2421,-0.09291 -0.92542,0.40156 -1.92909,1.395927 -2.24706,2.226249 -4.79647,3.605108 -8.51184,4.603665 -1.77205,0.476263 -9.16019,0.70842 -11.38956,0.357889 z m 9.50576,-3.850778 c 3.7002,-0.600087 7.49954,-2.055338 8.49382,-3.25338 0.71677,-0.863642 -3.36363,-3.39673 -8.72473,-5.416256 -2.34846,-0.884667 -3.72159,-1.541502 -4.01791,-1.921959 l -0.45017,-0.577991 -0.45016,0.577991 c -0.29632,0.380457 -1.66946,1.037292 -4.01793,1.921959 -3.79015,1.427748 -6.4526,2.822746 -8.07647,4.231679 l -0.99362,0.862107 0.8651,0.74079 c 1.43076,1.225157 4.867,2.365078 9.19538,3.050416 1.56044,0.247078 6.05524,0.12869 8.17669,-0.215356 z m -18.69157,-7.351383 c 0.97773,-0.740043 3.73865,-2.268962 6.58638,-3.647356 l 4.90299,-2.373212 0.38218,-1.680332 c 0.57897,-2.545558 0.4958,-5.500302 -0.20262,-7.198125 -1.20471,-2.9286 -2.42804,-3.877923 -6.20118,-4.812233 -2.75899,-0.683176 -3.82203,-1.192168 -5.72161,-2.739557 -1.15461,-0.940535 -1.62996,-1.578175 -2.55936,-3.43317 -1.20937,-2.413798 -1.20777,-2.415087 0.78354,-0.632893 0.48009,0.42967 1.2755,0.774011 2.23567,0.967841 2.24252,0.45271 6.68491,2.081583 8.22861,3.01716 0.7516,0.45552 2.30962,1.79196 3.46226,2.96987 l 2.09572,2.141646 2.09572,-2.141646 c 1.15264,-1.17791 2.71066,-2.51435 3.46227,-2.96987 1.54369,-0.935577 5.98608,-2.56445 8.2286,-3.01716 0.96017,-0.19383 1.75558,-0.538171 2.23566,-0.967841 1.99132,-1.782194 1.99293,-1.780905 0.78355,0.632893 -0.9294,1.854995 -1.40475,2.492635 -2.55936,3.43317 -1.89957,1.547389 -2.96261,2.056381 -5.72161,2.739557 -3.77313,0.93431 -4.99646,1.883633 -6.20118,4.812233 -0.69842,1.697823 -0.78159,4.652567 -0.20262,7.198125 l 0.38218,1.680332 4.903,2.373212 c 2.85571,1.382259 5.60805,2.906862 6.5915,3.651243 l 1.68853,1.278039 0.66598,-0.474228 c 1.67756,-1.194527 4.96578,-4.957371 5.72834,-6.555177 l 0.78411,-1.642956 -0.25523,-3.814225 c -0.18605,-2.780454 -0.46595,-4.652771 -1.03272,-6.90813 -0.85295,-3.394153 -0.99412,-5.666242 -0.62517,-10.061923 l 0.20956,-2.49669 -2.25892,-2.516729 c -1.2424,-1.3842 -2.26067,-2.60814 -2.26282,-2.71986 -0.002,-0.11172 -1.03129,-0.87382 -2.28701,-1.69357 -2.09053,-1.36471 -6.74777,-4.69261 -8.06859,-5.7655 l -0.54742,-0.44467 0.7447,-3.47627 c 0.69943,-3.26499 0.72835,-3.61222 0.4758,-5.71336 -0.40421,-3.36299 -1.36686,-7.85679 -2.36829,-11.05555 -0.89318,-2.853 -4.16422,-9.93628 -4.58856,-9.93628 -0.42433,0 -3.69538,7.08328 -4.58856,9.93628 -1.00328,3.20469 -1.96418,7.69351 -2.37052,11.07391 -0.2571,2.13883 -0.23099,2.43868 0.50506,5.7991 0.4269,1.94901 0.74024,3.57342 0.69632,3.6098 -1.06324,0.88072 -5.78755,4.19681 -7.97755,5.5996 -1.59941,1.0245 -2.90802,1.95867 -2.90802,2.07592 0,0.11726 -1.01641,1.34284 -2.25868,2.72352 l -2.25868,2.51032 0.20932,2.49336 c 0.37741,4.495522 0.25901,6.438324 -0.60623,9.94809 -1.03257,4.188557 -1.48941,9.94388 -0.91788,11.563754 0.72057,2.042319 2.10154,3.832103 4.94514,6.409095 0.92528,0.838525 1.72102,1.524589 1.76833,1.524589 0.0473,0 0.84351,-0.573365 1.76937,-1.274146 z m -11.00086,-68.550172 c 1.18949,-0.93566 1.75979,-2.74278 1.16312,-3.68557 -0.17953,-0.28367 -0.3559,-0.1973 -0.8877,0.43472 -2.2613,2.6874 -5.09077,-1.73237 -3.71093,-5.79661 0.37723,-1.11108 0.37286,-1.14882 -0.1863,-1.61051 -0.31492,-0.26002 -1.08969,-0.75743 -1.72171,-1.10535 l -1.14914,-0.63258 -0.155,0.77501 c -0.41469,2.07347 0.0724,6.43984 0.95506,8.56171 0.62822,1.51017 1.58486,2.7518 2.44822,3.17759 1.11704,0.55089 2.45562,0.50203 3.24438,-0.11841 z m 53.19109,0.12785 c 0.89166,-0.42311 1.84833,-1.64838 2.4884,-3.18703 0.88268,-2.12187 1.36975,-6.48824 0.95505,-8.56171 l -0.155,-0.77501 -1.14913,0.63258 c -0.63202,0.34792 -1.4068,0.84533 -1.72171,1.10535 -0.55916,0.46169 -0.56353,0.49943 -0.18631,1.61051 1.37985,4.06424 -1.44963,8.48401 -3.71092,5.79661 -0.53181,-0.63202 -0.70818,-0.71839 -0.8877,-0.43472 -0.33831,0.53456 -0.27604,1.65909 0.13599,2.45587 0.84792,1.63971 2.51179,2.17353 4.23133,1.35755 z m -75.17479,-28.67359 c 1.41904,-0.12789 2.60997,-0.26385 2.64652,-0.30214 0.0366,-0.0383 -0.25577,-1.01976 -0.64961,-2.18107 -0.79421,-2.34181 -0.90319,-3.90855 -0.37583,-5.40323 l 0.35083,-0.99437 -3.76643,-3.76007 c -4.0883,-4.08139 -5.65559,-5.28944 -8.79348,-6.77792 -2.29994,-1.09101 -2.07053,-1.12065 -4.61074,0.59587 -2.88075,1.94665 -5.52614,5.16644 -7.05344,8.58499 -0.74029,1.65696 -2.0635,5.46488 -2.0635,5.93828 0,0.22497 0.37937,0.32601 1.22406,0.32601 3.19695,0 6.76185,0.79485 8.84974,1.97319 0.94402,0.53276 2.21493,0.90635 4.61903,1.3578 5.00972,0.94071 5.75999,0.99081 9.62285,0.64266 z m 103.55915,-0.63581 c 2.48311,-0.46881 3.68075,-0.82968 4.84393,-1.45961 1.83481,-0.99362 4.32695,-1.58926 7.52979,-1.79965 1.52109,-0.0999 2.33709,-0.25426 2.33709,-0.44206 0,-0.44256 -1.35121,-4.3065 -2.0635,-5.90081 -1.5273,-3.41855 -4.1727,-6.63834 -7.05344,-8.58499 -2.54021,-1.71652 -2.31079,-1.68688 -4.61074,-0.59587 -3.13789,1.48848 -4.70518,2.69653 -8.79348,6.77792 l -3.76642,3.76007 0.35083,0.99437 c 0.52735,1.49468 0.41837,3.06142 -0.37583,5.40323 -0.39384,1.16131 -0.67273,2.15623 -0.61975,2.21095 0.2211,0.22832 4.61635,0.47097 6.68716,0.36916 1.22962,-0.0604 3.72008,-0.39017 5.53436,-0.73271 z"
               id="path2"
               sodipodi:nodetypes="sssssscsssscsssscssssscsssssssssssssscssssscsscsscssssscsssssssssssssssssssscsssscsssscssssssssssscssscssssscssssssssscssssssssscsscsscssscsssscssssssssssscsssssssssssscssssssscssssssssssscssssssssssssssssscsssss" /><path
               style="fill:#13294b;fill-opacity:1;stroke-width:0.704146"
               d="m 244.73664,-58.421046 c -3.2796,-0.712518 -6.49836,-2.373127 -8.56458,-4.418601 -1.14917,-1.137632 -1.83401,-1.633992 -2.19666,-1.592109 -0.37456,0.04323 -1.3265,-0.705315 -3.29193,-2.588673 -2.94753,-2.824435 -4.87033,-5.406278 -5.72249,-7.683888 -0.49644,-1.326857 -0.5088,-1.598587 -0.27109,-5.957737 l 0.24907,-4.567471 -0.72849,-2.811944 c -1.85811,-7.172256 -5.07024,-14.412611 -7.71765,-17.396111 -0.54152,-0.61027 -1.94095,-1.55806 -3.71057,-2.51308 -2.33733,-1.26139 -2.88479,-1.66543 -3.08719,-2.2785 -0.1353,-0.40988 -0.27675,-4.13525 -0.31431,-8.27861 -0.0583,-6.42962 -0.14306,-7.90365 -0.57861,-10.06049 -0.28066,-1.3899 -0.59334,-3.36103 -0.69483,-4.38028 l -0.18454,-1.85319 -1.23225,-0.93079 c -0.67775,-0.51193 -1.94062,-1.29033 -2.80638,-1.72977 -1.39126,-0.70616 -1.79636,-0.79595 -3.48747,-0.77297 -1.05235,0.0143 -3.86957,0.39581 -6.26049,0.84779 -3.86743,0.73111 -4.81995,0.82162 -8.63214,0.82024 l -4.28503,-0.001 v 0.57948 c 0,1.27461 1.61237,3.32937 3.27282,4.17077 1.95648,0.99143 7.23383,4.63848 9.97832,6.89578 6.4515,5.30627 10.98266,11.8106 13.61059,19.53752 0.69388,2.0402 0.80254,2.69636 0.80223,4.84394 -3.1e-4,2.148072 -0.10876,2.801203 -0.80174,4.828658 -1.13367,3.31676 -2.75088,5.923628 -5.2508,8.464039 -5.77445,5.867959 -13.96729,9.176142 -20.43265,8.250493 -7.08224,-1.013963 -20.08286,-12.06645 -26.59072,-22.60612 -4.00442,-6.48528 -8.40878,-18.78786 -11.49167,-32.09941 -0.49044,-2.11767 -0.96712,-3.92045 -1.05928,-4.00618 -1.13997,-1.0603 -6.07245,-4.48848 -8.54497,-5.93893 -1.73847,-1.01982 -3.12707,-1.96601 -3.08578,-2.10263 0.14242,-0.47127 2.02855,-1.35251 3.72322,-1.73959 0.93474,-0.21349 2.75121,-0.45726 4.03662,-0.5417 1.94114,-0.1275 2.33709,-0.22274 2.33709,-0.56214 0,-0.22474 -0.17663,-2.3597 -0.39251,-4.74436 -0.57743,-6.37825 -0.2071,-12.00759 1.26995,-19.30436 2.56752,-12.68376 7.86712,-23.29912 15.63963,-31.32693 7.99709,-8.25978 16.98073,-13.01158 30.17055,-15.9584 5.73435,-1.28114 9.39528,-1.73649 15.16823,-1.88662 7.59682,-0.19758 12.51005,0.44857 18.50384,2.43344 7.08971,2.34781 13.91168,6.81369 17.40419,11.39337 l 0.95582,1.25335 h 2.07448 c 1.8114,0 2.34832,0.11271 4.23397,0.88873 1.18772,0.4888 2.63815,1.15362 3.22316,1.47738 1.05473,0.58372 1.07038,0.58478 1.86306,0.12522 0.43966,-0.2549 1.87491,-0.91972 3.18944,-1.47739 2.16129,-0.9169 2.5903,-1.01394 4.48238,-1.01394 h 2.09234 l 0.95582,-1.25335 c 1.4187,-1.86031 4.6593,-4.77181 7.20666,-6.47477 5.75293,-3.84594 12.72728,-6.26226 20.75234,-7.18982 3.63794,-0.42049 12.33598,-0.17067 16.52156,0.47452 11.56051,1.782 20.41107,4.89571 27.94578,9.83162 9.99198,6.54562 17.54729,16.60389 21.85451,29.09459 3.33742,9.67832 4.69917,19.83601 3.87614,28.91336 -0.21622,2.38466 -0.39312,4.51962 -0.39312,4.74436 0,0.3394 0.39595,0.43464 2.3371,0.56214 1.28539,0.0844 3.10187,0.32821 4.0366,0.5417 1.69468,0.38708 3.58081,1.26832 3.72323,1.73959 0.0413,0.13662 -1.34731,1.08378 -3.08578,2.10479 -1.73846,1.02101 -4.3986,2.78956 -5.91141,3.93011 l -2.75056,2.07372 -0.94504,4.01892 c -3.36543,14.31206 -7.82565,26.42825 -12.1981,33.13617 -5.12271,7.858934 -14.50253,16.590844 -21.56801,20.078205 -2.95,1.456054 -5.30635,1.837891 -8.69816,1.409496 -5.8498,-0.738846 -11.53197,-3.659468 -16.04801,-8.248641 -2.49992,-2.540404 -4.11714,-5.147272 -5.2508,-8.464039 -0.69298,-2.027448 -0.80142,-2.680579 -0.80174,-4.828651 -3.2e-4,-2.14758 0.10835,-2.80374 0.80223,-4.84394 1.86859,-5.49423 5.35295,-11.40402 8.98761,-15.24378 3.30118,-3.48747 8.39095,-7.49331 12.95801,-10.19844 1.26931,-0.75183 2.5452,-1.53341 2.83532,-1.73684 0.79605,-0.55822 2.08078,-2.62998 2.08079,-3.35549 l 2e-5,-0.64054 -4.53344,-0.0194 c -4.06459,-0.0174 -4.94449,-0.10177 -8.50795,-0.8162 -2.30687,-0.46249 -4.83221,-0.80981 -6.01865,-0.82778 -1.86492,-0.0282 -2.19087,0.0433 -3.71779,0.81621 -0.9205,0.46592 -2.19102,1.25522 -2.82337,1.75398 -1.14013,0.89928 -1.15102,0.92205 -1.30586,2.73248 -0.0859,1.0041 -0.39012,2.94202 -0.6761,4.3065 -0.4512,2.15279 -0.52824,3.4832 -0.58257,10.06048 -0.0344,4.16879 -0.17372,7.91497 -0.3095,8.32485 -0.20207,0.60996 -0.74673,1.01572 -3.00102,2.23566 -3.18098,1.72143 -3.53227,2.00409 -4.78512,3.8503 -2.69086,3.96531 -5.48437,10.768607 -6.96201,16.955276 -0.43323,1.813887 -0.45522,2.414524 -0.23971,6.550523 0.22544,4.326639 0.21144,4.622528 -0.28089,5.938436 -0.84198,2.250367 -2.75383,4.823541 -5.69541,7.665482 -2.0123,1.944133 -2.90685,2.649504 -3.30198,2.603699 -0.38166,-0.04422 -1.03586,0.426107 -2.2117,1.590138 -1.27272,1.25995 -2.21773,1.917214 -3.97451,2.764316 -3.56541,1.7192 -4.59118,1.925177 -10.1296,2.034024 -4.08923,0.08036 -5.18454,0.02119 -7.02999,-0.379739 z m 13.24017,-3.695809 c 3.11675,-0.82997 5.35192,-1.868099 6.186,-2.873099 0.29306,-0.353115 0.27628,-0.482741 -0.11906,-0.919572 -1.35183,-1.493754 -4.75863,-3.262534 -10.22641,-5.309451 -1.06344,-0.39811 -2.00338,-0.932768 -2.29776,-1.307015 l -0.49817,-0.633323 -0.49817,0.633323 c -0.29438,0.374247 -1.23434,0.908905 -2.29777,1.307015 -5.46778,2.046917 -8.87459,3.815697 -10.22642,5.309451 -0.39533,0.436831 -0.41211,0.566457 -0.11905,0.919572 1.10252,1.328449 4.34066,2.569992 8.91848,3.419453 0.34156,0.06337 2.57723,0.078 4.96815,0.03253 3.35554,-0.06387 4.77209,-0.195901 6.21018,-0.578851 z m -21.21558,-6.748275 c 1.66841,-1.259675 3.81048,-2.434704 8.02535,-4.402307 1.84604,-0.861776 3.4509,-1.661319 3.56633,-1.776764 0.34618,-0.346172 0.90808,-2.773667 1.0804,-4.667467 0.28527,-3.135056 -1.11071,-6.440162 -3.34449,-7.918411 -0.52904,-0.350101 -2.19976,-0.961314 -3.71273,-1.358255 -4.292,-1.126057 -6.24626,-2.575527 -8.01345,-5.943542 l -1.19444,-2.276427 1.33027,1.215793 c 1.06568,0.973975 1.56212,1.247571 2.49586,1.375556 1.62524,0.222764 6.10422,1.755042 7.91767,2.70866 1.01668,0.53463 2.26851,1.571203 3.81163,3.156208 l 2.29778,2.360121 2.29776,-2.360121 c 1.54313,-1.585005 2.79496,-2.621578 3.81164,-3.156208 1.81345,-0.953618 6.29243,-2.485896 7.91766,-2.70866 0.93787,-0.128549 1.43063,-0.401983 2.52216,-1.399582 l 1.35656,-1.239825 -1.15593,2.207843 c -1.79087,3.420594 -3.81688,4.935296 -8.10644,6.06062 -1.74391,0.457498 -3.18191,0.998867 -3.79948,1.430402 -1.34957,0.943042 -2.45014,2.658088 -2.99323,4.664447 -0.39367,1.454322 -0.41659,1.947365 -0.17713,3.810444 0.51665,4.019709 0.38036,3.848981 4.69366,5.879302 4.42999,2.085258 6.19911,3.059317 7.93,4.366149 0.70034,0.528764 1.40942,0.961392 1.57573,0.961392 0.16631,0 1.44166,-1.14578 2.83411,-2.546178 3.29167,-3.310444 4.14828,-4.88452 4.14207,-7.611305 -0.007,-2.957096 -0.43089,-6.283968 -1.23967,-9.723334 -0.81712,-3.474827 -0.94992,-6.181606 -0.48515,-9.888203 l 0.25812,-2.058606 -2.24538,-2.495542 c -1.23496,-1.37255 -2.24538,-2.68657 -2.24538,-2.92004 0,-1.46567 2.82739,-7.91536 4.09141,-9.33311 0.64958,-0.72858 0.66079,-0.73136 0.50197,-0.12421 -0.7209,2.75589 -0.89142,3.67324 -1.11426,5.99431 l -0.25353,2.64082 1.9891,1.93569 1.98911,1.93569 0.029,3.372518 c 0.016,1.854883 0.0998,4.099109 0.18631,4.987164 l 0.15727,1.614642 1.07829,-3.070119 c 1.52024,-4.328421 2.26322,-5.878965 3.7387,-7.802295 l 1.28984,-1.68135 -1.06616,0.16374 c -0.58639,0.09 -1.48535,0.37386 -1.99769,0.63067 -0.51234,0.25681 -0.93152,0.35065 -0.93152,0.20851 0,-0.3933 3.45076,-3.78546 4.74048,-4.65997 0.98046,-0.66481 5.4241,-3.06494 6.15518,-3.32457 0.35791,-0.12711 0.87852,-4.20261 0.67525,-5.28612 l -0.17096,-0.91128 -1.24065,0.91071 -1.24064,0.91072 -1.52258,-0.29955 c -1.45331,-0.28592 -7.52851,-2.29407 -7.819,-2.58456 -0.0763,-0.0763 -0.18087,-1.45618 -0.23244,-3.06646 l -0.0938,-2.9278 0.72323,1.52463 c 0.81247,1.71274 0.9818,1.80366 5.24243,2.81475 3.15365,0.7484 3.06199,0.7762 4.44951,-1.34926 2.58708,-3.96301 4.92729,-13.09502 4.99953,-19.50919 l 0.0182,-1.61465 0.43254,1.06537 0.43254,1.06536 1.41185,-1.97198 c 4.39555,-6.13941 8.76966,-11.02997 11.47537,-12.83029 2.41108,-1.60428 7.41171,-4.02296 8.76483,-4.23933 1.44395,-0.23089 5.04353,0.49614 8.75468,1.76826 3.71375,1.27302 5.74034,1.58319 10.55702,1.61576 2.27614,0.0154 2.83407,0.0798 2.35987,0.27265 -1.39399,0.56676 -4.31719,0.96912 -8.07323,1.11122 -3.78376,0.14315 -4.14738,0.11398 -7.57642,-0.60762 l -3.6019,-0.75798 -1.24203,0.78397 c -5.18713,3.27406 -9.90825,7.04708 -9.26696,7.40596 0.66397,0.37158 5.3278,1.44881 7.55147,1.74421 2.08864,0.27746 2.44462,0.25729 4.71973,-0.26744 2.91037,-0.67123 6.69881,-1.95469 9.2919,-3.14793 2.22177,-1.02237 1.96724,-0.72035 -1.49044,1.76853 -3.54279,2.55014 -6.56057,4.02892 -8.96231,4.39173 -1.65645,0.25023 -2.26845,0.21767 -5.09235,-0.27097 -1.76529,-0.30546 -3.99211,-0.66774 -4.94848,-0.80507 -1.6886,-0.24246 -4.48335,-0.10625 -4.98163,0.24282 -0.3228,0.22614 -2.59478,2.92272 -2.59478,3.07972 0,0.0668 1.31345,0.195 2.91878,0.28501 1.60533,0.09 4.81909,0.38648 7.14171,0.6588 2.3226,0.27233 5.19119,0.49531 6.37462,0.49553 8.09248,0.001 14.49215,-3.92917 25.44112,-15.62582 1.97024,-2.10479 3.58226,-3.89941 3.58226,-3.98805 0,-0.0886 -0.47508,-0.18513 -1.05573,-0.21441 -1.96856,-0.0993 -3.76145,-0.5944 -8.25142,-2.2786 -9.9,-3.71353 -11.75412,-4.21493 -15.60613,-4.2202 -4.58871,-0.006 -7.73731,0.85721 -13.83822,3.79507 -2.11767,1.01975 -4.68868,2.21522 -5.71336,2.6566 -1.02468,0.44138 -2.22635,0.95952 -2.67038,1.15143 -1.12382,0.48571 -1.00741,0.25934 0.2484,-0.48306 0.58066,-0.34326 1.666,-1.17396 2.41188,-1.84602 l 1.35614,-1.2219 -4.22013,-0.15161 c -2.32107,-0.0834 -4.39557,-0.21894 -4.61001,-0.30123 -0.33575,-0.12884 -0.40958,0.24987 -0.53156,2.7268 -0.0779,1.58203 -0.0453,3.90406 0.0725,5.16006 0.11783,1.25601 0.17455,2.32332 0.12605,2.37182 -0.22689,0.22689 -1.53674,-2.48697 -2.06671,-4.28198 -0.42527,-1.44036 -0.63024,-2.88775 -0.72951,-5.15113 -0.13297,-3.03227 -0.1152,-3.18738 0.48393,-4.22292 0.6978,-1.20607 1.32111,-3.04196 1.5613,-4.59858 0.15286,-0.99064 0.12156,-1.05936 -0.66602,-1.46269 -1.16172,-0.59494 -5.15395,-3.60808 -7.6576,-5.7796 -4.69998,-4.07649 -15.72361,-15.68521 -21.44654,-22.58482 -1.2079,-1.45625 -1.85982,-2.04734 -2.25803,-2.04734 -1.37667,0 -4.64595,1.09908 -7.04287,2.36769 l -2.59446,1.37317 -1.11437,-0.65306 c -2.24019,-1.31283 -4.11619,-2.13224 -5.96314,-2.60461 -2.84678,-0.72808 -2.79026,-0.74687 -4.70714,1.56415 -3.6468,4.39661 -9.86392,11.21379 -14.4439,15.83796 -6.13784,6.19707 -9.8177,9.39908 -13.64855,11.87619 l -1.80195,1.16518 0.1423,0.99363 c 0.20213,1.41123 0.79187,3.16512 1.52485,4.53489 0.60549,1.13154 0.62514,1.30216 0.49332,4.28356 -0.14722,3.32972 -0.70717,5.82035 -1.7881,7.95347 -0.84403,1.66561 -1.22324,1.84534 -0.97417,0.46171 0.2075,-1.15265 0.21863,-8.7788 0.0133,-9.11102 -0.0666,-0.10774 -0.93907,-0.11395 -1.93884,-0.0138 -0.99978,0.10015 -3.0474,0.19409 -4.55026,0.20874 l -2.73248,0.0266 1.36624,1.25126 c 0.75143,0.6882 1.84132,1.53212 2.42197,1.87538 1.15796,0.68455 1.367,0.9347 0.49682,0.59453 -1.44771,-0.56594 -8.00392,-3.557 -10.02152,-4.572 -4.29636,-2.16137 -8.20627,-3.14838 -12.44885,-3.14257 -3.86083,0.005 -5.69633,0.50287 -15.7056,4.25761 -2.60206,0.9761 -5.33679,1.83222 -6.33438,1.983 -3.25477,0.49195 -3.05241,0.30405 -1.86053,1.7276 1.78355,2.13027 9.18845,9.47411 11.40758,11.31354 6.06562,5.02776 10.83701,7.05157 16.60303,7.04225 1.18343,-0.002 4.05202,-0.22514 6.37462,-0.49606 2.32261,-0.27092 5.53637,-0.566 7.14171,-0.65572 1.60533,-0.0897 2.91878,-0.21255 2.91878,-0.27295 0,-0.39288 -2.47485,-3.0636 -2.98088,-3.2168 -1.14548,-0.3468 -5.06739,-0.15551 -7.82483,0.38164 -1.50286,0.29276 -3.40318,0.5995 -4.22292,0.68166 -1.9303,0.19345 -4.6341,-0.37647 -6.65283,-1.40231 -1.65606,-0.84155 -6.01378,-3.76 -7.40388,-4.95852 l -0.84771,-0.73087 1.97273,0.89488 c 2.59404,1.17672 8.0064,2.93698 10.22683,3.32606 1.39289,0.24407 2.20715,0.24626 3.85031,0.0103 2.13881,-0.30708 6.77234,-1.39523 7.37339,-1.73159 0.6283,-0.35162 -4.27771,-4.275 -9.26406,-7.40856 l -1.24204,-0.78052 -3.4777,0.74603 c -3.25358,0.69795 -3.73382,0.73861 -7.45221,0.63098 -2.29711,-0.0665 -4.79229,-0.28862 -5.91219,-0.5263 -3.28583,-0.69737 -3.29448,-0.84951 -0.0496,-0.87146 4.84716,-0.0327 6.82376,-0.34186 10.92992,-1.70911 3.945,-1.31359 7.08223,-1.92791 8.4935,-1.66316 1.36068,0.25527 6.84236,2.95175 8.919,4.38733 2.57736,1.78173 6.77472,6.52692 11.14136,12.59552 l 1.47749,2.05336 0.43378,-1.06855 0.43379,-1.06853 0.0139,1.68654 c 0.0348,4.22462 1.29305,10.67691 3.00334,15.40068 1.02259,2.82433 2.98838,5.89111 3.77461,5.88869 0.6811,-0.002 4.3237,-0.85211 5.98598,-1.39683 1.10652,-0.36261 1.2546,-0.5108 1.91776,-1.91916 l 0.71865,-1.52621 -0.007,2.11146 c -0.004,1.16131 -0.0852,2.55256 -0.18095,3.09168 l -0.17403,0.98022 -3.59986,1.1696 c -5.12817,1.66614 -5.33647,1.68501 -6.88004,0.62322 -1.24124,-0.85382 -1.26711,-0.85977 -1.41071,-0.32426 -0.21385,0.79751 -0.18614,1.66902 0.11808,3.71444 l 0.27113,1.82298 1.28141,0.57165 c 2.98399,1.33118 6.01605,3.34845 7.9263,5.27345 1.05883,1.06703 1.92515,2.05768 1.92515,2.20145 0,0.1465 -0.4095,0.0563 -0.93153,-0.20502 -0.87633,-0.43881 -2.79458,-0.88262 -2.79458,-0.64657 0,0.0594 0.49667,0.78255 1.1037,1.60715 1.3755,1.86849 2.25539,3.725178 3.64582,7.693196 l 1.08805,3.105087 0.15727,-1.614649 c 0.0865,-0.888055 0.17034,-3.132281 0.18631,-4.987164 l 0.029,-3.37252 1.98946,-1.93603 1.98945,-1.93603 -0.2437,-2.57199 c -0.21739,-2.29435 -0.66855,-4.76482 -1.12981,-6.18666 -0.11943,-0.36815 0.0111,-0.30381 0.50403,0.24841 1.22575,1.3732 4.09437,7.87514 4.09437,9.28019 0,0.26258 -1.01042,1.60041 -2.24538,2.97296 l -2.24538,2.495551 0.25812,2.058599 c 0.46477,3.706597 0.33196,6.413376 -0.48515,9.888203 -0.80878,3.439366 -1.23294,6.766245 -1.23967,9.723334 -0.006,2.742783 0.84677,4.310134 4.1424,7.611312 1.39804,1.400398 2.6756,2.54617 2.83903,2.54617 0.16342,0 0.88681,-0.44521 1.60754,-0.989367 z m 0.84619,-42.8101 c -4.02455,-3.16116 -7.58146,-8.4497 -8.8251,-13.12145 l -0.30707,-1.15354 2.21585,-4.91449 c 1.21872,-2.70297 2.16794,-5.03934 2.10938,-5.19193 -0.0586,-0.1526 -0.87331,-0.42823 -1.81057,-0.61252 -0.93727,-0.18429 -1.82479,-0.37956 -1.97226,-0.43394 -0.14747,-0.0544 -0.47469,0.35922 -0.72716,0.91909 -1.06768,2.36769 -4.66752,4.06578 -7.66597,3.61615 -2.05957,-0.30886 -4.67922,-2.788 -6.00421,-5.68218 -0.58209,-1.27143 -1.26119,-4.07783 -1.04023,-4.29878 0.0563,-0.0563 0.5038,0.71004 0.99451,1.70293 1.27675,2.58334 3.2995,4.73711 5.07161,5.40015 0.87731,0.32824 1.82566,0.49628 2.53908,0.4499 l 1.13874,-0.074 -1.49045,-0.72812 c -1.93727,-0.9464 -4.30894,-3.31385 -5.31366,-5.30418 -1.13351,-2.24549 -1.55982,-4.40369 -1.60369,-8.11888 -0.0348,-2.94597 -0.0848,-3.27168 -0.58463,-3.81117 -0.80099,-0.86448 -1.40373,-2.88411 -1.23283,-4.13095 0.0787,-0.57424 0.65787,-2.18228 1.28702,-3.57342 1.43323,-3.16908 1.76461,-4.8268 1.42636,-7.13523 -0.13915,-0.94965 -0.21221,-1.7716 -0.16234,-1.82656 0.20826,-0.22956 1.3873,2.80544 1.74415,4.48971 0.45363,2.141 0.33309,3.86797 -0.37848,5.42229 -1.18405,2.58642 -0.36727,3.98591 2.97608,5.09935 3.23032,1.0758 6.01261,3.34913 8.35203,6.8242 0.99726,1.48139 2.38683,4.28861 2.90322,5.86517 l 0.41586,1.26964 1.51838,0.1587 c 2.54285,0.26578 2.53226,0.26919 3.42007,-1.10093 0.44892,-0.69279 1.4285,-1.95035 2.17686,-2.79458 l 1.36066,-1.53495 -0.14285,-3.6019 c -0.18443,-4.65034 -0.9588,-9.81349 -1.90825,-12.72347 -0.76063,-2.33122 -2.72193,-6.59784 -3.71456,-8.08063 -0.93202,-1.39224 -0.10379,-0.88235 1.61396,0.99364 2.66779,2.91353 4.80958,6.4568 5.95975,9.8595 0.29744,0.87998 0.66079,1.63995 0.80743,1.68884 0.42661,0.1422 2.99415,-3.06387 3.89773,-4.86708 0.45503,-0.90806 1.09336,-2.37761 1.41851,-3.26567 0.45939,-1.25469 0.6104,-1.47842 0.67739,-1.00359 0.1149,0.81437 -0.40065,4.83555 -0.82733,6.45301 -0.36247,1.37407 -1.80817,3.8102 -3.47347,5.8531 -0.9859,1.20945 -1.00809,1.27788 -0.84547,2.60827 0.0918,0.75144 0.17805,2.83163 0.19156,4.62267 l 0.0246,3.25642 -0.9508,1.0907 c -3.57291,4.09863 -6.60206,8.56685 -8.57015,12.64163 -2.1262,4.40215 -2.14864,4.565 -1.07146,7.77704 0.95848,2.8581 2.88872,7.01263 4.72525,10.17037 0.61582,1.05884 1.09797,1.92508 1.07145,1.925 -0.0266,-9e-5 -0.66303,-0.48307 -1.41446,-1.0733 z m -11.21677,-26.25109 c 1.02072,-1.02071 1.42176,-2.28875 1.02603,-3.24413 -0.37025,-0.89386 -0.5746,-0.91679 -0.94405,-0.10594 -0.41323,0.90693 -1.32638,1.26043 -2.25853,0.87432 -1.57287,-0.65149 -2.34711,-3.93401 -1.51944,-6.44187 0.35629,-1.07957 0.35462,-1.08706 -0.37581,-1.68628 -0.40353,-0.33105 -1.16803,-0.82934 -1.69891,-1.10733 -0.78642,-0.4118 -1.00724,-0.44379 -1.19204,-0.17267 -0.12475,0.183 -0.18077,1.73003 -0.12449,3.43783 0.11897,3.60997 0.7043,5.81735 1.98936,7.50218 1.00126,1.31274 1.69786,1.68051 3.19207,1.68522 0.96118,0.003 1.28895,-0.12447 1.90581,-0.74133 z m 36.82535,26.82289 c 2.35835,-3.67647 5.18178,-9.74554 6.08346,-13.0766 0.51225,-1.89243 0.49738,-1.95378 -1.49617,-6.17011 -1.86794,-3.95068 -4.56253,-7.95053 -8.62907,-12.80895 l -0.94901,-1.13381 0.0182,-3.21331 c 0.01,-1.76731 0.10461,-3.82279 0.21032,-4.56771 0.18873,-1.33005 0.17389,-1.37699 -0.82546,-2.61066 -1.73527,-2.14214 -3.14976,-4.51282 -3.51204,-5.88615 -0.4044,-1.533 -0.94669,-5.90855 -0.81548,-6.57984 0.0544,-0.27811 0.3224,0.17914 0.67649,1.15402 0.32255,0.88806 0.95563,2.3514 1.40683,3.25187 0.88336,1.7629 3.49572,5.0172 3.91527,4.87735 0.14082,-0.047 0.49941,-0.80533 0.79685,-1.68531 1.15311,-3.41141 3.60633,-7.4353 6.16244,-10.10791 1.60972,-1.68311 2.27389,-2.03382 1.41126,-0.74523 -0.98732,1.47487 -2.95222,5.74418 -3.70362,8.04719 -0.94244,2.88851 -1.74123,8.10771 -1.93794,12.66219 l -0.15337,3.55104 1.38418,1.62147 c 0.76131,0.89181 1.74749,2.18213 2.19151,2.86737 0.87743,1.3541 0.87254,1.35253 3.3985,1.08852 l 1.50569,-0.15738 0.54451,-1.51937 c 2.21779,-6.18831 6.34301,-10.77589 11.22171,-12.47941 1.05147,-0.36716 2.26409,-0.98936 2.69473,-1.38269 0.69374,-0.63364 0.77012,-0.83449 0.67025,-1.76261 -0.062,-0.57612 -0.36755,-1.71818 -0.67901,-2.53793 -0.52356,-1.37792 -0.5467,-1.64984 -0.30639,-3.6019 0.26852,-2.18127 1.00495,-4.51383 1.69087,-5.35561 0.30256,-0.37132 0.36357,-0.38799 0.26578,-0.0726 -0.33276,1.073 -0.42758,3.91895 -0.16844,5.05565 0.15574,0.68311 0.78468,2.35187 1.39766,3.70834 0.61296,1.35648 1.17888,2.93615 1.25759,3.51039 0.1709,1.24686 -0.43186,3.26652 -1.23284,4.13089 -0.49743,0.53679 -0.5499,0.86826 -0.58359,3.68696 -0.044,3.68105 -0.50507,6.06474 -1.58804,8.21011 -1.037,2.05426 -3.47449,4.49756 -5.37536,5.38815 l -1.44542,0.67719 1.13874,0.074 c 0.71341,0.0464 1.66176,-0.12166 2.53908,-0.4499 1.81713,-0.67989 3.80938,-2.83347 5.16743,-5.5859 l 0.98052,-1.98726 -0.16492,1.36624 c -0.41689,3.45379 -2.86892,7.29741 -5.48391,8.5962 -1.4218,0.70616 -4.31783,0.64144 -5.78396,-0.12926 -1.74557,-0.91758 -2.46495,-1.53733 -3.23256,-2.78485 l -0.71357,-1.15971 -1.92657,0.42151 c -1.0596,0.23182 -1.96445,0.53518 -2.01076,0.67413 -0.0463,0.13895 0.90926,2.47163 2.1235,5.18374 l 2.20772,4.9311 -0.30306,1.13833 c -0.95745,3.59627 -3.20721,7.46023 -6.18447,10.62184 -2.02665,2.15215 -4.5683,4.16661 -3.856,3.0562 z m 16.76507,-26.83872 c 1.77135,-1.6548 2.83866,-5.0568 2.83264,-9.02889 -0.002,-1.37855 -0.099,-2.65671 -0.21544,-2.84037 -0.24947,-0.39362 -0.96813,-0.0785 -2.70359,1.18563 l -1.05979,0.77193 0.413,0.79867 c 0.62723,1.21292 0.57401,3.76932 -0.10778,5.17772 -0.92489,1.91056 -2.60426,2.25515 -3.48097,0.71427 -0.52236,-0.91807 -0.65536,-0.919 -1.03301,-0.007 -0.39896,0.96318 0.007,2.22534 1.05258,3.27068 0.72013,0.72013 0.86759,0.7646 2.21292,0.66729 1.09191,-0.079 1.5985,-0.25105 2.08944,-0.70968 z m -45.55466,-15.23939 c -2.59561,-5.01154 -6.74271,-9.76557 -11.9309,-13.67696 -1.00217,-0.75554 -1.78465,-1.37366 -1.73885,-1.37359 0.31006,4.7e-4 3.03837,1.16444 4.63104,1.97572 3.8162,1.94391 6.08881,4.27278 7.88933,8.08464 1.01378,2.14625 2.2131,5.85893 2.04913,6.34339 -0.0432,0.12774 -0.44812,-0.48119 -0.89975,-1.3532 z m 32.36939,0.72318 c 0.23395,-1.44122 1.30547,-4.46964 2.24529,-6.34591 2.02812,-4.04891 5.01717,-6.54049 10.53722,-8.78349 0.8723,-0.35445 1.63307,-0.64445 1.69059,-0.64445 0.0575,0 -0.82807,0.6981 -1.96798,1.55134 -4.5435,3.40085 -8.82813,8.32412 -11.64287,13.37826 -0.9633,1.72971 -1.01405,1.7794 -0.86225,0.84425 z M 189.75,-83.798482 c 2.83723,-0.954724 6.56521,-2.833632 8.6091,-4.339005 4.4012,-3.241578 7.20381,-7.818767 7.20381,-11.765181 0,-7.511832 -7.92136,-18.477132 -19.87363,-27.510492 -7.82504,-5.91405 -18.05806,-10.88643 -28.81003,-13.99922 -5.36684,-1.55375 -12.2101,-2.93309 -16.66024,-3.35806 l -1.85021,-0.17669 3.10509,2.18462 c 5.8577,4.12126 12.57597,9.23834 16.71325,12.72994 1.1998,1.01255 2.31763,1.78808 2.48407,1.72341 0.69735,-0.27096 3.46873,-2.53006 4.4272,-3.60885 0.56909,-0.64053 1.25029,-1.61174 1.51379,-2.15823 l 0.47909,-0.99363 -0.10812,1.63666 c -0.14026,2.12313 -1.23234,4.44199 -2.88058,6.11644 l -1.23159,1.25116 3.19473,3.01464 3.19472,3.01465 1.5313,-0.89747 c 3.1434,-1.84229 6.41093,-5.22961 7.52581,-7.8017 l 0.37686,-0.86943 0.0203,1.29482 c 0.0259,1.65499 -0.67558,3.52725 -2.18665,5.83627 -1.10557,1.68938 -3.98617,4.66825 -4.51424,4.66825 -0.12884,0 -0.23425,0.12524 -0.23425,0.27832 0,0.2945 3.89407,5.00503 4.25214,5.14367 0.3996,0.15472 4.10419,-1.60431 5.86074,-2.78283 2.10297,-1.41094 3.73617,-2.97192 5.23034,-4.99903 0.60422,-0.81974 1.13509,-1.52819 1.1797,-1.57432 0.0446,-0.0461 -0.0919,0.68045 -0.30344,1.61464 -1.03679,4.57923 -4.57056,8.77537 -8.76727,10.41062 -1.3856,0.5399 -1.36703,0.52396 -1.05758,0.90768 0.14038,0.17408 0.84351,1.43434 1.5625,2.80058 0.71899,1.36624 1.33951,2.52351 1.37893,2.57171 0.134,0.16384 3.45071,-1.02346 4.94735,-1.77102 4.11294,-2.05441 6.804,-4.61871 8.67667,-8.26799 l 0.88457,-1.72376 10e-4,1.0435 c 0.007,5.7551 -4.82371,11.29322 -11.86022,13.59791 -0.71728,0.23493 -1.30414,0.49456 -1.30414,0.576945 0,0.08239 0.21622,0.772054 0.48048,1.532581 0.26427,0.760534 0.59209,1.829913 0.7285,2.376408 0.13641,0.546495 0.36947,1.460645 0.5179,2.031447 l 0.26988,1.037813 2.04461,-0.566296 c 6.99886,-1.938485 11.64534,-5.221728 14.92836,-10.548498 1.09243,-1.77248 1.12644,-1.80227 0.99301,-0.86942 -0.30905,2.16069 -1.16587,4.81324 -2.10286,6.510056 -2.319,4.199555 -6.24653,6.823583 -12.8639,8.594503 -1.28019,0.342603 -2.35471,0.65506 -2.38781,0.694352 -0.0331,0.03929 -0.11574,1.594003 -0.18365,3.45492 l -0.12347,3.383478 1.39565,-0.355854 c 0.76761,-0.195724 2.38412,-0.688479 3.59225,-1.095017 z m 127.40544,-2.023836 -0.12251,-3.414742 -1.02336,-0.257661 c -2.43797,-0.613832 -5.27529,-1.565605 -6.9352,-2.326393 -5.13076,-2.351587 -8.45927,-6.790615 -9.33257,-12.446286 -0.12658,-0.81974 -0.1985,-1.52422 -0.15981,-1.56551 0.0386,-0.0413 0.30591,0.40585 0.59386,0.99363 0.28795,0.58778 1.10103,1.83512 1.80685,2.77186 2.98418,3.960479 7.7445,6.91773 13.8059,8.576621 l 1.79601,0.491529 0.26577,-1.038531 c 0.21669,-0.846742 1.00568,-3.55636 1.65067,-5.668946 0.095,-0.311313 -0.18855,-0.510023 -1.20159,-0.841893 -7.07506,-2.31786 -11.88878,-7.82965 -11.88207,-13.60517 l 10e-4,-1.0435 0.88468,1.72397 c 2.1208,4.13281 5.66921,7.18431 10.54363,9.06714 2.76111,1.06654 3.15092,1.13625 3.32445,0.59456 0.0803,-0.25067 0.76003,-1.56578 1.51051,-2.92248 0.75048,-1.35669 1.33807,-2.48429 1.30575,-2.50578 -0.0323,-0.0215 -0.56177,-0.23505 -1.17658,-0.47461 -4.19671,-1.63525 -7.73048,-5.83139 -8.76726,-10.41062 -0.21151,-0.93419 -0.35028,-1.66078 -0.30836,-1.61464 0.0419,0.0461 0.67584,0.87906 1.40872,1.85094 1.58023,2.09555 3.70174,4.00168 5.93206,5.32985 1.69898,1.01175 4.63254,2.29548 4.9555,2.16853 0.34528,-0.13571 4.23156,-4.85339 4.23156,-5.13681 0,-0.15308 -0.10541,-0.27832 -0.23425,-0.27832 -0.51399,0 -3.31429,-2.89211 -4.46246,-4.60877 -1.51878,-2.27077 -2.26061,-4.21262 -2.25231,-5.89575 l 0.006,-1.29482 0.63447,1.23579 c 1.46452,2.85251 4.15522,5.59462 7.29595,7.43534 l 1.5313,0.89747 3.20565,-3.02495 3.20565,-3.02497 -1.23966,-1.23966 c -1.69925,-1.69925 -2.74633,-3.89258 -2.89008,-6.05389 l -0.1124,-1.69008 0.47909,0.99363 c 0.26349,0.54649 0.9447,1.5177 1.51379,2.15823 0.95847,1.07879 3.72985,3.33789 4.42719,3.60885 0.16644,0.0646 1.28427,-0.71167 2.48407,-1.7252 4.34043,-3.6666 13.17203,-10.33728 18.15248,-13.71092 1.61469,-1.09375 1.57099,-1.22288 -0.34864,-1.03025 -10.80194,1.08397 -24.1035,5.14005 -34.3697,10.48044 -14.88894,7.7451 -27.72981,20.87822 -30.30914,30.99895 -0.91727,3.599174 -0.51371,6.261092 1.44512,9.531935 2.95828,4.939761 9.08202,8.853855 17.18146,10.981826 0.88806,0.233319 1.62726,0.413095 1.64268,0.399512 0.0154,-0.01359 -0.0271,-1.561346 -0.0945,-3.439451 z m -135.76457,1.186057 0.76247,-1.607671 -1.39869,-0.779631 c -3.52417,-1.964398 -8.67544,-6.128964 -12.39974,-10.024652 -5.17408,-5.412175 -8.82392,-11.100955 -11.96608,-18.650815 -1.24799,-2.99862 -3.4645,-9.83973 -4.25484,-13.1323 l -0.58947,-2.45571 -1.78997,-1.60838 c -0.98448,-0.8846 -2.01898,-1.76878 -2.2989,-1.96483 -0.48812,-0.3419 -0.50268,-0.32301 -0.35628,0.46218 0.44196,2.37032 2.23416,9.0631 3.22879,12.05759 3.18659,9.59367 7.3102,17.74247 11.77863,23.276105 2.97117,3.679437 8.05293,8.486255 12.89392,12.196302 1.92084,1.472094 5.29256,3.827928 5.48829,3.834673 0.0767,0.0028 0.48251,-0.718644 0.90187,-1.602861 z m 142.81855,-0.158285 c 5.80753,-4.101285 12.26166,-9.953949 15.72373,-14.258401 4.44932,-5.531943 8.51335,-13.528103 11.65281,-22.927473 1.10302,-3.30239 2.89062,-9.91383 3.35747,-12.41765 0.1464,-0.78519 0.13184,-0.80408 -0.35629,-0.46218 -0.2799,0.19605 -1.31441,1.08023 -2.29889,1.96483 l -1.78997,1.60838 -0.59049,2.45571 c -1.91947,7.98257 -5.46346,16.82094 -9.10607,22.70965 -4.46797,7.223018 -12.62133,15.194071 -19.51571,19.079345 l -1.40082,0.789418 0.76805,1.619416 c 0.44039,0.92855 0.89275,1.571569 1.06036,1.507253 0.16077,-0.06168 1.28389,-0.81243 2.49582,-1.668298 z M 178.93545,-96.426278 c 0.99833,-0.115663 1.88198,-0.277131 1.96368,-0.358826 0.0817,-0.08169 -0.11679,-0.816535 -0.44108,-1.632964 -0.54238,-1.365501 -0.63999,-1.472362 -1.21846,-1.3338 -1.54243,0.369458 -7.10796,2.132907 -7.29661,2.311937 -0.25741,0.244289 1.21728,0.748824 2.91734,0.998098 1.73649,0.25462 2.00285,0.255633 4.07513,0.01556 z m 150.05678,-0.419354 c 0.75982,-0.213237 1.24251,-0.468074 1.11783,-0.590159 -0.22198,-0.21737 -7.82991,-2.548593 -7.91856,-2.42641 -0.34209,0.471553 -1.16016,2.964828 -1.01913,3.106073 0.603,0.603875 5.55104,0.547241 7.81986,-0.0895 z m -153.17302,-6.649278 c 0.92388,-0.17773 1.75735,-0.40072 1.85215,-0.49553 0.1982,-0.1982 -0.58905,-1.75922 -1.10182,-2.18478 -0.2665,-0.22117 -1.05742,-0.053 -3.49869,0.74379 -1.7349,0.56626 -3.8054,1.20989 -4.60112,1.43029 -0.79571,0.22039 -1.38381,0.46367 -1.30687,0.5406 0.59575,0.59575 5.48179,0.57636 8.65635,-0.0344 z m 158.8014,0.15578 c 0.36547,-0.20453 0.18461,-0.32098 -1.02527,-0.66011 -0.80797,-0.22648 -2.88849,-0.87302 -4.6234,-1.43676 -3.48976,-1.13397 -3.44409,-1.13934 -4.37373,0.51471 l -0.55587,0.98905 1.39791,0.2902 c 3.46818,0.71999 8.15853,0.87476 9.18036,0.30291 z m -162.27525,-6.5119 1.68363,-0.52656 -0.4416,-0.74978 c -0.86788,-1.47353 -1.07236,-1.53987 -2.62701,-0.85234 -1.57391,0.69607 -4.61632,1.51404 -6.58655,1.77087 -1.56344,0.20379 -1.42247,0.45824 0.45032,0.81284 1.99415,0.37757 5.54607,0.16268 7.52121,-0.45503 z m 164.60454,0.4631 c 2.13113,-0.36053 2.34837,-0.60853 0.71907,-0.82091 -1.97023,-0.25683 -5.01263,-1.0748 -6.58655,-1.77087 -1.5531,-0.68685 -1.75961,-0.62039 -2.622,0.84387 l -0.4366,0.74129 1.2005,0.39874 c 2.66501,0.88518 5.00029,1.06893 7.72558,0.60788 z m -167.91707,-6.58901 0.79308,-0.15861 -0.93665,-0.95922 c -1.02937,-1.05418 -1.39306,-1.12396 -3.12253,-0.59912 -0.64289,0.19509 -2.09607,0.49368 -3.2293,0.66354 l -2.0604,0.30883 1.36624,0.43642 c 1.40539,0.44893 5.58908,0.62825 7.18956,0.30816 z m 171.16671,-0.30816 1.36624,-0.43642 -2.08998,-0.31316 c -1.14949,-0.17223 -2.75378,-0.51974 -3.56508,-0.77225 l -1.4751,-0.4591 -1.12186,1.03409 c -1.09005,1.00478 -1.10517,1.03877 -0.53363,1.19909 1.26848,0.35583 6.02172,0.19422 7.41941,-0.25225 z m -190.43107,-45.11592 c 1.41886,-8.50969 4.22144,-14.81249 9.08495,-20.43142 7.53117,-8.70093 18.47291,-12.49756 28.57577,-9.91538 7.04821,1.80145 12.58325,5.20857 19.02919,11.71353 l 3.50375,3.53583 2.08541,-1.72568 c 7.58426,-6.27594 18.61566,-17.52121 23.6477,-24.10617 1.71118,-2.23926 1.76065,-2.05771 -1.22987,-4.51426 -3.16342,-2.59859 -2.80489,-2.45685 -4.3414,-1.71638 -3.49416,1.68387 -8.19661,4.66658 -11.52843,7.31232 -3.94534,3.13294 -8.39134,8.1087 -10.35616,11.59019 -0.41218,0.73033 -0.78956,1.28771 -0.83864,1.23864 -0.19392,-0.19392 1.37444,-4.16875 2.52347,-6.39547 3.04708,-5.90497 8.45492,-11.40934 15.38395,-15.65855 l 2.15983,-1.32451 -1.69938,-0.86225 c -0.93466,-0.47424 -2.69976,-1.2985 -3.92244,-1.8317 l -2.22306,-0.96944 -1.99986,0.99186 c -3.23994,1.60688 -6.44625,4.07001 -10.20587,7.84029 -3.74114,3.75175 -5.92979,6.62829 -7.90504,10.38955 -0.66365,1.26372 -1.24325,2.33699 -1.288,2.38504 -0.17056,0.18313 0.63617,-2.95684 1.14792,-4.46799 0.78051,-2.30476 2.74638,-6.28845 4.09004,-8.28814 3.11321,-4.63325 5.98318,-7.38045 9.89211,-9.46897 l 1.46765,-0.78415 -1.33818,-0.29194 c -2.30461,-0.50278 -6.47498,-0.99596 -8.4646,-1.00102 l -1.90987,-0.005 -1.94044,1.46344 c -5.33627,4.0245 -11.32808,11.80237 -13.65672,17.72756 -0.36276,0.92306 -0.69492,1.64295 -0.73813,1.59974 -0.0432,-0.0432 0.0333,-1.0779 0.17002,-2.29932 0.68212,-6.094 3.22724,-11.26629 7.82431,-15.90088 l 2.28136,-2.29998 -0.8979,0.12757 c -1.51692,0.21551 -6.0589,1.24615 -7.87432,1.78681 -1.44144,0.42928 -2.00996,0.77632 -3.50084,2.13701 -4.65559,4.24908 -8.757,10.5061 -10.71895,16.35259 -0.40387,1.20352 -0.81733,2.26546 -0.9188,2.35987 -0.38816,0.36115 0.11545,-5.57743 0.62569,-7.3782 0.89929,-3.17378 2.69515,-6.285 5.22671,-9.05493 0.70611,-0.7726 1.20775,-1.40473 1.11475,-1.40473 -0.37684,0 -5.63036,2.82889 -7.95399,4.28302 l -2.48407,1.55455 -1.14208,2.2873 c -1.57528,3.15489 -3.09514,7.09556 -3.83514,9.94364 -0.34205,1.3165 -0.66718,2.43891 -0.7225,2.49423 -0.25112,0.25112 -0.44138,-2.47336 -0.3155,-4.51794 0.0967,-1.57059 0.36628,-2.92207 0.88536,-4.43842 l 0.74633,-2.18022 -1.20263,1.08127 c -2.9615,2.66264 -3.67152,3.67403 -4.97144,7.08162 -1.27348,3.33828 -2.48377,7.57507 -2.48377,8.69477 0,0.50063 -0.0662,0.5773 -0.2982,0.34531 -0.20105,-0.20105 -0.3022,-1.38507 -0.31051,-3.63438 l -0.0123,-3.33618 -1.39405,2.15636 c -4.69349,7.25998 -7.58976,15.16238 -9.09294,24.80979 -0.32618,2.09345 -0.42093,4.46971 -0.43056,10.79873 -0.007,4.46305 0.058,8.18505 0.14412,8.27111 0.0861,0.0861 0.98033,0.29462 1.98725,0.46347 l 1.83078,0.30701 0.152,-6.21825 c 0.0965,-3.94853 0.30317,-7.12496 0.56617,-8.70232 z m 207.04637,14.14577 c 0.0832,-0.0832 0.1466,-3.74712 0.14096,-8.14212 -0.008,-6.05344 -0.10839,-8.65547 -0.41499,-10.73184 -1.39908,-9.47518 -4.39828,-17.70446 -9.11142,-25.0002 l -1.39228,-2.1552 -0.0165,3.33921 c -0.01,1.95323 -0.12351,3.44622 -0.27432,3.59703 -0.17814,0.17815 -0.30285,-0.11096 -0.40356,-0.9356 -0.20816,-1.70449 -1.24497,-5.12225 -2.57279,-8.48103 -1.20278,-3.04249 -2.00174,-4.14902 -4.835,-6.69637 l -1.22855,-1.10457 0.49592,1.33409 c 1.12745,3.03299 1.60851,7.46602 1.02087,9.40734 l -0.18798,0.62101 -0.18223,-0.74522 c -1.04227,-4.26243 -2.03148,-7.01976 -4.10774,-11.44995 l -1.17508,-2.50731 -2.20918,-1.44016 c -2.10574,-1.37273 -8.00066,-4.59935 -8.40285,-4.59935 -0.10481,0 0.39881,0.64276 1.11914,1.42834 1.71073,1.86571 3.72663,4.99258 4.52421,7.0175 0.82749,2.10086 1.41975,5.29016 1.41975,7.64526 0,1.03236 -0.0679,1.80909 -0.15095,1.72606 -0.083,-0.083 -0.4814,-1.13565 -0.88527,-2.33917 -1.97193,-5.87624 -6.03966,-12.08188 -10.71895,-16.35258 -1.49087,-1.3607 -2.05939,-1.70773 -3.50084,-2.13702 -1.81685,-0.54108 -6.35718,-1.57122 -7.8779,-1.78739 l -0.90148,-0.12815 2.27273,2.27727 c 4.98058,4.99053 7.1956,9.78091 7.94466,17.1817 0.10481,1.03552 0.0815,1.13878 -0.14034,0.62101 -1.45652,-3.39991 -3.45457,-7.03051 -5.17951,-9.41155 -2.47888,-3.42175 -6.33068,-7.47703 -9.04404,-9.52179 l -1.99957,-1.50686 -3.22929,0.15952 c -1.77611,0.0877 -4.34712,0.38277 -5.71336,0.65561 -1.36624,0.27284 -2.53996,0.49899 -2.60828,0.50255 -0.0683,0.004 0.5465,0.36924 1.36624,0.81263 2.31087,1.24992 3.8301,2.37585 5.62012,4.16517 4.0861,4.08449 7.42357,9.92379 9.06882,15.86697 0.31896,1.15216 0.54654,2.12821 0.50576,2.169 -0.0408,0.0408 -0.60029,-0.95778 -1.24332,-2.21905 -3.66811,-7.19472 -11.8738,-15.3801 -18.62711,-18.58102 -1.37738,-0.65285 -1.49597,-0.66868 -2.48407,-0.33148 -0.57069,0.19475 -2.36503,0.99686 -3.98741,1.78245 l -2.94979,1.42836 2.54639,1.58492 c 6.92295,4.30895 12.26009,9.89265 15.33792,16.04648 1.03867,2.07671 2.38585,5.58478 2.21161,5.75902 -0.0556,0.0556 -0.43583,-0.49079 -0.84486,-1.21429 -3.3796,-5.97786 -10.4683,-12.51912 -18.56803,-17.13407 -3.68424,-2.09915 -4.43926,-2.42173 -4.97734,-2.12658 -0.69949,0.38367 -3.83758,2.97663 -4.67524,3.86308 l -0.70991,0.75128 1.48613,1.94569 c 4.47373,5.85717 15.0585,16.80197 21.99737,22.74562 l 3.68156,3.15351 3.52225,-3.56779 c 6.41831,-6.5013 11.97741,-9.92545 19.04769,-11.73254 13.0944,-3.34678 26.90533,3.93963 33.83029,17.84829 3.0697,6.16542 4.42439,13.08033 4.42439,22.58375 v 4.87173 l 1.89767,-0.33 c 1.04372,-0.18149 1.96572,-0.39804 2.04888,-0.4812 z m -150.06899,-19.07739 c 0.18348,-0.11339 0.0811,-0.63238 -0.31924,-1.61749 -0.32418,-0.79779 -0.72324,-2.17689 -0.88682,-3.06466 -0.25414,-1.3793 -0.23858,-1.7868 0.10699,-2.80101 l 0.40441,-1.18688 -0.71594,-0.89979 c -1.32141,-1.66073 -6.83671,-6.88329 -8.34239,-7.89958 -1.86275,-1.25731 -4.9284,-2.81229 -5.54444,-2.81229 -0.70811,0 -3.4296,1.8583 -5.22204,3.56574 -2.6126,2.4887 -4.683,6.07514 -6.10414,10.57385 -0.35314,1.11789 -0.64207,2.12209 -0.64207,2.23155 0,0.10947 1.31345,0.26688 2.91878,0.3498 3.39876,0.17555 5.27369,0.62668 7.51432,1.80804 1.19224,0.62861 2.45944,1.01216 4.84393,1.46613 2.81354,0.53566 3.77576,0.60444 7.4739,0.53418 2.33453,-0.0444 4.36617,-0.15576 4.51475,-0.24759 z m 100.43772,-0.31493 c 2.74591,-0.50391 3.88806,-0.8366 5.05412,-1.47218 2.09276,-1.14068 4.0046,-1.59796 7.41775,-1.77418 l 2.93038,-0.1513 -0.16151,-0.77024 c -0.32045,-1.5282 -2.12949,-6.01721 -3.15802,-7.83644 -0.57793,-1.02222 -1.82322,-2.67692 -2.76732,-3.67711 -1.80236,-1.90946 -5.06616,-4.28532 -5.88689,-4.28532 -0.63038,0 -3.67499,1.5388 -5.56215,2.81121 -1.47189,0.99242 -7.68188,6.88509 -8.5893,8.15042 -0.44399,0.6191 -0.44729,0.71381 -0.0641,1.83826 0.34509,1.01276 0.36061,1.42076 0.10654,2.79966 -0.16358,0.88777 -0.56551,2.27391 -0.89318,3.0803 -0.65355,1.6084 -0.65132,1.61235 0.99426,1.76328 3.45878,0.31725 7.16399,0.15042 10.57947,-0.47636 z"
               id="path1"
               sodipodi:nodetypes="cssssscssssssscssssccssssssssssssssssssssssscsssssscssssssssssssscssssssssssssccssssssssssssssssssccssssscscsssssscsssssscsssscsssscssssssssscsscsssssccccscsscsssssscccssscsssscccsssssssscssssssssssssscsssscssssscsssssssssssssscssssscsssssssscsssscsssscsssssssscssssscsssssssscccsssssccscsssscssscssscsscccsscsscsscssccsscssssssssssscssssssssssssscssscssssssssssssscssssssssssssssssscscssscssssssssssssscssscsssssssssssssssccsscsssscssscssccsssscsssssssssssssssssssssscssssscssssscsscccsscsssssssssssssssccssssscssssssscsccccssssssscsssccssssscssssssssccsscccsscsscssssssssccscsssscsssssscssssssscssscsssssssssssssscsssssscsssssscssscssssssssscssscssscssscsscssscssscssssssssscsscssssssscsccssssscssssssssscssssscssssscsscsscsccscsscssssscsscsscsssssssssscssssscssssssssssscssssssscsscsssscssssssscsssssssssssssscssssssssssss" /></g></g></g></g></g></svg>
