<?xml version="1.0" encoding="UTF-8" standalone="no"?>
<!-- Created with Inkscape (http://www.inkscape.org/) -->

<svg
   width="105.83334mm"
   height="105.83334mm"
   viewBox="0 0 105.83333 105.83333"
   version="1.1"
   id="svg1"
   xml:space="preserve"
   inkscape:version="1.4.2 (ebf0e940d0, 2025-05-08)"
   sodipodi:docname="north_carolina.svg"
   inkscape:export-filename="../pngs/charlotte.png"
   inkscape:export-xdpi="96"
   inkscape:export-ydpi="96"
   xmlns:inkscape="http://www.inkscape.org/namespaces/inkscape"
   xmlns:sodipodi="http://sodipodi.sourceforge.net/DTD/sodipodi-0.dtd"
   xmlns="http://www.w3.org/2000/svg"
   xmlns:svg="http://www.w3.org/2000/svg"><sodipodi:namedview
     id="namedview1"
     pagecolor="#ffffff"
     bordercolor="#000000"
     borderopacity="0.25"
     inkscape:showpageshadow="2"
     inkscape:pageopacity="0.0"
     inkscape:pagecheckerboard="0"
     inkscape:deskcolor="#d1d1d1"
     inkscape:document-units="mm"
     inkscape:zoom="0.85937378"
     inkscape:cx="356.07323"
     inkscape:cy="365.38234"
     inkscape:window-width="1920"
     inkscape:window-height="1011"
     inkscape:window-x="0"
     inkscape:window-y="32"
     inkscape:window-maximized="1"
     inkscape:current-layer="layer1"
     showgrid="false"
     showguides="true" /><defs
     id="defs1" /><g
     inkscape:label="Capa 1"
     inkscape:groupmode="layer"
     id="layer1"><g
       id="g1"
       transform="matrix(1.0183747,0,0,1.0183747,-0.97221622,-0.97233311)"><path
         id="path6-5"
         style="font-size:77.8031px;line-height:1;font-family:'Western Brother Personal Use';-inkscape-font-specification:'Western Brother Personal Use';text-align:center;letter-spacing:1.08368px;word-spacing:0px;text-anchor:middle;fill:none;fill-opacity:1;stroke:#13294b;stroke-width:11.978;stroke-dasharray:none;stroke-opacity:1"
         d="m 22.540699,27.550801 c -1.687576,0.03517 -3.340183,0.03517 -5.027759,0.07034 -1.687576,-0.03517 -3.375094,-0.03489 -5.06267,-0.03489 -0.949261,-0.03517 -4.7111403,-0.105604 -3.6212479,1.792921 0.4218945,0.562529 0.9491834,1.054704 1.5820239,1.371126 0,2.636842 0.140807,6.257824 0.316597,10.898656 0.210947,5.414308 0.351507,9.457639 0.351507,12.199956 0,2.566517 -0.140794,6.433715 -0.386898,11.566759 -0.210947,4.113471 -0.31635,7.383566 -0.351507,9.844609 -0.5976836,0.316422 -1.0898284,0.738059 -1.5117229,1.26543 -1.0898924,1.828208 2.6719869,1.758021 3.6212479,1.758021 1.687576,-0.03517 3.375094,-0.03536 5.06267,-0.03536 1.687576,0 3.340183,2.22e-4 5.027759,0.03536 0.949262,0 4.711141,0.07024 3.621248,-1.758021 -0.421894,-0.527371 -0.984573,-1.019786 -1.617414,-1.336209 0,-2.671992 -0.105431,-6.222712 -0.210905,-10.687753 -0.140631,-5.484625 -0.246294,-9.598244 -0.246294,-12.340551 0,-0.281265 0.105417,-0.562371 0.281206,-0.77332 0.210946,0.105474 0.38687,0.246023 0.527501,0.421813 3.339995,4.289262 5.836141,7.523744 7.453402,9.703523 5.062728,6.715147 8.578542,11.391442 10.582539,14.028276 -0.421894,0.246106 -0.773261,0.597482 -1.054524,0.984221 -1.089893,1.828208 2.671987,1.758021 3.621249,1.758021 1.652419,-0.03517 3.339703,-0.03536 5.02728,-0.03536 1.687576,0 3.375094,2.22e-4 5.06267,0.03536 0.949262,0 4.711621,0.07024 3.621728,-1.758021 -0.562526,-0.632845 -1.266,-1.195521 -2.004314,-1.617409 -0.07032,-0.03517 -0.105199,-0.07005 -0.175514,-0.105214 v -7.917303 c 0.890157,1.477665 1.944416,2.865171 3.176484,4.155449 4.57052,4.816622 10.547581,7.242498 17.930728,7.242498 6.574515,0 11.953537,-2.074258 16.13732,-6.222887 0.49221,0.457054 1.054645,0.773522 1.652327,0.949313 2.144628,0.421887 0.843921,-3.094045 0.527501,-4.008144 -0.562525,-1.582103 -1.089802,-3.164455 -1.652326,-4.746556 -0.527368,-1.617261 -1.054657,-3.199363 -1.582025,-4.781465 -0.281262,-0.914108 -1.441373,-4.500107 -2.882843,-2.882847 -0.421895,0.738318 -0.738609,1.582333 -0.914399,2.426126 -0.31642,0.878941 -0.668034,1.792764 -1.019612,2.636547 -0.105473,0.105473 -0.210645,0.175984 -0.316118,0.246301 -1.125051,0.949266 -2.355552,1.757882 -3.691551,2.390727 -1.828207,0.878941 -3.832468,1.300819 -5.836465,1.300819 -3.234521,0.105474 -6.328414,-1.301032 -8.33241,-3.797243 -1.968839,-2.461043 -2.953405,-5.554876 -2.847932,-8.683922 -0.105473,-3.129046 0.91425,-6.15233 2.847932,-8.578226 2.039154,-2.496201 5.133047,-3.867317 8.33241,-3.761853 2.003997,0 4.008028,0.492175 5.801076,1.371127 1.371156,0.703151 2.601643,1.546665 3.761852,2.566239 0.210946,0.140633 0.351712,0.281181 0.527501,0.421813 0.281263,0.668002 0.527212,1.37145 0.773317,2.07461 0.17579,0.843784 0.492259,1.687336 0.949311,2.425646 1.406313,1.617259 2.566669,-1.96874 2.847931,-2.882838 0.527368,-1.582102 1.054657,-3.164204 1.582025,-4.781465 0.562524,-1.582102 1.089801,-3.163972 1.652326,-4.746075 0.31642,-0.914108 1.617127,-4.430041 -0.527501,-4.008144 -0.527368,0.140632 -1.05444,0.42198 -1.476333,0.808709 -4.2541,-3.867355 -9.914693,-5.801084 -16.981418,-5.801084 -7.031567,0 -12.832709,2.531045 -17.403228,7.558614 -0.968713,1.06247 -1.832297,2.203212 -2.597332,3.400307 0.127353,-3.401075 0.229078,-6.339153 0.229078,-8.462969 0.597683,-0.351572 1.125465,-0.808367 1.512202,-1.335737 1.089893,-1.898525 -2.672466,-1.82832 -3.621728,-1.82832 -1.687576,0.03517 -3.375094,0.03517 -5.06267,0.07034 -1.687577,-0.03517 -3.339704,-0.03489 -5.02728,-0.03489 -0.949262,-0.03517 -4.711142,-0.105604 -3.621249,1.79292 0.421894,0.562529 0.984096,1.054454 1.616937,1.406034 0,2.496211 0.140794,5.977124 0.386898,10.477324 0.281263,4.992412 0.421809,8.718812 0.421809,11.179864 0,1.863366 -0.175458,2.777632 -0.456721,2.777632 -0.421894,0 -0.949429,-0.351598 -1.547113,-1.089907 -2.390733,-3.164204 -4.14851,-5.519783 -5.343876,-7.172202 L 24.966342,30.503946 c 0.457052,-0.281256 0.879185,-0.667771 1.195605,-1.124826 1.089893,-1.898524 -2.671986,-1.828319 -3.621248,-1.828319 z" /><path
         id="path6-6"
         style="font-size:77.8031px;line-height:1;font-family:'Western Brother Personal Use';-inkscape-font-specification:'Western Brother Personal Use';text-align:center;letter-spacing:1.08368px;word-spacing:0px;text-anchor:middle;fill:none;fill-opacity:1;stroke:#ffffff;stroke-width:4.826;stroke-dasharray:none"
         d="m 22.540699,27.550801 c -1.687576,0.03517 -3.340183,0.03517 -5.027759,0.07034 -1.687576,-0.03517 -3.375094,-0.03489 -5.06267,-0.03489 -0.949261,-0.03517 -4.7111403,-0.105604 -3.6212479,1.792921 0.4218945,0.562529 0.9491834,1.054704 1.5820239,1.371126 0,2.636842 0.140807,6.257824 0.316597,10.898656 0.210947,5.414308 0.351507,9.457639 0.351507,12.199956 0,2.566517 -0.140794,6.433715 -0.386898,11.566759 -0.210947,4.113471 -0.31635,7.383566 -0.351507,9.844609 -0.5976836,0.316422 -1.0898284,0.738059 -1.5117229,1.26543 -1.0898924,1.828208 2.6719869,1.758021 3.6212479,1.758021 1.687576,-0.03517 3.375094,-0.03536 5.06267,-0.03536 1.687576,0 3.340183,2.22e-4 5.027759,0.03536 0.949262,0 4.711141,0.07024 3.621248,-1.758021 -0.421894,-0.527371 -0.984573,-1.019786 -1.617414,-1.336209 0,-2.671992 -0.105431,-6.222712 -0.210905,-10.687753 -0.140631,-5.484625 -0.246294,-9.598244 -0.246294,-12.340551 0,-0.281265 0.105417,-0.562371 0.281206,-0.77332 0.210946,0.105474 0.38687,0.246023 0.527501,0.421813 3.339995,4.289262 5.836141,7.523744 7.453402,9.703523 5.062728,6.715147 8.578542,11.391442 10.582539,14.028276 -0.421894,0.246106 -0.773261,0.597482 -1.054524,0.984221 -1.089893,1.828208 2.671987,1.758021 3.621249,1.758021 1.652419,-0.03517 3.339703,-0.03536 5.02728,-0.03536 1.687576,0 3.375094,2.22e-4 5.06267,0.03536 0.949262,0 4.711621,0.07024 3.621728,-1.758021 -0.562526,-0.632845 -1.266,-1.195521 -2.004314,-1.617409 -0.07032,-0.03517 -0.105199,-0.07005 -0.175514,-0.105214 v -7.917303 c 0.890157,1.477665 1.944416,2.865171 3.176484,4.155449 4.57052,4.816622 10.547581,7.242498 17.930728,7.242498 6.574515,0 11.953537,-2.074258 16.13732,-6.222887 0.49221,0.457054 1.054645,0.773522 1.652327,0.949313 2.144628,0.421887 0.843921,-3.094045 0.527501,-4.008144 -0.562525,-1.582103 -1.089802,-3.164455 -1.652326,-4.746556 -0.527368,-1.617261 -1.054657,-3.199363 -1.582025,-4.781465 -0.281262,-0.914108 -1.441373,-4.500107 -2.882843,-2.882847 -0.421895,0.738318 -0.738609,1.582333 -0.914399,2.426126 -0.31642,0.878941 -0.668034,1.792764 -1.019612,2.636547 -0.105473,0.105473 -0.210645,0.175984 -0.316118,0.246301 -1.125051,0.949266 -2.355552,1.757882 -3.691551,2.390727 -1.828207,0.878941 -3.832468,1.300819 -5.836465,1.300819 -3.234521,0.105474 -6.328414,-1.301032 -8.33241,-3.797243 -1.968839,-2.461043 -2.953405,-5.554876 -2.847932,-8.683922 -0.105473,-3.129046 0.91425,-6.15233 2.847932,-8.578226 2.039154,-2.496201 5.133047,-3.867317 8.33241,-3.761853 2.003997,0 4.008028,0.492175 5.801076,1.371127 1.371156,0.703151 2.601643,1.546665 3.761852,2.566239 0.210946,0.140633 0.351712,0.281181 0.527501,0.421813 0.281263,0.668002 0.527212,1.37145 0.773317,2.07461 0.17579,0.843784 0.492259,1.687336 0.949311,2.425646 1.406313,1.617259 2.566669,-1.96874 2.847931,-2.882838 0.527368,-1.582102 1.054657,-3.164204 1.582025,-4.781465 0.562524,-1.582102 1.089801,-3.163972 1.652326,-4.746075 0.31642,-0.914108 1.617127,-4.430041 -0.527501,-4.008144 -0.527368,0.140632 -1.05444,0.42198 -1.476333,0.808709 -4.2541,-3.867355 -9.914693,-5.801084 -16.981418,-5.801084 -7.031567,0 -12.832709,2.531045 -17.403228,7.558614 -0.968713,1.06247 -1.832297,2.203212 -2.597332,3.400307 0.127353,-3.401075 0.229078,-6.339153 0.229078,-8.462969 0.597683,-0.351572 1.125465,-0.808367 1.512202,-1.335737 1.089893,-1.898525 -2.672466,-1.82832 -3.621728,-1.82832 -1.687576,0.03517 -3.375094,0.03517 -5.06267,0.07034 -1.687577,-0.03517 -3.339704,-0.03489 -5.02728,-0.03489 -0.949262,-0.03517 -4.711142,-0.105604 -3.621249,1.79292 0.421894,0.562529 0.984096,1.054454 1.616937,1.406034 0,2.496211 0.140794,5.977124 0.386898,10.477324 0.281263,4.992412 0.421809,8.718812 0.421809,11.179864 0,1.863366 -0.175458,2.777632 -0.456721,2.777632 -0.421894,0 -0.949429,-0.351598 -1.547113,-1.089907 -2.390733,-3.164204 -4.14851,-5.519783 -5.343876,-7.172202 L 24.966342,30.503946 c 0.457052,-0.281256 0.879185,-0.667771 1.195605,-1.124826 1.089893,-1.898524 -2.671986,-1.828319 -3.621248,-1.828319 z" /><path
         id="path6"
         style="font-size:77.8031px;line-height:1;font-family:'Western Brother Personal Use';-inkscape-font-specification:'Western Brother Personal Use';text-align:center;letter-spacing:1.08368px;word-spacing:0px;text-anchor:middle;fill:#7bafd4;fill-opacity:1;stroke-width:6.62607"
         d="m 22.540699,27.550847 c -1.687576,0.03517 -3.340183,0.03517 -5.027759,0.07034 -1.687576,-0.03517 -3.375094,-0.03489 -5.06267,-0.03489 -0.949261,-0.03517 -4.7111403,-0.105604 -3.6212479,1.79292 0.4218945,0.562528 0.9491834,1.054704 1.5820239,1.371126 0,2.636843 0.140807,6.257824 0.316597,10.898656 0.210947,5.414308 0.351507,9.457639 0.351507,12.199955 0,2.566518 -0.140794,6.433716 -0.386898,11.56676 -0.210947,4.113471 -0.31635,7.383566 -0.351507,9.84461 -0.5976836,0.316422 -1.0898284,0.738058 -1.5117229,1.265429 -1.0898924,1.828208 2.6719869,1.758022 3.6212479,1.758022 1.687576,-0.03517 3.375094,-0.03536 5.06267,-0.03536 1.687576,0 3.340183,2.22e-4 5.027759,0.03536 0.949262,0 4.711141,0.07024 3.621248,-1.758022 -0.421894,-0.527371 -0.984573,-1.019786 -1.617414,-1.336208 0,-2.671992 -0.105431,-6.222712 -0.210905,-10.687754 -0.140631,-5.484625 -0.246294,-9.598243 -0.246294,-12.340552 0,-0.281264 0.105417,-0.562371 0.281206,-0.773318 0.210946,0.105473 0.38687,0.246023 0.527501,0.421813 3.339995,4.28926 5.836141,7.523743 7.453402,9.703523 5.062728,6.715146 8.578542,11.391442 10.582539,14.028275 -0.421894,0.246106 -0.773261,0.597482 -1.054524,0.984221 -1.089893,1.828208 2.671987,1.758022 3.621249,1.758022 1.652419,-0.03517 3.339703,-0.03536 5.02728,-0.03536 1.687576,0 3.375094,2.22e-4 5.06267,0.03536 0.949262,0 4.711621,0.07024 3.621728,-1.758022 -0.562526,-0.632844 -1.266,-1.195521 -2.004314,-1.617408 -0.07032,-0.03517 -0.105199,-0.07005 -0.175514,-0.105215 v -7.917303 c 0.890157,1.477665 1.944416,2.865171 3.176484,4.155449 4.57052,4.816622 10.547581,7.242499 17.930728,7.242499 6.574515,0 11.953537,-2.074259 16.13732,-6.222888 0.49221,0.457054 1.054645,0.773523 1.652327,0.949313 2.144628,0.421887 0.843921,-3.094046 0.527501,-4.008145 -0.562525,-1.582101 -1.089802,-3.164454 -1.652326,-4.746556 -0.527368,-1.617259 -1.054657,-3.199362 -1.582025,-4.781464 -0.281262,-0.914108 -1.441373,-4.500107 -2.882843,-2.882846 -0.421895,0.738318 -0.738609,1.582332 -0.914399,2.426125 -0.31642,0.878942 -0.668034,1.792763 -1.019612,2.636547 -0.105473,0.105474 -0.210645,0.175985 -0.316118,0.2463 -1.125051,0.949268 -2.355552,1.757884 -3.691551,2.390728 -1.828207,0.878941 -3.832468,1.300819 -5.836465,1.300819 -3.234521,0.105474 -6.328414,-1.301032 -8.33241,-3.797243 -1.968839,-2.461043 -2.953405,-5.554876 -2.847932,-8.683922 -0.105473,-3.129046 0.91425,-6.15233 2.847932,-8.578225 2.039154,-2.496202 5.133047,-3.867318 8.33241,-3.761853 2.003997,0 4.008028,0.492175 5.801076,1.371126 1.371156,0.703151 2.601643,1.546666 3.761852,2.566239 0.210946,0.140632 0.351712,0.281181 0.527501,0.421813 0.281263,0.668003 0.527212,1.371451 0.773317,2.07461 0.17579,0.843785 0.492259,1.687337 0.949311,2.425646 1.406313,1.617259 2.566669,-1.968739 2.847931,-2.882839 0.527368,-1.582101 1.054657,-3.164203 1.582025,-4.781463 0.562524,-1.582103 1.089801,-3.163973 1.652326,-4.746075 0.31642,-0.914109 1.617127,-4.430041 -0.527501,-4.008144 -0.527368,0.140632 -1.05444,0.421978 -1.476333,0.808708 -4.2541,-3.867355 -9.914693,-5.801084 -16.981418,-5.801084 -7.031567,0 -12.832709,2.531045 -17.403228,7.558615 -0.968713,1.062468 -1.832297,2.203212 -2.597332,3.400306 0.127353,-3.401074 0.229078,-6.339152 0.229078,-8.46297 0.597683,-0.35157 1.125465,-0.808365 1.512202,-1.335736 1.089893,-1.898524 -2.672466,-1.828319 -3.621728,-1.828319 -1.687576,0.03517 -3.375094,0.03517 -5.06267,0.07034 -1.687577,-0.03517 -3.339704,-0.03489 -5.02728,-0.03489 -0.949262,-0.03517 -4.711142,-0.105604 -3.621249,1.79292 0.421894,0.562529 0.984096,1.054455 1.616937,1.406034 0,2.496212 0.140794,5.977124 0.386898,10.477324 0.281263,4.992412 0.421809,8.718812 0.421809,11.179864 0,1.863367 -0.175458,2.777633 -0.456721,2.777633 -0.421894,0 -0.949429,-0.351598 -1.547113,-1.089909 -2.390733,-3.164213 -4.14851,-5.519792 -5.343876,-7.172209 L 24.966342,30.503992 c 0.457052,-0.281255 0.879185,-0.667771 1.195605,-1.124825 1.089893,-1.898525 -2.671986,-1.82832 -3.621248,-1.82832 z" /></g></g></svg>
