<?xml version="1.0" encoding="UTF-8" standalone="no"?>
<!-- Created with Inkscape (http://www.inkscape.org/) -->

<svg
   width="105.83334mm"
   height="105.83334mm"
   viewBox="0 0 105.83333 105.83333"
   version="1.1"
   id="svg1"
   xml:space="preserve"
   inkscape:version="1.4 (e7c3feb100, 2024-10-09)"
   sodipodi:docname="oklahoma.svg"
   inkscape:export-filename="../pngs/NBL.png"
   inkscape:export-xdpi="96"
   inkscape:export-ydpi="96"
   xmlns:inkscape="http://www.inkscape.org/namespaces/inkscape"
   xmlns:sodipodi="http://sodipodi.sourceforge.net/DTD/sodipodi-0.dtd"
   xmlns:xlink="http://www.w3.org/1999/xlink"
   xmlns="http://www.w3.org/2000/svg"
   xmlns:svg="http://www.w3.org/2000/svg"><sodipodi:namedview
     id="namedview1"
     pagecolor="#ffffff"
     bordercolor="#000000"
     borderopacity="0.25"
     inkscape:showpageshadow="2"
     inkscape:pageopacity="0.0"
     inkscape:pagecheckerboard="0"
     inkscape:deskcolor="#d1d1d1"
     inkscape:document-units="mm"
     inkscape:zoom="1.6952882"
     inkscape:cx="241.55185"
     inkscape:cy="226.51016"
     inkscape:window-width="1920"
     inkscape:window-height="1011"
     inkscape:window-x="0"
     inkscape:window-y="32"
     inkscape:window-maximized="1"
     inkscape:current-layer="layer1"
     showgrid="false" /><defs
     id="defs1" /><g
     inkscape:label="Capa 1"
     inkscape:groupmode="layer"
     id="layer1"><circle
       style="fill:#fdf9d8;stroke:#ffffff;stroke-width:3.1593;fill-opacity:1"
       id="path2"
       cx="52.916672"
       cy="52.916672"
       r="49.530621" /><path
       style="fill:#841617;fill-opacity:1;stroke-width:0.65099"
       d="m 20.470642,75.483612 c 0,-0.471976 1.176144,-2.612161 2.582789,-4.699798 1.33343,-1.97898 1.615226,-2.613266 1.163461,-2.618799 -0.118417,-0.0012 -0.330669,-0.07557 -0.471673,-0.164727 -0.212622,-0.134431 -0.155418,-0.266249 0.33521,-0.772449 0.606381,-0.625626 0.598982,-0.754784 -0.02414,-0.421302 -0.490758,0.262646 -1.002139,-0.204452 -0.666543,-0.608821 0.120877,-0.145647 0.176729,-0.376991 0.124116,-0.514097 -0.06096,-0.158872 0.116106,-0.374228 0.488219,-0.59378 0.655201,-0.386578 1.45237,-1.406324 2.104637,-2.692272 1.185643,-2.337496 2.235147,-3.384713 4.74867,-4.738324 0.803577,-0.432752 1.648361,-0.7333 2.394794,-0.851993 1.423969,-0.22643 1.564036,-0.277345 2.649745,-0.963177 0.481191,-0.303964 1.055618,-0.610022 1.276503,-0.680128 0.220885,-0.0701 0.804994,-0.534086 1.298017,-1.031067 0.712936,-0.718657 0.862768,-0.96371 0.732049,-1.197291 -0.154214,-0.275567 -0.177498,-0.275721 -0.377277,-0.0026 -0.186832,0.25551 -0.259963,0.181819 -0.596939,-0.6015 -0.211211,-0.490976 -0.430584,-1.285825 -0.487493,-1.766332 -0.0771,-0.65099 -0.184453,-0.894827 -0.421224,-0.956745 -0.436421,-0.114126 -0.426279,-1.386414 0.02253,-2.826492 0.199363,-0.639687 0.270692,-1.115631 0.172242,-1.149269 -0.316098,-0.107998 -0.167387,-0.376895 0.775876,-1.40293 0.591023,-0.642886 0.906835,-1.123388 0.844725,-1.285241 -0.06766,-0.176339 0.09764,-0.352358 0.520134,-0.553829 0.69659,-0.33218 0.772228,-0.504273 0.289046,-0.657628 -0.638345,-0.202605 -1.207869,-0.798712 -1.316544,-1.377999 -0.07588,-0.404514 -0.183512,-0.555062 -0.350888,-0.490832 -0.362711,0.139185 -0.308001,-0.796008 0.108364,-1.852336 0.399219,-1.012823 0.337701,-1.373755 -0.373029,-2.188603 -0.271417,-0.311178 -0.493486,-0.684567 -0.493486,-0.829753 0,-0.185593 -0.102287,-0.231511 -0.344482,-0.154641 -0.292542,0.09285 -0.344484,0.03095 -0.344484,-0.410518 0,-0.744991 0.337396,-2.214132 0.705941,-3.073909 0.362103,-0.844752 1.53542,-2.159835 2.760656,-3.094211 0.461691,-0.352091 0.839438,-0.70027 0.839438,-0.773732 0,-0.07347 -0.193236,-0.182065 -0.429413,-0.241343 -0.595922,-0.149566 -0.387523,-0.379091 0.856247,-0.943042 2.246881,-1.018784 5.76129,-1.619208 8.856314,-1.513069 1.345948,0.04615 1.724336,0.01064 1.656274,-0.155477 -0.04852,-0.118416 -0.135262,-0.331565 -0.192764,-0.473664 -0.185468,-0.458331 1.051463,-0.307004 2.190517,0.267989 1.448621,0.731262 2.526013,1.841744 2.671879,2.753939 0.07443,0.465458 0.359097,1.012465 0.821433,1.578444 1.514615,1.854145 1.650966,2.493822 0.839339,3.937673 -0.460238,0.818741 -0.464186,0.849548 -0.172241,1.343769 0.387469,0.655935 0.372978,1.209244 -0.04568,1.744479 -0.425994,0.5446 -0.425994,0.813902 0,1.894655 0.484472,1.229113 0.4537,2.613556 -0.08231,3.703189 -0.517675,1.052363 -0.521023,1.143453 -0.08738,2.377225 0.537999,1.530703 0.187799,2.212779 -1.448439,2.821079 -1.202752,0.447145 -1.655303,1.259645 -0.523473,0.939831 0.626587,-0.177052 0.934265,-0.08155 0.941397,0.29221 0.0077,0.403527 0.338781,0.792114 0.94185,1.105441 0.284197,0.147656 0.70463,0.469602 0.934291,0.715435 0.281216,0.301016 0.597544,0.446969 0.968733,0.446969 0.303141,0 0.865245,0.110813 1.249119,0.246251 0.637404,0.22489 0.754512,0.217419 1.349885,-0.08612 0.392323,-0.200017 1.002683,-0.332372 1.532744,-0.332372 0.494801,0 1.667715,-0.238467 2.676383,-0.544138 2.248911,-0.681518 3.513601,-0.701671 5.349884,-0.08525 2.708944,0.909363 4.253036,2.186871 5.711374,4.725314 2.773184,4.827121 3.409306,6.375728 3.45136,8.402194 l 0.02884,1.38855 0.971545,1.10895 c 2.811487,3.209106 4.767871,6.438184 5.562139,9.180497 0.243151,0.839512 0.442093,1.556465 0.442093,1.593232 0,0.03675 -0.151504,0.0669 -0.336678,0.0669 -0.254981,0 -0.362947,-0.156732 -0.444927,-0.645904 -0.395477,-2.35977 -1.611944,-4.639716 -3.974651,-7.449433 -2.122126,-2.523613 -3.440208,-3.667298 -4.671792,-4.053664 -0.744299,-0.233499 -1.061776,-0.416627 -1.033447,-0.596125 0.05727,-0.362927 -0.748599,-0.449613 -0.998803,-0.107439 -0.154196,0.210877 -0.317136,0.236258 -0.739353,0.115168 -0.335715,-0.09628 -0.580291,-0.09266 -0.643442,0.0096 -0.05602,0.09066 -0.359598,0.116487 -0.674592,0.0574 -0.480986,-0.09023 -0.591043,-0.04969 -0.687141,0.253076 -0.143762,0.452955 -0.438173,0.454127 -1.318049,0.0054 -0.484811,-0.247333 -0.665771,-0.435066 -0.595611,-0.617903 0.05544,-0.144447 0.149273,-0.565889 0.208543,-0.936538 0.09619,-0.601563 0.06944,-0.673908 -0.249129,-0.673908 -0.196291,0 -0.572602,0.185546 -0.836247,0.412323 -0.376667,0.323996 -0.479353,0.560881 -0.479353,1.105811 0,0.925951 0.376029,1.308118 2.059067,2.092672 1.78855,0.833738 2.061133,1.139539 1.92181,2.15601 -0.05866,0.427963 -0.153466,0.964634 -0.210682,1.192599 -0.08306,0.33095 -0.02298,0.439432 0.298112,0.538271 0.921935,0.283794 3.566732,1.671745 3.937371,2.066271 0.497298,0.529348 0.310789,0.541085 -1.296095,0.08155 -1.507293,-0.431048 -2.467182,-0.451659 -2.618916,-0.05625 -0.170773,0.44503 0.787652,1.131695 2.855845,2.046077 1.00648,0.444985 2.101246,0.968004 2.432815,1.162267 1.30042,0.761912 2.411382,1.539332 2.411382,1.687404 0,0.08552 -0.620069,0.1555 -1.377934,0.1555 -1.229592,0 -1.377933,-0.03458 -1.377933,-0.321057 0,-0.723622 -2.2123,-1.74584 -3.77836,-1.74584 -1.379074,0 -1.813241,0.585709 -1.308692,1.765475 0.121573,0.284269 -0.27397,0.301422 -6.951416,0.301422 -6.519671,0 -7.104246,-0.02394 -7.382436,-0.302113 -0.32192,-0.321961 -6.969483,-4.348445 -7.17904,-4.348445 -0.06829,0 -0.09878,1.046482 -0.06775,2.325504 l 0.05641,2.325507 -0.527222,-2.46e-4 c -0.486096,-2.27e-4 -0.542776,-0.06404 -0.726614,-0.818393 -0.237232,-0.973408 -0.486386,-2.494455 -0.641868,-3.918491 -0.06206,-0.568393 -0.213255,-1.190468 -0.33599,-1.382379 -0.243551,-0.380829 -1.401808,-1.069975 -1.549721,-0.922064 -0.35924,0.359236 0.865082,5.437553 1.544938,6.408186 0.140636,0.200785 0.255701,0.425328 0.255701,0.49898 0,0.07369 -6.898267,0.133914 -15.329482,0.133914 -13.622912,0 -15.329482,-0.02926 -15.329482,-0.262662 z m 42.799819,-0.939609 c 0.238022,-0.377047 0.431684,-0.783962 0.430362,-0.904266 -0.0012,-0.120297 -1.484927,-0.993808 -3.296899,-1.941138 -7.865474,-4.112193 -10.881116,-6.354786 -13.508626,-10.045743 -0.02183,-0.03066 -0.376305,0.188536 -0.787731,0.487105 L 45.35952,62.682812 45.25159,61.678983 C 45.119586,60.45125 44.955234,60.025355 44.657542,60.13959 44.498267,60.20071 44.395876,59.985432 44.31408,59.417463 44.24999,58.9724 44.091979,58.34966 43.962958,58.033597 43.741296,57.49059 43.712089,57.47522 43.432743,57.754565 43.153399,58.033912 43.126495,58.003896 42.944332,57.209657 42.838301,56.747362 42.60201,56.097839 42.419241,55.766275 l -0.332306,-0.602845 -0.0521,0.623145 c -0.12696,1.518492 0.942161,4.313224 2.42608,6.341883 1.657199,2.265552 4.907301,5.209009 8.132744,7.365425 2.713826,1.814369 9.602812,5.735665 10.076493,5.735665 0.09215,0 0.362291,-0.308491 0.600312,-0.685545 z M 45.309446,72.485478 c -0.02754,-0.124364 -0.09605,-0.856091 -0.152257,-1.626065 -0.134412,-1.841503 -0.290334,-2.126501 -0.671666,-1.22771 -0.491941,1.1595 -0.517239,2.046332 -0.07605,2.665926 0.375368,0.527152 1.004181,0.658405 0.899973,0.187849 z M 64.68307,70.923517 c 0.372748,-0.766347 1.2799,-4.601915 1.323086,-5.594191 0.01888,-0.433688 -0.07872,-0.56101 -0.630809,-0.822909 -0.359227,-0.170411 -0.696386,-0.422538 -0.749244,-0.560283 -0.07345,-0.191407 -0.175323,-0.208051 -0.432146,-0.0706 -0.184823,0.09892 -0.860607,0.223822 -1.501741,0.277572 -0.970223,0.08134 -1.192596,0.158966 -1.326094,0.462907 -0.146536,0.333623 -0.305678,0.367219 -1.841741,0.388802 -1.004973,0.01412 -1.779918,0.105432 -1.926383,0.226986 -0.13477,0.11185 -0.804197,0.373404 -1.487614,0.581229 -1.568557,0.476995 -1.792516,0.77617 -1.112429,1.486026 1.228358,1.282133 7.654563,4.527207 8.791392,4.43944 0.425948,-0.03287 0.582954,-0.176055 0.893723,-0.814975 z M 35.305263,68.770416 c 0.378789,-1.502917 0.408125,-2.325176 0.08296,-2.325176 -0.350044,0 -0.819683,1.299137 -0.924718,2.558002 -0.0828,0.992405 -0.06208,1.088321 0.223313,1.033364 0.230793,-0.04446 0.395525,-0.381721 0.618445,-1.26619 z m 7.728999,0.894781 c 0,-0.123675 0.503806,-1.262623 1.119569,-2.530992 0.615762,-1.268369 1.119568,-2.429622 1.119568,-2.580561 0,-0.33341 -1.016542,-1.561402 -1.026447,-1.239957 -0.0038,0.124933 -0.500613,1.291279 -1.103916,2.591876 -1.412448,3.044943 -1.393701,2.976107 -0.960497,3.526839 0.379902,0.482964 0.851723,0.611926 0.851723,0.232795 z M 31.334525,68.713663 c 0.111396,-0.347675 0.403841,-0.996016 0.649876,-1.440761 0.484951,-0.876627 0.39862,-1.276421 -0.155889,-0.721912 -0.385429,0.385429 -1.388362,2.822094 -1.252235,3.04235 0.149475,0.241856 0.546469,-0.21872 0.758248,-0.879677 z m 2.384058,-0.41683 c 0.770178,-1.678384 1.006596,-2.763888 0.583828,-2.680623 -0.150644,0.02968 -0.326152,0.170206 -0.39002,0.312306 -0.06387,0.142098 -0.477727,0.98493 -0.919691,1.872959 -0.441965,0.888023 -0.761609,1.682485 -0.710322,1.765474 0.05129,0.08298 0.2487,0.150873 0.438694,0.150873 0.265161,0 0.496995,-0.330253 0.997511,-1.420989 z M 47.81396,68.9203 c 0.267141,-0.07159 0.387543,-0.233953 0.387543,-0.522589 0,-0.404292 -0.03714,-0.416967 -1.076509,-0.367459 -1.031689,0.04915 -1.078778,0.071 -1.13101,0.524947 -0.05203,0.452282 -0.02095,0.473557 0.688967,0.47131 0.408905,-0.0012 0.917861,-0.04908 1.131009,-0.106209 z M 30.629815,67.182812 c 1.101635,-1.578902 1.229896,-2.141965 0.226866,-0.995934 -0.593153,0.677719 -1.596947,2.277859 -1.600113,2.550722 -0.0036,0.302417 0.381842,-0.133876 1.373247,-1.554788 z m -1.053373,-0.561244 c 0.214234,-0.381179 0.307534,-0.693052 0.207334,-0.693052 -0.239884,0 -1.21779,1.356156 -1.21779,1.688832 0,0.386852 0.5231,-0.128648 1.010456,-0.99578 z m 18.120804,0.24657 c 0.33965,-0.209915 -0.217219,-0.595139 -0.860316,-0.595139 -0.663137,0 -1.046807,0.242369 -1.046807,0.661284 0,0.196416 0.179726,0.226619 0.865311,0.145422 0.47592,-0.05636 0.944736,-0.151571 1.041812,-0.211567 z m 2.907088,-2.963458 c 0.401847,-2.115635 0.707772,-3.205465 1.059611,-3.774751 0.201389,-0.325855 0.391718,-0.566907 0.422953,-0.535673 0.03123,0.03123 -0.01405,0.372066 -0.100627,0.757404 -0.08658,0.385338 -0.134843,1.545865 -0.107251,2.57895 0.04061,1.520576 0.09693,1.867439 0.29569,1.82112 0.74158,-0.172817 0.869883,-0.744927 0.594694,-2.651762 -0.113094,-0.783647 -0.168331,-1.579831 -0.122748,-1.769296 0.09182,-0.381631 0.360818,-0.775876 0.527877,-0.773641 0.248527,0.0034 0.341767,3.86813 0.113199,4.692131 -0.122574,0.44189 -0.09616,0.473664 0.393808,0.473664 0.707431,0 0.781604,-0.307632 0.637861,-2.645541 -0.103778,-1.687922 -0.08841,-1.877398 0.127712,-1.574372 0.397819,0.557787 0.644045,1.456588 0.644045,2.350961 0,0.724979 0.04628,0.835504 0.349887,0.835504 0.509412,0 0.574301,-0.357019 0.347191,-1.91023 -0.176524,-1.20726 -0.167311,-1.442729 0.07065,-1.805918 0.150508,-0.229705 0.385211,-0.417644 0.521562,-0.417644 0.200544,0 0.2283,0.210008 0.145271,1.099147 -0.05645,0.604531 -0.05011,1.379159 0.01409,1.721395 0.115517,0.615759 0.121146,0.619358 0.539725,0.345095 0.3977,-0.260584 0.423142,-0.371223 0.425535,-1.850577 0.0031,-1.926013 0.340704,-3.432235 1.124731,-5.01825 0.947685,-1.917077 3.177797,-4.184994 3.950611,-4.017579 0.190096,0.04118 0.05959,0.307048 -0.492543,1.003354 -1.658612,2.091737 -2.202476,3.856875 -2.237594,7.262232 -0.01236,1.199612 0.03779,2.241672 0.111474,2.31569 0.07368,0.07402 0.287889,-0.01935 0.476017,-0.207474 0.307682,-0.307681 0.324109,-0.436528 0.16349,-1.282241 -0.242717,-1.277996 0.107014,-2.920965 0.621772,-2.920965 0.190256,0 0.213707,0.398133 0.125717,2.13425 -0.13105,2.585694 -0.08625,2.772713 0.581218,2.426234 l 0.481441,-0.249916 v -2.226689 c 0,-1.224678 0.05626,-2.28311 0.125017,-2.35207 0.06876,-0.06896 0.242624,-0.02779 0.386361,0.09151 0.204946,0.170092 0.252305,0.556358 0.219464,1.79002 -0.02762,1.037636 0.03903,1.7649 0.195814,2.136513 0.221938,0.526052 0.279013,0.556058 0.861207,0.452773 0.835695,-0.148259 0.962791,-0.300729 0.652232,-0.782447 -0.664975,-1.031461 -1.021508,-3.745573 -0.572665,-4.359404 0.204497,-0.279666 0.243317,-0.185678 0.336802,0.815436 0.118295,1.266793 0.439297,2.156346 1.082388,2.999481 0.428928,0.562352 0.440124,0.565799 0.96165,0.296108 l 0.52767,-0.272868 -0.527647,-0.5452 c -0.694249,-0.717346 -1.061965,-1.63544 -1.061232,-2.649624 l 5.96e-4,-0.823677 0.783362,1.600967 c 0.80985,1.655103 1.397957,2.227744 1.837004,1.788697 0.152952,-0.152953 0.116202,-0.315307 -0.15414,-0.680966 -0.828411,-1.120485 -1.554801,-3.139302 -1.129552,-3.139302 0.165334,0 0.259525,0.202199 0.753512,1.617533 0.273964,0.784942 0.721492,1.150217 1.030561,0.841147 0.156262,-0.156263 0.117497,-0.409824 -0.1675,-1.095606 -0.203951,-0.490758 -0.36824,-1.095102 -0.365088,-1.342982 l 0.0057,-0.450696 0.312345,0.374013 c 0.17179,0.205708 0.413424,0.864532 0.536966,1.464052 0.123541,0.599522 0.326329,1.293795 0.45064,1.54283 0.229585,0.459932 0.637681,0.727167 0.824766,0.540082 0.206305,-0.206305 0.09485,-1.22088 -0.241524,-2.198563 -0.189464,-0.550691 -0.344096,-1.124763 -0.343627,-1.275714 0.0015,-0.464203 0.80315,0.660919 1.31146,1.840526 0.256329,0.594845 0.550348,1.053906 0.653377,1.020134 0.339877,-0.111406 0.306011,-1.289407 -0.06092,-2.118909 -0.417704,-0.944288 -0.43828,-1.123628 -0.114665,-0.999446 0.265136,0.101742 1.003369,1.664211 1.294165,2.739098 0.102514,0.378931 0.186823,1.248176 0.187351,1.931656 7.81e-4,1.051747 0.05214,1.270085 0.334119,1.42099 0.183238,0.09807 0.368607,0.178302 0.411931,0.178302 0.155018,0 0.344241,-0.970231 0.453493,-2.325259 0.09811,-1.216903 0.133564,-1.325609 0.303336,-0.930213 0.105732,0.246245 0.221388,0.750051 0.257013,1.119569 0.05175,0.53671 0.141203,0.682924 0.444732,0.726891 0.352815,0.05111 0.379957,-0.01336 0.379957,-0.902419 0,-0.540437 -0.150003,-1.352119 -0.344396,-1.863574 -0.38,-0.999791 -0.436295,-1.413739 -0.169868,-1.249077 0.321927,0.198962 0.876908,1.478436 1.215463,2.802178 0.381564,1.491899 0.699498,1.842364 1.315955,1.450602 0.270626,-0.171984 -0.120984,-1.725635 -0.827981,-3.284885 -0.27679,-0.610448 -0.473547,-1.139611 -0.437239,-1.175919 0.03631,-0.0363 0.307,0.136757 0.601535,0.384593 0.694039,0.583994 1.05791,1.809074 1.05791,3.561767 0,1.080836 0.05532,1.373302 0.275745,1.457888 0.151657,0.05819 0.344246,-0.0023 0.427964,-0.134586 0.289267,-0.456839 0.162091,-2.193598 -0.257363,-3.514447 -0.286644,-0.902658 -0.341097,-1.245182 -0.176194,-1.108324 0.475181,0.394369 1.081254,1.985457 1.193635,3.13362 0.08684,0.887019 0.177174,1.16263 0.381109,1.16263 0.224676,0 0.254362,-0.201683 0.186137,-1.264726 -0.06283,-0.979305 -0.196924,-1.474911 -0.594107,-2.196077 -3.289258,-5.972333 -4.036099,-6.953753 -6.07972,-7.989335 -2.564405,-1.299481 -5.352453,-1.178355 -7.752632,0.336812 -0.66311,0.418602 -0.705588,0.423699 -1.273605,0.152831 -1.286017,-0.613259 -3.623449,0.323275 -5.990779,2.400314 -1.086934,0.953649 -1.463784,1.20404 -1.397281,0.928397 0.16537,-0.68542 0.891128,-1.466905 2.207265,-2.37675 1.348052,-0.931909 1.415785,-1.179046 0.324637,-1.184517 -1.167508,-0.0058 -3.295981,1.616612 -5.29808,4.038557 -0.344161,0.416333 -0.536589,0.502516 -1.045481,0.468244 -0.573083,-0.0386 -0.666602,0.02481 -1.152626,0.781564 -0.486378,0.757295 -0.520113,0.905015 -0.419226,1.835762 0.10246,0.945286 0.07034,1.076226 -0.48584,1.980776 -0.569837,0.926758 -1.16181,2.615653 -1.420768,4.053436 -0.09812,0.5448 -0.06101,0.717572 0.194324,0.904266 0.493132,0.360587 0.557429,0.29615 0.75796,-0.759597 z m 8.523914,-1.980776 c -0.0283,-2.400277 -0.02721,-2.395039 -0.373853,-1.765475 -0.185192,0.336328 -0.310221,1.072948 -0.358132,2.109958 -0.07338,1.588224 -0.07231,1.593232 0.340613,1.593232 h 0.414222 z m -9.733161,0.861207 c 0.0067,-0.07106 -0.307419,-0.129181 -0.69795,-0.129181 -0.633532,0 -0.685224,0.02992 -0.479644,0.27763 0.373934,0.45056 0.912966,0.584596 1.048413,0.260696 0.06439,-0.15398 0.122522,-0.338095 0.129181,-0.409145 z m 0.270468,-0.990388 c 0,-0.508475 -1.674609,-0.425201 -1.873525,0.09317 -0.08718,0.227173 0.04876,0.260459 0.885268,0.216788 0.740693,-0.03866 0.988257,-0.116313 0.988257,-0.309954 z m 0.597994,-1.616076 c 0.122326,-0.509911 0.176849,-1.000832 0.121164,-1.090933 -0.05569,-0.0901 -0.575434,0.268966 -1.154995,0.797929 l -1.053747,0.961753 0.572551,0.106506 c 1.256685,0.233771 1.275244,0.224274 1.515027,-0.775255 z M 45.962366,58.95274 c 0.141088,-0.17 0.525663,-0.258362 1.124467,-0.258362 h 0.910046 l 0.274553,-0.805769 c 0.427869,-1.255723 0.373768,-1.571388 -0.290675,-1.696038 -0.346687,-0.06504 -0.862805,0.0029 -1.33487,0.175851 -1.242387,0.455033 -1.372488,0.481494 -1.372488,0.279149 0,-0.105782 -0.0775,-0.19233 -0.172241,-0.19233 -0.215383,0 -0.222465,0.651068 -0.01425,1.309167 0.0869,0.274652 0.204641,0.712516 0.261644,0.973031 0.116459,0.532228 0.297945,0.595889 0.613804,0.215301 z m 5.357447,-3.084297 c 1.253093,-1.767858 1.022964,-2.413514 -0.469135,-1.316212 -0.772264,0.56793 -1.06877,1.096776 -1.590862,2.837456 l -0.357768,1.192809 0.787262,-0.762206 c 0.432995,-0.419212 1.16672,-1.297544 1.630503,-1.951847 z m -6.738776,-2.066117 c 1.235071,-0.761286 1.658955,-0.843514 1.583943,-0.307265 -0.05416,0.387156 -0.04141,0.391113 0.446728,0.138687 0.276362,-0.142913 0.894959,-0.311906 1.374662,-0.37554 0.863423,-0.114538 0.870518,-0.120477 0.706408,-0.591243 -0.520777,-1.493902 -1.858036,-1.683145 -4.323645,-0.611868 -0.233135,0.101296 -0.301422,0.04874 -0.301422,-0.231945 0,-0.48868 -0.207419,-0.456917 -0.833127,0.127581 -0.786082,0.734311 -0.868682,1.31316 -0.275704,1.932097 0.266373,0.278032 0.526416,0.505514 0.577875,0.505514 0.05146,0 0.521385,-0.263709 1.044282,-0.586018 z m 10.596241,-1.670865 c 0.757863,-0.668306 1.668589,-1.403736 2.023837,-1.634288 0.355248,-0.230551 0.645905,-0.533503 0.645905,-0.673225 0,-0.139723 -0.310035,-0.449757 -0.688966,-0.688966 -0.37893,-0.239209 -0.688964,-0.511461 -0.688964,-0.605005 0,-0.394411 -0.908373,-0.08721 -3.005738,1.016511 -1.226857,0.645622 -2.258951,1.258766 -2.293544,1.362543 -0.03459,0.103776 0.203598,0.363375 0.52931,0.576884 0.325712,0.213509 0.802987,0.721375 1.06061,1.128591 0.257624,0.407215 0.596929,0.738515 0.754013,0.736223 0.157083,-0.0022 0.905676,-0.55096 1.663537,-1.219268 z M 41.610666,49.939058 c 0.05877,0.25782 0.157421,0.245824 0.959852,-0.116715 0.491891,-0.222239 1.262513,-0.457232 1.712493,-0.522211 0.449981,-0.06499 0.818147,-0.179917 0.818147,-0.255421 0,-0.0755 -0.402761,-0.337982 -0.895025,-0.583287 -0.714576,-0.356089 -1.139972,-0.44478 -2.109957,-0.439907 -0.726768,0.0037 -1.387949,0.105009 -1.645535,0.252259 -0.58162,0.332483 -0.860111,0.318647 -0.866683,-0.04307 -0.0049,-0.269316 -0.03394,-0.264729 -0.272688,0.04307 -0.356082,0.459054 -0.204238,1.820027 0.278734,2.498299 l 0.359842,0.50535 0.797657,-0.812859 c 0.613232,-0.62492 0.812804,-0.746421 0.863163,-0.525508 z m 0.659398,-4.266844 c -0.162864,-0.648902 -0.592298,-1.243853 -0.9886,-1.369634 -0.585213,-0.185739 -1.468144,0.07741 -1.761395,0.524969 -0.452678,0.690872 -0.354185,0.811576 0.62915,0.771029 1.356569,-0.05594 1.508827,-0.02718 1.397158,0.263818 -0.07313,0.190564 0.02358,0.258362 0.368561,0.258362 0.417864,0 0.455708,-0.04779 0.355126,-0.448544 z m 15.175774,-0.857828 c 0.05761,-0.150109 8.93e-4,-0.705645 -0.125954,-1.234525 -0.218974,-0.912791 -0.207079,-1.02824 0.234347,-2.274465 0.545574,-1.540252 0.587671,-2.532098 0.144988,-3.416025 -0.176023,-0.351474 -0.371932,-0.854828 -0.435355,-1.118565 -0.114161,-0.474731 -0.450046,-0.69676 -1.340839,-0.886327 -0.543491,-0.115657 -0.77129,-0.815524 -0.49876,-1.532332 0.202845,-0.533525 0.608267,-0.639971 0.441979,-0.116043 -0.08903,0.280517 -0.03095,0.344482 0.312788,0.344482 0.277265,0 0.453034,0.118213 0.512206,0.344483 0.06559,0.250835 0.234938,0.344482 0.622932,0.344482 0.638322,0 0.729341,-0.457752 0.188367,-0.947327 -0.189465,-0.171463 -0.344483,-0.481498 -0.344483,-0.688965 0,-0.771237 -0.903257,-1.22036 -2.977389,-1.480435 -1.652361,-0.207187 -3.605619,0.02169 -4.245783,0.49749 -0.305711,0.227223 -0.458016,0.521662 -0.495026,0.956995 -0.04835,0.568817 -0.01274,0.628795 0.373455,0.628795 0.709712,0 1.012341,-0.174231 0.782877,-0.450718 -0.329836,-0.397429 0.505859,-0.291019 1.480745,0.188545 1.126647,0.554215 1.598893,0.555212 1.808535,0.0038 0.227103,-0.597325 0.586863,-0.562862 0.449519,0.04306 -0.347009,1.530911 -0.361123,1.467261 0.565366,2.549713 0.48219,0.563362 0.877398,1.117668 0.878239,1.231792 8.47e-4,0.114124 0.272812,0.258389 0.604376,0.320592 0.331565,0.0622 0.600409,0.201354 0.597433,0.309226 -0.0074,0.266377 -0.662934,0.717748 -1.254519,0.863743 -0.639715,0.157871 -0.599525,0.853437 0.05424,0.938761 0.446912,0.05833 1.02295,0.636151 1.029619,1.032812 0.0026,0.155229 -0.140752,0.114075 -0.450003,-0.129182 -0.743365,-0.584732 -2.474271,-0.408497 -2.474271,0.251922 0,0.138766 0.135641,0.256751 0.301423,0.262189 1.12893,0.03702 1.878552,0.20221 2.066895,0.455442 0.34397,0.462472 0.270722,0.520865 -0.760639,0.606394 -1.07876,0.08945 -1.607679,0.511035 -1.607679,1.281406 0,0.566493 0.968718,1.001027 1.652258,0.741145 0.352685,-0.134091 0.54964,-0.115448 0.826385,0.07822 0.481556,0.336994 0.952283,0.336738 1.081727,-5.89e-4 z m -5.24174,-5.578598 c 0.564205,-0.443803 0.992405,-1.365546 0.992405,-2.136249 0,-0.510886 -0.0886,-0.661272 -0.521522,-0.885142 -1.160588,-0.600161 -3.267788,0.37218 -3.267788,1.507882 0,0.680907 0.265628,1.121289 0.915259,1.517397 0.700734,0.427269 1.335186,0.425957 1.881646,-0.0039 z m -3.696312,-7.32454 c 0.723945,-0.25556 1.851044,-0.488609 2.667614,-0.551579 l 1.414005,-0.109039 -0.686838,-0.314425 -0.68684,-0.314425 1.826332,0.04511 c 1.719431,0.04246 1.900907,0.08249 3.100345,0.6837 l 1.274013,0.638596 0.301422,-0.359671 c 0.467182,-0.557464 0.36197,-1.091806 -0.384884,-1.954729 -0.423176,-0.48894 -0.792388,-1.157875 -0.962994,-1.744739 -0.320659,-1.103029 -0.950411,-1.887124 -2.116788,-2.635587 -0.869666,-0.558063 -1.320985,-0.678552 -1.184855,-0.316324 0.360886,0.960293 0.451134,0.909292 -1.496835,0.845907 -1.649968,-0.0537 -4.042,0.179469 -4.454086,0.434152 -0.09472,0.05854 0.226709,0.25526 0.714301,0.437147 0.487592,0.181888 0.88653,0.392811 0.88653,0.468719 0,0.07591 -0.406921,0.191858 -0.904268,0.257667 -1.151806,0.152409 -2.283738,0.65054 -2.531889,1.114216 -0.188018,0.351315 -0.159175,0.360684 1.110369,0.360684 1.205456,0 2.498028,0.321118 2.498028,0.620593 0,0.0668 -0.313134,0.389478 -0.695852,0.717071 -0.826389,0.707359 -1.780743,2.395575 -1.256942,2.223485 0.174076,-0.05718 0.880627,-0.303126 1.570112,-0.546522 z m 5.42128,42.826581 c 0.0503,-0.554651 0.205587,-1.226297 0.345095,-1.492559 l 0.253651,-0.484116 0.273232,0.846653 c 0.150277,0.46566 0.324409,1.137313 0.386962,1.49256 l 0.113731,0.645911 H 54.56968 53.837624 Z m 2.367781,0.857293 c 0,-0.08315 0.116264,-0.24764 0.258363,-0.365574 0.206123,-0.171067 0.3106,-0.171067 0.516724,0 0.400101,0.332059 0.307765,0.51673 -0.258362,0.51673 -0.284199,0 -0.516725,-0.06798 -0.516725,-0.151156 z"
       id="path1" /><text
       xml:space="preserve"
       style="font-size:13.6825px;line-height:1;font-family:'Gaming Sporty';-inkscape-font-specification:'Gaming Sporty';text-align:center;letter-spacing:0.910739px;word-spacing:0px;writing-mode:lr-tb;direction:ltr;text-anchor:middle;fill:#841617;fill-opacity:1;stroke:none;stroke-width:1.83397"
       x="53.610188"
       y="86.70549"
       id="text3"><tspan
         sodipodi:role="line"
         id="tspan3"
         style="font-style:normal;font-variant:normal;font-weight:normal;font-stretch:normal;font-family:'Confetti Western';-inkscape-font-specification:'Confetti Western';stroke:none;stroke-width:1.83397;fill:#841617;fill-opacity:1"
         x="54.065552"
         y="86.70549">settlers</tspan></text><text
       xml:space="preserve"
       style="font-style:normal;font-variant:normal;font-weight:normal;font-stretch:normal;font-size:12.5639px;line-height:1;font-family:'Confetti Western';-inkscape-font-specification:'Confetti Western';text-align:center;letter-spacing:0.836283px;word-spacing:0px;writing-mode:lr-tb;direction:ltr;text-anchor:middle;fill:#841617;fill-opacity:1;stroke:none;stroke-width:1.68404"
       id="text4"
       transform="rotate(90,45.403356,61.303204)"><textPath
         xlink:href="#path2"
         startOffset="50%"
         id="textPath4"><tspan
           id="tspan4"
           style="stroke-width:1.68404">oklahoma</tspan></textPath></text></g></svg>
