<?xml version="1.0" encoding="UTF-8" standalone="no"?>
<!-- Created with Inkscape (http://www.inkscape.org/) -->

<svg
   width="105.83334mm"
   height="105.83334mm"
   viewBox="0 0 105.83333 105.83333"
   version="1.1"
   id="svg1"
   xml:space="preserve"
   inkscape:version="1.4 (e7c3feb100, 2024-10-09)"
   sodipodi:docname="reno.svg"
   inkscape:export-filename="../pngs/charlotte.png"
   inkscape:export-xdpi="96"
   inkscape:export-ydpi="96"
   xmlns:inkscape="http://www.inkscape.org/namespaces/inkscape"
   xmlns:sodipodi="http://sodipodi.sourceforge.net/DTD/sodipodi-0.dtd"
   xmlns:xlink="http://www.w3.org/1999/xlink"
   xmlns="http://www.w3.org/2000/svg"
   xmlns:svg="http://www.w3.org/2000/svg"><sodipodi:namedview
     id="namedview1"
     pagecolor="#ffffff"
     bordercolor="#000000"
     borderopacity="0.25"
     inkscape:showpageshadow="2"
     inkscape:pageopacity="0.0"
     inkscape:pagecheckerboard="0"
     inkscape:deskcolor="#d1d1d1"
     inkscape:document-units="mm"
     inkscape:zoom="1.4103651"
     inkscape:cx="308.78529"
     inkscape:cy="197.82112"
     inkscape:window-width="1920"
     inkscape:window-height="1011"
     inkscape:window-x="0"
     inkscape:window-y="32"
     inkscape:window-maximized="1"
     inkscape:current-layer="layer1"
     showgrid="false"
     showguides="true" /><defs
     id="defs1" /><g
     inkscape:label="Capa 1"
     inkscape:groupmode="layer"
     id="layer1"><g
       id="g3"><ellipse
         style="fill:#003366;fill-opacity:1;stroke:none;stroke-width:3.33357"
         id="path2"
         cx="52.916672"
         cy="52.916672"
         rx="52.066185"
         ry="45.692223" /><path
         style="fill:#ffffff;stroke-width:1.50618"
         d="m 22.131753,75.576709 c -0.639462,-0.137786 -1.233721,-0.464175 -1.320579,-0.725295 -0.181299,-0.545048 1.871493,-1.717048 3.007467,-1.717048 1.05061,0 2.725859,-1.392465 3.885722,-3.229808 0.533467,-0.845064 0.969938,-1.62971 0.969938,-1.743656 0,-0.577815 -1.38945,0.01265 -5.170717,2.197211 -4.887523,2.823733 -5.362503,2.97529 -7.511283,2.396684 -2.749352,-0.740323 -2.600785,-1.748897 0.328168,-2.227847 0.767134,-0.12545 1.819384,-0.316124 2.338336,-0.423737 0.518952,-0.107617 2.043255,-1.327197 3.387342,-2.710189 2.312157,-2.379083 2.626254,-2.562565 5.831134,-3.406319 3.7181,-0.978871 4.628256,-1.62252 6.426153,-4.544472 0.991918,-1.612073 1.076395,-1.918196 0.477849,-1.73158 -5.595542,1.744587 -10.036932,1.959293 -14.163591,0.684699 -3.115837,-0.962385 -6.82358,-3.303371 -9.939875,-6.275814 -3.2932851,-3.141261 -3.0263504,-3.654565 0.879294,-1.690846 1.76377,0.886807 4.85721,2.165405 6.874309,2.84133 4.732865,1.585967 7.697404,1.673402 12.150559,0.358359 3.043286,-0.8987 3.517525,-0.938356 6.042847,-0.505312 2.478804,0.425067 2.910694,0.394587 4.52458,-0.319309 1.128064,-0.498997 3.815272,-1.008681 7.307259,-1.385969 6.76607,-0.731032 10.932409,-1.597535 13.294027,-2.764852 6.092221,-3.011304 10.097361,-5.369906 12.466875,-7.341669 1.486849,-1.237263 3.907802,-2.982547 5.379894,-3.878407 1.893233,-1.152148 3.044544,-2.201784 3.934004,-3.586596 1.786393,-2.781253 2.81248,-3.991626 3.123341,-3.684344 0.147907,0.146281 0.368035,1.003848 0.489012,1.905696 l 0.219933,1.639723 0.956456,-1.407556 c 0.526049,-0.774156 1.047127,-1.407555 1.157967,-1.407555 0.110855,0 0.08103,1.32937 -0.06612,2.954156 -0.363742,4.014046 0.272952,4.921122 4.516227,6.434076 1.699878,0.606101 3.240445,1.231709 3.423474,1.390244 0.39936,0.345888 -0.781402,2.770887 -1.349159,2.770887 -0.218979,0 -0.570748,0.453994 -0.781728,1.008872 -0.381253,1.002787 -0.409439,1.008249 -4.672625,0.905406 -3.793139,-0.0915 -4.48416,-2.45e-4 -5.976365,0.789271 -1.948474,1.030928 -2.282303,1.889782 -1.815884,4.671807 l 0.328349,1.958483 3.200787,0.639826 c 1.760425,0.351904 3.416247,0.772992 3.679588,0.935751 0.263355,0.162756 0.478816,0.960135 0.478816,1.771949 0,1.148461 0.198996,1.563326 0.89666,1.869406 0.967752,0.424582 0.987785,0.709903 0.457337,6.516487 -0.195036,2.135046 -0.436973,2.760489 -1.528579,3.951638 -2.166899,2.364496 -3.644705,0.653748 -1.817962,-2.10453 1.185259,-1.789693 1.027909,-2.410492 -0.3604,-1.421922 -1.831382,1.304054 -2.15863,1.100599 -1.937161,-1.20433 0.193244,-2.011051 0.185969,-2.026688 -0.845947,-1.81886 -0.57247,0.115298 -3.242087,0.61673 -5.932493,1.114297 l -4.891636,0.904669 -1.190437,-1.190439 c -1.1846,-1.184601 -1.203958,-1.188568 -3.948422,-0.80924 -2.409619,0.333047 -3.176652,0.263801 -6.072505,-0.548198 -5.91022,-1.657234 -11.244766,-0.908629 -15.236228,2.138124 -3.805365,2.904698 -8.386736,4.629197 -12.298115,4.629197 -2.419582,0 -2.942225,0.278978 -6.829187,3.645287 -1.734295,1.501988 -3.468092,2.730886 -3.852886,2.730886 -0.384794,0 -0.938454,0.06791 -1.230356,0.150905 -0.291903,0.08298 -1.053927,0.03817 -1.693388,-0.09963 z"
         id="path1"
         sodipodi:nodetypes="csssscssssssssssssssssssscccsscssssssscssssssssssscsssssssscc" /><text
         xml:space="preserve"
         style="font-size:20.9519px;line-height:1;font-family:'The Augusta';-inkscape-font-specification:'The Augusta';text-align:center;letter-spacing:1.0476px;writing-mode:lr-tb;direction:ltr;text-anchor:middle;white-space:pre;fill:#ffffff;fill-opacity:1;stroke:none;stroke-width:3.449"
         id="text2"
         transform="rotate(94.75207,39.449794,64.625156)"><textPath
           xlink:href="#path2"
           startOffset="50%"
           id="textPath2"><tspan
             id="tspan2"
             style="font-style:normal;font-variant:normal;font-weight:normal;font-stretch:normal;font-family:'Ranked Sports';-inkscape-font-specification:'Ranked Sports';letter-spacing:1.0476px;stroke-width:3.449">RENO</tspan></textPath></text><text
         xml:space="preserve"
         style="font-style:normal;font-variant:normal;font-weight:normal;font-stretch:normal;font-size:12.0631px;line-height:1;font-family:'Ranked Sports';-inkscape-font-specification:'Ranked Sports';text-align:center;letter-spacing:0.603158px;writing-mode:lr-tb;direction:ltr;text-anchor:middle;fill:#ffffff;fill-opacity:1;stroke:none;stroke-width:3.93126"
         x="52.884277"
         y="88.312691"
         id="text3"><tspan
           sodipodi:role="line"
           id="tspan3"
           style="stroke-width:3.93126"
           x="53.185856"
           y="88.312691">HUNTERS</tspan></text></g></g></svg>
