<?xml version="1.0" encoding="UTF-8" standalone="no"?>
<!-- Created with Inkscape (http://www.inkscape.org/) -->

<svg
   width="105.83334mm"
   height="105.83334mm"
   viewBox="0 0 105.83333 105.83333"
   version="1.1"
   id="svg1"
   xml:space="preserve"
   inkscape:version="1.4 (e7c3feb100, 2024-10-09)"
   sodipodi:docname="seattle.svg"
   inkscape:export-filename="../pngs/tempe.png"
   inkscape:export-xdpi="96"
   inkscape:export-ydpi="96"
   xmlns:inkscape="http://www.inkscape.org/namespaces/inkscape"
   xmlns:sodipodi="http://sodipodi.sourceforge.net/DTD/sodipodi-0.dtd"
   xmlns="http://www.w3.org/2000/svg"
   xmlns:svg="http://www.w3.org/2000/svg"><sodipodi:namedview
     id="namedview1"
     pagecolor="#ffffff"
     bordercolor="#000000"
     borderopacity="0.25"
     inkscape:showpageshadow="2"
     inkscape:pageopacity="0.0"
     inkscape:pagecheckerboard="0"
     inkscape:deskcolor="#d1d1d1"
     inkscape:document-units="mm"
     inkscape:zoom="0.99111502"
     inkscape:cx="98.374052"
     inkscape:cy="176.56881"
     inkscape:window-width="1920"
     inkscape:window-height="1011"
     inkscape:window-x="0"
     inkscape:window-y="32"
     inkscape:window-maximized="1"
     inkscape:current-layer="layer1"
     showgrid="false"
     showguides="true" /><defs
     id="defs1"><inkscape:path-effect
       effect="bspline"
       id="path-effect55"
       is_visible="true"
       lpeversion="1.3"
       weight="33.333333"
       steps="2"
       helper_size="0"
       apply_no_weight="true"
       apply_with_weight="true"
       only_selected="false"
       uniform="false" /></defs><g
     inkscape:label="Capa 1"
     inkscape:groupmode="layer"
     id="layer1"><g
       id="g3"
       transform="matrix(1.0494506,0,0,1.0494506,109.44576,48.091531)"><circle
         style="fill:#ffffff;stroke:none;stroke-width:7.49841"
         id="path2"
         cx="-53.865417"
         cy="4.5977774"
         r="48.58585" /><path
         style="fill:#aa0000;fill-opacity:1;stroke:none;stroke-width:8.85801"
         d="M -92.633463,13.614716 -52.857135,0 -14.148627,21.089463 -9.6103881,1.3347761 -20.021642,-24.02597 l -18.152954,-13.080805 -23.225106,-0.800867 -19.220775,8.275613 -13.080807,17.352089 -4.538237,16.8181788 z"
         id="path3" /><path
         style="fill:#000000;stroke-width:0.221611"
         d="m -55.486828,50.370344 c -0.177369,-0.01183 -0.797428,-0.04994 -1.37791,-0.08454 -7.647153,-0.456076 -15.227626,-2.946795 -21.759017,-7.149387 -6.431857,-4.138521 -11.920339,-10.049852 -15.544588,-16.742175 -2.775301,-5.124703 -4.542507,-10.745968 -5.201904,-16.5466042 -0.07862,-0.691599 -0.149775,-1.501853 -0.243559,-2.77344 -0.05937,-0.804972 -0.03933,-4.348669 0.03017,-5.335735 0.539991,-7.6688 2.643191,-14.4271108 6.468614,-20.7859028 3.811146,-6.335063 9.374304,-11.876235 15.757551,-15.695278 6.289868,-3.763179 13.159908,-5.890473 20.61,-6.381849 1.069204,-0.07051 4.513633,-0.08973 5.317063,-0.02966 0.26826,0.02006 0.830756,0.06259 1.249992,0.0945 7.29496,0.555409 14.41661,2.91305 20.668635,6.842399 5.824629,3.660738 10.97233,8.839032 14.584808,14.671487 1.899879,3.067415 3.304001,6.043705 4.471832,9.478843 1.2692299,3.7333978 2.0495794,7.7535638 2.3131835,11.9168588 0.089906,1.42008 0.076476,4.57059 -0.025193,5.898623 -0.3762469,4.9156502 -1.3619067,9.2889912 -3.0790995,13.6618232 -4.087602,10.409097 -12.086153,19.138298 -22.137911,24.160152 -5.338024,2.666872 -10.971117,4.22039 -17.001475,4.688739 -1.129265,0.08768 -4.389828,0.158744 -5.101195,0.111146 z m 10.274601,-8.82493 c 0.152586,-0.05989 0.469211,-0.207421 0.703614,-0.327855 l 0.426181,-0.218973 0.938149,-0.03295 0.938152,-0.03295 0.659637,-0.341674 c 0.362801,-0.187922 0.659637,-0.364819 0.659637,-0.393108 0,-0.04427 0.144261,-0.345795 0.642972,-1.343855 0.222907,-0.446097 0.28616,-1.186817 0.110613,-1.295308 -0.09796,-0.06054 -0.42242,-0.0036 -0.90458,0.158806 -0.48723,0.164096 -0.582029,0.167756 -1.349292,0.05211 -0.31968,-0.04818 -0.696946,-0.08776 -0.838366,-0.08795 -0.202288,-2.22e-4 -0.28771,-0.03334 -0.400497,-0.155039 -0.136679,-0.147482 -0.163658,-0.153159 -0.578717,-0.121768 -0.321867,0.02434 -0.455861,0.01241 -0.514014,-0.04573 -0.04326,-0.04326 -0.110951,-0.324881 -0.150418,-0.625821 -0.154361,-1.177 -0.448059,-3.263912 -0.6779,-4.816912 -0.08538,-0.576915 -0.196404,-1.100113 -0.267508,-1.260641 -0.09029,-0.203851 -0.112786,-0.342267 -0.08747,-0.538272 0.0451,-0.349236 -0.111544,-0.616307 -0.94579,-1.612446 -0.351102,-0.419239 -0.848783,-1.013697 -1.105962,-1.321024 -0.257177,-0.307328 -0.78293,-0.980157 -1.168341,-1.49518 -0.469744,-0.627713 -0.968859,-1.20418 -1.514065,-1.748708 l -0.813319,-0.812306 0.246632,-0.351596 c 0.253079,-0.360791 0.465437,-0.837164 0.465437,-1.044093 0,-0.162769 0.03999,-0.148765 0.324762,0.113733 0.320036,0.294999 0.620975,0.447021 1.037234,0.523971 0.182694,0.03377 0.461794,0.127089 0.620221,0.20737 0.29757,0.15079 1.716065,1.085153 1.908392,1.257058 0.204387,0.182683 0.382983,0.566301 0.53309,1.145052 0.168032,0.647863 0.35998,1.040247 0.695124,1.420991 0.348533,0.395955 0.392815,0.359454 0.392815,-0.323802 0,-0.650139 0.02617,-0.767045 0.17173,-0.767045 0.18426,0 0.675974,0.189863 0.874794,0.337777 0.176236,0.131115 0.536603,0.780625 0.536603,0.967152 0,0.03447 -0.121489,0.269902 -0.269975,0.523181 -0.406273,0.692993 -0.270943,0.937668 0.399082,0.721525 0.94376,-0.304444 1.466379,-0.948929 1.468686,-1.811158 0.0015,-0.620035 -0.08664,-0.844845 -0.675681,-1.720275 -0.405931,-0.60329 -0.775823,-1.05015 -1.513623,-1.828577 -1.480145,-1.561648 -3.015473,-3.048916 -3.571531,-3.459725 -0.274117,-0.202518 -0.516977,-0.400456 -0.539695,-0.439865 -0.02272,-0.03941 0.05118,-0.359793 0.164213,-0.711961 0.113033,-0.352168 0.259475,-0.930547 0.325429,-1.285285 0.06595,-0.354739 0.173461,-0.767732 0.238909,-0.917764 0.11087,-0.254157 0.114854,-0.322236 0.05836,-0.996787 -0.07182,-0.85757 -0.186337,-1.238239 -0.524394,-1.743207 -0.137791,-0.205827 -0.250531,-0.396896 -0.250531,-0.424596 0,-0.0277 0.176774,0.01617 0.392833,0.0975 0.21606,0.08132 0.424342,0.135769 0.462852,0.120992 0.127266,-0.04883 0.592052,-1.622738 0.515693,-1.746288 -0.0951,-0.153871 -0.02657,-0.420284 0.149439,-0.581051 0.09877,-0.09021 0.179247,-0.19849 0.17884,-0.24062 -4.44e-4,-0.04213 -0.146396,-0.2575502 -0.324415,-0.4787122 -0.336443,-0.417977 -0.34882,-0.511029 -0.07935,-0.596555 0.295006,-0.09363 0.322651,-0.527832 0.05733,-0.900439 -0.06652,-0.09343 -0.211374,-0.406808 -0.32189,-0.696404 -0.26189,-0.686272 -0.460386,-1.076322 -0.770091,-1.513244 -0.472915,-0.667175 -1.045339,-0.975937 -1.803818,-0.972971 -0.929658,0.0037 -1.399229,0.264597 -2.647106,1.471126 -0.914426,0.884128 -1.210814,1.083268 -2.056021,1.381424 -0.376749,0.132902 -0.652224,0.273357 -0.828775,0.422558 -0.463875,0.392022 -0.46424,0.392109 -1.808642,0.429875 -1.214931,0.03413 -1.237747,0.03714 -1.714032,0.2258 -0.387138,0.153352 -0.514841,0.235997 -0.64498,0.417405 -0.08924,0.124405 -0.331485,0.340347 -0.538307,0.479866 -0.529162,0.3569662 -0.878553,0.6526942 -1.096434,0.9280292 -0.166604,0.210537 -0.180434,0.255639 -0.124128,0.404812 0.05711,0.151307 0.03435,0.216294 -0.230625,0.658409 -0.657791,1.097534 -1.090479,1.945834 -1.446496,2.835909 -0.206388,0.515982 -0.423477,1.037589 -0.482424,1.159126 -0.09065,0.186909 -0.09638,0.250826 -0.03715,0.414602 0.105801,0.29259 0.09497,0.340902 -0.252547,1.126207 -0.4644,1.049443 -0.589848,1.549604 -0.851312,3.394206 -0.128293,0.905081 -0.328119,2.120541 -0.444058,2.701023 -0.285199,1.427918 -0.272801,1.627193 0.153673,2.469536 0.296657,0.585938 0.345818,0.649465 0.650961,0.841167 0.181539,0.114049 0.457297,0.293206 0.612797,0.398125 0.55968,0.377627 0.824232,0.439034 1.900903,0.441251 1.068256,0.0022 1.093442,-0.0076 0.886023,-0.345229 -0.07139,-0.116204 -0.278868,-0.271802 -0.572302,-0.429193 -0.425532,-0.228252 -1.017334,-0.719778 -1.017334,-0.844954 0,-0.0295 0.108031,-0.249328 0.240071,-0.488525 0.176247,-0.319278 0.258863,-0.419309 0.310746,-0.376251 0.03887,0.03226 0.19877,0.303875 0.355331,0.60359 0.156558,0.299715 0.293133,0.555291 0.303497,0.56795 0.04322,0.0528 0.223586,-0.156595 0.322854,-0.374821 0.260416,-0.572482 0.06803,-1.261755 -0.698477,-2.502489 -0.08586,-0.138976 -0.08861,-0.206665 -0.02391,-0.586346 0.04023,-0.236077 0.14725,-0.587544 0.237815,-0.781037 0.173887,-0.371508 0.698323,-1.07052 1.213709,-1.617739 0.401067,-0.425837 0.542693,-0.958314 0.562104,-2.113339 0.0095,-0.567566 0.05497,-0.690576 0.304313,-0.824023 0.106393,-0.05694 0.108879,1.11e-4 0.08268,1.896392 l -0.02701,1.955096 -0.186946,0.674296 c -0.300419,1.083582 -0.37018,1.545686 -0.295504,1.957491 0.153226,0.845 0.836105,1.889952 1.533856,2.347137 0.111229,0.07288 0.160493,0.169443 0.19086,0.374107 0.08498,0.57273 0.454492,2.005195 0.711844,2.759562 0.150537,0.441265 0.24505,0.805458 0.216451,0.834057 -0.02792,0.02792 -0.511862,0.212436 -1.075422,0.41003 -1.142889,0.40072 -1.552472,0.620039 -1.994886,1.068207 -0.421423,0.426903 -0.603636,0.707351 -0.814006,1.252861 -0.413058,1.071092 -1.331668,2.026029 -3.0531,3.173836 -0.435363,0.290285 -0.889133,0.629475 -1.008382,0.753752 -0.603735,0.629199 -0.763534,1.876125 -0.309572,2.415629 0.204456,0.242981 0.459375,0.328551 1.754523,0.588955 0.918948,0.184765 1.207764,0.266876 1.481196,0.421108 1.256558,0.708779 1.735542,0.803059 3.212747,0.632372 0.496455,-0.05736 0.63334,-0.05396 0.892908,0.02219 0.279158,0.0819 0.323657,0.08138 0.497763,-0.0058 0.253782,-0.12718 0.324826,-0.340592 0.219561,-0.659548 -0.140034,-0.42431 -0.528291,-0.764274 -1.346379,-1.178912 -0.849366,-0.430492 -1.700396,-0.96379 -1.700396,-1.065556 0,-0.160206 0.508482,-0.557182 2.550596,-1.991251 1.534747,-1.077774 4.114286,-3.108874 4.429762,-3.487947 0.263481,-0.316593 0.572559,-0.978705 0.67496,-1.445917 0.04948,-0.225744 0.1057,-0.746856 0.124936,-1.15803 0.01923,-0.411174 0.05888,-0.747589 0.0881,-0.747589 0.292291,0 2.25884,1.326261 2.415363,1.628948 0.150321,0.290683 0.280639,1.402142 0.328061,2.79795 0.03812,1.121967 0.06643,1.412638 0.168504,1.729716 0.156922,0.48747 0.53569,1.131388 1.035778,1.760861 0.558782,0.703357 0.681275,1.002302 0.704753,1.719952 0.03192,0.975751 0.196025,1.6576 0.511612,2.125727 0.40271,0.597363 1.298515,0.803646 2.108837,0.48562 z M -13.711892,16.77819 c 2.017483,-6.670173 2.337832,-14.0387442 0.904933,-20.8152232 -1.846901,-8.7344178 -6.278491,-16.4514978 -12.893582,-22.4526168 -4.666864,-4.233714 -10.214498,-7.37445 -16.101465,-9.115683 -4.058549,-1.200426 -7.678094,-1.722771 -11.984423,-1.729497 -2.189135,-0.0034 -3.181582,0.04904 -5.013245,0.264971 -6.611621,0.779443 -12.791001,3.044641 -18.264621,6.695328 -4.140619,2.761625 -7.928836,6.406814 -10.827044,10.418252 -4.425669,6.125612 -7.063322,13.1827198 -7.757949,20.75658776 -0.153796,1.67692104 -0.22835,4.72408204 -0.127631,5.21654304 l 0.04049,0.197986 1.17122,0.393884 c 0.644173,0.216636 1.474655,0.512412 1.845517,0.657281 1.41731,0.55364 2.440447,0.747304 4.171936,0.789678 1.014272,0.02482 1.285625,0.01303 1.671081,-0.07266 0.58949,-0.131036 1.411832,-0.416658 2.483072,-0.862444 1.411694,-0.58746 1.986219,-0.808634 2.100532,-0.808634 0.05982,0 0.136618,-0.05937 0.17068,-0.131926 0.102973,-0.219378 0.487219,-0.6305 0.736148,-0.787642 0.53063,-0.33497 0.778807,-0.379829 2.33393,-0.421855 l 1.442101,-0.03897 0.434199,-0.216714 c 0.417271,-0.20826 0.841794,-0.519292 1.521491,-1.114733 0.288279,-0.252545 0.304156,-0.278514 0.170265,-0.278514 -0.269159,0 -1.416868,0.230925 -2.664781,0.536167 -1.138482,0.278475 -1.297636,0.30313 -2.110839,0.326973 -1.411151,0.04138 -2.259912,-0.127016 -3.32879,-0.660424 -1.441811,-0.719511 -2.935547,-2.115571 -3.384678,-3.16334904 -0.123912,-0.289077 -0.109296,-0.30361 0.183229,-0.182188 0.108746,0.04514 0.54492,0.137904 0.969273,0.206148 0.424353,0.06825 0.891045,0.176935 1.03709,0.241538 0.207654,0.09186 0.314273,0.10661 0.48909,0.06768 0.249698,-0.05559 0.508729,-0.0044 0.657095,0.129866 0.316599,0.28651804 0.815998,0.33469004 1.543668,0.1489 0.291461,-0.07441 0.912494,-0.152213 1.622214,-0.203213 1.576191,-0.11326 1.638789,-0.135844 2.299164,-0.829501 0.767135,-0.805799 0.918881,-0.94486196 1.354594,-1.24137296 0.592666,-0.403317 1.103901,-0.964769 1.636912,-1.797697 0.333067,-0.520478 0.336467,-0.514727 -0.167861,-0.283938 -1.235977,0.565605 -2.330272,0.857517 -3.210601,0.856455 -0.654296,-8.85e-4 -0.821776,-0.04736 -1.882109,-0.523341 l -0.627698,-0.281771 0.727193,-0.07196 c 0.845938,-0.0837 1.401231,-0.198659 1.810871,-0.374881 l 0.292058,-0.12564 -0.394694,-0.189291 c -0.217083,-0.104108 -0.592589,-0.349692 -0.834454,-0.54574 -0.555786,-0.450498 -1.342938,-1.245034 -1.233461,-1.245034 0.04558,0 0.437168,0.094 0.870188,0.208897 0.737764,0.19575 0.805642,0.204198 1.078642,0.13423 0.263976,-0.06765 0.325282,-0.06249 0.65284,0.05497 0.703414,0.252246 1.442525,0.126174 2.477369,-0.422576 0.452203,-0.239789 1.373015,-0.886917 1.372766,-0.964751 -6.3e-5,-0.02028 -0.09614,-0.04374 -0.21351,-0.05214 -0.305076,-0.02183 -1.446469,-0.629518 -1.691184,-0.900388 -0.252069,-0.27901 -0.354871,-0.628658 -0.264949,-0.90113 0.106182,-0.321739 0.180887,-0.349812 1.020487,-0.383508 0.703396,-0.02822 0.800889,-0.04621 1.15651,-0.213322 0.423351,-0.198942 0.83159,-0.533186 0.96403,-0.7892918 0.122463,-0.236822 0.102658,-0.509895 -0.06114,-0.84286 -0.188284,-0.382759 -0.183899,-0.510334 0.03326,-0.967467 0.149308,-0.314299 0.184395,-0.468511 0.200121,-0.879517 0.02037,-0.532059 0.109542,-0.843068 0.45599,-1.590194 0.500472,-1.079282 0.888305,-2.324655 0.950624,-3.052558 0.05005,-0.58453 0.138716,-0.974116 0.28038,-1.231907 0.122246,-0.22245 0.384691,-0.379357 0.536856,-0.320968 0.277354,0.106431 0.414318,0.956877 0.370306,2.299319 -0.02874,0.876674 -0.02132,0.970911 0.108527,1.37791 0.0959,0.300588 0.139622,0.576615 0.140162,0.884815 4.43e-4,0.246367 0.04286,0.668534 0.09429,0.938151 0.06124,0.321055 0.07894,0.591376 0.05131,0.783383 -0.0232,0.161246 -0.0399,0.4251 -0.0371,0.586344 0.0083,0.481692 -0.04156,0.652502 -0.28569,0.977414 -0.127859,0.170164 -0.23247,0.330539 -0.23247,0.356392 0,0.06492 0.19463,0.133957 1.143371,0.405552 1.396118,0.3996628 1.617352,0.5500808 1.190683,0.8095538 -0.215813,0.131244 -1.406074,0.529396 -1.582608,0.529396 -0.107114,0 -0.100971,0.0201 0.06336,0.207261 0.133454,0.151996 0.182064,0.265343 0.182303,0.4251 4.43e-4,0.306405 0.09809,0.622362 0.228892,0.740735 0.06121,0.0554 0.25481,0.134079 0.430221,0.174855 0.175414,0.04078 0.475856,0.169463 0.667651,0.285973 0.550102,0.334168 0.573685,0.338238 1.409028,0.243085 0.775106,-0.08829 1.197924,-0.06986 1.529535,0.06666 0.632853,0.260546 -0.284477,0.773168 -2.558776,1.429896 -0.464046,0.133998 -0.952175,0.297966 -1.084737,0.364371 -0.281482,0.141011 -0.563506,0.390462 -0.563506,0.498426 0,0.04151 0.07256,0.11348 0.161244,0.15993 0.206829,0.108332 0.502739,0.422968 0.623755,0.663234 0.122629,0.243463 0.119181,0.295012 -0.02275,0.340061 -0.294452,0.09346 -0.09331,0.440025 0.89772,1.546796 0.816557,0.91191796 1.426843,1.40670096 2.458133,1.99289796 l 0.336179,0.191088 0.748558,-0.145161 c 1.856587,-0.360037 2.512528,-0.471802 3.65096,-0.622079 2.264387,-0.298907 3.868373,-0.79478496 4.3518,-1.34537696 0.15899,-0.181077 0.165765,-0.20476 0.07336,-0.256471 -0.157805,-0.08831 -1.281417,-0.06203 -2.039661,0.0477 l -0.68409,0.099 -0.542876,-0.235942 c -0.845807,-0.367601 -1.418622,-0.522411 -2.314621,-0.625559 -0.933763,-0.107495 -1.310354,-0.20294 -2.172627,-0.550643 -0.425432,-0.17155 -0.687917,-0.242833 -0.894176,-0.242833 -0.384662,0 -0.526502,-0.133711 -0.526502,-0.496331 0,-0.371687 0.07694,-0.398892 1.26064,-0.445747 1.212903,-0.04801 1.43737,-0.118428 1.989131,-0.624017 0.660204,-0.604959 1.456353,-0.901979 2.726531,-1.017195 1.032746,-0.09368 1.552793,-0.203719 2.291153,-0.484798 0.65233,-0.248331 1.977983,-0.817143 2.864201,-1.228975 l 0.430873,-0.200229 -0.606777,-0.04126 c -0.741018,-0.0504 -1.723528,-0.191682 -3.685082,-0.529936 -1.775316,-0.306139 -2.121452,-0.357645 -3.179427,-0.473116 -0.890663,-0.09721 -1.317868,-0.228094 -1.679428,-0.514534 -0.218572,-0.17316 -0.556087,-0.5685228 -0.517923,-0.6066878 0.0089,-0.009 0.120749,0.02101 0.24851,0.06652 0.243456,0.08671 0.872787,0.119729 0.836929,0.0439 -0.01143,-0.02419 -0.09724,-0.193543 -0.190663,-0.376347 -0.158249,-0.309647 -0.163679,-0.34181 -0.07942,-0.470395 0.04974,-0.07591 0.231583,-0.214842 0.404098,-0.308736 0.255647,-0.139141 0.393689,-0.17295 0.746357,-0.182798 0.390514,-0.0109 0.439299,-0.02557 0.500414,-0.150456 0.09555,-0.195241 0.359558,-0.30696 1.293954,-0.547546 0.995019,-0.256196 1.283411,-0.378943 1.58729,-0.675593 0.285556,-0.278762 0.500472,-0.371796 1.289609,-0.558256 1.085565,-0.256504 1.913442,-0.62806 2.38758,-1.071563 0.342922,-0.320762 0.456539,-0.51857 0.456539,-0.794832 0,-0.173594 -0.02585,-0.21141 -0.181661,-0.265724 -0.339558,-0.11837 -0.900755,-0.136924 -2.163716,-0.07154 -1.569471,0.08126 -1.995373,0.0088 -1.725398,-0.293485 0.426413,-0.477467 1.800755,-1.246856 3.337845,-1.868604 1.500177,-0.606817 1.6783,-0.733761 2.044801,-1.457246 0.141614,-0.279547 0.420389,-0.798511 0.619501,-1.153249 0.562949,-1.002953 1.383434,-2.700899 1.586674,-3.283526 0.109973,-0.315265 0.216581,-0.788063 0.264809,-1.174418 0.107886,-0.864302 0.162786,-1.090298 0.452411,-1.862362 0.244312,-0.651271 0.246594,-0.664581 0.253597,-1.478071 0.008,-0.928807 0.07921,-1.264252 0.319405,-1.504442 0.555019,-0.555021 1.135743,0.276312 1.695156,2.426701 0.23192,0.891496 0.403317,1.869551 0.47031,2.683759 0.06133,0.745309 0.08102,0.813554 0.550272,1.906022 0.179979,0.419015 0.435636,1.115296 0.568127,1.547295 0.418971,1.366082 0.6697,1.757945 1.754072,2.741439 0.40552,0.367793 0.932764,0.898858 1.171655,1.180143 0.440704,0.518917 1.060829,1.410613 1.060829,1.525399 0,0.123764 -0.219604,0.128423 -0.666457,0.01414 -0.468797,-0.119897 -1.932567,-0.681647 -2.910241,-1.116861 -0.552302,-0.245859 -0.559928,-0.247375 -0.899054,-0.178906 -0.188116,0.03798 -0.411215,0.09536 -0.495775,0.127507 l -0.153749,0.05846 0.259936,0.147646 c 0.142965,0.0812 0.432027,0.286014 0.642362,0.455134 0.491288,0.395016 0.972938,0.715347 1.532024,1.018898 0.245291,0.133179 0.917529,0.536565 1.493857,0.896412 1.261553,0.787681 2.284343,1.362419 2.721594,1.529347 0.17737,0.06772 0.52265,0.14418 0.76729,0.169924 0.516087,0.05431 1.020485,0.262992 1.639471,0.678285 0.467654,0.313763 0.935401,0.709839 0.935401,0.792071 0,0.09019 -0.237656,0.154487 -0.944069,0.255404 -0.367608,0.05252 -0.998196,0.179997 -1.401308,0.28329 l -0.732929,0.187803 -1.90562,-0.0088 c -1.10621,-0.0051 -2.256073,-0.04275 -2.741029,-0.08976 -0.953883,-0.09247 -0.928455,-0.10975 -0.610726,0.415205 0.182299,0.3011928 0.509394,0.4908648 1.035696,0.6005578 0.614167,0.128008 8.853797,2.916284 8.853797,2.996111 0,0.102222 -0.333648,0.252833 -0.820882,0.370552 -0.755031,0.182423 -0.765412,0.178252 0.875585,0.351858 l 0.347873,0.0368 -0.399276,0.256898 c -0.851265,0.547714 -1.857082,0.80707 -3.110925,0.802167 -1.221275,-0.0048 -2.311135,-0.240502 -3.869873,-0.837031 -0.322489,-0.123415 -0.885284,-0.280333 -1.250655,-0.348706 -0.565826,-0.105884 -1.028935,-0.242446 -1.490503,-0.439525 -0.159785,-0.06823 -0.122861,0.03755 0.133789,0.383245 0.391229,0.52697 0.868627,0.883829 1.790999,1.338788 0.572794,0.282529 0.94853,0.510433 1.165549,0.706966 0.446235,0.404114 0.593666,0.46628 1.337627,0.564025 0.777068,0.102099 1.078877,0.227559 1.753141,0.728771 0.639507,0.475376 0.715697,0.511515 1.417429,0.672288 0.900868,0.206401 1.079391,0.302372 1.274738,0.685286 0.262097,0.51375296 0.06387,0.65601096 -0.797751,0.57251296 -0.861823,-0.08351 -1.86247,-0.07367 -2.461274,0.02423 -1.486226,0.242967 -1.7628,0.293736 -1.805684,0.331465 -0.06615,0.0582 1.44724,0.680655 1.835001,0.754743 0.352343,0.06732 0.702924,0.104711 1.46586,0.156333 0.679347,0.04597 2.118589,0.36689404 2.194227,0.48927904 0.0148,0.02396 -0.09684,0.07657 -0.248113,0.116925 -0.35176,0.09384 -0.949328,0.360802 -0.949328,0.424112 0,0.104367 0.24443,0.16757 0.885684,0.229021 1.204975,0.11547 1.635595,0.222774 1.635595,0.407561 0,0.07736 -0.110329,0.10993 -0.568512,0.167799 -0.3583,0.04526 -0.678088,0.124685 -0.864857,0.214818 -0.431865,0.208416 -1.226477,0.422516 -1.981222,0.533822 -0.50708,0.07478 -0.912463,0.0905 -1.745237,0.06768 -0.596607,-0.01635 -1.124316,-0.03942 -1.17269,-0.05128 -0.136016,-0.03333 -0.142967,0.314333 -0.01214,0.606885 0.163373,0.365309 0.50019,0.742132 1.082184,1.21072 1.18382,0.953149 1.943457,1.254645 4.470903,1.774488 0.960028,0.197457 1.088383,0.204895 2.635852,0.152705 0.406379,-0.0137 0.408207,-0.01307 0.545575,0.191469 0.0758,0.112873 0.219201,0.29757 0.318655,0.410443 0.404497,0.459061 0.424849,0.668849 0.09672,0.996974 -0.09664,0.09664 -0.160011,0.175713 -0.14082,0.175713 0.08263,0 1.264573,-0.622141 1.736307,-0.913944 0.538182,-0.332905 1.052272,-0.78316 1.052272,-0.921611 0,-0.0861 -0.457734,-0.23732 -1.78835,-0.590822 -0.954274,-0.253518 -3.044864,-0.765068 -3.535557,-0.865119 -0.430894,-0.08786 -0.36713,-0.131668 0.281346,-0.19329 0.93745,-0.08908 2.171824,-0.335978 2.167884,-0.433608 -8.87e-4,-0.0217 -0.205364,-0.137485 -0.454416,-0.257332 -0.437652,-0.210599 -1.1245,-0.675766 -1.126262,-0.762759 -4.44e-4,-0.02338 0.08489,-0.02338 0.1897,0 0.350142,0.07811 2.225782,0.0501 2.418672,-0.03611 l 0.175903,-0.07863 -0.301584,-0.113703 c -0.810709,-0.305659 -1.288774,-1.138934 -0.961431,-1.675796 0.166976,-0.273851 0.414998,-0.374883 1.057237,-0.430668 0.882442,-0.07665 1.300387,-0.274789 1.899141,-0.90034004 0.493642,-0.515732 1.561489,-1.85777096 1.70262,-2.13980096 0.290629,-0.580782 0.497094,-1.41957 0.614896,-2.498091 0.03523,-0.322487 0.105378,-0.968931 0.155898,-1.436543 0.199264,-1.844341 0.460491,-2.404438 1.121125,-2.40379 0.812037,8.86e-4 1.320285,1.290422 1.629036,4.133507 0.13491,1.242285 0.206665,2.571629 0.207308,3.84055496 l 6.65e-4,1.14336904 0.171522,0.09758 c 0.369482,0.210204 0.53294,0.557102 0.976054,2.07143 0.194464,0.664572 0.42197,1.132487 0.788769,1.622277 0.342646,0.457537 0.74084,0.770717 1.403659,1.103974 0.565127,0.284141 0.950831,0.649487 1.188763,1.126027 0.328366,0.657658 0.176692,0.955768 -0.453433,0.891209 -0.348826,-0.03574 -0.35703,-0.03312 -0.646223,0.206414 -0.48955,0.405484 -0.748916,0.50494 -1.289697,0.494551 -0.265631,-0.0051 -0.640731,-0.05891 -0.864856,-0.124053 -0.217682,-0.06327 -0.395784,-0.106418 -0.395784,-0.09587 0,0.01055 0.494728,0.657633 1.099397,1.4379812 1.22722,1.583776 1.299158,1.646262 2.158928,1.875219 0.343806,0.09155 0.709415,0.13151 1.403114,0.153327 0.895742,0.02817 1.269827,-0.006 2.154812,-0.196818 0.291665,-0.06288 0.204941,0.184209 -0.202369,0.576625 -0.274507,0.264466 -0.522381,0.426995 -1.011446,0.663201 -0.750442,0.362443 -1.264194,0.501606 -1.907443,0.516677 -0.252279,0.0059 -0.447804,0.02844 -0.434501,0.05006 0.0133,0.02163 0.505465,0.349581 1.093692,0.728803 1.722837,1.110691 3.250068,2.135979 3.942587,2.646811 0.354739,0.261668 0.662589,0.457887 0.684111,0.436039 0.02152,-0.02185 0.134899,-0.35635 0.251949,-0.743338 z"
         id="path1" /></g></g></svg>
