<?xml version="1.0" encoding="UTF-8" standalone="no"?>
<!-- Created with Inkscape (http://www.inkscape.org/) -->

<svg
   width="105.83334mm"
   height="105.83334mm"
   viewBox="0 0 105.83333 105.83333"
   version="1.1"
   id="svg1"
   xml:space="preserve"
   inkscape:version="1.4 (e7c3feb100, 2024-10-09)"
   sodipodi:docname="south-orange.svg"
   inkscape:export-filename="../pngs/charlotte.png"
   inkscape:export-xdpi="96"
   inkscape:export-ydpi="96"
   xmlns:inkscape="http://www.inkscape.org/namespaces/inkscape"
   xmlns:sodipodi="http://sodipodi.sourceforge.net/DTD/sodipodi-0.dtd"
   xmlns="http://www.w3.org/2000/svg"
   xmlns:svg="http://www.w3.org/2000/svg"><sodipodi:namedview
     id="namedview1"
     pagecolor="#ffffff"
     bordercolor="#000000"
     borderopacity="0.25"
     inkscape:showpageshadow="2"
     inkscape:pageopacity="0.0"
     inkscape:pagecheckerboard="0"
     inkscape:deskcolor="#d1d1d1"
     inkscape:document-units="mm"
     inkscape:zoom="0.99727873"
     inkscape:cx="309.84317"
     inkscape:cy="135.36837"
     inkscape:window-width="1920"
     inkscape:window-height="1011"
     inkscape:window-x="0"
     inkscape:window-y="32"
     inkscape:window-maximized="1"
     inkscape:current-layer="layer1"
     showgrid="false"
     showguides="true" /><defs
     id="defs1" /><g
     inkscape:label="Capa 1"
     inkscape:groupmode="layer"
     id="layer1"><g
       id="g4"
       transform="matrix(1.0280991,0,0,1.0280991,-105.03881,-3.4909731)"><path
         style="fill:#004488;fill-opacity:1;stroke:#a2aaad;stroke-width:1.752;stroke-dasharray:none;stroke-opacity:1"
         d="m 163.51668,99.625589 c -1.18421,-2.341221 -2.58486,-4.945702 -3.11255,-5.787723 -0.96044,-1.532516 -1.89228,-2.776422 -2.07962,-2.776074 -0.0549,1.07e-4 -0.35593,0.969227 -0.66906,2.153609 -0.31313,1.184373 -0.61033,2.200939 -0.66043,2.25902 -0.17553,0.203467 -3.00103,-2.456493 -4.23784,-3.989534 -0.6868,-0.851294 -1.61009,-2.159026 -2.05177,-2.906078 l -0.80303,-1.358267 -0.0419,1.415616 -0.0419,1.415617 -1.82183,-1.721687 c -2.02913,-1.9176 -2.55784,-2.628121 -2.91081,-3.911801 -0.13248,-0.48182 -0.27173,-0.970064 -0.30944,-1.084978 -0.0475,-0.144704 -0.32627,0.04608 -0.90678,0.62053 -0.46102,0.456209 -0.88314,0.829467 -0.93805,0.829467 -0.18422,0 -1.24754,-1.686675 -1.61601,-2.56338 -0.43531,-1.035744 -1.02144,-3.172614 -1.33656,-4.872732 -0.12547,-0.676945 -0.2538,-1.256485 -0.28517,-1.287856 -0.0314,-0.03135 -0.59419,0.276106 -1.25071,0.683285 -0.65651,0.407184 -1.24244,0.740334 -1.30207,0.740334 -0.12398,0 -0.96758,-3.540529 -1.18284,-4.964242 -0.0789,-0.521975 -0.14398,-2.066121 -0.14459,-3.431437 l -10e-4,-2.482391 -0.69346,-0.513303 c -0.89036,-0.659048 -1.95986,-2.077311 -2.38444,-3.161995 -0.25926,-0.662348 -0.33512,-1.157076 -0.34306,-2.237445 -0.0116,-1.578385 0.24728,-2.526315 0.95783,-3.507208 0.2423,-0.334483 0.41529,-0.633401 0.38443,-0.664263 -0.0309,-0.03087 -0.97197,-0.224964 -2.09135,-0.43134 -5.54374,-1.022064 -8.5036,-2.17272 -11.40278,-4.432847 -0.78441,-0.611507 -1.84165,-1.604605 -2.34943,-2.206885 -0.91133,-1.08094 -2.22674,-3.418486 -2.22674,-3.957031 0,-0.152446 -0.0657,-0.277173 -0.14601,-0.277173 -0.0889,0 -0.14601,-0.657031 -0.14601,-1.67908 0,-0.923495 0.0572,-1.679082 0.12704,-1.679082 0.0699,0 0.20962,-0.295006 0.31058,-0.65557 0.26768,-0.95607 1.47199,-2.702011 2.51986,-3.653169 1.73089,-1.571132 4.44292,-3.15644 7.21131,-4.215355 l 1.29277,-0.494483 1.89809,-2.63467 c 6.15235,-8.539842 11.15353,-13.958129 16.27979,-17.63755 3.57554,-2.566384 7.91617,-4.6619048 12.26459,-5.9209718 0.92349,-0.2673935 1.70098,-0.5356244 1.72775,-0.5960679 0.0268,-0.060441 0.18226,-0.1098972 0.34553,-0.1098972 0.33957,0 0.33998,-0.00339 -0.22437,1.8457886 -1.29987,4.2592793 -0.3237,7.8399403 2.38238,8.7387573 1.01533,0.337239 2.54235,0.308224 3.49269,-0.06637 2.63787,-1.039751 4.16215,-3.358829 4.35403,-6.6243173 l 0.0843,-1.4353955 1.37442,1.3623915 c 3.64302,3.6111383 6.30973,7.5862493 8.0847,12.0514383 0.56271,1.415578 1.36654,4.519709 1.6193,6.253209 0.27067,1.856385 0.22629,6.344552 -0.0806,8.157413 l -0.24492,1.446526 0.40547,0.562292 c 1.89155,2.623159 2.9315,4.628434 3.43275,6.619142 0.18198,0.722734 0.38015,1.335963 0.44038,1.362732 0.14889,0.06617 0.14012,4.258539 -0.009,4.258539 -0.0651,0 -0.20607,0.34204 -0.31321,0.76009 -0.61293,2.391549 -2.50876,4.571162 -5.11658,5.882483 -1.00078,0.503232 -3.17627,1.241808 -3.65778,1.241808 -0.46666,0 -0.33446,0.200473 0.66914,1.014741 1.44417,1.171725 3.40659,3.344912 4.28363,4.743725 1.77523,2.831349 2.11766,5.281345 1.42662,10.207153 -0.20108,1.433281 -0.38651,2.626725 -0.41208,2.652087 -0.0256,0.02539 -0.49563,-0.282061 -1.04459,-0.683164 -0.54895,-0.401108 -1.02384,-0.703533 -1.05531,-0.672062 -0.0315,0.03145 0.004,0.760869 0.0802,1.62088 0.26843,3.055316 -0.2714,7.109474 -1.48668,11.165157 -0.52297,1.74524 -2.01169,5.978477 -2.628,7.472798 l -0.20973,0.508531 -1.14924,-2.377246 -1.14924,-2.377245 -0.18863,0.737057 c -0.10375,0.405386 -0.33064,1.016351 -0.50421,1.357697 -0.48911,0.961887 -1.44512,2.315354 -1.5776,2.233471 -0.0655,-0.04053 -0.33674,-0.600649 -0.60268,-1.244762 -0.47283,-1.145232 -0.72233,-1.452915 -0.72233,-0.890783 0,0.776039 -1.65092,5.783491 -2.87546,8.721657 l -0.55707,1.33663 z m 2.45994,-1.588191 c 0.92075,-2.183416 1.67534,-5.746764 1.97967,-9.34846 l 0.16964,-2.007651 0.45949,0.766596 c 0.2527,0.421625 0.88001,1.505748 1.39401,2.409172 0.51399,0.903414 0.98272,1.642583 1.0416,1.642583 0.18647,0 0.98728,-1.788452 1.22719,-2.740665 0.26665,-1.058343 0.44012,-2.547147 0.42495,-3.647153 -0.006,-0.421593 0.0304,-0.766535 0.0805,-0.766535 0.37152,0 1.15569,2.479519 1.44789,4.578246 0.0767,0.550586 0.17277,1.03446 0.21358,1.075268 0.14606,0.146056 1.24571,-1.747404 1.68898,-2.908225 0.24844,-0.650596 0.62372,-2.010788 0.83396,-3.022649 0.33613,-1.617833 0.38375,-2.200766 0.39483,-4.832883 0.0124,-2.952845 -0.11773,-4.317716 -0.58156,-6.098462 -0.11538,-0.442986 -0.1796,-0.835623 -0.14269,-0.872529 0.14478,-0.144776 1.52483,0.436481 2.49514,1.050913 l 1.02204,0.647197 0.12626,-0.466212 c 0.21995,-0.812232 0.006,-3.856383 -0.35003,-4.992428 -0.76654,-2.442395 -1.58277,-3.591083 -4.87851,-6.865634 -1.43909,-1.429847 -2.77465,-2.900891 -3.14465,-3.463667 -0.35374,-0.538032 -0.6588,-0.962599 -0.67792,-0.943482 -0.0191,0.01912 0.0243,0.493665 0.0966,1.05455 0.16205,1.258389 0.17796,2.55313 0.0314,2.552076 -0.0602,-4.34e-4 -0.4264,-0.32921 -0.81372,-0.730614 -0.38731,-0.401403 -0.83081,-0.797579 -0.98555,-0.880391 -0.26189,-0.14016 -0.28133,-0.09518 -0.28133,0.650739 0,1.53935 -0.54089,1.987492 -1.78127,1.475829 -0.18959,-0.0782 -0.29876,0.01864 -0.46233,0.410099 -0.59954,1.434888 -1.80125,1.20291 -3.23728,-0.624922 -0.74864,-0.952908 -1.26965,-1.175995 -2.74647,-1.175995 -0.79145,0 -0.80185,0.0058 -1.32962,0.740398 -0.54097,0.752988 -1.41219,1.29398 -2.09434,1.300494 -0.64669,0.0061 -1.20594,-0.424582 -1.57202,-1.210851 -0.19386,-0.41637 -0.35311,-0.896657 -0.3539,-1.067302 -0.002,-0.388201 -0.45524,-0.492774 -2.13678,-0.492774 -0.67254,0 -1.22281,-0.0589 -1.22281,-0.130882 0,-0.224451 0.99873,-1.020436 1.772,-1.41228 0.40654,-0.20601 0.71203,-0.401695 0.67887,-0.434856 -0.0332,-0.03316 -0.61196,0.04376 -1.28622,0.170927 -1.65512,0.31217 -4.04531,0.219318 -4.96083,-0.192714 -0.793,-0.356889 -2.82981,-1.951508 -2.66933,-2.089814 0.0628,-0.05413 0.54647,-0.21162 1.0748,-0.349973 0.52832,-0.138353 1.26228,-0.395126 1.63102,-0.570608 l 0.67043,-0.319058 -0.64327,-1.087691 c -1.25255,-2.117891 -1.64282,-4.04404 -1.3662,-6.742621 l 0.17405,-1.698017 -0.53081,-0.859986 c -0.29195,-0.472992 -0.53082,-0.969793 -0.53082,-1.104002 0,-0.492209 -0.2915,-0.402097 -0.6725,0.207889 -0.21502,0.344253 -0.81702,1.268829 -1.33777,2.054614 l -0.94682,1.428699 0.37639,1.345435 c 0.44364,1.585839 0.86463,3.748388 1.1917,6.121543 0.2153,1.562227 0.28577,1.785009 0.81571,2.5786 2.40188,3.596844 1.29373,8.595476 -2.27384,10.256801 -1.1734,0.546421 -2.55077,0.753159 -3.82015,0.573392 -0.54754,-0.07754 -1.03645,-0.09442 -1.08646,-0.0375 -0.18034,0.205229 -0.4095,1.44365 -0.50687,2.739226 -0.0884,1.176335 0.12694,4.160358 0.32315,4.47783 0.0376,0.0609 0.76283,-0.482902 1.61154,-1.208444 0.84871,-0.72554 1.56016,-1.299756 1.581,-1.276034 0.0208,0.02372 -0.0262,0.503051 -0.10443,1.065178 -0.0783,0.562127 -0.11201,1.810486 -0.075,2.774134 0.0807,2.099085 0.41889,3.296887 1.26403,4.477114 0.55587,0.776253 1.26758,1.395431 1.42408,1.238925 0.041,-0.041 0.32719,-0.916829 0.63595,-1.946254 0.30875,-1.029431 0.56516,-1.82575 0.56979,-1.769601 0.005,0.05615 0.14423,0.805888 0.31023,1.666075 0.6685,3.464079 1.71343,5.82712 2.8806,6.514281 l 0.42814,0.25207 0.41545,-1.915455 0.41545,-1.91545 1.11437,2.32907 c 1.37556,2.874978 2.18145,4.244531 3.06794,5.213811 0.79512,0.86936 1.85274,1.535928 1.95551,1.232459 0.0358,-0.105774 0.23382,-1.53501 0.44,-3.176088 0.20618,-1.641079 0.4008,-3.009699 0.43249,-3.041386 0.11267,-0.112679 2.47784,2.7374 3.32422,4.005758 0.47322,0.709149 1.32492,2.242066 1.89268,3.406467 0.56775,1.164411 1.55486,3.188713 2.19356,4.498467 0.63871,1.309744 1.2292,2.358716 1.31222,2.331048 0.083,-0.0277 0.30757,-0.421768 0.49902,-0.875773 z M 141.78075,65.2353 c 1.68068,-0.523087 2.94005,-1.536674 3.53372,-2.844071 0.37667,-0.829515 0.37494,-2.469983 -0.004,-3.466385 -0.87477,-2.30221 -2.06642,-3.195537 -3.00743,-2.25453 -0.4683,0.468298 -0.45204,0.877497 0.0795,2.001124 0.52775,1.115573 0.55783,1.873897 0.10598,2.671666 -0.49971,0.882255 -1.38717,1.434579 -2.42575,1.509702 -1.08694,0.07862 -1.73141,-0.132957 -2.35047,-0.77166 -0.39941,-0.412087 -0.49978,-0.644504 -0.55241,-1.27912 -0.0402,-0.484901 0.0149,-0.965423 0.14701,-1.282248 0.17523,-0.420179 0.17976,-0.593987 0.0265,-1.01774 -0.10164,-0.281063 -0.1898,-0.823114 -0.19591,-1.204558 -0.0131,-0.817304 -0.14929,-0.857156 -0.92422,-0.270422 -0.95742,0.724916 -1.38449,1.41205 -1.55739,2.505793 -0.37321,2.360962 1.11653,4.880599 3.41955,5.78357 0.70413,0.276076 2.6975,0.23243 3.70494,-0.08113 z m -2.97491,-0.359694 c -1.98395,-0.515994 -3.36442,-1.956846 -3.11512,-3.251373 0.0374,-0.19441 0.18281,-0.05981 0.54501,0.504629 0.53041,0.826567 1.02002,1.252264 2.05908,1.790264 0.54591,0.282656 0.86694,0.337929 1.8981,0.326801 1.16503,-0.01258 1.46684,-0.08124 3.13915,-0.714176 0.2337,-0.08846 0.20841,-0.02068 -0.12667,0.339428 -0.87519,0.940546 -2.88285,1.398898 -4.39955,1.004427 z m 2.13914,-4.429286 c 0.409,-0.358487 0.46494,-1.129919 0.1296,-1.787229 -0.77714,-1.523328 0.0473,-3.807229 1.37426,-3.807229 0.29299,0 0.72655,0.100242 0.96347,0.222761 0.42029,0.217337 0.43077,0.214073 0.43077,-0.134099 0,-0.251123 -0.15317,-0.451525 -0.51696,-0.676356 -0.44064,-0.272333 -0.68312,-0.311811 -1.64257,-0.267421 l -1.12563,0.05208 0.0113,-0.602353 c 0.0152,-0.813841 0.29753,-1.442254 0.73811,-1.642998 0.43969,-0.200335 0.37083,-0.602961 -0.20906,-1.222316 -0.42625,-0.455268 -0.896,-0.510031 -1.42148,-0.165717 l -0.35988,0.235803 v -0.568334 c 0,-1.058968 0.71324,-1.557292 1.66172,-1.160992 0.62174,0.259779 1.59244,1.127977 2.00192,1.790534 0.17152,0.277527 0.34153,0.47492 0.3778,0.43865 0.22379,-0.223792 -1.03236,-3.255801 -1.60176,-3.866221 -0.84707,-0.908086 -2.3317,-1.206135 -3.14022,-0.630418 -0.70546,0.502331 -0.95138,1.355712 -0.87718,3.043889 0.0542,1.233185 0.12199,1.541017 0.49178,2.23337 0.35992,0.67389 0.42528,0.95567 0.40635,1.752085 -0.0124,0.521975 -0.0449,1.836039 -0.0721,2.920141 -0.045,1.788868 -0.0196,2.036277 0.27495,2.67614 0.42489,0.923065 1.13811,1.598102 1.55471,1.471477 0.17002,-0.05168 0.4176,-0.189038 0.55018,-0.305244 z m 26.779,-0.842079 c 0.24658,-0.376339 0.21731,-0.62894 -0.18176,-1.568676 -0.20325,-0.478626 -0.3464,-0.581455 -1.2691,-0.911635 -1.71143,-0.612421 -2.71424,-0.827359 -4.25216,-0.911384 l -1.46007,-0.07977 -1.32301,0.670399 c -0.72765,0.368719 -1.7789,0.78018 -2.33611,0.914358 -1.40997,0.339525 -1.4281,0.345179 -1.35177,0.421503 0.0375,0.03749 1.64018,0.13026 3.56156,0.20618 3.89808,0.154024 5.218,0.362079 6.99759,1.103012 0.64244,0.267474 1.21582,0.49252 1.2742,0.5001 0.0584,0.0076 0.21166,-0.147259 0.34063,-0.344086 z m 2.60343,-1.357715 c -0.26223,-1.113914 -1.02223,-3.282933 -1.44524,-4.124699 -0.54998,-1.094408 -1.44208,-2.327548 -2.00305,-2.768816 -0.98041,-0.771189 -2.21249,-0.935667 -3.30279,-0.440912 l -0.63473,0.288028 -0.59107,-0.505932 c -1.47889,-1.265881 -3.0132,-1.042691 -6.19759,0.901544 -4.52879,2.765063 -5.58697,3.274332 -7.50925,3.613989 l -1.07743,0.190377 0.54829,0.239181 c 1.28843,0.562053 2.41808,0.707257 4.85397,0.623923 4.26376,-0.145869 7.88757,-1.311688 9.26264,-2.979899 l 0.42108,-0.51084 0.21943,0.419166 c 0.2749,0.525131 1.05645,1.268156 1.63141,1.550994 0.24091,0.118511 0.89795,0.365621 1.46007,0.549135 1.37966,0.45041 2.29953,1.066934 3.43117,2.299684 0.52197,0.568615 0.96672,1.038964 0.98833,1.045221 0.0216,0.0062 -0.003,-0.169308 -0.0552,-0.390144 z m 6.07524,-2.399581 c 2.60043,-0.826213 4.57825,-2.337473 5.4398,-4.156553 0.45936,-0.969913 0.47337,-1.056342 0.46963,-2.897822 -0.003,-1.760441 -0.0386,-1.998682 -0.48278,-3.285158 -0.61222,-1.773135 -1.6874,-3.901851 -2.93836,-5.817586 l -0.98626,-1.510377 0.19309,-0.898739 c 0.1062,-0.494307 0.26949,-1.807553 0.36287,-2.918326 0.60847,-7.237954 -2.02333,-15.118576 -6.72887,-20.148812 l -0.92522,-0.989065 -0.26987,1.066225 c -0.81103,3.204277 -2.85989,5.087257 -6.01255,5.525751 -3.06861,0.426805 -6.60193,-1.364865 -7.94579,-4.029138 -0.75901,-1.504784 -0.97044,-2.439883 -0.97635,-4.318093 l -0.005,-1.6976003 -0.80304,0.3551253 c -1.07511,0.475443 -2.99274,1.522401 -4.59922,2.511015 -8.01398,4.931729 -15.06731,12.232623 -20.07306,20.777624 -0.89136,1.521591 -0.93374,1.567602 -1.73585,1.884901 -1.36896,0.541536 -3.97206,1.87481 -5.05639,2.589824 -1.58547,1.045472 -3.43317,2.964026 -4.02854,4.183034 -0.45415,0.929856 -0.49768,1.134181 -0.49768,2.336113 0,1.111476 0.0589,1.442521 0.37703,2.120172 0.87326,1.859945 3.18766,3.918879 5.90128,5.24989 2.60432,1.277399 5.32561,1.872316 9.18475,2.007931 l 2.46843,0.08675 -0.0938,-0.350621 c -0.0516,-0.192841 -0.0947,-0.423715 -0.0958,-0.513051 -0.001,-0.09863 -0.50142,-0.202953 -1.27357,-0.265605 -4.0465,-0.328332 -8.03132,-1.544407 -10.55222,-3.220296 -3.39284,-2.255557 -4.31407,-5.530951 -2.33352,-8.296757 1.30344,-1.820228 4.14859,-3.310299 7.47216,-3.913341 l 0.98022,-0.177855 1.00175,-1.843183 c 5.3405,-9.826392 13.33535,-18.19278 20.47071,-21.42205 l 1.38583,-0.627192 0.25884,1.05644 c 0.87679,3.578525 3.35214,6.038461 7.11698,7.072661 1.34438,0.369302 4.82757,0.364042 6.05166,-0.0091 1.90821,-0.581745 3.61797,-1.763524 4.25039,-2.937859 0.15228,-0.282755 0.32468,-0.5141 0.38312,-0.5141 0.0584,0 0.5046,0.604659 0.99147,1.343685 1.67881,2.548319 3.03267,5.776317 3.68338,8.78223 0.265,1.224151 0.32191,1.963759 0.32752,4.255779 0.007,2.856731 -0.11816,3.825394 -0.77389,5.990436 l -0.26658,0.880188 0.86325,0.944899 c 1.82354,1.995997 3.3457,4.704615 3.77884,6.724274 0.26421,1.231933 0.0958,3.148167 -0.36521,4.155098 -0.84779,1.851821 -2.43285,3.323688 -4.79959,4.456851 -1.1121,0.532459 -1.24704,0.636195 -1.03205,0.7934 0.26771,0.195752 0.53708,0.148582 2.23843,-0.391975 z m -24.53442,-3.119554 c 0.54258,-0.285117 1.70199,-1.11067 2.57647,-1.834563 1.60024,-1.324673 3.14031,-2.207789 4.1816,-2.397841 0.61874,-0.112931 0.64404,-0.156806 0.30588,-0.530461 -0.32805,-0.362495 -1.22262,-0.345293 -1.97385,0.03796 -0.32878,0.16773 -1.03911,0.71946 -1.57852,1.226065 -1.00297,0.94199 -1.51503,1.273204 -2.23576,1.446157 l -0.40849,0.09803 0.59832,-0.756938 c 0.32908,-0.416315 0.84142,-1.270713 1.13853,-1.898661 l 0.54021,-1.141723 0.58403,-0.0053 c 0.73586,-0.0067 1.70557,-0.562303 3.06615,-1.756703 1.01089,-0.88743 1.74906,-1.312039 2.28094,-1.312039 0.4496,0 0.31892,0.291707 -0.52886,1.180518 -0.85464,0.896007 -1.00829,1.403681 -0.59537,1.96723 0.29428,0.401634 1.48349,0.341939 2.80558,-0.140832 l 1.04216,-0.380549 0.78293,0.364472 c 0.8227,0.38298 1.70451,0.470441 2.1796,0.216179 0.36671,-0.196258 0.36043,-0.268953 -0.14375,-1.66336 -0.23439,-0.648252 -0.73183,-2.031668 -1.10541,-3.074257 -0.37359,-1.042589 -0.75233,-1.983662 -0.84163,-2.091272 -0.22206,-0.267561 -1.10313,-0.70094 -1.67671,-0.824735 -0.36202,-0.07813 -0.57542,-0.02891 -0.91116,0.210147 -0.24112,0.171698 -0.66676,0.349235 -0.94586,0.394526 -0.40559,0.06582 -0.50112,0.143549 -0.47591,0.387256 0.0324,0.31324 -0.1482,0.453603 -2.25751,1.754552 -0.6669,0.411319 -0.93002,0.509653 -0.97671,0.365018 -0.0351,-0.108882 -0.27745,-0.401046 -0.53844,-0.649253 -0.54629,-0.519537 -1.69709,-0.887426 -3.56916,-1.140994 l -1.24106,-0.168098 1.9711,-0.623792 c 2.61174,-0.826537 2.48552,-0.767141 1.97109,-0.927568 -0.24091,-0.07513 -1.25931,-0.103054 -2.26311,-0.06205 -1.71146,0.06991 -1.79447,0.0609 -1.33342,-0.144832 0.70115,-0.312858 1.92669,-0.606226 3.4915,-0.835792 l 1.35503,-0.198792 0.75651,0.564429 c 1.41885,1.058603 2.3007,1.069608 2.3007,0.02871 0,-0.57775 0.0817,-0.604433 0.53811,-0.175681 0.22186,0.208417 0.33793,0.484257 0.33793,0.803039 0,0.267065 0.0722,0.485573 0.16045,0.485573 0.25341,0 1.15362,-0.458821 1.15362,-0.587981 0,-0.347337 -3.98541,-2.120615 -6.76267,-3.008995 l -1.2874,-0.411811 -1.04871,0.540175 c -0.57679,0.297096 -1.81375,1.036618 -2.7488,1.643382 -1.53889,0.998608 -1.70935,1.152611 -1.79783,1.624267 -0.15276,0.81427 -0.11761,2.827609 0.0633,3.625348 0.37283,1.644067 1.54095,3.174817 3.05241,4.000003 0.72715,0.396989 0.76332,0.441103 0.48412,0.590524 -0.4935,0.264116 -2.21043,0.192118 -2.90156,-0.121677 -0.72228,-0.327935 -0.77952,-0.260209 -0.77396,0.915632 0.005,1.02961 0.22454,1.902738 0.74445,2.958979 0.40486,0.822506 1.21342,1.956817 1.39486,1.956817 0.0426,0 0.52145,-0.233277 1.06403,-0.518394 z m 17.61073,-1.861758 c 0.35582,-1.146955 0.42489,-1.913166 0.26153,-2.901101 -0.0693,-0.41915 -0.17072,-0.556626 -0.46509,-0.630509 -0.20704,-0.05197 -0.58697,-0.317694 -0.84426,-0.590509 l -0.46782,-0.496026 0.18815,0.71323 c 0.22033,0.835243 0.0852,1.142931 -0.92985,2.116996 -0.33079,0.317437 -0.60144,0.621557 -0.60144,0.67582 0,0.05426 0.19741,0.180432 0.43869,0.280375 0.54912,0.227453 1.23598,1.000099 1.65169,1.857984 0.22808,0.470678 0.33243,0.580276 0.36688,0.385307 0.0265,-0.149862 0.20717,-0.785066 0.40152,-1.411567 z m 1.44321,-4.810695 c 0.22157,-0.315986 0.21399,-0.331896 -0.19876,-0.417133 -1.29833,-0.268119 -2.57078,-1.601017 -3.85231,-4.035304 -0.80161,-1.522684 -0.92848,-1.6632 -2.59468,-2.873752 -1.93291,-1.404329 -6.72162,-3.658462 -7.56095,-3.559072 -0.26467,0.03135 0.1988,0.268705 1.58992,0.814262 2.31349,0.907284 4.32146,1.959557 6.0532,3.172166 l 1.25108,0.876042 1.07871,2.190106 c 1.17723,2.390133 1.98079,3.460664 2.91673,3.885783 0.77863,0.353662 1.03921,0.343156 1.31706,-0.0531 z m -11.77469,-5.340694 c 0.0344,-0.233573 -0.0288,-0.31708 -0.2399,-0.31708 -0.34348,0 -0.5067,0.336715 -0.27535,0.568062 0.23296,0.232956 0.46033,0.122198 0.51525,-0.250982 z m -1.87175,-0.06887 c 0,-0.184699 0.0788,-0.41466 0.17521,-0.511025 0.2275,-0.227501 -0.24117,-0.233217 -1.42596,-0.01739 -1.02542,0.186796 -1.37261,0.422463 -0.64004,0.434448 0.27705,0.0045 0.73368,0.09525 1.01475,0.20159 0.74536,0.282013 0.87604,0.265959 0.87604,-0.107627 z m 12.19477,-1.23376 c -0.12749,-0.682228 -0.16371,-0.72499 -1.4463,-1.707376 -2.54081,-1.946105 -5.07475,-2.977627 -7.60932,-3.097621 l -1.46007,-0.06913 1.4834,0.646294 c 2.39388,1.042985 4.72173,2.403717 6.36351,3.71976 0.31565,0.253016 0.80914,0.479058 1.16806,0.535018 0.34182,0.0533 0.78576,0.1899 0.98651,0.303564 0.55245,0.312783 0.62564,0.265743 0.51421,-0.330516 z"
         id="path1-3" /><path
         style="fill:#ffffff;fill-opacity:1;stroke-width:2.828"
         d="m 133.2063,47.103488 23.4499,-17.352925 c 0,0 13.60094,3.939582 13.88233,4.314782 0.2814,0.375198 3.18919,14.257536 3.18919,14.257536 l -5.06518,11.443549 c 0,0 -26.73288,11.443552 -27.10808,10.786954 -0.3752,-0.656598 -8.34816,-7.785367 -8.34816,-7.785367 l 1.40699,-13.13194 z"
         id="path4" /><path
         style="fill:#a2aaad;fill-opacity:1;stroke-width:2.828"
         d="m 137.33348,54.888852 0.5628,-16.039729 28.04607,-13.976139 c 0,0 6.84737,12.944343 6.84737,13.507141 0,0.562798 0.0938,18.197121 0.0938,18.197121 l 1.9698,0.750395 c 0,0 6.19077,-2.251189 6.56597,-2.813986 0.37519,-0.562798 2.25119,-5.534176 2.25119,-5.534176 l -4.22099,-11.255952 -0.46899,-11.912546 -7.12877,-13.976139 -1.68839,0.750397 -5.44038,5.909373 -4.22098,-0.750396 -3.37679,-4.877579 -0.37519,-4.2209813 -9.84896,3.9395833 -11.25595,10.693153 -7.59777,10.505553 c 0,0 -9.09856,5.534176 -9.47376,5.815576 -0.3752,0.281397 -1.50079,6.472171 -1.50079,6.472171 l 4.50238,5.909374 8.62956,3.001586 z"
         id="path2" /><path
         style="fill:#a2aaad;fill-opacity:1;stroke-width:2.828"
         d="m 146.52584,41.100314 2.25119,4.22098 -0.5628,4.68998 2.43879,3.751983 8.53576,-4.31478 5.25278,0.281397 3.37679,1.594594 5.44037,6.753571 7.87917,10.036556 -0.2814,7.785365 -2.43879,-1.594594 -1.50079,16.13353 -3.09539,0.844198 -2.72019,1.59459 -2.15739,-1.500793 -1.59459,6.096974 -1.59459,3.751975 c 0,0 -7.97297,-13.413331 -8.16057,-12.662936 -0.1876,0.750398 -1.40699,5.252779 -1.40699,5.252779 0,0 -5.90938,-9.286161 -6.28458,-8.629563 -0.37519,0.656595 -1.31319,2.907787 -1.31319,2.907787 l -3.37678,-6.284571 -2.345,1.313193 -2.90778,-7.691567 -2.72019,0.468998 -0.2814,-9.567559 4.31478,-0.0938 3.75199,-1.313196 1.21939,-2.907787 c 0,0 -0.938,-5.346575 -1.03179,-5.721775 -0.0938,-0.375198 -3.37679,-11.724947 -3.37679,-11.724947 z"
         id="path3" /><path
         style="fill:#004488;fill-opacity:1;stroke-width:0.551838"
         d="m 163.51668,99.625589 c -1.18421,-2.341221 -2.58486,-4.945702 -3.11255,-5.787723 -0.96044,-1.532516 -1.89228,-2.776422 -2.07962,-2.776074 -0.0549,1.07e-4 -0.35593,0.969227 -0.66906,2.153609 -0.31313,1.184373 -0.61033,2.200939 -0.66043,2.25902 -0.17553,0.203467 -3.00103,-2.456493 -4.23784,-3.989534 -0.6868,-0.851294 -1.61009,-2.159026 -2.05177,-2.906078 l -0.80303,-1.358267 -0.0419,1.415616 -0.0419,1.415617 -1.82183,-1.721687 c -2.02913,-1.9176 -2.55784,-2.628121 -2.91081,-3.911801 -0.13248,-0.48182 -0.27173,-0.970064 -0.30944,-1.084978 -0.0475,-0.144704 -0.32627,0.04608 -0.90678,0.62053 -0.46102,0.456209 -0.88314,0.829467 -0.93805,0.829467 -0.18422,0 -1.24754,-1.686675 -1.61601,-2.56338 -0.43531,-1.035744 -1.02144,-3.172614 -1.33656,-4.872732 -0.12547,-0.676945 -0.2538,-1.256485 -0.28517,-1.287856 -0.0314,-0.03135 -0.59419,0.276106 -1.25071,0.683285 -0.65651,0.407184 -1.24244,0.740334 -1.30207,0.740334 -0.12398,0 -0.96758,-3.540529 -1.18284,-4.964242 -0.0789,-0.521975 -0.14398,-2.066121 -0.14459,-3.431437 l -10e-4,-2.482391 -0.69346,-0.513303 c -0.89036,-0.659048 -1.95986,-2.077311 -2.38444,-3.161995 -0.25926,-0.662348 -0.33512,-1.157076 -0.34306,-2.237445 -0.0116,-1.578385 0.24728,-2.526315 0.95783,-3.507208 0.2423,-0.334483 0.41529,-0.633401 0.38443,-0.664263 -0.0309,-0.03087 -0.97197,-0.224964 -2.09135,-0.43134 -5.54374,-1.022064 -8.5036,-2.17272 -11.40278,-4.432847 -0.78441,-0.611507 -1.84165,-1.604605 -2.34943,-2.206885 -0.91133,-1.08094 -2.22674,-3.418486 -2.22674,-3.957031 0,-0.152446 -0.0657,-0.277173 -0.14601,-0.277173 -0.0889,0 -0.14601,-0.657031 -0.14601,-1.67908 0,-0.923495 0.0572,-1.679082 0.12704,-1.679082 0.0699,0 0.20962,-0.295006 0.31058,-0.65557 0.26768,-0.95607 1.47199,-2.702011 2.51986,-3.653169 1.73089,-1.571132 4.44292,-3.15644 7.21131,-4.215355 l 1.29277,-0.494483 1.89809,-2.63467 c 6.15235,-8.539842 11.15353,-13.958129 16.27979,-17.63755 3.57554,-2.566384 7.91617,-4.6619048 12.26459,-5.9209718 0.92349,-0.2673935 1.70098,-0.5356244 1.72775,-0.5960679 0.0268,-0.060441 0.18226,-0.1098972 0.34553,-0.1098972 0.33957,0 0.33998,-0.00339 -0.22437,1.8457886 -1.29987,4.2592793 -0.3237,7.8399403 2.38238,8.7387573 1.01533,0.337239 2.54235,0.308224 3.49269,-0.06637 2.63787,-1.039751 4.16215,-3.358829 4.35403,-6.6243173 l 0.0843,-1.4353955 1.37442,1.3623915 c 3.64302,3.6111383 6.30973,7.5862493 8.0847,12.0514383 0.56271,1.415578 1.36654,4.519709 1.6193,6.253209 0.27067,1.856385 0.22629,6.344552 -0.0806,8.157413 l -0.24492,1.446526 0.40547,0.562292 c 1.89155,2.623159 2.9315,4.628434 3.43275,6.619142 0.18198,0.722734 0.38015,1.335963 0.44038,1.362732 0.14889,0.06617 0.14012,4.258539 -0.009,4.258539 -0.0651,0 -0.20607,0.34204 -0.31321,0.76009 -0.61293,2.391549 -2.50876,4.571162 -5.11658,5.882483 -1.00078,0.503232 -3.17627,1.241808 -3.65778,1.241808 -0.46666,0 -0.33446,0.200473 0.66914,1.014741 1.44417,1.171725 3.40659,3.344912 4.28363,4.743725 1.77523,2.831349 2.11766,5.281345 1.42662,10.207153 -0.20108,1.433281 -0.38651,2.626725 -0.41208,2.652087 -0.0256,0.02539 -0.49563,-0.282061 -1.04459,-0.683164 -0.54895,-0.401108 -1.02384,-0.703533 -1.05531,-0.672062 -0.0315,0.03145 0.004,0.760869 0.0802,1.62088 0.26843,3.055316 -0.2714,7.109474 -1.48668,11.165157 -0.52297,1.74524 -2.01169,5.978477 -2.628,7.472798 l -0.20973,0.508531 -1.14924,-2.377246 -1.14924,-2.377245 -0.18863,0.737057 c -0.10375,0.405386 -0.33064,1.016351 -0.50421,1.357697 -0.48911,0.961887 -1.44512,2.315354 -1.5776,2.233471 -0.0655,-0.04053 -0.33674,-0.600649 -0.60268,-1.244762 -0.47283,-1.145232 -0.72233,-1.452915 -0.72233,-0.890783 0,0.776039 -1.65092,5.783491 -2.87546,8.721657 l -0.55707,1.33663 z m 2.45994,-1.588191 c 0.92075,-2.183416 1.67534,-5.746764 1.97967,-9.34846 l 0.16964,-2.007651 0.45949,0.766596 c 0.2527,0.421625 0.88001,1.505748 1.39401,2.409172 0.51399,0.903414 0.98272,1.642583 1.0416,1.642583 0.18647,0 0.98728,-1.788452 1.22719,-2.740665 0.26665,-1.058343 0.44012,-2.547147 0.42495,-3.647153 -0.006,-0.421593 0.0304,-0.766535 0.0805,-0.766535 0.37152,0 1.15569,2.479519 1.44789,4.578246 0.0767,0.550586 0.17277,1.03446 0.21358,1.075268 0.14606,0.146056 1.24571,-1.747404 1.68898,-2.908225 0.24844,-0.650596 0.62372,-2.010788 0.83396,-3.022649 0.33613,-1.617833 0.38375,-2.200766 0.39483,-4.832883 0.0124,-2.952845 -0.11773,-4.317716 -0.58156,-6.098462 -0.11538,-0.442986 -0.1796,-0.835623 -0.14269,-0.872529 0.14478,-0.144776 1.52483,0.436481 2.49514,1.050913 l 1.02204,0.647197 0.12626,-0.466212 c 0.21995,-0.812232 0.006,-3.856383 -0.35003,-4.992428 -0.76654,-2.442395 -1.58277,-3.591083 -4.87851,-6.865634 -1.43909,-1.429847 -2.77465,-2.900891 -3.14465,-3.463667 -0.35374,-0.538032 -0.6588,-0.962599 -0.67792,-0.943482 -0.0191,0.01912 0.0243,0.493665 0.0966,1.05455 0.16205,1.258389 0.17796,2.55313 0.0314,2.552076 -0.0602,-4.34e-4 -0.4264,-0.32921 -0.81372,-0.730614 -0.38731,-0.401403 -0.83081,-0.797579 -0.98555,-0.880391 -0.26189,-0.14016 -0.28133,-0.09518 -0.28133,0.650739 0,1.53935 -0.54089,1.987492 -1.78127,1.475829 -0.18959,-0.0782 -0.29876,0.01864 -0.46233,0.410099 -0.59954,1.434888 -1.80125,1.20291 -3.23728,-0.624922 -0.74864,-0.952908 -1.26965,-1.175995 -2.74647,-1.175995 -0.79145,0 -0.80185,0.0058 -1.32962,0.740398 -0.54097,0.752988 -1.41219,1.29398 -2.09434,1.300494 -0.64669,0.0061 -1.20594,-0.424582 -1.57202,-1.210851 -0.19386,-0.41637 -0.35311,-0.896657 -0.3539,-1.067302 -0.002,-0.388201 -0.45524,-0.492774 -2.13678,-0.492774 -0.67254,0 -1.22281,-0.0589 -1.22281,-0.130882 0,-0.224451 0.99873,-1.020436 1.772,-1.41228 0.40654,-0.20601 0.71203,-0.401695 0.67887,-0.434856 -0.0332,-0.03316 -0.61196,0.04376 -1.28622,0.170927 -1.65512,0.31217 -4.04531,0.219318 -4.96083,-0.192714 -0.793,-0.356889 -2.82981,-1.951508 -2.66933,-2.089814 0.0628,-0.05413 0.54647,-0.21162 1.0748,-0.349973 0.52832,-0.138353 1.26228,-0.395126 1.63102,-0.570608 l 0.67043,-0.319058 -0.64327,-1.087691 c -1.25255,-2.117891 -1.64282,-4.04404 -1.3662,-6.742621 l 0.17405,-1.698017 -0.53081,-0.859986 c -0.29195,-0.472992 -0.53082,-0.969793 -0.53082,-1.104002 0,-0.492209 -0.2915,-0.402097 -0.6725,0.207889 -0.21502,0.344253 -0.81702,1.268829 -1.33777,2.054614 l -0.94682,1.428699 0.37639,1.345435 c 0.44364,1.585839 0.86463,3.748388 1.1917,6.121543 0.2153,1.562227 0.28577,1.785009 0.81571,2.5786 2.40188,3.596844 1.29373,8.595476 -2.27384,10.256801 -1.1734,0.546421 -2.55077,0.753159 -3.82015,0.573392 -0.54754,-0.07754 -1.03645,-0.09442 -1.08646,-0.0375 -0.18034,0.205229 -0.4095,1.44365 -0.50687,2.739226 -0.0884,1.176335 0.12694,4.160358 0.32315,4.47783 0.0376,0.0609 0.76283,-0.482902 1.61154,-1.208444 0.84871,-0.72554 1.56016,-1.299756 1.581,-1.276034 0.0208,0.02372 -0.0262,0.503051 -0.10443,1.065178 -0.0783,0.562127 -0.11201,1.810486 -0.075,2.774134 0.0807,2.099085 0.41889,3.296887 1.26403,4.477114 0.55587,0.776253 1.26758,1.395431 1.42408,1.238925 0.041,-0.041 0.32719,-0.916829 0.63595,-1.946254 0.30875,-1.029431 0.56516,-1.82575 0.56979,-1.769601 0.005,0.05615 0.14423,0.805888 0.31023,1.666075 0.6685,3.464079 1.71343,5.82712 2.8806,6.514281 l 0.42814,0.25207 0.41545,-1.915455 0.41545,-1.91545 1.11437,2.32907 c 1.37556,2.874978 2.18145,4.244531 3.06794,5.213811 0.79512,0.86936 1.85274,1.535928 1.95551,1.232459 0.0358,-0.105774 0.23382,-1.53501 0.44,-3.176088 0.20618,-1.641079 0.4008,-3.009699 0.43249,-3.041386 0.11267,-0.112679 2.47784,2.7374 3.32422,4.005758 0.47322,0.709149 1.32492,2.242066 1.89268,3.406467 0.56775,1.164411 1.55486,3.188713 2.19356,4.498467 0.63871,1.309744 1.2292,2.358716 1.31222,2.331048 0.083,-0.0277 0.30757,-0.421768 0.49902,-0.875773 z M 141.78075,65.2353 c 1.68068,-0.523087 2.94005,-1.536674 3.53372,-2.844071 0.37667,-0.829515 0.37494,-2.469983 -0.004,-3.466385 -0.87477,-2.30221 -2.06642,-3.195537 -3.00743,-2.25453 -0.4683,0.468298 -0.45204,0.877497 0.0795,2.001124 0.52775,1.115573 0.55783,1.873897 0.10598,2.671666 -0.49971,0.882255 -1.38717,1.434579 -2.42575,1.509702 -1.08694,0.07862 -1.73141,-0.132957 -2.35047,-0.77166 -0.39941,-0.412087 -0.49978,-0.644504 -0.55241,-1.27912 -0.0402,-0.484901 0.0149,-0.965423 0.14701,-1.282248 0.17523,-0.420179 0.17976,-0.593987 0.0265,-1.01774 -0.10164,-0.281063 -0.1898,-0.823114 -0.19591,-1.204558 -0.0131,-0.817304 -0.14929,-0.857156 -0.92422,-0.270422 -0.95742,0.724916 -1.38449,1.41205 -1.55739,2.505793 -0.37321,2.360962 1.11653,4.880599 3.41955,5.78357 0.70413,0.276076 2.6975,0.23243 3.70494,-0.08113 z m -2.97491,-0.359694 c -1.98395,-0.515994 -3.36442,-1.956846 -3.11512,-3.251373 0.0374,-0.19441 0.18281,-0.05981 0.54501,0.504629 0.53041,0.826567 1.02002,1.252264 2.05908,1.790264 0.54591,0.282656 0.86694,0.337929 1.8981,0.326801 1.16503,-0.01258 1.46684,-0.08124 3.13915,-0.714176 0.2337,-0.08846 0.20841,-0.02068 -0.12667,0.339428 -0.87519,0.940546 -2.88285,1.398898 -4.39955,1.004427 z m 2.13914,-4.429286 c 0.409,-0.358487 0.46494,-1.129919 0.1296,-1.787229 -0.77714,-1.523328 0.0473,-3.807229 1.37426,-3.807229 0.29299,0 0.72655,0.100242 0.96347,0.222761 0.42029,0.217337 0.43077,0.214073 0.43077,-0.134099 0,-0.251123 -0.15317,-0.451525 -0.51696,-0.676356 -0.44064,-0.272333 -0.68312,-0.311811 -1.64257,-0.267421 l -1.12563,0.05208 0.0113,-0.602353 c 0.0152,-0.813841 0.29753,-1.442254 0.73811,-1.642998 0.43969,-0.200335 0.37083,-0.602961 -0.20906,-1.222316 -0.42625,-0.455268 -0.896,-0.510031 -1.42148,-0.165717 l -0.35988,0.235803 v -0.568334 c 0,-1.058968 0.71324,-1.557292 1.66172,-1.160992 0.62174,0.259779 1.59244,1.127977 2.00192,1.790534 0.17152,0.277527 0.34153,0.47492 0.3778,0.43865 0.22379,-0.223792 -1.03236,-3.255801 -1.60176,-3.866221 -0.84707,-0.908086 -2.3317,-1.206135 -3.14022,-0.630418 -0.70546,0.502331 -0.95138,1.355712 -0.87718,3.043889 0.0542,1.233185 0.12199,1.541017 0.49178,2.23337 0.35992,0.67389 0.42528,0.95567 0.40635,1.752085 -0.0124,0.521975 -0.0449,1.836039 -0.0721,2.920141 -0.045,1.788868 -0.0196,2.036277 0.27495,2.67614 0.42489,0.923065 1.13811,1.598102 1.55471,1.471477 0.17002,-0.05168 0.4176,-0.189038 0.55018,-0.305244 z m 26.779,-0.842079 c 0.24658,-0.376339 0.21731,-0.62894 -0.18176,-1.568676 -0.20325,-0.478626 -0.3464,-0.581455 -1.2691,-0.911635 -1.71143,-0.612421 -2.71424,-0.827359 -4.25216,-0.911384 l -1.46007,-0.07977 -1.32301,0.670399 c -0.72765,0.368719 -1.7789,0.78018 -2.33611,0.914358 -1.40997,0.339525 -1.4281,0.345179 -1.35177,0.421503 0.0375,0.03749 1.64018,0.13026 3.56156,0.20618 3.89808,0.154024 5.218,0.362079 6.99759,1.103012 0.64244,0.267474 1.21582,0.49252 1.2742,0.5001 0.0584,0.0076 0.21166,-0.147259 0.34063,-0.344086 z m 2.60343,-1.357715 c -0.26223,-1.113914 -1.02223,-3.282933 -1.44524,-4.124699 -0.54998,-1.094408 -1.44208,-2.327548 -2.00305,-2.768816 -0.98041,-0.771189 -2.21249,-0.935667 -3.30279,-0.440912 l -0.63473,0.288028 -0.59107,-0.505932 c -1.47889,-1.265881 -3.0132,-1.042691 -6.19759,0.901544 -4.52879,2.765063 -5.58697,3.274332 -7.50925,3.613989 l -1.07743,0.190377 0.54829,0.239181 c 1.28843,0.562053 2.41808,0.707257 4.85397,0.623923 4.26376,-0.145869 7.88757,-1.311688 9.26264,-2.979899 l 0.42108,-0.51084 0.21943,0.419166 c 0.2749,0.525131 1.05645,1.268156 1.63141,1.550994 0.24091,0.118511 0.89795,0.365621 1.46007,0.549135 1.37966,0.45041 2.29953,1.066934 3.43117,2.299684 0.52197,0.568615 0.96672,1.038964 0.98833,1.045221 0.0216,0.0062 -0.003,-0.169308 -0.0552,-0.390144 z m 6.07524,-2.399581 c 2.60043,-0.826213 4.57825,-2.337473 5.4398,-4.156553 0.45936,-0.969913 0.47337,-1.056342 0.46963,-2.897822 -0.003,-1.760441 -0.0386,-1.998682 -0.48278,-3.285158 -0.61222,-1.773135 -1.6874,-3.901851 -2.93836,-5.817586 l -0.98626,-1.510377 0.19309,-0.898739 c 0.1062,-0.494307 0.26949,-1.807553 0.36287,-2.918326 0.60847,-7.237954 -2.02333,-15.118576 -6.72887,-20.148812 l -0.92522,-0.989065 -0.26987,1.066225 c -0.81103,3.204277 -2.85989,5.087257 -6.01255,5.525751 -3.06861,0.426805 -6.60193,-1.364865 -7.94579,-4.029138 -0.75901,-1.504784 -0.97044,-2.439883 -0.97635,-4.318093 l -0.005,-1.6976003 -0.80304,0.3551253 c -1.07511,0.475443 -2.99274,1.522401 -4.59922,2.511015 -8.01398,4.931729 -15.06731,12.232623 -20.07306,20.777624 -0.89136,1.521591 -0.93374,1.567602 -1.73585,1.884901 -1.36896,0.541536 -3.97206,1.87481 -5.05639,2.589824 -1.58547,1.045472 -3.43317,2.964026 -4.02854,4.183034 -0.45415,0.929856 -0.49768,1.134181 -0.49768,2.336113 0,1.111476 0.0589,1.442521 0.37703,2.120172 0.87326,1.859945 3.18766,3.918879 5.90128,5.24989 2.60432,1.277399 5.32561,1.872316 9.18475,2.007931 l 2.46843,0.08675 -0.0938,-0.350621 c -0.0516,-0.192841 -0.0947,-0.423715 -0.0958,-0.513051 -0.001,-0.09863 -0.50142,-0.202953 -1.27357,-0.265605 -4.0465,-0.328332 -8.03132,-1.544407 -10.55222,-3.220296 -3.39284,-2.255557 -4.31407,-5.530951 -2.33352,-8.296757 1.30344,-1.820228 4.14859,-3.310299 7.47216,-3.913341 l 0.98022,-0.177855 1.00175,-1.843183 c 5.3405,-9.826392 13.33535,-18.19278 20.47071,-21.42205 l 1.38583,-0.627192 0.25884,1.05644 c 0.87679,3.578525 3.35214,6.038461 7.11698,7.072661 1.34438,0.369302 4.82757,0.364042 6.05166,-0.0091 1.90821,-0.581745 3.61797,-1.763524 4.25039,-2.937859 0.15228,-0.282755 0.32468,-0.5141 0.38312,-0.5141 0.0584,0 0.5046,0.604659 0.99147,1.343685 1.67881,2.548319 3.03267,5.776317 3.68338,8.78223 0.265,1.224151 0.32191,1.963759 0.32752,4.255779 0.007,2.856731 -0.11816,3.825394 -0.77389,5.990436 l -0.26658,0.880188 0.86325,0.944899 c 1.82354,1.995997 3.3457,4.704615 3.77884,6.724274 0.26421,1.231933 0.0958,3.148167 -0.36521,4.155098 -0.84779,1.851821 -2.43285,3.323688 -4.79959,4.456851 -1.1121,0.532459 -1.24704,0.636195 -1.03205,0.7934 0.26771,0.195752 0.53708,0.148582 2.23843,-0.391975 z m -24.53442,-3.119554 c 0.54258,-0.285117 1.70199,-1.11067 2.57647,-1.834563 1.60024,-1.324673 3.14031,-2.207789 4.1816,-2.397841 0.61874,-0.112931 0.64404,-0.156806 0.30588,-0.530461 -0.32805,-0.362495 -1.22262,-0.345293 -1.97385,0.03796 -0.32878,0.16773 -1.03911,0.71946 -1.57852,1.226065 -1.00297,0.94199 -1.51503,1.273204 -2.23576,1.446157 l -0.40849,0.09803 0.59832,-0.756938 c 0.32908,-0.416315 0.84142,-1.270713 1.13853,-1.898661 l 0.54021,-1.141723 0.58403,-0.0053 c 0.73586,-0.0067 1.70557,-0.562303 3.06615,-1.756703 1.01089,-0.88743 1.74906,-1.312039 2.28094,-1.312039 0.4496,0 0.31892,0.291707 -0.52886,1.180518 -0.85464,0.896007 -1.00829,1.403681 -0.59537,1.96723 0.29428,0.401634 1.48349,0.341939 2.80558,-0.140832 l 1.04216,-0.380549 0.78293,0.364472 c 0.8227,0.38298 1.70451,0.470441 2.1796,0.216179 0.36671,-0.196258 0.36043,-0.268953 -0.14375,-1.66336 -0.23439,-0.648252 -0.73183,-2.031668 -1.10541,-3.074257 -0.37359,-1.042589 -0.75233,-1.983662 -0.84163,-2.091272 -0.22206,-0.267561 -1.10313,-0.70094 -1.67671,-0.824735 -0.36202,-0.07813 -0.57542,-0.02891 -0.91116,0.210147 -0.24112,0.171698 -0.66676,0.349235 -0.94586,0.394526 -0.40559,0.06582 -0.50112,0.143549 -0.47591,0.387256 0.0324,0.31324 -0.1482,0.453603 -2.25751,1.754552 -0.6669,0.411319 -0.93002,0.509653 -0.97671,0.365018 -0.0351,-0.108882 -0.27745,-0.401046 -0.53844,-0.649253 -0.54629,-0.519537 -1.69709,-0.887426 -3.56916,-1.140994 l -1.24106,-0.168098 1.9711,-0.623792 c 2.61174,-0.826537 2.48552,-0.767141 1.97109,-0.927568 -0.24091,-0.07513 -1.25931,-0.103054 -2.26311,-0.06205 -1.71146,0.06991 -1.79447,0.0609 -1.33342,-0.144832 0.70115,-0.312858 1.92669,-0.606226 3.4915,-0.835792 l 1.35503,-0.198792 0.75651,0.564429 c 1.41885,1.058603 2.3007,1.069608 2.3007,0.02871 0,-0.57775 0.0817,-0.604433 0.53811,-0.175681 0.22186,0.208417 0.33793,0.484257 0.33793,0.803039 0,0.267065 0.0722,0.485573 0.16045,0.485573 0.25341,0 1.15362,-0.458821 1.15362,-0.587981 0,-0.347337 -3.98541,-2.120615 -6.76267,-3.008995 l -1.2874,-0.411811 -1.04871,0.540175 c -0.57679,0.297096 -1.81375,1.036618 -2.7488,1.643382 -1.53889,0.998608 -1.70935,1.152611 -1.79783,1.624267 -0.15276,0.81427 -0.11761,2.827609 0.0633,3.625348 0.37283,1.644067 1.54095,3.174817 3.05241,4.000003 0.72715,0.396989 0.76332,0.441103 0.48412,0.590524 -0.4935,0.264116 -2.21043,0.192118 -2.90156,-0.121677 -0.72228,-0.327935 -0.77952,-0.260209 -0.77396,0.915632 0.005,1.02961 0.22454,1.902738 0.74445,2.958979 0.40486,0.822506 1.21342,1.956817 1.39486,1.956817 0.0426,0 0.52145,-0.233277 1.06403,-0.518394 z m 17.61073,-1.861758 c 0.35582,-1.146955 0.42489,-1.913166 0.26153,-2.901101 -0.0693,-0.41915 -0.17072,-0.556626 -0.46509,-0.630509 -0.20704,-0.05197 -0.58697,-0.317694 -0.84426,-0.590509 l -0.46782,-0.496026 0.18815,0.71323 c 0.22033,0.835243 0.0852,1.142931 -0.92985,2.116996 -0.33079,0.317437 -0.60144,0.621557 -0.60144,0.67582 0,0.05426 0.19741,0.180432 0.43869,0.280375 0.54912,0.227453 1.23598,1.000099 1.65169,1.857984 0.22808,0.470678 0.33243,0.580276 0.36688,0.385307 0.0265,-0.149862 0.20717,-0.785066 0.40152,-1.411567 z m 1.44321,-4.810695 c 0.22157,-0.315986 0.21399,-0.331896 -0.19876,-0.417133 -1.29833,-0.268119 -2.57078,-1.601017 -3.85231,-4.035304 -0.80161,-1.522684 -0.92848,-1.6632 -2.59468,-2.873752 -1.93291,-1.404329 -6.72162,-3.658462 -7.56095,-3.559072 -0.26467,0.03135 0.1988,0.268705 1.58992,0.814262 2.31349,0.907284 4.32146,1.959557 6.0532,3.172166 l 1.25108,0.876042 1.07871,2.190106 c 1.17723,2.390133 1.98079,3.460664 2.91673,3.885783 0.77863,0.353662 1.03921,0.343156 1.31706,-0.0531 z m -11.77469,-5.340694 c 0.0344,-0.233573 -0.0288,-0.31708 -0.2399,-0.31708 -0.34348,0 -0.5067,0.336715 -0.27535,0.568062 0.23296,0.232956 0.46033,0.122198 0.51525,-0.250982 z m -1.87175,-0.06887 c 0,-0.184699 0.0788,-0.41466 0.17521,-0.511025 0.2275,-0.227501 -0.24117,-0.233217 -1.42596,-0.01739 -1.02542,0.186796 -1.37261,0.422463 -0.64004,0.434448 0.27705,0.0045 0.73368,0.09525 1.01475,0.20159 0.74536,0.282013 0.87604,0.265959 0.87604,-0.107627 z m 12.19477,-1.23376 c -0.12749,-0.682228 -0.16371,-0.72499 -1.4463,-1.707376 -2.54081,-1.946105 -5.07475,-2.977627 -7.60932,-3.097621 l -1.46007,-0.06913 1.4834,0.646294 c 2.39388,1.042985 4.72173,2.403717 6.36351,3.71976 0.31565,0.253016 0.80914,0.479058 1.16806,0.535018 0.34182,0.0533 0.78576,0.1899 0.98651,0.303564 0.55245,0.312783 0.62564,0.265743 0.51421,-0.330516 z"
         id="path1" /></g></g></svg>
