<?xml version="1.0" encoding="UTF-8" standalone="no"?>
<!-- Created with Inkscape (http://www.inkscape.org/) -->

<svg
   width="105.83334mm"
   height="105.83334mm"
   viewBox="0 0 105.83333 105.83333"
   version="1.1"
   id="svg1"
   xml:space="preserve"
   inkscape:version="1.4.2 (ebf0e940d0, 2025-05-08)"
   sodipodi:docname="southdakota.svg"
   inkscape:export-filename="../pngs/settle.png"
   inkscape:export-xdpi="62.461594"
   inkscape:export-ydpi="62.461594"
   xmlns:inkscape="http://www.inkscape.org/namespaces/inkscape"
   xmlns:sodipodi="http://sodipodi.sourceforge.net/DTD/sodipodi-0.dtd"
   xmlns="http://www.w3.org/2000/svg"
   xmlns:svg="http://www.w3.org/2000/svg"><sodipodi:namedview
     id="namedview1"
     pagecolor="#ffffff"
     bordercolor="#000000"
     borderopacity="0.25"
     inkscape:showpageshadow="2"
     inkscape:pageopacity="0.0"
     inkscape:pagecheckerboard="0"
     inkscape:deskcolor="#d1d1d1"
     inkscape:document-units="mm"
     inkscape:zoom="0.49555751"
     inkscape:cx="404.59482"
     inkscape:cy="-405.60378"
     inkscape:window-width="1920"
     inkscape:window-height="1011"
     inkscape:window-x="0"
     inkscape:window-y="32"
     inkscape:window-maximized="1"
     inkscape:current-layer="layer1"
     showgrid="false"
     showguides="true" /><defs
     id="defs1"><inkscape:path-effect
       effect="bspline"
       id="path-effect55"
       is_visible="true"
       lpeversion="1.3"
       weight="33.333333"
       steps="2"
       helper_size="0"
       apply_no_weight="true"
       apply_with_weight="true"
       only_selected="false"
       uniform="false" /></defs><g
     inkscape:label="Capa 1"
     inkscape:groupmode="layer"
     id="layer1"><g
       id="g5"
       transform="matrix(1.2618378,0,0,1.2618378,-68.750719,130.57698)"><path
         style="fill:#000000;stroke:#ffffff;stroke-width:3.7;stroke-dasharray:none"
         d="m 92.231184,-24.678723 c 0,-0.01098 0.0491,-0.13004 0.109117,-0.264583 0.491161,-1.101111 0.858578,-2.422764 0.997722,-3.588957 0.06701,-0.5616 0.06682,-1.916392 -3.39e-4,-2.497667 -0.116931,-1.012012 -0.413661,-2.198173 -0.804444,-3.215714 -0.173548,-0.451892 -0.229436,-0.286447 -0.342663,1.01438 -0.267083,3.068417 -0.647105,4.785847 -1.385406,6.261052 -0.36547,0.730247 -0.892064,1.459058 -1.394826,1.930449 l -0.248328,0.232833 -0.03088,-0.508 c -0.09935,-1.634589 -0.520123,-3.117965 -1.358805,-4.790248 -0.822929,-1.640874 -1.99384,-3.302568 -4.171584,-5.920086 -0.290572,-0.34925 -0.534519,-0.642938 -0.542105,-0.652639 -0.03963,-0.05068 -0.03445,0.09366 0.0333,0.927805 0.09339,1.149887 0.100749,2.522455 0.01713,3.197431 -0.195526,1.578345 -0.901924,3.061726 -1.966807,4.13014 -0.400489,0.401817 -0.89766,0.765968 -0.960278,0.70335 -0.01183,-0.01182 0.02928,-0.121713 0.09135,-0.244194 0.06207,-0.122482 0.161031,-0.405364 0.219921,-0.628626 0.147491,-0.55916 0.152839,-1.392437 0.01293,-2.0146 -0.232197,-1.03256 -0.731077,-2.087883 -1.596027,-3.376205 -0.687622,-1.024197 -1.397974,-1.921664 -3.05743,-3.862796 -1.454807,-1.701746 -1.539737,-1.802566 -1.979183,-2.3495 -1.182114,-1.471257 -1.620857,-2.176567 -2.580705,-4.148667 -0.785337,-1.613551 -0.905987,-1.83412 -0.96886,-1.771247 -0.01466,0.01466 -0.0335,0.433475 -0.04186,0.9307 -0.01745,1.037311 -0.09767,1.742771 -0.280732,2.468895 -0.354175,1.404817 -1.153009,2.627546 -1.990289,3.04642 -0.166262,0.08318 -0.327071,0.151232 -0.357353,0.151232 -0.03701,0 -0.0066,-0.104795 0.09264,-0.319681 0.424024,-0.917743 0.464341,-2.09339 0.119697,-3.490319 -0.298954,-1.211734 -0.599424,-1.999721 -1.772132,-4.647443 -1.084744,-2.449119 -1.279301,-2.97776 -1.569192,-4.263724 -0.320728,-1.422759 -0.382181,-2.087235 -0.346485,-3.7465 0.01427,-0.663575 0.0544,-1.577029 0.08917,-2.029897 0.03477,-0.452869 0.05388,-0.832735 0.04246,-0.844147 -0.05376,-0.05376 -0.158394,0.148068 -0.348742,0.67271 -0.114041,0.314325 -0.217429,0.6096 -0.229749,0.656167 -0.314164,1.187393 -1.135467,3.760324 -1.388713,4.350483 -0.184635,0.430271 -0.37481,0.708107 -0.423149,0.618202 -0.06598,-0.122715 -0.269909,-2.411083 -0.299428,-3.360018 -0.147413,-4.738789 0.57237,-8.938535 2.187503,-12.763516 0.58961,-1.396321 1.256882,-2.632109 2.120088,-3.926402 0.283394,-0.424921 0.50124,-0.772584 0.484103,-0.772584 -0.01714,0 -0.290047,0.176213 -0.606467,0.391584 -1.668272,1.135504 -3.00587,2.59986 -4.263246,4.66725 -0.212412,0.34925 -0.409431,0.635 -0.437819,0.635 -0.08892,0 -0.0815,-0.245462 0.03354,-1.109815 0.52751,-3.963398 1.385368,-7.187449 2.603884,-9.786075 1.45882,-3.111099 3.339136,-5.301965 5.875525,-6.845915 l 0.240772,-0.146562 -0.613834,0.03302 c -1.025,0.05513 -2.585734,0.0326 -3.127922,-0.04516 -0.509888,-0.07313 -1.399838,-0.270027 -1.456608,-0.322271 -0.01853,-0.01705 0.171967,-0.06436 0.423333,-0.105126 1.497928,-0.242918 3.173882,-0.851142 5.050198,-1.832775 0.337608,-0.176627 1.290108,-0.696251 2.116666,-1.15472 1.585711,-0.87955 2.584546,-1.40297 3.3842,-1.773423 0.351945,-0.163044 0.466896,-0.234166 0.420466,-0.26015 -0.06593,-0.0369 -0.400942,0.01891 -2.174832,0.362302 -2.24212,0.434031 -3.155303,0.54576 -4.466167,0.546444 -1.046645,5.47e-4 -1.577291,-0.05361 -2.269981,-0.23166 -0.40796,-0.104864 -1.127752,-0.33932 -1.106616,-0.360456 0.0085,-0.0085 0.29067,-0.0727 0.62709,-0.142721 1.593925,-0.331735 2.807579,-0.765549 5.322137,-1.902369 2.091751,-0.945672 2.797536,-1.226906 3.819704,-1.522042 1.79041,-0.516953 3.700789,-0.622326 5.766959,-0.318095 0.249769,0.03678 0.483133,0.05574 0.518584,0.04213 0.130267,-0.04999 0.05715,-0.155001 -0.242459,-0.348252 -1.156512,-0.745951 -2.165268,-1.827586 -2.565058,-2.750377 -0.12841,-0.29639 -0.269744,-0.77476 -0.324409,-1.09801 -0.0272,-0.16083 -0.02489,-0.16562 0.04934,-0.10206 0.968416,0.82916 1.922127,1.37335 3.062377,1.747409 1.294087,0.424523 2.465447,0.606568 5.207001,0.809236 1.364373,0.100861 2.221789,0.183311 2.878667,0.276815 0.561925,0.07999 0.574566,0.05247 0.111995,-0.243772 -1.013217,-0.648898 -1.831343,-1.445298 -2.534348,-2.467048 -0.473516,-0.68821 -0.640487,-1.08368 -0.419101,-0.99265 0.03774,0.0155 0.287695,0.10315 0.555454,0.19473 1.061864,0.36318 2.398331,0.69222 4.6355,1.14125 2.017442,0.40493 3.22999,0.70851 4.402667,1.102267 1.61075,0.540855 2.948452,1.249908 4.035947,2.139264 0.47809,0.39099 0.60166,0.479139 0.67164,0.479139 0.0376,0 -0.006,-0.08988 -0.11756,-0.243417 -1.17425,-1.613679 -1.87905,-3.263233 -2.175044,-5.090585 -0.03583,-0.22119 -0.06522,-0.41646 -0.06531,-0.43392 -9.3e-5,-0.0175 0.05222,-0.0314 0.116247,-0.0311 0.09661,5.7e-4 0.171296,0.0708 0.439044,0.41275 0.742203,0.947972 1.788203,1.984912 3.021703,2.99556 0.30269,0.247998 1.30281,1.018224 2.2225,1.711613 0.91969,0.69339 1.95998,1.489461 2.31174,1.769047 1.55515,1.236051 2.73364,2.396643 3.61287,3.558001 0.14621,0.193131 0.28745,0.343527 0.31387,0.334213 0.0879,-0.03098 0.0326,-0.579148 -0.12229,-1.212721 -0.2882,-1.179062 -0.5574,-1.92286 -1.02329,-2.827376 -0.12351,-0.239787 -0.22456,-0.452566 -0.22456,-0.472841 0,-0.185098 0.63903,0.202114 1.5875,0.961921 0.64105,0.513538 1.79586,1.664619 2.28035,2.272989 1.48629,1.866312 2.34614,3.774679 2.61178,5.796635 0.0317,0.241425 0.0418,0.707867 0.0278,1.291167 -0.031,1.297754 -0.1773,1.936023 -0.75709,3.302959 -0.35558,0.838342 -0.39064,1.030697 -0.23166,1.270934 0.14883,0.224891 1.24416,1.195709 1.82489,1.61744 0.4292,0.31169 0.78943,0.507198 1.77281,0.962161 1.12847,0.52209 2.43679,1.64833 3.15692,2.717565 0.42923,0.637302 0.63086,1.155129 0.66884,1.717727 0.0264,0.391596 -0.017,0.612512 -0.20456,1.040121 -0.18128,0.413306 -0.15137,0.448093 0.51484,0.598886 0.81248,0.183904 1.22427,0.524336 1.39033,1.149423 0.0641,0.241181 0.21705,0.3653 0.70304,0.570426 0.89606,0.378205 2.07487,1.033457 3.15051,1.751239 0.99427,0.663476 1.54711,1.104005 2.18403,1.740311 0.83025,0.82946 1.15942,1.383055 1.19565,2.010842 0.0228,0.395853 -0.0265,0.518879 -0.48507,1.208591 -1.16906,1.758449 -2.18883,3.760783 -3.18981,6.263243 -0.16764,0.4191 -0.33994,0.863353 -0.38288,0.987229 -0.11222,0.323709 -0.34319,0.684124 -0.58089,0.906466 -0.25479,0.238328 -0.34895,0.287362 -0.85523,0.445374 -0.48305,0.150764 -0.70172,0.258262 -0.85291,0.419304 -0.0621,0.06616 -0.25645,0.373642 -0.43185,0.68329 -0.85323,1.506261 -1.76315,2.487798 -2.86666,3.092273 -0.43019,0.23565 -0.67372,0.229387 -0.67372,-0.01733 0,-0.05039 0.13173,-0.39782 0.29273,-0.77206 0.43331,-1.007226 0.64279,-1.646049 0.67002,-2.043229 0.0379,-0.553522 -0.0262,-0.627126 -0.62706,-0.719203 -0.62247,-0.09539 -0.91661,0.03998 -1.32551,0.610047 -0.26333,0.367136 -0.80966,0.882948 -1.3947,1.316799 -0.68076,0.504834 -0.70999,0.548481 -1.00619,1.502514 -0.17448,0.561965 -0.63225,1.472556 -1.00126,1.991689 -0.27217,0.382898 -0.99789,1.151722 -1.48654,1.574839 -0.21371,0.185041 -0.22584,0.206065 -0.20698,0.358613 0.011,0.08913 0.0916,0.331686 0.17901,0.539022 0.30831,0.731037 0.2982,1.104462 -0.0406,1.501411 l -0.18011,0.211003 -0.0222,1.050806 c -0.0254,1.204664 -0.10374,1.763574 -0.35106,2.504831 -0.17653,0.529091 -0.43631,1.043642 -0.52689,1.043642 -0.0473,0 -0.0718,-0.07553 -0.0959,-0.296333 -0.0178,-0.162984 -0.0537,-0.363009 -0.0798,-0.4445 -0.1376,-0.429609 -0.39669,-0.762 -0.59397,-0.762 -0.21187,0 -0.35181,0.186797 -0.58671,0.783166 -0.3139,0.796902 -0.7501,1.669417 -1.09211,2.184479 -0.39947,0.601593 -1.0508,1.294208 -1.13649,1.208521 -0.0119,-0.01193 0.0574,-0.332562 0.15411,-0.712513 0.25757,-1.012089 0.27499,-1.699646 0.0569,-2.244734 -0.0723,-0.180589 -0.2513,-0.294764 -0.40089,-0.255646 -0.0439,0.01148 -0.30209,0.299504 -0.57375,0.640051 -0.82927,1.039548 -1.48265,1.626813 -2.23425,2.008171 -0.32335,0.164065 -0.89535,0.367838 -1.03255,0.367838 -0.0854,0 -0.0855,-0.0019 -0.009,-0.179916 0.43358,-1.011771 0.36828,-2.219901 -0.186,-3.441401 -0.39678,-0.87461 -0.7974,-0.899555 -1.96834,-0.122569 -0.22119,0.146774 -0.45151,0.285564 -0.51182,0.308424 l -0.10966,0.04156 0.097,-0.401049 c 0.33062,-1.367599 0.21059,-2.538091 -0.50679,-4.942031 -0.16246,-0.544413 -0.20885,-0.650964 -0.34097,-0.783167 l -0.15293,-0.153021 -0.43896,-0.0143 c -0.85421,-0.02782 -1.50684,0.257425 -1.77101,0.774055 -0.11009,0.215294 -0.11069,0.256204 -0.0378,2.563406 0.0619,1.95986 0.0342,3.122496 -0.101,4.233334 -0.20963,1.722463 -0.68835,3.150834 -1.445318,4.312369 -0.242593,0.37225 -0.523741,0.738376 -0.548209,0.713908 -0.0074,-0.0074 0.02252,-0.213507 0.06659,-0.45791 0.204006,-1.131272 0.222796,-2.677212 0.04292,-3.5312 -0.177637,-0.84333 -0.433107,-1.460505 -0.849881,-2.053167 -0.221015,-0.314287 -0.715998,-0.846667 -0.787194,-0.846667 -0.02029,0 0.0231,0.300038 0.09642,0.66675 0.455063,2.275889 0.467251,4.687797 0.03481,6.889751 -0.66486,3.385446 -2.313041,6.099952 -4.724628,7.781325 -0.38441,0.268013 -0.457549,0.310088 -0.457549,0.263216 z m 3.341859,-8.954708 c 0.256946,-2.432908 0.218988,-5.039478 -0.105,-7.210328 -0.472321,-3.16474 -1.474417,-5.941132 -3.097082,-8.580721 -0.911317,-1.482441 -1.458706,-2.470038 -1.88844,-3.407119 -0.666563,-1.453513 -1.038053,-2.751192 -1.174893,-4.104107 -0.07951,-0.786067 -0.01866,-2.472104 0.108926,-3.018476 0.03807,-0.163034 -0.101222,-0.113949 -0.529875,0.186721 -0.506964,0.3556 -1.28864,1.133046 -1.705603,1.696372 -0.565417,0.763891 -0.928894,1.485189 -1.594988,3.165157 -0.193865,0.48895 -0.371035,0.90805 -0.393711,0.931333 -0.04817,0.04946 -0.008,-1.341371 0.05684,-1.9685 0.364478,-3.524466 1.813166,-6.728623 4.402217,-9.736667 0.319357,-0.37104 0.34132,-0.416811 0.142491,-0.296958 -0.38384,0.231378 -1.18694,0.795591 -1.613378,1.133471 -0.612581,0.485366 -1.93453,1.81968 -2.400698,2.423154 -1.43125,1.852812 -2.423495,3.937744 -2.989548,6.281721 -1.201582,4.975643 -0.356338,10.664194 2.284044,15.37178 1.028145,1.8331 2.446857,3.623532 3.867743,4.881141 0.506461,0.448263 1.186435,1.004039 1.312829,1.07304 0.0423,0.02309 -0.09315,-0.183203 -0.300995,-0.458432 -1.437172,-1.903114 -2.622916,-4.102575 -3.389351,-6.286983 -1.62107,-4.620197 -1.364998,-8.930377 0.730928,-12.302864 0.329019,-0.529414 0.882135,-1.267885 0.902928,-1.205508 0.0092,0.02763 -0.01266,0.25597 -0.04859,0.507421 -0.14542,1.017574 -0.171368,1.42282 -0.171577,2.679684 -2.36e-4,1.416956 0.04763,1.957263 0.273748,3.090334 0.331254,1.659863 0.953953,3.19658 1.826781,4.508185 0.459885,0.691073 0.859068,1.188454 1.504494,1.874596 0.873885,0.929014 1.365554,1.598453 1.965792,2.676553 0.930422,1.671151 1.335858,3.107761 1.755478,6.22031 0.07377,0.547209 0.128518,0.835018 0.148971,0.783167 0.01778,-0.04509 0.07157,-0.453452 0.119519,-0.907477 z m 13.354117,-6.162963 c 0.0141,-0.03683 0.0258,-0.174941 0.0259,-0.306916 3.1e-4,-0.300679 0.10277,-0.990244 0.19464,-1.309921 0.0918,-0.319424 0.28152,-0.736144 0.36725,-0.806628 0.0936,-0.07698 0.15999,-0.03141 0.391,0.268457 0.25847,0.33553 0.82906,0.915457 1.12905,1.147528 0.27088,0.209551 0.60872,0.390728 0.75941,0.40725 0.1158,0.0127 0.11606,0.0098 0.0431,-0.489454 -0.06,-0.410788 -0.0611,-0.771986 -0.003,-1.128055 0.0585,-0.360831 0.14441,-0.532174 0.29875,-0.596104 0.2535,-0.105 0.55545,0.05617 1.29835,0.69303 0.2629,0.225377 0.4892,0.409776 0.50287,0.409776 0.0463,0 -0.0294,-0.411572 -0.12956,-0.703956 -0.0548,-0.159983 -0.18978,-0.500428 -0.29995,-0.756544 -0.12643,-0.293896 -0.20846,-0.553029 -0.22238,-0.702503 -0.0202,-0.217059 -0.0119,-0.247889 0.0996,-0.369184 0.0669,-0.07279 0.21694,-0.166758 0.33336,-0.208814 0.28947,-0.104574 0.29765,-0.199001 0.041,-0.473386 -0.24617,-0.263181 -0.48726,-0.383947 -0.76648,-0.383947 -0.11656,0 -0.49631,0.04985 -0.84389,0.110771 -0.52316,0.0917 -0.77406,0.111742 -1.45745,0.116416 -0.56022,0.0038 -0.90713,-0.01278 -1.0795,-0.05169 -1.65633,-0.373866 -2.69327,-1.68416 -3.15404,-3.985501 -0.24331,-1.215214 -0.33061,-2.416417 -0.34614,-4.7625 -0.01,-1.516723 -0.007,-1.577 0.0856,-1.903093 0.20457,-0.718091 0.54442,-1.175888 1.329,-1.790264 1.19287,-0.934089 2.68691,-1.631062 4.2446,-1.980115 0.45163,-0.1012 0.56908,-0.111541 1.05834,-0.09317 0.63369,0.02379 0.92993,0.100584 1.51248,0.392087 0.72057,0.360559 1.31929,0.823638 2.53511,1.960772 0.75907,0.709936 1.10285,0.961651 1.59609,1.168655 0.60757,0.254986 0.86785,0.298055 1.78582,0.295499 1.07261,-0.003 1.51728,-0.08564 3.84268,-0.714228 0.472,-0.127589 0.96832,-0.244441 1.10293,-0.25967 0.34191,-0.03868 0.68776,0.06541 1.00454,0.302354 0.13751,0.102855 0.28352,0.187009 0.32446,0.187009 0.0948,0 0.3618,-0.522364 0.51454,-1.006578 0.2129,-0.674909 0.22206,-1.325637 0.031,-2.200342 -0.23956,-1.096493 -0.65201,-1.867277 -1.71587,-3.206581 -0.66795,-0.84088 -0.99639,-1.33185 -1.17008,-1.749068 -0.15093,-0.362547 -0.24775,-0.834517 -0.24909,-1.214265 -0.002,-0.512789 0.0794,-0.559237 0.4017,-0.229708 0.32116,0.32837 0.85322,0.768619 1.19569,0.989364 0.56842,0.366387 1.14042,0.572865 1.89305,0.683338 0.5701,0.08368 0.99518,0.241857 1.48821,0.553782 0.73531,0.465204 1.153,0.593618 1.5601,0.479637 0.24516,-0.06864 0.41301,-0.254457 0.37568,-0.415903 -0.0731,-0.316246 -0.49089,-0.777644 -1.20149,-1.326954 -0.49565,-0.383158 -1.96795,-1.385157 -2.70933,-1.843896 -0.94441,-0.584359 -3.30612,-1.91531 -4.18576,-2.358899 -0.2489,-0.125514 -0.44663,-0.29847 -0.40964,-0.358317 0.0129,-0.02091 0.12348,-0.05144 0.2457,-0.06784 0.3182,-0.04272 0.49737,-0.125155 0.49737,-0.228855 0,-0.166852 -0.26133,-0.240248 -1.29466,-0.363613 -1.09726,-0.130997 -1.78383,-0.338593 -2.52948,-0.764827 -0.47865,-0.273614 -0.37255,-0.276373 -1.2347,0.03211 -0.48734,0.174372 -0.52779,0.181742 -0.99483,0.181251 -0.36843,-3.88e-4 -0.5267,-0.01827 -0.65076,-0.07351 -0.13818,-0.06153 -0.15566,-0.08297 -0.11124,-0.136493 0.029,-0.03492 0.0707,-0.0635 0.0928,-0.0635 0.0221,0 0.18316,-0.05956 0.35802,-0.132353 0.42298,-0.176089 0.76252,-0.487679 0.92683,-0.850541 0.48838,-1.078579 -0.33557,-3.325726 -1.80495,-4.922606 -1.29938,-1.412123 -2.97515,-2.541432 -5.47519,-3.689744 -0.76754,-0.352545 -1.64064,-0.835309 -2.21514,-1.224825 -0.25018,-0.169619 -0.63584,-0.430828 -0.85703,-0.580465 -0.56061,-0.379249 -0.89588,-0.555046 -1.35829,-0.712194 -0.3339,-0.113478 -0.47751,-0.138225 -0.88538,-0.152571 -0.57886,-0.02036 -0.7214,0.0329 -0.87736,0.327832 -0.1978,0.374035 -0.0935,0.865607 0.28724,1.354133 l 0.21447,0.275167 -0.1505,0.01312 c -0.20404,0.01779 -0.63736,-0.09812 -0.8645,-0.231229 -0.41855,-0.245287 -0.75887,-0.663777 -0.98424,-1.210309 -0.26123,-0.633482 -0.88077,-1.702761 -1.43262,-2.472573 -0.91416,-1.275234 -2.108368,-2.425654 -3.224858,-3.106612 -0.770053,-0.469663 -1.700671,-0.83586 -2.534966,-0.997504 -0.595342,-0.115348 -1.756227,-0.105394 -2.2225,0.01905 -1.148001,0.306405 -2.075545,1.151464 -2.452307,2.234228 -0.164642,0.473157 -0.206995,0.777162 -0.183714,1.318683 0.02664,0.619662 0.102111,0.853942 0.624446,1.938423 0.84027,1.744586 0.917266,2.227274 0.51048,3.20022 -0.226304,0.541271 -0.223564,0.584254 0.05118,0.802911 0.445348,0.354434 1.005295,0.529865 1.574625,0.493327 0.340443,-0.02185 0.531459,-0.108629 0.531459,-0.241448 0,-0.04359 -0.05705,-0.213311 -0.126766,-0.377153 -0.225114,-0.52901 -0.241584,-1.001506 -0.06149,-1.764138 0.08058,-0.341244 0.09248,-0.735403 0.04231,-1.401359 -0.0318,-0.422116 -0.02609,-0.500701 0.05599,-0.770951 0.07412,-0.244032 0.136017,-0.349113 0.32738,-0.555808 0.490608,-0.529916 1.264482,-0.73654 2.344911,-0.626091 l 0.3175,0.03246 -0.219742,-0.207352 c -0.448188,-0.422918 -0.998953,-0.642588 -1.686382,-0.672607 -0.772309,-0.03373 -1.258048,0.128323 -1.660649,0.554015 -0.372349,0.393703 -0.516665,0.810898 -0.517768,1.496782 -3.46e-4,0.215093 -0.01971,0.40088 -0.0433,0.41546 -0.05906,0.0365 -0.200091,-0.305094 -0.32129,-0.778223 -0.18739,-0.73152 -0.12037,-1.651966 0.167713,-2.303373 0.413626,-0.935282 1.129699,-1.427116 2.077774,-1.427116 0.569791,0 0.936918,0.108582 1.780313,0.526547 0.969113,0.480268 1.752744,1.007857 2.8575,1.923848 0.692963,0.574558 2.370671,2.078285 2.370671,2.124829 0,0.08741 -0.16262,0.02573 -0.61106,-0.23176 -0.99746,-0.572731 -1.316268,-0.625866 -1.421022,-0.236842 -0.08795,0.326634 0.05475,0.902642 0.324347,1.309171 0.297035,0.447903 0.751035,0.809918 1.686565,1.344831 l 0.46567,0.266257 -0.52917,-2.3e-5 c -1.25515,-5.5e-5 -2.209753,-0.307528 -2.89274,-0.93174 -0.216276,-0.197664 -0.235488,-0.206796 -0.261645,-0.124381 -0.04096,0.129063 0.01733,0.57298 0.113122,0.861405 0.101834,0.306627 0.317745,0.739892 0.540334,1.084281 0.09227,0.142763 0.157489,0.286352 0.144927,0.319088 -0.03759,0.09794 -0.455663,0.146053 -1.293967,0.148898 -0.952489,0.0032 -1.523552,-0.13639 -2.111127,-0.516158 -0.140608,-0.09088 -0.273524,-0.154189 -0.29537,-0.140688 -0.08247,0.05097 0.073,0.742695 0.259259,1.153484 0.152164,0.33559 0.429944,0.725814 0.713412,1.002196 0.118503,0.115541 0.215461,0.232734 0.215461,0.260427 0,0.05193 -0.16949,0.07619 -0.867834,0.124205 -0.48178,0.03312 -1.46619,0.197146 -2.025421,0.337472 -0.931188,0.233662 -2.306111,0.763532 -2.986966,1.151123 -0.646586,0.368083 -1.308382,0.811209 -1.778578,1.190902 -0.366319,0.295811 -0.854017,0.736593 -0.835491,0.755118 0.0092,0.0092 0.395381,-0.07108 0.858235,-0.178337 1.11252,-0.257811 2.893154,-0.611127 5.328888,-1.057366 2.580447,-0.47275 3.12082,-0.581802 3.677601,-0.742169 1.137717,-0.327692 2.091,-0.795967 2.88917,-1.419222 0.35611,-0.278067 0.40385,-0.348261 0.29712,-0.436837 -0.0969,-0.08045 -0.69849,-0.133753 -1.17961,-0.104532 -0.321621,0.01954 -0.456114,0.0139 -0.456114,-0.0191 0,-0.02574 0.130381,-0.124265 0.289735,-0.218936 1.314259,-0.780789 3.927429,-1.244854 5.351109,-0.950288 0.35402,0.07325 0.61065,0.17686 0.5579,0.225252 -0.0216,0.0198 -0.24879,0.05852 -0.50491,0.08603 -0.84434,0.0907 -1.40138,0.267975 -1.915,0.609428 -0.34852,0.231696 -1.24327,1.100721 -2.04733,1.988472 -0.90282,0.996775 -1.574117,1.535922 -2.242047,1.800668 -0.612381,0.242729 -0.915627,0.262651 -2.061737,0.135446 -1.957092,-0.217214 -2.733557,-0.220703 -3.439054,-0.01545 -0.277278,0.08067 -0.283268,0.07777 0.508,0.245579 0.536355,0.113745 1.227667,0.316562 1.227667,0.360172 0,0.01311 -0.166688,0.06916 -0.370417,0.124545 -2.319984,0.630718 -3.821879,1.207895 -5.005917,1.923771 l -0.359833,0.217557 0.750779,0.02265 c 0.418515,0.01262 0.769777,0.04164 0.793705,0.06557 0.02901,0.02901 -0.09771,0.144235 -0.390946,0.35547 -1.172662,0.844744 -2.474641,1.974795 -3.311852,2.874518 -0.410829,0.441505 -1.179612,1.359937 -1.156212,1.381277 0.0069,0.0063 0.298275,-0.129422 0.647526,-0.301565 1.988057,-0.979904 4.277052,-1.759843 6.180667,-2.105964 1.072065,-0.194926 2.262876,-0.323092 3.00429,-0.323351 l 0.294957,-1.03e-4 -0.513189,0.311182 c -1.566871,0.950099 -3.050994,2.323893 -4.325822,4.004239 -0.204216,0.269177 -0.385313,0.513168 -0.402439,0.542202 -0.03957,0.06709 0.04425,0.03477 0.524036,-0.202049 0.505924,-0.249725 1.402099,-0.60688 2.074333,-0.826691 0.551734,-0.180409 1.233192,-0.366136 1.256796,-0.342531 0.0063,0.0063 -0.135784,0.09488 -0.31575,0.196843 -0.88739,0.502751 -2.145078,1.343949 -2.846046,1.903561 -0.537727,0.429292 -1.2867,1.124962 -1.679514,1.559989 -0.219183,0.242736 -0.391638,0.448215 -0.383233,0.45662 0.0084,0.0084 0.254724,-0.108355 0.547377,-0.259464 0.809082,-0.417765 2.21309,-0.948874 2.90289,-1.098108 l 0.138686,-0.03 -0.19464,0.278435 c -0.677596,0.96931 -1.168796,2.31467 -1.400226,3.835111 -0.09098,0.597743 -0.101722,1.78467 -0.0203,2.243666 0.0587,0.330908 0.252063,0.994008 0.281323,0.964748 0.0093,-0.0093 0.04548,-0.272985 0.08047,-0.586046 0.391641,-3.503563 1.894366,-6.252914 4.183489,-7.654012 0.28,-0.171378 0.936742,-0.514024 0.98522,-0.514024 0.01362,0 -0.07663,0.119513 -0.200552,0.265583 -2.475801,2.918334 -3.592715,6.858142 -3.015038,10.635252 0.308748,2.018732 1.072754,3.89742 2.251317,5.535976 0.254406,0.353701 0.882307,1.115576 0.997876,1.210791 0.06219,0.05124 0.07052,0.04664 0.07052,-0.0389 0,-0.05335 -0.115541,-0.431918 -0.256758,-0.841267 -0.591212,-1.713759 -0.841659,-3.085742 -0.843175,-4.619034 -0.0021,-2.077698 0.548383,-3.989135 1.560051,-5.417403 0.212001,-0.299302 0.857812,-0.988232 1.124848,-1.199951 l 0.166798,-0.132246 -0.159459,0.274515 c -0.422147,0.726743 -0.728427,1.528953 -0.880573,2.306401 -0.118953,0.607835 -0.128656,1.668381 -0.02072,2.264948 0.116095,0.641674 0.400182,1.648804 0.493409,1.749205 0.01772,0.01909 0.0844,-0.123787 0.14816,-0.3175 0.534931,-1.625102 1.835309,-2.924251 3.526309,-3.522968 l 0.30805,-0.109069 -0.3727,0.369916 c -1.3499,1.339836 -2.07626,3.843167 -1.49584,5.155291 l 0.0898,0.203042 0.26556,-0.525708 c 0.46182,-0.914243 0.81403,-1.354096 1.2407,-1.549432 0.12831,-0.05874 0.23939,-0.100082 0.24686,-0.09187 0.008,0.0082 -0.0523,0.186377 -0.13273,0.395927 -0.61977,1.613971 -0.6308,3.136608 -0.0317,4.3815 0.23707,0.492649 0.4429,0.820797 0.48614,0.775053 0.0178,-0.01882 0.0911,-0.247601 0.16296,-0.5084 0.0718,-0.260799 0.17757,-0.580378 0.23497,-0.710174 0.13742,-0.310736 0.36293,-0.620902 0.44041,-0.605742 0.0372,0.0073 0.10904,0.164078 0.18051,0.394042 0.0834,0.268385 0.16424,0.435158 0.27188,0.560917 0.18135,0.211865 0.27694,0.224328 0.56095,0.07314 0.25264,-0.134493 0.49504,-0.14127 0.56223,-0.01572 0.0644,0.120396 0.10099,0.563814 0.22817,2.767386 0.0591,1.024466 0.12657,2.097067 0.14988,2.383556 0.0233,0.286489 0.0424,0.547828 0.0424,0.580754 0,0.130815 0.12471,-2.03e-4 0.27536,-0.28929 0.32735,-0.628151 0.87788,-1.385527 1.08498,-1.492625 0.10816,-0.05593 0.12177,-0.05416 0.16203,0.02107 0.0242,0.04517 0.044,0.317247 0.044,0.604609 0,1.503802 0.42403,2.821263 1.21802,3.78437 0.2284,0.277052 0.39289,0.351595 0.44962,0.203757 z m -4.51759,-14.913746 c -0.0442,-0.219837 -0.034,-1.34052 0.0158,-1.742069 0.0633,-0.509873 0.19246,-1.12256 0.36475,-1.72977 0.29796,-1.050067 0.61103,-1.619237 1.23992,-2.254165 0.52091,-0.525923 1.14351,-0.92472 1.81129,-1.160203 0.14338,-0.05056 0.20333,-0.09011 0.16933,-0.111698 -0.0845,-0.05364 -0.49136,-0.03986 -0.8501,0.02879 -0.39255,0.07512 -0.68046,0.08361 -0.64046,0.01889 0.1003,-0.16229 1.58097,-0.98418 2.34834,-1.303516 0.88264,-0.367309 1.98267,-0.697053 3.06892,-0.919939 0.30269,-0.06211 0.55811,-0.119959 0.5676,-0.12856 0.01,-0.0086 -0.10606,-0.07156 -0.2568,-0.139904 -0.32893,-0.149144 -0.80102,-0.244082 -1.40929,-0.283407 -0.29673,-0.01918 -0.44437,-0.0449 -0.4344,-0.07565 0.0259,-0.07984 0.32619,-0.22342 0.89789,-0.429313 1.02559,-0.369352 1.30669,-0.526006 1.82033,-1.014455 0.7219,-0.686473 1.61354,-1.124864 2.76,-1.356996 2.07931,-0.421013 4.44827,0.161753 5.91282,1.454563 0.23402,0.206581 0.74635,0.770201 0.74635,0.821073 0,0.01708 -0.17621,-0.07641 -0.39158,-0.207741 -1.41676,-0.863943 -2.86114,-1.243988 -4.49792,-1.183489 -0.75806,0.02802 -1.27218,0.09905 -2.0329,0.280845 -0.52166,0.124669 -1.58103,0.451124 -1.63932,0.505172 -0.0174,0.01609 0.13505,0.0826 0.33867,0.147787 0.20362,0.06519 0.44279,0.165357 0.53148,0.222593 0.13854,0.0894 0.15942,0.122964 0.14817,0.238191 -0.011,0.112175 -0.068,0.175347 -0.34877,0.385989 -0.18462,0.138525 -0.50847,0.415446 -0.71966,0.61538 -0.82696,0.782844 -1.0946,0.957209 -1.76956,1.152843 -0.23766,0.06888 -0.56595,0.195531 -0.72953,0.281439 -0.32127,0.168717 -0.80179,0.592989 -1.00326,0.885822 -0.16016,0.232789 -0.13402,0.331593 0.10466,0.395488 0.62941,0.168497 1.43864,0.52296 1.52949,0.66995 0.0126,0.02032 -0.0675,0.05022 -0.17781,0.06644 -0.404,0.05937 -1.5004,0.364494 -2.07052,0.576209 -0.66182,0.245768 -1.57957,0.696856 -2.07261,1.018721 -1.63517,1.067448 -2.64804,2.344095 -3.16895,3.994232 -0.12474,0.395155 -0.13555,0.413823 -0.16236,0.280459 z m 15.97328,-3.270453 c -0.89427,-0.0909 -1.81735,-0.336293 -2.50451,-0.665789 -0.48363,-0.231908 -0.91497,-0.500096 -1.98169,-1.232118 -0.90109,-0.618371 -1.46291,-0.96722 -2.2448,-1.393869 l -0.40217,-0.219447 0.33867,0.02615 c 1.37436,0.106133 2.81588,0.681197 5.35517,2.136321 1.0532,0.603535 2.064,1.063263 2.69382,1.225194 0.0962,0.02474 0.19858,0.07343 0.22743,0.108186 0.0461,0.05557 -0.0185,0.06252 -0.53482,0.05757 -0.32299,-0.0031 -0.74919,-0.02209 -0.9471,-0.0422 z m 2.94217,-1.090229 c -0.4191,-0.1585 -1.12395,-0.436045 -1.56633,-0.616765 -3.25995,-1.331733 -4.76691,-1.876132 -6.10787,-2.206505 -0.35578,-0.08765 -0.63201,-0.173833 -0.61384,-0.191511 0.0898,-0.08736 0.5136,-0.263026 0.82392,-0.341498 0.29802,-0.07536 0.43014,-0.0847 0.92151,-0.06513 0.38105,0.01518 0.68556,0.05244 0.90709,0.110998 1.03294,0.27305 3.61092,1.550924 4.95819,2.457715 0.62958,0.423747 1.54686,1.140205 1.4605,1.140748 -0.0117,7.3e-5 -0.36407,-0.129549 -0.78317,-0.28805 z m -20.07962,-1.34012 c 0.21624,-0.667359 0.37106,-1.381893 0.42585,-1.965349 0.0989,-1.053456 -0.17903,-1.859073 -0.88497,-2.565007 -0.36091,-0.360912 -0.57761,-0.522198 -1.83443,-1.365304 -1.02409,-0.686989 -1.994197,-1.401292 -2.024943,-1.490995 -0.02315,-0.06755 0.209873,-0.04759 0.819306,0.07019 0.655677,0.126714 0.782307,0.110361 0.782307,-0.10103 0,-0.06517 -0.0258,-0.156065 -0.0573,-0.201991 -0.0974,-0.141946 -0.83171,-1.778923 -0.83171,-1.854087 0,-0.08266 0.07782,-0.09022 0.171513,-0.01665 0.03612,0.02836 0.170862,0.194445 0.299417,0.36907 1.5701,2.132759 3.53489,3.537529 5.50022,3.93251 1.7259,0.346862 3.31526,0.187807 6.1465,-0.615112 0.0534,-0.01515 0.0669,-0.0028 0.0486,0.04475 -0.0353,0.09201 -1.10316,0.623709 -2.13326,1.062176 -1.781,0.758093 -2.79095,1.326927 -3.83117,2.157824 -0.88701,0.708524 -1.62188,1.506723 -2.26915,2.464698 -0.20916,0.309551 -0.40386,0.56282 -0.43268,0.56282 -0.0355,0 -0.001,-0.157288 0.10588,-0.48851 z m 20.77812,-0.893896 c -2.51806,-1.896829 -4.20451,-2.831046 -5.94783,-3.294832 -0.52008,-0.138358 -1.0404,-0.229652 -1.40746,-0.246948 -0.16874,-0.008 -0.31812,-0.02578 -0.33195,-0.03961 -0.0727,-0.07272 0.0524,-0.200905 0.31167,-0.319266 0.61138,-0.279125 1.20089,-0.355753 1.87269,-0.243421 1.04808,0.175252 1.98777,0.637215 3.34388,1.643885 1.21527,0.902129 2.0723,1.685001 2.63315,2.405322 0.2867,0.368218 0.60182,0.839268 0.57715,0.862727 -0.008,0.0074 -0.48086,-0.338148 -1.0513,-0.767857 z m -5.10117,-1.73293 c -1.31912,-0.281433 -2.64244,-0.474154 -3.683,-0.536373 -0.14021,-0.0084 -0.17168,-0.02668 -0.18299,-0.106394 -0.0112,-0.07878 0.0217,-0.111903 0.1809,-0.182334 0.29772,-0.131697 0.72168,-0.206684 1.17312,-0.207495 0.6808,-0.0012 1.35465,0.166176 2.14434,0.532707 0.3934,0.182598 1.1508,0.599802 1.1508,0.633906 0,0.02979 -0.0777,0.0165 -0.78317,-0.134017 z m 5.41867,-3.367399 c -1.47888,-1.227398 -3.56927,-2.09082 -5.77073,-2.38356 l -0.40994,-0.05451 0.16692,-0.07325 c 0.64954,-0.285023 1.75221,-0.244098 2.81939,0.10464 1.37506,0.44935 2.77428,1.46745 3.44638,2.50766 0.10828,0.167583 0.0373,0.139146 -0.25202,-0.100984 z m -7.27974,-1.604136 c -0.20867,-0.04395 -0.53252,-0.140392 -0.71966,-0.21431 -0.35861,-0.141642 -1.06261,-0.514284 -1.36819,-0.724212 -0.56133,-0.385623 -0.92948,-0.436326 -1.93541,-0.266561 -0.8964,0.151281 -1.34211,0.136345 -1.94307,-0.06511 -0.47369,-0.158794 -0.84772,-0.388156 -1.0563,-0.64774 -0.16298,-0.20284 -0.21489,-0.295585 -0.44226,-0.790194 -0.36859,-0.801789 -0.84517,-1.112644 -2.39303,-1.560901 -1.22714,-0.355377 -1.56824,-0.508542 -2.07958,-0.933803 -0.24793,-0.206198 -0.3613,-0.356365 -0.30874,-0.408933 0.0102,-0.01022 0.14055,0.01867 0.28962,0.0642 0.14906,0.04553 0.4901,0.140681 0.75786,0.211437 1.84916,0.488649 3.32121,0.56478 4.7989,0.248188 0.55467,-0.118837 0.72069,-0.137068 1.2336,-0.13546 0.85502,0.0027 1.39258,0.161459 1.99004,0.587795 0.51571,0.368003 0.80153,0.797152 1.05817,1.58881 0.0868,0.267758 0.20579,0.582083 0.26442,0.6985 0.42882,0.851545 1.15143,1.501198 2.41295,2.169347 0.23866,0.1264 0.43392,0.237694 0.43392,0.247319 0,0.04744 -0.65865,0.0021 -0.99324,-0.06837 z m -3.70286,-2.056692 c 0.2989,-0.08869 0.43732,-0.190771 0.57328,-0.422771 0.0951,-0.162331 0.10845,-0.226682 0.094,-0.454117 -0.012,-0.18844 -0.0448,-0.304209 -0.11355,-0.400768 -0.0532,-0.07468 -0.11203,-0.135782 -0.13077,-0.135782 -0.0187,0 -0.0358,0.08807 -0.038,0.195722 -0.008,0.417341 -0.27591,0.675612 -0.65673,0.634012 -0.40133,-0.04384 -0.77831,-0.382125 -0.86732,-0.778297 -0.0461,-0.205006 -0.0154,-0.263532 0.16958,-0.32331 0.11848,-0.0383 0.14116,-0.06603 0.14116,-0.172627 0,-0.181639 -0.22977,-0.286186 -0.6764,-0.307767 -0.3719,-0.01797 -1.09395,0.08298 -1.19534,0.167127 -0.09,0.07466 -0.0504,0.293332 0.1174,0.64864 0.18823,0.398588 0.74355,0.958784 1.14354,1.153563 0.53656,0.261289 1.00502,0.325209 1.4392,0.196375 z m -16.915069,-0.466321 c -0.535516,-0.05492 -1.411817,-0.114832 -1.947333,-0.133132 l -0.973667,-0.03327 0.232833,-0.231995 c 0.573771,-0.571705 2.021703,-1.303719 2.804874,-1.418027 l 0.201373,-0.02939 -0.131189,0.248267 c -0.107792,0.203987 -0.127841,0.283995 -0.112412,0.448585 0.03225,0.343971 0.176641,0.499354 1.045111,1.12464 l 0.188257,0.135542 -0.16709,-0.0057 c -0.0919,-0.0031 -0.60524,-0.05061 -1.140757,-0.105538 z m 18.834639,-1.052951 c 0.12275,-0.480025 0.14536,-1.473903 0.0455,-2.000235 -0.17942,-0.945815 -0.63133,-1.779465 -1.40682,-2.595167 l -0.41301,-0.434429 0.16934,0.0292 c 0.0931,0.01606 0.32961,0.107251 0.5255,0.202642 0.6615,0.322128 1.25032,1.032843 1.54973,1.870557 0.31842,0.890922 0.2938,1.757899 -0.0693,2.440596 -0.14063,0.264388 -0.43567,0.622637 -0.40095,0.486833 z M 75.9105,-41.65736 c -0.0802,-0.557831 -0.306629,-1.928638 -0.503179,-3.046238 -0.569085,-3.23586 -0.728902,-4.358098 -0.850046,-5.969001 -0.09786,-1.301309 -0.0749,-2.940493 0.05599,-3.997007 0.04617,-0.372653 0.117306,-0.310039 0.174447,0.153544 0.12938,1.049663 0.437751,2.234721 0.834484,3.206897 0.193823,0.474953 0.646892,1.393934 0.673907,1.366919 0.0083,-0.0083 -0.03299,-0.156924 -0.09168,-0.330356 -0.268952,-0.794769 -0.500272,-1.896894 -0.617063,-2.939997 -0.06853,-0.61206 -0.06818,-2.526461 5.91e-4,-3.196167 0.274101,-2.669418 1.128514,-5.065965 2.429912,-6.815667 0.287557,-0.386613 1.337306,-1.481667 1.420368,-1.481667 0.02215,0 -0.08854,0.395288 -0.245973,0.878417 -0.586429,1.799592 -0.900518,3.286198 -1.151559,5.450417 -0.07393,0.63734 -0.07378,3.710627 2.16e-4,4.423834 0.284132,2.738624 0.887137,5.183059 1.929176,7.820407 0.299168,0.75718 0.756643,1.813591 0.807311,1.864258 0.08436,0.08436 0.03875,-0.09786 -0.164923,-0.658927 -1.505268,-4.14662 -1.944504,-7.908812 -1.293461,-11.078905 0.422291,-2.05624 1.322952,-3.83874 2.727249,-5.3975 0.394615,-0.438021 0.582391,-0.799925 0.724843,-1.397 0.417266,-1.748941 0.828067,-2.907604 1.583469,-4.466167 0.574558,-1.185444 1.306082,-2.451839 2.084664,-3.608917 0.11584,-0.172154 0.182537,-0.306917 0.151899,-0.306917 -0.07953,0 -1.048814,0.270096 -1.496687,0.41706 -0.51001,0.167353 -1.327409,0.496456 -1.897542,0.763992 -0.253974,0.119178 -0.467333,0.211124 -0.474131,0.204325 -0.02428,-0.02428 0.368662,-0.894778 0.660461,-1.463128 1.315304,-2.56187 3.278649,-4.611284 5.397773,-5.6344 0.428955,-0.2071 1.168537,-0.48844 1.412013,-0.537135 0.198226,-0.03965 0.162207,-0.08415 -0.110263,-0.136226 -1.003298,-0.191771 -1.906758,-0.173993 -3.018303,0.05939 -1.460911,0.306741 -2.883689,0.986863 -4.67549,2.234998 -2.682929,1.868876 -5.014881,4.428995 -6.732018,7.3907 -0.435366,0.750915 -1.216822,2.357187 -1.545825,3.17742 -2.658135,6.626968 -2.576477,14.232439 0.223762,20.840708 0.409429,0.966211 1.640449,3.303246 1.705631,3.238064 0.0087,-0.0087 -0.04983,-0.472201 -0.130024,-1.030032 z m 0.253067,-22.561906 c 0.193421,-1.656874 1.618453,-4.35368 3.51202,-6.646334 0.565728,-0.684961 1.517051,-1.625099 2.043688,-2.019661 0.409752,-0.306991 1.002668,-0.635848 1.248304,-0.692365 0.112405,-0.02586 0.11144,-0.0224 -0.132512,0.475153 -0.247591,0.504979 -0.422711,0.977023 -0.698435,1.88266 -0.196228,0.644526 -0.382422,0.926129 -0.842573,1.274337 -0.676189,0.511688 -1.073169,0.859154 -1.701308,1.489106 -0.997743,1.000624 -1.750589,1.950165 -2.822371,3.55977 -0.325575,0.488951 -0.60197,0.898526 -0.61421,0.910167 -0.01224,0.01164 -0.0089,-0.09313 0.0074,-0.232833 z m 38.602313,17.668082 c 0.23209,-0.12153 0.81149,-0.617654 1.22365,-1.047772 0.49262,-0.514089 0.8401,-1.000643 1.07002,-1.498286 0.14085,-0.304852 0.25607,-0.70669 0.2259,-0.78787 -0.008,-0.02087 -0.30692,0.1392 -0.66482,0.355705 -0.3579,0.216504 -1.00009,0.567584 -1.42709,0.780177 -0.88019,0.438225 -0.80393,0.34705 -0.83444,0.997631 -0.0113,0.240038 -0.0426,0.390572 -0.10757,0.516897 -0.0504,0.09803 -0.0917,0.211673 -0.0917,0.252546 0,0.08752 0.37298,0.479391 0.45628,0.479391 0.0315,0 0.0989,-0.02179 0.14975,-0.04842 z m -1.02095,-0.914665 c 0.14972,-0.160018 0.24228,-0.355632 0.27245,-0.575772 0.0427,-0.311542 -0.0541,-0.302147 -0.5137,0.04986 -0.29501,0.22595 -0.31598,0.250837 -0.31685,0.376097 -0.002,0.253294 0.36834,0.352641 0.5581,0.149816 z m -1.8878,-0.733759 c 0.30218,-0.282051 0.36319,-0.758491 0.0971,-0.758491 -0.11023,0 -0.8424,0.59171 -0.8424,0.680797 0,0.225504 0.52795,0.280542 0.74528,0.07769 z m -1.53059,-0.381492 c 1.01753,-0.680563 1.67434,-1.750451 1.97026,-3.209407 0.0992,-0.489328 0.0992,-0.737383 -2.5e-4,-0.756178 -0.0353,-0.0067 -0.24619,0.164683 -0.4687,0.380779 -0.66125,0.642177 -1.40609,1.124314 -2.4305,1.573248 -0.47495,0.208142 -0.67489,0.361578 -0.72349,0.555223 -0.0657,0.261655 0.30036,0.97428 0.7228,1.40724 0.23438,0.240218 0.27452,0.264763 0.43288,0.264763 0.13948,0 0.23935,-0.04334 0.497,-0.215668 z m 5.63651,-1.631385 c 1.4342,-0.830528 1.53093,-0.909034 1.64127,-1.332085 0.0389,-0.149065 0.10921,-0.518679 0.1563,-0.821362 0.0471,-0.302683 0.1524,-0.861175 0.23404,-1.241092 0.0816,-0.379917 0.13713,-0.726344 0.12333,-0.769839 -0.0145,-0.0458 -0.10889,-0.108664 -0.2242,-0.149382 -0.64716,-0.228507 -0.99215,-0.409863 -1.51052,-0.794056 -0.15042,-0.111486 -0.34014,-0.230548 -0.4216,-0.264583 -0.50341,-0.210339 -1.0575,0.110446 -1.51188,0.875282 -0.34808,0.585895 -0.79667,1.923459 -0.79761,2.378203 -4.3e-4,0.209534 0.0358,0.27209 0.4209,0.727539 0.4184,0.494791 0.55661,0.698951 0.8108,1.197684 0.28964,0.568269 0.28355,0.559077 0.37045,0.559077 0.0428,0 0.36169,-0.164423 0.70872,-0.365386 z m 7.93835,-2.004951 c 0.64674,-0.914804 0.89922,-1.451449 0.90297,-1.919286 0.002,-0.2732 -0.005,-0.295807 -0.1334,-0.410481 -0.14528,-0.129916 -0.3711,-0.193644 -0.53786,-0.151789 -0.12319,0.03092 -0.43841,0.41691 -0.62345,0.763436 -0.12291,0.230169 -0.1367,0.296849 -0.16835,0.813902 -0.0352,0.575499 -0.1403,1.116909 -0.31839,1.640511 -0.055,0.161814 -0.0992,0.314683 -0.0982,0.339709 0.003,0.08242 0.7009,-0.685975 0.97664,-1.076002 z m -5.0554,0.228146 c 0.58323,-0.41618 1.10017,-0.98191 1.60242,-1.753657 0.34563,-0.531093 0.66763,-1.130161 0.64257,-1.19548 -0.0151,-0.03932 -0.26893,-0.05217 -1.03083,-0.05217 h -1.01081 l -0.0306,0.148167 c -0.0168,0.08149 -0.0602,0.40163 -0.0963,0.711419 -0.0361,0.309789 -0.14138,0.956452 -0.23395,1.43703 -0.0926,0.480577 -0.16829,0.879576 -0.16829,0.886664 0,0.03822 0.0794,-0.0061 0.32581,-0.181971 z m 4.20502,-2.017059 c 0.29216,-0.197795 0.45081,-0.753433 0.22433,-0.785685 -0.20633,-0.02938 -0.7335,0.358328 -0.7335,0.539467 0,0.132543 0.0752,0.255525 0.18269,0.29884 0.13967,0.05628 0.17375,0.05078 0.32648,-0.05262 z m -0.77398,-0.293041 c 0.28169,-0.267801 0.44418,-0.792748 0.28602,-0.92401 -0.096,-0.07964 -0.28294,0.01495 -0.53481,0.270554 -0.52941,0.537277 -0.5498,0.936865 -0.0421,0.825615 0.0785,-0.01721 0.20943,-0.09468 0.29093,-0.172159 z m -55.636822,-3.624321 c 0.03748,-0.133039 0.183669,-0.594313 0.324854,-1.025055 1.673244,-5.104912 4.467669,-9.652791 8.060261,-13.117937 1.263286,-1.218471 2.593836,-2.287878 3.932731,-3.160866 0.268649,-0.175164 0.488452,-0.327262 0.488452,-0.337996 0,-0.05079 -1.393415,0.548815 -2.112316,0.908952 -1.640168,0.821648 -3.437728,2.018933 -5.065066,3.373644 -0.703661,0.585776 -0.696619,0.580188 -0.696619,0.552798 0,-0.031 0.688738,-0.87981 1.139735,-1.40462 2.402058,-2.79519 5.257165,-5.045508 8.323469,-6.560335 1.083204,-0.535127 1.893381,-0.873864 3.236798,-1.353312 0.358527,-0.127954 0.389304,-0.146822 0.283624,-0.173885 -0.212557,-0.05443 -3.222417,0.0095 -3.860792,0.08199 -0.895394,0.101695 -2.053824,0.27104 -2.645834,0.386782 -0.581682,0.113722 -0.719666,0.125373 -0.719666,0.06076 0,-0.0541 0.02782,-0.06652 1.4605,-0.652019 1.419746,-0.580216 1.497433,-0.645959 0.713486,-0.603783 -2.259544,0.121561 -4.761959,1.202125 -7.100077,3.065872 -0.650451,0.518484 -1.932632,1.801 -2.380994,2.381616 -0.896639,1.161121 -1.447633,2.195696 -1.711473,3.213546 -0.04978,0.192042 -0.08226,0.35741 -0.07219,0.367484 0.01007,0.01007 0.109822,-0.120023 0.221661,-0.289106 1.192008,-1.802131 2.593,-3.245521 3.956401,-4.076132 0.424196,-0.258429 1.177035,-0.63722 1.206969,-0.607287 0.0098,0.0098 -0.08267,0.180681 -0.205535,0.37968 -2.348275,3.803276 -4.242863,8.265206 -5.678394,13.373149 -0.449082,1.597932 -1.334789,5.295257 -1.330947,5.555946 l 0.0014,0.09555 0.0807,-0.09678 c 0.04438,-0.05323 0.111368,-0.205628 0.148854,-0.338666 z m 54.648112,-12.81625 c 0.0963,-0.09632 0.13115,-0.325916 0.1282,-0.845306 -0.003,-0.510542 -0.072,-0.836493 -0.27012,-1.273359 -0.36444,-0.803747 -1.1973,-1.640691 -2.28292,-2.294117 -0.46336,-0.278894 -1.14257,-0.621539 -1.17257,-0.591536 -0.009,0.0094 0.22,0.246724 0.50968,0.527484 0.52263,0.506541 0.70012,0.726822 0.70043,0.869278 2.2e-4,0.104267 -0.0911,0.09285 -0.42318,-0.05292 -0.48266,-0.21184 -0.51939,-0.173327 -0.3122,0.327364 0.0872,0.210695 0.1951,0.608703 0.2752,1.015036 0.0725,0.367639 0.16681,0.737551 0.20962,0.822028 0.14385,0.283841 0.63948,0.648303 1.31803,0.969204 0.49795,0.235494 0.47177,0.08513 -0.26366,-1.514381 -0.22748,-0.494771 -0.39104,-0.899584 -0.36345,-0.899584 0.0816,0 0.38406,0.337735 0.5876,0.656167 0.19091,0.298688 0.57872,1.056637 0.92055,1.799167 0.25379,0.551285 0.31037,0.613892 0.43879,0.485472 z m -57.502816,-3.353556 c 0.920052,-1.22904 2.422682,-2.757686 4.046675,-4.116737 2.38078,-1.992373 5.018795,-3.618521 6.618993,-4.080135 l 0.232833,-0.06717 -0.130641,0.115644 c -0.07185,0.0636 -0.362225,0.313 -0.645272,0.554213 -0.903776,0.770198 -1.875735,1.855459 -2.587933,2.88961 l -0.273513,0.397155 0.718013,-0.684907 c 0.907638,-0.865788 1.310268,-1.209713 2.165691,-1.849923 3.441993,-2.576033 7.600839,-4.126004 12.534964,-4.671686 0.724175,-0.08009 0.999838,-0.124531 0.931333,-0.150149 -0.243894,-0.0912 -1.596219,-0.413977 -2.150473,-0.513274 -1.223647,-0.219223 -1.653411,-0.253337 -3.217334,-0.255388 -1.145408,-0.0015 -1.588365,0.01405 -2.053168,0.0721 -3.963752,0.495029 -7.486145,2.065511 -10.646834,4.746959 -0.603387,0.511899 -1.918907,1.838551 -2.438959,2.459598 -1.218593,1.455246 -2.172531,2.923538 -2.997899,4.614334 -0.386815,0.792406 -0.459112,0.9525 -0.430138,0.9525 0.0081,0 0.153721,-0.185737 0.323662,-0.41275 z m 49.436546,-6.900334 c 0.59877,-0.604821 0.94275,-1.273824 1.15145,-2.239477 0.14231,-0.658426 0.16304,-1.918647 0.045,-2.733114 -0.0911,-0.628495 -0.29246,-1.411543 -0.49651,-1.931048 -0.14599,-0.37166 -0.55521,-1.164596 -0.65796,-1.274881 -0.13394,-0.143763 -0.17726,-0.109692 -0.14497,0.11402 0.016,0.110595 0.0374,0.496358 0.0476,0.85725 0.0277,0.982421 -0.0979,1.878328 -0.37979,2.707154 -0.24254,0.713204 -0.44584,1.103316 -0.44789,0.859429 -10e-4,-0.157752 -0.35247,-1.109113 -0.56955,-1.543134 -0.39462,-0.788949 -0.89141,-1.496922 -1.59811,-2.277449 -0.49198,-0.543369 -1.05648,-1.047894 -2.19206,-1.959149 -0.4773,-0.383021 -1.3155,-1.084232 -1.86266,-1.558247 -1.92728,-1.669644 -2.50699,-2.160063 -2.52823,-2.138824 -0.0309,0.03094 0.4091,0.84921 0.66224,1.231458 0.45543,0.687717 0.80188,1.110408 1.57577,1.922506 0.25275,0.265234 0.45955,0.491234 0.45955,0.502221 0,0.05223 -0.28301,-0.04495 -0.80433,-0.276187 -1.10266,-0.48909 -2.22179,-0.866498 -3.2385,-1.092128 -0.95081,-0.211004 -1.3852,-0.416054 -1.99113,-0.939881 -1.57066,-1.357854 -3.195772,-2.207352 -5.438372,-2.842814 -0.831965,-0.235745 -1.420793,-0.356539 -1.505882,-0.308921 -0.05677,0.03177 0.02833,0.09817 0.431842,0.336997 1.930743,1.142726 3.862296,2.689458 5.304399,4.247609 0.573207,0.619333 1.145973,1.28163 1.145973,1.325101 0,0.01478 -0.242886,-0.09469 -0.539748,-0.243264 -0.296863,-0.14857 -0.760607,-0.357337 -1.030544,-0.463926 -0.520061,-0.205355 -1.4659,-0.468831 -1.592646,-0.443651 -0.06664,0.01324 -0.06275,0.02739 0.03289,0.119805 0.05965,0.05764 0.278724,0.223609 0.486833,0.368826 0.20811,0.145217 0.711756,0.542486 1.119214,0.882821 1.301061,1.086726 1.813431,1.394375 2.919111,1.752763 1.86507,0.604526 3.17398,1.665951 3.95472,3.206968 0.14333,0.282917 0.25865,0.305372 0.21739,0.04233 -0.0906,-0.577529 -0.61472,-1.785719 -1.03304,-2.381251 -0.82993,-1.181504 -2.03607,-2.102481 -3.77218,-2.880339 -0.34855,-0.156165 -0.27423,-0.172487 0.48448,-0.106403 1.8572,0.161763 3.67255,1.066239 5.30278,2.642039 0.78627,0.760014 1.31863,1.458823 1.9396,2.546037 0.29078,0.509114 0.79876,1.537404 1.01426,2.053167 0.10957,0.262228 0.21403,0.423333 0.2745,0.423333 0.045,0 -0.0361,-0.607892 -0.1717,-1.288099 -0.22325,-1.119456 -0.70148,-2.398899 -1.32999,-3.558178 -0.15121,-0.27891 -0.27493,-0.521798 -0.27493,-0.53975 0,-0.09138 0.16214,-0.001 0.53757,0.299594 1.55578,1.245725 2.5952,2.952231 2.99332,4.914387 0.11136,0.548865 0.12804,0.595379 0.21353,0.595379 0.16496,0 0.80517,-0.732721 1.24834,-1.428735 0.12506,-0.196401 0.24175,-0.337262 0.26664,-0.321876 0.0575,0.03554 0.009,0.922568 -0.0738,1.356587 -0.0867,0.453106 -0.24377,0.946366 -0.46005,1.444614 -0.10291,0.237092 -0.16818,0.431077 -0.14504,0.431077 0.0231,0 0.22596,-0.185737 0.4507,-0.41275 z m -23.907211,-7.423582 c 0.11694,-0.11694 0.08642,-0.330947 -0.104992,-0.736168 -0.269325,-0.57017 -0.889136,-1.216312 -1.730143,-1.803644 -0.470717,-0.328733 -0.58253,-0.418028 -0.58253,-0.465216 0,-0.05335 0.111256,-0.02391 0.923963,0.244505 0.82092,0.271124 1.22408,0.433132 2.018204,0.811007 l 0.592666,0.282014 0.381,-0.0037 c 0.330031,-0.0032 0.44896,-0.02705 0.889001,-0.177947 0.2794,-0.09581 0.759726,-0.260064 1.067391,-0.365015 0.772801,-0.263618 1.166132,-0.330836 1.836374,-0.313825 0.300587,0.0076 0.546494,0.0095 0.546461,0.0041 -3.3e-5,-0.0054 -0.223897,-0.159693 -0.497476,-0.34296 -2.08018,-1.393485 -4.405082,-2.282966 -6.869325,-2.628127 -0.666961,-0.09342 -1.609963,-0.185073 -1.636026,-0.15901 -0.009,0.009 0.299006,0.170724 0.684358,0.359487 0.816476,0.399949 1.43168,0.758337 1.900225,1.106981 0.441536,0.328546 0.939038,0.776314 0.883215,0.794921 -0.02447,0.0082 -0.336923,-0.04417 -0.694339,-0.116276 -1.914783,-0.386307 -3.811204,-0.634551 -5.856859,-0.766672 -0.910989,-0.05884 -3.085389,-0.07194 -4.000501,-0.0241 -0.769422,0.04022 -2.367159,0.180384 -2.397061,0.210286 -0.01138,0.01138 0.156594,0.03404 0.37327,0.05036 3.0464,0.229473 6.118821,0.912806 8.560205,1.903864 0.897875,0.364484 0.90366,0.342742 -0.08665,0.325665 -1.621421,-0.02796 -2.84529,0.154082 -4.217932,0.627388 -0.509794,0.175785 -1.224529,0.482313 -1.543914,0.662139 -0.580588,0.326892 -0.574958,0.322909 -0.508745,0.359964 0.03916,0.02191 0.212464,0.004 0.440128,-0.04553 1.60292,-0.348631 3.655728,-0.424819 5.773035,-0.21426 0.822216,0.08177 2.594915,0.324267 3.238501,0.443018 0.434515,0.08017 0.518242,0.07703 0.618498,-0.02323 z"
         id="path2-9" /><path
         style="fill:#ad0000;fill-opacity:1;stroke:none;stroke-width:6.42001;stroke-dasharray:none"
         d="m 77.016466,-88.719947 -8.116932,5.474208 c 0,0 -5.851742,6.41804 -6.229273,7.173102 -0.377532,0.755063 -0.755063,4.15285 -0.755063,4.15285 l 5.662975,-4.15285 -3.397785,14.53497 3.397785,12.458547 c 0,0 3.964083,0.755062 4.15285,1.698892 0.188764,0.94383 6.984335,11.703484 6.984335,11.703484 l 2.453955,-4.341617 8.3057,8.871995 2.26519,-6.984336 3.397784,7.928166 1.321361,-2.642722 0.94383,-10.948419 2.831482,-3.964082 3.77532,1.510127 0.94383,4.719146 2.07643,-0.188767 0.18876,3.20902 2.45396,-1.321361 2.45395,-0.566298 2.26519,-2.831486 -0.18876,-2.265191 3.20902,-2.453957 0.37753,-2.453955 -2.45396,1.132594 -3.02025,-2.642722 1.32136,-4.152847 1.88766,-0.377531 2.83149,1.510125 -0.37754,3.20902 1.88766,-0.188767 1.32136,-2.076424 1.6989,0.755063 -0.75507,3.397787 2.64273,-2.831489 1.13259,-2.076423 2.83149,-3.964083 2.64272,-4.530381 -1.51013,-2.26519 -5.28544,-3.020253 -0.94383,-1.321361 -2.07642,-0.566299 0.75506,-1.887659 -1.88766,-3.209017 -6.04051,-3.397787 0.94383,-3.209018 -0.18876,-5.47421 -3.02026,-4.719146 0.37754,5.474208 -3.20902,-3.775315 -6.60681,-5.851742 -0.18877,3.020253 -3.775311,-1.510125 -7.550634,-2.642722 1.698892,4.341614 -8.305697,-2.076424 -0.377531,1.887657 h -8.871995 l 0.755063,1.510128 3.586551,0.755062 z"
         id="path3" /><ellipse
         style="fill:#ffffff;fill-opacity:1;stroke:none;stroke-width:5.29049;stroke-dasharray:none"
         id="path4"
         cx="84.038834"
         cy="-102.90691"
         rx="2.1486039"
         ry="1.7208272"
         transform="rotate(18.442954)" /><path
         style="fill:#ffffff;fill-opacity:1;stroke:none;stroke-width:6.42001;stroke-dasharray:none"
         d="m 108.0835,-50.487907 c 0.20021,-0.133477 4.17117,-2.769659 4.17117,-2.769659 l 2.23575,4.271283 3.13672,-1.735209 1.16793,-4.571609 6.4403,-0.53391 c 0,0 0.83423,1.301406 0.66739,1.468255 -0.16685,0.166846 -3.63727,4.705085 -3.63727,4.471498 0,-0.233585 0.3337,-3.470418 0.3337,-3.470418 l -1.2013,-0.200216 -3.63727,3.503787 -1.50162,2.869769 -2.36923,1.601732 c 0,0 -4.50487,-0.967713 -4.60497,-1.301406 -0.10012,-0.333695 -1.2013,-3.603897 -1.2013,-3.603897 z"
         id="path5" /><path
         style="fill:#000000"
         d="m 92.231184,-24.678723 c 0,-0.01098 0.0491,-0.13004 0.109117,-0.264583 0.491161,-1.101111 0.858578,-2.422764 0.997722,-3.588957 0.06701,-0.5616 0.06682,-1.916392 -3.39e-4,-2.497667 -0.116931,-1.012012 -0.413661,-2.198173 -0.804444,-3.215714 -0.173548,-0.451892 -0.229436,-0.286447 -0.342663,1.01438 -0.267083,3.068417 -0.647105,4.785847 -1.385406,6.261052 -0.36547,0.730247 -0.892064,1.459058 -1.394826,1.930449 l -0.248328,0.232833 -0.03088,-0.508 c -0.09935,-1.634589 -0.520123,-3.117965 -1.358805,-4.790248 -0.822929,-1.640874 -1.99384,-3.302568 -4.171584,-5.920086 -0.290572,-0.34925 -0.534519,-0.642938 -0.542105,-0.652639 -0.03963,-0.05068 -0.03445,0.09366 0.0333,0.927805 0.09339,1.149887 0.100749,2.522455 0.01713,3.197431 -0.195526,1.578345 -0.901924,3.061726 -1.966807,4.13014 -0.400489,0.401817 -0.89766,0.765968 -0.960278,0.70335 -0.01183,-0.01182 0.02928,-0.121713 0.09135,-0.244194 0.06207,-0.122482 0.161031,-0.405364 0.219921,-0.628626 0.147491,-0.55916 0.152839,-1.392437 0.01293,-2.0146 -0.232197,-1.03256 -0.731077,-2.087883 -1.596027,-3.376205 -0.687622,-1.024197 -1.397974,-1.921664 -3.05743,-3.862796 -1.454807,-1.701746 -1.539737,-1.802566 -1.979183,-2.3495 -1.182114,-1.471257 -1.620857,-2.176567 -2.580705,-4.148667 -0.785337,-1.613551 -0.905987,-1.83412 -0.96886,-1.771247 -0.01466,0.01466 -0.0335,0.433475 -0.04186,0.9307 -0.01745,1.037311 -0.09767,1.742771 -0.280732,2.468895 -0.354175,1.404817 -1.153009,2.627546 -1.990289,3.04642 -0.166262,0.08318 -0.327071,0.151232 -0.357353,0.151232 -0.03701,0 -0.0066,-0.104795 0.09264,-0.319681 0.424024,-0.917743 0.464341,-2.09339 0.119697,-3.490319 -0.298954,-1.211734 -0.599424,-1.999721 -1.772132,-4.647443 -1.084744,-2.449119 -1.279301,-2.97776 -1.569192,-4.263724 -0.320728,-1.422759 -0.382181,-2.087235 -0.346485,-3.7465 0.01427,-0.663575 0.0544,-1.577029 0.08917,-2.029897 0.03477,-0.452869 0.05388,-0.832735 0.04246,-0.844147 -0.05376,-0.05376 -0.158394,0.148068 -0.348742,0.67271 -0.114041,0.314325 -0.217429,0.6096 -0.229749,0.656167 -0.314164,1.187393 -1.135467,3.760324 -1.388713,4.350483 -0.184635,0.430271 -0.37481,0.708107 -0.423149,0.618202 -0.06598,-0.122715 -0.269909,-2.411083 -0.299428,-3.360018 -0.147413,-4.738789 0.57237,-8.938535 2.187503,-12.763516 0.58961,-1.396321 1.256882,-2.632109 2.120088,-3.926402 0.283394,-0.424921 0.50124,-0.772584 0.484103,-0.772584 -0.01714,0 -0.290047,0.176213 -0.606467,0.391584 -1.668272,1.135504 -3.00587,2.59986 -4.263246,4.66725 -0.212412,0.34925 -0.409431,0.635 -0.437819,0.635 -0.08892,0 -0.0815,-0.245462 0.03354,-1.109815 0.52751,-3.963398 1.385368,-7.187449 2.603884,-9.786075 1.45882,-3.111099 3.339136,-5.301965 5.875525,-6.845915 l 0.240772,-0.146562 -0.613834,0.03302 c -1.025,0.05513 -2.585734,0.0326 -3.127922,-0.04516 -0.509888,-0.07313 -1.399838,-0.270027 -1.456608,-0.322271 -0.01853,-0.01705 0.171967,-0.06436 0.423333,-0.105126 1.497928,-0.242918 3.173882,-0.851142 5.050198,-1.832775 0.337608,-0.176627 1.290108,-0.696251 2.116666,-1.15472 1.585711,-0.87955 2.584546,-1.40297 3.3842,-1.773423 0.351945,-0.163044 0.466896,-0.234166 0.420466,-0.26015 -0.06593,-0.0369 -0.400942,0.01891 -2.174832,0.362302 -2.24212,0.434031 -3.155303,0.54576 -4.466167,0.546444 -1.046645,5.47e-4 -1.577291,-0.05361 -2.269981,-0.23166 -0.40796,-0.104864 -1.127752,-0.33932 -1.106616,-0.360456 0.0085,-0.0085 0.29067,-0.0727 0.62709,-0.142721 1.593925,-0.331735 2.807579,-0.765549 5.322137,-1.902369 2.091751,-0.945672 2.797536,-1.226906 3.819704,-1.522042 1.79041,-0.516953 3.700789,-0.622326 5.766959,-0.318095 0.249769,0.03678 0.483133,0.05574 0.518584,0.04213 0.130267,-0.04999 0.05715,-0.155001 -0.242459,-0.348252 -1.156512,-0.745951 -2.165268,-1.827586 -2.565058,-2.750377 -0.12841,-0.29639 -0.269744,-0.77476 -0.324409,-1.09801 -0.0272,-0.16083 -0.02489,-0.16562 0.04934,-0.10206 0.968416,0.82916 1.922127,1.37335 3.062377,1.747409 1.294087,0.424523 2.465447,0.606568 5.207001,0.809236 1.364373,0.100861 2.221789,0.183311 2.878667,0.276815 0.561925,0.07999 0.574566,0.05247 0.111995,-0.243772 -1.013217,-0.648898 -1.831343,-1.445298 -2.534348,-2.467048 -0.473516,-0.68821 -0.640487,-1.08368 -0.419101,-0.99265 0.03774,0.0155 0.287695,0.10315 0.555454,0.19473 1.061864,0.36318 2.398331,0.69222 4.6355,1.14125 2.017442,0.40493 3.22999,0.70851 4.402667,1.102267 1.61075,0.540855 2.948452,1.249908 4.035947,2.139264 0.47809,0.39099 0.60166,0.479139 0.67164,0.479139 0.0376,0 -0.006,-0.08988 -0.11756,-0.243417 -1.17425,-1.613679 -1.87905,-3.263233 -2.175044,-5.090585 -0.03583,-0.22119 -0.06522,-0.41646 -0.06531,-0.43392 -9.3e-5,-0.0175 0.05222,-0.0314 0.116247,-0.0311 0.09661,5.7e-4 0.171296,0.0708 0.439044,0.41275 0.742203,0.947972 1.788203,1.984912 3.021703,2.99556 0.30269,0.247998 1.30281,1.018224 2.2225,1.711613 0.91969,0.69339 1.95998,1.489461 2.31174,1.769047 1.55515,1.236051 2.73364,2.396643 3.61287,3.558001 0.14621,0.193131 0.28745,0.343527 0.31387,0.334213 0.0879,-0.03098 0.0326,-0.579148 -0.12229,-1.212721 -0.2882,-1.179062 -0.5574,-1.92286 -1.02329,-2.827376 -0.12351,-0.239787 -0.22456,-0.452566 -0.22456,-0.472841 0,-0.185098 0.63903,0.202114 1.5875,0.961921 0.64105,0.513538 1.79586,1.664619 2.28035,2.272989 1.48629,1.866312 2.34614,3.774679 2.61178,5.796635 0.0317,0.241425 0.0418,0.707867 0.0278,1.291167 -0.031,1.297754 -0.1773,1.936023 -0.75709,3.302959 -0.35558,0.838342 -0.39064,1.030697 -0.23166,1.270934 0.14883,0.224891 1.24416,1.195709 1.82489,1.61744 0.4292,0.31169 0.78943,0.507198 1.77281,0.962161 1.12847,0.52209 2.43679,1.64833 3.15692,2.717565 0.42923,0.637302 0.63086,1.155129 0.66884,1.717727 0.0264,0.391596 -0.017,0.612512 -0.20456,1.040121 -0.18128,0.413306 -0.15137,0.448093 0.51484,0.598886 0.81248,0.183904 1.22427,0.524336 1.39033,1.149423 0.0641,0.241181 0.21705,0.3653 0.70304,0.570426 0.89606,0.378205 2.07487,1.033457 3.15051,1.751239 0.99427,0.663476 1.54711,1.104005 2.18403,1.740311 0.83025,0.82946 1.15942,1.383055 1.19565,2.010842 0.0228,0.395853 -0.0265,0.518879 -0.48507,1.208591 -1.16906,1.758449 -2.18883,3.760783 -3.18981,6.263243 -0.16764,0.4191 -0.33994,0.863353 -0.38288,0.987229 -0.11222,0.323709 -0.34319,0.684124 -0.58089,0.906466 -0.25479,0.238328 -0.34895,0.287362 -0.85523,0.445374 -0.48305,0.150764 -0.70172,0.258262 -0.85291,0.419304 -0.0621,0.06616 -0.25645,0.373642 -0.43185,0.68329 -0.85323,1.506261 -1.76315,2.487798 -2.86666,3.092273 -0.43019,0.23565 -0.67372,0.229387 -0.67372,-0.01733 0,-0.05039 0.13173,-0.39782 0.29273,-0.77206 0.43331,-1.007226 0.64279,-1.646049 0.67002,-2.043229 0.0379,-0.553522 -0.0262,-0.627126 -0.62706,-0.719203 -0.62247,-0.09539 -0.91661,0.03998 -1.32551,0.610047 -0.26333,0.367136 -0.80966,0.882948 -1.3947,1.316799 -0.68076,0.504834 -0.70999,0.548481 -1.00619,1.502514 -0.17448,0.561965 -0.63225,1.472556 -1.00126,1.991689 -0.27217,0.382898 -0.99789,1.151722 -1.48654,1.574839 -0.21371,0.185041 -0.22584,0.206065 -0.20698,0.358613 0.011,0.08913 0.0916,0.331686 0.17901,0.539022 0.30831,0.731037 0.2982,1.104462 -0.0406,1.501411 l -0.18011,0.211003 -0.0222,1.050806 c -0.0254,1.204664 -0.10374,1.763574 -0.35106,2.504831 -0.17653,0.529091 -0.43631,1.043642 -0.52689,1.043642 -0.0473,0 -0.0718,-0.07553 -0.0959,-0.296333 -0.0178,-0.162984 -0.0537,-0.363009 -0.0798,-0.4445 -0.1376,-0.429609 -0.39669,-0.762 -0.59397,-0.762 -0.21187,0 -0.35181,0.186797 -0.58671,0.783166 -0.3139,0.796902 -0.7501,1.669417 -1.09211,2.184479 -0.39947,0.601593 -1.0508,1.294208 -1.13649,1.208521 -0.0119,-0.01193 0.0574,-0.332562 0.15411,-0.712513 0.25757,-1.012089 0.27499,-1.699646 0.0569,-2.244734 -0.0723,-0.180589 -0.2513,-0.294764 -0.40089,-0.255646 -0.0439,0.01148 -0.30209,0.299504 -0.57375,0.640051 -0.82927,1.039548 -1.48265,1.626813 -2.23425,2.008171 -0.32335,0.164065 -0.89535,0.367838 -1.03255,0.367838 -0.0854,0 -0.0855,-0.0019 -0.009,-0.179916 0.43358,-1.011771 0.36828,-2.219901 -0.186,-3.441401 -0.39678,-0.87461 -0.7974,-0.899555 -1.96834,-0.122569 -0.22119,0.146774 -0.45151,0.285564 -0.51182,0.308424 l -0.10966,0.04156 0.097,-0.401049 c 0.33062,-1.367599 0.21059,-2.538091 -0.50679,-4.942031 -0.16246,-0.544413 -0.20885,-0.650964 -0.34097,-0.783167 l -0.15293,-0.153021 -0.43896,-0.0143 c -0.85421,-0.02782 -1.50684,0.257425 -1.77101,0.774055 -0.11009,0.215294 -0.11069,0.256204 -0.0378,2.563406 0.0619,1.95986 0.0342,3.122496 -0.101,4.233334 -0.20963,1.722463 -0.68835,3.150834 -1.445318,4.312369 -0.242593,0.37225 -0.523741,0.738376 -0.548209,0.713908 -0.0074,-0.0074 0.02252,-0.213507 0.06659,-0.45791 0.204006,-1.131272 0.222796,-2.677212 0.04292,-3.5312 -0.177637,-0.84333 -0.433107,-1.460505 -0.849881,-2.053167 -0.221015,-0.314287 -0.715998,-0.846667 -0.787194,-0.846667 -0.02029,0 0.0231,0.300038 0.09642,0.66675 0.455063,2.275889 0.467251,4.687797 0.03481,6.889751 -0.66486,3.385446 -2.313041,6.099952 -4.724628,7.781325 -0.38441,0.268013 -0.457549,0.310088 -0.457549,0.263216 z m 3.341859,-8.954708 c 0.256946,-2.432908 0.218988,-5.039478 -0.105,-7.210328 -0.472321,-3.16474 -1.474417,-5.941132 -3.097082,-8.580721 -0.911317,-1.482441 -1.458706,-2.470038 -1.88844,-3.407119 -0.666563,-1.453513 -1.038053,-2.751192 -1.174893,-4.104107 -0.07951,-0.786067 -0.01866,-2.472104 0.108926,-3.018476 0.03807,-0.163034 -0.101222,-0.113949 -0.529875,0.186721 -0.506964,0.3556 -1.28864,1.133046 -1.705603,1.696372 -0.565417,0.763891 -0.928894,1.485189 -1.594988,3.165157 -0.193865,0.48895 -0.371035,0.90805 -0.393711,0.931333 -0.04817,0.04946 -0.008,-1.341371 0.05684,-1.9685 0.364478,-3.524466 1.813166,-6.728623 4.402217,-9.736667 0.319357,-0.37104 0.34132,-0.416811 0.142491,-0.296958 -0.38384,0.231378 -1.18694,0.795591 -1.613378,1.133471 -0.612581,0.485366 -1.93453,1.81968 -2.400698,2.423154 -1.43125,1.852812 -2.423495,3.937744 -2.989548,6.281721 -1.201582,4.975643 -0.356338,10.664194 2.284044,15.37178 1.028145,1.8331 2.446857,3.623532 3.867743,4.881141 0.506461,0.448263 1.186435,1.004039 1.312829,1.07304 0.0423,0.02309 -0.09315,-0.183203 -0.300995,-0.458432 -1.437172,-1.903114 -2.622916,-4.102575 -3.389351,-6.286983 -1.62107,-4.620197 -1.364998,-8.930377 0.730928,-12.302864 0.329019,-0.529414 0.882135,-1.267885 0.902928,-1.205508 0.0092,0.02763 -0.01266,0.25597 -0.04859,0.507421 -0.14542,1.017574 -0.171368,1.42282 -0.171577,2.679684 -2.36e-4,1.416956 0.04763,1.957263 0.273748,3.090334 0.331254,1.659863 0.953953,3.19658 1.826781,4.508185 0.459885,0.691073 0.859068,1.188454 1.504494,1.874596 0.873885,0.929014 1.365554,1.598453 1.965792,2.676553 0.930422,1.671151 1.335858,3.107761 1.755478,6.22031 0.07377,0.547209 0.128518,0.835018 0.148971,0.783167 0.01778,-0.04509 0.07157,-0.453452 0.119519,-0.907477 z m 13.354117,-6.162963 c 0.0141,-0.03683 0.0258,-0.174941 0.0259,-0.306916 3.1e-4,-0.300679 0.10277,-0.990244 0.19464,-1.309921 0.0918,-0.319424 0.28152,-0.736144 0.36725,-0.806628 0.0936,-0.07698 0.15999,-0.03141 0.391,0.268457 0.25847,0.33553 0.82906,0.915457 1.12905,1.147528 0.27088,0.209551 0.60872,0.390728 0.75941,0.40725 0.1158,0.0127 0.11606,0.0098 0.0431,-0.489454 -0.06,-0.410788 -0.0611,-0.771986 -0.003,-1.128055 0.0585,-0.360831 0.14441,-0.532174 0.29875,-0.596104 0.2535,-0.105 0.55545,0.05617 1.29835,0.69303 0.2629,0.225377 0.4892,0.409776 0.50287,0.409776 0.0463,0 -0.0294,-0.411572 -0.12956,-0.703956 -0.0548,-0.159983 -0.18978,-0.500428 -0.29995,-0.756544 -0.12643,-0.293896 -0.20846,-0.553029 -0.22238,-0.702503 -0.0202,-0.217059 -0.0119,-0.247889 0.0996,-0.369184 0.0669,-0.07279 0.21694,-0.166758 0.33336,-0.208814 0.28947,-0.104574 0.29765,-0.199001 0.041,-0.473386 -0.24617,-0.263181 -0.48726,-0.383947 -0.76648,-0.383947 -0.11656,0 -0.49631,0.04985 -0.84389,0.110771 -0.52316,0.0917 -0.77406,0.111742 -1.45745,0.116416 -0.56022,0.0038 -0.90713,-0.01278 -1.0795,-0.05169 -1.65633,-0.373866 -2.69327,-1.68416 -3.15404,-3.985501 -0.24331,-1.215214 -0.33061,-2.416417 -0.34614,-4.7625 -0.01,-1.516723 -0.007,-1.577 0.0856,-1.903093 0.20457,-0.718091 0.54442,-1.175888 1.329,-1.790264 1.19287,-0.934089 2.68691,-1.631062 4.2446,-1.980115 0.45163,-0.1012 0.56908,-0.111541 1.05834,-0.09317 0.63369,0.02379 0.92993,0.100584 1.51248,0.392087 0.72057,0.360559 1.31929,0.823638 2.53511,1.960772 0.75907,0.709936 1.10285,0.961651 1.59609,1.168655 0.60757,0.254986 0.86785,0.298055 1.78582,0.295499 1.07261,-0.003 1.51728,-0.08564 3.84268,-0.714228 0.472,-0.127589 0.96832,-0.244441 1.10293,-0.25967 0.34191,-0.03868 0.68776,0.06541 1.00454,0.302354 0.13751,0.102855 0.28352,0.187009 0.32446,0.187009 0.0948,0 0.3618,-0.522364 0.51454,-1.006578 0.2129,-0.674909 0.22206,-1.325637 0.031,-2.200342 -0.23956,-1.096493 -0.65201,-1.867277 -1.71587,-3.206581 -0.66795,-0.84088 -0.99639,-1.33185 -1.17008,-1.749068 -0.15093,-0.362547 -0.24775,-0.834517 -0.24909,-1.214265 -0.002,-0.512789 0.0794,-0.559237 0.4017,-0.229708 0.32116,0.32837 0.85322,0.768619 1.19569,0.989364 0.56842,0.366387 1.14042,0.572865 1.89305,0.683338 0.5701,0.08368 0.99518,0.241857 1.48821,0.553782 0.73531,0.465204 1.153,0.593618 1.5601,0.479637 0.24516,-0.06864 0.41301,-0.254457 0.37568,-0.415903 -0.0731,-0.316246 -0.49089,-0.777644 -1.20149,-1.326954 -0.49565,-0.383158 -1.96795,-1.385157 -2.70933,-1.843896 -0.94441,-0.584359 -3.30612,-1.91531 -4.18576,-2.358899 -0.2489,-0.125514 -0.44663,-0.29847 -0.40964,-0.358317 0.0129,-0.02091 0.12348,-0.05144 0.2457,-0.06784 0.3182,-0.04272 0.49737,-0.125155 0.49737,-0.228855 0,-0.166852 -0.26133,-0.240248 -1.29466,-0.363613 -1.09726,-0.130997 -1.78383,-0.338593 -2.52948,-0.764827 -0.47865,-0.273614 -0.37255,-0.276373 -1.2347,0.03211 -0.48734,0.174372 -0.52779,0.181742 -0.99483,0.181251 -0.36843,-3.88e-4 -0.5267,-0.01827 -0.65076,-0.07351 -0.13818,-0.06153 -0.15566,-0.08297 -0.11124,-0.136493 0.029,-0.03492 0.0707,-0.0635 0.0928,-0.0635 0.0221,0 0.18316,-0.05956 0.35802,-0.132353 0.42298,-0.176089 0.76252,-0.487679 0.92683,-0.850541 0.48838,-1.078579 -0.33557,-3.325726 -1.80495,-4.922606 -1.29938,-1.412123 -2.97515,-2.541432 -5.47519,-3.689744 -0.76754,-0.352545 -1.64064,-0.835309 -2.21514,-1.224825 -0.25018,-0.169619 -0.63584,-0.430828 -0.85703,-0.580465 -0.56061,-0.379249 -0.89588,-0.555046 -1.35829,-0.712194 -0.3339,-0.113478 -0.47751,-0.138225 -0.88538,-0.152571 -0.57886,-0.02036 -0.7214,0.0329 -0.87736,0.327832 -0.1978,0.374035 -0.0935,0.865607 0.28724,1.354133 l 0.21447,0.275167 -0.1505,0.01312 c -0.20404,0.01779 -0.63736,-0.09812 -0.8645,-0.231229 -0.41855,-0.245287 -0.75887,-0.663777 -0.98424,-1.210309 -0.26123,-0.633482 -0.88077,-1.702761 -1.43262,-2.472573 -0.91416,-1.275234 -2.108368,-2.425654 -3.224858,-3.106612 -0.770053,-0.469663 -1.700671,-0.83586 -2.534966,-0.997504 -0.595342,-0.115348 -1.756227,-0.105394 -2.2225,0.01905 -1.148001,0.306405 -2.075545,1.151464 -2.452307,2.234228 -0.164642,0.473157 -0.206995,0.777162 -0.183714,1.318683 0.02664,0.619662 0.102111,0.853942 0.624446,1.938423 0.84027,1.744586 0.917266,2.227274 0.51048,3.20022 -0.226304,0.541271 -0.223564,0.584254 0.05118,0.802911 0.445348,0.354434 1.005295,0.529865 1.574625,0.493327 0.340443,-0.02185 0.531459,-0.108629 0.531459,-0.241448 0,-0.04359 -0.05705,-0.213311 -0.126766,-0.377153 -0.225114,-0.52901 -0.241584,-1.001506 -0.06149,-1.764138 0.08058,-0.341244 0.09248,-0.735403 0.04231,-1.401359 -0.0318,-0.422116 -0.02609,-0.500701 0.05599,-0.770951 0.07412,-0.244032 0.136017,-0.349113 0.32738,-0.555808 0.490608,-0.529916 1.264482,-0.73654 2.344911,-0.626091 l 0.3175,0.03246 -0.219742,-0.207352 c -0.448188,-0.422918 -0.998953,-0.642588 -1.686382,-0.672607 -0.772309,-0.03373 -1.258048,0.128323 -1.660649,0.554015 -0.372349,0.393703 -0.516665,0.810898 -0.517768,1.496782 -3.46e-4,0.215093 -0.01971,0.40088 -0.0433,0.41546 -0.05906,0.0365 -0.200091,-0.305094 -0.32129,-0.778223 -0.18739,-0.73152 -0.12037,-1.651966 0.167713,-2.303373 0.413626,-0.935282 1.129699,-1.427116 2.077774,-1.427116 0.569791,0 0.936918,0.108582 1.780313,0.526547 0.969113,0.480268 1.752744,1.007857 2.8575,1.923848 0.692963,0.574558 2.370671,2.078285 2.370671,2.124829 0,0.08741 -0.16262,0.02573 -0.61106,-0.23176 -0.99746,-0.572731 -1.316268,-0.625866 -1.421022,-0.236842 -0.08795,0.326634 0.05475,0.902642 0.324347,1.309171 0.297035,0.447903 0.751035,0.809918 1.686565,1.344831 l 0.46567,0.266257 -0.52917,-2.3e-5 c -1.25515,-5.5e-5 -2.209753,-0.307528 -2.89274,-0.93174 -0.216276,-0.197664 -0.235488,-0.206796 -0.261645,-0.124381 -0.04096,0.129063 0.01733,0.57298 0.113122,0.861405 0.101834,0.306627 0.317745,0.739892 0.540334,1.084281 0.09227,0.142763 0.157489,0.286352 0.144927,0.319088 -0.03759,0.09794 -0.455663,0.146053 -1.293967,0.148898 -0.952489,0.0032 -1.523552,-0.13639 -2.111127,-0.516158 -0.140608,-0.09088 -0.273524,-0.154189 -0.29537,-0.140688 -0.08247,0.05097 0.073,0.742695 0.259259,1.153484 0.152164,0.33559 0.429944,0.725814 0.713412,1.002196 0.118503,0.115541 0.215461,0.232734 0.215461,0.260427 0,0.05193 -0.16949,0.07619 -0.867834,0.124205 -0.48178,0.03312 -1.46619,0.197146 -2.025421,0.337472 -0.931188,0.233662 -2.306111,0.763532 -2.986966,1.151123 -0.646586,0.368083 -1.308382,0.811209 -1.778578,1.190902 -0.366319,0.295811 -0.854017,0.736593 -0.835491,0.755118 0.0092,0.0092 0.395381,-0.07108 0.858235,-0.178337 1.11252,-0.257811 2.893154,-0.611127 5.328888,-1.057366 2.580447,-0.47275 3.12082,-0.581802 3.677601,-0.742169 1.137717,-0.327692 2.091,-0.795967 2.88917,-1.419222 0.35611,-0.278067 0.40385,-0.348261 0.29712,-0.436837 -0.0969,-0.08045 -0.69849,-0.133753 -1.17961,-0.104532 -0.321621,0.01954 -0.456114,0.0139 -0.456114,-0.0191 0,-0.02574 0.130381,-0.124265 0.289735,-0.218936 1.314259,-0.780789 3.927429,-1.244854 5.351109,-0.950288 0.35402,0.07325 0.61065,0.17686 0.5579,0.225252 -0.0216,0.0198 -0.24879,0.05852 -0.50491,0.08603 -0.84434,0.0907 -1.40138,0.267975 -1.915,0.609428 -0.34852,0.231696 -1.24327,1.100721 -2.04733,1.988472 -0.90282,0.996775 -1.574117,1.535922 -2.242047,1.800668 -0.612381,0.242729 -0.915627,0.262651 -2.061737,0.135446 -1.957092,-0.217214 -2.733557,-0.220703 -3.439054,-0.01545 -0.277278,0.08067 -0.283268,0.07777 0.508,0.245579 0.536355,0.113745 1.227667,0.316562 1.227667,0.360172 0,0.01311 -0.166688,0.06916 -0.370417,0.124545 -2.319984,0.630718 -3.821879,1.207895 -5.005917,1.923771 l -0.359833,0.217557 0.750779,0.02265 c 0.418515,0.01262 0.769777,0.04164 0.793705,0.06557 0.02901,0.02901 -0.09771,0.144235 -0.390946,0.35547 -1.172662,0.844744 -2.474641,1.974795 -3.311852,2.874518 -0.410829,0.441505 -1.179612,1.359937 -1.156212,1.381277 0.0069,0.0063 0.298275,-0.129422 0.647526,-0.301565 1.988057,-0.979904 4.277052,-1.759843 6.180667,-2.105964 1.072065,-0.194926 2.262876,-0.323092 3.00429,-0.323351 l 0.294957,-1.03e-4 -0.513189,0.311182 c -1.566871,0.950099 -3.050994,2.323893 -4.325822,4.004239 -0.204216,0.269177 -0.385313,0.513168 -0.402439,0.542202 -0.03957,0.06709 0.04425,0.03477 0.524036,-0.202049 0.505924,-0.249725 1.402099,-0.60688 2.074333,-0.826691 0.551734,-0.180409 1.233192,-0.366136 1.256796,-0.342531 0.0063,0.0063 -0.135784,0.09488 -0.31575,0.196843 -0.88739,0.502751 -2.145078,1.343949 -2.846046,1.903561 -0.537727,0.429292 -1.2867,1.124962 -1.679514,1.559989 -0.219183,0.242736 -0.391638,0.448215 -0.383233,0.45662 0.0084,0.0084 0.254724,-0.108355 0.547377,-0.259464 0.809082,-0.417765 2.21309,-0.948874 2.90289,-1.098108 l 0.138686,-0.03 -0.19464,0.278435 c -0.677596,0.96931 -1.168796,2.31467 -1.400226,3.835111 -0.09098,0.597743 -0.101722,1.78467 -0.0203,2.243666 0.0587,0.330908 0.252063,0.994008 0.281323,0.964748 0.0093,-0.0093 0.04548,-0.272985 0.08047,-0.586046 0.391641,-3.503563 1.894366,-6.252914 4.183489,-7.654012 0.28,-0.171378 0.936742,-0.514024 0.98522,-0.514024 0.01362,0 -0.07663,0.119513 -0.200552,0.265583 -2.475801,2.918334 -3.592715,6.858142 -3.015038,10.635252 0.308748,2.018732 1.072754,3.89742 2.251317,5.535976 0.254406,0.353701 0.882307,1.115576 0.997876,1.210791 0.06219,0.05124 0.07052,0.04664 0.07052,-0.0389 0,-0.05335 -0.115541,-0.431918 -0.256758,-0.841267 -0.591212,-1.713759 -0.841659,-3.085742 -0.843175,-4.619034 -0.0021,-2.077698 0.548383,-3.989135 1.560051,-5.417403 0.212001,-0.299302 0.857812,-0.988232 1.124848,-1.199951 l 0.166798,-0.132246 -0.159459,0.274515 c -0.422147,0.726743 -0.728427,1.528953 -0.880573,2.306401 -0.118953,0.607835 -0.128656,1.668381 -0.02072,2.264948 0.116095,0.641674 0.400182,1.648804 0.493409,1.749205 0.01772,0.01909 0.0844,-0.123787 0.14816,-0.3175 0.534931,-1.625102 1.835309,-2.924251 3.526309,-3.522968 l 0.30805,-0.109069 -0.3727,0.369916 c -1.3499,1.339836 -2.07626,3.843167 -1.49584,5.155291 l 0.0898,0.203042 0.26556,-0.525708 c 0.46182,-0.914243 0.81403,-1.354096 1.2407,-1.549432 0.12831,-0.05874 0.23939,-0.100082 0.24686,-0.09187 0.008,0.0082 -0.0523,0.186377 -0.13273,0.395927 -0.61977,1.613971 -0.6308,3.136608 -0.0317,4.3815 0.23707,0.492649 0.4429,0.820797 0.48614,0.775053 0.0178,-0.01882 0.0911,-0.247601 0.16296,-0.5084 0.0718,-0.260799 0.17757,-0.580378 0.23497,-0.710174 0.13742,-0.310736 0.36293,-0.620902 0.44041,-0.605742 0.0372,0.0073 0.10904,0.164078 0.18051,0.394042 0.0834,0.268385 0.16424,0.435158 0.27188,0.560917 0.18135,0.211865 0.27694,0.224328 0.56095,0.07314 0.25264,-0.134493 0.49504,-0.14127 0.56223,-0.01572 0.0644,0.120396 0.10099,0.563814 0.22817,2.767386 0.0591,1.024466 0.12657,2.097067 0.14988,2.383556 0.0233,0.286489 0.0424,0.547828 0.0424,0.580754 0,0.130815 0.12471,-2.03e-4 0.27536,-0.28929 0.32735,-0.628151 0.87788,-1.385527 1.08498,-1.492625 0.10816,-0.05593 0.12177,-0.05416 0.16203,0.02107 0.0242,0.04517 0.044,0.317247 0.044,0.604609 0,1.503802 0.42403,2.821263 1.21802,3.78437 0.2284,0.277052 0.39289,0.351595 0.44962,0.203757 z m -4.51759,-14.913746 c -0.0442,-0.219837 -0.034,-1.34052 0.0158,-1.742069 0.0633,-0.509873 0.19246,-1.12256 0.36475,-1.72977 0.29796,-1.050067 0.61103,-1.619237 1.23992,-2.254165 0.52091,-0.525923 1.14351,-0.92472 1.81129,-1.160203 0.14338,-0.05056 0.20333,-0.09011 0.16933,-0.111698 -0.0845,-0.05364 -0.49136,-0.03986 -0.8501,0.02879 -0.39255,0.07512 -0.68046,0.08361 -0.64046,0.01889 0.1003,-0.16229 1.58097,-0.98418 2.34834,-1.303516 0.88264,-0.367309 1.98267,-0.697053 3.06892,-0.919939 0.30269,-0.06211 0.55811,-0.119959 0.5676,-0.12856 0.01,-0.0086 -0.10606,-0.07156 -0.2568,-0.139904 -0.32893,-0.149144 -0.80102,-0.244082 -1.40929,-0.283407 -0.29673,-0.01918 -0.44437,-0.0449 -0.4344,-0.07565 0.0259,-0.07984 0.32619,-0.22342 0.89789,-0.429313 1.02559,-0.369352 1.30669,-0.526006 1.82033,-1.014455 0.7219,-0.686473 1.61354,-1.124864 2.76,-1.356996 2.07931,-0.421013 4.44827,0.161753 5.91282,1.454563 0.23402,0.206581 0.74635,0.770201 0.74635,0.821073 0,0.01708 -0.17621,-0.07641 -0.39158,-0.207741 -1.41676,-0.863943 -2.86114,-1.243988 -4.49792,-1.183489 -0.75806,0.02802 -1.27218,0.09905 -2.0329,0.280845 -0.52166,0.124669 -1.58103,0.451124 -1.63932,0.505172 -0.0174,0.01609 0.13505,0.0826 0.33867,0.147787 0.20362,0.06519 0.44279,0.165357 0.53148,0.222593 0.13854,0.0894 0.15942,0.122964 0.14817,0.238191 -0.011,0.112175 -0.068,0.175347 -0.34877,0.385989 -0.18462,0.138525 -0.50847,0.415446 -0.71966,0.61538 -0.82696,0.782844 -1.0946,0.957209 -1.76956,1.152843 -0.23766,0.06888 -0.56595,0.195531 -0.72953,0.281439 -0.32127,0.168717 -0.80179,0.592989 -1.00326,0.885822 -0.16016,0.232789 -0.13402,0.331593 0.10466,0.395488 0.62941,0.168497 1.43864,0.52296 1.52949,0.66995 0.0126,0.02032 -0.0675,0.05022 -0.17781,0.06644 -0.404,0.05937 -1.5004,0.364494 -2.07052,0.576209 -0.66182,0.245768 -1.57957,0.696856 -2.07261,1.018721 -1.63517,1.067448 -2.64804,2.344095 -3.16895,3.994232 -0.12474,0.395155 -0.13555,0.413823 -0.16236,0.280459 z m 15.97328,-3.270453 c -0.89427,-0.0909 -1.81735,-0.336293 -2.50451,-0.665789 -0.48363,-0.231908 -0.91497,-0.500096 -1.98169,-1.232118 -0.90109,-0.618371 -1.46291,-0.96722 -2.2448,-1.393869 l -0.40217,-0.219447 0.33867,0.02615 c 1.37436,0.106133 2.81588,0.681197 5.35517,2.136321 1.0532,0.603535 2.064,1.063263 2.69382,1.225194 0.0962,0.02474 0.19858,0.07343 0.22743,0.108186 0.0461,0.05557 -0.0185,0.06252 -0.53482,0.05757 -0.32299,-0.0031 -0.74919,-0.02209 -0.9471,-0.0422 z m 2.94217,-1.090229 c -0.4191,-0.1585 -1.12395,-0.436045 -1.56633,-0.616765 -3.25995,-1.331733 -4.76691,-1.876132 -6.10787,-2.206505 -0.35578,-0.08765 -0.63201,-0.173833 -0.61384,-0.191511 0.0898,-0.08736 0.5136,-0.263026 0.82392,-0.341498 0.29802,-0.07536 0.43014,-0.0847 0.92151,-0.06513 0.38105,0.01518 0.68556,0.05244 0.90709,0.110998 1.03294,0.27305 3.61092,1.550924 4.95819,2.457715 0.62958,0.423747 1.54686,1.140205 1.4605,1.140748 -0.0117,7.3e-5 -0.36407,-0.129549 -0.78317,-0.28805 z m -20.07962,-1.34012 c 0.21624,-0.667359 0.37106,-1.381893 0.42585,-1.965349 0.0989,-1.053456 -0.17903,-1.859073 -0.88497,-2.565007 -0.36091,-0.360912 -0.57761,-0.522198 -1.83443,-1.365304 -1.02409,-0.686989 -1.994197,-1.401292 -2.024943,-1.490995 -0.02315,-0.06755 0.209873,-0.04759 0.819306,0.07019 0.655677,0.126714 0.782307,0.110361 0.782307,-0.10103 0,-0.06517 -0.0258,-0.156065 -0.0573,-0.201991 -0.0974,-0.141946 -0.83171,-1.778923 -0.83171,-1.854087 0,-0.08266 0.07782,-0.09022 0.171513,-0.01665 0.03612,0.02836 0.170862,0.194445 0.299417,0.36907 1.5701,2.132759 3.53489,3.537529 5.50022,3.93251 1.7259,0.346862 3.31526,0.187807 6.1465,-0.615112 0.0534,-0.01515 0.0669,-0.0028 0.0486,0.04475 -0.0353,0.09201 -1.10316,0.623709 -2.13326,1.062176 -1.781,0.758093 -2.79095,1.326927 -3.83117,2.157824 -0.88701,0.708524 -1.62188,1.506723 -2.26915,2.464698 -0.20916,0.309551 -0.40386,0.56282 -0.43268,0.56282 -0.0355,0 -0.001,-0.157288 0.10588,-0.48851 z m 20.77812,-0.893896 c -2.51806,-1.896829 -4.20451,-2.831046 -5.94783,-3.294832 -0.52008,-0.138358 -1.0404,-0.229652 -1.40746,-0.246948 -0.16874,-0.008 -0.31812,-0.02578 -0.33195,-0.03961 -0.0727,-0.07272 0.0524,-0.200905 0.31167,-0.319266 0.61138,-0.279125 1.20089,-0.355753 1.87269,-0.243421 1.04808,0.175252 1.98777,0.637215 3.34388,1.643885 1.21527,0.902129 2.0723,1.685001 2.63315,2.405322 0.2867,0.368218 0.60182,0.839268 0.57715,0.862727 -0.008,0.0074 -0.48086,-0.338148 -1.0513,-0.767857 z m -5.10117,-1.73293 c -1.31912,-0.281433 -2.64244,-0.474154 -3.683,-0.536373 -0.14021,-0.0084 -0.17168,-0.02668 -0.18299,-0.106394 -0.0112,-0.07878 0.0217,-0.111903 0.1809,-0.182334 0.29772,-0.131697 0.72168,-0.206684 1.17312,-0.207495 0.6808,-0.0012 1.35465,0.166176 2.14434,0.532707 0.3934,0.182598 1.1508,0.599802 1.1508,0.633906 0,0.02979 -0.0777,0.0165 -0.78317,-0.134017 z m 5.41867,-3.367399 c -1.47888,-1.227398 -3.56927,-2.09082 -5.77073,-2.38356 l -0.40994,-0.05451 0.16692,-0.07325 c 0.64954,-0.285023 1.75221,-0.244098 2.81939,0.10464 1.37506,0.44935 2.77428,1.46745 3.44638,2.50766 0.10828,0.167583 0.0373,0.139146 -0.25202,-0.100984 z m -7.27974,-1.604136 c -0.20867,-0.04395 -0.53252,-0.140392 -0.71966,-0.21431 -0.35861,-0.141642 -1.06261,-0.514284 -1.36819,-0.724212 -0.56133,-0.385623 -0.92948,-0.436326 -1.93541,-0.266561 -0.8964,0.151281 -1.34211,0.136345 -1.94307,-0.06511 -0.47369,-0.158794 -0.84772,-0.388156 -1.0563,-0.64774 -0.16298,-0.20284 -0.21489,-0.295585 -0.44226,-0.790194 -0.36859,-0.801789 -0.84517,-1.112644 -2.39303,-1.560901 -1.22714,-0.355377 -1.56824,-0.508542 -2.07958,-0.933803 -0.24793,-0.206198 -0.3613,-0.356365 -0.30874,-0.408933 0.0102,-0.01022 0.14055,0.01867 0.28962,0.0642 0.14906,0.04553 0.4901,0.140681 0.75786,0.211437 1.84916,0.488649 3.32121,0.56478 4.7989,0.248188 0.55467,-0.118837 0.72069,-0.137068 1.2336,-0.13546 0.85502,0.0027 1.39258,0.161459 1.99004,0.587795 0.51571,0.368003 0.80153,0.797152 1.05817,1.58881 0.0868,0.267758 0.20579,0.582083 0.26442,0.6985 0.42882,0.851545 1.15143,1.501198 2.41295,2.169347 0.23866,0.1264 0.43392,0.237694 0.43392,0.247319 0,0.04744 -0.65865,0.0021 -0.99324,-0.06837 z m -3.70286,-2.056692 c 0.2989,-0.08869 0.43732,-0.190771 0.57328,-0.422771 0.0951,-0.162331 0.10845,-0.226682 0.094,-0.454117 -0.012,-0.18844 -0.0448,-0.304209 -0.11355,-0.400768 -0.0532,-0.07468 -0.11203,-0.135782 -0.13077,-0.135782 -0.0187,0 -0.0358,0.08807 -0.038,0.195722 -0.008,0.417341 -0.27591,0.675612 -0.65673,0.634012 -0.40133,-0.04384 -0.77831,-0.382125 -0.86732,-0.778297 -0.0461,-0.205006 -0.0154,-0.263532 0.16958,-0.32331 0.11848,-0.0383 0.14116,-0.06603 0.14116,-0.172627 0,-0.181639 -0.22977,-0.286186 -0.6764,-0.307767 -0.3719,-0.01797 -1.09395,0.08298 -1.19534,0.167127 -0.09,0.07466 -0.0504,0.293332 0.1174,0.64864 0.18823,0.398588 0.74355,0.958784 1.14354,1.153563 0.53656,0.261289 1.00502,0.325209 1.4392,0.196375 z m -16.915069,-0.466321 c -0.535516,-0.05492 -1.411817,-0.114832 -1.947333,-0.133132 l -0.973667,-0.03327 0.232833,-0.231995 c 0.573771,-0.571705 2.021703,-1.303719 2.804874,-1.418027 l 0.201373,-0.02939 -0.131189,0.248267 c -0.107792,0.203987 -0.127841,0.283995 -0.112412,0.448585 0.03225,0.343971 0.176641,0.499354 1.045111,1.12464 l 0.188257,0.135542 -0.16709,-0.0057 c -0.0919,-0.0031 -0.60524,-0.05061 -1.140757,-0.105538 z m 18.834639,-1.052951 c 0.12275,-0.480025 0.14536,-1.473903 0.0455,-2.000235 -0.17942,-0.945815 -0.63133,-1.779465 -1.40682,-2.595167 l -0.41301,-0.434429 0.16934,0.0292 c 0.0931,0.01606 0.32961,0.107251 0.5255,0.202642 0.6615,0.322128 1.25032,1.032843 1.54973,1.870557 0.31842,0.890922 0.2938,1.757899 -0.0693,2.440596 -0.14063,0.264388 -0.43567,0.622637 -0.40095,0.486833 z M 75.9105,-41.65736 c -0.0802,-0.557831 -0.306629,-1.928638 -0.503179,-3.046238 -0.569085,-3.23586 -0.728902,-4.358098 -0.850046,-5.969001 -0.09786,-1.301309 -0.0749,-2.940493 0.05599,-3.997007 0.04617,-0.372653 0.117306,-0.310039 0.174447,0.153544 0.12938,1.049663 0.437751,2.234721 0.834484,3.206897 0.193823,0.474953 0.646892,1.393934 0.673907,1.366919 0.0083,-0.0083 -0.03299,-0.156924 -0.09168,-0.330356 -0.268952,-0.794769 -0.500272,-1.896894 -0.617063,-2.939997 -0.06853,-0.61206 -0.06818,-2.526461 5.91e-4,-3.196167 0.274101,-2.669418 1.128514,-5.065965 2.429912,-6.815667 0.287557,-0.386613 1.337306,-1.481667 1.420368,-1.481667 0.02215,0 -0.08854,0.395288 -0.245973,0.878417 -0.586429,1.799592 -0.900518,3.286198 -1.151559,5.450417 -0.07393,0.63734 -0.07378,3.710627 2.16e-4,4.423834 0.284132,2.738624 0.887137,5.183059 1.929176,7.820407 0.299168,0.75718 0.756643,1.813591 0.807311,1.864258 0.08436,0.08436 0.03875,-0.09786 -0.164923,-0.658927 -1.505268,-4.14662 -1.944504,-7.908812 -1.293461,-11.078905 0.422291,-2.05624 1.322952,-3.83874 2.727249,-5.3975 0.394615,-0.438021 0.582391,-0.799925 0.724843,-1.397 0.417266,-1.748941 0.828067,-2.907604 1.583469,-4.466167 0.574558,-1.185444 1.306082,-2.451839 2.084664,-3.608917 0.11584,-0.172154 0.182537,-0.306917 0.151899,-0.306917 -0.07953,0 -1.048814,0.270096 -1.496687,0.41706 -0.51001,0.167353 -1.327409,0.496456 -1.897542,0.763992 -0.253974,0.119178 -0.467333,0.211124 -0.474131,0.204325 -0.02428,-0.02428 0.368662,-0.894778 0.660461,-1.463128 1.315304,-2.56187 3.278649,-4.611284 5.397773,-5.6344 0.428955,-0.2071 1.168537,-0.48844 1.412013,-0.537135 0.198226,-0.03965 0.162207,-0.08415 -0.110263,-0.136226 -1.003298,-0.191771 -1.906758,-0.173993 -3.018303,0.05939 -1.460911,0.306741 -2.883689,0.986863 -4.67549,2.234998 -2.682929,1.868876 -5.014881,4.428995 -6.732018,7.3907 -0.435366,0.750915 -1.216822,2.357187 -1.545825,3.17742 -2.658135,6.626968 -2.576477,14.232439 0.223762,20.840708 0.409429,0.966211 1.640449,3.303246 1.705631,3.238064 0.0087,-0.0087 -0.04983,-0.472201 -0.130024,-1.030032 z m 0.253067,-22.561906 c 0.193421,-1.656874 1.618453,-4.35368 3.51202,-6.646334 0.565728,-0.684961 1.517051,-1.625099 2.043688,-2.019661 0.409752,-0.306991 1.002668,-0.635848 1.248304,-0.692365 0.112405,-0.02586 0.11144,-0.0224 -0.132512,0.475153 -0.247591,0.504979 -0.422711,0.977023 -0.698435,1.88266 -0.196228,0.644526 -0.382422,0.926129 -0.842573,1.274337 -0.676189,0.511688 -1.073169,0.859154 -1.701308,1.489106 -0.997743,1.000624 -1.750589,1.950165 -2.822371,3.55977 -0.325575,0.488951 -0.60197,0.898526 -0.61421,0.910167 -0.01224,0.01164 -0.0089,-0.09313 0.0074,-0.232833 z m 38.602313,17.668082 c 0.23209,-0.12153 0.81149,-0.617654 1.22365,-1.047772 0.49262,-0.514089 0.8401,-1.000643 1.07002,-1.498286 0.14085,-0.304852 0.25607,-0.70669 0.2259,-0.78787 -0.008,-0.02087 -0.30692,0.1392 -0.66482,0.355705 -0.3579,0.216504 -1.00009,0.567584 -1.42709,0.780177 -0.88019,0.438225 -0.80393,0.34705 -0.83444,0.997631 -0.0113,0.240038 -0.0426,0.390572 -0.10757,0.516897 -0.0504,0.09803 -0.0917,0.211673 -0.0917,0.252546 0,0.08752 0.37298,0.479391 0.45628,0.479391 0.0315,0 0.0989,-0.02179 0.14975,-0.04842 z m -1.02095,-0.914665 c 0.14972,-0.160018 0.24228,-0.355632 0.27245,-0.575772 0.0427,-0.311542 -0.0541,-0.302147 -0.5137,0.04986 -0.29501,0.22595 -0.31598,0.250837 -0.31685,0.376097 -0.002,0.253294 0.36834,0.352641 0.5581,0.149816 z m -1.8878,-0.733759 c 0.30218,-0.282051 0.36319,-0.758491 0.0971,-0.758491 -0.11023,0 -0.8424,0.59171 -0.8424,0.680797 0,0.225504 0.52795,0.280542 0.74528,0.07769 z m -1.53059,-0.381492 c 1.01753,-0.680563 1.67434,-1.750451 1.97026,-3.209407 0.0992,-0.489328 0.0992,-0.737383 -2.5e-4,-0.756178 -0.0353,-0.0067 -0.24619,0.164683 -0.4687,0.380779 -0.66125,0.642177 -1.40609,1.124314 -2.4305,1.573248 -0.47495,0.208142 -0.67489,0.361578 -0.72349,0.555223 -0.0657,0.261655 0.30036,0.97428 0.7228,1.40724 0.23438,0.240218 0.27452,0.264763 0.43288,0.264763 0.13948,0 0.23935,-0.04334 0.497,-0.215668 z m 5.63651,-1.631385 c 1.4342,-0.830528 1.53093,-0.909034 1.64127,-1.332085 0.0389,-0.149065 0.10921,-0.518679 0.1563,-0.821362 0.0471,-0.302683 0.1524,-0.861175 0.23404,-1.241092 0.0816,-0.379917 0.13713,-0.726344 0.12333,-0.769839 -0.0145,-0.0458 -0.10889,-0.108664 -0.2242,-0.149382 -0.64716,-0.228507 -0.99215,-0.409863 -1.51052,-0.794056 -0.15042,-0.111486 -0.34014,-0.230548 -0.4216,-0.264583 -0.50341,-0.210339 -1.0575,0.110446 -1.51188,0.875282 -0.34808,0.585895 -0.79667,1.923459 -0.79761,2.378203 -4.3e-4,0.209534 0.0358,0.27209 0.4209,0.727539 0.4184,0.494791 0.55661,0.698951 0.8108,1.197684 0.28964,0.568269 0.28355,0.559077 0.37045,0.559077 0.0428,0 0.36169,-0.164423 0.70872,-0.365386 z m 7.93835,-2.004951 c 0.64674,-0.914804 0.89922,-1.451449 0.90297,-1.919286 0.002,-0.2732 -0.005,-0.295807 -0.1334,-0.410481 -0.14528,-0.129916 -0.3711,-0.193644 -0.53786,-0.151789 -0.12319,0.03092 -0.43841,0.41691 -0.62345,0.763436 -0.12291,0.230169 -0.1367,0.296849 -0.16835,0.813902 -0.0352,0.575499 -0.1403,1.116909 -0.31839,1.640511 -0.055,0.161814 -0.0992,0.314683 -0.0982,0.339709 0.003,0.08242 0.7009,-0.685975 0.97664,-1.076002 z m -5.0554,0.228146 c 0.58323,-0.41618 1.10017,-0.98191 1.60242,-1.753657 0.34563,-0.531093 0.66763,-1.130161 0.64257,-1.19548 -0.0151,-0.03932 -0.26893,-0.05217 -1.03083,-0.05217 h -1.01081 l -0.0306,0.148167 c -0.0168,0.08149 -0.0602,0.40163 -0.0963,0.711419 -0.0361,0.309789 -0.14138,0.956452 -0.23395,1.43703 -0.0926,0.480577 -0.16829,0.879576 -0.16829,0.886664 0,0.03822 0.0794,-0.0061 0.32581,-0.181971 z m 4.20502,-2.017059 c 0.29216,-0.197795 0.45081,-0.753433 0.22433,-0.785685 -0.20633,-0.02938 -0.7335,0.358328 -0.7335,0.539467 0,0.132543 0.0752,0.255525 0.18269,0.29884 0.13967,0.05628 0.17375,0.05078 0.32648,-0.05262 z m -0.77398,-0.293041 c 0.28169,-0.267801 0.44418,-0.792748 0.28602,-0.92401 -0.096,-0.07964 -0.28294,0.01495 -0.53481,0.270554 -0.52941,0.537277 -0.5498,0.936865 -0.0421,0.825615 0.0785,-0.01721 0.20943,-0.09468 0.29093,-0.172159 z m -55.636822,-3.624321 c 0.03748,-0.133039 0.183669,-0.594313 0.324854,-1.025055 1.673244,-5.104912 4.467669,-9.652791 8.060261,-13.117937 1.263286,-1.218471 2.593836,-2.287878 3.932731,-3.160866 0.268649,-0.175164 0.488452,-0.327262 0.488452,-0.337996 0,-0.05079 -1.393415,0.548815 -2.112316,0.908952 -1.640168,0.821648 -3.437728,2.018933 -5.065066,3.373644 -0.703661,0.585776 -0.696619,0.580188 -0.696619,0.552798 0,-0.031 0.688738,-0.87981 1.139735,-1.40462 2.402058,-2.79519 5.257165,-5.045508 8.323469,-6.560335 1.083204,-0.535127 1.893381,-0.873864 3.236798,-1.353312 0.358527,-0.127954 0.389304,-0.146822 0.283624,-0.173885 -0.212557,-0.05443 -3.222417,0.0095 -3.860792,0.08199 -0.895394,0.101695 -2.053824,0.27104 -2.645834,0.386782 -0.581682,0.113722 -0.719666,0.125373 -0.719666,0.06076 0,-0.0541 0.02782,-0.06652 1.4605,-0.652019 1.419746,-0.580216 1.497433,-0.645959 0.713486,-0.603783 -2.259544,0.121561 -4.761959,1.202125 -7.100077,3.065872 -0.650451,0.518484 -1.932632,1.801 -2.380994,2.381616 -0.896639,1.161121 -1.447633,2.195696 -1.711473,3.213546 -0.04978,0.192042 -0.08226,0.35741 -0.07219,0.367484 0.01007,0.01007 0.109822,-0.120023 0.221661,-0.289106 1.192008,-1.802131 2.593,-3.245521 3.956401,-4.076132 0.424196,-0.258429 1.177035,-0.63722 1.206969,-0.607287 0.0098,0.0098 -0.08267,0.180681 -0.205535,0.37968 -2.348275,3.803276 -4.242863,8.265206 -5.678394,13.373149 -0.449082,1.597932 -1.334789,5.295257 -1.330947,5.555946 l 0.0014,0.09555 0.0807,-0.09678 c 0.04438,-0.05323 0.111368,-0.205628 0.148854,-0.338666 z m 54.648112,-12.81625 c 0.0963,-0.09632 0.13115,-0.325916 0.1282,-0.845306 -0.003,-0.510542 -0.072,-0.836493 -0.27012,-1.273359 -0.36444,-0.803747 -1.1973,-1.640691 -2.28292,-2.294117 -0.46336,-0.278894 -1.14257,-0.621539 -1.17257,-0.591536 -0.009,0.0094 0.22,0.246724 0.50968,0.527484 0.52263,0.506541 0.70012,0.726822 0.70043,0.869278 2.2e-4,0.104267 -0.0911,0.09285 -0.42318,-0.05292 -0.48266,-0.21184 -0.51939,-0.173327 -0.3122,0.327364 0.0872,0.210695 0.1951,0.608703 0.2752,1.015036 0.0725,0.367639 0.16681,0.737551 0.20962,0.822028 0.14385,0.283841 0.63948,0.648303 1.31803,0.969204 0.49795,0.235494 0.47177,0.08513 -0.26366,-1.514381 -0.22748,-0.494771 -0.39104,-0.899584 -0.36345,-0.899584 0.0816,0 0.38406,0.337735 0.5876,0.656167 0.19091,0.298688 0.57872,1.056637 0.92055,1.799167 0.25379,0.551285 0.31037,0.613892 0.43879,0.485472 z m -57.502816,-3.353556 c 0.920052,-1.22904 2.422682,-2.757686 4.046675,-4.116737 2.38078,-1.992373 5.018795,-3.618521 6.618993,-4.080135 l 0.232833,-0.06717 -0.130641,0.115644 c -0.07185,0.0636 -0.362225,0.313 -0.645272,0.554213 -0.903776,0.770198 -1.875735,1.855459 -2.587933,2.88961 l -0.273513,0.397155 0.718013,-0.684907 c 0.907638,-0.865788 1.310268,-1.209713 2.165691,-1.849923 3.441993,-2.576033 7.600839,-4.126004 12.534964,-4.671686 0.724175,-0.08009 0.999838,-0.124531 0.931333,-0.150149 -0.243894,-0.0912 -1.596219,-0.413977 -2.150473,-0.513274 -1.223647,-0.219223 -1.653411,-0.253337 -3.217334,-0.255388 -1.145408,-0.0015 -1.588365,0.01405 -2.053168,0.0721 -3.963752,0.495029 -7.486145,2.065511 -10.646834,4.746959 -0.603387,0.511899 -1.918907,1.838551 -2.438959,2.459598 -1.218593,1.455246 -2.172531,2.923538 -2.997899,4.614334 -0.386815,0.792406 -0.459112,0.9525 -0.430138,0.9525 0.0081,0 0.153721,-0.185737 0.323662,-0.41275 z m 49.436546,-6.900334 c 0.59877,-0.604821 0.94275,-1.273824 1.15145,-2.239477 0.14231,-0.658426 0.16304,-1.918647 0.045,-2.733114 -0.0911,-0.628495 -0.29246,-1.411543 -0.49651,-1.931048 -0.14599,-0.37166 -0.55521,-1.164596 -0.65796,-1.274881 -0.13394,-0.143763 -0.17726,-0.109692 -0.14497,0.11402 0.016,0.110595 0.0374,0.496358 0.0476,0.85725 0.0277,0.982421 -0.0979,1.878328 -0.37979,2.707154 -0.24254,0.713204 -0.44584,1.103316 -0.44789,0.859429 -10e-4,-0.157752 -0.35247,-1.109113 -0.56955,-1.543134 -0.39462,-0.788949 -0.89141,-1.496922 -1.59811,-2.277449 -0.49198,-0.543369 -1.05648,-1.047894 -2.19206,-1.959149 -0.4773,-0.383021 -1.3155,-1.084232 -1.86266,-1.558247 -1.92728,-1.669644 -2.50699,-2.160063 -2.52823,-2.138824 -0.0309,0.03094 0.4091,0.84921 0.66224,1.231458 0.45543,0.687717 0.80188,1.110408 1.57577,1.922506 0.25275,0.265234 0.45955,0.491234 0.45955,0.502221 0,0.05223 -0.28301,-0.04495 -0.80433,-0.276187 -1.10266,-0.48909 -2.22179,-0.866498 -3.2385,-1.092128 -0.95081,-0.211004 -1.3852,-0.416054 -1.99113,-0.939881 -1.57066,-1.357854 -3.195772,-2.207352 -5.438372,-2.842814 -0.831965,-0.235745 -1.420793,-0.356539 -1.505882,-0.308921 -0.05677,0.03177 0.02833,0.09817 0.431842,0.336997 1.930743,1.142726 3.862296,2.689458 5.304399,4.247609 0.573207,0.619333 1.145973,1.28163 1.145973,1.325101 0,0.01478 -0.242886,-0.09469 -0.539748,-0.243264 -0.296863,-0.14857 -0.760607,-0.357337 -1.030544,-0.463926 -0.520061,-0.205355 -1.4659,-0.468831 -1.592646,-0.443651 -0.06664,0.01324 -0.06275,0.02739 0.03289,0.119805 0.05965,0.05764 0.278724,0.223609 0.486833,0.368826 0.20811,0.145217 0.711756,0.542486 1.119214,0.882821 1.301061,1.086726 1.813431,1.394375 2.919111,1.752763 1.86507,0.604526 3.17398,1.665951 3.95472,3.206968 0.14333,0.282917 0.25865,0.305372 0.21739,0.04233 -0.0906,-0.577529 -0.61472,-1.785719 -1.03304,-2.381251 -0.82993,-1.181504 -2.03607,-2.102481 -3.77218,-2.880339 -0.34855,-0.156165 -0.27423,-0.172487 0.48448,-0.106403 1.8572,0.161763 3.67255,1.066239 5.30278,2.642039 0.78627,0.760014 1.31863,1.458823 1.9396,2.546037 0.29078,0.509114 0.79876,1.537404 1.01426,2.053167 0.10957,0.262228 0.21403,0.423333 0.2745,0.423333 0.045,0 -0.0361,-0.607892 -0.1717,-1.288099 -0.22325,-1.119456 -0.70148,-2.398899 -1.32999,-3.558178 -0.15121,-0.27891 -0.27493,-0.521798 -0.27493,-0.53975 0,-0.09138 0.16214,-0.001 0.53757,0.299594 1.55578,1.245725 2.5952,2.952231 2.99332,4.914387 0.11136,0.548865 0.12804,0.595379 0.21353,0.595379 0.16496,0 0.80517,-0.732721 1.24834,-1.428735 0.12506,-0.196401 0.24175,-0.337262 0.26664,-0.321876 0.0575,0.03554 0.009,0.922568 -0.0738,1.356587 -0.0867,0.453106 -0.24377,0.946366 -0.46005,1.444614 -0.10291,0.237092 -0.16818,0.431077 -0.14504,0.431077 0.0231,0 0.22596,-0.185737 0.4507,-0.41275 z m -23.907211,-7.423582 c 0.11694,-0.11694 0.08642,-0.330947 -0.104992,-0.736168 -0.269325,-0.57017 -0.889136,-1.216312 -1.730143,-1.803644 -0.470717,-0.328733 -0.58253,-0.418028 -0.58253,-0.465216 0,-0.05335 0.111256,-0.02391 0.923963,0.244505 0.82092,0.271124 1.22408,0.433132 2.018204,0.811007 l 0.592666,0.282014 0.381,-0.0037 c 0.330031,-0.0032 0.44896,-0.02705 0.889001,-0.177947 0.2794,-0.09581 0.759726,-0.260064 1.067391,-0.365015 0.772801,-0.263618 1.166132,-0.330836 1.836374,-0.313825 0.300587,0.0076 0.546494,0.0095 0.546461,0.0041 -3.3e-5,-0.0054 -0.223897,-0.159693 -0.497476,-0.34296 -2.08018,-1.393485 -4.405082,-2.282966 -6.869325,-2.628127 -0.666961,-0.09342 -1.609963,-0.185073 -1.636026,-0.15901 -0.009,0.009 0.299006,0.170724 0.684358,0.359487 0.816476,0.399949 1.43168,0.758337 1.900225,1.106981 0.441536,0.328546 0.939038,0.776314 0.883215,0.794921 -0.02447,0.0082 -0.336923,-0.04417 -0.694339,-0.116276 -1.914783,-0.386307 -3.811204,-0.634551 -5.856859,-0.766672 -0.910989,-0.05884 -3.085389,-0.07194 -4.000501,-0.0241 -0.769422,0.04022 -2.367159,0.180384 -2.397061,0.210286 -0.01138,0.01138 0.156594,0.03404 0.37327,0.05036 3.0464,0.229473 6.118821,0.912806 8.560205,1.903864 0.897875,0.364484 0.90366,0.342742 -0.08665,0.325665 -1.621421,-0.02796 -2.84529,0.154082 -4.217932,0.627388 -0.509794,0.175785 -1.224529,0.482313 -1.543914,0.662139 -0.580588,0.326892 -0.574958,0.322909 -0.508745,0.359964 0.03916,0.02191 0.212464,0.004 0.440128,-0.04553 1.60292,-0.348631 3.655728,-0.424819 5.773035,-0.21426 0.822216,0.08177 2.594915,0.324267 3.238501,0.443018 0.434515,0.08017 0.518242,0.07703 0.618498,-0.02323 z"
         id="path2" /><path
         id="text3-4"
         style="font-style:normal;font-variant:normal;font-weight:normal;font-stretch:normal;font-size:33.1917px;line-height:1;font-family:Titania;-inkscape-font-specification:Titania;text-align:center;letter-spacing:0.397056px;word-spacing:0px;writing-mode:lr-tb;direction:ltr;text-anchor:middle;fill:#ad0000;fill-opacity:1;stroke:#ffffff;stroke-width:3.02019;stroke-dasharray:none"
         d="m 76.238757,-81.775887 c -2.190652,0 -4.071476,0.586292 -5.642549,1.759066 -1.725969,1.30554 -2.58899,3.02012 -2.58899,5.144389 0,2.81023 1.316422,4.779648 3.94963,5.908166 1.239157,0.309789 2.467501,0.61987 3.68453,0.929659 1.217029,0.309789 2.444856,0.619353 3.684013,0.929142 2.010901,0.540747 3.254251,1.384876 3.729488,2.532146 H 76.81805 c 0.559729,0.829943 0.875725,1.769112 0.947229,2.817915 -0.114468,-0.07913 -0.269459,-0.19163 -0.464571,-0.337964 -0.331917,-0.265533 -0.81867,-0.619394 -1.460376,-1.06195 -0.376173,-0.287662 -0.730034,-0.531038 -1.061951,-0.730188 -0.331917,-0.221278 -0.61959,-0.409412 -0.862996,-0.564307 -1.172773,-0.663834 -2.168686,-0.995805 -2.987415,-0.995805 -0.531067,0 -1.028765,0.09954 -1.493449,0.29869 -0.464683,0.177023 -0.874304,0.442289 -1.228348,0.796334 -0.354045,0.331917 -0.630774,0.730592 -0.829924,1.195276 -0.19915,0.442556 -0.29869,0.929309 -0.29869,1.460376 0,0.464684 0.121947,0.918084 0.365353,1.36064 0.221278,0.531067 0.541787,0.863038 0.962215,0.995805 0.553195,-0.885112 1.272379,-1.327567 2.157491,-1.327567 0.885112,0 2.191105,0.287673 3.917074,0.862996 1.362709,0.44288 2.462884,0.715051 3.30109,0.817004 v 13.066386 c 0,0.50894 -0.321026,1.593447 -0.962732,3.253032 0.110639,0.02213 0.199234,0.03307 0.265617,0.03307 0.08851,0.02213 0.166161,0.03307 0.232544,0.03307 h 2.489254 c 0.995751,0 2.15739,-0.01095 3.485058,-0.03307 1.327668,-0.02213 2.489308,-0.03307 3.485059,-0.03307 h 2.48977 c 2.456186,0 4.635629,-1.217399 6.538619,-3.651457 1.770224,-2.301291 2.655135,-4.713165 2.655135,-7.235734 0,-2.810231 -0.86302,-5.310699 -2.588989,-7.501351 -1.858735,-2.345547 -4.159607,-3.518131 -6.903454,-3.518131 h -2.193665 c 0.190785,-0.649073 0.286287,-1.33842 0.286287,-2.067575 0,-2.854486 -1.283586,-4.879146 -3.85041,-6.074047 -0.420429,-0.221278 -2.810412,-0.862813 -7.169589,-1.924948 -2.566825,-0.641706 -3.849894,-1.692861 -3.849894,-3.153295 0,-0.796601 0.398158,-1.416246 1.194759,-1.858802 0.641706,-0.354044 1.405188,-0.530717 2.2903,-0.530717 2.234907,0 3.35225,0.940154 3.35225,2.821017 v 0.431498 c 0.376172,0.575323 1.283491,0.862996 2.721798,0.862996 1.217029,0 2.279129,-0.564402 3.186368,-1.692919 0.840857,-1.040007 1.261422,-2.190185 1.261422,-3.451469 0,-0.110639 -0.08859,-0.166399 -0.265617,-0.166399 -0.02213,0 -0.431748,0.0667 -1.228349,0.199472 -0.177022,0.04425 -0.376101,0.07709 -0.597379,0.09922 -0.19915,0.02213 -0.409175,0.04453 -0.630453,0.06666 -0.08851,0.02213 -0.198996,0.03307 -0.331762,0.03307 h -0.398426 c -0.221278,0 -0.641843,-0.0443 -1.261421,-0.132809 -0.597451,-0.110639 -1.42712,-0.254475 -2.489254,-0.431498 -0.420428,-0.08851 -0.862884,-0.143753 -1.327568,-0.165881 -0.442556,-0.04426 -0.918363,-0.06615 -1.427303,-0.06615 z m 9.861931,18.735807 c 3.614193,0.161243 5.421374,3.400808 5.421374,9.718787 0,2.146396 -0.387213,4.082462 -1.161686,5.808431 -0.995751,2.190652 -2.445064,3.286104 -4.348055,3.286104 h -0.431498 c -0.177023,0 -0.376102,0.01094 -0.59738,0.03307 -0.243406,0.02213 -0.45343,0.03307 -0.630452,0.03307 h -0.431498 l -0.02946,-16.525606 c 0.16195,-0.119826 0.321584,-0.246112 0.478524,-0.378272 0.722322,-0.597476 1.298902,-1.255924 1.730127,-1.97559 z" /><path
         id="text3"
         style="font-style:normal;font-variant:normal;font-weight:normal;font-stretch:normal;font-size:33.1917px;line-height:1;font-family:Titania;-inkscape-font-specification:Titania;text-align:center;letter-spacing:0.397056px;word-spacing:0px;writing-mode:lr-tb;direction:ltr;text-anchor:middle;fill:#ad0000;fill-opacity:1;stroke:none;stroke-width:3.02019;stroke-dasharray:none"
         d="m 76.238757,-81.775887 c -2.190652,0 -4.071476,0.586292 -5.642549,1.759066 -1.725969,1.30554 -2.58899,3.02012 -2.58899,5.144389 0,2.81023 1.316422,4.779648 3.94963,5.908166 1.239157,0.309789 2.467501,0.61987 3.68453,0.929659 1.217029,0.309789 2.444856,0.619353 3.684013,0.929142 2.010901,0.540747 3.254251,1.384876 3.729488,2.532146 H 76.81805 c 0.559729,0.829943 0.875725,1.769112 0.947229,2.817915 -0.114468,-0.07913 -0.269459,-0.19163 -0.464571,-0.337964 -0.331917,-0.265533 -0.81867,-0.619394 -1.460376,-1.06195 -0.376173,-0.287662 -0.730034,-0.531038 -1.061951,-0.730188 -0.331917,-0.221278 -0.61959,-0.409412 -0.862996,-0.564307 -1.172773,-0.663834 -2.168686,-0.995805 -2.987415,-0.995805 -0.531067,0 -1.028765,0.09954 -1.493449,0.29869 -0.464683,0.177023 -0.874304,0.442289 -1.228348,0.796334 -0.354045,0.331917 -0.630774,0.730592 -0.829924,1.195276 -0.19915,0.442556 -0.29869,0.929309 -0.29869,1.460376 0,0.464684 0.121947,0.918084 0.365353,1.36064 0.221278,0.531067 0.541787,0.863038 0.962215,0.995805 0.553195,-0.885112 1.272379,-1.327567 2.157491,-1.327567 0.885112,0 2.191105,0.287673 3.917074,0.862996 1.362709,0.44288 2.462884,0.715051 3.30109,0.817004 v 13.066386 c 0,0.50894 -0.321026,1.593447 -0.962732,3.253032 0.110639,0.02213 0.199234,0.03307 0.265617,0.03307 0.08851,0.02213 0.166161,0.03307 0.232544,0.03307 h 2.489254 c 0.995751,0 2.15739,-0.01095 3.485058,-0.03307 1.327668,-0.02213 2.489308,-0.03307 3.485059,-0.03307 h 2.48977 c 2.456186,0 4.635629,-1.217399 6.538619,-3.651457 1.770224,-2.301291 2.655135,-4.713165 2.655135,-7.235734 0,-2.810231 -0.86302,-5.310699 -2.588989,-7.501351 -1.858735,-2.345547 -4.159607,-3.518131 -6.903454,-3.518131 h -2.193665 c 0.190785,-0.649073 0.286287,-1.33842 0.286287,-2.067575 0,-2.854486 -1.283586,-4.879146 -3.85041,-6.074047 -0.420429,-0.221278 -2.810412,-0.862813 -7.169589,-1.924948 -2.566825,-0.641706 -3.849894,-1.692861 -3.849894,-3.153295 0,-0.796601 0.398158,-1.416246 1.194759,-1.858802 0.641706,-0.354044 1.405188,-0.530717 2.2903,-0.530717 2.234907,0 3.35225,0.940154 3.35225,2.821017 v 0.431498 c 0.376172,0.575323 1.283491,0.862996 2.721798,0.862996 1.217029,0 2.279129,-0.564402 3.186368,-1.692919 0.840857,-1.040007 1.261422,-2.190185 1.261422,-3.451469 0,-0.110639 -0.08859,-0.166399 -0.265617,-0.166399 -0.02213,0 -0.431748,0.0667 -1.228349,0.199472 -0.177022,0.04425 -0.376101,0.07709 -0.597379,0.09922 -0.19915,0.02213 -0.409175,0.04453 -0.630453,0.06666 -0.08851,0.02213 -0.198996,0.03307 -0.331762,0.03307 h -0.398426 c -0.221278,0 -0.641843,-0.0443 -1.261421,-0.132809 -0.597451,-0.110639 -1.42712,-0.254475 -2.489254,-0.431498 -0.420428,-0.08851 -0.862884,-0.143753 -1.327568,-0.165881 -0.442556,-0.04426 -0.918363,-0.06615 -1.427303,-0.06615 z m 9.861931,18.735807 c 3.614193,0.161243 5.421374,3.400808 5.421374,9.718787 0,2.146396 -0.387213,4.082462 -1.161686,5.808431 -0.995751,2.190652 -2.445064,3.286104 -4.348055,3.286104 h -0.431498 c -0.177023,0 -0.376102,0.01094 -0.59738,0.03307 -0.243406,0.02213 -0.45343,0.03307 -0.630452,0.03307 h -0.431498 l -0.02946,-16.525606 c 0.16195,-0.119826 0.321584,-0.246112 0.478524,-0.378272 0.722322,-0.597476 1.298902,-1.255924 1.730127,-1.97559 z" /></g></g></svg>
