<?xml version="1.0" encoding="UTF-8" standalone="no"?>
<!-- Created with Inkscape (http://www.inkscape.org/) -->

<svg
   width="105.83334mm"
   height="105.83334mm"
   viewBox="0 0 105.83333 105.83333"
   version="1.1"
   id="svg1"
   xml:space="preserve"
   inkscape:version="1.4 (e7c3feb100, 2024-10-09)"
   sodipodi:docname="southern-california.svg"
   inkscape:export-filename="../pngs/minesota.png"
   inkscape:export-xdpi="96"
   inkscape:export-ydpi="96"
   xmlns:inkscape="http://www.inkscape.org/namespaces/inkscape"
   xmlns:sodipodi="http://sodipodi.sourceforge.net/DTD/sodipodi-0.dtd"
   xmlns="http://www.w3.org/2000/svg"
   xmlns:svg="http://www.w3.org/2000/svg"><sodipodi:namedview
     id="namedview1"
     pagecolor="#ffffff"
     bordercolor="#000000"
     borderopacity="0.25"
     inkscape:showpageshadow="2"
     inkscape:pageopacity="0.0"
     inkscape:pagecheckerboard="0"
     inkscape:deskcolor="#d1d1d1"
     inkscape:document-units="mm"
     inkscape:zoom="0.99727873"
     inkscape:cx="309.84317"
     inkscape:cy="215.58667"
     inkscape:window-width="1920"
     inkscape:window-height="1011"
     inkscape:window-x="0"
     inkscape:window-y="32"
     inkscape:window-maximized="1"
     inkscape:current-layer="layer1"
     showgrid="false"
     showguides="true" /><defs
     id="defs1" /><g
     inkscape:label="Capa 1"
     inkscape:groupmode="layer"
     id="layer1"><g
       id="g6"
       transform="matrix(-0.53394442,0,0,0.53394442,80.336371,24.66222)"><path
         style="fill:#990000;fill-opacity:1;stroke:#ffc72c;stroke-width:3.4;stroke-dasharray:none;stroke-opacity:1"
         d="m -0.01827175,147.93053 c 0,-0.0771 1.61200005,-3.38914 3.58222205,-7.36002 2.941864,-5.92917 3.696742,-7.69275 4.222857,-9.86561 1.128531,-4.66086 1.974817,-10.30599 3.3120117,-22.09271 0.718152,-6.33016 1.360611,-11.896328 1.427686,-12.369271 0.06707,-0.472942 0.03766,-0.859895 -0.06536,-0.859895 -0.103026,0 -1.253917,1.071562 -2.5575367,2.38125 -1.303619,1.309687 -2.4444,2.381246 -2.535069,2.381246 -0.337229,0 -0.537849,-18.339159 -0.243128,-22.224997 0.757469,-9.987112 2.672706,-20.506889 5.8581307,-32.176823 l 0.802601,-2.940363 2.953524,-0.180453 c 5.702215,-0.348392 5.574479,-0.313435 6.248178,-1.709946 0.850719,-1.763457 3.300259,-5.387075 5.069955,-7.500013 L 29.582711,31.592243 27.396333,27.96732 C 24.660251,23.431011 20.959229,17.694215 15.49897,9.5257281 3.4018643,-8.5714069 -6.7888957,-21.954203 -12.517759,-27.266637 c -0.932504,-0.86472 -5.51806,-4.191594 -10.190125,-7.393053 l -8.494664,-5.820833 2.032242,-0.194011 c 5.591786,-0.533827 17.98973,-1.32113 22.8020343,-1.447991 7.578106,-0.199772 19.3016307,0.491848 28.0458337,1.65454 48.720569,6.478239 83.841898,28.238479 100.955998,62.549643 3.89962,7.818143 5.37597,12.013765 11.22282,31.894072 0.89876,3.055938 1.98183,6.700541 2.40681,8.099119 0.42499,1.398578 0.7727,2.621713 0.7727,2.718079 0,0.09636 -0.28532,-0.01174 -0.63406,-0.240244 -1.39325,-0.912892 -7.79853,-2.807587 -14.71177,-4.351768 -1.96453,-0.438809 -3.85415,-0.864008 -4.19915,-0.944885 -0.57508,-0.134814 -0.6115,-0.08542 -0.43772,0.593616 0.24065,0.940368 4.63687,20.248769 4.63687,20.365374 0,0.04771 -1.33945,0.08716 -2.97656,0.08767 -5.48979,0.0017 -13.60759,0.952364 -18.987319,2.223611 -2.53706,0.599516 -7.30835,2.08868 -7.58794,2.368265 -0.0635,0.06351 0.30457,0.949573 0.81795,1.96902 l 0.93343,1.853542 -2.27906,2.737637 c -3.15044,3.784347 -6.41215,7.270177 -11.63508,12.434564 -19.198234,18.98302 -40.608391,32.7821 -60.414586,38.93785 -2.110052,0.65581 -7.170208,2.04324 -11.2447917,3.08319 -4.074583,1.03995 -7.61669205,1.95148 -7.87135405,2.02561 -0.254661,0.0741 -0.463021,0.0717 -0.463021,-0.005 z M 16.915062,136.12466 c 12.927172,-3.91397 29.488821,-13.04714 43.127083,-23.78308 7.697266,-6.05924 15.695206,-13.56967 22.089646,-20.743197 l 3.49153,-3.916932 -1.53843,-2.947552 c -0.84614,-1.621154 -1.51198,-2.969814 -1.47965,-2.997023 0.36482,-0.307043 3.98814,-1.925065 6.93795,-3.098193 6.47625,-2.575587 12.075639,-4.078376 16.219389,-4.353034 1.8795,-0.124577 2.17166,-0.206905 2.02448,-0.570461 -0.0946,-0.233681 -3.08415,-8.580655 -6.64344,-18.548833 -3.559279,-9.968177 -6.662119,-18.637218 -6.895209,-19.264535 -0.49963,-1.344691 -0.87426,-1.565281 -5.63127,-3.315748 -8.28428,-3.048426 -15.50082,-4.754361 -23.22709,-5.49071 -3.793189,-0.361508 -11.032783,-0.140115 -14.033781,0.429165 -6.526773,1.238108 -11.960268,4.071258 -16.454467,8.579739 -2.226417,2.233492 -5.00236,5.940914 -4.685516,6.257759 0.226696,0.226696 14.830774,-0.358782 21.094609,-0.845684 8.314743,-0.646323 15.445035,-1.775843 18.919735,-2.997102 3.99569,-1.404372 0.0411,0.568785 -4.72609,2.358108 -10.275217,3.856698 -25.069807,6.734425 -41.413875,8.055497 -2.674615,0.216187 -4.914099,0.444228 -4.976629,0.506758 -0.06253,0.06253 -0.637122,2.477959 -1.27687,5.367619 -2.400618,10.843286 -4.097105,22.244696 -4.097105,27.534993 v 1.984373 l 2.17026,-1.946261 c 1.193643,-1.070444 3.022399,-2.779699 4.063902,-3.798345 1.041503,-1.018646 2.724263,-2.635227 3.739466,-3.592402 1.717813,-1.619625 1.867712,-1.851571 2.161425,-3.344485 0.17358,-0.882291 0.584815,-2.420867 0.913856,-3.419056 0.596953,-1.810939 0.602013,-1.816743 2.324264,-2.665814 3.368949,-1.660894 10.30879,-3.336514 17.435161,-4.209709 4.254825,-0.521344 15.327743,-0.597699 19.579165,-0.13501 4.84879,0.527701 11.1125,1.459002 11.1125,1.652229 0,0.102509 -0.50601,0.367092 -1.12448,0.587964 -0.61846,0.220873 -2.79135,1.014007 -4.82864,1.762521 -5.31828,1.953968 -15.814307,5.65953 -18.0317,6.365984 l -1.892112,0.602821 1.304845,1.702437 c 6.005414,7.83528 4.521648,16.110131 -4.424618,24.675765 -6.230916,5.965814 -16.750334,12.388864 -27.966227,17.075904 -2.328185,0.97293 -3.146374,1.43843 -3.223241,1.83384 -0.05666,0.29146 -0.468452,2.79212 -0.915094,5.55701 -0.67603,4.18489 -1.950033,10.41937 -2.802857,13.71609 -0.175337,0.67779 -0.145587,0.72533 0.303297,0.48461 0.273736,-0.14679 1.747859,-0.6454 3.275828,-1.10802 z M 127.7762,47.7488 C 123.53886,33.769767 117.67843,22.032866 109.68162,11.510103 101.56978,0.83597208 90.804261,-8.6566979 78.829291,-15.69442 c -6.30518,-3.705578 -16.18702,-8.305687 -23.681938,-11.024216 -12.141549,-4.403939 -27.393173,-7.322149 -43.65625,-8.353086 -4.5437047,-0.288031 -21.631357,-0.270413 -21.923962,0.0226 -0.07675,0.07686 0.8171933,1.148419 1.9865363,2.38125 9.553886,10.072603 22.8762247,27.8897081 37.3916007,50.006987 1.826832,2.783568 3.409483,5.021106 3.517002,4.972306 0.10752,-0.0488 0.790803,-0.401585 1.518408,-0.783966 1.822039,-0.957544 5.202309,-1.8565 10.253146,-2.726743 l 0.99273,-0.171044 -0.40412,-0.781481 c -0.464809,-0.898842 -3.301131,-7.441045 -3.301131,-7.614323 0,-0.2889219 14.944604,0.213723 17.727082,0.596231 18.090336,2.486884 33.674076,8.930005 48.276265,19.959899 7.51002,5.672766 15.91359,14.057743 20.38311,20.338022 0.7276,1.022382 1.34691,1.839089 1.37623,1.814905 0.0293,-0.02418 -0.64918,-2.36154 -1.5078,-5.194125 z"
         id="path4-7"
         sodipodi:nodetypes="sssssssssscssccsssscsssssssssssssssscscsscsscsscsssssscssssssscsssscsssssssssssscssssssscssssssssssscssssssss" /><path
         style="fill:#ffffff;fill-opacity:1;stroke:none;stroke-width:6.31201;stroke-dasharray:none;stroke-opacity:1"
         d="m -16.448928,-38.734574 50.673311,71.10182 -8.755074,12.999961 -9.020381,3.183662 -6.6326318,40.591712 6.8979378,15.387709 -6.632633,33.95908 32.101942,-12.99996 40.857016,-60.754916 -6.632632,-48.550871 c 0,0 -4.244885,-36.612131 -4.244885,-37.938658 0,-1.326526 -50.142702,-17.244844 -51.203923,-16.979539 -1.061221,0.265305 -37.408047,0 -37.408047,0 z"
         id="path6" /><path
         style="fill:#ffc72c;fill-opacity:1"
         d="m -0.02893252,147.91718 c 0,-0.0739 1.48300002,-3.09851 3.29556002,-6.72141 3.46472,-6.92518 4.0349,-8.378 4.88957,-12.45885 1.17858,-5.62744 1.55819,-8.32642 3.0677795,-21.81148 0.65264,-5.82999 1.23407,-10.808343 1.29208,-11.063005 0.058,-0.254661 0.0273,-0.460027 -0.0682,-0.456369 -0.0955,0.0037 -1.30476,1.132623 -2.6872095,2.508809 l -2.51354,2.502155 -0.2112,-4.559327 c -0.34413,-7.429035 -0.0663,-18.933771 0.58045,-24.039385 1.11685,-8.816252 3.4083495,-19.894287 5.7375195,-27.737443 l 0.37573,-1.265236 2.05042,-0.160676 c 1.12772,-0.08837 3.02844,-0.237809 4.2238,-0.332082 l 2.173399,-0.171404 1.57493,-2.699845 c 0.86621,-1.484915 2.47779,-3.854849 3.58129,-5.26652 1.1035,-1.41167 2.00637,-2.619405 2.00637,-2.683856 0,-0.250207 -4.18936,-7.09616 -6.96139,-11.375802 C 6.9159575,-3.7465637 -6.7747225,-22.222458 -12.98096,-27.592878 c -0.807273,-0.698554 -5.246526,-3.871914 -9.865007,-7.051911 -4.618481,-3.179997 -8.359283,-5.819767 -8.312894,-5.866156 0.04639,-0.04639 1.62249,-0.203691 3.502446,-0.34956 17.561648,-1.362634 24.9425125,-1.591044 34.1097725,-1.055569 25.2489485,1.474834 47.8868785,7.021187 66.9395785,16.400378 12.15262,5.982443 21.35883,12.486655 30.319534,21.4208213 8.4574,8.432357 14.51822,16.9169657 19.56935,27.3953287 3.42896,7.113251 4.46992,10.007638 8.61166,23.944792 1.53519,5.16599 3.36073,11.267943 4.05675,13.559896 1.18563,3.904236 1.28967,4.519216 0.6649,3.930232 -1.07674,-1.015054 -18.77341,-5.803144 -19.34302,-5.233532 -0.16047,0.160471 0.2466,2.075575 3.2097,15.100256 0.65867,2.895278 1.19759,5.365825 1.19759,5.490104 0,0.124279 -1.16086,0.226373 -2.57969,0.226876 -5.06376,0.0018 -13.37413,0.956537 -18.67762,2.145794 -2.930664,0.657171 -8.022514,2.174086 -8.330034,2.4816 -0.0556,0.05562 0.34449,0.92615 0.88913,1.934514 l 0.99026,1.833389 -2.04765,2.482624 c -6.42121,7.78523 -16.40797,17.603171 -25.41003,24.980501 -12.13071,9.94132 -25.36221,18.18519 -37.13589,23.13748 -6.60633,2.77878 -9.930399,3.81348 -23.3439185,7.26639 -5.93752002,1.52843 -6.06289002,1.55605 -6.06289002,1.33581 z M 13.729397,136.93881 c 0,-0.36476 7.907949,-15.14513 8.290689,-15.49573 0.16955,-0.15532 1.37983,-0.67073 2.68952,-1.14537 3.56566,-1.29222 11.52569,-5.28809 14.76112,-7.40996 3.99435,-2.61959 6.26583,-4.45919 9.24586,-7.48792 6.14262,-6.243013 9.70816,-13.616897 9.7228,-20.107705 0.009,-4.111828 -1.30194,-7.509892 -4.01835,-10.413743 -2.18448,-2.335211 -2.90973,-2.666712 -1.42666,-0.652102 8.23478,11.186158 1.07501,23.561224 -20.61186,35.62585 -3.57388,1.98819 -10.20923,5.15751 -13.493749,6.44517 -0.87312,0.3423 -1.60697,0.63211 -1.63076,0.64401 -0.0238,0.0119 -0.41425,2.27965 -0.86767,5.03943 -0.76396,4.64988 -2.32205,12.35654 -2.90383,14.36295 -0.15308,0.52794 -0.15433,0.8599 -0.003,0.8599 0.13537,0 0.24612,-0.11915 0.24612,-0.26478 z m 6.66722,-58.969774 c 0.101709,-0.235948 0.437309,-2.45306 0.745769,-4.926914 1.13028,-9.064876 2.399,-15.775657 3.46947,-18.351501 l 0.54042,-1.300384 2.55679,-0.306913 c 9.69631,-1.163931 21.11441,-3.841612 28.97885,-6.795889 4.09602,-1.53867 10.01366,-4.412713 12.73627,-6.185674 2.81092,-1.830467 2.97689,-2.028277 0.92604,-1.103649 -11.35417,5.119038 -29.32302,8.893529 -48.71003,10.231905 l -2.540239,0.175365 -0.59193,2.557953 c -2.59509,11.214314 -4.7532,25.149079 -4.7732,30.820221 l -0.005,1.53935 3.24114,-2.962436 c 1.78263,-1.62934 3.32437,-3.155485 3.42608,-3.391434 z M 37.646236,40.751334 c 0.94469,-1.807951 2.89955,-4.388869 4.43156,-5.850801 2.7472,-2.621547 7.91238,-5.728596 11.86827,-7.139206 1.40279,-0.500215 1.56767,-0.614282 0.89455,-0.618834 -1.48679,-0.01005 -5.47653,0.798161 -7.82625,1.585388 -6.39204,2.141531 -11.87875,6.208746 -15.56075,11.534938 l -1.35172,1.955344 3.38927,-6.29e-4 3.38927,-6.29e-4 z M 20.408627,-1.6117337 C 13.822977,-14.805481 8.4651675,-25.623807 8.5023775,-25.652459 c 0.14002,-0.107827 4.9083395,-0.950152 6.8145195,-1.203787 1.0914,-0.145221 4.54422,-0.332885 7.672919,-0.417031 11.55081,-0.310657 26.23235,1.60661 40.98276,5.351949 2.5314,0.64276 4.67453,1.161917 4.7625,1.153682 0.088,-0.0082 -0.85209,-0.493466 -2.08901,-1.07829 -13.03697,-6.163937 -27.28626,-10.121104 -43.65625,-12.12377 -8.355769,-1.022223 -22.73919852,-1.604366 -29.9691785,-1.212945 l -3.6431295,0.197235 2.3202195,2.429161 c 9.83446,10.296248 22.6911295,27.6338413 39.6056085,53.409313 0.54909,0.836745 1.01653,1.521914 1.03877,1.522597 0.0222,6.84e-4 -5.34784,-10.793642 -11.933479,-23.9873887 z"
         id="path5" /><path
         style="fill:#990000;fill-opacity:1"
         d="m -0.01827175,147.93053 c 0,-0.0771 1.61200005,-3.38914 3.58222205,-7.36002 2.941864,-5.92917 3.696742,-7.69275 4.222857,-9.86561 1.128531,-4.66086 1.974817,-10.30599 3.3120117,-22.09271 0.718152,-6.33016 1.360611,-11.896328 1.427686,-12.369271 0.06707,-0.472942 0.03766,-0.859895 -0.06536,-0.859895 -0.103026,0 -1.253917,1.071562 -2.5575367,2.38125 -1.303619,1.309687 -2.4444,2.381246 -2.535069,2.381246 -0.337229,0 -0.537849,-18.339159 -0.243128,-22.224997 0.757469,-9.987112 2.672706,-20.506889 5.8581307,-32.176823 l 0.802601,-2.940363 2.953524,-0.180453 c 5.702215,-0.348392 5.574479,-0.313435 6.248178,-1.709946 0.850719,-1.763457 3.300259,-5.387075 5.069955,-7.500013 L 29.582711,31.592243 27.396333,27.96732 C 24.660251,23.431011 20.959229,17.694215 15.49897,9.5257281 3.4018643,-8.5714069 -6.7888957,-21.954203 -12.517759,-27.266637 c -0.932504,-0.86472 -5.51806,-4.191594 -10.190125,-7.393053 l -8.494664,-5.820833 2.032242,-0.194011 c 5.591786,-0.533827 17.98973,-1.32113 22.8020343,-1.447991 7.578106,-0.199772 19.3016307,0.491848 28.0458337,1.65454 48.720569,6.478239 83.841898,28.238479 100.955998,62.549643 3.89962,7.818143 5.37597,12.013765 11.22282,31.894072 0.89876,3.055938 1.98183,6.700541 2.40681,8.099119 0.42499,1.398578 0.7727,2.621713 0.7727,2.718079 0,0.09636 -0.28532,-0.01174 -0.63406,-0.240244 -1.39325,-0.912892 -7.79853,-2.807587 -14.71177,-4.351768 -1.96453,-0.438809 -3.85415,-0.864008 -4.19915,-0.944885 -0.57508,-0.134814 -0.6115,-0.08542 -0.43772,0.593616 0.24065,0.940368 4.63687,20.248769 4.63687,20.365374 0,0.04771 -1.33945,0.08716 -2.97656,0.08767 -5.48979,0.0017 -13.60759,0.952364 -18.987319,2.223611 -2.53706,0.599516 -7.30835,2.08868 -7.58794,2.368265 -0.0635,0.06351 0.30457,0.949573 0.81795,1.96902 l 0.93343,1.853542 -2.27906,2.737637 c -3.15044,3.784347 -6.41215,7.270177 -11.63508,12.434564 -19.198234,18.98302 -40.608391,32.7821 -60.414586,38.93785 -2.110052,0.65581 -7.170208,2.04324 -11.2447917,3.08319 -4.074583,1.03995 -7.61669205,1.95148 -7.87135405,2.02561 -0.254661,0.0741 -0.463021,0.0717 -0.463021,-0.005 z M 16.915062,136.12466 c 12.927172,-3.91397 29.488821,-13.04714 43.127083,-23.78308 7.697266,-6.05924 15.695206,-13.56967 22.089646,-20.743197 l 3.49153,-3.916932 -1.53843,-2.947552 c -0.84614,-1.621154 -1.51198,-2.969814 -1.47965,-2.997023 0.36482,-0.307043 3.98814,-1.925065 6.93795,-3.098193 6.47625,-2.575587 12.075639,-4.078376 16.219389,-4.353034 1.8795,-0.124577 2.17166,-0.206905 2.02448,-0.570461 -0.0946,-0.233681 -3.08415,-8.580655 -6.64344,-18.548833 -3.559279,-9.968177 -6.662119,-18.637218 -6.895209,-19.264535 -0.49963,-1.344691 -0.87426,-1.565281 -5.63127,-3.315748 -8.28428,-3.048426 -15.50082,-4.754361 -23.22709,-5.49071 -3.793189,-0.361508 -11.032783,-0.140115 -14.033781,0.429165 -6.526773,1.238108 -11.960268,4.071258 -16.454467,8.579739 -2.226417,2.233492 -5.00236,5.940914 -4.685516,6.257759 0.226696,0.226696 14.830774,-0.358782 21.094609,-0.845684 8.314743,-0.646323 15.445035,-1.775843 18.919735,-2.997102 3.99569,-1.404372 0.0411,0.568785 -4.72609,2.358108 -10.275217,3.856698 -25.069807,6.734425 -41.413875,8.055497 -2.674615,0.216187 -4.914099,0.444228 -4.976629,0.506758 -0.06253,0.06253 -0.637122,2.477959 -1.27687,5.367619 -2.400618,10.843286 -4.097105,22.244696 -4.097105,27.534993 v 1.984373 l 2.17026,-1.946261 c 1.193643,-1.070444 3.022399,-2.779699 4.063902,-3.798345 1.041503,-1.018646 2.724263,-2.635227 3.739466,-3.592402 1.717813,-1.619625 1.867712,-1.851571 2.161425,-3.344485 0.17358,-0.882291 0.584815,-2.420867 0.913856,-3.419056 0.596953,-1.810939 0.602013,-1.816743 2.324264,-2.665814 3.368949,-1.660894 10.30879,-3.336514 17.435161,-4.209709 4.254825,-0.521344 15.327743,-0.597699 19.579165,-0.13501 4.84879,0.527701 11.1125,1.459002 11.1125,1.652229 0,0.102509 -0.50601,0.367092 -1.12448,0.587964 -0.61846,0.220873 -2.79135,1.014007 -4.82864,1.762521 -5.31828,1.953968 -15.814307,5.65953 -18.0317,6.365984 l -1.892112,0.602821 1.304845,1.702437 c 6.005414,7.83528 4.521648,16.110131 -4.424618,24.675765 -6.230916,5.965814 -16.750334,12.388864 -27.966227,17.075904 -2.328185,0.97293 -3.146374,1.43843 -3.223241,1.83384 -0.05666,0.29146 -0.468452,2.79212 -0.915094,5.55701 -0.67603,4.18489 -1.950033,10.41937 -2.802857,13.71609 -0.175337,0.67779 -0.145587,0.72533 0.303297,0.48461 0.273736,-0.14679 1.747859,-0.6454 3.275828,-1.10802 z M 127.7762,47.7488 C 123.53886,33.769767 117.67843,22.032866 109.68162,11.510103 101.56978,0.83597208 90.804261,-8.6566979 78.829291,-15.69442 c -6.30518,-3.705578 -16.18702,-8.305687 -23.681938,-11.024216 -12.141549,-4.403939 -27.393173,-7.322149 -43.65625,-8.353086 -4.5437047,-0.288031 -21.631357,-0.270413 -21.923962,0.0226 -0.07675,0.07686 0.8171933,1.148419 1.9865363,2.38125 9.553886,10.072603 22.8762247,27.8897081 37.3916007,50.006987 1.826832,2.783568 3.409483,5.021106 3.517002,4.972306 0.10752,-0.0488 0.790803,-0.401585 1.518408,-0.783966 1.822039,-0.957544 5.202309,-1.8565 10.253146,-2.726743 l 0.99273,-0.171044 -0.40412,-0.781481 c -0.464809,-0.898842 -3.301131,-7.441045 -3.301131,-7.614323 0,-0.2889219 14.944604,0.213723 17.727082,0.596231 18.090336,2.486884 33.674076,8.930005 48.276265,19.959899 7.51002,5.672766 15.91359,14.057743 20.38311,20.338022 0.7276,1.022382 1.34691,1.839089 1.37623,1.814905 0.0293,-0.02418 -0.64918,-2.36154 -1.5078,-5.194125 z"
         id="path4"
         sodipodi:nodetypes="sssssssssscssccsssscsssssssssssssssscscsscsscsscsssssscssssssscsssscsssssssssssscssssssscssssssssssscssssssss" /></g></g></svg>
