<?xml version="1.0" encoding="UTF-8" standalone="no"?>
<!-- Created with Inkscape (http://www.inkscape.org/) -->

<svg
   width="105.83334mm"
   height="105.83334mm"
   viewBox="0 0 105.83333 105.83333"
   version="1.1"
   id="svg1"
   xml:space="preserve"
   inkscape:version="1.4.3 (0d15f75042, 2025-12-25)"
   sodipodi:docname="stanford.svg"
   inkscape:export-filename="../pngs/san-francisco.png"
   inkscape:export-xdpi="62.910179"
   inkscape:export-ydpi="62.910179"
   xmlns:inkscape="http://www.inkscape.org/namespaces/inkscape"
   xmlns:sodipodi="http://sodipodi.sourceforge.net/DTD/sodipodi-0.dtd"
   xmlns="http://www.w3.org/2000/svg"
   xmlns:svg="http://www.w3.org/2000/svg"><sodipodi:namedview
     id="namedview1"
     pagecolor="#ffffff"
     bordercolor="#000000"
     borderopacity="0.25"
     inkscape:showpageshadow="2"
     inkscape:pageopacity="0.0"
     inkscape:pagecheckerboard="0"
     inkscape:deskcolor="#d1d1d1"
     inkscape:document-units="mm"
     inkscape:zoom="0.83257275"
     inkscape:cx="358.52723"
     inkscape:cy="189.77321"
     inkscape:window-width="1920"
     inkscape:window-height="1011"
     inkscape:window-x="0"
     inkscape:window-y="0"
     inkscape:window-maximized="1"
     inkscape:current-layer="layer1"
     showgrid="false" /><defs
     id="defs1" /><g
     inkscape:label="Capa 1"
     inkscape:groupmode="layer"
     id="layer1"><g
       id="g20"
       transform="matrix(0.36693461,0,0,0.36693461,131.77061,41.975292)"><path
         style="fill:#98999a;fill-opacity:1"
         d="m -160.25443,168.34206 c 3.51674,-3.2903 9.37752,-8.74722 23.34545,-21.7367 l 8.6651,-8.05812 0.005,-21.98804 c 0.003,-12.09342 0.0771,-28.126524 0.16542,-35.629104 l 0.16064,-13.641054 -3.67115,-3.27247 c -2.01913,-1.79985 -10.38358,-9.29403 -18.58767,-16.65373 l -14.91651,-13.38126 18.42224,-0.0679 18.42225,-0.0679 0.0333,-16.99768 c 0.0183,-9.3487301 0.0712,-21.9072601 0.11744,-27.90786 l 0.0841,-10.91018 -7.95429,-6.26648 -7.95429,-6.26648 6.05091,-3.02732 c 18.61724,-9.31436 27.12588,-16.42443 27.07368,-22.62356 -0.0522,-6.19738 -6.37723,-8.97216 -20.4936,-8.99048 -2.91042,-0.004 -6.95854,0.13455 -8.99583,0.30739 -3.29942,0.27992 -14.77351,1.63414 -17.38788,2.0522 -0.98223,0.15706 -1.01032,0.13782 -1.53693,-1.05267 -0.75383,-1.70415 -1.77103,-2.82075 -3.10874,-3.41248 -0.63192,-0.27952 -1.2184,-0.70789 -1.30329,-0.95191 -1.39021,-3.996238 -5.93005,-15.051668 -6.63705,-16.162548 -0.51773,-0.81348 -1.65822,-2.17281 -2.53443,-3.02073 -1.70535,-1.650306 -3.10642,-2.404306 -11.14793,-5.999346 -5.61039,-2.50817 -15.1574,-7.407798 -19.22203,-9.864948 -6.69298,-4.04602 -8.25177,-4.55769 -13.85089,-4.54656 -4.44416,0.009 -3.59525,-0.17047 -16.80104,3.54864 -12.18019,3.43028 -14.31675,4.29066 -17.85937,7.19185 -1.89396,1.551028 -2.05483,1.770208 -9.10317,12.402664 -3.03871,4.58391 -7.27312,10.77516 -9.40981,13.75833 -4.28367,5.980748 -5.49636,8.115538 -6.12568,10.783548 -0.53271,2.25839 -0.4334,4.05323 0.82781,14.95997 l 0.97287,8.41331 -1.17738,1.25872 c -1.81807,1.94366 -2.06179,3.26325 -1.37544,7.44695 l 0.15192,0.92605 -6.28555,3.0427 c -19.88476,9.62581 -31.40983,17.72428 -34.76583,24.4293599 -0.90507,1.80828 -1.04585,2.32704 -1.04362,3.84554996 0.006,4.10764004 2.95692,6.92529004 8.46408,8.08196004 3.31126,0.69546 9.46887,1.03095 13.49375,0.73519 1.96454,-0.14437 3.67437,-0.19958 3.79964,-0.1227 0.12527,0.0769 0.19891,4.3215601 0.16364,9.4326101 -0.0353,5.11106 -0.0485,15.19866 -0.0293,22.4169 l 0.0348,13.12408 7.2099,6.96878 c 13.57945,13.125332 28.24427,27.557244 28.24427,27.795704 0,0.13912 -7.43691,0.2384 -17.85937,0.2384 h -17.85938 v 15.567234 c 0,8.56197 0.0789,19.51953 0.17525,24.35013 l 0.17526,8.7829 5.05026,4.80847 c 10.81356,10.29582 16.15896,15.41202 23.08585,22.09596 l 7.19776,6.94531 h 47.05091 47.0509 z"
         id="path18" /><g
         id="g19"
         transform="translate(7.9077862,5.0132368)"
         style="fill:#8c1515;fill-opacity:1"><path
           id="path2"
           style="fill:#8c1515;fill-opacity:1"
           d="m -260.00049,145.5418 c -0.9569,-0.90322 -6.34448,-6.08954 -11.97239,-11.52515 l -10.23257,-9.88294 v -10.953 -10.953 h 20.24063 20.24062 v 7.96955 7.96955 l 3.46987,3.67212 3.46987,3.67211 h 15.12066 15.12065 l 3.61148,-3.63802 3.61148,-3.63802 0.0891,-17.97596 0.0891,-17.975953 -3.70416,-3.90804 -3.70417,-3.90803 -21.82813,-0.0109 -21.82812,-0.0109 -17.13177,-17.126942 -17.13177,-17.12695 V 21.462755 2.7341848 l -0.72761,0.16496 c -2.47701,0.56157 -3.96909,0.95132 -4.43177,1.15763 -0.29104,0.12977 -1.95791,0.30318 -3.70416,0.38535 -1.74625,0.0822 -3.50243,0.2239 -3.90261,0.31495 -0.70272,0.15989 -0.7276,0.12831 -0.7276,-0.92363 0,-1.01871 0.0483,-1.08918 0.74715,-1.08918 0.41093,0 1.9885,-0.17648 3.50572,-0.39218 1.51722,-0.2157 4.06827,-0.57928 5.669,-0.80796 1.60073,-0.22867 3.32714,-0.52345 3.83646,-0.65505003 0.50932,-0.13161 3.48589,-0.72875 6.61458,-1.32699 28.48753,-5.44708967 66.1302,-16.42245977 96.5595,-28.15358977 l 7.26263,-2.7999 0.93946,0.91638 c 0.5167,0.50401 4.21368,3.57611 8.2155,6.82689 l 7.27604,5.91052 0.0685,13.6805298 0.0685,13.68052 h -21.03676 -21.03675 v -8.35135 -8.3513397 l -1.38907,-1.29586 -1.38906,-1.29586 -15.78686,-0.0101 -15.78686,-0.0101 -5.04908,5.2194297 -5.04907,5.21941997 V 17.425625 34.103575 l 4.17019,4.16409 4.1702,4.16408 h 23.86002 c 15.72861,0 23.91613,0.0908 24.02466,0.26638 0.14611,0.23642 25.18448,22.71167 29.03357,26.061472 l 1.51801,1.32111 0.003,27.30222 0.003,27.302223 -8.92968,8.43443 c -4.91133,4.63893 -10.29891,9.70499 -11.9724,11.2579 l -3.04271,2.82348 -39.6875,-0.008 -39.6875,-0.008 z m 36.73098,-38.23075 -0.72761,-0.0914 v -7.12617 -7.126183 h 4.10105 4.10104 l -0.002,7.209903 -0.002,7.20989 -3.37139,0.008 c -1.85426,0.004 -3.69881,-0.0335 -4.09899,-0.0837 z M -223.537,23.753785 c -0.10754,-0.10754 -0.19553,-3.51262 -0.19553,-7.56684 V 8.8156348 l 3.9026,0.0732 3.90261,0.0732 v 7.4083302 7.40834 l -3.70708,0.0853 c -2.03889,0.0469 -3.79506,-0.003 -3.9026,-0.11024 z m 31.36438,-64.94867 c 4.48057,-1.4912 11.21291,-4.35213 11.93336,-5.07112 0.69753,-0.69611 0.75082,-0.88015 0.62047,-2.14309 -0.2003,-1.94068 -5.07103,-15.48608 -5.85007,-16.26891 -1.22473,-1.23068 -2.13756,-1.09281 -8.49805,1.28355 -3.20145,1.19611 -6.14102,2.33801 -6.53237,2.53756 -0.86182,0.43945 -1.53665,1.35044 -1.53957,2.07836 -0.002,0.53421 2.04795,6.45063 2.36017,6.81131 0.13915,0.16074 2.93365,-0.99351 2.93365,-1.21173 0,-0.0416 -0.29766,-0.95081 -0.66146,-2.02043 -0.81935,-2.409 -0.82281,-2.7925 -0.0298,-3.31207 0.88613,-0.58062 8.37095,-3.30047 9.08571,-3.30159 0.32649,-5.1e-4 0.75307,0.26453 0.95669,0.59439 0.20212,0.32742 1.29398,3.24086 2.42637,6.47431 2.27135,6.48564 2.2618,6.32127 0.41442,7.138 -2.96145,1.30926 -8.12716,3.16125 -8.5264,3.05684 -0.29068,-0.076 -0.73162,-0.83121 -1.17495,-2.01234 -0.39031,-1.03986 -0.78636,-1.97744 -0.88012,-2.08349 -0.0938,-0.10606 -0.79878,0.008 -1.56672,0.25368 -1.61549,0.51661 -1.60299,0.32302 -0.2608,4.04019 0.85022,2.35468 1.32131,3.0938 2.20147,3.45404 0.75451,0.30882 0.77264,0.30673 2.58803,-0.29746 z m -4.06052,-8.18505 c 1.51847,-0.57837 2.8561,-1.20162 2.97251,-1.385 0.53239,-0.83863 -0.144,-2.31778 -1.05988,-2.31778 -0.22214,0 -1.36455,0.37256 -2.53868,0.82791 -1.17414,0.45534 -2.40444,0.92984 -2.73401,1.05443 -0.93866,0.35486 -1.29213,1.38831 -0.75514,2.20786 0.24228,0.36976 0.64612,0.67047 0.89743,0.66823 0.25131,-0.002 1.6993,-0.47728 3.21777,-1.05565 z m -77.52219,23.23027 c -1.39154,-0.12475 -3.11795,-0.37189 -3.83645,-0.5492 l -1.30638,-0.32239 -0.70803,-3.70417 c -1.87159,-9.79153 -1.91942,-10.12287 -1.57167,-10.88611 l 0.32927,-0.72266 0.32111,0.64501 c 0.53243,1.0695 1.96218,1.36702 7.24319,1.50729 7.59135,0.20163 16.41515,-0.71036 26.52924,-2.74196 11.95087,-2.40055 28.34427,-7.12493 39.59322,-11.41029 l 4.53217,-1.72656 -0.50898,-1.44812 c -0.57961,-1.6491 -0.38682,-2.75622 0.6466,-3.71312 0.46176,-0.42757 11.71638,-4.90796 14.3991,-5.73219 1.34379,-0.41285 3.62667,0.77397 4.49633,2.33755 0.26595,0.47817 0.39006,0.44475 2.36353,-0.63653 5.77203,-3.16253 9.46083,-5.92127 9.30632,-6.95993 -0.0544,-0.36543 -0.41653,-0.63961 -1.13806,-0.86156 l -1.05834,-0.32554 0.97744,-0.0277 c 1.40556,-0.0399 2.11809,0.74396 3.3419,3.67643 0.57695,1.38245 1.83541,4.38148 2.7966,6.66451 0.96118,2.28304 1.74761,4.29484 1.74761,4.47067 0,0.65997 -1.92769,2.63535 -3.77481,3.86818 -1.05255,0.70251 -3.58061,2.10875 -5.6179,3.12499 l -3.70417,1.84769 v 1.80563 c 0,1.73418 -0.0376,1.84012 -0.95022,2.67709 -0.68613,0.62924 -2.45102,1.45968 -6.35,2.98787 -7.07039,2.77121 -8.01654,3.06961 -9.09285,2.8677 -1.13758,-0.21341 -2.09989,-0.97847 -2.52664,-2.00874 -0.24566,-0.59309 -0.45456,-0.7678 -0.76342,-0.63849 -1.3824,0.57881 -12.57674,4.34329 -16.82937,5.65945 -25.2705,7.82107 -45.97059,11.43309 -58.88634,10.27525 z m 108.39784,-6.57274 c -1.01919,-0.76656 -1.02102,-0.77128 -0.39688,-1.02152 0.34488,-0.13827 2.41299,-1.02343 4.5958,-1.967 3.66982,-1.58638 4.00409,-1.68392 4.43802,-1.29495 0.2581,0.23136 0.37716,0.51 0.26458,0.61919 -0.11258,0.1092 -1.43815,0.85795 -2.94572,1.66389 -1.50757,0.80594 -3.13673,1.76716 -3.62037,2.13604 -0.48363,0.36889 -0.97657,0.66255 -1.09542,0.65259 -0.11885,-0.01 -0.67686,-0.36468 -1.24001,-0.78824 z m -108.76591,-40.49452 c 0.12406,-0.20405 1.62205,-2.18393 3.32887,-4.39973 3.86675,-5.01985 6.85171,-9.13544 11.18247,-15.41815 3.49098,-5.06441 4.69193,-6.42201 5.56693,-6.29306 0.95706,0.14104 0.98964,1.37977 0.10908,4.14746 -1.87553,5.89497 -5.16141,11.54328 -9.07792,15.60466 -2.70559,2.80565 -4.82238,4.41537 -7.38028,5.61235 -2.01008,0.94063 -4.10175,1.35932 -3.72915,0.74647 z m 56.2117,-17.34547 c -6.27399,-0.60124 -10.86604,-1.66321 -14.23774,-3.29266 -3.30973,-1.59951 -5.08249,-3.41179 -5.07279,-5.18588 0.006,-1.084905 0.33351,-1.438225 1.53758,-1.658405 0.90594,-0.16566 1.40458,-0.0536 3.14107,0.706225 9.94029,4.3492 15.45246,6.0897 26.40584,8.33782 l 2.91042,0.59735 -3.04271,0.30774 c -2.82175,0.28539 -9.49924,0.39312 -11.64167,0.18781 z" /></g><path
         id="path1"
         style="fill:#ffffff"
         d="m -172.36017,157.86989 3.83646,-0.0272 8.06979,-7.54864 c 4.43838,-4.15176 10.47479,-9.77454 13.41424,-12.49507 l 5.34444,-4.94643 0.0105,-29.76563 0.0105,-29.765633 -1.78309,-1.55453 c -4.70406,-4.1011 -28.24173,-25.18713 -30.80147,-27.59325 l -1.50171,-1.41159 h -23.89356 -23.89355 l -2.58442,-2.57473 -2.58442,-2.57472 0.005,-14.557053 0.005,-14.5570501 3.5904,-3.77031 3.59039,-3.77031004 h 13.6024 13.6024 v 9.78958014 9.78959 h 26.06145 26.06146 V 2.8253939 -14.886116 l -5.84749,-4.71192 c -3.21612,-2.59156 -6.65172,-5.34129 -7.63466,-6.1105 l -1.78718,-1.39857 -2.35335,1.13399 c -1.29435,0.62369 -2.35336,1.28049 -2.35336,1.45956 0,0.27173 4.01088,3.60384 13.42711,11.15483 l 1.52086,1.21959 -0.0657,13.7583399 c -0.0361,7.56708 -0.15495,13.7285601 -0.26409,13.6921801 -0.10914,-0.0364 -9.54484,-0.0661 -20.96823,-0.0661 h -20.76979 v -8.2599101 -8.25991 l -1.38002,-1.39738 -1.38003,-1.39739 h -15.76409 -15.76409 l -5.08088,5.26998 -5.08089,5.26998 V 23.098144 39.725647 l 4.10417,4.09784 4.10417,4.09784 23.91431,0.13229 23.91432,0.13229 3.12118,2.77813 c 1.71665,1.52797 3.9704,3.55203 5.00833,4.49792 1.03794,0.94588 6.55134,5.88613 12.25201,10.97833 l 10.36485,9.25853 v 27.433233 27.43323 l -0.76109,0.61449 c -0.41859,0.33796 -5.76979,5.34722 -11.89155,11.13167 l -11.13047,10.51719 h -39.84471 -39.84471 l -3.49551,-3.37856 c -1.92253,-1.85821 -7.33658,-7.11259 -12.03123,-11.67639 l -8.53572,-8.29783 0.0691,-10.87934 0.0691,-10.87934 h 20.24062 20.24063 l 0.13229,8.08704 0.13229,8.08703 3.43656,3.62078 3.43656,3.62078 h 15.08085 15.08085 l 3.64145,-3.63448 3.64144,-3.63448 -0.001,-17.99521 -0.001,-17.995224 -3.72472,-3.9026 -3.72471,-3.9026 h -21.83355 -21.83355 l -17.03825,-16.983149 -17.03824,-16.98315 v -18.73559 c 0,-11.469273 -0.0961,-18.7356031 -0.24783,-18.7356031 -0.38952,0 -4.56598,1.02144 -4.69209,1.14755 -0.0622,0.0622 -0.13464,8.7293501 -0.161,19.2603631 l -0.0479,19.14729 18.51558,18.45415 18.51557,18.454139 21.82812,0.006 21.82813,0.006 2.3151,2.48643 2.31511,2.48642 v 15.692904 15.6929 l -2.30959,2.32033 -2.30959,2.32034 h -12.71136 -12.71136 l -2.19717,-2.20865 -2.19718,-2.20865 -0.0459,-9.49916 -0.0459,-9.49916 -25.33386,-0.0675 -25.33386,-0.0675 v 14.64874 14.64873 l 4.94287,4.73332 c 2.71858,2.60333 8.8115,8.45245 13.53982,12.99805 l 8.59696,8.26472 8.75132,0.0696 c 7.67907,0.0611 60.9719,0.0249 71.32529,-0.0484 z m -95.25001,-2.93653 c -6.47567,-6.24712 -13.64134,-13.11609 -15.92369,-15.26439 -2.28236,-2.1483 -4.23184,-4.18109 -4.33219,-4.51732 -0.10034,-0.33623 -0.0938,-9.7124 0.0145,-20.83594 l 0.19699,-20.224614 h 17.39799 17.39799 l 2.04176,2.24896 2.04176,2.24896 h 13.8625 13.86249 l 0.0694,9.723444 0.0694,9.72343 9.19428,0.0696 9.19427,0.0696 V 105.86854 93.561986 l -20.43907,-0.0443 c -11.24148,-0.0244 -21.07936,-0.0696 -21.86195,-0.1006 l -1.42289,-0.0563 -20.86825,-20.867049 -20.86826,-20.86701 V 30.023747 8.4207539 l 2.3151,-0.31202 c 18.30931,-2.46766 39.12958,-7.10942004 64.09532,-14.28971 15.26135,-4.3892399 33.67942,-10.4842799 47.22812,-15.6290399 4.65667,-1.76825 9.24289,-3.48744 10.1916,-3.82044 0.94872,-0.33299 4.69903,-1.87922 8.33403,-3.43606 4.04896,-1.73414 6.72755,-2.74474 6.91487,-2.6089 0.16818,0.12194 1.83521,1.47596 3.70451,3.00893 1.86931,1.53296 5.33238,4.33093 7.69572,6.21771 l 4.29697,3.4305 -0.0605,15.0812499 c -0.0333,8.29468 -0.0948,19.0400801 -0.13678,23.8786401 l -0.0763,8.797403 h -34.65334 -34.65343 V 19.081724 9.4244339 h -8.99842 -8.99842 l 0.0687,12.5015601 0.0687,12.501563 24.23739,0.13229 24.23738,0.13229 12.80428,11.51249 c 7.04236,6.33187 15.80654,14.18999 19.47597,17.4625 l 6.67169,5.95001 0.009,33.356963 0.009,33.35695 -6.79535,6.33055 c -3.73744,3.4818 -10.95484,10.22985 -16.03867,14.99565 l -9.24333,8.6651 -45.27851,-0.0153 -45.27852,-0.0153 z m 51.65572,-49.13444 0.0703,-7.342194 4.03489,-0.073 4.0349,-0.073 v 7.415224 7.41523 h -4.10523 -4.10522 z m 0.20262,-83.806786 v -7.54062 h 3.96875 3.96875 v 7.54062 7.540633 h -3.96875 -3.96875 z m 35.32188,-58.9908 c 6.4154,-2.46339 8.17633,-3.35659 8.59097,-4.35763 0.27923,-0.67412 0.29073,-1.12807 0.0545,-2.15145 -0.33869,-1.46729 -4.67185,-13.739642 -5.25675,-14.888152 -0.36325,-0.71326 -1.71997,-1.50051 -2.58595,-1.50051 -0.79021,0 -13.24665,4.80052 -13.75413,5.30063 -0.76767,0.75652 -0.6345,1.87718 0.63427,5.337232 l 1.13573,3.09724 1.35734,-0.68167 c 0.74654,-0.37492 1.38374,-0.70367 1.416,-0.73055 0.0323,-0.0269 -0.29737,-0.99483 -0.73253,-2.15098 -1.03736,-2.756132 -0.9297,-2.985892 1.911,-4.078642 5.61298,-2.15916 7.32959,-2.68955 7.83295,-2.42016 0.64057,0.34282 4.95085,12.432872 4.70672,13.202052 -0.29096,0.91675 -9.04184,4.41884 -10.06735,4.02894 -0.41153,-0.15646 -0.79227,-0.80512 -1.31688,-2.24351 -0.43012,-1.17932 -0.86235,-1.97375 -1.03611,-1.90436 -0.16397,0.0655 -0.79816,0.32124 -1.40932,0.56837 l -1.11119,0.44932 1.03761,2.95315 c 0.647,1.84145 1.26345,3.13783 1.63757,3.44374 0.90881,0.74313 2.42976,0.46475 6.95554,-1.27306 z m -8.2285,-6.67008 c 3.11114,-1.12961 3.74263,-1.59361 3.4976,-2.56991 -0.31924,-1.27193 -1.03284,-1.35945 -3.42893,-0.42054 -3.99727,1.56632 -3.87871,1.49449 -3.87871,2.35003 0,0.68953 0.56313,1.61068 0.98466,1.61068 0.0842,0 1.35564,-0.43662 2.82538,-0.97026 z M -306.76851,4.7551039 c -5.5351,-0.83131 -7.67292,-2.04322 -7.67292,-4.34969004 0,-3.91060996 6.48244,-9.75157996 18.89328,-17.02365986 4.83057,-2.83046 13.16744,-7.12929 18.80985,-9.69912 2.32833,-1.06044 4.28599,-1.96837 4.35034,-2.01761 0.0644,-0.0493 -0.15384,-1.49528 -0.48488,-3.21341 -0.77224,-4.00807 -0.71876,-4.42248 0.71111,-5.51031 0.62535,-0.47575 1.32417,-0.96975 1.55293,-1.09777 0.48208,-0.26978 0.45599,-0.60325 -1.12117,-14.331612 -1.05736,-9.20372 -1.04049,-10.01501 0.26763,-12.87232 0.37031,-0.80887 2.8006,-4.46452 5.40064,-8.12366 5.20187,-7.32078 10.02082,-14.3567 12.87226,-18.79416 4.01198,-6.2435 6.06202,-7.68471 14.28656,-10.043622 17.75947,-5.09365 20.17184,-5.6512 23.14763,-5.34989 3.76951,0.38167 5.0936,0.90897 10.71904,4.26866 4.61881,2.75851 15.45731,8.225632 21.96041,11.077212 5.65069,2.4778 7.50237,3.64056 8.90723,5.59331 0.53744,0.74705 2.2355,4.65463 4.34398,9.99642 l 3.46162,8.76993 1.21839,0.14264 c 1.62499,0.19024 2.11039,0.69553 3.12494,3.25298 0.89865,2.2653 1.24888,2.88561 1.53082,2.71136 0.20467,-0.12649 6.83075,-1.05571 11.41198,-1.60037 13.84769,-1.64636 24.99201,-1.59754 30.5469,0.13381 4.45859,1.38966 4.79412,4.04195 1.00952,7.98 -8.22564,8.559152 -32.73062,20.625522 -66.34913,32.670612 -31.90364,11.43068 -69.0854,21.4834399 -93.6625,25.3233499 -10.52131,1.64385 -17.38519,2.29063 -23.79593,2.2423 -2.62849,-0.0198 -5.07673,-0.0807 -5.44053,-0.13538 z M -159.27552,167.57912 c 2.22505,-2.07367 10.13194,-9.42577 17.57088,-16.33801 l 13.52533,-12.56771 0.002,-35.71876 0.002,-35.718753 -6.15105,-5.47733 c -14.23926,-12.67962 -30.46613,-27.35184 -30.5521,-27.62498 -0.0509,-0.16169 0.17978,-0.291 0.51259,-0.28736 0.33281,0.004 8.61207,-0.0129 18.39834,-0.0368 l 17.79323,-0.0434 -0.005,-27.8473931 -0.005,-27.8473999 -7.55779,-5.95313 c -4.15679,-3.27421 -7.66651,-6.08407 -7.7994,-6.24413 -0.16597,-0.19991 1.43542,-1.12719 5.11564,-2.96219 9.07262,-4.52371 15.97263,-8.63043 20.2565,-12.05617 2.62047,-2.09554 5.35096,-5.103752 6.39884,-7.049652 0.82472,-1.5315 0.92461,-1.93354 0.91991,-3.70244 -0.006,-2.33907 -0.5542,-3.60311 -2.21088,-5.09982 -1.29711,-1.17186 -2.53237,-1.81873 -4.79359,-2.51027 -3.30829,-1.01177 -6.08553,-1.25434 -14.1552,-1.23632 -7.87791,0.0176 -11.68798,0.31709 -21.75993,1.7105 -5.10238,0.7059 -4.87555,0.73115 -5.42679,-0.60414 -0.66284,-1.60566 -1.52378,-2.57803 -2.97085,-3.35541 l -1.26303,-0.6785 -2.99096,-7.63606 c -1.64503,-4.19984 -3.39841,-8.24797 -3.8964,-8.99584 -1.82735,-2.7443 -3.99481,-4.47929 -7.72955,-6.18727 -14.28714,-6.533832 -19.52971,-9.155632 -25.28045,-12.642732 -5.40349,-3.27653 -8.1759,-4.27748 -12.55496,-4.53283 -3.49779,-0.20397 -5.18474,0.13252 -16.2081,3.23296 -13.51316,3.80073 -15.0092,4.34343 -18.18774,6.59781 -1.95329,1.38537 -3.79875,3.331782 -4.93173,5.201502 -1.69029,2.78945 -11.58868,17.39445 -15.39384,22.7135 -4.2186,5.89698 -5.27281,7.93843 -5.77823,11.18939 -0.27595,1.77504 -0.19691,2.91625 0.83465,12.050522 l 1.13948,10.0898 -1.20334,1.28647 c -1.60841,1.71952 -1.98746,3.36524 -1.44529,6.27503 0.33914,1.82015 0.33439,2.03895 -0.0492,2.26471 -0.23353,0.13745 -2.74632,1.35535 -5.58398,2.70644 -15.64714,7.45008 -27.96826,15.39385 -32.83046,21.1667199 -4.93935,5.86448 -4.51469,11.15574 1.11524,13.89568 3.59911,1.75159 7.51799,2.27753 15.62805,2.09739 l 5.76842,-0.12813 v 22.5175431 22.51754 l 12.10469,11.69242 c 6.65758,6.43083 14.72305,14.318039 17.92327,17.527119 l 5.81858,5.8347 h -18.05556 -18.05556 v 6.04175 c 0,3.32296 0.079,14.266794 0.17555,24.319614 l 0.17554,18.27787 11.88061,11.33299 c 6.53434,6.23315 14.4623,13.80092 17.61769,16.81727 l 5.73707,5.48429 47.18362,0.006 47.18362,0.006 z" /></g></g></svg>
