<?xml version="1.0" encoding="UTF-8" standalone="no"?>
<!-- Created with Inkscape (http://www.inkscape.org/) -->

<svg
   width="105.83334mm"
   height="105.83334mm"
   viewBox="0 0 105.83333 105.83333"
   version="1.1"
   id="svg1"
   xml:space="preserve"
   inkscape:version="1.4.2 (ebf0e940d0, 2025-05-08)"
   sodipodi:docname="tallahasee.svg"
   inkscape:export-filename="../png/apolo.png"
   inkscape:export-xdpi="62.082352"
   inkscape:export-ydpi="62.082352"
   xmlns:inkscape="http://www.inkscape.org/namespaces/inkscape"
   xmlns:sodipodi="http://sodipodi.sourceforge.net/DTD/sodipodi-0.dtd"
   xmlns="http://www.w3.org/2000/svg"
   xmlns:svg="http://www.w3.org/2000/svg"><sodipodi:namedview
     id="namedview1"
     pagecolor="#ffffff"
     bordercolor="#000000"
     borderopacity="0.25"
     inkscape:showpageshadow="2"
     inkscape:pageopacity="0.0"
     inkscape:pagecheckerboard="0"
     inkscape:deskcolor="#d1d1d1"
     inkscape:document-units="mm"
     inkscape:zoom="0.49863936"
     inkscape:cx="-517.40801"
     inkscape:cy="-154.42022"
     inkscape:window-width="1920"
     inkscape:window-height="1011"
     inkscape:window-x="0"
     inkscape:window-y="32"
     inkscape:window-maximized="1"
     inkscape:current-layer="layer1"
     showgrid="false"
     showguides="true" /><defs
     id="defs1" /><g
     inkscape:label="Capa 1"
     inkscape:groupmode="layer"
     id="layer1"><g
       id="g9"
       transform="matrix(0.83464579,0,0,0.83464579,172.57097,48.874135)"><circle
         style="fill:#d3b887;fill-opacity:1;stroke:none;stroke-width:5.85666;stroke-dasharray:none"
         id="path7-8"
         cx="-143.35938"
         cy="4.8434162"
         r="60.96973" /><circle
         style="fill:#7b2f3d;fill-opacity:1;stroke:none;stroke-width:5.28;stroke-dasharray:none"
         id="path7"
         cx="-143.35938"
         cy="4.8434162"
         r="54.966557" /><path
         style="fill:#d3b887;fill-opacity:1;stroke:none;stroke-width:5.89709;stroke-dasharray:none"
         d="m -182.51522,37.213775 9.33384,0.296312 5.48178,-4.296531 4.88916,14.074841 7.1115,-5.03731 1.18525,-6.815186 5.92625,3.852061 4.14838,1.926032 4.14837,0.296313 c 0,0 8.14859,-6.815187 8.14859,-6.222565 0,0.592627 0.74078,7.111501 0.74078,7.111501 l 5.62994,4.889154 c 0,0 3.25944,-1.777874 3.25944,-2.370496 0,-0.592627 3.55574,-9.926471 3.55574,-9.926471 l 1.92604,0.444471 7.40781,2.074186 5.18547,-0.44447 -6.22257,-12.741435 2.96314,-1.777876 -2.81498,-13.0377482 1.03709,-1.7778747 -2.22234,-12.8895931 -0.88893,-5.481781 -5.33363,-3.852062 -0.14815,-5.629937 -4.74101,-1.481562 -1.62972,-7.555968 -5.77809,-0.148157 -3.25944,-6.370718 -4.59284,2.518655 -3.55574,-5.185468 -2.81497,-0.888939 -3.70391,7.111501 -3.11128,-4.444688 -3.55575,6.815188 -5.92625,-0.740781 -2.37051,8.148594 -6.37071,2.074187 1.62972,7.111499 -6.37073,2.3705 2.96314,3.7039061 -5.62994,4.444687 1.62972,4.0002185 -3.25944,7.407812 3.55575,0.8889374 -4.44469,10.370936 c 0,0 2.66681,2.370501 2.81497,2.963125 0.14816,0.592626 -1.92603,6.222561 -1.92603,6.222561 z"
         id="path8" /><path
         style="fill:#ffffff;fill-opacity:1;stroke:none;stroke-width:5.89709;stroke-dasharray:none"
         d="m -155.40263,6.8417456 4.59284,-0.6667031 7.18559,-0.074078 8.4449,0.1481561 3.92614,0.3703906 c 0,0 -1.40749,1.6297187 -2.00011,2.0001093 -0.59263,0.3703907 -3.33351,0.8889375 -3.33351,0.8889375 l -3.55576,-2.2223436 c 0,0 -2.3705,-0.518547 -2.74089,-0.5926251 -0.37038,-0.074078 -4.51877,0.4444687 -4.51877,0.4444687 l -1.92602,1.8519532 c 0,0 -2.3705,0.6667029 -2.81497,0.3703904 -0.44447,-0.2963123 -3.25944,-2.5186559 -3.25944,-2.518656 z"
         id="path9" /><path
         style="fill:#1a1a1a;fill-opacity:1;stroke-width:1.87404"
         d="m -165.82954,43.123557 -2.96182,-7.349336 -1.55928,1.653314 -1.55927,1.653331 h -6.75925 c -3.92131,0 -6.75923,-0.197074 -6.75923,-0.469353 0,-0.258147 1.67347,-3.246114 3.71878,-6.639919 2.04534,-3.393806 3.7188,-6.353791 3.7188,-6.57772 0,-0.223948 -0.56743,-0.861814 -1.26098,-1.417485 l -1.26098,-1.010293 1.28648,-5.434164 c 0.70759,-2.98879 1.55394,-5.756592 1.88079,-6.150647 0.44379,-0.535037 0.17448,-0.499468 -1.06328,0.140552 -0.91163,0.471321 -1.78344,0.731043 -1.9373,0.577166 -0.15386,-0.153858 0.54868,-2.5131583 1.5612,-5.2428808 l 1.841,-4.9631248 -1.26753,-1.11563296 -1.2675,-1.11561426 2.47949,-3.35034728 c 1.36372,-1.8427032 2.47948,-3.5557605 2.47948,-3.806769 0,-0.2510273 -0.58498,-0.916554 -1.29996,-1.4789712 -1.24982,-0.9831013 -1.26862,-1.0704317 -0.48694,-2.2634247 0.44719,-0.682487 1.86891,-1.791449 3.15938,-2.464396 4.09916,-2.137565 4.02637,-2.001285 2.11962,-3.968555 l -1.70278,-1.756797 1.01628,-1.363829 c 0.83104,-1.11524 1.53,-1.420035 3.83495,-1.672222 1.5503,-0.169601 2.93242,-0.422108 3.0714,-0.561086 0.13913,-0.139057 0.42175,-1.834889 0.62838,-3.768689 0.20661,-1.9338 0.47475,-3.594365 0.59586,-3.690147 1.37129,-1.084637 3.4646,-2.332203 3.91321,-2.332203 0.31067,0 1.1536,0.545871 1.87312,1.213065 0.71953,0.667175 1.47061,1.112709 1.66905,0.990054 0.19846,-0.12257 0.64453,-1.810489 0.99128,-3.750755 0.61714,-3.453343 0.673,-3.546072 2.6479,-4.396078 l 2.01745,-0.868317 1.17554,2.265599 1.17554,2.265598 1.08407,-2.702343 1.08405,-2.702342 2.71887,-0.145617 2.71891,-0.145615 1.02456,2.869693 1.02457,2.869675 1.18661,-2.32954 1.18661,-2.32954 2.01359,0.902817 c 1.87523,0.840787 2.05653,1.103283 2.63843,3.820094 1.0908,5.092676 0.90339,4.884283 2.85323,3.172295 l 1.72535,-1.514879 2.13345,1.532138 c 2.0945,1.504139 2.13882,1.595966 2.42647,5.027237 0.16117,1.922292 0.39186,3.593932 0.51267,3.714733 0.12086,0.120881 1.47793,0.349508 3.01582,0.508238 2.34125,0.241639 2.96049,0.519297 3.80586,1.706517 l 1.00967,1.417935 -1.51338,1.835956 -1.51335,1.835956 2.80574,1.509424 c 1.54316,0.830199 3.25116,2.116369 3.79553,2.858151 l 0.98975,1.348725 -1.32532,1.0425084 c -0.72895,0.5733805 -1.31967,1.3052107 -1.31278,1.6263082 0.008,0.3210975 1.1182,2.0341547 2.46956,3.8067689 l 2.45697,3.22295034 -1.32058,1.082575 -1.32058,1.08257496 2.01462,5.2393766 c 1.10803,2.8816505 1.95703,5.2393766 1.88663,5.2393766 -0.0705,0 -0.98181,-0.356761 -2.02537,-0.792793 -1.47974,-0.618263 -1.77154,-0.641127 -1.32569,-0.103824 0.31445,0.378893 1.15066,3.134272 1.85823,6.12306 l 1.28651,5.434164 -1.26098,1.010294 c -0.69355,0.555671 -1.26101,1.180625 -1.26101,1.388774 0,0.208169 1.55264,3.002264 3.4503,6.209116 1.89765,3.206852 3.59497,6.20771 3.77183,6.668611 0.29171,0.760165 -0.27036,0.837339 -6.05343,0.83119 -7.6611,-0.0075 -8.42094,-0.179906 -9.43032,-2.13181 l -0.7843,-1.516714 -2.70149,6.662089 c -1.48583,3.664137 -2.86906,7.082136 -3.07386,7.595548 -0.32412,0.812545 -0.95905,0.405055 -4.90112,-3.145422 l -4.52879,-4.078898 -0.14644,-2.994299 -0.14628,-2.99428 -2.58718,2.04793 c -1.42294,1.12637 -2.44827,1.685977 -2.27849,1.243572 0.26922,-0.70162 0.12466,-0.689307 -1.13165,0.09651 l -1.44027,0.900793 1.45632,-1.582849 c 1.50038,-1.630732 1.42263,-1.964347 -0.24933,-1.069551 -2.07109,1.108418 -0.77963,-0.09033 2.75971,-2.561396 2.04535,-1.428054 3.71881,-2.890197 3.71881,-3.249206 0,-0.359009 -0.0999,-0.652745 -0.222,-0.652745 -0.12208,0 -2.34699,1.338774 -4.94423,2.975034 -2.59723,1.636277 -4.90654,2.975033 -5.13178,2.975033 -0.22524,0 -2.58308,-1.338756 -5.23962,-2.975033 -2.65656,-1.63626 -4.93304,-2.975034 -5.05885,-2.975034 -0.12573,0 -0.22876,0.306574 -0.22876,0.681249 0,0.374678 1.78502,1.853141 3.96669,3.285469 3.7105,2.436003 5.19157,3.665429 3.00764,2.496629 -1.6705,-0.894028 -1.75073,-0.561199 -0.2493,1.034356 l 1.4563,1.547636 -1.54861,-0.784097 c -0.85172,-0.431254 -1.67817,-0.654545 -1.83653,-0.496189 -0.15835,0.158356 -1.16705,-0.408351 -2.24154,-1.259371 -1.07448,-0.851001 -2.08884,-1.547279 -2.25414,-1.547279 -0.16528,0 -0.30051,1.298258 -0.30051,2.885023 v 2.885043 l -4.42365,4.056709 c -2.433,2.231191 -4.49694,4.053954 -4.58651,4.050581 -0.0897,-0.0038 -1.4957,-3.313334 -3.12469,-7.355464 z m 9.15956,-2.18331 c 4.9e-4,-0.745584 -1.8833,-0.345196 -3.18195,0.676341 -0.73293,0.57651 -1.40238,0.966984 -1.48768,0.867717 -0.0852,-0.09932 -0.74293,-1.124348 -1.46139,-2.277949 -1.03433,-1.660735 -1.31293,-2.744789 -1.33803,-5.206319 l -0.0316,-3.108839 -0.81711,1.643361 c -0.76607,1.54074 -0.76017,1.803893 0.0944,4.214635 0.50137,1.414187 1.43625,3.759299 2.07746,5.211359 l 1.16586,2.640087 2.4899,-2.144254 c 1.36945,-1.179332 2.49,-2.311606 2.49014,-2.516139 z m 33.8855,-0.293604 c 1.79108,-4.59589 1.86583,-5.000399 1.28322,-6.944957 -0.80073,-2.672583 -1.16771,-2.239867 -1.00886,1.189602 0.10286,2.22137 -0.1274,3.17801 -1.22212,5.074948 -0.74191,1.285664 -1.43059,2.433287 -1.53037,2.550264 -0.0999,0.116938 -0.83908,-0.273478 -1.64281,-0.867717 -1.44256,-1.066514 -2.98521,-1.431707 -2.99304,-0.708536 -0.003,0.378875 4.50976,4.532734 4.9633,4.567461 0.13685,0.01126 1.10466,-2.176994 2.15068,-4.861065 z m -33.49084,-7.887729 c -0.12741,-4.006224 -0.46348,-6.925204 -0.91751,-7.968855 -0.66709,-1.533337 -0.71289,-1.174065 -0.66415,5.209955 0.0533,6.963228 0.34946,9.080852 1.27045,9.080852 0.33613,0 0.44312,-2.173377 0.31121,-6.321952 z m 27.37934,-1.582286 c 0.003,-3.424955 0.11767,-6.784989 0.25312,-7.466783 0.18496,-0.93119 0.0356,-0.807841 -0.601,0.495852 -0.63878,1.308245 -0.88797,3.383161 -1.01238,8.429249 -0.14994,6.082226 -0.0956,6.605888 0.59424,5.731349 0.58943,-0.747216 0.76077,-2.355308 0.76602,-7.189667 z m -31.31297,-3.916832 c -0.19573,-5.819822 -0.47268,-10.885926 -0.61546,-11.258053 -0.1428,-0.372109 0.17427,-3.19679 0.70463,-6.2770501 1.24577,-7.2355073 1.2524,-8.0173181 0.0624,-7.3804828 -1.42774,0.7641199 -2.68968,10.8919789 -2.01346,16.1593349 0.2801,2.181698 0.51374,7.25764 0.51923,11.279905 0.009,6.281809 0.12573,7.377934 0.8303,7.772268 0.4512,0.252489 0.83112,0.420027 0.84428,0.372314 0.0137,-0.04778 -0.13625,-4.848433 -0.33193,-10.668236 z m 35.09004,5.196104 c -0.17805,-2.492281 -0.0579,-7.769663 0.26663,-11.727535 0.51513,-6.280912 0.48352,-7.885706 -0.24859,-12.618305 -0.75778,-4.8989017 -1.40266,-6.5326684 -2.34791,-5.9484748 -0.18084,0.111692 0.0194,2.160971 0.44534,4.5537977 0.84964,4.7748211 0.9398,9.2937251 0.45044,22.5788671 l -0.32442,8.807357 1.04104,-0.557134 c 0.98006,-0.524541 1.02206,-0.822421 0.71747,-5.088573 z m -43.35336,-3.539737 c 3.51464,-5.858539 3.86711,-6.683115 3.86807,-9.049069 5.8e-4,-1.431727 -0.16624,-2.595634 -0.37084,-2.586433 -0.47746,0.02135 -6.09519,9.90007 -5.62993,9.90007 0.1921,0 0.64259,-0.278914 1.00111,-0.6198 0.35854,-0.340889 -0.19642,0.753324 -1.23322,2.431619 -1.24724,2.0189 -2.46173,3.326359 -3.58913,3.864002 -0.93721,0.44692 -1.77855,0.738051 -1.86964,0.646973 -0.091,-0.09107 2.49007,-4.242669 5.73592,-9.225716 3.56665,-5.47558 5.78832,-9.355098 5.61538,-9.805749 -0.15741,-0.410096 -0.45059,-0.563297 -0.65162,-0.340438 -1.03102,1.143032 -6.30939,8.629118 -10.35145,14.681001 l -4.56724,6.838194 4.08778,-0.144308 4.08778,-0.144307 z m 26.46262,6.144856 c 0.22621,-0.366036 0.001,-0.441917 -0.67278,-0.227752 -0.58051,0.184217 -1.16841,0.06821 -1.37876,-0.272185 -0.27025,-0.437232 0.10789,-0.516372 1.43669,-0.300727 0.99188,0.16098 1.93226,0.08414 2.08971,-0.170537 0.16604,-0.268737 -1.02701,-0.458558 -2.84199,-0.452167 l -3.12826,0.01127 1.23961,0.969626 c 1.38724,1.085124 2.74468,1.269698 3.25578,0.442724 z m 33.89126,-2.550021 c -7.04019,-10.585011 -12.87663,-18.717921 -13.43257,-18.717921 -1.07532,0 0.0376,2.118636 5.51329,10.495114 3.25784,4.983741 5.85143,9.133251 5.76355,9.221144 -0.0878,0.0879 -0.91261,-0.200578 -1.83268,-0.641034 -1.07154,-0.512961 -2.45449,-1.991013 -3.84732,-4.111917 -1.65009,-2.512672 -1.85934,-3.021229 -0.86771,-2.109023 0.7187,0.661141 1.30672,1.06198 1.30672,0.890785 0,-0.171286 -1.37787,-2.592167 -3.06194,-5.379873 -2.49712,-4.133619 -3.13093,-4.892455 -3.43602,-4.113735 -0.92108,2.351072 -0.39526,3.891025 3.64688,10.680587 l 4.0907,6.871063 4.10913,0.0075 4.10916,0.0075 z m -27.57067,-2.040358 2.77522,-1.357777 1.26759,-4.155846 c 0.6972,-2.285725 1.34134,-4.789026 1.43144,-5.562892 0.0901,-0.773865 0.43003,-1.904416 0.75539,-2.512353 0.92212,-1.723008 -0.10733,-1.29807 -1.15601,0.477167 -0.84,1.42202 -0.96961,1.484875 -1.27789,0.6198 -0.4695,-1.317465 -0.11889,-2.095173 2.08628,-4.627353 2.23651,-2.568181 2.3571,-3.5861578 0.58949,-4.9765621 -1.65646,-1.3029805 -1.85665,-1.2903495 -3.35891,0.2119349 -1.4022,1.402192 -3.1593,1.5777142 -5.20481,0.5199328 l -1.39169,-0.7196676 -0.89443,2.95412 c -1.10237,3.640936 -1.53815,3.505217 -0.70463,-0.21945 0.75627,-3.3793389 0.23253,-4.2703685 -2.51006,-4.2703685 -2.74961,0 -3.29807,0.9234318 -2.58046,4.3446355 0.7812,3.724389 0.46739,3.783626 -0.64154,0.121064 -0.49595,-1.6380023 -1.03374,-2.9710985 -1.19509,-2.9624405 -0.16136,0.00938 -0.72652,0.3433798 -1.25587,0.7437678 -1.44498,1.0929197 -3.49156,0.8797291 -5.17812,-0.5394041 -1.30353,-1.0968551 -1.65893,-1.1869588 -2.64118,-0.6695372 -2.48849,1.3108514 -2.46377,2.620204 0.10454,5.538042 1.49557,1.699078 1.97697,2.661303 1.95734,3.912558 l -0.026,1.659348 -0.84172,-1.212689 c -0.46295,-0.66697 -1.24239,-1.671041 -1.73212,-2.231266 -0.77666,-0.888462 -0.76353,-0.757205 0.10276,1.027328 0.5462,1.125247 0.87207,2.166968 0.72413,2.314905 -0.34471,0.344692 2.21853,8.813578 2.93065,9.682868 0.59313,0.724016 3.87324,2.487484 5.81008,3.123608 0.68179,0.223928 3.04878,0.343492 5.25999,0.265719 3.18465,-0.112066 4.59726,-0.423681 6.79559,-1.49921 z m -14.62661,-3.803039 c -1.00498,-0.530803 -1.96119,-1.181806 -2.12485,-1.446645 -0.16361,-0.26484 0.9664,-0.848977 2.5113,-1.298089 3.40832,-0.990821 11.90085,-0.790319 14.54824,0.343474 l 1.70312,0.729393 -2.28725,1.340406 c -2.0952,1.227868 -2.71699,1.338586 -7.40526,1.318516 -4.08498,-0.01686 -5.48684,-0.216732 -6.9453,-0.987055 z m 13.47948,-1.470239 c -0.40907,-0.264351 -3.30971,-0.480653 -6.44589,-0.480653 -3.13618,0 -6.03684,0.216302 -6.4459,0.480653 -0.4989,0.322409 1.62327,0.480652 6.4459,0.480652 4.82261,0 6.94481,-0.158168 6.44589,-0.480652 z m -8.52222,-3.313748 c 0.35793,-0.143181 0.78559,-0.125553 0.95036,0.03917 0.16473,0.164729 -0.12817,0.281968 -0.6508,0.260435 -0.57761,-0.02379 -0.69511,-0.141309 -0.29956,-0.299565 z m 3.30254,-0.135493 c 0.16117,-0.260792 0.62062,-0.348477 1.02095,-0.194863 1.02494,0.393305 0.90415,0.669049 -0.29307,0.669049 -0.56152,0 -0.88906,-0.213376 -0.72788,-0.474186 z m -2.82933,-2.22557 c -0.74535,-0.387007 -1.97258,-0.774595 -2.72711,-0.861326 -1.12802,-0.129679 -1.39846,-0.429678 -1.5212,-1.687458 -0.0968,-0.993708 0.15274,-1.775574 0.71264,-2.231266 0.77513,-0.630895 0.82388,-0.601678 0.48441,0.290139 -0.66726,1.752879 -0.58439,1.888898 1.43142,2.349874 1.91677,0.438336 7.29537,0.181031 8.22486,-0.393418 0.27023,-0.166975 0.24601,-0.671691 -0.0595,-1.242786 -0.35976,-0.672179 -0.35548,-0.961587 0.0152,-0.961587 0.77011,0 1.1473,1.303262 0.78968,2.728223 -0.23829,0.949349 -0.63278,1.238495 -1.68975,1.238495 -0.75838,0 -1.59088,0.198049 -1.84995,0.440099 -0.94635,0.88419 -2.48641,1.017996 -3.8096,0.331011 z m -9.741,-8.229028 c -1.49576,-1.3524179 -1.90465,-1.9630166 -1.31455,-1.9630166 0.86637,0 3.73357,2.7057156 3.73357,3.5233006 0,0.6246 -0.009,0.618921 -2.41902,-1.560284 z m 20.26922,1.469714 c 0,-0.747479 2.76397,-3.4327306 3.53335,-3.4327306 0.34905,0 -0.23688,0.8925096 -1.30207,1.9833496 -2.11066,2.161477 -2.23128,2.239849 -2.23128,1.449381 z m -9.66885,-4.9202476 c -0.16848,-0.2727099 0.0414,-0.4958515 0.46656,-0.4958515 0.42516,0 0.77302,0.2231416 0.77302,0.4958515 0,0.2727098 -0.20995,0.4958328 -0.46657,0.4958328 -0.25662,0 -0.60449,-0.223123 -0.77301,-0.4958328 z m -26.11724,6.4507346 c 4.941,-4.5263796 6.41445,-6.2373193 5.85407,-6.797675 -0.14416,-0.1441141 -1.11046,0.2372342 -2.14747,0.8474207 -1.86455,1.0971175 -1.85996,1.0868478 0.41451,-0.9264676 1.75398,-1.5526023 2.34913,-2.4570687 2.50709,-3.810086 0.11386,-0.9758111 0.0584,-1.866035 -0.12315,-1.9782523 -0.1816,-0.1122553 -3.00363,2.5230535 -6.27119,5.8561971 -5.50212,5.6125901 -5.98663,6.2617191 -6.55881,8.7873791 -0.3398,1.499923 -0.73956,3.173383 -0.88832,3.718803 l -0.27053,0.991683 1.1735,-0.991683 c 0.64543,-0.54542 3.48502,-3.109217 6.31021,-5.697319 z m -4.85302,1.577791 c -0.0112,-0.356779 0.97922,-1.695536 2.2001,-2.975034 2.89143,-3.0302999 2.91984,-1.918471 0.031,1.220484 -1.21639,1.32176 -2.22047,2.111311 -2.23127,1.75455 z m 64.98235,0.955159 c -0.88832,-3.574689 -0.97065,-3.693128 -6.29971,-9.0630688 -2.96981,-2.9925936 -5.80298,-5.6640334 -6.29596,-5.9365558 -0.81493,-0.4504812 -0.86723,-0.3236276 -0.57578,1.3966636 0.24101,1.4227501 0.95543,2.4863036 2.87968,4.2870658 l 2.55912,2.3949069 -2.35523,-1.5510092 c -2.16995,-1.4289908 -2.35524,-1.472937 -2.35524,-0.5584444 0,0.6388593 2.32206,3.1256319 6.51593,6.9782019 3.58375,3.292085 6.58598,5.915567 6.67161,5.829942 0.0857,-0.08564 -0.24937,-1.7856 -0.74442,-3.777702 z m -3.95276,-2.833976 c -1.12443,-1.277438 -2.04446,-2.558097 -2.04446,-2.845912 0,-0.629808 3.346,2.515145 4.0476,3.80437 0.97288,1.787737 0.008,1.3259 -2.00314,-0.958458 z m -34.79932,-5.9432085 c 1.0355,-0.9840381 0.25025,-1.4579258 -1.26889,-0.7657689 -1.06123,0.4835202 -1.51626,0.4535356 -2.45544,-0.1619169 -1.15319,-0.7555929 -1.93488,-0.4302788 -1.29579,0.5392542 1.08215,1.6417314 3.50403,1.8290976 5.02012,0.3883942 z m 14.60615,0.7180186 c 1.1713,-0.5336882 2.06193,-1.8055972 1.59282,-2.2747062 -0.1192,-0.119189 -0.76636,0.1437382 -1.43828,0.5839311 -1.00501,0.6584993 -1.45277,0.6952116 -2.52431,0.2069876 -1.75531,-0.7997829 -2.32585,-0.081145 -0.8716,1.0977921 1.36648,1.107837 1.59686,1.1352729 3.24137,0.3859954 z m -35.17494,-4.9980755 c 5.49016,-2.7347075 6.22401,-3.24988021 6.5147,-4.57336272 0.1801,-0.82032218 0.85671,-2.32970908 1.50345,-3.35418898 0.64671,-1.0244799 1.17585,-2.0482851 1.17585,-2.2751185 0,-0.2268521 0.66939,-0.9073525 1.48751,-1.5122167 1.89856,-1.4036538 1.87353,-1.9142352 -0.12391,-2.5309057 -1.47688,-0.455953 -1.42921,-0.473157 0.57045,-0.205919 1.93752,0.258935 2.14453,0.194131 1.84803,-0.578478 -0.26342,-0.686497 -0.19356,-0.753645 0.33107,-0.31823 0.49658,0.412119 0.93725,0.361127 1.74042,-0.201441 l 1.07549,-0.753306 -1.97697,-3.932049 c -1.08736,-2.16262 -1.977,-4.102361 -1.977,-4.31051 0,-0.208167 1.22407,1.449831 2.72013,3.684432 2.69557,4.026219 2.73361,4.058189 4.21462,3.541911 0.82198,-0.28654 1.4945,-0.685915 1.4945,-0.887488 0,-1.040315 -7.15371,-10.482892 -9.32178,-12.304344 -1.37959,-1.159017 -2.60484,-2.107318 -2.72278,-2.107318 -0.11783,0 -0.36234,1.443421 -0.54309,3.207582 -0.32149,3.137964 -0.27379,3.318226 2.19778,8.305301 1.69299,3.416033 2.14684,4.668433 1.37581,3.796406 -2.62366,-2.967275 -7.38879,-6.384188 -8.90319,-6.384188 -0.8267,0 -1.42874,0.211241 -1.33783,0.469409 0.0909,0.258166 1.7981,2.266329 3.79377,4.46255 1.99565,2.196221 3.33443,3.9905 2.97502,3.987258 -0.3594,-0.0037 -1.88063,-0.335284 -3.38055,-0.737865 -3.58368,-0.961905 -5.44819,-0.917097 -6.85442,0.164728 -1.14858,0.883608 -1.13264,0.892566 4.95839,2.7922589 l 6.11068,1.905802 -5.88012,0.855067 c -5.45703,0.7935609 -5.99215,0.9700952 -7.43759,2.4535641 l -1.55746,1.5984788 6.19796,-0.2916939 c 5.62892,-0.2648952 6.0108,-0.2306753 4.15915,0.3727835 -1.12136,0.3654559 -3.69713,1.5798694 -5.72393,2.69868821 -2.80432,1.54801089 -3.88729,2.45821209 -4.53105,3.80813709 -0.8968,1.8806525 -0.99267,2.2361198 -0.60303,2.2361198 0.13366,0 3.02706,-1.3868436 6.42996,-3.0818727 z m -4.19364,-0.1236858 c 0,-0.1266846 0.50203,-0.4979878 1.11563,-0.8249324 1.01163,-0.5390479 1.05219,-0.5175527 0.43513,0.2304691 -0.6336,0.7680741 -1.55076,1.1196435 -1.55076,0.5944633 z m 7.54971,-4.02067155 c 0.47076,-0.49287176 0.99192,-0.76014695 1.15813,-0.59393855 0.16623,0.16622706 -0.21897,0.56946367 -0.85591,0.89612709 -1.10714,0.56779576 -1.12044,0.5544901 -0.30222,-0.30218854 z m -5.69859,-3.74380135 c 0.33634,-0.3388633 0.73644,-0.4912225 0.88911,-0.3385447 0.15273,0.152734 -0.12254,0.429904 -0.61154,0.6161083 -0.70668,0.269093 -0.76363,0.212141 -0.27757,-0.2775636 z m 3.0143,-7.2189409 c 0.35793,-0.143176 0.78558,-0.125561 0.95036,0.03917 0.16471,0.164728 -0.12803,0.281967 -0.65081,0.260435 -0.57761,-0.0238 -0.69509,-0.141303 -0.29955,-0.299565 z m 3.56382,-6.355103 c -0.34431,-0.414892 -0.398,-0.743766 -0.12147,-0.743766 0.27273,0 0.77362,0.334701 1.11312,0.743766 0.34432,0.414893 0.39801,0.743748 0.12147,0.743748 -0.27271,0 -0.7736,-0.334683 -1.1131,-0.743748 z m 8.50317,-3.754014 c -1.54207,-1.856852 -1.70853,-1.936479 -2.31483,-1.107313 -0.60772,0.831098 -0.67652,0.800852 -0.98635,-0.433632 -0.18309,-0.729862 -0.13761,-1.676514 0.10153,-2.103644 0.39424,-0.70447 0.53747,-0.704601 1.54139,-0.0015 0.87744,0.61459 3.97601,5.691018 3.4521,5.655636 -0.0727,-0.0056 -0.88002,-0.909264 -1.79387,-2.009642 z m 4.59928,27.4230458 3.92943,-0.2541382 -1.94606,-1.0203006 c -1.07034,-0.5611805 -2.94218,-1.143856 -4.15967,-1.2948285 l -2.2136,-0.2745277 1.44494,-0.9440648 c 1.30125,-0.8501757 1.66934,-0.8802166 3.70112,-0.3020574 1.24088,0.3530874 3.21366,0.9023489 4.38395,1.2205604 2.11496,0.5750856 2.12165,0.5841186 1.1126,1.4973181 -1.22409,1.1077808 -0.98868,1.544675 0.42472,0.7882387 0.56263,-0.3011016 1.21679,-1.2674675 1.45373,-2.1474779 l 0.4308,-1.6000341 0.77802,1.8194839 c 0.42795,1.0007171 1.24322,2.068431 1.81172,2.3726809 1.32946,0.7115156 1.33478,-0.047226 0.009,-1.2471905 -1.02049,-0.9235441 -1.01461,-0.9301219 1.36356,-1.5321564 1.31367,-0.3325478 3.29233,-0.8765059 4.3971,-1.2087914 1.76849,-0.5319267 2.18128,-0.4913163 3.45319,0.3396693 l 1.44454,0.9438212 -2.21357,0.2972784 c -1.77338,0.2381715 -6.92272,2.1545243 -6.92451,2.5769884 -2.4e-4,0.055472 1.72901,0.1008236 3.84276,0.1008236 2.11374,0 4.45677,0.1915452 5.20673,0.4256313 1.30203,0.406441 1.36325,0.3504824 1.35678,-1.2395819 -0.0137,-3.3217681 -0.37496,-3.798823 -3.39158,-4.4763624 -3.68787,-0.82828691 -18.27406,-0.82828691 -21.96196,0 -3.01647,0.6775019 -3.37807,1.1546692 -3.39158,4.4756503 -0.006,1.3943397 0.13396,1.6055251 0.86095,1.3010501 0.47724,-0.1999035 2.63596,-0.477823 4.79715,-0.6176075 z m 41.43984,0.6439005 c 0,-0.127059 -0.36364,-0.993652 -0.80805,-1.9256481 -0.61575,-1.291174 -1.81021,-2.2525739 -5.01787,-4.03869989 -2.3154,-1.28928116 -5.08889,-2.46205361 -6.16337,-2.60616711 l -1.95355,-0.2620278 0.64947,1.59152604 c 0.55225,1.35324205 1.54031,2.02530926 6.59955,4.48884336 5.89746,2.8716808 6.69382,3.1991125 6.69382,2.7521735 z m -4.02994,-3.5688788 c -0.61708,-0.7480218 -0.5765,-0.769517 0.43511,-0.2304691 1.15381,0.6147966 1.4379,1.0554016 0.68052,1.0554016 -0.23932,0 -0.74137,-0.3712094 -1.11563,-0.8249325 z m -6.8785,-3.66687206 c 0,-0.28880784 0.22313,-0.38719494 0.49583,-0.21866272 0.27271,0.168476 0.49584,0.40484835 0.49584,0.52510529 0,0.12031249 -0.22313,0.21866256 -0.49584,0.21866256 -0.2727,0 -0.49583,-0.23629729 -0.49583,-0.52510513 z M -154.9343,-1.567355 c 4.86298,-0.9794842 15.53554,-1.1538072 20.827,-0.3401753 2.7281,0.4194845 5.40562,0.909414 5.95006,1.08872189 0.80657,0.26564483 0.85216,0.22535292 0.24616,-0.21751949 -0.40907,-0.2989651 -2.30565,-1.0015604 -4.21462,-1.5613352 -1.90899,-0.5597937 -3.74604,-1.1087366 -4.08233,-1.2199045 -0.86027,-0.2843476 -0.1983,-1.7286305 0.78846,-1.7201787 0.44807,0.00374 2.44514,0.8957524 4.43795,1.982038 4.54992,2.4801943 4.13402,1.6602468 -0.78752,-1.5525649 -4.29956,-2.8067828 -5.53673,-3.229884 -7.06027,-2.4145092 l -1.09391,0.5854491 0.9067,-1.5349676 c 0.49872,-0.844235 1.03911,-1.5349671 1.20087,-1.5349671 0.62788,0 6.25654,3.6047662 7.54425,4.831567 0.74713,0.7117593 1.49383,1.1586984 1.65934,0.9931834 0.60008,-0.6000853 -4.37747,-4.9423417 -7.1339,-6.2233774 -2.454,-1.140464 -3.47759,-1.314693 -7.78393,-1.324981 -4.26728,-0.0094 -5.2694,0.151609 -7.18969,1.160441 -3.13965,1.6495272 -5.20041,3.2751044 -6.52682,5.1485417 l -1.14171,1.612609 2.47071,-1.8722755 c 3.87586,-2.9370659 7.22242,-4.5534042 7.76181,-3.7488238 1.47268,2.196765 1.49286,2.4179577 0.16548,1.8131872 -1.03494,-0.4715453 -1.60796,-0.4158865 -3.11454,0.3025445 -2.49904,1.1916814 -8.04424,4.8653188 -8.04424,5.3292179 0,0.2056569 1.61766,-0.5079203 3.59482,-1.5857165 1.97715,-1.0777961 3.96144,-1.9627539 4.40951,-1.9665958 0.98326,-0.00938 1.65289,1.4403662 0.78843,1.7058798 -0.33629,0.1032594 -2.17333,0.6503659 -4.08229,1.215744 -1.909,0.5653783 -3.80558,1.2679923 -4.21465,1.5613541 -0.60818,0.43616339 -0.563,0.48357659 0.24793,0.26009754 0.54541,-0.15029739 2.10731,-0.49802534 3.47086,-0.77268414 z m 5.83919,-3.1650801 c -0.39829,-0.6444626 0.91186,-1.2919985 2.63139,-1.3005254 2.15501,-0.011249 2.31828,-0.4013625 0.92891,-2.2229078 -0.66997,-0.8783986 -1.21815,-1.7433792 -1.21815,-1.9221627 0,-0.178783 1.56191,-0.32507 3.47088,-0.32507 1.90898,0 3.47086,0.146362 3.47086,0.32507 0,0.1787835 -0.57071,1.0733552 -1.26829,1.987904 -1.37567,1.803592 -1.34347,1.8446146 1.86555,2.3770847 1.15122,0.1910207 1.75065,0.5293406 1.60599,0.9063594 -0.27134,0.7070742 -11.05671,0.8706776 -11.48714,0.1742855 z m 36.5501,1.2950347 c -1.37492,-1.754436 -1.74571,-1.8803713 -7.77804,-2.6414552 -2.78073,-0.3508573 -4.96677,-0.7821106 -4.85782,-0.9583639 0.10879,-0.1763469 2.66299,-1.0633473 5.67566,-1.9713183 3.01269,-0.9079711 5.47763,-1.8117632 5.47763,-2.0084052 0,-0.196643 -0.70682,-0.65031 -1.57067,-1.00812 -1.34054,-0.555277 -2.19422,-0.518227 -5.82613,0.252845 -3.91804,0.831829 -7.48202,1.441022 -5.38047,0.919684 0.87043,-0.215927 8.31471,-7.999703 8.31471,-8.693883 0,-0.2077 -0.641,-0.377636 -1.42447,-0.377636 -1.80269,0 -7.74691,4.729768 -9.41038,7.487751 l -1.16596,1.933201 1.16596,0.0075 c 0.94427,0.0056 1.02455,0.102136 0.42224,0.5047533 -0.62907,0.4204964 -0.53347,0.6833114 0.6198,1.704062 0.74995,0.6637838 1.36356,1.3335834 1.36356,1.4884538 0,0.1547954 0.55441,1.1597853 1.232,2.2331776 1.35627,2.1484898 0.81475,2.0340611 11.32391,2.3926955 l 2.88706,0.098574 z m -2.9701,-0.6198004 c -0.64096,-0.4142182 -0.62787,-0.4817024 0.0947,-0.4882428 0.46115,-0.00374 0.97634,0.215533 1.1449,0.4882428 0.38783,0.6275214 -0.26857,0.6275214 -1.2396,0 z m -3.47087,-7.1366142 c 0,-0.470364 1.48423,-0.70743 1.74882,-0.279325 0.16118,0.260809 -0.1664,0.474187 -0.72787,0.474187 -0.56152,0 -1.02095,-0.0877 -1.02095,-0.194862 z m -3.47088,-6.498955 c 0.33951,-0.409065 0.84039,-0.743766 1.1131,-0.743766 0.27659,0 0.22291,0.328874 -0.12147,0.743766 -0.3395,0.409065 -0.84039,0.74375 -1.1131,0.74375 -0.27659,0 -0.22289,-0.328875 0.12147,-0.74375 z m -5.33642,1.018633 c 2.78626,-5.597448 2.8208,-5.719729 2.52148,-8.925101 -0.16698,-1.787455 -0.43857,-3.248473 -0.60366,-3.246712 -1.04377,0.01127 -5.49928,4.760392 -8.2861,8.832449 -1.80674,2.639955 -3.38443,5.052234 -3.50601,5.360626 -0.16847,0.427168 2.14974,1.670573 3.11452,1.670573 0.0836,0 1.08207,-1.565927 2.2191,-3.479825 2.82103,-4.748473 3.22286,-4.755612 1.09286,-0.0193 -1.47903,3.288729 -1.67321,4.087331 -1.14773,4.720475 0.34784,0.419147 0.88855,0.762077 1.20152,0.762077 0.31299,0 1.84028,-2.553826 3.39402,-5.675183 z m -3.58867,-3.409492 c 0,-1.262632 3.12411,-5.790491 3.99531,-5.790491 0.54171,0 0.90265,1.859419 0.59173,3.048344 -0.2552,0.975923 -0.32978,0.994871 -0.89155,0.22659 -0.55268,-0.755836 -0.76489,-0.654225 -2.15429,1.031338 -0.84766,1.028359 -1.5412,1.696268 -1.5412,1.484219 z m -14.88184,5.241926 c -0.003,-0.204532 -0.74687,-3.495661 -1.65155,-7.313617 -1.6487,-6.957869 -3.3404,-11.652219 -4.19908,-11.652219 -1.00864,0 -1.03309,3.911341 -0.0574,9.173019 0.79272,4.274621 1.35405,5.963391 2.59533,7.808512 0.87895,1.306503 1.97003,2.35469 2.45157,2.355233 0.47725,5.25e-4 0.8647,-0.166414 0.86104,-0.370928 z m -5.35091,-13.759535 c 0.009,-0.81813 0.12132,-1.09279 0.24697,-0.610355 0.12573,0.482432 0.11751,1.151819 -0.0188,1.487517 -0.13593,0.335696 -0.23868,-0.05904 -0.22858,-0.877162 z m 14.65177,12.002513 c 1.2262,-1.707473 1.73244,-3.243546 2.5573,-7.759338 0.94708,-5.185047 0.98158,-9.449476 0.0764,-9.449476 -1.14494,0 -3.56522,7.650514 -5.76465,18.222087 -0.40096,1.927223 1.44921,1.32843 3.13089,-1.013273 z m 1.50851,-11.754579 c -0.1201,-0.818148 -0.034,-1.487517 0.19163,-1.487517 0.22549,0 0.40998,0.669369 0.40998,1.487517 0,0.81813 -0.0861,1.487517 -0.19165,1.487517 -0.10532,0 -0.28989,-0.669387 -0.40996,-1.487517 z m -5.1539,11.280335 c 0.14035,-1.159036 0.36983,-4.743657 0.50977,-7.965857 0.24921,-5.738001 0.22283,-5.929247 -1.28302,-9.296966 -0.84558,-1.891148 -1.69767,-3.438464 -1.89349,-3.438464 -0.19583,0 -1.07942,1.569394 -1.96356,3.487527 -1.58511,3.438952 -1.60322,3.561494 -1.29969,8.801133 0.16923,2.922485 0.42944,6.485049 0.57812,7.916776 l 0.27027,2.603149 h 2.41313 2.41313 z m -1.76244,-10.437112 c -0.16454,-1.308865 -0.44906,-2.529593 -0.63223,-2.712762 -0.5048,-0.504809 -1.25464,0.955441 -1.26317,2.460067 -0.003,0.733855 -0.23072,1.472187 -0.50345,1.640739 -0.79874,0.493639 -0.58597,-4.585394 0.26066,-6.22261 0.9684,-1.872688 1.43752,-1.842889 2.33989,0.148616 0.51493,1.136452 0.63692,2.415389 0.41383,4.338601 l -0.31636,2.727116 z"
         id="path5"
         sodipodi:nodetypes="ccccssssscssssscccsssssscssssssscsscccccccccccssscssssscccsscscscccssssscsssscscssscccssccssssssssssssscssssscscscssssscssscssssssscsccssssssssssssssssscssssccsscscscsscssssssssscccscssscccscccssssssssssccccccssssssssscssssscssssscsssssssscsssscscssssssssssssssscssssssssssscccsscsssssssssssssssssscssssssssssssscssssssssssssssssscssscssssssssscssssssssssssscssscsscsssssccssssssssssssssssssssssssccscssccsscsssssscsscssscsssscssssccsssscsssssssssssssssssscssscssssscsscsssssscssssssscssssssssssscssssssssccssssscsccsccssssssssssscssssssssssssssssssssssscscccsssssssssscssssssccccsscsssscs" /></g></g></svg>
