<?xml version="1.0" encoding="UTF-8" standalone="no"?>
<!-- Created with Inkscape (http://www.inkscape.org/) -->

<svg
   width="105.83334mm"
   height="105.83334mm"
   viewBox="0 0 105.83333 105.83333"
   version="1.1"
   id="svg1"
   xml:space="preserve"
   inkscape:version="1.4 (e7c3feb100, 2024-10-09)"
   sodipodi:docname="tempe.svg"
   inkscape:export-filename="../pngs/florida.png"
   inkscape:export-xdpi="96"
   inkscape:export-ydpi="96"
   xmlns:inkscape="http://www.inkscape.org/namespaces/inkscape"
   xmlns:sodipodi="http://sodipodi.sourceforge.net/DTD/sodipodi-0.dtd"
   xmlns="http://www.w3.org/2000/svg"
   xmlns:svg="http://www.w3.org/2000/svg"><sodipodi:namedview
     id="namedview1"
     pagecolor="#ffffff"
     bordercolor="#000000"
     borderopacity="0.25"
     inkscape:showpageshadow="2"
     inkscape:pageopacity="0.0"
     inkscape:pagecheckerboard="0"
     inkscape:deskcolor="#d1d1d1"
     inkscape:document-units="mm"
     inkscape:zoom="1.4016483"
     inkscape:cx="226.87574"
     inkscape:cy="196.19758"
     inkscape:window-width="1920"
     inkscape:window-height="1011"
     inkscape:window-x="0"
     inkscape:window-y="32"
     inkscape:window-maximized="1"
     inkscape:current-layer="layer1"
     showgrid="false"
     showguides="true" /><defs
     id="defs1"><inkscape:path-effect
       effect="bspline"
       id="path-effect55"
       is_visible="true"
       lpeversion="1.3"
       weight="33.333333"
       steps="2"
       helper_size="0"
       apply_no_weight="true"
       apply_with_weight="true"
       only_selected="false"
       uniform="false" /></defs><g
     inkscape:label="Capa 1"
     inkscape:groupmode="layer"
     id="layer1"><g
       id="g6"
       transform="matrix(1.0225057,0,0,1.0225057,-73.335831,-5.8563056)"><path
         style="fill:#8c1d40;fill-opacity:1;stroke-width:6.2739"
         d="m 127.41695,38.686078 -11.70349,8.424261 c 0,0 -2.83148,9.921907 -2.64272,11.419554 0.18877,1.497645 -1.88765,11.232347 -1.88765,11.232347 0,0 4.90791,9.734703 4.90791,11.23235 0,1.497645 1.13259,15.538079 1.13259,15.538079 l 8.11694,8.798671 h 15.66756 l -0.37753,-10.857933 7.7394,-10.109113 h 9.81582 l 0.37753,-8.798673 -0.56629,-7.488233 4.15284,-4.305732 0.18877,-17.784553 -11.51472,-5.990585 -19.06535,-2.620881 z"
         id="path2" /><g
         id="g5"
         style="fill:#ffffff"
         transform="matrix(1,0,0,1.017199,72.486087,3.118115)"><path
           style="fill:#ffffff;fill-opacity:1;stroke-width:6.29999"
           d="m 68.710769,54.1758 -0.943829,6.984335 5.662975,1.88766 4.341614,-0.188767 -4.719146,-5.285444 z"
           id="path3" /><path
           style="fill:#ffffff;fill-opacity:1;stroke-width:6.29999"
           d="m 67.011877,73.241148 10.193356,4.530381 -3.397787,4.341614 -5.851742,-2.265188 -9.249526,-0.94383 -8.11693,2.453955 1.132594,-5.851742 4.719145,-5.851739 6.606808,-2.26519 z"
           id="path4" /><path
           style="fill:#ffffff;fill-opacity:1;stroke-width:6.29999"
           d="m 50.211717,36.809341 3.586549,-5.662975 34.355386,9.249526 3.775315,-5.285443 -0.188764,-11.514718 -8.871995,-9.060761 -1.510128,8.871995 -7.550634,7.173103 -10.38212,-4.341615 -3.397787,-13.779907 0.943829,-7.1731021 c 0,0 -13.213609,7.1731021 -13.968671,8.3056971 -0.755065,1.132595 -7.36187,16.045097 -7.36187,16.045097 z"
           id="path5" /></g><path
         style="fill:#ffc627;fill-opacity:1;stroke-width:6.29999"
         d="m 108.72913,88.531182 6.22927,8.871995 1.69889,-10.759654 -4.90791,-19.820414 1.1326,-24.91709 -11.32595,-2.453957 -20.386714,2.076423 6.984336,3.964083 11.892248,13.402376 -3.020253,5.47421 -10.948419,-3.586551 1.698893,10.570887 11.703482,7.361867 8.871997,6.229274 z"
         id="path6" /><path
         style="fill:#000000;stroke-width:0.76041"
         d="m 129.30976,107.57642 c -6.53777,-1.05588 -11.82449,-4.00641 -15.62157,-8.718422 -2.10388,-2.610819 -3.42806,-4.891376 -5.48912,-9.453565 -2.82882,-6.261615 -4.94549,-8.064205 -12.790136,-10.892255 -1.604506,-0.578436 -3.641572,-1.425988 -4.526815,-1.88345 -2.863305,-1.479653 -4.73203,-3.825453 -5.635077,-7.073683 -0.622151,-2.237851 -0.599472,-11.237081 0.03247,-12.883889 0.09089,-0.236857 0.382827,-0.05827 1.25105,0.765311 3.626739,3.440267 6.970202,4.150091 8.075637,1.714475 0.779823,-1.718197 0.26646,-4.151515 -1.402204,-6.646374 C 90.422846,48.346407 85.477412,45.549161 78.926051,44.428646 77.882989,44.250245 76.726326,44.10428 76.355689,44.10428 h -0.673883 l 0.331706,-0.641447 c 1.05228,-2.034885 4.417845,-4.129102 8.229279,-5.120654 1.676888,-0.436247 2.598223,-0.539308 5.532775,-0.618904 3.120966,-0.08465 3.749366,-0.04473 5.532775,0.351514 1.106554,0.245859 2.442261,0.48959 2.968236,0.541625 0.886929,0.08775 1.009293,0.04165 1.686405,-0.635474 0.723748,-0.723748 0.729238,-0.741973 0.632118,-2.099328 -0.2194,-3.06643 -3.093005,-6.356314 -6.731512,-7.706668 -0.643908,-0.238973 -1.254971,-0.508112 -1.35792,-0.598087 -0.104202,-0.09107 0.564707,-0.512261 1.508939,-0.950129 4.426176,-2.052544 8.291023,-2.003141 13.379813,0.171026 2.05179,0.876621 2.57337,0.954636 3.56305,0.532941 0.95166,-0.405497 1.44495,-1.052715 2.10264,-2.758752 2.08925,-5.419405 8.08973,-10.98069 15.84726,-14.6873357 1.32787,-0.6344709 3.45547,-1.4714199 4.72801,-1.8598875 3.07248,-0.9379346 3.48704,-1.0241119 3.35297,-0.6970169 -0.5532,1.3497254 -1.67605,5.1353381 -2.07634,7.0001901 -0.62008,2.888799 -0.83383,6.983737 -0.48024,9.199871 0.73689,4.618394 3.37059,7.917208 7.30956,9.155515 1.97612,0.62124 4.30545,0.619196 5.57509,-0.0049 4.28646,-2.106991 7.10316,-7.598664 6.77643,-13.211875 -0.0647,-1.111079 -0.18016,-2.232844 -0.25663,-2.49281 -0.12475,-0.424051 0.0346,-0.365104 1.54948,0.573114 6.10001,3.77802 9.41593,7.47051 11.10275,12.363585 0.58338,1.692255 0.62825,2.019128 0.63649,4.63727 0.007,2.091483 -0.0829,3.153386 -0.34745,4.124432 -0.44792,1.643946 -1.70812,4.283987 -2.53418,5.30895 -0.34669,0.430174 -0.63034,0.882856 -0.63032,1.005959 2e-5,0.123104 0.23039,1.762942 0.51195,3.644085 1.50506,10.055971 0.83021,14.674119 -2.62988,17.996671 l -1.3313,1.278372 0.30542,1.830412 c 0.89281,5.350638 0.94923,10.551512 0.14475,13.341137 -0.67126,2.327665 -1.03415,3.089194 -1.569,3.292542 -0.6571,0.249829 -5.04974,0.228552 -6.7993,-0.03293 -2.22738,-0.332895 -2.56261,-0.28415 -4.31472,0.6274 -4.88415,2.54101 -7.38707,7.287002 -6.6566,12.622073 0.24734,1.806474 0.87973,4.073284 1.69223,6.065774 0.28962,0.71022 0.49134,1.32654 0.44828,1.36961 -0.043,0.043 -0.92563,0.21547 -1.96128,0.38317 -2.72901,0.44186 -9.84638,0.54215 -12.14378,0.1711 z m -0.60358,-4.97681 c -1.92207,-1.53229 -3.26274,-3.356829 -3.80274,-5.175234 -0.58085,-1.955919 -0.28268,-6.48934 0.48101,-7.313375 0.085,-0.09174 0.29738,0.252269 0.4719,0.764463 0.17453,0.512195 0.73239,1.555628 1.23971,2.318739 1.7951,2.700214 5.07975,4.55315 9.20511,5.192776 l 1.15685,0.179367 v -1.484827 c 0,-2.07052 0.70853,-4.117932 1.88544,-5.448338 0.24106,-0.272497 0.32714,-0.521713 0.21435,-0.620619 -0.58254,-0.510842 -3.75158,-1.301465 -6.11015,-1.524371 -0.71184,-0.06727 -1.33648,-0.164541 -1.38808,-0.216144 -0.19678,-0.196778 2.58501,-1.33058 4.00903,-1.633996 1.67916,-0.357784 4.21922,-0.279012 5.95899,0.184801 1.04081,0.277474 1.05273,0.275402 1.57964,-0.274569 0.64004,-0.668059 0.61713,-0.686231 -1.83847,-1.458608 -5.04553,-1.58701 -10.54538,-1.735932 -15.17375,-0.410868 -0.94132,0.269489 -1.9831,0.613689 -2.31506,0.76489 -0.82821,0.377221 -2.14521,0.916824 -2.23769,0.916824 -0.14162,0 -0.0691,-1.703044 0.13174,-3.092141 0.43319,-2.996682 1.82704,-5.994288 3.50753,-7.543311 0.51626,-0.475879 0.77332,-0.832482 0.6001,-0.832482 -0.35279,0 -2.23067,0.921648 -4.1493,2.036441 -0.73857,0.429135 -1.39814,0.780244 -1.46572,0.780244 -0.21624,0 0.32366,-0.869879 1.32959,-2.142222 1.11545,-1.410869 3.32971,-3.169596 5.10043,-4.051137 2.37127,-1.180519 3.76059,-1.496603 7.04172,-1.602051 4.17643,-0.134221 6.54456,0.338789 11.51823,2.300646 1.02356,0.403742 1.86102,0.809568 1.86102,0.901835 0,0.09226 -0.36715,0.499459 -0.8159,0.904874 -0.94014,0.849359 -1.88948,2.358865 -1.73563,2.759771 0.0578,0.150644 0.40658,0.330595 0.77504,0.399889 1.45903,0.274386 3.0694,1.256146 4.60117,2.805093 1.7093,1.728481 2.46045,2.091203 4.72744,2.282834 l 1.43072,0.12094 0.22859,-0.579807 c 0.12572,-0.318895 0.37815,-1.168294 0.56095,-1.887555 0.45646,-1.79598 0.28122,-6.798108 -0.39429,-11.255291 -0.27576,-1.819518 -0.46346,-3.369576 -0.4171,-3.444573 0.0463,-0.075 0.33832,-0.187167 0.64882,-0.249268 1.82157,-0.364313 3.48837,-2.44627 4.20976,-5.258291 0.73019,-2.846386 0.33235,-9.625985 -0.77997,-13.291013 l -0.24424,-0.804768 -0.13521,1.508939 c -0.16279,1.816701 -0.60636,3.373611 -1.29678,4.551736 -0.64952,1.108313 -1.18006,1.417033 -1.83388,1.06712 -0.46678,-0.249816 -0.69248,-0.659339 -2.09875,-3.80813 -0.37064,-0.829916 -1.15658,-2.324492 -1.74653,-3.321281 -1.0897,-1.841177 -3.5455,-4.927582 -3.92079,-4.927582 -0.13322,0 -0.15879,0.479299 -0.0725,1.358044 0.16489,1.678538 -0.15214,4.035618 -0.68269,5.075571 -0.74869,1.46754 -1.08107,1.306314 -1.98697,-0.963785 -1.03295,-2.588497 -1.83864,-3.887991 -3.3591,-5.417875 -2.97233,-2.990739 -6.93401,-4.006847 -12.36112,-3.170429 -1.05123,0.162013 -1.97922,0.296194 -2.06222,0.298179 -0.083,0.0019 -0.15089,0.08618 -0.15089,0.187116 0,0.100934 0.34488,0.241774 0.76639,0.312989 0.78025,0.131822 2.85506,1.200728 2.85506,1.470877 0,0.08167 -0.928,0.452133 -2.06222,0.823233 -5.79564,1.896252 -10.8035,5.198265 -13.56198,8.942317 -0.9438,1.281002 -1.97138,3.130432 -1.82222,3.279593 0.0464,0.04637 0.70884,-0.181038 1.47216,-0.505354 0.76332,-0.324316 2.24795,-0.874406 3.29918,-1.222424 3.28323,-1.08694 9.45601,-2.506124 9.45601,-2.174031 0,0.05335 -0.65638,0.530815 -1.45864,1.061034 -5.86827,3.878427 -9.21549,7.748976 -9.2001,10.638526 0.0156,2.934873 3.7528,5.447477 9.75339,6.557468 1.93377,0.357712 2.11251,0.407154 2.11251,0.584369 0,0.24523 -2.72581,1.014549 -4.77088,1.346513 -2.95193,0.479169 -6.30473,0.334731 -10.19375,-0.439145 -1.55182,-0.308797 -1.59425,-0.306587 -2.00533,0.104494 l -0.41997,0.419967 0.91493,0.956656 c 1.32229,1.382614 2.05065,2.391628 2.79638,3.873936 1.43218,2.846759 1.60501,3.886124 1.80661,10.864358 0.12401,4.29233 0.27651,6.615825 0.50751,7.731898 0.88782,4.28961 3.59276,7.148905 8.48173,8.965735 2.03183,0.75506 2.36849,0.74276 1.37383,-0.0502 z m 21.44044,-31.585924 c 0.0864,-1.25577 -0.0169,-1.741942 -0.48598,-2.287263 l -0.47247,-0.549273 -1.20056,0.336861 c -1.64098,0.460437 -4.41405,0.42947 -7.38876,-0.08251 -1.34016,-0.230654 -2.94766,-0.384008 -3.57223,-0.340787 -1.29497,0.08962 -1.35798,-0.108601 -0.29281,-0.921048 0.80508,-0.614063 2.0266,-1.135478 2.6601,-1.135478 0.71246,0 0.57892,-0.28571 -0.27606,-0.590596 -1.07339,-0.382779 -2.7759,-1.547559 -3.44052,-2.35386 -0.54234,-0.657948 -1.036,-2.181704 -1.036,-3.197775 0,-0.848832 -0.44424,-1.48743 -1.33458,-1.918433 -0.73947,-0.357971 -1.24904,-0.421914 -3.38932,-0.425301 -1.38545,-0.0022 -2.519,-0.07785 -2.519,-0.168132 0,-0.255213 1.79092,-1.785797 3.01787,-2.579186 0.60861,-0.393542 1.78419,-0.995386 2.61239,-1.337432 1.12672,-0.465331 1.6247,-0.797349 1.978,-1.318795 1.11188,-1.641073 -0.39739,-3.647496 -2.9732,-3.952563 -0.55749,-0.06603 -1.01361,-0.18585 -1.01361,-0.266277 0,-0.20242 2.50354,-1.302916 3.94267,-1.733104 1.55141,-0.463748 3.98663,-0.474922 4.83813,-0.02219 0.98083,0.521486 1.80373,1.450738 2.399,2.709036 0.51504,1.088703 0.92955,2.630076 2.19595,8.165547 1.18307,5.171336 3.49448,7.925837 7.01643,8.361486 l 1.03475,0.127996 -0.0103,1.708434 c -0.0112,1.861231 -0.22842,2.472046 -1.32206,3.717638 -0.77201,0.879271 -1.02564,0.893162 -0.96785,0.05302 z m -1.52245,-4.568785 0.60357,-0.145255 -0.56444,-0.232589 c -1.60916,-0.663086 -2.91431,-1.415643 -3.5747,-2.061185 -0.72659,-0.710249 -1.99721,-3.05408 -1.99721,-3.684116 0,-0.525461 -0.37894,-0.370992 -0.81092,0.330552 -0.59773,0.970766 -1.02002,2.554646 -0.88004,3.30083 0.16815,0.89625 1.22411,2.043896 2.19394,2.384407 0.8485,0.297909 3.96186,0.364361 5.0298,0.107356 z m 7.03153,-5.387075 c -0.93516,-1.501115 -3.25776,-3.710407 -4.71783,-4.487659 -1.18055,-0.628455 -1.25364,-0.702384 -0.75151,-0.760113 1.60141,-0.184104 4.46918,0.96467 6.11266,2.448612 0.8612,0.777607 1.16601,0.933801 1.81072,0.927872 0.42637,-0.004 1.00155,-0.136518 1.27819,-0.294659 0.81061,-0.463387 1.01571,-0.389815 0.78203,0.280526 -0.38519,1.104959 -2.59703,2.837947 -3.62212,2.837947 -0.16431,0 -0.56577,-0.428637 -0.89214,-0.952526 z m -41.39498,25.950609 c -0.22233,-7.308397 -1.42705,-11.24746 -4.24656,-13.884977 -2.05564,-1.922945 -3.76579,-2.662384 -9.87722,-4.270732 -4.793115,-1.261407 -8.080707,-2.88 -10.404358,-5.122416 -0.521589,-0.503355 -1.009907,-0.91519 -1.085151,-0.91519 -0.241984,0 0.08224,4.089372 0.408419,5.151197 0.868152,2.826197 3.252846,4.920982 7.359042,6.464402 3.572087,1.342661 4.702698,1.809781 6.290688,2.599046 2.24133,1.113988 3.54254,2.014476 5.14973,3.563824 2.70445,2.607105 4.67345,5.844947 6.16447,10.136894 0.28311,0.814948 0.34832,-0.192395 0.24094,-3.722048 z m 32.66786,-2.816686 c 0.76548,-0.525613 1.39223,-1.003679 1.39279,-1.062368 5.5e-4,-0.05869 -0.90018,-0.214476 -2.00164,-0.346196 -3.91365,-0.468021 -7.45145,-1.628503 -9.02143,-2.959242 -1.42278,-1.205982 -1.90021,-3.268713 -1.16424,-5.030152 0.46471,-1.112195 0.40613,-1.189575 -0.51062,-0.674505 -2.044,1.148405 -3.74511,3.658383 -4.10474,6.056533 -0.0782,0.521266 -0.19488,0.947755 -0.25936,0.947755 -0.0645,0 -0.46128,-0.238426 -0.88179,-0.529833 -0.70031,-0.485321 -1.68898,-1.826838 -2.04252,-2.771481 -0.13456,-0.359549 -0.18077,-0.348536 -0.72488,0.172756 -0.31964,0.306235 -0.92422,1.232666 -1.34352,2.058739 -0.59107,1.164512 -0.78129,1.799445 -0.84666,2.826108 -0.0784,1.230418 -0.0576,1.313603 0.2932,1.175085 1.14415,-0.451792 3.61682,-0.938458 5.48836,-1.080208 3.99074,-0.302255 8.57221,0.270213 12.46104,1.557044 0.95839,0.317134 1.77216,0.585387 1.80838,0.596117 0.0362,0.01073 0.69215,-0.410538 1.45763,-0.936152 z m -39.89234,-20.55309 c 3.14316,-2.615763 5.10834,-6.285466 5.12777,-9.575384 0.0171,-2.892813 -0.91149,-5.100173 -3.05537,-7.263077 -1.08854,-1.09819 -3.77663,-3.028848 -3.96077,-2.844716 -0.0538,0.05376 0.0927,0.832573 0.32556,1.730709 0.47212,1.821373 0.46598,2.909641 -0.0169,3.000934 -0.17259,0.03263 -1.03269,-0.557864 -1.91133,-1.312207 -2.27247,-1.951 -3.42635,-2.750152 -5.323817,-3.687141 -4.215382,-2.081604 -8.404998,-2.566552 -13.532045,-1.566337 -0.63965,0.124787 -1.127765,0.26212 -1.0847,0.305185 0.04307,0.04307 0.838956,0.201434 1.768646,0.351932 3.412681,0.552442 7.651531,2.338008 10.277404,4.329239 2.678343,2.031017 4.919652,4.911596 6.268862,8.056877 0.98251,2.290426 1.35338,4.244981 1.47811,7.789934 l 0.11463,3.257961 1.17151,-0.795555 c 0.64433,-0.437555 1.70293,-1.237813 2.35246,-1.778354 z m 54.94338,-22.472363 c 1.55866,-1.770743 2.27896,-4.832951 1.86613,-7.933592 -0.41898,-3.146887 -1.55945,-5.725808 -3.70888,-8.386802 -0.83898,-1.038647 -3.102,-3.073911 -3.41792,-3.073911 -0.0481,0 -0.14489,0.792193 -0.2151,1.760428 -0.26835,3.70086 -1.54682,6.64231 -4.05032,9.318749 -0.87901,0.939731 -3.03119,2.710196 -4.055,3.335786 -0.35453,0.21664 -0.34481,0.243932 0.15696,0.440716 0.2942,0.115376 1.45485,0.631463 2.57923,1.146861 1.59617,0.731656 2.1846,0.910301 2.68418,0.814903 0.98863,-0.188792 2.59876,-1.001934 3.43118,-1.732802 1.40371,-1.232476 1.86034,-2.104725 2.73141,-5.217474 0.1259,-0.449946 0.19419,-0.382361 0.76232,0.754583 1.08765,2.176579 1.03095,5.039135 -0.16181,8.169292 -0.36616,0.960899 -0.36934,1.042388 -0.05,1.277841 0.49749,0.366757 0.55422,0.340322 1.44758,-0.674578 z m -41.41939,-3.651047 c -1.04596,-3.381175 -0.43243,-7.548755 1.60575,-10.907448 0.73058,-1.203916 1.67343,-2.421508 1.87511,-2.421508 0.0453,0 0.13327,0.431031 0.19567,0.957846 0.49127,4.148091 4.01377,7.84358 8.59514,9.017274 1.31257,0.336264 4.24921,0.695015 4.42493,0.540567 0.0554,-0.04863 -0.26155,-0.367383 -0.70417,-0.70834 -1.43435,-1.104901 -3.83181,-3.669046 -4.57608,-4.894232 -0.39923,-0.657212 -0.97613,-1.918352 -1.282,-2.802534 -0.49876,-1.441814 -0.5567,-1.887705 -0.56179,-4.323692 -0.006,-2.847195 0.23785,-4.407072 1.21626,-7.781924 0.27402,-0.945196 0.45702,-1.759734 0.40667,-1.810084 -0.27146,-0.271461 -4.5915,2.280424 -6.88667,4.068022 -5.27488,4.108344 -8.7309,9.72189 -8.73556,14.189015 -0.003,3.007844 0.84095,4.911048 3.07455,6.932342 1.59037,1.439204 1.81171,1.43015 1.35219,-0.0553 z"
         id="path1" /></g></g></svg>
