<?xml version="1.0" encoding="UTF-8" standalone="no"?>
<!-- Created with Inkscape (http://www.inkscape.org/) -->

<svg
   width="105.83334mm"
   height="105.83334mm"
   viewBox="0 0 105.83333 105.83333"
   version="1.1"
   id="svg1"
   xml:space="preserve"
   inkscape:version="1.4 (e7c3feb100, 2024-10-09)"
   sodipodi:docname="tennessee.svg"
   inkscape:export-filename="../pngs/NCAL.png"
   inkscape:export-xdpi="96"
   inkscape:export-ydpi="96"
   xmlns:inkscape="http://www.inkscape.org/namespaces/inkscape"
   xmlns:sodipodi="http://sodipodi.sourceforge.net/DTD/sodipodi-0.dtd"
   xmlns="http://www.w3.org/2000/svg"
   xmlns:svg="http://www.w3.org/2000/svg"><sodipodi:namedview
     id="namedview1"
     pagecolor="#ffffff"
     bordercolor="#000000"
     borderopacity="0.25"
     inkscape:showpageshadow="2"
     inkscape:pageopacity="0.0"
     inkscape:pagecheckerboard="0"
     inkscape:deskcolor="#d1d1d1"
     inkscape:document-units="mm"
     inkscape:zoom="1.2983091"
     inkscape:cx="215.66513"
     inkscape:cy="188.70699"
     inkscape:window-width="1920"
     inkscape:window-height="1011"
     inkscape:window-x="0"
     inkscape:window-y="32"
     inkscape:window-maximized="1"
     inkscape:current-layer="layer1"
     showgrid="false" /><defs
     id="defs1" /><g
     inkscape:label="Capa 1"
     inkscape:groupmode="layer"
     id="layer1"><rect
       style="fill:#ff8200;fill-rule:evenodd;stroke-width:0.264583;fill-opacity:1"
       id="rect1"
       width="7.4913516"
       height="7.4913516"
       x="-0.31213966"
       y="-11.393097"
       ry="0.029487522" /><rect
       style="fill:#58595b;fill-rule:evenodd;stroke-width:0.264583;fill-opacity:1"
       id="rect1-6"
       width="7.4913516"
       height="7.4913516"
       x="19.468525"
       y="-11.601464"
       ry="0.029487522" /><rect
       style="fill:#ffffff;fill-rule:evenodd;stroke-width:0.264583"
       id="rect1-2"
       width="7.4913516"
       height="7.4913516"
       x="9.1679173"
       y="-11.80509"
       ry="0.029487522" /><path
       id="path1"
       style="fill:#ff8200;fill-opacity:1;stroke-width:0.90327"
       d="m 28.620476,101.35456 c -0.355199,-0.22071 0.363036,-2.606799 3.486426,-11.582453 2.163582,-6.217458 4.034154,-11.609632 4.15683,-11.982605 0.2221,-0.67527 0.201816,-0.672805 -4.81356,0.584409 l -5.036602,1.262545 -0.12323,-0.663603 12.821334,-32.79923 12.500538,-3.326165 c 11.131873,-2.961987 10.437283,-3.914787 10.250609,-3.416056 l -8.364823,22.348121 13.090036,-2.869595 c 1.015448,-0.222607 -36.215286,42.375412 -36.890288,42.555032 -0.346459,0.0922 -0.831223,0.0425 -1.077267,-0.11039 z M 34.395591,58.696834 49.639785,18.338006 h -4.239709 l -6.357342,9.741786 H 24.873182 L 34.026948,3.8453006 H 96.562646 L 87.408884,28.079792 H 73.127759 l 1.057707,-9.741786 H 69.889972 L 54.645778,58.696834 Z"
       sodipodi:nodetypes="sssscccsccssssccccccccccccc" /></g></svg>
