<?xml version="1.0" encoding="UTF-8" standalone="no"?>
<!-- Created with Inkscape (http://www.inkscape.org/) -->

<svg
   width="105.83334mm"
   height="105.83334mm"
   viewBox="0 0 105.83333 105.83333"
   version="1.1"
   id="svg1"
   xml:space="preserve"
   inkscape:version="1.4 (e7c3feb100, 2024-10-09)"
   sodipodi:docname="tennessee.svg"
   inkscape:export-filename="../pngs/NCAL.png"
   inkscape:export-xdpi="96"
   inkscape:export-ydpi="96"
   xmlns:inkscape="http://www.inkscape.org/namespaces/inkscape"
   xmlns:sodipodi="http://sodipodi.sourceforge.net/DTD/sodipodi-0.dtd"
   xmlns="http://www.w3.org/2000/svg"
   xmlns:svg="http://www.w3.org/2000/svg"><sodipodi:namedview
     id="namedview1"
     pagecolor="#ffffff"
     bordercolor="#000000"
     borderopacity="0.25"
     inkscape:showpageshadow="2"
     inkscape:pageopacity="0.0"
     inkscape:pagecheckerboard="0"
     inkscape:deskcolor="#d1d1d1"
     inkscape:document-units="mm"
     inkscape:zoom="0.64915455"
     inkscape:cx="312.71444"
     inkscape:cy="124.77768"
     inkscape:window-width="1920"
     inkscape:window-height="1011"
     inkscape:window-x="0"
     inkscape:window-y="32"
     inkscape:window-maximized="1"
     inkscape:current-layer="layer1"
     showgrid="false" /><defs
     id="defs1" /><g
     inkscape:label="Capa 1"
     inkscape:groupmode="layer"
     id="layer1"><g
       id="g1"
       transform="translate(-123.89003,9.174443)"><path
         id="path1-5"
         style="fill:#ff8200;fill-opacity:1;stroke:#ffffff;stroke-width:3.503;stroke-dasharray:none"
         d="m 152.11765,92.387769 c -0.3552,-0.22071 0.36303,-2.606799 3.48642,-11.582453 2.16358,-6.217458 4.03416,-11.609632 4.15683,-11.982605 0.2221,-0.67527 0.20182,-0.672805 -4.81356,0.584409 l -5.0366,1.262545 -0.12323,-0.663603 12.82133,-32.79923 12.50054,-3.326165 c 11.13188,-2.961987 10.43729,-3.914787 10.25061,-3.416056 l -8.36482,22.348121 13.09003,-2.869595 c 1.01545,-0.222607 -36.21528,42.375412 -36.89028,42.555032 -0.34646,0.0922 -0.83123,0.0425 -1.07727,-0.11039 z m 5.77511,-42.657726 15.2442,-40.3588282 h -4.23971 l -6.35735,9.7417862 h -14.16955 l 9.15377,-24.2344916 h 62.5357 l -9.15377,24.2344916 h -14.28112 l 1.05771,-9.7417862 h -4.2955 L 178.14295,49.730043 Z"
         sodipodi:nodetypes="sssscccsccssssccccccccccccc" /><path
         id="path1"
         style="fill:#ff8200;fill-opacity:1;stroke-width:0.90327"
         d="m 152.11765,92.387769 c -0.3552,-0.22071 0.36303,-2.606799 3.48642,-11.582453 2.16358,-6.217458 4.03416,-11.609632 4.15683,-11.982605 0.2221,-0.67527 0.20182,-0.672805 -4.81356,0.584409 l -5.0366,1.262545 -0.12323,-0.663603 12.82133,-32.79923 12.50054,-3.326165 c 11.13188,-2.961987 10.43729,-3.914787 10.25061,-3.416056 l -8.36482,22.348121 13.09003,-2.869595 c 1.01545,-0.222607 -36.21528,42.375412 -36.89028,42.555032 -0.34646,0.0922 -0.83123,0.0425 -1.07727,-0.11039 z m 5.77511,-42.657726 15.2442,-40.3588282 h -4.23971 l -6.35735,9.7417862 h -14.16955 l 9.15377,-24.2344916 h 62.5357 l -9.15377,24.2344916 h -14.28112 l 1.05771,-9.7417862 h -4.2955 L 178.14295,49.730043 Z"
         sodipodi:nodetypes="sssscccsccssssccccccccccccc" /></g></g></svg>
