<?xml version="1.0" encoding="UTF-8" standalone="no"?>
<!-- Created with Inkscape (http://www.inkscape.org/) -->

<svg
   width="105.83334mm"
   height="105.83334mm"
   viewBox="0 0 105.83333 105.83333"
   version="1.1"
   id="svg1"
   xml:space="preserve"
   inkscape:version="1.4 (e7c3feb100, 2024-10-09)"
   sodipodi:docname="tucson.svg"
   inkscape:export-filename="../pngs/tucson.png"
   inkscape:export-xdpi="96"
   inkscape:export-ydpi="96"
   xmlns:inkscape="http://www.inkscape.org/namespaces/inkscape"
   xmlns:sodipodi="http://sodipodi.sourceforge.net/DTD/sodipodi-0.dtd"
   xmlns="http://www.w3.org/2000/svg"
   xmlns:svg="http://www.w3.org/2000/svg"><sodipodi:namedview
     id="namedview1"
     pagecolor="#ffffff"
     bordercolor="#000000"
     borderopacity="0.25"
     inkscape:showpageshadow="2"
     inkscape:pageopacity="0.0"
     inkscape:pagecheckerboard="0"
     inkscape:deskcolor="#d1d1d1"
     inkscape:document-units="mm"
     inkscape:zoom="0.93104429"
     inkscape:cx="286.23772"
     inkscape:cy="51.555012"
     inkscape:window-width="1920"
     inkscape:window-height="1011"
     inkscape:window-x="0"
     inkscape:window-y="32"
     inkscape:window-maximized="1"
     inkscape:current-layer="layer1"
     showgrid="false"
     showguides="true" /><defs
     id="defs1" /><g
     inkscape:label="Capa 1"
     inkscape:groupmode="layer"
     id="layer1"><path
       id="path9"
       style="fill:#003366;fill-opacity:1;stroke:#003366;stroke-width:2.50429;stroke-dasharray:none;stroke-opacity:1"
       d="m 16.446352,2.1279075 c -0.26089,-0.015681 -0.578781,-0.019119 -0.9263,0.01543 l 4.91e-4,4.98e-4 c -0.225849,0.022606 -0.277187,0.067086 -0.347914,0.1035304 -0.431393,-0.05704 -0.858906,-0.098791 -1.151282,-0.08661 C 13.375191,2.1876769 12.942054,2.2876794 12.67446,2.3523865 12.351531,2.4304825 12.165559,2.5104114 11.959205,2.58981 11.78138,2.5170894 11.621452,2.412614 11.163812,2.412614 9.9417543,2.412614 9.283799,2.6936181 9.1544233,2.7361458 8.8247714,2.8445038 8.5819896,2.9473619 8.3834183,3.0372806 7.9724635,3.2233612 7.6185007,3.4167015 7.273457,3.6166521 6.5871261,4.0143755 5.893812,4.4589755 5.2416648,5.0406934 4.5204856,5.6839485 3.191177,7.108088 2.9615139,9.4014144 2.7529543,11.484014 2.7902779,14.831942 2.7902875,22.053031 v 13.809863 l 1.2737229,1.640559 c 1.3524638,1.742257 3.4584987,3.05755 6.0555396,3.830128 0.767903,0.228459 1.902744,0.431784 3.154689,0.502222 1.207494,0.06793 2.779921,0.0947 5.6439,0.141359 3.465935,0.05647 9.60741,0.110513 13.755615,0.118463 l 3.201972,0.0055 v 42.361364 c 0,7.128911 0.01108,11.068302 0.0602,13.296691 0.02456,1.110476 0.04912,1.78737 0.119956,2.34785 0.02967,0.23504 0.07821,0.58598 0.240903,0.98752 0.06203,0.15312 0.247271,0.55489 0.596302,0.92929 0.240634,0.25813 0.585254,0.33644 0.869058,0.48928 l -0.513178,1.09852 4.165114,-0.20109 c -0.0039,1.6e-4 0.12769,0.008 0.144845,0.0114 v 0.20855 l 4.74796,-0.14683 h 4.633485 0.41761 3.888361 0.295661 0.440004 3.785329 0.419094 5.21137 v -0.0224 l 3.184558,0.15579 -0.511686,-1.10051 c 0.284219,-0.15339 0.629696,-0.23349 0.869559,-0.49077 0.349551,-0.37498 0.53459,-0.77896 0.596292,-0.93128 0.162702,-0.40157 0.210707,-0.7506 0.240412,-0.98553 0.07041,-0.556336 0.09983,-1.237455 0.124435,-2.349841 0.04931,-2.229458 0.05625,-6.168096 0.05625,-13.296691 V 42.101103 l 3.20595,-0.0055 c 4.14823,-0.0079 10.285708,-0.06248 13.751633,-0.11896 2.863969,-0.04667 4.436426,-0.07293 5.6439,-0.140861 1.251849,-0.07043 2.389415,-0.273509 3.158176,-0.502222 2.597262,-0.772648 4.700141,-2.08856 6.052051,-3.830128 l 1.27372,-1.640559 V 22.052536 c 0,-7.221089 0.0374,-10.568519 -0.17122,-12.6511187 -0.22955,-2.2922418 -1.55374,-3.7163515 -2.27618,-4.360721 C 99.94212,4.4577523 99.245001,4.0136714 98.559884,3.616655 98.21485,3.4167034 97.859375,3.2233641 97.44843,3.0372834 97.249859,2.9473696 97.006576,2.8445086 96.676924,2.7361487 96.547558,2.6936239 95.891606,2.4126169 94.669529,2.4126169 c -0.459037,0 -0.617954,0.1041431 -0.7939,0.1766983 C 93.667869,2.5097653 93.481318,2.4303666 93.158881,2.3523896 92.891249,2.2876632 92.45815,2.1876763 91.811994,2.160759 91.480782,2.1469661 91.012199,2.1802444 90.508403,2.2603076 89.819596,2.162199 89.209078,2.1360349 88.804134,2.1871437 88.232702,2.2592578 87.878373,2.369544 87.678742,2.429545 87.433283,2.503325 87.284739,2.5714335 87.110816,2.6420807 87.055436,2.6263907 87.043106,2.6259467 86.969949,2.6027627 86.797221,2.5480247 86.631793,2.4492206 86.215376,2.45991 85.551912,2.476939 85.108199,2.5818066 84.875954,2.6386002 84.342299,2.7691057 84.019457,2.9100763 83.831683,2.9900057 83.372164,3.1856065 83.013558,3.378574 82.663487,3.5788348 c -0.69996,0.4004059 -1.422391,0.8566047 -2.100969,1.4618696 -0.836463,0.7462385 -1.957453,1.9813307 -2.231384,3.7285888 -0.242984,1.5498498 -0.185299,3.4857358 -0.148823,7.4442348 0.02071,2.259228 0.01474,4.097389 -0.01291,5.406478 -0.01368,0.653351 -0.03429,1.177042 -0.05673,1.535037 -0.0077,0.12355 -0.0237,0.243027 -0.03737,0.344438 -0.253396,0.790873 -1.067976,1.439823 -2.765455,1.813276 -0.03699,0.0032 -0.06993,0.0054 -0.112982,0.0094 -0.329806,0.03048 -0.855217,0.08046 -1.305585,0.09805 -0.973525,0.03804 -2.224739,0.0674 -3.436904,0.08262 -0.319567,0.0039 -0.580004,2.37e-4 -0.857615,0 C 69.57374,22.173341 69.55544,18.131148 69.52105,17.022292 69.491483,16.06771 69.4832,15.633536 69.365267,15.11101 69.286381,14.761653 69.170404,14.593842 69.081049,14.437565 68.321188,12.357101 66.66216,10.548709 64.3744,9.1157032 63.866683,8.797677 63.393602,8.5151935 62.967284,8.281984 62.763705,8.1706189 62.555993,8.0601391 62.278411,7.9340623 62.178181,7.8885323 61.966395,7.7890559 61.604958,7.6747387 61.483596,7.6363555 61.137175,7.5201649 60.574132,7.4487636 60.303004,7.4143776 59.851335,7.3704276 59.247655,7.4243756 59.011057,7.4455276 58.798048,7.4893526 58.595113,7.529897 58.449151,7.559062 58.364198,7.579993 58.286516,7.59759 58.179073,7.577035 58.120607,7.556048 57.919676,7.544826 57.652217,7.529868 57.617562,7.570004 57.535912,7.599083 57.453072,7.521479 57.492282,7.507647 57.231303,7.3736059 56.835538,7.1703323 56.367562,6.9488977 55.686808,6.7544142 55.378038,6.6661952 54.879828,6.534669 54.132854,6.4970815 c -0.425826,-0.021431 -0.93572,0.058552 -1.454407,0.157784 L 51.910928,6.4423299 50.539654,6.6981687 h -0.0019 c -1.100079,0.2060408 -1.518807,0.4681085 -1.773956,0.5848472 -0.2839,0.1298978 -0.558014,0.2878475 -0.833217,0.4439865 -0.0289,-0.012666 -0.06309,-0.026555 -0.08312,-0.03534 -0.01666,-0.00732 -0.02996,-0.01283 -0.0393,-0.016923 -0.0048,-0.00202 -0.0087,-0.00462 -0.01146,-0.00597 -0.0019,-6.743e-4 -0.0019,-0.00106 -0.0039,-0.00202 l -0.03583,-0.01493 c 0,0 -0.138622,-0.040685 -0.141358,-0.041311 -0.0029,-6.251e-4 -0.0039,-0.00164 -0.0058,-0.00202 -0.0029,-6.088e-4 -0.0048,-0.00135 -0.0077,-0.00202 -0.0058,-0.00135 -0.01271,-0.00327 -0.02244,-0.00549 -0.01965,-0.00424 -0.04691,-0.00975 -0.08062,-0.016923 -0.06733,-0.014351 -0.159976,-0.034492 -0.261814,-0.054748 -0.203667,-0.040512 -0.41632,-0.084414 -0.652542,-0.1055214 -0.603275,-0.0539 -1.052353,-0.00934 -1.322499,0.024889 -0.563024,0.071401 -0.9114,0.1870727 -1.03282,0.2254771 -0.359588,0.1137402 -0.569207,0.2115753 -0.675427,0.2598215 -0.280597,0.1274426 -0.487288,0.2387345 -0.68689,0.3479217 -0.424343,0.232126 -0.899726,0.5141558 -1.409109,0.8332213 -2.292037,1.4356864 -3.952442,3.2466194 -4.710136,5.3313194 -0.08698,0.150654 -0.201393,0.312765 -0.280731,0.664486 -0.118896,0.527172 -0.124733,0.956935 -0.154293,1.90934 -0.03439,1.107462 -0.05365,5.152391 -0.07715,8.482526 -0.276522,2.39e-4 -0.534831,0.004 -0.853627,0 -1.212204,-0.01522 -2.467473,-0.04508 -3.440892,-0.08312 -0.450369,-0.0176 -0.975779,-0.06707 -1.305589,-0.09756 -0.04296,-0.0039 -0.0759,-0.0062 -0.112982,-0.0094 -1.697479,-0.373452 -2.512049,-1.022901 -2.765455,-1.813774 -0.01358,-0.101413 -0.03005,-0.220434 -0.03785,-0.34394 -0.02244,-0.357828 -0.04248,-0.881512 -0.05625,-1.535037 -0.02745,-1.307562 -0.02986,-3.146792 -0.0096,-5.406976 0.03641,-3.958502 0.0941,-5.89392 -0.148823,-7.4437378 C 27.23053,7.0204136 26.10509,5.7858877 25.269696,5.0406038 24.591109,4.435333 23.866694,3.9791353 23.166743,3.5787342 22.816662,3.3784686 22.457556,3.185505 21.998037,2.9899051 21.810273,2.9099795 21.489925,2.7685061 20.95626,2.6380015 c -0.232225,-0.05679 -0.675948,-0.161658 -1.339422,-0.1786901 -0.417168,-0.010778 -0.582596,0.088093 -0.754573,0.1428527 -0.0732,0.023309 -0.08582,0.024167 -0.140867,0.039818 C 18.546762,2.5715154 18.396562,2.5026598 18.152981,2.4294468 17.955941,2.3702298 17.602017,2.258729 17.030074,2.1865485 16.910504,2.1714649 16.706606,2.1434938 16.445726,2.1278131 Z m 76.185943,0.8605971 c 5.78e-4,3.39e-4 0.0096,0.00347 0.0096,0.00347 l 0.01146,0.00944 c -0.0097,-0.00616 -0.0106,-0.00645 -0.0209,-0.012945 z m -79.457612,0.022394 0.14734,0.2239841 c -0.01416,0.0025 -0.0236,0.00491 -0.03737,0.00751 L 13.123875,3.0428006 c -1.25e-4,1.04e-4 0.03073,-0.019225 0.05076,-0.031853 z m 79.544222,0.045299 0.08264,0.069687 -0.02235,0.1652507 c -0.06164,-0.014294 -0.127122,-0.028038 -0.198099,-0.041812 z m -75.680239,0.02041 c -3.56e-4,2.22e-5 -0.154717,0.048208 -0.278246,0.08661 -0.01483,-0.00183 -0.03448,-0.00308 -0.05028,-0.00501 0.0067,-0.00327 0.01483,-0.00905 0.02186,-0.011944 0.06357,-0.025659 0.120976,-0.041109 0.167238,-0.05077 0.09256,-0.019331 0.139672,-0.018936 0.139374,-0.018917 z m 9.684571,19.7190604 c -7.7e-5,5e-6 0.511772,0.105569 0.511675,0.105522 -9.6e-5,-4.7e-5 0.237032,0.167342 0.236926,0.167241 -9.6e-5,-9.9e-5 0.105643,0.117123 0.105527,0.11697 -1.15e-4,-1.53e-4 0.03968,0.05622 0.05278,0.07715 0.0261,0.04185 0.04045,0.06892 0.05076,0.09009 0.02061,0.04235 0.02813,0.06236 0.03381,0.07715 0.02254,0.05918 0.01377,0.04195 0.0096,0.02638 l -0.958153,0.279233 c 0.05529,0.189322 -0.01849,-0.137412 -0.04228,-0.517154 -0.0067,-0.100491 -0.0096,-0.295138 -0.01541,-0.41661 7.71e-4,-3e-4 0.01493,-0.006 0.01493,-0.006 z m 52.387387,0 c 0,0 0.01377,0.0052 0.01445,0.0055 -0.0058,0.121641 -0.0087,0.316497 -0.01541,0.417107 -0.02379,0.379743 -0.09751,0.706475 -0.04228,0.517155 l -0.957661,-0.279233 c -0.0048,0.01444 -0.01194,0.02916 0.0096,-0.02638 0.0058,-0.01478 0.0132,-0.03484 0.03381,-0.07715 0.01031,-0.02115 0.02264,-0.04826 0.04874,-0.09009 0.013,-0.02091 0.055,-0.0773 0.05471,-0.07715 -1.16e-4,1.53e-4 0.10363,-0.117069 0.103524,-0.11697 -1.06e-4,10e-5 0.239015,-0.167289 0.238919,-0.167242 -8.7e-5,4.7e-5 0.511762,-0.105516 0.511676,-0.105521 z m -48.425361,2.605683 c 0.02331,0.01033 0.0392,0.01587 0.08264,0.04181 0.03516,0.02099 0.141666,0.101799 0.141358,0.101539 -2.99e-4,-2.61e-4 0.235057,0.299375 0.234932,0.299143 -5.8e-5,-1.16e-4 0.09957,0.323643 0.09955,0.323533 0,-5.4e-5 -0.0077,0.100091 -0.01541,0.200092 -0.271234,-0.02222 -0.555385,-0.03916 -0.722238,-0.05426 z m 44.462835,0 0.1782,0.911864 c -0.166767,0.01508 -0.45087,0.0321 -0.721237,0.05426 -0.0077,-0.100011 -0.01589,-0.200146 -0.01589,-0.200092 -10e-6,1.1e-4 0.100104,-0.323649 0.100047,-0.323533 -1.16e-4,2.32e-4 0.23523,-0.299404 0.234931,-0.299143 -2.98e-4,2.6e-4 0.106202,-0.08054 0.141358,-0.101539 0.04344,-0.02595 0.05933,-0.03148 0.08264,-0.04181 z"
       sodipodi:nodetypes="ccccsscsssscssccsssccscssscccccccccccccccccsscssccsscccssssssscsscsscssssscsccccccscccccssssssscscsssccccscscccccsscsssssssscssccsscccccccssscscsssccccccccccccccscccssssscccccsccccsccccccssccssssccscccsssscccsssscc" /><path
       id="path8"
       style="fill:#ffffff;stroke:none;stroke-width:1.99669;stroke-dasharray:none"
       d="m 15.619417,3.1959473 c -0.09522,0.00951 -0.217508,0.098081 -0.317822,0.115173 -0.493587,-0.09238 -0.94142,-0.106995 -1.238865,-0.094607 -0.573438,0.023892 -0.886663,0.099755 -1.154542,0.1645321 -0.399961,0.096723 -0.638039,0.1985302 -0.898341,0.3023261 C 11.720197,3.6132325 11.44152,3.469481 11.1634,3.469481 c -1.116103,0 -1.4045813,0.1776945 -1.6961412,0.2735342 C 9.1757033,3.8388561 8.9822411,3.9219051 8.7959388,4.0062647 8.4233342,4.1749849 8.1035246,4.3481884 7.7743629,4.5389366 7.1160393,4.9204307 6.4845533,5.3291442 5.906339,5.8449061 5.266689,6.4154494 4.1502121,7.5997979 3.9539943,9.5592076 3.7577733,11.518617 3.7885944,14.886987 3.7885944,22.110915 v 13.468972 l 1.0637364,1.369726 c 1.1916102,1.535049 3.1121788,2.760148 5.5521852,3.486013 0.656753,0.19539 1.752226,0.396746 2.925274,0.462745 1.173049,0.066 2.740494,0.0932 5.604074,0.139852 3.456877,0.05633 9.599429,0.109291 13.741007,0.117228 l 4.199812,0.0083 v 43.358157 c 0,7.128002 0.0097,11.068483 0.05838,13.27359 0.02434,1.102558 0.05199,1.759348 0.113507,2.245872 0.03075,0.24325 0.05136,0.43078 0.175128,0.73628 0.06189,0.15274 0.138649,0.34257 0.402144,0.62521 0.220931,0.237 0.785207,0.54293 1.430206,0.76919 l -0.197828,0.42162 2.516644,-0.12135 c 0.249794,-0.0102 0.658658,0.0765 0.93077,0.0679 0.08206,-0.003 0.17202,-0.015 0.252961,-0.0185 v 0.13779 l 4.206299,-0.12957 v 0.0144 h 4.177111 0.418358 3.888475 0.295122 0.441061 3.784696 0.41836 4.212783 v -0.0679 c 0.01218,5.6e-4 0.03321,-0.005 0.04539,-0.004 l 2.536103,0.12548 -0.19783,-0.42573 c 0.644775,-0.22626 1.206078,-0.53225 1.426962,-0.76918 0.263495,-0.28265 0.340265,-0.47248 0.402147,-0.62522 0.123775,-0.3055 0.14437,-0.49303 0.175126,-0.73628 0.06151,-0.486523 0.0924,-1.143313 0.116756,-2.245871 0.04869,-2.205107 0.05513,-6.145588 0.05513,-13.27359 V 41.163907 l 4.203056,-0.0083 c 4.14158,-0.0079 10.280887,-0.0609 13.737766,-0.117229 2.863578,-0.04666 4.431023,-0.07386 5.604072,-0.139852 1.17305,-0.066 2.271762,-0.267355 2.928517,-0.462745 2.440008,-0.725866 4.357339,-1.950967 5.548935,-3.486014 l 1.06375,-1.369725 V 22.110916 c 0,-7.223928 0.0308,-10.592298 -0.1654,-12.5517072 C 101.68313,7.5998001 100.56989,6.4154505 99.930239,5.8449072 99.352017,5.3291442 98.717303,4.9204329 98.058975,4.5389376 97.729811,4.3481893 97.410001,4.174987 97.037396,4.0062656 96.851095,3.9219074 96.657634,3.8388554 96.366075,3.7430157 96.074517,3.6471754 95.786036,3.4694815 94.669934,3.4694815 c -0.277199,0 -0.554494,0.1441752 -0.843203,0.2138917 C 93.56628,3.5794891 93.325393,3.4778393 92.925149,3.381046 92.657271,3.3162589 92.344043,3.2404015 91.770604,3.2165137 c -0.297427,-0.012388 -0.742067,0.00226 -1.235617,0.094607 -0.696381,-0.1186256 -1.307261,-0.1116559 -1.605335,-0.074041 -0.510275,0.064403 -0.744357,0.1419453 -0.963201,0.2077216 -0.336436,0.1011238 -0.559555,0.1987418 -0.797802,0.3002694 -0.316418,-0.043203 -0.71088,-0.2338483 -0.927526,-0.228287 -0.584895,0.015012 -0.890806,0.091983 -1.128599,0.1501347 -0.475581,0.1163043 -0.68052,0.2116936 -0.888609,0.3002705 -0.416176,0.1771528 -0.727647,0.3445268 -1.063736,0.5367842 -0.672177,0.3845158 -1.331621,0.8046359 -1.932885,1.3409337 -0.748023,0.6673376 -1.692364,1.7490385 -1.910187,3.1384401 -0.217822,1.3894031 -0.172731,3.3174371 -0.136205,7.2805261 0.02085,2.265927 0.01495,4.110076 -0.013,5.435714 -0.01387,0.662818 -0.03448,1.196977 -0.05838,1.577447 -0.02388,0.380469 -0.098,0.709945 -0.04216,0.518275 -0.379068,1.300446 -1.646797,2.208228 -3.732806,2.618109 0.763057,-0.149936 -0.416785,0.02516 -1.404261,0.06375 -0.987477,0.03859 -2.244591,0.06697 -3.463631,0.08227 -0.699208,0.0087 -1.24078,0.0031 -1.858293,0.0021 -0.027,-3.522442 -0.04813,-8.283714 -0.08432,-9.450285 -0.02966,-0.956235 -0.03807,-1.300742 -0.132968,-1.721414 -0.03687,-0.163317 -0.150723,-0.37779 -0.236748,-0.53672 C 67.495875,13.035935 66.002016,11.371484 63.84424,10.019897 63.348862,9.7096003 62.891258,9.438056 62.488627,9.2178055 62.28731,9.1076768 62.112533,9.0130827 61.86595,8.9010818 61.742667,8.8450842 61.627962,8.7873195 61.304894,8.6851346 61.143364,8.6340467 60.949497,8.5614862 60.448715,8.4979804 60.198327,8.4662259 59.85682,8.4309077 59.336332,8.4774143 c -0.260242,0.023259 -0.893788,0.1641578 -0.895093,0.1645312 -1.04e-4,2.94e-5 -0.06659,0.027999 -0.07784,0.032908 -0.153244,-0.02732 -0.227119,-0.058837 -0.499436,-0.074041 -0.124008,-0.0069 -0.402393,0.105004 -0.574029,0.1110563 C 57.109219,8.6088217 56.96568,8.4194073 56.774291,8.321106 56.394722,8.1261484 56.023848,7.9487829 55.412182,7.7740342 55.106349,7.6866553 54.746359,7.585321 54.082512,7.5519159 53.711795,7.5332614 53.156873,7.5891346 52.580957,7.7226181 L 51.867475,7.5251796 50.722663,7.7390712 c -1.024769,0.191935 -1.178137,0.3427801 -1.543714,0.5100479 -0.36558,0.1672665 -0.7107,0.3488753 -1.057252,0.5635205 l -0.139443,0.086384 C 47.702109,8.776309 47.39604,8.6421681 47.395253,8.6419418 c -0.0013,-3.745e-4 -0.638094,-0.1412758 -0.89834,-0.1645323 -0.520485,-0.046506 -0.858747,-0.0112 -1.109136,0.020566 -0.500781,0.063509 -0.694646,0.1360618 -0.85618,0.1871542 -0.323069,0.1021872 -0.441009,0.1599484 -0.564298,0.2159483 -0.246584,0.1119953 -0.418116,0.2065972 -0.619432,0.3167225 -0.402635,0.2202506 -0.863481,0.491796 -1.358859,0.8020925 -2.159553,1.3527 -3.652513,3.018395 -4.310077,4.83723 -0.08587,0.159295 -0.200181,0.370575 -0.236748,0.53267 -0.0949,0.420672 -0.100053,0.76518 -0.12973,1.721414 -0.03618,1.166573 -0.06056,5.927839 -0.08756,9.450285 -0.617166,0.0011 -1.156364,0.0067 -1.855054,-0.0021 -1.21904,-0.01531 -2.479394,-0.04367 -3.466871,-0.08227 -0.987477,-0.03859 -2.167318,-0.213691 -1.40426,-0.06376 -2.086012,-0.40988 -3.353739,-1.317664 -3.732807,-2.618109 0.05584,0.191671 -0.01828,-0.137805 -0.04216,-0.518274 -0.02388,-0.380471 -0.04445,-0.914629 -0.05838,-1.577447 -0.02786,-1.325638 -0.03057,-3.169788 -0.0099,-5.435714 0.03653,-3.963089 0.08161,-5.891123 -0.136206,-7.2805252 C 26.30158,7.5939085 25.353997,6.5122076 24.605974,5.8448699 24.004709,5.3085711 23.345265,4.8884521 22.673087,4.5039374 22.336999,4.3116789 22.025528,4.144306 21.60935,3.9671521 21.401263,3.8785741 21.196325,3.7831858 20.720742,3.6668828 20.482951,3.6087357 20.177039,3.5317622 19.592143,3.5167469 19.375911,3.5112036 18.983555,3.7020333 18.66786,3.7450351 18.429466,3.6434248 18.203485,3.5459539 17.866815,3.4447645 17.647971,3.3789928 17.417133,3.3014423 16.906859,3.2370439 16.651723,3.2048481 16.185032,3.1396646 15.619348,3.1959111 Z m -1.861539,0.6745801 c -10e-7,1.2e-6 -0.0093,0.00996 -0.0099,0.010295 -0.0042,0.00305 -0.0086,0.0011 -0.013,0.00407 z m 78.320822,0 0.02269,0.014401 c -0.0042,-0.00305 -0.0086,-0.00112 -0.013,-0.00407 -2.95e-4,-3.009e-4 -0.0099,-0.010295 -0.0099,-0.010295 z M 17.114485,4.1193819 c -0.0068,0.00441 4.63e-4,0.00589 -0.0065,0.010295 -0.0052,0.00339 -0.01083,7.059e-4 -0.01629,0.00407 z m 71.604367,0 0.02595,0.014401 c -0.0065,-0.00396 -0.01316,-1.697e-4 -0.01946,-0.00407 -0.0068,-0.00441 5.65e-4,-0.00589 -0.0066,-0.010294 z M 37.215209,27.811937 c -2.34e-4,0.03514 -0.0031,0.04893 -0.0033,0.08433 -0.0025,2.48e-4 -0.08432,0.0083 -0.08432,0.0083 v -0.0021 c 0.02394,-0.04778 0.06211,-0.04659 0.08754,-0.09049 z m 31.406162,0.0021 c 0.02476,0.04284 0.06102,0.04193 0.08432,0.08843 l 0.0033,0.0021 c -10e-7,-5e-6 -0.08497,-0.008 -0.08754,-0.0083 -2.28e-4,-0.03452 2.29e-4,-0.04799 0,-0.08228 z M 45.670261,75.315318 C 45.5877,61.475877 45.500978,39.795426 45.47692,27.13654 l -0.04337,-14.046443 0.636483,-0.796588 c 0.350066,-0.438118 0.985924,-1.006513 1.413027,-1.263083 l 1.425364,-0.09245 -0.782769,0.07886 c -0.394697,0.03976 -0.04336,7.383676 0.06683,26.817602 0.110493,19.433922 0.231952,41.46035 0.269966,48.947616 l 0.06918,13.613226 -1.355824,0.0414 -1.355827,0.0414 z m 4.199314,6.309159 C 49.784342,71.261947 49.697319,49.064481 49.676531,32.296783 l -0.0383,-21.517018 0.774554,-0.479742 c 0.426004,-0.263856 0.98331,-0.5188476 1.238424,-0.5666299 l 0.699808,0.1936556 -0.09159,9.2424573 c 0.0793,10.170993 0.209676,32.623438 0.289568,49.894326 l 0.145225,31.401628 h -1.334838 -1.334857 z m 4.256722,14.735954 C 54.092432,94.102672 54.032737,85.403197 53.993545,77.028266 53.954943,68.653332 53.841779,48.065103 53.742882,31.276642 53.643981,14.488181 53.60805,9.6911041 53.6633,9.6534952 c 0.283923,-0.1937405 1.77218,0.5706058 2.206676,1.1334698 l 0.477861,0.619023 0.130076,13.76576 c 0.118209,12.504367 0.195423,34.561068 0.275312,49.014585 l 0.144927,26.279127 h -1.35511 -1.355173 z m 4.174396,1.403427 C 58.230603,96.277979 58.074383,74.18984 57.953478,48.679098 57.832597,23.168361 57.665397,11.116385 57.581853,10.93395 c -0.139573,-0.305028 -0.113442,-0.318621 0.327551,-0.168941 0.759855,0.257889 1.974579,1.546202 2.324643,2.465449 0.272045,0.714726 0.340383,-3.8939772 0.450834,19.870651 0.07157,15.39907 0.195421,36.855671 0.275608,47.681332 l 0.145225,19.683029 h -1.338748 -1.338749 z m -14.955578,2.526162 c 0.04486,-0.0965 0.192748,-21.660444 0.32877,-47.919909 0.242938,-46.8920414 0.255116,-38.790763 0.683912,-39.670876 0.239968,-0.492864 0.743609,-1.165017 1.119035,-1.493675 0.375457,-0.328667 0.63283,-0.629112 0.572034,-0.667669 -0.06089,-0.03855 -0.85085,0.393603 -1.755666,0.960365 -1.797453,1.125886 -2.982923,2.45845 -3.476197,3.907491 -0.195122,0.57297 -0.290159,-1.651701 -0.369606,17.204146 -0.05879,13.971088 -0.147017,-4.175482 -0.196013,-4.077459 -0.111354,0.222281 -9.506347,0.104394 -10.722289,-0.134532 -3.16415,-0.621724 -5.39402,-2.195831 -5.98563,-4.225422 -0.147897,-0.50763 -0.208189,-3.37158 -0.166316,-7.920175 0.07306,-7.9277826 0.08673,-7.8393516 -1.442724,-9.2038303 -0.698643,-0.623155 -2.340055,-1.5621106 -2.525319,-1.4446016 -0.05227,0.03249 0.08049,0.2700545 0.292239,0.5280971 0.356539,0.4344318 0.381635,1.2014068 0.338749,10.3632938 -0.03653,7.994916 0.01193,10.032594 0.256305,10.615433 0.622553,1.484005 2.585132,2.851679 4.804639,3.348282 1.069113,0.239222 4.158952,0.340658 10.568864,0.346853 l 4.481366,0.0043 v 0.429724 0.429721 l -7.247694,-0.04531 C 24.782991,31.573542 24.569336,31.550348 22.243713,30.467731 21.074812,29.923554 19.543316,28.604833 19.084317,27.747281 18.877907,27.36193 18.778503,24.615448 18.691189,16.891339 18.575059,6.6568217 18.569421,6.5472146 18.108431,6.1551464 17.664577,5.7778096 16.31288,5.1764337 16.15494,5.2861392 16.113081,5.3146583 16.044176,10.800831 15.99932,17.477622 l -0.08108,12.13962 0.637225,0.874937 c 0.739688,1.015636 2.294497,2.011994 3.851387,2.468121 0.960323,0.281326 1.443054,0.308741 6.023318,0.342123 2.738648,0.01989 6.921299,0.05152 9.294768,0.07017 l 4.315436,0.03389 0.06921,0.45611 0.06949,0.456116 H 31.67506 c -4.761041,0 -9.028692,-0.0621 -9.696064,-0.141085 -2.911175,-0.344543 -5.363285,-1.568534 -6.68371,-3.336136 L 14.590423,29.897916 14.548553,17.636995 C 14.521815,10.893487 14.459146,5.3470612 14.403328,5.3115984 14.188307,5.1753714 12.94397,5.7055806 12.452213,6.142845 l -0.51546,0.4582302 -0.14375,12.3501318 c -0.08465,7.273948 -0.06059,12.638552 0.05851,13.051845 0.465267,1.616756 1.976777,2.846957 4.373915,3.559762 l 1.243712,0.369825 11.286513,0.07017 11.28654,0.07017 v 0.421025 0.421028 l -11.175851,-0.04361 c -12.307334,-0.04803 -12.292632,-0.04709 -14.51487,-0.943278 -1.22913,-0.495687 -2.440829,-1.361265 -3.141817,-2.24441 -0.980011,-1.234606 -1.004188,-1.63586 -0.883461,-14.666718 0.110789,-11.9811942 0.127115,-12.3472852 0.55793,-12.8998154 0.244124,-0.3127552 0.37014,-0.5686654 0.280656,-0.5686654 -0.362299,0 -1.9165757,0.9007098 -2.5883421,1.499916 C 6.9871516,8.4660346 7.067963,7.6590603 7.067963,22.111829 v 12.984572 l 0.7260262,0.935266 c 0.8210322,1.057667 2.3793468,2.040218 4.0011298,2.522674 0.94672,0.281658 1.509639,0.313319 7.223253,0.406411 3.408068,0.05553 9.557576,0.107392 13.665534,0.115264 l 7.469013,0.01431 v 45.431167 c 0,14.253919 0.03387,15.781727 0.350062,15.858697 0.658787,0.16032 2.758133,0.0937 2.843428,-0.0902 z m 19.144318,0 C 62.444583,100.19356 62.296684,78.629576 62.160662,52.370111 61.917722,5.4780696 61.905545,13.579348 61.476751,12.699235 61.23678,12.206371 60.733141,11.534218 60.357717,11.20556 c -0.37546,-0.328667 -0.632832,-0.629112 -0.572037,-0.667669 0.06089,-0.03855 0.85085,0.393603 1.755665,0.960365 1.797452,1.125886 2.982925,2.45845 3.476198,3.907491 0.195124,0.57297 0.29016,-1.651701 0.369605,17.204146 0.0588,13.971088 0.147018,-4.175482 0.196016,-4.077459 0.111378,0.222281 9.506345,0.104394 10.722287,-0.134532 3.164149,-0.621724 5.394022,-2.195831 5.98563,-4.225422 0.147897,-0.50763 0.208191,-3.37158 0.166314,-7.920175 -0.07306,-7.9277826 -0.08674,-7.8393516 1.442725,-9.2038303 0.698646,-0.623155 2.340058,-1.5621106 2.525321,-1.4446016 0.05227,0.03249 -0.08049,0.2700545 -0.292239,0.5280971 -0.356539,0.4344318 -0.381636,1.2014068 -0.33875,10.3632938 0.03654,7.994916 -0.01193,10.032594 -0.256303,10.615433 -0.622554,1.484005 -2.585133,2.851679 -4.80464,3.348282 -1.069111,0.239222 -4.158953,0.340658 -10.568866,0.346853 l -4.481363,0.0043 v 0.429724 0.429721 l 7.247694,-0.04531 c 8.120582,-0.05077 8.334237,-0.07396 10.659861,-1.156582 1.168898,-0.544141 2.700395,-1.862863 3.159395,-2.720414 0.20641,-0.385353 0.305812,-3.131833 0.393127,-10.855943 0.116117,-10.2345179 0.121765,-10.344125 0.582758,-10.736192 0.443855,-0.3773369 1.795553,-0.9787129 1.953492,-0.8690073 0.04187,0.028519 0.110777,5.5146913 0.15562,12.1914823 l 0.08108,12.139619 -0.637225,0.874939 c -0.739688,1.015636 -2.294498,2.011992 -3.851387,2.468121 -0.960322,0.281325 -1.443052,0.30874 -6.023317,0.342122 -2.738648,0.01989 -6.921299,0.05152 -9.294767,0.07018 l -4.315437,0.03388 -0.06918,0.456112 -0.06949,0.456115 h 8.504028 c 4.761042,0 9.028693,-0.0621 9.696063,-0.141086 2.911173,-0.344542 5.363283,-1.568533 6.683707,-3.336136 l 0.70485,-0.943564 0.04189,-12.260923 c 0.02674,-6.743508 0.08939,-12.2899325 0.145223,-12.3253953 0.215021,-0.136227 1.459357,0.3939822 1.951115,0.8312466 l 0.51546,0.4582292 0.14375,12.3501335 c 0.08463,7.273946 0.06059,12.638552 -0.05851,13.051843 -0.465268,1.616757 -1.976776,2.846958 -4.373914,3.559763 l -1.243712,0.369825 -11.286512,0.07017 -11.286543,0.07017 v 0.421024 0.421029 L 76.96826,36.87144 C 89.275592,36.8234 89.26089,36.82435 91.483131,35.928151 92.712258,35.432465 93.923956,34.566886 94.624944,33.683742 95.604947,32.449136 95.62912,32.04788 95.508396,19.017024 95.397612,7.0357943 95.381264,6.6697034 94.950452,6.1171722 94.706324,5.8044181 94.580311,5.5485067 94.669794,5.5485067 c 0.362298,0 1.916576,0.9007098 2.58834,1.4999171 1.589286,1.4175894 1.508484,0.6106162 1.508484,15.0633842 v 12.984583 l -0.726025,0.935266 c -0.821037,1.057667 -2.379351,2.040218 -4.001135,2.522674 -0.946718,0.281658 -1.509637,0.313319 -7.223251,0.406412 -3.408068,0.05552 -9.557574,0.107391 -13.665534,0.115263 l -7.469012,0.01431 v 45.431168 c 0,14.253919 -0.03387,15.781726 -0.350064,15.858696 -0.658787,0.16032 -2.758131,0.0937 -2.843428,-0.0902 z" /><path
       id="path3"
       style="fill:#cc0033;fill-opacity:1;stroke-width:4.163"
       d="M 45.669691,75.356449 C 45.587167,61.517006 45.500405,39.836555 45.476346,27.177668 l -0.04332,-14.046441 0.636471,-0.796589 c 0.350076,-0.438117 0.985935,-1.006512 1.41304,-1.263082 l 0.776532,-0.46649 -0.133994,0.452905 c -0.07373,0.249099 -0.04333,7.383676 0.06675,26.817601 0.110419,19.433922 0.231952,41.460351 0.269977,48.947617 l 0.06924,13.613221 -1.355837,0.0414 -1.355821,0.0414 z m 4.199303,6.309158 C 49.783811,71.303076 49.696736,49.105611 49.675947,32.337912 l -0.03836,-21.517017 0.774559,-0.479741 c 0.426008,-0.263856 0.983311,-0.518848 1.238425,-0.5666304 l 0.463867,-0.086882 0.144298,9.5229954 c 0.07937,10.170994 0.209686,32.623439 0.28957,49.894327 l 0.145291,31.401626 H 51.358765 50.0239 Z m 4.256722,14.735954 C 54.091839,94.143802 54.03223,85.444326 53.993037,77.069395 53.954521,68.694462 53.841269,48.106233 53.742372,31.317772 53.643409,14.529311 53.607539,9.7322347 53.662841,9.6946257 c 0.283921,-0.1937404 1.772181,0.5706053 2.206675,1.1334703 l 0.477866,0.619022 0.130019,13.765759 c 0.118221,12.504367 0.195422,34.561069 0.275305,49.014584 l 0.144959,26.279129 h -1.355106 -1.355173 z m 4.174395,1.403426 C 58.230043,96.319109 58.073805,74.230969 57.952908,48.720228 57.832023,23.20949 57.664817,11.157515 57.581278,10.97508 c -0.139645,-0.305029 -0.11341,-0.318621 0.327545,-0.16894 0.75986,0.257889 1.974576,1.546201 2.324651,2.465449 0.272034,0.714725 0.34038,-3.8939776 0.450834,19.870649 0.07156,15.39907 0.195419,36.855672 0.275603,47.681331 L 61.105202,100.5066 H 59.766452 58.4277 Z M 43.34454,100.33115 c 0.04483,-0.0964 0.192747,-21.660445 0.328773,-47.91991 0.242926,-46.8920398 0.255113,-38.790762 0.683914,-39.670875 0.239968,-0.492865 0.743604,-1.165016 1.11902,-1.493674 0.375465,-0.328668 0.632837,-0.629113 0.572048,-0.667669 -0.06094,-0.03855 -0.850858,0.393603 -1.755678,0.960365 -1.797439,1.125886 -2.982911,2.45845 -3.476185,3.90749 -0.195123,0.572969 -0.290169,-1.651702 -0.369604,17.204146 -0.05878,13.971087 -0.146952,-4.175484 -0.196019,-4.077461 -0.111416,0.222282 -9.506353,0.104394 -10.722295,-0.13453 -3.164152,-0.621724 -5.394026,-2.195831 -5.985633,-4.225422 -0.147947,-0.50763 -0.208188,-3.371581 -0.166313,-7.920175 0.07305,-7.927782 0.08667,-7.8393511 -1.442729,-9.2038297 -0.69864,-0.6231551 -2.340045,-1.5621107 -2.525302,-1.4446017 -0.05231,0.03249 0.08052,0.2700544 0.292225,0.5280972 0.356552,0.4344318 0.381641,1.2014068 0.338752,10.3632942 -0.03653,7.994915 0.01157,10.032591 0.256309,10.61543 0.622557,1.484007 2.585129,2.85168 4.804643,3.348284 1.069107,0.239221 4.158954,0.340657 10.568851,0.346853 l 4.481365,0.0043 v 0.429723 0.42972 l -7.247685,-0.04531 C 24.78242,31.614671 24.568751,31.591477 22.243135,30.508861 21.074233,29.964685 19.542737,28.645963 19.083732,27.788412 18.877337,27.40306 18.777926,24.656579 18.690617,16.93247 18.574545,6.6979534 18.568908,6.5883463 18.107861,6.1962781 17.664001,5.8189413 16.312298,5.2175654 16.154354,5.3272709 16.112514,5.35579 16.043603,10.841963 15.998769,17.518753 l -0.08103,12.139618 0.637237,0.874939 c 0.739689,1.015636 2.2945,2.011992 3.851386,2.468121 0.960313,0.281325 1.443044,0.30874 6.023308,0.342122 2.738656,0.01989 6.921305,0.05152 9.294775,0.07017 l 4.315435,0.03388 0.06924,0.456111 0.06957,0.456116 h -8.504029 c -4.761038,0 -9.028685,-0.0621 -9.69606,-0.141086 -2.91118,-0.344542 -5.36329,-1.568534 -6.683709,-3.336135 L 14.589849,29.939047 14.54798,17.678125 C 14.521236,10.934619 14.45864,5.3881941 14.402684,5.3527311 14.187653,5.2165042 12.943332,5.7467134 12.451568,6.1839779 L 11.93611,6.6422081 11.792317,18.99234 c -0.08468,7.273945 -0.0606,12.638551 0.05846,13.051843 0.465261,1.616756 1.976768,2.846958 4.373915,3.559762 l 1.243708,0.369826 11.28652,0.07017 11.286538,0.07017 v 0.421025 0.421029 l -11.17585,-0.04362 c -12.307347,-0.04804 -12.292636,-0.04708 -14.514887,-0.94328 -1.229129,-0.495687 -2.44082,-1.361266 -3.141803,-2.24441 -0.980024,-1.234606 -1.0042,-1.635862 -0.883467,-14.666717 0.110751,-11.9811946 0.127187,-12.3472855 0.557933,-12.8998157 0.244122,-0.3127541 0.370135,-0.5686655 0.280652,-0.5686655 -0.362297,0 -1.9165761,0.9007098 -2.588334,1.499916 C 6.9864001,8.5071573 7.0672137,7.7001829 7.0672137,22.152951 v 12.984594 l 0.726023,0.935265 c 0.8210341,1.057667 2.3793483,2.040218 4.0011263,2.522675 0.946732,0.281657 1.509646,0.313318 7.22326,0.40641 3.408059,0.05552 9.557578,0.107391 13.665539,0.115264 l 7.469009,0.01431 v 45.431169 c 0,14.253912 0.03388,15.781722 0.35006,15.858692 0.65879,0.16033 2.758134,0.0937 2.843432,-0.0902 z m 19.144312,0 C 62.444019,100.23469 62.296105,78.670705 62.160079,52.41124 61.917136,5.5192002 61.904966,13.620478 61.476168,12.740365 61.236196,12.2475 60.73256,11.575349 60.357147,11.246691 59.98168,10.918023 59.724308,10.617578 59.785099,10.579022 c 0.06093,-0.03855 0.850856,0.393603 1.755677,0.960365 1.797438,1.125886 2.982912,2.45845 3.476187,3.90749 0.19512,0.572969 0.290166,-1.651702 0.369603,17.204146 0.05878,13.971087 0.146951,-4.175484 0.196017,-4.077461 0.111417,0.222282 9.506353,0.104394 10.722296,-0.13453 3.164151,-0.621724 5.394024,-2.195831 5.985633,-4.225422 0.147947,-0.50763 0.208187,-3.371581 0.166311,-7.920175 -0.07307,-7.927782 -0.08667,-7.8393511 1.442714,-9.2038297 0.698655,-0.6231551 2.340062,-1.5621107 2.525318,-1.4446017 0.05231,0.03249 -0.08052,0.2700544 -0.292224,0.5280972 -0.356551,0.4344318 -0.381642,1.2014068 -0.338751,10.3632942 0.03653,7.994915 -0.01157,10.032591 -0.25631,10.61543 -0.622559,1.484007 -2.585131,2.85168 -4.804643,3.348284 -1.069107,0.239221 -4.158953,0.340657 -10.568852,0.346853 l -4.481364,0.0043 v 0.429723 0.42972 l 7.247685,-0.04531 c 8.120576,-0.05077 8.334246,-0.07396 10.659862,-1.156579 1.168903,-0.544142 2.7004,-1.862864 3.159402,-2.720416 0.206396,-0.385353 0.305807,-3.131833 0.393115,-10.855942 0.116068,-10.2345172 0.121716,-10.3441244 0.582759,-10.7361914 0.443858,-0.3773369 1.79556,-0.9787128 1.953504,-0.8690072 0.04184,0.028519 0.110751,5.5146916 0.155586,12.1914816 l 0.08103,12.139619 -0.637238,0.874937 c -0.739687,1.015637 -2.294496,2.011993 -3.851383,2.468122 -0.960315,0.281326 -1.443047,0.308741 -6.02331,0.342124 -2.738656,0.01989 -6.921305,0.05152 -9.294775,0.07017 l -4.315435,0.03388 -0.06924,0.456111 -0.06941,0.456116 h 8.504029 c 4.761038,0 9.028685,-0.0621 9.696059,-0.141085 2.91118,-0.344543 5.36329,-1.568535 6.683709,-3.336137 l 0.704851,-0.943565 0.04184,-12.260921 c 0.02675,-6.743508 0.08934,-12.2899325 0.145293,-12.3253954 0.215028,-0.1362269 1.459349,0.3939823 1.951113,0.8312468 l 0.515457,0.4582302 0.143792,12.3501304 c 0.08468,7.273947 0.0606,12.638552 -0.05846,13.051845 -0.465262,1.616754 -1.976767,2.846956 -4.373918,3.559763 l -1.243705,0.369823 -11.286522,0.07017 -11.286537,0.07017 v 0.421026 0.421028 l 11.17585,-0.04362 c 12.307344,-0.04804 12.292632,-0.04709 14.514883,-0.943291 1.229128,-0.495686 2.44082,-1.361264 3.141803,-2.24441 0.980036,-1.23463 1.004213,-1.635884 0.88348,-14.666741 C 95.397138,7.076926 95.380864,6.7108351 94.949958,6.1583049 94.705836,5.8455498 94.579825,5.5896384 94.669306,5.5896384 c 0.362297,0 1.916576,0.9007098 2.588336,1.4999171 1.589297,1.4175893 1.508485,0.6106161 1.508485,15.0633835 v 12.984606 l -0.726026,0.935265 c -0.821033,1.057667 -2.379348,2.040218 -4.001125,2.522675 -0.946731,0.281657 -1.509645,0.313318 -7.223259,0.40641 -3.408058,0.05552 -9.557579,0.107391 -13.665538,0.115264 l -7.469011,0.01431 v 45.431169 c 0,14.253912 -0.03388,15.781722 -0.350059,15.858692 -0.65879,0.16033 -2.758133,0.0937 -2.843433,-0.0902 z"
       sodipodi:nodetypes="cccsscscsccccsccssccscccsscscscsccccscscscsccccccscssscscsscccsccsscccssccccccsscccccssscccccscscccccsssccssscsssscsccccscssssscsssccsccsscccssccccccsscccccssscccccscscccccsssccssscsssscsccc" /></g></svg>
