<?xml version="1.0" encoding="UTF-8" standalone="no"?>
<!-- Created with Inkscape (http://www.inkscape.org/) -->

<svg
   width="105.83334mm"
   height="105.83334mm"
   viewBox="0 0 105.83333 105.83333"
   version="1.1"
   id="svg1"
   xml:space="preserve"
   inkscape:version="1.4 (e7c3feb100, 2024-10-09)"
   sodipodi:docname="tucson.svg"
   inkscape:export-filename="../pngs/charlotte.png"
   inkscape:export-xdpi="96"
   inkscape:export-ydpi="96"
   xmlns:inkscape="http://www.inkscape.org/namespaces/inkscape"
   xmlns:sodipodi="http://sodipodi.sourceforge.net/DTD/sodipodi-0.dtd"
   xmlns="http://www.w3.org/2000/svg"
   xmlns:svg="http://www.w3.org/2000/svg"><sodipodi:namedview
     id="namedview1"
     pagecolor="#ffffff"
     bordercolor="#000000"
     borderopacity="0.25"
     inkscape:showpageshadow="2"
     inkscape:pageopacity="0.0"
     inkscape:pagecheckerboard="0"
     inkscape:deskcolor="#d1d1d1"
     inkscape:document-units="mm"
     inkscape:zoom="0.93104429"
     inkscape:cx="286.23772"
     inkscape:cy="51.555012"
     inkscape:window-width="1920"
     inkscape:window-height="1011"
     inkscape:window-x="0"
     inkscape:window-y="32"
     inkscape:window-maximized="1"
     inkscape:current-layer="layer1"
     showgrid="false"
     showguides="true" /><defs
     id="defs1" /><g
     inkscape:label="Capa 1"
     inkscape:groupmode="layer"
     id="layer1"><g
       id="g11"
       transform="matrix(0.96319035,0,0,0.96319035,-65.605682,54.322527)"><path
         id="path9"
         style="fill:#003366;fill-opacity:1;stroke:#003366;stroke-width:2.6;stroke-dasharray:none;stroke-opacity:1"
         d="m 85.187766,-54.189309 c -0.27086,-0.01628 -0.6009,-0.01985 -0.9617,0.01602 l 5.1e-4,5.17e-4 c -0.23448,0.02347 -0.28778,0.06965 -0.36121,0.107487 -0.44788,-0.05922 -0.89173,-0.102566 -1.19528,-0.08992 -0.67085,0.02795 -1.12054,0.131774 -1.39836,0.198954 -0.33527,0.08108 -0.52835,0.164064 -0.74259,0.246497 -0.18462,-0.0755 -0.35066,-0.183968 -0.82579,-0.183968 -1.26876,0 -1.95186,0.291743 -2.08618,0.335896 -0.34225,0.112499 -0.59431,0.219288 -0.80047,0.312643 -0.42666,0.193192 -0.79415,0.393921 -1.15238,0.601513 -0.71256,0.412923 -1.43237,0.874514 -2.10944,1.478463 -0.74874,0.667838 -2.12885,2.146403 -2.36729,4.527372 -0.21653,2.162189 -0.17778,5.638063 -0.17777,13.135116 v 14.337626 l 1.3224,1.703255 c 1.40415,1.80884 3.59067,3.174398 6.28696,3.976502 0.79725,0.237189 1.97546,0.448285 3.27525,0.521415 1.25364,0.07053 2.88616,0.09832 5.85959,0.146761 3.59839,0.05863 9.97457,0.114736 14.281304,0.12299 l 3.32434,0.0057 v 43.980262 c 0,7.401352 0.0115,11.491292 0.0625,13.804842 0.0255,1.152915 0.051,1.855677 0.12454,2.437577 0.0308,0.244019 0.0812,0.608372 0.25011,1.02526 0.0644,0.158972 0.25672,0.576091 0.61909,0.964799 0.24983,0.267994 0.60762,0.349298 0.90227,0.50798 l -0.53279,1.140499 4.32429,-0.208773 c -0.004,1.66e-4 0.13257,0.0083 0.15038,0.01188 v 0.216525 l 4.92941,-0.152446 h 4.81056 0.43357 4.03696 0.30696 0.45682 3.92999 0.43511 5.41053 v -0.02325 l 3.30626,0.161747 -0.53124,-1.142566 c 0.29508,-0.159253 0.65376,-0.242415 0.90279,-0.50953 0.36291,-0.389302 0.55502,-0.808724 0.61908,-0.966866 0.16892,-0.416915 0.21876,-0.779289 0.2496,-1.023193 0.0731,-0.577597 0.10364,-1.284746 0.12919,-2.439644 0.0512,-2.31466 0.0584,-6.403818 0.0584,-13.804842 v -43.980274 l 3.32847,-0.0057 c 4.30676,-0.0082 10.67879,-0.06487 14.27717,-0.123507 2.97342,-0.04845 4.60597,-0.07572 5.85959,-0.146244 1.29969,-0.07312 2.48073,-0.283961 3.27887,-0.521415 2.69652,-0.802176 4.87976,-2.168377 6.28334,-3.976502 l 1.3224,-1.703255 v -14.338127 c 0,-7.497053 0.0388,-10.97241 -0.17777,-13.134599 -0.23832,-2.379843 -1.61312,-3.858377 -2.36316,-4.527372 -0.67851,-0.605222 -1.40227,-1.066274 -2.11357,-1.478463 -0.35822,-0.207593 -0.72728,-0.408321 -1.15393,-0.601513 -0.20616,-0.09335 -0.45874,-0.200142 -0.80099,-0.312643 -0.13431,-0.04415 -0.81533,-0.335896 -2.08411,-0.335896 -0.47658,0 -0.64157,0.108123 -0.82424,0.183451 -0.2157,-0.08259 -0.40938,-0.165023 -0.74414,-0.24598 -0.27786,-0.0672 -0.72751,-0.171008 -1.39836,-0.198954 -0.34387,-0.01432 -0.83036,0.02023 -1.35341,0.103353 -0.71513,-0.101858 -1.34898,-0.129022 -1.7694,-0.07596 -0.59327,0.07487 -0.96114,0.189371 -1.1684,0.251665 -0.25484,0.0766 -0.40906,0.147311 -0.58963,0.220658 -0.0575,-0.01629 -0.0703,-0.01675 -0.14625,-0.04082 -0.17933,-0.05683 -0.35108,-0.15941 -0.78341,-0.148312 -0.68882,0.01768 -1.14949,0.126555 -1.39061,0.185519 -0.55405,0.135493 -0.88923,0.281851 -1.08418,0.364835 -0.47708,0.203076 -0.84939,0.403418 -1.21284,0.611332 -0.72671,0.415708 -1.47675,0.889341 -2.18126,1.517737 -0.86843,0.774757 -2.03226,2.05705 -2.31666,3.871082 -0.25227,1.609079 -0.19238,3.618947 -0.15451,7.728727 0.0215,2.345567 0.0153,4.253976 -0.0134,5.613094 -0.0142,0.67832 -0.0356,1.222024 -0.0589,1.593701 -0.008,0.128271 -0.0246,0.252314 -0.0388,0.357601 -0.26308,0.821097 -1.10879,1.494848 -2.87114,1.882573 -0.0384,0.0033 -0.0726,0.0056 -0.1173,0.0098 -0.34241,0.03165 -0.8879,0.08353 -1.35548,0.101803 -1.01073,0.03949 -2.30976,0.06998 -3.56825,0.08578 -0.33178,0.0041 -0.60217,2.46e-4 -0.89039,0 -0.0239,-3.456727 -0.0429,-7.653398 -0.0786,-8.80463 -0.0307,-0.991114 -0.0393,-1.44188 -0.16174,-1.984375 -0.0819,-0.362708 -0.20231,-0.536933 -0.29508,-0.699182 -0.7889,-2.159972 -2.51133,-4.037474 -4.88652,-5.525244 -0.52712,-0.33018 -1.01828,-0.623459 -1.46089,-0.865581 -0.21136,-0.115621 -0.42701,-0.230323 -0.7152,-0.361218 -0.10406,-0.04727 -0.32394,-0.150548 -0.69919,-0.269234 -0.126,-0.03985 -0.48566,-0.160481 -1.07022,-0.234611 -0.28149,-0.0357 -0.75042,-0.08133 -1.37717,-0.02532 -0.24564,0.02196 -0.46679,0.06746 -0.67748,0.109554 -0.15154,0.03028 -0.23974,0.05201 -0.32039,0.07028 -0.11155,-0.02134 -0.17225,-0.04313 -0.38086,-0.05478 -0.27768,-0.01553 -0.31366,0.02614 -0.39843,0.05633 -0.086,-0.08057 -0.0453,-0.09493 -0.31625,-0.234094 -0.41089,-0.211042 -0.89675,-0.440939 -1.60352,-0.642855 -0.32057,-0.09159 -0.83782,-0.228143 -1.61334,-0.267167 -0.4421,-0.02225 -0.97148,0.06079 -1.50999,0.163814 l -0.79685,-0.220658 -1.42368,0.265616 h -0.002 c -1.14212,0.213915 -1.57685,0.485998 -1.84175,0.607198 -0.29475,0.134862 -0.57934,0.298848 -0.86506,0.460954 -0.03,-0.01315 -0.0655,-0.02757 -0.0863,-0.03669 -0.0173,-0.0076 -0.0311,-0.01332 -0.0408,-0.01757 -0.005,-0.0021 -0.009,-0.0048 -0.0119,-0.0062 -0.002,-7e-4 -0.002,-0.0011 -0.004,-0.0021 l -0.0372,-0.0155 c 0,0 -0.14392,-0.04224 -0.14676,-0.04289 -0.003,-6.49e-4 -0.004,-0.0017 -0.006,-0.0021 -0.003,-6.32e-4 -0.005,-0.0014 -0.008,-0.0021 -0.006,-0.0014 -0.0132,-0.0034 -0.0233,-0.0057 -0.0204,-0.0044 -0.0487,-0.01012 -0.0837,-0.01757 -0.0699,-0.0149 -0.16609,-0.03581 -0.27182,-0.05684 -0.21145,-0.04206 -0.43223,-0.08764 -0.67748,-0.109554 -0.62633,-0.05596 -1.09257,-0.0097 -1.37304,0.02584 -0.58454,0.07413 -0.94623,0.194222 -1.07229,0.234094 -0.37333,0.118087 -0.59096,0.219661 -0.70124,0.269751 -0.29132,0.132313 -0.50591,0.247858 -0.71314,0.361218 -0.44056,0.240997 -0.93411,0.533805 -1.46296,0.865064 -2.37963,1.490553 -4.10349,3.370693 -4.89014,5.535063 -0.0903,0.156411 -0.20909,0.324717 -0.29146,0.68988 -0.12344,0.547319 -0.1295,0.993506 -0.16019,1.982308 -0.0357,1.149785 -0.0557,5.349297 -0.0801,8.806697 -0.28709,2.49e-4 -0.55527,0.0042 -0.88625,0 -1.25853,-0.0158 -2.56177,-0.0468 -3.57239,-0.0863 -0.46758,-0.01827 -1.01307,-0.06963 -1.355484,-0.101286 -0.0446,-0.0041 -0.0788,-0.0064 -0.1173,-0.0098 -1.76235,-0.387724 -2.60805,-1.061993 -2.87114,-1.88309 -0.0141,-0.105289 -0.0312,-0.228858 -0.0393,-0.357084 -0.0233,-0.371503 -0.0441,-0.9152 -0.0584,-1.593701 -0.0285,-1.357532 -0.031,-3.267051 -0.01,-5.613611 0.0378,-4.109782 0.0977,-6.119164 -0.15451,-7.72821 -0.28451,-1.815611 -1.45296,-3.097316 -2.32028,-3.871082 -0.70452,-0.628402 -1.45662,-1.102034 -2.18332,-1.517737 -0.36346,-0.207919 -0.73629,-0.408257 -1.21337,-0.611332 -0.19494,-0.08298 -0.52753,-0.22986 -1.08159,-0.365352 -0.2411,-0.05896 -0.70178,-0.167836 -1.39061,-0.185519 -0.43311,-0.01119 -0.60486,0.09146 -0.78341,0.148312 -0.076,0.0242 -0.0891,0.02509 -0.14625,0.04134 -0.18131,-0.07316 -0.33725,-0.144647 -0.59014,-0.220658 -0.20457,-0.06148 -0.57202,-0.177242 -1.16582,-0.252181 -0.12414,-0.01566 -0.33583,-0.0447 -0.60668,-0.06098 z m 79.097494,0.893486 c 6e-4,3.52e-4 0.01,0.0036 0.01,0.0036 l 0.0119,0.0098 c -0.0101,-0.0064 -0.011,-0.0067 -0.0217,-0.01344 z m -82.494194,0.02325 0.15297,0.232544 c -0.0147,0.0026 -0.0245,0.0051 -0.0388,0.0078 l -0.16692,-0.207223 c -1.3e-4,1.08e-4 0.0319,-0.01996 0.0527,-0.03307 z m 82.584114,0.04703 0.0858,0.07235 -0.0232,0.171566 c -0.064,-0.01484 -0.13198,-0.02911 -0.20567,-0.04341 z m -78.572464,0.02119 c -3.7e-4,2.3e-5 -0.16063,0.05005 -0.28888,0.08992 -0.0154,-0.0019 -0.0358,-0.0032 -0.0522,-0.0052 0.007,-0.0034 0.0154,-0.0094 0.0227,-0.0124 0.066,-0.02664 0.1256,-0.04268 0.17363,-0.05271 0.0961,-0.02007 0.14501,-0.01966 0.1447,-0.01964 z m 10.05468,20.472652 c -8e-5,5e-6 0.53133,0.109603 0.53123,0.109554 -1e-4,-4.9e-5 0.24609,0.173737 0.24598,0.173633 -1e-4,-1.03e-4 0.10968,0.121599 0.10956,0.12144 -1.2e-4,-1.59e-4 0.0412,0.05837 0.0548,0.0801 0.0271,0.04345 0.042,0.07155 0.0527,0.09353 0.0214,0.04397 0.0292,0.06474 0.0351,0.0801 0.0234,0.06144 0.0143,0.04355 0.01,0.02739 l -0.99477,0.289904 c 0.0574,0.196557 -0.0192,-0.142663 -0.0439,-0.536918 -0.007,-0.104331 -0.01,-0.306417 -0.016,-0.432531 8e-4,-3.12e-4 0.0155,-0.0062 0.0155,-0.0062 z m 54.389444,0 c 0,0 0.0143,0.0054 0.015,0.0057 -0.006,0.12629 -0.009,0.328593 -0.016,0.433048 -0.0247,0.394255 -0.10124,0.733474 -0.0439,0.536918 l -0.99426,-0.289904 c -0.005,0.01499 -0.0124,0.03027 0.01,-0.02739 0.006,-0.01534 0.0137,-0.03617 0.0351,-0.0801 0.0107,-0.02196 0.0235,-0.0501 0.0506,-0.09353 0.0135,-0.02171 0.0571,-0.08026 0.0568,-0.0801 -1.2e-4,1.59e-4 0.10759,-0.121543 0.10748,-0.12144 -1.1e-4,1.04e-4 0.24815,-0.173682 0.24805,-0.173633 -9e-5,4.9e-5 0.53132,-0.109549 0.53123,-0.109554 z m -50.276004,2.705262 c 0.0242,0.01072 0.0407,0.01648 0.0858,0.04341 0.0365,0.02179 0.14708,0.10569 0.14676,0.10542 -3.1e-4,-2.71e-4 0.24404,0.310816 0.24391,0.310575 -6e-5,-1.21e-4 0.10337,0.336011 0.10335,0.335897 0,-5.6e-5 -0.008,0.103916 -0.016,0.207739 -0.2816,-0.02307 -0.576606,-0.04066 -0.749836,-0.05633 z m 46.162044,0 0.18501,0.946712 c -0.17314,0.01566 -0.4681,0.03333 -0.7488,0.05633 -0.008,-0.103833 -0.0165,-0.207795 -0.0165,-0.207739 -1e-5,1.14e-4 0.10393,-0.336018 0.10387,-0.335897 -1.2e-4,2.41e-4 0.24422,-0.310846 0.24391,-0.310575 -3.1e-4,2.7e-4 0.11026,-0.08362 0.14676,-0.10542 0.0451,-0.02694 0.0616,-0.03268 0.0858,-0.04341 z"
         sodipodi:nodetypes="ccccsscsssscssccsssccscssscccccccccccccccccsscssccsscccssssssscsscsscssssscsccccccscccccssssssscscsssccccscscccccsscsssssssscssccsscccccccssscscsssccccccccccccccscccssssscccccsccccsccccccssccssssccscccsssscccsssscc" /><g
         id="g10"
         transform="translate(70.288625,-54.803123)"><path
           id="path8"
           style="fill:#ff0000;stroke:none;stroke-width:2.073;stroke-dasharray:none"
           d="m 14.040603,1.7226704 c -0.09886,0.00987 -0.22582,0.101829 -0.329968,0.1195745 -0.51245,-0.09591 -0.977397,-0.111084 -1.28621,-0.098223 -0.595352,0.024805 -0.920548,0.1035671 -1.198664,0.17082 C 10.810515,2.0152615 10.563339,2.1209592 10.293089,2.2287218 9.9923689,2.1559028 9.703042,2.0066571 9.4142932,2.0066571 c -1.1587556,0 -1.458259,0.1844854 -1.7609612,0.2839877 C 7.3506343,2.3901488 7.1497787,2.4763717 6.9563565,2.5639552 6.5695123,2.7391233 6.2374808,2.918946 5.8957397,3.1169839 5.2122574,3.5130573 4.5566383,3.9373904 3.9563267,4.4728628 3.2922316,5.0652102 2.133087,6.2948202 1.9293705,8.3291115 1.7256506,10.363402 1.7576496,13.860499 1.7576496,21.3605 v 13.983707 l 1.1043885,1.422072 c 1.2371492,1.593713 3.231115,2.865631 5.7643698,3.619236 0.6818518,0.202857 1.8191891,0.411908 3.0370671,0.480429 1.217879,0.06852 2.845226,0.09676 5.818242,0.145197 3.588986,0.05848 9.966284,0.113468 14.266138,0.121708 l 4.360314,0.0086 v 45.015148 c 0,7.400409 0.01011,11.491481 0.06061,13.780859 0.02527,1.144694 0.05398,1.826584 0.117845,2.331694 0.03193,0.25255 0.05332,0.44725 0.18182,0.76442 0.06425,0.15858 0.143948,0.35566 0.417513,0.64911 0.229374,0.24605 0.815215,0.56367 1.484863,0.79858 l -0.205388,0.43773 2.612821,-0.12598 c 0.25934,-0.0106 0.683829,0.0794 0.966341,0.0705 0.0852,-0.003 0.178594,-0.0156 0.262628,-0.0192 v 0.14306 l 4.367048,-0.13452 v 0.0149 h 4.336745 0.434347 4.037078 0.306401 0.457916 3.929334 0.434348 4.37378 v -0.0705 c 0.01265,5.8e-4 0.03448,-0.005 0.04713,-0.004 l 2.633024,0.13027 -0.205391,-0.442 c 0.669416,-0.23491 1.25217,-0.55259 1.481496,-0.79858 0.273565,-0.29345 0.353268,-0.49053 0.417515,-0.64911 0.128506,-0.31717 0.149888,-0.51187 0.181819,-0.76442 0.06386,-0.50511 0.09593,-1.187 0.121218,-2.331693 0.05055,-2.289379 0.05724,-6.380451 0.05724,-13.780859 v -45.01523 l 4.363682,-0.0086 c 4.299856,-0.0082 10.673785,-0.06323 14.262773,-0.12171 2.973014,-0.04844 4.600361,-0.07668 5.81824,-0.145196 1.217879,-0.06852 2.35858,-0.277572 3.040434,-0.48043 2.533256,-0.753606 4.523861,-2.025525 5.761001,-3.619236 l 1.1044,-1.422071 V 21.360501 c 0,-7.500001 0.032,-10.997098 -0.17172,-13.0313883 -0.20372,-2.0342902 -1.3595,-3.2639013 -2.0236,-3.8562487 -0.60032,-0.5354736 -1.25929,-0.9598044 -1.942777,-1.3558791 -0.341743,-0.198038 -0.673775,-0.3778595 -1.06062,-0.5530288 -0.193421,-0.087582 -0.394275,-0.173808 -0.696977,-0.2733103 -0.3027,-0.099503 -0.602205,-0.2839877 -1.760961,-0.2839877 -0.287792,0 -0.575685,0.149685 -0.875427,0.2220658 -0.270405,-0.1078541 -0.520497,-0.2133886 -0.936037,-0.313881 -0.278116,-0.067263 -0.603314,-0.1460194 -1.198668,-0.1708201 -0.308793,-0.012861 -0.770426,0.00235 -1.282838,0.098223 -0.722994,-0.123159 -1.357219,-0.115923 -1.666685,-0.076871 -0.529776,0.066864 -0.772803,0.14737 -1.000011,0.21566 -0.349293,0.1049884 -0.580939,0.206337 -0.828291,0.3117446 -0.32851,-0.044854 -0.738047,-0.2427851 -0.962973,-0.2370113 -0.607247,0.015586 -0.924849,0.095498 -1.171729,0.1558723 -0.493756,0.120749 -0.706527,0.2197838 -0.922569,0.3117458 -0.432081,0.1839229 -0.755455,0.3576933 -1.104388,0.5572981 -0.697865,0.3992106 -1.382511,0.8353862 -2.006753,1.3921793 -0.77661,0.6928409 -1.75704,1.8158805 -1.983187,3.25838 -0.226147,1.4425006 -0.179333,3.4442174 -0.141411,7.5587614 0.02165,2.352522 0.01552,4.267148 -0.0135,5.643447 -0.0144,0.688149 -0.0358,1.242721 -0.06061,1.637732 -0.02479,0.395009 -0.101743,0.737076 -0.04377,0.538081 -0.393554,1.350144 -1.709731,2.292619 -3.87546,2.718164 0.792218,-0.155666 -0.432713,0.02612 -1.457927,0.06619 -1.025215,0.04006 -2.330371,0.06953 -3.595998,0.08542 -0.725929,0.009 -1.288198,0.0032 -1.929311,0.0022 -0.02803,-3.657057 -0.04997,-8.600288 -0.08754,-9.811441 -0.03079,-0.992779 -0.03952,-1.350452 -0.138049,-1.7872 C 68.79073,14.21301 68.672528,13.990341 68.583216,13.825337 67.899592,11.938707 66.348643,10.210647 64.108405,8.8074066 63.594095,8.4852516 63.119003,8.2033299 62.700985,7.9746622 62.491974,7.8603248 62.310518,7.7621157 62.054512,7.6458345 61.926517,7.5876969 61.807429,7.5277246 61.472014,7.4216346 61.304311,7.3685943 61.103035,7.2932608 60.583115,7.227328 60.323158,7.19436 59.9686,7.157692 59.428221,7.205976 c -0.270188,0.024148 -0.927946,0.1704313 -0.9293,0.1708189 -1.08e-4,3.06e-5 -0.06913,0.029069 -0.08081,0.034166 C 58.25901,7.3825969 58.182312,7.3498749 57.899588,7.3340899 57.770841,7.3269299 57.481817,7.4431068 57.303622,7.4493903 57.115995,7.3424053 56.966971,7.1457521 56.768268,7.0436941 56.374193,6.8412859 55.989146,6.6571422 55.354104,6.4757152 55.036583,6.384997 54.662836,6.2797901 53.973619,6.2451084 53.588734,6.2257409 53.012605,6.2837494 52.41468,6.4223342 L 51.673931,6.2173503 50.485368,6.4394161 c -1.063932,0.19927 -1.223161,0.3558799 -1.602709,0.52954 -0.379551,0.1736589 -0.73786,0.3622081 -1.097656,0.5850562 l -0.144772,0.089685 C 47.34938,7.5162933 47.031614,7.377026 47.030797,7.3767911 47.029442,7.3764023 46.368317,7.2301163 46.098126,7.205971 45.557749,7.1576873 45.20656,7.1943434 44.946602,7.2273233 44.426683,7.2932596 44.22541,7.3685849 44.057702,7.4216299 43.722287,7.5277223 43.59984,7.587691 43.471839,7.645831 c -0.256008,0.1162753 -0.434095,0.2144926 -0.643105,0.3288265 -0.418022,0.2286677 -0.89648,0.5105906 -1.410789,0.8327448 -2.242084,1.4043957 -3.792099,3.1337477 -4.474793,5.0220917 -0.08915,0.165383 -0.207831,0.384737 -0.245795,0.553027 -0.09853,0.436748 -0.103877,0.794422 -0.134688,1.7872 -0.03756,1.211155 -0.06288,6.15438 -0.09091,9.811441 -0.640751,0.0011 -1.200556,0.007 -1.925947,-0.0022 -1.265627,-0.01589 -2.574148,-0.04534 -3.599362,-0.08541 -1.025215,-0.04006 -2.250145,-0.221858 -1.457926,-0.0662 -2.165732,-0.425544 -3.481907,-1.36802 -3.875461,-2.718164 0.05797,0.198996 -0.01898,-0.143071 -0.04377,-0.53808 -0.02479,-0.395011 -0.04615,-0.949583 -0.06061,-1.637732 -0.02892,-1.376299 -0.03174,-3.290925 -0.01023,-5.643447 0.03793,-4.114544 0.08473,-6.1162606 -0.141411,-7.55876 C 25.131,6.2887058 24.147204,5.1656662 23.370594,4.4728252 22.746351,3.916031 22.061705,3.4798566 21.363839,3.0806471 21.014907,2.8810412 20.691533,2.7072719 20.25945,2.5233479 20.043411,2.4313847 19.830641,2.332351 19.336883,2.2116033 19.090004,2.1512341 18.772401,2.0713189 18.165153,2.0557298 17.940657,2.0499747 17.533307,2.2480972 17.205547,2.2927423 16.958042,2.1872489 16.723425,2.086053 16.373889,1.9809965 16.146681,1.9127112 15.907022,1.832197 15.377247,1.7653376 15.11236,1.7319114 14.627834,1.6642368 14.040532,1.7226328 Z m -1.93268,0.7003601 c -10e-7,1.2e-6 -0.0097,0.010336 -0.01023,0.010688 -0.0044,0.00317 -0.0089,0.00114 -0.0135,0.00423 z m 81.313961,0 0.02356,0.014951 c -0.0044,-0.00317 -0.0089,-0.00116 -0.0135,-0.00423 -3.06e-4,-3.124e-4 -0.01023,-0.010688 -0.01023,-0.010688 z M 15.592808,2.6813953 c -0.0071,0.00458 4.8e-4,0.00611 -0.0068,0.010688 -0.0054,0.00352 -0.01124,7.329e-4 -0.01691,0.00423 z m 74.340826,0 0.02694,0.014951 c -0.0067,-0.00411 -0.01366,-1.762e-4 -0.0202,-0.00423 -0.0071,-0.00458 5.87e-4,-0.00611 -0.0068,-0.010688 z M 36.461708,27.279394 c -2.42e-4,0.03648 -0.0032,0.0508 -0.0034,0.08755 -0.0026,2.57e-4 -0.08754,0.0086 -0.08754,0.0086 v -0.0022 c 0.02486,-0.04961 0.06448,-0.04837 0.09089,-0.09395 z m 32.606392,0.0022 c 0.02571,0.04448 0.06335,0.04353 0.08754,0.09181 l 0.0034,0.0022 c -10e-7,-6e-6 -0.08822,-0.0083 -0.09089,-0.0086 -2.37e-4,-0.03584 2.38e-4,-0.04982 0,-0.08542 z M 45.239882,76.598183 C 45.154166,62.229848 45.06413,39.720849 45.039152,26.578186 l -0.04503,-14.583247 0.660807,-0.827031 c 0.363444,-0.454861 1.023602,-1.044978 1.467027,-1.3113538 l 1.479837,-0.09598 -0.812684,0.081874 c -0.409781,0.041284 -0.04502,7.6658538 0.06938,27.8424738 0.114716,20.176616 0.240816,43.044815 0.280283,50.818217 l 0.07182,14.133471 -1.407639,0.043 -1.407642,0.043 z m 4.359797,6.550272 C 49.511188,72.389906 49.42084,49.344133 49.399257,31.935635 L 49.359492,9.5963137 50.163647,9.0982385 c 0.442284,-0.2739399 1.020889,-0.5386764 1.285752,-0.5882848 l 0.726552,0.2010564 -0.09509,9.5956709 c 0.08233,10.559691 0.217689,33.870187 0.300634,51.801106 l 0.150775,32.601683 h -1.385851 -1.38587 z m 4.419398,15.299109 C 53.983918,96.103521 53.921941,87.071584 53.881252,78.376593 53.841174,69.6816 53.723686,48.306563 53.621009,30.876508 53.518329,13.446452 53.481025,8.4660486 53.538386,8.4270024 c 0.294773,-0.2011445 1.839906,0.592412 2.291007,1.176787 l 0.496123,0.6426796 0.135047,14.291838 c 0.122727,12.982238 0.202892,35.881867 0.285834,50.887745 l 0.150465,27.283418 h -1.406897 -1.406963 z m 4.333926,1.45706 C 58.280235,98.361961 58.118045,75.429693 57.992519,48.944023 57.867018,22.458357 57.693429,9.9457984 57.606692,9.7563919 57.461785,9.4397061 57.488915,9.4255945 57.946761,9.5809947 c 0.788894,0.2677444 2.05004,1.6052913 2.413482,2.5596693 0.282442,0.74204 0.353391,-4.0427911 0.468063,20.630035 0.07431,15.987567 0.20289,38.264162 0.286141,49.50354 l 0.150775,20.435241 h -1.38991 -1.389911 z m -15.527126,2.622706 c 0.04657,-0.10014 0.200114,-22.488231 0.341335,-49.751237 0.252222,-48.6840858 0.264865,-40.273206 0.710048,-41.186954 0.249139,-0.511699 0.772027,-1.209539 1.161801,-1.550757 0.389805,-0.3412283 0.657014,-0.653155 0.593895,-0.6931854 -0.06322,-0.040027 -0.883367,0.4086454 -1.822761,0.9970664 -1.866145,1.168914 -3.09692,2.552403 -3.609045,4.056821 -0.202579,0.594867 -0.301248,-1.714823 -0.383731,17.861627 -0.06104,14.505012 -0.152636,-4.335054 -0.203504,-4.233285 -0.11561,0.230776 -9.869645,0.108383 -11.132056,-0.139673 -3.285072,-0.645484 -5.60016,-2.279748 -6.214379,-4.386903 -0.153549,-0.52703 -0.216145,-3.500429 -0.172672,-8.222855 0.07585,-8.2307539 0.09004,-8.1389434 -1.49786,-9.5555675 -0.725342,-0.6469698 -2.429483,-1.6218089 -2.621827,-1.4998091 -0.05427,0.033732 0.08357,0.280375 0.303407,0.5482791 0.370165,0.4510342 0.39622,1.2473202 0.351695,10.7593415 -0.03793,8.300453 0.01239,10.416003 0.2661,11.021116 0.646344,1.540719 2.683926,2.96066 4.988255,3.476242 1.10997,0.248364 4.317892,0.353676 10.972767,0.360108 l 4.652628,0.0045 v 0.446146 0.446143 l -7.524675,-0.04704 C 23.554376,31.184754 23.332556,31.160674 20.918056,30.036683 19.704484,29.47171 18.11446,28.102592 17.637919,27.212267 17.423621,26.812189 17.320418,23.960747 17.229767,15.94145 17.109199,5.3158069 17.103346,5.202011 16.624739,4.7949594 16.163922,4.4032021 14.760568,3.7788438 14.596592,3.8927419 14.553133,3.9223509 14.481595,9.6181852 14.435025,16.550139 l -0.08418,12.603552 0.661578,0.908374 c 0.767956,1.05445 2.382184,2.088885 3.998573,2.562444 0.997023,0.292077 1.498202,0.32054 6.253507,0.355198 2.843309,0.02065 7.185806,0.05349 9.649981,0.07285 l 4.480356,0.03518 0.07186,0.473541 0.07215,0.473547 h -8.829015 c -4.942991,0 -9.373736,-0.06447 -10.066612,-0.146477 -3.02243,-0.35771 -5.568251,-1.628477 -6.939138,-3.463631 l -0.7318,-0.979625 -0.04347,-12.729489 C 12.901055,9.7143824 12.835991,3.9559921 12.77804,3.919174 12.554802,3.7777409 11.262911,4.3282128 10.75236,4.7821879 L 10.217201,5.25793 10.067958,18.080039 c -0.087883,7.551932 -0.06291,13.121552 0.06075,13.550639 0.483048,1.678543 2.052322,2.955758 4.54107,3.695804 l 1.291242,0.383958 11.717843,0.07285 11.717871,0.07285 v 0.437115 0.437118 L 27.793782,36.685093 C 15.016106,36.635223 15.03137,36.636203 12.724206,35.705766 11.448103,35.191136 10.190098,34.292478 9.4623205,33.375583 8.4448573,32.093795 8.419756,31.677206 8.5450967,18.148356 8.6601197,5.7092837 8.6770694,5.3292021 9.1243483,4.7555562 9.3778028,4.4308486 9.508634,4.1651584 9.4157303,4.1651584 c -0.3761443,0 -1.9898201,0.9351317 -2.687259,1.5572374 C 5.078444,7.1941614 5.1623438,6.3563474 5.1623438,21.361449 v 13.480795 l 0.7537723,0.971008 c 0.852409,1.098088 2.4702772,2.118188 4.1540389,2.619082 0.9829,0.292422 1.567332,0.325293 7.499299,0.421943 3.538312,0.05765 9.922832,0.111496 14.187781,0.119669 l 7.754452,0.01486 v 47.167381 c 0,14.798653 0.03516,16.384843 0.36344,16.464753 0.683964,0.16645 2.863539,0.0973 2.952094,-0.0937 z m 19.875945,0 C 62.655258,102.42718 62.501707,80.039099 62.360486,52.776093 62.108262,4.0920072 62.09562,12.502887 61.650439,11.589139 61.401297,11.07744 60.878411,10.3796 60.488639,10.038382 60.098831,9.6971537 59.831623,9.385227 59.894741,9.3451966 c 0.06322,-0.040027 0.883367,0.4086454 1.82276,0.9970664 1.866144,1.168914 3.096922,2.552403 3.609046,4.056821 0.202581,0.594867 0.301249,-1.714823 0.38373,17.861627 0.06105,14.505012 0.152636,-4.335054 0.203507,-4.233285 0.115635,0.230776 9.869643,0.108383 11.132054,-0.139673 3.285071,-0.645484 5.600162,-2.279748 6.214379,-4.386903 0.153549,-0.52703 0.216147,-3.500429 0.17267,-8.222855 -0.07585,-8.2307539 -0.09005,-8.1389434 1.497861,-9.5555675 0.725346,-0.6469698 2.429486,-1.6218089 2.621829,-1.4998091 0.05427,0.033732 -0.08357,0.280375 -0.303407,0.5482791 -0.370165,0.4510342 -0.396221,1.2473202 -0.351696,10.7593415 0.03794,8.300453 -0.01239,10.416003 -0.266098,11.021116 -0.646345,1.540719 -2.683927,2.96066 -4.988256,3.476242 -1.109968,0.248364 -4.317893,0.353676 -10.972769,0.360108 l -4.652625,0.0045 v 0.446146 0.446143 l 7.524675,-0.04704 c 8.430921,-0.05271 8.652741,-0.07679 11.067242,-1.200782 1.213569,-0.564937 2.803594,-1.934055 3.280136,-2.824379 0.214298,-0.40008 0.317499,-3.25152 0.408151,-11.270818 0.120554,-10.6256438 0.126418,-10.7394397 0.605028,-11.1464901 0.460818,-0.3917573 1.864173,-1.0161157 2.028148,-0.9022176 0.04347,0.029609 0.11501,5.7254433 0.161567,12.6573967 l 0.08418,12.603551 -0.661578,0.908376 c -0.767956,1.05445 -2.382185,2.088883 -3.998573,2.562444 -0.997022,0.292076 -1.4982,0.320539 -6.253506,0.355197 -2.843309,0.02065 -7.185806,0.05349 -9.64998,0.07286 l -4.480357,0.03518 -0.07182,0.473542 -0.07214,0.473547 h 8.829021 c 4.942992,0 9.373737,-0.06447 10.066612,-0.146478 3.022427,-0.357709 5.568248,-1.628477 6.939134,-3.463631 l 0.731787,-0.979624 0.04349,-12.729491 c 0.02776,-7.0012202 0.09281,-12.7596093 0.150773,-12.7964274 0.223239,-0.1414331 1.515129,0.4090388 2.02568,0.8630139 l 0.535159,0.475741 0.149243,12.8221105 c 0.08787,7.55193 0.06291,13.121552 -0.06075,13.550638 -0.483049,1.678543 -2.052321,2.955758 -4.541069,3.695804 l -1.291242,0.383958 -11.717842,0.07285 -11.717874,0.07285 v 0.437115 0.437119 l 11.602956,-0.04529 c 12.777674,-0.04988 12.76241,-0.04889 15.069577,-0.979338 1.2761,-0.51463 2.534105,-1.413288 3.261882,-2.330183 C 97.082891,32.09381 97.107988,31.67722 96.98265,18.148371 96.867632,5.7092625 96.85066,5.3291809 96.403384,4.7555339 96.149926,4.4308275 96.019097,4.1651361 96.112,4.1651361 c 0.376144,0 1.98982,0.9351317 2.687257,1.5572385 1.650023,1.4717645 1.566133,0.6339517 1.566133,15.6390524 v 13.480807 l -0.753771,0.971008 c -0.852415,1.098087 -2.470282,2.118188 -4.154044,2.619082 -0.982899,0.292422 -1.56733,0.325292 -7.499298,0.421943 -3.538312,0.05764 -9.92283,0.111495 -14.187781,0.119668 l -7.754451,0.01486 v 47.167383 c 0,14.798652 -0.03516,16.384842 -0.363442,16.464752 -0.683963,0.16645 -2.863537,0.0973 -2.952093,-0.0937 z" /><path
           id="path3"
           style="fill:#ffffff;fill-opacity:1;stroke-width:4.32209"
           d="M 45.23929,76.640885 C 45.153612,62.272549 45.063535,39.76355 45.038556,26.620886 l -0.04498,-14.583245 0.660795,-0.827032 c 0.363455,-0.45486 1.023614,-1.044977 1.467041,-1.3113524 l 0.806209,-0.4843183 -0.139115,0.4702138 c -0.07655,0.2586189 -0.04499,7.6658539 0.0693,27.8424729 0.114639,20.176616 0.240816,43.044815 0.280294,50.818218 l 0.07189,14.133467 -1.407653,0.043 -1.407635,0.043 z m 4.359785,6.550272 C 49.510637,72.432607 49.420234,49.386835 49.398651,31.978336 L 49.358827,9.6390161 50.162987,9.1409409 C 50.605275,8.867001 51.183876,8.6022645 51.44874,8.5526561 l 0.481594,-0.090202 0.149813,9.8869299 c 0.0824,10.559692 0.217699,33.870188 0.300636,51.801107 l 0.150844,32.601679 h -1.385845 -1.385879 z m 4.419399,15.299108 C 53.983302,96.146223 53.921415,87.114285 53.880724,78.419294 53.840736,69.724301 53.723156,48.349265 53.62048,30.919209 53.517735,13.489154 53.480494,8.508751 53.537909,8.4697048 c 0.294772,-0.2011445 1.839908,0.592412 2.291007,1.1767869 l 0.496128,0.6426793 0.134988,14.291837 c 0.122739,12.982238 0.20289,35.881868 0.285826,50.887744 l 0.150499,27.283418 h -1.406894 -1.406962 z m 4.333925,1.45706 C 58.279653,98.404662 58.117445,75.472394 57.991927,48.986724 57.866422,22.501058 57.692826,9.9885008 57.606095,9.7990931 57.461113,9.4824074 57.488351,9.4682958 57.946157,9.6236971 c 0.7889,0.2677444 2.050038,1.6052909 2.413491,2.5596699 0.28243,0.742039 0.353388,-4.0427917 0.468063,20.630033 0.0743,15.987567 0.202888,38.264162 0.286136,49.503539 l 0.150844,20.435241 H 59.874778 58.484864 Z M 42.82528,102.57003 c 0.04654,-0.10014 0.200113,-22.48823 0.341338,-49.751236 0.25221,-48.6840844 0.264862,-40.273205 0.71005,-41.186953 0.249139,-0.5117 0.772022,-1.209538 1.161785,-1.550757 0.389814,-0.3412279 0.657022,-0.6531546 0.59391,-0.693185 -0.06327,-0.040027 -0.883375,0.4086454 -1.822774,0.997067 -1.86613,1.168913 -3.096907,2.552403 -3.609032,4.05682 -0.20258,0.594866 -0.301258,-1.714824 -0.383729,17.861626 -0.06103,14.505012 -0.152568,-4.335055 -0.20351,-4.233286 -0.115674,0.230777 -9.869651,0.108383 -11.132062,-0.139672 C 25.196181,27.28497 22.88109,25.650707 22.266874,23.543552 22.113273,23.016522 22.050729,20.043122 22.094205,15.320697 22.170051,7.0899435 22.184189,7.181754 20.59634,5.7651299 19.871,5.1181601 18.166867,4.143321 17.97453,4.2653208 c -0.05431,0.033732 0.0836,0.2803749 0.303393,0.5482791 0.370178,0.4510342 0.396226,1.2473202 0.351698,10.7593421 -0.03793,8.300451 0.01201,10.416 0.266104,11.021113 0.646349,1.54072 2.683923,2.960661 4.988259,3.476243 1.109964,0.248364 4.317894,0.353676 10.972754,0.360109 l 4.652627,0.0045 v 0.446146 0.446142 l -7.524666,-0.04704 c -8.430916,-0.0527 -8.65275,-0.07678 -11.067243,-1.20077 C 19.703883,29.514412 18.113858,28.145294 17.637312,27.25497 17.423029,26.854891 17.319819,24.00345 17.229174,15.984153 17.108666,5.3585105 17.102813,5.2447146 16.624147,4.837663 16.163324,4.4459057 14.759964,3.8215474 14.595984,3.9354455 14.552545,3.9650545 14.481,9.6608887 14.434453,16.592842 l -0.08413,12.60355 0.66159,0.908376 c 0.767957,1.05445 2.382187,2.088883 3.998572,2.562444 0.997013,0.292076 1.498192,0.320539 6.253497,0.355197 2.843318,0.02065 7.185812,0.05349 9.649988,0.07285 l 4.480355,0.03518 0.07189,0.473542 0.07223,0.473547 h -8.829022 c -4.942988,0 -9.373729,-0.06447 -10.066609,-0.146478 -3.022434,-0.357709 -5.568255,-1.628477 -6.939136,-3.46363 L 12.971689,29.487795 12.92822,16.758305 C 12.900454,9.757086 12.835466,3.9986969 12.777371,3.9618787 12.554123,3.8204457 11.262248,4.3709175 10.751691,4.8248927 L 10.216534,5.3006348 10.067246,18.122744 c -0.087917,7.551929 -0.06292,13.121551 0.06069,13.550637 0.483042,1.678543 2.052313,2.955759 4.541071,3.695804 l 1.291238,0.383959 11.71785,0.07285 11.717868,0.07285 v 0.437115 0.437119 l -11.60295,-0.04529 C 15.015324,36.677918 15.030597,36.678908 12.723419,35.748459 11.447317,35.233829 10.18932,34.335171 9.4615481,33.418276 8.4440715,32.136488 8.4189713,31.719898 8.5443176,18.19105 8.6593016,5.7519779 8.6763659,5.3718963 9.1235737,4.7982504 9.3770247,4.473544 9.5078538,4.2078526 9.4149511,4.2078526 9.038808,4.2078526 7.42513,5.1429843 6.7277,5.7650899 5.0776638,7.2368556 5.1615658,6.3990416 5.1615658,21.404142 V 34.88496 l 0.753769,0.971008 c 0.8524111,1.098087 2.4702782,2.118188 4.1540352,2.619082 0.982912,0.292421 1.567339,0.325292 7.499307,0.421942 3.538302,0.05764 9.922834,0.111495 14.187786,0.119669 l 7.754447,0.01486 v 47.167384 c 0,14.798645 0.03518,16.384835 0.363439,16.464755 0.683966,0.16645 2.863539,0.0973 2.952097,-0.0937 z m 19.875939,0 C 62.654672,102.46988 62.501106,80.0818 62.359881,52.818794 62.107654,4.1347096 62.095019,12.545589 61.649833,11.631841 c -0.249142,-0.5117 -0.772025,-1.209538 -1.161785,-1.550757 -0.389816,-0.3412279 -0.657024,-0.6531546 -0.59391,-0.693185 0.06326,-0.040027 0.883373,0.4086454 1.822773,0.997067 1.866129,1.168913 3.096908,2.552403 3.609034,4.05682 0.202577,0.594866 0.301255,-1.714824 0.383728,17.861626 0.06103,14.505012 0.152567,-4.335055 0.203508,-4.233286 0.115675,0.230777 9.869651,0.108383 11.132063,-0.139672 3.285074,-0.645484 5.600164,-2.279747 6.214382,-4.386902 0.153601,-0.52703 0.216144,-3.50043 0.172667,-8.222855 -0.07586,-8.2307535 -0.08998,-8.138943 1.49785,-9.5555671 0.725355,-0.6469698 2.42949,-1.6218089 2.621826,-1.4998091 0.05431,0.033732 -0.0836,0.2803749 -0.303392,0.5482791 C 86.8784,5.2646341 86.85235,6.0609201 86.89688,15.572942 c 0.03793,8.300451 -0.01201,10.416 -0.266105,11.021113 -0.646351,1.54072 -2.683925,2.960661 -4.988259,3.476243 -1.109964,0.248364 -4.317893,0.353676 -10.972755,0.360109 l -4.652626,0.0045 v 0.446146 0.446142 l 7.524666,-0.04704 c 8.430915,-0.05271 8.65275,-0.07679 11.067243,-1.20078 1.213574,-0.564937 2.803599,-1.934055 3.280143,-2.82438 0.214284,-0.40008 0.317494,-3.25152 0.408138,-11.270817 0.120504,-10.6256432 0.126368,-10.7394392 0.60503,-11.1464896 0.460821,-0.3917573 1.86418,-1.0161156 2.02816,-0.9022175 0.04344,0.029609 0.114984,5.7254433 0.161532,12.6573961 l 0.08413,12.603551 -0.661591,0.908374 c -0.767955,1.054451 -2.382183,2.088884 -3.998569,2.562445 -0.997015,0.292077 -1.498195,0.32054 -6.253499,0.355198 -2.843318,0.02065 -7.185812,0.05349 -9.649988,0.07285 l -4.480355,0.03518 -0.07189,0.473542 -0.07206,0.473547 h 8.829022 c 4.942988,0 9.373729,-0.06447 10.066608,-0.146477 3.022434,-0.35771 5.568255,-1.628478 6.939136,-3.463632 l 0.731788,-0.979624 0.04344,-12.729489 c 0.02777,-7.0012206 0.09275,-12.7596097 0.150845,-12.7964279 0.223246,-0.141433 1.51512,0.4090389 2.025678,0.863014 l 0.535156,0.4757421 0.149287,12.8221078 c 0.08792,7.551931 0.06292,13.121552 -0.06069,13.550639 -0.483043,1.678541 -2.052312,2.955757 -4.541073,3.695804 l -1.291235,0.383957 -11.717852,0.07285 -11.717868,0.07285 v 0.437116 0.437118 l 11.602951,-0.04529 c 12.777686,-0.04988 12.762412,-0.04889 15.069589,-0.97934 1.276101,-0.514629 2.534099,-1.413287 3.261871,-2.330183 1.01749,-1.281813 1.042591,-1.698402 0.917244,-15.227251 C 96.86714,5.7519661 96.850244,5.3718845 96.402871,4.7982386 96.149419,4.4735311 96.018592,4.2078397 96.111493,4.2078397 c 0.376143,0 1.989821,0.9351317 2.687253,1.5572385 1.650034,1.4717644 1.566134,0.6339517 1.566134,15.6390518 v 13.48083 l -0.753772,0.971008 c -0.85241,1.098087 -2.470278,2.118188 -4.154034,2.619082 -0.982911,0.292421 -1.567338,0.325292 -7.499306,0.421942 -3.538301,0.05764 -9.922835,0.111495 -14.187785,0.119669 l -7.75445,0.01486 v 47.167384 c 0,14.798645 -0.03517,16.384835 -0.363437,16.464755 -0.683966,0.16645 -2.863538,0.0973 -2.952098,-0.0937 z"
           sodipodi:nodetypes="cccsscscsccccsccssccscccsscscscsccccscscscsccccccscssscscsscccsccsscccssccccccsscccccssscccccscscccccsssccssscsssscsccccscssssscsssccsccsscccssccccccsscccccssscccccscscccccsssccssscsssscsccc" /></g></g></g></svg>
