<?xml version="1.0" encoding="UTF-8" standalone="no"?>
<!-- Created with Inkscape (http://www.inkscape.org/) -->

<svg
   width="105.83334mm"
   height="105.83334mm"
   viewBox="0 0 105.83333 105.83333"
   version="1.1"
   id="svg1"
   xml:space="preserve"
   inkscape:version="1.4 (e7c3feb100, 2024-10-09)"
   sodipodi:docname="tucson.svg"
   inkscape:export-filename="../pngs/tucson.png"
   inkscape:export-xdpi="96"
   inkscape:export-ydpi="96"
   xmlns:inkscape="http://www.inkscape.org/namespaces/inkscape"
   xmlns:sodipodi="http://sodipodi.sourceforge.net/DTD/sodipodi-0.dtd"
   xmlns="http://www.w3.org/2000/svg"
   xmlns:svg="http://www.w3.org/2000/svg"><sodipodi:namedview
     id="namedview1"
     pagecolor="#ffffff"
     bordercolor="#000000"
     borderopacity="0.25"
     inkscape:showpageshadow="2"
     inkscape:pageopacity="0.0"
     inkscape:pagecheckerboard="0"
     inkscape:deskcolor="#d1d1d1"
     inkscape:document-units="mm"
     inkscape:zoom="0.93104429"
     inkscape:cx="291.07101"
     inkscape:cy="50.48095"
     inkscape:window-width="1920"
     inkscape:window-height="1011"
     inkscape:window-x="0"
     inkscape:window-y="32"
     inkscape:window-maximized="1"
     inkscape:current-layer="layer1"
     showgrid="false"
     showguides="true" /><defs
     id="defs1" /><g
     inkscape:label="Capa 1"
     inkscape:groupmode="layer"
     id="layer1"><g
       id="g1"
       transform="translate(-99.746893,59.961812)"><path
         id="path9"
         style="fill:#cc0033;fill-opacity:1;stroke:#003366;stroke-width:2.50429;stroke-dasharray:none;stroke-opacity:1"
         d="m 116.19322,-57.833884 c -0.26089,-0.01568 -0.57878,-0.01912 -0.9263,0.01543 l 4.9e-4,4.98e-4 c -0.22585,0.02261 -0.27719,0.06709 -0.34792,0.103531 -0.43139,-0.05704 -0.8589,-0.09879 -1.15128,-0.08661 -0.64615,0.02692 -1.07929,0.126923 -1.34688,0.19163 -0.32293,0.0781 -0.50891,0.158025 -0.71526,0.237424 -0.17782,-0.07272 -0.33775,-0.177196 -0.79539,-0.177196 -1.22206,0 -1.88002,0.281004 -2.00939,0.323532 -0.32965,0.108358 -0.57243,0.211216 -0.77101,0.301134 -0.41095,0.186081 -0.76491,0.379421 -1.10996,0.579372 -0.68633,0.397723 -1.37964,0.842323 -2.03179,1.424041 -0.72118,0.643255 -2.05049,2.067395 -2.28015,4.360721 -0.20856,2.0826 -0.17124,5.430528 -0.17123,12.651617 v 13.809863 l 1.27373,1.640559 c 1.35246,1.742257 3.4585,3.05755 6.05554,3.830128 0.7679,0.228459 1.90274,0.431784 3.15468,0.502222 1.2075,0.06793 2.77993,0.0947 5.6439,0.141359 3.46594,0.05647 9.60741,0.110513 13.75562,0.118463 l 3.20197,0.0055 v 42.361364 c 0,7.128911 0.0111,11.068302 0.0602,13.296691 0.0246,1.110476 0.0491,1.78737 0.11996,2.34785 0.0297,0.23504 0.0782,0.58598 0.2409,0.98752 0.062,0.15312 0.24727,0.55489 0.5963,0.92929 0.24064,0.25813 0.58526,0.33644 0.86906,0.48928 l -0.51318,1.09852 4.16512,-0.20109 c -0.004,1.6e-4 0.12769,0.008 0.14484,0.0114 v 0.20855 l 4.74796,-0.14683 h 4.63349 0.41761 3.88836 0.29566 0.44 3.78533 0.4191 5.21137 v -0.0224 l 3.18455,0.15579 -0.51168,-1.10051 c 0.28422,-0.15339 0.62969,-0.23349 0.86956,-0.49077 0.34955,-0.37498 0.53459,-0.77896 0.59629,-0.93128 0.1627,-0.40157 0.21071,-0.7506 0.24041,-0.98553 0.0704,-0.556336 0.0998,-1.237455 0.12444,-2.349841 0.0493,-2.229458 0.0563,-6.168096 0.0563,-13.296691 v -42.361335 l 3.20595,-0.0055 c 4.14823,-0.0079 10.2857,-0.06248 13.75163,-0.11896 2.86397,-0.04667 4.43642,-0.07293 5.6439,-0.140861 1.25185,-0.07043 2.38941,-0.273509 3.15817,-0.502222 2.59727,-0.772648 4.70015,-2.08856 6.05206,-3.830128 l 1.27372,-1.640559 v -13.810337 c 0,-7.221089 0.0374,-10.568519 -0.17122,-12.651119 -0.22955,-2.292242 -1.55374,-3.716351 -2.27618,-4.360721 -0.65353,-0.582944 -1.35065,-1.027025 -2.03577,-1.424041 -0.34503,-0.199952 -0.70051,-0.393291 -1.11145,-0.579372 -0.19858,-0.08991 -0.44186,-0.192775 -0.77151,-0.301135 -0.12937,-0.04252 -0.78532,-0.323531 -2.0074,-0.323531 -0.45903,0 -0.61795,0.104143 -0.7939,0.176698 -0.20776,-0.07955 -0.39431,-0.158949 -0.71674,-0.236926 -0.26764,-0.06473 -0.70073,-0.164713 -1.34689,-0.19163 -0.33121,-0.01379 -0.7998,0.01948 -1.30359,0.09955 -0.68881,-0.09811 -1.29933,-0.124272 -1.70427,-0.07316 -0.57143,0.07211 -0.92576,0.182401 -1.12539,0.242402 -0.24546,0.07378 -0.39401,0.141888 -0.56793,0.212535 -0.0554,-0.01569 -0.0677,-0.01613 -0.14087,-0.03932 -0.17272,-0.05474 -0.33815,-0.153542 -0.75457,-0.142852 -0.66346,0.01703 -1.10718,0.121896 -1.33942,0.17869 -0.53366,0.130505 -0.8565,0.271476 -1.04427,0.351405 -0.45952,0.195601 -0.81813,0.388569 -1.1682,0.58883 -0.69996,0.400405 -1.42239,0.856604 -2.10097,1.461869 -0.83646,0.746239 -1.95745,1.981331 -2.23138,3.728589 -0.24298,1.54985 -0.1853,3.485736 -0.14882,7.444235 0.0207,2.259228 0.0147,4.097389 -0.0129,5.406478 -0.0137,0.653351 -0.0343,1.177042 -0.0567,1.535037 -0.008,0.12355 -0.0237,0.243027 -0.0374,0.344438 -0.2534,0.790873 -1.06798,1.439823 -2.76546,1.813276 -0.037,0.0032 -0.0699,0.0054 -0.11298,0.0094 -0.32981,0.03048 -0.85522,0.08046 -1.30559,0.09805 -0.97352,0.03804 -2.22473,0.0674 -3.4369,0.08262 -0.31957,0.0039 -0.58,2.37e-4 -0.85761,0 -0.023,-3.329486 -0.0413,-7.371679 -0.0757,-8.480535 -0.0296,-0.954582 -0.0378,-1.388756 -0.15579,-1.911282 -0.0789,-0.349357 -0.19486,-0.517168 -0.28422,-0.673445 -0.75986,-2.080464 -2.41888,-3.888856 -4.70664,-5.321862 -0.50772,-0.318026 -0.9808,-0.60051 -1.40712,-0.833719 -0.20358,-0.111365 -0.41129,-0.221845 -0.68887,-0.347922 -0.10023,-0.04553 -0.31202,-0.145006 -0.67346,-0.259324 -0.12136,-0.03838 -0.46778,-0.154573 -1.03082,-0.225975 -0.27113,-0.03439 -0.7228,-0.07834 -1.32648,-0.02439 -0.2366,0.02115 -0.44961,0.06498 -0.65254,0.105522 -0.14596,0.02916 -0.23092,0.0501 -0.3086,0.06769 -0.10744,-0.02056 -0.16591,-0.04154 -0.36684,-0.05276 -0.26746,-0.01496 -0.30211,0.02518 -0.38376,0.05426 -0.0828,-0.0776 -0.0436,-0.09144 -0.30461,-0.225477 -0.39577,-0.203274 -0.86374,-0.424709 -1.5445,-0.619192 -0.30877,-0.08822 -0.80698,-0.219745 -1.55395,-0.257333 -0.42583,-0.02143 -0.93572,0.05855 -1.45441,0.157784 l -0.76752,-0.212535 -1.37127,0.255838 h -0.002 c -1.10008,0.206041 -1.51881,0.468109 -1.77396,0.584848 -0.2839,0.129897 -0.55801,0.287847 -0.83321,0.443986 -0.0289,-0.01267 -0.0631,-0.02656 -0.0831,-0.03534 -0.0167,-0.0073 -0.03,-0.01283 -0.0393,-0.01692 -0.005,-0.002 -0.009,-0.0046 -0.0115,-0.006 -0.002,-6.74e-4 -0.002,-0.0011 -0.004,-0.002 l -0.0358,-0.01493 c 0,0 -0.13863,-0.04068 -0.14136,-0.04131 -0.003,-6.25e-4 -0.004,-0.0016 -0.006,-0.002 -0.003,-6.09e-4 -0.005,-0.0014 -0.008,-0.002 -0.006,-0.0014 -0.0127,-0.0033 -0.0224,-0.0055 -0.0196,-0.0042 -0.0469,-0.0097 -0.0806,-0.01692 -0.0673,-0.01435 -0.15998,-0.03449 -0.26182,-0.05475 -0.20366,-0.04051 -0.41632,-0.08441 -0.65254,-0.105521 -0.60327,-0.0539 -1.05235,-0.0093 -1.3225,0.02489 -0.56302,0.0714 -0.9114,0.187072 -1.03282,0.225477 -0.35958,0.11374 -0.5692,0.211575 -0.67542,0.259821 -0.2806,0.127443 -0.48729,0.238735 -0.68689,0.347922 -0.42435,0.232126 -0.89973,0.514156 -1.40911,0.833221 -2.29204,1.435687 -3.95244,3.24662 -4.71014,5.33132 -0.087,0.150654 -0.20139,0.312765 -0.28073,0.664486 -0.1189,0.527172 -0.12473,0.956935 -0.15429,1.90934 -0.0344,1.107462 -0.0537,5.152391 -0.0772,8.482526 -0.27652,2.39e-4 -0.53483,0.004 -0.85363,0 -1.2122,-0.01522 -2.46747,-0.04508 -3.44089,-0.08312 -0.45037,-0.0176 -0.97578,-0.06707 -1.30559,-0.09756 -0.043,-0.0039 -0.0759,-0.0062 -0.11298,-0.0094 -1.69748,-0.373452 -2.51205,-1.022901 -2.76546,-1.813774 -0.0136,-0.101413 -0.0301,-0.220434 -0.0379,-0.34394 -0.0224,-0.357828 -0.0425,-0.881512 -0.0563,-1.535037 -0.0275,-1.307562 -0.0299,-3.146792 -0.01,-5.406976 0.0364,-3.958502 0.0941,-5.89392 -0.14882,-7.443738 -0.27404,-1.74883 -1.39948,-2.983356 -2.23488,-3.728639 -0.67859,-0.605271 -1.403,-1.061469 -2.10295,-1.46187 -0.35008,-0.200266 -0.70919,-0.393229 -1.16871,-0.588829 -0.18776,-0.07993 -0.50811,-0.221399 -1.04177,-0.351904 -0.23223,-0.05679 -0.67595,-0.161658 -1.33943,-0.17869 -0.41716,-0.01078 -0.58259,0.08809 -0.75457,0.142853 -0.0732,0.02331 -0.0858,0.02417 -0.14087,0.03982 -0.17463,-0.07047 -0.32483,-0.139322 -0.56841,-0.212535 -0.19704,-0.05922 -0.55097,-0.170718 -1.12291,-0.242899 -0.11957,-0.01508 -0.32347,-0.04305 -0.58435,-0.05873 z m 76.18594,0.860597 c 5.8e-4,3.39e-4 0.01,0.0035 0.01,0.0035 l 0.0115,0.0094 c -0.01,-0.0062 -0.0106,-0.0065 -0.0209,-0.01295 z m -79.45761,0.02239 0.14734,0.223984 c -0.0142,0.0025 -0.0236,0.0049 -0.0374,0.0075 l -0.16078,-0.199592 c -1.2e-4,1.04e-4 0.0307,-0.01922 0.0508,-0.03185 z m 79.54422,0.0453 0.0826,0.06969 -0.0223,0.165251 c -0.0616,-0.01429 -0.12712,-0.02804 -0.1981,-0.04181 z m -75.68024,0.02041 c -3.5e-4,2.3e-5 -0.15472,0.04821 -0.27824,0.08661 -0.0148,-0.0018 -0.0345,-0.0031 -0.0503,-0.005 0.007,-0.0033 0.0148,-0.0091 0.0219,-0.01194 0.0636,-0.02566 0.12097,-0.04111 0.16723,-0.05077 0.0926,-0.01933 0.13968,-0.01894 0.13938,-0.01892 z m 9.68457,19.719061 c -7e-5,5e-6 0.51177,0.105569 0.51168,0.105522 -1e-4,-4.7e-5 0.23703,0.167342 0.23692,0.167241 -9e-5,-9.9e-5 0.10565,0.117123 0.10553,0.11697 -1.1e-4,-1.53e-4 0.0397,0.05622 0.0528,0.07715 0.0261,0.04185 0.0405,0.06892 0.0508,0.09009 0.0206,0.04235 0.0281,0.06236 0.0338,0.07715 0.0225,0.05918 0.0138,0.04195 0.01,0.02638 l -0.95815,0.279233 c 0.0553,0.189322 -0.0185,-0.137412 -0.0423,-0.517154 -0.007,-0.100491 -0.01,-0.295138 -0.0154,-0.41661 7.7e-4,-3e-4 0.0149,-0.006 0.0149,-0.006 z m 52.38739,0 c 0,0 0.0138,0.0052 0.0144,0.0055 -0.006,0.121641 -0.009,0.316497 -0.0154,0.417107 -0.0238,0.379743 -0.0975,0.706475 -0.0423,0.517155 l -0.95766,-0.279233 c -0.005,0.01444 -0.0119,0.02916 0.01,-0.02638 0.006,-0.01478 0.0132,-0.03484 0.0338,-0.07715 0.0103,-0.02115 0.0226,-0.04826 0.0487,-0.09009 0.013,-0.02091 0.055,-0.0773 0.0547,-0.07715 -1.2e-4,1.53e-4 0.10363,-0.117069 0.10352,-0.11697 -1e-4,1e-4 0.23902,-0.167289 0.23892,-0.167242 -9e-5,4.7e-5 0.51176,-0.105516 0.51168,-0.105521 z m -48.42536,2.605683 c 0.0233,0.01033 0.0392,0.01587 0.0826,0.04181 0.0352,0.02099 0.14166,0.101799 0.14136,0.101539 -3e-4,-2.61e-4 0.23505,0.299375 0.23493,0.299143 -6e-5,-1.16e-4 0.0996,0.323643 0.0995,0.323533 0,-5.4e-5 -0.008,0.100091 -0.0154,0.200092 -0.27124,-0.02222 -0.55539,-0.03916 -0.72224,-0.05426 z m 44.46283,0 0.1782,0.911864 c -0.16676,0.01508 -0.45087,0.0321 -0.72123,0.05426 -0.008,-0.100011 -0.0159,-0.200146 -0.0159,-0.200092 -1e-5,1.1e-4 0.1001,-0.323649 0.10004,-0.323533 -1.1e-4,2.32e-4 0.23523,-0.299404 0.23493,-0.299143 -2.9e-4,2.6e-4 0.10621,-0.08054 0.14136,-0.101539 0.0434,-0.02595 0.0593,-0.03148 0.0826,-0.04181 z"
         sodipodi:nodetypes="ccccsscsssscssccsssccscssscccccccccccccccccsscssccsscccssssssscsscsscssssscsccccccscccccssssssscscsssccccscscccccsscsssssssscssccsscccccccssscscsssccccccccccccccscccssssscccccsccccsccccccssccssssccscccsssscccsssscc" /><path
         id="path8"
         style="fill:#ffffff;fill-opacity:1;stroke:none;stroke-width:1.99669;stroke-dasharray:none"
         d="m 115.36628,-56.765844 c -0.0952,0.0095 -0.21751,0.09808 -0.31782,0.115173 -0.49359,-0.09238 -0.94142,-0.106995 -1.23886,-0.09461 -0.57344,0.02389 -0.88667,0.09976 -1.15455,0.164532 -0.39996,0.09672 -0.63804,0.19853 -0.89834,0.302326 -0.28965,-0.07014 -0.56832,-0.21389 -0.84644,-0.21389 -1.11611,0 -1.40459,0.177694 -1.69615,0.273534 -0.29155,0.09584 -0.48501,0.17889 -0.67132,0.263249 -0.3726,0.168721 -0.69241,0.341924 -1.02157,0.532672 -0.65832,0.381494 -1.28981,0.790208 -1.86803,1.30597 -0.63965,0.570543 -1.75612,1.754892 -1.95234,3.714301 -0.19622,1.95941 -0.1654,5.32778 -0.1654,12.551708 v 13.468972 l 1.06374,1.369726 c 1.19161,1.535049 3.11218,2.760148 5.55218,3.486013 0.65675,0.19539 1.75223,0.396746 2.92528,0.462745 1.17304,0.066 2.74049,0.0932 5.60407,0.139852 3.45688,0.05633 9.59943,0.109291 13.74101,0.117228 l 4.19981,0.0083 v 43.358157 c 0,7.128002 0.01,11.068483 0.0584,13.27359 0.0243,1.102558 0.052,1.759348 0.11351,2.245872 0.0307,0.24325 0.0514,0.43078 0.17512,0.73628 0.0619,0.15274 0.13865,0.34257 0.40215,0.62521 0.22093,0.237 0.7852,0.54293 1.4302,0.76919 l -0.19782,0.42162 2.51664,-0.12135 c 0.24979,-0.0102 0.65866,0.0765 0.93077,0.0679 0.0821,-0.003 0.17202,-0.015 0.25296,-0.0185 v 0.13779 l 4.2063,-0.12957 v 0.0144 h 4.17711 0.41836 3.88847 0.29513 0.44106 3.78469 0.41836 4.21279 v -0.0679 c 0.0122,5.6e-4 0.0332,-0.005 0.0454,-0.004 l 2.5361,0.12548 -0.19783,-0.42573 c 0.64477,-0.22626 1.20608,-0.53225 1.42696,-0.76918 0.2635,-0.28265 0.34027,-0.47248 0.40215,-0.62522 0.12377,-0.3055 0.14437,-0.49303 0.17512,-0.73628 0.0615,-0.486523 0.0924,-1.143313 0.11676,-2.245871 0.0487,-2.205107 0.0551,-6.145588 0.0551,-13.27359 v -43.358142 l 4.20306,-0.0083 c 4.14158,-0.0079 10.28088,-0.0609 13.73776,-0.117229 2.86358,-0.04666 4.43102,-0.07386 5.60407,-0.139852 1.17305,-0.066 2.27177,-0.267355 2.92852,-0.462745 2.44001,-0.725866 4.35734,-1.950967 5.54894,-3.486014 l 1.06375,-1.369725 v -13.469126 c 0,-7.223928 0.0308,-10.592298 -0.1654,-12.551707 -0.19621,-1.959409 -1.30945,-3.143759 -1.94911,-3.714302 -0.57822,-0.515763 -1.21293,-0.924474 -1.87126,-1.30597 -0.32916,-0.190748 -0.64897,-0.36395 -1.02158,-0.532672 -0.1863,-0.08436 -0.37976,-0.16741 -0.67132,-0.26325 -0.29156,-0.09584 -0.58004,-0.273534 -1.69614,-0.273534 -0.2772,0 -0.55449,0.144175 -0.8432,0.213892 -0.26045,-0.103884 -0.50134,-0.205534 -0.90159,-0.302327 -0.26787,-0.06479 -0.5811,-0.140645 -1.15454,-0.164533 -0.29743,-0.01239 -0.74207,0.0023 -1.23562,0.09461 -0.69638,-0.118625 -1.30726,-0.111655 -1.60533,-0.07404 -0.51028,0.0644 -0.74436,0.141946 -0.9632,0.207722 -0.33644,0.101124 -0.55956,0.198742 -0.79781,0.300269 -0.31641,-0.0432 -0.71088,-0.233848 -0.92752,-0.228287 -0.5849,0.01501 -0.89081,0.09198 -1.1286,0.150135 -0.47558,0.116304 -0.68052,0.211694 -0.88861,0.300271 -0.41618,0.177152 -0.72765,0.344526 -1.06374,0.536784 -0.67217,0.384516 -1.33162,0.804636 -1.93288,1.340934 -0.74802,0.667337 -1.69236,1.749038 -1.91019,3.13844 -0.21782,1.389403 -0.17273,3.317437 -0.1362,7.280526 0.0208,2.265927 0.0149,4.110076 -0.013,5.435714 -0.0139,0.662818 -0.0345,1.196977 -0.0584,1.577447 -0.0239,0.380469 -0.098,0.709945 -0.0422,0.518275 -0.37907,1.300446 -1.6468,2.208228 -3.73281,2.618109 0.76306,-0.149936 -0.41678,0.02516 -1.40426,0.06375 -0.98748,0.03859 -2.24459,0.06697 -3.46363,0.08227 -0.69921,0.0087 -1.24078,0.0031 -1.85829,0.0021 -0.027,-3.522442 -0.0481,-8.283714 -0.0843,-9.450285 -0.0297,-0.956235 -0.0381,-1.300742 -0.13297,-1.721414 -0.0369,-0.163317 -0.15072,-0.37779 -0.23675,-0.53672 -0.65846,-1.817184 -2.15232,-3.481635 -4.31009,-4.833222 -0.49538,-0.310297 -0.95299,-0.581841 -1.35562,-0.802092 -0.20131,-0.110128 -0.37609,-0.204723 -0.62267,-0.316723 -0.12329,-0.056 -0.23799,-0.113763 -0.56106,-0.215948 -0.16153,-0.05109 -0.3554,-0.123648 -0.85618,-0.187154 -0.25039,-0.03175 -0.59189,-0.06707 -1.11238,-0.02057 -0.26024,0.02326 -0.89379,0.164158 -0.8951,0.164531 -1e-4,3e-5 -0.0666,0.028 -0.0778,0.03291 -0.15324,-0.02732 -0.22711,-0.05884 -0.49943,-0.07404 -0.12401,-0.0069 -0.40239,0.105004 -0.57403,0.111057 -0.18072,-0.103048 -0.32425,-0.292462 -0.51564,-0.390763 -0.37957,-0.194958 -0.75045,-0.372323 -1.36211,-0.547072 -0.30584,-0.08738 -0.66583,-0.188713 -1.32967,-0.222118 -0.37072,-0.01866 -0.92564,0.03722 -1.50156,0.170702 l -0.71348,-0.197439 -1.14481,0.213892 c -1.02477,0.191935 -1.17814,0.34278 -1.54372,0.510048 -0.36558,0.167266 -0.7107,0.348875 -1.05725,0.56352 l -0.13944,0.08638 c -0.28015,-0.122714 -0.58621,-0.256855 -0.587,-0.257081 -0.001,-3.75e-4 -0.6381,-0.141276 -0.89834,-0.164533 -0.52049,-0.04651 -0.85875,-0.0112 -1.10914,0.02057 -0.50078,0.06351 -0.69464,0.136062 -0.85618,0.187154 -0.32307,0.102188 -0.44101,0.159949 -0.5643,0.215949 -0.24658,0.111995 -0.41811,0.206597 -0.61943,0.316722 -0.40263,0.220251 -0.86348,0.491796 -1.35886,0.802093 -2.15955,1.3527 -3.65251,3.018395 -4.31007,4.83723 -0.0859,0.159295 -0.20018,0.370575 -0.23675,0.53267 -0.0949,0.420672 -0.10005,0.76518 -0.12973,1.721414 -0.0362,1.166573 -0.0606,5.927839 -0.0876,9.450285 -0.61717,0.0011 -1.15637,0.0067 -1.85506,-0.0021 -1.21904,-0.01531 -2.47939,-0.04367 -3.46687,-0.08227 -0.98747,-0.03859 -2.16731,-0.213691 -1.40426,-0.06376 -2.08601,-0.40988 -3.35374,-1.317664 -3.7328,-2.618109 0.0558,0.191671 -0.0183,-0.137805 -0.0422,-0.518274 -0.0239,-0.380471 -0.0444,-0.914629 -0.0584,-1.577447 -0.0279,-1.325638 -0.0306,-3.169788 -0.01,-5.435714 0.0365,-3.963089 0.0816,-5.891123 -0.13621,-7.280525 -0.21767,-1.389385 -1.16526,-2.471086 -1.91328,-3.138423 -0.60127,-0.536299 -1.26071,-0.956418 -1.93289,-1.340933 -0.33609,-0.192258 -0.64756,-0.359631 -1.06373,-0.536785 -0.20809,-0.08858 -0.41303,-0.183966 -0.88861,-0.300269 -0.23779,-0.05815 -0.54371,-0.135121 -1.1286,-0.150136 -0.21623,-0.0055 -0.60859,0.185286 -0.92428,0.228288 -0.2384,-0.10161 -0.46438,-0.199081 -0.80105,-0.300271 -0.21884,-0.06577 -0.44968,-0.143322 -0.95996,-0.20772 -0.25513,-0.0322 -0.72182,-0.09738 -1.28751,-0.04113 z m -1.86154,0.67458 c 0,1e-6 -0.009,0.01 -0.01,0.01029 -0.004,0.0031 -0.009,0.0011 -0.013,0.0041 z m 78.32083,0 0.0227,0.0144 c -0.004,-0.003 -0.009,-0.0011 -0.013,-0.0041 -3e-4,-3.01e-4 -0.01,-0.01029 -0.01,-0.01029 z m -74.96422,0.248855 c -0.007,0.0044 4.6e-4,0.0059 -0.007,0.0103 -0.005,0.0034 -0.0108,7.06e-4 -0.0163,0.0041 z m 71.60437,0 0.0259,0.0144 c -0.006,-0.004 -0.0132,-1.7e-4 -0.0195,-0.0041 -0.007,-0.0044 5.6e-4,-0.0059 -0.007,-0.01029 z m -51.50365,23.692555 c -2.3e-4,0.03514 -0.003,0.04893 -0.003,0.08433 -0.002,2.48e-4 -0.0843,0.0083 -0.0843,0.0083 v -0.0021 c 0.0239,-0.04778 0.0621,-0.04659 0.0875,-0.09049 z m 31.40617,0.0021 c 0.0248,0.04284 0.061,0.04193 0.0843,0.08843 l 0.003,0.0021 c 0,-5e-6 -0.085,-0.008 -0.0875,-0.0083 -2.3e-4,-0.03452 2.3e-4,-0.04799 0,-0.08228 z m -22.95111,47.501281 c -0.0826,-13.8394412 -0.16929,-35.519892 -0.19334,-48.178778 l -0.0434,-14.046443 0.63648,-0.796588 c 0.35006,-0.438118 0.98592,-1.006513 1.41303,-1.263083 l 1.42536,-0.09245 -0.78277,0.07886 c -0.3947,0.03976 -0.0434,7.383676 0.0668,26.817602 0.11049,19.4339218 0.23195,41.46035 0.26997,48.947616 l 0.0692,13.613226 -1.35583,0.0414 -1.35582,0.0414 z m 4.19931,6.309159 c -0.0852,-10.36253 -0.17226,-32.559996 -0.19304,-49.327694 l -0.0383,-21.517018 0.77455,-0.479742 c 0.426,-0.263856 0.98331,-0.518848 1.23842,-0.56663 l 0.69981,0.193655 -0.0916,9.242458 c 0.0793,10.170993 0.20968,32.6234378 0.28957,49.8943258 l 0.14523,31.4016282 h -1.33484 -1.33486 z m 4.25672,14.735954 c -0.0339,-2.257759 -0.0936,-10.957234 -0.13275,-19.332165 -0.0386,-8.3749342 -0.15177,-28.963163 -0.25066,-45.751624 -0.0989,-16.788461 -0.13483,-21.585538 -0.0796,-21.623147 0.28392,-0.193741 1.77218,0.570606 2.20667,1.13347 l 0.47786,0.619023 0.13008,13.76576 c 0.11821,12.504367 0.19542,34.56106778 0.27531,49.014585 l 0.14493,26.279127 h -1.35511 -1.35518 z m 4.1744,1.403427 c -0.0701,-1.485879 -0.22631,-23.574018 -0.34722,-49.08476 -0.12088,-25.510737 -0.28808,-37.562713 -0.37162,-37.745148 -0.13957,-0.305028 -0.11344,-0.318621 0.32755,-0.168941 0.75985,0.257889 1.97458,1.546202 2.32464,2.465449 0.27205,0.714726 0.34039,-3.893977 0.45084,19.870651 0.0716,15.39907 0.19542,36.8556708 0.2756,47.681332 l 0.14523,19.683029 h -1.33875 -1.33875 z m -14.95558,2.526162 c 0.0449,-0.0965 0.19275,-21.660444 0.32877,-47.9199092 0.24294,-46.8920418 0.25512,-38.7907628 0.68391,-39.6708758 0.23997,-0.492864 0.74361,-1.165017 1.11904,-1.493675 0.37545,-0.328667 0.63283,-0.629112 0.57203,-0.667669 -0.0609,-0.03855 -0.85085,0.393603 -1.75566,0.960365 -1.79746,1.125886 -2.98293,2.45845 -3.4762,3.907491 -0.19512,0.57297 -0.29016,-1.651701 -0.36961,17.204146 -0.0588,13.971088 -0.14701,-4.175482 -0.19601,-4.077459 -0.11135,0.222281 -9.50635,0.104394 -10.72229,-0.134532 -3.16415,-0.621724 -5.39402,-2.195831 -5.98563,-4.225422 -0.1479,-0.50763 -0.20819,-3.37158 -0.16632,-7.920175 0.0731,-7.927783 0.0867,-7.839352 -1.44272,-9.203831 -0.69864,-0.623155 -2.34005,-1.56211 -2.52532,-1.444601 -0.0523,0.03249 0.0805,0.270054 0.29224,0.528097 0.35654,0.434432 0.38164,1.201407 0.33875,10.363294 -0.0365,7.994916 0.0119,10.032594 0.2563,10.615433 0.62256,1.484005 2.58514,2.851679 4.80464,3.348282 1.06912,0.239222 4.15896,0.340658 10.56887,0.346853 l 4.48136,0.0043 v 0.429724 0.429721 l -7.24769,-0.04531 c -8.12058,-0.05072 -8.33424,-0.07392 -10.65986,-1.156536 -1.1689,-0.544177 -2.7004,-1.862898 -3.1594,-2.72045 -0.20641,-0.385351 -0.30581,-3.131833 -0.39313,-10.855942 -0.11613,-10.234518 -0.12176,-10.344125 -0.58275,-10.736193 -0.44386,-0.377337 -1.79555,-0.978713 -1.95349,-0.869007 -0.0419,0.02852 -0.11077,5.514692 -0.15562,12.191483 l -0.0811,12.13962 0.63722,0.874937 c 0.73969,1.015636 2.2945,2.011994 3.85139,2.468121 0.96032,0.281326 1.44305,0.308741 6.02332,0.342123 2.73864,0.01989 6.92129,0.05152 9.29476,0.07017 l 4.31544,0.03389 0.0692,0.45611 0.0695,0.456116 h -8.50401 c -4.76105,0 -9.0287,-0.0621 -9.69607,-0.141085 -2.91117,-0.344543 -5.36328,-1.568534 -6.68371,-3.336136 l -0.70486,-0.943572 -0.0419,-12.260921 c -0.0267,-6.743508 -0.0894,-12.289934 -0.14523,-12.325397 -0.21502,-0.136227 -1.45935,0.393982 -1.95111,0.831247 l -0.51546,0.45823 -0.14375,12.350132 c -0.0846,7.273948 -0.0606,12.638552 0.0585,13.051845 0.46527,1.616756 1.97678,2.846957 4.37391,3.559762 l 1.24372,0.369825 11.28651,0.07017 11.28654,0.07017 v 0.421025 0.421028 l -11.17585,-0.04361 c -12.30734,-0.04803 -12.29263,-0.04709 -14.51487,-0.943278 -1.22913,-0.495687 -2.44083,-1.361265 -3.14182,-2.24441 -0.98001,-1.234606 -1.00419,-1.63586 -0.88346,-14.666718 0.11079,-11.981194 0.12711,-12.347285 0.55793,-12.899816 0.24412,-0.312755 0.37014,-0.568665 0.28066,-0.568665 -0.3623,0 -1.91658,0.90071 -2.58835,1.499916 -1.58928,1.417583 -1.50847,0.610609 -1.50847,15.063378 v 12.984572 l 0.72603,0.935266 c 0.82103,1.057667 2.37934,2.040218 4.00112,2.522674 0.94672,0.281658 1.50964,0.313319 7.22326,0.406411 3.40807,0.05553 9.55757,0.107392 13.66553,0.115264 l 7.46901,0.01431 v 45.431167 c 0,14.253919 0.0339,15.781727 0.35007,15.858697 0.65878,0.16032 2.75813,0.0937 2.84342,-0.0902 z m 19.14432,0 c -0.0448,-0.09646 -0.19275,-21.660444 -0.32877,-47.9199092 -0.24294,-46.8920418 -0.25512,-38.7907628 -0.68391,-39.6708758 -0.23997,-0.492864 -0.74361,-1.165017 -1.11904,-1.493675 -0.37546,-0.328667 -0.63283,-0.629112 -0.57203,-0.667669 0.0609,-0.03855 0.85085,0.393603 1.75566,0.960365 1.79745,1.125886 2.98293,2.45845 3.4762,3.907491 0.19512,0.57297 0.29016,-1.651701 0.3696,17.204146 0.0588,13.971088 0.14702,-4.175482 0.19602,-4.077459 0.11138,0.222281 9.50634,0.104394 10.72229,-0.134532 3.16415,-0.621724 5.39402,-2.195831 5.98563,-4.225422 0.14789,-0.50763 0.20819,-3.37158 0.16631,-7.920175 -0.0731,-7.927783 -0.0867,-7.839352 1.44273,-9.203831 0.69864,-0.623155 2.34005,-1.56211 2.52532,-1.444601 0.0523,0.03249 -0.0805,0.270054 -0.29224,0.528097 -0.35654,0.434432 -0.38164,1.201407 -0.33875,10.363294 0.0365,7.994916 -0.0119,10.032594 -0.25631,10.615433 -0.62255,1.484005 -2.58513,2.851679 -4.80464,3.348282 -1.06911,0.239222 -4.15895,0.340658 -10.56886,0.346853 l -4.48136,0.0043 v 0.429724 0.429721 l 7.24769,-0.04531 c 8.12058,-0.05077 8.33424,-0.07396 10.65986,-1.156582 1.1689,-0.544141 2.7004,-1.862863 3.1594,-2.720414 0.20641,-0.385353 0.30581,-3.131833 0.39312,-10.855943 0.11612,-10.234518 0.12177,-10.344125 0.58276,-10.736192 0.44386,-0.377337 1.79555,-0.978713 1.95349,-0.869008 0.0419,0.02852 0.11078,5.514692 0.15562,12.191483 l 0.0811,12.139619 -0.63722,0.874939 c -0.73969,1.015636 -2.2945,2.011992 -3.85139,2.468121 -0.96032,0.281325 -1.44305,0.30874 -6.02332,0.342122 -2.73864,0.01989 -6.9213,0.05152 -9.29476,0.07018 l -4.31544,0.03388 -0.0692,0.456112 -0.0695,0.456115 h 8.50403 c 4.76104,0 9.02869,-0.0621 9.69606,-0.141086 2.91117,-0.344542 5.36328,-1.568533 6.68371,-3.336136 l 0.70485,-0.943564 0.0419,-12.260923 c 0.0267,-6.743508 0.0894,-12.289933 0.14522,-12.325396 0.21502,-0.136227 1.45936,0.393983 1.95112,0.831247 l 0.51546,0.458229 0.14375,12.350134 c 0.0846,7.273946 0.0606,12.638552 -0.0585,13.051843 -0.46527,1.616757 -1.97678,2.846958 -4.37392,3.559763 l -1.24371,0.369825 -11.28651,0.07017 -11.28655,0.07017 v 0.421024 0.421029 l 11.17587,-0.04359 c 12.30733,-0.04804 12.29263,-0.04709 14.51487,-0.943289 1.22912,-0.495686 2.44082,-1.361265 3.14181,-2.244409 0.98,-1.234606 1.00418,-1.635862 0.88345,-14.666718 -0.11078,-11.98123 -0.12713,-12.347321 -0.55794,-12.899852 -0.24413,-0.312754 -0.37014,-0.568666 -0.28066,-0.568666 0.3623,0 1.91658,0.90071 2.58834,1.499918 1.58929,1.417589 1.50848,0.610616 1.50848,15.063384 V -24.8654 l -0.72602,0.935266 c -0.82104,1.057667 -2.37935,2.040218 -4.00114,2.522674 -0.94671,0.281658 -1.50963,0.313319 -7.22325,0.406412 -3.40807,0.05552 -9.55757,0.107391 -13.66553,0.115263 l -7.46901,0.01431 v 45.431168 c 0,14.253919 -0.0339,15.781726 -0.35007,15.858696 -0.65878,0.16032 -2.75813,0.0937 -2.84343,-0.0902 z" /></g></g></svg>
