<?xml version="1.0" encoding="UTF-8" standalone="no"?>
<!-- Created with Inkscape (http://www.inkscape.org/) -->

<svg
   width="105.83334mm"
   height="105.83334mm"
   viewBox="0 0 105.83333 105.83333"
   version="1.1"
   id="svg1"
   xml:space="preserve"
   inkscape:version="1.4.2 (ebf0e940d0, 2025-05-08)"
   sodipodi:docname="tucson.svg"
   inkscape:export-filename="../pngs/tucson.png"
   inkscape:export-xdpi="96"
   inkscape:export-ydpi="96"
   xmlns:inkscape="http://www.inkscape.org/namespaces/inkscape"
   xmlns:sodipodi="http://sodipodi.sourceforge.net/DTD/sodipodi-0.dtd"
   xmlns="http://www.w3.org/2000/svg"
   xmlns:svg="http://www.w3.org/2000/svg"><sodipodi:namedview
     id="namedview1"
     pagecolor="#ffffff"
     bordercolor="#000000"
     borderopacity="0.25"
     inkscape:showpageshadow="2"
     inkscape:pageopacity="0.0"
     inkscape:pagecheckerboard="0"
     inkscape:deskcolor="#d1d1d1"
     inkscape:document-units="mm"
     inkscape:zoom="0.65834773"
     inkscape:cx="195.1856"
     inkscape:cy="-9.1137247"
     inkscape:window-width="1920"
     inkscape:window-height="1011"
     inkscape:window-x="0"
     inkscape:window-y="32"
     inkscape:window-maximized="1"
     inkscape:current-layer="layer1"
     showgrid="false"
     showguides="true" /><defs
     id="defs1" /><g
     inkscape:label="Capa 1"
     inkscape:groupmode="layer"
     id="layer1"><g
       id="g14"
       transform="matrix(0.9405021,0,0,0.9405021,86.303664,109.66557)"><path
         id="path9-1"
         style="fill:#cc0033;fill-opacity:1;stroke:#ffffff;stroke-width:3.904;stroke-dasharray:none;stroke-opacity:1"
         d="m -71.969464,-109.45119 c -0.26089,-0.0157 -0.57878,-0.0191 -0.9263,0.0154 l 4.9e-4,5e-4 c -0.22585,0.0226 -0.27719,0.0671 -0.34792,0.10353 -0.43139,-0.057 -0.8589,-0.0988 -1.15128,-0.0866 -0.64615,0.0269 -1.07929,0.12692 -1.34688,0.19163 -0.32293,0.0781 -0.50891,0.15802 -0.71526,0.23742 -0.17782,-0.0727 -0.33775,-0.17719 -0.79539,-0.17719 -1.22206,0 -1.88002,0.281 -2.00939,0.32353 -0.32965,0.10836 -0.57243,0.21121 -0.77101,0.30113 -0.41095,0.18608 -0.76491,0.37942 -1.10996,0.57937 -0.68633,0.39773 -1.37964,0.84233 -2.03179,1.42404 -0.72118,0.64326 -2.05049,2.0674 -2.28015,4.36073 -0.20856,2.0826 -0.17124,5.430524 -0.17123,12.651613 v 13.809863 l 1.27373,1.640559 c 1.35246,1.742257 3.4585,3.05755 6.05554,3.830128 0.7679,0.228459 1.90274,0.431784 3.15468,0.502222 1.2075,0.06793 2.77993,0.0947 5.6439,0.141359 3.46594,0.05647 9.60741,0.110513 13.75562,0.118463 l 3.20197,0.0055 v 42.361364 c 0,7.128911 0.0111,13.184969 0.0602,15.413355 0.0246,1.11048 0.0491,1.7873796 0.11996,2.3478496 0.0297,0.23504 0.0782,0.58598 0.2409,0.98752 0.062,0.15312 33.17804,0.15225 33.23974,-7e-5 0.1627,-0.40157 0.21071,-0.7506 0.24041,-0.98553 0.0704,-0.55633 0.0998,-1.2374496 0.12444,-2.3498396 0.0493,-2.229456 0.0563,-8.284761 0.0563,-15.413356 v -42.361315 l 3.20595,-0.0055 c 4.14823,-0.0079 10.2857002,-0.06248 13.7516302,-0.11896 2.86397,-0.04667 4.43642,-0.07293 5.6439,-0.140861 1.25185,-0.07043 2.38941,-0.273509 3.15817,-0.502222 2.59727,-0.772648 4.7001558,-2.08856 6.0520658,-3.830128 l 1.27372,-1.640559 v -13.810337 c 0,-7.221089 0.0374,-10.568518 -0.17122,-12.651118 -0.22955,-2.29224 -1.55374,-3.71635 -2.27618,-4.36072 -0.653536,-0.58295 -1.350656,-1.02703 -2.035776,-1.42404 -0.3450298,-0.19996 -0.7005098,-0.39329 -1.1114498,-0.57938 -0.19858,-0.0899 -0.44186,-0.19277 -0.77151,-0.30113 -0.751184,-0.24689 -5.04425,-0.65453 -6.16852,-0.47584 -0.68881,-0.0981 -1.29933005,-0.12427 -1.70427005,-0.0732 -0.57143,0.0721 -0.92576,0.1824 -1.12539,0.2424 -0.24546,0.0738 -0.39400995,0.14189 -0.56792995,0.21254 -0.0554,-0.0157 -0.0677,-0.0161 -0.14087,-0.0393 -0.17272,-0.0547 -0.33815,-0.15354 -0.75457,-0.14285 -0.66346,0.017 -1.10718,0.12189 -1.33942,0.17869 -0.53366,0.1305 -0.8565,0.27147 -1.04427,0.3514 -0.45952,0.1956 -0.81813,0.38857 -1.1682,0.58883 -0.69996,0.40041 -1.42239,0.8566 -2.10097,1.46187 -0.83646,0.74624 -1.95745,1.98133 -2.2313802,3.72859 -0.24298,1.54985 -0.1853,3.485735 -0.14882,7.444234 0.7801252,7.589674 -0.612462,9.191992 -7.72793,9.289299 -0.31957,0.0039 -0.58,2.37e-4 -0.85761,0 -0.023,-3.329486 -0.0413,-7.371679 -0.0757,-8.480535 -0.0296,-0.954582 -0.0378,-1.388756 -0.15579,-1.911282 -0.0789,-0.349357 -0.19486,-0.517168 -0.28422,-0.673445 -0.75986,-2.080464 -2.41888,-3.888861 -4.70664,-5.321861 -0.50772,-0.31803 -0.9808,-0.60051 -1.40712,-0.83372 -0.20358,-0.11137 -0.41129,-0.22185 -0.68887,-0.34792 -0.10023,-0.0455 -0.31202,-0.14501 -0.67346,-0.25933 -0.12136,-0.0384 -0.46778,-0.15457 -1.03082,-0.22597 -0.27113,-0.0344 -0.7228,-0.0783 -1.32648,-0.0244 -0.2366,0.0211 -0.44961,0.065 -0.65254,0.10552 -0.14596,0.0292 -0.23092,0.0501 -0.3086,0.0677 -0.10744,-0.0206 -0.16591,-0.0415 -0.36684,-0.0528 -0.26746,-0.015 -0.30211,0.0252 -0.38376,0.0543 -0.0828,-0.0776 -0.0436,-0.0914 -0.30461,-0.22548 -0.39577,-0.20327 -0.86374,-0.42471 -1.5445,-0.61919 -0.30877,-0.0882 -0.80698,-0.21974 -1.55395,-0.25733 -0.42583,-0.0214 -0.93572,0.0585 -1.45441,0.15778 l -0.76752,-0.21253 -1.37127,0.25584 h -0.002 c -1.10008,0.20604 -1.51881,0.4681 -1.77396,0.58484 -0.2839,0.1299 -0.55801,0.28785 -0.83321,0.44399 -0.0289,-0.0127 -0.0631,-0.0266 -0.0831,-0.0353 -0.0167,-0.007 -0.03,-0.0128 -0.0393,-0.0169 -0.005,-0.002 -0.009,-0.005 -0.0115,-0.006 -0.002,-6.7e-4 -0.002,-0.001 -0.004,-0.002 l -0.0358,-0.0149 c 0,0 -0.13863,-0.0407 -0.14136,-0.0413 -0.003,-6.3e-4 -0.004,-0.002 -0.006,-0.002 -0.003,-6.1e-4 -0.005,-0.001 -0.008,-0.002 -0.006,-10e-4 -0.0127,-0.003 -0.0224,-0.005 -0.0196,-0.004 -0.0469,-0.01 -0.0806,-0.0169 -0.0673,-0.0144 -0.15998,-0.0345 -0.26182,-0.0548 -0.20366,-0.0405 -0.41632,-0.0844 -0.65254,-0.10552 -0.60327,-0.0539 -1.05235,-0.009 -1.3225,0.0249 -0.56302,0.0714 -0.9114,0.18707 -1.03282,0.22548 -0.35958,0.11374 -0.5692,0.21157 -0.67542,0.25982 -0.2806,0.12744 -0.48729,0.23873 -0.68689,0.34792 -0.42435,0.23212 -0.89973,0.51415 -1.40911,0.83322 -2.29204,1.43569 -3.95244,3.24662 -4.71014,5.33132 -0.087,0.150654 -0.20139,0.312765 -0.28073,0.664486 -0.1189,0.527172 -0.12473,0.956935 -0.15429,1.90934 -0.0344,1.107462 -0.0537,5.152391 -0.0772,8.482526 -0.27652,2.39e-4 -0.53483,0.004 -0.85363,0 -7.668347,0.449168 -7.785197,-2.24805 -7.72912,-9.289807 0.0364,-3.958502 0.0941,-5.893925 -0.14882,-7.443735 -0.27404,-1.74883 -1.39948,-2.98336 -2.23488,-3.72864 -0.67859,-0.60527 -1.403,-1.06147 -2.10295,-1.46187 -0.35008,-0.20027 -0.70919,-0.39323 -1.16871,-0.58883 -0.18776,-0.0799 -0.50811,-0.2214 -1.04177,-0.35191 -0.23223,-0.0568 -0.67595,-0.16165 -1.33943,-0.17869 -0.41716,-0.0108 -0.58259,0.0881 -0.75457,0.14286 -0.0732,0.0233 -0.0858,0.0242 -0.14087,0.0398 -0.17463,-0.0705 -0.32483,-0.13932 -0.56841,-0.21254 -0.19704,-0.0592 -0.55097,-0.17072 -1.12291,-0.2429 -0.11957,-0.0151 -0.32347,-0.043 -0.58435,-0.0587 z m -3.27167,0.88299 0.14734,0.22398 c -0.0142,0.003 -0.0236,0.005 -0.0374,0.008 l -0.16078,-0.19959 c -1.2e-4,1e-4 0.0307,-0.0192 0.0508,-0.0319 z m 3.86398,0.0657 c -3.5e-4,2e-5 -0.15472,0.0482 -0.27824,0.0866 -0.0148,-0.002 -0.0345,-0.003 -0.0503,-0.005 0.007,-0.003 0.0148,-0.009 0.0219,-0.0119 0.0636,-0.0257 0.12097,-0.0411 0.16723,-0.0508 0.0926,-0.0193 0.13968,-0.0189 0.13938,-0.0189 z"
         sodipodi:nodetypes="ccccsscsssscssccsssccscssscssccsscccsssssscsscssssscsccccccssssssscscsssccccscscccccsscsssssssscsscccccssscscsssccccccccsssssc" /><path
         id="path9"
         style="fill:#cc0033;fill-opacity:1;stroke:none;stroke-width:3.404;stroke-dasharray:none;stroke-opacity:1"
         d="m -71.969464,-109.45119 c -0.26089,-0.0157 -0.57878,-0.0191 -0.9263,0.0154 l 4.9e-4,5e-4 c -0.22585,0.0226 -0.27719,0.0671 -0.34792,0.10353 -0.43139,-0.057 -0.8589,-0.0988 -1.15128,-0.0866 -0.64615,0.0269 -1.07929,0.12692 -1.34688,0.19163 -0.32293,0.0781 -0.50891,0.15802 -0.71526,0.23742 -0.17782,-0.0727 -0.33775,-0.17719 -0.79539,-0.17719 -1.22206,0 -1.88002,0.281 -2.00939,0.32353 -0.32965,0.10836 -0.57243,0.21121 -0.77101,0.30113 -0.41095,0.18608 -0.76491,0.37942 -1.10996,0.57937 -0.68633,0.39773 -1.37964,0.84233 -2.03179,1.42404 -0.72118,0.64326 -2.05049,2.0674 -2.28015,4.36073 -0.20856,2.0826 -0.17124,5.430524 -0.17123,12.651613 v 13.809863 l 1.27373,1.640559 c 1.35246,1.742257 3.4585,3.05755 6.05554,3.830128 0.7679,0.228459 1.90274,0.431784 3.15468,0.502222 1.2075,0.06793 2.77993,0.0947 5.6439,0.141359 3.46594,0.05647 9.60741,0.110513 13.75562,0.118463 l 3.20197,0.0055 v 42.361364 c 0,7.128911 0.0111,13.184969 0.0602,15.413355 0.0246,1.11048 0.0491,1.7873796 0.11996,2.3478496 0.0297,0.23504 0.0782,0.58598 0.2409,0.98752 0.062,0.15312 33.17804,0.15225 33.23974,-7e-5 0.1627,-0.40157 0.21071,-0.7506 0.24041,-0.98553 0.0704,-0.55633 0.0998,-1.2374496 0.12444,-2.3498396 0.0493,-2.229456 0.0563,-8.284761 0.0563,-15.413356 v -42.361315 l 3.20595,-0.0055 c 4.14823,-0.0079 10.2857002,-0.06248 13.7516302,-0.11896 2.86397,-0.04667 4.43642,-0.07293 5.6439,-0.140861 1.25185,-0.07043 2.38941,-0.273509 3.15817,-0.502222 2.59727,-0.772648 4.7001558,-2.08856 6.0520658,-3.830128 l 1.27372,-1.640559 v -13.810337 c 0,-7.221089 0.0374,-10.568518 -0.17122,-12.651118 -0.22955,-2.29224 -1.55374,-3.71635 -2.27618,-4.36072 -0.653536,-0.58295 -1.350656,-1.02703 -2.035776,-1.42404 -0.3450298,-0.19996 -0.7005098,-0.39329 -1.1114498,-0.57938 -0.19858,-0.0899 -0.44186,-0.19277 -0.77151,-0.30113 -0.751184,-0.24689 -5.04425,-0.65453 -6.16852,-0.47584 -0.68881,-0.0981 -1.29933005,-0.12427 -1.70427005,-0.0732 -0.57143,0.0721 -0.92576,0.1824 -1.12539,0.2424 -0.24546,0.0738 -0.39400995,0.14189 -0.56792995,0.21254 -0.0554,-0.0157 -0.0677,-0.0161 -0.14087,-0.0393 -0.17272,-0.0547 -0.33815,-0.15354 -0.75457,-0.14285 -0.66346,0.017 -1.10718,0.12189 -1.33942,0.17869 -0.53366,0.1305 -0.8565,0.27147 -1.04427,0.3514 -0.45952,0.1956 -0.81813,0.38857 -1.1682,0.58883 -0.69996,0.40041 -1.42239,0.8566 -2.10097,1.46187 -0.83646,0.74624 -1.95745,1.98133 -2.2313802,3.72859 -0.24298,1.54985 -0.1853,3.485735 -0.14882,7.444234 0.7801252,7.589674 -0.612462,9.191992 -7.72793,9.289299 -0.31957,0.0039 -0.58,2.37e-4 -0.85761,0 -0.023,-3.329486 -0.0413,-7.371679 -0.0757,-8.480535 -0.0296,-0.954582 -0.0378,-1.388756 -0.15579,-1.911282 -0.0789,-0.349357 -0.19486,-0.517168 -0.28422,-0.673445 -0.75986,-2.080464 -2.41888,-3.888861 -4.70664,-5.321861 -0.50772,-0.31803 -0.9808,-0.60051 -1.40712,-0.83372 -0.20358,-0.11137 -0.41129,-0.22185 -0.68887,-0.34792 -0.10023,-0.0455 -0.31202,-0.14501 -0.67346,-0.25933 -0.12136,-0.0384 -0.46778,-0.15457 -1.03082,-0.22597 -0.27113,-0.0344 -0.7228,-0.0783 -1.32648,-0.0244 -0.2366,0.0211 -0.44961,0.065 -0.65254,0.10552 -0.14596,0.0292 -0.23092,0.0501 -0.3086,0.0677 -0.10744,-0.0206 -0.16591,-0.0415 -0.36684,-0.0528 -0.26746,-0.015 -0.30211,0.0252 -0.38376,0.0543 -0.0828,-0.0776 -0.0436,-0.0914 -0.30461,-0.22548 -0.39577,-0.20327 -0.86374,-0.42471 -1.5445,-0.61919 -0.30877,-0.0882 -0.80698,-0.21974 -1.55395,-0.25733 -0.42583,-0.0214 -0.93572,0.0585 -1.45441,0.15778 l -0.76752,-0.21253 -1.37127,0.25584 h -0.002 c -1.10008,0.20604 -1.51881,0.4681 -1.77396,0.58484 -0.2839,0.1299 -0.55801,0.28785 -0.83321,0.44399 -0.0289,-0.0127 -0.0631,-0.0266 -0.0831,-0.0353 -0.0167,-0.007 -0.03,-0.0128 -0.0393,-0.0169 -0.005,-0.002 -0.009,-0.005 -0.0115,-0.006 -0.002,-6.7e-4 -0.002,-0.001 -0.004,-0.002 l -0.0358,-0.0149 c 0,0 -0.13863,-0.0407 -0.14136,-0.0413 -0.003,-6.3e-4 -0.004,-0.002 -0.006,-0.002 -0.003,-6.1e-4 -0.005,-0.001 -0.008,-0.002 -0.006,-10e-4 -0.0127,-0.003 -0.0224,-0.005 -0.0196,-0.004 -0.0469,-0.01 -0.0806,-0.0169 -0.0673,-0.0144 -0.15998,-0.0345 -0.26182,-0.0548 -0.20366,-0.0405 -0.41632,-0.0844 -0.65254,-0.10552 -0.60327,-0.0539 -1.05235,-0.009 -1.3225,0.0249 -0.56302,0.0714 -0.9114,0.18707 -1.03282,0.22548 -0.35958,0.11374 -0.5692,0.21157 -0.67542,0.25982 -0.2806,0.12744 -0.48729,0.23873 -0.68689,0.34792 -0.42435,0.23212 -0.89973,0.51415 -1.40911,0.83322 -2.29204,1.43569 -3.95244,3.24662 -4.71014,5.33132 -0.087,0.150654 -0.20139,0.312765 -0.28073,0.664486 -0.1189,0.527172 -0.12473,0.956935 -0.15429,1.90934 -0.0344,1.107462 -0.0537,5.152391 -0.0772,8.482526 -0.27652,2.39e-4 -0.53483,0.004 -0.85363,0 -7.668347,0.449168 -7.785197,-2.24805 -7.72912,-9.289807 0.0364,-3.958502 0.0941,-5.893925 -0.14882,-7.443735 -0.27404,-1.74883 -1.39948,-2.98336 -2.23488,-3.72864 -0.67859,-0.60527 -1.403,-1.06147 -2.10295,-1.46187 -0.35008,-0.20027 -0.70919,-0.39323 -1.16871,-0.58883 -0.18776,-0.0799 -0.50811,-0.2214 -1.04177,-0.35191 -0.23223,-0.0568 -0.67595,-0.16165 -1.33943,-0.17869 -0.41716,-0.0108 -0.58259,0.0881 -0.75457,0.14286 -0.0732,0.0233 -0.0858,0.0242 -0.14087,0.0398 -0.17463,-0.0705 -0.32483,-0.13932 -0.56841,-0.21254 -0.19704,-0.0592 -0.55097,-0.17072 -1.12291,-0.2429 -0.11957,-0.0151 -0.32347,-0.043 -0.58435,-0.0587 z m -3.27167,0.88299 0.14734,0.22398 c -0.0142,0.003 -0.0236,0.005 -0.0374,0.008 l -0.16078,-0.19959 c -1.2e-4,1e-4 0.0307,-0.0192 0.0508,-0.0319 z m 3.86398,0.0657 c -3.5e-4,2e-5 -0.15472,0.0482 -0.27824,0.0866 -0.0148,-0.002 -0.0345,-0.003 -0.0503,-0.005 0.007,-0.003 0.0148,-0.009 0.0219,-0.0119 0.0636,-0.0257 0.12097,-0.0411 0.16723,-0.0508 0.0926,-0.0193 0.13968,-0.0189 0.13938,-0.0189 z"
         sodipodi:nodetypes="ccccsscsssscssccsssccscssscssccsscccsssssscsscssssscsccccccssssssscscsssccccscscccccsscsssssssscsscccccssscscsssccccccccsssssc" /><path
         style="fill:#ffffff;fill-opacity:1;stroke:none;stroke-width:1.99669;stroke-dasharray:none"
         d="m -26.210527,-11.94541 c -0.0448,-0.0965 -0.19275,-21.660449 -0.32877,-47.919913 -0.24294,-46.892047 -0.25512,-38.790763 -0.68391,-39.670876 -0.23997,-0.492861 -0.74361,-1.165021 -1.11904,-1.493671 -0.37546,-0.32867 -0.63283,-0.62912 -0.57203,-0.66767 0.0609,-0.0386 0.85085,0.3936 1.75566,0.96036 1.79745,1.125888 2.98293,2.458452 3.4762,3.907493 0.19512,0.57297 0.29016,-1.651701 0.3696,17.204146 0.0588,13.971088 0.14702,-4.175482 0.19602,-4.077459 0.11138,0.222281 9.50634,0.104394 10.72229,-0.134532 3.16415,-0.621724 5.39402,-2.195831 5.98563,-4.225422 0.14789,-0.50763 0.20819,-3.37158 0.16631,-7.920175 -0.0731,-7.927781 -0.0867,-7.839351 1.44273,-9.203831 0.69864,-0.62316 2.34005,-1.56211 2.52532,-1.4446 0.0523,0.0325 -0.0805,0.27005 -0.29224,0.5281 -0.35654,0.43443 -0.38164,1.2014 -0.33875,10.36329 0.0365,7.994916 -0.0119,10.032594 -0.25631,10.615433 -0.62255,1.484005 -2.58513,2.851679 -4.80464,3.348282 -1.06911,0.239222 -4.15895,0.340658 -10.56886,0.346853 l -4.48136,0.0043 v 0.429724 0.429721 l 7.24769,-0.04531 c 8.12058,-0.05077 8.33424,-0.07396 10.65986,-1.156582 1.1689,-0.544141 2.7004,-1.862863 3.1594,-2.720414 0.20641,-0.385353 0.30581,-3.131833 0.39312,-10.855943 0.11612,-10.234514 0.12177,-10.344124 0.58276,-10.736194 0.44386,-0.37734 1.79555,-0.97871 1.95349,-0.86901 0.0419,0.0285 0.11078,5.5147 0.15562,12.191487 l 0.0811,12.139619 -0.63722,0.874939 c -0.73969,1.015636 -2.2945,2.011992 -3.85139,2.468121 -0.96032,0.281325 -1.44305,0.30874 -6.02332,0.342122 -2.73864,0.01989 -6.9213,0.05152 -9.29476,0.07018 l -4.31544,0.03388 -0.0692,0.456112 -0.0695,0.456115 h 8.50403 c 4.76104,0 9.02869,-0.0621 9.69606,-0.141086 2.91117,-0.344542 5.36328,-1.568533 6.68371,-3.336136 l 0.70485,-0.943564 0.0419,-12.260923 c 0.0267,-6.743506 0.0894,-12.289936 0.14522,-12.325396 0.21502,-0.13623 1.45936,0.39398 1.95112,0.83125 l 0.51546,0.45823 0.14375,12.35013 c 0.0846,7.273946 0.0606,12.638552 -0.0585,13.051843 -0.46527,1.616757 -1.97678,2.846958 -4.37392,3.559763 l -1.24371,0.369825 -11.28651,0.07017 -11.28655,0.07017 v 0.421024 0.421029 l 11.17587,-0.04359 c 12.30733,-0.04804 12.29263,-0.04709 14.51487,-0.943289 1.22912,-0.495686 2.44082,-1.361265 3.14181,-2.244409 0.98,-1.234606 1.00418,-1.635862 0.88345,-14.666718 -0.11078,-11.981228 -0.12713,-12.347318 -0.55794,-12.899848 -0.24413,-0.31276 -0.37014,-0.56867 -0.28066,-0.56867 0.3623,0 1.91658,0.90071 2.58834,1.49992 1.58929,1.41759 1.50848,0.61061 1.50848,15.063382 v 12.984585 l -0.72602,0.935266 c -0.82104,1.057667 -2.37935,2.040218 -4.00114,2.522674 -0.94671,0.281658 -1.50963,0.313319 -7.22325,0.406412 -3.40807,0.05552 -9.55757,0.107391 -13.66553,0.115263 l -7.46901,0.01431 v 45.431168 c 0,14.253915 -0.0339,15.78173 -0.35007,15.8587 -0.65878,0.16032 -2.75813,0.0937 -2.84343,-0.0902 z"
         id="path14" /><path
         style="fill:#ffffff;fill-opacity:1;stroke:none;stroke-width:1.99669;stroke-dasharray:none"
         d="m -45.354847,-11.94541 c 0.0449,-0.0965 0.19275,-21.660449 0.32877,-47.919913 0.24294,-46.892047 0.25512,-38.790763 0.68391,-39.670876 0.23997,-0.492861 0.74361,-1.165021 1.11904,-1.493671 0.37545,-0.32867 0.63283,-0.62912 0.57203,-0.66767 -0.0609,-0.0386 -0.85085,0.3936 -1.75566,0.96036 -1.79746,1.125888 -2.98293,2.458452 -3.4762,3.907493 -0.19512,0.57297 -0.29016,-1.651701 -0.36961,17.204146 -0.0588,13.971088 -0.14701,-4.175482 -0.19601,-4.077459 -0.11135,0.222281 -9.50635,0.104394 -10.72229,-0.134532 -3.16415,-0.621724 -5.39402,-2.195831 -5.98563,-4.225422 -0.1479,-0.50763 -0.20819,-3.37158 -0.16632,-7.920175 0.0731,-7.927781 0.0867,-7.839351 -1.44272,-9.203831 -0.69864,-0.62316 -2.340053,-1.56211 -2.525323,-1.4446 -0.0523,0.0325 0.0805,0.27005 0.29224,0.5281 0.35654,0.43443 0.38164,1.2014 0.33875,10.36329 -0.0365,7.994916 0.0119,10.032594 0.2563,10.615433 0.622563,1.484005 2.585143,2.851679 4.804643,3.348282 1.06912,0.239222 4.15896,0.340658 10.56887,0.346853 l 4.48136,0.0043 v 0.429724 0.429721 l -7.24769,-0.04531 c -8.12058,-0.05072 -8.33424,-0.07392 -10.65986,-1.156536 -1.1689,-0.544177 -2.700403,-1.862898 -3.159403,-2.72045 -0.20641,-0.385351 -0.30581,-3.131833 -0.39313,-10.855942 -0.11613,-10.234515 -0.12176,-10.344125 -0.58275,-10.736195 -0.44386,-0.37734 -1.79555,-0.97871 -1.95349,-0.86901 -0.0419,0.0285 -0.11077,5.5147 -0.15562,12.191488 l -0.0811,12.13962 0.63722,0.874937 c 0.73969,1.015636 2.2945,2.011994 3.85139,2.468121 0.960323,0.281326 1.443053,0.308741 6.023323,0.342123 2.73864,0.01989 6.92129,0.05152 9.29476,0.07017 l 4.31544,0.03389 0.0692,0.45611 0.0695,0.456116 h -8.50401 c -4.76105,0 -9.0287,-0.0621 -9.69607,-0.141085 -2.911173,-0.344543 -5.363283,-1.568534 -6.683713,-3.336136 l -0.70486,-0.943572 -0.0419,-12.260921 c -0.0267,-6.743511 -0.0894,-12.289931 -0.14523,-12.325401 -0.21502,-0.13622 -1.45935,0.39399 -1.951109,0.83125 l -0.51546,0.45823 -0.14375,12.350133 c -0.0846,7.273948 -0.0606,12.638552 0.0585,13.051845 0.46527,1.616756 1.976779,2.846957 4.373909,3.559762 l 1.24372,0.369825 11.286513,0.07017 11.28654,0.07017 v 0.421025 0.421028 l -11.17585,-0.04361 c -12.307343,-0.04803 -12.292633,-0.04709 -14.514873,-0.943278 -1.22913,-0.495687 -2.440829,-1.361265 -3.141819,-2.24441 -0.98001,-1.234606 -1.00419,-1.63586 -0.88346,-14.666718 0.11079,-11.981192 0.12711,-12.347282 0.55793,-12.899812 0.24412,-0.31276 0.37014,-0.56867 0.28066,-0.56867 -0.3623,0 -1.91658,0.90071 -2.58835,1.49992 -1.58928,1.41758 -1.50847,0.61061 -1.50847,15.063375 v 12.984572 l 0.72603,0.935266 c 0.82103,1.057667 2.37934,2.040218 4.00112,2.522674 0.946719,0.281658 1.509639,0.313319 7.223259,0.406411 3.408073,0.05553 9.557573,0.107392 13.665533,0.115264 l 7.46901,0.01431 v 45.431167 c 0,14.253916 0.0339,15.781731 0.35007,15.858701 0.65878,0.16032 2.75813,0.0937 2.84342,-0.0902 z"
         id="path13" /><path
         style="fill:#ffffff;fill-opacity:1;stroke:none;stroke-width:1.99669;stroke-dasharray:none"
         d="m -30.399267,-14.471576 c -0.0701,-1.485879 -0.22631,-23.574019 -0.34722,-49.08476 -0.12088,-25.510737 -0.28808,-37.562714 -0.37162,-37.745144 -0.13957,-0.30503 -0.11344,-0.31862 0.32755,-0.16895 0.75985,0.25789 1.97458,1.546207 2.32464,2.465454 0.27205,0.714726 0.34039,-3.893974 0.45084,19.870651 0.0716,15.39907 0.19542,36.855671 0.2756,47.681332 l 0.14523,19.683033 h -1.33875 -1.33875 z"
         id="path12" /><path
         style="fill:#ffffff;fill-opacity:1;stroke:none;stroke-width:1.99669;stroke-dasharray:none"
         d="m -34.573667,-15.875003 c -0.0339,-2.257759 -0.0936,-10.957234 -0.13275,-19.332166 -0.0386,-8.374933 -0.15177,-28.963162 -0.25066,-45.751623 -0.0989,-16.788461 -0.13483,-21.585538 -0.0796,-21.623148 0.28392,-0.19374 1.77218,0.57061 2.20667,1.13347 l 0.47786,0.61902 0.13008,13.765764 c 0.11821,12.504367 0.19542,34.561069 0.27531,49.014584 l 0.14493,26.279132 h -1.35511 -1.35518 z"
         id="path11" /><path
         style="fill:#ffffff;fill-opacity:1;stroke:none;stroke-width:1.99669;stroke-dasharray:none"
         d="m -38.830387,-30.610957 c -0.0852,-10.36253 -0.17226,-32.559996 -0.19304,-49.327694 l -0.0383,-21.517019 0.77455,-0.47974 c 0.426,-0.26386 0.98331,-0.51885 1.23842,-0.56663 l 0.69981,0.19365 -0.0916,9.242462 c 0.0793,10.170993 0.20968,32.623438 0.28957,49.894326 l 0.14523,31.401632 h -1.33484 -1.33486 z"
         id="path10" /><path
         style="fill:#ffffff;fill-opacity:1;stroke:none;stroke-width:1.99669;stroke-dasharray:none"
         d="m -43.029697,-36.920117 c -0.0826,-13.83944 -0.16929,-35.519891 -0.19334,-48.178777 l -0.0434,-14.046443 0.63648,-0.796588 c 0.35006,-0.438115 0.98592,-1.006515 1.41303,-1.263085 l 1.42536,-0.0924 -0.78277,0.0789 c -0.3947,0.0398 -0.0434,7.383678 0.0668,26.817604 0.11049,19.433923 0.23195,41.460349 0.26997,48.947616 l 0.0692,13.61323 -1.35583,0.0414 -1.35582,0.0414 z"
         id="path7" /><path
         style="fill:#ffffff;fill-opacity:1;stroke:none;stroke-width:1.99669;stroke-dasharray:none"
         d="m -20.078587,-84.421397 c 0.0248,0.04284 0.061,0.04193 0.0843,0.08843 l 0.003,0.0021 c 0,-5e-6 -0.085,-0.008 -0.0875,-0.0083 -2.3e-4,-0.03452 2.3e-4,-0.04799 0,-0.08228 z"
         id="path6" /><path
         style="fill:#ffffff;fill-opacity:1;stroke:none;stroke-width:1.99669;stroke-dasharray:none"
         d="m -51.484757,-84.423497 c -2.3e-4,0.03514 -0.003,0.04893 -0.003,0.08433 -0.002,2.48e-4 -0.0843,0.0083 -0.0843,0.0083 v -0.0021 c 0.0239,-0.04778 0.0621,-0.04659 0.0875,-0.09049 z"
         id="path5" /><path
         style="fill:#ffffff;fill-opacity:1;stroke:none;stroke-width:1.99669;stroke-dasharray:none"
         d="m 0.018893,-108.11605 0.0259,0.0144 c -0.006,-0.004 -0.0132,-1.7e-4 -0.0195,-0.004 -0.007,-0.004 5.6e-4,-0.006 -0.007,-0.0103 z"
         id="path4" /><path
         style="fill:#ffffff;fill-opacity:1;stroke:none;stroke-width:1.99669;stroke-dasharray:none"
         d="m -71.58548,-108.11605 c -0.007,0.004 4.6e-4,0.006 -0.007,0.0103 -0.005,0.003 -0.0108,7e-4 -0.0163,0.004 z"
         id="path3" /><path
         style="fill:#ffffff;fill-opacity:1;stroke:none;stroke-width:1.99669;stroke-dasharray:none"
         d="m 3.378743,-108.36491 0.0227,0.0144 c -0.004,-0.003 -0.009,-0.001 -0.013,-0.004 -3e-4,-3e-4 -0.01,-0.0103 -0.01,-0.0103 z"
         id="path2" /><path
         style="fill:#ffffff;fill-opacity:1;stroke:none;stroke-width:1.99669;stroke-dasharray:none"
         d="m -74.94209,-108.36491 c 0,0 -0.009,0.01 -0.01,0.0103 -0.004,0.003 -0.009,10e-4 -0.013,0.004 z"
         id="path1" /></g></g></svg>
