<?xml version="1.0" encoding="UTF-8" standalone="no"?>
<!-- Created with Inkscape (http://www.inkscape.org/) -->

<svg
   width="105.83334mm"
   height="105.83334mm"
   viewBox="0 0 105.83333 105.83333"
   version="1.1"
   id="svg1"
   xml:space="preserve"
   inkscape:version="1.4 (e7c3feb100, 2024-10-09)"
   sodipodi:docname="tulsa.svg"
   inkscape:export-filename="../pngs/maine.png"
   inkscape:export-xdpi="96"
   inkscape:export-ydpi="96"
   xmlns:inkscape="http://www.inkscape.org/namespaces/inkscape"
   xmlns:sodipodi="http://sodipodi.sourceforge.net/DTD/sodipodi-0.dtd"
   xmlns="http://www.w3.org/2000/svg"
   xmlns:svg="http://www.w3.org/2000/svg"><sodipodi:namedview
     id="namedview1"
     pagecolor="#ffffff"
     bordercolor="#000000"
     borderopacity="0.25"
     inkscape:showpageshadow="2"
     inkscape:pageopacity="0.0"
     inkscape:pagecheckerboard="0"
     inkscape:deskcolor="#d1d1d1"
     inkscape:document-units="mm"
     inkscape:zoom="1.5162605"
     inkscape:cx="197.85518"
     inkscape:cy="199.83373"
     inkscape:window-width="1920"
     inkscape:window-height="1011"
     inkscape:window-x="0"
     inkscape:window-y="32"
     inkscape:window-maximized="1"
     inkscape:current-layer="layer1"
     showgrid="false"
     showguides="true" /><defs
     id="defs1" /><g
     inkscape:label="Capa 1"
     inkscape:groupmode="layer"
     id="layer1"><g
       id="g8"
       transform="translate(-0.50031689,1.0711303)"><path
         style="fill:#c8102e;fill-opacity:1;stroke:none;stroke-width:5.99199;stroke-dasharray:none;stroke-opacity:1"
         d="m 29.949762,33.54919 -4.318586,3.701648 2.467762,7.033128 c 0,0 6.2928,5.305692 6.416189,5.799246 0.123388,0.493551 4.688752,8.143621 4.812141,8.637174 0.123388,0.493551 0.123388,1.97421 0.123388,1.97421 0,0 -10.858164,-2.097598 -11.475105,-2.097598 -0.616941,0 -14.683196,-1.110493 -14.683196,-1.110493 l -8.3903978,2.71454 -2.961317,5.922634 7.5266811,-3.701648 c 0,0 6.2927977,-0.987104 5.7992447,0.123389 -0.493553,1.110493 -7.6500687,12.708985 -7.6500687,12.708985 l 28.0091227,0.123388 2.837929,6.539577 c 0,0 -0.987105,0.863716 -0.987105,1.35727 0,0.493551 2.467763,4.812139 2.467763,4.812139 l 5.305692,5.305694 4.071813,2.714541 8.020233,1.604047 c 0,0 -4.441976,-3.701648 -4.441976,-4.318588 0,-0.616942 0.740331,-3.701647 0.740331,-3.701647 l 12.462208,-6.292797 2.220986,-7.896847 27.885737,-0.370165 7.156519,-11.968655 -27.268797,-0.370165 c 0,0 0.616939,-7.773458 0.616939,-8.26701 0,-0.493553 -7.279902,-9.130728 -7.773455,-9.624282 C 68.446883,44.407354 59.06938,37.867778 58.452438,37.374227 57.835499,36.880673 44.139406,32.315309 44.139406,32.315309 Z"
         id="path8" /><text
         xml:space="preserve"
         style="font-size:32.2614px;line-height:1;font-family:'Western Brother Personal Use';-inkscape-font-specification:'Western Brother Personal Use';text-align:center;letter-spacing:2.1474px;word-spacing:0px;writing-mode:lr-tb;direction:ltr;text-anchor:middle;fill:#c5b783;fill-opacity:1;stroke:#c5b783;stroke-width:6.27596;stroke-dasharray:none;stroke-opacity:1"
         x="56.238628"
         y="31.140368"
         id="text7-4"
         transform="scale(0.95475484,1.0473893)"><tspan
           sodipodi:role="line"
           id="tspan7-8"
           style="font-style:normal;font-variant:normal;font-weight:normal;font-stretch:normal;font-family:'Ranked Sports';-inkscape-font-specification:'Ranked Sports';stroke:#c5b783;stroke-width:6.27596;stroke-dasharray:none;stroke-opacity:1"
           x="57.312328"
           y="31.140368">Tulsa</tspan></text><path
         style="fill:#c5b783;fill-opacity:1;stroke-width:0.926268"
         d="M 58.536055,98.25195 C 58.476505,98.18666 56.972517,98.005693 55.193857,97.849885 49.803268,97.377678 46.837669,96.18295 44.239258,93.436688 43.467686,92.621207 42.31936,91.64529 41.687422,91.267974 c -1.545633,-0.922858 -2.671728,-2.168539 -3.025748,-3.347067 -0.160732,-0.535069 -0.652893,-1.56916 -1.093692,-2.29798 -0.878506,-1.452527 -1.19777,-3.044622 -0.781605,-3.89768 0.209532,-0.4295 0.189909,-0.712395 -0.09071,-1.307701 -0.196945,-0.417802 -0.358082,-0.9546 -0.358082,-1.192887 0,-0.238286 -0.447499,-0.965961 -0.994444,-1.617054 L 34.348698,76.423798 20.252324,76.295453 6.1559504,76.167109 9.9360013,69.940853 c 2.0790277,-3.42444 3.7185727,-6.293699 3.6434307,-6.376131 -0.07514,-0.08243 -1.288534,0.03544 -2.696429,0.261945 -2.6430327,0.42521 -4.2152738,1.011179 -7.3450326,2.737469 -1.0010215,0.552137 -1.8864378,1.003885 -1.9675919,1.003885 -0.4870035,0 0.9103738,-3.836596 2.1618768,-5.935584 2.2503067,-3.774153 5.915428,-5.711183 11.4295277,-6.040548 2.96934,-0.177362 6.11355,0.251584 10.968549,1.496378 4.230635,1.084711 7.379596,1.697282 9.797778,1.905976 2.079062,0.179427 2.455902,0.02445 1.673242,-0.688121 -1.290679,-1.175098 -3.828382,-5.674586 -3.834657,-6.799057 -0.0021,-0.376108 -0.566723,-0.95242 -1.933355,-1.973369 -3.939905,-2.943326 -6.233467,-5.785537 -7.196538,-8.918042 -1.458192,-4.742937 0.982313,-7.910898 7.138042,-9.265717 6.150551,-1.35368 18.633131,1.721895 28.780373,7.091174 7.081004,3.746821 14.233409,9.600707 16.53236,13.53091 0.906009,1.548883 1.579456,4.860793 1.592392,7.831151 l 0.0092,2.117686 h 13.33688 13.336861 l -0.7822,1.219274 c -0.43021,0.670601 -1.98313,3.345242 -3.45091,5.943649 -2.882034,5.101993 -3.557604,6.010888 -5.003401,6.731386 -0.87464,0.435871 -1.854617,0.469409 -13.868907,0.474649 l -12.92777,0.0056 v 1.133287 c 0,1.028164 -0.101772,1.231561 -1.097161,2.192748 -1.044741,1.008845 -1.094347,1.11763 -1.038258,2.276926 0.09493,1.962122 -1.096713,3.094904 -4.06523,3.86442 -0.643463,0.166803 -1.485816,0.46684 -1.871895,0.666749 -0.386077,0.199909 -0.965195,0.423995 -1.286926,0.497971 -0.324166,0.07454 -0.759749,0.475428 -0.976997,0.899191 -0.270942,0.528499 -0.926554,1.042957 -2.122594,1.665597 -2.11295,1.099962 -2.794971,2.129606 -2.292355,3.460758 0.166151,0.440047 0.796334,1.198094 1.400406,1.684545 1.040889,0.838221 3.289579,3.294821 3.289579,3.593738 0,0.169731 -0.581381,0.186061 -0.732235,0.02057 z m -3.966999,-2.033657 c -0.05362,-0.05442 -0.893684,-0.46041 -1.866805,-0.902233 -1.139342,-0.517291 -2.093505,-1.167534 -2.679838,-1.826246 l -0.910529,-1.02294 h 1.437599 c 0.790679,0 1.490424,-0.09372 1.554989,-0.208373 0.06457,-0.114605 -0.527261,-0.354439 -1.315167,-0.532969 -1.412654,-0.320087 -4.155819,-1.654294 -4.156811,-2.021763 -2.8e-4,-0.103856 1.078984,-0.152491 2.398365,-0.10809 2.735434,0.09206 2.785073,-0.162949 0.159019,-0.816902 -2.923016,-0.727908 -6.827934,-3.176641 -7.149724,-4.483516 -0.09429,-0.382957 -0.0153,-0.744369 0.218847,-1.001231 0.332549,-0.364815 0.474945,-0.350733 1.541066,0.152399 1.256763,0.593099 5.133385,1.091334 4.470844,0.574605 -0.193038,-0.150556 -0.504065,-0.275507 -0.691169,-0.277668 -0.640758,-0.0074 -4.572986,-2.266027 -5.1585,-2.962979 l -0.584966,-0.696301 1.234921,0.680506 c 1.306135,0.719747 3.580261,1.156614 6.090975,1.170093 0.926232,0.0049 1.422349,-0.08771 1.331614,-0.248763 -0.07954,-0.141179 -0.362812,-0.256689 -0.629501,-0.256689 -0.769115,0 -4.633897,-1.519551 -5.963557,-2.344745 -0.66625,-0.413477 -1.734661,-1.267916 -2.374248,-1.898754 -1.129018,-1.113572 -1.20788,-1.146975 -2.707916,-1.146975 -0.849767,0 -1.545031,0.08031 -1.545031,0.178472 0,0.09816 0.245578,0.473566 0.54573,0.834239 0.300151,0.360673 0.674289,1.151753 0.83142,1.757956 0.15713,0.606202 0.581941,1.465916 0.944023,1.910474 l 0.658332,0.808289 -0.787792,0.81507 c -0.939456,0.971988 -0.989524,1.595797 -0.202825,2.527021 0.321732,0.380836 0.584966,0.755654 0.584966,0.832929 0,0.563618 0.883523,1.967792 1.502006,2.387122 0.412623,0.279758 0.885843,0.786643 1.051599,1.126413 0.165757,0.339769 0.711256,0.870478 1.21222,1.179359 0.500965,0.308871 1.225156,1.062746 1.609314,1.675278 1.35581,2.161797 3.072353,3.205509 6.338287,3.853889 1.718916,0.341255 3.197762,0.485305 3.008243,0.293019 z M 54.46114,87.704401 c 0.380347,-0.217575 1.146603,-0.464017 1.702792,-0.547647 1.078346,-0.162145 1.284816,-0.349514 1.324434,-1.201914 0.01904,-0.40961 0.222794,-0.573619 0.851924,-0.685742 1.021961,-0.182133 1.395974,-0.42409 1.395974,-0.903084 0,-0.281853 0.341591,-0.369885 1.43527,-0.369885 1.779134,0 3.073221,-0.408669 3.732716,-1.17878 0.627195,-0.732394 0.494572,-1.457713 -0.479651,-2.623228 -0.390808,-0.467545 -0.71056,-0.884548 -0.71056,-0.926674 0,-0.04213 0.589983,-0.143389 1.311072,-0.225032 1.82452,-0.206579 2.524575,-1.003379 2.056702,-2.340934 -0.215049,-0.614781 -1.428779,-0.528956 -1.614852,0.11419 -0.303931,1.050512 -1.104323,1.333356 -3.501731,1.237447 -1.226131,-0.04905 -2.229247,-0.07673 -2.229147,-0.0615 9.9e-5,0.01524 0.620428,0.447671 1.378507,0.960982 1.55995,1.056277 1.824537,1.527064 1.326684,2.360604 -0.658936,1.103236 -2.389034,1.483585 -5.955486,1.309264 -2.876353,-0.14059 -3.101916,-0.121215 -2.333371,0.200414 0.467933,0.195828 1.567214,0.440218 2.442845,0.543088 l 1.592057,0.187037 -0.570951,0.510987 c -0.516603,0.462346 -0.793685,0.495434 -2.91082,0.347591 -1.286927,-0.08987 -2.65575,-0.220336 -3.041828,-0.289928 -0.586967,-0.105797 -0.52947,-0.03608 0.35098,0.425623 0.579117,0.303682 1.50044,0.607705 2.047385,0.675604 0.546943,0.06791 0.994443,0.208932 0.994443,0.313401 0,0.10447 -0.483728,0.338522 -1.07495,0.520116 -0.841434,0.258444 -1.641555,0.269843 -3.683217,0.05248 -1.434546,-0.152732 -2.642344,-0.24031 -2.683996,-0.194617 -0.192265,0.21092 2.508789,0.980658 4.011857,1.143287 1.552094,0.167935 1.612321,0.195986 0.818298,0.381134 -0.47141,0.109923 -1.103174,0.125152 -1.403921,0.03384 -0.529079,-0.160632 -0.532082,-0.153097 -0.09261,0.232307 0.591147,0.518428 2.606567,0.518181 3.513155,-4.28e-4 z m -0.828032,-7.403003 c -0.05362,-0.05559 -1.413669,-0.530869 -3.022328,-1.056165 -2.85453,-0.932124 -4.6296,-1.754252 -5.88579,-2.72601 -0.637391,-0.49307 -2.303748,-0.668554 -2.303748,-0.242609 0,0.732106 4.554977,2.865225 7.721564,3.616047 1.819584,0.431438 3.727721,0.654893 3.490302,0.408737 z m 4.334266,-1.172042 c -0.123518,-0.135501 -1.276488,-0.552303 -2.562156,-0.926225 -1.285668,-0.373922 -2.953823,-1.013872 -3.707014,-1.422112 -0.801828,-0.434604 -1.747417,-0.742256 -2.281371,-0.742256 -2.861914,0 1.585988,2.074912 6.341656,2.958334 2.278028,0.423171 2.485384,0.435586 2.208885,0.132259 z M 17.735638,68.56664 c 2.059083,-3.255085 3.867929,-6.031593 4.019657,-6.170019 0.180833,-0.164977 3.68167,-0.105336 10.162116,0.173122 11.117698,0.477716 13.236855,0.382354 20.214282,-0.909639 4.476983,-0.828991 11.895364,-2.636569 11.327899,-2.760178 -0.204293,-0.04451 -3.573702,0.413955 -7.487577,1.018787 -7.077697,1.093759 -7.15279,1.099651 -13.901753,1.090809 -7.578306,-0.0099 -9.989876,-0.242797 -15.746436,-1.520535 -5.286768,-1.173462 -8.198425,-1.506748 -11.844307,-1.355771 -3.404623,0.140987 -5.1487317,0.66955 -7.3707307,2.233746 -1.1757469,0.827677 -3.5293503,3.424478 -3.5293503,3.894039 0,0.134892 0.3948533,-0.04984 0.8774509,-0.410501 0.4825976,-0.360668 1.7198024,-1.029015 2.7493444,-1.485216 l 1.871894,-0.829459 4.4457487,0.0021 c 2.445162,0.0012 4.656336,0.09716 4.913722,0.21342 0.418163,0.188878 0.368353,0.267048 -0.467974,0.734398 -0.51477,0.287662 -1.133346,0.711418 -1.374612,0.941681 -0.475849,0.45415 -7.1659047,10.636606 -7.1659047,10.906713 0,0.09049 1.0266167,0.161478 2.2813707,0.157725 l 2.281371,-0.0068 z m 6.221843,5.252837 c 0.853217,-0.509435 1.44137,-1.166925 2.353605,-2.631065 0.668878,-1.073551 1.829649,-2.893971 2.579493,-4.045376 2.126634,-3.265507 2.010346,-3.425706 -2.485732,-3.424394 -3.882632,0.0012 -4.192375,0.136747 -5.624382,2.462501 -0.513121,0.833372 -1.697679,2.703148 -2.632351,4.155058 -0.934672,1.451909 -1.699404,2.758993 -1.699404,2.904628 0,0.145637 0.108999,0.488219 0.24222,0.761296 0.219768,0.450484 0.515041,0.496504 3.185653,0.496504 2.740322,0 3.021924,-0.04686 4.080898,-0.679152 z m -1.357885,-4.903838 2.195686,-3.529476 1.03292,-0.07354 1.03292,-0.07354 -0.705213,0.482121 c -0.394749,0.269873 -1.527864,1.852521 -2.573854,3.594961 -1.642996,2.736949 -1.947706,3.113812 -2.523393,3.120899 -0.640877,0.0079 -0.608224,-0.06673 1.540934,-3.521416 z m 8.174211,3.27759 1.46901,-2.305399 1.052941,-0.0031 1.05294,-0.0031 -0.660091,0.477446 c -0.559422,0.404631 -2.732717,3.588303 -2.732717,4.003172 0,0.07503 0.770083,0.136404 1.711294,0.136404 h 1.711295 l 1.461732,-2.365095 c 0.872061,-1.411003 1.418501,-2.546449 1.354568,-2.814652 -0.0632,-0.265114 0.05097,-0.509264 0.278278,-0.595085 0.425471,-0.160643 1.762114,-1.946464 2.491324,-3.328532 0.424727,-0.804982 0.434122,-0.924188 0.101661,-1.289919 -0.294058,-0.323483 -1.06996,-0.418013 -3.933545,-0.479234 l -3.567232,-0.07626 -0.820704,1.30319 c -0.451386,0.716756 -1.97173,3.129952 -3.378541,5.362658 -1.406812,2.232708 -2.557838,4.109746 -2.557838,4.171199 0,0.06145 0.786737,0.111734 1.748307,0.111734 h 1.748307 z m 3.255724,-5.331105 c 0.922305,-1.486985 1.058274,-1.595416 2.006843,-1.600376 l 0.751728,-0.0039 -1.044212,1.178659 c -0.574316,0.648262 -1.044211,1.283568 -1.044211,1.41179 0,0.128223 -0.320941,0.233131 -0.713202,0.233131 h -0.7132 z m 7.354727,4.288189 2.072297,-3.348313 0.414424,0.588905 c 0.792523,1.126193 0.738729,1.39522 -0.733338,3.667486 -0.780097,1.204148 -1.418359,2.245807 -1.418359,2.314799 0,0.06899 0.774162,0.125439 1.720359,0.125439 H 45.16 l 3.193364,-5.274984 c 1.756349,-2.901241 3.193363,-5.381761 3.193363,-5.512268 0,-0.133792 -1.071576,-0.212526 -2.456862,-0.180519 -2.473366,0.05714 -2.887458,0.245305 -2.105881,0.956891 0.458317,0.417275 0.436351,0.761717 -0.09713,1.523119 l -0.437704,0.624705 -0.736404,-1.600347 -0.736404,-1.600348 -1.196457,0.07723 -1.196456,0.07723 -3.239915,5.207426 c -1.781954,2.864085 -3.239916,5.318676 -3.239916,5.454645 0,0.135971 0.721882,0.24722 1.604181,0.24722 h 1.604181 z m 10.30478,1.038113 c 1.508536,-2.263231 1.559484,-2.310202 2.505731,-2.310202 0.925579,0 0.944961,0.01607 0.464447,0.385298 -0.46137,0.35451 -2.878503,3.799735 -2.878503,4.102831 0,0.07275 0.770083,0.132276 1.711295,0.132276 h 1.711294 l 1.397483,-2.24603 c 0.768617,-1.235317 2.112226,-3.371741 2.985799,-4.747612 0.873573,-1.375869 1.553247,-2.701333 1.510388,-2.945478 -0.144527,-0.823282 -1.105256,-1.08221 -3.71931,-1.002396 -3.749408,0.114481 -4.043284,0.323137 -7.016086,4.981529 -1.326079,2.07797 -2.704676,4.195133 -3.063548,4.704804 -0.358873,0.509671 -0.585118,1.000589 -0.502769,1.090928 0.08235,0.09034 0.870674,0.164255 1.751831,0.164255 h 1.602102 z m 2.66553,-4.021305 c 0,-0.05043 0.342205,-0.665819 0.760457,-1.367538 0.706944,-1.186071 0.826319,-1.274751 1.696404,-1.260199 0.514771,0.0087 0.801813,0.07484 0.637869,0.147169 -0.163942,0.07234 -0.669808,0.665591 -1.124144,1.31835 -0.556619,0.799711 -1.012727,1.197773 -1.398326,1.220368 -0.314743,0.01844 -0.57226,-0.0078 -0.57226,-0.05815 z m 9.49552,6.070134 c 1.601143,-0.393639 2.465201,-1.216966 4.12051,-3.926275 0.792343,-1.296859 1.843461,-2.959423 2.335821,-3.694584 1.72061,-2.569119 1.037383,-3.145276 -3.667983,-3.093168 -2.413135,0.02671 -3.063024,0.112172 -3.306283,0.434719 -0.781511,1.036239 -6.40373,10.031282 -6.40373,10.245391 0,0.345209 5.544951,0.37238 6.921665,0.03392 z m -2.312054,-1.862706 c 0.990986,-1.733175 4.179682,-6.773467 4.378055,-6.920283 0.140146,-0.103724 0.665235,-0.190356 1.166864,-0.192518 l 0.912053,-0.0039 -0.775611,0.57755 c -0.426586,0.317653 -1.660838,1.992549 -2.742783,3.721994 -1.622527,2.593543 -2.068656,3.144442 -2.546432,3.144442 -0.411301,0 -0.525007,-0.09489 -0.392146,-0.327256 z m 14.031282,1.313618 c 0.62628,-0.455212 1.718768,-1.912019 3.284214,-4.379418 2.984038,-4.703332 2.972697,-4.679885 2.509333,-5.188207 -0.522734,-0.573452 -6.355606,-0.583713 -7.435037,-0.01308 -0.516014,0.272787 -1.505029,1.601827 -3.295043,4.427889 -3.777817,5.964384 -3.768657,6.035537 0.761988,5.918517 3.047353,-0.07871 3.290822,-0.123367 4.174545,-0.765701 z m -3.66574,-1.370978 c 0,-0.07035 0.959031,-1.687503 2.131178,-3.59365 l 2.131179,-3.465721 1.08614,0.0058 1.086139,0.0058 -0.716045,0.387653 c -0.479678,0.25969 -1.36191,1.44402 -2.67263,3.587804 -1.567979,2.564552 -2.06477,3.20015 -2.501274,3.20015 -0.299578,0 -0.544687,-0.05757 -0.544687,-0.127927 z m 13.703669,1.989809 c 0.137187,-0.106368 0.587429,-0.738384 1.000539,-1.404474 l 0.751111,-1.211068 -2.707581,-0.07237 c -2.538827,-0.06786 -2.688689,-0.100575 -2.40446,-0.524776 0.237206,-0.354023 0.78851,-0.487261 2.535291,-0.61272 l 2.232172,-0.160321 0.736712,-1.221344 c 0.405193,-0.671739 0.673019,-1.291219 0.59517,-1.376621 -0.07785,-0.0854 -0.936264,-0.155278 -1.907588,-0.155278 -1.613027,0 -1.733861,-0.0353 -1.394614,-0.407465 0.268087,-0.294098 1.015632,-0.446408 2.68682,-0.547431 l 2.315393,-0.139963 0.756124,-1.203153 c 0.41587,-0.661734 0.756127,-1.273296 0.756127,-1.359027 0,-0.08573 -2.058584,-0.167706 -4.574637,-0.182168 l -4.574642,-0.0263 0.15132,0.884867 c 0.139714,0.816996 -0.04753,1.199073 -2.441282,4.981508 -1.425931,2.253153 -2.654861,4.274628 -2.730955,4.492164 -0.121154,0.346357 0.365576,0.398246 3.915599,0.417432 2.229673,0.01205 4.166195,-0.06512 4.303381,-0.171491 z m 11.659261,-3.014485 c 1.10744,-1.74959 2.01352,-3.303343 2.01352,-3.452783 0,-0.174153 -0.89515,-0.271709 -2.493125,-0.271709 -2.478303,0 -2.490604,-0.003 -2.069614,-0.513379 0.373474,-0.452724 0.720674,-0.513379 2.938679,-0.513379 h 2.515184 l 0.82095,-1.215854 c 0.45152,-0.66872 0.77128,-1.304026 0.71057,-1.411791 -0.1152,-0.204464 -9.676232,-0.283186 -9.676232,-0.07967 0,0.06395 0.118619,0.401867 0.263601,0.750934 0.238096,0.573272 0.113605,0.87068 -1.286929,3.074356 -0.852789,1.341827 -1.550526,2.505538 -1.550526,2.586024 0,0.08049 1.105587,0.146338 2.456862,0.146338 1.351275,0 2.456857,0.07754 2.456857,0.172305 0,0.09476 -0.174255,0.383543 -0.387244,0.641723 -0.333218,0.403926 -0.770056,0.469418 -3.131128,0.469418 h -2.743888 l -0.714942,1.205718 c -0.393219,0.663146 -0.665875,1.292817 -0.605902,1.399269 0.05997,0.106455 1.990209,0.193551 4.289413,0.193551 h 4.180376 z M 70.767332,61.293778 c 2.850773,-0.662861 4.177424,-1.737793 4.677377,-3.789891 0.253265,-1.039547 0.238013,-1.404565 -0.109177,-2.612841 -1.657863,-5.769635 -10.077258,-11.847079 -20.16201,-14.553721 -2.760157,-0.740796 -9.207372,-1.899259 -9.399146,-1.688879 -0.05382,0.05904 0.880727,0.369603 2.076785,0.690119 3.843776,1.030044 10.068976,3.073619 12.236083,4.016796 6.422314,2.795143 12.284305,8.306387 12.284305,11.549283 0,0.877443 -0.428624,2.395809 -0.67632,2.395809 -0.08941,0 -0.284788,-0.501311 -0.43417,-1.114025 -0.550271,-2.257017 -3.250071,-4.779985 -7.042255,-6.580998 -3.320087,-1.576801 -9.067296,-3.177297 -12.488095,-3.477712 l -1.470909,-0.129176 2.019659,0.489219 c 7.897123,1.912909 13.533715,4.95573 15.638949,8.442428 1.285751,2.129466 0.787311,3.669337 -1.821008,5.625792 l -1.47742,1.108189 2.296374,-0.0045 c 1.263006,-0.0024 2.995945,-0.167121 3.850978,-0.365933 z M 47.217971,58.442153 c -0.386078,-0.351395 -1.150187,-1.049559 -1.698021,-1.551475 -1.078519,-0.988123 -2.29774,-2.607983 -2.114363,-2.809151 0.06251,-0.06857 0.682634,0.148833 1.378053,0.483132 1.807694,0.868985 4.736681,1.893273 6.681943,2.336724 2.176794,0.496232 7.442135,0.966716 9.674601,0.864474 l 1.754901,-0.08037 -1.052941,-0.337375 C 53.630663,54.717056 49.477019,53.063785 46.42378,51.211155 c -1.72692,-1.047852 -1.659166,-1.182628 0.817595,-1.626362 1.480067,-0.265167 1.914381,-0.222608 5.21586,0.511105 1.980745,0.440197 3.643357,0.754281 3.694691,0.697967 0.212015,-0.232586 -4.537125,-2.29707 -6.652712,-2.891981 -2.028926,-0.570542 -4.828832,-0.833387 -9.24235,-0.867637 -0.299787,-0.0023 -0.193254,-1.037808 0.200402,-1.947864 0.608113,-1.405844 1.592694,-1.903836 3.76407,-1.903836 1.888633,0 6.259716,0.744004 8.359627,1.422894 1.743737,0.563742 1.582346,0.22634 -0.354839,-0.741819 -2.156912,-1.077972 -4.678215,-2.01321 -7.114034,-2.638836 -2.340411,-0.601123 -8.322706,-0.687046 -9.213737,-0.132337 -0.741441,0.461582 -1.023729,0.01626 -0.871743,-1.375206 0.137907,-1.262584 1.090901,-2.283871 2.530243,-2.711561 2.395365,-0.711767 7.776451,-0.02152 17.347787,2.225244 2.054143,0.482188 3.772556,0.835291 3.818696,0.784674 0.166245,-0.182375 -4.075522,-2.201717 -6.737082,-3.207266 C 45.37069,34.308943 37.10997,32.946501 32.944778,33.66782 c -4.364275,0.755796 -6.604431,3.840778 -5.373542,7.400054 0.525084,1.518348 4.34066,5.772644 6.835959,7.621966 1.230428,0.911898 1.696404,1.409864 1.696404,1.812862 0,2.116398 1.628671,5.084514 3.949686,7.197973 l 1.533759,1.396602 3.166443,-0.0081 3.166444,-0.0081 z"
         id="path7" /><text
         xml:space="preserve"
         style="font-size:32.2614px;line-height:1;font-family:'Western Brother Personal Use';-inkscape-font-specification:'Western Brother Personal Use';text-align:center;letter-spacing:2.1474px;word-spacing:0px;writing-mode:lr-tb;direction:ltr;text-anchor:middle;fill:#002d72;fill-opacity:1;stroke:none;stroke-width:6.27569"
         x="55.324795"
         y="31.473572"
         id="text7"
         transform="scale(0.95475485,1.0473893)"><tspan
           sodipodi:role="line"
           id="tspan7"
           style="font-style:normal;font-variant:normal;font-weight:normal;font-stretch:normal;font-family:'Ranked Sports';-inkscape-font-specification:'Ranked Sports';fill:#002d72;fill-opacity:1;stroke-width:6.27572"
           x="56.398495"
           y="31.473572">Tulsa</tspan></text></g></g></svg>
