<?xml version="1.0" encoding="UTF-8" standalone="no"?>
<!-- Created with Inkscape (http://www.inkscape.org/) -->

<svg
   width="105.83334mm"
   height="105.83334mm"
   viewBox="0 0 105.83333 105.83333"
   version="1.1"
   id="svg1"
   xml:space="preserve"
   inkscape:version="1.4 (e7c3feb100, 2024-10-09)"
   sodipodi:docname="vermont.svg"
   inkscape:export-filename="../pngs/charlotte.png"
   inkscape:export-xdpi="96"
   inkscape:export-ydpi="96"
   xmlns:inkscape="http://www.inkscape.org/namespaces/inkscape"
   xmlns:sodipodi="http://sodipodi.sourceforge.net/DTD/sodipodi-0.dtd"
   xmlns="http://www.w3.org/2000/svg"
   xmlns:svg="http://www.w3.org/2000/svg"><sodipodi:namedview
     id="namedview1"
     pagecolor="#ffffff"
     bordercolor="#000000"
     borderopacity="0.25"
     inkscape:showpageshadow="2"
     inkscape:pageopacity="0.0"
     inkscape:pagecheckerboard="0"
     inkscape:deskcolor="#d1d1d1"
     inkscape:document-units="mm"
     inkscape:zoom="1.4103651"
     inkscape:cx="183.64039"
     inkscape:cy="197.82112"
     inkscape:window-width="1920"
     inkscape:window-height="1011"
     inkscape:window-x="0"
     inkscape:window-y="32"
     inkscape:window-maximized="1"
     inkscape:current-layer="layer1"
     showgrid="false"
     showguides="true" /><defs
     id="defs1" /><g
     inkscape:label="Capa 1"
     inkscape:groupmode="layer"
     id="layer1"><g
       id="g51"
       transform="matrix(1.0452517,0,0,1.0452517,-2.3945694,-2.3945694)"><circle
         style="fill:#ffc72c;fill-opacity:1;stroke:none;stroke-width:6.67081"
         id="path51"
         cx="52.916672"
         cy="52.916672"
         r="49.748142" /><circle
         style="fill:#154734;fill-opacity:1;stroke:none;stroke-width:6.19286"
         id="path51-6"
         cx="52.916672"
         cy="52.916672"
         r="46.183758" /></g><g
       id="g53"><path
         style="fill:#ffc72c;fill-opacity:1;stroke-width:0.624673"
         d="m 36.295341,64.452891 c -0.948159,-1.005106 -2.024702,-2.72114 -1.829526,-2.916319 0.03292,-0.0329 0.361153,0.0939 0.729449,0.281801 0.802689,0.4095 2.82359,0.725302 3.742278,0.584797 1.338471,-0.204712 1.331622,-0.181288 0.360035,-1.230718 -0.797064,-0.86092 -1.269072,-1.832071 -1.269072,-2.611095 0,-0.08119 0.460827,-0.275753 1.024065,-0.432345 1.148086,-0.3192 2.38462,-1.146011 2.815525,-1.882614 l 0.286101,-0.489082 -0.596883,-0.09685 c -0.407742,-0.06618 -0.753767,-0.0074 -1.091984,0.18548 -0.272305,0.155287 -0.679372,0.383061 -0.904607,0.506165 -0.225237,0.123103 -0.848251,0.263605 -1.384484,0.312232 l -0.974976,0.08839 -0.247487,0.833394 c -0.308019,1.03722 -0.307833,1.221938 0.002,2.100624 0.137328,0.389222 0.209863,0.747493 0.161197,0.79616 -0.04869,0.04867 -0.60727,-0.441739 -1.241344,-1.08979 -1.423597,-1.454968 -1.577867,-1.013877 -0.177178,0.506576 l 0.429171,0.465861 -0.455635,-0.172961 c -0.887159,-0.336746 -1.534169,-0.71922 -2.058889,-1.217047 l -0.531129,-0.50392 -0.184114,0.481102 c -0.249416,0.651735 -0.06692,1.959432 0.420285,3.010918 0.218729,0.472113 0.318346,0.858387 0.221356,0.858387 -0.350993,0 -2.56755,-2.416532 -2.956215,-3.222922 -0.318268,-0.66032 -0.396641,-1.081678 -0.390018,-2.096739 0.0079,-1.150386 -0.0241,-1.278618 -0.334259,-1.357951 -0.845045,-0.21611 -2.142669,-1.722743 -2.494309,-2.896071 -0.101021,-0.337105 -0.03391,-0.302611 0.422479,0.217212 0.298418,0.339879 0.890381,0.794208 1.315476,1.00962 1.118606,0.56684 2.885993,1.106564 3.422129,1.045046 0.460455,-0.05283 0.459583,-0.05461 -0.198605,-0.398032 -0.401649,-0.209576 -0.925997,-0.721036 -1.336052,-1.303204 -0.371226,-0.527035 -0.858998,-1.054674 -1.08394,-1.172536 -0.481855,-0.252468 -0.926477,-1.063332 -0.583058,-1.063332 0.117033,0 0.357156,0.109199 0.533608,0.242659 0.176461,0.133461 0.358018,0.245201 0.403471,0.248303 0.04547,0.0032 0.0582,-0.552345 0.02822,-1.234329 -0.0486,-1.107304 -0.08935,-1.239969 -0.381632,-1.239969 -0.179988,0 -0.28128,-0.07438 -0.225108,-0.16528 0.05615,-0.0909 0.281368,-0.165278 0.500403,-0.165278 0.308185,0 0.375055,-0.06542 0.295682,-0.289234 -0.457888,-1.291151 -2.142708,-1.296572 -3.470863,-0.01119 -0.916806,0.887294 -1.287914,1.972194 -1.29004,3.771247 -0.002,1.429997 0.04144,1.648379 0.483744,2.446703 0.267083,0.482108 0.769113,1.132696 1.115628,1.445752 0.455448,0.41147 0.630029,0.702627 0.630029,1.050731 0,0.761326 0.577404,2.417579 1.158533,3.32319 0.766847,1.195023 2.516343,2.72667 3.889902,3.405518 1.240394,0.613033 3.127699,1.192872 3.937923,1.20985 0.460456,0.0097 0.441556,-0.02502 -0.637554,-1.168929 z m 34.130995,0.838153 c 2.469481,-0.680605 4.714384,-2.187791 6.053256,-4.064053 0.829752,-1.162792 1.215655,-2.210992 1.215655,-3.301976 0,-0.596081 0.07907,-0.77098 0.483687,-1.070142 2.338188,-1.7287 2.610894,-5.662407 0.541142,-7.805857 -0.7629,-0.790066 -1.345831,-1.102004 -2.059339,-1.102004 -0.618516,0 -0.943475,0.204367 -1.348612,0.848153 l -0.273716,0.434959 0.625982,0.126659 c 0.576122,0.116559 0.593071,0.135137 0.212793,0.233083 -0.387491,0.0998 -0.416248,0.18204 -0.462239,1.321834 l -0.04909,1.215408 0.41511,-0.271989 c 0.228303,-0.149593 0.492094,-0.271988 0.586194,-0.271988 0.358654,0 0.140561,0.36777 -0.712745,1.201947 -0.486116,0.475217 -1.017294,1.071608 -1.180401,1.325316 -0.163097,0.253709 -0.639278,0.662774 -1.05817,0.90903 -0.693227,0.407534 -0.725315,0.452866 -0.357303,0.504809 1.108856,0.156505 3.941881,-1.023979 4.857668,-2.024124 0.450904,-0.492439 0.464384,-0.49624 0.350934,-0.09893 -0.06486,0.227257 -0.214409,0.60299 -0.332269,0.834961 -0.272363,0.536058 -1.568058,1.73671 -2.033667,1.884489 -0.313937,0.09964 -0.354618,0.233804 -0.354618,1.169522 0,1.291222 -0.427476,2.500407 -1.281095,3.623815 -0.5912,0.77804 -1.888764,1.908062 -2.190964,1.908062 -0.0774,0 0.04713,-0.336171 0.276744,-0.747045 0.437225,-0.782286 0.681458,-2.346231 0.487243,-3.120053 l -0.106854,-0.425749 -0.947749,0.721279 c -0.521262,0.396713 -1.182821,0.798604 -1.470127,0.8931 l -0.522389,0.17181 0.646343,-0.922683 c 0.35549,-0.507475 0.646343,-0.987292 0.646343,-1.066259 0,-0.07897 -0.5281,0.384528 -1.173572,1.029992 -0.645461,0.645463 -1.205356,1.141782 -1.244205,1.102928 -0.0389,-0.03886 0.0059,-0.271734 0.09926,-0.517516 0.225559,-0.593268 0.215516,-1.804931 -0.02156,-2.596118 -0.188198,-0.628183 -0.205032,-0.638967 -0.996973,-0.638967 -0.897092,0 -1.844175,-0.337047 -2.391244,-0.850983 -0.295703,-0.277807 -0.48351,-0.318716 -1.035235,-0.225503 -0.370706,0.06262 -0.674002,0.179123 -0.674002,0.258872 0,0.264053 1.049745,1.345965 1.710922,1.763347 0.357832,0.22589 0.993172,0.459332 1.411859,0.518764 0.68619,0.09741 0.766642,0.155125 0.815867,0.585355 0.09348,0.817045 -0.428387,1.856703 -1.326274,2.642148 -0.784042,0.685868 -0.810674,0.734711 -0.460984,0.845695 0.579628,0.183968 3.170879,0.129582 3.978898,-0.08352 0.400816,-0.105709 0.906264,-0.306071 1.12321,-0.445264 0.388147,-0.249018 0.392625,-0.245493 0.279184,0.220052 -0.167056,0.685571 -0.744998,1.48911 -1.915387,2.66306 -1.008926,1.011999 -1.020145,1.032987 -0.55184,1.032987 0.262899,0 1.034322,-0.153326 1.714273,-0.340721 z M 53.068815,59.773267 c 0,-0.597436 1.1038,-4.760349 1.55971,-5.882354 0.216898,-0.533803 0.520399,-1.141272 0.674434,-1.34993 0.276225,-0.374189 0.278899,-0.369768 0.195626,0.323051 -0.04644,0.386337 -0.03576,0.700795 0.02381,0.698794 0.05957,-0.0021 0.628863,-1.169851 1.265182,-2.595227 0.984021,-2.204242 1.164685,-2.512484 1.208737,-2.062338 0.147136,1.503579 0.940831,-0.496896 0.937568,-2.363115 -0.002,-0.983123 -0.08289,-1.470581 -0.316601,-1.900699 l -0.314299,-0.578472 -0.19209,0.846415 c -0.222698,0.981325 -1.19943,3.09754 -1.70713,3.698731 l -0.348946,0.413196 -0.01754,-0.578472 c -0.01725,-0.568543 -0.02283,-0.563557 -0.3264,0.290462 -0.303894,0.855036 -1.166409,2.56247 -1.251466,2.477409 -0.02391,-0.02394 0.06133,-0.489147 0.189415,-1.033815 0.255844,-1.087742 0.305432,-2.363825 0.104182,-2.680619 -0.07839,-0.123433 -0.344468,0.458716 -0.679803,1.487501 -0.303032,0.929674 -0.699214,1.983991 -0.880407,2.342929 l -0.329428,0.652613 -0.296095,-0.569975 c -0.162861,-0.313487 -0.541093,-1.332319 -0.840509,-2.264074 -0.299427,-0.931756 -0.614401,-1.694101 -0.699938,-1.694101 -0.204729,0 -0.02557,2.736608 0.221797,3.3882 0.347142,0.914355 -0.149478,0.196041 -0.904353,-1.308071 -0.541955,-1.079866 -0.734368,-1.343431 -0.774931,-1.061519 -0.04488,0.31208 -0.169378,0.19565 -0.74156,-0.693667 -0.746919,-1.160916 -1.213107,-2.367748 -1.213107,-3.140446 0,-0.74228 -0.271522,-0.587795 -0.575513,0.327442 -0.412917,1.243164 -0.356843,2.806162 0.13822,3.852932 0.349817,0.739676 0.41176,0.801338 0.423517,0.421624 0.02391,-0.770844 0.276058,-0.648083 0.673778,0.327998 0.211371,0.518734 0.723717,1.649716 1.138544,2.513293 l 0.754229,1.570141 0.09141,-0.661111 0.09142,-0.661113 0.344741,0.661113 c 0.624934,1.198403 2.04326,5.95005 2.04326,6.845258 0,0.189386 0.07437,0.344338 0.165271,0.344338 0.09092,0 0.165284,-0.181946 0.165284,-0.404322 z m -9.751403,-1.134875 c 2.681333,-1.597105 4.138693,-3.533744 4.161591,-5.530194 0.01489,-1.299905 -0.246566,-2.124606 -0.9787,-3.086917 -2.259266,-2.96955 -6.618679,-1.994646 -6.294581,1.407673 l 0.05408,0.56737 0.45394,-0.69825 c 0.553468,-0.85133 0.977769,-1.135043 1.926134,-1.287932 0.666419,-0.107435 0.716731,-0.09148 0.601017,0.190713 -0.06947,0.169381 -0.221473,0.837277 -0.337824,1.484211 -0.228547,1.270807 -0.409976,1.703911 -1.02184,2.439307 -0.49226,0.591646 -0.413004,0.685551 0.320089,0.379244 0.811312,-0.338985 1.728971,-1.316173 1.959938,-2.087078 0.210206,-0.701609 0.478407,-0.746404 0.478407,-0.0799 0,0.402812 0.321187,0.5882 0.341037,0.196842 0.0059,-0.113623 0.0781,-0.03831 0.160726,0.167374 0.232956,0.579823 0.0088,1.29596 -0.604036,1.926591 -0.307361,0.316482 -0.558836,0.714358 -0.558836,0.88417 0,0.825568 -0.541829,2.03693 -1.276667,2.854248 -0.664783,0.739398 -0.718485,0.846869 -0.370235,0.740963 0.22402,-0.06814 0.667623,-0.278923 0.985783,-0.468432 z m 20.329197,0.45938 c 0,-0.04848 -0.253258,-0.341406 -0.562795,-0.650941 -0.569821,-0.569821 -1.255268,-2.096031 -1.255268,-2.794973 0,-0.209758 -0.15666,-0.523063 -0.348141,-0.696231 -0.500295,-0.452463 -0.974076,-1.456325 -0.974076,-2.063926 0,-0.445912 0.03645,-0.492435 0.247986,-0.316843 0.209491,0.173862 0.263928,0.126105 0.35068,-0.307637 0.105512,-0.527507 0.392997,-0.561001 0.392997,-0.04578 0,0.479841 0.977848,1.653549 1.759011,2.111343 0.404303,0.236936 0.781446,0.384447 0.838089,0.3278 0.05663,-0.05665 -0.139034,-0.44001 -0.434844,-0.851917 -0.404657,-0.563476 -0.590613,-1.064753 -0.750956,-2.024383 -0.117217,-0.701501 -0.271581,-1.416141 -0.343037,-1.58809 -0.118719,-0.285683 -0.07466,-0.302269 0.510828,-0.192428 0.984529,0.184699 1.518891,0.530858 1.929524,1.249948 0.206482,0.361588 0.431199,0.658003 0.499383,0.658704 0.273717,0.0029 0.10567,-1.452085 -0.247918,-2.146409 -0.491613,-0.965339 -1.46418,-1.489868 -2.753084,-1.484806 -3.185938,0.01251 -5.210659,3.585826 -3.775687,6.663483 0.565753,1.213408 2.317945,2.977784 3.677727,3.703313 0.986225,0.526217 1.239581,0.618146 1.239581,0.449778 z M 34.296986,51.679247 c -0.462651,-0.69681 -0.614646,-1.116529 -0.684898,-1.891308 -0.08563,-0.94457 -0.06438,-1.021728 0.414935,-1.500981 0.278712,-0.278719 0.677637,-0.503598 0.889813,-0.501595 0.731319,0.0068 1.695911,0.580441 2.03492,1.209953 0.416905,0.77414 0.584596,0.768647 0.467775,-0.01531 -0.22497,-1.509658 -1.154779,-2.853225 -2.361448,-3.412282 -0.513826,-0.23806 -0.735995,-0.435365 -0.700095,-0.621756 0.134183,-0.696782 -1.334013,-1.029223 -2.371403,-0.536951 -0.988743,0.469191 -1.713068,2.470681 -1.224492,3.38359 0.200741,0.375087 0.490016,0.423216 0.490016,0.08153 0,-0.130991 0.06692,-0.279531 0.148753,-0.330095 0.08181,-0.05056 0.148743,0.163116 0.148743,0.47484 0,1.4964 1.07179,3.213775 2.672965,4.283033 0.680391,0.454361 0.697037,0.315073 0.07446,-0.622657 z m 37.525728,0.403266 c 1.322217,-0.909711 2.174807,-2.262111 2.375411,-3.767959 0.09913,-0.744037 0.153044,-0.866618 0.252572,-0.57414 0.193363,0.568235 0.400238,0.445886 0.558936,-0.330557 0.349306,-1.709003 -0.741247,-3.26202 -2.291757,-3.263624 -0.724363,-7.49e-4 -1.573858,0.58228 -1.310596,0.899494 0.128041,0.15428 0.0068,0.254324 -0.489948,0.403042 -1.223982,0.366711 -2.642934,2.374947 -2.642934,3.740517 0,0.364723 0.08426,0.316497 0.877065,-0.502034 0.759166,-0.783796 0.961308,-0.905518 1.503832,-0.905518 0.49321,0 0.733026,0.113755 1.125464,0.533863 0.45541,0.487519 0.491094,0.60765 0.410986,1.383774 -0.09151,0.886845 -0.567235,1.999692 -1.012905,2.369568 -0.2551,0.211718 -0.351522,0.505858 -0.165821,0.505858 0.05183,0 0.416169,-0.221528 0.809695,-0.492284 z M 42.754234,46.26592 c 0.969784,-1.525988 1.30508,-3.653143 0.806481,-5.116444 -0.977446,-2.868634 -5.093075,-3.891826 -7.711162,-1.917083 -1.328056,1.001714 -1.87298,3.002372 -1.171642,4.301638 l 0.285523,0.528946 0.09279,-0.661111 0.09279,-0.661114 0.128252,0.526028 c 0.180322,0.739676 1.323989,1.97696 2.270915,2.4568 1.082902,0.548746 1.344262,0.510419 0.615528,-0.09026 -1.592592,-1.312756 -1.760676,-4.09417 -0.278635,-4.610813 0.659228,-0.229807 0.723366,-0.165449 0.493172,0.494887 -0.252445,0.724145 -0.231605,1.208164 0.08309,1.931099 l 0.267513,0.614484 0.142384,-0.495643 c 0.175649,-0.611449 0.562013,-0.909221 1.179736,-0.909221 1.03979,0 1.632322,1.239352 1.673317,3.499963 0.02233,1.229037 0.03272,1.260047 0.333679,0.991668 0.170868,-0.152371 0.484207,-0.550092 0.696293,-0.883824 z m 21.19282,0.0903 c 0.02116,-1.242418 0.384306,-2.663087 0.814084,-3.184885 0.159688,-0.193876 0.529541,-0.419942 0.821903,-0.502365 0.679832,-0.191659 1.365749,0.282729 1.375743,0.951485 l 0.0068,0.442519 0.261479,-0.482944 c 0.194068,-0.358452 0.240657,-0.773846 0.180724,-1.611461 -0.04439,-0.620684 -0.01979,-1.128516 0.05467,-1.128516 0.357596,0 0.964081,0.410231 1.165821,0.788575 0.305785,0.573472 0.253788,2.146615 -0.09416,2.850207 -0.15664,0.316694 -0.558014,0.817444 -0.891948,1.112775 l -0.607141,0.536969 0.824989,-0.276869 c 1.030521,-0.34585 2.513073,-1.762509 2.684811,-2.565498 l 0.116678,-0.545463 0.101166,0.578474 0.101166,0.578472 0.275539,-0.614484 c 0.736867,-1.643311 -0.211989,-3.673413 -2.144424,-4.588043 -2.594533,-1.228001 -5.965858,-0.05961 -6.764305,2.344298 -0.388959,1.171027 -0.265662,3.253133 0.252073,4.257056 0.290079,0.562471 1.316397,2.105357 1.428976,2.148207 0.0097,0.0037 0.02537,-0.486284 0.03556,-1.088509 z m -36.081683,0.762036 c 0.05692,-0.0922 0.387216,-0.312328 0.733859,-0.489172 0.508211,-0.259268 0.65273,-0.441353 0.74633,-0.940299 0.272257,-1.451215 1.17322,-2.506582 2.856893,-3.346506 0.989616,-0.493681 1.033089,-0.541242 1.035431,-1.132731 0.0059,-1.454945 0.815769,-3.791964 1.820375,-5.252116 0.287619,-0.418035 0.491124,-0.791884 0.452235,-0.830775 -0.132753,-0.132749 -1.683262,0.996839 -2.528544,1.842123 -2.624749,2.624749 -4.6524,6.302649 -5.437316,9.862602 -0.0972,0.440687 0.110752,0.626648 0.320737,0.286874 z m 49.82969,-2.17528 c -1.175179,-3.512564 -4.065866,-7.645326 -6.51918,-9.320343 -0.449501,-0.306901 -0.848946,-0.526327 -0.887657,-0.487614 -0.0387,0.03871 0.27542,0.650213 0.698086,1.35889 0.877477,1.471273 1.327439,2.788872 1.493202,4.372446 0.10642,1.016802 0.148938,1.108768 0.558179,1.207758 0.655779,0.158629 2.089831,1.150905 2.564356,1.774374 0.228166,0.299775 0.51747,0.954111 0.642914,1.454076 0.203004,0.809083 0.317983,0.968408 1.045777,1.449079 l 0.817699,0.540049 0.05114,-0.403802 c 0.02813,-0.222092 -0.1809,-1.097303 -0.464483,-1.944913 z M 54.344384,44.458753 c 0.492456,-0.238393 0.821178,-0.548613 1.043846,-0.985085 0.178765,-0.35041 0.325029,-0.677259 0.325029,-0.726332 0,-0.04906 -0.353276,-0.09034 -0.785073,-0.09171 -0.431787,-0.0013 -1.076817,-0.104037 -1.433404,-0.228161 -0.555996,-0.193527 -0.7508,-0.190757 -1.367729,0.01945 -0.395662,0.134816 -1.015001,0.216929 -1.376311,0.182472 -0.708775,-0.0676 -0.736171,-0.03592 -0.501901,0.580251 0.524456,1.379422 2.550118,1.997239 4.095543,1.249114 z m -3.589468,-4.197172 v -1.239585 h -0.76143 c -0.626424,0 -0.743647,0.04636 -0.661109,0.261434 0.05516,0.143789 0.100311,0.352354 0.100311,0.463477 0,0.298789 0.95688,1.754259 1.15331,1.754259 0.10002,0 0.168917,-0.505571 0.168918,-1.239585 z m 5.306494,0.0479 c 0.172131,-0.337264 0.312967,-0.764921 0.312967,-0.950349 0,-0.283146 -0.10588,-0.337139 -0.661118,-0.337139 h -0.661108 v 1.265201 1.265201 l 0.348141,-0.314852 c 0.191481,-0.173169 0.488977,-0.590797 0.661118,-0.928062 z m -4.707084,-2.761414 c 0.375117,-0.170344 0.726051,-0.380938 0.779851,-0.467985 0.163254,-0.26415 -0.263194,-1.164395 -0.649508,-1.37115 -0.199546,-0.106789 -0.457555,-0.371196 -0.573348,-0.587564 -0.179224,-0.334885 -0.167643,-0.4408 0.0779,-0.712112 0.284356,-0.31421 0.29292,-0.314234 0.605545,-0.0016 0.505085,0.505084 2.006516,0.49096 2.557779,-0.02406 0.263321,-0.246008 0.384444,-0.273167 0.537155,-0.120457 0.35063,0.350628 0.214987,0.913085 -0.330976,1.372486 -0.29048,0.244427 -0.619711,0.620895 -0.731624,0.836596 -0.182506,0.351794 -0.153564,0.43417 0.281025,0.799855 1.323501,1.113647 3.995477,0.590853 4.813363,-0.941777 0.293812,-0.550574 0.406782,-2.101373 0.153073,-2.101373 -0.07936,0 -0.491907,0.153783 -0.916815,0.341735 -1.091113,0.482651 -1.294391,0.312306 -0.378938,-0.317543 0.425673,-0.292872 0.852434,-0.679143 0.948366,-0.858378 0.189474,-0.354046 -0.01372,-0.487499 -1.102683,-0.724269 -0.561444,-0.122076 -1.538919,0.201597 -2.105075,0.697052 -0.256805,0.224729 -0.305207,0.231932 -0.235328,0.03501 0.36612,-1.031632 0.364318,-1.043731 -0.137613,-0.922217 -0.260027,0.06296 -0.831053,0.299524 -1.268925,0.525713 l -0.796125,0.411252 -1.007007,-0.503209 c -0.553859,-0.276763 -1.140081,-0.503207 -1.302738,-0.503207 -0.273814,0 -0.277821,0.04285 -0.05399,0.578473 0.268338,0.642211 0.116257,0.7534 -0.340362,0.248844 -0.427563,-0.472451 -1.234838,-0.651283 -2.159875,-0.478468 -0.433844,0.08105 -0.819541,0.178096 -0.857096,0.215658 -0.156602,0.156601 0.346113,0.786499 1.07709,1.349596 l 0.782094,0.602468 -0.578472,-0.121247 c -0.31816,-0.06668 -0.779311,-0.22385 -1.02478,-0.349255 -0.755149,-0.385793 -0.835787,-0.31281 -0.706777,0.639698 0.195146,1.440731 0.688013,2.11647 1.844577,2.528951 0.887029,0.316353 2.000805,0.285522 2.80027,-0.07752 z M 32.842751,35.320568 c 0.744038,-0.346529 0.99323,-0.54383 0.940675,-0.744811 -0.04801,-0.18378 0.296133,-0.569888 1.04996,-1.177828 1.909419,-1.539885 3.384905,-2.835701 3.31196,-2.908654 -0.03831,-0.03834 -0.724648,0.08296 -1.525104,0.269608 -0.800445,0.18664 -1.527102,0.315431 -1.614785,0.286201 -0.242499,-0.08084 1.436227,-1.525912 2.888336,-2.486332 0.710412,-0.469866 1.291666,-0.903079 1.291666,-0.962694 0,-0.05961 -0.307323,-0.03934 -0.682929,0.04505 -0.375604,0.08439 -0.724725,0.111634 -0.775813,0.06056 -0.05105,-0.05109 0.3827,-0.572753 0.963984,-1.15925 L 39.747579,25.47605 38.99044,24.750584 c -0.950618,-0.910857 -1.857382,-2.744451 -2.195382,-4.439361 -0.246282,-1.234978 -0.35693,-4.428157 -0.153447,-4.428157 0.05536,0 0.508662,0.408058 1.007399,0.906793 1.017215,1.01722 4.346174,3.297622 4.346174,2.977219 0,-0.06029 -0.269276,-0.438235 -0.598381,-0.839871 -0.670475,-0.818218 -0.667281,-0.827862 0.159687,-0.482332 0.975379,0.40754 1.060475,0.272674 0.273412,-0.433309 l -0.743754,-0.667134 0.743754,0.109014 c 1.282251,0.187944 1.880731,0.388925 2.694051,0.904718 0.433551,0.274948 0.823755,0.499907 0.867121,0.499907 0.210872,0 -0.175667,-1.45149 -0.473928,-1.779669 -0.472605,-0.520004 -1.783427,-1.099004 -3.252525,-1.43666 -0.681763,-0.156699 -1.364476,-0.318597 -1.517118,-0.359774 -0.204024,-0.05504 -0.291588,0.0475 -0.330564,0.387073 -0.05163,0.450238 -0.08878,0.427632 -1.465679,-0.892201 -0.845928,-0.810885 -1.66692,-1.788909 -2.046434,-2.437852 -0.348583,-0.596041 -0.686417,-1.08371 -0.750741,-1.08371 -0.449296,0 -0.977445,2.4665 -1.097108,5.123621 -0.08386,1.862236 -0.04615,2.492514 0.228341,3.810951 0.372873,1.791335 1.179569,3.658965 2.094279,4.848605 l 0.621916,0.808846 -0.554213,0.430415 c -0.304814,0.236725 -1.128443,0.934769 -1.83028,1.551205 -1.72463,1.514778 -4.601932,4.791695 -4.391825,5.001796 0.04419,0.04416 0.576856,-0.106618 1.183762,-0.335054 0.606916,-0.228441 1.207825,-0.415347 1.335356,-0.415347 0.127515,0 -0.213478,0.42479 -0.757795,0.943978 -1.279634,1.22057 -3.117744,3.723827 -3.117744,4.245954 0,0.04551 0.576405,-0.268498 1.280898,-0.697774 0.704504,-0.429276 1.736387,-0.992633 2.293079,-1.251906 z m 43.53027,1.792521 c 0,-0.54704 -1.926008,-3.155149 -3.107859,-4.208517 -0.508643,-0.453341 -0.838962,-0.824258 -0.734045,-0.824258 0.104906,0 0.693442,0.182467 1.307834,0.405481 0.614401,0.223015 1.149292,0.373278 1.18865,0.333917 C 75.296007,32.551309 71.368,28.295245 69.190136,26.49471 l -0.819689,-0.677666 0.558082,-0.694458 c 0.82548,-1.027195 1.612051,-2.738526 2.017766,-4.390013 0.657679,-2.677078 0.413553,-6.819443 -0.527229,-8.946231 L 70.089923,11.042263 69.56336,12.09912 c -0.355148,0.712812 -0.969637,1.500736 -1.887628,2.4204 -0.748585,0.749949 -1.440753,1.363544 -1.538145,1.363544 -0.09739,0 -0.177088,-0.148751 -0.177088,-0.330556 0,-0.411494 0.03605,-0.412796 -1.855483,0.06702 -2.593747,0.657958 -3.493163,1.2808 -3.697833,2.560748 l -0.115677,0.723364 0.64456,-0.440343 c 0.690042,-0.471415 2.482766,-1.092737 3.152908,-1.092737 0.393733,0 0.386678,0.0197 -0.208088,0.580621 -0.698889,0.659146 -0.66005,0.864747 0.112504,0.595435 0.842821,-0.293811 0.868707,-0.228831 0.222845,0.559364 -0.335199,0.409063 -0.530089,0.743751 -0.4331,0.743751 0.353344,0 3.672702,-2.345683 4.435386,-3.134343 0.431101,-0.445789 0.843164,-0.773855 0.915679,-0.729034 0.246282,0.152209 0.12608,2.782821 -0.193107,4.226238 -0.174797,0.790443 -0.571546,1.980446 -0.881672,2.644449 -0.527081,1.128521 -1.603223,2.446867 -1.997336,2.446867 -0.09562,0 0.237228,0.427657 0.739688,0.950349 0.50246,0.522692 1.016893,1.087269 1.143168,1.254619 0.217418,0.288131 0.188416,0.298093 -0.546863,0.187831 -0.427054,-0.06405 -0.77647,-0.07766 -0.77647,-0.03027 0,0.04739 0.613598,0.496294 1.363544,0.997564 1.292765,0.864087 3.019237,2.425973 2.678865,2.423486 -0.0871,-6.26e-4 -0.776676,-0.149387 -1.532383,-0.330557 -0.755709,-0.181169 -1.455206,-0.329398 -1.554439,-0.329398 -0.31621,0 0.373988,0.630716 2.468952,2.256186 1.559739,1.210191 2.018226,1.651365 1.947553,1.874022 -0.07319,0.23063 0.157816,0.412951 1.110453,0.876386 0.661589,0.321843 1.611952,0.845801 2.111914,1.164353 0.903578,0.57571 1.156944,0.688407 1.156944,0.514606 z m -33.438004,-1.54588 c 2.364976,-0.439695 2.84782,-0.677165 1.37687,-0.677165 -1.126308,0 -2.573615,0.302155 -3.580739,0.747552 -0.872195,0.385729 -1.219906,0.703376 -0.530373,0.484527 0.194812,-0.06182 1.425222,-0.311543 2.734242,-0.554914 z m 22.934586,0.490897 c -0.368511,-0.361813 -2.872894,-1.055522 -4.082375,-1.130805 -1.849917,-0.115151 -1.608053,0.19113 0.413201,0.523235 0.931757,0.153094 2.06597,0.380461 2.520488,0.505263 1.017372,0.279353 1.360096,0.309877 1.148686,0.102312 z m -24.618173,-2.54071 2.148617,0.03222 -0.909035,-0.246159 c -1.112874,-0.301358 -4.010037,-0.206177 -5.123615,0.168324 l -0.743756,0.250128 1.239592,-0.118363 c 0.681772,-0.0651 2.206464,-0.103866 3.388197,-0.08614 z m 27.576739,0.05142 c -1.244568,-0.50212 -5.024616,-0.61355 -6.00795,-0.177104 -0.324108,0.143853 -0.0029,0.170011 1.487499,0.121313 1.045385,-0.03414 2.309764,-0.0091 2.809735,0.05573 0.499961,0.0648 1.169339,0.123565 1.487499,0.130596 0.483579,0.0108 0.520194,-0.0108 0.223217,-0.13053 z m -23.44707,-0.831085 c -0.181654,-0.293916 -1.968922,-1.119775 -2.985941,-1.379737 -1.273189,-0.325446 -3.183371,-0.528958 -2.96179,-0.315553 0.09092,0.08755 0.592365,0.250526 1.114352,0.362177 0.521987,0.111648 1.786367,0.489621 2.809726,0.839936 2.070675,0.70883 2.172231,0.733581 2.023653,0.493177 z M 62.87785,32.083506 c 1.377302,-0.45276 2.727305,-0.876272 3.000012,-0.941137 l 0.495836,-0.117942 -0.467853,-0.0628 c -1.168408,-0.156826 -5.008567,1.02694 -5.585148,1.721672 -0.267396,0.322201 -0.198184,0.305965 2.557153,-0.599801 z M 48.957566,31.242848 c 0.170416,-0.09121 0.304855,-0.218995 0.298759,-0.283974 -0.0059,-0.06498 -0.824225,-0.771396 -1.818062,-1.569814 -1.91815,-1.540994 -1.886609,-1.537307 -1.818142,-0.212558 0.05066,0.9809 0.705386,1.985039 1.498679,2.298631 0.316563,0.125145 1.434894,-0.01614 1.838766,-0.232285 z m 10.182916,-0.09009 c 0.203269,-0.128699 0.481904,-0.405435 0.619203,-0.614973 0.305814,-0.466734 0.541357,-2.424145 0.291705,-2.424145 -0.09425,0 -0.967168,0.640106 -1.939705,1.422456 -1.853836,1.491319 -1.922314,1.637243 -0.884914,1.885545 0.658796,0.157683 1.405744,0.05274 1.913711,-0.268883 z m -8.769686,-1.510297 c -0.465414,-1.042644 -0.955832,-1.859377 -1.116489,-1.859377 -0.09445,0 -0.125711,-0.07437 -0.06956,-0.165278 0.05615,-0.0909 0.02341,-0.165278 -0.0729,-0.165278 -0.09622,0 -0.156444,-0.07328 -0.133722,-0.162842 0.09474,-0.373558 -2.144335,-2.174951 -3.594799,-2.89204 -1.306736,-0.646036 -3.131,-1.224075 -3.307168,-1.047911 -0.06751,0.06751 0.923831,0.876066 3.52491,2.874971 2.148509,1.651115 2.527171,1.895319 2.746048,1.77095 0.0971,-0.05516 0.120035,-0.03811 0.05105,0.03791 -0.06897,0.07602 0.03693,0.311058 0.235406,0.522333 0.383032,0.407721 0.733985,0.524307 0.53443,0.177541 -0.06908,-0.120036 -0.05584,-0.148889 0.03155,-0.06887 0.0828,0.07575 0.150458,0.203564 0.150458,0.284027 0,0.113821 1.040064,1.111403 1.190287,1.141666 0.01832,0.0037 -0.05791,-0.197814 -0.169544,-0.447796 z m 6.625311,-0.991002 c 0.387392,-0.309717 0.654809,-0.643295 0.594247,-0.741284 -0.06555,-0.106104 -0.03263,-0.130293 0.08143,-0.05979 0.112017,0.06922 0.96321,-0.484724 2.050196,-1.334228 2.74603,-2.146079 3.671096,-2.89968 3.725151,-3.034647 0.06407,-0.160028 -1.184546,0.08306 -2.094954,0.407841 -0.398366,0.142121 -1.14212,0.494585 -1.65278,0.783259 -1.074799,0.607582 -3.708259,3.230587 -3.579729,3.565527 0.04713,0.122774 0.02145,0.183569 -0.05692,0.135088 -0.07848,-0.04848 -0.297858,0.285369 -0.487577,0.741887 l -0.344946,0.830037 0.530785,-0.365281 c 0.29194,-0.200904 0.847751,-0.618686 1.235161,-0.928403 z m -0.125895,-0.269664 c 0,-0.03433 0.130161,-0.164477 0.289236,-0.289236 0.262145,-0.205585 0.267984,-0.199739 0.06241,0.0624 -0.215908,0.275311 -0.351639,0.362865 -0.351639,0.226836 z M 50.917708,17.436668 c 9.8e-4,-0.0091 0.438185,-0.395489 0.970705,-0.858657 l 0.968206,-0.842123 0.973811,0.819947 c 0.907361,0.763996 1.457017,1.558302 1.278626,1.847716 -0.04203,0.06817 -9.8e-4,0.123959 0.09024,0.123959 0.09161,0 0.362203,-0.256425 0.601253,-0.569833 0.533646,-0.699644 1.192551,-1.098302 2.734732,-1.654599 l 1.187681,-0.428422 -0.100152,0.458718 c -0.05507,0.252293 -0.152035,0.644655 -0.215439,0.871911 -0.107289,0.38456 -0.09425,0.396013 0.187603,0.165279 0.435932,-0.356825 1.073161,-1.807444 1.075054,-2.447303 0.002,-0.553729 -0.313105,-2.015204 -0.433982,-2.015204 -0.03616,0 -0.380642,0.324634 -0.765457,0.72141 -0.484177,0.499246 -0.979592,0.811681 -1.608681,1.014526 -1.060445,0.341932 -2.410203,0.993775 -2.560142,1.236373 -0.147685,0.238955 -0.649185,-0.05932 -1.608601,-0.956744 l -0.801024,-0.749268 -0.614078,0.580512 c -0.337746,0.319281 -0.840715,0.735252 -1.117714,0.924379 l -0.503635,0.343871 -0.727107,-0.48833 c -0.399915,-0.268576 -1.228598,-0.640647 -1.841519,-0.826816 -1.10868,-0.336751 -1.628474,-0.687116 -2.16991,-1.462623 -0.415198,-0.594685 -0.670111,-0.230825 -0.753267,1.075219 -0.07594,1.193157 0.24001,2.298041 0.802914,2.80746 0.28371,0.25675 0.324616,0.260657 0.324616,0.03101 0,-0.144525 -0.07642,-0.463868 -0.169906,-0.709651 -0.09348,-0.245782 -0.1465,-0.470277 -0.117902,-0.498879 0.09699,-0.09703 2.350053,0.777885 3.041829,1.181242 0.378418,0.220651 0.853981,0.669684 1.0568,0.997848 l 0.368765,0.596668 0.221612,-0.636526 c 0.121892,-0.350086 0.222727,-0.643962 0.224089,-0.653056 z"
         id="path1"
         sodipodi:nodetypes="cssssssscccsscscssscsscsssscsssssssssscsssssccssssscccssscssscssscssssssssssssssscsscsssscssssssssssssssssssssscsscscsscssscssscssssssssssssscccssssssssscsssssssscsssssssssssssssssssssscscssssssscsssssssssssssssssscsssssssssssscccsssssscsscssscssccsssssscsscccsssscccsssscsssssssssssssscsssssssssssssscsssssssscccsscsssscssssssssssssssscssssssscssssccscssssssssscsssssssscssssssssssscscsssssssssssssssscssscsssssscsssssssssssssssssssssssssssssssssssccsscsscsssccsssssssssscssssscsssssssssssscssscssssssscsssssssssssscssssssssscssssscssscssssscssccsssssscsscsss" /><g
         id="g52"
         transform="matrix(0.96777707,0,0,0.96777707,1.7051302,13.764555)"><text
           xml:space="preserve"
           style="font-size:73.4446px;line-height:1;font-family:'Lifestyle Rounded M54';-inkscape-font-specification:'Lifestyle Rounded M54';text-align:center;letter-spacing:-7.26903px;word-spacing:0px;writing-mode:lr-tb;direction:ltr;text-anchor:middle;fill:#ffc72c;fill-opacity:1;stroke:#ffffff;stroke-width:7.141;stroke-dasharray:none"
           x="52.916672"
           y="84.277664"
           id="text51"><tspan
             sodipodi:role="line"
             id="tspan51"
             style="stroke:#ffffff;stroke-width:7.141;stroke-dasharray:none"
             x="49.282158"
             y="84.277664">V</tspan></text><text
           xml:space="preserve"
           style="font-size:73.4446px;line-height:1;font-family:'Lifestyle Rounded M54';-inkscape-font-specification:'Lifestyle Rounded M54';text-align:center;letter-spacing:-7.26903px;word-spacing:0px;writing-mode:lr-tb;direction:ltr;text-anchor:middle;fill:#ffc72c;fill-opacity:1;stroke:#ffc72c;stroke-width:3.2;stroke-dasharray:none;stroke-opacity:1"
           x="52.916672"
           y="84.277664"
           id="text51-2"><tspan
             sodipodi:role="line"
             id="tspan51-6"
             style="stroke:#ffc72c;stroke-width:3.2;stroke-dasharray:none;stroke-opacity:1"
             x="49.282158"
             y="84.277664">V</tspan></text><text
           xml:space="preserve"
           style="font-size:73.4446px;line-height:1;font-family:'Lifestyle Rounded M54';-inkscape-font-specification:'Lifestyle Rounded M54';text-align:center;letter-spacing:-7.26903px;word-spacing:0px;writing-mode:lr-tb;direction:ltr;text-anchor:middle;fill:#154734;fill-opacity:1;stroke:none;stroke-width:0.6;stroke-dasharray:none;stroke-opacity:1"
           x="52.916672"
           y="84.277664"
           id="text51-2-9"><tspan
             sodipodi:role="line"
             id="tspan51-6-2"
             style="fill:#154734;fill-opacity:1;stroke:none;stroke-width:0.6;stroke-dasharray:none;stroke-opacity:1"
             x="49.282158"
             y="84.277664">V</tspan></text></g></g></g></svg>
