<?xml version="1.0" encoding="UTF-8" standalone="no"?>
<!-- Created with Inkscape (http://www.inkscape.org/) -->

<svg
   width="105.83334mm"
   height="105.83334mm"
   viewBox="0 0 105.83333 105.83333"
   version="1.1"
   id="svg1"
   xml:space="preserve"
   inkscape:version="1.4.3 (0d15f75042, 2025-12-25)"
   sodipodi:docname="villanova.svg"
   inkscape:export-filename="../pngs/villanova.png"
   inkscape:export-xdpi="60.978558"
   inkscape:export-ydpi="60.978558"
   xmlns:inkscape="http://www.inkscape.org/namespaces/inkscape"
   xmlns:sodipodi="http://sodipodi.sourceforge.net/DTD/sodipodi-0.dtd"
   xmlns="http://www.w3.org/2000/svg"
   xmlns:svg="http://www.w3.org/2000/svg"><sodipodi:namedview
     id="namedview1"
     pagecolor="#ffffff"
     bordercolor="#000000"
     borderopacity="0.25"
     inkscape:showpageshadow="2"
     inkscape:pageopacity="0.0"
     inkscape:pagecheckerboard="0"
     inkscape:deskcolor="#d1d1d1"
     inkscape:document-units="mm"
     inkscape:zoom="1.2914656"
     inkscape:cx="246.23188"
     inkscape:cy="120.793"
     inkscape:window-width="1920"
     inkscape:window-height="1011"
     inkscape:window-x="0"
     inkscape:window-y="0"
     inkscape:window-maximized="1"
     inkscape:current-layer="layer1"
     showgrid="false"
     showguides="true" /><defs
     id="defs1" /><g
     inkscape:label="Capa 1"
     inkscape:groupmode="layer"
     id="layer1"><path
       id="path19"
       style="fill:#00205b;fill-opacity:1;stroke:none;stroke-width:0.984473"
       d="m 38.749353,28.58321 c -0.733275,-1.819388 -1.395126,-3.459452 -1.470773,-3.644582 -0.124625,-0.30496 -0.112407,-0.370979 0.12995,-0.70251 0.14713,-0.201246 1.084821,-1.192709 2.083756,-2.203241 0.998945,-1.010542 2.110553,-2.227686 2.47026,-2.704781 1.658906,-2.200318 3.484306,-3.258941 5.814485,-3.372067 2.306769,-0.111994 4.087622,0.734437 4.826656,2.294098 0.849925,1.793681 -7.68e-4,4.086017 -2.379118,6.410948 -1.109511,1.084595 -2.746276,2.293016 -5.689516,4.200544 -1.367197,0.88609 -2.928306,1.930233 -3.469136,2.320321 l -0.983331,0.709252 z m 32.20072,73.20356 1.016587,-3.034163 -1.065909,-1.559166 C 70.314497,96.3359 69.652577,95.374085 69.42982,95.056072 l -0.405022,-0.578204 0.275062,-0.718737 c 0.151284,-0.395305 0.33793,-0.891214 0.414768,-1.10202 0.07679,-0.210805 0.51613,-1.207828 0.976223,-2.215607 0.460094,-1.007779 1.342891,-2.975254 1.96176,-4.372167 0.618869,-1.396914 1.305904,-2.941101 1.526731,-3.431527 l 0.401507,-0.891685 1.621182,-1.011283 c 2.526748,-1.576174 4.071111,-2.451259 7.511451,-4.256205 5.375293,-2.820113 6.678076,-3.678362 8.81641,-5.808121 2.941528,-2.929721 4.472465,-6.18038 4.79931,-10.190421 0.335902,-4.121161 -0.989684,-7.860343 -3.767099,-10.626181 -0.869989,-0.866364 -2.680307,-2.230767 -3.181473,-2.397824 -0.07216,-0.02406 0.219331,-0.793501 0.728874,-1.923815 0.467044,-1.036045 1.574941,-3.511949 2.461981,-5.502008 0.88704,-1.990059 1.655726,-3.670003 1.708179,-3.733208 0.05247,-0.0632 0.827184,-0.307433 1.72162,-0.542729 l 1.626241,-0.427811 0.25426,-0.64847 c 0.139845,-0.356659 1.314825,-3.274776 2.611065,-6.484701 1.29624,-3.209936 2.61206,-6.468503 2.92405,-7.241256 l 0.56725,-1.40502 -15.192265,-0.02737 c -8.355745,-0.01506 -15.213103,-0.0069 -15.238571,0.0189 -0.0255,0.0255 -0.88704,2.226376 -1.914604,4.890921 -1.027563,2.664536 -2.244461,5.793008 -2.70422,6.952149 -0.459749,1.159141 -0.9739,2.481127 -1.14255,2.937745 l -0.306633,0.830216 0.291778,0.05704 c 0.160469,0.03138 0.765959,0.113658 1.345528,0.182854 0.579579,0.0692 1.053771,0.163737 1.053771,0.210089 0,0.04635 -0.553196,1.389976 -1.229332,2.985831 -1.232344,2.908687 -1.813744,4.255034 -3.398086,7.869012 l -0.851038,1.941259 -0.584186,0.144891 c -1.915116,0.474993 -5.181066,1.629305 -8.079365,2.855553 -1.370879,0.580006 -8.444092,3.826375 -10.210089,4.686085 -0.296287,0.144237 -0.308928,0.138042 -0.461019,-0.225956 -0.439823,-1.05266 -0.640951,-2.637843 -0.48192,-3.798295 0.359569,-2.623699 1.878533,-5.070172 4.519294,-7.278857 1.390578,-1.163056 2.954039,-2.254129 5.644762,-3.939225 4.130347,-2.586682 5.691722,-3.68955 7.473057,-5.278564 2.624891,-2.341503 4.545096,-4.868217 6.092166,-8.016461 1.357835,-2.763141 2.05182,-4.982695 2.366841,-7.569851 0.214605,-1.762394 0.215679,-2.618876 0.0049,-4.232181 C 71.599835,12.809151 70.25407,10.086324 68.052335,7.7913695 64.621643,4.2154183 59.823774,2.0278598 53.505189,1.1586586 51.762888,0.91898863 46.798485,0.8857725 44.96699,1.1015592 41.55963,1.5029584 38.110942,2.2816866 34.56928,3.4493899 28.868806,5.3288673 25.473092,7.2700318 22.378608,10.418229 c -0.594435,0.604743 -1.615777,1.500416 -2.269654,1.990379 -1.941854,1.455061 -2.672766,2.343627 -2.971475,3.612347 -0.224972,0.955549 -0.07364,1.781306 0.611427,3.337019 0.04735,0.107446 -1.682287,0.1351 -8.4477939,0.1351 -6.7637545,0 -8.49575787,0.02766 -8.45106279,0.135099 C 1.2669737,20.63017 5.856568,31.940514 6.4313034,33.382325 l 0.7759519,1.946582 1.6218315,0.419359 c 1.2534702,0.324111 1.6541512,0.47113 1.7641272,0.647301 0.07827,0.125367 0.984866,2.19767 2.014675,4.605117 1.029798,2.407446 3.606568,8.413905 5.726139,13.347685 l 3.853769,8.970508 -0.444992,0.368133 c -2.666268,2.205761 -4.759918,5.846897 -5.309155,9.233315 -0.208502,1.285535 -0.206858,3.669873 0.003,4.893922 0.722761,4.208191 3.119304,7.724346 6.975347,10.234082 2.540295,1.653368 7.143131,3.526461 10.820473,4.40332 l 1.046396,0.249512 0.304577,0.81811 c 0.167528,0.449962 0.298787,0.873194 0.291689,0.940516 -0.0069,0.06732 -0.60806,1.05606 -1.335477,2.197196 l -1.32259,2.074792 1.002853,2.828445 c 0.551571,1.55565 1.041966,2.93803 1.089762,3.07196 l 0.08693,0.24351 17.268073,-0.0274 17.268074,-0.0273 z" /><path
       style="fill:#00205b;fill-opacity:1;stroke:none;stroke-width:0.984473"
       d="m 31.193463,88.767016 c -3.939684,-0.38041 -7.049773,-1.744959 -9.469027,-4.154545 -2.54884,-2.538651 -3.829059,-5.650325 -3.83028,-9.309789 -9.55e-4,-2.886515 0.833298,-5.444019 2.556529,-7.837391 0.707325,-0.982376 1.979963,-2.294344 2.896813,-2.98634 0.358958,-0.270917 0.693591,-0.528072 0.743612,-0.571457 0.05001,-0.04342 -0.959261,-2.528069 -2.242857,-5.521527 -1.283595,-2.993458 -4.073454,-9.50371 -6.19969,-14.467207 L 11.782693,34.894212 10.54209,34.534004 C 8.2266089,33.861707 8.5264204,34.059291 8.0547297,32.894757 4.9242332,25.166209 3.411216,21.39355 3.411216,21.316338 c 0,-0.05247 3.4998219,-0.09402 7.919722,-0.09402 h 7.919724 l 0.567549,0.644771 c 0.312156,0.354627 0.95614,0.901778 1.431089,1.215884 l 0.863531,0.571112 -7.560016,0.05405 -7.5600166,0.05405 1.6155892,3.996951 c 0.8885756,2.19832 1.6755244,4.05163 1.7487784,4.118466 0.07325,0.06685 0.449314,0.207054 0.8357,0.311585 1.237956,0.334938 1.783669,0.586648 2.230049,1.028607 0.392598,0.38871 0.906513,1.528523 5.154042,11.431112 4.878124,11.372743 9.223352,21.473487 10.774774,25.046603 0.490385,1.129417 1.442588,3.361218 2.116007,4.959549 l 1.224399,2.906057 -0.652854,-0.06822 c -0.638046,-0.06665 -2.110621,-0.514929 -2.254128,-0.686139 -0.03967,-0.04735 -0.430313,-0.953373 -0.86801,-2.013326 l -0.795809,-1.927185 -0.194994,0.251976 c -0.107249,0.138584 -0.297144,0.519467 -0.421975,0.846401 -0.281619,0.737528 -0.252852,1.883425 0.06379,2.539842 0.480442,0.99607 1.695528,1.839222 3.295002,2.286439 0.980821,0.274235 4.458561,0.275741 5.944318,0.003 3.126628,-0.574843 6.02153,-1.494735 12.212852,-3.880754 7.855643,-3.027432 10.610859,-3.873055 18.589492,-5.705465 1.337466,-0.307165 3.185608,-0.751832 4.106976,-0.988155 8.024481,-2.058179 12.839687,-4.528458 14.320649,-7.346719 0.675339,-1.285191 0.646169,-2.386206 -0.09067,-3.420474 -0.287722,-0.40388 -1.158173,-1.104086 -1.372523,-1.104086 -0.0825,0 -1.866413,4.002001 -1.809333,4.059081 0.01949,0.01959 0.219252,0.160203 0.44382,0.3126 0.455712,0.309262 0.624343,0.274382 1.180226,-0.244081 0.43049,-0.401527 0.364717,-0.182117 -0.142523,0.475353 -0.650037,0.842571 -1.89703,1.748287 -3.559165,2.585099 -0.894906,0.450544 -2.485805,1.147128 -2.485805,1.088423 0,-0.07019 1.700953,-3.893089 4.644213,-10.438044 1.617263,-3.59631 3.331752,-7.414176 3.80997,-8.48415 0.478228,-1.069975 1.43867,-3.209934 2.134318,-4.755449 0.695649,-1.545524 1.719038,-3.819677 2.274192,-5.053675 1.102443,-2.450472 1.355659,-2.806378 2.3219,-3.263489 0.305492,-0.144511 0.892592,-0.34494 1.304673,-0.445385 0.412081,-0.100446 0.803202,-0.236963 0.869142,-0.303376 0.102632,-0.10334 3.284579,-7.968376 3.284579,-8.118685 0,-0.02963 -4.851378,-0.05365 -10.78083,-0.05326 l -10.780818,6e-4 -0.505645,1.269321 c -0.278114,0.698119 -1.037576,2.581052 -1.687693,4.184297 l -1.182047,2.914976 0.57192,0.357738 c 1.077378,0.673902 1.529645,1.742567 1.177696,2.782811 -0.266133,0.786633 -4.195067,10.021976 -7.56355,17.778896 -0.813126,1.872458 -2.111587,4.863534 -2.885461,6.646828 -0.773875,1.783295 -1.893211,4.36096 -2.487419,5.728157 -0.594209,1.367188 -1.216091,2.800275 -1.381974,3.184643 l -0.301594,0.698838 -2.090529,0.61694 c -2.372147,0.700049 -5.482235,1.75696 -7.7106,2.620313 -0.832205,0.322425 -1.544983,0.554397 -1.583959,0.51549 -0.03898,-0.03889 -0.6651,-1.505476 -1.391395,-3.259049 -0.726285,-1.753573 -1.95097,-4.696006 -2.721507,-6.538743 -2.199333,-5.259696 -8.781452,-21.056503 -10.284171,-24.681609 -0.748288,-1.80514 -1.39176,-3.448521 -1.429918,-3.651962 -0.158293,-0.843763 0.457879,-1.913393 1.430637,-2.483462 0.347322,-0.20354 0.465458,-0.332703 0.419444,-0.458567 -0.03524,-0.09638 -0.337143,-0.864683 -0.670908,-1.707362 l -0.60684,-1.532136 0.450732,-0.512064 c 0.24791,-0.281628 0.599219,-0.771572 0.780697,-1.088759 0.181468,-0.317188 0.362857,-0.576153 0.403082,-0.575484 0.04027,6.69e-4 0.648463,1.446054 1.351653,3.211963 l 1.278515,3.210741 -0.630053,0.566564 c -0.346525,0.311616 -0.718902,0.568465 -0.827499,0.570788 -0.108597,0.002 -0.337812,0.14457 -0.509366,0.316124 -0.265946,0.265946 -0.298079,0.357531 -0.218041,0.621449 0.172194,0.567795 0.48441,1.336284 0.542878,1.336216 0.0318,-3e-5 0.519782,-0.418382 1.084485,-0.929648 1.74807,-1.582659 3.13346,-2.573718 8.723535,-6.240556 2.077603,-1.362806 3.501299,-2.466293 4.615004,-3.577015 3.491611,-3.482249 4.026544,-7.207634 1.377002,-9.589793 -1.911384,-1.718496 -5.355593,-2.112404 -8.094023,-0.92569 -1.563137,0.677396 -2.477417,1.445364 -4.015519,3.372962 -0.570423,0.714875 -1.450926,1.688076 -1.95667,2.162681 -2.365964,2.220273 -2.860121,2.837606 -4.219048,5.270682 -1.060868,1.899444 -2.337346,2.841496 -4.209686,3.106792 -1.021253,0.144698 -2.048443,-0.02579 -3.018926,-0.501097 l -0.801086,-0.392322 -0.71202,0.349882 c -2.071785,1.018063 -3.487477,2.425466 -3.971611,3.948328 -0.09451,0.297222 -0.204623,1.075379 -0.24475,1.729256 l -0.07295,1.18886 -0.33545,-0.704144 c -0.713408,-1.497483 -0.700315,-2.610626 0.04834,-4.105342 0.223288,-0.445829 0.422181,-0.847061 0.441999,-0.891647 0.01979,-0.0446 -0.171417,-0.08102 -0.424958,-0.08102 -0.460753,0 -2.127939,-0.391918 -2.291598,-0.538703 -0.04765,-0.04273 0.390058,-0.107229 0.972699,-0.14331 1.362885,-0.08437 2.104203,-0.287417 3.437082,-0.941373 2.229959,-1.094105 3.141365,-2.241991 3.479659,-4.382541 0.135306,-0.856157 0.144275,-1.165114 0.0444,-1.527627 -0.244641,-0.88765 -0.864781,-1.326774 -1.875835,-1.32827 l -0.405288,-6.11e-4 v -0.486349 c 0,-0.438888 0.02491,-0.48635 0.254802,-0.48635 0.14014,0 1.005048,-0.193104 1.922016,-0.429132 2.983082,-0.76781 4.179483,-0.992752 5.608898,-1.054567 l 1.355059,-0.05858 -0.07502,0.798161 c -0.152308,1.620315 -2.237895,5.837326 -3.270863,6.613612 -0.185307,0.139264 -0.738404,0.465745 -1.229095,0.725508 -0.490691,0.259763 -0.853755,0.510715 -0.806796,0.557674 0.182433,0.182433 1.215303,0.29864 1.751122,0.197023 1.179576,-0.223702 2.036757,-0.944996 2.813447,-2.367461 1.280406,-2.344986 2.181869,-3.483647 4.329428,-5.46866 0.450121,-0.416058 1.259604,-1.315768 1.798849,-1.999367 1.685526,-2.13674 3.372756,-3.557768 4.871794,-4.103176 1.14696,-0.417298 1.115752,-0.370713 0.468343,-0.699113 -0.965532,-0.489756 -1.932856,-0.638776 -3.196958,-0.492503 -2.420298,0.280053 -4.448982,1.222923 -6.489687,3.016219 -1.210302,1.063556 -1.461677,1.16479 -6.322592,2.546074 -3.91717,1.113115 -4.309423,1.213925 -5.231855,1.344554 -0.40449,0.0573 -0.752305,0.121022 -0.772919,0.141637 -0.02058,0.02058 0.03761,0.29352 0.12932,0.606475 0.250676,0.855123 1.142845,2.108524 1.998333,2.807402 0.405455,0.331246 0.719532,0.619933 0.697942,0.641522 -0.09756,0.09756 -1.497531,-0.351368 -2.304445,-0.738955 -0.991768,-0.476367 -2.071361,-1.402855 -2.514177,-2.157611 -0.148606,-0.253295 -0.500152,-0.711843 -0.781209,-1.018989 -0.669639,-0.731798 -0.983863,-1.44942 -0.976607,-2.230314 0.01122,-1.208559 0.64098,-2.048905 2.478618,-3.307535 0.5776,-0.3956 1.602151,-1.290516 2.532153,-2.211756 2.698116,-2.6726876 5.164901,-4.1780357 9.501308,-5.7981832 8.40813,-3.1413949 16.583806,-3.9354611 23.429025,-2.2755606 6.079299,1.4741797 10.517412,4.564697 12.654585,8.8121278 0.541874,1.076905 0.804935,1.863686 1.097806,3.283366 0.202684,0.982504 0.226183,1.367059 0.178131,2.915104 -0.06567,2.113339 -0.27522,3.218085 -1.056035,5.566034 -0.912744,2.744652 -2.485371,5.601436 -4.24303,7.707727 -0.960068,1.150514 -3.060698,3.168448 -4.287085,4.118327 -1.223218,0.947427 -2.82216,2.02641 -5.456216,3.68192 -6.27455,3.943563 -8.806468,6.273732 -10.278265,9.459251 -0.650343,1.40759 -0.848596,2.313364 -0.851352,3.889713 l -0.002,1.40502 0.800987,1.89138 c 0.440542,1.040253 0.810743,1.904906 0.822665,1.921455 0.06399,0.0887 1.940534,-0.696239 4.530604,-1.89514 1.608384,-0.744498 3.645889,-1.686925 4.52778,-2.09429 3.353804,-1.549186 7.805828,-3.207787 10.842338,-4.039333 l 1.097549,-0.300559 0.538025,-1.254308 c 0.295923,-0.689869 1.21991,-2.834948 2.053315,-4.766848 2.70486,-6.2701 3.697721,-8.650084 3.697721,-8.863852 0,-0.325684 -0.44254,-0.540801 -1.479673,-0.719256 -0.523651,-0.09008 -0.967983,-0.179293 -0.987397,-0.198195 -0.05897,-0.05739 0.374769,-1.189696 2.683221,-7.004104 l 2.215606,-5.580565 13.374708,-0.003 c 7.356082,-0.002 13.374694,0.03652 13.374694,0.08496 0,0.109503 -0.83486,2.232952 -3.176239,8.078617 l -1.820862,4.546081 -1.398347,0.395522 c -0.769091,0.217539 -1.524447,0.457662 -1.678576,0.533614 -0.198953,0.09805 -0.397865,0.40451 -0.685863,1.056743 -0.223101,0.505271 -1.552278,3.47202 -2.953745,6.59279 l -2.548102,5.67411 0.876624,0.404845 c 1.787804,0.825648 3.45303,2.146122 4.508937,3.575449 2.525617,3.4188 2.966848,8.422906 1.117623,12.675309 -1.490502,3.427492 -4.270448,6.188221 -8.198092,8.141445 -3.172573,1.577717 -5.806502,2.394426 -12.561553,3.89499 -9.321819,2.070731 -11.726798,2.830872 -22.22461,7.024452 -7.532962,3.00921 -11.046695,4.136028 -14.492587,4.647619 -1.736896,0.257873 -4.507302,0.357463 -5.982181,0.215049 z"
       id="path16" /><path
       style="fill:#00205b;fill-opacity:1;stroke:none;stroke-width:3.72623"
       d="m 36.291293,91.475675 3.227032,0.453802 1.563097,2.924499 -2.117742,4.63886 11.092929,0.907604 15.832634,-0.453802 -1.008448,-3.025343 -1.159716,-2.621965 4.235482,-10.68955 0.958025,-1.916051 5.04224,-1.159716 -5.848996,14.017428 c 0,0 2.874075,4.235481 2.924498,4.437172 0.05042,0.201689 -1.613516,4.991817 -1.613516,4.991817 0,0 -24.303599,0.25211 -24.505287,0.25211 -0.201692,0 -8.470967,-0.20169 -8.470967,-0.20169 l -2.016896,-4.084212 0.80676,-3.227034 1.764785,-2.420274 z"
       id="path31" /><path
       id="path1"
       style="fill:#ffffff;stroke:none;stroke-width:0.984473"
       d="m 67.130424,100.03475 0.240399,-0.787301 -0.816187,-1.20213 c -1.003582,-1.478138 -1.971054,-3.10354 -1.971054,-3.311481 0,-0.08525 0.943234,-2.276331 2.096072,-4.869079 2.678682,-6.024392 3.864618,-8.775767 3.825377,-8.874873 -0.01713,-0.04329 -0.512556,0.102279 -1.100907,0.323485 -0.802818,0.301835 -1.105209,0.469894 -1.211906,0.673521 -0.07817,0.149231 -0.734161,1.627343 -1.457719,3.284692 -0.723568,1.65735 -1.605174,3.669939 -1.959141,4.472422 -1.863175,4.224056 -1.921072,4.374272 -1.919969,4.981934 9.84e-4,0.714081 0.251887,1.281418 1.26997,2.875087 0.41022,0.642139 0.781278,1.22832 0.824575,1.302624 0.06281,0.107755 -2.45945,0.135099 -12.461796,0.135099 H 39.947623 l 0.769593,-1.269921 c 1.533996,-2.531274 1.59077,-2.854573 0.830324,-4.728432 l -0.482461,-1.188862 -0.939965,-0.03123 c -0.516976,-0.01718 -0.939955,0.01257 -0.939955,0.06612 0,0.05354 0.246886,0.693897 0.548647,1.42302 0.399204,0.964574 0.529568,1.402878 0.478611,1.6091 -0.03849,0.155883 -0.609093,1.180468 -1.267952,2.276857 l -1.197927,1.993434 0.118127,0.43833 c 0.06497,0.241082 0.194847,0.620894 0.288608,0.844024 l 0.170491,0.40569 14.283131,-0.0274 14.283131,-0.0274 z m -30.658237,2.92184 c -0.638923,-1.66963 -1.400817,-3.960373 -1.356023,-4.077097 0.03091,-0.08056 0.520835,-0.881056 1.088709,-1.778882 1.425054,-2.253051 1.509955,-2.430865 1.362737,-2.854085 -0.362906,-1.043313 -1.129998,-2.773266 -1.229705,-2.773266 -0.210372,0 -4.503049,-1.223921 -4.456376,-1.270596 0.0251,-0.02513 0.480758,0.02904 1.012511,0.120382 1.2922,0.22197 5.842091,0.444216 6.644052,0.324538 l 0.623133,-0.09299 -0.722564,-0.486353 c -0.397412,-0.267494 -0.742667,-0.547147 -0.76724,-0.621451 -0.08289,-0.250686 0.5307,-0.1432 1.067287,0.186962 0.28787,0.177133 0.823089,0.448192 1.189352,0.602353 l 0.665947,0.280292 1.038206,-0.174716 c 1.38413,-0.232931 2.645949,-0.5313 3.953871,-0.934929 l 1.078352,-0.332781 -0.868108,-0.344855 c -0.95302,-0.378588 -1.883012,-0.887848 -1.883012,-1.031128 0,-0.05033 0.170235,-0.123431 0.378313,-0.162467 0.302125,-0.05668 0.539305,0.0054 1.177765,0.3084 0.439695,0.208655 1.157051,0.472676 1.594118,0.586715 0.908885,0.237143 0.743248,0.275057 3.226424,-0.73853 2.354771,-0.961171 3.240187,-1.352794 3.241269,-1.433629 6.01e-4,-0.04458 -0.137206,-0.08106 -0.30623,-0.08106 -0.516907,0 -2.718878,-0.878854 -2.718878,-1.085165 0,-0.03709 0.172716,-0.120439 0.383816,-0.185227 0.333924,-0.102484 0.479114,-0.0785 1.116934,0.184516 0.71393,0.294402 1.831583,0.60732 2.402952,0.672774 0.180424,0.02066 1.086828,-0.33826 2.499528,-0.989791 L 60.12577,83.752299 59.355498,83.522202 C 58.93185,83.395649 58.342052,83.181394 58.044839,83.04608 l -0.540387,-0.246024 0.369286,-0.156325 c 0.344182,-0.145696 0.436023,-0.134459 1.350983,0.165301 1.402352,0.459444 1.989571,0.519158 2.50954,0.25519 0.229658,-0.116589 1.292997,-0.586752 2.362972,-1.044805 1.069975,-0.458055 1.982315,-0.867844 2.027434,-0.910643 0.04509,-0.04279 -0.149433,-0.08237 -0.432322,-0.08793 -0.282878,-0.0056 -0.757503,-0.119169 -1.054725,-0.252451 l -0.540387,-0.242331 0.378274,-0.09019 c 0.292831,-0.06982 0.58392,-0.0247 1.288715,0.199747 l 0.91044,0.289932 0.98093,-0.358922 c 2.967655,-1.085858 5.615671,-1.909827 8.161706,-2.539632 1.571701,-0.388787 2.877408,-0.687115 2.901567,-0.662951 0.02422,0.02416 -0.167479,0.15041 -0.425864,0.280547 -0.75258,0.379027 -3.199892,1.871009 -4.190282,2.554564 -0.809128,0.558452 -0.937956,0.694517 -1.15774,1.222804 -0.81034,1.947735 -3.131747,7.299265 -4.298072,9.908342 -0.748751,1.67495 -1.361359,3.128268 -1.361359,3.229596 0,0.243115 0.244257,0.639716 1.639807,2.662506 0.643619,0.932915 1.170234,1.731097 1.170234,1.773738 0,0.04264 -0.300501,1.018057 -0.667769,2.167597 l -0.667758,2.09006 H 52.672993 36.585923 Z m 19.418182,-34.891492 3.897923,-1.986676 0.283056,-0.677285 c 0.155685,-0.372506 0.626686,-1.467323 1.046662,-2.432924 0.419986,-0.965602 0.763617,-1.777548 0.763617,-1.804324 0,-0.111578 -1.386493,0.541397 -5.836233,2.748602 -2.585778,1.282623 -5.054019,2.492216 -5.484982,2.687986 -0.430963,0.19577 -0.783572,0.372933 -0.783572,0.393695 0,0.02076 0.283528,0.709999 0.630073,1.531637 0.346534,0.821637 0.660522,1.577408 0.697755,1.679491 0.06281,0.17208 0.09756,0.17325 0.477745,0.01604 0.225513,-0.09326 2.164098,-1.06357 4.307956,-2.156242 z M 40.698117,42.699725 c 1.879477,-2.598948 3.854449,-4.216796 10.432078,-8.545705 3.876147,-2.550988 6.073215,-4.374095 7.657075,-6.353762 2.92678,-3.658167 3.798432,-8.219153 2.183601,-11.425789 -1.516827,-3.012025 -4.952579,-5.00007 -9.383634,-5.429704 -1.650548,-0.160036 -4.499171,0.04292 -5.580664,0.397678 -0.09215,0.03022 0.09008,0.220729 0.474851,0.496273 l 0.624491,0.447187 1.416529,0.02786 c 1.724708,0.03396 3.095075,0.352362 4.369328,1.015297 1.34737,0.700984 2.527497,1.820271 3.108898,2.948635 l 0.264518,0.513373 h 0.8401 c 0.728412,0 1.173856,-0.0761 2.246971,-0.383876 0.18071,-0.05178 0.255382,0.0039 0.368498,0.277494 0.119397,0.288244 0.117734,0.358102 -0.01044,0.440985 -0.284217,0.183732 -1.770536,0.611387 -2.380446,0.684927 l -0.606918,0.07315 0.05356,1.213275 c 0.032,0.724946 0.003,1.447884 -0.07147,1.796181 -0.09932,0.463096 -0.09667,0.600903 0.013,0.670476 0.0759,0.04814 0.929255,0.08831 1.896332,0.08919 l 1.758338,0.002 -0.07108,0.297222 c -0.03908,0.163462 -0.08821,0.328342 -0.109178,0.366392 -0.08112,0.147169 -2.561363,0.44572 -3.262367,0.392716 l -0.722554,-0.05464 -0.414581,0.839096 c -0.228024,0.461511 -0.749273,1.279943 -1.158341,1.818735 l -0.74375,0.97963 0.401783,0.111216 c 0.383393,0.106126 1.966918,0.361597 3.089641,0.498448 l 0.52628,0.06419 -0.364167,0.380824 -0.364156,0.380813 -1.080784,-0.06635 c -0.594435,-0.03652 -1.527883,-0.16992 -2.074344,-0.296523 l -0.99356,-0.23019 -0.722614,0.66216 c -0.674472,0.618022 -2.386874,1.956798 -2.937362,2.296451 -0.133751,0.0825 -0.243185,0.180838 -0.243185,0.218474 0,0.100653 1.860714,0.694664 2.891103,0.922954 0.490405,0.108656 0.891312,0.222313 0.890908,0.252576 -0.002,0.128267 -0.735549,0.541372 -0.961682,0.541372 -0.436496,0 -2.331528,-0.421601 -3.18798,-0.709254 l -0.831506,-0.279276 -2.534694,1.684219 c -1.394083,0.92632 -2.534693,1.722248 -2.534693,1.76873 0,0.135355 2.708778,1.085673 3.512551,1.232303 0.173592,0.03167 0.119525,0.09664 -0.27458,0.329928 l -0.49073,0.290495 -1.141674,-0.25797 c -0.627916,-0.141884 -1.497255,-0.381632 -1.931861,-0.532773 -0.434606,-0.151142 -0.850368,-0.240406 -0.923899,-0.198366 -0.316449,0.180913 -2.315648,1.899063 -2.89378,2.48696 l -0.631421,0.642091 0.318654,0.743341 c 0.175256,0.408837 0.62962,1.509039 1.009696,2.444896 0.380075,0.935856 0.715367,1.700445 0.745088,1.699085 0.02973,-0.0014 0.272827,-0.305025 0.54025,-0.674812 z M 27.326628,13.720389 c 0.745719,-0.334022 0.775538,-0.33604 1.142078,-0.07699 0.250637,0.177107 0.992221,0.416786 0.987771,0.319245 -8.96e-4,-0.01959 -0.07177,-0.23015 -0.157378,-0.46793 -0.246059,-0.682998 -0.211918,-0.777379 0.437126,-1.208323 0.495091,-0.328725 0.619903,-0.372219 0.700856,-0.244277 0.179893,0.284316 0.10269,0.906109 -0.172224,1.387034 -0.149285,0.261141 -0.256071,0.490159 -0.237317,0.508923 0.102238,0.102238 1.157229,-0.519949 1.453181,-0.857013 0.375261,-0.427409 0.679336,-1.283487 0.679336,-1.912575 0,-0.387893 0.02835,-0.414444 1.448731,-1.3583765 0.796803,-0.5295186 1.538495,-1.0204262 1.648195,-1.0909046 0.251543,-0.1616111 -1.404853,0.3276721 -2.340378,0.6913168 -1.094154,0.4253121 -2.451024,1.1669943 -3.480783,1.9026423 -0.911897,0.651445 -3.194339,2.641627 -3.211568,2.800334 -0.0098,0.08713 0.185426,0.01762 1.102374,-0.393071 z m 3.866814,75.046621 c -3.939675,-0.380404 -7.049763,-1.744955 -9.469028,-4.15454 -2.54884,-2.538647 -3.829059,-5.650324 -3.83027,-9.309795 -9.55e-4,-2.886509 0.833298,-5.444016 2.55653,-7.837383 0.707324,-0.98238 1.979962,-2.294352 2.896812,-2.98634 0.358959,-0.270922 0.693581,-0.528078 0.743612,-0.571456 0.05001,-0.04338 -0.959261,-2.528069 -2.242856,-5.521531 -1.283606,-2.993463 -4.073465,-9.503706 -6.199691,-14.467207 L 11.782673,34.89421 10.542079,34.534002 C 8.2265981,33.861703 8.5264095,34.059288 8.054709,32.894759 4.9242224,25.166209 3.4112052,21.39355 3.4112052,21.316328 c 0,-0.05247 3.499812,-0.09402 7.9197128,-0.09402 h 7.919722 l 0.567559,0.64478 c 0.312147,0.354627 0.95614,0.901768 1.431089,1.215884 l 0.863531,0.571103 -7.560016,0.05405 -7.5600154,0.05405 1.6155892,3.996951 c 0.8885756,2.198332 1.6755242,4.051642 1.7487792,4.118478 0.07324,0.06685 0.449313,0.207044 0.835689,0.311585 1.237965,0.334938 1.783679,0.586645 2.230058,1.028607 0.392589,0.38871 0.906503,1.528517 5.154033,11.431106 4.878123,11.37274 9.223352,21.473487 10.774773,25.046604 0.490386,1.12942 1.442588,3.361217 2.116017,4.959548 l 1.224399,2.90606 -0.652853,-0.06823 c -0.638047,-0.06669 -2.110622,-0.514926 -2.254129,-0.686136 -0.03967,-0.04737 -0.430323,-0.953373 -0.86801,-2.013328 l -0.795809,-1.92719 -0.195004,0.251974 c -0.107249,0.138586 -0.297134,0.519469 -0.421975,0.846407 -0.281608,0.737527 -0.252842,1.883426 0.06379,2.539842 0.480443,0.996064 1.695519,1.839222 3.295002,2.286434 0.980811,0.274234 4.458561,0.275749 5.944308,0.0026 3.126638,-0.574843 6.02154,-1.494728 12.212863,-3.880754 7.855643,-3.027425 10.610858,-3.873052 18.589492,-5.705457 1.337466,-0.30717 3.185607,-0.751842 4.106976,-0.98816 8.02448,-2.058175 12.839686,-4.528454 14.320639,-7.346722 0.675348,-1.285184 0.646169,-2.386206 -0.09067,-3.42047 -0.287722,-0.403878 -1.158174,-1.104084 -1.372533,-1.104084 -0.0825,0 -1.866404,4.002 -1.809334,4.059075 0.01949,0.01954 0.219262,0.160211 0.44382,0.312601 0.455723,0.30926 0.624344,0.274387 1.180236,-0.244083 0.430491,-0.401521 0.364708,-0.182109 -0.142522,0.475357 -0.650038,0.842571 -1.89704,1.748291 -3.559166,2.585096 -0.894906,0.450544 -2.485805,1.147128 -2.485805,1.088426 0,-0.07014 1.700954,-3.893091 4.644213,-10.43804 1.617263,-3.59631 3.331743,-7.414179 3.809971,-8.484156 0.478227,-1.069977 1.438659,-3.209929 2.134308,-4.75545 0.695648,-1.545522 1.719038,-3.819675 2.274202,-5.053673 1.102433,-2.450469 1.355659,-2.806376 2.3219,-3.263483 0.305491,-0.144521 0.892592,-0.34494 1.304673,-0.445386 0.41208,-0.100446 0.803202,-0.236963 0.869142,-0.303375 0.102621,-0.10335 3.28457,-7.968378 3.28457,-8.118698 0,-0.02963 -4.851369,-0.05365 -10.780822,-0.05326 l -10.780828,6.01e-4 -0.505645,1.26932 c -0.278103,0.69813 -1.037565,2.581063 -1.687692,4.1843 l -1.182047,2.914986 0.57192,0.357738 c 1.077388,0.673901 1.529645,1.742562 1.177705,2.782807 -0.266142,0.786637 -4.195066,10.021974 -7.563549,17.778898 -0.813126,1.87246 -2.111587,4.863529 -2.885462,6.646824 -0.773875,1.783293 -1.893221,4.360964 -2.487429,5.728155 -0.594198,1.367192 -1.21609,2.800281 -1.381964,3.184642 l -0.301593,0.698838 -2.090529,0.616943 c -2.372147,0.700052 -5.482246,1.756961 -7.710611,2.620314 -0.832204,0.322427 -1.544983,0.554398 -1.583948,0.515492 -0.03898,-0.03891 -0.6651,-1.50548 -1.391395,-3.259053 -0.726295,-1.753572 -1.95097,-4.696007 -2.721517,-6.538744 -2.199333,-5.259688 -8.781442,-21.056503 -10.284171,-24.681605 -0.748289,-1.805142 -1.39175,-3.448525 -1.429918,-3.651962 -0.158284,-0.84376 0.457888,-1.913388 1.430646,-2.483458 0.347322,-0.20355 0.465459,-0.332703 0.419445,-0.458578 -0.03524,-0.09638 -0.337143,-0.864682 -0.670909,-1.707352 l -0.606849,-1.532136 0.450741,-0.512064 c 0.2479,-0.281638 0.59921,-0.771583 0.780687,-1.088771 0.181478,-0.317187 0.362867,-0.576153 0.403083,-0.575483 0.04026,6.69e-4 0.648463,1.446056 1.351652,3.211964 l 1.278526,3.210749 -0.630053,0.566569 c -0.346525,0.311612 -0.718912,0.568463 -0.827509,0.57078 -0.108597,0.0024 -0.337812,0.144574 -0.509357,0.316126 -0.265945,0.265942 -0.298078,0.35753 -0.218041,0.62145 0.172194,0.567795 0.48441,1.336286 0.542868,1.336217 0.0318,-3.7e-5 0.519782,-0.418381 1.084496,-0.929653 1.74807,-1.582655 3.13346,-2.573718 8.723535,-6.24055 2.077603,-1.362816 3.501298,-2.466295 4.615003,-3.577027 3.491612,-3.482249 4.026535,-7.207623 1.377003,-9.589783 -1.911384,-1.718506 -5.355593,-2.112404 -8.094034,-0.92569 -1.563136,0.677396 -2.477407,1.445364 -4.015508,3.372953 -0.570424,0.714875 -1.450927,1.688086 -1.95667,2.162681 -2.365975,2.220272 -2.860131,2.837606 -4.219049,5.270692 -1.060868,1.899445 -2.337355,2.841498 -4.209686,3.106784 -1.021263,0.144707 -2.048442,-0.02579 -3.018936,-0.501087 l -0.801076,-0.392333 -0.71202,0.349882 c -2.071784,1.018073 -3.487476,2.425466 -3.971611,3.948338 -0.09451,0.297214 -0.204632,1.075378 -0.244759,1.729254 l -0.07295,1.188862 -0.335459,-0.704149 c -0.713399,-1.497479 -0.700305,-2.610621 0.04834,-4.105337 0.223278,-0.445828 0.422181,-0.84707 0.441998,-0.891647 0.01979,-0.0446 -0.171416,-0.08102 -0.424957,-0.08102 -0.460763,0 -2.127939,-0.391919 -2.291608,-0.538714 -0.04765,-0.04273 0.390058,-0.107229 0.972709,-0.1433 1.362885,-0.08437 2.104203,-0.287417 3.437081,-0.941382 2.22996,-1.094108 3.141366,-2.241993 3.47965,-4.382543 0.135306,-0.856147 0.144285,-1.165114 0.0444,-1.527627 -0.244632,-0.88764 -0.864781,-1.326765 -1.875825,-1.328271 l -0.405298,-6e-4 v -0.48635 c 0,-0.438888 0.02491,-0.486359 0.254812,-0.486359 0.140139,0 1.005048,-0.193105 1.922016,-0.429122 2.983082,-0.76782 4.179473,-0.992763 5.608898,-1.054578 l 1.355059,-0.05858 -0.07502,0.798172 c -0.152308,1.620305 -2.237895,5.837325 -3.270863,6.613612 -0.185317,0.139263 -0.738404,0.465744 -1.229095,0.725507 -0.490701,0.259763 -0.853755,0.510715 -0.806796,0.557675 0.182433,0.182423 1.215303,0.29864 1.751122,0.197022 1.179576,-0.223702 2.036757,-0.945005 2.813447,-2.367461 1.280406,-2.344985 2.181868,-3.483657 4.329428,-5.46867 0.450121,-0.416048 1.259604,-1.315768 1.798849,-1.999356 1.685526,-2.13674 3.372756,-3.557778 4.871793,-4.103176 1.146961,-0.417309 1.115753,-0.370723 0.468344,-0.699114 -0.965532,-0.489766 -1.932856,-0.638785 -3.196969,-0.492512 -2.420287,0.280053 -4.448972,1.222932 -6.489686,3.016219 -1.210292,1.063556 -1.461667,1.164789 -6.322582,2.546084 -3.91717,1.113114 -4.309433,1.213924 -5.231855,1.344554 -0.40449,0.0573 -0.752305,0.121011 -0.77292,0.141626 -0.02058,0.02058 0.03761,0.293531 0.129321,0.606475 0.250666,0.855133 1.142845,2.108525 1.998323,2.807412 0.405465,0.331246 0.719541,0.619923 0.697952,0.641513 -0.09756,0.09756 -1.497532,-0.351359 -2.304455,-0.738946 -0.991758,-0.476377 -2.071351,-1.402864 -2.514167,-2.157621 -0.148606,-0.253285 -0.500152,-0.711833 -0.781209,-1.018979 -0.669639,-0.731798 -0.983863,-1.44942 -0.976607,-2.230324 0.01122,-1.208559 0.64097,-2.048895 2.478617,-3.307524 0.577601,-0.395611 1.602152,-1.290517 2.532154,-2.211757 2.698116,-2.6726873 5.164891,-4.1780452 9.501308,-5.7981927 8.40812,-3.1413949 16.583805,-3.9354611 23.429025,-2.2755507 6.079299,1.4741698 10.517412,4.5646871 12.654585,8.8121174 0.541864,1.076906 0.804935,1.863697 1.097806,3.283376 0.202683,0.982494 0.226183,1.367059 0.178121,2.915104 -0.06557,2.113339 -0.27521,3.218085 -1.056025,5.566034 -0.912744,2.744652 -2.485381,5.601439 -4.24303,7.707729 -0.960068,1.150508 -3.060708,3.168448 -4.287086,4.118321 -1.223227,0.947427 -2.822159,2.026409 -5.456216,3.68192 -6.274549,3.943571 -8.806467,6.273732 -10.278264,9.459258 -0.650343,1.407582 -0.848596,2.313358 -0.851353,3.889713 l -0.002,1.405019 0.800987,1.891372 c 0.440542,1.040255 0.810734,1.904912 0.822656,1.92146 0.06389,0.08874 1.940544,-0.696236 4.530604,-1.895138 1.608393,-0.744498 3.645889,-1.68693 4.527789,-2.094293 3.353805,-1.549183 7.805819,-3.207791 10.842338,-4.039334 l 1.09755,-0.300562 0.538025,-1.254301 c 0.295912,-0.689866 1.2199,-2.834947 2.053305,-4.766849 2.70487,-6.270101 3.697721,-8.650081 3.697721,-8.86385 0,-0.325684 -0.44254,-0.5408 -1.479663,-0.719255 -0.523651,-0.0901 -0.967983,-0.17929 -0.987397,-0.198194 -0.05897,-0.05743 0.374769,-1.189697 2.683221,-7.004117 l 2.215606,-5.580556 13.374708,-0.003 c 7.356082,-0.002 13.374694,0.03652 13.374694,0.08496 0,0.109503 -0.83487,2.232953 -3.176247,8.07862 l -1.820852,4.546081 -1.39835,0.395524 c -0.76909,0.217539 -1.524446,0.457662 -1.678576,0.533608 -0.198962,0.09803 -0.397874,0.404509 -0.685862,1.056749 -0.223102,0.505267 -1.552288,3.47202 -2.953745,6.592784 l -2.548102,5.674116 0.876614,0.404841 c 1.787804,0.825645 3.45304,2.146121 4.508947,3.575444 2.525616,3.418802 2.966838,8.422906 1.117613,12.67531 -1.490492,3.427494 -4.270438,6.188229 -8.198082,8.141449 -3.172573,1.577719 -5.806502,2.394428 -12.561553,3.894986 -9.321819,2.070738 -11.726799,2.830871 -22.22462,7.024459 -7.532953,3.009208 -11.046695,4.136027 -14.492577,4.647618 -1.736906,0.257867 -4.507312,0.357458 -5.982191,0.215048 z M 34.576771,77.35445 C 34.537294,77.243582 33.37469,74.526565 31.993307,71.316636 30.611913,68.106707 26.855203,59.352355 23.645053,51.862521 16.227983,34.557209 15.559279,33.025961 15.230997,32.595568 14.564508,31.72175 13.500313,30.98182 12.481058,30.683534 c -0.381582,-0.111679 -0.72978,-0.233251 -0.773776,-0.270169 -0.0758,-0.0636 -1.8788279,-4.385526 -1.9970336,-4.786886 -0.052669,-0.178839 0.3508366,-0.189137 7.4143036,-0.189137 4.108512,0 7.470015,0.03908 7.470015,0.08693 0,0.254772 -1.580443,1.46533 -2.556893,1.958482 -1.111529,0.561369 -2.172378,0.789934 -3.737415,0.805253 -1.328084,0.013 -1.368201,0.02008 -1.134822,0.200684 0.317562,0.245745 2.438471,1.325456 2.769018,1.409658 0.208384,0.05306 0.243844,0.113135 0.186075,0.315139 -0.503331,1.759894 -0.496617,2.621058 0.03022,3.874944 0.331167,0.788204 1.074976,1.901594 1.606217,2.404318 l 0.318644,0.301546 0.0698,-1.004056 c 0.194423,-2.795445 1.255538,-4.616713 3.271945,-5.615884 l 0.902959,-0.447424 0.731267,0.334957 c 1.58514,0.726069 3.726329,0.722988 5.45282,-0.0079 l 0.398396,-0.16865 0.325063,0.775174 0.325064,0.775174 -0.474083,0.486359 c -0.663958,0.681147 -0.938804,1.364672 -0.999565,2.485801 -0.03948,0.729236 -0.0059,1.04124 0.161434,1.513098 0.234974,0.661292 1.866108,4.611273 5.511917,13.347684 1.339533,3.209929 2.665304,6.39554 2.946144,7.079136 0.280841,0.683596 1.447452,3.480125 2.592453,6.21451 4.034322,9.6343 4.6476,11.114728 4.617012,11.145315 -0.08516,0.08519 -1.723842,0.740248 -3.161006,1.263631 -3.998241,1.456066 -7.01126,2.26277 -9.370481,2.508849 -0.651869,0.068 -0.735667,0.05484 -0.800003,-0.12563 z m 28.709876,-8.718256 c 0,-0.03274 0.703357,-1.66581 1.563009,-3.629029 0.859662,-1.963219 2.168046,-4.970051 2.907543,-6.681851 0.739487,-1.711799 1.986657,-4.595738 2.771469,-6.408754 4.80611,-11.102617 6.884736,-16.054172 7.036522,-16.761933 0.222127,-1.035768 -0.195575,-2.417777 -0.991866,-3.281652 -0.247369,-0.268368 -0.425627,-0.550862 -0.396113,-0.627779 0.02953,-0.07689 0.575878,-1.415131 1.214141,-2.973838 l 1.160487,-2.834016 H 87.4012 c 4.867146,0 8.84936,0.01506 8.84936,0.03347 0,0.01841 -0.450249,1.139321 -1.000559,2.490957 l -1.00057,2.457511 -0.88446,0.296759 c -1.02464,0.343788 -1.911463,0.916722 -2.465495,1.592848 -0.421847,0.514804 -0.717504,1.117688 -2.486937,5.071161 -0.63851,1.426635 -1.490896,3.323412 -1.894195,4.215058 -0.403299,0.891647 -1.168796,2.593882 -1.701101,3.782745 -4.794197,10.707317 -6.152239,13.744576 -7.4646,16.694526 l -1.512959,3.400882 -0.737508,0.250029 c -1.364864,0.462722 -5.038327,1.428345 -8.140864,2.139943 -3.798492,0.871221 -3.674665,0.845175 -3.674665,0.772997 z M 38.749342,28.58321 c -0.733275,-1.819388 -1.395126,-3.459452 -1.470773,-3.644572 -0.124624,-0.30497 -0.112417,-0.370979 0.12995,-0.70251 0.14713,-0.201256 1.084821,-1.192719 2.083756,-2.203251 0.998935,-1.010533 2.110553,-2.227686 2.47026,-2.704781 1.658906,-2.200308 3.484306,-3.258941 5.814485,-3.372067 2.306769,-0.111994 4.087622,0.734446 4.826656,2.294098 0.849915,1.79369 -7.78e-4,4.086026 -2.379127,6.410958 -1.109501,1.084585 -2.746277,2.293006 -5.689507,4.200544 -1.367197,0.886084 -2.928306,1.930227 -3.469136,2.320314 l -0.983331,0.709254 z m 32.20072,73.20357 1.016587,-3.034169 -1.065909,-1.559166 c -0.586254,-0.857541 -1.248174,-1.819357 -1.470941,-2.13737 l -0.405022,-0.578204 0.275072,-0.718737 c 0.151284,-0.395305 0.33793,-0.891214 0.414758,-1.102019 0.07679,-0.210806 0.51614,-1.207829 0.976233,-2.215608 0.460094,-1.007779 1.342891,-2.975254 1.96176,-4.372168 0.61887,-1.396913 1.305904,-2.9411 1.526731,-3.431527 l 0.401508,-0.891684 1.621171,-1.011282 c 2.526759,-1.576176 4.071121,-2.45126 7.511452,-4.256206 5.375302,-2.820112 6.678075,-3.678362 8.81642,-5.80812 2.941527,-2.929722 4.472465,-6.18038 4.79931,-10.190422 0.335903,-4.12116 -0.989685,-7.860343 -3.7671,-10.62618 -0.869999,-0.866365 -2.680307,-2.230767 -3.181483,-2.397824 -0.07216,-0.02406 0.219341,-0.793501 0.728885,-1.923815 0.467043,-1.036045 1.57493,-3.511948 2.46198,-5.502007 0.88704,-1.99006 1.655726,-3.670004 1.708179,-3.733209 0.05247,-0.0632 0.827184,-0.307433 1.721621,-0.542729 l 1.626242,-0.42781 0.254259,-0.64847 c 0.139845,-0.356659 1.314825,-3.274781 2.611055,-6.484706 1.29625,-3.209936 2.61207,-6.468493 2.92406,-7.241256 l 0.56725,-1.40502 -15.192275,-0.02737 c -8.355746,-0.01506 -15.213104,-0.0069 -15.238572,0.0189 -0.0255,0.0255 -0.88703,2.226386 -1.914594,4.890921 -1.027563,2.664546 -2.244461,5.793008 -2.704219,6.952156 -0.459759,1.159138 -0.9739,2.481123 -1.14255,2.937743 l -0.306634,0.830215 0.291768,0.05704 c 0.160479,0.03137 0.765969,0.113658 1.345539,0.182854 0.579569,0.0692 1.05377,0.163738 1.05377,0.210089 0,0.04635 -0.553205,1.389976 -1.229332,2.985831 -1.232353,2.908688 -1.813744,4.255034 -3.398096,7.869012 l -0.851037,1.941259 -0.584177,0.14489 c -1.915115,0.474993 -5.181076,1.629304 -8.079374,2.855552 -1.37087,0.580007 -8.444093,3.826376 -10.21008,4.686086 -0.296287,0.144238 -0.308928,0.138042 -0.461019,-0.225956 -0.439833,-1.05266 -0.640951,-2.637843 -0.481919,-3.798294 0.359569,-2.6237 1.878532,-5.070173 4.519293,-7.278857 1.390568,-1.163056 2.954039,-2.254129 5.644762,-3.939226 4.130348,-2.586681 5.691712,-3.689549 7.473047,-5.278563 2.624901,-2.341503 4.545097,-4.868216 6.092176,-8.016465 1.357835,-2.763141 2.05181,-4.982695 2.366841,-7.569851 0.214606,-1.762384 0.215669,-2.618876 0.0049,-4.232181 C 71.599814,12.809151 70.254049,10.086324 68.052324,7.7913793 64.621622,4.2154183 59.823763,2.0278598 53.505178,1.1586783 51.762877,0.91899847 46.798474,0.88578235 44.96698,1.1015789 41.55962,1.5029781 38.110931,2.2816964 34.569259,3.4493997 c -5.700473,1.8794676 -9.096187,3.820642 -12.190672,6.9688293 -0.594425,0.604752 -1.615767,1.500416 -2.269644,1.990379 -1.941853,1.455071 -2.672776,2.343637 -2.971475,3.612347 -0.224981,0.955559 -0.07364,1.781315 0.611417,3.337029 0.04735,0.107436 -1.682277,0.135099 -8.4477837,0.135099 -6.7637539,0 -8.49575721,0.02766 -8.45107197,0.1351 C 1.2669636,20.63018 5.856548,31.940519 6.4312834,33.382333 l 0.775952,1.946582 1.6218406,0.419358 c 1.253471,0.324112 1.654151,0.471131 1.764127,0.647301 0.07827,0.125368 0.984867,2.197671 2.014665,4.605118 1.029808,2.407446 3.606578,8.413904 5.726149,13.347684 l 3.853769,8.970509 -0.444991,0.368132 c -2.666269,2.205762 -4.759928,5.846897 -5.309166,9.233315 -0.208492,1.285535 -0.206847,3.669873 0.003,4.893922 0.72276,4.208191 3.119303,7.724346 6.975347,10.234082 2.540295,1.653369 7.14312,3.526461 10.820462,4.403319 l 1.046407,0.249513 0.304576,0.818111 c 0.167518,0.449961 0.298778,0.873192 0.29169,0.940515 -0.0069,0.06732 -0.60806,1.056061 -1.335487,2.197196 l -1.322581,2.074792 1.002853,2.828448 c 0.551571,1.55565 1.041957,2.93803 1.089753,3.07196 l 0.08693,0.24351 17.268083,-0.0273 17.268073,-0.0273 z" /></g></svg>
