<?xml version="1.0" encoding="UTF-8" standalone="no"?>
<!-- Created with Inkscape (http://www.inkscape.org/) -->

<svg
   width="105.83334mm"
   height="105.83334mm"
   viewBox="0 0 105.83333 105.83333"
   version="1.1"
   id="svg1"
   xml:space="preserve"
   inkscape:version="1.4.3 (0d15f75042, 2025-12-25)"
   sodipodi:docname="villanova.svg"
   inkscape:export-filename="../pngs/florida.png"
   inkscape:export-xdpi="62.092464"
   inkscape:export-ydpi="62.092464"
   xmlns:inkscape="http://www.inkscape.org/namespaces/inkscape"
   xmlns:sodipodi="http://sodipodi.sourceforge.net/DTD/sodipodi-0.dtd"
   xmlns="http://www.w3.org/2000/svg"
   xmlns:svg="http://www.w3.org/2000/svg"><sodipodi:namedview
     id="namedview1"
     pagecolor="#ffffff"
     bordercolor="#000000"
     borderopacity="0.25"
     inkscape:showpageshadow="2"
     inkscape:pageopacity="0.0"
     inkscape:pagecheckerboard="0"
     inkscape:deskcolor="#d1d1d1"
     inkscape:document-units="mm"
     inkscape:zoom="1.2914656"
     inkscape:cx="246.23188"
     inkscape:cy="120.793"
     inkscape:window-width="1920"
     inkscape:window-height="1011"
     inkscape:window-x="0"
     inkscape:window-y="0"
     inkscape:window-maximized="1"
     inkscape:current-layer="layer1"
     showgrid="false"
     showguides="true" /><defs
     id="defs1" /><g
     inkscape:label="Capa 1"
     inkscape:groupmode="layer"
     id="layer1"><g
       id="g31"
       transform="matrix(0.98447318,0,0,0.98447318,-1.9288886,126.21671)"
       style="stroke:none"><path
         id="path19"
         style="fill:#13b5ea;fill-opacity:1;stroke:none"
         d="m 41.319807,-99.173347 c -0.74484,-1.848083 -1.41713,-3.514013 -1.49397,-3.702063 -0.12659,-0.30977 -0.11418,-0.37683 0.132,-0.71359 0.14945,-0.20442 1.10193,-1.21152 2.11662,-2.23799 1.0147,-1.02648 2.14384,-2.26282 2.50922,-2.74744 1.68507,-2.23502 3.53926,-3.31034 5.90619,-3.42525 2.34315,-0.11376 4.15209,0.74602 4.90278,2.33028 0.86333,1.82197 -7.8e-4,4.15046 -2.41664,6.51206 -1.12701,1.1017 -2.78959,2.32918 -5.77925,4.266793 -1.38876,0.900065 -2.97449,1.960676 -3.52385,2.356917 l -0.99884,0.720438 z m 32.70858,74.35811 1.03262,-3.082022 -1.08272,-1.583756 c -0.5955,-0.871066 -1.26786,-1.848051 -1.49413,-2.171079 l -0.41141,-0.587324 0.2794,-0.730072 c 0.15367,-0.40154 0.34326,-0.90527 0.42131,-1.119401 0.078,-0.21413 0.52427,-1.226878 0.99162,-2.250551 0.46735,-1.023673 1.36407,-3.022179 1.9927,-4.441124 0.62863,-1.418945 1.3265,-2.987487 1.55081,-3.485648 l 0.40784,-0.905748 1.64675,-1.027233 c 2.5666,-1.601033 4.13532,-2.489919 7.62992,-4.323332 5.46007,-2.864591 6.7834,-3.736376 8.95546,-5.899725 2.98792,-2.975928 4.543003,-6.277855 4.875003,-10.351141 0.3412,-4.186159 -1.005293,-7.984314 -3.826513,-10.793774 -0.88371,-0.880028 -2.72258,-2.26595 -3.23165,-2.435642 -0.0733,-0.02444 0.22279,-0.806016 0.74037,-1.954157 0.47441,-1.052385 1.59978,-3.567338 2.50081,-5.588784 0.90103,-2.021446 1.68184,-3.727885 1.73512,-3.792087 0.0533,-0.0642 0.84023,-0.312282 1.748773,-0.551289 l 1.65189,-0.434558 0.25827,-0.658698 c 0.14205,-0.362284 1.33556,-3.326424 2.65225,-6.586975 1.31668,-3.260563 2.65325,-6.570523 2.97016,-7.355463 l 0.5762,-1.42718 -15.431873,-0.0278 c -8.48753,-0.0153 -15.45304,-0.007 -15.47891,0.0192 -0.0259,0.0259 -0.90103,2.26149 -1.9448,4.96806 -1.04377,2.70656 -2.27986,5.884373 -2.74687,7.061796 -0.467,1.177423 -0.98926,2.520258 -1.16057,2.984078 l -0.31147,0.84331 0.29638,0.05794 c 0.163,0.03187 0.77804,0.11545 1.36675,0.185738 0.58872,0.07029 1.07039,0.166319 1.07039,0.213402 0,0.04708 -0.56192,1.411898 -1.24872,3.032923 -1.25178,2.954562 -1.84235,4.322143 -3.45168,7.993119 l -0.86446,1.971876 -0.5934,0.147177 c -1.94532,0.482484 -5.26278,1.655001 -8.20679,2.900589 -1.3925,0.589154 -8.57727,3.886724 -10.37112,4.759993 -0.30096,0.146512 -0.3138,0.140219 -0.46829,-0.22952 -0.44676,-1.069262 -0.65106,-2.679446 -0.48952,-3.8582 0.36524,-2.665079 1.90816,-5.150138 4.59057,-7.393657 1.41251,-1.1814 3.00063,-2.289681 5.73379,-4.001354 4.19549,-2.627478 5.78149,-3.74774 7.59092,-5.361815 2.66629,-2.378433 4.61678,-4.944998 6.18825,-8.142895 1.37925,-2.80672 2.08418,-5.06128 2.40417,-7.68924 0.21799,-1.79019 0.21908,-2.66018 0.005,-4.29893 -0.38859,-2.97998 -1.75558,-5.74575 -3.99204,-8.0769 -3.4848,-3.63235 -8.35834,-5.85441 -14.77658,-6.73732 -1.76978,-0.24345 -6.81248,-0.27719 -8.67286,-0.058 -3.4611,0.40773 -6.96418,1.19874 -10.5617,2.38486 -5.79038,1.90912 -9.23965,3.8809 -12.38294,7.07875 -0.60381,0.61428 -1.64126,1.52408 -2.30545,2.02177 -1.97248,1.47801 -2.71492,2.38059 -3.01834,3.66932 -0.22852,0.97062 -0.0748,1.8094 0.62107,3.38965 0.0481,0.10914 -1.70882,0.13723 -8.58103,0.13723 -6.8704305,0 -8.6297505,0.0281 -8.5843505,0.13723 0.4235,1.0178 5.08548,12.506528 5.66928,13.971079 l 0.78819,1.977282 1.6474105,0.425973 c 1.27324,0.329223 1.68024,0.478561 1.79195,0.65751 0.0795,0.127345 1.0004,2.232331 2.04645,4.677748 1.04604,2.445416 3.66345,8.546607 5.81645,13.558201 l 3.91455,9.111988 -0.45201,0.373939 c -2.70832,2.24055 -4.83499,5.939113 -5.39289,9.37894 -0.21179,1.30581 -0.21012,3.727753 0.003,4.971108 0.73416,4.274561 3.1685,7.846172 7.08536,10.395491 2.58036,1.679444 7.25579,3.582079 10.99113,4.472767 l 1.0629,0.253448 0.30938,0.831013 c 0.17017,0.457058 0.3035,0.886965 0.29629,0.955349 -0.007,0.06838 -0.61765,1.072716 -1.35654,2.23185 l -1.34345,2.107515 1.01867,2.873059 c 0.56027,1.580183 1.0584,2.984366 1.10695,3.120407 l 0.0883,0.247348 17.54042,-0.02778 17.54042,-0.02778 z" /><path
         style="fill:#00205b;fill-opacity:1;stroke:none"
         d="m 33.644748,-38.040339 c -4.00182,-0.38641 -7.16096,-1.77248 -9.61837,-4.22007 -2.58904,-2.57869 -3.88945,-5.73944 -3.89069,-9.45662 -9.7e-4,-2.93204 0.84644,-5.52988 2.59685,-7.961 0.71848,-0.99787 2.01119,-2.33053 2.9425,-3.03344 0.36462,-0.27519 0.70453,-0.5364 0.75534,-0.58047 0.0508,-0.0441 -0.97439,-2.56794 -2.27823,-5.60861 -1.30384,-3.04067 -4.1377,-9.6536 -6.29747,-14.69538 l -3.926841,-9.16688 -1.26017,-0.36589 c -2.352,-0.6829 -2.04746,-0.4822 -2.52659,-1.6651 -3.1798698,-7.850441 -4.7167498,-11.682601 -4.7167498,-11.761031 0,-0.0533 3.55502,-0.0955 8.0446298,-0.0955 h 8.044631 l 0.5765,0.65494 c 0.31708,0.36022 0.97122,0.916 1.45366,1.23506 l 0.87715,0.58012 -7.67925,0.0549 -7.6792508,0.0549 1.6410698,4.05999 c 0.90259,2.232991 1.70195,4.115531 1.77636,4.183421 0.0744,0.0679 0.4564,0.21032 0.84888,0.3165 1.257481,0.34022 1.811801,0.5959 2.265221,1.04483 0.39879,0.39484 0.92081,1.55263 5.23533,11.6114 4.95506,11.55211 9.36882,21.81216 10.94471,25.44163 0.49812,1.14723 1.46534,3.41423 2.14938,5.03777 l 1.24371,2.95189 -0.66315,-0.0693 c -0.64811,-0.0677 -2.14391,-0.52305 -2.28968,-0.69696 -0.0403,-0.0481 -0.4371,-0.96841 -0.8817,-2.04508 l -0.80836,-1.95758 -0.19807,0.25595 c -0.10894,0.14077 -0.30183,0.52766 -0.42863,0.85975 -0.28606,0.74916 -0.25684,1.91313 0.0648,2.5799 0.48802,1.01178 1.72227,1.86823 3.34697,2.3225 0.99629,0.27856 4.52888,0.28009 6.03807,0.003 3.17594,-0.58391 6.1165,-1.51831 12.40547,-3.94196 7.97954,-3.07518 10.77821,-3.93414 18.88268,-5.79545 1.35856,-0.31201 3.23585,-0.76369 4.17175,-1.00374 8.15104,-2.09064 13.04219,-4.59988 14.54651,-7.46259 0.68599,-1.30546 0.65636,-2.42384 -0.0921,-3.47442 -0.29226,-0.41025 -1.17644,-1.1215 -1.39417,-1.1215 -0.0838,0 -1.89585,4.06512 -1.83787,4.1231 0.0198,0.0199 0.22271,0.16273 0.45082,0.31753 0.4629,0.31414 0.63419,0.27871 1.19884,-0.24793 0.43728,-0.40786 0.37047,-0.18499 -0.14477,0.48285 -0.66029,0.85586 -1.92695,1.77586 -3.6153,2.62587 -0.90902,0.45765 -2.52501,1.16522 -2.52501,1.10559 0,-0.0713 1.72778,-3.95449 4.71746,-10.60267 1.64277,-3.65303 3.3843,-7.53111 3.87006,-8.61796 0.48577,-1.08685 1.46136,-3.26056 2.16798,-4.83045 0.70662,-1.5699 1.74615,-3.87992 2.31006,-5.13338 1.11983,-2.48912 1.37704,-2.85064 2.35852,-3.31496 0.31031,-0.14679 0.90667,-0.35038 1.32525,-0.45241 0.41858,-0.10203 0.81587,-0.2407 0.88285,-0.30816 0.10425,-0.10497 3.336382,-8.094051 3.336382,-8.246731 0,-0.0301 -4.927892,-0.0545 -10.950862,-0.0541 l -10.95085,6.1e-4 -0.51362,1.28934 c -0.2825,0.70913 -1.05394,2.62176 -1.71431,4.250291 l -1.20069,2.96095 0.58094,0.36338 c 1.09437,0.68453 1.55377,1.77005 1.19627,2.8267 -0.27033,0.79904 -4.26123,10.18004 -7.68284,18.0593 -0.82595,1.90199 -2.14489,4.94024 -2.93097,6.75166 -0.78608,1.81142 -1.92307,4.42974 -2.52665,5.8185 -0.60358,1.38875 -1.23527,2.84444 -1.40377,3.23487 l -0.30635,0.70986 -2.1235,0.62667 c -2.40956,0.71109 -5.5687,1.78467 -7.83221,2.66164 -0.84533,0.32751 -1.56935,0.56314 -1.60894,0.52362 -0.0396,-0.0395 -0.67559,-1.52922 -1.41334,-3.31045 -0.73774,-1.78123 -1.98174,-4.77007 -2.76443,-6.64187 -2.23402,-5.34265 -8.91995,-21.3886 -10.44637,-25.07088 -0.76009,-1.83361 -1.41371,-3.50291 -1.45247,-3.70956 -0.16079,-0.85707 0.4651,-1.94357 1.4532,-2.52263 0.3528,-0.20675 0.4728,-0.33795 0.42606,-0.4658 -0.0358,-0.0979 -0.34246,-0.87832 -0.68149,-1.73429 l -0.61641,-1.5563 0.45784,-0.52014 c 0.25182,-0.28607 0.60867,-0.783741 0.79301,-1.105931 0.18433,-0.32219 0.36858,-0.58524 0.40944,-0.58456 0.0409,6.8e-4 0.65869,1.468861 1.37297,3.262621 l 1.29868,3.26138 -0.63999,0.5755 c -0.35199,0.31653 -0.73024,0.57743 -0.84055,0.57979 -0.11031,0.002 -0.34314,0.14685 -0.5174,0.32111 -0.27014,0.27014 -0.30278,0.36317 -0.22148,0.63125 0.17491,0.57675 0.49205,1.35736 0.55144,1.35729 0.0323,-3e-5 0.52798,-0.42498 1.10159,-0.94431 1.77564,-1.60762 3.18288,-2.61431 8.86112,-6.33898 2.11037,-1.3843 3.55652,-2.505191 4.68779,-3.633431 3.54668,-3.53717 4.09005,-7.32131 1.39872,-9.74104 -1.94153,-1.7456 -5.44006,-2.14572 -8.22168,-0.94029 -1.58779,0.68808 -2.51649,1.46816 -4.07885,3.42616 -0.57942,0.72615 -1.47381,1.7147 -1.98753,2.19679 -2.40328,2.25529 -2.90523,2.88236 -4.28559,5.35381 -1.0776,1.929401 -2.37421,2.886311 -4.27608,3.155791 -1.03736,0.14698 -2.08075,-0.0262 -3.06654,-0.509 l -0.81372,-0.39851 -0.72325,0.3554 c -2.10446,1.03412 -3.54248,2.46372 -4.03425,4.0106 -0.096,0.30191 -0.20785,1.09234 -0.24861,1.75653 l -0.0741,1.20761 -0.34074,-0.71525 c -0.72466,-1.5211 -0.71136,-2.6518 0.0491,-4.17009 0.22681,-0.45286 0.42884,-0.86042 0.44897,-0.90571 0.0201,-0.0453 -0.17412,-0.0823 -0.43166,-0.0823 -0.46802,0 -2.1615,-0.3981 -2.32774,-0.5472 -0.0484,-0.0434 0.39621,-0.10892 0.98804,-0.14557 1.38438,-0.0857 2.13739,-0.29195 3.49129,-0.95622 2.26513,-1.111361 3.19091,-2.277351 3.53454,-4.451661 0.13744,-0.86966 0.14655,-1.18349 0.0451,-1.55172 -0.2485,-0.90165 -0.87842,-1.3477 -1.90542,-1.34922 l -0.41168,-6.2e-4 v -0.49402 c 0,-0.44581 0.0253,-0.49402 0.25882,-0.49402 0.14235,0 1.0209,-0.19615 1.95233,-0.4359 3.03013,-0.77992 4.2454,-1.00841 5.69736,-1.0712 l 1.37643,-0.0595 -0.0762,0.81075 c -0.15471,1.64587 -2.27319,5.92939 -3.32245,6.71792 -0.18823,0.14146 -0.75005,0.47309 -1.24848,0.73695 -0.49843,0.26386 -0.86722,0.51877 -0.81952,0.56647 0.18531,0.18531 1.23447,0.30335 1.77874,0.20013 1.19818,-0.22723 2.06888,-0.9599 2.85782,-2.4048 1.3006,-2.38197 2.21628,-3.53859 4.39771,-5.55491 0.45722,-0.42262 1.27947,-1.33652 1.82722,-2.0309 1.71211,-2.17044 3.42595,-3.61388 4.94863,-4.16789 1.16505,-0.42388 1.13335,-0.37656 0.47573,-0.71014 -0.98076,-0.49748 -1.96334,-0.64885 -3.24738,-0.50027 -2.45847,0.28447 -4.51915,1.24221 -6.59204,3.06379 -1.22939,1.08033 -1.48473,1.18316 -6.42231,2.58623 -3.97895,1.13067 -4.37739,1.23307 -5.31437,1.36576 -0.41087,0.0582 -0.76417,0.12293 -0.78511,0.14387 -0.0209,0.0209 0.0382,0.29815 0.13136,0.61604 0.25463,0.86861 1.16087,2.14178 2.02985,2.85168 0.41185,0.33647 0.73088,0.62971 0.70895,0.65164 -0.0991,0.0991 -1.52115,-0.35691 -2.34079,-0.75061 -1.00741,-0.48388 -2.10403,-1.42498 -2.55383,-2.19164 -0.15095,-0.25729 -0.50804,-0.72307 -0.79353,-1.03506 -0.6802,-0.74334 -0.99938,-1.47228 -0.99201,-2.26549 0.0114,-1.22762 0.65109,-2.08122 2.51771,-3.3597 0.58671,-0.40184 1.62742,-1.31087 2.57209,-2.24664 2.74067,-2.71484 5.24636,-4.24393 9.65116,-5.88963 8.54074,-3.19094 16.84536,-3.99753 23.79854,-2.31145 6.17518,1.49743 10.68329,4.63669 12.85417,8.95111 0.55042,1.09389 0.81763,1.89308 1.11512,3.33515 0.20588,0.998 0.22975,1.38862 0.18094,2.96108 -0.0667,2.14667 -0.27956,3.26884 -1.07269,5.65382 -0.92714,2.78794 -2.52457,5.689781 -4.30995,7.829291 -0.97521,1.16866 -3.10897,3.21842 -4.3547,4.18328 -1.24251,0.96237 -2.86667,2.05837 -5.54227,3.73999 -6.37351,4.00576 -8.94536,6.37268 -10.44037,9.60844 -0.6606,1.42979 -0.86198,2.34985 -0.86478,3.95106 l -0.002,1.42718 0.81362,1.92121 c 0.44749,1.05666 0.82353,1.93495 0.83564,1.95176 0.065,0.0901 1.97114,-0.70722 4.60206,-1.92503 1.63375,-0.75624 3.70339,-1.71353 4.59919,-2.12732 3.4067,-1.57362 7.92894,-3.25838 11.01334,-4.10304 l 1.11486,-0.3053 0.54651,-1.27409 c 0.30059,-0.70075 1.23915,-2.87966 2.0857,-4.84203 2.74752,-6.36899 3.75604,-8.78651 3.75604,-9.00365 0,-0.33082 -0.44952,-0.54933 -1.50301,-0.7306 -0.53191,-0.0915 -0.98325,-0.18212 -1.00297,-0.20132 -0.0599,-0.0583 0.38068,-1.20846 2.72554,-7.114571 l 2.25055,-5.66858 13.58565,-0.003 c 7.4721,-0.002 13.585642,0.0371 13.585642,0.0863 0,0.11123 -0.84803,2.26817 -3.22634,8.206031 l -1.84958,4.61778 -1.420402,0.40176 c -0.78122,0.22097 -1.54849,0.46488 -1.70505,0.54203 -0.20209,0.0996 -0.40414,0.41089 -0.69668,1.07341 -0.22662,0.51324 -1.57676,3.52678 -3.00033,6.69677 l -2.58829,5.7636 0.89045,0.41123 c 1.816,0.83867 3.50749,2.17997 4.58005,3.63184 2.56545,3.47272 3.01364,8.55575 1.13525,12.87522 -1.51401,3.48155 -4.3378,6.28582 -8.32739,8.26985 -3.22261,1.6026 -5.89808,2.43219 -12.75967,3.95642 -9.46884,2.10339 -11.91175,2.87552 -22.57513,7.13524 -7.65177,3.05667 -11.22092,4.20126 -14.72116,4.72092 -1.76429,0.26194 -4.57839,0.3631 -6.07653,0.21844 z"
         id="path16" /><path
         style="fill:#00205b;fill-opacity:1;stroke:none;stroke-width:3.785"
         d="m 38.822979,-35.28896 3.277928,0.460959 1.587749,2.970623 -2.151142,4.712023 11.267884,0.921918 16.082341,-0.460959 -1.024353,-3.073058 -1.178007,-2.663317 4.302283,-10.858143 0.973135,-1.94627 5.121765,-1.178007 -5.941245,14.238507 c 0,0 2.919404,4.302281 2.970622,4.507154 0.05122,0.204869 -1.638964,5.070546 -1.638964,5.070546 0,0 -24.686908,0.256089 -24.891777,0.256089 -0.204873,0 -8.604568,-0.204871 -8.604568,-0.204871 l -2.048706,-4.14863 0.819484,-3.27793 1.792618,-2.458445 z"
         id="path31" /><path
         id="path1"
         style="fill:#ffffff;stroke:none"
         d="m 70.148496,-26.594898 0.24419,-0.799714 -0.82906,-1.22109 c -1.01941,-1.501451 -2.00214,-3.152488 -2.00214,-3.363709 0,-0.08659 0.95811,-2.312232 2.12913,-4.945872 2.72093,-6.119407 3.92557,-8.914176 3.88571,-9.014845 -0.0174,-0.04397 -0.52064,0.103892 -1.11827,0.328587 -0.81548,0.306595 -1.12264,0.477305 -1.23102,0.684143 -0.0794,0.151585 -0.74574,1.653009 -1.48071,3.336498 -0.73498,1.683489 -1.63049,3.72782 -1.99004,4.542959 -1.89256,4.290677 -1.95137,4.443262 -1.95025,5.060508 10e-4,0.725343 0.25586,1.301628 1.29,2.920432 0.41669,0.652267 0.7936,1.247693 0.83758,1.323169 0.0638,0.109454 -2.49824,0.137229 -12.65834,0.137229 h -12.7383 l 0.78173,-1.28995 c 1.55819,-2.571196 1.61586,-2.899594 0.84342,-4.803007 l -0.49007,-1.207612 -0.95479,-0.03172 c -0.52513,-0.01745 -0.95478,0.01277 -0.95478,0.06716 0,0.05438 0.25078,0.704841 0.5573,1.445463 0.4055,0.979787 0.53792,1.425004 0.48616,1.634479 -0.0391,0.158341 -0.6187,1.199086 -1.28795,2.312767 l -1.21682,2.024873 0.11999,0.445244 c 0.066,0.244884 0.19792,0.630685 0.29316,0.857334 l 0.17318,0.41209 14.5084,-0.02785 14.5084,-0.02785 z m -31.14177,2.967928 c -0.649,-1.695961 -1.42291,-4.022837 -1.37741,-4.141401 0.0314,-0.08183 0.52905,-0.894952 1.10588,-1.806938 1.44753,-2.288586 1.53377,-2.469204 1.38423,-2.899099 -0.36863,-1.059768 -1.14782,-2.817005 -1.2491,-2.817005 -0.21369,0 -4.57407,-1.243225 -4.52666,-1.290636 0.0255,-0.02553 0.48834,0.0295 1.02848,0.122281 1.31258,0.225471 5.93423,0.451222 6.74884,0.329656 l 0.63296,-0.09446 -0.73396,-0.494024 c -0.40368,-0.271713 -0.75438,-0.555776 -0.77934,-0.631252 -0.0842,-0.25464 0.53907,-0.145459 1.08412,0.18991 0.29241,0.179927 0.83607,0.455261 1.20811,0.611853 l 0.67645,0.284713 1.05458,-0.177471 c 1.40596,-0.236605 2.68768,-0.53968 4.01623,-0.949675 l 1.09536,-0.338029 -0.8818,-0.350294 c -0.96805,-0.384559 -1.91271,-0.901851 -1.91271,-1.047391 0,-0.05112 0.17292,-0.125378 0.38428,-0.165029 0.30689,-0.05757 0.54781,0.0055 1.19634,0.313264 0.44663,0.211946 1.1753,0.480131 1.61926,0.595968 0.92322,0.240883 0.75497,0.279395 3.27731,-0.750178 2.39191,-0.97633 3.29129,-1.37413 3.29239,-1.45624 6.1e-4,-0.04528 -0.13937,-0.08234 -0.31106,-0.08234 -0.52506,0 -2.76176,-0.892715 -2.76176,-1.10228 0,-0.03767 0.17544,-0.122338 0.38987,-0.188148 0.33919,-0.104101 0.48667,-0.07974 1.13455,0.187426 0.72519,0.299045 1.86047,0.616898 2.44085,0.683385 0.18327,0.02099 1.10397,-0.343595 2.53895,-1.005402 l 2.2514,-1.038341 -0.78242,-0.233726 c -0.43033,-0.128549 -1.02943,-0.346183 -1.33133,-0.483631 l -0.54891,-0.249905 0.37511,-0.15879 c 0.34961,-0.147994 0.4429,-0.13658 1.37229,0.167908 1.42447,0.46669 2.02095,0.527346 2.54912,0.259215 0.23328,-0.118428 1.31339,-0.596006 2.40024,-1.061284 1.08685,-0.465279 2.01358,-0.881531 2.05941,-0.925005 0.0458,-0.04347 -0.15179,-0.08367 -0.43914,-0.08932 -0.28734,-0.0057 -0.76945,-0.121048 -1.07136,-0.256432 l -0.54891,-0.246153 0.38424,-0.09161 c 0.29745,-0.07092 0.59313,-0.02509 1.30904,0.202897 l 0.9248,0.294505 0.9964,-0.364583 c 3.01446,-1.102983 5.70424,-1.939948 8.29043,-2.579686 1.59649,-0.394919 2.92279,-0.697952 2.94733,-0.673407 0.0246,0.02454 -0.17012,0.152782 -0.43258,0.284972 -0.76445,0.385005 -3.25036,1.900518 -4.25637,2.594854 -0.82189,0.56726 -0.95275,0.70547 -1.176,1.242089 -0.82312,1.978455 -3.18114,7.414387 -4.36586,10.064614 -0.76056,1.701367 -1.38283,3.177606 -1.38283,3.280532 0,0.246949 0.24811,0.649806 1.66567,2.704498 0.65377,0.947629 1.18869,1.7584 1.18869,1.801713 0,0.04331 -0.30524,1.034114 -0.6783,2.20178 l -0.67829,2.123029 h -16.34079 -16.34079 z m 19.72444,-35.441792 3.9594,-2.018009 0.28752,-0.687967 c 0.15814,-0.378381 0.63657,-1.490465 1.06317,-2.471296 0.42661,-0.980831 0.77566,-1.805583 0.77566,-1.832781 0,-0.113338 -1.40836,0.549936 -5.92828,2.791952 -2.62656,1.302852 -5.13373,2.531523 -5.57149,2.73038 -0.43776,0.198858 -0.79593,0.378815 -0.79593,0.399905 0,0.02109 0.288,0.721197 0.64001,1.555793 0.352,0.834596 0.67094,1.602287 0.70876,1.70598 0.0638,0.174794 0.0991,0.175982 0.48528,0.01629 0.22907,-0.09473 2.19823,-1.080345 4.3759,-2.190249 z M 43.299306,-84.83419 c 1.90912,-2.639938 3.91524,-4.283302 10.59661,-8.680486 3.93728,-2.591221 6.169,-4.443081 7.77784,-6.453971 2.97294,-3.715863 3.85834,-8.348783 2.21804,-11.605993 -1.54075,-3.05953 -5.03069,-5.07893 -9.53163,-5.51534 -1.67658,-0.16256 -4.57013,0.0436 -5.66868,0.40395 -0.0936,0.0307 0.0915,0.22421 0.48234,0.5041 l 0.63434,0.45424 1.43887,0.0283 c 1.75191,0.0345 3.14389,0.35792 4.43824,1.03131 1.36862,0.71204 2.56736,1.84898 3.15793,2.99514 l 0.26869,0.52147 h 0.85335 c 0.7399,0 1.19237,-0.0773 2.28241,-0.38993 0.18356,-0.0526 0.25941,0.004 0.37431,0.28187 0.12128,0.29279 0.11959,0.36375 -0.0106,0.44794 -0.2887,0.18663 -1.79846,0.62103 -2.41799,0.69573 l -0.61649,0.0743 0.0544,1.23241 c 0.0325,0.73638 0.003,1.47072 -0.0726,1.82451 -0.10089,0.4704 -0.0982,0.61038 0.0132,0.68105 0.0771,0.0489 0.94391,0.0897 1.92624,0.0906 l 1.78607,0.002 -0.0722,0.30191 c -0.0397,0.16604 -0.0896,0.33352 -0.1109,0.37217 -0.0824,0.14949 -2.60176,0.45275 -3.31382,0.39891 l -0.73395,-0.0555 -0.42112,0.85233 c -0.23162,0.46879 -0.76109,1.30013 -1.17661,1.84742 l -0.75548,0.99508 0.40812,0.11297 c 0.38944,0.1078 1.99794,0.3673 3.13837,0.50631 l 0.53458,0.0652 -0.36991,0.38683 -0.3699,0.38682 -1.09783,-0.0674 c -0.60381,-0.0371 -1.55198,-0.1726 -2.10706,-0.3012 l -1.00923,-0.23382 -0.73401,0.672603 c -0.68511,0.62777 -2.42452,1.98766 -2.98369,2.33267 -0.13586,0.0838 -0.24702,0.18369 -0.24702,0.22192 0,0.10224 1.89006,0.70562 2.9367,0.93751 0.49814,0.11037 0.90537,0.22582 0.90496,0.25656 -0.002,0.13029 -0.74715,0.54991 -0.97685,0.54991 -0.44338,0 -2.3683,-0.42825 -3.23826,-0.72044 l -0.84462,-0.28368 -2.57467,1.710782 c -1.41607,0.940929 -2.57467,1.74941 -2.57467,1.796625 0,0.13749 2.7515,1.102796 3.56795,1.251739 0.17633,0.03217 0.12141,0.09816 -0.27891,0.335132 l -0.49847,0.295076 -1.15968,-0.262039 c -0.63782,-0.144121 -1.52087,-0.38765 -1.96233,-0.541175 -0.44146,-0.153526 -0.86378,-0.244198 -0.93847,-0.201495 -0.32144,0.183767 -2.35217,1.929015 -2.93942,2.526184 l -0.64138,0.652218 0.32368,0.755064 c 0.17802,0.415285 0.63955,1.53284 1.02562,2.483457 0.38607,0.950616 0.72665,1.727263 0.75684,1.725882 0.0302,-0.0014 0.27713,-0.309836 0.54877,-0.685455 z m -13.58238,-29.43639 c 0.75748,-0.33929 0.78777,-0.34134 1.16009,-0.0782 0.25459,0.1799 1.00787,0.42336 1.00335,0.32428 -9.1e-4,-0.0199 -0.0729,-0.23378 -0.15986,-0.47531 -0.24994,-0.69377 -0.21526,-0.78964 0.44402,-1.22738 0.5029,-0.33391 0.62968,-0.37809 0.71191,-0.24813 0.18273,0.2888 0.10431,0.9204 -0.17494,1.40891 -0.15164,0.26526 -0.26011,0.49789 -0.24106,0.51695 0.10385,0.10385 1.17548,-0.52815 1.4761,-0.87053 0.38118,-0.43415 0.69005,-1.30373 0.69005,-1.94274 0,-0.39401 0.0288,-0.42098 1.47158,-1.3798 0.80937,-0.53787 1.56276,-1.03652 1.67419,-1.10811 0.25551,-0.16416 -1.42701,0.33284 -2.37729,0.70222 -1.11141,0.43202 -2.48968,1.1854 -3.53568,1.93265 -0.92628,0.66172 -3.24472,2.68329 -3.26222,2.8445 -0.01,0.0885 0.18835,0.0179 1.11976,-0.39927 z m 3.9278,76.230234 c -4.00181,-0.386403 -7.16095,-1.772476 -9.61837,-4.220064 -2.58904,-2.578686 -3.88945,-5.739439 -3.89068,-9.456626 -9.7e-4,-2.932034 0.84644,-5.529878 2.59685,-7.960992 0.71848,-0.997874 2.01119,-2.330538 2.9425,-3.03344 0.36462,-0.275195 0.70452,-0.536406 0.75534,-0.580469 0.0508,-0.04406 -0.97439,-2.56794 -2.27823,-5.608614 -1.30385,-3.040675 -4.13771,-9.653596 -6.29747,-14.69538 l -3.92685,-9.16688 -1.26016,-0.36589 c -2.352,-0.682902 -2.04746,-0.482201 -2.5266,-1.665096 -3.1798598,-7.850443 -4.7167398,-11.682603 -4.7167398,-11.761043 0,-0.0533 3.55501,-0.0955 8.0446198,-0.0955 h 8.04463 l 0.57651,0.65495 c 0.31707,0.36022 0.97122,0.91599 1.45366,1.23506 l 0.87715,0.58011 -7.67925,0.0549 -7.6792498,0.0549 1.6410698,4.05999 c 0.90259,2.233003 1.70195,4.115543 1.77636,4.183433 0.0744,0.0679 0.4564,0.21031 0.84887,0.3165 1.25749,0.34022 1.81181,0.595897 2.26523,1.04483 0.39878,0.39484 0.9208,1.552624 5.23532,11.611394 4.95506,11.552107 9.36882,21.81216 10.94471,25.441631 0.49812,1.147233 1.46534,3.414229 2.14939,5.037769 l 1.24371,2.951893 -0.66315,-0.06931 c -0.64811,-0.06774 -2.14391,-0.523047 -2.28968,-0.696957 -0.0403,-0.04812 -0.43711,-0.96841 -0.8817,-2.045082 l -0.80836,-1.957585 -0.19808,0.255948 c -0.10894,0.140772 -0.30182,0.527662 -0.42863,0.859756 -0.28605,0.749159 -0.25683,1.913131 0.0648,2.5799 0.48802,1.011774 1.72226,1.86823 3.34697,2.322495 0.99628,0.278559 4.52888,0.280098 6.03806,0.0026 3.17595,-0.583909 6.11651,-1.518302 12.40548,-3.94196 7.97954,-3.075173 10.77821,-3.934137 18.88268,-5.795442 1.35856,-0.312014 3.23585,-0.763699 4.17175,-1.003745 8.15104,-2.090636 13.04219,-4.599875 14.5465,-7.462592 0.686,-1.305454 0.65636,-2.423841 -0.0921,-3.474417 -0.29226,-0.410247 -1.17644,-1.121497 -1.39418,-1.121497 -0.0838,0 -1.89584,4.065118 -1.83787,4.123094 0.0198,0.01985 0.22272,0.162737 0.45082,0.317531 0.46291,0.314137 0.63419,0.278714 1.19885,-0.247933 0.43728,-0.407853 0.37046,-0.184981 -0.14477,0.482854 -0.66029,0.85586 -1.92696,1.775865 -3.6153,2.625868 -0.90902,0.45765 -2.52501,1.16522 -2.52501,1.105592 0,-0.07125 1.72778,-3.954492 4.71746,-10.602666 1.64277,-3.653029 3.38429,-7.531113 3.87006,-8.617965 0.48577,-1.086852 1.46135,-3.260555 2.16797,-4.830452 0.70662,-1.569897 1.74615,-3.879917 2.31007,-5.133378 1.11982,-2.489117 1.37704,-2.850637 2.35852,-3.314953 0.31031,-0.146801 0.90667,-0.350381 1.32525,-0.452411 0.41858,-0.10203 0.81587,-0.2407 0.88285,-0.30816 0.10424,-0.10498 3.336374,-8.094053 3.336374,-8.246743 0,-0.0301 -4.927884,-0.0545 -10.950854,-0.0541 l -10.95086,6.1e-4 -0.51362,1.28934 c -0.28249,0.70914 -1.05393,2.62177 -1.71431,4.250293 l -1.20069,2.96096 0.58094,0.36338 c 1.09438,0.68453 1.55377,1.770046 1.19628,2.826697 -0.27034,0.799044 -4.26123,10.180038 -7.68284,18.059302 -0.82595,1.901991 -2.14489,4.940235 -2.93097,6.751655 -0.78608,1.811419 -1.92308,4.429744 -2.52666,5.818498 -0.60357,1.388755 -1.23527,2.844446 -1.40376,3.234869 l -0.30635,0.70986 -2.1235,0.626673 c -2.40956,0.711093 -5.56871,1.784672 -7.83222,2.661641 -0.84533,0.327512 -1.56935,0.563142 -1.60893,0.523622 -0.0396,-0.03952 -0.67559,-1.529224 -1.41334,-3.310453 -0.73775,-1.781229 -1.98174,-4.770071 -2.76444,-6.641871 -2.23402,-5.342643 -8.91994,-21.3886 -10.44637,-25.070876 -0.76009,-1.833613 -1.4137,-3.502915 -1.45247,-3.70956 -0.16078,-0.857068 0.46511,-1.943566 1.45321,-2.522627 0.3528,-0.20676 0.4728,-0.33795 0.42606,-0.46581 -0.0358,-0.0979 -0.34246,-0.87832 -0.68149,-1.73428 l -0.61642,-1.5563 0.45785,-0.52014 c 0.25181,-0.28608 0.60866,-0.783753 0.793,-1.105943 0.18434,-0.32219 0.36859,-0.58524 0.40944,-0.58456 0.0409,6.8e-4 0.65869,1.468863 1.37297,3.262623 l 1.29869,3.261388 -0.63999,0.575504 c -0.35199,0.316527 -0.73025,0.577429 -0.84056,0.579783 -0.11031,0.0024 -0.34314,0.146854 -0.51739,0.321111 -0.27014,0.270137 -0.30278,0.363169 -0.22148,0.631252 0.17491,0.57675 0.49205,1.357361 0.55143,1.357291 0.0323,-3.7e-5 0.52798,-0.424979 1.1016,-0.944315 1.77564,-1.607616 3.18288,-2.61431 8.86112,-6.338974 2.11037,-1.38431 3.55652,-2.505193 4.68779,-3.633443 3.54668,-3.53717 4.09004,-7.3213 1.39872,-9.74103 -1.94153,-1.74561 -5.44006,-2.14572 -8.22169,-0.94029 -1.58779,0.68808 -2.51648,1.46816 -4.07884,3.42615 -0.57942,0.72615 -1.47381,1.71471 -1.98753,2.19679 -2.40329,2.25529 -2.90524,2.88236 -4.28559,5.35382 -1.0776,1.929403 -2.37422,2.886313 -4.27608,3.155783 -1.03737,0.14699 -2.08075,-0.0262 -3.06655,-0.50899 l -0.81371,-0.39852 -0.72325,0.3554 c -2.10446,1.03413 -3.54248,2.46372 -4.03425,4.01061 -0.096,0.301902 -0.20786,1.092339 -0.24862,1.756527 l -0.0741,1.207613 -0.34075,-0.715255 c -0.72465,-1.521097 -0.71135,-2.651795 0.0491,-4.170085 0.2268,-0.45286 0.42884,-0.86043 0.44897,-0.90571 0.0201,-0.0453 -0.17412,-0.0823 -0.43166,-0.0823 -0.46803,0 -2.1615,-0.3981 -2.32775,-0.54721 -0.0484,-0.0434 0.39621,-0.10892 0.98805,-0.14556 1.38438,-0.0857 2.13739,-0.29195 3.49129,-0.95623 2.26513,-1.111363 3.19091,-2.277353 3.53453,-4.451663 0.13744,-0.86965 0.14656,-1.18349 0.0451,-1.55172 -0.24849,-0.90164 -0.87842,-1.34769 -1.90541,-1.34922 l -0.41169,-6.1e-4 v -0.49402 c 0,-0.44581 0.0253,-0.49403 0.25883,-0.49403 0.14235,0 1.0209,-0.19615 1.95233,-0.43589 3.03013,-0.77993 4.24539,-1.00842 5.69736,-1.07121 l 1.37643,-0.0595 -0.0762,0.81076 c -0.15471,1.64586 -2.27319,5.92939 -3.32245,6.71792 -0.18824,0.14146 -0.75005,0.47309 -1.24848,0.73695 -0.49844,0.26386 -0.86722,0.51877 -0.81952,0.56647 0.18531,0.1853 1.23447,0.30335 1.77874,0.20013 1.19818,-0.22723 2.06888,-0.95991 2.85782,-2.4048 1.3006,-2.38197 2.21628,-3.5386 4.39771,-5.55492 0.45722,-0.42261 1.27947,-1.33652 1.82722,-2.03089 1.71211,-2.17044 3.42595,-3.61389 4.94863,-4.16789 1.16505,-0.42389 1.13335,-0.37657 0.47573,-0.71014 -0.98076,-0.49749 -1.96334,-0.64886 -3.24739,-0.50028 -2.45846,0.28447 -4.51914,1.24222 -6.59204,3.06379 -1.22938,1.08033 -1.48472,1.18316 -6.4223,2.58624 -3.97895,1.13067 -4.3774,1.23307 -5.31437,1.36576 -0.41087,0.0582 -0.76417,0.12292 -0.78511,0.14386 -0.0209,0.0209 0.0382,0.29816 0.13136,0.61604 0.25462,0.86862 1.16087,2.14178 2.02984,2.85169 0.41186,0.33647 0.73089,0.6297 0.70896,0.65163 -0.0991,0.0991 -1.52115,-0.3569 -2.3408,-0.7506 -1.0074,-0.48389 -2.10402,-1.42499 -2.55382,-2.19165 -0.15095,-0.25728 -0.50804,-0.72306 -0.79353,-1.03505 -0.6802,-0.74334 -0.99938,-1.47228 -0.99201,-2.2655 0.0114,-1.22762 0.65108,-2.08121 2.51771,-3.35969 0.58671,-0.40185 1.62742,-1.31087 2.57209,-2.24664 2.74067,-2.71484 5.24635,-4.24394 9.65116,-5.88964 8.54073,-3.19094 16.84536,-3.99753 23.79854,-2.31144 6.17518,1.49742 10.68329,4.63668 12.85417,8.9511 0.55041,1.09389 0.81763,1.89309 1.11512,3.33516 0.20588,0.99799 0.22975,1.38862 0.18093,2.96108 -0.0666,2.14667 -0.27955,3.26884 -1.07268,5.65382 -0.92714,2.78794 -2.52458,5.689783 -4.30995,7.829293 -0.97521,1.168653 -3.10898,3.21842 -4.3547,4.183274 -1.24252,0.962369 -2.86667,2.058369 -5.54227,3.73999 -6.37351,4.005768 -8.94536,6.37268 -10.44037,9.608447 -0.6606,1.429782 -0.86198,2.349843 -0.86478,3.95106 l -0.002,1.427179 0.81362,1.921202 c 0.44749,1.056661 0.82352,1.934955 0.83563,1.951764 0.0649,0.09014 1.97115,-0.707216 4.60206,-1.925027 1.63376,-0.75624 3.70339,-1.713536 4.5992,-2.127324 3.4067,-1.573616 7.92893,-3.258383 11.01334,-4.103041 l 1.11486,-0.305302 0.54651,-1.274084 c 0.30058,-0.700746 1.23914,-2.879659 2.08569,-4.84203 2.74753,-6.368991 3.75604,-8.786508 3.75604,-9.003648 0,-0.330821 -0.44952,-0.549329 -1.503,-0.730599 -0.53191,-0.09152 -0.98325,-0.182118 -1.00297,-0.20132 -0.0599,-0.05834 0.38068,-1.20846 2.72554,-7.114584 l 2.25055,-5.66857 13.58565,-0.003 c 7.4721,-0.002 13.585644,0.0371 13.585644,0.0863 0,0.11123 -0.84804,2.26817 -3.22635,8.206033 l -1.84957,4.617781 -1.420404,0.401762 c -0.78122,0.22097 -1.54849,0.46488 -1.70505,0.542024 -0.2021,0.09958 -0.40415,0.410889 -0.69668,1.073416 -0.22662,0.513236 -1.57677,3.526779 -3.00033,6.696763 l -2.58829,5.763607 0.89044,0.411226 c 1.816,0.838666 3.5075,2.179969 4.58006,3.631834 2.56545,3.472723 3.01363,8.55575 1.13524,12.875222 -1.514,3.481551 -4.33779,6.285828 -8.32738,8.269853 -3.22261,1.602603 -5.89808,2.432192 -12.75967,3.956417 -9.46884,2.103397 -11.91175,2.875518 -22.57514,7.135247 -7.65176,3.056668 -11.22092,4.201259 -14.72115,4.720918 -1.7643,0.261934 -4.5784,0.363096 -6.07654,0.21844 z m 3.43669,-11.592555 c -0.0401,-0.112617 -1.22104,-2.872486 -2.62421,-6.133041 -1.40318,-3.260555 -5.21914,-12.152978 -8.47992,-19.760939 -7.53405,-17.578247 -8.2133,-19.133645 -8.54676,-19.570826 -0.677,-0.8876 -1.75798,-1.6392 -2.79331,-1.94219 -0.3876,-0.11344 -0.74129,-0.23693 -0.78598,-0.27443 -0.077,-0.0646 -1.90846,-4.454693 -2.02853,-4.862383 -0.0535,-0.18166 0.35637,-0.19212 7.53124,-0.19212 4.17331,0 7.58783,0.0397 7.58783,0.0883 0,0.25879 -1.60537,1.48844 -2.59722,1.98937 -1.12906,0.570223 -2.20664,0.802393 -3.79636,0.817953 -1.34903,0.0132 -1.38978,0.0204 -1.15272,0.20385 0.32257,0.24962 2.47693,1.34636 2.81269,1.43189 0.21167,0.0539 0.24769,0.11492 0.18901,0.32011 -0.51127,1.78765 -0.50445,2.662396 0.0307,3.936058 0.33639,0.800635 1.09193,1.931585 1.63155,2.442238 l 0.32367,0.306302 0.0709,-1.019892 c 0.19749,-2.839533 1.27534,-4.689526 3.32355,-5.704456 l 0.9172,-0.45448 0.7428,0.34024 c 1.61014,0.73752 3.7851,0.73439 5.53882,-0.008 l 0.40468,-0.17131 0.33019,0.7874 0.33019,0.7874 -0.48156,0.49403 c -0.67443,0.69189 -0.95361,1.386195 -1.01533,2.525006 -0.0401,0.740737 -0.006,1.057662 0.16398,1.536962 0.23868,0.671722 1.89554,4.684001 5.59885,13.5582 1.36066,3.260555 2.70734,6.496409 2.99261,7.190786 0.28527,0.694378 1.47028,3.535013 2.63334,6.312523 4.09795,9.78625 4.7209,11.290027 4.68983,11.321096 -0.0865,0.08653 -1.75103,0.751923 -3.21086,1.283561 -4.0613,1.47903 -7.12184,2.298457 -9.51827,2.548418 -0.66215,0.06907 -0.74727,0.0557 -0.81262,-0.127612 z m 29.16268,-8.855758 c 0,-0.03326 0.71445,-1.692083 1.58766,-3.686265 0.87322,-1.994182 2.20224,-5.048437 2.9534,-6.787235 0.75115,-1.738797 2.01799,-4.668221 2.81518,-6.509831 4.88191,-11.277724 6.99332,-16.307374 7.1475,-17.026297 0.22563,-1.052104 -0.19866,-2.45591 -1.00751,-3.33341 -0.25127,-0.2726 -0.43234,-0.55955 -0.40236,-0.63768 0.03,-0.0781 0.58496,-1.43745 1.23329,-3.02074 l 1.17879,-2.878713 h 8.98893 c 4.94391,0 8.98893,0.0153 8.98893,0.034 0,0.0187 -0.45735,1.15729 -1.01634,2.530243 l -1.01635,2.49627 -0.89841,0.30144 c -1.0408,0.34921 -1.94161,0.93118 -2.50438,1.61797 -0.4285,0.522923 -0.72882,1.135315 -2.52616,5.151141 -0.64858,1.449136 -1.51441,3.375828 -1.92407,4.281537 -0.40966,0.90571 -1.18723,2.634792 -1.72793,3.842405 -4.86981,10.87619 -6.24927,13.961352 -7.58233,16.957828 l -1.53682,3.454519 -0.74914,0.253973 c -1.38639,0.47002 -5.11779,1.450872 -8.26926,2.173693 -3.8584,0.884962 -3.73262,0.858505 -3.73262,0.785189 z m -24.9243,-40.684688 c -0.74484,-1.848083 -1.41713,-3.514013 -1.49397,-3.702053 -0.12659,-0.30978 -0.11419,-0.37683 0.132,-0.71359 0.14945,-0.20443 1.10193,-1.21153 2.11662,-2.238 1.01469,-1.02647 2.14384,-2.26282 2.50922,-2.74744 1.68507,-2.23501 3.53926,-3.31034 5.90619,-3.42525 2.34315,-0.11376 4.15209,0.74603 4.90278,2.33028 0.86332,1.82198 -7.9e-4,4.15047 -2.41665,6.51207 -1.127,1.10169 -2.78959,2.32917 -5.77924,4.266793 -1.38876,0.90006 -2.97449,1.96067 -3.52385,2.35691 l -0.99884,0.72044 z m 32.70858,74.358113 1.03262,-3.082021 -1.08272,-1.583756 c -0.5955,-0.871066 -1.26786,-1.848052 -1.49414,-2.17108 l -0.41141,-0.587324 0.27941,-0.730072 c 0.15367,-0.40154 0.34326,-0.90527 0.4213,-1.1194 0.078,-0.214131 0.52428,-1.226879 0.99163,-2.250552 0.46735,-1.023673 1.36407,-3.022179 1.9927,-4.441124 0.62863,-1.418945 1.3265,-2.987487 1.55081,-3.485648 l 0.40784,-0.905748 1.64674,-1.027232 c 2.56661,-1.601034 4.13533,-2.48992 7.62992,-4.323333 5.46008,-2.86459 6.7834,-3.736376 8.95547,-5.899724 2.98792,-2.975929 4.543004,-6.277855 4.875004,-10.351142 0.3412,-4.186158 -1.005294,-7.984314 -3.826514,-10.793773 -0.88372,-0.880029 -2.72258,-2.26595 -3.23166,-2.435642 -0.0733,-0.02444 0.2228,-0.806016 0.74038,-1.954157 0.47441,-1.052385 1.59977,-3.567337 2.50081,-5.588783 0.90103,-2.021447 1.68184,-3.727886 1.73512,-3.792088 0.0533,-0.0642 0.84023,-0.312282 1.748774,-0.551289 l 1.65189,-0.434557 0.25827,-0.658698 c 0.14205,-0.362284 1.33556,-3.32643 2.65224,-6.58698 1.31669,-3.260563 2.65326,-6.570513 2.97017,-7.355463 l 0.5762,-1.42718 -15.431884,-0.0278 c -8.48753,-0.0153 -15.45304,-0.007 -15.47891,0.0192 -0.0259,0.0259 -0.90102,2.2615 -1.94479,4.96806 -1.04377,2.70657 -2.27986,5.884373 -2.74687,7.061803 -0.46701,1.17742 -0.98926,2.520255 -1.16057,2.984076 l -0.31147,0.843309 0.29637,0.05794 c 0.16301,0.03187 0.77805,0.11545 1.36676,0.185738 0.58871,0.07029 1.07039,0.16632 1.07039,0.213402 0,0.04708 -0.56193,1.411898 -1.24872,3.032923 -1.25179,2.954563 -1.84235,4.322143 -3.45169,7.993119 l -0.86446,1.971876 -0.59339,0.147176 c -1.94532,0.482484 -5.26279,1.655001 -8.2068,2.900589 -1.39249,0.589154 -8.57727,3.886724 -10.37111,4.759993 -0.30096,0.146513 -0.3138,0.140219 -0.46829,-0.22952 -0.44677,-1.069262 -0.65106,-2.679446 -0.48952,-3.858199 0.36524,-2.66508 1.90816,-5.150138 4.59057,-7.393657 1.4125,-1.1814 3.00063,-2.289681 5.73379,-4.001354 4.19549,-2.627478 5.78148,-3.74774 7.59091,-5.361815 2.6663,-2.378433 4.61678,-4.944996 6.18826,-8.142899 1.37925,-2.80672 2.08417,-5.06128 2.40417,-7.68924 0.21799,-1.79018 0.21907,-2.66018 0.005,-4.29893 -0.3886,-2.97998 -1.75559,-5.74575 -3.99204,-8.07689 -3.48481,-3.63236 -8.35834,-5.85442 -14.77658,-6.73731 -1.76978,-0.24346 -6.81248,-0.2772 -8.67286,-0.058 -3.4611,0.40773 -6.96418,1.19873 -10.56171,2.38485 -5.79038,1.90911 -9.23965,3.8809 -12.38294,7.07874 -0.6038,0.61429 -1.64125,1.52408 -2.30544,2.02177 -1.97248,1.47802 -2.71493,2.3806 -3.01834,3.66932 -0.22853,0.97063 -0.0748,1.80941 0.62106,3.38966 0.0481,0.10913 -1.70881,0.13723 -8.58102,0.13723 -6.8704298,0 -8.6297498,0.0281 -8.5843598,0.13723 0.42351,1.0178 5.08548,12.506523 5.66928,13.971077 l 0.78819,1.977283 1.6474198,0.425972 c 1.27324,0.329223 1.68024,0.478561 1.79195,0.65751 0.0795,0.127345 1.0004,2.232332 2.04644,4.677748 1.04605,2.445416 3.66346,8.546606 5.81646,13.5582 l 3.91455,9.111989 -0.45201,0.373938 c -2.70832,2.240551 -4.835,5.939113 -5.3929,9.37894 -0.21178,1.30581 -0.21011,3.727753 0.003,4.971108 0.73416,4.274561 3.1685,7.846172 7.08536,10.395491 2.58036,1.679445 7.25578,3.582079 10.99112,4.472767 l 1.06291,0.253448 0.30938,0.831014 c 0.17016,0.457057 0.30349,0.886964 0.29629,0.955348 -0.007,0.06838 -0.61765,1.072717 -1.35655,2.23185 l -1.34344,2.107515 1.01867,2.87306 c 0.56027,1.580182 1.05839,2.984365 1.10694,3.120407 l 0.0883,0.247347 17.54043,-0.02778 17.54042,-0.02778 z" /></g></g></svg>
