<?xml version="1.0" encoding="UTF-8" standalone="no"?>
<!-- Created with Inkscape (http://www.inkscape.org/) -->

<svg
   width="105.83334mm"
   height="105.83334mm"
   viewBox="0 0 105.83333 105.83333"
   version="1.1"
   id="svg1"
   xml:space="preserve"
   inkscape:version="1.4 (e7c3feb100, 2024-10-09)"
   sodipodi:docname="waco.svg"
   inkscape:export-filename="../pngs/georgia.png"
   inkscape:export-xdpi="96"
   inkscape:export-ydpi="96"
   xmlns:inkscape="http://www.inkscape.org/namespaces/inkscape"
   xmlns:sodipodi="http://sodipodi.sourceforge.net/DTD/sodipodi-0.dtd"
   xmlns="http://www.w3.org/2000/svg"
   xmlns:svg="http://www.w3.org/2000/svg"><sodipodi:namedview
     id="namedview1"
     pagecolor="#ffffff"
     bordercolor="#000000"
     borderopacity="0.25"
     inkscape:showpageshadow="2"
     inkscape:pageopacity="0.0"
     inkscape:pagecheckerboard="0"
     inkscape:deskcolor="#d1d1d1"
     inkscape:document-units="mm"
     inkscape:zoom="0.5"
     inkscape:cx="390"
     inkscape:cy="-224"
     inkscape:window-width="1920"
     inkscape:window-height="1011"
     inkscape:window-x="0"
     inkscape:window-y="32"
     inkscape:window-maximized="1"
     inkscape:current-layer="layer1"
     showgrid="false"
     showguides="true" /><defs
     id="defs1" /><g
     inkscape:label="Capa 1"
     inkscape:groupmode="layer"
     id="layer1"><ellipse
       style="fill:#154734;fill-opacity:1;stroke:#ffffff;stroke-width:2.06921;stroke-dasharray:none;stroke-opacity:1"
       id="path15"
       cx="52.916672"
       cy="52.916672"
       rx="51.15678"
       ry="43.488869" /><path
       style="fill:#ffb81c;fill-opacity:1;stroke-width:0.26083"
       d="M 59.852903,65.935158 C 59.017868,65.63506 57.930941,65.282144 57.437512,65.150901 54.660146,64.412176 50.184951,63.577747 46.671772,63.14356 41.822838,62.54429 37.228178,61.3093 34.206896,59.793149 32.549571,58.961465 29.973292,56.391606 28.375302,53.976084 28.095388,53.552969 27.779007,53.082562 27.672231,52.930738 26.366304,51.073854 25.112147,48.311044 24.338848,45.587554 l -0.164712,-0.580093 -0.472028,-0.307158 c -1.144664,-0.744851 -2.448587,-1.177526 -3.759942,-1.247637 l -0.850424,-0.04547 1.183824,-1.690776 c 0.651106,-0.929925 1.226175,-1.737353 1.277935,-1.794287 0.0937,-0.103068 -5.692681,2.757696 -6.151622,3.041337 -0.132527,0.08191 -0.255821,0.134056 -0.273987,0.11589 -0.04082,-0.04082 0.488856,-0.944221 0.960973,-1.638983 1.002267,-1.474915 2.778706,-3.679637 3.806892,-4.724685 0.508933,-0.517282 1.230309,-1.295141 1.172877,-1.264715 -0.03796,0.02011 -0.484154,0.275011 -0.991552,0.566446 -0.507396,0.291433 -0.939348,0.513073 -0.959894,0.492527 -0.02055,-0.02055 0.130631,-0.21684 0.335946,-0.436211 0.205314,-0.219371 0.74596,-0.81672 1.201433,-1.327443 0.455473,-0.510723 0.998064,-1.115606 1.205757,-1.344185 0.78293,-0.861666 0.827837,-0.815118 -0.388164,-0.402347 -0.594754,0.201889 -1.095366,0.353079 -1.112469,0.335976 -0.01711,-0.01711 0.987866,-1.220655 2.23326,-2.674564 1.245396,-1.453908 2.607425,-3.047183 3.026731,-3.540612 0.419307,-0.49343 0.816433,-0.956932 0.882504,-1.030006 0.06607,-0.07308 0.138277,-0.243875 0.160457,-0.379562 0.514917,-3.149863 1.646132,-5.351739 3.619018,-7.044299 1.359637,-1.166448 2.946077,-1.876659 4.968766,-2.224396 1.125166,-0.193437 3.18577,-0.20477 4.520231,-0.02486 0.956042,0.12889 3.325908,0.567774 4.338109,0.803387 0.336327,0.07829 0.626625,0.127225 0.645104,0.108745 0.029,-0.029 -0.649001,-1.374757 -1.404631,-2.788022 -0.127348,-0.23818 -0.231541,-0.4478 -0.231541,-0.465827 0,-0.07694 0.15693,-0.0092 0.936116,0.404198 0.453017,0.240333 1.165272,0.61682 1.58279,0.836636 0.417517,0.219817 1.007563,0.531433 1.311214,0.692477 2.195931,1.164653 2.059171,1.101472 1.921599,0.887734 -0.0697,-0.108289 -0.299266,-0.460858 -0.510151,-0.783483 -0.210884,-0.322628 -0.455237,-0.704686 -0.543001,-0.849019 -0.159988,-0.263098 -0.154923,-0.404974 0.0098,-0.273813 0.107858,0.0859 8.022614,4.09031 8.084529,4.09031 0.02434,0 -0.07579,-0.178566 -0.222534,-0.396813 -0.713556,-1.061268 -1.056235,-1.616754 -1.019834,-1.653158 0.02202,-0.02202 0.07961,-0.0072 0.127967,0.03277 0.04836,0.04004 0.476118,0.250013 0.950569,0.466608 0.474452,0.216598 1.499267,0.697313 2.277368,1.068254 0.778102,0.370941 1.883265,0.890636 2.455919,1.154877 l 1.04119,0.480441 -0.61549,-0.858414 c -0.548968,-0.765631 -0.709201,-1.072977 -0.450643,-0.864392 0.04836,0.03902 0.382955,0.233576 0.743536,0.432354 0.360584,0.198781 0.779827,0.430262 0.931651,0.514408 0.323183,0.179114 4.96929,2.74405 5.400121,2.981196 0.161315,0.08879 0.44081,0.243615 0.621101,0.344045 0.180292,0.100433 0.948903,0.523198 1.708026,0.939484 0.759124,0.416285 1.47339,0.811626 1.587258,0.87854 0.113867,0.06691 0.34678,0.19806 0.517582,0.29144 3.070188,1.678503 4.106176,2.290963 5.555398,3.284259 1.650206,1.13105 3.217598,2.387302 4.774158,3.826444 0.277106,0.256206 0.5328,0.465827 0.56821,0.465827 0.100978,0 1.600559,0.85347 2.014288,1.146408 1.038206,0.735099 2.026411,1.665371 2.557617,2.407665 0.370165,0.51726 0.715825,1.238323 0.922247,1.92384 0.167249,0.555431 0.181649,0.690739 0.154186,1.449234 -0.0244,0.674492 -0.06829,0.954339 -0.226584,1.444177 l -0.196299,0.607571 -0.418625,0.237141 c -0.230239,0.130425 -0.458493,0.263219 -0.507231,0.295092 -0.05205,0.03407 -0.187931,0.638704 -0.329619,1.467163 -0.23884,1.396467 -0.496895,2.9017 -0.960714,5.60385 -0.13214,0.769828 -0.259308,1.494939 -0.282587,1.611352 -0.04602,0.230328 -0.03535,0.220406 -3.271727,3.027436 -1.006517,0.872991 -2.576503,2.239412 -3.488851,3.036491 -0.91235,0.797078 -2.338422,2.039279 -3.169055,2.760446 -0.83063,0.721166 -1.543704,1.343118 -1.58461,1.382114 -0.04091,0.039 -0.773109,0.67472 -1.627123,1.412716 -0.854013,0.737997 -2.164517,1.879049 -2.912234,2.535669 l -1.359479,1.193854 -0.745359,-0.178232 c -1.889752,-0.451884 -2.123325,-0.505434 -2.138479,-0.490279 -0.0089,0.0089 0.09888,0.07691 0.23948,0.151154 0.320107,0.169036 1.350741,0.739236 1.389429,0.768701 0.139173,0.105995 -0.389374,0.02619 -2.622959,-0.396025 -2.819874,-0.533044 -4.006382,-0.752599 -4.075912,-0.754217 -0.02478,-5.74e-4 0.17341,0.208574 0.440416,0.464778 0.957925,0.919175 0.957873,0.919116 0.795073,0.909079 -0.04745,-0.003 -0.769473,-0.250853 -1.604508,-0.550952 z M 58.705417,64.85703 c -0.0521,-0.06388 -0.505968,-0.581695 -1.008609,-1.15069 -0.50264,-0.568995 -0.901696,-1.046735 -0.886787,-1.061643 0.02875,-0.02875 0.175956,0.02 4.309306,1.427347 1.455655,0.495626 2.661921,0.901139 2.680589,0.901139 0.01868,0 -0.388782,-0.408292 -0.905447,-0.907315 -0.516665,-0.499024 -0.927238,-0.919467 -0.912389,-0.934317 0.01485,-0.01485 0.411401,0.06554 0.881223,0.178652 0.469821,0.113109 1.257939,0.299613 1.751368,0.414454 0.493429,0.114841 1.285332,0.299726 1.759783,0.410856 0.474452,0.111131 0.993015,0.223306 1.152358,0.249279 l 0.289719,0.04723 1.573582,-1.358905 c 0.865472,-0.747398 1.775441,-1.537156 2.022157,-1.755018 1.078974,-0.952792 2.29914,-2.019287 3.001984,-2.623903 0.417518,-0.359166 1.362086,-1.181775 2.099039,-1.828018 0.736955,-0.646245 1.826654,-1.594232 2.421554,-2.10664 1.703535,-1.467311 2.541706,-2.195922 3.17415,-2.759242 0.322628,-0.287366 0.900907,-0.793143 1.285068,-1.12395 0.38416,-0.330808 0.734097,-0.644393 0.777637,-0.696856 0.07663,-0.09234 0.243325,-0.961344 0.696752,-3.632279 0.402916,-2.373391 0.64056,-3.757698 0.786905,-4.583806 l 0.145733,-0.822698 0.547731,-0.323463 c 0.625436,-0.369345 0.693316,-0.486898 0.767625,-1.329299 0.171731,-1.946787 -1.556228,-4.074909 -4.525009,-5.572913 -0.603321,-0.304427 -0.850497,-0.483296 -1.483102,-1.073259 -0.974094,-0.908431 -1.903712,-1.68135 -3.070997,-2.553353 -1.590029,-1.187802 -2.661732,-1.868361 -6.590565,-4.18519 -0.645256,-0.380506 -1.359519,-0.807539 -1.587257,-0.948963 -0.227736,-0.141422 -1.345716,-0.810106 -2.484401,-1.485962 -2.226248,-1.32137 -3.653349,-2.170929 -4.032438,-2.400524 l -0.236826,-0.143433 0.395856,0.737997 c 0.217723,0.405895 0.376489,0.737994 0.352816,0.737994 -0.02369,0 -1.026886,-0.532038 -2.229364,-1.182304 -1.202479,-0.650267 -2.512404,-1.352924 -2.910944,-1.561459 -0.398537,-0.208533 -0.797183,-0.424299 -0.885878,-0.479478 -0.0887,-0.05518 -0.170841,-0.09007 -0.18255,-0.07756 -0.01171,0.01252 0.122971,0.215712 0.299286,0.451533 0.766638,1.025389 1.183209,1.599365 1.183209,1.630299 0,0.01829 -0.116455,-0.02287 -0.258789,-0.09147 -0.142337,-0.06859 -0.569345,-0.255957 -0.948904,-0.416352 -0.379561,-0.160397 -0.923026,-0.392126 -1.207695,-0.514953 -0.284672,-0.122827 -0.859188,-0.368192 -1.276706,-0.545253 -0.417518,-0.177062 -0.929925,-0.399033 -1.138685,-0.493271 -0.942589,-0.425494 -2.935478,-1.257882 -2.95877,-1.235812 -0.02512,0.02379 0.243224,0.456321 1.146964,1.848714 0.570844,0.879502 0.594441,0.941343 0.288816,0.756865 -0.130237,-0.07862 -0.929721,-0.505345 -1.776632,-0.948291 -0.846911,-0.442949 -1.731979,-0.907753 -1.966819,-1.032898 -1.366515,-0.728218 -2.37418,-1.255994 -2.482307,-1.300133 -0.08523,-0.03479 0.05045,0.281677 0.436423,1.017915 0.343611,0.655444 0.524575,1.068402 0.468184,1.068402 -0.05056,0 -0.309206,-0.06271 -0.574777,-0.139355 -1.926524,-0.556006 -5.84609,-1.365284 -7.521995,-1.553076 -2.836425,-0.317834 -5.242867,0.077 -7.073644,1.1606 -0.689497,0.408102 -0.884582,0.560314 -1.528847,1.192865 -1.109553,1.089381 -1.982876,2.655294 -2.406744,4.315422 -0.195632,0.766223 -0.165886,0.876938 0.06072,0.225986 0.81662,-2.345836 2.800954,-3.837786 5.627188,-4.23088 0.755031,-0.105015 2.372918,-0.09167 3.147475,0.02598 1.815378,0.275705 3.275771,0.96785 5.449937,2.582967 2.45402,1.823013 3.667083,2.467492 5.420679,2.879913 0.769538,0.180985 0.929492,0.19461 2.310515,0.196809 0.949158,0.0016 1.670222,-0.03104 2.001324,-0.09032 0.844276,-0.151179 2.613259,-0.55854 3.243522,-0.746919 1.336386,-0.399432 1.325288,-0.397958 3.001986,-0.399023 1.574453,-10e-4 1.594462,7.83e-4 2.480421,0.228412 1.149569,0.295279 2.149431,0.736233 3.067277,1.352716 1.108934,0.74483 3.259928,2.246144 3.484174,2.431824 0.328457,0.27197 0.285546,0.12681 -0.109799,-0.371429 -0.205372,-0.258824 -0.528532,-0.672445 -0.718132,-0.919161 -0.189601,-0.246713 -0.544774,-0.708056 -0.789273,-1.025206 -0.732784,-0.950523 -0.724578,-0.938869 -0.615685,-0.874356 0.149805,0.08875 5.097316,3.355817 5.86131,3.870489 0.358794,0.241708 0.663933,0.427886 0.678089,0.413733 0.02189,-0.02189 -0.950792,-1.648867 -1.477224,-2.470924 -0.09115,-0.142335 -0.151561,-0.25879 -0.134244,-0.25879 0.01732,0 0.39818,0.266894 0.846366,0.5931 1.805686,1.314242 2.474283,1.802043 2.877117,2.099109 0.23219,0.17123 0.860343,0.628457 1.395894,1.016062 0.793172,0.574063 1.219112,0.955909 2.297061,2.059278 0.901932,0.923204 1.312948,1.390777 1.290725,1.46834 -0.01792,0.06259 -0.112759,0.533041 -0.210724,1.045449 -0.09797,0.512408 -0.288024,1.506168 -0.422351,2.208355 -0.13433,0.70219 -0.285966,1.477441 -0.336971,1.722776 -0.09024,0.43405 -0.08533,0.478688 0.181874,1.656268 0.151036,0.665611 0.329769,1.45864 0.397183,1.762287 0.06742,0.30365 0.19697,0.885834 0.287899,1.293746 0.09093,0.407909 0.185632,0.74175 0.210452,0.74187 0.04267,2.03e-4 0.374442,-0.184417 1.283337,-0.714131 0.218246,-0.127196 0.924747,-0.535373 1.570003,-0.907055 0.645253,-0.371685 1.243064,-0.721483 1.328465,-0.777333 0.197662,-0.129261 0.198591,-0.188537 -0.01983,1.266636 -0.09631,0.64163 -0.282238,1.912517 -0.413174,2.824192 -0.130937,0.911672 -0.266819,1.811482 -0.301958,1.999574 -0.06663,0.356658 -0.06734,0.35748 -0.804659,0.932387 l -0.34918,0.272264 -2.963355,-0.930767 c -1.629846,-0.511925 -3.234793,-1.018419 -3.56655,-1.125548 l -0.603194,-0.194774 -0.84604,0.232418 c -0.877826,0.241149 -4.264202,1.145868 -5.469785,1.461328 l -0.690111,0.180581 0.552088,0.04934 c 0.303649,0.02714 1.452684,0.09802 2.553414,0.15752 2.040042,0.110274 2.510161,0.155726 3.724974,0.360144 0.833379,0.140236 0.798431,0.15298 -0.999034,0.364336 -0.70219,0.08257 -1.875042,0.224047 -2.606339,0.314398 l -1.329631,0.164278 -2.656492,1.324679 c -1.46107,0.728574 -2.64707,1.3341 -2.635557,1.345613 0.0115,0.01151 0.640704,-0.08457 1.398205,-0.213529 3.558015,-0.605706 7.069902,-0.85812 9.19679,-0.661013 0.959391,0.08891 2.219033,0.339924 2.534025,0.504964 l 0.183861,0.09633 -0.886495,0.716409 c -0.487571,0.394025 -1.274681,1.027069 -1.749134,1.406763 -0.474451,0.379695 -1.12799,0.908899 -1.452311,1.17601 -0.324318,0.267111 -0.712505,0.583687 -0.862639,0.703503 -0.150131,0.119815 -1.018289,0.819279 -1.929236,1.554364 -0.910947,0.735086 -2.07551,1.674119 -2.587917,2.086742 -0.512407,0.412622 -1.010712,0.82311 -1.107341,0.912195 l -0.17569,0.161973 -0.928488,-0.09806 c -0.878398,-0.09277 -2.101772,-0.238025 -5.27619,-0.626468 -0.759123,-0.09289 -1.923685,-0.231222 -2.587919,-0.307403 -1.932504,-0.221639 -1.887276,-0.20412 -1.000659,-0.387595 0.417517,-0.0864 1.209419,-0.25407 1.759783,-0.372598 0.550363,-0.118528 1.18699,-0.255507 1.414728,-0.304399 l 0.414067,-0.08889 -0.655605,-0.04509 c -0.360583,-0.0248 -2.534436,-0.138802 -4.830782,-0.253341 -6.097186,-0.304118 -8.23978,-0.417897 -8.260545,-0.438662 -0.01015,-0.01014 0.718583,-0.291986 1.619396,-0.626314 0.900812,-0.334328 1.668895,-0.638545 1.706854,-0.676039 0.04561,-0.04506 0.02219,-0.05495 -0.06901,-0.02918 -0.07591,0.02144 -0.712539,0.07595 -1.414728,0.12112 -3.056878,0.196638 -6.547506,-0.148935 -9.143978,-0.905258 -3.449668,-1.004849 -6.145829,-2.528094 -8.547811,-4.829244 -1.288676,-1.23458 -2.601115,-2.973143 -3.360226,-4.451222 -0.374365,-0.728937 -0.385769,-0.697526 -0.125265,0.345056 0.435762,1.744001 1.158659,3.334613 2.305261,5.072321 0.874483,1.325307 1.59475,2.197483 2.792678,3.38167 1.497519,1.480339 2.293044,2.010002 4.071401,2.710743 3.017461,1.188995 5.837364,1.89469 9.710569,2.430116 0.978883,0.135319 2.230087,0.327151 2.78045,0.426292 0.550363,0.09914 1.14041,0.203993 1.311212,0.233004 0.771794,0.13109 2.922472,0.667806 4.175173,1.041941 1.364655,0.407572 3.72329,1.267766 4.244188,1.547857 0.227046,0.122085 0.241682,0.120063 0.129219,-0.01785 z m 7.362356,-25.73165 c 0.491302,-0.210483 1.017496,-0.439404 1.169321,-0.50872 1.04049,-0.475036 3.208722,-1.363408 4.106163,-1.682382 0.588322,-0.209105 1.504444,-0.540008 2.03583,-0.735346 0.531385,-0.195336 1.145732,-0.419923 1.365218,-0.499082 0.219483,-0.07916 0.389251,-0.153735 0.377261,-0.165726 -0.012,-0.012 -0.719501,0.01103 -1.572252,0.05116 -2.519097,0.118547 -5.425254,-0.0028 -6.243208,-0.260669 -0.531064,-0.167425 -1.819646,-0.824019 -2.242863,-1.142842 -0.484584,-0.365051 -1.157128,-1.119835 -1.587717,-1.78186 -0.185151,-0.284669 -0.448321,-0.657329 -0.584818,-0.828133 -0.382916,-0.479157 -1.353066,-1.496416 -1.316302,-1.380222 0.01802,0.05693 0.158217,0.471864 0.311561,0.92207 0.153344,0.450202 0.278808,0.833842 0.278808,0.852533 0,0.0466 -0.390834,-0.297684 -1.198829,-1.056059 -0.671007,-0.629801 -0.689159,-0.641122 -1.207696,-0.753354 -0.289547,-0.06267 -1.0078,-0.222016 -1.59612,-0.354102 -0.588322,-0.132087 -1.488917,-0.333254 -2.001325,-0.447036 -0.512407,-0.113784 -1.179309,-0.265459 -1.482002,-0.337059 -0.302692,-0.0716 -0.563903,-0.116627 -0.580465,-0.100065 -0.01656,0.01656 0.821141,0.445121 1.861564,0.952351 2.216404,1.080549 2.662996,1.34918 3.072848,1.84835 0.412257,0.502097 0.555145,0.878793 0.430226,1.134197 -0.12439,0.254321 -0.514218,0.444975 -0.947211,0.463254 -0.194471,0.0083 -0.353596,0.03483 -0.353609,0.05916 -2.3e-5,0.04051 2.459664,1.922582 2.512623,1.922582 0.01273,0 0.04286,-0.123409 0.06698,-0.274244 0.04562,-0.285283 0.380808,-0.737235 0.609516,-0.82184 0.111602,-0.04129 0.08302,-0.113753 -0.25502,-0.646562 -0.209389,-0.330038 -0.38071,-0.619332 -0.38071,-0.642881 0,-0.02355 0.16304,0.0749 0.362308,0.218776 0.199272,0.143871 0.674954,0.481038 1.057076,0.749254 l 0.694764,0.487671 -0.19377,0.267225 c -0.612762,0.845043 -0.334219,2.095909 0.570948,2.563991 0.735265,0.380219 1.74519,0.03084 2.138312,-0.739747 0.133068,-0.260837 0.139535,-0.264142 0.323736,-0.165444 0.103374,0.05539 0.279176,0.175491 0.390671,0.266888 l 0.202714,0.166175 -0.357992,0.08588 c -0.332643,0.0798 -0.357988,0.100534 -0.357988,0.292854 0,0.310948 -0.192182,0.655248 -0.509609,0.912971 -0.592487,0.48105 -1.828423,0.97238 -3.233039,1.285253 -0.349286,0.07781 -0.649017,0.15541 -0.666066,0.172461 -0.01706,0.01706 0.884273,0.031 2.002943,0.031 h 2.033946 z M 64.39274,36.423183 c -0.216732,-0.04195 -0.502687,-0.407815 -0.502687,-0.643164 0,-0.108839 0.06987,-0.276453 0.155275,-0.372476 l 0.155276,-0.174583 0.437143,0.300778 c 0.584524,0.402187 0.591838,0.410918 0.495346,0.591218 -0.06536,0.122133 -0.490557,0.374589 -0.567964,0.337223 -0.01072,-0.0052 -0.08828,-0.02272 -0.172389,-0.039 z m -43.255093,0.690379 c 0.543649,-0.404432 2.535191,-1.677152 2.624389,-1.677152 0.02517,0 0.131578,-0.06112 0.236494,-0.13583 0.104916,-0.07471 0.684229,-0.381987 1.287361,-0.682844 3.683949,-1.837651 7.293983,-2.866971 11.421014,-3.256452 0.558804,-0.05274 1.595327,-0.0699 2.898468,-0.048 2.230982,0.0375 3.485202,0.165446 5.306616,0.541345 1.480424,0.305526 1.423212,0.296376 1.345716,0.215214 -0.108557,-0.113696 -1.258171,-0.719491 -1.828796,-0.963692 -1.727257,-0.739194 -3.605996,-1.210544 -5.865946,-1.471687 -0.360584,-0.04167 -1.486327,-0.0772 -2.501656,-0.07897 -1.015325,-0.0019 -1.846047,-0.02661 -1.846047,-0.05522 0,-0.101 0.905543,-0.897438 1.398469,-1.229972 1.603875,-1.082002 3.398946,-1.615204 5.778691,-1.716475 l 1.069672,-0.04552 -0.393852,-0.121497 c -0.901291,-0.278037 -2.685055,-0.370034 -3.919344,-0.202141 -0.746797,0.101583 -1.999525,0.431308 -2.771765,0.729548 -0.5534,0.213724 -2.209947,1.009917 -2.369567,1.138894 -0.163518,0.132129 -1.506871,0.626964 -1.961907,0.722683 -1.583579,0.333116 -2.637298,-0.200333 -2.912115,-1.474273 -0.04604,-0.213399 -0.09137,-0.398347 -0.100743,-0.411 -0.0094,-0.01266 -0.07553,0.03393 -0.147032,0.103518 -0.0715,0.06959 -0.809662,0.778676 -1.640368,1.575754 -0.830705,0.79708 -1.900542,1.831125 -2.377411,2.297883 l -0.86704,0.848648 1.207696,-0.604825 c 0.664231,-0.332651 1.331913,-0.659933 1.48374,-0.727292 l 0.276044,-0.122469 -0.213831,0.189195 c -0.520909,0.460897 -2.066814,1.845111 -2.098043,1.878604 -0.01899,0.02035 -0.477039,0.43655 -1.017916,0.924878 -0.540875,0.488327 -0.983409,0.896685 -0.983409,0.907463 0,0.01077 0.675447,-0.344439 1.500994,-0.789365 0.825547,-0.444928 1.811542,-0.973032 2.191104,-1.173569 l 0.69011,-0.364608 -0.379559,0.403024 c -0.20876,0.221663 -0.927927,0.962254 -1.598149,1.645758 -0.670224,0.683504 -1.396743,1.429064 -1.614491,1.656803 -0.217747,0.227735 -0.771837,0.800807 -1.231309,1.27349 -0.459472,0.472683 -0.788824,0.825995 -0.731887,0.785138 0.05693,-0.04086 0.351955,-0.259105 0.655605,-0.484994 z M 43.66718,24.876676 c -0.478207,-0.416422 -1.774515,-1.373742 -2.481793,-1.832802 -1.014533,-0.658481 -2.408231,-1.354365 -3.3268,-1.661096 -0.764804,-0.255384 -0.799349,-0.260303 -1.849036,-0.263214 l -1.069675,-0.003 -0.532614,0.265917 c -0.573609,0.286382 -0.975083,0.662206 -1.238324,1.159204 -0.127614,0.240934 -0.159219,0.410085 -0.160179,0.857287 -10e-4,0.492242 0.02074,0.590257 0.187041,0.841571 0.103528,0.156443 0.336441,0.371563 0.517585,0.478039 0.301263,0.177088 0.385253,0.193089 0.984952,0.187658 0.388613,-0.0035 0.824235,-0.05347 1.069673,-0.12267 1.596021,-0.449947 4.44936,-0.657938 5.838776,-0.425612 0.81328,0.135989 1.394566,0.305529 1.890474,0.551371 0.443741,0.219983 0.457122,0.217409 0.16992,-0.03269 z"
       id="path14" /><path
       id="path14-8"
       style="fill:#ffffff;fill-opacity:1;stroke-width:0.26083"
       d="m 60.564778,32.833137 c 0.225056,0.617324 0.601039,0.877008 0.794783,1.377177 -0.228708,0.08461 -0.564161,0.536889 -0.609781,0.822172 -0.02412,0.150835 -0.05393,0.274402 -0.06666,0.274402 -0.04767,-0.0076 -0.08633,-0.01744 -0.130741,-0.02584 l -0.219109,0.578259 0.947746,3.258199 c 0.0665,0.03246 0.135881,0.06689 0.201538,0.0987 l 0.904338,-0.04444 c 1.160539,-0.308927 2.148295,-0.730086 2.658236,-1.144116 0.317427,-0.257723 0.509529,-0.602174 0.509529,-0.913122 0,-0.19232 0.02548,-0.212689 0.358118,-0.292489 l 0.357601,-0.0863 -0.202572,-0.165881 c -0.111495,-0.0914 -0.2873,-0.211777 -0.390674,-0.267167 -0.184201,-0.0987 -0.190426,-0.09547 -0.323494,0.165365 -0.393122,0.770587 -1.403106,1.120225 -2.138371,0.740006 -0.90517,-0.46808 -1.183789,-1.71914 -0.571027,-2.564183 l 0.193786,-0.267167 C 62.144741,33.725171 61.406082,33.26023 60.564778,32.833137 Z m 3.644222,2.408122 -0.155546,0.174666 c -0.08541,0.09602 -0.155029,0.263748 -0.155029,0.372587 0,0.235349 0.286079,0.600905 0.502811,0.642855 0.08411,0.01628 0.161363,0.03407 0.172083,0.03927 0.07741,0.03737 0.502564,-0.215314 0.567924,-0.337447 0.09649,-0.1803 0.08946,-0.188991 -0.49506,-0.591178 z"
       sodipodi:nodetypes="ccsccccccsscccssscccccsscscc" /><text
       xml:space="preserve"
       style="font-style:normal;font-variant:normal;font-weight:normal;font-stretch:normal;font-size:28.7099px;line-height:1;font-family:'Ranked Sports';-inkscape-font-specification:'Ranked Sports';text-align:center;letter-spacing:0.330705px;word-spacing:0px;writing-mode:lr-tb;direction:ltr;text-anchor:middle;fill:#ffb81c;fill-opacity:1;stroke:#ffffff;stroke-width:1.726;stroke-dasharray:none;stroke-opacity:1"
       x="49.189335"
       y="77.557297"
       id="text15-6"
       transform="skewY(10.654373)"><tspan
         sodipodi:role="line"
         id="tspan15-3"
         style="stroke:#ffffff;stroke-width:1.726;stroke-dasharray:none"
         x="49.354687"
         y="77.557297">ww</tspan></text><text
       xml:space="preserve"
       style="font-style:normal;font-variant:normal;font-weight:normal;font-stretch:normal;font-size:28.7099px;line-height:1;font-family:'Ranked Sports';-inkscape-font-specification:'Ranked Sports';text-align:center;letter-spacing:0.330705px;word-spacing:0px;writing-mode:lr-tb;direction:ltr;text-anchor:middle;fill:#ffb81c;fill-opacity:1;stroke:none;stroke-width:0.526098;stroke-dasharray:none;stroke-opacity:1"
       x="49.189335"
       y="77.557297"
       id="text15"
       transform="skewY(10.654373)"><tspan
         sodipodi:role="line"
         id="tspan15"
         style="stroke-width:0.526098;stroke:none"
         x="49.354687"
         y="77.557297">ww</tspan></text></g></svg>
