<?xml version="1.0" encoding="UTF-8" standalone="no"?>
<!-- Created with Inkscape (http://www.inkscape.org/) -->

<svg
   width="105.83334mm"
   height="105.83334mm"
   viewBox="0 0 105.83333 105.83333"
   version="1.1"
   id="svg1"
   xml:space="preserve"
   inkscape:version="1.4 (e7c3feb100, 2024-10-09)"
   sodipodi:docname="washington.svg"
   inkscape:export-filename="../pngs/boulder.png"
   inkscape:export-xdpi="96"
   inkscape:export-ydpi="96"
   xmlns:inkscape="http://www.inkscape.org/namespaces/inkscape"
   xmlns:sodipodi="http://sodipodi.sourceforge.net/DTD/sodipodi-0.dtd"
   xmlns="http://www.w3.org/2000/svg"
   xmlns:svg="http://www.w3.org/2000/svg"><sodipodi:namedview
     id="namedview1"
     pagecolor="#ffffff"
     bordercolor="#000000"
     borderopacity="0.25"
     inkscape:showpageshadow="2"
     inkscape:pageopacity="0.0"
     inkscape:pagecheckerboard="0"
     inkscape:deskcolor="#d1d1d1"
     inkscape:document-units="mm"
     inkscape:zoom="1.4016483"
     inkscape:cx="302.50099"
     inkscape:cy="211.89338"
     inkscape:window-width="1920"
     inkscape:window-height="1011"
     inkscape:window-x="0"
     inkscape:window-y="32"
     inkscape:window-maximized="1"
     inkscape:current-layer="layer1"
     showgrid="false"
     showguides="true" /><defs
     id="defs1"><inkscape:path-effect
       effect="bspline"
       id="path-effect55"
       is_visible="true"
       lpeversion="1.3"
       weight="33.333333"
       steps="2"
       helper_size="0"
       apply_no_weight="true"
       apply_with_weight="true"
       only_selected="false"
       uniform="false" /></defs><g
     inkscape:label="Capa 1"
     inkscape:groupmode="layer"
     id="layer1"><g
       id="g8"
       transform="translate(0.06223679,6.3057724)"><text
         xml:space="preserve"
         style="font-size:117.529px;line-height:1;font-family:'Silvano Western Demo';-inkscape-font-specification:'Silvano Western Demo';text-align:center;letter-spacing:7.43746px;word-spacing:0px;writing-mode:lr-tb;direction:ltr;text-anchor:middle;fill:#4b2e83;fill-opacity:1;stroke:#b7a57a;stroke-width:2.45141;stroke-dasharray:none;stroke-opacity:1"
         x="52.854435"
         y="87.112274"
         id="text6-7"><tspan
           sodipodi:role="line"
           id="tspan6-2"
           style="font-style:normal;font-variant:normal;font-weight:normal;font-stretch:normal;font-family:'Ranked Sports';-inkscape-font-specification:'Ranked Sports';stroke:#b7a57a;stroke-width:2.45141;stroke-dasharray:none;stroke-opacity:1"
           x="56.573166"
           y="87.112274">W</tspan></text><text
         xml:space="preserve"
         style="font-size:117.529px;line-height:1;font-family:'Silvano Western Demo';-inkscape-font-specification:'Silvano Western Demo';text-align:center;letter-spacing:7.43746px;word-spacing:0px;writing-mode:lr-tb;direction:ltr;text-anchor:middle;fill:#4b2e83;fill-opacity:1;stroke:none;stroke-width:2.45141;stroke-dasharray:none;stroke-opacity:1"
         x="52.854435"
         y="87.112274"
         id="text6"><tspan
           sodipodi:role="line"
           id="tspan6"
           style="font-style:normal;font-variant:normal;font-weight:normal;font-stretch:normal;font-family:'Ranked Sports';-inkscape-font-specification:'Ranked Sports';stroke:none;stroke-width:2.45141;stroke-dasharray:none"
           x="56.573166"
           y="87.112274">W</tspan></text><path
         style="fill:#4b2e83;fill-opacity:1;stroke:#b7a57a;stroke-width:1.08039;stroke-opacity:1"
         d="M 47.582658,90.592407 C 45.767591,88.509251 41.854738,84.294938 38.887434,81.227249 28.771754,70.769385 25.172647,66.582942 24.47169,64.459002 c -0.60127,-1.821865 -0.189101,-5.082803 1.027721,-8.13095 1.819303,-4.557387 3.604358,-7.440912 7.462737,-12.055124 1.65598,-1.980376 2.348597,-3.020932 2.215644,-3.328663 -1.085998,-2.513572 -1.542528,-4.247031 -1.542528,-5.856986 0,-2.044333 0.35842,-3.059446 2.052916,-5.814323 3.010596,-4.894564 4.273205,-8.882837 4.229417,-13.359766 -0.04008,-4.099989 -0.08546,-3.859021 0.727373,-3.859021 0.54441,0 0.923324,0.319143 1.547542,1.303436 1.419234,2.237889 3.424494,9.540105 3.959471,14.418505 l 0.203762,1.858046 3.028952,0.08069 3.028941,0.08068 1.687635,-1.250402 c 3.788532,-2.806996 6.883582,-6.691114 9.158367,-11.493227 1.240094,-2.617867 1.906404,-3.276144 2.293919,-2.266284 0.270497,0.704897 -0.445824,4.516766 -1.52467,8.113468 -1.250077,4.167609 -1.32927,6.59643 -0.317494,9.73812 0.629835,1.955728 0.896703,2.351245 3.017251,4.471792 1.279464,1.279465 2.404313,2.637165 2.499679,3.017112 0.114846,0.457574 0.479078,0.781501 1.078814,0.959424 0.88349,0.262102 1.950775,1.617808 1.571904,1.996683 -0.10361,0.103556 -0.482503,-0.01778 -0.842089,-0.269646 -0.757484,-0.530555 -1.748829,-0.588853 -2.567042,-0.150957 -0.543944,0.291113 -0.56404,0.243091 -0.388681,-0.929023 0.180414,-1.205953 0.145669,-1.276178 -1.429185,-2.888364 -3.00031,-3.071436 -6.464811,-5.374609 -9.822191,-6.529716 -2.257683,-0.776757 -2.433041,-0.636982 -0.469236,0.374026 4.102094,2.11185 6.601719,4.857852 9.592414,10.537875 0.956092,1.815842 2.95004,4.967376 4.430997,7.00341 2.797954,3.84666 4.699982,6.910353 4.699982,7.570498 0,0.210891 -0.741818,-0.703679 -1.648493,-2.032377 -0.906675,-1.3287 -2.320248,-3.223003 -3.141269,-4.209563 -2.249374,-2.702889 -3.55009,-4.733192 -5.340114,-8.335467 -0.892749,-1.796569 -2.056395,-3.85244 -2.585873,-4.568602 -3.188331,-4.312425 -7.385175,-6.594268 -13.153987,-7.151869 -1.414967,-0.136767 -2.778809,-0.330136 -3.030746,-0.429706 -0.363789,-0.143777 -0.619572,0.277877 -1.242828,2.048726 -0.741764,2.107591 -2.390581,5.379909 -2.603483,5.167 -0.05402,-0.05398 0.392928,-1.637378 0.993128,-3.518665 0.600201,-1.881286 1.176989,-4.128008 1.281755,-4.992715 0.330297,-2.726205 -1.373242,-10.922195 -2.97073,-14.292674 -0.60302,-1.272273 -0.607979,-1.275398 -0.453764,-0.285853 0.665585,4.270767 0.860801,7.592169 0.840025,14.292674 -0.02582,8.343409 -0.230922,9.85044 -1.400867,10.295254 -0.383766,0.145907 -0.892943,0.190389 -1.131494,0.09885 -0.433874,-0.166496 -0.528732,-0.44078 -0.857258,-2.478725 -0.104365,-0.647722 -0.557697,-1.516466 -1.118626,-2.143901 -1.877762,-2.100393 -1.883035,-2.659811 -0.04883,-5.177113 1.343272,-1.843549 2.328707,-3.914549 2.703797,-5.682334 0.478829,-2.256737 0.360948,-2.706912 -0.227239,-0.867745 -0.284834,0.890671 -1.201308,2.8845 -2.036601,4.430729 -2.501754,4.631082 -2.560117,4.758987 -2.560117,5.610731 0,0.507934 0.369332,1.274355 0.969565,2.011996 0.946271,1.162907 2.831478,4.768192 2.489599,4.761152 -0.186411,-0.0039 -1.077647,-1.369469 -1.737442,-2.662274 -0.226741,-0.44427 -0.832041,-1.280391 -1.345119,-1.858047 l -0.932874,-1.050283 0.176039,1.000487 c 0.464805,2.641639 1.498696,4.560111 4.310717,7.99886 1.010522,1.235746 1.214878,1.692371 1.214878,2.714647 0,0.767801 -0.197528,1.472938 -0.526367,1.879035 L 39.443025,49.022578 39.268174,47.54619 C 39.10308,46.152215 38.572759,45.153452 36.836041,42.965696 l -0.536058,-0.675279 -2.372247,2.949203 c -2.948916,3.666111 -4.613118,6.238001 -6.179329,9.54964 -1.923106,4.066267 -2.601538,7.69283 -1.822457,9.74197 0.598299,1.573642 4.248573,5.84007 9.518634,11.125333 6.576632,6.595617 9.872311,10.024257 12.996888,13.521245 l 2.371577,2.654229 1.817358,-3.79994 c 1.614926,-3.376654 3.167059,-7.611604 3.697585,-10.088706 0.172311,-0.804514 0.08794,-0.756947 -1.364243,0.768984 -0.851359,0.894599 -2.006361,2.54293 -2.566695,3.662958 -0.942231,1.883422 -1.03307,1.979437 -1.209131,1.27795 -0.335569,-1.33701 0.08643,-4.103561 0.87046,-5.705979 0.413315,-0.844787 1.456648,-2.252492 2.318509,-3.128235 0.86186,-0.875744 1.452769,-1.59226 1.313118,-1.59226 -0.139641,0 -1.78244,0.62721 -3.650663,1.393801 -3.798947,1.558829 -3.792475,1.550514 -3.140891,4.03703 0.226536,0.864495 0.363562,1.62013 0.304508,1.67919 -0.17914,0.179142 -1.596224,-3.185144 -1.766796,-4.194529 -0.146631,-0.867743 -0.0076,-1.091529 1.73836,-2.786132 1.043798,-1.013432 1.897804,-1.94799 1.897804,-2.076795 0,-0.128804 -0.739646,-0.538279 -1.643653,-0.909942 -4.8787,-2.005762 -9.56522,-6.009623 -11.319872,-9.670967 -1.726649,-3.60291 -2.038191,-8.136283 -0.882259,-12.837973 0.519031,-2.111147 1.16625,-3.206601 0.888546,-1.503909 -0.08978,0.550268 -0.24258,2.286828 -0.33961,3.859022 -0.417776,6.768718 1.834018,12.020021 5.999196,13.990465 2.32405,1.099455 5.830438,1.48618 6.318267,0.696857 0.347497,-0.562273 0.654652,-0.174637 0.989681,1.249008 0.668265,2.83965 1.576885,4.119595 3.492688,4.920071 1.820719,0.760742 3.887323,0.422021 3.113547,-0.510318 -0.242397,-0.292079 -0.684136,-0.377065 -1.435829,-0.276241 -1.469137,0.197052 -2.746397,-0.508437 -3.462772,-1.912649 -0.315982,-0.619375 -0.574509,-1.283599 -0.574509,-1.476053 0,-0.192454 -0.263561,-0.894364 -0.585701,-1.559798 -0.683726,-1.412395 -2.218465,-2.635541 -6.776559,-5.400746 -1.769561,-1.073517 -3.172136,-1.9971 -3.116831,-2.052406 0.115311,-0.115303 3.798385,1.522945 6.334214,2.817477 3.496902,1.785162 5.579788,4.261186 5.121291,6.087945 -0.399345,1.591154 1.331647,3.441492 2.663078,2.846683 0.432891,-0.19339 0.402878,-0.242797 -0.20925,-0.344469 -0.910727,-0.151266 -1.715121,-0.865684 -1.715121,-1.523272 0,-1.400064 1.387946,-0.83206 4.090922,1.674166 2.354983,2.183578 4.043029,2.926924 6.646652,2.926924 1.972567,0 5.703698,-1.185101 7.438093,-2.362525 2.05378,-1.39425 2.114714,-1.635439 0.76469,-3.026551 -1.323252,-1.363514 -2.077225,-2.797444 -2.284844,-4.345386 -0.129646,-0.966605 -0.05877,-1.122185 0.686394,-1.507545 1.043453,-0.539594 4.840941,-1.335546 6.371877,-1.335546 0.635507,0 1.155467,-0.107305 1.155467,-0.238464 0,-0.383349 -2.062034,-3.219927 -4.856476,-6.680683 -2.668221,-3.304441 -3.680298,-5.076143 -4.257249,-7.45254 -0.23545,-0.969841 -0.244017,-1.528778 -0.0296,-1.929511 0.726466,-1.357407 1.830032,-0.185112 2.092329,2.222632 0.242785,2.228634 0.991075,3.635939 3.534002,6.646376 2.914323,3.450101 4.83327,6.265757 5.098787,7.48141 0.114284,0.523197 0.448286,1.258041 0.742239,1.632988 0.293942,0.374945 0.534448,0.92234 0.534448,1.216432 0,0.294092 -0.758283,2.113091 -1.685064,4.04222 -1.919779,3.996045 -3.454464,5.737966 -5.364142,6.088467 -0.60369,0.110799 -1.541966,0.588166 -2.085057,1.060814 -1.532967,1.33412 -3.853701,2.268301 -6.020079,2.423304 -2.260211,0.161717 -3.410708,-0.159215 -6.048688,-1.687293 -1.049352,-0.607852 -1.981945,-1.105186 -2.072439,-1.105186 -0.09043,0 -0.168995,0.546695 -0.174483,1.214878 -0.02571,3.136062 -1.441955,8.289781 -3.282066,11.94375 -0.551626,1.095376 -0.945656,1.991604 -0.875614,1.991604 0.213334,0 2.999101,-4.730255 3.650188,-6.198056 0.335958,-0.757382 0.910661,-2.406131 1.277108,-3.663887 0.476204,-1.634458 0.616742,-1.91987 0.492637,-1.000487 -0.228654,1.693957 -1.357987,5.262255 -2.401612,7.588294 -1.241974,2.768135 -5.383405,8.991198 -5.983616,8.991198 -0.111604,0 -1.687981,-1.704393 -3.503049,-3.787559 z M 68.792225,74.024246 c 0.879601,-0.27799 3.719106,-1.858418 3.719106,-2.069996 0,-0.04406 -1.288604,0.361086 -2.863576,0.900325 -1.924134,0.658788 -3.464426,0.997131 -4.695088,1.031325 -1.994164,0.05541 -2.111484,0.142221 -0.674121,0.498841 1.067091,0.264755 3.031815,0.107834 4.513679,-0.360495 z m 8.407852,-5.191286 c 0.456346,-0.732189 0.777935,-1.382716 0.714635,-1.445613 -0.06331,-0.0629 -0.812065,0.49721 -1.663932,1.244682 -1.159562,1.017471 -1.499939,1.486465 -1.354291,1.866032 0.175336,0.456917 0.257727,0.465467 0.834213,0.08657 0.351808,-0.23123 1.013028,-1.019483 1.469375,-1.751673 z M 62.067202,31.933679 C 61.4143,29.764234 61.533769,26.5266 62.375037,23.591748 c 0.399378,-1.393258 0.793947,-2.790464 0.876824,-3.104903 0.08287,-0.314438 -0.172279,-0.02471 -0.567011,0.643836 -1.75086,2.965369 -5.458816,6.992019 -7.607368,8.261197 -0.965567,0.570374 -1.109896,0.955008 -0.360526,0.960736 0.275132,0.0021 1.560095,0.372745 2.855473,0.823647 l 2.35522,0.819823 -0.211324,-0.752184 c -0.433453,-1.542825 -0.123532,-3.485335 0.89989,-5.640375 0.552479,-1.16337 1.066184,-2.115218 1.141563,-2.115218 0.07541,0 -0.239869,1.032777 -0.700548,2.295058 -0.874133,2.395168 -1.066183,4.443935 -0.516815,5.513242 0.348037,0.677419 1.730267,2.241789 1.863264,2.108788 0.04505,-0.045 -0.106419,-0.707273 -0.336477,-1.471716 z m -17.75936,43.651424 c -3.638368,-4.567751 -5.579993,-7.830209 -6.49556,-10.914316 -0.744627,-2.508289 -0.542615,-2.344216 1.207737,0.980907 1.667281,3.167298 2.657092,4.83182 5.524472,9.290238 2.634522,4.096349 2.596417,4.19991 -0.236649,0.643171 z M 31.721708,70.17766 c -3.582555,-5.496129 -4.361766,-10.266183 -2.455329,-15.030824 0.601756,-1.503948 0.686048,-1.237446 0.200574,0.634131 -0.495899,1.911744 -0.525675,5.722227 -0.06083,7.776482 0.189511,0.837396 1.202886,3.22694 2.251946,5.310097 1.049059,2.083157 1.855874,3.787558 1.792919,3.787558 -0.06299,0 -0.841149,-1.114849 -1.729338,-2.477444 z m 35.358411,-0.238163 c 0,-0.262033 0.138279,-0.43033 0.307295,-0.373993 0.169006,0.05633 0.307296,0.224634 0.307296,0.373993 0,0.149357 -0.13829,0.317654 -0.307296,0.373991 -0.169016,0.05633 -0.307295,-0.11196 -0.307295,-0.373991 z M 64.507438,69.79657 c 0,-0.15722 0.200542,-0.285853 0.44565,-0.285853 0.245108,0 0.366155,0.128633 0.268985,0.285853 -0.09713,0.157219 -0.297712,0.285853 -0.44565,0.285853 -0.147938,0 -0.268985,-0.128634 -0.268985,-0.285853 z m -2.286832,-0.571708 c 0,-0.157219 0.200553,-0.285853 0.445651,-0.285853 0.245108,0 0.366155,0.128634 0.268985,0.285853 -0.09713,0.15722 -0.297702,0.285855 -0.445651,0.285855 -0.147938,0 -0.268985,-0.128635 -0.268985,-0.285855 z m 7.86098,-1.429266 c -0.09713,-0.15722 0.02388,-0.285854 0.268974,-0.285854 0.245108,0 0.44565,0.128634 0.44565,0.285854 0,0.157218 -0.121036,0.285853 -0.268974,0.285853 -0.147949,0 -0.348491,-0.128635 -0.44565,-0.285853 z m -7.575119,-1.143415 c 0,-0.157219 0.192947,-0.285853 0.428775,-0.285853 0.235828,0 0.428785,0.128634 0.428785,0.285853 0,0.15722 -0.192957,0.285853 -0.428785,0.285853 -0.235828,0 -0.428775,-0.128633 -0.428775,-0.285853 z m 2.051176,-1.693988 C 64.37281,64.42799 64.230652,63.788274 64.241726,63.5366 c 0.01113,-0.251672 0.206193,0.05048 0.433583,0.671438 0.227379,0.620965 0.369548,1.260682 0.315906,1.421593 -0.05369,0.160912 -0.248749,-0.141235 -0.433572,-0.671438 z M 57.936262,47.870438 c -0.382502,-0.267917 -1.536673,-0.585605 -2.564827,-0.705972 -1.327768,-0.155447 -2.57294,-0.573332 -4.297882,-1.44239 l -2.428535,-1.223539 1.448307,-0.176931 c 0.796572,-0.09731 1.720155,-0.322422 2.052419,-0.500244 0.917835,-0.491208 2.782115,-0.395375 3.44192,0.176931 0.536015,0.464942 3.336518,4.359266 3.134841,4.359266 -0.04991,0 -0.403742,-0.219205 -0.786243,-0.487121 z M 56.765723,42.148019 C 56.280314,41.40063 55.734619,40.982026 54.931348,40.740871 l -1.14341,-0.343272 1.033394,-0.02197 c 1.23089,-0.02617 2.394147,0.788177 2.664482,1.865289 0.282263,1.124609 0.05132,1.094813 -0.720091,-0.0929 z"
         id="path6-7"
         sodipodi:nodetypes="sssssssssssscccssssssssssssssssssssssssssssssssssssssssscsscsssscsscssssscssssssssssssssssssssssssssssssssssssssssssssscssssssssssssssssssssssssssssssssscsssscscsssssscssssssssssssssssssssssssssssssssssssssssssssscssssssscsss" /><g
         id="g7"
         transform="matrix(1.080391,0,0,1.080391,-6.5647474,-22.105832)"><path
           style="fill:#b7a57a;fill-opacity:1;stroke:none;stroke-width:2.188;stroke-dasharray:none;stroke-opacity:1"
           d="m 28.975557,80.036721 24.350794,26.993509 5.47421,-7.550625 2.07642,-6.418042 0.84945,-4.058465 4.62476,1.321361 9.24953,-3.303402 3.58655,-4.247232 1.51013,-4.530381 -1.03821,-3.303402 -7.45625,-10.382121 -0.84945,-3.775318 -0.66068,-1.510128 -5.66298,-6.418037 -0.56629,-2.359573 -0.5663,-7.078721 1.60451,-5.946124 -10.75965,12.081015 -6.41804,-0.66068 -1.6989,-10.570887 c 0,0 -2.54834,-6.040509 -2.7371,-5.379826 -0.18877,0.66068 -0.37753,6.701187 -0.37753,6.701187 l -5.757362,13.024842 c 0,0 1.982042,6.040508 1.793275,6.41804 -0.188765,0.377531 -9.343909,12.64731 -9.343909,12.64731 z"
           id="path7" /><path
           style="fill:#4b2e83;fill-opacity:1"
           d="m 50.112011,104.30799 c -1.68001,-1.92815 -5.30171,-5.828888 -8.04822,-8.668308 -9.362975,-9.679703 -12.694275,-13.554636 -13.34308,-15.520535 -0.55653,-1.686302 -0.175029,-4.704596 0.951249,-7.525933 1.683935,-4.218275 3.33616,-6.88724 6.907438,-11.158112 1.53276,-1.833018 2.17384,-2.796147 2.05078,-3.08098 -1.00519,-2.326539 -1.42775,-3.931012 -1.42775,-5.421172 0,-1.892216 0.33175,-2.831795 1.90016,-5.381684 2.786583,-4.530363 3.955243,-8.221872 3.914713,-12.365676 -0.0371,-3.794912 -0.0791,-3.571875 0.67325,-3.571875 0.5039,0 0.85462,0.295396 1.43239,1.206449 1.31363,2.071369 3.16968,8.830233 3.66485,13.345635 l 0.1886,1.719791 2.80357,0.07469 2.80356,0.07468 1.56206,-1.157361 c 3.50663,-2.59813 6.37138,-6.193234 8.4769,-10.638025 1.14782,-2.423074 1.76455,-3.032369 2.12323,-2.097652 0.25037,0.652446 -0.41265,4.180677 -1.41122,7.509752 -1.15706,3.8575 -1.23036,6.105594 -0.29387,9.013514 0.58297,1.810204 0.82998,2.176291 2.79274,4.139049 1.18426,1.184261 2.22541,2.440936 2.31368,2.792611 0.1063,0.423527 0.44343,0.723351 0.99854,0.888034 0.81775,0.2426 1.80562,1.497429 1.45494,1.848112 -0.0959,0.09585 -0.4466,-0.01646 -0.77943,-0.249582 -0.70112,-0.491077 -1.6187,-0.545037 -2.37603,-0.139724 -0.50347,0.269451 -0.52207,0.225002 -0.35976,-0.859896 0.16699,-1.116219 0.13483,-1.181218 -1.32284,-2.673443 -2.77706,-2.842893 -5.98377,-4.974688 -9.09133,-6.043845 -2.08969,-0.718959 -2.252,-0.589584 -0.43432,0.346195 3.79686,1.954709 6.11049,4.496383 8.87865,9.75376 0.88495,1.680727 2.73053,4.597758 4.10129,6.482292 2.58976,3.560433 4.35026,6.396159 4.35026,7.007184 0,0.195198 -0.68662,-0.651319 -1.52583,-1.88115 -0.83921,-1.229832 -2.1476,-2.983182 -2.90753,-3.896333 -2.082,-2.501769 -3.28593,-4.380999 -4.94276,-7.715231 -0.82632,-1.662888 -1.90338,-3.565783 -2.39346,-4.228656 -2.95109,-3.991541 -6.83565,-6.103594 -12.17521,-6.619704 -1.30968,-0.126591 -2.57204,-0.305571 -2.80523,-0.397732 -0.33672,-0.133079 -0.57347,0.2572 -1.15035,1.896282 -0.68657,1.950767 -2.2127,4.979594 -2.40976,4.782527 -0.05,-0.04996 0.36369,-1.515542 0.91923,-3.256844 0.55554,-1.741301 1.08941,-3.820846 1.18638,-4.621211 0.30572,-2.52335 -1.27106,-10.109483 -2.74968,-13.229167 -0.55815,-1.177604 -0.56274,-1.180497 -0.42,-0.264583 0.61606,3.952983 0.79675,7.027242 0.77752,13.229167 -0.0239,7.722583 -0.21374,9.117477 -1.29663,9.529193 -0.35521,0.13505 -0.8265,0.176222 -1.0473,0.09149 -0.40159,-0.154107 -0.48939,-0.407982 -0.79347,-2.294285 -0.0966,-0.599526 -0.5162,-1.403627 -1.035393,-1.984375 -1.73804,-1.944105 -1.74292,-2.461897 -0.0452,-4.791888 1.243323,-1.706372 2.155433,-3.623271 2.502613,-5.259516 0.4432,-2.088815 0.33409,-2.505493 -0.21033,-0.803177 -0.26364,0.824397 -1.11192,2.669866 -1.885063,4.101042 -2.3156,4.286487 -2.36962,4.404874 -2.36962,5.193241 0,0.470139 0.34185,1.179531 0.89742,1.862285 0.87586,1.076376 2.620793,4.413394 2.304353,4.406878 -0.17254,-0.0036 -0.997463,-1.267568 -1.608163,-2.464176 -0.20987,-0.411212 -0.77013,-1.185118 -1.24503,-1.719791 l -0.86346,-0.972133 0.16294,0.926042 c 0.43022,2.445077 1.38718,4.220797 3.989963,7.403671 0.93533,1.143795 1.12448,1.566443 1.12448,2.512652 0,0.71067 -0.18283,1.363338 -0.4872,1.739218 l -0.4872,0.601664 -0.16184,-1.366532 c -0.15281,-1.29025 -0.64367,-2.214696 -2.251163,-4.239663 l -0.49617,-0.625032 -2.19573,2.729755 c -2.729489,3.393319 -4.26986,5.773837 -5.719529,8.839059 -1.780007,3.7637 -2.407954,7.120413 -1.686843,9.017078 0.553779,1.456549 3.932438,5.405515 8.810352,10.297506 6.087273,6.104842 9.137723,9.278359 12.029803,12.515144 l 2.19511,2.45673 1.68213,-3.51719 c 1.49476,-3.125408 2.9314,-7.045234 3.42245,-9.338017 0.15949,-0.744651 0.0814,-0.700623 -1.26273,0.711764 -0.78801,0.828033 -1.85707,2.353713 -2.37571,3.390401 -0.87212,1.743274 -0.9562,1.832144 -1.11916,1.18286 -0.3106,-1.237526 0.08,-3.79822 0.80569,-5.281403 0.38256,-0.781927 1.34826,-2.084886 2.14599,-2.895466 0.79773,-0.81058 1.34467,-1.473781 1.21541,-1.473781 -0.12925,0 -1.64981,0.58054 -3.37902,1.290089 -3.51627,1.442838 -3.51028,1.435142 -2.90718,3.736638 0.20968,0.800169 0.33651,1.499578 0.28185,1.554243 -0.16581,0.165812 -1.47745,-2.94814 -1.63533,-3.882417 -0.13572,-0.803175 -0.007,-1.01031 1.60901,-2.578819 0.96613,-0.938023 1.75659,-1.803041 1.75659,-1.922262 0,-0.11922 -0.68461,-0.498226 -1.52135,-0.842234 -4.51568,-1.856515 -8.85348,-5.562452 -10.47757,-8.951358 -1.598173,-3.33482 -1.886533,-7.530869 -0.816613,-11.88271 0.48041,-1.954058 1.079473,-2.968 0.822433,-1.392004 -0.0831,0.509323 -0.224533,2.116667 -0.314343,3.571875 -0.38669,6.265063 1.697553,11.125621 5.552803,12.949446 2.15112,1.017645 5.3966,1.375595 5.84813,0.645004 0.32164,-0.520434 0.60594,-0.161642 0.91604,1.156071 0.61854,2.628354 1.45955,3.813059 3.2328,4.553972 1.68524,0.704136 3.59807,0.390619 2.88187,-0.472345 -0.22436,-0.270346 -0.63323,-0.349008 -1.32899,-0.255687 -1.35982,0.18239 -2.54204,-0.470604 -3.20511,-1.77033 -0.29247,-0.573288 -0.53176,-1.188087 -0.53176,-1.366221 0,-0.178134 -0.24395,-0.827815 -0.54212,-1.443735 -0.63285,-1.307299 -2.05339,-2.439432 -6.27232,-4.99888 -1.63789,-0.993638 -2.9361,-1.848498 -2.88491,-1.899689 0.10673,-0.106723 3.51575,1.409624 5.86289,2.607831 3.2367,1.65233 5.1646,3.944115 4.74022,5.634946 -0.36963,1.472758 1.23256,3.185413 2.46492,2.634864 0.40068,-0.179 0.3729,-0.224731 -0.19368,-0.318838 -0.84296,-0.14001 -1.5875,-0.801269 -1.5875,-1.409926 0,-1.295887 1.28467,-0.770147 3.78652,1.549592 2.17975,2.0211 3.74219,2.709134 6.15208,2.709134 1.82579,0 5.27929,-1.096918 6.88463,-2.186731 1.90096,-1.290505 1.95736,-1.513747 0.70779,-2.801348 -1.22479,-1.262056 -1.92266,-2.589288 -2.11483,-4.022049 -0.12,-0.894681 -0.0544,-1.038684 0.63532,-1.39537 0.96581,-0.499443 4.48073,-1.236169 5.89775,-1.236169 0.58822,0 1.06949,-0.09932 1.06949,-0.22072 0,-0.354824 -1.9086,-2.980335 -4.49511,-6.183579 -2.46968,-3.05856 -3.40645,-4.698431 -3.94047,-6.898002 -0.21793,-0.897676 -0.22586,-1.415023 -0.0274,-1.785938 0.67241,-1.256403 1.69386,-0.171338 1.93664,2.057248 0.22472,2.062803 0.91733,3.365392 3.27104,6.151824 2.69747,3.193382 4.47363,5.799527 4.71939,6.924725 0.10578,0.484266 0.41493,1.164431 0.68701,1.511478 0.27207,0.347046 0.49468,0.85371 0.49468,1.125919 0,0.272208 -0.70186,1.955857 -1.55968,3.741441 -1.77693,3.698703 -3.19742,5.311009 -4.965,5.635429 -0.55877,0.102555 -1.42723,0.544401 -1.92991,0.98188 -1.4189,1.234849 -3.56695,2.099518 -5.57213,2.242988 -2.09203,0.149684 -3.15692,-0.147368 -5.59861,-1.561743 -0.97127,-0.562622 -1.83447,-1.02295 -1.91823,-1.02295 -0.0837,0 -0.15642,0.506016 -0.1615,1.12448 -0.0238,2.90271 -1.33466,7.672944 -3.03785,11.055029 -0.51058,1.01387 -0.87529,1.84341 -0.81046,1.84341 0.19746,0 2.77594,-4.378288 3.37858,-5.736867 0.31096,-0.701026 0.8429,-2.227093 1.18208,-3.39126 0.44077,-1.51284 0.57085,-1.777014 0.45598,-0.926042 -0.21164,1.567911 -1.25694,4.870691 -2.22291,7.023654 -1.14956,2.562165 -4.98283,8.322175 -5.53838,8.322175 -0.1033,0 -1.56238,-1.57757 -3.24239,-3.50573 z m 19.63138,-15.335342 c 0.81415,-0.257305 3.44237,-1.720134 3.44237,-1.915969 0,-0.04078 -1.19272,0.334218 -2.6505,0.833333 -1.78096,0.609768 -3.20664,0.922935 -4.34573,0.954585 -1.84578,0.05129 -1.95437,0.131638 -0.62396,0.461722 0.98769,0.245055 2.80622,0.09981 4.17782,-0.333671 z m 7.78223,-4.805006 c 0.42239,-0.677708 0.72005,-1.279829 0.66146,-1.338046 -0.0586,-0.05822 -0.75164,0.460213 -1.54012,1.152066 -1.07328,0.941762 -1.38833,1.375858 -1.25352,1.727182 0.16229,0.422918 0.23855,0.430832 0.77214,0.08013 0.32563,-0.214024 0.93765,-0.943624 1.36004,-1.621332 z M 63.518771,50.014007 c -0.60432,-2.008018 -0.49374,-5.004743 0.28493,-7.721215 0.36966,-1.289586 0.73487,-2.582827 0.81158,-2.873869 0.0767,-0.291041 -0.15946,-0.02287 -0.52482,0.595928 -1.62058,2.744719 -5.05263,6.471749 -7.04131,7.646488 -0.89372,0.527933 -1.02731,0.883947 -0.3337,0.889249 0.25466,0.0019 1.44401,0.345009 2.643,0.76236 l 2.17997,0.75882 -0.1956,-0.696214 c -0.4012,-1.428025 -0.11434,-3.225994 0.83293,-5.220679 0.51137,-1.076805 0.98685,-1.957827 1.05662,-1.957827 0.0698,0 -0.22202,0.955929 -0.64842,2.124285 -0.80909,2.216945 -0.98685,4.113265 -0.47836,5.103006 0.32214,0.627013 1.60152,2.074979 1.72462,1.951875 0.0417,-0.04165 -0.0985,-0.654646 -0.31144,-1.362207 z m -16.4379,40.403356 c -3.36764,-4.227868 -5.16479,-7.247569 -6.012233,-10.10219 -0.68922,-2.321649 -0.50224,-2.169785 1.117873,0.907918 1.54322,2.931622 2.45938,4.472288 5.1134,8.598959 2.43849,3.791543 2.40322,3.887398 -0.21904,0.595313 z M 35.431258,85.412284 c -3.31598,-5.087167 -4.037202,-9.502285 -2.272627,-13.912393 0.556984,-1.39204 0.635005,-1.145368 0.185649,0.586946 -0.459001,1.769493 -0.486563,5.296441 -0.05625,7.19784 0.175413,0.775086 1.113385,2.986826 2.084378,4.914977 0.971,1.928151 1.71778,3.505729 1.65951,3.505729 -0.0583,0 -0.77856,-1.031894 -1.60066,-2.293099 z m 32.727423,-0.220442 c 0,-0.242535 0.12799,-0.398309 0.28443,-0.346164 0.15643,0.05214 0.28443,0.207919 0.28443,0.346164 0,0.138244 -0.128,0.294018 -0.28443,0.346163 -0.15644,0.05214 -0.28443,-0.103629 -0.28443,-0.346163 z m -2.38125,-0.132292 c 0,-0.145521 0.18562,-0.264583 0.41249,-0.264583 0.22687,0 0.33891,0.119062 0.24897,0.264583 -0.0899,0.145521 -0.27556,0.264583 -0.41249,0.264583 -0.13693,0 -0.24897,-0.119062 -0.24897,-0.264583 z m -2.11667,-0.529167 c 0,-0.145521 0.18563,-0.264583 0.41249,-0.264583 0.22687,0 0.33891,0.119062 0.24897,0.264583 -0.0899,0.145521 -0.27555,0.264584 -0.41249,0.264584 -0.13693,0 -0.24897,-0.119063 -0.24897,-0.264584 z m 7.27605,-1.322916 c -0.0899,-0.145521 0.0221,-0.264584 0.24896,-0.264584 0.22687,0 0.41249,0.119063 0.41249,0.264584 0,0.14552 -0.11203,0.264583 -0.24896,0.264583 -0.13694,0 -0.32256,-0.119063 -0.41249,-0.264583 z m -7.01146,-1.058334 c 0,-0.145521 0.17859,-0.264583 0.39687,-0.264583 0.21828,0 0.39688,0.119062 0.39688,0.264583 0,0.145521 -0.1786,0.264583 -0.39688,0.264583 -0.21828,0 -0.39687,-0.119062 -0.39687,-0.264583 z m 1.89855,-1.56794 c -0.17108,-0.490751 -0.30266,-1.082866 -0.29241,-1.315813 0.0103,-0.232946 0.19085,0.04672 0.40132,0.621477 0.21046,0.574759 0.34205,1.166875 0.2924,1.315813 -0.0497,0.148939 -0.23024,-0.130726 -0.40131,-0.621477 z m -6.12869,-15.816269 c -0.35404,-0.247981 -1.42233,-0.54203 -2.37398,-0.653441 -1.22897,-0.14388 -2.38149,-0.530671 -3.97808,-1.335063 l -2.24783,-1.132496 1.34054,-0.163766 c 0.7373,-0.09007 1.59216,-0.298431 1.8997,-0.463021 0.84954,-0.454658 2.5751,-0.365956 3.18581,0.163766 0.49613,0.430346 3.08825,4.034896 2.90158,4.034896 -0.0462,0 -0.3737,-0.202894 -0.72774,-0.450875 z m -1.08344,-5.296618 c -0.44929,-0.691776 -0.95438,-1.079232 -1.69788,-1.302443 l -1.05833,-0.31773 0.9565,-0.02033 c 1.1393,-0.02422 2.216,0.729529 2.46622,1.726494 0.26126,1.040928 0.0475,1.013349 -0.66651,-0.08599 z"
           id="path6"
           sodipodi:nodetypes="sssssssssssscccssssssssssssssssssssssssssssssssssssssssscsscsssscsscssssscssssssssssssssssssssssssssssssssssssssssssssscssssssssssssssssssssssssssssssssscsssscscsssssscssssssssssssssssssssssssssssssssssssssssssssscssssssscsss" /></g></g></g></svg>
