<?xml version="1.0" encoding="UTF-8" standalone="no"?>
<!-- Created with Inkscape (http://www.inkscape.org/) -->

<svg
   width="105.83334mm"
   height="105.83334mm"
   viewBox="0 0 105.83333 105.83333"
   version="1.1"
   id="svg1"
   xml:space="preserve"
   inkscape:version="1.4 (e7c3feb100, 2024-10-09)"
   sodipodi:docname="wichita.svg"
   inkscape:export-filename="../pngs/boston.png"
   inkscape:export-xdpi="96"
   inkscape:export-ydpi="96"
   xmlns:inkscape="http://www.inkscape.org/namespaces/inkscape"
   xmlns:sodipodi="http://sodipodi.sourceforge.net/DTD/sodipodi-0.dtd"
   xmlns="http://www.w3.org/2000/svg"
   xmlns:svg="http://www.w3.org/2000/svg"><sodipodi:namedview
     id="namedview1"
     pagecolor="#ffffff"
     bordercolor="#000000"
     borderopacity="0.25"
     inkscape:showpageshadow="2"
     inkscape:pageopacity="0.0"
     inkscape:pagecheckerboard="0"
     inkscape:deskcolor="#d1d1d1"
     inkscape:document-units="mm"
     inkscape:zoom="1.1157835"
     inkscape:cx="384.48319"
     inkscape:cy="251.84097"
     inkscape:window-width="1920"
     inkscape:window-height="1011"
     inkscape:window-x="0"
     inkscape:window-y="32"
     inkscape:window-maximized="1"
     inkscape:current-layer="layer2"
     showgrid="false" /><defs
     id="defs1"><inkscape:path-effect
       effect="bspline"
       id="path-effect18"
       is_visible="true"
       lpeversion="1.3"
       weight="33.333333"
       steps="2"
       helper_size="0"
       apply_no_weight="true"
       apply_with_weight="true"
       only_selected="false"
       uniform="false" /><inkscape:path-effect
       effect="bspline"
       id="path-effect17"
       is_visible="true"
       lpeversion="1.3"
       weight="33.333333"
       steps="2"
       helper_size="0"
       apply_no_weight="true"
       apply_with_weight="true"
       only_selected="false"
       uniform="false" /></defs><g
     inkscape:groupmode="layer"
     id="layer2"
     inkscape:label="Capa 2"><circle
       style="fill:#000000;fill-opacity:1;stroke-width:3.89673"
       id="path1-5-3"
       cx="-52.916664"
       cy="52.916672"
       r="51.575306"
       transform="scale(-1,1)" /><circle
       style="fill:#ffffff;stroke-width:3.74654"
       id="path1-5"
       cx="-52.916664"
       cy="52.916672"
       r="49.587391"
       transform="scale(-1,1)" /><circle
       style="fill:#ffcd00;fill-opacity:1;stroke-width:3.57966"
       id="path1"
       cx="52.916664"
       cy="52.916672"
       r="47.378601" /><path
       style="fill:#000000;stroke-width:2.31561;stroke:#ffffff"
       d="m 21.860416,81.548396 c 0.09858,-0.300987 1.41316,-4.473236 2.921285,-9.271667 1.508124,-4.798432 3.177021,-10.065878 3.708656,-11.705436 l 0.966614,-2.981017 -9.912589,-7.213812 C 14.092456,46.408869 9.3855879,42.986204 9.0846739,42.770544 8.7837579,42.554893 8.5360053,42.334324 8.5341137,42.280408 c -0.00192,-0.05391 5.8517373,-0.07338 13.0080613,-0.04326 l 13.011501,0.05476 0.218662,-0.544901 c 0.120249,-0.299696 1.843301,-5.309022 3.828984,-11.131838 4.170448,-12.229411 3.964428,-11.665796 4.120682,-11.273128 0.179437,0.450949 3.052488,9.92432 5.227351,17.236301 1.071741,3.603236 1.970741,6.568127 1.997778,6.588643 0.02705,0.02061 9.268629,0.148176 20.536839,0.28367 11.268233,0.135508 20.708251,0.269263 20.977828,0.297253 0.269568,0.02799 2.519291,0.07639 4.999392,0.107559 4.095328,0.05146 3.780408,0.07025 -3.430967,0.20477 -16.655521,0.310684 -43.989091,0.578057 -44.129376,0.431667 -0.146578,-0.152969 -5.40559,-14.901882 -5.874274,-16.474454 -0.136574,-0.458276 -0.306343,-0.833231 -0.377243,-0.833231 -0.0709,0 -1.393285,4.088813 -2.938635,9.086251 l -2.809728,9.08625 -4.119899,0.128307 c -2.265945,0.07056 -6.289231,0.131481 -8.940636,0.135347 l -4.820736,0.007 0.588164,0.485949 c 0.323489,0.267272 1.779193,1.33793 3.234896,2.379238 5.451573,3.899679 10.437732,7.601608 10.517039,7.808283 0.04512,0.117585 -1.187036,4.046976 -2.738131,8.731986 -1.551093,4.685006 -2.796495,8.547426 -2.767563,8.583153 0.04729,0.05837 2.98801,-1.989728 11.678865,-8.133906 1.577604,-1.11532 2.930538,-2.027855 3.006523,-2.027855 0.119577,0 7.706757,5.719846 14.269688,10.757685 1.159168,0.889805 2.107592,1.537269 2.107592,1.438812 0,-0.09846 -0.536595,-2.022758 -1.19242,-4.276224 -1.504146,-5.168312 -3.123609,-10.995956 -3.111661,-11.197379 0.0139,-0.216624 1.240886,3.030984 3.648534,9.648835 3.299641,9.069617 3.590135,9.919494 3.341507,9.775942 -0.455618,-0.26309 -12.623626,-8.614227 -15.625554,-10.724123 -1.671363,-1.174713 -3.139314,-2.175464 -3.262115,-2.223892 -0.122797,-0.04841 -4.622247,3.204348 -9.998774,7.228389 -5.376523,4.024039 -10.058912,7.518225 -10.405303,7.764859 l -0.629799,0.448421 z M 32.449413,66.988558 c 0,-0.106448 0.847008,-2.85341 1.882242,-6.104339 1.134634,-3.563076 1.80483,-5.959153 1.687346,-6.032569 -0.771859,-0.482326 -10.21906,-7.39918 -10.226289,-7.487271 -0.0051,-0.06132 2.916203,-0.105429 6.491631,-0.09802 l 6.500778,0.01344 0.809277,-2.352653 c 0.445101,-1.293959 1.330444,-3.8692 1.967426,-5.722759 0.636986,-1.853556 1.211608,-3.337068 1.27694,-3.296691 0.06532,0.04039 0.902733,2.712052 1.86089,5.937055 l 1.742107,5.863642 5.698348,0.128447 c 3.134091,0.07065 8.345078,0.143312 11.579975,0.161513 5.089881,0.02863 5.498955,0.05143 3.038858,0.169455 -1.56354,0.07501 -6.891766,0.163205 -11.840487,0.195993 l -8.997674,0.05963 -1.445111,-4.100777 c -0.794809,-2.255425 -1.497669,-4.233112 -1.561911,-4.394857 -0.06669,-0.167904 -0.3665,0.504998 -0.698805,1.568437 -0.320101,1.024383 -0.978548,3.118074 -1.463213,4.652646 l -0.881215,2.790132 -4.437762,0.05266 -4.437762,0.05266 3.569995,2.61156 c 1.963497,1.436359 3.569994,2.674083 3.569994,2.750501 0,0.07641 -0.613307,2.030096 -1.362905,4.341508 -0.749601,2.311412 -1.344039,4.221437 -1.320976,4.244497 0.02316,0.02316 0.87899,-0.549638 1.902057,-1.272671 1.023069,-0.723033 2.667844,-1.872701 3.655062,-2.55482 l 1.794938,-1.240217 2.322204,1.760347 c 1.277212,0.968193 3.072111,2.343684 3.988666,3.056654 0.916554,0.712966 1.72295,1.297316 1.791992,1.298553 0.06903,0.0012 -0.352137,-1.6425 -0.935946,-3.652746 -0.583813,-2.010247 -1.036251,-3.680221 -1.005419,-3.71105 0.07598,-0.07598 3.451248,9.211399 3.37759,9.293728 -0.03207,0.03584 -2.185469,-1.401563 -4.785338,-3.194235 -2.888062,-1.991419 -4.820348,-3.203422 -4.966894,-3.115456 -0.13192,0.0792 -1.78379,1.300808 -3.670814,2.714712 -5.609431,4.203024 -6.469795,4.816518 -6.469795,4.613379 z"
       id="path7" /><path
       style="fill:#000000;stroke:none;stroke-width:2.31561"
       d="m 21.860416,81.548396 c 0.09858,-0.300987 1.41316,-4.473236 2.921285,-9.271667 1.508124,-4.798432 3.177021,-10.065878 3.708656,-11.705436 l 0.966614,-2.981017 -9.912589,-7.213812 C 14.092456,46.408869 9.3855879,42.986204 9.0846739,42.770544 8.7837579,42.554893 8.5360053,42.334324 8.5341137,42.280408 c -0.00192,-0.05391 5.8517373,-0.07338 13.0080613,-0.04326 l 13.011501,0.05476 0.218662,-0.544901 c 0.120249,-0.299696 1.843301,-5.309022 3.828984,-11.131838 4.170448,-12.229411 3.964428,-11.665796 4.120682,-11.273128 0.179437,0.450949 3.052488,9.92432 5.227351,17.236301 1.071741,3.603236 1.970741,6.568127 1.997778,6.588643 0.02705,0.02061 9.268629,0.148176 20.536839,0.28367 11.268233,0.135508 20.708251,0.269263 20.977828,0.297253 0.269568,0.02799 2.519291,0.07639 4.999392,0.107559 4.095328,0.05146 3.780408,0.07025 -3.430967,0.20477 -16.655521,0.310684 -43.989091,0.578057 -44.129376,0.431667 -0.146578,-0.152969 -5.40559,-14.901882 -5.874274,-16.474454 -0.136574,-0.458276 -0.306343,-0.833231 -0.377243,-0.833231 -0.0709,0 -1.393285,4.088813 -2.938635,9.086251 l -2.809728,9.08625 -4.119899,0.128307 c -2.265945,0.07056 -6.289231,0.131481 -8.940636,0.135347 l -4.820736,0.007 0.588164,0.485949 c 0.323489,0.267272 1.779193,1.33793 3.234896,2.379238 5.451573,3.899679 10.437732,7.601608 10.517039,7.808283 0.04512,0.117585 -1.187036,4.046976 -2.738131,8.731986 -1.551093,4.685006 -2.796495,8.547426 -2.767563,8.583153 0.04729,0.05837 2.98801,-1.989728 11.678865,-8.133906 1.577604,-1.11532 2.930538,-2.027855 3.006523,-2.027855 0.119577,0 7.706757,5.719846 14.269688,10.757685 1.159168,0.889805 2.107592,1.537269 2.107592,1.438812 0,-0.09846 -0.536595,-2.022758 -1.19242,-4.276224 -1.504146,-5.168312 -3.123609,-10.995956 -3.111661,-11.197379 0.0139,-0.216624 1.240886,3.030984 3.648534,9.648835 3.299641,9.069617 3.590135,9.919494 3.341507,9.775942 -0.455618,-0.26309 -12.623626,-8.614227 -15.625554,-10.724123 -1.671363,-1.174713 -3.139314,-2.175464 -3.262115,-2.223892 -0.122797,-0.04841 -4.622247,3.204348 -9.998774,7.228389 -5.376523,4.024039 -10.058912,7.518225 -10.405303,7.764859 l -0.629799,0.448421 z M 32.449413,66.988558 c 0,-0.106448 0.847008,-2.85341 1.882242,-6.104339 1.134634,-3.563076 1.80483,-5.959153 1.687346,-6.032569 -0.771859,-0.482326 -10.21906,-7.39918 -10.226289,-7.487271 -0.0051,-0.06132 2.916203,-0.105429 6.491631,-0.09802 l 6.500778,0.01344 0.809277,-2.352653 c 0.445101,-1.293959 1.330444,-3.8692 1.967426,-5.722759 0.636986,-1.853556 1.211608,-3.337068 1.27694,-3.296691 0.06532,0.04039 0.902733,2.712052 1.86089,5.937055 l 1.742107,5.863642 5.698348,0.128447 c 3.134091,0.07065 8.345078,0.143312 11.579975,0.161513 5.089881,0.02863 5.498955,0.05143 3.038858,0.169455 -1.56354,0.07501 -6.891766,0.163205 -11.840487,0.195993 l -8.997674,0.05963 -1.445111,-4.100777 c -0.794809,-2.255425 -1.497669,-4.233112 -1.561911,-4.394857 -0.06669,-0.167904 -0.3665,0.504998 -0.698805,1.568437 -0.320101,1.024383 -0.978548,3.118074 -1.463213,4.652646 l -0.881215,2.790132 -4.437762,0.05266 -4.437762,0.05266 3.569995,2.61156 c 1.963497,1.436359 3.569994,2.674083 3.569994,2.750501 0,0.07641 -0.613307,2.030096 -1.362905,4.341508 -0.749601,2.311412 -1.344039,4.221437 -1.320976,4.244497 0.02316,0.02316 0.87899,-0.549638 1.902057,-1.272671 1.023069,-0.723033 2.667844,-1.872701 3.655062,-2.55482 l 1.794938,-1.240217 2.322204,1.760347 c 1.277212,0.968193 3.072111,2.343684 3.988666,3.056654 0.916554,0.712966 1.72295,1.297316 1.791992,1.298553 0.06903,0.0012 -0.352137,-1.6425 -0.935946,-3.652746 -0.583813,-2.010247 -1.036251,-3.680221 -1.005419,-3.71105 0.07598,-0.07598 3.451248,9.211399 3.37759,9.293728 -0.03207,0.03584 -2.185469,-1.401563 -4.785338,-3.194235 -2.888062,-1.991419 -4.820348,-3.203422 -4.966894,-3.115456 -0.13192,0.0792 -1.78379,1.300808 -3.670814,2.714712 -5.609431,4.203024 -6.469795,4.816518 -6.469795,4.613379 z"
       id="path7-7" /><text
       xml:space="preserve"
       style="font-size:18.1055px;line-height:1;font-family:'Confetti Western';-inkscape-font-specification:'Confetti Western';text-align:center;letter-spacing:1.14574px;word-spacing:0px;writing-mode:lr-tb;direction:ltr;text-anchor:middle;fill:#000000;fill-opacity:1;stroke:#ffffff;stroke-width:0.757273;stroke-dasharray:none"
       x="75.838806"
       y="63.54108"
       id="text7"><tspan
         sodipodi:role="line"
         id="tspan7"
         style="fill:#000000;fill-opacity:1;stroke:#ffffff;stroke-width:0.757273;stroke-dasharray:none"
         x="76.411674"
         y="63.54108">WSU</tspan></text></g></svg>
