<?xml version="1.0" encoding="UTF-8" standalone="no"?>
<!-- Created with Inkscape (http://www.inkscape.org/) -->

<svg
   width="105.83334mm"
   height="105.83334mm"
   viewBox="0 0 105.83333 105.83333"
   version="1.1"
   id="svg1"
   xml:space="preserve"
   inkscape:version="1.4 (e7c3feb100, 2024-10-09)"
   sodipodi:docname="WORLD.svg"
   inkscape:export-filename="../pngs/charlotte.png"
   inkscape:export-xdpi="96"
   inkscape:export-ydpi="96"
   xmlns:inkscape="http://www.inkscape.org/namespaces/inkscape"
   xmlns:sodipodi="http://sodipodi.sourceforge.net/DTD/sodipodi-0.dtd"
   xmlns="http://www.w3.org/2000/svg"
   xmlns:svg="http://www.w3.org/2000/svg"><sodipodi:namedview
     id="namedview1"
     pagecolor="#ffffff"
     bordercolor="#000000"
     borderopacity="0.25"
     inkscape:showpageshadow="2"
     inkscape:pageopacity="0.0"
     inkscape:pagecheckerboard="0"
     inkscape:deskcolor="#d1d1d1"
     inkscape:document-units="mm"
     inkscape:zoom="1.4103651"
     inkscape:cx="308.43077"
     inkscape:cy="197.82112"
     inkscape:window-width="1920"
     inkscape:window-height="1011"
     inkscape:window-x="0"
     inkscape:window-y="32"
     inkscape:window-maximized="1"
     inkscape:current-layer="layer1"
     showgrid="false"
     showguides="true" /><defs
     id="defs1" /><g
     inkscape:label="Capa 1"
     inkscape:groupmode="layer"
     id="layer1"><circle
       style="fill:#ce1141;fill-opacity:1;stroke-width:3.97964"
       id="path81"
       cx="52.916672"
       cy="52.916672"
       r="49.549652" /><path
       id="path56"
       style="fill:#f7ac37;stroke-width:8.07832;fill-opacity:1"
       d="m 46.908326,100.39939 c -5.733834,-0.82723 -9.411636,-1.94842 -15.218212,-4.639303 -4.514232,-2.092044 -5.300717,-2.706811 -5.300717,-4.142972 0,-5.238142 9.828027,-27.911893 18.654096,-43.035946 5.746155,-9.846442 13.037806,-16.284595 18.995553,-16.772097 2.192571,-0.17944 2.330274,-0.05493 2.820067,2.547231 0.283557,1.504726 0.985562,6.737055 1.560904,11.627393 2.816672,23.943129 -0.490357,44.919462 -8.316544,52.745262 -1.926071,1.926112 -6.984365,2.566392 -13.195147,1.670432 z m 20.051295,-4.452296 c 2.128231,-3.807724 4.177045,-10.960897 5.299127,-18.501044 1.556363,-10.458038 0.659996,-32.710282 -1.808584,-44.907012 -0.366738,-1.811029 -0.357871,-1.815061 2.497744,-1.173426 11.896709,2.673012 23.126782,19.711943 23.189143,35.183909 0.02425,6.144371 -1.485115,10.258419 -5.705718,15.54633 -6.004368,7.522937 -15.584773,14.246524 -23.619466,16.576392 l -1.641309,0.475802 z M 18.223266,85.991939 C 15.871958,83.548815 12.757797,79.549232 11.302893,77.10409 7.7891828,71.198755 4.9683587,62.554225 5.3884355,58.979004 6.6640157,48.122951 16.852708,36.561177 31.853702,28.947125 42.170687,23.710546 51.155609,21.03819 59.236793,20.802675 l 4.311683,-0.125596 0.835013,3.219165 0.835014,3.219171 -4.383106,1.458601 c -4.593261,1.528534 -9.309944,4.818857 -13.095046,9.134992 -3.750991,4.277239 -6.395247,8.832772 -14.56035,25.084763 -5.685539,11.316597 -7.255173,15.10476 -9.187025,22.172325 l -1.494641,5.46805 z M 98.68664,56.585154 C 98.016146,54.140006 96.025581,49.247769 94.26304,45.713566 89.029496,35.219772 81.250811,28.560011 72.939661,27.457497 69.161681,26.956319 68.829267,26.597384 67.812349,21.920998 l -0.473377,-2.175834 3.634844,0.35658 c 11.075531,1.086508 21.99395,6.361402 24.933483,12.045833 3.36745,6.511993 5.446801,18.110103 4.503911,25.121567 l -0.505709,3.761751 z M 5.1946182,45.573652 C 5.236725,37.151484 14.113569,21.615441 21.859545,16.408617 c 5.556742,-3.735223 8.621968,-4.281166 24.03718,-4.281166 h 13.787349 l 0.819355,1.7983 c 0.450696,0.989062 0.697329,1.920356 0.548119,2.069541 -0.14921,0.149189 -3.007716,0.721634 -6.352289,1.272075 C 34.559641,20.581992 16.268325,31.027389 7.0673866,44.467913 5.3927428,46.914207 5.1873812,47.035457 5.1946182,45.573652 Z M 85.552346,19.649744 c -3.422128,-1.568519 -12.280329,-3.418503 -16.368779,-3.418503 -2.76116,0 -3.205219,-0.224577 -4.183058,-2.115452 -0.601671,-1.163495 -0.985621,-2.22377 -0.853234,-2.356155 0.132524,-0.132407 3.079644,-0.298173 6.549522,-0.368372 5.756691,-0.116492 6.533185,0.02587 8.872268,1.622894 2.560745,1.748696 9.707957,8.002691 9.061115,7.928683 -0.18821,-0.02181 -1.573162,-0.603446 -3.077834,-1.293111 z M 39.72671,6.5278285 c 2.325482,-0.7702692 6.242098,-1.4075125 9.038359,-1.4706184 4.288728,-0.0968 5.136664,0.089988 6.478661,1.4275358 l 1.54408,1.5389203 -10.58244,-0.06867 -10.582458,-0.06867 z m 20.996945,0.091579 c -0.841029,-1.3466868 -0.770673,-1.3850932 1.71638,-0.9367365 1.426342,0.2571343 3.516698,0.8639529 4.64528,1.3484745 2.012957,0.864257 1.980476,0.8819978 -1.716419,0.9367378 -3.09598,0.046043 -3.924726,-0.1947649 -4.645241,-1.3484722 z" /><path
       sodipodi:type="star"
       style="fill:#a3acbe;fill-opacity:1;stroke:#ffffff;stroke-width:2.486;stroke-dasharray:none"
       id="path1"
       inkscape:flatsided="false"
       sodipodi:sides="5"
       sodipodi:cx="-7.8791656"
       sodipodi:cy="3.1891861"
       sodipodi:r1="19.960588"
       sodipodi:r2="8.6442461"
       sodipodi:arg1="0.92541552"
       sodipodi:arg2="1.5046306"
       inkscape:rounded="0"
       inkscape:randomized="0"
       d="m 4.1271822,19.135117 -11.4348123,-7.3206 -12.0268509,7.720948 3.428752,-13.1373423 -11.059559,-9.0523113 13.553898,-0.7987246 5.1916678,-13.3155838 4.948017,12.6437034 14.2681862,0.8228279 -10.49585503,8.6129631 z"
       inkscape:transform-center-x="0.12925134"
       inkscape:transform-center-y="-1.6419651"
       transform="matrix(1.2281778,0,0,1.2281778,48.697643,36.899102)" /><path
       sodipodi:type="star"
       style="fill:#a3acbe;fill-opacity:1;stroke:#ffffff;stroke-width:2.486;stroke-dasharray:none"
       id="path1-2"
       inkscape:flatsided="false"
       sodipodi:sides="5"
       sodipodi:cx="-7.8791656"
       sodipodi:cy="3.1891861"
       sodipodi:r1="19.960588"
       sodipodi:r2="8.6442461"
       sodipodi:arg1="0.92541552"
       sodipodi:arg2="1.5046306"
       inkscape:rounded="0"
       inkscape:randomized="0"
       d="m 4.1271822,19.135117 -11.4348123,-7.3206 -12.0268509,7.720948 3.428752,-13.1373423 -11.059559,-9.0523113 13.553898,-0.7987246 5.1916678,-13.3155838 4.948017,12.6437034 14.2681862,0.8228279 -10.49585503,8.6129631 z"
       inkscape:transform-center-x="0.07342729"
       inkscape:transform-center-y="-0.93278874"
       transform="matrix(0.69771939,0,0,0.69771939,78.798454,50.796914)" /><path
       sodipodi:type="star"
       style="fill:#a3acbe;fill-opacity:1;stroke:#ffffff;stroke-width:2.486;stroke-dasharray:none"
       id="path1-2-7"
       inkscape:flatsided="false"
       sodipodi:sides="5"
       sodipodi:cx="-7.8791656"
       sodipodi:cy="3.1891861"
       sodipodi:r1="19.960588"
       sodipodi:r2="8.6442461"
       sodipodi:arg1="0.92541552"
       sodipodi:arg2="1.5046306"
       inkscape:rounded="0"
       inkscape:randomized="0"
       d="m 4.1271822,19.135117 -11.4348123,-7.3206 -12.0268509,7.720948 3.428752,-13.1373423 -11.059559,-9.0523113 13.553898,-0.7987246 5.1916678,-13.3155838 4.948017,12.6437034 14.2681862,0.8228279 -10.49585503,8.6129631 z"
       inkscape:transform-center-x="0.036123885"
       inkscape:transform-center-y="-0.45893517"
       transform="matrix(0.34328051,0,0,0.34328051,95.716775,58.813994)" /><path
       sodipodi:type="star"
       style="fill:#a3acbe;fill-opacity:1;stroke:#ffffff;stroke-width:2.486;stroke-dasharray:none"
       id="path1-2-7-6"
       inkscape:flatsided="false"
       sodipodi:sides="5"
       sodipodi:cx="-7.8791656"
       sodipodi:cy="3.1891861"
       sodipodi:r1="19.960588"
       sodipodi:r2="8.6442461"
       sodipodi:arg1="0.92541552"
       sodipodi:arg2="1.5046306"
       inkscape:rounded="0"
       inkscape:randomized="0"
       d="m 4.1271822,19.135117 -11.4348123,-7.3206 -12.0268509,7.720948 3.428752,-13.1373423 -11.059559,-9.0523113 13.553898,-0.7987246 5.1916678,-13.3155838 4.948017,12.6437034 14.2681862,0.8228279 -10.49585503,8.6129631 z"
       inkscape:transform-center-x="0.036123885"
       inkscape:transform-center-y="-0.45893517"
       transform="matrix(0.34328051,0,0,0.34328051,13.563317,45.963372)" /></g></svg>
